# 3ds Max Wavefront OBJ Exporter v0.97b - (c)2007 guruware
# File Created: 15.03.2017 10:56:48

mtllib SPW_Urban_Factory_Element_01.mtl

#
# object SPW_Urban_Factory_Element_01
#

v  -129.9213 1062.9921 75.7872
v  -129.9213 1082.6771 75.7872
v  -174.4680 1082.6771 61.3131
v  -174.4680 1062.9921 61.3131
v  -174.4680 1062.9921 -61.3135
v  -129.9212 1062.9921 -75.7876
v  -129.9212 1062.9921 -64.9608
v  -168.1042 1062.9921 -52.5544
v  -201.9994 1062.9921 -23.4198
v  -191.7025 1062.9921 -20.0741
v  -201.9994 1062.9921 23.4194
v  -191.7025 1062.9921 20.0738
v  -168.1042 1062.9921 52.5541
v  -129.9213 1062.9921 64.9605
v  -91.7383 1062.9921 -52.5544
v  -85.3745 1062.9921 -61.3135
v  -68.1400 1062.9921 -20.0741
v  -57.8431 1062.9921 -23.4198
v  -68.1400 1062.9921 20.0738
v  -57.8432 1062.9921 23.4194
v  -91.7384 1062.9921 52.5541
v  -85.3746 1062.9921 61.3131
v  -85.3746 1082.6771 61.3131
v  -85.3745 1082.6771 -61.3135
v  -129.9212 1082.6771 -75.7876
v  -129.9212 1082.6771 -64.9608
v  -91.7383 1082.6771 -52.5544
v  -57.8431 1082.6771 -23.4198
v  -68.1400 1082.6771 -20.0741
v  -57.8432 1082.6771 23.4194
v  -68.1400 1082.6771 20.0738
v  -91.7384 1082.6771 52.5541
v  -129.9213 1082.6771 64.9605
v  -168.1042 1082.6771 -52.5544
v  -174.4680 1082.6771 -61.3135
v  -191.7025 1082.6771 -20.0741
v  -201.9994 1082.6771 -23.4198
v  -191.7025 1082.6771 20.0737
v  -201.9994 1082.6771 23.4194
v  -168.1042 1082.6771 52.5541
v  -129.9213 679.1339 75.7873
v  -129.9213 698.8188 75.7873
v  -174.4680 698.8188 61.3132
v  -174.4680 679.1339 61.3132
v  -201.9994 698.8188 23.4195
v  -201.9994 679.1339 23.4195
v  -201.9994 698.8188 -23.4197
v  -201.9994 679.1339 -23.4197
v  -174.4680 698.8188 -61.3134
v  -174.4680 679.1339 -61.3134
v  -129.9212 698.8188 -75.7875
v  -129.9212 679.1339 -75.7875
v  -85.3745 698.8188 -61.3134
v  -85.3745 679.1339 -61.3134
v  -57.8432 698.8188 -23.4197
v  -57.8432 679.1339 -23.4197
v  -57.8432 698.8188 23.4195
v  -57.8432 679.1339 23.4195
v  -85.3746 698.8188 61.3132
v  -85.3746 679.1339 61.3132
v  -129.9213 875.9843 75.7873
v  -129.9213 895.6693 75.7873
v  -174.4680 895.6693 61.3131
v  -174.4680 875.9843 61.3131
v  -201.9994 895.6693 23.4194
v  -201.9994 875.9843 23.4194
v  -201.9994 895.6693 -23.4198
v  -201.9994 875.9843 -23.4198
v  -174.4680 895.6693 -61.3135
v  -174.4680 875.9843 -61.3135
v  -129.9212 895.6693 -75.7876
v  -129.9212 875.9843 -75.7876
v  -85.3745 895.6693 -61.3134
v  -85.3745 875.9843 -61.3134
v  -57.8432 895.6693 -23.4197
v  -57.8432 875.9843 -23.4197
v  -57.8432 895.6693 23.4195
v  -57.8432 875.9843 23.4195
v  -85.3746 895.6693 61.3132
v  -85.3746 875.9843 61.3132
v  -129.9213 482.2834 75.7873
v  -129.9213 501.9685 75.7873
v  -174.4680 501.9685 61.3132
v  -174.4680 482.2834 61.3132
v  -201.9994 501.9685 23.4195
v  -201.9994 482.2834 23.4195
v  -201.9994 501.9685 -23.4197
v  -201.9994 482.2834 -23.4197
v  -174.4680 501.9685 -61.3134
v  -174.4680 482.2834 -61.3134
v  -129.9212 501.9685 -75.7875
v  -129.9212 482.2834 -75.7875
v  -85.3745 501.9685 -61.3134
v  -85.3745 482.2834 -61.3134
v  -57.8432 501.9685 -23.4197
v  -57.8432 482.2834 -23.4197
v  -57.8432 501.9685 23.4195
v  -57.8432 482.2834 23.4195
v  -85.3746 501.9685 61.3132
v  -85.3746 482.2834 61.3132
v  -129.9213 98.4252 64.9606
v  -129.9213 1082.6771 64.9604
v  -168.1042 98.4252 52.5542
v  -191.7025 98.4252 20.0739
v  -191.7025 98.4252 -20.0740
v  -168.1042 98.4252 -52.5543
v  -129.9212 98.4252 -64.9607
v  -91.7383 98.4252 -52.5543
v  -68.1400 98.4252 -20.0740
v  -68.1400 98.4252 20.0739
v  -160.3209 1082.6771 -41.8416
v  -129.9212 1082.6771 -51.7191
v  -91.7384 98.4252 52.5542
v  -179.1089 1082.6771 15.9818
v  -160.3209 1082.6771 41.8413
v  -160.3209 1021.0466 41.8413
v  -179.1089 1021.0466 15.9818
v  -179.1089 1082.6771 -15.9822
v  -129.9213 1082.6771 51.7187
v  -99.5217 1082.6771 41.8413
v  -80.7337 1082.6771 15.9818
v  -80.7337 1082.6771 -15.9822
v  -99.5217 1082.6771 -41.8416
v  -129.9213 1021.0466 51.7187
v  -99.5217 1021.0466 41.8413
v  -80.7337 1021.0466 15.9819
v  -80.7337 1021.0466 -15.9822
v  -99.5217 1021.0466 -41.8416
v  -129.9212 1021.0466 -51.7191
v  -160.3209 1021.0466 -41.8416
v  -179.1089 1021.0466 -15.9822
v  -129.9213 116.3735 75.7874
v  -129.9213 302.2896 75.7873
v  -174.4680 302.2896 61.3132
v  -174.4680 116.3735 61.3133
v  -201.9994 302.2896 23.4195
v  -201.9994 116.3735 23.4195
v  -201.9994 302.2896 -23.4197
v  -201.9994 116.3735 -23.4196
v  -174.4680 302.2896 -61.3134
v  -174.4680 116.3735 -61.3134
v  -129.9212 302.2896 -75.7875
v  -129.9212 116.3735 -75.7874
v  -85.3745 302.2896 -61.3134
v  -85.3745 116.3735 -61.3133
v  -57.8432 302.2896 -23.4197
v  -57.8432 116.3735 -23.4196
v  -57.8432 302.2896 23.4196
v  -57.8432 116.3735 23.4196
v  -85.3746 302.2896 61.3133
v  -85.3746 116.3735 61.3133
v  243.7627 162.1502 100.3912
v  243.7627 159.7699 103.9951
v  310.9879 159.7699 103.9951
v  310.9879 162.1502 100.3912
v  310.9879 152.0670 103.9951
v  310.9879 149.6867 100.3912
v  304.1330 155.9185 100.3912
v  306.7513 155.9185 103.9951
v  243.7627 152.0670 103.9951
v  243.7627 149.6867 100.3912
v  243.7627 152.0670 92.3328
v  243.7627 155.9185 90.9562
v  310.9879 155.9185 90.9562
v  310.9879 152.0670 92.3328
v  243.7627 162.1502 95.9366
v  310.9879 162.1502 95.9366
v  243.7627 155.9185 105.3716
v  310.9879 155.9185 105.3716
v  243.7627 149.6867 95.9366
v  310.9879 149.6867 95.9366
v  243.7627 159.7699 92.3328
v  310.9879 159.7699 92.3328
v  306.7513 155.9185 92.3328
v  310.9879 -0.0298 90.9562
v  306.7513 -0.0298 92.3328
v  317.8429 155.9185 100.3912
v  317.8429 155.9185 95.9366
v  304.1330 155.9185 95.9366
v  315.2245 155.9185 92.3328
v  315.2245 155.9185 103.9951
v  315.2245 -0.0298 92.3328
v  317.8429 -0.0298 95.9366
v  317.8429 -0.0298 100.3913
v  315.2245 -0.0298 103.9951
v  310.9879 -0.0298 105.3717
v  306.7513 -0.0298 103.9951
v  304.1330 -0.0298 100.3913
v  304.1330 -0.0298 95.9366
v  243.7627 162.1502 124.7318
v  243.7627 159.7699 128.3357
v  310.9879 159.7699 128.3357
v  310.9879 162.1502 124.7318
v  310.9879 152.0670 128.3357
v  310.9879 149.6867 124.7318
v  304.1330 155.9185 124.7318
v  306.7513 155.9185 128.3357
v  243.7627 152.0670 128.3357
v  243.7627 149.6867 124.7318
v  243.7627 152.0670 116.6734
v  243.7627 155.9185 115.2968
v  310.9879 155.9185 115.2968
v  310.9879 152.0670 116.6734
v  243.7627 162.1502 120.2772
v  310.9879 162.1502 120.2772
v  243.7627 155.9185 129.7122
v  310.9879 155.9185 129.7122
v  243.7627 149.6867 120.2772
v  310.9879 149.6867 120.2772
v  243.7627 159.7699 116.6734
v  310.9879 159.7699 116.6734
v  306.7513 155.9185 116.6734
v  310.9879 -0.0298 115.2968
v  306.7513 -0.0298 116.6734
v  317.8428 155.9185 124.7318
v  317.8429 155.9185 120.2772
v  304.1330 155.9185 120.2772
v  315.2245 155.9185 116.6734
v  315.2245 155.9185 128.3357
v  315.2245 -0.0298 116.6734
v  317.8429 -0.0298 120.2772
v  317.8428 -0.0298 124.7318
v  315.2245 -0.0298 128.3357
v  310.9879 -0.0298 129.7122
v  306.7513 -0.0298 128.3357
v  304.1330 -0.0298 124.7318
v  304.1330 -0.0298 120.2772
v  129.9212 1062.9921 75.7873
v  129.9212 1082.6771 75.7873
v  85.3745 1082.6771 61.3132
v  85.3745 1062.9921 61.3132
v  85.3745 1062.9921 -61.3135
v  129.9213 1062.9921 -75.7876
v  129.9213 1062.9921 -64.9608
v  91.7384 1062.9921 -52.5544
v  57.8432 1062.9921 -23.4198
v  68.1400 1062.9921 -20.0741
v  57.8431 1062.9921 23.4194
v  68.1400 1062.9921 20.0738
v  91.7383 1062.9921 52.5541
v  129.9212 1062.9921 64.9605
v  168.1042 1062.9921 -52.5544
v  174.4680 1062.9921 -61.3134
v  191.7025 1062.9921 -20.0741
v  201.9994 1062.9921 -23.4197
v  191.7025 1062.9921 20.0738
v  201.9994 1062.9921 23.4195
v  168.1041 1062.9921 52.5541
v  174.4680 1062.9921 61.3132
v  174.4680 1082.6771 61.3132
v  174.4680 1082.6771 -61.3134
v  129.9213 1082.6771 -75.7876
v  129.9213 1082.6771 -64.9608
v  168.1042 1082.6771 -52.5544
v  201.9994 1082.6771 -23.4197
v  191.7025 1082.6771 -20.0741
v  201.9994 1082.6771 23.4195
v  191.7025 1082.6771 20.0738
v  168.1041 1082.6771 52.5541
v  129.9212 1082.6771 64.9605
v  91.7384 1082.6771 -52.5544
v  85.3745 1082.6771 -61.3135
v  68.1400 1082.6771 -20.0741
v  57.8432 1082.6771 -23.4198
v  68.1400 1082.6771 20.0738
v  57.8431 1082.6771 23.4194
v  91.7383 1082.6771 52.5541
v  129.9212 679.1339 75.7873
v  129.9212 698.8188 75.7873
v  85.3745 698.8188 61.3132
v  85.3745 679.1339 61.3132
v  57.8431 698.8188 23.4195
v  57.8431 679.1339 23.4195
v  57.8432 698.8188 -23.4197
v  57.8432 679.1339 -23.4197
v  85.3745 698.8188 -61.3134
v  85.3745 679.1339 -61.3134
v  129.9213 698.8188 -75.7875
v  129.9213 679.1339 -75.7875
v  174.4680 698.8188 -61.3134
v  174.4680 679.1339 -61.3134
v  201.9994 698.8188 -23.4197
v  201.9994 679.1339 -23.4197
v  201.9994 698.8188 23.4195
v  201.9994 679.1339 23.4195
v  174.4680 698.8188 61.3132
v  174.4680 679.1339 61.3132
v  129.9212 875.9843 75.7873
v  129.9212 895.6693 75.7873
v  85.3745 895.6693 61.3132
v  85.3745 875.9843 61.3132
v  57.8431 895.6693 23.4195
v  57.8431 875.9843 23.4195
v  57.8432 895.6693 -23.4197
v  57.8432 875.9843 -23.4197
v  85.3745 895.6693 -61.3134
v  85.3745 875.9843 -61.3134
v  129.9213 895.6693 -75.7875
v  129.9213 875.9843 -75.7875
v  174.4680 895.6693 -61.3134
v  174.4680 875.9843 -61.3134
v  201.9994 895.6693 -23.4197
v  201.9994 875.9843 -23.4197
v  201.9994 895.6693 23.4195
v  201.9994 875.9843 23.4195
v  174.4680 895.6693 61.3132
v  174.4680 875.9843 61.3132
v  129.9212 482.2834 75.7874
v  129.9212 501.9685 75.7874
v  85.3745 501.9685 61.3132
v  85.3745 482.2834 61.3132
v  57.8431 501.9685 23.4195
v  57.8431 482.2834 23.4195
v  57.8432 501.9685 -23.4197
v  57.8432 482.2834 -23.4197
v  85.3745 501.9685 -61.3134
v  85.3745 482.2834 -61.3134
v  129.9213 501.9685 -75.7875
v  129.9213 482.2834 -75.7875
v  174.4680 501.9685 -61.3133
v  174.4680 482.2834 -61.3133
v  201.9994 501.9685 -23.4196
v  201.9994 482.2834 -23.4196
v  201.9994 501.9685 23.4196
v  201.9994 482.2834 23.4196
v  174.4680 501.9685 61.3133
v  174.4680 482.2834 61.3133
v  129.9212 98.4252 64.9606
v  91.7383 98.4252 52.5543
v  68.1400 98.4252 20.0739
v  68.1400 98.4252 -20.0739
v  91.7384 98.4252 -52.5543
v  129.9213 98.4252 -64.9606
v  168.1042 98.4252 -52.5542
v  191.7025 98.4252 -20.0739
v  191.7025 98.4252 20.0740
v  99.5217 1082.6771 -41.8416
v  129.9213 1082.6771 -51.7190
v  168.1041 98.4252 52.5543
v  80.7337 1082.6771 15.9819
v  99.5216 1082.6771 41.8413
v  99.5216 1021.0466 41.8413
v  80.7337 1021.0466 15.9819
v  80.7337 1082.6771 -15.9822
v  129.9212 1082.6771 51.7188
v  160.3208 1082.6771 41.8413
v  179.1088 1082.6771 15.9819
v  179.1088 1082.6771 -15.9822
v  160.3209 1082.6771 -41.8416
v  129.9212 1021.0466 51.7188
v  160.3208 1021.0466 41.8413
v  179.1088 1021.0466 15.9819
v  179.1088 1021.0466 -15.9821
v  160.3209 1021.0466 -41.8416
v  129.9213 1021.0466 -51.7190
v  99.5217 1021.0466 -41.8416
v  80.7337 1021.0466 -15.9822
v  129.9212 116.3735 75.7874
v  129.9212 302.2896 75.7874
v  85.3745 302.2896 61.3133
v  85.3745 116.3735 61.3133
v  57.8431 302.2896 23.4196
v  57.8431 116.3735 23.4196
v  57.8432 302.2896 -23.4196
v  57.8432 116.3735 -23.4196
v  85.3745 302.2896 -61.3133
v  85.3745 116.3735 -61.3133
v  129.9213 302.2896 -75.7874
v  129.9213 116.3735 -75.7874
v  174.4680 302.2896 -61.3133
v  174.4680 116.3735 -61.3133
v  201.9994 302.2896 -23.4196
v  201.9994 116.3735 -23.4196
v  201.9994 302.2896 23.4196
v  201.9994 116.3735 23.4196
v  174.4680 302.2896 61.3133
v  174.4680 116.3735 61.3133
v  303.1497 196.8504 -173.2284
v  303.1496 196.8504 173.2283
v  303.1496 0.0000 173.2284
v  303.1497 -0.0000 -173.2283
v  -303.1496 -0.0000 -173.2284
v  -303.1496 196.8504 -173.2284
v  276.9950 196.8504 -147.2356
v  276.9950 196.8504 147.2356
v  -303.1497 196.8504 173.2283
v  -303.1497 0.0000 173.2283
v  -276.9950 196.8504 -147.2357
v  -276.9950 196.8504 147.2355
v  276.9950 181.1023 -147.2356
v  276.9950 181.1024 147.2356
v  -276.9950 181.1023 -147.2357
v  -276.9950 181.1024 147.2355
# 393 vertices

vn -0.3090 0.0000 0.9511
vn 0.0000 -1.0000 0.0000
vn 0.3090 0.0000 0.9511
vn 0.0000 1.0000 -0.0000
vn -0.8090 0.0000 0.5878
vn -1.0000 0.0000 -0.0000
vn -0.8090 -0.0000 -0.5878
vn -0.3090 -0.0000 -0.9511
vn 0.3090 -0.0000 -0.9511
vn 0.8090 -0.0000 -0.5878
vn 1.0000 0.0000 0.0000
vn 0.8090 0.0000 0.5878
vn -1.0000 -0.0000 -0.0000
vn -0.3090 -0.0000 0.9511
vn -0.3090 0.0000 -0.9511
vn 0.3090 0.0000 -0.9511
vn 0.3090 -0.0000 0.9511
vn 1.0000 0.0000 -0.0000
vn 0.0000 0.8344 0.5511
vn 0.6044 0.6648 -0.4391
vn 0.0000 -0.8344 0.5511
vn -0.0000 -0.3366 -0.9417
vn 0.0000 -0.3366 0.9417
vn -0.0000 -0.8344 -0.5511
vn -0.0000 0.8344 -0.5511
vn 0.0000 0.3366 0.9417
vn -0.0000 0.3366 -0.9417
vn 0.2926 0.3218 0.9005
vn 0.6727 0.7399 -0.0000
vn 0.2926 0.3218 -0.9005
vn 0.6044 0.6648 0.4391
vn -0.0000 -1.0000 0.0000
vn -0.8090 -0.0000 0.5878
vn -0.0000 0.8344 0.5511
vn -0.0000 -0.8344 0.5511
vn 0.0000 -0.3366 -0.9417
vn -0.0000 -0.3366 0.9417
vn 0.0000 -0.8344 -0.5511
vn -0.0000 0.3366 0.9417
vn 0.0000 0.3366 -0.9417
vn 0.6727 0.7399 0.0000
vn 0.0000 -0.0000 -1.0000
vn -0.0000 0.0000 1.0000
# 43 vertex normals

vt 0.2892 0.8345 0.0000
vt 0.3392 0.8345 0.0000
vt 0.3392 0.8845 0.0000
vt 0.2892 0.8845 0.0000
vt 0.3358 0.8470 0.0000
vt 0.3267 0.8379 0.0000
vt 0.3142 0.8345 0.0000
vt 0.3017 0.8379 0.0000
vt 0.3392 0.8595 0.0000
vt 0.2925 0.8470 0.0000
vt 0.3358 0.8720 0.0000
vt 0.2892 0.8595 0.0000
vt 0.3267 0.8812 0.0000
vt 0.2925 0.8720 0.0000
vt 0.3142 0.8845 0.0000
vt 0.3017 0.8812 0.0000
vt 0.3289 0.8798 0.0000
vt 0.3379 0.8673 0.0000
vt 0.3379 0.8518 0.0000
vt 0.3289 0.8393 0.0000
vt 0.2995 0.8393 0.0000
vt 0.2904 0.8518 0.0000
vt 0.2904 0.8673 0.0000
vt 0.2995 0.8798 0.0000
vt 0.5452 0.2173 0.0000
vt 0.5437 0.2169 0.0000
vt 0.5111 0.2138 0.0000
vt 0.5126 0.2143 0.0000
vt 0.5111 0.2117 0.0000
vt 0.5126 0.2108 0.0000
vt 0.5159 0.2128 0.0000
vt 0.5131 0.2129 0.0000
vt 0.5437 0.2147 0.0000
vt 0.5452 0.2139 0.0000
vt 0.5485 0.2141 0.0000
vt 0.5491 0.2151 0.0000
vt 0.5164 0.2120 0.0000
vt 0.5159 0.2110 0.0000
vt 0.5470 0.2171 0.0000
vt 0.5144 0.2140 0.0000
vt 0.5432 0.2159 0.0000
vt 0.5105 0.2128 0.0000
vt 0.5470 0.2136 0.0000
vt 0.5144 0.2106 0.0000
vt 0.5485 0.2162 0.0000
vt 0.5159 0.2132 0.0000
vt 0.5179 0.2123 0.0000
vt 0.5164 0.1688 0.0000
vt 0.5179 0.1690 0.0000
vt 0.5092 0.2122 0.0000
vt 0.5111 0.2120 0.0000
vt 0.5177 0.2126 0.0000
vt 0.5138 0.2119 0.0000
vt 0.5090 0.2125 0.0000
vt 0.5138 0.1686 0.0000
vt 0.5111 0.1687 0.0000
vt 0.5092 0.1690 0.0000
vt 0.5090 0.1693 0.0000
vt 0.5105 0.1695 0.0000
vt 0.5131 0.1697 0.0000
vt 0.5159 0.1696 0.0000
vt 0.5177 0.1693 0.0000
vt 0.5353 0.2186 0.0000
vt 0.5338 0.2182 0.0000
vt 0.5011 0.2151 0.0000
vt 0.5026 0.2156 0.0000
vt 0.5011 0.2130 0.0000
vt 0.5026 0.2121 0.0000
vt 0.5059 0.2142 0.0000
vt 0.5032 0.2142 0.0000
vt 0.5338 0.2160 0.0000
vt 0.5353 0.2152 0.0000
vt 0.5386 0.2154 0.0000
vt 0.5391 0.2164 0.0000
vt 0.5065 0.2133 0.0000
vt 0.5059 0.2123 0.0000
vt 0.5371 0.2184 0.0000
vt 0.5044 0.2153 0.0000
vt 0.5332 0.2172 0.0000
vt 0.5006 0.2141 0.0000
vt 0.5371 0.2149 0.0000
vt 0.5044 0.2119 0.0000
vt 0.5386 0.2175 0.0000
vt 0.5059 0.2145 0.0000
vt 0.5080 0.2136 0.0000
vt 0.5065 0.1701 0.0000
vt 0.5080 0.1703 0.0000
vt 0.4993 0.2135 0.0000
vt 0.5011 0.2133 0.0000
vt 0.5078 0.2139 0.0000
vt 0.5038 0.2132 0.0000
vt 0.4991 0.2139 0.0000
vt 0.5038 0.1700 0.0000
vt 0.5011 0.1700 0.0000
vt 0.4993 0.1703 0.0000
vt 0.4991 0.1706 0.0000
vt 0.5006 0.1709 0.0000
vt 0.5032 0.1710 0.0000
vt 0.5059 0.1709 0.0000
vt 0.5078 0.1707 0.0000
vt 0.4072 0.1442 0.0000
vt 0.4072 0.0942 0.0000
vt 0.4572 0.0942 0.0000
vt 0.4572 0.1442 0.0000
vt 0.4093 0.1442 0.0000
vt 0.4550 0.1442 0.0000
vt 0.4093 0.1402 0.0000
vt 0.4550 0.1402 0.0000
vt 0.4481 0.0482 0.0000
vt 0.4024 0.0482 0.0000
# 110 texture coords

g SPW_Urban_Factory_Element_01
usemtl SPW_Urban_Factory
s off
f 1/1/1 2/2/1 3/3/1 4/4/1 
f 5/5/2 6/6/2 7/7/2 8/8/2 
f 9/9/2 5/5/2 8/8/2 10/10/2 
f 11/11/2 9/9/2 10/10/2 12/12/2 
f 4/13/2 11/11/2 12/12/2 13/14/2 
f 1/15/2 4/13/2 13/14/2 14/16/2 
f 15/6/2 7/7/2 6/8/2 16/10/2 
f 17/5/2 15/6/2 16/10/2 18/12/2 
f 19/9/2 17/5/2 18/12/2 20/14/2 
f 21/11/2 19/9/2 20/14/2 22/16/2 
f 14/13/2 21/11/2 22/16/2 1/15/2 
f 22/1/3 23/2/3 2/3/3 1/4/3 
f 24/5/4 25/6/4 26/7/4 27/8/4 
f 28/9/4 24/5/4 27/8/4 29/10/4 
f 30/11/4 28/9/4 29/10/4 31/12/4 
f 23/13/4 30/11/4 31/12/4 32/14/4 
f 2/15/4 23/13/4 32/14/4 33/16/4 
f 34/6/4 26/7/4 25/8/4 35/10/4 
f 36/5/4 34/6/4 35/10/4 37/12/4 
f 38/9/4 36/5/4 37/12/4 39/14/4 
f 40/11/4 38/9/4 39/14/4 3/16/4 
f 33/13/4 40/11/4 3/16/4 2/15/4 
f 4/1/5 3/2/5 39/3/5 11/4/5 
f 11/1/6 39/2/6 37/3/6 9/4/6 
f 9/1/7 37/2/7 35/3/7 5/4/7 
f 5/1/8 35/2/8 25/3/8 6/4/8 
f 6/1/9 25/2/9 24/3/9 16/4/9 
f 16/1/10 24/2/10 28/3/10 18/4/10 
f 18/1/11 28/2/11 30/3/11 20/4/11 
f 20/1/12 30/2/12 23/3/12 22/4/12 
f 14/1/9 13/2/9 40/3/9 33/4/9 
f 21/1/8 14/2/8 33/3/8 32/4/8 
f 13/1/10 12/2/10 38/3/10 40/4/10 
f 19/1/7 21/2/7 32/3/7 31/4/7 
f 12/1/11 10/2/11 36/3/11 38/4/11 
f 17/1/13 19/2/13 31/3/13 29/4/13 
f 10/1/12 8/2/12 34/3/12 36/4/12 
f 15/1/5 17/2/5 29/3/5 27/4/5 
f 8/1/3 7/2/3 26/3/3 34/4/3 
f 7/1/1 15/2/1 27/3/1 26/4/1 
f 41/1/14 42/2/14 43/3/14 44/4/14 
f 44/1/5 43/2/5 45/3/5 46/4/5 
f 46/1/13 45/2/13 47/3/13 48/4/13 
f 48/1/7 47/2/7 49/3/7 50/4/7 
f 50/1/15 49/2/15 51/3/15 52/4/15 
f 52/1/16 51/2/16 53/3/16 54/4/16 
f 54/1/10 53/2/10 55/3/10 56/4/10 
f 56/1/11 55/2/11 57/3/11 58/4/11 
f 43/15/4 42/17/4 59/18/4 57/19/4 
f 43/15/4 57/19/4 55/20/4 53/7/4 
f 43/15/4 53/7/4 51/21/4 49/22/4 
f 43/15/4 49/22/4 47/23/4 45/24/4 
f 58/1/12 57/2/12 59/3/12 60/4/12 
f 60/1/17 59/2/17 42/3/17 41/4/17 
f 41/15/2 44/17/2 46/18/2 48/19/2 
f 41/15/2 48/19/2 50/20/2 52/7/2 
f 41/15/2 52/7/2 54/21/2 56/22/2 
f 41/15/2 56/22/2 58/23/2 60/24/2 
f 61/1/1 62/2/1 63/3/1 64/4/1 
f 64/1/5 63/2/5 65/3/5 66/4/5 
f 66/1/13 65/2/13 67/3/13 68/4/13 
f 68/1/7 67/2/7 69/3/7 70/4/7 
f 70/1/8 69/2/8 71/3/8 72/4/8 
f 72/1/9 71/2/9 73/3/9 74/4/9 
f 74/1/10 73/2/10 75/3/10 76/4/10 
f 76/1/11 75/2/11 77/3/11 78/4/11 
f 63/15/4 62/17/4 79/18/4 77/19/4 
f 63/15/4 77/19/4 75/20/4 73/7/4 
f 63/15/4 73/7/4 71/21/4 69/22/4 
f 63/15/4 69/22/4 67/23/4 65/24/4 
f 78/1/12 77/2/12 79/3/12 80/4/12 
f 80/1/3 79/2/3 62/3/3 61/4/3 
f 61/15/2 64/17/2 66/18/2 68/19/2 
f 61/15/2 68/19/2 70/20/2 72/7/2 
f 61/15/2 72/7/2 74/21/2 76/22/2 
f 61/15/2 76/22/2 78/23/2 80/24/2 
f 81/1/14 82/2/14 83/3/14 84/4/14 
f 84/1/5 83/2/5 85/3/5 86/4/5 
f 86/1/13 85/2/13 87/3/13 88/4/13 
f 88/1/7 87/2/7 89/3/7 90/4/7 
f 90/1/15 89/2/15 91/3/15 92/4/15 
f 92/1/16 91/2/16 93/3/16 94/4/16 
f 94/1/10 93/2/10 95/3/10 96/4/10 
f 96/1/11 95/2/11 97/3/11 98/4/11 
f 83/15/4 82/17/4 99/18/4 97/19/4 
f 83/15/4 97/19/4 95/20/4 93/7/4 
f 83/15/4 93/7/4 91/21/4 89/22/4 
f 83/15/4 89/22/4 87/23/4 85/24/4 
f 98/1/12 97/2/12 99/3/12 100/4/12 
f 100/1/17 99/2/17 82/3/17 81/4/17 
f 81/15/2 84/17/2 86/18/2 88/19/2 
f 81/15/2 88/19/2 90/20/2 92/7/2 
f 81/15/2 92/7/2 94/21/2 96/22/2 
f 81/15/2 96/22/2 98/23/2 100/24/2 
f 101/1/1 102/2/1 40/3/1 103/4/1 
f 103/1/5 40/2/5 38/3/5 104/4/5 
f 104/1/6 38/2/6 36/3/6 105/4/6 
f 105/1/7 36/2/7 34/3/7 106/4/7 
f 106/1/8 34/2/8 26/3/8 107/4/8 
f 107/1/9 26/2/9 27/3/9 108/4/9 
f 108/1/10 27/2/10 29/3/10 109/4/10 
f 109/1/11 29/2/11 31/3/11 110/4/11 
s 1
f 26/1/4 34/2/4 111/3/4 112/4/4 
s off
f 110/1/12 31/2/12 32/3/12 113/4/12 
f 113/1/3 32/2/3 102/3/3 101/4/3 
f 101/15/2 103/17/2 104/18/2 105/19/2 
f 101/15/2 105/19/2 106/20/2 107/7/2 
f 101/15/2 107/7/2 108/21/2 109/22/2 
f 101/15/2 109/22/2 110/23/2 113/24/2 
f 114/1/10 115/2/10 116/3/10 117/4/10 
s 1
f 34/1/4 36/2/4 118/3/4 111/4/4 
f 40/1/4 102/2/4 119/3/4 115/4/4 
f 36/1/4 38/2/4 114/3/4 118/4/4 
f 38/1/4 40/2/4 115/3/4 114/4/4 
f 102/1/4 32/2/4 120/3/4 119/4/4 
s off
f 32/1/4 31/2/4 121/3/4 120/4/4 
f 31/1/4 29/2/4 122/3/4 121/4/4 
f 29/1/4 27/2/4 123/3/4 122/4/4 
s 1
f 27/1/4 26/2/4 112/3/4 123/4/4 
s off
f 116/15/4 124/17/4 125/18/4 126/19/4 
f 116/15/4 126/19/4 127/20/4 128/7/4 
f 116/15/4 128/7/4 129/21/4 130/22/4 
f 116/15/4 130/22/4 131/23/4 117/24/4 
f 120/1/7 121/2/7 126/3/7 125/4/7 
f 123/1/1 112/2/1 129/3/1 128/4/1 
f 118/1/18 114/2/18 117/3/18 131/4/18 
f 119/1/8 120/2/8 125/3/8 124/4/8 
f 122/1/5 123/2/5 128/3/5 127/4/5 
f 111/1/12 118/2/12 131/3/12 130/4/12 
f 115/1/9 119/2/9 124/3/9 116/4/9 
f 121/1/6 122/2/6 127/3/6 126/4/6 
f 112/1/3 111/2/3 130/3/3 129/4/3 
f 132/1/1 133/2/1 134/3/1 135/4/1 
f 135/1/5 134/2/5 136/3/5 137/4/5 
f 137/1/13 136/2/13 138/3/13 139/4/13 
f 139/1/7 138/2/7 140/3/7 141/4/7 
f 141/1/8 140/2/8 142/3/8 143/4/8 
f 143/1/9 142/2/9 144/3/9 145/4/9 
f 145/1/10 144/2/10 146/3/10 147/4/10 
f 147/1/11 146/2/11 148/3/11 149/4/11 
f 134/15/4 133/17/4 150/18/4 148/19/4 
f 134/15/4 148/19/4 146/20/4 144/7/4 
f 134/15/4 144/7/4 142/21/4 140/22/4 
f 134/15/4 140/22/4 138/23/4 136/24/4 
f 149/1/12 148/2/12 150/3/12 151/4/12 
f 151/1/3 150/2/3 133/3/3 132/4/3 
f 132/15/2 135/17/2 137/18/2 139/19/2 
f 132/15/2 139/19/2 141/20/2 143/7/2 
f 132/15/2 143/7/2 145/21/2 147/22/2 
f 132/15/2 147/22/2 149/23/2 151/24/2 
f 152/25/19 153/26/19 154/27/19 155/28/19 
f 156/29/20 157/30/20 158/31/20 159/32/20 
f 160/33/21 161/34/21 157/30/21 156/29/21 
f 162/35/22 163/36/22 164/37/22 165/38/22 
f 166/39/4 152/25/4 155/28/4 167/40/4 
f 168/41/23 160/33/23 156/29/23 169/42/23 
f 170/43/24 162/35/24 165/38/24 171/44/24 
f 172/45/25 166/39/25 167/40/25 173/46/25 
f 153/26/26 168/41/26 169/42/26 154/27/26 
f 161/34/2 170/43/2 171/44/2 157/30/2 
f 163/36/27 172/45/27 173/46/27 164/37/27 
f 174/47/8 164/37/8 175/48/8 176/49/8 
f 165/38/28 164/37/28 164/37/28 174/47/28 
f 167/40/29 155/28/29 177/50/29 178/51/29 
f 169/42/30 156/29/30 159/32/30 169/42/30 
f 171/44/31 165/38/31 174/47/31 179/52/31 
f 173/46/20 167/40/20 178/51/20 180/53/20 
f 154/27/28 169/42/28 169/42/28 181/54/28 
f 157/30/29 171/44/29 179/52/29 158/31/29 
f 164/37/30 173/46/30 180/53/30 164/37/30 
f 155/28/31 154/27/31 181/54/31 177/50/31 
f 176/49/32 175/48/32 182/55/32 183/56/32 
f 176/49/2 183/56/2 184/57/2 185/58/2 
f 176/49/2 185/58/2 186/59/2 187/60/2 
f 176/49/32 187/60/32 188/61/32 189/62/32 
f 178/51/18 177/50/18 184/57/18 183/56/18 
f 169/42/1 159/32/1 187/60/1 186/59/1 
f 179/52/7 174/47/7 176/49/7 189/62/7 
f 180/53/10 178/51/10 183/56/10 182/55/10 
f 181/54/3 169/42/3 186/59/3 185/58/3 
f 158/31/6 179/52/6 189/62/6 188/61/6 
f 164/37/9 180/53/9 182/55/9 175/48/9 
f 177/50/12 181/54/12 185/58/12 184/57/12 
f 159/32/33 158/31/33 188/61/33 187/60/33 
f 190/63/34 191/64/34 192/65/34 193/66/34 
f 194/67/20 195/68/20 196/69/20 197/70/20 
f 198/71/35 199/72/35 195/68/35 194/67/35 
f 200/73/36 201/74/36 202/75/36 203/76/36 
f 204/77/4 190/63/4 193/66/4 205/78/4 
f 206/79/37 198/71/37 194/67/37 207/80/37 
f 208/81/38 200/73/38 203/76/38 209/82/38 
f 210/83/25 204/77/25 205/78/25 211/84/25 
f 191/64/39 206/79/39 207/80/39 192/65/39 
f 199/72/2 208/81/2 209/82/2 195/68/2 
f 201/74/40 210/83/40 211/84/40 202/75/40 
f 212/85/8 202/75/8 213/86/8 214/87/8 
f 203/76/28 202/75/28 202/75/28 212/85/28 
f 205/78/41 193/66/41 215/88/41 216/89/41 
f 207/80/30 194/67/30 197/70/30 207/80/30 
f 209/82/31 203/76/31 212/85/31 217/90/31 
f 211/84/20 205/78/20 216/89/20 218/91/20 
f 192/65/28 207/80/28 207/80/28 219/92/28 
f 195/68/29 209/82/29 217/90/29 196/69/29 
f 202/75/30 211/84/30 218/91/30 202/75/30 
f 193/66/31 192/65/31 219/92/31 215/88/31 
f 214/87/2 213/86/2 220/93/2 221/94/2 
f 214/87/32 221/94/32 222/95/32 223/96/32 
f 214/87/32 223/96/32 224/97/32 225/98/32 
f 214/87/2 225/98/2 226/99/2 227/100/2 
f 216/89/11 215/88/11 222/95/11 221/94/11 
f 207/80/1 197/70/1 225/98/1 224/97/1 
f 217/90/7 212/85/7 214/87/7 227/100/7 
f 218/91/10 216/89/10 221/94/10 220/93/10 
f 219/92/3 207/80/3 224/97/3 223/96/3 
f 196/69/6 217/90/6 227/100/6 226/99/6 
f 202/75/9 218/91/9 220/93/9 213/86/9 
f 215/88/12 219/92/12 223/96/12 222/95/12 
f 197/70/5 196/69/5 226/99/5 225/98/5 
f 228/1/1 229/2/1 230/3/1 231/4/1 
f 232/5/2 233/6/2 234/7/2 235/8/2 
f 236/9/2 232/5/2 235/8/2 237/10/2 
f 238/11/2 236/9/2 237/10/2 239/12/2 
f 231/13/2 238/11/2 239/12/2 240/14/2 
f 228/15/2 231/13/2 240/14/2 241/16/2 
f 242/6/2 234/7/2 233/8/2 243/10/2 
f 244/5/2 242/6/2 243/10/2 245/12/2 
f 246/9/2 244/5/2 245/12/2 247/14/2 
f 248/11/2 246/9/2 247/14/2 249/16/2 
f 241/13/2 248/11/2 249/16/2 228/15/2 
f 249/1/3 250/2/3 229/3/3 228/4/3 
f 251/5/4 252/6/4 253/7/4 254/8/4 
f 255/9/4 251/5/4 254/8/4 256/10/4 
f 257/11/4 255/9/4 256/10/4 258/12/4 
f 250/13/4 257/11/4 258/12/4 259/14/4 
f 229/15/4 250/13/4 259/14/4 260/16/4 
f 261/6/4 253/7/4 252/8/4 262/10/4 
f 263/5/4 261/6/4 262/10/4 264/12/4 
f 265/9/4 263/5/4 264/12/4 266/14/4 
f 267/11/4 265/9/4 266/14/4 230/16/4 
f 260/13/4 267/11/4 230/16/4 229/15/4 
f 231/1/5 230/2/5 266/3/5 238/4/5 
f 238/1/13 266/2/13 264/3/13 236/4/13 
f 236/1/7 264/2/7 262/3/7 232/4/7 
f 232/1/8 262/2/8 252/3/8 233/4/8 
f 233/1/9 252/2/9 251/3/9 243/4/9 
f 243/1/10 251/2/10 255/3/10 245/4/10 
f 245/1/18 255/2/18 257/3/18 247/4/18 
f 247/1/12 257/2/12 250/3/12 249/4/12 
f 241/1/9 240/2/9 267/3/9 260/4/9 
f 248/1/8 241/2/8 260/3/8 259/4/8 
f 240/1/10 239/2/10 265/3/10 267/4/10 
f 246/1/7 248/2/7 259/3/7 258/4/7 
f 239/1/11 237/2/11 263/3/11 265/4/11 
f 244/1/6 246/2/6 258/3/6 256/4/6 
f 237/1/12 235/2/12 261/3/12 263/4/12 
f 242/1/5 244/2/5 256/3/5 254/4/5 
f 235/1/3 234/2/3 253/3/3 261/4/3 
f 234/1/1 242/2/1 254/3/1 253/4/1 
f 268/1/14 269/2/14 270/3/14 271/4/14 
f 271/1/5 270/2/5 272/3/5 273/4/5 
f 273/1/13 272/2/13 274/3/13 275/4/13 
f 275/1/7 274/2/7 276/3/7 277/4/7 
f 277/1/15 276/2/15 278/3/15 279/4/15 
f 279/1/16 278/2/16 280/3/16 281/4/16 
f 281/1/10 280/2/10 282/3/10 283/4/10 
f 283/1/18 282/2/18 284/3/18 285/4/18 
f 270/15/4 269/17/4 286/18/4 284/19/4 
f 270/15/4 284/19/4 282/20/4 280/7/4 
f 270/15/4 280/7/4 278/21/4 276/22/4 
f 270/15/4 276/22/4 274/23/4 272/24/4 
f 285/1/12 284/2/12 286/3/12 287/4/12 
f 287/1/17 286/2/17 269/3/17 268/4/17 
f 268/15/2 271/17/2 273/18/2 275/19/2 
f 268/15/2 275/19/2 277/20/2 279/7/2 
f 268/15/2 279/7/2 281/21/2 283/22/2 
f 268/15/2 283/22/2 285/23/2 287/24/2 
f 288/1/1 289/2/1 290/3/1 291/4/1 
f 291/1/5 290/2/5 292/3/5 293/4/5 
f 293/1/13 292/2/13 294/3/13 295/4/13 
f 295/1/7 294/2/7 296/3/7 297/4/7 
f 297/1/8 296/2/8 298/3/8 299/4/8 
f 299/1/9 298/2/9 300/3/9 301/4/9 
f 301/1/10 300/2/10 302/3/10 303/4/10 
f 303/1/18 302/2/18 304/3/18 305/4/18 
f 290/15/4 289/17/4 306/18/4 304/19/4 
f 290/15/4 304/19/4 302/20/4 300/7/4 
f 290/15/4 300/7/4 298/21/4 296/22/4 
f 290/15/4 296/22/4 294/23/4 292/24/4 
f 305/1/12 304/2/12 306/3/12 307/4/12 
f 307/1/3 306/2/3 289/3/3 288/4/3 
f 288/15/2 291/17/2 293/18/2 295/19/2 
f 288/15/2 295/19/2 297/20/2 299/7/2 
f 288/15/2 299/7/2 301/21/2 303/22/2 
f 288/15/2 303/22/2 305/23/2 307/24/2 
f 308/1/14 309/2/14 310/3/14 311/4/14 
f 311/1/5 310/2/5 312/3/5 313/4/5 
f 313/1/13 312/2/13 314/3/13 315/4/13 
f 315/1/7 314/2/7 316/3/7 317/4/7 
f 317/1/15 316/2/15 318/3/15 319/4/15 
f 319/1/16 318/2/16 320/3/16 321/4/16 
f 321/1/10 320/2/10 322/3/10 323/4/10 
f 323/1/18 322/2/18 324/3/18 325/4/18 
f 310/15/4 309/17/4 326/18/4 324/19/4 
f 310/15/4 324/19/4 322/20/4 320/7/4 
f 310/15/4 320/7/4 318/21/4 316/22/4 
f 310/15/4 316/22/4 314/23/4 312/24/4 
f 325/1/12 324/2/12 326/3/12 327/4/12 
f 327/1/17 326/2/17 309/3/17 308/4/17 
f 308/15/2 311/17/2 313/18/2 315/19/2 
f 308/15/2 315/19/2 317/20/2 319/7/2 
f 308/15/2 319/7/2 321/21/2 323/22/2 
f 308/15/2 323/22/2 325/23/2 327/24/2 
f 328/1/1 260/2/1 267/3/1 329/4/1 
f 329/1/5 267/2/5 265/3/5 330/4/5 
f 330/1/13 265/2/13 263/3/13 331/4/13 
f 331/1/7 263/2/7 261/3/7 332/4/7 
f 332/1/8 261/2/8 253/3/8 333/4/8 
f 333/1/9 253/2/9 254/3/9 334/4/9 
f 334/1/10 254/2/10 256/3/10 335/4/10 
f 335/1/18 256/2/18 258/3/18 336/4/18 
s 1
f 253/1/4 261/2/4 337/3/4 338/4/4 
s off
f 336/1/12 258/2/12 259/3/12 339/4/12 
f 339/1/3 259/2/3 260/3/3 328/4/3 
f 328/15/2 329/17/2 330/18/2 331/19/2 
f 328/15/2 331/19/2 332/20/2 333/7/2 
f 328/15/2 333/7/2 334/21/2 335/22/2 
f 328/15/2 335/22/2 336/23/2 339/24/2 
f 340/1/10 341/2/10 342/3/10 343/4/10 
f 261/1/4 263/2/4 344/3/4 337/4/4 
s 1
f 267/1/4 260/2/4 345/3/4 341/4/4 
f 263/1/4 265/2/4 340/3/4 344/4/4 
f 265/1/4 267/2/4 341/3/4 340/4/4 
f 260/1/4 259/2/4 346/3/4 345/4/4 
s off
f 259/1/4 258/2/4 347/3/4 346/4/4 
f 258/1/4 256/2/4 348/3/4 347/4/4 
f 256/1/4 254/2/4 349/3/4 348/4/4 
s 1
f 254/1/4 253/2/4 338/3/4 349/4/4 
s off
f 342/15/4 350/17/4 351/18/4 352/19/4 
f 342/15/4 352/19/4 353/20/4 354/7/4 
f 342/15/4 354/7/4 355/21/4 356/22/4 
f 342/15/4 356/22/4 357/23/4 343/24/4 
f 346/1/7 347/2/7 352/3/7 351/4/7 
f 349/1/1 338/2/1 355/3/1 354/4/1 
f 344/1/18 340/2/18 343/3/18 357/4/18 
f 345/1/8 346/2/8 351/3/8 350/4/8 
f 348/1/5 349/2/5 354/3/5 353/4/5 
f 337/1/12 344/2/12 357/3/12 356/4/12 
f 341/1/9 345/2/9 350/3/9 342/4/9 
f 347/1/6 348/2/6 353/3/6 352/4/6 
f 338/1/3 337/2/3 356/3/3 355/4/3 
f 358/1/1 359/2/1 360/3/1 361/4/1 
f 361/1/5 360/2/5 362/3/5 363/4/5 
f 363/1/13 362/2/13 364/3/13 365/4/13 
f 365/1/7 364/2/7 366/3/7 367/4/7 
f 367/1/8 366/2/8 368/3/8 369/4/8 
f 369/1/9 368/2/9 370/3/9 371/4/9 
f 371/1/10 370/2/10 372/3/10 373/4/10 
f 373/1/18 372/2/18 374/3/18 375/4/18 
f 360/15/4 359/17/4 376/18/4 374/19/4 
f 360/15/4 374/19/4 372/20/4 370/7/4 
f 360/15/4 370/7/4 368/21/4 366/22/4 
f 360/15/4 366/22/4 364/23/4 362/24/4 
f 375/1/12 374/2/12 376/3/12 377/4/12 
f 377/1/3 376/2/3 359/3/3 358/4/3 
f 358/15/2 361/17/2 363/18/2 365/19/2 
f 358/15/2 365/19/2 367/20/2 369/7/2 
f 358/15/2 369/7/2 371/21/2 373/22/2 
f 358/15/2 373/22/2 375/23/2 377/24/2 
f 378/101/11 379/101/11 380/102/11 381/102/11 
f 381/102/42 382/103/42 383/104/42 378/101/42 
s 1
f 379/101/4 378/101/4 384/105/4 385/105/4 
s off
f 379/101/43 386/104/43 387/103/43 380/102/43 
f 386/104/13 383/104/13 382/103/13 387/103/13 
s 1
f 378/101/4 383/104/4 388/106/4 384/105/4 
f 386/104/4 379/101/4 385/105/4 389/106/4 
s off
f 385/105/13 384/105/13 390/107/13 391/107/13 
s 1
f 383/104/4 386/104/4 389/106/4 388/106/4 
s off
f 384/105/43 388/106/43 392/108/43 390/107/43 
f 389/106/42 385/105/42 391/107/42 393/108/42 
f 392/109/4 393/109/4 391/110/4 390/110/4 
f 388/106/11 389/106/11 393/108/11 392/108/11 
f 380/102/2 387/103/2 382/103/2 381/102/2 
# 382 polygons

