# 3ds Max Wavefront OBJ Exporter v0.97b - (c)2007 guruware
# File Created: 15.03.2017 10:56:16

mtllib SPW_Urban_Factory_Bldg_02.mtl

#
# object SPW_Urban_Factory_Bldg_02
#

v  220.5562 215.2169 -709.7837
v  220.5561 207.2097 -670.4135
v  220.5561 -0.0001 -670.4135
v  220.5562 -0.0001 -709.7836
v  181.1860 207.2097 -670.4135
v  181.1860 -0.0001 -670.4135
v  181.1861 215.2169 -709.7837
v  181.1861 -0.0001 -709.7836
v  -181.0186 215.1935 -709.7837
v  -181.0187 207.1864 -670.4135
v  -181.0187 -0.0001 -670.4135
v  -181.0186 -0.0001 -709.7836
v  -220.3888 207.1864 -670.4135
v  -220.3888 -0.0001 -670.4135
v  -220.3887 215.1935 -709.7837
v  -220.3887 -0.0001 -709.7836
v  803.1086 413.4789 223.1465
v  803.1086 397.7308 223.1465
v  795.4210 397.7308 223.1465
v  795.4210 413.4789 223.1465
v  603.2308 397.7308 223.1465
v  603.2308 413.4789 223.1465
v  803.1086 271.5793 727.3651
v  803.1086 287.3274 727.3651
v  795.4210 287.3274 727.3651
v  795.4210 271.5793 727.3651
v  595.5432 397.7308 223.1465
v  595.5432 413.4789 223.1465
v  603.2307 287.3274 727.3650
v  603.2307 271.5793 727.3650
v  403.3529 397.7308 223.1464
v  403.3529 413.4789 223.1464
v  595.5431 287.3274 727.3650
v  595.5431 271.5793 727.3650
v  395.6654 397.7308 223.1464
v  395.6654 413.4789 223.1464
v  403.3529 287.3274 727.3650
v  403.3529 271.5793 727.3650
v  203.4751 397.7308 223.1464
v  203.4751 413.4789 223.1464
v  395.6653 287.3274 727.3650
v  395.6653 271.5793 727.3650
v  195.7875 397.7308 223.1464
v  195.7875 413.4789 223.1464
v  203.4751 287.3274 727.3649
v  203.4751 271.5793 727.3649
v  3.5973 397.7308 223.1464
v  3.5973 413.4789 223.1464
v  195.7874 287.3274 727.3649
v  195.7874 271.5793 727.3649
v  -4.0903 397.7308 223.1464
v  -4.0903 413.4789 223.1464
v  3.5972 287.3274 727.3649
v  3.5972 271.5793 727.3649
v  -196.2805 397.7308 223.1463
v  -196.2805 413.4789 223.1463
v  -4.0904 287.3274 727.3649
v  -4.0904 271.5793 727.3649
v  -203.9681 397.7308 223.1463
v  -203.9681 413.4789 223.1463
v  -196.2806 287.3274 727.3649
v  -196.2806 271.5793 727.3649
v  -396.1583 397.7308 223.1463
v  -396.1583 413.4789 223.1463
v  -203.9682 287.3274 727.3649
v  -203.9682 271.5793 727.3649
v  -403.8459 397.7308 223.1463
v  -403.8459 413.4789 223.1463
v  -396.1584 287.3274 727.3649
v  -396.1584 271.5793 727.3649
v  -596.0361 397.7308 223.1463
v  -596.0361 413.4789 223.1463
v  -403.8460 287.3274 727.3649
v  -403.8460 271.5793 727.3649
v  -603.7238 397.7308 223.1463
v  -603.7238 413.4789 223.1463
v  -596.0362 287.3274 727.3649
v  -596.0362 271.5793 727.3649
v  -795.9140 397.7308 223.1463
v  -795.9140 413.4789 223.1463
v  -603.7238 287.3274 727.3649
v  -603.7238 271.5793 727.3649
v  -803.6016 397.7308 223.1463
v  -803.6016 413.4789 223.1463
v  -795.9141 287.3274 727.3648
v  -795.9141 271.5793 727.3648
v  -803.6017 271.5793 727.3648
v  -803.6017 287.3274 727.3648
v  803.1088 413.4788 -249.2944
v  803.1088 397.7307 -249.2944
v  795.4211 397.7307 -249.2944
v  795.4211 413.4788 -249.2944
v  603.2309 397.7307 -249.2945
v  603.2309 413.4788 -249.2945
v  803.1086 271.5793 254.9242
v  803.1086 287.3273 254.9241
v  795.4210 287.3273 254.9241
v  795.4210 271.5793 254.9242
v  595.5432 397.7307 -249.2945
v  595.5432 413.4788 -249.2945
v  603.2308 287.3273 254.9241
v  603.2308 271.5793 254.9241
v  403.3530 397.7307 -249.2945
v  403.3530 413.4788 -249.2945
v  595.5432 287.3273 254.9241
v  595.5432 271.5793 254.9241
v  395.6654 397.7307 -249.2945
v  395.6654 413.4788 -249.2945
v  403.3529 287.3273 254.9241
v  403.3529 271.5793 254.9241
v  203.4752 397.7307 -249.2945
v  203.4752 413.4788 -249.2945
v  395.6654 287.3273 254.9241
v  395.6654 271.5793 254.9241
v  195.7876 397.7307 -249.2945
v  195.7876 413.4788 -249.2945
v  203.4751 287.3273 254.9241
v  203.4751 271.5793 254.9241
v  3.5974 397.7307 -249.2946
v  3.5974 413.4788 -249.2946
v  195.7875 287.3273 254.9241
v  195.7875 271.5793 254.9241
v  -4.0902 397.7307 -249.2946
v  -4.0902 413.4788 -249.2946
v  3.5973 287.3273 254.9240
v  3.5973 271.5793 254.9240
v  -196.2804 397.7307 -249.2946
v  -196.2804 413.4788 -249.2946
v  -4.0903 287.3273 254.9240
v  -4.0903 271.5793 254.9240
v  -203.9680 397.7307 -249.2946
v  -203.9680 413.4788 -249.2946
v  -196.2805 287.3273 254.9240
v  -196.2805 271.5793 254.9240
v  -396.1582 397.7307 -249.2946
v  -396.1582 413.4788 -249.2946
v  -203.9681 287.3273 254.9240
v  -203.9681 271.5793 254.9240
v  -403.8458 397.7307 -249.2946
v  -403.8458 413.4788 -249.2946
v  -396.1583 287.3273 254.9240
v  -396.1583 271.5793 254.9240
v  -596.0361 397.7307 -249.2947
v  -596.0361 413.4788 -249.2947
v  -403.8459 287.3273 254.9240
v  -403.8459 271.5793 254.9240
v  -603.7237 397.7307 -249.2947
v  -603.7237 413.4788 -249.2947
v  -596.0361 287.3273 254.9239
v  -596.0361 271.5793 254.9240
v  -795.9139 397.7307 -249.2947
v  -795.9139 413.4788 -249.2947
v  -603.7238 287.3273 254.9239
v  -603.7238 271.5793 254.9240
v  -803.6015 397.7307 -249.2947
v  -803.6015 413.4788 -249.2947
v  -795.9141 287.3273 254.9239
v  -795.9141 271.5793 254.9239
v  -803.6017 271.5793 254.9239
v  -803.6017 287.3273 254.9239
v  639.8474 390.5068 -148.5155
v  639.8474 331.9108 87.7050
v  639.8474 253.1706 87.7050
v  639.8474 311.7666 -148.5155
v  561.1072 331.9108 87.7050
v  561.1072 253.1706 87.7050
v  561.1072 390.5068 -148.5155
v  561.1072 311.7666 -148.5155
v  240.2411 390.5068 -148.5155
v  240.2411 331.9108 87.7049
v  240.2411 253.1706 87.7049
v  240.2411 311.7666 -148.5155
v  161.5009 331.9108 87.7049
v  161.5009 253.1706 87.7049
v  161.5009 390.5068 -148.5156
v  161.5009 311.7666 -148.5156
v  -161.3337 390.5068 -148.5156
v  -161.3337 331.9108 87.7049
v  -161.3337 253.1706 87.7049
v  -161.3337 311.7666 -148.5156
v  -240.0739 331.9108 87.7048
v  -240.0739 253.1706 87.7049
v  -240.0738 390.5068 -148.5156
v  -240.0738 311.7666 -148.5156
v  -560.9399 390.5068 -148.5157
v  -560.9400 331.9108 87.7048
v  -560.9400 253.1706 87.7048
v  -560.9399 311.7666 -148.5157
v  -639.6802 331.9108 87.7048
v  -639.6802 253.1706 87.7048
v  -639.6802 390.5068 -148.5157
v  -639.6802 311.7666 -148.5157
v  639.8474 390.5067 -620.9563
v  639.8474 331.9107 -384.7358
v  639.8474 253.1705 -384.7358
v  639.8474 311.7665 -620.9563
v  561.1073 331.9107 -384.7359
v  561.1073 253.1705 -384.7359
v  561.1073 390.5067 -620.9564
v  561.1073 311.7665 -620.9564
v  240.2412 390.5068 -620.9564
v  240.2411 331.9107 -384.7359
v  240.2411 253.1705 -384.7359
v  240.2412 311.7666 -620.9564
v  161.5010 331.9107 -384.7359
v  161.5010 253.1705 -384.7359
v  161.5010 390.5068 -620.9564
v  161.5010 311.7666 -620.9564
v  -161.3336 390.5067 -620.9564
v  -161.3336 331.9107 -384.7360
v  -161.3336 253.1705 -384.7360
v  -161.3336 311.7665 -620.9564
v  -240.0738 331.9107 -384.7360
v  -240.0738 253.1705 -384.7360
v  -240.0737 390.5067 -620.9564
v  -240.0737 311.7665 -620.9564
v  -560.9399 390.5067 -620.9565
v  -560.9399 331.9107 -384.7360
v  -560.9399 253.1705 -384.7360
v  -560.9399 311.7665 -620.9565
v  -639.6801 331.9107 -384.7361
v  -639.6801 253.1705 -384.7361
v  -639.6801 390.5067 -620.9565
v  -639.6801 311.7665 -620.9565
v  803.1088 413.4787 -721.7354
v  803.1088 397.7307 -721.7354
v  795.4211 397.7307 -721.7354
v  795.4211 413.4787 -721.7354
v  603.2310 397.7307 -721.7355
v  603.2310 413.4787 -721.7355
v  803.1086 271.5792 -217.5168
v  803.1086 287.3272 -217.5168
v  795.4210 287.3272 -217.5168
v  795.4210 271.5792 -217.5168
v  595.5433 397.7307 -721.7355
v  595.5433 413.4787 -721.7355
v  603.2309 287.3272 -217.5168
v  603.2309 271.5792 -217.5168
v  403.3531 397.7307 -721.7355
v  403.3531 413.4787 -721.7355
v  595.5432 287.3272 -217.5168
v  595.5432 271.5792 -217.5168
v  395.6655 397.7307 -721.7355
v  395.6655 413.4787 -721.7355
v  403.3530 287.3272 -217.5169
v  403.3530 271.5792 -217.5168
v  203.4753 397.7307 -721.7355
v  203.4753 413.4787 -721.7355
v  395.6654 287.3272 -217.5169
v  395.6654 271.5792 -217.5168
v  195.7876 397.7307 -721.7355
v  195.7876 413.4787 -721.7355
v  203.4752 287.3272 -217.5169
v  203.4752 271.5792 -217.5169
v  3.5974 397.7307 -721.7355
v  3.5974 413.4787 -721.7355
v  195.7876 287.3272 -217.5169
v  195.7876 271.5792 -217.5169
v  -4.0902 397.7307 -721.7355
v  -4.0902 413.4787 -721.7355
v  3.5974 287.3272 -217.5169
v  3.5974 271.5792 -217.5169
v  -196.2803 397.7307 -721.7355
v  -196.2803 413.4787 -721.7355
v  -4.0902 287.3272 -217.5169
v  -4.0902 271.5792 -217.5169
v  -203.9679 397.7307 -721.7355
v  -203.9679 413.4787 -721.7355
v  -196.2804 287.3272 -217.5170
v  -196.2804 271.5792 -217.5169
v  -396.1581 397.7307 -721.7356
v  -396.1581 413.4787 -721.7356
v  -203.9680 287.3272 -217.5170
v  -203.9680 271.5792 -217.5169
v  -403.8457 397.7307 -721.7356
v  -403.8457 413.4787 -721.7356
v  -396.1582 287.3272 -217.5170
v  -396.1582 271.5792 -217.5170
v  -596.0359 397.7307 -721.7356
v  -596.0359 413.4787 -721.7356
v  -403.8458 287.3272 -217.5170
v  -403.8458 271.5792 -217.5170
v  -603.7236 397.7307 -721.7356
v  -603.7236 413.4787 -721.7356
v  -596.0361 287.3272 -217.5170
v  -596.0361 271.5792 -217.5170
v  -795.9139 397.7307 -721.7357
v  -795.9139 413.4787 -721.7357
v  -603.7237 287.3272 -217.5170
v  -603.7237 271.5792 -217.5170
v  -803.6015 397.7307 -721.7357
v  -803.6015 413.4787 -721.7357
v  -795.9140 287.3272 -217.5170
v  -795.9140 271.5792 -217.5170
v  -803.6016 271.5792 -217.5170
v  -803.6016 287.3272 -217.5170
v  -171.3041 363.1871 564.7136
v  -171.3041 363.1871 623.5135
v  -171.3041 304.3872 623.5135
v  -171.3041 304.3872 564.7136
v  -230.1041 363.1871 623.5135
v  -230.1041 304.3872 623.5135
v  -230.1041 363.1871 564.7136
v  -230.1041 304.3872 564.7136
v  -177.1841 363.1871 617.6335
v  -224.2240 363.1871 617.6335
v  -177.1841 363.1871 570.5936
v  -224.2240 363.1871 570.5936
v  -224.2240 421.9871 570.5936
v  -177.1841 421.9871 570.5936
v  -224.2240 421.9871 617.6335
v  -217.1681 421.9871 610.5775
v  -217.1681 421.9871 577.6496
v  -177.1841 421.9871 617.6335
v  -184.2401 421.9871 577.6496
v  -217.1681 363.1871 577.6496
v  -184.2401 363.1871 577.6496
v  -184.2401 421.9871 610.5775
v  -217.1681 363.1871 610.5775
v  -184.2401 363.1871 610.5775
v  230.2708 363.1871 564.7137
v  230.2708 363.1871 623.5136
v  230.2708 304.3872 623.5136
v  230.2708 304.3872 564.7137
v  171.4708 363.1871 623.5136
v  171.4708 304.3872 623.5136
v  171.4708 363.1871 564.7137
v  171.4708 304.3872 564.7137
v  224.3908 363.1871 617.6336
v  177.3508 363.1871 617.6336
v  224.3908 363.1871 570.5937
v  177.3508 363.1871 570.5937
v  177.3508 421.9871 570.5937
v  224.3908 421.9871 570.5937
v  177.3508 421.9871 617.6336
v  184.4068 421.9871 610.5776
v  184.4068 421.9871 577.6497
v  224.3908 421.9871 617.6336
v  217.3348 421.9871 577.6497
v  184.4068 363.1871 577.6497
v  217.3348 363.1871 577.6497
v  217.3348 421.9871 610.5776
v  184.4068 363.1871 610.5776
v  217.3348 363.1871 610.5776
v  629.8772 363.1872 564.7138
v  629.8771 363.1872 623.5137
v  629.8771 304.3872 623.5137
v  629.8772 304.3872 564.7138
v  571.0772 363.1872 623.5136
v  571.0772 304.3872 623.5136
v  571.0772 363.1872 564.7137
v  571.0772 304.3872 564.7137
v  623.9972 363.1872 617.6337
v  576.9572 363.1872 617.6337
v  623.9972 363.1872 570.5938
v  576.9572 363.1872 570.5938
v  576.9572 421.9871 570.5938
v  623.9972 421.9871 570.5938
v  576.9572 421.9871 617.6337
v  584.0132 421.9871 610.5776
v  584.0132 421.9871 577.6497
v  623.9972 421.9871 617.6337
v  616.9412 421.9871 577.6497
v  584.0132 363.1872 577.6497
v  616.9412 363.1872 577.6497
v  616.9412 421.9871 610.5776
v  584.0132 363.1872 610.5776
v  616.9412 363.1872 610.5776
v  -570.9104 363.1871 564.7136
v  -570.9104 363.1871 623.5135
v  -570.9104 304.3872 623.5135
v  -570.9104 304.3872 564.7136
v  -629.7104 363.1871 623.5134
v  -629.7104 304.3872 623.5134
v  -629.7104 363.1871 564.7136
v  -629.7104 304.3872 564.7136
v  -576.7904 363.1871 617.6335
v  -623.8304 363.1871 617.6335
v  -576.7904 363.1871 570.5936
v  -623.8304 363.1871 570.5936
v  -623.8304 421.9871 570.5936
v  -576.7904 421.9871 570.5936
v  -623.8304 421.9871 617.6335
v  -616.7744 421.9871 610.5775
v  -616.7744 421.9871 577.6495
v  -576.7904 421.9871 617.6335
v  -583.8463 421.9871 577.6495
v  -616.7744 363.1871 577.6495
v  -583.8463 363.1871 577.6495
v  -583.8463 421.9871 610.5775
v  -616.7744 363.1871 610.5775
v  -583.8463 363.1871 610.5775
v  751.7584 216.3686 -731.7639
v  751.7584 258.6286 -653.0238
v  751.7584 204.4300 -653.0238
v  751.7584 204.4300 -731.7639
v  -751.5911 258.6286 -653.0241
v  -751.5911 204.4300 -653.0241
v  -751.5911 216.3686 -731.7642
v  -751.5911 204.4300 -731.7642
v  787.4852 236.2205 314.8228
v  787.4852 157.4803 314.8228
v  787.4852 0.0000 239.0354
v  787.4852 393.7008 239.0353
v  787.4852 275.5907 711.4763
v  787.4852 236.2205 669.1535
v  787.4852 157.4804 669.1535
v  787.4852 0.0001 711.4763
v  695.3592 312.9922 239.0353
v  459.1386 312.9922 239.0353
v  -787.3180 0.0000 239.0351
v  -787.3180 393.7008 239.0351
v  -695.1920 372.0473 239.0351
v  -695.1920 312.9922 239.0351
v  -458.9716 312.9922 239.0351
v  -406.6094 312.9922 239.0352
v  -170.3889 312.9922 239.0352
v  -118.0267 312.9922 239.0352
v  118.1938 312.9922 239.0352
v  170.5560 312.9922 239.0352
v  406.7765 312.9922 239.0353
v  459.1386 372.0473 239.0353
v  406.7765 372.0473 239.0353
v  170.5560 372.0473 239.0352
v  118.1938 372.0473 239.0352
v  -118.0267 372.0473 239.0352
v  -170.3889 372.0473 239.0352
v  -406.6094 372.0473 239.0351
v  -458.9716 372.0473 239.0351
v  695.3592 372.0473 239.0353
v  -787.3181 275.5907 711.4760
v  -787.3181 0.0001 711.4760
v  -787.3181 236.2205 669.1532
v  -787.3181 157.4804 669.1532
v  -787.3181 157.4803 314.8225
v  -787.3181 236.2205 314.8225
v  695.3592 312.9922 242.8424
v  695.3592 372.0473 242.8424
v  459.1386 372.0473 242.8423
v  459.1386 312.9922 242.8424
v  406.7765 312.9922 242.8423
v  406.7765 372.0473 242.8423
v  170.5560 372.0473 242.8423
v  170.5560 312.9922 242.8423
v  -458.9716 312.9922 242.8422
v  -458.9716 372.0473 242.8422
v  -695.1920 372.0473 242.8422
v  -695.1920 312.9922 242.8422
v  -170.3889 312.9922 242.8423
v  -170.3889 372.0473 242.8423
v  -406.6094 372.0473 242.8422
v  -406.6094 312.9922 242.8422
v  118.1938 312.9922 242.8423
v  118.1938 372.0473 242.8423
v  -118.0267 372.0473 242.8423
v  -118.0267 312.9922 242.8423
v  779.6110 157.4804 669.1535
v  779.6110 236.2205 669.1535
v  779.6110 236.2205 314.8228
v  779.6110 157.4803 314.8228
v  -779.4440 236.2205 314.8225
v  -779.4440 157.4803 314.8225
v  -779.4440 157.4804 669.1532
v  -779.4440 236.2205 669.1532
v  787.4852 236.2204 -157.6182
v  787.4852 157.4803 -157.6182
v  787.4852 -0.0000 -233.4056
v  787.4852 393.7007 -233.4056
v  787.4852 275.5906 239.0353
v  787.4852 236.2205 196.7125
v  787.4852 157.4803 196.7125
v  695.3592 312.9921 -233.4056
v  459.1387 312.9921 -233.4057
v  -787.3180 -0.0000 -233.4058
v  -787.3180 393.7007 -233.4059
v  -695.1920 372.0472 -233.4059
v  -695.1920 312.9921 -233.4058
v  -458.9715 312.9921 -233.4058
v  -406.6093 312.9921 -233.4058
v  -170.3888 312.9921 -233.4057
v  -118.0266 312.9921 -233.4057
v  118.1939 312.9921 -233.4057
v  170.5561 312.9921 -233.4057
v  406.7765 312.9921 -233.4057
v  459.1387 372.0472 -233.4057
v  406.7765 372.0472 -233.4057
v  170.5561 372.0472 -233.4057
v  118.1939 372.0472 -233.4057
v  -118.0266 372.0472 -233.4058
v  -170.3888 372.0472 -233.4058
v  -406.6093 372.0472 -233.4058
v  -458.9715 372.0472 -233.4058
v  695.3592 372.0472 -233.4056
v  -787.3180 275.5906 239.0351
v  -787.3180 236.2205 196.7123
v  -787.3180 157.4803 196.7123
v  -787.3180 157.4803 -157.6185
v  -787.3180 236.2204 -157.6185
v  695.3592 312.9921 -229.5985
v  695.3592 372.0472 -229.5986
v  459.1387 372.0472 -229.5986
v  459.1387 312.9921 -229.5986
v  406.7765 312.9921 -229.5986
v  406.7765 372.0472 -229.5986
v  170.5561 372.0472 -229.5986
v  170.5561 312.9921 -229.5986
v  -458.9715 312.9921 -229.5987
v  -458.9715 372.0472 -229.5987
v  -695.1920 372.0472 -229.5988
v  -695.1920 312.9921 -229.5988
v  -170.3888 312.9921 -229.5987
v  -170.3888 372.0472 -229.5987
v  -406.6093 372.0472 -229.5987
v  -406.6093 312.9921 -229.5987
v  118.1939 312.9921 -229.5986
v  118.1939 372.0472 -229.5986
v  -118.0266 372.0472 -229.5987
v  -118.0266 312.9921 -229.5987
v  779.6111 157.4803 196.7125
v  779.6111 236.2205 196.7125
v  779.6111 236.2204 -157.6182
v  779.6111 157.4803 -157.6182
v  -779.4440 236.2204 -157.6185
v  -779.4440 157.4803 -157.6185
v  -779.4440 157.4803 196.7123
v  -779.4440 236.2205 196.7123
v  787.4853 157.4802 -275.7285
v  787.4853 236.2204 -275.7285
v  787.4852 275.5905 -233.4056
v  787.4853 157.4802 -630.0592
v  787.4853 -0.0001 -705.8465
v  787.4853 393.7007 -705.8466
v  787.4853 236.2204 -630.0592
v  118.1939 334.6456 -705.8467
v  -118.0266 334.6456 -705.8467
v  -787.3179 393.7007 -705.8469
v  580.7924 -0.0001 -705.8466
v  580.7924 157.4802 -705.8466
v  459.1388 255.9054 -705.8466
v  383.9420 157.4802 -705.8466
v  383.9420 -0.0001 -705.8466
v  59.1388 -0.0001 -705.8467
v  59.1388 157.4802 -705.8467
v  -58.9714 157.4802 -705.8467
v  -58.9714 -0.0001 -705.8467
v  -383.7746 -0.0001 -705.8467
v  -383.7746 157.4802 -705.8468
v  -580.6250 157.4802 -705.8468
v  -580.6250 -0.0001 -705.8467
v  -787.3179 -0.0001 -705.8468
v  -458.9714 255.9054 -705.8468
v  -406.6092 255.9054 -705.8468
v  -170.3887 255.9054 -705.8467
v  -118.0266 255.9054 -705.8467
v  118.1939 255.9054 -705.8467
v  170.5562 255.9054 -705.8467
v  406.7766 255.9054 -705.8466
v  695.3593 255.9054 -705.8466
v  -787.3180 275.5905 -233.4058
v  580.7924 -0.0001 -702.0396
v  -580.6250 -0.0001 -702.0398
v  -383.7746 -0.0001 -702.0398
v  -58.9714 -0.0001 -702.0397
v  59.1388 -0.0001 -702.0397
v  383.9420 -0.0001 -702.0396
v  -787.3179 236.2204 -630.0595
v  -787.3179 236.2204 -275.7287
v  -787.3179 157.4802 -630.0595
v  -787.3179 157.4802 -275.7287
v  695.3593 334.6456 -705.8466
v  695.3593 255.9054 -702.0396
v  695.3593 334.6456 -702.0396
v  459.1388 334.6456 -705.8466
v  459.1388 334.6456 -702.0396
v  459.1388 255.9054 -702.0396
v  406.7766 334.6456 -705.8466
v  406.7766 255.9054 -702.0396
v  406.7766 334.6456 -702.0396
v  170.5562 334.6456 -705.8467
v  170.5562 334.6456 -702.0396
v  170.5562 255.9054 -702.0396
v  -458.9714 334.6456 -705.8468
v  -458.9714 255.9054 -702.0397
v  -458.9714 334.6456 -702.0397
v  -695.1920 334.6456 -705.8468
v  -695.1920 334.6456 -702.0397
v  -695.1920 255.9054 -702.0397
v  -695.1920 255.9054 -705.8468
v  -170.3887 334.6456 -705.8467
v  -170.3887 255.9054 -702.0396
v  -170.3887 334.6456 -702.0396
v  -406.6092 334.6456 -705.8468
v  -406.6092 334.6456 -702.0397
v  -406.6092 255.9054 -702.0397
v  118.1939 255.9054 -702.0396
v  118.1939 334.6456 -702.0396
v  -118.0266 334.6456 -702.0396
v  -118.0266 255.9054 -702.0396
v  779.6112 157.4802 -275.7285
v  779.6112 236.2204 -275.7285
v  779.6112 236.2204 -630.0592
v  779.6112 157.4802 -630.0592
v  580.7924 157.4802 -702.0397
v  383.9420 157.4802 -702.0397
v  -383.7746 157.4802 -702.0399
v  -580.6250 157.4802 -702.0399
v  59.1388 157.4802 -702.0397
v  -58.9714 157.4802 -702.0397
v  -779.4439 236.2204 -630.0595
v  -779.4439 157.4802 -630.0595
v  -779.4439 157.4802 -275.7287
v  -779.4439 236.2204 -275.7287
v  791.4221 285.2401 676.0432
v  791.4221 275.5401 715.4133
v  791.4221 0.0001 715.4134
v  791.4221 0.0001 676.0433
v  752.0519 275.5401 715.4133
v  752.0519 0.0001 715.4134
v  752.0519 285.2401 676.0432
v  752.0519 0.0001 676.0433
v  791.4221 393.7008 235.0984
v  791.4221 385.6937 274.4684
v  791.4221 0.0000 274.4685
v  791.4221 0.0000 235.0984
v  752.0519 385.6937 274.4684
v  752.0519 0.0000 274.4685
v  752.0519 393.7008 235.0984
v  752.0519 0.0000 235.0984
v  791.4221 393.7007 -237.3426
v  791.4221 385.6936 -197.9724
v  791.4221 -0.0000 -197.9724
v  791.4221 -0.0000 -237.3425
v  752.0519 385.6936 -197.9724
v  752.0519 -0.0000 -197.9724
v  752.0519 393.7007 -237.3426
v  752.0519 -0.0000 -237.3425
v  -751.8849 393.7008 235.0981
v  -751.8850 385.6937 274.4682
v  -751.8850 0.0000 274.4682
v  -751.8849 0.0000 235.0982
v  -791.2550 385.6937 274.4682
v  -791.2550 0.0000 274.4682
v  -791.2549 393.7008 235.0981
v  -791.2549 0.0000 235.0982
v  -751.8849 393.7007 -237.3428
v  -751.8849 385.6936 -197.9727
v  -751.8849 -0.0000 -197.9726
v  -751.8849 -0.0000 -237.3427
v  -791.2549 385.6936 -197.9727
v  -791.2549 -0.0000 -197.9726
v  -791.2549 393.7007 -237.3428
v  -791.2549 -0.0000 -237.3427
v  791.4222 393.7007 -709.7835
v  791.4222 385.6936 -670.4134
v  791.4222 -0.0001 -670.4133
v  791.4222 -0.0001 -709.7834
v  752.0520 385.6936 -670.4134
v  752.0520 -0.0001 -670.4133
v  752.0520 393.7007 -709.7835
v  752.0520 -0.0001 -709.7834
v  -751.8850 285.2401 676.0429
v  -751.8850 275.5401 715.4130
v  -751.8850 0.0001 715.4131
v  -751.8850 0.0001 676.0430
v  -791.2550 275.5401 715.4130
v  -791.2550 0.0001 715.4131
v  -791.2550 285.2401 676.0429
v  -791.2550 0.0001 676.0430
v  -751.8849 393.7007 -709.7838
v  -751.8849 385.6936 -670.4136
v  -751.8849 -0.0001 -670.4136
v  -751.8849 -0.0001 -709.7838
v  -791.2549 385.6936 -670.4136
v  -791.2549 -0.0001 -670.4136
v  -791.2549 393.7007 -709.7838
v  -791.2549 -0.0001 -709.7838
# 676 vertices

vn 1.0000 0.0000 0.0000
vn 0.0000 0.0000 1.0000
vn -1.0000 -0.0000 -0.0000
vn 0.0000 -0.0000 -1.0000
vn 0.0000 -1.0000 0.0000
vn 0.0000 0.9799 0.1993
vn -0.0000 0.0000 1.0000
vn 0.0000 -0.9701 -0.2427
vn 0.0000 0.9701 0.2427
vn -0.0000 0.9701 0.2427
vn 1.0000 0.0000 -0.0000
vn 0.0000 -0.9706 -0.2408
vn -0.0000 0.9706 0.2408
vn -1.0000 0.0000 -0.0000
vn 0.0000 0.9706 0.2408
vn 0.0000 1.0000 -0.0000
vn 0.0000 0.8811 -0.4729
vn 1.0000 -0.0000 0.0000
vn -0.0000 -0.0000 -1.0000
vn 0.0000 0.0000 -1.0000
vn -0.0000 0.9701 0.2425
vn 0.0000 -0.0000 1.0000
vn 0.9541 0.0000 -0.2995
vn -0.9477 -0.0000 -0.3191
vn 0.0000 0.9710 0.2392
# 25 vertex normals

vt 0.2926 0.4119 0.0000
vt 0.3426 0.4119 0.0000
vt 0.3426 0.4619 0.0000
vt 0.2926 0.4619 0.0000
vt 0.2946 0.1700 0.0000
vt 0.3446 0.1700 0.0000
vt 0.3446 0.2200 0.0000
vt 0.2946 0.2200 0.0000
vt 0.8488 0.8273 0.0000
vt 0.8988 0.8273 0.0000
vt 0.8988 0.8773 0.0000
vt 0.8488 0.8773 0.0000
vt 0.8445 0.8558 0.0000
vt 0.8945 0.8558 0.0000
vt 0.8531 0.8558 0.0000
vt 0.9031 0.8558 0.0000
vt 0.3026 0.1638 0.0000
vt 0.3166 0.1805 0.0000
vt 0.3195 0.1440 0.0000
vt 0.3195 0.1390 0.0000
vt 0.3195 0.1323 0.0000
vt 0.3195 0.1373 0.0000
vt 0.3263 0.1390 0.0000
vt 0.3263 0.1323 0.0000
vt 0.3263 0.1440 0.0000
vt 0.3263 0.1373 0.0000
vt 0.9898 0.4464 0.0000
vt 0.9898 0.6976 0.0000
vt 0.9085 0.6976 0.0000
vt 0.9085 0.4464 0.0000
vt 0.3212 0.1253 0.0000
vt 0.3212 0.1203 0.0000
vt 0.3212 0.1135 0.0000
vt 0.3212 0.1185 0.0000
vt 0.3280 0.1203 0.0000
vt 0.3280 0.1135 0.0000
vt 0.3280 0.1253 0.0000
vt 0.3280 0.1185 0.0000
vt 0.8420 0.8543 0.0000
vt 0.8420 0.8293 0.0000
vt 0.8443 0.8543 0.0000
vt 0.8443 0.8293 0.0000
vt 0.8422 0.8543 0.0000
vt 0.8441 0.8543 0.0000
vt 0.8441 0.8793 0.0000
vt 0.8422 0.8793 0.0000
vt 0.8438 0.8793 0.0000
vt 0.8425 0.8793 0.0000
vt 0.8438 0.8543 0.0000
vt 0.8425 0.8543 0.0000
vt 0.8261 0.8543 0.0000
vt 0.8261 0.8293 0.0000
vt 0.8284 0.8543 0.0000
vt 0.8284 0.8293 0.0000
vt 0.8263 0.8543 0.0000
vt 0.8282 0.8543 0.0000
vt 0.8282 0.8793 0.0000
vt 0.8263 0.8793 0.0000
vt 0.8279 0.8793 0.0000
vt 0.8266 0.8793 0.0000
vt 0.8279 0.8543 0.0000
vt 0.8266 0.8543 0.0000
vt 0.8102 0.8543 0.0000
vt 0.8102 0.8293 0.0000
vt 0.8125 0.8543 0.0000
vt 0.8125 0.8293 0.0000
vt 0.8104 0.8543 0.0000
vt 0.8123 0.8543 0.0000
vt 0.8123 0.8793 0.0000
vt 0.8104 0.8793 0.0000
vt 0.8120 0.8793 0.0000
vt 0.8107 0.8793 0.0000
vt 0.8120 0.8543 0.0000
vt 0.8107 0.8543 0.0000
vt 0.8579 0.8543 0.0000
vt 0.8579 0.8293 0.0000
vt 0.8602 0.8543 0.0000
vt 0.8602 0.8293 0.0000
vt 0.8581 0.8543 0.0000
vt 0.8600 0.8543 0.0000
vt 0.8600 0.8793 0.0000
vt 0.8581 0.8793 0.0000
vt 0.8597 0.8793 0.0000
vt 0.8584 0.8793 0.0000
vt 0.8597 0.8543 0.0000
vt 0.8584 0.8543 0.0000
vt 0.2857 0.3864 0.0000
vt 0.3357 0.3864 0.0000
vt 0.3357 0.4364 0.0000
vt 0.2857 0.4364 0.0000
vt 0.3110 0.8730 0.0000
vt 0.3326 0.8605 0.0000
vt 0.3326 0.8355 0.0000
vt 0.3110 0.8230 0.0000
vt 0.2893 0.8355 0.0000
vt 0.2893 0.8605 0.0000
vt 0.3211 0.8708 0.0000
vt 0.3296 0.8647 0.0000
vt 0.3008 0.8708 0.0000
vt 0.3347 0.8557 0.0000
vt 0.3358 0.8454 0.0000
vt 0.3257 0.8278 0.0000
vt 0.3162 0.8235 0.0000
vt 0.3058 0.8235 0.0000
vt 0.2963 0.8278 0.0000
vt 0.2861 0.8454 0.0000
vt 0.2872 0.8557 0.0000
vt 0.2924 0.8647 0.0000
vt 0.3183 0.8719 0.0000
vt 0.3251 0.8686 0.0000
vt 0.3305 0.8636 0.0000
vt 0.3342 0.8571 0.0000
vt 0.3359 0.8499 0.0000
vt 0.3353 0.8424 0.0000
vt 0.3280 0.8297 0.0000
vt 0.3218 0.8255 0.0000
vt 0.3147 0.8233 0.0000
vt 0.3072 0.8233 0.0000
vt 0.3001 0.8255 0.0000
vt 0.2940 0.8297 0.0000
vt 0.2866 0.8424 0.0000
vt 0.2860 0.8499 0.0000
vt 0.2877 0.8571 0.0000
vt 0.2914 0.8636 0.0000
vt 0.2969 0.8686 0.0000
vt 0.3036 0.8719 0.0000
vt 0.2860 0.8230 0.0000
vt 0.3360 0.8230 0.0000
vt 0.3360 0.8730 0.0000
vt 0.2860 0.8730 0.0000
vt 0.8101 0.4163 0.0000
vt 0.8101 0.3708 0.0000
vt 0.9919 0.3708 0.0000
vt 0.9919 0.4163 0.0000
vt 0.9898 0.4255 0.0000
vt 0.9898 0.3620 0.0000
vt 0.8111 0.3620 0.0000
vt 0.8111 0.4255 0.0000
vt 0.3235 0.8263 0.0000
vt 0.3174 0.8238 0.0000
vt 0.3045 0.8721 0.0000
vt 0.3174 0.8721 0.0000
vt 0.3235 0.8696 0.0000
vt 0.2933 0.8657 0.0000
vt 0.3286 0.8657 0.0000
vt 0.3351 0.8545 0.0000
vt 0.3360 0.8480 0.0000
vt 0.3351 0.8415 0.0000
vt 0.3286 0.8303 0.0000
vt 0.3045 0.8238 0.0000
vt 0.2985 0.8263 0.0000
vt 0.2933 0.8303 0.0000
vt 0.2868 0.8415 0.0000
vt 0.2860 0.8480 0.0000
vt 0.2868 0.8545 0.0000
vt 0.2985 0.8696 0.0000
vt 0.3205 0.8711 0.0000
vt 0.3341 0.8575 0.0000
vt 0.3341 0.8384 0.0000
vt 0.3014 0.8249 0.0000
vt 0.3205 0.8249 0.0000
vt 0.2879 0.8575 0.0000
vt 0.2879 0.8384 0.0000
vt 0.3014 0.8711 0.0000
vt 0.8127 0.4250 0.0000
vt 0.8127 0.3657 0.0000
vt 0.9907 0.3657 0.0000
vt 0.9907 0.4250 0.0000
vt 0.9906 0.3657 0.0000
vt 0.9906 0.4250 0.0000
vt 0.7839 0.0096 0.0000
vt 0.9884 0.0096 0.0000
vt 0.9884 0.1732 0.0000
vt 0.7839 0.1732 0.0000
vt 0.8651 0.1866 0.0000
vt 0.9886 0.1866 0.0000
vt 0.9886 0.3511 0.0000
vt 0.8651 0.3511 0.0000
# 178 texture coords

g SPW_Urban_Factory_Bldg_02
usemtl SPW_Urban_Factory
s off
f 1/1/1 2/2/1 3/3/1 4/4/1 
f 2/1/2 5/2/2 6/3/2 3/4/2 
f 5/1/3 7/2/3 8/3/3 6/4/3 
f 7/1/4 1/2/4 4/3/4 8/4/4 
f 4/1/5 3/2/5 6/3/5 8/4/5 
f 7/1/6 5/2/6 2/3/6 1/4/6 
f 9/1/1 10/2/1 11/3/1 12/4/1 
f 10/1/2 13/2/2 14/3/2 11/4/2 
f 13/1/3 15/2/3 16/3/3 14/4/3 
f 15/1/4 9/2/4 12/3/4 16/4/4 
f 12/1/5 11/2/5 14/3/5 16/4/5 
f 15/1/6 13/2/6 10/3/6 9/4/6 
s 1
f 17/5/4 18/6/4 19/7/4 20/8/4 
f 20/5/4 19/6/4 21/7/4 22/8/4 
f 23/5/2 24/6/2 25/7/7 26/8/7 
s off
f 18/5/8 23/6/8 26/7/8 19/8/8 
f 24/9/9 17/10/9 20/11/9 25/12/9 
s 1
f 22/5/4 21/6/4 27/7/4 28/8/4 
f 26/5/7 25/6/7 29/7/7 30/8/7 
s 2
f 19/5/8 26/6/8 30/7/8 21/8/8 
f 25/5/10 20/6/10 22/7/10 29/8/10 
s 1
f 28/5/4 27/6/4 31/7/4 32/8/4 
f 30/5/7 29/6/7 33/7/2 34/8/2 
s 2
f 21/5/8 30/6/8 34/7/8 27/8/8 
f 29/9/10 22/10/10 28/11/10 33/12/10 
s 1
f 32/5/4 31/6/4 35/7/4 36/8/4 
f 34/5/2 33/6/2 37/7/2 38/8/2 
s 2
f 27/5/8 34/6/8 38/7/8 31/8/8 
f 33/5/10 28/6/10 32/7/10 37/8/9 
s 1
f 36/5/4 35/6/4 39/7/4 40/8/4 
f 38/5/2 37/6/2 41/7/7 42/8/7 
s 2
f 31/5/8 38/6/8 42/7/8 35/8/8 
f 37/9/9 32/10/10 36/11/10 41/12/10 
s 1
f 40/5/4 39/6/4 43/7/4 44/8/4 
f 42/5/7 41/6/7 45/7/7 46/8/7 
s 2
f 35/5/8 42/6/8 46/7/8 39/8/8 
f 41/5/10 36/6/10 40/7/10 45/8/10 
s 1
f 44/5/4 43/6/4 47/7/4 48/8/4 
f 46/5/7 45/6/7 49/7/2 50/8/2 
s 2
f 39/5/8 46/6/8 50/7/8 43/8/8 
f 45/9/10 40/10/10 44/11/10 49/12/10 
s 1
f 48/5/4 47/6/4 51/7/4 52/8/4 
f 50/5/2 49/6/2 53/7/2 54/8/2 
s 2
f 43/5/8 50/6/8 54/7/8 47/8/8 
f 49/5/10 44/6/10 48/7/10 53/8/9 
s 1
f 52/5/4 51/6/4 55/7/4 56/8/4 
f 54/5/2 53/6/2 57/7/2 58/8/2 
s 2
f 47/5/8 54/6/8 58/7/8 51/8/8 
f 53/9/9 48/10/10 52/11/10 57/12/10 
s 1
f 56/5/4 55/6/4 59/7/4 60/8/4 
f 58/5/2 57/6/2 61/7/2 62/8/2 
s 2
f 51/5/8 58/6/8 62/7/8 55/8/8 
f 57/5/10 52/6/10 56/7/10 61/8/9 
s 1
f 60/5/4 59/6/4 63/7/4 64/8/4 
f 62/5/2 61/6/2 65/7/7 66/8/7 
s 2
f 55/5/8 62/6/8 66/7/8 59/8/8 
f 61/9/9 56/10/10 60/11/10 65/12/10 
s 1
f 64/5/4 63/6/4 67/7/4 68/8/4 
f 66/5/7 65/6/7 69/7/7 70/8/7 
s 2
f 59/5/8 66/6/8 70/7/8 63/8/8 
f 65/5/10 60/6/10 64/7/10 69/8/10 
s 1
f 68/5/4 67/6/4 71/7/4 72/8/4 
f 70/5/7 69/6/7 73/7/2 74/8/2 
s 2
f 63/5/8 70/6/8 74/7/8 67/8/8 
f 69/9/10 64/10/10 68/11/10 73/12/10 
s 1
f 72/8/4 71/7/4 75/7/4 76/8/4 
f 74/5/2 73/6/2 77/7/2 78/8/2 
s 2
f 67/5/8 74/6/8 78/7/8 71/8/8 
f 73/5/10 68/6/10 72/7/10 77/8/9 
s 1
f 76/8/4 75/7/4 79/7/4 80/8/4 
f 78/8/2 77/7/2 81/7/7 82/8/7 
s 2
f 71/8/8 78/7/8 82/7/8 75/8/8 
f 77/13/9 72/14/10 76/14/10 81/13/10 
s 1
f 80/8/4 79/7/4 83/7/4 84/8/4 
f 82/8/7 81/7/7 85/7/7 86/8/7 
s 2
f 75/8/8 82/7/8 86/7/8 79/8/8 
f 81/8/10 76/7/10 80/7/10 85/8/10 
s off
f 84/5/3 83/6/3 87/7/3 88/8/3 
s 1
f 86/8/7 85/7/7 88/7/2 87/8/2 
s off
f 79/8/8 86/7/8 87/7/8 83/8/8 
f 85/15/9 80/16/9 84/16/9 88/15/9 
f 17/17/1 24/18/1 23/17/1 18/17/1 
s 1
f 89/5/4 90/6/4 91/7/4 92/8/4 
f 92/5/4 91/6/4 93/7/4 94/8/4 
f 95/5/2 96/6/2 97/7/7 98/8/7 
s off
f 90/5/8 95/6/8 98/7/8 91/8/8 
f 96/9/9 89/10/9 92/11/9 97/12/9 
s 1
f 94/5/4 93/6/4 99/7/4 100/8/4 
f 98/5/7 97/6/7 101/7/7 102/8/7 
s 2
f 91/5/8 98/6/8 102/7/8 93/8/8 
f 97/5/10 92/6/10 94/7/10 101/8/10 
s 1
f 100/5/4 99/6/4 103/7/4 104/8/4 
f 102/5/7 101/6/7 105/7/7 106/8/7 
s 2
f 93/5/8 102/6/8 106/7/8 99/8/8 
f 101/9/10 94/10/10 100/11/10 105/12/10 
s 1
f 104/5/4 103/6/4 107/7/4 108/8/4 
f 106/5/7 105/6/7 109/7/7 110/8/7 
s 2
f 99/5/8 106/6/8 110/7/8 103/8/8 
f 105/5/10 100/6/10 104/7/10 109/8/10 
s 1
f 108/5/4 107/6/4 111/7/4 112/8/4 
f 110/5/7 109/6/7 113/7/7 114/8/7 
s 2
f 103/5/8 110/6/8 114/7/8 107/8/8 
f 109/9/10 104/10/10 108/11/10 113/12/10 
s 1
f 112/5/4 111/6/4 115/7/4 116/8/4 
f 114/5/7 113/6/7 117/7/7 118/8/7 
s 2
f 107/5/8 114/6/8 118/7/8 111/8/8 
f 113/5/10 108/6/10 112/7/10 117/8/10 
s 1
f 116/5/4 115/6/4 119/7/4 120/8/4 
f 118/5/7 117/6/7 121/7/7 122/8/7 
s 2
f 111/5/8 118/6/8 122/7/8 115/8/8 
f 117/9/10 112/10/10 116/11/10 121/12/10 
s 1
f 120/5/4 119/6/4 123/7/4 124/8/4 
f 122/5/7 121/6/7 125/7/7 126/8/7 
s 2
f 115/5/8 122/6/8 126/7/8 119/8/8 
f 121/5/10 116/6/10 120/7/10 125/8/10 
s 1
f 124/5/4 123/6/4 127/7/4 128/8/4 
f 126/5/7 125/6/7 129/7/7 130/8/7 
s 2
f 119/5/8 126/6/8 130/7/8 123/8/8 
f 125/9/10 120/10/10 124/11/10 129/12/10 
s 1
f 128/5/4 127/6/4 131/7/4 132/8/4 
f 130/5/7 129/6/7 133/7/7 134/8/7 
s 2
f 123/5/8 130/6/8 134/7/8 127/8/8 
f 129/5/10 124/6/10 128/7/10 133/8/10 
s 1
f 132/5/4 131/6/4 135/7/4 136/8/4 
f 134/5/7 133/6/7 137/7/7 138/8/7 
s 2
f 127/5/8 134/6/8 138/7/8 131/8/8 
f 133/9/10 128/10/10 132/11/10 137/12/10 
s 1
f 136/5/4 135/6/4 139/7/4 140/8/4 
f 138/5/7 137/6/7 141/7/7 142/8/7 
s 2
f 131/5/8 138/6/8 142/7/8 135/8/8 
f 137/5/10 132/6/10 136/7/10 141/8/10 
s 1
f 140/5/4 139/6/4 143/7/4 144/8/4 
f 142/5/7 141/6/7 145/7/7 146/8/7 
s 2
f 135/5/8 142/6/8 146/7/8 139/8/8 
f 141/9/10 136/10/10 140/11/10 145/12/10 
s 1
f 144/8/4 143/7/4 147/7/4 148/8/4 
f 146/5/7 145/6/7 149/7/7 150/8/7 
s 2
f 139/5/8 146/6/8 150/7/8 143/8/8 
f 145/5/10 140/6/10 144/7/10 149/8/10 
s 1
f 148/8/4 147/7/4 151/7/4 152/8/4 
f 150/8/7 149/7/7 153/7/7 154/8/7 
s 2
f 143/8/8 150/7/8 154/7/8 147/8/8 
f 149/13/10 144/14/10 148/14/10 153/13/10 
s 1
f 152/8/4 151/7/4 155/7/4 156/8/4 
f 154/8/7 153/7/7 157/7/7 158/8/7 
s 2
f 147/8/8 154/7/8 158/7/8 151/8/8 
f 153/8/10 148/7/10 152/7/10 157/8/10 
s off
f 156/5/3 155/6/3 159/7/3 160/8/3 
s 1
f 158/8/7 157/7/7 160/7/2 159/8/2 
s 2
f 151/8/8 158/7/8 159/7/8 155/8/8 
f 157/15/10 152/16/10 156/16/9 160/15/9 
s off
f 89/17/1 96/18/1 95/17/1 90/17/1 
f 161/19/11 162/20/11 163/21/11 164/22/11 
f 162/20/7 165/23/7 166/24/7 163/21/7 
f 165/23/3 167/25/3 168/26/3 166/24/3 
f 167/25/4 161/19/4 164/22/4 168/26/4 
f 164/22/12 163/21/12 166/24/12 168/26/12 
f 167/27/13 165/28/13 162/29/13 161/30/13 
f 169/19/1 170/20/1 171/21/1 172/22/1 
f 170/20/7 173/23/7 174/24/7 171/21/7 
f 173/23/3 175/25/3 176/26/3 174/24/3 
f 175/25/4 169/19/4 172/22/4 176/26/4 
f 172/22/12 171/21/12 174/24/12 176/26/12 
f 175/27/13 173/28/13 170/29/13 169/30/13 
f 177/19/1 178/20/1 179/21/1 180/22/1 
f 178/20/7 181/23/7 182/24/7 179/21/7 
f 181/23/3 183/25/3 184/26/3 182/24/3 
f 183/25/4 177/19/4 180/22/4 184/26/4 
f 180/22/12 179/21/12 182/24/12 184/26/12 
f 183/27/13 181/28/13 178/29/13 177/30/13 
f 185/19/1 186/20/1 187/21/1 188/22/1 
f 186/20/7 189/23/7 190/24/7 187/21/7 
f 189/23/14 191/25/14 192/26/14 190/24/14 
f 191/25/4 185/19/4 188/22/4 192/26/4 
f 188/22/12 187/21/12 190/24/12 192/26/12 
f 191/27/13 189/28/13 186/29/13 185/30/13 
f 193/31/11 194/32/11 195/33/11 196/34/11 
f 194/32/7 197/35/7 198/36/7 195/33/7 
f 197/35/14 199/37/14 200/38/14 198/36/14 
f 199/37/4 193/31/4 196/34/4 200/38/4 
f 196/34/12 195/33/12 198/36/12 200/38/12 
f 199/27/13 197/28/13 194/29/13 193/30/13 
f 201/31/1 202/32/1 203/33/1 204/34/1 
f 202/32/2 205/35/2 206/36/2 203/33/2 
f 205/35/3 207/37/3 208/38/3 206/36/3 
f 207/37/4 201/31/4 204/34/4 208/38/4 
f 204/34/12 203/33/12 206/36/12 208/38/12 
f 207/27/15 205/28/15 202/29/15 201/30/15 
f 209/31/1 210/32/1 211/33/1 212/34/1 
f 210/32/2 213/35/2 214/36/2 211/33/2 
f 213/35/3 215/37/3 216/38/3 214/36/3 
f 215/37/4 209/31/4 212/34/4 216/38/4 
f 212/34/12 211/33/12 214/36/12 216/38/12 
f 215/27/15 213/28/15 210/29/15 209/30/15 
f 217/31/11 218/32/11 219/33/11 220/34/11 
f 218/32/7 221/35/7 222/36/7 219/33/7 
f 221/35/14 223/37/14 224/38/14 222/36/14 
f 223/37/4 217/31/4 220/34/4 224/38/4 
f 220/34/12 219/33/12 222/36/12 224/38/12 
f 223/27/13 221/28/13 218/29/13 217/30/13 
s 1
f 225/5/4 226/6/4 227/7/4 228/8/4 
f 228/5/4 227/6/4 229/7/4 230/8/4 
f 231/5/2 232/6/2 233/7/7 234/8/7 
s off
f 226/5/8 231/6/8 234/7/8 227/8/8 
f 232/9/9 225/10/9 228/11/9 233/12/9 
s 1
f 230/5/4 229/6/4 235/7/4 236/8/4 
f 234/5/7 233/6/7 237/7/7 238/8/7 
s 2
f 227/5/8 234/6/8 238/7/8 229/8/8 
f 233/5/10 228/6/10 230/7/10 237/8/10 
s 1
f 236/5/4 235/6/4 239/7/4 240/8/4 
f 238/5/7 237/6/7 241/7/7 242/8/7 
s 2
f 229/5/8 238/6/8 242/7/8 235/8/8 
f 237/9/10 230/10/10 236/11/9 241/12/10 
s 1
f 240/5/4 239/6/4 243/7/4 244/8/4 
f 242/5/7 241/6/7 245/7/7 246/8/7 
s 2
f 235/5/8 242/6/8 246/7/8 239/8/8 
f 241/5/10 236/6/9 240/7/10 245/8/10 
s 1
f 244/5/4 243/6/4 247/7/4 248/8/4 
f 246/5/7 245/6/7 249/7/7 250/8/7 
s 2
f 239/5/8 246/6/8 250/7/8 243/8/8 
f 245/9/10 240/10/10 244/11/10 249/12/10 
s 1
f 248/5/4 247/6/4 251/7/4 252/8/4 
f 250/5/7 249/6/7 253/7/7 254/8/7 
s 2
f 243/5/8 250/6/8 254/7/8 247/8/8 
f 249/5/10 244/6/10 248/7/10 253/8/10 
s 1
f 252/5/4 251/6/4 255/7/4 256/8/4 
f 254/5/7 253/6/7 257/7/7 258/8/7 
s 2
f 247/5/8 254/6/8 258/7/8 251/8/8 
f 253/9/10 248/10/10 252/11/9 257/12/10 
s 1
f 256/5/4 255/6/4 259/7/4 260/8/4 
f 258/5/7 257/6/7 261/7/7 262/8/7 
s 2
f 251/5/8 258/6/8 262/7/8 255/8/8 
f 257/5/10 252/6/9 256/7/10 261/8/10 
s 1
f 260/5/4 259/6/4 263/7/4 264/8/4 
f 262/5/7 261/6/7 265/7/7 266/8/7 
s 2
f 255/5/8 262/6/8 266/7/8 259/8/8 
f 261/9/10 256/10/10 260/11/9 265/12/10 
s 1
f 264/5/4 263/6/4 267/7/4 268/8/4 
f 266/5/7 265/6/7 269/7/7 270/8/7 
s 2
f 259/5/8 266/6/8 270/7/8 263/8/8 
f 265/5/10 260/6/9 264/7/10 269/8/10 
s 1
f 268/5/4 267/6/4 271/7/4 272/8/4 
f 270/5/7 269/6/7 273/7/7 274/8/7 
s 2
f 263/5/8 270/6/8 274/7/8 267/8/8 
f 269/9/10 264/10/10 268/11/10 273/12/10 
s 1
f 272/5/4 271/6/4 275/7/4 276/8/4 
f 274/5/7 273/6/7 277/7/7 278/8/7 
s 2
f 267/5/8 274/6/8 278/7/8 271/8/8 
f 273/5/10 268/6/10 272/7/10 277/8/10 
s 1
f 276/5/4 275/6/4 279/7/4 280/8/4 
f 278/5/7 277/6/7 281/7/7 282/8/7 
s 2
f 271/5/8 278/6/8 282/7/8 275/8/8 
f 277/9/10 272/10/10 276/11/9 281/12/10 
s 1
f 280/8/4 279/7/4 283/7/4 284/8/4 
f 282/5/7 281/6/7 285/7/7 286/8/7 
s 2
f 275/5/8 282/6/8 286/7/8 279/8/8 
f 281/5/10 276/6/9 280/7/10 285/8/10 
s 1
f 284/8/4 283/7/4 287/7/4 288/8/4 
f 286/8/7 285/7/7 289/7/7 290/8/7 
s 2
f 279/8/8 286/7/8 290/7/8 283/8/8 
f 285/13/10 280/14/10 284/14/10 289/13/10 
s 1
f 288/8/4 287/7/4 291/7/4 292/8/4 
f 290/8/7 289/7/7 293/7/7 294/8/7 
s 2
f 283/8/8 290/7/8 294/7/8 287/8/8 
f 289/8/10 284/7/10 288/7/10 293/8/10 
s off
f 292/5/3 291/6/3 295/7/3 296/8/3 
s 1
f 294/8/7 293/7/7 296/7/2 295/8/2 
s off
f 287/8/8 294/7/8 295/7/8 291/8/8 
f 293/15/9 288/16/9 292/16/9 296/15/9 
f 225/17/1 232/18/1 231/17/1 226/17/1 
f 297/39/11 298/39/11 299/40/11 300/40/11 
f 298/39/2 301/41/2 302/42/2 299/40/2 
f 301/41/14 303/41/14 304/42/14 302/42/14 
f 303/41/4 297/39/4 300/40/4 304/42/4 
f 300/40/5 299/40/5 302/42/5 304/42/5 
f 301/41/16 298/39/16 305/43/16 306/44/16 
f 307/43/4 308/44/4 309/45/4 310/46/4 
f 303/41/16 301/41/16 306/44/16 308/44/16 
f 298/39/16 297/39/16 307/43/16 305/43/16 
f 297/39/16 303/41/16 308/44/16 307/43/16 
s 1
f 309/45/16 311/45/16 312/47/16 313/47/16 
s off
f 306/44/2 305/43/2 314/46/2 311/45/2 
f 308/44/14 306/44/14 311/45/14 309/45/14 
f 305/43/11 307/43/11 310/46/11 314/46/11 
f 315/48/2 313/47/2 316/49/2 317/50/2 
s 1
f 314/46/16 310/46/16 315/48/16 318/48/16 
f 310/46/16 309/45/16 313/47/16 315/48/16 
f 311/45/16 314/46/16 318/48/16 312/47/16 
s off
f 316/49/16 319/49/16 320/50/16 317/50/16 
f 312/47/4 318/48/4 320/50/4 319/49/4 
f 313/47/11 312/47/11 319/49/11 316/49/11 
f 318/48/14 315/48/14 317/50/14 320/50/14 
f 321/51/11 322/51/11 323/52/11 324/52/11 
f 322/51/2 325/53/2 326/54/2 323/52/2 
f 325/53/14 327/53/14 328/54/14 326/54/14 
f 327/53/4 321/51/4 324/52/4 328/54/4 
f 324/52/5 323/52/5 326/54/5 328/54/5 
s 1
f 325/53/16 322/51/16 329/55/16 330/56/16 
s off
f 331/55/4 332/56/4 333/57/4 334/58/4 
s 1
f 327/53/16 325/53/16 330/56/16 332/56/16 
f 322/51/16 321/51/16 331/55/16 329/55/16 
f 321/51/16 327/53/16 332/56/16 331/55/16 
f 333/57/16 335/57/16 336/59/16 337/59/16 
s off
f 330/56/2 329/55/2 338/58/2 335/57/2 
f 332/56/14 330/56/14 335/57/14 333/57/14 
f 329/55/11 331/55/11 334/58/11 338/58/11 
f 339/60/2 337/59/2 340/61/2 341/62/2 
s 1
f 338/58/16 334/58/16 339/60/16 342/60/16 
f 334/58/16 333/57/16 337/59/16 339/60/16 
f 335/57/16 338/58/16 342/60/16 336/59/16 
s off
f 340/61/16 343/61/16 344/62/16 341/62/16 
f 336/59/4 342/60/4 344/62/4 343/61/4 
f 337/59/11 336/59/11 343/61/11 340/61/11 
f 342/60/14 339/60/14 341/62/14 344/62/14 
f 345/63/1 346/63/1 347/64/1 348/64/1 
f 346/63/7 349/65/7 350/66/7 347/64/7 
f 349/65/3 351/65/3 352/66/3 350/66/3 
f 351/65/4 345/63/4 348/64/4 352/66/4 
f 348/64/5 347/64/5 350/66/5 352/66/5 
s 1
f 349/65/16 346/63/16 353/67/16 354/68/16 
s off
f 355/67/4 356/68/4 357/69/4 358/70/4 
s 1
f 351/65/16 349/65/16 354/68/16 356/68/16 
f 346/63/16 345/63/16 355/67/16 353/67/16 
s off
f 345/63/16 351/65/16 356/68/16 355/67/16 
f 357/69/16 359/69/16 360/71/16 361/71/16 
f 354/68/7 353/67/7 362/70/7 359/69/7 
f 356/68/14 354/68/14 359/69/14 357/69/14 
f 353/67/11 355/67/11 358/70/11 362/70/11 
f 363/72/2 361/71/2 364/73/2 365/74/2 
f 362/70/16 358/70/16 363/72/16 366/72/16 
f 358/70/16 357/69/16 361/71/16 363/72/16 
f 359/69/16 362/70/16 366/72/16 360/71/16 
f 364/73/16 367/73/16 368/74/16 365/74/16 
f 360/71/4 366/72/4 368/74/4 367/73/4 
f 361/71/11 360/71/11 367/73/11 364/73/11 
f 366/72/14 363/72/14 365/74/14 368/74/14 
f 369/75/1 370/75/1 371/76/1 372/76/1 
f 370/75/7 373/77/7 374/78/7 371/76/7 
f 373/77/3 375/77/3 376/78/3 374/78/3 
f 375/77/4 369/75/4 372/76/4 376/78/4 
f 372/76/5 371/76/5 374/78/5 376/78/5 
f 373/77/16 370/75/16 377/79/16 378/80/16 
f 379/79/4 380/80/4 381/81/4 382/82/4 
s 1
f 375/77/16 373/77/16 378/80/16 380/80/16 
f 370/75/16 369/75/16 379/79/16 377/79/16 
f 369/75/16 375/77/16 380/80/16 379/79/16 
f 381/81/16 383/81/16 384/83/16 385/83/16 
s off
f 378/80/7 377/79/7 386/82/7 383/81/7 
f 380/80/14 378/80/14 383/81/14 381/81/14 
f 377/79/11 379/79/11 382/82/11 386/82/11 
f 387/84/2 385/83/2 388/85/2 389/86/2 
s 1
f 386/82/16 382/82/16 387/84/16 390/84/16 
f 382/82/16 381/81/16 385/83/16 387/84/16 
f 383/81/16 386/82/16 390/84/16 384/83/16 
s off
f 388/85/16 391/85/16 392/86/16 389/86/16 
f 384/83/4 390/84/4 392/86/4 391/85/4 
f 385/83/11 384/83/11 391/85/11 388/85/11 
f 390/84/14 387/84/14 389/86/14 392/86/14 
f 393/87/11 394/88/11 395/89/11 396/90/11 
f 394/87/7 397/88/7 398/89/7 395/90/7 
f 397/87/14 399/88/14 400/89/14 398/90/14 
f 399/87/4 393/88/4 396/89/4 400/90/4 
f 396/87/5 395/88/5 398/89/5 400/90/5 
f 399/87/17 397/88/17 394/89/17 393/90/17 
f 401/91/1 402/92/1 403/93/1 404/94/1 
f 401/91/18 404/94/18 405/95/18 406/96/18 
f 407/92/11 406/93/11 405/94/11 408/95/11 
f 402/91/1 407/92/1 408/95/1 403/96/1 
s 1
f 409/91/4 404/97/19 403/98/4 410/99/4 
f 411/100/4 412/101/4 413/93/20 414/102/4 
f 403/98/4 411/100/4 414/102/4 415/103/4 
f 403/98/4 415/103/4 416/104/20 417/105/4 
f 403/98/4 417/105/4 418/95/4 419/106/4 
f 403/98/4 419/106/4 420/107/4 421/108/4 
f 403/98/4 421/108/4 410/99/4 
f 422/109/20 410/110/4 421/111/4 423/112/20 
f 424/113/20 420/114/4 419/93/4 425/115/4 
f 426/116/20 418/117/4 417/118/4 427/119/4 
f 428/120/4 416/95/20 415/121/4 429/122/20 
f 429/122/20 413/123/20 412/124/4 428/120/4 
f 427/119/4 428/120/4 412/124/4 426/116/20 
f 425/115/4 426/116/20 412/124/4 424/113/20 
f 423/112/20 424/113/20 412/124/4 422/109/20 
f 430/91/4 422/109/20 412/124/4 404/125/19 
f 430/91/4 404/125/19 409/126/4 
s off
f 412/127/21 431/128/21 405/129/21 404/130/21 
f 405/127/7 431/128/7 432/129/7 408/130/7 
f 403/127/5 408/128/5 432/129/5 411/130/5 
s 2
f 432/93/3 431/94/14 433/95/14 434/96/3 
f 411/92/3 432/93/3 434/96/3 435/91/3 
f 436/91/14 433/92/14 431/93/14 412/94/14 
f 436/91/14 412/94/14 411/95/3 435/96/3 
s off
f 430/127/14 409/128/14 437/129/14 438/130/14 
f 422/127/5 430/128/5 438/129/5 439/130/5 
f 438/131/4 437/132/4 440/133/4 439/134/4 
f 409/127/16 410/128/16 440/129/16 437/130/16 
f 410/127/11 422/128/11 439/129/11 440/130/11 
f 423/127/14 421/128/14 441/129/14 442/130/14 
f 424/127/5 423/128/5 442/129/5 443/130/5 
f 442/131/4 441/132/4 444/133/4 443/134/4 
f 421/127/16 420/128/16 444/129/16 441/130/16 
f 420/127/11 424/128/11 443/129/11 444/130/11 
f 429/127/14 415/128/14 445/129/14 446/130/14 
f 413/127/5 429/128/5 446/129/5 447/130/5 
f 446/131/4 445/132/4 448/133/4 447/134/4 
f 415/127/16 414/128/16 448/129/16 445/130/16 
f 414/127/11 413/128/11 447/129/11 448/130/11 
f 427/127/14 417/128/14 449/129/14 450/130/14 
f 428/127/5 427/128/5 450/129/5 451/130/5 
f 450/131/4 449/132/4 452/133/4 451/134/4 
f 417/127/16 416/128/16 452/129/16 449/130/16 
f 416/127/11 428/128/11 451/129/11 452/130/11 
f 425/127/14 419/128/14 453/129/14 454/130/14 
f 426/127/5 425/128/5 454/129/5 455/130/5 
f 454/131/4 453/132/4 456/133/4 455/134/4 
f 419/127/16 418/128/16 456/129/16 453/130/16 
f 418/127/11 426/128/11 455/129/11 456/130/11 
f 406/127/4 407/128/4 457/129/4 458/130/4 
f 401/127/5 406/128/5 458/129/5 459/130/5 
f 458/135/11 457/136/11 460/137/11 459/138/11 
f 407/127/16 402/128/16 460/129/16 457/130/16 
f 402/127/22 401/128/22 459/129/22 460/130/22 
f 461/138/14 462/137/14 463/136/14 464/135/14 
f 436/127/22 435/128/22 462/129/22 461/130/22 
f 433/127/5 436/128/5 461/129/5 464/130/5 
f 434/127/4 433/128/4 464/129/4 463/130/4 
f 435/127/16 434/128/16 463/129/16 462/130/16 
s 1
f 465/91/11 466/92/11 467/93/11 468/94/11 
f 465/91/11 468/94/11 469/95/11 470/96/11 
f 471/92/11 470/93/11 469/94/11 403/95/11 
f 466/91/11 471/92/11 403/95/11 467/96/11 
s 2
f 472/91/4 468/97/19 467/98/4 473/99/4 
f 474/100/4 475/101/4 476/93/20 477/102/4 
f 467/98/4 474/100/4 477/102/4 478/103/4 
f 467/98/4 478/103/4 479/104/20 480/105/4 
f 467/98/4 480/105/4 481/95/4 482/106/4 
f 467/98/4 482/106/4 483/107/4 484/108/4 
f 467/98/4 484/108/4 473/99/4 
f 485/109/20 473/110/4 484/111/4 486/112/20 
f 487/113/20 483/114/4 482/93/4 488/115/4 
f 489/116/20 481/117/4 480/118/4 490/119/4 
f 491/120/4 479/95/20 478/121/4 492/122/20 
f 492/122/20 476/123/20 475/124/4 491/120/4 
f 490/119/4 491/120/4 475/124/4 489/116/20 
f 488/115/4 489/116/20 475/124/4 487/113/20 
f 486/112/20 487/113/20 475/124/4 485/109/20 
f 493/91/4 485/109/20 475/124/4 468/125/19 
f 493/91/4 468/125/19 472/126/4 
s off
f 475/127/21 494/128/21 469/129/21 468/130/21 
f 469/127/7 494/128/7 411/129/7 403/130/7 
f 467/127/5 403/128/5 411/129/5 474/130/5 
s 1
f 411/93/14 494/94/14 495/95/14 496/96/14 
f 474/92/14 411/93/14 496/96/14 497/91/14 
f 498/91/14 495/92/14 494/93/14 475/94/14 
f 498/91/14 475/94/14 474/95/14 497/96/14 
s off
f 493/127/14 472/128/14 499/129/14 500/130/14 
f 485/127/5 493/128/5 500/129/5 501/130/5 
f 500/131/4 499/132/4 502/133/4 501/134/4 
f 472/127/16 473/128/16 502/129/16 499/130/16 
f 473/127/11 485/128/11 501/129/11 502/130/11 
f 486/127/14 484/128/14 503/129/14 504/130/14 
f 487/127/5 486/128/5 504/129/5 505/130/5 
f 504/131/4 503/132/4 506/133/4 505/134/4 
f 484/127/16 483/128/16 506/129/16 503/130/16 
f 483/127/11 487/128/11 505/129/11 506/130/11 
f 492/127/14 478/128/14 507/129/14 508/130/14 
f 476/127/5 492/128/5 508/129/5 509/130/5 
f 508/131/4 507/132/4 510/133/4 509/134/4 
f 478/127/16 477/128/16 510/129/16 507/130/16 
f 477/127/11 476/128/11 509/129/11 510/130/11 
f 490/127/14 480/128/14 511/129/14 512/130/14 
f 491/127/5 490/128/5 512/129/5 513/130/5 
f 512/131/4 511/132/4 514/133/4 513/134/4 
f 480/127/16 479/128/16 514/129/16 511/130/16 
f 479/127/11 491/128/11 513/129/11 514/130/11 
f 488/127/14 482/128/14 515/129/14 516/130/14 
f 489/127/5 488/128/5 516/129/5 517/130/5 
f 516/131/4 515/132/4 518/133/4 517/134/4 
f 482/127/16 481/128/16 518/129/16 515/130/16 
f 481/127/11 489/128/11 517/129/11 518/130/11 
f 470/127/20 471/128/20 519/129/20 520/130/20 
f 465/127/5 470/128/5 520/129/5 521/130/5 
f 520/135/11 519/136/11 522/137/11 521/138/11 
f 471/127/16 466/128/16 522/129/16 519/130/16 
f 466/127/22 465/128/22 521/129/22 522/130/22 
f 523/138/14 524/137/14 525/136/14 526/135/14 
f 498/127/22 497/128/22 524/129/22 523/130/22 
f 495/127/5 498/128/5 523/129/5 526/130/5 
f 496/127/20 495/128/20 526/129/20 525/130/20 
f 497/127/16 496/128/16 525/129/16 524/130/16 
s 1
f 527/93/18 528/94/1 529/95/1 467/96/18 
f 530/92/18 527/93/18 467/96/18 531/91/18 
f 532/92/23 529/93/1 528/94/1 533/95/11 
f 531/91/18 532/92/23 533/95/11 530/96/18 
f 534/139/4 535/140/4 536/141/24 
s 2
f 531/91/4 537/142/4 538/143/20 539/144/4 
f 540/145/4 541/92/4 542/146/4 543/147/20 
f 544/148/4 545/93/4 546/149/4 547/139/4 
f 548/140/4 549/94/4 550/150/4 551/151/4 
f 547/139/4 548/140/4 551/151/4 544/148/4 
f 543/147/20 544/148/4 551/151/4 540/145/4 
f 538/143/20 540/145/4 551/151/4 552/152/4 
f 538/143/20 552/152/4 553/95/20 554/153/4 
f 538/143/20 554/153/4 555/154/19 556/155/4 
f 538/143/20 556/155/4 557/96/20 539/144/4 
f 531/91/4 539/144/4 558/156/4 532/141/4 
s off
f 536/127/21 559/128/21 529/129/21 532/130/21 
f 529/127/7 559/128/7 474/129/7 467/130/7 
f 531/91/5 467/157/5 474/145/5 560/144/5 
f 474/145/5 550/158/5 549/147/5 561/159/5 
f 474/145/5 561/159/5 562/149/5 563/160/5 
f 562/149/5 546/161/5 545/94/5 563/160/5 
f 474/145/5 563/160/5 564/152/5 565/162/5 
f 564/152/5 542/163/5 541/154/5 565/162/5 
f 474/145/5 565/162/5 560/144/5 
f 531/91/5 560/144/5 537/164/5 
s 1
f 566/93/3 567/94/3 559/95/3 536/96/24 
f 568/92/14 566/93/3 536/96/24 550/91/14 
f 474/92/14 559/93/3 567/94/3 569/95/14 
f 550/91/14 474/92/14 569/95/14 568/96/14 
s off
f 570/127/14 558/128/14 571/129/14 572/130/14 
f 573/127/5 570/128/5 572/129/5 574/130/5 
f 572/165/4 571/166/4 575/167/4 574/168/4 
f 558/127/16 539/128/16 575/129/16 571/130/16 
f 539/127/11 573/128/11 574/129/11 575/130/11 
f 576/127/14 557/128/14 577/129/14 578/130/14 
f 579/127/5 576/128/5 578/129/5 580/130/5 
f 578/165/4 577/166/4 581/169/4 580/170/4 
f 557/127/16 556/128/16 581/129/16 577/130/16 
f 556/127/11 579/128/11 580/129/11 581/130/11 
f 582/127/14 551/128/14 583/129/14 584/130/14 
f 585/127/5 582/128/5 584/129/5 586/130/5 
f 584/165/4 583/166/4 587/169/4 586/170/4 
f 551/127/16 588/128/16 587/129/16 583/130/16 
f 588/127/11 585/128/11 586/129/11 587/130/11 
f 589/127/14 553/128/14 590/129/14 591/130/14 
f 592/127/5 589/128/5 591/129/5 593/130/5 
f 591/165/4 590/166/4 594/169/4 593/170/4 
f 553/127/16 552/128/16 594/129/16 590/130/16 
f 552/127/11 592/128/11 593/129/11 594/130/11 
f 534/127/14 555/128/14 595/129/14 596/130/14 
f 535/127/5 534/128/5 596/129/5 597/130/5 
f 596/165/4 595/166/4 598/167/4 597/168/4 
f 555/127/16 554/128/16 598/129/16 595/130/16 
f 554/127/11 535/128/11 597/129/11 598/130/11 
f 528/127/20 527/128/20 599/129/20 600/130/20 
f 533/127/5 528/128/5 600/129/5 601/130/5 
f 600/135/11 599/136/11 602/137/11 601/138/11 
f 527/127/16 530/128/16 602/129/16 599/130/16 
f 530/127/2 533/128/2 601/129/2 602/130/2 
f 538/127/14 537/128/14 560/129/14 603/130/14 
f 540/127/5 538/128/5 603/129/5 604/130/5 
f 560/171/4 565/172/4 604/173/4 603/174/4 
f 604/127/11 565/128/11 541/129/11 540/130/11 
f 547/127/14 546/128/14 562/129/14 605/130/14 
f 548/127/5 547/128/5 605/129/5 606/130/5 
f 562/171/4 561/172/4 606/173/4 605/174/4 
f 606/127/11 561/128/11 549/129/11 548/130/11 
f 543/127/14 542/128/14 564/129/14 607/130/14 
f 544/127/5 543/128/5 607/129/5 608/130/5 
f 564/175/4 563/176/4 608/177/4 607/178/4 
f 608/127/11 563/128/11 545/129/11 544/130/11 
f 609/138/14 610/137/14 611/136/14 612/135/14 
f 566/127/2 568/128/2 610/129/2 609/130/2 
f 567/127/5 566/128/5 609/129/5 612/130/5 
f 569/127/20 567/128/20 612/129/20 611/130/20 
f 568/127/16 569/128/16 611/129/16 610/130/16 
f 613/1/11 614/2/11 615/3/11 616/4/11 
f 614/1/2 617/2/2 618/3/2 615/4/2 
f 617/1/14 619/2/14 620/3/14 618/4/14 
f 619/1/4 613/2/4 616/3/4 620/4/4 
f 616/1/5 615/2/5 618/3/5 620/4/5 
f 619/1/25 617/2/25 614/3/25 613/4/25 
f 621/1/1 622/2/1 623/3/1 624/4/1 
f 622/1/2 625/2/2 626/3/2 623/4/2 
f 625/1/3 627/2/3 628/3/3 626/4/3 
f 627/1/4 621/2/4 624/3/4 628/4/4 
f 624/1/5 623/2/5 626/3/5 628/4/5 
f 627/1/6 625/2/6 622/3/6 621/4/6 
f 629/1/11 630/2/11 631/3/11 632/4/11 
f 630/1/2 633/2/2 634/3/2 631/4/2 
f 633/1/14 635/2/14 636/3/14 634/4/14 
f 635/1/4 629/2/4 632/3/4 636/4/4 
f 632/1/5 631/2/5 634/3/5 636/4/5 
f 635/1/6 633/2/6 630/3/6 629/4/6 
f 637/1/1 638/2/1 639/3/1 640/4/1 
f 638/1/2 641/2/2 642/3/2 639/4/2 
f 641/1/3 643/2/3 644/3/3 642/4/3 
f 643/1/4 637/2/4 640/3/4 644/4/4 
f 640/1/5 639/2/5 642/3/5 644/4/5 
f 643/1/6 641/2/6 638/3/6 637/4/6 
f 645/1/11 646/2/11 647/3/11 648/4/11 
f 646/1/2 649/2/2 650/3/2 647/4/2 
f 649/1/14 651/2/14 652/3/14 650/4/14 
f 651/1/4 645/2/4 648/3/4 652/4/4 
f 648/1/5 647/2/5 650/3/5 652/4/5 
f 651/1/6 649/2/6 646/3/6 645/4/6 
f 653/1/11 654/2/11 655/3/11 656/4/11 
f 654/1/2 657/2/2 658/3/2 655/4/2 
f 657/1/14 659/2/14 660/3/14 658/4/14 
f 659/1/4 653/2/4 656/3/4 660/4/4 
f 656/1/5 655/2/5 658/3/5 660/4/5 
f 659/1/6 657/2/6 654/3/6 653/4/6 
f 661/1/11 662/2/11 663/3/11 664/4/11 
f 662/1/2 665/2/2 666/3/2 663/4/2 
f 665/1/14 667/2/14 668/3/14 666/4/14 
f 667/1/4 661/2/4 664/3/4 668/4/4 
f 664/1/5 663/2/5 666/3/5 668/4/5 
f 667/1/25 665/2/25 662/3/25 661/4/25 
f 669/1/11 670/2/11 671/3/11 672/4/11 
f 670/1/2 673/2/2 674/3/2 671/4/2 
f 673/1/14 675/2/14 676/3/14 674/4/14 
f 675/1/4 669/2/4 672/3/4 676/4/4 
f 672/1/5 671/2/5 674/3/5 676/4/5 
f 675/1/6 673/2/6 670/3/6 669/4/6 
s 2
f 588/96/4 551/144/4 550/156/4 
s off
f 532/91/4 558/142/4 570/143/4 
s 2
f 588/96/4 550/156/4 536/141/4 
s 1
f 573/145/20 532/91/23 570/143/20 
s 2
f 573/145/4 539/92/4 557/146/20 
s 1
f 576/147/20 532/91/23 573/145/20 
s off
f 585/155/4 588/96/4 536/141/4 
s 2
f 552/95/4 551/153/4 582/154/4 
s 1
f 582/154/4 585/155/4 536/141/24 
s 2
f 573/145/4 557/146/20 576/147/4 
f 592/152/4 552/95/4 582/154/4 
s off
f 579/148/4 532/91/4 576/147/4 
s 1
f 592/152/4 582/154/4 536/141/24 
s 2
f 554/94/4 553/150/20 589/151/4 
s off
f 589/151/20 592/152/20 536/141/20 
f 534/139/20 532/91/20 579/148/20 
s 2
f 579/148/4 556/93/4 555/149/19 
f 535/140/4 554/94/4 589/151/4 
f 579/148/4 555/149/19 534/139/4 
s 1
f 536/141/24 535/140/4 589/151/4 
s off
f 536/141/20 532/91/20 534/139/20 
# 608 polygons - 28 triangles

