# 3ds Max Wavefront OBJ Exporter v0.97b - (c)2007 guruware
# File Created: 15.03.2017 11:47:17

mtllib SPW_Urban_Text_Train Station.mtl

#
# object SPW_Urban_Text_Train_Station
#

v  108.2212 19.5764 -1.9685
v  105.3391 20.2756 -1.9685
v  105.3391 22.0321 -1.9685
v  124.2487 7.2764 -1.9685
v  110.7553 22.0321 -1.9685
v  124.2487 19.5747 -1.9685
v  121.3574 20.2739 -1.9685
v  121.3574 22.0298 -1.9685
v  129.7509 20.2761 -1.9685
v  129.7509 22.0298 -1.9685
v  126.8589 19.5869 -1.9685
v  126.8589 0.0050 -1.9685
v  123.7976 0.0050 -1.9685
v  110.7591 14.2750 -1.9685
v  108.2212 2.4675 -1.9685
v  110.7591 2.4780 -1.9685
v  113.6426 1.7680 -1.9685
v  113.6426 0.0036 -1.9685
v  105.3363 1.7712 -1.9685
v  105.3363 0.0066 -1.9685
v  93.4965 20.1688 -1.9685
v  92.2411 20.3279 -1.9685
v  92.7001 22.4820 -1.9685
v  94.6281 19.6914 -1.9685
v  95.5299 18.9488 -1.9685
v  101.1696 18.0089 -1.9685
v  94.8266 22.2620 -1.9685
v  97.1365 21.5654 -1.9685
v  99.3731 20.1721 -1.9685
v  96.5378 17.4458 -1.9685
v  97.2273 15.4655 -1.9685
v  97.5986 13.3791 -1.9685
v  97.7401 10.9921 -1.9685
v  97.6517 8.7465 -1.9685
v  97.2273 6.4302 -1.9685
v  102.3062 15.6624 -1.9685
v  102.9295 13.0225 -1.9685
v  102.5629 7.0095 -1.9685
v  102.9662 9.8694 -1.9685
v  101.7196 4.9197 -1.9685
v  100.3263 2.8298 -1.9685
v  96.4399 0.1899 -1.9685
v  98.4198 1.1799 -1.9685
v  96.6615 4.8212 -1.9685
v  95.7951 3.4066 -1.9685
v  94.7696 2.4695 -1.9685
v  93.9386 2.0452 -1.9685
v  93.1075 1.7976 -1.9685
v  92.3335 1.7176 -1.9685
v  94.3133 -0.2867 -1.9685
v  92.3335 -0.4700 -1.9685
v  91.3020 1.7667 -1.9685
v  90.1724 2.0982 -1.9685
v  88.7932 3.0884 -1.9685
v  84.5606 2.2065 -1.9685
v  90.4451 -0.3427 -1.9685
v  88.5203 0.0066 -1.9685
v  86.5771 0.7766 -1.9685
v  87.7500 4.5913 -1.9685
v  87.0427 6.5717 -1.9685
v  86.7244 8.6934 -1.9685
v  86.5830 11.1158 -1.9685
v  86.7244 13.6266 -1.9685
v  84.9639 20.2454 -1.9685
v  82.9473 4.3330 -1.9685
v  81.9574 6.5329 -1.9685
v  81.3341 11.6659 -1.9685
v  81.3708 9.2827 -1.9685
v  81.5907 14.2325 -1.9685
v  82.3607 16.6523 -1.9685
v  83.5340 18.5955 -1.9685
v  87.1488 15.7838 -1.9685
v  87.8384 17.6403 -1.9685
v  88.8109 18.9841 -1.9685
v  89.9602 19.8152 -1.9685
v  91.2156 20.2219 -1.9685
v  86.7604 21.3821 -1.9685
v  88.4837 22.0420 -1.9685
v  90.6102 22.4453 -1.9685
v  70.8321 19.5793 -1.9685
v  67.9374 20.2742 -1.9685
v  67.9374 22.0376 -1.9685
v  78.8576 20.2739 -1.9685
v  78.8576 22.0376 -1.9685
v  75.9625 19.5813 -1.9685
v  70.8321 2.4604 -1.9685
v  75.9625 2.4631 -1.9685
v  78.8563 0.0069 -1.9685
v  78.8563 1.7693 -1.9685
v  67.9469 1.7699 -1.9685
v  67.9469 0.0066 -1.9685
v  50.0518 19.6163 -1.9685
v  48.7638 15.3666 -1.9685
v  46.8718 15.3666 -1.9685
v  46.8718 22.0348 -1.9685
v  53.9830 19.6163 -1.9685
v  59.1177 19.6103 -1.9685
v  66.2240 22.0348 -1.9685
v  66.2240 15.3620 -1.9685
v  64.3094 15.3620 -1.9685
v  63.0159 19.6103 -1.9685
v  53.9830 2.4599 -1.9685
v  59.1177 2.4708 -1.9685
v  62.0134 1.7647 -1.9685
v  62.0134 0.0150 -1.9685
v  51.0883 1.7691 -1.9685
v  51.0883 0.0066 -1.9685
v  43.2078 2.4929 -1.9685
v  46.2284 1.7692 -1.9685
v  46.2284 0.0078 -1.9685
v  35.5602 1.7661 -1.9685
v  35.5602 0.0078 -1.9685
v  37.7843 2.3061 -1.9685
v  36.4435 6.0801 -1.9685
v  35.6647 8.2452 -1.9685
v  33.2063 14.9550 -1.9685
v  36.1593 22.1922 -1.9685
v  25.8983 2.4903 -1.9685
v  33.4204 22.1922 -1.9685
v  30.6831 8.2512 -1.9685
v  29.8381 6.0801 -1.9685
v  28.4162 2.3984 -1.9685
v  31.0561 0.0143 -1.9685
v  31.0561 1.7640 -1.9685
v  22.8184 1.7666 -1.9685
v  22.8184 0.0066 -1.9685
v  6.2575 19.6163 -1.9685
v  4.9695 15.3666 -1.9685
v  3.0775 15.3666 -1.9685
v  3.0775 22.0348 -1.9685
v  10.1887 19.6163 -1.9685
v  15.3233 19.6103 -1.9685
v  22.4297 22.0348 -1.9685
v  22.4297 15.3620 -1.9685
v  20.5151 15.3620 -1.9685
v  19.2216 19.6103 -1.9685
v  10.1887 2.4599 -1.9685
v  15.3233 2.4708 -1.9685
v  18.2191 1.7647 -1.9685
v  18.2191 0.0150 -1.9685
v  7.2940 1.7691 -1.9685
v  7.2940 0.0066 -1.9685
v  -13.8145 0.5523 -1.9685
v  -15.0424 1.0213 -1.9685
v  -15.0424 6.8031 -1.9685
v  -9.8558 -0.3191 -1.9685
v  -13.2743 6.8031 -1.9685
v  -11.6899 2.4119 -1.9685
v  -7.1263 8.6638 -1.9685
v  -10.5746 10.3930 -1.9685
v  -12.4982 11.7437 -1.9685
v  -4.8548 7.4871 -1.9685
v  -14.0024 13.5241 -1.9685
v  -14.5958 15.0691 -1.9685
v  -14.7084 17.8523 -1.9685
v  -14.7902 16.5324 -1.9685
v  -3.8418 6.6583 -1.9685
v  -14.3093 19.0392 -1.9685
v  -13.5726 20.1239 -1.9685
v  -11.1885 21.7815 -1.9685
v  -12.5085 21.0550 -1.9685
v  -9.6230 22.2726 -1.9685
v  -8.1393 22.4670 -1.9685
v  -5.1924 22.4363 -1.9685
v  -6.7375 22.5080 -1.9685
v  -8.2001 19.9747 -1.9685
v  -2.8800 22.1703 -1.9685
v  -1.0791 21.7712 -1.9685
v  -0.2708 15.7458 -1.9685
v  -0.2708 21.5359 -1.9685
v  -2.0020 15.7458 -1.9685
v  -3.5672 19.9605 -1.9685
v  -4.6331 20.1453 -1.9685
v  -5.6776 20.2448 -1.9685
v  -6.9424 20.1950 -1.9685
v  -9.2305 19.5910 -1.9685
v  -10.0476 19.0226 -1.9685
v  -10.4384 18.3546 -1.9685
v  -10.5450 17.6512 -1.9685
v  -10.3887 16.9548 -1.9685
v  -9.9055 16.2300 -1.9685
v  1.1225 6.0618 -1.9685
v  -7.3403 14.6881 -1.9685
v  -3.2972 12.7483 -1.9685
v  -1.2863 11.3484 -1.9685
v  -8.8894 15.4911 -1.9685
v  -0.0712 10.0623 -1.9685
v  0.6749 8.6909 -1.9685
v  1.0657 7.1632 -1.9685
v  -3.2483 5.7169 -1.9685
v  -3.1255 4.8370 -1.9685
v  -3.3404 3.9161 -1.9685
v  -3.9237 3.1691 -1.9685
v  -4.8446 2.6166 -1.9685
v  -5.2868 -0.3049 -1.9685
v  0.9946 4.7401 -1.9685
v  0.6820 3.6246 -1.9685
v  -0.4549 1.8623 -1.9685
v  0.2343 2.7292 -1.9685
v  -1.2579 1.1589 -1.9685
v  -2.2669 0.5478 -1.9685
v  -3.5459 0.0646 -1.9685
v  -6.6761 2.0538 -1.9685
v  -8.7430 1.9310 -1.9685
v  -10.2676 2.0640 -1.9685
v  -7.2906 -0.4612 -1.9685
v  -11.8363 0.0066 -1.9685
v  -45.8895 19.5764 -1.9685
v  -48.7715 20.2756 -1.9685
v  -48.7715 22.0321 -1.9685
v  -29.8620 7.2764 -1.9685
v  -43.3554 22.0321 -1.9685
v  -29.8620 19.5747 -1.9685
v  -32.7533 20.2739 -1.9685
v  -32.7533 22.0298 -1.9685
v  -24.3597 20.2761 -1.9685
v  -24.3597 22.0298 -1.9685
v  -27.2517 19.5869 -1.9685
v  -27.2517 0.0050 -1.9685
v  -30.3131 0.0050 -1.9685
v  -43.3515 14.2750 -1.9685
v  -45.8895 2.4675 -1.9685
v  -43.3515 2.4780 -1.9685
v  -40.4680 1.7680 -1.9685
v  -40.4680 0.0036 -1.9685
v  -48.7744 1.7712 -1.9685
v  -48.7744 0.0066 -1.9685
v  -58.8597 19.5793 -1.9685
v  -61.7544 20.2742 -1.9685
v  -61.7544 22.0376 -1.9685
v  -50.8342 20.2739 -1.9685
v  -50.8342 22.0376 -1.9685
v  -53.7292 19.5813 -1.9685
v  -58.8597 2.4604 -1.9685
v  -53.7292 2.4631 -1.9685
v  -50.8355 0.0069 -1.9685
v  -50.8355 1.7693 -1.9685
v  -61.7448 1.7699 -1.9685
v  -61.7448 0.0066 -1.9685
v  -65.7830 2.4929 -1.9685
v  -62.7624 1.7692 -1.9685
v  -62.7624 0.0078 -1.9685
v  -73.4306 1.7661 -1.9685
v  -73.4306 0.0078 -1.9685
v  -71.2065 2.3061 -1.9685
v  -72.5473 6.0801 -1.9685
v  -73.3262 8.2452 -1.9685
v  -75.7845 14.9550 -1.9685
v  -72.8316 22.1922 -1.9685
v  -83.0925 2.4903 -1.9685
v  -75.5704 22.1922 -1.9685
v  -78.3078 8.2512 -1.9685
v  -79.1527 6.0801 -1.9685
v  -80.5746 2.3984 -1.9685
v  -77.9347 0.0143 -1.9685
v  -77.9347 1.7640 -1.9685
v  -86.1725 1.7666 -1.9685
v  -86.1725 0.0066 -1.9685
v  -99.2341 2.4768 -1.9685
v  -96.4970 1.7520 -1.9685
v  -96.4970 0.0040 -1.9685
v  -107.2595 1.7677 -1.9685
v  -107.2595 0.0066 -1.9685
v  -104.3692 2.4565 -1.9685
v  -99.2341 9.5345 -1.9685
v  -99.2341 11.7512 -1.9685
v  -99.2341 19.7439 -1.9685
v  -104.3692 19.5865 -1.9685
v  -107.2597 22.0381 -1.9685
v  -107.2597 20.2716 -1.9685
v  -97.9552 19.7316 -1.9685
v  -96.9642 19.6082 -1.9685
v  -96.0669 22.0381 -1.9685
v  -96.0513 19.3492 -1.9685
v  -95.1878 18.8722 -1.9685
v  -94.4417 18.1048 -1.9685
v  -93.9585 17.1384 -1.9685
v  -93.8568 21.7199 -1.9685
v  -91.7881 20.9949 -1.9685
v  -89.1359 18.3251 -1.9685
v  -90.2675 19.9871 -1.9685
v  -88.7115 16.9282 -1.9685
v  -88.7115 15.1955 -1.9685
v  -89.9846 12.2604 -1.9685
v  -89.1359 13.6572 -1.9685
v  -93.8093 16.2289 -1.9685
v  -93.8377 15.2625 -1.9685
v  -94.1290 14.0971 -1.9685
v  -94.6691 13.2089 -1.9685
v  -91.2930 11.1288 -1.9685
v  -92.9021 10.3919 -1.9685
v  -98.1327 9.5345 -1.9685
v  -88.4981 2.4210 -1.9685
v  -85.4796 1.6707 -1.9685
v  -85.4796 0.0079 -1.9685
v  -93.1154 0.0079 -1.9685
v  -95.3796 12.5410 -1.9685
v  -96.4810 12.0081 -1.9685
v  -97.8169 11.7594 -1.9685
v  -125.1662 19.6163 -1.9685
v  -126.4542 15.3666 -1.9685
v  -128.3462 15.3666 -1.9685
v  -128.3462 22.0348 -1.9685
v  -121.2350 19.6163 -1.9685
v  -116.1003 19.6103 -1.9685
v  -108.9940 22.0348 -1.9685
v  -108.9940 15.3620 -1.9685
v  -110.9086 15.3620 -1.9685
v  -112.2021 19.6103 -1.9685
v  -121.2350 2.4599 -1.9685
v  -116.1003 2.4708 -1.9685
v  -113.2046 1.7647 -1.9685
v  -113.2046 0.0150 -1.9685
v  -124.1297 1.7691 -1.9685
v  -124.1297 0.0066 -1.9685
v  105.3363 0.0066 1.9685
v  113.6426 0.0036 1.9685
v  113.6426 1.7680 1.9685
v  108.2212 2.4675 1.9685
v  110.7591 14.2750 1.9685
v  123.7976 0.0050 1.9685
v  126.8589 0.0050 1.9685
v  124.2487 7.2764 1.9685
v  126.8589 19.5869 1.9685
v  129.7509 20.2761 1.9685
v  129.7509 22.0298 1.9685
v  121.3574 20.2739 1.9685
v  121.3574 22.0298 1.9685
v  124.2487 19.5747 1.9685
v  110.7553 22.0321 1.9685
v  105.3391 22.0321 1.9685
v  108.2212 19.5764 1.9685
v  105.3391 20.2756 1.9685
v  110.7591 2.4780 1.9685
v  105.3363 1.7712 1.9685
v  92.3335 -0.4700 1.9685
v  94.3133 -0.2867 1.9685
v  96.4399 0.1899 1.9685
v  100.3263 2.8298 1.9685
v  98.4198 1.1799 1.9685
v  101.7196 4.9197 1.9685
v  102.5629 7.0095 1.9685
v  102.9295 13.0225 1.9685
v  102.9662 9.8694 1.9685
v  102.3062 15.6624 1.9685
v  101.1696 18.0089 1.9685
v  97.1365 21.5654 1.9685
v  99.3731 20.1721 1.9685
v  97.2273 15.4655 1.9685
v  94.8266 22.2620 1.9685
v  92.7001 22.4820 1.9685
v  93.4965 20.1688 1.9685
v  92.2411 20.3279 1.9685
v  94.6281 19.6914 1.9685
v  95.5299 18.9488 1.9685
v  96.5378 17.4458 1.9685
v  97.5986 13.3791 1.9685
v  97.7401 10.9921 1.9685
v  97.6517 8.7465 1.9685
v  97.2273 6.4302 1.9685
v  96.6615 4.8212 1.9685
v  95.7951 3.4066 1.9685
v  94.7696 2.4695 1.9685
v  93.9386 2.0452 1.9685
v  93.1075 1.7976 1.9685
v  92.3335 1.7176 1.9685
v  90.6102 22.4453 1.9685
v  88.4837 22.0420 1.9685
v  84.9639 20.2454 1.9685
v  86.7604 21.3821 1.9685
v  83.5340 18.5955 1.9685
v  82.3607 16.6523 1.9685
v  81.3341 11.6659 1.9685
v  81.5907 14.2325 1.9685
v  81.3708 9.2827 1.9685
v  81.9574 6.5329 1.9685
v  84.5606 2.2065 1.9685
v  82.9473 4.3330 1.9685
v  87.0427 6.5717 1.9685
v  86.5771 0.7766 1.9685
v  88.5203 0.0066 1.9685
v  90.4451 -0.3427 1.9685
v  91.3020 1.7667 1.9685
v  90.1724 2.0982 1.9685
v  88.7932 3.0884 1.9685
v  87.7500 4.5913 1.9685
v  86.7244 8.6934 1.9685
v  86.5830 11.1158 1.9685
v  86.7244 13.6266 1.9685
v  87.1488 15.7838 1.9685
v  87.8384 17.6403 1.9685
v  88.8109 18.9841 1.9685
v  89.9602 19.8152 1.9685
v  91.2156 20.2219 1.9685
v  67.9469 0.0066 1.9685
v  78.8563 0.0069 1.9685
v  78.8563 1.7693 1.9685
v  70.8321 2.4604 1.9685
v  75.9625 19.5813 1.9685
v  78.8576 20.2739 1.9685
v  78.8576 22.0376 1.9685
v  67.9374 20.2742 1.9685
v  67.9374 22.0376 1.9685
v  70.8321 19.5793 1.9685
v  75.9625 2.4631 1.9685
v  67.9469 1.7699 1.9685
v  51.0883 0.0066 1.9685
v  62.0134 0.0150 1.9685
v  62.0134 1.7647 1.9685
v  53.9830 2.4599 1.9685
v  63.0159 19.6103 1.9685
v  64.3094 15.3620 1.9685
v  66.2240 15.3620 1.9685
v  66.2240 22.0348 1.9685
v  59.1177 19.6103 1.9685
v  53.9830 19.6163 1.9685
v  46.8718 22.0348 1.9685
v  46.8718 15.3666 1.9685
v  48.7638 15.3666 1.9685
v  50.0518 19.6163 1.9685
v  59.1177 2.4708 1.9685
v  51.0883 1.7691 1.9685
v  43.2078 2.4929 1.9685
v  36.1593 22.1922 1.9685
v  33.2063 14.9550 1.9685
v  35.6647 8.2452 1.9685
v  36.4435 6.0801 1.9685
v  37.7843 2.3061 1.9685
v  35.5602 1.7661 1.9685
v  35.5602 0.0078 1.9685
v  46.2284 0.0078 1.9685
v  46.2284 1.7692 1.9685
v  22.8184 0.0066 1.9685
v  31.0561 0.0143 1.9685
v  31.0561 1.7640 1.9685
v  25.8983 2.4903 1.9685
v  29.8381 6.0801 1.9685
v  30.6831 8.2512 1.9685
v  28.4162 2.3984 1.9685
v  33.4204 22.1922 1.9685
v  22.8184 1.7666 1.9685
v  7.2940 0.0066 1.9685
v  18.2191 0.0150 1.9685
v  18.2191 1.7647 1.9685
v  10.1887 2.4599 1.9685
v  19.2216 19.6103 1.9685
v  20.5151 15.3620 1.9685
v  22.4297 15.3620 1.9685
v  22.4297 22.0348 1.9685
v  15.3233 19.6103 1.9685
v  10.1887 19.6163 1.9685
v  3.0775 22.0348 1.9685
v  3.0775 15.3666 1.9685
v  4.9695 15.3666 1.9685
v  6.2575 19.6163 1.9685
v  15.3233 2.4708 1.9685
v  7.2940 1.7691 1.9685
v  -13.8145 0.5523 1.9685
v  -11.8363 0.0066 1.9685
v  -9.8558 -0.3191 1.9685
v  -15.0424 6.8031 1.9685
v  -7.2906 -0.4612 1.9685
v  -5.2868 -0.3049 1.9685
v  -2.2669 0.5478 1.9685
v  -3.5459 0.0646 1.9685
v  -1.2579 1.1589 1.9685
v  -0.4549 1.8623 1.9685
v  0.6820 3.6246 1.9685
v  0.2343 2.7292 1.9685
v  -4.8446 2.6166 1.9685
v  0.9946 4.7401 1.9685
v  1.1225 6.0618 1.9685
v  0.6749 8.6909 1.9685
v  1.0657 7.1632 1.9685
v  -0.0712 10.0623 1.9685
v  -1.2863 11.3484 1.9685
v  -7.3403 14.6881 1.9685
v  -3.2972 12.7483 1.9685
v  -8.8894 15.4911 1.9685
v  -9.9055 16.2300 1.9685
v  -13.5726 20.1239 1.9685
v  -3.5672 19.9605 1.9685
v  -2.0020 15.7458 1.9685
v  -0.2708 15.7458 1.9685
v  -1.0791 21.7712 1.9685
v  -0.2708 21.5359 1.9685
v  -4.6331 20.1453 1.9685
v  -5.6776 20.2448 1.9685
v  -6.9424 20.1950 1.9685
v  -8.2001 19.9747 1.9685
v  -2.8800 22.1703 1.9685
v  -5.1924 22.4363 1.9685
v  -8.1393 22.4670 1.9685
v  -6.7375 22.5080 1.9685
v  -9.6230 22.2726 1.9685
v  -11.1885 21.7815 1.9685
v  -12.5085 21.0550 1.9685
v  -9.2305 19.5910 1.9685
v  -10.0476 19.0226 1.9685
v  -10.4384 18.3546 1.9685
v  -10.5450 17.6512 1.9685
v  -10.3887 16.9548 1.9685
v  -14.3093 19.0392 1.9685
v  -14.7084 17.8523 1.9685
v  -14.5958 15.0691 1.9685
v  -14.7902 16.5324 1.9685
v  -14.0024 13.5241 1.9685
v  -12.4982 11.7437 1.9685
v  -7.1263 8.6638 1.9685
v  -10.5746 10.3930 1.9685
v  -4.8548 7.4871 1.9685
v  -3.8418 6.6583 1.9685
v  -3.2483 5.7169 1.9685
v  -3.1255 4.8370 1.9685
v  -3.3404 3.9161 1.9685
v  -3.9237 3.1691 1.9685
v  -6.6761 2.0538 1.9685
v  -8.7430 1.9310 1.9685
v  -10.2676 2.0640 1.9685
v  -11.6899 2.4119 1.9685
v  -13.2743 6.8031 1.9685
v  -15.0424 1.0213 1.9685
v  -48.7744 0.0066 1.9685
v  -40.4680 0.0036 1.9685
v  -40.4680 1.7680 1.9685
v  -45.8895 2.4675 1.9685
v  -43.3515 14.2750 1.9685
v  -30.3131 0.0050 1.9685
v  -27.2517 0.0050 1.9685
v  -29.8620 7.2764 1.9685
v  -27.2517 19.5869 1.9685
v  -24.3597 20.2761 1.9685
v  -24.3597 22.0298 1.9685
v  -32.7533 20.2739 1.9685
v  -32.7533 22.0298 1.9685
v  -29.8620 19.5747 1.9685
v  -43.3554 22.0321 1.9685
v  -48.7715 22.0321 1.9685
v  -45.8895 19.5764 1.9685
v  -48.7715 20.2756 1.9685
v  -43.3515 2.4780 1.9685
v  -48.7744 1.7712 1.9685
v  -61.7448 0.0066 1.9685
v  -50.8355 0.0069 1.9685
v  -50.8355 1.7693 1.9685
v  -58.8597 2.4604 1.9685
v  -53.7292 19.5813 1.9685
v  -50.8342 20.2739 1.9685
v  -50.8342 22.0376 1.9685
v  -61.7544 20.2742 1.9685
v  -61.7544 22.0376 1.9685
v  -58.8597 19.5793 1.9685
v  -53.7292 2.4631 1.9685
v  -61.7448 1.7699 1.9685
v  -65.7830 2.4929 1.9685
v  -72.8316 22.1922 1.9685
v  -75.7845 14.9550 1.9685
v  -73.3262 8.2452 1.9685
v  -72.5473 6.0801 1.9685
v  -71.2065 2.3061 1.9685
v  -73.4306 1.7661 1.9685
v  -73.4306 0.0078 1.9685
v  -62.7624 0.0078 1.9685
v  -62.7624 1.7692 1.9685
v  -86.1725 0.0066 1.9685
v  -77.9347 0.0143 1.9685
v  -77.9347 1.7640 1.9685
v  -83.0925 2.4903 1.9685
v  -79.1527 6.0801 1.9685
v  -78.3078 8.2512 1.9685
v  -80.5746 2.3984 1.9685
v  -75.5704 22.1922 1.9685
v  -86.1725 1.7666 1.9685
v  -96.0669 22.0381 1.9685
v  -107.2597 22.0381 1.9685
v  -107.2597 20.2716 1.9685
v  -104.3692 19.5865 1.9685
v  -104.3692 2.4565 1.9685
v  -107.2595 1.7677 1.9685
v  -107.2595 0.0066 1.9685
v  -96.4970 1.7520 1.9685
v  -96.4970 0.0040 1.9685
v  -99.2341 2.4768 1.9685
v  -99.2341 9.5345 1.9685
v  -99.2341 11.7512 1.9685
v  -99.2341 19.7439 1.9685
v  -97.9552 19.7316 1.9685
v  -96.9642 19.6082 1.9685
v  -98.1327 9.5345 1.9685
v  -93.1154 0.0079 1.9685
v  -85.4796 0.0079 1.9685
v  -88.4981 2.4210 1.9685
v  -85.4796 1.6707 1.9685
v  -92.9021 10.3919 1.9685
v  -94.6691 13.2089 1.9685
v  -91.2930 11.1288 1.9685
v  -89.9846 12.2604 1.9685
v  -88.7115 15.1955 1.9685
v  -89.1359 13.6572 1.9685
v  -88.7115 16.9282 1.9685
v  -89.1359 18.3251 1.9685
v  -91.7881 20.9949 1.9685
v  -90.2675 19.9871 1.9685
v  -93.8093 16.2289 1.9685
v  -93.8568 21.7199 1.9685
v  -96.0513 19.3492 1.9685
v  -95.1878 18.8722 1.9685
v  -94.4417 18.1048 1.9685
v  -93.9585 17.1384 1.9685
v  -93.8377 15.2625 1.9685
v  -94.1290 14.0971 1.9685
v  -95.3796 12.5410 1.9685
v  -96.4810 12.0081 1.9685
v  -97.8169 11.7594 1.9685
v  -124.1297 0.0066 1.9685
v  -113.2046 0.0150 1.9685
v  -113.2046 1.7647 1.9685
v  -121.2350 2.4599 1.9685
v  -112.2021 19.6103 1.9685
v  -110.9086 15.3620 1.9685
v  -108.9940 15.3620 1.9685
v  -108.9940 22.0348 1.9685
v  -116.1003 19.6103 1.9685
v  -121.2350 19.6163 1.9685
v  -128.3462 22.0348 1.9685
v  -128.3462 15.3666 1.9685
v  -126.4542 15.3666 1.9685
v  -125.1662 19.6163 1.9685
v  -116.1003 2.4708 1.9685
v  -124.1297 1.7691 1.9685
# 630 vertices

vn -0.0000 0.0000 -1.0000
vn 0.0000 0.0000 -1.0000
vn 0.0000 -0.0000 -1.0000
vn -0.0000 -0.0000 -1.0000
vn 0.0000 -0.0000 1.0000
vn -0.0000 -0.0000 1.0000
vn 0.0000 0.0000 1.0000
vn -0.0000 0.0000 1.0000
vn -0.7382 -0.6745 -0.0000
vn 1.0000 0.0000 -0.0000
vn -0.0004 -1.0000 -0.0000
vn 0.0009 -1.0000 -0.0000
vn -0.3684 -0.9297 -0.0000
vn 0.2391 0.9710 0.0000
vn -0.5784 -0.8157 -0.0000
vn 0.9359 -0.3523 -0.0000
vn -0.7967 -0.6044 -0.0000
vn -0.9390 -0.3440 -0.0000
vn -0.9119 -0.4104 -0.0000
vn -1.0000 0.0000 -0.0000
vn 0.0012 1.0000 0.0000
vn -0.9780 -0.2086 -0.0000
vn -0.2327 0.9725 0.0000
vn -0.9999 -0.0154 -0.0000
vn -0.9950 0.0995 0.0000
vn -0.2334 -0.9724 -0.0000
vn -0.9529 0.3032 0.0000
vn -0.2321 0.9727 0.0000
vn -0.8561 0.5169 0.0000
vn 0.0000 1.0000 0.0000
vn -0.7557 0.6549 0.0000
vn 0.0000 -1.0000 -0.0000
vn -0.5346 0.8451 0.0000
vn 0.2327 -0.9726 -0.0000
vn 0.9570 -0.2901 -0.0000
vn -0.3576 0.9339 0.0000
vn -0.1863 0.9825 0.0000
vn 0.2332 0.9724 0.0000
vn -0.0175 0.9998 0.0000
vn 0.1029 0.9947 0.0000
vn 0.2887 0.9574 0.0000
vn 0.5287 0.8488 0.0000
vn -0.2288 0.9735 0.0000
vn -0.9566 -0.2913 -0.0000
vn 0.7693 0.6389 0.0000
vn -0.9342 0.3567 0.0000
vn 0.9000 0.4359 0.0000
vn 0.9732 0.2298 0.0000
vn 0.9415 0.3369 0.0000
vn 0.2369 0.9715 0.0000
vn 0.9999 0.0116 0.0000
vn 0.2330 0.9725 0.0000
vn 0.9902 -0.1396 -0.0000
vn 0.0008 -1.0000 -0.0000
vn 0.9273 -0.3742 -0.0000
vn -0.2659 -0.9640 -0.0000
vn 0.8321 -0.5547 -0.0000
vn -0.3568 -0.9342 -0.0000
vn 0.6544 -0.7562 -0.0000
vn -0.2360 0.9718 0.0000
vn 0.4472 -0.8944 -0.0000
vn -0.9423 -0.3348 -0.0000
vn 0.2187 -0.9758 -0.0000
vn 0.9406 0.3394 0.0000
vn 0.0922 -0.9957 -0.0000
vn 0.9328 -0.3603 -0.0000
vn 0.2376 0.9714 0.0000
vn -0.0673 -0.9977 -0.0000
vn 0.2337 0.9723 0.0000
vn 0.0869 0.9962 0.0000
vn -0.1786 -0.9839 -0.0000
vn -0.0593 0.9982 0.0000
vn -0.2937 0.9559 -0.0000
vn 0.0476 0.9989 0.0000
vn -0.5145 0.8575 -0.0000
vn 0.2816 0.9595 0.0000
vn -0.7882 0.6154 -0.0000
vn 0.5832 0.8123 0.0000
vn -0.9738 0.2272 -0.0000
vn 0.8215 0.5702 0.0000
vn -0.9904 -0.1382 -0.0000
vn 0.9417 0.3363 0.0000
vn -0.8459 -0.5333 -0.0000
vn 0.9889 0.1483 0.0000
vn -0.6332 -0.7740 -0.0000
vn 0.9983 0.0583 0.0000
vn -0.4600 -0.8879 -0.0000
vn 0.9984 -0.0562 -0.0000
vn -0.2318 0.9728 0.0000
vn -0.4483 -0.8939 -0.0000
vn 0.9812 -0.1930 -0.0000
vn -0.5746 -0.8184 -0.0000
vn 0.9374 -0.3482 -0.0000
vn -0.2306 -0.9730 -0.0000
vn -0.7639 -0.6454 -0.0000
vn 0.8101 -0.5863 -0.0000
vn -0.9335 -0.3586 -0.0000
vn 0.5859 -0.8104 -0.0000
vn -0.9913 -0.1317 -0.0000
vn 0.3082 -0.9513 -0.0000
vn 0.1425 0.9898 0.0000
vn -0.9981 0.0619 0.0000
vn 0.1029 -0.9947 -0.0000
vn 0.3307 0.9437 0.0000
vn -0.9479 0.3187 0.0000
vn -0.1258 -0.9921 -0.0000
vn 0.5525 0.8335 0.0000
vn -0.8272 0.5619 0.0000
vn -0.3887 -0.9214 -0.0000
vn 0.8266 0.5628 0.0000
vn -0.6585 0.7526 0.0000
vn -0.6357 -0.7719 -0.0000
vn 0.9568 0.2907 0.0000
vn -0.4822 0.8761 0.0000
vn -0.8305 -0.5570 -0.0000
vn -0.2993 0.9541 0.0000
vn -0.9444 -0.3289 -0.0000
vn 0.9640 -0.2659 -0.0000
vn -0.1299 0.9915 0.0000
vn -0.9845 -0.1752 -0.0000
vn 0.8546 -0.5193 -0.0000
vn -0.0292 0.9996 0.0000
vn -0.9982 -0.0592 -0.0000
vn 0.6542 -0.7564 -0.0000
vn 0.0463 0.9989 0.0000
vn -0.9992 0.0393 0.0000
vn 0.4164 -0.9092 -0.0000
vn 0.1143 0.9934 0.0000
vn -0.9836 0.1802 0.0000
vn 0.8753 0.4836 0.0000
vn 0.2163 0.9763 0.0000
vn -0.9434 0.3317 0.0000
vn 0.2412 0.9705 0.0000
vn 0.2795 0.9601 0.0000
vn -0.8528 0.5223 0.0000
vn 1.0000 -0.0000 0.0000
vn -0.6746 0.7382 0.0000
vn -0.4548 0.8906 0.0000
vn -0.8848 -0.4660 -0.0000
vn -0.9374 -0.3481 -0.0000
vn -0.2855 0.9584 0.0000
vn -0.1708 -0.9853 -0.0000
vn -0.1029 0.9947 0.0000
vn -0.0948 -0.9955 -0.0000
vn 0.2560 0.9667 0.0000
vn 0.0393 -0.9992 -0.0000
vn 0.1725 -0.9850 -0.0000
vn -0.0002 -1.0000 -0.0000
vn 0.3490 -0.9371 -0.0000
vn 0.5711 -0.8209 -0.0000
vn 0.8631 -0.5050 -0.0000
vn -0.0096 -1.0000 -0.0000
vn 0.9887 -0.1498 -0.0000
vn -0.1235 -0.9923 -0.0000
vn 0.9757 0.2190 0.0000
vn -0.2730 -0.9620 -0.0000
vn 0.8321 0.5547 0.0000
vn -0.4835 -0.8753 -0.0000
vn 0.5882 0.8087 0.0000
vn -0.7170 -0.6971 -0.0000
vn 0.4602 0.8878 0.0000
vn -0.8944 -0.4472 -0.0000
vn 0.4326 0.9016 0.0000
vn -0.9868 -0.1619 -0.0000
vn 0.5713 0.8207 0.0000
vn -0.9996 0.0294 0.0000
vn 0.7269 0.6867 0.0000
vn -0.9701 0.2425 0.0000
vn 0.8784 0.4779 0.0000
vn -0.8545 0.5195 0.0000
vn 0.9688 0.2478 0.0000
vn -0.6849 0.7286 0.0000
vn 0.9987 0.0515 0.0000
vn -0.4356 0.9002 0.0000
vn 0.9954 -0.0963 0.0000
vn -0.1830 0.9831 0.0000
vn 0.9629 -0.2699 0.0000
vn -0.0058 1.0000 0.0000
vn 0.8944 -0.4472 0.0000
vn 0.7827 -0.6223 0.0000
vn 0.6590 -0.7522 0.0000
vn 0.5180 -0.8554 -0.0000
vn 0.3534 -0.9355 -0.0000
vn 0.2076 -0.9782 -0.0000
vn 0.0778 -0.9970 -0.0000
vn -0.2346 0.9721 0.0000
vn -0.0553 -0.9985 -0.0000
vn -0.1623 -0.9867 -0.0000
vn -0.2358 -0.9718 -0.0000
vn 0.7380 0.6748 0.0000
vn -0.2351 -0.9720 -0.0000
vn 0.2318 -0.9728 -0.0000
# 192 vertex normals

g SPW_Urban_Text_Train_Station
usemtl SPW_Urban_Text
s off
f 1//1 2//1 3//1 4//1 
f 3//2 5//2 4//2 
f 6//2 7//2 8//2 9//2 
f 8//3 10//3 9//3 
f 6//2 9//2 11//2 4//2 
f 11//2 12//2 13//2 4//2 
f 1//1 4//1 13//1 14//1 
f 15//2 1//2 14//2 16//2 
f 16//1 17//1 18//1 15//1 
f 19//2 15//2 18//2 20//2 
s 1
f 21//1 22//1 23//2 24//2 
f 25//2 24//2 23//2 26//2 
f 23//2 27//2 28//2 26//2 
f 28//2 29//4 26//2 
f 30//2 25//2 26//2 31//2 
f 32//2 31//2 26//2 33//2 
f 34//3 33//2 26//2 35//3 
f 26//2 36//1 37//1 38//1 
f 37//1 39//2 38//1 
f 38//1 40//1 41//2 42//3 
f 41//2 43//1 42//3 
f 26//2 38//1 42//3 35//3 
f 44//3 35//3 42//3 45//3 
f 46//3 45//3 42//3 47//3 
f 48//4 47//3 42//3 49//4 
f 49//4 42//3 50//2 51//2 
f 52//1 49//4 51//2 53//2 
f 54//2 53//2 51//2 55//2 
f 51//2 56//4 57//2 55//2 
f 57//2 58//4 55//2 
f 59//2 54//2 55//2 60//2 
f 61//2 60//2 55//2 62//2 
f 63//2 62//2 55//2 64//1 
f 55//2 65//4 66//1 67//1 
f 66//1 68//2 67//1 
f 67//1 69//1 70//3 64//1 
f 70//3 71//3 64//1 
f 55//2 67//1 64//1 
f 72//1 63//2 64//1 73//1 
f 74//4 73//1 64//1 75//1 
f 76//4 75//1 64//1 22//1 
f 64//1 77//1 78//1 22//1 
f 22//1 78//1 79//1 23//2 
s off
f 80//1 81//1 82//1 83//1 
f 82//3 84//3 83//3 
f 80//2 83//2 85//2 86//2 
f 86//2 85//2 87//2 88//2 
f 87//4 89//4 88//4 
f 90//2 86//2 88//2 91//2 
f 92//2 93//2 94//2 95//2 
f 96//2 92//2 95//2 97//2 
f 98//1 99//1 100//1 101//1 
f 95//3 98//3 101//3 97//3 
f 102//2 96//2 97//2 103//2 
f 103//2 104//2 105//2 102//2 
f 106//2 102//2 105//2 107//2 
s 1
f 108//2 109//4 110//1 111//2 
f 110//1 112//3 111//2 
f 108//2 111//2 113//2 114//1 
f 108//2 114//1 115//1 116//3 
f 108//2 116//3 117//2 
f 118//3 119//2 117//2 116//3 
f 116//3 120//1 121//3 122//2 
f 118//3 116//3 122//2 123//2 
f 122//2 124//4 123//2 
f 125//3 118//3 123//2 126//3 
f 114//1 121//3 120//1 115//1 
s off
f 127//2 128//2 129//2 130//2 
f 131//2 127//2 130//2 132//2 
f 133//1 134//1 135//1 136//1 
f 130//3 133//3 136//3 132//3 
f 137//2 131//2 132//2 138//2 
f 138//2 139//2 140//2 137//2 
f 141//2 137//2 140//2 142//2 
f 143//2 144//2 145//2 146//2 
f 145//4 147//4 148//4 146//4 
f 149//2 150//2 151//2 152//2 
f 151//1 153//1 154//1 155//1 
f 154//2 156//2 155//2 
f 152//2 151//2 155//2 157//2 
f 155//2 158//2 159//2 160//2 
f 159//3 161//3 160//3 
f 160//3 162//3 163//3 164//3 
f 163//2 165//2 164//2 
f 155//3 160//3 164//3 166//3 
f 164//2 167//2 168//2 169//2 
f 168//1 170//1 169//1 
f 169//4 171//4 172//4 164//4 
f 164//4 172//4 173//4 174//4 
f 164//3 174//3 175//3 166//3 
f 155//2 166//2 176//2 177//2 
f 155//3 177//3 178//3 179//3 
f 155//2 179//2 180//2 157//2 
f 157//2 180//2 181//2 182//2 
f 183//4 184//4 185//4 186//4 
f 185//2 187//2 188//2 182//2 
f 188//1 189//1 182//1 
f 186//4 185//4 182//4 181//4 
f 190//2 157//2 182//2 191//2 
f 192//2 191//2 182//2 193//2 
f 194//3 193//3 182//3 195//3 
f 182//3 196//3 197//3 198//3 
f 197//3 199//3 198//3 
f 198//3 200//3 201//3 195//3 
f 201//2 202//2 195//2 
f 182//2 198//2 195//2 
f 203//3 194//3 195//3 204//3 
f 205//4 204//4 195//4 148//4 
f 195//4 206//4 146//4 148//4 
f 143//2 146//2 207//2 
f 208//1 209//1 210//1 211//1 
f 210//2 212//2 211//2 
f 213//2 214//2 215//2 216//2 
f 215//3 217//3 216//3 
f 213//2 216//2 218//2 211//2 
f 218//2 219//2 220//2 211//2 
f 208//1 211//1 220//1 221//1 
f 222//2 208//2 221//2 223//2 
f 223//1 224//1 225//1 222//1 
f 226//2 222//2 225//2 227//2 
f 228//1 229//1 230//1 231//1 
f 230//3 232//3 231//3 
f 228//2 231//2 233//2 234//2 
f 234//2 233//2 235//2 236//2 
f 235//4 237//4 236//4 
f 238//2 234//2 236//2 239//2 
s 1
f 240//2 241//4 242//1 243//2 
f 242//1 244//3 243//2 
f 240//2 243//2 245//2 246//1 
f 240//2 246//1 247//1 248//3 
f 240//2 248//3 249//2 
f 250//3 251//2 249//2 248//3 
f 248//3 252//1 253//3 254//2 
f 250//3 248//3 254//2 255//2 
f 254//2 256//4 255//2 
f 257//3 250//3 255//2 258//3 
f 246//1 253//3 252//1 247//1 
f 259//2 260//4 261//2 262//3 
f 261//2 263//3 262//3 
f 259//2 262//3 264//3 265//2 
f 266//2 265//2 264//3 267//3 
f 267//3 264//3 268//2 269//1 
f 268//2 270//4 269//1 
f 271//4 267//3 269//1 272//4 
f 272//4 269//1 273//4 
f 274//4 272//4 273//4 275//3 
f 276//4 275//3 273//4 277//4 
f 273//4 278//2 279//1 280//1 
f 279//1 281//4 280//1 
f 280//1 282//1 283//1 284//1 
f 283//1 285//4 284//1 
f 273//4 280//1 284//1 277//4 
f 286//4 277//4 284//1 287//1 
f 288//1 287//1 284//1 289//1 
f 284//1 290//4 291//4 292//1 
f 293//4 294//2 295//3 292//1 
f 295//3 296//2 292//1 
f 291//4 293//4 292//1 
f 289//1 284//1 292//1 297//1 
f 298//2 297//1 292//1 299//1 
f 266//2 299//1 292//1 265//2 
s off
f 300//2 301//2 302//2 303//2 
f 304//2 300//2 303//2 305//2 
f 306//1 307//1 308//1 309//1 
f 303//3 306//3 309//3 305//3 
f 310//2 304//2 305//2 311//2 
f 311//2 312//2 313//2 310//2 
f 314//2 310//2 313//2 315//2 
f 316//5 317//5 318//5 319//5 
f 320//5 321//5 322//5 323//5 
f 324//6 325//6 326//6 327//6 
f 326//7 328//7 327//7 
f 324//6 327//6 329//6 322//6 
f 322//6 329//6 323//6 
f 323//5 330//5 331//5 332//5 
f 331//7 333//7 332//7 
f 320//6 323//6 332//6 334//6 
f 334//6 332//6 319//6 318//6 
f 335//8 316//8 319//8 
s 1
f 336//7 337//5 338//6 339//8 
f 338//6 340//5 339//8 
f 339//8 341//5 342//5 343//5 
f 342//5 344//6 343//5 
f 343//5 345//5 346//6 347//6 
f 346//6 348//7 347//6 
f 339//8 343//5 347//6 349//6 
f 347//6 350//6 351//5 352//5 
f 351//5 353//5 352//5 
f 347//6 352//5 354//6 355//6 
f 347//6 355//6 356//6 349//6 
f 339//8 349//6 357//6 358//6 
f 339//8 358//6 359//6 360//8 
f 339//8 360//8 361//8 362//8 
f 336//7 339//8 362//8 363//8 
f 336//7 363//8 364//8 365//7 
f 366//5 336//7 365//7 
f 351//5 367//8 368//5 369//6 
f 368//5 370//5 369//6 
f 369//6 371//8 372//8 373//5 
f 372//8 374//5 373//5 
f 373//5 375//6 376//5 377//6 
f 376//5 378//5 377//6 
f 369//6 373//5 377//6 379//6 
f 377//6 380//7 381//6 336//7 
f 381//6 382//7 336//7 
f 336//7 366//5 383//5 384//6 
f 377//6 336//7 384//6 385//6 
f 377//6 385//6 386//6 379//6 
f 369//6 379//6 387//7 388//5 
f 369//6 388//5 389//5 390//5 
f 369//6 390//5 391//5 392//5 
f 351//5 369//6 392//5 393//5 
f 351//5 393//5 394//5 353//5 
s off
f 395//5 396//5 397//5 398//5 
f 399//5 400//5 401//5 402//5 
f 401//7 403//7 402//7 
f 399//6 402//6 404//6 405//6 
f 405//6 404//6 398//6 397//6 
f 406//8 395//8 398//8 
f 407//6 408//6 409//6 410//6 
f 411//5 412//5 413//5 414//5 
f 415//8 411//8 414//8 416//8 
f 417//6 418//6 419//6 420//6 
f 414//5 417//5 420//5 416//5 
f 421//6 415//6 416//6 410//6 
f 409//6 421//6 410//6 
f 422//8 407//8 410//8 
s 1
f 423//5 424//5 425//6 426//5 
f 423//5 426//5 427//6 428//6 
f 428//6 429//8 430//6 423//5 
f 423//5 430//6 431//5 432//7 
f 433//8 434//8 435//6 436//8 
f 437//8 438//8 425//6 439//6 
f 425//6 424//5 440//6 436//8 
f 439//6 425//6 436//8 435//6 
f 441//8 433//8 436//8 
f 427//6 426//5 438//8 437//8 
s off
f 442//6 443//6 444//6 445//6 
f 446//5 447//5 448//5 449//5 
f 450//8 446//8 449//8 451//8 
f 452//6 453//6 454//6 455//6 
f 449//5 452//5 455//5 451//5 
f 456//6 450//6 451//6 445//6 
f 444//6 456//6 445//6 
f 457//8 442//8 445//8 
f 458//6 459//6 460//6 461//6 
f 460//5 462//5 463//5 464//5 
f 463//5 465//5 464//5 
f 464//5 466//5 467//5 468//5 
f 467//8 469//8 468//8 
f 460//7 464//7 468//7 470//7 
f 468//7 471//7 472//7 473//7 
f 472//5 474//5 473//5 
f 473//6 475//6 476//6 477//6 
f 476//7 478//7 477//7 
f 468//7 473//7 477//7 479//7 
f 468//6 479//6 480//6 481//6 
f 482//6 483//6 484//6 485//6 
f 484//5 486//5 485//5 
f 487//5 482//5 485//5 488//5 
f 489//6 488//6 485//6 490//6 
f 485//6 491//6 492//6 493//6 
f 492//6 494//6 493//6 
f 493//8 495//8 496//8 481//8 
f 496//8 497//8 481//8 
f 485//8 493//8 481//8 490//8 
f 498//6 490//6 481//6 499//6 
f 500//8 499//8 481//8 501//8 
f 502//6 501//6 481//6 480//6 
f 481//8 503//8 504//8 505//8 
f 504//6 506//6 505//6 
f 505//6 507//6 508//6 509//6 
f 508//6 510//6 509//6 
f 481//6 505//6 509//6 511//6 
f 481//6 511//6 512//6 468//6 
f 468//6 512//6 513//6 514//6 
f 468//6 514//6 515//6 516//6 
f 468//8 516//8 470//8 
f 460//8 470//8 517//8 518//8 
f 460//7 518//7 519//7 520//7 
f 520//7 521//7 461//7 460//7 
f 458//6 461//6 522//6 
f 523//5 524//5 525//5 526//5 
f 527//5 528//5 529//5 530//5 
f 531//6 532//6 533//6 534//6 
f 533//7 535//7 534//7 
f 531//6 534//6 536//6 529//6 
f 529//6 536//6 530//6 
f 530//5 537//5 538//5 539//5 
f 538//7 540//7 539//7 
f 527//6 530//6 539//6 541//6 
f 541//6 539//6 526//6 525//6 
f 542//8 523//8 526//8 
f 543//5 544//5 545//5 546//5 
f 547//5 548//5 549//5 550//5 
f 549//7 551//7 550//7 
f 547//6 550//6 552//6 553//6 
f 553//6 552//6 546//6 545//6 
f 554//8 543//8 546//8 
s 1
f 555//5 556//5 557//6 558//5 
f 555//5 558//5 559//6 560//6 
f 560//6 561//8 562//6 555//5 
f 555//5 562//6 563//5 564//7 
f 565//8 566//8 567//6 568//8 
f 569//8 570//8 557//6 571//6 
f 557//6 556//5 572//6 568//8 
f 571//6 557//6 568//8 567//6 
f 573//8 565//8 568//8 
f 559//6 558//5 570//8 569//8 
f 574//7 575//7 576//5 577//6 
f 578//8 579//8 580//8 581//6 
f 580//8 582//8 581//6 
f 578//8 581//6 583//6 577//6 
f 577//6 583//6 584//6 585//6 
f 577//6 585//6 586//8 574//7 
f 574//7 586//8 587//7 588//7 
f 589//5 590//5 591//8 592//7 
f 591//8 593//6 592//7 
f 589//5 592//7 594//5 595//5 
f 594//5 596//8 597//7 598//5 
f 597//7 599//5 598//5 
f 598//5 600//5 601//5 602//5 
f 601//5 603//5 602//5 
f 594//5 598//5 602//5 604//5 
f 602//5 605//5 574//7 606//7 
f 574//7 588//7 606//7 
f 602//5 606//7 607//7 608//7 
f 602//5 608//7 609//7 604//5 
f 594//5 604//5 610//6 611//5 
f 594//5 611//5 595//5 
f 589//5 595//5 612//5 584//6 
f 584//6 612//5 613//8 614//5 
f 585//6 584//6 614//5 
s off
f 615//6 616//6 617//6 618//6 
f 619//5 620//5 621//5 622//5 
f 623//8 619//8 622//8 624//8 
f 625//6 626//6 627//6 628//6 
f 622//5 625//5 628//5 624//5 
f 629//6 623//6 624//6 618//6 
f 617//6 629//6 618//6 
f 630//8 615//8 618//8 
f 221//9 220//9 528//9 527//9 
f 123//10 124//10 435//10 434//10 
f 20//11 18//11 317//11 316//11 
f 223//10 221//10 527//10 541//10 
f 126//12 123//12 434//12 433//12 
f 58//13 57//13 381//13 380//13 
f 224//14 223//14 541//14 525//14 
f 55//15 58//15 380//15 377//15 
f 225//10 224//10 525//10 524//10 
f 120//16 116//16 425//16 438//16 
f 65//17 55//17 377//17 378//17 
f 227//11 225//11 524//11 523//11 
f 116//18 115//18 426//18 425//18 
f 66//19 65//19 378//19 376//19 
f 238//20 239//20 543//20 554//20 
f 115//21 120//21 438//21 426//21 
f 68//22 66//22 376//22 375//22 
f 234//23 238//23 554//23 546//23 
f 67//24 68//24 375//24 373//24 
f 228//20 234//20 546//20 552//20 
f 69//25 67//25 373//25 374//25 
f 229//26 228//26 552//26 550//26 
f 141//20 142//20 442//20 457//20 
f 70//27 69//27 374//27 372//27 
f 230//20 229//20 550//20 551//20 
f 137//28 141//28 457//28 445//28 
f 71//29 70//29 372//29 371//29 
f 232//30 230//30 551//30 549//30 
f 131//20 137//20 445//20 451//20 
f 64//31 71//31 371//31 369//31 
f 231//10 232//10 549//10 548//10 
f 127//32 131//32 451//32 455//32 
f 77//33 64//33 369//33 370//33 
f 233//34 231//34 548//34 547//34 
f 128//35 127//35 455//35 454//35 
f 78//36 77//36 370//36 368//36 
f 235//10 233//10 547//10 553//10 
f 129//32 128//32 454//32 453//32 
f 79//37 78//37 368//37 367//37 
f 237//38 235//38 553//38 545//38 
f 130//20 129//20 453//20 452//20 
f 23//39 79//39 367//39 351//39 
f 236//10 237//10 545//10 544//10 
f 133//30 130//30 452//30 449//30 
f 27//40 23//40 351//40 350//40 
f 239//32 236//32 544//32 543//32 
f 134//10 133//10 449//10 448//10 
f 28//41 27//41 350//41 347//41 
f 257//20 258//20 565//20 573//20 
f 135//32 134//32 448//32 447//32 
f 29//42 28//42 347//42 348//42 
f 250//43 257//43 573//43 568//43 
f 136//44 135//44 447//44 446//44 
f 26//45 29//45 348//45 346//45 
f 251//46 250//46 568//46 572//46 
f 132//32 136//32 446//32 450//32 
f 36//47 26//47 346//47 345//47 
f 249//30 251//30 572//30 556//30 
f 138//10 132//10 450//10 456//10 
f 37//48 36//48 345//48 343//48 
f 240//49 249//49 556//49 555//49 
f 139//50 138//50 456//50 444//50 
f 39//51 37//51 343//51 344//51 
f 241//52 240//52 555//52 564//52 
f 140//10 139//10 444//10 443//10 
f 38//53 39//53 344//53 342//53 
f 242//10 241//10 564//10 563//10 
f 142//54 140//54 443//54 442//54 
f 40//55 38//55 342//55 341//55 
f 244//32 242//32 563//32 562//32 
f 143//56 207//56 459//56 458//56 
f 41//57 40//57 341//57 339//57 
f 243//20 244//20 562//20 561//20 
f 144//58 143//58 458//58 522//58 
f 43//59 41//59 339//59 340//59 
f 245//60 243//60 561//60 560//60 
f 145//20 144//20 522//20 461//20 
f 42//61 43//61 340//61 338//61 
f 246//62 245//62 560//62 559//62 
f 147//30 145//30 461//30 521//30 
f 50//63 42//63 338//63 337//63 
f 253//32 246//32 559//32 569//32 
f 148//64 147//64 521//64 520//64 
f 51//65 50//65 337//65 336//65 
f 254//66 253//66 569//66 571//66 
f 205//67 148//67 520//67 519//67 
f 56//68 51//68 336//68 382//68 
f 256//69 254//69 571//69 567//69 
f 204//70 205//70 519//70 518//70 
f 57//71 56//71 382//71 381//71 
f 255//10 256//10 567//10 566//10 
f 203//72 204//72 518//72 517//72 
f 258//12 255//12 566//12 565//12 
f 194//73 203//73 517//73 470//73 
f 49//74 52//74 383//74 366//74 
f 193//75 194//75 470//75 516//75 
f 52//76 53//76 384//76 383//76 
f 252//16 248//16 557//16 570//16 
f 192//77 193//77 516//77 515//77 
f 53//78 54//78 385//78 384//78 
f 248//18 247//18 558//18 557//18 
f 191//79 192//79 515//79 514//79 
f 54//80 59//80 386//80 385//80 
f 247//21 252//21 570//21 558//21 
f 190//81 191//81 514//81 513//81 
f 59//82 60//82 379//82 386//82 
f 157//83 190//83 513//83 512//83 
f 60//84 61//84 387//84 379//84 
f 152//85 157//85 512//85 511//85 
f 61//86 62//86 388//86 387//86 
f 262//20 263//20 580//20 579//20 
f 149//87 152//87 511//87 509//87 
f 62//88 63//88 389//88 388//88 
f 264//89 262//89 579//89 578//89 
f 150//90 149//90 509//90 510//90 
f 63//91 72//91 390//91 389//91 
f 268//20 264//20 578//20 577//20 
f 151//92 150//92 510//92 508//92 
f 72//93 73//93 391//93 390//93 
f 270//94 268//94 577//94 576//94 
f 153//95 151//95 508//95 507//95 
f 73//96 74//96 392//96 391//96 
f 269//20 270//20 576//20 575//20 
f 154//97 153//97 507//97 505//97 
f 74//98 75//98 393//98 392//98 
f 273//30 269//30 575//30 574//30 
f 156//99 154//99 505//99 506//99 
f 75//100 76//100 394//100 393//100 
f 278//101 273//101 574//101 605//101 
f 155//102 156//102 506//102 504//102 
f 76//103 22//103 353//103 394//103 
f 279//104 278//104 605//104 602//104 
f 158//105 155//105 504//105 503//105 
f 22//106 21//106 352//106 353//106 
f 281//107 279//107 602//107 603//107 
f 159//108 158//108 503//108 481//108 
f 21//109 24//109 354//109 352//109 
f 280//110 281//110 603//110 601//110 
f 161//111 159//111 481//111 497//111 
f 24//112 25//112 355//112 354//112 
f 282//113 280//113 601//113 600//113 
f 160//114 161//114 497//114 496//114 
f 25//115 30//115 356//115 355//115 
f 283//10 282//10 600//10 598//10 
f 162//116 160//116 496//116 495//116 
f 30//117 31//117 349//117 356//117 
f 285//118 283//118 598//118 599//118 
f 163//119 162//119 495//119 493//119 
f 31//120 32//120 357//120 349//120 
f 284//121 285//121 599//121 597//121 
f 165//122 163//122 493//122 494//122 
f 32//123 33//123 358//123 357//123 
f 290//124 284//124 597//124 596//124 
f 164//125 165//125 494//125 492//125 
f 33//126 34//126 359//126 358//126 
f 291//127 290//127 596//127 594//127 
f 167//128 164//128 492//128 491//128 
f 34//129 35//129 360//129 359//129 
f 293//130 291//130 594//130 592//130 
f 168//131 167//131 491//131 485//131 
f 35//132 44//132 361//132 360//132 
f 294//133 293//133 592//133 593//133 
f 170//134 168//134 485//134 486//134 
f 44//135 45//135 362//135 361//135 
f 295//10 294//10 593//10 591//10 
f 169//136 170//136 486//136 484//136 
f 45//137 46//137 363//137 362//137 
f 296//32 295//32 591//32 590//32 
f 171//32 169//32 484//32 483//32 
f 46//138 47//138 364//138 363//138 
f 292//139 296//139 590//139 589//139 
f 172//140 171//140 483//140 482//140 
f 47//141 48//141 365//141 364//141 
f 265//32 292//32 589//32 584//32 
f 173//142 172//142 482//142 487//142 
f 48//143 49//143 366//143 365//143 
f 259//10 265//10 584//10 583//10 
f 174//144 173//144 487//144 488//144 
f 260//145 259//145 583//145 581//145 
f 175//146 174//146 488//146 489//146 
f 90//20 91//20 395//20 406//20 
f 261//10 260//10 581//10 582//10 
f 166//147 175//147 489//147 490//147 
f 86//23 90//23 406//23 398//23 
f 263//148 261//148 582//148 580//148 
f 176//149 166//149 490//149 498//149 
f 80//20 86//20 398//20 404//20 
f 177//150 176//150 498//150 499//150 
f 81//26 80//26 404//26 402//26 
f 266//10 267//10 586//10 585//10 
f 178//151 177//151 499//151 500//151 
f 82//20 81//20 402//20 403//20 
f 267//152 271//152 587//152 586//152 
f 179//153 178//153 500//153 501//153 
f 84//30 82//30 403//30 401//30 
f 271//154 272//154 588//154 587//154 
f 180//155 179//155 501//155 502//155 
f 83//10 84//10 401//10 400//10 
f 272//156 274//156 606//156 588//156 
f 181//157 180//157 502//157 480//157 
f 85//34 83//34 400//34 399//34 
f 274//158 275//158 607//158 606//158 
f 186//159 181//159 480//159 479//159 
f 87//10 85//10 399//10 405//10 
f 275//160 276//160 608//160 607//160 
f 183//161 186//161 479//161 477//161 
f 89//38 87//38 405//38 397//38 
f 276//162 277//162 609//162 608//162 
f 184//163 183//163 477//163 478//163 
f 88//10 89//10 397//10 396//10 
f 277//164 286//164 604//164 609//164 
f 185//165 184//165 478//165 476//165 
f 91//32 88//32 396//32 395//32 
f 286//166 287//166 610//166 604//166 
f 187//167 185//167 476//167 475//167 
f 106//20 107//20 407//20 422//20 
f 287//168 288//168 611//168 610//168 
f 188//169 187//169 475//169 473//169 
f 102//28 106//28 422//28 410//28 
f 288//170 289//170 595//170 611//170 
f 189//171 188//171 473//171 474//171 
f 96//20 102//20 410//20 416//20 
f 289//172 297//172 612//172 595//172 
f 182//173 189//173 474//173 472//173 
f 92//32 96//32 416//32 420//32 
f 297//174 298//174 613//174 612//174 
f 196//175 182//175 472//175 471//175 
f 93//35 92//35 420//35 419//35 
f 298//176 299//176 614//176 613//176 
f 197//177 196//177 471//177 468//177 
f 94//32 93//32 419//32 418//32 
f 299//178 266//178 585//178 614//178 
f 199//179 197//179 468//179 469//179 
f 95//20 94//20 418//20 417//20 
f 198//180 199//180 469//180 467//180 
f 98//30 95//30 417//30 414//30 
f 314//20 315//20 615//20 630//20 
f 200//181 198//181 467//181 466//181 
f 99//10 98//10 414//10 413//10 
f 310//28 314//28 630//28 618//28 
f 201//182 200//182 466//182 464//182 
f 100//32 99//32 413//32 412//32 
f 304//20 310//20 618//20 624//20 
f 202//183 201//183 464//183 465//183 
f 101//44 100//44 412//44 411//44 
f 300//32 304//32 624//32 628//32 
f 195//184 202//184 465//184 463//184 
f 97//32 101//32 411//32 415//32 
f 19//20 20//20 316//20 335//20 
f 301//35 300//35 628//35 627//35 
f 206//185 195//185 463//185 462//185 
f 103//10 97//10 415//10 421//10 
f 15//186 19//186 335//186 319//186 
f 302//32 301//32 627//32 626//32 
f 146//187 206//187 462//187 460//187 
f 104//50 103//50 421//50 409//50 
f 1//20 15//20 319//20 332//20 
f 303//20 302//20 626//20 625//20 
f 207//188 146//188 460//188 459//188 
f 105//10 104//10 409//10 408//10 
f 2//189 1//189 332//189 333//189 
f 306//30 303//30 625//30 622//30 
f 226//20 227//20 523//20 542//20 
f 107//54 105//54 408//54 407//54 
f 3//20 2//20 333//20 331//20 
f 307//10 306//10 622//10 621//10 
f 222//186 226//186 542//186 526//186 
f 125//20 126//20 433//20 441//20 
f 5//30 3//30 331//30 330//30 
f 308//32 307//32 621//32 620//32 
f 208//20 222//20 526//20 539//20 
f 118//43 125//43 441//43 436//43 
f 4//190 5//190 330//190 323//190 
f 309//44 308//44 620//44 619//44 
f 209//189 208//189 539//189 540//189 
f 119//46 118//46 436//46 440//46 
f 6//20 4//20 323//20 329//20 
f 305//32 309//32 619//32 623//32 
f 210//20 209//20 540//20 538//20 
f 117//30 119//30 440//30 424//30 
f 7//191 6//191 329//191 327//191 
f 311//10 305//10 623//10 629//10 
f 212//30 210//30 538//30 537//30 
f 108//49 117//49 424//49 423//49 
f 8//20 7//20 327//20 328//20 
f 312//50 311//50 629//50 617//50 
f 211//190 212//190 537//190 530//190 
f 109//52 108//52 423//52 432//52 
f 10//30 8//30 328//30 326//30 
f 313//10 312//10 617//10 616//10 
f 213//20 211//20 530//20 536//20 
f 110//10 109//10 432//10 431//10 
f 9//10 10//10 326//10 325//10 
f 315//54 313//54 616//54 615//54 
f 214//191 213//191 536//191 534//191 
f 112//32 110//32 431//32 430//32 
f 11//192 9//192 325//192 324//192 
f 215//20 214//20 534//20 535//20 
f 111//20 112//20 430//20 429//20 
f 12//10 11//10 324//10 322//10 
f 217//30 215//30 535//30 533//30 
f 113//60 111//60 429//60 428//60 
f 13//32 12//32 322//32 321//32 
f 216//10 217//10 533//10 532//10 
f 114//62 113//62 428//62 427//62 
f 14//9 13//9 321//9 320//9 
f 218//192 216//192 532//192 531//192 
f 121//32 114//32 427//32 437//32 
f 16//10 14//10 320//10 334//10 
f 219//10 218//10 531//10 529//10 
f 122//66 121//66 437//66 439//66 
f 17//14 16//14 334//14 318//14 
f 220//32 219//32 529//32 528//32 
f 124//69 122//69 439//69 435//69 
f 18//10 17//10 318//10 317//10 
# 572 polygons - 84 triangles

