# 3ds Max Wavefront OBJ Exporter v0.97b - (c)2007 guruware
# File Created: 15.03.2017 11:46:43

mtllib SPW_Urban_Text_Industrial Park.mtl

#
# object SPW_Urban_Text_Industrial_Park
#

v  160.9088 24.1590 -1.4069
v  157.3359 25.0167 -1.4069
v  157.3359 27.1933 -1.4069
v  170.8149 25.0164 -1.4069
v  170.8149 27.1933 -1.4069
v  167.2415 24.1614 -1.4069
v  160.9088 3.0288 -1.4069
v  167.2415 3.0321 -1.4069
v  170.8132 0.0004 -1.4069
v  170.8132 2.1758 -1.4069
v  157.3477 2.1765 -1.4069
v  157.3477 0.0001 -1.4069
v  133.1662 24.1679 -1.4069
v  129.5984 25.0135 -1.4069
v  129.5984 27.1940 -1.4069
v  139.5046 24.3622 -1.4069
v  143.4138 27.1940 -1.4069
v  141.0831 24.3470 -1.4069
v  133.1662 3.0240 -1.4069
v  139.5046 14.4966 -1.4069
v  139.5046 11.7605 -1.4069
v  139.5046 3.0490 -1.4069
v  142.8830 2.1544 -1.4069
v  142.8830 -0.0032 -1.4069
v  129.5987 2.1738 -1.4069
v  129.5987 0.0001 -1.4069
v  142.3063 24.1947 -1.4069
v  143.4331 23.8749 -1.4069
v  144.4990 23.2862 -1.4069
v  145.4199 22.3389 -1.4069
v  146.0163 21.1461 -1.4069
v  150.9214 15.1251 -1.4069
v  146.1419 26.8011 -1.4069
v  148.6953 25.9063 -1.4069
v  151.9690 22.6108 -1.4069
v  150.5722 24.6623 -1.4069
v  152.4928 20.8867 -1.4069
v  152.4928 18.7479 -1.4069
v  151.9690 16.8492 -1.4069
v  146.2005 20.0235 -1.4069
v  146.1654 18.8307 -1.4069
v  145.8058 17.3923 -1.4069
v  145.1393 16.2959 -1.4069
v  149.3064 13.7283 -1.4069
v  147.3203 12.8188 -1.4069
v  140.8640 11.7605 -1.4069
v  152.7562 2.9802 -1.4069
v  156.4820 2.0540 -1.4069
v  156.4820 0.0017 -1.4069
v  147.0569 0.0017 -1.4069
v  144.2622 15.4715 -1.4069
v  142.9027 14.8137 -1.4069
v  141.2538 14.5067 -1.4069
v  124.6707 3.0690 -1.4069
v  128.3991 2.1756 -1.4069
v  128.3991 0.0016 -1.4069
v  115.2311 2.1718 -1.4069
v  115.2311 0.0016 -1.4069
v  117.9763 2.8384 -1.4069
v  115.9705 27.3841 -1.4069
v  116.3213 7.4967 -1.4069
v  115.3600 10.1692 -1.4069
v  112.3256 18.4511 -1.4069
v  112.5899 27.3841 -1.4069
v  103.3052 3.0657 -1.4069
v  108.1682 7.4967 -1.4069
v  109.2111 10.1765 -1.4069
v  106.4131 2.9523 -1.4069
v  109.6716 0.0096 -1.4069
v  109.6716 2.1693 -1.4069
v  99.5036 2.1724 -1.4069
v  99.5036 0.0001 -1.4069
v  79.7512 24.1629 -1.4069
v  76.1883 25.0151 -1.4069
v  76.1883 27.1917 -1.4069
v  86.0964 24.3509 -1.4069
v  88.5851 27.1917 -1.4069
v  87.7904 24.3509 -1.4069
v  79.7512 3.0243 -1.4069
v  86.0964 12.7792 -1.4069
v  86.0964 9.9420 -1.4069
v  86.0964 3.0554 -1.4069
v  90.8250 2.1612 -1.4069
v  90.8250 0.0041 -1.4069
v  76.1917 2.1765 -1.4069
v  76.1917 0.0001 -1.4069
v  89.1791 24.0439 -1.4069
v  90.5970 23.2984 -1.4069
v  91.5691 22.3263 -1.4069
v  98.4787 15.6103 -1.4069
v  90.1992 27.0445 -1.4069
v  92.2345 26.7044 -1.4069
v  97.1450 24.2643 -1.4069
v  95.3869 25.5829 -1.4069
v  98.4787 22.1122 -1.4069
v  99.0243 19.4750 -1.4069
v  98.9637 17.2623 -1.4069
v  92.2927 20.8426 -1.4069
v  92.5837 19.1875 -1.4069
v  92.4564 17.2415 -1.4069
v  92.0199 15.7866 -1.4069
v  91.2197 14.5680 -1.4069
v  90.1466 13.6951 -1.4069
v  88.7644 13.0585 -1.4069
v  91.0827 10.3209 -1.4069
v  97.2359 13.5188 -1.4069
v  95.6446 12.1093 -1.4069
v  93.4166 10.9878 -1.4069
v  87.0594 12.7680 -1.4069
v  87.8696 9.9572 -1.4069
v  47.6381 24.1562 -1.4069
v  44.0689 25.0211 -1.4069
v  44.0689 27.1894 -1.4069
v  57.5494 25.0332 -1.4069
v  57.5494 27.1894 -1.4069
v  53.9753 24.1635 -1.4069
v  47.6381 3.0417 -1.4069
v  53.9753 3.0130 -1.4069
v  64.6868 0.0004 -1.4069
v  61.0464 3.0130 -1.4069
v  63.6776 8.3908 -1.4069
v  65.8528 8.3908 -1.4069
v  44.0597 2.1682 -1.4069
v  44.0597 0.0001 -1.4069
v  39.1282 3.0690 -1.4069
v  42.8565 2.1756 -1.4069
v  42.8565 0.0016 -1.4069
v  29.6886 2.1718 -1.4069
v  29.6886 0.0016 -1.4069
v  32.4338 2.8384 -1.4069
v  30.7788 7.4967 -1.4069
v  29.8175 10.1692 -1.4069
v  26.7831 18.4511 -1.4069
v  30.4280 27.3841 -1.4069
v  17.7627 3.0657 -1.4069
v  27.0474 27.3841 -1.4069
v  23.6686 10.1765 -1.4069
v  22.6257 7.4967 -1.4069
v  20.8706 2.9523 -1.4069
v  24.1291 0.0096 -1.4069
v  24.1291 2.1693 -1.4069
v  13.9611 2.1724 -1.4069
v  13.9611 0.0001 -1.4069
v  3.1549 24.1590 -1.4069
v  -0.4180 25.0167 -1.4069
v  -0.4180 27.1933 -1.4069
v  13.0609 25.0164 -1.4069
v  13.0609 27.1933 -1.4069
v  9.4875 24.1614 -1.4069
v  3.1549 3.0288 -1.4069
v  9.4875 3.0321 -1.4069
v  13.0593 0.0004 -1.4069
v  13.0593 2.1758 -1.4069
v  -0.4063 2.1765 -1.4069
v  -0.4063 0.0001 -1.4069
v  -18.2469 3.0490 -1.4069
v  -14.8684 2.1544 -1.4069
v  -14.8684 -0.0032 -1.4069
v  -28.1528 2.1738 -1.4069
v  -28.1528 0.0001 -1.4069
v  -24.5852 3.0240 -1.4069
v  -18.2469 11.7605 -1.4069
v  -18.2469 14.4966 -1.4069
v  -18.2469 24.3622 -1.4069
v  -24.5852 24.1679 -1.4069
v  -28.1530 27.1940 -1.4069
v  -28.1530 25.0135 -1.4069
v  -16.6684 24.3470 -1.4069
v  -15.4451 24.1947 -1.4069
v  -14.3376 27.1940 -1.4069
v  -14.3184 23.8749 -1.4069
v  -13.2525 23.2862 -1.4069
v  -12.3316 22.3389 -1.4069
v  -11.7352 21.1461 -1.4069
v  -11.6096 26.8011 -1.4069
v  -9.0561 25.9063 -1.4069
v  -5.7825 22.6108 -1.4069
v  -7.1793 24.6623 -1.4069
v  -5.2587 20.8867 -1.4069
v  -5.2587 18.7479 -1.4069
v  -6.8301 15.1251 -1.4069
v  -5.7825 16.8492 -1.4069
v  -11.5510 20.0235 -1.4069
v  -11.5860 18.8307 -1.4069
v  -11.9456 17.3923 -1.4069
v  -12.6122 16.2959 -1.4069
v  -8.4451 13.7283 -1.4069
v  -10.4312 12.8188 -1.4069
v  -16.8874 11.7605 -1.4069
v  -4.9953 2.9802 -1.4069
v  -1.2695 2.0540 -1.4069
v  -1.2695 0.0017 -1.4069
v  -10.6945 0.0017 -1.4069
v  -13.4893 15.4715 -1.4069
v  -14.8487 14.8137 -1.4069
v  -16.4976 14.5067 -1.4069
v  -50.2510 24.2047 -1.4069
v  -51.8409 18.9592 -1.4069
v  -54.1762 18.9592 -1.4069
v  -54.1762 27.1899 -1.4069
v  -45.3987 24.2047 -1.4069
v  -39.0608 24.1973 -1.4069
v  -30.2894 27.1899 -1.4069
v  -30.2894 18.9535 -1.4069
v  -32.6526 18.9535 -1.4069
v  -34.2491 24.1973 -1.4069
v  -45.3987 3.0282 -1.4069
v  -39.0608 3.0416 -1.4069
v  -35.4866 2.1702 -1.4069
v  -35.4866 0.0105 -1.4069
v  -48.9717 2.1755 -1.4069
v  -48.9717 0.0001 -1.4069
v  -75.0274 0.6736 -1.4069
v  -76.5430 1.2525 -1.4069
v  -76.5430 8.3890 -1.4069
v  -70.1410 -0.4020 -1.4068
v  -74.3605 8.3890 -1.4069
v  -72.4049 2.9690 -1.4069
v  -66.7720 10.6858 -1.4069
v  -71.0283 12.8202 -1.4069
v  -73.4027 14.4873 -1.4069
v  -63.9682 9.2334 -1.4069
v  -75.2592 16.6849 -1.4069
v  -75.9918 18.5920 -1.4069
v  -76.1307 22.0273 -1.4069
v  -76.2317 20.3981 -1.4069
v  -62.7179 8.2103 -1.4069
v  -75.6381 23.4924 -1.4069
v  -74.7288 24.8311 -1.4069
v  -71.7860 26.8772 -1.4069
v  -73.4153 25.9804 -1.4069
v  -69.8537 27.4834 -1.4069
v  -68.0224 27.7234 -1.4068
v  -64.3850 27.6855 -1.4068
v  -66.2921 27.7739 -1.4068
v  -68.0974 24.6471 -1.4068
v  -61.5307 27.3571 -1.4068
v  -59.3078 26.8645 -1.4068
v  -58.3101 19.4272 -1.4068
v  -58.3101 26.5740 -1.4068
v  -60.4470 19.4272 -1.4068
v  -62.3790 24.6296 -1.4068
v  -63.6946 24.8576 -1.4068
v  -64.9838 24.9804 -1.4068
v  -66.5450 24.9190 -1.4068
v  -69.3692 24.1735 -1.4068
v  -70.3778 23.4718 -1.4068
v  -70.8602 22.6474 -1.4068
v  -70.9918 21.7791 -1.4068
v  -70.7988 20.9196 -1.4068
v  -70.2024 20.0249 -1.4068
v  -56.5903 7.4741 -1.4069
v  -67.0362 18.1217 -1.4068
v  -62.0457 15.7273 -1.4069
v  -59.5636 13.9995 -1.4069
v  -68.9482 19.1128 -1.4069
v  -58.0638 12.4120 -1.4069
v  -57.1429 10.7193 -1.4069
v  -56.6605 8.8336 -1.4069
v  -61.9853 7.0484 -1.4069
v  -61.8338 5.9622 -1.4069
v  -62.0990 4.8256 -1.4069
v  -62.8189 3.9036 -1.4069
v  -63.9556 3.2216 -1.4069
v  -64.5015 -0.3844 -1.4069
v  -56.7482 5.8428 -1.4069
v  -57.1341 4.4658 -1.4069
v  -58.5374 2.2906 -1.4069
v  -57.6866 3.3607 -1.4069
v  -59.5285 1.4223 -1.4069
v  -60.7739 0.6681 -1.4069
v  -62.3526 0.0716 -1.4069
v  -66.2163 2.5269 -1.4069
v  -68.7675 2.3754 -1.4069
v  -70.6494 2.5396 -1.4069
v  -66.9748 -0.5774 -1.4069
v  -72.5856 0.0001 -1.4069
v  -99.8236 1.0789 -1.4069
v  -102.2061 3.0248 -1.4069
v  -103.7900 5.6647 -1.4069
v  -96.3141 -0.2662 -1.4069
v  -104.4971 8.8074 -1.4069
v  -104.5756 10.7454 -1.4069
v  -104.5756 24.1639 -1.4069
v  -108.1255 25.0101 -1.4069
v  -108.1255 27.1904 -1.4069
v  -94.6529 25.0168 -1.4069
v  -94.6529 27.1904 -1.4069
v  -98.2250 24.1635 -1.4069
v  -98.2250 9.5334 -1.4069
v  -98.0496 7.8055 -1.4069
v  -97.2615 5.3958 -1.4069
v  -92.7939 -0.5782 -1.4069
v  -85.3491 24.1770 -1.4069
v  -88.9057 25.0141 -1.4069
v  -88.9057 27.1920 -1.4069
v  -78.5743 25.0165 -1.4069
v  -78.5743 27.1920 -1.4069
v  -82.1470 24.1577 -1.4069
v  -85.3491 9.6848 -1.4069
v  -85.6067 7.6237 -1.4069
v  -84.3193 3.1476 -1.4069
v  -82.1470 8.8436 -1.4069
v  -82.4501 7.0123 -1.4069
v  -83.1195 5.0673 -1.4069
v  -86.3190 5.7747 -1.4069
v  -87.4406 4.3349 -1.4069
v  -88.9107 3.3801 -1.4069
v  -90.6687 2.8345 -1.4069
v  -86.1254 1.4805 -1.4069
v  -88.2472 0.3185 -1.4069
v  -90.4069 -0.3129 -1.4069
v  -92.5329 2.7435 -1.4069
v  -94.3819 3.0618 -1.4069
v  -96.0793 3.9711 -1.4069
v  -94.6757 -0.5159 -1.4069
v  -97.9079 0.1828 -1.4069
v  -132.6487 24.1617 -1.4069
v  -136.2221 25.0205 -1.4069
v  -136.2221 27.1886 -1.4069
v  -126.3125 24.1994 -1.4069
v  -123.2818 27.1886 -1.4069
v  -124.4853 24.1994 -1.4069
v  -132.6487 3.0297 -1.4069
v  -126.3125 2.9878 -1.4069
v  -136.2233 2.1789 -1.4069
v  -123.8750 0.0023 -1.4069
v  -136.2233 0.0001 -1.4069
v  -122.8750 23.9573 -1.4069
v  -120.8441 23.2601 -1.4069
v  -119.0709 21.9113 -1.4069
v  -110.0870 12.0040 -1.4069
v  -120.8084 26.8834 -1.4068
v  -118.1667 26.1993 -1.4068
v  -114.1463 23.7891 -1.4068
v  -116.1144 25.2520 -1.4068
v  -111.9988 21.2226 -1.4069
v  -110.4536 17.7656 -1.4069
v  -110.0084 14.6229 -1.4069
v  -117.6614 19.8652 -1.4069
v  -116.8127 17.4100 -1.4069
v  -116.4641 14.4698 -1.4069
v  -116.5247 11.6205 -1.4069
v  -117.0400 8.8925 -1.4069
v  -118.2374 6.3767 -1.4069
v  -119.8287 4.6338 -1.4069
v  -118.4937 0.9261 -1.4069
v  -110.5322 9.3851 -1.4069
v  -111.3178 7.1329 -1.4069
v  -114.5653 3.0474 -1.4069
v  -112.7582 4.7759 -1.4069
v  -116.4247 1.8427 -1.4069
v  -121.3140 3.7396 -1.4069
v  -123.3297 3.1485 -1.4069
v  -125.0347 2.9910 -1.4069
v  -121.0864 0.2975 -1.4069
v  -165.0130 24.1554 -1.4069
v  -168.5704 25.0184 -1.4069
v  -168.5704 27.1865 -1.4069
v  -145.2300 8.9733 -1.4069
v  -161.8852 27.1865 -1.4069
v  -145.2300 24.1534 -1.4069
v  -148.7988 25.0164 -1.4069
v  -148.7988 27.1837 -1.4069
v  -138.4385 25.0191 -1.4069
v  -138.4385 27.1837 -1.4069
v  -142.0081 24.1683 -1.4069
v  -142.0081 -0.0019 -1.4069
v  -145.7868 -0.0019 -1.4069
v  -161.8804 17.6118 -1.4069
v  -165.0130 3.0376 -1.4069
v  -161.8804 3.0506 -1.4069
v  -158.3212 2.1742 -1.4069
v  -158.3212 -0.0037 -1.4069
v  -168.5739 2.1781 -1.4069
v  -168.5739 0.0001 -1.4069
v  -181.0464 24.1590 -1.4069
v  -184.6193 25.0167 -1.4069
v  -184.6193 27.1933 -1.4069
v  -171.1404 25.0164 -1.4069
v  -171.1404 27.1933 -1.4069
v  -174.7137 24.1614 -1.4069
v  -181.0464 3.0288 -1.4069
v  -174.7137 3.0321 -1.4069
v  -171.1420 0.0004 -1.4069
v  -171.1420 2.1758 -1.4069
v  -184.6076 2.1765 -1.4069
v  -184.6076 0.0001 -1.4069
v  176.4918 24.2304 -1.4069
v  174.1164 25.0198 -1.4069
v  174.1164 27.1979 -1.4069
v  184.2103 25.0139 -1.4069
v  184.2103 27.1979 -1.4069
v  180.5264 24.1632 -1.4069
v  168.0928 13.5504 -1.4069
v  182.3096 3.8090 -1.4069
v  185.9634 2.1645 -1.4069
v  185.9634 0.0001 -1.4069
v  176.9507 0.0001 -1.4069
v  173.9966 16.0442 -1.4069
v  157.3477 0.0001 1.5123
v  170.8132 0.0004 1.5123
v  170.8132 2.1758 1.5123
v  160.9088 3.0288 1.5123
v  167.2415 24.1614 1.5123
v  170.8149 25.0164 1.5123
v  170.8149 27.1933 1.5123
v  157.3359 25.0167 1.5123
v  157.3359 27.1933 1.5123
v  160.9088 24.1590 1.5123
v  167.2415 3.0321 1.5123
v  157.3477 2.1765 1.5123
v  129.5987 0.0001 1.5123
v  142.8830 -0.0032 1.5123
v  142.8830 2.1544 1.5123
v  133.1662 3.0240 1.5123
v  139.5046 24.3622 1.5123
v  141.0831 24.3470 1.5123
v  143.4138 27.1940 1.5123
v  129.5984 25.0135 1.5123
v  129.5984 27.1940 1.5123
v  133.1662 24.1679 1.5123
v  139.5046 14.4966 1.5123
v  139.5046 11.7605 1.5123
v  139.5046 3.0490 1.5123
v  129.5987 2.1738 1.5123
v  140.8640 11.7605 1.5123
v  147.0569 0.0017 1.5123
v  156.4820 0.0017 1.5123
v  152.7562 2.9802 1.5123
v  156.4820 2.0540 1.5123
v  147.3203 12.8188 1.5123
v  145.1393 16.2959 1.5123
v  149.3064 13.7283 1.5123
v  150.9214 15.1251 1.5123
v  152.4928 18.7479 1.5123
v  151.9690 16.8492 1.5123
v  152.4928 20.8867 1.5123
v  151.9690 22.6108 1.5123
v  148.6953 25.9063 1.5123
v  150.5722 24.6623 1.5123
v  146.2005 20.0235 1.5123
v  146.1419 26.8011 1.5123
v  142.3063 24.1947 1.5123
v  143.4331 23.8749 1.5123
v  144.4990 23.2862 1.5123
v  145.4199 22.3389 1.5123
v  146.0163 21.1461 1.5123
v  146.1654 18.8307 1.5123
v  145.8058 17.3923 1.5123
v  144.2622 15.4715 1.5123
v  142.9027 14.8137 1.5123
v  141.2538 14.5067 1.5123
v  112.5899 27.3841 1.5123
v  112.3256 18.4511 1.5123
v  115.3600 10.1692 1.5123
v  124.6707 3.0690 1.5123
v  117.9763 2.8384 1.5123
v  115.2311 2.1718 1.5123
v  115.2311 0.0016 1.5123
v  128.3991 2.1756 1.5123
v  128.3991 0.0016 1.5123
v  116.3213 7.4967 1.5123
v  115.9705 27.3841 1.5123
v  99.5036 0.0001 1.5123
v  109.6716 0.0096 1.5123
v  109.6716 2.1693 1.5123
v  103.3052 3.0657 1.5123
v  108.1682 7.4967 1.5123
v  109.2111 10.1765 1.5123
v  106.4131 2.9523 1.5123
v  99.5036 2.1724 1.5123
v  76.1917 0.0001 1.5123
v  90.8250 0.0041 1.5123
v  90.8250 2.1612 1.5123
v  79.7512 3.0243 1.5123
v  86.0964 24.3509 1.5123
v  87.7904 24.3509 1.5123
v  88.5851 27.1917 1.5123
v  76.1883 25.0151 1.5123
v  76.1883 27.1917 1.5123
v  79.7512 24.1629 1.5123
v  86.0964 12.7792 1.5123
v  86.0964 9.9420 1.5123
v  86.0964 3.0554 1.5123
v  76.1917 2.1765 1.5123
v  87.8696 9.9572 1.5123
v  91.0827 10.3209 1.5123
v  95.6446 12.1093 1.5123
v  93.4166 10.9878 1.5123
v  97.2359 13.5188 1.5123
v  98.4787 15.6103 1.5123
v  99.0243 19.4750 1.5123
v  98.9637 17.2623 1.5123
v  91.2197 14.5680 1.5123
v  98.4787 22.1122 1.5123
v  97.1450 24.2643 1.5123
v  92.2345 26.7044 1.5123
v  95.3869 25.5829 1.5123
v  90.1992 27.0445 1.5123
v  89.1791 24.0439 1.5123
v  90.5970 23.2984 1.5123
v  91.5691 22.3263 1.5123
v  92.2927 20.8426 1.5123
v  92.5837 19.1875 1.5123
v  92.4564 17.2415 1.5123
v  92.0199 15.7866 1.5123
v  90.1466 13.6951 1.5123
v  88.7644 13.0585 1.5123
v  87.0594 12.7680 1.5123
v  64.6868 0.0004 1.5123
v  65.8528 8.3908 1.5123
v  63.6776 8.3908 1.5123
v  61.0464 3.0130 1.5123
v  53.9753 3.0130 1.5123
v  47.6381 3.0417 1.5123
v  53.9753 24.1635 1.5123
v  57.5494 25.0332 1.5123
v  57.5494 27.1894 1.5123
v  44.0689 25.0211 1.5123
v  44.0689 27.1894 1.5123
v  47.6381 24.1562 1.5123
v  44.0597 0.0001 1.5123
v  44.0597 2.1682 1.5123
v  39.1282 3.0690 1.5123
v  30.4280 27.3841 1.5123
v  26.7831 18.4511 1.5123
v  29.8175 10.1692 1.5123
v  30.7788 7.4967 1.5123
v  32.4338 2.8384 1.5123
v  29.6886 2.1718 1.5123
v  29.6886 0.0016 1.5123
v  42.8565 0.0016 1.5123
v  42.8565 2.1756 1.5123
v  13.9611 0.0001 1.5123
v  24.1291 0.0096 1.5123
v  24.1291 2.1693 1.5123
v  17.7627 3.0657 1.5123
v  22.6257 7.4967 1.5123
v  23.6686 10.1765 1.5123
v  20.8706 2.9523 1.5123
v  27.0474 27.3841 1.5123
v  13.9611 2.1724 1.5123
v  -0.4063 0.0001 1.5123
v  13.0593 0.0004 1.5123
v  13.0593 2.1758 1.5123
v  3.1549 3.0288 1.5123
v  9.4875 24.1614 1.5123
v  13.0609 25.0164 1.5123
v  13.0609 27.1933 1.5123
v  -0.4180 25.0167 1.5123
v  -0.4180 27.1933 1.5123
v  3.1549 24.1590 1.5123
v  9.4875 3.0321 1.5123
v  -0.4063 2.1765 1.5123
v  -14.3376 27.1940 1.5123
v  -28.1530 27.1940 1.5123
v  -28.1530 25.0135 1.5123
v  -24.5852 24.1679 1.5123
v  -24.5852 3.0240 1.5123
v  -28.1528 2.1738 1.5123
v  -28.1528 0.0001 1.5123
v  -14.8684 2.1544 1.5123
v  -14.8684 -0.0032 1.5123
v  -18.2469 3.0490 1.5123
v  -18.2469 11.7605 1.5123
v  -18.2469 14.4966 1.5123
v  -18.2469 24.3622 1.5123
v  -16.6684 24.3470 1.5123
v  -15.4451 24.1947 1.5123
v  -16.8874 11.7605 1.5123
v  -10.6945 0.0017 1.5123
v  -1.2695 0.0017 1.5123
v  -4.9953 2.9802 1.5123
v  -1.2695 2.0540 1.5123
v  -10.4312 12.8188 1.5123
v  -12.6122 16.2959 1.5123
v  -8.4451 13.7283 1.5123
v  -6.8301 15.1251 1.5123
v  -5.2587 18.7479 1.5123
v  -5.7825 16.8492 1.5123
v  -5.2587 20.8867 1.5123
v  -5.7825 22.6108 1.5123
v  -9.0561 25.9063 1.5123
v  -7.1793 24.6623 1.5123
v  -11.5510 20.0235 1.5123
v  -11.6096 26.8011 1.5123
v  -14.3184 23.8749 1.5123
v  -13.2525 23.2862 1.5123
v  -12.3316 22.3389 1.5123
v  -11.7352 21.1461 1.5123
v  -11.5860 18.8307 1.5123
v  -11.9456 17.3923 1.5123
v  -13.4893 15.4715 1.5123
v  -14.8487 14.8137 1.5123
v  -16.4976 14.5067 1.5123
v  -48.9717 0.0001 1.5123
v  -35.4866 0.0105 1.5123
v  -35.4866 2.1702 1.5123
v  -45.3987 3.0282 1.5123
v  -34.2491 24.1973 1.5123
v  -32.6526 18.9535 1.5123
v  -30.2894 18.9535 1.5123
v  -30.2894 27.1899 1.5123
v  -39.0608 24.1973 1.5123
v  -45.3987 24.2047 1.5123
v  -54.1762 27.1899 1.5123
v  -54.1762 18.9592 1.5123
v  -51.8409 18.9592 1.5123
v  -50.2510 24.2047 1.5123
v  -39.0608 3.0416 1.5123
v  -48.9717 2.1755 1.5123
v  -75.0274 0.6736 1.5123
v  -72.5856 0.0001 1.5123
v  -70.1410 -0.4020 1.5123
v  -76.5430 8.3890 1.5123
v  -66.9748 -0.5774 1.5123
v  -64.5015 -0.3844 1.5123
v  -60.7739 0.6681 1.5123
v  -62.3526 0.0716 1.5123
v  -59.5285 1.4223 1.5123
v  -58.5374 2.2906 1.5123
v  -57.1341 4.4658 1.5123
v  -57.6866 3.3607 1.5123
v  -63.9556 3.2216 1.5123
v  -56.7482 5.8428 1.5123
v  -56.5903 7.4741 1.5123
v  -57.1429 10.7193 1.5123
v  -56.6605 8.8336 1.5123
v  -58.0638 12.4120 1.5123
v  -59.5636 13.9995 1.5123
v  -67.0362 18.1217 1.5123
v  -62.0457 15.7273 1.5123
v  -68.9482 19.1128 1.5123
v  -70.2024 20.0249 1.5123
v  -74.7288 24.8311 1.5123
v  -62.3790 24.6296 1.5123
v  -60.4470 19.4272 1.5123
v  -58.3101 19.4272 1.5123
v  -59.3078 26.8645 1.5123
v  -58.3101 26.5740 1.5123
v  -63.6946 24.8576 1.5123
v  -64.9838 24.9804 1.5123
v  -66.5450 24.9190 1.5123
v  -68.0974 24.6471 1.5123
v  -61.5307 27.3571 1.5123
v  -64.3850 27.6855 1.5123
v  -68.0224 27.7234 1.5123
v  -66.2921 27.7739 1.5123
v  -69.8537 27.4834 1.5123
v  -71.7860 26.8772 1.5123
v  -73.4153 25.9804 1.5123
v  -69.3692 24.1735 1.5123
v  -70.3778 23.4718 1.5123
v  -70.8602 22.6474 1.5123
v  -70.9918 21.7791 1.5123
v  -70.7988 20.9196 1.5123
v  -75.6381 23.4924 1.5123
v  -76.1307 22.0273 1.5123
v  -75.9918 18.5920 1.5123
v  -76.2317 20.3981 1.5123
v  -75.2592 16.6849 1.5123
v  -73.4027 14.4873 1.5123
v  -66.7720 10.6858 1.5123
v  -71.0283 12.8202 1.5123
v  -63.9682 9.2334 1.5123
v  -62.7179 8.2103 1.5123
v  -61.9853 7.0484 1.5123
v  -61.8338 5.9622 1.5123
v  -62.0990 4.8256 1.5123
v  -62.8189 3.9036 1.5123
v  -66.2163 2.5269 1.5123
v  -68.7675 2.3754 1.5123
v  -70.6494 2.5396 1.5123
v  -72.4049 2.9690 1.5123
v  -74.3605 8.3890 1.5123
v  -76.5430 1.2525 1.5123
v  -99.8236 1.0789 1.5123
v  -97.9079 0.1828 1.5123
v  -96.3141 -0.2662 1.5123
v  -92.7939 -0.5782 1.5123
v  -94.6757 -0.5159 1.5123
v  -90.4069 -0.3129 1.5123
v  -88.2472 0.3185 1.5123
v  -84.3193 3.1476 1.5123
v  -86.1254 1.4805 1.5123
v  -90.6687 2.8345 1.5123
v  -83.1195 5.0673 1.5123
v  -82.4501 7.0123 1.5123
v  -82.1470 24.1577 1.5123
v  -82.1470 8.8436 1.5123
v  -78.5743 25.0165 1.5123
v  -78.5743 27.1920 1.5123
v  -88.9057 25.0141 1.5123
v  -88.9057 27.1920 1.5123
v  -85.3491 24.1770 1.5123
v  -85.3491 9.6848 1.5123
v  -85.6067 7.6237 1.5123
v  -86.3190 5.7747 1.5123
v  -87.4406 4.3349 1.5123
v  -88.9107 3.3801 1.5123
v  -92.5329 2.7435 1.5123
v  -94.3819 3.0618 1.5123
v  -96.0793 3.9711 1.5123
v  -97.2615 5.3958 1.5123
v  -98.2250 24.1635 1.5123
v  -94.6529 25.0168 1.5123
v  -94.6529 27.1904 1.5123
v  -108.1255 25.0101 1.5123
v  -108.1255 27.1904 1.5123
v  -104.5756 24.1639 1.5123
v  -98.2250 9.5334 1.5123
v  -98.0496 7.8055 1.5123
v  -104.4971 8.8074 1.5123
v  -104.5756 10.7454 1.5123
v  -103.7900 5.6647 1.5123
v  -102.2061 3.0248 1.5123
v  -136.2233 0.0001 1.5123
v  -123.8750 0.0023 1.5123
v  -126.3125 2.9878 1.5123
v  -132.6487 3.0297 1.5123
v  -126.3125 24.1994 1.5123
v  -124.4853 24.1994 1.5123
v  -123.2818 27.1886 1.5123
v  -136.2221 25.0205 1.5123
v  -136.2221 27.1886 1.5123
v  -132.6487 24.1617 1.5123
v  -136.2233 2.1789 1.5123
v  -121.0864 0.2975 1.5123
v  -118.4937 0.9261 1.5123
v  -114.5653 3.0474 1.5123
v  -116.4247 1.8427 1.5123
v  -112.7582 4.7759 1.5123
v  -111.3178 7.1329 1.5123
v  -110.0870 12.0040 1.5123
v  -110.5322 9.3851 1.5123
v  -118.2374 6.3767 1.5123
v  -110.0084 14.6229 1.5123
v  -110.4536 17.7656 1.5123
v  -114.1463 23.7891 1.5123
v  -111.9988 21.2226 1.5123
v  -116.1144 25.2520 1.5123
v  -118.1667 26.1993 1.5123
v  -120.8084 26.8834 1.5123
v  -119.0709 21.9113 1.5123
v  -122.8750 23.9573 1.5123
v  -120.8441 23.2601 1.5123
v  -117.6614 19.8652 1.5123
v  -116.8127 17.4100 1.5123
v  -116.4641 14.4698 1.5123
v  -116.5247 11.6205 1.5123
v  -117.0400 8.8925 1.5123
v  -119.8287 4.6338 1.5123
v  -121.3140 3.7396 1.5123
v  -123.3297 3.1485 1.5123
v  -125.0347 2.9910 1.5123
v  -168.5739 0.0001 1.5123
v  -158.3212 -0.0037 1.5123
v  -158.3212 2.1742 1.5123
v  -165.0130 3.0376 1.5123
v  -161.8804 17.6118 1.5123
v  -145.7868 -0.0019 1.5123
v  -142.0081 -0.0019 1.5123
v  -145.2300 8.9733 1.5123
v  -142.0081 24.1683 1.5123
v  -138.4385 25.0191 1.5123
v  -138.4385 27.1837 1.5123
v  -148.7988 25.0164 1.5123
v  -148.7988 27.1837 1.5123
v  -145.2300 24.1534 1.5123
v  -161.8852 27.1865 1.5123
v  -168.5704 27.1865 1.5123
v  -165.0130 24.1554 1.5123
v  -168.5704 25.0184 1.5123
v  -161.8804 3.0506 1.5123
v  -168.5739 2.1781 1.5123
v  -184.6076 0.0001 1.5123
v  -171.1420 0.0004 1.5123
v  -171.1420 2.1758 1.5123
v  -181.0464 3.0288 1.5123
v  -174.7137 24.1614 1.5123
v  -171.1404 25.0164 1.5123
v  -171.1404 27.1933 1.5123
v  -184.6193 25.0167 1.5123
v  -184.6193 27.1933 1.5123
v  -181.0464 24.1590 1.5123
v  -174.7137 3.0321 1.5123
v  -184.6076 2.1765 1.5123
v  168.0928 13.5504 1.5123
v  176.9507 0.0001 1.5123
v  185.9634 0.0001 1.5123
v  182.3096 3.8090 1.5123
v  185.9634 2.1645 1.5123
v  173.9966 16.0442 1.5123
v  176.4918 24.2304 1.5123
v  180.5264 24.1632 1.5123
v  184.2103 27.1979 1.5123
v  184.2103 25.0139 1.5123
v  174.1164 27.1979 1.5123
v  174.1164 25.0198 1.5123
# 800 vertices

vn -0.0000 0.0000 -1.0000
vn 0.0000 0.0000 -1.0000
vn 0.0000 -0.0000 -1.0000
vn -0.0000 -0.0000 -1.0000
vn -0.0000 -0.0000 1.0000
vn 0.0000 -0.0000 1.0000
vn -0.0000 0.0000 1.0000
vn 0.0000 0.0000 1.0000
vn 0.7792 -0.6267 -0.0000
vn -0.6849 0.7286 0.0000
vn 0.8271 0.5620 0.0000
vn -0.4356 0.9002 0.0000
vn 0.4104 0.9119 0.0000
vn -0.1830 0.9831 0.0000
vn 1.0000 0.0000 -0.0000
vn -0.0058 1.0000 0.0000
vn -1.0000 0.0000 -0.0000
vn 0.0000 -1.0000 -0.0000
vn -0.2327 0.9725 0.0000
vn -0.2321 0.9727 0.0000
vn -0.2334 -0.9724 -0.0000
vn 0.0000 1.0000 0.0000
vn 0.9570 -0.2901 -0.0000
vn 0.2327 -0.9726 -0.0000
vn 0.2332 0.9724 0.0000
vn -0.9566 -0.2913 -0.0000
vn -0.2318 0.9728 0.0000
vn 0.2369 0.9715 0.0000
vn -0.2306 -0.9730 -0.0000
vn 0.0008 -1.0000 -0.0000
vn -0.2659 -0.9640 -0.0000
vn 0.1425 0.9898 0.0000
vn -0.3568 -0.9342 -0.0000
vn 0.3307 0.9437 0.0000
vn 0.5525 0.8335 0.0000
vn 0.8266 0.5628 0.0000
vn 0.9406 0.3394 0.0000
vn 0.9568 0.2907 0.0000
vn 0.2376 0.9714 0.0000
vn 0.0869 0.9962 0.0000
vn 0.9640 -0.2659 -0.0000
vn -0.0593 0.9982 0.0000
vn 0.8546 -0.5193 -0.0000
vn -0.2937 0.9559 0.0000
vn 0.6541 -0.7564 -0.0000
vn -0.5145 0.8575 0.0000
vn 0.4164 -0.9092 -0.0000
vn -0.7882 0.6154 0.0000
vn 0.8753 0.4836 0.0000
vn -0.9738 0.2272 0.0000
vn 0.2412 0.9705 0.0000
vn -0.9904 -0.1382 -0.0000
vn -0.8459 -0.5333 -0.0000
vn -0.6332 -0.7740 -0.0000
vn -0.8848 -0.4660 -0.0000
vn -0.4600 -0.8879 -0.0000
vn -0.4483 -0.8939 -0.0000
vn -0.5746 -0.8184 -0.0000
vn 0.2560 0.9667 0.0000
vn -0.7639 -0.6454 -0.0000
vn -0.9335 -0.3586 -0.0000
vn -0.0002 -1.0000 -0.0000
vn -0.9913 -0.1317 -0.0000
vn -0.9981 0.0619 0.0000
vn -0.9479 0.3187 0.0000
vn -0.0096 -1.0000 -0.0000
vn -0.8272 0.5619 0.0000
vn -0.1235 -0.9923 -0.0000
vn -0.6585 0.7526 0.0000
vn -0.2730 -0.9620 -0.0000
vn -0.4822 0.8761 0.0000
vn -0.4835 -0.8753 -0.0000
vn -0.2993 0.9541 0.0000
vn -0.7170 -0.6971 -0.0000
vn -0.1299 0.9915 0.0000
vn -0.8944 -0.4472 -0.0000
vn -0.0292 0.9996 0.0000
vn -0.9868 -0.1619 -0.0000
vn 0.0463 0.9989 0.0000
vn -0.9996 0.0294 0.0000
vn 0.1143 0.9934 0.0000
vn -0.9701 0.2425 0.0000
vn 0.2163 0.9763 0.0000
vn -0.8545 0.5195 0.0000
vn 0.2795 0.9601 0.0000
vn -0.9374 -0.3481 -0.0000
vn -0.1708 -0.9853 -0.0000
vn -0.0948 -0.9955 -0.0000
vn 0.0393 -0.9992 -0.0000
vn -0.2288 0.9735 0.0000
vn 0.1725 -0.9850 -0.0000
vn -0.9342 0.3567 0.0000
vn 0.3490 -0.9371 -0.0000
vn 0.5711 -0.8209 -0.0000
vn 0.9415 0.3369 0.0000
vn 0.8631 -0.5050 -0.0000
vn 0.2330 0.9725 0.0000
vn 0.9887 -0.1498 -0.0000
vn 0.9757 0.2190 0.0000
vn 0.8320 0.5547 0.0000
vn 0.5882 0.8087 0.0000
vn -0.2360 0.9718 0.0000
vn 0.4602 0.8878 0.0000
vn -0.9423 -0.3348 -0.0000
vn 0.4326 0.9016 0.0000
vn 0.5713 0.8207 0.0000
vn 0.9328 -0.3603 -0.0000
vn 0.7269 0.6867 0.0000
vn 0.2337 0.9723 0.0000
vn 0.8784 0.4779 0.0000
vn 0.9688 0.2478 0.0000
vn 0.0009 -1.0000 -0.0000
vn 0.9987 0.0515 0.0000
vn 0.9953 -0.0963 -0.0000
vn 0.9359 -0.3523 -0.0000
vn 0.9629 -0.2699 -0.0000
vn -0.9390 -0.3440 -0.0000
vn 0.8944 -0.4472 -0.0000
vn 0.0012 1.0000 0.0000
vn 0.7827 -0.6223 -0.0000
vn 0.6590 -0.7522 -0.0000
vn 0.5180 -0.8554 -0.0000
vn 0.3534 -0.9355 -0.0000
vn -0.2317 0.9728 0.0000
vn 0.2076 -0.9782 -0.0000
vn 0.0778 -0.9970 -0.0000
vn -0.2326 -0.9726 -0.0000
vn -0.0553 -0.9985 -0.0000
vn -0.1623 -0.9867 -0.0000
vn -0.4237 -0.9058 -0.0000
vn 0.0908 0.9959 0.0000
vn -0.6326 -0.7745 -0.0000
vn 0.1648 0.9863 0.0000
vn -0.8575 -0.5145 -0.0000
vn 0.3352 0.9422 0.0000
vn -0.9756 -0.2195 -0.0000
vn 0.6000 0.8000 0.0000
vn -0.9992 -0.0405 -0.0000
vn 0.8500 0.5268 0.0000
vn 0.9793 0.2026 0.0000
vn -0.2319 -0.9727 -0.0000
vn 0.9996 -0.0274 -0.0000
vn 0.9595 -0.2817 -0.0000
vn 0.8597 -0.5108 -0.0000
vn 0.6630 -0.7486 -0.0000
vn 0.2324 -0.9726 -0.0000
vn 0.4496 -0.8932 -0.0000
vn 0.2747 -0.9615 -0.0000
vn 0.9949 0.1010 0.0000
vn 0.1125 -0.9937 -0.0000
vn 0.9505 0.3108 0.0000
vn 0.0085 -1.0000 -0.0000
vn 0.7696 0.6386 0.0000
vn 0.4722 0.8815 0.0000
vn 0.1858 0.9826 0.0000
vn 0.1696 0.9855 0.0000
vn -0.0487 0.9988 0.0000
vn 0.0003 -1.0000 -0.0000
vn -0.2964 0.9551 0.0000
vn -0.5447 0.8386 0.0000
vn -0.7889 0.6145 0.0000
vn -0.9331 0.3595 0.0000
vn -0.2158 -0.9764 -0.0000
vn -0.9923 0.1240 0.0000
vn -0.4654 -0.8851 -0.0000
vn -0.7071 -0.7071 -0.0000
vn -0.2291 -0.9734 -0.0000
vn -0.8988 -0.4383 -0.0000
vn -0.9849 -0.1732 -0.0000
vn -0.9979 0.0653 0.0000
vn -0.9578 0.2873 0.0000
vn 0.2337 -0.9723 -0.0000
vn -0.8359 0.5489 0.0000
vn -0.6311 0.7757 0.0000
vn 0.9866 -0.1633 -0.0000
vn -0.4183 0.9083 0.0000
vn 0.9456 -0.3254 -0.0000
vn -0.1679 0.9858 0.0000
vn 0.8480 -0.5300 -0.0000
vn 0.0116 0.9999 0.0000
vn 0.6783 -0.7348 -0.0000
vn 0.4803 -0.8771 -0.0000
vn 0.2806 -0.9598 -0.0000
vn -0.2372 0.9715 0.0000
vn 0.1104 -0.9939 -0.0000
vn -0.0331 -0.9995 -0.0000
vn -0.2355 -0.9719 -0.0000
vn -0.1507 -0.9886 -0.0000
vn -0.2711 -0.9625 -0.0000
vn -0.2315 0.9728 0.0000
vn 0.2365 -0.9716 -0.0000
vn -0.2337 -0.9723 -0.0000
vn -0.8982 0.4395 0.0000
vn 0.1225 0.9925 0.0000
vn 0.9905 -0.1376 -0.0000
vn 0.2507 0.9681 0.0000
vn 0.4191 0.9080 0.0000
vn 0.5966 0.8026 0.0000
vn 0.7669 0.6417 0.0000
vn 0.9130 0.4081 0.0000
vn 0.9901 0.1403 0.0000
vn 0.9996 -0.0300 -0.0000
vn 0.9859 -0.1676 -0.0000
vn 0.9442 -0.3294 -0.0000
vn 0.8533 -0.5214 -0.0000
vn 0.6912 -0.7226 -0.0000
vn 0.5437 -0.8393 -0.0000
vn 0.4051 -0.9143 -0.0000
vn 0.2356 -0.9719 -0.0000
vn 0.1053 -0.9944 -0.0000
vn 0.0002 -1.0000 -0.0000
vn -0.1487 -0.9889 -0.0000
vn -0.3247 -0.9458 -0.0000
vn -0.6054 -0.7959 -0.0000
vn -0.8235 -0.5673 -0.0000
vn -0.9451 -0.3267 -0.0000
vn -0.9930 -0.1177 -0.0000
vn -0.9998 0.0213 0.0000
vn -0.9826 0.1856 0.0000
vn -0.9030 0.4297 0.0000
vn -1.0000 -0.0000 -0.0000
vn -0.7385 0.6743 0.0000
vn -0.5158 0.8567 0.0000
vn -0.2814 0.9596 0.0000
vn -0.0920 0.9958 0.0000
vn -0.0025 1.0000 0.0000
vn -0.2346 0.9721 0.0000
vn -0.2358 -0.9718 -0.0000
vn 0.7380 0.6748 0.0000
vn -0.2351 -0.9720 -0.0000
vn 0.2318 -0.9728 -0.0000
vn 1.0000 -0.0000 0.0000
vn 0.9640 -0.2659 0.0000
vn -0.7382 -0.6745 -0.0000
vn 0.2391 0.9710 0.0000
vn -0.0004 -1.0000 -0.0000
vn -0.3154 -0.9490 -0.0000
vn -0.7860 0.6182 0.0000
vn -0.8370 -0.5472 -0.0000
vn 0.2250 -0.9744 -0.0000
# 240 vertex normals

g SPW_Urban_Text_Industrial_Park
usemtl SPW_Urban_Text
s off
f 1//1 2//1 3//1 4//1 
f 3//2 5//2 4//2 
f 1//2 4//2 6//2 7//2 
f 7//2 6//2 8//2 9//2 
f 8//2 10//2 9//2 
f 11//1 7//1 9//1 12//1 
s 1
f 13//2 14//1 15//1 16//3 
f 15//1 17//4 18//3 16//3 
f 19//3 13//2 16//3 20//2 
f 19//3 20//2 21//2 22//2 
f 22//2 23//2 24//2 19//3 
f 25//3 19//3 24//2 26//2 
f 27//3 18//3 17//4 28//4 
f 29//4 28//4 17//4 30//4 
f 31//4 30//4 17//4 32//1 
f 17//4 33//4 34//1 35//1 
f 34//1 36//2 35//1 
f 35//1 37//2 38//1 32//1 
f 38//1 39//1 32//1 
f 17//4 35//1 32//1 
f 40//1 31//4 32//1 41//1 
f 42//1 41//1 32//1 43//1 
f 32//1 44//3 45//4 46//1 
f 47//4 48//2 49//3 46//1 
f 49//3 50//2 46//1 
f 45//4 47//4 46//1 
f 43//1 32//1 46//1 51//3 
f 52//1 51//3 46//1 53//1 
f 20//2 53//1 46//1 21//2 
f 54//1 55//2 56//2 57//1 
f 56//2 58//2 57//1 
f 54//1 57//1 59//1 60//1 
f 60//1 59//1 61//2 62//1 
f 60//1 62//1 63//2 64//2 
f 65//3 64//2 63//2 66//2 
f 63//2 67//1 66//2 
f 65//3 66//2 68//2 69//2 
f 68//2 70//2 69//2 
f 71//2 65//3 69//2 72//2 
f 61//2 66//2 67//1 62//1 
f 73//1 74//2 75//1 76//1 
f 75//1 77//2 78//2 76//1 
f 79//1 73//1 76//1 80//2 
f 79//1 80//2 81//2 82//1 
f 82//1 83//2 84//1 79//1 
f 85//1 79//1 84//1 86//1 
f 87//1 78//2 77//2 88//2 
f 89//2 88//2 77//2 90//2 
f 77//2 91//2 92//4 93//1 
f 92//4 94//4 93//1 
f 93//1 95//1 96//1 90//2 
f 96//1 97//2 90//2 
f 77//2 93//1 90//2 
f 98//2 89//2 90//2 99//2 
f 100//1 99//2 90//2 101//4 
f 102//4 101//4 90//2 103//1 
f 104//1 103//1 90//2 105//1 
f 90//2 106//3 107//2 105//1 
f 107//2 108//3 105//1 
f 109//2 104//1 105//1 80//2 
f 80//2 105//1 110//4 81//2 
s off
f 111//2 112//2 113//2 114//2 
f 113//2 115//2 114//2 
f 111//2 114//2 116//2 117//2 
f 117//1 116//1 118//1 119//1 
f 120//2 121//2 122//2 119//2 
f 118//2 120//2 119//2 
f 123//1 117//1 119//1 124//1 
s 1
f 125//1 126//2 127//2 128//1 
f 127//2 129//2 128//1 
f 125//1 128//1 130//1 131//1 
f 125//1 131//1 132//1 133//3 
f 125//1 133//3 134//2 
f 135//3 136//2 134//2 133//3 
f 133//3 137//1 138//3 139//2 
f 135//3 133//3 139//2 140//2 
f 139//2 141//2 140//2 
f 142//2 135//3 140//2 143//2 
f 131//1 138//3 137//1 132//1 
s off
f 144//1 145//1 146//1 147//1 
f 146//2 148//2 147//2 
f 144//2 147//2 149//2 150//2 
f 150//2 149//2 151//2 152//2 
f 151//2 153//2 152//2 
f 154//1 150//1 152//1 155//1 
s 1
f 156//2 157//2 158//2 159//3 
f 158//2 160//2 159//3 
f 156//2 159//3 161//3 162//2 
f 163//2 162//2 161//3 164//3 
f 164//3 161//3 165//2 166//1 
f 165//2 167//1 166//1 
f 168//2 164//3 166//1 169//4 
f 169//4 166//1 170//4 
f 171//4 169//4 170//4 172//4 
f 173//4 172//4 170//4 174//4 
f 170//4 175//4 176//1 177//1 
f 176//1 178//2 177//1 
f 177//1 179//2 180//1 181//1 
f 180//1 182//1 181//1 
f 170//4 177//1 181//1 174//4 
f 183//1 174//4 181//1 184//1 
f 185//1 184//1 181//1 186//1 
f 181//1 187//3 188//4 189//1 
f 190//4 191//2 192//3 189//1 
f 192//3 193//2 189//1 
f 188//4 190//4 189//1 
f 186//1 181//1 189//1 194//3 
f 195//1 194//3 189//1 196//1 
f 163//2 196//1 189//1 162//2 
s off
f 197//2 198//2 199//2 200//2 
f 201//2 197//2 200//2 202//2 
f 203//1 204//1 205//1 206//1 
f 200//3 203//3 206//3 202//3 
f 207//2 201//2 202//2 208//2 
f 208//2 209//2 210//2 207//2 
f 211//2 207//2 210//2 212//2 
f 213//2 214//2 215//2 216//2 
f 215//4 217//4 218//4 216//4 
f 219//2 220//2 221//2 222//2 
f 221//2 223//2 224//2 225//2 
f 224//1 226//1 225//1 
f 222//2 221//2 225//2 227//2 
f 225//1 228//1 229//1 230//1 
f 229//1 231//1 230//1 
f 230//3 232//3 233//3 234//3 
f 233//2 235//2 234//2 
f 225//3 230//3 234//3 236//3 
f 234//2 237//2 238//2 239//2 
f 238//1 240//1 239//1 
f 239//4 241//4 242//4 234//4 
f 234//4 242//4 243//4 244//4 
f 234//3 244//3 245//3 236//3 
f 225//2 236//2 246//2 247//2 
f 225//3 247//3 248//3 249//3 
f 225//2 249//2 250//2 227//2 
f 227//2 250//2 251//2 252//2 
f 253//2 254//2 255//2 256//2 
f 255//1 257//1 258//1 252//1 
f 258//4 259//4 252//4 
f 256//4 255//4 252//4 251//4 
f 260//2 227//2 252//2 261//2 
f 262//3 261//3 252//3 263//3 
f 264//3 263//3 252//3 265//3 
f 252//2 266//2 267//2 268//2 
f 267//1 269//1 268//1 
f 268//3 270//3 271//3 265//3 
f 271//2 272//2 265//2 
f 252//2 268//2 265//2 
f 273//3 264//3 265//3 274//3 
f 275//4 274//4 265//4 218//4 
f 265//4 276//4 216//4 218//4 
f 213//2 216//2 277//2 
f 278//4 279//4 280//4 281//4 
f 280//2 282//2 283//2 284//2 
f 284//2 285//2 286//2 287//2 
f 286//2 288//2 287//2 
f 284//1 287//1 289//1 280//1 
f 280//2 289//2 290//2 291//2 
f 280//1 291//1 292//1 293//1 
f 294//2 295//2 296//2 297//2 
f 296//2 298//2 297//2 
f 294//1 297//1 299//1 300//1 
f 301//2 300//2 299//2 302//2 
f 299//1 303//1 304//1 302//1 
f 304//1 305//1 302//1 
f 306//4 301//4 302//4 307//4 
f 308//4 307//4 302//4 309//4 
f 302//3 310//3 311//3 293//3 
f 311//2 312//2 293//2 
f 309//1 302//1 293//1 313//1 
f 314//2 313//2 293//2 315//2 
f 292//2 315//2 293//2 
f 293//2 316//2 281//2 280//2 
f 278//4 281//4 317//4 
s 1
f 318//4 319//2 320//1 321//1 
f 320//1 322//2 323//1 321//1 
f 324//1 318//4 321//1 325//4 
f 326//1 324//1 325//4 327//4 
f 326//1 327//4 328//1 
f 329//2 323//1 322//2 330//2 
f 331//2 330//2 322//2 332//2 
f 322//2 333//2 334//2 335//2 
f 334//2 336//4 335//2 
f 335//2 337//2 338//1 332//2 
f 338//1 339//1 332//2 
f 322//2 335//2 332//2 
f 340//2 331//2 332//2 341//2 
f 342//2 341//2 332//2 343//2 
f 344//3 343//2 332//2 345//3 
f 346//3 345//3 332//2 347//3 
f 332//2 348//1 349//3 350//3 
f 349//3 351//3 350//3 
f 350//3 352//1 347//3 332//2 
f 353//3 346//3 347//3 354//3 
f 355//4 354//3 347//3 325//4 
f 325//4 347//3 356//2 327//4 
s off
f 357//4 358//4 359//4 360//4 
f 359//2 361//2 360//2 
f 362//2 363//2 364//2 365//2 
f 364//2 366//2 365//2 
f 362//2 365//2 367//2 360//2 
f 367//2 368//2 369//2 360//2 
f 357//1 360//1 369//1 370//1 
f 371//2 357//2 370//2 372//2 
f 372//2 373//2 374//2 371//2 
f 375//1 371//1 374//1 376//1 
f 377//1 378//1 379//1 380//1 
f 379//2 381//2 380//2 
f 377//2 380//2 382//2 383//2 
f 383//2 382//2 384//2 385//2 
f 384//2 386//2 385//2 
f 387//1 383//1 385//1 388//1 
f 389//1 390//1 391//1 392//1 
f 391//2 393//2 392//2 
f 389//2 392//2 394//2 395//2 
f 396//2 397//2 398//2 395//2 
f 398//2 399//2 395//2 
f 400//2 396//2 395//2 394//2 
f 401//5 402//5 403//5 404//5 
f 405//6 406//6 407//6 408//6 
f 407//6 409//6 408//6 
f 405//5 408//5 410//5 411//5 
f 411//5 410//5 404//5 403//5 
f 412//6 401//6 404//6 
s 1
f 413//5 414//5 415//5 416//5 
f 417//7 418//7 419//8 420//5 
f 419//8 421//6 420//5 
f 417//7 420//5 422//5 423//5 
f 424//5 423//5 422//5 425//5 
f 425//5 422//5 416//5 415//5 
f 426//6 413//5 416//5 
f 427//6 428//6 429//7 430//8 
f 429//7 431//5 430//8 
f 427//6 430//8 432//6 433//6 
f 432//6 434//6 435//8 436//6 
f 435//8 437//6 436//6 
f 436//6 438//5 439//6 440//6 
f 439//6 441//8 440//6 
f 432//6 436//6 440//6 442//6 
f 440//6 443//5 419//8 444//7 
f 419//8 418//7 444//7 
f 440//6 444//7 445//8 446//8 
f 440//6 446//8 447//8 448//8 
f 440//6 448//8 442//6 
f 432//6 442//6 449//5 450//6 
f 432//6 450//6 433//6 
f 427//6 433//6 451//7 424//5 
f 424//5 451//7 452//6 453//6 
f 423//5 424//5 453//6 
f 454//5 455//5 456//5 457//8 
f 458//6 459//5 460//5 461//6 
f 460//5 462//6 461//6 
f 458//6 461//6 457//8 463//8 
f 456//5 463//8 457//8 
f 464//6 454//5 457//8 
f 465//5 466//5 467//5 468//5 
f 469//7 470//6 455//5 471//5 
f 455//5 454//5 468//5 471//5 
f 467//5 471//5 468//5 
f 472//6 465//5 468//5 
f 463//8 456//5 470//6 469//7 
f 473//6 474//5 475//5 476//5 
f 477//6 478//5 479//6 480//6 
f 479//6 481//6 480//6 
f 477//6 480//6 482//8 483//5 
f 484//5 483//5 482//8 485//5 
f 485//5 482//8 476//5 475//5 
f 486//6 473//6 476//5 
f 484//5 487//7 488//6 489//6 
f 488//6 490//6 489//6 
f 489//6 491//7 492//6 493//6 
f 492//6 494//5 493//6 
f 484//5 489//6 493//6 495//6 
f 493//6 496//8 497//8 498//8 
f 497//8 499//8 498//8 
f 498//8 500//5 479//6 501//6 
f 479//6 478//5 501//6 
f 493//6 498//8 501//6 502//5 
f 493//6 502//5 503//6 504//5 
f 493//6 504//5 505//5 506//6 
f 493//6 506//6 507//7 495//6 
f 484//5 495//6 508//7 509//6 
f 484//5 509//6 510//5 483//5 
s off
f 511//5 512//5 513//5 514//5 
f 511//6 514//6 515//6 516//6 
f 517//5 518//5 519//5 520//5 
f 519//6 521//6 520//6 
f 517//5 520//5 522//5 515//5 
f 515//6 522//6 516//6 
f 523//6 511//6 516//6 524//6 
s 1
f 525//6 526//5 527//5 528//5 
f 525//6 528//5 529//8 530//6 
f 530//6 531//5 532//5 525//6 
f 525//6 532//5 533//5 534//5 
f 535//5 536//5 537//5 538//5 
f 539//7 540//6 527//5 541//5 
f 527//5 526//5 542//5 538//5 
f 541//5 527//5 538//5 537//5 
f 543//6 535//5 538//5 
f 529//8 528//5 540//6 539//7 
s off
f 544//5 545//5 546//5 547//5 
f 548//6 549//6 550//6 551//6 
f 550//6 552//6 551//6 
f 548//5 551//5 553//5 554//5 
f 554//5 553//5 547//5 546//5 
f 555//6 544//6 547//6 
s 1
f 556//8 557//6 558//6 559//5 
f 560//5 561//6 562//5 563//5 
f 562//5 564//5 563//5 
f 560//5 563//5 565//5 559//5 
f 559//5 565//5 566//5 567//5 
f 559//5 567//5 568//7 556//8 
f 556//8 568//7 569//7 570//7 
f 571//6 572//6 573//7 574//8 
f 573//7 575//5 574//8 
f 571//6 574//8 576//6 577//6 
f 576//6 578//6 579//8 580//6 
f 579//8 581//6 580//6 
f 580//6 582//5 583//6 584//6 
f 583//6 585//8 584//6 
f 576//6 580//6 584//6 586//6 
f 584//6 587//5 556//8 588//8 
f 556//8 570//7 588//8 
f 584//6 588//8 589//8 590//8 
f 584//6 590//8 591//8 586//6 
f 576//6 586//6 592//5 593//6 
f 576//6 593//6 577//6 
f 571//6 577//6 594//7 566//5 
f 566//5 594//7 595//6 596//6 
f 567//5 566//5 596//6 
s off
f 597//5 598//5 599//5 600//5 
f 601//6 602//6 603//6 604//6 
f 605//6 601//6 604//6 606//6 
f 607//5 608//5 609//5 610//5 
f 604//6 607//6 610//6 606//6 
f 611//5 605//5 606//5 600//5 
f 599//7 611//7 600//7 
f 612//6 597//6 600//6 
f 613//5 614//5 615//5 616//5 
f 615//6 617//6 618//6 619//6 
f 618//6 620//6 619//6 
f 619//6 621//6 622//6 623//6 
f 622//6 624//6 623//6 
f 615//8 619//8 623//8 625//8 
f 623//6 626//6 627//6 628//6 
f 627//8 629//8 628//8 
f 628//5 630//5 631//5 632//5 
f 631//8 633//8 632//8 
f 623//5 628//5 632//5 634//5 
f 623//5 634//5 635//5 636//5 
f 637//6 638//6 639//6 640//6 
f 639//6 641//6 640//6 
f 642//6 637//6 640//6 643//6 
f 644//7 643//7 640//7 645//7 
f 640//5 646//5 647//5 648//5 
f 647//5 649//5 648//5 
f 648//7 650//7 651//7 636//7 
f 651//6 652//6 636//6 
f 640//7 648//7 636//7 645//7 
f 653//7 645//7 636//7 654//7 
f 655//7 654//7 636//7 656//7 
f 657//5 656//5 636//5 635//5 
f 636//6 658//6 659//6 660//6 
f 659//6 661//6 660//6 
f 660//8 662//8 663//8 664//8 
f 663//5 665//5 664//5 
f 636//5 660//5 664//5 666//5 
f 636//5 666//5 667//5 623//5 
f 623//5 667//5 668//5 669//5 
f 623//7 669//7 670//7 671//7 
f 623//5 671//5 625//5 
f 615//7 625//7 672//7 673//7 
f 615//8 673//8 674//8 675//8 
f 675//8 676//8 616//8 615//8 
f 613//5 616//5 677//5 
f 678//6 679//6 680//6 681//6 
f 680//8 682//8 681//8 
f 681//7 683//7 684//7 685//7 
f 684//7 686//7 685//7 
f 678//6 681//6 685//6 687//6 
f 685//6 688//6 689//6 690//6 
f 689//6 691//6 690//6 
f 690//5 692//5 693//5 694//5 
f 693//6 695//6 694//6 
f 690//6 694//6 696//6 685//6 
f 685//5 696//5 697//5 698//5 
f 685//7 698//7 699//7 700//7 
f 685//8 700//8 701//8 687//8 
f 678//7 687//7 702//7 703//7 
f 678//8 703//8 704//8 705//8 
f 706//5 707//5 708//5 709//5 
f 708//6 710//6 709//6 
f 706//6 709//6 711//6 712//6 
f 713//5 712//5 711//5 705//5 
f 678//5 705//5 711//5 714//5 
f 711//6 715//6 714//6 
f 678//7 714//7 716//7 717//7 
s 1
f 718//6 719//7 720//8 721//6 
f 722//6 723//6 724//5 725//6 
f 724//5 726//6 725//6 
f 722//6 725//6 727//8 720//8 
f 720//8 727//8 721//6 
f 728//6 718//6 721//6 
f 719//7 729//6 730//5 731//7 
f 730//5 732//6 731//7 
f 731//7 733//7 734//7 735//5 
f 734//7 736//6 735//5 
f 719//7 731//7 735//5 737//7 
f 735//5 738//6 739//6 740//5 
f 739//6 741//5 740//5 
f 740//5 742//8 743//5 724//5 
f 743//5 744//5 724//5 
f 735//5 740//5 724//5 745//5 
f 724//5 723//6 746//5 747//5 
f 724//5 747//5 745//5 
f 735//5 745//5 748//5 749//5 
f 735//5 749//5 750//5 751//5 
f 735//5 751//5 752//7 737//7 
f 719//7 737//7 753//6 754//7 
f 719//7 754//7 755//7 756//8 
f 720//8 719//7 756//8 
s off
f 757//5 758//5 759//5 760//5 
f 761//6 762//6 763//6 764//6 
f 765//5 766//5 767//5 768//5 
f 767//6 769//6 768//6 
f 765//5 768//5 770//5 763//5 
f 763//5 770//5 764//5 
f 764//6 771//6 772//6 773//6 
f 772//5 774//5 773//5 
f 761//6 764//6 773//6 775//6 
f 775//5 773//5 760//5 759//5 
f 776//6 757//6 760//6 
f 777//5 778//5 779//5 780//5 
f 781//6 782//6 783//6 784//6 
f 783//6 785//6 784//6 
f 781//5 784//5 786//5 787//5 
f 787//5 786//5 780//5 779//5 
f 788//6 777//6 780//6 
f 789//5 790//5 791//5 792//5 
f 791//6 793//6 792//6 
f 789//6 792//6 794//6 795//6 
f 795//6 794//6 796//6 797//6 
f 796//6 798//6 797//6 
f 795//5 797//5 799//5 800//5 
f 400//9 394//9 796//9 794//9 
f 186//10 194//10 594//10 577//10 
f 396//11 400//11 794//11 792//11 
f 194//12 195//12 595//12 594//12 
f 397//13 396//13 792//13 793//13 
f 195//14 196//14 596//14 595//14 
f 398//15 397//15 793//15 791//15 
f 196//16 163//16 567//16 596//16 
f 11//17 12//17 401//17 412//17 
f 399//18 398//18 791//18 790//18 
f 7//19 11//19 412//19 404//19 
f 211//17 212//17 597//17 612//17 
f 1//17 7//17 404//17 410//17 
f 207//20 211//20 612//20 600//20 
f 2//21 1//21 410//21 408//21 
f 201//17 207//17 600//17 606//17 
f 3//17 2//17 408//17 409//17 
f 197//18 201//18 606//18 610//18 
f 5//22 3//22 409//22 407//22 
f 198//23 197//23 610//23 609//23 
f 4//15 5//15 407//15 406//15 
f 199//18 198//18 609//18 608//18 
f 6//24 4//24 406//24 405//24 
f 200//17 199//17 608//17 607//17 
f 8//15 6//15 405//15 411//15 
f 203//22 200//22 607//22 604//22 
f 10//25 8//25 411//25 403//25 
f 204//15 203//15 604//15 603//15 
f 9//15 10//15 403//15 402//15 
f 205//18 204//18 603//18 602//18 
f 12//18 9//18 402//18 401//18 
f 206//26 205//26 602//26 601//26 
f 25//17 26//17 413//17 426//17 
f 202//18 206//18 601//18 605//18 
f 19//27 25//27 426//27 416//27 
f 208//15 202//15 605//15 611//15 
f 13//17 19//17 416//17 422//17 
f 209//28 208//28 611//28 599//28 
f 14//29 13//29 422//29 420//29 
f 210//15 209//15 599//15 598//15 
f 15//17 14//17 420//17 421//17 
f 212//30 210//30 598//30 597//30 
f 17//22 15//22 421//22 419//22 
f 213//31 277//31 614//31 613//31 
f 33//32 17//32 419//32 443//32 
f 214//33 213//33 613//33 677//33 
f 34//34 33//34 443//34 440//34 
f 215//17 214//17 677//17 616//17 
f 36//35 34//35 440//35 441//35 
f 217//22 215//22 616//22 676//22 
f 35//36 36//36 441//36 439//36 
f 218//37 217//37 676//37 675//37 
f 37//38 35//38 439//38 438//38 
f 275//39 218//39 675//39 674//39 
f 38//15 37//15 438//15 436//15 
f 274//40 275//40 674//40 673//40 
f 39//41 38//41 436//41 437//41 
f 273//42 274//42 673//42 672//42 
f 32//43 39//43 437//43 435//43 
f 264//44 273//44 672//44 625//44 
f 44//45 32//45 435//45 434//45 
f 263//46 264//46 625//46 671//46 
f 45//47 44//47 434//47 432//47 
f 262//48 263//48 671//48 670//48 
f 47//49 45//49 432//49 430//49 
f 261//50 262//50 670//50 669//50 
f 48//51 47//51 430//51 431//51 
f 260//52 261//52 669//52 668//52 
f 49//15 48//15 431//15 429//15 
f 227//53 260//53 668//53 667//53 
f 50//18 49//18 429//18 428//18 
f 222//54 227//54 667//54 666//54 
f 46//55 50//55 428//55 427//55 
f 219//56 222//56 666//56 664//56 
f 21//18 46//18 427//18 424//18 
f 220//57 219//57 664//57 665//57 
f 22//15 21//15 424//15 425//15 
f 221//58 220//58 665//58 663//58 
f 23//59 22//59 425//59 415//59 
f 223//60 221//60 663//60 662//60 
f 24//15 23//15 415//15 414//15 
f 224//61 223//61 662//61 660//61 
f 26//62 24//62 414//62 413//62 
f 226//63 224//63 660//63 661//63 
f 225//64 226//64 661//64 659//64 
f 20//15 16//15 417//15 423//15 
f 228//65 225//65 659//65 658//65 
f 16//66 18//66 418//66 417//66 
f 229//67 228//67 658//67 636//67 
f 18//68 27//68 444//68 418//68 
f 231//69 229//69 636//69 652//69 
f 27//70 28//70 445//70 444//70 
f 230//71 231//71 652//71 651//71 
f 28//72 29//72 446//72 445//72 
f 232//73 230//73 651//73 650//73 
f 29//74 30//74 447//74 446//74 
f 233//75 232//75 650//75 648//75 
f 30//76 31//76 448//76 447//76 
f 235//77 233//77 648//77 649//77 
f 31//78 40//78 442//78 448//78 
f 234//79 235//79 649//79 647//79 
f 40//80 41//80 449//80 442//80 
f 237//81 234//81 647//81 646//81 
f 41//82 42//82 450//82 449//82 
f 238//83 237//83 646//83 640//83 
f 42//84 43//84 433//84 450//84 
f 240//85 238//85 640//85 641//85 
f 43//10 51//10 451//10 433//10 
f 239//15 240//15 641//15 639//15 
f 51//12 52//12 452//12 451//12 
f 241//18 239//18 639//18 638//18 
f 52//14 53//14 453//14 452//14 
f 242//86 241//86 638//86 637//86 
f 53//16 20//16 423//16 453//16 
f 243//87 242//87 637//87 642//87 
f 244//88 243//88 642//88 643//88 
f 71//17 72//17 465//17 472//17 
f 245//89 244//89 643//89 644//89 
f 65//90 71//90 472//90 468//90 
f 236//91 245//91 644//91 645//91 
f 64//92 65//92 468//92 454//92 
f 246//93 236//93 645//93 653//93 
f 60//22 64//22 454//22 464//22 
f 247//94 246//94 653//94 654//94 
f 54//95 60//95 464//95 457//95 
f 248//96 247//96 654//96 655//96 
f 55//97 54//97 457//97 461//97 
f 249//98 248//98 655//98 656//98 
f 56//15 55//15 461//15 462//15 
f 250//99 249//99 656//99 657//99 
f 58//18 56//18 462//18 460//18 
f 251//100 250//100 657//100 635//100 
f 57//17 58//17 460//17 459//17 
f 256//101 251//101 635//101 634//101 
f 59//102 57//102 459//102 458//102 
f 253//103 256//103 634//103 632//103 
f 61//104 59//104 458//104 463//104 
f 254//105 253//105 632//105 633//105 
f 66//18 61//18 463//18 469//18 
f 255//106 254//106 633//106 631//106 
f 68//107 66//107 469//107 471//107 
f 257//108 255//108 631//108 630//108 
f 70//109 68//109 471//109 467//109 
f 258//110 257//110 630//110 628//110 
f 69//15 70//15 467//15 466//15 
f 259//111 258//111 628//111 629//111 
f 72//112 69//112 466//112 465//112 
f 252//113 259//113 629//113 627//113 
f 266//114 252//114 627//114 626//114 
f 67//115 63//115 455//115 470//115 
f 267//116 266//116 626//116 623//116 
f 63//117 62//117 456//117 455//117 
f 269//118 267//118 623//118 624//118 
f 62//119 67//119 470//119 456//119 
f 268//120 269//120 624//120 622//120 
f 270//121 268//121 622//121 621//121 
f 271//122 270//122 621//122 619//122 
f 85//17 86//17 473//17 486//17 
f 272//123 271//123 619//123 620//123 
f 79//124 85//124 486//124 476//124 
f 265//125 272//125 620//125 618//125 
f 73//17 79//17 476//17 482//17 
f 276//126 265//126 618//126 617//126 
f 74//127 73//127 482//127 480//127 
f 216//128 276//128 617//128 615//128 
f 75//17 74//17 480//17 481//17 
f 277//129 216//129 615//129 614//129 
f 77//22 75//22 481//22 479//22 
f 278//130 317//130 679//130 678//130 
f 91//131 77//131 479//131 500//131 
f 279//132 278//132 678//132 717//132 
f 92//133 91//133 500//133 498//133 
f 280//134 279//134 717//134 716//134 
f 94//135 92//135 498//135 499//135 
f 282//136 280//136 716//136 714//136 
f 93//137 94//137 499//137 497//137 
f 283//138 282//138 714//138 715//138 
f 95//139 93//139 497//139 496//139 
f 284//17 283//17 715//17 711//17 
f 96//140 95//140 496//140 493//140 
f 285//141 284//141 711//141 709//141 
f 97//142 96//142 493//142 494//142 
f 286//17 285//17 709//17 710//17 
f 90//143 97//143 494//143 492//143 
f 288//22 286//22 710//22 708//22 
f 106//144 90//144 492//144 491//144 
f 287//15 288//15 708//15 707//15 
f 107//145 106//145 491//145 489//145 
f 289//146 287//146 707//146 706//146 
f 108//147 107//147 489//147 490//147 
f 290//15 289//15 706//15 712//15 
f 105//148 108//148 490//148 488//148 
f 291//149 290//149 712//149 713//149 
f 110//150 105//150 488//150 487//150 
f 292//151 291//151 713//151 705//151 
f 81//152 110//152 487//152 484//152 
f 315//153 292//153 705//153 704//153 
f 82//15 81//15 484//15 485//15 
f 314//154 315//154 704//154 703//154 
f 83//155 82//155 485//155 475//155 
f 313//156 314//156 703//156 702//156 
f 84//15 83//15 475//15 474//15 
f 309//157 313//157 702//157 687//157 
f 86//158 84//158 474//158 473//158 
f 308//159 309//159 687//159 701//159 
f 307//160 308//160 701//160 700//160 
f 80//15 76//15 477//15 483//15 
f 306//161 307//161 700//161 699//161 
f 76//18 78//18 478//18 477//18 
f 301//162 306//162 699//162 698//162 
f 78//163 87//163 501//163 478//163 
f 300//164 301//164 698//164 697//164 
f 87//165 88//165 502//165 501//165 
f 294//17 300//17 697//17 696//17 
f 88//166 89//166 503//166 502//166 
f 295//167 294//167 696//167 694//167 
f 89//168 98//168 504//168 503//168 
f 296//17 295//17 694//17 695//17 
f 98//169 99//169 505//169 504//169 
f 298//22 296//22 695//22 693//22 
f 99//170 100//170 506//170 505//170 
f 297//15 298//15 693//15 692//15 
f 100//171 101//171 507//171 506//171 
f 299//172 297//172 692//172 690//172 
f 101//173 102//173 495//173 507//173 
f 303//15 299//15 690//15 691//15 
f 102//174 103//174 508//174 495//174 
f 304//175 303//175 691//175 689//175 
f 103//176 104//176 509//176 508//176 
f 305//177 304//177 689//177 688//177 
f 104//178 109//178 510//178 509//178 
f 302//179 305//179 688//179 685//179 
f 109//180 80//180 483//180 510//180 
f 310//181 302//181 685//181 686//181 
f 311//182 310//182 686//182 684//182 
f 123//17 124//17 523//17 524//17 
f 312//183 311//183 684//183 683//183 
f 117//184 123//184 524//184 516//184 
f 293//185 312//185 683//185 681//185 
f 111//17 117//17 516//17 522//17 
f 316//186 293//186 681//186 682//186 
f 112//187 111//187 522//187 520//187 
f 281//188 316//188 682//188 680//188 
f 113//17 112//17 520//17 521//17 
f 317//189 281//189 680//189 679//189 
f 115//22 113//22 521//22 519//22 
f 326//17 328//17 718//17 728//17 
f 114//15 115//15 519//15 518//15 
f 324//190 326//190 728//190 721//190 
f 116//191 114//191 518//191 517//191 
f 318//17 324//17 721//17 727//17 
f 118//15 116//15 517//15 515//15 
f 319//192 318//192 727//192 725//192 
f 120//22 118//22 515//22 514//22 
f 320//17 319//17 725//17 726//17 
f 121//193 120//193 514//193 513//193 
f 322//22 320//22 726//22 724//22 
f 122//22 121//22 513//22 512//22 
f 333//194 322//194 724//194 744//194 
f 119//195 122//195 512//195 511//195 
f 334//196 333//196 744//196 743//196 
f 124//18 119//18 511//18 523//18 
f 336//197 334//197 743//197 742//197 
f 142//17 143//17 535//17 543//17 
f 335//198 336//198 742//198 740//198 
f 135//90 142//90 543//90 538//90 
f 337//199 335//199 740//199 741//199 
f 136//92 135//92 538//92 542//92 
f 338//200 337//200 741//200 739//200 
f 134//22 136//22 542//22 526//22 
f 339//201 338//201 739//201 738//201 
f 125//95 134//95 526//95 525//95 
f 332//202 339//202 738//202 735//202 
f 126//97 125//97 525//97 534//97 
f 348//203 332//203 735//203 736//203 
f 127//15 126//15 534//15 533//15 
f 349//204 348//204 736//204 734//204 
f 129//18 127//18 533//18 532//18 
f 351//205 349//205 734//205 733//205 
f 128//17 129//17 532//17 531//17 
f 350//206 351//206 733//206 731//206 
f 130//102 128//102 531//102 530//102 
f 352//207 350//207 731//207 732//207 
f 131//104 130//104 530//104 529//104 
f 347//208 352//208 732//208 730//208 
f 138//18 131//18 529//18 539//18 
f 356//209 347//209 730//209 729//209 
f 139//107 138//107 539//107 541//107 
f 327//210 356//210 729//210 719//210 
f 141//109 139//109 541//109 537//109 
f 328//211 327//211 719//211 718//211 
f 140//15 141//15 537//15 536//15 
f 143//112 140//112 536//112 535//112 
f 325//15 321//15 722//15 720//15 
f 321//18 323//18 723//18 722//18 
f 137//115 133//115 527//115 540//115 
f 323//212 329//212 746//212 723//212 
f 133//117 132//117 528//117 527//117 
f 329//213 330//213 747//213 746//213 
f 132//119 137//119 540//119 528//119 
f 330//214 331//214 745//214 747//214 
f 331//215 340//215 748//215 745//215 
f 340//216 341//216 749//216 748//216 
f 154//17 155//17 544//17 555//17 
f 341//217 342//217 750//217 749//217 
f 150//19 154//19 555//19 547//19 
f 342//218 343//218 751//218 750//218 
f 144//17 150//17 547//17 553//17 
f 343//219 344//219 752//219 751//219 
f 145//21 144//21 553//21 551//21 
f 344//220 345//220 737//220 752//220 
f 146//221 145//221 551//221 552//221 
f 345//222 346//222 753//222 737//222 
f 148//22 146//22 552//22 550//22 
f 346//223 353//223 754//223 753//223 
f 147//15 148//15 550//15 549//15 
f 353//224 354//224 755//224 754//224 
f 149//24 147//24 549//24 548//24 
f 354//225 355//225 756//225 755//225 
f 151//15 149//15 548//15 554//15 
f 355//226 325//226 720//226 756//226 
f 153//25 151//25 554//25 546//25 
f 152//15 153//15 546//15 545//15 
f 375//17 376//17 757//17 776//17 
f 155//18 152//18 545//18 544//18 
f 371//227 375//227 776//227 760//227 
f 159//17 160//17 562//17 561//17 
f 357//17 371//17 760//17 773//17 
f 161//27 159//27 561//27 560//27 
f 358//228 357//228 773//228 774//228 
f 165//17 161//17 560//17 559//17 
f 359//17 358//17 774//17 772//17 
f 167//29 165//29 559//29 558//29 
f 361//22 359//22 772//22 771//22 
f 166//17 167//17 558//17 557//17 
f 360//229 361//229 771//229 764//229 
f 170//22 166//22 557//22 556//22 
f 362//17 360//17 764//17 770//17 
f 175//32 170//32 556//32 587//32 
f 363//230 362//230 770//230 768//230 
f 176//34 175//34 587//34 584//34 
f 364//17 363//17 768//17 769//17 
f 178//35 176//35 584//35 585//35 
f 366//22 364//22 769//22 767//22 
f 177//36 178//36 585//36 583//36 
f 365//15 366//15 767//15 766//15 
f 179//38 177//38 583//38 582//38 
f 367//231 365//231 766//231 765//231 
f 180//232 179//232 582//232 580//232 
f 368//15 367//15 765//15 763//15 
f 182//233 180//233 580//233 581//233 
f 369//18 368//18 763//18 762//18 
f 181//43 182//43 581//43 579//43 
f 370//234 369//234 762//234 761//234 
f 187//45 181//45 579//45 578//45 
f 372//15 370//15 761//15 775//15 
f 188//47 187//47 578//47 576//47 
f 373//235 372//235 775//235 759//235 
f 190//49 188//49 576//49 574//49 
f 374//15 373//15 759//15 758//15 
f 191//51 190//51 574//51 575//51 
f 376//236 374//236 758//236 757//236 
f 192//232 191//232 575//232 573//232 
f 387//17 388//17 777//17 788//17 
f 193//18 192//18 573//18 572//18 
f 383//19 387//19 788//19 780//19 
f 189//55 193//55 572//55 571//55 
f 377//17 383//17 780//17 786//17 
f 162//18 189//18 571//18 566//18 
f 378//21 377//21 786//21 784//21 
f 156//15 162//15 566//15 565//15 
f 379//17 378//17 784//17 785//17 
f 157//59 156//59 565//59 563//59 
f 381//22 379//22 785//22 783//22 
f 158//15 157//15 563//15 564//15 
f 380//15 381//15 783//15 782//15 
f 160//62 158//62 564//62 562//62 
f 382//24 380//24 782//24 781//24 
f 384//15 382//15 781//15 787//15 
f 163//15 164//15 568//15 567//15 
f 386//25 384//25 787//25 779//25 
f 164//66 168//66 569//66 568//66 
f 385//15 386//15 779//15 778//15 
f 168//68 169//68 570//68 569//68 
f 388//18 385//18 778//18 777//18 
f 169//70 171//70 588//70 570//70 
f 390//237 389//237 795//237 800//237 
f 171//72 172//72 589//72 588//72 
f 389//238 395//238 789//238 795//238 
f 172//74 173//74 590//74 589//74 
f 395//239 399//239 790//239 789//239 
f 173//76 174//76 591//76 590//76 
f 391//17 390//17 800//17 799//17 
f 174//78 183//78 586//78 591//78 
f 393//22 391//22 799//22 797//22 
f 183//80 184//80 592//80 586//80 
f 392//15 393//15 797//15 798//15 
f 184//82 185//82 593//82 592//82 
f 394//240 392//240 798//240 796//240 
f 185//84 186//84 577//84 593//84 
# 720 polygons - 124 triangles

