# 3ds Max Wavefront OBJ Exporter v0.97b - (c)2007 guruware
# File Created: 15.03.2017 11:47:06

mtllib SPW_Urban_Text_School.mtl

#
# object SPW_Urban_Text_School
#

v  -61.9205 0.5559 -1.9685
v  -63.1484 1.0249 -1.9685
v  -63.1484 6.8067 -1.9685
v  -57.9618 -0.3155 -1.9685
v  -61.3803 6.8067 -1.9685
v  -59.7959 2.4155 -1.9685
v  -55.2323 8.6674 -1.9685
v  -58.6806 10.3966 -1.9685
v  -60.6042 11.7473 -1.9685
v  -52.9608 7.4907 -1.9685
v  -62.1084 13.5277 -1.9685
v  -62.7018 15.0728 -1.9685
v  -62.8144 17.8559 -1.9685
v  -62.8962 16.5360 -1.9685
v  -51.9478 6.6619 -1.9685
v  -62.4153 19.0429 -1.9685
v  -61.6786 20.1275 -1.9685
v  -59.2945 21.7851 -1.9685
v  -60.6145 21.0586 -1.9685
v  -57.7290 22.2762 -1.9685
v  -56.2453 22.4706 -1.9685
v  -53.2984 22.4399 -1.9685
v  -54.8435 22.5116 -1.9685
v  -56.3061 19.9784 -1.9685
v  -50.9860 22.1739 -1.9685
v  -49.1851 21.7748 -1.9685
v  -48.3768 15.7494 -1.9685
v  -48.3768 21.5395 -1.9685
v  -50.1080 15.7494 -1.9685
v  -51.6732 19.9641 -1.9685
v  -52.7391 20.1489 -1.9685
v  -53.7836 20.2484 -1.9685
v  -55.0484 20.1986 -1.9685
v  -57.3365 19.5947 -1.9685
v  -58.1536 19.0262 -1.9685
v  -58.5444 18.3583 -1.9685
v  -58.6510 17.6548 -1.9685
v  -58.4947 16.9584 -1.9685
v  -58.0115 16.2337 -1.9685
v  -46.9835 6.0654 -1.9685
v  -55.4463 14.6917 -1.9685
v  -51.4032 12.7519 -1.9685
v  -49.3923 11.3520 -1.9685
v  -56.9954 15.4947 -1.9685
v  -48.1772 10.0659 -1.9685
v  -47.4311 8.6945 -1.9685
v  -47.0403 7.1668 -1.9685
v  -51.3543 5.7205 -1.9685
v  -51.2315 4.8406 -1.9685
v  -51.4464 3.9197 -1.9685
v  -52.0297 3.1727 -1.9685
v  -52.9506 2.6202 -1.9685
v  -53.3928 -0.3013 -1.9685
v  -47.1114 4.7438 -1.9685
v  -47.4240 3.6282 -1.9685
v  -48.5609 1.8660 -1.9685
v  -47.8717 2.7328 -1.9685
v  -49.3639 1.1625 -1.9685
v  -50.3729 0.5514 -1.9685
v  -51.6519 0.0682 -1.9685
v  -54.7821 2.0574 -1.9685
v  -56.8490 1.9346 -1.9685
v  -58.3736 2.0676 -1.9685
v  -55.3966 -0.4576 -1.9685
v  -59.9423 0.0102 -1.9685
v  -39.1455 0.7741 -1.9685
v  -41.2589 2.2763 -1.9685
v  -42.8375 4.3641 -1.9685
v  -35.7352 -0.2985 -1.9685
v  -43.8559 6.8848 -1.9685
v  -44.2888 9.5837 -1.9685
v  -43.5504 16.1273 -1.9685
v  -44.2633 13.0210 -1.9685
v  -42.3537 18.4698 -1.9685
v  -40.1895 20.5576 -1.9685
v  -35.0717 22.3654 -1.9685
v  -37.7452 21.7798 -1.9685
v  -32.2455 22.4927 -1.9685
v  -29.7757 22.1617 -1.9685
v  -26.6945 21.2706 -1.9685
v  -27.6624 21.6525 -1.9685
v  -26.6945 15.4628 -1.9685
v  -28.4340 15.4628 -1.9685
v  -29.8357 19.8895 -1.9685
v  -31.6264 20.0884 -1.9685
v  -33.6657 19.9037 -1.9685
v  -35.3711 19.3921 -1.9685
v  -37.0779 18.2256 -1.9685
v  -38.1617 16.5396 -1.9685
v  -38.8237 14.1717 -1.9685
v  -39.1038 10.8871 -1.9685
v  -38.7473 7.3480 -1.9685
v  -38.1871 5.3875 -1.9685
v  -30.4469 2.0775 -1.9685
v  -28.0535 6.8747 -1.9685
v  -26.2976 6.8747 -1.9685
v  -28.3781 0.5201 -1.9685
v  -27.1239 1.0834 -1.9685
v  -31.4144 1.9756 -1.9685
v  -33.4513 2.0520 -1.9685
v  -35.4373 2.6122 -1.9685
v  -30.1278 -0.0325 -1.9685
v  -31.8673 -0.3804 -1.9685
v  -33.6682 -0.4622 -1.9685
v  -36.9395 3.5797 -1.9685
v  -37.1850 0.0102 -1.9685
v  -21.1404 19.5867 -1.9685
v  -24.0232 20.2815 -1.9685
v  -24.0232 22.0511 -1.9685
v  -13.1120 20.2825 -1.9685
v  -13.1120 22.0511 -1.9685
v  -16.0061 19.5962 -1.9685
v  -21.1404 2.4704 -1.9685
v  -16.0061 12.3560 -1.9685
v  -16.0028 9.9345 -1.9685
v  -8.1694 19.5814 -1.9685
v  -11.0550 20.2759 -1.9685
v  -11.0550 22.0381 -1.9685
v  -0.1463 20.2919 -1.9685
v  -0.1463 22.0381 -1.9685
v  -3.0335 19.5874 -1.9685
v  -8.1694 12.3560 -1.9685
v  -3.0335 2.4781 -1.9685
v  -0.1480 1.7836 -1.9685
v  -0.1480 0.0225 -1.9685
v  -11.0598 1.7737 -1.9685
v  -11.0598 0.0225 -1.9685
v  -8.1661 2.4626 -1.9685
v  -8.1661 9.9345 -1.9685
v  -16.0028 2.4794 -1.9685
v  -13.1176 0.0102 -1.9685
v  -13.1176 1.7684 -1.9685
v  -24.0279 1.7675 -1.9685
v  -24.0279 0.0102 -1.9685
v  14.4535 20.1724 -1.9685
v  13.1981 20.3316 -1.9685
v  13.6571 22.4856 -1.9685
v  15.5851 19.6950 -1.9685
v  16.4869 18.9524 -1.9685
v  22.1266 18.0125 -1.9685
v  15.7836 22.2656 -1.9685
v  18.0935 21.5690 -1.9685
v  20.3300 20.1757 -1.9685
v  17.4947 17.4495 -1.9685
v  18.1843 15.4691 -1.9685
v  18.5556 13.3827 -1.9685
v  18.6971 10.9957 -1.9685
v  18.6087 8.7501 -1.9685
v  18.1843 6.4338 -1.9685
v  23.2632 15.6660 -1.9685
v  23.8865 13.0261 -1.9685
v  23.5198 7.0131 -1.9685
v  23.9231 9.8730 -1.9685
v  22.6765 4.9233 -1.9685
v  21.2833 2.8334 -1.9685
v  17.3968 0.1935 -1.9685
v  19.3767 1.1835 -1.9685
v  17.6185 4.8248 -1.9685
v  16.7521 3.4103 -1.9685
v  15.7265 2.4731 -1.9685
v  14.8955 2.0488 -1.9685
v  14.0645 1.8012 -1.9685
v  13.2904 1.7212 -1.9685
v  15.2703 -0.2831 -1.9685
v  13.2904 -0.4664 -1.9685
v  12.2590 1.7703 -1.9685
v  11.1293 2.1018 -1.9685
v  9.7502 3.0920 -1.9685
v  5.5175 2.2101 -1.9685
v  11.4020 -0.3391 -1.9685
v  9.4773 0.0102 -1.9685
v  7.5341 0.7802 -1.9685
v  8.7069 4.5949 -1.9685
v  7.9997 6.5753 -1.9685
v  7.6814 8.6971 -1.9685
v  7.5400 11.1194 -1.9685
v  7.6814 13.6302 -1.9685
v  5.9208 20.2491 -1.9685
v  3.9043 4.3366 -1.9685
v  2.9143 6.5365 -1.9685
v  2.2910 11.6696 -1.9685
v  2.3277 9.2864 -1.9685
v  2.5477 14.2361 -1.9685
v  3.3176 16.6559 -1.9685
v  4.4909 18.5992 -1.9685
v  8.1058 15.7874 -1.9685
v  8.7953 17.6439 -1.9685
v  9.7678 18.9878 -1.9685
v  10.9171 19.8188 -1.9685
v  12.1725 20.2255 -1.9685
v  7.7174 21.3857 -1.9685
v  9.4406 22.0456 -1.9685
v  11.5672 22.4489 -1.9685
v  38.7329 20.1724 -1.9685
v  37.4775 20.3316 -1.9685
v  37.9365 22.4856 -1.9685
v  39.8645 19.6950 -1.9685
v  40.7663 18.9524 -1.9685
v  46.4060 18.0125 -1.9685
v  40.0631 22.2656 -1.9685
v  42.3729 21.5690 -1.9685
v  44.6095 20.1757 -1.9685
v  41.7742 17.4495 -1.9685
v  42.4638 15.4691 -1.9685
v  42.8351 13.3827 -1.9685
v  42.9765 10.9957 -1.9685
v  42.8881 8.7501 -1.9685
v  42.4638 6.4338 -1.9685
v  47.5426 15.6660 -1.9685
v  48.1659 13.0261 -1.9685
v  47.7993 7.0131 -1.9685
v  48.2026 9.8730 -1.9685
v  46.9560 4.9233 -1.9685
v  45.5627 2.8334 -1.9685
v  41.6763 0.1935 -1.9685
v  43.6562 1.1835 -1.9685
v  41.8979 4.8248 -1.9685
v  41.0315 3.4103 -1.9685
v  40.0060 2.4731 -1.9685
v  39.1750 2.0488 -1.9685
v  38.3439 1.8012 -1.9685
v  37.5699 1.7212 -1.9685
v  39.5498 -0.2831 -1.9685
v  37.5699 -0.4664 -1.9685
v  36.5384 1.7703 -1.9685
v  35.4088 2.1018 -1.9685
v  34.0296 3.0920 -1.9685
v  29.7970 2.2101 -1.9685
v  35.6815 -0.3391 -1.9685
v  33.7568 0.0102 -1.9685
v  31.8135 0.7802 -1.9685
v  32.9864 4.5949 -1.9685
v  32.2791 6.5753 -1.9685
v  31.9609 8.6971 -1.9685
v  31.8194 11.1194 -1.9685
v  31.9609 13.6302 -1.9685
v  30.2003 20.2491 -1.9685
v  28.1837 4.3366 -1.9685
v  27.1938 6.5365 -1.9685
v  26.5705 11.6696 -1.9685
v  26.6072 9.2864 -1.9685
v  26.8272 14.2361 -1.9685
v  27.5971 16.6559 -1.9685
v  28.7704 18.5992 -1.9685
v  32.3852 15.7874 -1.9685
v  33.0748 17.6439 -1.9685
v  34.0473 18.9878 -1.9685
v  35.1966 19.8188 -1.9685
v  36.4520 20.2255 -1.9685
v  31.9969 21.3857 -1.9685
v  33.7201 22.0456 -1.9685
v  35.8466 22.4489 -1.9685
v  53.5439 19.5806 -1.9685
v  50.6523 20.2813 -1.9685
v  50.6523 22.0380 -1.9685
v  61.5737 20.2912 -1.9685
v  61.5737 22.0380 -1.9685
v  58.6781 19.5865 -1.9685
v  53.5439 2.4745 -1.9685
v  58.6781 2.4512 -1.9685
v  67.3561 0.0105 -1.9685
v  64.4068 2.4512 -1.9685
v  66.5386 6.8081 -1.9685
v  68.3008 6.8081 -1.9685
v  50.6448 1.7668 -1.9685
v  50.6448 0.0102 -1.9685
v  -61.9205 0.5559 1.9685
v  -59.9423 0.0102 1.9685
v  -57.9618 -0.3155 1.9685
v  -63.1484 6.8067 1.9685
v  -55.3966 -0.4576 1.9685
v  -53.3928 -0.3013 1.9685
v  -50.3729 0.5514 1.9685
v  -51.6519 0.0682 1.9685
v  -49.3639 1.1625 1.9685
v  -48.5609 1.8660 1.9685
v  -47.4240 3.6282 1.9685
v  -47.8717 2.7328 1.9685
v  -52.9506 2.6202 1.9685
v  -47.1114 4.7438 1.9685
v  -46.9835 6.0654 1.9685
v  -47.4311 8.6945 1.9685
v  -47.0403 7.1668 1.9685
v  -48.1772 10.0659 1.9685
v  -49.3923 11.3520 1.9685
v  -55.4463 14.6917 1.9685
v  -51.4032 12.7519 1.9685
v  -56.9954 15.4947 1.9685
v  -58.0115 16.2337 1.9685
v  -61.6786 20.1275 1.9685
v  -51.6732 19.9641 1.9685
v  -50.1080 15.7494 1.9685
v  -48.3768 15.7494 1.9685
v  -49.1851 21.7748 1.9685
v  -48.3768 21.5395 1.9685
v  -52.7391 20.1489 1.9685
v  -53.7836 20.2484 1.9685
v  -55.0484 20.1986 1.9685
v  -56.3061 19.9784 1.9685
v  -50.9860 22.1739 1.9685
v  -53.2984 22.4399 1.9685
v  -56.2453 22.4706 1.9685
v  -54.8435 22.5116 1.9685
v  -57.7290 22.2762 1.9685
v  -59.2945 21.7851 1.9685
v  -60.6145 21.0586 1.9685
v  -57.3365 19.5947 1.9685
v  -58.1536 19.0262 1.9685
v  -58.5444 18.3583 1.9685
v  -58.6510 17.6548 1.9685
v  -58.4947 16.9584 1.9685
v  -62.4153 19.0429 1.9685
v  -62.8144 17.8559 1.9685
v  -62.7018 15.0728 1.9685
v  -62.8962 16.5360 1.9685
v  -62.1084 13.5277 1.9685
v  -60.6042 11.7473 1.9685
v  -55.2323 8.6674 1.9685
v  -58.6806 10.3966 1.9685
v  -52.9608 7.4907 1.9685
v  -51.9478 6.6619 1.9685
v  -51.3543 5.7205 1.9685
v  -51.2315 4.8406 1.9685
v  -51.4464 3.9197 1.9685
v  -52.0297 3.1727 1.9685
v  -54.7821 2.0574 1.9685
v  -56.8490 1.9346 1.9685
v  -58.3736 2.0676 1.9685
v  -59.7959 2.4155 1.9685
v  -61.3803 6.8067 1.9685
v  -63.1484 1.0249 1.9685
v  -39.1455 0.7741 1.9685
v  -37.1850 0.0102 1.9685
v  -35.7352 -0.2985 1.9685
v  -31.8673 -0.3804 1.9685
v  -33.6682 -0.4622 1.9685
v  -30.1278 -0.0325 1.9685
v  -28.3781 0.5201 1.9685
v  -26.2976 6.8747 1.9685
v  -27.1239 1.0834 1.9685
v  -28.0535 6.8747 1.9685
v  -30.4469 2.0775 1.9685
v  -31.4144 1.9756 1.9685
v  -33.4513 2.0520 1.9685
v  -35.4373 2.6122 1.9685
v  -36.9395 3.5797 1.9685
v  -44.2633 13.0210 1.9685
v  -29.8357 19.8895 1.9685
v  -28.4340 15.4628 1.9685
v  -26.6945 15.4628 1.9685
v  -27.6624 21.6525 1.9685
v  -26.6945 21.2706 1.9685
v  -31.6264 20.0884 1.9685
v  -33.6657 19.9037 1.9685
v  -29.7757 22.1617 1.9685
v  -32.2455 22.4927 1.9685
v  -37.7452 21.7798 1.9685
v  -35.0717 22.3654 1.9685
v  -35.3711 19.3921 1.9685
v  -37.0779 18.2256 1.9685
v  -38.1617 16.5396 1.9685
v  -38.8237 14.1717 1.9685
v  -40.1895 20.5576 1.9685
v  -42.3537 18.4698 1.9685
v  -43.5504 16.1273 1.9685
v  -39.1038 10.8871 1.9685
v  -38.7473 7.3480 1.9685
v  -38.1871 5.3875 1.9685
v  -44.2888 9.5837 1.9685
v  -43.8559 6.8848 1.9685
v  -42.8375 4.3641 1.9685
v  -41.2589 2.2763 1.9685
v  -24.0279 0.0102 1.9685
v  -13.1176 0.0102 1.9685
v  -13.1176 1.7684 1.9685
v  -21.1404 2.4704 1.9685
v  -8.1661 2.4626 1.9685
v  -11.0598 1.7737 1.9685
v  -11.0598 0.0225 1.9685
v  -0.1480 1.7836 1.9685
v  -0.1480 0.0225 1.9685
v  -3.0335 2.4781 1.9685
v  -8.1661 9.9345 1.9685
v  -3.0335 19.5874 1.9685
v  -0.1463 20.2919 1.9685
v  -0.1463 22.0381 1.9685
v  -11.0550 20.2759 1.9685
v  -11.0550 22.0381 1.9685
v  -8.1694 19.5814 1.9685
v  -8.1694 12.3560 1.9685
v  -16.0028 9.9345 1.9685
v  -16.0061 12.3560 1.9685
v  -16.0061 19.5962 1.9685
v  -13.1120 20.2825 1.9685
v  -13.1120 22.0511 1.9685
v  -24.0232 20.2815 1.9685
v  -24.0232 22.0511 1.9685
v  -21.1404 19.5867 1.9685
v  -16.0028 2.4794 1.9685
v  -24.0279 1.7675 1.9685
v  13.2904 -0.4664 1.9685
v  15.2703 -0.2831 1.9685
v  17.3968 0.1935 1.9685
v  21.2833 2.8334 1.9685
v  19.3767 1.1835 1.9685
v  22.6765 4.9233 1.9685
v  23.5198 7.0131 1.9685
v  23.8865 13.0261 1.9685
v  23.9231 9.8730 1.9685
v  23.2632 15.6660 1.9685
v  22.1266 18.0125 1.9685
v  18.0935 21.5690 1.9685
v  20.3300 20.1757 1.9685
v  18.1843 15.4691 1.9685
v  15.7836 22.2656 1.9685
v  13.6571 22.4856 1.9685
v  14.4535 20.1724 1.9685
v  13.1981 20.3316 1.9685
v  15.5851 19.6950 1.9685
v  16.4869 18.9524 1.9685
v  17.4947 17.4495 1.9685
v  18.5556 13.3827 1.9685
v  18.6971 10.9957 1.9685
v  18.6087 8.7501 1.9685
v  18.1843 6.4338 1.9685
v  17.6185 4.8248 1.9685
v  16.7521 3.4103 1.9685
v  15.7265 2.4731 1.9685
v  14.8955 2.0488 1.9685
v  14.0645 1.8012 1.9685
v  13.2904 1.7212 1.9685
v  11.5672 22.4489 1.9685
v  9.4406 22.0456 1.9685
v  5.9208 20.2491 1.9685
v  7.7174 21.3857 1.9685
v  4.4909 18.5992 1.9685
v  3.3176 16.6559 1.9685
v  2.2910 11.6696 1.9685
v  2.5477 14.2361 1.9685
v  2.3277 9.2864 1.9685
v  2.9143 6.5365 1.9685
v  5.5175 2.2101 1.9685
v  3.9043 4.3366 1.9685
v  7.9997 6.5753 1.9685
v  7.5341 0.7802 1.9685
v  9.4773 0.0102 1.9685
v  11.4020 -0.3391 1.9685
v  12.2590 1.7703 1.9685
v  11.1293 2.1018 1.9685
v  9.7502 3.0920 1.9685
v  8.7069 4.5949 1.9685
v  7.6814 8.6971 1.9685
v  7.5400 11.1194 1.9685
v  7.6814 13.6302 1.9685
v  8.1058 15.7874 1.9685
v  8.7953 17.6439 1.9685
v  9.7678 18.9878 1.9685
v  10.9171 19.8188 1.9685
v  12.1725 20.2255 1.9685
v  37.5699 -0.4664 1.9685
v  39.5498 -0.2831 1.9685
v  41.6763 0.1935 1.9685
v  45.5627 2.8334 1.9685
v  43.6562 1.1835 1.9685
v  46.9560 4.9233 1.9685
v  47.7993 7.0131 1.9685
v  48.1659 13.0261 1.9685
v  48.2026 9.8730 1.9685
v  47.5426 15.6660 1.9685
v  46.4060 18.0125 1.9685
v  42.3729 21.5690 1.9685
v  44.6095 20.1757 1.9685
v  42.4638 15.4691 1.9685
v  40.0631 22.2656 1.9685
v  37.9365 22.4856 1.9685
v  38.7329 20.1724 1.9685
v  37.4775 20.3316 1.9685
v  39.8645 19.6950 1.9685
v  40.7663 18.9524 1.9685
v  41.7742 17.4495 1.9685
v  42.8351 13.3827 1.9685
v  42.9765 10.9957 1.9685
v  42.8881 8.7501 1.9685
v  42.4638 6.4338 1.9685
v  41.8979 4.8248 1.9685
v  41.0315 3.4103 1.9685
v  40.0060 2.4731 1.9685
v  39.1750 2.0488 1.9685
v  38.3439 1.8012 1.9685
v  37.5699 1.7212 1.9685
v  35.8466 22.4489 1.9685
v  33.7201 22.0456 1.9685
v  30.2003 20.2491 1.9685
v  31.9969 21.3857 1.9685
v  28.7704 18.5992 1.9685
v  27.5971 16.6559 1.9685
v  26.5705 11.6696 1.9685
v  26.8272 14.2361 1.9685
v  26.6072 9.2864 1.9685
v  27.1938 6.5365 1.9685
v  29.7970 2.2101 1.9685
v  28.1837 4.3366 1.9685
v  32.2791 6.5753 1.9685
v  31.8135 0.7802 1.9685
v  33.7568 0.0102 1.9685
v  35.6815 -0.3391 1.9685
v  36.5384 1.7703 1.9685
v  35.4088 2.1018 1.9685
v  34.0296 3.0920 1.9685
v  32.9864 4.5949 1.9685
v  31.9609 8.6971 1.9685
v  31.8194 11.1194 1.9685
v  31.9609 13.6302 1.9685
v  32.3852 15.7874 1.9685
v  33.0748 17.6439 1.9685
v  34.0473 18.9878 1.9685
v  35.1966 19.8188 1.9685
v  36.4520 20.2255 1.9685
v  67.3561 0.0105 1.9685
v  68.3008 6.8081 1.9685
v  66.5386 6.8081 1.9685
v  64.4068 2.4512 1.9685
v  58.6781 2.4512 1.9685
v  53.5439 2.4745 1.9685
v  58.6781 19.5865 1.9685
v  61.5737 20.2912 1.9685
v  61.5737 22.0380 1.9685
v  50.6523 20.2813 1.9685
v  50.6523 22.0380 1.9685
v  53.5439 19.5806 1.9685
v  50.6448 0.0102 1.9685
v  50.6448 1.7668 1.9685
# 532 vertices

vn 0.0000 0.0000 -1.0000
vn -0.0000 -0.0000 -1.0000
vn -0.0000 0.0000 -1.0000
vn 0.0000 -0.0000 -1.0000
vn -0.0000 -0.0000 1.0000
vn 0.0000 -0.0000 1.0000
vn -0.0000 0.0000 1.0000
vn 0.0000 0.0000 1.0000
vn 0.9983 0.0583 0.0000
vn 0.3011 -0.9536 -0.0000
vn -0.3576 0.9339 0.0000
vn -0.2140 0.9768 0.0000
vn 0.5713 0.8207 0.0000
vn -0.3887 -0.9214 -0.0000
vn -0.8272 0.5619 0.0000
vn 0.9999 0.0116 0.0000
vn -0.2355 -0.9719 -0.0000
vn -1.0000 0.0000 -0.0000
vn 0.9984 -0.0562 -0.0000
vn 0.1961 -0.9806 -0.0000
vn -0.1863 0.9825 0.0000
vn -0.0450 0.9990 0.0000
vn 0.7269 0.6867 0.0000
vn -0.6357 -0.7719 -0.0000
vn 0.9902 -0.1396 -0.0000
vn -0.6585 0.7526 0.0000
vn 0.0000 -1.0000 -0.0000
vn 0.9812 -0.1930 -0.0000
vn 0.0454 -0.9990 -0.0000
vn -0.0175 0.9998 0.0000
vn 0.1328 0.9911 0.0000
vn -0.8305 -0.5570 -0.0000
vn 0.8784 0.4779 0.0000
vn 0.9273 -0.3742 -0.0000
vn -0.4822 0.8761 0.0000
vn 0.0000 1.0000 0.0000
vn 1.0000 0.0000 -0.0000
vn 0.9374 -0.3482 -0.0000
vn -0.0790 -0.9969 -0.0000
vn 0.1029 0.9947 0.0000
vn 0.2343 0.9722 0.0000
vn -0.9444 -0.3288 -0.0000
vn 0.9688 0.2478 0.0000
vn 0.8320 -0.5547 -0.0000
vn -0.2993 0.9541 0.0000
vn -0.2659 -0.9640 -0.0000
vn 0.2393 0.9710 0.0000
vn 0.8101 -0.5863 -0.0000
vn -0.2083 -0.9781 -0.0000
vn 0.2887 0.9574 0.0000
vn 0.3670 0.9302 0.0000
vn -0.9845 -0.1752 -0.0000
vn 0.9987 0.0515 0.0000
vn -0.1299 0.9915 0.0000
vn 0.6544 -0.7562 -0.0000
vn 0.2365 -0.9716 -0.0000
vn -0.3568 -0.9342 -0.0000
vn 0.5859 -0.8104 -0.0000
vn -0.2365 0.9716 0.0000
vn 0.5287 0.8488 0.0000
vn 0.9954 -0.0963 -0.0000
vn -0.9982 -0.0592 -0.0000
vn -0.0292 0.9996 0.0000
vn 0.4472 -0.8944 -0.0000
vn 0.3082 -0.9513 -0.0000
vn -0.2343 -0.9722 -0.0000
vn 0.7693 0.6389 0.0000
vn 0.9629 -0.2699 -0.0000
vn -0.9992 0.0393 0.0000
vn 0.0463 0.9989 0.0000
vn 0.2187 -0.9758 -0.0000
vn -0.3684 -0.9297 -0.0000
vn 0.1029 -0.9947 -0.0000
vn 0.9000 0.4359 0.0000
vn -0.9534 -0.3019 -0.0000
vn 0.8944 -0.4472 -0.0000
vn -0.9836 0.1802 0.0000
vn 0.1143 0.9934 0.0000
vn 0.0922 -0.9957 -0.0000
vn -0.8982 0.4395 0.0000
vn 0.9406 0.3394 0.0000
vn -0.5784 -0.8157 -0.0000
vn -0.1258 -0.9921 -0.0000
vn 0.9732 0.2298 0.0000
vn -0.1104 -0.9939 -0.0000
vn 0.7827 -0.6223 -0.0000
vn -0.9434 0.3317 0.0000
vn 0.2163 0.9763 0.0000
vn -0.0673 -0.9977 -0.0000
vn 0.2376 0.9714 0.0000
vn -0.7967 -0.6044 -0.0000
vn 0.0902 -0.9959 -0.0000
vn 0.6590 -0.7522 -0.0000
vn -0.8528 0.5223 0.0000
vn 0.2795 0.9601 0.0000
vn -0.1786 -0.9839 -0.0000
vn 0.9905 -0.1376 -0.0000
vn 0.0869 0.9962 0.0000
vn -0.9119 -0.4104 -0.0000
vn 0.2873 -0.9578 -0.0000
vn 0.5180 -0.8554 -0.0000
vn -0.6746 0.7382 0.0000
vn -0.0593 0.9982 0.0000
vn -0.9780 -0.2086 -0.0000
vn 0.5643 -0.8256 -0.0000
vn 0.3534 -0.9355 -0.0000
vn -0.4548 0.8906 0.0000
vn 0.0476 0.9989 0.0000
vn -0.2937 0.9559 0.0000
vn -0.9999 -0.0154 -0.0000
vn 0.2307 -0.9730 -0.0000
vn 0.8412 -0.5407 -0.0000
vn 0.2076 -0.9782 -0.0000
vn -0.2855 0.9584 0.0000
vn -0.9374 -0.3481 -0.0000
vn 0.2816 0.9595 0.0000
vn -0.5145 0.8575 0.0000
vn -0.9950 0.0995 -0.0000
vn 0.9631 -0.2692 -0.0000
vn 0.0778 -0.9970 -0.0000
vn -0.1029 0.9947 0.0000
vn -0.1708 -0.9853 -0.0000
vn 0.5832 0.8123 0.0000
vn -0.7882 0.6154 0.0000
vn -0.9529 0.3032 -0.0000
vn 0.9964 -0.0850 -0.0000
vn -0.0553 -0.9985 -0.0000
vn 0.8215 0.5702 0.0000
vn -0.0948 -0.9955 -0.0000
vn -0.8561 0.5169 0.0000
vn -0.9738 0.2272 0.0000
vn 0.9950 0.1002 0.0000
vn -0.1623 -0.9867 -0.0000
vn 0.9417 0.3363 0.0000
vn 0.0393 -0.9992 -0.0000
vn -0.7557 0.6549 0.0000
vn -0.9904 -0.1382 -0.0000
vn -0.2340 -0.9722 -0.0000
vn 0.9615 0.2747 0.0000
vn -0.3630 -0.9318 -0.0000
vn 0.9889 0.1483 0.0000
vn 0.1725 -0.9850 -0.0000
vn -0.5346 0.8451 0.0000
vn -0.8459 -0.5333 -0.0000
vn 0.8230 0.5680 0.0000
vn -0.5794 -0.8151 -0.0000
vn 0.3490 -0.9371 -0.0000
vn -0.6332 -0.7740 -0.0000
vn 0.5415 0.8407 0.0000
vn -0.7977 -0.6031 -0.0000
vn 0.5711 -0.8209 -0.0000
vn -0.4600 -0.8879 -0.0000
vn 1.0000 -0.0000 0.0000
vn 0.2715 0.9624 0.0000
vn -0.9272 -0.3746 -0.0000
vn 0.8631 -0.5050 -0.0000
vn -0.4483 -0.8939 -0.0000
vn 0.2370 -0.9715 -0.0000
vn 0.0375 0.9993 0.0000
vn -0.9874 -0.1584 -0.0000
vn 0.9887 -0.1498 -0.0000
vn -0.5746 -0.8184 -0.0000
vn -0.1047 0.9945 0.0000
vn -1.0000 0.0074 0.0000
vn -0.9950 0.0995 0.0000
vn 0.9757 0.2190 0.0000
vn -0.7639 -0.6454 -0.0000
vn 0.2340 0.9722 0.0000
vn -0.8948 0.4464 0.0000
vn -0.9747 0.2237 0.0000
vn -0.9529 0.3032 0.0000
vn 0.8321 0.5547 0.0000
vn -0.9335 -0.3586 -0.0000
vn -0.8905 0.4549 0.0000
vn 0.5882 0.8087 0.0000
vn -0.9913 -0.1317 -0.0000
vn 0.9900 -0.1412 -0.0000
vn -0.6943 0.7197 0.0000
vn 0.4602 0.8878 0.0000
vn -0.9981 0.0619 0.0000
vn -0.2372 0.9715 0.0000
vn 0.4097 -0.9122 -0.0000
vn -0.4472 0.8944 0.0000
vn 0.4326 0.9016 0.0000
vn -0.9479 0.3187 0.0000
vn -0.2316 0.9728 0.0000
# 186 vertex normals

g SPW_Urban_Text_School
usemtl SPW_Urban_Text
s off
f 1//1 2//1 3//1 4//1 
f 3//2 5//2 6//2 4//2 
f 7//1 8//1 9//1 10//1 
f 9//3 11//3 12//3 13//3 
f 12//1 14//1 13//1 
f 10//1 9//1 13//1 15//1 
f 13//1 16//1 17//1 18//1 
f 17//4 19//4 18//4 
f 18//4 20//4 21//4 22//4 
f 21//4 23//4 22//4 
f 13//4 18//4 22//4 24//4 
f 22//1 25//1 26//1 27//1 
f 26//3 28//3 27//3 
f 27//2 29//2 30//2 22//2 
f 22//2 30//2 31//2 32//2 
f 22//4 32//4 33//4 24//4 
f 13//3 24//3 34//3 35//3 
f 13//4 35//4 36//4 37//4 
f 13//1 37//1 38//1 15//1 
f 15//1 38//1 39//1 40//1 
f 41//2 42//2 43//2 44//2 
f 43//1 45//1 46//1 40//1 
f 46//3 47//3 40//3 
f 44//2 43//2 40//2 39//2 
f 48//1 15//1 40//1 49//1 
f 50//1 49//1 40//1 51//1 
f 52//4 51//4 40//4 53//4 
f 40//4 54//4 55//4 56//4 
f 55//4 57//4 56//4 
f 56//4 58//4 59//4 53//4 
f 59//1 60//1 53//1 
f 40//1 56//1 53//1 
f 61//4 52//4 53//4 62//4 
f 63//2 62//2 53//2 6//2 
f 53//2 64//2 4//2 6//2 
f 1//1 4//1 65//1 
f 66//2 67//2 68//2 69//2 
f 68//1 70//1 71//1 72//1 
f 71//1 73//1 72//1 
f 72//4 74//4 75//4 76//4 
f 75//3 77//3 76//3 
f 76//4 78//4 79//4 80//4 
f 79//1 81//1 80//1 
f 80//3 82//3 83//3 84//3 
f 76//1 80//1 84//1 85//1 
f 76//2 85//2 86//2 87//2 
f 72//2 76//2 87//2 88//2 
f 72//3 88//3 89//3 90//3 
f 72//3 90//3 91//3 92//3 
f 72//1 92//1 93//1 69//1 
f 94//1 95//1 96//1 97//1 
f 96//3 98//3 97//3 
f 99//4 94//4 97//4 100//4 
f 101//1 100//1 97//1 69//1 
f 97//1 102//1 103//1 69//1 
f 103//1 104//1 69//1 
f 105//3 101//3 69//3 93//3 
f 68//3 72//3 69//3 
f 66//2 69//2 106//2 
f 107//1 108//1 109//1 110//1 
f 109//4 111//4 110//4 
f 107//1 110//1 112//1 113//1 
f 113//1 112//1 114//1 115//1 
f 116//1 117//1 118//1 119//1 
f 118//4 120//4 119//4 
f 116//1 119//1 121//1 122//1 
f 123//1 124//1 125//1 126//1 
f 125//4 127//4 126//4 
f 123//1 126//1 128//1 121//1 
f 121//1 128//1 129//1 122//1 
f 114//4 122//4 129//4 115//4 
f 113//1 115//1 130//1 131//1 
f 130//2 132//2 131//2 
f 133//1 113//1 131//1 134//1 
s 1
f 135//3 136//3 137//1 138//1 
f 139//1 138//1 137//1 140//1 
f 137//1 141//1 142//1 140//1 
f 142//1 143//2 140//1 
f 144//1 139//1 140//1 145//1 
f 146//1 145//1 140//1 147//1 
f 148//4 147//1 140//1 149//4 
f 140//1 150//3 151//3 152//3 
f 151//3 153//1 152//3 
f 152//3 154//3 155//1 156//4 
f 155//1 157//3 156//4 
f 140//1 152//3 156//4 149//4 
f 158//4 149//4 156//4 159//4 
f 160//4 159//4 156//4 161//4 
f 162//2 161//4 156//4 163//2 
f 163//2 156//4 164//1 165//1 
f 166//3 163//2 165//1 167//1 
f 168//1 167//1 165//1 169//1 
f 165//1 170//2 171//1 169//1 
f 171//1 172//2 169//1 
f 173//1 168//1 169//1 174//1 
f 175//1 174//1 169//1 176//1 
f 177//1 176//1 169//1 178//3 
f 169//1 179//3 180//3 181//3 
f 180//3 182//1 181//3 
f 181//3 183//3 184//4 178//3 
f 184//4 185//4 178//3 
f 169//1 181//3 178//3 
f 186//3 177//1 178//3 187//3 
f 188//3 187//3 178//3 189//2 
f 190//2 189//2 178//3 136//3 
f 178//3 191//3 192//3 136//3 
f 136//3 192//3 193//3 137//1 
f 194//3 195//3 196//1 197//1 
f 198//1 197//1 196//1 199//1 
f 196//1 200//1 201//1 199//1 
f 201//1 202//2 199//1 
f 203//1 198//1 199//1 204//1 
f 205//1 204//1 199//1 206//1 
f 207//4 206//1 199//1 208//4 
f 199//1 209//3 210//3 211//3 
f 210//3 212//1 211//3 
f 211//3 213//3 214//1 215//4 
f 214//1 216//3 215//4 
f 199//1 211//3 215//4 208//4 
f 217//4 208//4 215//4 218//4 
f 219//4 218//4 215//4 220//4 
f 221//2 220//4 215//4 222//2 
f 222//2 215//4 223//1 224//1 
f 225//3 222//2 224//1 226//1 
f 227//1 226//1 224//1 228//1 
f 224//1 229//2 230//1 228//1 
f 230//1 231//2 228//1 
f 232//1 227//1 228//1 233//1 
f 234//1 233//1 228//1 235//1 
f 236//1 235//1 228//1 237//3 
f 228//1 238//3 239//3 240//3 
f 239//3 241//1 240//3 
f 240//3 242//3 243//4 237//3 
f 243//4 244//4 237//3 
f 228//1 240//3 237//3 
f 245//3 236//1 237//3 246//3 
f 247//3 246//3 237//3 248//2 
f 249//2 248//2 237//3 195//3 
f 237//3 250//3 251//3 195//3 
f 195//3 251//3 252//3 196//1 
s off
f 253//1 254//1 255//1 256//1 
f 255//4 257//4 256//4 
f 253//1 256//1 258//1 259//1 
f 259//3 258//3 260//3 261//3 
f 262//3 263//3 264//3 261//3 
f 260//1 262//1 261//1 
f 265//1 259//1 261//1 266//1 
f 267//5 268//5 269//5 270//5 
f 269//6 271//6 272//6 273//6 
f 272//6 274//6 273//6 
f 273//6 275//6 276//6 277//6 
f 276//7 278//7 277//7 
f 269//7 273//7 277//7 279//7 
f 277//8 280//8 281//8 282//8 
f 281//6 283//6 282//6 
f 282//5 284//5 285//5 286//5 
f 285//8 287//8 286//8 
f 277//8 282//8 286//8 288//8 
f 277//5 288//5 289//5 290//5 
f 291//5 292//5 293//5 294//5 
f 293//6 295//6 294//6 
f 296//6 291//6 294//6 297//6 
f 298//5 297//5 294//5 299//5 
f 294//5 300//5 301//5 302//5 
f 301//7 303//7 302//7 
f 302//7 304//7 305//7 290//7 
f 305//7 306//7 290//7 
f 294//7 302//7 290//7 299//7 
f 307//5 299//5 290//5 308//5 
f 309//7 308//7 290//7 310//7 
f 311//5 310//5 290//5 289//5 
f 290//7 312//7 313//7 314//7 
f 313//5 315//5 314//5 
f 314//5 316//5 317//5 318//5 
f 317//5 319//5 318//5 
f 290//5 314//5 318//5 320//5 
f 290//5 320//5 321//5 277//5 
f 277//5 321//5 322//5 323//5 
f 277//5 323//5 324//5 325//5 
f 277//7 325//7 279//7 
f 269//7 279//7 326//7 327//7 
f 269//8 327//8 328//8 329//8 
f 329//8 330//8 270//8 269//8 
f 267//5 270//5 331//5 
f 332//6 333//6 334//6 335//6 
f 334//6 336//6 335//6 
f 335//5 337//5 338//5 339//5 
f 338//6 340//6 339//6 
f 339//6 341//6 342//6 335//6 
f 332//6 335//6 342//6 343//6 
f 332//8 343//8 344//8 345//8 
f 332//8 345//8 346//8 347//8 
f 348//5 349//5 350//5 351//5 
f 350//6 352//6 351//6 
f 353//5 348//5 351//5 354//5 
f 351//7 355//7 356//7 357//7 
f 356//6 358//6 357//6 
f 354//5 351//5 357//5 359//5 
f 360//5 359//5 357//5 361//5 
f 362//6 361//6 357//6 347//6 
f 357//7 363//7 364//7 347//7 
f 364//6 365//6 347//6 
f 366//6 362//6 347//6 367//6 
f 368//5 367//5 347//5 346//5 
f 347//5 369//5 370//5 332//5 
f 332//7 370//7 371//7 372//7 
f 373//6 374//6 375//6 376//6 
f 377//5 378//5 379//5 380//5 
f 379//8 381//8 380//8 
f 377//5 380//5 382//5 383//5 
f 384//5 385//5 386//5 387//5 
f 386//8 388//8 387//8 
f 384//5 387//5 389//5 382//5 
f 382//6 389//6 390//6 383//6 
f 391//6 383//6 390//6 392//6 
f 393//5 394//5 395//5 396//5 
f 395//8 397//8 396//8 
f 393//5 396//5 398//5 392//5 
f 391//5 392//5 398//5 399//5 
f 399//5 398//5 376//5 375//5 
f 400//7 373//7 376//7 
s 1
f 401//8 402//6 403//5 404//7 
f 403//5 405//6 404//7 
f 404//7 406//6 407//6 408//6 
f 407//6 409//5 408//6 
f 408//6 410//6 411//5 412//5 
f 411//5 413//8 412//5 
f 404//7 408//6 412//5 414//5 
f 412//5 415//5 416//6 417//5 
f 416//6 418//6 417//5 
f 412//5 417//5 419//5 420//5 
f 412//5 420//5 421//5 414//5 
f 404//7 414//5 422//5 423//5 
f 404//7 423//5 424//5 425//7 
f 404//7 425//7 426//7 427//7 
f 401//8 404//7 427//7 428//7 
f 401//8 428//7 429//7 430//8 
f 431//6 401//8 430//8 
f 416//6 432//7 433//6 434//5 
f 433//6 435//6 434//5 
f 434//5 436//7 437//7 438//6 
f 437//7 439//6 438//6 
f 438//6 440//6 441//6 442//5 
f 441//6 443//8 442//5 
f 434//5 438//6 442//5 444//5 
f 442//5 445//6 446//5 401//8 
f 446//5 447//8 401//8 
f 401//8 431//6 448//6 449//5 
f 442//5 401//8 449//5 450//5 
f 442//5 450//5 451//5 444//5 
f 434//5 444//5 452//8 453//6 
f 434//5 453//6 454//6 455//6 
f 434//5 455//6 456//6 457//6 
f 416//6 434//5 457//6 458//6 
f 416//6 458//6 459//6 418//6 
f 460//8 461//6 462//5 463//7 
f 462//5 464//6 463//7 
f 463//7 465//6 466//6 467//6 
f 466//6 468//5 467//6 
f 467//6 469//6 470//5 471//5 
f 470//5 472//8 471//5 
f 463//7 467//6 471//5 473//5 
f 471//5 474//5 475//6 476//5 
f 475//6 477//6 476//5 
f 471//5 476//5 478//5 479//5 
f 471//5 479//5 480//5 473//5 
f 463//7 473//5 481//5 482//5 
f 463//7 482//5 483//5 484//7 
f 463//7 484//7 485//7 486//7 
f 460//8 463//7 486//7 487//7 
f 460//8 487//7 488//7 489//8 
f 490//6 460//8 489//8 
f 475//6 491//7 492//6 493//5 
f 492//6 494//6 493//5 
f 493//5 495//7 496//7 497//6 
f 496//7 498//6 497//6 
f 497//6 499//6 500//6 501//5 
f 500//6 502//8 501//5 
f 493//5 497//6 501//5 503//5 
f 501//5 504//6 505//5 460//8 
f 505//5 506//8 460//8 
f 460//8 490//6 507//6 508//5 
f 501//5 460//8 508//5 509//5 
f 501//5 509//5 510//5 503//5 
f 493//5 503//5 511//8 512//6 
f 493//5 512//6 513//6 514//6 
f 493//5 514//6 515//6 516//6 
f 475//6 493//5 516//6 517//6 
f 475//6 517//6 518//6 477//6 
s off
f 519//6 520//6 521//6 522//6 
f 519//6 522//6 523//6 524//6 
f 525//5 526//5 527//5 528//5 
f 527//8 529//8 528//8 
f 525//5 528//5 530//5 523//5 
f 523//6 530//6 524//6 
f 531//5 519//5 524//5 532//5 
f 234//9 235//9 512//9 511//9 
f 102//10 97//10 338//10 337//10 
f 251//11 250//11 494//11 492//11 
f 76//12 77//12 357//12 358//12 
f 43//13 42//13 287//13 285//13 
f 135//14 138//14 419//14 417//14 
f 17//15 16//15 312//15 290//15 
f 153//16 151//16 408//16 409//16 
f 254//17 253//17 530//17 528//17 
f 129//18 128//18 377//18 383//18 
f 235//19 236//19 513//19 512//19 
f 103//20 102//20 337//20 335//20 
f 252//21 251//21 492//21 491//21 
f 78//22 76//22 358//22 356//22 
f 45//23 43//23 285//23 284//23 
f 138//24 139//24 420//24 419//24 
f 152//25 153//25 409//25 407//25 
f 19//26 17//26 290//26 306//26 
f 255//18 254//18 528//18 529//18 
f 115//27 129//27 383//27 391//27 
f 236//28 245//28 514//28 513//28 
f 104//29 103//29 335//29 336//29 
f 196//30 252//30 491//30 475//30 
f 79//31 78//31 356//31 355//31 
f 139//32 144//32 421//32 420//32 
f 46//33 45//33 284//33 282//33 
f 154//34 152//34 407//34 406//34 
f 18//35 19//35 306//35 305//35 
f 257//36 255//36 529//36 527//36 
f 130//37 115//37 391//37 399//37 
f 245//38 246//38 515//38 514//38 
f 69//39 104//39 336//39 334//39 
f 200//40 196//40 475//40 474//40 
f 81//41 79//41 355//41 351//41 
f 144//42 145//42 414//42 421//42 
f 47//43 46//43 282//43 283//43 
f 155//44 154//44 406//44 404//44 
f 20//45 18//45 305//45 304//45 
f 256//37 257//37 527//37 526//37 
f 1//46 65//46 268//46 267//46 
f 132//47 130//47 399//47 375//47 
f 246//48 247//48 516//48 515//48 
f 106//49 69//49 334//49 333//49 
f 201//50 200//50 474//50 471//50 
f 80//51 81//51 351//51 352//51 
f 145//52 146//52 422//52 414//52 
f 40//53 47//53 283//53 281//53 
f 21//54 20//54 304//54 302//54 
f 157//55 155//55 404//55 405//55 
f 258//56 256//56 526//56 525//56 
f 2//57 1//57 267//57 331//57 
f 131//37 132//37 375//37 374//37 
f 247//58 248//58 517//58 516//58 
f 113//59 133//59 400//59 376//59 
f 202//60 201//60 471//60 472//60 
f 82//37 80//37 352//37 350//37 
f 54//61 40//61 281//61 280//61 
f 146//62 147//62 423//62 422//62 
f 23//63 21//63 302//63 303//63 
f 156//64 157//64 405//64 403//64 
f 260//37 258//37 525//37 523//37 
f 3//18 2//18 331//18 270//18 
f 134//27 131//27 374//27 373//27 
f 248//65 249//65 518//65 517//65 
f 108//66 107//66 398//66 396//66 
f 199//67 202//67 472//67 470//67 
f 83//27 82//27 350//27 349//27 
f 55//68 54//68 280//68 277//68 
f 147//69 148//69 424//69 423//69 
f 22//70 23//70 303//70 301//70 
f 164//71 156//71 403//71 402//71 
f 262//36 260//36 523//36 522//36 
f 5//36 3//36 270//36 330//36 
f 172//72 171//72 446//72 445//72 
f 249//73 195//73 477//73 518//73 
f 107//18 113//18 376//18 398//18 
f 209//74 199//74 470//74 469//74 
f 84//75 83//75 349//75 348//75 
f 57//76 55//76 277//76 278//76 
f 148//77 149//77 425//77 424//77 
f 25//78 22//78 301//78 300//78 
f 165//79 164//79 402//79 401//79 
f 263//80 262//80 522//80 521//80 
f 6//81 5//81 330//81 329//81 
f 169//82 172//82 445//82 442//82 
f 195//83 194//83 476//83 477//83 
f 133//18 134//18 373//18 400//18 
f 210//84 209//84 469//84 467//84 
f 85//85 84//85 348//85 353//85 
f 56//86 57//86 278//86 276//86 
f 149//87 158//87 426//87 425//87 
f 26//88 25//88 300//88 294//88 
f 170//89 165//89 401//89 447//89 
f 264//36 263//36 521//36 520//36 
f 63//90 6//90 329//90 328//90 
f 179//91 169//91 442//91 443//91 
f 194//14 197//14 478//14 476//14 
f 109//18 108//18 396//18 397//18 
f 212//16 210//16 467//16 468//16 
f 86//92 85//92 353//92 354//92 
f 58//93 56//93 276//93 275//93 
f 158//94 159//94 427//94 426//94 
f 28//95 26//95 294//95 295//95 
f 171//96 170//96 447//96 446//96 
f 261//97 264//97 520//97 519//97 
f 62//98 63//98 328//98 327//98 
f 180//99 179//99 443//99 441//99 
f 197//24 198//24 479//24 478//24 
f 111//36 109//36 397//36 395//36 
f 211//25 212//25 468//25 466//25 
f 87//100 86//100 354//100 359//100 
f 59//101 58//101 275//101 273//101 
f 159//102 160//102 428//102 427//102 
f 27//37 28//37 295//37 293//37 
f 266//27 261//27 519//27 531//27 
f 61//103 62//103 327//103 326//103 
f 182//104 180//104 441//104 440//104 
f 198//32 203//32 480//32 479//32 
f 110//37 111//37 395//37 394//37 
f 213//34 211//34 466//34 465//34 
f 88//105 87//105 359//105 360//105 
f 60//106 59//106 273//106 274//106 
f 160//107 161//107 429//107 428//107 
f 29//27 27//27 293//27 292//27 
f 163//108 166//108 448//108 431//108 
f 52//109 61//109 326//109 279//109 
f 181//110 182//110 440//110 438//110 
f 203//42 204//42 473//42 480//42 
f 112//111 110//111 394//111 393//111 
f 214//44 213//44 465//44 463//44 
f 89//112 88//112 360//112 361//112 
f 53//113 60//113 274//113 272//113 
f 161//114 162//114 430//114 429//114 
f 30//115 29//115 292//115 291//115 
f 166//116 167//116 449//116 448//116 
f 51//117 52//117 279//117 325//117 
f 183//118 181//118 438//118 439//118 
f 204//52 205//52 481//52 473//52 
f 114//37 112//37 393//37 392//37 
f 216//55 214//55 463//55 464//55 
f 90//119 89//119 361//119 362//119 
f 64//120 53//120 272//120 271//120 
f 162//121 163//121 431//121 430//121 
f 31//122 30//122 291//122 296//122 
f 167//123 168//123 450//123 449//123 
f 50//124 51//124 325//124 324//124 
f 184//125 183//125 439//125 437//125 
f 205//62 206//62 482//62 481//62 
f 122//36 114//36 392//36 390//36 
f 215//64 216//64 464//64 462//64 
f 91//126 90//126 362//126 366//126 
f 4//127 64//127 271//127 269//127 
f 168//128 173//128 451//128 450//128 
f 32//129 31//129 296//129 297//129 
f 185//130 184//130 437//130 436//130 
f 49//131 50//131 324//131 323//131 
f 206//69 207//69 483//69 482//69 
f 116//18 122//18 390//18 389//18 
f 223//71 215//71 462//71 461//71 
f 92//132 91//132 366//132 367//132 
f 231//72 230//72 505//72 504//72 
f 65//133 4//133 269//133 268//133 
f 173//134 174//134 444//134 451//134 
f 33//135 32//135 297//135 298//135 
f 178//136 185//136 436//136 434//136 
f 48//137 49//137 323//137 322//137 
f 207//77 208//77 484//77 483//77 
f 117//138 116//138 389//138 387//138 
f 224//79 223//79 461//79 460//79 
f 93//139 92//139 367//139 368//139 
f 228//82 231//82 504//82 501//82 
f 66//140 106//140 333//140 332//140 
f 174//141 175//141 452//141 444//141 
f 24//142 33//142 298//142 299//142 
f 191//143 178//143 434//143 435//143 
f 15//144 48//144 322//144 321//144 
f 208//87 217//87 485//87 484//87 
f 118//18 117//18 387//18 388//18 
f 229//89 224//89 460//89 506//89 
f 105//145 93//145 368//145 346//145 
f 238//91 228//91 501//91 502//91 
f 67//146 66//146 332//146 372//146 
f 34//147 24//147 299//147 307//147 
f 175//9 176//9 453//9 452//9 
f 10//148 15//148 321//148 320//148 
f 192//11 191//11 435//11 433//11 
f 217//94 218//94 486//94 485//94 
f 120//36 118//36 388//36 386//36 
f 230//96 229//96 506//96 505//96 
f 101//149 105//149 346//149 345//149 
f 68//150 67//150 372//150 371//150 
f 239//99 238//99 502//99 500//99 
f 35//151 34//151 307//151 308//151 
f 176//19 177//19 454//19 453//19 
f 7//152 10//152 320//152 318//152 
f 193//21 192//21 433//21 432//21 
f 218//102 219//102 487//102 486//102 
f 119//153 120//153 386//153 385//153 
f 100//154 101//154 345//154 344//154 
f 70//155 68//155 371//155 370//155 
f 241//104 239//104 500//104 499//104 
f 36//156 35//156 308//156 309//156 
f 177//28 186//28 455//28 454//28 
f 8//157 7//157 318//157 319//157 
f 137//30 193//30 432//30 416//30 
f 219//107 220//107 488//107 487//107 
f 121//158 119//158 385//158 384//158 
f 222//108 225//108 507//108 490//108 
f 99//159 100//159 344//159 343//159 
f 71//160 70//160 370//160 369//160 
f 240//110 241//110 499//110 497//110 
f 37//161 36//161 309//161 310//161 
f 186//38 187//38 456//38 455//38 
f 9//162 8//162 319//162 317//162 
f 141//40 137//40 416//40 415//40 
f 220//114 221//114 489//114 488//114 
f 123//153 121//153 384//153 382//153 
f 225//116 226//116 508//116 507//116 
f 94//163 99//163 343//163 342//163 
f 73//164 71//164 369//164 347//164 
f 242//165 240//165 497//165 498//165 
f 38//166 37//166 310//166 311//166 
f 187//48 188//48 457//48 456//48 
f 11//167 9//167 317//167 316//167 
f 142//50 141//50 415//50 412//50 
f 221//121 222//121 490//121 489//121 
f 124//168 123//168 382//168 380//168 
f 226//123 227//123 509//123 508//123 
f 95//169 94//169 342//169 341//169 
f 72//170 73//170 347//170 365//170 
f 243//171 242//171 498//171 496//171 
f 39//172 38//172 311//172 289//172 
f 188//58 189//58 458//58 457//58 
f 12//173 11//173 316//173 314//173 
f 143//60 142//60 412//60 413//60 
f 125//153 124//153 380//153 381//153 
f 227//128 232//128 510//128 509//128 
f 96//36 95//36 341//36 339//36 
f 74//174 72//174 365//174 364//174 
f 244//130 243//130 496//130 495//130 
f 44//175 39//175 289//175 288//175 
f 189//65 190//65 459//65 458//65 
f 14//176 12//176 314//176 315//176 
f 140//67 143//67 413//67 411//67 
f 265//18 266//18 531//18 532//18 
f 127//27 125//27 381//27 379//27 
f 232//134 233//134 503//134 510//134 
f 98//177 96//177 339//177 340//177 
f 237//136 244//136 495//136 493//136 
f 75//178 74//178 364//178 363//178 
f 41//179 44//179 288//179 286//179 
f 190//73 136//73 418//73 459//73 
f 13//180 14//180 315//180 313//180 
f 150//74 140//74 411//74 410//74 
f 259//181 265//181 532//181 524//181 
f 126//18 127//18 379//18 378//18 
f 233//141 234//141 511//141 503//141 
f 97//182 98//182 340//182 338//182 
f 250//143 237//143 493//143 494//143 
f 77//183 75//183 363//183 357//183 
f 42//184 41//184 286//184 287//184 
f 136//83 135//83 417//83 418//83 
f 16//185 13//185 313//185 312//185 
f 151//84 150//84 410//84 408//84 
f 253//18 259//18 524//18 530//18 
f 128//186 126//186 378//186 377//186 
# 486 polygons - 76 triangles

