# 3ds Max Wavefront OBJ Exporter v0.97b - (c)2007 guruware
# File Created: 15.03.2017 11:12:38

mtllib SPW_Urban_Road Props_Tile Dark.mtl

#
# object SPW_Urban_Road_Props_Tile_Dark
#

v  -393.7008 -0.0000 393.7008
v  393.7008 -0.0000 393.7008
v  393.7008 0.0000 -393.7008
v  -393.7008 0.0000 -393.7008
# 4 vertices

vn 0.0000 1.0000 0.0000
# 1 vertex normals

vt 0.3634 0.8719 0.0000
vt 0.4134 0.8719 0.0000
vt 0.4134 0.9218 0.0000
vt 0.3634 0.9218 0.0000
# 4 texture coords

g SPW_Urban_Road_Props_Tile_Dark
usemtl SPW_Urban_Road
s off
f 1/1/1 2/2/1 3/3/1 4/4/1 
# 1 polygons

