# 3ds Max Wavefront OBJ Exporter v0.97b - (c)2007 guruware
# File Created: 15.03.2017 11:09:56

mtllib SPW_Urban_Road Props_Billboard_02.mtl

#
# object SPW_Urban_Road_Props_Billboard_02
#

v  -44.2911 0.0211 9.4668
v  -44.2911 5.3361 9.4668
v  -44.2911 5.3361 -9.4668
v  -44.2911 0.0211 -9.4668
v  44.2916 5.3361 9.4668
v  44.2916 5.3361 -9.4668
v  44.2916 0.0211 9.4668
v  44.2916 0.0211 -9.4668
v  -31.8898 35.4542 2.6575
v  -31.8898 35.4542 -2.6575
v  -31.8898 0.0211 -2.6575
v  -31.8898 0.0211 2.6575
v  31.8898 35.4542 -2.6575
v  31.8898 0.0211 -2.6575
v  31.8898 35.4542 2.6575
v  31.8898 0.0211 2.6575
v  53.1498 191.3597 6.2008
v  53.1498 191.3597 -6.2008
v  -53.1494 191.3597 -6.2008
v  -53.1494 191.3597 6.2008
v  -53.1493 31.9109 -6.2008
v  -47.7549 186.0620 -6.2008
v  -47.7549 37.2085 -6.2008
v  53.1499 31.9109 -6.2008
v  53.1499 31.9109 6.2008
v  -53.1493 31.9109 6.2008
v  -47.7586 37.2001 6.2008
v  -47.7586 186.0704 6.2008
v  -47.7586 37.2001 5.3150
v  -47.7586 186.0704 5.3150
v  47.7591 186.0704 6.2008
v  47.7591 37.2001 6.2008
v  47.7591 37.2001 5.3150
v  47.7591 186.0704 5.3150
v  -47.7549 186.0620 -5.3149
v  -47.7549 37.2085 -5.3149
v  47.7554 37.2086 -6.2008
v  47.7553 186.0620 -6.2008
v  47.7553 186.0620 -5.3149
v  47.7554 37.2086 -5.3150
# 40 vertices

vn -1.0000 0.0000 -0.0000
vn 0.0000 1.0000 0.0000
vn 1.0000 0.0000 -0.0000
vn 0.0000 -1.0000 -0.0000
vn 0.0000 0.0000 -1.0000
vn 0.0000 -0.0000 1.0000
vn -0.0000 1.0000 0.0000
vn -0.0000 0.0000 -1.0000
vn -1.0000 -0.0000 0.0000
vn 1.0000 0.0000 0.0000
vn -1.0000 -0.0000 -0.0000
# 11 vertex normals

vt 0.0151 0.8968 0.0000
vt 0.0251 0.8968 0.0000
vt 0.0251 0.9068 0.0000
vt 0.0151 0.9068 0.0000
vt 0.0151 0.8923 0.0000
vt 0.0251 0.8923 0.0000
vt 0.0251 0.9023 0.0000
vt 0.0151 0.9023 0.0000
vt 0.9457 0.0194 0.0000
vt 0.9457 0.5326 0.0000
vt 0.6164 0.5326 0.0000
vt 0.6164 0.0194 0.0000
vt 0.6165 0.5325 0.0000
vt 0.6165 0.0194 0.0000
vt 0.9457 0.5325 0.0000
# 15 texture coords

g SPW_Urban_Road_Props_Billboard_02
usemtl SPW_Urban_Road_Props_03
s off
f 1/1/1 2/2/1 3/3/1 4/4/1 
f 2/1/2 5/2/2 6/3/2 3/4/2 
f 5/1/3 7/2/3 8/3/3 6/4/3 
f 7/1/4 1/2/4 4/3/4 8/4/4 
f 4/1/5 3/2/5 6/3/5 8/4/5 
f 7/1/6 5/2/6 2/3/6 1/4/6 
f 9/1/1 10/2/1 11/3/1 12/4/1 
f 10/1/5 13/2/5 14/3/5 11/4/5 
f 13/1/3 15/2/3 16/3/3 14/4/3 
f 15/1/6 9/2/6 12/3/6 16/4/6 
f 12/1/4 11/2/4 14/3/4 16/4/4 
f 15/1/2 13/2/2 10/3/2 9/4/2 
f 17/5/7 18/6/7 19/7/7 20/8/7 
s 1
f 21/5/8 19/6/8 22/7/8 23/8/8 
s off
f 24/5/4 25/6/4 26/7/4 21/8/4 
s 1
f 20/5/6 26/6/6 27/7/6 28/8/6 
s off
f 20/5/9 19/6/9 21/7/9 26/8/9 
f 25/5/10 24/6/10 18/7/10 17/8/10 
f 28/5/10 27/6/10 29/7/10 30/8/10 
s 1
f 25/5/6 17/6/6 31/7/6 32/8/6 
f 26/5/6 25/6/6 32/7/6 27/8/6 
f 17/5/6 20/6/6 28/7/6 31/8/6 
s off
f 33/9/6 34/10/6 30/11/6 29/12/6 
f 32/5/11 31/6/11 34/7/11 33/8/11 
f 27/5/7 32/6/7 33/7/7 29/8/7 
f 31/5/4 28/6/4 30/7/4 34/8/4 
f 23/5/10 22/6/10 35/7/10 36/8/10 
s 1
f 24/5/8 21/6/8 23/7/8 37/8/8 
f 18/5/8 24/6/8 37/7/8 38/8/8 
f 19/5/8 18/6/8 38/7/8 22/8/8 
s off
f 39/13/8 40/14/8 36/9/8 35/15/8 
f 37/5/7 23/6/7 36/7/7 40/8/7 
f 38/5/11 37/6/11 40/7/11 39/8/11 
f 22/5/4 38/6/4 39/7/4 35/8/4 
# 34 polygons

