# 3ds Max Wavefront OBJ Exporter v0.97b - (c)2007 guruware
# File Created: 15.03.2017 11:10:54

mtllib SPW_Urban_Road Props_Stop Barrier_01.mtl

#
# object SPW_Urban_Road_Props_Stop_Barrier_01
#

v  -64.9569 73.6224 1.1042
v  -64.9568 86.6145 1.1042
v  -64.9568 86.6145 -1.0612
v  -64.9569 73.6224 -1.0612
v  64.4988 86.6145 1.1042
v  64.9569 86.6145 1.1042
v  64.9569 86.6145 -1.0612
v  64.4988 86.6145 -1.0612
v  64.9569 73.6224 1.1042
v  64.9569 73.6224 -1.0612
v  -64.4988 73.6224 1.1042
v  -64.4988 73.6224 -1.0612
v  57.0696 73.6224 -1.0612
v  -57.0696 86.6145 1.1042
v  57.0696 73.6224 1.1042
v  50.9912 86.6145 1.1042
v  43.5620 73.6224 1.1042
v  37.4836 86.6145 1.1042
v  30.0544 73.6224 1.1042
v  23.9760 86.6145 1.1042
v  16.5468 73.6224 1.1042
v  10.4684 86.6145 1.1042
v  3.0392 73.6224 1.1042
v  -3.0392 86.6145 1.1042
v  -10.4684 73.6224 1.1042
v  -16.5468 86.6145 1.1042
v  -23.9760 73.6224 1.1042
v  -30.0544 86.6145 1.1042
v  -37.4836 73.6224 1.1042
v  -43.5620 86.6145 1.1042
v  -50.9912 73.6224 1.1042
v  -57.0696 86.6145 -1.0612
v  -43.5620 86.6145 -1.0612
v  -50.9912 73.6224 -1.0612
v  -30.0544 86.6145 -1.0612
v  -37.4836 73.6224 -1.0612
v  -16.5468 86.6145 -1.0612
v  -23.9760 73.6224 -1.0612
v  -3.0392 86.6145 -1.0612
v  -10.4684 73.6224 -1.0612
v  10.4684 86.6145 -1.0612
v  3.0392 73.6224 -1.0612
v  23.9760 86.6145 -1.0612
v  16.5468 73.6224 -1.0612
v  37.4836 86.6145 -1.0612
v  30.0544 73.6224 -1.0612
v  50.9912 86.6145 -1.0612
v  43.5620 73.6224 -1.0612
v  -64.9569 49.8035 1.1042
v  -64.9569 62.7956 1.1042
v  -64.9569 62.7956 -1.0612
v  -64.9569 49.8035 -1.0612
v  64.4988 62.7956 1.1042
v  64.9569 62.7956 1.1042
v  64.9569 62.7956 -1.0612
v  64.4988 62.7956 -1.0612
v  64.9569 49.8035 1.1042
v  64.9569 49.8035 -1.0612
v  -64.4988 49.8035 1.1042
v  -64.4988 49.8035 -1.0612
v  57.0696 49.8035 -1.0612
v  -57.0696 62.7956 1.1042
v  57.0696 49.8035 1.1042
v  50.9912 62.7956 1.1042
v  43.5620 49.8035 1.1042
v  37.4836 62.7956 1.1042
v  30.0544 49.8035 1.1042
v  23.9760 62.7956 1.1042
v  16.5468 49.8035 1.1042
v  10.4684 62.7956 1.1042
v  3.0392 49.8035 1.1042
v  -3.0392 62.7956 1.1042
v  -10.4684 49.8035 1.1042
v  -16.5468 62.7956 1.1042
v  -23.9760 49.8035 1.1042
v  -30.0544 62.7956 1.1042
v  -37.4836 49.8035 1.1042
v  -43.5620 62.7956 1.1042
v  -50.9912 49.8035 1.1042
v  -57.0696 62.7956 -1.0612
v  -43.5620 62.7956 -1.0612
v  -50.9912 49.8035 -1.0612
v  -30.0544 62.7956 -1.0612
v  -37.4836 49.8035 -1.0612
v  -16.5468 62.7956 -1.0612
v  -23.9760 49.8035 -1.0612
v  -3.0392 62.7956 -1.0612
v  -10.4684 49.8035 -1.0612
v  10.4684 62.7956 -1.0612
v  3.0392 49.8035 -1.0612
v  23.9760 62.7956 -1.0612
v  16.5468 49.8035 -1.0612
v  37.4836 62.7956 -1.0612
v  30.0544 49.8035 -1.0612
v  50.9912 62.7956 -1.0612
v  43.5620 49.8035 -1.0612
v  -64.9569 25.9846 1.1042
v  -64.9569 38.9767 1.1042
v  -64.9569 38.9767 -1.0612
v  -64.9569 25.9846 -1.0612
v  64.4988 38.9767 1.1042
v  64.9569 38.9767 1.1042
v  64.9569 38.9767 -1.0612
v  64.4988 38.9767 -1.0612
v  64.9569 25.9846 1.1042
v  64.9569 25.9846 -1.0612
v  -64.4988 25.9846 1.1042
v  -64.4988 25.9846 -1.0612
v  57.0696 25.9846 -1.0612
v  -57.0696 38.9767 1.1042
v  57.0696 25.9846 1.1042
v  50.9912 38.9767 1.1042
v  43.5620 25.9846 1.1042
v  37.4836 38.9767 1.1042
v  30.0544 25.9846 1.1042
v  23.9760 38.9767 1.1042
v  16.5468 25.9846 1.1042
v  10.4684 38.9767 1.1042
v  3.0392 25.9846 1.1042
v  -3.0392 38.9767 1.1042
v  -10.4684 25.9846 1.1042
v  -16.5468 38.9767 1.1042
v  -23.9760 25.9846 1.1042
v  -30.0544 38.9767 1.1042
v  -37.4836 25.9846 1.1042
v  -43.5620 38.9767 1.1042
v  -50.9912 25.9846 1.1042
v  -57.0696 38.9767 -1.0612
v  -43.5620 38.9767 -1.0612
v  -50.9912 25.9846 -1.0612
v  -30.0544 38.9767 -1.0612
v  -37.4836 25.9846 -1.0612
v  -16.5468 38.9767 -1.0612
v  -23.9760 25.9846 -1.0612
v  -3.0392 38.9767 -1.0612
v  -10.4684 25.9846 -1.0612
v  10.4684 38.9767 -1.0612
v  3.0392 25.9846 -1.0612
v  23.9760 38.9767 -1.0612
v  16.5468 25.9846 -1.0612
v  37.4836 38.9767 -1.0612
v  30.0544 25.9846 -1.0612
v  50.9912 38.9767 -1.0612
v  43.5620 25.9846 -1.0612
v  -32.4803 50.8521 2.2666
v  -32.4803 85.4978 2.2666
v  -32.4803 85.4978 0.9674
v  -32.4803 50.8521 0.9674
v  32.4803 85.4978 2.2666
v  32.4803 85.4978 0.9674
v  32.4803 50.8521 2.2666
v  32.4803 50.8521 0.9674
v  -45.0394 0.0004 -1.0251
v  -45.0394 86.6145 -1.0251
v  -45.0394 86.6145 -4.4896
v  -45.0394 0.0004 -4.4896
v  -41.5748 86.6145 -1.0251
v  -41.5748 86.6145 -4.4896
v  -41.5748 0.0004 -1.0251
v  -41.5748 0.0004 -4.4896
v  41.5748 0.0004 -1.0251
v  41.5748 86.6145 -1.0251
v  41.5748 86.6145 -4.4896
v  41.5748 0.0004 -4.4896
v  45.0394 86.6145 -1.0251
v  45.0394 86.6145 -4.4896
v  45.0393 0.0004 -1.0251
v  45.0393 0.0004 -4.4896
v  -49.8031 83.8217 0.3851
v  -49.8031 90.1935 0.3851
v  -49.8031 90.1935 -1.7803
v  -49.8031 83.8217 -1.7803
v  -43.3071 92.8775 0.3851
v  -36.8110 90.1935 0.3851
v  -36.8110 90.1935 -1.7803
v  -43.3071 92.8775 -1.7803
v  -36.8110 83.8217 0.3851
v  -36.8110 83.8217 -1.7803
v  -43.3071 83.8217 0.3851
v  -43.3071 83.8217 -1.7803
v  -43.3071 106.4193 -1.9810
v  -43.3071 106.4193 -0.1419
v  -38.0611 104.2464 -0.1419
v  -38.0611 104.2464 -1.9810
v  -35.8882 99.0004 -0.1419
v  -35.8882 99.0004 -1.9810
v  -38.0611 93.7545 -0.1419
v  -38.0611 93.7545 -1.9810
v  -43.3071 91.5816 -0.1419
v  -43.3071 91.5816 -1.9810
v  -48.5530 93.7545 -0.1419
v  -48.5530 93.7545 -1.9810
v  -50.7259 99.0004 -0.1419
v  -50.7259 99.0004 -1.9810
v  -48.5530 104.2464 -0.1419
v  -47.4141 103.1075 -0.1419
v  -43.3071 104.8087 -0.1419
v  -48.5530 104.2464 -1.9810
v  -43.4205 99.1139 0.8589
v  -43.3071 99.1609 0.8589
v  -49.1153 99.0004 -0.1419
v  -47.4141 94.8934 -0.1419
v  -43.3071 93.1922 -0.1419
v  -39.2000 94.8934 -0.1419
v  -37.4988 99.0004 -0.1419
v  -39.2000 103.1075 -0.1419
v  -43.1936 99.1139 0.8589
v  -43.4675 99.0004 0.8589
v  -43.4205 98.8870 0.8589
v  -43.3071 98.8400 0.8589
v  -43.1936 98.8870 0.8589
v  -43.1466 99.0004 0.8589
v  43.3071 106.4193 -1.9810
v  43.3071 106.4193 -0.1419
v  48.5530 104.2464 -0.1419
v  48.5530 104.2464 -1.9810
v  50.7260 99.0004 -0.1419
v  50.7260 99.0004 -1.9810
v  48.5530 93.7545 -0.1419
v  48.5530 93.7545 -1.9810
v  43.3071 91.5816 -0.1419
v  43.3071 91.5816 -1.9810
v  38.0612 93.7545 -0.1419
v  38.0612 93.7545 -1.9810
v  35.8882 99.0004 -0.1419
v  35.8882 99.0004 -1.9810
v  38.0612 104.2464 -0.1419
v  39.2001 103.1075 -0.1419
v  43.3071 104.8087 -0.1419
v  38.0612 104.2464 -1.9810
v  43.1936 99.1139 0.8589
v  43.3071 99.1609 0.8589
v  37.4989 99.0004 -0.1419
v  39.2001 94.8934 -0.1419
v  43.3071 93.1922 -0.1419
v  47.4141 94.8934 -0.1419
v  49.1153 99.0004 -0.1419
v  47.4141 103.1075 -0.1419
v  43.4206 99.1139 0.8589
v  43.1466 99.0004 0.8589
v  43.1936 98.8870 0.8589
v  43.3071 98.8400 0.8589
v  43.4206 98.8870 0.8589
v  43.4676 99.0004 0.8589
v  36.8110 83.8217 0.3851
v  36.8110 90.1935 0.3851
v  36.8110 90.1935 -1.7803
v  36.8110 83.8217 -1.7803
v  43.3071 92.8775 0.3851
v  49.8032 90.1935 0.3851
v  49.8032 90.1935 -1.7803
v  43.3071 92.8775 -1.7803
v  49.8032 83.8217 0.3851
v  49.8032 83.8217 -1.7803
v  43.3071 83.8217 0.3851
v  43.3071 83.8217 -1.7803
v  -45.0394 0.0004 -20.0802
v  -45.0394 0.0004 14.5655
v  -45.0394 3.4649 14.5655
v  -45.0394 3.4649 -20.0802
v  -41.5748 0.0004 14.5655
v  -41.5748 3.4649 14.5655
v  -41.5748 0.0004 -20.0802
v  -41.5748 3.4649 -20.0802
v  41.5748 0.0004 -20.0802
v  41.5748 0.0004 14.5655
v  41.5748 3.4649 14.5655
v  41.5748 3.4649 -20.0802
v  45.0393 0.0004 14.5655
v  45.0393 3.4649 14.5655
v  45.0393 0.0004 -20.0802
v  45.0393 3.4649 -20.0802
# 272 vertices

vn -1.0000 0.0000 0.0000
vn 0.0000 1.0000 0.0000
vn 1.0000 -0.0000 -0.0000
vn 0.0000 -1.0000 -0.0000
vn 0.0000 0.0000 -1.0000
vn 0.0000 -0.0000 1.0000
vn -1.0000 0.0000 -0.0000
vn 1.0000 0.0000 -0.0000
vn 1.0000 -0.0000 0.0000
vn 0.0000 -1.0000 0.0000
vn 0.3819 0.9242 0.0000
vn -0.0000 -0.0000 -1.0000
vn 0.0000 -0.0000 -1.0000
vn -0.0000 0.0000 1.0000
vn 0.0000 0.0000 1.0000
vn -0.3819 0.9242 0.0000
vn 0.3827 0.9239 0.0000
vn 0.9239 0.3827 0.0000
vn 0.9239 -0.3827 -0.0000
vn 0.3827 -0.9239 -0.0000
vn -0.3827 -0.9239 -0.0000
vn -0.9239 -0.3827 -0.0000
vn -0.3827 0.9239 0.0000
vn -0.9239 0.3827 0.0000
vn -0.0000 0.0000 -1.0000
vn -0.0721 0.1740 0.9821
vn -0.0000 -0.0000 1.0000
vn -0.1740 0.0721 0.9821
vn -0.1740 -0.0721 0.9821
vn -0.0721 -0.1740 0.9821
vn 0.0721 -0.1740 0.9821
vn 0.1740 -0.0721 0.9821
vn 0.1740 0.0721 0.9821
vn 0.0721 0.1740 0.9821
vn 0.0000 1.0000 -0.0000
# 35 vertex normals

vt 0.0086 0.9781 0.0000
vt 0.0219 0.9781 0.0000
vt 0.0219 0.9914 0.0000
vt 0.0086 0.9914 0.0000
vt 0.0553 0.9756 0.0000
vt 0.0686 0.9756 0.0000
vt 0.0686 0.9890 0.0000
vt 0.0553 0.9890 0.0000
vt 0.7934 0.8768 0.0000
vt 0.7934 0.9751 0.0000
vt 0.9776 0.9751 0.0000
vt 0.9776 0.8768 0.0000
vt 0.9376 0.9412 0.0000
vt 0.9376 0.9490 0.0000
vt 0.9521 0.9490 0.0000
vt 0.9521 0.9412 0.0000
vt 0.0121 0.9360 0.0000
vt 0.0237 0.9360 0.0000
vt 0.0237 0.9476 0.0000
vt 0.0121 0.9476 0.0000
vt 0.0152 0.7825 0.0000
vt 0.0268 0.7825 0.0000
vt 0.0268 0.7941 0.0000
vt 0.0152 0.7941 0.0000
vt 0.0210 0.7941 0.0000
vt 0.0251 0.7924 0.0000
vt 0.0268 0.7883 0.0000
vt 0.0251 0.7842 0.0000
vt 0.0210 0.7825 0.0000
vt 0.0169 0.7842 0.0000
vt 0.0152 0.7883 0.0000
vt 0.0169 0.7924 0.0000
vt 0.0589 0.9600 0.0000
vt 0.0457 0.9545 0.0000
vt 0.0585 0.9417 0.0000
vt 0.0589 0.9418 0.0000
vt 0.0593 0.9417 0.0000
vt 0.0584 0.9413 0.0000
vt 0.0585 0.9410 0.0000
vt 0.0589 0.9408 0.0000
vt 0.0593 0.9410 0.0000
vt 0.0594 0.9413 0.0000
vt 0.0403 0.9413 0.0000
vt 0.0457 0.9282 0.0000
vt 0.0589 0.9227 0.0000
vt 0.0721 0.9282 0.0000
vt 0.0775 0.9413 0.0000
vt 0.0721 0.9545 0.0000
# 48 texture coords

g SPW_Urban_Road_Props_Stop_Barrier_01
usemtl SPW_Urban_Road_Props_01
s off
f 1/1/1 2/2/1 3/3/1 4/4/1 
s 1
f 5/1/2 6/2/2 7/3/2 8/4/2 
s off
f 6/1/3 9/2/3 10/3/3 7/4/3 
s 1
f 11/1/4 1/2/4 4/3/4 12/4/4 
s 2
f 13/1/5 8/2/5 7/3/5 10/4/5 
f 11/1/6 14/2/6 2/3/6 1/4/6 
f 9/1/6 6/2/6 5/3/6 15/4/6 
f 15/5/6 5/6/6 16/7/6 17/8/6 
f 17/1/6 16/2/6 18/3/6 19/4/6 
f 19/5/6 18/6/6 20/7/6 21/8/6 
f 21/1/6 20/2/6 22/3/6 23/4/6 
f 23/5/6 22/6/6 24/7/6 25/8/6 
f 25/1/6 24/2/6 26/3/6 27/4/6 
f 27/5/6 26/6/6 28/7/6 29/8/6 
f 29/1/6 28/2/6 30/3/6 31/4/6 
f 31/5/6 30/6/6 14/7/6 11/8/6 
f 4/1/5 3/2/5 32/3/5 12/4/5 
f 12/5/5 32/6/5 33/7/5 34/8/5 
f 34/1/5 33/2/5 35/3/5 36/4/5 
f 36/5/5 35/6/5 37/7/5 38/8/5 
f 38/1/5 37/2/5 39/3/5 40/4/5 
f 40/5/5 39/6/5 41/7/5 42/8/5 
f 42/1/5 41/2/5 43/3/5 44/4/5 
f 44/5/5 43/6/5 45/7/5 46/8/5 
f 46/1/5 45/2/5 47/3/5 48/4/5 
f 48/5/5 47/6/5 8/7/5 13/8/5 
s 1
f 9/1/4 15/2/4 13/3/4 10/4/4 
f 15/5/4 17/6/4 48/7/4 13/8/4 
f 17/1/4 19/2/4 46/3/4 48/4/4 
f 19/5/4 21/6/4 44/7/4 46/8/4 
f 21/1/4 23/2/4 42/3/4 44/4/4 
f 23/5/4 25/6/4 40/7/4 42/8/4 
f 25/1/4 27/2/4 38/3/4 40/4/4 
f 27/5/4 29/6/4 36/7/4 38/8/4 
f 29/1/4 31/2/4 34/3/4 36/4/4 
f 31/5/4 11/6/4 12/7/4 34/8/4 
f 2/1/2 14/2/2 32/3/2 3/4/2 
f 14/5/2 30/6/2 33/7/2 32/8/2 
f 30/1/2 28/2/2 35/3/2 33/4/2 
f 28/5/2 26/6/2 37/7/2 35/8/2 
s off
f 26/1/2 24/2/2 39/3/2 37/4/2 
f 24/5/2 22/6/2 41/7/2 39/8/2 
f 22/1/2 20/2/2 43/3/2 41/4/2 
s 1
f 20/5/2 18/6/2 45/7/2 43/8/2 
f 18/1/2 16/2/2 47/3/2 45/4/2 
f 16/5/2 5/6/2 8/7/2 47/8/2 
s off
f 49/1/1 50/2/1 51/3/1 52/4/1 
s 1
f 53/1/2 54/2/2 55/3/2 56/4/2 
s off
f 54/1/3 57/2/3 58/3/3 55/4/3 
s 1
f 59/1/4 49/2/4 52/3/4 60/4/4 
s 2
f 61/1/5 56/2/5 55/3/5 58/4/5 
f 59/1/6 62/2/6 50/3/6 49/4/6 
f 57/1/6 54/2/6 53/3/6 63/4/6 
f 63/5/6 53/6/6 64/7/6 65/8/6 
f 65/1/6 64/2/6 66/3/6 67/4/6 
f 67/5/6 66/6/6 68/7/6 69/8/6 
f 69/1/6 68/2/6 70/3/6 71/4/6 
f 71/5/6 70/6/6 72/7/6 73/8/6 
f 73/1/6 72/2/6 74/3/6 75/4/6 
f 75/5/6 74/6/6 76/7/6 77/8/6 
f 77/1/6 76/2/6 78/3/6 79/4/6 
f 79/5/6 78/6/6 62/7/6 59/8/6 
f 52/1/5 51/2/5 80/3/5 60/4/5 
f 60/5/5 80/6/5 81/7/5 82/8/5 
f 82/1/5 81/2/5 83/3/5 84/4/5 
f 84/5/5 83/6/5 85/7/5 86/8/5 
f 86/1/5 85/2/5 87/3/5 88/4/5 
f 88/5/5 87/6/5 89/7/5 90/8/5 
f 90/1/5 89/2/5 91/3/5 92/4/5 
f 92/5/5 91/6/5 93/7/5 94/8/5 
f 94/1/5 93/2/5 95/3/5 96/4/5 
f 96/5/5 95/6/5 56/7/5 61/8/5 
s 1
f 57/1/4 63/2/4 61/3/4 58/4/4 
f 63/5/4 65/6/4 96/7/4 61/8/4 
s off
f 65/1/4 67/2/4 94/3/4 96/4/4 
s 1
f 67/5/4 69/6/4 92/7/4 94/8/4 
f 69/1/4 71/2/4 90/3/4 92/4/4 
f 71/5/4 73/6/4 88/7/4 90/8/4 
s off
f 73/1/4 75/2/4 86/3/4 88/4/4 
s 1
f 75/5/4 77/6/4 84/7/4 86/8/4 
f 77/1/4 79/2/4 82/3/4 84/4/4 
f 79/5/4 59/6/4 60/7/4 82/8/4 
f 50/1/2 62/2/2 80/3/2 51/4/2 
f 62/5/2 78/6/2 81/7/2 80/8/2 
f 78/1/2 76/2/2 83/3/2 81/4/2 
f 76/5/2 74/6/2 85/7/2 83/8/2 
s off
f 74/1/2 72/2/2 87/3/2 85/4/2 
f 72/5/2 70/6/2 89/7/2 87/8/2 
f 70/1/2 68/2/2 91/3/2 89/4/2 
s 1
f 68/5/2 66/6/2 93/7/2 91/8/2 
f 66/1/2 64/2/2 95/3/2 93/4/2 
f 64/5/2 53/6/2 56/7/2 95/8/2 
s off
f 97/1/7 98/2/7 99/3/7 100/4/7 
s 1
f 101/1/2 102/2/2 103/3/2 104/4/2 
s off
f 102/1/8 105/2/8 106/3/8 103/4/8 
s 1
f 107/1/4 97/2/4 100/3/4 108/4/4 
s 2
f 109/1/5 104/2/5 103/3/5 106/4/5 
f 107/1/6 110/2/6 98/3/6 97/4/6 
f 105/1/6 102/2/6 101/3/6 111/4/6 
f 111/5/6 101/6/6 112/7/6 113/8/6 
f 113/1/6 112/2/6 114/3/6 115/4/6 
f 115/5/6 114/6/6 116/7/6 117/8/6 
f 117/1/6 116/2/6 118/3/6 119/4/6 
f 119/5/6 118/6/6 120/7/6 121/8/6 
f 121/1/6 120/2/6 122/3/6 123/4/6 
f 123/5/6 122/6/6 124/7/6 125/8/6 
f 125/1/6 124/2/6 126/3/6 127/4/6 
f 127/5/6 126/6/6 110/7/6 107/8/6 
f 100/1/5 99/2/5 128/3/5 108/4/5 
f 108/5/5 128/6/5 129/7/5 130/8/5 
f 130/1/5 129/2/5 131/3/5 132/4/5 
f 132/5/5 131/6/5 133/7/5 134/8/5 
f 134/1/5 133/2/5 135/3/5 136/4/5 
f 136/5/5 135/6/5 137/7/5 138/8/5 
f 138/1/5 137/2/5 139/3/5 140/4/5 
f 140/5/5 139/6/5 141/7/5 142/8/5 
f 142/1/5 141/2/5 143/3/5 144/4/5 
f 144/5/5 143/6/5 104/7/5 109/8/5 
s 1
f 105/1/4 111/2/4 109/3/4 106/4/4 
f 111/5/4 113/6/4 144/7/4 109/8/4 
f 113/1/4 115/2/4 142/3/4 144/4/4 
f 115/5/4 117/6/4 140/7/4 142/8/4 
f 117/1/4 119/2/4 138/3/4 140/4/4 
f 119/5/4 121/6/4 136/7/4 138/8/4 
f 121/1/4 123/2/4 134/3/4 136/4/4 
f 123/5/4 125/6/4 132/7/4 134/8/4 
f 125/1/4 127/2/4 130/3/4 132/4/4 
f 127/5/4 107/6/4 108/7/4 130/8/4 
f 98/1/2 110/2/2 128/3/2 99/4/2 
f 110/5/2 126/6/2 129/7/2 128/8/2 
f 126/1/2 124/2/2 131/3/2 129/4/2 
f 124/5/2 122/6/2 133/7/2 131/8/2 
f 122/1/2 120/2/2 135/3/2 133/4/2 
s off
f 120/5/2 118/6/2 137/7/2 135/8/2 
s 1
f 118/1/2 116/2/2 139/3/2 137/4/2 
f 116/5/2 114/6/2 141/7/2 139/8/2 
f 114/1/2 112/2/2 143/3/2 141/4/2 
f 112/5/2 101/6/2 104/7/2 143/8/2 
s off
f 145/9/1 146/10/1 147/10/1 148/9/1 
f 146/10/2 149/11/2 150/11/2 147/10/2 
f 149/11/3 151/12/3 152/12/3 150/11/3 
f 151/12/4 145/9/4 148/9/4 152/12/4 
f 148/13/5 147/14/5 150/15/5 152/16/5 
f 151/12/6 149/11/6 146/10/6 145/9/6 
f 153/17/7 154/18/7 155/19/7 156/20/7 
f 154/17/2 157/18/2 158/19/2 155/20/2 
f 157/17/9 159/18/9 160/19/9 158/20/9 
f 159/17/10 153/18/10 156/19/10 160/20/10 
f 156/17/5 155/18/5 158/19/5 160/20/5 
f 159/17/6 157/18/6 154/19/6 153/20/6 
f 161/17/7 162/18/7 163/19/7 164/20/7 
f 162/17/2 165/18/2 166/19/2 163/20/2 
f 165/17/9 167/18/9 168/19/9 166/20/9 
f 167/17/10 161/18/10 164/19/10 168/20/10 
f 164/17/5 163/18/5 166/19/5 168/20/5 
f 167/17/6 165/18/6 162/19/6 161/20/6 
f 169/17/7 170/18/7 171/19/7 172/20/7 
f 173/17/11 174/18/11 175/19/11 176/20/11 
f 174/17/8 177/18/8 178/19/8 175/20/8 
s 1
f 179/17/4 169/18/4 172/19/4 180/20/4 
s 2
f 180/17/12 176/18/12 175/19/12 178/20/13 
f 179/17/14 173/18/14 170/19/14 169/20/15 
f 177/17/15 174/18/15 173/19/14 179/20/14 
f 172/17/13 171/18/13 176/19/12 180/20/12 
s 1
f 177/17/4 179/18/4 180/19/4 178/20/4 
s off
f 170/17/16 173/18/16 176/19/16 171/20/16 
f 181/21/17 182/22/17 183/23/17 184/24/17 
f 184/21/18 183/22/18 185/23/18 186/24/18 
f 186/21/19 185/22/19 187/23/19 188/24/19 
f 188/21/20 187/22/20 189/23/20 190/24/20 
f 190/21/21 189/22/21 191/23/21 192/24/21 
f 192/21/22 191/22/22 193/23/22 194/24/22 
s 1
f 182/21/14 195/22/6 196/23/6 197/24/14 
s off
f 198/21/23 195/22/23 182/23/23 181/24/23 
f 194/21/24 193/22/24 195/23/24 198/24/24 
f 181/25/5 184/26/5 186/27/5 188/28/5 
f 181/25/5 188/28/5 190/29/5 192/30/5 
f 181/25/25 192/30/25 194/31/25 198/32/25 
f 197/33/26 196/34/26 199/35/26 200/36/26 
s 1
f 195/21/6 193/22/6 201/23/27 196/24/6 
f 193/21/6 191/22/6 202/23/6 201/24/27 
f 191/21/6 189/22/14 203/23/14 202/24/6 
f 189/21/14 187/22/27 204/23/27 203/24/14 
f 187/21/27 185/22/6 205/23/27 204/24/27 
f 185/21/6 183/22/6 206/23/6 205/24/27 
f 183/21/6 182/22/14 197/23/14 206/24/6 
s off
f 207/37/15 200/36/15 199/35/15 208/38/15 
f 207/37/6 208/38/6 209/39/6 210/40/6 
f 207/37/14 210/40/14 211/41/14 212/42/14 
f 196/34/28 201/43/28 208/38/28 199/35/28 
f 201/43/29 202/44/29 209/39/29 208/38/29 
f 202/44/30 203/45/30 210/40/30 209/39/30 
f 203/45/31 204/46/31 211/41/31 210/40/31 
f 204/46/32 205/47/32 212/42/32 211/41/32 
f 205/47/33 206/48/33 207/37/33 212/42/33 
f 206/48/34 197/33/34 200/36/34 207/37/34 
f 213/21/17 214/22/17 215/23/17 216/24/17 
f 216/21/18 215/22/18 217/23/18 218/24/18 
f 218/21/19 217/22/19 219/23/19 220/24/19 
f 220/21/20 219/22/20 221/23/20 222/24/20 
f 222/21/21 221/22/21 223/23/21 224/24/21 
f 224/21/22 223/22/22 225/23/22 226/24/22 
s 1
f 214/21/14 227/22/6 228/23/6 229/24/14 
s off
f 230/21/23 227/22/23 214/23/23 213/24/23 
f 226/21/24 225/22/24 227/23/24 230/24/24 
f 213/25/5 216/26/5 218/27/5 220/28/5 
f 213/25/5 220/28/5 222/29/5 224/30/5 
f 213/25/25 224/30/25 226/31/25 230/32/25 
f 229/33/26 228/34/26 231/35/26 232/36/26 
s 1
f 227/21/6 225/22/6 233/23/27 228/24/6 
f 225/21/6 223/22/6 234/23/6 233/24/27 
f 223/21/6 221/22/14 235/23/14 234/24/6 
f 221/21/14 219/22/27 236/23/27 235/24/14 
f 219/21/27 217/22/6 237/23/27 236/24/27 
f 217/21/6 215/22/6 238/23/6 237/24/27 
f 215/21/6 214/22/14 229/23/14 238/24/6 
s off
f 239/37/15 232/36/15 231/35/15 240/38/15 
f 239/37/6 240/38/6 241/39/6 242/40/6 
f 239/37/14 242/40/14 243/41/14 244/42/14 
f 228/34/28 233/43/28 240/38/28 231/35/28 
f 233/43/29 234/44/29 241/39/29 240/38/29 
f 234/44/30 235/45/30 242/40/30 241/39/30 
f 235/45/31 236/46/31 243/41/31 242/40/31 
f 236/46/32 237/47/32 244/42/32 243/41/32 
f 237/47/33 238/48/33 239/37/33 244/42/33 
f 238/48/34 229/33/34 232/36/34 239/37/34 
f 245/17/1 246/18/1 247/19/1 248/20/1 
f 249/17/11 250/18/11 251/19/11 252/20/11 
f 250/17/8 253/18/8 254/19/8 251/20/8 
s 1
f 255/17/4 245/18/4 248/19/4 256/20/4 
s 2
f 256/17/12 252/18/12 251/19/12 254/20/13 
f 255/17/14 249/18/14 246/19/14 245/20/15 
f 253/17/15 250/18/15 249/19/14 255/20/14 
f 248/17/13 247/18/13 252/19/12 256/20/12 
s 1
f 253/17/4 255/18/4 256/19/4 254/20/4 
s off
f 246/17/16 249/18/16 252/19/16 247/20/16 
f 257/17/7 258/18/7 259/19/7 260/20/7 
f 258/17/6 261/18/6 262/19/6 259/20/6 
f 261/17/8 263/18/8 264/19/8 262/20/8 
f 263/17/5 257/18/5 260/19/5 264/20/5 
f 260/17/35 259/18/35 262/19/35 264/20/35 
f 263/17/10 261/18/10 258/19/10 257/20/10 
f 265/17/7 266/18/7 267/19/7 268/20/7 
f 266/17/6 269/18/6 270/19/6 267/20/6 
f 269/17/8 271/18/8 272/19/8 270/20/8 
f 271/17/5 265/18/5 268/19/5 272/20/5 
f 268/17/35 267/18/35 270/19/35 272/20/35 
f 271/17/10 269/18/10 266/19/10 265/20/10 
# 248 polygons

