# 3ds Max Wavefront OBJ Exporter v0.97b - (c)2007 guruware
# File Created: 15.03.2017 11:43:00

mtllib SPW_Urban_Bridge_4way RoadBridge_02.mtl

#
# object SPW_Urban_Bridge_4way_RoadBridge_02
#

v  -771.8257 75.1675 -774.6063
v  -771.8257 75.1675 -780.5118
v  -771.8257 65.3250 -780.5118
v  -771.8257 65.3250 -774.6063
v  772.0186 75.1675 -780.5118
v  772.0186 65.3250 -780.5118
v  772.0186 75.1675 -774.6063
v  772.0186 65.3250 -774.6063
v  -782.2839 78.8368 -771.5575
v  -782.2839 78.8368 -783.5607
v  -787.4022 38.9898 -794.1385
v  -787.4022 38.9898 -760.9796
v  -761.8111 78.8368 -783.5607
v  -756.6929 38.9898 -794.1385
v  -761.8111 78.8368 -771.5575
v  -756.6929 38.9898 -760.9796
v  761.8111 78.8368 -771.5575
v  761.8111 78.8368 -783.5607
v  756.6929 38.9899 -794.1385
v  756.6929 38.9898 -760.9796
v  782.2833 78.8368 -783.5607
v  787.4017 38.9899 -794.1385
v  782.2833 78.8368 -771.5575
v  787.4017 38.9898 -760.9796
v  -10.2364 78.8368 -771.5575
v  -10.2364 78.8368 -783.5607
v  -15.3546 38.9899 -794.1385
v  -15.3546 38.9898 -760.9796
v  10.2359 78.8368 -783.5607
v  15.3541 38.9899 -794.1385
v  10.2359 78.8368 -771.5575
v  15.3541 38.9898 -760.9796
v  383.4643 78.8368 -771.5575
v  383.4643 78.8368 -783.5607
v  378.3462 38.9899 -794.1385
v  378.3462 38.9898 -760.9796
v  403.9366 78.8368 -783.5607
v  409.0549 38.9899 -794.1385
v  403.9366 78.8368 -771.5575
v  409.0549 38.9898 -760.9796
v  -403.9372 78.8368 -771.5575
v  -403.9372 78.8368 -783.5607
v  -409.0554 38.9899 -794.1385
v  -409.0554 38.9898 -760.9796
v  -383.4649 78.8368 -783.5607
v  -378.3466 38.9899 -794.1385
v  -383.4649 78.8368 -771.5575
v  -378.3466 38.9898 -760.9796
v  -770.0971 75.1673 780.5118
v  -770.0971 75.1673 774.6062
v  -770.0971 65.3248 774.6062
v  -770.0971 65.3248 780.5118
v  772.3799 75.1673 774.6062
v  772.3799 65.3248 774.6062
v  772.3799 75.1673 780.5118
v  772.3799 65.3248 780.5118
v  -782.2839 78.8367 783.5606
v  -782.2839 78.8367 771.5574
v  -787.4022 38.9897 760.9795
v  -787.4022 38.9897 794.1385
v  -761.8111 78.8367 771.5574
v  -756.6929 38.9897 760.9795
v  -761.8111 78.8367 783.5606
v  -756.6929 38.9897 794.1385
v  761.8111 78.8367 783.5606
v  761.8111 78.8367 771.5574
v  756.6929 38.9897 760.9795
v  756.6929 38.9897 794.1385
v  782.2833 78.8367 771.5574
v  787.4017 38.9897 760.9795
v  782.2833 78.8367 783.5606
v  787.4017 38.9897 794.1385
v  -10.2364 78.8367 783.5606
v  -10.2364 78.8367 771.5574
v  -15.3546 38.9897 760.9795
v  -15.3546 38.9897 794.1385
v  10.2359 78.8367 771.5574
v  15.3541 38.9897 760.9795
v  10.2359 78.8367 783.5606
v  15.3541 38.9897 794.1385
v  383.4643 78.8367 783.5606
v  383.4643 78.8367 771.5574
v  378.3462 38.9897 760.9795
v  378.3462 38.9897 794.1385
v  403.9366 78.8367 771.5574
v  409.0549 38.9897 760.9795
v  403.9366 78.8367 783.5606
v  409.0549 38.9897 794.1385
v  -403.9372 78.8367 783.5606
v  -403.9372 78.8367 771.5574
v  -409.0554 38.9897 760.9795
v  -409.0554 38.9897 794.1385
v  -383.4649 78.8367 771.5574
v  -378.3466 38.9897 760.9795
v  -383.4649 78.8367 783.5606
v  -378.3466 38.9897 794.1385
v  787.4016 -0.0001 669.2913
v  -787.4016 -0.0001 669.2913
v  -787.4016 -78.7402 669.2913
v  787.4016 -78.7402 669.2913
v  787.4016 -0.0001 657.4803
v  -787.4016 -0.0001 657.4803
v  -787.4016 -0.0001 645.6694
v  787.4016 -0.0001 645.6694
v  629.9213 -0.0000 370.0787
v  551.1812 -0.0000 370.0787
v  629.9213 -0.0000 358.2677
v  551.1812 -0.0000 358.2677
v  433.0709 -0.0000 370.0787
v  354.3307 -0.0000 370.0787
v  433.0709 -0.0000 358.2677
v  354.3307 -0.0000 358.2677
v  236.2205 -0.0000 370.0788
v  157.4803 -0.0000 370.0788
v  236.2205 -0.0000 358.2677
v  157.4803 -0.0000 358.2677
v  39.3701 -0.0000 370.0788
v  -39.3701 -0.0000 370.0788
v  39.3701 -0.0000 358.2677
v  -39.3701 -0.0000 358.2677
v  -157.4803 -0.0000 370.0788
v  -236.2204 -0.0000 370.0788
v  -157.4803 -0.0000 358.2677
v  -236.2204 -0.0000 358.2677
v  -354.3307 -0.0000 370.0788
v  -433.0708 -0.0000 370.0788
v  -354.3307 -0.0000 358.2678
v  -433.0708 -0.0000 358.2678
v  -551.1810 -0.0000 370.0788
v  -629.9212 -0.0000 370.0788
v  -551.1810 -0.0000 358.2678
v  -629.9212 -0.0000 358.2678
v  -748.0314 -0.0000 370.0788
v  -787.4016 -0.0000 82.6772
v  -748.0314 -0.0000 358.2678
v  748.0315 -0.0000 370.0787
v  748.0315 -0.0000 358.2677
v  787.4016 -0.0000 82.6771
v  787.4016 -0.0000 70.8661
v  787.4016 0.0000 -70.8662
v  -787.4016 0.0000 -70.8661
v  -787.4016 -0.0000 70.8662
v  748.0314 0.0000 -358.2678
v  629.9212 0.0000 -358.2678
v  787.4016 0.0000 -82.6772
v  748.0314 0.0000 -370.0788
v  787.4016 0.0001 -645.6694
v  629.9212 0.0000 -370.0788
v  551.1810 0.0000 -370.0788
v  433.0708 0.0000 -370.0788
v  354.3307 0.0000 -370.0788
v  236.2204 0.0000 -370.0788
v  157.4803 0.0000 -370.0788
v  39.3701 0.0000 -370.0788
v  -39.3701 0.0000 -370.0788
v  -157.4803 0.0000 -370.0788
v  -787.4016 0.0001 -645.6693
v  -748.0315 0.0000 -370.0788
v  -629.9213 0.0000 -370.0788
v  -551.1812 0.0000 -370.0788
v  -433.0709 0.0000 -370.0788
v  -354.3307 0.0000 -370.0788
v  -236.2205 0.0000 -370.0788
v  -157.4803 0.0000 -358.2678
v  -236.2205 0.0000 -358.2678
v  -354.3307 0.0000 -358.2677
v  -433.0709 0.0000 -358.2677
v  -551.1812 0.0000 -358.2677
v  -629.9213 0.0000 -358.2677
v  -748.0315 0.0000 -358.2677
v  -787.4016 0.0000 -82.6771
v  -39.3701 0.0000 -358.2678
v  39.3701 0.0000 -358.2678
v  551.1810 0.0000 -358.2678
v  433.0708 0.0000 -358.2678
v  354.3307 0.0000 -358.2678
v  236.2204 0.0000 -358.2678
v  157.4803 0.0000 -358.2678
v  787.4016 0.0001 -657.4803
v  787.4016 0.0001 -669.2913
v  -787.4016 0.0001 -669.2913
v  -787.4016 0.0001 -657.4803
v  787.4016 -78.7401 -669.2913
v  -787.4016 -78.7401 -669.2913
v  -787.4016 39.3701 39.3701
v  -787.4016 39.3701 -39.3701
v  -787.4016 0.0000 -39.3701
v  -787.4016 -0.0000 39.3701
v  787.4016 39.3701 -39.3701
v  787.4016 0.0000 -39.3701
v  787.4016 39.3701 39.3701
v  787.4016 -0.0000 39.3701
v  -787.4016 23.6220 807.0866
v  -787.4016 -0.0001 748.0315
v  -787.4016 -78.7402 748.0315
v  -787.4016 -78.7402 807.0866
v  787.4016 -0.0001 748.0315
v  787.4016 -78.7402 748.0315
v  787.4016 -0.0001 836.6142
v  787.4016 -0.0001 866.1417
v  787.4016 -78.7403 866.1417
v  787.4016 -78.7403 836.6142
v  -787.4016 -0.0001 866.1417
v  -787.4016 -78.7403 866.1417
v  787.4016 -78.7402 807.0866
v  787.4016 23.6220 807.0866
v  787.4016 39.3700 807.0866
v  -787.4016 39.3700 807.0866
v  -787.4016 -0.0001 836.6142
v  -787.4016 -78.7403 836.6142
v  787.4016 39.3700 748.0315
v  -787.4016 39.3700 748.0315
v  787.4016 23.6222 -807.0865
v  787.4016 0.0002 -748.0314
v  787.4016 -78.7400 -748.0314
v  787.4016 -78.7400 -807.0865
v  -787.4016 0.0000 -748.0316
v  -787.4016 -78.7402 -748.0316
v  -787.4016 0.0000 -836.6143
v  -787.4016 0.0000 -866.1418
v  -787.4016 -78.7401 -866.1418
v  -787.4016 -78.7401 -836.6143
v  787.4016 0.0002 -866.1417
v  787.4016 -78.7400 -866.1417
v  -787.4016 -78.7401 -807.0867
v  -787.4016 23.6221 -807.0867
v  -787.4016 39.3701 -807.0867
v  787.4016 39.3702 -807.0865
v  787.4016 0.0002 -836.6141
v  787.4016 -78.7400 -836.6141
v  -787.4016 39.3701 -748.0316
v  787.4016 39.3702 -748.0314
v  -32.0250 787.4016 21.4348
v  -32.0250 787.4016 -21.4347
v  -59.0551 0.0000 -39.5264
v  -59.0551 -0.0000 39.5264
v  32.0250 787.4016 -21.4347
v  59.0551 0.0000 -39.5264
v  32.0250 787.4016 21.4348
v  59.0551 -0.0000 39.5264
v  -66.2417 -433.0721 45.9899
v  66.2417 -433.0721 45.9899
v  -66.2417 -433.0721 -45.9900
v  66.2417 -433.0721 -45.9900
v  -32.0250 787.4017 -815.1792
v  -32.0250 787.4017 -858.0488
v  -59.0551 0.0001 -876.1405
v  -59.0551 0.0001 -797.0877
v  32.0250 787.4017 -858.0488
v  59.0551 0.0001 -876.1405
v  32.0250 787.4017 -815.1792
v  59.0551 0.0001 -797.0877
v  -66.2417 -433.0721 -790.6242
v  66.2417 -433.0721 -790.6242
v  -66.2417 -433.0720 -882.6041
v  66.2417 -433.0720 -882.6041
v  85.2387 -549.7426 -1013.7795
v  85.2387 -431.6323 -1013.7795
v  170.4775 -431.6323 -964.5668
v  170.4775 -549.7426 -964.5668
v  170.4774 -431.6325 964.5667
v  170.4774 -549.7429 964.5667
v  85.2387 -549.7429 1013.7793
v  85.2387 -431.6325 1013.7793
v  -0.0000 -431.6325 1023.6218
v  -0.0000 -549.7429 1023.6218
v  -85.2388 -549.7429 1013.7793
v  -85.2387 -431.6325 1013.7793
v  -170.4775 -431.6325 964.5667
v  -170.4775 -549.7429 964.5667
v  0.0000 -431.6323 -1023.6221
v  -85.2387 -431.6323 -1013.7795
v  -170.4775 -431.6323 -964.5668
v  -85.2387 -549.7426 -1013.7795
v  0.0000 -549.7426 -1023.6221
v  -170.4775 -549.7426 -964.5668
v  -32.0250 787.4015 858.0490
v  -32.0250 787.4015 815.1794
v  -59.0551 -0.0001 797.0877
v  -59.0551 -0.0001 876.1405
v  32.0250 787.4015 815.1794
v  59.0551 -0.0001 797.0877
v  32.0250 787.4015 858.0490
v  59.0551 -0.0001 876.1405
v  -66.2417 -433.0723 882.6040
v  66.2417 -433.0723 882.6040
v  -66.2417 -433.0722 790.6241
v  66.2417 -433.0722 790.6241
v  3.9370 181.1023 832.6769
v  3.9370 181.1023 840.5510
v  122.0473 -23.6221 840.5510
v  122.0473 -23.6221 832.6770
v  -3.9370 181.1023 840.5510
v  114.1732 -23.6221 840.5510
v  -3.9370 181.1023 832.6769
v  114.1732 -23.6221 832.6770
v  3.9370 377.9527 832.6770
v  3.9370 377.9527 840.5510
v  318.8976 -23.6221 840.5510
v  318.8976 -23.6221 832.6770
v  -3.9370 377.9527 840.5510
v  311.0237 -23.6221 840.5510
v  -3.9370 377.9527 832.6770
v  311.0237 -23.6221 832.6770
v  3.9370 574.8031 832.6771
v  3.9370 574.8031 840.5511
v  515.7481 -23.6221 840.5511
v  515.7481 -23.6221 832.6771
v  -3.9370 574.8031 840.5511
v  507.8741 -23.6221 840.5511
v  -3.9370 574.8031 832.6771
v  507.8741 -23.6221 832.6771
v  3.9370 771.6534 832.6771
v  3.9370 771.6534 840.5511
v  712.5985 -23.6221 840.5512
v  712.5985 -23.6221 832.6772
v  -3.9370 771.6534 840.5511
v  704.7245 -23.6221 840.5512
v  -3.9370 771.6534 832.6771
v  704.7245 -23.6221 832.6772
v  -3.9371 181.1023 840.5512
v  -3.9371 181.1023 832.6772
v  -122.0474 -23.6221 832.6772
v  -122.0474 -23.6221 840.5513
v  3.9370 181.1023 832.6772
v  -114.1733 -23.6221 832.6772
v  3.9370 181.1023 840.5512
v  -114.1733 -23.6221 840.5513
v  -3.9371 377.9527 840.5513
v  -3.9371 377.9527 832.6772
v  -318.8978 -23.6221 832.6772
v  -318.8978 -23.6221 840.5512
v  3.9370 377.9527 832.6772
v  -311.0238 -23.6221 832.6772
v  3.9370 377.9527 840.5513
v  -311.0238 -23.6221 840.5512
v  -3.9371 574.8031 840.5513
v  -3.9371 574.8031 832.6773
v  -515.7482 -23.6221 832.6772
v  -515.7482 -23.6221 840.5512
v  3.9370 574.8031 832.6773
v  -507.8741 -23.6221 832.6772
v  3.9370 574.8031 840.5513
v  -507.8741 -23.6221 840.5512
v  -3.9371 771.6534 840.5513
v  -3.9371 771.6534 832.6773
v  -712.5985 -23.6221 832.6772
v  -712.5985 -23.6221 840.5512
v  3.9370 771.6534 832.6773
v  -704.7245 -23.6221 832.6772
v  3.9370 771.6534 840.5513
v  -704.7245 -23.6221 840.5512
v  -3.9370 181.1025 -832.6772
v  -3.9370 181.1025 -840.5512
v  -122.0473 -23.6219 -840.5511
v  -122.0473 -23.6219 -832.6772
v  3.9370 181.1025 -840.5512
v  -114.1733 -23.6219 -840.5511
v  3.9370 181.1025 -832.6772
v  -114.1733 -23.6219 -832.6772
v  -3.9370 377.9529 -832.6771
v  -3.9370 377.9529 -840.5511
v  -318.8976 -23.6219 -840.5511
v  -318.8976 -23.6219 -832.6772
v  3.9370 377.9529 -840.5511
v  -311.0237 -23.6219 -840.5511
v  3.9370 377.9529 -832.6771
v  -311.0237 -23.6219 -832.6772
v  -3.9370 574.8033 -832.6771
v  -3.9370 574.8033 -840.5511
v  -515.7480 -23.6219 -840.5512
v  -515.7480 -23.6219 -832.6772
v  3.9370 574.8033 -840.5511
v  -507.8741 -23.6219 -840.5512
v  3.9370 574.8033 -832.6771
v  -507.8741 -23.6219 -832.6772
v  -3.9370 771.6537 -832.6771
v  -3.9370 771.6537 -840.5511
v  -712.5984 -23.6219 -840.5512
v  -712.5984 -23.6219 -832.6772
v  3.9370 771.6537 -840.5511
v  -704.7245 -23.6219 -840.5512
v  3.9370 771.6537 -832.6771
v  -704.7245 -23.6219 -832.6772
v  3.9370 181.1025 -840.5515
v  3.9370 181.1025 -832.6774
v  122.0472 -23.6219 -832.6773
v  122.0472 -23.6219 -840.5513
v  -3.9371 181.1025 -832.6774
v  114.1732 -23.6219 -832.6773
v  -3.9371 181.1025 -840.5515
v  114.1732 -23.6219 -840.5513
v  3.9370 377.9529 -840.5514
v  3.9370 377.9529 -832.6773
v  318.8976 -23.6219 -832.6773
v  318.8976 -23.6219 -840.5513
v  -3.9371 377.9529 -832.6773
v  311.0236 -23.6219 -832.6773
v  -3.9371 377.9529 -840.5514
v  311.0236 -23.6219 -840.5513
v  3.9370 574.8033 -840.5513
v  3.9370 574.8033 -832.6772
v  515.7480 -23.6219 -832.6772
v  515.7480 -23.6219 -840.5513
v  -3.9371 574.8033 -832.6772
v  507.8740 -23.6219 -832.6772
v  -3.9371 574.8033 -840.5513
v  507.8740 -23.6219 -840.5513
v  3.9370 771.6537 -840.5513
v  3.9370 771.6537 -832.6772
v  712.5984 -23.6219 -832.6772
v  712.5984 -23.6219 -840.5512
v  -3.9371 771.6537 -832.6772
v  704.7244 -23.6219 -832.6772
v  -3.9371 771.6537 -840.5513
v  704.7244 -23.6219 -840.5512
v  3.9370 181.1024 -3.9372
v  3.9370 181.1024 3.9368
v  122.0472 -23.6220 3.9368
v  122.0472 -23.6220 -3.9372
v  -3.9371 181.1024 3.9368
v  114.1732 -23.6220 3.9368
v  -3.9371 181.1024 -3.9372
v  114.1732 -23.6220 -3.9372
v  3.9370 377.9528 -3.9372
v  3.9370 377.9528 3.9368
v  318.8976 -23.6220 3.9369
v  318.8976 -23.6220 -3.9371
v  -3.9371 377.9528 3.9368
v  311.0236 -23.6220 3.9369
v  -3.9371 377.9528 -3.9372
v  311.0236 -23.6220 -3.9371
v  3.9370 574.8032 -3.9372
v  3.9370 574.8032 3.9368
v  515.7480 -23.6220 3.9369
v  515.7480 -23.6220 -3.9371
v  -3.9371 574.8032 3.9368
v  507.8740 -23.6220 3.9369
v  -3.9371 574.8032 -3.9372
v  507.8740 -23.6220 -3.9371
v  3.9370 771.6536 -3.9371
v  3.9370 771.6536 3.9369
v  712.5984 -23.6220 3.9370
v  712.5984 -23.6220 -3.9370
v  -3.9371 771.6536 3.9369
v  704.7245 -23.6220 3.9370
v  -3.9371 771.6536 -3.9371
v  704.7245 -23.6220 -3.9370
v  -3.9371 181.1024 3.9370
v  -3.9371 181.1024 -3.9370
v  -122.0473 -23.6220 -3.9370
v  -122.0473 -23.6220 3.9370
v  3.9370 181.1024 -3.9370
v  -114.1733 -23.6220 -3.9370
v  3.9370 181.1024 3.9370
v  -114.1733 -23.6220 3.9370
v  -3.9371 377.9528 3.9371
v  -3.9371 377.9528 -3.9370
v  -318.8976 -23.6220 -3.9370
v  -318.8976 -23.6220 3.9370
v  3.9370 377.9528 -3.9370
v  -311.0237 -23.6220 -3.9370
v  3.9370 377.9528 3.9371
v  -311.0237 -23.6220 3.9370
v  -3.9371 574.8032 3.9371
v  -3.9371 574.8032 -3.9369
v  -515.7480 -23.6220 -3.9370
v  -515.7480 -23.6220 3.9370
v  3.9370 574.8032 -3.9369
v  -507.8741 -23.6220 -3.9370
v  3.9370 574.8032 3.9371
v  -507.8741 -23.6220 3.9370
v  -3.9371 771.6536 3.9371
v  -3.9371 771.6536 -3.9369
v  -712.5985 -23.6220 -3.9370
v  -712.5985 -23.6220 3.9370
v  3.9370 771.6536 -3.9369
v  -704.7245 -23.6220 -3.9370
v  3.9370 771.6536 3.9371
v  -704.7245 -23.6220 3.9370
v  787.4016 7.8739 748.0314
v  -787.4016 7.8739 748.0314
v  -787.4016 -78.7402 748.0314
v  787.4016 -78.7402 748.0314
v  -787.4016 7.8739 669.2913
v  787.4016 7.8739 669.2913
v  787.4016 7.8741 -669.2913
v  -787.4016 7.8741 -669.2914
v  -787.4016 -78.7401 -669.2914
v  -787.4016 7.8741 -748.0316
v  -787.4016 -78.7401 -748.0316
v  787.4016 7.8741 -748.0315
v  787.4016 -78.7401 -748.0315
# 493 vertices

vn -1.0000 0.0000 -0.0000
vn 0.0000 0.0000 -1.0000
vn 1.0000 0.0000 -0.0000
vn 0.0000 -0.0000 1.0000
vn 0.0000 -1.0000 -0.0000
vn 0.0000 1.0000 0.0000
vn -0.9919 0.1274 0.0000
vn 0.0000 0.2566 -0.9665
vn 0.9919 0.1274 0.0000
vn 0.0000 0.2566 0.9665
vn -0.0000 -0.0000 1.0000
vn -0.0000 1.0000 0.0000
vn -0.0000 -1.0000 -0.0000
vn 0.0000 -0.0000 -1.0000
vn 0.0000 0.7809 0.6247
vn -0.0000 0.7809 -0.6247
vn -0.9994 0.0343 0.0000
vn 0.0000 0.0230 -0.9997
vn 0.9994 0.0343 0.0000
vn 0.0000 0.0230 0.9997
vn 0.0000 0.0149 0.9999
vn 0.9999 0.0166 0.0000
vn 0.0000 0.0149 -0.9999
vn -0.9999 0.0166 0.0000
vn 0.5000 0.0000 -0.8660
vn 1.0000 -0.0000 0.0000
vn 0.1147 -0.0000 0.9934
vn -0.5000 -0.0000 0.8660
vn -0.1147 0.0000 -0.9934
vn 0.5000 -0.0000 0.8660
vn -0.1147 -0.0000 0.9934
vn 0.1147 0.0000 -0.9934
vn -0.5000 0.0000 -0.8660
vn 0.8662 0.4997 0.0000
vn 0.0000 0.0000 1.0000
vn -0.8662 -0.4997 -0.0000
vn 0.7869 0.6171 0.0000
vn -0.7869 -0.6171 -0.0000
vn 0.7600 0.6500 0.0000
vn -0.7600 -0.6500 -0.0000
vn 0.7466 0.6653 0.0000
vn -0.7466 -0.6653 -0.0000
vn -0.8662 0.4997 0.0000
vn 0.8662 -0.4997 -0.0000
vn -0.7869 0.6171 0.0000
vn 0.7869 -0.6171 -0.0000
vn -0.7600 0.6500 0.0000
vn 0.7600 -0.6500 -0.0000
vn -0.7466 0.6653 0.0000
vn 0.7466 -0.6653 -0.0000
vn -0.0000 0.0000 -1.0000
# 51 vertex normals

vt 0.2602 0.8500 0.0000
vt 0.3102 0.8500 0.0000
vt 0.3102 0.9000 0.0000
vt 0.2602 0.9000 0.0000
vt 0.5875 0.8773 0.0000
vt 0.5375 0.8773 0.0000
vt 0.4313 0.8656 0.0000
vt 0.4313 0.8661 0.0000
vt 0.3812 0.8661 0.0000
vt 0.3812 0.8656 0.0000
vt 0.3812 0.8665 0.0000
vt 0.4313 0.8665 0.0000
vt 0.4263 0.8768 0.0000
vt 0.4238 0.8768 0.0000
vt 0.4263 0.8772 0.0000
vt 0.4238 0.8772 0.0000
vt 0.4200 0.8768 0.0000
vt 0.4175 0.8768 0.0000
vt 0.4200 0.8772 0.0000
vt 0.4175 0.8772 0.0000
vt 0.4138 0.8768 0.0000
vt 0.4113 0.8768 0.0000
vt 0.4138 0.8772 0.0000
vt 0.4113 0.8772 0.0000
vt 0.4075 0.8768 0.0000
vt 0.4050 0.8768 0.0000
vt 0.4075 0.8772 0.0000
vt 0.4050 0.8772 0.0000
vt 0.4013 0.8768 0.0000
vt 0.3988 0.8768 0.0000
vt 0.4013 0.8772 0.0000
vt 0.3988 0.8772 0.0000
vt 0.3950 0.8768 0.0000
vt 0.3925 0.8768 0.0000
vt 0.3950 0.8772 0.0000
vt 0.3925 0.8772 0.0000
vt 0.3887 0.8768 0.0000
vt 0.3862 0.8768 0.0000
vt 0.3887 0.8772 0.0000
vt 0.3862 0.8772 0.0000
vt 0.3825 0.8768 0.0000
vt 0.3812 0.8875 0.0000
vt 0.3825 0.8772 0.0000
vt 0.4300 0.8768 0.0000
vt 0.4300 0.8772 0.0000
vt 0.4313 0.8875 0.0000
vt 0.4313 0.8880 0.0000
vt 0.4313 0.8933 0.0000
vt 0.3812 0.8933 0.0000
vt 0.3812 0.8880 0.0000
vt 0.4300 0.9040 0.0000
vt 0.4263 0.9040 0.0000
vt 0.4313 0.8937 0.0000
vt 0.4300 0.9044 0.0000
vt 0.4313 0.9147 0.0000
vt 0.4263 0.9044 0.0000
vt 0.4238 0.9044 0.0000
vt 0.4200 0.9044 0.0000
vt 0.4175 0.9044 0.0000
vt 0.4138 0.9044 0.0000
vt 0.4113 0.9044 0.0000
vt 0.4075 0.9044 0.0000
vt 0.4050 0.9044 0.0000
vt 0.4013 0.9044 0.0000
vt 0.3812 0.9147 0.0000
vt 0.3825 0.9044 0.0000
vt 0.3862 0.9044 0.0000
vt 0.3887 0.9044 0.0000
vt 0.3925 0.9044 0.0000
vt 0.3950 0.9044 0.0000
vt 0.3988 0.9044 0.0000
vt 0.4013 0.9040 0.0000
vt 0.3988 0.9040 0.0000
vt 0.3950 0.9040 0.0000
vt 0.3925 0.9040 0.0000
vt 0.3887 0.9040 0.0000
vt 0.3862 0.9040 0.0000
vt 0.3825 0.9040 0.0000
vt 0.3812 0.8937 0.0000
vt 0.4050 0.9040 0.0000
vt 0.4075 0.9040 0.0000
vt 0.4238 0.9040 0.0000
vt 0.4200 0.9040 0.0000
vt 0.4175 0.9040 0.0000
vt 0.4138 0.9040 0.0000
vt 0.4113 0.9040 0.0000
vt 0.4313 0.9152 0.0000
vt 0.4313 0.9156 0.0000
vt 0.3812 0.9156 0.0000
vt 0.3812 0.9152 0.0000
vt 0.5375 0.9273 0.0000
vt 0.5875 0.9273 0.0000
vt 0.5825 0.9162 0.0000
vt 0.5825 0.9157 0.0000
vt 0.5862 0.9157 0.0000
vt 0.5862 0.9162 0.0000
vt 0.5762 0.9157 0.0000
vt 0.5800 0.9157 0.0000
vt 0.5800 0.9162 0.0000
vt 0.5762 0.9162 0.0000
vt 0.5737 0.8890 0.0000
vt 0.5700 0.8890 0.0000
vt 0.5700 0.8885 0.0000
vt 0.5737 0.8885 0.0000
vt 0.5862 0.8885 0.0000
vt 0.5862 0.8890 0.0000
vt 0.5825 0.8890 0.0000
vt 0.5825 0.8885 0.0000
vt 0.5700 0.9157 0.0000
vt 0.5737 0.9157 0.0000
vt 0.5737 0.9162 0.0000
vt 0.5700 0.9162 0.0000
vt 0.5800 0.8890 0.0000
vt 0.5762 0.8890 0.0000
vt 0.5762 0.8885 0.0000
vt 0.5800 0.8885 0.0000
vt 0.5637 0.9157 0.0000
vt 0.5675 0.9157 0.0000
vt 0.5675 0.9162 0.0000
vt 0.5637 0.9162 0.0000
vt 0.5512 0.9157 0.0000
vt 0.5550 0.9157 0.0000
vt 0.5550 0.9162 0.0000
vt 0.5512 0.9162 0.0000
vt 0.5425 0.9157 0.0000
vt 0.5425 0.9162 0.0000
vt 0.5387 0.9162 0.0000
vt 0.5387 0.9157 0.0000
vt 0.5487 0.9162 0.0000
vt 0.5450 0.9162 0.0000
vt 0.5450 0.9157 0.0000
vt 0.5487 0.9157 0.0000
vt 0.5575 0.9157 0.0000
vt 0.5612 0.9157 0.0000
vt 0.5612 0.9162 0.0000
vt 0.5575 0.9162 0.0000
vt 0.5675 0.8890 0.0000
vt 0.5637 0.8890 0.0000
vt 0.5637 0.8885 0.0000
vt 0.5675 0.8885 0.0000
vt 0.5487 0.8890 0.0000
vt 0.5450 0.8890 0.0000
vt 0.5450 0.8885 0.0000
vt 0.5487 0.8885 0.0000
vt 0.5612 0.8890 0.0000
vt 0.5575 0.8890 0.0000
vt 0.5575 0.8885 0.0000
vt 0.5612 0.8885 0.0000
vt 0.5550 0.8890 0.0000
vt 0.5512 0.8890 0.0000
vt 0.5512 0.8885 0.0000
vt 0.5550 0.8885 0.0000
vt 0.5425 0.8890 0.0000
vt 0.5387 0.8890 0.0000
vt 0.5387 0.8885 0.0000
vt 0.5425 0.8885 0.0000
vt 0.5875 0.9054 0.0000
vt 0.5375 0.9054 0.0000
vt 0.5375 0.9050 0.0000
vt 0.5875 0.9050 0.0000
vt 0.5375 0.8993 0.0000
vt 0.5875 0.8993 0.0000
vt 0.5875 0.8997 0.0000
vt 0.5375 0.8997 0.0000
vt 0.5875 0.8782 0.0000
vt 0.5375 0.8782 0.0000
vt 0.5375 0.8778 0.0000
vt 0.5875 0.8778 0.0000
vt 0.5375 0.9265 0.0000
vt 0.5875 0.9265 0.0000
vt 0.5875 0.9269 0.0000
vt 0.5375 0.9269 0.0000
vt 0.3696 0.3789 0.0000
vt 0.4196 0.3789 0.0000
vt 0.4196 0.4289 0.0000
vt 0.3696 0.4289 0.0000
vt 0.3510 0.3820 0.0000
vt 0.4010 0.3820 0.0000
vt 0.4010 0.4320 0.0000
vt 0.3510 0.4320 0.0000
vt 0.3760 0.4320 0.0000
vt 0.3907 0.4272 0.0000
vt 0.3998 0.4147 0.0000
vt 0.3998 0.3993 0.0000
vt 0.3907 0.3868 0.0000
vt 0.3760 0.3820 0.0000
vt 0.3613 0.3868 0.0000
vt 0.3522 0.3993 0.0000
vt 0.3522 0.4147 0.0000
vt 0.3613 0.4272 0.0000
vt 0.4701 0.3963 0.0000
vt 0.5201 0.3963 0.0000
vt 0.5201 0.4463 0.0000
vt 0.4701 0.4463 0.0000
vt 0.2523 0.8578 0.0000
vt 0.3023 0.8578 0.0000
vt 0.3023 0.9078 0.0000
vt 0.2523 0.9078 0.0000
# 198 texture coords

g SPW_Urban_Bridge_4way_RoadBridge_02
usemtl SPW_Urban_Road
s off
f 1/1/1 2/2/1 3/3/1 4/4/1 
f 2/1/2 5/2/2 6/3/2 3/4/2 
f 5/1/3 7/2/3 8/3/3 6/4/3 
f 7/1/4 1/2/4 4/3/4 8/4/4 
f 4/1/5 3/2/5 6/3/5 8/4/5 
f 7/1/6 5/2/6 2/3/6 1/4/6 
f 9/1/7 10/2/7 11/3/7 12/4/7 
f 10/1/8 13/2/8 14/3/8 11/4/8 
f 13/1/9 15/2/9 16/3/9 14/4/9 
f 15/1/10 9/2/10 12/3/10 16/4/10 
f 12/1/5 11/2/5 14/3/5 16/4/5 
f 15/1/6 13/2/6 10/3/6 9/4/6 
f 17/1/7 18/2/7 19/3/7 20/4/7 
f 18/1/8 21/2/8 22/3/8 19/4/8 
f 21/1/9 23/2/9 24/3/9 22/4/9 
f 23/1/10 17/2/10 20/3/10 24/4/10 
f 20/1/5 19/2/5 22/3/5 24/4/5 
f 23/1/6 21/2/6 18/3/6 17/4/6 
f 25/1/7 26/2/7 27/3/7 28/4/7 
f 26/1/8 29/2/8 30/3/8 27/4/8 
f 29/1/9 31/2/9 32/3/9 30/4/9 
f 31/1/10 25/2/10 28/3/10 32/4/10 
f 28/1/5 27/2/5 30/3/5 32/4/5 
f 31/1/6 29/2/6 26/3/6 25/4/6 
f 33/1/7 34/2/7 35/3/7 36/4/7 
f 34/1/8 37/2/8 38/3/8 35/4/8 
f 37/1/9 39/2/9 40/3/9 38/4/9 
f 39/1/10 33/2/10 36/3/10 40/4/10 
f 36/1/5 35/2/5 38/3/5 40/4/5 
f 39/1/6 37/2/6 34/3/6 33/4/6 
f 41/1/7 42/2/7 43/3/7 44/4/7 
f 42/1/8 45/2/8 46/3/8 43/4/8 
f 45/1/9 47/2/9 48/3/9 46/4/9 
f 47/1/10 41/2/10 44/3/10 48/4/10 
f 44/1/5 43/2/5 46/3/5 48/4/5 
f 47/1/6 45/2/6 42/3/6 41/4/6 
f 49/1/1 50/2/1 51/3/1 52/4/1 
f 50/1/2 53/2/2 54/3/2 51/4/2 
f 53/1/3 55/2/3 56/3/3 54/4/3 
f 55/1/4 49/2/4 52/3/4 56/4/4 
f 52/1/5 51/2/5 54/3/5 56/4/5 
f 55/1/6 53/2/6 50/3/6 49/4/6 
f 57/1/7 58/2/7 59/3/7 60/4/7 
f 58/1/8 61/2/8 62/3/8 59/4/8 
f 61/1/9 63/2/9 64/3/9 62/4/9 
f 63/1/10 57/2/10 60/3/10 64/4/10 
f 60/1/5 59/2/5 62/3/5 64/4/5 
f 63/1/6 61/2/6 58/3/6 57/4/6 
f 65/1/7 66/2/7 67/3/7 68/4/7 
f 66/1/8 69/2/8 70/3/8 67/4/8 
f 69/1/9 71/2/9 72/3/9 70/4/9 
f 71/1/10 65/2/10 68/3/10 72/4/10 
f 68/1/5 67/2/5 70/3/5 72/4/5 
f 71/1/6 69/2/6 66/3/6 65/4/6 
f 73/1/7 74/2/7 75/3/7 76/4/7 
f 74/1/8 77/2/8 78/3/8 75/4/8 
f 77/1/9 79/2/9 80/3/9 78/4/9 
f 79/1/10 73/2/10 76/3/10 80/4/10 
f 76/1/5 75/2/5 78/3/5 80/4/5 
f 79/1/6 77/2/6 74/3/6 73/4/6 
f 81/1/7 82/2/7 83/3/7 84/4/7 
f 82/1/8 85/2/8 86/3/8 83/4/8 
f 85/1/9 87/2/9 88/3/9 86/4/9 
f 87/1/10 81/2/10 84/3/10 88/4/10 
f 84/1/5 83/2/5 86/3/5 88/4/5 
f 87/1/6 85/2/6 82/3/6 81/4/6 
f 89/1/7 90/2/7 91/3/7 92/4/7 
f 90/1/8 93/2/8 94/3/8 91/4/8 
f 93/1/9 95/2/9 96/3/9 94/4/9 
f 95/1/10 89/2/10 92/3/10 96/4/10 
f 92/1/5 91/2/5 94/3/5 96/4/5 
f 95/1/6 93/2/6 90/3/6 89/4/6 
f 97/5/11 98/6/11 99/6/11 100/5/11 
s 1
f 97/7/6 101/8/6 102/9/6 98/10/6 
f 103/11/6 104/12/12 105/13/12 106/14/6 
f 105/13/12 107/15/6 108/16/6 106/14/6 
f 103/11/6 106/14/6 109/17/6 110/18/12 
f 109/17/6 111/19/6 112/20/12 110/18/12 
f 103/11/6 110/18/12 113/21/12 114/22/6 
f 113/21/12 115/23/12 116/24/6 114/22/6 
f 103/11/6 114/22/6 117/25/6 118/26/6 
f 117/25/6 119/27/6 120/28/6 118/26/6 
f 103/11/6 118/26/6 121/29/6 122/30/12 
f 121/29/6 123/31/6 124/32/12 122/30/12 
f 103/11/6 122/30/12 125/33/12 126/34/6 
f 125/33/12 127/35/12 128/36/6 126/34/6 
f 103/11/6 126/34/6 129/37/6 130/38/6 
f 129/37/6 131/39/6 132/40/6 130/38/6 
f 103/11/6 130/38/6 133/41/6 134/42/6 
f 135/43/12 134/42/6 133/41/6 
f 136/44/12 105/13/12 104/12/12 137/45/12 
f 137/45/12 104/12/12 138/46/12 107/15/6 
f 108/16/6 107/15/6 138/46/12 111/19/6 
f 112/20/12 111/19/6 138/46/12 115/23/12 
f 116/24/6 115/23/12 138/46/12 119/27/6 
f 120/28/6 119/27/6 138/46/12 123/31/6 
f 124/32/12 123/31/6 138/46/12 127/35/12 
f 128/36/6 127/35/12 138/46/12 131/39/6 
f 132/40/6 131/39/6 138/46/12 135/43/12 
f 135/43/12 138/46/12 134/42/6 
f 139/47/12 140/48/12 141/49/12 142/50/12 
f 143/51/12 144/52/12 145/53/12 146/54/12 
f 146/54/12 145/53/12 147/55/6 148/56/6 
f 149/57/6 148/56/6 147/55/6 150/58/6 
f 151/59/12 150/58/6 147/55/6 152/60/12 
f 153/61/6 152/60/12 147/55/6 154/62/6 
f 155/63/6 154/62/6 147/55/6 156/64/6 
f 147/55/6 157/65/12 158/66/12 159/67/6 
f 147/55/6 159/67/6 160/68/6 161/69/6 
f 147/55/6 161/69/6 162/70/12 163/71/12 
f 147/55/6 163/71/12 156/64/6 
f 164/72/6 156/64/6 163/71/12 165/73/12 
f 166/74/12 162/70/12 161/69/6 167/75/6 
f 168/76/6 160/68/6 159/67/6 169/77/6 
f 170/78/12 158/66/12 157/65/12 171/79/6 
f 169/77/6 170/78/12 171/79/6 168/76/6 
f 167/75/6 168/76/6 171/79/6 166/74/12 
f 165/73/12 166/74/12 171/79/6 164/72/6 
f 172/80/6 164/72/6 171/79/6 173/81/6 
f 171/79/6 145/53/12 144/52/12 174/82/6 
f 144/52/12 148/56/6 149/57/6 174/82/6 
f 171/79/6 174/82/6 175/83/6 176/84/12 
f 175/83/6 150/58/6 151/59/12 176/84/12 
f 171/79/6 176/84/12 177/85/12 178/86/6 
f 177/85/12 152/60/12 153/61/6 178/86/6 
f 171/79/6 178/86/6 173/81/6 
f 155/63/6 172/80/6 173/81/6 154/62/6 
f 179/87/6 180/88/6 181/89/6 182/90/6 
s off
f 181/91/2 180/92/2 183/92/2 184/91/2 
f 99/6/13 184/91/13 183/92/13 100/5/13 
s 1
f 148/93/6 144/94/12 143/95/12 146/96/12 
f 175/97/6 174/98/6 149/99/6 150/100/6 
f 112/101/12 115/102/12 113/103/12 110/104/12 
f 136/105/12 137/106/12 107/107/6 105/108/12 
f 177/109/12 176/110/12 151/111/12 152/112/12 
f 108/113/6 111/114/6 109/115/6 106/116/6 
f 173/117/6 178/118/6 153/119/6 154/120/6 
f 166/121/12 165/122/12 163/123/12 162/124/12 
f 169/125/6 159/126/6 158/127/12 170/128/12 
f 161/129/6 160/130/6 168/131/6 167/132/6 
f 164/133/6 172/134/6 155/135/6 156/136/6 
f 116/137/6 119/138/6 117/139/6 114/140/6 
f 128/141/6 131/142/6 129/143/6 126/144/6 
f 120/145/6 123/146/6 121/147/6 118/148/6 
f 124/149/12 127/150/12 125/151/12 122/152/12 
s off
f 182/90/1 181/89/1 184/89/1 141/49/1 
f 142/50/1 141/49/1 184/89/1 102/9/1 
f 98/10/1 102/9/1 184/89/1 99/10/1 
s 1
f 132/153/6 135/154/12 133/155/6 130/156/6 
s off
f 100/7/3 183/88/3 180/88/3 179/87/3 
f 100/7/3 179/87/3 138/46/3 104/12/3 
f 100/7/3 104/12/3 101/8/3 97/7/3 
s 1
f 145/157/12 171/158/6 141/159/12 140/160/12 
f 134/161/6 138/162/12 139/163/12 142/164/12 
f 104/165/12 103/166/6 102/167/6 101/168/6 
f 157/169/12 147/170/6 179/171/6 182/172/6 
s off
f 185/173/1 186/174/1 187/175/1 188/176/1 
f 186/173/14 189/174/14 190/175/14 187/176/14 
f 189/173/3 191/174/3 192/175/3 190/176/3 
f 191/173/4 185/174/4 188/175/4 192/176/4 
f 188/173/5 187/174/5 190/175/5 192/176/5 
f 191/173/6 189/174/6 186/175/6 185/176/6 
s 1
f 193/173/1 194/174/1 195/175/1 196/176/1 
s 2
f 194/173/2 197/174/2 198/175/2 195/176/2 
s 1
f 199/173/3 200/174/3 201/175/3 202/176/3 
s off
f 200/173/4 203/174/4 204/175/4 201/176/4 
s 4
f 196/173/5 195/174/5 198/175/5 205/176/5 
s off
f 193/173/4 206/174/4 207/175/4 208/176/4 
f 199/173/15 206/174/15 193/175/15 209/176/15 
s 4
f 210/173/5 196/174/5 205/175/5 202/176/5 
s 1
f 197/173/3 206/174/3 205/175/3 198/176/3 
f 209/173/1 193/174/1 196/175/1 210/176/1 
s off
f 207/173/6 211/174/6 212/175/6 208/176/6 
s 1
f 206/173/3 197/174/3 211/175/3 207/176/3 
s 2
f 197/173/2 194/174/2 212/175/2 211/176/2 
s 1
f 194/173/1 193/174/1 208/175/1 212/176/1 
f 203/173/1 209/174/1 210/175/1 204/176/1 
s 4
f 204/173/5 210/174/5 202/175/5 201/176/5 
s off
f 200/173/6 199/174/6 209/175/6 203/176/6 
s 1
f 206/173/3 199/174/3 202/175/3 205/176/3 
f 213/173/3 214/174/3 215/175/3 216/176/3 
s 2
f 214/173/11 217/174/11 218/175/11 215/176/11 
s 1
f 219/173/1 220/174/1 221/175/1 222/176/1 
s off
f 220/173/2 223/174/2 224/175/2 221/176/2 
s 4
f 216/173/5 215/174/5 218/175/5 225/176/5 
s off
f 213/173/2 226/174/2 227/175/2 228/176/2 
f 219/173/16 226/174/16 213/175/16 229/176/16 
s 4
f 230/173/5 216/174/5 225/175/5 222/176/5 
s 1
f 217/173/1 226/174/1 225/175/1 218/176/1 
f 229/173/3 213/174/3 216/175/3 230/176/3 
s off
f 227/173/12 231/174/12 232/175/12 228/176/12 
s 1
f 226/173/1 217/174/1 231/175/1 227/176/1 
s 2
f 217/173/11 214/174/11 232/175/11 231/176/11 
s 1
f 214/173/3 213/174/3 228/175/3 232/176/3 
f 223/173/3 229/174/3 230/175/3 224/176/3 
s 4
f 224/173/5 230/174/5 222/175/5 221/176/5 
s off
f 220/173/12 219/174/12 229/175/12 223/176/12 
s 1
f 226/173/1 219/174/1 222/175/1 225/176/1 
s off
f 233/177/17 234/178/17 235/179/17 236/180/17 
f 234/177/18 237/178/18 238/179/18 235/180/18 
f 237/177/19 239/178/19 240/179/19 238/180/19 
f 239/177/20 233/178/20 236/179/20 240/180/20 
f 240/177/21 236/178/21 241/179/21 242/180/21 
f 239/177/6 237/178/6 234/179/6 233/180/6 
f 241/177/5 243/178/5 244/179/5 242/180/5 
f 238/177/22 240/178/22 242/179/22 244/180/22 
f 235/177/23 238/178/23 244/179/23 243/180/23 
f 236/177/24 235/178/24 243/179/24 241/180/24 
f 245/177/17 246/178/17 247/179/17 248/180/17 
f 246/177/18 249/178/18 250/179/18 247/180/18 
f 249/177/19 251/178/19 252/179/19 250/180/19 
f 251/177/20 245/178/20 248/179/20 252/180/20 
f 252/177/21 248/178/21 253/179/21 254/180/21 
f 251/177/6 249/178/6 246/179/6 245/180/6 
f 253/177/5 255/178/5 256/179/5 254/180/5 
f 250/177/22 252/178/22 254/179/22 256/180/22 
f 247/177/23 250/178/23 256/179/23 255/180/23 
f 248/177/24 247/178/24 255/179/24 253/180/24 
f 257/177/25 258/178/25 259/179/25 260/180/25 
f 260/177/26 259/178/26 261/179/26 262/180/26 
f 263/177/27 264/178/27 265/179/27 266/180/27 
f 267/177/28 268/178/28 269/179/28 270/180/28 
f 259/181/6 258/182/6 271/183/6 272/184/6 
f 259/181/6 272/184/6 273/185/6 269/186/6 
f 259/181/6 269/186/6 268/187/6 265/188/6 
f 259/181/12 265/188/12 264/189/12 261/190/12 
f 274/177/29 272/178/29 271/179/29 275/180/29 
f 270/177/1 269/178/1 273/179/1 276/180/1 
f 275/181/13 257/182/13 260/183/13 262/184/13 
f 275/181/5 262/184/5 263/185/5 266/186/5 
f 275/181/13 266/186/13 267/187/13 270/188/13 
f 275/181/5 270/188/5 276/189/5 274/190/5 
f 262/177/30 261/178/30 264/179/30 263/180/30 
f 266/177/31 265/178/31 268/179/31 267/180/31 
f 275/177/32 271/178/32 258/179/32 257/180/32 
f 276/177/33 273/178/33 272/179/33 274/180/33 
f 277/177/17 278/178/17 279/179/17 280/180/17 
f 278/177/18 281/178/18 282/179/18 279/180/18 
f 281/177/19 283/178/19 284/179/19 282/180/19 
f 283/177/20 277/178/20 280/179/20 284/180/20 
f 284/177/21 280/178/21 285/179/21 286/180/21 
f 283/177/6 281/178/6 278/179/6 277/180/6 
f 285/177/5 287/178/5 288/179/5 286/180/5 
f 282/177/22 284/178/22 286/179/22 288/180/22 
f 279/177/23 282/178/23 288/179/23 287/180/23 
f 280/177/24 279/178/24 287/179/24 285/180/24 
f 289/191/34 290/192/34 291/193/34 292/194/34 
f 290/191/35 293/192/35 294/193/35 291/194/35 
f 293/191/36 295/192/36 296/193/36 294/194/36 
f 295/191/14 289/192/14 292/193/14 296/194/14 
f 292/191/5 291/192/5 294/193/5 296/194/5 
f 295/191/6 293/192/6 290/193/6 289/194/6 
f 297/191/37 298/192/37 299/193/37 300/194/37 
f 298/191/35 301/192/35 302/193/35 299/194/35 
f 301/191/38 303/192/38 304/193/38 302/194/38 
f 303/191/14 297/192/14 300/193/14 304/194/14 
f 300/191/5 299/192/5 302/193/5 304/194/5 
f 303/191/6 301/192/6 298/193/6 297/194/6 
f 305/191/39 306/192/39 307/193/39 308/194/39 
f 306/191/35 309/192/35 310/193/35 307/194/35 
f 309/191/40 311/192/40 312/193/40 310/194/40 
f 311/191/14 305/192/14 308/193/14 312/194/14 
f 308/191/5 307/192/5 310/193/5 312/194/5 
f 311/191/6 309/192/6 306/193/6 305/194/6 
f 313/191/41 314/192/41 315/193/41 316/194/41 
f 314/191/35 317/192/35 318/193/35 315/194/35 
f 317/191/42 319/192/42 320/193/42 318/194/42 
f 319/191/14 313/192/14 316/193/14 320/194/14 
f 316/191/5 315/192/5 318/193/5 320/194/5 
f 319/191/6 317/192/6 314/193/6 313/194/6 
f 321/191/43 322/192/43 323/193/43 324/194/43 
f 322/191/14 325/192/14 326/193/14 323/194/14 
f 325/191/44 327/192/44 328/193/44 326/194/44 
f 327/191/35 321/192/35 324/193/35 328/194/35 
f 324/191/5 323/192/5 326/193/5 328/194/5 
f 327/191/6 325/192/6 322/193/6 321/194/6 
f 329/191/45 330/192/45 331/193/45 332/194/45 
f 330/191/14 333/192/14 334/193/14 331/194/14 
f 333/191/46 335/192/46 336/193/46 334/194/46 
f 335/191/4 329/192/4 332/193/4 336/194/4 
f 332/191/5 331/192/5 334/193/5 336/194/5 
f 335/191/6 333/192/6 330/193/6 329/194/6 
f 337/191/47 338/192/47 339/193/47 340/194/47 
f 338/191/2 341/192/2 342/193/2 339/194/2 
f 341/191/48 343/192/48 344/193/48 342/194/48 
f 343/191/4 337/192/4 340/193/4 344/194/4 
f 340/191/5 339/192/5 342/193/5 344/194/5 
f 343/191/6 341/192/6 338/193/6 337/194/6 
f 345/191/49 346/192/49 347/193/49 348/194/49 
f 346/191/2 349/192/2 350/193/2 347/194/2 
f 349/191/50 351/192/50 352/193/50 350/194/50 
f 351/191/4 345/192/4 348/193/4 352/194/4 
f 348/191/5 347/192/5 350/193/5 352/194/5 
f 351/191/6 349/192/6 346/193/6 345/194/6 
f 353/191/43 354/192/43 355/193/43 356/194/43 
f 354/191/14 357/192/14 358/193/14 355/194/14 
f 357/191/44 359/192/44 360/193/44 358/194/44 
f 359/191/4 353/192/4 356/193/4 360/194/4 
f 356/191/5 355/192/5 358/193/5 360/194/5 
f 359/191/6 357/192/6 354/193/6 353/194/6 
f 361/191/45 362/192/45 363/193/45 364/194/45 
f 362/191/14 365/192/14 366/193/14 363/194/14 
f 365/191/46 367/192/46 368/193/46 366/194/46 
f 367/191/4 361/192/4 364/193/4 368/194/4 
f 364/191/5 363/192/5 366/193/5 368/194/5 
f 367/191/6 365/192/6 362/193/6 361/194/6 
f 369/191/47 370/192/47 371/193/47 372/194/47 
f 370/191/2 373/192/2 374/193/2 371/194/2 
f 373/191/48 375/192/48 376/193/48 374/194/48 
f 375/191/4 369/192/4 372/193/4 376/194/4 
f 372/191/5 371/192/5 374/193/5 376/194/5 
f 375/191/6 373/192/6 370/193/6 369/194/6 
f 377/191/49 378/192/49 379/193/49 380/194/49 
f 378/191/2 381/192/2 382/193/2 379/194/2 
f 381/191/50 383/192/50 384/193/50 382/194/50 
f 383/191/4 377/192/4 380/193/4 384/194/4 
f 380/191/5 379/192/5 382/193/5 384/194/5 
f 383/191/6 381/192/6 378/193/6 377/194/6 
f 385/191/34 386/192/34 387/193/34 388/194/34 
f 386/191/35 389/192/35 390/193/35 387/194/35 
f 389/191/36 391/192/36 392/193/36 390/194/36 
f 391/191/14 385/192/14 388/193/14 392/194/14 
f 388/191/5 387/192/5 390/193/5 392/194/5 
f 391/191/6 389/192/6 386/193/6 385/194/6 
f 393/191/37 394/192/37 395/193/37 396/194/37 
f 394/191/35 397/192/35 398/193/35 395/194/35 
f 397/191/38 399/192/38 400/193/38 398/194/38 
f 399/191/14 393/192/14 396/193/14 400/194/14 
f 396/191/5 395/192/5 398/193/5 400/194/5 
f 399/191/6 397/192/6 394/193/6 393/194/6 
f 401/191/39 402/192/39 403/193/39 404/194/39 
f 402/191/35 405/192/35 406/193/35 403/194/35 
f 405/191/40 407/192/40 408/193/40 406/194/40 
f 407/191/14 401/192/14 404/193/14 408/194/14 
f 404/191/5 403/192/5 406/193/5 408/194/5 
f 407/191/6 405/192/6 402/193/6 401/194/6 
f 409/191/41 410/192/41 411/193/41 412/194/41 
f 410/191/35 413/192/35 414/193/35 411/194/35 
f 413/191/42 415/192/42 416/193/42 414/194/42 
f 415/191/14 409/192/14 412/193/14 416/194/14 
f 412/191/5 411/192/5 414/193/5 416/194/5 
f 415/191/6 413/192/6 410/193/6 409/194/6 
f 417/191/34 418/192/34 419/193/34 420/194/34 
f 418/191/11 421/192/11 422/193/11 419/194/11 
f 421/191/36 423/192/36 424/193/36 422/194/36 
f 423/191/2 417/192/2 420/193/2 424/194/2 
f 420/191/5 419/192/5 422/193/5 424/194/5 
f 423/191/6 421/192/6 418/193/6 417/194/6 
f 425/191/37 426/192/37 427/193/37 428/194/37 
f 426/191/11 429/192/11 430/193/11 427/194/11 
f 429/191/38 431/192/38 432/193/38 430/194/38 
f 431/191/2 425/192/2 428/193/2 432/194/2 
f 428/191/5 427/192/5 430/193/5 432/194/5 
f 431/191/6 429/192/6 426/193/6 425/194/6 
f 433/191/39 434/192/39 435/193/39 436/194/39 
f 434/191/11 437/192/11 438/193/11 435/194/11 
f 437/191/40 439/192/40 440/193/40 438/194/40 
f 439/191/2 433/192/2 436/193/2 440/194/2 
f 436/191/5 435/192/5 438/193/5 440/194/5 
f 439/191/6 437/192/6 434/193/6 433/194/6 
f 441/191/41 442/192/41 443/193/41 444/194/41 
f 442/191/11 445/192/11 446/193/11 443/194/11 
f 445/191/42 447/192/42 448/193/42 446/194/42 
f 447/191/2 441/192/2 444/193/2 448/194/2 
f 444/191/5 443/192/5 446/193/5 448/194/5 
f 447/191/6 445/192/6 442/193/6 441/194/6 
f 449/191/43 450/192/43 451/193/43 452/194/43 
f 450/191/51 453/192/51 454/193/51 451/194/51 
f 453/191/44 455/192/44 456/193/44 454/194/44 
f 455/191/11 449/192/11 452/193/11 456/194/11 
f 452/191/5 451/192/5 454/193/5 456/194/5 
f 455/191/6 453/192/6 450/193/6 449/194/6 
f 457/191/45 458/192/45 459/193/45 460/194/45 
f 458/191/51 461/192/51 462/193/51 459/194/51 
f 461/191/46 463/192/46 464/193/46 462/194/46 
f 463/191/4 457/192/4 460/193/4 464/194/4 
f 460/191/5 459/192/5 462/193/5 464/194/5 
f 463/191/6 461/192/6 458/193/6 457/194/6 
f 465/191/47 466/192/47 467/193/47 468/194/47 
f 466/191/51 469/192/51 470/193/51 467/194/51 
f 469/191/48 471/192/48 472/193/48 470/194/48 
f 471/191/11 465/192/11 468/193/11 472/194/11 
f 468/191/5 467/192/5 470/193/5 472/194/5 
f 471/191/6 469/192/6 466/193/6 465/194/6 
f 473/191/49 474/192/49 475/193/49 476/194/49 
f 474/191/51 477/192/51 478/193/51 475/194/51 
f 477/191/50 479/192/50 480/193/50 478/194/50 
f 479/191/11 473/192/11 476/193/11 480/194/11 
f 476/191/5 475/192/5 478/193/5 480/194/5 
f 479/191/6 477/192/6 474/193/6 473/194/6 
f 481/195/4 482/196/4 483/197/4 484/198/4 
f 482/195/1 485/196/1 99/197/1 483/198/1 
f 485/195/2 486/196/2 100/197/2 99/198/2 
f 486/195/3 481/196/3 484/197/3 100/198/3 
f 484/195/5 483/196/5 99/197/5 100/198/5 
f 486/195/6 485/196/6 482/197/6 481/198/6 
f 487/195/11 488/196/11 489/197/11 183/198/11 
f 488/195/1 490/196/1 491/197/1 489/198/1 
f 490/195/2 492/196/2 493/197/2 491/198/2 
f 492/195/3 487/196/3 183/197/3 493/198/3 
f 183/195/13 489/196/13 491/197/13 493/198/13 
f 492/195/6 490/196/6 488/197/6 487/198/6 
# 398 polygons - 4 triangles

