# 3ds Max Wavefront OBJ Exporter v0.97b - (c)2007 guruware
# File Created: 15.03.2017 11:42:23

mtllib SPW_Urban_Bridge_2way RoadBridge_01.mtl

#
# object SPW_Urban_Bridge_2way_RoadBridge_01
#

v  -68.8976 -59.0551 -374.0157
v  -68.8976 -59.0551 -472.4410
v  -68.8976 -334.6456 -472.4410
v  -68.8976 -334.6456 -374.0158
v  68.8976 -59.0551 -472.4410
v  68.8976 -334.6456 -472.4410
v  68.8976 -59.0551 -374.0157
v  68.8976 -334.6456 -374.0158
v  -68.8976 -59.0552 472.4410
v  -68.8976 -59.0551 374.0157
v  -68.8976 -334.6457 374.0157
v  -68.8976 -334.6457 472.4409
v  68.8976 -59.0551 374.0157
v  68.8976 -334.6457 374.0157
v  68.8976 -59.0552 472.4410
v  68.8976 -334.6457 472.4409
v  787.4015 23.6222 -413.3858
v  787.4015 0.0001 -354.3307
v  787.4015 -78.7400 -354.3307
v  787.4015 -78.7400 -413.3858
v  -787.4016 -0.0000 -354.3308
v  -787.4016 -78.7402 -354.3308
v  -787.4016 0.0000 -442.9135
v  -787.4016 0.0000 -472.4411
v  -787.4016 -78.7402 -472.4411
v  -787.4016 -78.7402 -442.9135
v  787.4015 0.0002 -472.4409
v  787.4015 -78.7400 -472.4409
v  -787.4016 -78.7402 -413.3860
v  -787.4016 23.6221 -413.3860
v  -787.4016 39.3701 -413.3860
v  787.4015 39.3702 -413.3858
v  787.4015 0.0001 -442.9133
v  787.4015 -78.7400 -442.9133
v  -787.4016 39.3701 -354.3308
v  787.4015 39.3702 -354.3307
v  -787.4016 23.6220 413.3858
v  -787.4016 -0.0000 354.3307
v  -787.4016 -78.7402 354.3307
v  -787.4016 -78.7402 413.3858
v  787.4017 -0.0000 354.3307
v  787.4017 -78.7402 354.3307
v  787.4017 -0.0000 442.9134
v  787.4017 -0.0000 472.4410
v  787.4017 -78.7402 472.4410
v  787.4017 -78.7402 442.9134
v  -787.4016 -0.0000 472.4410
v  -787.4016 -78.7402 472.4410
v  787.4017 -78.7402 413.3858
v  787.4017 23.6220 413.3858
v  787.4017 39.3700 413.3858
v  -787.4016 39.3700 413.3858
v  -787.4016 -0.0000 442.9134
v  -787.4016 -78.7402 442.9134
v  787.4017 39.3701 354.3307
v  -787.4016 39.3701 354.3307
v  -586.6143 231.2158 -372.8165
v  -586.6143 231.2158 -364.9425
v  -586.6143 -0.9273 -437.0081
v  -586.6143 -0.9273 -444.8821
v  -594.4882 231.2158 -364.9425
v  -594.4882 -0.9273 -437.0081
v  -594.4882 231.2158 -372.8165
v  -594.4882 -0.9273 -444.8821
v  -389.7638 345.1064 -320.7245
v  -389.7638 345.1064 -312.8504
v  -389.7638 -0.9273 -437.0081
v  -389.7638 -0.9273 -444.8820
v  -397.6379 345.1064 -312.8504
v  -397.6378 -0.9273 -437.0081
v  -397.6379 345.1064 -320.7245
v  -397.6378 -0.9273 -444.8820
v  -192.9135 379.0752 -300.2716
v  -192.9135 379.0752 -292.3976
v  -192.9134 -0.9273 -437.0080
v  -192.9134 -0.9273 -444.8820
v  -200.7875 379.0752 -292.3976
v  -200.7874 -0.9273 -437.0080
v  -200.7875 379.0752 -300.2716
v  -200.7874 -0.9273 -444.8820
v  3.9370 379.0752 -295.8321
v  3.9370 379.0752 -287.9581
v  3.9370 -0.9273 -437.0079
v  3.9370 -0.9273 -444.8819
v  -3.9371 379.0752 -287.9581
v  -3.9370 -0.9273 -437.0079
v  -3.9371 379.0752 -295.8321
v  -3.9370 -0.9273 -444.8819
v  200.7874 379.0752 -300.2715
v  200.7874 379.0752 -292.3975
v  200.7874 -0.9273 -437.0078
v  200.7874 -0.9273 -444.8819
v  192.9134 379.0752 -292.3975
v  192.9134 -0.9273 -437.0078
v  192.9134 379.0752 -300.2715
v  192.9134 -0.9273 -444.8819
v  397.6378 345.1064 -320.7242
v  397.6378 345.1064 -312.8502
v  397.6378 -0.9273 -437.0078
v  397.6378 -0.9273 -444.8818
v  389.7638 345.1064 -312.8502
v  389.7638 -0.9273 -437.0078
v  389.7638 345.1064 -320.7242
v  389.7638 -0.9273 -444.8818
v  594.4882 231.2158 -372.8162
v  594.4882 231.2158 -364.9421
v  594.4882 -0.9273 -437.0077
v  594.4882 -0.9273 -444.8817
v  586.6142 231.2158 -364.9421
v  586.6142 -0.9273 -437.0077
v  586.6142 231.2158 -372.8162
v  586.6142 -0.9273 -444.8817
v  586.6143 231.2157 372.8165
v  586.6143 231.2157 364.9424
v  586.6142 -0.9274 437.0079
v  586.6142 -0.9274 444.8820
v  594.4882 231.2157 364.9424
v  594.4882 -0.9274 437.0079
v  594.4882 231.2157 372.8165
v  594.4882 -0.9274 444.8820
v  389.7639 345.1063 320.7245
v  389.7639 345.1063 312.8504
v  389.7639 -0.9274 437.0079
v  389.7639 -0.9274 444.8820
v  397.6378 345.1063 312.8505
v  397.6378 -0.9274 437.0080
v  397.6378 345.1063 320.7245
v  397.6378 -0.9274 444.8820
v  192.9134 379.0750 300.2717
v  192.9134 379.0750 292.3977
v  192.9134 -0.9274 437.0079
v  192.9134 -0.9274 444.8819
v  200.7874 379.0750 292.3977
v  200.7874 -0.9274 437.0079
v  200.7874 379.0750 300.2717
v  200.7874 -0.9274 444.8819
v  -3.9370 379.0750 295.8322
v  -3.9370 379.0750 287.9583
v  -3.9370 -0.9274 437.0079
v  -3.9370 -0.9274 444.8819
v  3.9370 379.0750 287.9583
v  3.9370 -0.9274 437.0079
v  3.9370 379.0750 295.8322
v  3.9370 -0.9274 444.8819
v  -200.7874 379.0750 300.2716
v  -200.7874 379.0750 292.3977
v  -200.7874 -0.9274 437.0080
v  -200.7874 -0.9274 444.8820
v  -192.9134 379.0750 292.3977
v  -192.9134 -0.9274 437.0080
v  -192.9134 379.0750 300.2716
v  -192.9134 -0.9274 444.8820
v  -397.6378 345.1063 320.7245
v  -397.6378 345.1063 312.8504
v  -397.6378 -0.9274 437.0080
v  -397.6378 -0.9274 444.8819
v  -389.7638 345.1063 312.8504
v  -389.7638 -0.9274 437.0080
v  -389.7638 345.1063 320.7245
v  -389.7638 -0.9274 444.8820
v  -594.4882 231.2157 372.8165
v  -594.4882 231.2157 364.9425
v  -594.4883 -0.9274 437.0080
v  -594.4883 -0.9274 444.8820
v  -586.6141 231.2157 364.9425
v  -586.6142 -0.9274 437.0080
v  -586.6141 231.2157 372.8165
v  -586.6142 -0.9274 444.8820
v  -311.0236 383.3862 314.1756
v  -311.0236 383.3864 -314.1755
v  -311.0236 359.7643 -314.1755
v  -311.0236 359.7642 314.1756
v  -279.5276 383.3864 -314.1755
v  -279.5276 359.7643 -314.1755
v  -279.5276 383.3862 314.1756
v  -279.5276 359.7642 314.1756
v  -507.8740 310.0636 352.0316
v  -507.8740 310.0637 -352.0316
v  -507.8740 286.4417 -352.0316
v  -507.8740 286.4416 352.0316
v  -476.3779 310.0637 -352.0316
v  -476.3779 286.4417 -352.0316
v  -476.3780 310.0636 352.0316
v  -476.3780 286.4416 352.0316
v  476.3780 310.0636 352.0316
v  476.3780 310.0637 -352.0315
v  476.3780 286.4417 -352.0315
v  476.3780 286.4416 352.0316
v  507.8741 310.0637 -352.0315
v  507.8741 286.4417 -352.0315
v  507.8740 310.0636 352.0316
v  507.8740 286.4416 352.0316
v  279.5276 383.3862 314.1756
v  279.5276 383.3864 -314.1756
v  279.5276 359.7643 -314.1756
v  279.5276 359.7642 314.1756
v  311.0236 383.3864 -314.1756
v  311.0236 359.7643 -314.1756
v  311.0236 383.3862 314.1756
v  311.0236 359.7642 314.1756
v  -0.0001 437.1047 -259.3618
v  -0.0001 437.1048 -318.4169
v  -77.1789 434.7350 -319.1295
v  -77.1789 434.7350 -260.0744
v  77.1815 434.7348 -260.0745
v  77.1815 434.7349 -319.1295
v  724.8394 -12.5730 -459.8568
v  783.6101 -6.7846 -471.4085
v  783.6101 -6.7846 -411.8282
v  724.8394 -12.5730 -400.2975
v  -724.8393 -12.5729 -400.2976
v  -783.6100 -6.7845 -411.8285
v  -783.6101 -6.7845 -471.4088
v  -724.8394 -12.5729 -459.8570
v  -153.6145 427.6487 -323.6879
v  -153.6145 427.6487 -264.6328
v  -228.5707 415.9140 -331.5553
v  -228.5707 415.9140 -272.5002
v  -301.3257 399.6439 -341.8678
v  -301.3257 399.6439 -282.8127
v  -371.1786 378.9951 -353.8892
v  -371.1786 378.9951 -294.8340
v  -437.4569 354.1665 -367.2404
v  -437.4569 354.1665 -308.1748
v  -499.5222 325.3973 -381.1857
v  -499.5222 325.3973 -322.0388
v  -556.7770 292.9644 -395.3101
v  -556.7770 292.9644 -336.0816
v  -608.6696 257.1802 -409.1605
v  -608.6696 257.1802 -349.8374
v  -654.7006 218.3894 -422.3542
v  -654.7006 218.3893 -362.9551
v  -694.4262 176.9654 -434.6039
v  -694.4261 176.9653 -375.1440
v  -727.4643 133.3072 -445.7134
v  -727.4642 133.3072 -386.2029
v  -753.4965 87.8354 -455.5701
v  -753.4963 87.8354 -396.0246
v  -772.2720 40.9877 -464.1307
v  -772.2719 40.9877 -404.5631
v  772.2720 40.9875 -464.1306
v  772.2720 40.9875 -404.5629
v  753.4965 87.8350 -455.5699
v  753.4966 87.8350 -396.0245
v  727.4646 133.3068 -445.7134
v  727.4646 133.3067 -386.2030
v  694.4267 176.9648 -434.6039
v  694.4268 176.9648 -375.1441
v  654.7012 218.3888 -422.3543
v  654.7012 218.3887 -362.9551
v  608.6706 257.1796 -409.1606
v  608.6706 257.1796 -349.8375
v  556.7781 292.9638 -395.3103
v  556.7781 292.9637 -336.0818
v  499.5237 325.3967 -381.1859
v  499.5237 325.3967 -322.0390
v  437.4585 354.1660 -367.2407
v  437.4585 354.1660 -308.1751
v  371.1803 378.9946 -353.8894
v  371.1803 378.9946 -294.8344
v  301.3275 399.6434 -341.8681
v  301.3275 399.6434 -282.8130
v  228.5728 415.9136 -331.5556
v  228.5728 415.9135 -272.5005
v  153.6169 427.6484 -323.6881
v  153.6169 427.6484 -264.6330
v  -0.0001 378.0496 -259.2496
v  -71.3905 375.9643 -259.7928
v  -71.3905 375.9643 -318.8480
v  -0.0001 378.0497 -318.3048
v  71.3929 375.9641 -259.7930
v  71.3929 375.9642 -318.8480
v  -142.0934 369.7283 -263.6642
v  -142.0934 369.7284 -322.7193
v  142.0956 369.7280 -263.6645
v  142.0956 369.7281 -322.7195
v  -211.4279 359.4017 -270.4258
v  -211.4279 359.4018 -329.4809
v  211.4299 359.4014 -270.4261
v  211.4299 359.4014 -329.4812
v  -278.7262 345.0841 -279.5652
v  -278.7262 345.0841 -338.6204
v  278.7280 345.0836 -279.5655
v  278.7280 345.0836 -338.6205
v  -343.3402 326.9131 -290.5400
v  -343.3402 326.9132 -349.5952
v  343.3418 326.9127 -290.5403
v  343.3418 326.9127 -349.5954
v  -404.6476 305.0641 -302.6478
v  -404.6476 305.0640 -361.7029
v  404.6491 305.0635 -302.6480
v  404.6491 305.0635 -361.7031
v  -462.0581 279.7471 -315.4349
v  -462.0581 279.7471 -374.5445
v  462.0593 279.7465 -315.4351
v  462.0593 279.7465 -374.5446
v  -515.0187 251.2061 -328.4613
v  -515.0187 251.2061 -387.6420
v  515.0198 251.2056 -328.4615
v  515.0198 251.2056 -387.6422
v  -563.0194 219.7160 -341.2950
v  -563.0194 219.7160 -400.5614
v  563.0203 219.7155 -341.2952
v  563.0203 219.7155 -400.5615
v  -605.5980 185.5801 -353.5992
v  -605.5980 185.5800 -412.9464
v  605.5987 185.5796 -353.5993
v  605.5987 185.5795 -412.9465
v  -642.3442 149.1269 -365.1109
v  -642.3442 149.1270 -424.5221
v  642.3447 149.1265 -365.1110
v  642.3447 149.1265 -424.5223
v  -672.9044 110.7078 -375.6300
v  -672.9044 110.7078 -435.0934
v  672.9048 110.7074 -375.6300
v  672.9048 110.7074 -435.0935
v  -696.9841 70.6926 -385.0305
v  -696.9842 70.6926 -444.5375
v  696.9843 70.6923 -385.0304
v  696.9843 70.6922 -444.5375
v  -714.3515 29.4667 -393.2566
v  -714.3516 29.4667 -452.7947
v  714.3516 29.4665 -393.2565
v  714.3516 29.4665 -452.7946
v  -15.7480 415.0483 270.5906
v  -15.7480 415.0484 -270.5905
v  -15.7480 391.4263 -270.5904
v  -15.7480 391.4263 270.5906
v  15.7480 415.0484 -270.5905
v  15.7480 391.4263 -270.5905
v  15.7480 415.0483 270.5906
v  15.7480 391.4263 270.5906
v  -0.0000 437.1046 259.3618
v  -0.0000 437.1047 318.4170
v  77.1789 434.7349 319.1296
v  77.1789 434.7349 260.0745
v  -77.1815 434.7348 260.0746
v  -77.1815 434.7348 319.1297
v  -724.8394 -12.5732 459.8569
v  -783.6101 -6.7848 471.4087
v  -783.6101 -6.7848 411.8284
v  -724.8394 -12.5732 400.2975
v  724.8394 -12.5730 400.2976
v  783.6101 -6.7846 411.8284
v  783.6101 -6.7846 471.4087
v  724.8394 -12.5730 459.8569
v  153.6144 427.6486 323.6880
v  153.6144 427.6487 264.6329
v  228.5706 415.9139 331.5554
v  228.5706 415.9140 272.5002
v  301.3256 399.6438 341.8680
v  301.3256 399.6438 282.8128
v  371.1785 378.9951 353.8893
v  371.1785 378.9950 294.8341
v  437.4569 354.1665 367.2406
v  437.4569 354.1665 308.1748
v  499.5222 325.3972 381.1858
v  499.5222 325.3972 322.0389
v  556.7770 292.9644 395.3102
v  556.7770 292.9644 336.0817
v  608.6696 257.1802 409.1605
v  608.6696 257.1801 349.8374
v  654.7006 218.3893 422.3543
v  654.7006 218.3893 362.9551
v  694.4262 176.9653 434.6039
v  694.4262 176.9653 375.1440
v  727.4643 133.3072 445.7135
v  727.4643 133.3072 386.2029
v  753.4965 87.8353 455.5700
v  753.4965 87.8353 396.0246
v  772.2720 40.9877 464.1306
v  772.2720 40.9877 404.5630
v  -772.2720 40.9873 464.1306
v  -772.2720 40.9873 404.5630
v  -753.4965 87.8348 455.5700
v  -753.4965 87.8348 396.0246
v  -727.4646 133.3066 445.7136
v  -727.4646 133.3066 386.2031
v  -694.4267 176.9646 434.6040
v  -694.4267 176.9646 375.1442
v  -654.7012 218.3886 422.3545
v  -654.7012 218.3886 362.9553
v  -608.6706 257.1794 409.1607
v  -608.6706 257.1794 349.8376
v  -556.7781 292.9637 395.3105
v  -556.7781 292.9636 336.0819
v  -499.5237 325.3965 381.1861
v  -499.5237 325.3965 322.0392
v  -437.4585 354.1658 367.2408
v  -437.4585 354.1658 308.1752
v  -371.1804 378.9945 353.8896
v  -371.1804 378.9945 294.8344
v  -301.3276 399.6433 341.8682
v  -301.3276 399.6433 282.8131
v  -228.5729 415.9135 331.5558
v  -228.5729 415.9135 272.5006
v  -153.6169 427.6483 323.6882
v  -153.6169 427.6484 264.6331
v  -0.0000 378.0495 259.2498
v  71.3904 375.9642 259.7930
v  71.3904 375.9642 318.8481
v  -0.0000 378.0496 318.3050
v  -71.3929 375.9641 259.7930
v  -71.3929 375.9641 318.8481
v  142.0933 369.7282 263.6643
v  142.0933 369.7282 322.7194
v  -142.0957 369.7280 263.6645
v  -142.0957 369.7280 322.7197
v  211.4278 359.4017 270.4258
v  211.4278 359.4017 329.4810
v  -211.4299 359.4013 270.4261
v  -211.4299 359.4013 329.4813
v  278.7261 345.0840 279.5653
v  278.7261 345.0840 338.6205
v  -278.7280 345.0835 279.5656
v  -278.7280 345.0835 338.6207
v  343.3401 326.9131 290.5401
v  343.3401 326.9131 349.5953
v  -343.3419 326.9126 290.5404
v  -343.3419 326.9126 349.5956
v  404.6476 305.0640 302.6479
v  404.6476 305.0640 361.7030
v  -404.6491 305.0634 302.6481
v  -404.6491 305.0634 361.7033
v  462.0581 279.7471 315.4349
v  462.0581 279.7470 374.5445
v  -462.0593 279.7464 315.4351
v  -462.0593 279.7464 374.5448
v  515.0187 251.2061 328.4613
v  515.0187 251.2061 387.6420
v  -515.0198 251.2054 328.4616
v  -515.0198 251.2055 387.6422
v  563.0194 219.7160 341.2951
v  563.0194 219.7160 400.5613
v  -563.0203 219.7153 341.2953
v  -563.0203 219.7153 400.5616
v  605.5980 185.5800 353.5993
v  605.5980 185.5800 412.9464
v  -605.5986 185.5794 353.5994
v  -605.5986 185.5794 412.9465
v  642.3442 149.1269 365.1110
v  642.3442 149.1269 424.5222
v  -642.3447 149.1263 365.1111
v  -642.3447 149.1264 424.5224
v  672.9044 110.7077 375.6300
v  672.9044 110.7078 435.0935
v  -672.9048 110.7073 375.6302
v  -672.9048 110.7073 435.0936
v  696.9842 70.6925 385.0305
v  696.9842 70.6925 444.5374
v  -696.9843 70.6921 385.0305
v  -696.9843 70.6921 444.5376
v  714.3516 29.4666 393.2565
v  714.3516 29.4666 452.7946
v  -714.3516 29.4663 393.2566
v  -714.3516 29.4663 452.7947
v  787.4015 7.8741 -275.5905
v  -787.4016 7.8741 -275.5906
v  -787.4016 -78.7401 -275.5906
v  787.4015 -78.7401 -275.5905
v  -787.4016 7.8741 -354.3308
v  -787.4016 -78.7401 -354.3308
v  787.4015 7.8741 -354.3307
v  787.4015 -78.7401 -354.3307
v  787.4017 7.8740 354.3308
v  -787.4016 7.8740 354.3306
v  -787.4016 -78.7402 354.3306
v  787.4017 -78.7402 354.3308
v  -787.4016 7.8740 275.5905
v  -787.4016 -78.7402 275.5905
v  787.4017 7.8740 275.5906
v  787.4017 -78.7402 275.5906
v  -778.5428 75.1674 386.8110
v  -778.5428 75.1674 380.9055
v  -778.5428 65.3248 380.9055
v  -778.5428 65.3248 386.8110
v  777.0485 75.1674 380.9055
v  777.0485 65.3248 380.9055
v  777.0485 75.1674 386.8111
v  777.0485 65.3248 386.8111
v  -782.2839 78.8367 389.8598
v  -782.2839 78.8367 377.8567
v  -787.4022 38.9897 367.2787
v  -787.4022 38.9897 400.4377
v  -761.8110 78.8367 377.8567
v  -756.6928 38.9897 367.2787
v  -761.8110 78.8367 389.8598
v  -756.6928 38.9897 400.4377
v  761.8111 78.8367 389.8599
v  761.8111 78.8367 377.8568
v  756.6930 38.9897 367.2788
v  756.6930 38.9897 400.4378
v  782.2834 78.8367 377.8568
v  787.4017 38.9897 367.2788
v  782.2834 78.8367 389.8599
v  787.4017 38.9897 400.4378
v  -10.2364 78.8367 389.8598
v  -10.2364 78.8367 377.8568
v  -15.3546 38.9897 367.2788
v  -15.3546 38.9897 400.4378
v  10.2359 78.8367 377.8567
v  15.3541 38.9897 367.2788
v  10.2359 78.8367 389.8598
v  15.3541 38.9897 400.4377
v  383.4643 78.8367 389.8599
v  383.4643 78.8367 377.8568
v  378.3462 38.9897 367.2788
v  378.3462 38.9897 400.4378
v  403.9366 78.8367 377.8568
v  409.0549 38.9897 367.2788
v  403.9366 78.8367 389.8599
v  409.0549 38.9897 400.4378
v  -403.9372 78.8367 389.8598
v  -403.9372 78.8367 377.8567
v  -409.0554 38.9897 367.2788
v  -409.0554 38.9897 400.4377
v  -383.4649 78.8367 377.8567
v  -378.3466 38.9897 367.2788
v  -383.4649 78.8367 389.8598
v  -378.3466 38.9897 400.4377
v  -774.4150 75.1674 -380.9055
v  -774.4150 75.1674 -386.8111
v  -774.4150 65.3249 -386.8111
v  -774.4150 65.3249 -380.9055
v  776.1827 75.1674 -386.8110
v  776.1827 65.3249 -386.8110
v  776.1827 75.1674 -380.9055
v  776.1827 65.3249 -380.9055
v  -782.2839 78.8368 -377.8567
v  -782.2839 78.8368 -389.8598
v  -787.4023 38.9898 -400.4378
v  -787.4023 38.9898 -367.2788
v  -761.8111 78.8368 -389.8598
v  -756.6929 38.9898 -400.4378
v  -761.8111 78.8368 -377.8567
v  -756.6929 38.9898 -367.2788
v  761.8111 78.8368 -377.8567
v  761.8111 78.8368 -389.8598
v  756.6929 38.9898 -400.4378
v  756.6929 38.9898 -367.2787
v  782.2833 78.8368 -389.8598
v  787.4016 38.9898 -400.4378
v  782.2833 78.8368 -377.8567
v  787.4016 38.9898 -367.2787
v  -10.2364 78.8368 -377.8567
v  -10.2364 78.8368 -389.8598
v  -15.3546 38.9898 -400.4378
v  -15.3546 38.9898 -367.2788
v  10.2359 78.8368 -389.8598
v  15.3541 38.9898 -400.4378
v  10.2359 78.8368 -377.8567
v  15.3541 38.9898 -367.2788
v  383.4644 78.8368 -377.8567
v  383.4644 78.8368 -389.8598
v  378.3462 38.9898 -400.4377
v  378.3462 38.9898 -367.2787
v  403.9367 78.8368 -389.8598
v  409.0550 38.9898 -400.4377
v  403.9367 78.8368 -377.8567
v  409.0550 38.9898 -367.2787
v  -403.9372 78.8368 -377.8567
v  -403.9372 78.8368 -389.8599
v  -409.0553 38.9898 -400.4378
v  -409.0553 38.9898 -367.2788
v  -383.4649 78.8368 -389.8599
v  -378.3466 38.9898 -400.4378
v  -383.4649 78.8368 -377.8567
v  -378.3466 38.9898 -367.2788
v  787.4016 -0.0000 275.5906
v  -787.4016 -0.0000 275.5905
v  787.4016 -78.7402 275.5906
v  -787.4016 -0.0000 263.7795
v  787.4016 -0.0000 263.7796
v  787.4016 -78.7401 -275.5905
v  -787.4016 0.0000 -275.5906
v  787.4016 0.0000 -275.5905
v  -787.4016 0.0000 -263.7796
v  787.4016 0.0000 -263.7795
v  -787.4016 -0.0000 251.9685
v  787.4016 -0.0000 251.9686
v  748.0315 -0.0000 5.9056
v  629.9213 -0.0000 5.9056
v  551.1812 -0.0000 5.9056
v  433.0710 -0.0000 5.9055
v  354.3307 -0.0000 5.9055
v  236.2205 -0.0000 5.9055
v  157.4803 -0.0000 5.9055
v  39.3701 -0.0000 5.9055
v  -39.3701 -0.0000 5.9055
v  -157.4803 -0.0000 5.9055
v  -236.2205 -0.0000 5.9055
v  -354.3307 -0.0000 5.9055
v  -433.0710 -0.0000 5.9055
v  -551.1812 -0.0000 5.9055
v  -629.9213 -0.0000 5.9055
v  -748.0315 -0.0000 5.9055
v  -787.4016 0.0000 -251.9686
v  -748.0315 0.0000 -5.9056
v  -629.9213 0.0000 -5.9056
v  787.4016 0.0000 -251.9685
v  -551.1812 0.0000 -5.9056
v  -433.0710 0.0000 -5.9055
v  -354.3307 0.0000 -5.9055
v  -236.2205 0.0000 -5.9055
v  -157.4803 0.0000 -5.9055
v  -39.3701 0.0000 -5.9055
v  39.3701 0.0000 -5.9055
v  157.4803 0.0000 -5.9055
v  236.2205 0.0000 -5.9055
v  354.3307 0.0000 -5.9055
v  433.0710 0.0000 -5.9055
v  551.1812 0.0000 -5.9055
v  629.9213 0.0000 -5.9055
v  748.0315 0.0000 -5.9055
# 614 vertices

vn -1.0000 0.0000 -0.0000
vn 0.0000 0.0000 -1.0000
vn 1.0000 0.0000 -0.0000
vn 0.0000 -0.0000 1.0000
vn 0.0000 -1.0000 0.0000
vn 0.0000 1.0000 0.0000
vn -1.0000 -0.0000 0.0000
vn -0.0000 -0.0000 1.0000
vn 0.0000 -1.0000 -0.0000
vn 0.0000 0.7809 -0.6247
vn -0.0000 1.0000 0.0000
vn -0.0000 -1.0000 -0.0000
vn -0.0000 0.7809 0.6247
vn 0.0000 -0.2965 0.9550
vn 0.0000 0.2965 -0.9550
vn 0.0000 -0.3377 0.9412
vn -1.0000 -0.0000 -0.0000
vn 0.0000 0.3377 -0.9412
vn 1.0000 0.0000 0.0000
vn 0.0000 -0.3557 0.9346
vn 0.0000 0.3557 -0.9346
vn 1.0000 -0.0000 0.0000
vn 0.0000 -0.3651 0.9309
vn 0.0000 0.3651 -0.9309
vn -1.0000 0.0000 0.0000
vn 0.0000 -0.2965 -0.9550
vn 1.0000 -0.0000 -0.0000
vn 0.0000 0.2965 0.9550
vn 0.0000 -0.3377 -0.9412
vn -0.0000 0.3377 0.9412
vn 0.0000 -0.3557 -0.9346
vn 0.0000 0.3557 0.9346
vn 0.0000 -0.3651 -0.9309
vn 0.0000 0.3651 0.9309
vn -0.0307 0.9995 0.0000
vn 0.0307 0.9995 0.0000
vn 0.0980 -0.9952 -0.0000
vn -0.0980 -0.9952 -0.0000
vn -0.0923 0.9957 0.0000
vn -0.1547 0.9880 0.0000
vn -0.2182 0.9759 0.0000
vn -0.2835 0.9590 0.0000
vn -0.3508 0.9364 0.0000
vn -0.4205 0.9073 0.0000
vn -0.4929 0.8701 0.0000
vn -0.5677 0.8232 0.0000
vn -0.6444 0.7647 0.0000
vn -0.7217 0.6922 0.0000
vn -0.7974 0.6034 0.0000
vn -0.8678 0.4968 0.0000
vn -0.9282 0.3720 0.0000
vn -0.9730 0.2309 0.0000
vn 0.9730 0.2309 0.0000
vn 0.9282 0.3720 -0.0000
vn 0.8678 0.4968 -0.0000
vn 0.7974 0.6034 -0.0000
vn 0.7217 0.6922 -0.0000
vn 0.6444 0.7647 -0.0000
vn 0.5677 0.8232 0.0000
vn 0.4929 0.8701 0.0000
vn 0.4205 0.9073 0.0000
vn 0.3508 0.9364 0.0000
vn 0.2835 0.9590 0.0000
vn 0.2182 0.9759 0.0000
vn 0.1547 0.9880 0.0000
vn 0.0923 0.9957 0.0000
vn 0.0292 -0.9996 -0.0000
vn -0.0292 -0.9996 -0.0000
vn 0.0879 -0.9961 -0.0000
vn -0.0879 -0.9961 -0.0000
vn 0.1473 -0.9891 -0.0000
vn -0.1473 -0.9891 -0.0000
vn 0.2081 -0.9781 -0.0000
vn -0.2081 -0.9781 -0.0000
vn 0.2707 -0.9627 -0.0000
vn -0.2707 -0.9627 -0.0000
vn 0.3357 -0.9420 -0.0000
vn -0.3357 -0.9420 -0.0000
vn 0.4035 -0.9150 0.0000
vn -0.4035 -0.9150 -0.0000
vn 0.4744 -0.8803 -0.0000
vn -0.4744 -0.8803 -0.0000
vn 0.5485 -0.8361 -0.0000
vn -0.5485 -0.8361 -0.0000
vn 0.6255 -0.7802 -0.0000
vn -0.6255 -0.7802 -0.0000
vn 0.7043 -0.7099 -0.0000
vn -0.7043 -0.7099 0.0000
vn 0.7826 -0.6225 -0.0000
vn -0.7826 -0.6225 0.0000
vn 0.8568 -0.5156 -0.0000
vn -0.8568 -0.5156 0.0000
vn 0.9216 -0.3882 -0.0000
vn -0.9216 -0.3882 0.0000
vn 0.9703 -0.2421 -0.0000
vn -0.9703 -0.2421 0.0000
vn 0.2031 -0.1105 0.9729
vn 0.2142 -0.0976 0.9719
vn 0.1895 -0.1028 0.9765
vn 0.1975 -0.0976 0.9754
vn 0.1715 -0.1249 0.9772
vn 0.1504 -0.1571 0.9761
vn 0.2248 -0.0704 0.9718
vn 0.2925 0.0060 0.9563
vn 0.2274 -0.0367 0.9731
vn 0.2020 -0.0085 0.9794
vn 0.0671 -0.3191 0.9453
vn 0.0437 -0.3882 0.9205
vn -0.0006 -0.5542 0.8324
vn 0.0000 -0.2880 0.9576
vn 0.1055 -0.0072 0.9944
vn -0.0096 -0.4961 0.8682
vn -0.0437 -0.3882 0.9205
vn -0.1204 -0.2047 0.9714
vn -0.1504 -0.1571 0.9761
vn -0.1554 -0.0340 0.9873
vn -0.1943 -0.1002 0.9758
vn -0.1975 -0.0976 0.9754
vn -0.2091 -0.0960 0.9732
vn -0.2020 -0.1126 0.9729
vn -0.2152 -0.0856 0.9728
vn -0.2886 -0.0419 0.9565
vn -0.2367 -0.0611 0.9696
vn -0.2248 -0.0412 0.9735
vn -0.2341 0.0403 0.9714
vn -0.3225 0.5862 0.7432
vn -0.1331 0.1017 0.9859
vn -0.0312 0.0017 0.9995
vn 0.0366 0.0973 0.9946
vn 0.2055 0.6944 0.6896
vn 0.1975 0.1141 0.9736
vn 0.2034 0.1109 -0.9728
vn 0.2133 0.0994 -0.9719
vn 0.1910 0.1026 -0.9762
vn 0.1995 0.0971 -0.9751
vn 0.1731 0.1248 -0.9770
vn 0.1500 0.1602 -0.9756
vn 0.2259 0.0707 -0.9716
vn 0.2940 -0.0059 -0.9558
vn 0.2288 0.0369 -0.9728
vn 0.2027 0.0077 -0.9792
vn 0.2045 -0.2432 -0.9482
vn 0.2001 -0.6681 -0.7167
vn 0.0655 0.3237 -0.9439
vn 0.0437 0.3882 -0.9205
vn -0.0006 0.5542 -0.8324
vn 0.0000 0.2880 -0.9576
vn 0.0075 0.4634 -0.8861
vn 0.0366 -0.0973 -0.9946
vn -0.0312 -0.0017 -0.9995
vn -0.1331 -0.1017 -0.9859
vn -0.3225 -0.5862 -0.7432
vn -0.0096 0.4960 -0.8682
vn -0.0437 0.3882 -0.9205
vn -0.1189 0.2097 -0.9705
vn -0.1500 0.1601 -0.9756
vn -0.1560 0.0337 -0.9872
vn -0.1960 0.0998 -0.9755
vn -0.1995 0.0971 -0.9751
vn -0.2096 0.0962 -0.9731
vn -0.2023 0.1129 -0.9728
vn -0.2160 0.0861 -0.9726
vn -0.2895 0.0423 -0.9562
vn -0.2381 0.0615 -0.9693
vn -0.2262 0.0413 -0.9732
vn -0.2357 -0.0420 -0.9709
vn -0.0000 -0.0000 -1.0000
vn 0.0307 0.9995 -0.0000
vn -0.0307 0.9995 -0.0000
vn 0.0923 0.9957 -0.0000
vn 0.2835 0.9590 -0.0000
vn 0.3508 0.9364 -0.0000
vn 0.4205 0.9073 -0.0000
vn 0.4929 0.8701 -0.0000
vn 0.5677 0.8232 -0.0000
vn -0.8678 0.4968 -0.0000
vn -0.7974 0.6034 -0.0000
vn -0.7217 0.6922 -0.0000
vn -0.6444 0.7647 -0.0000
vn -0.5677 0.8232 -0.0000
vn -0.4929 0.8701 -0.0000
vn -0.2182 0.9759 -0.0000
vn -0.1547 0.9880 -0.0000
vn -0.0923 0.9957 -0.0000
vn -0.0292 -0.9996 0.0000
vn 0.0292 -0.9996 0.0000
vn -0.0879 -0.9961 0.0000
vn 0.0879 -0.9961 0.0000
vn -0.1473 -0.9891 0.0000
vn 0.1473 -0.9891 0.0000
vn -0.2081 -0.9781 0.0000
vn 0.2081 -0.9781 0.0000
vn -0.2707 -0.9627 0.0000
vn 0.4035 -0.9150 -0.0000
vn -0.5485 -0.8361 0.0000
vn 0.5485 -0.8361 0.0000
vn -0.6255 -0.7802 0.0000
vn 0.6255 -0.7802 0.0000
vn 0.7043 -0.7099 0.0000
vn 0.7826 -0.6225 0.0000
vn -0.9216 -0.3882 -0.0000
vn -0.9703 -0.2421 -0.0000
vn -0.2031 -0.1105 -0.9729
vn -0.2142 -0.0976 -0.9719
vn -0.1895 -0.1028 -0.9765
vn -0.1975 -0.0976 -0.9754
vn -0.1715 -0.1249 -0.9772
vn -0.1504 -0.1571 -0.9761
vn -0.2248 -0.0704 -0.9718
vn -0.2925 0.0060 -0.9563
vn -0.2274 -0.0367 -0.9731
vn -0.2020 -0.0085 -0.9794
vn -0.0671 -0.3191 -0.9453
vn -0.0437 -0.3882 -0.9205
vn 0.0006 -0.5542 -0.8324
vn -0.0000 -0.2880 -0.9576
vn -0.1055 -0.0072 -0.9944
vn 0.0096 -0.4961 -0.8682
vn 0.0437 -0.3882 -0.9205
vn 0.1204 -0.2047 -0.9714
vn 0.1504 -0.1571 -0.9761
vn 0.1554 -0.0340 -0.9873
vn 0.1943 -0.1002 -0.9758
vn 0.1975 -0.0976 -0.9754
vn 0.2091 -0.0960 -0.9732
vn 0.2020 -0.1126 -0.9729
vn 0.2152 -0.0856 -0.9728
vn 0.2886 -0.0419 -0.9565
vn 0.2367 -0.0611 -0.9696
vn 0.2248 -0.0412 -0.9735
vn 0.2341 0.0403 -0.9714
vn 0.3225 0.5862 -0.7432
vn 0.1331 0.1017 -0.9859
vn 0.0312 0.0017 -0.9995
vn -0.0366 0.0973 -0.9946
vn -0.2055 0.6944 -0.6896
vn -0.1975 0.1141 -0.9736
vn -0.2034 0.1109 0.9728
vn -0.2133 0.0994 0.9719
vn -0.1910 0.1026 0.9762
vn -0.1996 0.0971 0.9751
vn -0.1731 0.1248 0.9770
vn -0.1500 0.1601 0.9756
vn -0.2259 0.0707 0.9716
vn -0.2940 -0.0059 0.9558
vn -0.2288 0.0369 0.9728
vn -0.2027 0.0077 0.9792
vn -0.2045 -0.2432 0.9482
vn -0.2001 -0.6681 0.7167
vn -0.0655 0.3237 0.9439
vn -0.0437 0.3882 0.9205
vn 0.0006 0.5542 0.8324
vn 0.0000 0.2880 0.9576
vn -0.0075 0.4634 0.8861
vn -0.0366 -0.0973 0.9946
vn 0.0312 -0.0017 0.9995
vn 0.1331 -0.1017 0.9859
vn 0.3225 -0.5862 0.7432
vn 0.0096 0.4960 0.8682
vn 0.0437 0.3882 0.9205
vn 0.1189 0.2097 0.9705
vn 0.1500 0.1602 0.9756
vn 0.1560 0.0337 0.9872
vn 0.1960 0.0998 0.9755
vn 0.1995 0.0971 0.9751
vn 0.2096 0.0962 0.9731
vn 0.2023 0.1129 0.9728
vn 0.2160 0.0861 0.9726
vn 0.2895 0.0423 0.9562
vn 0.2381 0.0615 0.9693
vn 0.2262 0.0413 0.9732
vn 0.2357 -0.0420 0.9709
vn -0.9919 0.1274 0.0000
vn 0.0000 0.2566 -0.9665
vn 0.9919 0.1274 0.0000
vn 0.0000 0.2566 0.9665
vn -0.0000 0.2566 -0.9665
vn -0.9919 0.1274 -0.0000
# 278 vertex normals

vt 0.3667 0.4012 0.0000
vt 0.4167 0.4012 0.0000
vt 0.4167 0.4512 0.0000
vt 0.3667 0.4512 0.0000
vt 0.3618 0.2781 0.0000
vt 0.4118 0.2781 0.0000
vt 0.4118 0.3281 0.0000
vt 0.3618 0.3281 0.0000
vt 0.3716 0.3963 0.0000
vt 0.4216 0.3963 0.0000
vt 0.4216 0.4463 0.0000
vt 0.3716 0.4463 0.0000
vt 0.4148 0.4385 0.0000
vt 0.4164 0.4366 0.0000
vt 0.4179 0.4345 0.0000
vt 0.4129 0.4402 0.0000
vt 0.4109 0.4418 0.0000
vt 0.4088 0.4431 0.0000
vt 0.4191 0.4323 0.0000
vt 0.4201 0.4299 0.0000
vt 0.4214 0.4250 0.0000
vt 0.4208 0.4275 0.0000
vt 0.4216 0.4225 0.0000
vt 0.4216 0.4200 0.0000
vt 0.4208 0.4150 0.0000
vt 0.4214 0.4175 0.0000
vt 0.4065 0.4442 0.0000
vt 0.4041 0.4451 0.0000
vt 0.4017 0.4457 0.0000
vt 0.3992 0.4461 0.0000
vt 0.3966 0.4463 0.0000
vt 0.3941 0.4461 0.0000
vt 0.4201 0.4126 0.0000
vt 0.4191 0.4102 0.0000
vt 0.4164 0.4060 0.0000
vt 0.4179 0.4080 0.0000
vt 0.4148 0.4040 0.0000
vt 0.4129 0.4023 0.0000
vt 0.4088 0.3994 0.0000
vt 0.4109 0.4007 0.0000
vt 0.3868 0.4442 0.0000
vt 0.4065 0.3983 0.0000
vt 0.4041 0.3974 0.0000
vt 0.3992 0.3964 0.0000
vt 0.4017 0.3968 0.0000
vt 0.3966 0.3963 0.0000
vt 0.3941 0.3964 0.0000
vt 0.3892 0.3974 0.0000
vt 0.3916 0.3968 0.0000
vt 0.3732 0.4299 0.0000
vt 0.3868 0.3983 0.0000
vt 0.3845 0.3994 0.0000
vt 0.3804 0.4023 0.0000
vt 0.3824 0.4007 0.0000
vt 0.3785 0.4040 0.0000
vt 0.3769 0.4060 0.0000
vt 0.3742 0.4102 0.0000
vt 0.3754 0.4080 0.0000
vt 0.3732 0.4126 0.0000
vt 0.3724 0.4150 0.0000
vt 0.3719 0.4175 0.0000
vt 0.3717 0.4200 0.0000
vt 0.3717 0.4225 0.0000
vt 0.3719 0.4250 0.0000
vt 0.3724 0.4275 0.0000
vt 0.3742 0.4323 0.0000
vt 0.3754 0.4345 0.0000
vt 0.3769 0.4366 0.0000
vt 0.3785 0.4385 0.0000
vt 0.3804 0.4402 0.0000
vt 0.3824 0.4418 0.0000
vt 0.3845 0.4431 0.0000
vt 0.3892 0.4451 0.0000
vt 0.3916 0.4457 0.0000
vt 0.2200 0.8746 0.0000
vt 0.2780 0.8746 0.0000
vt 0.2780 0.9326 0.0000
vt 0.2200 0.9326 0.0000
vt 0.2437 0.8540 0.0000
vt 0.2937 0.8540 0.0000
vt 0.2937 0.9040 0.0000
vt 0.2437 0.9040 0.0000
vt 0.5722 0.9206 0.0000
vt 0.5516 0.8665 0.0000
vt 0.5516 0.8637 0.0000
vt 0.5722 0.9177 0.0000
vt 0.4033 0.8568 0.0000
vt 0.4039 0.8567 0.0000
vt 0.4246 0.9107 0.0000
vt 0.4240 0.9108 0.0000
vt 0.5246 0.8688 0.0000
vt 0.5452 0.9228 0.0000
vt 0.5246 0.8716 0.0000
vt 0.5452 0.9256 0.0000
vt 0.3976 0.9158 0.0000
vt 0.3769 0.8618 0.0000
vt 0.3775 0.8616 0.0000
vt 0.3982 0.9157 0.0000
vt 0.4028 0.8569 0.0000
vt 0.4234 0.9109 0.0000
vt 0.4108 0.9118 0.0000
vt 0.4093 0.9078 0.0000
vt 0.4083 0.9051 0.0000
vt 0.4067 0.9010 0.0000
vt 0.4057 0.8983 0.0000
vt 0.4041 0.8943 0.0000
vt 0.4031 0.8916 0.0000
vt 0.4016 0.8875 0.0000
vt 0.4005 0.8848 0.0000
vt 0.3990 0.8808 0.0000
vt 0.3979 0.8781 0.0000
vt 0.3964 0.8740 0.0000
vt 0.3954 0.8713 0.0000
vt 0.3938 0.8673 0.0000
vt 0.3928 0.8646 0.0000
vt 0.3912 0.8605 0.0000
vt 0.3781 0.8615 0.0000
vt 0.3907 0.8606 0.0000
vt 0.3922 0.8647 0.0000
vt 0.3987 0.9156 0.0000
vt 0.3932 0.8674 0.0000
vt 0.3948 0.8714 0.0000
vt 0.3958 0.8741 0.0000
vt 0.3974 0.8782 0.0000
vt 0.3984 0.8809 0.0000
vt 0.3999 0.8849 0.0000
vt 0.4010 0.8876 0.0000
vt 0.4025 0.8917 0.0000
vt 0.4036 0.8944 0.0000
vt 0.4051 0.8984 0.0000
vt 0.4061 0.9011 0.0000
vt 0.4077 0.9052 0.0000
vt 0.4087 0.9079 0.0000
vt 0.4103 0.9120 0.0000
vt 0.5257 0.8714 0.0000
vt 0.5464 0.9254 0.0000
vt 0.5458 0.9255 0.0000
vt 0.5252 0.8715 0.0000
vt 0.5409 0.8772 0.0000
vt 0.5415 0.8771 0.0000
vt 0.5430 0.8812 0.0000
vt 0.5424 0.8813 0.0000
vt 0.5510 0.8666 0.0000
vt 0.5716 0.9207 0.0000
vt 0.5710 0.9208 0.0000
vt 0.5504 0.8668 0.0000
vt 0.5389 0.8704 0.0000
vt 0.5404 0.8744 0.0000
vt 0.5398 0.8745 0.0000
vt 0.5383 0.8705 0.0000
vt 0.5435 0.8840 0.0000
vt 0.5440 0.8839 0.0000
vt 0.5456 0.8879 0.0000
vt 0.5450 0.8880 0.0000
vt 0.5486 0.8975 0.0000
vt 0.5492 0.8974 0.0000
vt 0.5507 0.9014 0.0000
vt 0.5502 0.9015 0.0000
vt 0.5538 0.9110 0.0000
vt 0.5544 0.9109 0.0000
vt 0.5559 0.9149 0.0000
vt 0.5553 0.9150 0.0000
vt 0.5512 0.9042 0.0000
vt 0.5518 0.9041 0.0000
vt 0.5533 0.9082 0.0000
vt 0.5528 0.9083 0.0000
vt 0.5460 0.8907 0.0000
vt 0.5466 0.8906 0.0000
vt 0.5482 0.8947 0.0000
vt 0.5476 0.8948 0.0000
vt 0.5564 0.9177 0.0000
vt 0.5569 0.9176 0.0000
vt 0.5585 0.9217 0.0000
vt 0.5579 0.9218 0.0000
vt 0.4039 0.8538 0.0000
vt 0.3769 0.8589 0.0000
vt 0.4246 0.9079 0.0000
vt 0.3976 0.9129 0.0000
# 178 texture coords

g SPW_Urban_Bridge_2way_RoadBridge_01
usemtl SPW_Urban_Road
s off
f 1/1/1 2/2/1 3/3/1 4/4/1 
f 2/1/2 5/2/2 6/3/2 3/4/2 
f 5/1/3 7/2/3 8/3/3 6/4/3 
f 7/1/4 1/2/4 4/3/4 8/4/4 
f 4/1/5 3/2/5 6/3/5 8/4/5 
f 7/1/6 5/2/6 2/3/6 1/4/6 
f 9/1/7 10/2/7 11/3/7 12/4/7 
f 10/1/2 13/2/2 14/3/2 11/4/2 
f 13/1/3 15/2/3 16/3/3 14/4/3 
f 15/1/4 9/2/4 12/3/4 16/4/4 
f 12/1/5 11/2/5 14/3/5 16/4/5 
f 15/1/6 13/2/6 10/3/6 9/4/6 
s 1
f 17/1/3 18/2/3 19/3/3 20/4/3 
s 2
f 18/1/8 21/2/8 22/3/8 19/4/8 
s 1
f 23/1/1 24/2/1 25/3/1 26/4/1 
s off
f 24/1/2 27/2/2 28/3/2 25/4/2 
s 4
f 20/1/9 19/2/9 22/3/9 29/4/9 
s off
f 17/1/2 30/2/2 31/3/2 32/4/2 
f 23/1/10 30/2/10 17/3/10 33/4/10 
s 4
f 34/1/9 20/2/9 29/3/9 26/4/9 
s 1
f 21/1/1 30/2/1 29/3/1 22/4/1 
f 33/1/3 17/2/3 20/3/3 34/4/3 
s off
f 31/1/11 35/2/11 36/3/11 32/4/11 
s 1
f 30/1/1 21/2/1 35/3/1 31/4/1 
s 2
f 21/1/8 18/2/8 36/3/8 35/4/8 
s 1
f 18/1/3 17/2/3 32/3/3 36/4/3 
f 27/1/3 33/2/3 34/3/3 28/4/3 
s 4
f 28/1/9 34/2/9 26/3/9 25/4/9 
s off
f 24/1/11 23/2/11 33/3/11 27/4/11 
s 1
f 30/1/1 23/2/1 26/3/1 29/4/1 
f 37/1/1 38/2/1 39/3/1 40/4/1 
s 2
f 38/1/2 41/2/2 42/3/2 39/4/2 
s 1
f 43/1/3 44/2/3 45/3/3 46/4/3 
s off
f 44/1/4 47/2/4 48/3/4 45/4/4 
s 4
f 40/1/12 39/2/12 42/3/12 49/4/9 
s off
f 37/1/4 50/2/4 51/3/4 52/4/4 
f 43/1/13 50/2/13 37/3/13 53/4/13 
s 4
f 54/1/9 40/2/12 49/3/9 46/4/9 
s 1
f 41/1/3 50/2/3 49/3/3 42/4/3 
f 53/1/1 37/2/1 40/3/1 54/4/1 
s off
f 51/1/6 55/2/6 56/3/6 52/4/6 
s 1
f 50/1/3 41/2/3 55/3/3 51/4/3 
s 2
f 41/1/2 38/2/2 56/3/2 55/4/2 
s 1
f 38/1/1 37/2/1 52/3/1 56/4/1 
f 47/1/1 53/2/1 54/3/1 48/4/1 
s 4
f 48/1/9 54/2/9 46/3/9 45/4/9 
s off
f 44/1/6 43/2/6 53/3/6 47/4/6 
s 1
f 50/1/3 43/2/3 46/3/3 49/4/3 
s off
f 57/5/3 58/6/3 59/7/3 60/8/3 
f 58/5/14 61/6/14 62/7/14 59/8/14 
f 61/5/1 63/6/1 64/7/1 62/8/1 
f 63/5/15 57/6/15 60/7/15 64/8/15 
f 60/5/9 59/6/9 62/7/9 64/8/9 
f 63/5/6 61/6/6 58/7/6 57/8/6 
f 65/5/3 66/6/3 67/7/3 68/8/3 
f 66/5/16 69/6/16 70/7/16 67/8/16 
f 69/5/17 71/6/17 72/7/17 70/8/17 
f 71/5/18 65/6/18 68/7/18 72/8/18 
f 68/5/9 67/6/9 70/7/9 72/8/9 
f 71/5/6 69/6/6 66/7/6 65/8/6 
f 73/5/19 74/6/19 75/7/19 76/8/19 
f 74/5/20 77/6/20 78/7/20 75/8/20 
f 77/5/17 79/6/17 80/7/17 78/8/17 
f 79/5/21 73/6/21 76/7/21 80/8/21 
f 76/5/9 75/6/9 78/7/9 80/8/9 
f 79/5/6 77/6/6 74/7/6 73/8/6 
f 81/5/22 82/6/22 83/7/22 84/8/22 
f 82/5/23 85/6/23 86/7/23 83/8/23 
f 85/5/1 87/6/1 88/7/1 86/8/1 
f 87/5/24 81/6/24 84/7/24 88/8/24 
f 84/5/9 83/6/9 86/7/9 88/8/9 
f 87/5/6 85/6/6 82/7/6 81/8/6 
f 89/5/19 90/6/19 91/7/19 92/8/19 
f 90/5/20 93/6/20 94/7/20 91/8/20 
f 93/5/17 95/6/17 96/7/17 94/8/17 
f 95/5/21 89/6/21 92/7/21 96/8/21 
f 92/5/9 91/6/9 94/7/9 96/8/9 
f 95/5/6 93/6/6 90/7/6 89/8/6 
f 97/5/19 98/6/19 99/7/19 100/8/19 
f 98/5/16 101/6/16 102/7/16 99/8/16 
f 101/5/1 103/6/1 104/7/1 102/8/1 
f 103/5/18 97/6/18 100/7/18 104/8/18 
f 100/5/9 99/6/9 102/7/9 104/8/9 
f 103/5/6 101/6/6 98/7/6 97/8/6 
f 105/5/3 106/6/3 107/7/3 108/8/3 
f 106/5/14 109/6/14 110/7/14 107/8/14 
f 109/5/1 111/6/1 112/7/1 110/8/1 
f 111/5/15 105/6/15 108/7/15 112/8/15 
f 108/5/9 107/6/9 110/7/9 112/8/9 
f 111/5/6 109/6/6 106/7/6 105/8/6 
f 113/5/25 114/6/25 115/7/25 116/8/25 
f 114/5/26 117/6/26 118/7/26 115/8/26 
f 117/5/27 119/6/27 120/7/27 118/8/27 
f 119/5/28 113/6/28 116/7/28 120/8/28 
f 116/5/9 115/6/9 118/7/9 120/8/9 
f 119/5/6 117/6/6 114/7/6 113/8/6 
f 121/5/1 122/6/1 123/7/1 124/8/1 
f 122/5/29 125/6/29 126/7/29 123/8/29 
f 125/5/3 127/6/3 128/7/3 126/8/3 
f 127/5/30 121/6/30 124/7/30 128/8/30 
f 124/5/12 123/6/12 126/7/12 128/8/12 
f 127/5/6 125/6/6 122/7/6 121/8/6 
f 129/5/1 130/6/1 131/7/1 132/8/1 
f 130/5/31 133/6/31 134/7/31 131/8/31 
f 133/5/3 135/6/3 136/7/3 134/8/3 
f 135/5/32 129/6/32 132/7/32 136/8/32 
f 132/5/9 131/6/9 134/7/9 136/8/9 
f 135/5/6 133/6/6 130/7/6 129/8/6 
f 137/5/17 138/6/17 139/7/17 140/8/17 
f 138/5/33 141/6/33 142/7/33 139/8/33 
f 141/5/19 143/6/19 144/7/19 142/8/19 
f 143/5/34 137/6/34 140/7/34 144/8/34 
f 140/5/9 139/6/9 142/7/9 144/8/9 
f 143/5/6 141/6/6 138/7/6 137/8/6 
f 145/5/1 146/6/1 147/7/1 148/8/1 
f 146/5/31 149/6/31 150/7/31 147/8/31 
f 149/5/27 151/6/27 152/7/27 150/8/27 
f 151/5/32 145/6/32 148/7/32 152/8/32 
f 148/5/9 147/6/9 150/7/9 152/8/9 
f 151/5/6 149/6/6 146/7/6 145/8/6 
f 153/5/1 154/6/1 155/7/1 156/8/1 
f 154/5/29 157/6/29 158/7/29 155/8/29 
f 157/5/3 159/6/3 160/7/3 158/8/3 
f 159/5/30 153/6/30 156/7/30 160/8/30 
f 156/5/12 155/6/12 158/7/12 160/8/12 
f 159/5/6 157/6/6 154/7/6 153/8/6 
f 161/5/25 162/6/25 163/7/25 164/8/25 
f 162/5/26 165/6/26 166/7/26 163/8/26 
f 165/5/27 167/6/27 168/7/27 166/8/27 
f 167/5/28 161/6/28 164/7/28 168/8/28 
f 164/5/9 163/6/9 166/7/9 168/8/9 
f 167/5/6 165/6/6 162/7/6 161/8/6 
f 169/9/1 170/10/1 171/11/1 172/12/1 
f 170/9/2 173/10/2 174/11/2 171/12/2 
f 173/9/3 175/10/3 176/11/3 174/12/3 
f 175/9/4 169/10/4 172/11/4 176/12/4 
f 172/9/9 171/10/9 174/11/9 176/12/9 
f 175/9/6 173/10/6 170/11/6 169/12/6 
f 177/9/1 178/10/1 179/11/1 180/12/1 
f 178/9/2 181/10/2 182/11/2 179/12/2 
f 181/9/22 183/10/22 184/11/22 182/12/22 
f 183/9/4 177/10/4 180/11/4 184/12/4 
f 180/9/9 179/10/9 182/11/9 184/12/9 
f 183/9/6 181/10/6 178/11/6 177/12/6 
f 185/9/1 186/10/1 187/11/1 188/12/1 
f 186/9/2 189/10/2 190/11/2 187/12/2 
f 189/9/22 191/10/22 192/11/22 190/12/22 
f 191/9/4 185/10/4 188/11/4 192/12/4 
f 188/9/9 187/10/9 190/11/9 192/12/9 
f 191/9/6 189/10/6 186/11/6 185/12/6 
f 193/9/1 194/10/1 195/11/1 196/12/1 
f 194/9/2 197/10/2 198/11/2 195/12/2 
f 197/9/3 199/10/3 200/11/3 198/12/3 
f 199/9/4 193/10/4 196/11/4 200/12/4 
f 196/9/9 195/10/9 198/11/9 200/12/9 
f 199/9/6 197/10/6 194/11/6 193/12/6 
f 201/9/35 202/10/35 203/11/35 204/12/35 
f 205/9/36 206/10/36 202/11/36 201/12/36 
f 207/9/37 208/10/37 209/11/37 210/12/37 
f 211/9/38 212/10/38 213/11/38 214/12/38 
f 204/9/39 203/10/39 215/11/39 216/12/39 
f 216/9/40 215/10/40 217/11/40 218/12/40 
f 218/9/41 217/10/41 219/11/41 220/12/41 
f 220/9/42 219/10/42 221/11/42 222/12/42 
f 222/9/43 221/10/43 223/11/43 224/12/43 
f 224/9/44 223/10/44 225/11/44 226/12/44 
f 226/9/45 225/10/45 227/11/45 228/12/45 
f 228/9/46 227/10/46 229/11/46 230/12/46 
f 230/9/47 229/10/47 231/11/47 232/12/47 
f 232/9/48 231/10/48 233/11/48 234/12/48 
f 234/9/49 233/10/49 235/11/49 236/12/49 
f 236/9/50 235/10/50 237/11/50 238/12/50 
f 238/9/51 237/10/51 239/11/51 240/12/51 
f 240/9/52 239/10/52 213/11/52 212/12/52 
f 209/9/53 208/10/53 241/11/53 242/12/53 
f 242/9/54 241/10/54 243/11/54 244/12/54 
f 244/9/55 243/10/55 245/11/55 246/12/55 
f 246/9/56 245/10/56 247/11/56 248/12/56 
f 248/9/57 247/10/57 249/11/57 250/12/57 
f 250/9/58 249/10/58 251/11/58 252/12/58 
f 252/9/59 251/10/59 253/11/59 254/12/59 
f 254/9/60 253/10/60 255/11/60 256/12/60 
f 256/9/61 255/10/61 257/11/61 258/12/61 
f 258/9/62 257/10/62 259/11/62 260/12/62 
f 260/9/63 259/10/63 261/11/63 262/12/63 
f 262/9/64 261/10/64 263/11/64 264/12/64 
f 264/9/65 263/10/65 265/11/65 266/12/65 
f 266/9/66 265/10/66 206/11/66 205/12/66 
f 267/9/67 268/10/67 269/11/67 270/12/67 
f 271/9/68 267/10/68 270/11/68 272/12/68 
f 268/9/69 273/10/69 274/11/69 269/12/69 
f 275/9/70 271/10/70 272/11/70 276/12/70 
f 273/9/71 277/10/71 278/11/71 274/12/71 
f 279/9/72 275/10/72 276/11/72 280/12/72 
f 277/9/73 281/10/73 282/11/73 278/12/73 
f 283/9/74 279/10/74 280/11/74 284/12/74 
f 281/9/75 285/10/75 286/11/75 282/12/75 
f 287/9/76 283/10/76 284/11/76 288/12/76 
f 285/9/77 289/10/77 290/11/77 286/12/77 
f 291/9/78 287/10/78 288/11/78 292/12/78 
f 289/9/79 293/10/79 294/11/79 290/12/79 
f 295/9/80 291/10/80 292/11/80 296/12/80 
f 293/9/81 297/10/81 298/11/81 294/12/81 
f 299/9/82 295/10/82 296/11/82 300/12/82 
f 297/9/83 301/10/83 302/11/83 298/12/83 
f 303/9/84 299/10/84 300/11/84 304/12/84 
f 301/9/85 305/10/85 306/11/85 302/12/85 
f 307/9/86 303/10/86 304/11/86 308/12/86 
f 305/9/87 309/10/87 310/11/87 306/12/87 
f 311/9/88 307/10/88 308/11/88 312/12/88 
f 309/9/89 313/10/89 314/11/89 310/12/89 
f 315/9/90 311/10/90 312/11/90 316/12/90 
f 313/9/91 317/10/91 318/11/91 314/12/91 
f 319/9/92 315/10/92 316/11/92 320/12/92 
f 317/9/93 321/10/93 322/11/93 318/12/93 
f 323/9/94 319/10/94 320/11/94 324/12/94 
f 321/9/95 211/10/95 214/11/95 322/12/95 
f 210/9/96 323/10/96 324/11/96 207/12/96 
f 323/13/97 210/14/97 209/15/97 319/16/97 
f 315/17/98 319/16/98 209/15/98 311/18/98 
f 209/15/99 242/19/99 244/20/99 248/21/99 
f 244/20/100 246/22/100 248/21/100 
f 248/21/101 250/23/101 252/24/101 256/25/101 
f 252/24/102 254/26/102 256/25/102 
f 209/15/103 248/21/103 256/25/103 311/18/103 
f 307/27/104 311/18/104 256/25/104 303/28/104 
f 299/29/105 303/28/105 256/25/105 295/30/105 
f 291/31/106 295/30/106 256/25/106 287/32/106 
f 256/25/107 258/33/107 260/34/107 264/35/107 
f 260/34/108 262/36/108 264/35/108 
f 264/35/109 266/37/109 205/38/109 204/39/109 
f 205/38/110 201/40/110 204/39/110 
f 256/25/111 264/35/111 204/39/111 275/41/111 
f 204/39/112 216/42/112 218/43/112 222/44/112 
f 218/43/113 220/45/113 222/44/113 
f 222/44/114 224/46/114 226/47/114 230/48/114 
f 226/47/115 228/49/115 230/48/115 
f 204/39/116 222/44/116 230/48/116 289/50/116 
f 230/48/117 232/51/117 234/52/117 238/53/117 
f 234/52/118 236/54/118 238/53/118 
f 238/53/119 240/55/119 212/56/119 321/57/119 
f 212/56/120 211/58/120 321/57/120 
f 238/53/121 321/57/121 317/59/121 230/48/121 
f 230/48/122 317/59/122 313/60/122 309/61/122 
f 230/48/123 309/61/123 305/62/123 301/63/123 
f 230/48/124 301/63/124 297/64/124 293/65/124 
f 230/48/125 293/65/125 289/50/125 
f 204/39/126 289/50/126 285/66/126 281/67/126 
f 204/39/127 281/67/127 277/68/127 273/69/127 
f 204/39/128 273/69/128 268/70/128 267/71/128 
f 204/39/129 267/71/129 271/72/129 275/41/129 
f 256/25/130 275/41/130 279/73/130 283/74/130 
f 256/25/131 283/74/131 287/32/131 
f 322/33/132 214/34/132 213/36/132 318/25/132 
f 314/26/133 318/25/133 213/36/133 310/24/133 
f 213/36/134 239/35/134 237/37/134 233/40/134 
f 237/37/135 235/38/135 233/40/135 
f 233/40/136 231/39/136 229/42/136 225/45/136 
f 229/42/137 227/43/137 225/45/137 
f 213/36/138 233/40/138 225/45/138 310/24/138 
f 306/23/139 310/24/139 225/45/139 302/21/139 
f 298/22/140 302/21/140 225/45/140 294/20/140 
f 290/19/141 294/20/141 225/45/141 286/15/141 
f 282/14/142 286/15/142 225/45/142 278/13/142 
f 274/16/143 278/13/143 225/45/143 206/54/143 
f 225/45/144 223/44/144 221/46/144 217/49/144 
f 221/46/145 219/47/145 217/49/145 
f 217/49/146 215/48/146 203/51/146 206/54/146 
f 203/51/147 202/52/147 206/54/147 
f 225/45/148 217/49/148 206/54/148 
f 269/17/149 274/16/149 206/54/149 270/18/149 
f 272/27/150 270/18/150 206/54/150 276/28/150 
f 280/29/151 276/28/151 206/54/151 284/30/151 
f 288/31/152 284/30/152 206/54/152 292/32/152 
f 206/54/153 265/53/153 263/55/153 259/58/153 
f 263/55/154 261/56/154 259/58/154 
f 259/58/155 257/57/155 255/59/155 251/61/155 
f 255/59/156 253/60/156 251/61/156 
f 206/54/157 259/58/157 251/61/157 292/32/157 
f 251/61/158 249/62/158 247/63/158 243/65/158 
f 247/63/159 245/64/159 243/65/159 
f 243/65/160 241/50/160 208/66/160 324/68/160 
f 208/66/161 207/67/161 324/68/161 
f 243/65/162 324/68/162 320/69/162 251/61/162 
f 251/61/163 320/69/163 316/70/163 312/71/163 
f 251/61/164 312/71/164 308/72/164 304/41/164 
f 251/61/165 304/41/165 300/73/165 296/74/165 
f 251/61/166 296/74/166 292/32/166 
f 325/9/25 326/10/25 327/11/25 328/12/25 
f 326/9/167 329/10/167 330/11/167 327/12/167 
f 329/9/3 331/10/3 332/11/3 330/12/3 
f 331/9/4 325/10/4 328/11/4 332/12/4 
f 328/9/9 327/10/9 330/11/9 332/12/9 
f 331/9/6 329/10/6 326/11/6 325/12/6 
f 333/9/168 334/10/168 335/11/168 336/12/168 
f 337/9/169 338/10/169 334/11/169 333/12/169 
f 339/9/38 340/10/38 341/11/38 342/12/38 
f 343/9/37 344/10/37 345/11/37 346/12/37 
f 336/9/170 335/10/170 347/11/170 348/12/170 
f 348/9/65 347/10/65 349/11/65 350/12/65 
f 350/9/64 349/10/64 351/11/64 352/12/64 
f 352/9/171 351/10/171 353/11/171 354/12/171 
f 354/9/172 353/10/172 355/11/172 356/12/172 
f 356/9/173 355/10/173 357/11/173 358/12/173 
f 358/9/174 357/10/174 359/11/174 360/12/174 
f 360/9/175 359/10/175 361/11/175 362/12/175 
f 362/9/58 361/10/58 363/11/58 364/12/58 
f 364/9/57 363/10/57 365/11/57 366/12/57 
f 366/9/56 365/10/56 367/11/56 368/12/56 
f 368/9/55 367/10/55 369/11/55 370/12/55 
f 370/9/54 369/10/54 371/11/54 372/12/54 
f 372/9/53 371/10/53 345/11/53 344/12/53 
f 341/9/52 340/10/52 373/11/52 374/12/52 
f 374/9/51 373/10/51 375/11/51 376/12/51 
f 376/9/176 375/10/176 377/11/176 378/12/176 
f 378/9/177 377/10/177 379/11/177 380/12/177 
f 380/9/178 379/10/178 381/11/178 382/12/178 
f 382/9/179 381/10/179 383/11/179 384/12/179 
f 384/9/180 383/10/180 385/11/180 386/12/180 
f 386/9/181 385/10/181 387/11/181 388/12/181 
f 388/9/44 387/10/44 389/11/44 390/12/44 
f 390/9/43 389/10/43 391/11/43 392/12/43 
f 392/9/42 391/10/42 393/11/42 394/12/42 
f 394/9/182 393/10/182 395/11/182 396/12/182 
f 396/9/183 395/10/183 397/11/183 398/12/183 
f 398/9/184 397/10/184 338/11/184 337/12/184 
f 399/9/185 400/10/185 401/11/185 402/12/185 
f 403/9/186 399/10/186 402/11/186 404/12/186 
f 400/9/187 405/10/187 406/11/187 401/12/187 
f 407/9/188 403/10/188 404/11/188 408/12/188 
f 405/9/189 409/10/189 410/11/189 406/12/189 
f 411/9/190 407/10/190 408/11/190 412/12/190 
f 409/9/191 413/10/191 414/11/191 410/12/191 
f 415/9/192 411/10/192 412/11/192 416/12/192 
f 413/9/193 417/10/193 418/11/193 414/12/193 
f 419/9/75 415/10/75 416/11/75 420/12/75 
f 417/9/78 421/10/78 422/11/78 418/12/78 
f 423/9/77 419/10/77 420/11/77 424/12/77 
f 421/9/80 425/10/80 426/11/80 422/12/80 
f 427/9/194 423/10/194 424/11/194 428/12/194 
f 425/9/82 429/10/82 430/11/82 426/12/82 
f 431/9/81 427/10/81 428/11/81 432/12/81 
f 429/9/195 433/10/195 434/11/195 430/12/195 
f 435/9/196 431/10/196 432/11/196 436/12/196 
f 433/9/197 437/10/197 438/11/197 434/12/197 
f 439/9/198 435/10/198 436/11/198 440/12/198 
f 437/9/88 441/10/88 442/11/88 438/12/88 
f 443/9/199 439/10/199 440/11/199 444/12/199 
f 441/9/90 445/10/90 446/11/90 442/12/90 
f 447/9/200 443/10/200 444/11/200 448/12/200 
f 445/9/92 449/10/92 450/11/92 446/12/92 
f 451/9/91 447/10/91 448/11/91 452/12/91 
f 449/9/201 453/10/201 454/11/201 450/12/201 
f 455/9/93 451/10/93 452/11/93 456/12/93 
f 453/9/202 343/10/202 346/11/202 454/12/202 
f 342/9/95 455/10/95 456/11/95 339/12/95 
f 455/13/203 342/14/203 341/15/203 451/16/203 
f 447/17/204 451/16/204 341/15/204 443/18/204 
f 341/15/205 374/19/205 376/20/205 380/21/205 
f 376/20/206 378/22/206 380/21/206 
f 380/21/207 382/23/207 384/24/207 388/25/207 
f 384/24/208 386/26/208 388/25/208 
f 341/15/209 380/21/209 388/25/209 443/18/209 
f 439/27/210 443/18/210 388/25/210 435/28/210 
f 431/29/211 435/28/211 388/25/211 427/30/211 
f 423/31/212 427/30/212 388/25/212 419/32/212 
f 388/25/213 390/33/213 392/34/213 396/35/213 
f 392/34/214 394/36/214 396/35/214 
f 396/35/215 398/37/215 337/38/215 336/39/215 
f 337/38/216 333/40/216 336/39/216 
f 388/25/217 396/35/217 336/39/217 407/41/217 
f 336/39/218 348/42/218 350/43/218 354/44/218 
f 350/43/219 352/45/219 354/44/219 
f 354/44/220 356/46/220 358/47/220 362/48/220 
f 358/47/221 360/49/221 362/48/221 
f 336/39/222 354/44/222 362/48/222 421/50/222 
f 362/48/223 364/51/223 366/52/223 370/53/223 
f 366/52/224 368/54/224 370/53/224 
f 370/53/225 372/55/225 344/56/225 453/57/225 
f 344/56/226 343/58/226 453/57/226 
f 370/53/227 453/57/227 449/59/227 362/48/227 
f 362/48/228 449/59/228 445/60/228 441/61/228 
f 362/48/229 441/61/229 437/62/229 433/63/229 
f 362/48/230 433/63/230 429/64/230 425/65/230 
f 362/48/231 425/65/231 421/50/231 
f 336/39/232 421/50/232 417/66/232 413/67/232 
f 336/39/233 413/67/233 409/68/233 405/69/233 
f 336/39/234 405/69/234 400/70/234 399/71/234 
f 336/39/235 399/71/235 403/72/235 407/41/235 
f 388/25/236 407/41/236 411/73/236 415/74/236 
f 388/25/237 415/74/237 419/32/237 
f 454/33/238 346/34/238 345/36/238 450/25/238 
f 446/26/239 450/25/239 345/36/239 442/24/239 
f 345/36/240 371/35/240 369/37/240 365/40/240 
f 369/37/241 367/38/241 365/40/241 
f 365/40/242 363/39/242 361/42/242 357/45/242 
f 361/42/243 359/43/243 357/45/243 
f 345/36/244 365/40/244 357/45/244 442/24/244 
f 438/23/245 442/24/245 357/45/245 434/21/245 
f 430/22/246 434/21/246 357/45/246 426/20/246 
f 422/19/247 426/20/247 357/45/247 418/15/247 
f 414/14/248 418/15/248 357/45/248 410/13/248 
f 406/16/249 410/13/249 357/45/249 338/54/249 
f 357/45/250 355/44/250 353/46/250 349/49/250 
f 353/46/251 351/47/251 349/49/251 
f 349/49/252 347/48/252 335/51/252 338/54/252 
f 335/51/253 334/52/253 338/54/253 
f 357/45/254 349/49/254 338/54/254 
f 401/17/255 406/16/255 338/54/255 402/18/255 
f 404/27/256 402/18/256 338/54/256 408/28/256 
f 412/29/257 408/28/257 338/54/257 416/30/257 
f 420/31/258 416/30/258 338/54/258 424/32/258 
f 338/54/259 397/53/259 395/55/259 391/58/259 
f 395/55/260 393/56/260 391/58/260 
f 391/58/261 389/57/261 387/59/261 383/61/261 
f 387/59/262 385/60/262 383/61/262 
f 338/54/263 391/58/263 383/61/263 424/32/263 
f 383/61/264 381/62/264 379/63/264 375/65/264 
f 379/63/265 377/64/265 375/65/265 
f 375/65/266 373/50/266 340/66/266 456/68/266 
f 340/66/267 339/67/267 456/68/267 
f 375/65/268 456/68/268 452/69/268 383/61/268 
f 383/61/269 452/69/269 448/70/269 444/71/269 
f 383/61/270 444/71/270 440/72/270 436/41/270 
f 383/61/271 436/41/271 432/73/271 428/74/271 
f 383/61/272 428/74/272 424/32/272 
f 457/75/8 458/76/8 459/77/8 460/78/8 
f 458/75/1 461/76/1 462/77/1 459/78/1 
f 461/75/2 463/76/2 464/77/2 462/78/2 
f 463/75/3 457/76/3 460/77/3 464/78/3 
f 460/75/12 459/76/12 462/77/12 464/78/12 
f 463/75/6 461/76/6 458/77/6 457/78/6 
f 465/75/8 466/76/8 467/77/8 468/78/8 
f 466/75/1 469/76/1 470/77/1 467/78/1 
f 469/75/2 471/76/2 472/77/2 470/78/2 
f 471/75/3 465/76/3 468/77/3 472/78/3 
f 468/75/9 467/76/9 470/77/9 472/78/9 
f 471/75/6 469/76/6 466/77/6 465/78/6 
f 473/79/1 474/80/1 475/81/1 476/82/1 
f 474/79/2 477/80/2 478/81/2 475/82/2 
f 477/79/3 479/80/3 480/81/3 478/82/3 
f 479/79/8 473/80/8 476/81/8 480/82/8 
f 476/79/9 475/80/9 478/81/9 480/82/9 
f 479/79/6 477/80/6 474/81/6 473/82/6 
f 481/79/273 482/80/273 483/81/273 484/82/273 
f 482/79/274 485/80/274 486/81/274 483/82/274 
f 485/79/275 487/80/275 488/81/275 486/82/275 
f 487/79/276 481/80/276 484/81/276 488/82/276 
f 484/79/9 483/80/9 486/81/9 488/82/9 
f 487/79/6 485/80/6 482/81/6 481/82/6 
f 489/79/273 490/80/273 491/81/273 492/82/273 
f 490/79/274 493/80/274 494/81/274 491/82/274 
f 493/79/275 495/80/275 496/81/275 494/82/275 
f 495/79/276 489/80/276 492/81/276 496/82/276 
f 492/79/9 491/80/9 494/81/9 496/82/9 
f 495/79/6 493/80/6 490/81/6 489/82/6 
f 497/79/273 498/80/273 499/81/273 500/82/273 
f 498/79/277 501/80/277 502/81/277 499/82/277 
f 501/79/275 503/80/275 504/81/275 502/82/275 
f 503/79/276 497/80/276 500/81/276 504/82/276 
f 500/79/9 499/80/9 502/81/9 504/82/9 
f 503/79/6 501/80/6 498/81/6 497/82/6 
f 505/79/273 506/80/273 507/81/273 508/82/273 
f 506/79/274 509/80/274 510/81/274 507/82/274 
f 509/79/275 511/80/275 512/81/275 510/82/275 
f 511/79/276 505/80/276 508/81/276 512/82/276 
f 508/79/9 507/80/9 510/81/9 512/82/9 
f 511/79/6 509/80/6 506/81/6 505/82/6 
f 513/79/273 514/80/273 515/81/273 516/82/273 
f 514/79/274 517/80/274 518/81/274 515/82/274 
f 517/79/275 519/80/275 520/81/275 518/82/275 
f 519/79/276 513/80/276 516/81/276 520/82/276 
f 516/79/9 515/80/9 518/81/9 520/82/9 
f 519/79/6 517/80/6 514/81/6 513/82/6 
f 521/79/1 522/80/1 523/81/1 524/82/1 
f 522/79/2 525/80/2 526/81/2 523/82/2 
f 525/79/3 527/80/3 528/81/3 526/82/3 
f 527/79/4 521/80/4 524/81/4 528/82/4 
f 524/79/9 523/80/9 526/81/9 528/82/9 
f 527/79/6 525/80/6 522/81/6 521/82/6 
f 529/79/273 530/80/273 531/81/273 532/82/273 
f 530/79/274 533/80/274 534/81/274 531/82/274 
f 533/79/275 535/80/275 536/81/275 534/82/275 
f 535/79/276 529/80/276 532/81/276 536/82/276 
f 532/79/9 531/80/9 534/81/9 536/82/9 
f 535/79/6 533/80/6 530/81/6 529/82/6 
f 537/79/273 538/80/273 539/81/273 540/82/273 
f 538/79/274 541/80/274 542/81/274 539/82/274 
f 541/79/275 543/80/275 544/81/275 542/82/275 
f 543/79/276 537/80/276 540/81/276 544/82/276 
f 540/79/9 539/80/9 542/81/9 544/82/9 
f 543/79/6 541/80/6 538/81/6 537/82/6 
f 545/79/278 546/80/278 547/81/278 548/82/278 
f 546/79/274 549/80/274 550/81/274 547/82/274 
f 549/79/275 551/80/275 552/81/275 550/82/275 
f 551/79/276 545/80/276 548/81/276 552/82/276 
f 548/79/9 547/80/9 550/81/9 552/82/9 
f 551/79/6 549/80/6 546/81/6 545/82/6 
f 553/79/273 554/80/273 555/81/273 556/82/273 
f 554/79/274 557/80/274 558/81/274 555/82/274 
f 557/79/275 559/80/275 560/81/275 558/82/275 
f 559/79/276 553/80/276 556/81/276 560/82/276 
f 556/79/9 555/80/9 558/81/9 560/82/9 
f 559/79/6 557/80/6 554/81/6 553/82/6 
f 561/79/273 562/80/273 563/81/273 564/82/273 
f 562/79/274 565/80/274 566/81/274 563/82/274 
f 565/79/275 567/80/275 568/81/275 566/82/275 
f 567/79/276 561/80/276 564/81/276 568/82/276 
f 564/79/9 563/80/9 566/81/9 568/82/9 
f 567/79/6 565/80/6 562/81/6 561/82/6 
f 569/83/8 570/84/8 470/85/8 571/86/8 
s 1
f 572/87/6 570/88/6 569/89/6 573/90/6 
s off
f 571/86/12 470/85/12 459/91/12 574/92/12 
f 575/93/2 576/94/2 574/92/2 459/91/2 
s 1
f 576/95/6 575/96/6 577/97/6 578/98/6 
f 579/99/6 580/100/6 581/101/6 582/102/6 
f 579/99/6 582/102/6 583/103/6 584/104/11 
f 579/99/6 584/104/11 585/105/11 586/106/11 
f 579/99/6 586/106/11 587/107/6 588/108/11 
f 579/99/6 588/108/11 589/109/11 590/110/6 
f 579/99/6 590/110/6 591/111/11 592/112/6 
f 579/99/6 592/112/6 593/113/11 594/114/6 
f 579/99/6 594/114/6 595/115/6 596/116/6 
f 597/117/6 579/99/6 596/116/6 598/118/6 
f 597/117/6 598/118/6 599/119/6 
f 600/120/6 597/117/6 599/119/6 601/121/6 
f 599/119/6 595/115/6 594/114/6 601/121/6 
f 600/120/6 601/121/6 602/122/11 603/123/11 
f 602/122/11 593/113/11 592/112/6 603/123/11 
f 600/120/6 603/123/11 604/124/11 605/125/6 
f 604/124/11 591/111/11 590/110/6 605/125/6 
f 600/120/6 605/125/6 606/126/11 607/127/11 
f 606/126/11 589/109/11 588/108/11 607/127/11 
f 600/120/6 607/127/11 608/128/6 609/129/11 
f 608/128/6 587/107/6 586/106/11 609/129/11 
f 600/120/6 609/129/11 610/130/6 611/131/11 
f 610/130/6 585/105/11 584/104/11 611/131/11 
f 600/120/6 611/131/11 612/132/6 613/133/6 
f 612/132/6 583/103/6 582/102/6 613/133/6 
f 600/120/6 613/133/6 614/134/6 581/101/6 
f 600/120/6 581/101/6 580/100/6 
f 597/135/6 600/136/6 578/137/6 577/138/6 
f 601/139/6 594/140/6 593/141/11 602/142/11 
f 572/143/6 573/144/6 580/145/6 579/146/6 
f 596/147/6 595/148/6 599/149/6 598/150/6 
f 603/151/11 592/152/6 591/153/11 604/154/11 
f 607/155/11 588/156/11 587/157/6 608/158/6 
f 611/159/11 584/160/11 583/161/6 612/162/6 
f 609/163/11 586/164/11 585/165/11 610/166/6 
f 605/167/6 590/168/6 589/169/11 606/170/11 
f 613/171/6 582/172/6 581/173/6 614/174/6 
s off
f 470/175/1 570/88/1 572/87/1 579/99/1 
f 470/175/1 579/99/1 597/117/1 577/97/1 
f 470/175/1 577/97/1 575/96/1 459/176/1 
f 573/90/3 569/89/3 571/177/3 580/100/3 
f 600/120/3 580/100/3 571/177/3 578/98/3 
f 576/95/3 578/98/3 571/177/3 574/178/3 
# 515 polygons - 42 triangles

