# 3ds Max Wavefront OBJ Exporter v0.97b - (c)2007 guruware
# File Created: 15.03.2017 10:33:27

mtllib SPW_Natures_Tree_Dead_01.mtl

#
# object SPW_Natures_Tree_Dead_01
#

v  0.0020 -0.0062 -26.6381
v  -2.4664 39.3639 -19.6465
v  14.2221 39.3639 -10.0113
v  22.7454 -0.0062 -13.5071
v  14.2221 39.3639 9.2589
v  22.7454 -0.0062 12.7547
v  -2.4664 39.3639 18.8941
v  0.0020 -0.0062 25.8857
v  -19.1550 39.3639 9.2589
v  -22.7415 -0.0062 12.7547
v  -6.1102 77.7037 17.6667
v  -21.7358 77.7037 8.6453
v  -19.1550 39.3639 -10.0113
v  -22.7415 -0.0062 -13.5071
v  -21.7358 77.7037 -9.3976
v  -13.7824 120.4888 7.6732
v  -13.7824 120.4888 -8.4256
v  9.5154 77.7037 -9.3976
v  9.5154 77.7037 8.6453
v  -6.1102 77.7037 -18.4191
v  0.1689 120.4888 -16.4750
v  -5.7255 163.2738 -7.5326
v  6.6698 163.2738 -14.6890
v  14.1203 120.4888 7.6732
v  0.1689 120.4888 15.7227
v  14.1203 120.4888 -8.4256
v  -5.7255 163.2738 6.7802
v  -7.0317 205.9477 5.6095
v  -7.0317 205.9477 -6.3619
v  6.6698 163.2738 13.9367
v  19.0651 163.2738 -7.5326
v  19.0651 163.2738 6.7802
v  13.7034 205.9477 -6.3619
v  3.3359 205.9477 -12.3476
v  4.4560 249.8912 -20.0735
v  11.5654 252.2696 -15.2273
v  13.7034 205.9477 5.6095
v  3.3359 205.9477 11.5953
v  -3.7736 251.3553 -16.9405
v  -4.8938 255.1977 -8.9614
v  -0.8936 311.2755 -38.0296
v  -0.3623 309.4529 -41.8145
v  2.2156 257.5761 -4.1152
v  10.4452 256.1120 -7.2482
v  6.9138 309.8866 -41.0018
v  3.5414 308.7584 -43.3006
v  2.4787 312.4037 -35.7308
v  6.3824 311.7093 -37.2169
v  -4.8905 138.5692 -6.7077
v  -39.0807 163.0689 -5.7533
v  -36.9554 167.4855 -3.0203
v  -2.4391 143.6346 -3.5181
v  -36.9554 167.4855 2.2680
v  -2.4391 143.6346 2.7657
v  -39.0807 163.0689 5.0009
v  -4.8905 138.5692 5.9553
v  -41.2786 158.5013 2.3583
v  -7.3570 133.3977 2.8153
v  -43.6391 175.5601 -2.8819
v  -43.6391 175.5601 2.1295
v  -41.2786 158.5013 -3.1107
v  -7.3570 133.3977 -3.5677
v  -47.0705 172.8428 -5.4146
v  -54.2478 193.4228 -5.0449
v  -50.5759 195.1154 -2.7105
v  -50.5387 170.0940 2.1569
v  -50.5387 170.0940 -2.9093
v  -47.0705 172.8428 4.6622
v  -79.8880 210.0295 -2.7222
v  -78.4742 211.6930 -1.7866
v  -57.9197 191.7302 -2.7105
v  -54.2478 193.4228 4.2925
v  -57.9197 191.7302 1.9582
v  -50.5759 195.1154 1.9582
v  -80.9366 208.4318 -1.3118
v  -80.5715 208.4977 1.0342
v  -79.1577 210.1613 1.9698
v  -78.1091 211.7590 0.5594
v  -3.1069 83.8932 5.9553
v  31.0833 108.3929 5.0009
v  28.9580 112.8095 2.2680
v  -5.5583 88.9586 2.7657
v  28.9580 112.8095 -3.0203
v  -5.5583 88.9586 -3.5181
v  31.0833 108.3929 -5.7533
v  -3.1069 83.8932 -6.7077
v  33.2812 103.8253 -3.1107
v  -0.6404 78.7216 -3.5677
v  39.2192 120.8370 2.1295
v  39.2192 120.8370 -2.8819
v  33.2812 103.8253 2.3583
v  -0.6404 78.7216 2.8153
v  41.9934 118.1668 4.6622
v  52.2699 129.4859 4.2925
v  48.5980 131.1785 1.9582
v  44.8996 115.4180 -2.9093
v  44.8996 115.4180 2.1569
v  41.9934 118.1668 -5.4146
v  59.3884 155.3535 1.9698
v  57.9747 157.0170 1.0343
v  55.9418 127.7933 1.9582
v  52.2699 129.4859 -5.0449
v  55.9418 127.7933 -2.7105
v  48.5980 131.1785 -2.7105
v  60.4370 153.7558 0.5594
v  60.0719 153.8217 -1.7866
v  58.6582 155.4853 -2.7222
v  57.6096 157.0830 -1.3118
v  7.8273 213.8460 -6.2378
v  7.1586 231.0104 -30.1913
v  5.2439 234.1048 -28.7024
v  5.5927 217.3949 -4.5203
v  1.5390 234.1048 -28.7024
v  1.1902 217.3949 -4.5203
v  -0.3757 231.0104 -30.1913
v  -1.0444 213.8460 -6.2378
v  1.4757 227.8104 -31.7311
v  1.1555 210.2228 -7.9658
v  5.1469 239.7288 -35.8913
v  1.6360 239.7288 -35.8913
v  5.3072 227.8104 -31.7311
v  5.6274 210.2228 -7.9658
v  6.9214 237.8581 -37.8349
v  6.6624 245.7882 -45.0346
v  5.0269 246.9740 -42.4621
v  1.6168 235.9322 -39.8710
v  5.1661 235.9322 -39.8710
v  -0.1384 237.8580 -37.8349
v  5.0351 263.9109 -50.0218
v  4.3796 265.0764 -49.0314
v  5.0269 244.6024 -47.6071
v  0.1206 245.7882 -45.0346
v  1.7560 244.6024 -47.6071
v  1.7560 246.9740 -42.4621
v  4.0469 262.7916 -50.7565
v  2.4033 262.8378 -50.5007
v  1.7479 264.0033 -49.5102
v  2.7360 265.1226 -48.7756
v  6.1949 215.4756 0.5777
v  37.5140 230.4536 4.0131
v  36.6539 232.2693 3.1014
v  5.1211 217.7445 -0.8510
v  36.6539 232.2693 0.7326
v  5.1211 217.7445 -3.6657
v  37.5140 230.4536 -0.8040
v  6.1949 215.4756 -5.0944
v  38.3920 228.5925 -0.0103
v  7.1797 213.1591 -3.6879
v  42.3793 235.2233 6.8203
v  42.3793 235.2233 4.5755
v  38.3920 228.5925 2.4393
v  7.1797 213.1591 -0.8288
v  43.3636 233.9949 7.8021
v  50.5389 240.2577 10.5515
v  48.9719 240.9046 9.5058
v  44.4471 232.7364 4.2115
v  44.4471 232.7364 6.4807
v  43.3636 233.9949 3.2884
v  62.9194 244.3192 9.5111
v  62.2560 245.0794 9.0920
v  52.1837 239.6122 9.5058
v  50.5389 240.2577 6.3690
v  52.2205 239.6122 7.4146
v  48.9719 240.9046 7.4146
v  63.4212 243.5814 8.8793
v  63.2644 243.6077 7.8285
v  62.6023 244.3749 7.4094
v  62.0959 245.1084 8.0411
# 168 vertices

vn 0.4916 0.1820 -0.8516
vn 0.9774 0.2116 0.0000
vn 0.4916 0.1820 0.8516
vn -0.4963 0.1215 0.8596
vn -0.4999 -0.0198 0.8659
vn -0.9959 0.0907 0.0000
vn -0.4963 0.1215 -0.8596
vn -0.0000 -1.0000 -0.0000
vn 0.0000 -1.0000 -0.0000
vn -0.9832 0.1828 0.0000
vn 0.9925 0.1218 0.0000
vn -0.9977 -0.0672 -0.0000
vn 0.4986 0.0750 -0.8636
vn 0.4986 0.0750 0.8636
vn -0.4999 -0.0198 -0.8659
vn -0.4968 0.1115 -0.8607
vn 0.4996 -0.0340 0.8656
vn 0.4996 -0.0340 -0.8656
vn -0.4967 0.1120 -0.8606
vn -0.4967 0.1119 0.8606
vn 0.9943 -0.1070 0.0000
vn -0.9995 -0.0306 -0.0000
vn -0.4968 0.1115 0.8607
vn 0.9934 -0.1148 -0.0000
vn -0.9827 0.1851 0.0000
vn 0.4995 -0.0397 0.8654
vn 0.4995 -0.0397 -0.8654
vn 0.5355 -0.1468 -0.8317
vn 0.4981 0.0863 0.8628
vn 0.4981 0.0863 -0.8628
vn -0.5000 0.0085 -0.8660
vn -0.5000 0.0085 0.8660
vn 0.9922 0.1247 0.0000
vn -0.9904 -0.0011 -0.1385
vn -0.4447 -0.1588 -0.8815
vn -0.5345 0.2479 0.8080
vn 0.9969 0.0655 0.0434
vn -0.9972 0.0399 -0.0637
vn 0.4415 0.2600 0.8587
vn -0.0052 0.9007 -0.4345
vn 0.3862 0.4594 0.7999
vn 0.6031 -0.2846 -0.7451
vn -0.3869 -0.3436 -0.8557
vn -0.6038 0.4004 0.6893
vn 0.9897 0.1169 0.0827
vn 0.2716 0.4121 -0.8697
vn 0.5685 0.8227 0.0000
vn 0.2716 0.4121 0.8697
vn -0.2946 -0.3796 0.8770
vn 0.7703 0.6376 0.0000
vn -0.5949 -0.8038 -0.0000
vn -0.2946 -0.3796 -0.8770
vn 0.9001 -0.4356 0.0000
vn 0.9026 -0.4305 0.0000
vn 0.4777 0.1796 -0.8600
vn -0.7813 -0.6241 -0.0000
vn 0.3823 0.3373 -0.8603
vn 0.3823 0.3373 0.8603
vn -0.3992 -0.3004 -0.8663
vn -0.3992 -0.3004 0.8663
vn 0.2384 0.4679 -0.8510
vn -0.4859 -0.1560 -0.8600
vn -0.4859 -0.1560 0.8600
vn 0.9425 0.3343 0.0000
vn -0.9464 -0.3229 -0.0000
vn 0.4777 0.1796 0.8600
vn -0.7862 0.6089 0.1052
vn -0.3578 -0.4301 -0.8289
vn -0.3188 -0.3679 0.8735
vn 0.5140 0.8571 -0.0348
vn -0.5904 -0.8062 0.0383
vn 0.2755 0.5228 0.8067
vn -0.2716 0.4121 0.8697
vn -0.5685 0.8227 -0.0000
vn -0.2716 0.4121 -0.8697
vn 0.2946 -0.3796 -0.8770
vn -0.6162 0.7876 -0.0000
vn 0.5949 -0.8038 0.0000
vn 0.2946 -0.3796 0.8770
vn -0.9001 -0.4356 -0.0000
vn -0.9026 -0.4305 -0.0000
vn -0.3861 0.3715 0.8444
vn 0.7063 -0.7079 0.0000
vn -0.3248 0.4091 0.8527
vn -0.3248 0.4091 -0.8527
vn 0.3589 -0.3566 0.8626
vn 0.3589 -0.3566 -0.8626
vn -0.4365 0.1944 0.8784
vn 0.3987 -0.3383 0.8524
vn 0.3987 -0.3383 -0.8524
vn -0.7407 0.6718 -0.0000
vn 0.7462 -0.6658 -0.0000
vn -0.3861 0.3715 -0.8444
vn 0.7862 0.6089 -0.1052
vn 0.5877 -0.0738 0.8057
vn 0.5161 -0.0510 -0.8550
vn -0.9411 0.3340 0.0521
vn 0.9851 -0.1639 -0.0528
vn -0.5126 0.2117 -0.8321
vn 0.8697 0.4121 0.2716
vn -0.0000 0.8227 0.5685
vn -0.8697 0.4121 0.2716
vn -0.8770 -0.3796 -0.2946
vn 0.0000 0.7876 0.6162
vn 0.0000 -0.8038 -0.5949
vn 0.8770 -0.3796 -0.2946
vn -0.0000 -0.4356 0.9001
vn -0.0000 -0.4305 0.9026
vn 0.8444 0.3715 0.3861
vn 0.0000 -0.7079 -0.7063
vn 0.8527 0.4091 0.3248
vn -0.8527 0.4091 0.3248
vn 0.8626 -0.3566 -0.3589
vn -0.8626 -0.3566 -0.3589
vn 0.8784 0.1944 0.4365
vn 0.8524 -0.3383 -0.3987
vn -0.8524 -0.3383 -0.3987
vn 0.0000 0.6718 0.7407
vn 0.0000 -0.6658 -0.7462
vn -0.8444 0.3715 0.3861
vn -0.1052 0.6089 -0.7862
vn 0.8057 -0.0738 -0.5877
vn -0.8550 -0.0510 -0.5161
vn 0.0521 0.3340 0.9411
vn -0.0528 -0.1639 -0.9851
vn -0.8321 0.2117 0.5126
vn -0.2796 0.3742 0.8842
vn -0.4184 0.9083 0.0000
vn -0.1378 0.5383 -0.8314
vn 0.2821 -0.3456 -0.8950
vn -0.4585 0.8887 -0.0000
vn 0.4432 -0.8964 -0.0000
vn 0.1648 -0.5231 0.8362
vn -0.9039 -0.4278 -0.0000
vn -0.9203 -0.3913 -0.0000
vn -0.5101 0.2083 0.8345
vn 0.5648 -0.8252 -0.0000
vn -0.5917 0.1358 0.7947
vn 0.0867 0.7052 -0.7037
vn -0.0302 -0.6901 0.7231
vn 0.5985 -0.0631 -0.7986
vn -0.1456 0.5934 0.7917
vn 0.2380 -0.6043 0.7604
vn 0.4978 -0.1586 -0.8527
vn -0.6528 0.7575 -0.0000
vn 0.6622 -0.7493 0.0056
vn -0.2224 0.6266 -0.7469
vn 0.7781 0.6198 -0.1026
vn 0.7782 0.6201 -0.0995
vn 0.2483 -0.5671 0.7854
vn 0.2264 -0.4944 -0.8392
vn -0.3025 0.9528 0.0242
vn 0.3364 -0.9415 -0.0207
vn -0.1660 0.6509 -0.7408
# 154 vertex normals

vt 0.3298 0.4775 0.0000
vt 0.3798 0.4775 0.0000
vt 0.3798 0.5275 0.0000
vt 0.3298 0.5275 0.0000
vt 0.3548 0.5275 0.0000
vt 0.3765 0.5150 0.0000
vt 0.3765 0.4900 0.0000
vt 0.3548 0.4775 0.0000
vt 0.3332 0.4900 0.0000
vt 0.3332 0.5150 0.0000
# 10 texture coords

g SPW_Natures_Tree_Dead_01
usemtl SPW_Natures_01
s off
f 1/1/1 2/2/1 3/3/1 4/4/1 
f 4/1/2 3/2/2 5/3/2 6/4/2 
f 6/1/3 5/2/3 7/3/3 8/4/3 
f 8/1/4 7/2/4 9/3/4 10/4/4 
f 9/1/5 7/2/5 11/3/5 12/4/5 
f 10/1/6 9/2/6 13/3/6 14/4/6 
f 14/1/7 13/2/7 2/3/7 1/4/7 
f 1/5/8 4/6/8 6/7/8 8/8/8 
f 1/5/9 8/8/9 10/9/9 14/10/9 
f 15/1/10 12/2/10 16/3/10 17/4/10 
f 5/1/11 3/2/11 18/3/11 19/4/11 
f 13/1/12 9/2/12 12/3/12 15/4/12 
f 3/1/13 2/2/13 20/3/13 18/4/13 
f 7/1/14 5/2/14 19/3/14 11/4/14 
f 2/1/15 13/2/15 15/3/15 20/4/15 
f 21/1/16 17/2/16 22/3/16 23/4/16 
f 11/1/17 19/2/17 24/3/17 25/4/17 
f 18/1/18 20/2/18 21/3/18 26/4/18 
f 20/1/19 15/2/19 17/3/19 21/4/19 
f 12/1/20 11/2/20 25/3/20 16/4/20 
f 19/1/21 18/2/21 26/3/21 24/4/21 
f 22/1/22 27/2/22 28/3/22 29/4/22 
f 16/1/23 25/2/23 30/3/23 27/4/23 
f 24/1/24 26/2/24 31/3/24 32/4/24 
f 17/1/25 16/2/25 27/3/25 22/4/25 
f 25/1/26 24/2/26 32/3/26 30/4/26 
f 26/1/27 21/2/27 23/3/27 31/4/27 
f 33/1/28 34/2/28 35/3/28 36/4/28 
f 30/1/29 32/2/29 37/3/29 38/4/29 
f 31/1/30 23/2/30 34/3/30 33/4/30 
f 23/1/31 22/2/31 29/3/31 34/4/31 
f 27/1/32 30/2/32 38/3/32 28/4/32 
f 32/1/33 31/2/33 33/3/33 37/4/33 
f 39/1/34 40/2/34 41/3/34 42/4/34 
f 34/1/35 29/2/35 39/3/35 35/4/35 
f 28/1/36 38/2/36 43/3/36 40/4/36 
f 37/1/37 33/2/37 36/3/37 44/4/37 
f 29/1/38 28/2/38 40/3/38 39/4/38 
f 38/1/39 37/2/39 44/3/39 43/4/39 
f 45/5/40 46/6/40 42/7/40 41/8/40 
f 45/5/40 41/8/40 47/9/40 48/10/40 
f 43/1/41 44/2/41 48/3/41 47/4/41 
f 36/1/42 35/2/42 46/3/42 45/4/42 
f 35/1/43 39/2/43 42/3/43 46/4/43 
f 40/1/44 43/2/44 47/3/44 41/4/44 
f 44/1/45 36/2/45 45/3/45 48/4/45 
f 49/1/46 50/2/46 51/3/46 52/4/46 
f 52/1/47 51/2/47 53/3/47 54/4/47 
f 54/1/48 53/2/48 55/3/48 56/4/48 
f 56/1/49 55/2/49 57/3/49 58/4/49 
f 53/1/50 51/2/50 59/3/50 60/4/50 
f 58/1/51 57/2/51 61/3/51 62/4/51 
f 62/1/52 61/2/52 50/3/52 49/4/52 
f 49/5/53 52/6/53 54/7/53 56/8/53 
f 49/5/54 56/8/54 58/9/54 62/10/54 
f 59/1/55 63/2/55 64/3/55 65/4/55 
f 61/1/56 57/2/56 66/3/56 67/4/56 
f 51/1/57 50/2/57 63/3/57 59/4/57 
f 55/1/58 53/2/58 60/3/58 68/4/58 
f 50/1/59 61/2/59 67/3/59 63/4/59 
f 57/1/60 55/2/60 68/3/60 66/4/60 
f 65/1/61 64/2/61 69/3/61 70/4/61 
f 63/1/62 67/2/62 71/3/62 64/4/62 
f 66/1/63 68/2/63 72/3/63 73/4/63 
f 60/1/64 59/2/64 65/3/64 74/4/64 
f 67/1/65 66/2/65 73/3/65 71/4/65 
f 68/1/66 60/2/66 74/3/66 72/4/66 
f 70/5/67 69/6/67 75/7/67 76/8/67 
f 70/5/67 76/8/67 77/9/67 78/10/67 
f 64/1/68 71/2/68 75/3/68 69/4/68 
f 73/1/69 72/2/69 77/3/69 76/4/69 
f 74/1/70 65/2/70 70/3/70 78/4/70 
f 71/1/71 73/2/71 76/3/71 75/4/71 
f 72/1/72 74/2/72 78/3/72 77/4/72 
f 79/1/73 80/2/73 81/3/73 82/4/73 
f 82/1/74 81/2/74 83/3/74 84/4/74 
f 84/1/75 83/2/75 85/3/75 86/4/75 
f 86/1/76 85/2/76 87/3/76 88/4/76 
f 83/1/77 81/2/77 89/3/77 90/4/77 
f 88/1/78 87/2/78 91/3/78 92/4/78 
f 92/1/79 91/2/79 80/3/79 79/4/79 
f 79/5/80 82/6/80 84/7/80 86/8/80 
f 79/5/81 86/8/81 88/9/81 92/10/81 
f 89/1/82 93/2/82 94/3/82 95/4/82 
f 91/1/83 87/2/83 96/3/83 97/4/83 
f 81/1/84 80/2/84 93/3/84 89/4/84 
f 85/1/85 83/2/85 90/3/85 98/4/85 
f 80/1/86 91/2/86 97/3/86 93/4/86 
f 87/1/87 85/2/87 98/3/87 96/4/87 
f 95/1/88 94/2/88 99/3/88 100/4/88 
f 93/1/89 97/2/89 101/3/89 94/4/89 
f 96/1/90 98/2/90 102/3/90 103/4/90 
f 90/1/91 89/2/91 95/3/91 104/4/91 
f 97/1/92 96/2/92 103/3/92 101/4/92 
f 98/1/93 90/2/93 104/3/93 102/4/93 
f 100/5/94 99/6/94 105/7/94 106/8/94 
f 100/5/94 106/8/94 107/9/94 108/10/94 
f 94/1/95 101/2/95 105/3/95 99/4/95 
f 103/1/96 102/2/96 107/3/96 106/4/96 
f 104/1/97 95/2/97 100/3/97 108/4/97 
f 101/1/98 103/2/98 106/3/98 105/4/98 
f 102/1/99 104/2/99 108/3/99 107/4/99 
f 109/1/100 110/2/100 111/3/100 112/4/100 
f 112/1/101 111/2/101 113/3/101 114/4/101 
f 114/1/102 113/2/102 115/3/102 116/4/102 
f 116/1/103 115/2/103 117/3/103 118/4/103 
f 113/1/104 111/2/104 119/3/104 120/4/104 
f 118/1/105 117/2/105 121/3/105 122/4/105 
f 122/1/106 121/2/106 110/3/106 109/4/106 
f 109/5/107 112/6/107 114/7/107 116/8/107 
f 109/5/108 116/8/108 118/9/108 122/10/108 
f 119/1/109 123/2/109 124/3/109 125/4/109 
f 121/1/110 117/2/110 126/3/110 127/4/110 
f 111/1/111 110/2/111 123/3/111 119/4/111 
f 115/1/112 113/2/112 120/3/112 128/4/112 
f 110/1/113 121/2/113 127/3/113 123/4/113 
f 117/1/114 115/2/114 128/3/114 126/4/114 
f 125/1/115 124/2/115 129/3/115 130/4/115 
f 123/1/116 127/2/116 131/3/116 124/4/116 
f 126/1/117 128/2/117 132/3/117 133/4/117 
f 120/1/118 119/2/118 125/3/118 134/4/118 
f 127/1/119 126/2/119 133/3/119 131/4/119 
f 128/1/120 120/2/120 134/3/120 132/4/120 
f 130/5/121 129/6/121 135/7/121 136/8/121 
f 130/5/121 136/8/121 137/9/121 138/10/121 
f 124/1/122 131/2/122 135/3/122 129/4/122 
f 133/1/123 132/2/123 137/3/123 136/4/123 
f 134/1/124 125/2/124 130/3/124 138/4/124 
f 131/1/125 133/2/125 136/3/125 135/4/125 
f 132/1/126 134/2/126 138/3/126 137/4/126 
f 139/1/127 140/2/127 141/3/127 142/4/127 
f 142/1/128 141/2/128 143/3/128 144/4/128 
f 144/1/129 143/2/129 145/3/129 146/4/129 
f 146/1/130 145/2/130 147/3/130 148/4/130 
f 143/1/131 141/2/131 149/3/131 150/4/131 
f 148/1/132 147/2/132 151/3/132 152/4/132 
f 152/1/133 151/2/133 140/3/133 139/4/133 
f 139/5/134 142/6/134 144/7/134 146/8/134 
f 139/5/135 146/8/135 148/9/135 152/10/135 
f 149/1/136 153/2/136 154/3/136 155/4/136 
f 151/1/137 147/2/137 156/3/137 157/4/137 
f 141/1/138 140/2/138 153/3/138 149/4/138 
f 145/1/139 143/2/139 150/3/139 158/4/139 
f 140/1/140 151/2/140 157/3/140 153/4/140 
f 147/1/141 145/2/141 158/3/141 156/4/141 
f 155/1/142 154/2/142 159/3/142 160/4/142 
f 153/1/143 157/2/143 161/3/143 154/4/143 
f 156/1/144 158/2/144 162/3/144 163/4/144 
f 150/1/145 149/2/145 155/3/145 164/4/145 
f 157/1/146 156/2/146 163/3/146 161/4/146 
f 158/1/147 150/2/147 164/3/147 162/4/147 
f 160/5/148 159/6/148 165/7/148 166/8/148 
f 160/5/149 166/8/149 167/9/149 168/10/149 
f 154/1/150 161/2/150 165/3/150 159/4/150 
f 163/1/151 162/2/151 167/3/151 166/4/151 
f 164/1/152 155/2/152 160/3/152 168/4/152 
f 161/1/153 163/2/153 166/3/153 165/4/153 
f 162/1/154 164/2/154 168/3/154 167/4/154 
# 158 polygons

