# 3ds Max Wavefront OBJ Exporter v0.97b - (c)2007 guruware
# File Created: 15.03.2017 10:34:06

mtllib SPW_Natures_Tree_Dead_03.mtl

#
# object SPW_Natures_Tree_Dead_03
#

v  -15.3001 53.1442 44.5146
v  -6.4480 74.8175 5.3121
v  1.9577 74.8175 8.1218
v  -14.5433 53.1442 44.7676
v  -2.2452 85.3274 6.7169
v  -14.9217 53.5432 44.6411
v  -34.7724 53.1442 -31.7258
v  -2.3132 74.8175 -8.0277
v  -8.2311 74.8175 -1.4301
v  -35.3052 53.1442 -31.1318
v  -5.2721 85.3274 -4.7289
v  -35.0388 53.5432 -31.4288
v  -14.2818 134.8359 -34.0270
v  1.4044 152.2703 -5.7581
v  -5.1453 152.2703 -2.9418
v  -14.8715 134.8359 -33.7735
v  -1.8704 160.7248 -4.3499
v  -14.5766 135.1568 -33.9003
v  -21.7548 134.8359 29.8084
v  -5.6556 152.2703 1.7726
v  0.1396 152.2703 5.9253
v  -21.2330 134.8359 30.1823
v  -2.7580 160.7248 3.8489
v  -21.4939 135.1568 29.9954
v  -25.7831 210.6367 -6.9529
v  -2.1980 223.5080 -3.2912
v  -3.5233 223.5080 1.8027
v  -25.9024 210.6367 -6.4943
v  -2.8606 229.7496 -0.7442
v  -25.8428 210.8737 -6.7236
v  -11.8365 263.6830 -13.9393
v  0.4516 272.8004 -2.3273
v  -2.3681 272.8004 0.1119
v  -12.0904 263.6830 -13.7197
v  -0.9583 277.2216 -1.1077
v  -11.9634 263.8509 -13.8295
v  -3.3406 263.6830 17.9792
v  -2.0902 272.8004 1.1188
v  1.5815 272.8004 1.7662
v  -3.0100 263.6830 18.0375
v  -0.2543 277.2216 1.4425
v  -3.1753 263.8509 18.0083
v  18.2861 263.6830 0.1679
v  1.4647 272.8004 1.8642
v  1.4647 272.8004 -1.8641
v  18.2861 263.6830 -0.1678
v  1.4647 277.2216 0.0000
v  18.2861 263.8508 0.0000
v  26.7031 210.6368 0.2370
v  2.9559 223.5081 2.6318
v  2.9559 223.5081 -2.6317
v  26.7031 210.6368 -0.2369
v  2.9559 229.7497 0.0000
v  26.7031 210.8737 0.0000
v  36.9013 134.8359 0.3209
v  4.7351 152.2703 3.5648
v  4.7351 152.2703 -3.5647
v  36.9013 134.8359 -0.3209
v  4.7351 160.7248 0.0000
v  36.9013 135.1568 0.0000
v  47.0689 53.1442 0.3990
v  7.0822 74.8175 4.4314
v  7.0822 74.8175 -4.4314
v  47.0689 53.1442 -0.3989
v  7.0822 85.3274 0.0000
v  47.0689 53.5432 0.0000
v  0.0000 -0.0046 -13.2281
v  0.0000 283.4599 -2.3530
v  2.0377 283.4599 -1.1765
v  11.4559 -0.0046 -6.6141
v  2.0377 283.4599 1.1765
v  11.4559 -0.0046 6.6141
v  -0.0000 283.4599 2.3530
v  -0.0000 -0.0046 13.2281
v  -2.0377 283.4599 1.1765
v  -11.4559 -0.0046 6.6141
v  -2.0377 283.4599 -1.1765
v  -11.4559 -0.0046 -6.6141
# 78 vertices

vn 0.1511 -0.8792 -0.4519
vn 0.3170 0.0000 -0.9484
vn 0.7310 0.3860 0.5627
vn -0.3170 0.0000 0.9484
vn -0.9225 0.3860 0.0100
vn 0.3547 -0.8792 0.3182
vn 0.7444 -0.0000 0.6677
vn -0.8068 0.3860 0.4473
vn -0.7444 0.0000 -0.6677
vn 0.3573 0.3860 -0.8505
vn 0.1882 -0.8792 0.4378
vn 0.3950 -0.0000 0.9187
vn -0.9201 0.3860 0.0669
vn -0.3950 0.0000 -0.9187
vn 0.6815 0.3860 -0.6217
vn 0.2776 -0.8792 -0.3873
vn 0.5825 0.0000 -0.8129
vn 0.5327 0.3860 0.7532
vn -0.5825 -0.0000 0.8128
vn -0.8844 0.3860 -0.2623
vn 0.4612 -0.8792 0.1200
vn 0.9678 0.0000 0.2518
vn -0.5117 0.3860 0.7676
vn -0.9678 0.0000 -0.2518
vn -0.0727 0.3860 -0.9196
vn 0.3118 -0.8792 0.3604
vn 0.6542 -0.0000 0.7563
vn -0.8568 0.3860 0.3419
vn -0.6542 0.0000 -0.7563
vn 0.4617 0.3860 -0.7987
vn 0.0827 -0.8792 -0.4693
vn 0.1736 0.0000 -0.9848
vn 0.8060 0.3860 0.4487
vn -0.1737 -0.0000 0.9848
vn -0.9109 0.3860 0.1460
vn -0.4765 -0.8792 -0.0000
vn -1.0000 0.0000 -0.0000
vn 0.3020 0.3860 -0.8717
vn 1.0000 0.0000 -0.0000
vn 0.3020 0.3860 0.8717
vn -0.4765 -0.8792 0.0000
vn -1.0000 0.0000 0.0000
vn 0.4997 0.0332 -0.8655
vn 0.9994 0.0332 0.0000
vn 0.4997 0.0332 0.8655
vn -0.4997 0.0332 0.8655
vn 0.0000 1.0000 0.0000
vn -0.9994 0.0332 0.0000
vn -0.4997 0.0332 -0.8655
vn -0.0000 -1.0000 -0.0000
vn 0.0000 -1.0000 -0.0000
# 51 vertex normals

vt 0.3003 0.4922 0.0000
vt 0.3503 0.4922 0.0000
vt 0.3503 0.5422 0.0000
vt 0.3003 0.5422 0.0000
vt 0.3253 0.5422 0.0000
vt 0.3469 0.5297 0.0000
vt 0.3469 0.5047 0.0000
vt 0.3253 0.4922 0.0000
vt 0.3036 0.5047 0.0000
vt 0.3036 0.5297 0.0000
# 10 texture coords

g SPW_Natures_Tree_Dead_03
usemtl SPW_Natures_01
s off
f 1/1/1 2/2/1 3/3/1 4/4/1 
f 2/1/2 5/2/2 3/3/2 
f 5/1/3 6/2/3 4/3/3 3/4/3 
f 6/1/4 1/2/4 4/3/4 
f 6/1/5 5/2/5 2/3/5 1/4/5 
f 7/1/6 8/2/6 9/3/6 10/4/6 
f 8/1/7 11/2/7 9/3/7 
f 11/1/8 12/2/8 10/3/8 9/4/8 
f 12/1/9 7/2/9 10/3/9 
f 12/1/10 11/2/10 8/3/10 7/4/10 
f 13/1/11 14/2/11 15/3/11 16/4/11 
f 14/1/12 17/2/12 15/3/12 
f 17/1/13 18/2/13 16/3/13 15/4/13 
f 18/1/14 13/2/14 16/3/14 
f 18/1/15 17/2/15 14/3/15 13/4/15 
f 19/1/16 20/2/16 21/3/16 22/4/16 
f 20/1/17 23/2/17 21/3/17 
f 23/1/18 24/2/18 22/3/18 21/4/18 
f 24/1/19 19/2/19 22/3/19 
f 24/1/20 23/2/20 20/3/20 19/4/20 
f 25/1/21 26/2/21 27/3/21 28/4/21 
f 26/1/22 29/2/22 27/3/22 
f 29/1/23 30/2/23 28/3/23 27/4/23 
f 30/1/24 25/2/24 28/3/24 
f 30/1/25 29/2/25 26/3/25 25/4/25 
f 31/1/26 32/2/26 33/3/26 34/4/26 
f 32/1/27 35/2/27 33/3/27 
f 35/1/28 36/2/28 34/3/28 33/4/28 
f 36/1/29 31/2/29 34/3/29 
f 36/1/30 35/2/30 32/3/30 31/4/30 
f 37/1/31 38/2/31 39/3/31 40/4/31 
f 38/1/32 41/2/32 39/3/32 
f 41/1/33 42/2/33 40/3/33 39/4/33 
f 42/1/34 37/2/34 40/3/34 
f 42/1/35 41/2/35 38/3/35 37/4/35 
f 43/1/36 44/2/36 45/3/36 46/4/36 
f 44/1/37 47/2/37 45/3/37 
f 47/1/38 48/2/38 46/3/38 45/4/38 
f 48/1/39 43/2/39 46/3/39 
f 48/1/40 47/2/40 44/3/40 43/4/40 
f 49/1/36 50/2/36 51/3/36 52/4/36 
f 50/1/37 53/2/37 51/3/37 
f 53/1/38 54/2/38 52/3/38 51/4/38 
f 54/1/39 49/2/39 52/3/39 
f 54/1/40 53/2/40 50/3/40 49/4/40 
f 55/1/41 56/2/41 57/3/41 58/4/41 
f 56/1/37 59/2/37 57/3/37 
f 59/1/38 60/2/38 58/3/38 57/4/38 
f 60/1/39 55/2/39 58/3/39 
f 60/1/40 59/2/40 56/3/40 55/4/40 
f 61/1/36 62/2/36 63/3/36 64/4/36 
f 62/1/42 65/2/42 63/3/42 
f 65/1/38 66/2/38 64/3/38 63/4/38 
f 66/1/39 61/2/39 64/3/39 
f 66/1/40 65/2/40 62/3/40 61/4/40 
f 67/1/43 68/2/43 69/3/43 70/4/43 
f 70/1/44 69/2/44 71/3/44 72/4/44 
f 72/1/45 71/2/45 73/3/45 74/4/45 
f 74/1/46 73/2/46 75/3/46 76/4/46 
f 69/5/47 68/6/47 77/7/47 75/8/47 
f 69/5/47 75/8/47 73/9/47 71/10/47 
f 76/1/48 75/2/48 77/3/48 78/4/48 
f 78/1/49 77/2/49 68/3/49 67/4/49 
f 67/5/50 70/6/50 72/7/50 74/8/50 
f 67/5/51 74/8/51 76/9/51 78/10/51 
# 43 polygons - 22 triangles

