# 3ds Max Wavefront OBJ Exporter v0.97b - (c)2007 guruware
# File Created: 15.03.2017 10:32:23

mtllib SPW_Natures_Bush_01.mtl

#
# object SPW_Natures_Bush_01
#

v  5.6131 18.7853 6.5582
v  5.1717 24.7545 10.1957
v  5.3411 24.5315 10.5779
v  5.7922 18.6164 6.9622
v  5.1426 24.7545 10.2086
v  5.1135 24.7545 10.2215
v  5.2830 24.5315 10.6037
v  5.3121 24.5315 10.5908
v  0.2785 6.3118 4.9513
v  0.0444 0.0578 4.5105
v  0.2354 0.0622 4.9413
v  0.4685 6.2575 5.3798
v  2.3922 0.0624 4.0067
v  4.3417 0.0578 2.6048
v  4.5327 0.0622 3.0355
v  2.5831 0.0647 4.4372
v  4.2326 18.4384 8.1567
v  2.3003 18.6164 8.5107
v  4.0539 18.6092 7.7536
v  2.5930 6.2551 4.4594
v  4.5113 6.3118 3.0742
v  3.1448 12.4783 5.7037
v  4.9723 12.5955 4.3700
v  2.7828 6.1987 4.8874
v  3.3305 12.3638 6.1225
v  1.1155 12.4831 6.5824
v  2.1211 18.7853 8.1068
v  0.9295 12.5955 6.1629
v  4.7013 6.2575 3.5026
v  5.1583 12.4831 4.7895
v  -7.4868 23.9250 5.6543
v  -12.1526 31.5273 5.5576
v  -12.6153 31.2433 5.8210
v  -7.9760 23.7098 5.9327
v  -12.1726 31.5273 5.5224
v  -12.1926 31.5273 5.4873
v  -12.6553 31.2433 5.7506
v  -12.6353 31.2433 5.7858
v  -6.1290 8.0387 -1.3102
v  -5.6002 0.0736 -1.6628
v  -6.1217 0.0793 -1.3660
v  -6.6478 7.9695 -1.0149
v  -4.6631 0.0795 1.2482
v  -2.6386 0.0736 3.5404
v  -3.1602 0.0793 3.8373
v  -5.1844 0.0824 1.5449
v  -9.6880 23.4831 4.1083
v  -10.3825 23.7098 1.7046
v  -9.2000 23.7006 3.8305
v  -5.2113 7.9666 1.5602
v  -3.2119 8.0387 3.8150
v  -6.7179 15.8923 2.4178
v  -4.7953 16.0416 4.5640
v  -5.7295 7.8947 1.8552
v  -7.2250 15.7466 2.7064
v  -8.0895 15.8985 -0.0421
v  -9.8933 23.9250 1.4262
v  -7.5815 16.0416 -0.3312
v  -3.7307 7.9695 4.1103
v  -5.3033 15.8985 4.8531
v  0.1459 15.5102 4.0349
v  -1.9328 20.4386 6.2330
v  -2.0079 20.2545 6.5699
v  0.0666 15.3707 4.3910
v  -1.9584 20.4386 6.2273
v  -1.9840 20.4386 6.2216
v  -2.0591 20.2545 6.5585
v  -2.0335 20.2545 6.5642
v  -2.6067 5.2114 0.3494
v  -2.5456 0.0477 -0.0582
v  -2.6303 0.0514 0.3215
v  -2.6908 5.1665 0.7270
v  -0.7397 0.0515 0.7599
v  1.2427 0.0477 0.7862
v  1.1581 0.0514 1.1660
v  -0.8243 0.0534 1.1394
v  -1.5552 15.2237 4.4183
v  -3.0118 15.3707 3.7048
v  -1.4760 15.3647 4.0630
v  -0.8287 5.1646 1.1590
v  1.1249 5.2114 1.1811
v  -1.0732 10.3027 2.2559
v  0.7948 10.3995 2.2676
v  -0.9128 5.1180 1.5363
v  -1.1555 10.2082 2.6251
v  -2.8517 10.3067 1.8430
v  -2.9324 15.5102 3.3487
v  -2.7692 10.3995 1.4732
v  1.0407 5.1665 1.5588
v  0.7123 10.3067 2.6374
v  10.0038 25.1084 -5.4139
v  14.6348 33.0868 -3.8201
v  15.1816 32.7888 -3.9348
v  10.5819 24.8826 -5.5351
v  14.6435 33.0868 -3.7785
v  14.6522 33.0868 -3.7369
v  15.1991 32.7888 -3.8516
v  15.1903 32.7888 -3.8932
v  6.4123 8.4364 1.1095
v  5.7708 0.0772 1.2921
v  6.3871 0.0832 1.1629
v  7.0254 8.3638 0.9809
v  5.7685 0.0834 -1.9173
v  4.4811 0.0772 -4.8573
v  5.0975 0.0832 -4.9866
v  6.3846 0.0864 -2.0465
v  11.7071 24.6447 -3.1627
v  11.6298 24.8826 -0.5382
v  11.1304 24.8730 -3.0418
v  6.4163 8.3606 -2.0532
v  5.1421 8.4364 -4.9478
v  8.1970 16.6784 -2.4266
v  6.9646 16.8351 -5.1880
v  7.0288 8.2852 -2.1816
v  8.7963 16.5255 -2.5523
v  8.7781 16.6849 0.4714
v  11.0517 25.1084 -0.4169
v  8.1778 16.8351 0.5973
v  5.7552 8.3638 -5.0763
v  7.5649 16.6849 -5.3139
v  -2.2396 31.4655 -8.8096
v  -0.0373 41.4639 -14.0797
v  -0.0373 41.0904 -14.7799
v  -2.2396 31.1826 -9.5498
v  0.0000 41.4639 -14.0797
v  0.0373 41.4639 -14.0797
v  0.0373 41.0904 -14.7799
v  0.0000 41.0904 -14.7799
v  2.7148 10.5723 -2.7268
v  2.7561 0.0968 -1.8929
v  2.7561 0.1043 -2.6822
v  2.7148 10.4813 -3.5119
v  0.0000 0.1045 -2.7157
v  -2.7561 0.0968 -1.8929
v  -2.7561 0.1043 -2.6822
v  0.0000 0.1083 -3.5045
v  0.0000 30.8843 -10.3198
v  2.2396 31.1826 -9.5498
v  0.0000 31.1705 -9.5812
v  0.0000 10.4774 -3.5452
v  -2.7148 10.5723 -2.7268
v  0.0000 20.9012 -5.8252
v  -2.5929 21.0975 -5.0239
v  0.0000 10.3829 -4.3294
v  0.0000 20.7095 -6.5926
v  2.5929 20.9092 -5.7926
v  2.2396 31.4655 -8.8096
v  2.5929 21.0975 -5.0239
v  -2.7148 10.4813 -3.5119
v  -2.5929 20.9092 -5.7926
# 150 vertices

vn 0.9256 0.2454 -0.2882
vn 0.1908 0.8823 0.4302
vn -0.9140 0.0056 0.4057
vn 0.0029 -1.0000 0.0065
vn 0.1352 -0.3892 0.9112
vn -0.5847 0.3892 -0.7118
vn -0.5835 0.0773 -0.8084
vn -0.5810 0.2069 -0.7872
vn -0.5832 0.3289 -0.7428
vn 0.2075 -0.0776 0.9752
vn 0.1935 -0.2073 0.9590
vn 0.1591 -0.3293 0.9307
vn -0.8349 0.2454 0.4926
vn -0.9076 0.0438 0.4175
vn -0.9129 0.0160 0.4080
vn 0.9142 0.0056 -0.4051
vn 0.9152 0.0160 -0.4027
vn 0.9187 0.0438 -0.3924
vn 0.5831 -0.3293 0.7427
vn 0.5809 -0.2073 0.7871
vn 0.5835 -0.0776 0.8084
vn -0.1590 0.3289 -0.9309
vn -0.1934 0.2069 -0.9590
vn -0.2074 0.0773 -0.9752
vn -0.1351 0.3892 -0.9112
vn 0.5846 -0.3892 0.7119
vn 0.3792 0.2454 0.8922
vn -0.4090 0.8823 0.2328
vn -0.4949 0.0056 -0.8689
vn -0.0062 -1.0000 0.0035
vn -0.8931 -0.3892 0.2255
vn 0.6499 0.3892 -0.6528
vn 0.7461 0.0773 -0.6614
vn 0.7252 0.2069 -0.6567
vn 0.6808 0.3289 -0.6545
vn -0.9496 -0.0776 0.3038
vn -0.9348 -0.2073 0.2883
vn -0.9102 -0.3293 0.2512
vn -0.5735 0.2454 -0.7816
vn -0.5060 0.0438 -0.8614
vn -0.4971 0.0160 -0.8675
vn 0.4944 0.0056 0.8692
vn 0.4921 0.0160 0.8704
vn 0.4822 0.0438 0.8749
vn -0.6808 -0.3293 0.6543
vn -0.7252 -0.2073 0.6566
vn -0.7461 -0.0776 0.6613
vn 0.9104 0.3289 -0.2512
vn 0.9349 0.2069 -0.2882
vn 0.9496 0.0773 -0.3038
vn 0.8931 0.3892 -0.2254
vn -0.6499 -0.3892 0.6528
vn 0.9156 0.2454 0.3186
vn -0.1024 0.8823 0.4593
vn -0.9761 0.0056 -0.2173
vn -0.0007 -1.0000 0.0051
vn -0.0020 -1.0000 0.0092
vn -0.0019 -1.0000 0.0087
vn -0.0008 -1.0000 0.0051
vn -0.4331 -0.3892 0.8130
vn -0.0469 0.3892 -0.9200
vn 0.0114 0.0773 -0.9969
vn 0.0009 0.2069 -0.9784
vn -0.0273 0.3289 -0.9440
vn -0.4130 -0.0776 0.9074
vn -0.4146 -0.2073 0.8861
vn -0.4255 -0.3293 0.8429
vn -0.9642 0.2454 -0.1004
vn -0.9780 0.0438 -0.2040
vn -0.9765 0.0160 -0.2147
vn 0.9760 0.0056 0.2178
vn 0.9753 0.0160 0.2203
vn 0.9720 0.0438 0.2307
vn 0.0272 -0.3293 0.9438
vn -0.0009 -0.2073 0.9783
vn -0.0115 -0.0776 0.9969
vn 0.4256 0.3289 -0.8430
vn 0.4147 0.2069 -0.8861
vn 0.4130 0.0773 -0.9074
vn 0.4332 0.3892 -0.8129
vn 0.0468 -0.3892 0.9200
vn -0.0026 -1.0000 0.0085
vn -0.0030 -1.0000 0.0090
vn -0.0882 0.2454 -0.9654
vn 0.4606 0.8823 -0.0966
vn 0.2055 0.0056 0.9786
vn 0.0049 -1.0000 -0.0015
vn 0.0092 -1.0000 -0.0020
vn 0.0087 -1.0000 -0.0018
vn 0.0050 -1.0000 -0.0014
vn 0.9193 -0.3892 0.0584
vn -0.8183 0.3892 0.4229
vn -0.9126 0.0773 0.4016
vn -0.8913 0.2069 0.4035
vn -0.8483 0.3289 0.4149
vn 0.9970 -0.0776 0.0010
vn 0.9782 -0.2073 0.0114
vn 0.9434 -0.3293 0.0391
vn 0.3071 0.2454 0.9195
vn 0.2184 0.0438 0.9749
vn 0.2080 0.0160 0.9780
vn -0.2050 0.0056 -0.9788
vn -0.2024 0.0160 -0.9792
vn -0.1916 0.0438 -0.9805
vn 0.8482 -0.3293 -0.4148
vn 0.8912 -0.2073 -0.4034
vn 0.9126 -0.0776 -0.4015
vn -0.9436 0.3289 -0.0392
vn -0.9783 0.2069 -0.0114
vn -0.9970 0.0773 -0.0011
vn -0.9193 0.3892 -0.0585
vn 0.8184 -0.3892 -0.4228
vn 0.0088 -1.0000 -0.0011
vn 0.0094 -1.0000 -0.0010
vn -0.9813 0.1751 -0.0798
vn 0.0000 0.8823 -0.4706
vn 1.0000 0.0039 -0.0002
vn -0.0007 -1.0000 -0.0052
vn -0.0000 -1.0000 -0.0094
vn -0.0000 -1.0000 -0.0088
vn -0.0004 -1.0000 -0.0053
vn 0.3406 -0.3775 -0.8611
vn 0.3407 0.3775 0.8610
vn 0.2876 0.0756 0.9548
vn 0.2960 0.2022 0.9335
vn 0.3225 0.3200 0.8908
vn 0.2875 -0.0759 -0.9548
vn 0.2959 -0.2026 -0.9335
vn 0.3224 -0.3205 -0.8907
vn 0.9813 0.1751 -0.0798
vn 0.9995 0.0307 -0.0096
vn 0.9999 0.0112 -0.0020
vn -1.0000 0.0039 -0.0002
vn -0.9999 0.0112 -0.0020
vn -0.9995 0.0307 -0.0096
vn -0.3224 -0.3205 -0.8907
vn -0.2959 -0.2026 -0.9335
vn -0.2875 -0.0759 -0.9548
vn -0.3225 0.3200 0.8908
vn -0.2960 0.2022 0.9335
vn -0.2876 0.0756 0.9548
vn -0.3407 0.3775 0.8610
vn -0.3406 -0.3775 -0.8611
vn 0.0008 -1.0000 -0.0086
vn 0.0013 -1.0000 -0.0094
# 145 vertex normals

vt 0.5222 0.6502 0.0000
vt 0.5762 0.6502 0.0000
vt 0.5762 0.7042 0.0000
vt 0.5222 0.7042 0.0000
# 4 texture coords

g SPW_Natures_Bush_01
usemtl SPW_Natures_01
s off
f 1/1/1 2/2/1 3/3/1 4/4/1 
f 5/1/2 6/2/2 7/3/2 8/4/2 
f 9/1/3 10/2/3 11/3/3 12/4/3 
f 13/1/4 14/2/4 15/3/4 16/4/4 
f 17/1/5 8/2/5 7/3/5 18/4/5 
f 19/1/6 5/2/6 2/3/6 1/4/6 
f 13/1/7 20/2/7 21/3/7 14/4/7 
f 20/1/8 22/2/8 23/3/8 21/4/8 
f 22/1/9 19/2/9 1/3/9 23/4/9 
f 16/1/10 24/2/10 12/3/10 11/4/10 
f 24/1/11 25/2/11 26/3/11 12/4/11 
f 25/1/12 17/2/12 18/3/12 26/4/12 
f 6/1/13 27/2/13 18/3/13 7/4/13 
f 27/1/14 28/2/14 26/3/14 18/4/14 
f 28/1/15 9/2/15 12/3/15 26/4/15 
f 14/1/16 21/2/16 29/3/16 15/4/16 
f 21/1/17 23/2/17 30/3/17 29/4/17 
f 23/1/18 1/2/18 4/3/18 30/4/18 
f 30/1/19 4/2/19 17/3/19 25/4/19 
f 29/1/20 30/2/20 25/3/20 24/4/20 
f 15/1/21 29/2/21 24/3/21 16/4/21 
f 28/1/22 27/2/22 19/3/22 22/4/22 
f 9/1/23 28/2/23 22/3/23 20/4/23 
f 10/1/24 9/2/24 20/3/24 13/4/24 
f 27/1/25 6/2/25 5/3/25 19/4/25 
f 4/1/26 3/2/26 8/3/26 17/4/26 
f 10/1/4 13/2/4 16/3/4 11/4/4 
f 2/1/2 5/2/2 8/3/2 3/4/2 
f 31/1/27 32/2/27 33/3/27 34/4/27 
f 35/1/28 36/2/28 37/3/28 38/4/28 
f 39/1/29 40/2/29 41/3/29 42/4/29 
f 43/1/30 44/2/30 45/3/30 46/4/30 
f 47/1/31 38/2/31 37/3/31 48/4/31 
f 49/1/32 35/2/32 32/3/32 31/4/32 
f 43/1/33 50/2/33 51/3/33 44/4/33 
f 50/1/34 52/2/34 53/3/34 51/4/34 
f 52/1/35 49/2/35 31/3/35 53/4/35 
f 46/1/36 54/2/36 42/3/36 41/4/36 
f 54/1/37 55/2/37 56/3/37 42/4/37 
f 55/1/38 47/2/38 48/3/38 56/4/38 
f 36/1/39 57/2/39 48/3/39 37/4/39 
f 57/1/40 58/2/40 56/3/40 48/4/40 
f 58/1/41 39/2/41 42/3/41 56/4/41 
f 44/1/42 51/2/42 59/3/42 45/4/42 
f 51/1/43 53/2/43 60/3/43 59/4/43 
f 53/1/44 31/2/44 34/3/44 60/4/44 
f 60/1/45 34/2/45 47/3/45 55/4/45 
f 59/1/46 60/2/46 55/3/46 54/4/46 
f 45/1/47 59/2/47 54/3/47 46/4/47 
f 58/1/48 57/2/48 49/3/48 52/4/48 
f 39/1/49 58/2/49 52/3/49 50/4/49 
f 40/1/50 39/2/50 50/3/50 43/4/50 
f 57/1/51 36/2/51 35/3/51 49/4/51 
f 34/1/52 33/2/52 38/3/52 47/4/52 
f 40/1/30 43/2/30 46/3/30 41/4/30 
f 32/1/28 35/2/28 38/3/28 33/4/28 
f 61/1/53 62/2/53 63/3/53 64/4/53 
f 65/1/54 66/2/54 67/3/54 68/4/54 
f 69/1/55 70/2/55 71/3/55 72/4/55 
s 1
f 73/1/56 74/2/57 75/3/58 76/4/59 
s off
f 77/1/60 68/2/60 67/3/60 78/4/60 
f 79/1/61 65/2/61 62/3/61 61/4/61 
f 73/1/62 80/2/62 81/3/62 74/4/62 
f 80/1/63 82/2/63 83/3/63 81/4/63 
f 82/1/64 79/2/64 61/3/64 83/4/64 
f 76/1/65 84/2/65 72/3/65 71/4/65 
f 84/1/66 85/2/66 86/3/66 72/4/66 
f 85/1/67 77/2/67 78/3/67 86/4/67 
f 66/1/68 87/2/68 78/3/68 67/4/68 
f 87/1/69 88/2/69 86/3/69 78/4/69 
f 88/1/70 69/2/70 72/3/70 86/4/70 
f 74/1/71 81/2/71 89/3/71 75/4/71 
f 81/1/72 83/2/72 90/3/72 89/4/72 
f 83/1/73 61/2/73 64/3/73 90/4/73 
f 90/1/74 64/2/74 77/3/74 85/4/74 
f 89/1/75 90/2/75 85/3/75 84/4/75 
f 75/1/76 89/2/76 84/3/76 76/4/76 
f 88/1/77 87/2/77 79/3/77 82/4/77 
f 69/1/78 88/2/78 82/3/78 80/4/78 
f 70/1/79 69/2/79 80/3/79 73/4/79 
f 87/1/80 66/2/80 65/3/80 79/4/80 
f 64/1/81 63/2/81 68/3/81 77/4/81 
s 1
f 70/1/82 73/2/56 76/3/59 71/4/83 
s off
f 62/1/54 65/2/54 68/3/54 63/4/54 
f 91/1/84 92/2/84 93/3/84 94/4/84 
f 95/1/85 96/2/85 97/3/85 98/4/85 
f 99/1/86 100/2/86 101/3/86 102/4/86 
s 1
f 103/1/87 104/2/88 105/3/89 106/4/90 
s off
f 107/1/91 98/2/91 97/3/91 108/4/91 
f 109/1/92 95/2/92 92/3/92 91/4/92 
f 103/1/93 110/2/93 111/3/93 104/4/93 
f 110/1/94 112/2/94 113/3/94 111/4/94 
f 112/1/95 109/2/95 91/3/95 113/4/95 
f 106/1/96 114/2/96 102/3/96 101/4/96 
f 114/1/97 115/2/97 116/3/97 102/4/97 
f 115/1/98 107/2/98 108/3/98 116/4/98 
f 96/1/99 117/2/99 108/3/99 97/4/99 
f 117/1/100 118/2/100 116/3/100 108/4/100 
f 118/1/101 99/2/101 102/3/101 116/4/101 
f 104/1/102 111/2/102 119/3/102 105/4/102 
f 111/1/103 113/2/103 120/3/103 119/4/103 
f 113/1/104 91/2/104 94/3/104 120/4/104 
f 120/1/105 94/2/105 107/3/105 115/4/105 
f 119/1/106 120/2/106 115/3/106 114/4/106 
f 105/1/107 119/2/107 114/3/107 106/4/107 
f 118/1/108 117/2/108 109/3/108 112/4/108 
f 99/1/109 118/2/109 112/3/109 110/4/109 
f 100/1/110 99/2/110 110/3/110 103/4/110 
f 117/1/111 96/2/111 95/3/111 109/4/111 
f 94/1/112 93/2/112 98/3/112 107/4/112 
s 1
f 100/1/113 103/2/87 106/3/90 101/4/114 
s off
f 92/1/85 95/2/85 98/3/85 93/4/85 
f 121/1/115 122/2/115 123/3/115 124/4/115 
s 1
f 125/1/116 126/2/116 127/3/116 128/4/116 
s off
f 129/1/117 130/2/117 131/3/117 132/4/117 
s 1
f 133/1/118 134/2/119 135/3/120 136/4/121 
s off
f 137/1/122 128/2/122 127/3/122 138/4/122 
f 139/1/123 125/2/123 122/3/123 121/4/123 
f 133/1/124 140/2/124 141/3/124 134/4/124 
f 140/1/125 142/2/125 143/3/125 141/4/125 
f 142/1/126 139/2/126 121/3/126 143/4/126 
f 136/1/127 144/2/127 132/3/127 131/4/127 
f 144/1/128 145/2/128 146/3/128 132/4/128 
f 145/1/129 137/2/129 138/3/129 146/4/129 
f 126/1/130 147/2/130 138/3/130 127/4/130 
f 147/1/131 148/2/131 146/3/131 138/4/131 
f 148/1/132 129/2/132 132/3/132 146/4/132 
f 134/1/133 141/2/133 149/3/133 135/4/133 
f 141/1/134 143/2/134 150/3/134 149/4/134 
f 143/1/135 121/2/135 124/3/135 150/4/135 
f 150/1/136 124/2/136 137/3/136 145/4/136 
f 149/1/137 150/2/137 145/3/137 144/4/137 
f 135/1/138 149/2/138 144/3/138 136/4/138 
f 148/1/139 147/2/139 139/3/139 142/4/139 
f 129/1/140 148/2/140 142/3/140 140/4/140 
f 130/1/141 129/2/141 140/3/141 133/4/141 
f 147/1/142 126/2/142 125/3/142 139/4/142 
f 124/1/143 123/2/143 128/3/143 137/4/143 
s 1
f 130/1/144 133/2/118 136/3/121 131/4/145 
f 122/1/116 125/2/116 128/3/116 123/4/116 
# 140 polygons

