# 3ds Max Wavefront OBJ Exporter v0.97b - (c)2007 guruware
# File Created: 15.03.2017 10:32:54

mtllib SPW_Natures_Tree_02.mtl

#
# object SPW_Natures_Tree_02
#

v  47.4266 242.9504 98.6377
v  -33.6143 177.7340 48.1185
v  68.8058 212.8549 74.6958
v  -30.2380 161.9162 -13.5509
v  -52.3762 188.1721 -64.0907
v  76.4437 193.9656 -51.7381
v  43.2867 177.7340 42.3915
v  125.9057 270.1501 30.5443
v  0.0430 212.8549 -93.2301
v  -73.4158 269.6824 -93.9394
v  -93.5721 212.5353 53.2939
v  77.6248 300.8380 87.5204
v  -78.4527 269.6824 95.5760
v  0.0044 269.6824 -114.1633
v  80.4781 335.5436 -70.3977
v  57.8429 384.5861 -31.3740
v  -28.1439 325.6067 101.9369
v  75.2039 333.5390 80.7855
v  25.3629 399.9573 12.4888
v  -10.7774 335.0620 -92.5397
v  -18.3109 384.5858 -54.8360
v  -83.1888 350.4836 -44.9290
v  -78.5284 349.7516 47.4288
v  -106.8407 326.8460 -35.1171
v  125.3234 270.1501 -34.8985
v  119.5979 244.7194 -40.9766
v  -118.7920 269.6824 -35.9837
v  -125.6138 244.9170 -23.8505
v  102.7730 212.8547 -33.0987
v  0.0044 -0.0013 24.8880
v  2.4728 39.3688 17.8964
v  -14.2158 39.3688 8.2612
v  -22.7391 -0.0013 11.7570
v  -14.2158 39.3688 -11.0090
v  -22.7391 -0.0013 -14.5048
v  2.4728 39.3688 -20.6442
v  0.0044 -0.0013 -27.6358
v  19.1613 39.3688 -11.0090
v  22.7478 -0.0013 -14.5048
v  6.1165 77.7086 -19.4168
v  21.7421 77.7086 -10.3954
v  19.1613 39.3688 8.2612
v  22.7478 -0.0013 11.7570
v  21.7421 77.7086 7.6475
v  13.7888 120.4937 -9.4233
v  13.7888 120.4937 6.6755
v  -9.5091 77.7086 7.6475
v  -9.5091 77.7086 -10.3954
v  6.1165 77.7086 16.6690
v  -0.1626 120.4937 14.7249
v  5.7319 163.2787 5.7825
v  -6.6634 163.2787 12.9389
v  -14.1140 120.4937 -9.4233
v  -0.1626 120.4937 -17.4728
v  -14.1140 120.4937 6.6755
v  5.7319 163.2787 -8.5303
v  7.0381 205.9526 -7.3596
v  7.0381 205.9526 4.6118
v  -6.6634 163.2787 -15.6868
v  -19.0587 163.2787 5.7825
v  -19.0587 163.2787 -8.5303
v  -13.6971 205.9526 4.6118
v  -3.3295 205.9526 10.5975
v  -3.3295 205.9526 -13.3453
v  -13.6971 205.9526 -7.3596
# 65 vertices

vn 0.0084 -0.6189 0.7854
vn 0.0859 -0.8682 -0.4887
vn 0.2628 -0.9621 -0.0733
vn 0.6723 -0.1053 0.7328
vn 0.4869 0.6217 -0.6135
vn 0.1625 -0.6143 0.7722
vn -0.1820 -0.7283 -0.6606
vn 0.9304 0.3541 0.0946
vn 0.0790 0.7429 0.6648
vn 0.1832 0.6130 -0.7685
vn -0.4524 0.8872 0.0909
vn -0.3893 0.5197 -0.7605
vn -0.4271 0.9038 0.0287
vn -0.6978 0.7152 0.0409
vn -0.2065 0.8096 0.5495
vn 0.6512 0.7237 0.2286
vn 0.9901 0.0461 -0.1323
vn 0.0842 0.9582 -0.2734
vn 0.2192 0.6675 -0.7116
vn 0.2233 -0.3423 -0.9127
vn 0.4337 0.1159 -0.8936
vn -0.4228 -0.8246 -0.3759
vn -0.5226 0.1767 -0.8341
vn -0.2037 0.6417 -0.7394
vn -0.5571 -0.7311 0.3939
vn -0.7636 -0.2404 0.5993
vn -0.8289 0.4131 0.3772
vn 0.2133 -0.2977 0.9305
vn 0.0101 0.2024 0.9792
vn 0.8761 -0.4740 -0.0883
vn 0.1330 0.8581 0.4960
vn 0.4256 0.8002 -0.4225
vn 0.4096 -0.4169 -0.8115
vn 0.6011 -0.0508 -0.7976
vn -0.5462 0.7202 -0.4277
vn -0.5497 -0.7160 -0.4304
vn -0.5166 -0.2577 -0.8165
vn -0.7429 0.6503 0.1585
vn -0.4475 -0.8240 0.3476
vn -0.7873 0.4876 -0.3775
vn -0.3545 0.3513 0.8666
vn 0.8265 0.5628 -0.0074
vn 0.7059 -0.7083 -0.0063
vn 0.9050 -0.2803 0.3202
vn 0.8118 -0.3057 0.4975
vn 0.5569 -0.8288 0.0533
vn 0.0897 -0.8337 -0.5448
vn -0.4842 -0.0045 -0.8749
vn -0.6752 -0.7327 -0.0849
vn 0.7352 -0.6632 0.1402
vn 0.0533 -0.6967 0.7154
vn 0.0186 -0.9682 0.2494
vn -0.4800 -0.8557 0.1932
vn -0.1846 -0.4482 0.8747
vn -0.4916 0.1820 0.8516
vn -0.9774 0.2116 -0.0000
vn -0.4916 0.1820 -0.8516
vn 0.4963 0.1215 -0.8596
vn 0.4999 -0.0198 -0.8659
vn 0.9959 0.0907 0.0000
vn 0.4963 0.1215 0.8596
vn -0.0000 -1.0000 0.0000
vn 0.9832 0.1828 0.0000
vn -0.9925 0.1218 -0.0000
vn 0.9977 -0.0672 0.0000
vn -0.4986 0.0750 0.8636
vn -0.4986 0.0750 -0.8636
vn 0.4999 -0.0198 0.8659
vn 0.4966 0.1117 0.8607
vn 0.4967 0.1118 0.8607
vn 0.4968 0.1114 0.8607
vn 0.4969 0.1114 0.8606
vn -0.4996 -0.0340 -0.8656
vn -0.4996 -0.0340 0.8656
vn 0.4968 0.1119 0.8606
vn 0.4969 0.1119 0.8606
vn 0.4968 0.1120 -0.8606
vn 0.4969 0.1120 -0.8606
vn 0.4967 0.1116 -0.8607
vn 0.4966 0.1117 -0.8607
vn -0.9943 -0.1070 -0.0000
vn 0.9995 -0.0306 0.0000
vn 0.4968 0.1115 -0.8607
vn 0.4969 0.1115 -0.8606
vn -0.9934 -0.1148 -0.0000
vn 0.9827 0.1851 0.0000
vn -0.4995 -0.0397 -0.8654
vn -0.4995 -0.0397 0.8654
vn 0.0000 1.0000 0.0000
vn -0.4981 0.0863 -0.8628
vn -0.4981 0.0863 0.8628
vn 0.5000 0.0085 0.8660
vn 0.5000 0.0085 -0.8660
vn -0.9922 0.1247 -0.0000
# 94 vertex normals

vt 0.0576 0.3701 0.0000
vt 0.0845 0.3470 0.0000
vt 0.0845 0.3970 0.0000
vt 0.0581 0.3470 0.0000
vt 0.0345 0.3470 0.0000
vt 0.0562 0.3470 0.0000
vt 0.0695 0.3820 0.0000
vt 0.0845 0.3727 0.0000
vt 0.0845 0.3734 0.0000
vt 0.0596 0.3470 0.0000
vt 0.0598 0.3470 0.0000
vt 0.0609 0.3470 0.0000
vt 0.0845 0.3656 0.0000
vt 0.0596 0.3721 0.0000
vt 0.0845 0.3695 0.0000
vt 0.0593 0.3470 0.0000
vt 0.0573 0.3470 0.0000
vt 0.0845 0.3754 0.0000
vt 0.0845 0.3701 0.0000
vt 0.0593 0.3718 0.0000
vt 0.0573 0.3698 0.0000
vt 0.0887 0.4873 0.0000
vt 0.1387 0.4873 0.0000
vt 0.1387 0.5373 0.0000
vt 0.0887 0.5373 0.0000
vt 0.1137 0.5373 0.0000
vt 0.1353 0.5248 0.0000
vt 0.1353 0.4998 0.0000
vt 0.1137 0.4873 0.0000
vt 0.0920 0.4998 0.0000
vt 0.0920 0.5248 0.0000
# 31 texture coords

g SPW_Natures_Tree_02
usemtl SPW_Natures_01
s off
f 1/1/1 2/2/1 3/3/1 
f 4/4/2 5/2/2 6/3/2 
f 4/4/3 6/2/3 7/3/3 
f 1/1/4 3/2/4 8/3/4 
f 6/5/5 9/2/5 10/3/5 
f 11/6/6 12/2/6 13/3/6 
f 6/5/7 10/2/7 14/3/7 
f 12/5/8 15/2/8 16/3/8 
f 17/5/9 18/2/9 19/3/9 
f 15/5/10 20/2/10 21/3/10 
f 21/5/11 22/2/11 19/7/11 
f 21/5/12 20/2/12 22/8/12 
f 22/5/13 23/2/13 19/7/13 
f 22/5/14 24/2/14 23/9/14 
f 23/5/15 17/2/15 19/3/15 
f 19/7/16 18/2/16 16/3/16 
f 18/5/17 12/10/17 16/3/17 
f 16/5/18 21/2/18 19/7/18 
f 16/5/19 15/2/19 21/3/19 
f 25/5/20 20/2/20 15/3/20 
f 25/5/21 26/11/21 20/3/21 
f 26/5/22 22/8/22 20/3/22 
f 14/5/23 24/2/23 22/3/23 
f 14/5/24 10/2/24 24/3/24 
f 10/5/25 23/9/25 24/3/25 
f 27/5/26 17/2/26 23/3/26 
f 27/5/27 28/12/27 17/13/27 
f 13/5/28 18/2/28 17/3/28 
f 13/5/29 12/2/29 18/3/29 
f 1/5/30 15/2/30 12/14/30 
f 1/5/31 8/2/31 15/15/31 
f 26/5/32 14/2/32 22/3/32 
f 26/5/33 29/2/33 14/3/33 
f 29/5/34 6/16/34 14/3/34 
f 10/5/35 27/2/35 23/3/35 
f 10/5/36 9/2/36 27/3/36 
f 9/5/37 28/2/37 27/3/37 
f 28/5/38 13/2/38 17/3/38 
f 28/5/39 5/17/39 13/3/39 
f 5/5/40 11/2/40 13/3/40 
f 12/14/41 11/18/41 1/19/41 
f 8/5/42 25/2/42 15/3/42 
f 8/5/43 3/2/43 25/3/43 
f 3/5/44 26/2/44 25/3/44 
f 7/5/45 29/2/45 26/3/45 
f 7/5/46 6/2/46 29/3/46 
f 6/20/47 5/2/47 9/3/47 
f 5/21/48 28/2/48 9/3/48 
f 4/5/49 11/2/49 5/21/49 
f 3/5/50 7/2/50 26/3/50 
f 3/5/51 2/2/51 7/3/51 
f 2/5/52 4/2/52 7/3/52 
f 4/5/53 2/2/53 11/3/53 
f 2/5/54 1/19/54 11/3/54 
f 30/22/55 31/23/55 32/24/55 33/25/55 
f 33/22/56 32/23/56 34/24/56 35/25/56 
f 35/22/57 34/23/57 36/24/57 37/25/57 
f 37/22/58 36/23/58 38/24/58 39/25/58 
f 38/22/59 36/23/59 40/24/59 41/25/59 
f 39/22/60 38/23/60 42/24/60 43/25/60 
f 43/22/61 42/23/61 31/24/61 30/25/61 
f 30/26/62 33/27/62 35/28/62 37/29/62 
f 30/26/62 37/29/62 39/30/62 43/31/62 
f 44/22/63 41/23/63 45/24/63 46/25/63 
f 34/22/64 32/23/64 47/24/64 48/25/64 
f 42/22/65 38/23/65 41/24/65 44/25/65 
f 32/22/66 31/23/66 49/24/66 47/25/66 
f 36/22/67 34/23/67 48/24/67 40/25/67 
f 31/22/68 42/23/68 44/24/68 49/25/68 
s 1
f 50/22/69 46/23/70 51/24/71 52/25/72 
s off
f 40/22/73 48/23/73 53/24/73 54/25/73 
f 47/22/74 49/23/74 50/24/74 55/25/74 
s 1
f 49/22/75 44/23/76 46/24/70 50/25/69 
f 41/22/77 40/23/78 54/24/79 45/25/80 
s off
f 48/22/81 47/23/81 55/24/81 53/25/81 
f 51/22/82 56/23/82 57/24/82 58/25/82 
s 1
f 45/22/80 54/23/79 59/24/83 56/25/84 
s off
f 53/22/85 55/23/85 60/24/85 61/25/85 
f 46/22/86 45/23/86 56/24/86 51/25/86 
f 54/22/87 53/23/87 61/24/87 59/25/87 
f 55/22/88 50/23/88 52/24/88 60/25/88 
f 62/26/89 63/27/89 58/28/89 57/29/89 
f 62/26/89 57/29/89 64/30/89 65/31/89 
f 59/22/90 61/23/90 65/24/90 64/25/90 
f 60/22/91 52/23/91 63/24/91 62/25/91 
f 52/22/92 51/23/92 58/24/92 63/25/92 
f 56/22/93 59/23/93 64/24/93 57/25/93 
f 61/22/94 60/23/94 62/24/94 65/25/94 
# 34 polygons - 54 triangles

