# 3ds Max Wavefront OBJ Exporter v0.97b - (c)2007 guruware
# File Created: 15.03.2017 10:32:37

mtllib SPW_Natures_Tree_01.mtl

#
# object SPW_Natures_Tree_01
#

v  -50.2698 252.3560 24.2607
v  -133.9471 284.9135 -56.7058
v  17.4782 285.2699 -120.6730
v  119.2080 281.0044 -50.4395
v  41.8701 304.1582 135.4109
v  99.2132 282.3137 86.6097
v  198.4185 366.4288 -2.7775
v  -161.0824 329.8752 110.2376
v  -179.7276 392.9102 71.6492
v  -157.0319 328.3361 -98.9586
v  -128.5117 391.7451 -136.0610
v  107.9283 394.7892 130.8552
v  -8.6536 363.0283 -168.7583
v  161.4996 429.6091 -22.9980
v  84.1712 461.3684 104.5681
v  -3.6858 447.3999 -127.0918
v  29.1992 500.5255 -26.6847
v  -153.4881 443.7849 -18.6742
v  -70.8512 439.2957 124.3176
v  148.8942 337.3922 -93.4790
v  -76.6604 333.3698 156.0031
v  -0.0122 -0.0182 -38.9671
v  -3.7147 59.0369 -28.4797
v  21.3181 59.0369 -14.0270
v  34.1030 -0.0182 -19.2707
v  21.3181 59.0369 14.8784
v  34.1030 -0.0182 20.1221
v  -3.7148 59.0369 29.3311
v  -0.0122 -0.0183 39.8185
v  -28.7476 59.0369 14.8784
v  -34.1273 -0.0182 20.1221
v  -9.1804 116.5466 27.4900
v  -32.6188 116.5466 13.9579
v  -28.7476 59.0369 -14.0270
v  -34.1273 -0.0182 -19.2707
v  -32.6188 116.5466 -13.1065
v  -20.6887 180.7242 12.4998
v  -20.6887 180.7242 -11.6485
v  14.2580 116.5466 -13.1065
v  14.2580 116.5466 13.9579
v  -9.1804 116.5466 -26.6387
v  0.2383 180.7242 -23.7226
v  -8.6034 244.9018 -10.3089
v  9.9895 244.9018 -21.0436
v  21.1654 180.7242 12.4998
v  0.2383 180.7242 24.5740
v  21.1654 180.7242 -11.6485
v  -8.6034 244.9018 11.1603
v  -10.5627 308.9126 9.4043
v  -10.5627 308.9126 -8.5529
v  9.9895 244.9018 21.8950
v  28.5825 244.9018 -10.3089
v  28.5825 244.9018 11.1603
v  20.5400 308.9126 -8.5529
v  4.9887 308.9126 -17.5315
v  4.9887 308.9126 18.3829
v  20.5400 308.9126 9.4043
v  -7.3509 207.8449 -9.0715
v  -58.6362 244.5944 -7.6400
v  -55.4482 251.2194 -3.5405
v  -3.6737 215.4430 -4.2872
v  -55.4482 251.2194 4.3919
v  -3.6737 215.4430 5.1386
v  -58.6362 244.5944 8.4914
v  -7.3509 207.8449 9.9229
v  -61.9330 237.7430 4.5274
v  -11.0506 200.0876 5.2129
v  -65.4738 263.3311 -3.3329
v  -65.4738 263.3311 4.1842
v  -61.9330 237.7430 -3.6760
v  -11.0506 200.0876 -4.3615
v  -70.6208 259.2553 -7.1319
v  -81.3867 290.1252 -6.5774
v  -75.8789 292.6641 -3.0758
v  -75.8231 255.1321 4.2253
v  -75.8231 255.1321 -3.3739
v  -70.6208 259.2553 7.9833
v  -86.8946 287.5863 -3.0758
v  -86.8946 287.5863 3.9272
v  -81.3867 290.1252 7.4288
v  -75.8789 292.6641 3.9272
# 81 vertices

vn -0.1115 -0.9566 -0.2694
vn 0.0851 -0.9795 -0.1827
vn 0.6546 0.0307 0.7554
vn -0.9448 -0.3206 -0.0672
vn -0.2134 -0.4201 -0.8820
vn 0.6820 -0.4689 0.5613
vn -0.8995 -0.4346 0.0448
vn -0.3407 -0.5746 -0.7441
vn 0.8120 0.4408 0.3825
vn 0.4126 0.7423 -0.5279
vn -0.2902 0.8819 -0.3716
vn -0.3390 0.8312 -0.4406
vn -0.2833 0.9394 0.1932
vn -0.4962 0.8102 0.3122
vn -0.0934 0.9427 0.3204
vn 0.4700 0.8802 0.0658
vn 0.5360 0.0434 -0.8431
vn 0.5727 0.6366 -0.5165
vn -0.1349 0.4451 -0.8853
vn -0.9683 0.1619 -0.1901
vn 0.1576 -0.2528 0.9546
vn -0.3619 0.7015 0.6140
vn 0.0040 0.3685 0.9296
vn 0.7390 0.5544 0.3828
vn 0.4487 0.3743 -0.8115
vn 0.2315 -0.6643 -0.7107
vn 0.5315 -0.3091 -0.7886
vn -0.9230 0.2384 -0.3021
vn -0.5210 0.3282 0.7879
vn 0.1555 -0.0638 0.9858
vn 0.6042 -0.7932 -0.0759
vn -0.2599 -0.7408 -0.6194
vn -0.4837 -0.8617 0.1534
vn -0.2238 -0.8496 0.4776
vn 0.9158 -0.3774 0.1372
vn 0.1819 -0.9827 0.0359
vn -0.1238 -0.8561 0.5017
vn 0.0084 -0.9090 0.4167
vn 0.4916 0.1820 -0.8516
vn 0.9774 0.2116 0.0000
vn 0.4916 0.1820 0.8516
vn -0.4963 0.1215 0.8596
vn -0.4999 -0.0198 0.8659
vn -0.9959 0.0907 0.0000
vn -0.4963 0.1215 -0.8596
vn 0.0000 -1.0000 -0.0000
vn -0.0000 -1.0000 -0.0000
vn -0.9832 0.1828 0.0000
vn 0.9925 0.1218 0.0000
vn -0.9977 -0.0672 -0.0000
vn 0.4986 0.0750 -0.8636
vn 0.4986 0.0750 0.8636
vn -0.4999 -0.0198 -0.8659
vn -0.4966 0.1117 -0.8607
vn -0.4967 0.1118 -0.8607
vn -0.4968 0.1114 -0.8607
vn -0.4969 0.1114 -0.8606
vn 0.4996 -0.0340 0.8656
vn 0.4996 -0.0340 -0.8656
vn -0.4968 0.1119 -0.8606
vn -0.4969 0.1119 -0.8606
vn -0.4968 0.1120 0.8606
vn -0.4969 0.1120 0.8606
vn -0.4967 0.1116 0.8607
vn -0.4966 0.1117 0.8607
vn 0.9943 -0.1070 0.0000
vn -0.9995 -0.0306 -0.0000
vn -0.4968 0.1115 0.8607
vn -0.4969 0.1115 0.8606
vn 0.9934 -0.1148 -0.0000
vn -0.9827 0.1851 0.0000
vn 0.4995 -0.0397 0.8654
vn 0.4995 -0.0397 -0.8654
vn 0.0000 1.0000 0.0000
vn 0.4981 0.0863 0.8628
vn 0.4981 0.0863 -0.8628
vn -0.5000 0.0085 -0.8660
vn -0.5000 0.0085 0.8660
vn 0.9922 0.1247 0.0000
vn 0.2716 0.4121 -0.8697
vn 0.5685 0.8227 0.0000
vn 0.2716 0.4121 0.8697
vn -0.2946 -0.3796 0.8770
vn 0.7703 0.6376 0.0000
vn -0.5949 -0.8038 -0.0000
vn -0.2946 -0.3796 -0.8770
vn 0.9001 -0.4356 0.0000
vn 0.9026 -0.4305 0.0000
vn 0.4777 0.1796 -0.8600
vn -0.7813 -0.6241 -0.0000
vn 0.3823 0.3373 -0.8603
vn 0.3823 0.3373 0.8603
vn -0.3992 -0.3004 -0.8663
vn -0.3992 -0.3004 0.8663
vn -0.4186 0.9082 0.0000
vn -0.4186 0.9082 -0.0000
vn -0.4859 -0.1560 -0.8600
vn -0.4859 -0.1560 0.8600
vn 0.9425 0.3343 0.0000
vn -0.9464 -0.3229 -0.0000
vn 0.4777 0.1796 0.8600
# 101 vertex normals

vt 0.0367 0.3420 0.0000
vt 0.0631 0.3420 0.0000
vt 0.0631 0.3920 0.0000
vt 0.0131 0.3420 0.0000
vt 0.0631 0.3697 0.0000
vt 0.0631 0.3664 0.0000
vt 0.0631 0.3638 0.0000
vt 0.0375 0.3664 0.0000
vt 0.0631 0.3646 0.0000
vt 0.0397 0.3686 0.0000
vt 0.0631 0.3580 0.0000
vt 0.0631 0.3698 0.0000
vt 0.0631 0.3667 0.0000
vt 0.0631 0.3623 0.0000
vt 0.0384 0.3420 0.0000
vt 0.0631 0.3768 0.0000
vt 0.0631 0.3686 0.0000
vt 0.0343 0.3420 0.0000
vt 0.0391 0.3680 0.0000
vt 0.0631 0.3635 0.0000
vt 0.0372 0.3420 0.0000
vt 0.0379 0.3420 0.0000
vt 0.0357 0.3646 0.0000
vt 0.0349 0.3638 0.0000
vt 0.0358 0.3420 0.0000
vt 0.0378 0.3667 0.0000
vt 0.0379 0.3668 0.0000
vt 0.0631 0.3647 0.0000
vt 0.0887 0.4750 0.0000
vt 0.1387 0.4750 0.0000
vt 0.1387 0.5250 0.0000
vt 0.0887 0.5250 0.0000
vt 0.1137 0.5250 0.0000
vt 0.1353 0.5125 0.0000
vt 0.1353 0.4875 0.0000
vt 0.1137 0.4750 0.0000
vt 0.0920 0.4875 0.0000
vt 0.0920 0.5125 0.0000
# 38 texture coords

g SPW_Natures_Tree_01
usemtl SPW_Natures_01
s off
f 1/1/1 2/2/1 3/3/1 
f 1/1/2 3/2/2 4/3/2 
f 5/4/3 6/2/3 7/3/3 
f 2/4/4 8/5/4 9/3/4 
f 3/4/5 10/6/5 11/3/5 
f 5/4/6 7/2/6 12/3/6 
f 2/4/7 9/7/7 10/8/7 
f 3/4/8 11/9/8 13/3/8 
f 12/4/9 14/2/9 15/10/9 
f 14/4/10 16/11/10 17/3/10 
f 16/4/11 18/2/11 17/12/11 
f 16/4/12 11/2/12 18/13/12 
f 18/4/13 19/2/13 17/12/13 
f 18/4/14 9/2/14 19/14/14 
f 19/4/15 15/2/15 17/12/15 
f 15/4/16 14/2/16 17/3/16 
f 7/4/17 16/11/17 14/3/17 
f 7/4/18 20/15/18 16/16/18 
f 13/4/19 11/2/19 16/3/19 
f 10/4/20 9/2/20 18/3/20 
f 8/4/21 15/17/21 19/3/21 
f 8/4/22 21/18/22 15/3/22 
f 21/4/23 12/2/23 15/3/23 
f 12/19/24 7/2/24 14/20/24 
f 20/4/25 13/2/25 16/3/25 
f 20/4/26 4/21/26 13/3/26 
f 4/4/27 3/22/27 13/3/27 
f 11/23/28 10/2/28 18/3/28 
f 9/24/29 8/2/29 19/3/29 
f 21/4/30 5/2/30 12/3/30 
f 6/25/31 20/2/31 7/26/31 
f 3/27/32 2/2/32 10/3/32 
f 2/8/33 1/1/33 8/3/33 
f 1/4/34 21/2/34 8/3/34 
f 6/25/35 4/2/35 20/3/35 
f 6/4/36 1/2/36 4/3/36 
f 1/4/37 5/2/37 21/3/37 
f 1/4/38 6/25/38 5/28/38 
f 22/29/39 23/30/39 24/31/39 25/32/39 
f 25/29/40 24/30/40 26/31/40 27/32/40 
f 27/29/41 26/30/41 28/31/41 29/32/41 
f 29/29/42 28/30/42 30/31/42 31/32/42 
f 30/29/43 28/30/43 32/31/43 33/32/43 
f 31/29/44 30/30/44 34/31/44 35/32/44 
f 35/29/45 34/30/45 23/31/45 22/32/45 
f 22/33/46 25/34/46 27/35/46 29/36/46 
f 22/33/47 29/36/47 31/37/47 35/38/47 
f 36/29/48 33/30/48 37/31/48 38/32/48 
f 26/29/49 24/30/49 39/31/49 40/32/49 
f 34/29/50 30/30/50 33/31/50 36/32/50 
f 24/29/51 23/30/51 41/31/51 39/32/51 
f 28/29/52 26/30/52 40/31/52 32/32/52 
f 23/29/53 34/30/53 36/31/53 41/32/53 
s 1
f 42/29/54 38/30/55 43/31/56 44/32/57 
s off
f 32/29/58 40/30/58 45/31/58 46/32/58 
f 39/29/59 41/30/59 42/31/59 47/32/59 
s 1
f 41/29/60 36/30/61 38/31/55 42/32/54 
f 33/29/62 32/30/63 46/31/64 37/32/65 
s off
f 40/29/66 39/30/66 47/31/66 45/32/66 
f 43/29/67 48/30/67 49/31/67 50/32/67 
s 1
f 37/29/65 46/30/64 51/31/68 48/32/69 
s off
f 45/29/70 47/30/70 52/31/70 53/32/70 
f 38/29/71 37/30/71 48/31/71 43/32/71 
f 46/29/72 45/30/72 53/31/72 51/32/72 
f 47/29/73 42/30/73 44/31/73 52/32/73 
f 54/33/74 55/34/74 50/35/74 49/36/74 
f 54/33/74 49/36/74 56/37/74 57/38/74 
f 51/29/75 53/30/75 57/31/75 56/32/75 
f 52/29/76 44/30/76 55/31/76 54/32/76 
f 44/29/77 43/30/77 50/31/77 55/32/77 
f 48/29/78 51/30/78 56/31/78 49/32/78 
f 53/29/79 52/30/79 54/31/79 57/32/79 
f 58/29/80 59/30/80 60/31/80 61/32/80 
f 61/29/81 60/30/81 62/31/81 63/32/81 
f 63/29/82 62/30/82 64/31/82 65/32/82 
f 65/29/83 64/30/83 66/31/83 67/32/83 
f 62/29/84 60/30/84 68/31/84 69/32/84 
f 67/29/85 66/30/85 70/31/85 71/32/85 
f 71/29/86 70/30/86 59/31/86 58/32/86 
f 58/33/87 61/34/87 63/35/87 65/36/87 
f 58/33/88 65/36/88 67/37/88 71/38/88 
f 68/29/89 72/30/89 73/31/89 74/32/89 
f 70/29/90 66/30/90 75/31/90 76/32/90 
f 60/29/91 59/30/91 72/31/91 68/32/91 
f 64/29/92 62/30/92 69/31/92 77/32/92 
f 59/29/93 70/30/93 76/31/93 72/32/93 
f 66/29/94 64/30/94 77/31/94 75/32/94 
f 74/33/95 73/34/95 78/35/95 79/36/95 
f 74/33/96 79/36/96 80/37/96 81/38/96 
f 72/29/97 76/30/97 78/31/97 73/32/97 
f 75/29/98 77/30/98 80/31/98 79/32/98 
f 69/29/99 68/30/99 74/31/99 81/32/99 
f 76/29/100 75/30/100 79/31/100 78/32/100 
f 77/29/101 69/30/101 81/31/101 80/32/101 
# 56 polygons - 38 triangles

