# 3ds Max Wavefront OBJ Exporter v0.97b - (c)2007 guruware
# File Created: 15.03.2017 10:18:52

mtllib SPW_Natures_Cloud_02.mtl

#
# object SPW_Natures_Cloud_02
#

v  86.7326 22.9109 19.7039
v  80.1862 22.1285 -30.3869
v  50.2456 27.6749 -1.5577
v  112.8333 6.2028 -18.0727
v  28.9024 2.4546 -29.9095
v  44.0152 6.3190 25.6145
v  60.7330 -19.8341 -46.1871
v  33.9649 -28.5896 17.4158
v  96.9397 -20.4302 30.7614
v  98.6512 -39.5353 -20.7265
v  50.8874 -51.9527 -5.7176
v  7.2153 38.0588 -46.0705
v  -34.1673 37.0926 25.6970
v  38.2158 43.9421 22.7626
v  -68.7120 17.4250 -27.2770
v  40.2050 12.7962 83.4611
v  74.7571 17.5686 -5.0338
v  -22.1682 -14.7294 68.1280
v  80.9200 -25.5420 16.9336
v  3.7266 -15.4655 -71.8871
v  -50.9710 -39.0594 -7.7258
v  33.0711 -54.3943 27.3733
v  -100.0078 4.6055 19.7039
v  -97.1173 -1.3200 -30.3869
v  -92.5146 -31.4201 -1.5577
v  -92.8068 34.7478 -18.0727
v  -61.6804 -43.2881 -29.9095
v  -70.2974 -30.2852 25.6145
v  -51.0921 -5.9001 -46.1871
v  -34.0249 -28.3033 17.4158
v  -62.4297 28.4908 30.7614
v  -44.9485 36.3868 -20.7265
v  -17.5220 -4.6419 -5.7176
v  -38.8191 38.4271 13.5738
v  -70.4573 34.6664 9.9557
v  -52.0248 15.5625 8.0672
v  -62.5003 57.5578 7.6634
v  -68.8909 8.0301 -12.4828
v  -34.0141 16.2828 -5.0422
v  -78.8280 31.7595 -19.7729
v  -37.9158 17.5407 -28.3196
v  -30.4720 53.5866 -9.8442
v  -62.4752 58.5980 -22.7579
v  -51.9863 32.5580 -39.6021
# 44 vertices

vn 0.1494 0.9882 -0.0350
vn 0.4596 0.8850 -0.0739
vn -0.3170 0.8145 -0.4859
vn -0.8460 0.4959 0.1958
vn -0.2282 0.7902 0.5687
vn -0.1673 0.4144 -0.8946
vn -0.9459 0.2154 0.2425
vn -0.1824 -0.1747 0.9676
vn 0.0348 0.2547 0.9664
vn 0.8407 0.3111 0.4433
vn 0.4114 0.1479 -0.8994
vn 0.5140 -0.1100 -0.8507
vn -0.6474 -0.5125 -0.5642
vn -0.8760 -0.4409 -0.1955
vn 0.9430 -0.3007 0.1429
vn 0.0090 -0.7843 -0.6203
vn 0.3348 -0.8798 0.3376
vn -0.0528 -0.7217 0.6902
vn -0.0958 0.9945 -0.0419
vn -0.2951 0.9424 -0.1575
vn -0.0654 0.8869 0.4572
vn 0.6996 0.6448 0.3079
vn 0.4237 0.8662 -0.2649
vn -0.4128 0.5179 0.7493
vn 0.8800 0.3094 0.3603
vn 0.7216 -0.2297 -0.6532
vn 0.5613 0.3296 -0.7592
vn -0.3250 0.4280 -0.8433
vn -0.8531 0.1978 0.4828
vn -0.9076 -0.1492 0.3925
vn 0.0976 -0.6439 0.7589
vn 0.4941 -0.5875 0.6409
vn -0.6066 -0.4234 -0.6728
vn -0.3229 -0.8587 0.3980
vn -0.0199 -0.9328 -0.3599
vn 0.3938 -0.8102 -0.4342
vn -0.9824 -0.1837 -0.0350
vn -0.9869 0.1432 -0.0739
vn -0.6651 -0.5671 -0.4859
vn -0.1903 -0.9620 0.1958
vn -0.6713 -0.4753 0.5687
vn -0.3364 -0.2942 -0.8946
vn 0.1075 -0.9642 0.2425
vn 0.2250 -0.1148 0.9676
vn -0.2520 -0.0509 0.9664
vn -0.5701 0.6917 0.4433
vn -0.2749 0.3399 -0.8994
vn -0.0650 0.5216 -0.8507
vn 0.6968 -0.4430 -0.5642
vn 0.7043 -0.6824 -0.1955
vn -0.0260 0.9894 0.1429
vn 0.7378 0.2663 -0.6203
vn 0.7208 0.6053 0.3376
vn 0.6989 0.1874 0.6902
vn -0.0901 -0.1837 0.9788
vn -0.1292 0.1432 0.9812
vn -0.5225 -0.5671 0.6367
vn 0.1848 -0.9620 0.2010
vn 0.5301 -0.4753 0.7022
vn -0.9121 -0.2942 0.2856
vn 0.2481 -0.9642 -0.0937
vn 0.9787 -0.1148 -0.1703
vn 0.9507 -0.0509 0.3059
vn 0.4105 0.6917 0.5941
vn -0.9134 0.3399 0.2240
vn -0.8530 0.5216 0.0171
vn -0.5242 -0.4430 -0.7274
vn -0.1556 -0.6824 -0.7142
vn 0.1412 0.9894 0.0339
vn -0.5778 0.2663 -0.7715
vn 0.3775 0.6053 -0.7007
vn 0.7284 0.1874 -0.6590
# 72 vertex normals

vt 0.0222 0.8810 0.0000
vt 0.0722 0.8810 0.0000
vt 0.0619 0.8902 0.0000
vt 0.0455 0.9043 0.0000
vt 0.0468 0.8810 0.0000
vt 0.0475 0.9063 0.0000
vt 0.0722 0.9310 0.0000
vt 0.0310 0.8898 0.0000
vt 0.0722 0.9060 0.0000
vt 0.0562 0.8810 0.0000
vt 0.0722 0.9059 0.0000
vt 0.0555 0.9143 0.0000
vt 0.0483 0.9071 0.0000
vt 0.0481 0.8810 0.0000
vt 0.0722 0.8931 0.0000
vt 0.0553 0.9142 0.0000
vt 0.0398 0.8810 0.0000
vt 0.0722 0.8969 0.0000
vt 0.0547 0.9135 0.0000
vt 0.0592 0.9051 0.0000
vt 0.0462 0.9050 0.0000
vt 0.0557 0.8858 0.0000
vt 0.0447 0.8810 0.0000
vt 0.0601 0.8810 0.0000
vt 0.0466 0.9054 0.0000
vt 0.0428 0.9016 0.0000
vt 0.0485 0.8810 0.0000
vt 0.0722 0.8982 0.0000
vt 0.0421 0.9009 0.0000
vt 0.0688 0.9242 0.0000
vt 0.0473 0.8810 0.0000
vt 0.0611 0.9200 0.0000
vt 0.0509 0.8886 0.0000
vt 0.0606 0.8993 0.0000
vt 0.0222 0.8835 0.0000
vt 0.0722 0.8835 0.0000
vt 0.0619 0.8927 0.0000
vt 0.0455 0.9068 0.0000
vt 0.0468 0.8835 0.0000
vt 0.0475 0.9087 0.0000
vt 0.0722 0.9335 0.0000
vt 0.0310 0.8922 0.0000
vt 0.0722 0.9085 0.0000
vt 0.0562 0.8835 0.0000
vt 0.0722 0.9084 0.0000
vt 0.0555 0.9168 0.0000
vt 0.0483 0.9096 0.0000
vt 0.0481 0.8835 0.0000
vt 0.0722 0.8955 0.0000
vt 0.0553 0.9166 0.0000
vt 0.0398 0.8835 0.0000
vt 0.0722 0.8994 0.0000
vt 0.0547 0.9159 0.0000
vt 0.0592 0.9075 0.0000
vt 0.0462 0.9075 0.0000
vt 0.0557 0.8883 0.0000
vt 0.0447 0.8835 0.0000
vt 0.0601 0.8835 0.0000
vt 0.0466 0.9079 0.0000
vt 0.0428 0.9040 0.0000
vt 0.0485 0.8835 0.0000
vt 0.0722 0.9006 0.0000
vt 0.0421 0.9033 0.0000
vt 0.0688 0.9266 0.0000
vt 0.0473 0.8835 0.0000
vt 0.0611 0.9224 0.0000
vt 0.0509 0.8910 0.0000
vt 0.0606 0.9018 0.0000
vt 0.0296 0.8417 0.0000
vt 0.0796 0.8417 0.0000
vt 0.0693 0.8508 0.0000
vt 0.0529 0.8649 0.0000
vt 0.0542 0.8417 0.0000
vt 0.0548 0.8669 0.0000
vt 0.0796 0.8917 0.0000
vt 0.0384 0.8504 0.0000
vt 0.0796 0.8667 0.0000
vt 0.0636 0.8417 0.0000
vt 0.0796 0.8665 0.0000
vt 0.0629 0.8749 0.0000
vt 0.0557 0.8677 0.0000
vt 0.0555 0.8417 0.0000
vt 0.0796 0.8537 0.0000
vt 0.0627 0.8748 0.0000
vt 0.0472 0.8417 0.0000
vt 0.0796 0.8575 0.0000
vt 0.0621 0.8741 0.0000
vt 0.0666 0.8657 0.0000
vt 0.0536 0.8656 0.0000
vt 0.0631 0.8464 0.0000
vt 0.0521 0.8417 0.0000
vt 0.0675 0.8417 0.0000
vt 0.0540 0.8660 0.0000
vt 0.0501 0.8622 0.0000
vt 0.0559 0.8417 0.0000
vt 0.0796 0.8588 0.0000
vt 0.0494 0.8615 0.0000
vt 0.0762 0.8848 0.0000
vt 0.0546 0.8417 0.0000
vt 0.0685 0.8806 0.0000
vt 0.0583 0.8492 0.0000
vt 0.0679 0.8600 0.0000
# 102 texture coords

g SPW_Natures_Cloud_02
usemtl SPW_Natures_01
s off
f 1/1/1 2/2/1 3/3/1 
f 1/4/2 4/5/2 2/6/2 
f 2/1/3 5/2/3 3/7/3 
f 5/1/4 6/2/4 3/7/4 
f 3/8/5 6/2/5 1/9/5 
f 7/1/6 5/2/6 2/7/6 
f 8/10/7 6/11/7 5/12/7 
f 8/13/8 9/2/8 6/7/8 
f 9/14/9 1/15/9 6/16/9 
f 9/17/10 4/18/10 1/19/10 
f 4/1/11 7/2/11 2/20/11 
f 4/21/12 10/22/12 7/11/12 
f 7/1/13 11/23/13 5/7/13 
f 11/1/14 8/24/14 5/25/14 
f 9/26/15 10/2/15 4/7/15 
f 11/27/16 7/28/16 10/29/16 
f 9/30/17 11/31/17 10/32/17 
f 11/33/18 9/34/18 8/7/18 
f 12/35/19 13/36/19 14/37/19 
f 12/38/20 15/39/20 13/40/20 
f 13/35/21 16/36/21 14/41/21 
f 16/35/22 17/36/22 14/41/22 
f 14/42/23 17/36/23 12/43/23 
f 18/35/24 16/36/24 13/41/24 
f 19/44/25 17/45/25 16/46/25 
f 19/47/26 20/36/26 17/41/26 
f 20/48/27 12/49/27 17/50/27 
f 20/51/28 15/52/28 12/53/28 
f 15/35/29 18/36/29 13/54/29 
f 15/55/30 21/56/30 18/45/30 
f 18/35/31 22/57/31 16/41/31 
f 22/35/32 19/58/32 16/59/32 
f 20/60/33 21/36/33 15/41/33 
f 22/61/34 18/62/34 21/63/34 
f 20/64/35 22/65/35 21/66/35 
f 22/67/36 20/68/36 19/41/36 
f 23/69/37 24/70/37 25/71/37 
f 23/72/38 26/73/38 24/74/38 
f 24/69/39 27/70/39 25/75/39 
f 27/69/40 28/70/40 25/75/40 
f 25/76/41 28/70/41 23/77/41 
f 29/69/42 27/70/42 24/75/42 
f 30/78/43 28/79/43 27/80/43 
f 30/81/44 31/70/44 28/75/44 
f 31/82/45 23/83/45 28/84/45 
f 31/85/46 26/86/46 23/87/46 
f 26/69/47 29/70/47 24/88/47 
f 26/89/48 32/90/48 29/79/48 
f 29/69/49 33/91/49 27/75/49 
f 33/69/50 30/92/50 27/93/50 
f 31/94/51 32/70/51 26/75/51 
f 33/95/52 29/96/52 32/97/52 
f 31/98/53 33/99/53 32/100/53 
f 33/101/54 31/102/54 30/75/54 
f 34/69/55 35/70/55 36/71/55 
f 34/72/56 37/73/56 35/74/56 
f 35/69/57 38/70/57 36/75/57 
f 38/69/58 39/70/58 36/75/58 
f 36/76/59 39/70/59 34/77/59 
f 40/69/60 38/70/60 35/75/60 
f 41/78/61 39/79/61 38/80/61 
f 41/81/62 42/70/62 39/75/62 
f 42/82/63 34/83/63 39/84/63 
f 42/85/64 37/86/64 34/87/64 
f 37/69/65 40/70/65 35/88/65 
f 37/89/66 43/90/66 40/79/66 
f 40/69/67 44/91/67 38/75/67 
f 44/69/68 41/92/68 38/93/68 
f 42/94/69 43/70/69 37/75/69 
f 44/95/70 40/96/70 43/97/70 
f 42/98/71 44/99/71 43/100/71 
f 44/101/72 42/102/72 41/75/72 
# 0 polygons - 72 triangles

