# 3ds Max Wavefront OBJ Exporter v0.97b - (c)2007 guruware
# File Created: 15.03.2017 10:22:37

mtllib SPW_Natures_Stone_09.mtl

#
# object SPW_Natures_Stone_09
#

v  17.9066 37.7231 63.8980
v  -40.9753 -6.8805 42.7348
v  53.1433 5.2332 45.8188
v  37.7377 78.1459 -52.2776
v  54.0097 4.7947 -45.5010
v  7.1737 34.1604 -73.1008
v  80.3475 36.6424 2.5305
v  -44.7755 70.3372 -13.1282
v  -43.5028 2.9882 -45.6755
v  -67.3613 28.1908 23.1444
v  0.3826 86.1324 -0.3687
v  -49.6113 60.5919 56.8491
v  44.1419 69.9323 50.9564
# 13 vertices

vn 0.0302 -0.4608 0.8870
vn 0.5248 0.0379 -0.8504
vn 0.7629 -0.6465 0.0103
vn -0.9117 0.1647 -0.3764
vn 0.0186 -0.9936 -0.1114
vn -0.2345 0.9212 -0.3105
vn -0.3546 0.9291 0.1049
vn -0.6004 0.3387 -0.7244
vn -0.7856 -0.6170 -0.0464
vn 0.8212 0.0693 0.5664
vn 0.1275 -0.9918 0.0060
vn -0.8794 0.4760 0.0055
vn 0.6876 0.7259 0.0151
vn -0.0706 0.9324 0.3545
vn -0.1757 -0.2231 0.9588
vn 0.0138 -0.6730 -0.7395
vn 0.2856 0.9566 0.0584
vn 0.4505 -0.0082 0.8928
vn 0.0232 0.3564 0.9340
vn 0.8289 0.1337 -0.5432
vn -0.3884 0.6007 -0.6988
vn -0.7559 -0.2253 0.6147
# 22 vertex normals

vt 0.5641 0.4906 0.0000
vt 0.5641 0.5310 0.0000
vt 0.5147 0.5313 0.0000
vt 0.5431 0.4906 0.0000
vt 0.5641 0.5406 0.0000
vt 0.5141 0.5136 0.0000
vt 0.5265 0.5403 0.0000
vt 0.5382 0.4920 0.0000
vt 0.5575 0.4903 0.0000
vt 0.5602 0.5386 0.0000
vt 0.5141 0.5088 0.0000
vt 0.5141 0.4906 0.0000
vt 0.5617 0.4949 0.0000
vt 0.5141 0.5041 0.0000
vt 0.5628 0.4906 0.0000
vt 0.5364 0.4906 0.0000
vt 0.5149 0.4906 0.0000
vt 0.5641 0.5266 0.0000
vt 0.5238 0.5388 0.0000
vt 0.5384 0.4906 0.0000
vt 0.5141 0.5406 0.0000
vt 0.5557 0.5008 0.0000
vt 0.5141 0.5301 0.0000
vt 0.5615 0.5312 0.0000
vt 0.5299 0.5398 0.0000
vt 0.5141 0.4905 0.0000
vt 0.5608 0.5150 0.0000
vt 0.5274 0.5406 0.0000
vt 0.5641 0.5085 0.0000
vt 0.5630 0.5406 0.0000
vt 0.5306 0.4906 0.0000
vt 0.5413 0.5406 0.0000
vt 0.5221 0.4926 0.0000
vt 0.5366 0.5406 0.0000
vt 0.5641 0.5275 0.0000
vt 0.5355 0.4905 0.0000
vt 0.5641 0.5121 0.0000
vt 0.5641 0.5206 0.0000
vt 0.5152 0.5111 0.0000
vt 0.5641 0.5156 0.0000
vt 0.5398 0.5406 0.0000
vt 0.5641 0.5075 0.0000
# 42 texture coords

g SPW_Natures_Stone_09
usemtl SPW_Natures_01
s off
f 1/1/1 2/2/1 3/3/1 
f 4/4/2 5/5/2 6/6/2 
f 5/7/3 7/8/3 3/3/3 
f 8/9/4 9/10/4 10/11/4 
f 2/12/5 9/1/5 5/13/5 
f 11/14/6 4/15/6 8/5/6 
f 12/16/7 11/1/7 8/5/7 
f 8/17/8 6/18/8 9/19/8 
f 10/20/9 9/5/9 2/21/9 
f 13/22/10 3/5/10 7/23/10 
f 2/1/11 5/24/11 3/25/11 
f 12/26/12 8/9/12 10/5/12 
f 4/27/13 13/22/13 7/28/13 
f 12/21/14 13/12/14 11/29/14 
f 1/12/15 12/1/15 2/30/15 
f 9/21/16 6/31/16 5/32/16 
f 13/33/17 4/27/17 11/34/17 
f 3/21/18 13/33/18 1/35/18 
f 1/21/19 13/36/19 12/37/19 
f 5/21/20 4/12/20 7/38/20 
f 8/39/21 4/40/21 6/41/21 
f 12/12/22 10/42/22 2/21/22 
# 0 polygons - 22 triangles

