# 3ds Max Wavefront OBJ Exporter v0.97b - (c)2007 guruware
# File Created: 15.03.2017 10:23:18

mtllib SPW_Natures_Stone_12.mtl

#
# object SPW_Natures_Stone_12
#

v  -10.4561 9.5713 -160.0422
v  -120.0137 40.3027 37.6116
v  -121.8491 96.5370 7.0752
v  -44.9294 81.9427 -152.5334
v  133.3975 20.0186 -22.3954
v  161.8770 55.0887 -34.0391
v  92.8084 96.3639 115.2531
v  53.7550 21.8165 93.0328
v  13.0831 55.7741 -207.1878
v  -8.5455 189.9648 -39.4534
v  38.9010 176.9823 -61.2015
v  14.4990 -3.8347 -100.9633
v  -52.1945 -0.6110 26.7851
v  128.0874 111.8207 -74.0572
v  20.8504 169.4831 71.7629
v  40.3397 84.9502 157.5075
v  -5.1962 130.7836 125.6562
v  -116.0546 92.2664 37.7527
v  -56.4045 170.4092 13.0298
# 19 vertices

vn -0.8572 -0.3150 -0.4075
vn 0.7224 -0.4920 0.4859
vn -0.7222 -0.2783 -0.6333
vn -0.0765 0.7737 -0.6289
vn 0.4076 -0.8382 -0.3624
vn 0.5819 -0.6394 -0.5026
vn 0.1349 -0.9863 0.0953
vn 0.7768 0.5993 0.1937
vn 0.5970 0.7923 0.1257
vn 0.1388 -0.9841 0.1111
vn -0.2840 -0.6977 0.6577
vn 0.6451 0.7424 0.1808
vn 0.3028 0.9483 0.0946
vn 0.6062 -0.5015 0.6172
vn -0.6080 -0.0010 0.7939
vn -0.6081 0.6207 0.4949
vn -0.1544 0.9636 0.2183
vn -0.6762 0.6293 -0.3831
vn -0.9780 0.0740 0.1950
vn -0.5286 -0.8330 -0.1635
vn -0.2564 -0.9603 -0.1096
vn -0.2545 0.7389 -0.6239
vn 0.4993 -0.7302 -0.4664
vn 0.3989 0.6696 -0.6265
vn 0.7584 -0.0080 -0.6517
vn 0.3442 0.7065 0.6183
vn 0.2697 0.7157 0.6443
vn -0.3262 0.8355 0.4423
vn -0.7379 0.6353 0.2278
# 29 vertex normals

vt 0.5492 0.5406 0.0000
vt 0.5492 0.4906 0.0000
vt 0.5992 0.4906 0.0000
vt 0.5992 0.5406 0.0000
vt 0.5492 0.5215 0.0000
vt 0.5492 0.5152 0.0000
vt 0.5995 0.5039 0.0000
vt 0.5889 0.5406 0.0000
vt 0.5492 0.5316 0.0000
vt 0.5976 0.4906 0.0000
vt 0.5801 0.5393 0.0000
vt 0.5492 0.4943 0.0000
vt 0.5744 0.5406 0.0000
vt 0.5492 0.5156 0.0000
vt 0.5492 0.5385 0.0000
vt 0.5992 0.5150 0.0000
vt 0.5492 0.5264 0.0000
vt 0.5492 0.5283 0.0000
vt 0.5787 0.5406 0.0000
vt 0.5992 0.4912 0.0000
vt 0.5786 0.4906 0.0000
vt 0.5992 0.5088 0.0000
vt 0.5992 0.5032 0.0000
vt 0.5992 0.5279 0.0000
vt 0.5992 0.5207 0.0000
vt 0.5992 0.5333 0.0000
vt 0.5702 0.5406 0.0000
vt 0.5635 0.5406 0.0000
# 28 texture coords

g SPW_Natures_Stone_12
usemtl SPW_Natures_01
s off
f 1/1/1 2/2/1 3/3/1 4/4/1 
f 5/2/2 6/3/2 7/4/2 8/1/2 
f 4/3/3 9/4/3 1/5/3 
f 9/6/4 10/7/4 11/4/4 
f 12/2/5 1/3/5 5/8/5 
f 5/9/6 9/3/6 6/4/6 
f 13/10/7 12/3/7 5/4/7 
f 14/3/8 7/11/8 6/12/8 
f 14/2/9 11/3/9 15/13/9 
f 13/14/10 5/3/10 8/4/10 
f 13/1/11 8/2/11 16/3/11 2/4/11 
f 7/15/12 14/3/12 15/4/12 
f 11/2/13 10/16/13 15/13/13 
f 7/3/14 16/4/14 8/17/14 
f 2/1/15 16/2/15 17/3/15 18/4/15 
f 18/18/16 17/3/16 19/4/16 
f 15/2/17 10/16/17 19/19/17 
f 3/2/18 19/3/18 10/16/18 4/1/18 
f 2/6/19 18/3/19 3/4/19 
f 1/1/20 13/2/20 2/20/20 
f 12/1/21 13/21/21 1/4/21 
f 9/1/22 4/2/22 10/22/22 
f 5/1/23 1/2/23 9/23/23 
f 9/2/24 11/24/24 14/1/24 
f 6/1/25 9/2/25 14/25/25 
f 16/1/26 7/2/26 15/26/26 
f 16/2/27 15/3/27 17/27/27 
f 17/2/28 15/3/28 19/19/28 
f 18/2/29 19/3/29 3/28/29 
# 5 polygons - 24 triangles

