# 3ds Max Wavefront OBJ Exporter v0.97b - (c)2007 guruware
# File Created: 15.03.2017 10:22:51

mtllib SPW_Natures_Stone_10.mtl

#
# object SPW_Natures_Stone_10
#

v  -54.3113 5.7973 -57.1253
v  28.6014 12.3297 21.6155
v  -63.5086 13.3479 85.6101
v  -107.0922 26.6550 27.2326
v  117.6190 8.0328 -21.2795
v  182.8766 49.0644 -38.0821
v  -119.6461 39.0706 -47.4393
v  -142.3621 83.0626 -13.4458
v  -50.0268 60.8259 103.8648
v  -98.6948 49.8234 73.0998
v  120.2211 89.2801 -21.7041
v  -90.8033 104.6936 57.5386
v  97.7301 101.5503 -49.6974
v  -103.2994 107.6115 -76.2337
v  -146.4510 124.7234 -0.8997
v  -18.6072 69.0562 -100.8164
v  -146.5912 115.1049 -47.3906
v  128.1543 28.4836 -74.7736
v  -86.0736 33.5539 -88.4416
v  29.1207 -2.1611 -71.9065
# 20 vertices

vn 0.0269 -0.9982 0.0545
vn -0.3271 -0.9446 0.0289
vn 0.4044 -0.2877 0.8681
vn -0.8660 -0.4960 0.0631
vn 0.4118 -0.5564 0.7217
vn -0.4946 -0.1860 0.8490
vn 0.2593 0.8048 0.5339
vn 0.0548 0.9800 -0.1912
vn 0.1141 0.7001 -0.7048
vn 0.0344 0.9787 -0.2026
vn -0.9942 -0.1050 0.0247
vn 0.1331 0.9695 0.2056
vn 0.1726 0.9456 0.2758
vn 0.5293 0.8467 -0.0541
vn 0.3811 0.4381 -0.8141
vn 0.2682 0.4107 -0.8714
vn -0.2327 0.1052 -0.9668
vn -0.5534 0.0086 -0.8329
vn -0.9247 -0.3276 -0.1940
vn -0.6401 0.2934 0.7101
vn -0.5573 0.2998 0.7743
vn 0.4825 0.4443 0.7548
vn 0.0753 -0.3313 -0.9405
vn 0.0208 -0.3641 -0.9311
vn -0.7625 -0.2698 -0.5880
vn -0.9034 -0.2025 0.3780
vn -0.8893 -0.3215 0.3252
vn -0.7222 -0.5551 0.4126
vn 0.5116 -0.4311 0.7433
vn 0.4745 -0.8493 -0.2313
vn -0.1751 -0.8182 -0.5476
vn -0.4684 -0.8411 -0.2704
vn -0.4609 -0.8847 -0.0696
vn 0.2746 -0.9150 -0.2957
vn 0.0261 -0.9878 0.1532
vn -0.0671 -0.9860 0.1524
# 36 vertex normals

vt 0.7413 0.4750 0.0000
vt 0.7233 0.4750 0.0000
vt 0.7477 0.5250 0.0000
vt 0.7477 0.4750 0.0000
vt 0.7257 0.5031 0.0000
vt 0.7433 0.4750 0.0000
vt 0.7043 0.4817 0.0000
vt 0.7084 0.4750 0.0000
vt 0.6977 0.4750 0.0000
vt 0.7202 0.4975 0.0000
vt 0.7411 0.4750 0.0000
vt 0.7152 0.4925 0.0000
vt 0.7477 0.4866 0.0000
vt 0.7360 0.4750 0.0000
vt 0.7491 0.5264 0.0000
vt 0.7477 0.4815 0.0000
vt 0.7106 0.4750 0.0000
vt 0.7151 0.4924 0.0000
vt 0.7180 0.4750 0.0000
vt 0.7477 0.5226 0.0000
vt 0.7477 0.4975 0.0000
vt 0.7477 0.4803 0.0000
vt 0.7248 0.4750 0.0000
vt 0.7366 0.5139 0.0000
vt 0.7448 0.4750 0.0000
vt 0.7220 0.4750 0.0000
vt 0.7460 0.5233 0.0000
vt 0.7248 0.5022 0.0000
vt 0.7477 0.4937 0.0000
vt 0.7477 0.5104 0.0000
# 30 texture coords

g SPW_Natures_Stone_10
usemtl SPW_Natures_01
s off
f 1/1/1 2/2/1 3/3/1 
f 1/1/2 3/4/2 4/3/2 
f 2/2/3 5/4/3 6/3/3 
f 7/5/4 4/6/4 8/3/4 
f 2/2/5 6/4/5 9/7/5 
f 3/8/6 9/4/6 10/3/6 
f 9/9/7 11/4/7 12/10/7 
f 13/11/8 14/4/8 15/12/8 
f 13/9/9 16/4/9 14/13/9 
f 14/14/10 17/4/10 15/12/10 
f 17/9/11 8/4/11 15/15/11 
f 12/9/12 13/4/12 15/12/12 
f 12/9/13 11/4/13 13/16/13 
f 6/9/14 13/11/14 11/3/14 
f 6/9/15 18/17/15 13/3/15 
f 18/9/16 16/4/16 13/3/16 
f 16/18/17 19/19/17 14/3/17 
f 19/9/18 17/20/18 14/3/18 
f 7/9/19 8/4/19 17/3/19 
f 10/9/20 12/21/20 15/3/20 
f 10/9/21 9/4/21 12/3/21 
f 9/7/22 6/4/22 11/22/22 
f 18/9/23 20/23/23 16/3/23 
f 20/9/24 19/4/24 16/3/24 
f 19/9/25 7/4/25 17/3/25 
f 8/24/26 10/4/26 15/3/26 
f 8/24/27 4/6/27 10/3/27 
f 4/9/28 3/25/28 10/3/28 
f 3/9/29 2/26/29 9/7/29 
f 5/9/30 18/4/30 6/27/30 
f 1/9/31 19/4/31 20/28/31 
f 1/9/32 7/29/32 19/3/32 
f 1/9/33 4/4/33 7/30/33 
f 5/9/34 20/4/34 18/3/34 
f 5/9/35 2/2/35 20/3/35 
f 2/26/36 1/4/36 20/3/36 
# 0 polygons - 36 triangles

