# 3ds Max Wavefront OBJ Exporter v0.97b - (c)2007 guruware
# File Created: 15.03.2017 10:22:04

mtllib SPW_Natures_Stone_07.mtl

#
# object SPW_Natures_Stone_07
#

v  42.4221 163.0535 3.7004
v  4.7474 162.7098 -40.1430
v  -3.3189 162.9958 41.3616
v  -82.4059 -0.1975 -81.7455
v  81.6500 -0.2550 78.6360
v  -83.1796 -0.1295 81.6289
v  82.8519 0.2741 -81.7149
v  -64.7239 41.2872 80.3511
v  29.3637 88.5722 70.3371
v  78.0185 35.1458 68.6467
v  -23.7985 100.5813 79.3064
v  -10.1333 127.7387 66.4395
v  58.7198 134.0555 7.6477
v  18.2311 112.1228 -76.7300
v  71.5110 35.8946 -49.8037
v  55.1445 104.6540 -20.2005
v  -81.2095 66.0776 -53.0917
v  -55.7214 29.8330 -75.0113
v  -41.7643 162.9486 -3.5979
v  -66.0968 123.5627 -12.5648
v  -22.3620 82.3144 -79.2604
v  -71.7548 49.9307 10.0365
v  -37.5803 116.4885 35.1748
# 23 vertices

vn -0.0045 1.0000 -0.0040
vn -0.0008 -1.0000 0.0004
vn 0.0029 -1.0000 -0.0033
vn 0.0182 0.0227 0.9996
vn 0.3467 0.2875 0.8928
vn 0.0140 0.0080 0.9999
vn 0.2276 0.3210 0.9193
vn 0.5744 0.3979 0.7154
vn 0.8326 0.4923 -0.2537
vn 0.7511 0.5065 -0.4235
vn 0.7176 0.3190 -0.6191
vn 0.9778 0.0687 -0.1980
vn -0.2140 0.3909 -0.8952
vn -0.5375 0.4886 -0.6873
vn -0.5416 0.5084 -0.6695
vn -0.0577 -0.0441 -0.9974
vn -0.9764 0.2161 -0.0047
vn -0.9028 0.4066 0.1403
vn -0.9013 0.4097 0.1405
vn -0.6871 0.4281 0.5871
vn -0.7758 0.3616 0.5170
vn -0.9752 0.1300 0.1793
vn 0.0026 1.0000 -0.0033
vn 0.5788 0.5069 0.6388
vn 0.2090 0.2122 0.9546
vn 0.5767 0.4195 0.7010
vn 0.5022 0.5710 0.6494
vn 0.7938 0.3899 -0.4668
vn 0.9663 0.2522 -0.0515
vn 0.7155 0.4326 -0.5486
vn -0.0004 0.2192 -0.9757
vn -0.4454 0.2127 -0.8697
vn -0.4584 0.5894 -0.6651
vn -0.3163 0.4992 -0.8067
vn 0.0208 0.0565 -0.9982
vn -0.9896 -0.0416 0.1376
vn -0.7774 0.5422 0.3187
vn -0.6725 0.5109 0.5355
vn -0.7649 0.5114 0.3917
vn 0.9772 0.2115 -0.0176
vn -0.8217 0.2240 0.5240
# 41 vertex normals

vt 0.7006 0.4740 0.0000
vt 0.7535 0.4730 0.0000
vt 0.7016 0.5250 0.0000
vt 0.7516 0.4750 0.0000
vt 0.7168 0.5260 0.0000
vt 0.7010 0.4750 0.0000
vt 0.7516 0.5248 0.0000
vt 0.7225 0.4893 0.0000
vt 0.7532 0.4750 0.0000
vt 0.7516 0.5250 0.0000
vt 0.7016 0.4923 0.0000
vt 0.7016 0.5192 0.0000
vt 0.7016 0.5048 0.0000
vt 0.7018 0.4875 0.0000
vt 0.7016 0.5037 0.0000
vt 0.7364 0.4750 0.0000
vt 0.7266 0.5250 0.0000
vt 0.7266 0.4750 0.0000
vt 0.7016 0.5121 0.0000
vt 0.7103 0.4749 0.0000
vt 0.7020 0.5251 0.0000
vt 0.7173 0.4750 0.0000
vt 0.7453 0.4750 0.0000
vt 0.7183 0.4914 0.0000
vt 0.7264 0.4758 0.0000
vt 0.7016 0.5067 0.0000
vt 0.7016 0.5256 0.0000
vt 0.7093 0.4750 0.0000
vt 0.7016 0.5111 0.0000
vt 0.7020 0.4769 0.0000
vt 0.7259 0.5250 0.0000
vt 0.7353 0.4750 0.0000
vt 0.7004 0.4726 0.0000
vt 0.7516 0.5000 0.0000
vt 0.7016 0.4750 0.0000
vt 0.7214 0.5250 0.0000
vt 0.7516 0.4767 0.0000
vt 0.7516 0.4897 0.0000
vt 0.7516 0.4966 0.0000
vt 0.7352 0.5250 0.0000
vt 0.7516 0.4862 0.0000
vt 0.7130 0.5250 0.0000
vt 0.7193 0.5250 0.0000
vt 0.7516 0.5119 0.0000
vt 0.7516 0.4881 0.0000
vt 0.7495 0.5250 0.0000
vt 0.7183 0.5250 0.0000
vt 0.7024 0.4750 0.0000
vt 0.7202 0.4970 0.0000
vt 0.7248 0.5250 0.0000
# 50 texture coords

g SPW_Natures_Stone_07
usemtl SPW_Natures_01
s off
f 1/1/1 2/2/1 3/3/1 
f 4/4/2 5/5/2 6/6/2 
f 4/4/3 7/7/3 5/8/3 
f 8/9/4 6/10/4 5/3/4 
f 9/4/5 5/10/5 10/11/5 
f 11/4/6 8/10/6 5/12/6 
f 12/4/7 11/10/7 9/13/7 
f 3/4/8 12/10/8 13/14/8 
f 14/4/9 15/10/9 7/15/9 
f 2/16/10 16/4/10 14/17/10 
f 1/18/11 13/10/11 2/2/11 
f 13/4/12 10/10/12 16/19/12 
f 17/20/13 18/10/13 4/21/13 
f 19/22/14 2/23/14 20/17/14 
f 2/18/15 21/10/15 20/24/15 
f 21/25/16 7/10/16 18/26/16 
f 6/27/17 22/4/17 4/10/17 
f 8/28/18 22/10/18 6/3/18 
f 23/4/19 22/10/19 8/29/19 
f 3/30/20 19/4/20 23/31/20 
f 19/22/21 20/10/21 23/3/21 
f 20/32/22 17/10/22 22/3/22 
f 19/3/23 3/33/23 2/34/23 
f 13/35/24 9/4/24 10/36/24 
f 9/35/25 11/37/25 5/3/25 
f 1/35/26 3/38/26 13/3/26 
f 13/35/27 12/39/27 9/3/27 
f 14/35/28 16/4/28 15/40/28 
f 15/35/29 16/4/29 10/17/29 
f 2/35/30 13/41/30 16/3/30 
f 18/35/31 7/4/31 4/42/31 
f 17/35/32 21/4/32 18/43/32 
f 20/35/33 21/44/33 17/3/33 
f 2/23/34 14/45/34 21/3/34 
f 21/35/35 14/4/35 7/46/35 
f 22/35/36 17/4/36 4/47/36 
f 11/3/37 12/48/37 8/10/37 
f 12/3/38 3/18/38 8/10/38 
f 8/3/39 3/35/39 23/34/39 
f 15/35/40 10/4/40 5/49/40 7/7/40 
f 23/35/41 20/4/41 22/50/41 
# 1 polygons - 40 triangles

