# 3ds Max Wavefront OBJ Exporter v0.97b - (c)2007 guruware
# File Created: 15.03.2017 11:55:07

mtllib SPW_Vehicle_Land_Static_Muscle Car.mtl

#
# object SPW_Vehicle_Land_Static_Muscle_Car
#

v  -49.3672 39.3399 -73.4633
v  -33.8628 39.3399 -73.4633
v  -33.8628 36.7026 -83.3058
v  -49.3672 36.7026 -83.3058
v  -33.8628 29.4973 -90.5111
v  -49.3672 29.4973 -90.5111
v  -33.8628 19.6548 -93.1484
v  -49.3672 19.6548 -93.1484
v  -33.8628 9.8123 -90.5111
v  -49.3672 9.8123 -90.5111
v  -33.8628 2.6071 -83.3058
v  -49.3672 2.6071 -83.3058
v  -33.8628 -0.0302 -73.4633
v  -49.3672 -0.0302 -73.4633
v  -33.8628 2.6071 -63.6208
v  -49.3672 2.6071 -63.6208
v  -33.8628 9.8123 -56.4156
v  -49.3672 9.8123 -56.4156
v  -33.8628 19.6548 -53.7783
v  -49.3672 19.6548 -53.7783
v  -33.8628 29.4973 -56.4156
v  -49.3672 29.4973 -56.4156
v  -33.8628 36.7026 -63.6208
v  -49.3672 36.7026 -63.6208
v  -49.3672 39.3398 74.5092
v  -33.8628 39.3398 74.5092
v  -33.8628 36.7025 64.6667
v  -49.3672 36.7025 64.6667
v  -33.8628 29.4973 57.4615
v  -49.3672 29.4973 57.4614
v  -33.8628 19.6548 54.8242
v  -49.3672 19.6548 54.8242
v  -33.8628 9.8123 57.4614
v  -49.3672 9.8123 57.4614
v  -33.8628 2.6071 64.6667
v  -49.3672 2.6071 64.6667
v  -33.8628 -0.0302 74.5092
v  -49.3672 -0.0302 74.5092
v  -33.8628 2.6071 84.3517
v  -49.3672 2.6071 84.3517
v  -33.8628 9.8123 91.5569
v  -49.3672 9.8123 91.5569
v  -33.8628 19.6548 94.1943
v  -49.3672 19.6548 94.1943
v  -33.8628 29.4973 91.5570
v  -49.3672 29.4973 91.5570
v  -33.8628 36.7025 84.3517
v  -49.3672 36.7025 84.3517
v  33.8516 39.3399 -73.4633
v  49.3560 39.3399 -73.4633
v  49.3560 36.7026 -83.3058
v  33.8516 36.7026 -83.3058
v  49.3560 29.4973 -90.5111
v  33.8516 29.4973 -90.5111
v  49.3560 19.6548 -93.1484
v  33.8517 19.6548 -93.1484
v  49.3560 9.8123 -90.5111
v  33.8517 9.8123 -90.5111
v  49.3560 2.6071 -83.3058
v  33.8517 2.6071 -83.3058
v  49.3560 -0.0302 -73.4633
v  33.8516 -0.0302 -73.4633
v  49.3560 2.6071 -63.6208
v  33.8517 2.6071 -63.6208
v  49.3560 9.8123 -56.4156
v  33.8517 9.8123 -56.4156
v  49.3560 19.6548 -53.7783
v  33.8517 19.6548 -53.7783
v  49.3560 29.4973 -56.4156
v  33.8517 29.4973 -56.4156
v  49.3560 36.7026 -63.6208
v  33.8516 36.7026 -63.6208
v  33.8517 39.3398 74.5092
v  49.3560 39.3398 74.5092
v  49.3560 36.7025 64.6667
v  33.8517 36.7025 64.6667
v  49.3560 29.4973 57.4615
v  33.8517 29.4973 57.4615
v  49.3560 19.6548 54.8242
v  33.8517 19.6548 54.8242
v  49.3560 9.8123 57.4615
v  33.8517 9.8123 57.4615
v  49.3560 2.6071 64.6667
v  33.8517 2.6071 64.6667
v  49.3560 -0.0302 74.5092
v  33.8517 -0.0302 74.5092
v  49.3560 2.6071 84.3517
v  33.8517 2.6071 84.3517
v  49.3560 9.8123 91.5570
v  33.8517 9.8123 91.5570
v  49.3560 19.6548 94.1943
v  33.8517 19.6548 94.1943
v  49.3560 29.4973 91.5570
v  33.8517 29.4973 91.5570
v  49.3560 36.7025 84.3517
v  33.8517 36.7025 84.3517
v  53.7288 62.2657 46.0846
v  48.2233 59.7825 47.5598
v  48.6904 58.6724 47.4346
v  54.1960 61.1557 45.9594
v  47.9099 59.7825 46.3902
v  48.3770 58.6724 46.2650
v  53.4154 62.2657 44.9150
v  53.8826 61.1557 44.7898
v  59.8457 64.0189 44.5346
v  51.8129 64.0189 46.6870
v  51.8129 59.3018 46.6870
v  59.8457 60.2242 44.5346
v  50.7438 64.7487 45.5681
v  50.7438 58.5720 45.5681
v  60.2121 64.7487 43.0311
v  60.2121 59.4943 43.0311
v  -51.7945 64.0189 46.7789
v  -59.8274 64.0189 44.6265
v  -59.8274 60.0932 44.6265
v  -51.7945 59.3036 46.7789
v  -60.1937 64.7487 43.1230
v  -60.1937 59.3633 43.1230
v  -50.7255 64.7487 45.6600
v  -50.7255 58.5738 45.6600
v  -53.7400 62.2657 44.9150
v  -48.2345 59.7825 46.3902
v  -48.7017 58.6724 46.2650
v  -54.2072 61.1557 44.7898
v  -48.5479 59.7825 47.5598
v  -49.0151 58.6724 47.4346
v  -54.0534 62.2657 46.0846
v  -54.5206 61.1557 45.9594
v  -41.8522 91.0817 21.0156
v  -44.7967 91.0817 21.0156
v  -44.7967 89.2970 21.0156
v  -41.8522 89.2970 21.0156
v  -44.7967 91.0817 -18.1721
v  -44.7967 89.2970 -18.1721
v  -41.8522 91.0817 -18.1721
v  -41.8522 89.2970 -18.1721
v  44.7855 91.0817 21.0156
v  41.8410 91.0817 21.0156
v  41.8410 89.2970 21.0156
v  44.7855 89.2970 21.0156
v  41.8410 91.0817 -18.1721
v  41.8410 89.2970 -18.1721
v  44.7855 91.0817 -18.1721
v  44.7855 89.2970 -18.1721
v  16.5040 104.8661 -20.1342
v  16.5040 104.8661 -24.9706
v  17.4756 101.8757 -24.9706
v  17.4756 101.8757 -20.1342
v  20.0195 100.0274 -24.9706
v  20.0195 100.0274 -20.1342
v  23.1639 100.0274 -24.9706
v  23.1639 100.0274 -20.1342
v  25.7077 101.8757 -24.9706
v  25.7077 101.8757 -20.1342
v  26.6794 104.8661 -24.9706
v  26.6794 104.8661 -20.1342
v  25.7077 107.8566 -24.9706
v  25.7077 107.8566 -20.1341
v  23.1639 109.7048 -24.9706
v  23.1639 109.7048 -20.1341
v  20.0195 109.7048 -24.9706
v  20.0195 109.7048 -20.1341
v  17.4756 107.8566 -24.9706
v  17.4756 107.8566 -20.1341
v  18.3187 104.8661 -20.1342
v  18.9438 106.7899 -20.1342
v  18.9438 102.9423 -20.1342
v  20.5803 101.7533 -20.1342
v  22.6031 101.7533 -20.1342
v  24.2396 102.9423 -20.1342
v  24.8647 104.8661 -20.1342
v  24.2396 106.7899 -20.1341
v  22.6031 107.9789 -20.1341
v  20.5803 107.9789 -20.1341
v  2.3308 104.8661 -20.1342
v  2.3308 104.8661 -24.9706
v  3.3024 101.8757 -24.9706
v  3.3024 101.8756 -20.1342
v  5.8463 100.0274 -24.9706
v  5.8463 100.0274 -20.1342
v  8.9907 100.0274 -24.9706
v  8.9907 100.0274 -20.1342
v  11.5345 101.8757 -24.9706
v  11.5345 101.8756 -20.1342
v  12.5062 104.8661 -24.9706
v  12.5062 104.8661 -20.1342
v  11.5345 107.8566 -24.9706
v  11.5345 107.8566 -20.1341
v  8.9907 109.7048 -24.9706
v  8.9907 109.7048 -20.1341
v  5.8463 109.7048 -24.9706
v  5.8463 109.7048 -20.1341
v  3.3024 107.8566 -24.9706
v  3.3024 107.8566 -20.1342
v  4.1455 104.8661 -20.1342
v  4.7706 106.7899 -20.1342
v  4.7706 102.9423 -20.1342
v  6.4071 101.7533 -20.1342
v  8.4299 101.7533 -20.1342
v  10.0664 102.9423 -20.1342
v  10.6914 104.8661 -20.1342
v  10.0664 106.7899 -20.1342
v  8.4299 107.9789 -20.1342
v  6.4071 107.9789 -20.1342
v  -26.6906 104.8661 -20.1342
v  -26.6906 104.8661 -24.9706
v  -25.7189 101.8757 -24.9706
v  -25.7189 101.8756 -20.1341
v  -23.1751 100.0274 -24.9706
v  -23.1751 100.0274 -20.1341
v  -20.0307 100.0274 -24.9706
v  -20.0307 100.0274 -20.1341
v  -17.4869 101.8757 -24.9706
v  -17.4869 101.8756 -20.1342
v  -16.5152 104.8661 -24.9706
v  -16.5152 104.8661 -20.1342
v  -17.4869 107.8566 -24.9706
v  -17.4869 107.8566 -20.1342
v  -20.0307 109.7048 -24.9706
v  -20.0307 109.7048 -20.1342
v  -23.1751 109.7048 -24.9706
v  -23.1751 109.7048 -20.1342
v  -25.7189 107.8566 -24.9706
v  -25.7189 107.8566 -20.1342
v  -24.8759 104.8661 -20.1342
v  -24.2508 106.7899 -20.1342
v  -24.2508 102.9423 -20.1342
v  -22.6143 101.7533 -20.1341
v  -20.5915 101.7533 -20.1341
v  -18.9550 102.9423 -20.1342
v  -18.3299 104.8661 -20.1342
v  -18.9550 106.7899 -20.1342
v  -20.5915 107.9789 -20.1342
v  -22.6143 107.9789 -20.1342
v  -12.5174 104.8661 -20.1342
v  -12.5174 104.8661 -24.9706
v  -11.5458 101.8757 -24.9706
v  -11.5458 101.8756 -20.1342
v  -9.0019 100.0274 -24.9706
v  -9.0019 100.0274 -20.1342
v  -5.8575 100.0274 -24.9706
v  -5.8575 100.0274 -20.1342
v  -3.3137 101.8757 -24.9706
v  -3.3137 101.8756 -20.1342
v  -2.3420 104.8661 -24.9706
v  -2.3420 104.8661 -20.1342
v  -3.3137 107.8566 -24.9706
v  -3.3137 107.8566 -20.1342
v  -5.8575 109.7048 -24.9706
v  -5.8575 109.7048 -20.1341
v  -9.0019 109.7048 -24.9706
v  -9.0019 109.7048 -20.1342
v  -11.5458 107.8566 -24.9706
v  -11.5458 107.8566 -20.1342
v  -10.7027 104.8661 -20.1342
v  -10.0776 106.7899 -20.1342
v  -10.0776 102.9423 -20.1342
v  -8.4411 101.7533 -20.1342
v  -6.4183 101.7533 -20.1342
v  -4.7818 102.9423 -20.1342
v  -4.1568 104.8661 -20.1342
v  -4.7818 106.7899 -20.1342
v  -6.4183 107.9789 -20.1342
v  -8.4411 107.9789 -20.1342
v  -49.0523 61.7758 -51.6148
v  -48.8711 61.7758 -52.4089
v  -48.3632 61.7758 -53.0458
v  -47.6294 61.7758 -53.3992
v  -46.8148 61.7758 -53.3992
v  -46.0809 61.7758 -53.0458
v  -45.5731 61.7758 -52.4089
v  -45.3918 61.7758 -51.6148
v  -45.5731 61.7758 -50.8207
v  -46.0809 61.7758 -50.1839
v  -46.8148 61.7758 -49.8305
v  -47.6294 61.7758 -49.8305
v  -48.3632 61.7758 -50.1839
v  -48.8711 61.7758 -50.8207
v  -48.6725 92.4250 -25.2025
v  -49.1804 92.4250 -25.8394
v  -49.3616 92.4250 -26.6335
v  -47.9387 92.4250 -24.8491
v  -47.1241 92.4250 -24.8491
v  -46.3902 92.4250 -25.2025
v  -45.8824 92.4250 -25.8394
v  -45.7011 92.4250 -26.6335
v  -45.8824 92.4250 -27.4276
v  -46.3902 92.4250 -28.0644
v  -47.1241 92.4250 -28.4178
v  -47.9387 92.4250 -28.4178
v  -48.6725 92.4250 -28.0644
v  -49.1804 92.4250 -27.4276
v  45.3807 61.7758 -51.6148
v  45.5619 61.7758 -52.4089
v  46.0698 61.7758 -53.0458
v  46.8036 61.7758 -53.3992
v  47.6182 61.7758 -53.3992
v  48.3521 61.7758 -53.0458
v  48.8599 61.7758 -52.4089
v  49.0412 61.7758 -51.6148
v  48.8599 61.7758 -50.8207
v  48.3521 61.7758 -50.1839
v  47.6182 61.7758 -49.8305
v  46.8036 61.7758 -49.8305
v  46.0698 61.7758 -50.1839
v  45.5619 61.7758 -50.8207
v  45.7605 92.4250 -25.2025
v  45.2526 92.4250 -25.8394
v  45.0714 92.4250 -26.6335
v  46.4943 92.4250 -24.8491
v  47.3089 92.4250 -24.8491
v  48.0427 92.4250 -25.2025
v  48.5506 92.4250 -25.8394
v  48.7318 92.4250 -26.6335
v  48.5506 92.4250 -27.4276
v  48.0427 92.4250 -28.0644
v  47.3089 92.4250 -28.4178
v  46.4943 92.4250 -28.4178
v  45.7605 92.4250 -28.0644
v  45.2526 92.4250 -27.4276
v  -45.1189 61.7822 -26.5922
v  -45.1189 90.7728 -26.5921
v  -45.3290 90.7728 -25.6717
v  -45.3290 61.7822 -25.6717
v  -45.9176 90.7728 -24.9336
v  -45.9176 61.7822 -24.9336
v  -46.7682 90.7728 -24.5240
v  -46.7682 61.7822 -24.5240
v  -47.7122 90.7728 -24.5240
v  -47.7122 61.7822 -24.5240
v  -48.5628 90.7728 -24.9336
v  -48.5628 61.7822 -24.9336
v  -49.1515 90.7728 -25.6717
v  -49.1515 61.7822 -25.6717
v  -49.3615 90.7728 -26.5921
v  -49.3615 61.7822 -26.5922
v  -49.1515 90.7728 -27.5126
v  -49.1515 61.7822 -27.5126
v  -48.5628 90.7728 -28.2507
v  -48.5628 61.7822 -28.2507
v  -47.7122 90.7728 -28.6603
v  -47.7122 61.7822 -28.6603
v  -46.7682 90.7728 -28.6603
v  -46.7682 61.7822 -28.6603
v  -45.9176 90.7728 -28.2507
v  -45.9176 61.7822 -28.2507
v  -45.3290 90.7728 -27.5126
v  -44.7979 93.4562 -27.5126
v  -44.5966 93.3959 -26.5922
v  -45.3290 61.7822 -27.5126
v  -43.5140 95.8841 -27.5126
v  -43.3811 95.7214 -26.5922
v  -45.3618 93.6250 -28.2507
v  -46.1766 93.8690 -28.6603
v  -47.0810 94.1398 -28.6603
v  -47.8958 94.3838 -28.2507
v  -48.4597 94.5527 -27.5126
v  -48.6610 94.6129 -26.5922
v  -48.4597 94.5527 -25.6717
v  -47.8958 94.3838 -24.9336
v  -47.0810 94.1398 -24.5240
v  -46.1766 93.8690 -24.5240
v  -45.3618 93.6250 -24.9336
v  -44.7979 93.4562 -25.6717
v  -40.4217 97.8715 -27.5126
v  -40.3364 97.6795 -26.5921
v  -43.8864 96.3399 -28.2507
v  -44.4245 96.9987 -28.6603
v  -45.0218 97.7298 -28.6603
v  -45.5599 98.3885 -28.2507
v  -45.9323 98.8444 -27.5126
v  -46.0652 99.0071 -26.5921
v  -45.9323 98.8444 -25.6717
v  -45.5599 98.3885 -24.9336
v  -45.0218 97.7298 -24.5240
v  -44.4245 96.9987 -24.5240
v  -43.8864 96.3399 -24.9336
v  -43.5140 95.8841 -25.6717
v  -37.6933 98.3992 -27.5126
v  -37.6921 98.1891 -26.5921
v  -40.6605 98.4095 -28.2507
v  -41.0057 99.1869 -28.6603
v  -41.3888 100.0498 -28.6603
v  -41.7340 100.8272 -28.2507
v  -41.9729 101.3651 -27.5126
v  -42.0581 101.5571 -26.5921
v  -41.9729 101.3651 -25.6717
v  -41.7340 100.8272 -24.9336
v  -41.3888 100.0498 -24.5240
v  -41.0057 99.1869 -24.5240
v  -40.6605 98.4095 -24.9336
v  -40.4217 97.8715 -25.6717
v  23.7324 98.4752 -27.5126
v  23.7335 98.2652 -26.5921
v  -37.6964 98.9878 -28.2507
v  -37.7009 99.8384 -28.6603
v  -37.7059 100.7824 -28.6603
v  -37.7104 101.6330 -28.2507
v  -37.7135 102.2216 -27.5126
v  -37.7146 102.4317 -26.5921
v  -37.7135 102.2216 -25.6717
v  -37.7104 101.6330 -24.9336
v  -37.7059 100.7824 -24.5240
v  -37.7009 99.8384 -24.5240
v  -37.6964 98.9878 -24.9336
v  -37.6933 98.3992 -25.6717
v  23.7324 98.4752 -25.6717
v  23.7293 99.0639 -28.2507
v  23.7248 99.9144 -28.6603
v  23.7197 100.8585 -28.6603
v  23.7152 101.7090 -28.2507
v  23.7121 102.2977 -27.5126
v  23.7110 102.5077 -26.5921
v  23.7121 102.2977 -25.6717
v  23.7152 101.7090 -24.9336
v  23.7197 100.8585 -24.5240
v  23.7248 99.9144 -24.5240
v  23.7293 99.0639 -24.9336
v  45.1079 61.7799 -26.5922
v  45.1079 90.7728 -26.5921
v  45.3179 90.7728 -27.5126
v  45.3179 61.7799 -27.5126
v  45.9066 90.7728 -28.2507
v  45.9066 61.7799 -28.2507
v  46.7571 90.7728 -28.6603
v  46.7571 61.7799 -28.6603
v  47.7012 90.7728 -28.6603
v  47.7012 61.7799 -28.6603
v  48.5518 90.7728 -28.2507
v  48.5518 61.7799 -28.2507
v  49.1404 90.7728 -27.5126
v  49.1404 61.7799 -27.5126
v  49.3505 90.7728 -26.5921
v  49.3505 61.7799 -26.5922
v  49.1404 90.7728 -25.6717
v  49.1404 61.7799 -25.6717
v  48.5518 90.7728 -24.9336
v  48.5518 61.7799 -24.9336
v  47.7012 90.7728 -24.5240
v  47.7012 61.7799 -24.5240
v  46.7571 90.7728 -24.5240
v  46.7571 61.7799 -24.5240
v  45.9065 90.7728 -24.9336
v  45.9065 61.7799 -24.9336
v  45.3179 90.7728 -25.6717
v  44.7868 93.4562 -25.6717
v  44.5856 93.3959 -26.5921
v  45.3179 61.7799 -25.6717
v  43.5030 95.8841 -25.6717
v  43.3701 95.7214 -26.5922
v  45.3507 93.6250 -24.9336
v  46.1656 93.8690 -24.5240
v  47.0700 94.1398 -24.5240
v  47.8848 94.3838 -24.9336
v  48.4487 94.5527 -25.6717
v  48.6500 94.6129 -26.5922
v  48.4487 94.5527 -27.5126
v  47.8848 94.3838 -28.2507
v  47.0700 94.1398 -28.6603
v  46.1656 93.8690 -28.6603
v  45.3507 93.6250 -28.2507
v  44.7868 93.4562 -27.5126
v  40.4106 97.8715 -25.6717
v  40.3254 97.6795 -26.5921
v  43.8754 96.3399 -24.9336
v  44.4135 96.9987 -24.5240
v  45.0107 97.7298 -24.5240
v  45.5488 98.3885 -24.9336
v  45.9212 98.8444 -25.6717
v  46.0541 99.0071 -26.5921
v  45.9212 98.8444 -27.5126
v  45.5488 98.3885 -28.2507
v  45.0107 97.7298 -28.6603
v  44.4135 96.9987 -28.6603
v  43.8754 96.3399 -28.2507
v  43.5030 95.8841 -27.5126
v  37.6822 98.3992 -25.6717
v  37.6811 98.1891 -26.5922
v  40.6495 98.4095 -24.9336
v  40.9947 99.1869 -24.5240
v  41.3778 100.0498 -24.5240
v  41.7230 100.8272 -24.9336
v  41.9618 101.3651 -25.6717
v  42.0471 101.5571 -26.5921
v  41.9618 101.3651 -27.5126
v  41.7230 100.8272 -28.2507
v  41.3778 100.0498 -28.6603
v  40.9947 99.1869 -28.6603
v  40.6495 98.4095 -28.2507
v  40.4106 97.8715 -27.5126
v  23.3405 98.4752 -25.6717
v  23.3394 98.2652 -26.5921
v  37.6854 98.9878 -24.9336
v  37.6899 99.8384 -24.5240
v  37.6949 100.7824 -24.5240
v  37.6994 101.6330 -24.9336
v  37.7025 102.2216 -25.6717
v  37.7036 102.4317 -26.5921
v  37.7025 102.2216 -27.5126
v  37.6994 101.6330 -28.2507
v  37.6949 100.7824 -28.6603
v  37.6899 99.8384 -28.6603
v  37.6854 98.9878 -28.2507
v  37.6822 98.3992 -27.5126
v  23.3405 98.4752 -27.5126
v  23.3436 99.0639 -24.9336
v  23.3481 99.9144 -24.5240
v  23.3531 100.8585 -24.5240
v  23.3576 101.7091 -24.9336
v  23.3608 102.2977 -25.6717
v  23.3619 102.5077 -26.5921
v  23.3608 102.2977 -27.5126
v  23.3576 101.7091 -28.2507
v  23.3531 100.8585 -28.6603
v  23.3481 99.9144 -28.6603
v  23.3436 99.0639 -28.2507
v  5.9031 62.2040 93.0875
v  -5.9142 62.2040 93.0875
v  -5.9142 50.3867 93.0875
v  5.9031 50.3867 93.0875
v  -5.9142 62.2040 71.6898
v  -5.9142 50.3867 71.6898
v  5.9031 62.2040 71.6898
v  5.9031 50.3867 71.6898
v  -3.1550 71.7553 77.3106
v  -3.1550 65.3793 77.3106
v  -2.2212 65.3793 79.5648
v  -2.2212 71.7553 79.5648
v  0.0330 65.3793 80.4986
v  0.0330 71.7553 80.4986
v  2.2872 65.3793 79.5648
v  2.2872 71.7553 79.5648
v  3.2210 65.3793 77.3106
v  3.2210 71.7553 77.3106
v  2.2872 65.3793 75.0564
v  2.2872 71.7553 75.0564
v  0.0330 65.3793 74.1226
v  0.0330 71.7553 74.1227
v  -2.2212 65.3793 75.0564
v  -2.2212 71.7553 75.0564
v  -3.1549 71.7553 85.2424
v  -3.1550 65.3793 85.2424
v  -2.2212 65.3793 87.4967
v  -2.2212 71.7553 87.4967
v  0.0330 65.3793 88.4304
v  0.0330 71.7553 88.4304
v  2.2872 65.3793 87.4967
v  2.2872 71.7553 87.4967
v  3.2210 65.3793 85.2424
v  3.2210 71.7553 85.2424
v  2.2872 65.3793 82.9882
v  2.2872 71.7553 82.9882
v  0.0330 65.3793 82.0545
v  0.0330 71.7553 82.0545
v  -2.2212 65.3793 82.9882
v  -2.2212 71.7553 82.9882
v  2.7897 66.1185 92.8838
v  2.7897 66.1185 88.7828
v  3.3902 64.6686 88.7828
v  3.3902 64.6686 92.8838
v  4.8402 64.0680 88.7828
v  4.8402 64.0680 92.8838
v  6.2901 64.6686 88.7828
v  6.2901 64.6686 92.8838
v  6.8907 66.1185 88.7828
v  6.8907 66.1185 92.8838
v  6.2901 67.5684 88.7828
v  6.2901 67.5684 92.8838
v  4.8402 68.1690 88.7828
v  4.8402 68.1690 92.8838
v  3.3902 67.5684 88.7828
v  3.3902 67.5684 92.8838
v  -2.0561 66.1185 92.8838
v  -2.0561 66.1185 88.7828
v  -1.4556 64.6686 88.7828
v  -1.4556 64.6686 92.8838
v  -0.0056 64.0680 88.7828
v  -0.0056 64.0680 92.8838
v  1.4443 64.6686 88.7828
v  1.4443 64.6686 92.8838
v  2.0449 66.1185 88.7828
v  2.0449 66.1185 92.8838
v  1.4443 67.5684 88.7828
v  1.4443 67.5684 92.8838
v  -0.0056 68.1690 88.7828
v  -0.0056 68.1690 92.8838
v  -1.4556 67.5684 88.7828
v  -1.4556 67.5684 92.8838
v  -6.8154 66.1185 92.8838
v  -6.8154 66.1185 88.7828
v  -6.2148 64.6686 88.7828
v  -6.2148 64.6686 92.8838
v  -4.7649 64.0680 88.7828
v  -4.7649 64.0680 92.8838
v  -3.3150 64.6686 88.7828
v  -3.3150 64.6686 92.8838
v  -2.7144 66.1185 88.7828
v  -2.7144 66.1185 92.8838
v  -3.3150 67.5684 88.7828
v  -3.3150 67.5684 92.8838
v  -4.7649 68.1690 88.7828
v  -4.7649 68.1690 92.8838
v  -6.2148 67.5684 88.7828
v  -6.2148 67.5684 92.8838
v  -3.5880 70.6705 94.4758
v  -3.5880 70.6704 70.4508
v  -8.7077 68.3450 70.4508
v  -8.7077 68.3450 94.4758
v  -8.7298 63.8363 70.4508
v  -8.7298 63.8363 94.4758
v  -3.6413 61.4965 70.4508
v  -3.6413 61.4965 94.4758
v  3.5769 61.4864 70.4508
v  3.5769 61.4864 94.4758
v  8.6966 63.8119 70.4508
v  8.6966 63.8119 94.4758
v  8.7187 68.3206 70.4508
v  8.7187 68.3206 94.4758
v  3.6303 70.6603 70.4508
v  3.6303 70.6603 94.4758
v  -3.0712 70.0080 94.4758
v  3.1058 69.9994 94.4758
v  -2.4641 69.2299 90.4051
v  2.4897 69.2230 90.4051
v  7.4602 67.9972 94.4758
v  7.4413 64.1388 94.4758
v  3.0601 62.1488 94.4758
v  -3.1169 62.1575 94.4758
v  -7.4713 64.1597 94.4758
v  -7.4523 68.0180 94.4758
v  -5.9777 67.6339 90.4051
v  -5.9929 64.5397 90.4051
v  -2.5008 62.9339 90.4051
v  2.4530 62.9270 90.4051
v  5.9666 64.5229 90.4051
v  5.9818 67.6172 90.4051
v  -45.7421 22.4474 52.2685
v  -50.0217 22.4474 52.2685
v  -50.0217 18.1679 52.2685
v  -45.7421 18.1679 52.2685
v  -50.0217 22.4475 -51.1515
v  -50.0217 18.1679 -51.1515
v  -45.7422 22.4475 -51.1515
v  -45.7422 18.1679 -51.1515
v  50.0106 22.4474 52.2685
v  45.7311 22.4474 52.2685
v  45.7311 18.1679 52.2685
v  50.0106 18.1679 52.2685
v  45.7311 22.4475 -51.1515
v  45.7311 18.1679 -51.1515
v  50.0106 22.4475 -51.1515
v  50.0106 18.1679 -51.1515
v  15.3437 39.3066 123.8300
v  -15.3548 39.3066 123.8300
v  -15.3548 37.4745 123.8300
v  15.3437 37.4745 123.8300
v  -15.3548 39.3066 121.9979
v  -15.3548 37.4745 121.9979
v  15.3437 39.3066 121.9979
v  15.3437 37.4745 121.9979
v  15.3437 22.3150 123.8300
v  -15.3548 22.3150 123.8300
v  -15.3548 20.4829 123.8300
v  15.3437 20.4829 123.8300
v  -15.3548 22.3150 121.9979
v  -15.3548 20.4829 121.9979
v  15.3437 22.3150 121.9979
v  15.3437 20.4829 121.9979
v  16.8435 42.1882 126.3079
v  14.6414 42.1882 126.3079
v  14.6414 19.4888 126.3079
v  16.8435 19.4888 126.3079
v  14.6414 42.1882 120.7201
v  14.6414 19.4888 120.7201
v  16.8435 42.1882 120.7201
v  16.8435 19.4888 120.7201
v  16.8435 45.5096 120.7201
v  16.8435 45.5096 123.4642
v  14.6414 45.5096 120.7201
v  14.6414 45.5096 123.4642
v  -14.6525 42.1882 126.3079
v  -16.8546 42.1882 126.3079
v  -16.8546 19.4888 126.3079
v  -14.6525 19.4888 126.3079
v  -16.8546 42.1882 120.7201
v  -16.8546 19.4888 120.7201
v  -14.6525 42.1882 120.7201
v  -14.6525 19.4888 120.7201
v  -14.6525 45.5096 120.7201
v  -14.6525 45.5096 123.4642
v  -16.8546 45.5096 120.7201
v  -16.8546 45.5096 123.4642
v  -46.2413 54.0085 -1.6172
v  -49.6785 54.0085 -1.6172
v  -49.6785 52.1735 -1.6172
v  -46.2413 52.1735 -1.6172
v  -49.6785 54.0085 -10.3939
v  -49.6785 52.1735 -10.3939
v  -46.2413 54.0085 -10.3939
v  -46.2413 52.1735 -10.3939
v  49.6673 54.0085 -1.6172
v  46.2300 54.0085 -1.6172
v  46.2300 52.1735 -1.6172
v  49.6673 52.1735 -1.6172
v  46.2300 54.0085 -10.3939
v  46.2300 52.1735 -10.3939
v  49.6673 54.0085 -10.3939
v  49.6673 52.1735 -10.3939
v  51.9744 33.0428 123.7758
v  -51.9855 33.0428 123.7758
v  -51.9855 30.7669 123.7758
v  51.9744 30.7669 123.7758
v  -51.9855 33.0428 111.7505
v  -51.9855 30.7669 111.7505
v  51.9744 33.0428 111.7505
v  51.9744 30.7669 111.7505
v  51.4483 30.9468 -115.4362
v  -51.4594 30.9468 -115.4362
v  -51.4594 23.1037 -115.4362
v  51.4483 23.1037 -115.4362
v  -51.4594 30.9468 -126.8901
v  -51.4594 23.1037 -126.8901
v  51.4483 30.9468 -126.8901
v  51.4483 23.1037 -126.8901
v  51.4483 30.9468 123.1944
v  -51.4594 30.9468 123.1944
v  -51.4594 23.1036 123.1944
v  51.4483 23.1036 123.1944
v  -51.4594 30.9468 111.7406
v  -51.4594 23.1036 111.7406
v  51.4483 30.9468 111.7406
v  51.4483 23.1036 111.7406
v  -49.2182 52.7257 -83.9211
v  -49.2182 52.7257 -122.4041
v  -49.2181 23.5318 -124.6684
v  -49.2181 19.6548 -100.7698
v  -49.2181 19.6548 -96.9192
v  -49.2181 31.4658 -93.7545
v  -49.2182 40.1121 -85.1082
v  -49.2182 43.2769 -73.2972
v  -49.2182 52.7257 100.3326
v  -49.2182 40.1121 62.8622
v  -49.2182 31.4658 -52.8399
v  -49.2182 19.6548 -49.6751
v  -49.2182 19.6548 51.0512
v  -49.2182 40.1121 -61.4862
v  -49.2182 31.4658 54.2160
v  -49.2182 43.2769 74.6733
v  -49.2182 40.1121 86.4843
v  -49.2182 31.4658 95.1306
v  -49.2182 19.6548 98.2953
v  -49.2182 19.6548 100.3326
v  -49.2181 61.7698 -17.6612
v  -49.2181 89.0041 -15.4858
v  -49.2181 89.0041 -21.2537
v  -49.2181 61.8037 -23.4291
v  -49.2181 61.8037 -122.4041
v  -49.2182 52.7257 120.8052
v  -49.2182 54.8865 120.8052
v  -49.2182 60.9934 49.9391
v  -49.2182 61.7698 46.7738
v  49.2070 52.7257 -122.4041
v  49.2071 23.5318 -124.6684
v  49.2071 19.6548 -100.7698
v  -49.2182 23.5317 120.8052
v  49.2071 19.6548 -96.9192
v  29.0290 19.6548 -96.9192
v  29.0290 19.6548 -49.6751
v  49.2070 19.6548 -49.6751
v  49.2071 19.6548 51.0512
v  29.0290 19.6548 51.0512
v  29.0290 19.6548 98.2953
v  49.2071 19.6548 98.2953
v  49.2071 19.6548 100.3326
v  -29.0402 19.6548 98.2953
v  -29.0402 19.6548 51.0512
v  -29.0402 19.6548 -49.6751
v  -29.0402 19.6548 -96.9192
v  -29.0402 31.4658 -93.7545
v  -29.0402 40.1121 -85.1082
v  -29.0402 43.2769 -73.2972
v  -29.0402 40.1121 -61.4861
v  -29.0402 31.4658 -52.8399
v  -29.0402 31.4658 54.2160
v  -29.0402 40.1121 62.8622
v  -29.0402 43.2769 74.6733
v  -29.0402 40.1121 86.4843
v  -29.0402 31.4658 95.1306
v  -49.2181 90.5209 23.9970
v  -49.2181 90.5209 -21.2537
v  -49.2181 89.1671 -21.2537
v  -49.2181 89.0041 22.8650
v  -48.8028 61.7698 46.7738
v  -48.8028 61.7698 -17.6612
v  -48.8028 89.0041 -15.4858
v  -46.7520 88.3226 -21.3082
v  -46.7520 63.9212 -23.2598
v  49.2071 61.8037 -23.4291
v  41.5450 63.9212 -23.2598
v  -45.6570 61.8037 -27.7271
v  -45.6571 61.8037 -118.4516
v  45.6459 61.8037 -27.7272
v  49.2071 61.8037 -122.4041
v  49.2070 52.7257 120.8053
v  49.2070 54.8865 120.8053
v  49.2070 60.9934 49.9391
v  49.2070 52.7257 -83.9211
v  49.2071 23.5317 120.8053
v  49.2070 52.7257 100.3326
v  49.2071 31.4658 95.1306
v  49.2071 40.1121 86.4843
v  49.2071 43.2768 74.6733
v  49.2070 40.1121 -61.4861
v  49.2070 31.4658 54.2160
v  49.2070 40.1121 62.8622
v  49.2070 31.4658 -52.8399
v  49.2070 43.2769 -73.2972
v  49.2070 40.1121 -85.1082
v  49.2071 31.4658 -93.7545
v  29.0290 31.4658 -93.7545
v  29.0290 40.1121 -85.1082
v  29.0290 43.2769 -73.2972
v  29.0290 40.1121 -61.4861
v  29.0290 31.4658 -52.8399
v  29.0290 31.4658 54.2160
v  29.0290 40.1121 62.8622
v  29.0290 43.2768 74.6733
v  29.0290 40.1121 86.4843
v  29.0290 31.4658 95.1306
v  46.7301 61.6537 49.3590
v  -46.7412 61.6537 49.3590
v  -46.7412 89.0372 25.3005
v  -48.8028 89.0041 22.8650
v  46.7409 63.9212 -23.2605
v  49.2071 89.0041 -21.2537
v  49.2071 89.1671 -21.2537
v  46.7409 88.8426 -21.2792
v  -46.7520 88.8426 -21.2669
v  49.2071 90.5209 -21.2537
v  45.6459 61.8037 -118.4516
v  45.6459 43.9032 -27.7272
v  -45.6570 43.9032 -27.7272
v  -45.6571 43.9033 -118.4516
v  49.2071 61.7698 -17.6612
v  49.2071 89.0041 -15.4858
v  49.2070 61.7698 46.7738
v  45.6459 43.9033 -118.4516
v  48.7804 61.7698 -17.6612
v  48.7804 61.7698 46.7738
v  48.7804 89.0041 -15.4858
v  -46.7412 61.6537 48.7102
v  -46.7412 89.0832 24.6504
v  46.7301 89.0372 25.3005
v  46.7301 89.0832 24.6504
v  49.2070 90.5209 23.9970
v  49.2071 89.0041 22.8650
v  48.7804 89.0041 22.8650
v  46.7301 61.6537 48.7101
v  46.7409 88.8426 -20.6997
v  46.7409 63.9212 -22.8367
v  -46.7520 63.9212 -22.8367
v  -46.7520 88.8426 -20.6997
# 862 vertices

vn -0.0000 0.9659 -0.2588
vn -0.0000 0.7071 -0.7071
vn -0.0000 0.2588 -0.9659
vn 0.0000 -0.2588 -0.9659
vn 0.0000 -0.7071 -0.7071
vn 0.0000 -0.9659 -0.2588
vn 0.0000 -0.9659 0.2588
vn -0.0000 -0.7071 0.7071
vn -0.0000 -0.2588 0.9659
vn -0.0000 0.2588 0.9659
vn 1.0000 0.0000 -0.0000
vn 1.0000 0.0000 0.0000
vn 1.0000 -0.0000 -0.0000
vn -0.0000 0.9659 0.2588
vn -0.0000 0.7071 0.7071
vn -1.0000 -0.0000 0.0000
vn -1.0000 -0.0000 -0.0000
vn -1.0000 0.0000 0.0000
vn 0.0000 0.2588 -0.9659
vn 0.0000 -0.2588 0.9659
vn -1.0000 0.0000 -0.0000
vn 0.0000 0.9659 -0.2588
vn -0.0000 -0.2588 -0.9659
vn 0.0000 -0.7071 0.7071
vn -0.0000 -0.7071 -0.7071
vn -0.0000 -0.9659 -0.2588
vn 0.0000 0.2588 0.9659
vn 0.2588 -0.0000 0.9659
vn -0.8855 -0.3994 0.2373
vn -0.2588 0.0000 -0.9659
vn 0.8855 0.3994 -0.2373
vn 0.3858 -0.9168 -0.1034
vn -0.3858 0.9168 0.1034
vn -0.7230 -0.0000 0.6908
vn 0.9716 -0.0000 0.2368
vn 0.2083 -0.8772 0.4325
vn 0.1226 0.8808 0.4574
vn -0.2588 -0.0000 0.9659
vn -0.9716 -0.0000 0.2367
vn 0.2588 0.0000 -0.9659
vn 0.7230 -0.0000 0.6908
vn -0.1961 -0.8782 0.4363
vn -0.1226 0.8808 0.4574
vn 0.8855 -0.3994 0.2373
vn -0.8855 0.3994 -0.2373
vn -0.3858 -0.9168 -0.1034
vn 0.3858 0.9168 0.1034
vn 0.0000 -0.0000 1.0000
vn 0.0000 0.0000 -1.0000
vn 0.0000 -1.0000 -0.0000
vn 0.0000 1.0000 0.0000
vn 0.0000 1.0000 -0.0000
vn -0.9511 -0.3090 0.0000
vn -0.5878 -0.8090 0.0000
vn 0.5878 -0.8090 0.0000
vn 0.9511 -0.3090 0.0000
vn 0.9511 0.3090 0.0000
vn 0.5878 0.8090 -0.0000
vn 0.0000 -0.0000 -1.0000
vn -0.0000 -0.0000 -1.0000
vn -0.0000 0.0000 -1.0000
vn -0.9511 0.3090 0.0000
vn -0.5878 0.8090 -0.0000
vn -0.0000 -0.0000 1.0000
vn -0.9511 -0.3090 -0.0000
vn 0.5878 -0.8090 -0.0000
vn 0.9511 -0.3090 -0.0000
vn -0.5878 -0.8090 -0.0000
vn 0.5878 0.8090 0.0000
vn -0.5878 0.8090 0.0000
vn -0.0000 0.0000 1.0000
vn 0.0000 0.0000 1.0000
vn -0.0000 -1.0000 0.0000
vn 0.0000 -1.0000 0.0000
vn -0.6948 -0.4586 0.5541
vn -0.9576 -0.1878 0.2186
vn -0.3490 -0.5942 0.7247
vn 0.0000 -0.6318 0.7751
vn 0.3504 -0.5896 0.7277
vn 0.6992 -0.4474 0.5576
vn 0.9609 -0.1691 0.2193
vn 0.9576 0.1878 -0.2186
vn 0.6948 0.4586 -0.5541
vn 0.3490 0.5942 -0.7247
vn 0.0000 0.6318 -0.7751
vn -0.3504 0.5896 -0.7277
vn -0.6992 0.4474 -0.5576
vn -0.9609 0.1691 -0.2193
vn -0.3505 0.5896 -0.7277
vn 0.9749 0.0000 0.2225
vn 0.7818 0.0000 0.6235
vn 0.4339 -0.0000 0.9010
vn -0.4339 -0.0000 0.9010
vn -0.7818 -0.0000 0.6235
vn -0.9749 -0.0000 0.2225
vn -0.9749 0.0000 -0.2225
vn -0.7818 -0.0000 -0.6235
vn -0.4339 -0.0000 -0.9010
vn 0.4339 0.0000 -0.9010
vn 0.9568 -0.1899 -0.2200
vn 0.9749 0.0000 -0.2225
vn 0.7818 0.0000 -0.6235
vn 0.8650 -0.4548 -0.2121
vn 0.7707 -0.1513 -0.6190
vn 0.4301 -0.0830 -0.8990
vn -0.4305 0.0801 -0.8990
vn -0.7723 0.1420 -0.6192
vn -0.9596 0.1753 -0.2202
vn -0.9596 0.1753 0.2202
vn -0.7723 0.1420 0.6192
vn -0.4305 0.0801 0.8990
vn 0.4301 -0.0830 0.8990
vn 0.7707 -0.1513 0.6190
vn 0.9568 -0.1899 0.2200
vn 0.5275 -0.8204 -0.2206
vn 0.7019 -0.3766 -0.6045
vn 0.3949 -0.2181 -0.8925
vn -0.3900 0.2257 -0.8927
vn -0.6865 0.4024 -0.6057
vn -0.8416 0.4964 -0.2129
vn -0.8416 0.4964 0.2129
vn -0.6865 0.4024 0.6057
vn -0.3900 0.2257 0.8927
vn 0.3949 -0.2181 0.8925
vn 0.7019 -0.3766 0.6045
vn 0.8650 -0.4548 0.2121
vn 0.1850 -0.9583 -0.2180
vn 0.4239 -0.6602 -0.6200
vn 0.2358 -0.3680 -0.8994
vn -0.2351 0.3685 -0.8994
vn -0.4215 0.6617 -0.6200
vn -0.5237 0.8228 -0.2206
vn -0.5237 0.8228 0.2206
vn -0.4215 0.6617 0.6200
vn -0.2351 0.3685 0.8994
vn 0.2358 -0.3680 0.8994
vn 0.4239 -0.6602 0.6200
vn 0.5275 -0.8204 0.2206
vn 0.0012 -0.9749 -0.2225
vn 0.1503 -0.7739 -0.6152
vn 0.0850 -0.4333 -0.8972
vn -0.0864 0.4330 -0.8973
vn -0.1551 0.7729 -0.6153
vn -0.1925 0.9568 -0.2180
vn -0.1925 0.9568 0.2180
vn -0.1551 0.7729 0.6153
vn -0.0864 0.4330 0.8973
vn 0.0850 -0.4333 0.8972
vn 0.1503 -0.7739 0.6152
vn 0.1850 -0.9583 0.2180
vn 1.0000 0.0053 0.0000
vn 1.0000 0.0053 -0.0000
vn 0.0010 -0.7818 -0.6235
vn 0.0005 -0.4339 -0.9010
vn -0.0005 0.4339 -0.9010
vn -0.0010 0.7818 -0.6235
vn -0.0012 0.9749 -0.2225
vn -0.0012 0.9749 0.2225
vn -0.0010 0.7818 0.6235
vn -0.0005 0.4339 0.9010
vn 0.0005 -0.4339 0.9010
vn 0.0010 -0.7818 0.6235
vn 0.0012 -0.9749 0.2225
vn -0.7818 0.0000 -0.6235
vn -0.4339 0.0000 -0.9010
vn 0.9749 -0.0000 0.2225
vn 0.7818 -0.0000 0.6235
vn -0.9568 -0.1899 0.2200
vn -0.8650 -0.4548 0.2121
vn -0.7707 -0.1513 0.6190
vn -0.4301 -0.0830 0.8990
vn 0.4305 0.0801 0.8990
vn 0.7723 0.1420 0.6192
vn 0.9596 0.1753 0.2202
vn 0.9596 0.1753 -0.2202
vn 0.7723 0.1420 -0.6192
vn 0.4305 0.0801 -0.8990
vn -0.4301 -0.0830 -0.8990
vn -0.7707 -0.1513 -0.6190
vn -0.9568 -0.1899 -0.2200
vn -0.5275 -0.8204 0.2206
vn -0.7019 -0.3766 0.6045
vn -0.3949 -0.2181 0.8925
vn 0.3900 0.2257 0.8927
vn 0.6865 0.4024 0.6057
vn 0.8416 0.4964 0.2129
vn 0.8416 0.4964 -0.2129
vn 0.6865 0.4024 -0.6057
vn 0.3900 0.2257 -0.8927
vn -0.3949 -0.2181 -0.8925
vn -0.7019 -0.3766 -0.6045
vn -0.8650 -0.4548 -0.2121
vn -0.1850 -0.9583 0.2180
vn -0.4239 -0.6602 0.6200
vn -0.2358 -0.3680 0.8994
vn 0.2351 0.3685 0.8994
vn 0.4215 0.6617 0.6200
vn 0.5237 0.8228 0.2206
vn 0.5237 0.8228 -0.2206
vn 0.4215 0.6617 -0.6200
vn 0.2351 0.3685 -0.8994
vn -0.2358 -0.3680 -0.8994
vn -0.4239 -0.6602 -0.6200
vn -0.5275 -0.8204 -0.2206
vn -0.0052 -0.9749 0.2225
vn -0.1503 -0.7739 0.6152
vn -0.0850 -0.4333 0.8972
vn 0.0864 0.4330 0.8973
vn 0.1551 0.7729 0.6153
vn 0.1925 0.9568 0.2180
vn 0.1925 0.9568 -0.2180
vn 0.1551 0.7729 -0.6153
vn 0.0864 0.4330 -0.8973
vn -0.0850 -0.4333 -0.8973
vn -0.1503 -0.7739 -0.6152
vn -0.1850 -0.9583 -0.2180
vn -1.0000 0.0053 0.0000
vn -1.0000 0.0053 -0.0000
vn -0.0041 -0.7818 0.6235
vn -0.0023 -0.4339 0.9010
vn 0.0023 0.4339 0.9010
vn 0.0041 0.7818 0.6235
vn 0.0052 0.9749 0.2225
vn 0.0052 0.9749 -0.2225
vn 0.0041 0.7818 -0.6235
vn 0.0023 0.4339 -0.9010
vn -0.0023 -0.4339 -0.9010
vn -0.0041 -0.7818 -0.6235
vn -0.0052 -0.9749 -0.2225
vn -0.9239 0.0000 0.3827
vn -0.3827 -0.0000 0.9239
vn 0.3827 -0.0000 0.9239
vn 0.9239 -0.0000 0.3827
vn 0.9239 0.0000 -0.3827
vn 0.3827 0.0000 -0.9239
vn -0.9239 0.0000 -0.3827
vn -0.3827 0.0000 -0.9239
vn 0.9239 -0.0000 -0.3827
vn -0.0000 -1.0000 -0.0000
vn -0.9239 -0.3827 0.0000
vn -0.3827 -0.9239 -0.0000
vn 0.3827 -0.9239 -0.0000
vn 0.9239 -0.3827 -0.0000
vn 0.9239 0.3827 0.0000
vn 0.3827 0.9239 0.0000
vn -0.9239 0.3827 0.0000
vn -0.3827 0.9239 0.0000
vn -0.4136 0.9105 -0.0000
vn -1.0000 0.0049 -0.0000
vn -0.4178 -0.9086 -0.0000
vn -0.0014 -1.0000 -0.0000
vn 0.4136 -0.9105 -0.0000
vn 1.0000 -0.0049 0.0000
vn 0.0014 1.0000 -0.0000
vn 0.4178 0.9086 0.0000
vn -0.0014 -0.9823 0.1876
vn -0.4066 -0.8842 0.2302
vn -0.9401 0.0046 0.3410
vn -0.4025 0.8862 0.2294
vn 0.0014 0.9823 0.1876
vn 0.4065 0.8842 0.2302
vn 0.9401 -0.0046 0.3410
vn 0.4025 -0.8862 0.2294
vn -0.0000 1.0000 -0.0000
vn 1.0000 -0.0000 0.0000
vn 0.0000 0.6504 0.7596
vn -0.0000 1.0000 0.0000
vn 0.0000 0.0773 -0.9970
vn 0.0000 -0.9871 -0.1601
vn -0.0000 -0.9659 0.2588
vn 0.0000 -0.0796 0.9968
vn 0.0000 0.0797 -0.9968
vn -0.0000 0.0797 -0.9968
vn -0.0000 0.9963 0.0859
vn -0.0000 -0.9825 0.1861
vn 0.0000 0.6600 0.7512
vn -0.0000 0.6600 0.7512
vn 0.0000 -0.6597 -0.7515
vn 0.0002 0.0797 -0.9968
vn 0.0051 0.0787 -0.9969
vn -0.0001 0.0792 -0.9969
vn -0.0000 0.0152 -0.9999
vn -0.0000 -0.9975 -0.0706
vn 0.0000 0.6594 0.7518
vn -0.0000 0.0854 -0.9963
# 285 vertex normals

vt 0.1407 0.2067 0.0000
vt 0.1834 0.1953 0.0000
vt 0.2147 0.1640 0.0000
vt 0.2261 0.1213 0.0000
vt 0.2147 0.0786 0.0000
vt 0.1834 0.0473 0.0000
vt 0.1407 0.0359 0.0000
vt 0.0980 0.0473 0.0000
vt 0.0668 0.0786 0.0000
vt 0.0553 0.1213 0.0000
vt 0.0668 0.1640 0.0000
vt 0.0980 0.1953 0.0000
vt 0.7325 0.1622 0.0000
vt 0.7300 0.1581 0.0000
vt 0.7302 0.1562 0.0000
vt 0.7327 0.1604 0.0000
vt 0.7320 0.1581 0.0000
vt 0.7322 0.1562 0.0000
vt 0.7344 0.1622 0.0000
vt 0.7347 0.1604 0.0000
vt 0.7351 0.1652 0.0000
vt 0.7315 0.1652 0.0000
vt 0.7315 0.1573 0.0000
vt 0.7351 0.1588 0.0000
vt 0.7333 0.1664 0.0000
vt 0.7333 0.1560 0.0000
vt 0.7376 0.1664 0.0000
vt 0.7376 0.1576 0.0000
vt 0.7313 0.1652 0.0000
vt 0.7349 0.1652 0.0000
vt 0.7349 0.1586 0.0000
vt 0.7313 0.1573 0.0000
vt 0.7374 0.1664 0.0000
vt 0.7374 0.1574 0.0000
vt 0.7332 0.1664 0.0000
vt 0.7332 0.1560 0.0000
vt 0.7235 0.0960 0.0000
vt 0.7735 0.0960 0.0000
vt 0.7735 0.1460 0.0000
vt 0.7235 0.1460 0.0000
vt 0.3963 0.0124 0.0000
vt 0.4463 0.0124 0.0000
vt 0.4463 0.0624 0.0000
vt 0.3963 0.0624 0.0000
vt 0.4213 0.0624 0.0000
vt 0.4359 0.0576 0.0000
vt 0.4450 0.0451 0.0000
vt 0.4450 0.0296 0.0000
vt 0.4359 0.0171 0.0000
vt 0.4213 0.0124 0.0000
vt 0.4066 0.0171 0.0000
vt 0.3975 0.0296 0.0000
vt 0.3975 0.0451 0.0000
vt 0.4066 0.0576 0.0000
vt 0.5123 0.2076 0.0000
vt 0.5270 0.2028 0.0000
vt 0.5361 0.1903 0.0000
vt 0.5361 0.1748 0.0000
vt 0.5270 0.1623 0.0000
vt 0.5123 0.1576 0.0000
vt 0.4976 0.1623 0.0000
vt 0.4885 0.1748 0.0000
vt 0.4885 0.1903 0.0000
vt 0.4976 0.2028 0.0000
vt 0.6181 0.1534 0.0000
vt 0.6290 0.1509 0.0000
vt 0.6377 0.1440 0.0000
vt 0.6425 0.1340 0.0000
vt 0.6425 0.1229 0.0000
vt 0.6377 0.1128 0.0000
vt 0.6290 0.1059 0.0000
vt 0.6181 0.1034 0.0000
vt 0.6073 0.1059 0.0000
vt 0.5986 0.1128 0.0000
vt 0.5937 0.1229 0.0000
vt 0.5937 0.1340 0.0000
vt 0.5986 0.1440 0.0000
vt 0.6073 0.1509 0.0000
vt 0.5931 0.1034 0.0000
vt 0.6431 0.1034 0.0000
vt 0.6431 0.1534 0.0000
vt 0.5931 0.1534 0.0000
vt 0.6103 0.1502 0.0000
vt 0.6603 0.1502 0.0000
vt 0.6603 0.2002 0.0000
vt 0.6103 0.2002 0.0000
vt 0.6353 0.2002 0.0000
vt 0.6530 0.1929 0.0000
vt 0.6603 0.1752 0.0000
vt 0.6530 0.1575 0.0000
vt 0.6353 0.1502 0.0000
vt 0.6177 0.1575 0.0000
vt 0.6103 0.1752 0.0000
vt 0.6177 0.1929 0.0000
vt 0.4898 0.0296 0.0000
vt 0.5398 0.0296 0.0000
vt 0.5398 0.0796 0.0000
vt 0.4898 0.0796 0.0000
vt 0.5148 0.0796 0.0000
vt 0.5324 0.0723 0.0000
vt 0.5398 0.0546 0.0000
vt 0.5324 0.0369 0.0000
vt 0.5148 0.0296 0.0000
vt 0.4971 0.0369 0.0000
vt 0.4898 0.0546 0.0000
vt 0.4971 0.0723 0.0000
vt 0.6054 0.1280 0.0000
vt 0.6554 0.1280 0.0000
vt 0.6554 0.1780 0.0000
vt 0.6054 0.1780 0.0000
vt 0.7260 0.1526 0.0000
vt 0.7760 0.1526 0.0000
vt 0.7760 0.2026 0.0000
vt 0.7260 0.2026 0.0000
vt 0.7211 0.0468 0.0000
vt 0.7711 0.0468 0.0000
vt 0.7711 0.0968 0.0000
vt 0.7211 0.0968 0.0000
vt 0.1244 0.4943 0.0000
vt 0.0222 0.4943 0.0000
vt 0.0162 0.4168 0.0000
vt 0.0796 0.4065 0.0000
vt 0.0899 0.4065 0.0000
vt 0.0983 0.4378 0.0000
vt 0.1212 0.4608 0.0000
vt 0.1526 0.4692 0.0000
vt 0.6137 0.4943 0.0000
vt 0.5142 0.4608 0.0000
vt 0.2069 0.4378 0.0000
vt 0.2153 0.4065 0.0000
vt 0.4828 0.4065 0.0000
vt 0.1840 0.4608 0.0000
vt 0.4912 0.4378 0.0000
vt 0.5455 0.4692 0.0000
vt 0.5769 0.4608 0.0000
vt 0.5999 0.4378 0.0000
vt 0.6083 0.4065 0.0000
vt 0.6137 0.4065 0.0000
vt 0.3003 0.5183 0.0000
vt 0.3061 0.5906 0.0000
vt 0.2908 0.5906 0.0000
vt 0.2850 0.5184 0.0000
vt 0.0222 0.5184 0.0000
vt 0.6680 0.4943 0.0000
vt 0.6680 0.5000 0.0000
vt 0.4799 0.5162 0.0000
vt 0.4715 0.5183 0.0000
vt 0.9238 0.9483 0.0000
vt 0.4961 0.9483 0.0000
vt 0.4961 0.8215 0.0000
vt 0.9238 0.8215 0.0000
vt 0.7283 0.1213 0.0000
vt 0.7783 0.1213 0.0000
vt 0.7783 0.1713 0.0000
vt 0.7283 0.1713 0.0000
vt 0.6680 0.4168 0.0000
vt 0.7533 0.1713 0.0000
vt 0.7611 0.1701 0.0000
vt 0.7680 0.1665 0.0000
vt 0.7736 0.1610 0.0000
vt 0.7771 0.1540 0.0000
vt 0.7783 0.1463 0.0000
vt 0.7771 0.1386 0.0000
vt 0.7736 0.1316 0.0000
vt 0.7680 0.1261 0.0000
vt 0.7611 0.1225 0.0000
vt 0.7533 0.1213 0.0000
vt 0.7331 0.1316 0.0000
vt 0.7456 0.1225 0.0000
vt 0.7386 0.1261 0.0000
vt 0.7296 0.1386 0.0000
vt 0.7283 0.1463 0.0000
vt 0.7296 0.1540 0.0000
vt 0.7331 0.1610 0.0000
vt 0.7386 0.1665 0.0000
vt 0.7456 0.1701 0.0000
vt 0.4110 0.5947 0.0000
vt 0.2908 0.5947 0.0000
vt 0.2908 0.5911 0.0000
vt 0.4080 0.5906 0.0000
vt 0.3051 0.0180 0.0000
vt 0.3551 0.0180 0.0000
vt 0.3551 0.0680 0.0000
vt 0.3051 0.0680 0.0000
vt 0.3301 0.0680 0.0000
vt 0.3478 0.0606 0.0000
vt 0.3469 0.0421 0.0000
vt 0.3310 0.0664 0.0000
vt 0.3124 0.0606 0.0000
vt 0.3142 0.0590 0.0000
vt 0.3517 0.0555 0.0000
vt 0.3517 0.0305 0.0000
vt 0.3301 0.0180 0.0000
vt 0.3084 0.0305 0.0000
vt 0.3084 0.0555 0.0000
vt 0.4961 0.9878 0.0000
vt 0.9238 0.9878 0.0000
vt 0.0147 0.9861 0.0000
vt 0.0147 0.9764 0.0000
vt 0.4547 0.9764 0.0000
vt 0.4547 0.9861 0.0000
vt 0.7083 0.4367 0.0000
vt 0.7083 0.2484 0.0000
vt 0.9698 0.2484 0.0000
vt 0.9698 0.4367 0.0000
vt 0.6620 0.6974 0.0000
vt 0.5598 0.6974 0.0000
vt 0.6046 0.6096 0.0000
vt 0.6680 0.6199 0.0000
vt 0.0147 0.8459 0.0000
vt 0.4547 0.8459 0.0000
vt 0.0705 0.6974 0.0000
vt 0.0705 0.6096 0.0000
vt 0.0759 0.6096 0.0000
vt 0.0843 0.6410 0.0000
vt 0.1073 0.6639 0.0000
vt 0.1387 0.6723 0.0000
vt 0.5002 0.6639 0.0000
vt 0.1930 0.6410 0.0000
vt 0.2014 0.6096 0.0000
vt 0.4689 0.6096 0.0000
vt 0.1700 0.6639 0.0000
vt 0.4773 0.6410 0.0000
vt 0.5316 0.6723 0.0000
vt 0.5630 0.6639 0.0000
vt 0.5859 0.6410 0.0000
vt 0.5943 0.6096 0.0000
vt 0.7729 0.1619 0.0000
vt 0.7777 0.1408 0.0000
vt 0.7642 0.1238 0.0000
vt 0.7425 0.1238 0.0000
vt 0.7290 0.1408 0.0000
vt 0.7338 0.1619 0.0000
vt 0.7083 0.4508 0.0000
vt 0.9698 0.4508 0.0000
vt 0.9632 0.4523 0.0000
vt 0.7149 0.4523 0.0000
vt 0.7083 0.5197 0.0000
vt 0.7149 0.5162 0.0000
vt 0.9087 0.1416 0.0000
vt 0.9101 0.1245 0.0000
vt 0.8695 0.1245 0.0000
vt 0.8846 0.1416 0.0000
vt 0.3129 0.0589 0.0000
vt 0.3051 0.0430 0.0000
vt 0.3124 0.0253 0.0000
vt 0.3215 0.0274 0.0000
vt 0.3472 0.0380 0.0000
vt 0.3551 0.0430 0.0000
vt 0.3478 0.0253 0.0000
vt 0.2044 0.7194 0.0000
vt 0.0162 0.7032 0.0000
vt 0.0162 0.6974 0.0000
vt 0.3839 0.7214 0.0000
vt 0.6620 0.7215 0.0000
vt 0.3992 0.7215 0.0000
vt 0.3934 0.7938 0.0000
vt 0.3781 0.7938 0.0000
vt 0.2128 0.7214 0.0000
vt 0.0162 0.6199 0.0000
vt 0.9686 0.6502 0.0000
vt 0.9686 0.8061 0.0000
vt 0.8116 0.8061 0.0000
vt 0.8116 0.6502 0.0000
vt 0.9632 0.5162 0.0000
vt 0.9698 0.5197 0.0000
vt 0.7083 0.6399 0.0000
vt 0.9698 0.6399 0.0000
vt 0.8835 0.1417 0.0000
vt 0.8683 0.1244 0.0000
vt 0.2763 0.7938 0.0000
vt 0.3934 0.7942 0.0000
vt 0.3934 0.7978 0.0000
vt 0.2732 0.7978 0.0000
vt 0.9120 0.1415 0.0000
vt 0.9133 0.1259 0.0000
vt 0.0000 0.0000 0.0000
# 277 texture coords

g SPW_Vehicle_Land_Static_Muscle_Car
usemtl SPW_Vehicle_Land_Muscle_Car
s off
f 1/1/1 2/1/1 3/2/1 4/2/1 
f 4/2/2 3/2/2 5/3/2 6/3/2 
f 6/3/3 5/3/3 7/4/3 8/4/3 
f 8/4/4 7/4/4 9/5/4 10/5/4 
f 10/5/5 9/5/5 11/6/5 12/6/5 
f 12/6/6 11/6/6 13/7/6 14/7/6 
f 14/7/7 13/7/7 15/8/7 16/8/7 
f 16/8/8 15/8/8 17/9/8 18/9/8 
f 18/9/9 17/9/9 19/10/9 20/10/9 
f 20/10/10 19/10/10 21/11/10 22/11/10 
f 3/2/11 2/1/11 23/12/11 21/11/11 
f 3/2/12 21/11/12 19/10/12 17/9/12 
f 3/2/13 17/9/13 15/8/13 13/7/13 
f 3/2/12 13/7/12 11/6/12 9/5/12 
f 3/2/11 9/5/11 7/4/11 5/3/11 
f 24/12/14 23/12/14 2/1/14 1/1/14 
f 22/11/15 21/11/15 23/12/15 24/12/15 
f 1/1/16 4/2/16 6/3/16 8/4/16 
f 1/1/17 8/4/17 10/5/17 12/6/17 
f 1/1/16 12/6/16 14/7/16 16/8/16 
f 1/1/16 16/8/16 18/9/16 20/10/16 
f 1/1/18 20/10/18 22/11/18 24/12/18 
f 25/1/1 26/1/1 27/2/1 28/2/1 
f 28/2/2 27/2/2 29/3/2 30/3/2 
f 30/3/19 29/3/19 31/4/19 32/4/19 
f 32/4/4 31/4/4 33/5/4 34/5/4 
f 34/5/5 33/5/5 35/6/5 36/6/5 
f 36/6/6 35/6/6 37/7/6 38/7/6 
f 38/7/7 37/7/7 39/8/7 40/8/7 
f 40/8/8 39/8/8 41/9/8 42/9/8 
f 42/9/20 41/9/20 43/10/20 44/10/20 
f 44/10/10 43/10/10 45/11/10 46/11/10 
f 27/2/11 26/1/11 47/12/11 45/11/11 
f 27/2/12 45/11/12 43/10/12 41/9/12 
f 27/2/13 41/9/13 39/8/13 37/7/13 
f 27/2/12 37/7/12 35/6/12 33/5/12 
f 27/2/11 33/5/11 31/4/11 29/3/11 
f 48/12/14 47/12/14 26/1/14 25/1/14 
f 46/11/15 45/11/15 47/12/15 48/12/15 
f 25/1/21 28/2/21 30/3/21 32/4/21 
f 25/1/21 32/4/21 34/5/21 36/6/21 
f 25/1/21 36/6/21 38/7/21 40/8/21 
f 25/1/21 40/8/21 42/9/21 44/10/21 
f 25/1/21 44/10/21 46/11/21 48/12/21 
f 49/1/22 50/1/22 51/2/22 52/2/22 
f 52/2/2 51/2/2 53/3/2 54/3/2 
f 54/3/19 53/3/19 55/4/19 56/4/19 
f 56/4/23 55/4/23 57/5/23 58/5/23 
f 58/5/5 57/5/5 59/6/5 60/6/5 
f 60/6/6 59/6/6 61/7/6 62/7/6 
f 62/7/7 61/7/7 63/8/7 64/8/7 
f 64/8/24 63/8/24 65/9/24 66/9/24 
f 66/9/9 65/9/9 67/10/9 68/10/9 
f 68/10/10 67/10/10 69/11/10 70/11/10 
f 51/2/11 50/1/11 71/12/11 69/11/11 
f 51/2/12 69/11/12 67/10/12 65/9/12 
f 51/2/11 65/9/11 63/8/11 61/7/11 
f 51/2/11 61/7/11 59/6/11 57/5/11 
f 51/2/11 57/5/11 55/4/11 53/3/11 
f 72/12/14 71/12/14 50/1/14 49/1/14 
f 70/11/15 69/11/15 71/12/15 72/12/15 
f 49/1/16 52/2/16 54/3/16 56/4/16 
f 49/1/17 56/4/17 58/5/17 60/6/17 
f 49/1/21 60/6/21 62/7/21 64/8/21 
f 49/1/16 64/8/16 66/9/16 68/10/16 
f 49/1/16 68/10/16 70/11/16 72/12/16 
f 73/1/1 74/1/1 75/2/1 76/2/1 
f 76/2/2 75/2/2 77/3/2 78/3/2 
f 78/3/19 77/3/19 79/4/19 80/4/19 
f 80/4/4 79/4/4 81/5/4 82/5/4 
f 82/5/25 81/5/25 83/6/25 84/6/25 
f 84/6/26 83/6/26 85/7/26 86/7/26 
f 86/7/7 85/7/7 87/8/7 88/8/7 
f 88/8/8 87/8/8 89/9/8 90/9/8 
f 90/9/9 89/9/9 91/10/9 92/10/9 
f 92/10/27 91/10/27 93/11/27 94/11/27 
f 75/2/11 74/1/11 95/12/11 93/11/11 
f 75/2/11 93/11/11 91/10/11 89/9/11 
f 75/2/11 89/9/11 87/8/11 85/7/11 
f 75/2/11 85/7/11 83/6/11 81/5/11 
f 75/2/11 81/5/11 79/4/11 77/3/11 
f 96/12/14 95/12/14 74/1/14 73/1/14 
f 94/11/15 93/11/15 95/12/15 96/12/15 
f 73/1/16 76/2/16 78/3/16 80/4/16 
f 73/1/17 80/4/17 82/5/17 84/6/17 
f 73/1/21 84/6/21 86/7/21 88/8/21 
f 73/1/16 88/8/16 90/9/16 92/10/16 
f 73/1/16 92/10/16 94/11/16 96/12/16 
f 97/13/28 98/14/28 99/15/28 100/16/28 
f 98/14/29 101/17/29 102/18/29 99/15/29 
f 101/17/30 103/19/30 104/20/30 102/18/30 
f 103/19/31 97/13/31 100/16/31 104/20/31 
f 100/16/32 99/15/32 102/18/32 104/20/32 
f 103/19/33 101/17/33 98/14/33 97/13/33 
f 105/21/28 106/22/28 107/23/28 108/24/28 
f 106/22/34 109/25/34 110/26/34 107/23/34 
f 109/25/30 111/27/30 112/28/30 110/26/30 
f 111/27/35 105/21/35 108/24/35 112/28/35 
f 108/24/36 107/23/36 110/26/36 112/28/36 
f 111/27/37 109/25/37 106/22/37 105/21/37 
f 113/29/38 114/30/38 115/31/38 116/32/38 
f 114/30/39 117/33/39 118/34/39 115/31/39 
f 117/33/40 119/35/40 120/36/40 118/34/40 
f 119/35/41 113/29/41 116/32/41 120/36/41 
f 116/32/42 115/31/42 118/34/42 120/36/42 
f 119/35/43 117/33/43 114/30/43 113/29/43 
f 121/19/40 122/17/40 123/18/40 124/20/40 
f 122/17/44 125/14/44 126/15/44 123/18/44 
f 125/14/38 127/13/38 128/16/38 126/15/38 
f 127/13/45 121/19/45 124/20/45 128/16/45 
f 124/20/46 123/18/46 126/15/46 128/16/46 
f 127/13/47 125/14/47 122/17/47 121/19/47 
f 129/37/48 130/38/48 131/39/48 132/40/48 
f 130/37/16 133/38/16 134/39/16 131/40/16 
f 133/37/49 135/38/49 136/39/49 134/40/49 
f 135/37/11 129/38/11 132/39/11 136/40/11 
f 132/37/50 131/38/50 134/39/50 136/40/50 
f 135/37/51 133/38/51 130/39/51 129/40/51 
f 137/37/48 138/38/48 139/39/48 140/40/48 
f 138/37/21 141/38/21 142/39/21 139/40/21 
f 141/37/49 143/38/49 144/39/49 142/40/49 
f 143/37/11 137/38/11 140/39/11 144/40/11 
f 140/37/50 139/38/50 142/39/50 144/40/50 
f 143/37/52 141/38/52 138/39/52 137/40/52 
f 145/41/53 146/42/53 147/43/53 148/44/53 
f 148/41/54 147/42/54 149/43/54 150/44/54 
f 150/41/50 149/42/50 151/43/50 152/44/50 
f 152/41/55 151/42/55 153/43/55 154/44/55 
f 154/41/56 153/42/56 155/43/56 156/44/56 
f 156/41/57 155/42/57 157/43/57 158/44/57 
f 158/41/58 157/42/58 159/43/58 160/44/58 
f 160/41/52 159/42/52 161/43/52 162/44/52 
f 147/45/59 146/46/59 163/47/59 161/48/59 
f 147/45/60 161/48/60 159/49/60 157/50/60 
f 147/45/61 157/50/61 155/51/61 153/52/61 
f 147/45/61 153/52/61 151/53/61 149/54/61 
f 164/41/62 163/42/62 146/43/62 145/44/62 
f 162/41/63 161/42/63 163/43/63 164/44/63 
s 1
f 164/41/48 145/42/48 165/43/48 166/44/64 
s 2
f 165/55/48 167/56/48 168/57/64 169/58/48 
f 165/55/48 169/58/48 170/59/64 171/60/48 
f 165/55/48 171/60/48 172/61/48 173/62/64 
f 165/55/48 173/62/64 174/63/64 166/64/64 
s 3
f 162/41/64 164/42/48 166/43/64 174/44/64 
f 160/41/48 162/42/64 174/43/64 173/44/64 
f 158/41/48 160/42/48 173/43/64 172/44/48 
f 156/41/48 158/42/48 172/43/48 171/44/48 
f 154/41/64 156/42/48 171/43/48 170/44/64 
f 152/41/48 154/42/64 170/43/64 169/44/48 
s 1
f 150/41/64 152/42/48 169/43/48 168/44/64 
s 3
f 148/41/64 150/42/64 168/43/64 167/44/48 
f 145/41/48 148/42/64 167/43/48 165/44/48 
s off
f 175/41/65 176/42/65 177/43/65 178/44/65 
f 178/41/54 177/42/54 179/43/54 180/44/54 
f 180/41/50 179/42/50 181/43/50 182/44/50 
f 182/41/66 181/42/66 183/43/66 184/44/66 
f 184/41/67 183/42/67 185/43/67 186/44/67 
f 186/41/57 185/42/57 187/43/57 188/44/57 
f 188/41/58 187/42/58 189/43/58 190/44/58 
f 190/41/52 189/42/52 191/43/52 192/44/52 
f 177/45/59 176/46/59 193/47/59 191/48/59 
f 177/45/49 191/48/49 189/49/49 187/50/49 
f 177/45/61 187/50/61 185/51/61 183/52/61 
f 177/45/49 183/52/49 181/53/49 179/54/49 
f 194/41/62 193/42/62 176/43/62 175/44/62 
f 192/41/63 191/42/63 193/43/63 194/44/63 
s 5
f 194/41/64 175/42/48 195/43/48 196/44/64 
s 6
f 195/55/48 197/56/48 198/57/48 199/58/64 
f 195/55/48 199/58/64 200/59/48 201/60/48 
f 195/55/48 201/60/48 202/61/64 203/62/64 
f 195/55/48 203/62/64 204/63/48 196/64/64 
s 3
f 192/41/48 194/42/64 196/43/64 204/44/48 
s 1
f 190/41/64 192/42/48 204/43/48 203/44/64 
s 3
f 188/41/64 190/42/64 203/43/64 202/44/64 
s 1
f 186/41/64 188/42/64 202/43/64 201/44/48 
s 2
f 184/41/48 186/42/48 201/43/48 200/44/48 
f 182/41/64 184/42/48 200/43/48 199/44/64 
f 180/41/48 182/42/64 199/43/64 198/44/48 
f 178/41/64 180/42/48 198/43/48 197/44/48 
f 175/41/64 178/42/64 197/43/48 195/44/48 
s off
f 205/41/65 206/42/65 207/43/65 208/44/65 
f 208/41/68 207/42/68 209/43/68 210/44/68 
f 210/41/50 209/42/50 211/43/50 212/44/50 
f 212/41/66 211/42/66 213/43/66 214/44/66 
f 214/41/67 213/42/67 215/43/67 216/44/67 
f 216/41/57 215/42/57 217/43/57 218/44/57 
f 218/41/69 217/42/69 219/43/69 220/44/69 
f 220/41/51 219/42/51 221/43/51 222/44/51 
f 207/45/61 206/46/61 223/47/61 221/48/61 
f 207/45/60 221/48/60 219/49/60 217/50/60 
f 207/45/59 217/50/59 215/51/59 213/52/59 
f 207/45/49 213/52/49 211/53/49 209/54/49 
f 224/41/62 223/42/62 206/43/62 205/44/62 
f 222/41/70 221/42/70 223/43/70 224/44/70 
s 1
f 224/41/64 205/42/48 225/43/64 226/44/48 
s 3
f 225/55/64 227/56/64 228/57/71 229/58/72 
f 225/55/64 229/58/72 230/59/72 231/60/48 
f 225/55/64 231/60/48 232/61/48 233/62/64 
f 225/55/64 233/62/64 234/63/48 226/64/48 
s 1
f 222/41/48 224/42/64 226/43/48 234/44/48 
f 220/41/48 222/42/48 234/43/48 233/44/64 
f 218/41/48 220/42/48 233/43/64 232/44/48 
f 216/41/48 218/42/48 232/43/48 231/44/48 
s 2
f 214/41/48 216/42/48 231/43/48 230/44/72 
s off
f 212/41/72 214/42/72 230/43/72 229/44/72 
s 1
f 210/41/48 212/42/48 229/43/72 228/44/71 
s off
f 208/41/72 210/42/72 228/43/72 227/44/72 
f 205/41/72 208/42/72 227/43/72 225/44/72 
f 235/41/65 236/42/65 237/43/65 238/44/65 
f 238/41/68 237/42/68 239/43/68 240/44/68 
f 240/41/50 239/42/50 241/43/50 242/44/50 
f 242/41/66 241/42/66 243/43/66 244/44/66 
f 244/41/67 243/42/67 245/43/67 246/44/67 
f 246/41/57 245/42/57 247/43/57 248/44/57 
f 248/41/69 247/42/69 249/43/69 250/44/69 
f 250/41/51 249/42/51 251/43/51 252/44/51 
f 237/45/60 236/46/60 253/47/60 251/48/60 
f 237/45/49 251/48/49 249/49/49 247/50/49 
f 237/45/59 247/50/59 245/51/59 243/52/59 
f 237/45/49 243/52/49 241/53/49 239/54/49 
f 254/41/62 253/42/62 236/43/62 235/44/62 
f 252/41/70 251/42/70 253/43/70 254/44/70 
s 3
f 254/41/48 235/42/48 255/43/64 256/44/48 
f 255/55/64 257/56/64 258/57/64 259/58/48 
f 255/55/64 259/58/48 260/59/64 261/60/64 
f 255/55/64 261/60/64 262/61/48 263/62/64 
f 255/55/64 263/62/64 264/63/64 256/64/48 
s 1
f 252/41/64 254/42/48 256/43/48 264/44/64 
f 250/41/64 252/42/64 264/43/64 263/44/64 
f 248/41/64 250/42/64 263/43/64 262/44/48 
f 246/41/48 248/42/64 262/43/48 261/44/64 
f 244/41/64 246/42/48 261/43/64 260/44/64 
f 242/41/48 244/42/64 260/43/64 259/44/48 
f 240/41/48 242/42/48 259/43/48 258/44/64 
f 238/41/48 240/42/48 258/43/64 257/44/64 
s 2
f 235/41/48 238/42/48 257/43/64 255/44/64 
s off
f 265/65/50 266/66/50 267/67/50 268/68/50 
f 265/65/50 268/68/50 269/69/50 270/70/50 
f 265/65/50 270/70/50 271/71/50 272/72/50 
f 265/65/73 272/72/73 273/73/73 274/74/73 
f 265/65/74 274/74/74 275/75/74 276/76/74 
f 265/65/50 276/76/50 277/77/50 278/78/50 
f 277/79/75 279/80/75 280/81/75 278/82/75 
f 278/79/76 280/80/76 281/81/76 265/82/76 
f 276/79/77 282/80/77 279/81/77 277/82/77 
f 275/79/78 283/80/78 282/81/78 276/82/78 
f 274/79/79 284/80/79 283/81/79 275/82/79 
f 273/79/80 285/80/80 284/81/80 274/82/80 
f 272/79/81 286/80/81 285/81/81 273/82/81 
f 271/79/82 287/80/82 286/81/82 272/82/82 
f 270/79/83 288/80/83 287/81/83 271/82/83 
f 269/79/84 289/80/84 288/81/84 270/82/84 
f 268/79/85 290/80/85 289/81/85 269/82/85 
f 267/79/86 291/80/86 290/81/86 268/82/86 
f 266/79/87 292/80/87 291/81/87 267/82/87 
f 265/79/88 281/80/88 292/81/88 266/82/88 
f 279/65/51 282/66/51 283/67/51 284/68/51 
f 279/65/51 284/68/51 285/69/51 286/70/51 
f 279/65/51 286/70/51 287/71/51 288/72/51 
f 279/65/51 288/72/51 289/73/51 290/74/51 
f 279/65/51 290/74/51 291/75/51 292/76/51 
f 279/65/51 292/76/51 281/77/51 280/78/51 
f 293/65/50 294/66/50 295/67/50 296/68/50 
f 293/65/50 296/68/50 297/69/50 298/70/50 
f 293/65/50 298/70/50 299/71/50 300/72/50 
f 293/65/50 300/72/50 301/73/50 302/74/50 
f 293/65/50 302/74/50 303/75/50 304/76/50 
f 293/65/50 304/76/50 305/77/50 306/78/50 
f 305/79/75 307/80/75 308/81/75 306/82/75 
f 306/79/76 308/80/76 309/81/76 293/82/76 
f 304/79/77 310/80/77 307/81/77 305/82/77 
f 303/79/78 311/80/78 310/81/78 304/82/78 
f 302/79/79 312/80/79 311/81/79 303/82/79 
f 301/79/80 313/80/80 312/81/80 302/82/80 
f 300/79/81 314/80/81 313/81/81 301/82/81 
f 299/79/82 315/80/82 314/81/82 300/82/82 
f 298/79/83 316/80/83 315/81/83 299/82/83 
f 297/79/84 317/80/84 316/81/84 298/82/84 
f 296/79/85 318/80/85 317/81/85 297/82/85 
f 295/79/89 319/80/89 318/81/89 296/82/89 
f 294/79/87 320/80/87 319/81/87 295/82/87 
f 293/79/88 309/80/88 320/81/88 294/82/88 
f 307/65/51 310/66/51 311/67/51 312/68/51 
f 307/65/51 312/68/51 313/69/51 314/70/51 
f 307/65/51 314/70/51 315/71/51 316/72/51 
f 307/65/51 316/72/51 317/73/51 318/74/51 
f 307/65/51 318/74/51 319/75/51 320/76/51 
f 307/65/51 320/76/51 309/77/51 308/78/51 
f 321/79/90 322/80/90 323/81/90 324/82/90 
f 324/79/91 323/80/91 325/81/91 326/82/91 
f 326/79/92 325/80/92 327/81/92 328/82/92 
f 328/79/71 327/80/71 329/81/71 330/82/71 
f 330/79/93 329/80/93 331/81/93 332/82/93 
f 332/79/94 331/80/94 333/81/94 334/82/94 
f 334/79/95 333/80/95 335/81/95 336/82/95 
f 336/79/96 335/80/96 337/81/96 338/82/96 
f 338/79/97 337/80/97 339/81/97 340/82/97 
f 340/79/98 339/80/98 341/81/98 342/82/98 
f 342/79/49 341/80/49 343/81/49 344/82/49 
f 344/79/99 343/80/99 345/81/99 346/82/99 
f 322/79/100 347/80/100 348/81/100 349/82/100 
f 350/79/101 347/80/101 322/81/101 321/82/101 
f 346/79/102 345/80/102 347/81/102 350/82/102 
f 321/65/50 324/66/50 326/67/50 328/68/50 
f 321/65/50 328/68/50 330/69/50 332/70/50 
f 321/65/50 332/70/50 334/71/50 336/72/50 
f 321/65/50 336/72/50 338/73/50 340/74/50 
f 321/65/50 340/74/50 342/75/50 344/76/50 
f 321/65/50 344/76/50 346/77/50 350/78/50 
f 349/79/103 348/80/103 351/81/103 352/82/103 
f 347/79/104 345/80/104 353/81/104 348/82/104 
f 345/79/105 343/80/105 354/81/105 353/82/105 
f 343/79/49 341/80/49 355/81/49 354/82/49 
f 341/79/106 339/80/106 356/81/106 355/82/106 
f 339/79/107 337/80/107 357/81/107 356/82/107 
f 337/79/108 335/80/108 358/81/108 357/82/108 
f 335/79/109 333/80/109 359/81/109 358/82/109 
f 333/79/110 331/80/110 360/81/110 359/82/110 
f 331/79/111 329/80/111 361/81/111 360/82/111 
f 329/79/64 327/80/64 362/81/64 361/82/64 
f 327/79/112 325/80/112 363/81/112 362/82/112 
f 325/79/113 323/80/113 364/81/113 363/82/113 
f 323/79/114 322/80/114 349/81/114 364/82/114 
f 352/79/115 351/80/115 365/81/115 366/82/115 
f 348/79/116 353/80/116 367/81/116 351/82/116 
f 353/79/117 354/80/117 368/81/117 367/82/117 
f 354/79/59 355/80/59 369/81/59 368/82/59 
f 355/79/118 356/80/118 370/81/118 369/82/118 
f 356/79/119 357/80/119 371/81/119 370/82/119 
f 357/79/120 358/80/120 372/81/120 371/82/120 
f 358/79/121 359/80/121 373/81/121 372/82/121 
f 359/79/122 360/80/122 374/81/122 373/82/122 
f 360/79/123 361/80/123 375/81/123 374/82/123 
f 361/79/64 362/80/64 376/81/64 375/82/64 
f 362/79/124 363/80/124 377/81/124 376/82/124 
f 363/79/125 364/80/125 378/81/125 377/82/125 
f 364/79/126 349/80/126 352/81/126 378/82/126 
f 366/79/127 365/80/127 379/81/127 380/82/127 
f 351/79/128 367/80/128 381/81/128 365/82/128 
f 367/79/129 368/80/129 382/81/129 381/82/129 
f 368/79/59 369/80/59 383/81/59 382/82/59 
f 369/79/130 370/80/130 384/81/130 383/82/130 
f 370/79/131 371/80/131 385/81/131 384/82/131 
f 371/79/132 372/80/132 386/81/132 385/82/132 
f 372/79/133 373/80/133 387/81/133 386/82/133 
f 373/79/134 374/80/134 388/81/134 387/82/134 
f 374/79/135 375/80/135 389/81/135 388/82/135 
f 375/79/72 376/80/72 390/81/72 389/82/72 
f 376/79/136 377/80/136 391/81/136 390/82/136 
f 377/79/137 378/80/137 392/81/137 391/82/137 
f 378/79/138 352/80/138 366/81/138 392/82/138 
f 380/79/139 379/80/139 393/81/139 394/82/139 
f 365/79/140 381/80/140 395/81/140 379/82/140 
f 381/79/141 382/80/141 396/81/141 395/82/141 
f 382/79/49 383/80/49 397/81/49 396/82/49 
f 383/79/142 384/80/142 398/81/142 397/82/142 
f 384/79/143 385/80/143 399/81/143 398/82/143 
f 385/79/144 386/80/144 400/81/144 399/82/144 
f 386/79/145 387/80/145 401/81/145 400/82/145 
f 387/79/146 388/80/146 402/81/146 401/82/146 
f 388/79/147 389/80/147 403/81/147 402/82/147 
f 389/79/71 390/80/71 404/81/71 403/82/71 
f 390/79/148 391/80/148 405/81/148 404/82/148 
f 391/79/149 392/80/149 406/81/149 405/82/149 
f 392/79/150 366/80/150 380/81/150 406/82/150 
f 407/65/151 394/66/151 393/67/151 408/68/151 
f 407/65/151 408/68/151 409/69/151 410/70/151 
f 407/65/152 410/70/152 411/71/152 412/72/152 
f 407/65/151 412/72/151 413/73/151 414/74/151 
f 407/65/151 414/74/151 415/75/151 416/76/151 
f 407/65/152 416/76/152 417/77/152 418/78/152 
f 379/79/153 395/80/153 408/81/153 393/82/153 
f 395/79/154 396/80/154 409/81/154 408/82/154 
f 396/79/49 397/80/49 410/81/49 409/82/49 
f 397/79/155 398/80/155 411/81/155 410/82/155 
f 398/79/156 399/80/156 412/81/156 411/82/156 
f 399/79/157 400/80/157 413/81/157 412/82/157 
f 400/79/158 401/80/158 414/81/158 413/82/158 
f 401/79/159 402/80/159 415/81/159 414/82/159 
f 402/79/160 403/80/160 416/81/160 415/82/160 
f 403/79/72 404/80/72 417/81/72 416/82/72 
f 404/79/161 405/80/161 418/81/161 417/82/161 
f 405/79/162 406/80/162 407/81/162 418/82/162 
f 406/79/163 380/80/163 394/81/163 407/82/163 
f 419/79/96 420/80/96 421/81/96 422/82/96 
f 422/79/164 421/80/164 423/81/164 424/82/164 
f 424/79/165 423/80/165 425/81/165 426/82/165 
s 1
f 426/79/49 425/80/49 427/81/61 428/82/49 
s off
f 428/79/99 427/80/99 429/81/99 430/82/99 
f 430/79/102 429/80/102 431/81/102 432/82/102 
f 432/79/101 431/80/101 433/81/101 434/82/101 
f 434/79/166 433/80/166 435/81/166 436/82/166 
f 436/79/167 435/80/167 437/81/167 438/82/167 
f 438/79/92 437/80/92 439/81/92 440/82/92 
s 1
f 440/79/72 439/80/48 441/81/48 442/82/72 
s off
f 442/79/93 441/80/93 443/81/93 444/82/93 
f 420/79/168 445/80/168 446/81/168 447/82/168 
f 448/79/95 445/80/95 420/81/95 419/82/95 
f 444/79/94 443/80/94 445/81/94 448/82/94 
f 447/79/169 446/80/169 449/81/169 450/82/169 
f 445/79/170 443/80/170 451/81/170 446/82/170 
f 443/79/171 441/80/171 452/81/171 451/82/171 
s 1
f 441/79/48 439/80/48 453/81/48 452/82/48 
s off
f 439/79/172 437/80/172 454/81/172 453/82/172 
f 437/79/173 435/80/173 455/81/173 454/82/173 
f 435/79/174 433/80/174 456/81/174 455/82/174 
f 433/79/175 431/80/175 457/81/175 456/82/175 
f 431/79/176 429/80/176 458/81/176 457/82/176 
f 429/79/177 427/80/177 459/81/177 458/82/177 
s 1
f 427/79/61 425/80/49 460/81/61 459/82/61 
s off
f 425/79/178 423/80/178 461/81/178 460/82/178 
f 423/79/179 421/80/179 462/81/179 461/82/179 
f 421/79/180 420/80/180 447/81/180 462/82/180 
f 450/79/181 449/80/181 463/81/181 464/82/181 
f 446/79/182 451/80/182 465/81/182 449/82/182 
f 451/79/183 452/80/183 466/81/183 465/82/183 
s 1
f 452/79/48 453/80/48 467/81/48 466/82/48 
s off
f 453/79/184 454/80/184 468/81/184 467/82/184 
f 454/79/185 455/80/185 469/81/185 468/82/185 
f 455/79/186 456/80/186 470/81/186 469/82/186 
f 456/79/187 457/80/187 471/81/187 470/82/187 
f 457/79/188 458/80/188 472/81/188 471/82/188 
f 458/79/189 459/80/189 473/81/189 472/82/189 
f 459/79/49 460/80/49 474/81/49 473/82/49 
f 460/79/190 461/80/190 475/81/190 474/82/190 
f 461/79/191 462/80/191 476/81/191 475/82/191 
f 462/79/192 447/80/192 450/81/192 476/82/192 
f 464/79/193 463/80/193 477/81/193 478/82/193 
f 449/79/194 465/80/194 479/81/194 463/82/194 
f 465/79/195 466/80/195 480/81/195 479/82/195 
s 1
f 466/79/48 467/80/48 481/81/48 480/82/48 
s off
f 467/79/196 468/80/196 482/81/196 481/82/196 
f 468/79/197 469/80/197 483/81/197 482/82/197 
f 469/79/198 470/80/198 484/81/198 483/82/198 
f 470/79/199 471/80/199 485/81/199 484/82/199 
f 471/79/200 472/80/200 486/81/200 485/82/200 
f 472/79/201 473/80/201 487/81/201 486/82/201 
f 473/79/61 474/80/61 488/81/61 487/82/61 
f 474/79/202 475/80/202 489/81/202 488/82/202 
f 475/79/203 476/80/203 490/81/203 489/82/203 
f 476/79/204 450/80/204 464/81/204 490/82/204 
f 478/79/205 477/80/205 491/81/205 492/82/205 
f 463/79/206 479/80/206 493/81/206 477/82/206 
f 479/79/207 480/80/207 494/81/207 493/82/207 
s 1
f 480/79/48 481/80/48 495/81/48 494/82/48 
s off
f 481/79/208 482/80/208 496/81/208 495/82/208 
f 482/79/209 483/80/209 497/81/209 496/82/209 
f 483/79/210 484/80/210 498/81/210 497/82/210 
f 484/79/211 485/80/211 499/81/211 498/82/211 
f 485/79/212 486/80/212 500/81/212 499/82/212 
f 486/79/213 487/80/213 501/81/213 500/82/213 
f 487/79/49 488/80/49 502/81/49 501/82/49 
f 488/79/214 489/80/214 503/81/214 502/82/214 
f 489/79/215 490/80/215 504/81/215 503/82/215 
f 490/79/216 464/80/216 478/81/216 504/82/216 
f 505/65/217 492/66/217 491/67/217 506/68/217 
f 505/65/217 506/68/217 507/69/217 508/70/217 
f 505/65/218 508/70/218 509/71/218 510/72/218 
f 505/65/217 510/72/217 511/73/217 512/74/217 
f 505/65/217 512/74/217 513/75/217 514/76/217 
f 505/65/218 514/76/218 515/77/218 516/78/218 
f 477/79/219 493/80/219 506/81/219 491/82/219 
f 493/79/220 494/80/220 507/81/220 506/82/220 
f 494/79/48 495/80/48 508/81/48 507/82/48 
f 495/79/221 496/80/221 509/81/221 508/82/221 
f 496/79/222 497/80/222 510/81/222 509/82/222 
f 497/79/223 498/80/223 511/81/223 510/82/223 
f 498/79/224 499/80/224 512/81/224 511/82/224 
f 499/79/225 500/80/225 513/81/225 512/82/225 
f 500/79/226 501/80/226 514/81/226 513/82/226 
f 501/79/59 502/80/59 515/81/59 514/82/59 
f 502/79/227 503/80/227 516/81/227 515/82/227 
f 503/79/228 504/80/228 505/81/228 516/82/228 
f 504/79/229 478/80/229 492/81/229 505/82/229 
f 444/65/50 448/66/50 419/67/50 422/68/50 
f 444/65/73 422/68/73 424/69/73 426/70/73 
f 444/65/73 426/70/73 428/71/73 430/72/73 
f 444/65/74 430/72/74 432/73/74 434/74/74 
f 444/65/50 434/74/50 436/75/50 438/76/50 
f 444/65/50 438/76/50 440/77/50 442/78/50 
f 517/83/72 518/84/72 519/85/72 520/86/72 
f 518/83/18 521/84/18 522/85/18 519/86/18 
f 521/83/49 523/84/49 524/85/49 522/86/49 
f 523/83/13 517/84/13 520/85/13 524/86/13 
f 520/83/50 519/84/50 522/85/50 524/86/50 
f 523/83/51 521/84/51 518/85/51 517/86/51 
f 525/83/230 526/84/230 527/85/230 528/86/230 
f 528/83/231 527/84/231 529/85/231 530/86/231 
f 530/83/232 529/84/232 531/85/232 532/86/232 
f 532/83/233 531/84/233 533/85/233 534/86/233 
f 534/83/234 533/84/234 535/85/234 536/86/234 
f 536/83/235 535/84/235 537/85/235 538/86/235 
f 527/87/50 526/88/50 539/89/50 537/90/50 
f 527/87/50 537/90/50 535/91/50 533/92/50 
f 527/87/50 533/92/50 531/93/50 529/94/50 
f 540/83/236 539/84/236 526/85/236 525/86/236 
f 538/83/237 537/84/237 539/85/237 540/86/237 
f 525/87/51 528/88/51 530/89/51 532/90/51 
f 525/87/51 532/90/51 534/91/51 536/92/51 
f 525/87/52 536/92/52 538/93/52 540/94/52 
f 541/83/230 542/84/230 543/85/230 544/86/230 
f 544/83/231 543/84/231 545/85/231 546/86/231 
f 546/83/232 545/84/232 547/85/232 548/86/232 
f 548/83/233 547/84/233 549/85/233 550/86/233 
f 550/83/238 549/84/238 551/85/238 552/86/238 
f 552/83/235 551/84/235 553/85/235 554/86/235 
f 543/87/50 542/88/50 555/89/50 553/90/50 
f 543/87/239 553/90/239 551/91/239 549/92/239 
f 543/87/50 549/92/50 547/93/50 545/94/50 
f 556/83/236 555/84/236 542/85/236 541/86/236 
f 554/83/237 553/84/237 555/85/237 556/86/237 
f 541/87/51 544/88/51 546/89/51 548/90/51 
f 541/87/51 548/90/51 550/91/51 552/92/51 
f 541/87/51 552/92/51 554/93/51 556/94/51 
f 557/95/240 558/96/240 559/97/240 560/98/240 
f 560/95/241 559/96/241 561/97/241 562/98/241 
f 562/95/242 561/96/242 563/97/242 564/98/242 
f 564/95/243 563/96/243 565/97/243 566/98/243 
f 566/95/244 565/96/244 567/97/244 568/98/244 
f 568/95/245 567/96/245 569/97/245 570/98/245 
f 559/99/49 558/100/49 571/101/49 569/102/49 
f 559/99/49 569/102/49 567/103/49 565/104/49 
f 559/99/49 565/104/49 563/105/49 561/106/49 
f 572/95/246 571/96/246 558/97/246 557/98/246 
f 570/95/247 569/96/247 571/97/247 572/98/247 
f 557/99/48 560/100/48 562/101/48 564/102/48 
f 557/99/48 564/102/48 566/103/48 568/104/48 
f 557/99/48 568/104/48 570/105/48 572/106/48 
f 573/95/240 574/96/240 575/97/240 576/98/240 
f 576/95/241 575/96/241 577/97/241 578/98/241 
f 578/95/242 577/96/242 579/97/242 580/98/242 
f 580/95/243 579/96/243 581/97/243 582/98/243 
f 582/95/244 581/96/244 583/97/244 584/98/244 
f 584/95/245 583/96/245 585/97/245 586/98/245 
f 575/99/49 574/100/49 587/101/49 585/102/49 
f 575/99/49 585/102/49 583/103/49 581/104/49 
f 575/99/49 581/104/49 579/105/49 577/106/49 
f 588/95/246 587/96/246 574/97/246 573/98/246 
f 586/95/247 585/96/247 587/97/247 588/98/247 
f 573/99/48 576/100/48 578/101/48 580/102/48 
f 573/99/48 580/102/48 582/103/48 584/104/48 
f 573/99/48 584/104/48 586/105/48 588/106/48 
f 589/95/240 590/96/240 591/97/240 592/98/240 
f 592/95/241 591/96/241 593/97/241 594/98/241 
f 594/95/242 593/96/242 595/97/242 596/98/242 
f 596/95/243 595/96/243 597/97/243 598/98/243 
f 598/95/244 597/96/244 599/97/244 600/98/244 
f 600/95/245 599/96/245 601/97/245 602/98/245 
f 591/99/49 590/100/49 603/101/49 601/102/49 
f 591/99/49 601/102/49 599/103/49 597/104/49 
f 591/99/49 597/104/49 595/105/49 593/106/49 
f 604/95/246 603/96/246 590/97/246 589/98/246 
f 602/95/247 601/96/247 603/97/247 604/98/247 
f 589/99/48 592/100/48 594/101/48 596/102/48 
f 589/99/48 596/102/48 598/103/48 600/104/48 
f 589/99/48 600/104/48 602/105/48 604/106/48 
f 605/83/248 606/84/248 607/85/248 608/86/248 
f 608/83/249 607/84/249 609/85/249 610/86/249 
f 610/83/250 609/84/250 611/85/250 612/86/250 
f 612/83/251 611/84/251 613/85/251 614/86/251 
f 614/83/252 613/84/252 615/85/252 616/86/252 
f 616/83/253 615/84/253 617/85/253 618/86/253 
f 607/87/49 606/88/49 619/89/49 617/90/49 
f 607/87/49 617/90/49 615/91/49 613/92/49 
f 607/87/49 613/92/49 611/93/49 609/94/49 
f 620/83/254 619/84/254 606/85/254 605/86/254 
f 618/83/255 617/84/255 619/85/255 620/86/255 
s 1
f 620/83/48 605/84/48 621/85/48 622/86/48 
s off
f 622/83/256 621/84/256 623/85/256 624/86/256 
s 1
f 618/83/48 620/84/48 622/85/48 625/86/48 
s off
f 616/83/48 618/84/48 625/85/48 626/86/48 
f 614/83/48 616/84/48 626/85/48 627/86/48 
s 1
f 612/83/48 614/84/48 627/85/48 628/86/48 
f 610/83/48 612/84/48 628/85/48 629/86/48 
s off
f 608/83/48 610/84/48 629/85/48 630/86/48 
f 605/83/48 608/84/48 630/85/48 621/86/48 
f 623/87/48 631/88/48 632/89/48 633/90/48 
f 623/87/48 633/90/48 634/91/48 635/92/48 
f 623/87/48 635/92/48 636/93/48 624/94/48 
f 625/83/257 622/84/257 624/85/257 636/86/257 
f 626/83/258 625/84/258 636/85/258 635/86/258 
f 627/83/259 626/84/259 635/85/259 634/86/259 
f 628/83/260 627/84/260 634/85/260 633/86/260 
f 629/83/261 628/84/261 633/85/261 632/86/261 
f 630/83/262 629/84/262 632/85/262 631/86/262 
f 621/83/263 630/84/263 631/85/263 623/86/263 
f 637/37/48 638/38/48 639/39/48 640/40/48 
f 638/37/16 641/38/16 642/39/16 639/40/16 
f 641/37/49 643/38/49 644/39/49 642/40/49 
f 643/37/11 637/38/11 640/39/11 644/40/11 
f 640/37/50 639/38/50 642/39/50 644/40/50 
f 643/37/51 641/38/51 638/39/51 637/40/51 
f 645/37/48 646/38/48 647/39/48 648/40/48 
f 646/37/21 649/38/21 650/39/21 647/40/21 
f 649/37/49 651/38/49 652/39/49 650/40/49 
f 651/37/11 645/38/11 648/39/11 652/40/11 
f 648/37/50 647/38/50 650/39/50 652/40/50 
f 651/37/51 649/38/51 646/39/51 645/40/51 
f 653/107/48 654/108/48 655/109/48 656/110/48 
f 654/107/21 657/108/21 658/109/21 655/110/21 
f 657/107/49 659/108/49 660/109/49 658/110/49 
f 659/107/11 653/108/11 656/109/11 660/110/11 
f 656/107/50 655/108/50 658/109/50 660/110/50 
f 659/107/264 657/108/264 654/109/264 653/110/264 
f 661/107/48 662/108/48 663/109/48 664/110/48 
f 662/107/21 665/108/21 666/109/21 663/110/21 
f 665/107/49 667/108/49 668/109/49 666/110/49 
f 667/107/265 661/108/265 664/109/265 668/110/265 
f 664/107/74 663/108/74 666/109/74 668/110/74 
f 667/107/264 665/108/264 662/109/264 661/110/264 
f 669/107/48 670/108/48 671/109/48 672/110/48 
s 1
f 670/107/17 673/108/17 674/109/18 671/110/18 
s 2
f 673/107/49 675/108/49 676/109/49 674/110/49 
s 1
f 675/107/12 669/108/12 672/109/13 676/110/13 
s off
f 672/107/50 671/108/50 674/109/50 676/110/50 
s 1
f 669/107/12 675/108/12 677/109/12 678/110/12 
s off
f 677/107/51 679/108/51 680/109/51 678/110/51 
s 2
f 675/107/49 673/108/49 679/109/49 677/110/49 
s 1
f 673/107/17 670/108/17 680/109/17 679/110/17 
s off
f 670/107/266 669/108/266 678/109/266 680/110/266 
f 681/107/48 682/108/48 683/109/48 684/110/48 
s 1
f 682/107/17 685/108/17 686/109/18 683/110/18 
s 2
f 685/107/49 687/108/49 688/109/49 686/110/49 
s 1
f 687/107/12 681/108/12 684/109/13 688/110/13 
s off
f 684/107/50 683/108/50 686/109/50 688/110/50 
s 1
f 681/107/12 687/108/12 689/109/12 690/110/12 
s off
f 689/107/51 691/108/51 692/109/51 690/110/51 
s 2
f 687/107/49 685/108/49 691/109/49 689/110/49 
s 1
f 685/107/17 682/108/17 692/109/17 691/110/17 
s off
f 682/107/266 681/108/266 690/109/266 692/110/266 
f 693/111/48 694/112/48 695/113/48 696/114/48 
f 694/111/21 697/112/21 698/113/21 695/114/21 
f 697/111/49 699/112/49 700/113/49 698/114/49 
f 699/111/11 693/112/11 696/113/11 700/114/11 
f 696/111/50 695/112/50 698/113/50 700/114/50 
f 699/111/51 697/112/51 694/113/51 693/114/51 
f 701/111/72 702/112/72 703/113/72 704/114/72 
f 702/111/21 705/112/21 706/113/21 703/114/21 
f 705/111/61 707/112/61 708/113/61 706/114/61 
f 707/111/11 701/112/11 704/113/11 708/114/11 
f 704/111/50 703/112/50 706/113/50 708/114/50 
f 707/111/51 705/112/51 702/113/51 701/114/51 
f 709/115/64 710/116/64 711/117/64 712/118/64 
f 710/115/21 713/116/21 714/117/21 711/118/21 
f 713/115/49 715/116/49 716/117/49 714/118/49 
f 715/115/11 709/116/11 712/117/11 716/118/11 
f 712/115/73 711/116/73 714/117/73 716/118/73 
f 715/115/267 713/116/267 710/117/267 709/118/267 
f 717/115/48 718/116/48 719/117/48 720/118/48 
f 718/115/21 721/116/21 722/117/21 719/118/21 
f 721/115/49 723/116/49 724/117/49 722/118/49 
f 723/115/11 717/116/11 720/117/11 724/118/11 
f 720/115/50 719/116/50 722/117/50 724/118/50 
f 723/115/264 721/116/264 718/117/264 717/118/264 
f 725/115/64 726/116/64 727/117/64 728/118/64 
f 726/115/21 729/116/21 730/117/21 727/118/21 
f 729/115/49 731/116/49 732/117/49 730/118/49 
f 731/115/11 725/116/11 728/117/11 732/118/11 
f 728/115/50 727/116/50 730/117/50 732/118/50 
f 731/115/267 729/116/267 726/117/267 725/118/267 
s 1
f 733/119/21 734/120/21 735/121/17 736/122/16 
f 736/122/16 737/123/21 738/124/16 733/119/21 
f 733/119/21 738/124/16 739/125/21 740/126/21 
f 741/127/21 733/119/21 740/126/21 742/128/21 
f 743/129/17 744/130/17 745/131/17 746/132/18 
f 740/126/21 746/132/18 745/131/17 747/133/17 
f 740/126/21 747/133/17 742/128/21 
f 741/127/21 742/128/21 748/134/21 749/135/21 
f 741/127/21 749/135/21 750/136/16 751/137/16 
f 741/127/21 751/137/16 752/138/16 
f 753/139/18 754/140/18 755/141/18 756/142/21 
f 756/142/21 757/143/21 734/120/21 733/119/21 
f 741/127/21 758/144/18 759/145/21 733/119/21 
f 756/142/21 733/119/21 759/145/21 753/139/18 
f 753/139/18 759/145/21 760/146/16 761/147/16 
s off
f 734/148/268 762/149/268 763/150/268 735/151/268 
f 735/152/269 763/153/269 764/154/269 736/155/269 
s 1
f 758/144/18 741/127/21 752/138/16 765/156/16 
s off
f 736/157/73 764/158/73 766/159/73 767/160/73 
f 768/161/239 769/162/239 770/163/239 771/164/239 
f 772/165/50 773/166/50 774/167/50 775/168/50 
f 774/167/73 752/169/73 751/170/73 775/168/73 
f 771/164/50 772/165/50 775/168/50 768/161/50 
f 767/160/50 768/161/50 775/168/50 776/171/50 
f 776/171/239 745/172/239 744/173/239 777/174/239 
f 767/160/50 776/171/50 777/174/50 778/175/50 
f 736/157/50 767/160/50 778/175/50 737/176/50 
f 738/152/20 737/153/20 778/154/20 779/155/20 
f 739/152/24 738/153/24 779/154/24 780/155/24 
f 740/152/7 739/153/7 780/154/7 781/155/7 
f 746/152/6 740/153/6 781/154/6 782/155/6 
f 743/152/5 746/153/5 782/154/5 783/155/5 
f 777/152/23 744/153/23 743/154/23 783/155/23 
f 747/152/20 745/153/20 776/154/20 784/155/20 
f 742/152/8 747/153/8 784/154/8 785/155/8 
f 748/152/270 742/153/270 785/154/270 786/155/270 
f 749/152/6 748/153/6 786/154/6 787/155/6 
f 750/152/5 749/153/5 787/154/5 788/155/5 
f 775/152/4 751/153/4 750/154/4 788/155/4 
s 1
f 789/177/17 790/178/21 791/179/17 792/180/17 
f 791/179/17 754/140/18 792/180/17 
f 760/146/16 789/177/17 792/180/17 761/147/16 
s off
f 753/181/51 761/182/51 793/183/51 794/184/51 
f 754/181/271 753/182/271 794/183/271 795/184/271 
s 1
f 755/181/18 754/182/18 791/183/17 
s off
f 756/185/272 755/186/272 796/187/272 797/188/272 
f 798/189/273 756/185/273 797/188/273 799/190/273 
f 800/191/51 801/192/51 757/193/51 756/194/51 
f 802/185/52 800/191/52 756/194/52 798/195/52 
f 803/196/49 762/149/49 734/148/49 757/197/49 
f 759/198/64 758/199/64 804/200/64 805/201/64 
f 760/202/274 759/203/274 805/204/274 806/205/274 
s 1
f 762/206/265 807/207/265 764/208/11 763/209/12 
s off
f 804/200/64 758/199/64 765/210/64 808/211/64 
f 752/152/275 774/153/275 808/154/275 765/155/275 
s 1
f 809/212/265 774/213/11 773/214/12 810/215/12 
f 809/212/265 810/215/12 811/216/12 812/217/12 
f 807/207/265 809/212/265 812/217/12 813/218/13 
f 814/219/11 770/220/11 769/221/13 815/222/265 
f 812/217/12 815/222/265 769/221/13 816/223/13 
f 812/217/12 816/223/13 813/218/13 
f 807/207/265 813/218/13 817/224/11 818/225/265 
f 807/207/265 818/225/265 819/226/11 764/208/11 
f 819/226/11 766/227/11 764/208/11 
s off
f 820/152/9 767/153/9 766/154/9 819/155/9 
f 768/157/11 767/228/11 820/229/11 821/230/11 
f 768/157/13 821/230/13 822/231/13 823/232/13 
f 768/157/13 823/232/13 824/233/13 
f 816/152/4 769/153/4 768/154/4 824/155/4 
f 825/152/9 771/153/9 770/154/9 814/155/9 
f 772/157/11 771/228/11 825/229/11 826/230/11 
f 772/157/11 826/230/11 827/231/11 828/232/11 
f 772/157/11 828/232/11 829/233/11 
f 810/152/4 773/153/4 772/154/4 829/155/4 
f 776/157/21 775/228/21 788/229/21 787/230/21 
f 776/157/21 787/230/21 786/231/21 785/232/21 
f 776/157/21 785/232/21 784/233/21 
f 778/157/18 777/228/18 783/229/18 782/230/18 
f 778/157/18 782/230/18 781/231/18 780/232/18 
f 778/157/21 780/232/21 779/233/21 
f 760/234/276 806/235/276 830/236/276 831/237/276 
f 789/238/277 760/234/277 831/237/277 832/239/277 
f 761/181/278 792/182/278 833/183/278 793/184/278 
f 795/240/21 794/241/21 793/242/21 833/243/21 
f 792/181/50 754/182/50 795/183/50 833/184/50 
f 798/189/279 799/190/279 834/244/279 835/245/279 
f 836/246/280 835/245/280 834/244/280 837/247/280 
f 838/248/281 796/187/281 755/186/281 837/247/281 
f 836/246/282 837/247/282 755/186/282 839/193/282 
f 839/193/61 755/186/61 791/249/61 790/250/61 
f 803/192/51 757/193/51 801/194/51 840/195/51 
f 798/191/51 803/192/51 840/195/51 802/185/51 
f 800/181/61 802/182/61 841/183/61 842/184/61 
f 801/181/11 800/182/11 842/183/11 843/184/11 
s 1
f 806/251/12 805/252/12 804/253/12 844/254/13 
f 807/207/265 762/206/265 803/255/265 809/212/265 
f 809/212/265 803/255/265 798/256/12 844/254/13 
f 798/256/12 835/257/13 845/258/13 844/254/13 
f 804/253/12 809/212/265 844/254/13 
f 846/259/12 806/251/12 844/254/13 
f 809/212/265 804/253/12 808/260/11 774/213/11 
s off
f 811/152/5 810/153/5 829/154/5 828/155/5 
f 812/152/6 811/153/6 828/154/6 827/155/6 
f 815/152/7 812/153/7 827/154/7 826/155/7 
f 814/152/24 815/153/24 826/154/24 825/155/24 
f 813/152/5 816/153/5 824/154/5 823/155/5 
f 817/152/6 813/153/6 823/154/6 822/155/6 
f 818/152/7 817/153/7 822/154/7 821/155/7 
f 819/152/24 818/153/24 821/154/24 820/155/24 
f 802/181/18 840/182/18 847/183/18 841/184/18 
f 840/181/72 801/182/72 843/183/72 847/184/72 
f 841/261/267 847/262/267 843/263/267 842/264/267 
f 846/181/51 844/182/51 848/183/51 849/184/51 
s 1
f 836/181/11 845/182/13 835/183/13 
s off
f 844/181/271 845/182/271 850/183/271 848/184/271 
f 832/181/11 831/182/11 851/183/11 852/184/11 
f 853/181/283 832/182/283 852/183/283 854/184/283 
f 853/265/276 830/236/276 806/235/276 855/266/276 
f 832/239/276 853/265/276 855/266/276 789/238/276 
f 790/267/51 789/238/51 855/266/51 839/268/51 
f 856/181/278 846/182/278 849/183/278 857/184/278 
f 857/243/13 849/242/13 848/241/13 850/240/13 
f 845/181/74 856/182/74 857/183/74 850/184/74 
f 831/181/51 830/182/51 858/183/51 851/184/51 
f 852/269/284 851/270/284 858/270/284 854/269/284 
f 830/181/21 853/182/21 854/183/21 858/184/21 
f 856/271/12 845/258/12 836/272/12 839/273/12 
f 856/271/12 839/273/12 855/274/12 806/251/12 
f 856/271/13 806/251/13 846/259/13 
f 859/275/285 860/276/285 861/276/285 862/275/285 
f 837/277/21 834/277/21 860/277/21 859/277/21 
f 838/277/50 837/277/50 859/277/50 862/277/50 
f 862/277/11 861/277/11 797/277/11 796/277/11 
f 862/277/11 796/277/11 838/277/11 
f 860/277/51 834/277/51 799/277/51 797/277/51 
f 860/277/51 797/277/51 861/277/51 
# 780 polygons - 16 triangles

