# 3ds Max Wavefront OBJ Exporter v0.97b - (c)2007 guruware
# File Created: 15.03.2017 11:55:44

mtllib SPW_Vehicle_Land_Static_School Bus.mtl

#
# object SPW_Vehicle_Land_Static_School_Bus
#

v  -62.2872 38.8472 -137.8965
v  -48.6518 38.8472 -137.8965
v  -48.6518 36.9231 -146.3267
v  -62.2872 36.9231 -146.3267
v  -48.6518 31.5318 -153.0872
v  -62.2872 31.5318 -153.0872
v  -48.6518 23.7410 -156.8391
v  -62.2872 23.7410 -156.8391
v  -48.6518 15.0940 -156.8391
v  -62.2872 15.0940 -156.8391
v  -48.6518 7.3033 -153.0873
v  -62.2872 7.3033 -153.0873
v  -48.6518 1.9120 -146.3267
v  -62.2872 1.9120 -146.3267
v  -48.6518 -0.0122 -137.8965
v  -62.2872 -0.0122 -137.8965
v  -48.6518 1.9120 -129.4662
v  -62.2872 1.9120 -129.4662
v  -48.6518 7.3033 -122.7057
v  -62.2872 7.3033 -122.7057
v  -48.6518 15.0940 -118.9539
v  -62.2872 15.0940 -118.9539
v  -48.6518 23.7410 -118.9539
v  -62.2872 23.7410 -118.9539
v  -48.6518 31.5318 -122.7057
v  -62.2872 31.5318 -122.7057
v  -48.6518 36.9231 -129.4662
v  -62.2872 36.9231 -129.4662
v  -62.2872 38.8472 96.1701
v  -48.6518 38.8472 96.1701
v  -48.6518 36.9231 87.7399
v  -62.2872 36.9231 87.7399
v  -48.6518 31.5317 80.9793
v  -62.2872 31.5317 80.9793
v  -48.6518 23.7410 77.2275
v  -62.2872 23.7410 77.2275
v  -48.6518 15.0940 77.2275
v  -62.2872 15.0940 77.2275
v  -48.6518 7.3033 80.9793
v  -62.2872 7.3033 80.9793
v  -48.6518 1.9119 87.7398
v  -62.2872 1.9119 87.7398
v  -48.6518 -0.0122 96.1701
v  -62.2872 -0.0122 96.1701
v  -48.6518 1.9119 104.6003
v  -62.2872 1.9119 104.6003
v  -48.6518 7.3033 111.3608
v  -62.2872 7.3033 111.3608
v  -48.6518 15.0940 115.1127
v  -62.2872 15.0940 115.1127
v  -48.6518 23.7410 115.1127
v  -62.2872 23.7410 115.1127
v  -48.6518 31.5317 111.3609
v  -62.2872 31.5317 111.3609
v  -48.6518 36.9231 104.6003
v  -62.2872 36.9231 104.6003
v  48.6644 38.8472 -137.8965
v  62.2997 38.8472 -137.8965
v  62.2997 36.9231 -146.3267
v  48.6644 36.9231 -146.3267
v  62.2997 31.5318 -153.0873
v  48.6644 31.5318 -153.0873
v  62.2997 23.7410 -156.8391
v  48.6644 23.7410 -156.8391
v  62.2997 15.0940 -156.8391
v  48.6644 15.0940 -156.8391
v  62.2997 7.3033 -153.0873
v  48.6644 7.3033 -153.0873
v  62.2997 1.9120 -146.3267
v  48.6644 1.9120 -146.3267
v  62.2997 -0.0122 -137.8965
v  48.6644 -0.0122 -137.8965
v  62.2997 1.9120 -129.4662
v  48.6644 1.9120 -129.4662
v  62.2997 7.3033 -122.7057
v  48.6644 7.3033 -122.7057
v  62.2997 15.0940 -118.9539
v  48.6644 15.0940 -118.9539
v  62.2997 23.7410 -118.9539
v  48.6644 23.7410 -118.9539
v  62.2997 31.5318 -122.7057
v  48.6644 31.5318 -122.7057
v  62.2997 36.9231 -129.4662
v  48.6644 36.9231 -129.4662
v  48.6644 38.8472 96.1701
v  62.2997 38.8472 96.1701
v  62.2997 36.9231 87.7398
v  48.6644 36.9231 87.7398
v  62.2997 31.5317 80.9793
v  48.6644 31.5317 80.9793
v  62.2997 23.7410 77.2275
v  48.6644 23.7410 77.2275
v  62.2997 15.0940 77.2275
v  48.6644 15.0940 77.2275
v  62.2997 7.3033 80.9793
v  48.6644 7.3033 80.9793
v  62.2997 1.9119 87.7398
v  48.6644 1.9119 87.7398
v  62.2997 -0.0122 96.1701
v  48.6644 -0.0122 96.1701
v  62.2997 1.9119 104.6003
v  48.6644 1.9119 104.6003
v  62.2997 7.3033 111.3608
v  48.6644 7.3033 111.3608
v  62.2997 15.0940 115.1127
v  48.6644 15.0940 115.1127
v  62.2997 23.7410 115.1127
v  48.6644 23.7410 115.1127
v  62.2997 31.5317 111.3608
v  48.6644 31.5317 111.3608
v  62.2997 36.9231 104.6003
v  48.6644 36.9231 104.6003
v  -65.5575 116.3893 201.1213
v  -71.9839 116.3893 199.9881
v  -71.9839 97.1924 199.9881
v  -65.5575 97.1924 201.1213
v  -72.3818 117.2590 197.5892
v  -72.3818 96.3227 197.5892
v  -64.3631 117.2590 199.0031
v  -64.3631 96.3227 199.0031
v  -69.1189 122.0764 199.1991
v  -68.0266 122.0764 199.1991
v  -68.0266 120.9841 199.1991
v  -69.1189 120.9841 199.1991
v  -68.0266 120.9841 200.2915
v  -62.0196 120.9841 199.1991
v  -62.0196 120.9841 200.2915
v  -68.0266 122.0764 200.2915
v  -69.1189 122.0764 200.2915
v  -69.1189 120.9841 200.2915
v  -69.1189 92.2517 199.1991
v  -69.1189 92.2517 200.2914
v  -62.0196 122.0764 199.1991
v  -62.0196 122.0764 200.2915
v  -69.1189 91.0901 199.1991
v  -69.1189 91.0901 200.2914
v  -68.0266 92.2517 200.2914
v  -68.0266 92.2517 199.1991
v  -68.0266 91.0901 199.1991
v  -68.0266 91.0901 200.2914
v  -62.0280 92.2517 199.1991
v  -62.0280 91.0901 199.1991
v  -62.0280 92.2517 200.2914
v  -62.0280 91.0901 200.2914
v  72.0036 116.3893 200.0397
v  65.5772 116.3893 201.1728
v  65.5772 97.1924 201.1728
v  72.0036 97.1924 200.0397
v  64.3828 117.2590 199.0547
v  64.3828 96.3227 199.0547
v  72.4015 117.2590 197.6408
v  72.4015 96.3227 197.6408
v  69.1384 122.0764 200.2915
v  68.0461 122.0764 200.2915
v  68.0461 120.9841 200.2915
v  69.1384 120.9841 200.2915
v  68.0461 120.9841 199.1991
v  62.0390 120.9841 200.2915
v  62.0390 120.9841 199.1991
v  68.0461 122.0764 199.1991
v  69.1384 122.0764 199.1991
v  69.1384 120.9841 199.1991
v  69.1384 92.2517 200.2915
v  69.1384 92.2517 199.1991
v  62.0390 122.0764 200.2915
v  62.0390 122.0764 199.1991
v  69.1384 91.0901 200.2915
v  69.1384 91.0901 199.1991
v  68.0461 92.2517 199.1991
v  68.0461 92.2517 200.2915
v  68.0461 91.0901 200.2915
v  68.0461 91.0901 199.1991
v  62.0475 92.2517 200.2915
v  62.0475 91.0901 200.2915
v  62.0475 92.2517 199.1991
v  62.0475 91.0901 199.1991
v  -41.0683 61.2227 -201.3256
v  41.0810 61.2227 -201.3256
v  41.0810 49.3493 -201.3256
v  -41.0683 49.3493 -201.3256
v  41.0810 61.2227 -200.1079
v  41.0810 49.3493 -200.1079
v  -41.0683 61.2227 -200.1079
v  -41.0683 49.3493 -200.1079
v  58.4376 135.8323 202.9491
v  -58.4249 135.8323 202.9491
v  -58.4249 118.9417 202.9491
v  58.4376 118.9417 202.9491
v  -58.4249 135.8323 201.2168
v  -58.4249 118.9417 201.2168
v  58.4376 135.8323 201.2168
v  58.4376 118.9417 201.2168
v  62.9985 25.3943 202.9267
v  -62.9858 25.3943 202.9267
v  -62.9858 25.3943 209.5412
v  62.9985 25.3943 209.5412
v  62.9985 16.0499 202.9267
v  62.9985 16.0499 209.5412
v  62.9985 56.5059 202.9267
v  -62.9858 56.5059 202.9267
v  -62.9858 16.0499 202.9267
v  -62.9858 16.0499 209.5413
v  62.9985 16.0499 117.1756
v  62.9985 21.6563 117.2246
v  62.9985 25.3943 116.4067
v  62.9985 127.2967 202.9267
v  62.9985 67.3808 197.8511
v  62.9985 126.9770 197.8511
v  62.9985 126.9770 174.1299
v  62.9985 126.9770 170.1940
v  62.9985 82.4174 174.1299
v  62.9985 82.4092 170.1940
v  62.9985 126.9770 122.9499
v  62.9985 126.9770 119.0577
v  62.9985 82.4092 122.9499
v  62.9985 82.5211 119.0577
v  62.9985 126.9770 59.9526
v  62.9985 126.9770 56.0534
v  62.9985 82.5211 59.9526
v  62.9985 82.5211 56.0534
v  62.9985 126.9770 -3.0517
v  62.9985 126.9770 -7.0105
v  62.9985 82.5211 -3.0517
v  62.9985 82.5211 -7.0105
v  62.9985 126.9770 -66.1155
v  62.9985 126.9770 -70.0744
v  62.9985 82.5211 -66.1156
v  62.9985 82.5211 -70.0744
v  62.9985 126.9770 -129.1795
v  62.9985 82.5211 -129.1795
v  62.9985 82.5211 -133.1958
v  62.9985 126.9770 -133.1959
v  62.9985 126.9770 -192.3009
v  62.9985 127.2968 -201.2967
v  62.9985 28.9516 115.6283
v  62.9985 28.9516 76.8813
v  62.9985 25.3943 76.1029
v  62.9985 25.3944 -117.6603
v  62.9985 35.1362 81.4270
v  62.9985 39.2687 88.2300
v  62.9985 40.7198 96.2548
v  62.9985 28.9516 -118.4386
v  62.9985 28.9516 -157.1857
v  62.9985 25.3944 -157.9641
v  62.9985 25.3944 -201.2968
v  62.9985 35.1363 -152.6400
v  62.9985 39.2687 -145.8369
v  62.9985 82.5211 -192.3009
v  62.9985 56.6346 -201.2967
v  62.9985 40.7198 -137.8122
v  62.9985 39.2687 -129.7874
v  62.9985 35.1362 -122.9843
v  62.9985 39.2687 104.2796
v  62.9985 35.1362 111.0827
v  57.7697 67.4225 202.9267
v  -57.7570 67.4225 202.9267
v  -62.9858 127.2967 202.9267
v  -57.7570 126.9770 202.9267
v  57.7697 126.9770 202.9267
v  -62.9858 25.4619 122.9499
v  -62.9858 126.9770 122.9499
v  -62.9858 82.5211 119.0577
v  -62.9858 82.5211 59.9526
v  -62.9858 82.5211 56.0534
v  -62.9858 35.1362 111.0827
v  -62.9858 82.5211 -129.1795
v  -62.9858 35.1363 -152.6401
v  -62.9858 39.2687 -145.8370
v  -62.9858 82.5211 -70.0744
v  -62.9858 82.5211 -66.1155
v  -62.9858 82.5211 -7.0105
v  -62.9858 82.5211 -3.0517
v  -62.9858 40.7198 -137.8122
v  -62.9858 39.2687 88.2300
v  -62.9858 28.9516 -118.4386
v  -62.9858 25.3944 -117.6603
v  -62.9858 25.3943 76.1029
v  -62.9858 35.1362 -122.9843
v  -62.9858 39.2687 -129.7874
v  -62.9858 28.9516 76.8813
v  -62.9858 35.1362 81.4269
v  -62.9858 40.7198 96.2548
v  -62.9858 39.2687 104.2796
v  -62.9858 28.9516 115.6283
v  -62.9858 25.3943 116.4067
v  -62.9858 25.4619 170.1940
v  -62.9858 127.2968 -201.2967
v  -62.9858 126.9770 174.1299
v  -62.9858 126.9770 197.8511
v  -62.9858 67.3808 197.8511
v  -62.9858 82.4328 174.1299
v  -62.9858 56.6346 -201.2967
v  -62.9858 25.3944 -201.2968
v  -62.9858 25.3944 -157.9641
v  -62.9858 28.9516 -157.1857
v  -62.9858 82.5211 -133.1959
v  -62.9858 82.5211 -192.3009
v  -62.9858 126.9770 -192.3009
v  -62.9858 126.9770 119.0577
v  -62.9858 126.9770 170.1940
v  -62.9858 126.9770 -133.1959
v  -62.9858 126.9770 -129.1795
v  -62.9858 126.9770 59.9526
v  -62.9858 126.9770 -70.0744
v  -62.9858 126.9770 -66.1155
v  -62.9858 126.9770 -3.0517
v  -62.9858 126.9770 -7.0105
v  -62.9858 126.9770 56.0534
v  -62.9858 21.6563 117.2246
v  -62.9858 16.0499 117.1756
v  -43.2255 16.0499 117.1756
v  -43.2255 16.0500 75.3340
v  -62.9858 16.0500 75.3340
v  -62.9858 16.0500 -116.8914
v  -43.2255 16.0500 -116.8914
v  -43.2255 16.0500 -158.7330
v  -62.9858 16.0500 -158.7330
v  -62.9858 16.0500 -201.2967
v  42.9523 16.0500 -158.7330
v  62.9985 16.0500 -201.2967
v  62.9985 16.0500 -158.7330
v  42.9523 16.0500 -116.8914
v  62.9985 16.0500 -116.8914
v  62.9985 16.0500 75.3340
v  42.9523 16.0500 75.3340
v  42.9523 16.0499 117.1756
v  42.9523 21.6563 117.2246
v  57.7697 67.4225 -201.2967
v  57.7697 126.9770 -201.2967
v  -57.7570 126.9770 -201.2967
v  -57.7570 67.4225 -201.2967
v  62.9985 135.8570 -201.2967
v  62.9985 135.8570 202.9334
v  42.9523 28.9516 115.6283
v  42.9523 35.1362 111.0827
v  42.9523 39.2687 104.2796
v  42.9523 40.7198 96.2548
v  42.9523 39.2687 88.2300
v  42.9523 35.1362 81.4269
v  42.9523 28.9516 76.8813
v  42.9523 21.6563 75.2850
v  62.9985 21.6563 75.2850
v  62.9985 21.6564 -116.8424
v  42.9523 28.9516 -118.4386
v  42.9523 35.1362 -122.9843
v  42.9523 39.2687 -129.7874
v  42.9523 40.7198 -137.8122
v  42.9523 39.2687 -145.8370
v  42.9523 35.1363 -152.6400
v  42.9523 28.9516 -157.1857
v  62.9985 21.6564 -158.7820
v  -62.9858 135.8570 202.9335
v  -62.9858 135.8570 -201.2967
v  -62.9858 21.6564 -158.7820
v  -43.2255 28.9516 -157.1857
v  -43.2255 35.1363 -152.6400
v  -43.2255 39.2687 -145.8369
v  -43.2255 40.7198 -137.8122
v  -43.2255 39.2687 -129.7874
v  -43.2255 35.1362 -122.9843
v  -43.2255 28.9516 -118.4386
v  -62.9858 21.6564 -116.8424
v  -62.9858 21.6563 75.2850
v  -43.2255 21.6563 75.2850
v  -43.2255 28.9516 76.8813
v  -43.2255 35.1362 81.4270
v  -43.2255 39.2687 88.2300
v  -43.2255 40.7198 96.2548
v  -43.2255 39.2687 104.2796
v  -43.2255 35.1362 111.0827
v  -43.2255 28.9516 115.6283
v  -43.2255 21.6563 117.2246
v  -43.2255 21.6564 -116.8424
v  -43.2255 21.6564 -158.7820
v  -62.9858 16.0500 -206.5914
v  62.9985 16.0500 -206.5915
v  42.9523 21.6564 -158.7820
v  42.9523 21.6564 -116.8424
v  62.9985 139.3975 -201.2967
v  62.9985 139.3975 205.4608
v  62.9985 25.3944 -206.5915
v  -62.9858 25.3944 -206.5914
v  57.7697 126.9770 -200.7153
v  57.7697 67.4225 -200.7153
v  -57.7570 67.4225 -200.7153
v  -57.7570 126.9770 -200.7153
v  62.5272 82.5211 -133.1958
v  62.5272 126.9770 -133.1959
v  62.5272 126.9770 -192.3009
v  62.5272 82.5211 -192.3009
v  62.5272 82.5211 -70.0744
v  62.5272 126.9770 -70.0744
v  62.5272 126.9770 -129.1795
v  62.5272 82.5211 -129.1795
v  62.5272 82.5211 -7.0105
v  62.5272 126.9770 -7.0105
v  62.5272 126.9770 -66.1155
v  62.5272 82.5211 -66.1156
v  62.5272 82.5211 56.0534
v  62.5272 126.9770 56.0534
v  62.5272 126.9770 -3.0517
v  62.5272 82.5211 -3.0517
v  62.5272 82.5211 119.0577
v  62.5272 126.9770 119.0577
v  62.5272 126.9770 59.9526
v  62.5272 82.5211 59.9526
v  62.5272 67.3808 197.8511
v  62.5272 126.9770 197.8511
v  62.5273 126.9770 174.1299
v  62.5273 82.4174 174.1299
v  62.5273 82.4092 170.1940
v  62.5273 126.9770 170.1940
v  62.5272 126.9770 122.9499
v  62.5272 82.4092 122.9499
v  -62.5147 126.9770 -133.1959
v  -62.5147 82.5211 -133.1959
v  -62.5147 82.5211 -192.3009
v  -62.5147 126.9770 -192.3009
v  -62.5147 126.9770 -70.0744
v  -62.5147 82.5211 -70.0744
v  -62.5147 82.5211 -129.1795
v  -62.5147 126.9770 -129.1795
v  -62.5147 126.9770 -7.0105
v  -62.5147 82.5211 -7.0105
v  -62.5147 82.5211 -66.1155
v  -62.5147 126.9770 -66.1155
v  -62.5147 126.9770 56.0534
v  -62.5147 82.5211 56.0534
v  -62.5147 82.5211 -3.0517
v  -62.5147 126.9770 -3.0517
v  -62.5147 126.9770 119.0577
v  -62.5147 82.5211 119.0577
v  -62.5147 82.5211 59.9526
v  -62.5147 126.9770 59.9526
v  -62.5147 126.9770 197.8511
v  -62.5147 67.3808 197.8511
v  -62.5147 82.4328 174.1299
v  -62.5147 126.9770 174.1299
v  -62.5147 126.9770 170.1940
v  -62.5147 25.4619 170.1940
v  -62.5147 25.4619 122.9499
v  -62.5147 126.9770 122.9499
v  -57.7570 67.4225 202.5103
v  -57.7570 126.9770 202.5103
v  57.7697 126.9770 202.5103
v  57.7697 67.4225 202.5103
v  -62.9858 139.3975 -201.2967
v  -62.9858 139.3975 205.4609
v  21.1333 143.0348 71.6190
v  -21.1205 143.0348 71.6190
v  -21.1205 133.6685 71.6190
v  21.1333 133.6685 71.6190
v  -21.1205 143.0348 0.4532
v  -21.1205 133.6685 0.4532
v  21.1333 143.0348 0.4532
v  21.1333 133.6685 0.4532
v  21.1332 143.0348 -85.3377
v  -21.1205 143.0348 -85.3377
v  -21.1205 133.6685 -85.3377
v  21.1332 133.6685 -85.3377
v  -21.1205 143.0348 -156.5035
v  -21.1205 133.6685 -156.5035
v  21.1332 143.0348 -156.5035
v  21.1332 133.6685 -156.5035
# 464 vertices

vn 0.0000 0.9749 -0.2225
vn 0.0000 0.7818 -0.6235
vn -0.0000 0.4339 -0.9010
vn -0.0000 0.0000 -1.0000
vn 0.0000 -0.4339 -0.9010
vn 0.0000 -0.7818 -0.6235
vn 0.0000 -0.9749 -0.2225
vn 0.0000 -0.9749 0.2225
vn 0.0000 -0.7818 0.6235
vn 0.0000 -0.4339 0.9010
vn 0.0000 -0.0000 1.0000
vn 0.0000 0.4339 0.9010
vn 1.0000 0.0000 0.0000
vn 1.0000 0.0000 -0.0000
vn 1.0000 -0.0000 -0.0000
vn 0.0000 0.9749 0.2225
vn 0.0000 0.7818 0.6235
vn -1.0000 0.0000 -0.0000
vn -1.0000 -0.0000 0.0000
vn -1.0000 -0.0000 -0.0000
vn -0.0000 -0.0000 -1.0000
vn -0.0000 -0.4339 -0.9010
vn 0.0000 0.0000 1.0000
vn -0.0000 0.9749 0.2225
vn -0.0000 0.7818 0.6235
vn 0.0000 0.4339 -0.9010
vn -0.1736 -0.0000 0.9848
vn -0.9865 -0.0000 0.1636
vn 0.1736 0.0000 -0.9848
vn 0.8711 -0.0000 0.4912
vn -0.0616 -0.9350 0.3492
vn -0.0616 0.9350 0.3492
vn 0.0000 0.0000 -1.0000
vn 0.0000 -1.0000 -0.0000
vn 0.0000 1.0000 0.0000
vn 0.1736 -0.0000 0.9848
vn -0.8711 -0.0000 0.4912
vn -0.1736 0.0000 -0.9848
vn 0.9865 -0.0000 0.1636
vn 0.0616 -0.9350 0.3492
vn 0.0616 0.9350 0.3492
vn -0.0000 -1.0000 -0.0000
vn 0.0000 1.0000 -0.0000
vn -1.0000 0.0000 0.0000
vn 1.0000 -0.0000 0.0000
vn -0.0000 -0.0000 1.0000
vn -1.0000 0.0001 0.0000
vn -1.0000 0.0001 -0.0000
vn 0.4472 -0.8944 -0.0000
vn -0.9861 -0.1660 -0.0000
vn 0.9701 -0.2425 -0.0000
vn 0.9735 0.2288 -0.0000
vn -0.9849 -0.1731 0.0000
vn 0.0000 -1.0000 0.0000
vn -0.0000 -1.0000 0.0000
vn 0.0000 0.0087 -1.0000
vn 0.0000 -0.5922 -0.8058
vn 0.0000 -0.8547 -0.5192
vn 0.0000 -0.9840 -0.1779
vn 0.0000 -0.9840 0.1779
vn -0.0000 -0.8547 0.5192
vn -0.0000 -0.5922 0.8058
vn 0.0000 -0.2137 0.9769
vn -0.0000 -0.9840 0.1779
vn 0.0000 -0.5922 0.8058
vn 0.0000 -0.0008 1.0000
vn -0.0000 -0.5922 -0.8058
vn -0.0000 -0.2137 0.9769
vn -0.0000 -0.2137 -0.9769
vn 0.0000 -0.2137 -0.9769
vn -0.0000 0.0087 1.0000
vn -0.0000 0.0087 -1.0000
vn 0.0000 0.0087 1.0000
vn 0.0000 -0.0000 -1.0000
vn 0.0000 0.8446 0.5354
vn 0.0000 0.8444 0.5358
vn -0.0000 1.0000 0.0000
vn 0.0000 -0.5810 0.8139
vn -0.0000 1.0000 -0.0000
# 79 vertex normals

vt 0.8477 0.2020 0.0000
vt 0.8852 0.1935 0.0000
vt 0.9153 0.1695 0.0000
vt 0.9319 0.1349 0.0000
vt 0.9319 0.0965 0.0000
vt 0.9153 0.0618 0.0000
vt 0.8852 0.0379 0.0000
vt 0.8477 0.0293 0.0000
vt 0.8103 0.0379 0.0000
vt 0.7802 0.0618 0.0000
vt 0.7636 0.0965 0.0000
vt 0.7636 0.1349 0.0000
vt 0.7802 0.1695 0.0000
vt 0.8103 0.1935 0.0000
vt 0.3334 0.1654 0.0000
vt 0.3351 0.1654 0.0000
vt 0.3351 0.1364 0.0000
vt 0.3334 0.1364 0.0000
vt 0.3387 0.1667 0.0000
vt 0.3387 0.1351 0.0000
vt 0.3366 0.1667 0.0000
vt 0.3366 0.1351 0.0000
vt 0.3363 0.1739 0.0000
vt 0.3363 0.1723 0.0000
vt 0.3346 0.1723 0.0000
vt 0.3346 0.1739 0.0000
vt 0.3363 0.1290 0.0000
vt 0.3346 0.1290 0.0000
vt 0.3363 0.1272 0.0000
vt 0.3346 0.1272 0.0000
vt 0.3350 0.1654 0.0000
vt 0.3333 0.1654 0.0000
vt 0.3333 0.1364 0.0000
vt 0.3350 0.1364 0.0000
vt 0.3365 0.1667 0.0000
vt 0.3365 0.1351 0.0000
vt 0.3386 0.1667 0.0000
vt 0.3386 0.1351 0.0000
vt 0.7740 0.9439 0.0000
vt 0.3364 0.9439 0.0000
vt 0.3364 0.8807 0.0000
vt 0.7740 0.8807 0.0000
vt 0.2929 0.1157 0.0000
vt 0.3429 0.1157 0.0000
vt 0.3429 0.1657 0.0000
vt 0.2929 0.1657 0.0000
vt 0.3782 0.6947 0.0000
vt 0.0067 0.6947 0.0000
vt 0.0067 0.6030 0.0000
vt 0.3782 0.6030 0.0000
vt 0.3417 0.1485 0.0000
vt 0.3326 0.1205 0.0000
vt 0.3032 0.1205 0.0000
vt 0.2941 0.1485 0.0000
vt 0.3179 0.1657 0.0000
vt 0.4971 0.4693 0.0000
vt 0.5023 0.4688 0.0000
vt 0.5072 0.4672 0.0000
vt 0.5118 0.4646 0.0000
vt 0.5156 0.4611 0.0000
vt 0.5219 0.4469 0.0000
vt 0.5187 0.4568 0.0000
vt 0.5208 0.4521 0.0000
vt 0.5219 0.4417 0.0000
vt 0.5156 0.4276 0.0000
vt 0.5208 0.4366 0.0000
vt 0.5187 0.4318 0.0000
vt 0.5118 0.4241 0.0000
vt 0.4971 0.4193 0.0000
vt 0.5072 0.4215 0.0000
vt 0.5023 0.4199 0.0000
vt 0.4919 0.4199 0.0000
vt 0.4785 0.4276 0.0000
vt 0.4869 0.4215 0.0000
vt 0.4824 0.4241 0.0000
vt 0.4754 0.4318 0.0000
vt 0.4722 0.4469 0.0000
vt 0.4733 0.4366 0.0000
vt 0.4722 0.4417 0.0000
vt 0.4733 0.4521 0.0000
vt 0.4754 0.4568 0.0000
vt 0.4785 0.4611 0.0000
vt 0.4824 0.4646 0.0000
vt 0.4869 0.4672 0.0000
vt 0.4919 0.4688 0.0000
vt 0.0382 0.2674 0.0000
vt 0.2293 0.2674 0.0000
vt 0.2308 0.2751 0.0000
vt 0.0492 0.3582 0.0000
vt 0.3070 0.2751 0.0000
vt 0.3086 0.2674 0.0000
vt 0.7356 0.2674 0.0000
vt 0.2981 0.2885 0.0000
vt 0.2847 0.2974 0.0000
vt 0.2689 0.3006 0.0000
vt 0.7371 0.2751 0.0000
vt 0.8133 0.2751 0.0000
vt 0.8148 0.2674 0.0000
vt 0.9125 0.2674 0.0000
vt 0.8044 0.2885 0.0000
vt 0.7910 0.2974 0.0000
vt 0.8931 0.3910 0.0000
vt 0.9125 0.3350 0.0000
vt 0.9125 0.4878 0.0000
vt 0.8931 0.4871 0.0000
vt 0.7752 0.3006 0.0000
vt 0.7594 0.2974 0.0000
vt 0.7460 0.2885 0.0000
vt 0.3475 0.3910 0.0000
vt 0.2196 0.3910 0.0000
vt 0.2112 0.3907 0.0000
vt 0.3559 0.3910 0.0000
vt 0.1090 0.3907 0.0000
vt 0.1005 0.3908 0.0000
vt 0.4837 0.3910 0.0000
vt 0.4923 0.3910 0.0000
vt 0.6201 0.3910 0.0000
vt 0.6287 0.3910 0.0000
vt 0.7565 0.3910 0.0000
vt 0.7652 0.3910 0.0000
vt 0.2532 0.2974 0.0000
vt 0.2398 0.2885 0.0000
vt 0.0382 0.3347 0.0000
vt 0.2112 0.2676 0.0000
vt 0.2112 0.4871 0.0000
vt 0.1090 0.2676 0.0000
vt 0.2196 0.4871 0.0000
vt 0.1090 0.4871 0.0000
vt 0.1005 0.4871 0.0000
vt 0.5131 0.4635 0.0000
vt 0.5217 0.4487 0.0000
vt 0.5217 0.4400 0.0000
vt 0.5056 0.4678 0.0000
vt 0.4885 0.4678 0.0000
vt 0.5131 0.4252 0.0000
vt 0.5056 0.4208 0.0000
vt 0.4725 0.4400 0.0000
vt 0.4885 0.4208 0.0000
vt 0.4810 0.4252 0.0000
vt 0.4725 0.4487 0.0000
vt 0.4810 0.4635 0.0000
vt 0.3256 0.1645 0.0000
vt 0.3326 0.1610 0.0000
vt 0.3381 0.1554 0.0000
vt 0.3429 0.1407 0.0000
vt 0.3417 0.1330 0.0000
vt 0.3381 0.1260 0.0000
vt 0.3256 0.1169 0.0000
vt 0.3179 0.1157 0.0000
vt 0.2977 0.1260 0.0000
vt 0.3102 0.1169 0.0000
vt 0.2941 0.1330 0.0000
vt 0.2929 0.1407 0.0000
vt 0.2977 0.1554 0.0000
vt 0.3032 0.1610 0.0000
vt 0.3102 0.1645 0.0000
vt 0.4721 0.4193 0.0000
vt 0.5221 0.4193 0.0000
vt 0.5221 0.4693 0.0000
vt 0.4721 0.4693 0.0000
vt 0.3396 0.1282 0.0000
vt 0.2963 0.1282 0.0000
vt 0.3396 0.1532 0.0000
vt 0.2963 0.1532 0.0000
vt 0.3774 0.8156 0.0000
vt 0.0071 0.8156 0.0000
vt 0.0071 0.7238 0.0000
vt 0.3774 0.7238 0.0000
vt 0.3314 0.1618 0.0000
vt 0.3406 0.1511 0.0000
vt 0.3426 0.1372 0.0000
vt 0.3368 0.1244 0.0000
vt 0.3249 0.1167 0.0000
vt 0.3109 0.1167 0.0000
vt 0.2990 0.1244 0.0000
vt 0.2932 0.1372 0.0000
vt 0.2952 0.1511 0.0000
vt 0.3044 0.1618 0.0000
vt 0.3561 0.1615 0.0000
vt 0.3061 0.1615 0.0000
vt 0.1502 0.0837 0.0000
vt 0.2002 0.0837 0.0000
vt 0.2002 0.1337 0.0000
vt 0.1502 0.1337 0.0000
vt 0.4700 0.8129 0.0000
vt 0.4700 0.6588 0.0000
vt 0.6748 0.6588 0.0000
vt 0.6748 0.8129 0.0000
vt 0.6747 0.6588 0.0000
vt 0.6747 0.8129 0.0000
vt 0.4702 0.8129 0.0000
vt 0.4702 0.6588 0.0000
vt 0.6750 0.6588 0.0000
vt 0.6750 0.8129 0.0000
vt 0.4701 0.8129 0.0000
vt 0.4701 0.6588 0.0000
vt 0.6749 0.6588 0.0000
vt 0.6749 0.8129 0.0000
vt 0.5932 0.8129 0.0000
vt 0.5932 0.6064 0.0000
vt 0.6754 0.6585 0.0000
vt 0.6754 0.8129 0.0000
vt 0.5112 0.8129 0.0000
vt 0.5112 0.6584 0.0000
vt 0.6749 0.6584 0.0000
vt 0.3496 0.2752 0.0000
vt 0.3996 0.2752 0.0000
vt 0.3996 0.3252 0.0000
vt 0.3496 0.3252 0.0000
vt 0.7803 0.9734 0.0000
vt 0.7803 0.5132 0.0000
vt 0.9945 0.5132 0.0000
vt 0.9945 0.9734 0.0000
vt 0.3047 0.0714 0.0000
vt 0.3547 0.0714 0.0000
vt 0.3547 0.1214 0.0000
vt 0.3047 0.1214 0.0000
vt 0.1481 0.4895 0.0000
vt 0.1981 0.4895 0.0000
vt 0.1981 0.5395 0.0000
vt 0.1481 0.5395 0.0000
# 221 texture coords

g SPW_Vehicle_Land_Static_School_Bus
usemtl SPW_Vehicle_Land_School_Bus
s off
f 1/1/1 2/1/1 3/2/1 4/2/1 
f 4/2/2 3/2/2 5/3/2 6/3/2 
f 6/3/3 5/3/3 7/4/3 8/4/3 
f 8/4/4 7/4/4 9/5/4 10/5/4 
f 10/5/5 9/5/5 11/6/5 12/6/5 
f 12/6/6 11/6/6 13/7/6 14/7/6 
f 14/7/7 13/7/7 15/8/7 16/8/7 
f 16/8/8 15/8/8 17/9/8 18/9/8 
f 18/9/9 17/9/9 19/10/9 20/10/9 
f 20/10/10 19/10/10 21/11/10 22/11/10 
f 22/11/11 21/11/11 23/12/11 24/12/11 
f 24/12/12 23/12/12 25/13/12 26/13/12 
f 3/2/13 2/1/13 27/14/13 25/13/13 
f 3/2/13 25/13/13 23/12/13 21/11/13 
f 3/2/14 21/11/14 19/10/14 17/9/14 
f 3/2/14 17/9/14 15/8/14 13/7/14 
f 3/2/14 13/7/14 11/6/14 9/5/14 
f 3/2/15 9/5/15 7/4/15 5/3/15 
f 28/14/16 27/14/16 2/1/16 1/1/16 
f 26/13/17 25/13/17 27/14/17 28/14/17 
f 1/1/18 4/2/18 6/3/18 8/4/18 
f 1/1/19 8/4/19 10/5/19 12/6/19 
f 1/1/20 12/6/20 14/7/20 16/8/20 
f 1/1/20 16/8/20 18/9/20 20/10/20 
f 1/1/18 20/10/18 22/11/18 24/12/18 
f 1/1/18 24/12/18 26/13/18 28/14/18 
f 29/1/1 30/1/1 31/2/1 32/2/1 
f 32/2/2 31/2/2 33/3/2 34/3/2 
f 34/3/3 33/3/3 35/4/3 36/4/3 
f 36/4/21 35/4/21 37/5/21 38/5/21 
f 38/5/22 37/5/22 39/6/22 40/6/22 
f 40/6/6 39/6/6 41/7/6 42/7/6 
f 42/7/7 41/7/7 43/8/7 44/8/7 
f 44/8/8 43/8/8 45/9/8 46/9/8 
f 46/9/9 45/9/9 47/10/9 48/10/9 
f 48/10/10 47/10/10 49/11/10 50/11/10 
f 50/11/23 49/11/23 51/12/23 52/12/23 
f 52/12/12 51/12/12 53/13/12 54/13/12 
f 31/2/14 30/1/14 55/14/14 53/13/14 
f 31/2/13 53/13/13 51/12/13 49/11/13 
f 31/2/14 49/11/14 47/10/14 45/9/14 
f 31/2/14 45/9/14 43/8/14 41/7/14 
f 31/2/14 41/7/14 39/6/14 37/5/14 
f 31/2/14 37/5/14 35/4/14 33/3/14 
f 56/14/24 55/14/24 30/1/24 29/1/24 
f 54/13/25 53/13/25 55/14/25 56/14/25 
f 29/1/19 32/2/19 34/3/19 36/4/19 
f 29/1/19 36/4/19 38/5/19 40/6/19 
f 29/1/19 40/6/19 42/7/19 44/8/19 
f 29/1/20 44/8/20 46/9/20 48/10/20 
f 29/1/18 48/10/18 50/11/18 52/12/18 
f 29/1/18 52/12/18 54/13/18 56/14/18 
f 57/1/1 58/1/1 59/2/1 60/2/1 
f 60/2/2 59/2/2 61/3/2 62/3/2 
f 62/3/26 61/3/26 63/4/26 64/4/26 
f 64/4/4 63/4/4 65/5/4 66/5/4 
f 66/5/22 65/5/22 67/6/22 68/6/22 
f 68/6/6 67/6/6 69/7/6 70/7/6 
f 70/7/7 69/7/7 71/8/7 72/8/7 
f 72/8/8 71/8/8 73/9/8 74/9/8 
f 74/9/9 73/9/9 75/10/9 76/10/9 
f 76/10/10 75/10/10 77/11/10 78/11/10 
f 78/11/11 77/11/11 79/12/11 80/12/11 
f 80/12/12 79/12/12 81/13/12 82/13/12 
f 59/2/13 58/1/13 83/14/13 81/13/13 
f 59/2/13 81/13/13 79/12/13 77/11/13 
f 59/2/14 77/11/14 75/10/14 73/9/14 
f 59/2/14 73/9/14 71/8/14 69/7/14 
f 59/2/14 69/7/14 67/6/14 65/5/14 
f 59/2/15 65/5/15 63/4/15 61/3/15 
f 84/14/16 83/14/16 58/1/16 57/1/16 
f 82/13/17 81/13/17 83/14/17 84/14/17 
f 57/1/18 60/2/18 62/3/18 64/4/18 
f 57/1/19 64/4/19 66/5/19 68/6/19 
f 57/1/20 68/6/20 70/7/20 72/8/20 
f 57/1/20 72/8/20 74/9/20 76/10/20 
f 57/1/18 76/10/18 78/11/18 80/12/18 
f 57/1/18 80/12/18 82/13/18 84/14/18 
f 85/1/1 86/1/1 87/2/1 88/2/1 
f 88/2/2 87/2/2 89/3/2 90/3/2 
f 90/3/3 89/3/3 91/4/3 92/4/3 
f 92/4/21 91/4/21 93/5/21 94/5/21 
f 94/5/22 93/5/22 95/6/22 96/6/22 
f 96/6/6 95/6/6 97/7/6 98/7/6 
f 98/7/7 97/7/7 99/8/7 100/8/7 
f 100/8/8 99/8/8 101/9/8 102/9/8 
f 102/9/9 101/9/9 103/10/9 104/10/9 
f 104/10/10 103/10/10 105/11/10 106/11/10 
f 106/11/23 105/11/23 107/12/23 108/12/23 
f 108/12/12 107/12/12 109/13/12 110/13/12 
f 87/2/14 86/1/14 111/14/14 109/13/14 
f 87/2/13 109/13/13 107/12/13 105/11/13 
f 87/2/14 105/11/14 103/10/14 101/9/14 
f 87/2/14 101/9/14 99/8/14 97/7/14 
f 87/2/14 97/7/14 95/6/14 93/5/14 
f 87/2/14 93/5/14 91/4/14 89/3/14 
f 112/14/24 111/14/24 86/1/24 85/1/24 
f 110/13/25 109/13/25 111/14/25 112/14/25 
f 85/1/19 88/2/19 90/3/19 92/4/19 
f 85/1/19 92/4/19 94/5/19 96/6/19 
f 85/1/19 96/6/19 98/7/19 100/8/19 
f 85/1/20 100/8/20 102/9/20 104/10/20 
f 85/1/18 104/10/18 106/11/18 108/12/18 
f 85/1/18 108/12/18 110/13/18 112/14/18 
f 113/15/27 114/16/27 115/17/27 116/18/27 
f 114/16/28 117/19/28 118/20/28 115/17/28 
f 117/19/29 119/21/29 120/22/29 118/20/29 
f 119/21/30 113/15/30 116/18/30 120/22/30 
f 116/18/31 115/17/31 118/20/31 120/22/31 
f 119/21/32 117/19/32 114/16/32 113/15/32 
s 1
f 121/23/33 122/23/33 123/24/33 124/24/33 
s off
f 125/25/34 123/24/34 126/24/34 127/25/34 
s 1
f 128/26/11 129/26/11 130/25/11 125/25/11 
s 2
f 129/26/18 121/23/18 124/24/18 130/25/18 
f 130/25/18 124/24/18 131/27/18 132/28/18 
s 4
f 129/26/35 128/26/35 122/23/35 121/23/35 
s off
f 133/23/14 134/26/14 127/25/14 126/24/14 
s 1
f 128/26/11 125/25/11 127/25/11 134/26/11 
s 4
f 122/23/35 128/26/35 134/26/35 133/23/35 
s 1
f 123/24/33 122/23/33 133/23/33 126/24/33 
s 2
f 132/28/18 131/27/18 135/29/18 136/30/18 
s 1
f 125/25/11 130/25/11 132/28/11 137/28/11 
s off
f 123/24/14 125/25/14 137/28/14 138/27/14 
s 1
f 124/24/33 123/24/33 138/27/33 131/27/33 
s 4
f 135/29/34 139/29/34 140/30/34 136/30/34 
s 1
f 137/28/11 132/28/11 136/30/11 140/30/11 
f 139/29/33 138/27/33 141/27/33 142/29/33 
f 131/27/33 138/27/33 139/29/33 135/29/33 
s off
f 141/27/14 143/28/14 144/30/14 142/29/14 
s 1
f 137/28/11 140/30/11 144/30/11 143/28/11 
s 4
f 140/30/34 139/29/34 142/29/34 144/30/34 
s off
f 138/27/35 137/28/35 143/28/35 141/27/35 
f 145/31/36 146/32/36 147/33/36 148/34/36 
f 146/32/37 149/35/37 150/36/37 147/33/37 
f 149/35/38 151/37/38 152/38/38 150/36/38 
f 151/37/39 145/31/39 148/34/39 152/38/39 
f 148/34/40 147/33/40 150/36/40 152/38/40 
f 151/37/41 149/35/41 146/32/41 145/31/41 
s 1
f 153/26/11 154/26/11 155/25/11 156/25/11 
s off
f 157/24/34 155/25/34 158/25/34 159/24/34 
s 1
f 160/23/33 161/23/33 162/24/33 157/24/33 
s 2
f 161/23/14 153/26/14 156/25/14 162/24/14 
f 162/24/14 156/25/14 163/28/14 164/27/14 
s 4
f 161/23/35 160/23/35 154/26/35 153/26/35 
s off
f 165/26/18 166/23/18 159/24/18 158/25/18 
s 1
f 160/23/33 157/24/33 159/24/33 166/23/33 
s 4
f 154/26/35 160/23/35 166/23/35 165/26/35 
s 1
f 155/25/11 154/26/11 165/26/11 158/25/11 
s 2
f 164/27/14 163/28/14 167/30/14 168/29/14 
s 1
f 157/24/33 162/24/33 164/27/33 169/27/33 
s off
f 155/25/18 157/24/18 169/27/18 170/28/18 
s 1
f 156/25/11 155/25/11 170/28/11 163/28/11 
s 4
f 167/30/34 171/30/34 172/29/34 168/29/34 
s 1
f 169/27/33 164/27/33 168/29/33 172/29/33 
f 171/30/11 170/28/11 173/28/11 174/30/11 
f 163/28/11 170/28/11 171/30/11 167/30/11 
s off
f 173/28/18 175/27/18 176/29/18 174/30/18 
s 1
f 169/27/33 172/29/33 176/29/33 175/27/33 
s 4
f 172/29/34 171/30/34 174/30/34 176/29/34 
s off
f 170/28/35 169/27/35 175/27/35 173/28/35 
f 177/39/33 178/40/33 179/41/33 180/42/33 
f 178/40/14 181/40/14 182/41/14 179/41/14 
f 181/40/11 183/39/11 184/42/11 182/41/11 
f 183/39/18 177/39/18 180/42/18 184/42/18 
f 180/42/42 179/41/42 182/41/42 184/42/42 
f 183/39/43 181/40/43 178/40/43 177/39/43 
f 185/39/23 186/40/23 187/41/23 188/42/23 
f 186/40/18 189/40/18 190/41/18 187/41/18 
f 189/40/21 191/39/21 192/42/21 190/41/21 
f 191/39/14 185/39/14 188/42/14 192/42/14 
f 188/42/34 187/41/34 190/41/34 192/42/34 
f 191/39/35 189/40/35 186/40/35 185/39/35 
f 193/43/35 194/44/35 195/45/35 196/46/35 
s 1
f 197/43/15 193/44/15 196/45/14 198/46/14 
s 2
f 199/47/11 200/48/11 194/49/11 193/50/11 
s 1
f 194/43/18 201/44/44 202/45/18 195/46/18 
s off
f 196/43/23 195/44/23 202/45/23 198/46/23 
s 2
f 201/43/34 197/44/34 198/45/34 202/46/34 
s 1
f 193/51/15 197/52/15 203/53/14 204/54/15 
f 205/55/15 193/51/15 204/54/15 
s off
f 206/56/14 199/57/14 207/58/14 208/59/14 
f 206/56/45 208/59/45 209/60/45 210/61/45 
f 209/60/14 211/62/14 212/63/14 210/61/14 
f 206/56/14 210/61/14 213/64/14 214/65/14 
f 213/64/14 215/66/14 216/67/14 214/65/14 
f 206/56/45 214/65/45 217/68/45 218/69/45 
f 217/68/14 219/70/14 220/71/14 218/69/14 
f 206/56/14 218/69/14 221/72/14 222/73/14 
f 221/72/14 223/74/14 224/75/14 222/73/14 
f 206/56/45 222/73/45 225/76/45 226/77/45 
f 225/76/45 227/78/45 228/79/45 226/77/45 
f 229/80/13 230/81/13 231/82/13 232/83/13 
f 226/77/15 229/80/15 232/83/15 206/56/15 
f 206/56/14 232/83/14 233/84/14 234/85/14 
s 1
f 193/86/15 205/87/15 235/88/15 207/89/15 
f 236/90/14 237/91/14 238/92/15 239/93/14 
f 240/94/45 239/93/14 238/92/15 241/95/14 
f 241/95/14 238/92/15 242/96/15 207/89/15 
f 243/97/45 244/98/14 245/99/14 246/100/14 
f 247/101/14 246/100/14 245/99/14 248/102/13 
f 249/103/45 234/104/45 233/105/45 245/99/14 
f 245/99/14 233/105/45 248/102/13 
f 250/106/13 247/101/14 248/102/13 251/107/13 
f 252/108/14 251/107/13 248/102/13 207/89/15 
f 219/109/14 216/110/14 215/111/14 220/112/15 
f 212/113/15 211/114/45 207/89/15 215/111/14 
f 220/112/15 215/111/14 207/89/15 223/115/14 
f 224/116/15 223/115/14 207/89/15 227/117/13 
f 228/118/15 227/117/13 207/89/15 230/119/13 
f 231/120/15 230/119/13 207/89/15 248/102/13 
f 242/96/15 252/108/14 207/89/15 
f 253/121/14 241/95/14 207/89/15 254/122/14 
f 235/88/15 254/122/14 207/89/15 
f 193/86/15 207/89/15 199/123/14 
s 2
f 200/62/11 199/67/11 255/69/11 256/76/11 
f 257/56/11 200/62/11 256/76/11 258/81/46 
s off
f 206/56/11 257/62/11 258/67/11 259/69/11 
f 206/56/11 259/69/11 255/76/11 199/81/11 
s 1
f 260/124/19 261/125/47 262/110/18 263/109/18 
f 260/124/19 263/109/18 264/112/19 265/122/20 
f 266/119/18 267/100/19 268/101/19 269/118/18 
f 270/117/18 269/118/18 268/101/19 271/116/19 
f 272/115/19 271/116/19 268/101/19 264/112/19 
f 264/112/19 268/101/19 273/106/18 274/94/44 
f 275/96/44 276/92/44 277/91/44 278/108/44 
f 279/107/44 278/108/44 277/91/44 273/106/18 
f 273/106/18 277/91/44 280/90/19 281/93/19 
f 273/106/18 281/93/19 274/94/44 
f 264/112/19 274/94/44 282/95/44 283/121/20 
f 264/112/19 283/121/20 265/122/20 
f 260/124/19 265/122/20 284/88/20 285/87/44 
f 286/126/48 260/124/19 285/87/44 194/86/18 
s off
f 257/56/19 287/62/19 288/67/19 289/69/19 
f 257/56/18 289/69/18 290/76/18 200/81/18 
s 1
f 200/123/20 290/89/20 291/114/20 286/126/48 
f 292/103/19 293/99/18 294/98/18 295/97/19 
f 295/97/19 267/100/19 266/119/18 296/120/18 
f 292/103/19 295/97/19 296/120/18 297/102/20 
f 287/104/18 292/103/19 297/102/20 298/105/18 
f 299/127/49 262/110/18 261/125/47 298/105/18 
f 287/104/18 298/105/18 261/125/47 300/128/19 
f 288/129/20 287/104/18 300/128/19 291/114/20 
f 291/114/20 300/128/19 286/126/48 
f 194/86/18 200/123/20 286/126/48 
s off
f 301/130/18 296/62/18 266/131/18 302/132/18 
f 298/133/50 301/130/50 302/132/50 303/134/50 
f 304/67/20 269/135/20 270/136/20 305/69/20 
f 302/132/18 304/67/18 305/69/18 306/137/18 
f 307/138/18 271/139/18 272/76/18 306/137/18 
f 305/69/51 307/138/51 306/137/51 
f 308/140/18 264/81/18 263/141/18 303/134/18 
f 306/137/52 308/140/52 303/134/52 302/132/52 
f 299/56/53 298/133/53 303/134/53 
s 1
f 194/55/18 285/51/44 309/52/44 310/53/19 
f 194/55/18 310/53/19 201/54/44 
s 2
f 197/55/34 201/142/34 310/143/42 311/144/42 
f 312/51/42 313/145/42 314/146/42 315/147/34 
f 316/52/34 317/148/54 318/149/34 319/150/42 
f 318/149/34 320/151/34 321/53/55 319/150/42 
f 315/147/34 316/52/34 319/150/42 312/51/42 
f 311/144/42 312/51/42 319/150/42 322/152/42 
f 322/152/42 323/153/34 324/54/42 325/154/34 
f 311/144/42 322/152/42 325/154/34 326/155/34 
f 197/55/34 311/144/42 326/155/34 203/156/34 
s off
f 204/43/56 203/44/56 326/45/56 327/46/56 
s 2
f 234/56/4 249/62/33 328/67/33 329/69/4 
f 234/56/4 329/69/4 330/76/21 287/81/4 
f 331/67/4 328/69/33 249/76/33 292/81/4 
f 330/62/21 331/67/4 292/81/4 287/56/4 
s 1
f 332/157/14 333/158/14 206/159/14 234/160/45 
s off
f 254/43/57 235/44/57 334/45/57 335/46/57 
f 253/43/58 254/44/58 335/45/58 336/46/58 
f 241/43/59 253/44/59 336/45/59 337/46/59 
f 240/43/60 241/44/60 337/45/60 338/46/60 
f 239/43/61 240/44/61 338/45/61 339/46/61 
f 236/43/62 239/44/62 339/45/62 340/46/62 
f 340/55/63 341/51/63 342/52/63 237/53/63 
f 340/55/63 237/53/63 236/54/63 
s 1
f 342/161/14 324/149/15 323/162/14 237/163/14 
f 237/163/14 323/162/14 343/164/15 238/55/15 
s off
f 252/43/57 242/44/57 344/45/57 345/46/57 
f 251/43/58 252/44/58 345/45/58 346/46/58 
f 250/43/59 251/44/59 346/45/59 347/46/59 
f 247/43/64 250/44/64 347/45/64 348/46/64 
f 246/43/61 247/44/61 348/45/61 349/46/61 
f 243/43/65 246/44/65 349/45/65 350/46/65 
s 1
f 245/55/14 244/51/14 351/52/14 321/53/14 
f 245/55/14 321/53/14 320/54/14 
s 2
f 292/165/4 249/166/33 245/167/4 293/168/4 
s off
f 333/157/66 352/158/66 257/159/66 206/160/66 
s 1
f 352/157/19 353/158/19 287/159/18 257/160/19 
f 293/51/18 318/52/18 317/53/18 354/54/18 
f 294/55/18 293/51/18 354/54/18 
s off
f 267/43/62 295/44/62 355/45/62 356/46/62 
f 268/43/61 267/44/61 356/45/61 357/46/61 
f 273/43/64 268/44/64 357/45/64 358/46/64 
f 279/43/59 273/44/59 358/45/59 359/46/59 
f 278/43/58 279/44/58 359/45/58 360/46/58 
f 275/43/67 278/44/67 360/45/67 361/46/67 
s 1
f 362/161/44 314/149/19 313/162/44 276/163/44 
f 276/163/44 313/162/44 363/164/19 277/55/44 
s off
f 280/55/68 277/51/68 363/52/68 364/53/68 
f 280/55/68 364/53/68 365/54/68 
f 281/43/62 280/44/62 365/45/62 366/46/62 
f 274/43/61 281/44/61 366/45/61 367/46/61 
f 282/43/64 274/44/64 367/45/64 368/46/64 
f 283/43/59 282/44/59 368/45/59 369/46/59 
f 265/43/58 283/44/58 369/45/58 370/46/58 
f 284/43/57 265/44/57 370/45/57 371/46/57 
f 285/55/69 284/51/69 371/52/69 372/53/69 
f 285/55/70 372/53/70 309/54/70 
f 311/43/56 310/44/56 309/45/56 372/46/56 
f 312/55/18 311/169/18 372/170/18 371/171/18 
f 312/55/19 371/171/19 370/172/19 369/173/19 
f 312/55/19 369/173/19 368/174/19 367/175/19 
f 312/55/18 367/175/18 366/176/18 365/177/18 
f 312/55/18 365/177/18 364/178/18 
f 363/43/71 313/44/71 312/45/71 364/46/71 
f 315/43/72 314/44/72 362/45/72 373/46/72 
f 316/55/18 315/169/18 373/170/18 361/171/18 
f 316/55/18 361/171/18 360/172/18 359/173/18 
f 316/55/18 359/173/18 358/174/18 357/175/18 
f 316/55/44 357/175/44 356/176/44 355/177/44 
f 316/55/18 355/177/18 374/178/18 
f 354/43/73 317/44/73 316/45/73 374/46/73 
s 2
f 320/43/34 318/44/34 375/45/34 376/46/34 
s off
f 377/43/71 319/44/71 321/45/71 351/46/71 
f 322/55/14 319/169/14 377/170/14 350/171/14 
f 322/55/15 350/171/15 349/172/15 348/173/15 
f 322/55/13 348/173/13 347/174/13 346/175/13 
f 322/55/14 346/175/14 345/176/14 344/177/14 
f 322/55/14 344/177/14 378/178/14 
f 343/43/72 323/44/72 322/45/72 378/46/72 
f 341/43/71 325/44/71 324/45/71 342/46/71 
f 326/55/14 325/169/14 341/170/14 340/171/14 
f 326/55/14 340/171/14 339/172/14 338/173/14 
f 326/55/15 338/173/15 337/174/15 336/175/15 
f 326/55/15 336/175/15 335/176/15 334/177/15 
f 326/55/45 334/177/45 327/178/45 
f 334/55/70 235/51/70 205/52/70 204/53/70 
f 334/55/70 204/53/70 327/54/70 
s 2
f 353/157/4 332/158/4 234/159/4 287/160/4 
s 1
f 333/179/14 332/180/14 379/180/14 380/179/14 
s off
f 344/55/69 242/51/69 238/52/69 343/53/69 
f 344/55/70 343/53/70 378/54/70 
f 377/55/68 351/51/68 244/52/68 243/53/68 
f 377/55/63 243/53/63 350/54/63 
s 1
f 245/43/14 320/44/14 376/45/14 381/46/14 
s off
f 293/43/35 245/44/35 381/45/35 382/46/35 
s 1
f 318/43/18 293/44/18 382/45/18 375/46/18 
s off
f 355/55/68 295/51/68 294/52/68 354/53/68 
f 355/55/63 354/53/63 374/54/63 
f 276/51/70 275/52/70 361/53/70 362/55/70 
f 362/55/69 361/53/69 373/54/69 
f 382/43/4 381/44/4 376/45/4 375/46/4 
f 383/181/4 384/182/4 385/183/4 386/184/4 
f 329/157/18 328/158/18 384/159/18 383/160/18 
f 330/157/34 329/158/34 383/159/34 386/160/34 
f 331/157/14 330/158/14 386/159/14 385/160/14 
f 328/157/35 331/158/35 385/159/35 384/160/35 
f 232/157/74 231/158/74 387/159/74 388/160/74 
f 233/157/34 232/158/34 388/159/34 389/160/34 
f 388/185/15 387/186/15 390/187/15 389/188/15 
f 231/157/35 248/158/35 390/159/35 387/160/35 
f 248/157/11 233/158/11 389/159/11 390/160/11 
f 226/157/33 228/158/33 391/159/33 392/160/33 
f 229/157/34 226/158/34 392/159/34 393/160/34 
f 392/185/14 391/186/14 394/187/14 393/188/14 
f 228/157/35 230/158/35 394/159/35 391/160/35 
f 230/157/11 229/158/11 393/159/11 394/160/11 
f 222/157/21 224/158/21 395/159/21 396/160/21 
f 225/157/54 222/158/54 396/159/54 397/160/54 
f 396/185/14 395/186/14 398/189/14 397/190/14 
f 224/157/35 227/158/35 398/159/35 395/160/35 
f 227/157/11 225/158/11 397/159/11 398/160/11 
f 218/157/33 220/158/33 399/159/33 400/160/33 
f 221/157/34 218/158/34 400/159/34 401/160/34 
f 400/191/14 399/192/14 402/193/14 401/194/14 
f 220/157/35 223/158/35 402/159/35 399/160/35 
f 223/157/23 221/158/23 401/159/23 402/160/23 
f 214/157/33 216/158/33 403/159/33 404/160/33 
f 217/157/54 214/158/54 404/159/54 405/160/54 
f 404/195/14 403/196/14 406/197/14 405/198/14 
f 216/157/35 219/158/35 406/159/35 403/160/35 
f 219/157/11 217/158/11 405/159/11 406/160/11 
f 208/157/33 207/158/33 407/159/33 408/160/33 
f 209/157/54 208/158/54 408/159/54 409/160/54 
f 408/199/45 407/200/45 410/201/45 409/202/45 
f 207/157/75 211/158/75 410/159/75 407/160/75 
f 211/157/11 209/158/11 409/159/11 410/160/11 
f 210/157/33 212/158/33 411/159/33 412/160/33 
f 213/157/54 210/158/54 412/159/54 413/160/54 
f 412/203/14 411/204/14 414/205/14 413/198/14 
f 212/157/43 215/158/43 414/159/43 411/160/43 
f 215/157/11 213/158/11 413/159/11 414/160/11 
f 296/157/33 301/158/33 415/159/33 416/160/33 
f 297/157/35 296/158/35 416/159/35 417/160/35 
f 418/188/19 417/187/19 416/186/19 415/185/19 
f 301/157/34 298/158/34 418/159/34 415/160/34 
f 298/157/11 297/158/11 417/159/11 418/160/11 
f 269/157/74 304/158/74 419/159/74 420/160/74 
f 266/157/35 269/158/35 420/159/35 421/160/35 
f 422/188/19 421/187/19 420/186/19 419/185/19 
f 304/157/34 302/158/34 422/159/34 419/160/34 
f 302/157/11 266/158/11 421/159/11 422/160/11 
f 271/157/33 307/158/33 423/159/33 424/160/33 
f 270/157/35 271/158/35 424/159/35 425/160/35 
f 426/190/19 425/189/19 424/186/19 423/185/19 
f 307/157/54 305/158/54 426/159/54 423/160/54 
f 305/157/23 270/158/23 425/159/23 426/160/23 
f 264/157/33 308/158/33 427/159/33 428/160/33 
f 272/157/35 264/158/35 428/159/35 429/160/35 
f 430/194/19 429/193/19 428/192/19 427/191/19 
f 308/157/34 306/158/34 430/159/34 427/160/34 
f 306/157/11 272/158/11 429/159/11 430/160/11 
f 262/157/33 299/158/33 431/159/33 432/160/33 
f 263/157/35 262/158/35 432/159/35 433/160/35 
f 434/198/18 433/197/18 432/196/18 431/195/18 
f 299/157/54 303/158/54 434/159/54 431/160/54 
f 303/157/11 263/158/11 433/159/11 434/160/11 
f 290/157/33 289/158/33 435/159/33 436/160/33 
f 291/157/76 290/158/76 436/159/76 437/160/76 
f 438/202/18 437/201/18 436/200/18 435/199/18 
f 289/157/54 288/158/54 438/159/54 435/160/54 
f 288/157/11 291/158/11 437/159/11 438/160/11 
f 286/206/33 300/207/33 439/208/33 440/209/33 
f 260/206/35 286/207/35 440/208/35 441/209/35 
f 442/210/19 441/211/19 440/212/19 439/213/19 
f 300/157/54 261/158/54 442/159/54 439/160/54 
f 261/206/11 260/207/11 441/208/11 442/209/11 
f 258/157/14 256/158/14 443/159/14 444/160/14 
f 259/157/34 258/158/34 444/159/34 445/160/34 
f 444/181/11 443/182/11 446/183/11 445/184/11 
f 256/157/35 255/158/35 446/159/35 443/160/35 
f 255/157/18 259/158/18 445/159/18 446/160/18 
f 379/214/77 447/215/77 448/216/77 380/217/77 
f 352/179/78 333/180/78 380/180/78 448/179/78 
s 1
f 353/179/19 352/180/19 448/180/19 447/179/19 
s 2
f 332/179/4 353/180/4 447/180/4 379/179/4 
s off
f 449/218/11 450/219/11 451/220/11 452/221/11 
f 450/218/19 453/219/19 454/220/19 451/221/19 
f 453/218/4 455/219/4 456/220/4 454/221/4 
f 455/218/14 449/219/14 452/220/14 456/221/14 
f 452/218/34 451/219/34 454/220/34 456/221/34 
f 455/218/79 453/219/79 450/220/79 449/221/79 
f 457/218/46 458/219/46 459/220/46 460/221/46 
f 458/218/19 461/219/19 462/220/19 459/221/19 
f 461/218/33 463/219/33 464/220/33 462/221/33 
f 463/218/14 457/219/14 460/220/14 464/221/14 
f 460/218/42 459/219/42 462/220/42 464/221/42 
f 463/218/35 461/219/35 458/220/35 457/221/35 
# 425 polygons - 26 triangles

