# 3ds Max Wavefront OBJ Exporter v0.97b - (c)2007 guruware
# File Created: 15.03.2017 11:55:20

mtllib SPW_Vehicle_Land_Static_Pick Up Truck.mtl

#
# object SPW_Vehicle_Land_Static_Pick_Up_Truck
#

v  -49.2387 37.3848 -72.4715
v  -33.7731 37.3848 -72.4715
v  -33.7731 34.8794 -81.8219
v  -49.2387 34.8794 -81.8219
v  -33.7731 28.0344 -88.6668
v  -49.2387 28.0344 -88.6668
v  -33.7731 18.6840 -91.1723
v  -49.2387 18.6840 -91.1723
v  -33.7731 9.3336 -88.6668
v  -49.2387 9.3336 -88.6668
v  -33.7731 2.4887 -81.8219
v  -49.2387 2.4887 -81.8219
v  -33.7731 -0.0168 -72.4715
v  -49.2387 -0.0168 -72.4715
v  -33.7731 2.4887 -63.1211
v  -49.2387 2.4886 -63.1211
v  -33.7731 9.3336 -56.2761
v  -49.2387 9.3336 -56.2761
v  -33.7731 18.6840 -53.7707
v  -49.2387 18.6840 -53.7707
v  -33.7731 28.0344 -56.2761
v  -49.2387 28.0344 -56.2761
v  -33.7731 34.8794 -63.1211
v  -49.2387 34.8794 -63.1211
v  -48.7463 37.2864 75.5010
v  -33.4354 37.2864 75.5010
v  -33.4354 34.7941 66.1999
v  -48.7463 34.7941 66.1999
v  -33.4354 27.9852 59.3909
v  -48.7463 27.9852 59.3909
v  -33.4354 18.6840 56.8987
v  -48.7463 18.6840 56.8987
v  -33.4354 9.3828 59.3909
v  -48.7463 9.3828 59.3909
v  -33.4354 2.5739 66.1999
v  -48.7463 2.5739 66.1999
v  -33.4354 0.0816 75.5010
v  -48.7463 0.0816 75.5010
v  -33.4354 2.5739 84.8022
v  -48.7463 2.5739 84.8022
v  -33.4354 9.3828 91.6112
v  -48.7463 9.3828 91.6112
v  -33.4354 18.6840 94.1034
v  -48.7463 18.6840 94.1034
v  -33.4354 27.9852 91.6112
v  -48.7463 27.9852 91.6112
v  -33.4354 34.7941 84.8022
v  -48.7463 34.7941 84.8022
v  33.7720 37.3848 -72.4715
v  49.2376 37.3848 -72.4715
v  49.2376 34.8794 -81.8219
v  33.7720 34.8794 -81.8219
v  49.2376 28.0344 -88.6668
v  33.7720 28.0344 -88.6668
v  49.2376 18.6840 -91.1723
v  33.7720 18.6840 -91.1723
v  49.2376 9.3336 -88.6668
v  33.7720 9.3336 -88.6668
v  49.2376 2.4887 -81.8219
v  33.7720 2.4887 -81.8219
v  49.2376 -0.0168 -72.4715
v  33.7720 -0.0168 -72.4715
v  49.2376 2.4887 -63.1211
v  33.7720 2.4887 -63.1211
v  49.2376 9.3336 -56.2761
v  33.7720 9.3336 -56.2761
v  49.2376 18.6840 -53.7707
v  33.7720 18.6840 -53.7707
v  49.2376 28.0344 -56.2761
v  33.7720 28.0344 -56.2761
v  49.2376 34.8794 -63.1211
v  33.7720 34.8794 -63.1211
v  33.4343 37.2864 75.5011
v  48.7453 37.2864 75.5011
v  48.7453 34.7941 66.1999
v  33.4343 34.7941 66.1999
v  48.7453 27.9852 59.3909
v  33.4343 27.9852 59.3909
v  48.7453 18.6840 56.8987
v  33.4343 18.6840 56.8987
v  48.7453 9.3828 59.3909
v  33.4343 9.3828 59.3909
v  48.7453 2.5739 66.1999
v  33.4343 2.5739 66.1999
v  48.7453 0.0816 75.5010
v  33.4343 0.0816 75.5010
v  48.7453 2.5739 84.8022
v  33.4343 2.5739 84.8022
v  48.7453 9.3828 91.6112
v  33.4343 9.3828 91.6112
v  48.7453 18.6840 94.1034
v  33.4343 18.6840 94.1034
v  48.7453 27.9852 91.6112
v  33.4343 27.9852 91.6112
v  48.7453 34.7941 84.8022
v  33.4343 34.7941 84.8022
v  49.4144 28.6740 -54.9798
v  49.4144 35.9872 -62.2930
v  49.4144 37.7175 -61.2940
v  49.4144 29.6730 -53.2495
v  49.4144 38.6640 -72.2830
v  49.4144 35.9872 -82.2731
v  49.4144 37.7176 -83.2721
v  49.4144 40.6620 -72.2830
v  -49.4154 38.6641 -72.2830
v  -49.4154 35.9872 -62.2930
v  -49.4154 37.7176 -61.2940
v  -49.4154 40.6621 -72.2830
v  49.4144 28.6740 -89.5863
v  49.4144 29.6730 -91.3166
v  -49.4154 18.6840 -92.2631
v  -49.4154 28.6740 -89.5863
v  -49.4154 29.6730 -91.3166
v  -49.4154 18.6840 -94.2611
v  49.4144 18.6840 -52.3030
v  49.4144 18.6840 -50.3050
v  -49.4154 28.6740 -54.9798
v  -49.4154 29.6730 -53.2495
v  -49.4154 37.7176 -83.2721
v  49.4144 18.6840 -94.2611
v  -49.4154 18.6840 -50.3050
v  49.4144 18.6840 -92.2631
v  -49.4154 18.6840 -52.3030
v  -49.4154 35.9872 -82.2731
v  49.4144 28.6740 92.9471
v  49.4144 35.9872 85.6339
v  49.4144 37.7175 86.6329
v  49.4144 29.6730 94.6774
v  49.4144 38.6640 75.6439
v  49.4144 35.9872 65.6539
v  49.4144 37.7175 64.6549
v  49.4144 40.6620 75.6439
v  -49.4154 38.6640 75.6439
v  -49.4154 35.9872 85.6339
v  -49.4154 37.7175 86.6329
v  -49.4154 40.6621 75.6439
v  49.4144 28.6740 58.3407
v  49.4144 29.6730 56.6104
v  -49.4154 18.6840 55.6639
v  -49.4154 28.6740 58.3407
v  -49.4154 29.6730 56.6104
v  -49.4154 18.6840 53.6659
v  49.4144 18.6840 95.6239
v  49.4144 18.6840 97.6219
v  -49.4154 28.6740 92.9471
v  -49.4154 29.6730 94.6774
v  -49.4154 37.7175 64.6549
v  49.4144 18.6840 53.6659
v  -49.4154 18.6840 97.6219
v  49.4144 18.6840 55.6639
v  -49.4154 18.6840 95.6239
v  -49.4154 35.9872 65.6539
v  53.7338 61.2949 47.0765
v  48.2283 58.8117 48.5517
v  48.6955 57.7016 48.4265
v  54.2010 60.1849 46.9513
v  47.9149 58.8117 47.3821
v  48.3821 57.7016 47.2569
v  53.4204 61.2949 45.9069
v  53.8876 60.1849 45.7817
v  59.8508 63.0481 45.5265
v  51.8179 63.0481 47.6789
v  51.8179 58.3310 47.6788
v  59.8508 59.2534 45.5265
v  50.7489 63.7779 46.5599
v  50.7489 57.6012 46.5599
v  60.2171 63.7779 44.0229
v  60.2171 58.5235 44.0229
v  -51.7895 63.0481 47.7708
v  -59.8223 63.0481 45.6184
v  -59.8223 59.1224 45.6184
v  -51.7895 58.3328 47.7708
v  -60.1887 63.7779 44.1148
v  -60.1887 58.3925 44.1148
v  -50.7204 63.7779 46.6518
v  -50.7204 57.6030 46.6518
v  -53.7350 61.2949 45.9069
v  -48.2295 58.8117 47.3821
v  -48.6966 57.7016 47.2569
v  -54.2021 60.1849 45.7817
v  -48.5429 58.8117 48.5517
v  -49.0100 57.7016 48.4265
v  -54.0484 61.2949 47.0765
v  -54.5155 60.1849 46.9513
v  -41.8472 90.1109 22.0074
v  -44.7916 90.1109 22.0074
v  -44.7916 88.3262 22.0074
v  -41.8472 88.3262 22.0074
v  -44.7916 90.1109 -17.1803
v  -44.7916 88.3262 -17.1803
v  -41.8472 90.1109 -17.1803
v  -41.8472 88.3262 -17.1803
v  44.7905 90.1109 22.0074
v  41.8461 90.1109 22.0074
v  41.8461 88.3262 22.0074
v  44.7905 88.3262 22.0074
v  41.8461 90.1109 -17.1803
v  41.8461 88.3262 -17.1803
v  44.7905 90.1109 -17.1803
v  44.7905 88.3262 -17.1803
v  -45.7371 21.4766 53.2604
v  -50.0167 21.4766 53.2604
v  -50.0167 17.1971 53.2604
v  -45.7371 17.1971 53.2604
v  -50.0167 21.4766 -50.1596
v  -50.0167 17.1971 -50.1596
v  -45.7371 21.4766 -50.1596
v  -45.7371 17.1971 -50.1596
v  50.0157 21.4766 53.2604
v  45.7361 21.4766 53.2604
v  45.7361 17.1971 53.2604
v  50.0157 17.1971 53.2604
v  45.7361 21.4766 -50.1596
v  45.7361 17.1971 -50.1596
v  50.0157 21.4766 -50.1596
v  50.0157 17.1971 -50.1596
v  15.3487 38.3358 124.8219
v  -15.3497 38.3358 124.8219
v  -15.3497 36.5037 124.8219
v  15.3487 36.5037 124.8219
v  -15.3497 38.3358 122.9898
v  -15.3497 36.5037 122.9898
v  15.3487 38.3358 122.9898
v  15.3487 36.5037 122.9898
v  15.3487 21.3442 124.8219
v  -15.3497 21.3442 124.8219
v  -15.3497 19.5121 124.8219
v  15.3487 19.5121 124.8219
v  -15.3497 21.3442 122.9898
v  -15.3497 19.5121 122.9898
v  15.3487 21.3442 122.9898
v  15.3487 19.5121 122.9898
v  16.8486 41.2174 127.2998
v  14.6465 41.2174 127.2998
v  14.6465 18.5180 127.2997
v  16.8486 18.5180 127.2997
v  14.6465 41.2174 121.7119
v  14.6465 18.5180 121.7119
v  16.8486 41.2174 121.7119
v  16.8486 18.5180 121.7119
v  16.8486 44.5388 121.7119
v  16.8486 44.5388 124.4560
v  14.6465 44.5388 121.7119
v  14.6465 44.5388 124.4560
v  -14.6475 41.2174 127.2998
v  -16.8496 41.2174 127.2998
v  -16.8496 18.5180 127.2998
v  -14.6475 18.5180 127.2998
v  -16.8496 41.2174 121.7119
v  -16.8496 18.5180 121.7119
v  -14.6475 41.2174 121.7119
v  -14.6475 18.5180 121.7119
v  -14.6475 44.5388 121.7119
v  -14.6475 44.5388 124.4560
v  -16.8496 44.5388 121.7119
v  -16.8496 44.5388 124.4560
v  -46.2362 53.0377 -0.6254
v  -49.6734 53.0377 -0.6254
v  -49.6734 51.2027 -0.6254
v  -46.2362 51.2027 -0.6254
v  -49.6734 53.0377 -9.4021
v  -49.6734 51.2027 -9.4021
v  -46.2362 53.0377 -9.4021
v  -46.2362 51.2027 -9.4021
v  49.6723 53.0377 -0.6254
v  46.2351 53.0377 -0.6254
v  46.2351 51.2027 -0.6254
v  49.6723 51.2027 -0.6254
v  46.2351 53.0377 -9.4021
v  46.2351 51.2027 -9.4021
v  49.6723 53.0377 -9.4021
v  49.6723 51.2027 -9.4021
v  51.9794 32.0720 124.7676
v  -51.9804 32.0720 124.7676
v  -51.9804 29.7961 124.7676
v  51.9794 29.7961 124.7676
v  -51.9804 32.0720 112.7424
v  -51.9804 29.7961 112.7424
v  51.9794 32.0720 112.7424
v  51.9794 29.7961 112.7424
v  51.4534 29.9760 -114.4444
v  -51.4544 29.9760 -114.4444
v  -51.4544 22.1329 -114.4444
v  51.4534 22.1329 -114.4444
v  -51.4543 29.9760 -125.8982
v  -51.4543 22.1329 -125.8983
v  51.4534 29.9760 -125.8982
v  51.4534 22.1329 -125.8983
v  51.4534 29.9760 124.1863
v  -51.4543 29.9760 124.1862
v  -51.4543 22.1328 124.1862
v  51.4534 22.1328 124.1862
v  -51.4543 29.9760 112.7324
v  -51.4543 22.1328 112.7324
v  51.4534 29.9760 112.7324
v  51.4534 22.1328 112.7324
v  -49.2131 51.7549 -82.9293
v  -49.2131 51.7549 -121.4123
v  -49.2131 22.5610 -123.6766
v  -49.2131 18.6840 -99.7780
v  -49.2131 18.6908 -92.3841
v  -49.2131 28.7302 -89.6940
v  -49.2131 36.0795 -82.3447
v  -49.2131 38.7696 -72.3053
v  -49.2131 51.7549 101.3244
v  -49.2131 36.1719 65.5667
v  -49.2131 28.7302 -54.9166
v  -49.2131 18.6908 -52.2266
v  -49.2131 18.6809 55.4683
v  -49.2131 36.0795 -62.2659
v  -49.2131 28.7794 58.1741
v  -49.2131 38.8778 75.6651
v  -49.2131 36.1719 85.7635
v  -49.2131 28.7794 93.1561
v  -49.2131 18.6809 95.8619
v  -49.2131 18.6840 101.3244
v  -49.2131 60.7990 -16.6694
v  -49.2131 88.0333 -14.4939
v  -49.2131 88.0333 -20.2619
v  -49.2131 60.8329 -22.4373
v  -49.2131 60.8329 -121.4123
v  -49.2131 51.7549 121.7971
v  -49.2131 53.9157 121.7971
v  -49.2131 60.0226 50.9310
v  -49.2131 60.7990 47.7656
v  49.2121 51.7549 -121.4123
v  49.2121 22.5610 -123.6766
v  49.2121 18.6840 -99.7780
v  -49.2131 22.5609 121.7971
v  49.2121 18.6908 -92.3841
v  29.0340 18.6908 -92.3841
v  29.0340 18.6908 -52.2266
v  49.2121 18.6908 -52.2266
v  49.2121 18.6810 55.4683
v  29.0340 18.6810 55.4683
v  29.0340 18.6809 95.8620
v  49.2121 18.6810 95.8620
v  49.2121 18.6840 101.3245
v  -29.0351 18.6809 95.8619
v  -29.0351 18.6809 55.4683
v  -29.0351 18.6908 -52.2266
v  -29.0351 18.6908 -92.3841
v  -29.0351 28.7302 -89.6940
v  -29.0351 36.0795 -82.3447
v  -29.0351 38.7696 -72.3053
v  -29.0351 36.0795 -62.2659
v  -29.0351 28.7302 -54.9166
v  -29.0351 28.7794 58.1741
v  -29.0351 36.1719 65.5667
v  -29.0351 38.8778 75.6651
v  -29.0351 36.1719 85.7636
v  -29.0351 28.7794 93.1561
v  -49.2131 89.5501 24.9888
v  -49.2131 89.5501 -20.2619
v  -49.2131 88.1963 -20.2619
v  -49.2131 88.0333 23.8569
v  -48.7977 60.7990 47.7656
v  -48.7977 60.7990 -16.6694
v  -48.7977 88.0333 -14.4939
v  -46.7469 87.3518 -20.3164
v  -46.7469 62.9504 -22.2679
v  49.2121 60.8329 -22.4373
v  41.5501 62.9504 -22.2679
v  -45.6520 60.8329 -26.7353
v  -45.6520 60.8329 -117.4597
v  45.6510 60.8329 -26.7353
v  49.2121 60.8329 -121.4122
v  49.2121 51.7549 121.7971
v  49.2121 53.9157 121.7971
v  49.2121 60.0226 50.9310
v  49.2121 51.7549 -82.9293
v  49.2121 22.5609 121.7971
v  49.2121 51.7549 101.3245
v  49.2121 28.7794 93.1561
v  49.2121 36.1719 85.7636
v  49.2121 38.8778 75.6651
v  49.2121 36.0795 -62.2659
v  49.2121 28.7794 58.1741
v  49.2121 36.1719 65.5667
v  49.2121 28.7302 -54.9166
v  49.2121 38.7696 -72.3053
v  49.2121 36.0795 -82.3447
v  49.2121 28.7302 -89.6940
v  29.0340 28.7302 -89.6940
v  29.0340 36.0795 -82.3447
v  29.0340 38.7696 -72.3053
v  29.0340 36.0795 -62.2659
v  29.0340 28.7302 -54.9166
v  29.0341 28.7794 58.1741
v  29.0341 36.1719 65.5667
v  29.0340 38.8778 75.6651
v  29.0341 36.1719 85.7636
v  29.0341 28.7794 93.1561
v  46.7352 60.6829 50.3509
v  -46.7362 60.6829 50.3509
v  -46.7362 88.0664 26.2924
v  -48.7977 88.0333 23.8569
v  46.7459 62.9504 -22.2686
v  49.2121 88.0333 -20.2619
v  49.2121 88.1963 -20.2619
v  46.7459 87.8718 -20.2873
v  -46.7469 87.8718 -20.2750
v  49.2121 89.5501 -20.2619
v  45.6510 60.8329 -117.4597
v  45.6510 42.9324 -26.7353
v  -45.6520 42.9324 -26.7353
v  -45.6520 42.9325 -117.4597
v  49.2121 60.7990 -16.6694
v  49.2121 88.0333 -14.4939
v  49.2121 60.7990 47.7656
v  45.6510 42.9325 -117.4597
v  48.7855 60.7990 -16.6694
v  48.7855 60.7990 47.7656
v  48.7855 88.0333 -14.4939
v  -46.7362 60.6829 49.7020
v  -46.7362 88.1124 25.6422
v  46.7352 88.0664 26.2924
v  46.7352 88.1124 25.6422
v  49.2121 89.5501 24.9888
v  49.2121 88.0333 23.8568
v  48.7855 88.0333 23.8568
v  46.7352 60.6829 49.7020
v  46.7459 87.8718 -19.7078
v  46.7459 62.9504 -21.8449
v  -46.7469 62.9504 -21.8449
v  -46.7469 87.8718 -19.7078
# 426 vertices

vn 0.0000 0.9659 -0.2588
vn 0.0000 0.7071 -0.7071
vn 0.0000 0.2588 -0.9659
vn 0.0000 -0.2588 -0.9659
vn 0.0000 -0.7071 -0.7071
vn 0.0000 -0.9659 -0.2588
vn 0.0000 -0.9659 0.2588
vn 0.0000 -0.7071 0.7071
vn 0.0000 -0.2588 0.9659
vn -0.0000 0.2588 0.9659
vn 1.0000 -0.0000 -0.0000
vn 1.0000 0.0000 -0.0000
vn 1.0000 -0.0000 0.0000
vn -0.0000 0.9659 0.2588
vn -0.0000 0.7071 0.7071
vn -1.0000 -0.0000 0.0000
vn -1.0000 -0.0000 -0.0000
vn -1.0000 0.0000 0.0000
vn 1.0000 0.0000 0.0000
vn -0.0000 0.9659 -0.2588
vn -0.0000 0.2588 -0.9659
vn 0.0000 0.7071 0.7071
vn -1.0000 0.0000 -0.0000
vn 0.0000 0.2588 0.9659
vn 0.0000 0.9659 0.2588
vn -0.0000 -1.0000 -0.0000
vn -0.0000 -0.2588 0.9659
vn -0.0000 -0.7071 0.7071
vn -0.0000 -0.9659 0.2588
vn -0.0000 -0.9659 -0.2588
vn -0.0000 -0.7071 -0.7071
vn -0.0000 -0.2588 -0.9659
vn 0.2588 -0.0000 0.9659
vn -0.8855 -0.3994 0.2373
vn -0.2588 0.0000 -0.9659
vn 0.8855 0.3994 -0.2373
vn 0.3858 -0.9168 -0.1034
vn -0.3858 0.9168 0.1034
vn -0.7230 -0.0000 0.6908
vn 0.9716 -0.0000 0.2367
vn 0.2083 -0.8772 0.4325
vn 0.1226 0.8808 0.4574
vn -0.2588 -0.0000 0.9659
vn -0.9716 -0.0000 0.2367
vn 0.2588 0.0000 -0.9659
vn 0.7230 -0.0000 0.6908
vn -0.1961 -0.8782 0.4363
vn -0.1226 0.8808 0.4574
vn 0.8855 -0.3994 0.2373
vn -0.8855 0.3994 -0.2373
vn -0.3858 -0.9168 -0.1034
vn 0.3858 0.9168 0.1034
vn 0.0000 -0.0000 1.0000
vn 0.0000 0.0000 -1.0000
vn 0.0000 -1.0000 -0.0000
vn 0.0000 1.0000 0.0000
vn -0.0000 -0.0000 -1.0000
vn -0.0000 1.0000 -0.0000
vn 0.0000 -1.0000 0.0000
vn 0.0000 0.6504 0.7596
vn 0.0000 0.0000 1.0000
vn -0.0000 0.0000 -1.0000
vn -0.0000 -0.0000 1.0000
vn 0.0000 0.0773 -0.9970
vn 0.0000 -0.9871 -0.1601
vn 0.0000 -1.0000 0.0009
vn 0.0000 -1.0000 -0.0001
vn 0.0000 -1.0000 0.0006
vn -0.0000 -1.0000 -0.0001
vn 0.0002 -1.0000 -0.0000
vn 0.0000 -0.0796 0.9968
vn -0.0000 0.0797 -0.9968
vn -0.0000 1.0000 0.0000
vn 0.0000 0.9963 0.0859
vn -0.0000 -0.9825 0.1861
vn 1.0000 0.0001 -0.0001
vn 0.0000 0.6600 0.7512
vn -0.0000 0.6600 0.7512
vn 0.0000 -0.6597 -0.7515
vn 0.0002 0.0797 -0.9968
vn 0.0051 0.0787 -0.9969
vn -0.0001 0.0792 -0.9969
vn -0.0000 0.0152 -0.9999
vn -0.0000 -0.9975 -0.0706
vn 0.0000 0.6594 0.7518
vn -0.0000 0.0854 -0.9963
# 86 vertex normals

vt 0.1407 0.2067 0.0000
vt 0.1834 0.1953 0.0000
vt 0.2147 0.1640 0.0000
vt 0.2261 0.1213 0.0000
vt 0.2147 0.0786 0.0000
vt 0.1834 0.0473 0.0000
vt 0.1407 0.0359 0.0000
vt 0.0980 0.0473 0.0000
vt 0.0668 0.0786 0.0000
vt 0.0553 0.1213 0.0000
vt 0.0668 0.1640 0.0000
vt 0.0980 0.1953 0.0000
vt 0.7203 0.1500 0.0000
vt 0.7223 0.1538 0.0000
vt 0.7220 0.1544 0.0000
vt 0.7198 0.1502 0.0000
vt 0.7251 0.1560 0.0000
vt 0.7278 0.1560 0.0000
vt 0.7281 0.1568 0.0000
vt 0.7251 0.1568 0.0000
vt 0.6917 0.1649 0.0000
vt 0.6890 0.1627 0.0000
vt 0.6887 0.1633 0.0000
vt 0.6917 0.1657 0.0000
vt 0.7299 0.1537 0.0000
vt 0.7304 0.1543 0.0000
vt 0.6973 0.1588 0.0000
vt 0.6965 0.1626 0.0000
vt 0.6970 0.1632 0.0000
vt 0.6978 0.1590 0.0000
vt 0.7195 0.1456 0.0000
vt 0.7190 0.1453 0.0000
vt 0.6869 0.1588 0.0000
vt 0.6865 0.1591 0.0000
vt 0.6948 0.1657 0.0000
vt 0.7312 0.1501 0.0000
vt 0.6856 0.1542 0.0000
vt 0.7306 0.1499 0.0000
vt 0.6862 0.1544 0.0000
vt 0.6945 0.1648 0.0000
vt 0.6792 0.1339 0.0000
vt 0.6812 0.1377 0.0000
vt 0.6809 0.1383 0.0000
vt 0.6787 0.1341 0.0000
vt 0.6840 0.1399 0.0000
vt 0.6868 0.1399 0.0000
vt 0.6871 0.1407 0.0000
vt 0.6840 0.1407 0.0000
vt 0.6507 0.1487 0.0000
vt 0.6479 0.1465 0.0000
vt 0.6476 0.1471 0.0000
vt 0.6507 0.1496 0.0000
vt 0.6888 0.1376 0.0000
vt 0.6893 0.1382 0.0000
vt 0.6562 0.1427 0.0000
vt 0.6555 0.1465 0.0000
vt 0.6560 0.1471 0.0000
vt 0.6568 0.1429 0.0000
vt 0.6785 0.1294 0.0000
vt 0.6779 0.1292 0.0000
vt 0.6459 0.1427 0.0000
vt 0.6454 0.1429 0.0000
vt 0.6537 0.1495 0.0000
vt 0.6901 0.1340 0.0000
vt 0.6446 0.1381 0.0000
vt 0.6895 0.1338 0.0000
vt 0.6451 0.1383 0.0000
vt 0.6534 0.1487 0.0000
vt 0.7325 0.1622 0.0000
vt 0.7300 0.1581 0.0000
vt 0.7302 0.1562 0.0000
vt 0.7327 0.1604 0.0000
vt 0.7320 0.1581 0.0000
vt 0.7322 0.1562 0.0000
vt 0.7344 0.1622 0.0000
vt 0.7347 0.1604 0.0000
vt 0.7351 0.1652 0.0000
vt 0.7315 0.1652 0.0000
vt 0.7315 0.1573 0.0000
vt 0.7351 0.1588 0.0000
vt 0.7333 0.1664 0.0000
vt 0.7333 0.1560 0.0000
vt 0.7376 0.1664 0.0000
vt 0.7376 0.1576 0.0000
vt 0.7313 0.1652 0.0000
vt 0.7349 0.1652 0.0000
vt 0.7349 0.1586 0.0000
vt 0.7313 0.1573 0.0000
vt 0.7374 0.1664 0.0000
vt 0.7374 0.1574 0.0000
vt 0.7332 0.1664 0.0000
vt 0.7332 0.1560 0.0000
vt 0.7235 0.0960 0.0000
vt 0.7735 0.0960 0.0000
vt 0.7735 0.1460 0.0000
vt 0.7235 0.1460 0.0000
vt 0.6054 0.1280 0.0000
vt 0.6554 0.1280 0.0000
vt 0.6554 0.1780 0.0000
vt 0.6054 0.1780 0.0000
vt 0.7260 0.1526 0.0000
vt 0.7760 0.1526 0.0000
vt 0.7760 0.2026 0.0000
vt 0.7260 0.2026 0.0000
vt 0.7211 0.0468 0.0000
vt 0.7711 0.0468 0.0000
vt 0.7711 0.0968 0.0000
vt 0.7211 0.0968 0.0000
vt 0.1244 0.4943 0.0000
vt 0.0222 0.4943 0.0000
vt 0.0162 0.4168 0.0000
vt 0.0796 0.4065 0.0000
vt 0.0899 0.4065 0.0000
vt 0.0983 0.4378 0.0000
vt 0.1212 0.4608 0.0000
vt 0.1526 0.4692 0.0000
vt 0.6137 0.4943 0.0000
vt 0.5142 0.4608 0.0000
vt 0.2069 0.4378 0.0000
vt 0.2153 0.4065 0.0000
vt 0.4828 0.4065 0.0000
vt 0.1840 0.4608 0.0000
vt 0.4912 0.4378 0.0000
vt 0.5455 0.4692 0.0000
vt 0.5769 0.4608 0.0000
vt 0.5999 0.4378 0.0000
vt 0.6083 0.4065 0.0000
vt 0.6137 0.4065 0.0000
vt 0.3003 0.5183 0.0000
vt 0.3061 0.5906 0.0000
vt 0.2908 0.5906 0.0000
vt 0.2850 0.5184 0.0000
vt 0.0222 0.5184 0.0000
vt 0.6680 0.4943 0.0000
vt 0.6680 0.5000 0.0000
vt 0.4799 0.5162 0.0000
vt 0.4715 0.5183 0.0000
vt 0.9238 0.9483 0.0000
vt 0.4961 0.9483 0.0000
vt 0.4961 0.8215 0.0000
vt 0.9238 0.8215 0.0000
vt 0.7283 0.1213 0.0000
vt 0.7783 0.1213 0.0000
vt 0.7783 0.1713 0.0000
vt 0.7283 0.1713 0.0000
vt 0.6680 0.4168 0.0000
vt 0.7533 0.1713 0.0000
vt 0.7611 0.1701 0.0000
vt 0.7680 0.1665 0.0000
vt 0.7736 0.1610 0.0000
vt 0.7771 0.1540 0.0000
vt 0.7783 0.1463 0.0000
vt 0.7771 0.1386 0.0000
vt 0.7736 0.1316 0.0000
vt 0.7680 0.1261 0.0000
vt 0.7611 0.1225 0.0000
vt 0.7533 0.1213 0.0000
vt 0.7331 0.1316 0.0000
vt 0.7456 0.1225 0.0000
vt 0.7386 0.1261 0.0000
vt 0.7296 0.1386 0.0000
vt 0.7283 0.1463 0.0000
vt 0.7296 0.1540 0.0000
vt 0.7331 0.1610 0.0000
vt 0.7386 0.1665 0.0000
vt 0.7456 0.1701 0.0000
vt 0.4110 0.5947 0.0000
vt 0.2908 0.5947 0.0000
vt 0.2908 0.5911 0.0000
vt 0.4080 0.5906 0.0000
vt 0.3051 0.0180 0.0000
vt 0.3551 0.0180 0.0000
vt 0.3551 0.0680 0.0000
vt 0.3051 0.0680 0.0000
vt 0.3301 0.0680 0.0000
vt 0.3478 0.0606 0.0000
vt 0.3469 0.0421 0.0000
vt 0.3310 0.0664 0.0000
vt 0.3124 0.0606 0.0000
vt 0.3142 0.0590 0.0000
vt 0.3517 0.0555 0.0000
vt 0.3517 0.0305 0.0000
vt 0.3301 0.0180 0.0000
vt 0.3084 0.0305 0.0000
vt 0.3084 0.0555 0.0000
vt 0.4961 0.9878 0.0000
vt 0.9238 0.9878 0.0000
vt 0.0147 0.9861 0.0000
vt 0.0147 0.9764 0.0000
vt 0.4547 0.9764 0.0000
vt 0.4547 0.9861 0.0000
vt 0.7083 0.4367 0.0000
vt 0.7083 0.2484 0.0000
vt 0.9698 0.2484 0.0000
vt 0.9698 0.4367 0.0000
vt 0.6620 0.6974 0.0000
vt 0.5598 0.6974 0.0000
vt 0.6046 0.6096 0.0000
vt 0.6680 0.6199 0.0000
vt 0.0147 0.8459 0.0000
vt 0.4547 0.8459 0.0000
vt 0.0705 0.6974 0.0000
vt 0.0705 0.6096 0.0000
vt 0.0759 0.6096 0.0000
vt 0.0843 0.6410 0.0000
vt 0.1073 0.6639 0.0000
vt 0.1387 0.6723 0.0000
vt 0.5002 0.6639 0.0000
vt 0.1930 0.6410 0.0000
vt 0.2014 0.6096 0.0000
vt 0.4689 0.6096 0.0000
vt 0.1700 0.6639 0.0000
vt 0.4773 0.6410 0.0000
vt 0.5316 0.6723 0.0000
vt 0.5630 0.6639 0.0000
vt 0.5859 0.6410 0.0000
vt 0.5943 0.6096 0.0000
vt 0.7729 0.1619 0.0000
vt 0.7777 0.1408 0.0000
vt 0.7642 0.1238 0.0000
vt 0.7425 0.1238 0.0000
vt 0.7290 0.1408 0.0000
vt 0.7338 0.1619 0.0000
vt 0.7083 0.4508 0.0000
vt 0.9698 0.4508 0.0000
vt 0.9632 0.4523 0.0000
vt 0.7149 0.4523 0.0000
vt 0.7083 0.5197 0.0000
vt 0.7149 0.5162 0.0000
vt 0.9087 0.1416 0.0000
vt 0.9101 0.1245 0.0000
vt 0.8695 0.1245 0.0000
vt 0.8846 0.1416 0.0000
vt 0.3129 0.0589 0.0000
vt 0.3051 0.0430 0.0000
vt 0.3124 0.0253 0.0000
vt 0.3215 0.0274 0.0000
vt 0.3472 0.0380 0.0000
vt 0.3551 0.0430 0.0000
vt 0.3478 0.0253 0.0000
vt 0.2044 0.7194 0.0000
vt 0.0162 0.7032 0.0000
vt 0.0162 0.6974 0.0000
vt 0.3839 0.7214 0.0000
vt 0.6620 0.7215 0.0000
vt 0.3992 0.7215 0.0000
vt 0.3934 0.7938 0.0000
vt 0.3781 0.7938 0.0000
vt 0.2128 0.7214 0.0000
vt 0.0162 0.6199 0.0000
vt 0.9686 0.6502 0.0000
vt 0.9686 0.8061 0.0000
vt 0.8116 0.8061 0.0000
vt 0.8116 0.6502 0.0000
vt 0.9632 0.5162 0.0000
vt 0.9698 0.5197 0.0000
vt 0.7083 0.6399 0.0000
vt 0.9698 0.6399 0.0000
vt 0.8835 0.1417 0.0000
vt 0.8683 0.1244 0.0000
vt 0.2763 0.7938 0.0000
vt 0.3934 0.7942 0.0000
vt 0.3934 0.7978 0.0000
vt 0.2732 0.7978 0.0000
vt 0.9120 0.1415 0.0000
vt 0.9133 0.1259 0.0000
vt 0.0000 0.0000 0.0000
# 267 texture coords

g SPW_Vehicle_Land_Static_Pick_Up_Truck
usemtl SPW_Vehicle_Land_Pick_Up_Truck
s off
f 1/1/1 2/1/1 3/2/1 4/2/1 
f 4/2/2 3/2/2 5/3/2 6/3/2 
f 6/3/3 5/3/3 7/4/3 8/4/3 
f 8/4/4 7/4/4 9/5/4 10/5/4 
f 10/5/5 9/5/5 11/6/5 12/6/5 
f 12/6/6 11/6/6 13/7/6 14/7/6 
f 14/7/7 13/7/7 15/8/7 16/8/7 
f 16/8/8 15/8/8 17/9/8 18/9/8 
f 18/9/9 17/9/9 19/10/9 20/10/9 
f 20/10/10 19/10/10 21/11/10 22/11/10 
f 3/2/11 2/1/11 23/12/11 21/11/11 
f 3/2/12 21/11/12 19/10/12 17/9/12 
f 3/2/12 17/9/12 15/8/12 13/7/12 
f 3/2/12 13/7/12 11/6/12 9/5/12 
f 3/2/13 9/5/13 7/4/13 5/3/13 
f 24/12/14 23/12/14 2/1/14 1/1/14 
f 22/11/15 21/11/15 23/12/15 24/12/15 
f 1/1/16 4/2/16 6/3/16 8/4/16 
f 1/1/17 8/4/17 10/5/17 12/6/17 
f 1/1/17 12/6/17 14/7/17 16/8/17 
f 1/1/16 16/8/16 18/9/16 20/10/16 
f 1/1/18 20/10/18 22/11/18 24/12/18 
f 25/1/1 26/1/1 27/2/1 28/2/1 
f 28/2/2 27/2/2 29/3/2 30/3/2 
f 30/3/3 29/3/3 31/4/3 32/4/3 
f 32/4/4 31/4/4 33/5/4 34/5/4 
f 34/5/5 33/5/5 35/6/5 36/6/5 
f 36/6/6 35/6/6 37/7/6 38/7/6 
f 38/7/7 37/7/7 39/8/7 40/8/7 
f 40/8/8 39/8/8 41/9/8 42/9/8 
f 42/9/9 41/9/9 43/10/9 44/10/9 
f 44/10/10 43/10/10 45/11/10 46/11/10 
f 27/2/19 26/1/19 47/12/19 45/11/19 
f 27/2/12 45/11/12 43/10/12 41/9/12 
f 27/2/11 41/9/11 39/8/11 37/7/11 
f 27/2/12 37/7/12 35/6/12 33/5/12 
f 27/2/11 33/5/11 31/4/11 29/3/11 
f 48/12/14 47/12/14 26/1/14 25/1/14 
f 46/11/15 45/11/15 47/12/15 48/12/15 
f 25/1/16 28/2/16 30/3/16 32/4/16 
f 25/1/17 32/4/17 34/5/17 36/6/17 
f 25/1/16 36/6/16 38/7/16 40/8/16 
f 25/1/16 40/8/16 42/9/16 44/10/16 
f 25/1/16 44/10/16 46/11/16 48/12/16 
f 49/1/20 50/1/20 51/2/20 52/2/20 
f 52/2/2 51/2/2 53/3/2 54/3/2 
f 54/3/21 53/3/21 55/4/21 56/4/21 
f 56/4/4 55/4/4 57/5/4 58/5/4 
f 58/5/5 57/5/5 59/6/5 60/6/5 
f 60/6/6 59/6/6 61/7/6 62/7/6 
f 62/7/7 61/7/7 63/8/7 64/8/7 
f 64/8/8 63/8/8 65/9/8 66/9/8 
f 66/9/9 65/9/9 67/10/9 68/10/9 
f 68/10/10 67/10/10 69/11/10 70/11/10 
f 51/2/19 50/1/19 71/12/19 69/11/19 
f 51/2/12 69/11/12 67/10/12 65/9/12 
f 51/2/12 65/9/12 63/8/12 61/7/12 
f 51/2/19 61/7/19 59/6/19 57/5/19 
f 51/2/12 57/5/12 55/4/12 53/3/12 
f 72/12/14 71/12/14 50/1/14 49/1/14 
f 70/11/22 69/11/22 71/12/22 72/12/22 
f 49/1/23 52/2/23 54/3/23 56/4/23 
f 49/1/23 56/4/23 58/5/23 60/6/23 
f 49/1/16 60/6/16 62/7/16 64/8/16 
f 49/1/17 64/8/17 66/9/17 68/10/17 
f 49/1/18 68/10/18 70/11/18 72/12/18 
f 73/1/20 74/1/20 75/2/20 76/2/20 
f 76/2/2 75/2/2 77/3/2 78/3/2 
f 78/3/3 77/3/3 79/4/3 80/4/3 
f 80/4/4 79/4/4 81/5/4 82/5/4 
f 82/5/5 81/5/5 83/6/5 84/6/5 
f 84/6/6 83/6/6 85/7/6 86/7/6 
f 86/7/7 85/7/7 87/8/7 88/8/7 
f 88/8/8 87/8/8 89/9/8 90/9/8 
f 90/9/9 89/9/9 91/10/9 92/10/9 
f 92/10/10 91/10/10 93/11/10 94/11/10 
f 75/2/19 74/1/19 95/12/19 93/11/19 
f 75/2/12 93/11/12 91/10/12 89/9/12 
f 75/2/12 89/9/12 87/8/12 85/7/12 
f 75/2/19 85/7/19 83/6/19 81/5/19 
f 75/2/19 81/5/19 79/4/19 77/3/19 
f 96/12/14 95/12/14 74/1/14 73/1/14 
f 94/11/22 93/11/22 95/12/22 96/12/22 
f 73/1/23 76/2/23 78/3/23 80/4/23 
f 73/1/16 80/4/16 82/5/16 84/6/16 
f 73/1/23 84/6/23 86/7/23 88/8/23 
f 73/1/16 88/8/16 90/9/16 92/10/16 
f 73/1/18 92/10/18 94/11/18 96/12/18 
s 1
f 97/13/11 98/14/13 99/15/13 100/16/11 
f 101/17/11 102/18/11 103/19/11 104/20/12 
f 105/21/16 106/22/18 107/23/23 108/24/18 
f 102/18/11 109/25/12 110/26/12 103/19/11 
f 111/27/23 112/28/23 113/29/23 114/30/23 
f 115/31/11 97/13/11 100/16/11 116/32/12 
f 106/22/18 117/33/18 118/34/18 107/23/23 
s off
f 108/24/1 104/20/1 103/19/1 119/35/1 
f 119/35/2 103/19/2 110/26/2 113/29/2 
f 113/29/3 110/26/3 120/36/3 114/30/3 
f 121/37/24 116/32/24 100/16/24 118/34/24 
f 107/23/25 99/15/25 104/20/25 108/24/25 
f 118/34/22 100/16/22 99/15/22 107/23/22 
s 1
f 109/25/12 122/38/12 120/36/12 110/26/12 
f 117/33/18 123/39/17 121/37/16 118/34/18 
f 112/28/23 124/40/18 119/35/18 113/29/23 
f 98/14/13 101/17/11 104/20/12 99/15/13 
f 124/40/18 105/21/16 108/24/18 119/35/18 
s off
f 115/31/26 116/32/26 121/37/26 123/39/26 
f 114/30/26 120/36/26 122/38/26 111/27/26 
f 112/28/27 111/27/27 122/38/27 109/25/27 
f 124/40/28 112/28/28 109/25/28 102/18/28 
f 105/21/29 124/40/29 102/18/29 101/17/29 
f 106/22/30 105/21/30 101/17/30 98/14/30 
f 117/33/31 106/22/31 98/14/31 97/13/31 
f 123/39/32 117/33/32 97/13/32 115/31/32 
s 1
f 125/41/13 126/42/13 127/43/13 128/44/13 
f 129/45/11 130/46/11 131/47/11 132/48/12 
f 133/49/16 134/50/23 135/51/23 136/52/18 
f 130/46/11 137/53/11 138/54/11 131/47/11 
f 139/55/16 140/56/23 141/57/16 142/58/16 
f 143/59/12 125/41/13 128/44/13 144/60/12 
f 134/50/23 145/61/23 146/62/23 135/51/23 
s off
f 136/52/1 132/48/1 131/47/1 147/63/1 
f 147/63/2 131/47/2 138/54/2 141/57/2 
f 141/57/3 138/54/3 148/64/3 142/58/3 
f 149/65/24 144/60/24 128/44/24 146/62/24 
f 135/51/25 127/43/25 132/48/25 136/52/25 
f 146/62/22 128/44/22 127/43/22 135/51/22 
s 1
f 137/53/11 150/66/12 148/64/12 138/54/11 
f 145/61/23 151/67/23 149/65/23 146/62/23 
f 140/56/23 152/68/18 147/63/18 141/57/16 
f 126/42/13 129/45/11 132/48/12 127/43/13 
f 152/68/18 133/49/16 136/52/18 147/63/18 
s off
f 143/59/26 144/60/26 149/65/26 151/67/26 
f 142/58/26 148/64/26 150/66/26 139/55/26 
f 140/56/27 139/55/27 150/66/27 137/53/27 
f 152/68/28 140/56/28 137/53/28 130/46/28 
f 133/49/29 152/68/29 130/46/29 129/45/29 
f 134/50/30 133/49/30 129/45/30 126/42/30 
f 145/61/31 134/50/31 126/42/31 125/41/31 
f 151/67/32 145/61/32 125/41/32 143/59/32 
f 153/69/33 154/70/33 155/71/33 156/72/33 
f 154/70/34 157/73/34 158/74/34 155/71/34 
f 157/73/35 159/75/35 160/76/35 158/74/35 
f 159/75/36 153/69/36 156/72/36 160/76/36 
f 156/72/37 155/71/37 158/74/37 160/76/37 
f 159/75/38 157/73/38 154/70/38 153/69/38 
f 161/77/33 162/78/33 163/79/33 164/80/33 
f 162/78/39 165/81/39 166/82/39 163/79/39 
f 165/81/35 167/83/35 168/84/35 166/82/35 
f 167/83/40 161/77/40 164/80/40 168/84/40 
f 164/80/41 163/79/41 166/82/41 168/84/41 
f 167/83/42 165/81/42 162/78/42 161/77/42 
f 169/85/43 170/86/43 171/87/43 172/88/43 
f 170/86/44 173/89/44 174/90/44 171/87/44 
f 173/89/45 175/91/45 176/92/45 174/90/45 
f 175/91/46 169/85/46 172/88/46 176/92/46 
f 172/88/47 171/87/47 174/90/47 176/92/47 
f 175/91/48 173/89/48 170/86/48 169/85/48 
f 177/75/45 178/73/45 179/74/45 180/76/45 
f 178/73/49 181/70/49 182/71/49 179/74/49 
f 181/70/43 183/69/43 184/72/43 182/71/43 
f 183/69/50 177/75/50 180/76/50 184/72/50 
f 180/76/51 179/74/51 182/71/51 184/72/51 
f 183/69/52 181/70/52 178/73/52 177/75/52 
f 185/93/53 186/94/53 187/95/53 188/96/53 
f 186/93/23 189/94/23 190/95/23 187/96/23 
f 189/93/54 191/94/54 192/95/54 190/96/54 
f 191/93/13 185/94/13 188/95/13 192/96/13 
f 188/93/55 187/94/55 190/95/55 192/96/55 
f 191/93/56 189/94/56 186/95/56 185/96/56 
f 193/93/53 194/94/53 195/95/53 196/96/53 
f 194/93/23 197/94/23 198/95/23 195/96/23 
f 197/93/54 199/94/54 200/95/54 198/96/54 
f 199/93/12 193/94/12 196/95/12 200/96/12 
f 196/93/55 195/94/55 198/95/55 200/96/55 
f 199/93/56 197/94/56 194/95/56 193/96/56 
f 201/93/53 202/94/53 203/95/53 204/96/53 
f 202/93/23 205/94/23 206/95/23 203/96/23 
f 205/93/54 207/94/54 208/95/54 206/96/54 
f 207/93/12 201/94/12 204/95/12 208/96/12 
f 204/93/55 203/94/55 206/95/55 208/96/55 
f 207/93/56 205/94/56 202/95/56 201/96/56 
f 209/93/53 210/94/53 211/95/53 212/96/53 
f 210/93/23 213/94/23 214/95/23 211/96/23 
f 213/93/54 215/94/54 216/95/54 214/96/54 
f 215/93/13 209/94/13 212/95/13 216/96/13 
f 212/93/55 211/94/55 214/95/55 216/96/55 
f 215/93/56 213/94/56 210/95/56 209/96/56 
f 217/97/53 218/98/53 219/99/53 220/100/53 
f 218/97/23 221/98/23 222/99/23 219/100/23 
f 221/97/57 223/98/57 224/99/57 222/100/57 
f 223/97/12 217/98/12 220/99/12 224/100/12 
f 220/97/55 219/98/55 222/99/55 224/100/55 
f 223/97/58 221/98/58 218/99/58 217/100/58 
f 225/97/53 226/98/53 227/99/53 228/100/53 
f 226/97/23 229/98/23 230/99/23 227/100/23 
f 229/97/54 231/98/54 232/99/54 230/100/54 
f 231/97/12 225/98/12 228/99/12 232/100/12 
f 228/97/59 227/98/59 230/99/59 232/100/59 
f 231/97/58 229/98/58 226/99/58 225/100/58 
f 233/97/53 234/98/53 235/99/53 236/100/53 
s 1
f 234/97/17 237/98/17 238/99/18 235/100/18 
s 2
f 237/97/54 239/98/54 240/99/54 238/100/54 
s 1
f 239/97/19 233/98/19 236/99/11 240/100/11 
s off
f 236/97/55 235/98/55 238/99/55 240/100/55 
s 1
f 233/97/19 239/98/19 241/99/19 242/100/19 
s off
f 241/97/56 243/98/56 244/99/56 242/100/56 
s 2
f 239/97/54 237/98/54 243/99/54 241/100/54 
s 1
f 237/97/17 234/98/17 244/99/17 243/100/17 
s off
f 234/97/60 233/98/60 242/99/60 244/100/60 
f 245/97/61 246/98/61 247/99/61 248/100/61 
s 1
f 246/97/17 249/98/17 250/99/18 247/100/18 
s 2
f 249/97/54 251/98/54 252/99/54 250/100/54 
s 1
f 251/97/19 245/98/19 248/99/11 252/100/11 
s off
f 248/97/55 247/98/55 250/99/55 252/100/55 
s 1
f 245/97/19 251/98/19 253/99/19 254/100/19 
s off
f 253/97/56 255/98/56 256/99/56 254/100/56 
s 2
f 251/97/54 249/98/54 255/99/54 253/100/54 
s 1
f 249/97/17 246/98/17 256/99/17 255/100/17 
s off
f 246/97/60 245/98/60 254/99/60 256/100/60 
f 257/101/53 258/102/53 259/103/53 260/104/53 
f 258/101/23 261/102/23 262/103/23 259/104/23 
f 261/101/62 263/102/62 264/103/62 262/104/62 
f 263/101/13 257/102/13 260/103/13 264/104/13 
f 260/101/55 259/102/55 262/103/55 264/104/55 
f 263/101/56 261/102/56 258/103/56 257/104/56 
f 265/101/61 266/102/61 267/103/61 268/104/61 
f 266/101/17 269/102/17 270/103/17 267/104/17 
f 269/101/62 271/102/62 272/103/62 270/104/62 
f 271/101/19 265/102/19 268/103/19 272/104/19 
f 268/101/55 267/102/55 270/103/55 272/104/55 
f 271/101/56 269/102/56 266/103/56 265/104/56 
f 273/105/63 274/106/63 275/107/63 276/108/63 
f 274/105/23 277/106/23 278/107/23 275/108/23 
f 277/105/54 279/106/54 280/107/54 278/108/54 
f 279/105/12 273/106/12 276/107/12 280/108/12 
f 276/105/26 275/106/26 278/107/26 280/108/26 
f 279/105/56 277/106/56 274/107/56 273/108/56 
f 281/105/53 282/106/53 283/107/53 284/108/53 
f 282/105/23 285/106/23 286/107/23 283/108/23 
f 285/105/54 287/106/54 288/107/54 286/108/54 
f 287/105/13 281/106/13 284/107/13 288/108/13 
f 284/105/55 283/106/55 286/107/55 288/108/55 
f 287/105/56 285/106/56 282/107/56 281/108/56 
f 289/105/63 290/106/63 291/107/63 292/108/63 
f 290/105/23 293/106/23 294/107/23 291/108/23 
f 293/105/54 295/106/54 296/107/54 294/108/54 
f 295/105/12 289/106/12 292/107/12 296/108/12 
f 292/105/55 291/106/55 294/107/55 296/108/55 
f 295/105/56 293/106/56 290/107/56 289/108/56 
s 1
f 297/109/17 298/110/17 299/111/17 300/112/17 
f 300/112/17 301/113/23 302/114/16 297/109/17 
f 297/109/17 302/114/16 303/115/17 304/116/23 
f 305/117/17 297/109/17 304/116/23 306/118/17 
f 307/119/17 308/120/17 309/121/17 310/122/18 
f 304/116/23 310/122/18 309/121/17 311/123/17 
f 304/116/23 311/123/17 306/118/17 
f 305/117/17 306/118/17 312/124/16 313/125/17 
f 305/117/17 313/125/17 314/126/16 315/127/17 
f 305/117/17 315/127/17 316/128/17 
s off
f 317/129/18 318/130/18 319/131/18 320/132/18 
f 320/132/23 321/133/23 298/110/23 297/109/23 
f 305/117/23 322/134/23 323/135/23 297/109/23 
f 320/132/23 297/109/23 323/135/23 317/129/23 
f 317/129/17 323/135/17 324/136/17 325/137/17 
f 298/138/64 326/139/64 327/140/64 299/141/64 
f 299/142/65 327/143/65 328/144/65 300/145/65 
s 1
f 322/134/16 305/117/17 316/128/17 329/146/16 
s off
f 300/147/66 328/148/66 330/149/66 331/150/66 
f 332/151/67 333/152/67 334/153/67 335/154/67 
f 336/155/68 337/156/68 338/157/68 339/158/68 
f 338/157/68 316/159/68 315/160/68 339/158/68 
f 335/154/69 336/155/69 339/158/69 332/151/69 
f 331/150/70 332/151/70 339/158/70 340/161/70 
f 340/161/67 309/162/67 308/163/67 341/164/67 
f 331/150/69 340/161/69 341/164/69 342/165/69 
f 300/147/66 331/150/66 342/165/66 301/166/66 
f 302/142/27 301/143/27 342/144/27 343/145/27 
f 303/142/28 302/143/28 343/144/28 344/145/28 
f 304/142/29 303/143/29 344/144/29 345/145/29 
f 310/142/30 304/143/30 345/144/30 346/145/30 
f 307/142/5 310/143/5 346/144/5 347/145/5 
f 341/142/4 308/143/4 307/144/4 347/145/4 
f 311/142/27 309/143/27 340/144/27 348/145/27 
f 306/142/28 311/143/28 348/144/28 349/145/28 
f 312/142/29 306/143/29 349/144/29 350/145/29 
f 313/142/30 312/143/30 350/144/30 351/145/30 
f 314/142/5 313/143/5 351/144/5 352/145/5 
f 339/142/32 315/143/32 314/144/32 352/145/32 
f 353/167/17 354/168/17 355/169/17 356/170/17 
f 355/169/17 318/130/17 356/170/17 
f 324/136/23 353/167/23 356/170/23 325/137/23 
f 317/171/56 325/172/56 357/173/56 358/174/56 
f 318/171/71 317/172/71 358/173/71 359/174/71 
f 319/171/23 318/172/23 355/173/23 
f 320/175/72 319/176/72 360/177/72 361/178/72 
f 362/179/72 320/175/72 361/178/72 363/180/72 
s 1
f 364/181/73 365/182/56 321/183/56 320/184/73 
f 366/175/56 364/181/73 320/184/73 362/185/56 
s off
f 367/186/54 326/139/54 298/138/54 321/187/54 
f 323/188/63 322/189/63 368/190/63 369/191/63 
f 324/192/74 323/193/74 369/194/74 370/195/74 
s 1
f 326/196/19 371/197/19 328/198/19 327/199/19 
s off
f 368/190/63 322/189/63 329/200/63 372/201/63 
f 316/142/75 338/143/75 372/144/75 329/145/75 
s 1
f 373/202/19 338/203/19 337/204/19 374/205/19 
f 373/202/19 374/205/19 375/206/19 376/207/19 
f 371/197/19 373/202/19 376/207/19 377/208/11 
f 378/209/12 334/210/12 333/211/12 379/212/13 
f 376/207/19 379/212/13 333/211/12 380/213/12 
f 376/207/19 380/213/12 377/208/11 
f 371/197/19 377/208/11 381/214/12 382/215/19 
f 383/216/76 330/217/12 328/198/19 382/215/19 
f 371/197/19 382/215/19 328/198/19 
s off
f 384/142/27 331/143/27 330/144/27 383/145/27 
f 332/147/19 331/218/19 384/219/19 385/220/19 
f 332/147/11 385/220/11 386/221/11 387/222/11 
f 332/147/11 387/222/11 388/223/11 
f 380/142/32 333/143/32 332/144/32 388/145/32 
f 389/142/27 335/143/27 334/144/27 378/145/27 
f 336/147/13 335/218/13 389/219/13 390/220/13 
f 336/147/12 390/220/12 391/221/12 392/222/12 
f 336/147/11 392/222/11 393/223/11 
f 374/142/4 337/143/4 336/144/4 393/145/4 
f 340/147/18 339/218/18 352/219/18 351/220/18 
f 340/147/23 351/220/23 350/221/23 349/222/23 
f 340/147/23 349/222/23 348/223/23 
f 342/147/18 341/218/18 347/219/18 346/220/18 
f 342/147/18 346/220/18 345/221/18 344/222/18 
f 342/147/23 344/222/23 343/223/23 
s 1
f 324/224/77 370/225/78 394/226/78 395/227/77 
f 353/228/78 324/224/77 395/227/77 396/229/78 
s off
f 325/171/79 356/172/79 397/173/79 357/174/79 
f 359/230/17 358/231/17 357/232/17 397/233/17 
f 356/171/55 318/172/55 359/173/55 397/174/55 
f 362/179/80 363/180/80 398/234/80 399/235/80 
f 400/236/81 399/235/81 398/234/81 401/237/81 
f 402/238/82 360/177/82 319/176/82 401/237/82 
f 400/236/83 401/237/83 319/176/83 403/183/83 
f 403/183/62 319/176/62 355/239/62 354/240/62 
s 1
f 367/182/73 321/183/56 365/184/56 404/185/73 
f 362/181/56 367/182/73 404/185/73 366/175/56 
s off
f 364/171/62 366/172/62 405/173/62 406/174/62 
f 365/171/11 364/172/11 406/173/11 407/174/11 
f 370/241/19 369/242/19 368/243/19 408/244/19 
f 371/197/13 326/196/13 367/245/13 373/202/13 
f 373/202/19 367/245/19 362/246/19 408/244/19 
f 362/246/11 399/247/11 409/248/11 408/244/11 
f 368/243/11 373/202/11 408/244/11 
f 410/249/19 370/241/19 408/244/19 
s 1
f 373/202/19 368/243/19 372/250/12 338/203/19 
s off
f 375/142/5 374/143/5 393/144/5 392/145/5 
f 376/142/6 375/143/6 392/144/6 391/145/6 
f 379/142/7 376/143/7 391/144/7 390/145/7 
f 378/142/28 379/143/28 390/144/28 389/145/28 
f 377/142/31 380/143/31 388/144/31 387/145/31 
f 381/142/30 377/143/30 387/144/30 386/145/30 
f 382/142/7 381/143/7 386/144/7 385/145/7 
f 383/142/8 382/143/8 385/144/8 384/145/8 
f 366/171/18 404/172/18 411/173/18 405/174/18 
f 404/171/61 365/172/61 407/173/61 411/174/61 
f 405/251/56 411/252/56 407/253/56 406/254/56 
f 410/171/56 408/172/56 412/173/56 413/174/56 
f 400/171/12 409/172/12 399/173/12 
f 408/171/71 409/172/71 414/173/71 412/174/71 
f 396/171/12 395/172/12 415/173/12 416/174/12 
f 417/171/84 396/172/84 416/173/84 418/174/84 
s 1
f 417/255/78 394/226/78 370/225/78 419/256/78 
f 396/229/78 417/255/78 419/256/78 353/228/78 
s off
f 354/257/56 353/228/56 419/256/56 403/258/56 
f 420/171/79 410/172/79 413/173/79 421/174/79 
f 421/233/12 413/232/12 412/231/12 414/230/12 
f 409/171/55 420/172/55 421/173/55 414/174/55 
f 395/171/56 394/172/56 422/173/56 415/174/56 
f 416/259/85 415/260/85 422/260/85 418/259/85 
f 394/171/23 417/172/23 418/173/23 422/174/23 
f 420/261/19 409/248/19 400/262/19 403/263/19 
f 420/261/19 403/263/19 419/264/19 370/241/19 
f 420/261/11 370/241/11 410/249/11 
f 423/265/86 424/266/86 425/266/86 426/265/86 
f 401/267/23 398/267/23 424/267/23 423/267/23 
f 402/267/55 401/267/55 423/267/55 426/267/55 
f 426/267/12 425/267/12 361/267/12 360/267/12 
f 426/267/12 360/267/12 402/267/12 
f 424/267/56 398/267/56 363/267/56 361/267/56 
f 424/267/56 361/267/56 425/267/56 
# 370 polygons - 16 triangles

