# 3ds Max Wavefront OBJ Exporter v0.97b - (c)2007 guruware
# File Created: 15.03.2017 11:55:55

mtllib SPW_Vehicle_Land_Static_Taxi.mtl

#
# object SPW_Vehicle_Land_Static_Taxi
#

v  -49.2382 37.2012 -74.8468
v  -33.7727 37.2012 -74.8468
v  -33.7727 34.6958 -84.1972
v  -49.2382 34.6958 -84.1972
v  -33.7726 27.8508 -91.0422
v  -49.2382 27.8508 -91.0422
v  -33.7726 18.5004 -93.5476
v  -49.2382 18.5004 -93.5476
v  -33.7726 9.1500 -91.0422
v  -49.2382 9.1500 -91.0422
v  -33.7726 2.3051 -84.1972
v  -49.2382 2.3051 -84.1972
v  -33.7726 -0.2004 -74.8468
v  -49.2382 -0.2004 -74.8468
v  -33.7726 2.3051 -65.4964
v  -49.2382 2.3051 -65.4964
v  -33.7726 9.1500 -58.6515
v  -49.2382 9.1500 -58.6515
v  -33.7726 18.5004 -56.1460
v  -49.2382 18.5004 -56.1460
v  -33.7726 27.8508 -58.6514
v  -49.2382 27.8508 -58.6514
v  -33.7727 34.6958 -65.4964
v  -49.2382 34.6958 -65.4964
v  -49.2382 37.2012 73.1515
v  -33.7726 37.2012 73.1515
v  -33.7727 34.6958 63.8011
v  -49.2382 34.6958 63.8011
v  -33.7726 27.8508 56.9562
v  -49.2382 27.8508 56.9562
v  -33.7726 18.5004 54.4507
v  -49.2382 18.5004 54.4507
v  -33.7726 9.1500 56.9561
v  -49.2382 9.1500 56.9561
v  -33.7726 2.3051 63.8011
v  -49.2382 2.3051 63.8011
v  -33.7726 -0.2004 73.1515
v  -49.2382 -0.2004 73.1515
v  -33.7726 2.3051 82.5019
v  -49.2382 2.3051 82.5019
v  -33.7726 9.1500 89.3469
v  -49.2382 9.1500 89.3469
v  -33.7726 18.5004 91.8523
v  -49.2382 18.5004 91.8523
v  -33.7726 27.8508 89.3469
v  -49.2382 27.8508 89.3469
v  -33.7726 34.6958 82.5019
v  -49.2382 34.6958 82.5019
v  33.7725 37.2012 -74.8468
v  49.2381 37.2012 -74.8468
v  49.2381 34.6958 -84.1972
v  33.7725 34.6958 -84.1972
v  49.2381 27.8508 -91.0421
v  33.7725 27.8508 -91.0421
v  49.2381 18.5004 -93.5476
v  33.7725 18.5004 -93.5476
v  49.2381 9.1500 -91.0422
v  33.7725 9.1500 -91.0422
v  49.2381 2.3051 -84.1972
v  33.7725 2.3051 -84.1972
v  49.2381 -0.2004 -74.8468
v  33.7725 -0.2004 -74.8468
v  49.2381 2.3051 -65.4964
v  33.7725 2.3051 -65.4964
v  49.2381 9.1500 -58.6514
v  33.7725 9.1500 -58.6514
v  49.2381 18.5004 -56.1460
v  33.7725 18.5004 -56.1460
v  49.2381 27.8508 -58.6514
v  33.7725 27.8508 -58.6514
v  49.2381 34.6958 -65.4964
v  33.7725 34.6958 -65.4964
v  33.7725 37.2012 73.1515
v  49.2381 37.2012 73.1515
v  49.2381 34.6958 63.8011
v  33.7725 34.6958 63.8011
v  49.2381 27.8508 56.9562
v  33.7725 27.8508 56.9562
v  49.2381 18.5004 54.4507
v  33.7725 18.5004 54.4507
v  49.2381 9.1500 56.9562
v  33.7725 9.1500 56.9562
v  49.2381 2.3051 63.8011
v  33.7725 2.3051 63.8011
v  49.2381 -0.2004 73.1515
v  33.7725 -0.2004 73.1515
v  49.2381 2.3051 82.5019
v  33.7725 2.3051 82.5019
v  49.2381 9.1500 89.3469
v  33.7725 9.1500 89.3469
v  49.2381 18.5004 91.8523
v  33.7725 18.5004 91.8523
v  49.2381 27.8508 89.3469
v  33.7725 27.8508 89.3469
v  49.2381 34.6958 82.5019
v  33.7725 34.6958 82.5019
v  49.4149 28.4904 -57.3293
v  49.4149 35.8036 -64.6425
v  49.4149 37.5340 -63.6435
v  49.4149 29.4894 -55.5990
v  49.4149 38.4805 -74.6326
v  49.4149 35.8036 -84.6226
v  49.4149 37.5340 -85.6216
v  49.4149 40.4785 -74.6326
v  -49.4149 38.4805 -74.6326
v  -49.4149 35.8037 -64.6425
v  -49.4149 37.5340 -63.6435
v  -49.4149 40.4785 -74.6326
v  49.4149 28.4904 -91.9358
v  49.4149 29.4894 -93.6661
v  -49.4149 18.5004 -94.6126
v  -49.4149 28.4905 -91.9358
v  -49.4149 29.4895 -93.6661
v  -49.4149 18.5004 -96.6106
v  49.4149 18.5004 -54.6525
v  49.4149 18.5004 -52.6545
v  -49.4149 28.4904 -57.3293
v  -49.4149 29.4894 -55.5990
v  -49.4149 37.5340 -85.6216
v  49.4149 18.5004 -96.6106
v  -49.4149 18.5004 -52.6545
v  49.4149 18.5004 -94.6126
v  -49.4149 18.5004 -54.6525
v  -49.4149 35.8037 -84.6226
v  49.4149 28.4904 90.5976
v  49.4149 35.8036 83.2844
v  49.4149 37.5339 84.2834
v  49.4149 29.4894 92.3279
v  49.4149 38.4804 73.2944
v  49.4149 35.8036 63.3044
v  49.4149 37.5339 62.3053
v  49.4149 40.4784 73.2944
v  -49.4149 38.4805 73.2944
v  -49.4149 35.8036 83.2844
v  -49.4149 37.5340 84.2834
v  -49.4149 40.4785 73.2944
v  49.4149 28.4904 55.9912
v  49.4149 29.4894 54.2608
v  -49.4149 18.5004 53.3143
v  -49.4149 28.4904 55.9912
v  -49.4149 29.4894 54.2608
v  -49.4149 18.5004 51.3163
v  49.4149 18.5004 93.2744
v  49.4149 18.5004 95.2724
v  -49.4149 28.4904 90.5976
v  -49.4149 29.4894 92.3279
v  -49.4149 37.5340 62.3053
v  49.4149 18.5004 51.3163
v  -49.4149 18.5004 95.2724
v  49.4149 18.5004 53.3143
v  -49.4149 18.5004 93.2744
v  -49.4149 35.8036 63.3043
v  53.7343 61.1114 44.7269
v  48.2288 58.6281 46.2021
v  48.6960 57.5180 46.0770
v  54.2015 60.0013 44.6017
v  47.9154 58.6281 45.0325
v  48.3826 57.5180 44.9073
v  53.4209 61.1114 43.5573
v  53.8881 60.0013 43.4321
v  59.8512 62.8645 43.1769
v  51.8184 62.8645 45.3293
v  51.8184 58.1475 45.3293
v  59.8512 59.0698 43.1769
v  50.7494 63.5943 44.2104
v  50.7494 57.4176 44.2104
v  60.2176 63.5943 41.6734
v  60.2176 58.3399 41.6734
v  -51.7890 62.8645 45.4212
v  -59.8218 62.8645 43.2688
v  -59.8218 58.9388 43.2688
v  -51.7890 58.1492 45.4212
v  -60.1882 63.5943 41.7653
v  -60.1882 58.2090 41.7653
v  -50.7199 63.5943 44.3023
v  -50.7199 57.4194 44.3023
v  -53.7345 61.1114 43.5573
v  -48.2290 58.6281 45.0325
v  -48.6961 57.5180 44.9073
v  -54.2017 60.0013 43.4322
v  -48.5424 58.6281 46.2021
v  -49.0095 57.5180 46.0770
v  -54.0479 61.1114 44.7269
v  -54.5151 60.0013 44.6018
v  16.8491 41.0338 124.9502
v  14.6470 41.0338 124.9502
v  14.6470 18.3344 124.9502
v  16.8491 18.3344 124.9502
v  14.6470 41.0339 119.3624
v  14.6470 18.3344 119.3624
v  16.8491 41.0339 119.3624
v  16.8491 18.3344 119.3624
v  16.8491 44.3552 119.3624
v  16.8491 44.3552 122.1065
v  14.6470 44.3552 119.3624
v  14.6470 44.3552 122.1065
v  -14.6470 41.0339 124.9502
v  -16.8491 41.0339 124.9502
v  -16.8491 18.3344 124.9502
v  -14.6470 18.3344 124.9502
v  -16.8491 41.0339 119.3624
v  -16.8491 18.3344 119.3624
v  -14.6470 41.0339 119.3624
v  -14.6470 18.3344 119.3624
v  -14.6470 44.3552 119.3624
v  -14.6470 44.3552 122.1065
v  -16.8491 44.3552 119.3624
v  -16.8491 44.3552 122.1065
v  15.3492 21.1606 122.4723
v  -15.3492 21.1606 122.4723
v  -15.3492 19.3285 122.4723
v  15.3492 19.3285 122.4723
v  -15.3492 21.1606 120.6402
v  -15.3492 19.3285 120.6402
v  15.3492 21.1606 120.6402
v  15.3492 19.3285 120.6402
v  15.3492 38.1522 122.4723
v  -15.3492 38.1522 122.4723
v  -15.3492 36.3201 122.4723
v  15.3492 36.3201 122.4723
v  -15.3492 38.1522 120.6402
v  -15.3492 36.3201 120.6402
v  15.3492 38.1522 120.6402
v  15.3492 36.3201 120.6402
v  -13.4729 88.6011 12.7285
v  13.4729 88.6011 12.7285
v  11.8143 88.6038 12.5584
v  -11.8144 88.6038 12.5584
v  -13.4729 98.5488 10.5975
v  -13.4729 98.5488 7.8252
v  -13.4729 88.6011 5.6930
v  13.4729 88.6011 5.6930
v  -11.8176 88.6124 5.8677
v  11.8176 88.6124 5.8677
v  13.4729 98.5488 7.8252
v  13.4729 98.5488 10.5975
v  11.8143 96.9059 10.9405
v  -11.8144 96.9059 10.9405
v  -11.8176 96.8974 7.4837
v  11.8176 96.8974 7.4837
v  -49.2126 51.5713 -85.2788
v  -49.2126 51.5713 -123.7618
v  -49.2126 22.3774 -126.0261
v  -49.2126 18.5004 -102.1275
v  -49.2126 18.4932 -94.7336
v  -49.2126 28.5325 -92.0436
v  -49.2126 35.8819 -84.6942
v  -49.2126 38.5719 -74.6549
v  -49.2126 51.5713 98.9749
v  -49.2126 35.8924 63.2762
v  -49.2126 28.5325 -57.2662
v  -49.2126 18.4932 -54.5761
v  -49.2126 18.5037 53.2368
v  -49.2126 35.8819 -64.6155
v  -49.2126 28.5430 55.9269
v  -49.2126 38.5824 73.3156
v  -49.2126 35.8924 83.3550
v  -49.2126 28.5430 90.7043
v  -49.2126 18.5037 93.3943
v  -49.2126 18.5004 98.9749
v  -49.2126 89.3666 -57.7178
v  -49.2126 60.6155 -66.2515
v  -49.2126 87.8497 -51.8546
v  -49.2126 89.3666 22.6393
v  -49.2126 87.8497 -22.2649
v  -49.2126 87.8497 -16.1908
v  -49.2126 87.8497 21.5073
v  -49.2126 59.8390 48.5814
v  -49.2126 60.6154 45.4161
v  -49.2126 60.6155 -16.1908
v  -49.2126 60.6155 -22.2649
v  -49.2126 59.8390 -84.7470
v  -49.2126 58.5069 -123.7618
v  -49.2126 53.7321 119.4475
v  -49.2126 51.5713 119.4475
v  49.2126 51.5713 -123.7618
v  49.2126 22.3774 -126.0261
v  49.2126 18.5004 -102.1275
v  -49.2126 22.3773 119.4475
v  49.2126 18.4932 -94.7336
v  29.0345 18.4932 -94.7336
v  29.0345 18.4932 -54.5761
v  49.2126 18.4932 -54.5761
v  49.2126 18.5037 53.2368
v  29.0345 18.5037 53.2368
v  29.0345 18.5037 93.3943
v  49.2126 18.5037 93.3943
v  49.2126 18.5004 98.9750
v  -29.0347 18.5037 93.3943
v  -29.0347 18.5037 53.2368
v  -29.0347 18.4932 -54.5761
v  -29.0347 18.4932 -94.7336
v  -29.0347 28.5325 -92.0436
v  -29.0347 35.8819 -84.6942
v  -29.0347 38.5719 -74.6549
v  -29.0347 35.8819 -64.6155
v  -29.0347 28.5325 -57.2662
v  -29.0347 28.5430 55.9269
v  -29.0347 35.8924 63.2762
v  -29.0347 38.5824 73.3156
v  -29.0347 35.8924 83.3550
v  -29.0347 28.5430 90.7043
v  49.2126 59.8390 -84.7470
v  49.2126 58.5069 -123.7618
v  49.2126 51.5713 119.4476
v  49.2126 53.7321 119.4476
v  49.2126 59.8390 48.5814
v  49.2126 89.3666 22.6393
v  -46.7357 87.8828 23.9428
v  46.7356 87.8828 23.9428
v  46.7356 60.4993 48.0013
v  -46.7357 60.4993 48.0013
v  49.2126 89.3666 -57.7178
v  -46.7357 87.8848 -59.0741
v  -46.7357 60.4993 -84.1425
v  46.7356 60.4993 -84.1425
v  46.7356 87.8848 -59.0741
v  49.2126 51.5713 -85.2788
v  49.2126 22.3773 119.4476
v  49.2126 51.5713 98.9749
v  49.2126 28.5430 90.7043
v  49.2126 35.8923 83.3550
v  49.2126 38.5824 73.3156
v  49.2126 35.8819 -64.6155
v  49.2126 28.5430 55.9269
v  49.2126 35.8924 63.2762
v  49.2126 28.5325 -57.2661
v  49.2126 38.5719 -74.6549
v  49.2126 35.8819 -84.6942
v  49.2126 28.5325 -92.0436
v  29.0345 28.5325 -92.0436
v  29.0345 35.8819 -84.6942
v  29.0345 38.5719 -74.6549
v  29.0345 35.8819 -64.6155
v  29.0345 28.5325 -57.2662
v  29.0345 28.5430 55.9269
v  29.0345 35.8924 63.2762
v  29.0345 38.5824 73.3156
v  29.0345 35.8923 83.3550
v  29.0345 28.5430 90.7043
v  49.2126 60.6154 -16.1908
v  49.2126 60.6154 -22.2649
v  49.2126 87.8497 -51.8546
v  49.2126 60.6154 -66.2515
v  49.2126 87.8497 -22.2649
v  49.2126 87.8497 -16.1908
v  49.2126 60.6154 45.4161
v  49.2126 87.8497 21.5073
v  46.7356 60.4993 -83.3774
v  46.7356 87.9289 -58.4407
v  -46.7357 87.9289 -58.4407
v  -46.7357 60.4993 -83.3774
v  -46.7357 60.4993 47.3525
v  -46.7357 87.9288 23.2927
v  46.7356 87.9289 23.2927
v  46.7356 60.4993 47.3525
v  -48.7972 60.6155 -66.2515
v  -48.7972 87.8497 -51.8546
v  -48.7972 87.8497 -22.2649
v  -48.7972 60.6155 -22.2649
v  -48.7972 87.8497 21.5073
v  -48.7972 60.6154 45.4161
v  -48.7972 60.6155 -16.1908
v  -48.7972 87.8497 -16.1908
v  48.7860 87.8497 -51.8546
v  48.7860 60.6154 -66.2515
v  48.7859 60.6154 -22.2649
v  48.7859 87.8497 -22.2649
v  48.7860 60.6154 45.4161
v  48.7860 87.8497 21.5073
v  48.7859 87.8497 -16.1908
v  48.7859 60.6154 -16.1908
v  49.6728 52.8541 -2.9749
v  46.2356 52.8541 -2.9749
v  46.2356 51.0191 -2.9749
v  49.6728 51.0191 -2.9749
v  46.2356 52.8541 -11.7516
v  46.2356 51.0191 -11.7516
v  49.6728 52.8541 -11.7516
v  49.6728 51.0191 -11.7516
v  -46.2357 52.8541 -2.9749
v  -49.6730 52.8541 -2.9749
v  -49.6730 51.0191 -2.9749
v  -46.2357 51.0191 -2.9749
v  -49.6730 52.8541 -11.7516
v  -49.6730 51.0191 -11.7516
v  -46.2357 52.8541 -11.7516
v  -46.2357 51.0191 -11.7516
v  -46.2357 52.8541 -53.5381
v  -49.6730 52.8541 -53.5381
v  -49.6730 51.0191 -53.5381
v  -46.2357 51.0191 -53.5381
v  -49.6730 52.8541 -62.3149
v  -49.6730 51.0191 -62.3149
v  -46.2357 52.8541 -62.3149
v  -46.2357 51.0191 -62.3149
v  49.6728 52.8541 -53.5381
v  46.2356 52.8541 -53.5381
v  46.2356 51.0191 -53.5381
v  49.6728 51.0191 -53.5381
v  46.2356 52.8541 -62.3148
v  46.2356 51.0191 -62.3148
v  49.6728 52.8541 -62.3148
v  49.6728 51.0191 -62.3148
v  51.9799 31.8885 122.4181
v  -51.9799 31.8885 122.4181
v  -51.9799 29.6125 122.4181
v  51.9799 29.6125 122.4181
v  -51.9799 31.8885 110.3928
v  -51.9799 29.6125 110.3928
v  51.9799 31.8885 110.3928
v  51.9799 29.6125 110.3928
v  51.4538 29.7924 -116.7939
v  -51.4539 29.7924 -116.7939
v  -51.4539 21.9493 -116.7939
v  51.4538 21.9493 -116.7939
v  -51.4539 29.7924 -128.2478
v  -51.4539 21.9493 -128.2478
v  51.4538 29.7924 -128.2478
v  51.4538 21.9493 -128.2478
v  51.4538 29.7924 121.8367
v  -51.4539 29.7924 121.8367
v  -51.4539 21.9492 121.8367
v  51.4538 21.9492 121.8367
v  -51.4539 29.7924 110.3828
v  -51.4539 21.9492 110.3828
v  51.4538 29.7924 110.3828
v  51.4538 21.9492 110.3828
v  50.0162 21.2931 50.9108
v  45.7366 21.2931 50.9108
v  45.7366 17.0135 50.9108
v  50.0162 17.0135 50.9108
v  45.7366 21.2931 -52.5092
v  45.7366 17.0135 -52.5092
v  50.0162 21.2931 -52.5092
v  50.0162 17.0135 -52.5092
v  -45.7366 21.2931 50.9108
v  -50.0162 21.2931 50.9108
v  -50.0162 17.0135 50.9108
v  -45.7366 17.0135 50.9108
v  -50.0162 21.2931 -52.5092
v  -50.0162 17.0135 -52.5092
v  -45.7366 21.2931 -52.5092
v  -45.7366 17.0135 -52.5092
# 444 vertices

vn 0.0000 0.9659 -0.2588
vn 0.0000 0.7071 -0.7071
vn 0.0000 0.2588 -0.9659
vn -0.0000 -0.2588 -0.9659
vn -0.0000 -0.7071 -0.7071
vn -0.0000 -0.9659 -0.2588
vn -0.0000 -0.9659 0.2588
vn -0.0000 -0.7071 0.7071
vn -0.0000 -0.2588 0.9659
vn 0.0000 0.2588 0.9659
vn 1.0000 0.0000 -0.0000
vn 1.0000 0.0000 0.0000
vn 0.0000 0.9659 0.2588
vn 0.0000 0.7071 0.7071
vn -1.0000 -0.0000 0.0000
vn -1.0000 -0.0000 -0.0000
vn 0.0000 -0.7071 -0.7071
vn 1.0000 -0.0000 0.0000
vn -0.0000 0.2588 0.9659
vn -0.0000 0.7071 0.7071
vn 1.0000 -0.0000 -0.0000
vn -1.0000 0.0000 -0.0000
vn -1.0000 0.0000 0.0000
vn -0.0000 0.2588 -0.9659
vn -0.0000 -1.0000 -0.0000
vn 0.0000 -0.2588 -0.9659
vn 0.2588 -0.0000 0.9659
vn -0.8855 -0.3994 0.2373
vn -0.2588 0.0000 -0.9659
vn 0.8855 0.3994 -0.2373
vn 0.3858 -0.9168 -0.1034
vn -0.3858 0.9168 0.1034
vn -0.7230 -0.0000 0.6908
vn 0.9716 -0.0000 0.2367
vn 0.2083 -0.8773 0.4325
vn 0.1226 0.8808 0.4574
vn -0.2588 -0.0000 0.9659
vn -0.9716 -0.0000 0.2367
vn 0.2588 0.0000 -0.9659
vn 0.7230 -0.0000 0.6908
vn -0.1961 -0.8782 0.4363
vn -0.1226 0.8808 0.4574
vn 0.2588 -0.0000 -0.9659
vn 0.8855 -0.3994 0.2373
vn -0.8855 0.3994 -0.2373
vn -0.3858 -0.9168 -0.1034
vn 0.3858 0.9168 0.1034
vn 0.0000 -0.0000 1.0000
vn -0.0000 -0.0000 -1.0000
vn 0.0000 -1.0000 -0.0000
vn 0.0000 1.0000 0.0000
vn 0.0000 0.6504 0.7596
vn -0.0000 0.0000 1.0000
vn 0.0000 0.0000 -1.0000
vn 0.0000 -1.0000 0.0000
vn -0.0000 1.0000 -0.0000
vn 0.0000 0.9999 0.0159
vn -0.0000 0.9979 -0.0644
vn 0.0000 0.1913 0.9815
vn 0.0484 0.2010 0.9784
vn 0.0000 0.2043 0.9789
vn -0.0484 0.2010 0.9784
vn -0.0000 0.1914 -0.9815
vn -0.0503 0.2011 -0.9783
vn -0.0000 0.2025 -0.9793
vn 0.0503 0.2011 -0.9783
vn 0.0000 0.0773 -0.9970
vn 0.0000 -0.9871 -0.1601
vn 0.0000 -1.0000 -0.0010
vn 0.0000 -1.0000 0.0001
vn 0.0000 -1.0000 -0.0006
vn -0.0002 -1.0000 -0.0000
vn 0.0000 -0.2588 0.9659
vn 0.0000 -0.7071 0.7071
vn 0.0000 -0.9659 0.2588
vn 0.0000 -0.9659 -0.2588
vn 0.0000 0.9994 -0.0341
vn -0.0000 -0.0000 1.0000
vn -0.0000 0.9963 0.0859
vn 0.0000 0.6600 0.7512
vn -0.0000 0.6600 0.7512
vn -0.0000 0.6752 -0.7376
vn 0.0000 0.6752 -0.7376
vn -0.0000 -0.9825 0.1861
vn 1.0000 0.0001 -0.0001
vn -0.0000 -0.9976 0.0693
vn 0.0000 0.6727 -0.7399
vn 0.0000 -0.9975 -0.0706
vn 0.0000 0.6594 0.7518
vn 0.0000 -0.4673 0.8841
vn 0.0000 -0.0000 -1.0000
vn 0.0000 -0.6597 -0.7515
vn 0.0000 0.0000 1.0000
vn -0.0000 1.0000 0.0000
vn -0.0000 -1.0000 0.0000
vn 0.0000 1.0000 -0.0000
# 96 vertex normals

vt 0.1409 0.2053 0.0000
vt 0.1828 0.1940 0.0000
vt 0.2135 0.1634 0.0000
vt 0.2247 0.1215 0.0000
vt 0.2135 0.0796 0.0000
vt 0.1828 0.0489 0.0000
vt 0.1409 0.0377 0.0000
vt 0.0991 0.0489 0.0000
vt 0.0684 0.0796 0.0000
vt 0.0572 0.1215 0.0000
vt 0.0684 0.1634 0.0000
vt 0.0991 0.1940 0.0000
vt 0.7147 0.1016 0.0000
vt 0.7647 0.1016 0.0000
vt 0.7647 0.1516 0.0000
vt 0.7147 0.1516 0.0000
vt 0.7325 0.1622 0.0000
vt 0.7300 0.1581 0.0000
vt 0.7302 0.1562 0.0000
vt 0.7327 0.1604 0.0000
vt 0.7320 0.1581 0.0000
vt 0.7322 0.1562 0.0000
vt 0.7344 0.1622 0.0000
vt 0.7347 0.1604 0.0000
vt 0.7351 0.1652 0.0000
vt 0.7315 0.1652 0.0000
vt 0.7315 0.1573 0.0000
vt 0.7351 0.1588 0.0000
vt 0.7333 0.1664 0.0000
vt 0.7333 0.1560 0.0000
vt 0.7376 0.1664 0.0000
vt 0.7376 0.1576 0.0000
vt 0.7313 0.1652 0.0000
vt 0.7349 0.1652 0.0000
vt 0.7349 0.1586 0.0000
vt 0.7313 0.1573 0.0000
vt 0.7374 0.1664 0.0000
vt 0.7374 0.1574 0.0000
vt 0.7332 0.1664 0.0000
vt 0.7332 0.1560 0.0000
vt 0.7630 0.1419 0.0000
vt 0.7633 0.1419 0.0000
vt 0.7633 0.1383 0.0000
vt 0.7630 0.1383 0.0000
vt 0.7630 0.1424 0.0000
vt 0.7633 0.1424 0.0000
vt 0.7680 0.1419 0.0000
vt 0.7683 0.1419 0.0000
vt 0.7683 0.1383 0.0000
vt 0.7680 0.1383 0.0000
vt 0.7680 0.1424 0.0000
vt 0.7683 0.1424 0.0000
vt 0.7632 0.1388 0.0000
vt 0.7681 0.1388 0.0000
vt 0.7681 0.1385 0.0000
vt 0.7632 0.1385 0.0000
vt 0.7632 0.1415 0.0000
vt 0.7681 0.1415 0.0000
vt 0.7681 0.1412 0.0000
vt 0.7632 0.1412 0.0000
vt 0.3235 0.1094 0.0000
vt 0.3457 0.0982 0.0000
vt 0.3446 0.0989 0.0000
vt 0.3251 0.1088 0.0000
vt 0.3265 0.1254 0.0000
vt 0.3304 0.1261 0.0000
vt 0.3334 0.1111 0.0000
vt 0.3556 0.0999 0.0000
vt 0.3345 0.1104 0.0000
vt 0.3540 0.1006 0.0000
vt 0.3526 0.1149 0.0000
vt 0.3487 0.1142 0.0000
vt 0.4155 0.3690 0.0000
vt 0.2852 0.3690 0.0000
vt 0.2852 0.3232 0.0000
vt 0.4155 0.3232 0.0000
vt 0.3274 0.1221 0.0000
vt 0.3468 0.1122 0.0000
vt 0.4155 0.3689 0.0000
vt 0.2852 0.3689 0.0000
vt 0.3517 0.1131 0.0000
vt 0.3323 0.1229 0.0000
vt 0.1234 0.4941 0.0000
vt 0.0211 0.4941 0.0000
vt 0.0150 0.4164 0.0000
vt 0.0786 0.4061 0.0000
vt 0.0983 0.4061 0.0000
vt 0.1054 0.4328 0.0000
vt 0.1250 0.4523 0.0000
vt 0.1517 0.4595 0.0000
vt 0.6137 0.4941 0.0000
vt 0.5187 0.4524 0.0000
vt 0.1980 0.4328 0.0000
vt 0.2051 0.4061 0.0000
vt 0.4920 0.4061 0.0000
vt 0.1784 0.4523 0.0000
vt 0.4991 0.4328 0.0000
vt 0.5454 0.4595 0.0000
vt 0.5721 0.4524 0.0000
vt 0.5917 0.4328 0.0000
vt 0.5988 0.4061 0.0000
vt 0.6137 0.4061 0.0000
vt 0.1968 0.5946 0.0000
vt 0.1741 0.5181 0.0000
vt 0.2124 0.5906 0.0000
vt 0.4106 0.5946 0.0000
vt 0.2911 0.5906 0.0000
vt 0.3072 0.5906 0.0000
vt 0.4075 0.5906 0.0000
vt 0.4796 0.5161 0.0000
vt 0.4712 0.5181 0.0000
vt 0.3072 0.5181 0.0000
vt 0.2911 0.5181 0.0000
vt 0.1249 0.5161 0.0000
vt 0.0211 0.5125 0.0000
vt 0.6681 0.4998 0.0000
vt 0.6681 0.4941 0.0000
vt 0.9334 0.9523 0.0000
vt 0.4856 0.9523 0.0000
vt 0.4856 0.8195 0.0000
vt 0.9334 0.8195 0.0000
vt 0.7104 0.0454 0.0000
vt 0.7604 0.0454 0.0000
vt 0.7604 0.0954 0.0000
vt 0.7104 0.0954 0.0000
vt 0.6681 0.4164 0.0000
vt 0.7405 0.1754 0.0000
vt 0.7482 0.1741 0.0000
vt 0.7552 0.1706 0.0000
vt 0.7607 0.1651 0.0000
vt 0.7643 0.1581 0.0000
vt 0.7655 0.1504 0.0000
vt 0.7643 0.1426 0.0000
vt 0.7607 0.1357 0.0000
vt 0.7552 0.1301 0.0000
vt 0.7482 0.1266 0.0000
vt 0.7405 0.1254 0.0000
vt 0.7203 0.1357 0.0000
vt 0.7328 0.1266 0.0000
vt 0.7258 0.1301 0.0000
vt 0.7167 0.1426 0.0000
vt 0.7155 0.1504 0.0000
vt 0.7167 0.1581 0.0000
vt 0.7203 0.1651 0.0000
vt 0.7258 0.1706 0.0000
vt 0.7328 0.1741 0.0000
vt 0.9684 0.6947 0.0000
vt 0.9684 0.7982 0.0000
vt 0.7074 0.7982 0.0000
vt 0.7074 0.6947 0.0000
vt 0.4856 0.9838 0.0000
vt 0.9334 0.9838 0.0000
vt 0.0160 0.9855 0.0000
vt 0.0160 0.9759 0.0000
vt 0.4548 0.9759 0.0000
vt 0.4548 0.9855 0.0000
vt 0.7074 0.4498 0.0000
vt 0.7074 0.2619 0.0000
vt 0.9684 0.2619 0.0000
vt 0.9684 0.4498 0.0000
vt 0.5823 0.2991 0.0000
vt 0.5607 0.2866 0.0000
vt 0.5390 0.2991 0.0000
vt 0.5390 0.3241 0.0000
vt 0.5823 0.3241 0.0000
vt 0.5607 0.3366 0.0000
vt 0.7072 0.6772 0.0000
vt 0.7072 0.4641 0.0000
vt 0.9682 0.4641 0.0000
vt 0.9682 0.6772 0.0000
vt 0.6624 0.6970 0.0000
vt 0.5600 0.6970 0.0000
vt 0.6048 0.6090 0.0000
vt 0.6684 0.6193 0.0000
vt 0.0160 0.8458 0.0000
vt 0.4548 0.8458 0.0000
vt 0.0698 0.6970 0.0000
vt 0.0698 0.6090 0.0000
vt 0.0846 0.6090 0.0000
vt 0.0918 0.6357 0.0000
vt 0.1114 0.6553 0.0000
vt 0.1381 0.6624 0.0000
vt 0.5050 0.6553 0.0000
vt 0.1843 0.6357 0.0000
vt 0.1915 0.6090 0.0000
vt 0.4783 0.6090 0.0000
vt 0.1648 0.6553 0.0000
vt 0.4855 0.6357 0.0000
vt 0.5318 0.6624 0.0000
vt 0.5585 0.6553 0.0000
vt 0.5780 0.6357 0.0000
vt 0.5852 0.6090 0.0000
vt 0.7155 0.1254 0.0000
vt 0.7655 0.1254 0.0000
vt 0.7655 0.1754 0.0000
vt 0.7155 0.1754 0.0000
vt 0.7600 0.1660 0.0000
vt 0.7649 0.1448 0.0000
vt 0.7513 0.1278 0.0000
vt 0.7296 0.1278 0.0000
vt 0.7161 0.1448 0.0000
vt 0.7209 0.1660 0.0000
vt 0.7354 0.0954 0.0000
vt 0.7549 0.0860 0.0000
vt 0.7598 0.0649 0.0000
vt 0.7462 0.0479 0.0000
vt 0.7245 0.0479 0.0000
vt 0.7110 0.0649 0.0000
vt 0.7158 0.0860 0.0000
vt 0.2039 0.7190 0.0000
vt 0.0153 0.7027 0.0000
vt 0.0153 0.6970 0.0000
vt 0.3762 0.7211 0.0000
vt 0.6624 0.7154 0.0000
vt 0.5586 0.7190 0.0000
vt 0.3924 0.7211 0.0000
vt 0.4867 0.7976 0.0000
vt 0.4711 0.7935 0.0000
vt 0.5094 0.7211 0.0000
vt 0.3924 0.7935 0.0000
vt 0.3762 0.7935 0.0000
vt 0.2123 0.7211 0.0000
vt 0.2759 0.7935 0.0000
vt 0.2729 0.7976 0.0000
vt 0.0153 0.6193 0.0000
vt 0.5357 0.2866 0.0000
vt 0.5857 0.2866 0.0000
vt 0.5857 0.3366 0.0000
vt 0.5357 0.3366 0.0000
vt 0.8705 0.1130 0.0000
vt 0.9205 0.1130 0.0000
vt 0.9205 0.1630 0.0000
vt 0.8705 0.1630 0.0000
vt 0.7265 0.1382 0.0000
vt 0.7265 0.1377 0.0000
vt 0.7286 0.1382 0.0000
vt 0.7286 0.1377 0.0000
vt 0.7386 0.1382 0.0000
vt 0.7386 0.1377 0.0000
vt 0.7407 0.1382 0.0000
vt 0.7407 0.1377 0.0000
vt 0.7574 0.1405 0.0000
vt 0.7739 0.1405 0.0000
vt 0.7739 0.1401 0.0000
vt 0.7574 0.1401 0.0000
vt 0.7738 0.1401 0.0000
vt 0.7738 0.1389 0.0000
vt 0.7574 0.1389 0.0000
vt 0.7577 0.1388 0.0000
vt 0.7584 0.1388 0.0000
vt 0.7584 0.1381 0.0000
vt 0.7577 0.1381 0.0000
vt 0.7729 0.1388 0.0000
vt 0.7736 0.1388 0.0000
vt 0.7736 0.1381 0.0000
vt 0.7729 0.1381 0.0000
# 256 texture coords

g SPW_Vehicle_Land_Static_Taxi
usemtl SPW_Vehicle_Land_Taxi
s off
f 1/1/1 2/1/1 3/2/1 4/2/1 
f 4/2/2 3/2/2 5/3/2 6/3/2 
f 6/3/3 5/3/3 7/4/3 8/4/3 
f 8/4/4 7/4/4 9/5/4 10/5/4 
f 10/5/5 9/5/5 11/6/5 12/6/5 
f 12/6/6 11/6/6 13/7/6 14/7/6 
f 14/7/7 13/7/7 15/8/7 16/8/7 
f 16/8/8 15/8/8 17/9/8 18/9/8 
f 18/9/9 17/9/9 19/10/9 20/10/9 
f 20/10/10 19/10/10 21/11/10 22/11/10 
f 3/2/11 2/1/11 23/12/11 21/11/11 
f 3/2/11 21/11/11 19/10/11 17/9/11 
f 3/2/11 17/9/11 15/8/11 13/7/11 
f 3/2/11 13/7/11 11/6/11 9/5/11 
f 3/2/12 9/5/12 7/4/12 5/3/12 
f 24/12/13 23/12/13 2/1/13 1/1/13 
f 22/11/14 21/11/14 23/12/14 24/12/14 
f 1/1/15 4/2/15 6/3/15 8/4/15 
f 1/1/16 8/4/16 10/5/16 12/6/16 
f 1/1/15 12/6/15 14/7/15 16/8/15 
f 1/1/15 16/8/15 18/9/15 20/10/15 
f 1/1/16 20/10/16 22/11/16 24/12/16 
f 25/1/1 26/1/1 27/2/1 28/2/1 
f 28/2/2 27/2/2 29/3/2 30/3/2 
f 30/3/3 29/3/3 31/4/3 32/4/3 
f 32/4/4 31/4/4 33/5/4 34/5/4 
f 34/5/17 33/5/17 35/6/17 36/6/17 
f 36/6/6 35/6/6 37/7/6 38/7/6 
f 38/7/7 37/7/7 39/8/7 40/8/7 
f 40/8/8 39/8/8 41/9/8 42/9/8 
f 42/9/9 41/9/9 43/10/9 44/10/9 
f 44/10/10 43/10/10 45/11/10 46/11/10 
f 27/2/11 26/1/11 47/12/11 45/11/11 
f 27/2/11 45/11/11 43/10/11 41/9/11 
f 27/2/11 41/9/11 39/8/11 37/7/11 
f 27/2/11 37/7/11 35/6/11 33/5/11 
f 27/2/18 33/5/18 31/4/18 29/3/18 
f 48/12/13 47/12/13 26/1/13 25/1/13 
f 46/11/14 45/11/14 47/12/14 48/12/14 
f 25/1/15 28/2/15 30/3/15 32/4/15 
f 25/1/16 32/4/16 34/5/16 36/6/16 
f 25/1/16 36/6/16 38/7/16 40/8/16 
f 25/1/15 40/8/15 42/9/15 44/10/15 
f 25/1/15 44/10/15 46/11/15 48/12/15 
f 49/1/1 50/1/1 51/2/1 52/2/1 
f 52/2/2 51/2/2 53/3/2 54/3/2 
f 54/3/3 53/3/3 55/4/3 56/4/3 
f 56/4/4 55/4/4 57/5/4 58/5/4 
f 58/5/5 57/5/5 59/6/5 60/6/5 
f 60/6/6 59/6/6 61/7/6 62/7/6 
f 62/7/7 61/7/7 63/8/7 64/8/7 
f 64/8/8 63/8/8 65/9/8 66/9/8 
f 66/9/9 65/9/9 67/10/9 68/10/9 
f 68/10/19 67/10/19 69/11/19 70/11/19 
f 51/2/12 50/1/12 71/12/12 69/11/12 
f 51/2/11 69/11/11 67/10/11 65/9/11 
f 51/2/11 65/9/11 63/8/11 61/7/11 
f 51/2/12 61/7/12 59/6/12 57/5/12 
f 51/2/18 57/5/18 55/4/18 53/3/18 
f 72/12/13 71/12/13 50/1/13 49/1/13 
f 70/11/20 69/11/20 71/12/20 72/12/20 
f 49/1/15 52/2/15 54/3/15 56/4/15 
f 49/1/15 56/4/15 58/5/15 60/6/15 
f 49/1/15 60/6/15 62/7/15 64/8/15 
f 49/1/15 64/8/15 66/9/15 68/10/15 
f 49/1/16 68/10/16 70/11/16 72/12/16 
f 73/1/1 74/1/1 75/2/1 76/2/1 
f 76/2/2 75/2/2 77/3/2 78/3/2 
f 78/3/3 77/3/3 79/4/3 80/4/3 
f 80/4/4 79/4/4 81/5/4 82/5/4 
f 82/5/5 81/5/5 83/6/5 84/6/5 
f 84/6/6 83/6/6 85/7/6 86/7/6 
f 86/7/7 85/7/7 87/8/7 88/8/7 
f 88/8/8 87/8/8 89/9/8 90/9/8 
f 90/9/9 89/9/9 91/10/9 92/10/9 
f 92/10/10 91/10/10 93/11/10 94/11/10 
f 75/2/12 74/1/12 95/12/12 93/11/12 
f 75/2/11 93/11/11 91/10/11 89/9/11 
f 75/2/11 89/9/11 87/8/11 85/7/11 
f 75/2/12 85/7/12 83/6/12 81/5/12 
f 75/2/18 81/5/18 79/4/18 77/3/18 
f 96/12/13 95/12/13 74/1/13 73/1/13 
f 94/11/14 93/11/14 95/12/14 96/12/14 
f 73/1/15 76/2/15 78/3/15 80/4/15 
f 73/1/15 80/4/15 82/5/15 84/6/15 
f 73/1/15 84/6/15 86/7/15 88/8/15 
f 73/1/15 88/8/15 90/9/15 92/10/15 
f 73/1/16 92/10/16 94/11/16 96/12/16 
s 1
f 97/13/18 98/14/18 99/15/18 100/16/18 
f 101/13/21 102/14/21 103/15/21 104/16/11 
f 105/13/15 106/14/22 107/15/22 108/16/23 
f 102/13/21 109/14/11 110/15/11 103/16/21 
f 111/13/22 112/14/22 113/15/22 114/16/22 
f 115/13/11 97/14/18 100/15/18 116/16/11 
f 106/13/22 117/14/22 118/15/22 107/16/22 
s off
f 108/13/1 104/14/1 103/15/1 119/16/1 
f 119/13/2 103/14/2 110/15/2 113/16/2 
f 113/13/24 110/14/24 120/15/24 114/16/24 
f 121/13/10 116/14/10 100/15/10 118/16/10 
f 107/13/13 99/14/13 104/15/13 108/16/13 
f 118/13/14 100/14/14 99/15/14 107/16/14 
s 1
f 109/13/11 122/14/11 120/15/11 110/16/11 
f 117/13/22 123/14/22 121/15/22 118/16/22 
f 112/13/22 124/14/23 119/15/23 113/16/22 
f 98/13/18 101/14/21 104/15/11 99/16/18 
f 124/13/23 105/14/15 108/15/23 119/16/23 
s off
f 115/13/25 116/14/25 121/15/25 123/16/25 
f 114/13/25 120/14/25 122/15/25 111/16/25 
f 112/13/9 111/14/9 122/15/9 109/16/9 
f 124/13/8 112/14/8 109/15/8 102/16/8 
f 105/13/7 124/14/7 102/15/7 101/16/7 
f 106/13/6 105/14/6 101/15/6 98/16/6 
f 117/13/5 106/14/5 98/15/5 97/16/5 
f 123/13/4 117/14/4 97/15/4 115/16/4 
s 1
f 125/13/18 126/14/11 127/15/11 128/16/18 
f 129/13/11 130/14/21 131/15/21 132/16/11 
f 133/13/22 134/14/22 135/15/22 136/16/22 
f 130/13/21 137/14/21 138/15/21 131/16/21 
f 139/13/22 140/14/23 141/15/23 142/16/22 
f 143/13/18 125/14/18 128/15/18 144/16/21 
f 134/13/22 145/14/22 146/15/22 135/16/22 
s off
f 136/13/1 132/14/1 131/15/1 147/16/1 
f 147/13/2 131/14/2 138/15/2 141/16/2 
f 141/13/3 138/14/3 148/15/3 142/16/3 
f 149/13/10 144/14/10 128/15/10 146/16/10 
f 135/13/13 127/14/13 132/15/13 136/16/13 
f 146/13/14 128/14/14 127/15/14 135/16/14 
s 1
f 137/13/21 150/14/11 148/15/11 138/16/21 
f 145/13/22 151/14/23 149/15/22 146/16/22 
f 140/13/23 152/14/23 147/15/23 141/16/23 
f 126/13/11 129/14/11 132/15/11 127/16/11 
f 152/13/23 133/14/22 136/15/22 147/16/23 
s off
f 143/13/25 144/14/25 149/15/25 151/16/25 
f 142/13/25 148/14/25 150/15/25 139/16/25 
f 140/13/9 139/14/9 150/15/9 137/16/9 
f 152/13/8 140/14/8 137/15/8 130/16/8 
f 133/13/7 152/14/7 130/15/7 129/16/7 
f 134/13/6 133/14/6 129/15/6 126/16/6 
f 145/13/5 134/14/5 126/15/5 125/16/5 
f 151/13/26 145/14/26 125/15/26 143/16/26 
f 153/17/27 154/18/27 155/19/27 156/20/27 
f 154/18/28 157/21/28 158/22/28 155/19/28 
f 157/21/29 159/23/29 160/24/29 158/22/29 
f 159/23/30 153/17/30 156/20/30 160/24/30 
f 156/20/31 155/19/31 158/22/31 160/24/31 
f 159/23/32 157/21/32 154/18/32 153/17/32 
f 161/25/27 162/26/27 163/27/27 164/28/27 
f 162/26/33 165/29/33 166/30/33 163/27/33 
f 165/29/29 167/31/29 168/32/29 166/30/29 
f 167/31/34 161/25/34 164/28/34 168/32/34 
f 164/28/35 163/27/35 166/30/35 168/32/35 
f 167/31/36 165/29/36 162/26/36 161/25/36 
f 169/33/37 170/34/37 171/35/37 172/36/37 
f 170/34/38 173/37/38 174/38/38 171/35/38 
f 173/37/39 175/39/39 176/40/39 174/38/39 
f 175/39/40 169/33/40 172/36/40 176/40/40 
f 172/36/41 171/35/41 174/38/41 176/40/41 
f 175/39/42 173/37/42 170/34/42 169/33/42 
f 177/23/43 178/21/43 179/22/43 180/24/43 
f 178/21/44 181/18/44 182/19/44 179/22/44 
f 181/18/37 183/17/37 184/20/37 182/19/37 
f 183/17/45 177/23/45 180/24/45 184/20/45 
f 180/24/46 179/22/46 182/19/46 184/20/46 
f 183/17/47 181/18/47 178/21/47 177/23/47 
f 185/41/48 186/42/48 187/43/48 188/44/48 
s 1
f 186/42/16 189/42/16 190/43/23 187/43/23 
s off
f 189/42/49 191/41/49 192/44/49 190/43/49 
s 1
f 191/41/12 185/41/12 188/44/21 192/44/21 
s off
f 188/44/50 187/43/50 190/43/50 192/44/50 
s 1
f 185/41/12 191/41/12 193/45/12 194/45/12 
s off
f 193/45/51 195/46/51 196/46/51 194/45/51 
f 191/41/49 189/42/49 195/46/49 193/45/49 
s 1
f 189/42/16 186/42/16 196/46/16 195/46/16 
s off
f 186/42/52 185/41/52 194/45/52 196/46/52 
f 197/47/53 198/48/53 199/49/53 200/50/53 
s 1
f 198/48/16 201/48/16 202/49/23 199/49/23 
s 2
f 201/48/54 203/47/54 204/50/54 202/49/54 
s 1
f 203/47/12 197/47/12 200/50/21 204/50/21 
s off
f 200/50/50 199/49/50 202/49/50 204/50/50 
s 1
f 197/47/12 203/47/12 205/51/12 206/51/12 
s off
f 205/51/51 207/52/51 208/52/51 206/51/51 
s 2
f 203/47/54 201/48/54 207/52/54 205/51/54 
s 1
f 201/48/16 198/48/16 208/52/16 207/52/16 
s off
f 198/48/52 197/47/52 206/51/52 208/52/52 
f 209/53/48 210/54/48 211/55/48 212/56/48 
f 210/54/22 213/54/22 214/55/22 211/55/22 
f 213/54/54 215/53/54 216/56/54 214/55/54 
f 215/53/11 209/53/11 212/56/11 216/56/11 
f 212/56/55 211/55/55 214/55/55 216/56/55 
f 215/53/56 213/54/56 210/54/56 209/53/56 
f 217/57/48 218/58/48 219/59/48 220/60/48 
f 218/58/22 221/58/22 222/59/22 219/59/22 
f 221/58/49 223/57/49 224/60/49 222/59/49 
f 223/57/11 217/57/11 220/60/11 224/60/11 
f 220/60/25 219/59/25 222/59/25 224/60/25 
f 223/57/56 221/58/56 218/58/56 217/57/56 
f 225/61/57 226/62/57 227/63/57 228/64/57 
f 229/65/23 230/66/23 231/67/23 225/61/23 
f 232/68/58 231/67/58 233/69/58 234/70/58 
f 235/71/21 236/72/21 226/62/21 232/68/21 
f 226/62/50 225/61/50 231/67/50 232/68/50 
f 235/71/51 230/66/51 229/65/51 236/72/51 
f 237/73/59 238/74/59 228/75/59 227/76/59 
f 229/65/60 225/61/60 228/64/60 238/77/60 
f 236/72/61 229/65/61 238/77/61 237/78/61 
f 226/62/62 236/72/62 237/78/62 227/63/62 
f 239/79/63 240/80/63 234/75/63 233/76/63 
f 235/71/64 232/68/64 234/70/64 240/81/64 
f 230/66/65 235/71/65 240/81/65 239/82/65 
f 231/67/66 230/66/66 239/82/66 233/69/66 
s 3
f 241/83/22 242/84/22 243/85/16 244/86/15 
s 1
f 244/86/15 245/87/22 246/88/15 241/83/22 
f 241/83/22 246/88/15 247/89/16 248/90/22 
f 249/91/22 241/83/22 248/90/22 250/92/22 
f 251/93/16 252/94/16 253/95/16 254/96/23 
f 248/90/22 254/96/23 253/95/16 255/97/16 
f 248/90/22 255/97/16 250/92/22 
f 249/91/22 250/92/22 256/98/22 257/99/22 
f 249/91/22 257/99/22 258/100/15 259/101/15 
f 249/91/22 259/101/15 260/102/15 
s off
f 261/103/22 262/104/22 263/105/22 264/106/22 
f 264/106/16 263/105/16 265/107/16 266/108/16 
f 264/106/16 266/108/16 267/109/16 268/110/16 
f 269/111/23 268/110/23 267/109/23 
s 2
f 270/112/22 266/108/23 265/107/23 271/113/22 
f 262/104/22 261/103/22 272/114/22 271/113/22 
f 272/114/22 273/115/22 242/84/22 241/83/22 
f 271/113/22 272/114/22 241/83/22 274/116/22 
f 249/91/22 275/117/23 274/116/22 241/83/22 
f 270/112/22 271/113/22 274/116/22 268/110/16 
f 269/111/16 270/112/22 268/110/16 
s off
f 242/118/67 276/119/67 277/120/67 243/121/67 
f 243/122/68 277/123/68 278/124/68 244/125/68 
s 3
f 275/117/23 249/91/22 260/102/15 279/126/15 
s off
f 244/127/69 278/128/69 280/129/69 281/130/69 
f 282/131/70 283/132/70 284/133/70 285/134/70 
f 286/135/71 287/136/71 288/137/71 289/138/71 
f 288/137/71 260/139/71 259/140/71 289/138/71 
f 285/134/70 286/135/70 289/138/70 282/131/70 
f 281/130/72 282/131/72 289/138/72 290/141/72 
f 290/141/70 253/142/70 252/143/70 291/144/70 
f 281/130/70 290/141/70 291/144/70 292/145/70 
f 244/127/69 281/130/69 292/145/69 245/146/69 
f 246/122/73 245/123/73 292/124/73 293/125/73 
f 247/122/74 246/123/74 293/124/74 294/125/74 
f 248/122/75 247/123/75 294/124/75 295/125/75 
f 254/122/76 248/123/76 295/124/76 296/125/76 
f 251/122/17 254/123/17 296/124/17 297/125/17 
f 291/122/26 252/123/26 251/124/26 297/125/26 
f 255/122/73 253/123/73 290/124/73 298/125/73 
f 250/122/74 255/123/74 298/124/74 299/125/74 
f 256/122/75 250/123/75 299/124/75 300/125/75 
f 257/122/76 256/123/76 300/124/76 301/125/76 
f 258/122/17 257/123/17 301/124/17 302/125/17 
f 289/122/26 259/123/26 258/124/26 302/125/26 
f 303/147/77 304/148/77 273/149/77 272/150/77 
f 304/151/54 276/119/54 242/118/54 273/152/54 
f 274/153/78 275/154/78 305/155/78 306/156/78 
f 268/157/79 274/158/79 306/159/79 307/160/79 
f 308/161/80 264/162/80 309/163/80 310/164/80 
f 307/165/81 308/161/81 310/164/81 311/166/81 
f 312/166/80 309/165/80 264/161/80 268/162/80 
f 312/166/80 268/162/80 307/163/80 311/164/80 
f 261/167/56 264/168/56 308/169/56 313/170/56 
f 272/161/82 261/162/82 314/163/82 315/164/82 
f 303/165/83 272/161/83 315/164/83 316/166/83 
f 317/165/83 314/161/83 261/162/83 313/163/83 
f 316/166/83 317/165/83 313/163/83 303/164/83 
s 1
f 276/171/18 318/172/18 278/173/11 277/174/12 
s off
f 305/155/78 275/154/78 279/175/78 319/176/78 
f 260/122/84 288/123/84 319/124/84 279/125/84 
s 1
f 320/177/18 288/178/11 287/179/12 321/180/12 
f 320/177/18 321/180/12 322/181/12 323/182/12 
f 318/172/18 320/177/18 323/182/12 324/183/21 
f 325/184/11 284/185/11 283/186/21 326/187/18 
f 323/182/12 326/187/18 283/186/21 327/188/21 
f 323/182/12 327/188/21 324/183/21 
f 318/172/18 324/183/21 328/189/11 329/190/12 
f 330/191/85 280/192/11 278/173/11 329/190/12 
f 318/172/18 329/190/12 278/173/11 
s off
f 331/193/73 281/194/73 280/195/73 330/196/73 
f 282/127/11 281/197/11 331/198/11 332/199/11 
f 282/127/21 332/199/21 333/200/21 334/201/21 
f 282/127/21 334/201/21 335/202/21 
f 327/193/26 283/194/26 282/195/26 335/196/26 
f 336/122/9 285/123/9 284/124/9 325/125/9 
f 286/203/11 285/204/11 336/205/11 337/206/11 
f 286/203/11 337/206/11 338/207/11 339/208/11 
f 286/203/11 339/208/11 340/209/11 
f 321/122/26 287/123/26 286/124/26 340/125/26 
f 290/203/22 289/204/22 302/205/22 301/206/22 
f 290/203/22 301/206/22 300/207/22 299/208/22 
f 290/203/22 299/208/22 298/209/22 
f 292/203/23 291/204/23 297/205/23 296/206/23 
f 292/203/23 296/206/23 295/207/23 294/208/23 
f 292/203/22 294/208/22 293/209/22 
s 1
f 307/210/12 306/211/12 305/212/12 341/213/12 
f 318/172/18 276/171/18 304/214/18 320/177/18 
f 320/177/18 304/214/18 303/215/12 342/216/18 
f 303/215/12 313/217/18 343/218/18 344/219/21 
f 303/215/12 344/219/21 342/216/18 
f 342/216/18 345/220/21 346/221/18 341/213/12 
f 320/177/18 342/216/18 341/213/12 305/212/12 
f 347/222/12 307/210/12 341/213/12 
s off
f 345/220/21 343/218/21 313/217/21 346/221/21 
f 348/223/12 346/221/12 313/217/12 308/224/12 
f 347/222/12 348/223/12 308/224/12 307/210/12 
s 1
f 320/177/18 305/212/12 319/225/11 288/178/11 
s off
f 322/122/17 321/123/17 340/124/17 339/125/17 
f 323/122/76 322/123/76 339/124/76 338/125/76 
f 326/122/75 323/123/75 338/124/75 337/125/75 
f 325/122/8 326/123/8 337/124/8 336/125/8 
f 324/193/17 327/194/17 335/195/17 334/196/17 
f 328/193/76 324/194/76 334/195/76 333/196/76 
f 329/193/75 328/194/75 333/195/75 332/196/75 
f 330/193/74 329/194/74 332/195/74 331/196/74 
f 317/226/15 316/227/15 349/228/15 350/229/15 
f 314/226/86 317/227/86 350/228/86 351/229/86 
f 350/230/87 349/231/87 352/232/87 351/233/87 
f 316/226/51 315/227/51 352/228/51 349/229/51 
f 315/226/11 314/227/11 351/228/11 352/229/11 
f 309/226/11 312/227/11 353/228/11 354/229/11 
f 310/226/88 309/227/88 354/228/88 355/229/88 
f 354/230/89 353/231/89 356/232/89 355/233/89 
f 312/226/51 311/227/51 356/228/51 353/229/51 
f 311/226/22 310/227/22 355/228/22 356/229/22 
f 263/226/90 262/227/90 357/228/90 358/229/90 
f 265/226/50 263/227/50 358/228/50 359/229/50 
f 358/230/16 357/231/16 360/232/16 359/233/16 
f 262/226/51 271/227/51 360/228/51 357/229/51 
f 271/226/91 265/227/91 359/228/91 360/229/91 
f 269/226/92 267/227/92 361/228/92 362/229/92 
f 270/226/51 269/227/51 362/228/51 363/229/51 
f 364/230/22 363/231/22 362/232/22 361/233/22 
f 267/226/50 266/227/50 364/228/50 361/229/50 
f 266/226/93 270/227/93 363/228/93 364/229/93 
f 344/226/90 343/227/90 365/228/90 366/229/90 
f 342/226/51 344/227/51 366/228/51 367/229/51 
f 368/230/12 367/231/12 366/232/12 365/233/12 
f 343/226/50 345/227/50 368/228/50 365/229/50 
f 345/226/54 342/227/54 367/228/54 368/229/54 
f 348/226/92 347/227/92 369/228/92 370/229/92 
f 346/226/50 348/227/50 370/228/50 371/229/50 
f 370/230/21 369/231/21 372/232/21 371/233/21 
f 347/226/51 341/227/51 372/228/51 369/229/51 
f 341/226/93 346/227/93 371/228/93 372/229/93 
f 373/234/78 374/234/78 375/235/78 376/235/78 
f 374/234/22 377/236/22 378/237/22 375/235/22 
f 377/236/54 379/236/54 380/237/54 378/237/54 
f 379/236/11 373/234/11 376/235/11 380/237/11 
f 376/235/50 375/235/50 378/237/50 380/237/50 
f 379/236/94 377/236/94 374/234/94 373/234/94 
f 381/234/78 382/234/78 383/235/78 384/235/78 
f 382/234/22 385/236/22 386/237/22 383/235/22 
f 385/236/54 387/236/54 388/237/54 386/237/54 
f 387/236/11 381/234/11 384/235/11 388/237/11 
f 384/235/50 383/235/50 386/237/50 388/237/50 
f 387/236/51 385/236/51 382/234/51 381/234/51 
f 389/238/48 390/238/48 391/239/48 392/239/48 
f 390/238/22 393/240/22 394/241/22 391/239/22 
f 393/240/54 395/240/54 396/241/54 394/241/54 
f 395/240/11 389/238/11 392/239/11 396/241/11 
f 392/239/50 391/239/50 394/241/50 396/241/50 
f 395/240/51 393/240/51 390/238/51 389/238/51 
f 397/238/78 398/238/78 399/239/78 400/239/78 
f 398/238/22 401/240/22 402/241/22 399/239/22 
f 401/240/54 403/240/54 404/241/54 402/241/54 
f 403/240/11 397/238/11 400/239/11 404/241/11 
f 400/239/50 399/239/50 402/241/50 404/241/50 
f 403/240/51 401/240/51 398/238/51 397/238/51 
f 405/242/78 406/243/78 407/244/78 408/245/78 
f 406/243/22 409/243/22 410/244/22 407/244/22 
f 409/243/91 411/242/91 412/245/91 410/244/91 
f 411/242/11 405/242/11 408/245/11 412/245/11 
f 408/245/50 407/244/50 410/244/50 412/245/50 
f 411/242/51 409/243/51 406/243/51 405/242/51 
f 413/245/78 414/246/78 415/247/78 416/248/78 
f 414/246/22 417/246/22 418/247/22 415/247/22 
f 417/246/54 419/245/54 420/248/54 418/247/54 
f 419/245/11 413/245/11 416/248/11 420/248/11 
f 416/248/50 415/247/50 418/247/50 420/248/50 
f 419/245/94 417/246/94 414/246/94 413/245/94 
f 421/245/53 422/246/53 423/247/53 424/248/53 
f 422/246/22 425/246/22 426/247/22 423/247/22 
f 425/246/54 427/245/54 428/248/54 426/247/54 
f 427/245/11 421/245/11 424/248/11 428/248/11 
f 424/248/95 423/247/95 426/247/95 428/248/95 
f 427/245/96 425/246/96 422/246/96 421/245/96 
f 429/249/48 430/250/48 431/251/48 432/252/48 
f 430/250/22 433/250/22 434/251/22 431/251/22 
f 433/250/54 435/249/54 436/252/54 434/251/54 
f 435/249/11 429/249/11 432/252/11 436/252/11 
f 432/252/50 431/251/50 434/251/50 436/252/50 
f 435/249/94 433/250/94 430/250/94 429/249/94 
f 437/253/48 438/254/48 439/255/48 440/256/48 
f 438/254/22 441/254/22 442/255/22 439/255/22 
f 441/254/54 443/253/54 444/256/54 442/255/54 
f 443/253/11 437/253/11 440/256/11 444/256/11 
f 440/256/50 439/255/50 442/255/50 444/256/50 
f 443/253/51 441/254/51 438/254/51 437/253/51 
# 388 polygons - 12 triangles

