# 3ds Max Wavefront OBJ Exporter v0.97b - (c)2007 guruware
# File Created: 15.03.2017 11:56:30

mtllib SPW_Vehicle_Land_Static_Truck Log.mtl

#
# object SPW_Vehicle_Land_Static_Truck_Log
#

v  -42.4559 91.5256 -14.1944
v  -42.4559 91.5256 -347.5054
v  -25.7903 91.5279 -347.5054
v  -25.7903 91.5279 -14.1944
v  -17.4595 105.9619 -347.5054
v  -17.4595 105.9618 -14.1944
v  -25.7943 120.3935 -347.5054
v  -25.7943 120.3935 -14.1944
v  -42.4598 120.3912 -347.5054
v  -42.4599 120.3912 -14.1944
v  -27.8740 95.1358 -347.5054
v  -21.6259 105.9613 -347.5054
v  -50.7906 105.9573 -347.5054
v  -50.7907 105.9573 -14.1944
v  -40.3732 95.1341 -14.1944
v  -46.6243 105.9578 -14.1944
v  -40.3732 95.1341 -347.5054
v  -46.6242 105.9578 -347.5054
v  -40.3761 116.7833 -347.5054
v  -27.8770 116.7850 -347.5054
v  -27.8740 95.1358 -14.1944
v  -21.6259 105.9613 -14.1944
v  -27.8770 116.7850 -14.1944
v  -40.3762 116.7833 -14.1944
v  -8.3308 91.5256 -14.1944
v  -8.3308 91.5256 -347.5054
v  8.3348 91.5279 -347.5054
v  8.3347 91.5279 -14.1944
v  16.6656 105.9619 -347.5053
v  16.6655 105.9618 -14.1944
v  8.3308 120.3935 -347.5053
v  8.3308 120.3935 -14.1944
v  -8.3347 120.3912 -347.5053
v  -8.3348 120.3912 -14.1944
v  6.2511 95.1358 -347.5053
v  12.4992 105.9613 -347.5053
v  -16.6655 105.9573 -347.5053
v  -16.6656 105.9573 -14.1944
v  -6.2481 95.1341 -14.1944
v  -12.4992 105.9578 -14.1944
v  -6.2481 95.1341 -347.5053
v  -12.4991 105.9578 -347.5053
v  -6.2510 116.7833 -347.5053
v  6.2481 116.7850 -347.5053
v  6.2511 95.1358 -14.1944
v  12.4992 105.9613 -14.1944
v  6.2481 116.7850 -14.1944
v  -6.2511 116.7833 -14.1944
v  25.7944 91.5256 -14.1944
v  25.7944 91.5256 -347.5054
v  42.4600 91.5279 -347.5054
v  42.4599 91.5279 -14.1944
v  50.7908 105.9619 -347.5053
v  50.7907 105.9618 -14.1944
v  42.4560 120.3935 -347.5053
v  42.4560 120.3935 -14.1944
v  25.7905 120.3912 -347.5053
v  25.7904 120.3912 -14.1944
v  40.3763 95.1358 -347.5053
v  46.6244 105.9613 -347.5053
v  17.4597 105.9573 -347.5053
v  17.4596 105.9573 -14.1944
v  27.8771 95.1341 -14.1944
v  21.6260 105.9578 -14.1944
v  27.8771 95.1341 -347.5053
v  21.6260 105.9578 -347.5053
v  27.8741 116.7833 -347.5053
v  40.3733 116.7850 -347.5053
v  40.3762 95.1358 -14.1944
v  46.6243 105.9613 -14.1944
v  40.3733 116.7850 -14.1944
v  27.8741 116.7833 -14.1944
v  8.8060 62.6665 -14.1944
v  8.8060 62.6665 -347.5054
v  25.4715 62.6688 -347.5054
v  25.4715 62.6688 -14.1944
v  33.8023 77.1027 -347.5054
v  33.8023 77.1027 -14.1944
v  25.4676 91.5344 -347.5054
v  25.4676 91.5344 -14.1944
v  8.8020 91.5321 -347.5054
v  8.8020 91.5321 -14.1944
v  23.3879 66.2767 -347.5054
v  29.6360 77.1022 -347.5054
v  0.4712 77.0982 -347.5054
v  0.4712 77.0982 -14.1944
v  10.8887 66.2750 -14.1944
v  4.6376 77.0987 -14.1944
v  10.8887 66.2750 -347.5054
v  4.6376 77.0987 -347.5054
v  10.8857 87.9242 -347.5054
v  23.3849 87.9259 -347.5054
v  23.3878 66.2767 -14.1944
v  29.6359 77.1021 -14.1944
v  23.3849 87.9259 -14.1944
v  10.8857 87.9242 -14.1944
v  -59.4245 62.6665 -14.1944
v  -59.4245 62.6665 -347.5054
v  -42.7589 62.6688 -347.5054
v  -42.7590 62.6688 -14.1944
v  -34.4281 77.1027 -347.5054
v  -34.4282 77.1027 -14.1944
v  -42.7629 91.5344 -347.5054
v  -42.7629 91.5344 -14.1944
v  -59.4284 91.5321 -347.5054
v  -59.4285 91.5321 -14.1944
v  -44.8426 66.2767 -347.5054
v  -38.5945 77.1022 -347.5054
v  -67.7592 77.0982 -347.5054
v  -67.7593 77.0982 -14.1944
v  -57.3418 66.2750 -14.1944
v  -63.5929 77.0987 -14.1944
v  -57.3418 66.2750 -347.5054
v  -63.5929 77.0987 -347.5054
v  -57.3448 87.9242 -347.5054
v  -44.8456 87.9259 -347.5054
v  -44.8427 66.2767 -14.1944
v  -38.5946 77.1021 -14.1944
v  -44.8456 87.9259 -14.1944
v  -57.3448 87.9242 -14.1944
v  42.7629 62.6665 -14.1943
v  42.7629 62.6665 -347.5054
v  59.4285 62.6688 -347.5054
v  59.4284 62.6688 -14.1943
v  67.7593 77.1027 -347.5054
v  67.7592 77.1027 -14.1943
v  59.4245 91.5344 -347.5054
v  59.4245 91.5344 -14.1943
v  42.7590 91.5321 -347.5054
v  42.7589 91.5321 -14.1943
v  57.3448 66.2767 -347.5054
v  63.5929 77.1022 -347.5054
v  34.4282 77.0982 -347.5054
v  34.4281 77.0982 -14.1943
v  44.8456 66.2750 -14.1943
v  38.5945 77.0987 -14.1943
v  44.8456 66.2750 -347.5054
v  38.5946 77.0988 -347.5054
v  44.8427 87.9242 -347.5054
v  57.3418 87.9259 -347.5054
v  57.3448 66.2767 -14.1943
v  63.5929 77.1021 -14.1943
v  57.3418 87.9259 -14.1943
v  44.8426 87.9242 -14.1943
v  -25.4674 62.6665 -14.1944
v  -25.4674 62.6665 -347.5054
v  -8.8018 62.6688 -347.5054
v  -8.8019 62.6688 -14.1944
v  -0.4710 77.1027 -347.5054
v  -0.4711 77.1027 -14.1944
v  -8.8058 91.5344 -347.5054
v  -8.8058 91.5344 -14.1944
v  -25.4714 91.5321 -347.5054
v  -25.4714 91.5321 -14.1944
v  -10.8855 66.2767 -347.5054
v  -4.6374 77.1022 -347.5054
v  -33.8022 77.0982 -347.5054
v  -33.8022 77.0982 -14.1944
v  -23.3847 66.2750 -14.1944
v  -29.6358 77.0987 -14.1944
v  -23.3847 66.2750 -347.5054
v  -29.6358 77.0987 -347.5054
v  -23.3877 87.9242 -347.5054
v  -10.8885 87.9259 -347.5054
v  -10.8856 66.2767 -14.1944
v  -4.6375 77.1021 -14.1944
v  -10.8885 87.9259 -14.1944
v  -23.3877 87.9242 -14.1944
v  -77.1699 43.5641 -309.0957
v  -58.5970 43.5641 -309.0957
v  -58.5970 41.4100 -318.5336
v  -77.1699 41.4100 -318.5336
v  -58.5970 35.3743 -326.1021
v  -77.1699 35.3743 -326.1021
v  -58.5970 26.6524 -330.3024
v  -77.1698 26.6524 -330.3024
v  -58.5970 16.9719 -330.3024
v  -77.1698 16.9719 -330.3024
v  -58.5970 8.2500 -326.1021
v  -77.1698 8.2500 -326.1021
v  -58.5970 2.2143 -318.5336
v  -77.1698 2.2143 -318.5336
v  -58.5970 0.0602 -309.0958
v  -77.1698 0.0602 -309.0958
v  -58.5970 2.2143 -299.6580
v  -77.1699 2.2143 -299.6580
v  -58.5970 8.2500 -292.0894
v  -77.1699 8.2500 -292.0894
v  -58.5970 16.9719 -287.8892
v  -77.1699 16.9719 -287.8892
v  -58.5970 26.6524 -287.8892
v  -77.1699 26.6524 -287.8892
v  -58.5970 35.3743 -292.0894
v  -77.1699 35.3743 -292.0894
v  -58.5970 41.4100 -299.6580
v  -77.1699 41.4100 -299.6580
v  -77.1698 43.5641 -261.2259
v  -58.5970 43.5641 -261.2259
v  -58.5970 41.4100 -270.6637
v  -77.1699 41.4100 -270.6637
v  -58.5970 35.3743 -278.2322
v  -77.1699 35.3743 -278.2322
v  -58.5970 26.6524 -282.4325
v  -77.1698 26.6524 -282.4325
v  -58.5970 16.9719 -282.4325
v  -77.1698 16.9719 -282.4325
v  -58.5970 8.2500 -278.2322
v  -77.1698 8.2500 -278.2322
v  -58.5970 2.2143 -270.6637
v  -77.1698 2.2143 -270.6637
v  -58.5970 0.0602 -261.2259
v  -77.1698 0.0602 -261.2259
v  -58.5970 2.2143 -251.7880
v  -77.1698 2.2143 -251.7880
v  -58.5970 8.2500 -244.2195
v  -77.1698 8.2500 -244.2195
v  -58.5970 16.9719 -240.0193
v  -77.1698 16.9719 -240.0193
v  -58.5970 26.6524 -240.0193
v  -77.1698 26.6524 -240.0193
v  -58.5970 35.3743 -244.2195
v  -77.1698 35.3743 -244.2195
v  -58.5970 41.4100 -251.7880
v  -77.1698 41.4100 -251.7880
v  -77.1698 43.5641 -86.5346
v  -58.5970 43.5641 -86.5346
v  -58.5970 41.4100 -95.9725
v  -77.1698 41.4100 -95.9725
v  -58.5970 35.3743 -103.5410
v  -77.1698 35.3743 -103.5410
v  -58.5970 26.6524 -107.7412
v  -77.1698 26.6524 -107.7412
v  -58.5970 16.9719 -107.7412
v  -77.1698 16.9719 -107.7412
v  -58.5970 8.2500 -103.5410
v  -77.1698 8.2500 -103.5410
v  -58.5970 2.2143 -95.9725
v  -77.1698 2.2143 -95.9725
v  -58.5970 0.0602 -86.5346
v  -77.1698 0.0602 -86.5346
v  -58.5970 2.2143 -77.0968
v  -77.1698 2.2143 -77.0968
v  -58.5970 8.2500 -69.5282
v  -77.1698 8.2500 -69.5282
v  -58.5970 16.9719 -65.3280
v  -77.1698 16.9719 -65.3280
v  -58.5970 26.6524 -65.3280
v  -77.1698 26.6524 -65.3280
v  -58.5970 35.3743 -69.5282
v  -77.1698 35.3743 -69.5282
v  -58.5970 41.4100 -77.0968
v  -77.1698 41.4100 -77.0968
v  -77.1698 43.5641 -36.7219
v  -58.5970 43.5641 -36.7219
v  -58.5970 41.4100 -46.1597
v  -77.1698 41.4100 -46.1597
v  -58.5970 35.3743 -53.7283
v  -77.1698 35.3743 -53.7283
v  -58.5970 26.6524 -57.9285
v  -77.1698 26.6524 -57.9285
v  -58.5970 16.9719 -57.9285
v  -77.1698 16.9719 -57.9285
v  -58.5970 8.2500 -53.7283
v  -77.1698 8.2500 -53.7283
v  -58.5970 2.2143 -46.1597
v  -77.1698 2.2143 -46.1597
v  -58.5970 0.0602 -36.7219
v  -77.1698 0.0602 -36.7219
v  -58.5970 2.2143 -27.2841
v  -77.1698 2.2143 -27.2841
v  -58.5970 8.2500 -19.7155
v  -77.1698 8.2500 -19.7155
v  -58.5970 16.9719 -15.5153
v  -77.1698 16.9719 -15.5153
v  -58.5970 26.6524 -15.5153
v  -77.1698 26.6524 -15.5153
v  -58.5970 35.3743 -19.7155
v  -77.1698 35.3743 -19.7155
v  -58.5970 41.4100 -27.2841
v  -77.1698 41.4100 -27.2841
v  -77.1698 43.5641 138.3739
v  -58.5970 43.5641 138.3739
v  -58.5970 41.4100 128.9360
v  -77.1698 41.4100 128.9360
v  -58.5970 35.3743 121.3675
v  -77.1698 35.3743 121.3675
v  -58.5970 26.6524 117.1673
v  -77.1698 26.6524 117.1673
v  -58.5970 16.9719 117.1673
v  -77.1698 16.9719 117.1673
v  -58.5970 8.2500 121.3675
v  -77.1698 8.2500 121.3675
v  -58.5970 2.2143 128.9360
v  -77.1698 2.2143 128.9360
v  -58.5970 0.0602 138.3739
v  -77.1698 0.0602 138.3739
v  -58.5970 2.2143 147.8117
v  -77.1698 2.2143 147.8117
v  -58.5970 8.2500 155.3802
v  -77.1698 8.2500 155.3802
v  -58.5970 16.9719 159.5805
v  -77.1698 16.9719 159.5805
v  -58.5970 26.6524 159.5805
v  -77.1698 26.6524 159.5805
v  -58.5970 35.3743 155.3802
v  -77.1698 35.3743 155.3802
v  -58.5970 41.4100 147.8117
v  -77.1698 41.4100 147.8117
v  58.5950 43.5641 -309.0956
v  77.1679 43.5641 -309.0956
v  77.1679 41.4100 -318.5335
v  58.5950 41.4100 -318.5335
v  77.1679 35.3743 -326.1021
v  58.5950 35.3743 -326.1021
v  77.1679 26.6524 -330.3023
v  58.5950 26.6524 -330.3023
v  77.1679 16.9719 -330.3023
v  58.5950 16.9719 -330.3023
v  77.1679 8.2500 -326.1021
v  58.5950 8.2500 -326.1021
v  77.1679 2.2143 -318.5335
v  58.5950 2.2143 -318.5335
v  77.1679 0.0602 -309.0957
v  58.5950 0.0602 -309.0957
v  77.1679 2.2143 -299.6579
v  58.5950 2.2143 -299.6579
v  77.1679 8.2500 -292.0893
v  58.5950 8.2500 -292.0893
v  77.1679 16.9719 -287.8891
v  58.5950 16.9719 -287.8891
v  77.1679 26.6524 -287.8891
v  58.5950 26.6524 -287.8891
v  77.1679 35.3743 -292.0893
v  58.5950 35.3743 -292.0893
v  77.1679 41.4100 -299.6579
v  58.5950 41.4100 -299.6579
v  58.5950 43.5641 -261.2259
v  77.1679 43.5641 -261.2259
v  77.1679 41.4100 -270.6637
v  58.5950 41.4100 -270.6637
v  77.1679 35.3743 -278.2323
v  58.5950 35.3743 -278.2322
v  77.1679 26.6524 -282.4325
v  58.5950 26.6524 -282.4325
v  77.1679 16.9719 -282.4325
v  58.5950 16.9719 -282.4325
v  77.1679 8.2500 -278.2323
v  58.5950 8.2500 -278.2323
v  77.1679 2.2143 -270.6637
v  58.5950 2.2143 -270.6637
v  77.1679 0.0602 -261.2259
v  58.5950 0.0602 -261.2259
v  77.1679 2.2143 -251.7881
v  58.5950 2.2143 -251.7881
v  77.1679 8.2500 -244.2195
v  58.5950 8.2500 -244.2195
v  77.1679 16.9719 -240.0193
v  58.5950 16.9719 -240.0193
v  77.1679 26.6524 -240.0193
v  58.5950 26.6524 -240.0193
v  77.1679 35.3743 -244.2195
v  58.5950 35.3743 -244.2195
v  77.1679 41.4100 -251.7880
v  58.5950 41.4100 -251.7880
v  58.5950 43.5641 -86.5346
v  77.1679 43.5641 -86.5346
v  77.1679 41.4100 -95.9725
v  58.5950 41.4100 -95.9725
v  77.1679 35.3743 -103.5410
v  58.5950 35.3743 -103.5410
v  77.1679 26.6524 -107.7412
v  58.5950 26.6524 -107.7412
v  77.1679 16.9719 -107.7412
v  58.5950 16.9719 -107.7412
v  77.1679 8.2500 -103.5410
v  58.5950 8.2500 -103.5410
v  77.1679 2.2143 -95.9725
v  58.5950 2.2143 -95.9725
v  77.1679 0.0602 -86.5346
v  58.5951 0.0602 -86.5346
v  77.1679 2.2143 -77.0968
v  58.5950 2.2143 -77.0968
v  77.1679 8.2500 -69.5283
v  58.5950 8.2500 -69.5283
v  77.1679 16.9719 -65.3280
v  58.5950 16.9719 -65.3280
v  77.1679 26.6524 -65.3280
v  58.5950 26.6524 -65.3280
v  77.1679 35.3743 -69.5283
v  58.5950 35.3743 -69.5283
v  77.1679 41.4100 -77.0968
v  58.5950 41.4100 -77.0968
v  58.5951 43.5641 -36.7219
v  77.1679 43.5641 -36.7219
v  77.1679 41.4100 -46.1597
v  58.5951 41.4100 -46.1597
v  77.1679 35.3743 -53.7283
v  58.5950 35.3743 -53.7283
v  77.1679 26.6524 -57.9285
v  58.5951 26.6524 -57.9285
v  77.1679 16.9719 -57.9285
v  58.5951 16.9719 -57.9285
v  77.1679 8.2500 -53.7283
v  58.5951 8.2500 -53.7283
v  77.1679 2.2143 -46.1597
v  58.5951 2.2143 -46.1597
v  77.1679 0.0602 -36.7219
v  58.5951 0.0602 -36.7219
v  77.1679 2.2143 -27.2841
v  58.5951 2.2143 -27.2841
v  77.1679 8.2500 -19.7155
v  58.5951 8.2500 -19.7155
v  77.1679 16.9719 -15.5153
v  58.5951 16.9719 -15.5153
v  77.1679 26.6524 -15.5153
v  58.5951 26.6524 -15.5153
v  77.1679 35.3743 -19.7155
v  58.5951 35.3743 -19.7155
v  77.1679 41.4100 -27.2841
v  58.5951 41.4100 -27.2841
v  58.5951 43.5641 138.3738
v  77.1679 43.5641 138.3738
v  77.1679 41.4100 128.9360
v  58.5951 41.4100 128.9360
v  77.1679 35.3743 121.3675
v  58.5951 35.3743 121.3675
v  77.1679 26.6524 117.1673
v  58.5951 26.6524 117.1673
v  77.1679 16.9719 117.1673
v  58.5951 16.9719 117.1673
v  77.1679 8.2500 121.3675
v  58.5951 8.2500 121.3675
v  77.1679 2.2143 128.9360
v  58.5951 2.2143 128.9360
v  77.1679 0.0602 138.3738
v  58.5951 0.0602 138.3738
v  77.1679 2.2143 147.8117
v  58.5951 2.2143 147.8117
v  77.1679 8.2500 155.3802
v  58.5951 8.2500 155.3802
v  77.1679 16.9719 159.5804
v  58.5951 16.9719 159.5804
v  77.1679 26.6524 159.5804
v  58.5951 26.6524 159.5804
v  77.1679 35.3743 155.3802
v  58.5951 35.3743 155.3802
v  77.1679 41.4100 147.8117
v  58.5951 41.4100 147.8117
v  -76.7669 121.2043 -35.4331
v  -76.7669 121.2043 -43.3071
v  -76.7669 62.1492 -43.3071
v  -76.7669 62.1492 -35.4331
v  -72.8299 121.2043 -43.3071
v  -72.8299 62.1492 -43.3071
v  -72.8299 121.2043 -35.4331
v  -72.8299 62.1492 -35.4331
v  -76.7669 121.2044 -311.0236
v  -76.7669 121.2044 -318.8976
v  -76.7669 62.1493 -318.8976
v  -76.7669 62.1493 -311.0236
v  -72.8299 121.2044 -318.8976
v  -72.8299 62.1493 -318.8976
v  -72.8299 121.2044 -311.0236
v  -72.8299 62.1493 -311.0236
v  -76.7669 121.2043 -173.2283
v  -76.7669 121.2043 -181.1024
v  -76.7669 62.1492 -181.1024
v  -76.7669 62.1492 -173.2283
v  -72.8299 121.2043 -181.1024
v  -72.8299 62.1492 -181.1024
v  -72.8299 121.2043 -173.2283
v  -72.8299 62.1492 -173.2283
v  72.8299 121.2043 -173.2283
v  72.8299 121.2043 -181.1024
v  72.8299 62.1492 -181.1024
v  72.8299 62.1492 -173.2283
v  76.7669 121.2043 -181.1024
v  76.7669 62.1492 -181.1024
v  76.7669 121.2043 -173.2283
v  76.7669 62.1492 -173.2283
v  72.8299 121.2044 -311.0236
v  72.8299 121.2044 -318.8976
v  72.8299 62.1493 -318.8976
v  72.8299 62.1493 -311.0236
v  76.7669 121.2044 -318.8976
v  76.7669 62.1493 -318.8976
v  76.7669 121.2044 -311.0236
v  76.7669 62.1493 -311.0236
v  72.8299 121.2043 -35.4331
v  72.8299 121.2043 -43.3071
v  72.8299 62.1492 -43.3071
v  72.8299 62.1492 -35.4331
v  76.7669 121.2043 -43.3071
v  76.7669 62.1492 -43.3071
v  76.7669 121.2043 -35.4331
v  76.7669 62.1492 -35.4331
v  69.6059 42.9467 -4.3909
v  69.6059 93.0919 -4.3909
v  75.0330 93.0919 -2.1430
v  75.0330 42.9466 -2.1430
v  77.2809 42.9466 3.2841
v  75.0330 42.9466 8.7112
v  69.6059 42.9466 10.9591
v  64.1789 42.9466 8.7112
v  61.9309 42.9466 3.2841
v  64.1789 42.9466 -2.1430
v  64.1789 93.0919 -2.1430
v  77.2809 93.0919 3.2841
v  75.0330 93.0919 8.7112
v  69.6059 93.0919 10.9591
v  64.1789 93.0919 8.7112
v  61.9309 93.0919 3.2841
v  69.6059 93.0919 -1.3266
v  72.8662 93.0919 0.0238
v  66.3456 93.0919 0.0238
v  64.9952 93.0919 3.2841
v  74.2166 93.0919 3.2841
v  72.8662 93.0919 6.5444
v  69.6059 93.0919 7.8948
v  66.3456 93.0919 6.5444
v  72.8662 167.9481 0.5500
v  74.2166 164.8576 3.2841
v  69.6059 169.4161 -0.5825
v  66.3456 167.9481 0.5500
v  64.9952 164.8576 3.2841
v  69.6059 160.8428 7.1507
v  66.3456 161.9836 6.0182
v  69.6059 168.7465 0.3633
v  72.0687 167.6841 1.2188
v  67.1431 167.6841 1.2188
v  72.8662 161.9836 6.0182
v  73.0889 165.2907 3.2841
v  66.1230 165.2907 3.2841
v  67.1431 163.0426 5.3495
v  72.0687 163.0426 5.3495
v  69.6059 162.1445 6.2050
v  69.6059 151.2324 0.3633
v  72.0687 150.6267 1.2188
v  67.1431 150.6267 1.2188
v  66.1230 149.1644 3.2841
v  67.1431 147.7021 5.3495
v  69.6059 147.0964 6.2050
v  73.0889 149.1644 3.2841
v  72.0687 147.7021 5.3495
v  -69.5853 43.2240 -4.4293
v  -69.5853 93.1750 -4.4293
v  -64.1311 93.1750 -2.1701
v  -64.1311 43.2240 -2.1701
v  -61.8719 43.2240 3.2841
v  -64.1311 43.2240 8.7382
v  -69.5853 43.2240 10.9974
v  -75.0395 43.2240 8.7382
v  -77.2987 43.2240 3.2841
v  -75.0395 43.2240 -2.1701
v  -75.0395 93.1750 -2.1701
v  -61.8719 93.1750 3.2841
v  -64.1311 93.1750 8.7383
v  -69.5853 93.1750 10.9975
v  -75.0395 93.1750 8.7383
v  -77.2987 93.1750 3.2841
v  -69.5853 93.1750 -1.3497
v  -66.3087 93.1750 0.0075
v  -72.8619 93.1750 0.0075
v  -74.2191 93.1750 3.2841
v  -64.9515 93.1750 3.2841
v  -69.5853 169.2034 -0.6019
v  -66.3087 167.7411 0.5363
v  -66.3087 93.1750 6.5606
v  -69.5853 93.1750 7.9178
v  -72.8619 93.1750 6.5606
v  -74.2191 164.6626 3.2841
v  -72.8619 167.7411 0.5363
v  -64.9515 164.6626 3.2841
v  -66.3087 161.7997 6.0318
v  -69.5853 160.6634 7.1700
v  -72.8619 161.7997 6.0318
v  -72.0604 167.4782 1.2084
v  -69.5853 168.5364 0.3486
v  -73.0857 165.0940 3.2841
v  -72.0604 162.8547 5.3597
v  -67.1102 167.4782 1.2084
v  -66.0849 165.0940 3.2841
v  -67.1102 162.8547 5.3597
v  -69.5853 161.9600 6.2195
v  -69.5853 151.0902 0.3486
v  -67.1102 150.4868 1.2084
v  -72.0604 150.4868 1.2084
v  -73.0857 149.0302 3.2841
v  -72.0604 147.5735 5.3597
v  -69.5853 146.9702 6.2195
v  -66.0849 149.0302 3.2841
v  -67.1102 147.5735 5.3597
v  -66.6851 76.8176 95.8646
v  -66.6851 79.8142 95.8646
v  -60.8735 79.8142 98.2719
v  -60.8735 76.8176 98.2719
v  -58.4662 76.8176 104.0836
v  -60.8735 76.8176 109.8953
v  -66.6851 76.8176 112.3025
v  -72.4968 76.8176 109.8953
v  -74.9041 76.8176 104.0836
v  -72.4968 76.8176 98.2719
v  -72.4968 79.8142 98.2719
v  -74.9041 79.8142 104.0836
v  -72.4968 79.8142 109.8953
v  -66.6851 79.8142 112.3025
v  -60.8735 79.8142 109.8953
v  -58.4662 79.8142 104.0836
v  -66.6851 96.3940 95.8646
v  -66.6851 99.3907 95.8646
v  -60.8735 99.3907 98.2719
v  -60.8735 96.3940 98.2719
v  -58.4662 96.3940 104.0836
v  -60.8735 96.3940 109.8953
v  -66.6851 96.3940 112.3025
v  -72.4968 96.3940 109.8953
v  -74.9041 96.3940 104.0836
v  -72.4968 96.3940 98.2719
v  -72.4968 99.3907 98.2719
v  -74.9041 99.3907 104.0836
v  -72.4968 99.3907 109.8953
v  -66.6851 99.3907 112.3025
v  -60.8735 99.3907 109.8953
v  -58.4662 99.3907 104.0836
v  -66.6851 70.5142 97.2039
v  -66.6851 105.6941 97.2039
v  -61.8205 105.6941 99.2189
v  -61.8205 70.5142 99.2189
v  -59.8055 70.5142 104.0836
v  -61.8205 70.5142 108.9482
v  -66.6851 70.5142 110.9633
v  -71.5498 70.5142 108.9482
v  -73.5648 70.5142 104.0836
v  -71.5498 70.5142 99.2189
v  -71.5498 105.6941 99.2189
v  -73.5648 105.6941 104.0836
v  -71.5498 105.6941 108.9482
v  -66.6851 105.6941 110.9632
v  -61.8205 105.6941 108.9482
v  -59.8055 105.6941 104.0836
v  66.6834 76.8176 95.8646
v  66.6834 79.8142 95.8646
v  72.4950 79.8142 98.2719
v  72.4950 76.8176 98.2719
v  74.9023 76.8176 104.0836
v  72.4950 76.8176 109.8953
v  66.6834 76.8176 112.3025
v  60.8717 76.8176 109.8953
v  58.4644 76.8176 104.0836
v  60.8717 76.8176 98.2719
v  60.8717 79.8142 98.2719
v  58.4644 79.8142 104.0836
v  60.8717 79.8142 109.8953
v  66.6834 79.8142 112.3025
v  72.4950 79.8142 109.8953
v  74.9023 79.8142 104.0836
v  66.6834 96.3940 95.8646
v  66.6834 99.3907 95.8646
v  72.4950 99.3907 98.2719
v  72.4950 96.3940 98.2719
v  74.9023 96.3940 104.0836
v  72.4950 96.3940 109.8952
v  66.6834 96.3940 112.3025
v  60.8717 96.3940 109.8952
v  58.4644 96.3940 104.0836
v  60.8717 96.3940 98.2719
v  60.8717 99.3907 98.2719
v  58.4644 99.3907 104.0836
v  60.8717 99.3907 109.8952
v  66.6834 99.3907 112.3025
v  72.4950 99.3907 109.8952
v  74.9023 99.3907 104.0836
v  66.6834 70.5142 97.2039
v  66.6834 105.6941 97.2039
v  71.5480 105.6941 99.2189
v  71.5480 70.5142 99.2189
v  73.5630 70.5142 104.0836
v  71.5480 70.5142 108.9482
v  66.6834 70.5142 110.9632
v  61.8187 70.5142 108.9482
v  59.8037 70.5142 104.0836
v  61.8187 70.5142 99.2189
v  61.8187 105.6941 99.2189
v  59.8037 105.6941 104.0836
v  61.8187 105.6941 108.9482
v  66.6834 105.6941 110.9632
v  71.5480 105.6941 108.9482
v  73.5630 105.6941 104.0836
v  -65.3051 135.7132 76.4416
v  -72.8320 135.7132 75.0068
v  -72.8320 111.4058 75.0068
v  -65.3051 111.4058 76.4416
v  -73.2981 136.8145 71.9693
v  -73.2981 110.3045 71.9692
v  -63.9061 136.8145 73.7596
v  -63.9061 110.3045 73.7596
v  -69.4764 142.9144 74.0077
v  -68.1970 142.9144 74.0077
v  -68.1970 141.5312 74.0077
v  -69.4764 141.5312 74.0077
v  -68.1970 141.5312 75.3909
v  -61.1613 141.5312 74.0077
v  -61.1613 141.5312 75.3909
v  -68.1970 142.9144 75.3909
v  -69.4764 142.9144 75.3909
v  -69.4764 141.5312 75.3909
v  -69.4764 105.1497 74.0077
v  -69.4764 105.1497 75.3909
v  -61.1613 142.9144 74.0077
v  -61.1613 142.9144 75.3909
v  -69.4764 103.6789 74.0077
v  -69.4764 103.6789 75.3909
v  -68.1970 105.1497 75.3909
v  -68.1970 105.1497 74.0077
v  -68.1970 103.6789 74.0077
v  -68.1970 103.6789 75.3909
v  -61.1711 105.1497 74.0077
v  -61.1711 103.6789 74.0077
v  -61.1711 105.1497 75.3909
v  -61.1711 103.6789 75.3909
v  72.8160 135.7132 75.0721
v  65.2891 135.7132 76.5069
v  65.2891 111.4058 76.5069
v  72.8160 111.4058 75.0721
v  63.8902 136.8145 73.8248
v  63.8902 110.3045 73.8248
v  73.2821 136.8145 72.0345
v  73.2821 110.3045 72.0345
v  69.4602 142.9144 75.3909
v  68.1808 142.9144 75.3909
v  68.1808 141.5312 75.3909
v  69.4602 141.5312 75.3909
v  68.1808 141.5312 74.0077
v  61.1450 141.5312 75.3909
v  61.1450 141.5312 74.0077
v  68.1808 142.9144 74.0077
v  69.4602 142.9144 74.0077
v  69.4602 141.5312 74.0077
v  69.4602 105.1497 75.3909
v  69.4602 105.1497 74.0077
v  61.1450 142.9144 75.3909
v  61.1450 142.9144 74.0077
v  69.4602 103.6789 75.3909
v  69.4602 103.6789 74.0077
v  68.1808 105.1497 74.0077
v  68.1808 105.1497 75.3909
v  68.1808 103.6789 75.3909
v  68.1808 103.6789 74.0077
v  61.1549 105.1497 75.3909
v  61.1549 103.6789 75.3909
v  61.1549 105.1497 74.0077
v  61.1549 103.6789 74.0077
v  -62.3991 95.6441 29.6046
v  -62.3991 95.6442 18.4984
v  -62.3991 93.0458 18.4984
v  -62.3991 93.0458 29.6046
v  -59.9956 95.6441 29.6046
v  -59.9956 93.0458 29.6046
v  -59.9956 95.6442 18.4984
v  -59.9956 93.0458 18.4984
v  59.9937 95.6441 29.6046
v  59.9937 95.6442 18.4984
v  59.9937 93.0458 18.4984
v  59.9937 93.0458 29.6046
v  62.3972 95.6441 29.6046
v  62.3972 93.0458 29.6046
v  62.3972 95.6442 18.4984
v  62.3972 93.0458 18.4984
v  1.5468 89.2206 178.9092
v  1.5468 89.2206 175.1876
v  -1.5487 89.2206 175.1876
v  -1.5487 89.2206 178.9092
v  1.5468 37.3484 178.9092
v  -1.5487 37.3484 178.9092
v  1.5468 37.3484 175.1876
v  -1.5487 37.3484 175.1876
v  -41.9263 47.5758 178.9092
v  -41.9263 47.5759 175.1876
v  -41.9263 44.2294 175.1876
v  -41.9263 44.2294 178.9092
v  41.9245 47.5758 178.9092
v  41.9245 44.2294 178.9092
v  41.9245 47.5759 175.1876
v  41.9245 44.2294 175.1876
v  -41.9263 64.2422 178.9092
v  -41.9263 64.2422 175.1876
v  -41.9263 60.8958 175.1876
v  -41.9263 60.8958 178.9092
v  41.9245 64.2422 178.9092
v  41.9245 60.8958 178.9092
v  41.9245 64.2422 175.1876
v  41.9245 60.8958 175.1876
v  -41.9263 72.5802 178.9092
v  -41.9263 72.5802 175.1876
v  -41.9263 69.2337 175.1876
v  -41.9263 69.2337 178.9092
v  41.9245 72.5802 178.9092
v  41.9245 69.2337 178.9092
v  41.9245 72.5802 175.1876
v  41.9245 69.2337 175.1876
v  -41.9263 80.5247 178.9092
v  -41.9263 80.5247 175.1876
v  -41.9263 77.1782 175.1876
v  -41.9263 77.1782 178.9092
v  41.9245 80.5247 178.9092
v  41.9245 77.1782 178.9092
v  41.9245 80.5247 175.1876
v  41.9245 77.1782 175.1876
v  -41.9263 88.7218 178.9092
v  -41.9263 88.7218 175.1876
v  -41.9263 85.3754 175.1876
v  -41.9263 85.3754 178.9092
v  41.9245 88.7218 178.9092
v  41.9245 85.3754 178.9092
v  41.9245 88.7218 175.1876
v  41.9245 85.3754 175.1876
v  77.3858 45.3962 -361.3281
v  77.3858 45.3962 -346.6172
v  77.3858 21.8067 -346.6172
v  77.3858 21.8067 -361.3281
v  45.0701 45.3962 -362.9533
v  45.0701 21.8067 -362.9533
v  45.0701 45.3962 -348.2425
v  45.0701 21.8067 -348.2425
v  -45.0721 45.3962 -362.9533
v  -45.0721 21.8067 -362.9533
v  -45.0721 45.3962 -348.2425
v  -45.0721 21.8067 -348.2425
v  -77.3878 45.3962 -361.3281
v  -77.3878 21.8067 -361.3281
v  -77.3878 45.3962 -346.6173
v  -77.3878 21.8067 -346.6173
v  -77.0197 62.5387 -7.7998
v  -77.0198 62.5387 -359.1777
v  -77.0198 45.8064 -359.1777
v  -77.0197 45.8064 -7.7998
v  77.0179 62.5387 -7.7998
v  77.0179 45.8064 -7.7998
v  68.0024 62.5387 -17.6684
v  -68.0043 62.5387 -17.6684
v  77.0178 62.5387 -359.1777
v  77.0178 45.8064 -359.1777
v  -77.3877 43.5191 59.5892
v  -77.3878 43.5191 -5.1372
v  -77.3878 21.8121 -5.1372
v  -77.3877 21.8121 59.5892
v  -77.3877 67.5247 94.3676
v  -77.3877 21.8121 94.3675
v  -44.8182 43.5191 59.5892
v  -44.8182 43.5191 -5.1372
v  -44.8182 21.8121 -5.1373
v  -44.8182 21.8121 59.5892
v  -77.3877 21.8121 113.9048
v  -77.3877 27.3970 113.9048
v  -77.3877 37.4607 118.7512
v  -77.3877 44.4250 127.4841
v  -77.3877 46.9105 138.3739
v  -77.3877 44.9224 174.5923
v  -77.3877 27.3970 162.8431
v  -77.3877 21.8121 162.8431
v  -77.3877 21.8121 174.5923
v  -77.3877 37.4607 157.9967
v  -77.3877 44.4250 149.2637
v  -77.3877 67.5247 174.5923
v  -44.8182 67.5247 94.3675
v  -44.8182 21.8121 94.3675
v  -41.0765 43.5191 59.5892
v  -41.0765 43.5191 -5.1372
v  -56.6035 43.5191 -5.1373
v  -56.6035 21.8121 -5.1373
v  -41.0765 21.8121 -5.1373
v  -41.0765 21.8121 59.5892
v  -44.8182 67.5247 177.9197
v  -44.8182 44.9224 177.9197
v  -44.8182 21.8121 113.9048
v  -44.1664 21.8121 113.9048
v  -44.1664 27.3970 113.9048
v  -44.1664 37.4607 118.7512
v  -44.1664 44.4250 127.4841
v  -44.1664 46.9105 138.3739
v  -44.1664 44.4250 149.2637
v  -44.1664 37.4607 157.9967
v  -44.1664 27.3970 162.8431
v  -44.1664 21.8121 162.8431
v  -44.8182 21.8121 162.8431
v  -44.8182 21.8121 177.9197
v  -41.0765 67.5247 94.3675
v  -41.0765 21.8121 94.3675
v  41.0746 43.5191 59.5892
v  41.0746 43.5191 -5.1373
v  -41.0765 45.7679 -5.1372
v  -44.8182 45.7679 -5.1372
v  -44.8183 21.8122 -359.3132
v  -56.6035 21.8122 -359.3132
v  -56.6035 45.7679 -5.1373
v  -56.6035 43.5192 -359.3132
v  -41.0766 21.8122 -359.3132
v  41.0746 21.8121 -5.1373
v  41.0746 21.8121 59.5891
v  -41.0765 67.5247 177.9197
v  -41.0765 44.9224 177.9197
v  -41.0765 21.8121 177.9197
v  41.0747 67.5247 94.3675
v  41.0747 21.8121 94.3675
v  44.8163 43.5191 59.5892
v  44.8163 43.5191 -5.1373
v  41.0746 45.7679 -5.1373
v  -41.0766 45.7679 -359.3132
v  -44.8183 45.7679 -359.3132
v  -44.8183 43.5192 -359.3132
v  -56.6035 45.7679 -359.3132
v  41.0746 21.8122 -359.3132
v  -41.0766 43.5192 -359.3132
v  44.8163 21.8121 -5.1373
v  44.8163 21.8121 59.5891
v  41.0747 67.5247 177.9197
v  41.0747 44.9224 177.9197
v  41.0747 21.8121 177.9197
v  44.8163 67.5247 94.3675
v  44.8163 21.8121 94.3675
v  77.3859 43.5191 59.5892
v  77.3859 43.5191 -5.1373
v  44.8163 45.7679 -5.1373
v  41.0746 45.7679 -359.3132
v  44.8163 21.8122 -359.3132
v  41.0746 43.5192 -359.3132
v  77.3859 21.8121 -5.1373
v  77.3859 21.8121 59.5891
v  44.8163 67.5247 177.9197
v  44.8163 44.9224 177.9197
v  44.1645 21.8121 113.9048
v  44.8163 21.8121 113.9048
v  44.1645 21.8121 162.8431
v  44.8163 21.8121 162.8431
v  44.8163 21.8121 177.9196
v  77.3859 67.5247 94.3675
v  77.3859 21.8121 94.3675
v  56.6016 43.5191 -5.1373
v  56.6016 45.7679 -5.1373
v  44.8163 45.7679 -359.3132
v  56.6016 21.8122 -359.3132
v  56.6016 21.8121 -5.1373
v  44.8163 43.5192 -359.3132
v  77.3859 67.5247 174.5923
v  77.3859 44.9224 174.5923
v  77.3859 21.8121 113.9048
v  44.1645 27.3970 113.9048
v  77.3859 27.3970 113.9048
v  44.1645 37.4607 118.7512
v  44.1645 44.4250 127.4841
v  44.1645 46.9105 138.3739
v  44.1645 44.4250 149.2637
v  44.1645 37.4607 157.9967
v  44.1645 27.3970 162.8431
v  77.3859 27.3970 162.8431
v  77.3859 21.8121 162.8431
v  77.3859 21.8121 174.5923
v  56.6016 45.7679 -359.3132
v  56.6016 43.5192 -359.3132
v  77.3859 44.4250 149.2637
v  77.3859 37.4607 157.9967
v  77.3859 46.9105 138.3739
v  77.3859 44.4250 127.4841
v  77.3859 37.4607 118.7512
v  42.1379 41.5945 -124.0755
v  42.1379 41.5945 -224.2241
v  42.1379 8.1299 -224.2241
v  42.1379 8.1299 -124.0755
v  73.0926 41.5945 -124.0755
v  73.0926 8.1299 -124.0755
v  73.0926 41.5945 -224.2241
v  73.0926 8.1299 -224.2241
v  -73.0945 41.5945 -124.0755
v  -73.0945 41.5945 -224.2241
v  -73.0945 8.1299 -224.2241
v  -73.0945 8.1299 -124.0755
v  -42.1398 41.5945 -124.0755
v  -42.1398 8.1299 -124.0755
v  -42.1398 41.5945 -224.2241
v  -42.1398 8.1299 -224.2241
v  68.0024 62.5387 -349.3091
v  -68.0043 62.5387 -349.3091
v  -35.4705 89.2206 178.9092
v  -35.4705 89.2206 175.1876
v  -38.5660 89.2206 175.1876
v  -38.5660 89.2206 178.9092
v  -35.4705 37.3484 178.9092
v  -38.5660 37.3484 178.9092
v  -35.4705 37.3484 175.1876
v  -38.5660 37.3484 175.1876
v  38.5715 89.2206 178.9092
v  38.5715 89.2206 175.1876
v  35.4760 89.2206 175.1876
v  35.4760 89.2206 178.9092
v  38.5715 37.3484 178.9092
v  35.4760 37.3484 178.9092
v  38.5715 37.3484 175.1876
v  35.4760 37.3484 175.1876
v  -41.9263 56.0908 178.9092
v  -41.9263 56.0908 175.1876
v  -41.9263 52.7443 175.1876
v  -41.9263 52.7443 178.9092
v  41.9245 56.0908 178.9092
v  41.9245 52.7443 178.9092
v  41.9245 56.0908 175.1876
v  41.9245 52.7443 175.1876
v  -0.0009 21.8121 -5.1373
v  -0.0009 21.8121 95.2564
v  -61.9104 21.8121 95.2564
v  -61.9104 21.8121 -5.1373
v  -0.0009 48.1133 -5.1372
v  -61.9104 48.1133 -5.1372
v  61.9085 21.8121 -5.1373
v  61.9085 21.8121 95.2564
v  -0.0009 21.8121 178.9179
v  -45.0800 21.8121 178.9179
v  -61.9104 48.1133 95.2564
v  -0.0009 102.2981 -5.1372
v  -61.9104 102.2981 -5.1372
v  61.9085 48.1133 -5.1373
v  61.9085 48.1133 95.2564
v  45.0781 21.8121 178.9178
v  -45.0800 40.5292 178.9178
v  -0.0009 40.5361 178.9179
v  -61.9104 102.2980 95.2564
v  -61.9104 144.1288 -5.1372
v  -0.0009 144.1288 -5.1372
v  -0.0009 136.0028 -5.1372
v  -41.7436 136.0028 -5.1372
v  -41.7436 112.1164 -5.1372
v  -0.0009 112.1164 -5.1372
v  61.9085 102.2981 -5.1372
v  61.9085 102.2980 95.2565
v  45.0781 40.5292 178.9179
v  -45.0800 93.9319 178.9178
v  -0.0009 44.2864 178.9179
v  -38.5323 44.2805 178.9178
v  -61.9104 105.6903 89.9759
v  -61.9104 105.6903 8.7306
v  -61.9104 141.1359 8.7306
v  41.7418 112.1164 -5.1372
v  41.7418 136.0028 -5.1372
v  61.9085 144.1288 -5.1372
v  -61.9104 144.1288 76.0910
v  -0.0010 144.1288 76.0910
v  61.9085 141.1359 8.7306
v  61.9085 105.6903 8.7306
v  61.9085 105.6903 89.9758
v  45.0781 93.9319 178.9179
v  38.5304 44.2805 178.9179
v  -0.0010 99.4775 178.9179
v  -0.0010 102.2980 95.2565
v  -38.5323 88.7063 178.9178
v  -0.0009 44.2864 177.9893
v  -38.5323 44.2805 177.9893
v  -61.9104 141.1359 73.7718
v  -61.2035 105.6903 89.9759
v  -61.2035 105.6903 8.7306
v  -61.2035 141.1359 8.7306
v  61.9085 144.1288 76.0910
v  -57.7112 141.1661 77.4484
v  -1.1725 141.1661 77.4484
v  -57.7112 105.5200 93.7802
v  61.9085 141.1359 73.7718
v  61.2017 141.1359 8.7306
v  61.2017 105.6903 8.7306
v  61.2017 105.6903 89.9758
v  38.5304 88.7063 178.9179
v  38.5304 44.2805 177.9893
v  -1.1725 105.5200 93.7803
v  -0.0010 88.6909 178.9179
v  -38.5323 88.7063 177.9892
v  -0.0010 88.6909 177.9893
v  -61.2035 141.1359 73.7718
v  61.2017 141.1359 73.7718
v  57.7093 105.5200 93.7803
v  1.1706 105.5200 93.7803
v  57.7093 141.1661 77.4484
v  38.5304 88.7063 177.9893
v  -57.7112 105.1597 93.0032
v  -57.7112 140.7309 76.5098
v  -1.1725 140.7309 76.5098
v  -1.1725 105.1597 93.0032
v  1.1706 141.1661 77.4484
v  1.1706 140.7309 76.5098
v  57.7093 140.7309 76.5098
v  57.7093 105.1597 93.0032
v  1.1706 105.1597 93.0032
v  -41.7436 136.0028 -4.3260
v  -41.7436 112.1164 -4.3260
v  41.7418 112.1164 -4.3260
v  41.7418 136.0028 -4.3260
v  -77.4910 38.0648 179.7893
v  -77.4910 38.0648 164.6252
v  -77.4910 21.6588 164.6252
v  -77.4910 21.6588 179.7893
v  -45.1322 38.0648 183.4863
v  -45.1322 21.6588 183.4863
v  -45.1322 38.0648 168.3223
v  -45.1322 21.6588 168.3223
v  45.1303 38.0648 183.4863
v  45.1303 21.6588 183.4863
v  45.1303 38.0648 168.3223
v  45.1303 21.6588 168.3222
v  77.4892 38.0648 179.7892
v  77.4892 21.6588 179.7892
v  77.4892 38.0648 164.6252
v  77.4892 21.6588 164.6252
# 1108 vertices

vn 0.0001 -1.0000 -0.0000
vn 0.8661 -0.4999 0.0000
vn 0.8660 0.5001 0.0000
vn -0.0001 1.0000 0.0000
vn 0.0000 0.0000 -1.0000
vn -0.8661 0.4999 -0.0000
vn -0.8660 -0.5001 -0.0000
vn 0.0000 -0.0000 1.0000
vn 0.0000 0.9749 -0.2225
vn 0.0000 0.7818 -0.6235
vn 0.0000 0.4339 -0.9010
vn 0.0000 -0.4339 -0.9010
vn 0.0000 -0.7818 -0.6235
vn 0.0000 -0.9749 -0.2225
vn 0.0000 -0.9749 0.2225
vn 0.0000 -0.7818 0.6235
vn 0.0000 -0.4339 0.9010
vn 0.0000 0.4339 0.9010
vn 1.0000 0.0000 -0.0000
vn 0.0000 0.7818 0.6235
vn 0.0000 0.9749 0.2225
vn -1.0000 -0.0000 0.0000
vn -1.0000 -0.0000 -0.0000
vn -1.0000 0.0000 -0.0000
vn 1.0000 -0.0000 -0.0000
vn 0.0000 -0.0000 -1.0000
vn -0.0000 -0.7818 -0.6235
vn -0.0000 -0.9749 -0.2225
vn 0.0000 0.0000 1.0000
vn -0.0000 0.9749 -0.2225
vn -0.0000 0.7818 -0.6235
vn -1.0000 0.0000 0.0000
vn -0.0000 0.4339 -0.9010
vn -0.0000 -0.4339 -0.9010
vn -0.0000 -0.9749 0.2225
vn 0.0000 -1.0000 -0.0000
vn 0.0000 1.0000 0.0000
vn 0.3827 0.0000 -0.9239
vn -0.0000 -1.0000 -0.0000
vn -0.3827 0.0000 -0.9239
vn 0.9239 0.0000 -0.3827
vn 0.9239 -0.0000 0.3827
vn 0.3827 -0.0000 0.9239
vn -0.3827 -0.0000 0.9239
vn -0.9239 -0.0000 0.3827
vn -0.9239 0.0000 -0.3827
vn -0.0000 1.0000 0.0000
vn 0.9120 0.0015 -0.4102
vn 0.3574 0.0078 -0.9339
vn -0.3574 0.0078 -0.9339
vn -0.9120 0.0015 -0.4102
vn -0.3545 0.0087 0.9350
vn -0.9114 0.0015 0.4114
vn 0.1679 0.8152 0.5543
vn -0.1679 0.8152 0.5543
vn 0.9114 0.0015 0.4114
vn 0.3545 0.0087 0.9350
vn 0.2889 0.6982 0.6551
vn -0.2889 0.6982 0.6551
vn -0.2120 0.6142 0.7602
vn 0.2120 0.6142 0.7602
vn 0.0751 0.5801 0.8111
vn -0.0751 0.5801 0.8111
vn -0.3281 -0.0000 0.9446
vn 0.3281 -0.0000 0.9446
vn 0.8966 -0.0000 0.4429
vn 0.8966 0.0000 -0.4429
vn 0.3281 0.0000 -0.9446
vn -0.8966 -0.0000 0.4429
vn 0.0000 0.8161 0.5779
vn 0.0000 0.8161 0.5778
vn -0.8966 0.0000 -0.4429
vn -0.3281 0.0000 -0.9446
vn 0.3574 0.0079 -0.9339
vn -0.3574 0.0079 -0.9339
vn 0.9114 0.0016 0.4114
vn 0.3545 0.0088 0.9350
vn -0.9114 0.0016 0.4114
vn -0.1669 0.8176 0.5510
vn -0.2876 0.7013 0.6522
vn -0.3545 0.0088 0.9350
vn -0.2112 0.6176 0.7576
vn 0.2876 0.7013 0.6522
vn 0.1669 0.8176 0.5510
vn 0.2112 0.6176 0.7576
vn 0.0749 0.5835 0.8087
vn -0.0749 0.5835 0.8087
vn -0.3281 0.0000 0.9446
vn 0.3281 0.0000 0.9446
vn -0.0000 0.8186 0.5744
vn 0.0000 0.8185 0.5744
vn -0.0000 -1.0000 0.0000
vn 0.0000 -1.0000 0.0000
vn 0.9239 -0.0000 -0.3827
vn 0.9239 0.0000 0.3827
vn 0.3827 0.0000 0.9239
vn -0.3827 0.0000 0.9239
vn -0.9239 0.0000 0.3827
vn -0.9239 -0.0000 -0.3827
vn -0.1873 -0.0000 0.9823
vn -0.9884 -0.0000 0.1517
vn 0.1873 0.0000 -0.9823
vn 0.8866 -0.0000 0.4625
vn -0.0665 -0.9347 0.3491
vn -0.0665 0.9347 0.3491
vn -0.0000 0.0000 -1.0000
vn 0.1873 -0.0000 0.9823
vn -0.8866 -0.0000 0.4625
vn -0.1873 0.0000 -0.9823
vn 0.9884 -0.0000 0.1517
vn 0.0665 -0.9347 0.3491
vn 0.0665 0.9347 0.3491
vn 0.0000 1.0000 -0.0000
vn 0.0502 0.0000 -0.9987
vn -0.0000 1.0000 -0.0000
vn -0.0502 -0.0000 0.9987
vn -0.0502 0.0000 -0.9987
vn 0.0502 -0.0000 0.9987
vn -0.0000 0.8230 -0.5681
vn -0.0000 -0.0000 1.0000
vn -0.1016 -0.0000 0.9948
vn -0.1016 0.0000 0.9948
vn 0.0000 0.8230 -0.5681
vn -0.0000 0.0000 1.0000
vn 0.1016 -0.0000 0.9948
vn 1.0000 0.0000 0.0000
vn 1.0000 -0.0000 0.0000
vn -0.9804 -0.0000 0.1972
vn 0.9804 0.0000 0.1972
vn -0.9804 0.0000 0.1972
vn -0.0000 -0.0000 -1.0000
vn -0.0516 0.9961 0.0718
vn -0.0002 1.0000 0.0000
vn -0.0000 0.4165 0.9091
vn 0.0516 0.9961 0.0718
vn 0.0002 1.0000 0.0000
vn 0.0000 -0.4158 -0.9095
vn -0.0004 -1.0000 -0.0000
vn 0.0000 -0.9072 0.4207
vn 0.0004 -1.0000 -0.0000
vn 0.0000 0.9072 -0.4207
vn 0.0000 0.4165 0.9091
vn 0.0000 0.4207 0.9072
vn -0.0000 0.9072 -0.4206
vn -0.1135 -0.0000 0.9935
vn 0.1135 0.0000 -0.9935
vn 0.1135 -0.0000 0.9935
vn -0.1135 0.0000 -0.9935
# 148 vertex normals

vt 0.9821 0.2625 0.0000
vt 0.9921 0.2625 0.0000
vt 0.9921 0.2725 0.0000
vt 0.9821 0.2725 0.0000
vt 0.9585 0.2744 0.0000
vt 0.9629 0.2719 0.0000
vt 0.9629 0.2669 0.0000
vt 0.9585 0.2644 0.0000
vt 0.9542 0.2669 0.0000
vt 0.9542 0.2719 0.0000
vt 0.8483 0.2017 0.0000
vt 0.8858 0.1931 0.0000
vt 0.9158 0.1692 0.0000
vt 0.9324 0.1346 0.0000
vt 0.9324 0.0962 0.0000
vt 0.9158 0.0617 0.0000
vt 0.8858 0.0377 0.0000
vt 0.8483 0.0292 0.0000
vt 0.8109 0.0377 0.0000
vt 0.7809 0.0617 0.0000
vt 0.7642 0.0962 0.0000
vt 0.7642 0.1346 0.0000
vt 0.7809 0.1692 0.0000
vt 0.8109 0.1931 0.0000
vt 0.4414 0.0957 0.0000
vt 0.4590 0.0957 0.0000
vt 0.4590 0.1134 0.0000
vt 0.4414 0.1134 0.0000
vt 0.4378 0.0781 0.0000
vt 0.4878 0.0781 0.0000
vt 0.4878 0.1281 0.0000
vt 0.4378 0.1281 0.0000
vt 0.4628 0.1281 0.0000
vt 0.4805 0.1208 0.0000
vt 0.4878 0.1031 0.0000
vt 0.4805 0.0855 0.0000
vt 0.4628 0.0781 0.0000
vt 0.4451 0.0855 0.0000
vt 0.4378 0.1031 0.0000
vt 0.4451 0.1208 0.0000
vt 0.4378 0.0782 0.0000
vt 0.3374 0.1277 0.0000
vt 0.3390 0.1277 0.0000
vt 0.3390 0.0994 0.0000
vt 0.3374 0.0994 0.0000
vt 0.3426 0.1289 0.0000
vt 0.3426 0.0982 0.0000
vt 0.3405 0.1289 0.0000
vt 0.3405 0.0982 0.0000
vt 0.3402 0.1360 0.0000
vt 0.3402 0.1344 0.0000
vt 0.3386 0.1344 0.0000
vt 0.3386 0.1360 0.0000
vt 0.3402 0.0922 0.0000
vt 0.3386 0.0922 0.0000
vt 0.3402 0.0905 0.0000
vt 0.3386 0.0905 0.0000
vt 0.3389 0.1277 0.0000
vt 0.3373 0.1277 0.0000
vt 0.3373 0.0994 0.0000
vt 0.3389 0.0994 0.0000
vt 0.3404 0.1289 0.0000
vt 0.3404 0.0982 0.0000
vt 0.3425 0.1289 0.0000
vt 0.3425 0.0982 0.0000
vt 0.3208 0.1725 0.0000
vt 0.3442 0.1725 0.0000
vt 0.3442 0.1670 0.0000
vt 0.3208 0.1670 0.0000
vt 0.5302 0.1264 0.0000
vt 0.5802 0.1264 0.0000
vt 0.5802 0.1764 0.0000
vt 0.5302 0.1764 0.0000
vt 0.3705 0.3172 0.0000
vt 0.3705 0.3113 0.0000
vt 0.3665 0.3436 0.0000
vt 0.2661 0.3436 0.0000
vt 0.2661 0.2757 0.0000
vt 0.3665 0.2757 0.0000
vt 0.3792 0.3172 0.0000
vt 0.3792 0.3113 0.0000
vt 0.6467 0.3436 0.0000
vt 0.6467 0.2757 0.0000
vt 0.4034 0.3172 0.0000
vt 0.4034 0.3113 0.0000
vt 0.7472 0.3436 0.0000
vt 0.7472 0.2757 0.0000
vt 0.4121 0.3172 0.0000
vt 0.4121 0.3113 0.0000
vt 0.2634 0.9578 0.0000
vt 0.9640 0.9578 0.0000
vt 0.9640 0.9244 0.0000
vt 0.2634 0.9244 0.0000
vt 0.4409 0.5122 0.0000
vt 0.4909 0.5122 0.0000
vt 0.4909 0.5622 0.0000
vt 0.4409 0.5622 0.0000
vt 0.9650 0.9049 0.0000
vt 0.6327 0.9049 0.0000
vt 0.6327 0.8716 0.0000
vt 0.9650 0.8716 0.0000
vt 0.0978 0.7263 0.0000
vt 0.1365 0.7263 0.0000
vt 0.1365 0.7651 0.0000
vt 0.0978 0.7651 0.0000
vt 0.1262 0.7629 0.0000
vt 0.1331 0.7567 0.0000
vt 0.1364 0.7480 0.0000
vt 0.1353 0.7388 0.0000
vt 0.1300 0.7312 0.0000
vt 0.1218 0.7269 0.0000
vt 0.1125 0.7269 0.0000
vt 0.1127 0.7640 0.0000
vt 0.0979 0.7480 0.0000
vt 0.1012 0.7567 0.0000
vt 0.1082 0.7629 0.0000
vt 0.0991 0.7388 0.0000
vt 0.1043 0.7312 0.0000
vt 0.1172 0.7651 0.0000
vt 0.1747 0.9451 0.0000
vt 0.0646 0.9451 0.0000
vt 0.0646 0.8744 0.0000
vt 0.1747 0.8744 0.0000
vt 0.1356 0.7517 0.0000
vt 0.1285 0.7300 0.0000
vt 0.1058 0.7300 0.0000
vt 0.0987 0.7517 0.0000
vt 0.1748 0.8744 0.0000
vt 0.0645 0.8744 0.0000
vt 0.0645 0.8021 0.0000
vt 0.1748 0.8021 0.0000
vt 0.1365 0.7457 0.0000
vt 0.0978 0.7457 0.0000
vt 0.1309 0.7594 0.0000
vt 0.1309 0.7320 0.0000
vt 0.1172 0.7263 0.0000
vt 0.1035 0.7320 0.0000
vt 0.1035 0.7594 0.0000
vt 0.1296 0.7605 0.0000
vt 0.1362 0.7491 0.0000
vt 0.1339 0.7360 0.0000
vt 0.1238 0.7275 0.0000
vt 0.1105 0.7275 0.0000
vt 0.1004 0.7360 0.0000
vt 0.0981 0.7491 0.0000
vt 0.1047 0.7605 0.0000
vt 0.1746 0.9451 0.0000
vt 0.0645 0.9451 0.0000
vt 0.1746 0.8744 0.0000
vt 0.0646 0.8021 0.0000
vt 0.1296 0.7598 0.0000
vt 0.0384 0.4935 0.0000
vt 0.3260 0.4935 0.0000
vt 0.3260 0.3974 0.0000
vt 0.0384 0.3974 0.0000
vt 0.3006 0.0717 0.0000
vt 0.3506 0.0717 0.0000
vt 0.3506 0.1217 0.0000
vt 0.3006 0.1217 0.0000
vt 0.4409 0.5525 0.0000
vt 0.4746 0.5525 0.0000
vt 0.4746 0.5239 0.0000
vt 0.4409 0.5239 0.0000
vt 0.4429 0.5127 0.0000
vt 0.4929 0.5127 0.0000
vt 0.4929 0.5627 0.0000
vt 0.4429 0.5627 0.0000
vt 0.4659 0.5622 0.0000
vt 0.4875 0.5497 0.0000
vt 0.4875 0.5247 0.0000
vt 0.4659 0.5122 0.0000
vt 0.4442 0.5247 0.0000
vt 0.4442 0.5497 0.0000
vt 0.4909 0.5239 0.0000
vt 0.4572 0.5239 0.0000
vt 0.4572 0.5525 0.0000
vt 0.4909 0.5525 0.0000
vt 0.2921 0.0688 0.0000
vt 0.3421 0.0688 0.0000
vt 0.3421 0.1188 0.0000
vt 0.2921 0.1188 0.0000
vt 0.1278 0.0937 0.0000
vt 0.1778 0.0937 0.0000
vt 0.1778 0.1437 0.0000
vt 0.1278 0.1437 0.0000
vt 0.0000 0.0000 0.0000
vt 0.1519 0.1209 0.0000
vt 0.5270 0.3967 0.0000
vt 0.5506 0.3967 0.0000
vt 0.5506 0.4203 0.0000
vt 0.5270 0.4203 0.0000
vt 0.5620 0.4438 0.0000
vt 0.4601 0.4438 0.0000
vt 0.4601 0.3750 0.0000
vt 0.5620 0.3750 0.0000
vt 0.8463 0.4438 0.0000
vt 0.8463 0.3750 0.0000
vt 0.9482 0.4438 0.0000
vt 0.9482 0.3750 0.0000
# 199 texture coords

g SPW_Vehicle_Land_Static_Truck_Log
usemtl SPW_Vehicle_Land_Truck_Log
s off
f 1/1/1 2/2/1 3/3/1 4/4/1 
f 4/1/2 3/2/2 5/3/2 6/4/2 
f 6/1/3 5/2/3 7/3/3 8/4/3 
f 8/1/4 7/2/4 9/3/4 10/4/4 
s 1
f 5/1/5 3/2/5 11/3/5 12/4/5 
s off
f 10/1/6 9/2/6 13/3/6 14/4/6 
f 14/1/7 13/2/7 2/3/7 1/4/7 
s 1
f 14/1/8 1/2/8 15/3/8 16/4/8 
f 11/5/5 17/6/5 18/7/5 19/8/5 
f 11/5/5 19/8/5 20/9/5 12/10/5 
f 13/1/5 9/2/5 19/3/5 18/4/5 
f 3/1/5 2/2/5 17/3/5 11/4/5 
f 7/1/5 5/2/5 12/3/5 20/4/5 
f 2/1/5 13/2/5 18/3/5 17/4/5 
f 9/1/5 7/2/5 20/3/5 19/4/5 
f 15/5/8 21/6/8 22/7/8 23/8/8 
f 15/5/8 23/8/8 24/9/8 16/10/8 
f 8/1/8 10/2/8 24/3/8 23/4/8 
f 4/1/8 6/2/8 22/3/8 21/4/8 
f 10/1/8 14/2/8 16/3/8 24/4/8 
f 1/1/8 4/2/8 21/3/8 15/4/8 
f 6/1/8 8/2/8 23/3/8 22/4/8 
s off
f 25/1/1 26/2/1 27/3/1 28/4/1 
f 28/1/2 27/2/2 29/3/2 30/4/2 
f 30/1/3 29/2/3 31/3/3 32/4/3 
f 32/1/4 31/2/4 33/3/4 34/4/4 
s 1
f 29/1/5 27/2/5 35/3/5 36/4/5 
s off
f 34/1/6 33/2/6 37/3/6 38/4/6 
f 38/1/7 37/2/7 26/3/7 25/4/7 
s 1
f 38/1/8 25/2/8 39/3/8 40/4/8 
f 35/5/5 41/6/5 42/7/5 43/8/5 
f 35/5/5 43/8/5 44/9/5 36/10/5 
f 37/1/5 33/2/5 43/3/5 42/4/5 
f 27/1/5 26/2/5 41/3/5 35/4/5 
f 31/1/5 29/2/5 36/3/5 44/4/5 
f 26/1/5 37/2/5 42/3/5 41/4/5 
f 33/1/5 31/2/5 44/3/5 43/4/5 
f 39/5/8 45/6/8 46/7/8 47/8/8 
f 39/5/8 47/8/8 48/9/8 40/10/8 
f 32/1/8 34/2/8 48/3/8 47/4/8 
f 28/1/8 30/2/8 46/3/8 45/4/8 
f 34/1/8 38/2/8 40/3/8 48/4/8 
f 25/1/8 28/2/8 45/3/8 39/4/8 
f 30/1/8 32/2/8 47/3/8 46/4/8 
s off
f 49/1/1 50/2/1 51/3/1 52/4/1 
f 52/1/2 51/2/2 53/3/2 54/4/2 
f 54/1/3 53/2/3 55/3/3 56/4/3 
f 56/1/4 55/2/4 57/3/4 58/4/4 
s 1
f 53/1/5 51/2/5 59/3/5 60/4/5 
s off
f 58/1/6 57/2/6 61/3/6 62/4/6 
f 62/1/7 61/2/7 50/3/7 49/4/7 
s 1
f 62/1/8 49/2/8 63/3/8 64/4/8 
f 59/5/5 65/6/5 66/7/5 67/8/5 
f 59/5/5 67/8/5 68/9/5 60/10/5 
f 61/1/5 57/2/5 67/3/5 66/4/5 
f 51/1/5 50/2/5 65/3/5 59/4/5 
f 55/1/5 53/2/5 60/3/5 68/4/5 
f 50/1/5 61/2/5 66/3/5 65/4/5 
f 57/1/5 55/2/5 68/3/5 67/4/5 
f 63/5/8 69/6/8 70/7/8 71/8/8 
f 63/5/8 71/8/8 72/9/8 64/10/8 
f 56/1/8 58/2/8 72/3/8 71/4/8 
f 52/1/8 54/2/8 70/3/8 69/4/8 
f 58/1/8 62/2/8 64/3/8 72/4/8 
f 49/1/8 52/2/8 69/3/8 63/4/8 
f 54/1/8 56/2/8 71/3/8 70/4/8 
s off
f 73/1/1 74/2/1 75/3/1 76/4/1 
f 76/1/2 75/2/2 77/3/2 78/4/2 
f 78/1/3 77/2/3 79/3/3 80/4/3 
f 80/1/4 79/2/4 81/3/4 82/4/4 
s 1
f 77/1/5 75/2/5 83/3/5 84/4/5 
s off
f 82/1/6 81/2/6 85/3/6 86/4/6 
f 86/1/7 85/2/7 74/3/7 73/4/7 
s 1
f 86/1/8 73/2/8 87/3/8 88/4/8 
f 83/5/5 89/6/5 90/7/5 91/8/5 
f 83/5/5 91/8/5 92/9/5 84/10/5 
f 85/1/5 81/2/5 91/3/5 90/4/5 
f 75/1/5 74/2/5 89/3/5 83/4/5 
f 79/1/5 77/2/5 84/3/5 92/4/5 
f 74/1/5 85/2/5 90/3/5 89/4/5 
f 81/1/5 79/2/5 92/3/5 91/4/5 
f 87/5/8 93/6/8 94/7/8 95/8/8 
f 87/5/8 95/8/8 96/9/8 88/10/8 
f 80/1/8 82/2/8 96/3/8 95/4/8 
f 76/1/8 78/2/8 94/3/8 93/4/8 
f 82/1/8 86/2/8 88/3/8 96/4/8 
f 73/1/8 76/2/8 93/3/8 87/4/8 
f 78/1/8 80/2/8 95/3/8 94/4/8 
s off
f 97/1/1 98/2/1 99/3/1 100/4/1 
f 100/1/2 99/2/2 101/3/2 102/4/2 
f 102/1/3 101/2/3 103/3/3 104/4/3 
f 104/1/4 103/2/4 105/3/4 106/4/4 
s 1
f 101/1/5 99/2/5 107/3/5 108/4/5 
s off
f 106/1/6 105/2/6 109/3/6 110/4/6 
f 110/1/7 109/2/7 98/3/7 97/4/7 
s 1
f 110/1/8 97/2/8 111/3/8 112/4/8 
f 107/5/5 113/6/5 114/7/5 115/8/5 
f 107/5/5 115/8/5 116/9/5 108/10/5 
f 109/1/5 105/2/5 115/3/5 114/4/5 
f 99/1/5 98/2/5 113/3/5 107/4/5 
f 103/1/5 101/2/5 108/3/5 116/4/5 
f 98/1/5 109/2/5 114/3/5 113/4/5 
f 105/1/5 103/2/5 116/3/5 115/4/5 
f 111/5/8 117/6/8 118/7/8 119/8/8 
f 111/5/8 119/8/8 120/9/8 112/10/8 
f 104/1/8 106/2/8 120/3/8 119/4/8 
f 100/1/8 102/2/8 118/3/8 117/4/8 
f 106/1/8 110/2/8 112/3/8 120/4/8 
f 97/1/8 100/2/8 117/3/8 111/4/8 
f 102/1/8 104/2/8 119/3/8 118/4/8 
s off
f 121/1/1 122/2/1 123/3/1 124/4/1 
f 124/1/2 123/2/2 125/3/2 126/4/2 
f 126/1/3 125/2/3 127/3/3 128/4/3 
f 128/1/4 127/2/4 129/3/4 130/4/4 
s 1
f 125/1/5 123/2/5 131/3/5 132/4/5 
s off
f 130/1/6 129/2/6 133/3/6 134/4/6 
f 134/1/7 133/2/7 122/3/7 121/4/7 
s 1
f 134/1/8 121/2/8 135/3/8 136/4/8 
f 131/5/5 137/6/5 138/7/5 139/8/5 
f 131/5/5 139/8/5 140/9/5 132/10/5 
f 133/1/5 129/2/5 139/3/5 138/4/5 
f 123/1/5 122/2/5 137/3/5 131/4/5 
f 127/1/5 125/2/5 132/3/5 140/4/5 
f 122/1/5 133/2/5 138/3/5 137/4/5 
f 129/1/5 127/2/5 140/3/5 139/4/5 
f 135/5/8 141/6/8 142/7/8 143/8/8 
f 135/5/8 143/8/8 144/9/8 136/10/8 
f 128/1/8 130/2/8 144/3/8 143/4/8 
f 124/1/8 126/2/8 142/3/8 141/4/8 
f 130/1/8 134/2/8 136/3/8 144/4/8 
f 121/1/8 124/2/8 141/3/8 135/4/8 
f 126/1/8 128/2/8 143/3/8 142/4/8 
s off
f 145/1/1 146/2/1 147/3/1 148/4/1 
f 148/1/2 147/2/2 149/3/2 150/4/2 
f 150/1/3 149/2/3 151/3/3 152/4/3 
f 152/1/4 151/2/4 153/3/4 154/4/4 
s 1
f 149/1/5 147/2/5 155/3/5 156/4/5 
s off
f 154/1/6 153/2/6 157/3/6 158/4/6 
f 158/1/7 157/2/7 146/3/7 145/4/7 
s 1
f 158/1/8 145/2/8 159/3/8 160/4/8 
f 155/5/5 161/6/5 162/7/5 163/8/5 
f 155/5/5 163/8/5 164/9/5 156/10/5 
f 157/1/5 153/2/5 163/3/5 162/4/5 
f 147/1/5 146/2/5 161/3/5 155/4/5 
f 151/1/5 149/2/5 156/3/5 164/4/5 
f 146/1/5 157/2/5 162/3/5 161/4/5 
f 153/1/5 151/2/5 164/3/5 163/4/5 
f 159/5/8 165/6/8 166/7/8 167/8/8 
f 159/5/8 167/8/8 168/9/8 160/10/8 
f 152/1/8 154/2/8 168/3/8 167/4/8 
f 148/1/8 150/2/8 166/3/8 165/4/8 
f 154/1/8 158/2/8 160/3/8 168/4/8 
f 145/1/8 148/2/8 165/3/8 159/4/8 
f 150/1/8 152/2/8 167/3/8 166/4/8 
s off
f 169/11/9 170/11/9 171/12/9 172/12/9 
f 172/12/10 171/12/10 173/13/10 174/13/10 
f 174/13/11 173/13/11 175/14/11 176/14/11 
f 176/14/5 175/14/5 177/15/5 178/15/5 
f 178/15/12 177/15/12 179/16/12 180/16/12 
f 180/16/13 179/16/13 181/17/13 182/17/13 
f 182/17/14 181/17/14 183/18/14 184/18/14 
f 184/18/15 183/18/15 185/19/15 186/19/15 
f 186/19/16 185/19/16 187/20/16 188/20/16 
f 188/20/17 187/20/17 189/21/17 190/21/17 
f 190/21/8 189/21/8 191/22/8 192/22/8 
f 192/22/18 191/22/18 193/23/18 194/23/18 
f 171/12/19 170/11/19 195/24/19 193/23/19 
f 171/12/19 193/23/19 191/22/19 189/21/19 
f 171/12/19 189/21/19 187/20/19 185/19/19 
f 171/12/19 185/19/19 183/18/19 181/17/19 
f 171/12/19 181/17/19 179/16/19 177/15/19 
f 171/12/19 177/15/19 175/14/19 173/13/19 
f 194/23/20 193/23/20 195/24/20 196/24/20 
f 196/24/21 195/24/21 170/11/21 169/11/21 
f 169/11/22 172/12/22 174/13/22 176/14/22 
f 169/11/23 176/14/23 178/15/23 180/16/23 
f 169/11/23 180/16/23 182/17/23 184/18/23 
f 169/11/23 184/18/23 186/19/23 188/20/23 
f 169/11/24 188/20/24 190/21/24 192/22/24 
f 169/11/24 192/22/24 194/23/24 196/24/24 
f 197/11/9 198/11/9 199/12/9 200/12/9 
f 200/12/10 199/12/10 201/13/10 202/13/10 
f 202/13/11 201/13/11 203/14/11 204/14/11 
f 204/14/5 203/14/5 205/15/5 206/15/5 
f 206/15/12 205/15/12 207/16/12 208/16/12 
f 208/16/13 207/16/13 209/17/13 210/17/13 
f 210/17/14 209/17/14 211/18/14 212/18/14 
f 212/18/15 211/18/15 213/19/15 214/19/15 
f 214/19/16 213/19/16 215/20/16 216/20/16 
f 216/20/17 215/20/17 217/21/17 218/21/17 
f 218/21/8 217/21/8 219/22/8 220/22/8 
f 220/22/18 219/22/18 221/23/18 222/23/18 
f 199/12/25 198/11/25 223/24/25 221/23/25 
f 199/12/25 221/23/25 219/22/25 217/21/25 
f 199/12/19 217/21/19 215/20/19 213/19/19 
f 199/12/19 213/19/19 211/18/19 209/17/19 
f 199/12/19 209/17/19 207/16/19 205/15/19 
f 199/12/25 205/15/25 203/14/25 201/13/25 
f 222/23/20 221/23/20 223/24/20 224/24/20 
f 224/24/21 223/24/21 198/11/21 197/11/21 
f 197/11/22 200/12/22 202/13/22 204/14/22 
f 197/11/22 204/14/22 206/15/22 208/16/22 
f 197/11/22 208/16/22 210/17/22 212/18/22 
f 197/11/23 212/18/23 214/19/23 216/20/23 
f 197/11/24 216/20/24 218/21/24 220/22/24 
f 197/11/24 220/22/24 222/23/24 224/24/24 
f 225/11/9 226/11/9 227/12/9 228/12/9 
f 228/12/10 227/12/10 229/13/10 230/13/10 
f 230/13/11 229/13/11 231/14/11 232/14/11 
f 232/14/26 231/14/26 233/15/26 234/15/26 
f 234/15/12 233/15/12 235/16/12 236/16/12 
f 236/16/27 235/16/27 237/17/27 238/17/27 
f 238/17/28 237/17/28 239/18/28 240/18/28 
f 240/18/15 239/18/15 241/19/15 242/19/15 
f 242/19/16 241/19/16 243/20/16 244/20/16 
f 244/20/17 243/20/17 245/21/17 246/21/17 
f 246/21/29 245/21/29 247/22/29 248/22/29 
f 248/22/18 247/22/18 249/23/18 250/23/18 
f 227/12/25 226/11/25 251/24/25 249/23/25 
f 227/12/25 249/23/25 247/22/25 245/21/25 
f 227/12/19 245/21/19 243/20/19 241/19/19 
f 227/12/19 241/19/19 239/18/19 237/17/19 
f 227/12/19 237/17/19 235/16/19 233/15/19 
f 227/12/19 233/15/19 231/14/19 229/13/19 
f 250/23/20 249/23/20 251/24/20 252/24/20 
f 252/24/21 251/24/21 226/11/21 225/11/21 
f 225/11/22 228/12/22 230/13/22 232/14/22 
f 225/11/22 232/14/22 234/15/22 236/16/22 
f 225/11/24 236/16/24 238/17/24 240/18/24 
f 225/11/24 240/18/24 242/19/24 244/20/24 
f 225/11/24 244/20/24 246/21/24 248/22/24 
f 225/11/24 248/22/24 250/23/24 252/24/24 
f 253/11/30 254/11/30 255/12/30 256/12/30 
f 256/12/31 255/12/31 257/13/31 258/13/31 
f 258/13/11 257/13/11 259/14/11 260/14/11 
f 260/14/26 259/14/26 261/15/26 262/15/26 
f 262/15/12 261/15/12 263/16/12 264/16/12 
f 264/16/13 263/16/13 265/17/13 266/17/13 
f 266/17/14 265/17/14 267/18/14 268/18/14 
f 268/18/15 267/18/15 269/19/15 270/19/15 
f 270/19/16 269/19/16 271/20/16 272/20/16 
f 272/20/17 271/20/17 273/21/17 274/21/17 
f 274/21/8 273/21/8 275/22/8 276/22/8 
f 276/22/18 275/22/18 277/23/18 278/23/18 
f 255/12/19 254/11/19 279/24/19 277/23/19 
f 255/12/25 277/23/25 275/22/25 273/21/25 
f 255/12/19 273/21/19 271/20/19 269/19/19 
f 255/12/25 269/19/25 267/18/25 265/17/25 
f 255/12/25 265/17/25 263/16/25 261/15/25 
f 255/12/19 261/15/19 259/14/19 257/13/19 
f 278/23/20 277/23/20 279/24/20 280/24/20 
f 280/24/21 279/24/21 254/11/21 253/11/21 
f 253/11/32 256/12/32 258/13/32 260/14/32 
f 253/11/22 260/14/22 262/15/22 264/16/22 
f 253/11/23 264/16/23 266/17/23 268/18/23 
f 253/11/22 268/18/22 270/19/22 272/20/22 
f 253/11/22 272/20/22 274/21/22 276/22/22 
f 253/11/32 276/22/32 278/23/32 280/24/32 
f 281/11/9 282/11/9 283/12/9 284/12/9 
f 284/12/10 283/12/10 285/13/10 286/13/10 
f 286/13/11 285/13/11 287/14/11 288/14/11 
f 288/14/5 287/14/5 289/15/5 290/15/5 
f 290/15/12 289/15/12 291/16/12 292/16/12 
f 292/16/13 291/16/13 293/17/13 294/17/13 
f 294/17/14 293/17/14 295/18/14 296/18/14 
f 296/18/15 295/18/15 297/19/15 298/19/15 
f 298/19/16 297/19/16 299/20/16 300/20/16 
f 300/20/17 299/20/17 301/21/17 302/21/17 
f 302/21/8 301/21/8 303/22/8 304/22/8 
f 304/22/18 303/22/18 305/23/18 306/23/18 
f 283/12/19 282/11/19 307/24/19 305/23/19 
f 283/12/19 305/23/19 303/22/19 301/21/19 
f 283/12/25 301/21/25 299/20/25 297/19/25 
f 283/12/19 297/19/19 295/18/19 293/17/19 
f 283/12/19 293/17/19 291/16/19 289/15/19 
f 283/12/19 289/15/19 287/14/19 285/13/19 
f 306/23/20 305/23/20 307/24/20 308/24/20 
f 308/24/21 307/24/21 282/11/21 281/11/21 
f 281/11/24 284/12/24 286/13/24 288/14/24 
f 281/11/22 288/14/22 290/15/22 292/16/22 
f 281/11/23 292/16/23 294/17/23 296/18/23 
f 281/11/24 296/18/24 298/19/24 300/20/24 
f 281/11/32 300/20/32 302/21/32 304/22/32 
f 281/11/23 304/22/23 306/23/23 308/24/23 
f 309/11/9 310/11/9 311/12/9 312/12/9 
f 312/12/10 311/12/10 313/13/10 314/13/10 
f 314/13/11 313/13/11 315/14/11 316/14/11 
f 316/14/5 315/14/5 317/15/5 318/15/5 
f 318/15/12 317/15/12 319/16/12 320/16/12 
f 320/16/13 319/16/13 321/17/13 322/17/13 
f 322/17/14 321/17/14 323/18/14 324/18/14 
f 324/18/15 323/18/15 325/19/15 326/19/15 
f 326/19/16 325/19/16 327/20/16 328/20/16 
f 328/20/17 327/20/17 329/21/17 330/21/17 
f 330/21/8 329/21/8 331/22/8 332/22/8 
f 332/22/18 331/22/18 333/23/18 334/23/18 
f 311/12/19 310/11/19 335/24/19 333/23/19 
f 311/12/19 333/23/19 331/22/19 329/21/19 
f 311/12/19 329/21/19 327/20/19 325/19/19 
f 311/12/19 325/19/19 323/18/19 321/17/19 
f 311/12/19 321/17/19 319/16/19 317/15/19 
f 311/12/19 317/15/19 315/14/19 313/13/19 
f 334/23/20 333/23/20 335/24/20 336/24/20 
f 336/24/21 335/24/21 310/11/21 309/11/21 
f 309/11/22 312/12/22 314/13/22 316/14/22 
f 309/11/23 316/14/23 318/15/23 320/16/23 
f 309/11/23 320/16/23 322/17/23 324/18/23 
f 309/11/23 324/18/23 326/19/23 328/20/23 
f 309/11/24 328/20/24 330/21/24 332/22/24 
f 309/11/24 332/22/24 334/23/24 336/24/24 
f 337/11/9 338/11/9 339/12/9 340/12/9 
f 340/12/31 339/12/31 341/13/31 342/13/31 
f 342/13/33 341/13/33 343/14/33 344/14/33 
f 344/14/5 343/14/5 345/15/5 346/15/5 
f 346/15/12 345/15/12 347/16/12 348/16/12 
f 348/16/13 347/16/13 349/17/13 350/17/13 
f 350/17/14 349/17/14 351/18/14 352/18/14 
f 352/18/15 351/18/15 353/19/15 354/19/15 
f 354/19/16 353/19/16 355/20/16 356/20/16 
f 356/20/17 355/20/17 357/21/17 358/21/17 
f 358/21/8 357/21/8 359/22/8 360/22/8 
f 360/22/18 359/22/18 361/23/18 362/23/18 
f 339/12/25 338/11/25 363/24/25 361/23/25 
f 339/12/25 361/23/25 359/22/25 357/21/25 
f 339/12/19 357/21/19 355/20/19 353/19/19 
f 339/12/19 353/19/19 351/18/19 349/17/19 
f 339/12/19 349/17/19 347/16/19 345/15/19 
f 339/12/25 345/15/25 343/14/25 341/13/25 
f 362/23/20 361/23/20 363/24/20 364/24/20 
f 364/24/21 363/24/21 338/11/21 337/11/21 
f 337/11/22 340/12/22 342/13/22 344/14/22 
f 337/11/22 344/14/22 346/15/22 348/16/22 
f 337/11/22 348/16/22 350/17/22 352/18/22 
f 337/11/23 352/18/23 354/19/23 356/20/23 
f 337/11/24 356/20/24 358/21/24 360/22/24 
f 337/11/24 360/22/24 362/23/24 364/24/24 
f 365/11/9 366/11/9 367/12/9 368/12/9 
f 368/12/10 367/12/10 369/13/10 370/13/10 
f 370/13/11 369/13/11 371/14/11 372/14/11 
f 372/14/26 371/14/26 373/15/26 374/15/26 
f 374/15/34 373/15/34 375/16/34 376/16/34 
f 376/16/27 375/16/27 377/17/27 378/17/27 
f 378/17/14 377/17/14 379/18/14 380/18/14 
f 380/18/15 379/18/15 381/19/15 382/19/15 
f 382/19/16 381/19/16 383/20/16 384/20/16 
f 384/20/17 383/20/17 385/21/17 386/21/17 
f 386/21/8 385/21/8 387/22/8 388/22/8 
f 388/22/18 387/22/18 389/23/18 390/23/18 
f 367/12/25 366/11/25 391/24/25 389/23/25 
f 367/12/25 389/23/25 387/22/25 385/21/25 
f 367/12/19 385/21/19 383/20/19 381/19/19 
f 367/12/19 381/19/19 379/18/19 377/17/19 
f 367/12/19 377/17/19 375/16/19 373/15/19 
f 367/12/19 373/15/19 371/14/19 369/13/19 
f 390/23/20 389/23/20 391/24/20 392/24/20 
f 392/24/21 391/24/21 366/11/21 365/11/21 
f 365/11/22 368/12/22 370/13/22 372/14/22 
f 365/11/24 372/14/24 374/15/24 376/16/24 
f 365/11/22 376/16/22 378/17/22 380/18/22 
f 365/11/23 380/18/23 382/19/23 384/20/23 
f 365/11/24 384/20/24 386/21/24 388/22/24 
f 365/11/24 388/22/24 390/23/24 392/24/24 
f 393/11/30 394/11/30 395/12/30 396/12/30 
f 396/12/10 395/12/10 397/13/10 398/13/10 
f 398/13/11 397/13/11 399/14/11 400/14/11 
f 400/14/26 399/14/26 401/15/26 402/15/26 
f 402/15/12 401/15/12 403/16/12 404/16/12 
f 404/16/13 403/16/13 405/17/13 406/17/13 
f 406/17/28 405/17/28 407/18/28 408/18/28 
f 408/18/15 407/18/15 409/19/15 410/19/15 
f 410/19/16 409/19/16 411/20/16 412/20/16 
f 412/20/17 411/20/17 413/21/17 414/21/17 
f 414/21/8 413/21/8 415/22/8 416/22/8 
f 416/22/18 415/22/18 417/23/18 418/23/18 
f 395/12/19 394/11/19 419/24/19 417/23/19 
f 395/12/25 417/23/25 415/22/25 413/21/25 
f 395/12/19 413/21/19 411/20/19 409/19/19 
f 395/12/25 409/19/25 407/18/25 405/17/25 
f 395/12/25 405/17/25 403/16/25 401/15/25 
f 395/12/19 401/15/19 399/14/19 397/13/19 
f 418/23/20 417/23/20 419/24/20 420/24/20 
f 420/24/21 419/24/21 394/11/21 393/11/21 
f 393/11/22 396/12/22 398/13/22 400/14/22 
f 393/11/24 400/14/24 402/15/24 404/16/24 
f 393/11/22 404/16/22 406/17/22 408/18/22 
f 393/11/22 408/18/22 410/19/22 412/20/22 
f 393/11/22 412/20/22 414/21/22 416/22/22 
f 393/11/32 416/22/32 418/23/32 420/24/32 
f 421/11/9 422/11/9 423/12/9 424/12/9 
f 424/12/10 423/12/10 425/13/10 426/13/10 
f 426/13/11 425/13/11 427/14/11 428/14/11 
f 428/14/5 427/14/5 429/15/5 430/15/5 
f 430/15/34 429/15/34 431/16/34 432/16/34 
f 432/16/13 431/16/13 433/17/13 434/17/13 
f 434/17/14 433/17/14 435/18/14 436/18/14 
f 436/18/35 435/18/35 437/19/35 438/19/35 
f 438/19/16 437/19/16 439/20/16 440/20/16 
f 440/20/17 439/20/17 441/21/17 442/21/17 
f 442/21/8 441/21/8 443/22/8 444/22/8 
f 444/22/18 443/22/18 445/23/18 446/23/18 
f 423/12/19 422/11/19 447/24/19 445/23/19 
f 423/12/19 445/23/19 443/22/19 441/21/19 
f 423/12/25 441/21/25 439/20/25 437/19/25 
f 423/12/19 437/19/19 435/18/19 433/17/19 
f 423/12/19 433/17/19 431/16/19 429/15/19 
f 423/12/19 429/15/19 427/14/19 425/13/19 
f 446/23/20 445/23/20 447/24/20 448/24/20 
f 448/24/21 447/24/21 422/11/21 421/11/21 
f 421/11/22 424/12/22 426/13/22 428/14/22 
f 421/11/23 428/14/23 430/15/23 432/16/23 
f 421/11/23 432/16/23 434/17/23 436/18/23 
f 421/11/23 436/18/23 438/19/23 440/20/23 
f 421/11/32 440/20/32 442/21/32 444/22/32 
f 421/11/23 444/22/23 446/23/23 448/24/23 
f 449/25/24 450/26/24 451/27/24 452/28/24 
f 450/25/5 453/26/5 454/27/5 451/28/5 
f 453/25/19 455/26/19 456/27/19 454/28/19 
f 455/25/8 449/26/8 452/27/8 456/28/8 
f 452/25/36 451/26/36 454/27/36 456/28/36 
f 455/25/37 453/26/37 450/27/37 449/28/37 
f 457/25/24 458/26/24 459/27/24 460/28/24 
f 458/25/5 461/26/5 462/27/5 459/28/5 
f 461/25/19 463/26/19 464/27/19 462/28/19 
f 463/25/8 457/26/8 460/27/8 464/28/8 
f 460/25/36 459/26/36 462/27/36 464/28/36 
f 463/25/37 461/26/37 458/27/37 457/28/37 
f 465/25/24 466/26/24 467/27/24 468/28/24 
f 466/25/5 469/26/5 470/27/5 467/28/5 
f 469/25/19 471/26/19 472/27/19 470/28/19 
f 471/25/8 465/26/8 468/27/8 472/28/8 
f 468/25/36 467/26/36 470/27/36 472/28/36 
f 471/25/37 469/26/37 466/27/37 465/28/37 
f 473/25/24 474/26/24 475/27/24 476/28/24 
f 474/25/5 477/26/5 478/27/5 475/28/5 
f 477/25/19 479/26/19 480/27/19 478/28/19 
f 479/25/8 473/26/8 476/27/8 480/28/8 
f 476/25/36 475/26/36 478/27/36 480/28/36 
f 479/25/37 477/26/37 474/27/37 473/28/37 
f 481/25/24 482/26/24 483/27/24 484/28/24 
f 482/25/5 485/26/5 486/27/5 483/28/5 
f 485/25/19 487/26/19 488/27/19 486/28/19 
f 487/25/8 481/26/8 484/27/8 488/28/8 
f 484/25/36 483/26/36 486/27/36 488/28/36 
f 487/25/37 485/26/37 482/27/37 481/28/37 
f 489/25/24 490/26/24 491/27/24 492/28/24 
f 490/25/5 493/26/5 494/27/5 491/28/5 
f 493/25/19 495/26/19 496/27/19 494/28/19 
f 495/25/8 489/26/8 492/27/8 496/28/8 
f 492/25/36 491/26/36 494/27/36 496/28/36 
f 495/25/37 493/26/37 490/27/37 489/28/37 
f 497/29/38 498/30/38 499/31/38 500/32/38 
f 497/33/39 500/34/39 501/35/39 502/36/39 
f 497/33/36 502/36/36 503/37/36 504/38/36 
f 497/33/36 504/38/36 505/39/36 506/40/36 
f 506/29/40 507/30/40 498/31/40 497/32/40 
s 1
f 498/30/19 498/30/19 499/32/19 499/32/19 
s off
f 500/29/41 499/30/41 508/31/41 501/32/41 
f 501/29/42 508/30/42 509/31/42 502/32/42 
f 502/29/43 509/30/43 510/31/43 503/32/43 
f 503/29/44 510/30/44 511/31/44 504/32/44 
f 504/29/45 511/30/45 512/31/45 505/32/45 
f 505/29/46 512/30/46 507/31/46 506/32/46 
s 1
f 498/32/19 498/32/19 507/30/19 507/30/19 
f 507/32/19 507/32/19 512/30/19 512/30/19 
s 2
f 499/29/37 498/30/37 513/31/37 514/32/37 
f 498/29/37 507/30/37 515/31/37 513/32/37 
s 1
f 508/32/19 508/32/19 499/30/19 499/30/19 
f 509/32/19 509/32/19 508/30/19 508/30/19 
f 510/32/19 510/32/19 509/30/19 509/30/19 
f 511/32/19 511/32/19 510/30/19 510/30/19 
f 512/32/19 512/32/19 511/30/19 511/30/19 
s off
f 507/29/37 512/30/37 516/31/37 515/32/37 
f 508/29/37 499/30/37 514/31/37 517/32/37 
f 509/29/37 508/30/37 517/31/37 518/32/37 
s 2
f 510/29/47 509/30/37 518/31/37 519/32/47 
f 511/29/37 510/30/47 519/31/47 520/32/37 
s off
f 512/29/47 511/30/47 520/31/47 516/32/47 
f 514/30/48 521/31/48 522/32/48 517/29/48 
f 521/32/49 514/29/49 513/30/49 523/31/49 
f 523/32/50 513/29/50 515/30/50 524/31/50 
f 524/32/51 515/29/51 516/30/51 525/31/51 
f 519/30/52 526/31/52 527/32/52 520/29/52 
f 520/30/53 527/31/53 525/32/53 516/29/53 
f 523/30/54 528/31/54 529/32/54 521/41/54 
f 524/30/55 530/31/55 528/32/55 523/41/55 
f 531/32/56 518/29/56 517/30/56 522/31/56 
f 526/32/57 519/29/57 518/30/57 531/31/57 
f 521/30/58 529/31/58 532/32/58 522/29/58 
f 530/32/59 524/41/59 525/30/59 533/31/59 
f 533/32/60 525/29/60 527/30/60 534/31/60 
f 522/30/61 532/31/61 535/32/61 531/29/61 
f 531/30/62 535/31/62 536/32/62 526/29/62 
f 534/32/63 527/29/63 526/30/63 536/31/63 
f 529/29/64 528/30/64 537/31/64 538/32/64 
f 528/29/65 530/30/65 539/31/65 537/32/65 
f 530/29/66 533/30/66 540/31/66 539/32/66 
f 533/29/67 534/30/67 541/31/67 540/32/67 
f 534/29/68 536/30/68 542/31/68 541/32/68 
f 532/29/69 529/30/69 538/31/69 543/32/69 
f 543/40/70 538/33/70 537/34/70 539/35/70 
f 543/40/71 539/35/71 540/36/71 541/37/71 
f 543/40/71 541/37/71 542/38/71 544/39/71 
f 535/29/72 532/30/72 543/31/72 544/32/72 
f 536/29/73 535/30/73 544/31/73 542/32/73 
f 545/29/38 546/30/38 547/31/38 548/32/38 
f 545/33/36 548/34/36 549/35/36 550/36/36 
f 545/33/36 550/36/36 551/37/36 552/38/36 
f 545/33/36 552/38/36 553/39/36 554/40/36 
f 554/29/40 555/30/40 546/31/40 545/32/40 
f 548/29/41 547/30/41 556/31/41 549/32/41 
f 549/29/42 556/30/42 557/31/42 550/32/42 
f 550/29/43 557/30/43 558/31/43 551/32/43 
f 551/29/44 558/30/44 559/31/44 552/32/44 
f 552/29/45 559/30/45 560/31/45 553/32/45 
f 553/29/46 560/30/46 555/31/46 554/32/46 
s 1
f 547/32/19 547/32/19 546/30/19 546/30/19 
f 546/32/19 546/32/19 555/30/19 555/30/19 
f 547/30/19 547/30/19 556/32/19 556/32/19 
f 556/30/19 556/30/19 557/32/19 557/32/19 
f 557/30/19 557/30/19 558/32/19 558/32/19 
f 558/30/19 558/30/19 559/32/19 559/32/19 
f 559/30/19 559/30/19 560/32/19 560/32/19 
f 560/30/19 560/30/19 555/32/19 555/32/19 
s off
f 547/29/37 546/30/37 561/31/37 562/32/37 
s 2
f 546/29/37 555/30/37 563/31/37 561/32/37 
f 555/29/37 560/30/37 564/31/37 563/32/37 
f 556/29/37 547/30/37 562/31/37 565/32/37 
s off
f 561/30/74 566/31/74 567/32/74 562/29/74 
s 2
f 557/29/37 556/30/37 565/31/37 568/32/37 
s off
f 558/29/37 557/30/37 568/31/37 569/32/37 
s 2
f 559/29/37 558/30/37 569/31/37 570/32/37 
f 560/29/37 559/30/37 570/31/37 564/32/37 
s off
f 564/30/51 571/31/51 572/32/51 563/29/51 
f 562/30/48 567/31/48 573/32/48 565/29/48 
f 566/32/75 561/29/75 563/30/75 572/31/75 
f 565/30/76 573/31/76 574/32/76 568/29/76 
f 568/30/77 574/31/77 575/32/77 569/29/77 
f 571/32/78 564/29/78 570/30/78 576/31/78 
f 572/30/79 577/31/79 578/32/79 566/41/79 
f 571/30/80 579/31/80 577/32/80 572/41/80 
f 576/32/81 570/29/81 569/30/81 575/31/81 
f 576/30/82 580/31/82 579/32/82 571/29/82 
f 567/30/83 581/31/83 582/32/83 573/29/83 
f 581/32/84 567/41/84 566/30/84 578/31/84 
f 573/30/85 582/31/85 583/32/85 574/29/85 
f 574/30/86 583/31/86 584/32/86 575/29/86 
f 575/30/87 584/31/87 580/32/87 576/29/87 
f 581/29/88 578/30/88 585/31/88 586/32/88 
f 578/29/89 577/30/89 587/31/89 585/32/89 
f 577/29/66 579/30/66 588/31/66 587/32/66 
f 579/29/67 580/30/67 589/31/67 588/32/67 
f 580/29/68 584/30/68 590/31/68 589/32/68 
f 582/29/69 581/30/69 586/31/69 591/32/69 
f 585/34/90 587/35/90 588/36/90 589/37/90 
f 585/34/91 589/37/91 590/38/91 592/39/91 
f 585/34/91 592/39/91 591/40/91 586/33/91 
f 583/29/72 582/30/72 591/31/72 592/32/72 
f 584/29/73 583/30/73 592/31/73 590/32/73 
f 593/29/38 594/30/38 595/31/38 596/32/38 
f 593/33/92 596/34/92 597/35/92 598/36/92 
f 593/33/36 598/36/36 599/37/36 600/38/36 
f 593/33/93 600/38/93 601/39/93 602/40/93 
f 602/29/40 603/30/40 594/31/40 593/32/40 
f 595/33/37 594/34/37 603/35/37 604/36/37 
f 595/33/37 604/36/37 605/37/37 606/38/37 
f 595/33/37 606/38/37 607/39/37 608/40/37 
f 596/29/41 595/30/41 608/31/41 597/32/41 
f 597/29/42 608/30/42 607/31/42 598/32/42 
f 598/29/43 607/30/43 606/31/43 599/32/43 
f 599/29/44 606/30/44 605/31/44 600/32/44 
f 600/29/45 605/30/45 604/31/45 601/32/45 
f 601/29/46 604/30/46 603/31/46 602/32/46 
f 609/29/38 610/30/38 611/31/38 612/32/38 
f 609/33/36 612/34/36 613/35/36 614/36/36 
f 609/33/36 614/36/36 615/37/36 616/38/36 
f 609/33/36 616/38/36 617/39/36 618/40/36 
f 618/29/40 619/30/40 610/31/40 609/32/40 
f 611/33/37 610/34/37 619/35/37 620/36/37 
f 611/33/37 620/36/37 621/37/37 622/38/37 
f 611/33/37 622/38/37 623/39/37 624/40/37 
f 612/29/41 611/30/41 624/31/41 613/32/41 
f 613/29/42 624/30/42 623/31/42 614/32/42 
f 614/29/43 623/30/43 622/31/43 615/32/43 
f 615/29/44 622/30/44 621/31/44 616/32/44 
f 616/29/45 621/30/45 620/31/45 617/32/45 
f 617/29/46 620/30/46 619/31/46 618/32/46 
f 625/29/38 626/30/38 627/31/38 628/32/38 
f 625/33/92 628/34/92 629/35/92 630/36/92 
f 625/33/93 630/36/93 631/37/93 632/38/93 
f 625/33/93 632/38/93 633/39/93 634/40/93 
f 634/29/40 635/30/40 626/31/40 625/32/40 
f 627/33/37 626/34/37 635/35/37 636/36/37 
f 627/33/47 636/36/47 637/37/47 638/38/47 
f 627/33/37 638/38/37 639/39/37 640/40/37 
f 628/29/94 627/30/94 640/31/94 629/32/94 
f 629/29/95 640/30/95 639/31/95 630/32/95 
f 630/29/96 639/30/96 638/31/96 631/32/96 
f 631/29/97 638/30/97 637/31/97 632/32/97 
f 632/29/98 637/30/98 636/31/98 633/32/98 
f 633/29/99 636/30/99 635/31/99 634/32/99 
f 641/29/38 642/30/38 643/31/38 644/32/38 
f 641/33/92 644/34/92 645/35/92 646/36/92 
f 641/33/36 646/36/36 647/37/36 648/38/36 
f 641/33/93 648/38/93 649/39/93 650/40/93 
f 650/29/40 651/30/40 642/31/40 641/32/40 
f 643/33/37 642/34/37 651/35/37 652/36/37 
f 643/33/37 652/36/37 653/37/37 654/38/37 
f 643/33/37 654/38/37 655/39/37 656/40/37 
f 644/29/41 643/30/41 656/31/41 645/32/41 
f 645/29/42 656/30/42 655/31/42 646/32/42 
f 646/29/43 655/30/43 654/31/43 647/32/43 
f 647/29/44 654/30/44 653/31/44 648/32/44 
f 648/29/45 653/30/45 652/31/45 649/32/45 
f 649/29/46 652/30/46 651/31/46 650/32/46 
f 657/29/38 658/30/38 659/31/38 660/32/38 
f 657/33/36 660/34/36 661/35/36 662/36/36 
f 657/33/36 662/36/36 663/37/36 664/38/36 
f 657/33/36 664/38/36 665/39/36 666/40/36 
f 666/29/40 667/30/40 658/31/40 657/32/40 
f 659/33/37 658/34/37 667/35/37 668/36/37 
f 659/33/37 668/36/37 669/37/37 670/38/37 
f 659/33/37 670/38/37 671/39/37 672/40/37 
f 660/29/41 659/30/41 672/31/41 661/32/41 
f 661/29/42 672/30/42 671/31/42 662/32/42 
f 662/29/43 671/30/43 670/31/43 663/32/43 
f 663/29/44 670/30/44 669/31/44 664/32/44 
f 664/29/45 669/30/45 668/31/45 665/32/45 
f 665/29/46 668/30/46 667/31/46 666/32/46 
f 673/29/38 674/30/38 675/31/38 676/32/38 
f 673/33/92 676/34/92 677/35/92 678/36/92 
f 673/33/93 678/36/93 679/37/93 680/38/93 
f 673/33/93 680/38/93 681/39/93 682/40/93 
f 682/29/40 683/30/40 674/31/40 673/32/40 
f 675/33/37 674/34/37 683/35/37 684/36/37 
f 675/33/47 684/36/47 685/37/47 686/38/47 
f 675/33/37 686/38/37 687/39/37 688/40/37 
f 676/29/94 675/30/94 688/31/94 677/32/94 
f 677/29/95 688/30/95 687/31/95 678/32/95 
f 678/29/96 687/30/96 686/31/96 679/32/96 
f 679/29/97 686/30/97 685/31/97 680/32/97 
f 680/29/98 685/30/98 684/31/98 681/32/98 
f 681/29/99 684/30/99 683/31/99 682/32/99 
f 689/42/100 690/43/100 691/44/100 692/45/100 
f 690/43/101 693/46/101 694/47/101 691/44/101 
f 693/46/102 695/48/102 696/49/102 694/47/102 
f 695/48/103 689/42/103 692/45/103 696/49/103 
f 692/45/104 691/44/104 694/47/104 696/49/104 
f 695/48/105 693/46/105 690/43/105 689/42/105 
s 1
f 697/50/5 698/50/5 699/51/5 700/51/5 
s off
f 701/52/36 699/51/36 702/51/36 703/52/36 
s 1
f 704/53/8 705/53/8 706/52/8 701/52/8 
s 2
f 705/53/24 697/50/24 700/51/24 706/52/24 
f 706/52/24 700/51/24 707/54/24 708/55/24 
s 4
f 705/53/37 704/53/37 698/50/37 697/50/37 
s off
f 709/50/19 710/53/19 703/52/19 702/51/19 
s 1
f 704/53/8 701/52/8 703/52/8 710/53/8 
s 4
f 698/50/37 704/53/37 710/53/37 709/50/37 
s 1
f 699/51/5 698/50/5 709/50/5 702/51/5 
s 2
f 708/55/24 707/54/24 711/56/24 712/57/24 
s 1
f 701/52/8 706/52/8 708/55/8 713/55/8 
s off
f 699/51/19 701/52/19 713/55/19 714/54/19 
s 1
f 700/51/5 699/51/5 714/54/106 707/54/5 
s 4
f 711/56/36 715/56/36 716/57/36 712/57/36 
s 1
f 713/55/8 708/55/8 712/57/8 716/57/8 
f 715/56/106 714/54/106 717/54/106 718/56/106 
f 707/54/5 714/54/106 715/56/106 711/56/5 
s off
f 717/54/19 719/55/19 720/57/19 718/56/19 
s 1
f 713/55/8 716/57/8 720/57/8 719/55/8 
s 4
f 716/57/36 715/56/36 718/56/36 720/57/36 
s off
f 714/54/37 713/55/37 719/55/37 717/54/37 
f 721/58/107 722/59/107 723/60/107 724/61/107 
f 722/59/108 725/62/108 726/63/108 723/60/108 
f 725/62/109 727/64/109 728/65/109 726/63/109 
f 727/64/110 721/58/110 724/61/110 728/65/110 
f 724/61/111 723/60/111 726/63/111 728/65/111 
f 727/64/112 725/62/112 722/59/112 721/58/112 
s 1
f 729/53/8 730/53/8 731/52/8 732/52/8 
s off
f 733/51/36 731/52/36 734/52/36 735/51/36 
s 1
f 736/50/5 737/50/5 738/51/5 733/51/5 
s 2
f 737/50/19 729/53/19 732/52/19 738/51/19 
f 738/51/19 732/52/19 739/55/19 740/54/19 
s 4
f 737/50/37 736/50/37 730/53/37 729/53/37 
s off
f 741/53/24 742/50/24 735/51/24 734/52/24 
s 1
f 736/50/5 733/51/5 735/51/5 742/50/5 
s 4
f 730/53/37 736/50/37 742/50/37 741/53/37 
s 1
f 731/52/8 730/53/8 741/53/8 734/52/8 
s 2
f 740/54/19 739/55/19 743/57/19 744/56/19 
s 1
f 733/51/5 738/51/5 740/54/5 745/54/5 
s off
f 731/52/24 733/51/24 745/54/24 746/55/24 
s 1
f 732/52/8 731/52/8 746/55/8 739/55/8 
s 4
f 743/57/36 747/57/36 748/56/36 744/56/36 
s 1
f 745/54/5 740/54/5 744/56/5 748/56/5 
f 747/57/8 746/55/8 749/55/8 750/57/8 
f 739/55/8 746/55/8 747/57/8 743/57/8 
s off
f 749/55/24 751/54/24 752/56/24 750/57/24 
s 1
f 745/54/5 748/56/5 752/56/5 751/54/5 
s 4
f 748/56/36 747/57/36 750/57/36 752/56/36 
s off
f 746/55/37 745/54/37 751/54/37 749/55/37 
f 753/66/24 754/67/24 755/68/24 756/69/24 
f 757/66/8 753/66/8 756/69/8 758/69/8 
f 757/66/37 759/67/37 754/67/37 753/66/37 
f 754/67/5 759/67/5 760/68/5 755/68/5 
f 756/69/36 755/68/36 760/68/36 758/69/36 
f 759/67/19 757/66/19 758/69/19 760/68/19 
f 761/66/24 762/67/24 763/68/24 764/69/24 
f 765/66/8 761/66/8 764/69/8 766/69/8 
f 765/66/37 767/67/37 762/67/37 761/66/37 
f 762/67/5 767/67/5 768/68/5 763/68/5 
f 764/69/36 763/68/36 768/68/36 766/69/36 
f 767/67/19 765/66/19 766/69/19 768/68/19 
f 769/70/37 770/71/37 771/72/37 772/73/37 
f 773/70/8 769/71/8 772/72/8 774/73/8 
f 773/70/19 775/71/19 770/72/19 769/73/19 
f 770/70/5 775/71/5 776/72/5 771/73/5 
f 772/70/22 771/71/22 776/72/22 774/73/22 
f 775/70/36 773/71/36 774/72/36 776/73/36 
f 777/70/24 778/71/24 779/72/24 780/73/24 
f 781/70/8 777/71/8 780/72/8 782/73/8 
f 781/70/37 783/71/37 778/72/37 777/73/37 
f 778/70/5 783/71/5 784/72/5 779/73/5 
f 780/70/36 779/71/36 784/72/36 782/73/36 
f 783/70/19 781/71/19 782/72/19 784/73/19 
f 785/70/24 786/71/24 787/72/24 788/73/24 
f 789/70/8 785/71/8 788/72/8 790/73/8 
f 789/70/37 791/71/37 786/72/37 785/73/37 
f 786/70/5 791/71/5 792/72/5 787/73/5 
f 788/70/36 787/71/36 792/72/36 790/73/36 
f 791/70/19 789/71/19 790/72/19 792/73/19 
f 793/70/24 794/71/24 795/72/24 796/73/24 
f 797/70/8 793/71/8 796/72/8 798/73/8 
f 797/70/113 799/71/113 794/72/113 793/73/113 
f 794/70/5 799/71/5 800/72/5 795/73/5 
f 796/70/36 795/71/36 800/72/36 798/73/36 
f 799/70/19 797/71/19 798/72/19 800/73/19 
f 801/70/24 802/71/24 803/72/24 804/73/24 
f 805/70/8 801/71/8 804/72/8 806/73/8 
f 805/70/37 807/71/37 802/72/37 801/73/37 
f 802/70/5 807/71/5 808/72/5 803/73/5 
f 804/70/93 803/71/93 808/72/93 806/73/93 
f 807/70/19 805/71/19 806/72/19 808/73/19 
f 809/70/24 810/71/24 811/72/24 812/73/24 
f 813/70/8 809/71/8 812/72/8 814/73/8 
f 813/70/37 815/71/37 810/72/37 809/73/37 
f 810/70/5 815/71/5 816/72/5 811/73/5 
f 812/70/36 811/71/36 816/72/36 814/73/36 
f 815/70/19 813/71/19 814/72/19 816/73/19 
f 817/74/19 818/74/19 819/75/19 820/75/19 
f 821/76/114 817/77/114 820/78/114 822/79/114 
s 1
f 821/80/47 823/80/47 818/74/115 817/74/115 
s off
f 818/74/116 823/80/116 824/81/116 819/75/116 
s 1
f 820/75/36 819/75/36 824/81/36 822/81/36 
s off
f 825/82/5 821/76/5 822/79/5 826/83/5 
s 1
f 825/84/47 827/84/47 823/80/47 821/80/47 
s off
f 823/80/8 827/84/8 828/85/8 824/81/8 
s 1
f 822/81/36 824/81/36 828/85/36 826/85/36 
s off
f 829/86/117 825/82/117 826/83/117 830/87/117 
s 1
f 829/88/37 831/88/37 827/84/47 825/84/47 
s off
f 827/84/118 831/88/118 832/89/118 828/85/118 
s 1
f 826/85/36 828/85/36 832/89/36 830/89/36 
s off
f 831/88/24 829/88/24 830/89/24 832/89/24 
f 833/90/22 834/91/22 835/92/22 836/93/22 
f 837/94/8 833/95/8 836/96/8 838/97/8 
s 1
f 833/95/47 837/94/37 839/94/37 840/95/47 
s off
f 834/98/5 841/99/5 842/100/5 835/101/5 
f 836/94/36 835/95/36 842/96/36 838/97/36 
f 841/91/19 837/90/19 838/93/19 842/92/19 
s 1
f 843/102/22 844/103/22 845/104/22 846/105/22 
f 847/102/32 843/103/22 846/104/22 848/105/22 
s 2
f 849/102/37 850/103/37 844/104/37 843/105/37 
s off
f 844/102/106 850/103/106 851/104/106 845/105/106 
s 2
f 846/102/36 845/103/39 851/104/39 852/105/39 
s 1
f 847/106/32 848/107/22 853/108/24 854/109/24 
f 847/106/32 854/109/24 855/110/24 856/111/24 
f 847/106/32 856/111/24 857/112/32 858/113/32 
f 859/114/23 860/115/24 861/116/22 862/117/22 
f 862/117/22 861/116/22 858/113/32 863/118/32 
f 857/112/32 863/118/32 858/113/32 
f 864/119/22 847/106/32 858/113/32 
s 4
f 865/102/119 849/103/119 843/104/119 847/105/119 
s 2
f 848/102/36 846/103/36 852/104/39 866/105/36 
f 867/102/37 868/103/37 850/104/37 849/105/37 
s 1
f 851/102/120 850/103/120 869/104/120 870/105/120 
s 2
f 852/102/39 851/103/39 871/104/39 872/105/36 
f 873/120/121 864/121/121 858/122/122 874/123/121 
s 8
f 873/102/37 865/103/47 847/104/37 864/105/37 
s 2
f 853/102/36 848/103/36 866/104/36 875/105/36 
s off
f 854/119/8 853/124/8 875/125/8 876/126/8 
f 854/119/8 876/126/8 877/127/8 
f 855/102/17 854/103/17 877/104/17 878/105/17 
f 856/102/16 855/103/16 878/104/16 879/105/16 
f 857/102/15 856/103/15 879/104/15 880/105/15 
f 863/102/14 857/103/14 880/104/14 881/105/14 
f 862/102/13 863/103/13 881/104/13 882/105/13 
f 859/102/12 862/103/12 882/104/12 883/105/12 
f 884/119/5 885/124/5 860/125/5 859/126/5 
f 884/119/5 859/126/5 883/127/5 
f 861/102/36 860/103/36 885/104/36 886/105/36 
s 2
f 874/128/121 858/129/122 861/130/122 886/131/121 
s 4
f 887/102/119 867/103/123 849/104/119 865/105/119 
s 2
f 866/102/36 852/103/39 872/104/36 888/105/93 
f 889/102/37 890/103/37 868/104/37 867/105/37 
s 1
f 850/102/120 868/103/8 891/104/8 892/105/120 
s 2
f 893/102/39 851/103/39 870/104/39 894/105/36 
s 1
f 850/102/120 892/103/120 895/104/120 869/105/120 
s 4
f 870/102/22 869/103/22 896/104/22 894/105/22 
s 2
f 871/102/39 851/103/39 893/104/39 897/105/36 
f 872/102/36 871/103/39 898/104/39 899/105/36 
s 1
f 900/102/124 873/103/8 874/132/124 901/133/124 
s 8
f 900/102/47 887/103/47 865/104/47 873/105/37 
s off
f 886/119/36 885/134/36 884/132/36 888/133/36 
f 876/135/36 875/136/36 866/137/36 888/133/36 
f 884/132/93 876/135/93 888/133/93 
f 886/119/36 888/133/36 902/138/36 
f 876/119/22 884/139/22 883/140/22 882/141/22 
f 876/119/23 882/141/23 881/142/23 880/143/23 
f 876/119/23 880/143/23 879/144/23 878/145/23 
f 876/119/24 878/145/24 877/146/24 
f 901/133/120 874/132/120 886/104/120 902/105/120 
s 4
f 903/102/123 889/103/123 867/104/123 887/105/119 
s 2
f 888/102/93 872/103/36 899/104/36 904/105/93 
f 905/102/37 906/103/37 890/104/37 889/105/37 
s 1
f 868/102/8 890/103/8 907/104/8 891/105/8 
s 2
f 892/102/37 891/103/47 908/104/37 909/105/37 
s 1
f 910/102/5 893/103/5 894/104/5 896/105/5 
s 2
f 892/102/37 909/103/37 911/104/37 895/105/37 
s 4
f 896/102/22 869/103/22 895/104/22 911/105/22 
s 2
f 898/102/39 871/103/39 897/104/36 912/105/36 
s 1
f 910/102/5 913/103/5 897/104/5 893/105/5 
s 2
f 899/102/36 898/103/39 914/104/36 915/105/36 
s 1
f 916/102/29 900/103/124 901/132/124 917/133/29 
s 8
f 916/102/37 903/103/37 887/104/47 900/105/47 
s 2
f 902/102/36 888/103/93 904/104/93 918/105/36 
s 4
f 917/133/8 901/132/8 902/104/8 918/105/8 
f 919/102/123 905/103/119 889/104/123 903/105/123 
s 2
f 904/102/93 899/103/36 915/104/36 920/105/36 
f 921/102/37 922/103/37 906/104/37 905/105/37 
s 1
f 890/102/8 906/103/8 923/104/8 907/105/8 
s 2
f 891/102/47 907/103/47 924/104/47 908/105/37 
s 1
f 913/102/5 910/103/5 909/104/5 908/105/5 
f 909/102/5 910/103/5 896/104/5 911/105/5 
s 2
f 914/102/36 898/103/39 912/104/36 925/105/36 
s 1
f 913/102/5 926/103/5 912/104/5 897/105/5 
s 2
f 915/102/36 914/103/36 927/104/39 928/105/39 
s 1
f 929/102/29 916/103/29 917/132/29 930/133/8 
s 8
f 929/102/47 919/103/47 903/104/37 916/105/37 
s off
f 918/119/39 904/134/39 920/132/39 931/136/39 
f 920/132/36 932/135/36 931/136/36 
f 918/119/93 931/136/93 933/137/93 934/133/93 
f 918/119/36 934/133/36 935/138/36 
s 4
f 930/133/8 917/132/8 918/104/8 935/105/8 
f 936/102/119 921/103/119 905/104/119 919/105/123 
s 2
f 920/102/36 915/103/36 928/104/39 937/105/36 
s 1
f 922/102/19 921/103/19 928/104/19 927/105/19 
s off
f 906/102/106 922/103/106 927/104/106 914/105/106 
s 4
f 923/102/8 906/103/8 938/104/8 939/105/8 
s 2
f 907/102/47 923/103/47 940/104/47 924/105/47 
s 1
f 926/102/5 913/103/5 908/104/5 924/105/5 
s 2
f 914/102/36 925/103/36 941/104/36 942/105/36 
s 1
f 926/102/5 943/103/5 925/104/5 912/105/5 
s 2
f 944/147/125 929/148/125 930/129/125 945/149/125 
s 8
f 944/102/47 936/103/47 919/104/47 929/105/47 
s 2
f 932/102/36 920/103/36 937/104/36 946/105/36 
s off
f 947/119/8 931/124/8 932/125/8 946/126/8 
f 947/119/8 946/126/8 948/127/8 
f 933/119/19 931/139/19 947/140/19 949/141/19 
f 933/119/126 949/141/126 950/142/126 951/143/126 
f 933/119/19 951/143/19 952/144/19 953/145/19 
f 933/119/19 953/145/19 954/146/19 
f 955/119/5 956/124/5 934/125/5 933/126/5 
f 955/119/106 933/126/106 954/127/106 
f 935/102/36 934/103/36 956/104/36 957/105/36 
s 2
f 945/128/125 930/122/125 935/150/125 957/131/125 
s 1
f 921/102/19 936/103/25 937/104/19 928/105/19 
s 4
f 906/102/8 914/103/8 942/104/8 938/105/8 
s 2
f 940/102/47 923/103/47 939/104/47 958/105/37 
s 8
f 938/102/19 959/103/19 958/104/19 939/105/19 
s 1
f 943/102/5 926/103/5 924/104/5 940/105/5 
f 925/102/5 943/103/5 959/104/5 941/105/5 
s 8
f 938/102/19 942/103/19 941/104/19 959/105/19 
s 1
f 936/119/25 944/106/19 945/151/25 960/111/25 
f 945/151/25 957/107/19 956/108/19 955/109/19 
f 945/151/25 955/109/19 961/110/19 960/111/25 
f 936/119/25 960/111/25 962/112/19 963/118/19 
f 936/119/25 963/118/19 964/117/19 948/114/19 
f 936/119/25 948/114/19 946/115/19 937/116/19 
s off
f 948/102/17 964/103/17 949/104/17 947/105/17 
f 964/102/16 963/103/16 950/104/16 949/105/16 
f 963/102/15 962/103/15 951/104/15 950/105/15 
f 962/102/14 960/103/14 952/104/14 951/105/14 
f 960/102/27 961/103/27 953/104/27 952/105/27 
f 961/102/34 955/103/34 954/104/34 953/105/34 
s 1
f 943/102/5 940/103/5 958/104/5 959/105/5 
s off
f 965/152/22 966/153/22 967/154/22 968/155/22 
f 969/152/8 965/152/8 968/155/8 970/155/8 
f 969/152/37 971/153/37 966/153/37 965/152/37 
f 966/153/5 971/153/5 972/154/5 967/154/5 
f 968/155/36 967/154/36 972/154/36 970/155/36 
f 971/153/19 969/152/19 970/155/19 972/154/19 
f 973/152/22 974/153/22 975/154/22 976/155/22 
f 977/152/8 973/152/8 976/155/8 978/155/8 
f 977/152/37 979/153/37 974/153/37 973/152/37 
f 974/153/5 979/153/5 980/154/5 975/154/5 
f 976/155/36 975/154/36 980/154/36 978/155/36 
f 979/153/19 977/152/19 978/155/19 980/154/19 
s 1
f 839/156/37 981/157/47 982/158/37 840/159/47 
f 834/95/37 833/94/47 840/94/47 982/95/37 
f 837/95/37 841/94/47 981/94/47 839/95/37 
f 841/95/47 834/94/37 982/94/37 981/95/47 
s off
f 983/70/37 984/71/37 985/72/37 986/73/37 
f 987/70/8 983/71/8 986/72/8 988/73/8 
f 987/70/126 989/71/126 984/72/126 983/73/126 
f 984/70/5 989/71/5 990/72/5 985/73/5 
f 986/70/23 985/71/23 990/72/23 988/73/23 
f 989/70/36 987/71/36 988/72/36 990/73/36 
f 991/70/37 992/71/37 993/72/37 994/73/37 
f 995/70/8 991/71/8 994/72/8 996/73/8 
f 995/70/126 997/71/126 992/72/126 991/73/126 
f 992/70/5 997/71/5 998/72/5 993/73/5 
f 994/70/23 993/71/23 998/72/23 996/73/23 
f 997/70/36 995/71/36 996/72/36 998/73/36 
f 999/70/24 1000/71/24 1001/72/24 1002/73/24 
f 1003/70/8 999/71/8 1002/72/8 1004/73/8 
f 1003/70/37 1005/71/37 1000/72/37 999/73/37 
f 1000/70/5 1005/71/5 1006/72/5 1001/73/5 
f 1002/70/36 1001/71/36 1006/72/36 1004/73/36 
f 1005/70/19 1003/71/19 1004/72/19 1006/73/19 
s 1
f 1007/94/36 1008/95/36 1009/96/36 1010/97/36 
s 2
f 1011/94/106 1007/95/106 1010/96/106 1012/97/106 
s 1
f 1013/94/36 1014/95/36 1008/96/36 1007/97/36 
f 1009/94/36 1008/95/36 1015/96/36 1016/97/36 
s 4
f 1009/94/23 1017/95/23 1012/96/23 1010/97/23 
s 2
f 1018/94/106 1011/95/106 1012/96/106 1019/97/5 
f 1020/94/106 1013/95/106 1007/96/106 1011/97/106 
s 4
f 1013/94/127 1020/95/127 1021/96/19 1014/97/19 
s 1
f 1008/94/36 1014/95/36 1022/96/36 1015/97/36 
s 2
f 1017/94/128 1009/95/128 1016/96/128 1023/97/128 
s 4
f 1015/94/124 1024/95/120 1023/96/124 1016/97/29 
f 1017/94/23 1025/95/22 1019/96/23 1012/97/23 
s 2
f 1026/96/26 1027/97/26 1028/160/26 1029/161/26 
f 1019/95/5 1026/96/26 1029/161/26 1030/162/106 
f 1018/94/106 1019/95/5 1030/162/106 1031/163/106 
f 1032/94/106 1020/95/106 1011/96/106 1018/97/106 
s 4
f 1020/94/127 1032/95/127 1033/96/126 1021/97/19 
s 2
f 1014/94/129 1021/95/129 1034/96/129 1022/97/129 
s 8
f 1022/94/8 1034/95/120 1024/96/120 1015/97/8 
s 2
f 1025/94/128 1017/95/128 1023/96/128 1035/97/130 
s 4
f 1023/164/124 1024/165/120 1036/166/120 1037/167/124 
f 1019/168/23 1025/169/22 1038/170/22 1039/171/23 
f 1019/168/23 1039/171/23 1040/172/24 1026/173/24 
s 2
f 1032/94/106 1018/95/106 1031/174/106 1041/175/106 
f 1042/176/131 1028/177/26 1027/96/26 1043/97/131 
f 1041/175/106 1042/176/131 1043/97/131 1032/94/106 
s 1
f 1027/94/37 1026/95/37 1044/96/37 1045/97/37 
s 4
f 1032/168/127 1043/169/126 1046/170/126 1047/171/127 
f 1032/168/127 1047/171/127 1048/172/126 1033/173/126 
s 2
f 1021/94/129 1033/95/129 1049/96/129 1034/97/129 
s 12
f 1024/164/120 1034/165/120 1050/166/8 1036/167/120 
s off
f 1025/95/132 1035/96/132 1051/97/132 1052/94/132 
s 4
f 1035/164/120 1023/165/124 1037/166/124 1053/167/120 
s off
f 1037/70/133 1036/71/133 1054/72/133 1055/73/133 
s 4
f 1044/169/24 1026/170/24 1040/171/24 1056/172/24 
f 1025/168/22 1044/169/24 1056/172/24 1038/173/22 
s off
f 1039/94/37 1038/95/37 1057/96/37 1058/97/37 
f 1040/94/8 1039/95/8 1058/96/8 1059/97/8 
s 1
f 1043/94/37 1027/95/37 1045/96/37 1060/97/37 
s off
f 1061/172/134 1062/173/134 1045/168/134 1044/169/134 
f 1063/171/134 1061/172/134 1044/169/134 1025/170/134 
f 1060/173/126 1033/168/126 1048/169/126 1064/170/126 
f 1043/172/126 1060/173/126 1064/170/126 1046/171/126 
f 1047/94/8 1046/95/8 1065/96/8 1066/97/8 
f 1048/94/37 1047/95/37 1066/96/37 1067/97/37 
f 1049/97/135 1033/94/135 1052/95/135 1051/96/135 
s 4
f 1034/164/120 1049/165/124 1068/166/124 1050/167/8 
s off
f 1036/70/136 1050/71/136 1069/72/136 1054/73/136 
f 1052/169/134 1045/170/134 1062/171/134 1070/172/134 
f 1025/168/134 1052/169/134 1070/172/134 1063/173/134 
s 4
f 1051/164/120 1035/165/120 1053/166/120 1071/167/120 
s off
f 1053/70/19 1037/71/19 1055/72/19 1072/73/19 
s 1
f 1054/178/120 1073/179/120 1072/180/124 1055/181/124 
s off
f 1056/94/36 1040/95/36 1059/96/36 1074/97/36 
f 1038/94/137 1056/95/137 1074/96/137 1057/97/137 
f 1059/182/32 1058/183/32 1057/184/32 1074/185/32 
f 1046/94/93 1064/95/93 1075/96/93 1065/97/93 
f 1075/182/25 1067/183/25 1066/184/25 1065/185/25 
f 1064/94/137 1048/95/137 1067/96/137 1075/97/137 
f 1076/171/134 1077/172/134 1052/173/134 1033/168/134 
f 1078/170/134 1076/171/134 1033/168/134 1060/169/134 
s 4
f 1049/164/124 1051/165/120 1071/166/120 1068/167/124 
s off
f 1050/70/23 1068/71/23 1079/72/23 1069/73/23 
s 1
f 1069/178/120 1079/179/120 1073/180/120 1054/181/120 
s off
f 1071/70/138 1053/71/138 1072/72/138 1073/73/138 
f 1061/94/25 1063/95/25 1080/96/25 1081/97/25 
f 1062/94/139 1061/95/139 1081/96/139 1082/97/139 
f 1068/70/140 1071/71/140 1073/72/140 1079/73/140 
f 1063/94/141 1070/95/141 1083/96/141 1080/97/141 
f 1084/172/134 1078/173/134 1060/168/134 1045/169/134 
f 1077/171/142 1084/172/142 1045/169/142 1052/170/142 
f 1078/94/139 1084/95/139 1085/96/139 1086/97/139 
f 1076/94/32 1078/95/32 1086/96/32 1087/97/32 
f 1081/182/143 1080/183/143 1083/184/143 1082/185/143 
f 1070/94/32 1062/95/32 1082/96/32 1083/97/32 
f 1084/94/25 1077/95/25 1088/96/25 1085/97/25 
f 1085/182/143 1088/183/143 1087/184/143 1086/185/143 
f 1077/94/144 1076/95/144 1087/96/144 1088/97/144 
f 1030/186/19 1029/186/19 1089/186/19 1090/186/19 
f 1090/186/37 1091/186/37 1041/186/37 1031/186/37 
f 1090/186/37 1031/186/37 1030/186/37 
f 1092/187/106 1091/187/106 1090/187/106 1089/187/106 
f 1092/186/36 1089/186/36 1029/186/36 1028/186/36 
f 1092/186/36 1028/186/36 1042/186/36 
f 1042/186/24 1041/186/24 1091/186/24 1092/186/24 
f 1093/188/24 1094/189/24 1095/190/24 1096/191/24 
f 1097/192/145 1093/193/145 1096/194/145 1098/195/145 
s 1
f 1097/188/37 1099/189/37 1094/190/113 1093/191/113 
s off
f 1094/188/146 1099/189/146 1100/190/146 1095/191/146 
s 1
f 1096/188/36 1095/189/36 1100/190/36 1098/191/36 
s off
f 1101/196/8 1097/192/8 1098/195/8 1102/197/8 
s 1
f 1101/188/47 1103/189/47 1099/190/37 1097/191/37 
s off
f 1099/188/106 1103/189/106 1104/190/106 1100/191/106 
s 1
f 1098/188/36 1100/189/36 1104/190/36 1102/191/36 
s off
f 1105/198/147 1101/196/147 1102/197/147 1106/199/147 
s 1
f 1105/188/115 1107/189/115 1103/190/47 1101/191/47 
s off
f 1103/188/148 1107/189/148 1108/190/148 1104/191/148 
s 1
f 1102/188/36 1104/189/36 1108/190/36 1106/191/36 
s off
f 1107/188/19 1105/189/19 1106/190/19 1108/191/19 
# 1011 polygons - 14 triangles

