# 3ds Max Wavefront OBJ Exporter v0.97b - (c)2007 guruware
# File Created: 15.03.2017 10:23:57

mtllib SPW_Terrain_City River_Plan A_Down.mtl

#
# object SPW_Terrain_City_River_Plan_A_Down
#

v  669.2913 -137.7953 393.7008
v  669.2913 0.0000 -393.7008
v  669.2913 -393.7007 -393.7009
v  669.2913 -531.4961 393.7007
v  787.4015 0.0000 -393.7008
v  787.4015 -393.7007 -393.7009
v  787.4015 -137.7953 393.7008
v  787.4015 -531.4961 393.7007
v  -787.4015 -137.7953 393.7008
v  -787.4015 0.0000 -393.7008
v  -787.4015 -393.7007 -393.7009
v  -787.4015 -531.4961 393.7007
v  -669.2913 0.0000 -393.7008
v  -669.2913 -393.7007 -393.7009
v  -669.2913 -137.7953 393.7008
v  -669.2913 -531.4961 393.7007
v  -669.2913 -334.6457 393.7007
v  -669.2913 -196.8504 -393.7008
v  669.2913 -196.8504 -393.7008
v  669.2913 -334.6457 393.7007
# 20 vertices

vn -1.0000 0.0000 -0.0000
vn 0.0000 0.0000 -1.0000
vn 1.0000 0.0000 -0.0000
vn 0.0000 -0.0000 1.0000
vn 0.0000 -0.9850 -0.1724
vn 0.0000 0.9850 0.1724
vn 0.0000 0.0000 1.0000
# 7 vertex normals

vt 0.5204 0.4813 0.0000
vt 0.5734 0.4813 0.0000
vt 0.5734 0.5343 0.0000
vt 0.5204 0.5343 0.0000
vt 0.8758 0.2118 0.0000
vt 0.9288 0.2118 0.0000
vt 0.9288 0.2648 0.0000
vt 0.8758 0.2648 0.0000
# 8 texture coords

g SPW_Terrain_City_River_Plan_A_Down
usemtl SPW_Natures_02
s off
f 1/1/1 2/2/1 3/3/1 4/4/1 
f 2/1/2 5/2/2 6/3/2 3/4/2 
f 5/1/3 7/2/3 8/3/3 6/4/3 
f 7/1/4 1/2/4 4/3/4 8/4/4 
f 4/1/5 3/2/5 6/3/5 8/4/5 
f 7/1/6 5/2/6 2/3/6 1/4/6 
f 9/1/1 10/2/1 11/3/1 12/4/1 
f 10/1/2 13/2/2 14/3/2 11/4/2 
f 13/1/3 15/2/3 16/3/3 14/4/3 
f 15/1/4 9/2/4 12/3/4 16/4/4 
f 12/1/5 11/2/5 14/3/5 16/4/5 
f 15/1/6 13/2/6 10/3/6 9/4/6 
f 17/5/1 18/6/1 14/7/1 16/8/1 
f 18/5/2 19/6/2 3/7/2 14/8/2 
f 19/5/3 20/6/3 4/7/3 3/8/3 
f 20/5/7 17/6/7 16/7/7 4/8/7 
f 16/5/5 14/6/5 3/7/5 4/8/5 
f 20/5/6 19/6/6 18/7/6 17/8/6 
# 18 polygons

