# 3ds Max Wavefront OBJ Exporter v0.97b - (c)2007 guruware
# File Created: 15.03.2017 10:30:48

mtllib SPW_Terrain_Sand_Plan A_Out_Corner.mtl

#
# object SPW_Terrain_Sand_Plan_A_Out_Corner
#

v  393.7009 0.0000 -393.7007
v  -393.7007 0.0000 -393.7009
v  -393.7009 137.7952 393.7007
v  393.7007 -0.0000 393.7008
# 4 vertices

vn 0.0868 0.9924 -0.0868
# 1 vertex normals

vt 0.5060 0.0534 0.0000
vt 0.5553 0.0534 0.0000
vt 0.5560 0.1033 0.0000
vt 0.5060 0.1026 0.0000
# 4 texture coords

g SPW_Terrain_Sand_Plan_A_Out_Corner
usemtl SPW_Natures_02
s off
f 1/1/1 2/2/1 3/3/1 4/4/1 
# 1 polygons

