# 3ds Max Wavefront OBJ Exporter v0.97b - (c)2007 guruware
# File Created: 15.03.2017 11:58:15

mtllib SPW_Vehicle_Train_Modern_01.mtl

#
# object SPW_Vehicle_Train_Modern_01
#

v  54.4764 126.8745 -389.4290
v  -54.4784 126.8745 -389.4290
v  -54.4784 18.8257 -389.4290
v  54.4764 18.8257 -389.4290
v  -54.4784 126.8745 -393.6978
v  -54.4784 18.8257 -393.6978
v  54.4764 126.8745 -393.6978
v  54.4764 18.8257 -393.6978
v  23.8818 212.6329 -107.9807
v  -23.8838 212.6329 -107.9807
v  -23.8838 210.8020 -107.9807
v  23.8818 210.8020 -107.9807
v  -23.8838 210.8020 -112.8418
v  -32.7421 200.6463 -107.9807
v  -32.7421 200.6463 -112.8418
v  -23.8838 212.6329 -112.8418
v  23.8818 212.6329 -112.8418
v  23.8818 210.8020 -112.8418
v  32.7401 202.4772 -107.9807
v  32.7401 202.4772 -112.8418
v  32.7401 200.6463 -107.9807
v  32.7401 200.6463 -112.8418
v  -32.7421 202.4772 -107.9807
v  -32.7421 202.4772 -112.8418
v  1.4423 189.4326 -69.6307
v  -1.4443 189.4326 -69.6307
v  15.1509 212.0980 -109.3416
v  18.0374 212.0980 -109.3416
v  -1.4443 189.4326 -72.7185
v  15.1509 212.0980 -112.4294
v  1.4423 189.4326 -72.7185
v  18.0374 212.0980 -112.4294
v  -18.1062 212.0980 -109.3416
v  -15.2197 212.0980 -109.3416
v  -18.1062 212.0980 -112.4294
v  -15.2197 212.0980 -112.4294
v  4.7245 189.8663 -69.7908
v  -4.7265 189.8663 -69.7908
v  -4.7265 187.6670 -69.7908
v  4.7245 187.6670 -69.7908
v  -4.7265 189.8663 -72.4834
v  -4.7265 187.6670 -72.4834
v  4.7245 189.8663 -72.4834
v  4.7245 187.6670 -72.4834
v  1.8415 189.2339 -69.7083
v  -1.8435 189.2339 -69.7083
v  -1.8435 158.9590 -125.0102
v  1.8415 158.9590 -125.0102
v  -1.8435 189.2339 -73.6502
v  -1.8435 158.9590 -128.9522
v  1.8415 189.2339 -73.6502
v  1.8415 158.9590 -128.9522
v  14.1954 162.9760 -121.2196
v  -14.1974 162.9760 -121.2196
v  -14.1974 156.3690 -121.2196
v  14.1954 156.3690 -121.2196
v  -14.1974 162.9760 -129.3089
v  -14.1974 156.3690 -129.3089
v  14.1954 162.9760 -129.3089
v  14.1954 156.3690 -129.3089
v  27.4987 157.3393 -105.1851
v  -27.5008 157.3393 -105.1851
v  -27.5008 150.7323 -105.1851
v  27.4987 150.7323 -105.1851
v  -27.5008 157.3393 -176.0512
v  -27.5008 150.7323 -176.0512
v  27.4987 157.3393 -176.0512
v  27.4987 150.7323 -176.0512
v  40.3408 159.7206 189.9864
v  -40.3428 159.7206 189.9864
v  -40.3428 138.9832 216.2220
v  40.3408 138.9832 216.2220
v  -40.3428 159.7206 4.3299
v  -40.3428 138.9832 -21.9057
v  40.3408 159.7206 4.3299
v  40.3408 138.9832 -21.9057
v  70.8652 32.3372 372.1436
v  70.8652 54.3290 368.5454
v  55.0035 64.5026 389.2736
v  55.0035 42.5108 392.8718
v  -70.8671 0.0125 372.8525
v  70.8652 0.0125 372.8525
v  55.0035 -0.0347 393.5807
v  -55.0055 -0.0347 393.5807
v  -70.8671 138.2597 313.3849
v  -70.8671 130.2742 327.5834
v  -55.0055 140.4479 348.3116
v  -55.0055 148.4333 334.1130
v  -70.8671 32.3371 372.1436
v  -70.8671 28.0043 372.8525
v  -55.0055 38.1779 393.5807
v  -55.0055 42.5108 392.8718
v  70.8652 78.5900 361.5511
v  70.8652 99.8549 352.1384
v  55.0035 110.0285 372.8665
v  55.0035 88.7636 382.2793
v  -70.8671 99.8549 352.1384
v  -70.8671 78.5900 361.5511
v  -55.0055 88.7636 382.2793
v  -55.0055 110.0285 372.8665
v  70.8652 117.3065 340.6689
v  70.8652 130.2742 327.5834
v  55.0035 140.4479 348.3116
v  55.0035 127.4801 361.3971
v  -70.8671 117.3065 340.6689
v  -55.0055 127.4801 361.3971
v  -70.8671 0.0124 298.6190
v  70.8652 0.0124 298.6190
v  70.8652 28.0043 298.6190
v  70.8651 140.9560 298.6190
v  70.8652 138.2597 313.3849
v  70.8652 108.6649 346.3482
v  70.8652 28.0043 372.8525
v  -70.8671 28.0042 298.6190
v  -70.8671 54.3290 368.5454
v  -70.8671 108.6649 346.3482
v  -70.8671 140.9560 298.6190
v  20.2920 -0.0347 393.5807
v  -20.2940 -0.0347 393.5807
v  44.7179 88.7636 382.2793
v  38.1012 64.5026 389.2736
v  -55.0055 64.5026 389.2736
v  -38.1032 64.5026 389.2736
v  -44.7199 88.7636 382.2793
v  55.0035 118.8386 367.0764
v  52.7907 118.8386 367.0764
v  -55.0055 118.8386 367.0764
v  -50.5366 110.0285 372.8665
v  -52.7926 118.8386 367.0764
v  55.0035 148.4333 334.1130
v  55.0035 151.1297 319.3472
v  -55.0055 151.1297 319.3472
v  55.0035 38.1779 393.5807
v  70.8652 140.9560 298.6190
v  -70.8672 140.9560 -389.4392
v  -70.8672 0.0125 -389.4392
v  70.8651 140.9560 -389.4392
v  70.8651 0.0125 -389.4392
v  55.0035 151.1298 319.3470
v  -54.7878 151.1298 319.3470
v  55.0035 151.1299 -389.4215
v  -54.7879 151.1299 -389.4215
v  31.8964 38.1779 393.5807
v  -31.8983 38.1779 393.5807
v  -32.8832 64.5026 389.2736
v  -39.1462 88.7636 382.2793
v  -44.3375 110.0285 372.8665
v  -46.3865 118.8386 367.0764
v  46.3845 118.8386 367.0764
v  50.5347 110.0285 372.8665
v  -32.9196 42.5108 392.8718
v  32.9176 42.5108 392.8718
v  32.8812 64.5026 389.2736
v  28.4078 42.5108 392.8718
v  -28.4098 42.5108 392.8718
v  39.1443 88.7636 382.2793
v  44.3355 110.0285 372.8665
# 157 vertices

vn 0.0000 -0.0000 1.0000
vn -1.0000 0.0000 -0.0000
vn 0.0000 0.0000 -1.0000
vn 1.0000 0.0000 -0.0000
vn 0.0000 -1.0000 -0.0000
vn 0.0000 1.0000 0.0000
vn 0.7536 -0.6573 -0.0000
vn 0.7536 0.6573 0.0000
vn -0.7536 -0.6573 -0.0000
vn -0.7536 0.6573 0.0000
vn 0.0000 -0.8685 -0.4957
vn 0.8068 -0.5908 -0.0000
vn 0.0000 0.8685 0.4957
vn -0.8068 0.5908 0.0000
vn 0.8057 0.5923 0.0000
vn -0.8057 -0.5923 -0.0000
vn -1.0000 -0.0000 0.0000
vn 0.0000 -0.8772 0.4802
vn 0.0000 0.8772 -0.4802
vn 0.0000 0.7845 0.6201
vn -0.0000 0.7845 -0.6201
vn 1.0000 -0.0000 -0.0000
vn 0.8124 0.0942 0.5755
vn 0.0000 -1.0000 -0.0023
vn -0.7681 0.5581 0.3139
vn -0.8124 0.0942 0.5755
vn -0.4900 0.0568 0.8699
vn 0.8241 0.2293 0.5180
vn -0.8241 0.2293 0.5180
vn 0.8088 0.4177 0.4139
vn -0.8088 0.4177 0.4139
vn 0.0000 -1.0000 0.0000
vn 1.0000 0.0000 0.0000
vn 1.0000 -0.0000 0.0000
vn -1.0000 -0.0000 -0.0000
vn -1.0000 0.0000 0.0000
vn 0.0000 0.2770 0.9609
vn -0.4187 0.2172 0.8817
vn 0.0000 0.5492 0.8357
vn 0.0000 0.8716 0.4902
vn 0.0000 0.9837 0.1796
vn 0.7681 0.5581 0.3139
vn -0.8222 0.3126 0.4757
vn -0.7942 -0.0000 0.6077
vn 0.8222 0.3126 0.4757
vn 0.7942 -0.0000 0.6077
vn -0.8201 0.1585 0.5498
vn -0.6545 0.7437 0.1358
vn -0.0000 0.8977 -0.4406
vn 0.8201 0.1585 0.5498
vn 0.6545 0.7437 0.1358
vn 0.0000 -0.8977 0.4406
vn 0.5399 0.8417 0.0000
vn -0.5347 0.8450 0.0000
vn 0.0000 0.0017 -1.0000
vn -0.0000 0.2770 0.9609
vn 0.0000 0.4048 0.9144
vn -0.0000 0.5492 0.8357
vn -0.0000 0.7103 0.7039
vn 0.4494 0.4077 0.7949
vn 0.0000 0.1615 0.9869
vn -0.0000 0.1615 0.9869
# 62 vertex normals

vt 0.1458 0.0071 0.0000
vt 0.1958 0.0071 0.0000
vt 0.1958 0.0571 0.0000
vt 0.1458 0.0571 0.0000
vt 0.1733 0.0579 0.0000
vt 0.1856 0.0579 0.0000
vt 0.1856 0.0702 0.0000
vt 0.1733 0.0702 0.0000
vt 0.2984 0.5710 0.0000
vt 0.3127 0.5710 0.0000
vt 0.3127 0.5854 0.0000
vt 0.2984 0.5854 0.0000
vt 0.2968 0.5733 0.0000
vt 0.3091 0.5733 0.0000
vt 0.3091 0.5856 0.0000
vt 0.2968 0.5856 0.0000
vt 0.3970 0.5357 0.0000
vt 0.3970 0.6189 0.0000
vt 0.2054 0.6189 0.0000
vt 0.2054 0.5357 0.0000
vt 0.0418 0.8556 0.0000
vt 0.0445 0.8719 0.0000
vt 0.0188 0.8844 0.0000
vt 0.0162 0.8682 0.0000
vt 0.2540 0.0120 0.0000
vt 0.3040 0.0120 0.0000
vt 0.3040 0.0620 0.0000
vt 0.2540 0.0620 0.0000
vt 0.1126 0.9756 0.0000
vt 0.0951 0.9657 0.0000
vt 0.0695 0.9783 0.0000
vt 0.0870 0.9881 0.0000
vt 0.0391 0.8393 0.0000
vt 0.0135 0.8519 0.0000
vt 0.0531 0.9018 0.0000
vt 0.0647 0.9281 0.0000
vt 0.0391 0.9407 0.0000
vt 0.0275 0.9144 0.0000
vt 0.0789 0.9497 0.0000
vt 0.0533 0.9623 0.0000
vt 0.1294 0.8390 0.0000
vt 0.1294 0.9780 0.0000
vt 0.1113 0.9746 0.0000
vt 0.0390 0.8444 0.0000
vt 0.0938 0.9648 0.0000
vt 0.0777 0.9489 0.0000
vt 0.0707 0.9383 0.0000
vt 0.0636 0.9274 0.0000
vt 0.0520 0.9013 0.0000
vt 0.0434 0.8714 0.0000
vt 0.0381 0.8390 0.0000
vt 0.0381 0.8046 0.0000
vt 0.1294 0.8046 0.0000
vt 0.9086 0.0219 0.0000
vt 0.9586 0.0219 0.0000
vt 0.9586 0.0719 0.0000
vt 0.9086 0.0719 0.0000
vt 0.9878 0.5815 0.0000
vt 0.9878 0.6379 0.0000
vt 0.9639 0.6379 0.0000
vt 0.9485 0.5815 0.0000
vt 0.7318 0.6379 0.0000
vt 0.7318 0.5815 0.0000
vt 0.7711 0.5815 0.0000
vt 0.7557 0.6379 0.0000
vt 0.9878 0.7079 0.0000
vt 0.9878 0.7280 0.0000
vt 0.9827 0.7079 0.0000
vt 0.7318 0.7079 0.0000
vt 0.7318 0.6874 0.0000
vt 0.7422 0.6874 0.0000
vt 0.7369 0.7079 0.0000
vt 0.7318 0.7582 0.0000
vt 0.9878 0.7582 0.0000
vt 0.9878 0.7768 0.0000
vt 0.7318 0.7768 0.0000
vt 0.9878 0.7831 0.0000
vt 0.7318 0.7831 0.0000
vt 0.0718 0.9389 0.0000
vt 0.0462 0.9515 0.0000
vt 0.0391 0.8048 0.0000
vt 0.0135 0.8047 0.0000
vt 0.1309 0.9789 0.0000
vt 0.1052 0.9915 0.0000
vt 0.9810 0.9789 0.0000
vt 0.9810 0.8048 0.0000
vt 0.1309 0.8048 0.0000
vt 0.2752 0.0381 0.0000
vt 0.3025 0.0381 0.0000
vt 0.3025 0.0655 0.0000
vt 0.2752 0.0655 0.0000
vt 0.7159 0.6659 0.0000
vt 0.7159 0.7462 0.0000
vt 0.1975 0.7462 0.0000
vt 0.1975 0.6659 0.0000
vt 0.9810 0.9915 0.0000
vt 0.9340 0.5202 0.0000
vt 0.7856 0.5202 0.0000
vt 0.8126 0.4313 0.0000
vt 0.9070 0.4313 0.0000
vt 0.7833 0.5815 0.0000
vt 0.7687 0.6379 0.0000
vt 0.7566 0.6874 0.0000
vt 0.0377 0.6708 0.0000
vt 0.1750 0.6708 0.0000
vt 0.7318 0.7280 0.0000
vt 0.7318 0.5202 0.0000
vt 0.7318 0.4313 0.0000
vt 0.1698 0.7332 0.0000
vt 0.0339 0.7332 0.0000
vt 0.9878 0.6874 0.0000
vt 0.9774 0.6874 0.0000
vt 0.9878 0.4313 0.0000
vt 0.9878 0.5202 0.0000
vt 0.7318 0.5303 0.0000
vt 0.7832 0.5303 0.0000
vt 0.9878 0.5303 0.0000
vt 0.9364 0.5303 0.0000
vt 0.9363 0.5815 0.0000
vt 0.9259 0.5303 0.0000
vt 0.7937 0.5303 0.0000
vt 0.9509 0.6379 0.0000
vt 0.9630 0.6874 0.0000
vt 0.9678 0.7079 0.0000
vt 0.7519 0.7079 0.0000
vt 0.0608 0.5831 0.0000
vt 0.1519 0.5831 0.0000
# 127 texture coords

g SPW_Vehicle_Train_Modern_01
usemtl SPW_Vehicle_Train_Modern
s off
f 1/1/1 2/2/1 3/3/1 4/4/1 
f 2/1/2 5/2/2 6/3/2 3/4/2 
f 5/1/3 7/2/3 8/3/3 6/4/3 
f 7/1/4 1/2/4 4/3/4 8/4/4 
f 4/1/5 3/2/5 6/3/5 8/4/5 
f 7/1/6 5/2/6 2/3/6 1/4/6 
s 1
f 9/5/1 10/6/1 11/7/1 12/8/1 
s off
f 13/5/7 11/6/7 14/7/7 15/8/7 
f 16/5/3 17/6/3 18/7/3 13/8/3 
f 17/5/8 9/6/8 19/7/8 20/8/8 
f 12/5/5 11/6/5 13/7/5 18/8/5 
f 17/5/6 16/6/6 10/7/6 9/8/6 
f 20/5/4 19/6/4 21/7/4 22/8/4 
f 18/5/3 17/6/3 20/7/3 22/8/3 
s 1
f 9/5/1 12/6/1 21/7/1 19/8/1 
s off
f 12/5/9 18/6/9 22/7/9 21/8/9 
f 23/5/2 24/6/2 15/7/2 14/8/2 
f 10/5/10 16/6/10 24/7/10 23/8/10 
s 1
f 11/5/1 10/6/1 23/7/1 14/8/1 
s off
f 16/5/3 13/6/3 15/7/3 24/8/3 
f 25/5/11 26/6/11 27/7/11 28/8/11 
f 26/5/12 29/6/12 30/7/12 27/8/12 
f 29/5/13 31/6/13 32/7/13 30/8/13 
f 31/5/14 25/6/14 28/7/14 32/8/14 
f 28/5/5 27/6/5 30/7/5 32/8/5 
f 31/5/6 29/6/6 26/7/6 25/8/6 
f 25/5/11 26/6/11 33/7/11 34/8/11 
f 26/5/15 29/6/15 35/7/15 33/8/15 
f 29/5/13 31/6/13 36/7/13 35/8/13 
f 31/5/16 25/6/16 34/7/16 36/8/16 
f 34/5/5 33/6/5 35/7/5 36/8/5 
f 31/5/6 29/6/6 26/7/6 25/8/6 
f 37/5/1 38/6/1 39/7/1 40/8/1 
f 38/5/17 41/6/17 42/7/17 39/8/17 
f 41/5/3 43/6/3 44/7/3 42/8/3 
f 43/5/4 37/6/4 40/7/4 44/8/4 
f 40/5/5 39/6/5 42/7/5 44/8/5 
f 43/5/6 41/6/6 38/7/6 37/8/6 
f 45/5/18 46/6/18 47/7/18 48/8/18 
f 46/5/17 49/6/17 50/7/17 47/8/17 
f 49/5/19 51/6/19 52/7/19 50/8/19 
f 51/5/4 45/6/4 48/7/4 52/8/4 
f 48/5/5 47/6/5 50/7/5 52/8/5 
f 51/5/6 49/6/6 46/7/6 45/8/6 
f 53/5/1 54/6/1 55/7/1 56/8/1 
f 54/5/2 57/6/2 58/7/2 55/8/2 
f 57/5/3 59/6/3 60/7/3 58/8/3 
f 59/5/4 53/6/4 56/7/4 60/8/4 
f 56/5/5 55/6/5 58/7/5 60/8/5 
f 59/5/6 57/6/6 54/7/6 53/8/6 
f 61/9/1 62/10/1 63/11/1 64/12/1 
f 62/9/17 65/10/17 66/11/17 63/12/17 
f 65/9/3 67/10/3 68/11/3 66/12/3 
f 67/9/4 61/10/4 64/11/4 68/12/4 
f 64/9/5 63/10/5 66/11/5 68/12/5 
f 67/9/6 65/10/6 62/11/6 61/12/6 
f 69/13/20 70/14/20 71/15/20 72/16/20 
f 70/13/17 73/14/17 74/15/17 71/16/17 
f 73/13/21 75/14/21 76/15/21 74/16/21 
f 75/13/22 69/14/22 72/15/22 76/16/22 
f 72/13/5 71/14/5 74/15/5 76/16/5 
f 75/17/6 73/18/6 70/19/6 69/20/6 
f 77/21/23 78/22/23 79/23/23 80/24/23 
f 81/25/24 82/26/24 83/27/24 84/28/24 
f 85/29/25 86/30/25 87/31/25 88/32/25 
s 1
f 89/21/26 90/33/26 91/34/27 92/24/26 
s off
f 93/35/28 94/36/28 95/37/28 96/38/28 
f 97/36/29 98/35/29 99/38/29 100/37/29 
f 101/39/30 102/30/30 103/31/30 104/40/30 
f 86/30/31 105/39/31 106/40/31 87/31/31 
f 107/25/32 108/26/32 82/27/32 81/28/32 
s 1
f 109/41/22 110/42/4 111/43/4 77/44/33 
f 111/43/4 102/45/4 101/46/4 112/47/33 
f 112/47/33 94/48/33 93/49/4 77/44/33 
f 93/49/4 78/50/33 77/44/33 
f 111/43/4 112/47/33 77/44/33 
f 113/51/34 109/41/22 77/44/33 
f 109/41/22 113/51/34 82/52/34 108/53/34 
s 2
f 114/41/35 90/51/2 89/44/17 98/49/17 
f 89/44/17 115/50/36 98/49/17 
f 98/49/17 97/48/2 116/47/2 86/45/35 
f 116/47/2 105/46/2 86/45/35 
f 114/41/35 98/49/17 86/45/35 85/43/35 
f 114/41/35 85/43/35 117/42/35 
s 4
f 117/54/3 110/55/3 109/56/3 114/57/3 
s 2
f 90/51/2 114/41/35 107/53/2 81/52/2 
s 4
f 114/54/3 109/55/3 108/56/3 107/57/3 
s 1
f 118/56/1 119/57/3 84/57/1 83/56/1 
f 87/31/4 106/40/4 106/40/4 87/31/4 
f 79/58/37 96/59/37 120/60/37 121/61/37 
f 99/62/37 122/63/38 123/64/37 124/65/37 
s off
f 125/66/39 104/67/39 104/67/39 126/68/39 
s 1
f 127/69/39 100/70/39 128/71/39 129/72/39 
s off
f 87/73/40 103/74/40 130/75/40 88/76/40 
f 88/76/41 130/75/41 131/77/41 132/78/41 
f 102/30/42 111/29/42 130/32/42 103/31/42 
s 4
f 116/79/43 97/36/43 100/37/43 127/80/43 
s off
f 90/33/44 81/81/44 84/82/44 91/34/44 
s 2
f 112/79/45 101/39/45 104/40/45 125/80/45 
s off
f 82/81/46 113/33/46 133/34/46 83/82/46 
f 98/35/47 115/22/47 122/23/47 99/38/47 
f 117/83/48 85/29/48 88/32/48 132/84/48 
f 110/54/49 117/55/49 132/56/49 131/57/49 
f 78/22/50 93/35/50 96/38/50 79/23/50 
f 111/29/51 110/83/51 131/84/51 130/32/51 
f 134/54/1 117/55/1 107/56/1 108/57/1 
f 117/83/17 135/85/17 136/86/17 107/87/17 
f 135/88/3 137/89/3 138/90/3 136/91/3 
f 137/85/4 134/83/4 108/87/4 138/86/4 
f 108/25/5 107/26/5 136/27/5 138/28/5 
f 117/54/52 134/55/52 139/56/52 140/57/52 
f 141/92/6 142/93/6 140/94/6 139/95/6 
f 134/83/53 137/85/53 141/96/53 139/84/53 
f 135/85/54 117/83/54 140/84/54 142/96/54 
f 137/88/55 135/89/55 142/90/55 141/91/55 
s 1
f 143/97/1 144/98/1 119/99/3 118/100/1 
f 124/65/37 123/64/37 145/101/56 146/102/37 
s 2
f 128/71/57 124/65/57 146/102/57 147/103/57 
s off
f 148/104/58 149/105/58 126/105/58 129/104/58 
s 2
f 129/72/58 126/68/58 104/67/58 106/106/58 
s off
f 106/106/59 104/67/59 103/74/59 87/73/59 
s 1
f 104/40/4 103/31/4 103/31/4 104/40/4 
s 2
f 100/70/57 99/62/57 124/65/57 128/71/57 
s 1
f 91/107/27 84/108/1 119/99/3 144/98/1 
f 103/109/4 87/110/4 87/110/4 103/109/4 
s 2
f 96/59/57 95/111/60 150/112/57 120/60/57 
s 1
f 83/113/1 133/114/1 143/97/1 118/100/1 
s 2
f 92/115/61 91/107/61 144/98/62 151/116/62 
s 4
f 80/117/61 79/58/61 121/61/61 152/118/62 
f 152/118/62 121/61/61 153/119/62 154/120/62 
s 2
f 94/36/45 112/79/45 125/80/45 95/37/60 
s 4
f 105/39/43 116/79/43 127/80/43 106/40/43 
s 2
f 106/106/39 127/69/39 129/72/58 106/106/58 
s 1
f 95/111/39 125/66/39 126/68/39 150/112/39 
s 2
f 133/114/61 80/117/61 152/118/62 143/97/62 
s 4
f 122/63/61 92/115/61 151/116/61 123/64/61 
s 2
f 144/98/62 143/97/62 152/118/62 151/116/62 
s 1
f 115/22/26 89/21/26 92/24/26 122/23/38 
s off
f 113/33/23 77/21/23 80/24/23 133/34/23 
s 4
f 155/121/62 154/120/62 153/119/62 145/101/62 
s 1
f 145/101/56 153/119/56 156/122/56 146/102/37 
s 2
f 146/102/57 156/122/57 157/123/57 147/103/57 
s 1
f 147/103/58 157/123/39 149/124/58 148/125/58 
f 150/112/39 126/68/39 149/124/58 157/123/39 
s 4
f 123/64/61 151/116/61 155/121/62 145/101/62 
s 2
f 120/60/57 150/112/57 157/123/57 156/122/57 
s 1
f 129/72/39 128/71/39 147/103/58 148/125/58 
f 121/61/37 120/60/37 156/122/56 153/119/56 
s off
f 151/126/3 152/127/3 154/127/3 155/126/3 
# 143 polygons - 6 triangles

