# 3ds Max Wavefront OBJ Exporter v0.97b - (c)2007 guruware
# File Created: 15.03.2017 11:57:32

mtllib SPW_Vehicle_Train_Freight Train_Trailer_02.mtl

#
# object Logs
#

v  -47.6806 88.9389 234.1281
v  -47.6808 88.9390 -238.3129
v  -39.8068 75.3008 -238.3129
v  -39.8066 75.3007 234.1280
v  -24.0587 75.3008 -238.3129
v  -24.0586 75.3007 234.1280
v  -16.1847 88.9390 -238.3129
v  -16.1846 88.9389 234.1280
v  -24.0587 102.5772 -238.3129
v  -24.0586 102.5771 234.1281
v  -37.8383 78.7104 -238.3129
v  -26.0272 78.7104 -238.3129
v  -39.8068 102.5772 -238.3129
v  -39.8066 102.5771 234.1281
v  -43.7436 88.9389 234.1281
v  -37.8381 99.1675 234.1281
v  -43.7438 88.9390 -238.3129
v  -37.8383 99.1677 -238.3129
v  -26.0272 99.1677 -238.3129
v  -20.1217 88.9390 -238.3129
v  -37.8381 78.7102 234.1280
v  -26.0271 78.7102 234.1280
v  -20.1216 88.9389 234.1280
v  -26.0271 99.1675 234.1281
v  -15.7480 88.9389 234.1281
v  -15.7481 88.9390 -238.3129
v  -7.8741 75.3008 -238.3129
v  -7.8739 75.3007 234.1281
v  7.8739 75.3008 -238.3129
v  7.8741 75.3007 234.1281
v  15.7480 88.9390 -238.3129
v  15.7481 88.9389 234.1281
v  7.8739 102.5772 -238.3129
v  7.8741 102.5771 234.1281
v  -5.9056 78.7104 -238.3129
v  5.9054 78.7104 -238.3129
v  -7.8741 102.5772 -238.3129
v  -7.8739 102.5771 234.1281
v  -11.8109 88.9389 234.1281
v  -5.9054 99.1675 234.1281
v  -11.8111 88.9390 -238.3129
v  -5.9056 99.1677 -238.3129
v  5.9054 99.1677 -238.3129
v  11.8109 88.9390 -238.3129
v  -5.9054 78.7102 234.1281
v  5.9056 78.7102 234.1281
v  11.8111 88.9389 234.1281
v  5.9056 99.1675 234.1281
v  16.1847 88.9389 234.1281
v  16.1846 88.9390 -238.3129
v  24.0586 75.3008 -238.3129
v  24.0587 75.3007 234.1280
v  39.8066 75.3008 -238.3129
v  39.8068 75.3007 234.1280
v  47.6806 88.9390 -238.3129
v  47.6808 88.9389 234.1280
v  39.8066 102.5772 -238.3129
v  39.8068 102.5771 234.1281
v  26.0271 78.7104 -238.3129
v  37.8381 78.7104 -238.3129
v  24.0586 102.5772 -238.3129
v  24.0587 102.5771 234.1281
v  20.1217 88.9389 234.1281
v  26.0272 99.1675 234.1281
v  20.1216 88.9390 -238.3129
v  26.0271 99.1677 -238.3129
v  37.8381 99.1677 -238.3129
v  43.7436 88.9390 -238.3129
v  26.0272 78.7102 234.1280
v  37.8383 78.7102 234.1280
v  43.7438 88.9389 234.1280
v  37.8383 99.1675 234.1281
v  32.1288 61.8074 234.1281
v  32.1287 61.8075 -238.3129
v  40.0027 48.1693 -238.3129
v  40.0028 48.1692 234.1281
v  55.7507 48.1693 -238.3129
v  55.7509 48.1692 234.1281
v  63.6247 61.8075 -238.3129
v  63.6249 61.8074 234.1281
v  55.7507 75.4457 -238.3129
v  55.7509 75.4456 234.1281
v  41.9712 51.5789 -238.3129
v  53.7822 51.5789 -238.3129
v  40.0027 75.4457 -238.3129
v  40.0028 75.4456 234.1281
v  36.0658 61.8074 234.1281
v  41.9713 72.0360 234.1281
v  36.0657 61.8075 -238.3129
v  41.9712 72.0362 -238.3129
v  53.7822 72.0362 -238.3129
v  59.6877 61.8075 -238.3129
v  41.9713 51.5787 234.1281
v  53.7824 51.5787 234.1281
v  59.6879 61.8074 234.1281
v  53.7824 72.0360 234.1281
v  0.2603 61.8074 234.1281
v  0.2602 61.8075 -238.3129
v  8.1342 48.1693 -238.3129
v  8.1343 48.1692 234.1280
v  23.8822 48.1693 -238.3129
v  23.8824 48.1692 234.1280
v  31.7562 61.8075 -238.3129
v  31.7564 61.8074 234.1280
v  23.8822 75.4457 -238.3129
v  23.8824 75.4456 234.1280
v  10.1027 51.5789 -238.3129
v  21.9137 51.5789 -238.3129
v  8.1342 75.4457 -238.3129
v  8.1343 75.4456 234.1281
v  4.1973 61.8074 234.1281
v  10.1028 72.0360 234.1281
v  4.1972 61.8075 -238.3129
v  10.1027 72.0362 -238.3129
v  21.9137 72.0362 -238.3129
v  27.8192 61.8075 -238.3129
v  10.1028 51.5787 234.1280
v  21.9139 51.5787 234.1280
v  27.8194 61.8074 234.1280
v  21.9139 72.0360 234.1280
v  -63.6248 61.8074 234.1281
v  -63.6249 61.8075 -238.3129
v  -55.7509 48.1693 -238.3129
v  -55.7507 48.1692 234.1280
v  -40.0029 48.1693 -238.3129
v  -40.0027 48.1692 234.1280
v  -32.1289 61.8075 -238.3129
v  -32.1287 61.8074 234.1280
v  -40.0029 75.4457 -238.3129
v  -40.0027 75.4456 234.1280
v  -53.7824 51.5789 -238.3129
v  -41.9714 51.5789 -238.3129
v  -55.7509 75.4457 -238.3129
v  -55.7507 75.4456 234.1281
v  -59.6878 61.8074 234.1281
v  -53.7822 72.0360 234.1281
v  -59.6879 61.8075 -238.3129
v  -53.7824 72.0362 -238.3129
v  -41.9714 72.0362 -238.3129
v  -36.0659 61.8075 -238.3129
v  -53.7822 51.5787 234.1280
v  -41.9712 51.5787 234.1280
v  -36.0657 61.8074 234.1280
v  -41.9712 72.0360 234.1280
v  -31.7563 61.8074 234.1281
v  -31.7564 61.8075 -238.3129
v  -23.8824 48.1693 -238.3129
v  -23.8823 48.1692 234.1281
v  -8.1344 48.1693 -238.3129
v  -8.1342 48.1692 234.1281
v  -0.2604 61.8075 -238.3129
v  -0.2602 61.8074 234.1281
v  -8.1344 75.4457 -238.3129
v  -8.1342 75.4456 234.1281
v  -21.9139 51.5789 -238.3129
v  -10.1029 51.5789 -238.3129
v  -23.8824 75.4457 -238.3129
v  -23.8823 75.4456 234.1281
v  -27.8193 61.8074 234.1281
v  -21.9138 72.0360 234.1281
v  -27.8194 61.8075 -238.3129
v  -21.9139 72.0362 -238.3129
v  -10.1029 72.0362 -238.3129
v  -4.1974 61.8075 -238.3129
v  -21.9138 51.5787 234.1281
v  -10.1027 51.5787 234.1281
v  -4.1972 61.8074 234.1281
v  -10.1027 72.0360 234.1281
# 168 vertices

vn -0.8660 -0.5000 0.0000
vn 0.0000 -1.0000 -0.0000
vn 0.8660 -0.5000 -0.0000
vn 0.8660 0.5000 -0.0000
vn 0.0000 0.0000 -1.0000
vn -0.0000 0.0000 -1.0000
vn 0.0000 1.0000 0.0000
vn -0.8660 0.5000 0.0000
vn 0.0000 -0.0000 1.0000
vn 0.0000 0.0000 1.0000
vn -0.0000 -0.0000 -1.0000
# 11 vertex normals

vt 0.8195 0.0247 0.0000
vt 0.8695 0.0247 0.0000
vt 0.8695 0.0747 0.0000
vt 0.8195 0.0747 0.0000
vt 0.7485 0.0747 0.0000
vt 0.7702 0.0622 0.0000
vt 0.7702 0.0372 0.0000
vt 0.7485 0.0247 0.0000
vt 0.7269 0.0372 0.0000
vt 0.7269 0.0622 0.0000
# 10 texture coords

g Logs
usemtl SPW_Vehicle_Train_Freight_Train_Trailer
s off
f 1/1/1 2/2/1 3/3/1 4/4/1 
f 4/1/2 3/2/2 5/3/2 6/4/2 
f 6/1/3 5/2/3 7/3/3 8/4/3 
f 8/1/4 7/2/4 9/3/4 10/4/4 
s 1
f 5/1/5 3/2/6 11/3/6 12/4/5 
s off
f 10/1/7 9/2/7 13/3/7 14/4/7 
f 14/1/8 13/2/8 2/3/8 1/4/8 
s 1
f 14/1/9 1/2/9 15/3/9 16/4/9 
f 11/5/6 17/6/6 18/7/6 19/8/6 
f 11/5/6 19/8/6 20/9/6 12/10/5 
f 13/1/5 9/2/6 19/3/6 18/4/6 
f 3/1/6 2/2/5 17/3/6 11/4/6 
f 7/1/5 5/2/5 12/3/5 20/4/6 
f 2/1/5 13/2/5 18/3/6 17/4/6 
f 9/1/6 7/2/5 20/3/6 19/4/6 
f 15/5/9 21/6/9 22/7/9 23/8/9 
f 15/5/9 23/8/9 24/9/9 16/10/9 
f 8/1/9 10/2/9 24/3/9 23/4/9 
f 4/1/9 6/2/9 22/3/9 21/4/9 
f 10/1/9 14/2/9 16/3/9 24/4/9 
f 1/1/9 4/2/9 21/3/9 15/4/9 
f 6/1/9 8/2/9 23/3/9 22/4/9 
s off
f 25/1/1 26/2/1 27/3/1 28/4/1 
f 28/1/2 27/2/2 29/3/2 30/4/2 
f 30/1/3 29/2/3 31/3/3 32/4/3 
f 32/1/4 31/2/4 33/3/4 34/4/4 
s 1
f 29/1/5 27/2/5 35/3/5 36/4/5 
s off
f 34/1/7 33/2/7 37/3/7 38/4/7 
f 38/1/8 37/2/8 26/3/8 25/4/8 
s 1
f 38/1/9 25/2/9 39/3/9 40/4/9 
f 35/5/5 41/6/5 42/7/5 43/8/5 
f 35/5/5 43/8/5 44/9/5 36/10/5 
f 37/1/5 33/2/5 43/3/5 42/4/5 
f 27/1/5 26/2/5 41/3/5 35/4/5 
f 31/1/5 29/2/5 36/3/5 44/4/5 
f 26/1/5 37/2/5 42/3/5 41/4/5 
f 33/1/5 31/2/5 44/3/5 43/4/5 
f 39/5/9 45/6/9 46/7/9 47/8/9 
f 39/5/9 47/8/9 48/9/9 40/10/9 
f 32/1/9 34/2/9 48/3/9 47/4/9 
f 28/1/9 30/2/9 46/3/9 45/4/9 
f 34/1/9 38/2/9 40/3/9 48/4/9 
f 25/1/9 28/2/9 45/3/9 39/4/9 
f 30/1/9 32/2/9 47/3/9 46/4/9 
s off
f 49/1/1 50/2/1 51/3/1 52/4/1 
f 52/1/2 51/2/2 53/3/2 54/4/2 
f 54/1/3 53/2/3 55/3/3 56/4/3 
f 56/1/4 55/2/4 57/3/4 58/4/4 
s 1
f 53/1/5 51/2/6 59/3/6 60/4/5 
s off
f 58/1/7 57/2/7 61/3/7 62/4/7 
f 62/1/8 61/2/8 50/3/8 49/4/8 
s 1
f 62/1/9 49/2/9 63/3/9 64/4/9 
f 59/5/6 65/6/6 66/7/6 67/8/6 
f 59/5/6 67/8/6 68/9/6 60/10/5 
f 61/1/5 57/2/6 67/3/6 66/4/6 
f 51/1/6 50/2/5 65/3/6 59/4/6 
f 55/1/5 53/2/5 60/3/5 68/4/6 
f 50/1/5 61/2/5 66/3/6 65/4/6 
f 57/1/6 55/2/5 68/3/6 67/4/6 
f 63/5/9 69/6/9 70/7/9 71/8/9 
f 63/5/9 71/8/9 72/9/9 64/10/9 
f 56/1/9 58/2/9 72/3/9 71/4/9 
f 52/1/9 54/2/9 70/3/9 69/4/9 
f 58/1/9 62/2/9 64/3/9 72/4/9 
f 49/1/9 52/2/9 69/3/9 63/4/9 
f 54/1/9 56/2/9 71/3/9 70/4/9 
s off
f 73/1/1 74/2/1 75/3/1 76/4/1 
f 76/1/2 75/2/2 77/3/2 78/4/2 
f 78/1/3 77/2/3 79/3/3 80/4/3 
f 80/1/4 79/2/4 81/3/4 82/4/4 
s 1
f 77/1/5 75/2/5 83/3/5 84/4/5 
s off
f 82/1/7 81/2/7 85/3/7 86/4/7 
f 86/1/8 85/2/8 74/3/8 73/4/8 
s 1
f 86/1/9 73/2/9 87/3/9 88/4/9 
f 83/5/5 89/6/5 90/7/5 91/8/5 
f 83/5/5 91/8/5 92/9/5 84/10/5 
f 85/1/5 81/2/5 91/3/5 90/4/5 
f 75/1/5 74/2/5 89/3/5 83/4/5 
f 79/1/5 77/2/5 84/3/5 92/4/5 
f 74/1/5 85/2/5 90/3/5 89/4/5 
f 81/1/5 79/2/5 92/3/5 91/4/5 
f 87/5/9 93/6/9 94/7/9 95/8/9 
f 87/5/9 95/8/9 96/9/9 88/10/9 
f 80/1/9 82/2/9 96/3/9 95/4/9 
f 76/1/9 78/2/9 94/3/9 93/4/9 
f 82/1/9 86/2/9 88/3/9 96/4/9 
f 73/1/9 76/2/9 93/3/9 87/4/9 
f 78/1/9 80/2/9 95/3/9 94/4/9 
s off
f 97/1/1 98/2/1 99/3/1 100/4/1 
f 100/1/2 99/2/2 101/3/2 102/4/2 
f 102/1/3 101/2/3 103/3/3 104/4/3 
f 104/1/4 103/2/4 105/3/4 106/4/4 
s 1
f 101/1/5 99/2/6 107/3/6 108/4/5 
s off
f 106/1/7 105/2/7 109/3/7 110/4/7 
f 110/1/8 109/2/8 98/3/8 97/4/8 
s 1
f 110/1/10 97/2/9 111/3/9 112/4/9 
f 107/5/6 113/6/6 114/7/6 115/8/6 
f 107/5/6 115/8/6 116/9/5 108/10/5 
f 109/1/11 105/2/6 115/3/6 114/4/6 
f 99/1/6 98/2/5 113/3/6 107/4/6 
f 103/1/5 101/2/5 108/3/5 116/4/5 
f 98/1/5 109/2/11 114/3/6 113/4/6 
f 105/1/6 103/2/5 116/3/5 115/4/6 
f 111/5/9 117/6/9 118/7/9 119/8/9 
f 111/5/9 119/8/9 120/9/9 112/10/9 
f 104/1/9 106/2/9 120/3/9 119/4/9 
f 100/1/9 102/2/9 118/3/9 117/4/9 
f 106/1/9 110/2/10 112/3/9 120/4/9 
f 97/1/9 100/2/9 117/3/9 111/4/9 
f 102/1/9 104/2/9 119/3/9 118/4/9 
s off
f 121/1/1 122/2/1 123/3/1 124/4/1 
f 124/1/2 123/2/2 125/3/2 126/4/2 
f 126/1/3 125/2/3 127/3/3 128/4/3 
f 128/1/4 127/2/4 129/3/4 130/4/4 
s 1
f 125/1/5 123/2/6 131/3/6 132/4/5 
s off
f 130/1/7 129/2/7 133/3/7 134/4/7 
f 134/1/8 133/2/8 122/3/8 121/4/8 
s 1
f 134/1/10 121/2/9 135/3/9 136/4/9 
f 131/5/6 137/6/6 138/7/6 139/8/6 
f 131/5/6 139/8/6 140/9/5 132/10/5 
f 133/1/11 129/2/6 139/3/6 138/4/6 
f 123/1/6 122/2/5 137/3/6 131/4/6 
f 127/1/5 125/2/5 132/3/5 140/4/5 
f 122/1/5 133/2/11 138/3/6 137/4/6 
f 129/1/6 127/2/5 140/3/5 139/4/6 
f 135/5/9 141/6/9 142/7/9 143/8/9 
f 135/5/9 143/8/9 144/9/9 136/10/9 
f 128/1/9 130/2/9 144/3/9 143/4/9 
f 124/1/9 126/2/9 142/3/9 141/4/9 
f 130/1/9 134/2/10 136/3/9 144/4/9 
f 121/1/9 124/2/9 141/3/9 135/4/9 
f 126/1/9 128/2/9 143/3/9 142/4/9 
s off
f 145/1/1 146/2/1 147/3/1 148/4/1 
f 148/1/2 147/2/2 149/3/2 150/4/2 
f 150/1/3 149/2/3 151/3/3 152/4/3 
f 152/1/4 151/2/4 153/3/4 154/4/4 
s 1
f 149/1/5 147/2/5 155/3/5 156/4/5 
s off
f 154/1/7 153/2/7 157/3/7 158/4/7 
f 158/1/8 157/2/8 146/3/8 145/4/8 
s 1
f 158/1/9 145/2/9 159/3/9 160/4/9 
f 155/5/5 161/6/5 162/7/5 163/8/5 
f 155/5/5 163/8/5 164/9/5 156/10/5 
f 157/1/5 153/2/5 163/3/5 162/4/5 
f 147/1/5 146/2/5 161/3/5 155/4/5 
f 151/1/5 149/2/5 156/3/5 164/4/5 
f 146/1/5 157/2/5 162/3/5 161/4/5 
f 153/1/5 151/2/5 164/3/5 163/4/5 
f 159/5/9 165/6/9 166/7/9 167/8/9 
f 159/5/9 167/8/9 168/9/9 160/10/9 
f 152/1/9 154/2/9 168/3/9 167/4/9 
f 148/1/9 150/2/9 166/3/9 165/4/9 
f 154/1/9 158/2/9 160/3/9 168/4/9 
f 145/1/9 148/2/9 165/3/9 159/4/9 
f 150/1/9 152/2/9 167/3/9 166/4/9 
# 154 polygons

#
# object SPW_Vehicle_Train_Freight_Train_Trailer_02
#

v  3.7534 16.9541 249.0833
v  3.7534 33.5584 249.0833
v  -12.4310 33.5584 249.0833
v  -12.4310 16.9541 249.0833
v  3.7534 33.5584 243.0453
v  -12.4310 33.5584 243.0453
v  3.7534 16.9541 243.0453
v  -12.4310 16.9541 243.0453
v  0.1043 21.2260 263.8900
v  0.1043 29.2865 263.8900
v  -8.8936 29.2865 263.8900
v  -8.8936 21.2260 263.8900
v  -5.4215 21.2260 259.1637
v  0.1043 21.2260 259.1637
v  -5.4215 21.2260 253.1825
v  -8.8936 21.2260 238.8405
v  4.6488 21.2260 253.1825
v  4.6488 21.2260 238.8405
v  0.1043 29.2865 259.1637
v  -5.4215 29.2865 253.1825
v  4.6488 29.2865 253.1825
v  4.6488 29.2865 238.8405
v  -8.8936 29.2865 238.8405
v  -5.4215 29.2865 259.1637
v  0.4213 33.5584 249.0833
v  0.4213 16.9542 249.0833
v  16.6058 16.9542 249.0833
v  16.6058 33.5584 249.0833
v  0.4213 16.9542 239.4899
v  16.6058 16.9542 239.4899
v  0.4213 33.5584 239.4899
v  16.6058 33.5584 239.4899
v  4.0704 29.2865 263.8900
v  4.0704 21.2260 263.8900
v  13.0683 21.2260 263.8900
v  13.0683 29.2865 263.8900
v  9.5963 29.2865 259.1637
v  4.0704 29.2865 259.1637
v  9.5963 29.2865 253.1825
v  13.0683 29.2865 238.8405
v  4.0704 29.2865 253.1825
v  4.0704 29.2865 238.8405
v  4.0704 21.2260 259.1637
v  9.5963 21.2260 253.1825
v  4.0704 21.2260 253.1825
v  4.0704 21.2260 238.8405
v  13.0683 21.2260 238.8405
v  9.5963 21.2260 259.1637
v  -8.3438 33.5332 -252.1025
v  8.2605 33.5332 -252.1025
v  8.2605 17.3487 -252.1025
v  -8.3438 17.3487 -252.1025
v  8.2605 33.5332 -243.6594
v  8.2605 17.3487 -243.6594
v  -8.3438 33.5332 -243.6594
v  -8.3438 17.3487 -243.6594
v  -4.0719 29.8841 -266.9092
v  3.9886 29.8841 -266.9092
v  3.9886 20.8861 -266.9092
v  -4.0719 20.8861 -266.9092
v  -4.0719 24.3582 -262.1829
v  -4.0719 29.8841 -262.1829
v  -4.0719 24.3582 -256.2017
v  -4.0719 20.8861 -241.8597
v  -4.0719 29.8841 -256.2017
v  -4.0719 29.8841 -241.8597
v  3.9886 29.8841 -262.1829
v  3.9886 24.3582 -256.2017
v  3.9886 29.8841 -256.2017
v  3.9886 29.8841 -241.8597
v  3.9886 20.8861 -241.8597
v  3.9886 24.3582 -262.1829
v  -63.9743 30.6232 -244.9217
v  63.8908 30.6232 -244.9217
v  63.8908 9.0821 -244.9217
v  -63.9743 9.0821 -244.9217
v  63.8908 30.6232 -226.0296
v  63.8908 9.0821 -235.4729
v  -63.9743 30.6232 -226.0296
v  -63.9743 9.0821 -235.4729
v  63.8908 30.6232 241.7332
v  -63.9743 30.6232 241.7332
v  -63.9743 9.0821 241.7332
v  63.8908 9.0821 241.7332
v  -63.9742 30.6232 222.8412
v  -63.9742 9.0821 232.2844
v  63.8908 30.6232 222.8411
v  63.8908 9.0821 232.2844
v  63.8908 31.0022 107.9157
v  -63.9742 31.0022 107.9157
v  -63.9742 8.9052 100.6388
v  63.8908 8.9052 100.6388
v  -63.9743 31.0022 -111.5804
v  -63.9742 8.9052 -104.3035
v  63.8908 31.0022 -111.5804
v  63.8908 8.9052 -104.3035
v  67.8717 39.3089 246.1991
v  -67.9551 39.3090 246.1991
v  -67.9551 30.4507 246.1991
v  67.8717 30.4507 246.1991
v  -67.9551 39.3090 -249.8639
v  -67.9551 30.4507 -249.8639
v  67.8717 39.3090 -249.8639
v  67.8717 30.4507 -249.8639
v  67.8717 48.1673 -249.8639
v  -67.9551 48.1673 -249.8639
v  -61.0977 48.1673 -241.6855
v  61.0142 48.1673 -241.6855
v  -61.0977 48.1672 238.0208
v  61.0142 48.1672 238.0208
v  -67.9551 48.1672 246.1991
v  67.8717 48.1672 246.1991
v  -54.1952 34.6759 -209.8507
v  -57.5337 34.6759 -209.8507
v  -57.5337 32.3434 -201.1458
v  -54.1952 32.3434 -201.1458
v  -57.5337 25.9710 -194.7733
v  -54.1952 25.9710 -194.7733
v  -57.5337 17.2661 -192.4409
v  -54.1952 17.2661 -192.4408
v  -57.5337 8.5612 -194.7733
v  -54.1952 8.5612 -194.7733
v  -57.5337 2.1887 -201.1458
v  -54.1952 2.1887 -201.1458
v  -57.5337 -0.1437 -209.8507
v  -54.1952 -0.1437 -209.8507
v  -57.5337 2.1887 -218.5556
v  -54.1952 2.1887 -218.5556
v  -57.5337 8.5612 -224.9280
v  -54.1952 8.5612 -224.9280
v  -57.5337 17.2661 -227.2605
v  -54.1952 17.2661 -227.2605
v  -57.5337 25.9710 -224.9280
v  -54.1952 25.9710 -224.9280
v  -57.5337 28.5884 -203.3138
v  -57.5337 23.8030 -198.5283
v  -57.5337 32.3434 -218.5556
v  -54.1952 32.3434 -218.5556
v  -57.5337 10.7292 -198.5283
v  -57.5337 17.2661 -196.7768
v  -61.7488 17.2661 -196.7768
v  -61.7488 10.7292 -198.5283
v  -57.5337 17.2661 -222.9245
v  -57.5337 23.8030 -221.1729
v  -57.5337 10.7292 -221.1729
v  -57.5337 5.9438 -216.3876
v  -57.5337 4.1922 -209.8507
v  -57.5337 5.9438 -203.3138
v  -57.5337 28.5884 -216.3876
v  -57.5337 30.3399 -209.8507
v  -61.7488 28.5884 -203.3138
v  -61.7487 30.3399 -209.8507
v  -61.7488 28.5884 -216.3876
v  -61.7488 23.8030 -221.1729
v  -61.7488 17.2661 -222.9245
v  -61.7488 10.7292 -221.1729
v  -61.7488 5.9438 -216.3876
v  -61.7488 4.1922 -209.8507
v  -61.7488 5.9438 -203.3138
v  -61.7488 23.8030 -198.5283
v  -63.9043 44.8557 -181.2809
v  -40.2823 44.8557 -181.2809
v  -40.2823 13.3286 -181.2809
v  -63.9043 13.3286 -181.2809
v  -40.2823 44.8557 -157.6589
v  -40.2823 13.3286 -157.6589
v  -63.9043 44.8557 -157.6589
v  -63.9043 13.3286 -157.6589
v  -63.6885 21.9412 -220.3065
v  -57.4652 21.9412 -220.3065
v  -57.4652 11.9160 -220.3065
v  -63.6885 11.9160 -220.3065
v  -57.4652 27.5467 -169.4699
v  -57.4652 21.9412 -118.6331
v  -57.4652 11.9160 -118.6331
v  -57.4652 20.5948 -169.4699
v  -63.6886 21.9412 -118.6331
v  -63.6886 11.9160 -118.6331
v  -63.6886 27.5467 -169.4699
v  -63.6886 20.5948 -169.4699
v  -58.9055 17.2132 -174.7748
v  -58.9055 39.0374 -174.7748
v  -59.4000 39.0374 -172.9293
v  -59.4000 17.2132 -172.9293
v  -60.7509 39.0374 -171.5784
v  -60.7509 17.2132 -171.5784
v  -62.5964 39.0374 -171.0839
v  -62.5964 17.2132 -171.0839
v  -64.4418 39.0374 -171.5784
v  -64.4418 17.2132 -171.5784
v  -65.7927 39.0374 -172.9293
v  -65.7927 17.2132 -172.9293
v  -66.2872 39.0374 -174.7748
v  -66.2872 17.2132 -174.7748
v  -65.7927 39.0374 -176.6202
v  -65.7927 17.2132 -176.6202
v  -64.4418 39.0374 -177.9711
v  -64.4418 17.2132 -177.9711
v  -62.5964 39.0374 -178.4656
v  -62.5964 17.2132 -178.4656
v  -60.7509 39.0374 -177.9711
v  -60.7509 17.2132 -177.9711
v  -59.4000 39.0374 -176.6202
v  -59.4000 17.2132 -176.6202
v  -58.9055 17.2132 -164.1113
v  -58.9055 39.0374 -164.1113
v  -59.4000 39.0374 -162.2659
v  -59.4000 17.2132 -162.2659
v  -60.7509 39.0374 -160.9149
v  -60.7509 17.2132 -160.9149
v  -62.5964 39.0374 -160.4204
v  -62.5964 17.2132 -160.4204
v  -64.4418 39.0374 -160.9149
v  -64.4418 17.2132 -160.9149
v  -65.7927 39.0374 -162.2659
v  -65.7927 17.2132 -162.2659
v  -66.2872 39.0374 -164.1113
v  -66.2872 17.2132 -164.1113
v  -65.7927 39.0374 -165.9566
v  -65.7927 17.2132 -165.9566
v  -64.4418 39.0374 -167.3076
v  -64.4418 17.2132 -167.3076
v  -62.5964 39.0374 -167.8021
v  -62.5964 17.2132 -167.8021
v  -60.7509 39.0374 -167.3076
v  -60.7509 17.2132 -167.3076
v  -59.4000 39.0374 -165.9566
v  -59.4000 17.2132 -165.9566
v  -54.1952 34.6759 -128.5892
v  -57.5337 34.6759 -128.5892
v  -57.5337 32.3434 -119.8842
v  -54.1952 32.3434 -119.8842
v  -57.5337 25.9710 -113.5119
v  -54.1952 25.9710 -113.5119
v  -57.5337 17.2661 -111.1794
v  -54.1952 17.2661 -111.1794
v  -57.5337 8.5612 -113.5119
v  -54.1952 8.5612 -113.5119
v  -57.5337 2.1887 -119.8842
v  -54.1952 2.1887 -119.8842
v  -57.5337 -0.1437 -128.5892
v  -54.1952 -0.1437 -128.5892
v  -57.5337 2.1887 -137.2941
v  -54.1952 2.1887 -137.2941
v  -57.5337 8.5612 -143.6665
v  -54.1952 8.5612 -143.6665
v  -57.5337 17.2661 -145.9990
v  -54.1952 17.2661 -145.9990
v  -57.5337 25.9710 -143.6665
v  -54.1952 25.9710 -143.6665
v  -57.5337 28.5884 -122.0522
v  -57.5337 23.8030 -117.2669
v  -57.5337 32.3434 -137.2941
v  -54.1952 32.3434 -137.2941
v  -57.5337 10.7292 -117.2669
v  -57.5337 17.2661 -115.5153
v  -61.7488 17.2661 -115.5153
v  -61.7488 10.7292 -117.2669
v  -57.5337 17.2661 -141.6631
v  -57.5337 23.8030 -139.9115
v  -57.5337 10.7291 -139.9115
v  -57.5337 5.9438 -135.1261
v  -57.5337 4.1922 -128.5892
v  -57.5337 5.9438 -122.0522
v  -57.5337 28.5884 -135.1261
v  -57.5337 30.3399 -128.5892
v  -61.7488 28.5884 -122.0522
v  -61.7488 30.3399 -128.5892
v  -61.7488 28.5884 -135.1261
v  -61.7488 23.8030 -139.9115
v  -61.7488 17.2661 -141.6631
v  -61.7488 10.7291 -139.9115
v  -61.7488 5.9438 -135.1261
v  -61.7488 4.1922 -128.5892
v  -61.7488 5.9438 -122.0522
v  -61.7488 23.8030 -117.2669
v  -54.1952 34.6759 206.7817
v  -57.5337 34.6759 206.7817
v  -57.5337 32.3434 215.4866
v  -54.1952 32.3434 215.4866
v  -57.5337 25.9709 221.8591
v  -54.1952 25.9709 221.8591
v  -57.5337 17.2660 224.1916
v  -54.1952 17.2660 224.1916
v  -57.5337 8.5611 221.8591
v  -54.1952 8.5611 221.8591
v  -57.5337 2.1887 215.4866
v  -54.1952 2.1887 215.4866
v  -57.5337 -0.1438 206.7817
v  -54.1952 -0.1438 206.7817
v  -57.5337 2.1887 198.0768
v  -54.1952 2.1887 198.0768
v  -57.5337 8.5611 191.7044
v  -54.1952 8.5611 191.7044
v  -57.5337 17.2660 189.3719
v  -54.1952 17.2660 189.3719
v  -57.5337 25.9709 191.7044
v  -54.1952 25.9709 191.7044
v  -57.5337 28.5883 213.3187
v  -57.5337 23.8030 218.1041
v  -57.5337 32.3434 198.0768
v  -54.1952 32.3434 198.0768
v  -57.5337 10.7291 218.1041
v  -57.5337 17.2660 219.8556
v  -61.7488 17.2660 219.8556
v  -61.7488 10.7291 218.1041
v  -57.5337 17.2660 193.7079
v  -57.5337 23.8030 195.4595
v  -57.5337 10.7291 195.4595
v  -57.5337 5.9438 200.2448
v  -57.5337 4.1922 206.7817
v  -57.5337 5.9438 213.3187
v  -57.5337 28.5883 200.2448
v  -57.5337 30.3399 206.7817
v  -61.7488 28.5883 213.3187
v  -61.7488 30.3399 206.7817
v  -61.7488 28.5883 200.2448
v  -61.7488 23.8030 195.4595
v  -61.7488 17.2660 193.7079
v  -61.7488 10.7291 195.4595
v  -61.7488 5.9438 200.2448
v  -61.7488 4.1922 206.7817
v  -61.7488 5.9438 213.3187
v  -61.7488 23.8030 218.1041
v  -58.9055 17.2132 171.2597
v  -58.9055 39.0374 171.2597
v  -59.4000 39.0374 173.1051
v  -59.4000 17.2132 173.1051
v  -60.7509 39.0374 174.4561
v  -60.7509 17.2132 174.4561
v  -62.5963 39.0374 174.9506
v  -62.5963 17.2132 174.9506
v  -64.4418 39.0374 174.4561
v  -64.4418 17.2132 174.4561
v  -65.7927 39.0374 173.1051
v  -65.7927 17.2132 173.1051
v  -66.2872 39.0374 171.2597
v  -66.2872 17.2132 171.2597
v  -65.7927 39.0374 169.4144
v  -65.7927 17.2132 169.4144
v  -64.4417 39.0374 168.0634
v  -64.4417 17.2132 168.0634
v  -62.5963 39.0374 167.5689
v  -62.5963 17.2132 167.5689
v  -60.7509 39.0374 168.0634
v  -60.7509 17.2132 168.0634
v  -59.4000 39.0374 169.4142
v  -59.4000 17.2132 169.4142
v  -58.9055 17.2132 160.5962
v  -58.9055 39.0374 160.5962
v  -59.4000 39.0374 162.4416
v  -59.4000 17.2132 162.4416
v  -60.7509 39.0374 163.7925
v  -60.7509 17.2132 163.7925
v  -62.5963 39.0374 164.2870
v  -62.5963 17.2132 164.2870
v  -64.4417 39.0374 163.7925
v  -64.4417 17.2132 163.7925
v  -65.7927 39.0374 162.4416
v  -65.7927 17.2132 162.4416
v  -66.2872 39.0374 160.5962
v  -66.2872 17.2132 160.5962
v  -65.7927 39.0374 158.7508
v  -65.7927 17.2132 158.7508
v  -64.4418 39.0374 157.3998
v  -64.4418 17.2132 157.3998
v  -62.5963 39.0374 156.9053
v  -62.5963 17.2132 156.9053
v  -60.7509 39.0374 157.3998
v  -60.7509 17.2132 157.3998
v  -59.4000 39.0374 158.7508
v  -59.4000 17.2132 158.7508
v  -63.6885 21.9412 115.0644
v  -57.4652 21.9412 115.0644
v  -57.4652 11.9160 115.0644
v  -63.6885 11.9160 115.0644
v  -57.4652 27.5467 165.9011
v  -57.4652 21.9412 216.7377
v  -57.4652 11.9160 216.7377
v  -57.4652 20.5948 165.9011
v  -63.6886 21.9412 216.7377
v  -63.6886 11.9160 216.7377
v  -63.6885 27.5467 165.9011
v  -63.6885 20.5948 165.9011
v  -63.9043 44.8557 154.0901
v  -40.2822 44.8557 154.0901
v  -40.2822 13.3285 154.0901
v  -63.9043 13.3285 154.0901
v  -40.2822 44.8557 177.7121
v  -40.2822 13.3285 177.7121
v  -63.9043 44.8557 177.7121
v  -63.9043 13.3285 177.7121
v  -54.1952 34.6759 125.5203
v  -57.5337 34.6759 125.5203
v  -57.5337 32.3434 134.2252
v  -54.1952 32.3434 134.2252
v  -57.5337 25.9710 140.5976
v  -54.1952 25.9710 140.5976
v  -57.5337 17.2661 142.9301
v  -54.1952 17.2661 142.9301
v  -57.5337 8.5611 140.5976
v  -54.1952 8.5611 140.5976
v  -57.5337 2.1887 134.2252
v  -54.1952 2.1887 134.2252
v  -57.5337 -0.1438 125.5203
v  -54.1952 -0.1438 125.5203
v  -57.5337 2.1887 116.8154
v  -54.1952 2.1887 116.8154
v  -57.5337 8.5611 110.4429
v  -54.1951 8.5611 110.4429
v  -57.5337 17.2660 108.1104
v  -54.1952 17.2660 108.1104
v  -57.5337 25.9710 110.4430
v  -54.1951 25.9710 110.4430
v  -57.5337 28.5883 132.0573
v  -57.5337 23.8030 136.8426
v  -57.5337 32.3434 116.8153
v  -54.1951 32.3434 116.8153
v  -57.5337 10.7291 136.8426
v  -57.5337 17.2661 138.5942
v  -61.7487 17.2661 138.5942
v  -61.7487 10.7291 136.8426
v  -57.5337 17.2660 112.4465
v  -57.5337 23.8030 114.1980
v  -57.5337 10.7291 114.1980
v  -57.5337 5.9438 118.9834
v  -57.5337 4.1922 125.5203
v  -57.5337 5.9438 132.0573
v  -57.5337 28.5883 118.9833
v  -57.5337 30.3399 125.5203
v  -61.7487 28.5883 132.0573
v  -61.7487 30.3399 125.5203
v  -61.7487 28.5883 118.9833
v  -61.7487 23.8030 114.1980
v  -61.7487 17.2660 112.4465
v  -61.7487 10.7291 114.1980
v  -61.7487 5.9438 118.9833
v  -61.7487 4.1922 125.5203
v  -61.7487 5.9438 132.0573
v  -61.7487 23.8030 136.8426
v  54.1117 34.6759 -128.9469
v  57.4502 34.6759 -128.9469
v  57.4502 32.3434 -137.6518
v  54.1117 32.3434 -137.6518
v  57.4502 25.9710 -144.0242
v  54.1117 25.9710 -144.0242
v  57.4502 17.2661 -146.3567
v  54.1117 17.2661 -146.3567
v  57.4502 8.5612 -144.0242
v  54.1117 8.5612 -144.0242
v  57.4502 2.1887 -137.6518
v  54.1117 2.1887 -137.6518
v  57.4502 -0.1437 -128.9469
v  54.1117 -0.1437 -128.9469
v  57.4502 2.1887 -120.2420
v  54.1117 2.1887 -120.2420
v  57.4502 8.5612 -113.8696
v  54.1117 8.5612 -113.8696
v  57.4502 17.2661 -111.5371
v  54.1117 17.2661 -111.5371
v  57.4502 25.9710 -113.8696
v  54.1117 25.9710 -113.8696
v  57.4502 28.5884 -135.4838
v  57.4502 23.8030 -140.2692
v  57.4502 32.3434 -120.2420
v  54.1117 32.3434 -120.2420
v  57.4502 10.7292 -140.2692
v  57.4502 17.2661 -142.0207
v  61.6653 17.2661 -142.0207
v  61.6653 10.7292 -140.2692
v  57.4502 17.2661 -115.8730
v  57.4502 23.8030 -117.6246
v  57.4502 10.7291 -117.6246
v  57.4502 5.9438 -122.4100
v  57.4502 4.1922 -128.9469
v  57.4502 5.9438 -135.4838
v  57.4502 28.5884 -122.4100
v  57.4502 30.3399 -128.9469
v  61.6653 28.5884 -135.4838
v  61.6653 30.3399 -128.9469
v  61.6653 28.5884 -122.4100
v  61.6653 23.8030 -117.6246
v  61.6653 17.2661 -115.8730
v  61.6653 10.7291 -117.6246
v  61.6653 5.9438 -122.4100
v  61.6653 4.1922 -128.9469
v  61.6653 5.9438 -135.4838
v  61.6653 23.8030 -140.2692
v  63.8209 44.8557 -157.5167
v  40.1988 44.8557 -157.5167
v  40.1988 13.3286 -157.5167
v  63.8209 13.3286 -157.5167
v  40.1988 44.8557 -181.1387
v  40.1988 13.3286 -181.1387
v  63.8208 44.8557 -181.1387
v  63.8208 13.3286 -181.1387
v  63.6051 21.9412 -118.4910
v  57.3817 21.9412 -118.4910
v  57.3817 11.9160 -118.4910
v  63.6051 11.9160 -118.4910
v  57.3817 27.5467 -169.3277
v  57.3817 21.9412 -220.1644
v  57.3817 11.9160 -220.1644
v  57.3817 20.5948 -169.3277
v  63.6051 21.9412 -220.1644
v  63.6051 11.9160 -220.1644
v  63.6051 27.5467 -169.3277
v  63.6051 20.5948 -169.3277
v  58.8221 17.2132 -164.0228
v  58.8221 39.0374 -164.0228
v  59.3165 39.0374 -165.8682
v  59.3165 17.2132 -165.8682
v  60.6675 39.0374 -167.2192
v  60.6675 17.2132 -167.2192
v  62.5129 39.0374 -167.7136
v  62.5129 17.2132 -167.7136
v  64.3583 39.0374 -167.2192
v  64.3583 17.2132 -167.2192
v  65.7092 39.0374 -165.8682
v  65.7092 17.2132 -165.8682
v  66.2037 39.0374 -164.0228
v  66.2037 17.2132 -164.0228
v  65.7092 39.0374 -162.1774
v  65.7092 17.2132 -162.1774
v  64.3583 39.0374 -160.8264
v  64.3583 17.2132 -160.8264
v  62.5129 39.0374 -160.3319
v  62.5129 17.2132 -160.3319
v  60.6675 39.0374 -160.8264
v  60.6675 17.2132 -160.8264
v  59.3165 39.0374 -162.1774
v  59.3165 17.2132 -162.1774
v  58.8221 17.2132 -174.6863
v  58.8221 39.0374 -174.6863
v  59.3165 39.0374 -176.5317
v  59.3165 17.2132 -176.5317
v  60.6675 39.0374 -177.8826
v  60.6675 17.2132 -177.8826
v  62.5129 39.0374 -178.3772
v  62.5129 17.2132 -178.3772
v  64.3583 39.0374 -177.8826
v  64.3583 17.2132 -177.8826
v  65.7092 39.0374 -176.5317
v  65.7092 17.2132 -176.5317
v  66.2037 39.0374 -174.6863
v  66.2037 17.2132 -174.6863
v  65.7092 39.0374 -172.8409
v  65.7092 17.2132 -172.8409
v  64.3583 39.0374 -171.4900
v  64.3583 17.2132 -171.4900
v  62.5129 39.0374 -170.9954
v  62.5129 17.2132 -170.9954
v  60.6675 39.0374 -171.4900
v  60.6675 17.2132 -171.4900
v  59.3165 39.0374 -172.8409
v  59.3165 17.2132 -172.8409
v  54.1117 34.6759 -210.2083
v  57.4502 34.6759 -210.2083
v  57.4502 32.3434 -218.9133
v  54.1117 32.3434 -218.9133
v  57.4502 25.9710 -225.2857
v  54.1117 25.9710 -225.2857
v  57.4502 17.2661 -227.6182
v  54.1117 17.2661 -227.6182
v  57.4502 8.5612 -225.2857
v  54.1117 8.5612 -225.2857
v  57.4502 2.1888 -218.9133
v  54.1117 2.1888 -218.9133
v  57.4502 -0.1437 -210.2083
v  54.1117 -0.1437 -210.2083
v  57.4502 2.1887 -201.5034
v  54.1117 2.1887 -201.5034
v  57.4502 8.5612 -195.1311
v  54.1117 8.5612 -195.1311
v  57.4502 17.2661 -192.7985
v  54.1117 17.2661 -192.7985
v  57.4502 25.9710 -195.1311
v  54.1117 25.9710 -195.1311
v  57.4502 28.5884 -216.7453
v  57.4502 23.8030 -221.5307
v  57.4502 32.3434 -201.5034
v  54.1117 32.3434 -201.5034
v  57.4502 10.7292 -221.5307
v  57.4502 17.2661 -223.2823
v  61.6653 17.2661 -223.2823
v  61.6653 10.7292 -221.5307
v  57.4502 17.2661 -197.1345
v  57.4502 23.8030 -198.8861
v  57.4502 10.7292 -198.8861
v  57.4502 5.9438 -203.6715
v  57.4502 4.1922 -210.2083
v  57.4502 5.9438 -216.7453
v  57.4502 28.5884 -203.6715
v  57.4502 30.3399 -210.2083
v  61.6653 28.5884 -216.7453
v  61.6653 30.3399 -210.2083
v  61.6653 28.5884 -203.6715
v  61.6653 23.8030 -198.8861
v  61.6653 17.2661 -197.1345
v  61.6653 10.7292 -198.8861
v  61.6653 5.9438 -203.6715
v  61.6653 4.1922 -210.2083
v  61.6653 5.9438 -216.7453
v  61.6653 23.8030 -221.5307
v  54.1117 34.6759 125.1627
v  57.4502 34.6759 125.1627
v  57.4502 32.3434 116.4578
v  54.1117 32.3434 116.4578
v  57.4502 25.9710 110.0853
v  54.1117 25.9710 110.0853
v  57.4502 17.2661 107.7529
v  54.1117 17.2661 107.7529
v  57.4502 8.5611 110.0853
v  54.1117 8.5611 110.0853
v  57.4502 2.1887 116.4578
v  54.1117 2.1887 116.4578
v  57.4502 -0.1438 125.1627
v  54.1117 -0.1438 125.1627
v  57.4502 2.1887 133.8676
v  54.1117 2.1887 133.8676
v  57.4502 8.5611 140.2400
v  54.1117 8.5611 140.2400
v  57.4502 17.2660 142.5725
v  54.1117 17.2660 142.5725
v  57.4502 25.9709 140.2400
v  54.1117 25.9709 140.2400
v  57.4502 28.5883 118.6258
v  57.4502 23.8030 113.8404
v  57.4502 32.3434 133.8676
v  54.1117 32.3434 133.8676
v  57.4502 10.7291 113.8404
v  57.4502 17.2661 112.0888
v  61.6653 17.2661 112.0888
v  61.6653 10.7291 113.8404
v  57.4502 17.2660 138.2365
v  57.4502 23.8030 136.4849
v  57.4502 10.7291 136.4849
v  57.4502 5.9438 131.6996
v  57.4502 4.1922 125.1627
v  57.4502 5.9438 118.6258
v  57.4502 28.5883 131.6996
v  57.4502 30.3399 125.1627
v  61.6653 28.5883 118.6258
v  61.6653 30.3399 125.1627
v  61.6653 28.5883 131.6996
v  61.6653 23.8030 136.4849
v  61.6653 17.2660 138.2365
v  61.6653 10.7291 136.4849
v  61.6653 5.9438 131.6996
v  61.6653 4.1922 125.1627
v  61.6653 5.9438 118.6258
v  61.6653 23.8030 113.8404
v  58.8221 17.2132 160.6846
v  58.8221 39.0374 160.6846
v  59.3165 39.0374 158.8393
v  59.3165 17.2132 158.8393
v  60.6675 39.0374 157.4883
v  60.6675 17.2132 157.4883
v  62.5129 39.0374 156.9939
v  62.5129 17.2132 156.9939
v  64.3583 39.0374 157.4883
v  64.3583 17.2132 157.4883
v  65.7093 39.0374 158.8393
v  65.7093 17.2132 158.8393
v  66.2037 39.0374 160.6846
v  66.2037 17.2132 160.6846
v  65.7093 39.0374 162.5301
v  65.7093 17.2132 162.5301
v  64.3583 39.0374 163.8811
v  64.3583 17.2132 163.8811
v  62.5129 39.0374 164.3755
v  62.5129 17.2132 164.3755
v  60.6675 39.0374 163.8811
v  60.6675 17.2132 163.8811
v  59.3166 39.0374 162.5301
v  59.3166 17.2132 162.5301
v  58.8221 17.2132 171.3482
v  58.8221 39.0374 171.3482
v  59.3166 39.0374 169.5028
v  59.3166 17.2132 169.5028
v  60.6675 39.0374 168.1519
v  60.6675 17.2132 168.1519
v  62.5129 39.0374 167.6574
v  62.5129 17.2132 167.6574
v  64.3583 39.0374 168.1519
v  64.3583 17.2132 168.1519
v  65.7093 39.0374 169.5028
v  65.7093 17.2132 169.5028
v  66.2037 39.0374 171.3482
v  66.2037 17.2132 171.3482
v  65.7093 39.0374 173.1937
v  65.7093 17.2132 173.1937
v  64.3583 39.0374 174.5446
v  64.3583 17.2132 174.5446
v  62.5129 39.0374 175.0391
v  62.5129 17.2132 175.0391
v  60.6675 39.0374 174.5446
v  60.6675 17.2132 174.5446
v  59.3166 39.0374 173.1937
v  59.3166 17.2132 173.1937
v  63.6051 21.9412 216.8800
v  57.3818 21.9412 216.8800
v  57.3818 11.9160 216.8800
v  63.6051 11.9160 216.8800
v  57.3818 27.5467 166.0433
v  57.3818 21.9412 115.2067
v  57.3818 11.9160 115.2067
v  57.3818 20.5948 166.0433
v  63.6051 21.9412 115.2067
v  63.6051 11.9160 115.2067
v  63.6051 27.5467 166.0433
v  63.6051 20.5948 166.0433
v  63.8209 44.8557 177.8543
v  40.1988 44.8557 177.8543
v  40.1988 13.3285 177.8543
v  63.8209 13.3285 177.8543
v  40.1988 44.8557 154.2323
v  40.1988 13.3285 154.2323
v  63.8209 44.8557 154.2323
v  63.8209 13.3285 154.2323
v  54.1117 34.6759 206.4242
v  57.4503 34.6759 206.4242
v  57.4503 32.3434 197.7193
v  54.1117 32.3434 197.7193
v  57.4503 25.9709 191.3468
v  54.1117 25.9709 191.3468
v  57.4503 17.2660 189.0143
v  54.1117 17.2660 189.0143
v  57.4503 8.5611 191.3468
v  54.1117 8.5611 191.3468
v  57.4503 2.1887 197.7193
v  54.1117 2.1887 197.7193
v  57.4503 -0.1438 206.4242
v  54.1117 -0.1438 206.4242
v  57.4503 2.1887 215.1291
v  54.1117 2.1887 215.1291
v  57.4503 8.5611 221.5015
v  54.1117 8.5611 221.5015
v  57.4503 17.2660 223.8340
v  54.1117 17.2660 223.8340
v  57.4503 25.9709 221.5015
v  54.1117 25.9709 221.5015
v  57.4503 28.5883 199.8873
v  57.4503 23.8030 195.1019
v  57.4503 32.3434 215.1291
v  54.1117 32.3434 215.1291
v  57.4503 10.7291 195.1019
v  57.4503 17.2660 193.3502
v  61.6653 17.2660 193.3502
v  61.6653 10.7291 195.1019
v  57.4503 17.2660 219.4980
v  57.4503 23.8030 217.7464
v  57.4503 10.7291 217.7464
v  57.4503 5.9438 212.9611
v  57.4503 4.1922 206.4242
v  57.4503 5.9438 199.8873
v  57.4503 28.5883 212.9611
v  57.4503 30.3399 206.4242
v  61.6653 28.5883 199.8873
v  61.6653 30.3399 206.4242
v  61.6653 28.5883 212.9611
v  61.6653 23.8030 217.7464
v  61.6653 17.2660 219.4980
v  61.6653 10.7291 217.7464
v  61.6653 5.9438 212.9611
v  61.6653 4.1922 206.4242
v  61.6653 5.9438 199.8873
v  61.6653 23.8030 195.1019
v  -63.5914 98.2791 -175.9781
v  -67.7558 98.2791 -175.9781
v  -67.7558 47.1722 -175.9781
v  -63.5914 47.1722 -175.9781
v  -67.7558 98.2791 -184.2151
v  -67.7558 47.1722 -184.2151
v  -63.5914 98.2791 -184.2151
v  -63.5914 47.1722 -184.2151
v  -63.5913 98.2790 -56.5181
v  -67.7558 98.2790 -56.5181
v  -67.7558 47.1722 -56.5181
v  -63.5914 47.1722 -56.5181
v  -67.7558 98.2790 -64.7550
v  -67.7558 47.1722 -64.7550
v  -63.5913 98.2790 -64.7550
v  -63.5914 47.1722 -64.7550
v  -63.5913 98.2790 61.4169
v  -67.7558 98.2790 61.4169
v  -67.7558 47.1722 61.4169
v  -63.5913 47.1722 61.4169
v  -67.7558 98.2790 53.1800
v  -67.7558 47.1722 53.1800
v  -63.5913 98.2790 53.1800
v  -63.5913 47.1722 53.1800
v  -63.5913 98.2790 179.3518
v  -67.7558 98.2790 179.3518
v  -67.7558 47.1722 179.3518
v  -63.5913 47.1722 179.3518
v  -67.7558 98.2790 171.1149
v  -67.7558 47.1722 171.1149
v  -63.5913 98.2790 171.1149
v  -63.5913 47.1722 171.1149
v  67.6723 98.2791 -175.9782
v  63.5079 98.2791 -175.9782
v  63.5079 47.1722 -175.9782
v  67.6723 47.1722 -175.9782
v  63.5079 98.2791 -184.2151
v  63.5079 47.1722 -184.2151
v  67.6723 98.2791 -184.2151
v  67.6723 47.1722 -184.2151
v  67.6723 98.2790 -56.5182
v  63.5079 98.2790 -56.5182
v  63.5079 47.1722 -56.5182
v  67.6723 47.1722 -56.5182
v  63.5079 98.2790 -64.7551
v  63.5079 47.1722 -64.7551
v  67.6723 98.2790 -64.7551
v  67.6723 47.1722 -64.7551
v  67.6723 98.2790 61.4168
v  63.5079 98.2790 61.4168
v  63.5079 47.1722 61.4168
v  67.6723 47.1722 61.4168
v  63.5079 98.2790 53.1799
v  63.5079 47.1722 53.1799
v  67.6723 98.2790 53.1799
v  67.6723 47.1722 53.1799
v  67.6723 98.2790 179.3518
v  63.5079 98.2790 179.3518
v  63.5079 47.1722 179.3518
v  67.6723 47.1722 179.3518
v  63.5079 98.2790 171.1148
v  63.5079 47.1722 171.1148
v  67.6723 98.2790 171.1148
v  67.6723 47.1722 171.1148
# 832 vertices

vn 0.0000 -0.0000 1.0000
vn 0.0000 1.0000 0.0000
vn 0.0000 0.0000 -1.0000
vn 0.0000 -1.0000 -0.0000
vn -1.0000 0.0000 -0.0000
vn 1.0000 -0.0000 0.0000
vn 0.0000 -1.0000 0.0000
vn -0.0000 -1.0000 0.0000
vn 1.0000 0.0000 0.0000
vn 0.0000 1.0000 -0.0000
vn -0.0000 -1.0000 -0.0000
vn -1.0000 -0.0000 -0.0000
vn -0.0000 0.0000 -1.0000
vn -0.0000 -0.4015 0.9159
vn -0.0000 -0.4015 -0.9159
vn -0.0000 1.0000 0.0000
vn 0.0000 -0.3128 0.9498
vn -1.0000 -0.0000 0.0000
vn 0.0000 -0.3128 -0.9498
vn 1.0000 -0.0000 -0.0000
vn 1.0000 0.0000 -0.0000
vn 0.0000 0.9659 0.2588
vn 0.0000 0.7071 0.7071
vn -0.0000 0.2588 0.9659
vn -0.0000 -0.2588 0.9659
vn 0.0000 -0.7071 0.7071
vn 0.0000 -0.9659 0.2588
vn 0.0000 -0.9659 -0.2588
vn 0.0000 -0.7071 -0.7071
vn 0.0000 -0.2588 -0.9659
vn -0.0000 0.2588 -0.9659
vn -0.0000 0.7071 -0.7071
vn 0.0000 0.9659 -0.2588
vn 0.0000 -0.2588 0.9659
vn -1.0000 0.0000 0.0000
vn 0.0000 0.7071 -0.7071
vn 0.0000 0.2588 0.9659
vn 0.0000 -0.9857 -0.1683
vn 0.0000 0.9940 -0.1096
vn 0.0000 0.9940 0.1096
vn 0.0000 -0.9857 0.1683
vn 0.9659 -0.0000 0.2588
vn 0.7071 -0.0000 0.7071
vn 0.2588 -0.0000 0.9659
vn -0.2588 -0.0000 0.9659
vn -0.7071 -0.0000 0.7071
vn -0.9659 0.0000 0.2588
vn -0.9659 0.0000 -0.2588
vn -0.7071 0.0000 -0.7071
vn -0.2588 0.0000 -0.9659
vn 0.2588 0.0000 -0.9659
vn 0.7071 0.0000 -0.7071
vn 0.9659 0.0000 -0.2588
vn -0.9659 -0.0000 0.2588
vn 0.0000 0.2588 -0.9659
vn -0.0000 -0.9659 -0.2588
vn -0.0000 -0.7071 -0.7071
vn -0.0000 -0.2588 -0.9659
vn -0.0000 0.9940 -0.1096
vn -0.0000 0.9940 0.1096
vn -0.0000 -0.9857 0.1683
vn -0.0000 0.9659 0.2588
vn -0.0000 0.7071 0.7071
vn -0.0000 -0.9659 0.2588
vn -0.0000 -0.7071 0.7071
vn -0.0000 0.9659 -0.2588
vn -0.9659 -0.0000 -0.2588
vn -0.2589 0.0000 -0.9659
vn 0.0000 0.0000 1.0000
vn 0.0000 -0.0000 -1.0000
vn -0.0000 0.0000 1.0000
vn -0.0000 1.0000 -0.0000
# 72 vertex normals

vt 0.1508 0.0343 0.0000
vt 0.1508 0.0332 0.0000
vt 0.1512 0.0343 0.0000
vt 0.1512 0.0332 0.0000
vt 0.1496 0.0340 0.0000
vt 0.1496 0.0334 0.0000
vt 0.1499 0.0337 0.0000
vt 0.1499 0.0340 0.0000
vt 0.1502 0.0337 0.0000
vt 0.1512 0.0334 0.0000
vt 0.1502 0.0340 0.0000
vt 0.1512 0.0340 0.0000
vt 0.1639 0.0350 0.0000
vt 0.1798 0.0350 0.0000
vt 0.1798 0.0509 0.0000
vt 0.1639 0.0509 0.0000
vt 0.5624 0.0096 0.0000
vt 0.5783 0.0096 0.0000
vt 0.5783 0.0255 0.0000
vt 0.5624 0.0255 0.0000
vt 0.9385 0.7598 0.0000
vt 0.9385 0.9781 0.0000
vt 0.0809 0.9781 0.0000
vt 0.0809 0.7598 0.0000
vt 0.1912 0.0341 0.0000
vt 0.1905 0.0339 0.0000
vt 0.1900 0.0334 0.0000
vt 0.1898 0.0327 0.0000
vt 0.1900 0.0320 0.0000
vt 0.1905 0.0315 0.0000
vt 0.1912 0.0313 0.0000
vt 0.1919 0.0315 0.0000
vt 0.1924 0.0320 0.0000
vt 0.1926 0.0327 0.0000
vt 0.1924 0.0334 0.0000
vt 0.1907 0.0336 0.0000
vt 0.1903 0.0332 0.0000
vt 0.1919 0.0339 0.0000
vt 0.1903 0.0322 0.0000
vt 0.1902 0.0327 0.0000
vt 0.1922 0.0327 0.0000
vt 0.1921 0.0332 0.0000
vt 0.1921 0.0322 0.0000
vt 0.1917 0.0318 0.0000
vt 0.1912 0.0317 0.0000
vt 0.1907 0.0318 0.0000
vt 0.1917 0.0336 0.0000
vt 0.1912 0.0337 0.0000
vt 0.1890 0.0349 0.0000
vt 0.1890 0.0324 0.0000
vt 0.1871 0.0349 0.0000
vt 0.1871 0.0324 0.0000
vt 0.1920 0.0331 0.0000
vt 0.1920 0.0323 0.0000
vt 0.1880 0.0335 0.0000
vt 0.1840 0.0331 0.0000
vt 0.1840 0.0323 0.0000
vt 0.1880 0.0330 0.0000
vt 0.1884 0.0327 0.0000
vt 0.1884 0.0344 0.0000
vt 0.1883 0.0344 0.0000
vt 0.1883 0.0327 0.0000
vt 0.1882 0.0344 0.0000
vt 0.1882 0.0327 0.0000
vt 0.1886 0.0344 0.0000
vt 0.1886 0.0327 0.0000
vt 0.1887 0.0344 0.0000
vt 0.1887 0.0327 0.0000
vt 0.1876 0.0327 0.0000
vt 0.1876 0.0344 0.0000
vt 0.1875 0.0344 0.0000
vt 0.1875 0.0327 0.0000
vt 0.1874 0.0344 0.0000
vt 0.1874 0.0327 0.0000
vt 0.1873 0.0344 0.0000
vt 0.1873 0.0327 0.0000
vt 0.1877 0.0344 0.0000
vt 0.1877 0.0327 0.0000
vt 0.1879 0.0344 0.0000
vt 0.1879 0.0327 0.0000
vt 0.1848 0.0341 0.0000
vt 0.1841 0.0339 0.0000
vt 0.1836 0.0334 0.0000
vt 0.1834 0.0327 0.0000
vt 0.1836 0.0320 0.0000
vt 0.1841 0.0315 0.0000
vt 0.1848 0.0313 0.0000
vt 0.1855 0.0315 0.0000
vt 0.1860 0.0320 0.0000
vt 0.1862 0.0327 0.0000
vt 0.1860 0.0334 0.0000
vt 0.1843 0.0336 0.0000
vt 0.1839 0.0332 0.0000
vt 0.1855 0.0339 0.0000
vt 0.1839 0.0322 0.0000
vt 0.1838 0.0327 0.0000
vt 0.1858 0.0327 0.0000
vt 0.1857 0.0332 0.0000
vt 0.1857 0.0322 0.0000
vt 0.1853 0.0318 0.0000
vt 0.1848 0.0317 0.0000
vt 0.1843 0.0318 0.0000
vt 0.1853 0.0336 0.0000
vt 0.1848 0.0337 0.0000
vt 0.1574 0.0341 0.0000
vt 0.1567 0.0339 0.0000
vt 0.1562 0.0334 0.0000
vt 0.1560 0.0327 0.0000
vt 0.1562 0.0320 0.0000
vt 0.1567 0.0315 0.0000
vt 0.1574 0.0313 0.0000
vt 0.1581 0.0315 0.0000
vt 0.1586 0.0320 0.0000
vt 0.1588 0.0327 0.0000
vt 0.1586 0.0334 0.0000
vt 0.1569 0.0336 0.0000
vt 0.1565 0.0332 0.0000
vt 0.1581 0.0339 0.0000
vt 0.1565 0.0322 0.0000
vt 0.1564 0.0327 0.0000
vt 0.1584 0.0327 0.0000
vt 0.1583 0.0332 0.0000
vt 0.1583 0.0322 0.0000
vt 0.1579 0.0318 0.0000
vt 0.1574 0.0317 0.0000
vt 0.1569 0.0318 0.0000
vt 0.1579 0.0336 0.0000
vt 0.1574 0.0337 0.0000
vt 0.1602 0.0327 0.0000
vt 0.1602 0.0344 0.0000
vt 0.1601 0.0344 0.0000
vt 0.1601 0.0327 0.0000
vt 0.1599 0.0344 0.0000
vt 0.1599 0.0327 0.0000
vt 0.1603 0.0344 0.0000
vt 0.1603 0.0327 0.0000
vt 0.1605 0.0344 0.0000
vt 0.1605 0.0327 0.0000
vt 0.1610 0.0327 0.0000
vt 0.1610 0.0344 0.0000
vt 0.1609 0.0344 0.0000
vt 0.1609 0.0327 0.0000
vt 0.1608 0.0344 0.0000
vt 0.1608 0.0327 0.0000
vt 0.1612 0.0344 0.0000
vt 0.1612 0.0327 0.0000
vt 0.1613 0.0344 0.0000
vt 0.1613 0.0327 0.0000
vt 0.1646 0.0331 0.0000
vt 0.1646 0.0323 0.0000
vt 0.1606 0.0335 0.0000
vt 0.1566 0.0331 0.0000
vt 0.1566 0.0323 0.0000
vt 0.1606 0.0330 0.0000
vt 0.1616 0.0349 0.0000
vt 0.1616 0.0324 0.0000
vt 0.1597 0.0349 0.0000
vt 0.1597 0.0324 0.0000
vt 0.1638 0.0341 0.0000
vt 0.1631 0.0339 0.0000
vt 0.1626 0.0334 0.0000
vt 0.1624 0.0327 0.0000
vt 0.1626 0.0320 0.0000
vt 0.1631 0.0315 0.0000
vt 0.1638 0.0313 0.0000
vt 0.1645 0.0315 0.0000
vt 0.1650 0.0320 0.0000
vt 0.1652 0.0327 0.0000
vt 0.1650 0.0334 0.0000
vt 0.1633 0.0336 0.0000
vt 0.1629 0.0332 0.0000
vt 0.1645 0.0339 0.0000
vt 0.1629 0.0322 0.0000
vt 0.1628 0.0327 0.0000
vt 0.1648 0.0327 0.0000
vt 0.1647 0.0332 0.0000
vt 0.1647 0.0322 0.0000
vt 0.1643 0.0318 0.0000
vt 0.1638 0.0317 0.0000
vt 0.1633 0.0318 0.0000
vt 0.1643 0.0336 0.0000
vt 0.1638 0.0337 0.0000
vt 0.1859 0.0327 0.0000
vt 0.1889 0.0349 0.0000
vt 0.1889 0.0324 0.0000
vt 0.1878 0.0344 0.0000
vt 0.1878 0.0327 0.0000
vt 0.1881 0.0344 0.0000
vt 0.1881 0.0327 0.0000
vt 0.1906 0.0315 0.0000
vt 0.1901 0.0320 0.0000
vt 0.1899 0.0327 0.0000
vt 0.1901 0.0334 0.0000
vt 0.1918 0.0336 0.0000
vt 0.1906 0.0339 0.0000
vt 0.1923 0.0327 0.0000
vt 0.1918 0.0318 0.0000
vt 0.1632 0.0315 0.0000
vt 0.1627 0.0320 0.0000
vt 0.1625 0.0327 0.0000
vt 0.1627 0.0334 0.0000
vt 0.1644 0.0336 0.0000
vt 0.1632 0.0339 0.0000
vt 0.1649 0.0327 0.0000
vt 0.1644 0.0318 0.0000
vt 0.1607 0.0344 0.0000
vt 0.1607 0.0327 0.0000
vt 0.1604 0.0344 0.0000
vt 0.1604 0.0327 0.0000
vt 0.1600 0.0344 0.0000
vt 0.1600 0.0327 0.0000
vt 0.1615 0.0349 0.0000
vt 0.1615 0.0324 0.0000
vt 0.1585 0.0327 0.0000
vt 0.5922 0.0258 0.0000
vt 0.6422 0.0258 0.0000
vt 0.6422 0.0758 0.0000
vt 0.5922 0.0758 0.0000
# 218 texture coords

g SPW_Vehicle_Train_Freight_Train_Trailer_02
usemtl SPW_Vehicle_Train_Freight_Train_Trailer
s off
f 169/11/12 170/11/12 171/12/12 172/12/12 
f 170/11/13 173/13/13 174/14/13 171/12/13 
f 173/13/14 175/13/14 176/14/14 174/14/14 
f 175/13/15 169/11/15 172/12/15 176/14/15 
f 172/12/16 171/12/16 174/14/16 176/14/16 
f 175/13/17 173/13/17 170/11/17 169/11/17 
f 177/15/12 178/15/12 179/16/12 180/16/12 
f 181/17/18 182/18/18 177/15/18 180/16/18 
f 183/19/15 181/17/15 180/16/15 184/20/15 
f 185/21/19 183/19/19 184/20/19 186/22/19 
f 187/18/20 178/15/20 177/15/20 182/18/20 
f 188/19/21 189/21/21 190/22/21 191/20/21 
f 192/17/13 188/19/13 191/20/13 179/16/13 
f 187/18/21 192/17/21 179/16/21 178/15/21 
f 180/16/16 179/16/16 191/20/16 184/20/16 
f 190/22/14 186/22/14 184/20/14 191/20/14 
f 186/22/17 190/22/17 189/21/17 185/21/17 
f 192/17/14 187/18/14 182/18/14 181/17/14 
f 181/17/17 183/19/17 188/19/17 192/17/17 
f 183/19/12 185/21/12 189/21/12 188/19/12 
f 193/11/12 194/11/12 195/12/12 196/12/12 
f 194/11/22 197/13/22 198/14/22 195/12/22 
f 197/13/14 199/13/14 200/14/14 198/14/14 
f 199/13/13 193/11/13 196/12/13 200/14/13 
f 196/12/17 195/12/17 198/14/17 200/14/17 
f 199/13/23 197/13/23 194/11/23 193/11/23 
f 201/15/12 202/15/12 203/16/12 204/16/12 
f 205/17/13 206/18/13 201/15/13 204/16/13 
f 207/19/13 205/17/13 204/16/13 208/20/13 
f 209/21/13 207/19/13 208/20/13 210/22/13 
f 211/18/23 202/15/23 201/15/23 206/18/23 
f 212/19/15 213/21/15 214/22/15 215/20/15 
f 216/17/15 212/19/15 215/20/15 203/16/15 
f 211/18/15 216/17/15 203/16/15 202/15/15 
f 204/16/17 203/16/17 215/20/17 208/20/17 
f 214/22/24 210/22/24 208/20/24 215/20/24 
f 210/22/23 214/22/23 213/21/23 209/21/23 
f 216/17/14 211/18/14 206/18/14 205/17/14 
f 205/17/16 207/19/16 212/19/16 216/17/16 
f 207/19/12 209/21/12 213/21/12 212/19/12 
f 217/11/14 218/11/14 219/12/14 220/12/14 
f 218/11/17 221/13/17 222/14/17 219/12/17 
f 221/13/12 223/13/12 224/14/12 222/14/12 
f 223/13/16 217/11/16 220/12/16 224/14/16 
f 220/12/22 219/12/22 222/14/22 224/14/22 
f 223/13/13 221/13/13 218/11/13 217/11/13 
f 225/15/14 226/15/14 227/16/14 228/16/14 
f 229/17/16 230/18/16 225/15/16 228/16/16 
f 231/19/16 229/17/16 228/16/16 232/20/16 
f 233/21/16 231/19/16 232/20/16 234/22/16 
f 235/18/13 226/15/13 225/15/13 230/18/13 
f 236/19/17 237/21/17 238/22/17 239/20/17 
f 240/17/17 236/19/17 239/20/17 227/16/17 
f 235/18/17 240/17/17 227/16/17 226/15/17 
f 228/16/18 227/16/18 239/20/18 232/20/18 
f 238/22/12 234/22/12 232/20/12 239/20/12 
f 234/22/13 238/22/13 237/21/13 233/21/13 
f 240/17/12 235/18/12 230/18/12 229/17/12 
f 229/17/13 231/19/13 236/19/13 240/17/13 
f 231/19/14 233/21/14 237/21/14 236/19/14 
f 241/23/14 242/24/14 243/25/14 244/26/14 
f 242/23/17 245/24/17 246/25/17 243/26/17 
f 245/23/25 247/24/25 248/25/25 246/26/25 
f 247/23/16 241/24/16 244/25/16 248/26/16 
f 244/23/19 243/24/19 246/25/19 248/26/19 
f 247/23/13 245/24/13 242/25/13 241/26/13 
f 249/23/12 250/24/12 251/25/12 252/26/12 
f 250/23/23 253/24/23 254/25/23 251/26/23 
f 253/23/26 255/24/26 256/25/26 254/26/26 
f 255/23/20 249/24/20 252/25/20 256/26/20 
f 252/23/18 251/24/18 254/25/18 256/26/18 
f 255/23/27 253/24/27 250/25/27 249/26/27 
f 257/23/28 258/24/28 259/25/28 260/26/28 
f 258/23/29 261/24/29 262/25/29 259/26/29 
f 261/23/30 263/24/30 264/25/30 262/26/30 
f 263/23/31 257/24/31 260/25/31 264/26/31 
f 260/23/15 259/24/15 262/25/15 264/26/15 
f 263/23/27 261/24/27 258/25/27 257/26/27 
s 1
f 265/23/12 266/24/12 267/25/12 268/26/12 
s 2
f 266/23/29 269/24/29 270/25/29 267/26/29 
s 1
f 269/23/14 271/24/14 272/25/14 270/26/14 
s 2
f 271/23/32 265/24/32 268/25/32 272/26/32 
s off
f 268/23/15 267/24/15 270/25/15 272/26/15 
s 4
f 273/27/27 274/28/13 275/29/13 276/30/27 
f 276/31/27 275/32/13 277/33/27 278/34/13 
f 279/27/27 280/28/13 278/29/13 277/30/27 
f 280/27/13 273/28/27 276/29/27 278/30/13 
f 274/27/13 279/28/27 277/29/27 275/30/13 
s 2
f 273/27/32 280/28/32 265/29/32 271/30/32 
s 1
f 274/27/14 273/28/14 271/29/14 269/30/14 
s 2
f 279/27/29 274/28/29 269/29/29 266/30/29 
s 1
f 280/27/12 279/28/12 266/29/12 265/30/12 
s off
f 281/35/33 282/35/33 283/36/33 284/36/33 
f 284/36/34 283/36/34 285/37/34 286/37/34 
f 286/37/35 285/37/35 287/38/35 288/38/35 
f 288/38/36 287/38/36 289/39/36 290/39/36 
f 290/39/37 289/39/37 291/40/37 292/40/37 
f 292/40/38 291/40/38 293/41/38 294/41/38 
f 294/41/39 293/41/39 295/42/39 296/42/39 
f 296/42/40 295/42/40 297/43/40 298/43/40 
f 298/43/41 297/43/41 299/44/41 300/44/41 
f 300/44/42 299/44/42 301/45/42 302/45/42 
s 1
f 285/37/16 283/36/16 303/46/16 304/47/16 
s off
f 302/45/43 301/45/43 305/48/43 306/48/43 
f 306/48/44 305/48/44 282/35/44 281/35/44 
f 281/35/17 284/36/17 286/37/17 288/38/17 
f 281/35/31 288/38/31 290/39/31 292/40/31 
f 281/35/31 292/40/31 294/41/31 296/42/31 
f 281/35/17 296/42/17 298/43/17 300/44/17 
f 281/35/20 300/44/20 302/45/20 306/48/20 
f 307/49/45 308/50/45 309/50/45 310/49/45 
s 2
f 301/45/16 299/44/16 311/51/16 312/52/16 
s 1
f 299/44/23 297/43/16 313/53/16 311/51/23 
f 297/43/16 295/42/16 314/54/16 313/53/16 
f 295/42/16 293/41/16 315/55/16 314/54/16 
f 293/41/16 291/40/16 316/56/16 315/55/16 
f 291/40/16 289/39/46 307/49/16 316/56/16 
f 289/39/46 287/38/16 308/50/16 307/49/16 
f 282/35/16 305/48/16 317/57/16 318/58/16 
f 283/36/16 282/35/16 318/58/16 303/46/16 
f 287/38/16 285/37/16 304/47/16 308/50/16 
s 3
f 305/48/16 301/45/16 312/52/16 317/57/16 
s off
f 319/46/16 320/58/16 321/57/16 322/52/16 
f 319/46/16 322/52/16 323/51/16 324/53/16 
f 319/46/16 324/53/16 325/54/16 326/55/16 
f 319/46/16 326/55/16 327/56/16 310/49/16 
f 319/46/16 310/49/16 309/50/16 328/47/16 
f 317/57/47 312/52/47 322/52/47 321/57/47 
f 303/46/33 318/58/33 320/58/33 319/46/33 
f 313/53/40 314/54/40 325/54/40 324/53/40 
f 316/56/37 307/49/37 310/49/37 327/56/37 
f 318/58/44 317/57/44 321/57/44 320/58/44 
f 304/47/34 303/46/34 319/46/34 328/47/34 
f 311/51/41 313/53/41 324/53/41 323/51/41 
f 315/55/38 316/56/38 327/56/38 326/55/38 
f 308/50/48 304/47/48 328/47/48 309/50/48 
f 312/52/42 311/51/42 323/51/42 322/52/42 
f 314/54/39 315/55/39 326/55/39 325/54/39 
f 329/59/14 330/59/14 331/60/14 332/60/14 
f 330/59/32 333/61/32 334/62/32 331/60/32 
f 333/61/12 335/61/12 336/62/12 334/62/12 
f 335/61/16 329/59/16 332/60/16 336/62/16 
f 332/60/22 331/60/22 334/62/22 336/62/22 
f 335/61/13 333/61/13 330/59/13 329/59/13 
f 337/63/14 338/63/14 339/64/14 340/64/14 
s 1
f 341/65/17 342/66/17 343/67/17 344/68/17 
s off
f 342/66/12 345/66/12 346/67/12 343/67/12 
s 1
f 347/65/16 337/63/16 340/64/16 348/68/16 
s off
f 348/68/49 344/68/49 343/67/49 346/67/49 
f 347/65/50 341/65/50 338/63/50 337/63/50 
f 345/66/51 342/66/51 341/65/51 347/65/51 
f 340/64/52 339/64/52 344/68/52 348/68/52 
s 1
f 345/66/16 347/65/16 348/68/16 346/67/16 
f 338/63/17 341/65/17 344/68/17 339/64/17 
s off
f 349/69/53 350/70/53 351/71/53 352/72/53 
f 352/72/54 351/71/54 353/73/54 354/74/54 
f 354/74/55 353/73/55 355/73/55 356/74/55 
f 356/74/56 355/73/56 357/73/56 358/74/56 
f 358/74/57 357/73/57 359/71/57 360/72/57 
f 360/72/58 359/71/58 361/70/58 362/69/58 
f 362/69/59 361/70/59 363/75/59 364/76/59 
f 364/76/60 363/75/60 365/77/60 366/78/60 
f 366/78/61 365/77/61 367/77/61 368/78/61 
f 368/78/62 367/77/62 369/77/62 370/78/62 
f 351/71/13 350/70/13 371/75/13 369/77/13 
f 351/71/13 369/77/13 367/77/13 365/77/13 
f 351/71/13 365/77/13 363/75/13 361/70/13 
f 351/71/13 361/70/13 359/71/13 357/73/13 
f 351/71/13 357/73/13 355/73/13 353/73/13 
f 370/78/63 369/77/63 371/75/63 372/76/63 
f 372/76/64 371/75/64 350/70/64 349/69/64 
f 349/69/18 352/72/18 354/74/18 356/74/18 
f 349/69/18 356/74/18 358/74/18 360/72/18 
f 349/69/15 360/72/15 362/69/15 364/76/15 
f 349/69/15 364/76/15 366/78/15 368/78/15 
f 349/69/15 368/78/15 370/78/15 372/76/15 
f 373/79/53 374/80/53 375/81/53 376/82/53 
f 376/82/54 375/81/54 377/83/54 378/84/54 
f 378/84/55 377/83/55 379/85/55 380/86/55 
f 380/86/56 379/85/56 381/83/56 382/84/56 
f 382/84/57 381/83/57 383/81/57 384/82/57 
f 384/82/65 383/81/65 385/80/65 386/79/65 
f 386/79/59 385/80/59 387/87/59 388/88/59 
f 388/88/60 387/87/60 389/89/60 390/90/60 
f 390/90/61 389/89/61 391/89/61 392/90/61 
f 392/90/62 391/89/62 393/89/62 394/90/62 
f 375/81/13 374/80/13 395/87/13 393/89/13 
f 375/81/13 393/89/13 391/89/13 389/89/13 
f 375/81/13 389/89/13 387/87/13 385/80/13 
f 375/81/13 385/80/13 383/81/13 381/83/13 
f 375/81/13 381/83/13 379/85/13 377/83/13 
f 394/90/63 393/89/63 395/87/63 396/88/63 
f 396/88/64 395/87/64 374/80/64 373/79/64 
f 373/79/19 376/82/19 378/84/19 380/86/19 
f 373/79/19 380/86/19 382/84/19 384/82/19 
f 373/79/22 384/82/22 386/79/22 388/88/22 
f 373/79/19 388/88/19 390/90/19 392/90/19 
f 373/79/15 392/90/15 394/90/15 396/88/15 
f 397/91/33 398/91/33 399/92/33 400/92/33 
f 400/92/34 399/92/34 401/93/34 402/93/34 
f 402/93/48 401/93/48 403/94/48 404/94/48 
f 404/94/45 403/94/45 405/95/45 406/95/45 
f 406/95/37 405/95/37 407/96/37 408/96/37 
f 408/96/38 407/96/38 409/97/38 410/97/38 
f 410/97/39 409/97/39 411/98/39 412/98/39 
f 412/98/40 411/98/40 413/99/40 414/99/40 
f 414/99/41 413/99/41 415/100/41 416/100/41 
f 416/100/42 415/100/42 417/101/42 418/101/42 
s 1
f 401/93/29 399/92/46 419/102/46 420/103/29 
s off
f 418/101/47 417/101/47 421/104/47 422/104/47 
f 422/104/44 421/104/44 398/91/44 397/91/44 
f 397/91/31 400/92/31 402/93/31 404/94/31 
f 397/91/17 404/94/17 406/95/17 408/96/17 
f 397/91/17 408/96/17 410/97/17 412/98/17 
f 397/91/17 412/98/17 414/99/17 416/100/17 
f 397/91/17 416/100/17 418/101/17 422/104/17 
f 423/105/45 424/106/45 425/106/45 426/105/45 
s 1
f 417/101/16 415/100/16 427/107/16 428/108/16 
f 415/100/16 413/99/16 429/109/16 427/107/16 
s off
f 413/99/16 411/98/16 430/110/16 429/109/16 
f 411/98/16 409/97/16 431/111/16 430/110/16 
s 1
f 409/97/46 407/96/46 432/112/46 431/111/29 
f 407/96/46 405/95/16 423/105/16 432/112/46 
s 2
f 405/95/16 403/94/16 424/106/16 423/105/16 
s off
f 398/91/23 421/104/23 433/113/23 434/114/23 
s 1
f 399/92/46 398/91/29 434/114/46 419/102/46 
s 2
f 403/94/16 401/93/16 420/103/16 424/106/16 
s 1
f 421/104/16 417/101/16 428/108/16 433/113/16 
s off
f 435/102/23 436/114/23 437/113/23 438/108/23 
f 435/102/16 438/108/16 439/107/16 440/109/16 
f 435/102/16 440/109/16 441/110/16 442/111/16 
f 435/102/46 442/111/46 443/112/46 426/105/46 
f 435/102/16 426/105/16 425/106/16 444/103/16 
f 433/113/47 428/108/47 438/108/47 437/113/47 
f 419/102/33 434/114/33 436/114/33 435/102/33 
f 429/109/40 430/110/40 441/110/40 440/109/40 
f 432/112/37 423/105/37 426/105/37 443/112/37 
f 434/114/44 433/113/44 437/113/44 436/114/44 
f 420/103/34 419/102/34 435/102/34 444/103/34 
f 427/107/41 429/109/41 440/109/41 439/107/41 
f 431/111/38 432/112/38 443/112/38 442/111/38 
f 424/106/48 420/103/48 444/103/48 425/106/48 
f 428/108/66 427/107/66 439/107/66 438/108/66 
f 430/110/67 431/111/67 442/111/67 441/110/67 
f 445/115/33 446/115/33 447/116/33 448/116/33 
f 448/116/34 447/116/34 449/117/34 450/117/34 
f 450/117/48 449/117/48 451/118/48 452/118/48 
f 452/118/45 451/118/45 453/119/45 454/119/45 
f 454/119/37 453/119/37 455/120/37 456/120/37 
f 456/120/38 455/120/38 457/121/38 458/121/38 
f 458/121/67 457/121/67 459/122/67 460/122/67 
f 460/122/68 459/122/68 461/123/68 462/123/68 
f 462/123/41 461/123/41 463/124/41 464/124/41 
f 464/124/66 463/124/66 465/125/66 466/125/66 
f 449/117/23 447/116/23 467/126/23 468/127/23 
f 466/125/47 465/125/47 469/128/47 470/128/47 
f 470/128/44 469/128/44 446/115/44 445/115/44 
f 445/115/20 448/116/20 450/117/20 452/118/20 
f 445/115/31 452/118/31 454/119/31 456/120/31 
f 445/115/31 456/120/31 458/121/31 460/122/31 
f 445/115/17 460/122/17 462/123/17 464/124/17 
f 445/115/32 464/124/32 466/125/32 470/128/32 
f 471/129/45 472/130/45 473/130/45 474/129/45 
s 1
f 465/125/16 463/124/16 475/131/16 476/132/16 
f 463/124/16 461/123/16 477/133/16 475/131/16 
s off
f 461/123/46 459/122/46 478/134/46 477/133/46 
s 1
f 459/122/16 457/121/46 479/135/46 478/134/16 
f 457/121/46 455/120/16 480/136/16 479/135/46 
f 455/120/16 453/119/16 471/129/16 480/136/16 
f 453/119/16 451/118/16 472/130/46 471/129/16 
f 446/115/16 469/128/16 481/137/16 482/138/16 
f 447/116/16 446/115/16 482/138/16 467/126/16 
f 451/118/16 449/117/23 468/127/23 472/130/46 
f 469/128/16 465/125/16 476/132/16 481/137/16 
s off
f 483/126/16 484/138/16 485/137/16 486/132/16 
f 483/126/16 486/132/16 487/131/16 488/133/16 
f 483/126/16 488/133/16 489/134/16 490/135/16 
f 483/126/29 490/135/29 491/136/29 474/129/29 
f 483/126/16 474/129/16 473/130/16 492/127/16 
f 481/137/43 476/132/43 486/132/43 485/137/43 
f 467/126/33 482/138/33 484/138/33 483/126/33 
f 477/133/68 478/134/68 489/134/68 488/133/68 
f 480/136/37 471/129/37 474/129/37 491/136/37 
f 482/138/44 481/137/44 485/137/44 484/138/44 
f 468/127/34 467/126/34 483/126/34 492/127/34 
f 475/131/69 477/133/69 488/133/69 487/131/69 
f 479/135/38 480/136/38 491/136/38 490/135/38 
f 472/130/48 468/127/48 492/127/48 473/130/48 
f 476/132/42 475/131/42 487/131/42 486/132/42 
f 478/134/39 479/135/39 490/135/39 489/134/39 
f 493/139/53 494/140/53 495/141/53 496/142/53 
f 496/142/54 495/141/54 497/143/54 498/144/54 
f 498/144/55 497/143/55 499/143/55 500/144/55 
f 500/144/56 499/143/56 501/143/56 502/144/56 
f 502/144/57 501/143/57 503/141/57 504/142/57 
f 504/142/65 503/141/65 505/140/65 506/139/65 
f 506/139/59 505/140/59 507/145/59 508/146/59 
f 508/146/60 507/145/60 509/147/60 510/148/60 
f 510/148/61 509/147/61 511/147/61 512/148/61 
f 512/148/62 511/147/62 513/147/62 514/148/62 
f 495/141/13 494/140/13 515/145/13 513/147/13 
f 495/141/21 513/147/21 511/147/21 509/147/21 
f 495/141/13 509/147/13 507/145/13 505/140/13 
f 495/141/13 505/140/13 503/141/13 501/143/13 
f 495/141/13 501/143/13 499/143/13 497/143/13 
f 514/148/63 513/147/63 515/145/63 516/146/63 
f 516/146/64 515/145/64 494/140/64 493/139/64 
f 493/139/22 496/142/22 498/144/22 500/144/22 
f 493/139/18 500/144/18 502/144/18 504/142/18 
f 493/139/22 504/142/22 506/139/22 508/146/22 
f 493/139/19 508/146/19 510/148/19 512/148/19 
f 493/139/15 512/148/15 514/148/15 516/146/15 
f 517/149/53 518/150/53 519/151/53 520/152/53 
f 520/152/54 519/151/54 521/153/54 522/154/54 
f 522/154/55 521/153/55 523/153/55 524/154/55 
f 524/154/56 523/153/56 525/153/56 526/154/56 
f 526/154/57 525/153/57 527/151/57 528/152/57 
f 528/152/65 527/151/65 529/150/65 530/149/65 
f 530/149/59 529/150/59 531/155/59 532/156/59 
f 532/156/60 531/155/60 533/157/60 534/158/60 
f 534/158/61 533/157/61 535/157/61 536/158/61 
f 536/158/62 535/157/62 537/157/62 538/158/62 
f 519/151/13 518/150/13 539/155/13 537/157/13 
f 519/151/13 537/157/13 535/157/13 533/157/13 
f 519/151/21 533/157/21 531/155/21 529/150/21 
f 519/151/21 529/150/21 527/151/21 525/153/21 
f 519/151/21 525/153/21 523/153/21 521/153/21 
f 538/158/63 537/157/63 539/155/63 540/156/63 
f 540/156/64 539/155/64 518/150/64 517/149/64 
f 517/149/18 520/152/18 522/154/18 524/154/18 
f 517/149/15 524/154/15 526/154/15 528/152/15 
f 517/149/15 528/152/15 530/149/15 532/156/15 
f 517/149/15 532/156/15 534/158/15 536/158/15 
f 517/149/15 536/158/15 538/158/15 540/156/15 
f 541/159/14 542/159/14 543/160/14 544/160/14 
s 1
f 545/161/17 546/162/17 547/163/17 548/164/17 
s off
f 546/162/12 549/162/12 550/163/12 547/163/12 
s 1
f 551/161/16 541/159/16 544/160/16 552/164/16 
s off
f 552/164/49 548/164/49 547/163/49 550/163/49 
f 551/161/70 545/161/70 542/159/70 541/159/70 
f 549/162/71 546/162/71 545/161/71 551/161/71 
f 544/160/72 543/160/72 548/164/72 552/164/72 
s 1
f 549/162/16 551/161/16 552/164/16 550/163/16 
f 542/159/17 545/161/17 548/164/17 543/160/17 
s off
f 553/165/14 554/165/14 555/166/14 556/166/14 
f 554/165/32 557/167/32 558/168/32 555/166/32 
f 557/167/12 559/167/12 560/168/12 558/168/12 
f 559/167/46 553/165/46 556/166/46 560/168/46 
f 556/166/22 555/166/22 558/168/22 560/168/22 
f 559/167/21 557/167/21 554/165/21 553/165/21 
f 561/169/73 562/169/73 563/170/73 564/170/73 
f 564/170/74 563/170/74 565/171/74 566/171/74 
f 566/171/48 565/171/48 567/172/48 568/172/48 
f 568/172/45 567/172/45 569/173/45 570/173/45 
f 570/173/37 569/173/37 571/174/37 572/174/37 
f 572/174/38 571/174/38 573/175/38 574/175/38 
f 574/175/39 573/175/39 575/176/39 576/176/39 
f 576/176/40 575/176/40 577/177/40 578/177/40 
f 578/177/41 577/177/41 579/178/41 580/178/41 
f 580/178/42 579/178/42 581/179/42 582/179/42 
s 1
f 565/171/16 563/170/23 583/180/23 584/181/16 
s off
f 582/179/47 581/179/47 585/182/47 586/182/47 
f 586/182/44 585/182/44 562/169/44 561/169/44 
f 561/169/20 564/170/20 566/171/20 568/172/20 
f 561/169/17 568/172/17 570/173/17 572/174/17 
f 561/169/17 572/174/17 574/175/17 576/176/17 
f 561/169/17 576/176/17 578/177/17 580/178/17 
f 561/169/17 580/178/17 582/179/17 586/182/17 
f 587/183/45 588/184/45 589/184/45 590/183/45 
s 2
f 581/179/46 579/178/46 591/185/46 592/186/16 
f 579/178/46 577/177/29 593/187/29 591/185/46 
s off
f 577/177/16 575/176/16 594/188/16 593/187/16 
s 2
f 575/176/16 573/175/16 595/189/16 594/188/16 
f 573/175/16 571/174/16 596/190/16 595/189/16 
s 1
f 571/174/16 569/173/16 587/183/16 596/190/16 
f 569/173/16 567/172/16 588/184/16 587/183/16 
s 2
f 562/169/23 585/182/23 597/191/23 598/192/23 
f 563/170/23 562/169/23 598/192/23 583/180/23 
s 1
f 567/172/16 565/171/16 584/181/16 588/184/16 
s 2
f 585/182/23 581/179/46 592/186/16 597/191/23 
s off
f 599/180/23 600/192/23 601/191/23 602/186/23 
f 599/180/16 602/186/16 603/185/16 604/187/16 
f 599/180/16 604/187/16 605/188/16 606/189/16 
f 599/180/16 606/189/16 607/190/16 590/183/16 
f 599/180/16 590/183/16 589/184/16 608/181/16 
f 597/191/47 592/186/47 602/186/47 601/191/47 
f 583/180/33 598/192/33 600/192/33 599/180/33 
f 593/187/40 594/188/40 605/188/40 604/187/40 
f 596/190/37 587/183/37 590/183/37 607/190/37 
f 598/192/44 597/191/44 601/191/44 600/192/44 
f 584/181/34 583/180/34 599/180/34 608/181/34 
f 591/185/69 593/187/69 604/187/69 603/185/69 
f 595/189/38 596/190/38 607/190/38 606/189/38 
f 588/184/48 584/181/48 608/181/48 589/184/48 
f 592/186/66 591/185/66 603/185/66 602/186/66 
f 594/188/39 595/189/39 606/189/39 605/188/39 
f 609/91/44 610/91/44 611/104/44 612/104/44 
f 612/104/47 611/104/47 613/101/47 614/101/47 
f 614/101/66 613/101/66 615/100/66 616/100/66 
f 616/100/69 615/100/69 617/99/69 618/99/69 
f 618/99/68 617/99/68 619/98/68 620/98/68 
f 620/98/39 619/98/39 621/97/39 622/97/39 
f 622/97/75 621/97/75 623/96/75 624/96/75 
f 624/96/76 623/96/76 625/95/76 626/95/76 
f 626/95/45 625/95/45 627/94/45 628/94/45 
f 628/94/48 627/94/48 629/93/48 630/93/48 
s 1
f 613/101/32 611/104/20 631/113/20 632/108/32 
s off
f 630/93/34 629/93/34 633/92/34 634/92/34 
f 634/92/33 633/92/33 610/91/33 609/91/33 
f 609/91/16 612/104/16 614/101/16 616/100/16 
f 609/91/23 616/100/23 618/99/23 620/98/23 
f 609/91/16 620/98/16 622/97/16 624/96/16 
f 609/91/29 624/96/29 626/95/29 628/94/29 
f 609/91/46 628/94/46 630/93/46 634/92/46 
f 635/109/69 636/193/69 637/193/69 638/109/69 
s 2
f 629/93/32 627/94/32 639/106/32 640/103/31 
f 627/94/32 625/95/32 641/105/32 639/106/32 
f 625/95/32 623/96/31 642/112/31 641/105/32 
f 623/96/31 621/97/32 643/111/31 642/112/31 
s off
f 621/97/17 619/98/17 644/110/17 643/111/17 
s 1
f 619/98/31 617/99/32 635/109/31 644/110/31 
f 617/99/32 615/100/32 636/193/32 635/109/31 
s 2
f 610/91/31 633/92/31 645/102/31 646/114/32 
s 1
f 611/104/20 610/91/17 646/114/20 631/113/20 
f 615/100/32 613/101/32 632/108/32 636/193/32 
s 2
f 633/92/31 629/93/32 640/103/31 645/102/31 
s off
f 647/113/20 648/114/20 649/102/20 650/103/20 
f 647/113/32 650/103/32 651/106/32 652/105/32 
f 647/113/31 652/105/31 653/112/31 654/111/31 
f 647/113/17 654/111/17 655/110/17 638/109/17 
f 647/113/32 638/109/32 637/193/32 656/108/32 
f 645/102/34 640/103/34 650/103/34 649/102/34 
f 631/113/77 646/114/77 648/114/77 647/113/77 
f 641/105/37 642/112/37 653/112/37 652/105/37 
f 644/110/68 635/109/68 638/109/68 655/110/68 
f 646/114/73 645/102/73 649/102/73 648/114/73 
f 632/108/47 631/113/47 647/113/47 656/108/47 
f 639/106/45 641/105/45 652/105/45 651/106/45 
f 643/111/39 644/110/39 655/110/39 654/111/39 
f 636/193/66 632/108/66 656/108/66 637/193/66 
f 640/103/35 639/106/35 651/106/35 650/103/35 
f 642/112/38 643/111/38 654/111/38 653/112/38 
f 657/61/12 658/61/12 659/62/12 660/62/12 
f 658/61/29 661/194/29 662/195/29 659/62/29 
f 661/194/14 663/194/14 664/195/14 662/195/14 
f 663/194/32 657/61/32 660/62/32 664/195/32 
f 660/62/15 659/62/15 662/195/15 664/195/15 
f 663/194/13 661/194/13 658/61/13 657/61/13 
f 665/66/12 666/66/12 667/67/12 668/67/12 
s 1
f 669/65/29 670/63/16 671/64/16 672/68/29 
s off
f 670/63/14 673/63/14 674/64/14 671/64/14 
s 1
f 675/65/32 665/66/32 668/67/32 676/68/32 
s off
f 676/68/52 672/68/52 671/64/52 674/64/52 
f 675/65/51 669/65/51 666/66/51 665/66/51 
f 673/63/50 670/63/50 669/65/50 675/65/50 
f 668/67/49 667/67/49 672/68/49 676/68/49 
s 1
f 673/63/17 675/65/32 676/68/32 674/64/17 
f 666/66/29 669/65/29 672/68/29 667/67/29 
s off
f 677/79/78 678/80/78 679/87/78 680/88/78 
f 680/88/60 679/87/60 681/196/60 682/197/60 
f 682/197/61 681/196/61 683/89/61 684/90/61 
f 684/90/62 683/89/62 685/196/62 686/197/62 
f 686/197/63 685/196/63 687/87/63 688/88/63 
f 688/88/64 687/87/64 689/80/64 690/79/64 
f 690/79/53 689/80/53 691/83/53 692/84/53 
f 692/84/54 691/83/54 693/85/54 694/86/54 
f 694/86/55 693/85/55 695/85/55 696/86/55 
f 696/86/56 695/85/56 697/85/56 698/86/56 
f 679/87/13 678/80/13 699/83/13 697/85/13 
f 679/87/13 697/85/13 695/85/13 693/85/13 
f 679/87/13 693/85/13 691/83/13 689/80/13 
f 679/87/13 689/80/13 687/87/13 685/196/13 
f 679/87/13 685/196/13 683/89/13 681/196/13 
f 698/86/57 697/85/57 699/83/57 700/84/57 
f 700/84/65 699/83/65 678/80/65 677/79/65 
f 677/79/15 680/88/15 682/197/15 684/90/15 
f 677/79/15 684/90/15 686/197/15 688/88/15 
f 677/79/15 688/88/15 690/79/15 692/84/15 
f 677/79/15 692/84/15 694/86/15 696/86/15 
f 677/79/15 696/86/15 698/86/15 700/84/15 
f 701/69/59 702/70/59 703/75/59 704/76/59 
f 704/76/60 703/75/60 705/77/60 706/78/60 
f 706/78/79 705/77/79 707/77/79 708/78/79 
f 708/78/62 707/77/62 709/77/62 710/78/62 
f 710/78/63 709/77/63 711/75/63 712/76/63 
f 712/76/64 711/75/64 713/70/64 714/69/64 
f 714/69/53 713/70/53 715/71/53 716/72/53 
f 716/72/54 715/71/54 717/73/54 718/74/54 
f 718/74/55 717/73/55 719/198/55 720/199/55 
f 720/199/56 719/198/56 721/73/56 722/74/56 
f 703/75/13 702/70/13 723/71/13 721/73/13 
f 703/75/13 721/73/13 719/198/13 717/73/13 
f 703/75/13 717/73/13 715/71/13 713/70/13 
f 703/75/13 713/70/13 711/75/13 709/77/13 
f 703/75/13 709/77/13 707/77/13 705/77/13 
f 722/74/57 721/73/57 723/71/57 724/72/57 
f 724/72/65 723/71/65 702/70/65 701/69/65 
f 701/69/18 704/76/18 706/78/18 708/78/18 
f 701/69/15 708/78/15 710/78/15 712/76/15 
f 701/69/18 712/76/18 714/69/18 716/72/18 
f 701/69/15 716/72/15 718/74/15 720/199/15 
f 701/69/19 720/199/19 722/74/19 724/72/19 
f 725/35/44 726/35/44 727/48/44 728/48/44 
f 728/48/47 727/48/47 729/45/47 730/45/47 
f 730/45/66 729/45/66 731/44/66 732/44/66 
f 732/44/69 731/44/69 733/43/69 734/43/69 
f 734/43/68 733/43/68 735/42/68 736/42/68 
f 736/42/39 735/42/39 737/41/39 738/41/39 
f 738/41/38 737/41/38 739/200/38 740/200/38 
f 740/200/37 739/200/37 741/201/37 742/201/37 
f 742/201/45 741/201/45 743/202/45 744/202/45 
f 744/202/48 743/202/48 745/203/48 746/203/48 
s 1
f 729/45/32 727/48/32 747/204/32 748/52/32 
s off
f 746/203/34 745/203/34 749/205/34 750/205/34 
f 750/205/33 749/205/33 726/35/33 725/35/33 
f 725/35/16 728/48/16 730/45/16 732/44/16 
f 725/35/16 732/44/16 734/43/16 736/42/16 
f 725/35/29 736/42/29 738/41/29 740/200/29 
f 725/35/46 740/200/46 742/201/46 744/202/46 
f 725/35/29 744/202/29 746/203/29 750/205/29 
f 751/53/69 752/206/69 753/206/69 754/53/69 
s 2
f 745/203/32 743/202/32 755/50/32 756/47/32 
f 743/202/32 741/201/17 757/49/32 755/50/32 
f 741/201/17 739/200/17 758/56/31 757/49/32 
f 739/200/17 737/41/31 759/55/31 758/56/31 
f 737/41/31 735/42/31 760/207/31 759/55/31 
f 735/42/31 733/43/17 751/53/31 760/207/31 
s 1
f 733/43/32 731/44/32 752/206/32 751/53/32 
s 4
f 726/35/20 749/205/20 761/46/20 762/58/20 
s 1
f 727/48/32 726/35/32 762/58/32 747/204/32 
f 731/44/32 729/45/32 748/52/32 752/206/32 
s 4
f 749/205/20 745/203/32 756/47/20 761/46/20 
s off
f 763/204/31 764/58/31 765/46/31 766/47/31 
f 763/204/32 766/47/32 767/50/32 768/49/32 
f 763/204/32 768/49/32 769/56/32 770/55/32 
f 763/204/20 770/55/20 771/207/20 754/53/20 
f 763/204/20 754/53/20 753/206/20 772/52/20 
f 761/46/34 756/47/34 766/47/34 765/46/34 
f 747/204/44 762/58/44 764/58/44 763/204/44 
f 757/49/37 758/56/37 769/56/37 768/49/37 
f 760/207/40 751/53/40 754/53/40 771/207/40 
f 762/58/33 761/46/33 765/46/33 764/58/33 
f 748/52/47 747/204/47 763/204/47 772/52/47 
f 755/50/45 757/49/45 768/49/45 767/50/45 
f 759/55/39 760/207/39 771/207/39 770/55/39 
f 752/206/66 748/52/66 772/52/66 753/206/66 
f 756/47/48 755/50/48 767/50/48 766/47/48 
f 758/56/38 759/55/38 770/55/38 769/56/38 
f 773/169/77 774/169/77 775/182/77 776/182/77 
f 776/182/43 775/182/43 777/179/43 778/179/43 
f 778/179/66 777/179/66 779/178/66 780/178/66 
f 780/178/41 779/178/41 781/177/41 782/177/41 
f 782/177/40 781/177/40 783/176/40 784/176/40 
f 784/176/39 783/176/39 785/175/39 786/175/39 
f 786/175/38 785/175/38 787/208/38 788/208/38 
f 788/208/37 787/208/37 789/209/37 790/209/37 
f 790/209/36 789/209/36 791/210/36 792/210/36 
f 792/210/48 791/210/48 793/211/48 794/211/48 
s 1
f 777/179/32 775/182/32 795/212/32 796/186/32 
s off
f 794/211/34 793/211/34 797/213/34 798/213/34 
f 798/213/33 797/213/33 774/169/33 773/169/33 
f 773/169/46 776/182/46 778/179/46 780/178/46 
f 773/169/46 780/178/46 782/177/46 784/176/46 
f 773/169/46 784/176/46 786/175/46 788/208/46 
f 773/169/16 788/208/16 790/209/16 792/210/16 
f 773/169/16 792/210/16 794/211/16 798/213/16 
f 799/187/69 800/214/69 801/214/69 802/187/69 
f 793/211/32 791/210/32 803/184/32 804/181/32 
f 791/210/32 789/209/32 805/183/32 803/184/32 
s 1
f 789/209/20 787/208/17 806/190/17 805/183/20 
f 787/208/17 785/175/17 807/189/17 806/190/17 
f 785/175/17 783/176/31 808/215/31 807/189/17 
s off
f 783/176/31 781/177/31 799/187/31 808/215/31 
s 1
f 781/177/32 779/178/32 800/214/32 799/187/32 
f 774/169/32 797/213/32 809/180/32 810/192/32 
f 775/182/32 774/169/32 810/192/32 795/212/32 
f 779/178/32 777/179/32 796/186/32 800/214/32 
s off
f 797/213/17 793/211/17 804/181/17 809/180/17 
f 811/212/32 812/192/32 813/180/32 814/181/32 
f 811/212/32 814/181/32 815/184/32 816/183/32 
f 811/212/32 816/183/32 817/190/32 818/189/32 
f 811/212/20 818/189/20 819/215/20 802/187/20 
f 811/212/17 802/187/17 801/214/17 820/186/17 
f 809/180/34 804/181/34 814/181/34 813/180/34 
f 795/212/44 810/192/44 812/192/44 811/212/44 
f 805/183/37 806/190/37 817/190/37 816/183/37 
f 808/215/68 799/187/68 802/187/68 819/215/68 
f 810/192/33 809/180/33 813/180/33 812/192/33 
f 796/186/47 795/212/47 811/212/47 820/186/47 
f 803/184/45 805/183/45 816/183/45 815/184/45 
f 807/189/67 808/215/67 819/215/67 818/189/67 
f 800/214/66 796/186/66 820/186/66 801/214/66 
f 804/181/35 803/184/35 815/184/35 814/181/35 
f 806/190/75 807/189/75 818/189/75 817/190/75 
f 821/149/59 822/150/59 823/155/59 824/156/59 
f 824/156/60 823/155/60 825/157/60 826/158/60 
f 826/158/61 825/157/61 827/157/61 828/158/61 
f 828/158/62 827/157/62 829/157/62 830/158/62 
f 830/158/63 829/157/63 831/155/63 832/156/63 
f 832/156/64 831/155/64 833/150/64 834/149/64 
f 834/149/53 833/150/53 835/151/53 836/152/53 
f 836/152/54 835/151/54 837/153/54 838/154/54 
f 838/154/55 837/153/55 839/216/55 840/217/55 
f 840/217/56 839/216/56 841/153/56 842/154/56 
f 823/155/27 822/150/27 843/151/27 841/153/27 
f 823/155/27 841/153/27 839/216/27 837/153/27 
f 823/155/21 837/153/21 835/151/21 833/150/21 
f 823/155/21 833/150/21 831/155/21 829/157/21 
f 823/155/21 829/157/21 827/157/21 825/157/21 
f 842/154/57 841/153/57 843/151/57 844/152/57 
f 844/152/65 843/151/65 822/150/65 821/149/65 
f 821/149/18 824/156/18 826/158/18 828/158/18 
f 821/149/15 828/158/15 830/158/15 832/156/15 
f 821/149/15 832/156/15 834/149/15 836/152/15 
f 821/149/22 836/152/22 838/154/22 840/217/22 
f 821/149/15 840/217/15 842/154/15 844/152/15 
f 845/139/59 846/140/59 847/145/59 848/146/59 
f 848/146/60 847/145/60 849/218/60 850/219/60 
f 850/219/61 849/218/61 851/147/61 852/148/61 
f 852/148/62 851/147/62 853/218/62 854/219/62 
f 854/219/63 853/218/63 855/145/63 856/146/63 
f 856/146/64 855/145/64 857/140/64 858/139/64 
f 858/139/53 857/140/53 859/220/53 860/221/53 
f 860/221/54 859/220/54 861/143/54 862/144/54 
f 862/144/55 861/143/55 863/143/55 864/144/55 
f 864/144/56 863/143/56 865/143/56 866/144/56 
f 847/145/13 846/140/13 867/220/13 865/143/13 
f 847/145/13 865/143/13 863/143/13 861/143/13 
f 847/145/13 861/143/13 859/220/13 857/140/13 
f 847/145/13 857/140/13 855/145/13 853/218/13 
f 847/145/13 853/218/13 851/147/13 849/218/13 
f 866/144/57 865/143/57 867/220/57 868/221/57 
f 868/221/65 867/220/65 846/140/65 845/139/65 
f 845/139/15 848/146/15 850/219/15 852/148/15 
f 845/139/15 852/148/15 854/219/15 856/146/15 
f 845/139/15 856/146/15 858/139/15 860/221/15 
f 845/139/19 860/221/19 862/144/19 864/144/19 
f 845/139/18 864/144/18 866/144/18 868/221/18 
f 869/162/12 870/162/12 871/163/12 872/163/12 
s 1
f 873/161/29 874/159/29 875/160/29 876/164/29 
s off
f 874/159/14 877/159/14 878/160/14 875/160/14 
s 1
f 879/161/32 869/162/32 872/163/32 880/164/32 
s off
f 880/164/52 876/164/52 875/160/52 878/160/52 
f 879/161/51 873/161/51 870/162/51 869/162/51 
f 877/159/50 874/159/50 873/161/50 879/161/50 
f 872/163/49 871/163/49 876/164/49 880/164/49 
s 1
f 877/159/32 879/161/32 880/164/32 878/160/32 
f 870/162/16 873/161/29 876/164/29 871/163/16 
s off
f 881/167/12 882/167/12 883/168/12 884/168/12 
f 882/167/29 885/222/29 886/223/29 883/168/29 
f 885/222/14 887/222/14 888/223/14 886/223/14 
f 887/222/32 881/167/32 884/168/32 888/223/32 
f 884/168/22 883/168/22 886/223/22 888/223/22 
f 887/222/27 885/222/27 882/167/27 881/167/27 
f 889/115/44 890/115/44 891/128/44 892/128/44 
f 892/128/47 891/128/47 893/125/47 894/125/47 
f 894/125/66 893/125/66 895/124/66 896/124/66 
f 896/124/41 895/124/41 897/123/41 898/123/41 
f 898/123/40 897/123/40 899/122/40 900/122/40 
f 900/122/39 899/122/39 901/121/39 902/121/39 
f 902/121/38 901/121/38 903/120/38 904/120/38 
f 904/120/37 903/120/37 905/119/37 906/119/37 
f 906/119/36 905/119/36 907/118/36 908/118/36 
f 908/118/48 907/118/48 909/117/48 910/117/48 
s 1
f 893/125/32 891/128/31 911/137/31 912/132/32 
s off
f 910/117/34 909/117/34 913/116/34 914/116/34 
f 914/116/33 913/116/33 890/115/33 889/115/33 
f 889/115/29 892/128/29 894/125/29 896/124/29 
f 889/115/16 896/124/16 898/123/16 900/122/16 
f 889/115/29 900/122/29 902/121/29 904/120/29 
f 889/115/29 904/120/29 906/119/29 908/118/29 
f 889/115/16 908/118/16 910/117/16 914/116/16 
f 915/133/69 916/224/69 917/224/69 918/133/69 
s 1
f 909/117/32 907/118/20 919/130/32 920/127/32 
f 907/118/20 905/119/32 921/129/32 919/130/32 
s 2
f 905/119/17 903/120/17 922/136/31 921/129/32 
f 903/120/17 901/121/31 923/135/31 922/136/31 
f 901/121/31 899/122/31 924/134/31 923/135/31 
s 4
f 899/122/31 897/123/17 915/133/31 924/134/31 
f 897/123/17 895/124/20 916/224/20 915/133/31 
s 1
f 890/115/32 913/116/32 925/126/32 926/138/31 
f 891/128/31 890/115/32 926/138/31 911/137/31 
s 4
f 895/124/20 893/125/20 912/132/20 916/224/20 
s 1
f 913/116/32 909/117/32 920/127/32 925/126/32 
s off
f 927/137/31 928/138/31 929/126/31 930/127/31 
f 927/137/32 930/127/32 931/130/32 932/129/32 
f 927/137/31 932/129/31 933/136/31 934/135/31 
f 927/137/20 934/135/20 935/134/20 918/133/20 
f 927/137/32 918/133/32 917/224/32 936/132/32 
f 925/126/34 920/127/34 930/127/34 929/126/34 
f 911/137/77 926/138/77 928/138/77 927/137/77 
f 921/129/37 922/136/37 933/136/37 932/129/37 
f 924/134/68 915/133/68 918/133/68 935/134/68 
f 926/138/73 925/126/73 929/126/73 928/138/73 
f 912/132/47 911/137/47 927/137/47 936/132/47 
f 919/130/45 921/129/45 932/129/45 931/130/45 
f 923/135/67 924/134/67 935/134/67 934/135/67 
f 916/224/66 912/132/66 936/132/66 917/224/66 
f 920/127/35 919/130/35 931/130/35 930/127/35 
f 922/136/75 923/135/75 934/135/75 933/136/75 
f 937/225/12 938/226/12 939/227/12 940/228/12 
f 938/225/16 941/226/16 942/227/16 939/228/16 
f 941/225/14 943/226/14 944/227/14 942/228/14 
f 943/225/17 937/226/17 940/227/17 944/228/17 
f 940/225/18 939/226/18 942/227/18 944/228/18 
f 943/225/13 941/226/13 938/227/13 937/228/13 
f 945/225/80 946/226/80 947/227/80 948/228/80 
f 946/225/46 949/226/46 950/227/46 947/228/46 
f 949/225/81 951/226/81 952/227/81 950/228/81 
f 951/225/31 945/226/31 948/227/31 952/228/31 
f 948/225/15 947/226/15 950/227/15 952/228/15 
f 951/225/13 949/226/13 946/227/13 945/228/13 
f 953/225/82 954/226/82 955/227/82 956/228/82 
f 954/225/46 957/226/46 958/227/46 955/228/46 
f 957/225/81 959/226/81 960/227/81 958/228/81 
f 959/225/31 953/226/31 956/227/31 960/228/31 
f 956/225/15 955/226/15 958/227/15 960/228/15 
f 959/225/21 957/226/21 954/227/21 953/228/21 
f 961/225/12 962/226/12 963/227/12 964/228/12 
f 962/225/16 965/226/16 966/227/16 963/228/16 
f 965/225/14 967/226/14 968/227/14 966/228/14 
f 967/225/17 961/226/17 964/227/17 968/228/17 
f 964/225/18 963/226/18 966/227/18 968/228/18 
f 967/225/21 965/226/21 962/227/21 961/228/21 
f 969/225/12 970/226/12 971/227/12 972/228/12 
f 970/225/16 973/226/16 974/227/16 971/228/16 
f 973/225/14 975/226/14 976/227/14 974/228/14 
f 975/225/31 969/226/31 972/227/31 976/228/31 
f 972/225/15 971/226/15 974/227/15 976/228/15 
f 975/225/13 973/226/13 970/227/13 969/228/13 
f 977/225/80 978/226/80 979/227/80 980/228/80 
f 978/225/29 981/226/29 982/227/29 979/228/29 
f 981/225/81 983/226/81 984/227/81 982/228/81 
f 983/225/32 977/226/32 980/227/32 984/228/32 
f 980/225/15 979/226/15 982/227/15 984/228/15 
f 983/225/13 981/226/13 978/227/13 977/228/13 
f 985/225/82 986/226/82 987/227/82 988/228/82 
f 986/225/46 989/226/46 990/227/46 987/228/46 
f 989/225/81 991/226/81 992/227/81 990/228/81 
f 991/225/31 985/226/31 988/227/31 992/228/31 
f 988/225/15 987/226/15 990/227/15 992/228/15 
f 991/225/83 989/226/83 986/227/83 985/228/83 
f 993/225/12 994/226/12 995/227/12 996/228/12 
f 994/225/29 997/226/29 998/227/29 995/228/29 
f 997/225/14 999/226/14 1000/227/14 998/228/14 
f 999/225/31 993/226/31 996/227/31 1000/228/31 
f 996/225/15 995/226/15 998/227/15 1000/228/15 
f 999/225/13 997/226/13 994/227/13 993/228/13 
# 748 polygons

