# 3ds Max Wavefront OBJ Exporter v0.97b - (c)2007 guruware
# File Created: 15.03.2017 11:14:43

mtllib SPW_Urban_Props_Roof_06.mtl

#
# object SPW_Urban_Props_Roof_06
#

v  -69.9803 3.1662 -23.1545
v  -69.9803 3.1662 -30.2411
v  -69.9803 -0.0228 -30.2411
v  -69.9803 -0.0228 -23.1545
v  -62.8937 3.1662 -30.2411
v  -62.8937 -0.0228 -30.2411
v  -62.8937 3.1662 -23.1545
v  -62.8937 -0.0228 -23.1545
v  -69.0945 15.9221 -24.0404
v  -69.0945 15.9221 -29.3553
v  -69.0945 -0.0228 -29.3553
v  -69.0945 -0.0228 -24.0404
v  -63.7796 15.9221 -29.3553
v  -63.7796 -0.0228 -29.3553
v  -63.7796 15.9221 -24.0404
v  -63.7796 -0.0228 -24.0404
v  62.8937 3.1662 -23.1545
v  62.8937 3.1662 -30.2411
v  62.8937 -0.0228 -30.2411
v  62.8937 -0.0228 -23.1545
v  69.9803 3.1662 -30.2411
v  69.9803 -0.0228 -30.2411
v  69.9803 3.1662 -23.1545
v  69.9803 -0.0228 -23.1545
v  63.7795 15.9221 -24.0404
v  63.7795 15.9221 -29.3553
v  63.7795 -0.0228 -29.3553
v  63.7795 -0.0228 -24.0404
v  69.0945 15.9221 -29.3553
v  69.0945 -0.0228 -29.3553
v  69.0945 15.9221 -24.0404
v  69.0945 -0.0228 -24.0404
v  62.8937 3.1662 31.7667
v  62.8937 3.1662 24.6801
v  62.8937 -0.0228 24.6801
v  62.8937 -0.0228 31.7667
v  69.9803 3.1662 24.6801
v  69.9803 -0.0228 24.6801
v  69.9803 3.1662 31.7667
v  69.9803 -0.0228 31.7667
v  63.7795 15.9221 30.8809
v  63.7795 15.9221 25.5659
v  63.7795 -0.0228 25.5659
v  63.7795 -0.0228 30.8809
v  69.0945 15.9221 25.5659
v  69.0945 -0.0228 25.5659
v  69.0945 15.9221 30.8809
v  69.0945 -0.0228 30.8809
v  -69.9803 3.1662 31.7667
v  -69.9803 3.1662 24.6801
v  -69.9803 -0.0228 24.6801
v  -69.9803 -0.0228 31.7667
v  -62.8937 3.1662 24.6801
v  -62.8937 -0.0228 24.6801
v  -62.8937 3.1662 31.7667
v  -62.8937 -0.0228 31.7667
v  -69.0945 15.9221 30.8809
v  -69.0945 15.9221 25.5659
v  -69.0945 -0.0228 25.5659
v  -69.0945 -0.0228 30.8809
v  -63.7796 15.9221 25.5659
v  -63.7796 -0.0228 25.5659
v  -63.7796 15.9221 30.8809
v  -63.7796 -0.0228 30.8809
v  -71.5748 70.0817 33.3612
v  -71.5748 70.0817 -31.8356
v  -71.5748 68.4872 -31.8356
v  -71.5748 68.4872 33.3612
v  71.5748 70.0817 -31.8356
v  71.5748 68.4872 -31.8356
v  71.5748 70.0817 33.3612
v  71.5748 68.4872 33.3612
v  -74.4094 20.7056 36.1959
v  -74.4094 20.7056 -34.6703
v  -74.4094 15.9221 -34.6703
v  -74.4094 15.9221 36.1959
v  74.4094 20.7056 -34.6703
v  74.4094 15.9221 -34.6703
v  74.4094 20.7056 36.1959
v  74.4094 15.9221 36.1959
v  -70.8661 68.5402 32.6526
v  -70.8661 68.5402 -31.1270
v  -70.8661 20.7056 -31.1270
v  -70.8661 20.7055 32.6526
v  6.8110 63.5459 -31.1270
v  64.0552 63.5459 -31.1270
v  64.0552 25.6998 -31.1270
v  6.8110 25.6998 -31.1270
v  70.8661 68.5402 -31.1270
v  70.8661 68.5402 32.6526
v  70.8661 20.7055 32.6526
v  70.8661 20.7056 -31.1270
v  -6.6087 63.3522 32.6526
v  -64.2574 63.3522 32.6526
v  -64.2574 25.8935 32.6526
v  -6.6087 25.8935 32.6526
v  0.0000 20.7055 32.6526
v  0.0000 20.7056 -31.1270
v  0.0000 68.5402 32.6526
v  0.0000 68.5402 -31.1270
v  64.0552 63.5459 32.6526
v  6.8110 63.5459 32.6526
v  6.8110 25.6998 32.6526
v  64.0552 25.6998 32.6526
v  -64.2574 63.3523 -31.1270
v  -6.6087 63.3523 -31.1270
v  -6.6087 25.8935 -31.1270
v  -64.2574 25.8935 -31.1270
# 108 vertices

vn -1.0000 0.0000 -0.0000
vn 0.0000 0.0000 -1.0000
vn 1.0000 0.0000 -0.0000
vn 0.0000 -0.0000 1.0000
vn 0.0000 -1.0000 -0.0000
vn 0.0000 1.0000 0.0000
vn -0.0000 0.0000 -1.0000
vn -0.0000 -0.0000 1.0000
# 8 vertex normals

vt 0.4300 0.1417 0.0000
vt 0.4800 0.1417 0.0000
vt 0.4800 0.1917 0.0000
vt 0.4300 0.1917 0.0000
vt 0.6898 0.0141 0.0000
vt 0.7398 0.0141 0.0000
vt 0.7398 0.0641 0.0000
vt 0.6898 0.0641 0.0000
vt 0.6703 0.0208 0.0000
vt 0.7203 0.0208 0.0000
vt 0.7203 0.0708 0.0000
vt 0.6703 0.0708 0.0000
vt 0.8005 0.0394 0.0000
vt 0.8505 0.0394 0.0000
vt 0.8505 0.0894 0.0000
vt 0.8005 0.0894 0.0000
vt 0.8213 0.5388 0.0000
vt 0.9399 0.5388 0.0000
vt 0.9399 0.4517 0.0000
vt 0.8213 0.4517 0.0000
vt 0.9398 0.5384 0.0000
vt 0.8204 0.5384 0.0000
vt 0.8204 0.4521 0.0000
vt 0.9398 0.4521 0.0000
vt 0.8005 0.0644 0.0000
vt 0.8505 0.0644 0.0000
vt 0.8482 0.0871 0.0000
vt 0.8482 0.0417 0.0000
vt 0.8029 0.0417 0.0000
vt 0.8029 0.0871 0.0000
vt 0.8232 0.0871 0.0000
vt 0.8255 0.0894 0.0000
vt 0.8279 0.0417 0.0000
vt 0.8255 0.0394 0.0000
vt 0.8232 0.0417 0.0000
vt 0.8279 0.0871 0.0000
vt 0.8481 0.0418 0.0000
vt 0.8279 0.0418 0.0000
vt 0.8481 0.0870 0.0000
vt 0.8029 0.0418 0.0000
vt 0.8029 0.0870 0.0000
vt 0.8231 0.0870 0.0000
vt 0.8279 0.0870 0.0000
vt 0.8231 0.0418 0.0000
# 44 texture coords

g SPW_Urban_Props_Roof_06
usemtl SPW_Urban_Props
s off
f 1/1/1 2/2/1 3/3/1 4/4/1 
f 2/1/2 5/2/2 6/3/2 3/4/2 
f 5/1/3 7/2/3 8/3/3 6/4/3 
f 7/1/4 1/2/4 4/3/4 8/4/4 
f 4/1/5 3/2/5 6/3/5 8/4/5 
f 7/1/6 5/2/6 2/3/6 1/4/6 
f 9/1/1 10/2/1 11/3/1 12/4/1 
f 10/1/2 13/2/2 14/3/2 11/4/2 
f 13/1/3 15/2/3 16/3/3 14/4/3 
f 15/1/4 9/2/4 12/3/4 16/4/4 
f 12/1/5 11/2/5 14/3/5 16/4/5 
f 15/1/6 13/2/6 10/3/6 9/4/6 
f 17/1/1 18/2/1 19/3/1 20/4/1 
f 18/1/2 21/2/2 22/3/2 19/4/2 
f 21/1/3 23/2/3 24/3/3 22/4/3 
f 23/1/4 17/2/4 20/3/4 24/4/4 
f 20/1/5 19/2/5 22/3/5 24/4/5 
f 23/1/6 21/2/6 18/3/6 17/4/6 
f 25/1/1 26/2/1 27/3/1 28/4/1 
f 26/1/2 29/2/2 30/3/2 27/4/2 
f 29/1/3 31/2/3 32/3/3 30/4/3 
f 31/1/4 25/2/4 28/3/4 32/4/4 
f 28/1/5 27/2/5 30/3/5 32/4/5 
f 31/1/6 29/2/6 26/3/6 25/4/6 
f 33/1/1 34/2/1 35/3/1 36/4/1 
f 34/1/2 37/2/2 38/3/2 35/4/2 
f 37/1/3 39/2/3 40/3/3 38/4/3 
f 39/1/4 33/2/4 36/3/4 40/4/4 
f 36/1/5 35/2/5 38/3/5 40/4/5 
f 39/1/6 37/2/6 34/3/6 33/4/6 
f 41/1/1 42/2/1 43/3/1 44/4/1 
f 42/1/2 45/2/2 46/3/2 43/4/2 
f 45/1/3 47/2/3 48/3/3 46/4/3 
f 47/1/4 41/2/4 44/3/4 48/4/4 
f 44/1/5 43/2/5 46/3/5 48/4/5 
f 47/1/6 45/2/6 42/3/6 41/4/6 
f 49/1/1 50/2/1 51/3/1 52/4/1 
f 50/1/2 53/2/2 54/3/2 51/4/2 
f 53/1/3 55/2/3 56/3/3 54/4/3 
f 55/1/4 49/2/4 52/3/4 56/4/4 
f 52/1/5 51/2/5 54/3/5 56/4/5 
f 55/1/6 53/2/6 50/3/6 49/4/6 
f 57/1/1 58/2/1 59/3/1 60/4/1 
f 58/1/2 61/2/2 62/3/2 59/4/2 
f 61/1/3 63/2/3 64/3/3 62/4/3 
f 63/1/4 57/2/4 60/3/4 64/4/4 
f 60/1/5 59/2/5 62/3/5 64/4/5 
f 63/1/6 61/2/6 58/3/6 57/4/6 
f 65/5/1 66/6/1 67/7/1 68/8/1 
f 66/5/2 69/6/2 70/7/2 67/8/2 
f 69/5/3 71/6/3 72/7/3 70/8/3 
f 71/5/4 65/6/4 68/7/4 72/8/4 
f 68/5/5 67/6/5 70/7/5 72/8/5 
f 71/5/6 69/6/6 66/7/6 65/8/6 
f 73/9/1 74/10/1 75/11/1 76/12/1 
f 74/9/2 77/10/2 78/11/2 75/12/2 
f 77/9/3 79/10/3 80/11/3 78/12/3 
f 79/9/4 73/10/4 76/11/4 80/12/4 
f 76/9/5 75/10/5 78/11/5 80/12/5 
f 79/9/6 77/10/6 74/11/6 73/12/6 
f 81/13/1 82/14/1 83/15/1 84/16/1 
s 1
f 85/17/7 86/18/2 87/19/7 88/20/2 
s off
f 89/13/3 90/14/3 91/15/3 92/16/3 
s 1
f 93/21/8 94/22/4 95/23/8 96/24/4 
s 2
f 97/25/5 98/26/5 92/15/5 91/16/5 
f 99/25/6 100/26/6 82/15/6 81/16/6 
f 90/13/6 89/14/6 100/26/6 99/25/6 
f 84/13/5 83/14/5 98/26/5 97/25/5 
s 1
f 101/18/8 102/17/4 103/20/8 104/19/4 
f 105/22/7 106/21/2 107/24/7 108/23/2 
f 95/27/8 94/28/4 81/14/4 84/15/8 
f 105/29/7 108/30/2 83/16/2 82/13/7 
f 108/30/2 107/31/7 98/32/7 83/16/2 
f 94/28/4 93/33/8 99/34/8 81/14/4 
f 106/35/2 105/29/7 82/13/7 100/34/7 
f 96/36/4 95/27/8 84/15/8 97/32/8 
f 93/33/8 96/36/4 97/32/8 99/34/8 
f 107/31/7 106/35/2 100/34/7 98/32/7 
f 86/37/2 85/38/7 100/34/7 89/14/2 
f 87/39/7 86/37/2 89/14/2 92/15/7 
f 101/40/8 104/41/4 91/16/4 90/13/8 
f 104/41/4 103/42/8 97/32/8 91/16/4 
f 88/43/2 87/39/7 92/15/7 98/32/7 
f 102/44/4 101/40/8 90/13/8 99/34/8 
f 103/42/8 102/44/4 99/34/8 97/32/8 
f 85/38/7 88/43/2 98/32/7 100/34/7 
# 86 polygons

