# 3ds Max Wavefront OBJ Exporter v0.97b - (c)2007 guruware
# File Created: 15.03.2017 11:15:19

mtllib SPW_Urban_Props_Roof_Helipad_01.mtl

#
# object SPW_Urban_Props_Roof_Helipad_01
#

v  -25.9845 16.0116 -5.4134
v  25.9840 16.0116 -5.4134
v  25.9840 12.7635 -5.4134
v  -25.9845 12.7635 -5.4134
v  25.9840 16.0116 5.4134
v  25.9840 12.7635 5.4134
v  -25.9845 16.0116 5.4134
v  -25.9845 12.7635 5.4134
v  17.3227 16.0116 43.3071
v  17.3227 16.0116 -43.3071
v  17.3227 12.7635 -43.3071
v  17.3227 12.7635 43.3071
v  28.1495 16.0116 -43.3071
v  28.1495 12.7635 -43.3071
v  28.1495 16.0116 43.3071
v  28.1495 12.7635 43.3071
v  -28.1500 16.0116 43.3071
v  -28.1500 16.0116 -43.3071
v  -28.1500 12.7635 -43.3071
v  -28.1500 12.7635 43.3071
v  -17.3232 16.0116 -43.3071
v  -17.3232 12.7635 -43.3071
v  -17.3232 16.0116 43.3071
v  -17.3232 12.7635 43.3071
v  -54.9656 13.9614 -133.5615
v  55.5756 13.9614 133.3087
v  55.5756 13.3010 133.3087
v  -54.9656 13.3010 -133.5615
v  54.9654 13.9614 133.5615
v  54.9655 13.3010 133.5615
v  -55.5758 13.9614 -133.3088
v  -55.5758 13.3010 -133.3088
v  -105.5681 13.9614 -106.0350
v  106.0350 13.9614 105.5680
v  106.0350 13.3010 105.5680
v  -105.5681 13.3010 -106.0350
v  105.5680 13.9614 106.0350
v  105.5680 13.3010 106.0350
v  -106.0351 13.9614 -105.5681
v  -106.0351 13.3010 -105.5681
v  -133.3088 13.9614 -55.5757
v  133.5614 13.9614 54.9655
v  133.5614 13.3010 54.9655
v  -133.3088 13.3010 -55.5758
v  133.3086 13.9614 55.5757
v  133.3086 13.3010 55.5757
v  -133.5615 13.9614 -54.9656
v  -133.5615 13.3010 -54.9656
v  -133.6026 13.9614 -0.3302
v  133.6021 13.9614 -0.3303
v  133.6021 13.3010 -0.3303
v  -133.6026 13.3010 -0.3302
v  133.6021 13.9614 0.3302
v  133.6022 13.3010 0.3302
v  -133.6026 13.9614 0.3302
v  -133.6026 13.3010 0.3302
v  -133.5616 13.9614 54.9655
v  133.3086 13.9614 -55.5757
v  133.3086 13.3010 -55.5757
v  -133.5615 13.3010 54.9655
v  133.5614 13.9614 -54.9656
v  133.5614 13.3010 -54.9656
v  -133.3088 13.9614 55.5757
v  -133.3088 13.3010 55.5757
v  -106.0351 13.9614 105.5680
v  105.5679 13.9614 -106.0351
v  105.5679 13.3010 -106.0351
v  -106.0351 13.3010 105.5680
v  106.0349 13.9614 -105.5681
v  106.0349 13.3010 -105.5681
v  -105.5681 13.9614 106.0350
v  -105.5681 13.3010 106.0350
v  -55.5758 13.9614 133.3087
v  54.9655 13.9614 -133.5615
v  54.9655 13.3010 -133.5615
v  -55.5758 13.3010 133.3087
v  55.5756 13.9614 -133.3088
v  55.5756 13.3010 -133.3088
v  -54.9656 13.9614 133.5615
v  -54.9656 13.3010 133.5615
v  -0.3303 13.9614 133.6023
v  -0.3303 13.9614 -133.6024
v  -0.3303 13.3010 -133.6024
v  -0.3303 13.3010 133.6023
v  0.3301 13.9614 -133.6024
v  0.3301 13.3010 -133.6024
v  0.3301 13.9614 133.6024
v  0.3301 13.3010 133.6024
v  78.1623 13.2548 -133.6447
v  -78.1616 13.2548 -133.6449
v  -78.1616 14.0031 -133.6449
v  78.1623 14.0031 -133.6447
v  133.6445 13.2548 -78.1628
v  133.6445 14.0031 -78.1628
v  132.9765 13.2548 77.7713
v  132.9763 13.2548 -77.7719
v  133.6447 13.2548 78.1621
v  77.7711 13.2548 132.9765
v  78.1619 13.2548 133.6447
v  -77.7712 13.2548 132.9762
v  -78.1620 13.2548 133.6445
v  -132.9773 13.2548 77.7712
v  -133.6455 13.2548 78.1621
v  77.7715 13.2548 -132.9764
v  -132.9762 13.2548 -77.7715
v  -133.6444 13.2548 -78.1623
v  -77.7708 13.2548 -132.9767
v  -133.6444 14.0031 -78.1623
v  -133.6455 14.0030 78.1620
v  -132.9773 14.0030 77.7712
v  -132.9762 14.0031 -77.7715
v  -77.7708 14.0031 -132.9767
v  77.7715 14.0031 -132.9764
v  132.9763 14.0031 -77.7719
v  -77.7712 14.0030 132.9762
v  -78.1620 14.0030 133.6445
v  77.7711 14.0030 132.9765
v  78.1619 14.0030 133.6447
v  132.9765 14.0030 77.7713
v  133.6447 14.0030 78.1621
v  74.7639 13.2548 -127.8340
v  -74.7633 13.2548 -127.8343
v  -74.7633 14.0031 -127.8343
v  74.7639 14.0031 -127.8340
v  127.8339 13.2548 -74.7644
v  127.8339 14.0031 -74.7644
v  127.1949 13.2548 74.3899
v  127.1947 13.2548 -74.3906
v  127.8341 13.2548 74.7638
v  74.3897 13.2548 127.1949
v  74.7636 13.2548 127.8341
v  -74.3899 13.2548 127.1947
v  -74.7637 13.2548 127.8339
v  -127.1956 13.2548 74.3899
v  -127.8348 13.2548 74.7637
v  74.3901 13.2548 -127.1949
v  -127.1946 13.2548 -74.3901
v  -127.8338 13.2548 -74.7640
v  -74.3895 13.2548 -127.1951
v  -127.8338 14.0031 -74.7639
v  -127.8349 14.0030 74.7637
v  -127.1957 14.0030 74.3899
v  -127.1946 14.0031 -74.3901
v  -74.3895 14.0031 -127.1951
v  74.3901 14.0031 -127.1949
v  127.1947 14.0031 -74.3906
v  -74.3899 14.0030 127.1947
v  -74.7637 14.0030 127.8339
v  74.3897 14.0030 127.1949
v  74.7636 14.0030 127.8341
v  127.1949 14.0030 74.3899
v  127.8341 14.0030 74.7638
v  71.3656 13.2548 -122.0234
v  -71.3650 13.2548 -122.0236
v  -71.3650 14.0031 -122.0236
v  71.3656 14.0031 -122.0234
v  122.0233 13.2548 -71.3660
v  122.0233 14.0031 -71.3660
v  121.4133 13.2548 71.0086
v  121.4132 13.2548 -71.0092
v  122.0234 13.2548 71.3654
v  71.0084 13.2548 121.4133
v  71.3652 13.2548 122.0234
v  -71.0085 13.2548 121.4131
v  -71.3653 13.2548 122.0232
v  -121.4140 13.2548 71.0085
v  -122.0241 13.2548 71.3654
v  71.0088 13.2548 -121.4133
v  -121.4130 13.2548 -71.0088
v  -122.0232 13.2548 -71.3656
v  -71.0081 13.2548 -121.4135
v  -122.0232 14.0031 -71.3656
v  -122.0242 14.0030 71.3653
v  -121.4140 14.0030 71.0085
v  -121.4130 14.0031 -71.0088
v  -71.0081 14.0031 -121.4135
v  71.0088 14.0031 -121.4133
v  121.4131 14.0031 -71.0092
v  -71.0085 14.0030 121.4131
v  -71.3653 14.0030 122.0232
v  71.0084 14.0030 121.4133
v  71.3652 14.0030 122.0234
v  121.4133 14.0030 71.0086
v  122.0234 14.0030 71.3654
v  67.9673 -0.0487 -116.2127
v  -67.9666 -0.0487 -116.2129
v  -67.9666 14.0260 -116.2129
v  67.9673 14.0260 -116.2127
v  -116.2125 -0.0487 -67.9672
v  -116.2125 14.0260 -67.9672
v  -116.2134 -0.0487 67.9670
v  -116.2135 14.0260 67.9670
v  -67.9669 -0.0488 116.2126
v  -67.9669 14.0260 116.2126
v  67.9670 -0.0488 116.2128
v  67.9670 14.0260 116.2128
v  116.2129 -0.0487 67.9671
v  116.2129 14.0260 67.9671
v  116.2127 -0.0487 -67.9676
v  116.2127 14.0260 -67.9676
v  -62.4620 14.0260 -106.8009
v  62.4627 14.0260 -106.8007
v  -62.4620 15.7583 -106.8009
v  62.4627 15.7583 -106.8007
v  -106.8005 14.0260 -62.4626
v  -106.8014 14.0260 62.4624
v  -62.4623 14.0260 106.8006
v  62.4624 14.0260 106.8008
v  106.8009 14.0260 62.4624
v  106.8007 14.0260 -62.4629
v  -53.1011 15.7583 -90.7951
v  53.1017 15.7583 -90.7950
v  -106.8005 15.7583 -62.4626
v  -106.8014 15.7583 62.4624
v  -62.4623 15.7583 106.8006
v  62.4624 15.7583 106.8008
v  106.8009 15.7583 62.4624
v  106.8007 15.7583 -62.4629
v  -48.2750 15.7583 -82.5433
v  48.2756 15.7583 -82.5431
v  -90.7947 15.7583 -53.1016
v  -90.7955 15.7583 53.1014
v  -53.1013 15.7583 90.7948
v  53.1014 15.7583 90.7950
v  90.7951 15.7583 53.1014
v  90.7950 15.7583 -53.1019
v  82.5431 15.7583 -48.2757
v  -82.5429 15.7583 -48.2755
v  -82.5436 15.7583 48.2753
v  -48.2752 15.7583 82.5429
v  48.2753 15.7583 82.5431
v  82.5432 15.7583 48.2753
# 232 vertices

vn -0.0000 0.0000 -1.0000
vn 1.0000 0.0000 0.0000
vn 0.0000 -0.0000 1.0000
vn -1.0000 -0.0000 0.0000
vn 0.0000 1.0000 0.0000
vn 1.0000 0.0000 -0.0000
vn -0.0000 -0.0000 1.0000
vn 0.0000 0.0000 -1.0000
vn 0.9239 0.0000 -0.3827
vn 0.3827 0.0000 0.9239
vn -0.9239 -0.0000 0.3827
vn -0.3827 -0.0000 -0.9239
vn 0.0000 -1.0000 -0.0000
vn -0.0000 1.0000 0.0000
vn 0.7071 0.0000 -0.7071
vn 0.7071 -0.0000 0.7071
vn -0.7071 -0.0000 0.7071
vn -0.7071 0.0000 -0.7071
vn 0.3827 0.0000 -0.9239
vn 0.9239 -0.0000 0.3827
vn -0.3827 -0.0000 0.9239
vn -0.9239 0.0000 -0.3827
vn -0.0000 -1.0000 -0.0000
vn -0.7071 -0.0000 -0.7071
vn 0.7071 0.0000 0.7071
vn -0.9239 -0.0000 -0.3827
vn 0.3827 -0.0000 -0.9239
vn 0.9239 0.0000 0.3827
vn -1.0000 -0.0000 -0.0000
vn 1.0000 -0.0000 -0.0000
vn 0.0000 -0.0000 -1.0000
vn 0.7071 -0.0000 -0.7071
vn -1.0000 -0.0001 -0.0000
vn -0.0000 0.0000 1.0000
vn -1.0000 0.0000 -0.0000
# 35 vertex normals

vt 0.9166 0.1733 0.0000
vt 0.9158 0.1810 0.0000
vt 0.9154 0.1813 0.0000
vt 0.9162 0.1730 0.0000
vt 0.9250 0.1810 0.0000
vt 0.9254 0.1813 0.0000
vt 0.9258 0.1734 0.0000
vt 0.9262 0.1730 0.0000
vt 0.9649 0.1707 0.0000
vt 0.9160 0.1705 0.0000
vt 0.9154 0.1697 0.0000
vt 0.9654 0.1697 0.0000
vt 0.9159 0.1721 0.0000
vt 0.9154 0.1730 0.0000
vt 0.9648 0.1722 0.0000
vt 0.9654 0.1730 0.0000
vt 0.9649 0.1673 0.0000
vt 0.9160 0.1672 0.0000
vt 0.9154 0.1664 0.0000
vt 0.9654 0.1664 0.0000
vt 0.9159 0.1687 0.0000
vt 0.9648 0.1689 0.0000
vt 0.5707 0.1441 0.0000
vt 0.6207 0.1441 0.0000
vt 0.6207 0.1941 0.0000
vt 0.5707 0.1941 0.0000
vt 0.6104 0.1488 0.0000
vt 0.5957 0.1441 0.0000
vt 0.5810 0.1488 0.0000
vt 0.5720 0.1613 0.0000
vt 0.6195 0.1613 0.0000
vt 0.5720 0.1768 0.0000
vt 0.6195 0.1768 0.0000
vt 0.5810 0.1893 0.0000
vt 0.6104 0.1893 0.0000
vt 0.5957 0.1941 0.0000
vt 0.9246 0.1557 0.0000
vt 0.9746 0.1557 0.0000
vt 0.9746 0.2057 0.0000
vt 0.9246 0.2057 0.0000
vt 0.9496 0.2057 0.0000
vt 0.9672 0.1983 0.0000
vt 0.9746 0.1807 0.0000
vt 0.9672 0.1630 0.0000
vt 0.9496 0.1557 0.0000
vt 0.9319 0.1630 0.0000
vt 0.9246 0.1807 0.0000
vt 0.9319 0.1983 0.0000
vt 0.6285 0.7404 0.0000
vt 0.6389 0.7404 0.0000
vt 0.6389 0.7509 0.0000
vt 0.6285 0.7509 0.0000
vt 0.9246 0.1375 0.0000
vt 0.9746 0.1375 0.0000
vt 0.6337 0.7509 0.0000
vt 0.6374 0.7493 0.0000
vt 0.6389 0.7456 0.0000
vt 0.6374 0.7419 0.0000
vt 0.6337 0.7404 0.0000
vt 0.6300 0.7419 0.0000
vt 0.6285 0.7456 0.0000
vt 0.6300 0.7493 0.0000
# 62 texture coords

g SPW_Urban_Props_Roof_Helipad_01
usemtl SPW_Urban_Props
s off
f 1/1/1 2/2/1 3/3/1 4/4/1 
f 2/2/2 5/5/2 6/6/2 3/3/2 
f 5/5/3 7/7/3 8/8/3 6/6/3 
f 7/7/4 1/1/4 4/4/4 8/8/4 
f 7/7/5 5/5/5 2/2/5 1/1/5 
f 9/9/4 10/10/4 11/11/4 12/12/4 
f 10/10/1 13/13/1 14/14/1 11/11/1 
f 13/13/6 15/15/6 16/16/6 14/14/6 
f 15/15/7 9/9/7 12/12/7 16/16/7 
f 15/15/5 13/13/5 10/10/5 9/9/5 
f 17/17/4 18/18/4 19/19/4 20/20/4 
f 18/18/8 21/21/8 22/11/8 19/19/8 
f 21/21/6 23/22/6 24/12/6 22/11/6 
f 23/22/3 17/17/3 20/20/3 24/12/3 
f 23/22/5 21/21/5 18/18/5 17/17/5 
f 25/23/9 26/24/9 27/25/9 28/26/9 
f 26/23/10 29/24/10 30/25/10 27/26/10 
f 29/23/11 31/24/11 32/25/11 30/26/11 
f 31/23/12 25/24/12 28/25/12 32/26/12 
f 28/23/13 27/24/13 30/25/13 32/26/13 
f 31/23/14 29/24/14 26/25/14 25/26/14 
f 33/23/15 34/24/15 35/25/15 36/26/15 
f 34/23/16 37/24/16 38/25/16 35/26/16 
f 37/23/17 39/24/17 40/25/17 38/26/17 
f 39/23/18 33/24/18 36/25/18 40/26/18 
f 36/23/13 35/24/13 38/25/13 40/26/13 
f 39/23/14 37/24/14 34/25/14 33/26/14 
f 41/23/19 42/24/19 43/25/19 44/26/19 
f 42/23/20 45/24/20 46/25/20 43/26/20 
f 45/23/21 47/24/21 48/25/21 46/26/21 
f 47/23/22 41/24/22 44/25/22 48/26/22 
f 44/23/13 43/24/13 46/25/13 48/26/13 
f 47/23/14 45/24/14 42/25/14 41/26/14 
f 49/23/1 50/24/1 51/25/1 52/26/1 
f 50/23/6 53/24/6 54/25/6 51/26/6 
f 53/23/3 55/24/3 56/25/3 54/26/3 
f 55/23/4 49/24/4 52/25/4 56/26/4 
f 52/23/13 51/24/13 54/25/13 56/26/13 
f 55/23/5 53/24/5 50/25/5 49/26/5 
f 57/23/12 58/24/12 59/25/12 60/26/12 
f 58/23/9 61/24/9 62/25/9 59/26/9 
f 61/23/10 63/24/10 64/25/10 62/26/10 
f 63/23/11 57/24/11 60/25/11 64/26/11 
f 60/23/23 59/24/23 62/25/23 64/26/23 
f 63/23/5 61/24/5 58/25/5 57/26/5 
f 65/23/24 66/24/24 67/25/24 68/26/24 
f 66/23/15 69/24/15 70/25/15 67/26/15 
f 69/23/25 71/24/25 72/25/25 70/26/25 
f 71/23/17 65/24/17 68/25/17 72/26/17 
f 68/23/23 67/24/23 70/25/23 72/26/23 
f 71/23/5 69/24/5 66/25/5 65/26/5 
f 73/23/26 74/24/26 75/25/26 76/26/26 
f 74/23/27 77/24/27 78/25/27 75/26/27 
f 77/23/28 79/24/28 80/25/28 78/26/28 
f 79/23/21 73/24/21 76/25/21 80/26/21 
f 76/23/23 75/24/23 78/25/23 80/26/23 
f 79/23/5 77/24/5 74/25/5 73/26/5 
f 81/23/4 82/24/4 83/25/4 84/26/4 
f 82/23/8 85/24/8 86/25/8 83/26/8 
f 85/23/6 87/24/6 88/25/6 86/26/6 
f 87/23/7 81/24/7 84/25/7 88/26/7 
f 84/23/23 83/24/23 86/25/23 88/26/23 
f 87/23/5 85/24/5 82/25/5 81/26/5 
f 89/23/8 90/24/8 91/25/8 92/26/8 
f 93/23/15 89/24/15 92/25/15 94/26/15 
s 1
f 95/27/23 96/28/13 93/29/13 97/30/23 
f 98/31/23 95/27/23 97/30/23 99/32/23 
f 100/33/13 98/31/23 99/32/23 101/34/13 
f 102/35/13 100/33/13 101/34/13 103/36/13 
f 89/36/13 93/35/13 96/33/13 104/31/13 
f 105/28/23 102/29/13 103/30/13 106/32/23 
f 107/27/23 105/28/23 106/32/23 90/34/23 
f 104/31/13 107/27/23 90/34/23 89/36/13 
s off
f 90/23/18 106/24/18 108/25/18 91/26/18 
s 1
f 108/33/5 109/31/14 110/27/14 111/28/5 
f 91/35/5 108/33/5 111/28/5 112/29/5 
f 92/36/14 91/35/5 112/29/5 113/30/14 
f 92/36/14 113/30/14 114/32/14 94/34/14 
f 115/27/14 110/28/14 109/29/14 116/30/14 
f 117/31/5 115/27/14 116/30/14 118/32/5 
f 119/33/5 117/31/5 118/32/5 120/34/5 
f 114/35/14 119/33/5 120/34/5 94/36/14 
s off
f 97/23/6 93/24/6 94/25/6 120/26/6 
f 99/23/16 97/24/16 120/25/16 118/26/16 
f 101/23/7 99/24/7 118/25/7 116/26/7 
f 103/23/17 101/24/17 116/25/17 109/26/17 
f 106/23/29 103/24/29 109/25/29 108/26/29 
f 107/23/7 104/24/7 113/25/7 112/26/7 
f 105/23/16 107/24/16 112/25/16 111/26/16 
f 104/23/17 96/24/17 114/25/17 113/26/17 
f 102/23/2 105/24/2 111/25/2 110/26/2 
f 96/23/4 95/24/4 119/25/4 114/26/4 
f 100/23/15 102/24/15 110/25/15 115/26/15 
f 95/23/18 98/24/18 117/25/18 119/26/18 
f 98/23/8 100/24/8 115/25/8 117/26/8 
f 121/23/8 122/24/8 123/25/8 124/26/8 
f 125/23/15 121/24/15 124/25/15 126/26/15 
s 1
f 127/27/23 128/28/13 125/29/13 129/30/23 
f 130/31/23 127/27/23 129/30/23 131/32/23 
f 132/33/13 130/31/23 131/32/23 133/34/13 
f 134/35/13 132/33/13 133/34/13 135/36/13 
f 121/36/13 125/35/13 128/33/13 136/31/13 
f 137/28/23 134/29/13 135/30/13 138/32/23 
f 139/27/23 137/28/23 138/32/23 122/34/23 
f 136/31/13 139/27/23 122/34/23 121/36/13 
s off
f 122/23/18 138/24/18 140/25/18 123/26/18 
s 1
f 140/33/5 141/31/14 142/27/14 143/28/5 
f 123/35/5 140/33/5 143/28/5 144/29/5 
f 124/36/14 123/35/5 144/29/5 145/30/14 
f 124/36/14 145/30/14 146/32/14 126/34/14 
f 147/27/14 142/28/14 141/29/14 148/30/14 
f 149/31/5 147/27/14 148/30/14 150/32/5 
f 151/33/5 149/31/5 150/32/5 152/34/5 
f 146/35/14 151/33/5 152/34/5 126/36/14 
s off
f 129/23/30 125/24/30 126/25/30 152/26/30 
f 131/23/16 129/24/16 152/25/16 150/26/16 
f 133/23/7 131/24/7 150/25/7 148/26/7 
f 135/23/17 133/24/17 148/25/17 141/26/17 
f 138/23/29 135/24/29 141/25/29 140/26/29 
f 139/23/7 136/24/7 145/25/7 144/26/7 
f 137/23/16 139/24/16 144/25/16 143/26/16 
f 136/23/17 128/24/17 146/25/17 145/26/17 
f 134/23/2 137/24/2 143/25/2 142/26/2 
f 128/23/4 127/24/4 151/25/4 146/26/4 
f 132/23/15 134/24/15 142/25/15 147/26/15 
f 127/23/18 130/24/18 149/25/18 151/26/18 
f 130/23/8 132/24/8 147/25/8 149/26/8 
f 153/23/31 154/24/31 155/25/31 156/26/31 
f 157/23/32 153/24/32 156/25/32 158/26/32 
s 1
f 159/27/23 160/28/13 157/29/13 161/30/23 
f 162/31/23 159/27/23 161/30/23 163/32/23 
f 164/33/13 162/31/23 163/32/23 165/34/13 
f 166/35/13 164/33/13 165/34/13 167/36/13 
f 153/36/13 157/35/13 160/33/13 168/31/13 
f 169/28/23 166/29/13 167/30/13 170/32/23 
f 171/27/23 169/28/23 170/32/23 154/34/23 
f 168/31/13 171/27/23 154/34/23 153/36/13 
s off
f 154/23/18 170/24/18 172/25/18 155/26/18 
f 172/33/5 173/31/5 174/27/5 175/28/5 
f 155/35/5 172/33/5 175/28/5 176/29/5 
f 156/36/5 155/35/5 176/29/5 177/30/5 
f 156/36/14 177/30/14 178/32/14 158/34/14 
f 179/27/14 174/28/14 173/29/14 180/30/14 
f 181/31/5 179/27/5 180/30/5 182/32/5 
f 183/33/5 181/31/5 182/32/5 184/34/5 
f 178/35/14 183/33/14 184/34/14 158/36/14 
f 161/23/6 157/24/6 158/25/6 184/26/6 
f 163/23/16 161/24/16 184/25/16 182/26/16 
f 165/23/7 163/24/7 182/25/7 180/26/7 
f 167/23/17 165/24/17 180/25/17 173/26/17 
f 170/23/33 167/24/33 173/25/33 172/26/33 
f 171/23/34 168/24/34 177/25/34 176/26/34 
f 169/23/16 171/24/16 176/25/16 175/26/16 
f 168/23/17 160/24/17 178/25/17 177/26/17 
f 166/23/2 169/24/2 175/25/2 174/26/2 
f 160/23/4 159/24/4 183/25/4 178/26/4 
f 164/23/15 166/24/15 174/25/15 179/26/15 
f 159/23/18 162/24/18 181/25/18 183/26/18 
f 162/23/8 164/24/8 179/25/8 181/26/8 
f 185/37/8 186/38/8 187/39/8 188/40/8 
f 186/37/18 189/38/18 190/39/18 187/40/18 
f 189/37/29 191/38/29 192/39/29 190/40/29 
f 191/37/17 193/38/17 194/39/17 192/40/17 
f 193/37/7 195/38/7 196/39/7 194/40/7 
f 195/37/16 197/38/16 198/39/16 196/40/16 
f 197/37/6 199/38/6 200/39/6 198/40/6 
f 199/37/15 185/38/15 188/39/15 200/40/15 
s 1
f 188/37/14 187/38/5 201/39/5 202/40/14 
s off
f 185/41/13 199/42/13 197/43/13 195/44/13 
f 185/41/13 195/44/13 193/45/13 191/46/13 
f 185/41/23 191/46/23 189/47/23 186/48/23 
f 202/49/8 201/50/8 203/51/8 204/52/8 
s 1
f 187/37/5 190/38/14 205/39/14 201/40/5 
f 190/37/14 192/38/5 206/39/5 205/40/14 
f 192/37/5 194/38/14 207/39/14 206/40/5 
f 194/37/14 196/38/5 208/39/5 207/40/14 
f 196/37/5 198/38/14 209/39/14 208/40/5 
f 198/37/14 200/38/5 210/39/5 209/40/14 
f 200/37/5 188/38/14 202/39/14 210/40/5 
f 204/52/5 203/51/14 211/51/14 212/52/14 
s off
f 201/49/18 205/50/18 213/51/18 203/52/18 
f 205/49/35 206/50/35 214/51/35 213/52/35 
f 206/49/17 207/50/17 215/51/17 214/52/17 
f 207/49/7 208/50/7 216/51/7 215/52/7 
f 208/49/16 209/50/16 217/51/16 216/52/16 
f 209/49/6 210/50/6 218/51/6 217/52/6 
f 210/49/15 202/50/15 204/51/15 218/52/15 
s 1
f 212/53/14 211/54/14 219/54/5 220/53/14 
f 203/52/14 213/51/5 221/51/5 211/52/14 
f 213/52/5 214/51/14 222/51/14 221/52/5 
f 214/52/14 215/51/5 223/51/14 222/52/14 
f 215/52/5 216/51/14 224/51/14 223/52/14 
f 216/52/14 217/51/5 225/51/5 224/52/14 
f 217/52/5 218/51/14 226/51/14 225/52/5 
f 218/52/14 204/51/5 212/51/14 226/52/14 
f 227/55/14 220/56/14 219/57/5 228/58/5 
f 227/55/14 228/58/5 229/59/14 230/60/14 
f 227/55/14 230/60/14 231/61/5 232/62/5 
f 211/53/14 221/54/5 228/54/5 219/53/5 
f 221/53/5 222/54/14 229/54/14 228/53/5 
f 222/53/14 223/54/14 230/54/14 229/53/14 
f 223/53/14 224/54/14 231/54/5 230/53/14 
f 224/53/14 225/54/5 232/54/5 231/53/5 
f 225/53/5 226/54/14 227/54/14 232/53/5 
f 226/53/14 212/54/14 220/54/14 227/53/14 
# 205 polygons

