# 3ds Max Wavefront OBJ Exporter v0.97b - (c)2007 guruware
# File Created: 15.03.2017 11:40:27

mtllib SPW_Urban_Bridge_FootBridge Part_03.mtl

#
# object SPW_Urban_Bridge_FootBridge_Part_03
#

v  -59.0551 310.0394 59.0552
v  -59.0551 310.0394 -59.0550
v  -59.0551 250.9843 -59.0551
v  -59.0551 250.9843 59.0552
v  -51.1811 310.0394 -59.0551
v  -51.1811 250.9843 -59.0551
v  -51.1811 310.0394 59.0552
v  -51.1811 250.9843 59.0552
v  137.7953 310.0394 -51.1810
v  51.1811 310.0394 -51.1810
v  51.1811 250.9843 -51.1810
v  137.7953 250.9843 -51.1810
v  51.1811 310.0394 -59.0550
v  51.1811 250.9843 -59.0550
v  137.7953 310.0394 -59.0550
v  137.7953 250.9843 -59.0550
v  137.7953 310.0394 59.0552
v  137.7953 250.9843 59.0552
v  -59.0551 310.0394 51.1812
v  -59.0551 250.9843 51.1812
v  137.7953 310.0394 51.1812
v  137.7953 250.9843 51.1812
v  137.7953 265.7481 59.0552
v  -59.0551 265.7481 59.0552
v  -59.0551 265.7481 -59.0551
v  137.7953 265.7481 -59.0551
v  137.7953 250.9843 -59.0551
v  25.5906 29.5276 39.3701
v  -25.5905 29.5276 39.3701
v  -25.5905 0.0001 39.3701
v  25.5906 0.0001 39.3701
v  -25.5906 29.5276 -39.3701
v  -25.5906 0.0001 -39.3701
v  25.5905 29.5276 -39.3701
v  25.5905 0.0001 -39.3701
v  15.7480 250.9843 29.5276
v  -15.7480 250.9843 29.5276
v  -15.7480 0.0001 29.5276
v  15.7480 0.0001 29.5276
v  -15.7480 250.9843 -29.5275
v  -15.7480 0.0001 -29.5275
v  15.7480 250.9843 -29.5275
v  15.7480 0.0001 -29.5275
# 43 vertices

vn -1.0000 -0.0000 0.0000
vn -0.0000 0.0000 -1.0000
vn 1.0000 0.0000 -0.0000
vn 0.0000 -0.0000 1.0000
vn 0.0000 -1.0000 -0.0000
vn 0.0000 1.0000 0.0000
vn -1.0000 0.0000 -0.0000
vn 1.0000 -0.0000 0.0000
vn 0.0000 0.0000 -1.0000
# 9 vertex normals

vt 0.3602 0.3931 0.0000
vt 0.4102 0.3931 0.0000
vt 0.4102 0.4431 0.0000
vt 0.3602 0.4431 0.0000
# 4 texture coords

g SPW_Urban_Bridge_FootBridge_Part_03
usemtl SPW_Urban_Road
s off
f 1/1/1 2/2/1 3/3/1 4/4/1 
f 2/1/2 5/2/2 6/3/2 3/4/2 
f 5/1/3 7/2/3 8/3/3 6/4/3 
f 7/1/4 1/2/4 4/3/4 8/4/4 
f 4/1/5 3/2/5 6/3/5 8/4/5 
f 7/1/6 5/2/6 2/3/6 1/4/6 
f 9/1/4 10/2/4 11/3/4 12/4/4 
f 10/1/1 13/2/1 14/3/1 11/4/1 
f 13/1/2 15/2/2 16/3/2 14/4/2 
f 15/1/3 9/2/3 12/3/3 16/4/3 
f 12/1/5 11/2/5 14/3/5 16/4/5 
f 15/1/6 13/2/6 10/3/6 9/4/6 
f 17/1/4 1/2/4 4/3/4 18/4/4 
f 1/1/1 19/2/1 20/3/1 4/4/1 
f 19/1/2 21/2/2 22/3/2 20/4/2 
f 21/1/3 17/2/3 18/3/3 22/4/3 
f 18/1/5 4/2/5 20/3/5 22/4/5 
f 21/1/6 19/2/6 1/3/6 17/4/6 
f 23/1/4 24/2/4 4/3/4 18/4/4 
f 24/1/7 25/2/7 3/3/7 4/4/7 
f 25/1/2 26/2/2 27/3/2 3/4/2 
f 26/1/8 23/2/8 18/3/8 27/4/8 
f 18/1/5 4/2/5 3/3/5 27/4/5 
f 26/1/6 25/2/6 24/3/6 23/4/6 
f 28/1/4 29/2/4 30/3/4 31/4/4 
f 29/1/1 32/2/1 33/3/1 30/4/1 
f 32/1/9 34/2/9 35/3/9 33/4/9 
f 34/1/3 28/2/3 31/3/3 35/4/3 
f 31/1/5 30/2/5 33/3/5 35/4/5 
f 34/1/6 32/2/6 29/3/6 28/4/6 
f 36/1/4 37/2/4 38/3/4 39/4/4 
f 37/1/7 40/2/7 41/3/7 38/4/7 
f 40/1/9 42/2/9 43/3/9 41/4/9 
f 42/1/8 36/2/8 39/3/8 43/4/8 
f 39/1/5 38/2/5 41/3/5 43/4/5 
f 42/1/6 40/2/6 37/3/6 36/4/6 
# 36 polygons

