# 3ds Max Wavefront OBJ Exporter v0.97b - (c)2007 guruware
# File Created: 15.03.2017 11:40:51

mtllib SPW_Urban_Bridge_FootBridge Part_05.mtl

#
# object SPW_Urban_Bridge_FootBridge_Part_05
#

v  25.5906 29.5276 39.3701
v  -25.5905 29.5276 39.3701
v  -25.5905 0.0001 39.3701
v  25.5906 0.0001 39.3701
v  -25.5906 29.5276 -39.3701
v  -25.5906 0.0001 -39.3701
v  25.5905 29.5276 -39.3701
v  25.5905 0.0001 -39.3701
v  15.7480 250.9843 29.5276
v  -15.7480 250.9843 29.5276
v  -15.7480 0.0001 29.5276
v  15.7480 0.0001 29.5276
v  -15.7480 250.9843 -29.5275
v  -15.7480 0.0001 -29.5275
v  15.7480 250.9843 -29.5275
v  15.7480 0.0001 -29.5275
v  98.4252 265.7481 59.0539
v  -98.4252 265.7481 59.0540
v  -98.4252 250.9843 59.0540
v  98.4252 250.9843 59.0539
v  -98.4252 265.7481 -59.0563
v  -98.4252 250.9843 -59.0563
v  98.4252 265.7481 -59.0563
v  98.4252 250.9843 -59.0563
v  98.4252 310.0394 59.0539
v  -98.4252 310.0394 59.0539
v  -98.4252 250.9843 59.0539
v  -98.4252 310.0394 51.1799
v  -98.4252 250.9843 51.1799
v  98.4252 310.0394 51.1799
v  98.4252 250.9843 51.1799
v  98.4252 310.0394 -51.1823
v  -98.4252 310.0394 -51.1823
v  -98.4252 250.9843 -51.1823
v  98.4252 250.9843 -51.1823
v  -98.4252 310.0394 -59.0563
v  98.4252 310.0394 -59.0563
# 37 vertices

vn 0.0000 -0.0000 1.0000
vn -1.0000 -0.0000 0.0000
vn 0.0000 0.0000 -1.0000
vn 1.0000 0.0000 -0.0000
vn 0.0000 -1.0000 -0.0000
vn 0.0000 1.0000 0.0000
vn -1.0000 0.0000 -0.0000
vn 1.0000 -0.0000 0.0000
vn -0.0000 0.0000 -1.0000
# 9 vertex normals

vt 0.3569 0.3840 0.0000
vt 0.4069 0.3840 0.0000
vt 0.4069 0.4340 0.0000
vt 0.3569 0.4340 0.0000
vt 0.3618 0.3815 0.0000
vt 0.4118 0.3815 0.0000
vt 0.4118 0.4315 0.0000
vt 0.3618 0.4315 0.0000
# 8 texture coords

g SPW_Urban_Bridge_FootBridge_Part_05
usemtl SPW_Urban_Road
s off
f 1/1/1 2/2/1 3/3/1 4/4/1 
f 2/1/2 5/2/2 6/3/2 3/4/2 
f 5/1/3 7/2/3 8/3/3 6/4/3 
f 7/1/4 1/2/4 4/3/4 8/4/4 
f 4/1/5 3/2/5 6/3/5 8/4/5 
f 7/1/6 5/2/6 2/3/6 1/4/6 
f 9/1/1 10/2/1 11/3/1 12/4/1 
f 10/1/7 13/2/7 14/3/7 11/4/7 
f 13/1/3 15/2/3 16/3/3 14/4/3 
f 15/1/8 9/2/8 12/3/8 16/4/8 
f 12/1/5 11/2/5 14/3/5 16/4/5 
f 15/1/6 13/2/6 10/3/6 9/4/6 
f 17/5/1 18/6/1 19/7/1 20/8/1 
f 18/5/7 21/6/7 22/7/7 19/8/7 
f 21/5/9 23/6/9 24/7/9 22/8/9 
f 23/5/4 17/6/4 20/7/4 24/8/4 
f 20/5/5 19/6/5 22/7/5 24/8/5 
f 23/5/6 21/6/6 18/7/6 17/8/6 
f 25/5/1 26/6/1 27/7/1 20/8/1 
f 26/5/7 28/6/7 29/7/7 27/8/7 
f 28/5/9 30/6/9 31/7/9 29/8/9 
f 30/5/4 25/6/4 20/7/4 31/8/4 
f 20/5/5 27/6/5 29/7/5 31/8/5 
f 30/5/6 28/6/6 26/7/6 25/8/6 
f 32/5/1 33/6/1 34/7/1 35/8/1 
f 33/5/7 36/6/7 22/7/7 34/8/7 
f 36/5/9 37/6/9 24/7/9 22/8/9 
f 37/5/4 32/6/4 35/7/4 24/8/4 
f 35/5/5 34/6/5 22/7/5 24/8/5 
f 37/5/6 36/6/6 33/7/6 32/8/6 
# 30 polygons

