# 3ds Max Wavefront OBJ Exporter v0.97b - (c)2007 guruware
# File Created: 15.03.2017 11:48:48

mtllib SPW_Urban_Train Station_Props_02.mtl

#
# object SPW_Urban_Train_Station_Props_02
#

v  -16.7323 346.4568 309.0551
v  -16.7323 346.4568 320.8661
v  -16.7323 0.0001 320.8661
v  -16.7323 0.0001 309.0551
v  -22.6378 346.4568 320.8661
v  -22.6378 0.0001 320.8661
v  -22.6378 346.4568 309.0551
v  -22.6378 0.0001 309.0551
v  22.6377 346.4568 309.0551
v  22.6377 346.4568 320.8661
v  22.6377 0.0001 320.8661
v  22.6377 0.0001 309.0551
v  16.7322 346.4568 320.8661
v  16.7322 0.0001 320.8661
v  16.7322 346.4568 309.0551
v  16.7322 0.0001 309.0551
v  21.6536 338.5840 -314.9607
v  21.6536 346.4579 -314.9607
v  21.6535 346.4580 314.9606
v  21.6535 338.5840 314.9606
v  17.7166 346.4579 -314.9607
v  17.7165 346.4580 314.9606
v  17.7166 338.5840 -314.9607
v  17.7165 338.5840 314.9606
v  22.6378 346.4566 -320.8662
v  22.6378 346.4566 -309.0551
v  22.6378 -0.0001 -309.0551
v  22.6378 -0.0001 -320.8661
v  16.7323 346.4566 -309.0551
v  16.7323 -0.0001 -309.0551
v  16.7323 346.4566 -320.8662
v  16.7323 -0.0001 -320.8661
v  21.6536 299.2139 -314.9607
v  21.6536 307.0879 -314.9607
v  21.6535 307.0880 314.9606
v  21.6535 299.2139 314.9606
v  17.7166 307.0879 -314.9607
v  17.7165 307.0880 314.9606
v  17.7166 299.2139 -314.9607
v  17.7165 299.2139 314.9606
v  20.6693 343.5173 265.7227
v  20.6693 346.3012 268.5067
v  20.6692 304.5429 310.2649
v  20.6692 301.7590 307.4810
v  18.7007 346.3012 268.5067
v  18.7007 304.5429 310.2649
v  18.7007 343.5173 265.7227
v  18.7007 301.7590 307.4810
v  20.6693 346.3012 263.1064
v  20.6693 343.5173 265.8903
v  20.6693 301.7590 224.1320
v  20.6693 304.5429 221.3481
v  18.7007 343.5173 265.8903
v  18.7008 301.7590 224.1320
v  18.7007 346.3012 263.1064
v  18.7008 304.5429 221.3481
v  20.6693 346.3011 174.5237
v  20.6693 343.5172 177.3076
v  20.6693 301.7590 135.5493
v  20.6693 304.5428 132.7654
v  18.7008 343.5172 177.3076
v  18.7008 301.7590 135.5493
v  18.7008 346.3011 174.5237
v  18.7008 304.5428 132.7654
v  20.6693 343.5173 177.1401
v  20.6693 346.3012 179.9240
v  20.6693 304.5428 221.6822
v  20.6693 301.7589 218.8983
v  18.7008 346.3012 179.9240
v  18.7008 304.5428 221.6822
v  18.7008 343.5173 177.1401
v  18.7008 301.7589 218.8983
v  20.6693 343.5173 88.5574
v  20.6693 346.3012 91.3413
v  20.6693 304.5428 133.0995
v  20.6693 301.7590 130.3156
v  18.7008 346.3012 91.3413
v  18.7008 304.5428 133.0995
v  18.7008 343.5173 88.5574
v  18.7008 301.7590 130.3156
v  20.6693 346.3011 85.9410
v  20.6693 343.5172 88.7249
v  20.6693 301.7590 46.9666
v  20.6693 304.5428 44.1827
v  18.7008 343.5172 88.7249
v  18.7008 301.7590 46.9666
v  18.7008 346.3011 85.9410
v  18.7008 304.5428 44.1827
v  20.6693 346.3011 -2.6417
v  20.6693 343.5172 0.1422
v  20.6693 301.7590 -41.6161
v  20.6693 304.5428 -44.4000
v  18.7008 343.5172 0.1422
v  18.7008 301.7590 -41.6161
v  18.7008 346.3011 -2.6417
v  18.7008 304.5428 -44.4000
v  20.6693 343.5172 -0.0253
v  20.6693 346.3011 2.7586
v  20.6693 304.5428 44.5168
v  20.6693 301.7590 41.7330
v  18.7008 346.3011 2.7586
v  18.7008 304.5428 44.5168
v  18.7008 343.5172 -0.0253
v  18.7008 301.7590 41.7330
v  20.6693 343.5172 -88.6080
v  20.6693 346.3011 -85.8241
v  20.6693 304.5428 -44.0658
v  20.6693 301.7590 -46.8497
v  18.7008 346.3011 -85.8241
v  18.7008 304.5428 -44.0658
v  18.7008 343.5172 -88.6080
v  18.7008 301.7590 -46.8497
v  20.6693 346.3011 -91.2243
v  20.6693 343.5172 -88.4404
v  20.6693 301.7590 -130.1988
v  20.6693 304.5428 -132.9826
v  18.7008 343.5172 -88.4404
v  18.7008 301.7590 -130.1988
v  18.7008 346.3011 -91.2243
v  18.7008 304.5428 -132.9826
v  20.6693 346.3011 -179.8070
v  20.6693 343.5172 -177.0231
v  20.6693 301.7590 -218.7814
v  20.6693 304.5428 -221.5653
v  18.7008 343.5172 -177.0231
v  18.7008 301.7590 -218.7814
v  18.7008 346.3011 -179.8070
v  18.7008 304.5428 -221.5653
v  20.6693 343.5172 -177.1906
v  20.6693 346.3011 -174.4067
v  20.6693 304.5428 -132.6485
v  20.6693 301.7589 -135.4324
v  18.7008 346.3011 -174.4067
v  18.7008 304.5428 -132.6485
v  18.7008 343.5172 -177.1906
v  18.7008 301.7589 -135.4324
v  20.6693 343.5172 -265.7733
v  20.6693 346.3011 -262.9894
v  20.6693 304.5428 -221.2312
v  20.6693 301.7589 -224.0150
v  18.7008 346.3011 -262.9894
v  18.7008 304.5428 -221.2312
v  18.7008 343.5172 -265.7733
v  18.7008 301.7589 -224.0150
v  20.6693 346.3011 -268.3897
v  20.6693 343.5172 -265.6058
v  20.6693 301.7589 -307.3641
v  20.6693 304.5428 -310.1479
v  18.7008 343.5172 -265.6058
v  18.7008 301.7589 -307.3641
v  18.7008 346.3011 -268.3897
v  18.7008 304.5428 -310.1479
v  -18.7007 346.3011 -268.3897
v  -18.7007 343.5172 -265.6058
v  -18.7007 301.7589 -307.3641
v  -18.7007 304.5428 -310.1479
v  -20.6693 343.5172 -265.6058
v  -20.6692 301.7589 -307.3641
v  -20.6693 346.3011 -268.3897
v  -20.6692 304.5428 -310.1479
v  -18.7007 343.5172 -265.7733
v  -18.7007 346.3011 -262.9894
v  -18.7008 304.5428 -221.2312
v  -18.7008 301.7589 -224.0150
v  -20.6693 346.3011 -262.9894
v  -20.6693 304.5428 -221.2312
v  -20.6693 343.5172 -265.7733
v  -20.6693 301.7589 -224.0150
v  -18.7008 343.5172 -177.1906
v  -18.7008 346.3011 -174.4067
v  -18.7008 304.5428 -132.6485
v  -18.7008 301.7589 -135.4324
v  -20.6693 346.3011 -174.4067
v  -20.6693 304.5428 -132.6485
v  -20.6693 343.5172 -177.1906
v  -20.6693 301.7589 -135.4324
v  -18.7008 346.3011 -179.8070
v  -18.7008 343.5172 -177.0231
v  -18.7008 301.7590 -218.7814
v  -18.7008 304.5428 -221.5653
v  -20.6693 343.5172 -177.0231
v  -20.6693 301.7590 -218.7814
v  -20.6693 346.3011 -179.8070
v  -20.6693 304.5428 -221.5653
v  -18.7008 346.3011 -91.2243
v  -18.7008 343.5172 -88.4404
v  -18.7008 301.7590 -130.1988
v  -18.7008 304.5428 -132.9826
v  -20.6693 343.5172 -88.4404
v  -20.6693 301.7590 -130.1988
v  -20.6693 346.3011 -91.2243
v  -20.6693 304.5428 -132.9826
v  -18.7008 343.5172 -88.6080
v  -18.7008 346.3011 -85.8241
v  -18.7008 304.5428 -44.0658
v  -18.7008 301.7590 -46.8497
v  -20.6693 346.3011 -85.8241
v  -20.6693 304.5428 -44.0658
v  -20.6693 343.5172 -88.6080
v  -20.6693 301.7590 -46.8497
v  -18.7008 343.5172 -0.0253
v  -18.7008 346.3011 2.7586
v  -18.7008 304.5428 44.5168
v  -18.7008 301.7590 41.7330
v  -20.6693 346.3011 2.7586
v  -20.6693 304.5428 44.5168
v  -20.6693 343.5172 -0.0253
v  -20.6693 301.7590 41.7330
v  -18.7008 346.3011 -2.6417
v  -18.7008 343.5172 0.1422
v  -18.7008 301.7590 -41.6161
v  -18.7008 304.5428 -44.4000
v  -20.6693 343.5172 0.1422
v  -20.6693 301.7590 -41.6161
v  -20.6693 346.3011 -2.6417
v  -20.6693 304.5428 -44.4000
v  -18.7008 346.3011 85.9410
v  -18.7008 343.5172 88.7249
v  -18.7008 301.7590 46.9666
v  -18.7008 304.5428 44.1827
v  -20.6693 343.5172 88.7249
v  -20.6693 301.7590 46.9666
v  -20.6693 346.3011 85.9410
v  -20.6693 304.5428 44.1827
v  -18.7008 343.5173 88.5574
v  -18.7008 346.3012 91.3413
v  -18.7008 304.5428 133.0995
v  -18.7008 301.7590 130.3156
v  -20.6693 346.3012 91.3413
v  -20.6693 304.5428 133.0995
v  -20.6693 343.5173 88.5574
v  -20.6693 301.7590 130.3156
v  -18.7008 343.5173 177.1401
v  -18.7008 346.3012 179.9240
v  -18.7008 304.5428 221.6822
v  -18.7008 301.7589 218.8983
v  -20.6693 346.3012 179.9240
v  -20.6693 304.5428 221.6822
v  -20.6693 343.5173 177.1401
v  -20.6693 301.7589 218.8983
v  -18.7008 346.3011 174.5237
v  -18.7008 343.5172 177.3076
v  -18.7008 301.7590 135.5493
v  -18.7008 304.5428 132.7654
v  -20.6693 343.5172 177.3076
v  -20.6693 301.7590 135.5493
v  -20.6693 346.3011 174.5237
v  -20.6693 304.5428 132.7654
v  -18.7008 346.3012 263.1064
v  -18.7008 343.5173 265.8903
v  -18.7008 301.7590 224.1320
v  -18.7008 304.5429 221.3481
v  -20.6693 343.5173 265.8903
v  -20.6693 301.7590 224.1320
v  -20.6693 346.3012 263.1064
v  -20.6693 304.5429 221.3481
v  -18.7008 343.5173 265.7227
v  -18.7008 346.3012 268.5067
v  -18.7008 304.5429 310.2649
v  -18.7008 301.7590 307.4810
v  -20.6693 346.3012 268.5067
v  -20.6693 304.5429 310.2649
v  -20.6693 343.5173 265.7227
v  -20.6693 301.7590 307.4810
v  -17.7165 299.2139 -314.9607
v  -17.7165 307.0879 -314.9607
v  -17.7166 307.0880 314.9606
v  -17.7166 299.2139 314.9606
v  -21.6535 307.0879 -314.9607
v  -21.6536 307.0880 314.9606
v  -21.6535 299.2139 -314.9607
v  -21.6536 299.2139 314.9606
v  -16.7322 346.4566 -320.8662
v  -16.7322 346.4566 -309.0551
v  -16.7322 -0.0001 -309.0551
v  -16.7322 -0.0001 -320.8661
v  -22.6377 346.4566 -309.0551
v  -22.6377 -0.0001 -309.0551
v  -22.6377 346.4566 -320.8662
v  -22.6377 -0.0001 -320.8661
v  -17.7165 338.5840 -314.9607
v  -17.7165 346.4579 -314.9607
v  -17.7166 346.4580 314.9606
v  -17.7166 338.5840 314.9606
v  -21.6535 346.4579 -314.9607
v  -21.6536 346.4580 314.9606
v  -21.6535 338.5840 -314.9607
v  -21.6536 338.5840 314.9606
v  20.6693 306.9310 -270.8795
v  20.6693 304.1471 -268.0956
v  20.6693 262.3889 -309.8539
v  20.6693 265.1728 -312.6377
v  18.7008 304.1471 -268.0956
v  18.7008 262.3889 -309.8539
v  18.7008 306.9310 -270.8795
v  18.7008 265.1728 -312.6377
v  -18.7007 306.9310 -270.8795
v  -18.7007 304.1471 -268.0956
v  -18.7007 262.3889 -309.8539
v  -18.7007 265.1728 -312.6377
v  -20.6693 304.1471 -268.0956
v  -20.6692 262.3889 -309.8539
v  -20.6693 306.9310 -270.8795
v  -20.6692 265.1728 -312.6377
v  -18.7008 304.1472 268.2125
v  -18.7008 306.9311 270.9964
v  -18.7008 265.1728 312.7547
v  -18.7008 262.3889 309.9708
v  -20.6693 306.9311 270.9964
v  -20.6693 265.1728 312.7547
v  -20.6693 304.1472 268.2125
v  -20.6693 262.3889 309.9708
v  20.6693 304.1472 268.2125
v  20.6693 306.9311 270.9964
v  20.6692 265.1728 312.7547
v  20.6692 262.3889 309.9708
v  18.7007 306.9311 270.9964
v  18.7007 265.1728 312.7547
v  18.7007 304.1472 268.2125
v  18.7007 262.3889 309.9708
v  18.5585 341.8606 267.8455
v  21.3424 341.8606 270.6294
v  -18.2932 341.8606 310.2649
v  -21.0770 341.8606 307.4810
v  21.3424 343.8291 270.6294
v  -18.2932 343.8291 310.2649
v  18.5585 343.8291 267.8455
v  -21.0770 343.8291 307.4810
v  21.3424 341.8606 261.9370
v  18.5585 341.8606 264.7209
v  -21.0770 341.8606 225.0853
v  -18.2931 341.8606 222.3014
v  18.5585 343.8291 264.7209
v  -21.0770 343.8291 225.0853
v  21.3424 343.8291 261.9370
v  -18.2931 343.8291 222.3014
v  21.3424 341.8605 173.3543
v  18.5585 341.8605 176.1382
v  -21.0770 341.8605 136.5026
v  -18.2931 341.8605 133.7187
v  18.5585 343.8291 176.1382
v  -21.0770 343.8291 136.5026
v  21.3424 343.8291 173.3543
v  -18.2931 343.8291 133.7187
v  18.5586 341.8606 179.2628
v  21.3424 341.8606 182.0467
v  -18.2931 341.8606 221.6822
v  -21.0770 341.8606 218.8983
v  21.3424 343.8291 182.0467
v  -18.2931 343.8291 221.6822
v  18.5586 343.8291 179.2628
v  -21.0770 343.8291 218.8983
v  18.5586 341.8605 90.6801
v  21.3425 341.8605 93.4640
v  -18.2931 341.8605 133.0995
v  -21.0770 341.8605 130.3156
v  21.3425 343.8291 93.4640
v  -18.2931 343.8291 133.0995
v  18.5586 343.8291 90.6801
v  -21.0770 343.8291 130.3156
v  21.3424 341.8605 84.7716
v  18.5585 341.8605 87.5555
v  -21.0770 341.8605 47.9199
v  -18.2931 341.8605 45.1360
v  18.5585 343.8291 87.5555
v  -21.0770 343.8290 47.9199
v  21.3424 343.8291 84.7716
v  -18.2931 343.8290 45.1360
v  21.3424 341.8605 -3.8111
v  18.5586 341.8605 -1.0272
v  -21.0770 341.8605 -40.6628
v  -18.2931 341.8605 -43.4467
v  18.5586 343.8290 -1.0272
v  -21.0770 343.8290 -40.6628
v  21.3424 343.8290 -3.8111
v  -18.2931 343.8290 -43.4467
v  18.5586 341.8605 2.0974
v  21.3425 341.8605 4.8813
v  -18.2931 341.8605 44.5168
v  -21.0770 341.8605 41.7329
v  21.3425 343.8290 4.8813
v  -18.2931 343.8290 44.5168
v  18.5586 343.8290 2.0974
v  -21.0770 343.8290 41.7329
v  18.5586 341.8605 -86.4852
v  21.3425 341.8605 -83.7014
v  -18.2931 341.8605 -44.0658
v  -21.0770 341.8605 -46.8497
v  21.3425 343.8290 -83.7014
v  -18.2931 343.8290 -44.0658
v  18.5586 343.8290 -86.4852
v  -21.0770 343.8290 -46.8497
v  21.3425 341.8605 -92.3937
v  18.5586 341.8605 -89.6099
v  -21.0769 341.8605 -129.2454
v  -18.2931 341.8605 -132.0293
v  18.5586 343.8290 -89.6099
v  -21.0769 343.8290 -129.2454
v  21.3425 343.8290 -92.3937
v  -18.2931 343.8290 -132.0293
v  21.3425 341.8605 -180.9764
v  18.5586 341.8605 -178.1925
v  -21.0769 341.8605 -217.8281
v  -18.2930 341.8605 -220.6120
v  18.5586 343.8289 -178.1925
v  -21.0769 343.8289 -217.8281
v  21.3425 343.8289 -180.9764
v  -18.2930 343.8289 -220.6120
v  18.5586 341.8605 -175.0679
v  21.3425 341.8605 -172.2840
v  -18.2931 341.8605 -132.6485
v  -21.0770 341.8605 -135.4324
v  21.3425 343.8290 -172.2840
v  -18.2931 343.8290 -132.6485
v  18.5586 343.8290 -175.0679
v  -21.0770 343.8290 -135.4324
v  18.5586 341.8605 -263.6506
v  21.3425 341.8605 -260.8667
v  -18.2931 341.8605 -221.2312
v  -21.0770 341.8605 -224.0151
v  21.3425 343.8290 -260.8667
v  -18.2931 343.8289 -221.2312
v  18.5586 343.8290 -263.6506
v  -21.0770 343.8289 -224.0151
v  21.3425 341.8605 -269.5591
v  18.5586 341.8605 -266.7752
v  -21.0769 341.8605 -306.4108
v  -18.2930 341.8605 -309.1947
v  18.5586 343.8290 -266.7752
v  -21.0769 343.8290 -306.4108
v  21.3425 343.8290 -269.5591
v  -18.2930 343.8290 -309.1947
v  21.3425 302.4904 -269.5591
v  18.5586 302.4904 -266.7752
v  -21.0769 302.4904 -306.4108
v  -18.2930 302.4904 -309.1946
v  18.5586 304.4589 -266.7752
v  -21.0769 304.4589 -306.4108
v  21.3425 304.4589 -269.5591
v  -18.2930 304.4589 -309.1946
v  18.5586 302.4904 -263.6506
v  21.3425 302.4904 -260.8667
v  -18.2931 302.4904 -221.2312
v  -21.0770 302.4904 -224.0150
v  21.3425 304.4589 -260.8667
v  -18.2931 304.4590 -221.2312
v  18.5586 304.4589 -263.6506
v  -21.0770 304.4590 -224.0150
v  18.5586 302.4904 -175.0679
v  21.3425 302.4904 -172.2840
v  -18.2931 302.4904 -132.6485
v  -21.0770 302.4904 -135.4324
v  21.3425 304.4590 -172.2840
v  -18.2931 304.4590 -132.6485
v  18.5586 304.4590 -175.0679
v  -21.0770 304.4590 -135.4324
v  21.3425 302.4904 -180.9764
v  18.5586 302.4904 -178.1925
v  -21.0769 302.4904 -217.8281
v  -18.2930 302.4904 -220.6120
v  18.5586 304.4589 -178.1925
v  -21.0769 304.4590 -217.8281
v  21.3425 304.4589 -180.9764
v  -18.2930 304.4590 -220.6120
v  21.3425 302.4904 -92.3937
v  18.5586 302.4904 -89.6099
v  -21.0769 302.4904 -129.2455
v  -18.2931 302.4904 -132.0293
v  18.5586 304.4589 -89.6099
v  -21.0769 304.4590 -129.2455
v  21.3425 304.4589 -92.3937
v  -18.2931 304.4590 -132.0293
v  18.5586 302.4904 -86.4853
v  21.3425 302.4904 -83.7014
v  -18.2931 302.4904 -44.0658
v  -21.0770 302.4904 -46.8497
v  21.3425 304.4589 -83.7014
v  -18.2931 304.4590 -44.0658
v  18.5586 304.4589 -86.4853
v  -21.0770 304.4590 -46.8497
v  18.5586 302.4904 2.0974
v  21.3425 302.4904 4.8813
v  -18.2931 302.4904 44.5168
v  -21.0770 302.4904 41.7330
v  21.3425 304.4590 4.8813
v  -18.2931 304.4590 44.5168
v  18.5586 304.4590 2.0974
v  -21.0770 304.4590 41.7329
v  21.3424 302.4904 -3.8111
v  18.5586 302.4904 -1.0272
v  -21.0770 302.4904 -40.6628
v  -18.2931 302.4904 -43.4466
v  18.5586 304.4590 -1.0272
v  -21.0770 304.4590 -40.6628
v  21.3424 304.4590 -3.8111
v  -18.2931 304.4590 -43.4467
v  21.3424 302.4905 84.7716
v  18.5585 302.4905 87.5555
v  -21.0770 302.4904 47.9199
v  -18.2931 302.4904 45.1360
v  18.5585 304.4590 87.5555
v  -21.0770 304.4590 47.9199
v  21.3424 304.4590 84.7716
v  -18.2931 304.4590 45.1360
v  18.5586 302.4905 90.6801
v  21.3425 302.4905 93.4640
v  -18.2931 302.4905 133.0995
v  -21.0770 302.4905 130.3156
v  21.3425 304.4590 93.4640
v  -18.2931 304.4590 133.0995
v  18.5586 304.4590 90.6801
v  -21.0770 304.4590 130.3156
v  18.5586 302.4905 179.2628
v  21.3424 302.4905 182.0467
v  -18.2931 302.4905 221.6822
v  -21.0770 302.4905 218.8983
v  21.3424 304.4590 182.0467
v  -18.2931 304.4590 221.6822
v  18.5586 304.4590 179.2628
v  -21.0770 304.4590 218.8983
v  21.3424 302.4905 173.3543
v  18.5585 302.4905 176.1382
v  -21.0770 302.4905 136.5026
v  -18.2931 302.4905 133.7187
v  18.5585 304.4590 176.1382
v  -21.0770 304.4590 136.5026
v  21.3424 304.4590 173.3543
v  -18.2931 304.4590 133.7187
v  21.3424 302.4905 261.9370
v  18.5585 302.4905 264.7209
v  -21.0770 302.4905 225.0853
v  -18.2931 302.4905 222.3014
v  18.5585 304.4590 264.7209
v  -21.0770 304.4590 225.0853
v  21.3424 304.4590 261.9370
v  -18.2931 304.4590 222.3014
v  18.5585 302.4905 267.8455
v  21.3424 302.4905 270.6294
v  -18.2932 302.4905 310.2649
v  -21.0770 302.4905 307.4810
v  21.3424 304.4590 270.6294
v  -18.2932 304.4590 310.2649
v  18.5585 304.4590 267.8455
v  -21.0770 304.4590 307.4810
v  19.6850 340.5526 316.9291
v  19.6850 344.4895 316.9291
v  -19.6851 344.4895 316.9291
v  -19.6851 340.5526 316.9291
v  19.6850 344.4895 312.9921
v  -19.6851 344.4895 312.9921
v  19.6850 340.5526 312.9921
v  -19.6851 340.5526 312.9921
v  19.6851 340.5524 -312.9922
v  19.6851 344.4894 -312.9922
v  -19.6850 344.4894 -312.9922
v  -19.6850 340.5524 -312.9922
v  19.6851 344.4894 -316.9292
v  -19.6850 344.4894 -316.9292
v  19.6851 340.5524 -316.9292
v  -19.6850 340.5524 -316.9292
v  19.6851 301.1823 -312.9922
v  19.6851 305.1194 -312.9922
v  -19.6850 305.1194 -312.9922
v  -19.6850 301.1823 -312.9922
v  19.6851 305.1194 -316.9292
v  -19.6850 305.1194 -316.9292
v  19.6851 301.1823 -316.9292
v  -19.6850 301.1823 -316.9292
v  19.6850 301.1824 316.9291
v  19.6850 305.1195 316.9291
v  -19.6851 305.1195 316.9291
v  -19.6851 301.1824 316.9291
v  19.6850 305.1195 312.9921
v  -19.6851 305.1195 312.9921
v  19.6850 301.1824 312.9921
v  -19.6851 301.1824 312.9921
v  19.6851 70.8661 -312.9921
v  19.6851 78.7401 -312.9921
v  -19.6850 78.7401 -312.9921
v  -19.6850 70.8661 -312.9921
v  19.6851 78.7401 -316.9292
v  -19.6850 78.7401 -316.9292
v  19.6851 70.8661 -316.9291
v  -19.6850 70.8661 -316.9291
v  19.6851 188.9763 -312.9921
v  19.6851 196.8504 -312.9921
v  -19.6850 196.8504 -312.9921
v  -19.6850 188.9763 -312.9921
v  19.6851 196.8504 -316.9292
v  -19.6850 196.8504 -316.9292
v  19.6851 188.9763 -316.9292
v  -19.6850 188.9763 -316.9292
v  19.6850 188.9764 316.9291
v  19.6850 196.8505 316.9291
v  -19.6851 196.8505 316.9291
v  -19.6851 188.9764 316.9291
v  19.6850 196.8505 312.9921
v  -19.6851 196.8505 312.9921
v  19.6850 188.9764 312.9921
v  -19.6851 188.9764 312.9921
v  19.6850 70.8662 316.9291
v  19.6850 78.7402 316.9291
v  -19.6851 78.7402 316.9291
v  -19.6851 70.8662 316.9291
v  19.6850 78.7402 312.9921
v  -19.6851 78.7402 312.9921
v  19.6850 70.8662 312.9921
v  -19.6851 70.8662 312.9921
v  24.6063 7.8740 -322.8347
v  24.6063 7.8740 -307.0866
v  24.6063 -0.0001 -307.0866
v  24.6063 -0.0001 -322.8347
v  14.7638 7.8740 -307.0866
v  14.7638 -0.0001 -307.0866
v  14.7638 7.8740 -322.8347
v  14.7638 -0.0001 -322.8347
v  -14.7637 7.8740 -322.8347
v  -14.7637 7.8740 -307.0866
v  -14.7637 -0.0001 -307.0866
v  -14.7637 -0.0001 -322.8347
v  -24.6063 7.8740 -307.0866
v  -24.6063 -0.0001 -307.0866
v  -24.6063 7.8740 -322.8347
v  -24.6063 -0.0001 -322.8347
v  -14.7638 7.8741 307.0866
v  -14.7638 7.8741 322.8347
v  -14.7638 0.0001 322.8347
v  -14.7638 0.0001 307.0866
v  -24.6063 7.8741 322.8347
v  -24.6063 0.0001 322.8347
v  -24.6063 7.8741 307.0866
v  -24.6063 0.0001 307.0866
v  24.6063 7.8741 307.0866
v  24.6063 7.8741 322.8347
v  24.6063 0.0001 322.8347
v  24.6063 0.0001 307.0866
v  14.7637 7.8741 322.8347
v  14.7637 0.0001 322.8347
v  14.7637 7.8741 307.0866
v  14.7637 0.0001 307.0866
# 640 vertices

vn 1.0000 0.0000 0.0000
vn 0.0000 0.0000 1.0000
vn -1.0000 -0.0000 -0.0000
vn 0.0000 -0.0000 -1.0000
vn 0.0000 -1.0000 0.0000
vn 0.0000 1.0000 -0.0000
vn 1.0000 -0.0000 0.0000
vn 0.0000 0.7071 0.7071
vn 0.0000 -0.7071 -0.7071
vn 0.0000 -0.7071 0.7071
vn 0.0000 0.7071 -0.7071
vn -1.0000 0.0000 -0.0000
vn -0.0000 0.7071 0.7071
vn 0.7071 0.0000 0.7071
vn -0.7071 -0.0000 -0.7071
vn -0.7071 0.0000 0.7071
vn 0.7071 0.0000 -0.7071
vn -0.0000 -1.0000 -0.0000
vn 0.0000 1.0000 0.0000
vn 0.7071 -0.0000 -0.7071
vn -0.7071 0.0000 -0.7071
vn -0.7071 -0.0000 0.7071
vn 0.0000 -1.0000 -0.0000
vn -0.0000 1.0000 0.0000
vn 1.0000 0.0000 -0.0000
# 25 vertex normals

vt 0.4012 0.1674 0.0000
vt 0.4512 0.1674 0.0000
vt 0.4512 0.2174 0.0000
vt 0.4012 0.2174 0.0000
# 4 texture coords

g SPW_Urban_Train_Station_Props_02
usemtl SPW_Urban_Train_Station
s off
f 1/1/1 2/2/1 3/3/1 4/4/1 
f 2/1/2 5/2/2 6/3/2 3/4/2 
f 5/1/3 7/2/3 8/3/3 6/4/3 
f 7/1/4 1/2/4 4/3/4 8/4/4 
f 4/1/5 3/2/5 6/3/5 8/4/5 
f 7/1/6 5/2/6 2/3/6 1/4/6 
f 9/1/1 10/2/1 11/3/1 12/4/1 
f 10/1/2 13/2/2 14/3/2 11/4/2 
f 13/1/3 15/2/3 16/3/3 14/4/3 
f 15/1/4 9/2/4 12/3/4 16/4/4 
f 12/1/5 11/2/5 14/3/5 16/4/5 
f 15/1/6 13/2/6 10/3/6 9/4/6 
f 17/1/1 18/2/1 19/3/1 20/4/1 
f 18/1/6 21/2/6 22/3/6 19/4/6 
f 21/1/3 23/2/3 24/3/3 22/4/3 
f 23/1/5 17/2/5 20/3/5 24/4/5 
f 20/1/2 19/2/2 22/3/2 24/4/2 
f 23/1/4 21/2/4 18/3/4 17/4/4 
f 25/1/1 26/2/1 27/3/1 28/4/1 
f 26/1/2 29/2/2 30/3/2 27/4/2 
f 29/1/3 31/2/3 32/3/3 30/4/3 
f 31/1/4 25/2/4 28/3/4 32/4/4 
f 28/1/5 27/2/5 30/3/5 32/4/5 
f 31/1/6 29/2/6 26/3/6 25/4/6 
f 33/1/1 34/2/1 35/3/1 36/4/1 
f 34/1/6 37/2/6 38/3/6 35/4/6 
f 37/1/3 39/2/3 40/3/3 38/4/3 
f 39/1/5 33/2/5 36/3/5 40/4/5 
f 36/1/2 35/2/2 38/3/2 40/4/2 
f 39/1/4 37/2/4 34/3/4 33/4/4 
f 41/1/7 42/2/7 43/3/7 44/4/7 
f 42/1/8 45/2/8 46/3/8 43/4/8 
f 45/1/3 47/2/3 48/3/3 46/4/3 
f 47/1/9 41/2/9 44/3/9 48/4/9 
f 44/1/10 43/2/10 46/3/10 48/4/10 
f 47/1/11 45/2/11 42/3/11 41/4/11 
f 49/1/1 50/2/1 51/3/1 52/4/1 
f 50/1/10 53/2/10 54/3/10 51/4/10 
f 53/1/12 55/2/12 56/3/12 54/4/12 
f 55/1/11 49/2/11 52/3/11 56/4/11 
f 52/1/9 51/2/9 54/3/9 56/4/9 
f 55/1/8 53/2/8 50/3/8 49/4/8 
f 57/1/1 58/2/1 59/3/1 60/4/1 
f 58/1/10 61/2/10 62/3/10 59/4/10 
f 61/1/12 63/2/12 64/3/12 62/4/12 
f 63/1/11 57/2/11 60/3/11 64/4/11 
f 60/1/9 59/2/9 62/3/9 64/4/9 
f 63/1/8 61/2/8 58/3/8 57/4/8 
f 65/1/1 66/2/1 67/3/1 68/4/1 
f 66/1/8 69/2/8 70/3/8 67/4/8 
f 69/1/3 71/2/3 72/3/3 70/4/3 
f 71/1/9 65/2/9 68/3/9 72/4/9 
f 68/1/10 67/2/10 70/3/10 72/4/10 
f 71/1/11 69/2/11 66/3/11 65/4/11 
f 73/1/1 74/2/1 75/3/1 76/4/1 
f 74/1/8 77/2/8 78/3/8 75/4/8 
f 77/1/3 79/2/3 80/3/3 78/4/3 
f 79/1/9 73/2/9 76/3/9 80/4/9 
f 76/1/10 75/2/10 78/3/10 80/4/10 
f 79/1/11 77/2/11 74/3/11 73/4/11 
f 81/1/1 82/2/1 83/3/1 84/4/1 
f 82/1/10 85/2/10 86/3/10 83/4/10 
f 85/1/3 87/2/3 88/3/3 86/4/3 
f 87/1/11 81/2/11 84/3/11 88/4/11 
f 84/1/9 83/2/9 86/3/9 88/4/9 
f 87/1/8 85/2/8 82/3/8 81/4/8 
f 89/1/1 90/2/1 91/3/1 92/4/1 
f 90/1/10 93/2/10 94/3/10 91/4/10 
f 93/1/12 95/2/12 96/3/12 94/4/12 
f 95/1/11 89/2/11 92/3/11 96/4/11 
f 92/1/9 91/2/9 94/3/9 96/4/9 
f 95/1/13 93/2/13 90/3/13 89/4/13 
f 97/1/7 98/2/7 99/3/7 100/4/7 
f 98/1/8 101/2/8 102/3/8 99/4/8 
f 101/1/3 103/2/3 104/3/3 102/4/3 
f 103/1/9 97/2/9 100/3/9 104/4/9 
f 100/1/10 99/2/10 102/3/10 104/4/10 
f 103/1/11 101/2/11 98/3/11 97/4/11 
f 105/1/7 106/2/7 107/3/7 108/4/7 
f 106/1/8 109/2/8 110/3/8 107/4/8 
f 109/1/12 111/2/12 112/3/12 110/4/12 
f 111/1/9 105/2/9 108/3/9 112/4/9 
f 108/1/10 107/2/10 110/3/10 112/4/10 
f 111/1/11 109/2/11 106/3/11 105/4/11 
f 113/1/7 114/2/7 115/3/7 116/4/7 
f 114/1/10 117/2/10 118/3/10 115/4/10 
f 117/1/12 119/2/12 120/3/12 118/4/12 
f 119/1/11 113/2/11 116/3/11 120/4/11 
f 116/1/9 115/2/9 118/3/9 120/4/9 
f 119/1/8 117/2/8 114/3/8 113/4/8 
f 121/1/7 122/2/7 123/3/7 124/4/7 
f 122/1/10 125/2/10 126/3/10 123/4/10 
f 125/1/12 127/2/12 128/3/12 126/4/12 
f 127/1/11 121/2/11 124/3/11 128/4/11 
f 124/1/9 123/2/9 126/3/9 128/4/9 
f 127/1/8 125/2/8 122/3/8 121/4/8 
f 129/1/7 130/2/7 131/3/7 132/4/7 
f 130/1/8 133/2/8 134/3/8 131/4/8 
f 133/1/3 135/2/3 136/3/3 134/4/3 
f 135/1/9 129/2/9 132/3/9 136/4/9 
f 132/1/10 131/2/10 134/3/10 136/4/10 
f 135/1/11 133/2/11 130/3/11 129/4/11 
f 137/1/7 138/2/7 139/3/7 140/4/7 
f 138/1/8 141/2/8 142/3/8 139/4/8 
f 141/1/3 143/2/3 144/3/3 142/4/3 
f 143/1/9 137/2/9 140/3/9 144/4/9 
f 140/1/10 139/2/10 142/3/10 144/4/10 
f 143/1/11 141/2/11 138/3/11 137/4/11 
f 145/1/1 146/2/1 147/3/1 148/4/1 
f 146/1/10 149/2/10 150/3/10 147/4/10 
f 149/1/12 151/2/12 152/3/12 150/4/12 
f 151/1/11 145/2/11 148/3/11 152/4/11 
f 148/1/9 147/2/9 150/3/9 152/4/9 
f 151/1/8 149/2/8 146/3/8 145/4/8 
f 153/1/7 154/2/7 155/3/7 156/4/7 
f 154/1/10 157/2/10 158/3/10 155/4/10 
f 157/1/3 159/2/3 160/3/3 158/4/3 
f 159/1/11 153/2/11 156/3/11 160/4/11 
f 156/1/9 155/2/9 158/3/9 160/4/9 
f 159/1/8 157/2/8 154/3/8 153/4/8 
f 161/1/1 162/2/1 163/3/1 164/4/1 
f 162/1/8 165/2/8 166/3/8 163/4/8 
f 165/1/12 167/2/12 168/3/12 166/4/12 
f 167/1/9 161/2/9 164/3/9 168/4/9 
f 164/1/10 163/2/10 166/3/10 168/4/10 
f 167/1/11 165/2/11 162/3/11 161/4/11 
f 169/1/1 170/2/1 171/3/1 172/4/1 
f 170/1/8 173/2/8 174/3/8 171/4/8 
f 173/1/12 175/2/12 176/3/12 174/4/12 
f 175/1/9 169/2/9 172/3/9 176/4/9 
f 172/1/10 171/2/10 174/3/10 176/4/10 
f 175/1/11 173/2/11 170/3/11 169/4/11 
f 177/1/7 178/2/7 179/3/7 180/4/7 
f 178/1/10 181/2/10 182/3/10 179/4/10 
f 181/1/12 183/2/12 184/3/12 182/4/12 
f 183/1/11 177/2/11 180/3/11 184/4/11 
f 180/1/9 179/2/9 182/3/9 184/4/9 
f 183/1/8 181/2/8 178/3/8 177/4/8 
f 185/1/7 186/2/7 187/3/7 188/4/7 
f 186/1/10 189/2/10 190/3/10 187/4/10 
f 189/1/12 191/2/12 192/3/12 190/4/12 
f 191/1/11 185/2/11 188/3/11 192/4/11 
f 188/1/9 187/2/9 190/3/9 192/4/9 
f 191/1/8 189/2/8 186/3/8 185/4/8 
f 193/1/7 194/2/7 195/3/7 196/4/7 
f 194/1/8 197/2/8 198/3/8 195/4/8 
f 197/1/12 199/2/12 200/3/12 198/4/12 
f 199/1/9 193/2/9 196/3/9 200/4/9 
f 196/1/10 195/2/10 198/3/10 200/4/10 
f 199/1/11 197/2/11 194/3/11 193/4/11 
f 201/1/1 202/2/1 203/3/1 204/4/1 
f 202/1/8 205/2/8 206/3/8 203/4/8 
f 205/1/12 207/2/12 208/3/12 206/4/12 
f 207/1/9 201/2/9 204/3/9 208/4/9 
f 204/1/10 203/2/10 206/3/10 208/4/10 
f 207/1/11 205/2/11 202/3/11 201/4/11 
f 209/1/7 210/2/7 211/3/7 212/4/7 
f 210/1/10 213/2/10 214/3/10 211/4/10 
f 213/1/3 215/2/3 216/3/3 214/4/3 
f 215/1/11 209/2/11 212/3/11 216/4/11 
f 212/1/9 211/2/9 214/3/9 216/4/9 
f 215/1/13 213/2/13 210/3/13 209/4/13 
f 217/1/1 218/2/1 219/3/1 220/4/1 
f 218/1/10 221/2/10 222/3/10 219/4/10 
f 221/1/3 223/2/3 224/3/3 222/4/3 
f 223/1/11 217/2/11 220/3/11 224/4/11 
f 220/1/9 219/2/9 222/3/9 224/4/9 
f 223/1/8 221/2/8 218/3/8 217/4/8 
f 225/1/1 226/2/1 227/3/1 228/4/1 
f 226/1/8 229/2/8 230/3/8 227/4/8 
f 229/1/3 231/2/3 232/3/3 230/4/3 
f 231/1/9 225/2/9 228/3/9 232/4/9 
f 228/1/10 227/2/10 230/3/10 232/4/10 
f 231/1/11 229/2/11 226/3/11 225/4/11 
f 233/1/1 234/2/1 235/3/1 236/4/1 
f 234/1/8 237/2/8 238/3/8 235/4/8 
f 237/1/3 239/2/3 240/3/3 238/4/3 
f 239/1/9 233/2/9 236/3/9 240/4/9 
f 236/1/10 235/2/10 238/3/10 240/4/10 
f 239/1/11 237/2/11 234/3/11 233/4/11 
f 241/1/7 242/2/7 243/3/7 244/4/7 
f 242/1/10 245/2/10 246/3/10 243/4/10 
f 245/1/3 247/2/3 248/3/3 246/4/3 
f 247/1/11 241/2/11 244/3/11 248/4/11 
f 244/1/9 243/2/9 246/3/9 248/4/9 
f 247/1/8 245/2/8 242/3/8 241/4/8 
f 249/1/7 250/2/7 251/3/7 252/4/7 
f 250/1/10 253/2/10 254/3/10 251/4/10 
f 253/1/3 255/2/3 256/3/3 254/4/3 
f 255/1/11 249/2/11 252/3/11 256/4/11 
f 252/1/9 251/2/9 254/3/9 256/4/9 
f 255/1/8 253/2/8 250/3/8 249/4/8 
f 257/1/1 258/2/1 259/3/1 260/4/1 
f 258/1/8 261/2/8 262/3/8 259/4/8 
f 261/1/12 263/2/12 264/3/12 262/4/12 
f 263/1/9 257/2/9 260/3/9 264/4/9 
f 260/1/10 259/2/10 262/3/10 264/4/10 
f 263/1/11 261/2/11 258/3/11 257/4/11 
f 265/1/1 266/2/1 267/3/1 268/4/1 
f 266/1/6 269/2/6 270/3/6 267/4/6 
f 269/1/3 271/2/3 272/3/3 270/4/3 
f 271/1/5 265/2/5 268/3/5 272/4/5 
f 268/1/2 267/2/2 270/3/2 272/4/2 
f 271/1/4 269/2/4 266/3/4 265/4/4 
f 273/1/1 274/2/1 275/3/1 276/4/1 
f 274/1/2 277/2/2 278/3/2 275/4/2 
f 277/1/3 279/2/3 280/3/3 278/4/3 
f 279/1/4 273/2/4 276/3/4 280/4/4 
f 276/1/5 275/2/5 278/3/5 280/4/5 
f 279/1/6 277/2/6 274/3/6 273/4/6 
f 281/1/1 282/2/1 283/3/1 284/4/1 
f 282/1/6 285/2/6 286/3/6 283/4/6 
f 285/1/3 287/2/3 288/3/3 286/4/3 
f 287/1/5 281/2/5 284/3/5 288/4/5 
f 284/1/2 283/2/2 286/3/2 288/4/2 
f 287/1/4 285/2/4 282/3/4 281/4/4 
f 289/1/1 290/2/1 291/3/1 292/4/1 
f 290/1/10 293/2/10 294/3/10 291/4/10 
f 293/1/3 295/2/3 296/3/3 294/4/3 
f 295/1/11 289/2/11 292/3/11 296/4/11 
f 292/1/9 291/2/9 294/3/9 296/4/9 
f 295/1/8 293/2/8 290/3/8 289/4/8 
f 297/1/1 298/2/1 299/3/1 300/4/1 
f 298/1/10 301/2/10 302/3/10 299/4/10 
f 301/1/3 303/2/3 304/3/3 302/4/3 
f 303/1/11 297/2/11 300/3/11 304/4/11 
f 300/1/9 299/2/9 302/3/9 304/4/9 
f 303/1/8 301/2/8 298/3/8 297/4/8 
f 305/1/7 306/2/7 307/3/7 308/4/7 
f 306/1/8 309/2/8 310/3/8 307/4/8 
f 309/1/12 311/2/12 312/3/12 310/4/12 
f 311/1/9 305/2/9 308/3/9 312/4/9 
f 308/1/10 307/2/10 310/3/10 312/4/10 
f 311/1/11 309/2/11 306/3/11 305/4/11 
f 313/1/7 314/2/7 315/3/7 316/4/7 
f 314/1/8 317/2/8 318/3/8 315/4/8 
f 317/1/12 319/2/12 320/3/12 318/4/12 
f 319/1/9 313/2/9 316/3/9 320/4/9 
f 316/1/10 315/2/10 318/3/10 320/4/10 
f 319/1/11 317/2/11 314/3/11 313/4/11 
f 321/1/5 322/2/5 323/3/5 324/4/5 
f 322/1/14 325/2/14 326/3/14 323/4/14 
f 325/1/6 327/2/6 328/3/6 326/4/6 
f 327/1/15 321/2/15 324/3/15 328/4/15 
f 324/1/16 323/2/16 326/3/16 328/4/16 
f 327/1/17 325/2/17 322/3/17 321/4/17 
f 329/1/18 330/2/18 331/3/18 332/4/18 
f 330/1/16 333/2/16 334/3/16 331/4/16 
f 333/1/19 335/2/19 336/3/19 334/4/19 
f 335/1/20 329/2/20 332/3/20 336/4/20 
f 332/1/15 331/2/15 334/3/15 336/4/15 
f 335/1/14 333/2/14 330/3/14 329/4/14 
f 337/1/5 338/2/5 339/3/5 340/4/5 
f 338/1/16 341/2/16 342/3/16 339/4/16 
f 341/1/6 343/2/6 344/3/6 342/4/6 
f 343/1/20 337/2/20 340/3/20 344/4/20 
f 340/1/15 339/2/15 342/3/15 344/4/15 
f 343/1/14 341/2/14 338/3/14 337/4/14 
f 345/1/5 346/2/5 347/3/5 348/4/5 
f 346/1/14 349/2/14 350/3/14 347/4/14 
f 349/1/6 351/2/6 352/3/6 350/4/6 
f 351/1/15 345/2/15 348/3/15 352/4/15 
f 348/1/16 347/2/16 350/3/16 352/4/16 
f 351/1/17 349/2/17 346/3/17 345/4/17 
f 353/1/5 354/2/5 355/3/5 356/4/5 
f 354/1/14 357/2/14 358/3/14 355/4/14 
f 357/1/6 359/2/6 360/3/6 358/4/6 
f 359/1/15 353/2/15 356/3/15 360/4/15 
f 356/1/16 355/2/16 358/3/16 360/4/16 
f 359/1/20 357/2/20 354/3/20 353/4/20 
f 361/1/5 362/2/5 363/3/5 364/4/5 
f 362/1/16 365/2/16 366/3/16 363/4/16 
f 365/1/6 367/2/6 368/3/6 366/4/6 
f 367/1/17 361/2/17 364/3/17 368/4/17 
f 364/1/21 363/2/21 366/3/21 368/4/21 
f 367/1/14 365/2/14 362/3/14 361/4/14 
f 369/1/5 370/2/5 371/3/5 372/4/5 
f 370/1/16 373/2/16 374/3/16 371/4/16 
f 373/1/6 375/2/6 376/3/6 374/4/6 
f 375/1/17 369/2/17 372/3/17 376/4/17 
f 372/1/21 371/2/21 374/3/21 376/4/21 
f 375/1/14 373/2/14 370/3/14 369/4/14 
f 377/1/5 378/2/5 379/3/5 380/4/5 
f 378/1/14 381/2/14 382/3/14 379/4/14 
f 381/1/6 383/2/6 384/3/6 382/4/6 
f 383/1/21 377/2/21 380/3/21 384/4/21 
f 380/1/22 379/2/22 382/3/22 384/4/22 
f 383/1/17 381/2/17 378/3/17 377/4/17 
f 385/1/5 386/2/5 387/3/5 388/4/5 
f 386/1/14 389/2/14 390/3/14 387/4/14 
f 389/1/6 391/2/6 392/3/6 390/4/6 
f 391/1/21 385/2/21 388/3/21 392/4/21 
f 388/1/22 387/2/22 390/3/22 392/4/22 
f 391/1/20 389/2/20 386/3/20 385/4/20 
f 393/1/5 394/2/5 395/3/5 396/4/5 
f 394/1/16 397/2/16 398/3/16 395/4/16 
f 397/1/6 399/2/6 400/3/6 398/4/6 
f 399/1/20 393/2/20 396/3/20 400/4/20 
f 396/1/15 395/2/15 398/3/15 400/4/15 
f 399/1/14 397/2/14 394/3/14 393/4/14 
f 401/1/5 402/2/5 403/3/5 404/4/5 
f 402/1/16 405/2/16 406/3/16 403/4/16 
f 405/1/6 407/2/6 408/3/6 406/4/6 
f 407/1/20 401/2/20 404/3/20 408/4/20 
f 404/1/15 403/2/15 406/3/15 408/4/15 
f 407/1/14 405/2/14 402/3/14 401/4/14 
f 409/1/5 410/2/5 411/3/5 412/4/5 
f 410/1/14 413/2/14 414/3/14 411/4/14 
f 413/1/6 415/2/6 416/3/6 414/4/6 
f 415/1/15 409/2/15 412/3/15 416/4/15 
f 412/1/16 411/2/16 414/3/16 416/4/16 
f 415/1/17 413/2/17 410/3/17 409/4/17 
f 417/1/23 418/2/23 419/3/23 420/4/23 
f 418/1/14 421/2/14 422/3/14 419/4/14 
f 421/1/24 423/2/24 424/3/24 422/4/24 
f 423/1/15 417/2/15 420/3/15 424/4/15 
f 420/1/16 419/2/16 422/3/16 424/4/16 
f 423/1/17 421/2/17 418/3/17 417/4/17 
f 425/1/5 426/2/5 427/3/5 428/4/5 
f 426/1/16 429/2/16 430/3/16 427/4/16 
f 429/1/6 431/2/6 432/3/6 430/4/6 
f 431/1/20 425/2/20 428/3/20 432/4/20 
f 428/1/15 427/2/15 430/3/15 432/4/15 
f 431/1/14 429/2/14 426/3/14 425/4/14 
f 433/1/5 434/2/5 435/3/5 436/4/5 
f 434/1/16 437/2/16 438/3/16 435/4/16 
f 437/1/6 439/2/6 440/3/6 438/4/6 
f 439/1/20 433/2/20 436/3/20 440/4/20 
f 436/1/15 435/2/15 438/3/15 440/4/15 
f 439/1/14 437/2/14 434/3/14 433/4/14 
f 441/1/5 442/2/5 443/3/5 444/4/5 
f 442/1/14 445/2/14 446/3/14 443/4/14 
f 445/1/6 447/2/6 448/3/6 446/4/6 
f 447/1/15 441/2/15 444/3/15 448/4/15 
f 444/1/16 443/2/16 446/3/16 448/4/16 
f 447/1/17 445/2/17 442/3/17 441/4/17 
f 449/1/5 450/2/5 451/3/5 452/4/5 
f 450/1/14 453/2/14 454/3/14 451/4/14 
f 453/1/6 455/2/6 456/3/6 454/4/6 
f 455/1/15 449/2/15 452/3/15 456/4/15 
f 452/1/16 451/2/16 454/3/16 456/4/16 
f 455/1/17 453/2/17 450/3/17 449/4/17 
f 457/1/18 458/2/18 459/3/18 460/4/18 
f 458/1/16 461/2/16 462/3/16 459/4/16 
f 461/1/19 463/2/19 464/3/19 462/4/19 
f 463/1/20 457/2/20 460/3/20 464/4/20 
f 460/1/15 459/2/15 462/3/15 464/4/15 
f 463/1/14 461/2/14 458/3/14 457/4/14 
f 465/1/18 466/2/18 467/3/18 468/4/18 
f 466/1/16 469/2/16 470/3/16 467/4/16 
f 469/1/19 471/2/19 472/3/19 470/4/19 
f 471/1/20 465/2/20 468/3/20 472/4/20 
f 468/1/15 467/2/15 470/3/15 472/4/15 
f 471/1/14 469/2/14 466/3/14 465/4/14 
f 473/1/5 474/2/5 475/3/5 476/4/5 
f 474/1/14 477/2/14 478/3/14 475/4/14 
f 477/1/6 479/2/6 480/3/6 478/4/6 
f 479/1/15 473/2/15 476/3/15 480/4/15 
f 476/1/16 475/2/16 478/3/16 480/4/16 
f 479/1/20 477/2/20 474/3/20 473/4/20 
f 481/1/5 482/2/5 483/3/5 484/4/5 
f 482/1/14 485/2/14 486/3/14 483/4/14 
f 485/1/6 487/2/6 488/3/6 486/4/6 
f 487/1/15 481/2/15 484/3/15 488/4/15 
f 484/1/16 483/2/16 486/3/16 488/4/16 
f 487/1/17 485/2/17 482/3/17 481/4/17 
f 489/1/5 490/2/5 491/3/5 492/4/5 
f 490/1/16 493/2/16 494/3/16 491/4/16 
f 493/1/6 495/2/6 496/3/6 494/4/6 
f 495/1/20 489/2/20 492/3/20 496/4/20 
f 492/1/15 491/2/15 494/3/15 496/4/15 
f 495/1/14 493/2/14 490/3/14 489/4/14 
f 497/1/5 498/2/5 499/3/5 500/4/5 
f 498/1/16 501/2/16 502/3/16 499/4/16 
f 501/1/6 503/2/6 504/3/6 502/4/6 
f 503/1/20 497/2/20 500/3/20 504/4/20 
f 500/1/15 499/2/15 502/3/15 504/4/15 
f 503/1/14 501/2/14 498/3/14 497/4/14 
f 505/1/23 506/2/23 507/3/23 508/4/23 
f 506/1/14 509/2/14 510/3/14 507/4/14 
f 509/1/24 511/2/24 512/3/24 510/4/24 
f 511/1/15 505/2/15 508/3/15 512/4/15 
f 508/1/16 507/2/16 510/3/16 512/4/16 
f 511/1/20 509/2/20 506/3/20 505/4/20 
f 513/1/23 514/2/23 515/3/23 516/4/23 
f 514/1/14 517/2/14 518/3/14 515/4/14 
f 517/1/24 519/2/24 520/3/24 518/4/24 
f 519/1/15 513/2/15 516/3/15 520/4/15 
f 516/1/16 515/2/16 518/3/16 520/4/16 
f 519/1/17 517/2/17 514/3/17 513/4/17 
f 521/1/5 522/2/5 523/3/5 524/4/5 
f 522/1/16 525/2/16 526/3/16 523/4/16 
f 525/1/6 527/2/6 528/3/6 526/4/6 
f 527/1/20 521/2/20 524/3/20 528/4/20 
f 524/1/15 523/2/15 526/3/15 528/4/15 
f 527/1/14 525/2/14 522/3/14 521/4/14 
f 529/1/5 530/2/5 531/3/5 532/4/5 
f 530/1/16 533/2/16 534/3/16 531/4/16 
f 533/1/6 535/2/6 536/3/6 534/4/6 
f 535/1/20 529/2/20 532/3/20 536/4/20 
f 532/1/15 531/2/15 534/3/15 536/4/15 
f 535/1/14 533/2/14 530/3/14 529/4/14 
f 537/1/5 538/2/5 539/3/5 540/4/5 
f 538/1/14 541/2/14 542/3/14 539/4/14 
f 541/1/6 543/2/6 544/3/6 542/4/6 
f 543/1/15 537/2/15 540/3/15 544/4/15 
f 540/1/16 539/2/16 542/3/16 544/4/16 
f 543/1/17 541/2/17 538/3/17 537/4/17 
f 545/1/2 546/2/2 547/3/2 548/4/2 
f 546/1/6 549/2/6 550/3/6 547/4/6 
f 549/1/4 551/2/4 552/3/4 550/4/4 
f 551/1/5 545/2/5 548/3/5 552/4/5 
f 548/1/12 547/2/12 550/3/12 552/4/12 
f 551/1/1 549/2/1 546/3/1 545/4/1 
f 553/1/2 554/2/2 555/3/2 556/4/2 
f 554/1/6 557/2/6 558/3/6 555/4/6 
f 557/1/4 559/2/4 560/3/4 558/4/4 
f 559/1/5 553/2/5 556/3/5 560/4/5 
f 556/1/3 555/2/3 558/3/3 560/4/3 
f 559/1/25 557/2/25 554/3/25 553/4/25 
f 561/1/2 562/2/2 563/3/2 564/4/2 
f 562/1/6 565/2/6 566/3/6 563/4/6 
f 565/1/4 567/2/4 568/3/4 566/4/4 
f 567/1/5 561/2/5 564/3/5 568/4/5 
f 564/1/3 563/2/3 566/3/3 568/4/3 
f 567/1/25 565/2/25 562/3/25 561/4/25 
f 569/1/2 570/2/2 571/3/2 572/4/2 
f 570/1/6 573/2/6 574/3/6 571/4/6 
f 573/1/4 575/2/4 576/3/4 574/4/4 
f 575/1/5 569/2/5 572/3/5 576/4/5 
f 572/1/12 571/2/12 574/3/12 576/4/12 
f 575/1/1 573/2/1 570/3/1 569/4/1 
f 577/1/2 578/2/2 579/3/2 580/4/2 
f 578/1/6 581/2/6 582/3/6 579/4/6 
f 581/1/4 583/2/4 584/3/4 582/4/4 
f 583/1/5 577/2/5 580/3/5 584/4/5 
f 580/1/3 579/2/3 582/3/3 584/4/3 
f 583/1/25 581/2/25 578/3/25 577/4/25 
f 585/1/2 586/2/2 587/3/2 588/4/2 
f 586/1/6 589/2/6 590/3/6 587/4/6 
f 589/1/4 591/2/4 592/3/4 590/4/4 
f 591/1/5 585/2/5 588/3/5 592/4/5 
f 588/1/3 587/2/3 590/3/3 592/4/3 
f 591/1/25 589/2/25 586/3/25 585/4/25 
f 593/1/2 594/2/2 595/3/2 596/4/2 
f 594/1/6 597/2/6 598/3/6 595/4/6 
f 597/1/4 599/2/4 600/3/4 598/4/4 
f 599/1/5 593/2/5 596/3/5 600/4/5 
f 596/1/12 595/2/12 598/3/12 600/4/12 
f 599/1/1 597/2/1 594/3/1 593/4/1 
f 601/1/2 602/2/2 603/3/2 604/4/2 
f 602/1/6 605/2/6 606/3/6 603/4/6 
f 605/1/4 607/2/4 608/3/4 606/4/4 
f 607/1/5 601/2/5 604/3/5 608/4/5 
f 604/1/12 603/2/12 606/3/12 608/4/12 
f 607/1/1 605/2/1 602/3/1 601/4/1 
f 609/1/1 610/2/1 611/3/1 612/4/1 
f 610/1/2 613/2/2 614/3/2 611/4/2 
f 613/1/3 615/2/3 616/3/3 614/4/3 
f 615/1/4 609/2/4 612/3/4 616/4/4 
f 612/1/5 611/2/5 614/3/5 616/4/5 
f 615/1/6 613/2/6 610/3/6 609/4/6 
f 617/1/1 618/2/1 619/3/1 620/4/1 
f 618/1/2 621/2/2 622/3/2 619/4/2 
f 621/1/3 623/2/3 624/3/3 622/4/3 
f 623/1/4 617/2/4 620/3/4 624/4/4 
f 620/1/5 619/2/5 622/3/5 624/4/5 
f 623/1/6 621/2/6 618/3/6 617/4/6 
f 625/1/1 626/2/1 627/3/1 628/4/1 
f 626/1/2 629/2/2 630/3/2 627/4/2 
f 629/1/3 631/2/3 632/3/3 630/4/3 
f 631/1/4 625/2/4 628/3/4 632/4/4 
f 628/1/5 627/2/5 630/3/5 632/4/5 
f 631/1/6 629/2/6 626/3/6 625/4/6 
f 633/1/1 634/2/1 635/3/1 636/4/1 
f 634/1/2 637/2/2 638/3/2 635/4/2 
f 637/1/3 639/2/3 640/3/3 638/4/3 
f 639/1/4 633/2/4 636/3/4 640/4/4 
f 636/1/5 635/2/5 638/3/5 640/4/5 
f 639/1/6 637/2/6 634/3/6 633/4/6 
# 480 polygons

