# 3ds Max Wavefront OBJ Exporter v0.97b - (c)2007 guruware
# File Created: 15.03.2017 11:48:23

mtllib SPW_Urban_Train Station_Platform Sign_02.mtl

#
# object SPW_Urban_Train_Station_Platform_Sign_02
#

v  1.2598 70.8698 -15.7481
v  1.2598 70.8698 15.7480
v  1.2598 55.1218 15.7480
v  1.2598 55.1217 -15.7481
v  -1.2598 70.8698 15.7480
v  -1.2598 55.1218 15.7480
v  -1.2598 70.8698 -15.7481
v  -1.2598 55.1217 -15.7481
v  2.3180 125.9879 -53.5434
v  2.3180 125.9879 -6.2993
v  2.3180 124.4252 -7.9078
v  2.3180 124.4252 -51.9349
v  -2.3180 125.9879 -53.5434
v  -2.3180 125.9879 -6.2993
v  -2.3180 103.9407 -6.2993
v  -2.3180 124.4260 -7.9082
v  -2.3180 105.5026 -7.9082
v  -2.3180 103.9407 -51.9686
v  2.3180 103.9407 -51.9686
v  2.3180 103.9407 -6.2993
v  2.3180 105.5034 -7.9078
v  2.0862 105.5034 -7.9078
v  2.0862 124.4252 -7.9078
v  2.3180 105.5034 -50.3601
v  2.0862 105.5034 -50.3601
v  2.0862 124.4252 -51.9349
v  -2.3180 124.4260 -51.9344
v  -2.0862 124.4260 -51.9344
v  -2.0862 124.4260 -7.9082
v  -2.3180 105.5026 -50.3596
v  -2.0862 105.5026 -50.3596
v  -2.0862 105.5026 -7.9082
v  -2.3180 125.9879 53.5433
v  -2.3180 125.9879 6.2992
v  -2.3180 124.4252 7.9077
v  -2.3180 124.4252 51.9348
v  2.3180 125.9879 53.5433
v  2.3180 125.9879 6.2992
v  2.3180 103.9406 6.2992
v  2.3180 124.4260 7.9081
v  2.3180 105.5026 7.9081
v  2.3180 103.9407 51.9685
v  -2.3180 103.9407 51.9685
v  -2.3180 103.9406 6.2992
v  -2.3180 105.5034 7.9077
v  -2.0862 105.5034 7.9077
v  -2.0862 124.4252 7.9077
v  -2.3180 105.5034 50.3600
v  -2.0862 105.5034 50.3600
v  -2.0862 124.4252 51.9348
v  2.3180 124.4260 51.9343
v  2.0862 124.4260 51.9343
v  2.0862 124.4260 7.9081
v  2.3180 105.5026 50.3595
v  2.0862 105.5026 50.3595
v  2.0862 105.5026 7.9081
v  3.1496 125.9879 -3.1496
v  3.1496 125.9879 3.1496
v  3.1496 0.0036 3.1496
v  3.1496 0.0036 -3.1496
v  -3.1496 125.9879 3.1496
v  -3.1496 0.0036 3.1496
v  -3.1496 125.9879 -3.1496
v  -3.1496 0.0036 -3.1496
v  2.3009 112.5611 -7.5298
v  2.3009 117.2856 -7.5298
v  2.3009 117.2855 7.5298
v  2.3009 112.5611 7.5298
v  -2.3009 117.2856 -7.5298
v  -2.3009 117.2855 7.5298
v  -2.3009 112.5611 -7.5298
v  -2.3009 112.5611 7.5298
# 72 vertices

vn 1.0000 0.0000 0.0000
vn 0.0000 0.0000 1.0000
vn -1.0000 -0.0000 -0.0000
vn 0.0000 -0.0000 -1.0000
vn 0.0000 -1.0000 0.0000
vn 0.0000 1.0000 0.0000
vn 1.0000 -0.0000 0.0000
vn -1.0000 0.0000 -0.0000
vn -0.0000 0.0000 1.0000
vn 0.0000 -0.0712 -0.9975
vn 0.0000 0.0829 0.9966
vn 0.0000 -1.0000 -0.0000
vn 0.0000 1.0000 -0.0000
vn 0.0000 -0.0712 0.9975
vn -1.0000 -0.0000 0.0000
vn -0.0000 0.0829 -0.9966
vn 1.0000 0.0000 -0.0000
vn 0.0000 0.0829 -0.9966
vn -0.0000 1.0000 0.0000
# 19 vertex normals

vt 0.9907 0.5265 0.0000
vt 0.9003 0.5265 0.0000
vt 0.9003 0.4812 0.0000
vt 0.9907 0.4812 0.0000
vt 0.9913 0.5772 0.0000
vt 0.9913 0.5317 0.0000
vt 0.9003 0.5772 0.0000
vt 0.9003 0.5317 0.0000
vt 0.6842 0.2068 0.0000
vt 0.7342 0.2068 0.0000
vt 0.7342 0.2568 0.0000
vt 0.6842 0.2568 0.0000
vt 0.6944 0.6214 0.0000
vt 0.6899 0.6761 0.0000
vt 0.8171 0.6761 0.0000
vt 0.8171 0.6214 0.0000
vt 0.9855 0.6214 0.0000
vt 0.9901 0.6761 0.0000
vt 0.8628 0.6761 0.0000
vt 0.8628 0.6214 0.0000
vt 0.6866 0.2019 0.0000
vt 0.7366 0.2019 0.0000
vt 0.7366 0.2519 0.0000
vt 0.6866 0.2519 0.0000
# 24 texture coords

g SPW_Urban_Train_Station_Platform_Sign_02
usemtl SPW_Urban_Train_Station
s off
f 1/1/1 2/2/1 3/3/1 4/4/1 
f 2/5/2 5/5/2 6/6/2 3/6/2 
f 5/5/3 7/7/3 8/8/3 6/6/3 
f 7/7/4 1/7/4 4/8/4 8/8/4 
f 4/8/5 3/6/5 6/6/5 8/8/5 
f 7/7/6 5/5/6 2/5/6 1/7/6 
s 1
f 9/9/7 10/10/1 11/11/1 12/12/7 
s off
f 9/9/6 13/10/6 14/11/6 10/12/6 
s 1
f 15/9/3 14/10/8 16/11/8 17/12/3 
s off
f 18/9/5 19/10/5 20/11/5 15/12/5 
f 20/9/9 10/10/9 14/11/9 15/12/9 
f 18/9/10 13/10/10 9/11/10 19/12/10 
f 11/9/4 21/10/4 22/11/4 23/12/4 
s 1
f 20/9/7 19/10/7 24/11/7 21/12/7 
f 10/9/1 20/10/7 21/11/7 11/12/1 
f 19/9/7 9/10/7 12/11/7 24/12/7 
s off
f 25/13/1 26/14/1 23/15/1 22/16/1 
f 24/9/11 12/10/11 26/11/11 25/12/11 
f 12/9/12 11/10/12 23/11/12 26/12/12 
f 21/9/6 24/10/6 25/11/6 22/12/6 
f 16/9/12 27/10/12 28/11/12 29/12/12 
s 1
f 13/9/8 18/10/3 30/11/3 27/12/8 
f 14/9/8 13/10/8 27/11/8 16/12/8 
f 18/9/3 15/10/3 17/11/3 30/12/3 
s off
f 28/14/3 31/13/3 32/16/3 29/15/3 
f 17/9/4 16/10/4 29/11/4 32/12/4 
f 27/9/11 30/10/11 31/11/11 28/12/11 
f 30/9/13 17/10/13 32/11/13 31/12/13 
s 1
f 33/9/3 34/10/3 35/11/3 36/12/3 
s off
f 33/9/13 37/10/13 38/11/13 34/12/13 
s 1
f 39/9/1 38/10/7 40/11/7 41/12/1 
s off
f 42/9/5 43/10/5 44/11/5 39/12/5 
f 44/9/4 34/10/4 38/11/4 39/12/4 
f 42/9/14 37/10/14 33/11/14 43/12/14 
f 35/9/2 45/10/2 46/11/2 47/12/2 
s 1
f 44/9/8 43/10/15 48/11/15 45/12/8 
f 34/9/3 44/10/8 45/11/8 35/12/3 
f 43/9/15 33/10/3 36/11/3 48/12/15 
s off
f 49/17/8 50/18/8 47/19/8 46/20/8 
f 48/9/16 36/10/16 50/11/16 49/12/16 
f 36/9/5 35/10/5 47/11/5 50/12/5 
f 45/9/13 48/10/13 49/11/13 46/12/13 
f 40/9/5 51/10/5 52/11/5 53/12/5 
s 1
f 37/9/1 42/10/17 54/11/1 51/12/1 
f 38/9/7 37/10/1 51/11/1 40/12/7 
f 42/9/17 39/10/1 41/11/1 54/12/1 
s off
f 52/18/7 55/17/7 56/20/7 53/19/7 
f 41/9/2 40/10/2 53/11/2 56/12/2 
f 51/9/18 54/10/18 55/11/18 52/12/18 
f 54/9/13 41/10/13 56/11/13 55/12/13 
f 57/21/1 58/22/1 59/23/1 60/24/1 
f 58/21/9 61/22/9 62/23/9 59/24/9 
f 61/21/3 63/22/3 64/23/3 62/24/3 
f 63/21/4 57/22/4 60/23/4 64/24/4 
f 60/21/5 59/22/5 62/23/5 64/24/5 
f 63/21/13 61/22/13 58/23/13 57/24/13 
f 65/21/1 66/22/1 67/23/1 68/24/1 
f 66/21/19 69/22/19 70/23/19 67/24/19 
f 69/21/3 71/22/3 72/23/3 70/24/3 
f 71/21/12 65/22/12 68/23/12 72/24/12 
f 68/21/9 67/22/9 70/23/9 72/24/9 
f 71/21/4 69/22/4 66/23/4 65/24/4 
# 62 polygons

