# 3ds Max Wavefront OBJ Exporter v0.97b - (c)2007 guruware
# File Created: 15.03.2017 11:47:44

mtllib SPW_Urban_Train Station_Double Track Platform_01.mtl

#
# object SPW_Urban_Train_Station_Double_Track_Platform_01
#

v  393.7007 12.9051 170.2757
v  393.7007 10.8971 170.2757
v  393.7007 10.8971 168.3072
v  393.7007 11.7806 168.3072
v  393.7007 12.9051 176.1812
v  393.7007 10.8971 176.1812
v  -393.7008 10.8971 176.1810
v  393.7007 10.8971 178.1497
v  -393.7008 10.8971 178.1495
v  -393.7008 12.9050 176.1810
v  -393.7008 12.9050 170.2755
v  -393.7008 10.8971 170.2755
v  -393.7008 22.7081 176.1810
v  393.7007 22.7081 176.1812
v  393.7007 22.7081 170.2757
v  -393.7008 22.7081 170.2755
v  -393.7008 19.1102 170.2755
v  -393.7008 19.1102 176.1810
v  393.7007 19.1103 176.1812
v  393.7007 19.1103 170.2757
v  393.7007 19.1103 168.3072
v  393.7007 22.7081 168.3072
v  393.7007 19.1103 178.1497
v  -393.7008 19.1102 178.1495
v  393.7007 22.7081 178.1497
v  -393.7008 22.7081 178.1495
v  -393.7008 22.7081 168.3069
v  -393.7008 19.1102 168.3069
v  393.7007 11.7806 178.1497
v  -393.7008 11.7805 178.1495
v  -393.7008 11.7805 168.3069
v  -393.7008 10.8971 168.3069
v  -342.5197 10.8991 47.2440
v  -326.7717 10.8991 47.2440
v  -326.7717 7.6048 47.2440
v  -342.5197 7.6048 47.2440
v  -326.7717 10.8991 188.9763
v  -326.7717 7.6048 188.9763
v  -342.5197 10.8991 188.9763
v  -342.5197 7.6048 188.9763
v  -303.1496 10.8991 47.2440
v  -287.4016 10.8991 47.2440
v  -287.4016 7.6048 47.2440
v  -303.1496 7.6048 47.2440
v  -287.4016 10.8991 188.9763
v  -287.4016 7.6048 188.9763
v  -303.1497 10.8991 188.9763
v  -303.1497 7.6048 188.9763
v  -263.7795 10.8991 47.2440
v  -248.0315 10.8991 47.2440
v  -248.0315 7.6048 47.2440
v  -263.7795 7.6048 47.2440
v  -248.0316 10.8991 188.9763
v  -248.0316 7.6048 188.9763
v  -263.7796 10.8991 188.9763
v  -263.7796 7.6048 188.9763
v  -224.4094 10.8991 47.2440
v  -208.6614 10.8991 47.2440
v  -208.6614 7.6048 47.2440
v  -224.4094 7.6048 47.2440
v  -208.6615 10.8991 188.9763
v  -208.6615 7.6048 188.9763
v  -224.4095 10.8991 188.9763
v  -224.4095 7.6048 188.9763
v  -185.0394 10.8991 47.2440
v  -169.2913 10.8991 47.2440
v  -169.2913 7.6048 47.2440
v  -185.0394 7.6048 47.2440
v  -169.2914 10.8991 188.9763
v  -169.2914 7.6048 188.9763
v  -185.0394 10.8991 188.9763
v  -185.0394 7.6048 188.9763
v  -145.6693 10.8991 47.2440
v  -129.9212 10.8991 47.2440
v  -129.9212 7.6048 47.2440
v  -145.6693 7.6048 47.2440
v  -129.9213 10.8991 188.9763
v  -129.9213 7.6048 188.9763
v  -145.6693 10.8991 188.9763
v  -145.6693 7.6048 188.9763
v  -106.2992 10.8991 47.2441
v  -90.5512 10.8991 47.2441
v  -90.5512 7.6048 47.2441
v  -106.2992 7.6048 47.2441
v  -90.5512 10.8991 188.9763
v  -90.5512 7.6048 188.9763
v  -106.2993 10.8991 188.9763
v  -106.2993 7.6048 188.9763
v  -66.9291 10.8991 47.2441
v  -51.1811 10.8991 47.2441
v  -51.1811 7.6048 47.2441
v  -66.9291 7.6048 47.2441
v  -51.1811 10.8991 188.9764
v  -51.1811 7.6048 188.9764
v  -66.9292 10.8991 188.9763
v  -66.9292 7.6048 188.9763
v  -27.5590 10.8991 47.2441
v  -11.8110 10.8991 47.2441
v  -11.8110 7.6048 47.2441
v  -27.5590 7.6048 47.2441
v  -11.8111 10.8991 188.9764
v  -11.8111 7.6049 188.9764
v  -27.5591 10.8991 188.9764
v  -27.5591 7.6049 188.9764
v  366.1418 10.8991 47.2442
v  381.8898 10.8991 47.2442
v  381.8898 7.6049 47.2442
v  366.1418 7.6049 47.2442
v  381.8897 10.8992 188.9765
v  381.8897 7.6049 188.9765
v  366.1417 10.8992 188.9765
v  366.1417 7.6049 188.9765
v  326.7717 10.8991 47.2442
v  342.5197 10.8991 47.2442
v  342.5197 7.6049 47.2442
v  326.7717 7.6049 47.2442
v  342.5197 10.8992 188.9765
v  342.5197 7.6049 188.9765
v  326.7716 10.8992 188.9765
v  326.7716 7.6049 188.9765
v  287.4016 10.8991 47.2442
v  303.1496 10.8991 47.2442
v  303.1496 7.6049 47.2442
v  287.4016 7.6049 47.2442
v  303.1495 10.8992 188.9765
v  303.1495 7.6049 188.9765
v  287.4015 10.8992 188.9765
v  287.4015 7.6049 188.9765
v  248.0315 10.8991 47.2442
v  263.7796 10.8991 47.2442
v  263.7796 7.6049 47.2442
v  248.0315 7.6049 47.2442
v  263.7795 10.8992 188.9765
v  263.7795 7.6049 188.9765
v  248.0315 10.8992 188.9765
v  248.0315 7.6049 188.9765
v  208.6615 10.8991 47.2442
v  224.4095 10.8991 47.2442
v  224.4095 7.6048 47.2442
v  208.6615 7.6048 47.2442
v  224.4094 10.8992 188.9765
v  224.4094 7.6049 188.9765
v  208.6614 10.8992 188.9765
v  208.6614 7.6049 188.9765
v  169.2914 10.8991 47.2441
v  185.0394 10.8991 47.2442
v  185.0394 7.6048 47.2442
v  169.2914 7.6048 47.2441
v  185.0393 10.8992 188.9764
v  185.0393 7.6049 188.9764
v  169.2913 10.8992 188.9764
v  169.2913 7.6049 188.9764
v  129.9213 10.8991 47.2441
v  145.6693 10.8991 47.2441
v  145.6693 7.6048 47.2441
v  129.9213 7.6048 47.2441
v  145.6693 10.8992 188.9764
v  145.6693 7.6049 188.9764
v  129.9212 10.8992 188.9764
v  129.9212 7.6049 188.9764
v  90.5512 10.8991 47.2441
v  106.2992 10.8991 47.2441
v  106.2992 7.6048 47.2441
v  90.5512 7.6048 47.2441
v  106.2992 10.8991 188.9764
v  106.2992 7.6049 188.9764
v  90.5511 10.8991 188.9764
v  90.5511 7.6049 188.9764
v  51.1811 10.8991 47.2441
v  66.9291 10.8991 47.2441
v  66.9291 7.6048 47.2441
v  51.1811 7.6048 47.2441
v  66.9291 10.8991 188.9764
v  66.9291 7.6049 188.9764
v  51.1811 10.8991 188.9764
v  51.1811 7.6049 188.9764
v  11.8110 10.8991 47.2441
v  27.5591 10.8991 47.2441
v  27.5591 7.6048 47.2441
v  11.8110 7.6048 47.2441
v  27.5590 10.8991 188.9764
v  27.5590 7.6049 188.9764
v  11.8110 10.8991 188.9764
v  11.8110 7.6049 188.9764
v  393.7008 12.9051 60.0395
v  393.7008 10.8971 60.0395
v  393.7008 10.8971 58.0710
v  393.7008 11.7806 58.0710
v  393.7008 12.9051 65.9450
v  393.7008 10.8971 65.9450
v  -393.7007 10.8970 65.9447
v  393.7008 10.8971 67.9135
v  -393.7007 10.8970 67.9132
v  -393.7007 12.9050 65.9447
v  -393.7007 12.9050 60.0392
v  -393.7007 10.8970 60.0392
v  -393.7007 22.7081 65.9447
v  393.7008 22.7081 65.9450
v  393.7008 22.7081 60.0395
v  -393.7007 22.7081 60.0392
v  -393.7007 19.1102 60.0392
v  -393.7007 19.1102 65.9447
v  393.7008 19.1103 65.9450
v  393.7008 19.1103 60.0395
v  393.7008 19.1103 58.0710
v  393.7008 22.7081 58.0710
v  393.7008 19.1103 67.9135
v  -393.7007 19.1102 67.9132
v  393.7008 22.7081 67.9135
v  -393.7007 22.7081 67.9132
v  -393.7007 22.7081 58.0707
v  -393.7007 19.1102 58.0707
v  393.7008 11.7806 67.9135
v  -393.7007 11.7805 67.9132
v  -393.7007 11.7805 58.0707
v  -393.7007 10.8970 58.0707
v  -381.8897 10.8991 47.2440
v  -366.1417 10.8991 47.2440
v  -366.1417 7.6048 47.2440
v  -381.8897 7.6048 47.2440
v  -366.1418 10.8991 188.9763
v  -366.1418 7.6048 188.9763
v  -381.8898 10.8991 188.9763
v  -381.8898 7.6048 188.9763
v  393.7007 12.9051 -65.9448
v  393.7007 10.8971 -65.9448
v  393.7007 10.8971 -67.9133
v  393.7007 11.7805 -67.9133
v  393.7007 12.9051 -60.0392
v  393.7007 10.8971 -60.0392
v  -393.7008 10.8970 -60.0395
v  393.7007 10.8971 -58.0707
v  -393.7008 10.8970 -58.0710
v  -393.7008 12.9050 -60.0395
v  -393.7008 12.9050 -65.9450
v  -393.7008 10.8970 -65.9450
v  -393.7008 22.7080 -60.0395
v  393.7007 22.7081 -60.0392
v  393.7007 22.7081 -65.9448
v  -393.7008 22.7080 -65.9450
v  -393.7008 19.1102 -65.9450
v  -393.7008 19.1102 -60.0395
v  393.7007 19.1103 -60.0392
v  393.7007 19.1103 -65.9448
v  393.7007 19.1103 -67.9133
v  393.7007 22.7081 -67.9133
v  393.7007 19.1103 -58.0707
v  -393.7008 19.1102 -58.0710
v  393.7007 22.7081 -58.0707
v  -393.7008 22.7080 -58.0710
v  -393.7008 22.7080 -67.9135
v  -393.7008 19.1102 -67.9135
v  393.7007 11.7805 -58.0707
v  -393.7008 11.7805 -58.0710
v  -393.7008 11.7805 -67.9135
v  -393.7008 10.8970 -67.9135
v  -342.5197 10.8991 -188.9765
v  -326.7716 10.8991 -188.9765
v  -326.7716 7.6048 -188.9765
v  -342.5197 7.6048 -188.9765
v  -326.7717 10.8991 -47.2442
v  -326.7717 7.6048 -47.2442
v  -342.5197 10.8991 -47.2442
v  -342.5197 7.6048 -47.2442
v  -303.1495 10.8991 -188.9765
v  -287.4015 10.8991 -188.9765
v  -287.4015 7.6048 -188.9765
v  -303.1495 7.6048 -188.9765
v  -287.4016 10.8991 -47.2442
v  -287.4016 7.6048 -47.2442
v  -303.1496 10.8991 -47.2442
v  -303.1496 7.6048 -47.2442
v  -263.7795 10.8991 -188.9765
v  -248.0315 10.8991 -188.9765
v  -248.0315 7.6048 -188.9765
v  -263.7795 7.6048 -188.9765
v  -248.0315 10.8991 -47.2442
v  -248.0315 7.6048 -47.2442
v  -263.7796 10.8991 -47.2442
v  -263.7796 7.6048 -47.2442
v  -224.4094 10.8991 -188.9764
v  -208.6614 10.8991 -188.9764
v  -208.6614 7.6048 -188.9764
v  -224.4094 7.6048 -188.9764
v  -208.6615 10.8991 -47.2442
v  -208.6615 7.6048 -47.2442
v  -224.4095 10.8991 -47.2442
v  -224.4095 7.6048 -47.2442
v  -185.0393 10.8991 -188.9764
v  -169.2913 10.8991 -188.9764
v  -169.2913 7.6048 -188.9764
v  -185.0393 7.6048 -188.9764
v  -169.2914 10.8991 -47.2442
v  -169.2914 7.6048 -47.2441
v  -185.0394 10.8991 -47.2442
v  -185.0394 7.6048 -47.2442
v  -145.6693 10.8991 -188.9764
v  -129.9212 10.8991 -188.9764
v  -129.9212 7.6048 -188.9764
v  -145.6693 7.6048 -188.9764
v  -129.9213 10.8991 -47.2441
v  -129.9213 7.6048 -47.2441
v  -145.6693 10.8991 -47.2441
v  -145.6693 7.6048 -47.2441
v  -106.2992 10.8991 -188.9764
v  -90.5511 10.8991 -188.9764
v  -90.5511 7.6048 -188.9764
v  -106.2992 7.6048 -188.9764
v  -90.5512 10.8991 -47.2441
v  -90.5512 7.6048 -47.2441
v  -106.2992 10.8991 -47.2441
v  -106.2992 7.6048 -47.2441
v  -66.9291 10.8991 -188.9764
v  -51.1811 10.8991 -188.9764
v  -51.1811 7.6048 -188.9764
v  -66.9291 7.6048 -188.9764
v  -51.1811 10.8991 -47.2441
v  -51.1811 7.6048 -47.2441
v  -66.9291 10.8991 -47.2441
v  -66.9291 7.6048 -47.2441
v  -27.5590 10.8991 -188.9764
v  -11.8110 10.8991 -188.9764
v  -11.8110 7.6048 -188.9764
v  -27.5590 7.6048 -188.9764
v  -11.8110 10.8991 -47.2441
v  -11.8110 7.6048 -47.2441
v  -27.5591 10.8991 -47.2441
v  -27.5591 7.6048 -47.2441
v  366.1418 10.8991 -188.9762
v  381.8898 10.8991 -188.9762
v  381.8898 7.6048 -188.9762
v  366.1418 7.6048 -188.9762
v  381.8897 10.8991 -47.2440
v  381.8897 7.6048 -47.2440
v  366.1417 10.8991 -47.2440
v  366.1417 7.6048 -47.2440
v  326.7717 10.8991 -188.9763
v  342.5197 10.8991 -188.9762
v  342.5197 7.6048 -188.9762
v  326.7717 7.6048 -188.9763
v  342.5197 10.8991 -47.2440
v  342.5197 7.6048 -47.2440
v  326.7717 10.8991 -47.2440
v  326.7717 7.6048 -47.2440
v  287.4016 10.8991 -188.9763
v  303.1497 10.8991 -188.9763
v  303.1497 7.6048 -188.9763
v  287.4016 7.6048 -188.9763
v  303.1496 10.8991 -47.2440
v  303.1496 7.6048 -47.2440
v  287.4016 10.8991 -47.2440
v  287.4016 7.6048 -47.2440
v  248.0316 10.8991 -188.9763
v  263.7796 10.8991 -188.9763
v  263.7796 7.6048 -188.9763
v  248.0316 7.6048 -188.9763
v  263.7795 10.8991 -47.2440
v  263.7795 7.6048 -47.2440
v  248.0315 10.8991 -47.2440
v  248.0315 7.6048 -47.2440
v  208.6615 10.8991 -188.9763
v  224.4095 10.8991 -188.9763
v  224.4095 7.6048 -188.9763
v  208.6615 7.6048 -188.9763
v  224.4094 10.8991 -47.2440
v  224.4094 7.6048 -47.2440
v  208.6614 10.8991 -47.2440
v  208.6614 7.6048 -47.2440
v  169.2914 10.8991 -188.9763
v  185.0394 10.8991 -188.9763
v  185.0394 7.6048 -188.9763
v  169.2914 7.6048 -188.9763
v  185.0394 10.8991 -47.2440
v  185.0394 7.6048 -47.2440
v  169.2913 10.8991 -47.2440
v  169.2913 7.6048 -47.2440
v  129.9213 10.8991 -188.9763
v  145.6693 10.8991 -188.9763
v  145.6693 7.6048 -188.9763
v  129.9213 7.6048 -188.9763
v  145.6693 10.8991 -47.2440
v  145.6693 7.6048 -47.2440
v  129.9212 10.8991 -47.2441
v  129.9212 7.6048 -47.2440
v  90.5512 10.8991 -188.9763
v  106.2993 10.8991 -188.9763
v  106.2993 7.6048 -188.9763
v  90.5512 7.6048 -188.9763
v  106.2992 10.8991 -47.2441
v  106.2992 7.6048 -47.2441
v  90.5512 10.8991 -47.2441
v  90.5512 7.6048 -47.2441
v  51.1811 10.8991 -188.9763
v  66.9292 10.8991 -188.9763
v  66.9292 7.6048 -188.9763
v  51.1811 7.6048 -188.9763
v  66.9291 10.8991 -47.2441
v  66.9291 7.6048 -47.2441
v  51.1811 10.8991 -47.2441
v  51.1811 7.6048 -47.2441
v  11.8111 10.8991 -188.9764
v  27.5591 10.8991 -188.9764
v  27.5591 7.6048 -188.9764
v  11.8111 7.6048 -188.9764
v  27.5590 10.8991 -47.2441
v  27.5590 7.6048 -47.2441
v  11.8110 10.8991 -47.2441
v  11.8110 7.6048 -47.2441
v  393.7008 12.9050 -176.1810
v  393.7008 10.8971 -176.1810
v  393.7008 10.8971 -178.1495
v  393.7008 11.7805 -178.1495
v  393.7008 12.9050 -170.2755
v  393.7008 10.8971 -170.2755
v  -393.7007 10.8970 -170.2757
v  393.7008 10.8971 -168.3069
v  -393.7007 10.8970 -168.3072
v  -393.7007 12.9050 -170.2757
v  -393.7007 12.9050 -176.1812
v  -393.7007 10.8970 -176.1812
v  -393.7007 22.7080 -170.2757
v  393.7008 22.7081 -170.2755
v  393.7008 22.7081 -176.1810
v  -393.7007 22.7080 -176.1812
v  -393.7007 19.1102 -176.1812
v  -393.7007 19.1102 -170.2757
v  393.7008 19.1103 -170.2755
v  393.7008 19.1103 -176.1810
v  393.7008 19.1103 -178.1495
v  393.7008 22.7081 -178.1495
v  393.7008 19.1103 -168.3069
v  -393.7007 19.1102 -168.3072
v  393.7008 22.7081 -168.3069
v  -393.7007 22.7080 -168.3072
v  -393.7007 22.7080 -178.1497
v  -393.7007 19.1102 -178.1497
v  393.7008 11.7805 -168.3069
v  -393.7007 11.7805 -168.3072
v  -393.7007 11.7805 -178.1497
v  -393.7007 10.8970 -178.1497
v  -381.8897 10.8991 -188.9765
v  -366.1417 10.8991 -188.9765
v  -366.1417 7.6048 -188.9765
v  -381.8897 7.6048 -188.9765
v  -366.1418 10.8991 -47.2442
v  -366.1418 7.6048 -47.2442
v  -381.8898 10.8991 -47.2442
v  -381.8898 7.6048 -47.2442
v  393.7008 9.8425 -236.2204
v  393.7007 9.8426 236.2205
v  393.7007 0.0000 236.2205
v  393.7008 -0.0000 -236.2204
v  -393.7008 9.8426 236.2204
v  -393.7008 0.0000 236.2204
v  -393.7007 9.8425 -236.2206
v  -393.7007 -0.0000 -236.2206
v  393.7009 47.2440 -393.7007
v  393.7008 47.2441 -236.2204
v  393.7009 -0.0001 -393.7007
v  -393.7007 47.2441 -236.2206
v  -393.7007 47.2440 -393.7009
v  -393.7007 -0.0001 -393.7009
v  393.7007 47.2441 236.2205
v  393.7007 47.2442 393.7009
v  393.7007 0.0001 393.7009
v  -393.7009 47.2442 393.7007
v  -393.7009 0.0001 393.7007
v  -393.7008 47.2441 236.2204
# 468 vertices

vn 1.0000 0.0000 -0.0000
vn 0.0000 -1.0000 0.0000
vn -1.0000 0.0000 -0.0000
vn -0.0000 1.0000 -0.0000
vn -0.0000 0.7071 0.7071
vn -0.0000 0.0000 1.0000
vn 0.0000 -0.0000 -1.0000
vn -0.0000 0.8683 0.4960
vn 0.0000 0.8683 -0.4960
vn 1.0000 0.0000 0.0000
vn -1.0000 -0.0000 -0.0000
vn 0.0000 0.0000 1.0000
vn 0.0000 -1.0000 -0.0000
vn -0.0000 -1.0000 0.0000
# 14 vertex normals

vt 0.5933 0.3406 0.0000
vt 0.5933 0.3321 0.0000
vt 0.5933 0.3359 0.0000
vt 0.6433 0.3321 0.0000
vt 0.6433 0.3406 0.0000
vt 0.6433 0.3821 0.0000
vt 0.5933 0.3821 0.0000
vt 0.6433 0.3669 0.0000
vt 0.5933 0.3669 0.0000
vt 0.6433 0.3359 0.0000
vt 0.5978 0.2049 0.0000
vt 0.6478 0.2049 0.0000
vt 0.6478 0.2549 0.0000
vt 0.5978 0.2549 0.0000
vt 0.5955 0.0844 0.0000
vt 0.6455 0.0844 0.0000
vt 0.6455 0.1344 0.0000
vt 0.5955 0.1344 0.0000
vt 0.3991 0.1710 0.0000
vt 0.4521 0.1710 0.0000
vt 0.4521 0.2240 0.0000
vt 0.3991 0.2240 0.0000
# 22 texture coords

g SPW_Urban_Train_Station_Double_Track_Platform_01
usemtl SPW_Urban_Train_Station
s 1
f 1/1/1 2/2/1 3/2/1 4/3/1 
f 1/1/1 5/1/1 6/2/1 2/2/1 
s 2
f 7/4/2 6/2/2 8/2/2 9/4/2 
s 1
f 10/5/3 11/5/3 12/4/3 7/4/3 
s 2
f 12/4/2 2/2/2 6/2/2 7/4/2 
f 13/6/4 14/7/4 15/7/4 16/6/4 
s 1
f 13/6/3 16/6/3 17/8/3 18/8/3 
f 18/8/3 17/8/3 11/5/3 10/5/3 
s off
f 14/7/5 13/6/5 13/6/5 14/7/5 
f 19/9/6 18/8/6 10/5/6 5/1/6 
s 1
f 15/7/1 14/7/1 19/9/1 20/9/1 
f 20/9/1 19/9/1 5/1/1 1/1/1 
f 15/7/1 20/9/1 21/9/1 22/7/1 
s off
f 17/8/7 20/9/7 1/1/7 11/5/7 
f 18/8/2 19/9/2 23/9/2 24/8/2 
f 13/6/5 18/8/5 18/8/5 13/6/5 
f 19/9/5 14/7/5 14/7/5 19/9/5 
f 18/8/5 19/9/5 19/9/5 18/8/5 
f 25/7/6 26/6/6 24/8/6 23/9/6 
f 19/9/1 14/7/1 25/7/1 23/9/1 
f 13/6/3 18/8/3 24/8/3 26/6/3 
f 14/7/4 13/6/4 26/6/4 25/7/4 
f 27/6/7 22/7/7 21/9/7 28/8/7 
s 2
f 16/6/4 15/7/4 22/7/4 27/6/4 
s off
f 20/9/2 17/8/2 28/8/2 21/9/2 
s 1
f 17/8/3 16/6/3 27/6/3 28/8/3 
s off
f 29/3/6 30/10/6 9/4/6 8/2/6 
s 1
f 6/2/1 5/1/1 29/3/1 8/2/1 
s off
f 5/1/8 10/5/8 30/10/8 29/3/8 
s 1
f 10/5/3 7/4/3 9/4/3 30/10/3 
s off
f 31/10/7 4/3/7 3/2/7 32/4/7 
f 11/5/9 1/1/9 4/3/9 31/10/9 
s 2
f 2/2/2 12/4/2 32/4/2 3/2/2 
s 1
f 12/4/3 11/5/3 31/10/3 32/4/3 
s off
f 33/11/7 34/12/7 35/13/7 36/14/7 
f 34/11/10 37/12/10 38/13/10 35/14/10 
f 37/11/6 39/12/6 40/13/6 38/14/6 
f 39/11/11 33/12/11 36/13/11 40/14/11 
f 36/11/2 35/12/2 38/13/2 40/14/2 
f 39/11/4 37/12/4 34/13/4 33/14/4 
f 41/11/7 42/12/7 43/13/7 44/14/7 
f 42/11/10 45/12/10 46/13/10 43/14/10 
f 45/11/12 47/12/12 48/13/12 46/14/12 
f 47/11/11 41/12/11 44/13/11 48/14/11 
f 44/11/2 43/12/2 46/13/2 48/14/2 
f 47/11/4 45/12/4 42/13/4 41/14/4 
f 49/11/7 50/12/7 51/13/7 52/14/7 
f 50/11/10 53/12/10 54/13/10 51/14/10 
f 53/11/12 55/12/12 56/13/12 54/14/12 
f 55/11/11 49/12/11 52/13/11 56/14/11 
f 52/11/2 51/12/2 54/13/2 56/14/2 
f 55/11/4 53/12/4 50/13/4 49/14/4 
f 57/11/7 58/12/7 59/13/7 60/14/7 
f 58/11/10 61/12/10 62/13/10 59/14/10 
f 61/11/12 63/12/12 64/13/12 62/14/12 
f 63/11/11 57/12/11 60/13/11 64/14/11 
f 60/11/2 59/12/2 62/13/2 64/14/2 
f 63/11/4 61/12/4 58/13/4 57/14/4 
f 65/11/7 66/12/7 67/13/7 68/14/7 
f 66/11/10 69/12/10 70/13/10 67/14/10 
f 69/11/12 71/12/12 72/13/12 70/14/12 
f 71/11/11 65/12/11 68/13/11 72/14/11 
f 68/11/2 67/12/2 70/13/2 72/14/2 
f 71/11/4 69/12/4 66/13/4 65/14/4 
f 73/11/7 74/12/7 75/13/7 76/14/7 
f 74/11/10 77/12/10 78/13/10 75/14/10 
f 77/11/6 79/12/6 80/13/6 78/14/6 
f 79/11/11 73/12/11 76/13/11 80/14/11 
f 76/11/2 75/12/2 78/13/2 80/14/2 
f 79/11/4 77/12/4 74/13/4 73/14/4 
f 81/11/7 82/12/7 83/13/7 84/14/7 
f 82/11/10 85/12/10 86/13/10 83/14/10 
f 85/11/12 87/12/12 88/13/12 86/14/12 
f 87/11/11 81/12/11 84/13/11 88/14/11 
f 84/11/2 83/12/2 86/13/2 88/14/2 
f 87/11/4 85/12/4 82/13/4 81/14/4 
f 89/11/7 90/12/7 91/13/7 92/14/7 
f 90/11/10 93/12/10 94/13/10 91/14/10 
f 93/11/6 95/12/6 96/13/6 94/14/6 
f 95/11/11 89/12/11 92/13/11 96/14/11 
f 92/11/2 91/12/2 94/13/2 96/14/2 
f 95/11/4 93/12/4 90/13/4 89/14/4 
f 97/11/7 98/12/7 99/13/7 100/14/7 
f 98/11/10 101/12/10 102/13/10 99/14/10 
f 101/11/12 103/12/12 104/13/12 102/14/12 
f 103/11/11 97/12/11 100/13/11 104/14/11 
f 100/11/2 99/12/2 102/13/2 104/14/2 
f 103/11/4 101/12/4 98/13/4 97/14/4 
f 105/11/7 106/12/7 107/13/7 108/14/7 
f 106/11/10 109/12/10 110/13/10 107/14/10 
f 109/11/12 111/12/12 112/13/12 110/14/12 
f 111/11/11 105/12/11 108/13/11 112/14/11 
f 108/11/2 107/12/2 110/13/2 112/14/2 
f 111/11/4 109/12/4 106/13/4 105/14/4 
f 113/11/7 114/12/7 115/13/7 116/14/7 
f 114/11/10 117/12/10 118/13/10 115/14/10 
f 117/11/6 119/12/6 120/13/6 118/14/6 
f 119/11/11 113/12/11 116/13/11 120/14/11 
f 116/11/2 115/12/2 118/13/2 120/14/2 
f 119/11/4 117/12/4 114/13/4 113/14/4 
f 121/11/7 122/12/7 123/13/7 124/14/7 
f 122/11/10 125/12/10 126/13/10 123/14/10 
f 125/11/12 127/12/12 128/13/12 126/14/12 
f 127/11/11 121/12/11 124/13/11 128/14/11 
f 124/11/2 123/12/2 126/13/2 128/14/2 
f 127/11/4 125/12/4 122/13/4 121/14/4 
f 129/11/7 130/12/7 131/13/7 132/14/7 
f 130/11/10 133/12/10 134/13/10 131/14/10 
f 133/11/12 135/12/12 136/13/12 134/14/12 
f 135/11/11 129/12/11 132/13/11 136/14/11 
f 132/11/2 131/12/2 134/13/2 136/14/2 
f 135/11/4 133/12/4 130/13/4 129/14/4 
f 137/11/7 138/12/7 139/13/7 140/14/7 
f 138/11/10 141/12/10 142/13/10 139/14/10 
f 141/11/12 143/12/12 144/13/12 142/14/12 
f 143/11/11 137/12/11 140/13/11 144/14/11 
f 140/11/2 139/12/2 142/13/2 144/14/2 
f 143/11/4 141/12/4 138/13/4 137/14/4 
f 145/11/7 146/12/7 147/13/7 148/14/7 
f 146/11/10 149/12/10 150/13/10 147/14/10 
f 149/11/12 151/12/12 152/13/12 150/14/12 
f 151/11/11 145/12/11 148/13/11 152/14/11 
f 148/11/2 147/12/2 150/13/2 152/14/2 
f 151/11/4 149/12/4 146/13/4 145/14/4 
f 153/11/7 154/12/7 155/13/7 156/14/7 
f 154/11/10 157/12/10 158/13/10 155/14/10 
f 157/11/6 159/12/6 160/13/6 158/14/6 
f 159/11/11 153/12/11 156/13/11 160/14/11 
f 156/11/2 155/12/2 158/13/2 160/14/2 
f 159/11/4 157/12/4 154/13/4 153/14/4 
f 161/11/7 162/12/7 163/13/7 164/14/7 
f 162/11/10 165/12/10 166/13/10 163/14/10 
f 165/11/12 167/12/12 168/13/12 166/14/12 
f 167/11/11 161/12/11 164/13/11 168/14/11 
f 164/11/2 163/12/2 166/13/2 168/14/2 
f 167/11/4 165/12/4 162/13/4 161/14/4 
f 169/11/7 170/12/7 171/13/7 172/14/7 
f 170/11/10 173/12/10 174/13/10 171/14/10 
f 173/11/6 175/12/6 176/13/6 174/14/6 
f 175/11/11 169/12/11 172/13/11 176/14/11 
f 172/11/2 171/12/2 174/13/2 176/14/2 
f 175/11/4 173/12/4 170/13/4 169/14/4 
f 177/11/7 178/12/7 179/13/7 180/14/7 
f 178/11/10 181/12/10 182/13/10 179/14/10 
f 181/11/12 183/12/12 184/13/12 182/14/12 
f 183/11/11 177/12/11 180/13/11 184/14/11 
f 180/11/2 179/12/2 182/13/2 184/14/2 
f 183/11/4 181/12/4 178/13/4 177/14/4 
s 1
f 185/1/1 186/2/1 187/2/1 188/3/1 
f 185/1/1 189/1/1 190/2/1 186/2/1 
s 2
f 191/4/13 190/2/13 192/2/13 193/4/13 
s 1
f 194/5/3 195/5/3 196/4/3 191/4/3 
s 2
f 196/4/2 186/2/2 190/2/13 191/4/13 
f 197/6/4 198/7/4 199/7/4 200/6/4 
s 1
f 197/6/3 200/6/3 201/8/3 202/8/3 
f 202/8/3 201/8/3 195/5/3 194/5/3 
s off
f 198/7/5 197/6/5 197/6/5 198/7/5 
f 203/9/6 202/8/6 194/5/6 189/1/6 
s 1
f 199/7/1 198/7/1 203/9/1 204/9/1 
f 204/9/1 203/9/1 189/1/1 185/1/1 
f 199/7/1 204/9/1 205/9/1 206/7/1 
s off
f 201/8/7 204/9/7 185/1/7 195/5/7 
f 202/8/13 203/9/13 207/9/13 208/8/13 
f 197/6/5 202/8/5 202/8/5 197/6/5 
f 203/9/5 198/7/5 198/7/5 203/9/5 
f 202/8/5 203/9/5 203/9/5 202/8/5 
f 209/7/6 210/6/6 208/8/6 207/9/6 
f 203/9/1 198/7/1 209/7/1 207/9/1 
f 197/6/3 202/8/3 208/8/3 210/6/3 
f 198/7/4 197/6/4 210/6/4 209/7/4 
f 211/6/7 206/7/7 205/9/7 212/8/7 
s 2
f 200/6/4 199/7/4 206/7/4 211/6/4 
s off
f 204/9/2 201/8/2 212/8/2 205/9/2 
s 1
f 201/8/3 200/6/3 211/6/3 212/8/3 
s off
f 213/3/6 214/10/6 193/4/6 192/2/6 
s 1
f 190/2/1 189/1/1 213/3/1 192/2/1 
s off
f 189/1/8 194/5/8 214/10/8 213/3/8 
s 1
f 194/5/3 191/4/3 193/4/3 214/10/3 
s off
f 215/10/7 188/3/7 187/2/7 216/4/7 
f 195/5/9 185/1/9 188/3/9 215/10/9 
s 2
f 186/2/2 196/4/2 216/4/2 187/2/2 
s 1
f 196/4/3 195/5/3 215/10/3 216/4/3 
s off
f 217/11/7 218/12/7 219/13/7 220/14/7 
f 218/11/10 221/12/10 222/13/10 219/14/10 
f 221/11/12 223/12/12 224/13/12 222/14/12 
f 223/11/11 217/12/11 220/13/11 224/14/11 
f 220/11/2 219/12/2 222/13/2 224/14/2 
f 223/11/4 221/12/4 218/13/4 217/14/4 
s 1
f 225/1/1 226/2/1 227/2/1 228/3/1 
f 225/1/1 229/1/1 230/2/1 226/2/1 
s 2
f 231/4/2 230/2/2 232/2/2 233/4/2 
s 1
f 234/5/3 235/5/3 236/4/3 231/4/3 
s 2
f 236/4/13 226/2/13 230/2/2 231/4/2 
f 237/6/4 238/7/4 239/7/4 240/6/4 
s 1
f 237/6/3 240/6/3 241/8/3 242/8/3 
f 242/8/3 241/8/3 235/5/3 234/5/3 
s off
f 238/7/5 237/6/5 237/6/5 238/7/5 
f 243/9/6 242/8/6 234/5/6 229/1/6 
s 1
f 239/7/1 238/7/1 243/9/1 244/9/1 
f 244/9/1 243/9/1 229/1/1 225/1/1 
f 239/7/1 244/9/1 245/9/1 246/7/1 
s off
f 241/8/7 244/9/7 225/1/7 235/5/7 
f 242/8/2 243/9/2 247/9/2 248/8/2 
f 237/6/5 242/8/5 242/8/5 237/6/5 
f 243/9/5 238/7/5 238/7/5 243/9/5 
f 242/8/5 243/9/5 243/9/5 242/8/5 
f 249/7/6 250/6/6 248/8/6 247/9/6 
f 243/9/1 238/7/1 249/7/1 247/9/1 
f 237/6/3 242/8/3 248/8/3 250/6/3 
f 238/7/4 237/6/4 250/6/4 249/7/4 
f 251/6/7 246/7/7 245/9/7 252/8/7 
s 2
f 240/6/4 239/7/4 246/7/4 251/6/4 
s off
f 244/9/13 241/8/13 252/8/13 245/9/13 
s 1
f 241/8/3 240/6/3 251/6/3 252/8/3 
s off
f 253/3/6 254/10/6 233/4/6 232/2/6 
s 1
f 230/2/1 229/1/1 253/3/1 232/2/1 
s off
f 229/1/8 234/5/8 254/10/8 253/3/8 
s 1
f 234/5/3 231/4/3 233/4/3 254/10/3 
s off
f 255/10/7 228/3/7 227/2/7 256/4/7 
f 235/5/9 225/1/9 228/3/9 255/10/9 
s 2
f 226/2/13 236/4/13 256/4/13 227/2/13 
s 1
f 236/4/3 235/5/3 255/10/3 256/4/3 
s off
f 257/11/7 258/12/7 259/13/7 260/14/7 
f 258/11/10 261/12/10 262/13/10 259/14/10 
f 261/11/12 263/12/12 264/13/12 262/14/12 
f 263/11/11 257/12/11 260/13/11 264/14/11 
f 260/11/2 259/12/2 262/13/2 264/14/2 
f 263/11/4 261/12/4 258/13/4 257/14/4 
f 265/11/7 266/12/7 267/13/7 268/14/7 
f 266/11/10 269/12/10 270/13/10 267/14/10 
f 269/11/6 271/12/6 272/13/6 270/14/6 
f 271/11/11 265/12/11 268/13/11 272/14/11 
f 268/11/2 267/12/2 270/13/2 272/14/2 
f 271/11/4 269/12/4 266/13/4 265/14/4 
f 273/11/7 274/12/7 275/13/7 276/14/7 
f 274/11/10 277/12/10 278/13/10 275/14/10 
f 277/11/6 279/12/6 280/13/6 278/14/6 
f 279/11/11 273/12/11 276/13/11 280/14/11 
f 276/11/2 275/12/2 278/13/2 280/14/2 
f 279/11/4 277/12/4 274/13/4 273/14/4 
f 281/11/7 282/12/7 283/13/7 284/14/7 
f 282/11/10 285/12/10 286/13/10 283/14/10 
f 285/11/12 287/12/12 288/13/12 286/14/12 
f 287/11/11 281/12/11 284/13/11 288/14/11 
f 284/11/2 283/12/2 286/13/2 288/14/2 
f 287/11/4 285/12/4 282/13/4 281/14/4 
f 289/11/7 290/12/7 291/13/7 292/14/7 
f 290/11/10 293/12/10 294/13/10 291/14/10 
f 293/11/6 295/12/6 296/13/6 294/14/6 
f 295/11/11 289/12/11 292/13/11 296/14/11 
f 292/11/2 291/12/2 294/13/2 296/14/2 
f 295/11/4 293/12/4 290/13/4 289/14/4 
f 297/11/7 298/12/7 299/13/7 300/14/7 
f 298/11/10 301/12/10 302/13/10 299/14/10 
f 301/11/6 303/12/6 304/13/6 302/14/6 
f 303/11/11 297/12/11 300/13/11 304/14/11 
f 300/11/2 299/12/2 302/13/2 304/14/2 
f 303/11/4 301/12/4 298/13/4 297/14/4 
f 305/11/7 306/12/7 307/13/7 308/14/7 
f 306/11/10 309/12/10 310/13/10 307/14/10 
f 309/11/12 311/12/12 312/13/12 310/14/12 
f 311/11/11 305/12/11 308/13/11 312/14/11 
f 308/11/2 307/12/2 310/13/2 312/14/2 
f 311/11/4 309/12/4 306/13/4 305/14/4 
f 313/11/7 314/12/7 315/13/7 316/14/7 
f 314/11/10 317/12/10 318/13/10 315/14/10 
f 317/11/6 319/12/6 320/13/6 318/14/6 
f 319/11/11 313/12/11 316/13/11 320/14/11 
f 316/11/2 315/12/2 318/13/2 320/14/2 
f 319/11/4 317/12/4 314/13/4 313/14/4 
f 321/11/7 322/12/7 323/13/7 324/14/7 
f 322/11/10 325/12/10 326/13/10 323/14/10 
f 325/11/6 327/12/6 328/13/6 326/14/6 
f 327/11/11 321/12/11 324/13/11 328/14/11 
f 324/11/2 323/12/2 326/13/2 328/14/2 
f 327/11/4 325/12/4 322/13/4 321/14/4 
f 329/11/7 330/12/7 331/13/7 332/14/7 
f 330/11/10 333/12/10 334/13/10 331/14/10 
f 333/11/6 335/12/6 336/13/6 334/14/6 
f 335/11/11 329/12/11 332/13/11 336/14/11 
f 332/11/2 331/12/2 334/13/2 336/14/2 
f 335/11/4 333/12/4 330/13/4 329/14/4 
f 337/11/7 338/12/7 339/13/7 340/14/7 
f 338/11/10 341/12/10 342/13/10 339/14/10 
f 341/11/12 343/12/12 344/13/12 342/14/12 
f 343/11/11 337/12/11 340/13/11 344/14/11 
f 340/11/2 339/12/2 342/13/2 344/14/2 
f 343/11/4 341/12/4 338/13/4 337/14/4 
f 345/11/7 346/12/7 347/13/7 348/14/7 
f 346/11/10 349/12/10 350/13/10 347/14/10 
f 349/11/6 351/12/6 352/13/6 350/14/6 
f 351/11/11 345/12/11 348/13/11 352/14/11 
f 348/11/2 347/12/2 350/13/2 352/14/2 
f 351/11/4 349/12/4 346/13/4 345/14/4 
f 353/11/7 354/12/7 355/13/7 356/14/7 
f 354/11/10 357/12/10 358/13/10 355/14/10 
f 357/11/6 359/12/6 360/13/6 358/14/6 
f 359/11/11 353/12/11 356/13/11 360/14/11 
f 356/11/2 355/12/2 358/13/2 360/14/2 
f 359/11/4 357/12/4 354/13/4 353/14/4 
f 361/11/7 362/12/7 363/13/7 364/14/7 
f 362/11/10 365/12/10 366/13/10 363/14/10 
f 365/11/12 367/12/12 368/13/12 366/14/12 
f 367/11/11 361/12/11 364/13/11 368/14/11 
f 364/11/2 363/12/2 366/13/2 368/14/2 
f 367/11/4 365/12/4 362/13/4 361/14/4 
f 369/11/7 370/12/7 371/13/7 372/14/7 
f 370/11/10 373/12/10 374/13/10 371/14/10 
f 373/11/6 375/12/6 376/13/6 374/14/6 
f 375/11/11 369/12/11 372/13/11 376/14/11 
f 372/11/2 371/12/2 374/13/2 376/14/2 
f 375/11/4 373/12/4 370/13/4 369/14/4 
f 377/11/7 378/12/7 379/13/7 380/14/7 
f 378/11/10 381/12/10 382/13/10 379/14/10 
f 381/11/6 383/12/6 384/13/6 382/14/6 
f 383/11/11 377/12/11 380/13/11 384/14/11 
f 380/11/2 379/12/2 382/13/2 384/14/2 
f 383/11/4 381/12/4 378/13/4 377/14/4 
f 385/11/7 386/12/7 387/13/7 388/14/7 
f 386/11/10 389/12/10 390/13/10 387/14/10 
f 389/11/12 391/12/12 392/13/12 390/14/12 
f 391/11/11 385/12/11 388/13/11 392/14/11 
f 388/11/2 387/12/2 390/13/2 392/14/2 
f 391/11/4 389/12/4 386/13/4 385/14/4 
f 393/11/7 394/12/7 395/13/7 396/14/7 
f 394/11/10 397/12/10 398/13/10 395/14/10 
f 397/11/6 399/12/6 400/13/6 398/14/6 
f 399/11/11 393/12/11 396/13/11 400/14/11 
f 396/11/2 395/12/2 398/13/2 400/14/2 
f 399/11/4 397/12/4 394/13/4 393/14/4 
f 401/11/7 402/12/7 403/13/7 404/14/7 
f 402/11/10 405/12/10 406/13/10 403/14/10 
f 405/11/6 407/12/6 408/13/6 406/14/6 
f 407/11/11 401/12/11 404/13/11 408/14/11 
f 404/11/2 403/12/2 406/13/2 408/14/2 
f 407/11/4 405/12/4 402/13/4 401/14/4 
s 1
f 409/1/1 410/2/1 411/2/1 412/3/1 
f 409/1/1 413/1/1 414/2/1 410/2/1 
s 2
f 415/4/2 414/2/2 416/2/2 417/4/2 
s 1
f 418/5/3 419/5/3 420/4/3 415/4/3 
s 2
f 420/4/2 410/2/2 414/2/2 415/4/2 
f 421/6/4 422/7/4 423/7/4 424/6/4 
s 1
f 421/6/3 424/6/3 425/8/3 426/8/3 
f 426/8/3 425/8/3 419/5/3 418/5/3 
s off
f 422/7/5 421/6/5 421/6/5 422/7/5 
f 427/9/6 426/8/6 418/5/6 413/1/6 
s 1
f 423/7/1 422/7/1 427/9/1 428/9/1 
f 428/9/1 427/9/1 413/1/1 409/1/1 
f 423/7/1 428/9/1 429/9/1 430/7/1 
s off
f 425/8/7 428/9/7 409/1/7 419/5/7 
f 426/8/2 427/9/2 431/9/2 432/8/2 
f 421/6/5 426/8/5 426/8/5 421/6/5 
f 427/9/5 422/7/5 422/7/5 427/9/5 
f 426/8/5 427/9/5 427/9/5 426/8/5 
f 433/7/6 434/6/6 432/8/6 431/9/6 
f 427/9/1 422/7/1 433/7/1 431/9/1 
f 421/6/3 426/8/3 432/8/3 434/6/3 
f 422/7/4 421/6/4 434/6/4 433/7/4 
f 435/6/7 430/7/7 429/9/7 436/8/7 
s 2
f 424/6/4 423/7/4 430/7/4 435/6/4 
s off
f 428/9/2 425/8/2 436/8/2 429/9/2 
s 1
f 425/8/3 424/6/3 435/6/3 436/8/3 
s off
f 437/3/6 438/10/6 417/4/6 416/2/6 
s 1
f 414/2/1 413/1/1 437/3/1 416/2/1 
s off
f 413/1/8 418/5/8 438/10/8 437/3/8 
s 1
f 418/5/3 415/4/3 417/4/3 438/10/3 
s off
f 439/10/7 412/3/7 411/2/7 440/4/7 
f 419/5/9 409/1/9 412/3/9 439/10/9 
s 2
f 410/2/2 420/4/2 440/4/2 411/2/2 
s 1
f 420/4/3 419/5/3 439/10/3 440/4/3 
s off
f 441/11/7 442/12/7 443/13/7 444/14/7 
f 442/11/10 445/12/10 446/13/10 443/14/10 
f 445/11/6 447/12/6 448/13/6 446/14/6 
f 447/11/11 441/12/11 444/13/11 448/14/11 
f 444/11/2 443/12/2 446/13/2 448/14/2 
f 447/11/4 445/12/4 442/13/4 441/14/4 
f 449/15/10 450/16/10 451/17/10 452/18/10 
f 450/15/6 453/16/6 454/17/6 451/18/6 
f 453/15/11 455/16/11 456/17/11 454/18/11 
f 455/15/7 449/16/7 452/17/7 456/18/7 
f 452/15/14 451/16/14 454/17/14 456/18/14 
f 455/15/4 453/16/4 450/17/4 449/18/4 
f 457/19/10 458/20/10 452/21/10 459/22/10 
f 458/19/6 460/20/6 456/21/6 452/22/6 
f 460/19/11 461/20/11 462/21/11 456/22/11 
f 461/19/7 457/20/7 459/21/7 462/22/7 
f 459/19/14 452/20/14 456/21/14 462/22/14 
f 461/19/4 460/20/4 458/21/4 457/22/4 
f 463/19/10 464/20/10 465/21/10 451/22/10 
f 464/19/6 466/20/6 467/21/6 465/22/6 
f 466/19/11 468/20/11 454/21/11 467/22/11 
f 468/19/7 463/20/7 451/21/7 454/22/7 
f 451/19/14 465/20/14 467/21/14 454/22/14 
f 468/19/4 466/20/4 464/21/4 463/22/4 
# 394 polygons

