{
  "accessors": [
    {
      "name": "SPW_Urban_Bldg_04_1_0_positions",
      "componentType": 5126,
      "count": 2809,
      "min": [
        -358.6203918457031,
        -0.09650000184774399,
        -430.9010009765625
      ],
      "max": [
        430.9010009765625,
        1513.779541015625,
        358.6203918457031
      ],
      "type": "VEC3",
      "bufferView": 0,
      "byteOffset": 0
    },
    {
      "name": "SPW_Urban_Bldg_04_1_0_normals",
      "componentType": 5126,
      "count": 2809,
      "min": [
        -1,
        -1,
        -1
      ],
      "max": [
        1,
        1,
        1
      ],
      "type": "VEC3",
      "bufferView": 1,
      "byteOffset": 0
    },
    {
      "name": "SPW_Urban_Bldg_04_1_0_texcoords",
      "componentType": 5126,
      "count": 2809,
      "min": [
        0.2912999987602234,
        0.02590000070631504
      ],
      "max": [
        0.351500004529953,
        0.1915999948978424
      ],
      "type": "VEC2",
      "bufferView": 2,
      "byteOffset": 0
    },
    {
      "name": "SPW_Urban_Bldg_04_1_0_indices",
      "componentType": 5123,
      "count": 4830,
      "min": [
        0
      ],
      "max": [
        2808
      ],
      "type": "SCALAR",
      "bufferView": 3,
      "byteOffset": 0
    }
  ],
  "asset": {
    "generator": "obj2gltf",
    "version": "2.0"
  },
  "buffers": [
    {
      "name": "SPW_Urban_Bldg_04",
      "byteLength": 101564,
      "uri": "data:application/octet-stream;base64,"
    }
  ],
  "bufferViews": [
    {
      "name": "bufferView_0",
      "buffer": 0,
      "byteLength": 33708,
      "byteOffset": 0,
      "byteStride": 12,
      "target": 34962
    },
    {
      "name": "bufferView_1",
      "buffer": 0,
      "byteLength": 33708,
      "byteOffset": 33708,
      "byteStride": 12,
      "target": 34962
    },
    {
      "name": "bufferView_2",
      "buffer": 0,
      "byteLength": 22472,
      "byteOffset": 67416,
      "byteStride": 8,
      "target": 34962
    },
    {
      "name": "bufferView_3",
      "buffer": 0,
      "byteLength": 9660,
      "byteOffset": 89888,
      "target": 34963
    },
    {
      "buffer": 0,
      "byteOffset": 99548,
      "byteLength": 2013
    }
  ],
  "images": [
    {
      "name": "SPW_Urban_Bldg_04_Color01",
      "mimeType": "image/png",
      "bufferView": 4
    }
  ],
  "materials": [
    {
      "name": "SPW_Urban_Bldg_04",
      "pbrMetallicRoughness": {
        "baseColorTexture": {
          "index": 0
        },
        "baseColorFactor": [
          1,
          1,
          1,
          1
        ],
        "metallicFactor": 0,
        "roughnessFactor": 0.9567807
      },
      "emissiveFactor": [
        0,
        0,
        0
      ],
      "alphaMode": "OPAQUE",
      "doubleSided": false
    }
  ],
  "meshes": [
    {
      "name": "SPW_Urban_Bldg_04_1",
      "primitives": [
        {
          "attributes": {
            "POSITION": 0,
            "NORMAL": 1,
            "TEXCOORD_0": 2
          },
          "indices": 3,
          "material": 0,
          "mode": 4
        }
      ]
    }
  ],
  "nodes": [
    {
      "name": "SPW_Urban_Bldg_04",
      "mesh": 0
    }
  ],
  "samplers": [
    {
      "magFilter": 9729,
      "minFilter": 9986,
      "wrapS": 10497,
      "wrapT": 10497
    }
  ],
  "scene": 0,
  "scenes": [
    {
      "nodes": [
        0
      ]
    }
  ],
  "textures": [
    {
      "name": "SPW_Urban_Bldg_04_Color01",
      "sampler": 0,
      "source": 0
    }
  ]
}
