# 3ds Max Wavefront OBJ Exporter v0.97b - (c)2007 guruware
# File Created: 15.03.2017 11:04:32

mtllib SPW_Urban_Road Sign_Highway_04.mtl

#
# object SPW_Urban_Road_Sign_Highway_04
#

v  113.2069 216.5354 2.0241
v  -113.2068 216.5354 2.0240
v  -113.2068 216.5354 6.1579
v  113.2069 216.5354 6.1579
v  -116.4459 214.8711 2.0240
v  -118.1102 211.6321 2.0240
v  -118.1102 211.6321 6.1579
v  -116.4459 214.8711 6.1579
v  -118.1102 142.6987 2.0240
v  -118.1102 142.6987 6.1579
v  -116.4459 139.4596 2.0240
v  -113.2068 137.7954 2.0240
v  -113.2068 137.7954 6.1579
v  -116.4459 139.4596 6.1579
v  113.2068 137.7953 2.0240
v  113.2068 137.7953 6.1579
v  116.4459 139.4596 2.0240
v  118.1102 142.6986 2.0240
v  118.1102 142.6986 6.1579
v  116.4459 139.4596 6.1579
v  118.1102 211.6321 2.0241
v  118.1102 211.6321 6.1579
v  116.4459 214.8711 2.0241
v  116.4459 214.8711 6.1579
v  -115.2581 140.6033 6.1579
v  -116.9054 143.7778 6.1579
v  116.9053 210.5529 6.1579
v  115.2581 213.7274 6.1579
v  112.0521 215.3585 6.1579
v  -112.0520 215.3585 6.1579
v  -115.2580 213.7274 6.1579
v  -116.9053 210.5529 6.1579
v  -112.0520 138.9723 6.1579
v  112.0520 138.9722 6.1579
v  115.2581 140.6033 6.1579
v  116.9054 143.7778 6.1579
v  80.7405 -0.0425 -3.4205
v  76.7396 -0.0425 -3.4205
v  76.7396 177.2078 -3.4205
v  80.7405 177.2078 -3.4205
v  75.3196 -0.0425 -2.0005
v  75.3196 177.2078 -2.0005
v  75.3196 -0.0425 2.0005
v  75.3196 177.2078 2.0005
v  76.7396 -0.0426 3.4205
v  76.7396 177.2078 3.4205
v  80.7405 -0.0425 3.4205
v  80.7405 177.2078 3.4205
v  82.1606 -0.0425 2.0005
v  82.1606 177.2078 2.0005
v  82.1605 -0.0426 -2.0005
v  82.1605 177.2078 -2.0005
v  -76.7398 -0.0426 -3.4205
v  -80.7407 -0.0426 -3.4205
v  -80.7407 177.2078 -3.4205
v  -76.7398 177.2078 -3.4205
v  -82.1607 -0.0426 -2.0005
v  -82.1607 177.2078 -2.0005
v  -82.1607 -0.0426 2.0005
v  -82.1607 177.2078 2.0005
v  -80.7407 -0.0426 3.4205
v  -80.7407 177.2078 3.4205
v  -76.7398 -0.0426 3.4205
v  -76.7398 177.2078 3.4205
v  -75.3198 -0.0426 2.0005
v  -75.3198 177.2078 2.0005
v  -75.3198 -0.0426 -2.0005
v  -75.3198 177.2078 -2.0005
# 68 vertices

vn 0.0000 1.0000 0.0000
vn -0.8895 0.4570 0.0000
vn -1.0000 0.0000 0.0000
vn -0.4570 -0.8895 -0.0000
vn -0.0000 -1.0000 -0.0000
vn 0.8895 -0.4570 -0.0000
vn 1.0000 0.0000 0.0000
vn 0.4570 0.8895 0.0000
vn -0.0000 -0.0000 1.0000
vn 0.0000 0.0000 -1.0000
vn 0.8895 0.4570 0.0000
vn 0.4570 -0.8895 -0.0000
vn -0.4570 0.8895 0.0000
vn -0.8895 -0.4570 -0.0000
vn 0.0000 -0.0000 1.0000
vn -0.0000 0.0000 1.0000
vn -0.7071 0.0000 -0.7071
vn -1.0000 0.0000 -0.0000
vn -0.7071 -0.0000 0.7071
vn 0.7071 -0.0000 0.7071
vn 1.0000 0.0000 -0.0000
vn 0.7071 0.0000 -0.7071
vn 0.0000 1.0000 -0.0000
vn -0.0000 -1.0000 0.0000
vn 0.0000 -1.0000 -0.0000
vn 1.0000 -0.0000 0.0000
# 26 vertex normals

vt 0.0120 0.9341 0.0000
vt 0.0278 0.9341 0.0000
vt 0.0278 0.9500 0.0000
vt 0.0120 0.9500 0.0000
vt 0.8468 0.8517 0.0000
vt 0.8626 0.8517 0.0000
vt 0.0199 0.9500 0.0000
vt 0.0238 0.9489 0.0000
vt 0.0268 0.9460 0.0000
vt 0.0278 0.9420 0.0000
vt 0.0268 0.9381 0.0000
vt 0.0238 0.9352 0.0000
vt 0.0199 0.9341 0.0000
vt 0.0159 0.9352 0.0000
vt 0.0130 0.9381 0.0000
vt 0.0120 0.9420 0.0000
vt 0.0130 0.9460 0.0000
vt 0.0159 0.9489 0.0000
vt 0.9958 0.5737 0.0000
vt 0.9929 0.5794 0.0000
vt 0.9871 0.5823 0.0000
vt 0.5852 0.5823 0.0000
vt 0.5795 0.5794 0.0000
vt 0.5765 0.5737 0.0000
vt 0.5765 0.4540 0.0000
vt 0.5795 0.4483 0.0000
vt 0.5852 0.4454 0.0000
vt 0.9871 0.4454 0.0000
vt 0.9929 0.4483 0.0000
vt 0.9958 0.4540 0.0000
vt 0.0162 0.8957 0.0000
vt 0.0262 0.8957 0.0000
vt 0.0262 0.9057 0.0000
vt 0.0162 0.9057 0.0000
vt 0.0212 0.9057 0.0000
vt 0.0247 0.9042 0.0000
vt 0.0262 0.9007 0.0000
vt 0.0247 0.8971 0.0000
vt 0.0212 0.8957 0.0000
vt 0.0177 0.8971 0.0000
vt 0.0162 0.9007 0.0000
vt 0.0177 0.9042 0.0000
# 42 texture coords

g SPW_Urban_Road_Sign_Highway_04
usemtl SPW_Urban_Road_Props_02
s off
f 1/1/1 2/2/1 3/3/1 4/4/1 
f 5/1/2 6/2/2 7/3/2 8/4/2 
f 6/1/3 9/2/3 10/3/3 7/4/3 
f 11/1/4 12/2/4 13/3/4 14/4/4 
f 12/1/5 15/2/5 16/3/5 13/4/5 
f 17/1/6 18/2/6 19/3/6 20/4/6 
f 18/1/7 21/2/7 22/3/7 19/4/7 
f 23/1/8 1/2/8 4/3/8 24/4/8 
s 1
f 10/5/9 14/6/9 25/6/9 26/5/9 
s off
f 1/7/10 23/8/10 21/9/10 18/10/10 
f 1/7/10 18/10/10 17/11/10 15/12/10 
f 1/7/10 15/12/10 12/13/10 11/14/10 
f 1/7/10 11/14/10 9/15/10 6/16/10 
f 1/7/10 6/16/10 5/17/10 2/18/10 
f 21/1/11 23/2/11 24/3/11 22/4/11 
f 15/1/12 17/2/12 20/3/12 16/4/12 
f 2/1/13 5/2/13 8/3/13 3/4/13 
f 9/1/14 11/2/14 14/3/14 10/4/14 
s 1
f 27/19/9 28/20/15 29/21/9 30/22/9 
f 27/19/9 30/22/9 31/23/9 32/24/15 
f 27/19/9 32/24/15 26/25/9 25/26/9 
f 27/19/9 25/26/9 33/27/9 34/28/9 
f 27/19/9 34/28/9 35/29/15 36/30/15 
f 3/5/16 8/6/15 31/6/9 30/5/9 
f 16/5/9 20/6/15 35/6/15 34/5/9 
f 22/5/9 24/6/9 28/6/15 27/5/9 
f 4/5/9 3/6/16 30/6/9 29/5/9 
f 8/5/15 7/6/15 32/6/15 31/5/9 
f 7/5/15 10/6/9 26/6/9 32/5/15 
f 14/5/9 13/6/9 33/6/9 25/5/9 
f 13/5/9 16/6/9 34/6/9 33/5/9 
f 20/5/15 19/6/15 36/6/15 35/5/15 
f 19/5/15 22/6/9 27/6/9 36/5/15 
f 24/5/9 4/6/9 29/6/9 28/5/15 
s off
f 37/31/10 38/32/10 39/33/10 40/34/10 
f 38/31/17 41/32/17 42/33/17 39/34/17 
f 41/31/18 43/32/18 44/33/18 42/34/18 
f 43/31/19 45/32/19 46/33/19 44/34/19 
f 45/31/9 47/32/9 48/33/9 46/34/9 
f 47/31/20 49/32/20 50/33/20 48/34/20 
f 49/31/21 51/32/21 52/33/21 50/34/21 
f 51/31/22 37/32/22 40/33/22 52/34/22 
f 52/35/1 40/36/1 39/37/1 42/38/1 
f 52/35/23 42/38/23 44/39/23 46/40/23 
f 52/35/1 46/40/1 48/41/1 50/42/1 
f 37/35/24 51/36/24 49/37/24 47/38/24 
f 37/35/25 47/38/25 45/39/25 43/40/25 
f 37/35/5 43/40/5 41/41/5 38/42/5 
f 53/31/10 54/32/10 55/33/10 56/34/10 
f 54/31/17 57/32/17 58/33/17 55/34/17 
f 57/31/18 59/32/18 60/33/18 58/34/18 
f 59/31/19 61/32/19 62/33/19 60/34/19 
f 61/31/9 63/32/9 64/33/9 62/34/9 
f 63/31/20 65/32/20 66/33/20 64/34/20 
f 65/31/26 67/32/26 68/33/26 66/34/26 
f 67/31/22 53/32/22 56/33/22 68/34/22 
f 68/35/1 56/36/1 55/37/1 58/38/1 
f 68/35/1 58/38/1 60/39/1 62/40/1 
f 68/35/1 62/40/1 64/41/1 66/42/1 
f 53/35/25 67/36/25 65/37/25 63/38/25 
f 53/35/25 63/38/25 61/39/25 59/40/25 
f 53/35/5 59/40/5 57/41/5 54/42/5 
# 62 polygons

