# 3ds Max Wavefront OBJ Exporter v0.97b - (c)2007 guruware
# File Created: 15.03.2017 11:02:47

mtllib SPW_Urban_Road Sign_Airport.mtl

#
# object SPW_Urban_Road_Sign_Airport
#

v  0.8131 0.0020 -1.3903
v  -0.8131 0.0020 -1.3903
v  -0.8131 86.6501 -1.3903
v  0.8131 86.6501 -1.3903
v  -1.3903 0.0020 -0.8131
v  -1.3903 86.6501 -0.8131
v  -1.3903 0.0020 0.8131
v  -1.3903 86.6501 0.8131
v  -0.8131 0.0020 1.3903
v  -0.8131 86.6501 1.3903
v  0.8131 0.0020 1.3903
v  0.8131 86.6501 1.3903
v  1.3903 0.0020 0.8131
v  1.3903 86.6501 0.8131
v  1.3903 0.0020 -0.8131
v  1.3903 86.6501 -0.8131
v  -11.8111 98.4339 2.2723
v  -11.8111 98.4339 0.8550
v  -11.8111 74.8119 0.8550
v  -11.8111 74.8119 2.2723
v  11.8110 98.4339 0.8550
v  11.8110 74.8119 0.8550
v  11.8110 98.4339 2.2723
v  11.8110 74.8119 2.2723
v  10.8586 75.7643 2.2723
v  -10.8587 75.7643 2.2723
v  10.8586 97.4816 2.2723
v  -10.8587 97.4816 2.2723
# 28 vertices

vn 0.0000 0.0000 -1.0000
vn -0.7071 0.0000 -0.7071
vn -1.0000 -0.0000 -0.0000
vn -0.7071 -0.0000 0.7071
vn -0.0000 -0.0000 1.0000
vn 0.7071 -0.0000 0.7071
vn 1.0000 0.0000 -0.0000
vn 0.7071 0.0000 -0.7071
vn 0.0000 1.0000 0.0000
vn 0.0000 -1.0000 -0.0000
vn -0.0000 -1.0000 -0.0000
vn -1.0000 0.0000 -0.0000
vn 0.0000 -0.0000 1.0000
vn 0.0000 0.0000 1.0000
# 14 vertex normals

vt 0.0102 0.8943 0.0000
vt 0.0248 0.8943 0.0000
vt 0.0248 0.9088 0.0000
vt 0.0102 0.9088 0.0000
vt 0.0175 0.9088 0.0000
vt 0.0227 0.9067 0.0000
vt 0.0248 0.9015 0.0000
vt 0.0227 0.8964 0.0000
vt 0.0175 0.8943 0.0000
vt 0.0124 0.8964 0.0000
vt 0.0102 0.9015 0.0000
vt 0.0124 0.9067 0.0000
vt 0.0099 0.9382 0.0000
vt 0.0228 0.9382 0.0000
vt 0.0228 0.9511 0.0000
vt 0.0099 0.9511 0.0000
vt 0.0116 0.9737 0.0000
vt 0.0116 0.9866 0.0000
vt 0.2234 0.5768 0.0000
vt 0.0356 0.5768 0.0000
vt 0.0356 0.3889 0.0000
vt 0.2234 0.3889 0.0000
vt 0.0246 0.9866 0.0000
vt 0.0246 0.9737 0.0000
# 24 texture coords

g SPW_Urban_Road_Sign_Airport
usemtl SPW_Urban_Road_Props_01
s off
f 1/1/1 2/2/1 3/3/1 4/4/1 
f 2/1/2 5/2/2 6/3/2 3/4/2 
f 5/1/3 7/2/3 8/3/3 6/4/3 
f 7/1/4 9/2/4 10/3/4 8/4/4 
f 9/1/5 11/2/5 12/3/5 10/4/5 
f 11/1/6 13/2/6 14/3/6 12/4/6 
f 13/1/7 15/2/7 16/3/7 14/4/7 
f 15/1/8 1/2/8 4/3/8 16/4/8 
f 16/5/9 4/6/9 3/7/9 6/8/9 
f 16/5/9 6/8/9 8/9/9 10/10/9 
f 16/5/9 10/10/9 12/11/9 14/12/9 
f 1/5/10 15/6/10 13/7/10 11/8/10 
f 1/5/11 11/8/11 9/9/11 7/10/11 
f 1/5/10 7/10/10 5/11/10 2/12/10 
f 17/13/12 18/14/12 19/15/12 20/16/12 
f 18/13/1 21/14/1 22/15/1 19/16/1 
f 21/13/7 23/14/7 24/15/7 22/16/7 
s 1
f 20/17/13 24/18/13 25/18/13 26/17/13 
s off
f 20/13/10 19/14/10 22/15/10 24/16/10 
f 23/13/9 21/14/9 18/15/9 17/16/9 
s 1
f 27/19/13 28/20/13 26/21/13 25/22/13 
f 23/17/14 17/18/13 28/18/13 27/17/13 
f 24/23/13 23/24/14 27/24/13 25/23/13 
f 17/17/13 20/18/13 26/18/13 28/17/13 
# 24 polygons

