# 3ds Max Wavefront OBJ Exporter v0.97b - (c)2007 guruware
# File Created: 15.03.2017 11:03:47

mtllib SPW_Urban_Road Sign_Highway_01.mtl

#
# object SPW_Urban_Road_Sign_Highway_01
#

v  -34.4309 403.5432 5.9016
v  -260.8446 403.5432 5.9016
v  -260.8446 403.5432 10.0355
v  -34.4309 403.5432 10.0355
v  -264.0837 401.8789 5.9016
v  -265.7480 398.6399 5.9016
v  -265.7479 398.6399 10.0355
v  -264.0837 401.8789 10.0355
v  -265.7480 290.3365 5.9016
v  -265.7480 290.3365 10.0355
v  -264.0837 287.0974 5.9016
v  -260.8446 285.4331 5.9016
v  -260.8446 285.4331 10.0354
v  -264.0837 287.0974 10.0354
v  -34.4309 285.4331 5.9016
v  -34.4309 285.4331 10.0355
v  -31.1919 287.0974 5.9016
v  -29.5276 290.3364 5.9016
v  -29.5276 290.3364 10.0355
v  -31.1919 287.0974 10.0355
v  -29.5276 398.6399 5.9016
v  -29.5276 398.6399 10.0355
v  -31.1919 401.8790 5.9016
v  -31.1919 401.8790 10.0355
v  -262.8958 288.2411 10.0355
v  -264.5432 291.4156 10.0355
v  -30.7325 397.5608 10.0355
v  -32.3797 400.7353 10.0355
v  -35.5857 402.3664 10.0355
v  -259.6898 402.3663 10.0355
v  -262.8958 400.7352 10.0355
v  -264.5431 397.5607 10.0355
v  -259.6898 286.6100 10.0354
v  -35.5858 286.6100 10.0355
v  -32.3797 288.2411 10.0355
v  -30.7324 291.4156 10.0355
v  260.8447 403.5432 5.9016
v  34.4310 403.5433 5.9016
v  34.4310 403.5433 10.0355
v  260.8447 403.5432 10.0355
v  31.1919 401.8790 5.9016
v  29.5276 398.6399 5.9016
v  29.5276 398.6399 10.0355
v  31.1919 401.8790 10.0355
v  29.5276 290.3364 5.9016
v  29.5275 290.3364 10.0355
v  31.1919 287.0974 5.9016
v  34.4310 285.4331 5.9016
v  34.4309 285.4331 10.0355
v  31.1918 287.0974 10.0355
v  260.8446 285.4331 5.9016
v  260.8446 285.4331 10.0355
v  264.0837 287.0974 5.9016
v  265.7480 290.3364 5.9016
v  265.7480 290.3364 10.0355
v  264.0837 287.0974 10.0355
v  265.7480 398.6400 5.9016
v  265.7480 398.6400 10.0355
v  264.0837 401.8790 5.9016
v  264.0837 401.8790 10.0355
v  32.3797 288.2411 10.0355
v  30.7324 291.4156 10.0355
v  264.5431 397.5608 10.0355
v  262.8958 400.7352 10.0355
v  259.6898 402.3663 10.0355
v  35.5858 402.3664 10.0355
v  32.3798 400.7353 10.0355
v  30.7325 397.5607 10.0355
v  35.5858 286.6100 10.0354
v  259.6898 286.6100 10.0355
v  262.8959 288.2411 10.0355
v  264.5432 291.4156 10.0355
v  360.5095 0.0005 -10.5648
v  348.1519 0.0005 -10.5648
v  348.1519 393.7002 -10.5648
v  360.5095 393.7002 -10.5647
v  343.7659 0.0005 -6.1788
v  343.7659 393.7002 -6.1788
v  343.7658 0.0005 6.1788
v  343.7658 393.7002 6.1789
v  348.1519 0.0005 10.5648
v  348.1519 393.7002 10.5648
v  360.5095 0.0005 10.5648
v  360.5095 393.7002 10.5649
v  364.8955 0.0005 6.1788
v  364.8955 393.7002 6.1789
v  364.8955 0.0005 -6.1789
v  364.8955 393.7002 -6.1788
v  -348.1519 0.0005 -10.5648
v  -360.5095 0.0005 -10.5648
v  -360.5095 393.7002 -10.5648
v  -348.1519 393.7002 -10.5647
v  -364.8955 0.0005 -6.1788
v  -364.8955 393.7002 -6.1788
v  -364.8955 0.0005 6.1788
v  -364.8955 393.7002 6.1789
v  -360.5095 0.0005 10.5648
v  -360.5095 393.7002 10.5648
v  -348.1519 0.0005 10.5648
v  -348.1519 393.7002 10.5648
v  -343.7659 0.0005 6.1788
v  -343.7659 393.7002 6.1789
v  -343.7659 0.0005 -6.1789
v  -343.7659 393.7002 -6.1788
v  -355.6167 311.2533 -6.3388
v  -355.6167 318.6678 -6.3388
v  355.6167 318.6679 -6.3389
v  355.6167 311.2533 -6.3389
v  -355.6167 321.2994 -3.7072
v  355.6167 321.2995 -3.7073
v  -355.6167 321.2995 3.7074
v  355.6167 321.2996 3.7073
v  -355.6167 318.6679 6.3390
v  355.6167 318.6679 6.3389
v  -355.6167 311.2533 6.3390
v  355.6167 311.2534 6.3389
v  -355.6167 308.6217 3.7074
v  355.6167 308.6217 3.7073
v  -355.6167 308.6217 -3.7072
v  355.6167 308.6217 -3.7073
v  -355.6167 370.3083 -6.3388
v  -355.6167 377.7230 -6.3388
v  355.6167 377.7230 -6.3389
v  355.6167 370.3084 -6.3389
v  -355.6167 380.3546 -3.7072
v  355.6167 380.3546 -3.7073
v  -355.6168 380.3546 3.7074
v  355.6167 380.3547 3.7073
v  -355.6167 377.7230 6.3390
v  355.6167 377.7230 6.3389
v  -355.6167 370.3084 6.3390
v  355.6167 370.3085 6.3389
v  -355.6168 367.6768 3.7074
v  355.6167 367.6768 3.7073
v  -355.6168 367.6768 -3.7072
v  355.6167 367.6768 -3.7073
v  361.5909 304.1339 -12.4136
v  347.0706 304.1339 -12.4136
v  347.0706 325.7874 -12.4136
v  361.5909 325.7874 -12.4136
v  341.9171 304.1339 -7.2601
v  341.9171 325.7874 -7.2601
v  341.9170 304.1339 7.2602
v  341.9170 325.7874 7.2602
v  347.0706 304.1339 12.4137
v  347.0706 325.7874 12.4137
v  361.5908 304.1339 12.4137
v  361.5908 325.7874 12.4137
v  366.7443 304.1339 7.2602
v  366.7443 325.7874 7.2602
v  366.7443 304.1339 -7.2601
v  366.7443 325.7874 -7.2601
v  -1.5447 376.0692 -2.6411
v  1.5447 376.0692 -2.6411
v  1.5447 313.4883 -2.6412
v  -1.5447 313.4883 -2.6412
v  2.6412 376.0692 -1.5446
v  2.6412 313.4883 -1.5447
v  2.6412 376.0692 1.5448
v  2.6412 313.4883 1.5447
v  1.5447 376.0692 2.6413
v  1.5447 313.4883 2.6412
v  -1.5447 376.0692 2.6413
v  -1.5447 313.4883 2.6412
v  -2.6412 376.0692 1.5448
v  -2.6412 313.4883 1.5447
v  -2.6412 376.0692 -1.5447
v  -2.6412 313.4883 -1.5447
v  333.0547 310.2647 -8.0292
v  333.0547 319.6565 -8.0292
v  348.8027 319.6565 -8.0292
v  348.8027 310.2647 -8.0292
v  333.0547 322.9898 -4.6959
v  348.8027 322.9898 -4.6959
v  333.0547 322.9899 4.6959
v  348.8027 322.9899 4.6959
v  333.0547 319.6565 8.0293
v  348.8028 319.6565 8.0293
v  333.0547 310.2647 8.0293
v  348.8027 310.2647 8.0293
v  333.0548 306.9313 4.6959
v  348.8028 306.9313 4.6959
v  333.0547 306.9314 -4.6959
v  348.8028 306.9314 -4.6959
v  333.0547 369.3198 -8.0292
v  333.0547 378.7116 -8.0292
v  348.8027 378.7116 -8.0292
v  348.8027 369.3198 -8.0292
v  333.0547 382.0450 -4.6959
v  348.8027 382.0450 -4.6959
v  333.0547 382.0450 4.6959
v  348.8027 382.0450 4.6959
v  333.0547 378.7116 8.0293
v  348.8027 378.7116 8.0293
v  333.0547 369.3198 8.0293
v  348.8027 369.3198 8.0293
v  333.0547 365.9865 4.6959
v  348.8027 365.9865 4.6959
v  333.0547 365.9865 -4.6959
v  348.8027 365.9865 -4.6959
v  361.5909 363.1890 -12.4136
v  347.0706 363.1890 -12.4136
v  347.0706 384.8425 -12.4136
v  361.5909 384.8425 -12.4136
v  341.9171 363.1890 -7.2601
v  341.9171 384.8425 -7.2601
v  341.9170 363.1890 7.2602
v  341.9170 384.8425 7.2602
v  347.0706 363.1890 12.4137
v  347.0706 384.8425 12.4137
v  361.5908 363.1890 12.4137
v  361.5908 384.8425 12.4137
v  366.7443 363.1890 7.2602
v  366.7443 384.8425 7.2602
v  366.7443 363.1890 -7.2601
v  366.7443 384.8425 -7.2601
v  -347.0706 363.1890 -12.4136
v  -361.5908 363.1890 -12.4136
v  -361.5908 384.8425 -12.4136
v  -347.0706 384.8425 -12.4136
v  -366.7443 363.1890 -7.2601
v  -366.7443 384.8425 -7.2601
v  -366.7444 363.1890 7.2601
v  -366.7444 384.8425 7.2601
v  -361.5908 363.1890 12.4137
v  -361.5908 384.8425 12.4137
v  -347.0706 363.1890 12.4137
v  -347.0706 384.8425 12.4137
v  -341.9171 363.1890 7.2602
v  -341.9171 384.8425 7.2602
v  -341.9171 363.1890 -7.2601
v  -341.9171 384.8425 -7.2601
v  -347.0706 304.1339 -12.4136
v  -361.5908 304.1339 -12.4136
v  -361.5908 325.7874 -12.4136
v  -347.0706 325.7874 -12.4136
v  -366.7443 304.1339 -7.2601
v  -366.7443 325.7874 -7.2601
v  -366.7444 304.1339 7.2601
v  -366.7444 325.7874 7.2601
v  -361.5908 304.1339 12.4136
v  -361.5908 325.7874 12.4137
v  -347.0706 304.1339 12.4137
v  -347.0706 325.7874 12.4137
v  -341.9170 304.1339 7.2602
v  -341.9170 325.7874 7.2602
v  -341.9170 304.1339 -7.2601
v  -341.9171 325.7874 -7.2601
v  -348.8027 369.3198 -8.0292
v  -348.8027 378.7116 -8.0292
v  -333.0547 378.7116 -8.0292
v  -333.0547 369.3198 -8.0292
v  -348.8027 382.0450 -4.6959
v  -333.0547 382.0450 -4.6959
v  -348.8027 382.0450 4.6959
v  -333.0547 382.0450 4.6959
v  -348.8027 378.7116 8.0293
v  -333.0547 378.7116 8.0293
v  -348.8027 369.3198 8.0293
v  -333.0547 369.3198 8.0293
v  -348.8027 365.9865 4.6959
v  -333.0547 365.9865 4.6959
v  -348.8027 365.9865 -4.6959
v  -333.0547 365.9865 -4.6959
v  -348.8027 310.2647 -8.0292
v  -348.8027 319.6565 -8.0292
v  -333.0547 319.6565 -8.0292
v  -333.0547 310.2647 -8.0292
v  -348.8027 322.9898 -4.6959
v  -333.0547 322.9898 -4.6959
v  -348.8027 322.9899 4.6959
v  -333.0547 322.9899 4.6959
v  -348.8027 319.6565 8.0293
v  -333.0547 319.6565 8.0293
v  -348.8027 310.2647 8.0293
v  -333.0547 310.2647 8.0293
v  -348.8027 306.9314 4.6959
v  -333.0547 306.9314 4.6959
v  -348.8027 306.9314 -4.6959
v  -333.0547 306.9314 -4.6959
v  361.5909 393.7008 -12.4136
v  347.0706 393.7008 -12.4136
v  347.0706 397.8347 -12.4136
v  361.5908 397.8347 -12.4136
v  341.9171 393.7008 -7.2601
v  341.9171 397.8347 -7.2601
v  341.9170 393.7008 7.2602
v  341.9170 397.8347 7.2602
v  347.0706 393.7008 12.4137
v  347.0706 397.8347 12.4137
v  361.5908 393.7008 12.4137
v  361.5908 397.8347 12.4137
v  366.7443 393.7008 7.2602
v  366.7443 397.8347 7.2602
v  366.7443 393.7008 -7.2601
v  366.7443 397.8347 -7.2601
v  -347.0706 393.7007 -12.4136
v  -361.5908 393.7007 -12.4136
v  -361.5908 397.8346 -12.4136
v  -347.0706 397.8346 -12.4136
v  -366.7443 393.7007 -7.2601
v  -366.7443 397.8346 -7.2601
v  -366.7444 393.7007 7.2602
v  -366.7444 397.8346 7.2601
v  -361.5908 393.7007 12.4137
v  -361.5908 397.8346 12.4137
v  -347.0706 393.7007 12.4137
v  -347.0706 397.8346 12.4137
v  -341.9171 393.7007 7.2602
v  -341.9171 397.8346 7.2602
v  -341.9171 393.7007 -7.2601
v  -341.9171 397.8346 -7.2601
v  334.6457 3.9370 19.6850
v  334.6456 3.9370 -19.6850
v  334.6456 -0.0000 -19.6850
v  334.6457 -0.0000 19.6850
v  374.0157 3.9370 -19.6850
v  374.0157 0.0000 -19.6850
v  374.0157 3.9370 19.6850
v  374.0157 0.0000 19.6850
v  371.5908 3.9370 -18.3736
v  372.7043 3.9370 -17.2601
v  372.7043 0.0000 -17.2601
v  371.5908 0.0000 -18.3736
v  354.8875 20.1789 0.5568
v  337.0706 3.9370 18.3736
v  337.0706 -0.0000 18.3736
v  354.8875 -0.0000 0.5568
v  335.9571 3.9370 17.2601
v  335.9571 -0.0000 17.2601
v  353.7739 20.1789 -0.5568
v  353.7739 -0.0000 -0.5568
v  372.7043 3.9370 17.2601
v  371.5908 3.9370 18.3736
v  371.5908 0.0000 18.3736
v  372.7043 0.0000 17.2601
v  353.7739 20.1789 0.5568
v  335.9571 3.9370 -17.2601
v  335.9571 -0.0000 -17.2601
v  353.7739 -0.0000 0.5568
v  337.0706 3.9370 -18.3736
v  337.0706 -0.0000 -18.3736
v  354.8875 20.1789 -0.5568
v  354.8875 -0.0000 -0.5568
v  -374.0157 3.9370 19.6850
v  -374.0157 3.9370 -19.6850
v  -374.0157 -0.0000 -19.6850
v  -374.0157 -0.0000 19.6850
v  -334.6457 3.9370 -19.6850
v  -334.6457 0.0000 -19.6850
v  -334.6456 3.9370 19.6850
v  -334.6456 0.0000 19.6850
v  -337.0706 3.9370 -18.3736
v  -335.9571 3.9370 -17.2601
v  -335.9571 0.0000 -17.2601
v  -337.0706 0.0000 -18.3736
v  -353.7739 20.1789 0.5568
v  -371.5908 3.9370 18.3736
v  -371.5908 -0.0000 18.3736
v  -353.7739 0.0000 0.5568
v  -372.7043 3.9370 17.2601
v  -372.7043 -0.0000 17.2601
v  -354.8875 20.1789 -0.5568
v  -354.8875 0.0000 -0.5568
v  -335.9571 3.9370 17.2601
v  -337.0706 3.9370 18.3736
v  -337.0706 0.0000 18.3736
v  -335.9571 0.0000 17.2601
v  -354.8875 20.1789 0.5568
v  -372.7043 3.9370 -17.2601
v  -372.7043 -0.0000 -17.2601
v  -354.8875 0.0000 0.5568
v  -371.5908 3.9370 -18.3736
v  -371.5908 -0.0000 -18.3736
v  -353.7739 20.1789 -0.5568
v  -353.7739 0.0000 -0.5568
v  69.3214 376.0692 -2.6411
v  72.4108 376.0692 -2.6411
v  72.4108 313.4883 -2.6412
v  69.3214 313.4883 -2.6412
v  73.5073 376.0692 -1.5446
v  73.5073 313.4883 -1.5447
v  73.5074 376.0692 1.5448
v  73.5073 313.4883 1.5447
v  72.4109 376.0692 2.6413
v  72.4108 313.4883 2.6412
v  69.3214 376.0692 2.6413
v  69.3214 313.4883 2.6412
v  68.2249 376.0692 1.5448
v  68.2249 313.4883 1.5447
v  68.2249 376.0692 -1.5447
v  68.2249 313.4883 -1.5447
v  140.1876 376.0692 -2.6411
v  143.2770 376.0692 -2.6411
v  143.2770 313.4883 -2.6412
v  140.1876 313.4883 -2.6412
v  144.3735 376.0692 -1.5446
v  144.3735 313.4883 -1.5447
v  144.3735 376.0692 1.5448
v  144.3735 313.4883 1.5447
v  143.2770 376.0692 2.6413
v  143.2770 313.4883 2.6412
v  140.1876 376.0692 2.6413
v  140.1876 313.4883 2.6412
v  139.0911 376.0692 1.5448
v  139.0911 313.4883 1.5447
v  139.0911 376.0692 -1.5447
v  139.0911 313.4883 -1.5447
v  211.0537 376.0692 -2.6411
v  214.1431 376.0692 -2.6411
v  214.1431 313.4883 -2.6412
v  211.0537 313.4883 -2.6412
v  215.2396 376.0692 -1.5446
v  215.2396 313.4883 -1.5447
v  215.2397 376.0692 1.5448
v  215.2396 313.4883 1.5447
v  214.1431 376.0692 2.6413
v  214.1431 313.4883 2.6412
v  211.0537 376.0692 2.6413
v  211.0537 313.4883 2.6412
v  209.9572 376.0692 1.5448
v  209.9572 313.4883 1.5447
v  209.9572 376.0692 -1.5447
v  209.9572 313.4883 -1.5447
v  281.9199 376.0692 -2.6411
v  285.0093 376.0692 -2.6411
v  285.0092 313.4883 -2.6412
v  281.9198 313.4883 -2.6412
v  286.1058 376.0692 -1.5447
v  286.1057 313.4883 -1.5447
v  286.1058 376.0692 1.5448
v  286.1058 313.4883 1.5447
v  285.0093 376.0692 2.6413
v  285.0092 313.4883 2.6412
v  281.9199 376.0692 2.6413
v  281.9199 313.4883 2.6412
v  280.8234 376.0692 1.5448
v  280.8233 313.4883 1.5447
v  280.8234 376.0692 -1.5447
v  280.8234 313.4883 -1.5447
v  -72.4108 376.0692 -2.6411
v  -69.3214 376.0692 -2.6411
v  -69.3214 313.4882 -2.6412
v  -72.4109 313.4882 -2.6412
v  -68.2249 376.0692 -1.5446
v  -68.2250 313.4882 -1.5447
v  -68.2249 376.0692 1.5448
v  -68.2249 313.4882 1.5447
v  -69.3214 376.0692 2.6413
v  -69.3214 313.4882 2.6412
v  -72.4108 376.0692 2.6413
v  -72.4109 313.4882 2.6412
v  -73.5073 376.0692 1.5448
v  -73.5074 313.4882 1.5447
v  -73.5073 376.0692 -1.5447
v  -73.5073 313.4882 -1.5447
v  -143.2770 376.0692 -2.6411
v  -140.1876 376.0692 -2.6411
v  -140.1876 313.4883 -2.6412
v  -143.2770 313.4883 -2.6412
v  -139.0911 376.0692 -1.5446
v  -139.0911 313.4883 -1.5447
v  -139.0911 376.0692 1.5448
v  -139.0911 313.4883 1.5447
v  -140.1876 376.0692 2.6413
v  -140.1876 313.4883 2.6412
v  -143.2770 376.0692 2.6413
v  -143.2770 313.4883 2.6412
v  -144.3735 376.0692 1.5448
v  -144.3735 313.4883 1.5447
v  -144.3735 376.0692 -1.5447
v  -144.3735 313.4883 -1.5447
v  -214.1431 376.0692 -2.6411
v  -211.0537 376.0692 -2.6411
v  -211.0537 313.4883 -2.6412
v  -214.1431 313.4883 -2.6412
v  -209.9572 376.0692 -1.5447
v  -209.9572 313.4883 -1.5447
v  -209.9572 376.0692 1.5448
v  -209.9572 313.4883 1.5447
v  -211.0537 376.0692 2.6413
v  -211.0537 313.4883 2.6412
v  -214.1431 376.0692 2.6413
v  -214.1431 313.4883 2.6412
v  -215.2396 376.0692 1.5448
v  -215.2396 313.4883 1.5447
v  -215.2396 376.0692 -1.5447
v  -215.2396 313.4883 -1.5447
v  -285.0093 376.0692 -2.6411
v  -281.9199 376.0692 -2.6411
v  -281.9199 313.4883 -2.6412
v  -285.0093 313.4883 -2.6412
v  -280.8234 376.0692 -1.5446
v  -280.8234 313.4883 -1.5447
v  -280.8233 376.0692 1.5448
v  -280.8233 313.4883 1.5447
v  -281.9199 376.0692 2.6413
v  -281.9199 313.4883 2.6412
v  -285.0092 376.0692 2.6413
v  -285.0092 313.4883 2.6412
v  -286.1057 376.0692 1.5448
v  -286.1058 313.4883 1.5447
v  -286.1057 376.0692 -1.5447
v  -286.1057 313.4883 -1.5447
# 504 vertices

vn 0.0000 1.0000 0.0000
vn -0.8895 0.4570 0.0000
vn -1.0000 0.0000 0.0000
vn -0.4570 -0.8895 -0.0000
vn -0.0000 -1.0000 -0.0000
vn 0.8895 -0.4570 -0.0000
vn 1.0000 0.0000 0.0000
vn 0.4570 0.8895 0.0000
vn -0.0000 -0.0000 1.0000
vn 0.0000 0.0000 -1.0000
vn -0.0000 0.0000 -1.0000
vn 0.8895 0.4570 0.0000
vn 0.4570 -0.8895 -0.0000
vn -0.4570 0.8895 0.0000
vn -0.8895 -0.4570 -0.0000
vn -0.0000 0.0000 1.0000
vn 0.0000 -0.0000 1.0000
vn 0.0000 0.0000 1.0000
vn -0.8895 0.4570 -0.0000
vn -1.0000 0.0000 -0.0000
vn -0.4570 -0.8895 0.0000
vn 0.0000 -0.0000 -1.0000
vn -0.7071 0.0000 -0.7071
vn -1.0000 -0.0000 -0.0000
vn -0.7071 -0.0000 0.7071
vn 0.7071 -0.0000 0.7071
vn 1.0000 0.0000 -0.0000
vn 0.7071 0.0000 -0.7071
vn -0.0000 -1.0000 0.0000
vn 0.0000 -1.0000 0.0000
vn -0.0000 -0.0000 -1.0000
vn -0.0000 0.7071 -0.7071
vn -0.0000 1.0000 -0.0000
vn 0.0000 0.7071 0.7071
vn 0.0000 -0.7071 0.7071
vn 0.0000 -1.0000 -0.0000
vn -0.0000 -0.7071 -0.7071
vn -1.0000 -0.0000 0.0000
vn 1.0000 -0.0000 -0.0000
vn -0.0000 -0.7071 0.7071
vn 1.0000 -0.0000 0.0000
vn 0.0000 0.7071 -0.7071
vn 0.0000 1.0000 -0.0000
vn -0.7071 -0.0000 -0.7071
vn 0.7071 0.0000 0.7071
vn 0.0000 -0.7071 -0.7071
vn -0.7071 0.0000 0.7071
vn 0.7071 -0.0000 -0.7071
vn -0.0000 1.0000 0.0000
vn 0.3831 0.8405 -0.3831
vn -0.3831 0.8405 0.3831
vn 0.3831 0.8405 0.3831
vn -0.3831 0.8405 -0.3831
# 53 vertex normals

vt 0.0120 0.9341 0.0000
vt 0.0278 0.9341 0.0000
vt 0.0278 0.9500 0.0000
vt 0.0120 0.9500 0.0000
vt 0.8468 0.8517 0.0000
vt 0.8626 0.8517 0.0000
vt 0.0199 0.9500 0.0000
vt 0.0238 0.9489 0.0000
vt 0.0268 0.9460 0.0000
vt 0.0278 0.9420 0.0000
vt 0.0268 0.9381 0.0000
vt 0.0238 0.9352 0.0000
vt 0.0199 0.9341 0.0000
vt 0.0159 0.9352 0.0000
vt 0.0130 0.9381 0.0000
vt 0.0120 0.9420 0.0000
vt 0.0130 0.9460 0.0000
vt 0.0159 0.9489 0.0000
vt 0.5778 0.9875 0.0000
vt 0.5749 0.9930 0.0000
vt 0.5692 0.9959 0.0000
vt 0.1728 0.9959 0.0000
vt 0.1671 0.9930 0.0000
vt 0.1642 0.9875 0.0000
vt 0.1642 0.8017 0.0000
vt 0.1671 0.7962 0.0000
vt 0.1728 0.7933 0.0000
vt 0.5692 0.7933 0.0000
vt 0.5749 0.7962 0.0000
vt 0.5778 0.8017 0.0000
vt 0.9960 0.9875 0.0000
vt 0.9931 0.9930 0.0000
vt 0.9874 0.9959 0.0000
vt 0.5910 0.9959 0.0000
vt 0.5853 0.9930 0.0000
vt 0.5824 0.9875 0.0000
vt 0.5824 0.8017 0.0000
vt 0.5853 0.7962 0.0000
vt 0.5910 0.7933 0.0000
vt 0.9874 0.7933 0.0000
vt 0.9931 0.7962 0.0000
vt 0.9960 0.8017 0.0000
vt 0.0149 0.8963 0.0000
vt 0.0249 0.8963 0.0000
vt 0.0249 0.9063 0.0000
vt 0.0149 0.9063 0.0000
vt 0.0199 0.9063 0.0000
vt 0.0234 0.9048 0.0000
vt 0.0249 0.9013 0.0000
vt 0.0234 0.8977 0.0000
vt 0.0199 0.8963 0.0000
vt 0.0163 0.8977 0.0000
vt 0.0149 0.9013 0.0000
vt 0.0163 0.9048 0.0000
# 54 texture coords

g SPW_Urban_Road_Sign_Highway_01
usemtl SPW_Urban_Road_Props_02
s off
f 1/1/1 2/2/1 3/3/1 4/4/1 
f 5/1/2 6/2/2 7/3/2 8/4/2 
f 6/1/3 9/2/3 10/3/3 7/4/3 
f 11/1/4 12/2/4 13/3/4 14/4/4 
f 12/1/5 15/2/5 16/3/5 13/4/5 
f 17/1/6 18/2/6 19/3/6 20/4/6 
f 18/1/7 21/2/7 22/3/7 19/4/7 
f 23/1/8 1/2/8 4/3/8 24/4/8 
f 10/5/9 14/6/9 25/6/9 26/5/9 
f 1/7/10 23/8/10 21/9/10 18/10/10 
f 1/7/11 18/10/11 17/11/11 15/12/11 
f 1/7/10 15/12/10 12/13/10 11/14/10 
f 1/7/10 11/14/10 9/15/10 6/16/10 
f 1/7/10 6/16/10 5/17/10 2/18/10 
f 21/1/12 23/2/12 24/3/12 22/4/12 
f 15/1/13 17/2/13 20/3/13 16/4/13 
f 2/1/14 5/2/14 8/3/14 3/4/14 
f 9/1/15 11/2/15 14/3/15 10/4/15 
s 1
f 27/19/16 28/20/9 29/21/16 30/22/9 
f 27/19/16 30/22/9 31/23/16 32/24/16 
f 27/19/16 32/24/16 26/25/16 25/26/16 
f 27/19/16 25/26/16 33/27/17 34/28/9 
f 27/19/16 34/28/9 35/29/16 36/30/9 
f 3/5/9 8/6/9 31/6/16 30/5/9 
s 2
f 16/5/16 20/6/16 35/6/16 34/5/16 
s off
f 22/5/18 24/6/18 28/6/18 27/5/18 
s 1
f 4/5/16 3/6/9 30/6/9 29/5/16 
s off
f 8/5/16 7/6/16 32/6/16 31/5/16 
f 7/5/9 10/6/9 26/6/9 32/5/9 
f 14/5/9 13/6/9 33/6/9 25/5/9 
s 2
f 13/5/9 16/6/16 34/6/16 33/5/9 
s 1
f 20/5/16 19/6/17 36/6/9 35/5/16 
s off
f 19/5/17 22/6/17 27/6/17 36/5/17 
s 1
f 24/5/16 4/6/16 29/6/16 28/5/9 
s off
f 37/1/1 38/2/1 39/3/1 40/4/1 
f 41/1/19 42/2/19 43/3/19 44/4/19 
f 42/1/20 45/2/20 46/3/20 43/4/20 
f 47/1/21 48/2/21 49/3/21 50/4/21 
f 48/1/5 51/2/5 52/3/5 49/4/5 
f 53/1/6 54/2/6 55/3/6 56/4/6 
f 54/1/7 57/2/7 58/3/7 55/4/7 
f 59/1/8 37/2/8 40/3/8 60/4/8 
s 5
f 46/5/18 50/6/18 61/6/17 62/5/18 
s off
f 37/7/11 59/8/11 57/9/11 54/10/11 
f 37/7/11 54/10/11 53/11/11 51/12/11 
f 37/7/10 51/12/10 48/13/10 47/14/10 
f 37/7/10 47/14/10 45/15/10 42/16/10 
f 37/7/22 42/16/22 41/17/22 38/18/22 
f 57/1/12 59/2/12 60/3/12 58/4/12 
f 51/1/13 53/2/13 56/3/13 52/4/13 
f 38/1/14 41/2/14 44/3/14 39/4/14 
f 45/1/15 47/2/15 50/3/15 46/4/15 
s 3
f 63/31/18 64/32/18 65/33/18 66/34/9 
f 63/31/18 66/34/9 67/35/16 68/36/9 
f 63/31/18 68/36/9 62/37/18 61/38/17 
f 63/31/18 61/38/17 69/39/17 70/40/9 
f 63/31/18 70/40/9 71/41/9 72/42/9 
s off
f 39/5/16 44/6/16 67/6/16 66/5/16 
f 52/5/16 56/6/16 71/6/16 70/5/16 
f 58/5/18 60/6/18 64/6/18 63/5/18 
f 40/5/16 39/6/16 66/6/16 65/5/16 
f 44/5/16 43/6/16 68/6/16 67/5/16 
s 2
f 43/5/9 46/6/17 62/6/18 68/5/9 
s 4
f 50/5/18 49/6/18 69/6/18 61/5/17 
s off
f 49/5/16 52/6/16 70/6/16 69/5/16 
s 1
f 56/5/17 55/6/9 72/6/9 71/5/9 
s off
f 55/5/17 58/6/17 63/6/17 72/5/17 
s 1
f 60/5/17 40/6/17 65/6/18 64/5/18 
s off
f 73/43/10 74/44/10 75/45/10 76/46/10 
f 74/43/23 77/44/23 78/45/23 75/46/23 
f 77/43/24 79/44/24 80/45/24 78/46/24 
f 79/43/25 81/44/25 82/45/25 80/46/25 
f 81/43/9 83/44/9 84/45/9 82/46/9 
f 83/43/26 85/44/26 86/45/26 84/46/26 
f 85/43/27 87/44/27 88/45/27 86/46/27 
f 87/43/28 73/44/28 76/45/28 88/46/28 
f 88/47/1 76/48/1 75/49/1 78/50/1 
f 88/47/1 78/50/1 80/51/1 82/52/1 
f 88/47/1 82/52/1 84/53/1 86/54/1 
f 73/47/29 87/48/29 85/49/29 83/50/29 
f 73/47/30 83/50/30 81/51/30 79/52/30 
f 73/47/30 79/52/30 77/53/30 74/54/30 
f 89/43/10 90/44/10 91/45/10 92/46/10 
f 90/43/23 93/44/23 94/45/23 91/46/23 
f 93/43/20 95/44/20 96/45/20 94/46/20 
f 95/43/25 97/44/25 98/45/25 96/46/25 
f 97/43/9 99/44/9 100/45/9 98/46/9 
f 99/43/26 101/44/26 102/45/26 100/46/26 
f 101/43/27 103/44/27 104/45/27 102/46/27 
f 103/43/28 89/44/28 92/45/28 104/46/28 
f 104/47/1 92/48/1 91/49/1 94/50/1 
f 104/47/1 94/50/1 96/51/1 98/52/1 
f 104/47/1 98/52/1 100/53/1 102/54/1 
f 89/47/29 103/48/29 101/49/29 99/50/29 
f 89/47/30 99/50/30 97/51/30 95/52/30 
f 89/47/30 95/52/30 93/53/30 90/54/30 
f 105/43/31 106/44/31 107/45/31 108/46/31 
f 106/43/32 109/44/32 110/45/32 107/46/32 
f 109/43/33 111/44/33 112/45/33 110/46/33 
f 111/43/34 113/44/34 114/45/34 112/46/34 
f 113/43/18 115/44/18 116/45/18 114/46/18 
f 115/43/35 117/44/35 118/45/35 116/46/35 
f 117/43/36 119/44/36 120/45/36 118/46/36 
f 119/43/37 105/44/37 108/45/37 120/46/37 
f 120/47/27 108/48/27 107/49/27 110/50/27 
f 120/47/27 110/50/27 112/51/27 114/52/27 
f 120/47/27 114/52/27 116/53/27 118/54/27 
f 105/47/20 119/48/20 117/49/20 115/50/20 
f 105/47/20 115/50/20 113/51/20 111/52/20 
f 105/47/20 111/52/20 109/53/20 106/54/20 
f 121/43/31 122/44/31 123/45/31 124/46/31 
f 122/43/32 125/44/32 126/45/32 123/46/32 
f 125/43/33 127/44/33 128/45/33 126/46/33 
f 127/43/34 129/44/34 130/45/34 128/46/34 
f 129/43/18 131/44/18 132/45/18 130/46/18 
f 131/43/35 133/44/35 134/45/35 132/46/35 
f 133/43/36 135/44/36 136/45/36 134/46/36 
f 135/43/37 121/44/37 124/45/37 136/46/37 
f 136/47/27 124/48/27 123/49/27 126/50/27 
f 136/47/27 126/50/27 128/51/27 130/52/27 
f 136/47/27 130/52/27 132/53/27 134/54/27 
f 121/47/3 135/48/3 133/49/3 131/50/3 
f 121/47/38 131/50/38 129/51/38 127/52/38 
f 121/47/20 127/52/20 125/53/20 122/54/20 
f 137/43/10 138/44/10 139/45/10 140/46/10 
f 138/43/23 141/44/23 142/45/23 139/46/23 
f 141/43/20 143/44/20 144/45/20 142/46/20 
f 143/43/25 145/44/25 146/45/25 144/46/25 
f 145/43/9 147/44/9 148/45/9 146/46/9 
f 147/43/26 149/44/26 150/45/26 148/46/26 
f 149/43/27 151/44/27 152/45/27 150/46/27 
f 151/43/28 137/44/28 140/45/28 152/46/28 
f 152/47/1 140/48/1 139/49/1 142/50/1 
f 152/47/1 142/50/1 144/51/1 146/52/1 
f 152/47/1 146/52/1 148/53/1 150/54/1 
f 137/47/36 151/48/36 149/49/36 147/50/36 
f 137/47/36 147/50/36 145/51/36 143/52/36 
f 137/47/36 143/52/36 141/53/36 138/54/36 
f 153/43/11 154/44/11 155/45/11 156/46/11 
f 154/43/28 157/44/28 158/45/28 155/46/28 
f 157/43/39 159/44/39 160/45/39 158/46/39 
f 159/43/26 161/44/26 162/45/26 160/46/26 
f 161/43/17 163/44/17 164/45/17 162/46/17 
f 163/43/25 165/44/25 166/45/25 164/46/25 
f 165/43/20 167/44/20 168/45/20 166/46/20 
f 167/43/23 153/44/23 156/45/23 168/46/23 
f 168/47/36 156/48/36 155/49/36 158/50/36 
f 168/47/36 158/50/36 160/51/36 162/52/36 
f 168/47/36 162/52/36 164/53/36 166/54/36 
f 153/47/1 167/48/1 165/49/1 163/50/1 
f 153/47/1 163/50/1 161/51/1 159/52/1 
f 153/47/1 159/52/1 157/53/1 154/54/1 
f 169/43/31 170/44/31 171/45/31 172/46/31 
f 170/43/32 173/44/32 174/45/32 171/46/32 
f 173/43/33 175/44/33 176/45/33 174/46/33 
f 175/43/34 177/44/34 178/45/34 176/46/34 
f 177/43/18 179/44/18 180/45/18 178/46/18 
f 179/43/40 181/44/40 182/45/40 180/46/40 
f 181/43/5 183/44/5 184/45/5 182/46/5 
f 183/43/37 169/44/37 172/45/37 184/46/37 
f 184/47/27 172/48/27 171/49/27 174/50/27 
f 184/47/27 174/50/27 176/51/27 178/52/27 
f 184/47/41 178/52/41 180/53/41 182/54/41 
f 169/47/38 183/48/38 181/49/38 179/50/38 
f 169/47/20 179/50/20 177/51/20 175/52/20 
f 169/47/20 175/52/20 173/53/20 170/54/20 
f 185/43/31 186/44/31 187/45/31 188/46/31 
f 186/43/42 189/44/42 190/45/42 187/46/42 
f 189/43/43 191/44/43 192/45/43 190/46/43 
f 191/43/34 193/44/34 194/45/34 192/46/34 
f 193/43/18 195/44/18 196/45/18 194/46/18 
f 195/43/35 197/44/35 198/45/35 196/46/35 
f 197/43/36 199/44/36 200/45/36 198/46/36 
f 199/43/37 185/44/37 188/45/37 200/46/37 
f 200/47/27 188/48/27 187/49/27 190/50/27 
f 200/47/27 190/50/27 192/51/27 194/52/27 
f 200/47/41 194/52/41 196/53/41 198/54/41 
f 185/47/20 199/48/20 197/49/20 195/50/20 
f 185/47/20 195/50/20 193/51/20 191/52/20 
f 185/47/38 191/52/38 189/53/38 186/54/38 
f 201/43/10 202/44/10 203/45/10 204/46/10 
f 202/43/23 205/44/23 206/45/23 203/46/23 
f 205/43/20 207/44/20 208/45/20 206/46/20 
f 207/43/25 209/44/25 210/45/25 208/46/25 
f 209/43/9 211/44/9 212/45/9 210/46/9 
f 211/43/26 213/44/26 214/45/26 212/46/26 
f 213/43/27 215/44/27 216/45/27 214/46/27 
f 215/43/28 201/44/28 204/45/28 216/46/28 
f 216/47/1 204/48/1 203/49/1 206/50/1 
f 216/47/1 206/50/1 208/51/1 210/52/1 
f 216/47/1 210/52/1 212/53/1 214/54/1 
f 201/47/30 215/48/30 213/49/30 211/50/30 
f 201/47/30 211/50/30 209/51/30 207/52/30 
f 201/47/36 207/52/36 205/53/36 202/54/36 
f 217/43/10 218/44/10 219/45/10 220/46/10 
f 218/43/44 221/44/44 222/45/44 219/46/44 
f 221/43/24 223/44/24 224/45/24 222/46/24 
f 223/43/25 225/44/25 226/45/25 224/46/25 
f 225/43/9 227/44/9 228/45/9 226/46/9 
f 227/43/26 229/44/26 230/45/26 228/46/26 
f 229/43/27 231/44/27 232/45/27 230/46/27 
f 231/43/28 217/44/28 220/45/28 232/46/28 
f 232/47/1 220/48/1 219/49/1 222/50/1 
f 232/47/1 222/50/1 224/51/1 226/52/1 
f 232/47/1 226/52/1 228/53/1 230/54/1 
f 217/47/30 231/48/30 229/49/30 227/50/30 
f 217/47/30 227/50/30 225/51/30 223/52/30 
f 217/47/36 223/52/36 221/53/36 218/54/36 
f 233/43/10 234/44/10 235/45/10 236/46/10 
f 234/43/44 237/44/44 238/45/44 235/46/44 
f 237/43/24 239/44/24 240/45/24 238/46/24 
f 239/43/25 241/44/25 242/45/25 240/46/25 
f 241/43/9 243/44/9 244/45/9 242/46/9 
f 243/43/45 245/44/45 246/45/45 244/46/45 
f 245/43/27 247/44/27 248/45/27 246/46/27 
f 247/43/28 233/44/28 236/45/28 248/46/28 
f 248/47/1 236/48/1 235/49/1 238/50/1 
f 248/47/1 238/50/1 240/51/1 242/52/1 
f 248/47/1 242/52/1 244/53/1 246/54/1 
f 233/47/36 247/48/36 245/49/36 243/50/36 
f 233/47/36 243/50/36 241/51/36 239/52/36 
f 233/47/36 239/52/36 237/53/36 234/54/36 
f 249/43/22 250/44/22 251/45/22 252/46/22 
f 250/43/32 253/44/32 254/45/32 251/46/32 
f 253/43/33 255/44/33 256/45/33 254/46/33 
f 255/43/34 257/44/34 258/45/34 256/46/34 
f 257/43/18 259/44/18 260/45/18 258/46/18 
f 259/43/35 261/44/35 262/45/35 260/46/35 
f 261/43/36 263/44/36 264/45/36 262/46/36 
f 263/43/37 249/44/37 252/45/37 264/46/37 
f 264/47/27 252/48/27 251/49/27 254/50/27 
f 264/47/7 254/50/7 256/51/7 258/52/7 
f 264/47/27 258/52/27 260/53/27 262/54/27 
f 249/47/3 263/48/3 261/49/3 259/50/3 
f 249/47/20 259/50/20 257/51/20 255/52/20 
f 249/47/38 255/52/38 253/53/38 250/54/38 
f 265/43/22 266/44/22 267/45/22 268/46/22 
f 266/43/32 269/44/32 270/45/32 267/46/32 
f 269/43/33 271/44/33 272/45/33 270/46/33 
f 271/43/34 273/44/34 274/45/34 272/46/34 
f 273/43/18 275/44/18 276/45/18 274/46/18 
f 275/43/35 277/44/35 278/45/35 276/46/35 
f 277/43/36 279/44/36 280/45/36 278/46/36 
f 279/43/46 265/44/46 268/45/46 280/46/46 
f 280/47/27 268/48/27 267/49/27 270/50/27 
f 280/47/27 270/50/27 272/51/27 274/52/27 
f 280/47/27 274/52/27 276/53/27 278/54/27 
f 265/47/20 279/48/20 277/49/20 275/50/20 
f 265/47/24 275/50/24 273/51/24 271/52/24 
f 265/47/38 271/52/38 269/53/38 266/54/38 
f 281/43/22 282/44/22 283/45/22 284/46/22 
f 282/43/44 285/44/44 286/45/44 283/46/44 
f 285/43/24 287/44/24 288/45/24 286/46/24 
f 287/43/47 289/44/47 290/45/47 288/46/47 
f 289/43/9 291/44/9 292/45/9 290/46/9 
f 291/43/45 293/44/45 294/45/45 292/46/45 
f 293/43/39 295/44/39 296/45/39 294/46/39 
f 295/43/28 281/44/28 284/45/28 296/46/28 
f 296/47/1 284/48/1 283/49/1 286/50/1 
f 296/47/1 286/50/1 288/51/1 290/52/1 
f 296/47/1 290/52/1 292/53/1 294/54/1 
f 281/47/36 295/48/36 293/49/36 291/50/36 
f 281/47/36 291/50/36 289/51/36 287/52/36 
f 281/47/36 287/52/36 285/53/36 282/54/36 
f 297/43/22 298/44/22 299/45/22 300/46/22 
f 298/43/44 301/44/44 302/45/44 299/46/44 
f 301/43/24 303/44/24 304/45/24 302/46/24 
f 303/43/47 305/44/47 306/45/47 304/46/47 
f 305/43/9 307/44/9 308/45/9 306/46/9 
f 307/43/45 309/44/45 310/45/45 308/46/45 
f 309/43/27 311/44/27 312/45/27 310/46/27 
f 311/43/48 297/44/48 300/45/48 312/46/48 
f 312/47/1 300/48/1 299/49/1 302/50/1 
f 312/47/1 302/50/1 304/51/1 306/52/1 
f 312/47/1 306/52/1 308/53/1 310/54/1 
f 297/47/36 311/48/36 309/49/36 307/50/36 
f 297/47/36 307/50/36 305/51/36 303/52/36 
f 297/47/36 303/52/36 301/53/36 298/54/36 
f 313/43/38 314/44/38 315/45/38 316/46/38 
f 314/43/11 317/44/11 318/45/11 315/46/11 
f 317/43/27 319/44/27 320/45/27 318/46/27 
f 319/43/17 313/44/17 316/45/17 320/46/17 
f 316/43/36 315/44/36 318/45/36 320/46/36 
f 319/43/49 317/44/49 314/45/49 313/46/49 
f 321/43/48 322/44/48 323/45/48 324/46/48 
s 1
f 325/43/26 326/44/45 327/45/45 328/46/26 
s off
f 326/43/47 329/44/47 330/45/47 327/46/47 
f 331/43/44 321/44/44 324/45/44 332/46/44 
s 2
f 332/43/5 328/44/5 327/45/5 330/46/5 
s off
f 331/43/50 325/44/50 322/45/50 321/46/50 
f 329/43/51 326/44/51 325/45/51 331/46/51 
s 2
f 324/43/5 323/44/5 328/45/5 332/46/5 
s off
f 329/43/23 331/44/23 332/45/23 330/46/23 
s 1
f 322/43/26 325/44/26 328/45/26 323/46/26 
s off
f 333/43/26 334/44/26 335/45/26 336/46/26 
f 337/43/25 338/44/25 339/45/25 340/46/25 
f 338/43/23 341/44/23 342/45/23 339/46/23 
f 343/43/28 333/44/28 336/45/28 344/46/28 
s 1
f 344/43/30 340/44/30 339/45/30 342/46/30 
s off
f 343/43/52 337/44/52 334/45/52 333/46/52 
f 341/43/53 338/44/53 337/45/53 343/46/53 
s 1
f 336/43/30 335/44/30 340/45/30 344/46/30 
s off
f 341/43/28 343/44/28 344/45/28 342/46/28 
f 334/43/25 337/44/25 340/45/25 335/46/25 
f 345/43/38 346/44/38 347/45/38 348/46/38 
f 346/43/11 349/44/11 350/45/11 347/46/11 
f 349/43/27 351/44/27 352/45/27 350/46/27 
f 351/43/17 345/44/17 348/45/17 352/46/17 
f 348/43/36 347/44/36 350/45/36 352/46/36 
f 351/43/49 349/44/49 346/45/49 345/46/49 
f 353/43/48 354/44/48 355/45/48 356/46/48 
f 357/43/45 358/44/45 359/45/45 360/46/45 
f 358/43/47 361/44/47 362/45/47 359/46/47 
s 1
f 363/43/23 353/44/44 356/45/44 364/46/23 
s 2
f 364/43/5 360/44/5 359/45/5 362/46/5 
s off
f 363/43/50 357/44/50 354/45/50 353/46/50 
f 361/43/51 358/44/51 357/45/51 363/46/51 
s 2
f 356/43/5 355/44/5 360/45/5 364/46/5 
s 1
f 361/43/23 363/44/23 364/45/23 362/46/23 
s off
f 354/43/26 357/44/26 360/45/26 355/46/26 
f 365/43/26 366/44/26 367/45/26 368/46/26 
f 369/43/25 370/44/25 371/45/25 372/46/25 
f 370/43/23 373/44/23 374/45/23 371/46/23 
f 375/43/28 365/44/28 368/45/28 376/46/28 
s 1
f 376/43/30 372/44/30 371/45/30 374/46/30 
s off
f 375/43/52 369/44/52 366/45/52 365/46/52 
f 373/43/53 370/44/53 369/45/53 375/46/53 
s 1
f 368/43/30 367/44/30 372/45/30 376/46/30 
s off
f 373/43/28 375/44/28 376/45/28 374/46/28 
f 366/43/25 369/44/25 372/45/25 367/46/25 
f 377/43/11 378/44/11 379/45/11 380/46/11 
f 378/43/28 381/44/28 382/45/28 379/46/28 
f 381/43/39 383/44/39 384/45/39 382/46/39 
f 383/43/26 385/44/26 386/45/26 384/46/26 
f 385/43/17 387/44/17 388/45/17 386/46/17 
f 387/43/25 389/44/25 390/45/25 388/46/25 
f 389/43/3 391/44/3 392/45/3 390/46/3 
f 391/43/23 377/44/23 380/45/23 392/46/23 
f 392/47/36 380/48/36 379/49/36 382/50/36 
f 392/47/36 382/50/36 384/51/36 386/52/36 
f 392/47/36 386/52/36 388/53/36 390/54/36 
f 377/47/1 391/48/1 389/49/1 387/50/1 
f 377/47/1 387/50/1 385/51/1 383/52/1 
f 377/47/1 383/52/1 381/53/1 378/54/1 
f 393/43/11 394/44/11 395/45/11 396/46/11 
f 394/43/28 397/44/28 398/45/28 395/46/28 
f 397/43/39 399/44/39 400/45/39 398/46/39 
f 399/43/26 401/44/26 402/45/26 400/46/26 
f 401/43/17 403/44/17 404/45/17 402/46/17 
f 403/43/25 405/44/25 406/45/25 404/46/25 
f 405/43/20 407/44/20 408/45/20 406/46/20 
f 407/43/23 393/44/23 396/45/23 408/46/23 
f 408/47/36 396/48/36 395/49/36 398/50/36 
f 408/47/36 398/50/36 400/51/36 402/52/36 
f 408/47/36 402/52/36 404/53/36 406/54/36 
f 393/47/1 407/48/1 405/49/1 403/50/1 
f 393/47/1 403/50/1 401/51/1 399/52/1 
f 393/47/1 399/52/1 397/53/1 394/54/1 
f 409/43/10 410/44/10 411/45/10 412/46/10 
f 410/43/28 413/44/28 414/45/28 411/46/28 
f 413/43/39 415/44/39 416/45/39 414/46/39 
f 415/43/26 417/44/26 418/45/26 416/46/26 
f 417/43/17 419/44/17 420/45/17 418/46/17 
f 419/43/25 421/44/25 422/45/25 420/46/25 
f 421/43/3 423/44/3 424/45/3 422/46/3 
f 423/43/23 409/44/23 412/45/23 424/46/23 
f 424/47/36 412/48/36 411/49/36 414/50/36 
f 424/47/36 414/50/36 416/51/36 418/52/36 
f 424/47/36 418/52/36 420/53/36 422/54/36 
f 409/47/1 423/48/1 421/49/1 419/50/1 
f 409/47/1 419/50/1 417/51/1 415/52/1 
f 409/47/1 415/52/1 413/53/1 410/54/1 
f 425/43/10 426/44/10 427/45/10 428/46/10 
f 426/43/28 429/44/28 430/45/28 427/46/28 
f 429/43/39 431/44/39 432/45/39 430/46/39 
f 431/43/26 433/44/26 434/45/26 432/46/26 
f 433/43/17 435/44/17 436/45/17 434/46/17 
f 435/43/25 437/44/25 438/45/25 436/46/25 
f 437/43/20 439/44/20 440/45/20 438/46/20 
f 439/43/23 425/44/23 428/45/23 440/46/23 
f 440/47/36 428/48/36 427/49/36 430/50/36 
f 440/47/36 430/50/36 432/51/36 434/52/36 
f 440/47/36 434/52/36 436/53/36 438/54/36 
f 425/47/1 439/48/1 437/49/1 435/50/1 
f 425/47/1 435/50/1 433/51/1 431/52/1 
f 425/47/1 431/52/1 429/53/1 426/54/1 
f 441/43/11 442/44/11 443/45/11 444/46/11 
f 442/43/28 445/44/28 446/45/28 443/46/28 
f 445/43/39 447/44/39 448/45/39 446/46/39 
f 447/43/26 449/44/26 450/45/26 448/46/26 
f 449/43/17 451/44/17 452/45/17 450/46/17 
f 451/43/25 453/44/25 454/45/25 452/46/25 
f 453/43/20 455/44/20 456/45/20 454/46/20 
f 455/43/23 441/44/23 444/45/23 456/46/23 
f 456/47/36 444/48/36 443/49/36 446/50/36 
f 456/47/36 446/50/36 448/51/36 450/52/36 
f 456/47/36 450/52/36 452/53/36 454/54/36 
f 441/47/1 455/48/1 453/49/1 451/50/1 
f 441/47/1 451/50/1 449/51/1 447/52/1 
f 441/47/1 447/52/1 445/53/1 442/54/1 
f 457/43/11 458/44/11 459/45/11 460/46/11 
f 458/43/28 461/44/28 462/45/28 459/46/28 
f 461/43/39 463/44/39 464/45/39 462/46/39 
f 463/43/26 465/44/26 466/45/26 464/46/26 
f 465/43/17 467/44/17 468/45/17 466/46/17 
f 467/43/25 469/44/25 470/45/25 468/46/25 
f 469/43/20 471/44/20 472/45/20 470/46/20 
f 471/43/23 457/44/23 460/45/23 472/46/23 
f 472/47/36 460/48/36 459/49/36 462/50/36 
f 472/47/36 462/50/36 464/51/36 466/52/36 
f 472/47/36 466/52/36 468/53/36 470/54/36 
f 457/47/1 471/48/1 469/49/1 467/50/1 
f 457/47/1 467/50/1 465/51/1 463/52/1 
f 457/47/1 463/52/1 461/53/1 458/54/1 
f 473/43/10 474/44/10 475/45/10 476/46/10 
f 474/43/28 477/44/28 478/45/28 475/46/28 
f 477/43/39 479/44/39 480/45/39 478/46/39 
f 479/43/26 481/44/26 482/45/26 480/46/26 
f 481/43/17 483/44/17 484/45/17 482/46/17 
f 483/43/25 485/44/25 486/45/25 484/46/25 
f 485/43/3 487/44/3 488/45/3 486/46/3 
f 487/43/23 473/44/23 476/45/23 488/46/23 
f 488/47/36 476/48/36 475/49/36 478/50/36 
f 488/47/36 478/50/36 480/51/36 482/52/36 
f 488/47/36 482/52/36 484/53/36 486/54/36 
f 473/47/1 487/48/1 485/49/1 483/50/1 
f 473/47/1 483/50/1 481/51/1 479/52/1 
f 473/47/1 479/52/1 477/53/1 474/54/1 
f 489/43/10 490/44/10 491/45/10 492/46/10 
f 490/43/28 493/44/28 494/45/28 491/46/28 
f 493/43/39 495/44/39 496/45/39 494/46/39 
f 495/43/26 497/44/26 498/45/26 496/46/26 
f 497/43/9 499/44/9 500/45/9 498/46/9 
f 499/43/25 501/44/25 502/45/25 500/46/25 
f 501/43/20 503/44/20 504/45/20 502/46/20 
f 503/43/23 489/44/23 492/45/23 504/46/23 
f 504/47/36 492/48/36 491/49/36 494/50/36 
f 504/47/36 494/50/36 496/51/36 498/52/36 
f 504/47/36 498/52/36 500/53/36 502/54/36 
f 489/47/1 503/48/1 501/49/1 499/50/1 
f 489/47/1 499/50/1 497/51/1 495/52/1 
f 489/47/1 495/52/1 493/53/1 490/54/1 
# 442 polygons

