# 3ds Max Wavefront OBJ Exporter v0.97b - (c)2007 guruware
# File Created: 15.03.2017 11:05:09

mtllib SPW_Urban_Road Sign_Parking Lot.mtl

#
# object SPW_Urban_Road_Sign_Parking_Lot
#

v  0.8131 -0.0007 -1.3903
v  -0.8131 -0.0007 -1.3903
v  -0.8131 86.6474 -1.3903
v  0.8131 86.6474 -1.3903
v  -1.3903 -0.0007 -0.8131
v  -1.3903 86.6474 -0.8131
v  -1.3903 -0.0007 0.8131
v  -1.3903 86.6474 0.8131
v  -0.8131 -0.0007 1.3903
v  -0.8131 86.6474 1.3903
v  0.8131 -0.0007 1.3903
v  0.8131 86.6474 1.3903
v  1.3903 -0.0007 0.8131
v  1.3903 86.6474 0.8131
v  1.3903 -0.0007 -0.8131
v  1.3903 86.6474 -0.8131
v  -11.8110 98.4313 2.2724
v  -11.8110 98.4313 0.8551
v  -11.8110 74.8092 0.8551
v  -11.8110 74.8092 2.2724
v  11.8110 98.4313 0.8551
v  11.8110 74.8092 0.8551
v  11.8110 98.4313 2.2724
v  11.8110 74.8092 2.2724
v  10.8587 75.7616 2.2724
v  -10.8587 75.7616 2.2724
v  10.8587 97.4789 2.2724
v  -10.8587 97.4789 2.2724
# 28 vertices

vn 0.0000 0.0000 -1.0000
vn -0.7071 0.0000 -0.7071
vn -1.0000 -0.0000 -0.0000
vn -0.7071 -0.0000 0.7071
vn -0.0000 -0.0000 1.0000
vn 0.7071 -0.0000 0.7071
vn 1.0000 0.0000 -0.0000
vn 0.7071 0.0000 -0.7071
vn 0.0000 1.0000 0.0000
vn 0.0000 -1.0000 -0.0000
vn -0.0000 -1.0000 -0.0000
vn -1.0000 0.0000 -0.0000
vn -0.0000 0.0000 -1.0000
vn 0.0000 0.0000 1.0000
vn 0.0000 -0.0000 1.0000
# 15 vertex normals

vt 0.0102 0.8943 0.0000
vt 0.0248 0.8943 0.0000
vt 0.0248 0.9088 0.0000
vt 0.0102 0.9088 0.0000
vt 0.0175 0.9088 0.0000
vt 0.0227 0.9067 0.0000
vt 0.0248 0.9015 0.0000
vt 0.0227 0.8964 0.0000
vt 0.0175 0.8943 0.0000
vt 0.0124 0.8964 0.0000
vt 0.0102 0.9015 0.0000
vt 0.0124 0.9067 0.0000
vt 0.0099 0.9382 0.0000
vt 0.0228 0.9382 0.0000
vt 0.0228 0.9511 0.0000
vt 0.0099 0.9511 0.0000
vt 0.0116 0.9737 0.0000
vt 0.0116 0.9866 0.0000
vt 0.9975 0.5768 0.0000
vt 0.8097 0.5768 0.0000
vt 0.8097 0.3889 0.0000
vt 0.9975 0.3889 0.0000
vt 0.0246 0.9866 0.0000
vt 0.0246 0.9737 0.0000
# 24 texture coords

g SPW_Urban_Road_Sign_Parking_Lot
usemtl SPW_Urban_Road_Props_01
s off
f 1/1/1 2/2/1 3/3/1 4/4/1 
f 2/1/2 5/2/2 6/3/2 3/4/2 
f 5/1/3 7/2/3 8/3/3 6/4/3 
f 7/1/4 9/2/4 10/3/4 8/4/4 
f 9/1/5 11/2/5 12/3/5 10/4/5 
f 11/1/6 13/2/6 14/3/6 12/4/6 
f 13/1/7 15/2/7 16/3/7 14/4/7 
f 15/1/8 1/2/8 4/3/8 16/4/8 
f 16/5/9 4/6/9 3/7/9 6/8/9 
f 16/5/9 6/8/9 8/9/9 10/10/9 
f 16/5/9 10/10/9 12/11/9 14/12/9 
f 1/5/10 15/6/10 13/7/10 11/8/10 
f 1/5/10 11/8/10 9/9/10 7/10/10 
f 1/5/11 7/10/11 5/11/11 2/12/11 
f 17/13/12 18/14/12 19/15/12 20/16/12 
f 18/13/13 21/14/13 22/15/13 19/16/13 
f 21/13/7 23/14/7 24/15/7 22/16/7 
s 1
f 20/17/14 24/18/15 25/18/15 26/17/14 
s off
f 20/13/10 19/14/10 22/15/10 24/16/10 
f 23/13/9 21/14/9 18/15/9 17/16/9 
s 1
f 27/19/15 28/20/15 26/21/14 25/22/15 
f 23/17/15 17/18/15 28/18/15 27/17/15 
f 24/23/15 23/24/15 27/24/15 25/23/15 
f 17/17/15 20/18/14 26/18/14 28/17/15 
# 24 polygons

