# 3ds Max Wavefront OBJ Exporter v0.97b - (c)2007 guruware
# File Created: 15.03.2017 11:04:48

mtllib SPW_Urban_Road Sign_No Entry.mtl

#
# object SPW_Urban_Road_Sign_No_Entry
#

v  0.8131 0.0000 -1.3903
v  -0.8131 0.0000 -1.3903
v  -0.8131 86.6482 -1.3903
v  0.8131 86.6482 -1.3903
v  -1.3903 0.0000 -0.8131
v  -1.3903 86.6482 -0.8131
v  -1.3903 0.0000 0.8131
v  -1.3903 86.6482 0.8131
v  -0.8131 0.0000 1.3903
v  -0.8131 86.6482 1.3903
v  0.8131 0.0000 1.3903
v  0.8131 86.6482 1.3903
v  1.3903 0.0000 0.8131
v  1.3903 86.6482 0.8131
v  1.3903 0.0000 -0.8131
v  1.3903 86.6482 -0.8131
v  0.0000 100.3745 0.9194
v  0.0000 100.3745 2.2974
v  5.2732 99.3256 2.2974
v  5.2732 99.3256 0.9194
v  9.7436 96.3386 2.2974
v  9.7436 96.3386 0.9194
v  12.7306 91.8682 2.2974
v  12.7306 91.8682 0.9194
v  13.7796 86.5950 2.2974
v  13.7796 86.5950 0.9194
v  12.7306 81.3218 2.2974
v  12.7306 81.3218 0.9194
v  9.7436 76.8514 2.2974
v  9.7436 76.8514 0.9194
v  5.2732 73.8644 2.2974
v  5.2732 73.8644 0.9194
v  0.0000 72.8155 2.2974
v  0.0000 72.8155 0.9194
v  -5.2732 73.8644 2.2974
v  -5.2732 73.8644 0.9194
v  -9.7436 76.8514 2.2974
v  -9.7436 76.8514 0.9194
v  -12.7306 81.3218 2.2974
v  -12.7306 81.3218 0.9194
v  -13.7795 86.5950 2.2974
v  -13.7795 86.5950 0.9194
v  -12.7306 91.8682 2.2974
v  -12.7306 91.8682 0.9194
v  -9.7436 96.3386 2.2974
v  -9.7436 96.3386 0.9194
v  -4.9206 74.7156 2.2974
v  -9.0921 77.5029 2.2974
v  -5.2732 99.3257 0.9194
v  -5.2732 99.3257 2.2974
v  4.9206 98.4744 2.2974
v  0.0000 99.4532 2.2974
v  -4.9206 98.4744 2.2974
v  -9.0921 95.6871 2.2974
v  -11.8794 91.5156 2.2974
v  -12.8582 86.5950 2.2974
v  -11.8794 81.6744 2.2974
v  0.0000 73.7368 2.2974
v  4.9206 74.7156 2.2974
v  9.0921 77.5029 2.2974
v  11.8794 81.6744 2.2974
v  12.8582 86.5950 2.2974
v  11.8794 91.5156 2.2974
v  9.0921 95.6871 2.2974
# 64 vertices

vn 0.0000 0.0000 -1.0000
vn -0.7071 0.0000 -0.7071
vn -1.0000 -0.0000 -0.0000
vn -0.7071 -0.0000 0.7071
vn -0.0000 -0.0000 1.0000
vn 0.7071 -0.0000 0.7071
vn 1.0000 0.0000 -0.0000
vn 0.7071 0.0000 -0.7071
vn 0.0000 1.0000 0.0000
vn 0.0000 -1.0000 -0.0000
vn -0.0000 -1.0000 -0.0000
vn 0.1951 0.9808 0.0000
vn 0.5556 0.8315 0.0000
vn 0.8315 0.5556 0.0000
vn 0.9808 0.1951 0.0000
vn 0.9808 -0.1951 -0.0000
vn 0.8315 -0.5556 0.0000
vn 0.5556 -0.8315 -0.0000
vn 0.1951 -0.9808 -0.0000
vn -0.1951 -0.9808 -0.0000
vn -0.5556 -0.8315 -0.0000
vn -0.8315 -0.5556 -0.0000
vn -0.9808 -0.1951 -0.0000
vn -0.9808 0.1951 0.0000
vn -0.8315 0.5556 -0.0000
vn -0.1951 0.9808 0.0000
vn -0.5556 0.8315 -0.0000
vn -0.0000 0.0000 -1.0000
vn -0.0000 0.0000 1.0000
vn 0.0000 0.0000 1.0000
# 30 vertex normals

vt 0.0126 0.8983 0.0000
vt 0.0226 0.8983 0.0000
vt 0.0226 0.9083 0.0000
vt 0.0126 0.9083 0.0000
vt 0.0176 0.9083 0.0000
vt 0.0211 0.9068 0.0000
vt 0.0226 0.9033 0.0000
vt 0.0211 0.8997 0.0000
vt 0.0176 0.8983 0.0000
vt 0.0140 0.8997 0.0000
vt 0.0126 0.9033 0.0000
vt 0.0140 0.9068 0.0000
vt 0.0163 0.9416 0.0000
vt 0.0263 0.9416 0.0000
vt 0.0263 0.9516 0.0000
vt 0.0163 0.9516 0.0000
vt 0.0213 0.9516 0.0000
vt 0.0232 0.9512 0.0000
vt 0.0248 0.9501 0.0000
vt 0.0259 0.9485 0.0000
vt 0.0263 0.9466 0.0000
vt 0.0259 0.9447 0.0000
vt 0.0248 0.9430 0.0000
vt 0.0232 0.9419 0.0000
vt 0.0213 0.9416 0.0000
vt 0.0194 0.9419 0.0000
vt 0.0177 0.9430 0.0000
vt 0.0167 0.9447 0.0000
vt 0.0163 0.9466 0.0000
vt 0.0167 0.9485 0.0000
vt 0.0177 0.9501 0.0000
vt 0.0194 0.9512 0.0000
vt 0.4831 0.9897 0.0000
vt 0.4650 0.9933 0.0000
vt 0.4470 0.9897 0.0000
vt 0.4316 0.9795 0.0000
vt 0.4214 0.9641 0.0000
vt 0.4178 0.9461 0.0000
vt 0.4214 0.9280 0.0000
vt 0.4316 0.9127 0.0000
vt 0.4470 0.9024 0.0000
vt 0.4650 0.8988 0.0000
vt 0.4831 0.9024 0.0000
vt 0.4984 0.9127 0.0000
vt 0.5087 0.9280 0.0000
vt 0.5123 0.9461 0.0000
vt 0.5087 0.9641 0.0000
vt 0.4984 0.9795 0.0000
# 48 texture coords

g SPW_Urban_Road_Sign_No_Entry
usemtl SPW_Urban_Road_Props_01
s off
f 1/1/1 2/2/1 3/3/1 4/4/1 
f 2/1/2 5/2/2 6/3/2 3/4/2 
f 5/1/3 7/2/3 8/3/3 6/4/3 
f 7/1/4 9/2/4 10/3/4 8/4/4 
f 9/1/5 11/2/5 12/3/5 10/4/5 
f 11/1/6 13/2/6 14/3/6 12/4/6 
f 13/1/7 15/2/7 16/3/7 14/4/7 
f 15/1/8 1/2/8 4/3/8 16/4/8 
f 16/5/9 4/6/9 3/7/9 6/8/9 
f 16/5/9 6/8/9 8/9/9 10/10/9 
f 16/5/9 10/10/9 12/11/9 14/12/9 
f 1/5/10 15/6/10 13/7/10 11/8/10 
f 1/5/11 11/8/11 9/9/11 7/10/11 
f 1/5/11 7/10/11 5/11/11 2/12/11 
f 17/13/12 18/14/12 19/15/12 20/16/12 
f 20/13/13 19/14/13 21/15/13 22/16/13 
f 22/13/14 21/14/14 23/15/14 24/16/14 
f 24/13/15 23/14/15 25/15/15 26/16/15 
f 26/13/16 25/14/16 27/15/16 28/16/16 
f 28/13/17 27/14/17 29/15/17 30/16/17 
f 30/13/18 29/14/18 31/15/18 32/16/18 
f 32/13/19 31/14/19 33/15/19 34/16/19 
f 34/13/20 33/14/20 35/15/20 36/16/20 
f 36/13/21 35/14/21 37/15/21 38/16/21 
f 38/13/22 37/14/22 39/15/22 40/16/22 
f 40/13/23 39/14/23 41/15/23 42/16/23 
f 42/13/24 41/14/24 43/15/24 44/16/24 
f 44/13/25 43/14/25 45/15/25 46/16/25 
s 1
f 37/15/5 35/14/5 47/14/5 48/15/5 
s off
f 49/13/26 50/14/26 18/15/26 17/16/26 
f 46/13/27 45/14/27 50/15/27 49/16/27 
f 17/17/1 20/18/1 22/19/1 24/20/1 
f 17/17/1 24/20/1 26/21/1 28/22/1 
f 17/17/1 28/22/1 30/23/1 32/24/1 
f 17/17/1 32/24/1 34/25/1 36/26/1 
f 17/17/1 36/26/1 38/27/1 40/28/1 
f 17/17/1 40/28/1 42/29/1 44/30/1 
f 17/17/28 44/30/28 46/31/28 49/32/28 
s 1
f 51/33/29 52/34/5 53/35/29 54/36/29 
f 51/33/29 54/36/29 55/37/29 56/38/5 
f 51/33/29 56/38/5 57/39/5 48/40/5 
f 51/33/29 48/40/5 47/41/5 58/42/5 
f 51/33/29 58/42/5 59/43/5 60/44/29 
f 51/33/29 60/44/29 61/45/5 62/46/5 
f 51/33/29 62/46/5 63/47/5 64/48/5 
f 21/15/5 19/14/30 51/14/29 64/15/5 
f 43/15/29 41/14/5 56/14/5 55/15/29 
f 27/15/5 25/14/5 62/14/5 61/15/5 
f 18/15/5 50/14/5 53/14/29 52/15/5 
f 19/15/30 18/14/5 52/14/5 51/15/29 
f 33/15/5 31/14/29 59/14/5 58/15/5 
f 39/15/5 37/14/5 48/14/5 57/15/5 
f 23/15/5 21/14/5 64/14/5 63/15/5 
f 45/15/29 43/14/29 55/14/29 54/15/29 
f 29/15/29 27/14/5 61/14/5 60/15/29 
f 35/15/5 33/14/5 58/14/5 47/15/5 
f 41/15/5 39/14/5 57/14/5 56/15/5 
f 25/15/5 23/14/5 63/14/5 62/15/5 
f 50/15/5 45/14/29 54/14/29 53/15/29 
f 31/15/29 29/14/29 60/14/29 59/15/5 
# 60 polygons

