# 3ds Max Wavefront OBJ Exporter v0.97b - (c)2007 guruware
# File Created: 15.03.2017 11:43:30

mtllib SPW_Urban_Bridge_4way RoadBridge_Flyover_Part_01.mtl

#
# object SPW_Urban_Bridge_4way_RoadBridge_Flyover_Part_01
#

v  1170.8660 668.2272 -771.5575
v  1170.8660 668.2272 -783.5605
v  1165.7477 624.6824 -794.1384
v  1165.7477 624.6824 -760.9794
v  1191.3383 668.2272 -783.5605
v  1196.4564 624.6824 -794.1385
v  1191.3383 668.2272 -771.5575
v  1196.4564 624.6824 -760.9795
v  1549.1587 669.6439 -771.5574
v  1549.1587 669.6439 -783.5605
v  1544.0405 629.7969 -794.1384
v  1544.0405 629.7969 -760.9795
v  1569.6307 669.6439 -783.5605
v  1574.7491 629.7969 -794.1384
v  1569.6307 669.6439 -771.5574
v  1574.7491 629.7969 -760.9795
v  777.1652 571.3647 -771.5574
v  777.1652 571.3647 -783.5604
v  772.0469 527.2578 -794.1385
v  772.0469 527.2578 -760.9795
v  797.6375 571.3647 -783.5604
v  802.7557 527.2578 -794.1385
v  797.6375 571.3647 -771.5574
v  802.7557 527.2578 -760.9795
v  -1557.3555 75.1675 -774.6063
v  -1557.3555 75.1675 -780.5118
v  -1557.3555 65.3250 -780.5118
v  -1557.3555 65.3250 -774.6063
v  1181.1024 665.7187 -780.5117
v  1558.8792 665.7187 -780.5117
v  1558.8792 655.8762 -780.5117
v  1181.1024 655.8762 -780.5117
v  1558.8792 665.7187 -774.6061
v  1558.8792 655.8762 -774.6061
v  -1181.1023 75.1675 -774.6063
v  -1181.1023 65.3250 -774.6063
v  1181.1024 655.8762 -774.6062
v  -1181.1023 75.1675 -780.5118
v  1181.1024 665.7187 -774.6062
v  -1181.1023 65.3250 -780.5118
v  -1569.6853 78.8368 -771.5575
v  -1569.6853 78.8368 -783.5606
v  -1574.8037 38.9898 -794.1385
v  -1574.8037 38.9898 -760.9796
v  -1549.2125 78.8368 -783.5606
v  -1544.0944 38.9898 -794.1385
v  -1549.2125 78.8368 -771.5575
v  -1544.0944 38.9898 -760.9796
v  368.1103 469.2905 -771.5574
v  368.1103 469.2905 -783.5605
v  362.9921 425.7455 -794.1384
v  362.9921 425.7455 -760.9795
v  388.5826 469.2905 -783.5605
v  393.7009 425.7455 -794.1384
v  388.5826 469.2905 -771.5574
v  393.7009 425.7455 -760.9795
v  -403.9373 277.4386 -771.5576
v  -403.9373 277.4386 -783.5605
v  -409.0554 232.7168 -794.1385
v  -409.0554 232.7168 -760.9795
v  -383.4649 277.4386 -783.5605
v  -378.3466 232.7168 -794.1385
v  -383.4649 277.4386 -771.5576
v  -378.3466 232.7168 -760.9796
v  -10.2364 374.5168 -771.5574
v  -10.2364 374.5168 -783.5605
v  -15.3546 329.9363 -794.1385
v  -15.3546 329.9363 -760.9796
v  10.2359 374.5168 -783.5605
v  15.3541 329.9363 -794.1385
v  10.2359 374.5168 -771.5574
v  15.3541 329.9363 -760.9796
v  -1191.3386 78.8368 -771.5575
v  -1191.3386 78.8368 -783.5606
v  -1196.4568 38.9898 -794.1385
v  -1196.4568 38.9898 -760.9796
v  -1170.8663 78.8368 -783.5606
v  -1165.7480 38.9898 -794.1385
v  -1170.8663 78.8368 -771.5575
v  -1165.7480 38.9898 -760.9796
v  -797.6379 176.8964 -771.5576
v  -797.6379 176.8964 -783.5606
v  -802.7562 132.1746 -794.1385
v  -802.7562 132.1746 -760.9796
v  -777.1656 176.8964 -783.5606
v  -772.0474 132.1746 -794.1385
v  -777.1656 176.8964 -771.5576
v  -772.0474 132.1746 -760.9796
v  1170.8660 668.2270 783.5607
v  1170.8660 668.2270 771.5575
v  1165.7476 624.6823 760.9796
v  1165.7477 624.6823 794.1385
v  1191.3381 668.2270 771.5575
v  1196.4563 624.6823 760.9796
v  1191.3383 668.2270 783.5607
v  1196.4564 624.6823 794.1385
v  1549.1587 669.6437 783.5607
v  1549.1584 669.6437 771.5576
v  1544.0403 629.7967 760.9797
v  1544.0405 629.7967 794.1386
v  1569.6307 669.6437 771.5575
v  1574.7491 629.7967 760.9796
v  1569.6307 669.6437 783.5607
v  1574.7491 629.7967 794.1386
v  777.1651 571.3645 783.5607
v  777.1651 571.3645 771.5576
v  772.0468 527.2576 760.9796
v  772.0468 527.2576 794.1387
v  797.6374 571.3645 771.5576
v  802.7556 527.2576 760.9796
v  797.6375 571.3645 783.5607
v  802.7557 527.2576 794.1387
v  -1557.3555 75.1673 780.5118
v  -1557.3555 75.1673 774.6063
v  -1557.3555 65.3248 774.6063
v  -1557.3555 65.3248 780.5118
v  1181.1023 665.7184 774.6063
v  1558.8790 665.7184 774.6063
v  1558.8790 655.8760 774.6063
v  1181.1023 655.8760 774.6063
v  1558.8792 665.7184 780.5117
v  1558.8792 655.8760 780.5117
v  -1181.1024 75.1673 780.5118
v  -1181.1024 65.3248 780.5118
v  1181.1024 655.8760 780.5118
v  -1181.1024 75.1673 774.6063
v  1181.1024 665.7184 780.5118
v  -1181.1024 65.3248 774.6063
v  -1569.6853 78.8367 783.5606
v  -1569.6854 78.8367 771.5574
v  -1574.8040 38.9897 760.9796
v  -1574.8040 38.9897 794.1387
v  -1549.2126 78.8367 771.5574
v  -1544.0944 38.9897 760.9795
v  -1549.2125 78.8367 783.5605
v  -1544.0944 38.9897 794.1385
v  368.1103 469.2904 783.5606
v  368.1103 469.2904 771.5574
v  362.9921 425.7454 760.9796
v  362.9921 425.7454 794.1386
v  388.5826 469.2904 771.5574
v  393.7009 425.7454 760.9796
v  388.5826 469.2904 783.5606
v  393.7009 425.7454 794.1386
v  -403.9372 277.4384 783.5607
v  -403.9372 277.4384 771.5575
v  -409.0554 232.7166 760.9796
v  -409.0554 232.7166 794.1387
v  -383.4649 277.4384 771.5575
v  -378.3466 232.7166 760.9796
v  -383.4649 277.4384 783.5607
v  -378.3466 232.7166 794.1387
v  -10.2364 374.5167 783.5606
v  -10.2364 374.5167 771.5574
v  -15.3546 329.9361 760.9796
v  -15.3546 329.9361 794.1385
v  10.2359 374.5167 771.5574
v  15.3541 329.9361 760.9796
v  10.2359 374.5167 783.5606
v  15.3541 329.9361 794.1385
v  -1191.3386 78.8367 783.5606
v  -1191.3387 78.8367 771.5574
v  -1196.4570 38.9897 760.9796
v  -1196.4568 38.9897 794.1385
v  -1170.8663 78.8367 771.5574
v  -1165.7482 38.9897 760.9796
v  -1170.8663 78.8367 783.5606
v  -1165.7480 38.9897 794.1385
v  -797.6379 176.8962 783.5605
v  -797.6379 176.8962 771.5574
v  -802.7563 132.1744 760.9795
v  -802.7562 132.1744 794.1385
v  -777.1657 176.8962 771.5574
v  -772.0475 132.1744 760.9795
v  -777.1657 176.8962 783.5605
v  -772.0475 132.1744 794.1385
v  -1181.1024 7.8741 -669.2913
v  -1574.8032 7.8741 -669.2915
v  -1574.8032 -78.7401 -669.2915
v  -1181.1024 -78.7401 -669.2913
v  -1574.8032 7.8741 -748.0317
v  -1574.8032 -78.7401 -748.0317
v  1181.1024 598.4253 -748.0314
v  1574.8032 598.4253 -748.0313
v  1574.8032 511.8111 -748.0314
v  1181.1025 511.8111 -748.0314
v  1574.8032 598.4253 -669.2911
v  1574.8032 511.8111 -669.2912
v  -1181.1023 -78.7401 -748.0315
v  -1181.1023 7.8741 -748.0315
v  1181.1024 598.4253 -669.2912
v  1181.1024 511.8111 -669.2913
v  -1181.1024 7.8739 748.0316
v  -1574.8030 7.8739 748.0313
v  -1574.8030 -78.7402 748.0313
v  -1181.1024 -78.7402 748.0316
v  -1574.8030 7.8739 669.2911
v  -1574.8030 -78.7402 669.2911
v  1181.1024 598.4252 669.2914
v  1574.8030 598.4252 669.2916
v  1574.8030 511.8109 669.2915
v  1181.1024 511.8109 669.2914
v  1574.8030 598.4252 748.0317
v  1574.8030 511.8109 748.0316
v  -1181.1024 -78.7402 669.2914
v  -1181.1024 7.8739 669.2914
v  1181.1024 598.4252 748.0316
v  1181.1023 511.8109 748.0316
v  1574.8032 614.1734 -807.0864
v  1574.8032 590.5514 -748.0311
v  1574.8032 511.8112 -748.0313
v  1574.8032 511.8112 -807.0864
v  -1181.1023 0.0001 -748.0314
v  -1574.8032 -0.0000 -748.0316
v  -1574.8032 -78.7402 -748.0316
v  -1181.1023 -78.7401 -748.0314
v  -1574.8032 -0.0000 -836.6143
v  -1574.8032 -0.0000 -866.1418
v  -1574.8032 -78.7402 -866.1418
v  -1574.8032 -78.7402 -836.6143
v  1181.1025 590.5513 -866.1416
v  1574.8032 590.5514 -866.1415
v  1574.8032 511.8112 -866.1416
v  1181.1025 511.8112 -866.1417
v  -1181.1023 -78.7401 -807.0865
v  -1574.8032 -78.7402 -807.0866
v  -1181.1023 23.6221 -807.0865
v  -1574.8032 23.6220 -807.0866
v  -1574.8032 39.3701 -807.0866
v  -1181.1023 39.3702 -807.0865
v  1181.1025 590.5513 -836.6140
v  1181.1024 614.1734 -807.0864
v  1574.8032 590.5514 -836.6139
v  -1181.1023 -78.7401 -836.6142
v  1574.8032 511.8112 -836.6140
v  1181.1024 629.9213 -807.0864
v  1181.1024 629.9213 -748.0313
v  1574.8032 629.9215 -748.0311
v  1574.8032 629.9215 -807.0864
v  -1574.8032 39.3700 -748.0316
v  1181.1025 590.5513 -748.0313
v  -1181.1023 -78.7401 -866.1416
v  -1181.1023 0.0001 -836.6142
v  -1181.1023 0.0001 -866.1416
v  1181.1025 511.8112 -836.6140
v  -1181.1023 39.3702 -748.0314
v  1181.1025 511.8112 -807.0865
v  1181.1025 511.8112 -748.0314
v  -1574.8030 23.6220 807.0868
v  -1574.8030 -0.0001 748.0316
v  -1574.8030 -78.7402 748.0316
v  -1574.8030 -78.7402 807.0868
v  1181.1025 590.5511 748.0317
v  1574.8032 590.5511 748.0318
v  1574.8032 511.8109 748.0317
v  1181.1024 511.8109 748.0316
v  1574.8032 590.5511 836.6146
v  1574.8032 590.5511 866.1421
v  1574.8032 511.8109 866.1420
v  1574.8032 511.8109 836.6146
v  -1181.1024 -0.0001 866.1418
v  -1574.8030 -0.0001 866.1419
v  -1574.8030 -78.7403 866.1419
v  -1181.1024 -78.7402 866.1418
v  1181.1024 511.8109 807.0869
v  1574.8032 511.8109 807.0869
v  1181.1024 614.1731 807.0869
v  1574.8030 614.1731 807.0870
v  1574.8030 629.9211 807.0870
v  1181.1024 629.9211 807.0869
v  -1181.1024 -0.0001 836.6143
v  -1181.1024 23.6220 807.0866
v  -1574.8030 -0.0001 836.6144
v  1181.1024 511.8109 836.6144
v  -1574.8030 -78.7403 836.6144
v  -1181.1024 39.3700 807.0866
v  -1181.1024 39.3700 748.0317
v  -1574.8030 39.3700 748.0316
v  -1574.8030 39.3700 807.0868
v  1574.8030 629.9212 748.0319
v  -1181.1024 -0.0001 748.0317
v  1181.1024 511.8109 866.1420
v  1181.1025 590.5511 866.1420
v  1181.1025 590.5511 836.6145
v  -1181.1024 -78.7402 836.6143
v  1181.1024 629.9211 748.0318
v  -1181.1024 -78.7402 807.0866
v  -1181.1024 -78.7402 748.0317
v  -551.1810 157.4803 370.0788
v  -433.0708 187.0079 370.0788
v  -433.0708 187.0079 358.2678
v  -551.1810 157.4803 358.2678
v  1181.1025 590.5513 -669.2912
v  1574.8033 590.5513 -669.2910
v  1574.8033 511.8111 -669.2911
v  1181.1025 590.5513 -657.4802
v  1574.8033 590.5513 -657.4801
v  1338.5826 590.5513 -370.0786
v  1338.5826 590.5513 -358.2676
v  1417.3225 590.5513 -358.2676
v  1417.3225 590.5513 -370.0786
v  1535.4327 590.5513 -370.0786
v  1220.4725 590.5513 -370.0786
v  1220.4725 590.5513 -358.2676
v  1181.1024 590.5512 -82.6770
v  1574.8032 590.5512 -82.6770
v  1535.4327 590.5513 -358.2676
v  1574.8033 590.5513 -645.6690
v  1181.1025 590.5513 -645.6691
v  1181.1024 590.5512 -70.8660
v  1181.1023 590.5512 70.8663
v  1574.8032 590.5512 70.8663
v  1574.8032 590.5512 -70.8660
v  1338.5829 590.5511 358.2679
v  1338.5829 590.5511 370.0790
v  1417.3229 590.5511 370.0790
v  1417.3229 590.5511 358.2680
v  1535.4331 590.5511 358.2679
v  1574.8032 590.5512 82.6774
v  1181.1023 590.5512 82.6773
v  1220.4725 590.5511 358.2679
v  1220.4725 590.5511 370.0790
v  1181.1022 590.5511 645.6695
v  1574.8030 590.5511 645.6696
v  1535.4331 590.5511 370.0790
v  1181.1022 590.5511 657.4805
v  1181.1022 590.5511 669.2916
v  1574.8030 590.5511 669.2917
v  1574.8030 590.5511 657.4807
v  1181.1023 511.8109 669.2915
v  1574.8030 511.8109 669.2916
v  -1181.1022 0.0001 -669.2913
v  -1181.1022 -78.7401 -669.2913
v  -1181.1022 0.0001 -645.6693
v  -1181.1023 0.0000 -82.6772
v  -1141.7322 9.8426 -358.2679
v  -1141.7322 9.8426 -370.0789
v  -1023.6220 39.3701 -370.0789
v  -944.8818 59.0552 -370.0789
v  -1023.6220 39.3701 -358.2679
v  -944.8818 59.0552 -358.2679
v  -826.7716 88.5827 -370.0789
v  -748.0314 108.2678 -370.0789
v  -826.7716 88.5827 -358.2679
v  -748.0314 108.2678 -358.2678
v  -629.9211 137.7953 -370.0788
v  -551.1810 157.4804 -370.0788
v  -629.9211 137.7953 -358.2678
v  -551.1810 157.4804 -358.2678
v  -433.0708 187.0079 -370.0788
v  -354.3306 206.6930 -370.0788
v  -433.0708 187.0079 -358.2678
v  -354.3306 206.6930 -358.2678
v  -236.2203 236.2205 -370.0788
v  -157.4802 255.9056 -370.0788
v  -236.2203 236.2205 -358.2677
v  -157.4802 255.9056 -358.2677
v  -39.3699 285.4331 -370.0787
v  39.3702 305.1182 -370.0787
v  -39.3699 285.4331 -358.2677
v  39.3702 305.1182 -358.2677
v  157.4804 334.6457 -370.0787
v  236.2206 354.3308 -358.2677
v  157.4804 334.6457 -358.2677
v  236.2206 354.3308 -370.0788
v  -1181.1023 -0.0000 82.6772
v  -1181.1024 -0.0001 645.6694
v  -1141.7322 9.8425 370.0787
v  -1141.7322 9.8425 358.2677
v  -1023.6220 39.3701 358.2678
v  -944.8818 59.0551 358.2677
v  -1023.6220 39.3701 370.0788
v  -944.8818 59.0551 370.0787
v  -826.7715 88.5827 358.2677
v  -748.0314 108.2677 358.2678
v  -826.7715 88.5827 370.0787
v  -748.0314 108.2677 370.0788
v  -629.9211 137.7953 358.2677
v  -629.9211 137.7953 370.0788
v  -354.3306 206.6929 358.2678
v  -354.3306 206.6929 370.0788
v  -236.2204 236.2205 358.2678
v  -157.4802 255.9055 358.2677
v  -236.2204 236.2205 370.0788
v  -157.4802 255.9055 370.0788
v  -39.3700 285.4331 358.2678
v  39.3701 305.1181 358.2678
v  -39.3700 285.4331 370.0788
v  39.3701 305.1181 370.0788
v  157.4804 334.6457 358.2678
v  236.2206 354.3307 358.2678
v  157.4804 334.6457 370.0788
v  236.2206 354.3307 370.0789
v  354.3308 383.8582 358.2678
v  433.0710 403.5433 358.2678
v  354.3308 383.8582 370.0789
v  433.0710 403.5433 370.0789
v  551.1813 433.0708 358.2678
v  629.9212 452.7559 358.2679
v  551.1813 433.0708 370.0788
v  629.9212 452.7559 370.0789
v  748.0317 482.2835 358.2679
v  826.7717 501.9684 358.2679
v  748.0317 482.2835 370.0789
v  826.7717 501.9684 370.0789
v  944.8818 531.4960 358.2679
v  1023.6220 551.1810 358.2679
v  944.8818 531.4960 370.0789
v  1023.6220 551.1810 370.0789
v  1141.7322 580.7086 358.2679
v  1141.7322 580.7086 370.0790
v  -1181.1024 -0.0001 657.4803
v  -1181.1024 -0.0001 669.2914
v  -1574.8030 0.0001 -669.2916
v  -1574.8030 -78.7401 -669.2916
v  -1417.3229 0.0000 -370.0789
v  -1417.3229 0.0000 -358.2679
v  -1338.5829 0.0000 -358.2679
v  -1338.5829 0.0000 -370.0789
v  -1220.4725 0.0000 -370.0789
v  -1574.8030 0.0001 -645.6694
v  -1535.4331 0.0000 -370.0789
v  -1535.4331 0.0000 -358.2679
v  -1574.8032 0.0000 -82.6773
v  -1574.8032 0.0000 -70.8663
v  -1574.8032 -0.0000 70.8660
v  -1181.1025 -0.0000 70.8661
v  -1181.1023 0.0000 -70.8662
v  354.3309 383.8583 -370.0787
v  433.0710 403.5434 -370.0788
v  354.3309 383.8583 -358.2677
v  433.0710 403.5434 -358.2678
v  551.1813 433.0710 -370.0788
v  629.9213 452.7560 -370.0788
v  551.1813 433.0710 -358.2678
v  629.9213 452.7560 -358.2678
v  748.0317 482.2836 -370.0787
v  826.7716 501.9685 -370.0787
v  748.0317 482.2836 -358.2677
v  826.7716 501.9685 -358.2676
v  944.8818 531.4961 -370.0787
v  1023.6219 551.1812 -370.0788
v  944.8818 531.4961 -358.2676
v  1023.6219 551.1812 -358.2678
v  1141.7322 580.7087 -370.0787
v  -1181.1024 0.0001 -657.4803
v  -1574.8030 0.0001 -657.4805
v  -1574.8033 -0.0001 657.4803
v  -1574.8033 -0.0001 669.2911
v  -1574.8033 -78.7402 669.2911
v  -1417.3225 -0.0000 358.2676
v  -1535.4327 -0.0000 358.2677
v  -1535.4327 -0.0000 370.0786
v  -1417.3225 -0.0000 370.0786
v  -1338.5826 -0.0000 358.2676
v  -1338.5826 -0.0000 370.0786
v  -1220.4725 -0.0000 370.0786
v  -1220.4725 -0.0000 358.2676
v  -1574.8033 -0.0001 645.6692
v  -1574.8032 -0.0000 82.6771
v  1141.7322 580.7087 -358.2677
v  -1220.4725 0.0000 -358.2679
# 462 vertices

vn -0.9932 0.1167 0.0000
vn -0.0000 0.2361 -0.9717
vn 0.9932 0.1167 0.0000
vn 0.0000 0.2361 0.9717
vn 0.0000 -1.0000 -0.0000
vn 0.0000 1.0000 0.0000
vn -0.9919 0.1274 0.0000
vn 0.0000 0.2566 -0.9665
vn 0.9919 0.1274 0.0000
vn 0.0000 0.2566 0.9665
vn -0.9933 0.1153 0.0000
vn 0.0000 0.2332 -0.9724
vn 0.9933 0.1153 0.0000
vn 0.0000 0.2332 0.9724
vn -1.0000 0.0000 -0.0000
vn 0.0000 0.0000 -1.0000
vn 1.0000 0.0000 -0.0000
vn 0.0000 -0.0000 1.0000
vn -0.2425 0.9701 0.0000
vn -0.0000 -0.0000 1.0000
vn 0.2425 -0.9701 -0.0000
vn 0.0000 0.2361 -0.9717
vn -0.9935 0.1137 0.0000
vn 0.0000 0.2302 -0.9731
vn 0.9935 0.1137 0.0000
vn 0.0000 0.2302 0.9731
vn -0.9935 0.1141 0.0000
vn 0.0000 0.2309 -0.9730
vn 0.9935 0.1141 0.0000
vn 0.0000 0.2309 0.9730
vn 0.9932 0.1167 -0.0000
vn -0.0000 0.2566 -0.9665
vn 0.9933 0.1153 -0.0000
vn -0.0000 0.0000 -1.0000
vn 0.9919 0.1274 -0.0000
vn 0.2425 -0.9701 0.0000
vn -0.0000 -1.0000 -0.0000
vn 0.0000 0.7809 -0.6247
vn -0.0000 1.0000 0.0000
vn -0.0000 0.7809 -0.6247
vn -0.1916 0.7664 -0.6131
vn 0.0000 0.7809 0.6247
vn 1.0000 0.0000 0.0000
vn -0.1916 0.7664 0.6131
vn -0.0000 0.7809 0.6247
vn -0.2425 0.9701 -0.0000
vn 1.0000 -0.0000 0.0000
vn -1.0000 -0.0000 -0.0000
# 48 vertex normals

vt 0.2486 0.8638 0.0000
vt 0.2986 0.8638 0.0000
vt 0.2986 0.9138 0.0000
vt 0.2486 0.9138 0.0000
vt 0.2388 0.8687 0.0000
vt 0.2888 0.8687 0.0000
vt 0.2888 0.9187 0.0000
vt 0.2388 0.9187 0.0000
vt 0.3569 0.3963 0.0000
vt 0.4069 0.3963 0.0000
vt 0.4069 0.4463 0.0000
vt 0.3569 0.4463 0.0000
vt 0.5405 0.8750 0.0000
vt 0.5423 0.8750 0.0000
vt 0.5423 0.8754 0.0000
vt 0.5405 0.8754 0.0000
vt 0.5680 0.9138 0.0000
vt 0.5742 0.9138 0.0000
vt 0.4154 0.9187 0.0000
vt 0.4154 0.9183 0.0000
vt 0.4216 0.9183 0.0000
vt 0.4216 0.9187 0.0000
vt 0.5705 0.9026 0.0000
vt 0.5705 0.9022 0.0000
vt 0.5717 0.9022 0.0000
vt 0.5717 0.9026 0.0000
vt 0.5736 0.9026 0.0000
vt 0.5686 0.9026 0.0000
vt 0.4179 0.9071 0.0000
vt 0.4160 0.9071 0.0000
vt 0.4154 0.8968 0.0000
vt 0.4191 0.9071 0.0000
vt 0.4216 0.8968 0.0000
vt 0.4210 0.9075 0.0000
vt 0.4210 0.9071 0.0000
vt 0.4216 0.9178 0.0000
vt 0.4160 0.9075 0.0000
vt 0.4154 0.9178 0.0000
vt 0.4154 0.8964 0.0000
vt 0.4154 0.8911 0.0000
vt 0.4216 0.8911 0.0000
vt 0.4216 0.8964 0.0000
vt 0.4179 0.8803 0.0000
vt 0.4179 0.8799 0.0000
vt 0.4191 0.8799 0.0000
vt 0.4191 0.8803 0.0000
vt 0.4210 0.8803 0.0000
vt 0.4216 0.8906 0.0000
vt 0.4154 0.8906 0.0000
vt 0.4160 0.8803 0.0000
vt 0.4160 0.8799 0.0000
vt 0.4154 0.8696 0.0000
vt 0.4216 0.8696 0.0000
vt 0.4210 0.8799 0.0000
vt 0.4154 0.8692 0.0000
vt 0.4154 0.8687 0.0000
vt 0.4216 0.8687 0.0000
vt 0.4216 0.8692 0.0000
vt 0.5742 0.8638 0.0000
vt 0.5680 0.8638 0.0000
vt 0.2789 0.9236 0.0000
vt 0.2789 0.8736 0.0000
vt 0.2727 0.8736 0.0000
vt 0.2727 0.9236 0.0000
vt 0.5305 0.9138 0.0000
vt 0.3779 0.9178 0.0000
vt 0.3779 0.8968 0.0000
vt 0.3785 0.9071 0.0000
vt 0.3785 0.9075 0.0000
vt 0.3804 0.9075 0.0000
vt 0.3816 0.9075 0.0000
vt 0.3804 0.9071 0.0000
vt 0.3816 0.9071 0.0000
vt 0.3835 0.9075 0.0000
vt 0.3848 0.9075 0.0000
vt 0.3835 0.9071 0.0000
vt 0.3848 0.9071 0.0000
vt 0.3866 0.9075 0.0000
vt 0.3879 0.9075 0.0000
vt 0.3866 0.9071 0.0000
vt 0.3879 0.9071 0.0000
vt 0.3898 0.9075 0.0000
vt 0.3910 0.9075 0.0000
vt 0.3898 0.9071 0.0000
vt 0.3910 0.9071 0.0000
vt 0.3929 0.9075 0.0000
vt 0.3941 0.9075 0.0000
vt 0.3929 0.9071 0.0000
vt 0.3941 0.9071 0.0000
vt 0.3960 0.9075 0.0000
vt 0.3973 0.9075 0.0000
vt 0.3960 0.9071 0.0000
vt 0.3973 0.9071 0.0000
vt 0.3991 0.9075 0.0000
vt 0.4004 0.9071 0.0000
vt 0.3991 0.9071 0.0000
vt 0.4004 0.9075 0.0000
vt 0.5680 0.9134 0.0000
vt 0.5680 0.9129 0.0000
vt 0.5742 0.9129 0.0000
vt 0.5742 0.9134 0.0000
vt 0.3779 0.8906 0.0000
vt 0.3779 0.8696 0.0000
vt 0.3785 0.8799 0.0000
vt 0.3785 0.8803 0.0000
vt 0.3804 0.8803 0.0000
vt 0.3816 0.8803 0.0000
vt 0.3804 0.8799 0.0000
vt 0.3816 0.8799 0.0000
vt 0.3835 0.8803 0.0000
vt 0.3848 0.8803 0.0000
vt 0.3835 0.8799 0.0000
vt 0.3848 0.8799 0.0000
vt 0.3866 0.8803 0.0000
vt 0.3879 0.8803 0.0000
vt 0.3866 0.8799 0.0000
vt 0.3879 0.8799 0.0000
vt 0.3898 0.8803 0.0000
vt 0.3910 0.8803 0.0000
vt 0.3898 0.8799 0.0000
vt 0.3910 0.8799 0.0000
vt 0.3929 0.8803 0.0000
vt 0.3941 0.8803 0.0000
vt 0.3929 0.8799 0.0000
vt 0.3941 0.8799 0.0000
vt 0.3960 0.8803 0.0000
vt 0.3973 0.8803 0.0000
vt 0.3960 0.8799 0.0000
vt 0.3973 0.8799 0.0000
vt 0.3991 0.8803 0.0000
vt 0.4004 0.8803 0.0000
vt 0.3991 0.8799 0.0000
vt 0.4004 0.8799 0.0000
vt 0.4023 0.8803 0.0000
vt 0.4035 0.8803 0.0000
vt 0.4023 0.8799 0.0000
vt 0.4035 0.8799 0.0000
vt 0.4054 0.8803 0.0000
vt 0.4066 0.8803 0.0000
vt 0.4054 0.8799 0.0000
vt 0.4066 0.8799 0.0000
vt 0.4085 0.8803 0.0000
vt 0.4098 0.8803 0.0000
vt 0.4085 0.8799 0.0000
vt 0.4098 0.8799 0.0000
vt 0.4116 0.8803 0.0000
vt 0.4129 0.8803 0.0000
vt 0.4116 0.8799 0.0000
vt 0.4129 0.8799 0.0000
vt 0.4148 0.8803 0.0000
vt 0.4148 0.8799 0.0000
vt 0.3779 0.8692 0.0000
vt 0.3779 0.8687 0.0000
vt 0.5305 0.8638 0.0000
vt 0.2352 0.8736 0.0000
vt 0.2352 0.9236 0.0000
vt 0.5242 0.9138 0.0000
vt 0.3741 0.9075 0.0000
vt 0.3741 0.9071 0.0000
vt 0.3754 0.9071 0.0000
vt 0.3754 0.9075 0.0000
vt 0.3773 0.9075 0.0000
vt 0.3716 0.9178 0.0000
vt 0.3723 0.9075 0.0000
vt 0.3723 0.9071 0.0000
vt 0.3716 0.8968 0.0000
vt 0.3716 0.8964 0.0000
vt 0.3716 0.8911 0.0000
vt 0.3779 0.8911 0.0000
vt 0.3779 0.8964 0.0000
vt 0.4023 0.9075 0.0000
vt 0.4035 0.9075 0.0000
vt 0.4023 0.9071 0.0000
vt 0.4035 0.9071 0.0000
vt 0.4054 0.9075 0.0000
vt 0.4066 0.9075 0.0000
vt 0.4054 0.9071 0.0000
vt 0.4066 0.9071 0.0000
vt 0.4085 0.9075 0.0000
vt 0.4098 0.9075 0.0000
vt 0.4085 0.9071 0.0000
vt 0.4098 0.9071 0.0000
vt 0.4116 0.9075 0.0000
vt 0.4129 0.9075 0.0000
vt 0.4116 0.9071 0.0000
vt 0.4129 0.9071 0.0000
vt 0.4148 0.9075 0.0000
vt 0.5242 0.9129 0.0000
vt 0.5305 0.9129 0.0000
vt 0.5305 0.9134 0.0000
vt 0.5242 0.9134 0.0000
vt 0.3716 0.8692 0.0000
vt 0.3716 0.8687 0.0000
vt 0.5242 0.8638 0.0000
vt 0.2289 0.8736 0.0000
vt 0.2289 0.9236 0.0000
vt 0.5405 0.9022 0.0000
vt 0.5423 0.9022 0.0000
vt 0.5423 0.9026 0.0000
vt 0.5405 0.9026 0.0000
vt 0.5392 0.9022 0.0000
vt 0.5392 0.9026 0.0000
vt 0.5373 0.9026 0.0000
vt 0.5373 0.9022 0.0000
vt 0.5342 0.9026 0.0000
vt 0.5342 0.9022 0.0000
vt 0.5361 0.9022 0.0000
vt 0.5361 0.9026 0.0000
vt 0.5342 0.8750 0.0000
vt 0.5361 0.8750 0.0000
vt 0.5361 0.8754 0.0000
vt 0.5342 0.8754 0.0000
vt 0.5373 0.8750 0.0000
vt 0.5392 0.8750 0.0000
vt 0.5392 0.8754 0.0000
vt 0.5373 0.8754 0.0000
vt 0.5436 0.8750 0.0000
vt 0.5455 0.8750 0.0000
vt 0.5455 0.8754 0.0000
vt 0.5436 0.8754 0.0000
vt 0.5267 0.8754 0.0000
vt 0.5248 0.8754 0.0000
vt 0.5248 0.8750 0.0000
vt 0.5267 0.8750 0.0000
vt 0.5280 0.8754 0.0000
vt 0.5280 0.8750 0.0000
vt 0.5298 0.8750 0.0000
vt 0.5298 0.8754 0.0000
vt 0.5311 0.8750 0.0000
vt 0.5330 0.8750 0.0000
vt 0.5330 0.8754 0.0000
vt 0.5311 0.8754 0.0000
vt 0.3779 0.9187 0.0000
vt 0.3779 0.9183 0.0000
vt 0.3773 0.8803 0.0000
vt 0.3773 0.8799 0.0000
vt 0.3754 0.8799 0.0000
vt 0.3741 0.8799 0.0000
vt 0.3723 0.8799 0.0000
vt 0.3716 0.8696 0.0000
vt 0.3741 0.8803 0.0000
vt 0.3754 0.8803 0.0000
vt 0.3716 0.8906 0.0000
vt 0.3723 0.8803 0.0000
vt 0.5467 0.8750 0.0000
vt 0.5486 0.8750 0.0000
vt 0.5486 0.8754 0.0000
vt 0.5467 0.8754 0.0000
vt 0.5467 0.9022 0.0000
vt 0.5486 0.9022 0.0000
vt 0.5486 0.9026 0.0000
vt 0.5467 0.9026 0.0000
vt 0.5548 0.9026 0.0000
vt 0.5530 0.9026 0.0000
vt 0.5530 0.9022 0.0000
vt 0.5548 0.9022 0.0000
vt 0.5498 0.9022 0.0000
vt 0.5517 0.9022 0.0000
vt 0.5517 0.9026 0.0000
vt 0.5498 0.9026 0.0000
vt 0.5436 0.9022 0.0000
vt 0.5455 0.9022 0.0000
vt 0.5455 0.9026 0.0000
vt 0.5436 0.9026 0.0000
vt 0.5561 0.9022 0.0000
vt 0.5580 0.9022 0.0000
vt 0.5580 0.9026 0.0000
vt 0.5561 0.9026 0.0000
vt 0.5623 0.9022 0.0000
vt 0.5642 0.9022 0.0000
vt 0.5642 0.9026 0.0000
vt 0.5623 0.9026 0.0000
vt 0.5686 0.9022 0.0000
vt 0.5655 0.9022 0.0000
vt 0.5673 0.9022 0.0000
vt 0.5673 0.9026 0.0000
vt 0.5655 0.9026 0.0000
vt 0.5592 0.9022 0.0000
vt 0.5611 0.9022 0.0000
vt 0.5611 0.9026 0.0000
vt 0.5592 0.9026 0.0000
vt 0.5736 0.9022 0.0000
vt 0.5530 0.8750 0.0000
vt 0.5548 0.8750 0.0000
vt 0.5548 0.8754 0.0000
vt 0.5530 0.8754 0.0000
vt 0.5592 0.8750 0.0000
vt 0.5611 0.8750 0.0000
vt 0.5611 0.8754 0.0000
vt 0.5592 0.8754 0.0000
vt 0.5561 0.8750 0.0000
vt 0.5580 0.8750 0.0000
vt 0.5580 0.8754 0.0000
vt 0.5561 0.8754 0.0000
vt 0.5498 0.8750 0.0000
vt 0.5517 0.8750 0.0000
vt 0.5517 0.8754 0.0000
vt 0.5498 0.8754 0.0000
vt 0.5623 0.8750 0.0000
vt 0.5642 0.8750 0.0000
vt 0.5642 0.8754 0.0000
vt 0.5623 0.8754 0.0000
vt 0.5686 0.8754 0.0000
vt 0.5686 0.8750 0.0000
vt 0.5705 0.8750 0.0000
vt 0.5705 0.8754 0.0000
vt 0.5673 0.8750 0.0000
vt 0.5673 0.8754 0.0000
vt 0.5655 0.8754 0.0000
vt 0.5655 0.8750 0.0000
vt 0.5736 0.8750 0.0000
vt 0.5736 0.8754 0.0000
vt 0.5717 0.8754 0.0000
vt 0.5717 0.8750 0.0000
vt 0.3716 0.9183 0.0000
vt 0.3716 0.9187 0.0000
vt 0.5311 0.9026 0.0000
vt 0.5311 0.9022 0.0000
vt 0.5330 0.9022 0.0000
vt 0.5330 0.9026 0.0000
vt 0.5248 0.9026 0.0000
vt 0.5248 0.9022 0.0000
vt 0.5267 0.9022 0.0000
vt 0.5267 0.9026 0.0000
vt 0.5280 0.9022 0.0000
vt 0.5298 0.9022 0.0000
vt 0.5298 0.9026 0.0000
vt 0.5280 0.9026 0.0000
vt 0.3773 0.9071 0.0000
vt 0.4148 0.9071 0.0000
vt 0.5680 0.8919 0.0000
vt 0.5680 0.8915 0.0000
vt 0.5742 0.8915 0.0000
vt 0.5742 0.8919 0.0000
vt 0.5305 0.8915 0.0000
vt 0.5305 0.8919 0.0000
vt 0.5242 0.8919 0.0000
vt 0.5242 0.8915 0.0000
vt 0.5242 0.8857 0.0000
vt 0.5305 0.8857 0.0000
vt 0.5305 0.8862 0.0000
vt 0.5242 0.8862 0.0000
vt 0.5680 0.8857 0.0000
vt 0.5680 0.8862 0.0000
vt 0.5742 0.8862 0.0000
vt 0.5742 0.8857 0.0000
vt 0.5680 0.8647 0.0000
vt 0.5680 0.8642 0.0000
vt 0.5742 0.8642 0.0000
vt 0.5742 0.8647 0.0000
vt 0.5305 0.8647 0.0000
vt 0.5305 0.8642 0.0000
vt 0.5242 0.8647 0.0000
vt 0.5242 0.8642 0.0000
# 354 texture coords

g SPW_Urban_Bridge_4way_RoadBridge_Flyover_Part_01
usemtl SPW_Urban_Road
s off
f 1/1/1 2/2/1 3/3/1 4/4/1 
f 2/1/2 5/2/2 6/3/2 3/4/2 
f 5/1/3 7/2/3 8/3/3 6/4/3 
f 7/1/4 1/2/4 4/3/4 8/4/4 
f 4/1/5 3/2/5 6/3/5 8/4/5 
f 7/1/6 5/2/6 2/3/6 1/4/6 
f 9/1/7 10/2/7 11/3/7 12/4/7 
f 10/1/8 13/2/8 14/3/8 11/4/8 
f 13/1/9 15/2/9 16/3/9 14/4/9 
f 15/1/10 9/2/10 12/3/10 16/4/10 
f 12/1/5 11/2/5 14/3/5 16/4/5 
f 15/1/6 13/2/6 10/3/6 9/4/6 
f 17/1/11 18/2/11 19/3/11 20/4/11 
f 18/1/12 21/2/12 22/3/12 19/4/12 
f 21/1/13 23/2/13 24/3/13 22/4/13 
f 23/1/14 17/2/14 20/3/14 24/4/14 
f 20/1/5 19/2/5 22/3/5 24/4/5 
f 23/1/6 21/2/6 18/3/6 17/4/6 
f 25/1/15 26/2/15 27/3/15 28/4/15 
s 1
f 29/1/16 30/2/16 31/3/16 32/4/16 
s off
f 30/1/17 33/2/17 34/3/17 31/4/17 
s 1
f 35/1/18 25/2/18 28/3/18 36/4/18 
s off
f 37/1/5 32/2/5 31/3/5 34/4/5 
f 35/1/6 38/2/6 26/3/6 25/4/6 
f 39/1/19 29/2/19 38/3/19 35/4/19 
f 28/1/5 27/2/5 40/3/5 36/4/5 
s 1
f 39/1/20 35/2/18 36/3/18 37/4/20 
f 26/1/16 38/2/16 40/3/16 27/4/16 
f 33/1/20 39/2/20 37/3/20 34/4/20 
s off
f 33/1/6 30/2/6 29/3/6 39/4/6 
f 36/1/21 40/2/21 32/3/21 37/4/21 
s 1
f 38/1/16 29/2/16 32/3/16 40/4/16 
s off
f 41/1/7 42/2/7 43/3/7 44/4/7 
f 42/1/8 45/2/8 46/3/8 43/4/8 
f 45/1/9 47/2/9 48/3/9 46/4/9 
f 47/1/10 41/2/10 44/3/10 48/4/10 
f 44/1/5 43/2/5 46/3/5 48/4/5 
f 47/1/6 45/2/6 42/3/6 41/4/6 
f 49/1/1 50/2/1 51/3/1 52/4/1 
f 50/1/22 53/2/22 54/3/22 51/4/22 
f 53/1/3 55/2/3 56/3/3 54/4/3 
f 55/1/4 49/2/4 52/3/4 56/4/4 
f 52/1/5 51/2/5 54/3/5 56/4/5 
f 55/1/6 53/2/6 50/3/6 49/4/6 
f 57/1/23 58/2/23 59/3/23 60/4/23 
f 58/1/24 61/2/24 62/3/24 59/4/24 
f 61/1/25 63/2/25 64/3/25 62/4/25 
f 63/1/26 57/2/26 60/3/26 64/4/26 
f 60/1/5 59/2/5 62/3/5 64/4/5 
f 63/1/6 61/2/6 58/3/6 57/4/6 
f 65/1/27 66/2/27 67/3/27 68/4/27 
f 66/1/28 69/2/28 70/3/28 67/4/28 
f 69/1/29 71/2/29 72/3/29 70/4/29 
f 71/1/30 65/2/30 68/3/30 72/4/30 
f 68/1/5 67/2/5 70/3/5 72/4/5 
f 71/1/6 69/2/6 66/3/6 65/4/6 
f 73/1/7 74/2/7 75/3/7 76/4/7 
f 74/1/8 77/2/8 78/3/8 75/4/8 
f 77/1/9 79/2/9 80/3/9 78/4/9 
f 79/1/10 73/2/10 76/3/10 80/4/10 
f 76/1/5 75/2/5 78/3/5 80/4/5 
f 79/1/6 77/2/6 74/3/6 73/4/6 
f 81/1/23 82/2/23 83/3/23 84/4/23 
f 82/1/24 85/2/24 86/3/24 83/4/24 
f 85/1/25 87/2/25 88/3/25 86/4/25 
f 87/1/26 81/2/26 84/3/26 88/4/26 
f 84/1/5 83/2/5 86/3/5 88/4/5 
f 87/1/6 85/2/6 82/3/6 81/4/6 
f 89/1/1 90/2/1 91/3/1 92/4/1 
f 90/1/22 93/2/22 94/3/22 91/4/22 
f 93/1/31 95/2/31 96/3/31 94/4/31 
f 95/1/4 89/2/4 92/3/4 96/4/4 
f 92/1/5 91/2/5 94/3/5 96/4/5 
f 95/1/6 93/2/6 90/3/6 89/4/6 
f 97/1/7 98/2/7 99/3/7 100/4/7 
f 98/1/32 101/2/32 102/3/32 99/4/32 
f 101/1/9 103/2/9 104/3/9 102/4/9 
f 103/1/10 97/2/10 100/3/10 104/4/10 
f 100/1/5 99/2/5 102/3/5 104/4/5 
f 103/1/6 101/2/6 98/3/6 97/4/6 
f 105/1/11 106/2/11 107/3/11 108/4/11 
f 106/1/12 109/2/12 110/3/12 107/4/12 
f 109/1/33 111/2/33 112/3/33 110/4/33 
f 111/1/14 105/2/14 108/3/14 112/4/14 
f 108/1/5 107/2/5 110/3/5 112/4/5 
f 111/1/6 109/2/6 106/3/6 105/4/6 
f 113/1/15 114/2/15 115/3/15 116/4/15 
s 1
f 117/1/34 118/2/16 119/3/16 120/4/34 
s off
f 118/1/17 121/2/17 122/3/17 119/4/17 
s 1
f 123/1/18 113/2/18 116/3/18 124/4/18 
s off
f 125/1/5 120/2/5 119/3/5 122/4/5 
f 123/1/6 126/2/6 114/3/6 113/4/6 
f 127/1/19 117/2/19 126/3/19 123/4/19 
f 116/1/5 115/2/5 128/3/5 124/4/5 
s 1
f 127/1/18 123/2/18 124/3/18 125/4/18 
f 114/1/16 126/2/34 128/3/34 115/4/16 
f 121/1/18 127/2/18 125/3/18 122/4/18 
s off
f 121/1/6 118/2/6 117/3/6 127/4/6 
f 124/1/21 128/2/21 120/3/21 125/4/21 
s 1
f 126/1/34 117/2/34 120/3/34 128/4/34 
s off
f 129/1/7 130/2/7 131/3/7 132/4/7 
f 130/1/32 133/2/32 134/3/32 131/4/32 
f 133/1/35 135/2/35 136/3/35 134/4/35 
f 135/1/10 129/2/10 132/3/10 136/4/10 
f 132/1/5 131/2/5 134/3/5 136/4/5 
f 135/1/6 133/2/6 130/3/6 129/4/6 
f 137/1/1 138/2/1 139/3/1 140/4/1 
f 138/1/22 141/2/22 142/3/22 139/4/22 
f 141/1/3 143/2/3 144/3/3 142/4/3 
f 143/1/4 137/2/4 140/3/4 144/4/4 
f 140/1/5 139/2/5 142/3/5 144/4/5 
f 143/1/6 141/2/6 138/3/6 137/4/6 
f 145/1/23 146/2/23 147/3/23 148/4/23 
f 146/1/24 149/2/24 150/3/24 147/4/24 
f 149/1/25 151/2/25 152/3/25 150/4/25 
f 151/1/26 145/2/26 148/3/26 152/4/26 
f 148/1/5 147/2/5 150/3/5 152/4/5 
f 151/1/6 149/2/6 146/3/6 145/4/6 
f 153/1/27 154/2/27 155/3/27 156/4/27 
f 154/1/28 157/2/28 158/3/28 155/4/28 
f 157/1/29 159/2/29 160/3/29 158/4/29 
f 159/1/30 153/2/30 156/3/30 160/4/30 
f 156/1/5 155/2/5 158/3/5 160/4/5 
f 159/1/6 157/2/6 154/3/6 153/4/6 
f 161/1/7 162/2/7 163/3/7 164/4/7 
f 162/1/8 165/2/8 166/3/8 163/4/8 
f 165/1/35 167/2/35 168/3/35 166/4/35 
f 167/1/10 161/2/10 164/3/10 168/4/10 
f 164/1/5 163/2/5 166/3/5 168/4/5 
f 167/1/6 165/2/6 162/3/6 161/4/6 
f 169/1/23 170/2/23 171/3/23 172/4/23 
f 170/1/24 173/2/24 174/3/24 171/4/24 
f 173/1/25 175/2/25 176/3/25 174/4/25 
f 175/1/26 169/2/26 172/3/26 176/4/26 
f 172/1/5 171/2/5 174/3/5 176/4/5 
f 175/1/6 173/2/6 170/3/6 169/4/6 
s 1
f 177/5/20 178/6/20 179/7/20 180/8/20 
s off
f 178/5/15 181/6/15 182/7/15 179/8/15 
s 1
f 183/5/16 184/6/16 185/7/16 186/8/16 
s off
f 184/5/17 187/6/17 188/7/17 185/8/17 
f 180/5/5 179/6/5 182/7/5 189/8/5 
f 190/5/6 181/6/6 178/7/6 177/8/6 
f 183/5/19 190/6/19 177/7/19 191/8/19 
f 192/5/36 180/6/36 189/7/36 186/8/36 
s 1
f 181/5/16 190/6/16 189/7/16 182/8/16 
f 191/5/20 177/6/20 180/7/20 192/8/20 
f 187/5/20 191/6/20 192/7/20 188/8/20 
s off
f 188/5/5 192/6/5 186/7/5 185/8/5 
f 184/5/6 183/6/6 191/7/6 187/8/6 
s 1
f 190/5/16 183/6/16 186/7/16 189/8/16 
f 193/5/20 194/6/20 195/7/20 196/8/20 
s off
f 194/5/15 197/6/15 198/7/15 195/8/15 
s 1
f 199/5/16 200/6/16 201/7/16 202/8/16 
s off
f 200/5/17 203/6/17 204/7/17 201/8/17 
f 196/5/37 195/6/37 198/7/37 205/8/37 
f 206/5/6 197/6/6 194/7/6 193/8/6 
f 199/5/19 206/6/19 193/7/19 207/8/19 
f 208/5/36 196/6/36 205/7/36 202/8/36 
s 1
f 197/5/16 206/6/16 205/7/16 198/8/16 
f 207/5/20 193/6/20 196/7/20 208/8/20 
f 203/5/20 207/6/20 208/7/20 204/8/20 
s off
f 204/5/5 208/6/5 202/7/5 201/8/5 
f 200/5/6 199/6/6 207/7/6 203/8/6 
s 1
f 206/5/16 199/6/16 202/7/16 205/8/16 
f 209/9/17 210/10/17 211/11/17 212/12/17 
s 2
f 213/9/20 214/10/20 215/11/20 216/12/20 
s 1
f 217/9/15 218/10/15 219/11/15 220/12/15 
s 2
f 221/9/16 222/10/16 223/11/16 224/12/16 
s 4
f 225/9/5 216/10/5 215/11/5 226/12/5 
s 2
f 227/9/16 228/10/16 229/11/16 230/12/16 
s off
f 231/9/38 232/10/38 209/11/38 233/12/38 
s 4
f 234/9/5 225/10/5 226/11/5 220/12/5 
s 1
f 214/9/15 228/10/15 226/11/15 215/12/15 
f 233/9/17 209/10/17 212/11/17 235/12/17 
s off
f 236/9/39 237/10/39 238/11/39 239/12/39 
s 1
f 228/9/15 214/10/15 240/11/15 229/12/15 
s 2
f 241/9/20 210/10/20 238/11/20 237/12/18 
s 1
f 210/9/17 209/10/17 239/11/17 238/12/17 
f 222/9/17 233/10/17 235/11/17 223/12/17 
s 4
f 242/9/5 234/10/5 220/11/5 219/12/5 
s off
f 221/9/39 231/10/39 233/11/39 222/12/39 
s 1
f 228/9/15 217/10/15 220/11/15 226/12/15 
s off
f 218/9/39 217/10/39 243/11/39 244/12/39 
s 1
f 224/9/21 245/10/21 234/11/21 242/12/21 
s 2
f 214/9/20 213/10/20 246/11/20 240/12/20 
s off
f 229/9/39 240/10/39 246/11/39 230/12/39 
s 1
f 245/9/21 247/10/21 225/11/21 234/12/21 
s off
f 217/9/40 228/10/40 227/11/40 243/12/40 
s 2
f 232/9/16 227/10/16 230/11/16 236/12/16 
s 1
f 247/9/21 248/10/21 216/11/21 225/12/21 
s 2
f 218/9/16 244/10/16 242/11/16 219/12/16 
f 241/9/20 213/10/20 216/11/20 248/12/20 
f 210/9/20 241/10/20 248/11/20 211/12/20 
s 4
f 212/9/5 211/10/5 248/11/5 247/12/5 
s 2
f 209/9/16 232/10/16 236/11/16 239/12/16 
s 4
f 235/9/5 212/10/5 247/11/5 245/12/5 
f 223/9/5 235/10/5 245/11/5 224/12/5 
s off
f 244/9/19 243/10/19 231/11/19 221/12/19 
s 2
f 213/9/20 241/10/20 237/11/18 246/12/20 
s off
f 230/9/19 246/10/19 237/11/19 236/12/19 
f 243/9/41 227/10/41 232/11/41 231/12/41 
s 2
f 244/9/16 221/10/16 224/11/16 242/12/16 
s 1
f 249/9/15 250/10/15 251/11/15 252/12/15 
s 2
f 253/9/34 254/10/16 255/11/16 256/12/16 
s off
f 257/9/17 258/10/17 259/11/17 260/12/17 
s 2
f 261/9/18 262/10/18 263/11/18 264/12/18 
s off
f 265/9/37 256/10/37 255/11/37 266/12/37 
s 2
f 267/9/20 268/10/20 269/11/20 270/12/20 
s off
f 271/9/42 272/10/42 249/11/42 273/12/42 
s 1
f 274/9/37 265/10/37 266/11/37 260/12/5 
s off
f 254/9/43 268/10/43 266/11/43 255/12/43 
s 1
f 273/9/15 249/10/15 252/11/15 275/12/15 
s off
f 276/9/39 277/10/39 278/11/39 279/12/39 
f 268/9/43 254/10/43 280/11/43 269/12/43 
s 2
f 281/9/16 250/10/16 278/11/16 277/12/16 
s 1
f 250/9/15 249/10/15 279/11/15 278/12/15 
f 262/9/15 273/10/15 275/11/15 263/12/15 
f 282/9/5 274/10/37 260/11/5 259/12/5 
s off
f 261/9/39 271/10/39 273/11/39 262/12/39 
f 268/9/17 257/10/17 260/11/17 266/12/17 
f 283/9/19 284/10/19 271/11/19 261/12/19 
s 4
f 263/9/5 275/10/5 285/11/5 264/12/5 
s 3
f 253/9/34 281/10/16 277/11/16 286/12/34 
s off
f 270/9/19 286/10/19 277/11/19 276/12/19 
s 4
f 275/9/5 252/10/5 287/11/5 285/12/5 
s off
f 284/9/44 267/10/44 272/11/44 271/12/44 
s 2
f 249/9/18 272/10/18 276/11/18 279/12/18 
s 4
f 252/9/5 251/10/5 288/11/5 287/12/5 
s 2
f 283/9/20 261/10/18 264/11/18 282/12/20 
f 250/9/16 281/10/16 288/11/16 251/12/16 
f 258/9/20 283/10/20 282/11/20 259/12/20 
s off
f 257/9/45 268/10/45 267/11/45 284/12/45 
f 269/9/39 280/10/39 286/11/39 270/12/39 
s 1
f 254/9/16 253/10/34 286/11/34 280/12/16 
s off
f 258/9/6 257/10/6 284/11/6 283/12/6 
f 264/9/21 285/10/21 274/11/21 282/12/21 
s 8
f 285/9/21 287/10/21 265/11/21 274/12/21 
s 2
f 272/9/18 267/10/20 270/11/20 276/12/18 
s 8
f 287/9/21 288/10/21 256/11/21 265/12/21 
s 2
f 281/9/16 253/10/34 256/11/16 288/12/16 
s 1
f 289/13/46 290/14/46 291/15/46 292/16/46 
f 293/17/16 294/18/16 295/18/16 192/17/16 
s 2
f 293/19/6 296/20/6 297/21/6 294/22/6 
f 298/23/5 299/24/6 300/25/6 301/26/6 
f 301/26/6 302/27/6 303/28/39 298/23/5 
f 299/29/6 304/30/6 305/31/39 300/32/6 
f 306/33/6 302/34/6 307/35/6 305/31/39 
f 300/32/6 305/31/39 307/35/6 
f 302/34/6 306/33/6 308/36/6 303/37/39 
f 303/37/39 308/36/6 309/38/39 305/31/39 
f 303/37/39 305/31/39 304/30/6 
f 310/39/6 311/40/6 312/41/6 313/42/6 
f 314/43/6 315/44/6 316/45/39 317/46/6 
f 317/46/6 318/47/39 319/48/39 320/49/6 
f 314/43/6 317/46/6 320/49/6 321/50/6 
f 322/51/6 321/50/6 320/49/6 323/52/6 
f 324/53/39 319/48/39 318/47/39 325/54/39 
f 323/52/6 324/53/39 325/54/39 316/45/39 
f 323/52/6 316/45/39 315/44/6 322/51/6 
f 326/55/6 327/56/6 328/57/6 329/58/6 
s 4
f 328/59/20 327/60/20 330/60/20 331/59/20 
s off
f 295/61/37 331/62/37 330/63/37 192/64/37 
s 1
f 332/65/16 293/17/16 192/17/16 333/65/16 
f 334/66/19 335/67/19 336/68/19 337/69/19 
f 334/66/19 337/69/19 338/70/19 339/71/19 
f 338/70/19 340/72/19 341/73/46 339/71/19 
f 334/66/19 339/71/19 342/74/46 343/75/46 
f 342/74/46 344/76/19 345/77/46 343/75/46 
f 334/66/19 343/75/46 346/78/19 347/79/19 
f 346/78/19 348/80/19 349/81/46 347/79/19 
f 334/66/19 347/79/19 350/82/46 351/83/46 
f 350/82/46 352/84/19 353/85/46 351/83/46 
f 334/66/19 351/83/46 354/86/19 355/87/46 
f 354/86/19 356/88/46 357/89/19 355/87/46 
f 334/66/19 355/87/46 358/90/19 359/91/19 
f 358/90/19 360/92/46 361/93/19 359/91/19 
f 334/66/19 359/91/19 362/94/46 363/95/46 
f 362/94/46 364/96/19 363/95/46 
f 334/66/19 363/95/46 365/97/19 309/38/46 
s 2
f 296/98/6 309/99/39 308/100/6 297/101/6 
s 1
f 366/102/19 367/103/19 368/104/19 369/105/19 
f 366/102/19 369/105/19 370/106/19 371/107/19 
f 370/106/19 372/108/46 373/109/46 371/107/19 
f 366/102/19 371/107/19 374/110/46 375/111/19 
f 374/110/46 376/112/19 377/113/19 375/111/19 
f 366/102/19 375/111/19 378/114/46 292/115/46 
f 378/114/46 379/116/19 289/117/46 292/115/46 
f 366/102/19 292/115/46 291/118/46 380/119/19 
f 291/118/46 290/120/46 381/121/19 380/119/19 
f 366/102/19 380/119/19 382/122/46 383/123/19 
f 382/122/46 384/124/19 385/125/46 383/123/19 
f 366/102/19 383/123/19 386/126/46 387/127/19 
f 386/126/46 388/128/46 389/129/46 387/127/19 
f 366/102/19 387/127/19 390/130/46 391/131/46 
f 390/130/46 392/132/19 393/133/46 391/131/46 
f 366/102/19 391/131/46 394/134/19 395/135/46 
f 394/134/19 396/136/46 397/137/19 395/135/46 
f 366/102/19 395/135/46 398/138/19 399/139/19 
f 398/138/19 400/140/46 401/141/19 399/139/19 
f 366/102/19 399/139/19 402/142/46 403/143/19 
f 402/142/46 404/144/19 405/145/46 403/143/19 
f 366/102/19 403/143/19 406/146/19 407/147/19 
f 406/146/19 408/148/19 409/149/19 407/147/19 
f 320/49/19 366/102/19 407/147/19 
f 320/49/19 407/147/19 410/150/19 323/52/19 
f 323/52/19 410/150/19 411/151/19 409/149/19 
f 323/52/19 409/149/19 408/148/19 405/145/46 
f 323/52/19 405/145/46 404/144/19 401/141/19 
f 323/52/19 401/141/19 400/140/46 397/137/19 
f 323/52/19 397/137/19 396/136/46 393/133/46 
f 323/52/19 393/133/46 392/132/19 389/129/46 
f 323/52/19 389/129/46 388/128/46 385/125/46 
f 323/52/19 385/125/46 384/124/19 381/121/19 
f 323/52/19 381/121/19 290/120/46 289/117/46 
f 323/52/19 289/117/46 379/116/19 377/113/19 
f 323/52/19 377/113/19 376/112/19 373/109/46 
f 323/52/19 373/109/46 372/108/46 368/104/19 
f 323/52/19 368/104/19 367/103/19 
f 412/152/19 413/153/19 327/56/19 326/55/19 
s 4
f 327/60/20 413/154/20 205/154/20 330/60/20 
s off
f 192/64/21 330/63/21 205/155/21 333/156/21 
s 1
f 414/157/16 332/65/16 333/65/16 415/157/16 
s 2
f 416/158/6 417/159/6 418/160/6 419/161/6 
f 419/161/6 420/162/39 334/66/39 421/163/6 
f 416/158/6 419/161/6 421/163/6 422/164/6 
f 423/165/6 422/164/6 421/163/6 424/166/6 
f 425/167/39 426/168/39 427/169/39 428/170/6 
s 1
f 309/38/46 365/97/19 429/171/19 430/172/46 
f 429/171/19 431/173/19 432/174/19 430/172/46 
f 309/38/46 430/172/46 433/175/19 434/176/46 
f 433/175/19 435/177/19 436/178/19 434/176/46 
f 309/38/46 434/176/46 437/179/19 438/180/19 
f 437/179/19 439/181/19 440/182/19 438/180/19 
f 309/38/46 438/180/19 441/183/19 442/184/46 
f 441/183/19 443/185/19 444/186/19 442/184/46 
f 309/38/46 442/184/46 445/187/19 
s 2
f 421/188/6 334/189/39 446/190/6 447/191/39 
s off
f 309/99/19 296/98/19 446/190/19 334/189/19 
s 2
f 448/192/39 449/193/39 413/153/39 412/152/39 
s 4
f 413/154/20 449/194/20 450/194/20 205/154/20 
s off
f 333/156/37 205/155/37 450/195/37 415/196/37 
s 1
f 349/197/46 352/198/19 350/199/46 347/200/19 
f 348/201/19 346/202/19 343/203/46 345/204/46 
f 339/205/19 341/206/46 344/207/19 342/208/46 
f 373/209/46 376/210/19 374/211/46 371/212/19 
f 377/213/19 379/214/19 378/215/46 375/216/19 
f 381/217/19 384/218/19 382/219/46 380/220/19 
s 2
f 451/221/39 452/222/6 453/223/6 454/224/39 
f 455/225/39 456/226/6 457/227/6 458/228/6 
s 1
f 368/229/19 372/230/46 370/231/19 369/232/19 
s off
f 332/233/46 446/234/46 296/20/46 293/19/46 
s 2
f 367/103/6 366/102/6 458/235/6 457/236/6 
f 367/103/6 457/236/6 456/237/6 454/238/39 
f 367/103/6 454/238/39 453/239/6 459/240/6 
f 451/241/39 454/238/39 456/237/6 455/242/39 
f 455/242/39 458/235/6 366/102/6 460/243/6 
f 451/241/39 455/242/39 460/243/6 452/244/6 
f 452/244/6 460/243/6 459/240/6 453/239/6 
s 1
f 385/245/46 388/246/46 386/247/46 383/248/19 
f 357/249/19 360/250/46 358/251/19 355/252/46 
f 429/253/19 365/254/19 363/255/46 431/256/19 
f 361/257/19 364/258/19 362/259/46 359/260/19 
s off
f 353/261/46 356/262/46 354/263/46 351/264/46 
s 1
f 432/265/19 435/266/19 433/267/19 430/268/46 
f 440/269/19 443/270/19 441/271/19 438/272/19 
s 2
f 298/23/5 303/28/39 304/273/6 299/24/6 
s 1
f 444/274/19 461/275/19 445/276/19 442/277/46 
f 436/278/19 439/279/19 437/280/19 434/281/46 
s 2
f 300/25/6 307/282/6 302/27/6 301/26/6 
s 1
f 393/283/46 396/284/46 394/285/19 391/286/46 
f 401/287/19 404/288/19 402/289/46 399/290/19 
f 397/291/19 400/292/46 398/293/19 395/294/46 
f 389/295/46 392/296/19 390/297/46 387/298/19 
f 405/299/46 408/300/19 406/301/19 403/302/19 
s 2
f 321/303/6 322/304/6 315/305/6 314/306/6 
s off
f 331/57/47 295/22/47 294/22/47 297/21/47 
f 331/57/43 297/21/43 308/36/43 306/33/43 
f 331/57/43 306/33/43 329/58/43 328/57/43 
s 1
f 411/307/19 410/308/19 407/309/19 409/310/19 
s 2
f 325/311/39 318/312/39 317/313/6 316/314/39 
s off
f 447/315/15 414/316/15 415/316/15 425/167/15 
f 415/316/48 450/193/48 449/193/48 448/192/48 
f 415/316/15 448/192/15 426/168/15 425/167/15 
s 1
f 337/317/19 336/318/19 340/319/19 338/320/19 
s 2
f 422/321/6 423/322/6 417/323/6 416/324/6 
f 418/325/6 462/326/6 420/327/39 419/328/6 
s 1
f 428/170/46 427/169/46 311/40/19 310/39/19 
s 2
f 414/316/39 447/315/39 446/234/6 332/233/6 
f 417/159/6 423/165/6 424/166/6 418/160/6 
f 462/329/6 418/160/6 424/166/6 335/67/39 
f 420/162/39 462/329/6 335/67/39 334/66/39 
s 1
f 305/31/19 309/38/46 445/187/19 461/330/19 
f 305/31/19 461/330/19 444/186/19 443/185/19 
f 305/31/19 443/185/19 440/182/19 439/181/19 
f 305/31/19 439/181/19 436/178/19 435/177/19 
f 305/31/19 435/177/19 432/174/19 431/173/19 
f 305/31/19 431/173/19 363/95/46 364/96/19 
f 305/31/19 364/96/19 361/93/19 360/92/46 
f 305/31/19 360/92/46 357/89/19 356/88/46 
f 305/31/19 356/88/46 353/85/46 352/84/19 
f 305/31/19 352/84/19 349/81/46 348/80/19 
f 305/31/19 348/80/19 345/77/46 344/76/19 
f 305/31/19 344/76/19 341/73/46 340/72/19 
f 305/31/19 340/72/19 336/68/19 335/67/19 
s 2
f 305/331/39 310/332/6 313/333/6 306/334/6 
s 1
f 428/335/46 310/332/19 305/331/19 335/336/19 
s 2
f 335/336/39 424/337/6 425/338/39 428/335/6 
f 460/339/6 366/340/6 427/341/39 426/342/39 
s off
f 366/340/19 320/343/19 311/344/19 427/341/19 
s 2
f 312/345/6 311/344/6 320/343/6 319/346/39 
f 323/347/6 326/348/6 329/349/6 324/350/39 
s 1
f 367/351/19 412/352/19 326/348/19 323/347/19 
s 2
f 459/353/6 448/354/39 412/352/39 367/351/6 
# 407 polygons - 6 triangles

