# 3ds Max Wavefront OBJ Exporter v0.97b - (c)2007 guruware
# File Created: 15.03.2017 11:44:07

mtllib SPW_Urban_Bridge_RoadBridge_Pillar_01.mtl

#
# object SPW_Urban_Bridge_RoadBridge_Pillar_01
#

v  -59.0551 78.7401 88.5827
v  -59.0551 78.7402 -88.5827
v  -59.0551 0.0000 -88.5827
v  -59.0551 -0.0000 88.5827
v  59.0551 78.7402 -88.5827
v  59.0551 0.0000 -88.5827
v  59.0551 78.7401 88.5827
v  59.0551 -0.0000 88.5827
v  45.2687 78.7401 74.7892
v  -45.2687 78.7401 74.7892
v  45.2687 393.7008 74.7892
v  -45.2687 393.7008 74.7892
v  45.2687 78.7402 -74.7891
v  -45.2687 78.7402 -74.7891
v  45.2687 393.7008 -74.7891
v  -45.2687 393.7008 -74.7891
v  -472.4409 448.2580 78.7402
v  -472.4409 448.2580 -78.7401
v  -322.6942 393.7008 -78.7401
v  -322.6942 393.7008 78.7402
v  472.4409 448.2580 -78.7401
v  322.6942 393.7008 -78.7401
v  472.4409 448.2580 78.7402
v  322.6942 393.7008 78.7402
v  472.4409 511.8110 78.7402
v  472.4409 511.8110 -78.7401
v  -472.4409 511.8110 -78.7401
v  -472.4409 511.8110 78.7402
# 28 vertices

vn -1.0000 0.0000 -0.0000
vn 0.0000 0.0000 -1.0000
vn 1.0000 0.0000 -0.0000
vn 0.0000 -0.0000 1.0000
vn 0.0000 -1.0000 -0.0000
vn -0.0000 1.0000 0.0000
vn 0.0000 1.0000 0.0000
vn -0.3423 -0.9396 -0.0000
vn 0.3423 -0.9396 -0.0000
# 9 vertex normals

vt 0.3603 0.3849 0.0000
vt 0.4133 0.3849 0.0000
vt 0.4133 0.4379 0.0000
vt 0.3603 0.4379 0.0000
vt 0.3569 0.3864 0.0000
vt 0.4069 0.3864 0.0000
vt 0.4069 0.4364 0.0000
vt 0.3569 0.4364 0.0000
# 8 texture coords

g SPW_Urban_Bridge_RoadBridge_Pillar_01
usemtl SPW_Urban_Road
s off
f 1/1/1 2/2/1 3/3/1 4/4/1 
f 2/1/2 5/2/2 6/3/2 3/4/2 
f 5/1/3 7/2/3 8/3/3 6/4/3 
f 7/1/4 1/2/4 4/3/4 8/4/4 
f 4/1/5 3/2/5 6/3/5 8/4/5 
s 1
f 1/1/6 7/2/7 9/3/7 10/4/6 
s off
f 10/1/4 9/2/4 11/3/4 12/4/4 
s 1
f 7/1/7 5/2/6 13/3/6 9/4/7 
f 5/1/6 2/2/7 14/3/7 13/4/6 
f 2/1/7 1/2/6 10/3/6 14/4/7 
s off
f 11/1/7 15/2/7 16/3/7 12/4/7 
f 9/1/3 13/2/3 15/3/3 11/4/3 
f 13/1/2 14/2/2 16/3/2 15/4/2 
f 14/1/1 10/2/1 12/3/1 16/4/1 
f 17/5/8 18/6/8 19/7/8 20/8/8 
s 1
f 18/5/2 21/6/2 22/7/2 19/8/2 
s off
f 21/5/9 23/6/9 24/7/9 22/8/9 
s 1
f 23/5/4 17/6/4 20/7/4 24/8/4 
s off
f 20/5/5 19/6/5 22/7/5 24/8/5 
f 25/5/7 26/6/7 27/7/7 28/8/7 
s 1
f 25/5/4 28/6/4 17/7/4 23/8/4 
s off
f 26/5/3 25/6/3 23/7/3 21/8/3 
s 1
f 27/5/2 26/6/2 21/7/2 18/8/2 
s off
f 28/5/1 27/6/1 18/7/1 17/8/1 
# 24 polygons

