# 3ds Max Wavefront OBJ Exporter v0.97b - (c)2007 guruware
# File Created: 15.03.2017 10:47:43

mtllib SPB_Building03.mtl

#
# object SPB_Building03
#

v  -50.1969 8.3662 225.0759
v  -50.1969 8.3662 124.6822
v  -50.1969 0.0000 124.6822
v  -50.1969 0.0000 225.0759
v  50.1968 8.3662 124.6822
v  50.1968 0.0000 124.6822
v  50.1968 8.3662 225.0759
v  50.1968 0.0000 225.0759
v  -33.4646 25.0984 208.3436
v  -33.4646 25.0984 141.4145
v  -33.4646 16.7323 141.4145
v  -33.4646 16.7323 208.3436
v  33.4646 25.0984 141.4145
v  33.4646 16.7323 141.4145
v  33.4646 25.0984 208.3436
v  33.4646 16.7323 208.3436
v  -41.8307 16.7323 216.7098
v  -41.8307 16.7323 133.0483
v  -41.8307 8.3661 133.0483
v  -41.8307 8.3661 216.7098
v  41.8307 16.7323 133.0483
v  41.8307 8.3661 133.0483
v  41.8307 16.7323 216.7098
v  41.8307 8.3661 216.7098
v  -204.1339 25.0984 187.4016
v  -204.1339 25.0985 -187.4016
v  -204.1339 0.0000 -187.4016
v  -204.1339 -0.0000 187.4016
v  204.1339 25.0985 -187.4016
v  204.1339 0.0000 -187.4016
v  204.1339 25.0984 187.4016
v  204.1339 -0.0000 187.4016
v  -150.5905 610.7284 185.1676
v  -150.5905 610.7284 178.1439
v  -150.5905 527.0670 178.1439
v  -150.5905 527.0670 185.1676
v  -100.3937 610.7284 178.1439
v  -100.3937 527.0670 178.1439
v  -100.3937 610.7284 185.1676
v  -100.3937 527.0670 185.1676
v  -103.7517 530.3676 185.1676
v  -147.2325 530.3676 185.1676
v  -103.7517 530.3676 184.3860
v  -147.2325 530.3676 184.3860
v  -147.2325 607.4278 185.1676
v  -103.7517 607.4278 185.1676
v  -103.7517 607.4278 184.3860
v  -147.2325 607.4278 184.3860
v  100.3937 610.7284 185.1676
v  100.3937 610.7284 178.1439
v  100.3937 527.0670 178.1439
v  100.3937 527.0670 185.1676
v  150.5906 610.7284 178.1439
v  150.5906 527.0670 178.1439
v  150.5906 610.7284 185.1676
v  150.5906 527.0670 185.1676
v  147.2325 530.3676 185.1676
v  103.7517 530.3676 185.1676
v  147.2325 530.3676 184.3860
v  103.7517 530.3676 184.3860
v  103.7517 607.4278 185.1676
v  147.2325 607.4278 185.1676
v  147.2325 607.4278 184.3860
v  103.7517 607.4278 184.3860
v  -29.2815 610.7284 185.1676
v  -29.2815 610.7284 178.1439
v  -29.2815 510.3347 178.1438
v  -29.2815 510.3347 185.1676
v  29.2815 610.7284 178.1439
v  29.2815 510.3347 178.1438
v  29.2815 610.7284 185.1676
v  29.2815 510.3347 185.1676
v  25.9235 513.6353 185.1676
v  -25.9235 513.6353 185.1676
v  25.9235 513.6353 184.3860
v  -25.9235 513.6353 184.3860
v  -25.9235 607.4278 185.1676
v  25.9235 607.4278 185.1676
v  25.9235 607.4278 184.3860
v  -25.9235 607.4278 184.3860
v  38.3343 130.4939 212.8601
v  38.3343 130.4939 173.0620
v  38.3343 106.9060 173.0935
v  38.3343 106.9060 181.2454
v  44.9215 130.4939 173.0620
v  44.9215 106.9060 173.0935
v  44.9215 130.4939 212.8601
v  44.9215 106.9060 181.2454
v  -44.9216 130.4939 212.8601
v  -44.9216 130.4939 173.0620
v  -44.9216 106.9060 173.0935
v  -44.9216 106.9060 181.2454
v  -38.3345 130.4939 173.0620
v  -38.3345 106.9060 173.0935
v  -38.3345 130.4939 212.8601
v  -38.3345 106.9060 181.2454
v  46.5363 152.0758 151.4225
v  0.0000 180.8122 151.4225
v  0.0000 183.6358 151.4225
v  46.5363 154.8993 151.4225
v  -46.5363 152.0758 218.3517
v  -29.8486 152.0758 218.3517
v  -28.6976 153.4962 218.3517
v  0.0000 180.8122 218.3517
v  -15.5310 160.7504 218.3517
v  0.0000 163.2977 218.3517
v  15.5310 160.7504 218.3517
v  46.5363 152.0758 218.3517
v  28.6976 153.4962 218.3517
v  29.8486 152.0758 218.3517
v  -48.4030 151.0252 218.3517
v  -46.5363 152.0758 220.1026
v  -48.4030 151.0252 220.1026
v  29.8486 152.0758 151.4225
v  28.6976 153.4962 151.4225
v  15.5310 160.7504 151.4225
v  -0.0000 163.2977 151.4225
v  -15.5310 160.7504 151.4225
v  -46.5363 152.0757 151.4225
v  -28.6976 153.4962 151.4225
v  -29.8486 152.0758 151.4225
v  36.8293 143.7105 151.4225
v  36.8293 143.7105 218.3517
v  -36.8293 143.7105 218.3517
v  -36.8293 143.7105 151.4225
v  0.0000 183.6358 218.3517
v  -46.5363 154.8993 151.4225
v  -46.5363 154.8993 218.3517
v  46.5363 154.8993 218.3517
v  -48.4030 153.8486 218.3517
v  -48.4030 153.8486 220.1026
v  -46.5363 154.8993 220.1026
v  48.4030 153.8486 218.3517
v  46.5363 154.8993 220.1026
v  48.4030 153.8486 220.1026
v  -48.4030 151.0252 151.4225
v  -48.4030 153.8486 151.4225
v  48.4030 151.0251 218.3517
v  48.4030 151.0251 151.4225
v  48.4030 153.8486 151.4225
v  48.4030 151.0251 220.1026
v  46.5363 152.0758 220.1026
v  0.0000 180.8122 220.1026
v  0.0000 183.6358 220.1026
v  36.8293 129.1917 151.4225
v  36.8293 129.1917 218.3517
v  -36.8293 129.1917 218.3517
v  -36.8293 129.1917 151.4225
v  -46.5363 143.7105 151.4225
v  46.5363 143.7105 151.4225
v  46.5363 143.7105 218.3517
v  -46.5363 143.7105 218.3517
v  -46.5363 129.1917 218.3517
v  -46.5363 129.1917 151.4225
v  46.5363 129.1917 151.4225
v  46.5363 129.1917 218.3517
v  100.3937 142.2244 185.1676
v  100.3937 142.2244 178.1438
v  100.3937 58.5630 178.1438
v  100.3937 58.5630 185.1676
v  150.5906 142.2244 178.1438
v  150.5906 58.5630 178.1438
v  150.5906 142.2244 185.1676
v  150.5906 58.5630 185.1676
v  147.2325 61.8636 185.1676
v  103.7517 61.8636 185.1676
v  147.2325 61.8636 184.3860
v  103.7517 61.8636 184.3860
v  103.7517 138.9238 185.1675
v  147.2325 138.9238 185.1675
v  147.2325 138.9238 184.3860
v  103.7517 138.9238 184.3860
v  -150.5905 142.2244 185.1676
v  -150.5905 142.2244 178.1438
v  -150.5905 58.5630 178.1438
v  -150.5905 58.5630 185.1676
v  -100.3937 142.2244 178.1438
v  -100.3937 58.5630 178.1438
v  -100.3937 142.2244 185.1676
v  -100.3937 58.5630 185.1676
v  -103.7517 61.8636 185.1676
v  -147.2325 61.8636 185.1676
v  -103.7517 61.8636 184.3860
v  -147.2325 61.8636 184.3860
v  -147.2325 138.9238 185.1675
v  -103.7517 138.9238 185.1675
v  -103.7517 138.9238 184.3860
v  -147.2325 138.9238 184.3860
v  -40.2246 270.2950 179.6879
v  -43.5992 270.2950 179.6879
v  -43.5992 270.2950 208.6906
v  -40.2246 270.2950 208.6906
v  -43.5992 266.9204 179.6879
v  -43.5992 266.9204 208.6906
v  -40.2246 266.9204 179.6879
v  -40.2246 266.9204 208.6906
v  43.6133 270.2950 179.6879
v  40.2387 270.2950 179.6879
v  40.2387 270.2950 208.6906
v  43.6133 270.2950 208.6906
v  40.2387 266.9204 179.6879
v  40.2387 266.9204 208.6906
v  43.6133 266.9204 179.6879
v  43.6133 266.9204 208.6906
v  43.6265 270.2950 208.8330
v  43.6265 270.2950 205.4584
v  -43.6265 270.2950 205.4584
v  -43.6265 270.2950 208.8330
v  43.6265 266.9204 205.4584
v  -43.6265 266.9204 205.4584
v  43.6265 266.9204 208.8330
v  -43.6265 266.9204 208.8330
v  24.1679 269.7890 208.8331
v  24.1679 269.7890 205.4584
v  24.1679 240.9167 205.4584
v  24.1679 240.9167 208.8331
v  27.5424 269.7890 205.4584
v  27.5424 240.9167 205.4584
v  27.5424 269.7890 208.8331
v  27.5424 240.9167 208.8331
v  6.6343 269.7890 208.8331
v  6.6343 269.7890 205.4584
v  6.6343 240.9167 205.4584
v  6.6343 240.9167 208.8331
v  10.0089 269.7890 205.4584
v  10.0089 240.9167 205.4584
v  10.0089 269.7890 208.8331
v  10.0089 240.9167 208.8331
v  -10.2354 269.7890 208.8331
v  -10.2354 269.7890 205.4584
v  -10.2354 240.9167 205.4584
v  -10.2354 240.9167 208.8331
v  -6.8609 269.7890 205.4584
v  -6.8609 240.9167 205.4584
v  -6.8609 269.7890 208.8331
v  -6.8609 240.9167 208.8331
v  -27.5592 269.7890 208.8331
v  -27.5592 269.7890 205.4584
v  -27.5592 240.9167 205.4584
v  -27.5592 240.9167 208.8331
v  -24.1846 269.7890 205.4584
v  -24.1846 240.9167 205.4584
v  -24.1846 269.7890 208.8331
v  -24.1846 240.9167 208.8331
v  -43.5992 269.7890 196.4326
v  -43.5992 269.7890 193.0580
v  -43.5992 240.9167 193.0580
v  -43.5992 240.9167 196.4326
v  -40.2246 269.7890 193.0580
v  -40.2246 240.9167 193.0580
v  -40.2246 269.7890 196.4326
v  -40.2246 240.9167 196.4326
v  -43.5992 269.7890 208.8331
v  -43.5992 269.7890 205.4584
v  -43.5992 240.9167 205.4584
v  -43.5992 240.9167 208.8331
v  -40.2246 269.7890 205.4584
v  -40.2246 240.9167 205.4584
v  -40.2246 269.7890 208.8331
v  -40.2246 240.9167 208.8331
v  40.2387 269.7890 208.8331
v  40.2387 269.7890 205.4584
v  40.2387 240.9167 205.4584
v  40.2387 240.9167 208.8331
v  43.6133 269.7890 205.4584
v  43.6133 240.9167 205.4584
v  43.6133 269.7890 208.8331
v  43.6133 240.9167 208.8331
v  40.2387 269.7890 196.4326
v  40.2387 269.7890 193.0580
v  40.2387 240.9167 193.0580
v  40.2387 240.9167 196.4326
v  43.6133 269.7890 193.0580
v  43.6133 240.9167 193.0580
v  43.6133 269.7890 196.4326
v  43.6133 240.9167 196.4326
v  -43.7173 241.7243 209.1536
v  -43.7173 241.7244 179.7452
v  -43.7173 235.0314 179.7452
v  -43.7173 235.0314 209.1536
v  43.7173 241.7244 179.7452
v  43.7173 235.0314 179.7452
v  43.7173 241.7243 209.1536
v  43.7173 235.0314 209.1536
v  -29.2815 476.8701 185.1676
v  -29.2815 476.8701 178.1438
v  -29.2815 376.4764 178.1438
v  -29.2815 376.4764 185.1676
v  29.2815 476.8701 178.1438
v  29.2815 376.4764 178.1438
v  29.2815 476.8701 185.1676
v  29.2815 376.4764 185.1676
v  25.9235 379.7770 185.1676
v  -25.9235 379.7770 185.1676
v  25.9235 379.7770 184.3860
v  -25.9235 379.7770 184.3860
v  -25.9235 473.5695 185.1676
v  25.9235 473.5695 185.1676
v  25.9235 473.5695 184.3860
v  -25.9235 473.5695 184.3860
v  100.3937 476.8701 185.1676
v  100.3937 476.8701 178.1438
v  100.3937 393.2087 178.1439
v  100.3937 393.2087 185.1676
v  150.5906 476.8701 178.1438
v  150.5906 393.2087 178.1439
v  150.5906 476.8701 185.1676
v  150.5906 393.2087 185.1676
v  147.2325 396.5092 185.1676
v  103.7517 396.5092 185.1676
v  147.2325 396.5092 184.3860
v  103.7517 396.5092 184.3860
v  103.7517 473.5695 185.1676
v  147.2325 473.5695 185.1676
v  147.2325 473.5695 184.3860
v  103.7517 473.5695 184.3860
v  -150.5905 476.8701 185.1676
v  -150.5905 476.8701 178.1438
v  -150.5905 393.2087 178.1439
v  -150.5905 393.2087 185.1676
v  -100.3937 476.8701 178.1438
v  -100.3937 393.2087 178.1439
v  -100.3937 476.8701 185.1676
v  -100.3937 393.2087 185.1676
v  -103.7517 396.5092 185.1676
v  -147.2325 396.5092 185.1676
v  -103.7517 396.5092 184.3860
v  -147.2325 396.5092 184.3860
v  -147.2325 473.5695 185.1676
v  -103.7517 473.5695 185.1676
v  -103.7517 473.5695 184.3860
v  -147.2325 473.5695 184.3860
v  -150.5905 343.0118 185.1676
v  -150.5905 343.0118 178.1439
v  -150.5905 259.3504 178.1438
v  -150.5905 259.3504 185.1676
v  -100.3937 343.0118 178.1439
v  -100.3937 259.3504 178.1438
v  -100.3937 343.0118 185.1676
v  -100.3937 259.3504 185.1676
v  -103.7517 262.6510 185.1676
v  -147.2325 262.6510 185.1676
v  -103.7517 262.6510 184.3860
v  -147.2325 262.6510 184.3860
v  -147.2325 339.7113 185.1676
v  -103.7517 339.7113 185.1676
v  -103.7517 339.7113 184.3860
v  -147.2325 339.7113 184.3860
v  100.3937 343.0118 185.1676
v  100.3937 343.0118 178.1439
v  100.3937 259.3504 178.1438
v  100.3937 259.3504 185.1676
v  150.5906 343.0118 178.1439
v  150.5906 259.3504 178.1438
v  150.5906 343.0118 185.1676
v  150.5906 259.3504 185.1676
v  147.2325 262.6510 185.1676
v  103.7517 262.6510 185.1676
v  147.2325 262.6510 184.3860
v  103.7517 262.6510 184.3860
v  103.7517 339.7113 185.1676
v  147.2325 339.7113 185.1676
v  147.2325 339.7113 184.3860
v  103.7517 339.7113 184.3860
v  -29.2815 343.0118 185.1676
v  -29.2815 343.0118 178.1438
v  -29.2815 242.6181 178.1438
v  -29.2815 242.6181 185.1676
v  29.2815 343.0118 178.1438
v  29.2815 242.6181 178.1438
v  29.2815 343.0118 185.1676
v  29.2815 242.6181 185.1676
v  25.9235 245.9187 185.1676
v  -25.9235 245.9187 185.1676
v  25.9235 245.9187 184.3860
v  -25.9235 245.9187 184.3860
v  -25.9235 339.7113 185.1676
v  25.9235 339.7113 185.1676
v  25.9235 339.7113 184.3860
v  -25.9235 339.7113 184.3860
v  -33.4646 142.2244 185.1708
v  -33.4646 142.2244 177.2767
v  -33.4646 25.0984 177.2767
v  -33.4646 25.0984 185.1708
v  33.4646 142.2244 177.2767
v  33.4646 25.0984 177.2767
v  33.4646 142.2244 185.1708
v  33.4646 25.0984 185.1708
v  30.0826 28.4451 185.1708
v  -30.0826 28.4451 185.1708
v  30.0826 28.4451 184.4332
v  -30.0826 28.4451 184.4332
v  -30.0826 138.8778 185.1708
v  30.0826 138.8778 185.1708
v  30.0826 138.8778 184.4333
v  -30.0826 138.8778 184.4333
v  -200.7874 199.0287 184.0552
v  -200.7874 199.0287 -184.0551
v  -200.7874 25.0985 -184.0551
v  -200.7874 25.0984 184.0551
v  200.7874 199.0287 -184.0551
v  200.7874 25.0985 -184.0551
v  200.7874 199.0287 184.0552
v  200.7874 25.0984 184.0551
v  -200.7874 635.3050 184.0552
v  200.7874 635.3050 184.0552
v  204.1626 635.3049 187.3793
v  -204.1626 635.3049 187.3793
v  204.1626 653.1783 187.3793
v  -204.1626 653.1783 187.3793
v  200.7874 635.3050 -184.0551
v  204.1626 635.3051 -187.3791
v  -200.7874 635.3050 -184.0551
v  -204.1626 635.3051 -187.3791
v  187.2508 653.1784 170.6049
v  -187.2508 653.1784 170.6049
v  204.1626 653.1785 -187.3791
v  -204.1626 653.1785 -187.3791
v  187.2508 643.7017 170.6049
v  -187.2508 643.7017 170.6049
v  187.2508 653.1784 -170.6048
v  -187.2508 653.1784 -170.6048
v  187.2508 643.7017 -170.6048
v  -187.2508 643.7017 -170.6048
v  -40.2246 403.8127 179.6879
v  -43.5992 403.8127 179.6879
v  -43.5992 403.8127 208.6906
v  -40.2246 403.8127 208.6906
v  -43.5992 400.4381 179.6879
v  -43.5992 400.4382 208.6906
v  -40.2246 400.4381 179.6879
v  -40.2246 400.4382 208.6906
v  43.6133 403.8127 179.6879
v  40.2387 403.8127 179.6879
v  40.2387 403.8127 208.6906
v  43.6133 403.8127 208.6906
v  40.2387 400.4381 179.6879
v  40.2387 400.4382 208.6906
v  43.6133 400.4381 179.6879
v  43.6133 400.4382 208.6906
v  43.6265 403.8127 208.8330
v  43.6265 403.8127 205.4585
v  -43.6265 403.8127 205.4585
v  -43.6265 403.8127 208.8330
v  43.6265 400.4381 205.4585
v  -43.6265 400.4381 205.4585
v  43.6265 400.4382 208.8330
v  -43.6265 400.4382 208.8330
v  24.1679 403.3067 208.8331
v  24.1679 403.3067 205.4585
v  24.1679 374.4344 205.4585
v  24.1679 374.4344 208.8331
v  27.5424 403.3067 205.4585
v  27.5424 374.4344 205.4585
v  27.5424 403.3067 208.8331
v  27.5424 374.4344 208.8331
v  6.6343 403.3067 208.8331
v  6.6343 403.3067 205.4585
v  6.6343 374.4344 205.4585
v  6.6343 374.4344 208.8331
v  10.0089 403.3067 205.4585
v  10.0089 374.4344 205.4585
v  10.0089 403.3067 208.8331
v  10.0089 374.4344 208.8331
v  -10.2354 403.3067 208.8331
v  -10.2354 403.3067 205.4585
v  -10.2354 374.4344 205.4585
v  -10.2354 374.4344 208.8331
v  -6.8609 403.3067 205.4585
v  -6.8609 374.4344 205.4585
v  -6.8609 403.3067 208.8331
v  -6.8609 374.4344 208.8331
v  -27.5592 403.3067 208.8331
v  -27.5592 403.3067 205.4585
v  -27.5592 374.4344 205.4585
v  -27.5592 374.4344 208.8331
v  -24.1846 403.3067 205.4585
v  -24.1846 374.4344 205.4585
v  -24.1846 403.3067 208.8331
v  -24.1846 374.4344 208.8331
v  -43.5992 403.3067 196.4326
v  -43.5992 403.3067 193.0580
v  -43.5992 374.4344 193.0580
v  -43.5992 374.4344 196.4326
v  -40.2246 403.3067 193.0580
v  -40.2246 374.4344 193.0580
v  -40.2246 403.3067 196.4326
v  -40.2246 374.4344 196.4326
v  -43.5992 403.3067 208.8331
v  -43.5992 403.3067 205.4585
v  -43.5992 374.4344 205.4585
v  -43.5992 374.4344 208.8331
v  -40.2246 403.3067 205.4585
v  -40.2246 374.4344 205.4585
v  -40.2246 403.3067 208.8331
v  -40.2246 374.4344 208.8331
v  40.2387 403.3067 208.8331
v  40.2387 403.3067 205.4585
v  40.2387 374.4344 205.4585
v  40.2387 374.4344 208.8331
v  43.6133 403.3067 205.4585
v  43.6133 374.4344 205.4585
v  43.6133 403.3067 208.8331
v  43.6133 374.4344 208.8331
v  40.2387 403.3067 196.4326
v  40.2387 403.3067 193.0580
v  40.2387 374.4344 193.0580
v  40.2387 374.4344 196.4326
v  43.6133 403.3067 193.0580
v  43.6133 374.4344 193.0580
v  43.6133 403.3067 196.4326
v  43.6133 374.4344 196.4326
v  -43.7173 375.2421 209.1536
v  -43.7173 375.2421 179.7452
v  -43.7173 368.5491 179.7452
v  -43.7173 368.5491 209.1536
v  43.7173 375.2421 179.7452
v  43.7173 368.5491 179.7452
v  43.7173 375.2421 209.1536
v  43.7173 368.5491 209.1536
v  -40.2246 538.1328 179.6879
v  -43.5992 538.1328 179.6879
v  -43.5992 538.1327 208.6906
v  -40.2246 538.1327 208.6906
v  -43.5992 534.7582 179.6879
v  -43.5992 534.7582 208.6906
v  -40.2246 534.7582 179.6879
v  -40.2246 534.7582 208.6906
v  43.6133 538.1328 179.6879
v  40.2387 538.1328 179.6879
v  40.2387 538.1327 208.6906
v  43.6133 538.1327 208.6906
v  40.2387 534.7582 179.6879
v  40.2387 534.7582 208.6906
v  43.6133 534.7582 179.6879
v  43.6133 534.7582 208.6906
v  43.6265 538.1327 208.8331
v  43.6265 538.1327 205.4585
v  -43.6265 538.1327 205.4585
v  -43.6265 538.1327 208.8331
v  43.6265 534.7582 205.4585
v  -43.6265 534.7582 205.4585
v  43.6265 534.7582 208.8331
v  -43.6265 534.7582 208.8331
v  24.1679 537.6267 208.8331
v  24.1679 537.6267 205.4585
v  24.1679 508.7544 205.4585
v  24.1679 508.7544 208.8331
v  27.5424 537.6268 205.4585
v  27.5424 508.7544 205.4585
v  27.5424 537.6268 208.8331
v  27.5424 508.7544 208.8331
v  6.6343 537.6267 208.8331
v  6.6343 537.6267 205.4585
v  6.6343 508.7544 205.4585
v  6.6343 508.7544 208.8331
v  10.0089 537.6267 205.4585
v  10.0089 508.7544 205.4585
v  10.0089 537.6267 208.8331
v  10.0089 508.7544 208.8331
v  -10.2354 537.6267 208.8331
v  -10.2354 537.6267 205.4585
v  -10.2354 508.7544 205.4585
v  -10.2354 508.7544 208.8331
v  -6.8609 537.6267 205.4585
v  -6.8609 508.7544 205.4585
v  -6.8609 537.6267 208.8331
v  -6.8609 508.7544 208.8331
v  -27.5592 537.6268 208.8331
v  -27.5592 537.6268 205.4585
v  -27.5592 508.7544 205.4585
v  -27.5592 508.7544 208.8331
v  -24.1846 537.6268 205.4585
v  -24.1846 508.7544 205.4585
v  -24.1846 537.6268 208.8331
v  -24.1846 508.7544 208.8331
v  -43.5992 537.6268 196.4326
v  -43.5992 537.6268 193.0580
v  -43.5992 508.7544 193.0580
v  -43.5992 508.7544 196.4326
v  -40.2246 537.6268 193.0580
v  -40.2246 508.7544 193.0580
v  -40.2246 537.6268 196.4326
v  -40.2246 508.7544 196.4326
v  -43.5992 537.6268 208.8331
v  -43.5992 537.6268 205.4585
v  -43.5992 508.7544 205.4585
v  -43.5992 508.7544 208.8331
v  -40.2246 537.6268 205.4585
v  -40.2246 508.7544 205.4585
v  -40.2246 537.6268 208.8331
v  -40.2246 508.7544 208.8331
v  40.2387 537.6268 208.8331
v  40.2387 537.6268 205.4585
v  40.2387 508.7544 205.4585
v  40.2387 508.7544 208.8331
v  43.6133 537.6268 205.4585
v  43.6133 508.7544 205.4585
v  43.6133 537.6268 208.8331
v  43.6133 508.7544 208.8331
v  40.2387 537.6268 196.4326
v  40.2387 537.6268 193.0580
v  40.2387 508.7544 193.0580
v  40.2387 508.7544 196.4326
v  43.6133 537.6268 193.0580
v  43.6133 508.7544 193.0580
v  43.6133 537.6268 196.4326
v  43.6133 508.7544 196.4326
v  -43.7173 509.5621 209.1536
v  -43.7173 509.5620 179.7452
v  -43.7173 502.8692 179.7452
v  -43.7173 502.8692 209.1536
v  43.7173 509.5620 179.7452
v  43.7173 502.8692 179.7452
v  43.7173 509.5621 209.1536
v  43.7173 502.8692 209.1536
v  -200.7874 208.6212 184.0552
v  200.7874 208.6212 184.0552
v  200.7874 208.6213 -184.0551
v  -200.7874 208.6213 -184.0551
# 620 vertices

vn -1.0000 0.0000 -0.0000
vn 0.0000 0.0000 -1.0000
vn 1.0000 0.0000 -0.0000
vn 0.0000 -0.0000 1.0000
vn 0.0000 -1.0000 -0.0000
vn 0.0000 1.0000 0.0000
vn 0.0000 -1.0000 0.0000
vn 0.0000 1.0000 -0.0000
vn 0.0000 -0.0013 -1.0000
vn 0.0000 -0.8015 0.5980
vn 0.4905 -0.8715 -0.0000
vn -0.0000 -0.0000 -1.0000
vn 0.0000 -0.0000 -1.0000
vn -0.7678 -0.6407 0.0000
vn 0.7678 -0.6407 -0.0000
vn -0.1619 -0.9868 -0.0000
vn 0.1619 -0.9868 0.0000
vn -0.4826 -0.8759 -0.0000
vn 0.4826 -0.8759 -0.0000
vn -0.7769 -0.6296 -0.0000
vn 0.7769 -0.6296 -0.0000
vn -0.5254 0.8509 0.0000
vn 0.5254 0.8509 0.0000
vn -0.4905 0.8715 0.0000
vn 0.4905 0.8715 0.0000
vn -0.0000 0.0000 -1.0000
vn 1.0000 0.0000 0.0000
vn -0.4905 -0.8715 -0.0000
vn -0.5254 -0.8509 -0.0000
vn 0.5254 -0.8509 -0.0000
vn -1.0000 -0.0000 0.0000
vn -0.0000 -0.0000 1.0000
vn 0.0000 0.0000 1.0000
vn 1.0000 -0.0000 0.0000
vn 1.0000 -0.0000 -0.0000
vn -1.0000 0.0000 0.0000
vn -0.0000 0.0000 1.0000
vn -0.0000 1.0000 -0.0000
vn -0.0000 1.0000 0.0000
# 39 vertex normals

vt 0.4595 0.9091 0.0000
vt 0.5095 0.9091 0.0000
vt 0.5095 0.9591 0.0000
vt 0.4595 0.9591 0.0000
vt 0.7447 0.8253 0.0000
vt 0.7947 0.8253 0.0000
vt 0.7947 0.8753 0.0000
vt 0.7447 0.8753 0.0000
vt 0.1681 0.2053 0.0000
vt 0.2181 0.2053 0.0000
vt 0.2181 0.2553 0.0000
vt 0.1681 0.2553 0.0000
vt 0.7774 0.2154 0.0000
vt 0.6638 0.2154 0.0000
vt 0.6638 0.0140 0.0000
vt 0.7774 0.0140 0.0000
vt 0.9823 0.5629 0.0000
vt 0.8511 0.5629 0.0000
vt 0.8511 0.3255 0.0000
vt 0.9823 0.3255 0.0000
vt 0.6052 0.8129 0.0000
vt 0.6552 0.8129 0.0000
vt 0.6552 0.8629 0.0000
vt 0.6052 0.8629 0.0000
vt 0.1743 0.3975 0.0000
vt 0.2243 0.3975 0.0000
vt 0.2243 0.4475 0.0000
vt 0.1743 0.4475 0.0000
vt 0.2140 0.4427 0.0000
vt 0.2230 0.4302 0.0000
vt 0.2230 0.4148 0.0000
vt 0.1993 0.4475 0.0000
vt 0.2140 0.4023 0.0000
vt 0.1993 0.3975 0.0000
vt 0.1846 0.4023 0.0000
vt 0.1846 0.4427 0.0000
vt 0.1755 0.4148 0.0000
vt 0.1755 0.4302 0.0000
vt 0.3014 0.8036 0.0000
vt 0.3514 0.8036 0.0000
vt 0.3514 0.8536 0.0000
vt 0.3014 0.8536 0.0000
vt 0.1805 0.6951 0.0000
vt 0.2305 0.6951 0.0000
vt 0.2305 0.7451 0.0000
vt 0.1805 0.7451 0.0000
vt 0.9822 0.2851 0.0000
vt 0.8337 0.2851 0.0000
vt 0.8337 0.0125 0.0000
vt 0.9822 0.0125 0.0000
vt 0.4223 0.5032 0.0000
vt 0.4723 0.5032 0.0000
vt 0.4723 0.5157 0.0000
vt 0.4223 0.5157 0.0000
vt 0.4750 0.4750 0.0000
vt 0.5250 0.4750 0.0000
vt 0.5250 0.5250 0.0000
vt 0.4750 0.5250 0.0000
vt 0.4533 0.8222 0.0000
vt 0.5033 0.8222 0.0000
vt 0.5033 0.8722 0.0000
vt 0.4533 0.8722 0.0000
vt 0.4347 0.9091 0.0000
vt 0.4847 0.9091 0.0000
vt 0.4847 0.9591 0.0000
vt 0.4347 0.9591 0.0000
vt 0.0564 0.4037 0.0000
vt 0.1064 0.4037 0.0000
vt 0.1064 0.4287 0.0000
vt 0.0564 0.4287 0.0000
vt 0.8594 0.8131 0.0000
vt 0.9094 0.8131 0.0000
vt 0.9094 0.8256 0.0000
vt 0.8594 0.8256 0.0000
# 74 texture coords

g SPB_Building03
usemtl SPB_Building03
s off
f 1/1/1 2/2/1 3/3/1 4/4/1 
f 2/1/2 5/2/2 6/3/2 3/4/2 
f 5/1/3 7/2/3 8/3/3 6/4/3 
f 7/1/4 1/2/4 4/3/4 8/4/4 
f 4/1/5 3/2/5 6/3/5 8/4/5 
f 7/1/6 5/2/6 2/3/6 1/4/6 
f 9/1/1 10/2/1 11/3/1 12/4/1 
f 10/1/2 13/2/2 14/3/2 11/4/2 
f 13/1/3 15/2/3 16/3/3 14/4/3 
f 15/1/4 9/2/4 12/3/4 16/4/4 
f 12/1/7 11/2/7 14/3/7 16/4/7 
f 15/1/8 13/2/8 10/3/8 9/4/8 
f 17/1/1 18/2/1 19/3/1 20/4/1 
f 18/1/2 21/2/2 22/3/2 19/4/2 
f 21/1/3 23/2/3 24/3/3 22/4/3 
f 23/1/4 17/2/4 20/3/4 24/4/4 
f 20/1/7 19/2/7 22/3/7 24/4/7 
f 23/1/8 21/2/8 18/3/8 17/4/8 
f 25/5/1 26/6/1 27/7/1 28/8/1 
f 26/5/2 29/6/2 30/7/2 27/8/2 
f 29/5/3 31/6/3 32/7/3 30/8/3 
f 31/5/4 25/6/4 28/7/4 32/8/4 
f 28/5/5 27/6/5 30/7/5 32/8/5 
f 31/5/6 29/6/6 26/7/6 25/8/6 
f 33/9/1 34/10/1 35/11/1 36/12/1 
f 34/9/2 37/10/2 38/11/2 35/12/2 
f 37/9/3 39/10/3 40/11/3 38/12/3 
s 1
f 36/9/4 40/10/4 41/11/4 42/12/4 
s off
f 36/9/5 35/10/5 38/11/5 40/12/5 
f 39/9/6 37/10/6 34/11/6 33/12/6 
f 42/9/6 41/10/6 43/11/6 44/12/6 
s 1
f 39/9/4 33/10/4 45/11/4 46/12/4 
f 40/9/4 39/10/4 46/11/4 41/12/4 
f 33/9/4 36/10/4 42/11/4 45/12/4 
s off
f 47/13/4 48/14/4 44/15/4 43/16/4 
f 46/9/5 45/10/5 48/11/5 47/12/5 
f 41/9/1 46/10/1 47/11/1 43/12/1 
f 45/9/3 42/10/3 44/11/3 48/12/3 
f 49/9/1 50/10/1 51/11/1 52/12/1 
f 50/9/2 53/10/2 54/11/2 51/12/2 
f 53/9/3 55/10/3 56/11/3 54/12/3 
s 1
f 52/9/4 56/10/4 57/11/4 58/12/4 
s off
f 52/9/5 51/10/5 54/11/5 56/12/5 
f 55/9/6 53/10/6 50/11/6 49/12/6 
f 58/9/6 57/10/6 59/11/6 60/12/6 
s 1
f 55/9/4 49/10/4 61/11/4 62/12/4 
f 56/9/4 55/10/4 62/11/4 57/12/4 
f 49/9/4 52/10/4 58/11/4 61/12/4 
s off
f 63/13/4 64/14/4 60/15/4 59/16/4 
f 62/9/5 61/10/5 64/11/5 63/12/5 
f 57/9/1 62/10/1 63/11/1 59/12/1 
f 61/9/3 58/10/3 60/11/3 64/12/3 
f 65/9/1 66/10/1 67/11/1 68/12/1 
f 66/9/2 69/10/2 70/11/2 67/12/2 
f 69/9/3 71/10/3 72/11/3 70/12/3 
f 68/9/4 72/10/4 73/11/4 74/12/4 
f 68/9/5 67/10/5 70/11/5 72/12/5 
f 71/9/6 69/10/6 66/11/6 65/12/6 
f 74/9/6 73/10/6 75/11/6 76/12/6 
f 71/9/4 65/10/4 77/11/4 78/12/4 
f 72/9/4 71/10/4 78/11/4 73/12/4 
f 65/9/4 68/10/4 74/11/4 77/12/4 
f 79/17/4 80/18/4 76/19/4 75/20/4 
f 78/9/5 77/10/5 80/11/5 79/12/5 
f 73/9/1 78/10/1 79/11/1 75/12/1 
f 77/9/3 74/10/3 76/11/3 80/12/3 
f 81/21/1 82/22/1 83/23/1 84/24/1 
f 82/21/9 85/22/9 86/23/9 83/24/9 
f 85/21/3 87/22/3 88/23/3 86/24/3 
f 87/21/10 81/22/10 84/23/10 88/24/10 
f 84/21/5 83/22/5 86/23/5 88/24/5 
f 87/21/6 85/22/6 82/23/6 81/24/6 
f 89/21/1 90/22/1 91/23/1 92/24/1 
f 90/21/9 93/22/9 94/23/9 91/24/9 
f 93/21/3 95/22/3 96/23/3 94/24/3 
f 95/21/10 89/22/10 92/23/10 96/24/10 
f 92/21/5 91/22/5 94/23/5 96/24/5 
f 95/21/6 93/22/6 90/23/6 89/24/6 
f 97/25/2 98/26/2 99/27/2 100/28/2 
s 1
f 101/29/4 102/30/4 103/31/4 104/32/4 
f 104/32/4 103/31/4 105/33/4 106/34/4 
f 104/32/4 106/34/4 107/35/4 108/36/4 
f 109/37/4 110/38/4 108/36/4 107/35/4 
s off
f 111/39/11 101/40/11 112/41/11 113/42/11 
s 1
f 97/30/12 114/31/2 115/33/12 98/29/12 
f 98/29/12 115/33/12 116/34/12 117/35/13 
f 98/29/12 117/35/13 118/37/13 119/32/2 
f 119/32/2 118/37/13 120/38/2 121/36/2 
s off
f 110/25/14 114/26/14 122/27/14 123/28/14 
f 121/25/15 102/26/15 124/27/15 125/28/15 
f 117/25/16 116/26/16 107/27/16 106/28/16 
f 118/25/17 117/26/17 106/27/17 105/28/17 
f 116/25/18 115/26/18 109/27/18 107/28/18 
f 120/25/19 118/26/19 105/27/19 103/28/19 
f 115/25/20 114/26/20 110/27/20 109/28/20 
f 103/25/21 102/26/21 121/27/21 120/28/21 
f 126/39/22 99/40/22 127/41/22 128/42/22 
f 129/39/23 100/40/23 99/41/23 126/42/23 
f 128/39/24 130/40/24 131/41/24 132/42/24 
f 133/39/25 129/40/25 134/41/25 135/42/25 
f 127/25/2 119/26/2 136/27/2 137/28/2 
f 98/25/26 119/26/26 127/27/26 99/28/26 
s 1
f 138/39/27 139/40/27 140/41/27 133/42/27 
f 136/39/1 111/40/1 130/41/1 137/42/1 
s off
f 97/25/2 100/26/2 140/27/2 139/28/2 
f 108/39/28 138/40/28 141/41/28 142/42/28 
f 100/39/25 129/40/25 133/41/25 140/42/25 
f 128/39/24 127/40/24 137/41/24 130/42/24 
f 108/39/28 97/40/28 139/41/28 138/42/28 
f 119/39/11 101/40/11 111/41/11 136/42/11 
s 2
f 143/39/4 142/40/4 134/41/4 144/42/4 
s off
f 112/39/4 132/40/4 131/41/4 113/42/4 
s 2
f 112/39/4 143/40/4 144/41/4 132/42/4 
f 134/39/4 142/40/4 141/41/4 135/42/4 
s 1
f 130/39/1 111/40/1 113/41/1 131/42/1 
f 138/39/27 133/40/27 135/41/27 141/42/27 
s off
f 129/39/23 126/40/23 144/41/23 134/42/23 
f 126/39/22 128/40/22 132/41/22 144/42/22 
f 104/39/29 108/40/29 142/41/29 143/42/29 
f 101/39/30 104/40/30 143/41/30 112/42/30 
f 123/25/31 122/26/31 145/27/31 146/28/31 
f 125/25/3 124/26/3 147/27/3 148/28/3 
s 1
f 119/25/2 121/26/2 125/27/2 149/28/2 
f 114/25/2 97/26/12 150/27/2 122/28/2 
s 2
f 97/25/27 108/26/27 151/27/27 150/28/27 
s 1
f 108/25/4 110/26/4 123/27/4 151/28/4 
f 102/25/4 101/26/4 152/27/4 124/28/4 
s 2
f 101/25/31 119/26/31 149/27/31 152/28/31 
s off
f 153/25/5 154/26/5 148/27/5 147/28/5 
f 145/25/5 155/26/5 156/27/5 146/28/5 
s 1
f 149/25/2 125/26/2 148/27/2 154/28/2 
f 122/25/2 150/26/2 155/27/2 145/28/2 
s 2
f 150/25/27 151/26/27 156/27/3 155/28/3 
s 1
f 151/25/4 123/26/4 146/27/4 156/28/4 
f 124/25/4 152/26/4 153/27/4 147/28/4 
s 2
f 152/25/31 149/26/31 154/27/31 153/28/31 
s off
f 157/9/1 158/10/1 159/11/1 160/12/1 
f 158/9/2 161/10/2 162/11/2 159/12/2 
f 161/9/3 163/10/3 164/11/3 162/12/3 
s 1
f 160/9/32 164/10/4 165/11/4 166/12/32 
s off
f 160/9/5 159/10/5 162/11/5 164/12/5 
f 163/9/6 161/10/6 158/11/6 157/12/6 
f 166/9/6 165/10/6 167/11/6 168/12/6 
s 1
f 163/9/32 157/10/4 169/11/4 170/12/32 
f 164/9/4 163/10/32 170/11/32 165/12/4 
f 157/9/4 160/10/32 166/11/32 169/12/4 
s off
f 171/13/33 172/14/33 168/15/33 167/16/33 
f 170/9/5 169/10/5 172/11/5 171/12/5 
f 165/9/1 170/10/1 171/11/1 167/12/1 
f 169/9/3 166/10/3 168/11/3 172/12/3 
f 173/9/1 174/10/1 175/11/1 176/12/1 
f 174/9/2 177/10/2 178/11/2 175/12/2 
f 177/9/3 179/10/3 180/11/3 178/12/3 
s 1
f 176/9/32 180/10/4 181/11/4 182/12/32 
s off
f 176/9/5 175/10/5 178/11/5 180/12/5 
f 179/9/6 177/10/6 174/11/6 173/12/6 
f 182/9/6 181/10/6 183/11/6 184/12/6 
s 1
f 179/9/32 173/10/4 185/11/4 186/12/32 
f 180/9/4 179/10/32 186/11/32 181/12/4 
f 173/9/4 176/10/32 182/11/32 185/12/4 
s off
f 187/13/33 188/14/33 184/15/33 183/16/33 
f 186/9/5 185/10/5 188/11/5 187/12/5 
f 181/9/1 186/10/1 187/11/1 183/12/1 
f 185/9/3 182/10/3 184/11/3 188/12/3 
f 189/43/6 190/44/6 191/45/6 192/46/6 
f 190/43/1 193/44/1 194/45/1 191/46/1 
f 193/43/5 195/44/5 196/45/5 194/46/5 
f 195/43/34 189/44/34 192/45/34 196/46/34 
f 192/43/4 191/44/4 194/45/4 196/46/4 
f 195/43/2 193/44/2 190/45/2 189/46/2 
f 197/43/6 198/44/6 199/45/6 200/46/6 
f 198/43/1 201/44/1 202/45/1 199/46/1 
f 201/43/5 203/44/5 204/45/5 202/46/5 
f 203/43/34 197/44/34 200/45/34 204/46/34 
f 200/43/4 199/44/4 202/45/4 204/46/4 
f 203/43/2 201/44/2 198/45/2 197/46/2 
f 205/43/6 206/44/6 207/45/6 208/46/6 
f 206/43/2 209/44/2 210/45/2 207/46/2 
f 209/43/5 211/44/5 212/45/5 210/46/5 
f 211/43/4 205/44/4 208/45/4 212/46/4 
f 208/43/1 207/44/1 210/45/1 212/46/1 
f 211/43/3 209/44/3 206/45/3 205/46/3 
f 213/43/1 214/44/1 215/45/1 216/46/1 
f 214/43/2 217/44/2 218/45/2 215/46/2 
f 217/43/3 219/44/3 220/45/3 218/46/3 
f 219/43/4 213/44/4 216/45/4 220/46/4 
f 216/43/5 215/44/5 218/45/5 220/46/5 
f 219/43/6 217/44/6 214/45/6 213/46/6 
f 221/43/1 222/44/1 223/45/1 224/46/1 
f 222/43/2 225/44/2 226/45/2 223/46/2 
f 225/43/3 227/44/3 228/45/3 226/46/3 
f 227/43/4 221/44/4 224/45/4 228/46/4 
f 224/43/5 223/44/5 226/45/5 228/46/5 
f 227/43/6 225/44/6 222/45/6 221/46/6 
f 229/43/1 230/44/1 231/45/1 232/46/1 
f 230/43/2 233/44/2 234/45/2 231/46/2 
f 233/43/3 235/44/3 236/45/3 234/46/3 
f 235/43/4 229/44/4 232/45/4 236/46/4 
f 232/43/5 231/44/5 234/45/5 236/46/5 
f 235/43/6 233/44/6 230/45/6 229/46/6 
f 237/43/1 238/44/1 239/45/1 240/46/1 
f 238/43/2 241/44/2 242/45/2 239/46/2 
f 241/43/27 243/44/27 244/45/27 242/46/27 
f 243/43/4 237/44/4 240/45/4 244/46/4 
f 240/43/5 239/44/5 242/45/5 244/46/5 
f 243/43/6 241/44/6 238/45/6 237/46/6 
f 245/43/1 246/44/1 247/45/1 248/46/1 
f 246/43/2 249/44/2 250/45/2 247/46/2 
f 249/43/35 251/44/35 252/45/35 250/46/35 
f 251/43/4 245/44/4 248/45/4 252/46/4 
f 248/43/5 247/44/5 250/45/5 252/46/5 
f 251/43/6 249/44/6 246/45/6 245/46/6 
f 253/43/1 254/44/1 255/45/1 256/46/1 
f 254/43/2 257/44/2 258/45/2 255/46/2 
f 257/43/35 259/44/35 260/45/35 258/46/35 
f 259/43/4 253/44/4 256/45/4 260/46/4 
f 256/43/5 255/44/5 258/45/5 260/46/5 
f 259/43/6 257/44/6 254/45/6 253/46/6 
f 261/43/36 262/44/36 263/45/36 264/46/36 
f 262/43/2 265/44/2 266/45/2 263/46/2 
f 265/43/3 267/44/3 268/45/3 266/46/3 
f 267/43/4 261/44/4 264/45/4 268/46/4 
f 264/43/5 263/44/5 266/45/5 268/46/5 
f 267/43/6 265/44/6 262/45/6 261/46/6 
f 269/43/36 270/44/36 271/45/36 272/46/36 
f 270/43/2 273/44/2 274/45/2 271/46/2 
f 273/43/3 275/44/3 276/45/3 274/46/3 
f 275/43/4 269/44/4 272/45/4 276/46/4 
f 272/43/5 271/44/5 274/45/5 276/46/5 
f 275/43/6 273/44/6 270/45/6 269/46/6 
f 277/43/1 278/44/1 279/45/1 280/46/1 
f 278/43/2 281/44/2 282/45/2 279/46/2 
f 281/43/3 283/44/3 284/45/3 282/46/3 
f 283/43/4 277/44/4 280/45/4 284/46/4 
f 280/43/5 279/44/5 282/45/5 284/46/5 
f 283/43/6 281/44/6 278/45/6 277/46/6 
f 285/9/1 286/10/1 287/11/1 288/12/1 
f 286/9/13 289/10/13 290/11/13 287/12/13 
f 289/9/3 291/10/3 292/11/3 290/12/3 
s 1
f 288/9/32 292/10/4 293/11/4 294/12/32 
s off
f 288/9/5 287/10/5 290/11/5 292/12/5 
f 291/9/6 289/10/6 286/11/6 285/12/6 
f 294/9/6 293/10/6 295/11/6 296/12/6 
s 1
f 291/9/32 285/10/4 297/11/4 298/12/32 
f 292/9/4 291/10/32 298/11/32 293/12/4 
f 285/9/4 288/10/32 294/11/32 297/12/4 
s off
f 299/17/33 300/18/33 296/19/33 295/20/33 
f 298/9/5 297/10/5 300/11/5 299/12/5 
f 293/9/1 298/10/1 299/11/1 295/12/1 
f 297/9/3 294/10/3 296/11/3 300/12/3 
f 301/9/1 302/10/1 303/11/1 304/12/1 
f 302/9/13 305/10/13 306/11/13 303/12/13 
f 305/9/3 307/10/3 308/11/3 306/12/3 
s 1
f 304/9/32 308/10/4 309/11/4 310/12/32 
s off
f 304/9/5 303/10/5 306/11/5 308/12/5 
f 307/9/6 305/10/6 302/11/6 301/12/6 
f 310/9/6 309/10/6 311/11/6 312/12/6 
s 1
f 307/9/32 301/10/4 313/11/4 314/12/32 
f 308/9/4 307/10/32 314/11/32 309/12/4 
f 301/9/4 304/10/32 310/11/32 313/12/4 
s off
f 315/13/33 316/14/33 312/15/33 311/16/33 
f 314/9/5 313/10/5 316/11/5 315/12/5 
f 309/9/1 314/10/1 315/11/1 311/12/1 
f 313/9/3 310/10/3 312/11/3 316/12/3 
f 317/9/1 318/10/1 319/11/1 320/12/1 
f 318/9/13 321/10/13 322/11/13 319/12/13 
f 321/9/3 323/10/3 324/11/3 322/12/3 
s 1
f 320/9/32 324/10/4 325/11/4 326/12/32 
s off
f 320/9/5 319/10/5 322/11/5 324/12/5 
f 323/9/6 321/10/6 318/11/6 317/12/6 
f 326/9/6 325/10/6 327/11/6 328/12/6 
s 1
f 323/9/32 317/10/4 329/11/4 330/12/32 
f 324/9/4 323/10/32 330/11/32 325/12/4 
f 317/9/4 320/10/32 326/11/32 329/12/4 
s off
f 331/13/33 332/14/33 328/15/33 327/16/33 
f 330/9/5 329/10/5 332/11/5 331/12/5 
f 325/9/1 330/10/1 331/11/1 327/12/1 
f 329/9/3 326/10/3 328/11/3 332/12/3 
f 333/9/1 334/10/1 335/11/1 336/12/1 
f 334/9/2 337/10/2 338/11/2 335/12/2 
f 337/9/3 339/10/3 340/11/3 338/12/3 
s 1
f 336/9/4 340/10/4 341/11/4 342/12/4 
s off
f 336/9/5 335/10/5 338/11/5 340/12/5 
f 339/9/6 337/10/6 334/11/6 333/12/6 
f 342/9/6 341/10/6 343/11/6 344/12/6 
s 1
f 339/9/4 333/10/4 345/11/4 346/12/4 
f 340/9/4 339/10/4 346/11/4 341/12/4 
f 333/9/4 336/10/4 342/11/4 345/12/4 
s off
f 347/13/4 348/14/4 344/15/4 343/16/4 
f 346/9/5 345/10/5 348/11/5 347/12/5 
f 341/9/1 346/10/1 347/11/1 343/12/1 
f 345/9/3 342/10/3 344/11/3 348/12/3 
f 349/9/1 350/10/1 351/11/1 352/12/1 
f 350/9/2 353/10/2 354/11/2 351/12/2 
f 353/9/3 355/10/3 356/11/3 354/12/3 
s 1
f 352/9/4 356/10/4 357/11/4 358/12/4 
s off
f 352/9/5 351/10/5 354/11/5 356/12/5 
f 355/9/6 353/10/6 350/11/6 349/12/6 
f 358/9/6 357/10/6 359/11/6 360/12/6 
s 1
f 355/9/4 349/10/4 361/11/4 362/12/4 
f 356/9/4 355/10/4 362/11/4 357/12/4 
f 349/9/4 352/10/4 358/11/4 361/12/4 
s off
f 363/13/4 364/14/4 360/15/4 359/16/4 
f 362/9/5 361/10/5 364/11/5 363/12/5 
f 357/9/1 362/10/1 363/11/1 359/12/1 
f 361/9/3 358/10/3 360/11/3 364/12/3 
f 365/9/1 366/10/1 367/11/1 368/12/1 
f 366/9/2 369/10/2 370/11/2 367/12/2 
f 369/9/3 371/10/3 372/11/3 370/12/3 
s 1
f 368/9/4 372/10/4 373/11/4 374/12/4 
s off
f 368/9/5 367/10/5 370/11/5 372/12/5 
f 371/9/6 369/10/6 366/11/6 365/12/6 
f 374/9/6 373/10/6 375/11/6 376/12/6 
s 1
f 371/9/4 365/10/4 377/11/4 378/12/4 
f 372/9/4 371/10/4 378/11/4 373/12/4 
f 365/9/4 368/10/4 374/11/4 377/12/4 
s off
f 379/17/4 380/18/4 376/19/4 375/20/4 
f 378/9/5 377/10/5 380/11/5 379/12/5 
f 373/9/1 378/10/1 379/11/1 375/12/1 
f 377/9/3 374/10/3 376/11/3 380/12/3 
f 381/9/1 382/10/1 383/11/1 384/12/1 
f 382/9/2 385/10/2 386/11/2 383/12/2 
f 385/9/3 387/10/3 388/11/3 386/12/3 
f 384/9/4 388/10/4 389/11/4 390/12/4 
f 384/9/5 383/10/5 386/11/5 388/12/5 
f 387/9/6 385/10/6 382/11/6 381/12/6 
f 390/9/6 389/10/6 391/11/6 392/12/6 
f 387/9/4 381/10/4 393/11/4 394/12/4 
f 388/9/33 387/10/33 394/11/33 389/12/33 
f 381/9/37 384/10/37 390/11/37 393/12/37 
f 395/47/4 396/48/4 392/49/4 391/50/4 
f 394/9/5 393/10/5 396/11/5 395/12/5 
f 389/9/1 394/10/1 395/11/1 391/12/1 
f 393/9/3 390/10/3 392/11/3 396/12/3 
s 1
f 397/51/1 398/52/1 399/53/1 400/54/1 
s 2
f 398/51/2 401/52/2 402/53/2 399/54/2 
s 1
f 401/51/3 403/52/3 404/53/3 402/54/3 
s 2
f 403/51/32 397/52/32 400/53/32 404/54/4 
s off
f 400/55/5 399/56/5 402/57/5 404/58/5 
s 4
f 405/59/5 406/60/5 407/61/5 408/62/5 
s off
f 408/59/4 407/60/4 409/61/4 410/62/4 
s 4
f 406/59/5 411/60/5 412/61/5 407/62/5 
f 411/59/5 413/60/5 414/61/5 412/62/5 
f 413/59/5 405/60/5 408/61/5 414/62/5 
s 1
f 410/59/6 409/60/6 415/61/6 416/62/6 
s off
f 407/59/3 412/60/3 417/61/3 409/62/3 
f 412/59/2 414/60/2 418/61/2 417/62/2 
f 414/59/1 408/60/1 410/61/1 418/62/1 
f 416/59/2 415/60/2 419/61/2 420/62/2 
s 1
f 409/59/6 417/60/6 421/61/6 415/62/6 
f 417/59/6 418/60/6 422/61/6 421/62/6 
f 418/59/6 410/60/6 416/61/6 422/62/6 
s off
f 419/63/6 423/64/6 424/65/6 420/66/6 
f 415/59/1 421/60/1 423/61/1 419/62/1 
f 421/59/4 422/60/4 424/61/4 423/62/4 
f 422/59/3 416/60/3 420/61/3 424/62/3 
f 425/43/6 426/44/6 427/45/6 428/46/6 
f 426/43/1 429/44/1 430/45/1 427/46/1 
f 429/43/7 431/44/7 432/45/7 430/46/7 
f 431/43/34 425/44/34 428/45/34 432/46/34 
f 428/43/4 427/44/4 430/45/4 432/46/4 
f 431/43/2 429/44/2 426/45/2 425/46/2 
f 433/43/6 434/44/6 435/45/6 436/46/6 
f 434/43/1 437/44/1 438/45/1 435/46/1 
f 437/43/7 439/44/7 440/45/7 438/46/7 
f 439/43/34 433/44/34 436/45/34 440/46/34 
f 436/43/4 435/44/4 438/45/4 440/46/4 
f 439/43/2 437/44/2 434/45/2 433/46/2 
f 441/43/6 442/44/6 443/45/6 444/46/6 
f 442/43/2 445/44/2 446/45/2 443/46/2 
f 445/43/7 447/44/7 448/45/7 446/46/7 
f 447/43/4 441/44/4 444/45/4 448/46/4 
f 444/43/1 443/44/1 446/45/1 448/46/1 
f 447/43/3 445/44/3 442/45/3 441/46/3 
f 449/43/1 450/44/1 451/45/1 452/46/1 
f 450/43/2 453/44/2 454/45/2 451/46/2 
f 453/43/3 455/44/3 456/45/3 454/46/3 
f 455/43/4 449/44/4 452/45/4 456/46/4 
f 452/43/5 451/44/5 454/45/5 456/46/5 
f 455/43/38 453/44/38 450/45/38 449/46/38 
f 457/43/1 458/44/1 459/45/1 460/46/1 
f 458/43/2 461/44/2 462/45/2 459/46/2 
f 461/43/3 463/44/3 464/45/3 462/46/3 
f 463/43/4 457/44/4 460/45/4 464/46/4 
f 460/43/5 459/44/5 462/45/5 464/46/5 
f 463/43/6 461/44/6 458/45/6 457/46/6 
f 465/43/1 466/44/1 467/45/1 468/46/1 
f 466/43/2 469/44/2 470/45/2 467/46/2 
f 469/43/3 471/44/3 472/45/3 470/46/3 
f 471/43/4 465/44/4 468/45/4 472/46/4 
f 468/43/5 467/44/5 470/45/5 472/46/5 
f 471/43/6 469/44/6 466/45/6 465/46/6 
f 473/43/1 474/44/1 475/45/1 476/46/1 
f 474/43/2 477/44/2 478/45/2 475/46/2 
f 477/43/3 479/44/3 480/45/3 478/46/3 
f 479/43/4 473/44/4 476/45/4 480/46/4 
f 476/43/5 475/44/5 478/45/5 480/46/5 
f 479/43/8 477/44/8 474/45/8 473/46/8 
f 481/43/1 482/44/1 483/45/1 484/46/1 
f 482/43/2 485/44/2 486/45/2 483/46/2 
f 485/43/35 487/44/35 488/45/35 486/46/35 
f 487/43/4 481/44/4 484/45/4 488/46/4 
f 484/43/5 483/44/5 486/45/5 488/46/5 
f 487/43/6 485/44/6 482/45/6 481/46/6 
f 489/43/1 490/44/1 491/45/1 492/46/1 
f 490/43/2 493/44/2 494/45/2 491/46/2 
f 493/43/34 495/44/34 496/45/34 494/46/34 
f 495/43/4 489/44/4 492/45/4 496/46/4 
f 492/43/5 491/44/5 494/45/5 496/46/5 
f 495/43/8 493/44/8 490/45/8 489/46/8 
f 497/43/1 498/44/1 499/45/1 500/46/1 
f 498/43/2 501/44/2 502/45/2 499/46/2 
f 501/43/3 503/44/3 504/45/3 502/46/3 
f 503/43/4 497/44/4 500/45/4 504/46/4 
f 500/43/5 499/44/5 502/45/5 504/46/5 
f 503/43/8 501/44/8 498/45/8 497/46/8 
f 505/43/36 506/44/36 507/45/36 508/46/36 
f 506/43/2 509/44/2 510/45/2 507/46/2 
f 509/43/3 511/44/3 512/45/3 510/46/3 
f 511/43/4 505/44/4 508/45/4 512/46/4 
f 508/43/5 507/44/5 510/45/5 512/46/5 
f 511/43/6 509/44/6 506/45/6 505/46/6 
f 513/43/1 514/44/1 515/45/1 516/46/1 
f 514/43/2 517/44/2 518/45/2 515/46/2 
f 517/43/3 519/44/3 520/45/3 518/46/3 
f 519/43/4 513/44/4 516/45/4 520/46/4 
f 516/43/5 515/44/5 518/45/5 520/46/5 
f 519/43/6 517/44/6 514/45/6 513/46/6 
f 521/43/6 522/44/6 523/45/6 524/46/6 
f 522/43/1 525/44/1 526/45/1 523/46/1 
f 525/43/5 527/44/5 528/45/5 526/46/5 
f 527/43/34 521/44/34 524/45/34 528/46/34 
f 524/43/4 523/44/4 526/45/4 528/46/4 
f 527/43/2 525/44/2 522/45/2 521/46/2 
f 529/43/6 530/44/6 531/45/6 532/46/6 
f 530/43/1 533/44/1 534/45/1 531/46/1 
f 533/43/5 535/44/5 536/45/5 534/46/5 
f 535/43/34 529/44/34 532/45/34 536/46/34 
f 532/43/4 531/44/4 534/45/4 536/46/4 
f 535/43/2 533/44/2 530/45/2 529/46/2 
f 537/43/6 538/44/6 539/45/6 540/46/6 
f 538/43/2 541/44/2 542/45/2 539/46/2 
f 541/43/5 543/44/5 544/45/5 542/46/5 
f 543/43/4 537/44/4 540/45/4 544/46/4 
f 540/43/1 539/44/1 542/45/1 544/46/1 
f 543/43/3 541/44/3 538/45/3 537/46/3 
f 545/43/1 546/44/1 547/45/1 548/46/1 
f 546/43/2 549/44/2 550/45/2 547/46/2 
f 549/43/3 551/44/3 552/45/3 550/46/3 
f 551/43/4 545/44/4 548/45/4 552/46/4 
f 548/43/5 547/44/5 550/45/5 552/46/5 
f 551/43/39 549/44/39 546/45/39 545/46/39 
f 553/43/1 554/44/1 555/45/1 556/46/1 
f 554/43/2 557/44/2 558/45/2 555/46/2 
f 557/43/3 559/44/3 560/45/3 558/46/3 
f 559/43/4 553/44/4 556/45/4 560/46/4 
f 556/43/5 555/44/5 558/45/5 560/46/5 
f 559/43/6 557/44/6 554/45/6 553/46/6 
f 561/43/1 562/44/1 563/45/1 564/46/1 
f 562/43/2 565/44/2 566/45/2 563/46/2 
f 565/43/3 567/44/3 568/45/3 566/46/3 
f 567/43/4 561/44/4 564/45/4 568/46/4 
f 564/43/5 563/44/5 566/45/5 568/46/5 
f 567/43/6 565/44/6 562/45/6 561/46/6 
f 569/43/1 570/44/1 571/45/1 572/46/1 
f 570/43/2 573/44/2 574/45/2 571/46/2 
f 573/43/27 575/44/27 576/45/27 574/46/27 
f 575/43/4 569/44/4 572/45/4 576/46/4 
f 572/43/5 571/44/5 574/45/5 576/46/5 
f 575/43/6 573/44/6 570/45/6 569/46/6 
f 577/43/1 578/44/1 579/45/1 580/46/1 
f 578/43/2 581/44/2 582/45/2 579/46/2 
f 581/43/35 583/44/35 584/45/35 582/46/35 
f 583/43/4 577/44/4 580/45/4 584/46/4 
f 580/43/5 579/44/5 582/45/5 584/46/5 
f 583/43/6 581/44/6 578/45/6 577/46/6 
f 585/43/1 586/44/1 587/45/1 588/46/1 
f 586/43/2 589/44/2 590/45/2 587/46/2 
f 589/43/35 591/44/35 592/45/35 590/46/35 
f 591/43/4 585/44/4 588/45/4 592/46/4 
f 588/43/5 587/44/5 590/45/5 592/46/5 
f 591/43/6 589/44/6 586/45/6 585/46/6 
f 593/43/36 594/44/36 595/45/36 596/46/36 
f 594/43/2 597/44/2 598/45/2 595/46/2 
f 597/43/3 599/44/3 600/45/3 598/46/3 
f 599/43/4 593/44/4 596/45/4 600/46/4 
f 596/43/5 595/44/5 598/45/5 600/46/5 
f 599/43/6 597/44/6 594/45/6 593/46/6 
f 601/43/36 602/44/36 603/45/36 604/46/36 
f 602/43/2 605/44/2 606/45/2 603/46/2 
f 605/43/3 607/44/3 608/45/3 606/46/3 
f 607/43/4 601/44/4 604/45/4 608/46/4 
f 604/43/5 603/44/5 606/45/5 608/46/5 
f 607/43/6 605/44/6 602/45/6 601/46/6 
f 609/43/1 610/44/1 611/45/1 612/46/1 
f 610/43/2 613/44/2 614/45/2 611/46/2 
f 613/43/3 615/44/3 616/45/3 614/46/3 
f 615/43/4 609/44/4 612/45/4 616/46/4 
f 612/43/5 611/44/5 614/45/5 616/46/5 
f 615/43/8 613/44/8 610/45/8 609/46/8 
s 2
f 406/67/32 405/68/4 617/69/32 618/70/32 
s 1
f 411/67/3 406/68/3 618/69/3 619/70/3 
s 2
f 413/67/2 411/68/2 619/69/2 620/70/2 
s 1
f 405/67/1 413/68/1 620/69/1 617/70/1 
s 2
f 618/71/32 617/72/32 397/73/32 403/74/32 
s 1
f 619/71/3 618/72/3 403/73/3 401/74/3 
s 2
f 620/71/2 619/72/2 401/73/2 398/74/2 
s 1
f 617/71/1 620/72/1 398/73/1 397/74/1 
# 508 polygons

