# 3ds Max Wavefront OBJ Exporter v0.97b - (c)2007 guruware
# File Created: 15.03.2017 10:47:10

mtllib SPB_Building01.mtl

#
# object SPB_Building01
#

v  -305.8777 263.6340 50.9009
v  -297.5372 263.6340 50.9009
v  -297.5372 212.6103 50.9009
v  -305.8777 212.6103 50.9009
v  -297.5372 263.6339 135.9403
v  -297.5372 212.6103 135.9403
v  -305.8777 263.6339 135.9403
v  -305.8777 212.6103 135.9403
v  -305.8777 217.8634 130.2620
v  -305.8777 217.8634 56.5792
v  -304.1268 217.8634 130.2620
v  -304.1268 217.8634 56.5792
v  -305.8777 258.3808 56.5792
v  -305.8777 258.3808 130.2620
v  -304.1268 258.3808 56.5792
v  -304.1268 258.3808 130.2620
v  -305.8777 549.3806 50.9010
v  -297.5372 549.3806 50.9010
v  -297.5372 498.3570 50.9010
v  -305.8777 498.3570 50.9010
v  -297.5372 549.3806 135.9403
v  -297.5372 498.3569 135.9403
v  -305.8777 549.3806 135.9403
v  -305.8777 498.3569 135.9403
v  -305.8777 503.6100 130.2620
v  -305.8777 503.6100 56.5793
v  -304.1268 503.6100 130.2620
v  -304.1268 503.6100 56.5793
v  -305.8777 544.1275 56.5793
v  -305.8777 544.1275 130.2620
v  -304.1268 544.1275 56.5793
v  -304.1268 544.1275 130.2620
v  -305.8777 454.9607 50.9010
v  -297.5372 454.9607 50.9010
v  -297.5372 403.9370 50.9010
v  -305.8777 403.9370 50.9010
v  -297.5372 454.9607 135.9403
v  -297.5372 403.9370 135.9403
v  -305.8777 454.9607 135.9403
v  -305.8777 403.9370 135.9403
v  -305.8777 409.1901 130.2620
v  -305.8777 409.1902 56.5792
v  -304.1268 409.1901 130.2620
v  -304.1268 409.1902 56.5792
v  -305.8777 449.7076 56.5792
v  -305.8777 449.7075 130.2620
v  -304.1268 449.7076 56.5792
v  -304.1268 449.7075 130.2620
v  -305.8777 359.4925 50.9009
v  -297.5372 359.4925 50.9009
v  -297.5372 308.4689 50.9009
v  -305.8777 308.4689 50.9009
v  -297.5372 359.4925 135.9403
v  -297.5372 308.4688 135.9403
v  -305.8777 359.4925 135.9403
v  -305.8777 308.4688 135.9403
v  -305.8777 313.7220 130.2620
v  -305.8777 313.7220 56.5792
v  -304.1268 313.7220 130.2620
v  -304.1268 313.7220 56.5792
v  -305.8777 354.2394 56.5792
v  -305.8777 354.2393 130.2620
v  -304.1268 354.2394 56.5792
v  -304.1268 354.2393 130.2620
v  305.8775 263.6339 135.9403
v  297.5370 263.6339 135.9403
v  297.5370 212.6103 135.9403
v  305.8775 212.6103 135.9403
v  297.5370 263.6340 50.9009
v  297.5370 212.6103 50.9009
v  305.8775 263.6340 50.9009
v  305.8775 212.6103 50.9009
v  305.8775 217.8634 56.5792
v  305.8775 217.8634 130.2620
v  304.1266 217.8634 56.5792
v  304.1266 217.8634 130.2620
v  305.8775 258.3808 130.2620
v  305.8775 258.3808 56.5792
v  304.1266 258.3808 130.2620
v  304.1266 258.3808 56.5792
v  305.8775 549.3806 135.9403
v  297.5370 549.3806 135.9403
v  297.5370 498.3569 135.9403
v  305.8775 498.3569 135.9403
v  297.5370 549.3806 50.9010
v  297.5370 498.3570 50.9010
v  305.8775 549.3806 50.9010
v  305.8775 498.3570 50.9010
v  305.8775 503.6100 56.5793
v  305.8775 503.6100 130.2620
v  304.1266 503.6100 56.5793
v  304.1266 503.6100 130.2620
v  305.8775 544.1275 130.2620
v  305.8775 544.1275 56.5793
v  304.1266 544.1275 130.2620
v  304.1266 544.1275 56.5793
v  305.8775 454.9607 135.9403
v  297.5370 454.9607 135.9403
v  297.5370 403.9370 135.9403
v  305.8775 403.9370 135.9403
v  297.5370 454.9607 50.9010
v  297.5370 403.9370 50.9010
v  305.8775 454.9607 50.9010
v  305.8775 403.9370 50.9010
v  305.8775 409.1902 56.5792
v  305.8775 409.1901 130.2620
v  304.1266 409.1902 56.5792
v  304.1266 409.1901 130.2620
v  305.8775 449.7075 130.2620
v  305.8775 449.7076 56.5792
v  304.1266 449.7075 130.2620
v  304.1266 449.7076 56.5792
v  305.8775 359.4925 135.9403
v  297.5370 359.4925 135.9403
v  297.5370 308.4688 135.9403
v  305.8775 308.4688 135.9403
v  297.5370 359.4925 50.9009
v  297.5370 308.4689 50.9009
v  305.8775 359.4925 50.9009
v  305.8775 308.4689 50.9009
v  305.8775 313.7220 56.5792
v  305.8775 313.7220 130.2620
v  304.1266 313.7220 56.5792
v  304.1266 313.7220 130.2620
v  305.8775 354.2393 130.2620
v  305.8775 354.2394 56.5792
v  304.1266 354.2393 130.2620
v  304.1266 354.2394 56.5792
v  -251.4569 263.6339 195.6939
v  -251.4569 263.6339 187.3534
v  -251.4569 212.6103 187.3534
v  -251.4569 212.6103 195.6939
v  -139.6418 263.6339 187.3534
v  -139.6418 212.6103 187.3534
v  -139.6418 263.6339 195.6939
v  -139.6418 212.6103 195.6939
v  -145.3200 217.8634 195.6939
v  -245.7786 217.8634 195.6939
v  -145.3200 217.8634 193.9430
v  -245.7786 217.8634 193.9430
v  -245.7786 258.3808 195.6939
v  -145.3200 258.3808 195.6939
v  -145.3200 258.3808 193.9430
v  -245.7786 258.3808 193.9430
v  -251.4569 359.4926 195.6939
v  -251.4569 359.4926 187.3534
v  -251.4569 308.4689 187.3534
v  -251.4569 308.4689 195.6939
v  -139.6418 359.4926 187.3534
v  -139.6418 308.4689 187.3534
v  -139.6418 359.4926 195.6939
v  -139.6418 308.4689 195.6939
v  -145.3201 313.7220 195.6939
v  -245.7786 313.7220 195.6939
v  -145.3201 313.7220 193.9429
v  -245.7786 313.7220 193.9429
v  -245.7786 354.2395 195.6939
v  -145.3201 354.2395 195.6939
v  -145.3201 354.2395 193.9430
v  -245.7786 354.2395 193.9430
v  -251.4569 550.7515 195.6939
v  -251.4569 550.7515 187.3535
v  -251.4569 499.7279 187.3534
v  -251.4569 499.7279 195.6939
v  -139.6418 550.7515 187.3535
v  -139.6418 499.7279 187.3534
v  -139.6418 550.7515 195.6939
v  -139.6418 499.7279 195.6939
v  -145.3201 504.9809 195.6939
v  -245.7786 504.9809 195.6939
v  -145.3201 504.9809 193.9430
v  -245.7786 504.9809 193.9430
v  -245.7786 545.4984 195.6939
v  -145.3201 545.4984 195.6939
v  -145.3201 545.4984 193.9430
v  -245.7786 545.4984 193.9430
v  -251.4569 455.3514 195.6939
v  -251.4569 455.3514 187.3534
v  -251.4569 404.3278 187.3534
v  -251.4569 404.3278 195.6939
v  -139.6418 455.3514 187.3534
v  -139.6418 404.3278 187.3534
v  -139.6418 455.3514 195.6939
v  -139.6418 404.3278 195.6939
v  -145.3201 409.5809 195.6939
v  -245.7786 409.5809 195.6939
v  -145.3201 409.5809 193.9430
v  -245.7786 409.5809 193.9430
v  -245.7786 450.0984 195.6939
v  -145.3201 450.0984 195.6939
v  -145.3201 450.0984 193.9430
v  -245.7786 450.0984 193.9430
v  -42.5197 263.6339 260.9649
v  -42.5197 263.6339 252.6244
v  -42.5197 212.6103 252.6244
v  -42.5197 212.6103 260.9649
v  42.5197 263.6339 252.6244
v  42.5197 212.6103 252.6244
v  42.5197 263.6339 260.9649
v  42.5197 212.6103 260.9649
v  36.8414 217.8634 260.9649
v  -36.8414 217.8634 260.9649
v  36.8414 217.8634 259.2140
v  -36.8414 217.8634 259.2140
v  -36.8414 258.3808 260.9649
v  36.8414 258.3808 260.9649
v  36.8414 258.3808 259.2140
v  -36.8414 258.3808 259.2140
v  -42.5197 549.3806 260.9650
v  -42.5197 549.3806 252.6245
v  -42.5197 498.3569 252.6245
v  -42.5197 498.3569 260.9650
v  42.5197 549.3806 252.6245
v  42.5197 498.3569 252.6245
v  42.5197 549.3806 260.9650
v  42.5197 498.3569 260.9650
v  36.8414 503.6100 260.9650
v  -36.8414 503.6100 260.9650
v  36.8414 503.6100 259.2141
v  -36.8414 503.6100 259.2141
v  -36.8414 544.1274 260.9650
v  36.8414 544.1274 260.9650
v  36.8414 544.1274 259.2141
v  -36.8414 544.1274 259.2141
v  -42.5197 454.9607 260.9649
v  -42.5197 454.9607 252.6245
v  -42.5197 403.9370 252.6245
v  -42.5197 403.9370 260.9649
v  42.5197 454.9607 252.6245
v  42.5197 403.9370 252.6245
v  42.5197 454.9607 260.9649
v  42.5197 403.9370 260.9649
v  36.8414 409.1901 260.9649
v  -36.8414 409.1901 260.9649
v  36.8414 409.1901 259.2140
v  -36.8414 409.1901 259.2140
v  -36.8414 449.7075 260.9649
v  36.8414 449.7075 260.9649
v  36.8414 449.7075 259.2140
v  -36.8414 449.7075 259.2140
v  -42.5197 359.4925 260.9649
v  -42.5197 359.4925 252.6245
v  -42.5197 308.4689 252.6245
v  -42.5197 308.4689 260.9649
v  42.5197 359.4925 252.6245
v  42.5197 308.4689 252.6245
v  42.5197 359.4925 260.9649
v  42.5197 308.4689 260.9649
v  36.8414 313.7220 260.9649
v  -36.8414 313.7220 260.9649
v  36.8414 313.7220 259.2140
v  -36.8414 313.7220 259.2140
v  -36.8414 354.2393 260.9649
v  36.8414 354.2393 260.9649
v  36.8414 354.2393 259.2140
v  -36.8414 354.2393 259.2140
v  139.6416 263.6339 195.6939
v  139.6416 263.6339 187.3534
v  139.6416 212.6103 187.3534
v  139.6416 212.6103 195.6939
v  251.4568 263.6339 187.3534
v  251.4568 212.6103 187.3534
v  251.4568 263.6339 195.6939
v  251.4568 212.6103 195.6939
v  245.7785 217.8634 195.6939
v  145.3199 217.8634 195.6939
v  245.7785 217.8634 193.9430
v  145.3199 217.8634 193.9430
v  145.3199 258.3808 195.6939
v  245.7785 258.3808 195.6939
v  245.7785 258.3808 193.9430
v  145.3199 258.3808 193.9430
v  139.6416 359.4926 195.6939
v  139.6416 359.4926 187.3534
v  139.6416 308.4689 187.3534
v  139.6416 308.4689 195.6939
v  251.4568 359.4926 187.3534
v  251.4568 308.4689 187.3534
v  251.4568 359.4926 195.6939
v  251.4568 308.4689 195.6939
v  245.7785 313.7220 195.6939
v  145.3199 313.7220 195.6939
v  245.7785 313.7220 193.9429
v  145.3199 313.7220 193.9429
v  145.3199 354.2395 195.6939
v  245.7785 354.2395 195.6939
v  245.7785 354.2395 193.9430
v  145.3199 354.2395 193.9430
v  139.6416 550.7515 195.6939
v  139.6416 550.7515 187.3535
v  139.6416 499.7279 187.3534
v  139.6416 499.7279 195.6939
v  251.4568 550.7515 187.3535
v  251.4568 499.7279 187.3534
v  251.4568 550.7515 195.6939
v  251.4568 499.7279 195.6939
v  245.7785 504.9809 195.6939
v  145.3199 504.9809 195.6939
v  245.7785 504.9809 193.9430
v  145.3199 504.9809 193.9430
v  145.3199 545.4984 195.6939
v  245.7785 545.4984 195.6939
v  245.7785 545.4984 193.9430
v  145.3199 545.4984 193.9430
v  139.6416 455.3514 195.6939
v  139.6416 455.3514 187.3534
v  139.6416 404.3278 187.3534
v  139.6416 404.3278 195.6939
v  251.4568 455.3514 187.3534
v  251.4568 404.3278 187.3534
v  251.4568 455.3514 195.6939
v  251.4568 404.3278 195.6939
v  245.7785 409.5809 195.6939
v  145.3199 409.5809 195.6939
v  245.7785 409.5809 193.9430
v  145.3199 409.5809 193.9430
v  145.3199 450.0984 195.6939
v  245.7785 450.0984 195.6939
v  245.7785 450.0984 193.9430
v  145.3199 450.0984 193.9430
v  145.8858 1023.4360 -39.0064
v  145.8858 1023.4360 -47.3469
v  145.8858 955.0659 -47.3469
v  145.8858 955.0659 -39.0064
v  200.5204 1023.4360 -47.3469
v  200.5204 955.0659 -47.3469
v  200.5204 1023.4360 -39.0064
v  200.5204 955.0659 -39.0064
v  194.8421 960.3191 -39.0064
v  151.5641 960.3191 -39.0064
v  194.8421 960.3191 -40.7574
v  151.5641 960.3191 -40.7574
v  151.5641 1018.1829 -39.0064
v  194.8421 1018.1829 -39.0064
v  194.8421 1018.1829 -40.7574
v  151.5641 1018.1829 -40.7574
v  93.6655 1044.3901 -42.0890
v  93.6655 1044.3901 -149.8378
v  93.6655 961.7283 -149.8378
v  93.6655 961.7283 -42.0890
v  251.0030 1044.3901 -149.8378
v  251.0030 961.7283 -149.8378
v  251.0030 1044.3901 -42.0890
v  251.0030 961.7283 -42.0890
v  253.3860 1044.3901 -39.8506
v  91.2825 1044.3901 -39.8506
v  253.3860 1053.0497 -39.8506
v  91.2825 1053.0497 -39.8506
v  253.3860 1044.3901 -152.0762
v  91.2825 1044.3901 -152.0762
v  245.7007 1053.0497 -46.8952
v  98.9678 1053.0497 -46.8952
v  253.3860 1053.0497 -152.0762
v  91.2825 1053.0497 -152.0762
v  245.7007 1048.1620 -46.8952
v  98.9678 1048.1620 -46.8952
v  245.7007 1053.0497 -145.0316
v  98.9678 1053.0497 -145.0316
v  245.7007 1048.1620 -145.0316
v  98.9678 1048.1620 -145.0316
v  -87.8696 187.6951 303.4495
v  -87.8696 187.6951 218.4101
v  -87.8696 174.9392 218.4101
v  -87.8696 174.9392 303.4495
v  87.8696 187.6951 218.4101
v  87.8696 174.9392 218.4101
v  87.8696 187.6951 303.4495
v  87.8696 174.9392 303.4495
v  -55.2756 153.0708 260.7818
v  -55.2756 153.0708 175.7424
v  -55.2756 -0.0000 175.7424
v  -55.2756 -0.0000 260.7818
v  55.2756 153.0708 175.7424
v  55.2756 -0.0000 175.7424
v  55.2756 153.0708 260.7818
v  55.2756 -0.0000 260.7818
v  50.4426 4.9300 260.7818
v  -50.4426 4.9300 260.7818
v  50.4426 4.9300 259.6501
v  -50.4426 4.9300 259.6501
v  -50.4426 148.1407 260.7818
v  50.4426 148.1407 260.7818
v  50.4426 148.1407 259.6501
v  -50.4426 148.1407 259.6501
v  -271.1290 525.5402 242.3335
v  -271.1290 525.5402 191.7920
v  -271.1290 474.9987 191.7920
v  -271.1290 474.9987 242.3335
v  -119.5045 525.5402 242.3335
v  -119.5045 474.9987 242.3335
v  -119.5045 525.5402 191.7920
v  -127.7826 525.5402 191.7920
v  -127.7826 525.5402 235.2322
v  -262.8509 525.5402 235.2322
v  -262.8509 525.5402 191.7920
v  -127.7826 481.8370 191.7920
v  -119.5045 474.9987 191.7920
v  -262.8509 481.8370 191.7920
v  -262.8509 481.8370 235.2322
v  -127.7826 481.8370 235.2322
v  -271.1290 429.8710 242.3335
v  -271.1290 429.8710 191.7920
v  -271.1290 379.3294 191.7920
v  -271.1290 379.3294 242.3335
v  -119.5045 429.8709 242.3335
v  -119.5045 379.3294 242.3335
v  -119.5045 429.8709 191.7920
v  -127.7826 429.8709 191.7920
v  -127.7826 429.8709 235.2322
v  -262.8509 429.8710 235.2322
v  -262.8509 429.8710 191.7920
v  -127.7826 386.1678 191.7920
v  -119.5045 379.3294 191.7920
v  -262.8509 386.1678 191.7920
v  -262.8509 386.1678 235.2322
v  -127.7826 386.1678 235.2321
v  -271.1290 334.2017 242.3335
v  -271.1290 334.2016 191.7920
v  -271.1290 283.6601 191.7920
v  -271.1290 283.6601 242.3335
v  -119.5045 334.2016 242.3335
v  -119.5045 283.6601 242.3335
v  -119.5045 334.2016 191.7920
v  -127.7826 334.2016 191.7920
v  -127.7826 334.2016 235.2321
v  -262.8509 334.2017 235.2322
v  -262.8509 334.2016 191.7920
v  -127.7826 290.4984 191.7919
v  -119.5045 283.6601 191.7919
v  -262.8509 290.4985 191.7920
v  -262.8509 290.4985 235.2321
v  -127.7826 290.4985 235.2321
v  -271.1291 238.5323 242.3335
v  -271.1291 238.5323 191.7920
v  -271.1291 187.9908 191.7920
v  -271.1291 187.9908 242.3335
v  -119.5045 238.5323 242.3335
v  -119.5045 187.9908 242.3335
v  -119.5045 238.5323 191.7920
v  -127.7826 238.5323 191.7920
v  -127.7826 238.5323 235.2321
v  -262.8509 238.5323 235.2322
v  -262.8509 238.5323 191.7920
v  -127.7826 194.8291 191.7920
v  -119.5045 187.9908 191.7920
v  -262.8509 194.8291 191.7920
v  -262.8509 194.8291 235.2322
v  -127.7826 194.8291 235.2322
v  119.5045 525.5402 242.3335
v  119.5045 525.5402 191.7920
v  119.5045 474.9987 191.7920
v  119.5045 474.9987 242.3335
v  271.1290 525.5402 242.3335
v  271.1290 474.9987 242.3335
v  271.1291 525.5402 191.7920
v  262.8509 525.5402 191.7920
v  262.8509 525.5402 235.2322
v  127.7826 525.5402 235.2322
v  127.7826 525.5402 191.7920
v  262.8509 481.8370 191.7920
v  271.1291 474.9987 191.7920
v  127.7826 481.8370 191.7920
v  127.7826 481.8370 235.2322
v  262.8509 481.8370 235.2322
v  119.5045 429.8710 242.3335
v  119.5045 429.8710 191.7920
v  119.5045 379.3294 191.7920
v  119.5045 379.3294 242.3335
v  271.1290 429.8709 242.3335
v  271.1290 379.3294 242.3335
v  271.1291 429.8709 191.7920
v  262.8509 429.8709 191.7920
v  262.8509 429.8709 235.2322
v  127.7826 429.8710 235.2322
v  127.7826 429.8710 191.7920
v  262.8509 386.1678 191.7920
v  271.1291 379.3294 191.7920
v  127.7826 386.1678 191.7920
v  127.7826 386.1678 235.2322
v  262.8509 386.1678 235.2321
v  119.5045 334.2017 242.3335
v  119.5045 334.2016 191.7920
v  119.5045 283.6601 191.7920
v  119.5045 283.6601 242.3335
v  271.1290 334.2016 242.3335
v  271.1290 283.6601 242.3335
v  271.1291 334.2016 191.7920
v  262.8509 334.2016 191.7920
v  262.8509 334.2016 235.2321
v  127.7826 334.2017 235.2322
v  127.7826 334.2016 191.7920
v  262.8509 290.4984 191.7919
v  271.1291 283.6601 191.7919
v  127.7826 290.4985 191.7920
v  127.7826 290.4985 235.2321
v  262.8509 290.4985 235.2321
v  119.5045 238.5323 242.3335
v  119.5045 238.5323 191.7920
v  119.5045 187.9908 191.7920
v  119.5045 187.9908 242.3335
v  271.1290 238.5323 242.3335
v  271.1290 187.9908 242.3335
v  271.1290 238.5323 191.7920
v  262.8509 238.5323 191.7920
v  262.8509 238.5323 235.2321
v  127.7826 238.5323 235.2322
v  127.7826 238.5323 191.7920
v  262.8509 194.8291 191.7920
v  271.1290 187.9908 191.7920
v  127.7826 194.8291 191.7920
v  127.7826 194.8291 235.2322
v  262.8509 194.8291 235.2322
v  -303.2505 -0.0000 92.7771
v  -303.2505 0.0000 -210.4718
v  -303.2505 0.0001 -210.4718
v  -303.2505 0.0001 92.7771
v  88.4989 0.0000 -210.4718
v  303.2504 0.0000 -210.4718
v  303.2504 0.0001 -210.4718
v  88.4989 0.0001 -210.4718
v  303.2504 -0.0000 92.7771
v  303.2504 0.0001 92.7771
v  -88.4989 -0.0000 92.7771
v  -88.4989 0.0001 92.7771
v  88.4989 0.0001 92.7771
v  -303.2505 976.8631 92.7772
v  -303.2505 976.8630 193.3926
v  -286.8112 976.8631 177.4523
v  -286.8112 976.8631 90.9216
v  88.4989 -0.0000 92.7771
v  303.2504 -0.0000 193.3925
v  88.4989 -0.0000 193.3925
v  303.2504 147.3837 -210.4718
v  303.2504 146.6551 92.7771
v  88.4989 147.3837 -210.4718
v  -303.2505 146.6551 92.7771
v  -303.2505 147.3837 -210.4718
v  -88.4989 146.6551 193.3925
v  -303.2505 146.6551 193.3925
v  -303.2505 -0.0000 193.3925
v  -88.4989 -0.0000 193.3925
v  303.2504 958.2073 92.7772
v  303.2504 976.8631 92.7772
v  303.2504 976.8630 193.3926
v  303.2504 958.2073 193.3926
v  -88.4989 976.8632 -210.4717
v  -303.2505 976.8632 -210.4717
v  -286.8112 976.8632 -195.8882
v  -83.7014 976.8632 -195.8882
v  88.4989 976.8632 -210.4717
v  83.7013 976.8632 -195.8882
v  88.4989 976.8630 193.3926
v  286.8112 976.8631 177.4523
v  73.4638 976.8631 177.4523
v  303.2504 146.6551 193.3925
v  88.4989 146.6551 193.3925
v  -88.4989 -0.0000 258.4373
v  -88.4989 146.6551 258.4374
v  -88.4989 147.3837 -210.4718
v  -88.4989 0.0000 -210.4718
v  -88.4989 976.8630 258.4375
v  88.4989 976.8630 258.4375
v  73.4638 976.8630 240.8235
v  -73.4638 976.8630 240.8235
v  -88.4989 976.8630 193.3926
v  -73.4638 976.8631 177.4523
v  -88.4989 0.0001 -210.4718
v  88.4989 146.6551 258.4374
v  88.4989 -0.0000 258.4373
v  88.4989 958.2073 193.3926
v  88.4989 958.2073 258.4375
v  -286.8112 962.2209 177.4523
v  -286.8112 962.2209 90.9216
v  -286.8112 962.2209 -195.8882
v  -83.7014 962.2209 -195.8882
v  83.7013 962.2209 -195.8882
v  286.8112 962.2209 177.4523
v  73.4638 962.2209 177.4523
v  73.4638 962.2208 240.8235
v  -73.4638 962.2208 240.8235
v  -73.4638 962.2209 177.4523
v  286.8112 976.8631 90.9216
v  303.2504 976.8632 -210.4717
v  286.8112 976.8632 -195.8882
v  -83.7014 962.2209 90.9216
v  286.8112 962.2209 90.9216
v  83.7013 962.2209 90.9216
v  286.8112 962.2209 -195.8882
v  -88.4989 958.2073 258.4375
v  -88.4989 963.7203 -210.4717
v  88.4989 963.7203 -210.4717
v  -303.2505 963.7203 -210.4717
v  -88.4989 958.2073 193.3926
v  -303.2505 958.2072 92.7772
v  -303.2505 958.2072 193.3926
v  303.2504 963.7203 -210.4717
v  -145.3200 77.8613 195.6939
v  -145.3200 118.3787 195.6939
v  -145.3200 118.3787 193.9430
v  -145.3200 77.8613 193.9430
v  -139.6418 123.6318 195.6939
v  -251.4569 123.6318 195.6939
v  -245.7786 118.3787 195.6939
v  -139.6418 123.6318 187.3534
v  -251.4569 123.6318 187.3534
v  -245.7786 118.3787 193.9430
v  -245.7786 77.8613 193.9430
v  -251.4569 72.6082 195.6939
v  -245.7786 77.8613 195.6939
v  -139.6418 72.6082 195.6939
v  -251.4569 72.6082 187.3534
v  -139.6418 72.6082 187.3534
v  139.6416 123.6318 195.6939
v  139.6416 123.6318 187.3534
v  139.6416 72.6082 187.3534
v  139.6416 72.6082 195.6939
v  251.4568 123.6318 187.3534
v  251.4568 72.6082 187.3534
v  251.4568 123.6318 195.6939
v  251.4568 72.6082 195.6939
v  245.7785 77.8613 195.6939
v  145.3199 77.8613 195.6939
v  245.7785 77.8613 193.9430
v  145.3199 77.8613 193.9430
v  145.3199 118.3787 195.6939
v  245.7785 118.3787 195.6939
v  245.7785 118.3787 193.9430
v  145.3199 118.3787 193.9430
v  -251.4569 648.4357 195.6940
v  -251.4569 648.4357 187.3535
v  -251.4569 597.4120 187.3535
v  -251.4569 597.4120 195.6940
v  -139.6418 648.4357 187.3535
v  -139.6418 597.4120 187.3535
v  -139.6418 648.4357 195.6940
v  -139.6418 597.4120 195.6940
v  -145.3200 602.6652 195.6940
v  -245.7786 602.6652 195.6940
v  -145.3200 602.6652 193.9430
v  -245.7786 602.6652 193.9430
v  -245.7786 643.1826 195.6940
v  -145.3200 643.1826 195.6940
v  -145.3200 643.1826 193.9431
v  -245.7786 643.1826 193.9431
v  -251.4569 744.2943 195.6939
v  -251.4569 744.2943 187.3535
v  -251.4569 693.2707 187.3535
v  -251.4569 693.2707 195.6939
v  -139.6418 744.2943 187.3535
v  -139.6418 693.2707 187.3535
v  -139.6418 744.2943 195.6939
v  -139.6418 693.2707 195.6939
v  -145.3201 698.5238 195.6939
v  -245.7786 698.5238 195.6939
v  -145.3201 698.5238 193.9430
v  -245.7786 698.5238 193.9430
v  -245.7786 739.0412 195.6939
v  -145.3201 739.0412 195.6939
v  -145.3201 739.0412 193.9430
v  -245.7786 739.0412 193.9430
v  -251.4569 935.5532 195.6940
v  -251.4569 935.5532 187.3535
v  -251.4569 884.5297 187.3535
v  -251.4569 884.5297 195.6940
v  -139.6418 935.5532 187.3535
v  -139.6418 884.5297 187.3535
v  -139.6418 935.5532 195.6940
v  -139.6418 884.5297 195.6940
v  -145.3201 889.7827 195.6940
v  -245.7786 889.7827 195.6940
v  -145.3201 889.7827 193.9430
v  -245.7786 889.7827 193.9430
v  -245.7786 930.3002 195.6940
v  -145.3201 930.3002 195.6940
v  -145.3201 930.3002 193.9430
v  -245.7786 930.3002 193.9430
v  -251.4569 840.1532 195.6940
v  -251.4569 840.1532 187.3535
v  -251.4569 789.1295 187.3535
v  -251.4569 789.1295 195.6939
v  -139.6418 840.1532 187.3535
v  -139.6418 789.1295 187.3535
v  -139.6418 840.1532 195.6940
v  -139.6418 789.1295 195.6939
v  -145.3201 794.3827 195.6939
v  -245.7786 794.3827 195.6939
v  -145.3201 794.3827 193.9430
v  -245.7786 794.3827 193.9430
v  -245.7786 834.9002 195.6940
v  -145.3201 834.9002 195.6940
v  -145.3201 834.9002 193.9430
v  -245.7786 834.9002 193.9430
v  139.6416 648.4357 195.6940
v  139.6416 648.4357 187.3535
v  139.6416 597.4120 187.3535
v  139.6416 597.4120 195.6940
v  251.4568 648.4357 187.3535
v  251.4568 597.4120 187.3535
v  251.4568 648.4357 195.6940
v  251.4568 597.4120 195.6940
v  245.7785 602.6652 195.6940
v  145.3199 602.6652 195.6940
v  245.7785 602.6652 193.9430
v  145.3199 602.6652 193.9430
v  145.3199 643.1826 195.6940
v  245.7785 643.1826 195.6940
v  245.7785 643.1826 193.9431
v  145.3199 643.1826 193.9431
v  139.6416 744.2943 195.6939
v  139.6416 744.2943 187.3535
v  139.6416 693.2707 187.3535
v  139.6416 693.2707 195.6939
v  251.4568 744.2943 187.3535
v  251.4568 693.2707 187.3535
v  251.4568 744.2943 195.6939
v  251.4568 693.2707 195.6939
v  245.7785 698.5238 195.6939
v  145.3199 698.5238 195.6939
v  245.7785 698.5238 193.9430
v  145.3199 698.5238 193.9430
v  145.3199 739.0412 195.6939
v  245.7785 739.0412 195.6939
v  245.7785 739.0412 193.9430
v  145.3199 739.0412 193.9430
v  139.6416 935.5532 195.6940
v  139.6416 935.5532 187.3535
v  139.6416 884.5297 187.3535
v  139.6416 884.5297 195.6940
v  251.4568 935.5532 187.3535
v  251.4568 884.5297 187.3535
v  251.4568 935.5532 195.6940
v  251.4568 884.5297 195.6940
v  245.7785 889.7827 195.6940
v  145.3199 889.7827 195.6940
v  245.7785 889.7827 193.9430
v  145.3199 889.7827 193.9430
v  145.3199 930.3002 195.6940
v  245.7785 930.3002 195.6940
v  245.7785 930.3002 193.9430
v  145.3199 930.3002 193.9430
v  139.6416 840.1532 195.6940
v  139.6416 840.1532 187.3535
v  139.6416 789.1295 187.3535
v  139.6416 789.1295 195.6939
v  251.4568 840.1532 187.3535
v  251.4568 789.1295 187.3535
v  251.4568 840.1532 195.6940
v  251.4568 789.1295 195.6939
v  245.7785 794.3827 195.6939
v  145.3199 794.3827 195.6939
v  245.7785 794.3827 193.9430
v  145.3199 794.3827 193.9430
v  145.3199 834.9002 195.6940
v  245.7785 834.9002 195.6940
v  245.7785 834.9002 193.9430
v  145.3199 834.9002 193.9430
v  -271.1290 910.3420 242.3336
v  -271.1290 910.3420 191.7921
v  -271.1290 859.8005 191.7921
v  -271.1290 859.8005 242.3336
v  -119.5045 910.3420 242.3336
v  -119.5045 859.8005 242.3336
v  -119.5045 910.3420 191.7920
v  -127.7826 910.3420 191.7920
v  -127.7826 910.3420 235.2322
v  -262.8509 910.3420 235.2322
v  -262.8509 910.3420 191.7921
v  -127.7826 866.6388 191.7920
v  -119.5045 859.8005 191.7920
v  -262.8509 866.6388 191.7921
v  -262.8509 866.6388 235.2322
v  -127.7826 866.6388 235.2322
v  -271.1290 814.6727 242.3336
v  -271.1290 814.6727 191.7921
v  -271.1290 764.1312 191.7920
v  -271.1290 764.1312 242.3336
v  -119.5045 814.6727 242.3336
v  -119.5045 764.1311 242.3335
v  -119.5045 814.6727 191.7920
v  -127.7826 814.6727 191.7920
v  -127.7826 814.6727 235.2322
v  -262.8509 814.6727 235.2322
v  -262.8509 814.6727 191.7921
v  -127.7826 770.9695 191.7920
v  -119.5045 764.1311 191.7920
v  -262.8509 770.9695 191.7920
v  -262.8509 770.9695 235.2322
v  -127.7826 770.9695 235.2322
v  -271.1290 719.0034 242.3336
v  -271.1290 719.0034 191.7920
v  -271.1290 668.4619 191.7921
v  -271.1290 668.4619 242.3336
v  -119.5045 719.0034 242.3335
v  -119.5045 668.4619 242.3335
v  -119.5045 719.0034 191.7920
v  -127.7826 719.0034 191.7920
v  -127.7826 719.0034 235.2322
v  -262.8509 719.0034 235.2322
v  -262.8509 719.0034 191.7920
v  -127.7826 675.3002 191.7920
v  -119.5045 668.4619 191.7920
v  -262.8509 675.3002 191.7921
v  -262.8509 675.3002 235.2322
v  -127.7826 675.3002 235.2322
v  -271.1291 623.3341 242.3336
v  -271.1291 623.3341 191.7921
v  -271.1291 572.7925 191.7920
v  -271.1291 572.7925 242.3336
v  -119.5045 623.3341 242.3336
v  -119.5045 572.7925 242.3335
v  -119.5045 623.3341 191.7921
v  -127.7826 623.3341 191.7921
v  -127.7826 623.3341 235.2322
v  -262.8509 623.3341 235.2322
v  -262.8509 623.3341 191.7921
v  -127.7826 579.6309 191.7920
v  -119.5045 572.7925 191.7920
v  -262.8509 579.6309 191.7920
v  -262.8509 579.6309 235.2322
v  -127.7826 579.6309 235.2322
v  119.5045 910.3420 242.3336
v  119.5045 910.3420 191.7921
v  119.5045 859.8005 191.7921
v  119.5045 859.8005 242.3336
v  271.1290 910.3420 242.3336
v  271.1290 859.8005 242.3336
v  271.1291 910.3420 191.7920
v  262.8509 910.3420 191.7920
v  262.8509 910.3420 235.2322
v  127.7826 910.3420 235.2322
v  127.7826 910.3420 191.7921
v  262.8509 866.6388 191.7920
v  271.1291 859.8005 191.7920
v  127.7826 866.6388 191.7921
v  127.7826 866.6388 235.2322
v  262.8509 866.6388 235.2322
v  119.5045 814.6727 242.3336
v  119.5045 814.6727 191.7921
v  119.5045 764.1312 191.7920
v  119.5045 764.1312 242.3336
v  271.1290 814.6727 242.3336
v  271.1290 764.1311 242.3335
v  271.1291 814.6727 191.7920
v  262.8509 814.6727 191.7920
v  262.8509 814.6727 235.2322
v  127.7826 814.6727 235.2322
v  127.7826 814.6727 191.7921
v  262.8509 770.9695 191.7920
v  271.1291 764.1311 191.7920
v  127.7826 770.9695 191.7920
v  127.7826 770.9695 235.2322
v  262.8509 770.9695 235.2322
v  119.5045 719.0034 242.3336
v  119.5045 719.0034 191.7920
v  119.5045 668.4619 191.7921
v  119.5045 668.4619 242.3336
v  271.1290 719.0034 242.3335
v  271.1290 668.4619 242.3335
v  271.1291 719.0034 191.7920
v  262.8509 719.0034 191.7920
v  262.8509 719.0034 235.2322
v  127.7826 719.0034 235.2322
v  127.7826 719.0034 191.7920
v  262.8509 675.3002 191.7920
v  271.1291 668.4619 191.7920
v  127.7826 675.3002 191.7921
v  127.7826 675.3002 235.2322
v  262.8509 675.3002 235.2322
v  119.5045 623.3341 242.3336
v  119.5045 623.3341 191.7921
v  119.5045 572.7925 191.7920
v  119.5045 572.7925 242.3336
v  271.1290 623.3341 242.3336
v  271.1290 572.7925 242.3335
v  271.1290 623.3341 191.7921
v  262.8509 623.3341 191.7921
v  262.8509 623.3341 235.2322
v  127.7826 623.3341 235.2322
v  127.7826 623.3341 191.7921
v  262.8509 579.6309 191.7920
v  271.1290 572.7925 191.7920
v  127.7826 579.6309 191.7920
v  127.7826 579.6309 235.2322
v  262.8509 579.6309 235.2322
v  -305.8777 648.8942 50.9010
v  -297.5372 648.8942 50.9010
v  -297.5372 597.8705 50.9010
v  -305.8777 597.8705 50.9010
v  -297.5372 648.8942 135.9404
v  -297.5372 597.8705 135.9403
v  -305.8777 648.8942 135.9404
v  -305.8777 597.8705 135.9403
v  -305.8777 603.1237 130.2620
v  -305.8777 603.1237 56.5793
v  -304.1268 603.1237 130.2620
v  -304.1268 603.1237 56.5793
v  -305.8777 643.6411 56.5793
v  -305.8777 643.6411 130.2621
v  -304.1268 643.6411 56.5793
v  -304.1268 643.6411 130.2621
v  -305.8777 934.6407 50.9010
v  -297.5372 934.6407 50.9010
v  -297.5372 883.6172 50.9010
v  -305.8777 883.6172 50.9010
v  -297.5372 934.6407 135.9404
v  -297.5372 883.6172 135.9404
v  -305.8777 934.6407 135.9404
v  -305.8777 883.6172 135.9404
v  -305.8777 888.8704 130.2621
v  -305.8777 888.8704 56.5793
v  -304.1268 888.8704 130.2621
v  -304.1268 888.8704 56.5793
v  -305.8777 929.3877 56.5793
v  -305.8777 929.3877 130.2621
v  -304.1268 929.3877 56.5793
v  -304.1268 929.3877 130.2621
v  -305.8777 840.2209 50.9010
v  -297.5372 840.2209 50.9010
v  -297.5372 789.1973 50.9010
v  -305.8777 789.1973 50.9010
v  -297.5372 840.2209 135.9404
v  -297.5372 789.1973 135.9404
v  -305.8777 840.2209 135.9404
v  -305.8777 789.1973 135.9404
v  -305.8777 794.4505 130.2621
v  -305.8777 794.4505 56.5793
v  -304.1268 794.4505 130.2621
v  -304.1268 794.4505 56.5793
v  -305.8777 834.9679 56.5793
v  -305.8777 834.9679 130.2621
v  -304.1268 834.9679 56.5793
v  -304.1268 834.9679 130.2621
v  -305.8777 744.7528 50.9010
v  -297.5372 744.7528 50.9010
v  -297.5372 693.7291 50.9010
v  -305.8777 693.7291 50.9010
v  -297.5372 744.7528 135.9404
v  -297.5372 693.7291 135.9404
v  -305.8777 744.7528 135.9404
v  -305.8777 693.7291 135.9404
v  -305.8777 698.9822 130.2621
v  -305.8777 698.9822 56.5793
v  -304.1268 698.9822 130.2621
v  -304.1268 698.9822 56.5793
v  -305.8777 739.4996 56.5793
v  -305.8777 739.4996 130.2621
v  -304.1268 739.4996 56.5793
v  -304.1268 739.4996 130.2621
v  305.8775 648.8942 135.9404
v  297.5370 648.8942 135.9404
v  297.5370 597.8705 135.9403
v  305.8775 597.8705 135.9403
v  297.5370 648.8942 50.9010
v  297.5370 597.8705 50.9010
v  305.8775 648.8942 50.9010
v  305.8775 597.8705 50.9010
v  305.8775 603.1237 56.5793
v  305.8775 603.1237 130.2620
v  304.1266 603.1237 56.5793
v  304.1266 603.1237 130.2620
v  305.8775 643.6411 130.2621
v  305.8775 643.6411 56.5793
v  304.1266 643.6411 130.2621
v  304.1266 643.6411 56.5793
v  305.8775 934.6407 135.9404
v  297.5370 934.6407 135.9404
v  297.5370 883.6172 135.9404
v  305.8775 883.6172 135.9404
v  297.5370 934.6407 50.9010
v  297.5370 883.6172 50.9010
v  305.8775 934.6407 50.9010
v  305.8775 883.6172 50.9010
v  305.8775 888.8704 56.5793
v  305.8775 888.8704 130.2621
v  304.1266 888.8704 56.5793
v  304.1266 888.8704 130.2621
v  305.8775 929.3877 130.2621
v  305.8775 929.3877 56.5793
v  304.1266 929.3877 130.2621
v  304.1266 929.3877 56.5793
v  305.8775 840.2209 135.9404
v  297.5370 840.2209 135.9404
v  297.5370 789.1973 135.9404
v  305.8775 789.1973 135.9404
v  297.5370 840.2209 50.9010
v  297.5370 789.1973 50.9010
v  305.8775 840.2209 50.9010
v  305.8775 789.1973 50.9010
v  305.8775 794.4505 56.5793
v  305.8775 794.4505 130.2621
v  304.1266 794.4505 56.5793
v  304.1266 794.4505 130.2621
v  305.8775 834.9679 130.2621
v  305.8775 834.9679 56.5793
v  304.1266 834.9679 130.2621
v  304.1266 834.9679 56.5793
v  305.8775 744.7528 135.9404
v  297.5370 744.7528 135.9404
v  297.5370 693.7291 135.9404
v  305.8775 693.7291 135.9404
v  297.5370 744.7528 50.9010
v  297.5370 693.7291 50.9010
v  305.8775 744.7528 50.9010
v  305.8775 693.7291 50.9010
v  305.8775 698.9822 56.5793
v  305.8775 698.9822 130.2621
v  304.1266 698.9822 56.5793
v  304.1266 698.9822 130.2621
v  305.8775 739.4996 130.2621
v  305.8775 739.4996 56.5793
v  304.1266 739.4996 130.2621
v  304.1266 739.4996 56.5793
v  -42.5197 648.8941 260.9650
v  -42.5197 648.8941 252.6245
v  -42.5197 597.8705 252.6245
v  -42.5197 597.8705 260.9650
v  42.5197 648.8941 252.6245
v  42.5197 597.8705 252.6245
v  42.5197 648.8941 260.9650
v  42.5197 597.8705 260.9650
v  36.8414 603.1237 260.9650
v  -36.8414 603.1237 260.9650
v  36.8414 603.1237 259.2141
v  -36.8414 603.1237 259.2141
v  -36.8414 643.6411 260.9650
v  36.8414 643.6411 260.9650
v  36.8414 643.6411 259.2141
v  -36.8414 643.6411 259.2141
v  -42.5197 934.6407 260.9650
v  -42.5197 934.6407 252.6245
v  -42.5197 883.6172 252.6245
v  -42.5197 883.6172 260.9650
v  42.5197 934.6407 252.6245
v  42.5197 883.6172 252.6245
v  42.5197 934.6407 260.9650
v  42.5197 883.6172 260.9650
v  36.8414 888.8704 260.9650
v  -36.8414 888.8704 260.9650
v  36.8414 888.8704 259.2141
v  -36.8414 888.8704 259.2141
v  -36.8414 929.3876 260.9650
v  36.8414 929.3876 260.9650
v  36.8414 929.3876 259.2141
v  -36.8414 929.3876 259.2141
v  -42.5197 840.2209 260.9650
v  -42.5197 840.2209 252.6245
v  -42.5197 789.1973 252.6245
v  -42.5197 789.1973 260.9650
v  42.5197 840.2209 252.6245
v  42.5197 789.1973 252.6245
v  42.5197 840.2209 260.9650
v  42.5197 789.1973 260.9650
v  36.8414 794.4504 260.9650
v  -36.8414 794.4504 260.9650
v  36.8414 794.4504 259.2141
v  -36.8414 794.4504 259.2141
v  -36.8414 834.9678 260.9650
v  36.8414 834.9678 260.9650
v  36.8414 834.9678 259.2141
v  -36.8414 834.9678 259.2141
v  -42.5197 744.7527 260.9650
v  -42.5197 744.7527 252.6245
v  -42.5197 693.7291 252.6245
v  -42.5197 693.7291 260.9650
v  42.5197 744.7527 252.6245
v  42.5197 693.7291 252.6245
v  42.5197 744.7527 260.9650
v  42.5197 693.7291 260.9650
v  36.8414 698.9822 260.9650
v  -36.8414 698.9822 260.9650
v  36.8414 698.9822 259.2141
v  -36.8414 698.9822 259.2141
v  -36.8414 739.4996 260.9650
v  36.8414 739.4996 260.9650
v  36.8414 739.4996 259.2141
v  -36.8414 739.4996 259.2141
# 1076 vertices

vn 0.0000 0.0000 -1.0000
vn 1.0000 0.0000 -0.0000
vn 0.0000 -0.0000 1.0000
vn -1.0000 0.0000 -0.0000
vn 0.0000 -1.0000 -0.0000
vn 0.0000 1.0000 0.0000
vn -1.0000 -0.0000 -0.0000
vn 1.0000 -0.0000 0.0000
vn 0.0000 -0.0000 -1.0000
vn 0.0000 0.0000 1.0000
vn 1.0000 0.0000 0.0000
vn -0.0000 0.0000 1.0000
vn -0.0000 -0.0000 1.0000
vn 0.0000 -1.0000 0.0000
vn 0.0000 1.0000 -0.0000
vn -0.0000 0.0000 -1.0000
vn -0.0000 1.0000 -0.0000
vn -0.0000 -1.0000 0.0000
vn -0.0000 -0.0000 -1.0000
vn -0.0000 -1.0000 -0.0000
# 20 vertex normals

vt 0.1913 0.3102 0.0000
vt 0.1911 0.3101 0.0000
vt 0.1908 0.3050 0.0000
vt 0.1909 0.3049 0.0000
vt 0.1788 0.3100 0.0000
vt 0.1784 0.3049 0.0000
vt 0.1786 0.3101 0.0000
vt 0.1782 0.3048 0.0000
vt 0.1783 0.3049 0.0000
vt 0.1783 0.3048 0.0000
vt 0.1909 0.3048 0.0000
vt 0.1912 0.3101 0.0000
vt 0.1787 0.3101 0.0000
vt 0.1786 0.3102 0.0000
vt 0.1832 0.2991 0.0000
vt 0.1825 0.2985 0.0000
vt 0.1823 0.2943 0.0000
vt 0.1829 0.2938 0.0000
vt 0.1740 0.2977 0.0000
vt 0.1738 0.2935 0.0000
vt 0.1734 0.2982 0.0000
vt 0.1731 0.2929 0.0000
vt 0.1731 0.2927 0.0000
vt 0.1834 0.2927 0.0000
vt 0.1729 0.2925 0.0000
vt 0.1835 0.2925 0.0000
vt 0.1832 0.2993 0.0000
vt 0.1729 0.2993 0.0000
vt 0.1834 0.2994 0.0000
vt 0.1727 0.2994 0.0000
vt 0.1911 0.3155 0.0000
vt 0.1909 0.3154 0.0000
vt 0.1914 0.3103 0.0000
vt 0.1915 0.3103 0.0000
vt 0.1788 0.3154 0.0000
vt 0.1784 0.3103 0.0000
vt 0.1786 0.3155 0.0000
vt 0.1782 0.3102 0.0000
vt 0.1784 0.3104 0.0000
vt 0.1914 0.3104 0.0000
vt 0.1783 0.3103 0.0000
vt 0.1787 0.3155 0.0000
vt 0.1912 0.3155 0.0000
vt 0.1855 0.3233 0.0000
vt 0.1853 0.3232 0.0000
vt 0.1857 0.3182 0.0000
vt 0.1863 0.3181 0.0000
vt 0.1733 0.3232 0.0000
vt 0.1729 0.3182 0.0000
vt 0.1731 0.3233 0.0000
vt 0.1727 0.3181 0.0000
vt 0.1861 0.3182 0.0000
vt 0.1728 0.3181 0.0000
vt 0.1862 0.3181 0.0000
vt 0.1732 0.3233 0.0000
vt 0.1856 0.3234 0.0000
vt 0.1727 0.2995 0.0000
vt 0.1733 0.2996 0.0000
vt 0.1737 0.3046 0.0000
vt 0.1735 0.3047 0.0000
vt 0.1860 0.2996 0.0000
vt 0.1856 0.3046 0.0000
vt 0.1865 0.2995 0.0000
vt 0.1858 0.3047 0.0000
vt 0.1857 0.3047 0.0000
vt 0.1736 0.3047 0.0000
vt 0.1729 0.2996 0.0000
vt 0.1863 0.2996 0.0000
vt 0.1728 0.2995 0.0000
vt 0.1864 0.2995 0.0000
vt 0.1727 0.3234 0.0000
vt 0.1729 0.3235 0.0000
vt 0.1733 0.3286 0.0000
vt 0.1731 0.3287 0.0000
vt 0.1859 0.3235 0.0000
vt 0.1855 0.3286 0.0000
vt 0.1860 0.3234 0.0000
vt 0.1856 0.3287 0.0000
vt 0.1856 0.3286 0.0000
vt 0.1732 0.3286 0.0000
vt 0.1857 0.3287 0.0000
vt 0.1728 0.3234 0.0000
vt 0.1782 0.3055 0.0000
vt 0.1781 0.3057 0.0000
vt 0.1730 0.3053 0.0000
vt 0.1727 0.3048 0.0000
vt 0.1780 0.3179 0.0000
vt 0.1729 0.3174 0.0000
vt 0.1781 0.3180 0.0000
vt 0.1728 0.3176 0.0000
vt 0.1729 0.3176 0.0000
vt 0.1729 0.3049 0.0000
vt 0.1728 0.3049 0.0000
vt 0.1781 0.3055 0.0000
vt 0.1840 0.2925 0.0000
vt 0.1842 0.2926 0.0000
vt 0.1837 0.2977 0.0000
vt 0.1836 0.2978 0.0000
vt 0.1963 0.2926 0.0000
vt 0.1967 0.2977 0.0000
vt 0.1965 0.2925 0.0000
vt 0.1969 0.2978 0.0000
vt 0.1968 0.2977 0.0000
vt 0.1840 0.2926 0.0000
vt 0.1964 0.2926 0.0000
vt 0.1734 0.3289 0.0000
vt 0.1739 0.3293 0.0000
vt 0.1732 0.3343 0.0000
vt 0.1728 0.3348 0.0000
vt 0.1817 0.3293 0.0000
vt 0.1824 0.3343 0.0000
vt 0.1821 0.3289 0.0000
vt 0.1828 0.3348 0.0000
vt 0.1826 0.3347 0.0000
vt 0.1729 0.3347 0.0000
vt 0.1828 0.3349 0.0000
vt 0.1727 0.3349 0.0000
vt 0.9905 0.5927 0.0000
vt 0.7262 0.5927 0.0000
vt 0.7262 0.4861 0.0000
vt 0.9905 0.4861 0.0000
vt 0.1733 0.3287 0.0000
vt 0.1823 0.3287 0.0000
vt 0.1868 0.3297 0.0000
vt 0.1872 0.3302 0.0000
vt 0.1865 0.3352 0.0000
vt 0.1861 0.3357 0.0000
vt 0.1950 0.3302 0.0000
vt 0.1957 0.3352 0.0000
vt 0.1955 0.3297 0.0000
vt 0.1961 0.3357 0.0000
vt 0.1960 0.3356 0.0000
vt 0.1863 0.3356 0.0000
vt 0.1961 0.3358 0.0000
vt 0.1861 0.3358 0.0000
vt 0.1868 0.3298 0.0000
vt 0.1955 0.3298 0.0000
vt 0.1866 0.3296 0.0000
vt 0.1956 0.3296 0.0000
vt 0.1970 0.3083 0.0000
vt 0.1974 0.3078 0.0000
vt 0.2026 0.3072 0.0000
vt 0.2031 0.3077 0.0000
vt 0.1976 0.2997 0.0000
vt 0.2028 0.2991 0.0000
vt 0.1971 0.2992 0.0000
vt 0.2032 0.2987 0.0000
vt 0.2031 0.2987 0.0000
vt 0.2032 0.2986 0.0000
vt 0.2032 0.3079 0.0000
vt 0.1971 0.3082 0.0000
vt 0.1969 0.3084 0.0000
vt 0.1969 0.2991 0.0000
vt 0.1916 0.3103 0.0000
vt 0.1920 0.3108 0.0000
vt 0.1927 0.3158 0.0000
vt 0.1922 0.3163 0.0000
vt 0.2012 0.3108 0.0000
vt 0.2005 0.3158 0.0000
vt 0.2016 0.3104 0.0000
vt 0.2010 0.3163 0.0000
vt 0.2010 0.3162 0.0000
vt 0.1923 0.3162 0.0000
vt 0.2011 0.3164 0.0000
vt 0.1921 0.3164 0.0000
vt 0.1917 0.3104 0.0000
vt 0.2015 0.3104 0.0000
vt 0.1916 0.3102 0.0000
vt 0.2016 0.3102 0.0000
vt 0.1979 0.3334 0.0000
vt 0.1983 0.3339 0.0000
vt 0.1976 0.3386 0.0000
vt 0.1964 0.3391 0.0000
vt 0.2036 0.3339 0.0000
vt 0.2043 0.3386 0.0000
vt 0.2041 0.3334 0.0000
vt 0.2055 0.3391 0.0000
vt 0.2052 0.3391 0.0000
vt 0.1967 0.3391 0.0000
vt 0.2054 0.3393 0.0000
vt 0.1965 0.3393 0.0000
vt 0.1978 0.3334 0.0000
vt 0.9904 0.4648 0.0000
vt 0.7964 0.4648 0.0000
vt 0.7964 0.3581 0.0000
vt 0.9904 0.3581 0.0000
vt 0.1977 0.3332 0.0000
vt 0.2043 0.3332 0.0000
vt 0.1967 0.3173 0.0000
vt 0.1980 0.3178 0.0000
vt 0.1987 0.3227 0.0000
vt 0.1982 0.3232 0.0000
vt 0.2050 0.3179 0.0000
vt 0.2042 0.3226 0.0000
vt 0.2053 0.3174 0.0000
vt 0.2046 0.3231 0.0000
vt 0.2048 0.3232 0.0000
vt 0.1980 0.3234 0.0000
vt 0.1969 0.3173 0.0000
vt 0.2051 0.3174 0.0000
vt 0.1968 0.3172 0.0000
vt 0.2053 0.3172 0.0000
vt 0.1648 0.3424 0.0000
vt 0.1656 0.3415 0.0000
vt 0.1705 0.3408 0.0000
vt 0.1711 0.3413 0.0000
vt 0.1655 0.3359 0.0000
vt 0.1705 0.3352 0.0000
vt 0.1650 0.3354 0.0000
vt 0.1712 0.3343 0.0000
vt 0.1711 0.3344 0.0000
vt 0.1712 0.3342 0.0000
vt 0.1712 0.3415 0.0000
vt 0.1650 0.3423 0.0000
vt 0.1648 0.3352 0.0000
vt 0.1584 0.3424 0.0000
vt 0.1591 0.3415 0.0000
vt 0.1641 0.3408 0.0000
vt 0.1646 0.3413 0.0000
vt 0.1591 0.3359 0.0000
vt 0.1640 0.3352 0.0000
vt 0.1585 0.3354 0.0000
vt 0.1648 0.3343 0.0000
vt 0.1647 0.3344 0.0000
vt 0.1648 0.3342 0.0000
vt 0.1648 0.3415 0.0000
vt 0.1585 0.3423 0.0000
vt 0.1586 0.3354 0.0000
vt 0.1584 0.3352 0.0000
vt 0.1867 0.3236 0.0000
vt 0.1871 0.3241 0.0000
vt 0.1865 0.3290 0.0000
vt 0.1861 0.3294 0.0000
vt 0.1947 0.3241 0.0000
vt 0.1953 0.3290 0.0000
vt 0.1952 0.3236 0.0000
vt 0.1964 0.3295 0.0000
vt 0.1962 0.3294 0.0000
vt 0.1862 0.3294 0.0000
vt 0.1964 0.3296 0.0000
vt 0.1861 0.3296 0.0000
vt 0.1867 0.3237 0.0000
vt 0.1865 0.3235 0.0000
vt 0.1954 0.3234 0.0000
vt 0.1872 0.2988 0.0000
vt 0.1876 0.2993 0.0000
vt 0.1870 0.3041 0.0000
vt 0.1866 0.3046 0.0000
vt 0.1952 0.2992 0.0000
vt 0.1958 0.3042 0.0000
vt 0.1957 0.2987 0.0000
vt 0.1969 0.3047 0.0000
vt 0.1967 0.3046 0.0000
vt 0.1867 0.3046 0.0000
vt 0.1866 0.3047 0.0000
vt 0.1872 0.2989 0.0000
vt 0.1870 0.2987 0.0000
vt 0.1959 0.2986 0.0000
vt 0.1869 0.3174 0.0000
vt 0.1874 0.3179 0.0000
vt 0.1868 0.3228 0.0000
vt 0.1864 0.3232 0.0000
vt 0.1950 0.3179 0.0000
vt 0.1955 0.3228 0.0000
vt 0.1955 0.3173 0.0000
vt 0.1967 0.3233 0.0000
vt 0.1965 0.3232 0.0000
vt 0.1865 0.3232 0.0000
vt 0.1967 0.3234 0.0000
vt 0.1863 0.3234 0.0000
vt 0.1869 0.3175 0.0000
vt 0.1955 0.3174 0.0000
vt 0.1868 0.3173 0.0000
vt 0.1956 0.3172 0.0000
vt 0.1965 0.3331 0.0000
vt 0.1969 0.3327 0.0000
vt 0.2021 0.3321 0.0000
vt 0.2026 0.3325 0.0000
vt 0.1971 0.3245 0.0000
vt 0.2023 0.3239 0.0000
vt 0.1966 0.3241 0.0000
vt 0.2027 0.3235 0.0000
vt 0.2026 0.3236 0.0000
vt 0.2027 0.3234 0.0000
vt 0.2027 0.3327 0.0000
vt 0.1966 0.3330 0.0000
vt 0.1964 0.3332 0.0000
vt 0.1964 0.3239 0.0000
vt 0.2075 0.3080 0.0000
vt 0.2071 0.3076 0.0000
vt 0.2071 0.3003 0.0000
vt 0.2077 0.2998 0.0000
vt 0.2038 0.3083 0.0000
vt 0.2037 0.2997 0.0000
vt 0.2034 0.3086 0.0000
vt 0.2033 0.2986 0.0000
vt 0.2577 0.9322 0.0000
vt 0.2533 0.9309 0.0000
vt 0.2534 0.9312 0.0000
vt 0.2576 0.9322 0.0000
vt 0.2571 0.9327 0.0000
vt 0.2537 0.9321 0.0000
vt 0.2533 0.9310 0.0000
vt 0.2578 0.9320 0.0000
vt 0.2034 0.3084 0.0000
vt 0.2034 0.2988 0.0000
vt 0.2076 0.2998 0.0000
vt 0.7181 0.2100 0.0000
vt 0.5679 0.2100 0.0000
vt 0.5679 0.0091 0.0000
vt 0.7181 0.0091 0.0000
vt 0.2077 0.3082 0.0000
vt 0.2033 0.3086 0.0000
vt 0.2078 0.2996 0.0000
vt 0.0583 0.3748 0.0000
vt 0.2083 0.9248 0.0000
vt 0.3731 0.9366 0.0000
vt 0.2995 0.8307 0.0000
vt 0.1723 0.3250 0.0000
vt 0.1667 0.3200 0.0000
vt 0.1667 0.3067 0.0000
vt 0.1723 0.3017 0.0000
vt 0.1642 0.3217 0.0000
vt 0.1642 0.3049 0.0000
vt 0.1584 0.3342 0.0000
vt 0.1584 0.2925 0.0000
vt 0.1586 0.2929 0.0000
vt 0.1725 0.3014 0.0000
vt 0.1585 0.2928 0.0000
vt 0.1727 0.3012 0.0000
vt 0.1725 0.3253 0.0000
vt 0.1586 0.3337 0.0000
vt 0.9962 0.3361 0.0000
vt 0.7466 0.3361 0.0000
vt 0.7466 0.0033 0.0000
vt 0.9962 0.0033 0.0000
vt 0.1727 0.3254 0.0000
vt 0.1585 0.3339 0.0000
vt 0.0635 0.7154 0.0000
vt 0.2936 0.9395 0.0000
vt 0.3672 0.9454 0.0000
vt 0.3378 0.9395 0.0000
vt 0.2760 0.8160 0.0000
# 343 texture coords

g SPB_Building01
usemtl SPB_Building01
s off
f 1/1/1 2/2/1 3/3/1 4/4/1 
f 2/2/2 5/5/2 6/6/2 3/3/2 
f 5/5/3 7/7/3 8/8/3 6/6/3 
f 4/4/4 8/8/4 9/9/4 10/4/4 
f 4/4/5 3/3/5 6/6/5 8/8/5 
f 7/7/6 5/5/6 2/2/6 1/1/6 
f 10/4/6 9/9/6 11/10/6 12/11/6 
f 7/7/7 1/1/7 13/12/7 14/13/7 
f 8/8/4 7/7/4 14/13/4 9/9/4 
f 1/1/4 4/4/4 10/4/4 13/12/4 
f 14/13/5 13/12/5 15/1/5 16/14/5 
f 9/9/1 14/13/1 16/14/1 11/10/1 
f 13/12/3 10/4/3 12/11/3 15/1/3 
f 17/15/1 18/16/1 19/17/1 20/18/1 
f 18/16/8 21/19/8 22/20/8 19/17/8 
f 21/19/3 23/21/3 24/22/3 22/20/3 
f 20/18/4 24/22/4 25/23/4 26/24/4 
f 20/18/5 19/17/5 22/20/5 24/22/5 
f 23/21/6 21/19/6 18/16/6 17/15/6 
f 26/24/6 25/23/6 27/25/6 28/26/6 
s 1
f 23/21/4 17/15/4 29/27/4 30/28/4 
f 24/22/4 23/21/4 30/28/4 25/23/4 
f 17/15/4 20/18/4 26/24/4 29/27/4 
s off
f 30/28/5 29/27/5 31/29/5 32/30/5 
f 25/23/1 30/28/1 32/30/1 27/25/1 
f 29/27/3 26/24/3 28/26/3 31/29/3 
f 33/31/9 34/32/9 35/33/9 36/34/9 
f 34/32/8 37/35/8 38/36/8 35/33/8 
f 37/35/3 39/37/3 40/38/3 38/36/3 
f 36/34/4 40/38/4 41/39/4 42/40/4 
f 36/34/5 35/33/5 38/36/5 40/38/5 
f 39/37/6 37/35/6 34/32/6 33/31/6 
f 42/40/6 41/39/6 43/41/6 44/34/6 
f 39/37/4 33/31/4 45/31/4 46/42/4 
f 40/38/4 39/37/4 46/42/4 41/39/4 
f 33/31/4 36/34/4 42/40/4 45/31/4 
f 46/42/5 45/31/5 47/43/5 48/37/5 
f 41/39/1 46/42/1 48/37/1 43/41/1 
f 45/31/3 42/40/3 44/34/3 47/43/3 
f 49/44/1 50/45/1 51/46/1 52/47/1 
f 50/45/8 53/48/8 54/49/8 51/46/8 
f 53/48/10 55/50/10 56/51/10 54/49/10 
s 1
f 52/47/4 56/51/4 57/49/4 58/52/4 
s off
f 52/47/5 51/46/5 54/49/5 56/51/5 
f 55/50/6 53/48/6 50/45/6 49/44/6 
f 58/52/6 57/49/6 59/53/6 60/54/6 
f 55/50/4 49/44/4 61/44/4 62/55/4 
s 1
f 56/51/4 55/50/4 62/55/4 57/49/4 
f 49/44/4 52/47/4 58/52/4 61/44/4 
s off
f 62/55/5 61/44/5 63/56/5 64/50/5 
f 57/49/9 62/55/9 64/50/9 59/53/9 
f 61/44/3 58/52/3 60/54/3 63/56/3 
f 65/57/3 66/58/3 67/59/3 68/60/3 
f 66/58/4 69/61/4 70/62/4 67/59/4 
f 69/61/1 71/63/1 72/64/1 70/62/1 
f 68/60/8 72/64/8 73/65/8 74/66/8 
f 68/60/5 67/59/5 70/62/5 72/64/5 
f 71/63/6 69/61/6 66/58/6 65/57/6 
f 74/66/6 73/65/6 75/64/6 76/60/6 
f 71/63/11 65/57/11 77/67/11 78/68/11 
f 72/64/2 71/63/2 78/68/2 73/65/2 
f 65/57/2 68/60/2 74/66/2 77/67/2 
f 78/68/5 77/67/5 79/69/5 80/70/5 
f 73/65/3 78/68/3 80/70/3 75/64/3 
f 77/67/1 74/66/1 76/60/1 79/69/1 
f 81/71/3 82/72/3 83/73/3 84/74/3 
f 82/72/4 85/75/4 86/76/4 83/73/4 
f 85/75/1 87/77/1 88/78/1 86/76/1 
f 84/74/2 88/78/2 89/79/2 90/80/2 
f 84/74/5 83/73/5 86/76/5 88/78/5 
f 87/77/6 85/75/6 82/72/6 81/71/6 
f 90/80/6 89/79/6 91/81/6 92/74/6 
f 87/77/2 81/71/2 93/72/2 94/75/2 
f 88/78/2 87/77/2 94/75/2 89/79/2 
f 81/71/2 84/74/2 90/80/2 93/72/2 
f 94/75/5 93/72/5 95/82/5 96/77/5 
f 89/79/3 94/75/3 96/77/3 91/81/3 
f 93/72/1 90/80/1 92/74/1 95/82/1 
f 97/83/3 98/84/3 99/85/3 100/86/3 
f 98/84/4 101/87/4 102/88/4 99/85/4 
f 101/87/9 103/89/9 104/90/9 102/88/9 
f 100/86/2 104/90/2 105/91/2 106/92/2 
f 100/86/5 99/85/5 102/88/5 104/90/5 
f 103/89/6 101/87/6 98/84/6 97/83/6 
f 106/92/6 105/91/6 107/90/6 108/93/6 
f 103/89/2 97/83/2 109/94/2 110/87/2 
f 104/90/2 103/89/2 110/87/2 105/91/2 
f 97/83/2 100/86/2 106/92/2 109/94/2 
f 110/87/5 109/94/5 111/83/5 112/89/5 
f 105/91/3 110/87/3 112/89/3 107/90/3 
f 109/94/1 106/92/1 108/93/1 111/83/1 
f 113/95/10 114/96/10 115/97/10 116/98/10 
f 114/96/4 117/99/4 118/100/4 115/97/4 
f 117/99/1 119/101/1 120/102/1 118/100/1 
f 116/98/2 120/102/2 121/100/2 122/97/2 
f 116/98/5 115/97/5 118/100/5 120/102/5 
f 119/101/6 117/99/6 114/96/6 113/95/6 
f 122/97/6 121/100/6 123/103/6 124/97/6 
f 119/101/2 113/95/2 125/104/2 126/105/2 
f 120/102/2 119/101/2 126/105/2 121/100/2 
f 113/95/2 116/98/2 122/97/2 125/104/2 
f 126/105/5 125/104/5 127/95/5 128/101/5 
f 121/100/3 126/105/3 128/101/3 123/103/3 
f 125/104/9 122/97/9 124/97/9 127/95/9 
f 129/106/4 130/107/4 131/108/4 132/109/4 
f 130/107/9 133/110/9 134/111/9 131/108/9 
f 133/110/2 135/112/2 136/113/2 134/111/2 
s 1
f 132/109/12 136/113/10 137/114/10 138/115/12 
s off
f 132/109/5 131/108/5 134/111/5 136/113/5 
f 135/112/6 133/110/6 130/107/6 129/106/6 
f 138/115/6 137/114/6 139/116/6 140/117/6 
s 1
f 135/112/12 129/106/10 141/106/10 142/112/12 
f 136/113/10 135/112/12 142/112/12 137/114/10 
f 129/106/10 132/109/12 138/115/12 141/106/10 
s off
f 143/118/10 144/119/10 140/120/10 139/121/10 
f 142/112/5 141/106/5 144/122/5 143/123/5 
f 137/114/4 142/112/4 143/123/4 139/116/4 
f 141/106/2 138/115/2 140/117/2 144/122/2 
f 145/124/4 146/125/4 147/126/4 148/127/4 
f 146/125/1 149/128/1 150/129/1 147/126/1 
f 149/128/2 151/130/2 152/131/2 150/129/2 
f 148/127/3 152/131/3 153/132/3 154/133/3 
f 148/127/5 147/126/5 150/129/5 152/131/5 
f 151/130/6 149/128/6 146/125/6 145/124/6 
f 154/133/6 153/132/6 155/134/6 156/135/6 
f 151/130/3 145/124/3 157/136/3 158/137/3 
f 152/131/3 151/130/3 158/137/3 153/132/3 
f 145/124/3 148/127/3 154/133/3 157/136/3 
f 159/118/3 160/119/3 156/120/3 155/121/3 
f 158/137/5 157/136/5 160/138/5 159/139/5 
f 153/132/4 158/137/4 159/139/4 155/134/4 
f 157/136/2 154/133/2 156/135/2 160/138/2 
f 161/140/4 162/141/4 163/142/4 164/143/4 
f 162/141/1 165/144/1 166/145/1 163/142/1 
f 165/144/2 167/146/2 168/147/2 166/145/2 
f 164/143/3 168/147/3 169/148/3 170/143/3 
f 164/143/5 163/142/5 166/145/5 168/147/5 
f 167/146/6 165/144/6 162/141/6 161/140/6 
f 170/143/6 169/148/6 171/149/6 172/150/6 
f 167/146/3 161/140/3 173/151/3 174/146/3 
f 168/147/3 167/146/3 174/146/3 169/148/3 
f 161/140/3 164/143/3 170/143/3 173/151/3 
f 175/118/3 176/119/3 172/120/3 171/121/3 
f 174/146/5 173/151/5 176/152/5 175/153/5 
f 169/148/4 174/146/4 175/153/4 171/149/4 
f 173/151/2 170/143/2 172/150/2 176/152/2 
f 177/154/4 178/155/4 179/156/4 180/157/4 
f 178/155/1 181/158/1 182/159/1 179/156/1 
f 181/158/2 183/160/2 184/161/2 182/159/2 
f 180/157/3 184/161/3 185/162/3 186/163/3 
f 180/157/5 179/156/5 182/159/5 184/161/5 
f 183/160/6 181/158/6 178/155/6 177/154/6 
f 186/163/6 185/162/6 187/164/6 188/165/6 
f 183/160/3 177/154/3 189/166/3 190/167/3 
f 184/161/3 183/160/3 190/167/3 185/162/3 
f 177/154/3 180/157/3 186/163/3 189/166/3 
f 191/118/3 192/119/3 188/120/3 187/121/3 
f 190/167/5 189/166/5 192/168/5 191/169/5 
f 185/162/4 190/167/4 191/169/4 187/164/4 
f 189/166/2 186/163/2 188/165/2 192/168/2 
f 193/170/4 194/171/4 195/172/4 196/173/4 
f 194/171/9 197/174/9 198/175/9 195/172/9 
f 197/174/2 199/176/2 200/177/2 198/175/2 
f 196/173/3 200/177/3 201/178/3 202/179/3 
f 196/173/5 195/172/5 198/175/5 200/177/5 
f 199/176/6 197/174/6 194/171/6 193/170/6 
f 202/179/6 201/178/6 203/180/6 204/181/6 
f 199/176/3 193/170/3 205/182/3 206/176/3 
f 200/177/10 199/176/10 206/176/10 201/178/10 
f 193/170/10 196/173/10 202/179/10 205/182/10 
f 207/183/10 208/184/10 204/185/10 203/186/10 
f 206/176/5 205/182/5 208/187/5 207/188/5 
f 201/178/4 206/176/4 207/188/4 203/180/4 
f 205/182/2 202/179/2 204/181/2 208/187/2 
f 209/189/4 210/190/4 211/191/4 212/192/4 
f 210/190/1 213/193/1 214/194/1 211/191/1 
f 213/193/2 215/195/2 216/196/2 214/194/2 
s 1
f 212/192/3 216/196/3 217/196/3 218/192/3 
s off
f 212/192/5 211/191/5 214/194/5 216/196/5 
f 215/195/6 213/193/6 210/190/6 209/189/6 
f 218/192/6 217/196/6 219/197/6 220/198/6 
s 1
f 215/195/3 209/189/3 221/199/3 222/200/3 
f 216/196/3 215/195/3 222/200/3 217/196/3 
f 209/189/3 212/192/3 218/192/3 221/199/3 
s off
f 223/183/3 224/184/3 220/185/3 219/186/3 
f 222/200/5 221/199/5 224/201/5 223/202/5 
f 217/196/4 222/200/4 223/202/4 219/197/4 
f 221/199/2 218/192/2 220/198/2 224/201/2 
f 225/203/4 226/204/4 227/205/4 228/206/4 
f 226/204/1 229/207/1 230/208/1 227/205/1 
f 229/207/2 231/209/2 232/210/2 230/208/2 
s 1
f 228/206/3 232/210/3 233/211/3 234/206/3 
s off
f 228/206/5 227/205/5 230/208/5 232/210/5 
f 231/209/6 229/207/6 226/204/6 225/203/6 
f 234/206/6 233/211/6 235/212/6 236/213/6 
s 1
f 231/209/3 225/203/3 237/214/3 238/209/3 
f 232/210/3 231/209/3 238/209/3 233/211/3 
s off
f 225/203/3 228/206/3 234/206/3 237/214/3 
f 239/183/3 240/184/3 236/185/3 235/186/3 
f 238/209/5 237/214/5 240/203/5 239/215/5 
f 233/211/4 238/209/4 239/215/4 235/212/4 
f 237/214/2 234/206/2 236/213/2 240/203/2 
f 241/216/4 242/217/4 243/218/4 244/219/4 
f 242/217/1 245/220/1 246/221/1 243/218/1 
f 245/220/2 247/222/2 248/223/2 246/221/2 
s 1
f 244/219/3 248/223/3 249/224/3 250/219/3 
s off
f 244/219/5 243/218/5 246/221/5 248/223/5 
f 247/222/6 245/220/6 242/217/6 241/216/6 
f 250/219/6 249/224/6 251/225/6 252/226/6 
s 1
f 247/222/3 241/216/3 253/227/3 254/228/3 
f 248/223/3 247/222/3 254/228/3 249/224/3 
f 241/216/3 244/219/3 250/219/3 253/227/3 
s off
f 255/183/3 256/184/3 252/185/3 251/186/3 
f 254/228/5 253/227/5 256/216/5 255/229/5 
f 249/224/4 254/228/4 255/229/4 251/225/4 
f 253/227/2 250/219/2 252/226/2 256/216/2 
f 257/230/4 258/231/4 259/232/4 260/233/4 
f 258/231/9 261/234/9 262/235/9 259/232/9 
f 261/234/2 263/236/2 264/237/2 262/235/2 
s 1
f 260/233/12 264/237/10 265/238/10 266/239/12 
s off
f 260/233/5 259/232/5 262/235/5 264/237/5 
f 263/236/6 261/234/6 258/231/6 257/230/6 
f 266/239/6 265/238/6 267/240/6 268/241/6 
s 1
f 263/236/12 257/230/10 269/242/10 270/236/12 
f 264/237/10 263/236/12 270/236/12 265/238/10 
f 257/230/10 260/233/12 266/239/12 269/242/10 
s off
f 271/118/10 272/119/10 268/120/10 267/121/10 
f 270/236/5 269/242/5 272/243/5 271/244/5 
f 265/238/4 270/236/4 271/244/4 267/240/4 
f 269/242/2 266/239/2 268/241/2 272/243/2 
f 273/245/4 274/246/4 275/247/4 276/248/4 
f 274/246/1 277/249/1 278/250/1 275/247/1 
f 277/249/2 279/251/2 280/252/2 278/250/2 
f 276/248/3 280/252/3 281/253/3 282/254/3 
f 276/248/5 275/247/5 278/250/5 280/252/5 
f 279/251/6 277/249/6 274/246/6 273/245/6 
f 282/254/6 281/253/6 283/252/6 284/255/6 
f 279/251/3 273/245/3 285/256/3 286/251/3 
f 280/252/3 279/251/3 286/251/3 281/253/3 
f 273/245/3 276/248/3 282/254/3 285/256/3 
f 287/118/3 288/119/3 284/120/3 283/121/3 
f 286/251/5 285/256/5 288/257/5 287/258/5 
f 281/253/4 286/251/4 287/258/4 283/252/4 
f 285/256/2 282/254/2 284/255/2 288/257/2 
f 289/259/4 290/260/4 291/261/4 292/262/4 
f 290/260/1 293/263/1 294/264/1 291/261/1 
f 293/263/2 295/265/2 296/266/2 294/264/2 
f 292/262/3 296/266/3 297/267/3 298/268/3 
f 292/262/5 291/261/5 294/264/5 296/266/5 
f 295/265/6 293/263/6 290/260/6 289/259/6 
f 298/268/6 297/267/6 299/269/6 300/270/6 
f 295/265/3 289/259/3 301/271/3 302/272/3 
f 296/266/3 295/265/3 302/272/3 297/267/3 
f 289/259/3 292/262/3 298/268/3 301/271/3 
f 303/118/3 304/119/3 300/120/3 299/121/3 
f 302/272/5 301/271/5 304/273/5 303/274/5 
f 297/267/4 302/272/4 303/274/4 299/269/4 
f 301/271/2 298/268/2 300/270/2 304/273/2 
f 305/275/4 306/276/4 307/277/4 308/278/4 
f 306/276/1 309/279/1 310/280/1 307/277/1 
f 309/279/2 311/281/2 312/282/2 310/280/2 
f 308/278/3 312/282/3 313/283/3 314/278/3 
f 308/278/5 307/277/5 310/280/5 312/282/5 
f 311/281/6 309/279/6 306/276/6 305/275/6 
f 314/278/6 313/283/6 315/284/6 316/285/6 
f 311/281/3 305/275/3 317/286/3 318/281/3 
f 312/282/3 311/281/3 318/281/3 313/283/3 
f 305/275/3 308/278/3 314/278/3 317/286/3 
f 319/118/3 320/119/3 316/120/3 315/121/3 
f 318/281/5 317/286/5 320/287/5 319/288/5 
f 313/283/4 318/281/4 319/288/4 315/284/4 
f 317/286/2 314/278/2 316/285/2 320/287/2 
f 321/289/4 322/290/4 323/291/4 324/292/4 
f 322/290/1 325/293/1 326/294/1 323/291/1 
f 325/293/2 327/295/2 328/296/2 326/294/2 
s 1
f 324/297/10 328/298/12 329/299/12 330/300/10 
s off
f 324/297/5 323/301/5 326/302/5 328/298/5 
f 327/295/6 325/293/6 322/290/6 321/289/6 
f 330/300/6 329/299/6 331/303/6 332/304/6 
s 1
f 327/295/13 321/289/3 333/289/3 334/305/13 
f 328/296/12 327/295/13 334/305/13 329/306/12 
f 321/289/3 324/292/10 330/307/10 333/289/3 
s off
f 335/308/3 336/309/3 332/310/3 331/311/3 
f 334/305/5 333/289/5 336/312/5 335/313/5 
f 329/306/4 334/305/4 335/313/4 331/296/4 
f 333/289/2 330/307/2 332/314/2 336/312/2 
f 337/315/4 338/315/4 339/315/4 340/315/4 
f 338/315/1 341/315/1 342/315/1 339/315/1 
f 341/315/2 343/315/2 344/315/2 342/315/2 
f 343/315/3 337/315/3 340/315/3 344/315/3 
f 340/316/5 339/316/5 342/316/5 344/316/5 
f 337/317/5 343/317/5 345/317/5 346/317/5 
f 346/317/3 345/317/3 347/317/3 348/317/3 
f 343/317/5 341/317/5 349/317/5 345/317/5 
f 341/317/5 338/317/5 350/317/5 349/317/5 
f 338/317/5 337/317/5 346/317/5 350/317/5 
s 1
f 348/317/6 347/317/6 351/317/6 352/317/6 
s off
f 345/317/2 349/317/2 353/317/2 347/317/2 
f 349/317/1 350/317/1 354/317/1 353/317/1 
f 350/317/4 346/317/4 348/317/4 354/317/4 
f 352/317/1 351/317/1 355/317/1 356/317/1 
s 1
f 347/317/6 353/317/6 357/317/6 351/317/6 
f 353/317/6 354/317/6 358/317/6 357/317/6 
f 354/317/6 348/317/6 352/317/6 358/317/6 
s off
f 355/318/6 359/318/6 360/318/6 356/318/6 
f 351/317/4 357/317/4 359/317/4 355/317/4 
f 357/317/3 358/317/3 360/317/3 359/317/3 
f 358/317/2 352/317/2 356/317/2 360/317/2 
f 361/315/4 362/315/4 363/315/4 364/315/4 
f 362/315/1 365/315/1 366/315/1 363/315/1 
f 365/315/2 367/315/2 368/315/2 366/315/2 
f 367/315/3 361/315/3 364/315/3 368/315/3 
f 364/315/14 363/315/14 366/315/14 368/315/14 
f 367/315/15 365/315/15 362/315/15 361/315/15 
f 369/319/4 370/320/4 371/321/4 372/322/4 
f 370/320/1 373/323/1 374/324/1 371/321/1 
f 373/323/2 375/325/2 376/326/2 374/324/2 
s 1
f 372/322/3 376/326/3 377/327/3 378/328/3 
s off
f 372/322/5 371/321/5 374/324/5 376/326/5 
f 375/325/6 373/323/6 370/320/6 369/319/6 
f 378/328/6 377/327/6 379/329/6 380/330/6 
s 1
f 375/325/3 369/319/3 381/331/3 382/332/3 
f 376/326/3 375/325/3 382/332/3 377/327/3 
f 369/319/3 372/322/3 378/328/3 381/331/3 
s off
f 383/333/3 384/334/3 380/335/3 379/336/3 
f 382/332/5 381/331/5 384/337/5 383/338/5 
f 377/327/4 382/332/4 383/338/4 379/329/4 
f 381/331/2 378/328/2 380/330/2 384/337/2 
f 385/339/4 386/339/4 387/339/4 388/339/4 
f 389/339/3 385/339/3 388/339/3 390/339/3 
f 389/339/6 391/339/6 392/339/6 393/339/6 
f 394/339/6 395/339/6 386/339/6 385/339/6 
f 393/339/6 394/339/6 385/339/6 389/339/6 
f 396/339/1 392/339/1 391/339/1 397/339/1 
f 398/339/16 396/339/16 397/339/16 387/339/16 
f 395/339/1 398/339/1 387/339/1 386/339/1 
f 388/339/5 387/339/5 397/339/5 390/339/5 
f 391/339/8 389/339/8 390/339/8 397/339/8 
f 398/339/2 395/339/2 394/339/2 399/339/2 
f 396/339/6 398/339/6 399/339/6 400/339/6 
f 394/339/16 393/339/16 400/339/16 399/339/16 
f 393/339/4 392/339/4 396/339/4 400/339/4 
f 401/339/4 402/339/4 403/339/4 404/339/4 
f 405/339/3 401/339/3 404/339/3 406/339/3 
f 405/339/6 407/339/6 408/339/6 409/339/6 
f 410/339/6 411/339/6 402/339/6 401/339/6 
f 409/339/6 410/339/6 401/339/6 405/339/6 
f 412/339/1 408/339/1 407/339/1 413/339/1 
f 414/339/16 412/339/16 413/339/16 403/339/16 
f 411/339/1 414/339/1 403/339/1 402/339/1 
f 404/339/5 403/339/5 413/339/5 406/339/5 
f 407/339/8 405/339/8 406/339/8 413/339/8 
f 414/339/2 411/339/2 410/339/2 415/339/2 
f 412/339/6 414/339/6 415/339/6 416/339/6 
f 410/339/16 409/339/16 416/339/16 415/339/16 
f 409/339/4 408/339/4 412/339/4 416/339/4 
f 417/339/4 418/339/4 419/339/4 420/339/4 
f 421/339/3 417/339/3 420/339/3 422/339/3 
f 421/339/6 423/339/6 424/339/6 425/339/6 
f 426/339/17 427/339/17 418/339/17 417/339/17 
f 425/339/6 426/339/6 417/339/6 421/339/6 
f 428/339/1 424/339/1 423/339/1 429/339/1 
f 430/339/16 428/339/16 429/339/16 419/339/16 
f 427/339/1 430/339/1 419/339/1 418/339/1 
f 420/339/18 419/339/18 429/339/18 422/339/18 
f 423/339/8 421/339/8 422/339/8 429/339/8 
f 430/339/2 427/339/2 426/339/2 431/339/2 
f 428/339/15 430/339/15 431/339/15 432/339/15 
f 426/339/16 425/339/16 432/339/16 431/339/16 
f 425/339/4 424/339/4 428/339/4 432/339/4 
f 433/339/4 434/339/4 435/339/4 436/339/4 
f 437/339/10 433/339/10 436/339/10 438/339/10 
f 437/339/15 439/339/15 440/339/15 441/339/15 
f 442/339/17 443/339/17 434/339/17 433/339/17 
f 441/339/6 442/339/6 433/339/6 437/339/6 
f 444/339/19 440/339/19 439/339/19 445/339/19 
f 446/339/1 444/339/1 445/339/1 435/339/1 
f 443/339/9 446/339/9 435/339/9 434/339/9 
f 436/339/18 435/339/18 445/339/18 438/339/18 
f 439/339/11 437/339/11 438/339/11 445/339/11 
f 446/339/2 443/339/2 442/339/2 447/339/2 
f 444/339/17 446/339/17 447/339/17 448/339/17 
f 442/339/19 441/339/19 448/339/19 447/339/19 
f 441/339/7 440/339/7 444/339/7 448/339/7 
f 449/339/4 450/339/4 451/339/4 452/339/4 
f 453/339/3 449/339/3 452/339/3 454/339/3 
f 453/339/6 455/339/6 456/339/6 457/339/6 
f 458/339/6 459/339/6 450/339/6 449/339/6 
f 457/339/6 458/339/6 449/339/6 453/339/6 
f 460/339/1 456/339/1 455/339/1 461/339/1 
f 462/339/16 460/339/16 461/339/16 451/339/16 
f 459/339/1 462/339/1 451/339/1 450/339/1 
f 452/339/5 451/339/5 461/339/5 454/339/5 
f 455/339/8 453/339/8 454/339/8 461/339/8 
f 462/339/2 459/339/2 458/339/2 463/339/2 
f 460/339/6 462/339/6 463/339/6 464/339/6 
f 458/339/16 457/339/16 464/339/16 463/339/16 
f 457/339/4 456/339/4 460/339/4 464/339/4 
f 465/339/4 466/339/4 467/339/4 468/339/4 
f 469/339/3 465/339/3 468/339/3 470/339/3 
f 469/339/6 471/339/6 472/339/6 473/339/6 
f 474/339/6 475/339/6 466/339/6 465/339/6 
f 473/339/6 474/339/6 465/339/6 469/339/6 
f 476/339/1 472/339/1 471/339/1 477/339/1 
f 478/339/16 476/339/16 477/339/16 467/339/16 
f 475/339/1 478/339/1 467/339/1 466/339/1 
f 468/339/5 467/339/5 477/339/5 470/339/5 
f 471/339/8 469/339/8 470/339/8 477/339/8 
f 478/339/2 475/339/2 474/339/2 479/339/2 
f 476/339/6 478/339/6 479/339/6 480/339/6 
f 474/339/16 473/339/16 480/339/16 479/339/16 
f 473/339/4 472/339/4 476/339/4 480/339/4 
f 481/339/4 482/339/4 483/339/4 484/339/4 
f 485/339/3 481/339/3 484/339/3 486/339/3 
f 485/339/6 487/339/6 488/339/6 489/339/6 
f 490/339/17 491/339/17 482/339/17 481/339/17 
f 489/339/6 490/339/6 481/339/6 485/339/6 
f 492/339/1 488/339/1 487/339/1 493/339/1 
f 494/339/16 492/339/16 493/339/16 483/339/16 
f 491/339/1 494/339/1 483/339/1 482/339/1 
f 484/339/18 483/339/18 493/339/18 486/339/18 
f 487/339/8 485/339/8 486/339/8 493/339/8 
f 494/339/2 491/339/2 490/339/2 495/339/2 
f 492/339/15 494/339/15 495/339/15 496/339/15 
f 490/339/16 489/339/16 496/339/16 495/339/16 
f 489/339/4 488/339/4 492/339/4 496/339/4 
f 497/339/4 498/339/4 499/339/4 500/339/4 
f 501/339/10 497/339/10 500/339/10 502/339/10 
f 501/339/15 503/339/15 504/339/15 505/339/15 
f 506/339/17 507/339/17 498/339/17 497/339/17 
f 505/339/6 506/339/6 497/339/6 501/339/6 
f 508/339/19 504/339/19 503/339/19 509/339/19 
f 510/339/1 508/339/1 509/339/1 499/339/1 
f 507/339/9 510/339/9 499/339/9 498/339/9 
f 500/339/18 499/339/18 509/339/18 502/339/18 
f 503/339/11 501/339/11 502/339/11 509/339/11 
f 510/339/2 507/339/2 506/339/2 511/339/2 
f 508/339/17 510/339/17 511/339/17 512/339/17 
f 506/339/19 505/339/19 512/339/19 511/339/19 
f 505/339/7 504/339/7 508/339/7 512/339/7 
f 513/315/2 514/315/2 515/315/2 516/315/2 
s 1
f 517/315/3 518/315/3 519/315/3 520/315/3 
s off
f 518/315/4 521/315/4 522/315/4 519/315/4 
s 1
f 523/315/1 513/315/1 516/315/1 524/315/1 
s 2
f 525/315/5 520/315/5 519/315/5 522/315/5 
s 1
f 526/316/6 527/316/6 528/316/6 529/316/6 
s 2
f 530/315/5 521/315/5 531/315/5 532/315/5 
s 4
f 533/340/2 534/340/2 521/340/2 518/340/2 
s 2
f 535/341/1 533/341/1 518/341/1 517/341/1 
s 4
f 536/341/4 537/341/4 514/341/4 513/341/4 
s 8
f 538/340/3 539/340/13 540/340/3 541/340/3 
s 4
f 542/316/2 543/316/2 544/316/2 545/316/2 
s 1
f 546/316/6 547/316/6 548/316/6 549/316/6 
s 4
f 536/341/4 513/341/4 540/341/4 539/341/4 
s off
f 550/316/6 546/316/6 549/316/6 551/316/6 
s 1
f 552/316/6 544/316/6 553/316/6 554/316/6 
s 8
f 555/340/3 556/340/3 532/340/3 531/340/3 
s 4
f 538/342/4 541/342/4 557/342/4 558/342/4 
s 2
f 537/341/1 559/341/1 560/341/1 514/341/1 
f 559/341/1 535/341/1 517/341/1 560/341/1 
f 513/315/5 523/315/5 541/315/5 540/315/5 
f 523/315/5 530/315/5 532/315/5 541/315/5 
s 1
f 561/316/6 562/316/6 563/316/6 564/316/6 
f 565/316/6 561/316/6 564/316/6 566/316/6 
s 2
f 516/315/5 515/315/5 567/315/5 524/315/5 
f 524/315/5 567/315/5 520/315/5 525/315/5 
s 1
f 521/315/1 530/315/1 525/315/1 522/315/1 
f 530/315/1 523/315/1 524/315/1 525/315/1 
f 514/315/3 560/315/3 567/315/3 515/315/3 
f 560/315/3 517/315/3 520/315/3 567/315/3 
s 8
f 568/342/3 558/342/3 557/342/3 569/342/3 
s 4
f 570/342/2 552/342/2 562/342/2 571/342/2 
s 2
f 541/315/5 532/315/5 569/315/5 557/315/5 
s 1
f 562/316/6 552/316/6 554/316/6 563/316/6 
s 2
f 529/316/2 528/316/2 572/316/2 573/316/2 
s 4
f 549/316/3 548/316/3 574/316/3 575/316/3 
f 551/316/3 549/316/3 575/316/3 576/316/3 
s off
f 554/316/1 553/316/1 577/316/1 578/316/1 
f 564/316/1 563/316/1 579/316/1 580/316/1 
f 566/316/2 564/316/2 580/316/2 581/316/2 
f 563/316/4 554/316/4 578/316/4 579/316/4 
s 1
f 544/316/6 543/316/6 582/316/6 553/316/6 
f 527/316/6 565/316/6 566/316/6 528/316/6 
f 543/316/6 583/316/6 584/316/6 582/316/6 
f 583/316/6 550/316/6 551/316/6 584/316/6 
f 547/316/6 526/316/6 529/316/6 548/316/6 
f 585/343/6 575/343/6 574/343/6 573/343/6 
f 585/343/6 573/343/6 572/343/6 581/343/6 
f 586/343/6 587/343/6 578/343/6 577/343/6 
f 587/343/6 585/343/6 581/343/6 578/343/6 
f 586/343/6 588/343/6 576/343/6 587/343/6 
f 587/343/6 576/343/6 575/343/6 585/343/6 
f 578/343/6 581/343/6 580/343/6 579/343/6 
s 2
f 553/316/4 582/316/4 586/316/4 577/316/4 
s off
f 528/316/1 566/316/1 581/316/1 572/316/1 
s 2
f 582/316/4 584/316/4 588/316/4 586/316/4 
s 4
f 584/316/3 551/316/3 576/316/3 588/316/3 
s 2
f 548/316/2 529/316/2 573/316/2 574/316/2 
s off
f 16/184/4 15/183/4 12/186/4 11/185/4 
f 32/184/4 31/183/4 28/186/4 27/185/4 
f 48/184/4 47/183/4 44/186/4 43/185/4 
f 64/184/4 63/183/4 60/186/4 59/185/4 
f 80/183/2 79/184/2 76/185/2 75/186/2 
f 96/183/2 95/184/2 92/185/2 91/186/2 
f 112/183/2 111/184/2 108/185/2 107/186/2 
f 128/183/2 127/184/2 124/185/2 123/186/2 
s 4
f 532/342/2 556/342/2 568/342/2 569/342/2 
s 8
f 571/342/3 589/342/3 558/342/3 568/342/3 
s 2
f 590/315/1 591/315/1 535/315/1 559/315/1 
f 592/315/1 590/315/1 559/315/1 537/315/1 
s 4
f 593/342/4 538/342/4 558/342/4 589/342/4 
s 8
f 545/315/3 570/315/3 556/315/3 555/315/3 
s 4
f 594/315/4 536/315/4 539/315/4 595/315/4 
f 521/340/2 534/340/2 555/340/2 531/340/2 
s 8
f 593/315/13 595/315/13 539/315/13 538/315/3 
s 4
f 594/315/4 592/315/4 537/315/4 536/315/4 
s 2
f 591/315/1 596/315/1 533/315/1 535/315/1 
s 4
f 596/315/2 542/315/2 534/315/2 533/315/2 
f 583/316/2 543/316/2 542/316/2 596/316/2 
s 2
f 550/316/1 583/316/1 596/316/1 591/316/1 
s 4
f 526/316/4 547/316/4 592/316/4 594/316/4 
s 8
f 565/316/3 527/316/3 595/316/13 593/316/13 
s 4
f 526/316/4 594/316/4 595/316/4 527/316/4 
s 8
f 544/316/3 552/316/3 570/316/3 545/316/3 
s 4
f 565/342/4 593/342/4 589/342/4 561/342/4 
s 2
f 547/316/1 546/316/1 590/316/1 592/316/1 
f 546/316/1 550/316/1 591/316/1 590/316/1 
s 8
f 562/342/3 561/342/3 589/342/3 571/342/3 
s 4
f 556/342/2 570/342/2 571/342/2 568/342/2 
f 534/315/2 542/315/2 545/315/2 555/315/2 
s off
f 597/114/4 598/112/4 599/123/4 600/116/4 
s 1
f 601/112/3 602/106/3 603/106/3 598/112/3 
s off
f 601/112/6 604/110/6 605/107/6 602/106/6 
f 599/118/3 606/119/3 607/120/3 600/121/3 
f 598/112/5 603/106/5 606/122/5 599/123/5 
s 1
f 602/106/3 608/109/3 609/115/3 603/106/3 
f 608/109/3 610/113/3 597/114/3 609/115/3 
f 610/113/3 601/112/3 598/112/3 597/114/3 
s off
f 609/115/6 597/114/6 600/116/6 607/117/6 
f 603/106/2 609/115/2 607/117/2 606/122/2 
f 602/106/4 605/107/4 611/108/4 608/109/4 
f 604/110/2 601/112/2 610/113/2 612/111/2 
f 605/107/1 604/110/1 612/111/1 611/108/1 
f 608/109/5 611/108/5 612/111/5 610/113/5 
f 613/230/4 614/231/4 615/232/4 616/233/4 
f 614/231/1 617/234/1 618/235/1 615/232/1 
f 617/234/2 619/236/2 620/237/2 618/235/2 
s 1
f 616/233/3 620/237/3 621/238/3 622/239/3 
s off
f 616/233/5 615/232/5 618/235/5 620/237/5 
f 619/236/6 617/234/6 614/231/6 613/230/6 
f 622/239/6 621/238/6 623/240/6 624/241/6 
s 1
f 619/236/3 613/230/3 625/242/3 626/236/3 
f 620/237/3 619/236/3 626/236/3 621/238/3 
f 613/230/3 616/233/3 622/239/3 625/242/3 
s off
f 627/118/3 628/119/3 624/120/3 623/121/3 
f 626/236/5 625/242/5 628/243/5 627/244/5 
f 621/238/4 626/236/4 627/244/4 623/240/4 
f 625/242/2 622/239/2 624/241/2 628/243/2 
f 629/106/4 630/107/4 631/108/4 632/109/4 
f 630/107/1 633/110/1 634/111/1 631/108/1 
f 633/110/2 635/112/2 636/113/2 634/111/2 
s 1
f 632/109/3 636/113/3 637/114/3 638/115/3 
s off
f 632/109/5 631/108/5 634/111/5 636/113/5 
f 635/112/6 633/110/6 630/107/6 629/106/6 
f 638/115/6 637/114/6 639/116/6 640/117/6 
s 1
f 635/112/3 629/106/3 641/106/3 642/112/3 
f 636/113/3 635/112/3 642/112/3 637/114/3 
f 629/106/3 632/109/3 638/115/3 641/106/3 
s off
f 643/118/3 644/119/3 640/120/3 639/121/3 
f 642/112/5 641/106/5 644/122/5 643/123/5 
f 637/114/4 642/112/4 643/123/4 639/116/4 
f 641/106/2 638/115/2 640/117/2 644/122/2 
f 645/124/4 646/125/4 647/126/4 648/127/4 
f 646/125/9 649/128/9 650/129/9 647/126/9 
f 649/128/2 651/130/2 652/131/2 650/129/2 
f 648/127/10 652/131/10 653/132/10 654/133/10 
f 648/127/5 647/126/5 650/129/5 652/131/5 
f 651/130/6 649/128/6 646/125/6 645/124/6 
f 654/133/6 653/132/6 655/134/6 656/135/6 
f 651/130/3 645/124/3 657/136/3 658/137/3 
f 652/131/12 651/130/12 658/137/12 653/132/12 
f 645/124/10 648/127/10 654/133/10 657/136/10 
f 659/118/3 660/119/3 656/120/3 655/121/3 
f 658/137/5 657/136/5 660/138/5 659/139/5 
f 653/132/4 658/137/4 659/139/4 655/134/4 
f 657/136/2 654/133/2 656/135/2 660/138/2 
f 661/140/4 662/141/4 663/142/4 664/143/4 
f 662/141/1 665/144/1 666/145/1 663/142/1 
f 665/144/2 667/146/2 668/147/2 666/145/2 
f 664/143/3 668/147/3 669/148/3 670/143/3 
f 664/143/5 663/142/5 666/145/5 668/147/5 
f 667/146/6 665/144/6 662/141/6 661/140/6 
f 670/143/6 669/148/6 671/149/6 672/150/6 
f 667/146/3 661/140/3 673/151/3 674/146/3 
f 668/147/3 667/146/3 674/146/3 669/148/3 
f 661/140/3 664/143/3 670/143/3 673/151/3 
f 675/118/3 676/119/3 672/120/3 671/121/3 
f 674/146/5 673/151/5 676/152/5 675/153/5 
f 669/148/4 674/146/4 675/153/4 671/149/4 
f 673/151/2 670/143/2 672/150/2 676/152/2 
f 677/154/4 678/155/4 679/156/4 680/157/4 
f 678/155/1 681/158/1 682/159/1 679/156/1 
f 681/158/2 683/160/2 684/161/2 682/159/2 
s 1
f 680/157/3 684/161/3 685/162/3 686/163/3 
s off
f 680/157/5 679/156/5 682/159/5 684/161/5 
f 683/160/6 681/158/6 678/155/6 677/154/6 
f 686/163/6 685/162/6 687/164/6 688/165/6 
s 1
f 683/160/3 677/154/3 689/166/3 690/167/3 
f 684/161/3 683/160/3 690/167/3 685/162/3 
f 677/154/3 680/157/3 686/163/3 689/166/3 
s off
f 691/118/3 692/119/3 688/120/3 687/121/3 
f 690/167/5 689/166/5 692/168/5 691/169/5 
f 685/162/4 690/167/4 691/169/4 687/164/4 
f 689/166/2 686/163/2 688/165/2 692/168/2 
f 693/230/4 694/231/4 695/232/4 696/233/4 
f 694/231/1 697/234/1 698/235/1 695/232/1 
f 697/234/2 699/236/2 700/237/2 698/235/2 
s 1
f 696/233/3 700/237/3 701/238/3 702/239/3 
s off
f 696/233/5 695/232/5 698/235/5 700/237/5 
f 699/236/6 697/234/6 694/231/6 693/230/6 
f 702/239/6 701/238/6 703/240/6 704/241/6 
s 1
f 699/236/3 693/230/3 705/242/3 706/236/3 
f 700/237/3 699/236/3 706/236/3 701/238/3 
f 693/230/3 696/233/3 702/239/3 705/242/3 
s off
f 707/118/3 708/119/3 704/120/3 703/121/3 
f 706/236/5 705/242/5 708/243/5 707/244/5 
f 701/238/4 706/236/4 707/244/4 703/240/4 
f 705/242/2 702/239/2 704/241/2 708/243/2 
f 709/245/4 710/246/4 711/247/4 712/248/4 
f 710/246/9 713/249/9 714/250/9 711/247/9 
f 713/249/2 715/251/2 716/252/2 714/250/2 
f 712/248/10 716/252/10 717/253/10 718/254/10 
f 712/248/5 711/247/5 714/250/5 716/252/5 
f 715/251/6 713/249/6 710/246/6 709/245/6 
f 718/254/6 717/253/6 719/252/6 720/255/6 
f 715/251/3 709/245/3 721/256/3 722/251/3 
f 716/252/12 715/251/12 722/251/12 717/253/12 
f 709/245/10 712/248/10 718/254/10 721/256/10 
f 723/118/3 724/119/3 720/120/3 719/121/3 
f 722/251/5 721/256/5 724/257/5 723/258/5 
f 717/253/4 722/251/4 723/258/4 719/252/4 
f 721/256/2 718/254/2 720/255/2 724/257/2 
f 725/259/4 726/260/4 727/261/4 728/262/4 
f 726/260/1 729/263/1 730/264/1 727/261/1 
f 729/263/2 731/265/2 732/266/2 730/264/2 
f 728/262/3 732/266/3 733/267/3 734/268/3 
f 728/262/5 727/261/5 730/264/5 732/266/5 
f 731/265/6 729/263/6 726/260/6 725/259/6 
f 734/268/6 733/267/6 735/269/6 736/270/6 
f 731/265/3 725/259/3 737/271/3 738/272/3 
f 732/266/3 731/265/3 738/272/3 733/267/3 
f 725/259/3 728/262/3 734/268/3 737/271/3 
f 739/118/3 740/119/3 736/120/3 735/121/3 
f 738/272/5 737/271/5 740/273/5 739/274/5 
f 733/267/4 738/272/4 739/274/4 735/269/4 
f 737/271/2 734/268/2 736/270/2 740/273/2 
f 741/275/4 742/276/4 743/277/4 744/278/4 
f 742/276/1 745/279/1 746/280/1 743/277/1 
f 745/279/2 747/281/2 748/282/2 746/280/2 
s 1
f 744/278/3 748/282/3 749/283/3 750/278/3 
s off
f 744/278/5 743/277/5 746/280/5 748/282/5 
f 747/281/6 745/279/6 742/276/6 741/275/6 
f 750/278/6 749/283/6 751/284/6 752/285/6 
s 1
f 747/281/3 741/275/3 753/286/3 754/281/3 
f 748/282/3 747/281/3 754/281/3 749/283/3 
f 741/275/3 744/278/3 750/278/3 753/286/3 
s off
f 755/118/3 756/119/3 752/120/3 751/121/3 
f 754/281/5 753/286/5 756/287/5 755/288/5 
f 749/283/4 754/281/4 755/288/4 751/284/4 
f 753/286/2 750/278/2 752/285/2 756/287/2 
f 757/339/4 758/339/4 759/339/4 760/339/4 
f 761/339/3 757/339/3 760/339/3 762/339/3 
f 761/339/6 763/339/6 764/339/6 765/339/6 
f 766/339/6 767/339/6 758/339/6 757/339/6 
f 765/339/6 766/339/6 757/339/6 761/339/6 
f 768/339/1 764/339/1 763/339/1 769/339/1 
f 770/339/16 768/339/16 769/339/16 759/339/16 
f 767/339/1 770/339/1 759/339/1 758/339/1 
f 760/339/5 759/339/5 769/339/5 762/339/5 
f 763/339/8 761/339/8 762/339/8 769/339/8 
f 770/339/2 767/339/2 766/339/2 771/339/2 
f 768/339/6 770/339/6 771/339/6 772/339/6 
f 766/339/16 765/339/16 772/339/16 771/339/16 
f 765/339/4 764/339/4 768/339/4 772/339/4 
f 773/339/4 774/339/4 775/339/4 776/339/4 
f 777/339/3 773/339/3 776/339/3 778/339/3 
f 777/339/6 779/339/6 780/339/6 781/339/6 
f 782/339/6 783/339/6 774/339/6 773/339/6 
f 781/339/6 782/339/6 773/339/6 777/339/6 
f 784/339/1 780/339/1 779/339/1 785/339/1 
f 786/339/16 784/339/16 785/339/16 775/339/16 
f 783/339/1 786/339/1 775/339/1 774/339/1 
f 776/339/20 775/339/20 785/339/20 778/339/20 
f 779/339/8 777/339/8 778/339/8 785/339/8 
f 786/339/2 783/339/2 782/339/2 787/339/2 
f 784/339/6 786/339/6 787/339/6 788/339/6 
f 782/339/16 781/339/16 788/339/16 787/339/16 
f 781/339/4 780/339/4 784/339/4 788/339/4 
f 789/339/4 790/339/4 791/339/4 792/339/4 
f 793/339/10 789/339/10 792/339/10 794/339/10 
f 793/339/6 795/339/6 796/339/6 797/339/6 
f 798/339/6 799/339/6 790/339/6 789/339/6 
f 797/339/6 798/339/6 789/339/6 793/339/6 
f 800/339/19 796/339/19 795/339/19 801/339/19 
f 802/339/16 800/339/16 801/339/16 791/339/16 
f 799/339/9 802/339/9 791/339/9 790/339/9 
f 792/339/5 791/339/5 801/339/5 794/339/5 
f 795/339/11 793/339/11 794/339/11 801/339/11 
f 802/339/2 799/339/2 798/339/2 803/339/2 
f 800/339/6 802/339/6 803/339/6 804/339/6 
f 798/339/19 797/339/19 804/339/19 803/339/19 
f 797/339/7 796/339/7 800/339/7 804/339/7 
f 805/339/4 806/339/4 807/339/4 808/339/4 
f 809/339/3 805/339/3 808/339/3 810/339/3 
f 809/339/6 811/339/6 812/339/6 813/339/6 
f 814/339/6 815/339/6 806/339/6 805/339/6 
f 813/339/6 814/339/6 805/339/6 809/339/6 
f 816/339/1 812/339/1 811/339/1 817/339/1 
f 818/339/1 816/339/1 817/339/1 807/339/1 
f 815/339/1 818/339/1 807/339/1 806/339/1 
f 808/339/5 807/339/5 817/339/5 810/339/5 
f 811/339/8 809/339/8 810/339/8 817/339/8 
f 818/339/2 815/339/2 814/339/2 819/339/2 
f 816/339/6 818/339/6 819/339/6 820/339/6 
f 814/339/16 813/339/16 820/339/16 819/339/16 
f 813/339/4 812/339/4 816/339/4 820/339/4 
f 821/339/4 822/339/4 823/339/4 824/339/4 
f 825/339/3 821/339/3 824/339/3 826/339/3 
f 825/339/6 827/339/6 828/339/6 829/339/6 
f 830/339/6 831/339/6 822/339/6 821/339/6 
f 829/339/6 830/339/6 821/339/6 825/339/6 
f 832/339/1 828/339/1 827/339/1 833/339/1 
f 834/339/16 832/339/16 833/339/16 823/339/16 
f 831/339/1 834/339/1 823/339/1 822/339/1 
f 824/339/5 823/339/5 833/339/5 826/339/5 
f 827/339/8 825/339/8 826/339/8 833/339/8 
f 834/339/2 831/339/2 830/339/2 835/339/2 
f 832/339/6 834/339/6 835/339/6 836/339/6 
f 830/339/16 829/339/16 836/339/16 835/339/16 
f 829/339/4 828/339/4 832/339/4 836/339/4 
f 837/339/4 838/339/4 839/339/4 840/339/4 
f 841/339/3 837/339/3 840/339/3 842/339/3 
f 841/339/6 843/339/6 844/339/6 845/339/6 
f 846/339/6 847/339/6 838/339/6 837/339/6 
f 845/339/6 846/339/6 837/339/6 841/339/6 
f 848/339/1 844/339/1 843/339/1 849/339/1 
f 850/339/16 848/339/16 849/339/16 839/339/16 
f 847/339/1 850/339/1 839/339/1 838/339/1 
f 840/339/20 839/339/20 849/339/20 842/339/20 
f 843/339/8 841/339/8 842/339/8 849/339/8 
f 850/339/2 847/339/2 846/339/2 851/339/2 
f 848/339/6 850/339/6 851/339/6 852/339/6 
f 846/339/16 845/339/16 852/339/16 851/339/16 
f 845/339/4 844/339/4 848/339/4 852/339/4 
f 853/339/4 854/339/4 855/339/4 856/339/4 
f 857/339/10 853/339/10 856/339/10 858/339/10 
f 857/339/6 859/339/6 860/339/6 861/339/6 
f 862/339/6 863/339/6 854/339/6 853/339/6 
f 861/339/6 862/339/6 853/339/6 857/339/6 
f 864/339/19 860/339/19 859/339/19 865/339/19 
f 866/339/16 864/339/16 865/339/16 855/339/16 
f 863/339/9 866/339/9 855/339/9 854/339/9 
f 856/339/5 855/339/5 865/339/5 858/339/5 
f 859/339/11 857/339/11 858/339/11 865/339/11 
f 866/339/2 863/339/2 862/339/2 867/339/2 
f 864/339/6 866/339/6 867/339/6 868/339/6 
f 862/339/19 861/339/19 868/339/19 867/339/19 
f 861/339/7 860/339/7 864/339/7 868/339/7 
f 869/339/4 870/339/4 871/339/4 872/339/4 
f 873/339/3 869/339/3 872/339/3 874/339/3 
f 873/339/6 875/339/6 876/339/6 877/339/6 
f 878/339/6 879/339/6 870/339/6 869/339/6 
f 877/339/6 878/339/6 869/339/6 873/339/6 
f 880/339/1 876/339/1 875/339/1 881/339/1 
f 882/339/1 880/339/1 881/339/1 871/339/1 
f 879/339/1 882/339/1 871/339/1 870/339/1 
f 872/339/5 871/339/5 881/339/5 874/339/5 
f 875/339/8 873/339/8 874/339/8 881/339/8 
f 882/339/2 879/339/2 878/339/2 883/339/2 
f 880/339/6 882/339/6 883/339/6 884/339/6 
f 878/339/16 877/339/16 884/339/16 883/339/16 
f 877/339/4 876/339/4 880/339/4 884/339/4 
f 885/1/1 886/2/1 887/3/1 888/4/1 
f 886/2/2 889/5/2 890/6/2 887/3/2 
f 889/5/3 891/7/3 892/8/3 890/6/3 
f 888/4/4 892/8/4 893/9/4 894/4/4 
f 888/4/5 887/3/5 890/6/5 892/8/5 
f 891/7/6 889/5/6 886/2/6 885/1/6 
f 894/4/6 893/9/6 895/10/6 896/11/6 
s 1
f 891/7/4 885/1/7 897/12/7 898/13/4 
f 892/8/4 891/7/4 898/13/4 893/9/4 
f 885/1/7 888/4/4 894/4/4 897/12/7 
s off
f 898/13/5 897/12/5 899/1/5 900/14/5 
f 893/9/1 898/13/1 900/14/1 895/10/1 
f 897/12/3 894/4/3 896/11/3 899/1/3 
f 901/15/1 902/16/1 903/17/1 904/18/1 
f 902/16/8 905/19/8 906/20/8 903/17/8 
f 905/19/3 907/21/3 908/22/3 906/20/3 
f 904/18/4 908/22/4 909/23/4 910/24/4 
f 904/18/5 903/17/5 906/20/5 908/22/5 
f 907/21/6 905/19/6 902/16/6 901/15/6 
f 910/24/6 909/23/6 911/25/6 912/26/6 
f 907/21/4 901/15/4 913/27/4 914/28/4 
f 908/22/4 907/21/4 914/28/4 909/23/4 
f 901/15/4 904/18/4 910/24/4 913/27/4 
f 914/28/5 913/27/5 915/29/5 916/30/5 
f 909/23/1 914/28/1 916/30/1 911/25/1 
f 913/27/3 910/24/3 912/26/3 915/29/3 
f 917/31/1 918/32/1 919/33/1 920/34/1 
f 918/32/8 921/35/8 922/36/8 919/33/8 
f 921/35/10 923/37/10 924/38/10 922/36/10 
s 1
f 920/34/4 924/38/4 925/39/4 926/40/4 
s off
f 920/34/5 919/33/5 922/36/5 924/38/5 
f 923/37/6 921/35/6 918/32/6 917/31/6 
f 926/40/6 925/39/6 927/41/6 928/34/6 
f 923/37/4 917/31/4 929/31/4 930/42/4 
s 1
f 924/38/4 923/37/4 930/42/4 925/39/4 
f 917/31/4 920/34/4 926/40/4 929/31/4 
s off
f 930/42/5 929/31/5 931/43/5 932/37/5 
f 925/39/9 930/42/9 932/37/9 927/41/9 
f 929/31/3 926/40/3 928/34/3 931/43/3 
f 933/44/1 934/45/1 935/46/1 936/47/1 
f 934/45/8 937/48/8 938/49/8 935/46/8 
f 937/48/3 939/50/3 940/51/3 938/49/3 
f 936/47/4 940/51/4 941/49/4 942/52/4 
f 936/47/5 935/46/5 938/49/5 940/51/5 
f 939/50/6 937/48/6 934/45/6 933/44/6 
f 942/52/6 941/49/6 943/53/6 944/54/6 
f 939/50/4 933/44/4 945/44/4 946/55/4 
f 940/51/4 939/50/4 946/55/4 941/49/4 
f 933/44/4 936/47/4 942/52/4 945/44/4 
f 946/55/5 945/44/5 947/56/5 948/50/5 
f 941/49/1 946/55/1 948/50/1 943/53/1 
f 945/44/3 942/52/3 944/54/3 947/56/3 
f 949/57/3 950/58/3 951/59/3 952/60/3 
f 950/58/4 953/61/4 954/62/4 951/59/4 
f 953/61/1 955/63/1 956/64/1 954/62/1 
f 952/60/8 956/64/8 957/65/8 958/66/8 
f 952/60/5 951/59/5 954/62/5 956/64/5 
f 955/63/6 953/61/6 950/58/6 949/57/6 
f 958/66/6 957/65/6 959/64/6 960/60/6 
s 1
f 955/63/11 949/57/8 961/67/8 962/68/11 
f 956/64/2 955/63/11 962/68/11 957/65/2 
f 949/57/8 952/60/2 958/66/2 961/67/8 
s off
f 962/68/5 961/67/5 963/69/5 964/70/5 
f 957/65/3 962/68/3 964/70/3 959/64/3 
f 961/67/1 958/66/1 960/60/1 963/69/1 
f 965/71/3 966/72/3 967/73/3 968/74/3 
f 966/72/4 969/75/4 970/76/4 967/73/4 
f 969/75/1 971/77/1 972/78/1 970/76/1 
f 968/74/2 972/78/2 973/79/2 974/80/2 
f 968/74/5 967/73/5 970/76/5 972/78/5 
f 971/77/6 969/75/6 966/72/6 965/71/6 
f 974/80/6 973/79/6 975/81/6 976/74/6 
f 971/77/2 965/71/2 977/72/2 978/75/2 
f 972/78/2 971/77/2 978/75/2 973/79/2 
f 965/71/2 968/74/2 974/80/2 977/72/2 
f 978/75/5 977/72/5 979/82/5 980/77/5 
f 973/79/3 978/75/3 980/77/3 975/81/3 
f 977/72/1 974/80/1 976/74/1 979/82/1 
f 981/83/10 982/84/10 983/85/10 984/86/10 
f 982/84/4 985/87/4 986/88/4 983/85/4 
f 985/87/1 987/89/1 988/90/1 986/88/1 
f 984/86/2 988/90/2 989/91/2 990/92/2 
f 984/86/5 983/85/5 986/88/5 988/90/5 
f 987/89/6 985/87/6 982/84/6 981/83/6 
f 990/92/6 989/91/6 991/90/6 992/93/6 
f 987/89/2 981/83/2 993/94/2 994/87/2 
f 988/90/2 987/89/2 994/87/2 989/91/2 
f 981/83/2 984/86/2 990/92/2 993/94/2 
f 994/87/5 993/94/5 995/83/5 996/89/5 
f 989/91/3 994/87/3 996/89/3 991/90/3 
f 993/94/9 990/92/9 992/93/9 995/83/9 
f 997/95/3 998/96/3 999/97/3 1000/98/3 
f 998/96/4 1001/99/4 1002/100/4 999/97/4 
f 1001/99/1 1003/101/1 1004/102/1 1002/100/1 
f 1000/98/2 1004/102/2 1005/100/2 1006/97/2 
f 1000/98/5 999/97/5 1002/100/5 1004/102/5 
f 1003/101/6 1001/99/6 998/96/6 997/95/6 
f 1006/97/6 1005/100/6 1007/103/6 1008/97/6 
f 1003/101/2 997/95/2 1009/104/2 1010/105/2 
f 1004/102/2 1003/101/2 1010/105/2 1005/100/2 
f 997/95/2 1000/98/2 1006/97/2 1009/104/2 
f 1010/105/5 1009/104/5 1011/95/5 1012/101/5 
f 1005/100/3 1010/105/3 1012/101/3 1007/103/3 
f 1009/104/1 1006/97/1 1008/97/1 1011/95/1 
f 1013/170/4 1014/171/4 1015/172/4 1016/173/4 
f 1014/171/1 1017/174/1 1018/175/1 1015/172/1 
f 1017/174/2 1019/176/2 1020/177/2 1018/175/2 
s 1
f 1016/173/3 1020/177/3 1021/178/3 1022/179/3 
s off
f 1016/173/5 1015/172/5 1018/175/5 1020/177/5 
f 1019/176/6 1017/174/6 1014/171/6 1013/170/6 
f 1022/179/6 1021/178/6 1023/180/6 1024/181/6 
s 1
f 1019/176/3 1013/170/3 1025/182/3 1026/176/3 
f 1020/177/3 1019/176/3 1026/176/3 1021/178/3 
s off
f 1013/170/3 1016/173/3 1022/179/3 1025/182/3 
f 1027/183/3 1028/184/3 1024/185/3 1023/186/3 
f 1026/176/5 1025/182/5 1028/187/5 1027/188/5 
f 1021/178/4 1026/176/4 1027/188/4 1023/180/4 
f 1025/182/2 1022/179/2 1024/181/2 1028/187/2 
f 1029/189/4 1030/190/4 1031/191/4 1032/192/4 
f 1030/190/1 1033/193/1 1034/194/1 1031/191/1 
f 1033/193/2 1035/195/2 1036/196/2 1034/194/2 
s 1
f 1032/192/3 1036/196/3 1037/196/3 1038/192/3 
s off
f 1032/192/5 1031/191/5 1034/194/5 1036/196/5 
f 1035/195/6 1033/193/6 1030/190/6 1029/189/6 
f 1038/192/6 1037/196/6 1039/197/6 1040/198/6 
s 1
f 1035/195/3 1029/189/3 1041/199/3 1042/200/3 
f 1036/196/3 1035/195/3 1042/200/3 1037/196/3 
f 1029/189/3 1032/192/3 1038/192/3 1041/199/3 
s off
f 1043/183/3 1044/184/3 1040/185/3 1039/186/3 
f 1042/200/5 1041/199/5 1044/201/5 1043/202/5 
f 1037/196/4 1042/200/4 1043/202/4 1039/197/4 
f 1041/199/2 1038/192/2 1040/198/2 1044/201/2 
f 1045/203/4 1046/204/4 1047/205/4 1048/206/4 
f 1046/204/1 1049/207/1 1050/208/1 1047/205/1 
f 1049/207/2 1051/209/2 1052/210/2 1050/208/2 
s 1
f 1048/206/3 1052/210/3 1053/211/3 1054/206/3 
s off
f 1048/206/5 1047/205/5 1050/208/5 1052/210/5 
f 1051/209/6 1049/207/6 1046/204/6 1045/203/6 
f 1054/206/6 1053/211/6 1055/212/6 1056/213/6 
s 1
f 1051/209/3 1045/203/3 1057/214/3 1058/209/3 
f 1052/210/3 1051/209/3 1058/209/3 1053/211/3 
f 1045/203/3 1048/206/3 1054/206/3 1057/214/3 
s off
f 1059/183/3 1060/184/3 1056/185/3 1055/186/3 
f 1058/209/5 1057/214/5 1060/203/5 1059/215/5 
f 1053/211/4 1058/209/4 1059/215/4 1055/212/4 
f 1057/214/2 1054/206/2 1056/213/2 1060/203/2 
f 1061/216/4 1062/217/4 1063/218/4 1064/219/4 
f 1062/217/9 1065/220/9 1066/221/9 1063/218/9 
f 1065/220/2 1067/222/2 1068/223/2 1066/221/2 
f 1064/219/10 1068/223/10 1069/224/10 1070/219/10 
f 1064/219/5 1063/218/5 1066/221/5 1068/223/5 
f 1067/222/6 1065/220/6 1062/217/6 1061/216/6 
f 1070/219/6 1069/224/6 1071/225/6 1072/226/6 
f 1067/222/3 1061/216/3 1073/227/3 1074/228/3 
f 1068/223/12 1067/222/12 1074/228/12 1069/224/12 
f 1061/216/10 1064/219/10 1070/219/10 1073/227/10 
f 1075/183/3 1076/184/3 1072/185/3 1071/186/3 
f 1074/228/5 1073/227/5 1076/216/5 1075/229/5 
f 1069/224/4 1074/228/4 1075/229/4 1071/225/4 
f 1073/227/2 1070/219/2 1072/226/2 1076/216/2 
f 900/184/4 899/183/4 896/186/4 895/185/4 
f 916/184/4 915/183/4 912/186/4 911/185/4 
f 932/184/4 931/183/4 928/186/4 927/185/4 
f 948/184/4 947/183/4 944/186/4 943/185/4 
f 964/183/2 963/184/2 960/185/2 959/186/2 
f 980/183/2 979/184/2 976/185/2 975/186/2 
f 996/183/2 995/184/2 992/185/2 991/186/2 
f 1012/183/2 1011/184/2 1008/185/2 1007/186/2 
# 950 polygons

