# 3ds Max Wavefront OBJ Exporter v0.97b - (c)2007 guruware
# File Created: 15.03.2017 10:23:05

mtllib SPW_Natures_Stone_11.mtl

#
# object SPW_Natures_Stone_11
#

v  -49.9246 13.0834 2.6720
v  -54.1045 38.7816 6.4290
v  -31.2232 22.4071 -29.7386
v  11.1907 56.5663 30.9122
v  53.6798 38.0379 14.1666
v  23.8678 71.8511 -21.7186
v  -7.6133 73.3593 17.9945
v  -17.3643 74.5958 -20.9281
v  -31.6090 -0.0684 8.8058
v  3.7587 -3.9305 -31.7592
v  26.1810 -10.8534 -19.1767
v  26.9911 53.8640 -40.8335
v  25.3897 16.9103 -43.5994
v  47.1231 4.1497 -9.8454
v  -2.6949 79.8773 -19.8529
v  40.2436 3.2334 16.6675
v  8.1376 5.1021 32.0407
v  24.5108 34.6681 39.0149
v  -38.1733 25.8605 33.1980
# 19 vertices

vn -0.8562 -0.0643 -0.5126
vn 0.4841 0.8022 0.3496
vn -0.7398 0.2983 -0.6031
vn -0.2348 -0.9655 -0.1128
vn -0.3037 0.2365 -0.9230
vn -0.2535 -0.2654 -0.9302
vn 0.6263 -0.5048 -0.5941
vn 0.1746 0.7312 -0.6595
vn 0.9063 0.1132 -0.4072
vn 0.1027 -0.9388 0.3287
vn 0.6488 -0.1977 0.7348
vn 0.2962 0.9341 0.1994
vn 0.5029 0.5520 0.6652
vn -0.1767 0.3525 0.9190
vn -0.8814 -0.2055 0.4253
vn -0.5661 0.5583 0.6064
vn -0.3440 0.9318 0.1158
vn -0.6102 -0.6193 0.4941
vn -0.2294 0.0825 -0.9698
vn -0.1290 0.5291 -0.8387
vn 0.2151 -0.6416 -0.7363
vn 0.8415 0.0040 -0.5403
vn 0.8483 0.4478 -0.2828
vn 0.5450 -0.8308 0.1127
vn 0.9142 -0.3367 0.2256
vn -0.0413 -0.9580 0.2839
vn 0.3757 -0.4047 0.8337
vn -0.0633 -0.1958 0.9786
vn -0.2943 -0.6933 0.6578
vn -0.5138 -0.7389 -0.4360
vn -0.6154 0.7677 0.1786
# 31 vertex normals

vt 0.6898 0.4774 0.0000
vt 0.7398 0.4594 0.0000
vt 0.7398 0.5094 0.0000
vt 0.6898 0.5094 0.0000
vt 0.6898 0.4594 0.0000
vt 0.6898 0.4809 0.0000
vt 0.7377 0.4823 0.0000
vt 0.6898 0.4805 0.0000
vt 0.6898 0.4881 0.0000
vt 0.6982 0.5094 0.0000
vt 0.7191 0.5094 0.0000
vt 0.7019 0.5094 0.0000
vt 0.6898 0.4844 0.0000
vt 0.6898 0.4771 0.0000
vt 0.7267 0.4784 0.0000
vt 0.6898 0.4733 0.0000
vt 0.7217 0.4594 0.0000
vt 0.7020 0.5094 0.0000
vt 0.6898 0.4905 0.0000
vt 0.7398 0.5075 0.0000
vt 0.7398 0.4725 0.0000
vt 0.7398 0.4903 0.0000
vt 0.7398 0.4800 0.0000
vt 0.7398 0.4763 0.0000
vt 0.7398 0.4843 0.0000
vt 0.7398 0.4863 0.0000
vt 0.7398 0.4866 0.0000
vt 0.7398 0.4733 0.0000
vt 0.7217 0.5094 0.0000
vt 0.7398 0.4875 0.0000
vt 0.7223 0.4594 0.0000
# 31 texture coords

g SPW_Natures_Stone_11
usemtl SPW_Natures_01
s off
f 1/1/1 2/2/1 3/3/1 
f 4/4/2 5/5/2 6/2/2 7/3/2 
f 2/2/3 8/3/3 3/6/3 
f 9/7/4 10/2/4 11/3/4 
f 3/8/5 8/2/5 12/3/5 
f 10/9/6 3/2/6 13/3/6 
f 11/5/7 13/2/7 14/10/7 
f 12/5/8 15/2/8 6/11/8 
f 14/5/9 12/2/9 5/12/9 
f 11/13/10 16/2/10 17/3/10 
f 16/14/11 5/2/11 18/3/11 
f 6/5/12 15/15/12 7/3/12 
f 5/2/13 4/3/13 18/16/13 
f 19/4/14 18/5/14 4/2/14 7/3/14 
f 19/17/15 2/3/15 1/4/15 
f 19/5/16 7/2/16 2/18/16 
f 7/5/17 15/15/17 8/3/17 
f 19/2/18 1/3/18 9/19/18 
f 13/4/19 3/5/19 12/20/19 
f 12/4/20 8/5/20 15/21/20 
f 11/4/21 10/5/21 13/22/21 
f 14/4/22 13/5/22 12/23/22 
f 5/4/23 12/5/23 6/24/23 
f 11/5/24 14/25/24 16/4/24 
f 14/5/25 5/26/25 16/4/25 
f 9/4/26 11/5/26 17/27/26 
f 17/4/27 16/5/27 18/28/27 
f 17/5/28 18/2/28 19/29/28 
f 17/5/29 19/30/29 9/4/29 
f 10/4/30 9/5/30 1/2/30 3/3/30 
f 2/4/31 7/31/31 8/3/31 
# 3 polygons - 28 triangles

