# 3ds Max Wavefront OBJ Exporter v0.97b - (c)2007 guruware
# File Created: 15.03.2017 11:15:05

mtllib SPW_Urban_Props_Roof_Antenna.mtl

#
# object SPW_Urban_Props_Roof_Antenna
#

v  5.7607 212.0760 -10.8036
v  11.4231 212.0760 -5.8195
v  11.4231 176.6430 -5.8195
v  5.7607 176.6430 -10.8036
v  9.9717 212.0760 -4.1705
v  9.9717 176.6430 -4.1705
v  4.3092 212.0760 -9.1546
v  4.3092 176.6430 -9.1546
v  5.7188 212.2547 -11.2763
v  11.8973 212.2547 -5.8379
v  11.8973 211.3463 -5.8379
v  5.7188 211.3463 -11.2763
v  10.0136 212.2547 -3.6978
v  10.0136 211.3463 -3.6978
v  3.8351 212.2547 -9.1362
v  3.8351 211.3463 -9.1362
v  5.7188 177.1753 -11.2763
v  11.8973 177.1753 -5.8379
v  11.8973 176.2670 -5.8379
v  5.7188 176.2670 -11.2763
v  10.0136 177.1753 -3.6978
v  10.0136 176.2670 -3.6978
v  3.8351 177.1753 -9.1362
v  3.8351 176.2670 -9.1362
v  -5.2485 138.1989 11.3489
v  -11.6103 138.1990 6.1261
v  -11.6103 137.2906 6.1261
v  -5.2485 137.2906 11.3489
v  -9.8013 138.1990 3.9226
v  -9.8013 137.2906 3.9226
v  -3.4395 138.1990 9.1453
v  -3.4395 137.2906 9.1453
v  -5.2485 173.2783 11.3489
v  -11.6103 173.2783 6.1261
v  -11.6103 172.3699 6.1261
v  -5.2485 172.3699 11.3489
v  -9.8013 173.2783 3.9226
v  -9.8013 172.3699 3.9226
v  -3.4395 173.2783 9.1454
v  -3.4395 172.3699 9.1454
v  -5.3067 173.0997 10.8780
v  -11.1371 173.0997 6.0914
v  -11.1371 137.6666 6.0914
v  -5.3066 137.6666 10.8780
v  -9.7431 173.0997 4.3935
v  -9.7431 137.6666 4.3935
v  -3.9127 173.0997 9.1801
v  -3.9127 137.6666 9.1801
v  -4.5257 -0.0031 3.5464
v  -7.2851 -0.0031 3.5464
v  -7.2851 1.3536 3.5464
v  -4.5257 1.3536 3.5464
v  -8.2645 -0.0031 4.5258
v  -8.2645 1.3536 4.5258
v  -8.2645 -0.0031 7.2852
v  -8.2645 1.3536 7.2852
v  -7.2851 -0.0031 8.2646
v  -7.2851 1.3536 8.2646
v  -4.5257 -0.0031 8.2646
v  -4.5257 1.3536 8.2646
v  -3.5463 -0.0031 7.2852
v  -3.5463 1.3536 7.2852
v  -3.5463 -0.0031 4.5258
v  -3.5463 1.3536 4.5258
v  -4.5257 -0.0031 -8.2646
v  -7.2851 -0.0031 -8.2646
v  -7.2851 1.3536 -8.2646
v  -4.5257 1.3536 -8.2646
v  -8.2645 -0.0031 -7.2852
v  -8.2645 1.3536 -7.2852
v  -8.2645 -0.0031 -4.5258
v  -8.2645 1.3536 -4.5258
v  -7.2851 -0.0031 -3.5464
v  -7.2851 1.3536 -3.5464
v  -4.5257 -0.0031 -3.5464
v  -4.5257 1.3536 -3.5464
v  -3.5463 -0.0031 -4.5258
v  -3.5463 1.3536 -4.5258
v  -3.5463 -0.0031 -7.2852
v  -3.5463 1.3536 -7.2852
v  7.2852 -0.0032 -8.2646
v  4.5258 -0.0032 -8.2646
v  4.5258 1.3535 -8.2646
v  7.2852 1.3535 -8.2646
v  3.5465 -0.0032 -7.2852
v  3.5465 1.3535 -7.2852
v  3.5464 -0.0032 -4.5258
v  3.5464 1.3535 -4.5258
v  4.5258 -0.0032 -3.5464
v  4.5258 1.3535 -3.5464
v  7.2852 -0.0032 -3.5464
v  7.2852 1.3535 -3.5464
v  8.2646 -0.0032 -4.5258
v  8.2646 1.3535 -4.5258
v  8.2646 -0.0032 -7.2852
v  8.2646 1.3535 -7.2852
v  7.2852 -0.0032 3.5464
v  4.5258 -0.0032 3.5464
v  4.5258 1.3535 3.5464
v  7.2853 1.3535 3.5464
v  3.5465 -0.0032 4.5258
v  3.5465 1.3535 4.5258
v  3.5464 -0.0032 7.2852
v  3.5464 1.3535 7.2852
v  4.5258 -0.0032 8.2646
v  4.5258 1.3535 8.2646
v  7.2852 -0.0032 8.2646
v  7.2852 1.3535 8.2646
v  8.2646 -0.0032 7.2852
v  8.2646 1.3535 7.2852
v  8.2646 -0.0032 4.5258
v  8.2646 1.3535 4.5258
v  -7.3290 225.1301 7.3289
v  -7.3290 225.1301 -7.3289
v  -7.3290 224.2136 -7.3289
v  -7.3290 224.2136 7.3289
v  7.3287 225.1301 -7.3289
v  7.3287 224.2136 -7.3289
v  7.3287 225.1301 7.3289
v  7.3287 224.2136 7.3289
v  0.4234 224.7675 -0.7241
v  -0.4236 224.7675 -0.7241
v  -0.1356 282.7107 -0.2318
v  0.1355 282.7107 -0.2318
v  -0.7242 224.7675 -0.4235
v  -0.2319 282.7107 -0.1355
v  -0.7242 224.7675 0.4235
v  -0.2319 282.7107 0.1356
v  -0.4236 224.7675 0.7241
v  -0.1356 282.7107 0.2318
v  0.4234 224.7675 0.7241
v  0.1355 282.7107 0.2318
v  0.7240 224.7675 0.4235
v  0.2317 282.7107 0.1356
v  0.7240 224.7675 -0.4235
v  0.2317 282.7107 -0.1355
v  5.6102 177.3468 -4.7777
v  6.2007 177.3468 -4.7777
v  6.2007 177.1352 -4.2264
v  5.6102 177.1352 -4.2264
v  6.2007 200.8036 4.2265
v  6.2007 200.5919 4.7778
v  5.6102 200.8036 4.2265
v  5.6102 200.5919 4.7778
v  -6.2007 200.8037 -4.2264
v  -5.6102 200.8037 -4.2264
v  -5.6102 200.5920 -4.7777
v  -6.2007 200.5920 -4.7777
v  -5.6102 177.3470 4.7778
v  -5.6102 177.1353 4.2265
v  -6.2007 177.3470 4.7778
v  -6.2007 177.1354 4.2265
v  -4.2266 200.8036 -5.6102
v  -4.2266 200.8036 -6.2008
v  -4.7779 200.5920 -6.2008
v  -4.7779 200.5920 -5.6102
v  4.7776 177.3470 -6.2008
v  4.2263 177.1353 -6.2008
v  4.7776 177.3470 -5.6102
v  4.2263 177.1353 -5.6102
v  -4.7779 177.3470 6.2008
v  -4.7779 177.3470 5.6103
v  -4.2266 177.1353 5.6103
v  -4.2266 177.1353 6.2008
v  4.2263 200.8036 5.6103
v  4.7776 200.5920 5.6103
v  4.2263 200.8036 6.2008
v  4.7776 200.5920 6.2008
v  -4.7779 130.1029 6.2008
v  -4.7779 130.1029 5.6103
v  -4.2266 129.8912 5.6103
v  -4.2266 129.8912 6.2008
v  4.2263 153.5596 5.6103
v  4.7776 153.3479 5.6103
v  4.2263 153.5596 6.2008
v  4.7776 153.3479 6.2008
v  -4.2266 153.5596 -5.6102
v  -4.2266 153.5596 -6.2008
v  -4.7779 153.3479 -6.2008
v  -4.7779 153.3479 -5.6102
v  4.7776 130.1029 -6.2008
v  4.2263 129.8912 -6.2008
v  4.7776 130.1029 -5.6102
v  4.2263 129.8912 -5.6102
v  -6.2007 153.5596 -4.2264
v  -5.6102 153.5596 -4.2264
v  -5.6102 153.3479 -4.7777
v  -6.2007 153.3479 -4.7777
v  -5.6102 130.1029 4.7778
v  -5.6102 129.8912 4.2264
v  -6.2007 130.1029 4.7778
v  -6.2007 129.8913 4.2264
v  5.6102 130.1028 -4.7777
v  6.2007 130.1028 -4.7777
v  6.2007 129.8911 -4.2264
v  5.6102 129.8911 -4.2264
v  6.2007 153.5595 4.2264
v  6.2007 153.3478 4.7778
v  5.6102 153.5595 4.2264
v  5.6102 153.3478 4.7778
v  5.6102 82.8587 -4.7777
v  6.2007 82.8587 -4.7777
v  6.2007 82.6470 -4.2264
v  5.6102 82.6470 -4.2264
v  6.2007 106.3154 4.2264
v  6.2007 106.1037 4.7778
v  5.6102 106.3154 4.2264
v  5.6102 106.1037 4.7778
v  -6.2007 106.3155 -4.2264
v  -5.6102 106.3155 -4.2264
v  -5.6102 106.1039 -4.7777
v  -6.2007 106.1039 -4.7777
v  -5.6102 82.8588 4.7778
v  -5.6102 82.6471 4.2264
v  -6.2007 82.8588 4.7778
v  -6.2007 82.6471 4.2264
v  -4.2266 106.3155 -5.6102
v  -4.2266 106.3155 -6.2008
v  -4.7779 106.1038 -6.2008
v  -4.7779 106.1038 -5.6102
v  4.7776 82.8588 -6.2008
v  4.2263 82.6471 -6.2008
v  4.7776 82.8588 -5.6102
v  4.2263 82.6471 -5.6102
v  -4.7779 82.8588 6.2008
v  -4.7779 82.8588 5.6102
v  -4.2266 82.6471 5.6102
v  -4.2266 82.6471 6.2008
v  4.2263 106.3155 5.6102
v  4.7776 106.1038 5.6102
v  4.2263 106.3155 6.2008
v  4.7776 106.1038 6.2008
v  -4.7779 35.6147 6.2008
v  -4.7779 35.6147 5.6102
v  -4.2266 35.4030 5.6102
v  -4.2266 35.4030 6.2008
v  4.2263 59.0714 5.6102
v  4.7776 58.8597 5.6102
v  4.2263 59.0714 6.2008
v  4.7776 58.8597 6.2008
v  -4.2266 59.0714 -5.6102
v  -4.2266 59.0714 -6.2008
v  -4.7779 58.8597 -6.2008
v  -4.7779 58.8597 -5.6102
v  4.7776 35.6147 -6.2008
v  4.2263 35.4030 -6.2008
v  4.7776 35.6147 -5.6102
v  4.2263 35.4030 -5.6102
v  -6.2007 59.0714 -4.2264
v  -5.6102 59.0714 -4.2264
v  -5.6102 58.8598 -4.7777
v  -6.2007 58.8598 -4.7777
v  -5.6102 35.6147 4.7778
v  -5.6102 35.4031 4.2264
v  -6.2007 35.6147 4.7778
v  -6.2007 35.4031 4.2264
v  5.6102 35.6146 -4.7778
v  6.2007 35.6146 -4.7778
v  6.2007 35.4029 -4.2264
v  5.6102 35.4029 -4.2264
v  6.2007 59.0713 4.2264
v  6.2007 58.8596 4.7778
v  5.6102 59.0713 4.2264
v  5.6102 58.8596 4.7778
v  5.6101 224.4256 -4.2264
v  6.2006 224.4256 -4.2264
v  6.2006 224.2139 -4.7777
v  5.6100 224.2139 -4.7777
v  6.2006 200.9688 4.7778
v  6.2006 200.7572 4.2265
v  5.6101 200.9688 4.7778
v  5.6101 200.7572 4.2265
v  -6.2009 200.9690 -4.7777
v  -5.6103 200.9689 -4.7777
v  -5.6103 200.7573 -4.2264
v  -6.2009 200.7573 -4.2264
v  -5.6103 224.4257 4.2265
v  -5.6103 224.2141 4.7778
v  -6.2009 224.4257 4.2265
v  -6.2009 224.2141 4.7778
v  -4.7781 200.9689 -5.6102
v  -4.7781 200.9689 -6.2008
v  -4.2267 200.7573 -6.2008
v  -4.2267 200.7573 -5.6102
v  4.2261 224.4257 -6.2008
v  4.7775 224.2140 -6.2008
v  4.2261 224.4257 -5.6102
v  4.7775 224.2140 -5.6102
v  -4.2267 224.4257 6.2008
v  -4.2267 224.4257 5.6103
v  -4.7781 224.2140 5.6103
v  -4.7781 224.2140 6.2008
v  4.7774 200.9689 5.6103
v  4.2261 200.7573 5.6103
v  4.7774 200.9689 6.2008
v  4.2261 200.7573 6.2008
v  -4.2267 177.1816 6.2008
v  -4.2267 177.1816 5.6103
v  -4.7781 176.9699 5.6103
v  -4.7781 176.9699 6.2008
v  4.7775 153.7249 5.6103
v  4.2261 153.5132 5.6103
v  4.7775 153.7249 6.2008
v  4.2261 153.5132 6.2008
v  -4.7781 153.7249 -5.6102
v  -4.7781 153.7249 -6.2008
v  -4.2267 153.5132 -6.2008
v  -4.2267 153.5132 -5.6102
v  4.2261 177.1816 -6.2008
v  4.7775 176.9699 -6.2008
v  4.2261 177.1816 -5.6102
v  4.7775 176.9699 -5.6102
v  -6.2009 153.7249 -4.7777
v  -5.6103 153.7249 -4.7777
v  -5.6103 153.5132 -4.2264
v  -6.2009 153.5132 -4.2264
v  -5.6103 177.1816 4.2265
v  -5.6103 176.9699 4.7778
v  -6.2009 177.1816 4.2265
v  -6.2009 176.9699 4.7778
v  5.6101 177.1815 -4.2264
v  6.2006 177.1815 -4.2264
v  6.2006 176.9698 -4.7777
v  5.6101 176.9698 -4.7777
v  6.2006 153.7247 4.7778
v  6.2006 153.5131 4.2264
v  5.6101 153.7248 4.7778
v  5.6101 153.5131 4.2264
v  5.6101 129.9374 -4.2264
v  6.2006 129.9374 -4.2264
v  6.2006 129.7257 -4.7777
v  5.6101 129.7257 -4.7777
v  6.2006 106.4807 4.7778
v  6.2006 106.2690 4.2264
v  5.6101 106.4807 4.7778
v  5.6101 106.2690 4.2264
v  -6.2009 106.4808 -4.7777
v  -5.6103 106.4808 -4.7777
v  -5.6103 106.2691 -4.2264
v  -6.2009 106.2691 -4.2264
v  -5.6103 129.9375 4.2264
v  -5.6103 129.7258 4.7778
v  -6.2009 129.9375 4.2264
v  -6.2009 129.7258 4.7778
v  -4.7781 106.4808 -5.6102
v  -4.7781 106.4808 -6.2008
v  -4.2267 106.2691 -6.2008
v  -4.2267 106.2691 -5.6102
v  4.2261 129.9375 -6.2008
v  4.7775 129.7258 -6.2008
v  4.2261 129.9375 -5.6102
v  4.7775 129.7258 -5.6102
v  -4.2267 129.9375 6.2008
v  -4.2267 129.9375 5.6103
v  -4.7781 129.7258 5.6103
v  -4.7781 129.7258 6.2008
v  4.7775 106.4808 5.6102
v  4.2261 106.2691 5.6102
v  4.7775 106.4808 6.2008
v  4.2261 106.2691 6.2008
v  -4.2267 82.6934 6.2008
v  -4.2267 82.6934 5.6102
v  -4.7781 82.4817 5.6102
v  -4.7781 82.4817 6.2008
v  4.7775 59.2367 5.6102
v  4.2261 59.0250 5.6102
v  4.7775 59.2367 6.2008
v  4.2261 59.0250 6.2008
v  -4.7781 59.2367 -5.6102
v  -4.7781 59.2367 -6.2008
v  -4.2267 59.0250 -6.2008
v  -4.2267 59.0250 -5.6102
v  4.2261 82.6934 -6.2008
v  4.7775 82.4817 -6.2008
v  4.2261 82.6934 -5.6102
v  4.7775 82.4817 -5.6102
v  -6.2009 59.2367 -4.7777
v  -5.6103 59.2367 -4.7777
v  -5.6103 59.0250 -4.2264
v  -6.2009 59.0250 -4.2264
v  -5.6103 82.6934 4.2264
v  -5.6103 82.4818 4.7778
v  -6.2009 82.6934 4.2264
v  -6.2009 82.4818 4.7778
v  5.6101 82.6933 -4.2264
v  6.2006 82.6933 -4.2264
v  6.2006 82.4816 -4.7777
v  5.6101 82.4816 -4.7777
v  6.2006 59.2366 4.7778
v  6.2006 59.0249 4.2264
v  5.6101 59.2366 4.7778
v  5.6101 59.0249 4.2264
v  5.6101 35.4492 -4.2264
v  6.2006 35.4492 -4.2264
v  6.2006 35.2375 -4.7778
v  5.6101 35.2375 -4.7778
v  6.2006 11.9925 4.7778
v  6.2006 11.7808 4.2264
v  5.6101 11.9925 4.7778
v  5.6101 11.7808 4.2264
v  -6.2009 11.9926 -4.7778
v  -5.6103 11.9926 -4.7778
v  -5.6103 11.7810 -4.2264
v  -6.2009 11.7810 -4.2264
v  -5.6103 35.4493 4.2264
v  -5.6103 35.2377 4.7778
v  -6.2009 35.4493 4.2264
v  -6.2009 35.2377 4.7778
v  -4.7781 11.9926 -5.6102
v  -4.7781 11.9926 -6.2008
v  -4.2267 11.7809 -6.2008
v  -4.2267 11.7809 -5.6102
v  4.2261 35.4493 -6.2008
v  4.7775 35.2376 -6.2008
v  4.2261 35.4493 -5.6102
v  4.7775 35.2376 -5.6102
v  -4.2264 35.4493 6.2008
v  -4.2264 35.4493 5.6102
v  -4.7778 35.2377 5.6102
v  -4.7778 35.2377 6.2008
v  4.7778 11.9926 5.6102
v  4.2264 11.7809 5.6102
v  4.7778 11.9926 6.2008
v  4.2264 11.7809 6.2008
v  -6.0669 224.6978 6.2008
v  -6.0669 224.6978 5.6103
v  -6.0669 224.1073 5.6103
v  -6.0669 224.1073 6.2008
v  6.0665 224.6978 5.6103
v  6.0665 224.1073 5.6103
v  6.0665 224.6978 6.2008
v  6.0665 224.1073 6.2008
v  -6.0669 224.6978 -5.6102
v  -6.0669 224.6978 -6.2008
v  -6.0669 224.1073 -6.2008
v  -6.0669 224.1073 -5.6102
v  6.0665 224.6978 -6.2008
v  6.0665 224.1073 -6.2008
v  6.0665 224.6978 -5.6102
v  6.0665 224.1073 -5.6102
v  5.6101 224.6977 -6.0667
v  6.2007 224.6977 -6.0667
v  6.2007 224.1072 -6.0667
v  5.6101 224.1072 -6.0667
v  6.2007 224.6977 6.0667
v  6.2007 224.1072 6.0667
v  5.6101 224.6977 6.0667
v  5.6101 224.1072 6.0667
v  -6.2008 224.6978 -6.0667
v  -5.6103 224.6978 -6.0667
v  -5.6103 224.1073 -6.0667
v  -6.2008 224.1073 -6.0667
v  -5.6103 224.6978 6.0667
v  -5.6103 224.1073 6.0667
v  -6.2008 224.6978 6.0667
v  -6.2008 224.1073 6.0667
v  -6.2007 201.0758 -6.0667
v  -5.6101 201.0759 -6.0667
v  -5.6101 200.4853 -6.0667
v  -6.2007 200.4853 -6.0667
v  -5.6101 201.0759 6.0667
v  -5.6101 200.4853 6.0667
v  -6.2007 201.0758 6.0667
v  -6.2007 200.4853 6.0667
v  5.6103 201.0757 -6.0667
v  6.2008 201.0757 -6.0667
v  6.2008 200.4852 -6.0667
v  5.6103 200.4852 -6.0667
v  6.2008 201.0757 6.0667
v  6.2008 200.4852 6.0667
v  5.6103 201.0757 6.0667
v  5.6103 200.4852 6.0667
v  -6.0668 201.0758 -5.6102
v  -6.0668 201.0758 -6.2008
v  -6.0668 200.4853 -6.2008
v  -6.0668 200.4853 -5.6102
v  6.0666 201.0758 -6.2008
v  6.0666 200.4852 -6.2008
v  6.0666 201.0758 -5.6102
v  6.0666 200.4852 -5.6102
v  -6.0668 201.0758 6.2008
v  -6.0668 201.0758 5.6103
v  -6.0668 200.4853 5.6103
v  -6.0668 200.4853 6.2008
v  6.0666 201.0758 5.6103
v  6.0666 200.4852 5.6103
v  6.0666 201.0758 6.2008
v  6.0666 200.4852 6.2008
v  -6.0669 177.4537 6.2008
v  -6.0669 177.4537 5.6103
v  -6.0669 176.8632 5.6103
v  -6.0669 176.8632 6.2008
v  6.0665 177.4537 5.6103
v  6.0665 176.8632 5.6103
v  6.0665 177.4537 6.2008
v  6.0665 176.8632 6.2008
v  -6.0669 177.4537 -5.6102
v  -6.0669 177.4537 -6.2008
v  -6.0669 176.8632 -6.2008
v  -6.0669 176.8632 -5.6102
v  6.0665 177.4537 -6.2008
v  6.0665 176.8632 -6.2008
v  6.0665 177.4537 -5.6102
v  6.0665 176.8632 -5.6102
v  5.6101 177.4536 -6.0667
v  6.2007 177.4536 -6.0667
v  6.2007 176.8631 -6.0667
v  5.6101 176.8631 -6.0667
v  6.2007 177.4536 6.0667
v  6.2007 176.8631 6.0667
v  5.6101 177.4536 6.0667
v  5.6101 176.8631 6.0667
v  -6.2008 177.4537 -6.0667
v  -5.6103 177.4537 -6.0667
v  -5.6103 176.8632 -6.0667
v  -6.2008 176.8632 -6.0667
v  -5.6103 177.4537 6.0667
v  -5.6103 176.8632 6.0667
v  -6.2008 177.4537 6.0667
v  -6.2008 176.8632 6.0667
v  -6.2007 153.8317 -6.0667
v  -5.6101 153.8317 -6.0667
v  -5.6101 153.2412 -6.0667
v  -6.2007 153.2412 -6.0667
v  -5.6101 153.8317 6.0667
v  -5.6101 153.2412 6.0667
v  -6.2007 153.8317 6.0667
v  -6.2007 153.2412 6.0667
v  5.6103 153.8316 -6.0667
v  6.2008 153.8316 -6.0667
v  6.2008 153.2411 -6.0667
v  5.6103 153.2411 -6.0667
v  6.2008 153.8316 6.0667
v  6.2008 153.2411 6.0667
v  5.6103 153.8316 6.0667
v  5.6103 153.2411 6.0667
v  -6.0668 153.8317 -5.6102
v  -6.0668 153.8317 -6.2008
v  -6.0668 153.2412 -6.2008
v  -6.0668 153.2412 -5.6102
v  6.0666 153.8317 -6.2008
v  6.0666 153.2412 -6.2008
v  6.0666 153.8317 -5.6102
v  6.0666 153.2412 -5.6102
v  -6.0668 153.8317 6.2008
v  -6.0668 153.8317 5.6103
v  -6.0668 153.2412 5.6103
v  -6.0668 153.2412 6.2008
v  6.0666 153.8317 5.6103
v  6.0666 153.2412 5.6103
v  6.0666 153.8317 6.2008
v  6.0666 153.2412 6.2008
v  -6.0669 130.2096 6.2008
v  -6.0669 130.2096 5.6103
v  -6.0669 129.6191 5.6103
v  -6.0669 129.6191 6.2008
v  6.0665 130.2096 5.6103
v  6.0665 129.6191 5.6103
v  6.0665 130.2096 6.2008
v  6.0665 129.6191 6.2008
v  -6.0669 130.2096 -5.6102
v  -6.0669 130.2096 -6.2008
v  -6.0669 129.6191 -6.2008
v  -6.0669 129.6191 -5.6102
v  6.0665 130.2096 -6.2008
v  6.0665 129.6191 -6.2008
v  6.0665 130.2096 -5.6102
v  6.0665 129.6191 -5.6102
v  5.6101 130.2095 -6.0667
v  6.2007 130.2095 -6.0667
v  6.2007 129.6190 -6.0667
v  5.6101 129.6190 -6.0667
v  6.2007 130.2095 6.0667
v  6.2007 129.6190 6.0667
v  5.6101 130.2095 6.0667
v  5.6101 129.6190 6.0667
v  -6.2008 130.2096 -6.0667
v  -5.6103 130.2096 -6.0667
v  -5.6103 129.6191 -6.0667
v  -6.2008 129.6191 -6.0667
v  -5.6103 130.2096 6.0667
v  -5.6103 129.6191 6.0667
v  -6.2008 130.2096 6.0667
v  -6.2008 129.6191 6.0667
v  -6.2007 106.5876 -6.0667
v  -5.6101 106.5876 -6.0667
v  -5.6101 105.9971 -6.0667
v  -6.2007 105.9971 -6.0667
v  -5.6101 106.5876 6.0667
v  -5.6101 105.9971 6.0667
v  -6.2007 106.5876 6.0667
v  -6.2007 105.9971 6.0667
v  5.6103 106.5875 -6.0667
v  6.2008 106.5875 -6.0667
v  6.2008 105.9970 -6.0667
v  5.6103 105.9970 -6.0667
v  6.2008 106.5875 6.0667
v  6.2008 105.9970 6.0667
v  5.6103 106.5875 6.0667
v  5.6103 105.9970 6.0667
v  -6.0668 106.5876 -5.6102
v  -6.0668 106.5876 -6.2008
v  -6.0668 105.9971 -6.2008
v  -6.0668 105.9971 -5.6102
v  6.0666 106.5876 -6.2008
v  6.0666 105.9971 -6.2008
v  6.0666 106.5876 -5.6102
v  6.0666 105.9971 -5.6102
v  -6.0668 106.5876 6.2008
v  -6.0668 106.5876 5.6102
v  -6.0668 105.9971 5.6102
v  -6.0668 105.9971 6.2008
v  6.0666 106.5876 5.6102
v  6.0666 105.9971 5.6102
v  6.0666 106.5876 6.2008
v  6.0666 105.9971 6.2008
v  -6.0669 82.9655 6.2008
v  -6.0669 82.9655 5.6102
v  -6.0669 82.3750 5.6102
v  -6.0669 82.3750 6.2008
v  6.0665 82.9655 5.6102
v  6.0665 82.3750 5.6102
v  6.0665 82.9655 6.2008
v  6.0665 82.3750 6.2008
v  -6.0669 82.9655 -5.6102
v  -6.0669 82.9655 -6.2008
v  -6.0669 82.3750 -6.2008
v  -6.0669 82.3750 -5.6102
v  6.0665 82.9655 -6.2008
v  6.0665 82.3750 -6.2008
v  6.0665 82.9655 -5.6102
v  6.0665 82.3750 -5.6102
v  5.6101 82.9654 -6.0667
v  6.2007 82.9654 -6.0667
v  6.2007 82.3749 -6.0667
v  5.6101 82.3749 -6.0667
v  6.2007 82.9654 6.0667
v  6.2007 82.3749 6.0667
v  5.6101 82.9654 6.0667
v  5.6101 82.3749 6.0667
v  -6.2008 82.9655 -6.0667
v  -5.6103 82.9655 -6.0667
v  -5.6103 82.3750 -6.0667
v  -6.2008 82.3750 -6.0667
v  -5.6103 82.9655 6.0667
v  -5.6103 82.3750 6.0667
v  -6.2008 82.9655 6.0667
v  -6.2008 82.3750 6.0667
v  -6.2007 59.3435 -6.0667
v  -5.6101 59.3435 -6.0667
v  -5.6101 58.7530 -6.0667
v  -6.2007 58.7530 -6.0667
v  -5.6101 59.3435 6.0667
v  -5.6101 58.7530 6.0667
v  -6.2007 59.3435 6.0667
v  -6.2007 58.7530 6.0667
v  5.6103 59.3434 -6.0667
v  6.2008 59.3434 -6.0667
v  6.2008 58.7529 -6.0667
v  5.6103 58.7529 -6.0667
v  6.2008 59.3434 6.0667
v  6.2008 58.7529 6.0667
v  5.6103 59.3434 6.0667
v  5.6103 58.7529 6.0667
v  -6.0668 59.3435 -5.6102
v  -6.0668 59.3435 -6.2008
v  -6.0668 58.7530 -6.2008
v  -6.0668 58.7530 -5.6102
v  6.0666 59.3435 -6.2008
v  6.0666 58.7530 -6.2008
v  6.0666 59.3435 -5.6102
v  6.0666 58.7530 -5.6102
v  -6.0668 59.3435 6.2008
v  -6.0668 59.3435 5.6102
v  -6.0668 58.7530 5.6102
v  -6.0668 58.7530 6.2008
v  6.0666 59.3435 5.6102
v  6.0666 58.7530 5.6102
v  6.0666 59.3435 6.2008
v  6.0666 58.7530 6.2008
v  -6.0669 35.7214 6.2008
v  -6.0669 35.7214 5.6102
v  -6.0669 35.1309 5.6102
v  -6.0669 35.1309 6.2008
v  6.0665 35.7214 5.6102
v  6.0665 35.1309 5.6102
v  6.0665 35.7214 6.2008
v  6.0665 35.1309 6.2008
v  -6.0669 35.7214 -5.6102
v  -6.0669 35.7214 -6.2008
v  -6.0669 35.1309 -6.2008
v  -6.0669 35.1309 -5.6102
v  6.0665 35.7214 -6.2008
v  6.0665 35.1309 -6.2008
v  6.0665 35.7214 -5.6102
v  6.0665 35.1309 -5.6102
v  5.6101 35.7213 -6.0667
v  6.2007 35.7213 -6.0667
v  6.2007 35.1308 -6.0667
v  5.6101 35.1308 -6.0667
v  6.2007 35.7213 6.0667
v  6.2007 35.1308 6.0667
v  5.6101 35.7213 6.0667
v  5.6101 35.1308 6.0667
v  -6.2008 35.7214 -6.0667
v  -5.6103 35.7214 -6.0667
v  -5.6103 35.1309 -6.0667
v  -6.2008 35.1309 -6.0667
v  -5.6103 35.7214 6.0667
v  -5.6103 35.1309 6.0667
v  -6.2008 35.7214 6.0667
v  -6.2008 35.1309 6.0667
v  -6.2007 12.0995 -6.0667
v  -5.6101 12.0995 -6.0667
v  -5.6101 11.5089 -6.0667
v  -6.2007 11.5089 -6.0667
v  -5.6101 12.0995 6.0667
v  -5.6101 11.5089 6.0667
v  -6.2007 12.0995 6.0667
v  -6.2007 11.5089 6.0667
v  5.6103 12.0993 -6.0667
v  6.2008 12.0993 -6.0667
v  6.2008 11.5088 -6.0667
v  5.6103 11.5088 -6.0667
v  6.2008 12.0993 6.0667
v  6.2008 11.5088 6.0667
v  5.6103 12.0993 6.0667
v  5.6103 11.5088 6.0667
v  -6.0668 12.0994 -5.6102
v  -6.0668 12.0994 -6.2008
v  -6.0668 11.5089 -6.2008
v  -6.0668 11.5089 -5.6102
v  6.0666 12.0994 -6.2008
v  6.0666 11.5089 -6.2008
v  6.0666 12.0994 -5.6102
v  6.0666 11.5089 -5.6102
v  -6.0668 12.0994 6.2008
v  -6.0668 12.0994 5.6102
v  -6.0668 11.5089 5.6102
v  -6.0668 11.5089 6.2008
v  6.0666 12.0994 5.6102
v  6.0666 11.5089 5.6102
v  6.0666 12.0994 6.2008
v  6.0666 11.5089 6.2008
v  6.7396 -0.0069 -7.3318
v  5.0714 -0.0069 -7.3318
v  5.0713 224.4023 -7.3317
v  6.7396 224.4023 -7.3317
v  4.4793 -0.0069 -6.7397
v  4.4792 224.4023 -6.7396
v  4.4792 -0.0069 -5.0714
v  4.4792 224.4023 -5.0713
v  5.0714 -0.0069 -4.4793
v  5.0713 224.4023 -4.4792
v  6.7396 -0.0069 -4.4793
v  6.7396 224.4023 -4.4792
v  7.3317 -0.0069 -5.0714
v  7.3317 224.4023 -5.0713
v  7.3317 -0.0069 -6.7397
v  7.3317 224.4023 -6.7396
v  -5.0713 -0.0068 -7.3318
v  -6.7396 -0.0068 -7.3318
v  -6.7396 224.4025 -7.3317
v  -5.0713 224.4025 -7.3317
v  -7.3317 -0.0068 -6.7397
v  -7.3317 224.4025 -6.7396
v  -7.3317 -0.0068 -5.0714
v  -7.3317 224.4025 -5.0713
v  -6.7396 -0.0068 -4.4793
v  -6.7396 224.4025 -4.4792
v  -5.0713 -0.0068 -4.4793
v  -5.0713 224.4025 -4.4792
v  -4.4792 -0.0068 -5.0714
v  -4.4792 224.4025 -5.0713
v  -4.4792 -0.0068 -6.7397
v  -4.4792 224.4025 -6.7396
v  6.7396 -0.0069 4.4793
v  5.0714 -0.0069 4.4793
v  5.0713 224.4023 4.4793
v  6.7396 224.4023 4.4793
v  4.4793 -0.0069 5.0714
v  4.4792 224.4023 5.0714
v  4.4792 -0.0069 6.7397
v  4.4792 224.4023 6.7397
v  5.0714 -0.0069 7.3318
v  5.0713 224.4023 7.3318
v  6.7396 -0.0069 7.3318
v  6.7396 224.4023 7.3318
v  7.3317 -0.0069 6.7397
v  7.3317 224.4023 6.7397
v  7.3317 -0.0069 5.0714
v  7.3317 224.4023 5.0714
v  -5.0713 -0.0068 4.4793
v  -6.7396 -0.0068 4.4793
v  -6.7396 224.4025 4.4793
v  -5.0713 224.4025 4.4793
v  -7.3317 -0.0068 5.0714
v  -7.3317 224.4025 5.0714
v  -7.3317 -0.0068 6.7397
v  -7.3317 224.4025 6.7397
v  -6.7396 -0.0068 7.3318
v  -6.7396 224.4025 7.3318
v  -5.0713 -0.0068 7.3318
v  -5.0713 224.4025 7.3318
v  -4.4792 -0.0068 6.7397
v  -4.4792 224.4025 6.7397
v  -4.4792 -0.0068 5.0714
v  -4.4792 224.4025 5.0714
# 808 vertices

vn 0.6607 0.0000 -0.7506
vn 0.7506 -0.0000 0.6607
vn -0.6607 -0.0000 0.7506
vn -0.7506 -0.0000 -0.6607
vn 0.0000 -1.0000 -0.0000
vn 0.0000 1.0000 0.0000
vn 0.6607 -0.0000 -0.7506
vn 0.7506 0.0000 0.6607
vn -0.6607 0.0000 0.7506
vn -0.7506 0.0000 -0.6607
vn 0.0000 1.0000 -0.0000
vn -0.6345 -0.0000 0.7729
vn -0.7729 -0.0000 -0.6345
vn 0.6345 0.0000 -0.7729
vn 0.7729 0.0000 0.6345
vn -0.0000 -1.0000 0.0000
vn -0.7729 0.0000 -0.6345
vn 0.7729 -0.0000 0.6345
vn 0.0000 0.0000 -1.0000
vn -0.7071 0.0000 -0.7071
vn -1.0000 0.0000 -0.0000
vn -0.7071 0.0000 0.7071
vn -0.0000 -0.0000 1.0000
vn 0.7071 -0.0000 0.7071
vn 1.0000 -0.0000 -0.0000
vn 0.7071 0.0000 -0.7071
vn -0.0000 1.0000 0.0000
vn -0.0000 1.0000 -0.0000
vn -0.0000 -1.0000 -0.0000
vn 0.0000 -1.0000 0.0000
vn -0.7071 -0.0000 -0.7071
vn -1.0000 -0.0000 -0.0000
vn -0.7071 -0.0000 0.7071
vn 1.0000 0.0000 -0.0000
vn 0.0000 -0.0000 -1.0000
vn 0.7071 0.0000 0.7071
vn -0.0000 0.0000 1.0000
vn 0.7071 -0.0000 -0.7071
vn -0.0000 0.0000 -1.0000
vn 1.0000 0.0000 0.0000
vn 0.0000 -0.0000 1.0000
vn 0.0000 0.0085 -1.0000
vn -0.7071 0.0095 -0.7071
vn -1.0000 0.0085 0.0000
vn -0.7071 0.0095 0.7071
vn -0.0000 0.0085 1.0000
vn 0.7071 0.0095 0.7071
vn 1.0000 0.0085 0.0000
vn 0.7071 0.0095 -0.7071
vn -0.0000 1.0000 -0.0001
vn 0.0000 -0.9336 -0.3584
vn 0.0000 0.9336 0.3584
vn -1.0000 -0.0000 0.0000
vn 0.0000 -0.3584 0.9336
vn 0.0000 0.3584 -0.9336
vn -0.0000 0.9336 -0.3584
vn -0.0000 -0.9336 0.3583
vn -1.0000 0.0000 0.0000
vn 0.0000 -0.3584 -0.9336
vn 0.0000 0.3584 0.9336
vn -0.3584 0.9336 0.0000
vn 0.3584 -0.9336 -0.0000
vn -0.9336 -0.3584 -0.0000
vn 0.9336 0.3584 0.0000
vn -0.3584 -0.9336 -0.0000
vn 0.3584 0.9336 0.0000
vn 0.9336 -0.3584 -0.0000
vn -0.9336 0.3584 0.0000
vn 0.0000 0.9336 -0.3584
vn -0.0000 -0.9336 0.3584
vn -0.0000 -0.3584 -0.9336
vn -0.0000 -0.9336 -0.3584
vn -0.0000 -0.3584 0.9336
vn 1.0000 -0.0000 0.0000
vn 0.0000 -0.9336 0.3584
vn -0.0000 0.3584 0.9336
vn -0.3583 -0.9336 -0.0000
vn 0.3583 0.9336 0.0000
vn -0.3584 -0.9336 0.0000
vn -0.9336 -0.3584 0.0000
vn 0.9336 0.3584 -0.0000
vn -0.0000 -0.0000 -1.0000
vn 0.0000 0.0000 1.0000
# 83 vertex normals

vt 0.9253 0.1417 0.0000
vt 0.9753 0.1417 0.0000
vt 0.9753 0.1917 0.0000
vt 0.9253 0.1917 0.0000
vt 0.9179 0.0285 0.0000
vt 0.9679 0.0285 0.0000
vt 0.9679 0.0785 0.0000
vt 0.9179 0.0785 0.0000
vt 0.7134 0.2528 0.0000
vt 0.7107 0.2528 0.0000
vt 0.7107 0.2541 0.0000
vt 0.7134 0.2541 0.0000
vt 0.7097 0.2528 0.0000
vt 0.7097 0.2541 0.0000
vt 0.7144 0.2528 0.0000
vt 0.7144 0.2541 0.0000
vt 0.7250 0.2528 0.0000
vt 0.7223 0.2528 0.0000
vt 0.7223 0.2541 0.0000
vt 0.7250 0.2541 0.0000
vt 0.7213 0.2528 0.0000
vt 0.7213 0.2541 0.0000
vt 0.7260 0.2528 0.0000
vt 0.7260 0.2541 0.0000
vt 0.7037 0.6865 0.0000
vt 0.7037 0.6847 0.0000
vt 0.7320 0.6865 0.0000
vt 0.7320 0.6847 0.0000
vt 0.7228 0.6382 0.0000
vt 0.7227 0.6382 0.0000
vt 0.7227 0.6483 0.0000
vt 0.7228 0.6483 0.0000
vt 0.7226 0.6382 0.0000
vt 0.7229 0.6382 0.0000
vt 0.7287 0.5943 0.0000
vt 0.7298 0.5943 0.0000
vt 0.7298 0.5939 0.0000
vt 0.7287 0.5939 0.0000
vt 0.7298 0.6396 0.0000
vt 0.7298 0.6391 0.0000
vt 0.7287 0.6396 0.0000
vt 0.7287 0.6391 0.0000
vt 0.7059 0.6396 0.0000
vt 0.7070 0.6396 0.0000
vt 0.7070 0.6391 0.0000
vt 0.7059 0.6391 0.0000
vt 0.7070 0.5943 0.0000
vt 0.7070 0.5939 0.0000
vt 0.7059 0.5943 0.0000
vt 0.7059 0.5939 0.0000
vt 0.7097 0.6396 0.0000
vt 0.7086 0.6391 0.0000
vt 0.7271 0.5943 0.0000
vt 0.7260 0.5939 0.0000
vt 0.7086 0.5943 0.0000
vt 0.7097 0.5939 0.0000
vt 0.7260 0.6396 0.0000
vt 0.7271 0.6391 0.0000
vt 0.7086 0.5031 0.0000
vt 0.7097 0.5027 0.0000
vt 0.7260 0.5484 0.0000
vt 0.7271 0.5480 0.0000
vt 0.7097 0.5484 0.0000
vt 0.7086 0.5480 0.0000
vt 0.7271 0.5031 0.0000
vt 0.7260 0.5027 0.0000
vt 0.7059 0.5484 0.0000
vt 0.7070 0.5484 0.0000
vt 0.7070 0.5480 0.0000
vt 0.7059 0.5480 0.0000
vt 0.7070 0.5031 0.0000
vt 0.7070 0.5027 0.0000
vt 0.7059 0.5031 0.0000
vt 0.7059 0.5027 0.0000
vt 0.7287 0.5031 0.0000
vt 0.7298 0.5031 0.0000
vt 0.7298 0.5027 0.0000
vt 0.7287 0.5027 0.0000
vt 0.7298 0.5484 0.0000
vt 0.7298 0.5480 0.0000
vt 0.7287 0.5484 0.0000
vt 0.7287 0.5480 0.0000
vt 0.7287 0.4120 0.0000
vt 0.7298 0.4120 0.0000
vt 0.7298 0.4116 0.0000
vt 0.7287 0.4116 0.0000
vt 0.7298 0.4573 0.0000
vt 0.7298 0.4568 0.0000
vt 0.7287 0.4573 0.0000
vt 0.7287 0.4568 0.0000
vt 0.7059 0.4573 0.0000
vt 0.7070 0.4573 0.0000
vt 0.7070 0.4568 0.0000
vt 0.7059 0.4568 0.0000
vt 0.7070 0.4120 0.0000
vt 0.7070 0.4116 0.0000
vt 0.7059 0.4120 0.0000
vt 0.7059 0.4116 0.0000
vt 0.7097 0.4573 0.0000
vt 0.7086 0.4568 0.0000
vt 0.7271 0.4120 0.0000
vt 0.7260 0.4116 0.0000
vt 0.7086 0.4120 0.0000
vt 0.7097 0.4116 0.0000
vt 0.7260 0.4573 0.0000
vt 0.7271 0.4568 0.0000
vt 0.7086 0.3209 0.0000
vt 0.7097 0.3204 0.0000
vt 0.7260 0.3661 0.0000
vt 0.7271 0.3657 0.0000
vt 0.7097 0.3661 0.0000
vt 0.7086 0.3657 0.0000
vt 0.7271 0.3209 0.0000
vt 0.7260 0.3204 0.0000
vt 0.7059 0.3661 0.0000
vt 0.7070 0.3661 0.0000
vt 0.7070 0.3657 0.0000
vt 0.7059 0.3657 0.0000
vt 0.7070 0.3209 0.0000
vt 0.7070 0.3204 0.0000
vt 0.7059 0.3209 0.0000
vt 0.7059 0.3204 0.0000
vt 0.7287 0.3209 0.0000
vt 0.7298 0.3209 0.0000
vt 0.7298 0.3204 0.0000
vt 0.7287 0.3204 0.0000
vt 0.7298 0.3661 0.0000
vt 0.7298 0.3657 0.0000
vt 0.7287 0.3661 0.0000
vt 0.7287 0.3657 0.0000
vt 0.7287 0.6851 0.0000
vt 0.7298 0.6851 0.0000
vt 0.7298 0.6847 0.0000
vt 0.7287 0.6847 0.0000
vt 0.7298 0.6399 0.0000
vt 0.7298 0.6395 0.0000
vt 0.7287 0.6399 0.0000
vt 0.7287 0.6395 0.0000
vt 0.7059 0.6399 0.0000
vt 0.7070 0.6399 0.0000
vt 0.7070 0.6395 0.0000
vt 0.7059 0.6395 0.0000
vt 0.7070 0.6851 0.0000
vt 0.7070 0.6847 0.0000
vt 0.7059 0.6851 0.0000
vt 0.7059 0.6847 0.0000
vt 0.7086 0.6399 0.0000
vt 0.7097 0.6395 0.0000
vt 0.7260 0.6851 0.0000
vt 0.7271 0.6847 0.0000
vt 0.7097 0.6851 0.0000
vt 0.7086 0.6847 0.0000
vt 0.7271 0.6399 0.0000
vt 0.7260 0.6395 0.0000
vt 0.7097 0.5940 0.0000
vt 0.7086 0.5936 0.0000
vt 0.7271 0.5487 0.0000
vt 0.7260 0.5483 0.0000
vt 0.7086 0.5487 0.0000
vt 0.7097 0.5483 0.0000
vt 0.7260 0.5940 0.0000
vt 0.7271 0.5936 0.0000
vt 0.7059 0.5487 0.0000
vt 0.7070 0.5487 0.0000
vt 0.7070 0.5483 0.0000
vt 0.7059 0.5483 0.0000
vt 0.7070 0.5940 0.0000
vt 0.7070 0.5936 0.0000
vt 0.7059 0.5940 0.0000
vt 0.7059 0.5936 0.0000
vt 0.7287 0.5940 0.0000
vt 0.7298 0.5940 0.0000
vt 0.7298 0.5936 0.0000
vt 0.7287 0.5936 0.0000
vt 0.7298 0.5487 0.0000
vt 0.7298 0.5483 0.0000
vt 0.7287 0.5487 0.0000
vt 0.7287 0.5483 0.0000
vt 0.7287 0.5028 0.0000
vt 0.7298 0.5028 0.0000
vt 0.7298 0.5024 0.0000
vt 0.7287 0.5024 0.0000
vt 0.7298 0.4576 0.0000
vt 0.7298 0.4572 0.0000
vt 0.7287 0.4576 0.0000
vt 0.7287 0.4572 0.0000
vt 0.7059 0.4576 0.0000
vt 0.7070 0.4576 0.0000
vt 0.7070 0.4572 0.0000
vt 0.7059 0.4572 0.0000
vt 0.7070 0.5028 0.0000
vt 0.7070 0.5024 0.0000
vt 0.7059 0.5028 0.0000
vt 0.7059 0.5024 0.0000
vt 0.7086 0.4576 0.0000
vt 0.7097 0.4572 0.0000
vt 0.7260 0.5028 0.0000
vt 0.7271 0.5024 0.0000
vt 0.7097 0.5028 0.0000
vt 0.7086 0.5024 0.0000
vt 0.7271 0.4576 0.0000
vt 0.7260 0.4572 0.0000
vt 0.7097 0.4117 0.0000
vt 0.7086 0.4113 0.0000
vt 0.7271 0.3664 0.0000
vt 0.7260 0.3660 0.0000
vt 0.7086 0.3664 0.0000
vt 0.7097 0.3660 0.0000
vt 0.7260 0.4117 0.0000
vt 0.7271 0.4113 0.0000
vt 0.7059 0.3664 0.0000
vt 0.7070 0.3664 0.0000
vt 0.7070 0.3660 0.0000
vt 0.7059 0.3660 0.0000
vt 0.7070 0.4117 0.0000
vt 0.7070 0.4113 0.0000
vt 0.7059 0.4117 0.0000
vt 0.7059 0.4113 0.0000
vt 0.7287 0.4117 0.0000
vt 0.7298 0.4117 0.0000
vt 0.7298 0.4113 0.0000
vt 0.7287 0.4113 0.0000
vt 0.7298 0.3664 0.0000
vt 0.7298 0.3660 0.0000
vt 0.7287 0.3664 0.0000
vt 0.7287 0.3660 0.0000
vt 0.7287 0.3205 0.0000
vt 0.7298 0.3205 0.0000
vt 0.7298 0.3201 0.0000
vt 0.7287 0.3201 0.0000
vt 0.7298 0.2753 0.0000
vt 0.7298 0.2749 0.0000
vt 0.7287 0.2753 0.0000
vt 0.7287 0.2749 0.0000
vt 0.7059 0.2753 0.0000
vt 0.7070 0.2753 0.0000
vt 0.7070 0.2749 0.0000
vt 0.7059 0.2749 0.0000
vt 0.7070 0.3205 0.0000
vt 0.7070 0.3201 0.0000
vt 0.7059 0.3205 0.0000
vt 0.7059 0.3201 0.0000
vt 0.7086 0.2753 0.0000
vt 0.7097 0.2749 0.0000
vt 0.7260 0.3205 0.0000
vt 0.7271 0.3201 0.0000
vt 0.7097 0.3205 0.0000
vt 0.7086 0.3201 0.0000
vt 0.7271 0.2753 0.0000
vt 0.7260 0.2749 0.0000
vt 0.7061 0.6857 0.0000
vt 0.7061 0.6845 0.0000
vt 0.7296 0.6857 0.0000
vt 0.7296 0.6845 0.0000
vt 0.7287 0.6857 0.0000
vt 0.7298 0.6857 0.0000
vt 0.7298 0.6845 0.0000
vt 0.7287 0.6845 0.0000
vt 0.7059 0.6857 0.0000
vt 0.7070 0.6857 0.0000
vt 0.7070 0.6845 0.0000
vt 0.7059 0.6845 0.0000
vt 0.7059 0.6401 0.0000
vt 0.7070 0.6401 0.0000
vt 0.7070 0.6389 0.0000
vt 0.7059 0.6389 0.0000
vt 0.7287 0.6401 0.0000
vt 0.7298 0.6401 0.0000
vt 0.7298 0.6389 0.0000
vt 0.7287 0.6389 0.0000
vt 0.7061 0.6401 0.0000
vt 0.7061 0.6389 0.0000
vt 0.7296 0.6401 0.0000
vt 0.7296 0.6389 0.0000
vt 0.7061 0.5945 0.0000
vt 0.7061 0.5934 0.0000
vt 0.7296 0.5945 0.0000
vt 0.7296 0.5934 0.0000
vt 0.7287 0.5945 0.0000
vt 0.7298 0.5945 0.0000
vt 0.7298 0.5934 0.0000
vt 0.7287 0.5934 0.0000
vt 0.7059 0.5945 0.0000
vt 0.7070 0.5945 0.0000
vt 0.7070 0.5934 0.0000
vt 0.7059 0.5934 0.0000
vt 0.7059 0.5489 0.0000
vt 0.7070 0.5489 0.0000
vt 0.7070 0.5478 0.0000
vt 0.7059 0.5478 0.0000
vt 0.7287 0.5489 0.0000
vt 0.7298 0.5489 0.0000
vt 0.7298 0.5478 0.0000
vt 0.7287 0.5478 0.0000
vt 0.7061 0.5489 0.0000
vt 0.7061 0.5478 0.0000
vt 0.7296 0.5489 0.0000
vt 0.7296 0.5478 0.0000
vt 0.7061 0.5034 0.0000
vt 0.7061 0.5022 0.0000
vt 0.7296 0.5034 0.0000
vt 0.7296 0.5022 0.0000
vt 0.7287 0.5034 0.0000
vt 0.7298 0.5034 0.0000
vt 0.7298 0.5022 0.0000
vt 0.7287 0.5022 0.0000
vt 0.7059 0.5034 0.0000
vt 0.7070 0.5034 0.0000
vt 0.7070 0.5022 0.0000
vt 0.7059 0.5022 0.0000
vt 0.7059 0.4578 0.0000
vt 0.7070 0.4578 0.0000
vt 0.7070 0.4566 0.0000
vt 0.7059 0.4566 0.0000
vt 0.7287 0.4578 0.0000
vt 0.7298 0.4578 0.0000
vt 0.7298 0.4566 0.0000
vt 0.7287 0.4566 0.0000
vt 0.7061 0.4578 0.0000
vt 0.7061 0.4566 0.0000
vt 0.7296 0.4578 0.0000
vt 0.7296 0.4566 0.0000
vt 0.7061 0.4122 0.0000
vt 0.7061 0.4111 0.0000
vt 0.7296 0.4122 0.0000
vt 0.7296 0.4111 0.0000
vt 0.7287 0.4122 0.0000
vt 0.7298 0.4122 0.0000
vt 0.7298 0.4111 0.0000
vt 0.7287 0.4111 0.0000
vt 0.7059 0.4122 0.0000
vt 0.7070 0.4122 0.0000
vt 0.7070 0.4111 0.0000
vt 0.7059 0.4111 0.0000
vt 0.7059 0.3666 0.0000
vt 0.7070 0.3666 0.0000
vt 0.7070 0.3655 0.0000
vt 0.7059 0.3655 0.0000
vt 0.7287 0.3666 0.0000
vt 0.7298 0.3666 0.0000
vt 0.7298 0.3655 0.0000
vt 0.7287 0.3655 0.0000
vt 0.7061 0.3666 0.0000
vt 0.7061 0.3655 0.0000
vt 0.7296 0.3666 0.0000
vt 0.7296 0.3655 0.0000
vt 0.7061 0.3211 0.0000
vt 0.7061 0.3199 0.0000
vt 0.7296 0.3211 0.0000
vt 0.7296 0.3199 0.0000
vt 0.7287 0.3211 0.0000
vt 0.7298 0.3211 0.0000
vt 0.7298 0.3199 0.0000
vt 0.7287 0.3199 0.0000
vt 0.7059 0.3211 0.0000
vt 0.7070 0.3211 0.0000
vt 0.7070 0.3199 0.0000
vt 0.7059 0.3199 0.0000
vt 0.7059 0.2755 0.0000
vt 0.7070 0.2755 0.0000
vt 0.7070 0.2743 0.0000
vt 0.7059 0.2743 0.0000
vt 0.7287 0.2755 0.0000
vt 0.7298 0.2755 0.0000
vt 0.7298 0.2743 0.0000
vt 0.7287 0.2743 0.0000
vt 0.7061 0.2755 0.0000
vt 0.7061 0.2743 0.0000
vt 0.7296 0.2755 0.0000
vt 0.7296 0.2743 0.0000
vt 0.7309 0.2521 0.0000
vt 0.7276 0.2521 0.0000
vt 0.7276 0.6851 0.0000
vt 0.7309 0.6851 0.0000
vt 0.7265 0.2521 0.0000
vt 0.7265 0.6851 0.0000
vt 0.7320 0.2521 0.0000
vt 0.7320 0.6851 0.0000
vt 0.7081 0.2521 0.0000
vt 0.7048 0.2521 0.0000
vt 0.7048 0.6851 0.0000
vt 0.7081 0.6851 0.0000
vt 0.7037 0.2521 0.0000
vt 0.7037 0.6851 0.0000
vt 0.7092 0.2521 0.0000
vt 0.7092 0.6851 0.0000
# 386 texture coords

g SPW_Urban_Props_Roof_Antenna
usemtl SPW_Urban_Props
s off
f 1/1/1 2/2/1 3/3/1 4/4/1 
f 2/1/2 5/2/2 6/3/2 3/4/2 
f 5/1/3 7/2/3 8/3/3 6/4/3 
f 7/1/4 1/2/4 4/3/4 8/4/4 
f 4/1/5 3/2/5 6/3/5 8/4/5 
f 7/1/6 5/2/6 2/3/6 1/4/6 
f 9/5/7 10/6/7 11/7/7 12/8/7 
f 10/5/8 13/6/8 14/7/8 11/8/8 
f 13/5/9 15/6/9 16/7/9 14/8/9 
f 15/5/10 9/6/10 12/7/10 16/8/10 
f 12/5/5 11/6/5 14/7/5 16/8/5 
f 15/5/11 13/6/11 10/7/11 9/8/11 
f 17/5/1 18/6/1 19/7/1 20/8/1 
f 18/5/2 21/6/2 22/7/2 19/8/2 
f 21/5/9 23/6/9 24/7/9 22/8/9 
f 23/5/4 17/6/4 20/7/4 24/8/4 
f 20/5/5 19/6/5 22/7/5 24/8/5 
f 23/5/6 21/6/6 18/7/6 17/8/6 
f 25/5/12 26/6/12 27/7/12 28/8/12 
f 26/5/13 29/6/13 30/7/13 27/8/13 
f 29/5/14 31/6/14 32/7/14 30/8/14 
f 31/5/15 25/6/15 28/7/15 32/8/15 
f 28/5/16 27/6/16 30/7/16 32/8/16 
f 31/5/6 29/6/6 26/7/6 25/8/6 
f 33/5/12 34/6/12 35/7/12 36/8/12 
f 34/5/17 37/6/17 38/7/17 35/8/17 
f 37/5/14 39/6/14 40/7/14 38/8/14 
f 39/5/15 33/6/15 36/7/15 40/8/15 
f 36/5/5 35/6/5 38/7/5 40/8/5 
f 39/5/6 37/6/6 34/7/6 33/8/6 
f 41/1/12 42/2/12 43/3/12 44/4/12 
f 42/1/17 45/2/17 46/3/17 43/4/17 
f 45/1/14 47/2/14 48/3/14 46/4/14 
f 47/1/18 41/2/18 44/3/18 48/4/18 
f 44/1/5 43/2/5 46/3/5 48/4/5 
f 47/1/6 45/2/6 42/3/6 41/4/6 
f 49/9/19 50/10/19 51/11/19 52/12/19 
f 50/10/20 53/13/20 54/14/20 51/11/20 
f 53/13/21 55/13/21 56/14/21 54/14/21 
f 55/13/22 57/10/22 58/11/22 56/14/22 
f 57/10/23 59/9/23 60/12/23 58/11/23 
f 59/9/24 61/15/24 62/16/24 60/12/24 
f 61/15/25 63/15/25 64/16/25 62/16/25 
f 63/15/26 49/9/26 52/12/26 64/16/26 
f 64/16/27 52/12/27 51/11/27 54/14/27 
f 64/16/6 54/14/6 56/14/6 58/11/6 
f 64/16/28 58/11/28 60/12/28 62/16/28 
f 49/9/29 63/15/29 61/15/29 59/9/29 
f 49/9/5 59/9/5 57/10/5 55/13/5 
f 49/9/30 55/13/30 53/13/30 50/10/30 
f 65/9/19 66/10/19 67/11/19 68/12/19 
f 66/10/31 69/13/31 70/14/31 67/11/31 
f 69/13/32 71/13/32 72/14/32 70/14/32 
f 71/13/33 73/10/33 74/11/33 72/14/33 
f 73/10/23 75/9/23 76/12/23 74/11/23 
f 75/9/24 77/15/24 78/16/24 76/12/24 
f 77/15/34 79/15/34 80/16/34 78/16/34 
f 79/15/26 65/9/26 68/12/26 80/16/26 
f 80/16/27 68/12/27 67/11/27 70/14/27 
f 80/16/6 70/14/6 72/14/6 74/11/6 
f 80/16/28 74/11/28 76/12/28 78/16/28 
f 65/9/29 79/15/29 77/15/29 75/9/29 
f 65/9/5 75/9/5 73/10/5 71/13/5 
f 65/9/30 71/13/30 69/13/30 66/10/30 
f 81/17/35 82/18/35 83/19/35 84/20/35 
f 82/18/31 85/21/31 86/22/31 83/19/31 
f 85/21/32 87/21/32 88/22/32 86/22/32 
f 87/21/33 89/18/33 90/19/33 88/22/33 
f 89/18/23 91/17/23 92/20/23 90/19/23 
f 91/17/36 93/23/36 94/24/36 92/20/36 
f 93/23/34 95/23/34 96/24/34 94/24/34 
f 95/23/26 81/17/26 84/20/26 96/24/26 
f 96/24/27 84/20/27 83/19/27 86/22/27 
f 96/24/6 86/22/6 88/22/6 90/19/6 
f 96/24/28 90/19/28 92/20/28 94/24/28 
f 81/17/16 95/23/16 93/23/16 91/17/16 
f 81/17/5 91/17/5 89/18/5 87/21/5 
f 81/17/30 87/21/30 85/21/30 82/18/30 
f 97/17/19 98/18/19 99/19/19 100/20/19 
f 98/18/20 101/21/20 102/22/20 99/19/20 
f 101/21/32 103/21/32 104/22/32 102/22/32 
f 103/21/33 105/18/33 106/19/33 104/22/33 
f 105/18/37 107/17/37 108/20/37 106/19/37 
f 107/17/24 109/23/24 110/24/24 108/20/24 
f 109/23/25 111/23/25 112/24/25 110/24/25 
f 111/23/38 97/17/38 100/20/38 112/24/38 
f 112/24/6 100/20/6 99/19/6 102/22/6 
f 112/24/6 102/22/6 104/22/6 106/19/6 
f 112/24/28 106/19/28 108/20/28 110/24/28 
f 97/17/16 111/23/16 109/23/16 107/17/16 
f 97/17/5 107/17/5 105/18/5 103/21/5 
f 97/17/30 103/21/30 101/21/30 98/18/30 
f 113/25/21 114/25/21 115/26/21 116/26/21 
f 114/25/39 117/27/39 118/28/39 115/26/39 
f 117/27/40 119/27/40 120/28/40 118/28/40 
f 119/27/41 113/25/41 116/26/41 120/28/41 
f 116/26/5 115/26/5 118/28/5 120/28/5 
f 119/27/27 117/27/27 114/25/27 113/25/27 
f 121/29/42 122/30/42 123/31/42 124/32/42 
f 122/30/43 125/33/43 126/31/43 123/31/43 
f 125/33/44 127/33/44 128/31/44 126/31/44 
f 127/33/45 129/30/45 130/31/45 128/31/45 
f 129/30/46 131/29/46 132/32/46 130/31/46 
f 131/29/47 133/34/47 134/32/47 132/32/47 
f 133/34/48 135/34/48 136/32/48 134/32/48 
f 135/34/49 121/29/49 124/32/49 136/32/49 
f 136/32/50 124/32/50 123/31/50 126/31/50 
f 136/32/27 126/31/27 128/31/27 130/31/27 
f 136/32/27 130/31/27 132/32/27 134/32/27 
f 121/29/5 135/34/5 133/34/5 131/29/5 
f 121/29/5 131/29/5 129/30/5 127/33/5 
f 121/29/5 127/33/5 125/33/5 122/30/5 
f 137/35/51 138/36/51 139/37/51 140/38/51 
f 138/36/34 141/39/34 142/40/34 139/37/34 
f 141/39/52 143/41/52 144/42/52 142/40/52 
f 143/41/53 137/35/53 140/38/53 144/42/53 
f 140/38/54 139/37/54 142/40/54 144/42/54 
f 143/41/55 141/39/55 138/36/55 137/35/55 
f 145/43/56 146/44/56 147/45/56 148/46/56 
f 146/44/25 149/47/25 150/48/25 147/45/25 
f 149/47/57 151/49/57 152/50/57 150/48/57 
f 151/49/58 145/43/58 148/46/58 152/50/58 
f 148/46/59 147/45/59 150/48/59 152/50/59 
f 151/49/60 149/47/60 146/44/60 145/43/60 
f 153/51/61 154/51/61 155/52/61 156/52/61 
f 154/51/19 157/53/19 158/54/19 155/52/19 
f 157/53/62 159/53/62 160/54/62 158/54/62 
f 159/53/41 153/51/41 156/52/41 160/54/41 
f 156/52/63 155/52/63 158/54/63 160/54/63 
f 159/53/64 157/53/64 154/51/64 153/51/64 
f 161/55/65 162/55/65 163/56/65 164/56/65 
f 162/55/39 165/57/39 166/58/39 163/56/39 
f 165/57/66 167/57/66 168/58/66 166/58/66 
f 167/57/41 161/55/41 164/56/41 168/58/41 
f 164/56/67 163/56/67 166/58/67 168/58/67 
f 167/57/68 165/57/68 162/55/68 161/55/68 
f 169/59/65 170/59/65 171/60/65 172/60/65 
f 170/59/39 173/61/39 174/62/39 171/60/39 
f 173/61/66 175/61/66 176/62/66 174/62/66 
f 175/61/41 169/59/41 172/60/41 176/62/41 
f 172/60/67 171/60/67 174/62/67 176/62/67 
f 175/61/68 173/61/68 170/59/68 169/59/68 
f 177/63/61 178/63/61 179/64/61 180/64/61 
f 178/63/39 181/65/39 182/66/39 179/64/39 
f 181/65/62 183/65/62 184/66/62 182/66/62 
f 183/65/41 177/63/41 180/64/41 184/66/41 
f 180/64/63 179/64/63 182/66/63 184/66/63 
f 183/65/64 181/65/64 178/63/64 177/63/64 
f 185/67/69 186/68/69 187/69/69 188/70/69 
f 186/68/25 189/71/25 190/72/25 187/69/25 
f 189/71/70 191/73/70 192/74/70 190/72/70 
f 191/73/32 185/67/32 188/70/32 192/74/32 
f 188/70/71 187/69/71 190/72/71 192/74/71 
f 191/73/60 189/71/60 186/68/60 185/67/60 
f 193/75/72 194/76/72 195/77/72 196/78/72 
f 194/76/25 197/79/25 198/80/25 195/77/25 
f 197/79/52 199/81/52 200/82/52 198/80/52 
f 199/81/53 193/75/53 196/78/53 200/82/53 
f 196/78/73 195/77/73 198/80/73 200/82/73 
f 199/81/55 197/79/55 194/76/55 193/75/55 
f 201/83/51 202/84/51 203/85/51 204/86/51 
f 202/84/74 205/87/74 206/88/74 203/85/74 
f 205/87/52 207/89/52 208/90/52 206/88/52 
f 207/89/21 201/83/21 204/86/21 208/90/21 
f 204/86/54 203/85/54 206/88/54 208/90/54 
f 207/89/55 205/87/55 202/84/55 201/83/55 
f 209/91/69 210/92/69 211/93/69 212/94/69 
f 210/92/40 213/95/40 214/96/40 211/93/40 
f 213/95/75 215/97/75 216/98/75 214/96/75 
f 215/97/32 209/91/32 212/94/32 216/98/32 
f 212/94/71 211/93/71 214/96/71 216/98/71 
f 215/97/60 213/95/60 210/92/60 209/91/60 
f 217/99/61 218/99/61 219/100/61 220/100/61 
f 218/99/19 221/101/19 222/102/19 219/100/19 
f 221/101/62 223/101/62 224/102/62 222/102/62 
f 223/101/41 217/99/41 220/100/41 224/102/41 
f 220/100/63 219/100/63 222/102/63 224/102/63 
f 223/101/64 221/101/64 218/99/64 217/99/64 
f 225/103/65 226/103/65 227/104/65 228/104/65 
f 226/103/39 229/105/39 230/106/39 227/104/39 
f 229/105/66 231/105/66 232/106/66 230/106/66 
f 231/105/41 225/103/41 228/104/41 232/106/41 
f 228/104/67 227/104/67 230/106/67 232/106/67 
f 231/105/68 229/105/68 226/103/68 225/103/68 
f 233/107/65 234/107/65 235/108/65 236/108/65 
f 234/107/39 237/109/39 238/110/39 235/108/39 
f 237/109/66 239/109/66 240/110/66 238/110/66 
f 239/109/41 233/107/41 236/108/41 240/110/41 
f 236/108/67 235/108/67 238/110/67 240/110/67 
f 239/109/68 237/109/68 234/107/68 233/107/68 
f 241/111/61 242/111/61 243/112/61 244/112/61 
f 242/111/39 245/113/39 246/114/39 243/112/39 
f 245/113/62 247/113/62 248/114/62 246/114/62 
f 247/113/41 241/111/41 244/112/41 248/114/41 
f 244/112/63 243/112/63 246/114/63 248/114/63 
f 247/113/64 245/113/64 242/111/64 241/111/64 
f 249/115/56 250/116/56 251/117/56 252/118/56 
f 250/116/40 253/119/40 254/120/40 251/117/40 
f 253/119/75 255/121/75 256/122/75 254/120/75 
f 255/121/32 249/115/32 252/118/32 256/122/32 
f 252/118/71 251/117/71 254/120/71 256/122/71 
f 255/121/76 253/119/76 250/116/76 249/115/76 
f 257/123/51 258/124/51 259/125/51 260/126/51 
f 258/124/74 261/127/74 262/128/74 259/125/74 
f 261/127/52 263/129/52 264/130/52 262/128/52 
f 263/129/53 257/123/53 260/126/53 264/130/53 
f 260/126/54 259/125/54 262/128/54 264/130/54 
f 263/129/55 261/127/55 258/124/55 257/123/55 
f 265/131/56 266/132/56 267/133/56 268/134/56 
f 266/132/25 269/135/25 270/136/25 267/133/25 
f 269/135/57 271/137/57 272/138/57 270/136/57 
f 271/137/58 265/131/58 268/134/58 272/138/58 
f 268/134/71 267/133/71 270/136/71 272/138/71 
f 271/137/76 269/135/76 266/132/76 265/131/76 
f 273/139/72 274/140/72 275/141/72 276/142/72 
f 274/140/34 277/143/34 278/144/34 275/141/34 
f 277/143/52 279/145/52 280/146/52 278/144/52 
f 279/145/32 273/139/32 276/142/32 280/146/32 
f 276/142/73 275/141/73 278/144/73 280/146/73 
f 279/145/55 277/143/55 274/140/55 273/139/55 
f 281/147/77 282/147/77 283/148/77 284/148/77 
f 282/147/39 285/149/39 286/150/39 283/148/39 
f 285/149/66 287/149/66 288/150/66 286/150/66 
f 287/149/41 281/147/41 284/148/41 288/150/41 
f 284/148/67 283/148/67 286/150/67 288/150/67 
f 287/149/68 285/149/68 282/147/68 281/147/68 
f 289/151/61 290/151/61 291/152/61 292/152/61 
f 290/151/19 293/153/19 294/154/19 291/152/19 
f 293/153/62 295/153/62 296/154/62 294/154/62 
f 295/153/41 289/151/41 292/152/41 296/154/41 
f 292/152/63 291/152/63 294/154/63 296/154/63 
f 295/153/64 293/153/64 290/151/64 289/151/64 
f 297/155/61 298/155/61 299/156/61 300/156/61 
f 298/155/19 301/157/19 302/158/19 299/156/19 
f 301/157/62 303/157/62 304/158/62 302/158/62 
f 303/157/23 297/155/23 300/156/23 304/158/23 
f 300/156/63 299/156/63 302/158/63 304/158/63 
f 303/157/64 301/157/64 298/155/64 297/155/64 
f 305/159/65 306/159/65 307/160/65 308/160/65 
f 306/159/39 309/161/39 310/162/39 307/160/39 
f 309/161/66 311/161/66 312/162/66 310/162/66 
f 311/161/41 305/159/41 308/160/41 312/162/41 
f 308/160/67 307/160/67 310/162/67 312/162/67 
f 311/161/68 309/161/68 306/159/68 305/159/68 
f 313/163/72 314/164/72 315/165/72 316/166/72 
f 314/164/74 317/167/74 318/168/74 315/165/74 
f 317/167/52 319/169/52 320/170/52 318/168/52 
f 319/169/21 313/163/21 316/166/21 320/170/21 
f 316/166/73 315/165/73 318/168/73 320/170/73 
f 319/169/55 317/167/55 314/164/55 313/163/55 
f 321/171/69 322/172/69 323/173/69 324/174/69 
f 322/172/25 325/175/25 326/176/25 323/173/25 
f 325/175/70 327/177/70 328/178/70 326/176/70 
f 327/177/21 321/171/21 324/174/21 328/178/21 
f 324/174/71 323/173/71 326/176/71 328/178/71 
f 327/177/60 325/175/60 322/172/60 321/171/60 
f 329/179/56 330/180/56 331/181/56 332/182/56 
f 330/180/40 333/183/40 334/184/40 331/181/40 
f 333/183/75 335/185/75 336/186/75 334/184/75 
f 335/185/53 329/179/53 332/182/53 336/186/53 
f 332/182/59 331/181/59 334/184/59 336/186/59 
f 335/185/76 333/183/76 330/180/76 329/179/76 
f 337/187/72 338/188/72 339/189/72 340/190/72 
f 338/188/34 341/191/34 342/192/34 339/189/34 
f 341/191/52 343/193/52 344/194/52 342/192/52 
f 343/193/21 337/187/21 340/190/21 344/194/21 
f 340/190/73 339/189/73 342/192/73 344/194/73 
f 343/193/55 341/191/55 338/188/55 337/187/55 
f 345/195/65 346/195/65 347/196/65 348/196/65 
f 346/195/39 349/197/39 350/198/39 347/196/39 
f 349/197/78 351/197/78 352/198/78 350/198/78 
f 351/197/41 345/195/41 348/196/41 352/198/41 
f 348/196/67 347/196/67 350/198/67 352/198/67 
f 351/197/68 349/197/68 346/195/68 345/195/68 
f 353/199/61 354/199/61 355/200/61 356/200/61 
f 354/199/19 357/201/19 358/202/19 355/200/19 
f 357/201/62 359/201/62 360/202/62 358/202/62 
f 359/201/41 353/199/41 356/200/41 360/202/41 
f 356/200/63 355/200/63 358/202/63 360/202/63 
f 359/201/64 357/201/64 354/199/64 353/199/64 
f 361/203/61 362/203/61 363/204/61 364/204/61 
f 362/203/19 365/205/19 366/206/19 363/204/19 
f 365/205/62 367/205/62 368/206/62 366/206/62 
f 367/205/41 361/203/41 364/204/41 368/206/41 
f 364/204/63 363/204/63 366/206/63 368/206/63 
f 367/205/64 365/205/64 362/203/64 361/203/64 
f 369/207/65 370/207/65 371/208/65 372/208/65 
f 370/207/39 373/209/39 374/210/39 371/208/39 
f 373/209/66 375/209/66 376/210/66 374/210/66 
f 375/209/41 369/207/41 372/208/41 376/210/41 
f 372/208/67 371/208/67 374/210/67 376/210/67 
f 375/209/68 373/209/68 370/207/68 369/207/68 
f 377/211/72 378/212/72 379/213/72 380/214/72 
f 378/212/74 381/215/74 382/216/74 379/213/74 
f 381/215/52 383/217/52 384/218/52 382/216/52 
f 383/217/53 377/211/53 380/214/53 384/218/53 
f 380/214/54 379/213/54 382/216/54 384/218/54 
f 383/217/55 381/215/55 378/212/55 377/211/55 
f 385/219/69 386/220/69 387/221/69 388/222/69 
f 386/220/40 389/223/40 390/224/40 387/221/40 
f 389/223/75 391/225/75 392/226/75 390/224/75 
f 391/225/32 385/219/32 388/222/32 392/226/32 
f 388/222/59 387/221/59 390/224/59 392/226/59 
f 391/225/60 389/223/60 386/220/60 385/219/60 
f 393/227/56 394/228/56 395/229/56 396/230/56 
f 394/228/40 397/231/40 398/232/40 395/229/40 
f 397/231/70 399/233/70 400/234/70 398/232/70 
f 399/233/58 393/227/58 396/230/58 400/234/58 
f 396/230/59 395/229/59 398/232/59 400/234/59 
f 399/233/60 397/231/60 394/228/60 393/227/60 
f 401/235/51 402/236/51 403/237/51 404/238/51 
f 402/236/25 405/239/25 406/240/25 403/237/25 
f 405/239/52 407/241/52 408/242/52 406/240/52 
f 407/241/53 401/235/53 404/238/53 408/242/53 
f 404/238/73 403/237/73 406/240/73 408/242/73 
f 407/241/55 405/239/55 402/236/55 401/235/55 
f 409/243/79 410/243/79 411/244/79 412/244/79 
f 410/243/39 413/245/39 414/246/39 411/244/39 
f 413/245/66 415/245/66 416/246/66 414/246/66 
f 415/245/41 409/243/41 412/244/41 416/246/41 
f 412/244/67 411/244/67 414/246/67 416/246/67 
f 415/245/68 413/245/68 410/243/68 409/243/68 
f 417/247/61 418/247/61 419/248/61 420/248/61 
f 418/247/19 421/249/19 422/250/19 419/248/19 
f 421/249/62 423/249/62 424/250/62 422/250/62 
f 423/249/41 417/247/41 420/248/41 424/250/41 
f 420/248/80 419/248/80 422/250/80 424/250/80 
f 423/249/81 421/249/81 418/247/81 417/247/81 
f 425/251/32 426/251/32 427/252/32 428/252/32 
f 426/251/82 429/253/82 430/254/82 427/252/82 
f 429/253/25 431/253/25 432/254/25 430/254/25 
f 431/253/83 425/251/83 428/252/83 432/254/83 
f 428/252/5 427/252/5 430/254/5 432/254/5 
f 431/253/6 429/253/6 426/251/6 425/251/6 
f 433/251/32 434/251/32 435/252/32 436/252/32 
f 434/251/82 437/253/82 438/254/82 435/252/82 
f 437/253/25 439/253/25 440/254/25 438/254/25 
f 439/253/83 433/251/83 436/252/83 440/254/83 
f 436/252/5 435/252/5 438/254/5 440/254/5 
f 439/253/6 437/253/6 434/251/6 433/251/6 
f 441/255/19 442/256/19 443/257/19 444/258/19 
f 442/256/34 445/256/34 446/257/34 443/257/34 
f 445/256/41 447/255/41 448/258/41 446/257/41 
f 447/255/32 441/255/32 444/258/32 448/258/32 
f 444/258/5 443/257/5 446/257/5 448/258/5 
f 447/255/27 445/256/27 442/256/27 441/255/27 
f 449/259/82 450/260/82 451/261/82 452/262/82 
f 450/260/34 453/260/34 454/261/34 451/261/34 
f 453/260/83 455/259/83 456/262/83 454/261/83 
f 455/259/32 449/259/32 452/262/32 456/262/32 
f 452/262/5 451/261/5 454/261/5 456/262/5 
f 455/259/6 453/260/6 450/260/6 449/259/6 
f 457/263/19 458/264/19 459/265/19 460/266/19 
f 458/264/34 461/264/34 462/265/34 459/265/34 
f 461/264/41 463/263/41 464/266/41 462/265/41 
f 463/263/21 457/263/21 460/266/21 464/266/21 
f 460/266/5 459/265/5 462/265/5 464/266/5 
f 463/263/27 461/264/27 458/264/27 457/263/27 
f 465/267/19 466/268/19 467/269/19 468/270/19 
f 466/268/34 469/268/34 470/269/34 467/269/34 
f 469/268/41 471/267/41 472/270/41 470/269/41 
f 471/267/32 465/267/32 468/270/32 472/270/32 
f 468/270/5 467/269/5 470/269/5 472/270/5 
f 471/267/27 469/268/27 466/268/27 465/267/27 
f 473/271/21 474/271/21 475/272/21 476/272/21 
f 474/271/39 477/273/39 478/274/39 475/272/39 
f 477/273/34 479/273/34 480/274/34 478/274/34 
f 479/273/41 473/271/41 476/272/41 480/274/41 
f 476/272/29 475/272/29 478/274/29 480/274/29 
f 479/273/6 477/273/6 474/271/6 473/271/6 
f 481/271/21 482/271/21 483/272/21 484/272/21 
f 482/271/19 485/273/19 486/274/19 483/272/19 
f 485/273/34 487/273/34 488/274/34 486/274/34 
f 487/273/23 481/271/23 484/272/23 488/274/23 
f 484/272/29 483/272/29 486/274/29 488/274/29 
f 487/273/6 485/273/6 482/271/6 481/271/6 
f 489/275/21 490/275/21 491/276/21 492/276/21 
f 490/275/39 493/277/39 494/278/39 491/276/39 
f 493/277/34 495/277/34 496/278/34 494/278/34 
f 495/277/41 489/275/41 492/276/41 496/278/41 
f 492/276/5 491/276/5 494/278/5 496/278/5 
f 495/277/6 493/277/6 490/275/6 489/275/6 
f 497/275/21 498/275/21 499/276/21 500/276/21 
f 498/275/39 501/277/39 502/278/39 499/276/39 
f 501/277/34 503/277/34 504/278/34 502/278/34 
f 503/277/41 497/275/41 500/276/41 504/278/41 
f 500/276/5 499/276/5 502/278/5 504/278/5 
f 503/277/6 501/277/6 498/275/6 497/275/6 
f 505/279/19 506/280/19 507/281/19 508/282/19 
f 506/280/34 509/280/34 510/281/34 507/281/34 
f 509/280/41 511/279/41 512/282/41 510/281/41 
f 511/279/32 505/279/32 508/282/32 512/282/32 
f 508/282/5 507/281/5 510/281/5 512/282/5 
f 511/279/6 509/280/6 506/280/6 505/279/6 
f 513/283/39 514/284/39 515/285/39 516/286/39 
f 514/284/34 517/284/34 518/285/34 515/285/34 
f 517/284/41 519/283/41 520/286/41 518/285/41 
f 519/283/32 513/283/32 516/286/32 520/286/32 
f 516/286/5 515/285/5 518/285/5 520/286/5 
f 519/283/6 517/284/6 514/284/6 513/283/6 
f 521/287/19 522/288/19 523/289/19 524/290/19 
f 522/288/34 525/288/34 526/289/34 523/289/34 
f 525/288/41 527/287/41 528/290/41 526/289/41 
f 527/287/32 521/287/32 524/290/32 528/290/32 
f 524/290/5 523/289/5 526/289/5 528/290/5 
f 527/287/6 525/288/6 522/288/6 521/287/6 
f 529/291/39 530/292/39 531/293/39 532/294/39 
f 530/292/34 533/292/34 534/293/34 531/293/34 
f 533/292/41 535/291/41 536/294/41 534/293/41 
f 535/291/32 529/291/32 532/294/32 536/294/32 
f 532/294/5 531/293/5 534/293/5 536/294/5 
f 535/291/6 533/292/6 530/292/6 529/291/6 
f 537/295/21 538/295/21 539/296/21 540/296/21 
f 538/295/39 541/297/39 542/298/39 539/296/39 
f 541/297/34 543/297/34 544/298/34 542/298/34 
f 543/297/41 537/295/41 540/296/41 544/298/41 
f 540/296/5 539/296/5 542/298/5 544/298/5 
f 543/297/6 541/297/6 538/295/6 537/295/6 
f 545/295/21 546/295/21 547/296/21 548/296/21 
f 546/295/19 549/297/19 550/298/19 547/296/19 
f 549/297/34 551/297/34 552/298/34 550/298/34 
f 551/297/23 545/295/23 548/296/23 552/298/23 
f 548/296/5 547/296/5 550/298/5 552/298/5 
f 551/297/6 549/297/6 546/295/6 545/295/6 
f 553/299/21 554/299/21 555/300/21 556/300/21 
f 554/299/19 557/301/19 558/302/19 555/300/19 
f 557/301/40 559/301/40 560/302/40 558/302/40 
f 559/301/23 553/299/23 556/300/23 560/302/23 
f 556/300/5 555/300/5 558/302/5 560/302/5 
f 559/301/27 557/301/27 554/299/27 553/299/27 
f 561/299/21 562/299/21 563/300/21 564/300/21 
f 562/299/39 565/301/39 566/302/39 563/300/39 
f 565/301/40 567/301/40 568/302/40 566/302/40 
f 567/301/41 561/299/41 564/300/41 568/302/41 
f 564/300/5 563/300/5 566/302/5 568/302/5 
f 567/301/27 565/301/27 562/299/27 561/299/27 
f 569/303/19 570/304/19 571/305/19 572/306/19 
f 570/304/34 573/304/34 574/305/34 571/305/34 
f 573/304/41 575/303/41 576/306/41 574/305/41 
f 575/303/21 569/303/21 572/306/21 576/306/21 
f 572/306/29 571/305/29 574/305/29 576/306/29 
f 575/303/27 573/304/27 570/304/27 569/303/27 
f 577/307/19 578/308/19 579/309/19 580/310/19 
f 578/308/34 581/308/34 582/309/34 579/309/34 
f 581/308/41 583/307/41 584/310/41 582/309/41 
f 583/307/32 577/307/32 580/310/32 584/310/32 
f 580/310/5 579/309/5 582/309/5 584/310/5 
f 583/307/6 581/308/6 578/308/6 577/307/6 
f 585/311/19 586/312/19 587/313/19 588/314/19 
f 586/312/40 589/312/40 590/313/40 587/313/40 
f 589/312/41 591/311/41 592/314/41 590/313/41 
f 591/311/58 585/311/58 588/314/58 592/314/58 
f 588/314/29 587/313/29 590/313/29 592/314/29 
f 591/311/6 589/312/6 586/312/6 585/311/6 
f 593/315/19 594/316/19 595/317/19 596/318/19 
f 594/316/34 597/316/34 598/317/34 595/317/34 
f 597/316/41 599/315/41 600/318/41 598/317/41 
f 599/315/21 593/315/21 596/318/21 600/318/21 
f 596/318/5 595/317/5 598/317/5 600/318/5 
f 599/315/6 597/316/6 594/316/6 593/315/6 
f 601/319/58 602/319/58 603/320/58 604/320/58 
f 602/319/39 605/321/39 606/322/39 603/320/39 
f 605/321/34 607/321/34 608/322/34 606/322/34 
f 607/321/41 601/319/41 604/320/41 608/322/41 
f 604/320/5 603/320/5 606/322/5 608/322/5 
f 607/321/27 605/321/27 602/319/27 601/319/27 
f 609/319/58 610/319/58 611/320/58 612/320/58 
f 610/319/39 613/321/39 614/322/39 611/320/39 
f 613/321/34 615/321/34 616/322/34 614/322/34 
f 615/321/41 609/319/41 612/320/41 616/322/41 
f 612/320/5 611/320/5 614/322/5 616/322/5 
f 615/321/27 613/321/27 610/319/27 609/319/27 
f 617/323/21 618/323/21 619/324/21 620/324/21 
f 618/323/19 621/325/19 622/326/19 619/324/19 
f 621/325/34 623/325/34 624/326/34 622/326/34 
f 623/325/23 617/323/23 620/324/23 624/326/23 
f 620/324/5 619/324/5 622/326/5 624/326/5 
f 623/325/6 621/325/6 618/323/6 617/323/6 
f 625/323/21 626/323/21 627/324/21 628/324/21 
f 626/323/39 629/325/39 630/326/39 627/324/39 
f 629/325/34 631/325/34 632/326/34 630/326/34 
f 631/325/41 625/323/41 628/324/41 632/326/41 
f 628/324/5 627/324/5 630/326/5 632/326/5 
f 631/325/6 629/325/6 626/323/6 625/323/6 
f 633/327/19 634/328/19 635/329/19 636/330/19 
f 634/328/25 637/328/25 638/329/25 635/329/25 
f 637/328/41 639/327/41 640/330/41 638/329/41 
f 639/327/21 633/327/21 636/330/21 640/330/21 
f 636/330/5 635/329/5 638/329/5 640/330/5 
f 639/327/6 637/328/6 634/328/6 633/327/6 
f 641/331/19 642/332/19 643/333/19 644/334/19 
f 642/332/34 645/332/34 646/333/34 643/333/34 
f 645/332/41 647/331/41 648/334/41 646/333/41 
f 647/331/58 641/331/58 644/334/58 648/334/58 
f 644/334/5 643/333/5 646/333/5 648/334/5 
f 647/331/6 645/332/6 642/332/6 641/331/6 
f 649/335/19 650/336/19 651/337/19 652/338/19 
f 650/336/34 653/336/34 654/337/34 651/337/34 
f 653/336/41 655/335/41 656/338/41 654/337/41 
f 655/335/58 649/335/58 652/338/58 656/338/58 
f 652/338/5 651/337/5 654/337/5 656/338/5 
f 655/335/6 653/336/6 650/336/6 649/335/6 
f 657/339/19 658/340/19 659/341/19 660/342/19 
f 658/340/34 661/340/34 662/341/34 659/341/34 
f 661/340/41 663/339/41 664/342/41 662/341/41 
f 663/339/58 657/339/58 660/342/58 664/342/58 
f 660/342/29 659/341/29 662/341/29 664/342/29 
f 663/339/11 661/340/11 658/340/11 657/339/11 
f 665/343/21 666/343/21 667/344/21 668/344/21 
f 666/343/39 669/345/39 670/346/39 667/344/39 
f 669/345/25 671/345/25 672/346/25 670/346/25 
f 671/345/41 665/343/41 668/344/41 672/346/41 
f 668/344/5 667/344/5 670/346/5 672/346/5 
f 671/345/6 669/345/6 666/343/6 665/343/6 
f 673/343/21 674/343/21 675/344/21 676/344/21 
f 674/343/19 677/345/19 678/346/19 675/344/19 
f 677/345/25 679/345/25 680/346/25 678/346/25 
f 679/345/23 673/343/23 676/344/23 680/346/23 
f 676/344/5 675/344/5 678/346/5 680/346/5 
f 679/345/6 677/345/6 674/343/6 673/343/6 
f 681/347/32 682/347/32 683/348/32 684/348/32 
f 682/347/39 685/349/39 686/350/39 683/348/39 
f 685/349/34 687/349/34 688/350/34 686/350/34 
f 687/349/41 681/347/41 684/348/41 688/350/41 
f 684/348/5 683/348/5 686/350/5 688/350/5 
f 687/349/6 685/349/6 682/347/6 681/347/6 
f 689/347/32 690/347/32 691/348/32 692/348/32 
f 690/347/39 693/349/39 694/350/39 691/348/39 
f 693/349/34 695/349/34 696/350/34 694/350/34 
f 695/349/41 689/347/41 692/348/41 696/350/41 
f 692/348/5 691/348/5 694/350/5 696/350/5 
f 695/349/6 693/349/6 690/347/6 689/347/6 
f 697/351/19 698/352/19 699/353/19 700/354/19 
f 698/352/34 701/352/34 702/353/34 699/353/34 
f 701/352/41 703/351/41 704/354/41 702/353/41 
f 703/351/21 697/351/21 700/354/21 704/354/21 
f 700/354/5 699/353/5 702/353/5 704/354/5 
f 703/351/27 701/352/27 698/352/27 697/351/27 
f 705/355/19 706/356/19 707/357/19 708/358/19 
f 706/356/34 709/356/34 710/357/34 707/357/34 
f 709/356/41 711/355/41 712/358/41 710/357/41 
f 711/355/58 705/355/58 708/358/58 712/358/58 
f 708/358/5 707/357/5 710/357/5 712/358/5 
f 711/355/6 709/356/6 706/356/6 705/355/6 
f 713/359/19 714/360/19 715/361/19 716/362/19 
f 714/360/34 717/360/34 718/361/34 715/361/34 
f 717/360/41 719/359/41 720/362/41 718/361/41 
f 719/359/53 713/359/53 716/362/53 720/362/53 
f 716/362/5 715/361/5 718/361/5 720/362/5 
f 719/359/6 717/360/6 714/360/6 713/359/6 
f 721/363/19 722/364/19 723/365/19 724/366/19 
f 722/364/25 725/364/25 726/365/25 723/365/25 
f 725/364/41 727/363/41 728/366/41 726/365/41 
f 727/363/53 721/363/53 724/366/53 728/366/53 
f 724/366/5 723/365/5 726/365/5 728/366/5 
f 727/363/6 725/364/6 722/364/6 721/363/6 
f 729/367/53 730/367/53 731/368/53 732/368/53 
f 730/367/39 733/369/39 734/370/39 731/368/39 
f 733/369/34 735/369/34 736/370/34 734/370/34 
f 735/369/41 729/367/41 732/368/41 736/370/41 
f 732/368/5 731/368/5 734/370/5 736/370/5 
f 735/369/6 733/369/6 730/367/6 729/367/6 
f 737/367/53 738/367/53 739/368/53 740/368/53 
f 738/367/19 741/369/19 742/370/19 739/368/19 
f 741/369/34 743/369/34 744/370/34 742/370/34 
f 743/369/41 737/367/41 740/368/41 744/370/41 
f 740/368/5 739/368/5 742/370/5 744/370/5 
f 743/369/6 741/369/6 738/367/6 737/367/6 
f 745/371/19 746/372/19 747/373/19 748/374/19 
f 746/372/20 749/375/20 750/376/20 747/373/20 
f 749/375/32 751/375/32 752/376/32 750/376/32 
f 751/375/33 753/372/33 754/373/33 752/376/33 
f 753/372/23 755/371/23 756/374/23 754/373/23 
f 755/371/24 757/377/24 758/378/24 756/374/24 
f 757/377/34 759/377/34 760/378/34 758/378/34 
f 759/377/26 745/371/26 748/374/26 760/378/26 
f 760/378/6 748/374/6 747/373/6 750/376/6 
f 760/378/6 750/376/6 752/376/6 754/373/6 
f 760/378/6 754/373/6 756/374/6 758/378/6 
f 745/371/5 759/377/5 757/377/5 755/371/5 
f 745/371/29 755/371/29 753/372/29 751/375/29 
f 745/371/16 751/375/16 749/375/16 746/372/16 
f 761/379/19 762/380/19 763/381/19 764/382/19 
f 762/380/20 765/383/20 766/384/20 763/381/20 
f 765/383/32 767/383/32 768/384/32 766/384/32 
f 767/383/33 769/380/33 770/381/33 768/384/33 
f 769/380/23 771/379/23 772/382/23 770/381/23 
f 771/379/24 773/385/24 774/386/24 772/382/24 
f 773/385/34 775/385/34 776/386/34 774/386/34 
f 775/385/26 761/379/26 764/382/26 776/386/26 
f 776/386/6 764/382/6 763/381/6 766/384/6 
f 776/386/28 766/384/28 768/384/28 770/381/28 
f 776/386/11 770/381/11 772/382/11 774/386/11 
f 761/379/29 775/385/29 773/385/29 771/379/29 
f 761/379/29 771/379/29 769/380/29 767/383/29 
f 761/379/16 767/383/16 765/383/16 762/380/16 
f 777/371/19 778/372/19 779/373/19 780/374/19 
f 778/372/20 781/375/20 782/376/20 779/373/20 
f 781/375/32 783/375/32 784/376/32 782/376/32 
f 783/375/33 785/372/33 786/373/33 784/376/33 
f 785/372/23 787/371/23 788/374/23 786/373/23 
f 787/371/24 789/377/24 790/378/24 788/374/24 
f 789/377/34 791/377/34 792/378/34 790/378/34 
f 791/377/26 777/371/26 780/374/26 792/378/26 
f 792/378/6 780/374/6 779/373/6 782/376/6 
f 792/378/6 782/376/6 784/376/6 786/373/6 
f 792/378/6 786/373/6 788/374/6 790/378/6 
f 777/371/5 791/377/5 789/377/5 787/371/5 
f 777/371/29 787/371/29 785/372/29 783/375/29 
f 777/371/16 783/375/16 781/375/16 778/372/16 
f 793/379/19 794/380/19 795/381/19 796/382/19 
f 794/380/20 797/383/20 798/384/20 795/381/20 
f 797/383/32 799/383/32 800/384/32 798/384/32 
f 799/383/33 801/380/33 802/381/33 800/384/33 
f 801/380/23 803/379/23 804/382/23 802/381/23 
f 803/379/24 805/385/24 806/386/24 804/382/24 
f 805/385/34 807/385/34 808/386/34 806/386/34 
f 807/385/26 793/379/26 796/382/26 808/386/26 
f 808/386/6 796/382/6 795/381/6 798/384/6 
f 808/386/28 798/384/28 800/384/28 802/381/28 
f 808/386/11 802/381/11 804/382/11 806/386/11 
f 793/379/29 807/385/29 805/385/29 803/379/29 
f 793/379/29 803/379/29 801/380/29 799/383/29 
f 793/379/16 799/383/16 797/383/16 794/380/16 
# 624 polygons

