# 3ds Max Wavefront OBJ Exporter v0.97b - (c)2007 guruware
# File Created: 15.03.2017 11:13:50

mtllib SPW_Urban_Props_Roof_01.mtl

#
# object SPW_Urban_Props_Roof_01
#

v  -81.4961 5.8827 13.7795
v  -81.4961 5.8827 -13.7795
v  -81.4961 -0.0228 -13.7795
v  -81.4961 -0.0229 13.7795
v  -56.2992 5.8827 -13.7795
v  -56.2992 -0.0228 -13.7795
v  -56.2992 5.8827 13.7795
v  -56.2992 -0.0229 13.7795
v  -44.8666 35.8912 11.4550
v  -44.8666 35.8912 -11.4550
v  -44.8666 14.8102 -11.4550
v  -44.8666 14.8102 11.4550
v  -42.8981 35.8912 -11.4550
v  -42.8981 14.8102 -11.4550
v  -42.8981 35.8912 11.4550
v  -42.8981 14.8102 11.4550
v  -15.3390 35.8912 11.4550
v  -15.3390 35.8912 -11.4550
v  -15.3390 14.8101 -11.4550
v  -15.3390 14.8101 11.4550
v  -13.3705 35.8912 -11.4550
v  -13.3705 14.8101 -11.4550
v  -13.3705 35.8912 11.4550
v  -13.3705 14.8101 11.4550
v  -70.0917 26.7618 10.8268
v  -70.0917 26.7618 -10.8268
v  -75.5219 19.2879 -10.8268
v  -75.5218 19.2879 10.8268
v  -78.3766 10.5018 10.8268
v  -58.9339 5.8826 10.8268
v  -78.3766 5.8826 10.8268
v  -58.9339 7.4224 10.8268
v  -57.9823 10.3511 10.8268
v  -56.1723 12.8423 10.8268
v  -53.6810 14.6524 10.8268
v  -50.7523 15.6040 10.8268
v  0.0023 15.6040 10.8268
v  0.0023 35.0467 10.8268
v  -53.8318 35.0467 10.8268
v  -62.6179 32.1919 10.8268
v  -62.6179 32.1919 -10.8268
v  -78.3766 5.8826 -10.8268
v  -53.8318 35.0467 -10.8268
v  0.0023 35.0467 -10.8268
v  -50.7523 15.6040 -10.8268
v  -0.0023 15.6040 -10.8268
v  -53.6810 14.6524 -10.8268
v  -58.9339 7.4224 -10.8268
v  -58.9339 5.8826 -10.8268
v  -57.9823 10.3511 -10.8268
v  -56.1723 12.8424 -10.8268
v  -78.3766 10.5018 -10.8268
v  70.0917 26.7618 -10.8268
v  70.0917 26.7618 10.8268
v  75.5219 19.2879 10.8268
v  75.5219 19.2879 -10.8268
v  62.6179 32.1919 -10.8268
v  62.6179 32.1919 10.8268
v  50.7523 15.6040 10.8268
v  50.7523 15.6040 -10.8268
v  78.3766 10.5018 10.8268
v  78.3766 10.5018 -10.8268
v  78.3766 5.8826 -10.8268
v  78.3766 5.8826 10.8268
v  58.9339 5.8826 -10.8268
v  58.9339 5.8826 10.8268
v  53.8318 35.0467 10.8268
v  53.6810 14.6524 10.8268
v  58.9339 7.4223 10.8268
v  57.9823 10.3511 10.8268
v  56.1723 12.8424 10.8268
v  53.8318 35.0467 -10.8268
v  56.1723 12.8424 -10.8268
v  57.9823 10.3511 -10.8268
v  53.6810 14.6524 -10.8268
v  58.9339 7.4224 -10.8268
v  56.2992 5.8826 13.7795
v  56.2992 5.8826 -13.7795
v  56.2992 -0.0229 -13.7795
v  56.2992 -0.0229 13.7795
v  81.4960 5.8826 -13.7795
v  81.4960 -0.0229 -13.7795
v  81.4960 5.8826 13.7795
v  81.4960 -0.0229 13.7795
v  14.1886 35.8912 11.4550
v  14.1886 35.8912 -11.4550
v  14.1886 14.8102 -11.4550
v  14.1886 14.8102 11.4550
v  16.1571 35.8912 -11.4550
v  16.1571 14.8102 -11.4550
v  16.1571 35.8912 11.4550
v  16.1571 14.8102 11.4550
v  43.7161 35.8912 11.4550
v  43.7161 35.8912 -11.4550
v  43.7161 14.8102 -11.4550
v  43.7161 14.8102 11.4550
v  45.6846 35.8912 -11.4550
v  45.6846 14.8102 -11.4550
v  45.6846 35.8912 11.4550
v  45.6846 14.8102 11.4550
# 100 vertices

vn -1.0000 0.0000 -0.0000
vn 0.0000 0.0000 -1.0000
vn 1.0000 0.0000 -0.0000
vn -0.0000 -0.0000 1.0000
vn -0.0000 -1.0000 -0.0000
vn 0.0000 1.0000 0.0000
vn 0.0000 -0.0000 1.0000
vn 0.0000 -1.0000 -0.0000
vn -0.0000 1.0000 0.0000
vn 1.0000 -0.0000 0.0000
vn -0.8090 0.5878 0.0000
vn 0.0000 0.0000 1.0000
vn -0.5878 0.8090 -0.0000
vn -0.0000 0.0000 -1.0000
vn 0.0000 -0.0000 -1.0000
vn -0.9511 0.3090 0.0000
vn -1.0000 -0.0000 0.0000
vn 0.0000 -1.0000 0.0000
vn 1.0000 -0.0001 -0.0001
vn -0.3090 0.9511 -0.0000
vn 0.8090 -0.5878 -0.0000
vn 0.5878 -0.8090 -0.0000
vn 0.9511 -0.3090 -0.0000
vn 0.3090 -0.9511 -0.0000
vn 0.8090 0.5878 -0.0000
vn 0.5878 0.8090 0.0000
vn 0.9511 0.3090 -0.0000
vn 1.0000 -0.0000 -0.0000
vn 0.3090 0.9511 0.0000
vn -0.8090 -0.5878 0.0000
vn -0.5878 -0.8090 -0.0000
vn -0.9511 -0.3090 0.0000
vn -0.3090 -0.9511 -0.0000
vn -0.0000 -0.0000 -1.0000
vn 1.0000 0.0000 0.0000
vn -1.0000 0.0000 0.0000
# 36 vertex normals

vt 0.6694 0.0222 0.0000
vt 0.7194 0.0222 0.0000
vt 0.7194 0.0722 0.0000
vt 0.6694 0.0722 0.0000
vt 0.9491 0.0602 0.0000
vt 0.9515 0.0594 0.0000
vt 0.9513 0.0598 0.0000
vt 0.9495 0.0604 0.0000
vt 0.9498 0.0606 0.0000
vt 0.9498 0.0613 0.0000
vt 0.9499 0.0607 0.0000
vt 0.9497 0.0614 0.0000
vt 0.9495 0.0615 0.0000
vt 0.9493 0.0618 0.0000
vt 0.9490 0.0620 0.0000
vt 0.9487 0.0624 0.0000
vt 0.9670 0.0536 0.0000
vt 0.9702 0.0669 0.0000
vt 0.9477 0.0596 0.0000
vt 0.9486 0.0599 0.0000
vt 0.9518 0.0587 0.0000
vt 0.9511 0.0602 0.0000
vt 0.9526 0.0575 0.0000
vt 0.9285 0.0669 0.0000
vt 0.9530 0.0610 0.0000
vt 0.9253 0.0494 0.0000
vt 0.9526 0.0609 0.0000
vt 0.9516 0.0607 0.0000
vt 0.9515 0.0607 0.0000
vt 0.9519 0.0608 0.0000
vt 0.9522 0.0609 0.0000
vt 0.9511 0.0601 0.0000
vt 0.9753 0.0650 0.0000
vt 0.9702 0.0650 0.0000
vt 0.9702 0.0494 0.0000
vt 0.9753 0.0494 0.0000
vt 0.9460 0.0394 0.0000
vt 0.9438 0.0401 0.0000
vt 0.9440 0.0397 0.0000
vt 0.9457 0.0392 0.0000
vt 0.9465 0.0397 0.0000
vt 0.9433 0.0408 0.0000
vt 0.9424 0.0385 0.0000
vt 0.9657 0.0494 0.0000
vt 0.9282 0.0451 0.0000
vt 0.9465 0.0373 0.0000
vt 0.9441 0.0394 0.0000
vt 0.9454 0.0390 0.0000
vt 0.9453 0.0389 0.0000
vt 0.9442 0.0393 0.0000
vt 0.9454 0.0383 0.0000
vt 0.9438 0.0388 0.0000
vt 0.9424 0.0419 0.0000
vt 0.9716 0.0321 0.0000
vt 0.9428 0.0386 0.0000
vt 0.9437 0.0388 0.0000
vt 0.9434 0.0388 0.0000
vt 0.9432 0.0387 0.0000
vt 0.9474 0.0400 0.0000
vt 0.9253 0.0321 0.0000
vt 0.9459 0.0378 0.0000
vt 0.9457 0.0381 0.0000
vt 0.9462 0.0376 0.0000
vt 0.9455 0.0382 0.0000
# 64 texture coords

g SPW_Urban_Props_Roof_01
usemtl SPW_Urban_Props
s off
f 1/1/1 2/2/1 3/3/1 4/4/1 
f 2/1/2 5/2/2 6/3/2 3/4/2 
f 5/1/3 7/2/3 8/3/3 6/4/3 
f 7/1/4 1/2/4 4/3/4 8/4/4 
f 4/1/5 3/2/5 6/3/5 8/4/5 
f 7/1/6 5/2/6 2/3/6 1/4/6 
f 9/1/1 10/2/1 11/3/1 12/4/1 
f 10/1/2 13/2/2 14/3/2 11/4/2 
f 13/1/3 15/2/3 16/3/3 14/4/3 
f 15/1/7 9/2/7 12/3/7 16/4/7 
f 12/1/8 11/2/8 14/3/8 16/4/8 
f 15/1/9 13/2/9 10/3/9 9/4/9 
f 17/1/1 18/2/1 19/3/1 20/4/1 
f 18/1/2 21/2/2 22/3/2 19/4/2 
f 21/1/10 23/2/10 24/3/10 22/4/10 
f 23/1/7 17/2/7 20/3/7 24/4/7 
f 20/1/8 19/2/8 22/3/8 24/4/8 
f 23/1/6 21/2/6 18/3/6 17/4/6 
f 25/5/11 26/6/11 27/7/11 28/8/11 
f 25/5/7 28/8/7 29/9/7 30/10/7 
f 29/9/7 31/11/7 30/10/7 
f 25/5/4 30/10/4 32/12/4 33/13/4 
f 25/5/7 33/13/7 34/14/7 35/15/7 
f 36/16/12 37/17/12 38/18/12 35/15/12 
f 25/5/7 35/15/7 38/18/7 39/19/7 
f 25/5/7 39/19/7 40/20/7 
f 40/20/13 41/21/13 26/6/13 25/5/13 
f 27/7/14 26/6/14 41/21/14 42/22/14 
f 41/21/14 43/23/14 44/24/14 45/25/14 
f 44/24/14 46/26/14 45/25/14 
f 41/21/2 45/25/2 47/27/2 42/22/2 
f 48/28/14 49/29/14 42/22/14 50/30/14 
f 51/31/15 50/30/15 42/22/15 47/27/15 
f 27/7/2 42/22/2 52/32/2 
f 28/8/16 27/7/16 52/32/16 29/9/16 
f 31/11/17 29/9/17 52/32/17 42/22/17 
f 30/10/18 31/11/18 42/22/18 49/29/18 
f 46/33/19 44/34/19 38/35/19 37/36/19 
f 44/24/9 43/23/9 39/19/9 38/18/9 
f 39/19/20 43/23/20 41/21/20 40/20/20 
f 34/14/21 33/13/21 50/30/21 51/31/21 
f 35/15/22 34/14/22 51/31/22 47/27/22 
f 33/13/23 32/12/23 48/28/23 50/30/23 
f 36/16/24 35/15/24 47/27/24 45/25/24 
f 32/12/10 30/10/10 49/29/10 48/28/10 
f 45/25/8 46/26/8 37/17/8 36/16/8 
f 53/37/25 54/38/25 55/39/25 56/40/25 
f 57/41/26 58/42/26 54/38/26 53/37/26 
f 59/43/5 37/44/5 46/45/5 60/46/5 
f 56/40/27 55/39/27 61/47/27 62/48/27 
f 63/49/28 62/48/28 61/47/28 64/50/28 
f 65/51/8 63/49/8 64/50/8 66/52/8 
f 55/39/7 54/38/7 58/42/7 64/50/7 
f 58/42/7 67/53/7 38/54/7 59/43/7 
f 38/54/7 37/44/7 59/43/7 
f 58/42/7 59/43/7 68/55/7 64/50/7 
f 69/56/12 66/52/12 64/50/12 70/57/12 
f 71/58/4 70/57/4 64/50/4 68/55/4 
f 55/39/7 64/50/7 61/47/7 
f 38/54/6 67/53/6 72/59/6 44/60/6 
f 72/59/29 67/53/29 58/42/29 57/41/29 
f 73/61/30 74/62/30 70/57/30 71/58/30 
f 75/63/31 73/61/31 71/58/31 68/55/31 
f 74/62/32 76/64/32 69/56/32 70/57/32 
f 60/46/33 75/63/33 68/55/33 59/43/33 
f 76/64/17 65/51/17 66/52/17 69/56/17 
f 53/37/14 56/40/14 62/48/14 65/51/14 
f 62/48/14 63/49/14 65/51/14 
f 53/37/14 65/51/14 76/64/14 74/62/14 
f 53/37/14 74/62/14 73/61/14 75/63/14 
f 60/46/14 46/45/14 44/60/14 75/63/14 
f 53/37/34 75/63/34 44/60/34 72/59/34 
f 53/37/14 72/59/14 57/41/14 
f 77/1/1 78/2/1 79/3/1 80/4/1 
f 78/1/2 81/2/2 82/3/2 79/4/2 
f 81/1/35 83/2/35 84/3/35 82/4/35 
f 83/1/4 77/2/4 80/3/4 84/4/4 
f 80/1/5 79/2/5 82/3/5 84/4/5 
f 83/1/6 81/2/6 78/3/6 77/4/6 
f 85/1/36 86/2/36 87/3/36 88/4/36 
f 86/1/2 89/2/2 90/3/2 87/4/2 
f 89/1/28 91/2/28 92/3/28 90/4/28 
f 91/1/7 85/2/7 88/3/7 92/4/7 
f 88/1/8 87/2/8 90/3/8 92/4/8 
f 91/1/6 89/2/6 86/3/6 85/4/6 
f 93/1/1 94/2/1 95/3/1 96/4/1 
f 94/1/2 97/2/2 98/3/2 95/4/2 
f 97/1/10 99/2/10 100/3/10 98/4/10 
f 99/1/7 93/2/7 96/3/7 100/4/7 
f 96/1/8 95/2/8 98/3/8 100/4/8 
f 99/1/6 97/2/6 94/3/6 93/4/6 
# 83 polygons - 8 triangles

