# 3ds Max Wavefront OBJ Exporter v0.97b - (c)2007 guruware
# File Created: 15.03.2017 11:14:22

mtllib SPW_Urban_Props_Roof_04.mtl

#
# object SPW_Urban_Props_Roof_04
#

v  -69.4488 8.8583 30.4724
v  -69.4488 14.1732 -30.4724
v  -69.4488 3.5433 -30.4724
v  -69.4488 3.5433 30.4724
v  69.4489 14.1732 -30.4724
v  69.4489 3.5433 -30.4724
v  69.4489 8.8583 30.4724
v  69.4489 3.5433 30.4724
v  63.3690 9.3197 25.1808
v  63.3690 13.7118 -25.1808
v  -63.3689 13.7118 -25.1808
v  -63.3689 9.3197 25.1808
v  -70.8661 3.5433 31.8898
v  -70.8661 3.5433 -31.8898
v  -70.8661 0.0000 -31.8898
v  -70.8661 -0.0000 31.8898
v  70.8661 3.5433 -31.8898
v  70.8661 0.0000 -31.8898
v  70.8661 3.5433 31.8898
v  70.8661 -0.0000 31.8898
# 20 vertices

vn -1.0000 0.0000 -0.0000
vn 0.0000 0.0000 -1.0000
vn 1.0000 0.0000 -0.0000
vn 0.0000 -0.0000 1.0000
vn 0.0000 -1.0000 -0.0000
vn 0.0000 0.9962 0.0869
vn -0.0000 0.9962 0.0869
vn 0.0000 1.0000 0.0000
# 8 vertex normals

vt 0.9216 0.0387 0.0000
vt 0.9216 0.0521 0.0000
vt 0.9522 0.0521 0.0000
vt 0.9522 0.0387 0.0000
vt 0.9930 0.4524 0.0000
vt 0.9930 0.5390 0.0000
vt 0.7749 0.5390 0.0000
vt 0.7749 0.4524 0.0000
vt 0.9230 0.0399 0.0000
vt 0.9230 0.0510 0.0000
vt 0.9509 0.0510 0.0000
vt 0.9509 0.0399 0.0000
vt 0.0000 0.0000 0.0000
# 13 texture coords

g SPW_Urban_Props_Roof_04
usemtl SPW_Urban_Props
s off
f 1/1/1 2/2/1 3/2/1 4/1/1 
f 2/2/2 5/3/2 6/3/2 3/2/2 
f 5/3/3 7/4/3 8/4/3 6/3/3 
f 7/4/4 1/1/4 4/1/4 8/4/4 
f 4/1/5 3/2/5 6/3/5 8/4/5 
s 1
f 9/5/6 10/6/6 11/7/7 12/8/7 
f 12/9/7 11/10/7 2/2/7 1/1/7 
f 11/10/7 10/11/6 5/3/6 2/2/7 
f 10/11/6 9/12/6 7/4/6 5/3/6 
f 9/12/6 12/9/7 1/1/7 7/4/6 
s off
f 13/13/1 14/13/1 15/13/1 16/13/1 
f 14/13/2 17/13/2 18/13/2 15/13/2 
f 17/13/3 19/13/3 20/13/3 18/13/3 
f 19/13/4 13/13/4 16/13/4 20/13/4 
f 16/13/5 15/13/5 18/13/5 20/13/5 
f 19/13/8 17/13/8 14/13/8 13/13/8 
# 16 polygons

