# 3ds Max Wavefront OBJ Exporter v0.97b - (c)2007 guruware
# File Created: 15.03.2017 11:14:11

mtllib SPW_Urban_Props_Roof_03.mtl

#
# object SPW_Urban_Props_Roof_03
#

v  -19.6850 45.2743 19.6850
v  -19.6850 45.2743 -19.6850
v  -19.6850 5.9042 -19.6850
v  -19.6850 5.9042 19.6850
v  19.6850 45.2743 19.6850
v  -14.7638 40.3530 19.6850
v  14.7638 40.3530 19.6850
v  19.6850 45.2743 -19.6850
v  19.6850 5.9042 19.6850
v  19.6850 5.9042 -19.6850
v  14.7638 10.8255 19.6850
v  -14.7638 10.8255 19.6850
v  -22.6378 5.9042 22.6378
v  -22.6378 5.9042 -22.6378
v  -22.6378 -0.0013 -22.6378
v  -22.6378 -0.0013 22.6378
v  22.6378 5.9042 -22.6378
v  22.6378 -0.0013 -22.6378
v  22.6378 5.9042 22.6378
v  22.6378 -0.0013 22.6378
v  45.5464 26.7834 -10.8268
v  45.5464 26.7833 10.8268
v  50.9765 19.3094 10.8268
v  50.9765 19.3094 -10.8268
v  53.8313 10.5233 -10.8268
v  34.3886 5.9042 -10.8268
v  53.8313 5.9042 -10.8268
v  34.3886 7.4439 -10.8268
v  33.4370 10.3726 -10.8268
v  31.6270 12.8639 -10.8268
v  12.8563 35.0682 -10.8268
v  26.2070 15.6256 -10.8268
v  12.8563 15.6256 -10.8268
v  29.1357 14.6740 -10.8268
v  29.2865 35.0682 -10.8268
v  38.0726 32.2134 -10.8268
v  38.0726 32.2134 10.8268
v  53.8313 5.9042 10.8268
v  29.2865 35.0682 10.8268
v  12.8563 35.0682 10.8268
v  26.2070 15.6255 10.8268
v  12.8563 15.6256 10.8268
v  29.1357 14.6740 10.8268
v  34.3886 7.4439 10.8268
v  34.3886 5.9042 10.8268
v  33.4370 10.3726 10.8268
v  31.6270 12.8639 10.8268
v  53.8313 10.5233 10.8268
v  31.6929 5.9042 13.7795
v  31.6929 5.9042 -13.7795
v  31.6929 -0.0013 -13.7795
v  31.6929 -0.0013 13.7795
v  56.8898 5.9042 -13.7795
v  56.8898 -0.0013 -13.7795
v  56.8898 5.9042 13.7795
v  56.8898 -0.0013 13.7795
v  -14.7638 40.3530 -19.6850
v  14.7638 40.3530 -19.6850
v  14.7638 10.8255 -19.6850
v  -14.7638 10.8255 -19.6850
# 60 vertices

vn -1.0000 0.0000 -0.0000
vn -0.0000 -0.0000 1.0000
vn 0.0000 -0.0000 1.0000
vn 1.0000 0.0000 -0.0000
vn 0.0000 -1.0000 -0.0000
vn 0.0000 1.0000 0.0000
vn 0.0000 0.0000 -1.0000
vn 0.8090 0.5878 -0.0000
vn -0.0000 0.0000 -1.0000
vn -0.0000 -0.0000 -1.0000
vn 0.5878 0.8090 0.0000
vn 0.0000 0.0000 1.0000
vn 0.9511 0.3090 -0.0000
vn -1.0000 -0.0000 -0.0000
vn 0.3090 0.9511 0.0000
vn -0.8090 -0.5878 0.0000
vn -0.5878 -0.8090 0.0000
vn -0.9511 -0.3090 0.0000
vn -0.3090 -0.9511 -0.0000
vn -1.0000 -0.0000 0.0000
vn -0.0000 -1.0000 -0.0000
# 21 vertex normals

vt 0.9149 0.0340 0.0000
vt 0.9709 0.0340 0.0000
vt 0.9709 0.0900 0.0000
vt 0.9149 0.0900 0.0000
vt 0.9543 0.2920 0.0000
vt 0.9543 0.4085 0.0000
vt 0.8378 0.4085 0.0000
vt 0.8378 0.2920 0.0000
vt 0.6836 0.0241 0.0000
vt 0.7396 0.0241 0.0000
vt 0.7396 0.0801 0.0000
vt 0.6836 0.0801 0.0000
vt 0.9429 0.0900 0.0000
vt 0.9551 0.0872 0.0000
vt 0.9648 0.0794 0.0000
vt 0.9702 0.0558 0.0000
vt 0.9702 0.0682 0.0000
vt 0.9648 0.0445 0.0000
vt 0.9551 0.0368 0.0000
vt 0.9429 0.0340 0.0000
vt 0.9156 0.0682 0.0000
vt 0.9210 0.0445 0.0000
vt 0.9156 0.0558 0.0000
vt 0.9308 0.0368 0.0000
vt 0.9210 0.0794 0.0000
vt 0.9308 0.0872 0.0000
vt 0.8458 0.5388 0.0000
vt 0.9327 0.5388 0.0000
vt 0.9327 0.4520 0.0000
vt 0.8458 0.4520 0.0000
# 30 texture coords

g SPW_Urban_Props_Roof_03
usemtl SPW_Urban_Props
s off
f 1/1/1 2/2/1 3/3/1 4/4/1 
s 1
f 5/1/2 1/4/3 6/4/3 7/1/2 
s off
f 8/1/4 5/2/4 9/3/4 10/4/4 
s 1
f 4/1/2 9/4/3 11/4/3 12/1/2 
s off
f 4/1/5 3/2/5 10/3/5 9/4/5 
f 5/5/6 8/6/6 2/7/6 1/8/6 
f 13/9/1 14/10/1 15/11/1 16/12/1 
f 14/9/7 17/10/7 18/11/7 15/12/7 
f 17/9/4 19/10/4 20/11/4 18/12/4 
f 19/9/3 13/10/3 16/11/3 20/12/3 
f 16/9/5 15/10/5 18/11/5 20/12/5 
f 19/9/6 17/10/6 14/11/6 13/12/6 
f 21/1/8 22/2/8 23/3/8 24/4/8 
f 21/13/9 24/14/9 25/15/9 26/16/9 
f 25/15/9 27/17/9 26/16/9 
f 21/13/9 26/16/9 28/18/9 29/19/9 
f 21/13/9 29/19/9 30/20/9 31/21/9 
f 32/22/7 33/23/7 31/21/7 34/24/7 
f 30/20/7 34/24/7 31/21/7 
f 21/13/10 31/21/10 35/25/10 36/26/10 
f 36/1/11 37/2/11 22/3/11 21/4/11 
f 23/13/3 22/14/3 37/15/3 38/25/3 
f 37/15/3 39/17/3 40/16/3 41/19/3 
f 40/16/3 42/18/3 41/19/3 
f 37/15/3 41/19/3 43/20/3 38/25/3 
f 44/23/12 45/21/12 38/25/12 46/22/12 
f 47/24/12 46/22/12 38/25/12 43/20/12 
f 23/13/2 38/25/2 48/26/2 
f 24/1/13 23/2/13 48/3/13 25/4/13 
f 27/1/4 25/2/4 48/3/4 38/4/4 
f 26/1/5 27/2/5 38/3/5 45/4/5 
f 42/1/14 40/2/14 31/3/14 33/4/14 
f 40/1/6 39/2/6 35/3/6 31/4/6 
f 35/1/15 39/2/15 37/3/15 36/4/15 
f 30/1/16 29/2/16 46/3/16 47/4/16 
f 34/1/17 30/2/17 47/3/17 43/4/17 
f 29/1/18 28/2/18 44/3/18 46/4/18 
f 32/1/19 34/2/19 43/3/19 41/4/19 
f 28/1/20 26/2/20 45/3/20 44/4/20 
f 41/1/21 42/2/21 33/3/21 32/4/21 
f 49/9/1 50/10/1 51/11/1 52/12/1 
f 50/9/7 53/10/7 54/11/7 51/12/7 
f 53/9/4 55/10/4 56/11/4 54/12/4 
f 55/9/3 49/10/3 52/11/3 56/12/3 
f 52/9/5 51/10/5 54/11/5 56/12/5 
f 55/9/6 53/10/6 50/11/6 49/12/6 
s 1
f 57/27/9 58/28/7 59/29/9 60/30/7 
f 7/28/2 6/27/3 12/30/2 11/29/3 
f 9/3/3 5/2/2 7/2/2 11/3/3 
f 10/3/9 3/2/7 60/2/7 59/3/9 
f 8/1/7 10/4/9 59/4/9 58/1/7 
f 2/3/9 8/2/7 58/2/7 57/3/9 
f 3/3/7 2/2/9 57/2/9 60/3/7 
f 1/1/3 4/4/2 12/4/2 6/1/3 
# 50 polygons - 4 triangles

