# 3ds Max Wavefront OBJ Exporter v0.97b - (c)2007 guruware
# File Created: 15.03.2017 10:37:34

mtllib SPW_Urban_Airport_Hangar.mtl

#
# object SPW_Urban_Airport_Hangar
#

v  0.0001 216.8185 -342.5197
v  0.0001 216.8185 -354.3307
v  -61.1383 212.3915 -354.3307
v  -61.1383 212.3915 -342.5197
v  -0.0001 216.8185 354.3307
v  -61.1384 212.3916 354.3307
v  -118.1103 199.4124 354.3307
v  -167.0331 178.7655 354.3306
v  -204.5730 151.8579 354.3307
v  -228.1715 120.5233 354.3307
v  -236.2205 86.8972 354.3307
v  236.2204 86.8972 354.3307
v  228.1714 120.5233 354.3307
v  204.5729 151.8578 354.3307
v  167.0331 178.7654 354.3307
v  118.1103 199.4123 354.3307
v  61.1385 212.3915 354.3307
v  61.1386 212.3915 -342.5197
v  61.1386 212.3915 -354.3307
v  167.0333 178.7654 -354.3307
v  118.1104 199.4123 -354.3307
v  204.5731 151.8577 -354.3307
v  228.1715 120.5232 -354.3307
v  199.6501 112.1167 -354.3307
v  236.2205 86.8971 -354.3307
v  206.6930 86.8971 -354.3307
v  179.0015 135.6176 -354.3307
v  170.1902 141.0310 -354.3307
v  -199.6500 112.1167 -354.3308
v  -206.6928 86.8972 -354.3308
v  -236.2204 86.8972 -354.3308
v  -179.0013 135.6176 -354.3308
v  -228.1714 120.5233 -354.3308
v  -204.5729 151.8578 -354.3308
v  -170.1901 141.0310 -354.3308
v  -167.0330 178.7654 -354.3308
v  -118.1102 199.4123 -354.3307
v  -118.1102 199.4123 -342.5197
v  -167.0330 178.7654 -342.5198
v  -204.5729 151.8578 -342.5197
v  -228.1714 120.5233 -342.5197
v  -236.2204 86.8972 -342.5197
v  236.2204 21.9365 354.3307
v  -236.2205 21.9366 354.3307
v  -236.2205 0.2831 354.3307
v  236.2204 0.2830 354.3307
v  236.2205 86.8971 -342.5196
v  228.1715 120.5232 -342.5196
v  204.5731 151.8577 -342.5196
v  167.0333 178.7654 -342.5196
v  118.1104 199.4123 -342.5197
v  236.2205 21.9365 -354.3307
v  236.2205 0.2830 -354.3307
v  206.6930 0.2830 -354.3307
v  -206.6929 86.8972 -354.3308
v  -206.6929 0.2830 -354.3307
v  -236.2204 0.2830 -354.3307
v  -236.2204 21.9366 -354.3307
v  -236.2204 21.9366 -342.5197
v  -236.2204 0.2830 -342.5197
v  236.2204 21.9366 342.5197
v  236.2204 0.2830 342.5197
v  -206.6929 0.2830 -346.4567
v  -226.3779 0.2830 -346.4567
v  -226.3780 0.2831 346.4567
v  206.6930 0.2830 -346.4567
v  226.3779 0.2830 346.4567
v  226.3780 0.2830 -346.4567
v  236.2205 0.2829 -342.5197
v  -170.1901 141.0310 -346.4568
v  -179.0013 135.6176 -346.4568
v  -199.6500 112.1167 -346.4568
v  -58.5909 201.9337 -346.4567
v  -113.1889 190.0361 -346.4567
v  -160.0733 171.1097 -346.4568
v  -218.6642 117.7211 -346.4568
v  -196.0490 146.4444 -346.4568
v  -226.3779 86.8972 -346.4568
v  -206.6928 86.8972 -346.4568
v  196.0492 146.4444 -346.4567
v  199.6501 112.1167 -346.4567
v  206.6930 86.8971 -346.4567
v  226.3780 86.8971 -346.4567
v  179.0015 135.6176 -346.4567
v  218.6644 117.7211 -346.4567
v  170.1902 141.0310 -346.4567
v  160.0735 171.1097 -346.4567
v  113.1892 190.0361 -346.4567
v  58.5911 201.9336 -346.4567
v  0.0001 205.9917 -346.4567
v  -206.6929 86.8972 -346.4568
v  -58.5910 201.9337 346.4566
v  -113.1890 190.0361 346.4566
v  -0.0001 205.9917 346.4566
v  58.5910 201.9337 346.4566
v  113.1890 190.0360 346.4566
v  160.0734 171.1097 346.4567
v  196.0491 146.4444 346.4567
v  218.6643 117.7211 346.4567
v  226.3779 86.8972 346.4567
v  -218.6644 117.7212 346.4566
v  -226.3780 86.8972 346.4566
v  -196.0491 146.4445 346.4566
v  -160.0734 171.1098 346.4566
v  -236.2205 0.2831 342.5197
v  236.2205 21.9365 -342.5196
v  -236.2205 21.9366 342.5197
v  118.1103 199.4123 342.5197
v  61.1385 212.3915 342.5196
v  167.0331 178.7654 342.5197
v  204.5729 151.8578 342.5197
v  228.1714 120.5233 342.5197
v  236.2204 86.8972 342.5197
v  -228.1715 120.5234 342.5197
v  -236.2205 86.8973 342.5197
v  -204.5730 151.8579 342.5197
v  -167.0331 178.7655 342.5196
v  -118.1103 199.4124 342.5196
v  -61.1384 212.3916 342.5197
v  -0.0001 216.8185 342.5196
# 120 vertices

vn -0.0722 0.9974 0.0000
vn -0.0000 0.0000 1.0000
vn 0.0000 0.0000 1.0000
vn 0.0000 -0.0000 1.0000
vn 0.0722 0.9974 0.0000
vn 0.0000 -0.0000 -1.0000
vn -0.0000 -0.0000 -1.0000
vn 0.0000 0.0000 -1.0000
vn -0.0000 0.0000 -1.0000
vn -0.2221 0.9750 0.0000
vn -0.3888 0.9213 0.0000
vn -0.5826 0.8128 0.0000
vn -0.7988 0.6016 0.0000
vn -0.9725 0.2328 0.0000
vn 0.9725 0.2328 0.0000
vn 0.7988 0.6016 0.0000
vn 0.5826 0.8128 0.0000
vn 0.3888 0.9213 0.0000
vn 0.2221 0.9750 0.0000
vn -1.0000 -0.0000 0.0000
vn -1.0000 0.0000 0.0000
vn 1.0000 -0.0000 0.0000
vn 1.0000 -0.0000 -0.0000
vn 0.0000 1.0000 -0.0000
vn -0.0000 -1.0000 -0.0000
vn 0.5235 -0.8520 0.0000
vn 0.7512 -0.6600 0.0000
vn -0.0000 -0.0000 1.0000
vn 0.0000 -1.0000 0.0000
vn 0.9631 -0.2690 -0.0000
vn 0.9631 -0.2690 0.0000
vn 0.2129 -0.9771 0.0000
vn 0.0691 -0.9976 0.0000
vn -0.0691 -0.9976 0.0000
vn -0.2129 -0.9771 0.0000
vn -0.3743 -0.9273 -0.0000
vn -0.5655 -0.8248 -0.0000
vn -0.7857 -0.6186 -0.0000
vn -0.9701 -0.2428 -0.0000
vn 1.0000 0.0000 -0.0000
vn -0.9631 -0.2690 0.0000
vn -0.9631 -0.2690 -0.0000
vn -0.7512 -0.6600 0.0000
vn -0.5235 -0.8520 0.0000
vn 0.9701 -0.2428 0.0000
vn 0.7857 -0.6186 0.0000
vn 0.5655 -0.8248 0.0000
vn 0.3743 -0.9273 0.0000
vn -1.0000 0.0000 -0.0000
vn 1.0000 0.0000 0.0000
vn -1.0000 -0.0000 -0.0000
vn -0.9725 0.2328 -0.0000
vn 0.2221 0.9750 -0.0000
vn 0.3888 0.9213 -0.0000
vn 0.5826 0.8128 -0.0000
vn -0.7988 0.6016 -0.0000
vn -0.5826 0.8128 -0.0000
vn -0.3888 0.9213 -0.0000
vn -0.2221 0.9750 -0.0000
vn 0.0722 0.9974 -0.0000
vn -0.0722 0.9974 -0.0000
# 61 vertex normals

vt 0.0929 0.8129 0.0000
vt 0.1095 0.8129 0.0000
vt 0.1095 0.8629 0.0000
vt 0.0929 0.8629 0.0000
vt 0.0783 0.8939 0.0000
vt 0.0900 0.8911 0.0000
vt 0.0989 0.8831 0.0000
vt 0.1032 0.8720 0.0000
vt 0.1017 0.8601 0.0000
vt 0.0949 0.8502 0.0000
vt 0.0843 0.8447 0.0000
vt 0.0724 0.8447 0.0000
vt 0.0618 0.8502 0.0000
vt 0.0550 0.8601 0.0000
vt 0.0535 0.8720 0.0000
vt 0.0578 0.8831 0.0000
vt 0.0667 0.8911 0.0000
vt 0.0783 0.8877 0.0000
vt 0.0857 0.8866 0.0000
vt 0.0924 0.8834 0.0000
vt 0.1016 0.8719 0.0000
vt 0.0979 0.8783 0.0000
vt 0.1033 0.8646 0.0000
vt 0.1027 0.8572 0.0000
vt 0.0892 0.8402 0.0000
vt 0.1000 0.8502 0.0000
vt 0.0954 0.8444 0.0000
vt 0.0821 0.8380 0.0000
vt 0.0746 0.8380 0.0000
vt 0.0567 0.8502 0.0000
vt 0.0540 0.8572 0.0000
vt 0.0534 0.8646 0.0000
vt 0.0613 0.8444 0.0000
vt 0.0551 0.8719 0.0000
vt 0.0588 0.8783 0.0000
vt 0.0675 0.8402 0.0000
vt 0.0643 0.8834 0.0000
vt 0.0710 0.8866 0.0000
vt 0.0533 0.8689 0.0000
vt 0.1033 0.8689 0.0000
vt 0.1033 0.8939 0.0000
vt 0.0533 0.8939 0.0000
vt 0.1021 0.8705 0.0000
vt 0.0976 0.8565 0.0000
vt 0.0930 0.8425 0.0000
vt 0.0637 0.8425 0.0000
vt 0.0546 0.8705 0.0000
vt 0.0665 0.8791 0.0000
vt 0.0929 0.8379 0.0000
vt 0.1095 0.8379 0.0000
vt 0.4560 0.1132 0.0000
vt 0.4527 0.1007 0.0000
vt 0.4435 0.0915 0.0000
vt 0.4094 0.1007 0.0000
vt 0.4310 0.0882 0.0000
vt 0.4185 0.0915 0.0000
vt 0.4527 0.1257 0.0000
vt 0.4060 0.1132 0.0000
vt 0.4435 0.1348 0.0000
vt 0.4094 0.1257 0.0000
vt 0.4393 0.1360 0.0000
vt 0.4124 0.1287 0.0000
vt 0.0533 0.6207 0.0000
vt 0.1033 0.6207 0.0000
vt 0.1033 0.6707 0.0000
vt 0.0533 0.6707 0.0000
vt 0.0783 0.6707 0.0000
vt 0.0857 0.6696 0.0000
vt 0.0924 0.6664 0.0000
vt 0.1016 0.6549 0.0000
vt 0.0979 0.6613 0.0000
vt 0.1033 0.6476 0.0000
vt 0.1027 0.6402 0.0000
vt 0.1000 0.6332 0.0000
vt 0.0954 0.6274 0.0000
vt 0.0892 0.6232 0.0000
vt 0.0534 0.6476 0.0000
vt 0.0675 0.6232 0.0000
vt 0.0613 0.6274 0.0000
vt 0.0567 0.6332 0.0000
vt 0.0746 0.6210 0.0000
vt 0.0540 0.6402 0.0000
vt 0.0821 0.6210 0.0000
vt 0.0551 0.6549 0.0000
vt 0.0588 0.6613 0.0000
vt 0.0643 0.6664 0.0000
vt 0.0710 0.6696 0.0000
vt 0.1000 0.6582 0.0000
vt 0.0783 0.6207 0.0000
vt 0.0567 0.6582 0.0000
vt 0.4259 0.2072 0.0000
vt 0.4285 0.2072 0.0000
vt 0.4285 0.1745 0.0000
vt 0.4259 0.1745 0.0000
vt 0.4232 0.2072 0.0000
vt 0.4232 0.1745 0.0000
vt 0.4204 0.2072 0.0000
vt 0.4204 0.1745 0.0000
vt 0.4178 0.2072 0.0000
vt 0.4178 0.1745 0.0000
vt 0.4156 0.2072 0.0000
vt 0.4156 0.1745 0.0000
vt 0.4139 0.2072 0.0000
vt 0.4139 0.1745 0.0000
vt 0.4129 0.2072 0.0000
vt 0.4129 0.1745 0.0000
vt 0.4125 0.2072 0.0000
vt 0.4125 0.1745 0.0000
vt 0.1021 0.6534 0.0000
vt 0.0930 0.6255 0.0000
vt 0.0637 0.6255 0.0000
vt 0.0546 0.6534 0.0000
vt 0.4335 0.2072 0.0000
vt 0.4338 0.2072 0.0000
vt 0.4338 0.1745 0.0000
vt 0.4335 0.1745 0.0000
vt 0.4324 0.2072 0.0000
vt 0.4324 0.1745 0.0000
vt 0.4307 0.2072 0.0000
vt 0.4307 0.1745 0.0000
vt 0.3326 0.8567 0.0000
vt 0.3442 0.8539 0.0000
vt 0.3532 0.8459 0.0000
vt 0.3574 0.8348 0.0000
vt 0.3560 0.8229 0.0000
vt 0.3492 0.8130 0.0000
vt 0.3386 0.8075 0.0000
vt 0.3266 0.8075 0.0000
vt 0.3160 0.8130 0.0000
vt 0.3092 0.8229 0.0000
vt 0.3078 0.8348 0.0000
vt 0.3120 0.8459 0.0000
vt 0.3210 0.8539 0.0000
vt 0.3076 0.8067 0.0000
vt 0.3576 0.8067 0.0000
vt 0.3576 0.8567 0.0000
vt 0.3076 0.8567 0.0000
vt 0.3367 0.8556 0.0000
vt 0.3170 0.8503 0.0000
vt 0.3201 0.8534 0.0000
vt 0.0595 0.8379 0.0000
vt 0.0762 0.8379 0.0000
vt 0.0762 0.8629 0.0000
vt 0.0595 0.8629 0.0000
vt 0.0669 0.8534 0.0000
vt 0.0836 0.8534 0.0000
vt 0.0836 0.8784 0.0000
vt 0.0669 0.8784 0.0000
vt 0.0595 0.8129 0.0000
vt 0.0762 0.8129 0.0000
vt 0.0533 0.8439 0.0000
vt 0.1033 0.8439 0.0000
vt 0.7826 0.7349 0.0000
vt 0.7826 0.3907 0.0000
vt 0.8112 0.3907 0.0000
vt 0.8112 0.7349 0.0000
vt 0.7580 0.7349 0.0000
vt 0.7580 0.3907 0.0000
vt 0.7392 0.7349 0.0000
vt 0.7392 0.3907 0.0000
vt 0.7273 0.7349 0.0000
vt 0.7273 0.3907 0.0000
vt 0.7233 0.7349 0.0000
vt 0.7233 0.3907 0.0000
vt 0.9566 0.7349 0.0000
vt 0.9566 0.3907 0.0000
vt 0.9607 0.3907 0.0000
vt 0.9607 0.7349 0.0000
vt 0.9448 0.7349 0.0000
vt 0.9448 0.3907 0.0000
vt 0.9259 0.7349 0.0000
vt 0.9259 0.3907 0.0000
vt 0.9013 0.7349 0.0000
vt 0.9013 0.3907 0.0000
vt 0.8727 0.7349 0.0000
vt 0.8727 0.3907 0.0000
vt 0.8420 0.3907 0.0000
vt 0.8420 0.7349 0.0000
# 178 texture coords

g SPW_Urban_Airport_Hangar
usemtl SPW_Urban_Airport
s off
f 1/1/1 2/2/1 3/3/1 4/4/1 
s 1
f 5/5/2 6/6/3 7/7/4 8/8/2 
f 5/5/2 8/8/2 9/9/2 10/10/3 
f 5/5/2 10/10/3 11/11/2 12/12/2 
f 5/5/2 12/12/2 13/13/2 14/14/2 
f 5/5/2 14/14/2 15/15/3 16/16/3 
f 5/5/2 16/16/3 17/17/3 
s off
f 18/1/5 19/2/5 2/3/5 1/4/5 
s 1
f 3/18/6 2/19/6 19/20/7 20/21/6 
f 19/20/7 21/22/7 20/21/6 
f 20/21/6 22/23/6 23/24/6 24/25/6 
f 23/24/6 25/26/6 26/27/6 24/25/6 
f 20/21/6 24/25/6 27/28/6 28/29/6 
f 29/30/6 30/31/6 31/32/6 32/33/6 
f 31/32/6 33/34/6 34/35/6 32/33/6 
f 35/36/8 32/33/6 34/35/6 28/29/6 
f 20/21/6 28/29/6 34/35/6 3/18/6 
f 3/18/6 34/35/6 36/37/6 37/38/9 
s off
f 4/1/10 3/2/10 37/3/10 38/4/10 
f 38/1/11 37/2/11 36/3/11 39/4/11 
f 39/1/12 36/2/12 34/3/12 40/4/12 
f 40/1/13 34/2/13 33/3/13 41/4/13 
f 41/1/14 33/2/14 31/3/14 42/4/14 
s 1
f 43/39/2 44/40/2 45/41/2 46/42/2 
s off
f 47/1/15 25/2/15 23/3/15 48/4/15 
f 48/1/16 23/2/16 22/3/16 49/4/16 
f 49/1/17 22/2/17 20/3/17 50/4/17 
f 50/1/18 20/2/18 21/3/18 51/4/18 
f 51/1/19 21/2/19 19/3/19 18/4/19 
f 26/18/6 25/43/6 52/44/6 53/45/6 
f 26/18/6 53/45/6 54/46/6 26/47/6 
s 1
f 31/18/6 30/43/6 55/45/6 56/46/6 
f 56/46/6 57/47/6 58/48/6 31/18/6 
s 2
f 59/49/20 58/50/21 57/3/20 60/4/20 
f 61/49/22 43/50/23 46/3/23 62/4/22 
s off
f 63/51/24 64/52/24 65/53/24 66/54/24 
f 65/53/24 67/55/24 68/56/24 66/54/24 
f 56/57/24 63/51/24 66/54/24 54/58/24 
f 57/59/7 56/57/7 54/58/7 53/60/7 
f 60/61/25 57/59/25 53/60/25 69/62/25 
f 32/63/26 35/64/26 70/65/26 71/66/26 
f 29/63/27 32/64/27 71/65/27 72/66/27 
s 1
f 73/67/28 74/68/4 75/69/2 76/70/2 
f 75/69/2 77/71/3 76/70/2 
f 76/70/2 78/72/3 79/73/3 72/74/3 
f 76/70/2 72/74/3 71/75/3 70/76/4 
f 73/67/28 76/70/2 70/76/4 80/77/2 
f 81/78/3 82/79/3 83/80/3 84/81/3 
f 83/80/3 85/82/3 80/77/2 84/81/3 
f 86/83/2 84/81/3 80/77/2 70/76/4 
f 80/77/2 87/84/28 88/85/2 73/67/28 
f 73/67/28 88/85/2 89/86/3 90/87/3 
s off
f 35/63/29 28/64/29 86/65/29 70/66/29 
f 72/67/30 79/88/30 91/74/30 55/89/30 
f 72/67/31 55/89/31 30/80/31 29/90/31 
f 92/91/32 93/92/32 74/93/32 73/94/32 
f 94/95/33 92/91/33 73/94/33 90/96/33 
f 95/97/34 94/95/34 90/96/34 89/98/34 
f 96/99/35 95/97/35 89/98/35 88/100/35 
f 97/101/36 96/99/36 88/100/36 87/102/36 
f 98/103/37 97/101/37 87/102/37 80/104/37 
f 99/105/38 98/103/38 80/104/38 85/106/38 
f 100/107/39 99/105/39 85/106/39 83/108/39 
s 1
f 66/67/3 68/109/3 83/110/3 82/111/3 
f 66/67/3 82/111/3 82/112/40 
s off
f 82/67/41 82/88/41 81/74/41 24/89/41 
f 82/67/42 24/89/42 26/80/42 26/90/42 
f 27/63/43 24/64/43 81/65/43 84/66/43 
f 28/63/44 27/64/44 84/65/44 86/66/44 
f 78/67/3 64/109/3 63/110/3 79/112/3 
f 63/110/6 91/111/6 79/112/6 
f 101/113/45 102/114/45 78/115/45 76/116/45 
f 103/117/46 101/113/46 76/116/46 77/118/46 
f 104/119/47 103/117/47 77/118/47 75/120/47 
f 93/92/48 104/119/48 75/120/48 74/93/48 
f 91/63/40 63/64/40 56/65/40 55/66/40 
s 1
f 94/121/6 95/122/6 96/123/7 97/124/7 
f 94/121/6 97/124/7 98/125/6 99/126/6 
f 94/121/6 99/126/6 100/127/6 102/128/6 
f 94/121/6 102/128/6 101/129/6 103/130/6 
f 94/121/6 103/130/6 104/131/6 93/132/9 
f 94/121/6 93/132/9 92/133/6 
s off
f 68/108/49 67/107/49 100/107/49 83/108/49 
f 26/63/49 54/64/49 66/65/49 82/66/49 
f 65/114/50 64/115/50 78/115/50 102/114/50 
s 1
f 67/134/6 65/135/6 102/136/6 100/137/6 
s off
f 45/121/25 105/138/25 62/139/25 46/140/25 
s 2
f 52/141/23 106/142/22 69/143/22 53/144/23 
f 106/145/22 61/146/22 62/147/22 69/148/22 
f 44/141/49 107/142/49 105/143/49 45/144/51 
s off
f 107/145/49 59/146/49 60/147/49 105/148/49 
f 16/149/19 108/150/19 109/143/19 17/144/19 
f 15/149/18 110/150/18 108/143/18 16/144/18 
f 14/149/17 111/150/17 110/143/17 15/144/17 
f 13/149/16 112/150/16 111/143/16 14/144/16 
f 12/149/15 113/150/15 112/143/15 13/144/15 
f 10/149/52 114/150/52 115/143/52 11/144/52 
f 9/149/13 116/150/13 114/143/13 10/144/13 
f 8/149/12 117/150/12 116/143/12 9/144/12 
f 7/149/11 118/150/11 117/143/11 8/144/11 
f 6/149/10 119/150/10 118/143/10 7/144/10 
f 17/149/5 109/150/5 120/143/5 5/144/5 
f 5/149/1 120/150/1 119/143/1 6/144/1 
s 2
f 11/149/51 115/150/51 107/142/49 44/141/49 
s off
f 25/149/40 47/150/40 106/142/40 52/141/40 
s 2
f 113/1/40 12/2/40 43/50/23 61/49/22 
f 42/1/21 31/2/21 58/50/21 59/49/20 
s 1
f 12/151/2 11/152/2 44/40/2 43/39/2 
s off
f 108/153/53 51/154/53 18/155/53 109/156/53 
f 110/157/54 50/158/54 51/154/54 108/153/54 
f 111/159/55 49/160/55 50/158/55 110/157/55 
f 112/161/16 48/162/16 49/160/16 111/159/16 
f 113/163/15 47/164/15 48/162/15 112/161/15 
f 114/165/52 41/166/52 42/167/52 115/168/52 
f 116/169/56 40/170/56 41/166/56 114/165/56 
f 117/171/57 39/172/57 40/170/57 116/169/57 
f 118/173/58 38/174/58 39/172/58 117/171/58 
f 119/175/59 4/176/59 38/174/59 118/173/59 
f 109/156/60 18/155/60 1/177/60 120/178/60 
f 120/178/61 1/177/61 4/176/61 119/175/61 
f 115/168/51 42/167/51 59/167/51 107/168/51 
f 47/164/50 113/163/50 61/163/50 106/164/50 
# 116 polygons - 6 triangles

