# 3ds Max Wavefront OBJ Exporter v0.97b - (c)2007 guruware
# File Created: 15.03.2017 10:44:41

mtllib SPW_Urban_Bldg_Gas Station Prop Small.mtl

#
# object SPW_Urban_Bldg_Gas_Station_Prop_Small
#

v  19.6850 9.4216 5.9055
v  -19.6850 9.4216 5.9055
v  -19.6850 0.0712 5.9055
v  19.6850 0.0712 5.9055
v  -19.6850 9.4216 -5.9055
v  -19.6850 0.0712 -5.9055
v  19.6850 9.4216 -5.9055
v  19.6850 0.0712 -5.9055
v  19.6850 59.1264 -5.9055
v  -19.6850 59.1264 -5.9055
v  -19.6850 59.1264 5.9055
v  19.6850 59.1264 5.9055
v  19.6850 40.4256 5.9055
v  19.6850 40.4256 -5.9055
v  -19.6850 38.4571 -5.9055
v  -19.6850 38.4571 5.9055
v  -18.7008 38.4571 4.9278
v  -18.7008 38.4571 -4.9278
v  -19.6850 40.4256 -5.9055
v  19.6850 38.4571 5.9055
v  18.7008 38.4571 4.9278
v  -19.6850 40.4256 5.9055
v  18.7008 40.4256 4.9278
v  18.7008 40.4256 -4.9278
v  -18.7008 40.4256 -4.9278
v  18.7008 38.4571 -4.9278
v  -18.7008 40.4256 4.9278
v  19.6850 38.4571 -5.9055
v  -0.1612 64.8114 6.8300
v  0.6338 64.9390 6.8300
v  2.1076 65.4712 6.8300
v  3.9089 67.6205 6.8300
v  3.3562 66.7403 6.8300
v  4.2774 65.1846 6.8300
v  8.5964 65.1846 6.8300
v  8.5964 80.5358 6.8300
v  0.0402 80.5358 6.8300
v  0.0607 76.6261 6.8300
v  2.5170 76.6056 6.8300
v  2.4760 71.7953 6.8300
v  1.9029 70.2191 6.8300
v  -4.5826 65.4501 6.8300
v  2.0986 88.5310 6.8300
v  2.1870 84.6401 6.8300
v  8.4949 84.6696 6.8300
v  1.5680 89.8869 6.8300
v  8.5244 86.9098 6.8300
v  8.1412 89.9163 6.8300
v  4.3977 94.3083 6.8300
v  6.7263 92.6281 6.8300
v  0.5658 90.3880 6.8300
v  -0.2890 90.4174 6.8300
v  -1.2322 90.1521 6.8300
v  0.6837 95.1631 6.8300
v  -2.7944 94.8388 6.8300
v  -7.3632 91.9207 6.8300
v  -5.6536 93.7482 6.8300
v  -1.9986 89.2089 6.8300
v  -2.1754 88.2362 6.8300
v  -2.2933 86.9393 6.8300
v  -2.2933 73.0030 6.8300
v  -2.0682 71.2426 6.8300
v  -8.5717 89.0321 6.8300
v  -8.9549 86.1729 6.8300
v  -8.8567 72.4260 6.8300
v  -8.9549 74.8824 6.8300
v  -8.2671 69.7241 6.8300
v  -7.1864 67.4642 6.8300
v  -5.9828 66.2606 6.8300
v  -1.5155 70.0963 6.8300
v  -0.3283 69.4413 6.8300
v  0.9204 69.5232 6.8300
v  -1.2420 64.7868 6.8300
v  -2.5439 64.8605 6.8300
v  -1.2420 64.7868 -1.0378
v  -2.5439 64.8605 -1.0378
v  -4.5826 65.4501 -1.0378
v  -0.1612 64.8114 -1.0378
v  -5.9828 66.2606 -1.0378
v  -7.1864 67.4643 -1.0378
v  -8.8567 72.4260 -1.0378
v  -8.2671 69.7241 -1.0378
v  -8.9549 74.8824 -1.0378
v  -8.9549 86.1729 -1.0378
v  -7.3632 91.9207 -1.0378
v  -8.5717 89.0321 -1.0378
v  -5.6536 93.7482 -1.0378
v  -2.7944 94.8388 -1.0378
v  4.3977 94.3083 -1.0378
v  0.6837 95.1631 -1.0378
v  6.7263 92.6281 -1.0377
v  8.1412 89.9163 -1.0377
v  8.4949 84.6696 -1.0378
v  8.5244 86.9098 -1.0378
v  2.1870 84.6401 -1.0378
v  2.0986 88.5310 -1.0378
v  1.5680 89.8869 -1.0378
v  0.5658 90.3880 -1.0378
v  -0.2890 90.4174 -1.0378
v  -1.2322 90.1521 -1.0378
v  -1.9986 89.2089 -1.0378
v  -2.1754 88.2362 -1.0378
v  -2.2933 86.9393 -1.0378
v  -2.2933 73.0030 -1.0378
v  -2.0682 71.2426 -1.0378
v  2.5170 76.6056 -1.0378
v  0.0607 76.6261 -1.0378
v  0.0402 80.5358 -1.0378
v  8.5964 80.5358 -1.0378
v  2.4760 71.7953 -1.0378
v  1.9029 70.2191 -1.0378
v  8.5964 65.1846 -1.0378
v  4.2774 65.1846 -1.0378
v  3.9089 67.6205 -1.0378
v  3.3562 66.7403 -1.0378
v  2.1076 65.4712 -1.0378
v  0.6338 64.9390 -1.0378
v  0.9204 69.5232 -1.0378
v  -0.3283 69.4413 -1.0378
v  -1.5155 70.0963 -1.0378
v  19.6850 98.4965 5.9055
v  -19.6850 98.4965 5.9055
v  -19.6850 61.0949 5.9055
v  19.6850 61.0949 5.9055
v  -19.6850 98.4965 -5.9055
v  -19.6850 61.0949 -5.9055
v  19.6850 98.4965 -5.9055
v  19.6850 61.0949 -5.9055
v  18.7008 61.0949 4.9263
v  18.7008 61.0949 -4.9263
v  -18.7008 61.0949 4.9263
v  -18.7008 61.0949 -4.9263
v  -18.7008 59.1264 -4.9263
v  -18.7008 59.1264 4.9263
v  18.7008 59.1264 4.9263
v  18.7008 59.1264 -4.9263
v  0.1612 64.8114 -6.8300
v  -0.6338 64.9390 -6.8300
v  -2.1076 65.4712 -6.8300
v  -3.9089 67.6205 -6.8300
v  -3.3562 66.7403 -6.8300
v  -4.2774 65.1846 -6.8300
v  -8.5964 65.1846 -6.8300
v  -8.5964 80.5358 -6.8300
v  -0.0402 80.5358 -6.8300
v  -0.0607 76.6261 -6.8300
v  -2.5170 76.6056 -6.8300
v  -2.4760 71.7953 -6.8300
v  -1.9029 70.2191 -6.8300
v  4.5826 65.4501 -6.8300
v  -2.0986 88.5310 -6.8300
v  -2.1870 84.6401 -6.8300
v  -8.4949 84.6696 -6.8300
v  -1.5680 89.8869 -6.8300
v  -8.5244 86.9098 -6.8300
v  -8.1412 89.9163 -6.8300
v  -4.3977 94.3083 -6.8300
v  -6.7263 92.6281 -6.8300
v  -0.5658 90.3880 -6.8300
v  0.2890 90.4174 -6.8300
v  1.2322 90.1521 -6.8300
v  -0.6837 95.1631 -6.8300
v  2.7944 94.8388 -6.8300
v  7.3632 91.9207 -6.8300
v  5.6536 93.7482 -6.8300
v  1.9986 89.2089 -6.8300
v  2.1754 88.2362 -6.8300
v  2.2933 86.9393 -6.8300
v  2.2933 73.0030 -6.8300
v  2.0682 71.2426 -6.8300
v  8.5717 89.0321 -6.8300
v  8.9549 86.1729 -6.8300
v  8.8567 72.4260 -6.8300
v  8.9549 74.8824 -6.8300
v  8.2671 69.7241 -6.8300
v  7.1864 67.4643 -6.8300
v  5.9828 66.2606 -6.8300
v  1.5155 70.0963 -6.8300
v  0.3283 69.4413 -6.8300
v  -0.9204 69.5232 -6.8300
v  1.2420 64.7868 -6.8300
v  2.5439 64.8605 -6.8300
v  1.2420 64.7868 1.0378
v  2.5439 64.8605 1.0378
v  4.5826 65.4501 1.0378
v  0.1612 64.8114 1.0378
v  5.9828 66.2606 1.0378
v  7.1864 67.4643 1.0378
v  8.8567 72.4260 1.0378
v  8.2671 69.7241 1.0378
v  8.9549 74.8824 1.0378
v  8.9549 86.1729 1.0378
v  7.3632 91.9207 1.0378
v  8.5717 89.0321 1.0378
v  5.6536 93.7482 1.0378
v  2.7944 94.8388 1.0378
v  -4.3977 94.3083 1.0378
v  -0.6837 95.1631 1.0378
v  -6.7263 92.6281 1.0378
v  -8.1412 89.9163 1.0378
v  -8.4949 84.6696 1.0378
v  -8.5244 86.9098 1.0378
v  -2.1870 84.6401 1.0378
v  -2.0986 88.5310 1.0378
v  -1.5680 89.8869 1.0378
v  -0.5658 90.3880 1.0378
v  0.2890 90.4174 1.0378
v  1.2322 90.1521 1.0378
v  1.9986 89.2089 1.0378
v  2.1754 88.2362 1.0378
v  2.2933 86.9393 1.0378
v  2.2933 73.0030 1.0378
v  2.0682 71.2426 1.0378
v  -2.5170 76.6056 1.0378
v  -0.0607 76.6261 1.0378
v  -0.0402 80.5358 1.0378
v  -8.5964 80.5358 1.0378
v  -2.4761 71.7953 1.0378
v  -1.9029 70.2191 1.0378
v  -8.5964 65.1846 1.0378
v  -4.2774 65.1846 1.0378
v  -3.9089 67.6205 1.0378
v  -3.3562 66.7403 1.0378
v  -2.1076 65.4712 1.0378
v  -0.6338 64.9390 1.0378
v  -0.9204 69.5232 1.0378
v  0.3283 69.4413 1.0378
v  1.5155 70.0963 1.0378
# 228 vertices

vn -0.0000 -0.0000 1.0000
vn -0.0000 0.0000 1.0000
vn -1.0000 0.0000 -0.0000
vn -1.0000 -0.0000 -0.0000
vn 0.0000 0.0000 -1.0000
vn 1.0000 -0.0000 0.0000
vn 1.0000 0.0000 0.0000
vn 0.0000 -1.0000 0.0000
vn 0.0000 1.0000 -0.0000
vn 0.0000 -0.0000 -1.0000
vn 0.0000 -0.0000 1.0000
vn 0.0000 0.0000 1.0000
vn -0.0000 0.0000 -1.0000
vn 0.9919 0.1269 0.0000
vn 0.9008 0.4343 0.0000
vn 0.4831 0.8756 -0.0000
vn -0.0654 0.9979 0.0000
vn -0.5780 0.8160 0.0000
vn -0.9398 0.3417 -0.0000
vn -1.0000 0.0085 -0.0000
vn -0.0083 -1.0000 -0.0000
vn -1.0000 -0.0052 -0.0000
vn 0.0000 -1.0000 -0.0000
vn -0.9888 -0.1496 -0.0000
vn 0.8469 -0.5318 0.0000
vn 0.7128 -0.7013 -0.0000
vn 0.3396 -0.9406 -0.0000
vn 0.1585 -0.9874 -0.0000
vn -0.0565 -0.9984 -0.0000
vn -0.5010 -0.8654 0.0000
vn -0.2778 -0.9606 -0.0000
vn 0.0227 -0.9997 -0.0000
vn -0.7071 -0.7071 -0.0000
vn -0.9021 -0.4315 -0.0000
vn -0.9770 -0.2132 -0.0000
vn -0.9992 -0.0400 -0.0000
vn -0.9911 0.1328 -0.0000
vn -0.9225 0.3860 -0.0000
vn -0.7303 0.6832 -0.0000
vn -0.3564 0.9343 -0.0000
vn -0.0928 0.9957 -0.0000
vn 0.2243 0.9745 -0.0000
vn 0.5851 0.8109 0.0000
vn 0.8866 0.4626 0.0000
vn 0.9920 0.1264 0.0000
vn 0.9999 -0.0132 0.0000
vn 0.0047 -1.0000 -0.0000
vn -0.9997 -0.0227 -0.0000
vn -0.9312 -0.3644 -0.0000
vn -0.4472 -0.8944 0.0000
vn -0.0345 -0.9994 0.0000
vn 0.2707 -0.9627 0.0000
vn 0.7761 -0.6306 0.0000
vn 0.9839 -0.1789 0.0000
vn 0.9959 -0.0905 0.0000
vn -0.0000 -1.0000 -0.0000
vn -0.0000 -0.0000 -1.0000
vn -0.9919 0.1269 -0.0000
vn -0.9008 0.4343 -0.0000
vn -0.4831 0.8756 -0.0000
vn 0.0654 0.9979 -0.0000
vn 0.5780 0.8160 -0.0000
vn 0.9398 0.3417 0.0000
vn 1.0000 0.0085 0.0000
vn 0.0083 -1.0000 0.0000
vn 1.0000 -0.0052 0.0000
vn 0.9888 -0.1496 0.0000
vn -0.8469 -0.5318 -0.0000
vn -0.7128 -0.7013 0.0000
vn -0.3396 -0.9406 0.0000
vn -0.1585 -0.9874 0.0000
vn 0.0565 -0.9984 0.0000
vn 0.5010 -0.8654 0.0000
vn 0.2778 -0.9606 0.0000
vn -0.0227 -0.9997 0.0000
vn 0.7071 -0.7071 0.0000
vn 0.9021 -0.4315 0.0000
vn 0.9770 -0.2132 0.0000
vn 0.9992 -0.0400 0.0000
vn 0.9911 0.1328 0.0000
vn 0.9225 0.3860 0.0000
vn 0.7303 0.6832 -0.0000
vn 0.3564 0.9343 -0.0000
vn 0.0928 0.9957 -0.0000
vn -0.2243 0.9745 -0.0000
vn -0.5851 0.8109 -0.0000
vn -0.8866 0.4626 -0.0000
vn -0.9920 0.1264 -0.0000
vn -0.9999 -0.0132 -0.0000
vn -0.0047 -1.0000 0.0000
vn 0.9997 -0.0227 0.0000
vn 0.9312 -0.3644 0.0000
vn 0.4472 -0.8944 0.0000
vn 0.0345 -0.9994 0.0000
vn -0.2707 -0.9627 0.0000
vn -0.7761 -0.6306 0.0000
vn -0.9839 -0.1789 -0.0000
vn -0.9959 -0.0905 -0.0000
# 98 vertex normals

vt 0.2765 0.0328 0.0000
vt 0.3265 0.0328 0.0000
vt 0.3265 0.0578 0.0000
vt 0.2765 0.0578 0.0000
vt 0.2765 0.0078 0.0000
vt 0.3265 0.0078 0.0000
vt 0.2735 0.0099 0.0000
vt 0.3235 0.0099 0.0000
vt 0.3235 0.0599 0.0000
vt 0.2735 0.0599 0.0000
vt 0.2921 0.8222 0.0000
vt 0.3421 0.8222 0.0000
vt 0.3421 0.8722 0.0000
vt 0.2921 0.8722 0.0000
vt 0.2766 0.0130 0.0000
vt 0.3266 0.0130 0.0000
vt 0.3266 0.0630 0.0000
vt 0.2766 0.0630 0.0000
vt 0.3077 0.8800 0.0000
vt 0.3111 0.8793 0.0000
vt 0.3143 0.8782 0.0000
vt 0.3201 0.8746 0.0000
vt 0.3173 0.8766 0.0000
vt 0.3226 0.8723 0.0000
vt 0.3248 0.8697 0.0000
vt 0.3265 0.8668 0.0000
vt 0.3279 0.8636 0.0000
vt 0.3288 0.8603 0.0000
vt 0.3293 0.8570 0.0000
vt 0.3293 0.8535 0.0000
vt 0.3288 0.8502 0.0000
vt 0.2976 0.8793 0.0000
vt 0.2944 0.8323 0.0000
vt 0.2913 0.8339 0.0000
vt 0.2886 0.8359 0.0000
vt 0.2976 0.8312 0.0000
vt 0.2861 0.8382 0.0000
vt 0.2839 0.8408 0.0000
vt 0.2808 0.8469 0.0000
vt 0.2821 0.8438 0.0000
vt 0.3009 0.8305 0.0000
vt 0.3043 0.8303 0.0000
vt 0.3077 0.8305 0.0000
vt 0.2799 0.8502 0.0000
vt 0.2794 0.8535 0.0000
vt 0.2799 0.8603 0.0000
vt 0.2794 0.8570 0.0000
vt 0.3111 0.8312 0.0000
vt 0.3143 0.8323 0.0000
vt 0.3173 0.8339 0.0000
vt 0.3201 0.8359 0.0000
vt 0.3226 0.8382 0.0000
vt 0.2808 0.8636 0.0000
vt 0.2821 0.8668 0.0000
vt 0.2861 0.8723 0.0000
vt 0.2839 0.8697 0.0000
vt 0.2886 0.8746 0.0000
vt 0.2913 0.8766 0.0000
vt 0.2944 0.8782 0.0000
vt 0.3248 0.8408 0.0000
vt 0.3265 0.8438 0.0000
vt 0.3279 0.8469 0.0000
vt 0.3043 0.8803 0.0000
vt 0.3009 0.8800 0.0000
vt 0.2793 0.8303 0.0000
vt 0.3293 0.8303 0.0000
vt 0.3293 0.8803 0.0000
vt 0.2793 0.8803 0.0000
vt 0.3421 0.8472 0.0000
vt 0.2921 0.8472 0.0000
# 70 texture coords

g SPW_Urban_Bldg_Gas_Station_Prop_Small
usemtl SPW_Urban_Bldg_Gas_Station_Prop_Small
s 1
f 1/1/1 2/2/2 3/3/2 4/4/2 
s 2
f 2/1/3 5/2/3 6/3/3 3/4/4 
s 1
f 5/1/5 7/2/5 8/3/5 6/4/5 
s 2
f 7/1/6 1/2/6 4/3/7 8/4/7 
s off
f 4/5/8 3/6/8 6/3/8 8/4/8 
f 9/7/9 10/8/9 11/9/9 12/10/9 
f 9/11/7 12/12/7 13/13/7 14/14/7 
s 4
f 15/15/9 16/16/9 17/17/9 18/18/9 
s off
f 10/11/10 9/12/10 14/13/10 19/14/10 
f 16/15/9 20/16/9 21/17/9 17/18/9 
f 11/11/3 10/12/3 19/13/3 22/14/3 
f 14/15/8 13/16/8 23/17/8 24/18/8 
f 12/11/1 11/12/1 22/13/1 13/14/1 
f 19/15/8 14/16/8 24/17/8 25/18/8 
f 24/15/7 23/16/7 21/17/7 26/18/7 
f 25/15/5 24/16/5 26/17/5 18/18/5 
f 27/15/3 25/16/3 18/17/3 17/18/3 
f 23/15/1 27/16/1 17/17/1 21/18/1 
s 4
f 28/15/9 15/16/9 18/17/9 26/18/9 
f 20/15/9 28/16/9 26/17/9 21/18/9 
s off
f 13/15/8 22/16/8 27/17/8 23/18/8 
f 22/15/8 19/16/8 25/17/8 27/18/8 
f 29/19/2 30/20/2 31/21/2 32/22/2 
f 31/21/11 33/23/11 32/22/11 
f 32/22/1 34/24/1 35/25/1 36/26/1 
f 36/26/1 37/27/1 38/28/1 39/29/1 
f 32/22/1 36/26/1 39/29/1 40/30/1 
f 32/22/2 40/30/2 41/31/2 42/32/2 
f 43/33/1 44/34/1 45/35/1 46/36/1 
f 45/35/1 47/37/1 48/38/1 49/39/1 
f 48/38/12 50/40/12 49/39/12 
f 46/36/1 45/35/1 49/39/1 51/41/1 
f 52/42/11 51/41/11 49/39/11 53/43/11 
f 49/39/1 54/44/1 55/45/1 56/46/1 
f 55/45/1 57/47/1 56/46/1 
f 53/43/1 49/39/1 56/46/1 58/48/1 
f 59/49/1 58/48/1 56/46/1 60/50/1 
f 61/51/1 60/50/1 56/46/1 62/52/1 
f 56/46/1 63/53/1 64/54/1 65/55/1 
f 64/54/11 66/56/11 65/55/11 
f 65/55/1 67/57/1 68/58/1 42/32/1 
f 68/58/1 69/59/1 42/32/1 
f 56/46/1 65/55/1 42/32/1 62/52/1 
f 70/60/2 62/52/2 42/32/2 71/61/2 
f 72/62/11 71/61/11 42/32/11 41/31/11 
f 29/19/1 32/22/1 42/32/1 73/63/1 
f 73/63/1 42/32/1 74/64/1 
f 75/63/5 76/19/5 77/20/5 78/64/5 
f 77/20/5 79/21/5 80/23/5 81/24/5 
f 80/23/5 82/22/5 81/24/5 
f 81/24/5 83/25/5 84/26/5 85/28/5 
f 84/26/5 86/27/5 85/28/5 
f 85/28/5 87/29/5 88/30/5 89/62/5 
f 88/30/5 90/31/5 89/62/5 
f 89/62/5 91/61/5 92/60/5 93/51/5 
f 92/60/5 94/52/5 93/51/5 
f 93/51/5 95/50/5 96/49/5 97/48/5 
f 89/62/5 93/51/5 97/48/5 98/43/5 
f 85/28/5 89/62/5 98/43/5 99/42/5 
f 85/28/5 99/42/5 100/41/5 101/36/5 
f 81/24/5 85/28/5 101/36/5 102/33/5 
f 81/24/5 102/33/5 103/34/5 104/35/5 
f 81/24/5 104/35/5 105/37/5 78/64/5 
f 106/47/5 107/46/5 108/53/5 109/54/5 
f 110/45/5 106/47/5 109/54/5 111/44/5 
f 109/54/5 112/56/5 113/55/5 114/57/5 
f 114/57/5 115/58/5 116/59/5 78/64/5 
f 116/59/13 117/32/13 78/64/13 
f 109/54/5 114/57/5 78/64/5 111/44/5 
f 118/39/5 111/44/5 78/64/5 119/40/5 
f 120/38/5 119/40/5 78/64/5 105/37/5 
f 77/20/5 81/24/5 78/64/5 
f 60/65/6 61/66/6 104/67/6 103/68/6 
f 61/65/14 62/66/14 105/67/14 104/68/14 
f 62/65/15 70/66/15 120/67/15 105/68/15 
f 70/65/16 71/66/16 119/67/16 120/68/16 
f 71/65/17 72/66/17 118/67/17 119/68/17 
f 72/65/18 41/66/18 111/67/18 118/68/18 
f 41/65/19 40/66/19 110/67/19 111/68/19 
f 40/65/20 39/66/20 106/67/20 110/68/20 
f 39/65/21 38/66/21 107/67/21 106/68/21 
f 38/65/22 37/66/22 108/67/22 107/68/22 
f 37/65/9 36/66/9 109/67/9 108/68/9 
f 36/65/6 35/66/6 112/67/6 109/68/6 
f 35/65/23 34/66/23 113/67/23 112/68/23 
f 34/65/24 32/66/24 114/67/24 113/68/24 
f 32/65/25 33/66/25 115/67/25 114/68/25 
f 33/65/26 31/66/26 116/67/26 115/68/26 
f 31/65/27 30/66/27 117/67/27 116/68/27 
f 30/65/28 29/66/28 78/67/28 117/68/28 
f 73/65/29 74/66/29 76/67/29 75/68/29 
f 42/65/30 69/66/30 79/67/30 77/68/30 
f 74/65/31 42/66/31 77/67/31 76/68/31 
f 29/65/32 73/66/32 75/67/32 78/68/32 
f 69/65/33 68/66/33 80/67/33 79/68/33 
f 68/65/34 67/66/34 82/67/34 80/68/34 
f 67/65/35 65/66/35 81/67/35 82/68/35 
f 65/65/36 66/66/36 83/67/36 81/68/36 
f 66/65/3 64/66/3 84/67/3 83/68/3 
f 64/65/37 63/66/37 86/67/37 84/68/37 
f 63/65/38 56/66/38 85/67/38 86/68/38 
f 56/65/39 57/66/39 87/67/39 85/68/39 
f 57/65/40 55/66/40 88/67/40 87/68/40 
f 55/65/41 54/66/41 90/67/41 88/68/41 
f 54/65/42 49/66/42 89/67/42 90/68/42 
f 49/65/43 50/66/43 91/67/43 89/68/43 
f 50/65/44 48/66/44 92/67/44 91/68/44 
f 48/65/45 47/66/45 94/67/45 92/68/45 
f 47/65/46 45/66/46 93/67/46 94/68/46 
f 45/65/47 44/66/47 95/67/47 93/68/47 
f 44/65/48 43/66/48 96/67/48 95/68/48 
f 43/65/49 46/66/49 97/67/49 96/68/49 
f 46/65/50 51/66/50 98/67/50 97/68/50 
f 51/65/51 52/66/51 99/67/51 98/68/51 
f 52/65/52 53/66/52 100/67/52 99/68/52 
f 53/65/53 58/66/53 101/67/53 100/68/53 
f 58/65/54 59/66/54 102/67/54 101/68/54 
f 59/65/55 60/66/55 103/67/55 102/68/55 
f 121/7/1 122/8/1 123/9/1 124/10/1 
f 122/7/3 125/8/3 126/9/3 123/10/3 
f 125/7/5 127/8/5 128/9/5 126/10/5 
f 127/7/6 121/8/6 124/9/6 128/10/6 
s 1
f 128/7/56 124/8/23 129/9/23 130/10/56 
s off
f 127/7/9 125/8/9 122/9/9 121/10/9 
f 131/7/4 132/8/4 133/9/4 134/10/4 
s 1
f 126/7/23 128/8/56 130/9/56 132/10/23 
f 124/7/23 123/8/56 131/9/56 129/10/23 
f 123/7/56 126/8/23 132/9/23 131/10/56 
s off
f 135/7/8 134/8/8 133/9/8 136/10/8 
f 132/7/5 130/8/5 136/9/5 133/10/5 
f 129/7/1 131/8/1 134/9/1 135/10/1 
f 130/7/7 129/8/7 135/9/7 136/10/7 
f 137/19/10 138/20/10 139/21/10 140/22/10 
f 139/21/10 141/23/10 140/22/10 
f 140/22/10 142/24/10 143/25/10 144/26/10 
f 144/26/10 145/27/10 146/28/10 147/29/10 
f 140/22/10 144/26/10 147/29/10 148/30/10 
f 140/22/10 148/30/10 149/31/10 150/32/10 
f 151/33/5 152/34/5 153/35/5 154/36/5 
f 153/35/10 155/37/10 156/38/10 157/39/10 
f 156/38/10 158/40/10 157/39/10 
f 154/36/10 153/35/10 157/39/10 159/41/10 
f 160/42/57 159/41/57 157/39/57 161/43/57 
f 157/39/10 162/44/10 163/45/10 164/46/10 
f 163/45/57 165/47/57 164/46/57 
f 161/43/10 157/39/10 164/46/10 166/48/10 
f 167/49/13 166/48/13 164/46/13 168/50/13 
f 169/51/10 168/50/10 164/46/10 170/52/10 
f 164/46/10 171/53/10 172/54/10 173/55/10 
f 172/54/10 174/56/10 173/55/10 
f 173/55/10 175/57/10 176/58/10 150/32/10 
f 176/58/10 177/59/10 150/32/10 
f 164/46/10 173/55/10 150/32/10 170/52/10 
f 178/60/10 170/52/10 150/32/10 179/61/10 
f 180/62/57 179/61/57 150/32/57 149/31/57 
f 137/19/10 140/22/10 150/32/10 181/63/10 
f 181/63/10 150/32/10 182/64/10 
f 183/63/2 184/19/2 185/20/2 186/64/2 
f 185/20/2 187/21/2 188/23/2 189/24/2 
f 188/23/2 190/22/2 189/24/2 
f 189/24/2 191/25/2 192/26/2 193/28/2 
f 192/26/2 194/27/2 193/28/2 
f 193/28/2 195/29/2 196/30/2 197/62/2 
f 196/30/2 198/31/2 197/62/2 
f 197/62/2 199/61/2 200/60/2 201/51/2 
f 200/60/2 202/52/2 201/51/2 
f 201/51/2 203/50/2 204/49/2 205/48/2 
f 197/62/2 201/51/2 205/48/2 206/43/2 
f 193/28/2 197/62/2 206/43/2 207/42/2 
f 193/28/2 207/42/2 208/41/2 209/36/2 
f 189/24/2 193/28/2 209/36/2 210/33/2 
f 189/24/2 210/33/2 211/34/2 212/35/2 
f 189/24/2 212/35/2 213/37/2 186/64/2 
f 214/47/2 215/46/2 216/53/2 217/54/2 
f 218/45/2 214/47/2 217/54/2 219/44/2 
f 217/54/2 220/56/2 221/55/2 222/57/2 
f 222/57/2 223/58/2 224/59/2 186/64/2 
f 224/59/2 225/32/2 186/64/2 
f 217/54/2 222/57/2 186/64/2 219/44/2 
f 226/39/2 219/44/2 186/64/2 227/40/2 
f 228/38/2 227/40/2 186/64/2 213/37/2 
f 185/20/2 189/24/2 186/64/2 
f 168/65/4 169/66/4 212/67/4 211/68/4 
f 169/65/58 170/66/58 213/67/58 212/68/58 
f 170/65/59 178/66/59 228/67/59 213/68/59 
f 178/65/60 179/66/60 227/67/60 228/68/60 
f 179/65/61 180/66/61 226/67/61 227/68/61 
f 180/65/62 149/66/62 219/67/62 226/68/62 
f 149/65/63 148/66/63 218/67/63 219/68/63 
f 148/65/64 147/66/64 214/67/64 218/68/64 
f 147/65/65 146/66/65 215/67/65 214/68/65 
f 146/65/66 145/66/66 216/67/66 215/68/66 
f 145/65/9 144/66/9 217/67/9 216/68/9 
f 144/65/4 143/66/4 220/67/4 217/68/4 
f 143/65/8 142/66/8 221/67/8 220/68/8 
f 142/65/67 140/66/67 222/67/67 221/68/67 
f 140/65/68 141/66/68 223/67/68 222/68/68 
f 141/65/69 139/66/69 224/67/69 223/68/69 
f 139/65/70 138/66/70 225/67/70 224/68/70 
f 138/65/71 137/66/71 186/67/71 225/68/71 
f 181/65/72 182/66/72 184/67/72 183/68/72 
f 150/65/73 177/66/73 187/67/73 185/68/73 
f 182/65/74 150/66/74 185/67/74 184/68/74 
f 137/65/75 181/66/75 183/67/75 186/68/75 
f 177/65/76 176/66/76 188/67/76 187/68/76 
f 176/65/77 175/66/77 190/67/77 188/68/77 
f 175/65/78 173/66/78 189/67/78 190/68/78 
f 173/65/79 174/66/79 191/67/79 189/68/79 
f 174/65/7 172/66/7 192/67/7 191/68/7 
f 172/65/80 171/66/80 194/67/80 192/68/80 
f 171/65/81 164/66/81 193/67/81 194/68/81 
f 164/65/82 165/66/82 195/67/82 193/68/82 
f 165/65/83 163/66/83 196/67/83 195/68/83 
f 163/65/84 162/66/84 198/67/84 196/68/84 
f 162/65/85 157/66/85 197/67/85 198/68/85 
f 157/65/86 158/66/86 199/67/86 197/68/86 
f 158/65/87 156/66/87 200/67/87 199/68/87 
f 156/65/88 155/66/88 202/67/88 200/68/88 
f 155/65/89 153/66/89 201/67/89 202/68/89 
f 153/65/90 152/66/90 203/67/90 201/68/90 
f 152/65/91 151/66/91 204/67/91 203/68/91 
f 151/65/92 154/66/92 205/67/92 204/68/92 
f 154/65/93 159/66/93 206/67/93 205/68/93 
f 159/65/94 160/66/94 207/67/94 206/68/94 
f 160/65/95 161/66/95 208/67/95 207/68/95 
f 161/65/96 166/66/96 209/67/96 208/68/96 
f 166/65/97 167/66/97 210/67/97 209/68/97 
f 167/65/98 168/66/98 211/67/98 210/68/98 
s 2
f 28/11/6 20/12/6 1/69/6 7/70/6 
s 1
f 15/11/5 28/12/5 7/69/5 5/70/5 
s 2
f 16/11/3 15/12/3 5/69/3 2/70/3 
s 1
f 20/11/1 16/12/2 2/69/2 1/70/1 
# 208 polygons - 24 triangles

