# 3ds Max Wavefront OBJ Exporter v0.97b - (c)2007 guruware
# File Created: 15.03.2017 10:45:17

mtllib SPW_Urban_Bldg_Shop_01.mtl

#
# object SPW_Urban_Bldg_Shop_01
#

v  202.0113 610.7284 150.5905
v  194.9875 610.7284 150.5905
v  194.9875 527.0670 150.5905
v  202.0113 527.0670 150.5905
v  194.9875 610.7284 100.3937
v  194.9875 527.0670 100.3937
v  202.0113 610.7284 100.3937
v  202.0113 527.0670 100.3937
v  202.0113 530.3675 103.7517
v  202.0113 530.3675 147.2325
v  201.2297 530.3675 103.7517
v  201.2297 530.3675 147.2325
v  202.0113 607.4278 147.2325
v  202.0113 607.4278 103.7517
v  201.2297 607.4278 103.7517
v  201.2297 607.4278 147.2325
v  202.0113 476.8701 150.5905
v  194.9875 476.8701 150.5905
v  194.9875 393.2087 150.5905
v  202.0113 393.2087 150.5905
v  194.9875 476.8701 100.3937
v  194.9875 393.2087 100.3937
v  202.0113 476.8701 100.3937
v  202.0113 393.2087 100.3937
v  202.0113 396.5093 103.7517
v  202.0113 396.5093 147.2325
v  201.2297 396.5093 103.7517
v  201.2297 396.5093 147.2325
v  202.0113 473.5696 147.2325
v  202.0113 473.5696 103.7517
v  201.2297 473.5696 103.7517
v  201.2297 473.5696 147.2325
v  202.0113 343.0119 150.5906
v  194.9875 343.0119 150.5906
v  194.9875 259.3505 150.5906
v  202.0112 259.3505 150.5906
v  194.9875 343.0119 100.3937
v  194.9875 259.3505 100.3937
v  202.0113 343.0119 100.3937
v  202.0112 259.3505 100.3937
v  202.0112 262.6510 103.7517
v  202.0112 262.6510 147.2325
v  201.2297 262.6510 103.7517
v  201.2297 262.6510 147.2325
v  202.0113 339.7113 147.2325
v  202.0113 339.7113 103.7517
v  201.2297 339.7113 103.7517
v  201.2297 339.7113 147.2325
v  208.7568 259.3898 154.8630
v  193.0088 259.3898 154.8630
v  193.0088 239.7616 154.8630
v  208.7568 251.5158 154.8630
v  193.0088 259.3898 95.8078
v  193.0088 239.7616 95.8078
v  208.7568 259.3898 95.8078
v  208.7568 251.5158 95.8078
v  208.7568 393.1633 154.8629
v  193.0088 393.1633 154.8629
v  193.0088 373.5350 154.8629
v  208.7568 385.2892 154.8629
v  193.0088 393.1633 95.8078
v  193.0088 373.5350 95.8078
v  208.7569 393.1633 95.8078
v  208.7569 385.2892 95.8078
v  208.7568 527.0599 154.8629
v  193.0088 527.0599 154.8629
v  193.0088 507.4317 154.8629
v  208.7568 519.1859 154.8629
v  193.0088 527.0599 95.8078
v  193.0088 507.4317 95.8078
v  208.7568 527.0599 95.8078
v  208.7568 519.1859 95.8078
v  -202.0112 610.7284 100.3936
v  -194.9874 610.7284 100.3936
v  -194.9874 527.0670 100.3936
v  -202.0112 527.0670 100.3936
v  -194.9874 610.7284 150.5904
v  -194.9874 527.0670 150.5905
v  -202.0112 610.7284 150.5904
v  -202.0112 527.0670 150.5905
v  -202.0112 530.3675 147.2324
v  -202.0112 530.3675 103.7516
v  -201.2296 530.3675 147.2324
v  -201.2296 530.3675 103.7516
v  -202.0112 607.4278 103.7516
v  -202.0112 607.4278 147.2324
v  -201.2296 607.4278 147.2324
v  -201.2296 607.4278 103.7516
v  -202.0112 476.8701 100.3936
v  -194.9874 476.8701 100.3936
v  -194.9874 393.2087 100.3936
v  -202.0112 393.2087 100.3936
v  -194.9874 476.8701 150.5905
v  -194.9874 393.2087 150.5905
v  -202.0112 476.8701 150.5905
v  -202.0112 393.2087 150.5905
v  -202.0112 396.5093 147.2324
v  -202.0112 396.5093 103.7516
v  -201.2296 396.5093 147.2324
v  -201.2296 396.5093 103.7516
v  -202.0112 473.5696 103.7516
v  -202.0112 473.5696 147.2324
v  -201.2296 473.5696 147.2324
v  -201.2296 473.5696 103.7516
v  -202.0111 343.0119 100.3936
v  -194.9874 343.0119 100.3936
v  -194.9874 259.3505 100.3936
v  -202.0111 259.3505 100.3936
v  -194.9874 343.0119 150.5905
v  -194.9874 259.3505 150.5905
v  -202.0112 343.0119 150.5905
v  -202.0111 259.3505 150.5905
v  -202.0111 262.6510 147.2325
v  -202.0111 262.6510 103.7517
v  -201.2296 262.6510 147.2325
v  -201.2296 262.6510 103.7517
v  -202.0111 339.7113 103.7517
v  -202.0112 339.7113 147.2325
v  -201.2296 339.7113 147.2325
v  -201.2296 339.7113 103.7517
v  -208.7567 527.0599 96.2337
v  -193.0087 527.0599 96.2337
v  -193.0087 507.4317 96.2337
v  -208.7567 519.1859 96.2337
v  -193.0087 527.0599 155.2888
v  -193.0087 507.4317 155.2889
v  -208.7567 527.0599 155.2888
v  -208.7567 519.1859 155.2888
v  -208.7567 393.1633 96.2337
v  -193.0087 393.1633 96.2338
v  -193.0087 373.5350 96.2338
v  -208.7567 385.2892 96.2337
v  -193.0087 393.1633 155.2889
v  -193.0087 373.5350 155.2889
v  -208.7567 393.1633 155.2889
v  -208.7567 385.2892 155.2889
v  -208.7567 259.3898 96.2338
v  -193.0087 259.3898 96.2338
v  -193.0087 239.7616 96.2338
v  -208.7567 251.5158 96.2338
v  -193.0087 259.3898 155.2889
v  -193.0087 239.7616 155.2889
v  -208.7567 259.3898 155.2889
v  -208.7567 251.5158 155.2889
v  150.5906 610.7283 -185.1677
v  150.5906 610.7283 -178.1440
v  150.5906 527.0669 -178.1439
v  150.5906 527.0669 -185.1677
v  100.3937 610.7283 -178.1440
v  100.3937 527.0669 -178.1439
v  100.3937 610.7283 -185.1677
v  100.3937 527.0669 -185.1677
v  103.7518 530.3674 -185.1677
v  147.2325 530.3674 -185.1677
v  103.7518 530.3674 -184.3861
v  147.2325 530.3674 -184.3861
v  147.2325 607.4277 -185.1677
v  103.7518 607.4277 -185.1677
v  103.7518 607.4277 -184.3861
v  147.2325 607.4277 -184.3861
v  -100.3937 610.7283 -185.1677
v  -100.3937 610.7283 -178.1440
v  -100.3937 527.0669 -178.1440
v  -100.3937 527.0669 -185.1677
v  -150.5905 610.7283 -178.1440
v  -150.5905 527.0669 -178.1440
v  -150.5905 610.7283 -185.1677
v  -150.5905 527.0669 -185.1677
v  -147.2325 530.3674 -185.1677
v  -103.7517 530.3674 -185.1677
v  -147.2325 530.3674 -184.3861
v  -103.7517 530.3674 -184.3861
v  -103.7517 607.4277 -185.1677
v  -147.2325 607.4277 -185.1677
v  -147.2325 607.4277 -184.3861
v  -103.7517 607.4277 -184.3861
v  -100.3937 476.8701 -185.1677
v  -100.3937 476.8701 -178.1439
v  -100.3937 393.2086 -178.1439
v  -100.3937 393.2086 -185.1677
v  -150.5905 476.8701 -178.1439
v  -150.5905 393.2086 -178.1439
v  -150.5905 476.8701 -185.1677
v  -150.5905 393.2086 -185.1677
v  -147.2325 396.5092 -185.1677
v  -103.7517 396.5092 -185.1677
v  -147.2325 396.5092 -184.3861
v  -103.7517 396.5092 -184.3861
v  -103.7517 473.5695 -185.1677
v  -147.2325 473.5695 -185.1677
v  -147.2325 473.5695 -184.3861
v  -103.7517 473.5695 -184.3861
v  150.5906 476.8701 -185.1676
v  150.5906 476.8701 -178.1439
v  150.5906 393.2086 -178.1439
v  150.5906 393.2086 -185.1676
v  100.3937 476.8701 -178.1439
v  100.3937 393.2086 -178.1439
v  100.3937 476.8701 -185.1676
v  100.3937 393.2086 -185.1676
v  103.7518 396.5092 -185.1676
v  147.2325 396.5092 -185.1676
v  103.7518 396.5092 -184.3860
v  147.2325 396.5092 -184.3860
v  147.2325 473.5695 -185.1676
v  103.7518 473.5695 -185.1676
v  103.7518 473.5695 -184.3861
v  147.2325 473.5695 -184.3861
v  150.5906 343.0118 -185.1676
v  150.5906 343.0118 -178.1439
v  150.5906 259.3504 -178.1438
v  150.5906 259.3504 -185.1676
v  100.3937 343.0118 -178.1439
v  100.3937 259.3504 -178.1438
v  100.3937 343.0118 -185.1676
v  100.3937 259.3504 -185.1676
v  103.7518 262.6510 -185.1676
v  147.2325 262.6510 -185.1676
v  103.7518 262.6510 -184.3860
v  147.2325 262.6510 -184.3860
v  147.2325 339.7112 -185.1676
v  103.7518 339.7112 -185.1676
v  103.7518 339.7112 -184.3860
v  147.2325 339.7112 -184.3860
v  -100.3937 343.0118 -185.1676
v  -100.3937 343.0118 -178.1439
v  -100.3937 259.3504 -178.1439
v  -100.3937 259.3504 -185.1676
v  -150.5905 343.0118 -178.1439
v  -150.5905 259.3504 -178.1439
v  -150.5905 343.0118 -185.1676
v  -150.5905 259.3504 -185.1676
v  -147.2325 262.6510 -185.1676
v  -103.7517 262.6510 -185.1676
v  -147.2325 262.6510 -184.3860
v  -103.7517 262.6510 -184.3860
v  -103.7517 339.7112 -185.1676
v  -147.2325 339.7112 -185.1676
v  -147.2325 339.7112 -184.3861
v  -103.7517 339.7112 -184.3861
v  -21.7389 262.6510 -185.1676
v  -21.7389 339.7112 -185.1676
v  -21.7389 339.7112 -184.3860
v  -21.7389 262.6510 -184.3860
v  21.7418 339.7112 -185.1676
v  21.7418 339.7112 -184.3860
v  -25.0970 259.3504 -185.1676
v  -25.0970 343.0118 -185.1676
v  25.0999 343.0118 -185.1676
v  25.0999 259.3504 -185.1676
v  21.7418 262.6510 -185.1676
v  21.7418 262.6510 -184.3860
v  -25.0970 343.0118 -178.1439
v  25.0999 343.0118 -178.1439
v  -25.0970 259.3504 -178.1439
v  25.0999 259.3504 -178.1439
v  21.7418 473.5695 -185.1677
v  21.7418 396.5092 -185.1676
v  21.7418 396.5092 -184.3861
v  21.7418 473.5695 -184.3861
v  -21.7389 473.5695 -184.3861
v  -21.7389 396.5092 -184.3861
v  -21.7389 473.5695 -185.1677
v  -21.7389 396.5092 -185.1676
v  -25.0970 393.2086 -185.1676
v  -25.0970 476.8701 -185.1677
v  25.0999 476.8701 -185.1677
v  25.0999 393.2086 -185.1676
v  25.0999 393.2086 -178.1439
v  -25.0970 393.2086 -178.1439
v  -25.0970 476.8701 -178.1439
v  25.0999 476.8701 -178.1439
v  -21.7389 530.3674 -185.1677
v  -21.7389 607.4277 -185.1677
v  -21.7389 607.4277 -184.3861
v  -21.7389 530.3674 -184.3861
v  21.7418 607.4277 -185.1677
v  21.7418 530.3674 -185.1677
v  21.7418 530.3674 -184.3861
v  21.7418 607.4277 -184.3861
v  25.0999 610.7283 -185.1677
v  25.0999 527.0669 -185.1677
v  -25.0970 610.7283 -185.1677
v  -25.0970 527.0669 -185.1677
v  25.0999 527.0669 -178.1440
v  -25.0970 527.0669 -178.1440
v  25.0999 610.7283 -178.1440
v  -25.0970 610.7283 -178.1440
v  29.5276 259.3897 -191.9132
v  29.5276 259.3897 -176.1652
v  29.5276 239.7616 -176.1652
v  29.5276 251.5157 -191.9132
v  -29.5275 259.3897 -176.1652
v  -29.5275 239.7616 -176.1652
v  -29.5275 259.3897 -191.9132
v  -29.5275 251.5157 -191.9132
v  29.5276 393.1632 -191.9132
v  29.5276 393.1632 -176.1652
v  29.5276 373.5350 -176.1652
v  29.5276 385.2892 -191.9132
v  -29.5275 393.1632 -176.1652
v  -29.5275 373.5350 -176.1652
v  -29.5275 393.1632 -191.9132
v  -29.5275 385.2892 -191.9132
v  29.5276 527.0598 -191.9133
v  29.5276 527.0598 -176.1652
v  29.5276 507.4316 -176.1652
v  29.5276 519.1858 -191.9133
v  -29.5275 527.0598 -176.1652
v  -29.5275 507.4316 -176.1652
v  -29.5275 527.0598 -191.9133
v  -29.5275 519.1858 -191.9133
v  -96.2338 527.0598 -191.9133
v  -96.2338 527.0598 -176.1653
v  -96.2338 507.4316 -176.1652
v  -96.2338 519.1858 -191.9133
v  -155.2889 527.0598 -176.1653
v  -155.2889 507.4316 -176.1652
v  -155.2889 527.0598 -191.9133
v  -155.2889 519.1858 -191.9133
v  -96.2338 393.1632 -191.9132
v  -96.2338 393.1632 -176.1652
v  -96.2338 373.5350 -176.1652
v  -96.2338 385.2892 -191.9132
v  -155.2889 393.1632 -176.1652
v  -155.2889 373.5350 -176.1652
v  -155.2889 393.1632 -191.9132
v  -155.2889 385.2892 -191.9132
v  -96.2338 259.3897 -191.9132
v  -96.2338 259.3897 -176.1652
v  -96.2338 239.7616 -176.1652
v  -96.2338 251.5157 -191.9132
v  -155.2889 259.3897 -176.1652
v  -155.2889 239.7616 -176.1652
v  -155.2889 259.3897 -191.9132
v  -155.2889 251.5157 -191.9132
v  154.8630 259.3897 -191.9132
v  154.8630 259.3897 -176.1651
v  154.8630 239.7616 -176.1651
v  154.8630 251.5157 -191.9132
v  95.8078 259.3897 -176.1651
v  95.8078 239.7616 -176.1651
v  95.8078 259.3897 -191.9132
v  95.8078 251.5157 -191.9132
v  154.8630 393.1632 -191.9132
v  154.8630 393.1632 -176.1652
v  154.8630 373.5350 -176.1652
v  154.8630 385.2892 -191.9132
v  95.8078 393.1632 -176.1652
v  95.8078 373.5350 -176.1652
v  95.8078 393.1632 -191.9132
v  95.8078 385.2892 -191.9132
v  154.8630 527.0598 -191.9132
v  154.8630 527.0598 -176.1652
v  154.8630 507.4316 -176.1652
v  154.8630 519.1858 -191.9132
v  95.8078 527.0598 -176.1652
v  95.8078 507.4316 -176.1652
v  95.8078 527.0598 -191.9132
v  95.8078 519.1858 -191.9132
v  -48.2283 8.3661 -225.0759
v  -48.2283 8.3662 -124.6822
v  -48.2283 -0.0000 -124.6822
v  -48.2283 -0.0000 -225.0759
v  -148.6220 8.3662 -124.6822
v  -148.6220 -0.0000 -124.6822
v  -148.6220 8.3661 -225.0759
v  -148.6220 -0.0000 -225.0759
v  -64.9606 25.0984 -208.3437
v  -64.9606 25.0984 -141.4145
v  -64.9606 16.7323 -141.4145
v  -64.9606 16.7323 -208.3437
v  -131.8897 25.0984 -141.4145
v  -131.8897 16.7323 -141.4145
v  -131.8897 25.0984 -208.3437
v  -131.8897 16.7323 -208.3437
v  -56.5945 16.7322 -216.7098
v  -56.5945 16.7323 -133.0483
v  -56.5945 8.3661 -133.0483
v  -56.5945 8.3661 -216.7098
v  -140.2559 16.7323 -133.0483
v  -140.2559 8.3661 -133.0483
v  -140.2559 16.7322 -216.7098
v  -140.2559 8.3661 -216.7098
v  204.1339 25.0984 -187.4016
v  204.1338 25.0985 187.4016
v  204.1338 0.0000 187.4016
v  204.1339 -0.0001 -187.4016
v  -204.1339 25.0985 187.4016
v  -204.1339 0.0000 187.4016
v  -204.1338 25.0984 -187.4016
v  -204.1338 -0.0001 -187.4016
v  150.5906 142.2244 -185.1676
v  150.5906 142.2244 -178.1438
v  150.5906 58.5630 -178.1438
v  150.5906 58.5630 -185.1676
v  21.6536 142.2244 -178.1438
v  21.6536 58.5630 -178.1438
v  21.6536 142.2244 -185.1676
v  21.6536 58.5630 -185.1676
v  25.0116 61.8636 -185.1676
v  147.2325 61.8636 -185.1676
v  25.0116 61.8636 -184.3860
v  147.2325 61.8636 -184.3860
v  147.2325 138.9238 -185.1676
v  25.0116 138.9238 -185.1676
v  25.0116 138.9238 -184.3860
v  147.2325 138.9238 -184.3860
v  -64.9606 142.2244 -185.1709
v  -64.9606 142.2244 -177.2768
v  -64.9606 25.0984 -177.2767
v  -64.9606 25.0984 -185.1708
v  -131.8897 142.2244 -177.2768
v  -131.8897 25.0984 -177.2767
v  -131.8897 142.2244 -185.1709
v  -131.8897 25.0984 -185.1708
v  -128.5077 28.4451 -185.1708
v  -68.3426 28.4451 -185.1708
v  -128.5077 28.4451 -184.4333
v  -68.3426 28.4451 -184.4333
v  -68.3426 138.8777 -185.1709
v  -128.5077 138.8777 -185.1709
v  -128.5077 138.8777 -184.4333
v  -68.3426 138.8777 -184.4333
v  200.7874 199.0286 -184.0552
v  200.7874 199.0288 184.0551
v  200.7874 25.0985 184.0552
v  200.7874 25.0984 -184.0551
v  -200.7874 199.0288 184.0550
v  -200.7874 25.0985 184.0551
v  -200.7874 199.0287 -184.0553
v  -200.7874 25.0984 -184.0552
v  200.7874 635.3049 -184.0553
v  -200.7874 635.3049 -184.0554
v  -204.1625 635.3049 -187.3794
v  204.1626 635.3049 -187.3793
v  -204.1625 653.1783 -187.3794
v  204.1626 653.1783 -187.3793
v  -200.7874 635.3051 184.0549
v  -204.1626 635.3051 187.3789
v  200.7874 635.3051 184.0550
v  204.1625 635.3051 187.3790
v  -187.2508 653.1783 -170.6051
v  187.2508 653.1783 -170.6050
v  -204.1626 653.1785 187.3790
v  204.1625 653.1785 187.3790
v  -187.2508 643.7017 -170.6051
v  187.2508 643.7017 -170.6050
v  -187.2508 653.1785 170.6046
v  187.2507 653.1785 170.6047
v  -187.2508 643.7018 170.6046
v  187.2507 643.7018 170.6047
v  200.7874 208.6212 -184.0552
v  -200.7874 208.6212 -184.0553
v  -200.7874 208.6213 184.0550
v  200.7874 208.6213 184.0551
v  -177.1653 164.7490 -217.9917
v  -177.1653 164.7490 -178.6216
v  -177.1653 195.5058 -178.6216
v  -177.1653 172.6230 -217.9917
v  177.1654 164.7490 -178.6216
v  177.1654 195.5058 -178.6216
v  177.1654 164.7490 -217.9917
v  177.1654 172.6230 -217.9917
# 464 vertices

vn 0.0000 0.0000 1.0000
vn -1.0000 0.0000 -0.0000
vn 0.0000 -0.0000 -1.0000
vn 1.0000 0.0000 0.0000
vn 1.0000 -0.0000 0.0000
vn 0.0000 -1.0000 0.0000
vn 0.0000 1.0000 -0.0000
vn 1.0000 0.0000 -0.0000
vn -1.0000 -0.0000 -0.0000
vn 1.0000 -0.0000 -0.0000
vn 0.5981 -0.8014 0.0000
vn -1.0000 -0.0000 0.0000
vn -0.0000 0.0000 1.0000
vn -0.5981 -0.8014 0.0000
vn -0.0000 -0.0000 -1.0000
vn 0.0000 -0.8014 -0.5981
vn -0.0000 1.0000 -0.0000
vn -0.0000 -1.0000 0.0000
vn 0.0000 0.0000 -1.0000
vn -0.0000 -0.0000 1.0000
vn 0.0000 0.8646 -0.5025
vn -0.0000 -1.0000 -0.0000
# 22 vertex normals

vt 0.1681 0.2053 0.0000
vt 0.2181 0.2053 0.0000
vt 0.2181 0.2553 0.0000
vt 0.1681 0.2553 0.0000
vt 0.7774 0.2154 0.0000
vt 0.6638 0.2154 0.0000
vt 0.6638 0.0140 0.0000
vt 0.7774 0.0140 0.0000
vt 0.3441 0.8402 0.0000
vt 0.3224 0.8340 0.0000
vt 0.3255 0.8402 0.0000
vt 0.4595 0.9091 0.0000
vt 0.5095 0.9091 0.0000
vt 0.5095 0.9591 0.0000
vt 0.4595 0.9591 0.0000
vt 0.7447 0.8253 0.0000
vt 0.7947 0.8253 0.0000
vt 0.7947 0.8753 0.0000
vt 0.7447 0.8753 0.0000
vt 0.7612 0.4043 0.0000
vt 0.5823 0.4043 0.0000
vt 0.5823 0.2915 0.0000
vt 0.7612 0.2915 0.0000
vt 0.9764 0.5531 0.0000
vt 0.8574 0.5531 0.0000
vt 0.8574 0.3345 0.0000
vt 0.9764 0.3345 0.0000
vt 0.4223 0.5032 0.0000
vt 0.4723 0.5032 0.0000
vt 0.4723 0.5157 0.0000
vt 0.4223 0.5157 0.0000
vt 0.4750 0.4750 0.0000
vt 0.5250 0.4750 0.0000
vt 0.5250 0.5250 0.0000
vt 0.4750 0.5250 0.0000
vt 0.4533 0.8222 0.0000
vt 0.5033 0.8222 0.0000
vt 0.5033 0.8722 0.0000
vt 0.4533 0.8722 0.0000
vt 0.4347 0.9091 0.0000
vt 0.4847 0.9091 0.0000
vt 0.4847 0.9591 0.0000
vt 0.4347 0.9591 0.0000
vt 0.0564 0.4037 0.0000
vt 0.1064 0.4037 0.0000
vt 0.1064 0.4287 0.0000
vt 0.0564 0.4287 0.0000
vt 0.8594 0.8131 0.0000
vt 0.9094 0.8131 0.0000
vt 0.9094 0.8256 0.0000
vt 0.8594 0.8256 0.0000
vt 0.4578 0.8047 0.0000
vt 0.5078 0.8047 0.0000
vt 0.5078 0.8547 0.0000
vt 0.4578 0.8547 0.0000
# 55 texture coords

g SPW_Urban_Bldg_Shop_01
usemtl SPW_Urban_Bldg_Shop
s off
f 1/1/1 2/2/1 3/3/1 4/4/1 
f 2/1/2 5/2/2 6/3/2 3/4/2 
f 5/1/3 7/2/3 8/3/3 6/4/3 
s 1
f 4/1/4 8/2/5 9/3/5 10/4/4 
s off
f 4/1/6 3/2/6 6/3/6 8/4/6 
f 7/1/7 5/2/7 2/3/7 1/4/7 
f 10/1/7 9/2/7 11/3/7 12/4/7 
s 1
f 7/1/8 1/2/5 13/3/5 14/4/8 
f 8/1/5 7/2/8 14/3/8 9/4/5 
f 1/1/5 4/2/4 10/3/4 13/4/5 
s off
f 15/5/5 16/6/5 12/7/5 11/8/5 
f 14/1/6 13/2/6 16/3/6 15/4/6 
f 9/1/1 14/2/1 15/3/1 11/4/1 
f 13/1/3 10/2/3 12/3/3 16/4/3 
f 17/1/1 18/2/1 19/3/1 20/4/1 
f 18/1/9 21/2/9 22/3/9 19/4/9 
f 21/1/3 23/2/3 24/3/3 22/4/3 
s 1
f 20/1/4 24/2/5 25/3/5 26/4/4 
s off
f 20/1/6 19/2/6 22/3/6 24/4/6 
f 23/1/7 21/2/7 18/3/7 17/4/7 
f 26/1/7 25/2/7 27/3/7 28/4/7 
s 1
f 23/1/4 17/2/8 29/3/8 30/4/4 
f 24/1/5 23/2/4 30/3/4 25/4/5 
f 17/1/8 20/2/4 26/3/4 29/4/8 
s off
f 31/5/4 32/6/4 28/7/4 27/8/4 
f 30/1/6 29/2/6 32/3/6 31/4/6 
f 25/1/1 30/2/1 31/3/1 27/4/1 
f 29/1/3 26/2/3 28/3/3 32/4/3 
f 33/1/1 34/2/1 35/3/1 36/4/1 
f 34/1/2 37/2/2 38/3/2 35/4/2 
f 37/1/3 39/2/3 40/3/3 38/4/3 
s 1
f 36/1/10 40/2/5 41/3/5 42/4/10 
s off
f 36/1/6 35/2/6 38/3/6 40/4/6 
f 39/1/7 37/2/7 34/3/7 33/4/7 
f 42/1/7 41/2/7 43/3/7 44/4/7 
s 1
f 39/1/10 33/2/5 45/3/5 46/4/10 
f 40/1/5 39/2/10 46/3/10 41/4/5 
f 33/1/5 36/2/10 42/3/10 45/4/5 
s off
f 47/5/5 48/6/5 44/7/5 43/8/5 
f 46/1/6 45/2/6 48/3/6 47/4/6 
f 41/1/1 46/2/1 47/3/1 43/4/1 
f 45/1/3 42/2/3 44/3/3 48/4/3 
f 49/9/1 50/9/1 51/9/1 52/9/1 
f 50/9/2 53/9/2 54/9/2 51/9/2 
f 53/9/3 55/9/3 56/9/3 54/9/3 
f 55/9/8 49/9/8 52/9/8 56/9/8 
f 52/9/11 51/9/11 54/9/11 56/9/11 
f 55/9/7 53/9/7 50/9/7 49/9/7 
f 57/9/1 58/9/1 59/9/1 60/9/1 
f 58/9/2 61/9/2 62/9/2 59/9/2 
f 61/9/3 63/9/3 64/9/3 62/9/3 
f 63/9/4 57/9/4 60/9/4 64/9/4 
f 60/9/11 59/9/11 62/9/11 64/9/11 
f 63/9/7 61/9/7 58/9/7 57/9/7 
f 65/9/1 66/9/1 67/9/1 68/9/1 
f 66/9/9 69/9/9 70/9/9 67/9/9 
f 69/9/3 71/9/3 72/9/3 70/9/3 
f 71/9/4 65/9/4 68/9/4 72/9/4 
f 68/9/11 67/9/11 70/9/11 72/9/11 
f 71/9/7 69/9/7 66/9/7 65/9/7 
f 73/1/3 74/2/3 75/3/3 76/4/3 
f 74/1/8 77/2/8 78/3/8 75/4/8 
f 77/1/1 79/2/1 80/3/1 78/4/1 
s 1
f 76/1/12 80/2/9 81/3/9 82/4/12 
s off
f 76/1/6 75/2/6 78/3/6 80/4/6 
f 79/1/7 77/2/7 74/3/7 73/4/7 
f 82/1/7 81/2/7 83/3/7 84/4/7 
s 1
f 79/1/12 73/2/9 85/3/9 86/4/12 
f 80/1/9 79/2/12 86/3/12 81/4/9 
f 73/1/9 76/2/12 82/3/12 85/4/9 
s off
f 87/5/12 88/6/12 84/7/12 83/8/12 
f 86/1/6 85/2/6 88/3/6 87/4/6 
f 81/1/3 86/2/3 87/3/3 83/4/3 
f 85/1/1 82/2/1 84/3/1 88/4/1 
f 89/1/3 90/2/3 91/3/3 92/4/3 
f 90/1/8 93/2/8 94/3/8 91/4/8 
f 93/1/1 95/2/1 96/3/1 94/4/1 
s 1
f 92/1/2 96/2/2 97/3/2 98/4/2 
s off
f 92/1/6 91/2/6 94/3/6 96/4/6 
f 95/1/7 93/2/7 90/3/7 89/4/7 
f 98/1/7 97/2/7 99/3/7 100/4/7 
s 1
f 95/1/2 89/2/2 101/3/2 102/4/2 
f 96/1/2 95/2/2 102/3/2 97/4/2 
f 89/1/2 92/2/2 98/3/2 101/4/2 
s off
f 103/5/2 104/6/2 100/7/2 99/8/2 
f 102/1/6 101/2/6 104/3/6 103/4/6 
f 97/1/3 102/2/3 103/3/3 99/4/3 
f 101/1/1 98/2/1 100/3/1 104/4/1 
f 105/1/3 106/2/3 107/3/3 108/4/3 
f 106/1/4 109/2/4 110/3/4 107/4/4 
f 109/1/1 111/2/1 112/3/1 110/4/1 
s 1
f 108/1/2 112/2/9 113/3/9 114/4/2 
s off
f 108/1/6 107/2/6 110/3/6 112/4/6 
f 111/1/7 109/2/7 106/3/7 105/4/7 
f 114/1/7 113/2/7 115/3/7 116/4/7 
s 1
f 111/1/2 105/2/9 117/3/9 118/4/2 
f 112/1/9 111/2/2 118/3/2 113/4/9 
f 105/1/9 108/2/2 114/3/2 117/4/9 
s off
f 119/5/9 120/6/9 116/7/9 115/8/9 
f 118/1/6 117/2/6 120/3/6 119/4/6 
f 113/1/3 118/2/3 119/3/3 115/4/3 
f 117/1/1 114/2/1 116/3/1 120/4/1 
f 121/10/3 122/10/3 123/10/3 124/10/3 
f 122/10/8 125/10/8 126/10/8 123/10/8 
f 125/10/13 127/10/13 128/10/13 126/10/13 
f 127/10/2 121/10/2 124/10/2 128/10/2 
f 124/10/14 123/10/14 126/10/14 128/10/14 
f 127/10/7 125/10/7 122/10/7 121/10/7 
f 129/10/3 130/10/3 131/10/3 132/10/3 
f 130/10/8 133/10/8 134/10/8 131/10/8 
f 133/10/13 135/10/13 136/10/13 134/10/13 
f 135/10/2 129/10/2 132/10/2 136/10/2 
f 132/10/14 131/10/14 134/10/14 136/10/14 
f 135/10/7 133/10/7 130/10/7 129/10/7 
f 137/10/3 138/10/3 139/10/3 140/10/3 
f 138/10/4 141/10/4 142/10/4 139/10/4 
f 141/10/13 143/10/13 144/10/13 142/10/13 
f 143/10/2 137/10/2 140/10/2 144/10/2 
f 140/10/14 139/10/14 142/10/14 144/10/14 
f 143/10/7 141/10/7 138/10/7 137/10/7 
f 145/1/8 146/2/8 147/3/8 148/4/8 
f 146/1/1 149/2/1 150/3/1 147/4/1 
f 149/1/2 151/2/2 152/3/2 150/4/2 
s 1
f 148/1/3 152/2/3 153/3/3 154/4/3 
s off
f 148/1/6 147/2/6 150/3/6 152/4/6 
f 151/1/7 149/2/7 146/3/7 145/4/7 
f 154/1/7 153/2/7 155/3/7 156/4/7 
s 1
f 151/1/3 145/2/3 157/3/3 158/4/3 
f 152/1/3 151/2/3 158/3/3 153/4/3 
f 145/1/3 148/2/3 154/3/3 157/4/3 
s off
f 159/5/3 160/6/3 156/7/3 155/8/3 
f 158/1/6 157/2/6 160/3/6 159/4/6 
f 153/1/8 158/2/8 159/3/8 155/4/8 
f 157/1/2 154/2/2 156/3/2 160/4/2 
f 161/1/8 162/2/8 163/3/8 164/4/8 
f 162/1/1 165/2/1 166/3/1 163/4/1 
f 165/1/2 167/2/2 168/3/2 166/4/2 
s 1
f 164/1/3 168/2/3 169/3/3 170/4/3 
s off
f 164/1/6 163/2/6 166/3/6 168/4/6 
f 167/1/7 165/2/7 162/3/7 161/4/7 
f 170/1/7 169/2/7 171/3/7 172/4/7 
s 1
f 167/1/3 161/2/3 173/3/3 174/4/3 
f 168/1/3 167/2/3 174/3/3 169/4/3 
f 161/1/3 164/2/3 170/3/3 173/4/3 
s off
f 175/5/3 176/6/3 172/7/3 171/8/3 
f 174/1/6 173/2/6 176/3/6 175/4/6 
f 169/1/8 174/2/8 175/3/8 171/4/8 
f 173/1/2 170/2/2 172/3/2 176/4/2 
f 177/1/8 178/2/8 179/3/8 180/4/8 
f 178/1/1 181/2/1 182/3/1 179/4/1 
f 181/1/2 183/2/2 184/3/2 182/4/2 
s 1
f 180/1/3 184/2/3 185/3/3 186/4/3 
s off
f 180/1/6 179/2/6 182/3/6 184/4/6 
f 183/1/7 181/2/7 178/3/7 177/4/7 
f 186/1/7 185/2/7 187/3/7 188/4/7 
s 1
f 183/1/3 177/2/3 189/3/3 190/4/3 
f 184/1/3 183/2/3 190/3/3 185/4/3 
f 177/1/3 180/2/3 186/3/3 189/4/3 
s off
f 191/5/3 192/6/3 188/7/3 187/8/3 
f 190/1/6 189/2/6 192/3/6 191/4/6 
f 185/1/8 190/2/8 191/3/8 187/4/8 
f 189/1/2 186/2/2 188/3/2 192/4/2 
f 193/1/8 194/2/8 195/3/8 196/4/8 
f 194/1/1 197/2/1 198/3/1 195/4/1 
f 197/1/2 199/2/2 200/3/2 198/4/2 
s 1
f 196/1/3 200/2/3 201/3/3 202/4/3 
s off
f 196/1/6 195/2/6 198/3/6 200/4/6 
f 199/1/7 197/2/7 194/3/7 193/4/7 
f 202/1/7 201/2/7 203/3/7 204/4/7 
s 1
f 199/1/3 193/2/3 205/3/3 206/4/3 
f 200/1/3 199/2/3 206/3/3 201/4/3 
f 193/1/3 196/2/3 202/3/3 205/4/3 
s off
f 207/5/3 208/6/3 204/7/3 203/8/3 
f 206/1/6 205/2/6 208/3/6 207/4/6 
f 201/1/8 206/2/8 207/3/8 203/4/8 
f 205/1/2 202/2/2 204/3/2 208/4/2 
f 209/1/8 210/2/8 211/3/8 212/4/8 
f 210/1/1 213/2/1 214/3/1 211/4/1 
f 213/1/2 215/2/2 216/3/2 214/4/2 
s 1
f 212/1/15 216/2/3 217/3/3 218/4/15 
s off
f 212/1/6 211/2/6 214/3/6 216/4/6 
f 215/1/7 213/2/7 210/3/7 209/4/7 
f 218/1/7 217/2/7 219/3/7 220/4/7 
s 1
f 215/1/15 209/2/3 221/3/3 222/4/15 
f 216/1/3 215/2/15 222/3/15 217/4/3 
f 209/1/3 212/2/15 218/3/15 221/4/3 
s off
f 223/5/3 224/6/3 220/7/3 219/8/3 
f 222/1/6 221/2/6 224/3/6 223/4/6 
f 217/1/8 222/2/8 223/3/8 219/4/8 
f 221/1/2 218/2/2 220/3/2 224/4/2 
f 225/1/8 226/2/8 227/3/8 228/4/8 
f 226/1/1 229/2/1 230/3/1 227/4/1 
f 229/1/2 231/2/2 232/3/2 230/4/2 
s 1
f 228/1/15 232/2/3 233/3/3 234/4/15 
s off
f 228/1/6 227/2/6 230/3/6 232/4/6 
f 231/1/7 229/2/7 226/3/7 225/4/7 
f 234/1/7 233/2/7 235/3/7 236/4/7 
s 1
f 231/1/15 225/2/3 237/3/3 238/4/15 
f 232/1/3 231/2/15 238/3/15 233/4/3 
f 225/1/3 228/2/15 234/3/15 237/4/3 
s off
f 239/5/3 240/6/3 236/7/3 235/8/3 
f 238/1/6 237/2/6 240/3/6 239/4/6 
f 233/1/8 238/2/8 239/3/8 235/4/8 
f 237/1/2 234/2/2 236/3/2 240/4/2 
f 241/1/8 242/2/8 243/3/8 244/4/8 
f 242/1/6 245/2/6 246/3/6 243/4/6 
s 1
f 247/1/3 248/2/15 242/3/15 241/4/3 
f 249/1/3 250/2/15 251/3/15 245/4/3 
s off
f 243/5/3 246/6/3 252/7/3 244/8/3 
f 245/1/2 251/2/2 252/3/2 246/4/2 
f 251/1/7 241/2/7 244/3/7 252/4/7 
f 248/1/7 253/2/7 254/3/7 249/4/7 
f 253/1/9 248/2/9 247/3/9 255/4/9 
s 1
f 250/1/15 247/2/3 241/3/3 251/4/15 
s off
f 250/1/6 256/2/6 255/3/6 247/4/6 
s 1
f 248/1/15 249/2/3 245/3/3 242/4/15 
s off
f 249/1/4 254/2/4 256/3/4 250/4/4 
f 257/1/2 258/2/2 259/3/2 260/4/2 
f 261/5/3 260/6/3 259/7/3 262/8/3 
f 263/1/6 257/2/6 260/3/6 261/4/6 
f 264/1/8 263/2/8 261/3/8 262/4/8 
f 254/1/1 253/2/1 255/3/1 256/4/1 
s 1
f 265/1/3 266/2/3 263/3/3 264/4/3 
f 266/1/3 267/2/3 257/3/3 263/4/3 
s off
f 268/1/6 269/2/6 270/3/6 265/4/6 
f 266/1/7 271/2/7 272/3/7 267/4/7 
f 258/1/7 264/2/7 262/3/7 259/4/7 
s 1
f 267/1/3 268/2/3 258/3/3 257/4/3 
s off
f 271/1/9 266/2/9 265/3/9 270/4/9 
f 272/1/1 271/2/1 270/3/1 269/4/1 
f 273/1/8 274/2/8 275/3/8 276/4/8 
f 277/1/2 278/2/2 279/3/2 280/4/2 
f 267/1/4 272/2/4 269/3/4 268/4/4 
s 1
f 268/1/3 265/2/3 264/3/3 258/4/3 
s off
f 275/5/3 280/6/3 279/7/3 276/8/3 
s 1
f 281/1/3 282/2/3 278/3/3 277/4/3 
s off
f 278/1/7 273/2/7 276/3/7 279/4/7 
s 1
f 283/1/3 281/2/3 277/3/3 274/4/3 
f 284/1/3 283/2/3 274/3/3 273/4/3 
s off
f 274/1/6 277/2/6 280/3/6 275/4/6 
f 282/1/6 285/2/6 286/3/6 284/4/6 
s 1
f 282/1/3 284/2/3 273/3/3 278/4/3 
s off
f 281/1/4 287/2/4 285/3/4 282/4/4 
f 287/1/1 288/2/1 286/3/1 285/4/1 
f 288/1/9 283/2/9 284/3/9 286/4/9 
f 283/1/7 288/2/7 287/3/7 281/4/7 
f 289/11/4 290/11/4 291/11/4 292/11/4 
f 290/11/1 293/11/1 294/11/1 291/11/1 
f 293/11/9 295/11/9 296/11/9 294/11/9 
f 295/11/3 289/11/3 292/11/3 296/11/3 
f 292/11/16 291/11/16 294/11/16 296/11/16 
f 295/11/7 293/11/7 290/11/7 289/11/7 
f 297/11/4 298/11/4 299/11/4 300/11/4 
f 298/11/1 301/11/1 302/11/1 299/11/1 
f 301/11/9 303/11/9 304/11/9 302/11/9 
f 303/11/3 297/11/3 300/11/3 304/11/3 
f 300/11/16 299/11/16 302/11/16 304/11/16 
f 303/11/7 301/11/7 298/11/7 297/11/7 
f 305/11/4 306/11/4 307/11/4 308/11/4 
f 306/11/1 309/11/1 310/11/1 307/11/1 
f 309/11/9 311/11/9 312/11/9 310/11/9 
f 311/11/3 305/11/3 308/11/3 312/11/3 
f 308/11/16 307/11/16 310/11/16 312/11/16 
f 311/11/7 309/11/7 306/11/7 305/11/7 
f 313/11/8 314/11/8 315/11/8 316/11/8 
f 314/11/1 317/11/1 318/11/1 315/11/1 
f 317/11/2 319/11/2 320/11/2 318/11/2 
f 319/11/3 313/11/3 316/11/3 320/11/3 
f 316/11/16 315/11/16 318/11/16 320/11/16 
f 319/11/7 317/11/7 314/11/7 313/11/7 
f 321/11/8 322/11/8 323/11/8 324/11/8 
f 322/11/1 325/11/1 326/11/1 323/11/1 
f 325/11/2 327/11/2 328/11/2 326/11/2 
f 327/11/3 321/11/3 324/11/3 328/11/3 
f 324/11/16 323/11/16 326/11/16 328/11/16 
f 327/11/7 325/11/7 322/11/7 321/11/7 
f 329/11/8 330/11/8 331/11/8 332/11/8 
f 330/11/1 333/11/1 334/11/1 331/11/1 
f 333/11/2 335/11/2 336/11/2 334/11/2 
f 335/11/3 329/11/3 332/11/3 336/11/3 
f 332/11/16 331/11/16 334/11/16 336/11/16 
f 335/11/7 333/11/7 330/11/7 329/11/7 
f 337/11/8 338/11/8 339/11/8 340/11/8 
f 338/11/1 341/11/1 342/11/1 339/11/1 
f 341/11/2 343/11/2 344/11/2 342/11/2 
f 343/11/3 337/11/3 340/11/3 344/11/3 
f 340/11/16 339/11/16 342/11/16 344/11/16 
f 343/11/7 341/11/7 338/11/7 337/11/7 
f 345/11/8 346/11/8 347/11/8 348/11/8 
f 346/11/1 349/11/1 350/11/1 347/11/1 
f 349/11/2 351/11/2 352/11/2 350/11/2 
f 351/11/3 345/11/3 348/11/3 352/11/3 
f 348/11/16 347/11/16 350/11/16 352/11/16 
f 351/11/7 349/11/7 346/11/7 345/11/7 
f 353/11/8 354/11/8 355/11/8 356/11/8 
f 354/11/1 357/11/1 358/11/1 355/11/1 
f 357/11/2 359/11/2 360/11/2 358/11/2 
f 359/11/3 353/11/3 356/11/3 360/11/3 
f 356/11/16 355/11/16 358/11/16 360/11/16 
f 359/11/7 357/11/7 354/11/7 353/11/7 
f 361/12/4 362/13/4 363/14/4 364/15/4 
f 362/12/13 365/13/13 366/14/13 363/15/13 
f 365/12/9 367/13/9 368/14/9 366/15/9 
f 367/12/3 361/13/3 364/14/3 368/15/3 
f 364/12/6 363/13/6 366/14/6 368/15/6 
f 367/12/17 365/13/17 362/14/17 361/15/17 
f 369/12/4 370/13/4 371/14/4 372/15/4 
f 370/12/13 373/13/13 374/14/13 371/15/13 
f 373/12/9 375/13/9 376/14/9 374/15/9 
f 375/12/3 369/13/3 372/14/3 376/15/3 
f 372/12/6 371/13/6 374/14/6 376/15/6 
f 375/12/17 373/13/17 370/14/17 369/15/17 
f 377/12/4 378/13/4 379/14/4 380/15/4 
f 378/12/13 381/13/13 382/14/13 379/15/13 
f 381/12/9 383/13/9 384/14/9 382/15/9 
f 383/12/3 377/13/3 380/14/3 384/15/3 
f 380/12/6 379/13/6 382/14/6 384/15/6 
f 383/12/17 381/13/17 378/14/17 377/15/17 
f 385/16/4 386/17/4 387/18/4 388/19/4 
f 386/16/13 389/17/13 390/18/13 387/19/13 
f 389/16/9 391/17/9 392/18/9 390/19/9 
f 391/16/3 385/17/3 388/18/3 392/19/3 
f 388/16/18 387/17/18 390/18/18 392/19/18 
f 391/16/7 389/17/7 386/18/7 385/19/7 
f 393/1/8 394/2/8 395/3/8 396/4/8 
f 394/1/13 397/2/13 398/3/13 395/4/13 
f 397/1/9 399/2/9 400/3/9 398/4/9 
s 1
f 396/1/3 400/2/15 401/3/15 402/4/3 
s off
f 396/1/6 395/2/6 398/3/6 400/4/6 
f 399/1/7 397/2/7 394/3/7 393/4/7 
f 402/1/7 401/2/7 403/3/7 404/4/7 
s 1
f 399/1/3 393/2/15 405/3/15 406/4/3 
f 400/1/15 399/2/3 406/3/3 401/4/15 
f 393/1/15 396/2/3 402/3/3 405/4/15 
s off
f 407/20/19 408/21/19 404/22/19 403/23/19 
f 406/1/6 405/2/6 408/3/6 407/4/6 
f 401/1/8 406/2/8 407/3/8 403/4/8 
f 405/1/2 402/2/2 404/3/2 408/4/2 
f 409/1/8 410/2/8 411/3/8 412/4/8 
f 410/1/1 413/2/1 414/3/1 411/4/1 
f 413/1/2 415/2/2 416/3/2 414/4/2 
s 1
f 412/1/3 416/2/3 417/3/3 418/4/3 
s off
f 412/1/6 411/2/6 414/3/6 416/4/6 
f 415/1/7 413/2/7 410/3/7 409/4/7 
f 418/1/7 417/2/7 419/3/7 420/4/7 
s 1
f 415/1/3 409/2/3 421/3/3 422/4/3 
f 416/1/3 415/2/3 422/3/3 417/4/3 
f 409/1/3 412/2/3 418/3/3 421/4/3 
s off
f 423/24/3 424/25/3 420/26/3 419/27/3 
f 422/1/6 421/2/6 424/3/6 423/4/6 
f 417/1/8 422/2/8 423/3/8 419/4/8 
f 421/1/2 418/2/2 420/3/2 424/4/2 
s 1
f 425/28/4 426/29/4 427/30/4 428/31/4 
s 2
f 426/28/13 429/29/13 430/30/13 427/31/13 
s 1
f 429/28/9 431/29/9 432/30/9 430/31/9 
s 2
f 431/28/3 425/29/3 428/30/3 432/31/3 
s off
f 428/32/18 427/33/18 430/34/18 432/35/18 
s 4
f 433/36/6 434/37/6 435/38/6 436/39/6 
s off
f 436/36/19 435/37/19 437/38/19 438/39/19 
s 4
f 434/36/6 439/37/6 440/38/6 435/39/6 
f 439/36/6 441/37/6 442/38/6 440/39/6 
f 441/36/6 433/37/6 436/38/6 442/39/6 
s 1
f 438/36/7 437/37/7 443/38/7 444/39/7 
s off
f 435/36/9 440/37/9 445/38/9 437/39/9 
f 440/36/20 442/37/20 446/38/20 445/39/20 
f 442/36/4 436/37/4 438/38/4 446/39/4 
f 444/36/20 443/37/20 447/38/20 448/39/20 
s 1
f 437/36/7 445/37/7 449/38/7 443/39/7 
f 445/36/7 446/37/7 450/38/7 449/39/7 
f 446/36/7 438/37/7 444/38/7 450/39/7 
s off
f 447/40/7 451/41/7 452/42/7 448/43/7 
f 443/36/4 449/37/4 451/38/4 447/39/4 
f 449/36/19 450/37/19 452/38/19 451/39/19 
f 450/36/9 444/37/9 448/38/9 452/39/9 
s 2
f 434/44/3 433/45/3 453/46/3 454/47/3 
s 1
f 439/44/9 434/45/9 454/46/9 455/47/9 
s 2
f 441/44/13 439/45/13 455/46/13 456/47/13 
s 1
f 433/44/4 441/45/4 456/46/4 453/47/4 
s 2
f 454/48/3 453/49/3 425/50/3 431/51/3 
s 1
f 455/48/9 454/49/9 431/50/9 429/51/9 
s 2
f 456/48/13 455/49/13 429/50/13 426/51/13 
s 1
f 453/48/4 456/49/4 426/50/4 425/51/4 
s off
f 457/52/9 458/53/9 459/54/9 460/55/9 
f 458/52/1 461/53/1 462/54/1 459/55/1 
f 461/52/4 463/53/4 464/54/4 462/55/4 
f 463/52/3 457/53/3 460/54/3 464/55/3 
f 460/52/21 459/53/21 462/54/21 464/55/21 
f 463/52/22 461/53/22 458/54/22 457/55/22 
# 388 polygons

