# 3ds Max Wavefront OBJ Exporter v0.97b - (c)2007 guruware
# File Created: 15.03.2017 10:42:02

mtllib SPW_Urban_Bldg_12.mtl

#
# object SPW_Urban_Bldg_12
#

v  -141.0098 590.5511 -365.8210
v  -141.0098 590.5512 -50.8603
v  -141.0098 -0.0000 -50.8602
v  -141.0098 -0.0001 -365.8209
v  -170.5374 -0.0001 -365.8209
v  -170.5374 472.4409 -365.8209
v  -337.8602 590.5511 -365.8210
v  -308.3326 472.4409 -365.8209
v  -308.3326 -0.0001 -365.8209
v  -337.8602 -0.0001 -365.8209
v  -337.8602 590.5512 -50.8603
v  -156.8146 590.5512 -66.8540
v  -322.0554 590.5512 -66.8540
v  -337.8602 -0.0000 -50.8603
v  -170.5374 -0.0001 -361.8839
v  -308.3326 -0.0001 -361.8839
v  -170.5374 472.4409 -361.8839
v  -308.3326 472.4409 -361.8839
v  -156.8146 580.7087 -66.8540
v  -322.0554 580.7087 -66.8540
v  -322.0554 590.5511 -349.8273
v  -156.8145 590.5511 -349.8273
v  -322.0554 580.7086 -349.8273
v  -156.8145 580.7086 -349.8273
v  337.8603 590.5511 -365.8209
v  337.8602 590.5512 -50.8602
v  337.8602 -0.0000 -50.8601
v  337.8603 -0.0001 -365.8208
v  308.3327 -0.0001 -365.8208
v  308.3327 472.4409 -365.8209
v  141.0099 590.5511 -365.8209
v  170.5374 472.4409 -365.8209
v  170.5374 -0.0001 -365.8208
v  141.0099 -0.0001 -365.8208
v  141.0099 590.5512 -50.8603
v  322.0555 590.5512 -66.8539
v  156.8147 590.5512 -66.8539
v  141.0099 -0.0000 -50.8602
v  308.3327 -0.0001 -361.8838
v  170.5374 -0.0001 -361.8838
v  308.3327 472.4409 -361.8838
v  170.5374 472.4409 -361.8838
v  322.0555 580.7087 -66.8539
v  156.8147 580.7087 -66.8539
v  156.8147 590.5511 -349.8272
v  322.0555 590.5511 -349.8272
v  156.8147 580.7086 -349.8272
v  322.0555 580.7086 -349.8272
v  787.4017 3.9370 -314.9605
v  787.4015 3.9371 314.9608
v  787.4015 0.0000 314.9608
v  787.4017 -0.0000 -314.9605
v  -787.4017 3.9371 314.9605
v  -787.4017 0.0000 314.9605
v  -787.4015 3.9370 -314.9608
v  -787.4015 -0.0000 -314.9608
v  157.4822 86.6141 -315.3516
v  157.4821 86.6142 315.3516
v  157.4821 82.6772 315.3516
v  157.4822 82.6771 -315.3516
v  -157.4822 86.6142 315.3515
v  -157.4822 82.6772 315.3515
v  -157.4821 86.6141 -315.3516
v  -157.4821 82.6771 -315.3516
v  157.4822 155.3686 -315.3516
v  157.4821 155.3687 315.3516
v  157.4821 151.4317 315.3516
v  157.4822 151.4316 -315.3516
v  -157.4822 155.3687 315.3515
v  -157.4822 151.4317 315.3515
v  -157.4821 155.3686 -315.3516
v  -157.4821 151.4316 -315.3516
v  157.4822 238.0458 -315.3516
v  157.4821 238.0459 315.3515
v  157.4821 234.1089 315.3516
v  157.4822 234.1088 -315.3516
v  -157.4822 238.0459 315.3515
v  -157.4822 234.1089 315.3515
v  -157.4821 238.0458 -315.3517
v  -157.4821 234.1088 -315.3516
v  157.4822 320.7230 -315.3516
v  157.4821 320.7231 315.3515
v  157.4821 316.7861 315.3515
v  157.4822 316.7860 -315.3516
v  -157.4822 320.7231 315.3515
v  -157.4822 316.7861 315.3515
v  -157.4821 320.7230 -315.3517
v  -157.4821 316.7860 -315.3517
v  157.4822 403.4001 -315.3516
v  157.4821 403.4002 315.3515
v  157.4821 399.4632 315.3515
v  157.4822 399.4631 -315.3516
v  -157.4822 403.4002 315.3514
v  -157.4822 399.4632 315.3514
v  -157.4821 403.4001 -315.3517
v  -157.4821 399.4631 -315.3517
v  1.9686 496.0630 -315.3544
v  1.9685 496.0631 315.3543
v  1.9685 0.0000 315.3543
v  1.9686 -0.0000 -315.3543
v  -1.9686 496.0631 315.3543
v  -1.9686 0.0000 315.3543
v  -1.9685 496.0630 -315.3544
v  -1.9685 -0.0000 -315.3543
v  -57.0866 496.0630 -315.3544
v  -57.0867 496.0631 315.3543
v  -57.0867 0.0000 315.3543
v  -57.0866 -0.0000 -315.3543
v  -61.0237 496.0631 315.3543
v  -61.0237 0.0000 315.3543
v  -61.0236 496.0630 -315.3544
v  -61.0236 -0.0000 -315.3543
v  -116.1417 496.0630 -315.3544
v  -116.1418 496.0631 315.3543
v  -116.1418 0.0000 315.3543
v  -116.1417 -0.0000 -315.3543
v  -120.0788 496.0631 315.3543
v  -120.0788 0.0000 315.3543
v  -120.0787 496.0630 -315.3544
v  -120.0787 -0.0000 -315.3543
v  -175.1968 496.0630 -315.3544
v  -175.1969 496.0631 315.3542
v  -175.1969 0.0000 315.3543
v  -175.1968 -0.0000 -315.3544
v  -179.1339 496.0631 315.3542
v  -179.1339 0.0000 315.3543
v  -179.1338 496.0630 -315.3544
v  -179.1338 -0.0000 -315.3544
v  -234.2519 496.0630 -315.3544
v  -234.2520 496.0631 315.3542
v  -234.2520 0.0000 315.3543
v  -234.2519 -0.0000 -315.3544
v  -238.1890 496.0631 315.3542
v  -238.1890 0.0000 315.3543
v  -238.1889 496.0630 -315.3544
v  -238.1889 -0.0000 -315.3544
v  -293.3070 496.0630 -315.3544
v  -293.3071 496.0631 315.3542
v  -293.3071 0.0000 315.3543
v  -293.3070 -0.0000 -315.3544
v  -297.2442 496.0631 315.3542
v  -297.2442 0.0000 315.3543
v  -297.2440 496.0630 -315.3544
v  -297.2440 -0.0000 -315.3544
v  61.0237 496.0630 -315.3544
v  61.0236 496.0631 315.3543
v  61.0236 0.0000 315.3543
v  61.0237 -0.0000 -315.3543
v  57.0866 496.0631 315.3543
v  57.0866 0.0000 315.3543
v  57.0867 496.0630 -315.3544
v  57.0867 -0.0000 -315.3543
v  120.0788 496.0630 -315.3544
v  120.0787 496.0631 315.3543
v  120.0787 0.0000 315.3543
v  120.0788 -0.0000 -315.3543
v  116.1417 496.0631 315.3543
v  116.1417 0.0000 315.3543
v  116.1418 496.0630 -315.3544
v  116.1418 -0.0000 -315.3543
v  179.1339 496.0630 -315.3544
v  179.1338 496.0631 315.3543
v  179.1338 0.0000 315.3544
v  179.1339 -0.0000 -315.3543
v  175.1968 496.0631 315.3543
v  175.1968 0.0000 315.3544
v  175.1969 496.0630 -315.3544
v  175.1969 -0.0000 -315.3543
v  238.1890 496.0630 -315.3544
v  238.1889 496.0631 315.3543
v  238.1889 0.0000 315.3544
v  238.1890 -0.0000 -315.3543
v  234.2519 496.0631 315.3543
v  234.2519 0.0000 315.3544
v  234.2520 496.0630 -315.3544
v  234.2520 -0.0000 -315.3543
v  297.2442 496.0630 -315.3544
v  297.2440 496.0631 315.3543
v  297.2440 0.0000 315.3544
v  297.2442 -0.0000 -315.3543
v  293.3070 496.0631 315.3543
v  293.3070 0.0000 315.3544
v  293.3071 496.0630 -315.3544
v  293.3071 -0.0000 -315.3543
v  356.2993 496.0630 -315.3544
v  356.2992 496.0631 315.3543
v  356.2992 0.0000 315.3544
v  356.2993 -0.0000 -315.3543
v  352.3622 496.0631 315.3543
v  352.3622 0.0000 315.3544
v  352.3623 496.0630 -315.3544
v  352.3623 -0.0000 -315.3543
v  435.0394 496.0630 -315.3543
v  435.0393 496.0631 315.3544
v  435.0393 0.0000 315.3544
v  435.0394 -0.0000 -315.3543
v  431.1024 496.0631 315.3544
v  431.1024 0.0000 315.3544
v  431.1024 496.0630 -315.3543
v  431.1024 -0.0000 -315.3543
v  791.3387 551.1810 -318.8977
v  791.3385 551.1812 318.8978
v  791.3385 0.0000 318.8979
v  791.3387 -0.0000 -318.8976
v  -791.3385 -0.0000 -318.8979
v  -791.3385 551.1810 -318.8979
v  -748.0314 393.7007 -318.8979
v  -748.0314 354.3307 -318.8979
v  -354.3307 393.7007 -318.8979
v  -354.3306 354.3307 -318.8978
v  -748.0314 275.5905 -318.8979
v  -748.0314 236.2204 -318.8979
v  -354.3306 275.5905 -318.8978
v  -354.3306 236.2204 -318.8978
v  -748.0314 157.4803 -318.8979
v  -748.0314 118.1102 -318.8979
v  -354.3306 157.4803 -318.8978
v  -354.3306 118.1102 -318.8978
v  -748.0314 39.3700 -318.8979
v  -354.3306 39.3700 -318.8978
v  -121.2598 165.2758 -318.8978
v  121.2599 165.2758 -318.8978
v  354.3309 157.4803 -318.8977
v  748.0317 157.4803 -318.8976
v  748.0317 118.1102 -318.8976
v  354.3309 118.1102 -318.8977
v  354.3309 39.3700 -318.8977
v  748.0317 39.3700 -318.8976
v  354.3308 472.4409 -318.8977
v  121.2599 472.3624 -318.8978
v  -121.2598 472.3624 -318.8978
v  -354.3307 472.4409 -318.8978
v  -748.0314 472.4409 -318.8979
v  748.0316 472.4409 -318.8977
v  748.0316 393.7007 -318.8977
v  748.0317 354.3307 -318.8977
v  748.0317 275.5905 -318.8977
v  748.0317 236.2204 -318.8977
v  354.3309 236.2204 -318.8978
v  354.3309 275.5905 -318.8978
v  354.3308 393.7007 -318.8978
v  354.3309 354.3307 -318.8978
v  -759.8053 551.1810 -287.2548
v  759.8055 551.1810 -287.2545
v  354.3308 118.1103 318.8977
v  748.0316 118.1103 318.8978
v  748.0316 157.4804 318.8978
v  354.3308 157.4804 318.8977
v  121.2598 165.2759 318.8977
v  -121.2599 165.2759 318.8977
v  -354.3307 39.3701 318.8977
v  354.3308 39.3701 318.8978
v  -748.0316 118.1103 318.8976
v  -354.3307 118.1103 318.8977
v  -354.3307 157.4804 318.8977
v  -748.0316 157.4804 318.8976
v  -748.0316 236.2205 318.8976
v  -354.3307 236.2205 318.8976
v  -354.3307 275.5906 318.8976
v  -748.0316 275.5906 318.8976
v  -748.0316 354.3308 318.8976
v  -354.3307 354.3308 318.8976
v  -354.3308 393.7009 318.8976
v  -748.0316 393.7009 318.8975
v  -748.0316 472.4410 318.8976
v  -791.3387 551.1812 318.8975
v  -791.3387 0.0000 318.8976
v  -748.0316 39.3701 318.8976
v  748.0316 39.3701 318.8979
v  354.3308 354.3308 318.8977
v  748.0316 354.3308 318.8978
v  748.0314 393.7009 318.8978
v  354.3307 393.7009 318.8977
v  354.3307 471.6581 318.8977
v  748.0314 472.4410 318.8978
v  121.2598 472.3625 318.8977
v  354.3308 275.5906 318.8977
v  354.3308 236.2205 318.8977
v  748.0316 236.2205 318.8978
v  748.0316 275.5906 318.8978
v  -354.3308 472.4410 318.8976
v  -121.2599 472.3625 318.8977
v  -354.3307 118.1103 276.8948
v  -354.3307 39.3701 276.8948
v  -748.0316 39.3701 276.8947
v  -748.0316 118.1103 276.8947
v  -354.3307 236.2205 276.8948
v  -354.3307 157.4804 276.8948
v  -748.0316 157.4804 276.8947
v  -748.0316 236.2205 276.8947
v  -354.3307 354.3308 276.8948
v  -354.3307 275.5906 276.8948
v  -748.0316 275.5906 276.8947
v  -748.0316 354.3308 276.8947
v  -354.3308 472.4410 276.8947
v  -354.3308 393.7009 276.8947
v  -748.0316 393.7009 276.8947
v  -748.0316 472.4410 276.8947
v  748.0316 118.1103 276.8950
v  748.0316 39.3701 276.8950
v  354.3308 39.3701 276.8949
v  354.3308 118.1103 276.8949
v  748.0316 236.2205 276.8949
v  748.0316 157.4804 276.8950
v  354.3308 157.4804 276.8949
v  354.3308 236.2205 276.8949
v  748.0316 354.3308 276.8949
v  748.0316 275.5906 276.8949
v  354.3308 275.5906 276.8949
v  354.3308 354.3308 276.8949
v  748.0314 472.4410 276.8949
v  748.0314 393.7009 276.8949
v  354.3307 393.7009 276.8949
v  354.3307 472.4410 276.8949
v  121.2598 472.3625 276.8948
v  121.2598 165.2759 276.8949
v  -121.2599 165.2759 276.8948
v  -121.2599 472.3625 276.8948
v  -354.3306 39.3700 -276.8949
v  -354.3306 118.1102 -276.8950
v  -748.0314 118.1102 -276.8950
v  -748.0314 39.3700 -276.8950
v  -354.3306 157.4803 -276.8950
v  -354.3306 236.2204 -276.8950
v  -748.0314 236.2204 -276.8950
v  -748.0314 157.4803 -276.8950
v  -354.3306 275.5905 -276.8950
v  -354.3306 354.3307 -276.8950
v  -748.0314 354.3307 -276.8950
v  -748.0314 275.5905 -276.8950
v  -354.3307 393.7007 -276.8950
v  -354.3307 472.4409 -276.8950
v  -748.0314 472.4409 -276.8951
v  -748.0314 393.7007 -276.8951
v  748.0317 39.3700 -276.8947
v  748.0317 118.1102 -276.8948
v  354.3309 118.1102 -276.8948
v  354.3309 39.3700 -276.8948
v  748.0317 157.4803 -276.8948
v  748.0317 236.2204 -276.8948
v  354.3309 236.2204 -276.8949
v  354.3309 157.4803 -276.8948
v  748.0317 275.5905 -276.8948
v  748.0317 354.3307 -276.8948
v  354.3309 354.3307 -276.8949
v  354.3309 275.5905 -276.8949
v  748.0316 393.7007 -276.8948
v  748.0316 472.4409 -276.8948
v  354.3308 472.4409 -276.8949
v  354.3308 393.7007 -276.8949
v  121.2599 165.2758 -276.8949
v  121.2599 472.3624 -276.8949
v  -121.2598 472.3624 -276.8950
v  -121.2598 165.2758 -276.8949
v  -759.8053 541.3385 -287.2547
v  759.8055 541.3385 -287.2545
v  759.8053 551.1812 287.2546
v  -759.8055 551.1812 287.2543
v  -759.8055 541.3386 287.2544
v  759.8053 541.3386 287.2546
v  -213.5826 474.4884 -362.2454
v  -213.5826 474.4884 -312.1064
v  -209.6455 474.4884 -312.1064
v  -209.6456 474.4884 -362.2454
v  -213.5826 -0.0000 -312.1063
v  -209.6456 -0.0000 -312.1063
v  -213.5827 -0.0000 -362.2454
v  -209.6457 -0.0000 -362.2454
v  -258.8582 474.4884 -362.2454
v  -258.8582 474.4884 -312.1064
v  -254.9211 474.4884 -312.1064
v  -254.9212 474.4884 -362.2454
v  -258.8582 -0.0000 -312.1063
v  -254.9212 -0.0000 -312.1063
v  -258.8583 -0.0000 -362.2454
v  -254.9213 -0.0000 -362.2454
v  -153.6559 72.6914 -362.2454
v  -153.6559 72.6914 -312.1063
v  -153.6559 68.7544 -312.1063
v  -153.6559 68.7544 -362.2454
v  -318.7850 72.6914 -312.1063
v  -318.7850 68.7544 -312.1063
v  -318.7850 72.6914 -362.2454
v  -318.7850 68.7544 -362.2454
v  -153.5498 155.3686 -362.2454
v  -153.5498 155.3686 -312.1063
v  -153.5498 151.4316 -312.1063
v  -153.5498 151.4316 -362.2454
v  -318.6788 155.3686 -312.1064
v  -318.6788 151.4316 -312.1064
v  -318.6788 155.3686 -362.2454
v  -318.6788 151.4316 -362.2454
v  -153.5498 238.0457 -362.2455
v  -153.5498 238.0458 -312.1063
v  -153.5498 234.1087 -312.1063
v  -153.5498 234.1087 -362.2454
v  -318.6788 238.0458 -312.1064
v  -318.6788 234.1087 -312.1064
v  -318.6788 238.0457 -362.2455
v  -318.6788 234.1087 -362.2454
v  -153.5498 320.7229 -362.2455
v  -153.5498 320.7229 -312.1063
v  -153.5498 316.7859 -312.1063
v  -153.5498 316.7859 -362.2455
v  -318.6788 320.7229 -312.1064
v  -318.6788 316.7859 -312.1064
v  -318.6788 320.7229 -362.2455
v  -318.6788 316.7859 -362.2455
v  -153.5498 403.4001 -362.2455
v  -153.5498 403.4001 -312.1064
v  -153.5498 399.4631 -312.1064
v  -153.5498 399.4631 -362.2455
v  -318.6788 403.4001 -312.1064
v  -318.6788 399.4631 -312.1064
v  -318.6788 403.4001 -362.2455
v  -318.6788 399.4631 -362.2455
v  513.7796 496.0630 -315.3543
v  513.7795 496.0631 315.3544
v  513.7795 0.0000 315.3544
v  513.7796 -0.0000 -315.3543
v  509.8425 496.0631 315.3544
v  509.8425 0.0000 315.3544
v  509.8426 496.0630 -315.3543
v  509.8426 -0.0000 -315.3543
v  592.5197 496.0630 -315.3543
v  592.5197 496.0631 315.3544
v  592.5197 0.0000 315.3544
v  592.5197 -0.0000 -315.3543
v  588.5826 496.0631 315.3544
v  588.5826 0.0000 315.3544
v  588.5827 496.0630 -315.3543
v  588.5827 -0.0000 -315.3543
v  671.2599 496.0630 -315.3543
v  671.2598 496.0631 315.3544
v  671.2598 0.0000 315.3545
v  671.2599 -0.0000 -315.3542
v  667.3228 496.0631 315.3544
v  667.3228 0.0000 315.3545
v  667.3229 496.0630 -315.3543
v  667.3229 -0.0000 -315.3542
v  292.0874 59.0474 -315.3542
v  292.0874 59.0475 315.3545
v  788.1505 59.0474 315.3545
v  788.1505 59.0473 -315.3542
v  292.0874 55.1105 315.3545
v  788.1505 55.1104 315.3545
v  292.0874 55.1104 -315.3542
v  788.1505 55.1103 -315.3542
v  289.4150 177.2170 -315.3542
v  289.4149 177.2171 315.3544
v  785.4780 177.2170 315.3544
v  785.4781 177.2170 -315.3542
v  289.4149 173.2801 315.3544
v  785.4780 173.2800 315.3544
v  289.4150 173.2800 -315.3542
v  785.4781 173.2800 -315.3542
v  282.2883 413.4757 -315.3544
v  282.2883 413.4758 315.3543
v  778.3514 413.4757 315.3543
v  778.3514 413.4756 -315.3544
v  282.2883 409.5388 315.3543
v  778.3514 409.5387 315.3543
v  282.2883 409.5387 -315.3544
v  778.3514 409.5385 -315.3544
v  283.1792 295.3935 -315.3543
v  283.1792 295.3936 315.3544
v  779.2422 295.3935 315.3544
v  779.2422 295.3934 -315.3543
v  283.1792 291.4566 315.3544
v  779.2422 291.4565 315.3544
v  283.1792 291.4565 -315.3543
v  779.2422 291.4564 -315.3543
v  512.1642 27.4330 -318.8674
v  512.1642 27.4332 318.8678
v  512.1644 523.4963 318.8676
v  512.1644 523.4960 -318.8676
v  590.1978 27.4332 318.8678
v  590.1980 523.4962 318.8676
v  590.1978 27.4329 -318.8674
v  590.1979 523.4959 -318.8676
v  749.4102 496.0630 -315.3543
v  749.4100 496.0631 315.3544
v  749.4100 0.0000 315.3545
v  749.4102 -0.0000 -315.3542
v  745.4730 496.0631 315.3544
v  745.4730 0.0000 315.3545
v  745.4732 496.0630 -315.3543
v  745.4732 -0.0000 -315.3542
v  -745.4730 496.0630 -315.3545
v  -745.4732 496.0631 315.3542
v  -745.4732 0.0000 315.3542
v  -745.4730 -0.0000 -315.3545
v  -749.4102 496.0631 315.3542
v  -749.4102 0.0000 315.3542
v  -749.4100 496.0630 -315.3545
v  -749.4100 -0.0000 -315.3545
v  -667.3228 496.0630 -315.3545
v  -667.3229 496.0631 315.3542
v  -667.3229 0.0000 315.3542
v  -667.3228 -0.0000 -315.3545
v  -671.2599 496.0631 315.3542
v  -671.2599 0.0000 315.3542
v  -671.2598 496.0630 -315.3545
v  -671.2598 -0.0000 -315.3545
v  -588.5826 496.0630 -315.3545
v  -588.5827 496.0631 315.3542
v  -588.5827 0.0000 315.3543
v  -588.5826 -0.0000 -315.3544
v  -592.5197 496.0631 315.3542
v  -592.5197 0.0000 315.3543
v  -592.5197 496.0630 -315.3545
v  -592.5197 -0.0000 -315.3544
v  -590.1980 27.4330 -318.8676
v  -590.1979 27.4332 318.8676
v  -590.1978 523.4963 318.8674
v  -590.1978 523.4960 -318.8677
v  -512.1644 27.4332 318.8676
v  -512.1642 523.4962 318.8674
v  -512.1644 27.4329 -318.8676
v  -512.1642 523.4959 -318.8677
v  -509.8425 496.0630 -315.3545
v  -509.8426 496.0631 315.3542
v  -509.8426 0.0000 315.3543
v  -509.8425 -0.0000 -315.3544
v  -513.7796 496.0631 315.3542
v  -513.7796 0.0000 315.3543
v  -513.7795 496.0630 -315.3545
v  -513.7795 -0.0000 -315.3544
v  -431.1024 496.0630 -315.3545
v  -431.1024 496.0631 315.3542
v  -431.1024 0.0000 315.3543
v  -431.1024 -0.0000 -315.3544
v  -435.0394 496.0631 315.3542
v  -435.0394 0.0000 315.3543
v  -435.0393 496.0630 -315.3545
v  -435.0393 -0.0000 -315.3544
v  -352.3622 496.0630 -315.3544
v  -352.3623 496.0631 315.3542
v  -352.3623 0.0000 315.3543
v  -352.3622 -0.0000 -315.3544
v  -356.2993 496.0631 315.3542
v  -356.2993 0.0000 315.3543
v  -356.2992 496.0630 -315.3544
v  -356.2992 -0.0000 -315.3544
v  -768.5522 59.0474 -315.3543
v  -768.5523 59.0475 315.3543
v  -272.4892 59.0474 315.3543
v  -272.4892 59.0473 -315.3543
v  -768.5523 55.1105 315.3543
v  -272.4892 55.1104 315.3543
v  -768.5522 55.1104 -315.3543
v  -272.4892 55.1103 -315.3543
v  -771.2247 177.2170 -315.3544
v  -771.2248 177.2171 315.3543
v  -275.1617 177.2170 315.3543
v  -275.1617 177.2170 -315.3544
v  -771.2248 173.2801 315.3543
v  -275.1617 173.2800 315.3543
v  -771.2247 173.2800 -315.3544
v  -275.1617 173.2800 -315.3544
v  -778.3514 413.4757 -315.3545
v  -778.3514 413.4758 315.3542
v  -282.2883 413.4757 315.3542
v  -282.2883 413.4756 -315.3545
v  -778.3514 409.5388 315.3542
v  -282.2883 409.5387 315.3542
v  -778.3514 409.5387 -315.3545
v  -282.2883 409.5385 -315.3545
v  -777.4604 295.3935 -315.3544
v  -777.4605 295.3936 315.3542
v  -281.3975 295.3935 315.3542
v  -281.3974 295.3934 -315.3544
v  -777.4605 291.4566 315.3542
v  -281.3975 291.4565 315.3542
v  -777.4604 291.4565 -315.3544
v  -281.3974 291.4564 -315.3544
v  165.3544 157.4802 -549.2126
v  165.3544 157.4802 -513.7795
v  165.3544 -0.0001 -513.7795
v  165.3544 -0.0001 -549.2126
v  129.9213 157.4802 -513.7795
v  129.9213 -0.0001 -513.7795
v  129.9213 157.4802 -549.2126
v  129.9213 -0.0001 -549.2126
v  167.3229 114.1732 -551.1674
v  167.3229 161.4172 -551.1674
v  167.3229 161.4173 -290.7794
v  167.3229 114.1732 -290.7794
v  127.9528 161.4172 -551.1674
v  127.9528 161.4173 -290.7794
v  127.9528 114.1732 -551.1674
v  127.9528 114.1732 -290.7794
v  166.0914 114.1732 -511.8110
v  166.0914 161.4173 -511.8110
v  -166.0912 161.4172 -511.8111
v  -166.0912 114.1731 -511.8111
v  166.0914 161.4173 -551.1812
v  -166.0912 161.4172 -551.1812
v  166.0914 114.1732 -551.1811
v  -166.0912 114.1731 -551.1812
v  -129.9212 157.4802 -549.2127
v  -129.9212 157.4802 -513.7797
v  -129.9212 -0.0001 -513.7796
v  -129.9212 -0.0001 -549.2126
v  -165.3543 157.4802 -513.7797
v  -165.3543 -0.0001 -513.7796
v  -165.3543 157.4802 -549.2127
v  -165.3543 -0.0001 -549.2126
v  -127.9527 114.1732 -551.1674
v  -127.9527 161.4172 -551.1675
v  -127.9527 161.4173 -290.7794
v  -127.9527 114.1732 -290.7794
v  -167.3228 161.4172 -551.1675
v  -167.3228 161.4173 -290.7794
v  -167.3228 114.1732 -551.1674
v  -167.3228 114.1732 -290.7794
v  167.3229 15.7479 -551.1811
v  167.3229 15.7480 -511.8110
v  167.3229 -0.0001 -511.8110
v  167.3229 -0.0001 -551.1811
v  127.9528 15.7480 -511.8110
v  127.9528 -0.0001 -511.8110
v  127.9528 15.7479 -551.1811
v  127.9528 -0.0001 -551.1811
v  -127.9527 15.7479 -551.1812
v  -127.9527 15.7480 -511.8111
v  -127.9527 -0.0001 -511.8111
v  -127.9527 -0.0001 -551.1812
v  -167.3228 15.7480 -511.8111
v  -167.3228 -0.0001 -511.8111
v  -167.3228 15.7479 -551.1812
v  -167.3228 -0.0001 -551.1812
v  166.0914 114.1732 -472.6215
v  166.0914 161.4173 -472.6215
v  -166.0912 161.4173 -472.6216
v  -166.0912 114.1731 -472.6216
v  166.0914 161.4173 -488.5682
v  -166.0912 161.4173 -488.5683
v  166.0914 114.1732 -488.5682
v  -166.0912 114.1731 -488.5683
v  166.0913 114.1732 -433.2514
v  166.0913 161.4173 -433.2514
v  -166.0912 161.4173 -433.2515
v  -166.0912 114.1731 -433.2515
v  166.0914 161.4173 -449.1982
v  -166.0912 161.4173 -449.1982
v  166.0914 114.1732 -449.1982
v  -166.0912 114.1731 -449.1982
v  166.0913 114.1732 -393.8813
v  166.0913 161.4173 -393.8813
v  -166.0912 161.4173 -393.8814
v  -166.0912 114.1732 -393.8814
v  166.0913 161.4173 -409.8281
v  -166.0912 161.4173 -409.8281
v  166.0913 114.1732 -409.8281
v  -166.0912 114.1732 -409.8281
v  166.0913 114.1732 -354.5113
v  166.0913 161.4173 -354.5113
v  -166.0912 161.4173 -354.5113
v  -166.0912 114.1732 -354.5113
v  166.0913 161.4173 -370.4580
v  -166.0912 161.4173 -370.4580
v  166.0913 114.1732 -370.4580
v  -166.0912 114.1732 -370.4580
v  166.0913 114.1732 -315.1412
v  166.0913 161.4173 -315.1412
v  -166.0912 161.4173 -315.1412
v  -166.0912 114.1732 -315.1412
v  166.0913 161.4173 -331.0879
v  -166.0912 161.4173 -331.0880
v  166.0913 114.1732 -331.0879
v  -166.0912 114.1732 -331.0880
v  59.0552 98.4251 -320.5311
v  59.0552 98.4251 -300.8460
v  59.0552 -0.0000 -300.8460
v  59.0552 -0.0000 -320.5310
v  -59.0551 98.4251 -300.8460
v  -59.0551 -0.0000 -300.8460
v  -59.0551 98.4251 -320.5311
v  -59.0551 -0.0000 -320.5310
v  -137.7953 551.1812 314.9605
v  -137.7953 551.1812 334.6455
v  -137.7953 0.0001 334.6456
v  -137.7953 0.0000 314.9606
v  -334.6457 551.1812 334.6455
v  -334.6457 0.0001 334.6456
v  -334.6457 551.1812 314.9605
v  -334.6457 0.0000 314.9606
v  334.6456 551.1812 314.9606
v  334.6456 551.1812 334.6456
v  334.6456 0.0001 334.6457
v  334.6456 0.0000 314.9607
v  137.7952 551.1812 334.6456
v  137.7952 0.0001 334.6457
v  137.7952 551.1812 314.9606
v  137.7952 0.0000 314.9607
v  258.8583 474.4884 -362.2454
v  258.8584 474.4884 -312.1063
v  262.7954 474.4884 -312.1063
v  262.7953 474.4884 -362.2454
v  258.8584 -0.0000 -312.1062
v  262.7954 -0.0000 -312.1062
v  258.8583 -0.0000 -362.2453
v  262.7953 -0.0000 -362.2453
v  213.5827 474.4884 -362.2454
v  213.5828 474.4884 -312.1063
v  217.5198 474.4884 -312.1063
v  217.5197 474.4884 -362.2454
v  213.5828 -0.0000 -312.1062
v  217.5198 -0.0000 -312.1062
v  213.5827 -0.0000 -362.2453
v  217.5197 -0.0000 -362.2453
v  318.7851 72.6914 -362.2453
v  318.7851 72.6914 -312.1062
v  318.7851 68.7544 -312.1062
v  318.7851 68.7544 -362.2453
v  153.6560 72.6914 -312.1063
v  153.6560 68.7544 -312.1063
v  153.6560 72.6914 -362.2453
v  153.6560 68.7544 -362.2453
v  318.8912 155.3686 -362.2453
v  318.8912 155.3686 -312.1063
v  318.8912 151.4316 -312.1063
v  318.8912 151.4316 -362.2453
v  153.7621 155.3686 -312.1063
v  153.7621 151.4316 -312.1063
v  153.7621 155.3686 -362.2453
v  153.7621 151.4316 -362.2453
v  318.8912 238.0457 -362.2454
v  318.8912 238.0458 -312.1063
v  318.8912 234.1087 -312.1062
v  318.8912 234.1087 -362.2453
v  153.7621 238.0458 -312.1063
v  153.7621 234.1087 -312.1063
v  153.7621 238.0457 -362.2454
v  153.7621 234.1087 -362.2453
v  318.8912 320.7229 -362.2454
v  318.8912 320.7229 -312.1063
v  318.8912 316.7859 -312.1063
v  318.8912 316.7859 -362.2454
v  153.7621 320.7229 -312.1063
v  153.7621 316.7859 -312.1063
v  153.7621 320.7229 -362.2454
v  153.7621 316.7859 -362.2454
v  318.8912 403.4001 -362.2454
v  318.8912 403.4001 -312.1063
v  318.8912 399.4631 -312.1063
v  318.8912 399.4631 -362.2454
v  153.7621 403.4001 -312.1063
v  153.7621 399.4631 -312.1063
v  153.7621 403.4001 -362.2454
v  153.7621 399.4631 -362.2454
v  -791.2764 551.1811 98.4250
v  -810.9615 551.1811 98.4250
v  -810.9615 0.0000 98.4251
v  -791.2764 0.0000 98.4251
v  -810.9615 551.1811 -98.4254
v  -810.9615 -0.0000 -98.4253
v  -791.2764 551.1811 -98.4254
v  -791.2764 -0.0000 -98.4253
v  810.9615 551.1811 98.4252
v  791.2764 551.1811 98.4252
v  791.2764 0.0000 98.4253
v  810.9615 0.0000 98.4253
v  791.2764 551.1811 -98.4252
v  791.2764 -0.0000 -98.4251
v  810.9615 551.1811 -98.4252
v  810.9615 -0.0000 -98.4251
v  787.4017 496.0630 -314.9606
v  787.4015 496.0631 314.9607
v  -787.4017 496.0631 314.9604
v  -787.4015 496.0630 -314.9608
# 772 vertices

vn 1.0000 0.0000 0.0000
vn -0.0000 -0.0000 -1.0000
vn 0.0000 -0.0000 -1.0000
vn 0.0000 1.0000 -0.0000
vn -0.0000 0.0000 1.0000
vn 0.0000 -1.0000 0.0000
vn -1.0000 -0.0000 -0.0000
vn -1.0000 0.0000 -0.0000
vn 1.0000 0.0000 -0.0000
vn 0.0000 0.0000 -1.0000
vn 0.0000 0.0000 1.0000
vn 1.0000 -0.0000 0.0000
vn -0.0000 1.0000 -0.0000
vn 0.0000 0.0003 -1.0000
vn 0.0000 -0.0001 -1.0000
vn -0.0000 0.0000 -1.0000
vn -0.0000 -0.0000 1.0000
vn -0.0000 -0.0010 1.0000
vn 0.0010 -1.0000 -0.0093
vn 1.0000 -0.0000 -0.0000
vn -1.0000 0.0000 0.0000
vn -0.0000 -1.0000 0.0000
vn 0.0000 -1.0000 -0.0000
# 23 vertex normals

vt 0.3003 0.8023 0.0000
vt 0.3503 0.8023 0.0000
vt 0.3503 0.8523 0.0000
vt 0.3003 0.8523 0.0000
vt 0.3430 0.8450 0.0000
vt 0.3503 0.8273 0.0000
vt 0.3430 0.8096 0.0000
vt 0.3253 0.8023 0.0000
vt 0.3253 0.8523 0.0000
vt 0.3076 0.8096 0.0000
vt 0.3003 0.8273 0.0000
vt 0.3076 0.8450 0.0000
vt 0.2954 0.9229 0.0000
vt 0.3454 0.9229 0.0000
vt 0.3454 0.9729 0.0000
vt 0.2954 0.9729 0.0000
vt 0.3618 0.0148 0.0000
vt 0.4118 0.0148 0.0000
vt 0.4118 0.0648 0.0000
vt 0.3618 0.0648 0.0000
vt 0.2971 0.8269 0.0000
vt 0.2980 0.8678 0.0000
vt 0.2976 0.8690 0.0000
vt 0.2996 0.8269 0.0000
vt 0.2987 0.8309 0.0000
vt 0.2995 0.8316 0.0000
vt 0.2981 0.8720 0.0000
vt 0.2986 0.8577 0.0000
vt 0.2985 0.8580 0.0000
vt 0.2986 0.8591 0.0000
vt 0.2985 0.8587 0.0000
vt 0.2985 0.8579 0.0000
vt 0.2986 0.8509 0.0000
vt 0.2986 0.8468 0.0000
vt 0.2985 0.8536 0.0000
vt 0.2985 0.8480 0.0000
vt 0.2987 0.8409 0.0000
vt 0.2989 0.8387 0.0000
vt 0.2984 0.8568 0.0000
vt 0.2983 0.8605 0.0000
vt 0.2982 0.8621 0.0000
vt 0.2981 0.8631 0.0000
vt 0.2980 0.8621 0.0000
vt 0.2982 0.8590 0.0000
vt 0.2988 0.8375 0.0000
vt 0.2988 0.8361 0.0000
vt 0.2984 0.8650 0.0000
vt 0.2984 0.8643 0.0000
vt 0.2984 0.8648 0.0000
vt 0.2982 0.8656 0.0000
vt 0.2982 0.8652 0.0000
vt 0.2982 0.8650 0.0000
vt 0.2982 0.8646 0.0000
vt 0.2982 0.8636 0.0000
vt 0.2982 0.8631 0.0000
vt 0.3001 0.8269 0.0000
vt 0.3001 0.8416 0.0000
vt 0.2984 0.8728 0.0000
vt 0.2979 0.8698 0.0000
vt 0.2982 0.8598 0.0000
vt 0.2981 0.8628 0.0000
vt 0.2980 0.8626 0.0000
vt 0.2980 0.8612 0.0000
vt 0.2982 0.8589 0.0000
vt 0.2984 0.8557 0.0000
vt 0.2992 0.8428 0.0000
vt 0.2993 0.8414 0.0000
vt 0.2985 0.8529 0.0000
vt 0.2986 0.8521 0.0000
vt 0.2984 0.8549 0.0000
vt 0.2985 0.8541 0.0000
vt 0.2989 0.8469 0.0000
vt 0.2986 0.8518 0.0000
vt 0.2983 0.8556 0.0000
vt 0.2981 0.8568 0.0000
vt 0.2980 0.8585 0.0000
vt 0.2980 0.8590 0.0000
vt 0.2978 0.8617 0.0000
vt 0.2976 0.8629 0.0000
vt 0.2976 0.8646 0.0000
vt 0.2974 0.8733 0.0000
vt 0.3000 0.8301 0.0000
vt 0.2992 0.8432 0.0000
vt 0.2996 0.8363 0.0000
vt 0.2979 0.8633 0.0000
vt 0.2979 0.8631 0.0000
vt 0.2979 0.8635 0.0000
vt 0.2979 0.8637 0.0000
vt 0.2978 0.8643 0.0000
vt 0.2978 0.8649 0.0000
vt 0.2977 0.8643 0.0000
vt 0.2980 0.8618 0.0000
vt 0.2981 0.8600 0.0000
vt 0.2981 0.8601 0.0000
vt 0.2977 0.8644 0.0000
vt 0.2977 0.8641 0.0000
vt 0.2985 0.8523 0.0000
vt 0.2992 0.8429 0.0000
vt 0.2992 0.8431 0.0000
vt 0.2985 0.8527 0.0000
vt 0.2992 0.8505 0.0000
vt 0.2984 0.8547 0.0000
vt 0.2984 0.8543 0.0000
vt 0.2993 0.8482 0.0000
vt 0.2981 0.8588 0.0000
vt 0.2983 0.8560 0.0000
vt 0.2982 0.8565 0.0000
vt 0.2980 0.8586 0.0000
vt 0.2979 0.8620 0.0000
vt 0.2978 0.8626 0.0000
vt 0.2984 0.8621 0.0000
vt 0.3001 0.8377 0.0000
vt 0.2999 0.8402 0.0000
vt 0.2984 0.8606 0.0000
vt 0.2979 0.8622 0.0000
vt 0.2979 0.8616 0.0000
vt 0.2979 0.8632 0.0000
vt 0.2979 0.8648 0.0000
vt 0.2979 0.8636 0.0000
vt 0.2979 0.8646 0.0000
vt 0.2977 0.8642 0.0000
vt 0.2978 0.8581 0.0000
vt 0.2979 0.8566 0.0000
vt 0.2986 0.8392 0.0000
vt 0.2984 0.8476 0.0000
vt 0.2985 0.8471 0.0000
vt 0.2985 0.8403 0.0000
vt 0.2988 0.8530 0.0000
vt 0.2989 0.8517 0.0000
vt 0.2984 0.8585 0.0000
vt 0.2984 0.8582 0.0000
vt 0.2987 0.8588 0.0000
vt 0.2985 0.8649 0.0000
vt 0.2988 0.8581 0.0000
vt 0.2986 0.8365 0.0000
vt 0.2977 0.8613 0.0000
vt 0.2979 0.8598 0.0000
vt 0.2987 0.8372 0.0000
vt 0.2982 0.8629 0.0000
vt 0.2981 0.8635 0.0000
vt 0.2981 0.8632 0.0000
vt 0.2983 0.8624 0.0000
vt 0.2982 0.8651 0.0000
vt 0.2982 0.8654 0.0000
vt 0.2983 0.8651 0.0000
vt 0.2983 0.8650 0.0000
vt 0.2988 0.8595 0.0000
vt 0.2983 0.8648 0.0000
vt 0.2983 0.8644 0.0000
vt 0.2989 0.8578 0.0000
vt 0.2978 0.8727 0.0000
vt 0.2977 0.8724 0.0000
vt 0.2971 0.8711 0.0000
vt 0.2973 0.8769 0.0000
vt 0.3938 0.0287 0.0000
vt 0.3937 0.0289 0.0000
vt 0.3936 0.0285 0.0000
vt 0.3937 0.0283 0.0000
vt 0.2976 0.8725 0.0000
vt 0.2977 0.8730 0.0000
vt 0.6878 0.2599 0.0000
vt 0.6878 0.0200 0.0000
vt 0.9757 0.2599 0.0000
vt 0.9757 0.0200 0.0000
vt 0.3003 0.9130 0.0000
vt 0.3503 0.9130 0.0000
vt 0.3503 0.9630 0.0000
vt 0.3003 0.9630 0.0000
# 168 texture coords

g SPW_Urban_Bldg_12
usemtl SPW_Urban_Bldg_12
s off
f 1/1/1 2/2/1 3/3/1 4/4/1 
f 1/5/2 4/6/2 5/7/2 6/8/2 
f 7/9/3 1/5/3 6/8/3 8/10/3 
f 7/9/3 8/10/3 9/11/3 10/12/3 
s 1
f 11/1/4 2/2/4 12/3/4 13/4/4 
s off
f 2/1/5 11/2/5 14/3/5 3/4/5 
f 4/9/6 3/5/6 14/6/6 15/11/6 
f 14/6/6 10/7/6 9/8/6 16/10/6 
f 14/6/6 16/10/6 15/11/6 
f 4/9/6 15/11/6 5/12/6 
f 11/1/7 7/2/7 10/3/7 14/4/7 
f 6/1/8 5/2/8 15/3/8 17/4/8 
f 8/1/6 6/2/6 17/3/6 18/4/6 
f 15/13/3 16/14/3 18/15/3 17/16/3 
f 18/1/9 16/2/9 9/3/9 8/4/9 
f 13/1/10 12/2/10 19/3/10 20/4/10 
s 1
f 7/1/4 11/2/4 13/3/4 21/4/4 
s off
f 1/1/4 7/2/4 21/3/4 22/4/4 
s 1
f 2/1/4 1/2/4 22/3/4 12/4/4 
s off
f 23/17/4 20/18/4 19/19/4 24/20/4 
f 21/1/1 13/2/1 20/3/1 23/4/1 
f 22/1/11 21/2/11 23/3/11 24/4/11 
f 12/1/7 22/2/7 24/3/7 19/4/7 
f 25/1/1 26/2/1 27/3/1 28/4/1 
f 25/5/2 28/6/2 29/7/2 30/8/2 
f 31/9/3 25/5/3 30/8/3 32/10/3 
f 31/9/3 32/10/3 33/11/3 34/12/3 
f 35/1/4 26/2/4 36/3/4 37/4/4 
f 26/1/5 35/2/5 38/3/5 27/4/5 
f 28/9/6 27/5/6 38/6/6 39/11/6 
f 38/6/6 34/7/6 33/8/6 40/10/6 
f 38/6/6 40/10/6 39/11/6 
f 28/9/6 39/11/6 29/12/6 
f 35/1/7 31/2/7 34/3/7 38/4/7 
f 30/1/8 29/2/8 39/3/8 41/4/8 
f 32/1/6 30/2/6 41/3/6 42/4/6 
f 39/13/3 40/14/3 42/15/3 41/16/3 
f 42/1/9 40/2/9 33/3/9 32/4/9 
f 37/1/10 36/2/10 43/3/10 44/4/10 
f 31/1/4 35/2/4 37/3/4 45/4/4 
f 25/1/4 31/2/4 45/3/4 46/4/4 
f 26/1/4 25/2/4 46/3/4 36/4/4 
f 47/17/4 44/18/4 43/19/4 48/20/4 
f 45/1/12 37/2/12 44/3/12 47/4/12 
f 46/1/11 45/2/11 47/3/11 48/4/11 
f 36/1/7 46/2/7 48/3/7 43/4/7 
f 49/21/1 50/21/1 51/21/1 52/21/1 
f 50/21/5 53/21/5 54/21/5 51/21/5 
f 53/21/7 55/21/7 56/21/7 54/21/7 
f 55/21/3 49/21/3 52/21/3 56/21/3 
f 52/21/6 51/21/6 54/21/6 56/21/6 
f 55/21/13 53/21/13 50/21/13 49/21/13 
f 57/21/1 58/21/1 59/21/1 60/21/1 
f 58/21/5 61/21/5 62/21/5 59/21/5 
f 61/21/7 63/21/7 64/21/7 62/21/7 
f 63/21/3 57/21/3 60/21/3 64/21/3 
f 60/21/6 59/21/6 62/21/6 64/21/6 
f 63/21/13 61/21/13 58/21/13 57/21/13 
f 65/21/1 66/21/1 67/21/1 68/21/1 
f 66/21/5 69/21/5 70/21/5 67/21/5 
f 69/21/7 71/21/7 72/21/7 70/21/7 
f 71/21/3 65/21/3 68/21/3 72/21/3 
f 68/21/6 67/21/6 70/21/6 72/21/6 
f 71/21/13 69/21/13 66/21/13 65/21/13 
f 73/21/1 74/21/1 75/21/1 76/21/1 
f 74/21/5 77/21/5 78/21/5 75/21/5 
f 77/21/7 79/21/7 80/21/7 78/21/7 
f 79/21/3 73/21/3 76/21/3 80/21/3 
f 76/21/6 75/21/6 78/21/6 80/21/6 
f 79/21/13 77/21/13 74/21/13 73/21/13 
f 81/21/1 82/21/1 83/21/1 84/21/1 
f 82/21/5 85/21/5 86/21/5 83/21/5 
f 85/21/7 87/21/7 88/21/7 86/21/7 
f 87/21/3 81/21/3 84/21/3 88/21/3 
f 84/21/6 83/21/6 86/21/6 88/21/6 
f 87/21/4 85/21/4 82/21/4 81/21/4 
f 89/21/1 90/21/1 91/21/1 92/21/1 
f 90/21/5 93/21/5 94/21/5 91/21/5 
f 93/21/7 95/21/7 96/21/7 94/21/7 
f 95/21/3 89/21/3 92/21/3 96/21/3 
f 92/21/6 91/21/6 94/21/6 96/21/6 
f 95/21/4 93/21/4 90/21/4 89/21/4 
f 97/21/1 98/21/1 99/21/1 100/21/1 
f 98/21/11 101/21/11 102/21/11 99/21/11 
f 101/21/7 103/21/7 104/21/7 102/21/7 
f 103/21/3 97/21/3 100/21/3 104/21/3 
f 100/21/6 99/21/6 102/21/6 104/21/6 
f 103/21/4 101/21/4 98/21/4 97/21/4 
f 105/21/1 106/21/1 107/21/1 108/21/1 
f 106/21/11 109/21/11 110/21/11 107/21/11 
f 109/21/7 111/21/7 112/21/7 110/21/7 
f 111/21/3 105/21/3 108/21/3 112/21/3 
f 108/21/6 107/21/6 110/21/6 112/21/6 
f 111/21/4 109/21/4 106/21/4 105/21/4 
f 113/21/1 114/21/1 115/21/1 116/21/1 
f 114/21/11 117/21/11 118/21/11 115/21/11 
f 117/21/7 119/21/7 120/21/7 118/21/7 
f 119/21/3 113/21/3 116/21/3 120/21/3 
f 116/21/6 115/21/6 118/21/6 120/21/6 
f 119/21/4 117/21/4 114/21/4 113/21/4 
f 121/21/1 122/21/1 123/21/1 124/21/1 
f 122/21/11 125/21/11 126/21/11 123/21/11 
f 125/21/7 127/21/7 128/21/7 126/21/7 
f 127/21/3 121/21/3 124/21/3 128/21/3 
f 124/21/6 123/21/6 126/21/6 128/21/6 
f 127/21/4 125/21/4 122/21/4 121/21/4 
f 129/21/1 130/21/1 131/21/1 132/21/1 
f 130/21/11 133/21/11 134/21/11 131/21/11 
f 133/21/7 135/21/7 136/21/7 134/21/7 
f 135/21/3 129/21/3 132/21/3 136/21/3 
f 132/21/6 131/21/6 134/21/6 136/21/6 
f 135/21/4 133/21/4 130/21/4 129/21/4 
f 137/21/1 138/21/1 139/21/1 140/21/1 
f 138/21/11 141/21/11 142/21/11 139/21/11 
f 141/21/7 143/21/7 144/21/7 142/21/7 
f 143/21/3 137/21/3 140/21/3 144/21/3 
f 140/21/6 139/21/6 142/21/6 144/21/6 
f 143/21/4 141/21/4 138/21/4 137/21/4 
f 145/21/1 146/21/1 147/21/1 148/21/1 
f 146/21/11 149/21/11 150/21/11 147/21/11 
f 149/21/7 151/21/7 152/21/7 150/21/7 
f 151/21/3 145/21/3 148/21/3 152/21/3 
f 148/21/6 147/21/6 150/21/6 152/21/6 
f 151/21/4 149/21/4 146/21/4 145/21/4 
f 153/21/1 154/21/1 155/21/1 156/21/1 
f 154/21/11 157/21/11 158/21/11 155/21/11 
f 157/21/7 159/21/7 160/21/7 158/21/7 
f 159/21/3 153/21/3 156/21/3 160/21/3 
f 156/21/6 155/21/6 158/21/6 160/21/6 
f 159/21/4 157/21/4 154/21/4 153/21/4 
f 161/21/1 162/21/1 163/21/1 164/21/1 
f 162/21/11 165/21/11 166/21/11 163/21/11 
f 165/21/7 167/21/7 168/21/7 166/21/7 
f 167/21/3 161/21/3 164/21/3 168/21/3 
f 164/21/6 163/21/6 166/21/6 168/21/6 
f 167/21/4 165/21/4 162/21/4 161/21/4 
f 169/21/1 170/21/1 171/21/1 172/21/1 
f 170/21/11 173/21/11 174/21/11 171/21/11 
f 173/21/7 175/21/7 176/21/7 174/21/7 
f 175/21/3 169/21/3 172/21/3 176/21/3 
f 172/21/6 171/21/6 174/21/6 176/21/6 
f 175/21/4 173/21/4 170/21/4 169/21/4 
f 177/21/1 178/21/1 179/21/1 180/21/1 
f 178/21/11 181/21/11 182/21/11 179/21/11 
f 181/21/7 183/21/7 184/21/7 182/21/7 
f 183/21/3 177/21/3 180/21/3 184/21/3 
f 180/21/6 179/21/6 182/21/6 184/21/6 
f 183/21/4 181/21/4 178/21/4 177/21/4 
f 185/21/1 186/21/1 187/21/1 188/21/1 
f 186/21/11 189/21/11 190/21/11 187/21/11 
f 189/21/7 191/21/7 192/21/7 190/21/7 
f 191/21/3 185/21/3 188/21/3 192/21/3 
f 188/21/6 187/21/6 190/21/6 192/21/6 
f 191/21/4 189/21/4 186/21/4 185/21/4 
f 193/21/1 194/21/1 195/21/1 196/21/1 
f 194/21/11 197/21/11 198/21/11 195/21/11 
f 197/21/7 199/21/7 200/21/7 198/21/7 
f 199/21/3 193/21/3 196/21/3 200/21/3 
f 196/21/6 195/21/6 198/21/6 200/21/6 
f 199/21/4 197/21/4 194/21/4 193/21/4 
f 201/22/1 202/23/1 203/24/1 204/25/1 
s 1
f 205/26/3 206/27/3 207/28/2 208/29/3 
f 207/28/2 209/30/3 210/31/3 208/29/3 
f 205/26/3 208/29/3 211/29/3 212/29/3 
f 211/29/3 213/29/3 214/32/3 212/29/3 
f 205/26/3 212/29/3 215/33/3 216/34/3 
f 215/33/3 217/35/3 218/36/3 216/34/3 
f 205/26/3 216/34/3 219/37/3 220/38/10 
f 220/38/10 221/39/10 222/40/3 223/41/3 
f 223/41/3 224/42/3 225/43/3 226/44/3 
f 220/38/10 223/41/3 226/44/3 227/45/3 
f 205/26/3 220/38/10 227/45/3 204/25/3 
f 204/25/3 227/45/3 228/46/3 
f 229/47/10 230/47/14 231/48/15 232/49/3 
f 231/48/15 221/39/10 220/38/10 218/36/3 
f 231/48/15 218/36/3 217/35/3 214/32/3 
f 231/48/15 214/32/3 213/29/3 210/31/3 
f 231/48/15 210/31/3 209/30/3 232/49/3 
f 233/47/10 207/28/2 206/27/3 232/49/3 
f 232/49/3 206/27/3 201/22/3 229/47/10 
f 234/50/16 229/47/10 201/22/3 235/51/3 
f 236/52/3 235/51/3 201/22/3 237/53/3 
f 238/54/3 237/53/3 201/22/3 224/42/3 
f 225/43/3 224/42/3 201/22/3 228/46/3 
f 204/25/3 228/46/3 201/22/3 
f 239/55/3 223/41/3 222/40/3 240/56/3 
f 222/40/3 230/47/14 229/47/10 241/52/16 
f 241/52/16 235/51/3 236/57/3 242/57/3 
f 222/40/3 241/52/16 242/57/3 240/56/3 
f 238/54/3 239/55/3 240/56/3 237/56/3 
s 2
f 201/22/4 206/27/4 243/58/4 244/59/4 
s 1
f 245/60/5 246/61/5 247/62/5 248/63/5 
f 248/63/5 249/64/5 250/65/5 251/66/17 
f 245/60/5 248/63/5 251/66/17 252/67/5 
f 253/68/5 254/69/5 255/70/5 256/71/5 
f 257/72/5 258/73/5 259/74/5 260/75/5 
f 261/76/5 262/77/5 263/78/17 264/79/11 
f 264/79/11 265/80/17 266/81/5 267/82/5 
f 261/76/5 264/79/11 267/82/5 260/75/5 
f 257/72/5 260/75/5 267/82/5 256/71/5 
f 253/68/5 256/71/5 267/82/5 268/83/5 
f 251/66/17 268/83/5 267/82/5 252/67/5 
f 269/84/5 252/67/5 267/82/5 203/24/5 
f 270/85/5 271/86/5 272/87/17 273/88/5 
f 274/89/17 275/90/5 276/91/18 273/88/5 
f 270/85/5 273/88/5 276/91/18 277/92/5 
f 276/91/18 249/64/5 248/63/5 278/93/5 
f 278/93/5 279/94/5 280/92/5 277/92/5 
f 276/91/18 278/93/5 277/92/5 
f 202/23/5 266/81/5 265/80/17 281/95/5 
f 254/69/5 251/66/17 250/65/5 255/70/5 
f 258/73/5 255/70/5 250/65/5 259/74/5 
f 262/77/5 259/74/5 250/65/5 263/78/17 
f 281/95/5 263/78/17 250/65/5 282/96/5 
f 202/23/5 281/95/5 282/96/5 275/90/5 
f 282/96/5 276/91/18 275/90/5 
f 203/24/5 202/23/5 275/90/5 272/87/17 
f 203/24/5 272/87/17 271/86/5 280/92/5 
f 203/24/5 280/92/5 279/94/5 247/62/5 
f 203/24/5 247/62/5 246/61/5 269/84/5 
s off
f 204/25/6 203/24/6 267/82/6 205/26/6 
f 266/81/7 206/27/7 205/26/7 267/82/7 
f 251/66/8 254/69/8 283/97/8 284/98/8 
f 268/83/13 251/66/13 284/98/13 285/99/13 
f 286/100/5 285/99/5 284/98/5 283/97/5 
f 254/69/6 253/68/6 286/100/6 283/97/6 
f 253/68/9 268/83/9 285/99/9 286/100/9 
f 255/70/8 258/73/8 287/101/8 288/102/8 
f 256/71/4 255/70/4 288/102/4 289/103/4 
f 290/104/17 289/103/17 288/102/17 287/101/17 
f 258/73/6 257/72/6 290/104/6 287/101/6 
f 257/72/9 256/71/9 289/103/9 290/104/9 
f 259/74/8 262/77/8 291/105/8 292/106/8 
f 260/75/4 259/74/4 292/106/4 293/107/4 
f 294/108/5 293/107/5 292/106/5 291/105/5 
f 262/77/6 261/76/6 294/108/6 291/105/6 
f 261/76/9 260/75/9 293/107/9 294/108/9 
f 263/78/8 281/95/8 295/95/8 296/109/8 
f 264/79/4 263/78/4 296/109/4 297/110/4 
f 298/80/5 297/110/5 296/109/5 295/95/5 
f 281/95/6 265/80/6 298/80/6 295/95/6 
f 265/80/9 264/79/9 297/110/9 298/80/9 
f 269/84/8 246/61/8 299/111/8 300/112/8 
f 252/67/13 269/84/13 300/112/13 301/113/13 
f 302/114/5 301/113/5 300/112/5 299/111/5 
f 246/61/6 245/60/6 302/114/6 299/111/6 
f 245/60/9 252/67/9 301/113/9 302/114/9 
f 247/62/8 279/94/8 303/93/8 304/115/8 
f 248/63/4 247/62/4 304/115/4 305/116/4 
f 306/93/17 305/116/17 304/115/17 303/93/17 
f 279/94/6 278/93/6 306/93/6 303/93/6 
f 278/93/9 248/63/9 305/116/9 306/93/9 
f 280/92/8 271/86/8 307/117/8 308/92/8 
f 277/92/4 280/92/4 308/92/4 309/92/4 
f 310/85/5 309/92/5 308/92/5 307/117/5 
f 271/86/6 270/85/6 310/85/6 307/117/6 
f 270/85/9 277/92/9 309/92/9 310/85/9 
f 272/87/8 275/90/8 311/118/8 312/87/8 
f 273/88/4 272/87/4 312/87/4 313/119/4 
f 314/120/5 313/119/5 312/87/5 311/118/5 
f 275/90/19 274/89/19 314/120/19 311/118/19 
f 274/89/9 273/88/9 313/119/9 314/120/9 
f 249/64/7 276/91/7 315/121/7 316/122/7 
f 250/65/4 249/64/4 316/122/4 317/123/4 
f 318/96/5 317/123/5 316/122/5 315/121/5 
f 276/91/6 282/96/6 318/96/6 315/121/6 
f 282/96/1 250/65/1 317/123/1 318/96/1 
f 218/36/8 220/38/8 319/124/8 320/125/8 
f 216/34/6 218/36/6 320/125/6 321/126/6 
f 320/125/3 319/124/3 322/127/3 321/126/3 
f 220/38/4 219/37/4 322/127/4 319/124/4 
f 219/37/9 216/34/9 321/126/9 322/127/9 
f 214/32/8 217/35/8 323/128/8 324/32/8 
f 212/29/6 214/32/6 324/32/6 325/29/6 
f 324/32/10 323/128/10 326/129/10 325/29/10 
f 217/35/4 215/33/4 326/129/4 323/128/4 
f 215/33/9 212/29/9 325/29/9 326/129/9 
f 210/31/8 213/29/8 327/29/8 328/130/8 
f 208/29/6 210/31/6 328/130/6 329/131/6 
f 328/130/3 327/29/3 330/29/3 329/131/3 
f 213/29/4 211/29/4 330/29/4 327/29/4 
f 211/29/9 208/29/9 329/131/9 330/29/9 
f 232/49/8 209/30/8 331/132/8 332/49/8 
f 233/47/6 232/49/6 332/49/6 333/133/6 
f 332/49/3 331/132/3 334/134/3 333/133/3 
f 209/30/4 207/28/4 334/134/4 331/132/4 
f 207/28/9 233/47/9 333/133/9 334/134/9 
f 225/43/8 228/46/8 335/135/8 336/136/8 
f 226/44/6 225/43/6 336/136/6 337/137/6 
f 336/136/3 335/135/3 338/138/3 337/137/3 
f 228/46/4 227/45/4 338/138/4 335/135/4 
f 227/45/9 226/44/9 337/137/9 338/138/9 
f 238/54/8 224/42/8 339/139/8 340/140/8 
f 239/55/6 238/54/6 340/140/6 341/141/6 
f 340/140/10 339/139/10 342/142/10 341/141/10 
f 224/42/4 223/41/4 342/142/4 339/139/4 
f 223/41/9 239/55/9 341/141/9 342/142/9 
f 236/57/8 237/56/8 343/56/8 344/57/8 
f 242/57/6 236/57/6 344/57/6 345/57/6 
f 344/57/3 343/56/3 346/56/3 345/57/3 
f 237/56/4 240/56/4 346/56/4 343/56/4 
f 240/56/9 242/57/9 345/57/9 346/56/9 
f 234/50/8 235/51/8 347/143/8 348/144/8 
f 229/47/6 234/50/6 348/144/6 349/145/6 
f 348/144/3 347/143/3 350/146/3 349/145/3 
f 235/51/4 241/52/4 350/146/4 347/143/4 
f 241/52/9 229/47/9 349/145/9 350/146/9 
f 230/47/7 222/40/7 351/147/7 352/148/7 
f 231/48/6 230/47/6 352/148/6 353/149/6 
f 352/148/3 351/147/3 354/150/3 353/149/3 
f 222/40/4 221/39/4 354/150/4 351/147/4 
f 221/39/1 231/48/1 353/149/1 354/150/1 
f 244/59/5 243/58/5 355/151/5 356/152/5 
s 2
f 202/23/4 201/22/4 244/59/4 357/153/4 
f 266/81/4 202/23/4 357/153/4 358/154/4 
f 206/27/4 266/81/4 358/154/4 243/58/4 
s off
f 355/155/4 359/156/4 360/157/4 356/158/4 
f 357/153/7 244/59/7 356/152/7 360/159/7 
f 358/154/3 357/153/3 360/159/3 359/160/3 
f 243/58/1 358/154/1 359/160/1 355/151/1 
f 361/21/4 362/21/4 363/21/4 364/21/4 
f 362/21/11 365/21/11 366/21/11 363/21/11 
f 365/21/6 367/21/6 368/21/6 366/21/6 
f 367/21/3 361/21/3 364/21/3 368/21/3 
f 364/21/20 363/21/20 366/21/20 368/21/20 
f 367/21/21 365/21/21 362/21/21 361/21/21 
f 369/21/4 370/21/4 371/21/4 372/21/4 
f 370/21/11 373/21/11 374/21/11 371/21/11 
f 373/21/6 375/21/6 376/21/6 374/21/6 
f 375/21/3 369/21/3 372/21/3 376/21/3 
f 372/21/20 371/21/20 374/21/20 376/21/20 
f 375/21/21 373/21/21 370/21/21 369/21/21 
f 377/21/1 378/21/1 379/21/1 380/21/1 
f 378/21/5 381/21/5 382/21/5 379/21/5 
f 381/21/8 383/21/8 384/21/8 382/21/8 
f 383/21/3 377/21/3 380/21/3 384/21/3 
f 380/21/6 379/21/6 382/21/6 384/21/6 
f 383/21/4 381/21/4 378/21/4 377/21/4 
f 385/21/1 386/21/1 387/21/1 388/21/1 
f 386/21/5 389/21/5 390/21/5 387/21/5 
f 389/21/8 391/21/8 392/21/8 390/21/8 
f 391/21/3 385/21/3 388/21/3 392/21/3 
f 388/21/6 387/21/6 390/21/6 392/21/6 
f 391/21/13 389/21/13 386/21/13 385/21/13 
f 393/21/1 394/21/1 395/21/1 396/21/1 
f 394/21/5 397/21/5 398/21/5 395/21/5 
f 397/21/8 399/21/8 400/21/8 398/21/8 
f 399/21/3 393/21/3 396/21/3 400/21/3 
f 396/21/6 395/21/6 398/21/6 400/21/6 
f 399/21/4 397/21/4 394/21/4 393/21/4 
f 401/21/1 402/21/1 403/21/1 404/21/1 
f 402/21/5 405/21/5 406/21/5 403/21/5 
f 405/21/8 407/21/8 408/21/8 406/21/8 
f 407/21/3 401/21/3 404/21/3 408/21/3 
f 404/21/6 403/21/6 406/21/6 408/21/6 
f 407/21/4 405/21/4 402/21/4 401/21/4 
f 409/21/1 410/21/1 411/21/1 412/21/1 
f 410/21/5 413/21/5 414/21/5 411/21/5 
f 413/21/8 415/21/8 416/21/8 414/21/8 
f 415/21/3 409/21/3 412/21/3 416/21/3 
f 412/21/6 411/21/6 414/21/6 416/21/6 
f 415/21/4 413/21/4 410/21/4 409/21/4 
f 417/21/1 418/21/1 419/21/1 420/21/1 
f 418/21/11 421/21/11 422/21/11 419/21/11 
f 421/21/7 423/21/7 424/21/7 422/21/7 
f 423/21/3 417/21/3 420/21/3 424/21/3 
f 420/21/6 419/21/6 422/21/6 424/21/6 
f 423/21/4 421/21/4 418/21/4 417/21/4 
f 425/21/1 426/21/1 427/21/1 428/21/1 
f 426/21/11 429/21/11 430/21/11 427/21/11 
f 429/21/7 431/21/7 432/21/7 430/21/7 
f 431/21/3 425/21/3 428/21/3 432/21/3 
f 428/21/6 427/21/6 430/21/6 432/21/6 
f 431/21/4 429/21/4 426/21/4 425/21/4 
f 433/21/1 434/21/1 435/21/1 436/21/1 
f 434/21/11 437/21/11 438/21/11 435/21/11 
f 437/21/7 439/21/7 440/21/7 438/21/7 
f 439/21/3 433/21/3 436/21/3 440/21/3 
f 436/21/6 435/21/6 438/21/6 440/21/6 
f 439/21/4 437/21/4 434/21/4 433/21/4 
f 441/21/4 442/21/4 443/21/4 444/21/4 
f 442/21/11 445/21/11 446/21/11 443/21/11 
f 445/21/22 447/21/22 448/21/22 446/21/22 
f 447/21/3 441/21/3 444/21/3 448/21/3 
f 444/21/9 443/21/9 446/21/9 448/21/9 
f 447/21/7 445/21/7 442/21/7 441/21/7 
f 449/21/4 450/21/4 451/21/4 452/21/4 
f 450/21/11 453/21/11 454/21/11 451/21/11 
f 453/21/22 455/21/22 456/21/22 454/21/22 
f 455/21/3 449/21/3 452/21/3 456/21/3 
f 452/21/1 451/21/1 454/21/1 456/21/1 
f 455/21/7 453/21/7 450/21/7 449/21/7 
f 457/21/4 458/21/4 459/21/4 460/21/4 
f 458/21/11 461/21/11 462/21/11 459/21/11 
f 461/21/22 463/21/22 464/21/22 462/21/22 
f 463/21/3 457/21/3 460/21/3 464/21/3 
f 460/21/1 459/21/1 462/21/1 464/21/1 
f 463/21/7 461/21/7 458/21/7 457/21/7 
f 465/21/4 466/21/4 467/21/4 468/21/4 
f 466/21/11 469/21/11 470/21/11 467/21/11 
f 469/21/22 471/21/22 472/21/22 470/21/22 
f 471/21/3 465/21/3 468/21/3 472/21/3 
f 468/21/9 467/21/9 470/21/9 472/21/9 
f 471/21/7 469/21/7 466/21/7 465/21/7 
f 473/21/8 474/21/8 475/21/8 476/21/8 
f 474/21/11 477/21/11 478/21/11 475/21/11 
f 477/21/20 479/21/20 480/21/20 478/21/20 
f 479/21/2 473/21/2 476/21/2 480/21/2 
f 476/21/4 475/21/4 478/21/4 480/21/4 
f 479/21/22 477/21/22 474/21/22 473/21/22 
f 481/21/1 482/21/1 483/21/1 484/21/1 
f 482/21/11 485/21/11 486/21/11 483/21/11 
f 485/21/7 487/21/7 488/21/7 486/21/7 
f 487/21/3 481/21/3 484/21/3 488/21/3 
f 484/21/6 483/21/6 486/21/6 488/21/6 
f 487/21/4 485/21/4 482/21/4 481/21/4 
f 489/21/1 490/21/1 491/21/1 492/21/1 
f 490/21/11 493/21/11 494/21/11 491/21/11 
f 493/21/7 495/21/7 496/21/7 494/21/7 
f 495/21/3 489/21/3 492/21/3 496/21/3 
f 492/21/6 491/21/6 494/21/6 496/21/6 
f 495/21/4 493/21/4 490/21/4 489/21/4 
f 497/21/1 498/21/1 499/21/1 500/21/1 
f 498/21/11 501/21/11 502/21/11 499/21/11 
f 501/21/7 503/21/7 504/21/7 502/21/7 
f 503/21/3 497/21/3 500/21/3 504/21/3 
f 500/21/6 499/21/6 502/21/6 504/21/6 
f 503/21/4 501/21/4 498/21/4 497/21/4 
f 505/21/1 506/21/1 507/21/1 508/21/1 
f 506/21/11 509/21/11 510/21/11 507/21/11 
f 509/21/7 511/21/7 512/21/7 510/21/7 
f 511/21/3 505/21/3 508/21/3 512/21/3 
f 508/21/6 507/21/6 510/21/6 512/21/6 
f 511/21/4 509/21/4 506/21/4 505/21/4 
f 513/21/21 514/21/21 515/21/21 516/21/21 
f 514/21/11 517/21/11 518/21/11 515/21/11 
f 517/21/12 519/21/12 520/21/12 518/21/12 
f 519/21/2 513/21/2 516/21/2 520/21/2 
f 516/21/4 515/21/4 518/21/4 520/21/4 
f 519/21/22 517/21/22 514/21/22 513/21/22 
f 521/21/1 522/21/1 523/21/1 524/21/1 
f 522/21/11 525/21/11 526/21/11 523/21/11 
f 525/21/7 527/21/7 528/21/7 526/21/7 
f 527/21/3 521/21/3 524/21/3 528/21/3 
f 524/21/6 523/21/6 526/21/6 528/21/6 
f 527/21/4 525/21/4 522/21/4 521/21/4 
f 529/21/1 530/21/1 531/21/1 532/21/1 
f 530/21/11 533/21/11 534/21/11 531/21/11 
f 533/21/7 535/21/7 536/21/7 534/21/7 
f 535/21/3 529/21/3 532/21/3 536/21/3 
f 532/21/6 531/21/6 534/21/6 536/21/6 
f 535/21/4 533/21/4 530/21/4 529/21/4 
f 537/21/1 538/21/1 539/21/1 540/21/1 
f 538/21/11 541/21/11 542/21/11 539/21/11 
f 541/21/7 543/21/7 544/21/7 542/21/7 
f 543/21/3 537/21/3 540/21/3 544/21/3 
f 540/21/6 539/21/6 542/21/6 544/21/6 
f 543/21/4 541/21/4 538/21/4 537/21/4 
f 545/21/4 546/21/4 547/21/4 548/21/4 
f 546/21/11 549/21/11 550/21/11 547/21/11 
f 549/21/22 551/21/22 552/21/22 550/21/22 
f 551/21/3 545/21/3 548/21/3 552/21/3 
f 548/21/1 547/21/1 550/21/1 552/21/1 
f 551/21/7 549/21/7 546/21/7 545/21/7 
f 553/21/4 554/21/4 555/21/4 556/21/4 
f 554/21/11 557/21/11 558/21/11 555/21/11 
f 557/21/22 559/21/22 560/21/22 558/21/22 
f 559/21/3 553/21/3 556/21/3 560/21/3 
f 556/21/1 555/21/1 558/21/1 560/21/1 
f 559/21/7 557/21/7 554/21/7 553/21/7 
f 561/21/4 562/21/4 563/21/4 564/21/4 
f 562/21/11 565/21/11 566/21/11 563/21/11 
f 565/21/22 567/21/22 568/21/22 566/21/22 
f 567/21/3 561/21/3 564/21/3 568/21/3 
f 564/21/1 563/21/1 566/21/1 568/21/1 
f 567/21/7 565/21/7 562/21/7 561/21/7 
f 569/21/4 570/21/4 571/21/4 572/21/4 
f 570/21/11 573/21/11 574/21/11 571/21/11 
f 573/21/22 575/21/22 576/21/22 574/21/22 
f 575/21/3 569/21/3 572/21/3 576/21/3 
f 572/21/1 571/21/1 574/21/1 576/21/1 
f 575/21/7 573/21/7 570/21/7 569/21/7 
f 577/21/9 578/21/9 579/21/9 580/21/9 
f 578/21/11 581/21/11 582/21/11 579/21/11 
f 581/21/7 583/21/7 584/21/7 582/21/7 
f 583/21/3 577/21/3 580/21/3 584/21/3 
f 580/21/6 579/21/6 582/21/6 584/21/6 
f 583/21/4 581/21/4 578/21/4 577/21/4 
f 585/21/1 586/21/1 587/21/1 588/21/1 
f 586/21/4 589/21/4 590/21/4 587/21/4 
f 589/21/7 591/21/7 592/21/7 590/21/7 
f 591/21/6 585/21/6 588/21/6 592/21/6 
f 588/21/11 587/21/11 590/21/11 592/21/11 
f 591/21/3 589/21/3 586/21/3 585/21/3 
f 593/21/5 594/21/5 595/21/5 596/21/5 
f 594/21/13 597/21/13 598/21/13 595/21/13 
f 597/21/3 599/21/3 600/21/3 598/21/3 
f 599/21/23 593/21/23 596/21/23 600/21/23 
f 596/21/8 595/21/8 598/21/8 600/21/8 
f 599/21/9 597/21/9 594/21/9 593/21/9 
f 601/21/1 602/21/1 603/21/1 604/21/1 
f 602/21/11 605/21/11 606/21/11 603/21/11 
f 605/21/8 607/21/8 608/21/8 606/21/8 
f 607/21/3 601/21/3 604/21/3 608/21/3 
f 604/21/6 603/21/6 606/21/6 608/21/6 
f 607/21/4 605/21/4 602/21/4 601/21/4 
f 609/21/1 610/21/1 611/21/1 612/21/1 
f 610/21/4 613/21/4 614/21/4 611/21/4 
f 613/21/7 615/21/7 616/21/7 614/21/7 
f 615/21/6 609/21/6 612/21/6 616/21/6 
f 612/21/11 611/21/11 614/21/11 616/21/11 
f 615/21/3 613/21/3 610/21/3 609/21/3 
f 617/21/9 618/21/9 619/21/9 620/21/9 
f 618/21/11 621/21/11 622/21/11 619/21/11 
f 621/21/7 623/21/7 624/21/7 622/21/7 
f 623/21/3 617/21/3 620/21/3 624/21/3 
f 620/21/6 619/21/6 622/21/6 624/21/6 
f 623/21/4 621/21/4 618/21/4 617/21/4 
f 625/21/1 626/21/1 627/21/1 628/21/1 
f 626/21/11 629/21/11 630/21/11 627/21/11 
f 629/21/8 631/21/8 632/21/8 630/21/8 
f 631/21/3 625/21/3 628/21/3 632/21/3 
f 628/21/6 627/21/6 630/21/6 632/21/6 
f 631/21/4 629/21/4 626/21/4 625/21/4 
f 633/21/5 634/21/5 635/21/5 636/21/5 
f 634/21/13 637/21/13 638/21/13 635/21/13 
f 637/21/3 639/21/3 640/21/3 638/21/3 
f 639/21/6 633/21/6 636/21/6 640/21/6 
f 636/21/8 635/21/8 638/21/8 640/21/8 
f 639/21/9 637/21/9 634/21/9 633/21/9 
f 641/21/5 642/21/5 643/21/5 644/21/5 
f 642/21/13 645/21/13 646/21/13 643/21/13 
f 645/21/3 647/21/3 648/21/3 646/21/3 
f 647/21/6 641/21/6 644/21/6 648/21/6 
f 644/21/7 643/21/7 646/21/7 648/21/7 
f 647/21/1 645/21/1 642/21/1 641/21/1 
f 649/21/5 650/21/5 651/21/5 652/21/5 
f 650/21/13 653/21/13 654/21/13 651/21/13 
f 653/21/3 655/21/3 656/21/3 654/21/3 
f 655/21/6 649/21/6 652/21/6 656/21/6 
f 652/21/8 651/21/8 654/21/8 656/21/8 
f 655/21/9 653/21/9 650/21/9 649/21/9 
f 657/21/5 658/21/5 659/21/5 660/21/5 
f 658/21/13 661/21/13 662/21/13 659/21/13 
f 661/21/3 663/21/3 664/21/3 662/21/3 
f 663/21/6 657/21/6 660/21/6 664/21/6 
f 660/21/8 659/21/8 662/21/8 664/21/8 
f 663/21/9 661/21/9 658/21/9 657/21/9 
f 665/21/5 666/21/5 667/21/5 668/21/5 
f 666/21/13 669/21/13 670/21/13 667/21/13 
f 669/21/3 671/21/3 672/21/3 670/21/3 
f 671/21/23 665/21/23 668/21/23 672/21/23 
f 668/21/8 667/21/8 670/21/8 672/21/8 
f 671/21/9 669/21/9 666/21/9 665/21/9 
f 673/161/9 674/161/9 675/162/9 676/162/9 
f 674/161/11 677/163/11 678/164/11 675/162/11 
f 677/163/8 679/163/8 680/164/8 678/164/8 
f 679/163/3 673/161/3 676/162/3 680/164/3 
f 676/162/6 675/162/6 678/164/6 680/164/6 
f 679/163/4 677/163/4 674/161/4 673/161/4 
f 681/21/9 682/21/9 683/21/9 684/21/9 
f 682/21/11 685/21/11 686/21/11 683/21/11 
f 685/21/8 687/21/8 688/21/8 686/21/8 
f 687/21/3 681/21/3 684/21/3 688/21/3 
f 684/21/6 683/21/6 686/21/6 688/21/6 
f 687/21/4 685/21/4 682/21/4 681/21/4 
f 689/21/9 690/21/9 691/21/9 692/21/9 
f 690/21/11 693/21/11 694/21/11 691/21/11 
f 693/21/8 695/21/8 696/21/8 694/21/8 
f 695/21/3 689/21/3 692/21/3 696/21/3 
f 692/21/6 691/21/6 694/21/6 696/21/6 
f 695/21/4 693/21/4 690/21/4 689/21/4 
f 697/21/4 698/21/4 699/21/4 700/21/4 
f 698/21/11 701/21/11 702/21/11 699/21/11 
f 701/21/6 703/21/6 704/21/6 702/21/6 
f 703/21/3 697/21/3 700/21/3 704/21/3 
f 700/21/20 699/21/20 702/21/20 704/21/20 
f 703/21/21 701/21/21 698/21/21 697/21/21 
f 705/21/4 706/21/4 707/21/4 708/21/4 
f 706/21/11 709/21/11 710/21/11 707/21/11 
f 709/21/6 711/21/6 712/21/6 710/21/6 
f 711/21/3 705/21/3 708/21/3 712/21/3 
f 708/21/20 707/21/20 710/21/20 712/21/20 
f 711/21/21 709/21/21 706/21/21 705/21/21 
f 713/21/9 714/21/9 715/21/9 716/21/9 
f 714/21/5 717/21/5 718/21/5 715/21/5 
f 717/21/7 719/21/7 720/21/7 718/21/7 
f 719/21/3 713/21/3 716/21/3 720/21/3 
f 716/21/6 715/21/6 718/21/6 720/21/6 
f 719/21/4 717/21/4 714/21/4 713/21/4 
f 721/21/9 722/21/9 723/21/9 724/21/9 
f 722/21/5 725/21/5 726/21/5 723/21/5 
f 725/21/7 727/21/7 728/21/7 726/21/7 
f 727/21/3 721/21/3 724/21/3 728/21/3 
f 724/21/6 723/21/6 726/21/6 728/21/6 
f 727/21/13 725/21/13 722/21/13 721/21/13 
f 729/21/9 730/21/9 731/21/9 732/21/9 
f 730/21/5 733/21/5 734/21/5 731/21/5 
f 733/21/7 735/21/7 736/21/7 734/21/7 
f 735/21/3 729/21/3 732/21/3 736/21/3 
f 732/21/6 731/21/6 734/21/6 736/21/6 
f 735/21/4 733/21/4 730/21/4 729/21/4 
f 737/21/9 738/21/9 739/21/9 740/21/9 
f 738/21/5 741/21/5 742/21/5 739/21/5 
f 741/21/7 743/21/7 744/21/7 742/21/7 
f 743/21/3 737/21/3 740/21/3 744/21/3 
f 740/21/6 739/21/6 742/21/6 744/21/6 
f 743/21/4 741/21/4 738/21/4 737/21/4 
f 745/21/9 746/21/9 747/21/9 748/21/9 
f 746/21/5 749/21/5 750/21/5 747/21/5 
f 749/21/7 751/21/7 752/21/7 750/21/7 
f 751/21/3 745/21/3 748/21/3 752/21/3 
f 748/21/6 747/21/6 750/21/6 752/21/6 
f 751/21/4 749/21/4 746/21/4 745/21/4 
f 753/21/11 754/21/11 755/21/11 756/21/11 
f 754/21/8 757/21/8 758/21/8 755/21/8 
f 757/21/3 759/21/3 760/21/3 758/21/3 
f 759/21/9 753/21/9 756/21/9 760/21/9 
f 756/21/6 755/21/6 758/21/6 760/21/6 
f 759/21/4 757/21/4 754/21/4 753/21/4 
f 761/21/11 762/21/11 763/21/11 764/21/11 
f 762/21/8 765/21/8 766/21/8 763/21/8 
f 765/21/3 767/21/3 768/21/3 766/21/3 
f 767/21/9 761/21/9 764/21/9 768/21/9 
f 764/21/6 763/21/6 766/21/6 768/21/6 
f 767/21/4 765/21/4 762/21/4 761/21/4 
f 769/165/1 770/166/1 51/167/1 52/168/1 
f 770/165/5 771/166/5 54/167/5 51/168/5 
f 771/165/7 772/166/7 56/167/7 54/168/7 
f 772/165/3 769/166/3 52/167/3 56/168/3 
f 52/165/6 51/166/6 54/167/6 56/168/6 
f 772/165/4 771/166/4 770/167/4 769/168/4 
# 624 polygons - 8 triangles

