# 3ds Max Wavefront OBJ Exporter v0.97b - (c)2007 guruware
# File Created: 15.03.2017 10:43:25

mtllib SPW_Urban_Bldg_17.mtl

#
# object SPW_Urban_Bldg_17
#

v  413.3859 413.3858 308.3146
v  413.3859 34.4488 308.3146
v  413.3859 34.4488 -173.9689
v  413.3859 413.3859 -173.9688
v  -344.4881 413.3858 308.3147
v  -344.4881 34.4488 308.3147
v  413.3859 -0.0001 308.3146
v  413.3859 -0.0000 -173.9689
v  344.4882 34.4488 -173.9689
v  344.4882 413.3859 -173.9688
v  -344.4882 413.3858 170.5194
v  -344.4882 34.4488 170.5194
v  -344.4881 -0.0001 308.3147
v  344.4882 -0.0000 -173.9689
v  -344.4882 -0.0001 170.5194
v  -413.3858 -0.0001 170.5194
v  -413.3858 -0.0000 -105.0712
v  -344.4882 -0.0000 -105.0712
v  -344.4882 -0.0000 -242.8664
v  -137.7953 -0.0000 -242.8665
v  344.4882 0.0000 -311.7642
v  -137.7953 0.0000 -311.7641
v  344.4882 34.4489 -311.7642
v  344.4882 413.3859 -311.7641
v  -413.3858 413.3858 170.5194
v  -413.3858 34.4488 170.5194
v  -413.3858 34.4488 -105.0712
v  -344.4882 34.4488 -105.0712
v  -344.4882 34.4488 -242.8664
v  -137.7953 34.4488 -242.8665
v  -137.7953 34.4489 -311.7641
v  310.0394 106.7915 -311.7641
v  310.0394 203.2482 -311.7641
v  310.0394 261.8111 -311.7641
v  310.0394 358.2676 -311.7641
v  310.0394 413.3859 -311.7641
v  -413.3858 413.3859 -105.0711
v  -344.4882 413.3859 -105.0711
v  -344.4882 413.3859 -242.8664
v  -310.0394 261.8111 -242.8664
v  -172.2441 261.8111 -242.8664
v  -310.0394 358.2676 -242.8664
v  -172.2441 358.2676 -242.8664
v  -172.2441 413.3859 -242.8664
v  -137.7953 413.3859 -311.7641
v  -137.7953 413.3859 -242.8664
v  103.3464 358.2677 -311.7641
v  0.0582 358.2676 -311.7641
v  103.3464 261.8113 -311.7641
v  103.3464 203.2484 -311.7641
v  103.3464 106.7918 -311.7641
v  0.0582 106.7915 -311.7641
v  0.0582 203.2482 -311.7641
v  0.0582 261.8111 -311.7641
v  0.0582 413.3859 -311.7641
v  310.0394 106.7915 -310.3744
v  310.0394 203.2482 -310.3744
v  310.0394 261.8111 -310.3745
v  310.0394 358.2676 -310.3744
v  -172.2441 358.2676 -241.4649
v  -310.0394 358.2676 -241.4649
v  -310.0394 261.8111 -241.4649
v  -172.2441 261.8111 -241.4649
v  -103.4047 261.8113 -311.7641
v  -103.4047 203.2484 -311.7641
v  -103.4047 106.7918 -311.7641
v  -103.4047 358.2677 -311.7641
v  103.3464 358.2677 -310.3744
v  103.3464 261.8113 -310.3744
v  103.3464 203.2484 -310.3744
v  103.3464 106.7918 -310.3744
v  0.0582 106.7915 -310.2538
v  0.0582 203.2482 -310.2538
v  0.0582 261.8111 -310.2539
v  0.0582 358.2676 -310.2538
v  -103.4047 358.2677 -310.2538
v  -103.4047 261.8113 -310.2539
v  -103.4047 203.2484 -310.2538
v  -103.4047 106.7918 -310.2538
v  -137.7953 433.0709 -311.7641
v  0.0582 433.0709 -311.7641
v  -137.7953 202.9760 -311.7641
v  -137.7953 202.9760 -173.9688
v  -137.7953 189.1965 -173.9688
v  -137.7953 189.1965 -311.7641
v  -344.4193 202.9760 -311.7640
v  -344.4193 189.1965 -311.7640
v  -344.4193 202.9760 -173.9688
v  -344.4193 189.1965 -173.9688
v  -192.2358 144.6850 -243.4366
v  -192.2358 144.6850 175.5858
v  -192.2358 -0.0001 175.5857
v  -192.2358 -0.0000 -243.4367
v  -295.5822 144.6850 -243.4366
v  -295.5822 -0.0000 -243.4367
v  -295.5822 144.6850 175.5858
v  -295.5822 -0.0001 175.5857
v  -121.6993 433.0709 -295.7935
v  0.0559 433.0709 -295.7935
v  -172.2441 433.0709 -242.8664
v  -137.7953 433.0709 -242.8664
v  310.0394 433.0709 -311.7641
v  -344.4882 433.0709 -242.8664
v  -344.4882 433.0709 -105.0711
v  -413.3858 433.0709 -105.0711
v  -413.3858 433.0708 170.5195
v  344.4882 433.0709 -311.7641
v  -344.4882 433.0708 170.5195
v  344.4882 433.0709 -173.9688
v  -344.4881 433.0708 308.3147
v  413.3859 433.0709 -173.9688
v  413.3859 433.0708 308.3146
v  -121.6993 423.2284 -295.7935
v  0.0559 423.2284 -295.7935
v  -165.6374 433.0709 -226.7873
v  -121.6993 433.0709 -226.7873
v  298.1473 433.0709 -295.7935
v  -328.8873 433.0709 -226.7873
v  -328.8872 433.0709 -89.1593
v  -397.5297 433.0709 -89.1593
v  -397.5297 433.0708 156.8979
v  328.4808 433.0709 -295.7935
v  -328.8872 433.0708 156.8979
v  328.4809 433.0709 -160.3067
v  -328.8872 433.0708 292.3441
v  397.5298 433.0709 -160.3067
v  397.5298 433.0708 292.3441
v  -165.6374 423.2284 -226.7873
v  -328.8873 423.2284 -226.7873
v  -328.8872 423.2284 -89.1593
v  -121.6993 423.2284 -226.7873
v  -397.5297 423.2284 -89.1593
v  -397.5297 423.2283 156.8979
v  -328.8872 423.2283 156.8979
v  328.4809 423.2284 -160.3067
v  -328.8872 423.2283 292.3441
v  397.5298 423.2283 292.3441
v  397.5298 423.2284 -160.3067
v  328.4808 423.2284 -295.7935
v  298.1473 423.2284 -295.7935
# 140 vertices

vn 1.0000 0.0000 -0.0000
vn 0.0000 -0.0000 1.0000
vn 0.0000 0.0000 -1.0000
vn -1.0000 -0.0000 0.0000
vn -0.0000 -1.0000 -0.0000
vn 0.0000 -1.0000 -0.0000
vn -1.0000 0.0000 -0.0000
vn -0.0000 0.0000 -1.0000
vn 0.0000 -0.0000 -1.0000
vn -0.0000 -0.0000 -1.0000
vn 0.0000 1.0000 0.0000
vn -0.0000 1.0000 0.0000
# 12 vertex normals

vt 0.1008 0.8543 0.0000
vt 0.1008 0.8496 0.0000
vt 0.0957 0.8457 0.0000
vt 0.0957 0.8504 0.0000
vt 0.1107 0.8494 0.0000
vt 0.1107 0.8447 0.0000
vt 0.0966 0.8452 0.0000
vt 0.0966 0.8500 0.0000
vt 0.1093 0.8483 0.0000
vt 0.1093 0.8436 0.0000
vt 0.1102 0.8431 0.0000
vt 0.1073 0.8409 0.0000
vt 0.1064 0.8413 0.0000
vt 0.1050 0.8402 0.0000
vt 0.1022 0.8416 0.0000
vt 0.0952 0.8441 0.0000
vt 0.1015 0.8410 0.0000
vt 0.2717 0.6698 0.0000
vt 0.2717 0.6651 0.0000
vt 0.2703 0.6640 0.0000
vt 0.2703 0.6687 0.0000
vt 0.2853 0.6678 0.0000
vt 0.2853 0.6630 0.0000
vt 0.2844 0.6635 0.0000
vt 0.2844 0.6682 0.0000
vt 0.0952 0.8392 0.0000
vt 0.0966 0.8403 0.0000
vt 0.1093 0.8387 0.0000
vt 0.1102 0.8382 0.0000
vt 0.1073 0.8360 0.0000
vt 0.1064 0.8364 0.0000
vt 0.1022 0.8366 0.0000
vt 0.1015 0.8361 0.0000
vt 0.2707 0.6647 0.0000
vt 0.2707 0.6660 0.0000
vt 0.2707 0.6668 0.0000
vt 0.2707 0.6680 0.0000
vt 0.2707 0.6685 0.0000
vt 0.2824 0.6655 0.0000
vt 0.2824 0.6608 0.0000
vt 0.2815 0.6660 0.0000
vt 0.2815 0.6612 0.0000
vt 0.1050 0.8450 0.0000
vt 0.1064 0.8461 0.0000
vt 0.1045 0.8434 0.0000
vt 0.1027 0.8443 0.0000
vt 0.1045 0.8447 0.0000
vt 0.1027 0.8456 0.0000
vt 0.1027 0.8461 0.0000
vt 0.2766 0.6656 0.0000
vt 0.2766 0.6609 0.0000
vt 0.2773 0.6614 0.0000
vt 0.2773 0.6662 0.0000
vt 0.2735 0.6667 0.0000
vt 0.2748 0.6660 0.0000
vt 0.2735 0.6654 0.0000
vt 0.2735 0.6647 0.0000
vt 0.2735 0.6634 0.0000
vt 0.2748 0.6627 0.0000
vt 0.2748 0.6640 0.0000
vt 0.2748 0.6648 0.0000
vt 0.2748 0.6665 0.0000
vt 0.0957 0.8461 0.0000
vt 0.0957 0.8448 0.0000
vt 0.0957 0.8449 0.0000
vt 0.0957 0.8482 0.0000
vt 0.0957 0.8469 0.0000
vt 0.1022 0.8463 0.0000
vt 0.1045 0.8435 0.0000
vt 0.2762 0.6641 0.0000
vt 0.2762 0.6633 0.0000
vt 0.2762 0.6621 0.0000
vt 0.2762 0.6654 0.0000
vt 0.0984 0.8468 0.0000
vt 0.0984 0.8456 0.0000
vt 0.0984 0.8448 0.0000
vt 0.0984 0.8435 0.0000
vt 0.0997 0.8441 0.0000
vt 0.0997 0.8428 0.0000
vt 0.0997 0.8429 0.0000
vt 0.0997 0.8462 0.0000
vt 0.0997 0.8449 0.0000
vt 0.9908 0.7924 0.0000
vt 0.9908 0.9877 0.0000
vt 0.5722 0.9877 0.0000
vt 0.5722 0.7924 0.0000
vt 0.9908 0.7923 0.0000
vt 0.5722 0.7923 0.0000
vt 0.9274 0.7926 0.0000
vt 0.9274 0.9868 0.0000
vt 0.6499 0.9868 0.0000
vt 0.6499 0.7926 0.0000
vt 0.1011 0.8455 0.0000
vt 0.1011 0.8442 0.0000
vt 0.1011 0.8434 0.0000
vt 0.1011 0.8435 0.0000
vt 0.1011 0.8422 0.0000
vt 0.7621 0.8099 0.0000
vt 0.7621 0.9877 0.0000
vt 0.5715 0.9877 0.0000
vt 0.5715 0.8099 0.0000
vt 0.1012 0.7843 0.0000
vt 0.1030 0.7834 0.0000
vt 0.0884 0.8711 0.0000
vt 0.0948 0.8776 0.0000
vt 0.0948 0.8764 0.0000
vt 0.0884 0.8699 0.0000
vt 0.1076 0.8662 0.0000
vt 0.1076 0.8650 0.0000
vt 0.1140 0.8727 0.0000
vt 0.1140 0.8715 0.0000
vt 0.7150 0.7170 0.0000
vt 0.7150 0.3527 0.0000
vt 0.9871 0.7170 0.0000
vt 0.9871 0.3527 0.0000
vt 0.0971 0.7863 0.0000
vt 0.1037 0.7840 0.0000
vt 0.1079 0.7838 0.0000
vt 0.1088 0.7833 0.0000
vt 0.1116 0.7856 0.0000
vt 0.0967 0.7865 0.0000
vt 0.1107 0.7860 0.0000
vt 0.0981 0.7877 0.0000
vt 0.8929 0.2728 0.0000
# 124 texture coords

g SPW_Urban_Bldg_17
usemtl SPW_Urban_Bldg_17
s 1
f 1/1/1 2/2/1 3/3/1 4/4/1 
s 2
f 5/5/2 6/6/2 2/2/2 1/1/2 
s 1
f 3/3/1 2/2/1 7/2/1 8/3/1 
s 2
f 4/4/3 3/3/3 9/7/3 10/8/3 
s 1
f 11/9/4 12/10/4 6/6/4 5/5/4 
s 2
f 2/2/2 6/6/2 13/6/2 7/2/2 
f 9/7/3 3/3/3 8/3/3 14/7/3 
s off
f 7/2/5 13/6/5 15/10/5 14/7/5 
f 15/10/6 16/11/6 17/12/6 18/13/6 
f 18/13/6 19/14/6 20/15/6 21/16/6 
f 20/15/6 22/17/6 21/16/6 
f 15/10/5 18/13/5 21/16/5 14/7/5 
f 8/3/6 7/2/6 14/7/6 
s 1
f 10/18/1 9/19/1 23/20/1 24/21/1 
s 2
f 25/22/2 26/23/2 12/24/2 11/25/2 
s 1
f 6/6/4 12/10/4 15/10/4 13/6/4 
f 23/26/1 9/27/1 14/27/1 21/26/1 
s 2
f 12/28/2 26/29/2 16/29/2 15/28/2 
s 1
f 26/29/7 27/30/7 17/30/7 16/29/7 
s 2
f 27/30/8 28/31/8 18/31/8 17/30/8 
s 1
f 28/13/4 29/14/4 19/14/4 18/13/4 
s 2
f 29/14/8 30/15/8 20/15/8 19/14/8 
s 1
f 30/32/4 31/33/4 22/33/4 20/32/4 
s 2
f 31/33/8 23/26/8 21/26/8 22/33/8 
f 24/21/8 23/20/8 32/34/8 33/35/8 
f 24/21/8 33/35/8 34/36/9 35/37/8 
f 24/21/8 35/37/8 36/38/8 
s 1
f 37/39/7 27/40/7 26/23/7 25/22/7 
s 2
f 38/41/8 28/42/8 27/40/8 37/39/8 
s 1
f 39/43/4 29/14/4 28/13/4 38/44/4 
s 2
f 40/45/8 41/46/3 30/15/8 29/14/8 
f 42/47/8 40/45/8 29/14/8 39/43/8 
f 43/48/8 42/47/8 39/43/8 44/49/8 
s 1
f 45/50/4 31/51/4 30/52/4 46/53/4 
s 2
f 36/38/8 35/37/8 47/54/10 48/55/8 
f 49/56/8 34/36/9 33/35/8 50/57/9 
f 51/58/8 32/34/8 23/20/8 52/59/8 
f 23/20/8 31/51/8 52/59/8 
f 50/57/9 51/58/8 52/59/8 49/56/8 
f 47/54/10 49/56/8 52/59/8 53/60/8 
f 47/54/10 53/60/8 54/61/9 48/55/8 
f 36/38/8 48/55/8 55/62/8 
s off
f 33/63/7 32/64/7 56/65/7 57/63/7 
f 35/66/7 34/67/7 58/67/7 59/66/7 
s 2
f 46/68/3 30/15/8 41/46/3 43/48/8 
f 46/68/3 43/48/8 44/49/8 
s off
f 42/47/6 43/48/6 60/48/6 61/47/6 
f 40/45/1 42/47/1 61/47/1 62/69/1 
f 41/46/11 40/45/11 62/69/11 63/46/11 
s 2
f 64/70/8 54/61/9 53/60/8 65/71/9 
f 66/72/8 52/59/8 31/51/8 65/71/9 
f 64/70/8 65/71/9 31/51/8 67/73/8 
f 67/73/8 31/51/8 45/50/8 48/55/8 
f 55/62/8 48/55/8 45/50/8 
s off
f 47/74/5 35/66/5 59/66/5 68/74/5 
f 49/75/1 47/74/1 68/74/1 69/75/1 
f 34/67/11 49/75/11 69/75/11 58/67/11 
f 50/76/5 33/63/5 57/63/5 70/76/5 
f 51/77/1 50/76/1 70/76/1 71/77/1 
f 32/64/11 51/77/11 71/77/11 56/65/11 
f 53/78/4 52/79/4 72/80/4 73/78/4 
f 48/81/4 54/82/4 74/82/4 75/81/4 
f 57/83/8 56/84/8 71/85/8 70/86/8 
f 59/87/8 58/84/8 69/85/8 68/88/8 
f 43/48/7 41/46/7 63/46/7 60/48/7 
f 60/89/3 63/90/3 62/91/3 61/92/3 
f 67/93/5 48/81/5 75/81/5 76/93/5 
f 64/94/1 67/93/1 76/93/1 77/94/1 
f 54/82/11 64/94/11 77/94/11 74/82/11 
f 65/95/5 53/78/5 73/78/5 78/96/5 
f 66/97/1 65/95/1 78/96/1 79/97/1 
f 52/79/11 66/97/11 79/97/11 72/80/11 
f 73/98/3 72/99/3 79/100/3 78/101/3 
f 75/98/3 74/99/3 77/100/3 76/101/3 
s 2
f 55/102/8 45/103/8 80/103/8 81/102/8 
s off
f 82/104/1 83/105/1 84/106/1 85/107/1 
f 86/108/8 82/104/8 85/107/8 87/109/8 
f 86/108/12 88/110/12 83/105/12 82/104/12 
f 83/105/2 88/110/2 89/111/2 84/106/2 
f 85/107/6 84/106/6 89/111/6 87/109/6 
f 88/110/4 86/108/4 87/109/4 89/111/4 
f 90/112/1 91/112/1 92/113/1 93/113/1 
f 94/114/3 90/112/3 93/113/3 95/115/3 
f 94/114/11 96/114/11 91/112/11 90/112/11 
f 91/112/2 96/114/2 97/115/2 92/113/2 
f 93/113/6 92/113/6 97/115/6 95/115/6 
f 96/114/4 94/114/4 95/115/4 97/115/4 
s 4
f 81/102/11 80/103/11 98/103/11 99/102/11 
s 2
f 46/68/3 44/49/8 100/49/8 101/68/3 
f 36/116/8 55/102/8 81/102/8 102/116/8 
s 1
f 45/103/4 46/117/4 101/117/4 80/103/4 
s 2
f 44/49/8 39/43/8 103/43/8 100/49/8 
s 1
f 39/43/4 38/44/4 104/44/4 103/43/4 
s 2
f 38/118/8 37/119/8 105/119/8 104/118/8 
s 1
f 37/119/7 25/120/7 106/120/7 105/119/7 
s 2
f 24/121/8 36/116/8 102/116/8 107/121/8 
f 25/120/2 11/122/2 108/122/2 106/120/2 
s 1
f 10/123/1 24/121/1 107/121/1 109/123/1 
f 11/9/4 5/5/4 110/5/4 108/9/4 
s 2
f 4/4/3 10/8/3 109/8/3 111/4/3 
f 5/5/2 1/1/2 112/1/2 110/5/2 
s 1
f 1/1/1 4/4/1 111/4/1 112/1/1 
f 99/102/2 98/103/2 113/103/2 114/102/2 
s 4
f 101/68/11 100/49/11 115/49/11 116/68/11 
f 102/116/11 81/102/11 99/102/11 117/116/11 
f 80/103/11 101/117/11 116/117/11 98/103/11 
s off
f 100/49/11 103/43/11 118/43/11 115/49/11 
s 4
f 103/43/11 104/44/11 119/44/11 118/43/11 
f 104/118/11 105/119/11 120/119/11 119/118/11 
f 105/119/11 106/120/11 121/120/11 120/119/11 
f 107/121/11 102/116/11 117/116/11 122/121/11 
f 106/120/11 108/122/11 123/122/11 121/120/11 
f 109/123/11 107/121/11 122/121/11 124/123/11 
f 108/9/11 110/5/11 125/5/11 123/9/11 
f 111/4/11 109/8/11 124/8/11 126/4/11 
f 110/5/11 112/1/11 127/1/11 125/5/11 
f 112/1/11 111/4/11 126/4/11 127/1/11 
s off
f 128/124/11 129/124/11 130/124/11 131/124/11 
f 130/124/11 132/124/11 133/124/11 134/124/11 
f 131/124/11 130/124/11 134/124/11 135/124/11 
f 134/124/11 136/124/11 137/124/11 135/124/11 
f 137/124/11 138/124/11 135/124/11 
f 135/124/11 139/124/11 140/124/11 131/124/11 
f 131/124/11 140/124/11 114/124/11 113/124/11 
s 1
f 116/68/2 115/49/2 128/49/2 131/68/2 
f 117/116/2 99/102/2 114/102/2 140/116/2 
s off
f 98/103/1 116/117/1 131/117/1 113/103/1 
s 1
f 115/49/2 118/43/2 129/43/2 128/49/2 
s off
f 118/43/1 119/44/1 130/44/1 129/43/1 
f 119/118/2 120/119/2 132/119/2 130/118/2 
f 120/119/1 121/120/1 133/120/1 132/119/1 
s 1
f 122/121/2 117/116/2 140/116/2 139/121/2 
s off
f 121/120/3 123/122/3 134/122/3 133/120/3 
f 124/123/4 122/121/4 139/121/4 135/123/4 
f 123/9/1 125/5/1 136/5/1 134/9/1 
f 126/4/2 124/8/2 135/8/2 138/4/2 
f 125/5/8 127/1/8 137/1/8 136/5/8 
f 127/1/7 126/4/7 138/4/7 137/1/7 
# 130 polygons - 8 triangles

