# 3ds Max Wavefront OBJ Exporter v0.97b - (c)2007 guruware
# File Created: 15.03.2017 10:43:07

mtllib SPW_Urban_Bldg_16.mtl

#
# object SPW_Urban_Bldg_16
#

v  344.4882 501.9685 206.6929
v  344.4882 137.7952 206.6929
v  344.4882 137.7953 -310.0394
v  344.4882 501.9686 -310.0394
v  310.0394 306.5944 206.6929
v  310.0394 210.1377 206.6929
v  310.0394 365.1575 206.6929
v  310.0394 461.6141 206.6929
v  310.0394 501.9685 206.6929
v  344.4882 -0.0000 206.6929
v  344.4882 0.0000 -310.0394
v  -68.8976 137.7952 206.6929
v  103.3465 210.1379 206.6929
v  -68.8976 501.9685 206.6930
v  103.3465 306.5946 206.6929
v  103.3465 365.1577 206.6929
v  103.3465 461.6143 206.6929
v  310.0394 461.6141 205.3032
v  310.0394 365.1575 205.3032
v  310.0394 306.5944 205.3032
v  310.0394 210.1377 205.3032
v  -68.8976 -0.0000 206.6929
v  68.8976 0.0000 -206.6929
v  -68.8976 -0.0000 310.0394
v  -344.4882 -0.0000 310.0394
v  -344.4882 0.0000 -206.6929
v  68.8976 0.0000 -310.0394
v  -68.8976 501.9684 310.0395
v  -68.8976 137.7952 310.0394
v  103.3465 210.1379 205.3033
v  103.3465 306.5946 205.3032
v  103.3465 365.1577 205.3033
v  103.3465 461.6143 205.3033
v  -310.0393 55.1181 310.0394
v  -310.0393 137.7952 310.0394
v  -344.4882 137.7952 310.0394
v  -103.3464 55.1181 310.0394
v  -103.3464 137.7952 310.0394
v  -344.4882 137.7953 -206.6929
v  68.8976 137.7953 -206.6929
v  68.8976 137.7953 -310.0394
v  68.8976 501.9686 -310.0393
v  68.8976 501.9685 -206.6929
v  -103.3464 501.9684 310.0395
v  -103.3464 461.6141 310.0394
v  -103.3464 365.1575 310.0394
v  -103.3464 306.5945 310.0394
v  -103.3464 210.1378 310.0394
v  -344.4882 501.9684 310.0395
v  -310.0393 151.5748 310.0394
v  -103.3464 151.5748 310.0394
v  -310.0393 210.1378 310.0394
v  -310.0393 306.5945 310.0395
v  -310.0393 365.1575 310.0395
v  -310.0393 461.6141 310.0395
v  -103.3464 151.5748 308.6380
v  -103.3464 55.1181 308.6380
v  -310.0393 55.1181 308.6380
v  -310.0393 151.5748 308.6381
v  -344.4882 501.9685 -206.6928
v  -310.0394 365.1576 -206.6928
v  -103.3465 365.1576 -206.6929
v  -103.3465 306.5946 -206.6929
v  -310.0394 306.5946 -206.6928
v  -310.0394 210.1379 -206.6928
v  -103.3465 210.1379 -206.6929
v  -310.0394 461.6142 -206.6928
v  -103.3465 461.6142 -206.6928
v  -103.3465 501.9685 -206.6928
v  -103.3464 461.6141 308.6381
v  -103.3464 365.1575 308.6381
v  -103.3464 306.5945 308.6381
v  -103.3464 210.1378 308.6380
v  -310.0393 210.1378 308.6381
v  -310.0393 306.5945 308.6381
v  -310.0393 365.1575 308.6381
v  -310.0393 461.6141 308.6381
v  -103.3465 461.6142 -205.2913
v  -310.0394 461.6142 -205.2913
v  -310.0394 365.1576 -205.2913
v  -103.3465 365.1576 -205.2914
v  -103.3465 306.5946 -205.2914
v  -310.0394 306.5946 -205.2913
v  -310.0394 210.1379 -205.2913
v  -103.3465 210.1379 -205.2914
v  -103.3465 521.6536 -206.6928
v  68.8976 521.6536 -206.6929
v  344.4882 182.5787 206.6929
v  344.4882 182.5787 310.0393
v  344.4882 161.9094 310.0393
v  344.4882 161.9094 206.6929
v  -68.8976 161.9094 206.6929
v  -68.8976 182.5787 206.6929
v  -68.8976 182.5787 310.0394
v  -68.8976 161.9094 310.0394
v  -344.4882 182.5788 -206.6928
v  -344.4882 182.5788 -310.0393
v  -344.4882 161.9095 -310.0393
v  -344.4882 161.9095 -206.6928
v  68.8976 161.9095 -206.6929
v  68.8976 182.5788 -206.6929
v  68.8976 182.5788 -310.0394
v  68.8976 161.9095 -310.0394
v  -68.8976 383.8581 267.2994
v  -68.8976 447.8345 274.1891
v  -68.8976 447.8345 267.2994
v  62.0080 447.8345 267.2993
v  62.0080 383.8581 267.2993
v  -68.8976 378.9368 274.1891
v  68.8977 447.8345 274.1891
v  68.8977 447.8345 136.3938
v  62.0079 447.8345 136.3938
v  62.0079 383.8581 136.3938
v  -68.8976 383.8581 136.3938
v  -68.8976 378.9368 136.3938
v  68.8977 378.9368 274.1891
v  68.8977 378.9368 136.3938
v  -68.8976 228.8384 267.2993
v  -68.8976 292.8148 274.1891
v  -68.8976 292.8148 267.2994
v  62.0080 292.8148 267.2993
v  62.0080 228.8384 267.2993
v  -68.8976 223.9172 274.1891
v  68.8977 292.8148 274.1891
v  68.8977 292.8148 136.3938
v  62.0079 292.8148 136.3938
v  62.0079 228.8384 136.3938
v  -68.8976 228.8384 136.3938
v  -68.8976 223.9172 136.3938
v  68.8977 223.9172 274.1890
v  68.8977 223.9172 136.3938
v  68.8976 383.8582 -267.2993
v  68.8976 383.8582 -136.3937
v  68.8976 378.9369 -136.3937
v  68.8976 378.9369 -274.1890
v  68.8976 447.8345 -267.2993
v  68.8976 447.8345 -274.1890
v  -68.8977 447.8345 -274.1890
v  -68.8977 378.9369 -274.1890
v  -68.8977 447.8345 -136.3937
v  -62.0079 447.8345 -136.3937
v  -62.0079 447.8345 -267.2993
v  -62.0079 383.8582 -267.2992
v  -62.0079 383.8582 -136.3937
v  -68.8977 378.9369 -136.3937
v  68.8976 228.8384 -267.2993
v  68.8976 228.8384 -136.3938
v  68.8976 223.9172 -136.3938
v  68.8976 223.9172 -274.1890
v  68.8976 292.8148 -267.2993
v  68.8976 292.8148 -274.1890
v  -68.8977 292.8148 -274.1890
v  -68.8977 223.9172 -274.1890
v  -68.8977 292.8148 -136.3937
v  -62.0079 292.8148 -136.3937
v  -62.0079 292.8148 -267.2992
v  -62.0079 228.8384 -267.2993
v  -62.0079 228.8384 -136.3937
v  -68.8977 223.9172 -136.3937
v  51.6732 144.6851 -209.5112
v  51.6733 144.6850 209.5112
v  51.6733 -0.0000 209.5112
v  51.6732 0.0000 -209.5112
v  -51.6733 144.6851 -209.5112
v  -51.6733 0.0000 -209.5112
v  -51.6732 144.6850 209.5112
v  -51.6732 -0.0000 209.5112
v  -98.5795 521.6536 -191.0267
v  85.3782 521.6536 -191.0267
v  -344.4882 521.6536 -206.6928
v  -344.4882 521.6535 310.0395
v  -103.3464 521.6535 310.0395
v  -68.8976 521.6535 310.0395
v  68.8976 521.6536 -310.0393
v  -68.8976 521.6535 206.6930
v  310.0393 501.9686 -310.0394
v  310.0393 521.6536 -310.0394
v  310.0394 521.6535 206.6929
v  344.4882 521.6536 -310.0394
v  344.4882 521.6535 206.6929
v  -98.5795 511.8111 -191.0267
v  85.3782 511.8111 -191.0268
v  -328.5984 521.6536 -191.0267
v  -328.5983 521.6535 294.3210
v  -98.5794 521.6535 294.3210
v  -85.3781 521.6535 294.3210
v  85.3781 521.6536 -294.3209
v  -85.3782 521.6535 191.0269
v  295.7385 521.6536 -294.3209
v  295.7385 521.6535 191.0268
v  328.5983 521.6536 -294.3209
v  328.5984 521.6535 191.0268
v  295.7385 511.8110 191.0268
v  328.5984 511.8110 191.0268
v  328.5983 511.8111 -294.3209
v  -85.3782 511.8110 191.0269
v  295.7385 511.8111 -294.3209
v  85.3781 511.8111 -294.3209
v  -328.5984 511.8111 -191.0267
v  -328.5983 511.8110 294.3210
v  -98.5794 511.8110 294.3210
v  -85.3781 511.8110 294.3210
# 202 vertices

vn 1.0000 0.0000 -0.0000
vn 0.0000 -0.0000 1.0000
vn -0.0000 -0.0000 1.0000
vn 0.0000 0.0000 1.0000
vn -1.0000 0.0000 -0.0000
vn 0.0000 -1.0000 -0.0000
vn 0.0000 1.0000 0.0000
vn -0.0000 -1.0000 -0.0000
vn -1.0000 -0.0000 0.0000
vn -0.0000 0.0000 -1.0000
vn -1.0000 0.0000 0.0000
vn 0.0000 0.0000 -1.0000
vn -0.0000 1.0000 -0.0000
vn 0.0000 -1.0000 0.0000
vn -0.0000 -0.0000 -1.0000
vn -0.0000 1.0000 0.0000
vn -0.0000 -0.7071 -0.7071
vn -0.0000 -0.0001 -1.0000
# 18 vertex normals

vt 0.2611 0.8885 0.0000
vt 0.2611 0.8750 0.0000
vt 0.3111 0.8750 0.0000
vt 0.3111 0.8885 0.0000
vt 0.2658 0.9146 0.0000
vt 0.2714 0.9202 0.0000
vt 0.2783 0.9237 0.0000
vt 0.2623 0.9077 0.0000
vt 0.2611 0.9000 0.0000
vt 0.2617 0.8959 0.0000
vt 0.2804 0.9241 0.0000
vt 0.0813 0.8843 0.0000
vt 0.1313 0.8843 0.0000
vt 0.1313 0.9343 0.0000
vt 0.0813 0.9343 0.0000
vt 0.2907 0.9245 0.0000
vt 0.2951 0.9233 0.0000
vt 0.2992 0.9212 0.0000
vt 0.3029 0.9184 0.0000
vt 0.2894 0.9246 0.0000
vt 0.3060 0.9150 0.0000
vt 0.3085 0.9111 0.0000
vt 0.3101 0.9068 0.0000
vt 0.3110 0.9023 0.0000
vt 0.3110 0.8976 0.0000
vt 0.3101 0.8931 0.0000
vt 0.3093 0.8909 0.0000
vt 0.3111 0.9250 0.0000
vt 0.2611 0.9250 0.0000
vt 0.2861 0.9250 0.0000
vt 0.3038 0.9176 0.0000
vt 0.3111 0.9000 0.0000
vt 0.3038 0.8823 0.0000
vt 0.2861 0.8750 0.0000
vt 0.2684 0.8823 0.0000
vt 0.2684 0.9176 0.0000
vt 0.3111 0.9114 0.0000
vt 0.2611 0.9114 0.0000
vt 0.9891 0.9867 0.0000
vt 0.9891 0.7945 0.0000
vt 0.5772 0.7945 0.0000
vt 0.5772 0.9867 0.0000
vt 0.1239 0.8916 0.0000
vt 0.1063 0.8843 0.0000
vt 0.0886 0.8916 0.0000
vt 0.0813 0.9093 0.0000
vt 0.1313 0.9093 0.0000
vt 0.0886 0.9269 0.0000
vt 0.1239 0.9269 0.0000
vt 0.1063 0.9343 0.0000
vt 0.1463 0.9033 0.0000
vt 0.0832 0.9066 0.0000
vt 0.1313 0.9183 0.0000
vt 0.2641 0.8886 0.0000
vt 0.2623 0.8922 0.0000
vt 0.2733 0.9211 0.0000
vt 0.2891 0.9247 0.0000
vt 0.2902 0.9246 0.0000
vt 0.2942 0.9236 0.0000
vt 0.2980 0.9219 0.0000
vt 0.3014 0.9197 0.0000
vt 0.3045 0.9169 0.0000
vt 0.3070 0.9136 0.0000
vt 0.3090 0.9100 0.0000
vt 0.3103 0.9061 0.0000
vt 0.3110 0.9020 0.0000
vt 0.3110 0.8979 0.0000
vt 0.3103 0.8938 0.0000
vt 0.3090 0.8899 0.0000
vt 0.3070 0.8863 0.0000
vt 0.3045 0.8830 0.0000
vt 0.3029 0.8816 0.0000
vt 0.3098 0.9077 0.0000
vt 0.3008 0.8797 0.0000
vt 0.2714 0.8797 0.0000
vt 0.2612 0.9023 0.0000
vt 0.2620 0.9068 0.0000
vt 0.2637 0.9111 0.0000
vt 0.2661 0.9150 0.0000
vt 0.2692 0.9184 0.0000
vt 0.2729 0.9212 0.0000
vt 0.2770 0.9233 0.0000
vt 0.2815 0.9245 0.0000
vt 0.2612 0.8976 0.0000
vt 0.2827 0.9246 0.0000
vt 0.2620 0.8931 0.0000
vt 0.2629 0.8909 0.0000
vt 0.2989 0.9211 0.0000
vt 0.3008 0.9202 0.0000
vt 0.3063 0.9146 0.0000
vt 0.3098 0.8922 0.0000
vt 0.3080 0.8886 0.0000
vt 0.1005 0.9211 0.0000
vt 0.1096 0.8886 0.0000
vt 0.8160 0.2518 0.0000
vt 0.8660 0.2518 0.0000
vt 0.8660 0.3018 0.0000
vt 0.8160 0.3018 0.0000
vt 0.1310 0.8533 0.0000
vt 0.1094 0.8908 0.0000
vt 0.1310 0.8783 0.0000
vt 0.0844 0.8408 0.0000
vt 0.1344 0.8408 0.0000
vt 0.1344 0.8908 0.0000
vt 0.0844 0.8908 0.0000
vt 0.0877 0.8783 0.0000
vt 0.1094 0.8408 0.0000
vt 0.0877 0.8533 0.0000
vt 0.7150 0.7170 0.0000
vt 0.7150 0.3527 0.0000
vt 0.9871 0.7170 0.0000
vt 0.9871 0.3527 0.0000
vt 0.0645 0.8909 0.0000
vt 0.0843 0.9246 0.0000
vt 0.0626 0.8885 0.0000
vt 0.1126 0.8885 0.0000
vt 0.0906 0.9247 0.0000
vt 0.1045 0.8816 0.0000
vt 0.0657 0.8886 0.0000
vt 0.0748 0.9211 0.0000
vt 0.1126 0.9114 0.0000
vt 0.0626 0.9114 0.0000
vt 0.0708 0.8816 0.0000
vt 0.0846 0.9247 0.0000
vt 0.0910 0.9246 0.0000
vt 0.1108 0.8909 0.0000
vt 0.0933 0.9241 0.0000
vt 0.1120 0.8959 0.0000
vt 0.0633 0.8959 0.0000
vt 0.0820 0.9241 0.0000
vt 0.8061 0.2666 0.0000
vt 0.2125 0.9019 0.0000
vt 0.2889 0.8847 0.0000
vt 0.2258 0.8880 0.0000
vt 0.2889 0.8975 0.0000
vt 0.2046 0.8870 0.0000
# 136 texture coords

g SPW_Urban_Bldg_16
usemtl SPW_Urban_Bldg_16
s 1
f 1/1/1 2/2/1 3/3/1 4/4/1 
s 2
f 5/5/2 6/6/2 2/7/2 7/8/2 
f 8/9/3 7/8/2 2/7/2 9/10/2 
f 9/10/2 2/7/2 1/11/2 
s 1
f 10/12/1 11/13/1 3/14/1 2/15/1 
s 2
f 12/16/2 2/17/2 6/18/2 13/19/2 
f 14/20/2 12/16/2 13/19/2 15/21/2 
f 15/21/2 5/22/2 7/23/2 16/24/2 
f 14/20/2 15/21/2 16/24/2 17/25/4 
f 14/20/2 17/25/4 8/26/3 9/27/2 
s off
f 7/2/5 8/3/5 18/28/5 19/29/5 
f 6/2/5 5/3/5 20/28/5 21/29/5 
s 2
f 22/12/2 10/13/2 2/14/2 12/15/2 
s off
f 11/30/6 10/31/6 22/32/6 23/9/6 
f 22/32/6 24/33/6 25/34/6 23/9/6 
f 25/34/6 26/35/6 23/9/6 
f 11/30/6 23/9/6 27/36/6 
s 1
f 28/37/1 29/28/1 12/29/1 14/38/1 
s off
f 13/2/7 6/3/7 21/28/7 30/29/7 
f 15/2/1 13/3/1 30/28/1 31/29/1 
f 5/2/8 15/3/8 31/28/8 20/29/8 
f 16/2/7 7/3/7 19/28/7 32/29/7 
f 17/2/1 16/3/1 32/28/1 33/29/1 
f 8/2/8 17/3/8 33/28/8 18/29/8 
f 33/39/2 32/40/2 19/41/2 18/42/2 
f 31/39/2 30/40/2 21/41/2 20/42/2 
s 1
f 12/12/1 29/13/1 24/14/1 22/15/1 
s 2
f 34/43/4 35/44/2 36/45/2 25/46/4 
f 37/47/2 34/43/4 25/46/4 24/48/2 
f 38/49/4 37/47/2 24/48/2 29/50/4 
s 1
f 26/12/9 25/13/9 36/14/9 39/15/9 
s 2
f 23/12/10 26/13/10 39/14/10 40/15/10 
s 1
f 40/12/11 41/13/9 27/14/9 23/15/9 
s 2
f 3/51/10 11/52/10 27/53/10 41/52/10 
s 1
f 42/37/11 41/28/9 40/29/11 43/38/11 
s 2
f 44/54/2 45/55/2 46/9/2 47/8/2 
f 44/54/2 47/8/2 48/5/2 29/6/4 
f 44/54/2 29/6/4 28/56/2 
f 49/57/2 36/58/2 35/59/2 50/60/2 
f 51/61/4 38/62/4 29/63/4 48/64/2 
f 50/60/2 51/61/4 48/64/2 52/65/2 
f 49/57/2 50/60/2 52/65/2 53/66/2 
f 53/66/2 47/67/2 46/68/2 54/69/2 
f 49/57/2 53/66/2 54/69/2 55/70/2 
f 49/57/2 55/70/2 45/71/2 44/72/2 
s off
f 56/30/5 57/73/5 37/74/5 38/75/5 
f 56/30/5 38/75/5 51/8/5 
f 34/12/7 37/13/7 57/14/7 58/15/7 
f 50/30/1 35/73/1 34/74/1 58/75/1 
f 50/30/1 58/75/1 59/8/1 
s 1
f 60/1/9 39/2/9 36/3/9 49/4/9 
s 2
f 61/76/12 62/77/10 63/78/10 64/79/10 
f 65/80/10 66/81/10 40/82/10 39/83/10 
f 64/79/10 65/80/10 39/83/10 61/76/12 
f 67/84/10 61/76/12 39/83/10 60/85/10 
f 68/86/10 67/84/10 60/85/10 69/87/10 
f 43/88/10 40/89/10 66/90/10 63/73/10 
f 43/88/10 63/73/10 62/32/10 68/91/10 
f 43/88/10 68/91/10 69/92/10 
s off
f 46/2/5 45/3/5 70/28/5 71/29/5 
f 48/2/5 47/3/5 72/28/5 73/29/5 
f 51/2/6 50/3/6 59/28/6 56/29/6 
f 52/2/7 48/3/7 73/28/7 74/29/7 
f 53/2/1 52/3/1 74/28/1 75/29/1 
f 47/2/6 53/3/6 75/28/6 72/29/6 
f 54/2/7 46/3/7 71/28/7 76/29/7 
f 55/2/1 54/3/1 76/28/1 77/29/1 
f 45/2/6 55/3/6 77/28/6 70/29/6 
f 59/39/2 58/40/2 57/41/2 56/42/2 
f 67/2/6 68/3/6 78/28/6 79/29/6 
f 61/2/1 67/3/1 79/28/1 80/29/1 
f 62/2/7 61/3/7 80/28/7 81/29/7 
f 64/2/6 63/3/6 82/28/6 83/29/6 
f 65/2/1 64/3/1 83/28/1 84/29/1 
f 66/2/7 65/3/7 84/28/7 85/29/7 
f 63/2/5 66/3/5 85/28/5 82/29/5 
f 68/2/5 62/3/5 81/28/5 78/29/5 
f 77/39/2 76/40/2 71/41/2 70/42/2 
f 75/39/2 74/40/2 73/41/2 72/42/2 
f 78/42/10 81/41/10 80/40/10 79/39/10 
f 82/42/10 85/41/10 84/40/10 83/39/10 
s 2
f 43/93/10 69/94/10 86/94/10 87/93/10 
s off
f 88/95/1 89/96/1 90/97/1 91/98/1 
f 92/95/10 93/96/10 88/97/10 91/98/10 
f 94/95/13 89/96/13 88/97/13 93/98/13 
f 95/95/2 90/96/2 89/97/2 94/98/2 
f 91/95/14 90/96/14 95/97/14 92/98/14 
f 93/95/9 92/96/9 95/97/9 94/98/9 
f 96/95/5 97/96/5 98/97/5 99/98/5 
f 100/95/2 101/96/2 96/97/2 99/98/2 
f 97/95/13 96/96/13 101/97/13 102/98/13 
f 103/95/10 98/96/10 97/97/10 102/98/10 
f 99/95/14 98/96/14 103/97/14 100/98/14 
f 101/95/1 100/96/1 103/97/1 102/98/1 
s 1
f 104/99/11 105/100/5 106/101/5 
s off
f 104/102/10 106/103/10 107/104/10 108/105/10 
s 1
f 109/106/11 105/100/5 104/99/11 
s off
f 110/100/7 111/101/7 112/99/7 107/107/7 
f 110/100/7 107/107/7 106/108/7 105/106/7 
f 113/102/7 114/103/7 104/104/7 108/105/7 
f 107/102/9 112/103/9 113/104/9 108/105/9 
s 1
f 115/108/11 109/106/11 104/99/11 
s off
f 110/102/2 105/103/2 109/104/2 116/105/2 
f 111/102/1 110/103/1 116/104/1 117/105/1 
f 117/99/15 115/107/15 114/108/15 113/106/15 
f 111/101/12 117/99/12 113/106/12 112/100/12 
s 1
f 104/99/11 114/107/9 115/108/11 
s off
f 109/102/6 115/103/6 117/104/6 116/105/6 
s 1
f 118/99/11 119/100/5 120/101/5 
s off
f 118/102/10 120/103/10 121/104/10 122/105/10 
s 1
f 123/106/11 119/100/5 118/99/11 
s off
f 124/100/7 125/101/7 126/99/7 121/107/7 
f 124/100/7 121/107/7 120/108/7 119/106/7 
f 127/102/16 128/103/16 118/104/16 122/105/16 
f 121/102/9 126/103/9 127/104/9 122/105/9 
s 1
f 129/108/11 123/106/11 118/99/11 
s off
f 124/102/2 119/103/2 123/104/2 130/105/2 
f 125/102/1 124/103/1 130/104/1 131/105/1 
f 131/99/15 129/107/15 128/108/15 127/106/15 
f 125/101/10 131/99/10 127/106/10 126/100/10 
s 1
f 118/99/11 128/107/9 129/108/11 
s off
f 123/102/6 129/103/6 131/104/6 130/105/6 
f 132/99/1 133/107/1 134/108/1 135/106/1 
f 136/101/1 132/99/1 135/106/1 137/100/1 
f 138/102/10 137/103/10 135/104/10 139/105/10 
f 138/100/7 140/101/7 141/99/7 142/107/7 
f 138/100/7 142/107/7 136/108/7 137/106/7 
f 132/102/4 136/103/4 142/104/4 143/105/4 
f 144/102/7 133/103/7 132/104/7 143/105/7 
f 145/99/2 134/107/2 133/108/2 144/106/2 
f 140/101/2 145/99/2 144/106/2 141/100/2 
f 135/102/6 134/103/6 145/104/6 139/105/6 
f 140/102/9 138/103/9 139/104/9 145/105/9 
f 142/102/1 141/103/1 144/104/1 143/105/1 
f 146/99/1 147/107/1 148/108/1 149/106/1 
f 150/101/1 146/99/1 149/106/1 151/100/1 
f 152/102/10 151/103/10 149/104/10 153/105/10 
f 152/100/7 154/101/7 155/99/7 156/107/7 
f 152/100/7 156/107/7 150/108/7 151/106/7 
f 146/102/2 150/103/2 156/104/2 157/105/2 
f 158/102/16 147/103/16 146/104/16 157/105/16 
f 159/99/2 148/107/2 147/108/2 158/106/2 
f 154/101/2 159/99/2 158/106/2 155/100/2 
f 149/102/6 148/103/6 159/104/6 153/105/6 
f 154/102/9 152/103/9 153/104/9 159/105/9 
f 156/102/1 155/103/1 158/104/1 157/105/1 
f 160/109/1 161/109/1 162/110/1 163/110/1 
f 164/111/10 160/109/10 163/110/10 165/112/10 
f 164/111/7 166/111/7 161/109/7 160/109/7 
f 161/109/2 166/111/2 167/112/2 162/110/2 
f 163/110/6 162/110/6 167/112/6 165/112/6 
f 166/111/9 164/111/9 165/112/9 167/112/9 
f 87/93/7 86/94/7 168/94/7 169/93/7 
s 2
f 69/113/10 60/114/10 170/114/10 86/113/10 
s 1
f 60/115/9 49/116/9 171/116/9 170/115/9 
s 2
f 49/117/2 44/118/2 172/118/2 171/117/2 
f 44/119/2 28/120/2 173/120/2 172/119/2 
s 1
f 42/121/11 43/122/11 87/122/9 174/121/9 
f 28/121/1 14/122/1 175/122/1 173/121/1 
s 2
f 176/123/17 42/124/18 174/124/10 177/123/10 
f 14/125/2 9/126/2 178/126/2 175/125/2 
f 4/127/10 176/128/17 177/128/10 179/127/12 
f 9/129/2 1/130/2 180/130/2 178/129/2 
s 1
f 1/115/1 4/116/1 179/116/1 180/115/1 
f 169/93/2 168/94/2 181/94/2 182/93/2 
s 4
f 86/113/7 170/114/7 183/114/7 168/113/7 
f 170/115/7 171/116/7 184/116/7 183/115/7 
f 171/117/7 172/118/7 185/118/7 184/117/7 
f 172/119/7 173/120/7 186/120/7 185/119/7 
f 174/121/7 87/122/7 169/122/7 187/121/7 
f 173/121/7 175/122/7 188/122/7 186/121/7 
f 177/123/7 174/124/7 187/124/7 189/123/7 
f 175/125/7 178/126/7 190/126/7 188/125/7 
f 179/127/7 177/128/7 189/128/7 191/127/7 
s off
f 178/129/7 180/130/7 192/130/7 190/129/7 
s 4
f 180/115/7 179/116/7 191/116/7 192/115/7 
s off
f 193/131/7 194/131/7 195/131/7 196/131/7 
f 197/131/7 198/131/7 182/131/7 195/131/7 
f 181/131/7 199/131/7 200/131/7 182/131/7 
f 201/131/7 202/131/7 196/131/7 200/131/7 
f 182/131/7 200/131/7 196/131/7 195/131/7 
s 1
f 168/113/2 183/114/2 199/114/2 181/113/2 
s off
f 183/115/1 184/116/1 200/116/1 199/115/1 
f 184/117/10 185/118/10 201/118/10 200/117/10 
f 185/119/10 186/120/10 202/120/10 201/119/10 
f 187/121/1 169/122/1 182/122/1 198/121/1 
f 186/121/9 188/122/9 196/122/9 202/121/9 
s 1
f 189/123/2 187/124/2 198/124/2 197/123/2 
f 188/125/10 190/126/10 193/126/10 196/125/10 
f 191/127/2 189/128/2 197/128/2 195/127/2 
f 190/129/10 192/130/12 194/130/12 193/129/10 
s off
f 192/115/9 191/116/9 195/116/9 194/115/9 
s 2
f 4/132/10 3/133/10 41/134/10 42/135/18 
f 4/132/10 42/135/18 176/136/17 
# 178 polygons - 16 triangles

