# 3ds Max Wavefront OBJ Exporter v0.97b - (c)2007 guruware
# File Created: 15.03.2017 11:14:01

mtllib SPW_Urban_Props_Roof_02.mtl

#
# object SPW_Urban_Props_Roof_02
#

v  -10.5324 35.9091 11.4550
v  -10.5324 35.9091 -11.4550
v  -10.5324 14.8281 -11.4550
v  -10.5324 14.8280 11.4550
v  -8.5639 35.9091 -11.4550
v  -8.5639 14.8281 -11.4550
v  -8.5639 35.9091 11.4550
v  -8.5639 14.8280 11.4550
v  78.0503 35.9091 11.4550
v  78.0503 35.9091 -11.4550
v  78.0503 14.8280 -11.4550
v  78.0503 14.8280 11.4550
v  80.0188 35.9091 -11.4550
v  80.0188 14.8280 -11.4550
v  80.0188 35.9091 11.4550
v  80.0188 14.8280 11.4550
v  48.5227 35.9091 11.4550
v  48.5227 35.9091 -11.4550
v  48.5227 14.8280 -11.4550
v  48.5227 14.8280 11.4550
v  50.4912 35.9091 -11.4550
v  50.4912 14.8280 -11.4550
v  50.4912 35.9091 11.4550
v  50.4912 14.8280 11.4550
v  18.9952 35.9091 11.4550
v  18.9952 35.9091 -11.4550
v  18.9952 14.8280 -11.4550
v  18.9952 14.8280 11.4550
v  20.9637 35.9091 -11.4550
v  20.9637 14.8280 -11.4550
v  20.9637 35.9091 11.4550
v  20.9637 14.8280 11.4550
v  100.4759 5.9005 13.7795
v  100.4759 5.9005 -13.7795
v  100.4759 -0.0050 -13.7795
v  100.4759 -0.0050 13.7795
v  125.6728 5.9005 -13.7795
v  125.6728 -0.0050 -13.7795
v  125.6728 5.9005 13.7795
v  125.6728 -0.0050 13.7795
v  114.3294 26.7797 -10.8268
v  114.3294 26.7797 10.8268
v  119.7596 19.3058 10.8268
v  119.7595 19.3058 -10.8268
v  122.6143 10.5197 -10.8268
v  103.1716 5.9005 -10.8268
v  122.6143 5.9005 -10.8268
v  103.1716 7.4402 -10.8268
v  102.2200 10.3689 -10.8268
v  100.4100 12.8602 -10.8268
v  97.9187 14.6703 -10.8268
v  94.9900 15.6219 -10.8268
v  -16.7859 35.0646 -10.8268
v  -16.7859 15.6219 -10.8268
v  98.0695 35.0645 -10.8268
v  106.8556 32.2098 -10.8268
v  106.8556 32.2098 10.8268
v  122.6143 5.9005 10.8268
v  98.0695 35.0645 10.8268
v  -16.7859 35.0646 10.8268
v  94.9900 15.6219 10.8268
v  -16.7859 15.6219 10.8268
v  97.9187 14.6703 10.8268
v  103.1716 7.4402 10.8268
v  103.1716 5.9005 10.8268
v  102.2200 10.3689 10.8268
v  100.4100 12.8602 10.8268
v  122.6143 10.5197 10.8268
v  -91.6501 5.9005 22.6378
v  -91.6501 5.9005 -22.6378
v  -91.6501 -0.0050 -22.6378
v  -91.6501 -0.0050 22.6378
v  -7.0044 5.9005 -22.6378
v  -7.0044 -0.0050 -22.6378
v  -7.0044 5.9005 22.6378
v  -7.0044 -0.0050 22.6378
v  -88.6973 45.2706 19.6850
v  -88.6973 45.2706 -19.6850
v  -88.6973 5.9005 -19.6850
v  -88.6973 5.9005 19.6850
v  -9.9572 45.2706 19.6850
v  -82.6763 39.4115 19.6850
v  -15.9782 39.4115 19.6850
v  -9.9572 45.2706 -19.6850
v  -9.9572 5.9005 19.6850
v  -9.9572 5.9005 -19.6850
v  -15.9782 11.7596 19.6850
v  -82.6763 11.7596 19.6850
v  -82.6763 39.4115 -19.6850
v  -15.9782 39.4115 -19.6850
v  -15.9782 11.7596 -19.6850
v  -82.6763 11.7596 -19.6850
# 92 vertices

vn -1.0000 0.0000 -0.0000
vn 0.0000 0.0000 -1.0000
vn 1.0000 0.0000 -0.0000
vn 0.0000 -0.0000 1.0000
vn 0.0000 -1.0000 -0.0000
vn 0.0000 1.0000 0.0000
vn 0.8090 0.5878 -0.0000
vn -0.0000 0.0000 -1.0000
vn -0.0000 -0.0000 -1.0000
vn 0.5878 0.8090 0.0000
vn 0.0000 0.0000 1.0000
vn -0.0000 -0.0000 1.0000
vn 0.9511 0.3090 -0.0000
vn 0.3090 0.9511 0.0000
vn -0.8090 -0.5878 0.0000
vn -0.5878 -0.8090 0.0000
vn -0.9511 -0.3090 -0.0000
vn -0.3090 -0.9511 -0.0000
vn -0.0000 -1.0000 -0.0000
# 19 vertex normals

vt 0.0000 0.0000 0.0000
vt 0.7157 0.0593 0.0000
vt 0.7126 0.0706 0.0000
vt 0.7126 0.0531 0.0000
vt 0.7157 0.0419 0.0000
vt 0.7132 0.0710 0.0000
vt 0.7132 0.0535 0.0000
vt 0.7163 0.0597 0.0000
vt 0.7163 0.0423 0.0000
vt 0.7060 0.0534 0.0000
vt 0.7029 0.0646 0.0000
vt 0.7029 0.0471 0.0000
vt 0.7060 0.0359 0.0000
vt 0.7035 0.0650 0.0000
vt 0.7035 0.0475 0.0000
vt 0.7066 0.0538 0.0000
vt 0.7066 0.0363 0.0000
vt 0.6963 0.0474 0.0000
vt 0.6932 0.0586 0.0000
vt 0.6932 0.0411 0.0000
vt 0.6963 0.0299 0.0000
vt 0.6939 0.0590 0.0000
vt 0.6939 0.0415 0.0000
vt 0.6970 0.0478 0.0000
vt 0.6970 0.0303 0.0000
vt 0.7233 0.0379 0.0000
vt 0.7196 0.0514 0.0000
vt 0.7196 0.0465 0.0000
vt 0.7233 0.0330 0.0000
vt 0.7278 0.0565 0.0000
vt 0.7278 0.0516 0.0000
vt 0.7316 0.0430 0.0000
vt 0.7316 0.0381 0.0000
vt 0.9706 0.0750 0.0000
vt 0.9735 0.0644 0.0000
vt 0.9753 0.0593 0.0000
vt 0.9724 0.0699 0.0000
vt 0.9733 0.0632 0.0000
vt 0.9670 0.0554 0.0000
vt 0.9733 0.0594 0.0000
vt 0.9670 0.0567 0.0000
vt 0.9666 0.0589 0.0000
vt 0.9660 0.0606 0.0000
vt 0.9652 0.0616 0.0000
vt 0.9643 0.0618 0.0000
vt 0.9277 0.0553 0.0000
vt 0.9277 0.0392 0.0000
vt 0.9653 0.0785 0.0000
vt 0.9682 0.0780 0.0000
vt 0.9711 0.0673 0.0000
vt 0.9763 0.0487 0.0000
vt 0.9682 0.0679 0.0000
vt 0.9306 0.0446 0.0000
vt 0.9672 0.0512 0.0000
vt 0.9306 0.0285 0.0000
vt 0.9682 0.0510 0.0000
vt 0.9699 0.0461 0.0000
vt 0.9699 0.0448 0.0000
vt 0.9696 0.0483 0.0000
vt 0.9690 0.0500 0.0000
vt 0.9763 0.0526 0.0000
vt 0.6915 0.0345 0.0000
vt 0.7415 0.0345 0.0000
vt 0.7415 0.0845 0.0000
vt 0.6915 0.0845 0.0000
vt 0.9179 0.0321 0.0000
vt 0.9679 0.0321 0.0000
vt 0.9679 0.0821 0.0000
vt 0.9179 0.0821 0.0000
vt 0.7839 0.5348 0.0000
vt 0.9771 0.5348 0.0000
vt 0.9771 0.4547 0.0000
vt 0.7839 0.4547 0.0000
# 73 texture coords

g SPW_Urban_Props_Roof_02
usemtl SPW_Urban_Props
s off
f 1/1/1 2/1/1 3/1/1 4/1/1 
f 2/1/2 5/1/2 6/1/2 3/1/2 
f 5/1/3 7/1/3 8/1/3 6/1/3 
f 7/1/4 1/1/4 4/1/4 8/1/4 
f 4/1/5 3/1/5 6/1/5 8/1/5 
f 7/1/6 5/1/6 2/1/6 1/1/6 
f 9/2/1 10/3/1 11/4/1 12/5/1 
f 10/3/2 13/6/2 14/7/2 11/4/2 
f 13/6/3 15/8/3 16/9/3 14/7/3 
f 15/8/4 9/2/4 12/5/4 16/9/4 
f 12/5/5 11/4/5 14/7/5 16/9/5 
f 15/8/6 13/6/6 10/3/6 9/2/6 
f 17/10/1 18/11/1 19/12/1 20/13/1 
f 18/11/2 21/14/2 22/15/2 19/12/2 
f 21/14/3 23/16/3 24/17/3 22/15/3 
f 23/16/4 17/10/4 20/13/4 24/17/4 
f 20/13/5 19/12/5 22/15/5 24/17/5 
f 23/16/6 21/14/6 18/11/6 17/10/6 
f 25/18/1 26/19/1 27/20/1 28/21/1 
f 26/19/2 29/22/2 30/23/2 27/20/2 
f 29/22/3 31/24/3 32/25/3 30/23/3 
f 31/24/4 25/18/4 28/21/4 32/25/4 
f 28/21/5 27/20/5 30/23/5 32/25/5 
f 31/24/6 29/22/6 26/19/6 25/18/6 
f 33/26/1 34/27/1 35/28/1 36/29/1 
f 34/27/2 37/30/2 38/31/2 35/28/2 
f 37/30/3 39/32/3 40/33/3 38/31/3 
f 39/32/4 33/26/4 36/29/4 40/33/4 
f 36/29/5 35/28/5 38/31/5 40/33/5 
f 39/32/6 37/30/6 34/27/6 33/26/6 
f 41/34/7 42/35/7 43/36/7 44/37/7 
f 41/34/8 44/37/8 45/38/8 46/39/8 
f 45/38/8 47/40/8 46/39/8 
f 41/34/8 46/39/8 48/41/8 49/42/8 
f 41/34/9 49/42/9 50/43/9 51/44/9 
f 41/34/9 51/44/9 52/45/9 53/46/9 
f 52/45/8 54/47/8 53/46/8 
f 41/34/8 53/46/8 55/48/8 56/49/8 
f 56/49/10 57/50/10 42/35/10 41/34/10 
f 43/36/4 42/35/4 57/50/4 58/51/4 
f 57/50/4 59/52/4 60/53/4 61/54/4 
f 60/53/4 62/55/4 61/54/4 
f 57/50/4 61/54/4 63/56/4 58/51/4 
f 64/57/11 65/58/11 58/51/11 66/59/11 
f 67/60/11 66/59/11 58/51/11 63/56/11 
f 43/36/12 58/51/12 68/61/12 
f 44/37/13 43/36/13 68/61/13 45/38/13 
f 47/40/3 45/38/3 68/61/3 58/51/3 
f 46/39/5 47/40/5 58/51/5 65/58/5 
f 62/55/1 60/53/1 53/46/1 54/47/1 
f 60/53/6 59/52/6 55/48/6 53/46/6 
f 55/48/14 59/52/14 57/50/14 56/49/14 
f 50/43/15 49/42/15 66/59/15 67/60/15 
f 51/44/16 50/43/16 67/60/16 63/56/16 
f 49/42/17 48/41/17 64/57/17 66/59/17 
f 52/45/18 51/44/18 63/56/18 61/54/18 
f 48/41/1 46/39/1 65/58/1 64/57/1 
f 61/54/19 62/55/19 54/47/19 52/45/19 
f 69/62/1 70/63/1 71/64/1 72/65/1 
f 70/62/2 73/63/2 74/64/2 71/65/2 
f 73/62/3 75/63/3 76/64/3 74/65/3 
f 75/62/4 69/63/4 72/64/4 76/65/4 
f 72/62/5 71/63/5 74/64/5 76/65/5 
f 75/62/6 73/63/6 70/64/6 69/65/6 
f 77/66/1 78/67/1 79/68/1 80/69/1 
s 1
f 81/66/12 77/69/4 82/69/4 83/66/12 
s off
f 84/66/3 81/67/3 85/68/3 86/69/3 
s 1
f 80/66/12 85/69/4 87/69/4 88/66/12 
s off
f 80/66/5 79/67/5 86/68/5 85/69/5 
f 81/66/6 84/67/6 78/68/6 77/69/6 
s 1
f 89/70/8 90/71/2 91/72/8 92/73/2 
f 83/71/12 82/70/4 88/73/12 87/72/4 
f 85/68/4 81/67/12 83/67/12 87/68/4 
f 86/68/8 79/67/2 92/67/2 91/68/8 
f 84/66/2 86/69/8 91/69/8 90/66/2 
f 78/68/8 84/67/2 90/67/2 89/68/8 
f 79/68/2 78/67/8 89/67/8 92/68/2 
f 77/66/4 80/69/12 88/69/12 82/66/4 
# 74 polygons - 4 triangles

