# 3ds Max Wavefront OBJ Exporter v0.97b - (c)2007 guruware
# File Created: 15.03.2017 11:25:21

mtllib SPW_Urban_RailRoad_05.mtl

#
# object SPW_Urban_RailRoad_05
#

v  -393.7008 12.9050 58.0709
v  -393.7008 10.8971 58.0709
v  -393.7008 10.8971 60.0394
v  -393.7008 11.7805 60.0394
v  -393.7008 12.9050 52.1654
v  -393.7008 10.8971 52.1654
v  393.7008 10.8971 52.1653
v  -393.7008 10.8971 50.1969
v  393.7008 10.8971 50.1968
v  393.7008 12.9050 52.1653
v  393.7008 12.9050 58.0708
v  393.7008 10.8971 58.0708
v  393.7008 22.7081 52.1653
v  -393.7008 22.7081 52.1654
v  -393.7008 22.7081 58.0709
v  393.7008 22.7081 58.0708
v  393.7008 19.1102 58.0708
v  393.7008 19.1102 52.1653
v  -393.7008 19.1102 52.1654
v  -393.7008 19.1102 58.0709
v  -393.7008 19.1102 60.0394
v  -393.7008 22.7081 60.0394
v  -393.7008 19.1102 50.1969
v  393.7008 19.1102 50.1968
v  -393.7008 22.7081 50.1969
v  393.7008 22.7081 50.1968
v  393.7008 22.7081 60.0394
v  393.7008 19.1102 60.0394
v  -393.7008 11.7805 50.1969
v  393.7008 11.7805 50.1968
v  393.7008 11.7805 60.0394
v  393.7008 10.8971 60.0394
v  -393.7008 12.9050 -52.1653
v  -393.7008 10.8971 -52.1653
v  -393.7008 10.8971 -50.1968
v  -393.7008 11.7805 -50.1968
v  -393.7008 12.9050 -58.0708
v  -393.7008 10.8971 -58.0708
v  393.7008 10.8971 -58.0709
v  -393.7008 10.8971 -60.0394
v  393.7008 10.8971 -60.0394
v  393.7008 12.9050 -58.0709
v  393.7008 12.9050 -52.1654
v  393.7008 10.8971 -52.1654
v  393.7008 22.7081 -58.0709
v  -393.7008 22.7081 -58.0708
v  -393.7008 22.7081 -52.1653
v  393.7008 22.7081 -52.1654
v  393.7008 19.1103 -52.1654
v  393.7008 19.1103 -58.0709
v  -393.7008 19.1103 -58.0708
v  -393.7008 19.1103 -52.1653
v  -393.7008 19.1103 -50.1968
v  -393.7008 22.7081 -50.1968
v  -393.7008 19.1103 -60.0393
v  393.7008 19.1103 -60.0394
v  -393.7008 22.7081 -60.0393
v  393.7008 22.7081 -60.0394
v  393.7008 22.7081 -50.1969
v  393.7008 19.1103 -50.1969
v  -393.7008 11.7805 -60.0393
v  393.7008 11.7805 -60.0394
v  393.7008 11.7805 -50.1969
v  393.7008 10.8971 -50.1969
v  -52.1654 12.9050 393.7007
v  -52.1654 10.8970 393.7007
v  -50.1969 10.8970 393.7007
v  -50.1969 11.7805 393.7007
v  -58.0709 12.9050 393.7007
v  -58.0709 10.8970 393.7007
v  -58.0709 10.8971 -393.7008
v  -60.0394 10.8970 393.7007
v  -60.0394 10.8971 -393.7008
v  -58.0709 12.9051 -393.7008
v  -52.1653 12.9051 -393.7008
v  -52.1653 10.8971 -393.7008
v  -58.0709 22.7081 -393.7008
v  -58.0709 22.7080 393.7007
v  -52.1654 22.7080 393.7007
v  -52.1653 22.7081 -393.7008
v  -52.1653 19.1103 -393.7008
v  -58.0709 19.1103 -393.7008
v  -58.0709 19.1102 393.7007
v  -52.1654 19.1102 393.7007
v  -50.1969 19.1102 393.7007
v  -50.1969 22.7080 393.7007
v  -60.0394 19.1102 393.7007
v  -60.0394 19.1103 -393.7008
v  -60.0394 22.7080 393.7007
v  -60.0394 22.7081 -393.7008
v  -50.1968 22.7081 -393.7008
v  -50.1968 19.1103 -393.7008
v  -60.0394 11.7805 393.7007
v  -60.0394 11.7806 -393.7008
v  -50.1968 11.7806 -393.7008
v  -50.1968 10.8971 -393.7008
v  58.0709 12.9050 393.7008
v  58.0709 10.8970 393.7008
v  60.0394 10.8970 393.7008
v  60.0394 11.7805 393.7008
v  52.1653 12.9050 393.7008
v  52.1653 10.8970 393.7008
v  52.1654 10.8971 -393.7008
v  50.1968 10.8970 393.7008
v  50.1969 10.8971 -393.7008
v  52.1654 12.9051 -393.7008
v  58.0709 12.9051 -393.7008
v  58.0709 10.8971 -393.7008
v  52.1654 22.7081 -393.7008
v  52.1653 22.7080 393.7008
v  58.0709 22.7080 393.7008
v  58.0709 22.7081 -393.7008
v  58.0709 19.1103 -393.7008
v  52.1654 19.1103 -393.7008
v  52.1653 19.1102 393.7008
v  58.0709 19.1102 393.7008
v  60.0394 19.1102 393.7008
v  60.0394 22.7080 393.7008
v  50.1968 19.1102 393.7008
v  50.1969 19.1103 -393.7008
v  50.1968 22.7080 393.7008
v  50.1969 22.7081 -393.7008
v  60.0394 22.7081 -393.7008
v  60.0394 19.1103 -393.7008
v  50.1968 11.7805 393.7008
v  50.1969 11.7806 -393.7008
v  60.0394 11.7806 -393.7008
v  60.0394 10.8971 -393.7008
v  -393.7008 9.8425 -74.8031
v  -393.7008 0.0000 -118.1102
v  -393.7008 0.0000 -74.8031
v  393.7008 9.8425 74.8031
v  393.7008 -0.0000 118.1102
v  393.7008 -0.0000 74.8031
v  393.7008 0.0000 -74.8032
v  393.7008 0.0000 -118.1103
v  -393.7008 9.8425 74.8032
v  -393.7008 -0.0000 118.1103
v  393.7008 9.8425 -74.8032
v  -393.7008 -0.0000 74.8032
v  -74.8032 9.8425 393.7008
v  -118.1102 -0.0000 393.7008
v  -74.8032 -0.0000 393.7008
v  74.8032 9.8426 -393.7008
v  118.1102 0.0000 -393.7008
v  74.8032 0.0000 -393.7008
v  -74.8031 0.0000 -393.7008
v  -118.1102 0.0000 -393.7008
v  74.8031 9.8425 393.7008
v  118.1102 -0.0000 393.7008
v  -74.8031 9.8426 -393.7008
v  74.8031 -0.0000 393.7008
v  381.8898 10.8991 70.8661
v  366.1418 10.8991 70.8661
v  366.1418 7.6048 70.8661
v  381.8898 7.6048 70.8661
v  366.1418 10.8991 -70.8662
v  366.1418 7.6048 -70.8662
v  381.8898 10.8991 -70.8662
v  381.8898 7.6048 -70.8662
v  -90.5512 10.8991 70.8661
v  -106.2992 10.8991 70.8661
v  -106.2992 7.6048 70.8661
v  -90.5512 7.6048 70.8661
v  -106.2992 10.8991 -70.8661
v  -106.2992 7.6048 -70.8661
v  -90.5512 10.8991 -70.8661
v  -90.5512 7.6048 -70.8661
v  -129.9213 10.8991 70.8661
v  -145.6693 10.8991 70.8661
v  -145.6693 7.6048 70.8661
v  -129.9213 7.6048 70.8661
v  -145.6693 10.8991 -70.8661
v  -145.6693 7.6048 -70.8661
v  -129.9213 10.8991 -70.8661
v  -129.9213 7.6048 -70.8661
v  -169.2914 10.8991 70.8662
v  -185.0394 10.8991 70.8662
v  -185.0394 7.6048 70.8662
v  -169.2914 7.6048 70.8662
v  -185.0394 10.8991 -70.8661
v  -185.0394 7.6048 -70.8661
v  -169.2914 10.8991 -70.8661
v  -169.2914 7.6048 -70.8661
v  -208.6614 10.8991 70.8662
v  -224.4095 10.8991 70.8661
v  -224.4095 7.6048 70.8661
v  -208.6614 7.6048 70.8662
v  -224.4095 10.8991 -70.8661
v  -224.4095 7.6048 -70.8661
v  -208.6614 10.8991 -70.8661
v  -208.6614 7.6048 -70.8661
v  -248.0315 10.8991 70.8662
v  -263.7796 10.8991 70.8662
v  -263.7796 7.6048 70.8662
v  -248.0315 7.6048 70.8662
v  -263.7796 10.8991 -70.8661
v  -263.7796 7.6048 -70.8661
v  -248.0315 10.8991 -70.8661
v  -248.0315 7.6048 -70.8661
v  -287.4016 10.8991 70.8662
v  -303.1497 10.8991 70.8662
v  -303.1497 7.6048 70.8662
v  -287.4016 7.6048 70.8662
v  -303.1497 10.8991 -70.8661
v  -303.1497 7.6048 -70.8661
v  -287.4016 10.8991 -70.8661
v  -287.4016 7.6048 -70.8661
v  -326.7717 10.8991 70.8662
v  -342.5197 10.8991 70.8662
v  -342.5197 7.6048 70.8662
v  -326.7717 7.6048 70.8662
v  -342.5197 10.8991 -70.8661
v  -342.5197 7.6048 -70.8661
v  -326.7717 10.8991 -70.8661
v  -326.7717 7.6048 -70.8661
v  -366.1418 10.8991 70.8662
v  -381.8898 10.8991 70.8662
v  -381.8898 7.6048 70.8662
v  -366.1418 7.6048 70.8662
v  -381.8898 10.8991 -70.8661
v  -381.8898 7.6048 -70.8661
v  -366.1418 10.8991 -70.8661
v  -366.1418 7.6048 -70.8661
v  106.2992 10.8991 70.8661
v  90.5512 10.8991 70.8661
v  90.5512 7.6048 70.8661
v  106.2992 7.6048 70.8661
v  90.5512 10.8991 -70.8661
v  90.5512 7.6048 -70.8661
v  106.2992 10.8991 -70.8661
v  106.2992 7.6048 -70.8661
v  145.6693 10.8991 70.8661
v  129.9213 10.8991 70.8661
v  129.9213 7.6048 70.8661
v  145.6693 7.6048 70.8661
v  129.9213 10.8991 -70.8661
v  129.9213 7.6048 -70.8661
v  145.6693 10.8991 -70.8661
v  145.6693 7.6048 -70.8661
v  185.0394 10.8991 70.8661
v  169.2914 10.8991 70.8661
v  169.2914 7.6048 70.8661
v  185.0394 7.6048 70.8661
v  169.2914 10.8991 -70.8662
v  169.2914 7.6048 -70.8662
v  185.0394 10.8991 -70.8662
v  185.0394 7.6048 -70.8662
v  224.4095 10.8991 70.8661
v  208.6614 10.8991 70.8661
v  208.6614 7.6048 70.8661
v  224.4095 7.6048 70.8661
v  208.6614 10.8991 -70.8662
v  208.6614 7.6048 -70.8662
v  224.4095 10.8991 -70.8661
v  224.4095 7.6048 -70.8661
v  263.7796 10.8991 70.8661
v  248.0315 10.8991 70.8661
v  248.0315 7.6048 70.8661
v  263.7796 7.6048 70.8661
v  248.0315 10.8991 -70.8662
v  248.0315 7.6048 -70.8662
v  263.7796 10.8991 -70.8662
v  263.7796 7.6048 -70.8662
v  303.1497 10.8991 70.8661
v  287.4016 10.8991 70.8661
v  287.4016 7.6048 70.8661
v  303.1497 7.6048 70.8661
v  287.4016 10.8991 -70.8662
v  287.4016 7.6048 -70.8662
v  303.1497 10.8991 -70.8662
v  303.1497 7.6048 -70.8662
v  342.5197 10.8991 70.8661
v  326.7717 10.8991 70.8661
v  326.7717 7.6048 70.8661
v  342.5197 7.6048 70.8661
v  326.7717 10.8991 -70.8662
v  326.7717 7.6048 -70.8662
v  342.5197 10.8991 -70.8662
v  342.5197 7.6048 -70.8662
v  70.8662 10.8992 -342.5197
v  70.8662 10.8992 -326.7717
v  70.8662 7.6049 -326.7717
v  70.8662 7.6049 -342.5197
v  -70.8661 10.8992 -326.7717
v  -70.8661 7.6049 -326.7717
v  -70.8661 10.8992 -342.5197
v  -70.8661 7.6049 -342.5197
v  70.8661 10.8991 -303.1496
v  70.8661 10.8991 -287.4016
v  70.8661 7.6049 -287.4016
v  70.8661 7.6049 -303.1496
v  -70.8661 10.8991 -287.4016
v  -70.8661 7.6049 -287.4016
v  -70.8661 10.8991 -303.1496
v  -70.8661 7.6049 -303.1496
v  70.8662 10.8991 -263.7795
v  70.8662 10.8991 -248.0315
v  70.8662 7.6049 -248.0315
v  70.8662 7.6049 -263.7795
v  -70.8661 10.8991 -248.0315
v  -70.8661 7.6049 -248.0315
v  -70.8661 10.8991 -263.7795
v  -70.8661 7.6049 -263.7795
v  70.8662 10.8991 -224.4095
v  70.8661 10.8991 -208.6614
v  70.8661 7.6048 -208.6614
v  70.8662 7.6049 -224.4095
v  -70.8661 10.8991 -208.6614
v  -70.8661 7.6048 -208.6614
v  -70.8661 10.8991 -224.4095
v  -70.8661 7.6049 -224.4095
v  70.8662 10.8991 -185.0394
v  70.8662 10.8991 -169.2914
v  70.8662 7.6048 -169.2914
v  70.8662 7.6048 -185.0394
v  -70.8661 10.8991 -169.2914
v  -70.8661 7.6048 -169.2914
v  -70.8661 10.8991 -185.0394
v  -70.8661 7.6048 -185.0394
v  70.8661 10.8991 -145.6693
v  70.8661 10.8991 -129.9213
v  70.8661 7.6048 -129.9213
v  70.8661 7.6048 -145.6693
v  -70.8661 10.8991 -129.9213
v  -70.8661 7.6048 -129.9213
v  -70.8661 10.8991 -145.6693
v  -70.8661 7.6048 -145.6693
v  70.8661 10.8991 -106.2992
v  70.8661 10.8991 -90.5512
v  70.8661 7.6048 -90.5512
v  70.8661 7.6048 -106.2992
v  -70.8661 10.8991 -90.5512
v  -70.8661 7.6048 -90.5512
v  -70.8661 10.8991 -106.2992
v  -70.8661 7.6048 -106.2992
v  70.8661 10.8991 366.1418
v  70.8661 10.8991 381.8898
v  70.8661 7.6048 381.8898
v  70.8661 7.6048 366.1418
v  -70.8662 10.8991 381.8898
v  -70.8662 7.6048 381.8898
v  -70.8662 10.8991 366.1418
v  -70.8662 7.6048 366.1418
v  70.8661 10.8991 326.7717
v  70.8661 10.8991 342.5197
v  70.8661 7.6048 342.5197
v  70.8661 7.6048 326.7717
v  -70.8662 10.8991 342.5197
v  -70.8662 7.6048 342.5197
v  -70.8662 10.8991 326.7717
v  -70.8662 7.6048 326.7717
v  70.8661 10.8991 287.4016
v  70.8661 10.8991 303.1496
v  70.8661 7.6048 303.1496
v  70.8661 7.6048 287.4016
v  -70.8661 10.8991 303.1496
v  -70.8661 7.6048 303.1496
v  -70.8661 10.8991 287.4016
v  -70.8661 7.6048 287.4016
v  70.8661 10.8991 248.0315
v  70.8661 10.8991 263.7795
v  70.8661 7.6048 263.7795
v  70.8661 7.6048 248.0315
v  -70.8662 10.8991 263.7795
v  -70.8662 7.6048 263.7795
v  -70.8662 10.8991 248.0315
v  -70.8662 7.6048 248.0315
v  70.8661 10.8991 208.6614
v  70.8661 10.8991 224.4095
v  70.8661 7.6048 224.4095
v  70.8661 7.6048 208.6614
v  -70.8662 10.8991 224.4095
v  -70.8662 7.6048 224.4095
v  -70.8661 10.8991 208.6614
v  -70.8661 7.6048 208.6614
v  70.8661 10.8991 169.2914
v  70.8661 10.8991 185.0394
v  70.8661 7.6048 185.0394
v  70.8661 7.6048 169.2914
v  -70.8662 10.8991 185.0394
v  -70.8662 7.6048 185.0394
v  -70.8662 10.8991 169.2914
v  -70.8662 7.6048 169.2914
v  70.8661 10.8991 129.9213
v  70.8661 10.8991 145.6693
v  70.8661 7.6048 145.6693
v  70.8661 7.6048 129.9213
v  -70.8661 10.8991 145.6693
v  -70.8661 7.6048 145.6693
v  -70.8661 10.8991 129.9213
v  -70.8661 7.6048 129.9213
v  70.8661 10.8991 90.5512
v  70.8661 10.8991 106.2992
v  70.8661 7.6048 106.2992
v  70.8661 7.6048 90.5512
v  -70.8661 10.8991 106.2992
v  -70.8661 7.6048 106.2992
v  -70.8661 10.8991 90.5512
v  -70.8661 7.6048 90.5512
v  70.8661 10.8991 -70.8662
v  70.8661 10.8991 70.8662
v  70.8661 7.6048 70.8662
v  70.8661 7.6048 -70.8662
v  -70.8661 10.8991 70.8662
v  -70.8661 7.6048 70.8662
v  -70.8661 10.8991 -70.8662
v  -70.8661 7.6048 -70.8662
v  70.8662 10.8992 -381.8898
v  70.8662 10.8992 -366.1418
v  70.8662 7.6049 -366.1418
v  70.8662 7.6049 -381.8898
v  -70.8661 10.8992 -366.1418
v  -70.8661 7.6049 -366.1418
v  -70.8661 10.8992 -381.8898
v  -70.8661 7.6049 -381.8898
# 416 vertices

vn -1.0000 0.0000 -0.0000
vn 0.0000 -1.0000 -0.0000
vn 1.0000 0.0000 -0.0000
vn 0.0000 1.0000 0.0000
vn -0.0000 0.0000 -1.0000
vn 0.0000 -0.0000 1.0000
vn -0.0000 0.8683 -0.4960
vn 0.0000 0.8683 0.4960
vn 0.0000 0.0000 -1.0000
vn 1.0000 -0.0000 0.0000
vn -0.4960 0.8683 0.0000
vn 0.4960 0.8683 0.0000
vn -0.0000 -1.0000 -0.0000
vn 0.0000 0.9751 0.2216
vn -0.0000 0.9751 -0.2216
vn -0.0000 1.0000 0.0000
vn 0.2216 0.9751 0.0000
vn -0.2216 0.9751 0.0000
vn -0.0000 -0.0000 1.0000
vn -1.0000 -0.0000 0.0000
# 20 vertex normals

vt 0.4661 0.2677 0.0000
vt 0.5161 0.2677 0.0000
vt 0.5161 0.3177 0.0000
vt 0.4661 0.3177 0.0000
vt 0.4732 0.0285 0.0000
vt 0.5232 0.0285 0.0000
vt 0.5232 0.0785 0.0000
vt 0.4732 0.0785 0.0000
vt 0.4644 0.1596 0.0000
vt 0.5144 0.1596 0.0000
vt 0.5144 0.2096 0.0000
vt 0.4644 0.2096 0.0000
# 12 texture coords

g SPW_Urban_RailRoad_05
usemtl SPW_Urban_Road
s 1
f 1/1/1 2/2/1 3/3/1 4/4/1 
f 1/1/1 5/2/1 6/3/1 2/4/1 
s 2
f 7/1/2 6/2/2 8/3/2 9/4/2 
s 1
f 10/1/3 11/2/3 12/3/3 7/4/3 
s 2
f 12/1/2 2/2/2 6/3/2 7/4/2 
f 13/1/4 14/2/4 15/3/4 16/4/4 
s 1
f 13/1/3 16/2/3 17/3/3 18/4/3 
f 18/1/3 17/2/3 11/3/3 10/4/3 
s 4
f 14/1/3 13/2/3 13/3/3 14/4/3 
s off
f 19/1/5 18/2/5 10/3/5 5/4/5 
s 1
f 15/1/1 14/2/1 19/3/1 20/4/1 
f 20/1/1 19/2/1 5/3/1 1/4/1 
f 15/1/1 20/2/1 21/3/1 22/4/1 
s off
f 17/1/6 20/2/6 1/3/6 11/4/6 
f 18/1/2 19/2/2 23/3/2 24/4/2 
s 4
f 13/1/3 18/2/3 18/3/3 13/4/3 
f 19/1/3 14/2/3 14/3/3 19/4/3 
f 18/1/3 19/2/3 19/3/3 18/4/3 
s off
f 25/1/5 26/2/5 24/3/5 23/4/5 
f 19/1/1 14/2/1 25/3/1 23/4/1 
f 13/1/3 18/2/3 24/3/3 26/4/3 
f 14/1/4 13/2/4 26/3/4 25/4/4 
f 27/1/6 22/2/6 21/3/6 28/4/6 
s 2
f 16/1/4 15/2/4 22/3/4 27/4/4 
s off
f 20/1/2 17/2/2 28/3/2 21/4/2 
s 1
f 17/1/3 16/2/3 27/3/3 28/4/3 
s off
f 29/1/5 30/2/5 9/3/5 8/4/5 
s 1
f 6/1/1 5/2/1 29/3/1 8/4/1 
s off
f 5/1/7 10/2/7 30/3/7 29/4/7 
s 1
f 10/1/3 7/2/3 9/3/3 30/4/3 
s off
f 31/1/6 4/2/6 3/3/6 32/4/6 
f 11/1/8 1/2/8 4/3/8 31/4/8 
s 2
f 2/1/2 12/2/2 32/3/2 3/4/2 
s 1
f 12/1/3 11/2/3 31/3/3 32/4/3 
f 33/1/1 34/2/1 35/3/1 36/4/1 
f 33/1/1 37/2/1 38/3/1 34/4/1 
s 2
f 39/1/2 38/2/2 40/3/2 41/4/2 
s 1
f 42/1/3 43/2/3 44/3/3 39/4/3 
s 2
f 44/1/2 34/2/2 38/3/2 39/4/2 
f 45/1/4 46/2/4 47/3/4 48/4/4 
s 1
f 45/1/3 48/2/3 49/3/3 50/4/3 
f 50/1/3 49/2/3 43/3/3 42/4/3 
s 4
f 46/1/3 45/2/3 45/3/3 46/4/3 
s off
f 51/1/5 50/2/5 42/3/5 37/4/5 
s 1
f 47/1/1 46/2/1 51/3/1 52/4/1 
f 52/1/1 51/2/1 37/3/1 33/4/1 
f 47/1/1 52/2/1 53/3/1 54/4/1 
s off
f 49/1/6 52/2/6 33/3/6 43/4/6 
f 50/1/2 51/2/2 55/3/2 56/4/2 
s 4
f 45/1/3 50/2/3 50/3/3 45/4/3 
f 51/1/3 46/2/3 46/3/3 51/4/3 
f 50/1/3 51/2/3 51/3/3 50/4/3 
s off
f 57/1/5 58/2/5 56/3/5 55/4/5 
f 51/1/1 46/2/1 57/3/1 55/4/1 
f 45/1/3 50/2/3 56/3/3 58/4/3 
f 46/1/4 45/2/4 58/3/4 57/4/4 
f 59/1/6 54/2/6 53/3/6 60/4/6 
s 2
f 48/1/4 47/2/4 54/3/4 59/4/4 
s off
f 52/1/2 49/2/2 60/3/2 53/4/2 
s 1
f 49/1/3 48/2/3 59/3/3 60/4/3 
s off
f 61/1/5 62/2/5 41/3/5 40/4/5 
s 1
f 38/1/1 37/2/1 61/3/1 40/4/1 
s off
f 37/1/7 42/2/7 62/3/7 61/4/7 
s 1
f 42/1/3 39/2/3 41/3/3 62/4/3 
s off
f 63/1/6 36/2/6 35/3/6 64/4/6 
f 43/1/8 33/2/8 36/3/8 63/4/8 
s 2
f 34/1/2 44/2/2 64/3/2 35/4/2 
s 1
f 44/1/3 43/2/3 63/3/3 64/4/3 
s off
f 65/1/6 66/2/6 67/3/6 68/4/6 
s 1
f 65/1/6 69/2/6 70/3/6 66/4/6 
s 2
f 71/1/2 70/2/2 72/3/2 73/4/2 
s 4
f 74/1/9 75/2/9 76/3/9 71/4/9 
s 2
f 76/1/2 66/2/2 70/3/2 71/4/2 
f 77/1/4 78/2/4 79/3/4 80/4/4 
s 4
f 77/1/9 80/2/9 81/3/9 82/4/9 
f 82/1/9 81/2/9 75/3/9 74/4/9 
s 1
f 78/1/6 77/2/3 77/3/3 78/4/6 
s off
f 83/1/1 82/2/1 74/3/1 69/4/1 
s 1
f 79/1/6 78/2/6 83/3/6 84/4/6 
f 84/1/6 83/2/6 69/3/6 65/4/6 
f 79/1/6 84/2/6 85/3/6 86/4/6 
s off
f 81/1/10 84/2/10 65/3/10 75/4/10 
f 82/1/2 83/2/2 87/3/2 88/4/2 
s 1
f 77/1/3 82/2/3 82/3/3 77/4/3 
f 83/1/6 78/2/6 78/3/6 83/4/6 
f 82/1/3 83/2/6 83/3/6 82/4/3 
s off
f 89/1/1 90/2/1 88/3/1 87/4/1 
s 1
f 83/1/6 78/2/6 89/3/6 87/4/6 
s off
f 77/1/9 82/2/9 88/3/9 90/4/9 
f 78/1/4 77/2/4 90/3/4 89/4/4 
f 91/1/10 86/2/10 85/3/10 92/4/10 
s 2
f 80/1/4 79/2/4 86/3/4 91/4/4 
s off
f 84/1/2 81/2/2 92/3/2 85/4/2 
s 4
f 81/1/9 80/2/9 91/3/9 92/4/9 
s off
f 93/1/1 94/2/1 73/3/1 72/4/1 
f 70/1/6 69/2/6 93/3/6 72/4/6 
f 69/1/11 74/2/11 94/3/11 93/4/11 
f 74/1/9 71/2/9 73/3/9 94/4/9 
f 95/1/10 68/2/10 67/3/10 96/4/10 
f 75/1/12 65/2/12 68/3/12 95/4/12 
s 2
f 66/1/2 76/2/2 96/3/2 67/4/2 
s off
f 76/1/9 75/2/9 95/3/9 96/4/9 
s 1
f 97/1/6 98/2/6 99/3/6 100/4/6 
f 97/1/6 101/2/6 102/3/6 98/4/6 
s 2
f 103/1/2 102/2/2 104/3/2 105/4/2 
s 4
f 106/1/9 107/2/9 108/3/9 103/4/9 
s 2
f 108/1/2 98/2/2 102/3/2 103/4/2 
f 109/1/4 110/2/4 111/3/4 112/4/4 
s 4
f 109/1/9 112/2/9 113/3/9 114/4/9 
f 114/1/9 113/2/9 107/3/9 106/4/9 
s 1
f 110/1/6 109/2/3 109/3/3 110/4/6 
s off
f 115/1/1 114/2/1 106/3/1 101/4/1 
s 1
f 111/1/6 110/2/6 115/3/6 116/4/6 
f 116/1/6 115/2/6 101/3/6 97/4/6 
f 111/1/6 116/2/6 117/3/6 118/4/6 
s off
f 113/1/10 116/2/10 97/3/10 107/4/10 
f 114/1/2 115/2/2 119/3/2 120/4/2 
s 1
f 109/1/3 114/2/3 114/3/3 109/4/3 
f 115/1/6 110/2/6 110/3/6 115/4/6 
f 114/1/3 115/2/6 115/3/6 114/4/3 
s off
f 121/1/1 122/2/1 120/3/1 119/4/1 
s 1
f 115/1/6 110/2/6 121/3/6 119/4/6 
s off
f 109/1/9 114/2/9 120/3/9 122/4/9 
f 110/1/4 109/2/4 122/3/4 121/4/4 
f 123/1/10 118/2/10 117/3/10 124/4/10 
s 2
f 112/1/4 111/2/4 118/3/4 123/4/4 
s off
f 116/1/2 113/2/2 124/3/2 117/4/2 
s 4
f 113/1/9 112/2/9 123/3/9 124/4/9 
s off
f 125/1/1 126/2/1 105/3/1 104/4/1 
s 1
f 102/1/6 101/2/6 125/3/6 104/4/6 
s off
f 101/1/11 106/2/11 126/3/11 125/4/11 
f 106/1/9 103/2/9 105/3/9 126/4/9 
f 127/1/10 100/2/10 99/3/10 128/4/10 
f 107/1/12 97/2/12 100/3/12 127/4/12 
s 2
f 98/1/2 108/2/2 128/3/2 99/4/2 
s off
f 108/1/9 107/2/9 127/3/9 128/4/9 
s 1
f 129/5/1 130/6/1 131/7/1 
f 132/5/3 133/6/3 134/7/3 
s 2
f 135/5/2 131/6/2 130/7/2 136/8/13 
s off
f 132/5/14 137/6/14 138/7/14 133/8/14 
f 136/5/15 130/6/15 129/7/15 139/8/15 
f 139/5/16 129/6/16 137/7/16 132/8/16 
s 2
f 133/5/2 138/6/13 140/7/2 134/8/2 
f 134/5/2 140/6/2 131/7/2 135/8/2 
s 1
f 136/5/3 139/6/3 135/7/3 
f 139/5/3 132/6/3 134/7/3 135/8/3 
f 138/5/1 137/6/1 140/7/1 
f 137/5/1 129/6/1 131/7/1 140/8/1 
f 141/5/6 142/6/6 143/7/6 
f 144/5/9 145/6/9 146/7/9 
s 2
f 147/5/2 143/6/2 142/7/2 148/8/2 
s off
f 144/5/17 149/6/17 150/7/17 145/8/17 
f 148/5/18 142/6/18 141/7/18 151/8/18 
f 151/5/4 141/6/4 149/7/4 144/8/4 
s 2
f 145/5/2 150/6/2 152/7/2 146/8/2 
f 146/5/2 152/6/2 143/7/2 147/8/2 
s 1
f 148/5/9 151/6/9 147/7/9 
f 151/5/9 144/6/9 146/7/9 147/8/9 
f 150/5/6 149/6/6 152/7/6 
f 149/5/6 141/6/6 143/7/6 152/8/6 
s off
f 153/9/6 154/10/6 155/11/6 156/12/6 
f 154/9/1 157/10/1 158/11/1 155/12/1 
f 157/9/5 159/10/5 160/11/5 158/12/5 
f 159/9/3 153/10/3 156/11/3 160/12/3 
f 156/9/2 155/10/2 158/11/2 160/12/2 
f 159/9/16 157/10/16 154/11/16 153/12/16 
f 161/9/19 162/10/19 163/11/19 164/12/19 
f 162/9/1 165/10/1 166/11/1 163/12/1 
f 165/9/9 167/10/9 168/11/9 166/12/9 
f 167/9/10 161/10/10 164/11/10 168/12/10 
f 164/9/13 163/10/13 166/11/13 168/12/13 
f 167/9/4 165/10/4 162/11/4 161/12/4 
f 169/9/6 170/10/6 171/11/6 172/12/6 
f 170/9/20 173/10/20 174/11/20 171/12/20 
f 173/9/9 175/10/9 176/11/9 174/12/9 
f 175/9/10 169/10/10 172/11/10 176/12/10 
f 172/9/2 171/10/2 174/11/2 176/12/2 
f 175/9/4 173/10/4 170/11/4 169/12/4 
f 177/9/6 178/10/6 179/11/6 180/12/6 
f 178/9/1 181/10/1 182/11/1 179/12/1 
f 181/9/9 183/10/9 184/11/9 182/12/9 
f 183/9/3 177/10/3 180/11/3 184/12/3 
f 180/9/2 179/10/2 182/11/2 184/12/2 
f 183/9/4 181/10/4 178/11/4 177/12/4 
f 185/9/19 186/10/19 187/11/19 188/12/19 
f 186/9/1 189/10/1 190/11/1 187/12/1 
f 189/9/9 191/10/9 192/11/9 190/12/9 
f 191/9/3 185/10/3 188/11/3 192/12/3 
f 188/9/13 187/10/13 190/11/13 192/12/13 
f 191/9/4 189/10/4 186/11/4 185/12/4 
f 193/9/6 194/10/6 195/11/6 196/12/6 
f 194/9/1 197/10/1 198/11/1 195/12/1 
f 197/9/9 199/10/9 200/11/9 198/12/9 
f 199/9/3 193/10/3 196/11/3 200/12/3 
f 196/9/2 195/10/2 198/11/2 200/12/2 
f 199/9/4 197/10/4 194/11/4 193/12/4 
f 201/9/6 202/10/6 203/11/6 204/12/6 
f 202/9/1 205/10/1 206/11/1 203/12/1 
f 205/9/9 207/10/9 208/11/9 206/12/9 
f 207/9/3 201/10/3 204/11/3 208/12/3 
f 204/9/2 203/10/2 206/11/2 208/12/2 
f 207/9/4 205/10/4 202/11/4 201/12/4 
f 209/9/19 210/10/19 211/11/19 212/12/19 
f 210/9/1 213/10/1 214/11/1 211/12/1 
f 213/9/9 215/10/9 216/11/9 214/12/9 
f 215/9/3 209/10/3 212/11/3 216/12/3 
f 212/9/13 211/10/13 214/11/13 216/12/13 
f 215/9/4 213/10/4 210/11/4 209/12/4 
f 217/9/6 218/10/6 219/11/6 220/12/6 
f 218/9/1 221/10/1 222/11/1 219/12/1 
f 221/9/5 223/10/5 224/11/5 222/12/5 
f 223/9/3 217/10/3 220/11/3 224/12/3 
f 220/9/2 219/10/2 222/11/2 224/12/2 
f 223/9/16 221/10/16 218/11/16 217/12/16 
f 225/9/19 226/10/19 227/11/19 228/12/19 
f 226/9/1 229/10/1 230/11/1 227/12/1 
f 229/9/9 231/10/9 232/11/9 230/12/9 
f 231/9/10 225/10/10 228/11/10 232/12/10 
f 228/9/13 227/10/13 230/11/13 232/12/13 
f 231/9/4 229/10/4 226/11/4 225/12/4 
f 233/9/6 234/10/6 235/11/6 236/12/6 
f 234/9/1 237/10/1 238/11/1 235/12/1 
f 237/9/9 239/10/9 240/11/9 238/12/9 
f 239/9/3 233/10/3 236/11/3 240/12/3 
f 236/9/2 235/10/2 238/11/2 240/12/2 
f 239/9/4 237/10/4 234/11/4 233/12/4 
f 241/9/6 242/10/6 243/11/6 244/12/6 
f 242/9/1 245/10/1 246/11/1 243/12/1 
f 245/9/9 247/10/9 248/11/9 246/12/9 
f 247/9/3 241/10/3 244/11/3 248/12/3 
f 244/9/2 243/10/2 246/11/2 248/12/2 
f 247/9/4 245/10/4 242/11/4 241/12/4 
f 249/9/19 250/10/19 251/11/19 252/12/19 
f 250/9/1 253/10/1 254/11/1 251/12/1 
f 253/9/9 255/10/9 256/11/9 254/12/9 
f 255/9/3 249/10/3 252/11/3 256/12/3 
f 252/9/13 251/10/13 254/11/13 256/12/13 
f 255/9/4 253/10/4 250/11/4 249/12/4 
f 257/9/6 258/10/6 259/11/6 260/12/6 
f 258/9/1 261/10/1 262/11/1 259/12/1 
f 261/9/9 263/10/9 264/11/9 262/12/9 
f 263/9/3 257/10/3 260/11/3 264/12/3 
f 260/9/2 259/10/2 262/11/2 264/12/2 
f 263/9/4 261/10/4 258/11/4 257/12/4 
f 265/9/6 266/10/6 267/11/6 268/12/6 
f 266/9/1 269/10/1 270/11/1 267/12/1 
f 269/9/9 271/10/9 272/11/9 270/12/9 
f 271/9/3 265/10/3 268/11/3 272/12/3 
f 268/9/2 267/10/2 270/11/2 272/12/2 
f 271/9/4 269/10/4 266/11/4 265/12/4 
f 273/9/19 274/10/19 275/11/19 276/12/19 
f 274/9/1 277/10/1 278/11/1 275/12/1 
f 277/9/9 279/10/9 280/11/9 278/12/9 
f 279/9/3 273/10/3 276/11/3 280/12/3 
f 276/9/13 275/10/13 278/11/13 280/12/13 
f 279/9/4 277/10/4 274/11/4 273/12/4 
f 281/9/10 282/10/10 283/11/10 284/12/10 
f 282/9/6 285/10/6 286/11/6 283/12/6 
f 285/9/1 287/10/1 288/11/1 286/12/1 
f 287/9/9 281/10/9 284/11/9 288/12/9 
f 284/9/2 283/10/2 286/11/2 288/12/2 
f 287/9/4 285/10/4 282/11/4 281/12/4 
f 289/9/3 290/10/3 291/11/3 292/12/3 
f 290/9/6 293/10/6 294/11/6 291/12/6 
f 293/9/1 295/10/1 296/11/1 294/12/1 
f 295/9/9 289/10/9 292/11/9 296/12/9 
f 292/9/2 291/10/2 294/11/2 296/12/2 
f 295/9/4 293/10/4 290/11/4 289/12/4 
f 297/9/3 298/10/3 299/11/3 300/12/3 
f 298/9/6 301/10/6 302/11/6 299/12/6 
f 301/9/1 303/10/1 304/11/1 302/12/1 
f 303/9/9 297/10/9 300/11/9 304/12/9 
f 300/9/2 299/10/2 302/11/2 304/12/2 
f 303/9/4 301/10/4 298/11/4 297/12/4 
f 305/9/10 306/10/10 307/11/10 308/12/10 
f 306/9/6 309/10/6 310/11/6 307/12/6 
f 309/9/1 311/10/1 312/11/1 310/12/1 
f 311/9/9 305/10/9 308/11/9 312/12/9 
f 308/9/2 307/10/2 310/11/2 312/12/2 
f 311/9/4 309/10/4 306/11/4 305/12/4 
f 313/9/3 314/10/3 315/11/3 316/12/3 
f 314/9/6 317/10/6 318/11/6 315/12/6 
f 317/9/1 319/10/1 320/11/1 318/12/1 
f 319/9/9 313/10/9 316/11/9 320/12/9 
f 316/9/2 315/10/2 318/11/2 320/12/2 
f 319/9/4 317/10/4 314/11/4 313/12/4 
f 321/9/3 322/10/3 323/11/3 324/12/3 
f 322/9/19 325/10/19 326/11/19 323/12/19 
f 325/9/1 327/10/1 328/11/1 326/12/1 
f 327/9/9 321/10/9 324/11/9 328/12/9 
f 324/9/13 323/10/13 326/11/13 328/12/13 
f 327/9/4 325/10/4 322/11/4 321/12/4 
f 329/9/10 330/10/10 331/11/10 332/12/10 
f 330/9/19 333/10/19 334/11/19 331/12/19 
f 333/9/1 335/10/1 336/11/1 334/12/1 
f 335/9/9 329/10/9 332/11/9 336/12/9 
f 332/9/13 331/10/13 334/11/13 336/12/13 
f 335/9/4 333/10/4 330/11/4 329/12/4 
f 337/9/3 338/10/3 339/11/3 340/12/3 
f 338/9/6 341/10/6 342/11/6 339/12/6 
f 341/9/20 343/10/20 344/11/20 342/12/20 
f 343/9/9 337/10/9 340/11/9 344/12/9 
f 340/9/2 339/10/2 342/11/2 344/12/2 
f 343/9/4 341/10/4 338/11/4 337/12/4 
f 345/9/10 346/10/10 347/11/10 348/12/10 
f 346/9/6 349/10/6 350/11/6 347/12/6 
f 349/9/1 351/10/1 352/11/1 350/12/1 
f 351/9/9 345/10/9 348/11/9 352/12/9 
f 348/9/2 347/10/2 350/11/2 352/12/2 
f 351/9/4 349/10/4 346/11/4 345/12/4 
f 353/9/3 354/10/3 355/11/3 356/12/3 
f 354/9/6 357/10/6 358/11/6 355/12/6 
f 357/9/1 359/10/1 360/11/1 358/12/1 
f 359/9/9 353/10/9 356/11/9 360/12/9 
f 356/9/2 355/10/2 358/11/2 360/12/2 
f 359/9/4 357/10/4 354/11/4 353/12/4 
f 361/9/3 362/10/3 363/11/3 364/12/3 
f 362/9/6 365/10/6 366/11/6 363/12/6 
f 365/9/1 367/10/1 368/11/1 366/12/1 
f 367/9/9 361/10/9 364/11/9 368/12/9 
f 364/9/2 363/10/2 366/11/2 368/12/2 
f 367/9/4 365/10/4 362/11/4 361/12/4 
f 369/9/10 370/10/10 371/11/10 372/12/10 
f 370/9/6 373/10/6 374/11/6 371/12/6 
f 373/9/1 375/10/1 376/11/1 374/12/1 
f 375/9/9 369/10/9 372/11/9 376/12/9 
f 372/9/2 371/10/2 374/11/2 376/12/2 
f 375/9/4 373/10/4 370/11/4 369/12/4 
f 377/9/3 378/10/3 379/11/3 380/12/3 
f 378/9/6 381/10/6 382/11/6 379/12/6 
f 381/9/1 383/10/1 384/11/1 382/12/1 
f 383/9/9 377/10/9 380/11/9 384/12/9 
f 380/9/2 379/10/2 382/11/2 384/12/2 
f 383/9/4 381/10/4 378/11/4 377/12/4 
f 385/9/3 386/10/3 387/11/3 388/12/3 
f 386/9/19 389/10/19 390/11/19 387/12/19 
f 389/9/1 391/10/1 392/11/1 390/12/1 
f 391/9/9 385/10/9 388/11/9 392/12/9 
f 388/9/13 387/10/13 390/11/13 392/12/13 
f 391/9/4 389/10/4 386/11/4 385/12/4 
f 393/9/10 394/10/10 395/11/10 396/12/10 
f 394/9/19 397/10/19 398/11/19 395/12/19 
f 397/9/1 399/10/1 400/11/1 398/12/1 
f 399/9/9 393/10/9 396/11/9 400/12/9 
f 396/9/13 395/10/13 398/11/13 400/12/13 
f 399/9/4 397/10/4 394/11/4 393/12/4 
f 401/9/3 402/10/3 403/11/3 404/12/3 
f 402/9/6 405/10/6 406/11/6 403/12/6 
f 405/9/1 407/10/1 408/11/1 406/12/1 
f 407/9/9 401/10/9 404/11/9 408/12/9 
f 404/9/2 403/10/2 406/11/2 408/12/2 
f 407/9/4 405/10/4 402/11/4 401/12/4 
f 409/9/3 410/10/3 411/11/3 412/12/3 
f 410/9/6 413/10/6 414/11/6 411/12/6 
f 413/9/20 415/10/20 416/11/20 414/12/20 
f 415/9/9 409/10/9 412/11/9 416/12/9 
f 412/9/2 411/10/2 414/11/2 416/12/2 
f 415/9/4 413/10/4 410/11/4 409/12/4 
# 350 polygons - 8 triangles

