# 3ds Max Wavefront OBJ Exporter v0.97b - (c)2007 guruware
# File Created: 15.03.2017 11:43:14

mtllib SPW_Urban_Bridge_4way RoadBridge_03.mtl

#
# object SPW_Urban_Bridge_4way_RoadBridge_03
#

v  -68.8976 -59.0551 49.2126
v  -68.8976 -59.0551 -49.2126
v  -68.8976 -334.6457 -49.2126
v  -68.8976 -334.6457 49.2126
v  68.8976 -59.0551 -49.2126
v  68.8976 -334.6457 -49.2126
v  68.8976 -59.0551 49.2126
v  68.8976 -334.6457 49.2126
v  -68.8976 -59.0550 -767.7166
v  -68.8976 -59.0550 -866.1417
v  -68.8976 -334.6456 -866.1418
v  -68.8976 -334.6456 -767.7166
v  68.8976 -59.0550 -866.1417
v  68.8976 -334.6456 -866.1418
v  68.8976 -59.0550 -767.7166
v  68.8976 -334.6456 -767.7166
v  -68.8976 -59.0552 866.1417
v  -68.8976 -59.0552 767.7166
v  -68.8976 -334.6458 767.7165
v  -68.8976 -334.6458 866.1417
v  68.8976 -59.0552 767.7166
v  68.8976 -334.6458 767.7165
v  68.8976 -59.0552 866.1417
v  68.8976 -334.6458 866.1417
v  787.4016 23.6222 -807.0865
v  787.4016 0.0002 -748.0314
v  787.4016 -78.7400 -748.0314
v  787.4016 -78.7400 -807.0865
v  -787.4016 0.0000 -748.0316
v  -787.4016 -78.7401 -748.0316
v  -787.4016 0.0000 -836.6142
v  -787.4016 0.0000 -866.1417
v  -787.4016 -78.7401 -866.1417
v  -787.4016 -78.7401 -836.6143
v  787.4016 0.0002 -866.1417
v  787.4016 -78.7400 -866.1417
v  -787.4016 -78.7401 -807.0868
v  -787.4016 23.6221 -807.0868
v  -787.4016 39.3701 -807.0868
v  787.4016 39.3702 -807.0865
v  787.4016 0.0002 -836.6141
v  787.4016 -78.7400 -836.6141
v  -787.4016 39.3701 -748.0316
v  787.4016 39.3702 -748.0314
v  -787.4016 23.6220 807.0867
v  -787.4016 -0.0001 748.0315
v  -787.4016 -78.7402 748.0315
v  -787.4016 -78.7402 807.0867
v  787.4016 -0.0001 748.0315
v  787.4016 -78.7402 748.0315
v  787.4016 -0.0001 836.6142
v  787.4016 -0.0001 866.1417
v  787.4016 -78.7403 866.1417
v  787.4016 -78.7403 836.6142
v  -787.4016 -0.0001 866.1417
v  -787.4016 -78.7403 866.1417
v  787.4016 -78.7402 807.0867
v  787.4016 23.6220 807.0867
v  787.4016 39.3700 807.0867
v  -787.4016 39.3700 807.0867
v  -787.4016 -0.0001 836.6142
v  -787.4016 -78.7403 836.6142
v  787.4016 39.3700 748.0315
v  -787.4016 39.3700 748.0315
v  787.4016 7.8741 -669.2913
v  -787.4016 7.8741 -669.2914
v  -787.4016 -78.7401 -669.2914
v  787.4016 -78.7401 -669.2913
v  -787.4016 7.8741 -748.0316
v  787.4016 7.8741 -748.0315
v  787.4016 -78.7401 -748.0315
v  787.4016 7.8739 748.0314
v  -787.4016 7.8739 748.0314
v  -787.4016 -78.7402 748.0314
v  787.4016 -78.7402 748.0314
v  -787.4016 7.8739 669.2913
v  -787.4016 -78.7402 669.2913
v  787.4016 7.8739 669.2913
v  787.4016 -78.7402 669.2913
v  787.4016 -0.0001 669.2913
v  -787.4016 -0.0001 669.2913
v  787.4016 -0.0001 657.4803
v  -787.4016 -0.0001 657.4803
v  -787.4016 -0.0001 645.6694
v  787.4016 -0.0001 645.6694
v  629.9213 -0.0000 370.0787
v  551.1812 -0.0000 370.0787
v  629.9213 -0.0000 358.2677
v  551.1812 -0.0000 358.2677
v  433.0709 -0.0000 370.0787
v  354.3307 -0.0000 370.0787
v  433.0709 -0.0000 358.2677
v  354.3307 -0.0000 358.2677
v  236.2205 -0.0000 370.0788
v  157.4803 -0.0000 370.0788
v  236.2205 -0.0000 358.2677
v  157.4803 -0.0000 358.2677
v  39.3701 -0.0000 370.0788
v  -39.3701 -0.0000 370.0788
v  39.3701 -0.0000 358.2677
v  -39.3701 -0.0000 358.2677
v  -157.4803 -0.0000 370.0788
v  -236.2204 -0.0000 370.0788
v  -157.4803 -0.0000 358.2677
v  -236.2204 -0.0000 358.2677
v  -354.3307 -0.0000 370.0788
v  -433.0708 -0.0000 370.0788
v  -354.3307 -0.0000 358.2678
v  -433.0708 -0.0000 358.2678
v  -551.1810 -0.0000 370.0788
v  -629.9212 -0.0000 370.0788
v  -551.1810 -0.0000 358.2678
v  -629.9212 -0.0000 358.2678
v  -748.0314 -0.0000 370.0788
v  -787.4016 -0.0000 82.6772
v  -748.0314 -0.0000 358.2678
v  748.0315 -0.0000 370.0787
v  748.0315 -0.0000 358.2677
v  787.4016 -0.0000 82.6771
v  787.4016 -0.0000 70.8661
v  787.4016 0.0000 -70.8662
v  -787.4016 0.0000 -70.8661
v  -787.4016 -0.0000 70.8662
v  748.0314 0.0000 -358.2678
v  629.9212 0.0000 -358.2678
v  787.4016 0.0000 -82.6772
v  748.0314 0.0000 -370.0788
v  787.4016 0.0001 -645.6694
v  629.9212 0.0000 -370.0788
v  551.1810 0.0000 -370.0788
v  433.0708 0.0000 -370.0788
v  354.3307 0.0000 -370.0788
v  236.2204 0.0000 -370.0788
v  157.4803 0.0000 -370.0788
v  39.3701 0.0000 -370.0788
v  -39.3701 0.0000 -370.0788
v  -157.4803 0.0000 -370.0788
v  -787.4016 0.0001 -645.6693
v  -748.0315 0.0000 -370.0788
v  -629.9213 0.0000 -370.0788
v  -551.1812 0.0000 -370.0788
v  -433.0709 0.0000 -370.0788
v  -354.3307 0.0000 -370.0788
v  -236.2205 0.0000 -370.0788
v  -157.4803 0.0000 -358.2678
v  -236.2205 0.0000 -358.2678
v  -354.3307 0.0000 -358.2677
v  -433.0709 0.0000 -358.2677
v  -551.1812 0.0000 -358.2677
v  -629.9213 0.0000 -358.2677
v  -748.0315 0.0000 -358.2677
v  -787.4016 0.0000 -82.6771
v  -39.3701 0.0000 -358.2678
v  39.3701 0.0000 -358.2678
v  551.1810 0.0000 -358.2678
v  433.0708 0.0000 -358.2678
v  354.3307 0.0000 -358.2678
v  236.2204 0.0000 -358.2678
v  157.4803 0.0000 -358.2678
v  787.4016 0.0001 -657.4803
v  787.4016 0.0001 -669.2913
v  -787.4016 0.0001 -669.2913
v  -787.4016 0.0001 -657.4803
v  -787.4016 -78.7401 -669.2913
v  -769.9540 75.1673 780.5118
v  -769.9540 75.1673 774.6062
v  -769.9540 65.3248 774.6062
v  -769.9540 65.3248 780.5118
v  771.4775 75.1673 774.6062
v  771.4775 65.3248 774.6062
v  771.4775 75.1673 780.5118
v  771.4775 65.3248 780.5118
v  -782.2839 78.8367 783.5606
v  -782.2839 78.8367 771.5574
v  -787.4022 38.9897 760.9795
v  -787.4022 38.9897 794.1385
v  -761.8111 78.8367 771.5574
v  -756.6929 38.9897 760.9795
v  -761.8111 78.8367 783.5606
v  -756.6929 38.9897 794.1385
v  761.8111 78.8367 783.5606
v  761.8111 78.8367 771.5574
v  756.6929 38.9897 760.9795
v  756.6929 38.9897 794.1385
v  782.2833 78.8367 771.5574
v  787.4017 38.9897 760.9795
v  782.2833 78.8367 783.5606
v  787.4017 38.9897 794.1385
v  -10.2364 78.8367 783.5606
v  -10.2364 78.8367 771.5574
v  -15.3546 38.9897 760.9795
v  -15.3546 38.9897 794.1385
v  10.2359 78.8367 771.5574
v  15.3541 38.9897 760.9795
v  10.2359 78.8367 783.5606
v  15.3541 38.9897 794.1385
v  383.4643 78.8367 783.5606
v  383.4643 78.8367 771.5574
v  378.3462 38.9897 760.9795
v  378.3462 38.9897 794.1385
v  403.9366 78.8367 771.5574
v  409.0549 38.9897 760.9795
v  403.9366 78.8367 783.5606
v  409.0549 38.9897 794.1385
v  -403.9372 78.8367 783.5606
v  -403.9372 78.8367 771.5574
v  -409.0554 38.9897 760.9795
v  -409.0554 38.9897 794.1385
v  -383.4649 78.8367 771.5574
v  -378.3466 38.9897 760.9795
v  -383.4649 78.8367 783.5606
v  -378.3466 38.9897 794.1385
v  -772.9786 75.1675 -774.6063
v  -772.9786 75.1675 -780.5118
v  -772.9786 65.3250 -780.5118
v  -772.9786 65.3250 -774.6063
v  773.9398 75.1675 -780.5118
v  773.9398 65.3250 -780.5118
v  773.9398 75.1675 -774.6063
v  773.9398 65.3250 -774.6063
v  -782.2839 78.8368 -771.5575
v  -782.2839 78.8368 -783.5607
v  -787.4022 38.9898 -794.1385
v  -787.4022 38.9898 -760.9796
v  -761.8111 78.8368 -783.5607
v  -756.6929 38.9898 -794.1385
v  -761.8111 78.8368 -771.5575
v  -756.6929 38.9898 -760.9796
v  761.8111 78.8368 -771.5575
v  761.8111 78.8368 -783.5607
v  756.6929 38.9898 -794.1385
v  756.6929 38.9898 -760.9796
v  782.2833 78.8368 -783.5607
v  787.4017 38.9898 -794.1385
v  782.2833 78.8368 -771.5575
v  787.4017 38.9898 -760.9796
v  -10.2364 78.8368 -771.5575
v  -10.2364 78.8368 -783.5607
v  -15.3546 38.9898 -794.1385
v  -15.3546 38.9898 -760.9796
v  10.2359 78.8368 -783.5607
v  15.3541 38.9898 -794.1385
v  10.2359 78.8368 -771.5575
v  15.3541 38.9898 -760.9796
v  383.4643 78.8368 -771.5575
v  383.4643 78.8368 -783.5607
v  378.3462 38.9898 -794.1385
v  378.3462 38.9898 -760.9796
v  403.9366 78.8368 -783.5607
v  409.0549 38.9898 -794.1385
v  403.9366 78.8368 -771.5575
v  409.0549 38.9898 -760.9796
v  -403.9372 78.8368 -771.5575
v  -403.9372 78.8368 -783.5607
v  -409.0554 38.9898 -794.1385
v  -409.0554 38.9898 -760.9796
v  -383.4649 78.8368 -783.5607
v  -378.3466 38.9898 -794.1385
v  -383.4649 78.8368 -771.5575
v  -378.3466 38.9898 -760.9796
# 260 vertices

vn -1.0000 0.0000 -0.0000
vn 0.0000 0.0000 -1.0000
vn 1.0000 0.0000 -0.0000
vn 0.0000 -0.0000 1.0000
vn 0.0000 -1.0000 -0.0000
vn 0.0000 1.0000 0.0000
vn -0.0000 -0.0000 1.0000
vn -0.0000 0.7809 -0.6247
vn -0.0000 1.0000 0.0000
vn 0.0000 0.7809 0.6247
vn -0.0000 -1.0000 -0.0000
vn -0.9919 0.1274 0.0000
vn 0.0000 0.2566 -0.9665
vn 0.9919 0.1274 0.0000
vn 0.0000 0.2566 0.9665
# 15 vertex normals

vt 0.3569 0.3913 0.0000
vt 0.4069 0.3913 0.0000
vt 0.4069 0.4413 0.0000
vt 0.3569 0.4413 0.0000
vt 0.2437 0.8540 0.0000
vt 0.2937 0.8540 0.0000
vt 0.2937 0.9040 0.0000
vt 0.2437 0.9040 0.0000
vt 0.5644 0.8687 0.0000
vt 0.5144 0.8687 0.0000
vt 0.4216 0.8736 0.0000
vt 0.4216 0.8741 0.0000
vt 0.3716 0.8741 0.0000
vt 0.3716 0.8736 0.0000
vt 0.3716 0.8745 0.0000
vt 0.4216 0.8745 0.0000
vt 0.4166 0.8848 0.0000
vt 0.4141 0.8848 0.0000
vt 0.4166 0.8853 0.0000
vt 0.4141 0.8853 0.0000
vt 0.4104 0.8848 0.0000
vt 0.4079 0.8848 0.0000
vt 0.4104 0.8853 0.0000
vt 0.4079 0.8853 0.0000
vt 0.4041 0.8848 0.0000
vt 0.4016 0.8848 0.0000
vt 0.4041 0.8853 0.0000
vt 0.4016 0.8853 0.0000
vt 0.3979 0.8848 0.0000
vt 0.3954 0.8848 0.0000
vt 0.3979 0.8853 0.0000
vt 0.3954 0.8853 0.0000
vt 0.3916 0.8848 0.0000
vt 0.3891 0.8848 0.0000
vt 0.3916 0.8853 0.0000
vt 0.3891 0.8853 0.0000
vt 0.3854 0.8848 0.0000
vt 0.3829 0.8848 0.0000
vt 0.3854 0.8853 0.0000
vt 0.3829 0.8853 0.0000
vt 0.3791 0.8848 0.0000
vt 0.3766 0.8848 0.0000
vt 0.3791 0.8853 0.0000
vt 0.3766 0.8853 0.0000
vt 0.3729 0.8848 0.0000
vt 0.3716 0.8956 0.0000
vt 0.3729 0.8853 0.0000
vt 0.4204 0.8848 0.0000
vt 0.4204 0.8853 0.0000
vt 0.4216 0.8956 0.0000
vt 0.4216 0.8960 0.0000
vt 0.4216 0.9013 0.0000
vt 0.3716 0.9013 0.0000
vt 0.3716 0.8960 0.0000
vt 0.4204 0.9120 0.0000
vt 0.4166 0.9120 0.0000
vt 0.4216 0.9017 0.0000
vt 0.4204 0.9125 0.0000
vt 0.4216 0.9228 0.0000
vt 0.4166 0.9125 0.0000
vt 0.4141 0.9125 0.0000
vt 0.4104 0.9125 0.0000
vt 0.4079 0.9125 0.0000
vt 0.4041 0.9125 0.0000
vt 0.4016 0.9125 0.0000
vt 0.3979 0.9125 0.0000
vt 0.3954 0.9125 0.0000
vt 0.3916 0.9125 0.0000
vt 0.3716 0.9228 0.0000
vt 0.3729 0.9125 0.0000
vt 0.3766 0.9125 0.0000
vt 0.3791 0.9125 0.0000
vt 0.3829 0.9125 0.0000
vt 0.3854 0.9125 0.0000
vt 0.3891 0.9125 0.0000
vt 0.3916 0.9120 0.0000
vt 0.3891 0.9120 0.0000
vt 0.3854 0.9120 0.0000
vt 0.3829 0.9120 0.0000
vt 0.3791 0.9120 0.0000
vt 0.3766 0.9120 0.0000
vt 0.3729 0.9120 0.0000
vt 0.3716 0.9017 0.0000
vt 0.3954 0.9120 0.0000
vt 0.3979 0.9120 0.0000
vt 0.4141 0.9120 0.0000
vt 0.4104 0.9120 0.0000
vt 0.4079 0.9120 0.0000
vt 0.4041 0.9120 0.0000
vt 0.4016 0.9120 0.0000
vt 0.4216 0.9232 0.0000
vt 0.4216 0.9236 0.0000
vt 0.3716 0.9236 0.0000
vt 0.3716 0.9232 0.0000
vt 0.5144 0.9187 0.0000
vt 0.5644 0.9187 0.0000
vt 0.5594 0.9075 0.0000
vt 0.5594 0.9071 0.0000
vt 0.5631 0.9071 0.0000
vt 0.5631 0.9075 0.0000
vt 0.5531 0.9071 0.0000
vt 0.5569 0.9071 0.0000
vt 0.5569 0.9075 0.0000
vt 0.5531 0.9075 0.0000
vt 0.5506 0.8803 0.0000
vt 0.5469 0.8803 0.0000
vt 0.5469 0.8799 0.0000
vt 0.5506 0.8799 0.0000
vt 0.5631 0.8799 0.0000
vt 0.5631 0.8803 0.0000
vt 0.5594 0.8803 0.0000
vt 0.5594 0.8799 0.0000
vt 0.5469 0.9071 0.0000
vt 0.5506 0.9071 0.0000
vt 0.5506 0.9075 0.0000
vt 0.5469 0.9075 0.0000
vt 0.5569 0.8803 0.0000
vt 0.5531 0.8803 0.0000
vt 0.5531 0.8799 0.0000
vt 0.5569 0.8799 0.0000
vt 0.5406 0.9071 0.0000
vt 0.5444 0.9071 0.0000
vt 0.5444 0.9075 0.0000
vt 0.5406 0.9075 0.0000
vt 0.5281 0.9071 0.0000
vt 0.5319 0.9071 0.0000
vt 0.5319 0.9075 0.0000
vt 0.5281 0.9075 0.0000
vt 0.5194 0.9071 0.0000
vt 0.5194 0.9075 0.0000
vt 0.5156 0.9075 0.0000
vt 0.5156 0.9071 0.0000
vt 0.5256 0.9075 0.0000
vt 0.5219 0.9075 0.0000
vt 0.5219 0.9071 0.0000
vt 0.5256 0.9071 0.0000
vt 0.5344 0.9071 0.0000
vt 0.5381 0.9071 0.0000
vt 0.5381 0.9075 0.0000
vt 0.5344 0.9075 0.0000
vt 0.5444 0.8803 0.0000
vt 0.5406 0.8803 0.0000
vt 0.5406 0.8799 0.0000
vt 0.5444 0.8799 0.0000
vt 0.5256 0.8803 0.0000
vt 0.5219 0.8803 0.0000
vt 0.5219 0.8799 0.0000
vt 0.5256 0.8799 0.0000
vt 0.5381 0.8803 0.0000
vt 0.5344 0.8803 0.0000
vt 0.5344 0.8799 0.0000
vt 0.5381 0.8799 0.0000
vt 0.5319 0.8803 0.0000
vt 0.5281 0.8803 0.0000
vt 0.5281 0.8799 0.0000
vt 0.5319 0.8799 0.0000
vt 0.5194 0.8803 0.0000
vt 0.5156 0.8803 0.0000
vt 0.5156 0.8799 0.0000
vt 0.5194 0.8799 0.0000
vt 0.5644 0.8968 0.0000
vt 0.5144 0.8968 0.0000
vt 0.5144 0.8964 0.0000
vt 0.5644 0.8964 0.0000
vt 0.5144 0.8906 0.0000
vt 0.5644 0.8906 0.0000
vt 0.5644 0.8911 0.0000
vt 0.5144 0.8911 0.0000
vt 0.5644 0.8696 0.0000
vt 0.5144 0.8696 0.0000
vt 0.5144 0.8692 0.0000
vt 0.5644 0.8692 0.0000
vt 0.5144 0.9178 0.0000
vt 0.5644 0.9178 0.0000
vt 0.5644 0.9183 0.0000
vt 0.5144 0.9183 0.0000
vt 0.2388 0.8638 0.0000
vt 0.2888 0.8638 0.0000
vt 0.2888 0.9138 0.0000
vt 0.2388 0.9138 0.0000
# 180 texture coords

g SPW_Urban_Bridge_4way_RoadBridge_03
usemtl SPW_Urban_Road
s off
f 1/1/1 2/2/1 3/3/1 4/4/1 
f 2/1/2 5/2/2 6/3/2 3/4/2 
f 5/1/3 7/2/3 8/3/3 6/4/3 
f 7/1/4 1/2/4 4/3/4 8/4/4 
f 4/1/5 3/2/5 6/3/5 8/4/5 
f 7/1/6 5/2/6 2/3/6 1/4/6 
f 9/1/1 10/2/1 11/3/1 12/4/1 
f 10/1/2 13/2/2 14/3/2 11/4/2 
f 13/1/3 15/2/3 16/3/3 14/4/3 
f 15/1/4 9/2/4 12/3/4 16/4/4 
f 12/1/5 11/2/5 14/3/5 16/4/5 
f 15/1/6 13/2/6 10/3/6 9/4/6 
f 17/1/1 18/2/1 19/3/1 20/4/1 
f 18/1/2 21/2/2 22/3/2 19/4/2 
f 21/1/3 23/2/3 24/3/3 22/4/3 
f 23/1/4 17/2/4 20/3/4 24/4/4 
f 20/1/5 19/2/5 22/3/5 24/4/5 
f 23/1/6 21/2/6 18/3/6 17/4/6 
s 1
f 25/1/3 26/2/3 27/3/3 28/4/3 
s 2
f 26/1/7 29/2/7 30/3/7 27/4/7 
s 1
f 31/1/1 32/2/1 33/3/1 34/4/1 
s off
f 32/1/2 35/2/2 36/3/2 33/4/2 
s 4
f 28/1/5 27/2/5 30/3/5 37/4/5 
s off
f 25/1/2 38/2/2 39/3/2 40/4/2 
f 31/1/8 38/2/8 25/3/8 41/4/8 
s 4
f 42/1/5 28/2/5 37/3/5 34/4/5 
s 1
f 29/1/1 38/2/1 37/3/1 30/4/1 
f 41/1/3 25/2/3 28/3/3 42/4/3 
s off
f 39/1/9 43/2/9 44/3/9 40/4/9 
s 1
f 38/1/1 29/2/1 43/3/1 39/4/1 
s 2
f 29/1/7 26/2/7 44/3/7 43/4/7 
s 1
f 26/1/3 25/2/3 40/3/3 44/4/3 
f 35/1/3 41/2/3 42/3/3 36/4/3 
s 4
f 36/1/5 42/2/5 34/3/5 33/4/5 
s off
f 32/1/9 31/2/9 41/3/9 35/4/9 
s 1
f 38/1/1 31/2/1 34/3/1 37/4/1 
f 45/1/1 46/2/1 47/3/1 48/4/1 
s 2
f 46/1/2 49/2/2 50/3/2 47/4/2 
s 1
f 51/1/3 52/2/3 53/3/3 54/4/3 
s off
f 52/1/4 55/2/4 56/3/4 53/4/4 
s 4
f 48/1/5 47/2/5 50/3/5 57/4/5 
s off
f 45/1/4 58/2/4 59/3/4 60/4/4 
f 51/1/10 58/2/10 45/3/10 61/4/10 
s 4
f 62/1/5 48/2/5 57/3/5 54/4/5 
s 1
f 49/1/3 58/2/3 57/3/3 50/4/3 
f 61/1/1 45/2/1 48/3/1 62/4/1 
s off
f 59/1/6 63/2/6 64/3/6 60/4/6 
s 1
f 58/1/3 49/2/3 63/3/3 59/4/3 
s 2
f 49/1/2 46/2/2 64/3/2 63/4/2 
s 1
f 46/1/1 45/2/1 60/3/1 64/4/1 
f 55/1/1 61/2/1 62/3/1 56/4/1 
s 4
f 56/1/5 62/2/5 54/3/5 53/4/5 
s off
f 52/1/6 51/2/6 61/3/6 55/4/6 
s 1
f 58/1/3 51/2/3 54/3/3 57/4/3 
s off
f 65/5/7 66/6/7 67/7/7 68/8/7 
f 66/5/1 69/6/1 30/7/1 67/8/1 
f 69/5/2 70/6/2 71/7/2 30/8/2 
f 70/5/3 65/6/3 68/7/3 71/8/3 
f 68/5/5 67/6/5 30/7/5 71/8/5 
f 70/5/6 69/6/6 66/7/6 65/8/6 
f 72/5/4 73/6/4 74/7/4 75/8/4 
f 73/5/1 76/6/1 77/7/1 74/8/1 
f 76/5/2 78/6/2 79/7/2 77/8/2 
f 78/5/3 72/6/3 75/7/3 79/8/3 
f 75/5/5 74/6/5 77/7/5 79/8/5 
f 78/5/6 76/6/6 73/7/6 72/8/6 
f 80/9/7 81/10/7 77/10/7 79/9/7 
s 1
f 80/11/6 82/12/6 83/13/6 81/14/6 
f 84/15/6 85/16/6 86/17/6 87/18/6 
f 86/17/6 88/19/6 89/20/6 87/18/6 
f 84/15/6 87/18/6 90/21/6 91/22/6 
f 90/21/6 92/23/6 93/24/9 91/22/6 
f 84/15/6 91/22/6 94/25/6 95/26/6 
f 94/25/6 96/27/9 97/28/6 95/26/6 
f 84/15/6 95/26/6 98/29/6 99/30/6 
f 98/29/6 100/31/6 101/32/6 99/30/6 
f 84/15/6 99/30/6 102/33/6 103/34/9 
f 102/33/6 104/35/6 105/36/9 103/34/9 
f 84/15/6 103/34/9 106/37/9 107/38/6 
f 106/37/9 108/39/9 109/40/6 107/38/6 
f 84/15/6 107/38/6 110/41/6 111/42/6 
f 110/41/6 112/43/6 113/44/6 111/42/6 
f 84/15/6 111/42/6 114/45/6 115/46/6 
f 116/47/6 115/46/6 114/45/6 
f 117/48/9 86/17/6 85/16/6 118/49/9 
f 118/49/9 85/16/6 119/50/6 88/19/6 
f 89/20/6 88/19/6 119/50/6 92/23/6 
f 93/24/9 92/23/6 119/50/6 96/27/9 
f 97/28/6 96/27/9 119/50/6 100/31/6 
f 101/32/6 100/31/6 119/50/6 104/35/6 
f 105/36/9 104/35/6 119/50/6 108/39/9 
f 109/40/6 108/39/9 119/50/6 112/43/6 
f 113/44/6 112/43/6 119/50/6 116/47/6 
f 116/47/6 119/50/6 115/46/6 
f 120/51/6 121/52/6 122/53/6 123/54/9 
f 124/55/6 125/56/6 126/57/6 127/58/6 
f 127/58/6 126/57/6 128/59/9 129/60/6 
f 130/61/6 129/60/6 128/59/9 131/62/6 
f 132/63/6 131/62/6 128/59/9 133/64/6 
f 134/65/6 133/64/6 128/59/9 135/66/6 
f 136/67/6 135/66/6 128/59/9 137/68/6 
f 128/59/9 138/69/6 139/70/6 140/71/6 
f 128/59/9 140/71/6 141/72/6 142/73/6 
f 128/59/9 142/73/6 143/74/9 144/75/9 
f 128/59/9 144/75/9 137/68/6 
f 145/76/6 137/68/6 144/75/9 146/77/9 
f 147/78/9 143/74/9 142/73/6 148/79/6 
f 149/80/6 141/72/6 140/71/6 150/81/6 
f 151/82/6 139/70/6 138/69/6 152/83/9 
f 150/81/6 151/82/6 152/83/9 149/80/6 
f 148/79/6 149/80/6 152/83/9 147/78/9 
f 146/77/9 147/78/9 152/83/9 145/76/6 
f 153/84/6 145/76/6 152/83/9 154/85/6 
f 152/83/9 126/57/6 125/56/6 155/86/6 
f 125/56/6 129/60/6 130/61/6 155/86/6 
f 152/83/9 155/86/6 156/87/6 157/88/6 
f 156/87/6 131/62/6 132/63/6 157/88/6 
f 152/83/9 157/88/6 158/89/6 159/90/6 
f 158/89/6 133/64/6 134/65/6 159/90/6 
f 152/83/9 159/90/6 154/85/6 
f 136/67/6 153/84/6 154/85/6 135/66/6 
f 160/91/6 161/92/6 162/93/6 163/94/6 
s off
f 162/95/2 161/96/2 68/96/2 164/95/2 
f 77/10/11 164/95/11 68/96/11 79/9/11 
s 1
f 129/97/6 125/98/6 124/99/6 127/100/6 
f 156/101/6 155/102/6 130/103/6 131/104/6 
f 93/105/9 96/106/9 94/107/6 91/108/6 
f 117/109/9 118/110/9 88/111/6 86/112/6 
f 158/113/6 157/114/6 132/115/6 133/116/6 
f 89/117/6 92/118/6 90/119/6 87/120/6 
f 154/121/6 159/122/6 134/123/6 135/124/6 
f 147/125/9 146/126/9 144/127/9 143/128/9 
f 150/129/6 140/130/6 139/131/6 151/132/6 
f 142/133/6 141/134/6 149/135/6 148/136/6 
f 145/137/6 153/138/6 136/139/6 137/140/6 
f 97/141/6 100/142/6 98/143/6 95/144/6 
f 109/145/6 112/146/6 110/147/6 107/148/6 
f 101/149/6 104/150/6 102/151/6 99/152/6 
f 105/153/9 108/154/9 106/155/9 103/156/9 
s off
f 163/94/1 162/93/1 164/93/1 122/53/1 
f 123/54/1 122/53/1 164/93/1 83/13/1 
f 81/14/1 83/13/1 164/93/1 77/14/1 
s 1
f 113/157/6 116/158/6 114/159/6 111/160/6 
s off
f 79/11/3 68/92/3 161/92/3 160/91/3 
f 79/11/3 160/91/3 119/50/3 85/16/3 
f 79/11/3 85/16/3 82/12/3 80/11/3 
s 1
f 126/161/6 152/162/9 122/163/6 121/164/6 
f 115/165/6 119/166/6 120/167/6 123/168/9 
f 85/169/6 84/170/6 83/171/6 82/172/6 
f 138/173/6 128/174/9 160/175/6 163/176/6 
s off
f 165/177/1 166/178/1 167/179/1 168/180/1 
f 166/177/2 169/178/2 170/179/2 167/180/2 
f 169/177/3 171/178/3 172/179/3 170/180/3 
f 171/177/4 165/178/4 168/179/4 172/180/4 
f 168/177/5 167/178/5 170/179/5 172/180/5 
f 171/177/6 169/178/6 166/179/6 165/180/6 
f 173/177/12 174/178/12 175/179/12 176/180/12 
f 174/177/13 177/178/13 178/179/13 175/180/13 
f 177/177/14 179/178/14 180/179/14 178/180/14 
f 179/177/15 173/178/15 176/179/15 180/180/15 
f 176/177/5 175/178/5 178/179/5 180/180/5 
f 179/177/6 177/178/6 174/179/6 173/180/6 
f 181/177/12 182/178/12 183/179/12 184/180/12 
f 182/177/13 185/178/13 186/179/13 183/180/13 
f 185/177/14 187/178/14 188/179/14 186/180/14 
f 187/177/15 181/178/15 184/179/15 188/180/15 
f 184/177/5 183/178/5 186/179/5 188/180/5 
f 187/177/6 185/178/6 182/179/6 181/180/6 
f 189/177/12 190/178/12 191/179/12 192/180/12 
f 190/177/13 193/178/13 194/179/13 191/180/13 
f 193/177/14 195/178/14 196/179/14 194/180/14 
f 195/177/15 189/178/15 192/179/15 196/180/15 
f 192/177/5 191/178/5 194/179/5 196/180/5 
f 195/177/6 193/178/6 190/179/6 189/180/6 
f 197/177/12 198/178/12 199/179/12 200/180/12 
f 198/177/13 201/178/13 202/179/13 199/180/13 
f 201/177/14 203/178/14 204/179/14 202/180/14 
f 203/177/15 197/178/15 200/179/15 204/180/15 
f 200/177/5 199/178/5 202/179/5 204/180/5 
f 203/177/6 201/178/6 198/179/6 197/180/6 
f 205/177/12 206/178/12 207/179/12 208/180/12 
f 206/177/13 209/178/13 210/179/13 207/180/13 
f 209/177/14 211/178/14 212/179/14 210/180/14 
f 211/177/15 205/178/15 208/179/15 212/180/15 
f 208/177/5 207/178/5 210/179/5 212/180/5 
f 211/177/6 209/178/6 206/179/6 205/180/6 
f 213/177/1 214/178/1 215/179/1 216/180/1 
f 214/177/2 217/178/2 218/179/2 215/180/2 
f 217/177/3 219/178/3 220/179/3 218/180/3 
f 219/177/4 213/178/4 216/179/4 220/180/4 
f 216/177/5 215/178/5 218/179/5 220/180/5 
f 219/177/6 217/178/6 214/179/6 213/180/6 
f 221/177/12 222/178/12 223/179/12 224/180/12 
f 222/177/13 225/178/13 226/179/13 223/180/13 
f 225/177/14 227/178/14 228/179/14 226/180/14 
f 227/177/15 221/178/15 224/179/15 228/180/15 
f 224/177/5 223/178/5 226/179/5 228/180/5 
f 227/177/6 225/178/6 222/179/6 221/180/6 
f 229/177/12 230/178/12 231/179/12 232/180/12 
f 230/177/13 233/178/13 234/179/13 231/180/13 
f 233/177/14 235/178/14 236/179/14 234/180/14 
f 235/177/15 229/178/15 232/179/15 236/180/15 
f 232/177/5 231/178/5 234/179/5 236/180/5 
f 235/177/6 233/178/6 230/179/6 229/180/6 
f 237/177/12 238/178/12 239/179/12 240/180/12 
f 238/177/13 241/178/13 242/179/13 239/180/13 
f 241/177/14 243/178/14 244/179/14 242/180/14 
f 243/177/15 237/178/15 240/179/15 244/180/15 
f 240/177/5 239/178/5 242/179/5 244/180/5 
f 243/177/6 241/178/6 238/179/6 237/180/6 
f 245/177/12 246/178/12 247/179/12 248/180/12 
f 246/177/13 249/178/13 250/179/13 247/180/13 
f 249/177/14 251/178/14 252/179/14 250/180/14 
f 251/177/15 245/178/15 248/179/15 252/180/15 
f 248/177/5 247/178/5 250/179/5 252/180/5 
f 251/177/6 249/178/6 246/179/6 245/180/6 
f 253/177/12 254/178/12 255/179/12 256/180/12 
f 254/177/13 257/178/13 258/179/13 255/180/13 
f 257/177/14 259/178/14 260/179/14 258/180/14 
f 259/177/15 253/178/15 256/179/15 260/180/15 
f 256/177/5 255/178/5 258/179/5 260/180/5 
f 259/177/6 257/178/6 254/179/6 253/180/6 
# 218 polygons - 4 triangles

