# 3ds Max Wavefront OBJ Exporter v0.97b - (c)2007 guruware
# File Created: 15.03.2017 10:41:31

mtllib SPW_Urban_Bldg_10.mtl

#
# object SPW_Urban_Bldg_10
#

v  623.1559 3.9370 -282.2064
v  557.7970 3.9369 -347.5653
v  557.7970 82.6771 -347.5653
v  623.1559 82.6771 -282.2064
v  557.7970 3.9371 347.5655
v  623.1558 3.9370 282.2065
v  623.1558 82.6772 282.2065
v  557.7970 82.6772 347.5655
v  -623.1561 3.9370 282.2064
v  -557.7971 3.9371 347.5653
v  -557.7971 82.6772 347.5653
v  -623.1561 82.6772 282.2064
v  -557.7971 3.9369 -347.5654
v  -623.1559 3.9370 -282.2066
v  -623.1559 82.6771 -282.2066
v  -557.7971 82.6771 -347.5655
v  623.1559 86.6141 -282.2064
v  557.7970 86.6141 -347.5653
v  557.7970 165.3543 -347.5653
v  623.1559 165.3543 -282.2064
v  557.7970 86.6142 347.5655
v  623.1558 86.6142 282.2065
v  623.1558 165.3544 282.2065
v  557.7970 165.3544 347.5655
v  -623.1561 86.6142 282.2064
v  -557.7971 86.6142 347.5653
v  -557.7971 165.3544 347.5653
v  -623.1561 165.3544 282.2064
v  -557.7971 86.6141 -347.5655
v  -623.1559 86.6141 -282.2066
v  -623.1559 165.3543 -282.2066
v  -557.7971 165.3543 -347.5655
v  623.1559 169.2913 -282.2064
v  557.7970 169.2913 -347.5653
v  557.7970 248.0314 -347.5654
v  623.1559 248.0314 -282.2064
v  557.7970 169.2914 347.5655
v  623.1558 169.2914 282.2065
v  623.1558 248.0315 282.2065
v  557.7970 248.0315 347.5654
v  -623.1561 169.2914 282.2064
v  -557.7971 169.2914 347.5653
v  -557.7971 248.0315 347.5653
v  -623.1561 248.0315 282.2064
v  -557.7971 169.2913 -347.5655
v  -623.1559 169.2913 -282.2066
v  -623.1559 248.0314 -282.2066
v  -557.7971 248.0314 -347.5655
v  623.1559 251.9684 -282.2064
v  557.7970 251.9684 -347.5654
v  557.7970 330.7086 -347.5654
v  623.1559 330.7086 -282.2064
v  557.7970 251.9685 347.5654
v  623.1558 251.9685 282.2065
v  623.1558 330.7087 282.2065
v  557.7970 330.7087 347.5654
v  -623.1561 251.9685 282.2064
v  -557.7971 251.9685 347.5653
v  -557.7971 330.7087 347.5653
v  -623.1561 330.7087 282.2064
v  -557.7971 251.9684 -347.5655
v  -623.1559 251.9684 -282.2066
v  -623.1559 330.7086 -282.2066
v  -557.7971 330.7086 -347.5655
v  623.1559 334.6456 -282.2064
v  557.7970 334.6456 -347.5654
v  557.7970 413.3858 -347.5654
v  623.1559 413.3858 -282.2065
v  557.7970 334.6457 347.5654
v  623.1558 334.6457 282.2065
v  623.1558 413.3859 282.2065
v  557.7970 413.3859 347.5654
v  -623.1561 334.6457 282.2064
v  -557.7971 334.6457 347.5653
v  -557.7971 413.3859 347.5652
v  -623.1561 413.3859 282.2064
v  -557.7971 334.6456 -347.5655
v  -623.1559 334.6456 -282.2066
v  -623.1559 413.3858 -282.2066
v  -557.7971 413.3858 -347.5655
v  623.1559 417.3228 -282.2064
v  557.7970 417.3228 -347.5653
v  557.7970 496.0630 -347.5653
v  623.1559 496.0630 -282.2064
v  557.7969 417.3229 347.5654
v  623.1558 417.3229 282.2065
v  623.1558 496.0631 282.2065
v  557.7969 496.0631 347.5654
v  -623.1561 417.3229 282.2063
v  -557.7971 417.3229 347.5652
v  -557.7971 496.0631 347.5652
v  -623.1561 496.0631 282.2063
v  -557.7970 417.3228 -347.5656
v  -623.1559 417.3228 -282.2067
v  -623.1559 496.0630 -282.2067
v  -557.7970 496.0630 -347.5655
v  557.7971 511.8110 -347.5653
v  623.1559 511.8110 -282.2065
v  633.8842 511.8110 -292.9346
v  633.8842 511.8110 -323.0671
v  598.6578 511.8110 -358.2935
v  568.5252 511.8110 -358.2935
v  623.1559 -0.0000 -282.2064
v  557.7971 -0.0001 -347.5653
v  568.5252 -0.0001 -358.2935
v  598.6578 -0.0001 -358.2935
v  633.8842 -0.0000 -323.0671
v  633.8842 -0.0000 -292.9346
v  623.1559 511.8111 282.2065
v  557.7970 511.8111 347.5654
v  568.5251 511.8111 358.2936
v  598.6577 511.8111 358.2936
v  633.8840 511.8111 323.0673
v  633.8840 511.8111 292.9347
v  557.7970 0.0001 347.5655
v  623.1559 0.0000 282.2065
v  633.8840 0.0000 292.9347
v  633.8840 0.0000 323.0673
v  598.6577 0.0001 358.2936
v  568.5251 0.0001 358.2936
v  -557.7971 511.8111 347.5652
v  -623.1560 511.8111 282.2063
v  -633.8842 511.8111 292.9345
v  -633.8842 511.8111 323.0670
v  -598.6578 511.8111 358.2934
v  -568.5252 511.8111 358.2934
v  -623.1560 0.0000 282.2064
v  -557.7971 0.0001 347.5653
v  -568.5252 0.0001 358.2935
v  -598.6578 0.0001 358.2935
v  -633.8842 0.0000 323.0671
v  -633.8842 0.0000 292.9346
v  -623.1559 511.8110 -282.2066
v  -557.7970 511.8110 -347.5655
v  -568.5251 511.8110 -358.2937
v  -598.6577 511.8110 -358.2937
v  -633.8840 511.8110 -323.0674
v  -633.8840 511.8110 -292.9348
v  -557.7970 -0.0001 -347.5655
v  -623.1559 -0.0000 -282.2065
v  -633.8840 -0.0000 -292.9347
v  -633.8840 -0.0000 -323.0673
v  -598.6577 -0.0001 -358.2936
v  -568.5251 -0.0001 -358.2936
v  557.7970 -0.0001 -347.5652
v  557.7970 3.9369 -347.5652
v  557.7969 0.0001 347.5655
v  623.1558 0.0000 282.2066
v  623.1558 3.9370 282.2066
v  557.7969 3.9371 347.5655
v  -623.1561 0.0000 282.2064
v  -623.1559 -0.0000 -282.2066
v  -557.7970 3.9369 -347.5655
v  557.7969 82.6772 347.5655
v  557.7969 86.6142 347.5655
v  -557.7970 82.6771 -347.5655
v  -557.7970 86.6141 -347.5655
v  557.7969 165.3544 347.5655
v  557.7969 169.2914 347.5655
v  -557.7970 165.3543 -347.5655
v  -557.7970 169.2913 -347.5655
v  623.1559 248.0315 -282.2064
v  557.7970 248.0315 -347.5653
v  557.7970 251.9685 -347.5653
v  623.1559 251.9685 -282.2064
v  557.7969 248.0316 347.5654
v  623.1558 248.0316 282.2065
v  623.1558 251.9686 282.2065
v  557.7969 251.9686 347.5654
v  -623.1561 248.0316 282.2064
v  -557.7971 248.0316 347.5652
v  -557.7971 251.9686 347.5652
v  -623.1561 251.9686 282.2064
v  -557.7970 248.0315 -347.5656
v  -623.1559 248.0315 -282.2066
v  -623.1559 251.9685 -282.2066
v  -557.7970 251.9685 -347.5656
v  557.7970 330.7086 -347.5653
v  557.7970 334.6456 -347.5653
v  557.7969 330.7087 347.5654
v  557.7969 334.6457 347.5654
v  -557.7971 330.7087 347.5652
v  -557.7971 334.6457 347.5652
v  -557.7970 330.7086 -347.5656
v  -557.7970 334.6456 -347.5656
v  623.1559 413.3857 -282.2064
v  557.7970 413.3857 -347.5653
v  557.7970 417.3227 -347.5653
v  623.1559 417.3227 -282.2064
v  557.7969 413.3859 347.5654
v  623.1558 417.3228 282.2065
v  557.7969 417.3228 347.5654
v  -623.1561 413.3859 282.2063
v  -557.7971 417.3228 347.5652
v  -623.1561 417.3228 282.2063
v  -557.7970 413.3857 -347.5656
v  -623.1559 413.3857 -282.2067
v  -623.1559 417.3227 -282.2067
v  -557.7970 417.3227 -347.5656
v  623.1559 496.0629 -282.2064
v  557.7970 496.0629 -347.5653
v  557.7970 500.0000 -347.5653
v  623.1559 500.0000 -282.2064
v  557.7969 496.0630 347.5654
v  623.1558 496.0630 282.2065
v  623.1558 500.0001 282.2065
v  557.7969 500.0001 347.5654
v  -623.1561 496.0630 282.2063
v  -557.7971 496.0630 347.5652
v  -557.7971 500.0001 347.5652
v  -623.1561 500.0001 282.2063
v  -557.7970 496.0629 -347.5655
v  -623.1559 496.0629 -282.2067
v  -623.1559 500.0000 -282.2067
v  -557.7970 500.0000 -347.5655
v  623.6219 504.4581 -234.2520
v  -623.6219 504.4581 -234.2521
v  -623.6219 -0.0000 -234.2520
v  623.6219 -0.0000 -234.2519
v  -623.6219 504.4580 -238.1891
v  -623.6219 -0.0000 -238.1890
v  623.6219 504.4580 -238.1890
v  623.6219 -0.0000 -238.1889
v  623.6219 504.4581 -155.5118
v  -623.6219 504.4581 -155.5119
v  -623.6219 -0.0000 -155.5119
v  623.6219 -0.0000 -155.5118
v  -623.6219 504.4581 -159.4489
v  -623.6219 -0.0000 -159.4489
v  623.6219 504.4581 -159.4488
v  623.6219 -0.0000 -159.4488
v  623.6219 504.4581 -76.7717
v  -623.6219 504.4581 -76.7718
v  -623.6219 -0.0000 -76.7717
v  623.6219 -0.0000 -76.7716
v  -623.6219 504.4581 -80.7088
v  -623.6219 -0.0000 -80.7087
v  623.6219 504.4581 -80.7087
v  623.6219 -0.0000 -80.7086
v  623.6219 504.4582 238.1889
v  -623.6219 504.4582 238.1889
v  -623.6219 0.0000 238.1889
v  623.6219 0.0000 238.1890
v  -623.6219 504.4581 234.2518
v  -623.6219 0.0000 234.2519
v  623.6219 504.4581 234.2520
v  623.6219 0.0000 234.2520
v  623.6219 504.4581 159.4488
v  -623.6219 504.4581 159.4487
v  -623.6219 0.0000 159.4488
v  623.6219 0.0000 159.4489
v  -623.6219 504.4581 155.5117
v  -623.6219 0.0000 155.5118
v  623.6219 504.4581 155.5118
v  623.6219 0.0000 155.5119
v  623.6219 504.4581 80.7086
v  -623.6219 504.4581 80.7085
v  -623.6219 0.0000 80.7086
v  623.6219 0.0000 80.7087
v  -623.6219 504.4581 76.7715
v  -623.6219 0.0000 76.7716
v  623.6219 504.4581 76.7716
v  623.6219 0.0000 76.7717
v  623.6219 504.4581 1.9685
v  -623.6219 504.4581 1.9684
v  -623.6219 0.0000 1.9685
v  623.6219 0.0000 1.9686
v  -623.6219 504.4581 -1.9686
v  -623.6219 -0.0000 -1.9686
v  623.6219 504.4581 -1.9685
v  623.6219 -0.0000 -1.9685
v  474.4095 504.4580 -348.0313
v  474.4094 504.4582 348.0314
v  474.4094 0.0001 348.0314
v  474.4095 -0.0001 -348.0313
v  470.4724 504.4582 348.0314
v  470.4724 0.0001 348.0314
v  470.4725 504.4580 -348.0313
v  470.4725 -0.0001 -348.0313
v  395.6693 504.4580 -348.0313
v  395.6693 504.4582 348.0314
v  395.6693 0.0001 348.0314
v  395.6693 -0.0001 -348.0313
v  391.7322 504.4582 348.0314
v  391.7322 0.0001 348.0314
v  391.7323 504.4580 -348.0313
v  391.7323 -0.0001 -348.0313
v  316.9292 504.4580 -348.0314
v  316.9291 504.4582 348.0313
v  316.9291 0.0001 348.0314
v  316.9292 -0.0001 -348.0313
v  312.9921 504.4582 348.0313
v  312.9921 0.0001 348.0314
v  312.9922 504.4580 -348.0314
v  312.9922 -0.0001 -348.0313
v  238.1890 504.4580 -348.0314
v  238.1889 504.4582 348.0313
v  238.1889 0.0001 348.0314
v  238.1890 -0.0001 -348.0313
v  234.2519 504.4582 348.0313
v  234.2519 0.0001 348.0314
v  234.2520 504.4580 -348.0314
v  234.2520 -0.0001 -348.0313
v  159.4489 504.4580 -348.0314
v  159.4488 504.4582 348.0313
v  159.4488 0.0001 348.0314
v  159.4489 -0.0001 -348.0313
v  155.5118 504.4582 348.0313
v  155.5118 0.0001 348.0314
v  155.5119 504.4580 -348.0314
v  155.5119 -0.0001 -348.0313
v  80.7087 504.4580 -348.0314
v  80.7086 504.4582 348.0313
v  80.7086 0.0001 348.0313
v  80.7087 -0.0001 -348.0313
v  76.7716 504.4582 348.0313
v  76.7716 0.0001 348.0313
v  76.7717 504.4580 -348.0314
v  76.7717 -0.0001 -348.0313
v  -470.4724 504.4580 -348.0315
v  -470.4725 504.4582 348.0312
v  -470.4725 0.0001 348.0313
v  -470.4724 -0.0001 -348.0314
v  -474.4095 504.4582 348.0312
v  -474.4095 0.0001 348.0313
v  -474.4094 504.4580 -348.0315
v  -474.4094 -0.0001 -348.0314
v  -391.7322 504.4580 -348.0315
v  -391.7323 504.4582 348.0312
v  -391.7323 0.0001 348.0313
v  -391.7322 -0.0001 -348.0314
v  -395.6693 504.4582 348.0312
v  -395.6693 0.0001 348.0313
v  -395.6693 504.4580 -348.0315
v  -395.6693 -0.0001 -348.0314
v  -312.9921 504.4580 -348.0314
v  -312.9922 504.4582 348.0313
v  -312.9922 0.0001 348.0313
v  -312.9921 -0.0001 -348.0314
v  -316.9292 504.4582 348.0313
v  -316.9292 0.0001 348.0313
v  -316.9291 504.4580 -348.0314
v  -316.9291 -0.0001 -348.0314
v  -234.2519 504.4580 -348.0314
v  -234.2520 504.4582 348.0313
v  -234.2520 0.0001 348.0313
v  -234.2519 -0.0001 -348.0314
v  -238.1890 504.4582 348.0313
v  -238.1890 0.0001 348.0313
v  -238.1889 504.4580 -348.0314
v  -238.1889 -0.0001 -348.0314
v  -155.5118 504.4580 -348.0314
v  -155.5119 504.4582 348.0313
v  -155.5119 0.0001 348.0313
v  -155.5118 -0.0001 -348.0314
v  -159.4489 504.4582 348.0313
v  -159.4489 0.0001 348.0313
v  -159.4488 504.4580 -348.0314
v  -159.4488 -0.0001 -348.0314
v  -76.7716 504.4580 -348.0314
v  -76.7717 504.4582 348.0313
v  -76.7717 0.0001 348.0313
v  -76.7716 -0.0001 -348.0313
v  -80.7087 504.4582 348.0313
v  -80.7087 0.0001 348.0313
v  -80.7086 504.4580 -348.0314
v  -80.7086 -0.0001 -348.0313
v  1.9686 504.4580 -348.0314
v  1.9685 504.4582 348.0313
v  1.9685 0.0001 348.0313
v  1.9686 -0.0001 -348.0313
v  -1.9686 504.4582 348.0313
v  -1.9686 0.0001 348.0313
v  -1.9685 504.4580 -348.0314
v  -1.9685 -0.0001 -348.0313
v  598.6577 497.1354 -358.2935
v  598.6577 536.5055 -358.2935
v  633.8840 536.5055 -323.0671
v  633.8840 497.1354 -323.0671
v  633.8840 497.1355 323.0673
v  633.8840 536.5056 323.0673
v  598.6577 536.5056 358.2936
v  598.6577 497.1355 358.2936
v  -598.6577 497.1355 358.2935
v  -598.6577 536.5056 358.2935
v  -633.8841 536.5056 323.0671
v  -633.8841 497.1355 323.0671
v  -633.8840 497.1354 -323.0674
v  -633.8840 536.5055 -323.0674
v  -598.6577 536.5055 -358.2937
v  -598.6577 497.1354 -358.2937
v  -602.4539 536.5056 297.0404
v  -602.4539 536.5055 -297.0406
v  -602.4539 524.6946 297.0404
v  -602.4539 524.6945 -297.0406
v  568.9741 536.5056 329.4290
v  -568.9742 536.5056 329.4289
v  602.4538 536.5055 -297.0405
v  602.4539 536.5056 297.0405
v  -568.9742 536.5055 -329.4291
v  568.9742 536.5055 -329.4289
v  602.4538 524.6945 -297.0405
v  568.9742 524.6945 -329.4289
v  -568.9742 524.6945 -329.4291
v  -568.9742 524.6946 329.4289
v  568.9741 524.6946 329.4290
v  602.4539 524.6946 297.0405
# 407 vertices

vn 0.7071 -0.0000 -0.7071
vn 0.7071 0.0000 0.7071
vn -0.7071 0.0000 0.7071
vn -0.7071 -0.0000 -0.7071
vn 0.0000 -0.0000 -1.0000
vn 1.0000 0.0000 0.0000
vn -0.0000 0.0000 1.0000
vn -1.0000 -0.0000 -0.0000
vn -0.0000 1.0000 -0.0000
vn 0.0000 1.0000 -0.0000
vn 0.0000 -1.0000 0.0000
vn -0.0000 -1.0000 0.0000
vn -1.0000 0.0000 -0.0000
vn 0.7071 0.0000 -0.7071
vn 0.7071 -0.0000 0.7071
vn -0.7071 -0.0000 0.7071
vn -0.7071 0.0000 -0.7071
vn 0.0000 0.0000 -1.0000
vn -0.0000 -0.0000 1.0000
vn 1.0000 0.0000 -0.0000
vn 0.0000 0.0000 1.0000
vn -1.0000 0.0000 0.0000
vn 0.6953 0.0000 0.7187
vn 0.6953 -0.0000 -0.7187
vn -0.6953 -0.0000 -0.7187
vn -0.6953 0.0000 0.7187
# 26 vertex normals

vt 0.3027 0.9179 0.0000
vt 0.3527 0.9179 0.0000
vt 0.3527 0.9679 0.0000
vt 0.3027 0.9679 0.0000
vt 0.3277 0.9679 0.0000
vt 0.3454 0.9606 0.0000
vt 0.3527 0.9429 0.0000
vt 0.3454 0.9253 0.0000
vt 0.3277 0.9179 0.0000
vt 0.3101 0.9253 0.0000
vt 0.3027 0.9429 0.0000
vt 0.3101 0.9606 0.0000
vt 0.3302 0.8572 0.0000
vt 0.3519 0.8447 0.0000
vt 0.3519 0.8197 0.0000
vt 0.3302 0.8072 0.0000
vt 0.3086 0.8197 0.0000
vt 0.3086 0.8447 0.0000
vt 0.3052 0.8072 0.0000
vt 0.3552 0.8072 0.0000
vt 0.3552 0.8572 0.0000
vt 0.3052 0.8572 0.0000
vt 0.3479 0.8499 0.0000
vt 0.3552 0.8322 0.0000
vt 0.3479 0.8145 0.0000
vt 0.3125 0.8145 0.0000
vt 0.3052 0.8322 0.0000
vt 0.3125 0.8499 0.0000
vt 0.3007 0.2248 0.0000
vt 0.3184 0.2175 0.0000
vt 0.3257 0.1998 0.0000
vt 0.3184 0.1821 0.0000
vt 0.3007 0.1748 0.0000
vt 0.2830 0.1821 0.0000
vt 0.2757 0.1998 0.0000
vt 0.2830 0.2175 0.0000
# 36 texture coords

g SPW_Urban_Bldg_10
usemtl SPW_Urban_Bldg_10
s off
f 1/1/1 2/2/1 3/3/1 4/4/1 
f 5/1/2 6/2/2 7/3/2 8/4/2 
f 9/1/3 10/2/3 11/3/3 12/4/3 
f 13/1/4 14/2/4 15/3/4 16/4/4 
f 13/1/5 16/2/5 3/3/5 2/4/5 
f 4/1/6 7/2/6 6/3/6 1/4/6 
f 5/1/7 8/2/7 11/3/7 10/4/7 
f 9/1/8 12/2/8 15/3/8 14/4/8 
f 4/5/9 3/6/9 16/7/9 15/8/9 
f 4/5/10 15/8/10 12/9/10 11/10/10 
f 4/5/9 11/10/9 8/11/9 7/12/9 
f 1/5/11 6/6/11 5/7/11 10/8/11 
f 1/5/12 10/8/12 9/9/12 14/10/12 
f 1/5/11 14/10/11 13/11/11 2/12/11 
f 17/1/1 18/2/1 19/3/1 20/4/1 
f 21/1/2 22/2/2 23/3/2 24/4/2 
f 25/1/3 26/2/3 27/3/3 28/4/3 
f 29/1/4 30/2/4 31/3/4 32/4/4 
f 29/1/5 32/2/5 19/3/5 18/4/5 
f 20/1/6 23/2/6 22/3/6 17/4/6 
f 21/1/7 24/2/7 27/3/7 26/4/7 
f 25/1/8 28/2/8 31/3/8 30/4/8 
f 20/5/10 19/6/10 32/7/10 31/8/10 
f 20/5/9 31/8/9 28/9/9 27/10/9 
f 20/5/10 27/10/10 24/11/10 23/12/10 
f 17/5/11 22/6/11 21/7/11 26/8/11 
f 17/5/12 26/8/12 25/9/12 30/10/12 
f 17/5/11 30/10/11 29/11/11 18/12/11 
f 33/1/1 34/2/1 35/3/1 36/4/1 
f 37/1/2 38/2/2 39/3/2 40/4/2 
f 41/1/3 42/2/3 43/3/3 44/4/3 
f 45/1/4 46/2/4 47/3/4 48/4/4 
f 45/1/5 48/2/5 35/3/5 34/4/5 
f 36/1/6 39/2/6 38/3/6 33/4/6 
f 37/1/7 40/2/7 43/3/7 42/4/7 
f 41/1/13 44/2/13 47/3/13 46/4/13 
f 36/5/10 35/6/10 48/7/10 47/8/10 
f 36/5/9 47/8/9 44/9/9 43/10/9 
f 36/5/10 43/10/10 40/11/10 39/12/10 
f 33/5/12 38/6/12 37/7/12 42/8/12 
f 33/5/11 42/8/11 41/9/11 46/10/11 
f 33/5/11 46/10/11 45/11/11 34/12/11 
f 49/1/1 50/2/1 51/3/1 52/4/1 
f 53/1/2 54/2/2 55/3/2 56/4/2 
f 57/1/3 58/2/3 59/3/3 60/4/3 
f 61/1/4 62/2/4 63/3/4 64/4/4 
f 61/1/5 64/2/5 51/3/5 50/4/5 
f 52/1/6 55/2/6 54/3/6 49/4/6 
f 53/1/7 56/2/7 59/3/7 58/4/7 
f 57/1/8 60/2/8 63/3/8 62/4/8 
f 52/5/10 51/6/10 64/7/10 63/8/10 
f 52/5/10 63/8/10 60/9/10 59/10/10 
f 52/5/10 59/10/10 56/11/10 55/12/10 
f 49/5/12 54/6/12 53/7/12 58/8/12 
f 49/5/11 58/8/11 57/9/11 62/10/11 
f 49/5/11 62/10/11 61/11/11 50/12/11 
f 65/1/1 66/2/1 67/3/1 68/4/1 
f 69/1/2 70/2/2 71/3/2 72/4/2 
f 73/1/3 74/2/3 75/3/3 76/4/3 
f 77/1/4 78/2/4 79/3/4 80/4/4 
f 77/1/5 80/2/5 67/3/5 66/4/5 
f 68/1/6 71/2/6 70/3/6 65/4/6 
f 69/1/7 72/2/7 75/3/7 74/4/7 
f 73/1/8 76/2/8 79/3/8 78/4/8 
f 68/5/10 67/6/10 80/7/10 79/8/10 
f 68/5/10 79/8/10 76/9/10 75/10/10 
f 68/5/10 75/10/10 72/11/10 71/12/10 
f 65/5/11 70/6/11 69/7/11 74/8/11 
f 65/5/11 74/8/11 73/9/11 78/10/11 
f 65/5/11 78/10/11 77/11/11 66/12/11 
f 81/1/14 82/2/14 83/3/14 84/4/14 
f 85/1/15 86/2/15 87/3/15 88/4/15 
f 89/1/16 90/2/16 91/3/16 92/4/16 
f 93/1/17 94/2/17 95/3/17 96/4/17 
f 93/1/18 96/2/18 83/3/18 82/4/18 
f 84/1/6 87/2/6 86/3/6 81/4/6 
f 85/1/19 88/2/19 91/3/19 90/4/19 
f 89/1/8 92/2/8 95/3/8 94/4/8 
f 84/5/10 83/6/10 96/7/10 95/8/10 
f 84/5/10 95/8/10 92/9/10 91/10/10 
f 84/5/10 91/10/10 88/11/10 87/12/10 
f 81/5/11 86/6/11 85/7/11 90/8/11 
f 81/5/11 90/8/11 89/9/11 94/10/11 
f 81/5/11 94/10/11 93/11/11 82/12/11 
f 97/13/10 98/14/10 99/15/10 100/16/10 
f 97/13/10 100/16/10 101/17/10 102/18/10 
f 103/19/3 98/20/3 97/21/3 104/22/3 
f 104/19/4 97/20/4 102/21/4 105/22/4 
f 105/19/5 102/20/5 101/21/5 106/22/5 
f 106/19/1 101/20/1 100/21/1 107/22/1 
f 103/13/12 104/14/12 105/15/12 106/16/12 
f 103/13/11 106/16/11 107/17/11 108/18/11 
f 108/19/2 99/20/2 98/21/2 103/22/2 
f 107/19/20 100/20/20 99/21/20 108/22/20 
f 109/13/10 110/14/10 111/15/10 112/16/10 
f 109/13/10 112/16/10 113/17/10 114/18/10 
f 115/19/4 110/20/4 109/21/4 116/22/4 
f 116/19/1 109/20/1 114/21/1 117/22/1 
f 117/19/20 114/20/20 113/21/20 118/22/20 
f 118/19/2 113/20/2 112/21/2 119/22/2 
f 115/13/11 116/14/11 117/15/11 118/16/11 
f 115/13/11 118/16/11 119/17/11 120/18/11 
f 120/19/3 111/20/3 110/21/3 115/22/3 
f 119/19/21 112/20/21 111/21/21 120/22/21 
f 121/13/10 122/14/10 123/15/10 124/16/10 
f 121/13/10 124/16/10 125/17/10 126/18/10 
f 127/19/1 122/20/1 121/21/1 128/22/1 
f 128/19/2 121/20/2 126/21/2 129/22/2 
f 129/19/21 126/20/21 125/21/21 130/22/21 
f 130/19/3 125/20/3 124/21/3 131/22/3 
f 127/13/11 128/14/11 129/15/11 130/16/11 
f 127/13/11 130/16/11 131/17/11 132/18/11 
f 132/19/4 123/20/4 122/21/4 127/22/4 
f 131/19/13 124/20/13 123/21/13 132/22/13 
f 133/13/10 134/14/10 135/15/10 136/16/10 
f 133/13/10 136/16/10 137/17/10 138/18/10 
f 139/19/2 134/20/2 133/21/2 140/22/2 
f 140/19/3 133/20/3 138/21/3 141/22/3 
f 141/19/13 138/20/13 137/21/13 142/22/13 
f 142/19/4 137/20/4 136/21/4 143/22/4 
f 139/13/11 140/14/11 141/15/11 142/16/11 
f 139/13/11 142/16/11 143/17/11 144/18/11 
f 144/19/1 135/20/1 134/21/1 139/22/1 
f 143/19/5 136/20/5 135/21/5 144/22/5 
f 103/19/1 145/20/1 146/21/1 1/22/1 
f 147/19/2 148/20/2 149/21/2 150/22/2 
f 151/19/3 128/20/3 10/21/3 9/22/3 
f 139/19/4 152/20/4 14/21/4 153/22/4 
f 139/19/5 153/20/5 146/21/5 145/22/5 
f 1/19/6 149/20/6 148/21/6 103/22/6 
f 147/19/7 150/20/7 10/21/7 128/22/7 
f 151/19/8 9/20/8 14/21/8 152/22/8 
f 1/13/9 146/23/9 153/24/9 14/25/9 
f 1/13/10 14/25/10 9/16/10 10/26/10 
f 1/13/9 10/26/9 150/27/9 149/28/9 
f 103/13/11 148/23/11 147/24/11 128/25/11 
f 103/13/11 128/25/11 151/16/11 152/26/11 
f 103/13/11 152/26/11 139/27/11 145/28/11 
f 4/19/1 3/20/1 18/21/1 17/22/1 
f 154/19/2 7/20/2 22/21/2 155/22/2 
f 12/19/3 11/20/3 26/21/3 25/22/3 
f 156/19/4 15/20/4 30/21/4 157/22/4 
f 156/19/5 157/20/5 18/21/5 3/22/5 
f 17/19/6 22/20/6 7/21/6 4/22/6 
f 154/19/7 155/20/7 26/21/7 11/22/7 
f 12/19/8 25/20/8 30/21/8 15/22/8 
f 17/13/9 18/23/9 157/24/9 30/25/9 
f 17/13/10 30/25/10 25/16/10 26/26/10 
f 17/13/9 26/26/9 155/27/9 22/28/9 
f 4/13/11 7/23/11 154/24/11 11/25/11 
f 4/13/12 11/25/12 12/16/12 15/26/12 
f 4/13/11 15/26/11 156/27/11 3/28/11 
f 20/19/1 19/20/1 34/21/1 33/22/1 
f 158/19/2 23/20/2 38/21/2 159/22/2 
f 28/19/3 27/20/3 42/21/3 41/22/3 
f 160/19/4 31/20/4 46/21/4 161/22/4 
f 160/19/5 161/20/5 34/21/5 19/22/5 
f 33/19/6 38/20/6 23/21/6 20/22/6 
f 158/19/7 159/20/7 42/21/7 27/22/7 
f 28/19/8 41/20/8 46/21/8 31/22/8 
f 33/13/10 34/23/10 161/24/10 46/25/10 
f 33/13/9 46/25/9 41/16/9 42/26/9 
f 33/13/10 42/26/10 159/27/10 38/28/10 
f 20/13/12 23/23/12 158/24/12 27/25/12 
f 20/13/11 27/25/11 28/16/11 31/26/11 
f 20/13/11 31/26/11 160/27/11 19/28/11 
f 162/19/1 163/20/1 164/21/1 165/22/1 
f 166/19/2 167/20/2 168/21/2 169/22/2 
f 170/19/3 171/20/3 172/21/3 173/22/3 
f 174/19/4 175/20/4 176/21/4 177/22/4 
f 174/19/5 177/20/5 164/21/5 163/22/5 
f 165/19/6 168/20/6 167/21/6 162/22/6 
f 166/19/7 169/20/7 172/21/7 171/22/7 
f 170/19/8 173/20/8 176/21/8 175/22/8 
f 165/13/10 164/23/10 177/24/10 176/25/10 
f 165/13/9 176/25/9 173/16/9 172/26/9 
f 165/13/10 172/26/10 169/27/10 168/28/10 
f 162/13/12 167/23/12 166/24/12 171/25/12 
f 162/13/11 171/25/11 170/16/11 175/26/11 
f 162/13/11 175/26/11 174/27/11 163/28/11 
f 52/19/1 178/20/1 179/21/1 65/22/1 
f 180/19/2 55/20/2 70/21/2 181/22/2 
f 60/19/3 182/20/3 183/21/3 73/22/3 
f 184/19/4 63/20/4 78/21/4 185/22/4 
f 184/19/5 185/20/5 179/21/5 178/22/5 
f 65/19/6 70/20/6 55/21/6 52/22/6 
f 180/19/7 181/20/7 183/21/7 182/22/7 
f 60/19/8 73/20/8 78/21/8 63/22/8 
f 65/13/10 179/23/10 185/24/10 78/25/10 
f 65/13/10 78/25/10 73/16/10 183/26/10 
f 65/13/10 183/26/10 181/27/10 70/28/10 
f 52/13/11 55/23/11 180/24/11 182/25/11 
f 52/13/11 182/25/11 60/16/11 63/26/11 
f 52/13/11 63/26/11 184/27/11 178/28/11 
f 186/19/1 187/20/1 188/21/1 189/22/1 
f 190/19/2 71/20/2 191/21/2 192/22/2 
f 193/19/3 75/20/3 194/21/3 195/22/3 
f 196/19/4 197/20/4 198/21/4 199/22/4 
f 196/19/5 199/20/5 188/21/5 187/22/5 
f 189/19/6 191/20/6 71/21/6 186/22/6 
f 190/19/7 192/20/7 194/21/7 75/22/7 
f 193/19/8 195/20/8 198/21/8 197/22/8 
f 189/13/10 188/23/10 199/24/10 198/25/10 
f 189/13/10 198/25/10 195/16/10 194/26/10 
f 189/13/10 194/26/10 192/27/10 191/28/10 
f 186/13/11 71/23/11 190/24/11 75/25/11 
f 186/13/11 75/25/11 193/16/11 197/26/11 
f 186/13/11 197/26/11 196/27/11 187/28/11 
f 200/19/1 201/20/1 202/21/1 203/22/1 
f 204/19/2 205/20/2 206/21/2 207/22/2 
f 208/19/3 209/20/3 210/21/3 211/22/3 
f 212/19/4 213/20/4 214/21/4 215/22/4 
f 212/19/5 215/20/5 202/21/5 201/22/5 
f 203/19/6 206/20/6 205/21/6 200/22/6 
f 204/19/7 207/20/7 210/21/7 209/22/7 
f 208/19/8 211/20/8 214/21/8 213/22/8 
f 203/13/10 202/23/10 215/24/10 214/25/10 
f 203/13/10 214/25/10 211/16/10 210/26/10 
f 203/13/10 210/26/10 207/27/10 206/28/10 
f 200/13/11 205/23/11 204/24/11 209/25/11 
f 200/13/11 209/25/11 208/16/11 213/26/11 
f 200/13/11 213/26/11 212/27/11 201/28/11 
f 216/19/7 217/20/7 218/21/7 219/22/7 
f 217/19/13 220/20/13 221/21/13 218/22/13 
f 220/19/5 222/20/5 223/21/5 221/22/5 
f 222/19/20 216/20/20 219/21/20 223/22/20 
f 219/19/11 218/20/11 221/21/11 223/22/11 
f 222/19/10 220/20/10 217/21/10 216/22/10 
f 224/19/7 225/20/7 226/21/7 227/22/7 
f 225/19/13 228/20/13 229/21/13 226/22/13 
f 228/19/5 230/20/5 231/21/5 229/22/5 
f 230/19/20 224/20/20 227/21/20 231/22/20 
f 227/19/11 226/20/11 229/21/11 231/22/11 
f 230/19/10 228/20/10 225/21/10 224/22/10 
f 232/19/7 233/20/7 234/21/7 235/22/7 
f 233/19/13 236/20/13 237/21/13 234/22/13 
f 236/19/5 238/20/5 239/21/5 237/22/5 
f 238/19/20 232/20/20 235/21/20 239/22/20 
f 235/19/11 234/20/11 237/21/11 239/22/11 
f 238/19/10 236/20/10 233/21/10 232/22/10 
f 240/19/7 241/20/7 242/21/7 243/22/7 
f 241/19/13 244/20/13 245/21/13 242/22/13 
f 244/19/5 246/20/5 247/21/5 245/22/5 
f 246/19/20 240/20/20 243/21/20 247/22/20 
f 243/19/11 242/20/11 245/21/11 247/22/11 
f 246/19/10 244/20/10 241/21/10 240/22/10 
f 248/19/7 249/20/7 250/21/7 251/22/7 
f 249/19/13 252/20/13 253/21/13 250/22/13 
f 252/19/5 254/20/5 255/21/5 253/22/5 
f 254/19/20 248/20/20 251/21/20 255/22/20 
f 251/19/11 250/20/11 253/21/11 255/22/11 
f 254/19/10 252/20/10 249/21/10 248/22/10 
f 256/19/7 257/20/7 258/21/7 259/22/7 
f 257/19/13 260/20/13 261/21/13 258/22/13 
f 260/19/5 262/20/5 263/21/5 261/22/5 
f 262/19/20 256/20/20 259/21/20 263/22/20 
f 259/19/11 258/20/11 261/21/11 263/22/11 
f 262/19/10 260/20/10 257/21/10 256/22/10 
f 264/19/7 265/20/7 266/21/7 267/22/7 
f 265/19/13 268/20/13 269/21/13 266/22/13 
f 268/19/5 270/20/5 271/21/5 269/22/5 
f 270/19/20 264/20/20 267/21/20 271/22/20 
f 267/19/11 266/20/11 269/21/11 271/22/11 
f 270/19/10 268/20/10 265/21/10 264/22/10 
f 272/19/6 273/20/6 274/21/6 275/22/6 
f 273/19/21 276/20/21 277/21/21 274/22/21 
f 276/19/8 278/20/8 279/21/8 277/22/8 
f 278/19/5 272/20/5 275/21/5 279/22/5 
f 275/19/11 274/20/11 277/21/11 279/22/11 
f 278/19/10 276/20/10 273/21/10 272/22/10 
f 280/19/6 281/20/6 282/21/6 283/22/6 
f 281/19/21 284/20/21 285/21/21 282/22/21 
f 284/19/8 286/20/8 287/21/8 285/22/8 
f 286/19/5 280/20/5 283/21/5 287/22/5 
f 283/19/11 282/20/11 285/21/11 287/22/11 
f 286/19/10 284/20/10 281/21/10 280/22/10 
f 288/19/6 289/20/6 290/21/6 291/22/6 
f 289/19/21 292/20/21 293/21/21 290/22/21 
f 292/19/8 294/20/8 295/21/8 293/22/8 
f 294/19/5 288/20/5 291/21/5 295/22/5 
f 291/19/11 290/20/11 293/21/11 295/22/11 
f 294/19/10 292/20/10 289/21/10 288/22/10 
f 296/19/6 297/20/6 298/21/6 299/22/6 
f 297/19/21 300/20/21 301/21/21 298/22/21 
f 300/19/8 302/20/8 303/21/8 301/22/8 
f 302/19/5 296/20/5 299/21/5 303/22/5 
f 299/19/11 298/20/11 301/21/11 303/22/11 
f 302/19/10 300/20/10 297/21/10 296/22/10 
f 304/19/6 305/20/6 306/21/6 307/22/6 
f 305/19/21 308/20/21 309/21/21 306/22/21 
f 308/19/8 310/20/8 311/21/8 309/22/8 
f 310/19/5 304/20/5 307/21/5 311/22/5 
f 307/19/11 306/20/11 309/21/11 311/22/11 
f 310/19/10 308/20/10 305/21/10 304/22/10 
f 312/19/6 313/20/6 314/21/6 315/22/6 
f 313/19/21 316/20/21 317/21/21 314/22/21 
f 316/19/8 318/20/8 319/21/8 317/22/8 
f 318/19/5 312/20/5 315/21/5 319/22/5 
f 315/19/11 314/20/11 317/21/11 319/22/11 
f 318/19/10 316/20/10 313/21/10 312/22/10 
f 320/19/6 321/20/6 322/21/6 323/22/6 
f 321/19/21 324/20/21 325/21/21 322/22/21 
f 324/19/8 326/20/8 327/21/8 325/22/8 
f 326/19/5 320/20/5 323/21/5 327/22/5 
f 323/19/11 322/20/11 325/21/11 327/22/11 
f 326/19/10 324/20/10 321/21/10 320/22/10 
f 328/19/6 329/20/6 330/21/6 331/22/6 
f 329/19/21 332/20/21 333/21/21 330/22/21 
f 332/19/8 334/20/8 335/21/8 333/22/8 
f 334/19/5 328/20/5 331/21/5 335/22/5 
f 331/19/11 330/20/11 333/21/11 335/22/11 
f 334/19/10 332/20/10 329/21/10 328/22/10 
f 336/19/6 337/20/6 338/21/6 339/22/6 
f 337/19/21 340/20/21 341/21/21 338/22/21 
f 340/19/8 342/20/8 343/21/8 341/22/8 
f 342/19/5 336/20/5 339/21/5 343/22/5 
f 339/19/11 338/20/11 341/21/11 343/22/11 
f 342/19/10 340/20/10 337/21/10 336/22/10 
f 344/19/6 345/20/6 346/21/6 347/22/6 
f 345/19/21 348/20/21 349/21/21 346/22/21 
f 348/19/8 350/20/8 351/21/8 349/22/8 
f 350/19/5 344/20/5 347/21/5 351/22/5 
f 347/19/11 346/20/11 349/21/11 351/22/11 
f 350/19/10 348/20/10 345/21/10 344/22/10 
f 352/19/6 353/20/6 354/21/6 355/22/6 
f 353/19/21 356/20/21 357/21/21 354/22/21 
f 356/19/8 358/20/8 359/21/8 357/22/8 
f 358/19/5 352/20/5 355/21/5 359/22/5 
f 355/19/11 354/20/11 357/21/11 359/22/11 
f 358/19/10 356/20/10 353/21/10 352/22/10 
f 360/19/6 361/20/6 362/21/6 363/22/6 
f 361/19/21 364/20/21 365/21/21 362/22/21 
f 364/19/8 366/20/8 367/21/8 365/22/8 
f 366/19/5 360/20/5 363/21/5 367/22/5 
f 363/19/11 362/20/11 365/21/11 367/22/11 
f 366/19/10 364/20/10 361/21/10 360/22/10 
f 368/19/6 369/20/6 370/21/6 371/22/6 
f 369/19/21 372/20/21 373/21/21 370/22/21 
f 372/19/8 374/20/8 375/21/8 373/22/8 
f 374/19/5 368/20/5 371/21/5 375/22/5 
f 371/19/11 370/20/11 373/21/11 375/22/11 
f 374/19/10 372/20/10 369/21/10 368/22/10 
f 376/19/1 377/20/1 378/21/1 379/22/1 
f 380/19/2 381/20/2 382/21/2 383/22/2 
f 384/19/3 385/20/3 386/21/3 387/22/3 
f 388/19/4 389/20/4 390/21/4 391/22/4 
f 390/19/5 377/20/5 376/21/5 391/22/5 
f 381/19/6 380/20/6 379/21/6 378/22/6 
f 382/19/7 385/20/7 384/21/7 383/22/7 
f 386/19/8 389/20/8 388/21/8 387/22/8 
s 1
f 389/19/10 386/20/10 392/21/10 393/22/10 
s off
f 376/13/11 379/23/11 380/24/11 383/25/11 
f 376/13/11 383/25/11 384/16/11 387/26/11 
f 376/13/11 387/26/11 388/27/11 391/28/11 
f 393/19/6 392/20/6 394/21/6 395/22/6 
s 1
f 385/19/10 382/20/10 396/21/10 397/22/10 
f 381/19/10 378/20/10 398/21/10 399/22/10 
f 377/19/10 390/20/10 400/21/10 401/22/10 
f 390/19/10 389/20/10 393/21/10 400/22/10 
f 386/19/10 385/20/10 397/21/10 392/22/10 
f 382/19/10 381/20/10 399/21/10 396/22/10 
f 378/19/10 377/20/10 401/21/10 398/22/10 
s off
f 402/29/10 403/30/10 404/31/10 395/32/10 
f 402/29/10 395/32/10 394/33/10 405/34/10 
f 402/29/10 405/34/10 406/35/10 407/36/10 
f 397/19/5 396/20/5 406/21/5 405/22/5 
f 399/19/22 398/20/22 402/21/22 407/22/22 
f 401/19/7 400/20/7 404/21/7 403/22/7 
f 400/19/23 393/20/23 395/21/23 404/22/23 
f 392/19/24 397/20/24 405/21/24 394/22/24 
f 396/19/25 399/20/25 407/21/25 406/22/25 
f 398/19/26 401/20/26 403/21/26 402/22/26 
# 372 polygons

