# 3ds Max Wavefront OBJ Exporter v0.97b - (c)2007 guruware
# File Created: 15.03.2017 10:45:31

mtllib SPW_Urban_Bldg_Shop_02.mtl

#
# object SPW_Urban_Bldg_Shop_02
#

v  154.8630 60.6700 -191.9132
v  154.8630 60.6700 -176.1652
v  154.8630 41.0418 -176.1651
v  154.8630 52.7960 -191.9132
v  95.8078 60.6700 -176.1652
v  95.8078 41.0418 -176.1651
v  95.8078 60.6700 -191.9132
v  95.8078 52.7960 -191.9132
v  29.5276 60.6699 -191.9132
v  29.5276 60.6700 -176.1652
v  29.5276 41.0417 -176.1652
v  29.5276 52.7959 -191.9132
v  -29.5275 60.6700 -176.1652
v  -29.5275 41.0417 -176.1652
v  -29.5275 60.6699 -191.9132
v  -29.5275 52.7959 -191.9132
v  204.7244 204.5564 -188.9764
v  204.7244 204.5565 188.9764
v  204.7244 188.8084 188.9764
v  204.7244 188.8083 -188.9764
v  -204.7244 204.5565 188.9763
v  -204.7244 188.8084 188.9763
v  -204.7244 204.5564 -188.9765
v  -204.7244 188.8083 -188.9765
v  154.8630 259.3898 -191.9132
v  154.8630 259.3898 -176.1651
v  154.8630 239.7616 -176.1651
v  154.8630 251.5158 -191.9132
v  95.8078 259.3898 -176.1651
v  95.8078 239.7616 -176.1651
v  95.8078 259.3898 -191.9132
v  95.8078 251.5158 -191.9132
v  -96.2338 259.3898 -191.9132
v  -96.2338 259.3898 -176.1652
v  -96.2338 239.7616 -176.1652
v  -96.2338 251.5158 -191.9132
v  -155.2890 259.3898 -176.1652
v  -155.2890 239.7616 -176.1652
v  -155.2890 259.3898 -191.9132
v  -155.2890 251.5158 -191.9132
v  29.5276 259.3897 -191.9132
v  29.5276 259.3897 -176.1652
v  29.5276 239.7616 -176.1652
v  29.5276 251.5157 -191.9132
v  -29.5275 259.3897 -176.1652
v  -29.5275 239.7616 -176.1652
v  -29.5275 259.3897 -191.9132
v  -29.5275 251.5157 -191.9132
v  -76.2299 8.3661 -225.0759
v  -76.2299 8.3662 -124.6822
v  -76.2299 -0.0000 -124.6822
v  -76.2299 -0.0000 -225.0759
v  -176.6236 8.3662 -124.6822
v  -176.6236 -0.0000 -124.6822
v  -176.6236 8.3661 -225.0759
v  -176.6236 -0.0000 -225.0759
v  -92.9621 25.0984 -208.3437
v  -92.9622 25.0984 -141.4145
v  -92.9622 16.7323 -141.4145
v  -92.9621 16.7323 -208.3437
v  -159.8913 25.0984 -141.4145
v  -159.8913 16.7323 -141.4145
v  -159.8913 25.0984 -208.3437
v  -159.8913 16.7323 -208.3437
v  -84.5960 16.7322 -216.7098
v  -84.5960 16.7323 -133.0483
v  -84.5960 8.3661 -133.0483
v  -84.5960 8.3661 -216.7098
v  -168.2574 16.7323 -133.0484
v  -168.2574 8.3661 -133.0484
v  -168.2574 16.7322 -216.7098
v  -168.2574 8.3661 -216.7098
v  204.1339 25.0984 -187.4016
v  204.1338 25.0985 187.4016
v  204.1338 0.0000 187.4016
v  204.1339 -0.0001 -187.4016
v  -204.1339 25.0985 187.4016
v  -204.1339 0.0000 187.4016
v  -204.1338 25.0984 -187.4016
v  -204.1338 -0.0001 -187.4016
v  150.5906 343.0118 -185.1676
v  150.5906 343.0118 -178.1439
v  150.5906 259.3504 -178.1438
v  150.5906 259.3504 -185.1676
v  100.3937 343.0118 -178.1439
v  100.3937 259.3504 -178.1438
v  100.3937 343.0118 -185.1676
v  100.3937 259.3504 -185.1676
v  103.7518 262.6510 -185.1676
v  147.2325 262.6510 -185.1676
v  103.7518 262.6510 -184.3860
v  147.2325 262.6510 -184.3860
v  147.2325 339.7112 -185.1676
v  103.7518 339.7112 -185.1676
v  103.7518 339.7112 -184.3860
v  147.2325 339.7112 -184.3860
v  -100.3937 343.0118 -185.1676
v  -100.3937 343.0118 -178.1439
v  -100.3937 259.3504 -178.1439
v  -100.3937 259.3504 -185.1676
v  -150.5905 343.0118 -178.1439
v  -150.5905 259.3504 -178.1439
v  -150.5905 343.0118 -185.1676
v  -150.5905 259.3504 -185.1676
v  -147.2325 262.6510 -185.1676
v  -103.7517 262.6510 -185.1676
v  -147.2325 262.6510 -184.3860
v  -103.7517 262.6510 -184.3860
v  -103.7517 339.7112 -185.1676
v  -147.2325 339.7112 -185.1676
v  -147.2325 339.7112 -184.3861
v  -103.7517 339.7112 -184.3861
v  -92.9621 142.2244 -185.1709
v  -92.9621 142.2244 -177.2768
v  -92.9621 25.0984 -177.2767
v  -92.9621 25.0984 -185.1708
v  -159.8913 142.2244 -177.2768
v  -159.8913 25.0984 -177.2767
v  -159.8913 142.2244 -185.1709
v  -159.8913 25.0984 -185.1708
v  -156.5093 28.4451 -185.1708
v  -96.3442 28.4451 -185.1708
v  -156.5093 28.4451 -184.4333
v  -96.3442 28.4451 -184.4333
v  -96.3442 138.8777 -185.1709
v  -156.5093 138.8777 -185.1709
v  -156.5093 138.8777 -184.4333
v  -96.3442 138.8777 -184.4333
v  200.7874 199.0286 -184.0552
v  200.7874 199.0288 184.0551
v  200.7874 25.0985 184.0552
v  200.7874 25.0984 -184.0551
v  -200.7874 199.0288 184.0550
v  -200.7874 25.0985 184.0551
v  -200.7874 199.0287 -184.0553
v  -200.7874 25.0984 -184.0552
v  200.7874 372.7380 -184.0552
v  -200.7874 372.7380 -184.0553
v  -204.1625 372.7380 -187.3793
v  204.1626 372.7380 -187.3793
v  -204.1625 390.6113 -187.3793
v  204.1626 390.6113 -187.3793
v  -200.7874 372.7381 184.0550
v  -204.1626 372.7381 187.3790
v  200.7874 372.7381 184.0551
v  204.1625 372.7381 187.3791
v  -187.2508 390.6113 -170.6050
v  187.2508 390.6113 -170.6050
v  -204.1626 390.6115 187.3790
v  204.1625 390.6115 187.3791
v  -187.2508 381.1347 -170.6050
v  187.2508 381.1347 -170.6050
v  -187.2508 390.6115 170.6047
v  187.2507 390.6115 170.6048
v  -187.2508 381.1348 170.6047
v  187.2507 381.1348 170.6048
v  -21.7389 262.6510 -185.1676
v  -21.7389 339.7112 -185.1676
v  -21.7389 339.7112 -184.3860
v  -21.7389 262.6510 -184.3860
v  21.7418 339.7112 -185.1676
v  21.7418 339.7112 -184.3860
v  -25.0970 259.3504 -185.1676
v  -25.0970 343.0118 -185.1676
v  25.0999 343.0118 -185.1676
v  25.0999 259.3504 -185.1676
v  21.7418 262.6510 -185.1676
v  21.7418 262.6510 -184.3860
v  -25.0970 343.0118 -178.1439
v  25.0999 343.0118 -178.1439
v  -25.0970 259.3504 -178.1439
v  25.0999 259.3504 -178.1439
v  200.7874 208.6212 -184.0552
v  -200.7874 208.6212 -184.0553
v  -200.7874 208.6213 184.0550
v  200.7874 208.6213 184.0551
v  150.5906 144.2454 -185.1676
v  150.5906 144.2454 -178.1439
v  150.5906 60.5840 -178.1438
v  150.5906 60.5840 -185.1676
v  100.3937 144.2454 -178.1439
v  100.3937 60.5840 -178.1438
v  100.3937 144.2454 -185.1676
v  100.3937 60.5840 -185.1676
v  103.7518 63.8846 -185.1676
v  147.2325 63.8846 -185.1676
v  103.7518 63.8846 -184.3860
v  147.2325 63.8846 -184.3860
v  147.2325 140.9449 -185.1676
v  103.7518 140.9449 -185.1676
v  103.7518 140.9449 -184.3860
v  147.2325 140.9449 -184.3860
v  -21.7389 63.8846 -185.1676
v  -21.7389 140.9449 -185.1676
v  -21.7389 140.9449 -184.3860
v  -21.7389 63.8846 -184.3860
v  21.7418 140.9449 -185.1676
v  21.7418 140.9449 -184.3860
v  -25.0970 60.5840 -185.1676
v  -25.0970 144.2454 -185.1676
v  25.0999 144.2454 -185.1676
v  25.0999 60.5840 -185.1676
v  21.7418 63.8846 -185.1676
v  21.7418 63.8846 -184.3860
v  -25.0970 144.2454 -178.1439
v  25.0999 144.2454 -178.1439
v  -25.0970 60.5840 -178.1439
v  25.0999 60.5840 -178.1439
# 208 vertices

vn 1.0000 0.0000 -0.0000
vn 0.0000 0.0000 1.0000
vn -1.0000 0.0000 -0.0000
vn 0.0000 -0.0000 -1.0000
vn 0.0000 -0.8014 -0.5981
vn 0.0000 1.0000 -0.0000
vn 1.0000 0.0000 0.0000
vn -1.0000 -0.0000 -0.0000
vn -0.0000 0.0000 1.0000
vn -0.0000 -1.0000 0.0000
vn 0.0000 -1.0000 0.0000
vn -0.0000 1.0000 -0.0000
vn -0.0000 -0.0000 -1.0000
# 13 vertex normals

vt 0.2880 0.8072 0.0000
vt 0.3380 0.8072 0.0000
vt 0.3380 0.8572 0.0000
vt 0.2880 0.8572 0.0000
vt 0.2978 0.8047 0.0000
vt 0.3478 0.8047 0.0000
vt 0.3478 0.8547 0.0000
vt 0.2978 0.8547 0.0000
vt 0.4595 0.9091 0.0000
vt 0.5095 0.9091 0.0000
vt 0.5095 0.9591 0.0000
vt 0.4595 0.9591 0.0000
vt 0.7447 0.8253 0.0000
vt 0.7947 0.8253 0.0000
vt 0.7947 0.8753 0.0000
vt 0.7447 0.8753 0.0000
vt 0.1681 0.2053 0.0000
vt 0.2181 0.2053 0.0000
vt 0.2181 0.2553 0.0000
vt 0.1681 0.2553 0.0000
vt 0.7774 0.2154 0.0000
vt 0.6638 0.2154 0.0000
vt 0.6638 0.0140 0.0000
vt 0.7774 0.0140 0.0000
vt 0.9822 0.2851 0.0000
vt 0.8337 0.2851 0.0000
vt 0.8337 0.0125 0.0000
vt 0.9822 0.0125 0.0000
vt 0.4223 0.5032 0.0000
vt 0.4723 0.5032 0.0000
vt 0.4723 0.5157 0.0000
vt 0.4223 0.5157 0.0000
vt 0.4750 0.4750 0.0000
vt 0.5250 0.4750 0.0000
vt 0.5250 0.5250 0.0000
vt 0.4750 0.5250 0.0000
vt 0.4533 0.8222 0.0000
vt 0.5033 0.8222 0.0000
vt 0.5033 0.8722 0.0000
vt 0.4533 0.8722 0.0000
vt 0.4347 0.9091 0.0000
vt 0.4847 0.9091 0.0000
vt 0.4847 0.9591 0.0000
vt 0.4347 0.9591 0.0000
vt 0.0564 0.4037 0.0000
vt 0.1064 0.4037 0.0000
vt 0.1064 0.4287 0.0000
vt 0.0564 0.4287 0.0000
vt 0.8594 0.8131 0.0000
vt 0.9094 0.8131 0.0000
vt 0.9094 0.8256 0.0000
vt 0.8594 0.8256 0.0000
# 52 texture coords

g SPW_Urban_Bldg_Shop_02
usemtl SPW_Urban_Bldg_Shop
s off
f 1/1/1 2/2/1 3/3/1 4/4/1 
f 2/1/2 5/2/2 6/3/2 3/4/2 
f 5/1/3 7/2/3 8/3/3 6/4/3 
f 7/1/4 1/2/4 4/3/4 8/4/4 
f 4/1/5 3/2/5 6/3/5 8/4/5 
f 7/1/6 5/2/6 2/3/6 1/4/6 
f 9/1/7 10/2/7 11/3/7 12/4/7 
f 10/1/2 13/2/2 14/3/2 11/4/2 
f 13/1/8 15/2/8 16/3/8 14/4/8 
f 15/1/4 9/2/4 12/3/4 16/4/4 
f 12/1/5 11/2/5 14/3/5 16/4/5 
f 15/1/6 13/2/6 10/3/6 9/4/6 
f 17/5/7 18/6/7 19/7/7 20/8/7 
f 18/5/9 21/6/9 22/7/9 19/8/9 
f 21/5/8 23/6/8 24/7/8 22/8/8 
f 23/5/4 17/6/4 20/7/4 24/8/4 
f 20/5/10 19/6/10 22/7/10 24/8/10 
f 23/5/6 21/6/6 18/7/6 17/8/6 
f 25/1/1 26/2/1 27/3/1 28/4/1 
f 26/1/2 29/2/2 30/3/2 27/4/2 
f 29/1/3 31/2/3 32/3/3 30/4/3 
f 31/1/4 25/2/4 28/3/4 32/4/4 
f 28/1/5 27/2/5 30/3/5 32/4/5 
f 31/1/6 29/2/6 26/3/6 25/4/6 
f 33/1/1 34/2/1 35/3/1 36/4/1 
f 34/1/2 37/2/2 38/3/2 35/4/2 
f 37/1/3 39/2/3 40/3/3 38/4/3 
f 39/1/4 33/2/4 36/3/4 40/4/4 
f 36/1/5 35/2/5 38/3/5 40/4/5 
f 39/1/6 37/2/6 34/3/6 33/4/6 
f 41/1/7 42/2/7 43/3/7 44/4/7 
f 42/1/2 45/2/2 46/3/2 43/4/2 
f 45/1/8 47/2/8 48/3/8 46/4/8 
f 47/1/4 41/2/4 44/3/4 48/4/4 
f 44/1/5 43/2/5 46/3/5 48/4/5 
f 47/1/6 45/2/6 42/3/6 41/4/6 
f 49/9/7 50/10/7 51/11/7 52/12/7 
f 50/9/9 53/10/9 54/11/9 51/12/9 
f 53/9/8 55/10/8 56/11/8 54/12/8 
f 55/9/4 49/10/4 52/11/4 56/12/4 
f 52/9/11 51/10/11 54/11/11 56/12/11 
f 55/9/12 53/10/12 50/11/12 49/12/12 
f 57/9/7 58/10/7 59/11/7 60/12/7 
f 58/9/9 61/10/9 62/11/9 59/12/9 
f 61/9/8 63/10/8 64/11/8 62/12/8 
f 63/9/4 57/10/4 60/11/4 64/12/4 
f 60/9/11 59/10/11 62/11/11 64/12/11 
f 63/9/12 61/10/12 58/11/12 57/12/12 
f 65/9/7 66/10/7 67/11/7 68/12/7 
f 66/9/9 69/10/9 70/11/9 67/12/9 
f 69/9/8 71/10/8 72/11/8 70/12/8 
f 71/9/4 65/10/4 68/11/4 72/12/4 
f 68/9/11 67/10/11 70/11/11 72/12/11 
f 71/9/12 69/10/12 66/11/12 65/12/12 
f 73/13/7 74/14/7 75/15/7 76/16/7 
f 74/13/9 77/14/9 78/15/9 75/16/9 
f 77/13/8 79/14/8 80/15/8 78/16/8 
f 79/13/4 73/14/4 76/15/4 80/16/4 
f 76/13/10 75/14/10 78/15/10 80/16/10 
f 79/13/6 77/14/6 74/15/6 73/16/6 
f 81/17/1 82/18/1 83/19/1 84/20/1 
f 82/17/2 85/18/2 86/19/2 83/20/2 
f 85/17/3 87/18/3 88/19/3 86/20/3 
s 1
f 84/17/13 88/18/4 89/19/4 90/20/13 
s off
f 84/17/11 83/18/11 86/19/11 88/20/11 
f 87/17/6 85/18/6 82/19/6 81/20/6 
f 90/17/6 89/18/6 91/19/6 92/20/6 
s 1
f 87/17/13 81/18/4 93/19/4 94/20/13 
f 88/17/4 87/18/13 94/19/13 89/20/4 
f 81/17/4 84/18/13 90/19/13 93/20/4 
s off
f 95/21/4 96/22/4 92/23/4 91/24/4 
f 94/17/11 93/18/11 96/19/11 95/20/11 
f 89/17/1 94/18/1 95/19/1 91/20/1 
f 93/17/3 90/18/3 92/19/3 96/20/3 
f 97/17/1 98/18/1 99/19/1 100/20/1 
f 98/17/2 101/18/2 102/19/2 99/20/2 
f 101/17/3 103/18/3 104/19/3 102/20/3 
s 1
f 100/17/13 104/18/4 105/19/4 106/20/13 
s off
f 100/17/11 99/18/11 102/19/11 104/20/11 
f 103/17/6 101/18/6 98/19/6 97/20/6 
f 106/17/6 105/18/6 107/19/6 108/20/6 
s 1
f 103/17/13 97/18/4 109/19/4 110/20/13 
f 104/17/4 103/18/13 110/19/13 105/20/4 
f 97/17/4 100/18/13 106/19/13 109/20/4 
s off
f 111/21/4 112/22/4 108/23/4 107/24/4 
f 110/17/11 109/18/11 112/19/11 111/20/11 
f 105/17/1 110/18/1 111/19/1 107/20/1 
f 109/17/3 106/18/3 108/19/3 112/20/3 
f 113/17/1 114/18/1 115/19/1 116/20/1 
f 114/17/2 117/18/2 118/19/2 115/20/2 
f 117/17/3 119/18/3 120/19/3 118/20/3 
s 1
f 116/17/4 120/18/4 121/19/4 122/20/4 
s off
f 116/17/11 115/18/11 118/19/11 120/20/11 
f 119/17/6 117/18/6 114/19/6 113/20/6 
f 122/17/6 121/18/6 123/19/6 124/20/6 
s 1
f 119/17/4 113/18/4 125/19/4 126/20/4 
f 120/17/4 119/18/4 126/19/4 121/20/4 
f 113/17/4 116/18/4 122/19/4 125/20/4 
s off
f 127/25/4 128/26/4 124/27/4 123/28/4 
f 126/17/11 125/18/11 128/19/11 127/20/11 
f 121/17/1 126/18/1 127/19/1 123/20/1 
f 125/17/3 122/18/3 124/19/3 128/20/3 
s 1
f 129/29/7 130/30/7 131/31/7 132/32/7 
s 2
f 130/29/9 133/30/9 134/31/9 131/32/9 
s 1
f 133/29/8 135/30/8 136/31/8 134/32/8 
s 2
f 135/29/4 129/30/4 132/31/4 136/32/4 
s off
f 132/33/10 131/34/10 134/35/10 136/36/10 
s 4
f 137/37/11 138/38/10 139/39/10 140/40/11 
s off
f 140/37/4 139/38/4 141/39/4 142/40/4 
s 4
f 138/37/10 143/38/11 144/39/11 139/40/10 
f 143/37/11 145/38/10 146/39/10 144/40/11 
f 145/37/10 137/38/11 140/39/11 146/40/10 
s 1
f 142/37/12 141/38/6 147/39/6 148/40/12 
s off
f 139/37/8 144/38/8 149/39/8 141/40/8 
f 144/37/9 146/38/9 150/39/9 149/40/9 
f 146/37/7 140/38/7 142/39/7 150/40/7 
f 148/37/9 147/38/9 151/39/9 152/40/9 
s 1
f 141/37/6 149/38/12 153/39/12 147/40/6 
f 149/37/12 150/38/6 154/39/6 153/40/12 
f 150/37/6 142/38/12 148/39/12 154/40/6 
s off
f 151/41/6 155/42/6 156/43/6 152/44/6 
f 147/37/7 153/38/7 155/39/7 151/40/7 
f 153/37/4 154/38/4 156/39/4 155/40/4 
f 154/37/8 148/38/8 152/39/8 156/40/8 
f 157/17/1 158/18/1 159/19/1 160/20/1 
f 158/17/11 161/18/11 162/19/11 159/20/11 
s 1
f 163/17/4 164/18/13 158/19/13 157/20/4 
f 165/17/4 166/18/13 167/19/13 161/20/4 
s off
f 159/21/4 162/22/4 168/23/4 160/24/4 
f 161/17/3 167/18/3 168/19/3 162/20/3 
f 167/17/6 157/18/6 160/19/6 168/20/6 
f 164/17/6 169/18/6 170/19/6 165/20/6 
f 169/17/8 164/18/8 163/19/8 171/20/8 
s 1
f 166/17/13 163/18/4 157/19/4 167/20/13 
s off
f 166/17/11 172/18/11 171/19/11 163/20/11 
s 1
f 164/17/13 165/18/4 161/19/4 158/20/13 
s off
f 165/17/7 170/18/7 172/19/7 166/20/7 
f 170/17/2 169/18/2 171/19/2 172/20/2 
s 2
f 138/45/4 137/46/4 173/47/4 174/48/4 
s 1
f 143/45/8 138/46/8 174/47/8 175/48/8 
s 2
f 145/45/9 143/46/9 175/47/9 176/48/9 
s 1
f 137/45/7 145/46/7 176/47/7 173/48/7 
s 2
f 174/49/4 173/50/4 129/51/4 135/52/4 
s 1
f 175/49/8 174/50/8 135/51/8 133/52/8 
s 2
f 176/49/9 175/50/9 133/51/9 130/52/9 
s 1
f 173/49/7 176/50/7 130/51/7 129/52/7 
s off
f 177/17/1 178/18/1 179/19/1 180/20/1 
f 178/17/2 181/18/2 182/19/2 179/20/2 
f 181/17/3 183/18/3 184/19/3 182/20/3 
s 1
f 180/17/4 184/18/4 185/19/4 186/20/4 
s off
f 180/17/11 179/18/11 182/19/11 184/20/11 
f 183/17/6 181/18/6 178/19/6 177/20/6 
f 186/17/6 185/18/6 187/19/6 188/20/6 
s 1
f 183/17/4 177/18/4 189/19/4 190/20/4 
f 184/17/4 183/18/4 190/19/4 185/20/4 
f 177/17/4 180/18/4 186/19/4 189/20/4 
s off
f 191/21/4 192/22/4 188/23/4 187/24/4 
f 190/17/11 189/18/11 192/19/11 191/20/11 
f 185/17/1 190/18/1 191/19/1 187/20/1 
f 189/17/3 186/18/3 188/19/3 192/20/3 
f 193/17/1 194/18/1 195/19/1 196/20/1 
f 194/17/11 197/18/11 198/19/11 195/20/11 
s 1
f 199/17/4 200/18/4 194/19/4 193/20/4 
f 201/17/4 202/18/4 203/19/4 197/20/4 
s off
f 195/21/4 198/22/4 204/23/4 196/24/4 
f 197/17/3 203/18/3 204/19/3 198/20/3 
f 203/17/6 193/18/6 196/19/6 204/20/6 
f 200/17/6 205/18/6 206/19/6 201/20/6 
f 205/17/8 200/18/8 199/19/8 207/20/8 
s 1
f 202/17/4 199/18/4 193/19/4 203/20/4 
s off
f 202/17/11 208/18/11 207/19/11 199/20/11 
s 1
f 200/17/4 201/18/4 197/19/4 194/20/4 
s off
f 201/17/7 206/18/7 208/19/7 202/20/7 
f 206/17/2 205/18/2 207/19/2 208/20/2 
# 174 polygons

