# 3ds Max Wavefront OBJ Exporter v0.97b - (c)2007 guruware
# File Created: 15.03.2017 10:42:19

mtllib SPW_Urban_Bldg_13.mtl

#
# object SPW_Urban_Bldg_13
#

v  551.2480 300.1116 212.3542
v  539.9483 300.1116 239.6341
v  485.3885 4.8360 217.0347
v  496.6882 4.8360 189.7548
v  442.1284 300.1116 167.1553
v  398.4805 4.8360 149.0759
v  430.8286 300.1116 194.4352
v  387.1808 4.8360 176.3558
v  -442.1284 300.1115 -167.1554
v  -551.2480 300.1115 -212.3542
v  -496.6882 4.8360 -189.7548
v  -398.4805 4.8360 -149.0759
v  -539.9483 300.1115 -239.6342
v  -430.8286 300.1115 -194.4353
v  -485.3885 4.8360 -217.0347
v  -387.1808 4.8360 -176.3558
v  239.6340 300.1116 539.9483
v  212.3541 300.1117 551.2480
v  189.7547 4.8361 496.6883
v  217.0346 4.8361 485.3885
v  194.4352 300.1116 430.8287
v  176.3557 4.8361 387.1809
v  167.1553 300.1116 442.1284
v  149.0758 4.8361 398.4805
v  -194.4352 300.1115 -430.8288
v  -239.6340 300.1115 -539.9484
v  -217.0346 4.8359 -485.3885
v  -176.3557 4.8359 -387.1809
v  -212.3541 300.1115 -551.2482
v  -167.1553 300.1115 -442.1285
v  -189.7547 4.8359 -496.6883
v  -149.0758 4.8359 -398.4805
v  -212.3543 300.1117 551.2479
v  -239.6342 300.1116 539.9482
v  -217.0348 4.8361 485.3885
v  -189.7549 4.8361 496.6882
v  -167.1555 300.1116 442.1283
v  -149.0759 4.8361 398.4805
v  -194.4354 300.1116 430.8286
v  -176.3558 4.8361 387.1808
v  167.1555 300.1115 -442.1284
v  212.3543 300.1115 -551.2480
v  189.7549 4.8359 -496.6882
v  149.0759 4.8359 -398.4805
v  239.6342 300.1115 -539.9483
v  194.4354 300.1115 -430.8287
v  217.0348 4.8359 -485.3885
v  176.3558 4.8359 -387.1808
v  -539.9484 300.1116 239.6339
v  -551.2481 300.1116 212.3540
v  -496.6883 4.8360 189.7547
v  -485.3886 4.8360 217.0346
v  -430.8288 300.1116 194.4351
v  -387.1809 4.8360 176.3557
v  -442.1285 300.1116 167.1552
v  -398.4807 4.8360 149.0758
v  430.8288 300.1115 -194.4352
v  539.9484 300.1115 -239.6340
v  485.3886 4.8360 -217.0346
v  387.1809 4.8360 -176.3557
v  551.2481 300.1115 -212.3541
v  442.1285 300.1115 -167.1553
v  496.6883 4.8360 -189.7547
v  398.4807 4.8360 -149.0758
v  -407.1433 300.1116 428.0221
v  -428.0225 300.1116 407.1429
v  -386.2642 4.8361 365.3848
v  -365.3851 4.8361 386.2639
v  -323.6267 300.1116 344.5056
v  -290.2202 4.8360 311.0991
v  -344.5059 300.1116 323.6265
v  -311.0993 4.8360 290.2199
v  323.6267 300.1115 -344.5057
v  407.1433 300.1115 -428.0222
v  365.3851 4.8359 -386.2639
v  290.2202 4.8359 -311.0991
v  428.0225 300.1115 -407.1431
v  344.5059 300.1115 -323.6266
v  386.2642 4.8359 -365.3848
v  311.0993 4.8360 -290.2199
v  14.7636 300.1117 590.5511
v  -14.7640 300.1117 590.5511
v  -14.7639 4.8361 531.4961
v  14.7636 4.8361 531.4961
v  14.7636 300.1116 472.4409
v  14.7636 4.8361 425.1969
v  -14.7639 300.1116 472.4409
v  -14.7639 4.8361 425.1969
v  -14.7636 300.1115 -472.4410
v  -14.7636 300.1115 -590.5513
v  -14.7636 4.8359 -531.4961
v  -14.7636 4.8359 -425.1969
v  14.7640 300.1115 -590.5513
v  14.7639 300.1115 -472.4410
v  14.7639 4.8359 -531.4961
v  14.7639 4.8359 -425.1969
v  428.0222 300.1116 407.1432
v  407.1431 300.1116 428.0223
v  365.3848 4.8361 386.2641
v  386.2640 4.8361 365.3850
v  344.5057 300.1116 323.6266
v  311.0991 4.8360 290.2201
v  323.6265 300.1116 344.5058
v  290.2199 4.8360 311.0992
v  -344.5057 300.1115 -323.6267
v  -428.0222 300.1115 -407.1433
v  -386.2640 4.8359 -365.3850
v  -311.0991 4.8360 -290.2201
v  -407.1431 300.1115 -428.0224
v  -323.6265 300.1115 -344.5059
v  -365.3848 4.8359 -386.2641
v  -290.2199 4.8359 -311.0992
v  590.5512 300.1116 -14.7638
v  590.5512 300.1116 14.7638
v  531.4961 4.8360 14.7638
v  531.4961 4.8360 -14.7637
v  472.4410 300.1116 -14.7638
v  425.1969 4.8360 -14.7637
v  472.4410 300.1116 14.7638
v  425.1969 4.8360 14.7638
v  -472.4410 300.1116 14.7637
v  -590.5512 300.1116 14.7637
v  -531.4961 4.8360 14.7637
v  -425.1969 4.8360 14.7637
v  -590.5512 300.1116 -14.7639
v  -472.4410 300.1116 -14.7639
v  -531.4961 4.8360 -14.7638
v  -425.1969 4.8360 -14.7638
v  -0.0001 240.0938 583.5441
v  -0.0001 299.6214 595.0846
v  -227.7291 299.6214 549.7864
v  -223.3128 240.0938 539.1244
v  539.1245 240.0937 -223.3127
v  583.5441 240.0938 0.0001
v  554.3669 240.0938 0.0001
v  512.1682 240.0937 -212.1471
v  412.6280 240.0937 -412.6281
v  391.9966 240.0937 -391.9967
v  223.3126 240.0937 -539.1246
v  212.1470 240.0937 -512.1683
v  0.0000 240.0937 -583.5442
v  -0.0000 240.0937 -554.3669
v  -223.3126 240.0937 -539.1246
v  -212.1470 240.0937 -512.1683
v  -412.6279 240.0937 -412.6281
v  -391.9965 240.0937 -391.9967
v  -539.1245 240.0937 -223.3128
v  -512.1682 240.0937 -212.1472
v  -583.5441 240.0938 -0.0002
v  -554.3669 240.0938 -0.0001
v  -539.1245 240.0938 223.3126
v  -512.1682 240.0938 212.1469
v  -412.6280 240.0938 412.6278
v  -391.9967 240.0938 391.9965
v  -212.1471 240.0938 512.1681
v  -0.0001 240.0938 554.3668
v  512.1682 240.0938 212.1472
v  539.1244 240.0938 223.3128
v  391.9964 240.0938 391.9968
v  412.6278 240.0938 412.6281
v  212.1467 240.0938 512.1683
v  223.3123 240.0938 539.1246
v  227.7287 299.6214 549.7866
v  227.7290 299.6212 -549.7866
v  0.0000 299.6212 -595.0847
v  0.0000 299.6212 -565.3304
v  216.3425 299.6213 -522.2972
v  420.7883 299.6213 -420.7885
v  399.7489 299.6213 -399.7491
v  549.7866 299.6213 -227.7291
v  522.2972 299.6213 -216.3426
v  595.0847 299.6213 0.0001
v  565.3304 299.6213 0.0000
v  549.7864 299.6213 227.7292
v  522.2971 299.6213 216.3427
v  420.7881 299.6214 420.7885
v  399.7487 299.6214 399.7491
v  216.3423 299.6214 522.2972
v  -0.0001 299.6214 565.3303
v  -216.3425 299.6213 -522.2973
v  -227.7290 299.6212 -549.7867
v  -399.7489 299.6213 -399.7491
v  -420.7883 299.6213 -420.7885
v  -522.2972 299.6213 -216.3427
v  -549.7865 299.6213 -227.7292
v  -565.3304 299.6213 -0.0002
v  -595.0847 299.6213 -0.0002
v  -522.2972 299.6213 216.3425
v  -549.7866 299.6213 227.7289
v  -399.7490 299.6214 399.7488
v  -420.7885 299.6214 420.7882
v  -216.3427 299.6214 522.2971
v  483.8027 293.3078 -200.3977
v  523.6642 293.3078 0.0000
v  74.7735 389.4883 -0.0000
v  69.0817 389.4883 -28.6147
v  -0.0001 301.6598 523.6642
v  200.3974 301.6598 483.8028
v  47.7544 483.2817 -3.3771
v  45.4117 483.2817 15.1547
v  -483.8027 293.3078 -200.3978
v  -370.2865 293.3078 -370.2867
v  -52.8729 389.4883 -52.8729
v  -69.0817 389.4883 -28.6147
v  370.2864 301.6598 370.2867
v  42.8270 483.2817 -21.3949
v  370.2865 293.3078 -370.2867
v  52.8729 389.4883 -52.8729
v  483.8026 301.6598 200.3978
v  31.3795 483.2817 -36.1555
v  -200.3976 293.3077 -483.8028
v  -28.6146 389.4883 -69.0818
v  523.6642 301.6597 0.0000
v  15.1548 483.2817 -45.4117
v  200.3976 293.3077 -483.8028
v  28.6146 389.4883 -69.0818
v  -0.0001 293.3079 523.6642
v  -200.3978 293.3079 483.8026
v  -28.6146 389.4883 69.0817
v  -0.0000 389.4883 74.7735
v  -0.0000 293.3077 -523.6643
v  -0.0000 389.4883 -74.7736
v  483.8027 301.6597 -200.3977
v  -3.3771 483.2817 -47.7545
v  -0.0000 301.6596 -523.6643
v  -200.3976 301.6596 -483.8028
v  -47.7544 483.2817 3.3770
v  -45.4117 483.2817 -15.1549
v  200.3974 293.3079 483.8028
v  28.6145 389.4883 69.0817
v  370.2865 301.6597 -370.2867
v  -21.3949 483.2817 -42.8270
v  36.1554 483.2817 31.3794
v  -52.8729 389.4883 52.8728
v  21.3948 483.2817 42.8269
v  52.8728 389.4883 52.8728
v  -69.0817 389.4883 28.6145
v  3.3771 483.2817 47.7543
v  69.0817 389.4883 28.6145
v  -74.7735 389.4883 -0.0001
v  -15.1548 483.2817 45.4116
v  -31.3795 483.2817 36.1553
v  -42.8270 483.2817 21.3948
v  -36.1554 483.2817 -31.3796
v  -523.6642 293.3078 -0.0001
v  -200.3978 301.6598 483.8026
v  483.8026 293.3079 200.3978
v  -370.2866 301.6598 370.2864
v  -483.8027 293.3079 200.3975
v  -483.8027 301.6598 200.3975
v  370.2864 293.3079 370.2867
v  -523.6642 301.6597 -0.0001
v  -370.2866 293.3079 370.2864
v  -483.8027 301.6597 -200.3978
v  200.3976 301.6596 -483.8028
v  -370.2865 301.6597 -370.2867
v  12.0092 498.7151 34.0107
v  -1.9203 498.7151 36.0175
v  15.5575 498.7151 -32.5411
v  1.9203 498.7151 -36.0177
v  -15.5575 498.7151 32.5410
v  26.8261 498.7151 -24.1105
v  -26.8261 498.7151 24.1103
v  34.0108 498.7151 -12.0093
v  -34.0108 498.7151 12.0091
v  36.0176 498.7151 1.9202
v  -36.0176 498.7151 -1.9204
v  -32.5410 498.7151 -15.5575
v  32.5410 498.7151 15.5574
v  -24.1104 498.7151 -26.8262
v  24.1104 498.7151 26.8261
v  -12.0092 498.7151 -34.0108
v  -26.8261 503.3452 24.1103
v  -34.0108 503.3452 12.0091
v  36.0176 503.3452 1.9202
v  34.0108 503.3452 -12.0093
v  -36.0176 503.3452 -1.9204
v  -32.5410 503.3452 -15.5575
v  32.5410 503.3452 15.5574
v  -24.1104 503.3452 -26.8262
v  24.1104 503.3452 26.8261
v  -12.0092 503.3452 -34.0109
v  12.0092 503.3452 34.0107
v  1.9203 503.3452 -36.0177
v  -1.9203 503.3452 36.0175
v  15.5575 503.3452 -32.5411
v  -15.5575 503.3452 32.5410
v  26.8261 503.3452 -24.1105
v  3.1487 534.2121 -44.7634
v  -14.2212 534.2121 -42.5609
v  14.2212 534.2121 42.5607
v  -3.1487 534.2121 44.7632
v  20.0392 534.2121 -40.1510
v  -20.0391 534.2121 40.1508
v  33.8789 534.2121 -29.4260
v  -33.8788 534.2121 29.4259
v  42.5608 534.2121 -14.2213
v  -42.5608 534.2121 14.2211
v  -44.7633 534.2121 -3.1487
v  44.7633 534.2121 3.1486
v  -40.1509 534.2121 -20.0392
v  40.1509 534.2121 20.0391
v  -29.4260 534.2121 -33.8789
v  29.4260 534.2121 33.8788
v  34.4165 534.2121 2.4208
v  30.8702 534.2121 15.4071
v  -22.6243 534.2121 -26.0480
v  -30.8703 534.2121 -15.4073
v  22.6243 534.2121 26.0478
v  -10.9340 534.2121 -32.7232
v  10.9340 534.2121 32.7230
v  2.4209 534.2121 -34.4166
v  -2.4209 534.2121 34.4164
v  15.4072 534.2121 -30.8703
v  -15.4072 534.2121 30.8702
v  26.0479 534.2121 -22.6244
v  -26.0479 534.2121 22.6242
v  32.7231 534.2121 -10.9341
v  -32.7231 534.2121 10.9339
v  -34.4165 534.2121 -2.4209
v  -11.5719 491.9281 23.1856
v  -19.5638 491.9281 16.9924
v  24.5773 491.9281 -8.2123
v  19.5638 491.9281 -16.9925
v  -24.5773 491.9281 8.2121
v  -25.8492 491.9281 -1.8183
v  25.8491 491.9281 1.8182
v  -23.1857 491.9281 -11.5719
v  23.1857 491.9281 11.5718
v  -16.9924 491.9281 -19.5639
v  16.9924 491.9281 19.5637
v  -8.2122 491.9281 -24.5774
v  8.2122 491.9281 24.5772
v  1.8182 491.9281 -25.8492
v  -1.8182 491.9281 25.8491
v  11.5719 491.9281 -23.1858
v  523.6642 270.7928 0.0000
v  483.8027 270.7928 -200.3977
v  -0.0000 270.7927 -523.6643
v  200.3976 270.7927 -483.8028
v  370.2865 270.7927 -370.2867
v  483.8026 270.7928 200.3978
v  370.2864 270.7928 370.2867
v  200.3974 270.7928 483.8028
v  -0.0001 270.7928 523.6642
v  -200.3978 270.7928 483.8026
v  -370.2866 270.7928 370.2864
v  -483.8027 270.7928 200.3976
v  -523.6642 270.7928 -0.0001
v  -483.8027 270.7928 -200.3978
v  -370.2865 270.7927 -370.2867
v  -200.3976 270.7927 -483.8028
v  -0.0001 94.8647 554.4228
v  -0.0001 151.4216 565.3875
v  -216.3645 151.4216 522.3499
v  -212.1685 94.8647 512.2199
v  512.2200 94.8645 -212.1685
v  554.4228 94.8646 0.0001
v  526.7017 94.8646 0.0001
v  486.6089 94.8645 -201.5600
v  392.0361 94.8645 -392.0362
v  372.4343 94.8645 -372.4345
v  212.1684 94.8645 -512.2200
v  201.5600 94.8645 -486.6090
v  -0.0000 94.8645 -554.4228
v  -0.0000 94.8645 -526.7017
v  -212.1684 94.8645 -512.2200
v  -201.5600 94.8645 -486.6090
v  -392.0360 94.8645 -392.0362
v  -372.4343 94.8645 -372.4344
v  -512.2199 94.8645 -212.1686
v  -486.6089 94.8645 -201.5601
v  -554.4228 94.8646 -0.0001
v  -526.7017 94.8646 -0.0001
v  -512.2200 94.8646 212.1683
v  -486.6089 94.8646 201.5599
v  -392.0362 94.8646 392.0360
v  -372.4344 94.8646 372.4343
v  -201.5601 94.8646 486.6088
v  -0.0001 94.8647 526.7017
v  486.6088 94.8646 201.5602
v  512.2198 94.8646 212.1686
v  372.4341 94.8646 372.4345
v  392.0359 94.8646 392.0363
v  201.5597 94.8646 486.6090
v  212.1681 94.8647 512.2201
v  216.3641 151.4216 522.3501
v  216.3644 151.4214 -522.3499
v  0.0000 151.4214 -565.3875
v  -0.0000 151.4214 -537.1180
v  205.5462 151.4214 -496.2325
v  399.7892 151.4214 -399.7894
v  379.7998 151.4214 -379.7999
v  522.3500 151.4214 -216.3644
v  496.2324 151.4214 -205.5462
v  565.3875 151.4215 0.0001
v  537.1180 151.4215 0.0001
v  522.3498 151.4215 216.3645
v  496.2323 151.4215 205.5463
v  399.7891 151.4215 399.7895
v  379.7996 151.4215 379.8000
v  205.5459 151.4216 496.2325
v  -0.0001 151.4216 537.1180
v  -205.5461 151.4214 -496.2325
v  -216.3643 151.4214 -522.3500
v  -379.7997 151.4214 -379.7999
v  -399.7892 151.4214 -399.7894
v  -496.2323 151.4214 -205.5463
v  -522.3499 151.4214 -216.3645
v  -537.1180 151.4215 -0.0001
v  -565.3875 151.4215 -0.0001
v  -496.2324 151.4215 205.5461
v  -522.3500 151.4215 216.3643
v  -379.7999 151.4215 379.7997
v  -399.7894 151.4215 399.7892
v  -205.5463 151.4216 496.2323
v  -0.0001 203.6559 554.4227
v  -0.0001 212.5141 565.3874
v  -216.3645 212.5141 522.3498
v  -212.1685 203.6559 512.2198
v  512.2200 203.6557 -212.1685
v  554.4228 203.6558 0.0001
v  526.7017 203.6558 0.0001
v  486.6089 203.6557 -201.5601
v  392.0361 203.6557 -392.0362
v  372.4343 203.6557 -372.4345
v  212.1684 203.6557 -512.2200
v  201.5600 203.6557 -486.6090
v  -0.0000 203.6557 -554.4229
v  -0.0000 203.6557 -526.7017
v  -212.1684 203.6557 -512.2200
v  -201.5600 203.6557 -486.6090
v  -392.0360 203.6557 -392.0362
v  -372.4343 203.6557 -372.4344
v  -512.2199 203.6557 -212.1686
v  -486.6089 203.6557 -201.5602
v  -554.4228 203.6558 -0.0001
v  -526.7017 203.6558 -0.0001
v  -512.2200 203.6558 212.1683
v  -486.6089 203.6558 201.5599
v  -392.0362 203.6559 392.0360
v  -372.4344 203.6559 372.4343
v  -201.5601 203.6559 486.6088
v  -0.0001 203.6559 526.7016
v  486.6088 203.6558 201.5602
v  512.2198 203.6558 212.1686
v  372.4341 203.6559 372.4345
v  392.0359 203.6559 392.0363
v  201.5597 203.6559 486.6090
v  212.1681 203.6559 512.2200
v  216.3641 212.5141 522.3500
v  216.3644 212.5140 -522.3500
v  0.0000 212.5140 -565.3875
v  -0.0000 212.5140 -537.1181
v  205.5462 212.5140 -496.2325
v  399.7892 212.5140 -399.7894
v  379.7998 212.5140 -379.7999
v  522.3500 212.5140 -216.3645
v  496.2324 212.5140 -205.5462
v  565.3875 212.5141 0.0001
v  537.1180 212.5141 0.0001
v  522.3498 212.5141 216.3645
v  496.2323 212.5141 205.5463
v  399.7891 212.5141 399.7895
v  379.7996 212.5141 379.8000
v  205.5459 212.5141 496.2325
v  -0.0001 212.5141 537.1180
v  -205.5461 212.5140 -496.2325
v  -216.3643 212.5140 -522.3500
v  -379.7997 212.5140 -379.7999
v  -399.7892 212.5140 -399.7894
v  -496.2323 212.5140 -205.5463
v  -522.3499 212.5140 -216.3646
v  -537.1180 212.5141 -0.0001
v  -565.3875 212.5141 -0.0001
v  -496.2324 212.5141 205.5461
v  -522.3500 212.5141 216.3643
v  -379.7999 212.5141 379.7997
v  -399.7894 212.5141 399.7892
v  -205.5463 212.5141 496.2323
v  -0.0001 181.4576 549.3912
v  -0.0001 190.2354 560.2563
v  -214.4009 190.2354 517.6093
v  -210.2430 181.4576 507.5713
v  507.5714 181.4574 -210.2430
v  549.3912 181.4575 0.0001
v  521.9217 181.4575 0.0001
v  482.1927 181.4574 -199.7308
v  388.4782 181.4574 -388.4783
v  369.0543 181.4574 -369.0545
v  210.2429 181.4574 -507.5714
v  199.7308 181.4574 -482.1928
v  0.0000 181.4574 -549.3913
v  -0.0000 181.4574 -521.9218
v  -210.2429 181.4574 -507.5714
v  -199.7307 181.4574 -482.1928
v  -388.4782 181.4574 -388.4784
v  -369.0543 181.4574 -369.0544
v  -507.5713 181.4574 -210.2431
v  -482.1927 181.4574 -199.7309
v  -549.3912 181.4575 -0.0001
v  -521.9217 181.4575 -0.0001
v  -507.5714 181.4575 210.2428
v  -482.1927 181.4575 199.7307
v  -388.4783 181.4576 388.4781
v  -369.0544 181.4576 369.0543
v  -199.7309 181.4576 482.1927
v  -0.0001 181.4576 521.9216
v  482.1927 181.4575 199.7309
v  507.5712 181.4575 210.2431
v  369.0542 181.4576 369.0545
v  388.4780 181.4576 388.4784
v  199.7305 181.4576 482.1928
v  210.2426 181.4576 507.5714
v  214.4005 190.2354 517.6094
v  214.4008 190.2353 -517.6094
v  -0.0000 190.2353 -560.2564
v  -0.0000 190.2353 -532.2436
v  203.6808 190.2353 -491.7289
v  396.1610 190.2353 -396.1611
v  376.3530 190.2353 -376.3531
v  517.6094 190.2353 -214.4008
v  491.7289 190.2353 -203.6808
v  560.2563 190.2354 0.0001
v  532.2435 190.2354 0.0001
v  517.6093 190.2354 214.4009
v  491.7288 190.2354 203.6809
v  396.1608 190.2354 396.1612
v  376.3528 190.2354 376.3531
v  203.6805 190.2354 491.7290
v  -0.0001 190.2354 532.2435
v  -203.6807 190.2353 -491.7289
v  -214.4008 190.2353 -517.6094
v  -376.3529 190.2353 -376.3531
v  -396.1610 190.2353 -396.1612
v  -491.7288 190.2353 -203.6809
v  -517.6093 190.2353 -214.4010
v  -532.2435 190.2354 -0.0001
v  -560.2563 190.2354 -0.0001
v  -491.7289 190.2354 203.6807
v  -517.6094 190.2354 214.4007
v  -376.3531 190.2354 376.3529
v  -396.1611 190.2354 396.1609
v  -203.6809 190.2354 491.7288
v  -0.0001 0.0002 514.7740
v  -0.0001 292.9359 569.0198
v  -217.7546 292.9359 525.7057
v  -196.9956 0.0002 475.5891
v  -402.3578 292.9359 402.3577
v  -364.0002 0.0002 364.0002
v  -525.7059 292.9358 217.7544
v  -475.5892 0.0001 196.9954
v  -569.0199 292.9358 -0.0002
v  -514.7740 0.0001 -0.0001
v  -525.7058 292.9358 -217.7547
v  -475.5891 0.0001 -196.9956
v  -402.3577 292.9357 -402.3579
v  -364.0002 0.0000 -364.0002
v  -217.7545 292.9357 -525.7059
v  -196.9955 0.0000 -475.5892
v  -0.0000 292.9357 -569.0200
v  -0.0000 0.0000 -514.7740
v  217.7544 292.9357 -525.7059
v  196.9954 0.0000 -475.5892
v  402.3578 292.9357 -402.3579
v  364.0002 0.0000 -364.0002
v  525.7059 292.9358 -217.7545
v  475.5892 0.0001 -196.9955
v  569.0199 292.9358 0.0000
v  514.7740 0.0001 0.0001
v  525.7057 292.9358 217.7546
v  475.5891 0.0001 196.9957
v  402.3576 292.9359 402.3579
v  364.0000 0.0002 364.0003
v  217.7541 292.9359 525.7059
v  196.9951 0.0002 475.5893
# 576 vertices

vn 0.9059 -0.1961 0.3753
vn 0.3827 -0.0000 -0.9239
vn -0.0000 1.0000 0.0000
vn -0.3827 0.0000 0.9239
vn -0.0000 -1.0000 0.0000
vn -0.9123 0.1580 -0.3779
vn -0.9059 -0.1961 -0.3753
vn 0.9123 0.1580 0.3779
vn 0.3753 -0.1961 0.9059
vn 0.9239 -0.0000 -0.3827
vn 0.0000 1.0000 -0.0000
vn -0.9239 0.0000 0.3827
vn -0.3779 0.1580 -0.9123
vn -0.3753 -0.1961 -0.9059
vn 0.3779 0.1580 0.9123
vn -0.3753 -0.1961 0.9059
vn 0.9239 0.0000 0.3827
vn -0.9239 -0.0000 -0.3827
vn 0.0000 -1.0000 0.0000
vn 0.3779 0.1580 -0.9123
vn 0.3753 -0.1961 -0.9059
vn -0.3779 0.1580 0.9123
vn -0.9059 -0.1961 0.3753
vn 0.3827 0.0000 0.9239
vn 0.0000 1.0000 0.0000
vn -0.3827 -0.0000 -0.9239
vn 0.9123 0.1580 -0.3779
vn 0.9059 -0.1961 -0.3753
vn -0.9123 0.1580 0.3779
vn -0.6934 -0.1961 0.6934
vn 0.7071 -0.0000 0.7071
vn -0.7071 0.0000 -0.7071
vn 0.6982 0.1580 -0.6982
vn -0.7071 -0.0000 -0.7071
vn 0.6934 -0.1961 -0.6934
vn 0.7071 0.0000 0.7071
vn -0.6982 0.1580 0.6982
vn 0.0000 -0.1961 0.9806
vn 1.0000 -0.0000 0.0000
vn -1.0000 -0.0000 -0.0000
vn 0.0000 0.1580 -0.9874
vn 0.0000 -0.1961 -0.9806
vn 0.0000 0.1580 0.9874
vn 0.6934 -0.1961 0.6934
vn 0.7071 -0.0000 -0.7071
vn -0.7071 0.0000 0.7071
vn -0.6982 0.1580 -0.6982
vn -0.6934 -0.1961 -0.6934
vn 0.6982 0.1580 0.6982
vn 0.9806 -0.1961 0.0000
vn 0.0000 -0.0000 -1.0000
vn -0.0000 0.0000 1.0000
vn -0.9874 0.1580 -0.0000
vn 0.0000 0.0000 1.0000
vn -0.9806 -0.1961 0.0000
vn 0.9874 0.1580 0.0000
vn -0.1917 -0.1868 0.9635
vn 0.0000 -1.0000 -0.0000
vn -0.0000 -1.0000 -0.0000
vn 0.1917 -0.1868 0.9635
vn -0.0000 1.0000 -0.0000
vn -0.5458 -0.1868 0.8168
vn -0.8168 -0.1868 0.5458
vn -0.9635 -0.1868 0.1917
vn -0.9635 -0.1868 -0.1917
vn -0.8168 -0.1868 -0.5458
vn -0.5458 -0.1868 -0.8168
vn -0.1917 -0.1868 -0.9635
vn 0.1917 -0.1868 -0.9635
vn 0.5458 -0.1868 -0.8168
vn 0.8168 -0.1868 -0.5458
vn 0.9635 -0.1868 -0.1917
vn 0.9635 -0.1868 0.1917
vn 0.8168 -0.1868 0.5458
vn 0.5458 -0.1868 0.8168
vn 0.1920 0.1778 -0.9652
vn -0.1920 0.1778 -0.9652
vn 0.5467 0.1778 -0.8182
vn -0.5467 0.1778 -0.8182
vn 0.8182 0.1778 -0.5467
vn -0.8182 0.1778 -0.5467
vn 0.9652 0.1778 -0.1920
vn -0.9652 0.1778 -0.1920
vn 0.9652 0.1778 0.1920
vn -0.9652 0.1778 0.1920
vn 0.8182 0.1778 0.5467
vn -0.8182 0.1778 0.5467
vn 0.5467 0.1778 0.8182
vn -0.5467 0.1778 0.8182
vn 0.1920 0.1778 0.9652
vn -0.1920 0.1778 0.9652
vn -0.2093 -0.9770 0.0416
vn 0.0956 0.9384 0.3320
vn 0.1775 -0.9770 0.1186
vn 0.2154 0.9384 0.2702
vn -0.1775 -0.9770 0.1186
vn 0.3024 0.9384 0.1672
vn 0.1186 -0.9770 0.1775
vn 0.3434 0.9384 0.0387
vn -0.1186 -0.9770 0.1775
vn 0.0416 -0.9770 -0.2093
vn 0.0416 -0.9770 0.2093
vn 0.3320 0.9384 -0.0956
vn -0.0956 0.9384 -0.3320
vn -0.0416 -0.9770 -0.2093
vn 0.2702 0.9384 -0.2154
vn -0.0416 -0.9770 0.2093
vn -0.2535 -0.3240 -0.9115
vn -0.5830 -0.3240 -0.7451
vn 0.1146 -0.3240 -0.9391
vn -0.8238 -0.3240 -0.4653
vn 0.4653 -0.3240 -0.8238
vn -0.9391 -0.3240 -0.1146
vn 0.7451 -0.3240 -0.5830
vn -0.9115 -0.3240 0.2535
vn 0.9115 -0.3240 -0.2535
vn -0.7451 -0.3240 0.5830
vn 0.9391 -0.3240 0.1146
vn -0.4653 -0.3240 0.8238
vn 0.8238 -0.3240 0.4653
vn -0.1146 -0.3240 0.9391
vn 0.5830 -0.3240 0.7451
vn 0.2535 -0.3240 0.9115
vn 0.2093 -0.9770 0.0416
vn -0.0387 0.9384 0.3434
vn -0.2093 -0.9770 -0.0416
vn -0.1672 0.9384 0.3024
vn 0.2093 -0.9770 -0.0416
vn -0.2702 0.9384 0.2154
vn -0.1775 -0.9770 -0.1186
vn -0.3320 0.9384 0.0956
vn 0.1775 -0.9770 -0.1186
vn -0.3434 0.9384 -0.0387
vn 0.0387 0.9384 -0.3434
vn -0.1186 -0.9770 -0.1775
vn -0.3024 0.9384 -0.1672
vn 0.1672 0.9384 -0.3024
vn 0.1186 -0.9770 -0.1775
vn -0.2154 0.9384 -0.2702
vn -0.0083 0.6035 0.7973
vn -0.3127 -0.6035 0.7335
vn -0.3127 0.6035 0.7335
vn -0.5696 -0.6035 0.5580
vn -0.5696 0.6035 0.5580
vn -0.7398 -0.6035 0.2975
vn -0.7398 0.6035 0.2975
vn -0.7973 -0.6035 -0.0083
vn -0.7335 0.6035 -0.3127
vn 0.7973 -0.6035 0.0083
vn 0.7335 0.6035 0.3127
vn -0.5580 0.6035 -0.5696
vn 0.5580 0.6035 0.5696
vn 0.2975 -0.6035 0.7398
vn 0.2975 0.6035 0.7398
vn -0.0083 -0.6035 0.7973
vn -0.8599 0.0000 0.5105
vn -0.9898 0.0000 0.1426
vn -0.9690 -0.0000 -0.2470
vn 0.9898 -0.0000 -0.1426
vn 0.9690 0.0000 0.2470
vn -0.8007 -0.0000 -0.5990
vn 0.8007 0.0000 0.5990
vn 0.5105 0.0000 0.8599
vn 0.1426 0.0000 0.9898
vn -0.2470 0.0000 0.9690
vn -0.5990 0.0000 0.8007
vn -0.0395 0.2738 0.9610
vn -0.0395 -0.2738 0.9610
vn -0.4042 0.2738 0.8727
vn -0.4042 -0.2738 0.8727
vn -0.7074 0.2738 0.6516
vn -0.7074 -0.2738 0.6516
vn -0.9029 0.2738 0.3313
vn -0.9610 -0.2738 -0.0395
vn 0.9029 0.2738 -0.3313
vn 0.9610 -0.2738 0.0395
vn -0.8727 -0.2738 -0.4042
vn 0.8727 -0.2738 0.4042
vn 0.6516 0.2738 0.7074
vn 0.6516 -0.2738 0.7074
vn 0.3313 0.2738 0.9029
vn 0.3313 -0.2738 0.9029
vn 0.6007 0.1954 -0.7752
vn 0.8517 -0.1954 -0.4863
vn 0.9729 0.1954 -0.1234
vn -0.8517 -0.1954 0.4863
vn -0.9729 0.1954 0.1234
vn 0.9461 0.1954 0.2584
vn -0.9461 0.1954 -0.2584
vn -0.7752 -0.1954 -0.6007
vn -0.7752 0.1954 -0.6007
vn -0.4863 -0.1954 -0.8517
vn -0.4863 0.1954 -0.8517
vn -0.1234 -0.1954 -0.9729
vn -0.1234 0.1954 -0.9729
vn 0.2584 -0.1954 -0.9461
vn 0.2584 0.1954 -0.9461
vn 0.6007 -0.1954 -0.7752
vn 0.9808 -0.0000 -0.1951
vn -0.9808 0.0000 0.1951
vn 0.9808 0.0000 0.1951
vn -0.9808 -0.0000 -0.1951
vn 0.8315 0.0000 0.5556
vn -0.8315 -0.0000 -0.5556
vn 0.5556 0.0000 0.8315
vn -0.5556 -0.0000 -0.8315
vn 0.1951 0.0000 0.9808
vn 0.1951 -0.0000 -0.9808
vn -0.1951 -0.0000 -0.9808
vn -0.1951 0.0000 0.9808
vn 0.5556 -0.0000 -0.8315
vn -0.5556 0.0000 0.8315
vn 0.8315 -0.0000 -0.5556
vn -0.8315 0.0000 0.5556
vn -0.1240 -0.7719 0.6236
vn 0.1240 -0.7719 0.6236
vn -0.3532 -0.7719 0.5286
vn -0.5286 -0.7719 0.3532
vn -0.6236 -0.7719 0.1240
vn -0.6236 -0.7719 -0.1240
vn -0.5286 -0.7719 -0.3532
vn -0.3532 -0.7719 -0.5286
vn -0.1240 -0.7719 -0.6236
vn 0.1240 -0.7719 -0.6236
vn 0.3532 -0.7719 -0.5286
vn 0.5286 -0.7719 -0.3532
vn 0.6236 -0.7719 -0.1240
vn 0.6236 -0.7719 0.1240
vn 0.5286 -0.7719 0.3532
vn 0.3532 -0.7719 0.5286
vn 0.1278 0.7555 -0.6425
vn -0.1278 0.7555 -0.6425
vn 0.3640 0.7555 -0.5447
vn -0.3640 0.7555 -0.5447
vn 0.5447 0.7555 -0.3640
vn -0.5447 0.7555 -0.3640
vn 0.6425 0.7555 -0.1278
vn -0.6425 0.7555 -0.1278
vn 0.6425 0.7555 0.1278
vn -0.6425 0.7555 0.1278
vn 0.5447 0.7555 0.3640
vn -0.5447 0.7555 0.3640
vn 0.3640 0.7555 0.5447
vn -0.3640 0.7555 0.5447
vn 0.1278 0.7555 0.6425
vn -0.1278 0.7555 0.6425
vn -0.1920 -0.1787 0.9650
vn -0.5466 -0.1787 0.8181
vn -0.8181 -0.1787 0.5466
vn -0.9650 -0.1787 0.1919
vn -0.9650 -0.1787 -0.1920
vn -0.8181 -0.1787 -0.5466
vn -0.5466 -0.1787 -0.8181
vn -0.1919 -0.1787 -0.9650
vn 0.1920 -0.1787 -0.9650
vn 0.5466 -0.1787 -0.8181
vn 0.8181 -0.1787 -0.5466
vn 0.9650 -0.1787 -0.1919
vn 0.9650 -0.1787 0.1920
vn 0.8181 -0.1787 0.5466
vn 0.5466 -0.1787 0.8181
vn 0.1919 -0.1787 0.9650
# 262 vertex normals

vt 0.2880 0.8269 0.0000
vt 0.3380 0.8269 0.0000
vt 0.3380 0.8769 0.0000
vt 0.2880 0.8769 0.0000
vt 0.3291 0.8327 0.0000
vt 0.3215 0.8284 0.0000
vt 0.3130 0.8269 0.0000
vt 0.3044 0.8284 0.0000
vt 0.3346 0.8394 0.0000
vt 0.2969 0.8327 0.0000
vt 0.3376 0.8476 0.0000
vt 0.2913 0.8394 0.0000
vt 0.3376 0.8562 0.0000
vt 0.2884 0.8476 0.0000
vt 0.3346 0.8644 0.0000
vt 0.2884 0.8562 0.0000
vt 0.3291 0.8710 0.0000
vt 0.2913 0.8644 0.0000
vt 0.3215 0.8754 0.0000
vt 0.2969 0.8710 0.0000
vt 0.3130 0.8769 0.0000
vt 0.3044 0.8754 0.0000
vt 0.2884 0.8275 0.0000
vt 0.2883 0.8275 0.0000
vt 0.2884 0.8288 0.0000
vt 0.2892 0.8297 0.0000
vt 0.2897 0.8300 0.0000
vt 0.2902 0.8282 0.0000
vt 0.2903 0.8283 0.0000
vt 0.2885 0.8273 0.0000
vt 0.2903 0.8301 0.0000
vt 0.2901 0.8282 0.0000
vt 0.2909 0.8299 0.0000
vt 0.2900 0.8283 0.0000
vt 0.2885 0.8274 0.0000
vt 0.2914 0.8294 0.0000
vt 0.2899 0.8283 0.0000
vt 0.2883 0.8271 0.0000
vt 0.2883 0.8270 0.0000
vt 0.2885 0.8275 0.0000
vt 0.2917 0.8289 0.0000
vt 0.2899 0.8284 0.0000
vt 0.2911 0.8272 0.0000
vt 0.2905 0.8269 0.0000
vt 0.2901 0.8287 0.0000
vt 0.2900 0.8287 0.0000
vt 0.2883 0.8273 0.0000
vt 0.2917 0.8283 0.0000
vt 0.2899 0.8285 0.0000
vt 0.2880 0.8767 0.0000
vt 0.2880 0.8768 0.0000
vt 0.2880 0.8766 0.0000
vt 0.2881 0.8768 0.0000
vt 0.2881 0.8767 0.0000
vt 0.2881 0.8766 0.0000
vt 0.2885 0.8271 0.0000
vt 0.2887 0.8293 0.0000
vt 0.2883 0.8274 0.0000
vt 0.2885 0.8287 0.0000
vt 0.2904 0.8284 0.0000
vt 0.2885 0.8270 0.0000
vt 0.2886 0.8281 0.0000
vt 0.2904 0.8285 0.0000
vt 0.2889 0.8275 0.0000
vt 0.2903 0.8286 0.0000
vt 0.2884 0.8269 0.0000
vt 0.2893 0.8271 0.0000
vt 0.2903 0.8287 0.0000
vt 0.2915 0.8277 0.0000
vt 0.2899 0.8286 0.0000
vt 0.2899 0.8269 0.0000
vt 0.2902 0.8287 0.0000
vt 0.2920 0.8276 0.0000
vt 0.2920 0.8312 0.0000
vt 0.2920 0.8271 0.0000
vt 0.2921 0.8272 0.0000
vt 0.2919 0.8312 0.0000
vt 0.2919 0.8276 0.0000
vt 0.2921 0.8273 0.0000
vt 0.2919 0.8275 0.0000
vt 0.2921 0.8274 0.0000
vt 0.2919 0.8274 0.0000
vt 0.2921 0.8275 0.0000
vt 0.2919 0.8272 0.0000
vt 0.2919 0.8273 0.0000
vt 0.2920 0.8269 0.0000
vt 0.2919 0.8317 0.0000
vt 0.2918 0.8481 0.0000
vt 0.2917 0.8481 0.0000
vt 0.2917 0.8482 0.0000
vt 0.2917 0.8483 0.0000
vt 0.2918 0.8480 0.0000
vt 0.2918 0.8482 0.0000
vt 0.2917 0.8484 0.0000
vt 0.2918 0.8483 0.0000
vt 0.2904 0.8287 0.0000
vt 0.2905 0.8286 0.0000
vt 0.2904 0.8282 0.0000
vt 0.2905 0.8283 0.0000
vt 0.2906 0.8284 0.0000
vt 0.2903 0.8288 0.0000
vt 0.2902 0.8289 0.0000
vt 0.2900 0.8289 0.0000
vt 0.2898 0.8288 0.0000
vt 0.2897 0.8287 0.0000
vt 0.2897 0.8285 0.0000
vt 0.2897 0.8284 0.0000
vt 0.2898 0.8282 0.0000
vt 0.2899 0.8281 0.0000
vt 0.2901 0.8281 0.0000
vt 0.2903 0.8281 0.0000
vt 0.3150 0.9302 0.0000
vt 0.3650 0.9302 0.0000
vt 0.3650 0.9802 0.0000
vt 0.3150 0.9802 0.0000
vt 0.3400 0.9802 0.0000
vt 0.3496 0.9783 0.0000
vt 0.3577 0.9729 0.0000
vt 0.3631 0.9648 0.0000
vt 0.3650 0.9552 0.0000
vt 0.3631 0.9457 0.0000
vt 0.3577 0.9376 0.0000
vt 0.3496 0.9321 0.0000
vt 0.3400 0.9302 0.0000
vt 0.3305 0.9321 0.0000
vt 0.3224 0.9376 0.0000
vt 0.3170 0.9457 0.0000
vt 0.3150 0.9552 0.0000
vt 0.3170 0.9648 0.0000
vt 0.3224 0.9729 0.0000
vt 0.3305 0.9783 0.0000
# 131 texture coords

g SPW_Urban_Bldg_13
usemtl SPW_Urban_Bldg_13
s off
f 1/1/1 2/2/1 3/3/1 4/4/1 
f 5/1/2 1/2/2 4/3/2 6/4/2 
f 7/1/3 2/2/3 1/3/3 5/4/3 
f 2/1/4 7/2/4 8/3/4 3/4/4 
f 4/1/5 3/2/5 8/3/5 6/4/5 
f 5/1/6 6/2/6 8/3/6 7/4/6 
f 9/1/4 10/2/4 11/3/4 12/4/4 
f 13/1/3 10/2/3 9/3/3 14/4/3 
f 10/1/7 13/2/7 15/3/7 11/4/7 
f 12/1/5 11/2/5 15/3/5 16/4/5 
f 13/1/2 14/2/2 16/3/2 15/4/2 
f 9/1/8 12/2/8 16/3/8 14/4/8 
f 17/1/9 18/2/9 19/3/9 20/4/9 
f 21/1/10 17/2/10 20/3/10 22/4/10 
f 23/1/11 18/2/11 17/3/11 21/4/11 
f 18/1/12 23/2/12 24/3/12 19/4/12 
f 20/1/5 19/2/5 24/3/5 22/4/5 
f 21/1/13 22/2/13 24/3/13 23/4/13 
f 25/1/12 26/2/12 27/3/12 28/4/12 
f 29/1/11 26/2/11 25/3/11 30/4/11 
f 26/1/14 29/2/14 31/3/14 27/4/14 
f 28/1/5 27/2/5 31/3/5 32/4/5 
f 29/1/10 30/2/10 32/3/10 31/4/10 
f 25/1/15 28/2/15 32/3/15 30/4/15 
f 33/1/16 34/2/16 35/3/16 36/4/16 
f 37/1/17 33/2/17 36/3/17 38/4/17 
f 39/1/11 34/2/11 33/3/11 37/4/11 
f 34/1/18 39/2/18 40/3/18 35/4/18 
f 36/1/19 35/2/19 40/3/19 38/4/19 
f 37/1/20 38/2/20 40/3/20 39/4/20 
f 41/1/18 42/2/18 43/3/18 44/4/18 
f 45/1/11 42/2/11 41/3/11 46/4/11 
f 42/1/21 45/2/21 47/3/21 43/4/21 
f 44/1/19 43/2/19 47/3/19 48/4/19 
f 45/1/17 46/2/17 48/3/17 47/4/17 
f 41/1/22 44/2/22 48/3/22 46/4/22 
f 49/1/23 50/2/23 51/3/23 52/4/23 
f 53/1/24 49/2/24 52/3/24 54/4/24 
f 55/1/25 50/2/25 49/3/25 53/4/25 
f 50/1/26 55/2/26 56/3/26 51/4/26 
f 52/1/19 51/2/19 56/3/19 54/4/19 
f 53/1/27 54/2/27 56/3/27 55/4/27 
f 57/1/26 58/2/26 59/3/26 60/4/26 
f 61/1/25 58/2/25 57/3/25 62/4/25 
f 58/1/28 61/2/28 63/3/28 59/4/28 
f 60/1/19 59/2/19 63/3/19 64/4/19 
f 61/1/24 62/2/24 64/3/24 63/4/24 
f 57/1/29 60/2/29 64/3/29 62/4/29 
f 65/1/30 66/2/30 67/3/30 68/4/30 
f 69/1/31 65/2/31 68/3/31 70/4/31 
f 71/1/11 66/2/11 65/3/11 69/4/11 
f 66/1/32 71/2/32 72/3/32 67/4/32 
f 68/1/5 67/2/5 72/3/5 70/4/5 
f 69/1/33 70/2/33 72/3/33 71/4/33 
f 73/1/34 74/2/34 75/3/34 76/4/34 
f 77/1/11 74/2/11 73/3/11 78/4/11 
f 74/1/35 77/2/35 79/3/35 75/4/35 
f 76/1/5 75/2/5 79/3/5 80/4/5 
f 77/1/36 78/2/36 80/3/36 79/4/36 
f 73/1/37 76/2/37 80/3/37 78/4/37 
f 81/1/38 82/2/38 83/3/38 84/4/38 
f 85/1/39 81/2/39 84/3/39 86/4/39 
f 87/1/11 82/2/11 81/3/11 85/4/11 
f 82/1/40 87/2/40 88/3/40 83/4/40 
f 84/1/19 83/2/19 88/3/19 86/4/19 
f 85/1/41 86/2/41 88/3/41 87/4/41 
f 89/1/40 90/2/40 91/3/40 92/4/40 
f 93/1/11 90/2/11 89/3/11 94/4/11 
f 90/1/42 93/2/42 95/3/42 91/4/42 
f 92/1/19 91/2/19 95/3/19 96/4/19 
f 93/1/39 94/2/39 96/3/39 95/4/39 
f 89/1/43 92/2/43 96/3/43 94/4/43 
f 97/1/44 98/2/44 99/3/44 100/4/44 
f 101/1/45 97/2/45 100/3/45 102/4/45 
f 103/1/11 98/2/11 97/3/11 101/4/11 
f 98/1/46 103/2/46 104/3/46 99/4/46 
f 100/1/19 99/2/19 104/3/19 102/4/19 
f 101/1/47 102/2/47 104/3/47 103/4/47 
f 105/1/46 106/2/46 107/3/46 108/4/46 
f 109/1/11 106/2/11 105/3/11 110/4/11 
f 106/1/48 109/2/48 111/3/48 107/4/48 
f 108/1/19 107/2/19 111/3/19 112/4/19 
f 109/1/45 110/2/45 112/3/45 111/4/45 
f 105/1/49 108/2/49 112/3/49 110/4/49 
f 113/1/50 114/2/50 115/3/50 116/4/50 
f 117/1/51 113/2/51 116/3/51 118/4/51 
f 119/1/11 114/2/11 113/3/11 117/4/11 
f 114/1/52 119/2/52 120/3/52 115/4/52 
f 116/1/19 115/2/19 120/3/19 118/4/19 
f 117/1/53 118/2/53 120/3/53 119/4/53 
f 121/1/54 122/2/54 123/3/54 124/4/54 
f 125/1/11 122/2/11 121/3/11 126/4/11 
f 122/1/55 125/2/55 127/3/55 123/4/55 
f 124/1/19 123/2/19 127/3/19 128/4/19 
f 125/1/51 126/2/51 128/3/51 127/4/51 
f 121/1/56 124/2/56 128/3/56 126/4/56 
f 129/1/57 130/2/57 131/3/57 132/4/57 
s 1
f 133/5/58 134/6/5 135/7/19 136/8/58 
f 137/9/5 133/5/58 136/8/58 138/10/5 
f 139/11/19 137/9/5 138/10/5 140/12/19 
f 141/13/19 139/11/19 140/12/19 142/14/19 
f 143/15/19 141/13/19 142/14/19 144/16/19 
f 145/17/19 143/15/19 144/16/19 146/18/5 
f 147/19/59 145/17/19 146/18/5 148/20/59 
f 149/21/5 147/19/59 148/20/59 150/22/19 
f 151/15/58 149/13/5 150/11/19 152/9/58 
f 153/17/5 151/15/58 152/9/58 154/5/5 
f 132/19/19 153/17/5 154/5/5 155/6/19 
f 129/21/19 132/19/19 155/6/19 156/7/19 
f 157/12/59 135/14/19 134/16/5 158/18/59 
f 159/10/5 157/12/59 158/18/59 160/20/19 
f 161/8/19 159/10/5 160/20/19 162/22/19 
f 156/7/19 161/8/19 162/22/19 129/21/19 
s off
f 162/1/60 163/2/60 130/3/60 129/4/60 
s 1
f 164/5/11 165/6/11 166/7/11 167/8/11 
f 168/9/11 164/5/11 167/8/11 169/10/11 
f 170/11/11 168/9/11 169/10/11 171/12/11 
f 172/13/11 170/11/11 171/12/11 173/14/61 
f 174/15/61 172/13/11 173/14/61 175/16/61 
f 176/17/11 174/15/61 175/16/61 177/18/11 
f 163/19/11 176/17/11 177/18/11 178/20/11 
f 130/21/11 163/19/11 178/20/11 179/22/11 
f 180/6/11 166/7/11 165/8/11 181/10/11 
f 182/5/11 180/6/11 181/10/11 183/12/11 
f 184/9/61 182/5/11 183/12/11 185/14/61 
f 186/11/61 184/9/61 185/14/61 187/16/11 
f 188/13/11 186/11/61 187/16/11 189/18/11 
f 190/15/11 188/13/11 189/18/11 191/20/11 
f 192/17/11 190/15/11 191/20/11 131/22/11 
f 179/19/11 192/17/11 131/22/11 130/21/11 
s off
f 132/1/62 131/2/62 191/3/62 153/4/62 
f 153/1/63 191/2/63 189/3/63 151/4/63 
f 151/1/64 189/2/64 187/3/64 149/4/64 
f 149/1/65 187/2/65 185/3/65 147/4/65 
f 147/1/66 185/2/66 183/3/66 145/4/66 
f 145/1/67 183/2/67 181/3/67 143/4/67 
f 143/1/68 181/2/68 165/3/68 141/4/68 
f 141/1/69 165/2/69 164/3/69 139/4/69 
f 139/1/70 164/2/70 168/3/70 137/4/70 
f 137/1/71 168/2/71 170/3/71 133/4/71 
f 133/1/72 170/2/72 172/3/72 134/4/72 
f 134/1/73 172/2/73 174/3/73 158/4/73 
f 158/1/74 174/2/74 176/3/74 160/4/74 
f 160/1/75 176/2/75 163/3/75 162/4/75 
f 156/1/76 155/2/76 192/3/76 179/4/76 
f 161/1/77 156/2/77 179/3/77 178/4/77 
f 155/1/78 154/2/78 190/3/78 192/4/78 
f 159/1/79 161/2/79 178/3/79 177/4/79 
f 154/1/80 152/2/80 188/3/80 190/4/80 
f 157/1/81 159/2/81 177/3/81 175/4/81 
f 152/1/82 150/2/82 186/3/82 188/4/82 
f 135/1/83 157/2/83 175/3/83 173/4/83 
f 150/1/84 148/2/84 184/3/84 186/4/84 
f 136/1/85 135/2/85 173/3/85 171/4/85 
f 148/1/86 146/2/86 182/3/86 184/4/86 
f 138/1/87 136/2/87 171/3/87 169/4/87 
f 146/1/88 144/2/88 180/3/88 182/4/88 
f 140/1/89 138/2/89 169/3/89 167/4/89 
f 144/1/90 142/2/90 166/3/90 180/4/90 
f 142/1/91 140/2/91 167/3/91 166/4/91 
f 193/23/92 194/24/92 195/25/92 196/25/92 
f 197/26/93 198/27/93 199/28/93 200/29/93 
f 201/30/94 202/30/94 203/25/94 204/25/94 
f 198/27/95 205/31/95 206/32/95 199/28/95 
f 207/23/96 193/23/96 196/25/96 208/25/96 
f 205/31/97 209/33/97 210/34/97 206/32/97 
f 202/30/98 211/35/98 212/25/98 203/25/98 
f 209/33/99 213/36/99 214/37/99 210/34/99 
f 215/23/100 207/23/100 208/25/100 216/25/100 
f 217/38/101 218/39/101 219/25/101 220/25/101 
f 211/35/102 221/40/102 222/25/102 212/25/102 
f 213/36/103 223/41/103 224/42/103 214/37/103 
f 225/43/104 226/44/104 227/45/104 228/46/104 
f 229/47/105 217/38/105 220/25/105 230/25/105 
f 223/41/106 231/48/106 232/49/106 224/42/106 
f 221/40/107 215/23/107 216/25/107 222/25/107 
f 220/25/108 219/25/108 233/50/108 200/51/108 
f 230/25/109 220/25/109 200/51/109 199/51/109 
f 219/25/110 234/25/110 235/52/110 233/50/110 
f 236/25/111 230/25/111 199/51/111 206/4/111 
f 234/25/112 237/25/112 238/52/112 235/52/112 
f 239/25/113 236/25/113 206/4/113 210/53/113 
f 237/25/114 240/25/114 241/52/114 238/52/114 
f 195/25/115 239/25/115 210/53/115 214/53/115 
f 240/25/116 204/25/116 242/52/116 241/52/116 
f 196/25/117 195/25/117 214/53/117 224/54/117 
f 204/25/118 203/25/118 243/52/118 242/52/118 
f 208/25/119 196/25/119 224/54/119 232/55/119 
f 203/25/120 212/25/120 227/55/120 243/52/120 
f 216/25/121 208/25/121 232/55/121 244/55/121 
f 212/25/122 222/25/122 228/55/122 227/55/122 
f 222/25/123 216/25/123 244/55/123 228/55/123 
f 245/56/124 201/30/124 204/25/124 240/25/124 
f 246/57/125 197/26/125 200/29/125 233/29/125 
f 194/24/126 247/58/126 239/25/126 195/25/126 
f 248/59/127 246/57/127 233/29/127 235/60/127 
f 249/61/128 245/56/128 240/25/128 237/25/128 
f 250/62/129 248/59/129 235/60/129 238/63/129 
f 247/58/130 251/47/130 236/25/130 239/25/130 
f 252/64/131 250/62/131 238/63/131 241/65/131 
f 253/66/132 249/61/132 237/25/132 234/25/132 
f 254/67/133 252/64/133 241/65/133 242/68/133 
f 255/69/134 225/43/134 228/46/134 244/70/134 
f 251/47/135 229/47/135 230/25/135 236/25/135 
f 256/71/136 254/67/136 242/68/136 243/72/136 
f 231/48/137 255/69/137 244/70/137 232/49/137 
f 218/39/138 253/66/138 234/25/138 219/25/138 
f 226/44/139 256/71/139 243/72/139 227/45/139 
f 241/73/140 238/73/140 257/74/140 258/74/140 
f 214/75/141 210/76/141 259/77/141 260/77/141 
f 242/78/142 241/73/142 258/74/142 261/74/142 
f 210/76/143 206/79/143 262/77/143 259/77/143 
f 243/80/144 242/78/144 261/74/144 263/74/144 
f 206/79/145 199/81/145 264/77/145 262/77/145 
f 227/82/146 243/80/146 263/74/146 265/74/146 
f 199/81/147 200/83/147 266/77/147 264/77/147 
f 244/84/148 228/85/148 267/74/148 268/74/148 
f 227/82/149 228/85/149 267/74/149 265/74/149 
f 233/73/150 200/83/150 266/77/150 269/77/150 
f 232/75/151 244/84/151 268/74/151 270/74/151 
f 235/73/152 233/73/152 269/77/152 271/74/152 
f 232/75/153 224/86/153 272/74/153 270/74/153 
f 238/73/154 235/73/154 271/74/154 257/74/154 
f 224/86/155 214/75/155 260/77/155 272/74/155 
f 265/74/156 263/74/156 273/87/156 274/87/156 
f 264/77/157 266/77/157 275/87/157 276/87/157 
f 268/74/158 267/74/158 277/87/158 278/87/158 
f 265/74/159 267/74/159 277/87/159 274/87/159 
f 269/77/160 266/77/160 275/87/160 279/87/160 
f 270/74/161 268/74/161 278/87/161 280/87/161 
f 271/74/162 269/77/162 279/87/162 281/87/162 
f 270/74/163 272/74/163 282/87/163 280/87/163 
f 257/74/163 271/74/163 281/87/163 283/87/163 
f 272/74/164 260/77/164 284/87/164 282/87/164 
f 258/74/164 257/74/164 283/87/164 285/87/164 
f 260/77/165 259/77/165 286/87/165 284/87/165 
f 261/74/165 258/74/165 285/87/165 287/87/165 
f 259/77/166 262/77/166 288/87/166 286/87/166 
f 263/74/166 261/74/166 287/87/166 273/87/166 
f 262/77/156 264/77/156 276/87/156 288/87/156 
f 284/87/167 286/87/167 289/88/167 290/88/167 
f 287/87/168 285/87/168 291/89/168 292/90/168 
f 286/87/169 288/87/169 293/88/169 289/88/169 
f 273/87/170 287/87/170 292/90/170 294/90/170 
f 288/87/171 276/87/171 295/88/171 293/88/171 
f 274/87/172 273/87/172 294/90/172 296/91/172 
f 276/87/173 275/87/173 297/92/173 295/88/173 
f 278/87/174 277/87/174 298/91/174 299/91/174 
f 274/87/175 277/87/175 298/91/175 296/91/175 
f 279/87/176 275/87/176 297/92/176 300/88/176 
f 280/87/177 278/87/177 299/91/177 301/90/177 
f 281/87/178 279/87/178 300/88/178 302/89/178 
f 280/87/179 282/87/179 303/93/179 301/90/179 
f 283/87/180 281/87/180 302/89/180 304/89/180 
f 282/87/181 284/87/181 290/88/181 303/93/181 
f 285/87/182 283/87/182 304/89/182 291/89/182 
s 1
f 302/89/11 300/88/11 305/89/11 306/89/11 
f 301/90/19 303/93/19 307/93/19 308/93/19 
f 304/89/11 302/89/11 306/89/11 309/89/11 
f 303/93/19 290/88/19 310/88/19 307/93/19 
s off
f 291/89/11 304/89/11 309/89/11 311/89/11 
s 1
f 290/88/19 289/88/19 312/88/19 310/88/19 
s off
f 292/90/11 291/89/11 311/89/11 313/90/11 
s 1
f 289/88/19 293/88/19 314/88/19 312/88/19 
s off
f 294/90/11 292/90/11 313/90/11 315/90/11 
s 1
f 293/88/19 295/88/19 316/88/19 314/88/19 
s off
f 296/91/11 294/90/11 315/90/11 317/91/11 
s 1
f 295/88/19 297/92/19 318/88/19 316/88/19 
s off
f 299/91/11 298/91/11 319/94/11 320/95/11 
f 296/91/19 298/91/19 319/94/19 317/91/19 
f 300/88/11 297/92/11 318/88/11 305/89/11 
f 301/90/11 299/91/11 320/95/11 308/93/11 
f 317/91/183 315/90/183 321/90/183 322/90/183 
f 316/88/184 318/88/184 323/90/184 324/93/184 
f 320/95/185 319/94/185 325/90/185 326/93/185 
f 317/91/186 319/94/186 325/90/186 322/90/186 
f 305/89/187 318/88/187 323/90/187 327/90/187 
f 308/93/188 320/95/188 326/93/188 328/93/188 
f 306/89/189 305/89/189 327/90/189 329/90/189 
f 308/93/190 307/93/190 330/93/190 328/93/190 
f 309/89/191 306/89/191 329/90/191 331/90/191 
f 307/93/192 310/88/192 332/93/192 330/93/192 
f 311/89/193 309/89/193 331/90/193 333/90/193 
f 310/88/194 312/88/194 334/93/194 332/93/194 
f 313/90/195 311/89/195 333/90/195 335/90/195 
f 312/88/196 314/88/196 336/93/196 334/93/196 
f 315/90/197 313/90/197 335/90/197 321/90/197 
f 314/88/198 316/88/198 324/93/198 336/93/198 
f 325/90/11 322/90/11 321/90/11 335/90/11 
f 325/90/11 335/90/11 333/90/11 331/90/11 
f 325/90/11 331/90/11 329/90/11 327/90/11 
f 325/90/11 327/90/11 323/90/11 324/93/11 
f 325/90/11 324/93/11 336/93/11 334/93/11 
f 325/90/11 334/93/11 332/93/11 330/93/11 
f 325/90/11 330/93/11 328/93/11 326/93/11 
f 223/41/199 213/36/199 337/96/199 338/97/199 
f 339/98/19 340/99/19 341/100/19 338/97/19 
f 339/98/5 338/97/5 337/96/5 342/101/5 
f 339/98/19 342/101/19 343/102/19 344/103/19 
f 339/98/19 344/103/19 345/104/19 346/105/19 
f 339/98/5 346/105/5 347/106/5 348/107/5 
f 339/98/19 348/107/19 349/108/19 350/109/19 
f 339/98/5 350/109/5 351/110/5 352/111/5 
f 250/62/200 252/64/200 349/108/200 348/107/200 
f 213/36/201 209/33/201 342/101/201 337/96/201 
f 252/64/202 254/67/202 350/109/202 349/108/202 
f 209/33/203 205/31/203 343/102/203 342/101/203 
f 254/67/204 256/71/204 351/110/204 350/109/204 
f 205/31/205 198/27/205 344/103/205 343/102/205 
f 256/71/206 226/44/206 352/111/206 351/110/206 
f 198/27/207 197/26/207 345/104/207 344/103/207 
f 225/43/208 255/69/208 340/99/208 339/98/208 
f 226/44/209 225/43/209 339/98/209 352/111/209 
f 197/26/210 246/57/210 346/105/210 345/104/210 
f 255/69/211 231/48/211 341/100/211 340/99/211 
f 246/57/212 248/59/212 347/106/212 346/105/212 
f 231/48/213 223/41/213 338/97/213 341/100/213 
f 248/59/214 250/62/214 348/107/214 347/106/214 
f 353/1/57 354/2/57 355/3/57 356/4/57 
s 1
f 357/5/5 358/6/19 359/7/5 360/8/5 
f 361/9/5 357/5/5 360/8/5 362/10/5 
f 363/11/5 361/9/5 362/10/5 364/12/5 
f 365/13/58 363/11/5 364/12/5 366/14/58 
f 367/15/5 365/13/58 366/14/58 368/16/19 
f 369/17/19 367/15/5 368/16/19 370/18/19 
f 371/19/19 369/17/19 370/18/19 372/20/19 
f 373/21/19 371/19/19 372/20/19 374/22/5 
f 375/15/5 373/13/19 374/11/5 376/9/5 
f 377/17/5 375/15/5 376/9/5 378/5/5 
f 356/19/5 377/17/5 378/5/5 379/6/5 
f 353/21/58 356/19/5 379/6/5 380/7/58 
f 381/12/19 359/14/5 358/16/19 382/18/19 
f 383/10/19 381/12/19 382/18/19 384/20/19 
f 385/8/19 383/10/19 384/20/19 386/22/5 
f 380/7/58 385/8/19 386/22/5 353/21/58 
s off
f 386/1/60 387/2/60 354/3/60 353/4/60 
s 1
f 388/5/11 389/6/61 390/7/61 391/8/11 
f 392/9/11 388/5/11 391/8/11 393/10/11 
f 394/11/11 392/9/11 393/10/11 395/12/11 
f 396/13/11 394/11/11 395/12/11 397/14/61 
f 398/15/61 396/13/11 397/14/61 399/16/61 
f 400/17/61 398/15/61 399/16/61 401/18/61 
f 387/19/61 400/17/61 401/18/61 402/20/61 
f 354/21/61 387/19/61 402/20/61 403/22/61 
f 404/6/61 390/7/61 389/8/61 405/10/61 
f 406/5/61 404/6/61 405/10/61 407/12/61 
f 408/9/61 406/5/61 407/12/61 409/14/61 
f 410/11/61 408/9/61 409/14/61 411/16/11 
f 412/13/11 410/11/61 411/16/11 413/18/11 
f 414/15/11 412/13/11 413/18/11 415/20/11 
f 416/17/11 414/15/11 415/20/11 355/22/11 
f 403/19/61 416/17/11 355/22/11 354/21/61 
s off
f 356/1/62 355/2/62 415/3/62 377/4/62 
f 377/1/63 415/2/63 413/3/63 375/4/63 
f 375/1/64 413/2/64 411/3/64 373/4/64 
f 373/1/65 411/2/65 409/3/65 371/4/65 
f 371/1/66 409/2/66 407/3/66 369/4/66 
f 369/1/67 407/2/67 405/3/67 367/4/67 
f 367/1/68 405/2/68 389/3/68 365/4/68 
f 365/1/69 389/2/69 388/3/69 363/4/69 
f 363/1/70 388/2/70 392/3/70 361/4/70 
f 361/1/71 392/2/71 394/3/71 357/4/71 
f 357/1/72 394/2/72 396/3/72 358/4/72 
f 358/1/73 396/2/73 398/3/73 382/4/73 
f 382/1/74 398/2/74 400/3/74 384/4/74 
f 384/1/75 400/2/75 387/3/75 386/4/75 
f 380/1/76 379/2/76 416/3/76 403/4/76 
f 385/1/77 380/2/77 403/3/77 402/4/77 
f 379/1/78 378/2/78 414/3/78 416/4/78 
f 383/1/79 385/2/79 402/3/79 401/4/79 
f 378/1/80 376/2/80 412/3/80 414/4/80 
f 381/1/81 383/2/81 401/3/81 399/4/81 
f 376/1/82 374/2/82 410/3/82 412/4/82 
f 359/1/83 381/2/83 399/3/83 397/4/83 
f 374/1/84 372/2/84 408/3/84 410/4/84 
f 360/1/85 359/2/85 397/3/85 395/4/85 
f 372/1/86 370/2/86 406/3/86 408/4/86 
f 362/1/87 360/2/87 395/3/87 393/4/87 
f 370/1/88 368/2/88 404/3/88 406/4/88 
f 364/1/89 362/2/89 393/3/89 391/4/89 
f 368/1/90 366/2/90 390/3/90 404/4/90 
f 366/1/91 364/2/91 391/3/91 390/4/91 
f 417/1/215 418/2/215 419/3/215 420/4/215 
s 1
f 421/5/5 422/6/19 423/7/19 424/8/5 
f 425/9/5 421/5/5 424/8/5 426/10/5 
f 427/11/19 425/9/5 426/10/5 428/12/19 
f 429/13/19 427/11/19 428/12/19 430/14/19 
f 431/15/19 429/13/19 430/14/19 432/16/19 
f 433/17/19 431/15/19 432/16/19 434/18/19 
f 435/19/19 433/17/19 434/18/19 436/20/19 
f 437/21/19 435/19/19 436/20/19 438/22/19 
f 439/15/5 437/13/19 438/11/19 440/9/5 
f 441/17/5 439/15/5 440/9/5 442/5/5 
f 420/19/19 441/17/5 442/5/5 443/6/19 
f 417/21/19 420/19/19 443/6/19 444/7/19 
f 445/12/19 423/14/19 422/16/19 446/18/19 
f 447/10/19 445/12/19 446/18/19 448/20/19 
f 449/8/19 447/10/19 448/20/19 450/22/19 
f 444/7/19 449/8/19 450/22/19 417/21/19 
s off
f 450/1/216 451/2/216 418/3/216 417/4/216 
s 1
f 452/5/11 453/6/11 454/7/11 455/8/11 
f 456/9/11 452/5/11 455/8/11 457/10/61 
f 458/11/3 456/9/11 457/10/61 459/12/3 
f 460/13/61 458/11/3 459/12/3 461/14/11 
f 462/15/25 460/13/61 461/14/11 463/16/25 
f 464/17/61 462/15/25 463/16/25 465/18/61 
f 451/19/11 464/17/61 465/18/61 466/20/11 
f 418/21/11 451/19/11 466/20/11 467/22/11 
f 468/6/11 454/7/11 453/8/11 469/10/11 
f 470/5/61 468/6/11 469/10/11 471/12/61 
f 472/9/25 470/5/61 471/12/61 473/14/25 
f 474/11/11 472/9/25 473/14/25 475/16/61 
f 476/13/3 474/11/11 475/16/61 477/18/3 
f 478/15/61 476/13/3 477/18/3 479/20/11 
f 480/17/11 478/15/61 479/20/11 419/22/11 
f 467/19/11 480/17/11 419/22/11 418/21/11 
s off
f 420/1/217 419/2/217 479/3/217 441/4/217 
f 441/1/218 479/2/218 477/3/218 439/4/218 
f 439/1/219 477/2/219 475/3/219 437/4/219 
f 437/1/220 475/2/220 473/3/220 435/4/220 
f 435/1/221 473/2/221 471/3/221 433/4/221 
f 433/1/222 471/2/222 469/3/222 431/4/222 
f 431/1/223 469/2/223 453/3/223 429/4/223 
f 429/1/224 453/2/224 452/3/224 427/4/224 
f 427/1/225 452/2/225 456/3/225 425/4/225 
f 425/1/226 456/2/226 458/3/226 421/4/226 
f 421/1/227 458/2/227 460/3/227 422/4/227 
f 422/1/228 460/2/228 462/3/228 446/4/228 
f 446/1/229 462/2/229 464/3/229 448/4/229 
f 448/1/230 464/2/230 451/3/230 450/4/230 
f 444/1/231 443/2/231 480/3/231 467/4/231 
f 449/1/232 444/2/232 467/3/232 466/4/232 
f 443/1/233 442/2/233 478/3/233 480/4/233 
f 447/1/234 449/2/234 466/3/234 465/4/234 
f 442/1/235 440/2/235 476/3/235 478/4/235 
f 445/1/236 447/2/236 465/3/236 463/4/236 
f 440/1/237 438/2/237 474/3/237 476/4/237 
f 423/1/238 445/2/238 463/3/238 461/4/238 
f 438/1/239 436/2/239 472/3/239 474/4/239 
f 424/1/240 423/2/240 461/3/240 459/4/240 
f 436/1/241 434/2/241 470/3/241 472/4/241 
f 426/1/242 424/2/242 459/3/242 457/4/242 
f 434/1/243 432/2/243 468/3/243 470/4/243 
f 428/1/244 426/2/244 457/3/244 455/4/244 
f 432/1/245 430/2/245 454/3/245 468/4/245 
f 430/1/246 428/2/246 455/3/246 454/4/246 
f 481/1/215 482/2/215 483/3/215 484/4/215 
s 1
f 485/5/5 486/6/19 487/7/19 488/8/5 
f 489/9/5 485/5/5 488/8/5 490/10/5 
f 491/11/19 489/9/5 490/10/5 492/12/19 
f 493/13/19 491/11/19 492/12/19 494/14/19 
f 495/15/19 493/13/19 494/14/19 496/16/19 
f 497/17/19 495/15/19 496/16/19 498/18/19 
f 499/19/19 497/17/19 498/18/19 500/20/19 
f 501/21/19 499/19/19 500/20/19 502/22/19 
f 503/15/5 501/13/19 502/11/19 504/9/5 
f 505/17/5 503/15/5 504/9/5 506/5/5 
f 484/19/19 505/17/5 506/5/5 507/6/19 
f 481/21/19 484/19/19 507/6/19 508/7/19 
f 509/12/19 487/14/19 486/16/19 510/18/19 
f 511/10/19 509/12/19 510/18/19 512/20/19 
f 513/8/19 511/10/19 512/20/19 514/22/19 
f 508/7/19 513/8/19 514/22/19 481/21/19 
s off
f 514/1/216 515/2/216 482/3/216 481/4/216 
s 1
f 516/5/11 517/6/11 518/7/11 519/8/11 
f 520/9/11 516/5/11 519/8/11 521/10/11 
f 522/11/11 520/9/11 521/10/11 523/12/11 
f 524/13/11 522/11/11 523/12/11 525/14/11 
f 526/15/61 524/13/11 525/14/11 527/16/61 
f 528/17/61 526/15/61 527/16/61 529/18/61 
f 515/19/11 528/17/61 529/18/61 530/20/11 
f 482/21/11 515/19/11 530/20/11 531/22/11 
f 532/6/11 518/7/11 517/8/11 533/10/11 
f 534/5/61 532/6/11 533/10/11 535/12/61 
f 536/9/61 534/5/61 535/12/61 537/14/61 
f 538/11/11 536/9/61 537/14/61 539/16/11 
f 540/13/11 538/11/11 539/16/11 541/18/11 
f 542/15/11 540/13/11 541/18/11 543/20/11 
f 544/17/11 542/15/11 543/20/11 483/22/11 
f 531/19/11 544/17/11 483/22/11 482/21/11 
s off
f 484/1/217 483/2/217 543/3/217 505/4/217 
f 505/1/218 543/2/218 541/3/218 503/4/218 
f 503/1/219 541/2/219 539/3/219 501/4/219 
f 501/1/220 539/2/220 537/3/220 499/4/220 
f 499/1/221 537/2/221 535/3/221 497/4/221 
f 497/1/222 535/2/222 533/3/222 495/4/222 
f 495/1/223 533/2/223 517/3/223 493/4/223 
f 493/1/224 517/2/224 516/3/224 491/4/224 
f 491/1/225 516/2/225 520/3/225 489/4/225 
f 489/1/226 520/2/226 522/3/226 485/4/226 
f 485/1/227 522/2/227 524/3/227 486/4/227 
f 486/1/228 524/2/228 526/3/228 510/4/228 
f 510/1/229 526/2/229 528/3/229 512/4/229 
f 512/1/230 528/2/230 515/3/230 514/4/230 
f 508/1/231 507/2/231 544/3/231 531/4/231 
f 513/1/232 508/2/232 531/3/232 530/4/232 
f 507/1/233 506/2/233 542/3/233 544/4/233 
f 511/1/234 513/2/234 530/3/234 529/4/234 
f 506/1/235 504/2/235 540/3/235 542/4/235 
f 509/1/236 511/2/236 529/3/236 527/4/236 
f 504/1/237 502/2/237 538/3/237 540/4/237 
f 487/1/238 509/2/238 527/3/238 525/4/238 
f 502/1/239 500/2/239 536/3/239 538/4/239 
f 488/1/240 487/2/240 525/3/240 523/4/240 
f 500/1/241 498/2/241 534/3/241 536/4/241 
f 490/1/242 488/2/242 523/3/242 521/4/242 
f 498/1/243 496/2/243 532/3/243 534/4/243 
f 492/1/244 490/2/244 521/3/244 519/4/244 
f 496/1/245 494/2/245 518/3/245 532/4/245 
f 494/1/246 492/2/246 519/3/246 518/4/246 
f 545/112/247 546/113/247 547/114/247 548/115/247 
f 548/112/248 547/113/248 549/114/248 550/115/248 
f 550/112/249 549/113/249 551/114/249 552/115/249 
f 552/112/250 551/113/250 553/114/250 554/115/250 
f 554/112/251 553/113/251 555/114/251 556/115/251 
f 556/112/252 555/113/252 557/114/252 558/115/252 
f 558/112/253 557/113/253 559/114/253 560/115/253 
f 560/112/254 559/113/254 561/114/254 562/115/254 
f 562/112/255 561/113/255 563/114/255 564/115/255 
f 564/112/256 563/113/256 565/114/256 566/115/256 
f 566/112/257 565/113/257 567/114/257 568/115/257 
f 568/112/258 567/113/258 569/114/258 570/115/258 
f 570/112/259 569/113/259 571/114/259 572/115/259 
f 572/112/260 571/113/260 573/114/260 574/115/260 
f 547/116/11 546/117/11 575/118/11 573/119/11 
f 547/116/11 573/119/11 571/120/11 569/121/11 
f 547/116/61 569/121/61 567/122/61 565/123/61 
f 547/116/61 565/123/61 563/124/61 561/125/61 
f 547/116/11 561/125/11 559/126/11 557/127/11 
f 547/116/11 557/127/11 555/128/11 553/129/11 
f 547/116/61 553/129/61 551/130/61 549/131/61 
f 574/112/261 573/113/261 575/114/261 576/115/261 
f 576/112/262 575/113/262 546/114/262 545/115/262 
f 545/116/19 548/117/19 550/118/19 552/119/19 
f 545/116/5 552/119/5 554/120/5 556/121/5 
f 545/116/19 556/121/19 558/122/19 560/123/19 
f 545/116/19 560/123/19 562/124/19 564/125/19 
f 545/116/5 564/125/5 566/126/5 568/127/5 
f 545/116/19 568/127/19 570/128/19 572/129/19 
f 545/116/19 572/129/19 574/130/19 576/131/19 
# 540 polygons

