# 3ds Max Wavefront OBJ Exporter v0.97b - (c)2007 guruware
# File Created: 15.03.2017 11:09:02

mtllib SPW_Urban_Road Props_Barrier 01_Part 02.mtl

#
# object SPW_Urban_Road_Props_Barrier_01_Part_02
#

v  -196.8504 7.8740 19.6850
v  -196.8504 7.8740 -19.6850
v  -196.8504 0.0000 -19.6850
v  -196.8504 -0.0000 19.6850
v  196.8504 7.8740 -19.6850
v  196.8504 0.0000 -19.6850
v  196.8504 7.8740 19.6850
v  196.8504 -0.0000 19.6850
v  196.8504 23.6220 11.4220
v  -196.8504 23.6220 11.4220
v  196.8505 66.9291 6.9540
v  -196.8505 66.9291 6.9540
v  196.8504 23.6220 -11.4220
v  -196.8504 23.6220 -11.4220
v  196.8505 66.9291 -6.9540
v  -196.8505 66.9291 -6.9540
# 16 vertices

vn -1.0000 0.0000 -0.0000
vn 0.0000 0.0000 -1.0000
vn 1.0000 0.0000 -0.0000
vn 0.0000 -0.0000 1.0000
vn 0.0000 -1.0000 -0.0000
vn 0.0000 0.4646 0.8855
vn 0.0000 0.1026 0.9947
vn 1.0000 -0.0000 -0.0000
vn 0.0000 0.4646 -0.8855
vn -1.0000 -0.0000 -0.0000
vn 0.0000 1.0000 0.0000
vn 0.0000 0.1026 -0.9947
# 12 vertex normals

vt 0.3667 0.3963 0.0000
vt 0.4167 0.3963 0.0000
vt 0.4167 0.4463 0.0000
vt 0.3667 0.4463 0.0000
# 4 texture coords

g SPW_Urban_Road_Props_Barrier_01_Part_02
usemtl SPW_Urban_Road
s off
f 1/1/1 2/2/1 3/3/1 4/4/1 
f 2/1/2 5/2/2 6/3/2 3/4/2 
f 5/1/3 7/2/3 8/3/3 6/4/3 
f 7/1/4 1/2/4 4/3/4 8/4/4 
f 4/1/5 3/2/5 6/3/5 8/4/5 
f 1/1/6 7/2/6 9/3/6 10/4/6 
f 10/1/7 9/2/7 11/3/7 12/4/7 
f 7/1/8 5/2/8 13/3/8 9/4/8 
f 5/1/9 2/2/9 14/3/9 13/4/9 
f 2/1/10 1/2/10 10/3/10 14/4/10 
f 11/1/11 15/2/11 16/3/11 12/4/11 
f 9/1/8 13/2/8 15/3/8 11/4/8 
f 13/1/12 14/2/12 16/3/12 15/4/12 
f 14/1/10 10/2/10 12/3/10 16/4/10 
# 14 polygons

