# 3ds Max Wavefront OBJ Exporter v0.97b - (c)2007 guruware
# File Created: 15.03.2017 11:09:40

mtllib SPW_Urban_Road Props_Billboard_01.mtl

#
# object SPW_Urban_Road_Props_Billboard_01
#

v  -118.1102 370.0787 6.8898
v  -118.1102 370.0787 -6.8897
v  -118.1102 251.9685 -6.8897
v  -118.1102 251.9685 6.8898
v  118.1102 251.9685 -6.8897
v  -112.2239 257.9624 -6.8897
v  112.2239 257.9624 -6.8897
v  118.1102 370.0787 -6.8897
v  118.1102 370.0787 6.8898
v  118.1102 251.9685 6.8898
v  112.2333 257.9582 6.8898
v  -112.2333 257.9582 6.8898
v  112.2333 257.9582 5.9055
v  -112.2333 257.9582 5.9055
v  -112.2333 364.0891 6.8898
v  112.2333 364.0891 6.8898
v  112.2333 364.0891 5.9056
v  -112.2333 364.0891 5.9056
v  -112.2239 257.9624 -5.9055
v  112.2239 257.9624 -5.9055
v  112.2239 364.0848 -6.8897
v  -112.2239 364.0848 -6.8897
v  -112.2239 364.0848 -5.9055
v  112.2239 364.0848 -5.9055
v  6.1789 0.0005 -10.5648
v  -6.1788 0.0005 -10.5648
v  -6.1788 236.2199 -10.5648
v  6.1789 236.2199 -10.5648
v  -10.5648 0.0005 -6.1788
v  -10.5648 236.2199 -6.1788
v  -10.5648 0.0005 6.1788
v  -10.5648 236.2199 6.1788
v  -6.1788 0.0005 10.5648
v  -6.1788 236.2200 10.5648
v  6.1788 0.0005 10.5648
v  6.1788 236.2200 10.5648
v  10.5648 0.0005 6.1788
v  10.5648 236.2199 6.1789
v  10.5648 0.0005 -6.1789
v  10.5648 236.2199 -6.1788
v  -19.6850 3.9370 19.6850
v  -19.6850 3.9370 -19.6850
v  -19.6850 0.0000 -19.6850
v  -19.6850 0.0000 19.6850
v  19.6850 3.9370 -19.6850
v  19.6850 0.0000 -19.6850
v  19.6850 3.9370 19.6850
v  19.6850 0.0000 19.6850
v  17.2601 3.9370 -18.3736
v  18.3736 3.9370 -17.2601
v  18.3736 0.0000 -17.2601
v  17.2601 0.0000 -18.3736
v  0.5568 20.1789 0.5568
v  -17.2601 3.9370 18.3736
v  -17.2601 0.0000 18.3736
v  0.5568 -0.0000 0.5568
v  -18.3736 3.9370 17.2601
v  -18.3736 0.0000 17.2601
v  -0.5568 20.1789 -0.5568
v  -0.5568 0.0000 -0.5568
v  18.3736 3.9370 17.2601
v  17.2601 3.9370 18.3736
v  17.2601 0.0000 18.3736
v  18.3736 0.0000 17.2601
v  -0.5568 20.1789 0.5568
v  -18.3736 3.9370 -17.2601
v  -18.3736 0.0000 -17.2601
v  -0.5568 -0.0000 0.5568
v  -17.2601 3.9370 -18.3736
v  -17.2601 0.0000 -18.3736
v  0.5568 20.1789 -0.5568
v  0.5568 0.0000 -0.5568
v  -102.3622 252.1293 3.9370
v  -102.3622 252.1293 -3.9370
v  -102.3622 236.3812 -3.9370
v  -102.3622 236.3812 3.9370
v  102.3622 252.1293 -3.9370
v  102.3622 236.3812 -3.9370
v  102.3622 252.1293 3.9370
v  102.3622 236.3812 3.9370
v  -118.1102 236.5181 -13.7795
v  -118.1102 236.5181 -21.6535
v  -118.1102 234.5496 -21.6535
v  -118.1102 234.5496 -13.7795
v  118.1102 236.5181 -21.6535
v  118.1102 234.5496 -21.6535
v  118.1102 236.5181 -13.7795
v  118.1102 234.5496 -13.7795
v  -118.1102 236.5181 -4.9212
v  -118.1102 236.5181 -12.7952
v  -118.1102 234.5496 -12.7952
v  -118.1102 234.5496 -4.9212
v  118.1102 236.5181 -12.7952
v  118.1102 234.5496 -12.7952
v  118.1102 236.5181 -4.9212
v  118.1102 234.5496 -4.9212
v  -118.1102 236.5181 3.9370
v  -118.1102 236.5181 -3.9370
v  -118.1102 234.5496 -3.9370
v  -118.1102 234.5496 3.9370
v  118.1102 236.5181 -3.9370
v  118.1102 234.5496 -3.9370
v  118.1102 236.5181 3.9370
v  118.1102 234.5496 3.9370
v  -118.1102 236.5181 12.7953
v  -118.1102 236.5181 4.9213
v  -118.1102 234.5496 4.9213
v  -118.1102 234.5496 12.7953
v  118.1102 236.5181 4.9213
v  118.1102 234.5496 4.9213
v  118.1102 236.5181 12.7953
v  118.1102 234.5496 12.7953
v  -118.1102 236.5181 21.6536
v  -118.1102 236.5181 13.7796
v  -118.1102 234.5496 13.7796
v  -118.1102 234.5496 21.6536
v  118.1102 236.5181 13.7796
v  118.1102 234.5496 13.7796
v  118.1102 236.5181 21.6536
v  118.1102 234.5496 21.6536
v  57.2674 236.1158 28.6660
v  57.2674 236.1158 8.7763
v  57.2674 232.5404 8.7763
v  57.2674 232.5404 28.6660
v  60.8428 236.1158 8.7763
v  60.8428 232.5404 8.7763
v  60.8428 236.1158 28.6660
v  60.8428 232.5404 28.6660
v  60.8428 237.5518 37.2066
v  57.2674 237.5518 37.2066
v  63.0884 237.7531 38.8514
v  55.0219 237.7531 38.8514
v  57.2674 241.1271 37.2066
v  60.8428 241.1271 37.2066
v  64.8289 243.4415 48.5062
v  53.2814 243.4415 48.5062
v  55.0219 242.4550 38.8514
v  63.0884 242.4550 38.8514
v  62.7992 245.8770 50.5752
v  55.3110 245.8770 50.5752
v  53.2814 248.1433 48.5063
v  64.8289 248.1433 48.5063
v  62.7992 248.9260 50.5752
v  55.3110 248.9260 50.5752
v  -60.8428 236.1158 28.6660
v  -60.8428 236.1158 8.7763
v  -60.8428 232.5404 8.7763
v  -60.8428 232.5404 28.6660
v  -57.2674 236.1158 8.7763
v  -57.2674 232.5404 8.7763
v  -57.2674 236.1158 28.6660
v  -57.2674 232.5404 28.6660
v  -57.2674 237.5518 37.2066
v  -60.8428 237.5518 37.2066
v  -55.0219 237.7531 38.8514
v  -63.0883 237.7531 38.8514
v  -60.8428 241.1272 37.2066
v  -57.2674 241.1272 37.2066
v  -53.2813 243.4415 48.5062
v  -64.8289 243.4415 48.5062
v  -63.0883 242.4550 38.8514
v  -55.0219 242.4550 38.8514
v  -55.3110 245.8770 50.5752
v  -62.7992 245.8770 50.5752
v  -64.8289 248.1434 48.5063
v  -53.2813 248.1434 48.5063
v  -55.3110 248.9260 50.5752
v  -62.7992 248.9260 50.5752
# 168 vertices

vn -1.0000 0.0000 -0.0000
vn -0.0000 0.0000 -1.0000
vn 0.0000 0.0000 -1.0000
vn 1.0000 0.0000 -0.0000
vn -0.0000 -0.0000 1.0000
vn 0.0000 -0.0000 1.0000
vn 0.0000 -1.0000 -0.0000
vn 0.0000 1.0000 0.0000
vn -0.7071 0.0000 -0.7071
vn -1.0000 -0.0000 -0.0000
vn -0.7071 -0.0000 0.7071
vn 0.7071 -0.0000 0.7071
vn 0.7071 0.0000 -0.7071
vn -0.0000 1.0000 -0.0000
vn 0.0000 1.0000 -0.0000
vn -0.0000 -1.0000 -0.0000
vn 0.0000 -1.0000 0.0000
vn -0.0000 -1.0000 0.0000
vn 0.3831 0.8405 -0.3831
vn -0.3831 0.8405 0.3831
vn 0.3831 0.8405 0.3831
vn -0.3831 0.8405 -0.3831
vn 0.0000 -0.0000 -1.0000
vn 0.0000 0.0000 1.0000
vn 0.0000 -0.8625 0.5061
vn 0.0000 -0.9926 0.1215
vn 0.0000 0.8625 -0.5061
vn 0.0000 -0.8616 0.5076
vn 0.0000 0.7781 -0.6282
vn 0.5909 0.0000 -0.8067
vn -0.5909 0.0000 -0.8067
vn 0.0000 -0.6474 0.7621
vn 0.0000 0.8616 -0.5076
vn 0.9841 0.0000 -0.1774
vn -0.9841 0.0000 -0.1774
vn -0.0000 0.9353 -0.3538
vn 0.7139 -0.0000 0.7003
vn -0.7139 -0.0000 0.7003
vn -0.0000 0.7781 -0.6282
vn -0.0000 0.8616 -0.5076
# 40 vertex normals

vt 0.0118 0.8940 0.0000
vt 0.0230 0.8940 0.0000
vt 0.0230 0.9052 0.0000
vt 0.0118 0.9052 0.0000
vt 0.9465 0.9571 0.0000
vt 0.1115 0.9571 0.0000
vt 0.1115 0.5623 0.0000
vt 0.9465 0.5623 0.0000
vt 0.9465 0.9573 0.0000
vt 0.1111 0.9573 0.0000
vt 0.1111 0.5623 0.0000
vt 0.0172 0.8995 0.0000
vt 0.0167 0.8994 0.0000
vt 0.0167 0.9076 0.0000
vt 0.0172 0.9077 0.0000
vt 0.0167 0.8993 0.0000
vt 0.0167 0.9075 0.0000
vt 0.0170 0.8992 0.0000
vt 0.0170 0.9073 0.0000
vt 0.0173 0.8992 0.0000
vt 0.0173 0.9073 0.0000
vt 0.0177 0.8993 0.0000
vt 0.0177 0.9074 0.0000
vt 0.0178 0.8993 0.0000
vt 0.0178 0.9075 0.0000
vt 0.0175 0.8995 0.0000
vt 0.0175 0.9077 0.0000
vt 0.0170 0.8991 0.0000
vt 0.0160 0.8995 0.0000
vt 0.0160 0.8994 0.0000
vt 0.0170 0.8989 0.0000
vt 0.0174 0.8998 0.0000
vt 0.0174 0.8997 0.0000
vt 0.0185 0.8994 0.0000
vt 0.0185 0.8993 0.0000
vt 0.0173 0.9000 0.0000
vt 0.0171 0.8991 0.0000
vt 0.0171 0.8990 0.0000
vt 0.0173 0.8993 0.0000
vt 0.0170 0.8990 0.0000
vt 0.0172 0.9000 0.0000
vt 0.0172 0.8993 0.0000
vt 0.0184 0.8994 0.0000
vt 0.0184 0.8993 0.0000
vt 0.0161 0.8995 0.0000
vt 0.0161 0.8994 0.0000
vt 0.0180 0.8603 0.0000
vt 0.0178 0.8604 0.0000
vt 0.0178 0.8598 0.0000
vt 0.0180 0.8597 0.0000
vt 0.0254 0.8621 0.0000
vt 0.0254 0.8615 0.0000
vt 0.0256 0.8620 0.0000
vt 0.0256 0.8614 0.0000
vt 0.0119 0.8202 0.0000
vt 0.0117 0.8203 0.0000
vt 0.0117 0.8202 0.0000
vt 0.0119 0.8201 0.0000
vt 0.0205 0.8222 0.0000
vt 0.0207 0.8221 0.0000
vt 0.0121 0.8201 0.0000
vt 0.0121 0.8200 0.0000
vt 0.0209 0.8220 0.0000
vt 0.0124 0.8200 0.0000
vt 0.0124 0.8199 0.0000
vt 0.0210 0.8220 0.0000
vt 0.0212 0.8219 0.0000
vt 0.0126 0.8199 0.0000
vt 0.0126 0.8198 0.0000
vt 0.0214 0.8218 0.0000
vt 0.0128 0.8198 0.0000
vt 0.0128 0.8197 0.0000
vt 0.0215 0.8218 0.0000
vt 0.0217 0.8217 0.0000
vt 0.0201 0.9076 0.0000
vt 0.0196 0.9079 0.0000
vt 0.0196 0.9077 0.0000
vt 0.0201 0.9075 0.0000
vt 0.0197 0.9079 0.0000
vt 0.0197 0.9078 0.0000
vt 0.0203 0.9077 0.0000
vt 0.0203 0.9075 0.0000
vt 0.0205 0.9076 0.0000
vt 0.0204 0.9076 0.0000
vt 0.0206 0.9076 0.0000
vt 0.0203 0.9076 0.0000
vt 0.0204 0.9077 0.0000
vt 0.0205 0.9077 0.0000
vt 0.0210 0.9077 0.0000
vt 0.0223 0.9795 0.0000
vt 0.0221 0.9795 0.0000
vt 0.0224 0.9795 0.0000
vt 0.0206 0.9078 0.0000
vt 0.0209 0.9078 0.0000
vt 0.0207 0.9077 0.0000
vt 0.0223 0.9796 0.0000
vt 0.0227 0.9796 0.0000
vt 0.0210 0.9079 0.0000
vt 0.0205 0.9078 0.0000
vt 0.0209 0.9079 0.0000
vt 0.0207 0.9078 0.0000
vt 0.0224 0.9796 0.0000
vt 0.0157 0.9067 0.0000
vt 0.0152 0.9069 0.0000
vt 0.0152 0.9068 0.0000
vt 0.0157 0.9065 0.0000
vt 0.0153 0.9069 0.0000
vt 0.0153 0.9068 0.0000
vt 0.0159 0.9067 0.0000
vt 0.0159 0.9066 0.0000
vt 0.0161 0.9066 0.0000
vt 0.0160 0.9066 0.0000
vt 0.0162 0.9067 0.0000
vt 0.0160 0.9067 0.0000
vt 0.0161 0.9068 0.0000
vt 0.0166 0.9068 0.0000
vt 0.0161 0.9067 0.0000
vt 0.0179 0.9785 0.0000
vt 0.0177 0.9785 0.0000
vt 0.0180 0.9786 0.0000
vt 0.0162 0.9068 0.0000
vt 0.0159 0.9068 0.0000
vt 0.0165 0.9068 0.0000
vt 0.0163 0.9067 0.0000
vt 0.0179 0.9786 0.0000
vt 0.0183 0.9787 0.0000
vt 0.0166 0.9069 0.0000
vt 0.0165 0.9069 0.0000
vt 0.0163 0.9068 0.0000
# 129 texture coords

g SPW_Urban_Road_Props_Billboard_01
usemtl SPW_Urban_Road_Props_03
s off
f 1/1/1 2/2/1 3/3/1 4/4/1 
s 1
f 5/1/2 3/2/3 6/3/3 7/4/2 
s off
f 8/1/4 9/2/4 10/3/4 5/4/4 
s 1
f 4/1/5 10/2/6 11/3/6 12/4/5 
s off
f 4/1/7 3/2/7 5/3/7 10/4/7 
f 9/1/8 8/2/8 2/3/8 1/4/8 
f 12/1/8 11/2/8 13/3/8 14/4/8 
s 1
f 9/1/5 1/2/6 15/3/6 16/4/5 
f 10/1/6 9/2/5 16/3/5 11/4/6 
f 1/1/6 4/2/5 12/3/5 15/4/6 
s off
f 17/5/6 18/6/6 14/7/6 13/8/6 
f 16/1/7 15/2/7 18/3/7 17/4/7 
f 11/1/1 16/2/1 17/3/1 13/4/1 
f 15/1/4 12/2/4 14/3/4 18/4/4 
f 7/1/8 6/2/8 19/3/8 20/4/8 
s 1
f 8/1/3 5/2/2 7/3/2 21/4/3 
f 2/1/2 8/2/3 21/3/3 22/4/2 
f 3/1/3 2/2/2 22/3/2 6/4/3 
s off
f 23/9/3 24/10/3 20/11/3 19/8/3 
f 21/1/1 7/2/1 20/3/1 24/4/1 
f 22/1/7 21/2/7 24/3/7 23/4/7 
f 6/1/4 22/2/4 23/3/4 19/4/4 
f 25/12/3 26/13/3 27/14/3 28/15/3 
f 26/13/9 29/16/9 30/17/9 27/14/9 
f 29/16/10 31/18/10 32/19/10 30/17/10 
f 31/18/11 33/20/11 34/21/11 32/19/11 
f 33/20/5 35/22/5 36/23/5 34/21/5 
f 35/22/12 37/24/12 38/25/12 36/23/12 
f 37/24/4 39/26/4 40/27/4 38/25/4 
f 39/26/13 25/12/13 28/15/13 40/27/13 
f 40/27/8 28/15/8 27/14/8 30/17/8 
f 40/27/14 30/17/14 32/19/14 34/21/14 
f 40/27/15 34/21/15 36/23/15 38/25/15 
f 25/12/16 39/26/16 37/24/16 35/22/16 
f 25/12/7 35/22/7 33/20/7 31/18/7 
f 25/12/16 31/18/16 29/16/16 26/13/16 
f 41/28/1 42/29/1 43/30/1 44/31/1 
f 42/29/3 45/32/3 46/33/3 43/30/3 
f 45/32/4 47/34/4 48/35/4 46/33/4 
f 47/34/6 41/28/6 44/31/6 48/35/6 
f 44/31/17 43/30/17 46/33/17 48/35/17 
f 47/34/15 45/32/15 42/29/15 41/28/15 
f 49/32/13 50/32/13 51/33/13 52/33/13 
s 1
f 53/36/12 54/37/12 55/38/12 56/39/12 
s off
f 54/37/11 57/28/11 58/40/11 55/38/11 
s 1
f 59/41/9 49/32/9 52/33/9 60/42/9 
s 2
f 60/42/16 56/39/16 55/38/18 58/40/18 
s off
f 59/41/19 53/36/19 50/32/19 49/32/19 
f 57/28/20 54/37/20 53/36/20 59/41/20 
s 2
f 52/33/7 51/33/7 56/39/16 60/42/16 
s 1
f 57/28/9 59/41/9 60/42/9 58/40/9 
f 50/32/12 53/36/12 56/39/12 51/33/12 
s off
f 61/43/12 62/43/12 63/44/12 64/44/12 
s 1
f 65/41/11 66/45/11 67/46/11 68/42/11 
s off
f 66/45/9 69/45/9 70/46/9 67/46/9 
s 1
f 71/41/13 61/43/13 64/44/13 72/42/13 
s 2
f 72/42/7 68/42/7 67/46/16 70/46/16 
s off
f 71/41/21 65/41/21 62/43/21 61/43/21 
f 69/45/22 66/45/22 65/41/22 71/41/22 
s 2
f 64/44/17 63/44/17 68/42/7 72/42/7 
s 1
f 69/45/13 71/41/13 72/42/13 70/46/13 
f 62/43/11 65/41/11 68/42/11 63/44/11 
s off
f 73/47/1 74/48/1 75/49/1 76/50/1 
f 74/48/3 77/51/3 78/52/3 75/49/3 
f 77/51/4 79/53/4 80/54/4 78/52/4 
f 79/53/5 73/47/5 76/50/5 80/54/5 
f 76/50/7 75/49/7 78/52/7 80/54/7 
f 79/53/14 77/51/14 74/48/14 73/47/14 
f 81/55/1 82/56/1 83/57/1 84/58/1 
f 82/56/3 85/59/3 86/59/3 83/57/3 
f 85/59/4 87/60/4 88/60/4 86/59/4 
f 87/60/6 81/55/6 84/58/6 88/60/6 
f 84/58/7 83/57/7 86/59/7 88/60/7 
f 87/60/8 85/59/8 82/56/8 81/55/8 
f 89/61/1 90/55/1 91/58/1 92/62/1 
f 90/55/3 93/60/3 94/60/3 91/58/3 
f 93/60/4 95/63/4 96/63/4 94/60/4 
f 95/63/6 89/61/6 92/62/6 96/63/6 
f 92/62/7 91/58/7 94/60/7 96/63/7 
f 95/63/8 93/60/8 90/55/8 89/61/8 
f 97/64/1 98/61/1 99/62/1 100/65/1 
f 98/61/3 101/66/3 102/66/3 99/62/3 
f 101/66/4 103/67/4 104/67/4 102/66/4 
f 103/67/6 97/64/6 100/65/6 104/67/6 
f 100/65/7 99/62/7 102/66/7 104/67/7 
f 103/67/8 101/66/8 98/61/8 97/64/8 
f 105/68/1 106/64/1 107/65/1 108/69/1 
f 106/64/3 109/67/3 110/67/3 107/65/3 
f 109/67/4 111/70/4 112/70/4 110/67/4 
f 111/70/6 105/68/6 108/69/6 112/70/6 
f 108/69/7 107/65/7 110/67/7 112/70/7 
f 111/70/8 109/67/8 106/64/8 105/68/8 
f 113/71/1 114/68/1 115/69/1 116/72/1 
f 114/68/23 117/73/23 118/73/23 115/69/23 
f 117/73/4 119/74/4 120/74/4 118/73/4 
f 119/74/24 113/71/24 116/72/24 120/74/24 
f 116/72/7 115/69/7 118/73/7 120/74/7 
f 119/74/8 117/73/8 114/68/8 113/71/8 
s 1
f 121/75/1 122/76/1 123/77/1 124/78/1 
s off
f 122/76/3 125/79/3 126/80/3 123/77/3 
s 1
f 125/79/4 127/81/4 128/82/4 126/80/4 
s off
f 124/78/25 128/82/25 129/83/25 130/84/25 
f 124/78/17 123/77/17 126/80/17 128/82/17 
f 127/81/8 125/79/8 122/76/8 121/75/8 
f 130/84/26 129/83/26 131/85/26 132/86/26 
f 127/81/27 121/75/27 133/87/27 134/88/27 
s 1
f 128/82/4 127/81/4 134/88/4 129/83/4 
f 121/75/1 124/78/1 130/84/1 133/87/1 
s off
f 132/86/28 131/85/28 135/89/28 136/83/28 
f 134/90/29 133/91/29 137/91/29 138/92/29 
f 129/83/30 134/88/30 138/93/30 131/85/30 
f 133/87/31 130/84/31 132/86/31 137/81/31 
f 136/83/32 135/89/32 139/94/32 140/95/32 
f 138/92/33 137/91/33 141/96/33 142/97/33 
f 131/85/34 138/93/34 142/98/34 135/89/34 
f 137/81/35 132/86/35 136/83/35 141/99/35 
f 143/100/6 144/101/6 140/95/6 139/94/6 
f 142/97/36 141/96/36 144/102/36 143/97/36 
f 135/89/37 142/98/37 143/100/37 139/94/37 
f 141/99/38 136/83/38 140/95/38 144/101/38 
s 1
f 145/103/1 146/104/1 147/105/1 148/106/1 
s off
f 146/104/3 149/107/3 150/108/3 147/105/3 
s 1
f 149/107/4 151/109/4 152/110/4 150/108/4 
s off
f 148/106/25 152/110/25 153/111/25 154/112/25 
f 148/106/7 147/105/7 150/108/7 152/110/7 
f 151/109/15 149/107/15 146/104/15 145/103/15 
f 154/112/26 153/111/26 155/113/26 156/110/26 
f 151/109/27 145/103/27 157/114/27 158/115/27 
s 1
f 152/110/4 151/109/4 158/115/4 153/111/4 
f 145/103/1 148/106/1 154/112/1 157/114/1 
s off
f 156/110/28 155/113/28 159/116/28 160/117/28 
f 158/118/39 157/119/39 161/119/39 162/120/39 
f 153/111/30 158/115/30 162/121/30 155/113/30 
f 157/114/31 154/112/31 156/110/31 161/122/31 
f 160/117/32 159/116/32 163/123/32 164/124/32 
f 162/120/40 161/119/40 165/125/40 166/126/40 
f 155/113/34 162/121/34 166/127/34 159/116/34 
f 161/122/35 156/110/35 160/117/35 165/115/35 
f 167/128/6 168/129/6 164/124/6 163/123/6 
f 166/126/36 165/125/36 168/120/36 167/126/36 
f 159/116/37 166/127/37 167/128/37 163/123/37 
f 165/115/38 160/117/38 164/124/38 168/129/38 
# 142 polygons

