# 3ds Max Wavefront OBJ Exporter v0.97b - (c)2007 guruware
# File Created: 15.03.2017 11:41:48

mtllib SPW_Urban_Bridge_RailRoadBridge_Pillar_02.mtl

#
# object SPW_Urban_Bridge_RailRoadBridge_Pillar_02
#

v  -49.2126 59.0551 59.0551
v  -49.2126 59.0551 -59.0551
v  -49.2126 0.0000 -59.0551
v  -49.2126 -0.0000 59.0551
v  49.2126 59.0551 -59.0551
v  49.2126 0.0000 -59.0551
v  49.2126 59.0551 59.0551
v  49.2126 -0.0000 59.0551
v  37.7239 59.0551 49.8594
v  -37.7239 59.0551 49.8594
v  37.7239 393.7008 49.8595
v  -37.7239 393.7008 49.8595
v  37.7239 59.0551 -49.8594
v  -37.7239 59.0551 -49.8594
v  37.7239 393.7008 -49.8594
v  -37.7239 393.7008 -49.8594
v  -196.8504 430.0722 59.0552
v  -196.8504 430.0722 -59.0550
v  -134.4559 393.7008 -59.0550
v  -134.4559 393.7008 59.0552
v  196.8504 430.0722 -59.0550
v  134.4559 393.7008 -59.0550
v  196.8504 430.0722 59.0552
v  134.4559 393.7008 59.0552
v  196.8504 472.4409 59.0552
v  196.8504 472.4409 -59.0550
v  -196.8504 472.4409 -59.0550
v  -196.8504 472.4409 59.0552
# 28 vertices

vn -1.0000 0.0000 -0.0000
vn 0.0000 0.0000 -1.0000
vn 1.0000 0.0000 -0.0000
vn 0.0000 0.0000 1.0000
vn 0.0000 -1.0000 -0.0000
vn 0.0000 1.0000 -0.0000
vn -0.0000 1.0000 -0.0000
vn 0.0000 -0.0000 1.0000
vn 0.0000 1.0000 0.0000
vn -0.5036 -0.8639 -0.0000
vn 0.5036 -0.8639 -0.0000
# 11 vertex normals

vt 0.3589 0.3924 0.0000
vt 0.4089 0.3924 0.0000
vt 0.4089 0.4424 0.0000
vt 0.3589 0.4424 0.0000
vt 0.3612 0.3946 0.0000
vt 0.4112 0.3946 0.0000
vt 0.4112 0.4446 0.0000
vt 0.3612 0.4446 0.0000
# 8 texture coords

g SPW_Urban_Bridge_RailRoadBridge_Pillar_02
usemtl SPW_Urban_Road
s off
f 1/1/1 2/2/1 3/3/1 4/4/1 
f 2/1/2 5/2/2 6/3/2 3/4/2 
f 5/1/3 7/2/3 8/3/3 6/4/3 
f 7/1/4 1/2/4 4/3/4 8/4/4 
f 4/1/5 3/2/5 6/3/5 8/4/5 
s 1
f 1/1/6 7/2/7 9/3/7 10/4/6 
s off
f 10/1/8 9/2/8 11/3/8 12/4/8 
s 1
f 7/1/7 5/2/6 13/3/6 9/4/7 
f 5/1/6 2/2/7 14/3/7 13/4/6 
f 2/1/7 1/2/6 10/3/6 14/4/7 
s off
f 11/1/9 15/2/9 16/3/9 12/4/9 
f 9/1/3 13/2/3 15/3/3 11/4/3 
f 13/1/2 14/2/2 16/3/2 15/4/2 
f 14/1/1 10/2/1 12/3/1 16/4/1 
f 17/5/10 18/6/10 19/7/10 20/8/10 
s 1
f 18/5/2 21/6/2 22/7/2 19/8/2 
s off
f 21/5/11 23/6/11 24/7/11 22/8/11 
s 1
f 23/5/8 17/6/8 20/7/8 24/8/8 
s off
f 20/5/5 19/6/5 22/7/5 24/8/5 
f 25/5/9 26/6/9 27/7/9 28/8/9 
s 1
f 25/5/8 28/6/8 17/7/8 23/8/8 
s off
f 26/5/3 25/6/3 23/7/3 21/8/3 
s 1
f 27/5/2 26/6/2 21/7/2 18/8/2 
s off
f 28/5/1 27/6/1 18/7/1 17/8/1 
# 24 polygons

