# 3ds Max Wavefront OBJ Exporter v0.97b - (c)2007 guruware
# File Created: 15.03.2017 11:41:25

mtllib SPW_Urban_Bridge_RailRoadBridge_02.mtl

#
# object SPW_Urban_Bridge_RailRoadBridge_02
#

v  -393.7008 43.9870 255.9055
v  -393.7008 43.9870 236.2205
v  -393.7008 -32.7846 236.2205
v  -393.7008 -32.7846 255.9055
v  393.7008 43.9870 236.2205
v  393.7008 -32.7846 236.2205
v  393.7007 43.9870 255.9055
v  393.7007 -32.7846 255.9055
v  -393.7008 9.8425 236.2205
v  -393.7008 9.8425 -236.2205
v  -393.7008 -59.0551 -236.2205
v  -393.7008 -59.0552 236.2205
v  393.7007 9.8425 -236.2205
v  393.7007 -59.0551 -236.2205
v  393.7008 9.8425 236.2205
v  393.7008 -59.0552 236.2205
v  393.7008 -78.7402 -205.4120
v  -393.7009 -78.7402 -205.4120
v  -393.7008 -78.7402 205.4119
v  393.7008 -78.7402 205.4120
v  -393.7008 43.9871 -236.2205
v  -393.7008 43.9871 -255.9055
v  -393.7008 -32.7846 -255.9055
v  -393.7008 -32.7846 -236.2205
v  393.7008 43.9871 -255.9055
v  393.7008 -32.7846 -255.9055
v  393.7007 43.9871 -236.2205
v  393.7007 -32.7846 -236.2205
v  -393.7007 12.9050 65.9449
v  -393.7007 10.8971 65.9449
v  -393.7007 10.8971 67.9134
v  -393.7007 11.7805 67.9134
v  -393.7007 12.9050 60.0393
v  -393.7007 10.8971 60.0393
v  393.7008 10.8971 60.0394
v  -393.7007 10.8971 58.0708
v  393.7008 10.8971 58.0709
v  393.7008 12.9050 60.0394
v  393.7008 12.9050 65.9449
v  393.7008 10.8971 65.9449
v  393.7008 22.7081 60.0394
v  -393.7007 22.7081 60.0393
v  -393.7007 22.7081 65.9449
v  393.7008 22.7081 65.9449
v  393.7008 19.1102 65.9449
v  393.7008 19.1102 60.0394
v  -393.7007 19.1102 60.0393
v  -393.7007 19.1102 65.9449
v  -393.7007 19.1102 67.9134
v  -393.7007 22.7081 67.9134
v  -393.7007 19.1102 58.0708
v  393.7008 19.1102 58.0709
v  -393.7007 22.7081 58.0708
v  393.7008 22.7081 58.0709
v  393.7008 22.7081 67.9134
v  393.7008 19.1102 67.9134
v  -393.7007 11.7805 58.0708
v  393.7008 11.7805 58.0709
v  393.7008 11.7805 67.9134
v  393.7008 10.8971 67.9134
v  342.5197 10.8991 188.9764
v  326.7717 10.8991 188.9764
v  326.7717 7.6048 188.9764
v  342.5197 7.6048 188.9764
v  326.7717 10.8991 47.2441
v  326.7717 7.6048 47.2441
v  342.5197 10.8991 47.2441
v  342.5197 7.6048 47.2441
v  303.1496 10.8991 188.9764
v  287.4016 10.8991 188.9764
v  287.4016 7.6048 188.9764
v  303.1496 7.6048 188.9764
v  287.4016 10.8991 47.2441
v  287.4016 7.6048 47.2441
v  303.1496 10.8991 47.2441
v  303.1496 7.6048 47.2441
v  263.7795 10.8991 188.9764
v  248.0315 10.8991 188.9764
v  248.0315 7.6048 188.9764
v  263.7795 7.6048 188.9764
v  248.0315 10.8991 47.2441
v  248.0315 7.6048 47.2441
v  263.7796 10.8991 47.2441
v  263.7796 7.6048 47.2441
v  224.4095 10.8991 188.9764
v  208.6614 10.8991 188.9764
v  208.6614 7.6048 188.9764
v  224.4095 7.6048 188.9764
v  208.6615 10.8991 47.2441
v  208.6615 7.6048 47.2441
v  224.4095 10.8991 47.2441
v  224.4095 7.6048 47.2441
v  185.0394 10.8991 188.9764
v  169.2913 10.8991 188.9764
v  169.2913 7.6048 188.9764
v  185.0394 7.6048 188.9764
v  169.2914 10.8991 47.2441
v  169.2914 7.6048 47.2441
v  185.0394 10.8991 47.2441
v  185.0394 7.6048 47.2441
v  145.6693 10.8991 188.9764
v  129.9212 10.8991 188.9764
v  129.9212 7.6048 188.9764
v  145.6693 7.6048 188.9764
v  129.9213 10.8991 47.2441
v  129.9213 7.6048 47.2441
v  145.6693 10.8991 47.2441
v  145.6693 7.6048 47.2441
v  106.2992 10.8991 188.9764
v  90.5512 10.8991 188.9764
v  90.5512 7.6048 188.9764
v  106.2992 7.6048 188.9764
v  90.5512 10.8991 47.2441
v  90.5512 7.6048 47.2441
v  106.2992 10.8991 47.2441
v  106.2992 7.6048 47.2441
v  66.9291 10.8991 188.9764
v  51.1811 10.8991 188.9764
v  51.1811 7.6048 188.9764
v  66.9291 7.6048 188.9764
v  51.1811 10.8991 47.2441
v  51.1811 7.6048 47.2441
v  66.9291 10.8991 47.2441
v  66.9291 7.6048 47.2441
v  27.5590 10.8991 188.9764
v  11.8110 10.8991 188.9764
v  11.8110 7.6048 188.9764
v  27.5590 7.6048 188.9764
v  11.8110 10.8991 47.2441
v  11.8110 7.6048 47.2441
v  27.5591 10.8991 47.2441
v  27.5591 7.6048 47.2441
v  -366.1417 10.8991 188.9763
v  -381.8897 10.8991 188.9763
v  -381.8897 7.6048 188.9763
v  -366.1417 7.6048 188.9763
v  -381.8897 10.8991 47.2441
v  -381.8897 7.6048 47.2441
v  -366.1417 10.8991 47.2441
v  -366.1417 7.6048 47.2441
v  -326.7717 10.8991 188.9763
v  -342.5197 10.8991 188.9763
v  -342.5197 7.6048 188.9763
v  -326.7717 7.6048 188.9763
v  -342.5197 10.8991 47.2441
v  -342.5197 7.6048 47.2441
v  -326.7717 10.8991 47.2441
v  -326.7717 7.6048 47.2441
v  -287.4016 10.8991 188.9763
v  -303.1496 10.8991 188.9763
v  -303.1496 7.6048 188.9763
v  -287.4016 7.6048 188.9763
v  -303.1496 10.8991 47.2441
v  -303.1496 7.6048 47.2441
v  -287.4016 10.8991 47.2441
v  -287.4016 7.6048 47.2441
v  -248.0315 10.8991 188.9763
v  -263.7795 10.8991 188.9763
v  -263.7795 7.6048 188.9763
v  -248.0315 7.6048 188.9763
v  -263.7795 10.8991 47.2441
v  -263.7795 7.6048 47.2441
v  -248.0315 10.8991 47.2441
v  -248.0315 7.6048 47.2441
v  -208.6614 10.8991 188.9763
v  -224.4094 10.8991 188.9763
v  -224.4094 7.6048 188.9763
v  -208.6614 7.6048 188.9763
v  -224.4094 10.8991 47.2441
v  -224.4094 7.6048 47.2441
v  -208.6614 10.8991 47.2441
v  -208.6614 7.6048 47.2441
v  -169.2914 10.8991 188.9763
v  -185.0394 10.8991 188.9763
v  -185.0394 7.6048 188.9763
v  -169.2914 7.6048 188.9763
v  -185.0394 10.8991 47.2441
v  -185.0394 7.6048 47.2441
v  -169.2913 10.8991 47.2441
v  -169.2913 7.6048 47.2441
v  -129.9213 10.8991 188.9763
v  -145.6693 10.8991 188.9763
v  -145.6693 7.6048 188.9763
v  -129.9213 7.6048 188.9763
v  -145.6693 10.8991 47.2441
v  -145.6693 7.6048 47.2441
v  -129.9212 10.8991 47.2441
v  -129.9212 7.6048 47.2441
v  -90.5512 10.8991 188.9764
v  -106.2992 10.8991 188.9764
v  -106.2992 7.6048 188.9764
v  -90.5512 7.6048 188.9764
v  -106.2992 10.8991 47.2441
v  -106.2992 7.6048 47.2441
v  -90.5512 10.8991 47.2441
v  -90.5512 7.6048 47.2441
v  -51.1811 10.8991 188.9764
v  -66.9291 10.8991 188.9764
v  -66.9291 7.6048 188.9764
v  -51.1811 7.6048 188.9764
v  -66.9291 10.8991 47.2441
v  -66.9291 7.6048 47.2441
v  -51.1811 10.8991 47.2441
v  -51.1811 7.6048 47.2441
v  -11.8110 10.8991 188.9764
v  -27.5591 10.8991 188.9764
v  -27.5591 7.6048 188.9764
v  -11.8110 7.6048 188.9764
v  -27.5591 10.8991 47.2441
v  -27.5591 7.6048 47.2441
v  -11.8110 10.8991 47.2441
v  -11.8110 7.6048 47.2441
v  -393.7007 12.9050 176.1811
v  -393.7007 10.8970 176.1811
v  -393.7007 10.8970 178.1496
v  -393.7007 11.7805 178.1496
v  -393.7007 12.9050 170.2755
v  -393.7007 10.8970 170.2755
v  393.7008 10.8970 170.2756
v  -393.7007 10.8970 168.3070
v  393.7008 10.8970 168.3071
v  393.7008 12.9050 170.2756
v  393.7008 12.9050 176.1812
v  393.7008 10.8970 176.1812
v  393.7008 22.7081 170.2756
v  -393.7007 22.7081 170.2755
v  -393.7007 22.7081 176.1811
v  393.7008 22.7081 176.1812
v  393.7008 19.1102 176.1812
v  393.7008 19.1102 170.2756
v  -393.7007 19.1102 170.2755
v  -393.7007 19.1102 176.1811
v  -393.7007 19.1102 178.1496
v  -393.7007 22.7081 178.1496
v  -393.7007 19.1102 168.3070
v  393.7008 19.1102 168.3071
v  -393.7007 22.7081 168.3070
v  393.7008 22.7081 168.3071
v  393.7008 22.7081 178.1496
v  393.7008 19.1102 178.1496
v  -393.7007 11.7805 168.3070
v  393.7008 11.7805 168.3071
v  393.7008 11.7805 178.1496
v  393.7008 10.8970 178.1496
v  381.8898 10.8991 188.9764
v  366.1418 10.8991 188.9764
v  366.1418 7.6048 188.9764
v  381.8898 7.6048 188.9764
v  366.1418 10.8991 47.2441
v  366.1418 7.6048 47.2441
v  381.8898 10.8991 47.2441
v  381.8898 7.6048 47.2441
v  -393.7008 12.9050 -170.2756
v  -393.7008 10.8970 -170.2756
v  -393.7008 10.8970 -168.3071
v  -393.7008 11.7805 -168.3071
v  -393.7008 12.9050 -176.1811
v  -393.7008 10.8970 -176.1811
v  393.7008 10.8970 -176.1811
v  -393.7008 10.8970 -178.1496
v  393.7008 10.8970 -178.1496
v  393.7008 12.9050 -176.1811
v  393.7008 12.9050 -170.2755
v  393.7008 10.8970 -170.2755
v  393.7008 22.7081 -176.1811
v  -393.7008 22.7081 -176.1811
v  -393.7008 22.7081 -170.2756
v  393.7008 22.7081 -170.2755
v  393.7008 19.1102 -170.2755
v  393.7008 19.1102 -176.1811
v  -393.7008 19.1102 -176.1811
v  -393.7008 19.1102 -170.2756
v  -393.7008 19.1102 -168.3071
v  -393.7008 22.7081 -168.3071
v  -393.7008 19.1102 -178.1496
v  393.7008 19.1102 -178.1496
v  -393.7008 22.7081 -178.1496
v  393.7008 22.7081 -178.1496
v  393.7008 22.7081 -168.3070
v  393.7008 19.1102 -168.3070
v  -393.7008 11.7805 -178.1496
v  393.7008 11.7805 -178.1496
v  393.7008 11.7805 -168.3070
v  393.7008 10.8970 -168.3070
v  342.5197 10.8991 -47.2441
v  326.7717 10.8991 -47.2441
v  326.7717 7.6048 -47.2441
v  342.5197 7.6048 -47.2441
v  326.7717 10.8991 -188.9764
v  326.7717 7.6048 -188.9764
v  342.5197 10.8991 -188.9764
v  342.5197 7.6048 -188.9764
v  303.1496 10.8991 -47.2441
v  287.4016 10.8991 -47.2441
v  287.4016 7.6048 -47.2441
v  303.1496 7.6048 -47.2441
v  287.4016 10.8991 -188.9764
v  287.4016 7.6048 -188.9764
v  303.1496 10.8991 -188.9764
v  303.1496 7.6048 -188.9764
v  263.7795 10.8991 -47.2441
v  248.0315 10.8991 -47.2441
v  248.0315 7.6048 -47.2441
v  263.7795 7.6048 -47.2441
v  248.0315 10.8991 -188.9764
v  248.0315 7.6048 -188.9764
v  263.7796 10.8991 -188.9764
v  263.7796 7.6048 -188.9764
v  224.4094 10.8991 -47.2441
v  208.6614 10.8991 -47.2441
v  208.6614 7.6048 -47.2441
v  224.4094 7.6048 -47.2441
v  208.6614 10.8991 -188.9764
v  208.6614 7.6048 -188.9764
v  224.4095 10.8991 -188.9764
v  224.4095 7.6048 -188.9764
v  185.0394 10.8991 -47.2441
v  169.2913 10.8991 -47.2441
v  169.2913 7.6048 -47.2441
v  185.0394 7.6048 -47.2441
v  169.2914 10.8991 -188.9764
v  169.2914 7.6048 -188.9764
v  185.0394 10.8991 -188.9764
v  185.0394 7.6048 -188.9764
v  145.6693 10.8991 -47.2441
v  129.9212 10.8991 -47.2441
v  129.9212 7.6048 -47.2441
v  145.6693 7.6048 -47.2441
v  129.9213 10.8991 -188.9764
v  129.9213 7.6048 -188.9764
v  145.6693 10.8991 -188.9764
v  145.6693 7.6048 -188.9764
v  106.2992 10.8991 -47.2441
v  90.5512 10.8991 -47.2441
v  90.5512 7.6048 -47.2441
v  106.2992 7.6048 -47.2441
v  90.5512 10.8991 -188.9764
v  90.5512 7.6048 -188.9764
v  106.2992 10.8991 -188.9764
v  106.2992 7.6048 -188.9764
v  66.9291 10.8991 -47.2441
v  51.1811 10.8991 -47.2441
v  51.1811 7.6048 -47.2441
v  66.9291 7.6048 -47.2441
v  51.1811 10.8991 -188.9764
v  51.1811 7.6048 -188.9764
v  66.9291 10.8991 -188.9764
v  66.9291 7.6048 -188.9764
v  27.5591 10.8991 -47.2441
v  11.8110 10.8991 -47.2441
v  11.8110 7.6048 -47.2441
v  27.5591 7.6048 -47.2441
v  11.8110 10.8991 -188.9764
v  11.8110 7.6048 -188.9764
v  27.5591 10.8991 -188.9764
v  27.5591 7.6048 -188.9764
v  -366.1418 10.8991 -47.2441
v  -381.8898 10.8991 -47.2441
v  -381.8898 7.6048 -47.2441
v  -366.1418 7.6048 -47.2441
v  -381.8898 10.8991 -188.9764
v  -381.8898 7.6048 -188.9764
v  -366.1418 10.8991 -188.9764
v  -366.1418 7.6048 -188.9764
v  -326.7717 10.8991 -47.2441
v  -342.5197 10.8991 -47.2441
v  -342.5197 7.6048 -47.2441
v  -326.7717 7.6048 -47.2441
v  -342.5197 10.8991 -188.9764
v  -342.5197 7.6048 -188.9764
v  -326.7717 10.8991 -188.9764
v  -326.7717 7.6048 -188.9764
v  -287.4016 10.8991 -47.2441
v  -303.1496 10.8991 -47.2441
v  -303.1496 7.6048 -47.2441
v  -287.4016 7.6048 -47.2441
v  -303.1496 10.8991 -188.9764
v  -303.1496 7.6048 -188.9764
v  -287.4016 10.8991 -188.9764
v  -287.4016 7.6048 -188.9764
v  -248.0315 10.8991 -47.2441
v  -263.7795 10.8991 -47.2441
v  -263.7795 7.6048 -47.2441
v  -248.0315 7.6048 -47.2441
v  -263.7795 10.8991 -188.9764
v  -263.7795 7.6048 -188.9764
v  -248.0315 10.8991 -188.9764
v  -248.0315 7.6048 -188.9764
v  -208.6614 10.8991 -47.2441
v  -224.4094 10.8991 -47.2441
v  -224.4094 7.6048 -47.2441
v  -208.6614 7.6048 -47.2441
v  -224.4094 10.8991 -188.9764
v  -224.4094 7.6048 -188.9764
v  -208.6614 10.8991 -188.9764
v  -208.6614 7.6048 -188.9764
v  -169.2914 10.8991 -47.2441
v  -185.0394 10.8991 -47.2441
v  -185.0394 7.6048 -47.2441
v  -169.2914 7.6048 -47.2441
v  -185.0394 10.8991 -188.9764
v  -185.0394 7.6048 -188.9764
v  -169.2913 10.8991 -188.9764
v  -169.2913 7.6048 -188.9764
v  -129.9213 10.8991 -47.2441
v  -145.6693 10.8991 -47.2441
v  -145.6693 7.6048 -47.2441
v  -129.9213 7.6048 -47.2441
v  -145.6693 10.8991 -188.9764
v  -145.6693 7.6048 -188.9764
v  -129.9212 10.8991 -188.9764
v  -129.9212 7.6048 -188.9764
v  -90.5512 10.8991 -47.2441
v  -106.2992 10.8991 -47.2441
v  -106.2992 7.6048 -47.2441
v  -90.5512 7.6048 -47.2441
v  -106.2992 10.8991 -188.9764
v  -106.2992 7.6048 -188.9764
v  -90.5512 10.8991 -188.9764
v  -90.5512 7.6048 -188.9764
v  -51.1811 10.8991 -47.2441
v  -66.9291 10.8991 -47.2441
v  -66.9291 7.6048 -47.2441
v  -51.1811 7.6048 -47.2441
v  -66.9291 10.8991 -188.9764
v  -66.9291 7.6048 -188.9764
v  -51.1811 10.8991 -188.9764
v  -51.1811 7.6048 -188.9764
v  -11.8110 10.8991 -47.2441
v  -27.5591 10.8991 -47.2441
v  -27.5591 7.6048 -47.2441
v  -11.8110 7.6048 -47.2441
v  -27.5590 10.8991 -188.9764
v  -27.5590 7.6048 -188.9764
v  -11.8110 10.8991 -188.9764
v  -11.8110 7.6048 -188.9764
v  -393.7008 12.9050 -60.0394
v  -393.7008 10.8970 -60.0394
v  -393.7008 10.8970 -58.0709
v  -393.7008 11.7805 -58.0709
v  -393.7008 12.9050 -65.9449
v  -393.7008 10.8970 -65.9449
v  393.7008 10.8970 -65.9449
v  -393.7008 10.8970 -67.9134
v  393.7008 10.8970 -67.9134
v  393.7008 12.9050 -65.9449
v  393.7008 12.9050 -60.0393
v  393.7008 10.8970 -60.0393
v  393.7008 22.7081 -65.9449
v  -393.7008 22.7081 -65.9449
v  -393.7008 22.7081 -60.0394
v  393.7008 22.7081 -60.0393
v  393.7008 19.1102 -60.0393
v  393.7008 19.1102 -65.9449
v  -393.7008 19.1102 -65.9449
v  -393.7008 19.1102 -60.0394
v  -393.7008 19.1102 -58.0709
v  -393.7008 22.7081 -58.0709
v  -393.7008 19.1102 -67.9134
v  393.7008 19.1102 -67.9134
v  -393.7008 22.7081 -67.9134
v  393.7008 22.7081 -67.9134
v  393.7008 22.7081 -58.0708
v  393.7008 19.1102 -58.0708
v  -393.7008 11.7805 -67.9134
v  393.7008 11.7805 -67.9134
v  393.7008 11.7805 -58.0708
v  393.7008 10.8970 -58.0708
v  381.8898 10.8991 -47.2441
v  366.1418 10.8991 -47.2441
v  366.1418 7.6048 -47.2441
v  381.8898 7.6048 -47.2441
v  366.1418 10.8991 -188.9764
v  366.1418 7.6048 -188.9764
v  381.8898 10.8991 -188.9763
v  381.8898 7.6048 -188.9763
# 476 vertices

vn -1.0000 0.0000 -0.0000
vn 0.0000 0.0000 -1.0000
vn 1.0000 -0.0000 0.0000
vn -0.0000 -0.0000 1.0000
vn -0.0000 -1.0000 -0.0000
vn 0.0000 1.0000 0.0000
vn -1.0000 -0.0000 0.0000
vn 1.0000 0.0000 -0.0000
vn 0.0000 -0.0000 1.0000
vn 0.0000 -0.8427 -0.5384
vn -0.0000 -0.8427 0.5384
vn -1.0000 0.0000 0.0000
vn 0.0000 -1.0000 -0.0000
vn -0.0000 -1.0000 0.0000
vn 0.0000 0.8683 -0.4960
vn -0.0000 0.8683 0.4960
# 16 vertex normals

vt 0.3589 0.3946 0.0000
vt 0.4089 0.3946 0.0000
vt 0.4089 0.4446 0.0000
vt 0.3589 0.4446 0.0000
vt 0.4795 0.0375 0.0000
vt 0.5295 0.0375 0.0000
vt 0.5295 0.0875 0.0000
vt 0.4795 0.0875 0.0000
vt 0.4638 0.2808 0.0000
vt 0.5138 0.2808 0.0000
vt 0.5138 0.3308 0.0000
vt 0.4638 0.3308 0.0000
vt 0.4638 0.1558 0.0000
vt 0.5138 0.1558 0.0000
vt 0.5138 0.2058 0.0000
vt 0.4638 0.2058 0.0000
# 16 texture coords

g SPW_Urban_Bridge_RailRoadBridge_02
usemtl SPW_Urban_Road
s off
f 1/1/1 2/2/1 3/3/1 4/4/1 
f 2/1/2 5/2/2 6/3/2 3/4/2 
f 5/1/3 7/2/3 8/3/3 6/4/3 
f 7/1/4 1/2/4 4/3/4 8/4/4 
f 4/1/5 3/2/5 6/3/5 8/4/5 
f 7/1/6 5/2/6 2/3/6 1/4/6 
f 9/1/7 10/2/7 11/3/7 12/4/7 
f 10/1/2 13/2/2 14/3/2 11/4/2 
s 1
f 13/1/8 15/2/8 16/3/8 14/4/8 
s off
f 15/1/9 9/2/9 12/3/9 16/4/9 
f 11/1/10 14/2/10 17/3/10 18/4/10 
f 15/5/6 13/6/6 10/7/6 9/8/6 
f 19/1/5 18/2/5 17/3/5 20/4/5 
f 16/1/11 12/2/11 19/3/11 20/4/11 
s 1
f 14/1/8 16/2/8 20/3/8 17/4/8 
s off
f 12/1/12 11/2/12 18/3/12 19/4/12 
f 21/1/1 22/2/1 23/3/1 24/4/1 
f 22/1/2 25/2/2 26/3/2 23/4/2 
f 25/1/3 27/2/3 28/3/3 26/4/3 
f 27/1/4 21/2/4 24/3/4 28/4/4 
f 24/1/5 23/2/5 26/3/5 28/4/5 
f 27/1/6 25/2/6 22/3/6 21/4/6 
s 1
f 29/9/1 30/10/1 31/11/1 32/12/1 
f 29/9/1 33/10/1 34/11/1 30/12/1 
s 2
f 35/9/13 34/10/13 36/11/13 37/12/13 
s 1
f 38/9/8 39/10/8 40/11/8 35/12/8 
s 2
f 40/9/14 30/10/14 34/11/13 35/12/13 
f 41/9/6 42/10/6 43/11/6 44/12/6 
s 1
f 41/9/8 44/10/8 45/11/8 46/12/8 
f 46/9/8 45/10/8 39/11/8 38/12/8 
s 4
f 42/9/8 41/10/8 41/11/8 42/12/8 
s off
f 47/9/2 46/10/2 38/11/2 33/12/2 
s 1
f 43/9/1 42/10/1 47/11/1 48/12/1 
f 48/9/1 47/10/1 33/11/1 29/12/1 
f 43/9/1 48/10/1 49/11/1 50/12/1 
s off
f 45/9/4 48/10/4 29/11/4 39/12/4 
f 46/9/13 47/10/13 51/11/13 52/12/13 
s 4
f 41/9/8 46/10/8 46/11/8 41/12/8 
f 47/9/8 42/10/8 42/11/8 47/12/8 
f 46/9/8 47/10/8 47/11/8 46/12/8 
s off
f 53/9/2 54/10/2 52/11/2 51/12/2 
f 47/9/1 42/10/1 53/11/1 51/12/1 
f 41/9/8 46/10/8 52/11/8 54/12/8 
f 42/9/6 41/10/6 54/11/6 53/12/6 
f 55/9/4 50/10/4 49/11/4 56/12/4 
s 2
f 44/9/6 43/10/6 50/11/6 55/12/6 
s off
f 48/9/14 45/10/14 56/11/14 49/12/14 
s 1
f 45/9/8 44/10/8 55/11/8 56/12/8 
s off
f 57/9/2 58/10/2 37/11/2 36/12/2 
s 1
f 34/9/1 33/10/1 57/11/1 36/12/1 
s off
f 33/9/15 38/10/15 58/11/15 57/12/15 
s 1
f 38/9/8 35/10/8 37/11/8 58/12/8 
s off
f 59/9/4 32/10/4 31/11/4 60/12/4 
f 39/9/16 29/10/16 32/11/16 59/12/16 
s 2
f 30/9/14 40/10/14 60/11/14 31/12/14 
s 1
f 40/9/8 39/10/8 59/11/8 60/12/8 
s off
f 61/13/9 62/14/9 63/15/9 64/16/9 
f 62/13/1 65/14/1 66/15/1 63/16/1 
f 65/13/2 67/14/2 68/15/2 66/16/2 
f 67/13/8 61/14/8 64/15/8 68/16/8 
f 64/13/5 63/14/5 66/15/5 68/16/5 
f 67/13/6 65/14/6 62/15/6 61/16/6 
f 69/13/9 70/14/9 71/15/9 72/16/9 
f 70/13/1 73/14/1 74/15/1 71/16/1 
f 73/13/2 75/14/2 76/15/2 74/16/2 
f 75/13/3 69/14/3 72/15/3 76/16/3 
f 72/13/13 71/14/13 74/15/13 76/16/13 
f 75/13/6 73/14/6 70/15/6 69/16/6 
f 77/13/9 78/14/9 79/15/9 80/16/9 
f 78/13/1 81/14/1 82/15/1 79/16/1 
f 81/13/2 83/14/2 84/15/2 82/16/2 
f 83/13/3 77/14/3 80/15/3 84/16/3 
f 80/13/13 79/14/13 82/15/13 84/16/13 
f 83/13/6 81/14/6 78/15/6 77/16/6 
f 85/13/9 86/14/9 87/15/9 88/16/9 
f 86/13/1 89/14/1 90/15/1 87/16/1 
f 89/13/2 91/14/2 92/15/2 90/16/2 
f 91/13/3 85/14/3 88/15/3 92/16/3 
f 88/13/5 87/14/5 90/15/5 92/16/5 
f 91/13/6 89/14/6 86/15/6 85/16/6 
f 93/13/9 94/14/9 95/15/9 96/16/9 
f 94/13/1 97/14/1 98/15/1 95/16/1 
f 97/13/2 99/14/2 100/15/2 98/16/2 
f 99/13/3 93/14/3 96/15/3 100/16/3 
f 96/13/13 95/14/13 98/15/13 100/16/13 
f 99/13/6 97/14/6 94/15/6 93/16/6 
f 101/13/9 102/14/9 103/15/9 104/16/9 
f 102/13/1 105/14/1 106/15/1 103/16/1 
f 105/13/2 107/14/2 108/15/2 106/16/2 
f 107/13/3 101/14/3 104/15/3 108/16/3 
f 104/13/13 103/14/13 106/15/13 108/16/13 
f 107/13/6 105/14/6 102/15/6 101/16/6 
f 109/13/9 110/14/9 111/15/9 112/16/9 
f 110/13/1 113/14/1 114/15/1 111/16/1 
f 113/13/2 115/14/2 116/15/2 114/16/2 
f 115/13/3 109/14/3 112/15/3 116/16/3 
f 112/13/13 111/14/13 114/15/13 116/16/13 
f 115/13/6 113/14/6 110/15/6 109/16/6 
f 117/13/9 118/14/9 119/15/9 120/16/9 
f 118/13/1 121/14/1 122/15/1 119/16/1 
f 121/13/2 123/14/2 124/15/2 122/16/2 
f 123/13/3 117/14/3 120/15/3 124/16/3 
f 120/13/13 119/14/13 122/15/13 124/16/13 
f 123/13/6 121/14/6 118/15/6 117/16/6 
f 125/13/9 126/14/9 127/15/9 128/16/9 
f 126/13/1 129/14/1 130/15/1 127/16/1 
f 129/13/2 131/14/2 132/15/2 130/16/2 
f 131/13/3 125/14/3 128/15/3 132/16/3 
f 128/13/13 127/14/13 130/15/13 132/16/13 
f 131/13/6 129/14/6 126/15/6 125/16/6 
f 133/13/4 134/14/4 135/15/4 136/16/4 
f 134/13/1 137/14/1 138/15/1 135/16/1 
f 137/13/2 139/14/2 140/15/2 138/16/2 
f 139/13/8 133/14/8 136/15/8 140/16/8 
f 136/13/5 135/14/5 138/15/5 140/16/5 
f 139/13/6 137/14/6 134/15/6 133/16/6 
f 141/13/9 142/14/9 143/15/9 144/16/9 
f 142/13/1 145/14/1 146/15/1 143/16/1 
f 145/13/2 147/14/2 148/15/2 146/16/2 
f 147/13/8 141/14/8 144/15/8 148/16/8 
f 144/13/5 143/14/5 146/15/5 148/16/5 
f 147/13/6 145/14/6 142/15/6 141/16/6 
f 149/13/9 150/14/9 151/15/9 152/16/9 
f 150/13/1 153/14/1 154/15/1 151/16/1 
f 153/13/2 155/14/2 156/15/2 154/16/2 
f 155/13/3 149/14/3 152/15/3 156/16/3 
f 152/13/13 151/14/13 154/15/13 156/16/13 
f 155/13/6 153/14/6 150/15/6 149/16/6 
f 157/13/9 158/14/9 159/15/9 160/16/9 
f 158/13/1 161/14/1 162/15/1 159/16/1 
f 161/13/2 163/14/2 164/15/2 162/16/2 
f 163/13/3 157/14/3 160/15/3 164/16/3 
f 160/13/13 159/14/13 162/15/13 164/16/13 
f 163/13/6 161/14/6 158/15/6 157/16/6 
f 165/13/9 166/14/9 167/15/9 168/16/9 
f 166/13/1 169/14/1 170/15/1 167/16/1 
f 169/13/2 171/14/2 172/15/2 170/16/2 
f 171/13/3 165/14/3 168/15/3 172/16/3 
f 168/13/13 167/14/13 170/15/13 172/16/13 
f 171/13/6 169/14/6 166/15/6 165/16/6 
f 173/13/9 174/14/9 175/15/9 176/16/9 
f 174/13/1 177/14/1 178/15/1 175/16/1 
f 177/13/2 179/14/2 180/15/2 178/16/2 
f 179/13/3 173/14/3 176/15/3 180/16/3 
f 176/13/13 175/14/13 178/15/13 180/16/13 
f 179/13/6 177/14/6 174/15/6 173/16/6 
f 181/13/9 182/14/9 183/15/9 184/16/9 
f 182/13/1 185/14/1 186/15/1 183/16/1 
f 185/13/2 187/14/2 188/15/2 186/16/2 
f 187/13/3 181/14/3 184/15/3 188/16/3 
f 184/13/13 183/14/13 186/15/13 188/16/13 
f 187/13/6 185/14/6 182/15/6 181/16/6 
f 189/13/9 190/14/9 191/15/9 192/16/9 
f 190/13/1 193/14/1 194/15/1 191/16/1 
f 193/13/2 195/14/2 196/15/2 194/16/2 
f 195/13/3 189/14/3 192/15/3 196/16/3 
f 192/13/13 191/14/13 194/15/13 196/16/13 
f 195/13/6 193/14/6 190/15/6 189/16/6 
f 197/13/9 198/14/9 199/15/9 200/16/9 
f 198/13/1 201/14/1 202/15/1 199/16/1 
f 201/13/2 203/14/2 204/15/2 202/16/2 
f 203/13/3 197/14/3 200/15/3 204/16/3 
f 200/13/13 199/14/13 202/15/13 204/16/13 
f 203/13/6 201/14/6 198/15/6 197/16/6 
f 205/13/9 206/14/9 207/15/9 208/16/9 
f 206/13/1 209/14/1 210/15/1 207/16/1 
f 209/13/2 211/14/2 212/15/2 210/16/2 
f 211/13/3 205/14/3 208/15/3 212/16/3 
f 208/13/13 207/14/13 210/15/13 212/16/13 
f 211/13/6 209/14/6 206/15/6 205/16/6 
s 1
f 213/9/1 214/10/1 215/11/1 216/12/1 
f 213/9/1 217/10/1 218/11/1 214/12/1 
s 2
f 219/9/5 218/10/5 220/11/13 221/12/13 
s 1
f 222/9/8 223/10/8 224/11/8 219/12/8 
s 2
f 224/9/5 214/10/5 218/11/5 219/12/5 
f 225/9/6 226/10/6 227/11/6 228/12/6 
s 1
f 225/9/8 228/10/8 229/11/8 230/12/8 
f 230/9/8 229/10/8 223/11/8 222/12/8 
s 4
f 226/9/8 225/10/8 225/11/8 226/12/8 
s off
f 231/9/2 230/10/2 222/11/2 217/12/2 
s 1
f 227/9/1 226/10/1 231/11/1 232/12/1 
f 232/9/1 231/10/1 217/11/1 213/12/1 
f 227/9/1 232/10/1 233/11/1 234/12/1 
s off
f 229/9/4 232/10/4 213/11/4 223/12/4 
f 230/9/13 231/10/13 235/11/13 236/12/13 
s 4
f 225/9/8 230/10/8 230/11/8 225/12/8 
f 231/9/8 226/10/8 226/11/8 231/12/8 
f 230/9/8 231/10/8 231/11/8 230/12/8 
s off
f 237/9/2 238/10/2 236/11/2 235/12/2 
f 231/9/1 226/10/1 237/11/1 235/12/1 
f 225/9/8 230/10/8 236/11/8 238/12/8 
f 226/9/6 225/10/6 238/11/6 237/12/6 
f 239/9/4 234/10/4 233/11/4 240/12/4 
s 2
f 228/9/6 227/10/6 234/11/6 239/12/6 
s off
f 232/9/13 229/10/13 240/11/13 233/12/13 
s 1
f 229/9/8 228/10/8 239/11/8 240/12/8 
s off
f 241/9/2 242/10/2 221/11/2 220/12/2 
s 1
f 218/9/1 217/10/1 241/11/1 220/12/1 
s off
f 217/9/15 222/10/15 242/11/15 241/12/15 
s 1
f 222/9/8 219/10/8 221/11/8 242/12/8 
s off
f 243/9/4 216/10/4 215/11/4 244/12/4 
f 223/9/16 213/10/16 216/11/16 243/12/16 
s 2
f 214/9/5 224/10/5 244/11/13 215/12/13 
s 1
f 224/9/8 223/10/8 243/11/8 244/12/8 
s off
f 245/13/4 246/14/4 247/15/4 248/16/4 
f 246/13/1 249/14/1 250/15/1 247/16/1 
f 249/13/2 251/14/2 252/15/2 250/16/2 
f 251/13/8 245/14/8 248/15/8 252/16/8 
f 248/13/5 247/14/5 250/15/5 252/16/5 
f 251/13/6 249/14/6 246/15/6 245/16/6 
s 1
f 253/9/1 254/10/1 255/11/1 256/12/1 
f 253/9/1 257/10/1 258/11/1 254/12/1 
s 2
f 259/9/5 258/10/5 260/11/13 261/12/13 
s 1
f 262/9/8 263/10/8 264/11/8 259/12/8 
s 2
f 264/9/5 254/10/5 258/11/5 259/12/5 
f 265/9/6 266/10/6 267/11/6 268/12/6 
s 1
f 265/9/8 268/10/8 269/11/8 270/12/8 
f 270/9/8 269/10/8 263/11/8 262/12/8 
s 4
f 266/9/8 265/10/8 265/11/8 266/12/8 
s off
f 271/9/2 270/10/2 262/11/2 257/12/2 
s 1
f 267/9/1 266/10/1 271/11/1 272/12/1 
f 272/9/1 271/10/1 257/11/1 253/12/1 
f 267/9/1 272/10/1 273/11/1 274/12/1 
s off
f 269/9/4 272/10/4 253/11/4 263/12/4 
f 270/9/13 271/10/13 275/11/13 276/12/13 
s 4
f 265/9/8 270/10/8 270/11/8 265/12/8 
f 271/9/8 266/10/8 266/11/8 271/12/8 
f 270/9/8 271/10/8 271/11/8 270/12/8 
s off
f 277/9/2 278/10/2 276/11/2 275/12/2 
f 271/9/1 266/10/1 277/11/1 275/12/1 
f 265/9/8 270/10/8 276/11/8 278/12/8 
f 266/9/6 265/10/6 278/11/6 277/12/6 
f 279/9/4 274/10/4 273/11/4 280/12/4 
s 2
f 268/9/6 267/10/6 274/11/6 279/12/6 
s off
f 272/9/13 269/10/13 280/11/13 273/12/13 
s 1
f 269/9/8 268/10/8 279/11/8 280/12/8 
s off
f 281/9/2 282/10/2 261/11/2 260/12/2 
s 1
f 258/9/1 257/10/1 281/11/1 260/12/1 
s off
f 257/9/15 262/10/15 282/11/15 281/12/15 
s 1
f 262/9/8 259/10/8 261/11/8 282/12/8 
s off
f 283/9/4 256/10/4 255/11/4 284/12/4 
f 263/9/16 253/10/16 256/11/16 283/12/16 
s 2
f 254/9/5 264/10/5 284/11/13 255/12/13 
s 1
f 264/9/8 263/10/8 283/11/8 284/12/8 
s off
f 285/13/4 286/14/4 287/15/4 288/16/4 
f 286/13/1 289/14/1 290/15/1 287/16/1 
f 289/13/2 291/14/2 292/15/2 290/16/2 
f 291/13/8 285/14/8 288/15/8 292/16/8 
f 288/13/5 287/14/5 290/15/5 292/16/5 
f 291/13/6 289/14/6 286/15/6 285/16/6 
f 293/13/9 294/14/9 295/15/9 296/16/9 
f 294/13/1 297/14/1 298/15/1 295/16/1 
f 297/13/2 299/14/2 300/15/2 298/16/2 
f 299/13/3 293/14/3 296/15/3 300/16/3 
f 296/13/13 295/14/13 298/15/13 300/16/13 
f 299/13/6 297/14/6 294/15/6 293/16/6 
f 301/13/9 302/14/9 303/15/9 304/16/9 
f 302/13/1 305/14/1 306/15/1 303/16/1 
f 305/13/2 307/14/2 308/15/2 306/16/2 
f 307/13/3 301/14/3 304/15/3 308/16/3 
f 304/13/13 303/14/13 306/15/13 308/16/13 
f 307/13/6 305/14/6 302/15/6 301/16/6 
f 309/13/4 310/14/4 311/15/4 312/16/4 
f 310/13/1 313/14/1 314/15/1 311/16/1 
f 313/13/2 315/14/2 316/15/2 314/16/2 
f 315/13/3 309/14/3 312/15/3 316/16/3 
f 312/13/13 311/14/13 314/15/13 316/16/13 
f 315/13/6 313/14/6 310/15/6 309/16/6 
f 317/13/9 318/14/9 319/15/9 320/16/9 
f 318/13/1 321/14/1 322/15/1 319/16/1 
f 321/13/2 323/14/2 324/15/2 322/16/2 
f 323/13/3 317/14/3 320/15/3 324/16/3 
f 320/13/13 319/14/13 322/15/13 324/16/13 
f 323/13/6 321/14/6 318/15/6 317/16/6 
f 325/13/9 326/14/9 327/15/9 328/16/9 
f 326/13/1 329/14/1 330/15/1 327/16/1 
f 329/13/2 331/14/2 332/15/2 330/16/2 
f 331/13/3 325/14/3 328/15/3 332/16/3 
f 328/13/13 327/14/13 330/15/13 332/16/13 
f 331/13/6 329/14/6 326/15/6 325/16/6 
f 333/13/4 334/14/4 335/15/4 336/16/4 
f 334/13/1 337/14/1 338/15/1 335/16/1 
f 337/13/2 339/14/2 340/15/2 338/16/2 
f 339/13/3 333/14/3 336/15/3 340/16/3 
f 336/13/5 335/14/5 338/15/5 340/16/5 
f 339/13/6 337/14/6 334/15/6 333/16/6 
f 341/13/9 342/14/9 343/15/9 344/16/9 
f 342/13/1 345/14/1 346/15/1 343/16/1 
f 345/13/2 347/14/2 348/15/2 346/16/2 
f 347/13/3 341/14/3 344/15/3 348/16/3 
f 344/13/13 343/14/13 346/15/13 348/16/13 
f 347/13/6 345/14/6 342/15/6 341/16/6 
f 349/13/9 350/14/9 351/15/9 352/16/9 
f 350/13/1 353/14/1 354/15/1 351/16/1 
f 353/13/2 355/14/2 356/15/2 354/16/2 
f 355/13/3 349/14/3 352/15/3 356/16/3 
f 352/13/13 351/14/13 354/15/13 356/16/13 
f 355/13/6 353/14/6 350/15/6 349/16/6 
f 357/13/9 358/14/9 359/15/9 360/16/9 
f 358/13/1 361/14/1 362/15/1 359/16/1 
f 361/13/2 363/14/2 364/15/2 362/16/2 
f 363/13/8 357/14/8 360/15/8 364/16/8 
f 360/13/5 359/14/5 362/15/5 364/16/5 
f 363/13/6 361/14/6 358/15/6 357/16/6 
f 365/13/4 366/14/4 367/15/4 368/16/4 
f 366/13/1 369/14/1 370/15/1 367/16/1 
f 369/13/2 371/14/2 372/15/2 370/16/2 
f 371/13/8 365/14/8 368/15/8 372/16/8 
f 368/13/5 367/14/5 370/15/5 372/16/5 
f 371/13/6 369/14/6 366/15/6 365/16/6 
f 373/13/9 374/14/9 375/15/9 376/16/9 
f 374/13/1 377/14/1 378/15/1 375/16/1 
f 377/13/2 379/14/2 380/15/2 378/16/2 
f 379/13/3 373/14/3 376/15/3 380/16/3 
f 376/13/13 375/14/13 378/15/13 380/16/13 
f 379/13/6 377/14/6 374/15/6 373/16/6 
f 381/13/9 382/14/9 383/15/9 384/16/9 
f 382/13/1 385/14/1 386/15/1 383/16/1 
f 385/13/2 387/14/2 388/15/2 386/16/2 
f 387/13/3 381/14/3 384/15/3 388/16/3 
f 384/13/13 383/14/13 386/15/13 388/16/13 
f 387/13/6 385/14/6 382/15/6 381/16/6 
f 389/13/4 390/14/4 391/15/4 392/16/4 
f 390/13/1 393/14/1 394/15/1 391/16/1 
f 393/13/2 395/14/2 396/15/2 394/16/2 
f 395/13/3 389/14/3 392/15/3 396/16/3 
f 392/13/5 391/14/5 394/15/5 396/16/5 
f 395/13/6 393/14/6 390/15/6 389/16/6 
f 397/13/9 398/14/9 399/15/9 400/16/9 
f 398/13/1 401/14/1 402/15/1 399/16/1 
f 401/13/2 403/14/2 404/15/2 402/16/2 
f 403/13/3 397/14/3 400/15/3 404/16/3 
f 400/13/13 399/14/13 402/15/13 404/16/13 
f 403/13/6 401/14/6 398/15/6 397/16/6 
f 405/13/9 406/14/9 407/15/9 408/16/9 
f 406/13/1 409/14/1 410/15/1 407/16/1 
f 409/13/2 411/14/2 412/15/2 410/16/2 
f 411/13/3 405/14/3 408/15/3 412/16/3 
f 408/13/13 407/14/13 410/15/13 412/16/13 
f 411/13/6 409/14/6 406/15/6 405/16/6 
f 413/13/4 414/14/4 415/15/4 416/16/4 
f 414/13/1 417/14/1 418/15/1 415/16/1 
f 417/13/2 419/14/2 420/15/2 418/16/2 
f 419/13/3 413/14/3 416/15/3 420/16/3 
f 416/13/5 415/14/5 418/15/5 420/16/5 
f 419/13/6 417/14/6 414/15/6 413/16/6 
f 421/13/9 422/14/9 423/15/9 424/16/9 
f 422/13/1 425/14/1 426/15/1 423/16/1 
f 425/13/2 427/14/2 428/15/2 426/16/2 
f 427/13/3 421/14/3 424/15/3 428/16/3 
f 424/13/13 423/14/13 426/15/13 428/16/13 
f 427/13/6 425/14/6 422/15/6 421/16/6 
f 429/13/9 430/14/9 431/15/9 432/16/9 
f 430/13/1 433/14/1 434/15/1 431/16/1 
f 433/13/2 435/14/2 436/15/2 434/16/2 
f 435/13/3 429/14/3 432/15/3 436/16/3 
f 432/13/13 431/14/13 434/15/13 436/16/13 
f 435/13/6 433/14/6 430/15/6 429/16/6 
s 1
f 437/9/1 438/10/1 439/11/1 440/12/1 
f 437/9/1 441/10/1 442/11/1 438/12/1 
s 2
f 443/9/14 442/10/14 444/11/14 445/12/14 
s 1
f 446/9/8 447/10/8 448/11/8 443/12/8 
s 2
f 448/9/13 438/10/13 442/11/14 443/12/14 
f 449/9/6 450/10/6 451/11/6 452/12/6 
s 1
f 449/9/8 452/10/8 453/11/8 454/12/8 
f 454/9/8 453/10/8 447/11/8 446/12/8 
s 4
f 450/9/8 449/10/8 449/11/8 450/12/8 
s off
f 455/9/2 454/10/2 446/11/2 441/12/2 
s 1
f 451/9/1 450/10/1 455/11/1 456/12/1 
f 456/9/1 455/10/1 441/11/1 437/12/1 
f 451/9/1 456/10/1 457/11/1 458/12/1 
s off
f 453/9/4 456/10/4 437/11/4 447/12/4 
f 454/9/14 455/10/14 459/11/14 460/12/14 
s 4
f 449/9/8 454/10/8 454/11/8 449/12/8 
f 455/9/8 450/10/8 450/11/8 455/12/8 
f 454/9/8 455/10/8 455/11/8 454/12/8 
s off
f 461/9/2 462/10/2 460/11/2 459/12/2 
f 455/9/1 450/10/1 461/11/1 459/12/1 
f 449/9/8 454/10/8 460/11/8 462/12/8 
f 450/9/6 449/10/6 462/11/6 461/12/6 
f 463/9/4 458/10/4 457/11/4 464/12/4 
s 2
f 452/9/6 451/10/6 458/11/6 463/12/6 
s off
f 456/9/13 453/10/13 464/11/13 457/12/13 
s 1
f 453/9/8 452/10/8 463/11/8 464/12/8 
s off
f 465/9/2 466/10/2 445/11/2 444/12/2 
s 1
f 442/9/1 441/10/1 465/11/1 444/12/1 
s off
f 441/9/15 446/10/15 466/11/15 465/12/15 
s 1
f 446/9/8 443/10/8 445/11/8 466/12/8 
s off
f 467/9/4 440/10/4 439/11/4 468/12/4 
f 447/9/16 437/10/16 440/11/16 467/12/16 
s 2
f 438/9/13 448/10/13 468/11/13 439/12/13 
s 1
f 448/9/8 447/10/8 467/11/8 468/12/8 
s off
f 469/13/9 470/14/9 471/15/9 472/16/9 
f 470/13/1 473/14/1 474/15/1 471/16/1 
f 473/13/2 475/14/2 476/15/2 474/16/2 
f 475/13/8 469/14/8 472/15/8 476/16/8 
f 472/13/5 471/14/5 474/15/5 476/16/5 
f 475/13/6 473/14/6 470/15/6 469/16/6 
# 398 polygons

