# 3ds Max Wavefront OBJ Exporter v0.97b - (c)2007 guruware
# File Created: 15.03.2017 11:50:24

mtllib SPW_Vehicle_Land_Car.mtl

#
# object RR
#

v  -48.8389 37.1837 -74.7750
v  -33.4988 37.1837 -74.7750
v  -33.4988 34.6867 -84.0939
v  -48.8389 34.6867 -84.0939
v  -33.4988 27.8648 -90.9158
v  -48.8389 27.8648 -90.9158
v  -33.4988 18.5459 -93.4128
v  -48.8389 18.5459 -93.4128
v  -33.4988 9.2270 -90.9158
v  -48.8389 9.2270 -90.9158
v  -33.4988 2.4051 -84.0939
v  -48.8389 2.4051 -84.0939
v  -33.4988 -0.0919 -74.7750
v  -48.8389 -0.0919 -74.7750
v  -33.4988 2.4051 -65.4561
v  -48.8389 2.4051 -65.4561
v  -33.4988 9.2270 -58.6342
v  -48.8389 9.2270 -58.6342
v  -33.4988 18.5459 -56.1372
v  -48.8389 18.5459 -56.1372
v  -33.4988 27.8648 -58.6342
v  -48.8389 27.8648 -58.6342
v  -33.4988 34.6867 -65.4561
v  -48.8389 34.6867 -65.4561
# 24 vertices

vn -0.0000 0.9659 -0.2588
vn 0.0000 0.7071 -0.7071
vn 0.0000 0.2588 -0.9659
vn 0.0000 -0.2588 -0.9659
vn 0.0000 -0.7071 -0.7071
vn 0.0000 -0.9659 -0.2588
vn 0.0000 -0.9659 0.2588
vn 0.0000 -0.7071 0.7071
vn 0.0000 -0.2588 0.9659
vn 0.0000 0.2588 0.9659
vn 1.0000 0.0000 -0.0000
vn 1.0000 -0.0000 0.0000
vn 0.0000 0.9659 0.2588
vn 0.0000 0.7071 0.7071
vn -1.0000 -0.0000 0.0000
vn -1.0000 -0.0000 -0.0000
vn -1.0000 0.0000 -0.0000
# 17 vertex normals

vt 0.1409 0.2053 0.0000
vt 0.1828 0.1940 0.0000
vt 0.2135 0.1634 0.0000
vt 0.2247 0.1215 0.0000
vt 0.2135 0.0796 0.0000
vt 0.1828 0.0489 0.0000
vt 0.1409 0.0377 0.0000
vt 0.0991 0.0489 0.0000
vt 0.0684 0.0796 0.0000
vt 0.0572 0.1215 0.0000
vt 0.0684 0.1634 0.0000
vt 0.0991 0.1940 0.0000
# 12 texture coords

g RR
usemtl SPW_Vehicle_Land_Car
s off
f 1/1/1 2/1/1 3/2/1 4/2/1 
f 4/2/2 3/2/2 5/3/2 6/3/2 
f 6/3/3 5/3/3 7/4/3 8/4/3 
f 8/4/4 7/4/4 9/5/4 10/5/4 
f 10/5/5 9/5/5 11/6/5 12/6/5 
f 12/6/6 11/6/6 13/7/6 14/7/6 
f 14/7/7 13/7/7 15/8/7 16/8/7 
f 16/8/8 15/8/8 17/9/8 18/9/8 
f 18/9/9 17/9/9 19/10/9 20/10/9 
f 20/10/10 19/10/10 21/11/10 22/11/10 
f 3/2/11 2/1/11 23/12/11 21/11/11 
f 3/2/11 21/11/11 19/10/11 17/9/11 
f 3/2/11 17/9/11 15/8/11 13/7/11 
f 3/2/11 13/7/11 11/6/11 9/5/11 
f 3/2/12 9/5/12 7/4/12 5/3/12 
f 24/12/13 23/12/13 2/1/13 1/1/13 
f 22/11/14 21/11/14 23/12/14 24/12/14 
f 1/1/15 4/2/15 6/3/15 8/4/15 
f 1/1/16 8/4/16 10/5/16 12/6/16 
f 1/1/16 12/6/16 14/7/16 16/8/16 
f 1/1/17 16/8/17 18/9/17 20/10/17 
f 1/1/17 20/10/17 22/11/17 24/12/17 
# 22 polygons

#
# object FR
#

v  -48.7460 37.1483 73.2235
v  -33.4351 37.1483 73.2235
v  -33.4351 34.6560 63.9223
v  -48.7460 34.6560 63.9223
v  -33.4351 27.8471 57.1133
v  -48.7460 27.8471 57.1133
v  -33.4351 18.5459 54.6211
v  -48.7460 18.5459 54.6211
v  -33.4351 9.2447 57.1133
v  -48.7460 9.2447 57.1133
v  -33.4351 2.4358 63.9223
v  -48.7460 2.4358 63.9223
v  -33.4351 -0.0564 73.2234
v  -48.7460 -0.0564 73.2234
v  -33.4351 2.4358 82.5246
v  -48.7460 2.4358 82.5246
v  -33.4351 9.2447 89.3336
v  -48.7460 9.2447 89.3336
v  -33.4351 18.5459 91.8258
v  -48.7460 18.5459 91.8258
v  -33.4351 27.8471 89.3336
v  -48.7460 27.8471 89.3336
v  -33.4351 34.6560 82.5247
v  -48.7460 34.6560 82.5247
# 24 vertices

vn -0.0000 0.9659 -0.2588
vn 0.0000 0.7071 -0.7071
vn 0.0000 0.2588 -0.9659
vn 0.0000 -0.2588 -0.9659
vn -0.0000 -0.7071 -0.7071
vn -0.0000 -0.9659 -0.2588
vn 0.0000 -0.9659 0.2588
vn 0.0000 -0.7071 0.7071
vn 0.0000 -0.2588 0.9659
vn 0.0000 0.2588 0.9659
vn 1.0000 0.0000 -0.0000
vn 1.0000 0.0000 0.0000
vn 1.0000 -0.0000 0.0000
vn 0.0000 0.9659 0.2588
vn 0.0000 0.7071 0.7071
vn -1.0000 -0.0000 0.0000
vn -1.0000 -0.0000 -0.0000
# 17 vertex normals

vt 0.1409 0.2053 0.0000
vt 0.1828 0.1940 0.0000
vt 0.2135 0.1634 0.0000
vt 0.2247 0.1215 0.0000
vt 0.2135 0.0796 0.0000
vt 0.1828 0.0489 0.0000
vt 0.1409 0.0377 0.0000
vt 0.0991 0.0489 0.0000
vt 0.0684 0.0796 0.0000
vt 0.0572 0.1215 0.0000
vt 0.0684 0.1634 0.0000
vt 0.0991 0.1940 0.0000
# 12 texture coords

g FR
usemtl SPW_Vehicle_Land_Car
s off
f 25/13/18 26/13/18 27/14/18 28/14/18 
f 28/14/19 27/14/19 29/15/19 30/15/19 
f 30/15/20 29/15/20 31/16/20 32/16/20 
f 32/16/21 31/16/21 33/17/21 34/17/21 
f 34/17/22 33/17/22 35/18/22 36/18/22 
f 36/18/23 35/18/23 37/19/23 38/19/23 
f 38/19/24 37/19/24 39/20/24 40/20/24 
f 40/20/25 39/20/25 41/21/25 42/21/25 
f 42/21/26 41/21/26 43/22/26 44/22/26 
f 44/22/27 43/22/27 45/23/27 46/23/27 
f 27/14/28 26/13/28 47/24/28 45/23/28 
f 27/14/28 45/23/28 43/22/28 41/21/28 
f 27/14/28 41/21/28 39/20/28 37/19/28 
f 27/14/29 37/19/29 35/18/29 33/17/29 
f 27/14/30 33/17/30 31/16/30 29/15/30 
f 48/24/31 47/24/31 26/13/31 25/13/31 
f 46/23/32 45/23/32 47/24/32 48/24/32 
f 25/13/33 28/14/33 30/15/33 32/16/33 
f 25/13/34 32/16/34 34/17/34 36/18/34 
f 25/13/34 36/18/34 38/19/34 40/20/34 
f 25/13/33 40/20/33 42/21/33 44/22/33 
f 25/13/34 44/22/34 46/23/34 48/24/34 
# 22 polygons

#
# object RL
#

v  33.4983 37.1837 -74.7748
v  48.8384 37.1837 -74.7748
v  48.8384 34.6867 -84.0937
v  33.4983 34.6867 -84.0937
v  48.8384 27.8648 -90.9156
v  33.4983 27.8648 -90.9156
v  48.8384 18.5459 -93.4126
v  33.4983 18.5459 -93.4126
v  48.8384 9.2270 -90.9156
v  33.4983 9.2270 -90.9156
v  48.8384 2.4051 -84.0937
v  33.4983 2.4051 -84.0937
v  48.8384 -0.0919 -74.7749
v  33.4983 -0.0919 -74.7749
v  48.8384 2.4051 -65.4560
v  33.4983 2.4051 -65.4560
v  48.8384 9.2270 -58.6340
v  33.4983 9.2270 -58.6340
v  48.8384 18.5459 -56.1371
v  33.4983 18.5459 -56.1371
v  48.8384 27.8648 -58.6340
v  33.4983 27.8648 -58.6340
v  48.8384 34.6867 -65.4559
v  33.4983 34.6867 -65.4559
# 24 vertices

vn 0.0000 0.9659 -0.2588
vn -0.0000 0.7071 -0.7071
vn -0.0000 0.2588 -0.9659
vn 0.0000 -0.2588 -0.9659
vn 0.0000 -0.7071 -0.7071
vn 0.0000 -0.9659 -0.2588
vn 0.0000 -0.9659 0.2588
vn 0.0000 -0.7071 0.7071
vn 0.0000 -0.2588 0.9659
vn 0.0000 0.2588 0.9659
vn 1.0000 0.0000 0.0000
vn 1.0000 0.0000 -0.0000
vn 0.0000 0.9659 0.2588
vn 0.0000 0.7071 0.7071
vn -1.0000 -0.0000 0.0000
vn -1.0000 0.0000 0.0000
vn -1.0000 -0.0000 -0.0000
# 17 vertex normals

vt 0.1409 0.2053 0.0000
vt 0.1828 0.1940 0.0000
vt 0.2135 0.1634 0.0000
vt 0.2247 0.1215 0.0000
vt 0.2135 0.0796 0.0000
vt 0.1828 0.0489 0.0000
vt 0.1409 0.0377 0.0000
vt 0.0991 0.0489 0.0000
vt 0.0684 0.0796 0.0000
vt 0.0572 0.1215 0.0000
vt 0.0684 0.1634 0.0000
vt 0.0991 0.1940 0.0000
# 12 texture coords

g RL
usemtl SPW_Vehicle_Land_Car
s off
f 49/25/35 50/25/35 51/26/35 52/26/35 
f 52/26/36 51/26/36 53/27/36 54/27/36 
f 54/27/37 53/27/37 55/28/37 56/28/37 
f 56/28/38 55/28/38 57/29/38 58/29/38 
f 58/29/39 57/29/39 59/30/39 60/30/39 
f 60/30/40 59/30/40 61/31/40 62/31/40 
f 62/31/41 61/31/41 63/32/41 64/32/41 
f 64/32/42 63/32/42 65/33/42 66/33/42 
f 66/33/43 65/33/43 67/34/43 68/34/43 
f 68/34/44 67/34/44 69/35/44 70/35/44 
f 51/26/45 50/25/45 71/36/45 69/35/45 
f 51/26/46 69/35/46 67/34/46 65/33/46 
f 51/26/45 65/33/45 63/32/45 61/31/45 
f 51/26/45 61/31/45 59/30/45 57/29/45 
f 51/26/46 57/29/46 55/28/46 53/27/46 
f 72/36/47 71/36/47 50/25/47 49/25/47 
f 70/35/48 69/35/48 71/36/48 72/36/48 
f 49/25/49 52/26/49 54/27/49 56/28/49 
f 49/25/50 56/28/50 58/29/50 60/30/50 
f 49/25/49 60/30/49 62/31/49 64/32/49 
f 49/25/49 64/32/49 66/33/49 68/34/49 
f 49/25/51 68/34/51 70/35/51 72/36/51 
# 22 polygons

#
# object FL
#

v  33.4346 37.1483 73.2235
v  48.7456 37.1483 73.2235
v  48.7456 34.6560 63.9223
v  33.4346 34.6560 63.9223
v  48.7456 27.8471 57.1133
v  33.4346 27.8471 57.1133
v  48.7456 18.5459 54.6211
v  33.4346 18.5459 54.6211
v  48.7456 9.2447 57.1133
v  33.4346 9.2447 57.1133
v  48.7456 2.4358 63.9223
v  33.4346 2.4358 63.9223
v  48.7456 -0.0564 73.2235
v  33.4346 -0.0564 73.2235
v  48.7456 2.4358 82.5246
v  33.4346 2.4358 82.5246
v  48.7456 9.2447 89.3336
v  33.4346 9.2447 89.3336
v  48.7456 18.5459 91.8258
v  33.4346 18.5459 91.8258
v  48.7456 27.8471 89.3336
v  33.4346 27.8471 89.3336
v  48.7456 34.6560 82.5247
v  33.4346 34.6560 82.5247
# 24 vertices

vn 0.0000 0.9659 -0.2588
vn 0.0000 0.7071 -0.7071
vn 0.0000 0.2588 -0.9659
vn 0.0000 -0.2588 -0.9659
vn 0.0000 -0.7071 -0.7071
vn 0.0000 -0.9659 -0.2588
vn 0.0000 -0.9659 0.2588
vn 0.0000 -0.7071 0.7071
vn 0.0000 -0.2588 0.9659
vn 0.0000 0.2588 0.9659
vn 1.0000 0.0000 0.0000
vn 1.0000 0.0000 -0.0000
vn 1.0000 -0.0000 0.0000
vn 0.0000 0.9659 0.2588
vn 0.0000 0.7071 0.7071
vn -1.0000 -0.0000 -0.0000
vn -1.0000 -0.0000 0.0000
vn -1.0000 0.0000 0.0000
# 18 vertex normals

vt 0.1409 0.2053 0.0000
vt 0.1828 0.1940 0.0000
vt 0.2135 0.1634 0.0000
vt 0.2247 0.1215 0.0000
vt 0.2135 0.0796 0.0000
vt 0.1828 0.0489 0.0000
vt 0.1409 0.0377 0.0000
vt 0.0991 0.0489 0.0000
vt 0.0684 0.0796 0.0000
vt 0.0572 0.1215 0.0000
vt 0.0684 0.1634 0.0000
vt 0.0991 0.1940 0.0000
# 12 texture coords

g FL
usemtl SPW_Vehicle_Land_Car
s off
f 73/37/52 74/37/52 75/38/52 76/38/52 
f 76/38/53 75/38/53 77/39/53 78/39/53 
f 78/39/54 77/39/54 79/40/54 80/40/54 
f 80/40/55 79/40/55 81/41/55 82/41/55 
f 82/41/56 81/41/56 83/42/56 84/42/56 
f 84/42/57 83/42/57 85/43/57 86/43/57 
f 86/43/58 85/43/58 87/44/58 88/44/58 
f 88/44/59 87/44/59 89/45/59 90/45/59 
f 90/45/60 89/45/60 91/46/60 92/46/60 
f 92/46/61 91/46/61 93/47/61 94/47/61 
f 75/38/62 74/37/62 95/48/62 93/47/62 
f 75/38/63 93/47/63 91/46/63 89/45/63 
f 75/38/63 89/45/63 87/44/63 85/43/63 
f 75/38/62 85/43/62 83/42/62 81/41/62 
f 75/38/64 81/41/64 79/40/64 77/39/64 
f 96/48/65 95/48/65 74/37/65 73/37/65 
f 94/47/66 93/47/66 95/48/66 96/48/66 
f 73/37/67 76/38/67 78/39/67 80/40/67 
f 73/37/67 80/40/67 82/41/67 84/42/67 
f 73/37/68 84/42/68 86/43/68 88/44/68 
f 73/37/68 88/44/68 90/45/68 92/46/68 
f 73/37/69 92/46/69 94/47/69 96/48/69 
# 22 polygons

#
# object Body
#

v  49.4147 28.5359 90.6695
v  49.4147 35.8491 83.3563
v  49.4147 37.5795 84.3553
v  49.4147 29.5349 92.3998
v  49.4147 38.5260 73.3663
v  49.4147 35.8491 63.3763
v  49.4147 37.5795 62.3773
v  49.4147 40.5240 73.3663
v  -49.4151 38.5260 73.3663
v  -49.4151 35.8491 83.3563
v  -49.4151 37.5794 84.3553
v  -49.4151 40.5240 73.3663
v  49.4147 28.5359 56.0631
v  49.4147 29.5349 54.3328
v  -49.4151 18.5459 53.3863
v  -49.4151 28.5359 56.0631
v  -49.4151 29.5349 54.3328
v  -49.4151 18.5459 51.3883
v  49.4147 18.5459 93.3463
v  49.4147 18.5459 95.3443
v  -49.4151 28.5359 90.6695
v  -49.4151 29.5349 92.3999
v  -49.4151 37.5795 62.3773
v  49.4147 18.5459 51.3883
v  -49.4151 18.5459 95.3444
v  49.4147 18.5459 53.3863
v  -49.4151 18.5459 93.3463
v  -49.4151 35.8491 63.3763
v  49.4147 28.5359 -57.2574
v  49.4147 35.8492 -64.5706
v  49.4147 37.5795 -63.5716
v  49.4147 29.5349 -55.5271
v  49.4147 38.5260 -74.5606
v  49.4147 35.8492 -84.5507
v  49.4147 37.5795 -85.5497
v  49.4147 40.5240 -74.5606
v  -49.4151 38.5260 -74.5606
v  -49.4151 35.8491 -64.5706
v  -49.4151 37.5795 -63.5716
v  -49.4151 40.5240 -74.5606
v  49.4147 28.5360 -91.8639
v  49.4147 29.5350 -93.5942
v  -49.4151 18.5459 -94.5407
v  -49.4151 28.5360 -91.8639
v  -49.4151 29.5350 -93.5942
v  -49.4151 18.5459 -96.5387
v  49.4147 18.5459 -54.5806
v  49.4147 18.5459 -52.5826
v  -49.4151 28.5359 -57.2574
v  -49.4151 29.5349 -55.5271
v  -49.4151 37.5795 -85.5497
v  49.4147 18.5459 -96.5387
v  -49.4151 18.5459 -52.5826
v  49.4147 18.5459 -94.5407
v  -49.4151 18.5459 -54.5806
v  -49.4151 35.8492 -84.5507
v  53.7341 61.1569 44.7989
v  48.2286 58.6736 46.2741
v  48.6958 57.5635 46.1489
v  54.2013 60.0468 44.6737
v  47.9152 58.6736 45.1045
v  48.3824 57.5635 44.9793
v  53.4208 61.1569 43.6293
v  53.8879 60.0468 43.5041
v  59.8511 62.9100 43.2489
v  51.8183 62.9100 45.4012
v  51.8183 58.1930 45.4012
v  59.8511 59.1153 43.2489
v  50.7492 63.6398 44.2823
v  50.7492 57.4631 44.2823
v  60.2175 63.6398 41.7453
v  60.2175 58.3854 41.7453
v  -51.7892 62.9100 45.4932
v  -59.8220 62.9100 43.3408
v  -59.8220 58.9843 43.3408
v  -51.7892 58.1947 45.4932
v  -60.1884 63.6398 41.8372
v  -60.1884 58.2545 41.8372
v  -50.7201 63.6398 44.3743
v  -50.7201 57.4649 44.3742
v  -53.7347 61.1569 43.6293
v  -48.2291 58.6736 45.1045
v  -48.6963 57.5635 44.9793
v  -54.2018 60.0468 43.5041
v  -48.5425 58.6736 46.2741
v  -49.0097 57.5635 46.1489
v  -54.0481 61.1569 44.7989
v  -54.5152 60.0468 44.6737
v  -49.2128 51.6168 -85.2069
v  -49.2128 51.6168 -123.6898
v  -49.2128 22.4229 -125.9541
v  -49.2128 18.5459 -102.0555
v  -49.2128 18.5401 -94.6617
v  -49.2128 28.5795 -91.9716
v  -49.2128 35.9288 -84.6223
v  -49.2128 38.6189 -74.5829
v  -49.2128 51.6168 99.0468
v  -49.2128 35.9348 63.3481
v  -49.2128 28.5795 -57.1942
v  -49.2128 18.5401 -54.5042
v  -49.2128 18.5461 53.3088
v  -49.2128 35.9288 -64.5435
v  -49.2128 28.5855 55.9988
v  -49.2128 38.6249 73.3875
v  -49.2128 35.9348 83.4269
v  -49.2128 28.5855 90.7762
v  -49.2128 18.5461 93.4663
v  -49.2128 18.5459 99.0469
v  -49.2128 89.4121 -57.6458
v  -49.2128 60.6610 -66.1796
v  -49.2128 87.8952 -51.7827
v  -49.2128 89.4121 22.7112
v  -49.2128 87.8952 -22.1930
v  -49.2128 87.8952 -16.1189
v  -49.2128 87.8952 21.5793
v  -49.2128 59.8845 48.6534
v  -49.2128 60.6609 45.4880
v  -49.2128 60.6610 -16.1189
v  -49.2128 60.6610 -22.1930
v  -49.2128 59.8845 -84.6750
v  -49.2128 58.5524 -123.6899
v  -49.2128 53.7776 119.5195
v  -49.2128 51.6168 119.5195
v  49.2124 51.6168 -123.6899
v  49.2124 22.4229 -125.9542
v  49.2124 18.5459 -102.0555
v  -49.2128 22.4229 119.5195
v  49.2124 18.5401 -94.6617
v  29.0344 18.5401 -94.6617
v  29.0344 18.5401 -54.5042
v  49.2124 18.5401 -54.5042
v  49.2124 18.5461 53.3088
v  29.0344 18.5461 53.3088
v  29.0344 18.5461 93.4662
v  49.2124 18.5461 93.4663
v  49.2124 18.5459 99.0469
v  -29.0348 18.5461 93.4663
v  -29.0348 18.5461 53.3088
v  -29.0348 18.5401 -54.5042
v  -29.0348 18.5401 -94.6617
v  -29.0348 28.5795 -91.9716
v  -29.0348 35.9288 -84.6223
v  -29.0348 38.6189 -74.5829
v  -29.0348 35.9288 -64.5435
v  -29.0348 28.5795 -57.1942
v  -29.0348 28.5855 55.9988
v  -29.0348 35.9348 63.3481
v  -29.0348 38.6249 73.3875
v  -29.0348 35.9348 83.4269
v  -29.0348 28.5855 90.7762
v  49.2124 59.8845 -84.6750
v  49.2124 58.5524 -123.6898
v  49.2124 51.6168 119.5195
v  49.2124 53.7776 119.5195
v  49.2124 59.8845 48.6534
v  49.2124 89.4121 22.7112
v  -46.7358 87.9283 24.0148
v  46.7355 87.9283 24.0148
v  46.7355 60.5448 48.0733
v  -46.7358 60.5448 48.0733
v  49.2124 89.4121 -57.6458
v  -46.7359 87.9303 -59.0022
v  -46.7359 60.5448 -84.0706
v  46.7355 60.5448 -84.0706
v  46.7355 87.9303 -59.0022
v  49.2124 51.6168 -85.2069
v  49.2124 22.4229 119.5195
v  49.2124 51.6168 99.0469
v  49.2124 28.5855 90.7762
v  49.2124 35.9348 83.4269
v  49.2124 38.6249 73.3875
v  49.2124 35.9288 -64.5435
v  49.2124 28.5855 55.9988
v  49.2124 35.9348 63.3481
v  49.2124 28.5795 -57.1942
v  49.2124 38.6189 -74.5829
v  49.2124 35.9288 -84.6223
v  49.2124 28.5795 -91.9716
v  29.0344 28.5795 -91.9716
v  29.0344 35.9288 -84.6223
v  29.0344 38.6189 -74.5829
v  29.0344 35.9288 -64.5435
v  29.0344 28.5795 -57.1942
v  29.0344 28.5855 55.9988
v  29.0344 35.9348 63.3481
v  29.0344 38.6249 73.3875
v  29.0344 35.9348 83.4269
v  29.0344 28.5855 90.7762
v  49.2124 60.6609 -16.1189
v  49.2124 60.6610 -22.1930
v  49.2124 87.8952 -51.7827
v  49.2124 60.6610 -66.1796
v  49.2124 87.8952 -22.1930
v  49.2124 87.8952 -16.1189
v  49.2124 60.6609 45.4880
v  49.2124 87.8952 21.5792
v  46.7355 60.5448 -83.3055
v  46.7355 87.9744 -58.3687
v  -46.7359 87.9744 -58.3687
v  -46.7359 60.5448 -83.3055
v  -46.7358 60.5448 47.4244
v  -46.7358 87.9743 23.3646
v  46.7355 87.9743 23.3646
v  46.7355 60.5448 47.4244
v  -48.7974 60.6610 -66.1796
v  -48.7974 87.8952 -51.7827
v  -48.7974 87.8952 -22.1930
v  -48.7974 60.6610 -22.1930
v  -48.7974 87.8952 21.5793
v  -48.7974 60.6609 45.4880
v  -48.7974 60.6610 -16.1189
v  -48.7974 87.8952 -16.1189
v  48.7858 87.8952 -51.7827
v  48.7858 60.6610 -66.1796
v  48.7858 60.6610 -22.1930
v  48.7858 87.8952 -22.1930
v  48.7858 60.6609 45.4880
v  48.7858 87.8952 21.5792
v  48.7858 87.8952 -16.1189
v  48.7858 60.6609 -16.1189
v  49.6726 52.8996 -2.9030
v  46.2354 52.8996 -2.9030
v  46.2354 51.0646 -2.9030
v  49.6726 51.0646 -2.9030
v  46.2354 52.8996 -11.6797
v  46.2354 51.0646 -11.6797
v  49.6726 52.8996 -11.6797
v  49.6726 51.0646 -11.6797
v  -46.2359 52.8996 -2.9030
v  -49.6731 52.8996 -2.9030
v  -49.6731 51.0646 -2.9030
v  -46.2359 51.0646 -2.9030
v  -49.6731 52.8997 -11.6797
v  -49.6731 51.0646 -11.6797
v  -46.2359 52.8997 -11.6797
v  -46.2359 51.0646 -11.6797
v  -46.2359 52.8996 -53.4662
v  -49.6731 52.8996 -53.4662
v  -49.6731 51.0646 -53.4662
v  -46.2359 51.0646 -53.4662
v  -49.6731 52.8997 -62.2429
v  -49.6731 51.0646 -62.2429
v  -46.2359 52.8997 -62.2429
v  -46.2359 51.0646 -62.2429
v  49.6726 52.8996 -53.4662
v  46.2354 52.8996 -53.4662
v  46.2354 51.0646 -53.4662
v  49.6726 51.0646 -53.4662
v  46.2354 52.8996 -62.2429
v  46.2354 51.0646 -62.2429
v  49.6726 52.8996 -62.2429
v  49.6726 51.0646 -62.2429
v  51.9797 31.9340 122.4900
v  -51.9801 31.9340 122.4900
v  -51.9801 29.6580 122.4900
v  51.9797 29.6580 122.4900
v  -51.9801 31.9340 110.4648
v  -51.9801 29.6580 110.4648
v  51.9797 31.9340 110.4648
v  51.9797 29.6580 110.4648
v  51.4537 29.8379 -116.7220
v  -51.4540 29.8379 -116.7220
v  -51.4540 21.9948 -116.7220
v  51.4537 21.9948 -116.7220
v  -51.4540 29.8379 -128.1759
v  -51.4540 21.9948 -128.1759
v  51.4537 29.8379 -128.1759
v  51.4537 21.9948 -128.1759
v  51.4537 29.8379 121.9086
v  -51.4540 29.8379 121.9086
v  -51.4540 21.9947 121.9087
v  51.4537 21.9947 121.9086
v  -51.4540 29.8379 110.4548
v  -51.4540 21.9948 110.4548
v  51.4537 29.8379 110.4548
v  51.4537 21.9948 110.4548
v  16.8489 41.0793 125.0222
v  14.6468 41.0793 125.0222
v  14.6468 18.3799 125.0222
v  16.8489 18.3799 125.0222
v  14.6468 41.0794 119.4343
v  14.6468 18.3799 119.4343
v  16.8489 41.0794 119.4343
v  16.8489 18.3799 119.4343
v  16.8489 44.4007 119.4343
v  16.8489 44.4007 122.1784
v  14.6468 44.4007 119.4343
v  14.6468 44.4007 122.1784
v  -14.6472 41.0793 125.0222
v  -16.8493 41.0793 125.0222
v  -16.8493 18.3799 125.0222
v  -14.6472 18.3799 125.0222
v  -16.8493 41.0794 119.4343
v  -16.8493 18.3799 119.4343
v  -14.6472 41.0794 119.4343
v  -14.6472 18.3799 119.4343
v  -14.6472 44.4007 119.4343
v  -14.6472 44.4007 122.1784
v  -16.8493 44.4007 119.4343
v  -16.8493 44.4007 122.1784
v  15.3490 21.2061 122.5443
v  -15.3494 21.2061 122.5443
v  -15.3494 19.3740 122.5443
v  15.3490 19.3740 122.5443
v  -15.3494 21.2061 120.7122
v  -15.3494 19.3740 120.7122
v  15.3490 21.2061 120.7122
v  15.3490 19.3740 120.7122
v  15.3490 38.1977 122.5443
v  -15.3494 38.1977 122.5443
v  -15.3494 36.3656 122.5443
v  15.3490 36.3656 122.5443
v  -15.3494 38.1977 120.7122
v  -15.3494 36.3656 120.7122
v  15.3490 38.1977 120.7122
v  15.3490 36.3656 120.7122
v  50.0160 21.3386 50.9828
v  45.7365 21.3386 50.9828
v  45.7365 17.0590 50.9828
v  50.0160 17.0590 50.9828
v  45.7365 21.3386 -52.4372
v  45.7365 17.0590 -52.4372
v  50.0160 21.3386 -52.4372
v  50.0160 17.0590 -52.4372
v  -45.7368 21.3386 50.9828
v  -50.0163 21.3386 50.9828
v  -50.0163 17.0590 50.9828
v  -45.7368 17.0590 50.9828
v  -50.0163 21.3386 -52.4372
v  -50.0163 17.0590 -52.4372
v  -45.7368 21.3386 -52.4372
v  -45.7368 17.0590 -52.4372
# 332 vertices

vn 1.0000 0.0000 -0.0000
vn -1.0000 0.0000 -0.0000
vn -1.0000 0.0000 0.0000
vn 1.0000 0.0000 0.0000
vn -0.0000 0.9659 -0.2588
vn -0.0000 0.7071 -0.7071
vn -0.0000 0.2588 -0.9659
vn 0.0000 0.2588 0.9659
vn -0.0000 0.9659 0.2588
vn -0.0000 0.7071 0.7071
vn 1.0000 -0.0000 -0.0000
vn -1.0000 -0.0000 0.0000
vn 0.0000 -1.0000 -0.0000
vn -0.0000 -0.2588 0.9659
vn 0.0000 -0.7071 0.7071
vn 0.0000 -0.9659 0.2588
vn 0.0000 -0.9659 -0.2588
vn 0.0000 -0.7071 -0.7071
vn 0.0000 -0.2588 -0.9659
vn 0.0000 -0.2588 0.9659
vn -0.0000 -0.2588 -0.9659
vn 0.2588 -0.0000 0.9659
vn -0.8855 -0.3994 0.2373
vn -0.2588 0.0000 -0.9659
vn 0.8855 0.3994 -0.2373
vn 0.3858 -0.9168 -0.1034
vn -0.3858 0.9168 0.1034
vn -0.7230 -0.0000 0.6908
vn 0.9716 -0.0000 0.2368
vn 0.2083 -0.8772 0.4325
vn 0.1226 0.8808 0.4574
vn -0.2588 -0.0000 0.9659
vn -0.9716 -0.0000 0.2367
vn 0.2588 0.0000 -0.9659
vn 0.7230 -0.0000 0.6908
vn -0.1961 -0.8782 0.4363
vn -0.1226 0.8808 0.4574
vn 0.8855 -0.3994 0.2373
vn -0.8855 0.3994 -0.2373
vn -0.3858 -0.9168 -0.1034
vn 0.3858 0.9168 0.1034
vn -1.0000 -0.0000 -0.0000
vn -0.0000 0.0773 -0.9970
vn -0.0000 -0.9871 -0.1601
vn -0.0000 -1.0000 -0.0008
vn -0.0000 -1.0000 0.0001
vn 0.0000 -1.0000 0.0000
vn -0.0001 -1.0000 -0.0000
vn -0.0000 -0.9659 0.2588
vn -0.0000 -0.7071 0.7071
vn 0.0000 0.9994 -0.0341
vn 0.0000 0.0000 -1.0000
vn -0.0000 -0.0000 1.0000
vn -0.0000 0.9963 0.0859
vn 0.0000 0.6600 0.7512
vn -0.0000 0.6600 0.7512
vn 0.0000 1.0000 0.0000
vn -0.0000 0.6752 -0.7376
vn 0.0000 0.6752 -0.7376
vn 1.0000 -0.0000 0.0000
vn -0.0000 -0.9825 0.1861
vn 1.0000 0.0002 -0.0002
vn -0.0000 -0.9976 0.0693
vn 0.0000 0.6727 -0.7399
vn -0.0000 -0.9975 -0.0706
vn 0.0000 0.6594 0.7518
vn 0.0000 -0.4673 0.8841
vn 0.0000 -0.6597 -0.7515
vn 0.0000 -0.0000 1.0000
vn 0.0000 -0.0000 -1.0000
vn -0.0000 -0.0000 -1.0000
vn -0.0000 -1.0000 -0.0000
vn -0.0000 0.0000 -1.0000
vn 0.0000 0.0000 1.0000
vn 0.0000 1.0000 -0.0000
vn 0.0000 0.6504 0.7596
vn -0.0000 1.0000 0.0000
# 77 vertex normals

vt 0.7529 0.0903 0.0000
vt 0.7536 0.0910 0.0000
vt 0.7535 0.0911 0.0000
vt 0.7528 0.0904 0.0000
vt 0.7544 0.0913 0.0000
vt 0.7553 0.0912 0.0000
vt 0.7554 0.0914 0.0000
vt 0.7544 0.0915 0.0000
vt 0.7517 0.0948 0.0000
vt 0.7508 0.0945 0.0000
vt 0.7507 0.0946 0.0000
vt 0.7517 0.0950 0.0000
vt 0.7560 0.0907 0.0000
vt 0.7561 0.0908 0.0000
vt 0.7534 0.0934 0.0000
vt 0.7532 0.0942 0.0000
vt 0.7533 0.0943 0.0000
vt 0.7536 0.0934 0.0000
vt 0.7527 0.0894 0.0000
vt 0.7525 0.0894 0.0000
vt 0.7501 0.0938 0.0000
vt 0.7500 0.0939 0.0000
vt 0.7526 0.0949 0.0000
vt 0.7564 0.0899 0.0000
vt 0.7497 0.0929 0.0000
vt 0.7562 0.0899 0.0000
vt 0.7499 0.0929 0.0000
vt 0.7525 0.0947 0.0000
vt 0.7660 0.0920 0.0000
vt 0.7666 0.0927 0.0000
vt 0.7665 0.0928 0.0000
vt 0.7658 0.0920 0.0000
vt 0.7675 0.0930 0.0000
vt 0.7684 0.0929 0.0000
vt 0.7685 0.0930 0.0000
vt 0.7675 0.0932 0.0000
vt 0.7647 0.0965 0.0000
vt 0.7638 0.0962 0.0000
vt 0.7638 0.0963 0.0000
vt 0.7647 0.0967 0.0000
vt 0.7690 0.0923 0.0000
vt 0.7692 0.0925 0.0000
vt 0.7665 0.0950 0.0000
vt 0.7663 0.0958 0.0000
vt 0.7664 0.0960 0.0000
vt 0.7667 0.0951 0.0000
vt 0.7657 0.0911 0.0000
vt 0.7656 0.0911 0.0000
vt 0.7632 0.0955 0.0000
vt 0.7630 0.0955 0.0000
vt 0.7657 0.0965 0.0000
vt 0.7694 0.0916 0.0000
vt 0.7628 0.0946 0.0000
vt 0.7693 0.0915 0.0000
vt 0.7630 0.0946 0.0000
vt 0.7656 0.0964 0.0000
vt 0.7325 0.1622 0.0000
vt 0.7300 0.1581 0.0000
vt 0.7302 0.1562 0.0000
vt 0.7327 0.1604 0.0000
vt 0.7320 0.1581 0.0000
vt 0.7322 0.1562 0.0000
vt 0.7344 0.1622 0.0000
vt 0.7347 0.1604 0.0000
vt 0.7351 0.1652 0.0000
vt 0.7315 0.1652 0.0000
vt 0.7315 0.1573 0.0000
vt 0.7351 0.1588 0.0000
vt 0.7333 0.1664 0.0000
vt 0.7333 0.1560 0.0000
vt 0.7376 0.1664 0.0000
vt 0.7376 0.1576 0.0000
vt 0.7313 0.1652 0.0000
vt 0.7349 0.1652 0.0000
vt 0.7349 0.1586 0.0000
vt 0.7313 0.1573 0.0000
vt 0.7374 0.1664 0.0000
vt 0.7374 0.1574 0.0000
vt 0.7332 0.1664 0.0000
vt 0.7332 0.1560 0.0000
vt 0.1253 0.4952 0.0000
vt 0.0233 0.4952 0.0000
vt 0.0173 0.4178 0.0000
vt 0.0806 0.4075 0.0000
vt 0.0908 0.4075 0.0000
vt 0.0992 0.4388 0.0000
vt 0.1222 0.4617 0.0000
vt 0.1535 0.4701 0.0000
vt 0.6140 0.4952 0.0000
vt 0.5146 0.4617 0.0000
vt 0.2077 0.4388 0.0000
vt 0.2161 0.4075 0.0000
vt 0.4833 0.4075 0.0000
vt 0.1848 0.4617 0.0000
vt 0.4917 0.4388 0.0000
vt 0.5459 0.4701 0.0000
vt 0.5772 0.4617 0.0000
vt 0.6002 0.4388 0.0000
vt 0.6086 0.4075 0.0000
vt 0.6140 0.4075 0.0000
vt 0.1984 0.5954 0.0000
vt 0.1758 0.5192 0.0000
vt 0.2140 0.5914 0.0000
vt 0.4115 0.5954 0.0000
vt 0.2924 0.5914 0.0000
vt 0.3085 0.5914 0.0000
vt 0.4085 0.5914 0.0000
vt 0.4803 0.5171 0.0000
vt 0.4719 0.5192 0.0000
vt 0.3085 0.5192 0.0000
vt 0.2924 0.5192 0.0000
vt 0.1267 0.5171 0.0000
vt 0.0233 0.5136 0.0000
vt 0.6683 0.5009 0.0000
vt 0.6683 0.4952 0.0000
vt 0.9334 0.9523 0.0000
vt 0.4856 0.9523 0.0000
vt 0.4856 0.8195 0.0000
vt 0.9334 0.8195 0.0000
vt 0.7104 0.0454 0.0000
vt 0.7604 0.0454 0.0000
vt 0.7604 0.0954 0.0000
vt 0.7104 0.0954 0.0000
vt 0.6683 0.4178 0.0000
vt 0.7405 0.1754 0.0000
vt 0.7482 0.1741 0.0000
vt 0.7552 0.1706 0.0000
vt 0.7607 0.1651 0.0000
vt 0.7643 0.1581 0.0000
vt 0.7655 0.1504 0.0000
vt 0.7643 0.1426 0.0000
vt 0.7607 0.1357 0.0000
vt 0.7552 0.1301 0.0000
vt 0.7482 0.1266 0.0000
vt 0.7405 0.1254 0.0000
vt 0.7203 0.1357 0.0000
vt 0.7328 0.1266 0.0000
vt 0.7258 0.1301 0.0000
vt 0.7167 0.1426 0.0000
vt 0.7155 0.1504 0.0000
vt 0.7167 0.1581 0.0000
vt 0.7203 0.1651 0.0000
vt 0.7258 0.1706 0.0000
vt 0.7328 0.1741 0.0000
vt 0.9684 0.6947 0.0000
vt 0.9684 0.7982 0.0000
vt 0.7074 0.7982 0.0000
vt 0.7074 0.6947 0.0000
vt 0.4856 0.9838 0.0000
vt 0.9334 0.9838 0.0000
vt 0.0160 0.9855 0.0000
vt 0.0160 0.9759 0.0000
vt 0.4548 0.9759 0.0000
vt 0.4548 0.9855 0.0000
vt 0.7074 0.4498 0.0000
vt 0.7074 0.2619 0.0000
vt 0.9684 0.2619 0.0000
vt 0.9684 0.4498 0.0000
vt 0.5823 0.2991 0.0000
vt 0.5607 0.2866 0.0000
vt 0.5390 0.2991 0.0000
vt 0.5390 0.3241 0.0000
vt 0.5823 0.3241 0.0000
vt 0.5607 0.3366 0.0000
vt 0.7072 0.6772 0.0000
vt 0.7072 0.4641 0.0000
vt 0.9682 0.4641 0.0000
vt 0.9682 0.6772 0.0000
vt 0.6623 0.6981 0.0000
vt 0.5603 0.6981 0.0000
vt 0.6050 0.6104 0.0000
vt 0.6684 0.6207 0.0000
vt 0.0160 0.8458 0.0000
vt 0.4548 0.8458 0.0000
vt 0.0716 0.6981 0.0000
vt 0.0716 0.6104 0.0000
vt 0.0771 0.6104 0.0000
vt 0.0854 0.6418 0.0000
vt 0.1084 0.6647 0.0000
vt 0.1397 0.6731 0.0000
vt 0.5008 0.6647 0.0000
vt 0.1940 0.6418 0.0000
vt 0.2023 0.6104 0.0000
vt 0.4695 0.6104 0.0000
vt 0.1710 0.6647 0.0000
vt 0.4779 0.6418 0.0000
vt 0.5321 0.6731 0.0000
vt 0.5634 0.6647 0.0000
vt 0.5864 0.6418 0.0000
vt 0.5948 0.6104 0.0000
vt 0.7155 0.1254 0.0000
vt 0.7655 0.1254 0.0000
vt 0.7655 0.1754 0.0000
vt 0.7155 0.1754 0.0000
vt 0.7600 0.1660 0.0000
vt 0.7649 0.1448 0.0000
vt 0.7513 0.1278 0.0000
vt 0.7296 0.1278 0.0000
vt 0.7161 0.1448 0.0000
vt 0.7209 0.1660 0.0000
vt 0.7354 0.0954 0.0000
vt 0.7549 0.0860 0.0000
vt 0.7598 0.0649 0.0000
vt 0.7462 0.0479 0.0000
vt 0.7245 0.0479 0.0000
vt 0.7110 0.0649 0.0000
vt 0.7158 0.0860 0.0000
vt 0.2053 0.7201 0.0000
vt 0.0174 0.7039 0.0000
vt 0.0174 0.6981 0.0000
vt 0.3771 0.7221 0.0000
vt 0.6623 0.7165 0.0000
vt 0.5589 0.7201 0.0000
vt 0.3932 0.7221 0.0000
vt 0.4872 0.7984 0.0000
vt 0.4716 0.7943 0.0000
vt 0.5098 0.7221 0.0000
vt 0.3932 0.7943 0.0000
vt 0.3771 0.7943 0.0000
vt 0.2137 0.7221 0.0000
vt 0.2771 0.7943 0.0000
vt 0.2741 0.7984 0.0000
vt 0.0174 0.6207 0.0000
vt 0.5357 0.2866 0.0000
vt 0.5857 0.2866 0.0000
vt 0.5857 0.3366 0.0000
vt 0.5357 0.3366 0.0000
vt 0.8705 0.1130 0.0000
vt 0.9205 0.1130 0.0000
vt 0.9205 0.1630 0.0000
vt 0.8705 0.1630 0.0000
vt 0.7265 0.1382 0.0000
vt 0.7265 0.1377 0.0000
vt 0.7286 0.1382 0.0000
vt 0.7286 0.1377 0.0000
vt 0.7386 0.1382 0.0000
vt 0.7386 0.1377 0.0000
vt 0.7407 0.1382 0.0000
vt 0.7407 0.1377 0.0000
vt 0.7574 0.1405 0.0000
vt 0.7739 0.1405 0.0000
vt 0.7739 0.1401 0.0000
vt 0.7574 0.1401 0.0000
vt 0.7738 0.1401 0.0000
vt 0.7738 0.1389 0.0000
vt 0.7574 0.1389 0.0000
vt 0.7630 0.1419 0.0000
vt 0.7633 0.1419 0.0000
vt 0.7633 0.1383 0.0000
vt 0.7630 0.1383 0.0000
vt 0.7630 0.1424 0.0000
vt 0.7633 0.1424 0.0000
vt 0.7680 0.1419 0.0000
vt 0.7683 0.1419 0.0000
vt 0.7683 0.1383 0.0000
vt 0.7680 0.1383 0.0000
vt 0.7680 0.1424 0.0000
vt 0.7683 0.1424 0.0000
vt 0.7632 0.1388 0.0000
vt 0.7681 0.1388 0.0000
vt 0.7681 0.1385 0.0000
vt 0.7632 0.1385 0.0000
vt 0.7632 0.1415 0.0000
vt 0.7681 0.1415 0.0000
vt 0.7681 0.1412 0.0000
vt 0.7632 0.1412 0.0000
vt 0.7577 0.1388 0.0000
vt 0.7584 0.1388 0.0000
vt 0.7584 0.1381 0.0000
vt 0.7577 0.1381 0.0000
vt 0.7729 0.1388 0.0000
vt 0.7736 0.1388 0.0000
vt 0.7736 0.1381 0.0000
vt 0.7729 0.1381 0.0000
# 274 texture coords

g Body
usemtl SPW_Vehicle_Land_Car
s 1
f 97/49/70 98/50/70 99/51/70 100/52/70 
f 101/53/70 102/54/70 103/55/70 104/56/70 
f 105/57/71 106/58/71 107/59/71 108/60/71 
s off
f 102/54/70 109/61/70 110/62/70 103/55/70 
s 1
f 111/63/72 112/64/72 113/65/72 114/66/72 
f 115/67/70 97/49/70 100/52/70 116/68/73 
f 106/58/71 117/69/71 118/70/71 107/59/71 
s off
f 108/60/74 104/56/74 103/55/74 119/71/74 
f 119/71/75 103/55/75 110/62/75 113/65/75 
f 113/65/76 110/62/76 120/72/76 114/66/76 
f 121/73/77 116/68/77 100/52/77 118/70/77 
f 107/59/78 99/51/78 104/56/78 108/60/78 
f 118/70/79 100/52/79 99/51/79 107/59/79 
f 109/61/80 122/74/80 120/72/80 110/62/80 
f 117/69/81 123/75/81 121/73/81 118/70/81 
s 1
f 112/64/72 124/76/71 119/71/71 113/65/72 
f 98/50/70 101/53/70 104/56/70 99/51/70 
s off
f 124/76/71 105/57/71 108/60/71 119/71/71 
f 115/67/82 116/68/82 121/73/82 123/75/82 
f 114/66/82 120/72/82 122/74/82 111/63/82 
f 112/64/83 111/63/83 122/74/83 109/61/83 
f 124/76/84 112/64/84 109/61/84 102/54/84 
f 105/57/85 124/76/85 102/54/85 101/53/85 
f 106/58/86 105/57/86 101/53/86 98/50/86 
f 117/69/87 106/58/87 98/50/87 97/49/87 
f 123/75/88 117/69/88 97/49/88 115/67/88 
f 125/77/70 126/78/70 127/79/70 128/80/70 
s 1
f 129/81/70 130/82/70 131/83/70 132/84/70 
f 133/85/71 134/86/71 135/87/71 136/88/71 
s off
f 130/82/70 137/89/70 138/90/70 131/83/70 
f 139/91/81 140/92/81 141/93/81 142/94/81 
f 143/95/80 125/77/80 128/80/80 144/96/80 
s 1
f 134/86/71 145/97/71 146/98/71 135/87/71 
s off
f 136/88/74 132/84/74 131/83/74 147/99/74 
f 147/99/75 131/83/75 138/90/75 141/93/75 
f 141/93/76 138/90/76 148/100/76 142/94/76 
f 149/101/77 144/96/77 128/80/77 146/98/77 
f 135/87/78 127/79/78 132/84/78 136/88/78 
f 146/98/79 128/80/79 127/79/79 135/87/79 
f 137/89/70 150/102/70 148/100/70 138/90/70 
f 145/97/72 151/103/72 149/101/72 146/98/72 
f 140/92/81 152/104/81 147/99/81 141/93/81 
s 1
f 126/78/70 129/81/70 132/84/70 127/79/70 
f 152/104/71 133/85/71 136/88/71 147/99/71 
s off
f 143/95/82 144/96/82 149/101/82 151/103/82 
f 142/94/82 148/100/82 150/102/82 139/91/82 
f 140/92/89 139/91/89 150/102/89 137/89/89 
f 152/104/84 140/92/84 137/89/84 130/82/84 
f 133/85/85 152/104/85 130/82/85 129/81/85 
f 134/86/86 133/85/86 129/81/86 126/78/86 
f 145/97/87 134/86/87 126/78/87 125/77/87 
f 151/103/90 145/97/90 125/77/90 143/95/90 
f 153/105/91 154/106/91 155/107/91 156/108/91 
f 154/106/92 157/109/92 158/110/92 155/107/92 
f 157/109/93 159/111/93 160/112/93 158/110/93 
f 159/111/94 153/105/94 156/108/94 160/112/94 
f 156/108/95 155/107/95 158/110/95 160/112/95 
f 159/111/96 157/109/96 154/106/96 153/105/96 
f 161/113/91 162/114/91 163/115/91 164/116/91 
f 162/114/97 165/117/97 166/118/97 163/115/97 
f 165/117/93 167/119/93 168/120/93 166/118/93 
f 167/119/98 161/113/98 164/116/98 168/120/98 
f 164/116/99 163/115/99 166/118/99 168/120/99 
f 167/119/100 165/117/100 162/114/100 161/113/100 
f 169/121/101 170/122/101 171/123/101 172/124/101 
f 170/122/102 173/125/102 174/126/102 171/123/102 
f 173/125/103 175/127/103 176/128/103 174/126/103 
f 175/127/104 169/121/104 172/124/104 176/128/104 
f 172/124/105 171/123/105 174/126/105 176/128/105 
f 175/127/106 173/125/106 170/122/106 169/121/106 
f 177/111/103 178/109/103 179/110/103 180/112/103 
f 178/109/107 181/106/107 182/107/107 179/110/107 
f 181/106/101 183/105/101 184/108/101 182/107/101 
f 183/105/108 177/111/108 180/112/108 184/108/108 
f 180/112/109 179/110/109 182/107/109 184/108/109 
f 183/105/110 181/106/110 178/109/110 177/111/110 
s 1
f 185/129/71 186/130/71 187/131/111 188/132/81 
f 188/132/81 189/133/71 190/134/81 185/129/71 
f 185/129/71 190/134/81 191/135/111 192/136/71 
f 193/137/71 185/129/71 192/136/71 194/138/71 
f 195/139/111 196/140/111 197/141/71 198/142/72 
f 192/136/71 198/142/72 197/141/71 199/143/71 
f 192/136/71 199/143/71 194/138/71 
f 193/137/71 194/138/71 200/144/71 201/145/72 
f 193/137/71 201/145/72 202/146/81 203/147/81 
f 193/137/71 203/147/81 204/148/111 
s off
f 205/149/81 206/150/81 207/151/81 208/152/81 
f 208/152/71 207/151/71 209/153/71 210/154/71 
f 208/152/111 210/154/111 211/155/111 212/156/111 
f 213/157/72 212/156/72 211/155/72 
s 1
f 214/158/71 210/154/72 209/153/72 215/159/71 
f 206/150/71 205/149/71 216/160/71 215/159/71 
f 216/160/71 217/161/71 186/130/71 185/129/71 
f 215/159/71 216/160/71 185/129/71 218/162/71 
f 193/137/71 219/163/71 218/162/71 185/129/71 
f 214/158/71 215/159/71 218/162/71 212/156/111 
f 213/157/111 214/158/71 212/156/111 
s off
f 186/164/112 220/165/112 221/166/112 187/167/112 
f 187/168/113 221/169/113 222/170/113 188/171/113 
s 1
f 219/163/71 193/137/71 204/148/111 223/172/111 
s off
f 188/173/114 222/174/114 224/175/114 225/176/114 
f 226/177/115 227/178/115 228/179/115 229/180/115 
f 230/181/82 231/182/82 232/183/82 233/184/82 
f 232/183/82 204/185/82 203/186/82 233/184/82 
f 229/180/116 230/181/116 233/184/116 226/177/116 
f 225/176/117 226/177/117 233/184/117 234/187/117 
f 234/187/115 197/188/115 196/189/115 235/190/115 
f 225/176/116 234/187/116 235/190/116 236/191/116 
f 188/173/114 225/176/114 236/191/114 189/192/114 
f 190/168/89 189/169/89 236/170/89 237/171/89 
f 191/168/84 190/169/84 237/170/84 238/171/84 
f 192/168/118 191/169/118 238/170/118 239/171/118 
f 198/168/86 192/169/86 239/170/86 240/171/86 
f 195/168/87 198/169/87 240/170/87 241/171/87 
f 235/168/88 196/169/88 195/170/88 241/171/88 
f 199/168/83 197/169/83 234/170/83 242/171/83 
f 194/168/119 199/169/119 242/170/119 243/171/119 
f 200/168/85 194/169/85 243/170/85 244/171/85 
f 201/168/86 200/169/86 244/170/86 245/171/86 
f 202/168/87 201/169/87 245/170/87 246/171/87 
f 233/168/88 203/169/88 202/170/88 246/171/88 
f 247/193/120 248/194/120 217/195/120 216/196/120 
f 248/197/121 220/165/121 186/164/121 217/198/121 
f 218/199/122 219/200/122 249/201/122 250/202/122 
f 212/203/123 218/204/123 250/205/123 251/206/123 
f 252/207/124 208/208/124 253/209/124 254/210/124 
f 251/211/124 252/207/124 254/210/124 255/212/124 
f 256/212/125 253/211/125 208/207/125 212/208/125 
f 256/212/124 212/208/124 251/209/124 255/210/124 
f 205/213/126 208/214/126 252/215/126 257/216/126 
f 216/207/127 205/208/127 258/209/127 259/210/127 
f 247/211/127 216/207/127 259/210/127 260/212/127 
f 261/211/128 258/207/128 205/208/128 257/209/128 
f 260/212/128 261/211/128 257/209/128 247/210/128 
s 1
f 220/217/129 262/218/129 222/219/73 221/220/73 
s off
f 249/201/122 219/200/122 223/221/122 263/222/122 
f 204/168/130 232/169/130 263/170/130 223/171/130 
s 1
f 264/223/73 232/224/73 231/225/70 265/226/70 
f 264/223/73 265/226/70 266/227/70 267/228/70 
f 262/218/129 264/223/73 267/228/70 268/229/80 
f 269/230/70 228/231/70 227/232/80 270/233/70 
f 267/228/70 270/233/70 227/232/80 271/234/80 
f 267/228/70 271/234/80 268/229/80 
f 262/218/129 268/229/80 272/235/70 273/236/73 
f 274/237/131 224/238/70 222/219/73 273/236/73 
f 262/218/129 273/236/73 222/219/73 
s off
f 275/239/89 225/240/89 224/241/89 274/242/89 
f 226/173/70 225/243/70 275/244/70 276/245/70 
f 226/173/70 276/245/70 277/246/70 278/247/70 
f 226/173/80 278/247/80 279/248/80 
f 271/239/88 227/240/88 226/241/88 279/242/88 
f 280/168/83 229/169/83 228/170/83 269/171/83 
f 230/249/70 229/250/70 280/251/70 281/252/70 
f 230/249/70 281/252/70 282/253/70 283/254/70 
f 230/249/70 283/254/70 284/255/70 
f 265/168/88 231/169/88 230/170/88 284/171/88 
f 234/249/72 233/250/72 246/251/72 245/252/72 
f 234/249/81 245/252/81 244/253/81 243/254/81 
f 234/249/71 243/254/71 242/255/71 
f 236/249/72 235/250/72 241/251/72 240/252/72 
f 236/249/72 240/252/72 239/253/72 238/254/72 
f 236/249/71 238/254/71 237/255/71 
s 1
f 251/256/73 250/257/73 249/258/73 285/259/73 
f 262/218/129 220/217/129 248/260/129 264/223/73 
f 264/223/73 248/260/129 247/261/73 286/262/73 
f 247/261/73 257/263/80 287/264/80 288/265/129 
f 247/261/73 288/265/129 286/262/73 
f 286/262/73 289/266/80 290/267/129 285/259/73 
f 264/223/73 286/262/73 285/259/73 249/258/73 
f 291/268/73 251/256/73 285/259/73 
s off
f 291/268/71 292/269/71 290/267/71 289/266/71 
f 291/268/72 289/266/72 287/264/72 257/263/72 
f 291/268/73 257/263/73 252/270/73 251/256/73 
s 1
f 264/223/73 249/258/73 263/271/73 232/224/73 
s off
f 266/168/87 265/169/87 284/170/87 283/171/87 
f 267/168/86 266/169/86 283/170/86 282/171/86 
f 270/168/85 267/169/85 282/170/85 281/171/85 
f 269/168/119 270/169/119 281/170/119 280/171/119 
f 268/239/87 271/240/87 279/241/87 278/242/87 
f 272/239/86 268/240/86 278/241/86 277/242/86 
f 273/239/85 272/240/85 277/241/85 276/242/85 
f 274/239/84 273/240/84 276/241/84 275/242/84 
f 261/272/81 260/273/81 293/274/81 294/275/81 
f 258/272/132 261/273/132 294/274/132 295/275/132 
f 294/276/133 293/277/133 296/278/133 295/279/133 
f 260/272/126 259/273/126 296/274/126 293/275/126 
f 259/272/70 258/273/70 295/274/70 296/275/70 
f 253/272/70 256/273/70 297/274/70 298/275/70 
f 254/272/134 253/273/134 298/274/134 299/275/134 
f 298/276/135 297/277/135 300/278/135 299/279/135 
f 256/272/126 255/273/126 300/274/126 297/275/126 
f 255/272/71 254/273/71 299/274/71 300/275/71 
f 207/272/136 206/273/136 301/274/136 302/275/136 
f 209/272/82 207/273/82 302/274/82 303/275/82 
f 302/276/71 301/277/71 304/278/71 303/279/71 
f 206/272/126 215/273/126 304/274/126 301/275/126 
f 215/272/121 209/273/121 303/274/121 304/275/121 
f 213/272/137 211/273/137 305/274/137 306/275/137 
f 214/272/126 213/273/126 306/274/126 307/275/126 
f 308/276/71 307/277/71 306/278/71 305/279/71 
f 211/272/82 210/273/82 308/274/82 305/275/82 
f 210/272/138 214/273/138 307/274/138 308/275/138 
f 288/272/136 287/273/136 309/274/136 310/275/136 
f 286/272/126 288/273/126 310/274/126 311/275/126 
f 312/276/129 311/277/129 310/278/129 309/279/129 
f 287/272/82 289/273/82 312/274/82 309/275/82 
f 289/272/139 286/273/139 311/274/139 312/275/139 
f 292/272/137 291/273/137 313/274/137 314/275/137 
f 290/272/82 292/273/82 314/274/82 315/275/82 
f 314/276/80 313/277/80 316/278/80 315/279/80 
f 291/272/126 285/273/126 316/274/126 313/275/126 
f 285/272/138 290/273/138 315/274/138 316/275/138 
f 317/280/138 318/280/138 319/281/138 320/281/138 
f 318/280/71 321/282/71 322/283/71 319/281/71 
f 321/282/140 323/282/140 324/283/140 322/283/140 
f 323/282/70 317/280/70 320/281/70 324/283/70 
f 320/281/82 319/281/82 322/283/82 324/283/82 
f 323/282/126 321/282/126 318/280/126 317/280/126 
f 325/280/138 326/280/138 327/281/138 328/281/138 
f 326/280/71 329/282/71 330/283/71 327/281/71 
f 329/282/139 331/282/139 332/283/139 330/283/139 
f 331/282/73 325/280/73 328/281/73 332/283/73 
f 328/281/141 327/281/141 330/283/141 332/283/141 
f 331/282/126 329/282/126 326/280/126 325/280/126 
f 333/284/138 334/284/138 335/285/138 336/285/138 
f 334/284/81 337/286/81 338/287/81 335/285/81 
f 337/286/121 339/286/121 340/287/121 338/287/121 
f 339/286/70 333/284/70 336/285/70 340/287/70 
f 336/285/82 335/285/82 338/287/82 340/287/82 
f 339/286/126 337/286/126 334/284/126 333/284/126 
f 341/284/122 342/284/122 343/285/122 344/285/122 
f 342/284/81 345/286/81 346/287/81 343/285/81 
f 345/286/121 347/286/121 348/287/121 346/287/121 
f 347/286/70 341/284/70 344/285/70 348/287/70 
f 344/285/82 343/285/82 346/287/82 348/287/82 
f 347/286/126 345/286/126 342/284/126 341/284/126 
f 349/288/138 350/289/138 351/290/138 352/291/138 
f 350/289/71 353/289/71 354/290/71 351/290/71 
f 353/289/121 355/288/121 356/291/121 354/290/121 
f 355/288/70 349/288/70 352/291/70 356/291/70 
f 352/291/116 351/290/116 354/290/116 356/291/116 
f 355/288/126 353/289/126 350/289/126 349/288/126 
f 357/291/138 358/292/138 359/293/138 360/294/138 
f 358/292/71 361/292/71 362/293/71 359/293/71 
f 361/292/142 363/291/142 364/294/142 362/293/142 
f 363/291/129 357/291/129 360/294/129 364/294/129 
f 360/294/82 359/293/82 362/293/82 364/294/82 
f 363/291/126 361/292/126 358/292/126 357/291/126 
f 365/291/143 366/292/143 367/293/143 368/294/143 
f 366/292/71 369/292/71 370/293/71 367/293/71 
f 369/292/140 371/291/140 372/294/140 370/293/140 
f 371/291/70 365/291/70 368/294/70 372/294/70 
f 368/294/141 367/293/141 370/293/141 372/294/141 
f 371/291/144 369/292/144 366/292/144 365/291/144 
f 373/295/143 374/296/143 375/297/143 376/298/143 
s 1
f 374/296/72 377/296/72 378/297/72 375/297/72 
s 2
f 377/296/121 379/295/121 380/298/121 378/297/121 
s 1
f 379/295/80 373/295/80 376/298/70 380/298/70 
s off
f 376/298/82 375/297/82 378/297/82 380/298/82 
s 1
f 373/295/80 379/295/80 381/299/80 382/299/80 
s off
f 381/299/126 383/300/126 384/300/126 382/299/126 
s 2
f 379/295/121 377/296/121 383/300/121 381/299/121 
s 1
f 377/296/72 374/296/72 384/300/72 383/300/81 
s off
f 374/296/145 373/295/145 382/299/145 384/300/145 
f 385/301/138 386/302/138 387/303/138 388/304/138 
s 1
f 386/302/72 389/302/72 390/303/81 387/303/81 
s 2
f 389/302/139 391/301/139 392/304/139 390/303/139 
s 1
f 391/301/70 385/301/80 388/304/80 392/304/80 
s off
f 388/304/82 387/303/82 390/303/82 392/304/82 
s 1
f 385/301/80 391/301/70 393/305/80 394/305/80 
s off
f 393/305/126 395/306/126 396/306/126 394/305/126 
s 2
f 391/301/139 389/302/139 395/306/121 393/305/121 
s 1
f 389/302/72 386/302/72 396/306/72 395/306/81 
s off
f 386/302/145 385/301/145 394/305/145 396/306/145 
f 397/307/138 398/308/138 399/309/138 400/310/138 
f 398/308/81 401/308/81 402/309/81 399/309/81 
f 401/308/121 403/307/121 404/310/121 402/309/121 
f 403/307/70 397/307/70 400/310/70 404/310/70 
f 400/310/116 399/309/116 402/309/116 404/310/116 
f 403/307/144 401/308/144 398/308/144 397/307/144 
f 405/311/138 406/312/138 407/313/138 408/314/138 
f 406/312/81 409/312/81 410/313/81 407/313/81 
f 409/312/121 411/311/121 412/314/121 410/313/121 
f 411/311/70 405/311/70 408/314/70 412/314/70 
f 408/314/82 407/313/82 410/313/82 412/314/82 
f 411/311/146 409/312/146 406/312/146 405/311/146 
f 413/315/138 414/316/138 415/317/138 416/318/138 
f 414/316/71 417/316/71 418/317/71 415/317/71 
f 417/316/142 419/315/142 420/318/142 418/317/142 
f 419/315/70 413/315/70 416/318/70 420/318/70 
f 416/318/82 415/317/82 418/317/82 420/318/82 
f 419/315/126 417/316/126 414/316/126 413/315/126 
f 421/319/138 422/320/138 423/321/138 424/322/138 
f 422/320/71 425/320/71 426/321/71 423/321/71 
f 425/320/121 427/319/121 428/322/121 426/321/121 
f 427/319/129 421/319/129 424/322/129 428/322/129 
f 424/322/82 423/321/82 426/321/82 428/322/82 
f 427/319/126 425/320/126 422/320/126 421/319/126 
# 286 polygons - 12 triangles

