# 3ds Max Wavefront OBJ Exporter v0.97b - (c)2007 guruware
# File Created: 15.03.2017 10:59:37

mtllib SPW_Urban_Props_Dumpster_01.mtl

#
# object SPW_Urban_Props_Dumpster_01
#

v  -11.9529 3.8411 -14.7517
v  -11.9529 3.8411 -12.8336
v  -10.4497 3.3527 -12.8336
v  -10.4497 3.3527 -14.7517
v  -9.5207 2.0740 -12.8336
v  -9.5207 2.0739 -14.7517
v  -9.5207 0.4934 -12.8336
v  -9.5207 0.4934 -14.7517
v  -10.4497 -0.7853 -12.8336
v  -10.4497 -0.7853 -14.7517
v  -11.9529 -1.2738 -12.8336
v  -11.9529 -1.2738 -14.7517
v  -13.4561 -0.7853 -12.8336
v  -13.4561 -0.7853 -14.7517
v  -14.3852 0.4934 -12.8336
v  -14.3852 0.4934 -14.7517
v  -14.3852 2.0740 -12.8336
v  -14.3852 2.0740 -14.7517
v  -13.4561 3.3527 -12.8336
v  -13.4561 3.3527 -14.7517
v  -11.9529 2.5540 -14.7517
v  -12.6996 2.3114 -14.7517
v  -11.9529 3.8411 12.8336
v  -11.9529 3.8411 14.7516
v  -10.4497 3.3527 14.7516
v  -10.4497 3.3527 12.8336
v  -9.5206 2.0739 14.7516
v  -9.5206 2.0739 12.8336
v  -9.5206 0.4934 14.7516
v  -9.5206 0.4934 12.8336
v  -10.4497 -0.7853 14.7516
v  -10.4497 -0.7853 12.8336
v  -11.9529 -1.2738 14.7516
v  -11.9529 -1.2738 12.8336
v  -13.4561 -0.7853 14.7516
v  -13.4561 -0.7853 12.8336
v  -14.3851 0.4934 14.7516
v  -14.3851 0.4934 12.8336
v  -14.3851 2.0739 14.7516
v  -14.3851 2.0739 12.8336
v  -13.4561 3.3527 14.7516
v  -12.6992 2.3109 14.7516
v  -11.9529 2.5534 14.7516
v  -13.4561 3.3527 12.8336
v  -11.2065 2.3109 14.7516
v  -13.1605 1.6760 14.7516
v  -13.1605 0.8913 14.7516
v  -12.6992 0.2564 14.7516
v  -11.9529 0.0139 14.7516
v  -11.2065 0.2564 14.7516
v  -10.7453 0.8913 14.7516
v  -10.7453 1.6760 14.7516
v  -11.2063 2.3114 -14.7517
v  -10.7448 1.6762 -14.7517
v  -10.7448 0.8911 -14.7517
v  -11.2063 0.2560 -14.7517
v  -11.9529 0.0134 -14.7517
v  -12.6996 0.2560 -14.7517
v  -13.1610 0.8911 -14.7517
v  -13.1610 1.6762 -14.7517
v  -22.5844 52.7567 9.5903
v  -22.5844 52.7567 -9.5903
v  -22.5844 51.1429 -9.5903
v  -22.5844 51.1429 9.5903
v  2.9897 52.7567 9.5903
v  2.9897 51.1429 9.5903
v  -21.3057 52.7567 -8.3116
v  2.9897 52.7567 -8.3116
v  2.9897 52.7567 -9.5903
v  -21.3057 52.7567 8.3116
v  2.9897 52.7567 8.3116
v  2.9897 51.1429 -9.5903
v  2.9897 51.1429 -8.3116
v  -21.3057 51.1429 -8.3116
v  -21.3057 51.1429 8.3116
v  2.9897 51.1429 8.3116
v  -16.8103 51.1532 16.8103
v  -16.8103 51.1533 -16.8103
v  -12.7871 0.0050 -12.7871
v  -12.7871 0.0050 12.7871
v  16.8103 51.1533 -16.8103
v  12.7871 0.0050 -12.7871
v  16.8103 51.1532 16.8103
v  12.7871 0.0050 12.7871
v  -18.6860 51.1532 18.6860
v  -18.6860 51.1533 -18.6860
v  18.6860 51.1532 18.6860
v  18.6860 51.1533 -18.6860
v  18.6860 52.7516 -18.6860
v  18.6860 52.7516 18.6860
v  -18.6860 52.7516 18.6860
v  18.2104 52.7516 18.2104
v  -18.2104 52.7516 18.2104
v  -18.6860 52.7516 -18.6860
v  18.2104 52.7516 -18.2104
v  18.2104 53.0713 -18.2104
v  18.2104 53.0713 18.2104
v  -18.2104 52.7516 -18.2104
v  -18.2104 53.0713 -18.2104
v  -18.2104 53.0713 18.2104
v  -18.6868 53.0713 18.6868
v  -18.6868 53.0713 -18.6868
v  18.6868 53.0713 18.6868
v  18.6868 54.6697 18.6868
v  -18.6868 54.6697 18.6868
v  18.6868 53.0713 -18.6868
v  18.6868 54.6697 -18.6868
v  11.3098 54.6697 -11.3098
v  11.3098 54.6697 11.3098
v  -18.6868 54.6697 -18.6868
v  -11.3098 54.6697 11.3098
v  11.3098 56.2681 11.3098
v  -11.3098 56.2681 11.3098
v  -11.3098 54.6697 -11.3098
v  11.3098 56.2681 -11.3098
v  -11.3098 56.2681 -11.3098
# 116 vertices

vn 0.3090 0.9511 0.0000
vn 0.8090 0.5878 -0.0000
vn 1.0000 0.0000 -0.0000
vn 0.8090 -0.5878 -0.0000
vn 0.3090 -0.9511 -0.0000
vn -0.3090 -0.9511 -0.0000
vn -0.8090 -0.5878 -0.0000
vn -1.0000 0.0000 -0.0000
vn 0.0000 0.0000 1.0000
vn 0.0000 -0.0000 1.0000
vn -0.0000 0.0000 1.0000
vn -0.8090 0.5878 0.0000
vn -0.3090 0.9511 0.0000
vn 0.0000 0.0000 -1.0000
vn 0.8090 0.5878 0.0000
vn 1.0000 -0.0000 -0.0000
vn -0.8090 0.5878 -0.0000
vn 0.0000 -0.0000 -1.0000
vn -0.0000 -0.0000 -1.0000
vn 0.0000 1.0000 0.0000
vn 0.0000 -1.0000 -0.0000
vn -0.9969 -0.0784 -0.0000
vn 0.0000 -0.0784 -0.9969
vn 0.9969 -0.0784 -0.0000
vn 0.0000 -0.0784 0.9969
# 25 vertex normals

vt 0.5805 0.1391 0.0000
vt 0.6305 0.1391 0.0000
vt 0.6305 0.1891 0.0000
vt 0.5805 0.1891 0.0000
vt 0.6055 0.1891 0.0000
vt 0.6202 0.1843 0.0000
vt 0.6292 0.1718 0.0000
vt 0.6292 0.1563 0.0000
vt 0.6202 0.1438 0.0000
vt 0.6055 0.1391 0.0000
vt 0.5908 0.1438 0.0000
vt 0.5817 0.1563 0.0000
vt 0.5817 0.1718 0.0000
vt 0.5908 0.1843 0.0000
vt 0.6914 0.0797 0.0000
vt 0.7061 0.0749 0.0000
vt 0.7152 0.0624 0.0000
vt 0.7152 0.0470 0.0000
vt 0.7061 0.0345 0.0000
vt 0.6914 0.0297 0.0000
vt 0.6767 0.0345 0.0000
vt 0.6676 0.0470 0.0000
vt 0.6676 0.0624 0.0000
vt 0.6767 0.0749 0.0000
vt 0.7109 0.0758 0.0000
vt 0.7256 0.0710 0.0000
vt 0.7347 0.0585 0.0000
vt 0.7347 0.0431 0.0000
vt 0.7256 0.0306 0.0000
vt 0.7109 0.0258 0.0000
vt 0.6962 0.0306 0.0000
vt 0.6872 0.0431 0.0000
vt 0.6872 0.0585 0.0000
vt 0.6962 0.0710 0.0000
vt 0.9027 0.8167 0.0000
vt 0.9567 0.8167 0.0000
vt 0.9567 0.8708 0.0000
vt 0.9027 0.8708 0.0000
vt 0.9488 0.8247 0.0000
vt 0.9297 0.8167 0.0000
vt 0.9106 0.8247 0.0000
vt 0.9027 0.8438 0.0000
vt 0.9567 0.8438 0.0000
vt 0.9106 0.8628 0.0000
vt 0.9488 0.8628 0.0000
vt 0.9297 0.8708 0.0000
vt 0.7660 0.8246 0.0000
vt 0.8200 0.8246 0.0000
vt 0.8200 0.8786 0.0000
vt 0.7660 0.8786 0.0000
# 50 texture coords

g SPW_Urban_Props_Dumpster_01
usemtl SPW_Urban_Props
s off
f 1/1/1 2/2/1 3/3/1 4/4/1 
f 4/1/2 3/2/2 5/3/2 6/4/2 
f 6/1/3 5/2/3 7/3/3 8/4/3 
f 8/1/4 7/2/4 9/3/4 10/4/4 
f 10/1/5 9/2/5 11/3/5 12/4/5 
f 12/1/6 11/2/6 13/3/6 14/4/6 
f 14/1/7 13/2/7 15/3/7 16/4/7 
f 16/1/8 15/2/8 17/3/8 18/4/8 
f 3/5/9 2/6/9 19/7/9 17/8/9 
f 3/5/10 17/8/10 15/9/10 13/10/10 
f 3/5/9 13/10/9 11/11/9 9/12/9 
f 3/5/11 9/12/11 7/13/11 5/14/11 
f 18/1/12 17/2/12 19/3/12 20/4/12 
f 20/1/13 19/2/13 2/3/13 1/4/13 
s 1
f 20/1/14 1/4/14 21/4/14 22/1/14 
s off
f 23/1/1 24/2/1 25/3/1 26/4/1 
f 26/1/15 25/2/15 27/3/15 28/4/15 
f 28/1/16 27/2/16 29/3/16 30/4/16 
f 30/1/4 29/2/4 31/3/4 32/4/4 
f 32/1/5 31/2/5 33/3/5 34/4/5 
f 34/1/6 33/2/6 35/3/6 36/4/6 
f 36/1/7 35/2/7 37/3/7 38/4/7 
f 38/1/8 37/2/8 39/3/8 40/4/8 
s 1
f 24/3/10 41/2/10 42/2/10 43/3/10 
s off
f 40/1/17 39/2/17 41/3/17 44/4/17 
f 44/1/13 41/2/13 24/3/13 23/4/13 
f 23/5/14 26/6/14 28/7/14 30/8/14 
f 23/5/14 30/8/14 32/9/14 34/10/14 
f 23/5/14 34/10/14 36/11/14 38/12/14 
f 23/5/14 38/12/14 40/13/14 44/14/14 
s 3
f 45/15/10 43/16/10 42/17/10 46/18/10 
f 45/15/10 46/18/10 47/19/10 48/20/10 
f 45/15/10 48/20/10 49/21/10 50/22/10 
f 45/15/10 50/22/10 51/23/10 52/24/10 
s 1
f 41/3/10 39/2/10 46/2/10 42/3/10 
s 3
f 39/3/10 37/2/10 47/2/10 46/3/10 
s 2
f 37/3/10 35/2/10 48/2/10 47/3/10 
s 1
f 35/3/10 33/2/10 49/2/10 48/3/10 
s 3
f 33/3/10 31/2/10 50/2/10 49/3/10 
s 2
f 31/3/10 29/2/10 51/2/10 50/3/10 
s 1
f 29/3/10 27/2/10 52/2/10 51/3/10 
f 27/3/10 25/2/10 45/2/10 52/3/10 
f 25/3/10 24/2/10 43/2/10 45/3/10 
f 21/25/14 53/26/14 54/27/14 55/28/14 
f 21/25/14 55/28/14 56/29/18 57/30/18 
f 21/25/14 57/30/18 58/31/19 59/32/19 
f 21/25/14 59/32/19 60/33/14 22/34/14 
s 2
f 18/1/14 20/4/14 22/4/14 60/1/14 
s 3
f 16/1/18 18/4/14 60/4/14 59/1/19 
s 2
f 14/1/19 16/4/18 59/4/19 58/1/19 
s 1
f 12/1/18 14/4/19 58/4/19 57/1/18 
f 10/1/18 12/4/18 57/4/18 56/1/18 
s 2
f 8/1/18 10/4/18 56/4/18 55/1/14 
s 3
f 6/1/14 8/4/18 55/4/14 54/1/14 
s 1
f 4/1/14 6/4/14 54/4/14 53/1/14 
f 1/1/14 4/4/14 53/4/14 21/1/14 
s off
f 61/35/8 62/36/8 63/37/8 64/38/8 
f 65/35/10 61/36/10 64/37/10 66/38/10 
f 67/39/20 68/40/20 69/41/20 62/42/20 
f 70/43/20 67/39/20 62/42/20 61/44/20 
f 71/45/20 70/43/20 61/44/20 65/46/20 
f 62/35/14 69/36/14 72/37/14 63/38/14 
f 63/45/21 72/43/21 73/39/21 74/40/21 
f 64/46/21 63/45/21 74/40/21 75/41/21 
f 64/46/21 75/41/21 76/42/21 66/44/21 
f 71/35/3 65/36/3 66/37/3 76/38/3 
f 69/35/3 68/36/3 73/37/3 72/38/3 
f 67/35/3 70/36/3 75/37/3 74/38/3 
f 74/35/10 73/36/10 68/37/10 67/38/10 
f 70/35/14 71/36/14 76/37/14 75/38/14 
f 77/35/22 78/36/22 79/37/22 80/38/22 
f 78/35/23 81/36/23 82/37/23 79/38/23 
f 81/35/24 83/36/24 84/37/24 82/38/24 
f 83/35/25 77/36/25 80/37/25 84/38/25 
f 80/35/21 79/36/21 82/37/21 84/38/21 
f 78/35/21 77/36/21 85/37/21 86/38/21 
f 87/35/3 88/36/3 89/37/3 90/38/3 
f 77/35/21 83/36/21 87/37/21 85/38/21 
f 81/35/21 78/36/21 86/37/21 88/38/21 
f 83/35/21 81/36/21 88/37/21 87/38/21 
f 91/35/20 90/36/20 92/37/20 93/38/20 
f 86/35/8 85/36/8 91/37/8 94/38/8 
f 85/35/10 87/36/10 90/37/10 91/38/10 
f 88/35/14 86/36/14 94/37/14 89/38/14 
f 92/47/3 95/48/3 96/49/3 97/50/3 
f 89/35/20 94/36/20 98/37/20 95/38/20 
f 90/35/20 89/36/20 95/37/20 92/38/20 
f 94/35/20 91/36/20 93/37/20 98/38/20 
f 99/47/21 100/48/21 101/49/21 102/50/21 
f 98/47/8 93/48/8 100/49/8 99/50/8 
f 93/47/10 92/48/10 97/49/10 100/50/10 
f 95/47/14 98/48/14 99/49/14 96/50/14 
f 101/47/10 103/48/10 104/49/10 105/50/10 
f 100/47/21 97/48/21 103/49/21 101/50/21 
f 96/47/21 99/48/21 102/49/21 106/50/21 
f 97/47/21 96/48/21 106/49/21 103/50/21 
s 1
f 104/47/20 107/48/20 108/49/20 109/50/20 
s off
f 106/47/14 102/48/14 110/49/14 107/50/14 
f 103/47/3 106/48/3 107/49/3 104/50/3 
f 102/47/8 101/48/8 105/49/8 110/50/8 
f 111/47/10 109/48/10 112/49/10 113/50/10 
s 1
f 110/47/20 105/48/20 111/49/20 114/50/20 
f 105/47/20 104/48/20 109/49/20 111/50/20 
f 107/47/20 110/48/20 114/49/20 108/50/20 
s off
f 112/47/20 115/48/20 116/49/20 113/50/20 
f 108/47/14 114/48/14 116/49/14 115/50/14 
f 109/47/3 108/48/3 115/49/3 112/50/3 
f 114/47/8 111/48/8 113/49/8 116/50/8 
# 108 polygons

