# 3ds Max Wavefront OBJ Exporter v0.97b - (c)2007 guruware
# File Created: 15.03.2017 10:59:50

mtllib SPW_Urban_Props_Dumpster_02.mtl

#
# object SPW_Urban_Props_Dumpster_02
#

v  -0.0000 45.7784 -21.6066
v  -0.0000 57.0817 -22.9161
v  13.4697 57.0817 -18.5395
v  12.7000 45.7784 -17.4801
v  21.7945 57.0817 -7.0815
v  20.5491 45.7784 -6.6768
v  21.7945 57.0817 7.0815
v  20.5491 45.7784 6.6768
v  13.4697 57.0817 18.5395
v  12.7000 45.7784 17.4801
v  -0.0000 57.0817 22.9161
v  -0.0000 45.7784 21.6066
v  -13.4697 57.0817 18.5395
v  -12.7000 45.7784 17.4801
v  -21.7945 57.0817 7.0815
v  -20.5491 45.7784 6.6768
v  -21.7945 57.0817 -7.0815
v  -20.5491 45.7784 -6.6768
v  -19.6882 57.0817 6.3971
v  -19.6882 57.0817 -6.3971
v  -13.4697 57.0817 -18.5395
v  -12.7000 45.7784 -17.4801
v  0.0000 0.0146 -16.3049
v  9.5838 0.0146 -13.1909
v  15.5069 0.0146 -5.0385
v  15.5069 0.0146 5.0385
v  9.5838 0.0146 13.1909
v  -0.0000 0.0146 16.3049
v  -9.5838 0.0146 13.1909
v  -15.5069 0.0146 5.0385
v  -15.5069 0.0146 -5.0385
v  -9.5838 0.0146 -13.1909
v  12.3259 40.2838 -16.9651
v  -0.0000 40.2838 -20.9700
v  -0.0000 40.2199 -21.4575
v  12.6124 40.2199 -17.3595
v  -0.0000 45.8423 22.1088
v  12.9952 45.8423 17.8864
v  -19.9437 40.2838 -6.4801
v  -19.9437 40.2838 6.4801
v  -20.4073 40.2199 6.6307
v  -20.4073 40.2199 -6.6307
v  -12.9953 45.8423 17.8864
v  -12.3259 40.2838 16.9651
v  -12.6124 40.2199 17.3595
v  -21.0268 45.8423 6.8320
v  -0.0000 40.2838 20.9701
v  -0.0000 40.2199 21.4575
v  -21.0268 45.8423 -6.8320
v  12.3259 40.2838 16.9651
v  12.6124 40.2199 17.3595
v  12.9952 45.8423 -17.8864
v  -0.0000 45.8423 -22.1088
v  -0.0000 16.8761 -18.2583
v  10.7320 16.8761 -14.7713
v  19.9437 40.2838 -6.4801
v  17.3647 16.8761 -5.6421
v  19.9437 40.2838 6.4801
v  17.3647 16.8761 5.6421
v  10.7320 16.8761 14.7713
v  -0.0000 16.8761 18.2583
v  -10.7320 16.8761 14.7713
v  -17.3647 16.8761 5.6421
v  -17.3647 16.8761 -5.6421
v  -12.3259 40.2838 -16.9651
v  -10.7319 16.8761 -14.7713
v  -11.0368 16.9590 -15.1909
v  -17.8580 16.9590 -5.8024
v  10.3346 11.0401 14.2243
v  16.7217 11.0401 5.4332
v  17.1967 10.9572 5.5876
v  10.6282 10.9572 14.6284
v  17.8580 16.9590 -5.8024
v  11.0368 16.9590 -15.1909
v  -0.0000 16.9590 -18.7770
v  16.7217 11.0401 -5.4332
v  17.1967 10.9572 -5.5876
v  17.8580 16.9590 5.8024
v  -0.0000 11.0401 -17.5822
v  -10.3345 11.0401 -14.2243
v  -10.6282 10.9572 -14.6284
v  -0.0000 10.9572 -18.0817
v  10.3346 11.0401 -14.2243
v  10.6282 10.9572 -14.6284
v  11.0368 16.9590 15.1909
v  -16.7217 11.0401 -5.4332
v  -17.1967 10.9572 -5.5876
v  -0.0000 11.0401 17.5822
v  -10.3346 11.0401 14.2243
v  -16.7217 11.0401 5.4332
v  -17.1967 10.9572 5.5876
v  -17.8580 16.9590 5.8024
v  -10.6282 10.9572 14.6284
v  -11.0368 16.9590 15.1909
v  -0.0000 10.9572 18.0817
v  -0.0000 16.9590 18.7770
v  -12.6124 40.2199 -17.3595
v  -12.9952 45.8423 -17.8864
v  20.4073 40.2199 6.6307
v  21.0268 45.8423 6.8320
v  20.4073 40.2199 -6.6307
v  21.0268 45.8423 -6.8320
v  12.1680 57.0817 16.7478
v  19.6882 57.0817 6.3971
v  14.8401 11.0836 4.8219
v  9.1717 11.0836 12.6238
v  -12.1680 57.0817 16.7478
v  -0.0000 57.0817 20.7014
v  -0.0000 57.0817 -20.7014
v  12.1680 57.0817 -16.7478
v  19.6882 57.0817 -6.3971
v  -12.1680 57.0817 -16.7478
v  9.1717 11.0836 -12.6238
v  -0.0000 11.0836 -15.6038
v  -9.1717 11.0836 -12.6238
v  -14.8401 11.0836 -4.8219
v  -14.8401 11.0836 4.8219
v  -9.1717 11.0836 12.6238
v  -0.0000 11.0836 15.6038
v  14.8401 11.0836 -4.8219
# 120 vertices

vn 0.3072 -0.1095 -0.9453
vn 0.8042 -0.1095 -0.5842
vn 0.9940 -0.1095 -0.0000
vn 0.8042 -0.1095 0.5842
vn 0.3072 -0.1095 0.9453
vn -0.3072 -0.1095 0.9453
vn -0.8042 -0.1095 0.5842
vn -0.9940 -0.1095 -0.0000
vn 0.0000 1.0000 0.0000
vn -0.8042 -0.1095 -0.5842
vn -0.3072 -0.1095 -0.9453
vn 0.0000 -1.0000 -0.0000
vn -0.0000 -1.0000 -0.0000
vn -0.0422 -0.9906 0.1298
vn -0.0410 0.9912 -0.1260
vn 0.1365 -0.9906 -0.0000
vn 0.0410 0.9912 -0.1260
vn 0.1104 -0.9906 -0.0802
vn 0.1072 0.9912 -0.0779
vn 0.0422 -0.9906 -0.1298
vn 0.1325 0.9912 0.0000
vn -0.0422 -0.9906 -0.1298
vn -0.0410 0.9912 0.1260
vn 0.9940 -0.1095 0.0000
vn 0.1341 0.9862 0.0974
vn -0.1391 -0.9851 -0.1010
vn -0.1341 0.9862 0.0974
vn 0.0512 0.9862 0.1576
vn -0.1719 -0.9851 -0.0000
vn -0.1657 0.9862 0.0000
vn 0.0531 -0.9851 0.1635
vn -0.1391 -0.9851 0.1010
vn -0.1341 0.9862 -0.0974
vn 0.1391 -0.9851 0.1010
vn -0.0512 0.9862 0.1576
vn -0.0531 -0.9851 -0.1635
vn 0.1657 0.9862 0.0000
vn 0.0531 -0.9851 -0.1635
vn 0.1341 0.9862 -0.0974
vn 0.1391 -0.9851 -0.1010
vn 0.0512 0.9862 -0.1576
vn 0.1719 -0.9851 -0.0000
vn -0.0512 0.9862 -0.1576
vn -0.0531 -0.9851 0.1635
vn 0.1104 -0.9906 0.0802
vn -0.1072 0.9912 -0.0779
vn -0.1104 -0.9906 0.0802
vn 0.0422 -0.9906 0.1298
vn -0.1325 0.9912 0.0000
vn -0.1365 -0.9906 -0.0000
vn 0.0410 0.9912 0.1260
vn -0.1072 0.9912 0.0779
vn -0.1104 -0.9906 -0.0802
vn 0.1072 0.9912 0.0779
vn -0.8046 0.1048 -0.5845
vn -0.3073 0.1048 0.9458
vn 0.9945 0.1048 0.0000
vn -0.3073 0.1048 -0.9458
vn -0.8046 0.1048 0.5845
vn 0.8046 0.1048 0.5845
vn 0.3073 0.1048 -0.9458
vn -0.9945 0.1048 0.0000
vn 0.3073 0.1048 0.9458
vn 0.8046 0.1048 -0.5845
# 64 vertex normals

vt 0.3969 0.8266 0.0000
vt 0.4469 0.8266 0.0000
vt 0.4469 0.8766 0.0000
vt 0.3969 0.8766 0.0000
vt 0.4219 0.8766 0.0000
vt 0.4366 0.8718 0.0000
vt 0.4457 0.8593 0.0000
vt 0.4457 0.8438 0.0000
vt 0.4366 0.8313 0.0000
vt 0.4219 0.8266 0.0000
vt 0.4072 0.8313 0.0000
vt 0.3981 0.8438 0.0000
vt 0.3981 0.8593 0.0000
vt 0.4072 0.8718 0.0000
vt 0.2836 0.8305 0.0000
vt 0.3336 0.8305 0.0000
vt 0.3336 0.8805 0.0000
vt 0.2836 0.8805 0.0000
vt 0.3086 0.8805 0.0000
vt 0.3233 0.8757 0.0000
vt 0.3324 0.8632 0.0000
vt 0.3324 0.8477 0.0000
vt 0.3233 0.8352 0.0000
vt 0.3086 0.8305 0.0000
vt 0.2939 0.8352 0.0000
vt 0.2848 0.8477 0.0000
vt 0.2848 0.8632 0.0000
vt 0.2939 0.8757 0.0000
# 28 texture coords

g SPW_Urban_Props_Dumpster_02
usemtl SPW_Urban_Props
s off
f 1/1/1 2/2/1 3/3/1 4/4/1 
f 4/1/2 3/2/2 5/3/2 6/4/2 
f 6/1/3 5/2/3 7/3/3 8/4/3 
f 8/1/4 7/2/4 9/3/4 10/4/4 
f 10/1/5 9/2/5 11/3/5 12/4/5 
f 12/1/6 11/2/6 13/3/6 14/4/6 
f 14/1/7 13/2/7 15/3/7 16/4/7 
f 16/1/8 15/2/8 17/3/8 18/4/8 
f 17/1/9 15/2/9 19/3/9 20/4/9 
f 18/1/10 17/2/10 21/3/10 22/4/10 
f 22/1/11 21/2/11 2/3/11 1/4/11 
f 23/5/12 24/6/12 25/7/12 26/8/12 
f 23/5/13 26/8/13 27/9/13 28/10/13 
f 23/5/12 28/10/12 29/11/12 30/12/12 
f 23/5/13 30/12/13 31/13/13 32/14/13 
f 33/1/14 34/2/14 35/3/14 36/4/14 
f 10/1/15 12/2/15 37/3/15 38/4/15 
f 39/1/16 40/2/16 41/3/16 42/4/16 
f 12/1/17 14/2/17 43/3/17 37/4/17 
f 40/1/18 44/2/18 45/3/18 41/4/18 
f 14/1/19 16/2/19 46/3/19 43/4/19 
f 44/1/20 47/2/20 48/3/20 45/4/20 
f 16/1/21 18/2/21 49/3/21 46/4/21 
f 47/1/22 50/2/22 51/3/22 48/4/22 
f 1/1/23 4/2/23 52/3/23 53/4/23 
f 54/1/1 34/2/1 33/3/1 55/4/1 
f 55/1/2 33/2/2 56/3/2 57/4/2 
f 57/1/24 56/2/24 58/3/24 59/4/24 
f 59/1/4 58/2/4 50/3/4 60/4/4 
f 60/1/5 50/2/5 47/3/5 61/4/5 
f 61/1/6 47/2/6 44/3/6 62/4/6 
f 62/1/7 44/2/7 40/3/7 63/4/7 
f 63/1/8 40/2/8 39/3/8 64/4/8 
f 64/1/10 39/2/10 65/3/10 66/4/10 
f 66/1/11 65/2/11 34/3/11 54/4/11 
f 64/1/25 66/2/25 67/3/25 68/4/25 
f 69/1/26 70/2/26 71/3/26 72/4/26 
f 55/1/27 57/2/27 73/3/27 74/4/27 
f 66/1/28 54/2/28 75/3/28 67/4/28 
f 70/1/29 76/2/29 77/3/29 71/4/29 
f 57/1/30 59/2/30 78/3/30 73/4/30 
f 79/1/31 80/2/31 81/3/31 82/4/31 
f 76/1/32 83/2/32 84/3/32 77/4/32 
f 59/1/33 60/2/33 85/3/33 78/4/33 
f 80/1/34 86/2/34 87/3/34 81/4/34 
f 23/1/1 79/2/1 83/3/1 24/4/1 
f 24/1/2 83/2/2 76/3/2 25/4/2 
f 25/1/24 76/2/24 70/3/24 26/4/24 
f 26/1/4 70/2/4 69/3/4 27/4/4 
f 27/1/5 69/2/5 88/3/5 28/4/5 
f 28/1/6 88/2/6 89/3/6 29/4/6 
f 29/1/7 89/2/7 90/3/7 30/4/7 
f 30/1/8 90/2/8 86/3/8 31/4/8 
f 31/1/10 86/2/10 80/3/10 32/4/10 
f 32/1/11 80/2/11 79/3/11 23/4/11 
f 81/1/11 67/2/11 75/3/11 82/4/11 
f 87/1/10 68/2/10 67/3/10 81/4/10 
f 91/1/8 92/2/8 68/3/8 87/4/8 
f 93/1/7 94/2/7 92/3/7 91/4/7 
f 95/1/6 96/2/6 94/3/6 93/4/6 
f 72/1/5 85/2/5 96/3/5 95/4/5 
f 71/1/4 78/2/4 85/3/4 72/4/4 
f 77/1/24 73/2/24 78/3/24 71/4/24 
f 84/1/2 74/2/2 73/3/2 77/4/2 
f 82/1/1 75/2/1 74/3/1 84/4/1 
f 54/1/35 55/2/35 74/3/35 75/4/35 
f 88/1/36 69/2/36 72/3/36 95/4/36 
f 63/1/37 64/2/37 68/3/37 92/4/37 
f 89/1/38 88/2/38 95/3/38 93/4/38 
f 62/1/39 63/2/39 92/3/39 94/4/39 
f 90/1/40 89/2/40 93/3/40 91/4/40 
f 61/1/41 62/2/41 94/3/41 96/4/41 
f 86/1/42 90/2/42 91/3/42 87/4/42 
f 60/1/43 61/2/43 96/3/43 85/4/43 
f 83/1/44 79/2/44 82/3/44 84/4/44 
f 97/1/11 98/2/11 53/3/11 35/4/11 
f 42/1/10 49/2/10 98/3/10 97/4/10 
f 41/1/8 46/2/8 49/3/8 42/4/8 
f 45/1/7 43/2/7 46/3/7 41/4/7 
f 48/1/6 37/2/6 43/3/6 45/4/6 
f 51/1/5 38/2/5 37/3/5 48/4/5 
f 99/1/4 100/2/4 38/3/4 51/4/4 
f 101/1/3 102/2/3 100/3/3 99/4/3 
f 36/1/2 52/2/2 102/3/2 101/4/2 
f 35/1/1 53/2/1 52/3/1 36/4/1 
f 65/1/45 39/2/45 42/3/45 97/4/45 
f 8/1/46 10/2/46 38/3/46 100/4/46 
f 56/1/47 33/2/47 36/3/47 101/4/47 
f 34/1/48 65/2/48 97/3/48 35/4/48 
f 6/1/49 8/2/49 100/3/49 102/4/49 
f 58/1/50 56/2/50 101/3/50 99/4/50 
f 22/1/51 1/2/51 53/3/51 98/4/51 
f 4/1/52 6/2/52 102/3/52 52/4/52 
f 50/1/53 58/2/53 99/3/53 51/4/53 
f 18/1/54 22/2/54 98/3/54 49/4/54 
f 103/15/55 104/16/55 105/17/55 106/18/55 
f 15/1/9 13/2/9 107/3/9 19/4/9 
s 1
f 13/1/9 11/2/9 108/3/9 107/4/9 
f 11/1/9 9/2/9 103/3/9 108/4/9 
s off
f 9/1/9 7/2/9 104/3/9 103/4/9 
s 1
f 3/1/9 2/2/9 109/3/9 110/4/9 
s off
f 7/1/9 5/2/9 111/3/9 104/4/9 
f 5/1/9 3/2/9 110/3/9 111/4/9 
s 1
f 2/1/9 21/2/9 112/3/9 109/4/9 
s off
f 21/1/9 17/2/9 20/3/9 112/4/9 
f 113/19/9 114/20/9 115/21/9 116/22/9 
f 113/19/9 116/22/9 117/23/9 118/24/9 
f 113/19/9 118/24/9 119/25/9 106/26/9 
f 113/19/9 106/26/9 105/27/9 120/28/9 
f 110/15/56 109/16/56 114/17/56 113/18/56 
f 20/15/57 19/16/57 117/17/57 116/18/57 
f 108/15/58 103/16/58 106/17/58 119/18/58 
f 111/15/59 110/16/59 113/17/59 120/18/59 
f 112/15/60 20/16/60 116/17/60 115/18/60 
f 107/15/61 108/16/61 119/17/61 118/18/61 
f 104/15/62 111/16/62 120/17/62 105/18/62 
f 109/15/63 112/16/63 115/17/63 114/18/63 
f 19/15/64 107/16/64 118/17/64 117/18/64 
# 118 polygons

