# 3ds Max Wavefront OBJ Exporter v0.97b - (c)2007 guruware
# File Created: 15.03.2017 10:21:40

mtllib SPW_Natures_Stone_06.mtl

#
# object SPW_Natures_Stone_06
#

v  -14.1350 -0.1735 -23.7070
v  -0.8445 19.1789 -23.7070
v  14.9583 11.7124 -20.1425
v  14.9583 -0.1735 -20.1425
v  21.5437 -0.1735 -3.6207
v  21.5437 11.7124 -3.6207
v  14.9583 11.7124 24.4209
v  14.9583 -0.1735 24.4209
v  0.4116 -0.1735 22.3403
v  0.4116 15.4456 22.3403
v  -14.1350 19.1789 11.6920
v  -14.1350 -0.1735 11.6920
v  -14.5740 18.6927 2.8422
v  -19.6778 -0.1735 2.8422
v  -16.1727 23.2341 -14.8573
v  -19.6778 -0.1735 -14.8573
# 16 vertices

vn 0.1464 -0.0623 -0.9873
vn 0.9735 -0.0000 0.2286
vn -0.5907 -0.0000 0.8069
vn -0.9409 0.1256 0.3145
vn 0.3704 0.9053 0.2081
vn 0.2319 0.9726 -0.0162
vn 0.1740 0.9848 0.0000
vn -0.9775 0.1991 0.0697
vn -0.6014 0.2362 -0.7633
vn 0.0000 -1.0000 -0.0000
vn -0.0000 -1.0000 -0.0000
vn -0.1416 -0.0000 0.9899
vn 0.9289 0.0000 -0.3703
# 13 vertex normals

vt 0.6820 0.4672 0.0000
vt 0.7320 0.4672 0.0000
vt 0.7320 0.5172 0.0000
vt 0.6820 0.5172 0.0000
vt 0.7070 0.5172 0.0000
vt 0.7247 0.5099 0.0000
vt 0.7320 0.4922 0.0000
vt 0.7247 0.4745 0.0000
vt 0.7070 0.4672 0.0000
vt 0.6894 0.4745 0.0000
vt 0.6820 0.4922 0.0000
vt 0.6894 0.5099 0.0000
# 12 texture coords

g SPW_Natures_Stone_06
usemtl SPW_Natures_01
s off
f 1/1/1 2/2/1 3/3/1 4/4/1 
f 5/1/2 6/2/2 7/3/2 8/4/2 
f 9/1/3 10/2/3 11/3/3 12/4/3 
f 12/1/4 11/2/4 13/3/4 14/4/4 
f 3/5/5 2/6/5 15/7/5 13/8/5 
f 13/8/6 11/9/6 10/10/6 3/5/6 
f 3/5/7 10/10/7 7/11/7 6/12/7 
f 14/1/8 13/2/8 15/3/8 16/4/8 
f 16/1/9 15/2/9 2/3/9 1/4/9 
f 1/5/10 4/6/10 5/7/10 8/8/10 
f 1/5/11 8/8/11 9/9/11 12/10/11 
f 1/5/11 12/10/11 14/11/11 16/12/11 
f 8/1/12 7/2/12 10/3/12 9/4/12 
f 4/1/13 3/2/13 6/3/13 5/4/13 
# 14 polygons

