# 3ds Max Wavefront OBJ Exporter v0.97b - (c)2007 guruware
# File Created: 15.03.2017 11:08:23

mtllib SPW_Urban_Road Sign_Turn Right.mtl

#
# object SPW_Urban_Road_Sign_Turn_Right
#

v  0.8131 -0.0005 -1.3903
v  -0.8131 -0.0005 -1.3903
v  -0.8131 86.6477 -1.3903
v  0.8131 86.6477 -1.3903
v  -1.3903 -0.0005 -0.8131
v  -1.3903 86.6477 -0.8131
v  -1.3903 -0.0005 0.8131
v  -1.3903 86.6477 0.8131
v  -0.8131 -0.0005 1.3903
v  -0.8131 86.6477 1.3903
v  0.8131 -0.0005 1.3903
v  0.8131 86.6477 1.3903
v  1.3903 -0.0005 0.8131
v  1.3903 86.6477 0.8131
v  1.3903 -0.0005 -0.8131
v  1.3903 86.6477 -0.8131
v  0.0000 100.3740 0.9194
v  0.0000 100.3740 2.2974
v  5.2732 99.3251 2.2974
v  5.2732 99.3251 0.9194
v  9.7436 96.3381 2.2974
v  9.7436 96.3381 0.9194
v  12.7307 91.8677 2.2974
v  12.7307 91.8677 0.9194
v  13.7796 86.5945 2.2974
v  13.7796 86.5945 0.9194
v  12.7307 81.3213 2.2974
v  12.7307 81.3213 0.9194
v  9.7436 76.8509 2.2974
v  9.7436 76.8509 0.9194
v  5.2732 73.8639 2.2974
v  5.2732 73.8639 0.9194
v  0.0000 72.8150 2.2974
v  0.0000 72.8150 0.9194
v  -5.2732 73.8639 2.2974
v  -5.2732 73.8639 0.9194
v  -9.7436 76.8509 2.2974
v  -9.7436 76.8509 0.9194
v  -12.7306 81.3213 2.2974
v  -12.7306 81.3213 0.9194
v  -13.7795 86.5945 2.2974
v  -13.7795 86.5945 0.9194
v  -12.7306 91.8677 2.2974
v  -12.7306 91.8677 0.9194
v  -9.7436 96.3381 2.2974
v  -9.7436 96.3381 0.9194
v  -4.6143 75.4546 2.2974
v  -8.5261 78.0684 2.2974
v  -5.2732 99.3251 0.9194
v  -5.2732 99.3251 2.2974
v  4.6143 97.7344 2.2974
v  0.0000 98.6523 2.2974
v  -4.6143 97.7344 2.2974
v  -8.5261 95.1206 2.2974
v  -11.1399 91.2088 2.2974
v  -12.0577 86.5945 2.2974
v  -11.1399 81.9802 2.2974
v  0.0000 74.5368 2.2974
v  4.6143 75.4546 2.2974
v  8.5262 78.0684 2.2974
v  11.1399 81.9802 2.2974
v  12.0578 86.5945 2.2974
v  11.1399 91.2088 2.2974
v  8.5262 95.1206 2.2974
# 64 vertices

vn 0.0000 0.0000 -1.0000
vn -0.7071 0.0000 -0.7071
vn -1.0000 -0.0000 -0.0000
vn -0.7071 -0.0000 0.7071
vn -0.0000 -0.0000 1.0000
vn 0.7071 -0.0000 0.7071
vn 1.0000 0.0000 -0.0000
vn 0.7071 0.0000 -0.7071
vn 0.0000 1.0000 0.0000
vn 0.0000 -1.0000 -0.0000
vn -0.0000 -1.0000 -0.0000
vn 0.1951 0.9808 0.0000
vn 0.5556 0.8315 0.0000
vn 0.8315 0.5556 0.0000
vn 0.9808 0.1951 0.0000
vn 0.9808 -0.1951 -0.0000
vn 0.8315 -0.5556 0.0000
vn 0.5556 -0.8315 0.0000
vn 0.1951 -0.9808 -0.0000
vn -0.1951 -0.9808 -0.0000
vn -0.5556 -0.8315 -0.0000
vn -0.8315 -0.5556 -0.0000
vn -0.9808 -0.1951 -0.0000
vn -0.9808 0.1951 0.0000
vn -0.8315 0.5556 -0.0000
vn 0.0000 -0.0000 1.0000
vn -0.1951 0.9808 0.0000
vn -0.5556 0.8315 0.0000
vn -0.0000 -0.0000 -1.0000
vn -0.0000 0.0000 -1.0000
vn 0.0000 0.0000 1.0000
# 31 vertex normals

vt 0.0126 0.8983 0.0000
vt 0.0226 0.8983 0.0000
vt 0.0226 0.9083 0.0000
vt 0.0126 0.9083 0.0000
vt 0.0176 0.9083 0.0000
vt 0.0211 0.9068 0.0000
vt 0.0226 0.9033 0.0000
vt 0.0211 0.8997 0.0000
vt 0.0176 0.8983 0.0000
vt 0.0140 0.8997 0.0000
vt 0.0126 0.9033 0.0000
vt 0.0140 0.9068 0.0000
vt 0.0163 0.9416 0.0000
vt 0.0263 0.9416 0.0000
vt 0.0263 0.9516 0.0000
vt 0.0163 0.9516 0.0000
vt 0.0179 0.9850 0.0000
vt 0.0179 0.9750 0.0000
vt 0.0213 0.9516 0.0000
vt 0.0232 0.9512 0.0000
vt 0.0248 0.9501 0.0000
vt 0.0259 0.9485 0.0000
vt 0.0263 0.9466 0.0000
vt 0.0259 0.9447 0.0000
vt 0.0248 0.9430 0.0000
vt 0.0232 0.9419 0.0000
vt 0.0213 0.9416 0.0000
vt 0.0194 0.9419 0.0000
vt 0.0177 0.9430 0.0000
vt 0.0167 0.9447 0.0000
vt 0.0163 0.9466 0.0000
vt 0.0167 0.9485 0.0000
vt 0.0177 0.9501 0.0000
vt 0.0194 0.9512 0.0000
vt 0.7463 0.3731 0.0000
vt 0.7107 0.3801 0.0000
vt 0.6752 0.3731 0.0000
vt 0.6450 0.3529 0.0000
vt 0.6249 0.3228 0.0000
vt 0.6178 0.2872 0.0000
vt 0.6249 0.2517 0.0000
vt 0.6450 0.2215 0.0000
vt 0.6752 0.2014 0.0000
vt 0.7107 0.1943 0.0000
vt 0.7463 0.2014 0.0000
vt 0.7764 0.2215 0.0000
vt 0.7966 0.2517 0.0000
vt 0.8036 0.2872 0.0000
vt 0.7966 0.3228 0.0000
vt 0.7764 0.3529 0.0000
# 50 texture coords

g SPW_Urban_Road_Sign_Turn_Right
usemtl SPW_Urban_Road_Props_01
s off
f 1/1/1 2/2/1 3/3/1 4/4/1 
f 2/1/2 5/2/2 6/3/2 3/4/2 
f 5/1/3 7/2/3 8/3/3 6/4/3 
f 7/1/4 9/2/4 10/3/4 8/4/4 
f 9/1/5 11/2/5 12/3/5 10/4/5 
f 11/1/6 13/2/6 14/3/6 12/4/6 
f 13/1/7 15/2/7 16/3/7 14/4/7 
f 15/1/8 1/2/8 4/3/8 16/4/8 
f 16/5/9 4/6/9 3/7/9 6/8/9 
f 16/5/9 6/8/9 8/9/9 10/10/9 
f 16/5/9 10/10/9 12/11/9 14/12/9 
f 1/5/10 15/6/10 13/7/10 11/8/10 
f 1/5/11 11/8/11 9/9/11 7/10/11 
f 1/5/10 7/10/10 5/11/10 2/12/10 
f 17/13/12 18/14/12 19/15/12 20/16/12 
f 20/13/13 19/14/13 21/15/13 22/16/13 
f 22/13/14 21/14/14 23/15/14 24/16/14 
f 24/13/15 23/14/15 25/15/15 26/16/15 
f 26/13/16 25/14/16 27/15/16 28/16/16 
f 28/13/17 27/14/17 29/15/17 30/16/17 
f 30/13/18 29/14/18 31/15/18 32/16/18 
f 32/13/19 31/14/19 33/15/19 34/16/19 
f 34/13/20 33/14/20 35/15/20 36/16/20 
f 36/13/21 35/14/21 37/15/21 38/16/21 
f 38/13/22 37/14/22 39/15/22 40/16/22 
f 40/13/23 39/14/23 41/15/23 42/16/23 
f 42/13/24 41/14/24 43/15/24 44/16/24 
f 44/13/25 43/14/25 45/15/25 46/16/25 
s 1
f 37/17/5 35/18/5 47/18/26 48/17/5 
s off
f 49/13/27 50/14/27 18/15/27 17/16/27 
f 46/13/28 45/14/28 50/15/28 49/16/28 
f 17/19/29 20/20/29 22/21/29 24/22/29 
f 17/19/30 24/22/30 26/23/30 28/24/30 
f 17/19/1 28/24/1 30/25/1 32/26/1 
f 17/19/30 32/26/30 34/27/30 36/28/30 
f 17/19/1 36/28/1 38/29/1 40/30/1 
f 17/19/30 40/30/30 42/31/30 44/32/30 
f 17/19/30 44/32/30 46/33/30 49/34/30 
s 1
f 51/35/31 52/36/31 53/37/26 54/38/26 
f 51/35/31 54/38/26 55/39/5 56/40/31 
f 51/35/31 56/40/31 57/41/5 48/42/5 
f 51/35/31 48/42/5 47/43/26 58/44/26 
f 51/35/31 58/44/26 59/45/26 60/46/26 
f 51/35/31 60/46/26 61/47/5 62/48/26 
f 51/35/31 62/48/26 63/49/5 64/50/26 
f 21/17/31 19/18/31 51/18/31 64/17/26 
f 43/17/5 41/18/31 56/18/31 55/17/5 
f 27/17/5 25/18/5 62/18/26 61/17/5 
f 18/17/31 50/18/26 53/18/26 52/17/31 
f 19/17/31 18/18/31 52/18/31 51/17/31 
f 33/17/26 31/18/26 59/18/26 58/17/26 
f 39/17/5 37/18/5 48/18/5 57/17/5 
f 23/17/5 21/18/31 64/18/26 63/17/5 
f 45/17/26 43/18/5 55/18/5 54/17/26 
f 29/17/26 27/18/5 61/18/5 60/17/26 
f 35/17/5 33/18/26 58/18/26 47/17/26 
f 41/17/31 39/18/5 57/18/5 56/17/31 
f 25/17/5 23/18/5 63/18/5 62/17/26 
f 50/17/26 45/18/26 54/18/26 53/17/26 
f 31/17/26 29/18/26 60/18/26 59/17/26 
# 60 polygons

