# 3ds Max Wavefront OBJ Exporter v0.97b - (c)2007 guruware
# File Created: 15.03.2017 11:57:44

mtllib SPW_Vehicle_Train_Freight Train_Trailer_03.mtl

#
# object SPW_Vehicle_Train_Freight_Train_Trailer_03
#

v  -54.1785 34.6739 -209.5148
v  -57.5170 34.6739 -209.5148
v  -57.5170 32.3415 -200.8100
v  -54.1785 32.3415 -200.8100
v  -57.5170 25.9690 -194.4375
v  -54.1785 25.9690 -194.4375
v  -57.5170 17.2641 -192.1050
v  -54.1785 17.2641 -192.1049
v  -57.5170 8.5592 -194.4375
v  -54.1785 8.5592 -194.4375
v  -57.5170 2.1868 -200.8100
v  -54.1785 2.1868 -200.8100
v  -57.5170 -0.1457 -209.5148
v  -54.1785 -0.1457 -209.5148
v  -57.5170 2.1868 -218.2198
v  -54.1785 2.1868 -218.2198
v  -57.5170 8.5592 -224.5921
v  -54.1785 8.5592 -224.5921
v  -57.5170 17.2641 -226.9247
v  -54.1785 17.2641 -226.9247
v  -57.5170 25.9690 -224.5921
v  -54.1785 25.9690 -224.5921
v  -57.5170 28.5864 -202.9779
v  -57.5170 23.8010 -198.1925
v  -57.5170 32.3414 -218.2198
v  -54.1785 32.3414 -218.2198
v  -57.5170 10.7272 -198.1925
v  -57.5170 17.2641 -196.4410
v  -61.7321 17.2641 -196.4410
v  -61.7321 10.7272 -198.1925
v  -57.5170 17.2641 -222.5887
v  -57.5170 23.8010 -220.8371
v  -57.5170 10.7272 -220.8371
v  -57.5170 5.9418 -216.0518
v  -57.5170 4.1903 -209.5148
v  -57.5170 5.9418 -202.9779
v  -57.5170 28.5864 -216.0518
v  -57.5170 30.3380 -209.5148
v  -61.7321 28.5864 -202.9779
v  -61.7321 30.3380 -209.5148
v  -61.7321 28.5864 -216.0518
v  -61.7321 23.8010 -220.8371
v  -61.7321 17.2641 -222.5887
v  -61.7321 10.7272 -220.8371
v  -61.7321 5.9418 -216.0518
v  -61.7321 4.1903 -209.5148
v  -61.7321 5.9418 -202.9779
v  -61.7321 23.8010 -198.1925
v  -63.8876 44.8538 -180.9451
v  -40.2656 44.8538 -180.9451
v  -40.2656 13.3266 -180.9451
v  -63.8876 13.3266 -180.9451
v  -40.2656 44.8538 -157.3230
v  -40.2656 13.3266 -157.3230
v  -63.8876 44.8538 -157.3230
v  -63.8876 13.3266 -157.3230
v  -63.6719 21.9393 -219.9707
v  -57.4485 21.9393 -219.9707
v  -57.4485 11.9140 -219.9707
v  -63.6719 11.9140 -219.9707
v  -57.4485 27.5448 -169.1340
v  -57.4485 21.9392 -118.2973
v  -57.4485 11.9140 -118.2973
v  -57.4485 20.5928 -169.1340
v  -63.6719 21.9392 -118.2973
v  -63.6719 11.9140 -118.2973
v  -63.6719 27.5448 -169.1340
v  -63.6719 20.5928 -169.1340
v  -58.8888 17.2113 -174.4390
v  -58.8888 39.0354 -174.4390
v  -59.3833 39.0354 -172.5935
v  -59.3833 17.2113 -172.5935
v  -60.7342 39.0354 -171.2426
v  -60.7342 17.2113 -171.2426
v  -62.5797 39.0354 -170.7481
v  -62.5797 17.2113 -170.7481
v  -64.4251 39.0354 -171.2426
v  -64.4251 17.2113 -171.2426
v  -65.7760 39.0354 -172.5935
v  -65.7760 17.2113 -172.5935
v  -66.2705 39.0354 -174.4390
v  -66.2705 17.2113 -174.4390
v  -65.7760 39.0354 -176.2843
v  -65.7760 17.2113 -176.2843
v  -64.4251 39.0354 -177.6353
v  -64.4251 17.2113 -177.6353
v  -62.5797 39.0354 -178.1298
v  -62.5797 17.2113 -178.1298
v  -60.7342 39.0354 -177.6353
v  -60.7342 17.2113 -177.6353
v  -59.3833 39.0354 -176.2843
v  -59.3833 17.2113 -176.2843
v  -58.8888 17.2113 -163.7754
v  -58.8888 39.0354 -163.7754
v  -59.3833 39.0354 -161.9300
v  -59.3833 17.2113 -161.9300
v  -60.7342 39.0354 -160.5791
v  -60.7342 17.2113 -160.5791
v  -62.5797 39.0354 -160.0846
v  -62.5797 17.2113 -160.0846
v  -64.4251 39.0354 -160.5791
v  -64.4251 17.2113 -160.5791
v  -65.7760 39.0354 -161.9300
v  -65.7760 17.2113 -161.9300
v  -66.2705 39.0354 -163.7754
v  -66.2705 17.2113 -163.7754
v  -65.7760 39.0354 -165.6208
v  -65.7760 17.2113 -165.6208
v  -64.4251 39.0354 -166.9717
v  -64.4251 17.2113 -166.9717
v  -62.5797 39.0354 -167.4663
v  -62.5797 17.2113 -167.4663
v  -60.7342 39.0354 -166.9717
v  -60.7342 17.2113 -166.9717
v  -59.3833 39.0354 -165.6208
v  -59.3833 17.2113 -165.6208
v  -54.1785 34.6739 -128.2534
v  -57.5170 34.6739 -128.2534
v  -57.5170 32.3414 -119.5484
v  -54.1785 32.3414 -119.5484
v  -57.5170 25.9690 -113.1761
v  -54.1785 25.9690 -113.1761
v  -57.5170 17.2641 -110.8436
v  -54.1785 17.2641 -110.8436
v  -57.5170 8.5592 -113.1761
v  -54.1785 8.5592 -113.1761
v  -57.5170 2.1868 -119.5484
v  -54.1785 2.1868 -119.5484
v  -57.5170 -0.1457 -128.2534
v  -54.1785 -0.1457 -128.2534
v  -57.5170 2.1868 -136.9583
v  -54.1785 2.1868 -136.9583
v  -57.5170 8.5592 -143.3307
v  -54.1785 8.5592 -143.3307
v  -57.5170 17.2641 -145.6632
v  -54.1785 17.2641 -145.6632
v  -57.5170 25.9690 -143.3307
v  -54.1785 25.9690 -143.3307
v  -57.5170 28.5864 -121.7164
v  -57.5170 23.8010 -116.9311
v  -57.5170 32.3414 -136.9583
v  -54.1785 32.3414 -136.9583
v  -57.5170 10.7272 -116.9311
v  -57.5170 17.2641 -115.1795
v  -61.7321 17.2641 -115.1795
v  -61.7321 10.7272 -116.9311
v  -57.5170 17.2641 -141.3273
v  -57.5170 23.8010 -139.5757
v  -57.5170 10.7272 -139.5757
v  -57.5170 5.9418 -134.7903
v  -57.5170 4.1903 -128.2534
v  -57.5170 5.9418 -121.7164
v  -57.5170 28.5864 -134.7903
v  -57.5170 30.3380 -128.2534
v  -61.7321 28.5864 -121.7164
v  -61.7321 30.3380 -128.2534
v  -61.7321 28.5864 -134.7903
v  -61.7321 23.8010 -139.5757
v  -61.7321 17.2641 -141.3273
v  -61.7321 10.7272 -139.5757
v  -61.7321 5.9418 -134.7903
v  -61.7321 4.1903 -128.2534
v  -61.7321 5.9418 -121.7164
v  -61.7321 23.8010 -116.9311
v  -54.1785 34.6739 207.1176
v  -57.5170 34.6739 207.1176
v  -57.5170 32.3414 215.8225
v  -54.1785 32.3414 215.8225
v  -57.5170 25.9690 222.1949
v  -54.1785 25.9690 222.1949
v  -57.5170 17.2641 224.5275
v  -54.1785 17.2641 224.5275
v  -57.5170 8.5592 222.1949
v  -54.1785 8.5592 222.1949
v  -57.5170 2.1867 215.8225
v  -54.1785 2.1867 215.8225
v  -57.5170 -0.1457 207.1176
v  -54.1785 -0.1457 207.1176
v  -57.5170 2.1867 198.4127
v  -54.1785 2.1867 198.4127
v  -57.5170 8.5592 192.0403
v  -54.1785 8.5592 192.0403
v  -57.5170 17.2641 189.7078
v  -54.1785 17.2641 189.7078
v  -57.5170 25.9690 192.0402
v  -54.1785 25.9690 192.0402
v  -57.5170 28.5864 213.6545
v  -57.5170 23.8010 218.4399
v  -57.5170 32.3414 198.4127
v  -54.1785 32.3414 198.4127
v  -57.5170 10.7271 218.4399
v  -57.5170 17.2641 220.1915
v  -61.7321 17.2641 220.1915
v  -61.7321 10.7271 218.4399
v  -57.5170 17.2641 194.0438
v  -57.5170 23.8010 195.7953
v  -57.5170 10.7271 195.7953
v  -57.5170 5.9418 200.5807
v  -57.5170 4.1902 207.1176
v  -57.5170 5.9418 213.6545
v  -57.5170 28.5864 200.5807
v  -57.5170 30.3379 207.1176
v  -61.7321 28.5864 213.6545
v  -61.7321 30.3379 207.1176
v  -61.7321 28.5864 200.5807
v  -61.7321 23.8010 195.7953
v  -61.7321 17.2641 194.0438
v  -61.7321 10.7271 195.7953
v  -61.7321 5.9418 200.5807
v  -61.7321 4.1902 207.1176
v  -61.7321 5.9418 213.6545
v  -61.7321 23.8010 218.4399
v  -58.8888 17.2112 171.5956
v  -58.8888 39.0354 171.5956
v  -59.3833 39.0354 173.4410
v  -59.3833 17.2112 173.4410
v  -60.7342 39.0354 174.7919
v  -60.7342 17.2112 174.7919
v  -62.5796 39.0354 175.2864
v  -62.5796 17.2112 175.2864
v  -64.4251 39.0354 174.7919
v  -64.4251 17.2112 174.7919
v  -65.7760 39.0354 173.4410
v  -65.7760 17.2112 173.4410
v  -66.2705 39.0354 171.5956
v  -66.2705 17.2112 171.5956
v  -65.7760 39.0354 169.7502
v  -65.7760 17.2112 169.7502
v  -64.4250 39.0354 168.3993
v  -64.4251 17.2112 168.3993
v  -62.5796 39.0354 167.9047
v  -62.5796 17.2112 167.9047
v  -60.7342 39.0354 168.3993
v  -60.7342 17.2112 168.3993
v  -59.3833 39.0354 169.7501
v  -59.3833 17.2112 169.7501
v  -58.8888 17.2112 160.9320
v  -58.8888 39.0354 160.9320
v  -59.3833 39.0354 162.7774
v  -59.3833 17.2112 162.7774
v  -60.7342 39.0354 164.1284
v  -60.7342 17.2112 164.1284
v  -62.5796 39.0354 164.6229
v  -62.5796 17.2112 164.6229
v  -64.4250 39.0354 164.1284
v  -64.4251 17.2112 164.1284
v  -65.7760 39.0354 162.7774
v  -65.7760 17.2112 162.7774
v  -66.2705 39.0354 160.9320
v  -66.2705 17.2112 160.9320
v  -65.7760 39.0354 159.0866
v  -65.7760 17.2112 159.0866
v  -64.4251 39.0354 157.7357
v  -64.4251 17.2112 157.7357
v  -62.5796 39.0354 157.2411
v  -62.5796 17.2112 157.2411
v  -60.7342 39.0354 157.7357
v  -60.7342 17.2112 157.7357
v  -59.3833 39.0354 159.0866
v  -59.3833 17.2112 159.0866
v  -63.6718 21.9392 115.4002
v  -57.4485 21.9392 115.4002
v  -57.4485 11.9140 115.4002
v  -63.6718 11.9140 115.4002
v  -57.4485 27.5447 166.2370
v  -57.4485 21.9392 217.0736
v  -57.4485 11.9140 217.0736
v  -57.4485 20.5928 166.2370
v  -63.6719 21.9392 217.0736
v  -63.6719 11.9140 217.0736
v  -63.6718 27.5447 166.2370
v  -63.6718 20.5928 166.2370
v  -63.8876 44.8537 154.4259
v  -40.2655 44.8537 154.4259
v  -40.2655 13.3265 154.4259
v  -63.8876 13.3265 154.4259
v  -40.2655 44.8537 178.0480
v  -40.2655 13.3265 178.0480
v  -63.8876 44.8537 178.0480
v  -63.8876 13.3265 178.0480
v  -54.1785 34.6739 125.8561
v  -57.5170 34.6739 125.8561
v  -57.5170 32.3414 134.5610
v  -54.1785 32.3414 134.5610
v  -57.5170 25.9690 140.9334
v  -54.1785 25.9690 140.9334
v  -57.5170 17.2641 143.2659
v  -54.1785 17.2641 143.2659
v  -57.5170 8.5592 140.9334
v  -54.1785 8.5592 140.9334
v  -57.5170 2.1867 134.5610
v  -54.1785 2.1867 134.5610
v  -57.5170 -0.1457 125.8561
v  -54.1785 -0.1457 125.8561
v  -57.5170 2.1867 117.1512
v  -54.1785 2.1867 117.1512
v  -57.5170 8.5592 110.7788
v  -54.1785 8.5592 110.7788
v  -57.5170 17.2641 108.4463
v  -54.1785 17.2641 108.4463
v  -57.5170 25.9690 110.7788
v  -54.1785 25.9690 110.7788
v  -57.5170 28.5864 132.3931
v  -57.5170 23.8010 137.1784
v  -57.5170 32.3414 117.1512
v  -54.1784 32.3414 117.1512
v  -57.5170 10.7272 137.1784
v  -57.5170 17.2641 138.9300
v  -61.7321 17.2641 138.9300
v  -61.7321 10.7271 137.1784
v  -57.5170 17.2641 112.7823
v  -57.5170 23.8010 114.5338
v  -57.5170 10.7272 114.5338
v  -57.5170 5.9418 119.3192
v  -57.5170 4.1902 125.8561
v  -57.5170 5.9418 132.3931
v  -57.5170 28.5864 119.3191
v  -57.5170 30.3379 125.8561
v  -61.7320 28.5864 132.3931
v  -61.7320 30.3379 125.8561
v  -61.7320 28.5864 119.3191
v  -61.7320 23.8010 114.5338
v  -61.7320 17.2641 112.7823
v  -61.7320 10.7272 114.5338
v  -61.7320 5.9418 119.3191
v  -61.7320 4.1902 125.8561
v  -61.7321 5.9418 132.3931
v  -61.7321 23.8010 137.1784
v  54.1284 34.6739 -128.6111
v  57.4669 34.6739 -128.6111
v  57.4669 32.3414 -137.3160
v  54.1284 32.3414 -137.3160
v  57.4669 25.9690 -143.6885
v  54.1284 25.9690 -143.6885
v  57.4669 17.2641 -146.0209
v  54.1284 17.2641 -146.0209
v  57.4669 8.5592 -143.6885
v  54.1284 8.5592 -143.6885
v  57.4669 2.1868 -137.3160
v  54.1284 2.1868 -137.3160
v  57.4669 -0.1457 -128.6111
v  54.1284 -0.1457 -128.6111
v  57.4669 2.1868 -119.9062
v  54.1284 2.1868 -119.9062
v  57.4669 8.5592 -113.5338
v  54.1284 8.5592 -113.5338
v  57.4669 17.2641 -111.2013
v  54.1284 17.2641 -111.2013
v  57.4669 25.9690 -113.5338
v  54.1284 25.9690 -113.5338
v  57.4669 28.5864 -135.1480
v  57.4669 23.8010 -139.9334
v  57.4669 32.3414 -119.9062
v  54.1284 32.3414 -119.9062
v  57.4669 10.7272 -139.9334
v  57.4669 17.2641 -141.6849
v  61.6820 17.2641 -141.6849
v  61.6820 10.7272 -139.9334
v  57.4669 17.2641 -115.5372
v  57.4669 23.8010 -117.2888
v  57.4669 10.7272 -117.2888
v  57.4669 5.9418 -122.0742
v  57.4669 4.1903 -128.6111
v  57.4669 5.9418 -135.1480
v  57.4669 28.5864 -122.0742
v  57.4669 30.3380 -128.6111
v  61.6820 28.5864 -135.1480
v  61.6820 30.3380 -128.6111
v  61.6820 28.5864 -122.0742
v  61.6820 23.8010 -117.2888
v  61.6820 17.2641 -115.5372
v  61.6820 10.7272 -117.2888
v  61.6820 5.9418 -122.0742
v  61.6820 4.1903 -128.6111
v  61.6820 5.9418 -135.1480
v  61.6820 23.8010 -139.9334
v  63.8376 44.8538 -157.1808
v  40.2155 44.8538 -157.1808
v  40.2155 13.3266 -157.1808
v  63.8375 13.3266 -157.1808
v  40.2155 44.8538 -180.8029
v  40.2155 13.3266 -180.8029
v  63.8375 44.8538 -180.8029
v  63.8375 13.3266 -180.8029
v  63.6218 21.9392 -118.1552
v  57.3984 21.9392 -118.1552
v  57.3984 11.9140 -118.1552
v  63.6218 11.9140 -118.1552
v  57.3984 27.5448 -168.9918
v  57.3984 21.9393 -219.8286
v  57.3984 11.9140 -219.8286
v  57.3984 20.5928 -168.9918
v  63.6218 21.9393 -219.8286
v  63.6218 11.9141 -219.8286
v  63.6218 27.5448 -168.9918
v  63.6218 20.5928 -168.9918
v  58.8388 17.2113 -163.6869
v  58.8388 39.0354 -163.6869
v  59.3332 39.0354 -165.5324
v  59.3332 17.2113 -165.5324
v  60.6842 39.0354 -166.8833
v  60.6842 17.2113 -166.8833
v  62.5296 39.0354 -167.3778
v  62.5296 17.2113 -167.3778
v  64.3750 39.0354 -166.8833
v  64.3750 17.2113 -166.8833
v  65.7259 39.0354 -165.5324
v  65.7259 17.2113 -165.5324
v  66.2204 39.0354 -163.6869
v  66.2204 17.2113 -163.6869
v  65.7259 39.0354 -161.8415
v  65.7259 17.2113 -161.8415
v  64.3750 39.0354 -160.4906
v  64.3750 17.2113 -160.4906
v  62.5296 39.0354 -159.9961
v  62.5296 17.2113 -159.9961
v  60.6842 39.0354 -160.4906
v  60.6842 17.2113 -160.4906
v  59.3332 39.0354 -161.8415
v  59.3332 17.2113 -161.8415
v  58.8387 17.2113 -174.3505
v  58.8387 39.0354 -174.3505
v  59.3332 39.0354 -176.1959
v  59.3332 17.2113 -176.1959
v  60.6842 39.0354 -177.5468
v  60.6842 17.2113 -177.5468
v  62.5296 39.0354 -178.0413
v  62.5296 17.2113 -178.0413
v  64.3750 39.0354 -177.5468
v  64.3750 17.2113 -177.5468
v  65.7259 39.0354 -176.1959
v  65.7259 17.2113 -176.1959
v  66.2204 39.0354 -174.3505
v  66.2204 17.2113 -174.3505
v  65.7259 39.0354 -172.5051
v  65.7259 17.2113 -172.5051
v  64.3750 39.0354 -171.1541
v  64.3750 17.2113 -171.1541
v  62.5296 39.0354 -170.6596
v  62.5296 17.2113 -170.6596
v  60.6842 39.0354 -171.1541
v  60.6842 17.2113 -171.1541
v  59.3332 39.0354 -172.5051
v  59.3332 17.2113 -172.5051
v  54.1284 34.6739 -209.8725
v  57.4669 34.6739 -209.8725
v  57.4669 32.3415 -218.5775
v  54.1284 32.3415 -218.5775
v  57.4669 25.9690 -224.9499
v  54.1284 25.9690 -224.9499
v  57.4669 17.2641 -227.2824
v  54.1284 17.2641 -227.2824
v  57.4669 8.5592 -224.9499
v  54.1284 8.5592 -224.9499
v  57.4669 2.1868 -218.5775
v  54.1284 2.1868 -218.5775
v  57.4669 -0.1457 -209.8725
v  54.1284 -0.1457 -209.8725
v  57.4669 2.1868 -201.1676
v  54.1284 2.1868 -201.1676
v  57.4669 8.5592 -194.7952
v  54.1284 8.5592 -194.7952
v  57.4669 17.2641 -192.4627
v  54.1284 17.2641 -192.4627
v  57.4669 25.9690 -194.7952
v  54.1284 25.9690 -194.7952
v  57.4669 28.5864 -216.4095
v  57.4669 23.8010 -221.1949
v  57.4669 32.3414 -201.1676
v  54.1284 32.3414 -201.1676
v  57.4669 10.7272 -221.1949
v  57.4669 17.2641 -222.9464
v  61.6820 17.2641 -222.9464
v  61.6820 10.7272 -221.1949
v  57.4669 17.2641 -196.7987
v  57.4669 23.8010 -198.5502
v  57.4669 10.7272 -198.5502
v  57.4669 5.9418 -203.3357
v  57.4669 4.1903 -209.8725
v  57.4669 5.9418 -216.4095
v  57.4669 28.5864 -203.3357
v  57.4669 30.3380 -209.8725
v  61.6820 28.5864 -216.4095
v  61.6820 30.3380 -209.8725
v  61.6820 28.5864 -203.3357
v  61.6820 23.8010 -198.5502
v  61.6820 17.2641 -196.7987
v  61.6820 10.7272 -198.5502
v  61.6820 5.9418 -203.3357
v  61.6820 4.1903 -209.8725
v  61.6820 5.9418 -216.4095
v  61.6820 23.8010 -221.1949
v  54.1284 34.6739 125.4985
v  57.4669 34.6739 125.4985
v  57.4669 32.3414 116.7936
v  54.1284 32.3414 116.7936
v  57.4669 25.9690 110.4211
v  54.1284 25.9690 110.4211
v  57.4669 17.2641 108.0887
v  54.1284 17.2641 108.0887
v  57.4669 8.5592 110.4211
v  54.1284 8.5592 110.4211
v  57.4669 2.1867 116.7936
v  54.1284 2.1867 116.7936
v  57.4669 -0.1457 125.4985
v  54.1284 -0.1457 125.4985
v  57.4669 2.1867 134.2034
v  54.1284 2.1867 134.2034
v  57.4669 8.5592 140.5758
v  54.1284 8.5592 140.5758
v  57.4669 17.2641 142.9083
v  54.1284 17.2641 142.9083
v  57.4669 25.9690 140.5758
v  54.1284 25.9690 140.5758
v  57.4669 28.5864 118.9616
v  57.4669 23.8010 114.1762
v  57.4669 32.3414 134.2034
v  54.1284 32.3414 134.2034
v  57.4669 10.7272 114.1762
v  57.4669 17.2641 112.4246
v  61.6820 17.2641 112.4246
v  61.6820 10.7272 114.1762
v  57.4669 17.2641 138.5723
v  57.4669 23.8010 136.8207
v  57.4669 10.7271 136.8207
v  57.4669 5.9418 132.0354
v  57.4669 4.1902 125.4985
v  57.4669 5.9418 118.9616
v  57.4669 28.5864 132.0354
v  57.4669 30.3379 125.4985
v  61.6820 28.5864 118.9616
v  61.6820 30.3379 125.4985
v  61.6820 28.5864 132.0354
v  61.6820 23.8010 136.8207
v  61.6820 17.2641 138.5723
v  61.6820 10.7271 136.8207
v  61.6820 5.9418 132.0354
v  61.6820 4.1902 125.4985
v  61.6820 5.9418 118.9616
v  61.6820 23.8010 114.1762
v  58.8388 17.2112 161.0205
v  58.8388 39.0354 161.0205
v  59.3332 39.0354 159.1752
v  59.3332 17.2112 159.1752
v  60.6842 39.0354 157.8242
v  60.6842 17.2112 157.8242
v  62.5296 39.0354 157.3298
v  62.5296 17.2112 157.3298
v  64.3750 39.0354 157.8242
v  64.3750 17.2112 157.8242
v  65.7260 39.0354 159.1752
v  65.7260 17.2112 159.1752
v  66.2204 39.0354 161.0205
v  66.2204 17.2112 161.0205
v  65.7260 39.0354 162.8660
v  65.7260 17.2112 162.8660
v  64.3750 39.0354 164.2169
v  64.3750 17.2112 164.2169
v  62.5296 39.0354 164.7114
v  62.5296 17.2112 164.7114
v  60.6842 39.0354 164.2169
v  60.6842 17.2112 164.2169
v  59.3333 39.0354 162.8660
v  59.3332 17.2112 162.8660
v  58.8388 17.2112 171.6841
v  58.8388 39.0354 171.6841
v  59.3333 39.0354 169.8387
v  59.3332 17.2112 169.8387
v  60.6842 39.0354 168.4877
v  60.6842 17.2112 168.4877
v  62.5296 39.0354 167.9933
v  62.5296 17.2112 167.9933
v  64.3750 39.0354 168.4877
v  64.3750 17.2112 168.4877
v  65.7260 39.0354 169.8387
v  65.7260 17.2112 169.8387
v  66.2204 39.0354 171.6841
v  66.2204 17.2112 171.6841
v  65.7260 39.0354 173.5295
v  65.7260 17.2112 173.5295
v  64.3750 39.0354 174.8805
v  64.3750 17.2112 174.8805
v  62.5296 39.0354 175.3749
v  62.5296 17.2112 175.3749
v  60.6842 39.0354 174.8805
v  60.6842 17.2112 174.8805
v  59.3333 39.0354 173.5295
v  59.3332 17.2112 173.5295
v  63.6218 21.9392 217.2159
v  57.3985 21.9392 217.2159
v  57.3985 11.9140 217.2159
v  63.6218 11.9140 217.2159
v  57.3985 27.5447 166.3791
v  57.3985 21.9392 115.5425
v  57.3985 11.9140 115.5425
v  57.3985 20.5928 166.3791
v  63.6218 21.9392 115.5425
v  63.6218 11.9140 115.5425
v  63.6218 27.5447 166.3791
v  63.6218 20.5928 166.3791
v  63.8376 44.8537 178.1902
v  40.2155 44.8537 178.1902
v  40.2155 13.3265 178.1902
v  63.8376 13.3265 178.1902
v  40.2155 44.8537 154.5681
v  40.2155 13.3265 154.5681
v  63.8376 44.8537 154.5681
v  63.8376 13.3265 154.5681
v  54.1284 34.6739 206.7600
v  57.4670 34.6739 206.7600
v  57.4669 32.3414 198.0552
v  54.1284 32.3414 198.0552
v  57.4669 25.9690 191.6826
v  54.1284 25.9690 191.6826
v  57.4669 17.2641 189.3501
v  54.1284 17.2641 189.3501
v  57.4669 8.5592 191.6826
v  54.1284 8.5592 191.6826
v  57.4669 2.1867 198.0552
v  54.1284 2.1867 198.0552
v  57.4670 -0.1457 206.7600
v  54.1284 -0.1457 206.7600
v  57.4670 2.1867 215.4650
v  54.1284 2.1867 215.4650
v  57.4670 8.5592 221.8373
v  54.1284 8.5592 221.8373
v  57.4670 17.2641 224.1698
v  54.1284 17.2641 224.1698
v  57.4669 25.9690 221.8373
v  54.1284 25.9690 221.8373
v  57.4669 28.5864 200.2231
v  57.4669 23.8010 195.4377
v  57.4670 32.3414 215.4650
v  54.1284 32.3414 215.4650
v  57.4669 10.7272 195.4377
v  57.4669 17.2641 193.6861
v  61.6820 17.2641 193.6861
v  61.6820 10.7271 195.4377
v  57.4670 17.2641 219.8339
v  57.4669 23.8010 218.0823
v  57.4670 10.7271 218.0823
v  57.4670 5.9418 213.2970
v  57.4670 4.1902 206.7600
v  57.4669 5.9418 200.2231
v  57.4669 28.5863 213.2970
v  57.4669 30.3379 206.7600
v  61.6820 28.5864 200.2231
v  61.6820 30.3379 206.7600
v  61.6820 28.5863 213.2970
v  61.6820 23.8010 218.0823
v  61.6820 17.2641 219.8339
v  61.6820 10.7271 218.0823
v  61.6820 5.9418 213.2970
v  61.6820 4.1902 206.7600
v  61.6820 5.9418 200.2231
v  61.6820 23.8010 195.4377
v  -63.9576 30.6213 -244.5859
v  63.9075 30.6213 -244.5859
v  63.9075 9.0801 -244.5859
v  -63.9576 9.0802 -244.5859
v  63.9075 30.6213 -225.6938
v  63.9075 9.0801 -235.1371
v  -63.9576 30.6213 -225.6938
v  -63.9576 9.0802 -235.1371
v  63.9075 30.6212 242.0690
v  -63.9576 30.6212 242.0690
v  -63.9576 9.0801 242.0690
v  63.9075 9.0801 242.0690
v  -63.9576 30.6212 223.1769
v  -63.9576 9.0801 232.6202
v  63.9075 30.6212 223.1769
v  63.9075 9.0801 232.6202
v  63.9075 31.0002 108.2514
v  -63.9575 31.0002 108.2514
v  -63.9575 8.9032 100.9745
v  63.9075 8.9032 100.9746
v  -63.9576 31.0002 -111.2446
v  -63.9576 8.9032 -103.9678
v  63.9075 31.0002 -111.2446
v  63.9075 8.9032 -103.9678
v  67.8884 39.3070 246.5349
v  -67.9384 39.3070 246.5349
v  -67.9384 30.4487 246.5349
v  67.8884 30.4487 246.5349
v  -67.9384 39.3070 -249.5281
v  -67.9384 30.4488 -249.5281
v  67.8884 39.3070 -249.5281
v  67.8884 30.4488 -249.5281
v  67.8884 48.1653 -249.5281
v  -67.9384 48.1653 -249.5281
v  -61.0810 48.1653 -241.3497
v  61.0309 48.1653 -241.3497
v  -61.0810 48.1652 238.3566
v  61.0309 48.1652 238.3566
v  -67.9384 48.1652 246.5349
v  67.8884 48.1652 246.5349
v  -8.3271 33.5312 -251.7667
v  8.2772 33.5312 -251.7667
v  8.2772 17.3467 -251.7667
v  -8.3271 17.3467 -251.7667
v  8.2772 33.5312 -243.3236
v  8.2772 17.3467 -243.3236
v  -8.3271 33.5312 -243.3236
v  -8.3271 17.3467 -243.3236
v  -4.0552 29.8821 -266.5734
v  4.0053 29.8821 -266.5734
v  4.0053 20.8842 -266.5734
v  -4.0552 20.8842 -266.5734
v  -4.0552 24.3562 -261.8471
v  -4.0552 29.8821 -261.8471
v  -4.0552 24.3562 -255.8659
v  -4.0552 20.8842 -241.5239
v  -4.0552 29.8821 -255.8659
v  -4.0552 29.8821 -241.5239
v  4.0053 29.8821 -261.8471
v  4.0053 24.3562 -255.8659
v  4.0053 29.8821 -255.8659
v  4.0053 29.8821 -241.5239
v  4.0053 20.8842 -241.5239
v  4.0053 24.3562 -261.8471
v  3.7701 16.9522 249.4192
v  3.7701 33.5564 249.4192
v  -12.4143 33.5564 249.4192
v  -12.4143 16.9522 249.4192
v  3.7701 33.5564 243.3812
v  -12.4143 33.5564 243.3812
v  3.7701 16.9522 243.3812
v  -12.4143 16.9522 243.3812
v  0.1210 21.2240 264.2259
v  0.1210 29.2845 264.2259
v  -8.8769 29.2845 264.2259
v  -8.8769 21.2240 264.2259
v  -5.4048 21.2241 259.4996
v  0.1210 21.2241 259.4996
v  -5.4048 21.2240 253.5183
v  -8.8769 21.2240 239.1764
v  4.6655 21.2240 253.5183
v  4.6655 21.2241 239.1764
v  0.1210 29.2846 259.4996
v  -5.4048 29.2845 253.5183
v  4.6655 29.2845 253.5183
v  4.6655 29.2845 239.1764
v  -8.8769 29.2845 239.1764
v  -5.4048 29.2845 259.4996
v  0.4380 33.5564 249.4192
v  0.4380 16.9522 249.4192
v  16.6225 16.9522 249.4192
v  16.6225 33.5564 249.4192
v  0.4380 16.9522 239.8258
v  16.6225 16.9522 239.8258
v  0.4380 33.5564 239.8258
v  16.6225 33.5564 239.8258
v  4.0871 29.2845 264.2259
v  4.0871 21.2240 264.2259
v  13.0850 21.2240 264.2259
v  13.0850 29.2845 264.2259
v  9.6130 29.2845 259.4996
v  4.0871 29.2846 259.4996
v  9.6130 29.2846 253.5183
v  13.0850 29.2846 239.1764
v  4.0871 29.2846 253.5183
v  4.0871 29.2846 239.1764
v  4.0871 21.2241 259.4996
v  9.6130 21.2241 253.5183
v  4.0871 21.2241 253.5183
v  4.0871 21.2241 239.1764
v  13.0850 21.2241 239.1764
v  9.6130 21.2241 259.4996
v  -47.2949 94.0630 212.8775
v  -47.2949 94.0631 -213.9857
v  -42.6137 73.5535 -213.9857
v  -42.6137 73.5534 212.8775
v  -29.4973 57.1060 -213.9857
v  -29.4973 57.1060 212.8775
v  -10.5436 47.9784 -213.9857
v  -10.5435 47.9783 212.8775
v  10.4935 47.9784 -213.9857
v  10.4935 47.9783 212.8775
v  29.4472 57.1060 -213.9857
v  29.4472 57.1060 212.8775
v  42.5636 73.5535 -213.9857
v  42.5636 73.5534 212.8775
v  47.2448 94.0631 -213.9857
v  47.2448 94.0630 212.8775
v  42.5636 114.5727 -213.9857
v  42.5636 114.5726 212.8775
v  29.4472 131.0201 -213.9857
v  29.4473 131.0201 212.8775
v  10.4935 140.1478 -213.9857
v  10.4935 140.1477 212.8775
v  -10.5436 140.1478 -213.9857
v  -10.5436 140.1477 212.8775
v  -29.4973 131.0201 -213.9857
v  -29.4973 131.0201 212.8775
v  -42.6137 114.5727 -213.9857
v  -42.6137 114.5726 212.8775
v  49.8539 94.7306 -151.8208
v  -49.9039 94.7306 -151.8208
v  -45.2203 47.0649 -151.8208
v  45.1702 47.0649 -151.8208
v  -49.9039 94.7306 -156.6175
v  49.8539 94.7306 -156.6175
v  45.1702 47.0649 -156.6175
v  -45.2203 47.0649 -156.6175
v  44.9143 116.3722 -151.8208
v  31.0740 133.7274 -151.8208
v  11.0741 143.3589 -151.8208
v  -11.1241 143.3589 -151.8208
v  -31.1240 133.7274 -151.8208
v  -44.9644 116.3722 -151.8208
v  -44.9644 116.3722 -156.6175
v  -31.1240 133.7274 -156.6175
v  -11.1241 143.3589 -156.6175
v  11.0741 143.3589 -156.6175
v  31.0740 133.7274 -156.6175
v  44.9143 116.3722 -156.6175
v  49.8539 94.7305 153.6924
v  -49.9039 94.7305 153.6924
v  -45.2203 47.0648 153.6924
v  45.1702 47.0648 153.6924
v  -49.9039 94.7305 148.8956
v  49.8539 94.7305 148.8956
v  45.1702 47.0648 148.8956
v  -45.2203 47.0648 148.8956
v  44.9143 116.3722 153.6924
v  31.0740 133.7274 153.6924
v  11.0741 143.3588 153.6924
v  -11.1241 143.3589 153.6924
v  -31.1240 133.7274 153.6924
v  -44.9644 116.3722 153.6924
v  -44.9644 116.3722 148.8956
v  -31.1240 133.7274 148.8956
v  -11.1241 143.3588 148.8957
v  11.0741 143.3588 148.8957
v  31.0740 133.7274 148.8956
v  44.9143 116.3722 148.8956
v  -13.9528 124.2830 -0.3578
v  -13.9528 142.9395 -0.3578
v  -12.0869 142.9395 -7.3217
v  -12.0869 124.2830 -7.3217
v  -6.9889 142.9396 -12.4196
v  -6.9889 124.2830 -12.4196
v  -0.0250 142.9396 -14.2856
v  -0.0250 124.2830 -14.2856
v  6.9389 142.9396 -12.4196
v  6.9389 124.2830 -12.4196
v  12.0368 142.9396 -7.3217
v  12.0368 124.2830 -7.3217
v  13.9028 142.9396 -0.3578
v  13.9028 124.2830 -0.3578
v  12.0368 142.9395 6.6061
v  12.0368 124.2830 6.6061
v  6.9389 142.9395 11.7041
v  6.9389 124.2830 11.7040
v  -0.0250 142.9395 13.5700
v  -0.0250 124.2830 13.5700
v  -6.9889 142.9395 11.7041
v  -6.9889 124.2830 11.7041
v  -12.0869 142.9395 6.6062
v  -12.0869 124.2830 6.6061
# 860 vertices

vn 0.0000 0.9659 0.2588
vn 0.0000 0.7071 0.7071
vn -0.0000 0.2588 0.9659
vn -0.0000 -0.2588 0.9659
vn 0.0000 -0.7071 0.7071
vn 0.0000 -0.9659 0.2588
vn 0.0000 -0.9659 -0.2588
vn 0.0000 -0.7071 -0.7071
vn 0.0000 -0.2588 -0.9659
vn 0.0000 0.2588 -0.9659
vn -1.0000 0.0000 -0.0000
vn 0.0000 0.7071 -0.7071
vn 0.0000 0.9659 -0.2588
vn 1.0000 -0.0000 0.0000
vn 1.0000 -0.0000 -0.0000
vn 0.0000 -0.2588 0.9659
vn -1.0000 -0.0000 -0.0000
vn -1.0000 0.0000 0.0000
vn -0.0000 0.7071 -0.7071
vn -0.0000 0.9659 0.2588
vn -0.0000 0.9659 -0.2588
vn 0.0000 0.2588 0.9659
vn 0.0000 0.0000 -1.0000
vn -0.0000 -0.0000 1.0000
vn -0.0000 -1.0000 0.0000
vn 0.0000 1.0000 0.0000
vn 0.0000 -0.0000 1.0000
vn 0.0000 -0.9857 -0.1683
vn -0.0000 0.9940 -0.1096
vn -0.0000 0.9940 0.1096
vn 0.0000 -0.9857 0.1683
vn 0.9659 -0.0000 0.2588
vn 0.7071 -0.0000 0.7071
vn 0.2588 -0.0000 0.9659
vn -0.2588 -0.0000 0.9659
vn -0.7071 0.0000 0.7071
vn -0.9659 0.0000 0.2588
vn -0.9659 0.0000 -0.2588
vn -0.7071 0.0000 -0.7071
vn -0.2588 0.0000 -0.9659
vn 0.2588 0.0000 -0.9659
vn -0.0000 1.0000 -0.0000
vn 0.0000 1.0000 -0.0000
vn 0.7071 -0.0000 -0.7071
vn 0.9659 -0.0000 -0.2588
vn 0.0000 -1.0000 -0.0000
vn 0.0000 -1.0000 0.0000
vn -0.0000 -0.9659 -0.2588
vn -0.0000 -0.7071 -0.7071
vn -1.0000 -0.0000 0.0000
vn -0.0000 -0.2588 -0.9659
vn -0.0000 0.2588 -0.9659
vn 1.0000 0.0000 -0.0000
vn -0.0000 0.7071 0.7071
vn -0.2589 0.0000 -0.9659
vn -0.0000 1.0000 0.0000
vn -0.0000 -0.9857 -0.1683
vn 0.0000 0.9940 -0.1096
vn 0.0000 0.9940 0.1096
vn -0.0000 -0.9857 0.1683
vn 1.0000 0.0000 0.0000
vn -0.0000 -0.9659 0.2588
vn -0.0000 -1.0000 -0.0000
vn -0.0000 -0.4015 0.9159
vn -0.0000 -0.4015 -0.9159
vn -0.0000 -0.3128 0.9498
vn 0.0000 -0.3128 -0.9498
vn 0.0000 -0.0000 -1.0000
vn -0.9749 -0.2225 0.0000
vn -0.7818 -0.6235 -0.0000
vn -0.4339 -0.9010 -0.0000
vn 0.4339 -0.9010 -0.0000
vn 0.7818 -0.6235 -0.0000
vn 0.9749 -0.2225 -0.0000
vn 0.9749 0.2225 -0.0000
vn 0.7818 0.6235 0.0000
vn 0.4339 0.9010 0.0000
vn -0.4339 0.9010 0.0000
vn -0.7818 0.6235 0.0000
vn -0.9749 0.2225 0.0000
vn 0.0000 0.0000 1.0000
vn -0.0000 -0.0000 -1.0000
vn -0.0000 0.0000 -1.0000
vn -0.0000 0.0000 1.0000
vn 0.9952 -0.0978 -0.0000
vn 0.9749 0.2225 0.0000
vn -0.9952 -0.0978 -0.0000
vn -0.4339 0.9010 -0.0000
vn 0.7071 0.0000 -0.7071
vn 0.9659 0.0000 -0.2588
vn -0.7071 -0.0000 0.7071
vn -0.9659 -0.0000 0.2588
# 92 vertex normals

vt 0.1912 0.0341 0.0000
vt 0.1905 0.0339 0.0000
vt 0.1900 0.0334 0.0000
vt 0.1898 0.0327 0.0000
vt 0.1900 0.0320 0.0000
vt 0.1905 0.0315 0.0000
vt 0.1912 0.0313 0.0000
vt 0.1919 0.0315 0.0000
vt 0.1924 0.0320 0.0000
vt 0.1926 0.0327 0.0000
vt 0.1924 0.0334 0.0000
vt 0.1907 0.0336 0.0000
vt 0.1903 0.0332 0.0000
vt 0.1919 0.0339 0.0000
vt 0.1903 0.0322 0.0000
vt 0.1902 0.0327 0.0000
vt 0.1922 0.0327 0.0000
vt 0.1921 0.0332 0.0000
vt 0.1921 0.0322 0.0000
vt 0.1917 0.0318 0.0000
vt 0.1912 0.0317 0.0000
vt 0.1907 0.0318 0.0000
vt 0.1917 0.0336 0.0000
vt 0.1912 0.0337 0.0000
vt 0.1890 0.0349 0.0000
vt 0.1890 0.0324 0.0000
vt 0.1871 0.0349 0.0000
vt 0.1871 0.0324 0.0000
vt 0.1920 0.0331 0.0000
vt 0.1920 0.0323 0.0000
vt 0.1880 0.0335 0.0000
vt 0.1840 0.0331 0.0000
vt 0.1840 0.0323 0.0000
vt 0.1880 0.0330 0.0000
vt 0.1884 0.0327 0.0000
vt 0.1884 0.0344 0.0000
vt 0.1883 0.0344 0.0000
vt 0.1883 0.0327 0.0000
vt 0.1882 0.0344 0.0000
vt 0.1882 0.0327 0.0000
vt 0.1886 0.0344 0.0000
vt 0.1886 0.0327 0.0000
vt 0.1887 0.0344 0.0000
vt 0.1887 0.0327 0.0000
vt 0.1876 0.0327 0.0000
vt 0.1876 0.0344 0.0000
vt 0.1875 0.0344 0.0000
vt 0.1875 0.0327 0.0000
vt 0.1874 0.0344 0.0000
vt 0.1874 0.0327 0.0000
vt 0.1873 0.0344 0.0000
vt 0.1873 0.0327 0.0000
vt 0.1877 0.0344 0.0000
vt 0.1877 0.0327 0.0000
vt 0.1879 0.0344 0.0000
vt 0.1879 0.0327 0.0000
vt 0.1848 0.0341 0.0000
vt 0.1841 0.0339 0.0000
vt 0.1836 0.0334 0.0000
vt 0.1834 0.0327 0.0000
vt 0.1836 0.0320 0.0000
vt 0.1841 0.0315 0.0000
vt 0.1848 0.0313 0.0000
vt 0.1855 0.0315 0.0000
vt 0.1860 0.0320 0.0000
vt 0.1862 0.0327 0.0000
vt 0.1860 0.0334 0.0000
vt 0.1843 0.0336 0.0000
vt 0.1839 0.0332 0.0000
vt 0.1855 0.0339 0.0000
vt 0.1839 0.0322 0.0000
vt 0.1838 0.0327 0.0000
vt 0.1858 0.0327 0.0000
vt 0.1857 0.0332 0.0000
vt 0.1857 0.0322 0.0000
vt 0.1853 0.0318 0.0000
vt 0.1848 0.0317 0.0000
vt 0.1843 0.0318 0.0000
vt 0.1853 0.0336 0.0000
vt 0.1848 0.0337 0.0000
vt 0.1574 0.0341 0.0000
vt 0.1567 0.0339 0.0000
vt 0.1562 0.0334 0.0000
vt 0.1560 0.0327 0.0000
vt 0.1562 0.0320 0.0000
vt 0.1567 0.0315 0.0000
vt 0.1574 0.0313 0.0000
vt 0.1581 0.0315 0.0000
vt 0.1586 0.0320 0.0000
vt 0.1588 0.0327 0.0000
vt 0.1586 0.0334 0.0000
vt 0.1569 0.0336 0.0000
vt 0.1565 0.0332 0.0000
vt 0.1581 0.0339 0.0000
vt 0.1565 0.0322 0.0000
vt 0.1564 0.0327 0.0000
vt 0.1584 0.0327 0.0000
vt 0.1583 0.0332 0.0000
vt 0.1583 0.0322 0.0000
vt 0.1579 0.0318 0.0000
vt 0.1574 0.0317 0.0000
vt 0.1569 0.0318 0.0000
vt 0.1579 0.0336 0.0000
vt 0.1574 0.0337 0.0000
vt 0.1602 0.0327 0.0000
vt 0.1602 0.0344 0.0000
vt 0.1601 0.0344 0.0000
vt 0.1601 0.0327 0.0000
vt 0.1599 0.0344 0.0000
vt 0.1599 0.0327 0.0000
vt 0.1603 0.0344 0.0000
vt 0.1603 0.0327 0.0000
vt 0.1605 0.0344 0.0000
vt 0.1605 0.0327 0.0000
vt 0.1610 0.0327 0.0000
vt 0.1610 0.0344 0.0000
vt 0.1609 0.0344 0.0000
vt 0.1609 0.0327 0.0000
vt 0.1608 0.0344 0.0000
vt 0.1608 0.0327 0.0000
vt 0.1612 0.0344 0.0000
vt 0.1612 0.0327 0.0000
vt 0.1613 0.0344 0.0000
vt 0.1613 0.0327 0.0000
vt 0.1646 0.0331 0.0000
vt 0.1646 0.0323 0.0000
vt 0.1606 0.0335 0.0000
vt 0.1566 0.0331 0.0000
vt 0.1566 0.0323 0.0000
vt 0.1606 0.0330 0.0000
vt 0.1616 0.0349 0.0000
vt 0.1616 0.0324 0.0000
vt 0.1597 0.0349 0.0000
vt 0.1597 0.0324 0.0000
vt 0.1638 0.0341 0.0000
vt 0.1631 0.0339 0.0000
vt 0.1626 0.0334 0.0000
vt 0.1624 0.0327 0.0000
vt 0.1626 0.0320 0.0000
vt 0.1631 0.0315 0.0000
vt 0.1638 0.0313 0.0000
vt 0.1645 0.0315 0.0000
vt 0.1650 0.0320 0.0000
vt 0.1652 0.0327 0.0000
vt 0.1650 0.0334 0.0000
vt 0.1633 0.0336 0.0000
vt 0.1629 0.0332 0.0000
vt 0.1645 0.0339 0.0000
vt 0.1629 0.0322 0.0000
vt 0.1628 0.0327 0.0000
vt 0.1648 0.0327 0.0000
vt 0.1647 0.0332 0.0000
vt 0.1647 0.0322 0.0000
vt 0.1643 0.0318 0.0000
vt 0.1638 0.0317 0.0000
vt 0.1633 0.0318 0.0000
vt 0.1643 0.0336 0.0000
vt 0.1638 0.0337 0.0000
vt 0.1859 0.0327 0.0000
vt 0.1889 0.0349 0.0000
vt 0.1889 0.0324 0.0000
vt 0.1878 0.0344 0.0000
vt 0.1878 0.0327 0.0000
vt 0.1881 0.0344 0.0000
vt 0.1881 0.0327 0.0000
vt 0.1906 0.0315 0.0000
vt 0.1901 0.0320 0.0000
vt 0.1899 0.0327 0.0000
vt 0.1901 0.0334 0.0000
vt 0.1918 0.0336 0.0000
vt 0.1906 0.0339 0.0000
vt 0.1923 0.0327 0.0000
vt 0.1918 0.0318 0.0000
vt 0.1632 0.0315 0.0000
vt 0.1627 0.0320 0.0000
vt 0.1625 0.0327 0.0000
vt 0.1627 0.0334 0.0000
vt 0.1644 0.0336 0.0000
vt 0.1632 0.0339 0.0000
vt 0.1649 0.0327 0.0000
vt 0.1644 0.0318 0.0000
vt 0.1607 0.0344 0.0000
vt 0.1607 0.0327 0.0000
vt 0.1604 0.0344 0.0000
vt 0.1604 0.0327 0.0000
vt 0.1600 0.0344 0.0000
vt 0.1600 0.0327 0.0000
vt 0.1615 0.0349 0.0000
vt 0.1615 0.0324 0.0000
vt 0.1585 0.0327 0.0000
vt 0.1639 0.0350 0.0000
vt 0.1798 0.0350 0.0000
vt 0.1798 0.0509 0.0000
vt 0.1639 0.0509 0.0000
vt 0.2769 0.0244 0.0000
vt 0.2928 0.0244 0.0000
vt 0.2928 0.0403 0.0000
vt 0.2769 0.0403 0.0000
vt 0.9385 0.7598 0.0000
vt 0.9385 0.9781 0.0000
vt 0.0809 0.9781 0.0000
vt 0.0809 0.7598 0.0000
vt 0.1508 0.0343 0.0000
vt 0.1508 0.0332 0.0000
vt 0.1512 0.0343 0.0000
vt 0.1512 0.0332 0.0000
vt 0.1496 0.0340 0.0000
vt 0.1496 0.0334 0.0000
vt 0.1499 0.0337 0.0000
vt 0.1499 0.0340 0.0000
vt 0.1502 0.0337 0.0000
vt 0.1512 0.0334 0.0000
vt 0.1502 0.0340 0.0000
vt 0.1512 0.0340 0.0000
vt 0.0166 0.6432 0.0000
vt 0.7587 0.6432 0.0000
vt 0.7587 0.6075 0.0000
vt 0.0166 0.6075 0.0000
vt 0.7587 0.5789 0.0000
vt 0.0166 0.5789 0.0000
vt 0.7587 0.5631 0.0000
vt 0.0166 0.5631 0.0000
vt 0.7587 0.6788 0.0000
vt 0.0166 0.6788 0.0000
vt 0.7587 0.7074 0.0000
vt 0.0166 0.7074 0.0000
vt 0.7587 0.7233 0.0000
vt 0.0166 0.7233 0.0000
vt 0.9477 0.6098 0.0000
vt 0.9558 0.6455 0.0000
vt 0.9477 0.6811 0.0000
vt 0.9249 0.7097 0.0000
vt 0.8919 0.7256 0.0000
vt 0.8553 0.7256 0.0000
vt 0.8224 0.7097 0.0000
vt 0.7996 0.6811 0.0000
vt 0.7915 0.6455 0.0000
vt 0.7996 0.6098 0.0000
vt 0.8224 0.5812 0.0000
vt 0.8553 0.5653 0.0000
vt 0.8919 0.5653 0.0000
vt 0.9249 0.5812 0.0000
vt 0.4757 0.0425 0.0000
vt 0.4920 0.0425 0.0000
vt 0.4912 0.0348 0.0000
vt 0.4764 0.0348 0.0000
vt 0.4765 0.0461 0.0000
vt 0.4787 0.0489 0.0000
vt 0.4820 0.0505 0.0000
vt 0.4856 0.0505 0.0000
vt 0.4889 0.0489 0.0000
vt 0.4912 0.0461 0.0000
vt 0.2768 0.0256 0.0000
vt 0.2768 0.0263 0.0000
vt 0.2771 0.0263 0.0000
vt 0.2771 0.0256 0.0000
vt 0.2773 0.0263 0.0000
vt 0.2773 0.0256 0.0000
vt 0.2774 0.0263 0.0000
vt 0.2774 0.0256 0.0000
vt 0.2766 0.0263 0.0000
vt 0.2766 0.0256 0.0000
vt 0.2764 0.0263 0.0000
vt 0.2764 0.0256 0.0000
vt 0.2763 0.0263 0.0000
vt 0.2763 0.0256 0.0000
# 266 texture coords

g SPW_Vehicle_Train_Freight_Train_Trailer_03
usemtl SPW_Vehicle_Train_Freight_Train_Trailer
s off
f 1/1/1 2/1/1 3/2/1 4/2/1 
f 4/2/2 3/2/2 5/3/2 6/3/2 
f 6/3/3 5/3/3 7/4/3 8/4/3 
f 8/4/4 7/4/4 9/5/4 10/5/4 
f 10/5/5 9/5/5 11/6/5 12/6/5 
f 12/6/6 11/6/6 13/7/6 14/7/6 
f 14/7/7 13/7/7 15/8/7 16/8/7 
f 16/8/8 15/8/8 17/9/8 18/9/8 
f 18/9/9 17/9/9 19/10/9 20/10/9 
f 20/10/10 19/10/10 21/11/10 22/11/10 
s 1
f 5/3/11 3/2/11 23/12/11 24/13/11 
s off
f 22/11/12 21/11/12 25/14/12 26/14/12 
f 26/14/13 25/14/13 2/1/13 1/1/13 
f 1/1/14 4/2/14 6/3/14 8/4/14 
f 1/1/14 8/4/14 10/5/14 12/6/14 
f 1/1/15 12/6/15 14/7/15 16/8/15 
f 1/1/14 16/8/14 18/9/14 20/10/14 
f 1/1/15 20/10/15 22/11/15 26/14/15 
f 27/15/16 28/16/16 29/16/16 30/15/16 
f 21/11/11 19/10/11 31/17/11 32/18/11 
s 1
f 19/10/17 17/9/11 33/19/11 31/17/17 
f 17/9/11 15/8/17 34/20/17 33/19/11 
f 15/8/17 13/7/17 35/21/17 34/20/17 
f 13/7/17 11/6/17 36/22/17 35/21/17 
f 11/6/17 9/5/11 27/15/11 36/22/17 
f 9/5/11 7/4/11 28/16/11 27/15/11 
s 2
f 2/1/11 25/14/11 37/23/11 38/24/18 
f 3/2/18 2/1/11 38/24/18 23/12/18 
s 1
f 7/4/11 5/3/11 24/13/11 28/16/11 
s 2
f 25/14/11 21/11/11 32/18/11 37/23/11 
s off
f 39/12/11 40/24/11 41/23/11 42/18/11 
f 39/12/11 42/18/11 43/17/11 44/19/11 
f 39/12/11 44/19/11 45/20/11 46/21/11 
f 39/12/11 46/21/11 47/22/11 30/15/11 
f 39/12/11 30/15/11 29/16/11 48/13/11 
f 37/23/19 32/18/19 42/18/19 41/23/19 
f 23/12/20 38/24/20 40/24/20 39/12/20 
f 33/19/8 34/20/8 45/20/8 44/19/8 
f 36/22/5 27/15/5 30/15/5 47/22/5 
f 38/24/21 37/23/21 41/23/21 40/24/21 
f 24/13/2 23/12/2 39/12/2 48/13/2 
f 31/17/9 33/19/9 44/19/9 43/17/9 
f 35/21/6 36/22/6 47/22/6 46/21/6 
f 28/16/22 24/13/22 48/13/22 29/16/22 
f 32/18/10 31/17/10 43/17/10 42/18/10 
f 34/20/7 35/21/7 46/21/7 45/20/7 
f 49/25/23 50/25/23 51/26/23 52/26/23 
f 50/25/14 53/27/14 54/28/14 51/26/14 
f 53/27/24 55/27/24 56/28/24 54/28/24 
f 55/27/18 49/25/18 52/26/18 56/28/18 
f 52/26/25 51/26/25 54/28/25 56/28/25 
f 55/27/26 53/27/26 50/25/26 49/25/26 
f 57/29/23 58/29/23 59/30/23 60/30/23 
s 1
f 61/31/14 62/32/14 63/33/14 64/34/14 
s off
f 62/32/27 65/32/27 66/33/27 63/33/27 
s 1
f 67/31/11 57/29/11 60/30/11 68/34/11 
s off
f 68/34/28 64/34/28 63/33/28 66/33/28 
f 67/31/29 61/31/29 58/29/29 57/29/29 
f 65/32/30 62/32/30 61/31/30 67/31/30 
f 60/30/31 59/30/31 64/34/31 68/34/31 
s 1
f 65/32/11 67/31/11 68/34/11 66/33/11 
f 58/29/14 61/31/14 64/34/14 59/30/14 
s off
f 69/35/32 70/36/32 71/37/32 72/38/32 
f 72/38/33 71/37/33 73/39/33 74/40/33 
f 74/40/34 73/39/34 75/39/34 76/40/34 
f 76/40/35 75/39/35 77/39/35 78/40/35 
f 78/40/36 77/39/36 79/37/36 80/38/36 
f 80/38/37 79/37/37 81/36/37 82/35/37 
f 82/35/38 81/36/38 83/41/38 84/42/38 
f 84/42/39 83/41/39 85/43/39 86/44/39 
f 86/44/40 85/43/40 87/43/40 88/44/40 
f 88/44/41 87/43/41 89/43/41 90/44/41 
f 71/37/42 70/36/42 91/41/42 89/43/42 
f 71/37/43 89/43/43 87/43/43 85/43/43 
f 71/37/43 85/43/43 83/41/43 81/36/43 
f 71/37/26 81/36/26 79/37/26 77/39/26 
f 71/37/26 77/39/26 75/39/26 73/39/26 
f 90/44/44 89/43/44 91/41/44 92/42/44 
f 92/42/45 91/41/45 70/36/45 69/35/45 
f 69/35/46 72/38/46 74/40/46 76/40/46 
f 69/35/46 76/40/46 78/40/46 80/38/46 
f 69/35/46 80/38/46 82/35/46 84/42/46 
f 69/35/46 84/42/46 86/44/46 88/44/46 
f 69/35/46 88/44/46 90/44/46 92/42/46 
f 93/45/32 94/46/32 95/47/32 96/48/32 
f 96/48/33 95/47/33 97/49/33 98/50/33 
f 98/50/34 97/49/34 99/51/34 100/52/34 
f 100/52/35 99/51/35 101/49/35 102/50/35 
f 102/50/36 101/49/36 103/47/36 104/48/36 
f 104/48/37 103/47/37 105/46/37 106/45/37 
f 106/45/38 105/46/38 107/53/38 108/54/38 
f 108/54/39 107/53/39 109/55/39 110/56/39 
f 110/56/40 109/55/40 111/55/40 112/56/40 
f 112/56/41 111/55/41 113/55/41 114/56/41 
f 95/47/26 94/46/26 115/53/26 113/55/26 
f 95/47/26 113/55/26 111/55/26 109/55/26 
f 95/47/26 109/55/26 107/53/26 105/46/26 
f 95/47/26 105/46/26 103/47/26 101/49/26 
f 95/47/26 101/49/26 99/51/26 97/49/26 
f 114/56/44 113/55/44 115/53/44 116/54/44 
f 116/54/45 115/53/45 94/46/45 93/45/45 
f 93/45/25 96/48/25 98/50/25 100/52/25 
f 93/45/47 100/52/47 102/50/47 104/48/47 
f 93/45/46 104/48/46 106/45/46 108/54/46 
f 93/45/46 108/54/46 110/56/46 112/56/46 
f 93/45/46 112/56/46 114/56/46 116/54/46 
f 117/57/1 118/57/1 119/58/1 120/58/1 
f 120/58/2 119/58/2 121/59/2 122/59/2 
f 122/59/22 121/59/22 123/60/22 124/60/22 
f 124/60/16 123/60/16 125/61/16 126/61/16 
f 126/61/5 125/61/5 127/62/5 128/62/5 
f 128/62/6 127/62/6 129/63/6 130/63/6 
f 130/63/48 129/63/48 131/64/48 132/64/48 
f 132/64/49 131/64/49 133/65/49 134/65/49 
f 134/65/9 133/65/9 135/66/9 136/66/9 
f 136/66/10 135/66/10 137/67/10 138/67/10 
s 1
f 121/59/18 119/58/18 139/68/18 140/69/50 
s off
f 138/67/12 137/67/12 141/70/12 142/70/12 
f 142/70/13 141/70/13 118/57/13 117/57/13 
f 117/57/14 120/58/14 122/59/14 124/60/14 
f 117/57/14 124/60/14 126/61/14 128/62/14 
f 117/57/14 128/62/14 130/63/14 132/64/14 
f 117/57/14 132/64/14 134/65/14 136/66/14 
f 117/57/14 136/66/14 138/67/14 142/70/14 
f 143/71/16 144/72/16 145/72/16 146/71/16 
s 1
f 137/67/18 135/66/11 147/73/11 148/74/11 
f 135/66/11 133/65/11 149/75/11 147/73/11 
s 2
f 133/65/11 131/64/11 150/76/11 149/75/11 
f 131/64/11 129/63/17 151/77/11 150/76/11 
s off
f 129/63/50 127/62/50 152/78/50 151/77/50 
f 127/62/11 125/61/11 143/71/11 152/78/11 
s 2
f 125/61/11 123/60/11 144/72/11 143/71/11 
s off
f 118/57/11 141/70/11 153/79/11 154/80/11 
s 1
f 119/58/18 118/57/18 154/80/18 139/68/18 
s 2
f 123/60/11 121/59/11 140/69/11 144/72/11 
s 1
f 141/70/11 137/67/18 148/74/11 153/79/11 
s off
f 155/68/17 156/80/17 157/79/17 158/74/17 
f 155/68/11 158/74/11 159/73/11 160/75/11 
f 155/68/11 160/75/11 161/76/11 162/77/11 
f 155/68/11 162/77/11 163/78/11 146/71/11 
f 155/68/11 146/71/11 145/72/11 164/69/11 
f 153/79/12 148/74/12 158/74/12 157/79/12 
f 139/68/1 154/80/1 156/80/1 155/68/1 
f 149/75/49 150/76/49 161/76/49 160/75/49 
f 152/78/5 143/71/5 146/71/5 163/78/5 
f 154/80/13 153/79/13 157/79/13 156/80/13 
f 140/69/2 139/68/2 155/68/2 164/69/2 
f 147/73/51 149/75/51 160/75/51 159/73/51 
f 151/77/6 152/78/6 163/78/6 162/77/6 
f 144/72/22 140/69/22 164/69/22 145/72/22 
f 148/74/10 147/73/10 159/73/10 158/74/10 
f 150/76/7 151/77/7 162/77/7 161/76/7 
f 165/81/1 166/81/1 167/82/1 168/82/1 
f 168/82/2 167/82/2 169/83/2 170/83/2 
f 170/83/22 169/83/22 171/84/22 172/84/22 
f 172/84/16 171/84/16 173/85/16 174/85/16 
f 174/85/5 173/85/5 175/86/5 176/86/5 
f 176/86/6 175/86/6 177/87/6 178/87/6 
f 178/87/7 177/87/7 179/88/7 180/88/7 
f 180/88/8 179/88/8 181/89/8 182/89/8 
f 182/89/9 181/89/9 183/90/9 184/90/9 
f 184/90/52 183/90/52 185/91/52 186/91/52 
s 1
f 169/83/18 167/82/18 187/92/18 188/93/11 
s off
f 186/91/19 185/91/19 189/94/19 190/94/19 
f 190/94/13 189/94/13 166/81/13 165/81/13 
f 165/81/14 168/82/14 170/83/14 172/84/14 
f 165/81/14 172/84/14 174/85/14 176/86/14 
f 165/81/14 176/86/14 178/87/14 180/88/14 
f 165/81/14 180/88/14 182/89/14 184/90/14 
f 165/81/53 184/90/53 186/91/53 190/94/53 
f 191/95/16 192/96/16 193/96/16 194/95/16 
s 2
f 185/91/18 183/90/11 195/97/18 196/98/11 
f 183/90/11 181/89/17 197/99/17 195/97/18 
f 181/89/17 179/88/11 198/100/17 197/99/17 
f 179/88/11 177/87/11 199/101/11 198/100/17 
s 1
f 177/87/11 175/86/11 200/102/11 199/101/11 
f 175/86/11 173/85/11 191/95/11 200/102/11 
f 173/85/11 171/84/11 192/96/11 191/95/11 
s 2
f 166/81/18 189/94/11 201/103/11 202/104/18 
s off
f 167/82/11 166/81/11 202/104/11 187/92/11 
s 1
f 171/84/11 169/83/18 188/93/11 192/96/11 
s 2
f 189/94/11 185/91/18 196/98/11 201/103/11 
s off
f 203/92/11 204/104/11 205/103/11 206/98/11 
f 203/92/11 206/98/11 207/97/11 208/99/11 
f 203/92/11 208/99/11 209/100/11 210/101/11 
f 203/92/11 210/101/11 211/102/11 194/95/11 
f 203/92/11 194/95/11 193/96/11 212/93/11 
f 201/103/12 196/98/12 206/98/12 205/103/12 
f 187/92/20 202/104/20 204/104/20 203/92/20 
f 197/99/8 198/100/8 209/100/8 208/99/8 
f 200/102/5 191/95/5 194/95/5 211/102/5 
f 202/104/13 201/103/13 205/103/13 204/104/13 
f 188/93/54 187/92/54 203/92/54 212/93/54 
f 195/97/9 197/99/9 208/99/9 207/97/9 
f 199/101/6 200/102/6 211/102/6 210/101/6 
f 192/96/22 188/93/22 212/93/22 193/96/22 
f 196/98/10 195/97/10 207/97/10 206/98/10 
f 198/100/7 199/101/7 210/101/7 209/100/7 
f 213/105/32 214/106/32 215/107/32 216/108/32 
f 216/108/33 215/107/33 217/109/33 218/110/33 
f 218/110/34 217/109/34 219/109/34 220/110/34 
f 220/110/35 219/109/35 221/109/35 222/110/35 
f 222/110/36 221/109/36 223/107/36 224/108/36 
f 224/108/37 223/107/37 225/106/37 226/105/37 
f 226/105/38 225/106/38 227/111/38 228/112/38 
f 228/112/39 227/111/39 229/113/39 230/114/39 
f 230/114/55 229/113/55 231/113/55 232/114/55 
f 232/114/41 231/113/41 233/113/41 234/114/41 
f 215/107/56 214/106/56 235/111/56 233/113/56 
f 215/107/56 233/113/56 231/113/56 229/113/56 
f 215/107/43 229/113/43 227/111/43 225/106/43 
f 215/107/43 225/106/43 223/107/43 221/109/43 
f 215/107/43 221/109/43 219/109/43 217/109/43 
f 234/114/44 233/113/44 235/111/44 236/112/44 
f 236/112/45 235/111/45 214/106/45 213/105/45 
f 213/105/46 216/108/46 218/110/46 220/110/46 
f 213/105/46 220/110/46 222/110/46 224/108/46 
f 213/105/46 224/108/46 226/105/46 228/112/46 
f 213/105/46 228/112/46 230/114/46 232/114/46 
f 213/105/46 232/114/46 234/114/46 236/112/46 
f 237/115/32 238/116/32 239/117/32 240/118/32 
f 240/118/33 239/117/33 241/119/33 242/120/33 
f 242/120/34 241/119/34 243/119/34 244/120/34 
f 244/120/35 243/119/35 245/119/35 246/120/35 
f 246/120/36 245/119/36 247/117/36 248/118/36 
f 248/118/37 247/117/37 249/116/37 250/115/37 
f 250/115/38 249/116/38 251/121/38 252/122/38 
f 252/122/39 251/121/39 253/123/39 254/124/39 
f 254/124/40 253/123/40 255/123/40 256/124/40 
f 256/124/41 255/123/41 257/123/41 258/124/41 
f 239/117/26 238/116/26 259/121/26 257/123/26 
f 239/117/43 257/123/43 255/123/43 253/123/43 
f 239/117/26 253/123/26 251/121/26 249/116/26 
f 239/117/26 249/116/26 247/117/26 245/119/26 
f 239/117/26 245/119/26 243/119/26 241/119/26 
f 258/124/44 257/123/44 259/121/44 260/122/44 
f 260/122/45 259/121/45 238/116/45 237/115/45 
f 237/115/47 240/118/47 242/120/47 244/120/47 
f 237/115/25 244/120/25 246/120/25 248/118/25 
f 237/115/47 248/118/47 250/115/47 252/122/47 
f 237/115/46 252/122/46 254/124/46 256/124/46 
f 237/115/46 256/124/46 258/124/46 260/122/46 
f 261/125/23 262/125/23 263/126/23 264/126/23 
s 1
f 265/127/14 266/128/14 267/129/14 268/130/14 
s off
f 266/128/27 269/128/27 270/129/27 267/129/27 
s 1
f 271/127/11 261/125/11 264/126/11 272/130/11 
s off
f 272/130/57 268/130/57 267/129/57 270/129/57 
f 271/127/58 265/127/58 262/125/58 261/125/58 
f 269/128/59 266/128/59 265/127/59 271/127/59 
f 264/126/60 263/126/60 268/130/60 272/130/60 
s 1
f 269/128/11 271/127/11 272/130/11 270/129/11 
f 262/125/14 265/127/14 268/130/14 263/126/14 
s off
f 273/131/23 274/131/23 275/132/23 276/132/23 
f 274/131/15 277/133/15 278/134/15 275/132/15 
f 277/133/27 279/133/27 280/134/27 278/134/27 
f 279/133/18 273/131/18 276/132/18 280/134/18 
f 276/132/25 275/132/25 278/134/25 280/134/25 
f 279/133/26 277/133/26 274/131/26 273/131/26 
f 281/135/1 282/135/1 283/136/1 284/136/1 
f 284/136/2 283/136/2 285/137/2 286/137/2 
f 286/137/22 285/137/22 287/138/22 288/138/22 
f 288/138/16 287/138/16 289/139/16 290/139/16 
f 290/139/5 289/139/5 291/140/5 292/140/5 
f 292/140/6 291/140/6 293/141/6 294/141/6 
f 294/141/7 293/141/7 295/142/7 296/142/7 
f 296/142/8 295/142/8 297/143/8 298/143/8 
f 298/143/9 297/143/9 299/144/9 300/144/9 
f 300/144/52 299/144/52 301/145/52 302/145/52 
s 1
f 285/137/11 283/136/17 303/146/17 304/147/11 
s off
f 302/145/12 301/145/12 305/148/12 306/148/12 
f 306/148/13 305/148/13 282/135/13 281/135/13 
f 281/135/61 284/136/61 286/137/61 288/138/61 
f 281/135/14 288/138/14 290/139/14 292/140/14 
f 281/135/14 292/140/14 294/141/14 296/142/14 
f 281/135/53 296/142/53 298/143/53 300/144/53 
f 281/135/14 300/144/14 302/145/14 306/148/14 
f 307/149/16 308/150/16 309/150/16 310/149/16 
s 1
f 301/145/18 299/144/18 311/151/18 312/152/11 
f 299/144/18 297/143/50 313/153/50 311/151/18 
s 2
f 297/143/11 295/142/11 314/154/11 313/153/11 
f 295/142/11 293/141/11 315/155/11 314/154/11 
s off
f 293/141/11 291/140/11 316/156/11 315/155/11 
f 291/140/11 289/139/11 307/149/11 316/156/11 
s 1
f 289/139/11 287/138/11 308/150/11 307/149/11 
s 2
f 282/135/11 305/148/11 317/157/11 318/158/11 
s 1
f 283/136/17 282/135/11 318/158/11 303/146/17 
f 287/138/11 285/137/11 304/147/11 308/150/11 
s 2
f 305/148/11 301/145/18 312/152/11 317/157/11 
s off
f 319/146/17 320/158/17 321/157/17 322/152/17 
f 319/146/11 322/152/11 323/151/11 324/153/11 
f 319/146/11 324/153/11 325/154/11 326/155/11 
f 319/146/11 326/155/11 327/156/11 310/149/11 
f 319/146/11 310/149/11 309/150/11 328/147/11 
f 317/157/12 312/152/12 322/152/12 321/157/12 
f 303/146/20 318/158/20 320/158/20 319/146/20 
f 313/153/8 314/154/8 325/154/8 324/153/8 
f 316/156/5 307/149/5 310/149/5 327/156/5 
f 318/158/13 317/157/13 321/157/13 320/158/13 
f 304/147/54 303/146/54 319/146/54 328/147/54 
f 311/151/9 313/153/9 324/153/9 323/151/9 
f 315/155/6 316/156/6 327/156/6 326/155/6 
f 308/150/22 304/147/22 328/147/22 309/150/22 
f 312/152/10 311/151/10 323/151/10 322/152/10 
f 314/154/7 315/155/7 326/155/7 325/154/7 
f 329/57/21 330/57/21 331/70/21 332/70/21 
f 332/70/19 331/70/19 333/67/19 334/67/19 
f 334/67/10 333/67/10 335/66/10 336/66/10 
f 336/66/9 335/66/9 337/65/9 338/65/9 
f 338/65/8 337/65/8 339/64/8 340/64/8 
f 340/64/7 339/64/7 341/63/7 342/63/7 
f 342/63/6 341/63/6 343/62/6 344/62/6 
f 344/62/5 343/62/5 345/61/5 346/61/5 
f 346/61/16 345/61/16 347/60/16 348/60/16 
f 348/60/22 347/60/22 349/59/22 350/59/22 
s 1
f 333/67/14 331/70/14 351/79/14 352/74/53 
s off
f 350/59/2 349/59/2 353/58/2 354/58/2 
f 354/58/1 353/58/1 330/57/1 329/57/1 
f 329/57/11 332/70/11 334/67/11 336/66/11 
f 329/57/50 336/66/50 338/65/50 340/64/50 
f 329/57/11 340/64/11 342/63/11 344/62/11 
f 329/57/17 344/62/17 346/61/17 348/60/17 
f 329/57/18 348/60/18 350/59/18 354/58/18 
f 355/75/9 356/159/9 357/159/9 358/75/9 
s 2
f 349/59/14 347/60/53 359/72/53 360/69/15 
f 347/60/53 345/61/53 361/71/53 359/72/53 
f 345/61/53 343/62/53 362/78/53 361/71/53 
f 343/62/53 341/63/15 363/77/53 362/78/53 
s 1
f 341/63/14 339/64/53 364/76/53 363/77/61 
f 339/64/53 337/65/53 355/75/53 364/76/53 
f 337/65/53 335/66/53 356/159/53 355/75/53 
s 2
f 330/57/15 353/58/15 365/68/15 366/80/15 
s 1
f 331/70/14 330/57/14 366/80/14 351/79/14 
f 335/66/53 333/67/14 352/74/53 356/159/53 
s 2
f 353/58/15 349/59/14 360/69/15 365/68/15 
s off
f 367/79/61 368/80/61 369/68/61 370/69/61 
f 367/79/53 370/69/53 371/72/53 372/71/53 
f 367/79/15 372/71/15 373/78/15 374/77/15 
f 367/79/14 374/77/14 375/76/14 358/75/14 
f 367/79/53 358/75/53 357/159/53 376/74/53 
f 365/68/2 360/69/2 370/69/2 369/68/2 
f 351/79/13 366/80/13 368/80/13 367/79/13 
f 361/71/5 362/78/5 373/78/5 372/71/5 
f 364/76/8 355/75/8 358/75/8 375/76/8 
f 366/80/1 365/68/1 369/68/1 368/80/1 
f 352/74/12 351/79/12 367/79/12 376/74/12 
f 359/72/16 361/71/16 372/71/16 371/72/16 
f 363/77/48 364/76/48 375/76/48 374/77/48 
f 356/159/10 352/74/10 376/74/10 357/159/10 
f 360/69/22 359/72/22 371/72/22 370/69/22 
f 362/78/62 363/77/62 374/77/62 373/78/62 
f 377/27/24 378/27/24 379/28/24 380/28/24 
f 378/27/18 381/160/18 382/161/18 379/28/18 
f 381/160/23 383/160/23 384/161/23 382/161/23 
f 383/160/15 377/27/15 380/28/15 384/161/15 
f 380/28/25 379/28/25 382/161/25 384/161/25 
f 383/160/56 381/160/56 378/27/56 377/27/56 
f 385/32/27 386/32/27 387/33/27 388/33/27 
s 1
f 389/31/50 390/29/11 391/30/11 392/34/50 
s off
f 390/29/23 393/29/23 394/30/23 391/30/23 
s 1
f 395/31/53 385/32/53 388/33/53 396/34/53 
s off
f 396/34/31 392/34/31 391/30/31 394/30/31 
f 395/31/59 389/31/59 386/32/59 385/32/59 
f 393/29/58 390/29/58 389/31/58 395/31/58 
f 388/33/28 387/33/28 392/34/28 396/34/28 
s 1
f 393/29/53 395/31/53 396/34/53 394/30/53 
f 386/32/50 389/31/50 392/34/50 387/33/50 
s off
f 397/45/38 398/46/38 399/53/38 400/54/38 
f 400/54/39 399/53/39 401/162/39 402/163/39 
f 402/163/40 401/162/40 403/55/40 404/56/40 
f 404/56/41 403/55/41 405/162/41 406/163/41 
f 406/163/44 405/162/44 407/53/44 408/54/44 
f 408/54/45 407/53/45 409/46/45 410/45/45 
f 410/45/32 409/46/32 411/49/32 412/50/32 
f 412/50/33 411/49/33 413/51/33 414/52/33 
f 414/52/34 413/51/34 415/51/34 416/52/34 
f 416/52/35 415/51/35 417/51/35 418/52/35 
f 399/53/26 398/46/26 419/49/26 417/51/26 
f 399/53/26 417/51/26 415/51/26 413/51/26 
f 399/53/26 413/51/26 411/49/26 409/46/26 
f 399/53/26 409/46/26 407/53/26 405/162/26 
f 399/53/26 405/162/26 403/55/26 401/162/26 
f 418/52/36 417/51/36 419/49/36 420/50/36 
f 420/50/37 419/49/37 398/46/37 397/45/37 
f 397/45/46 400/54/46 402/163/46 404/56/46 
f 397/45/46 404/56/46 406/163/46 408/54/46 
f 397/45/46 408/54/46 410/45/46 412/50/46 
f 397/45/47 412/50/47 414/52/47 416/52/47 
f 397/45/47 416/52/47 418/52/47 420/50/47 
f 421/35/38 422/36/38 423/41/38 424/42/38 
f 424/42/39 423/41/39 425/43/39 426/44/39 
f 426/44/40 425/43/40 427/43/40 428/44/40 
f 428/44/41 427/43/41 429/43/41 430/44/41 
f 430/44/44 429/43/44 431/41/44 432/42/44 
f 432/42/45 431/41/45 433/36/45 434/35/45 
f 434/35/32 433/36/32 435/37/32 436/38/32 
f 436/38/33 435/37/33 437/39/33 438/40/33 
f 438/40/34 437/39/34 439/164/34 440/165/34 
f 440/165/35 439/164/35 441/39/35 442/40/35 
f 423/41/43 422/36/43 443/37/43 441/39/43 
f 423/41/43 441/39/43 439/164/43 437/39/43 
f 423/41/56 437/39/56 435/37/56 433/36/56 
f 423/41/43 433/36/43 431/41/43 429/43/43 
f 423/41/26 429/43/26 427/43/26 425/43/26 
f 442/40/36 441/39/36 443/37/36 444/38/36 
f 444/38/37 443/37/37 422/36/37 421/35/37 
f 421/35/46 424/42/46 426/44/46 428/44/46 
f 421/35/63 428/44/63 430/44/63 432/42/63 
f 421/35/47 432/42/47 434/35/47 436/38/47 
f 421/35/46 436/38/46 438/40/46 440/165/46 
f 421/35/46 440/165/46 442/40/46 444/38/46 
f 445/1/13 446/1/13 447/14/13 448/14/13 
f 448/14/12 447/14/12 449/11/12 450/11/12 
f 450/11/10 449/11/10 451/10/10 452/10/10 
f 452/10/9 451/10/9 453/9/9 454/9/9 
f 454/9/8 453/9/8 455/8/8 456/8/8 
f 456/8/7 455/8/7 457/7/7 458/7/7 
f 458/7/6 457/7/6 459/166/6 460/166/6 
f 460/166/5 459/166/5 461/167/5 462/167/5 
f 462/167/16 461/167/16 463/168/16 464/168/16 
f 464/168/22 463/168/22 465/169/22 466/169/22 
s 1
f 449/11/53 447/14/15 467/170/15 468/18/53 
s off
f 466/169/2 465/169/2 469/171/2 470/171/2 
f 470/171/1 469/171/1 446/1/1 445/1/1 
f 445/1/50 448/14/50 450/11/50 452/10/50 
f 445/1/18 452/10/18 454/9/18 456/8/18 
f 445/1/50 456/8/50 458/7/50 460/166/50 
f 445/1/11 460/166/11 462/167/11 464/168/11 
f 445/1/11 464/168/11 466/169/11 470/171/11 
f 471/19/9 472/172/9 473/172/9 474/19/9 
s 1
f 465/169/53 463/168/53 475/16/53 476/13/53 
f 463/168/53 461/167/53 477/15/53 475/16/53 
f 461/167/53 459/166/53 478/22/53 477/15/53 
f 459/166/53 457/7/53 479/21/53 478/22/53 
s 3
f 457/7/53 455/8/53 480/173/53 479/21/53 
s 2
f 455/8/53 453/9/53 471/19/53 480/173/53 
s 1
f 453/9/53 451/10/53 472/172/53 471/19/53 
f 446/1/53 469/171/53 481/12/53 482/24/15 
f 447/14/15 446/1/53 482/24/15 467/170/15 
f 451/10/53 449/11/53 468/18/53 472/172/53 
f 469/171/53 465/169/53 476/13/53 481/12/53 
s off
f 483/170/15 484/24/15 485/12/15 486/13/15 
f 483/170/53 486/13/53 487/16/53 488/15/53 
f 483/170/53 488/15/53 489/22/53 490/21/53 
f 483/170/53 490/21/53 491/173/53 474/19/53 
f 483/170/61 474/19/61 473/172/61 492/18/61 
f 481/12/2 476/13/2 486/13/2 485/12/2 
f 467/170/13 482/24/13 484/24/13 483/170/13 
f 477/15/5 478/22/5 489/22/5 488/15/5 
f 480/173/8 471/19/8 474/19/8 491/173/8 
f 482/24/1 481/12/1 485/12/1 484/24/1 
f 468/18/12 467/170/12 483/170/12 492/18/12 
f 475/16/16 477/15/16 488/15/16 487/16/16 
f 479/21/7 480/173/7 491/173/7 490/21/7 
f 472/172/10 468/18/10 492/18/10 473/172/10 
f 476/13/22 475/16/22 487/16/22 486/13/22 
f 478/22/6 479/21/6 490/21/6 489/22/6 
f 493/135/13 494/135/13 495/148/13 496/148/13 
f 496/148/12 495/148/12 497/145/12 498/145/12 
f 498/145/10 497/145/10 499/144/10 500/144/10 
f 500/144/9 499/144/9 501/143/9 502/143/9 
f 502/143/8 501/143/8 503/142/8 504/142/8 
f 504/142/7 503/142/7 505/141/7 506/141/7 
f 506/141/6 505/141/6 507/174/6 508/174/6 
f 508/174/5 507/174/5 509/175/5 510/175/5 
f 510/175/16 509/175/16 511/176/16 512/176/16 
f 512/176/22 511/176/22 513/177/22 514/177/22 
s 1
f 497/145/53 495/148/15 515/178/15 516/152/53 
s off
f 514/177/54 513/177/54 517/179/54 518/179/54 
f 518/179/20 517/179/20 494/135/20 493/135/20 
f 493/135/18 496/148/18 498/145/18 500/144/18 
f 493/135/18 500/144/18 502/143/18 504/142/18 
f 493/135/18 504/142/18 506/141/18 508/174/18 
f 493/135/11 508/174/11 510/175/11 512/176/11 
f 493/135/11 512/176/11 514/177/11 518/179/11 
f 519/153/51 520/180/51 521/180/51 522/153/51 
s 2
f 513/177/14 511/176/53 523/150/53 524/147/14 
f 511/176/53 509/175/61 525/149/61 523/150/53 
f 509/175/61 507/174/61 526/156/61 525/149/61 
f 507/174/61 505/141/53 527/155/53 526/156/61 
f 505/141/53 503/142/53 528/181/53 527/155/53 
s off
f 503/142/15 501/143/15 519/153/15 528/181/15 
s 1
f 501/143/15 499/144/53 520/180/53 519/153/15 
s 2
f 494/135/14 517/179/15 529/146/15 530/158/14 
f 495/148/14 494/135/14 530/158/14 515/178/14 
s 1
f 499/144/53 497/145/53 516/152/53 520/180/53 
s 2
f 517/179/15 513/177/14 524/147/14 529/146/15 
s off
f 531/178/53 532/158/53 533/146/53 534/147/53 
f 531/178/53 534/147/53 535/150/53 536/149/53 
f 531/178/61 536/149/61 537/156/61 538/155/61 
f 531/178/61 538/155/61 539/181/61 522/153/61 
f 531/178/14 522/153/14 521/180/14 540/152/14 
f 529/146/2 524/147/2 534/147/2 533/146/2 
f 515/178/13 530/158/13 532/158/13 531/178/13 
f 525/149/5 526/156/5 537/156/5 536/149/5 
f 528/181/49 519/153/49 522/153/49 539/181/49 
f 530/158/1 529/146/1 533/146/1 532/158/1 
f 516/152/19 515/178/19 531/178/19 540/152/19 
f 523/150/16 525/149/16 536/149/16 535/150/16 
f 527/155/7 528/181/7 539/181/7 538/155/7 
f 520/180/52 516/152/52 540/152/52 521/180/52 
f 524/147/22 523/150/22 535/150/22 534/147/22 
f 526/156/6 527/155/6 538/155/6 537/156/6 
f 541/115/38 542/116/38 543/121/38 544/122/38 
f 544/122/39 543/121/39 545/123/39 546/124/39 
f 546/124/40 545/123/40 547/123/40 548/124/40 
f 548/124/41 547/123/41 549/123/41 550/124/41 
f 550/124/44 549/123/44 551/121/44 552/122/44 
f 552/122/45 551/121/45 553/116/45 554/115/45 
f 554/115/32 553/116/32 555/117/32 556/118/32 
f 556/118/33 555/117/33 557/119/33 558/120/33 
f 558/120/34 557/119/34 559/182/34 560/183/34 
f 560/183/35 559/182/35 561/119/35 562/120/35 
f 543/121/26 542/116/26 563/117/26 561/119/26 
f 543/121/43 561/119/43 559/182/43 557/119/43 
f 543/121/26 557/119/26 555/117/26 553/116/26 
f 543/121/26 553/116/26 551/121/26 549/123/26 
f 543/121/26 549/123/26 547/123/26 545/123/26 
f 562/120/36 561/119/36 563/117/36 564/118/36 
f 564/118/37 563/117/37 542/116/37 541/115/37 
f 541/115/46 544/122/46 546/124/46 548/124/46 
f 541/115/46 548/124/46 550/124/46 552/122/46 
f 541/115/47 552/122/47 554/115/47 556/118/47 
f 541/115/47 556/118/47 558/120/47 560/183/47 
f 541/115/25 560/183/25 562/120/25 564/118/25 
f 565/105/38 566/106/38 567/111/38 568/112/38 
f 568/112/39 567/111/39 569/184/39 570/185/39 
f 570/185/40 569/184/40 571/113/40 572/114/40 
f 572/114/41 571/113/41 573/184/41 574/185/41 
f 574/185/44 573/184/44 575/111/44 576/112/44 
f 576/112/45 575/111/45 577/106/45 578/105/45 
f 578/105/32 577/106/32 579/186/32 580/187/32 
f 580/187/33 579/186/33 581/109/33 582/110/33 
f 582/110/34 581/109/34 583/109/34 584/110/34 
f 584/110/35 583/109/35 585/109/35 586/110/35 
f 567/111/42 566/106/42 587/186/42 585/109/42 
f 567/111/43 585/109/43 583/109/43 581/109/43 
f 567/111/43 581/109/43 579/186/43 577/106/43 
f 567/111/26 577/106/26 575/111/26 573/184/26 
f 567/111/26 573/184/26 571/113/26 569/184/26 
f 586/110/36 585/109/36 587/186/36 588/187/36 
f 588/187/37 587/186/37 566/106/37 565/105/37 
f 565/105/47 568/112/47 570/185/47 572/114/47 
f 565/105/46 572/114/46 574/185/46 576/112/46 
f 565/105/46 576/112/46 578/105/46 580/187/46 
f 565/105/46 580/187/46 582/110/46 584/110/46 
f 565/105/46 584/110/46 586/110/46 588/187/46 
f 589/128/27 590/128/27 591/129/27 592/129/27 
s 1
f 593/127/50 594/125/50 595/126/50 596/130/50 
s off
f 594/125/23 597/125/23 598/126/23 595/126/23 
s 1
f 599/127/53 589/128/53 592/129/53 600/130/53 
s off
f 600/130/31 596/130/31 595/126/31 598/126/31 
f 599/127/59 593/127/59 590/128/59 589/128/59 
f 597/125/58 594/125/58 593/127/58 599/127/58 
f 592/129/28 591/129/28 596/130/28 600/130/28 
s 1
f 597/125/53 599/127/53 600/130/53 598/126/53 
f 590/128/11 593/127/50 596/130/50 591/129/11 
s off
f 601/133/27 602/133/27 603/134/27 604/134/27 
f 602/133/18 605/188/18 606/189/18 603/134/18 
f 605/188/23 607/188/23 608/189/23 606/189/23 
f 607/188/53 601/133/53 604/134/53 608/189/53 
f 604/134/25 603/134/25 606/189/25 608/189/25 
f 607/188/26 605/188/26 602/133/26 601/133/26 
f 609/81/21 610/81/21 611/94/21 612/94/21 
f 612/94/19 611/94/19 613/91/19 614/91/19 
f 614/91/10 613/91/10 615/90/10 616/90/10 
f 616/90/51 615/90/51 617/89/51 618/89/51 
f 618/89/8 617/89/8 619/88/8 620/88/8 
f 620/88/7 619/88/7 621/87/7 622/87/7 
f 622/87/6 621/87/6 623/86/6 624/86/6 
f 624/86/5 623/86/5 625/85/5 626/85/5 
f 626/85/16 625/85/16 627/84/16 628/84/16 
f 628/84/3 627/84/3 629/83/3 630/83/3 
f 613/91/14 611/94/14 631/103/14 632/98/14 
f 630/83/54 629/83/54 633/82/54 634/82/54 
f 634/82/1 633/82/1 610/81/1 609/81/1 
f 609/81/50 612/94/50 614/91/50 616/90/50 
f 609/81/50 616/90/50 618/89/50 620/88/50 
f 609/81/50 620/88/50 622/87/50 624/86/50 
f 609/81/17 624/86/17 626/85/17 628/84/17 
f 609/81/11 628/84/11 630/83/11 634/82/11 
f 635/99/51 636/190/51 637/190/51 638/99/51 
f 629/83/53 627/84/53 639/96/53 640/93/53 
s 1
f 627/84/53 625/85/53 641/95/53 639/96/53 
f 625/85/53 623/86/53 642/102/53 641/95/53 
f 623/86/53 621/87/53 643/101/53 642/102/53 
f 621/87/53 619/88/53 644/100/53 643/101/53 
f 619/88/53 617/89/53 635/99/53 644/100/53 
f 617/89/53 615/90/61 636/190/53 635/99/53 
s off
f 610/81/15 633/82/15 645/92/15 646/104/15 
f 611/94/15 610/81/15 646/104/15 631/103/15 
s 1
f 615/90/61 613/91/61 632/98/61 636/190/53 
s off
f 633/82/15 629/83/15 640/93/15 645/92/15 
f 647/103/53 648/104/53 649/92/53 650/93/53 
f 647/103/53 650/93/53 651/96/53 652/95/53 
f 647/103/61 652/95/61 653/102/61 654/101/61 
f 647/103/53 654/101/53 655/100/53 638/99/53 
f 647/103/53 638/99/53 637/190/53 656/98/53 
f 645/92/2 640/93/2 650/93/2 649/92/2 
f 631/103/13 646/104/13 648/104/13 647/103/13 
f 641/95/5 642/102/5 653/102/5 652/95/5 
f 644/100/49 635/99/49 638/99/49 655/100/49 
f 646/104/1 645/92/1 649/92/1 648/104/1 
f 632/98/19 631/103/19 647/103/19 656/98/19 
f 639/96/16 641/95/16 652/95/16 651/96/16 
f 643/101/7 644/100/7 655/100/7 654/101/7 
f 636/190/10 632/98/10 656/98/10 637/190/10 
f 640/93/22 639/96/22 651/96/22 650/93/22 
f 642/102/6 643/101/6 654/101/6 653/102/6 
f 657/191/23 658/192/23 659/193/23 660/194/23 
f 658/191/14 661/192/14 662/193/14 659/194/14 
f 661/191/64 663/192/64 664/193/64 662/194/64 
f 663/191/11 657/192/11 660/193/11 664/194/11 
f 660/191/63 659/192/63 662/193/63 664/194/63 
f 663/191/43 661/192/43 658/193/43 657/194/43 
f 665/191/27 666/192/27 667/193/27 668/194/27 
f 666/191/17 669/192/17 670/193/17 667/194/17 
f 669/191/65 671/192/65 672/193/65 670/194/65 
f 671/191/61 665/192/61 668/193/61 672/194/61 
f 668/191/63 667/192/63 670/193/63 672/194/63 
f 671/191/56 669/192/56 666/193/56 665/194/56 
f 673/191/66 674/192/66 675/193/66 676/194/66 
f 674/191/50 677/192/50 678/193/50 675/194/50 
f 677/191/67 679/192/67 680/193/67 678/194/67 
f 679/191/15 673/192/15 676/193/15 680/194/15 
f 676/191/63 675/192/63 678/193/63 680/194/63 
f 679/191/56 677/192/56 674/193/56 673/194/56 
s 1
f 681/191/27 682/192/27 683/193/27 684/194/27 
s 2
f 682/191/18 685/192/18 686/193/18 683/194/18 
s 1
f 685/191/23 687/192/23 688/193/23 686/194/23 
s 2
f 687/191/15 681/192/15 684/193/15 688/194/15 
s off
f 684/191/46 683/192/46 686/193/46 688/194/46 
s 4
f 689/195/43 690/196/42 691/197/42 692/198/43 
f 692/199/43 691/200/42 693/201/56 694/202/42 
f 695/195/56 696/196/42 694/197/42 693/198/56 
f 696/195/42 689/196/43 692/197/43 694/198/42 
f 690/195/42 695/196/56 693/197/56 691/198/42 
s 2
f 689/195/53 696/196/53 681/197/15 687/198/15 
s 1
f 690/195/23 689/196/23 687/197/23 685/198/23 
s 2
f 695/195/50 690/196/50 685/197/18 682/198/18 
s 1
f 696/195/27 695/196/27 682/197/27 681/198/27 
s off
f 697/203/23 698/203/23 699/204/23 700/204/23 
f 698/203/14 701/205/14 702/206/14 699/204/14 
f 701/205/27 703/205/27 704/206/27 702/206/27 
f 703/205/11 697/203/11 700/204/11 704/206/11 
f 700/204/25 699/204/25 702/206/25 704/206/25 
f 703/205/26 701/205/26 698/203/26 697/203/26 
f 705/207/23 706/207/23 707/208/23 708/208/23 
f 709/209/11 710/210/11 705/207/11 708/208/11 
f 711/211/11 709/209/11 708/208/11 712/212/11 
f 713/213/11 711/211/11 712/212/11 714/214/11 
f 715/210/26 706/207/26 705/207/26 710/210/26 
f 716/211/14 717/213/14 718/214/14 719/212/14 
f 720/209/14 716/211/14 719/212/14 707/208/14 
f 715/210/14 720/209/14 707/208/14 706/207/14 
f 708/208/47 707/208/47 719/212/47 712/212/47 
f 718/214/27 714/214/27 712/212/27 719/212/27 
f 714/214/43 718/214/43 717/213/43 713/213/43 
f 720/209/27 715/210/27 710/210/27 709/209/27 
f 709/209/43 711/211/43 716/211/43 720/209/43 
f 711/211/23 713/213/23 717/213/23 716/211/23 
f 721/203/27 722/203/27 723/204/27 724/204/27 
f 722/203/26 725/205/26 726/206/26 723/204/26 
f 725/205/23 727/205/23 728/206/23 726/206/23 
f 727/205/47 721/203/47 724/204/47 728/206/47 
f 724/204/11 723/204/11 726/206/11 728/206/11 
f 727/205/14 725/205/14 722/203/14 721/203/14 
f 729/207/27 730/207/27 731/208/27 732/208/27 
f 733/209/46 734/210/46 729/207/46 732/208/46 
f 735/211/47 733/209/47 732/208/47 736/212/47 
f 737/213/47 735/211/47 736/212/47 738/214/47 
f 739/210/61 730/207/61 729/207/61 734/210/61 
f 740/211/42 741/213/42 742/214/42 743/212/42 
f 744/209/56 740/211/56 743/212/56 731/208/56 
f 739/210/56 744/209/56 731/208/56 730/207/56 
f 732/208/11 731/208/11 743/212/11 736/212/11 
f 742/214/68 738/214/68 736/212/68 743/212/68 
f 738/214/14 742/214/14 741/213/14 737/213/14 
f 744/209/23 739/210/23 734/210/23 733/209/23 
f 733/209/14 735/211/14 740/211/14 744/209/14 
f 735/211/27 737/213/27 741/213/27 740/211/27 
f 745/203/27 746/203/27 747/204/27 748/204/27 
f 746/203/46 749/205/46 750/206/46 747/204/46 
f 749/205/23 751/205/23 752/206/23 750/206/23 
f 751/205/56 745/203/56 748/204/56 752/206/56 
f 748/204/61 747/204/61 750/206/61 752/206/61 
f 751/205/17 749/205/17 746/203/17 745/203/17 
f 753/207/27 754/207/27 755/208/27 756/208/27 
f 757/209/26 758/210/26 753/207/26 756/208/26 
f 759/211/56 757/209/56 756/208/56 760/212/56 
f 761/213/26 759/211/26 760/212/26 762/214/26 
f 763/210/11 754/207/11 753/207/11 758/210/11 
f 764/211/46 765/213/46 766/214/46 767/212/46 
f 768/209/63 764/211/63 767/212/63 755/208/63 
f 763/210/63 768/209/63 755/208/63 754/207/63 
f 756/208/14 755/208/14 767/212/14 760/212/14 
f 766/214/23 762/214/23 760/212/23 767/212/23 
f 762/214/11 766/214/11 765/213/11 761/213/11 
f 768/209/23 763/210/23 758/210/23 757/209/23 
f 757/209/17 759/211/17 764/211/17 768/209/17 
f 759/211/27 761/213/27 765/213/27 764/211/27 
f 769/215/69 770/216/69 771/217/69 772/218/69 
f 772/218/70 771/217/70 773/219/70 774/220/70 
f 774/220/71 773/219/71 775/221/71 776/222/71 
f 776/222/63 775/221/63 777/221/63 778/222/63 
f 778/222/72 777/221/72 779/219/72 780/220/72 
f 780/220/73 779/219/73 781/217/73 782/218/73 
f 782/218/74 781/217/74 783/216/74 784/215/74 
f 784/215/75 783/216/75 785/223/75 786/224/75 
f 786/224/76 785/223/76 787/225/76 788/226/76 
f 788/226/77 787/225/77 789/227/77 790/228/77 
f 790/228/26 789/227/26 791/227/26 792/228/26 
f 792/228/78 791/227/78 793/225/78 794/226/78 
f 771/229/23 770/230/23 795/231/23 793/232/23 
f 771/229/23 793/232/23 791/233/23 789/234/23 
f 771/229/23 789/234/23 787/235/23 785/236/23 
f 771/229/23 785/236/23 783/237/23 781/238/23 
f 771/229/23 781/238/23 779/239/23 777/240/23 
f 771/229/23 777/240/23 775/241/23 773/242/23 
f 794/226/79 793/225/79 795/223/79 796/224/79 
f 796/224/80 795/223/80 770/216/80 769/215/80 
f 769/230/27 772/229/27 774/242/27 776/241/27 
f 769/230/27 776/241/27 778/240/27 780/239/27 
f 769/230/27 780/239/27 782/238/27 784/237/27 
f 769/230/27 784/237/27 786/236/27 788/235/27 
f 769/230/27 788/235/27 790/234/27 792/233/27 
f 769/230/27 792/233/27 794/232/27 796/231/27 
s 1
f 797/243/81 798/244/27 799/245/27 800/246/27 
f 801/244/82 802/243/83 803/246/83 804/245/83 
s off
f 799/245/46 804/245/46 803/246/46 800/246/46 
s 1
f 798/244/27 797/243/81 805/247/27 806/248/27 
f 798/244/27 806/248/27 807/249/27 808/250/84 
f 798/244/27 808/250/84 809/251/84 810/252/84 
f 802/243/83 801/244/82 811/252/82 812/251/83 
f 802/243/83 812/251/83 813/250/83 814/249/23 
f 802/243/83 814/249/23 815/248/23 816/247/23 
s off
f 802/243/85 797/243/85 800/246/85 803/246/85 
f 797/243/86 802/243/86 816/247/86 805/247/86 
f 805/247/76 816/247/76 815/248/76 806/248/76 
f 806/248/77 815/248/77 814/249/77 807/249/77 
f 807/249/26 814/249/26 813/250/26 808/250/26 
f 808/250/78 813/250/78 812/251/78 809/251/78 
f 798/244/87 801/244/87 804/245/87 799/245/87 
f 809/251/79 812/251/79 811/252/79 810/252/79 
f 810/252/80 811/252/80 801/244/80 798/244/80 
s 1
f 817/243/81 818/244/24 819/245/27 820/246/27 
f 821/244/82 822/243/83 823/246/23 824/245/23 
s off
f 819/245/63 824/245/63 823/246/63 820/246/63 
s 1
f 818/244/24 817/243/81 825/247/81 826/248/27 
f 818/244/24 826/248/27 827/249/27 828/250/84 
f 818/244/24 828/250/84 829/251/84 830/252/84 
f 822/243/83 821/244/82 831/252/68 832/251/23 
f 822/243/83 832/251/23 833/250/23 834/249/82 
f 822/243/83 834/249/82 835/248/82 836/247/82 
s off
f 822/243/85 817/243/85 820/246/85 823/246/85 
f 817/243/86 822/243/86 836/247/86 825/247/86 
f 825/247/76 836/247/76 835/248/76 826/248/76 
f 826/248/77 835/248/77 834/249/77 827/249/77 
f 827/249/43 834/249/43 833/250/43 828/250/43 
f 828/250/88 833/250/88 832/251/88 829/251/88 
f 818/244/87 821/244/87 824/245/87 819/245/87 
f 829/251/79 832/251/79 831/252/79 830/252/79 
f 830/252/80 831/252/80 821/244/80 818/244/80 
f 837/253/38 838/254/38 839/255/38 840/256/38 
f 840/256/39 839/255/39 841/257/39 842/258/39 
f 842/258/40 841/257/40 843/259/40 844/260/40 
f 844/260/41 843/259/41 845/257/41 846/258/41 
f 846/258/89 845/257/89 847/255/89 848/256/89 
f 848/256/90 847/255/90 849/254/90 850/253/90 
f 850/253/32 849/254/32 851/261/32 852/262/32 
f 852/262/33 851/261/33 853/263/33 854/264/33 
f 854/264/34 853/263/34 855/265/34 856/266/34 
f 856/266/35 855/265/35 857/263/35 858/264/35 
f 839/255/26 838/254/26 859/261/26 857/263/26 
f 839/255/26 857/263/26 855/265/26 853/263/26 
f 839/255/56 853/263/56 851/261/56 849/254/56 
f 839/255/56 849/254/56 847/255/56 845/257/56 
f 839/255/56 845/257/56 843/259/56 841/257/56 
f 858/264/91 857/263/91 859/261/91 860/262/91 
f 860/262/92 859/261/92 838/254/92 837/253/92 
# 779 polygons

