# 3ds Max Wavefront OBJ Exporter v0.97b - (c)2007 guruware
# File Created: 15.03.2017 11:57:55

mtllib SPW_Vehicle_Train_Freight Train_Trailer_04.mtl

#
# object SPW_Vehicle_Train_Freight_Train_Trailer_04
#

v  3.7773 16.9806 250.0182
v  3.7773 33.5849 250.0182
v  -12.4071 33.5849 250.0182
v  -12.4071 16.9806 250.0182
v  3.7774 33.5849 243.9801
v  -12.4071 33.5849 243.9801
v  3.7774 16.9806 243.9801
v  -12.4071 16.9806 243.9801
v  0.1282 21.2525 264.8249
v  0.1282 29.3130 264.8249
v  -8.8697 29.3130 264.8249
v  -8.8697 21.2525 264.8249
v  -5.3976 21.2525 260.0986
v  0.1282 21.2525 260.0986
v  -5.3976 21.2525 254.1173
v  -8.8697 21.2525 239.7754
v  4.6727 21.2525 254.1173
v  4.6727 21.2525 239.7754
v  0.1282 29.3130 260.0986
v  -5.3976 29.3130 254.1173
v  4.6727 29.3130 254.1173
v  4.6727 29.3130 239.7754
v  -8.8697 29.3130 239.7753
v  -5.3976 29.3130 260.0986
v  0.4452 33.5849 250.0182
v  0.4452 16.9806 250.0182
v  16.6297 16.9806 250.0182
v  16.6297 33.5849 250.0182
v  0.4452 16.9806 240.4248
v  16.6297 16.9806 240.4248
v  0.4452 33.5849 240.4248
v  16.6297 33.5849 240.4248
v  4.0943 29.3130 264.8249
v  4.0943 21.2525 264.8249
v  13.0922 21.2525 264.8249
v  13.0922 29.3130 264.8249
v  9.6202 29.3130 260.0986
v  4.0943 29.3130 260.0986
v  9.6202 29.3130 254.1173
v  13.0922 29.3130 239.7754
v  4.0943 29.3130 254.1173
v  4.0943 29.3130 239.7754
v  4.0943 21.2525 260.0986
v  9.6202 21.2525 254.1173
v  4.0943 21.2525 254.1173
v  4.0943 21.2525 239.7754
v  13.0922 21.2525 239.7754
v  9.6202 21.2525 260.0986
v  -8.3199 33.5596 -251.1676
v  8.2844 33.5596 -251.1676
v  8.2844 17.3752 -251.1676
v  -8.3199 17.3752 -251.1676
v  8.2844 33.5596 -242.7245
v  8.2844 17.3752 -242.7245
v  -8.3199 33.5596 -242.7245
v  -8.3199 17.3752 -242.7245
v  -4.0480 29.9105 -265.9743
v  4.0125 29.9105 -265.9743
v  4.0125 20.9126 -265.9743
v  -4.0480 20.9126 -265.9743
v  -4.0480 24.3847 -261.2480
v  -4.0480 29.9105 -261.2480
v  -4.0480 24.3847 -255.2667
v  -4.0480 20.9126 -240.9248
v  -4.0480 29.9105 -255.2667
v  -4.0480 29.9105 -240.9248
v  4.0125 29.9105 -261.2480
v  4.0125 24.3847 -255.2667
v  4.0125 29.9105 -255.2667
v  4.0125 29.9105 -240.9248
v  4.0125 20.9126 -240.9248
v  4.0125 24.3847 -261.2480
v  -63.9504 30.6497 -243.9868
v  63.9147 30.6497 -243.9868
v  63.9147 9.1086 -243.9868
v  -63.9504 9.1086 -243.9868
v  63.9147 30.6497 -225.0947
v  63.9147 9.1086 -234.5379
v  -63.9504 30.6497 -225.0947
v  -63.9504 9.1086 -234.5379
v  63.9147 30.6496 242.6681
v  -63.9503 30.6496 242.6681
v  -63.9503 9.1085 242.6681
v  63.9147 9.1085 242.6681
v  -63.9503 30.6496 223.7761
v  -63.9503 9.1085 233.2193
v  63.9147 30.6496 223.7760
v  63.9147 9.1085 233.2193
v  63.9147 31.0286 108.8506
v  -63.9503 31.0286 108.8506
v  -63.9503 8.9316 101.5737
v  63.9147 8.9316 101.5737
v  -63.9503 31.0287 -110.6455
v  -63.9503 8.9317 -103.3686
v  63.9147 31.0287 -110.6455
v  63.9147 8.9317 -103.3686
v  67.8956 39.3354 247.1340
v  -67.9312 39.3354 247.1340
v  -67.9312 30.4771 247.1340
v  67.8956 30.4771 247.1340
v  -67.9312 39.3355 -248.9290
v  -67.9312 30.4772 -248.9290
v  67.8956 39.3355 -248.9290
v  67.8956 30.4772 -248.9290
v  67.8956 48.1937 -248.9290
v  -67.9312 48.1937 -248.9290
v  -61.0738 48.1937 -240.7506
v  61.0381 48.1937 -240.7506
v  -61.0738 48.1937 238.9557
v  61.0381 48.1937 238.9557
v  -67.9312 48.1937 247.1340
v  67.8956 48.1937 247.1340
v  -54.1713 34.7024 -208.9157
v  -57.5098 34.7024 -208.9157
v  -57.5098 32.3699 -200.2108
v  -54.1713 32.3699 -200.2108
v  -57.5098 25.9974 -193.8383
v  -54.1713 25.9974 -193.8383
v  -57.5098 17.2925 -191.5059
v  -54.1713 17.2925 -191.5058
v  -57.5098 8.5876 -193.8383
v  -54.1713 8.5876 -193.8383
v  -57.5098 2.2152 -200.2108
v  -54.1713 2.2152 -200.2108
v  -57.5098 -0.1173 -208.9157
v  -54.1713 -0.1173 -208.9157
v  -57.5098 2.2152 -217.6206
v  -54.1713 2.2152 -217.6206
v  -57.5098 8.5876 -223.9930
v  -54.1713 8.5876 -223.9930
v  -57.5098 17.2925 -226.3255
v  -54.1713 17.2925 -226.3255
v  -57.5098 25.9974 -223.9930
v  -54.1713 25.9974 -223.9930
v  -57.5098 28.6148 -202.3788
v  -57.5098 23.8295 -197.5933
v  -57.5098 32.3699 -217.6206
v  -54.1713 32.3699 -217.6206
v  -57.5098 10.7556 -197.5933
v  -57.5098 17.2925 -195.8419
v  -61.7249 17.2925 -195.8419
v  -61.7249 10.7556 -197.5933
v  -57.5098 17.2925 -221.9895
v  -57.5098 23.8295 -220.2380
v  -57.5098 10.7556 -220.2380
v  -57.5098 5.9703 -215.4526
v  -57.5098 4.2187 -208.9157
v  -57.5098 5.9703 -202.3788
v  -57.5098 28.6148 -215.4526
v  -57.5098 30.3664 -208.9157
v  -61.7248 28.6148 -202.3788
v  -61.7248 30.3664 -208.9157
v  -61.7248 28.6148 -215.4526
v  -61.7248 23.8295 -220.2380
v  -61.7248 17.2925 -221.9895
v  -61.7248 10.7556 -220.2380
v  -61.7248 5.9703 -215.4526
v  -61.7248 4.2187 -208.9157
v  -61.7248 5.9703 -202.3788
v  -61.7248 23.8295 -197.5933
v  -63.8804 44.8822 -180.3459
v  -40.2583 44.8822 -180.3459
v  -40.2584 13.3550 -180.3459
v  -63.8804 13.3550 -180.3459
v  -40.2583 44.8822 -156.7239
v  -40.2584 13.3550 -156.7239
v  -63.8804 44.8822 -156.7239
v  -63.8804 13.3550 -156.7239
v  -63.6646 21.9677 -219.3716
v  -57.4413 21.9677 -219.3716
v  -57.4413 11.9425 -219.3716
v  -63.6646 11.9425 -219.3716
v  -57.4413 27.5732 -168.5349
v  -57.4413 21.9677 -117.6982
v  -57.4413 11.9425 -117.6982
v  -57.4413 20.6212 -168.5349
v  -63.6647 21.9677 -117.6982
v  -63.6647 11.9425 -117.6982
v  -63.6647 27.5732 -168.5349
v  -63.6647 20.6212 -168.5349
v  -58.8816 17.2397 -173.8398
v  -58.8816 39.0639 -173.8398
v  -59.3761 39.0639 -171.9943
v  -59.3761 17.2397 -171.9943
v  -60.7270 39.0639 -170.6434
v  -60.7270 17.2397 -170.6434
v  -62.5725 39.0639 -170.1490
v  -62.5725 17.2397 -170.1490
v  -64.4179 39.0639 -170.6434
v  -64.4179 17.2397 -170.6434
v  -65.7688 39.0639 -171.9943
v  -65.7688 17.2397 -171.9943
v  -66.2633 39.0639 -173.8398
v  -66.2633 17.2397 -173.8398
v  -65.7688 39.0639 -175.6852
v  -65.7688 17.2397 -175.6852
v  -64.4179 39.0639 -177.0361
v  -64.4179 17.2397 -177.0361
v  -62.5725 39.0639 -177.5307
v  -62.5725 17.2397 -177.5307
v  -60.7270 39.0639 -177.0361
v  -60.7270 17.2397 -177.0361
v  -59.3761 39.0639 -175.6852
v  -59.3761 17.2397 -175.6852
v  -58.8816 17.2397 -163.1763
v  -58.8816 39.0639 -163.1763
v  -59.3761 39.0639 -161.3309
v  -59.3761 17.2397 -161.3309
v  -60.7270 39.0639 -159.9799
v  -60.7270 17.2397 -159.9799
v  -62.5724 39.0639 -159.4854
v  -62.5724 17.2397 -159.4854
v  -64.4179 39.0639 -159.9799
v  -64.4179 17.2397 -159.9799
v  -65.7688 39.0639 -161.3309
v  -65.7688 17.2397 -161.3309
v  -66.2633 39.0639 -163.1763
v  -66.2633 17.2397 -163.1763
v  -65.7688 39.0639 -165.0217
v  -65.7688 17.2397 -165.0217
v  -64.4179 39.0639 -166.3726
v  -64.4179 17.2397 -166.3726
v  -62.5725 39.0639 -166.8671
v  -62.5725 17.2397 -166.8671
v  -60.7270 39.0639 -166.3726
v  -60.7270 17.2397 -166.3726
v  -59.3761 39.0639 -165.0217
v  -59.3761 17.2397 -165.0217
v  -54.1713 34.7023 -127.6543
v  -57.5098 34.7023 -127.6543
v  -57.5098 32.3699 -118.9493
v  -54.1713 32.3699 -118.9493
v  -57.5098 25.9974 -112.5769
v  -54.1713 25.9974 -112.5769
v  -57.5098 17.2925 -110.2444
v  -54.1713 17.2925 -110.2444
v  -57.5098 8.5876 -112.5769
v  -54.1713 8.5876 -112.5769
v  -57.5098 2.2152 -118.9493
v  -54.1713 2.2152 -118.9493
v  -57.5098 -0.1173 -127.6542
v  -54.1713 -0.1173 -127.6542
v  -57.5098 2.2152 -136.3591
v  -54.1713 2.2152 -136.3591
v  -57.5098 8.5876 -142.7315
v  -54.1713 8.5876 -142.7315
v  -57.5098 17.2925 -145.0641
v  -54.1713 17.2925 -145.0641
v  -57.5098 25.9974 -142.7315
v  -54.1713 25.9974 -142.7315
v  -57.5098 28.6148 -121.1172
v  -57.5098 23.8295 -116.3319
v  -57.5098 32.3699 -136.3591
v  -54.1713 32.3699 -136.3591
v  -57.5098 10.7556 -116.3319
v  -57.5098 17.2925 -114.5803
v  -61.7249 17.2925 -114.5803
v  -61.7249 10.7556 -116.3319
v  -57.5098 17.2925 -140.7281
v  -57.5098 23.8294 -138.9765
v  -57.5098 10.7556 -138.9765
v  -57.5098 5.9702 -134.1911
v  -57.5098 4.2187 -127.6542
v  -57.5098 5.9702 -121.1172
v  -57.5098 28.6148 -134.1911
v  -57.5098 30.3664 -127.6543
v  -61.7249 28.6148 -121.1172
v  -61.7249 30.3664 -127.6543
v  -61.7249 28.6148 -134.1911
v  -61.7249 23.8295 -138.9765
v  -61.7249 17.2925 -140.7281
v  -61.7249 10.7556 -138.9765
v  -61.7249 5.9702 -134.1911
v  -61.7249 4.2187 -127.6542
v  -61.7249 5.9702 -121.1172
v  -61.7249 23.8295 -116.3319
v  -54.1713 34.7023 207.7167
v  -57.5098 34.7023 207.7167
v  -57.5098 32.3698 216.4216
v  -54.1713 32.3698 216.4216
v  -57.5098 25.9974 222.7941
v  -54.1713 25.9974 222.7941
v  -57.5098 17.2925 225.1266
v  -54.1713 17.2925 225.1266
v  -57.5098 8.5876 222.7941
v  -54.1713 8.5876 222.7941
v  -57.5098 2.2152 216.4216
v  -54.1713 2.2152 216.4216
v  -57.5098 -0.1173 207.7167
v  -54.1713 -0.1173 207.7167
v  -57.5098 2.2152 199.0118
v  -54.1713 2.2152 199.0118
v  -57.5098 8.5876 192.6394
v  -54.1713 8.5876 192.6394
v  -57.5098 17.2925 190.3069
v  -54.1713 17.2925 190.3069
v  -57.5098 25.9974 192.6394
v  -54.1713 25.9974 192.6394
v  -57.5098 28.6148 214.2537
v  -57.5098 23.8294 219.0391
v  -57.5098 32.3698 199.0118
v  -54.1713 32.3698 199.0118
v  -57.5098 10.7556 219.0391
v  -57.5098 17.2925 220.7905
v  -61.7249 17.2925 220.7905
v  -61.7249 10.7556 219.0391
v  -57.5098 17.2925 194.6429
v  -57.5098 23.8294 196.3945
v  -57.5098 10.7556 196.3945
v  -57.5098 5.9702 201.1798
v  -57.5098 4.2186 207.7167
v  -57.5098 5.9702 214.2537
v  -57.5098 28.6148 201.1798
v  -57.5098 30.3663 207.7167
v  -61.7249 28.6148 214.2537
v  -61.7249 30.3663 207.7167
v  -61.7249 28.6148 201.1798
v  -61.7249 23.8294 196.3945
v  -61.7249 17.2925 194.6429
v  -61.7249 10.7556 196.3945
v  -61.7249 5.9702 201.1798
v  -61.7249 4.2186 207.7167
v  -61.7249 5.9702 214.2537
v  -61.7249 23.8294 219.0391
v  -58.8816 17.2397 172.1947
v  -58.8816 39.0638 172.1947
v  -59.3761 39.0638 174.0401
v  -59.3761 17.2397 174.0401
v  -60.7270 39.0638 175.3910
v  -60.7270 17.2397 175.3910
v  -62.5724 39.0638 175.8856
v  -62.5724 17.2397 175.8856
v  -64.4179 39.0638 175.3910
v  -64.4179 17.2397 175.3910
v  -65.7688 39.0638 174.0401
v  -65.7688 17.2397 174.0401
v  -66.2633 39.0638 172.1947
v  -66.2633 17.2397 172.1947
v  -65.7688 39.0638 170.3493
v  -65.7688 17.2397 170.3493
v  -64.4178 39.0638 168.9984
v  -64.4178 17.2397 168.9984
v  -62.5724 39.0638 168.5038
v  -62.5724 17.2397 168.5038
v  -60.7270 39.0638 168.9984
v  -60.7270 17.2397 168.9984
v  -59.3761 39.0638 170.3492
v  -59.3761 17.2397 170.3492
v  -58.8816 17.2397 161.5312
v  -58.8816 39.0638 161.5312
v  -59.3761 39.0638 163.3765
v  -59.3761 17.2397 163.3765
v  -60.7270 39.0638 164.7275
v  -60.7270 17.2397 164.7275
v  -62.5724 39.0638 165.2220
v  -62.5724 17.2397 165.2220
v  -64.4178 39.0638 164.7275
v  -64.4178 17.2397 164.7275
v  -65.7688 39.0638 163.3765
v  -65.7688 17.2397 163.3765
v  -66.2633 39.0638 161.5312
v  -66.2633 17.2397 161.5312
v  -65.7688 39.0638 159.6858
v  -65.7688 17.2397 159.6858
v  -64.4179 39.0638 158.3348
v  -64.4179 17.2397 158.3348
v  -62.5724 39.0638 157.8403
v  -62.5724 17.2397 157.8403
v  -60.7270 39.0638 158.3348
v  -60.7270 17.2397 158.3348
v  -59.3761 39.0638 159.6858
v  -59.3761 17.2397 159.6858
v  -63.6646 21.9676 115.9994
v  -57.4413 21.9676 115.9994
v  -57.4413 11.9424 115.9994
v  -63.6646 11.9424 115.9994
v  -57.4413 27.5732 166.8361
v  -57.4413 21.9676 217.6727
v  -57.4413 11.9424 217.6727
v  -57.4413 20.6212 166.8361
v  -63.6647 21.9676 217.6727
v  -63.6647 11.9424 217.6727
v  -63.6646 27.5732 166.8361
v  -63.6646 20.6212 166.8361
v  -63.8804 44.8822 155.0250
v  -40.2583 44.8822 155.0250
v  -40.2583 13.3550 155.0251
v  -63.8804 13.3550 155.0250
v  -40.2583 44.8821 178.6471
v  -40.2583 13.3550 178.6471
v  -63.8804 44.8821 178.6471
v  -63.8804 13.3550 178.6471
v  -54.1712 34.7023 126.4553
v  -57.5098 34.7023 126.4553
v  -57.5098 32.3699 135.1602
v  -54.1713 32.3699 135.1602
v  -57.5098 25.9974 141.5325
v  -54.1713 25.9974 141.5325
v  -57.5098 17.2925 143.8651
v  -54.1713 17.2925 143.8651
v  -57.5098 8.5876 141.5325
v  -54.1713 8.5876 141.5325
v  -57.5098 2.2152 135.1602
v  -54.1713 2.2152 135.1602
v  -57.5098 -0.1173 126.4553
v  -54.1712 -0.1173 126.4553
v  -57.5098 2.2152 117.7504
v  -54.1712 2.2152 117.7504
v  -57.5098 8.5876 111.3779
v  -54.1712 8.5876 111.3779
v  -57.5098 17.2925 109.0454
v  -54.1712 17.2925 109.0454
v  -57.5098 25.9974 111.3779
v  -54.1712 25.9974 111.3779
v  -57.5098 28.6148 132.9922
v  -57.5098 23.8294 137.7776
v  -57.5098 32.3698 117.7503
v  -54.1712 32.3698 117.7503
v  -57.5098 10.7556 137.7776
v  -57.5098 17.2925 139.5291
v  -61.7248 17.2925 139.5291
v  -61.7248 10.7556 137.7776
v  -57.5098 17.2925 113.3814
v  -57.5098 23.8294 115.1330
v  -57.5098 10.7556 115.1330
v  -57.5098 5.9702 119.9184
v  -57.5098 4.2187 126.4553
v  -57.5098 5.9702 132.9922
v  -57.5098 28.6148 119.9183
v  -57.5098 30.3664 126.4553
v  -61.7248 28.6148 132.9922
v  -61.7248 30.3664 126.4553
v  -61.7248 28.6148 119.9183
v  -61.7248 23.8294 115.1330
v  -61.7248 17.2925 113.3814
v  -61.7248 10.7556 115.1330
v  -61.7248 5.9702 119.9183
v  -61.7248 4.2187 126.4553
v  -61.7248 5.9702 132.9922
v  -61.7248 23.8294 137.7776
v  54.1356 34.7023 -128.0119
v  57.4741 34.7023 -128.0119
v  57.4741 32.3699 -136.7168
v  54.1356 32.3699 -136.7168
v  57.4741 25.9974 -143.0893
v  54.1356 25.9974 -143.0893
v  57.4741 17.2925 -145.4217
v  54.1356 17.2925 -145.4217
v  57.4741 8.5876 -143.0893
v  54.1356 8.5876 -143.0893
v  57.4741 2.2152 -136.7168
v  54.1356 2.2152 -136.7168
v  57.4741 -0.1173 -128.0119
v  54.1356 -0.1173 -128.0119
v  57.4741 2.2152 -119.3070
v  54.1356 2.2152 -119.3070
v  57.4741 8.5876 -112.9346
v  54.1356 8.5876 -112.9346
v  57.4741 17.2925 -110.6021
v  54.1356 17.2925 -110.6021
v  57.4741 25.9974 -112.9346
v  54.1356 25.9974 -112.9346
v  57.4741 28.6148 -134.5488
v  57.4741 23.8295 -139.3343
v  57.4741 32.3699 -119.3070
v  54.1356 32.3699 -119.3070
v  57.4741 10.7556 -139.3342
v  57.4741 17.2925 -141.0857
v  61.6892 17.2925 -141.0857
v  61.6892 10.7556 -139.3342
v  57.4741 17.2925 -114.9381
v  57.4741 23.8294 -116.6897
v  57.4741 10.7556 -116.6896
v  57.4741 5.9702 -121.4750
v  57.4741 4.2187 -128.0119
v  57.4741 5.9702 -134.5488
v  57.4741 28.6148 -121.4750
v  57.4741 30.3664 -128.0119
v  61.6892 28.6148 -134.5488
v  61.6892 30.3664 -128.0119
v  61.6892 28.6148 -121.4750
v  61.6892 23.8294 -116.6897
v  61.6892 17.2925 -114.9381
v  61.6892 10.7556 -116.6896
v  61.6892 5.9702 -121.4750
v  61.6892 4.2187 -128.0119
v  61.6892 5.9702 -134.5488
v  61.6892 23.8295 -139.3343
v  63.8448 44.8822 -156.5817
v  40.2227 44.8822 -156.5817
v  40.2227 13.3550 -156.5817
v  63.8448 13.3550 -156.5817
v  40.2227 44.8822 -180.2037
v  40.2227 13.3550 -180.2037
v  63.8447 44.8822 -180.2037
v  63.8447 13.3550 -180.2037
v  63.6290 21.9677 -117.5561
v  57.4057 21.9677 -117.5561
v  57.4057 11.9425 -117.5561
v  63.6290 11.9425 -117.5561
v  57.4056 27.5732 -168.3927
v  57.4056 21.9677 -219.2294
v  57.4056 11.9425 -219.2294
v  57.4056 20.6212 -168.3927
v  63.6290 21.9677 -219.2294
v  63.6290 11.9425 -219.2294
v  63.6290 27.5732 -168.3927
v  63.6290 20.6212 -168.3927
v  58.8460 17.2397 -163.0878
v  58.8460 39.0639 -163.0878
v  59.3404 39.0639 -164.9333
v  59.3404 17.2397 -164.9333
v  60.6914 39.0639 -166.2842
v  60.6914 17.2397 -166.2842
v  62.5368 39.0639 -166.7786
v  62.5368 17.2397 -166.7786
v  64.3822 39.0639 -166.2842
v  64.3822 17.2397 -166.2842
v  65.7331 39.0639 -164.9333
v  65.7331 17.2397 -164.9333
v  66.2276 39.0639 -163.0878
v  66.2276 17.2397 -163.0878
v  65.7331 39.0639 -161.2424
v  65.7331 17.2397 -161.2424
v  64.3822 39.0639 -159.8915
v  64.3822 17.2397 -159.8915
v  62.5368 39.0639 -159.3969
v  62.5368 17.2397 -159.3969
v  60.6914 39.0639 -159.8915
v  60.6914 17.2397 -159.8915
v  59.3404 39.0639 -161.2424
v  59.3404 17.2397 -161.2424
v  58.8460 17.2397 -173.7513
v  58.8460 39.0639 -173.7513
v  59.3404 39.0639 -175.5967
v  59.3404 17.2397 -175.5967
v  60.6914 39.0639 -176.9476
v  60.6914 17.2397 -176.9476
v  62.5368 39.0639 -177.4422
v  62.5368 17.2397 -177.4422
v  64.3822 39.0639 -176.9476
v  64.3822 17.2397 -176.9476
v  65.7331 39.0639 -175.5967
v  65.7331 17.2397 -175.5967
v  66.2276 39.0639 -173.7513
v  66.2276 17.2397 -173.7513
v  65.7331 39.0639 -171.9059
v  65.7331 17.2397 -171.9059
v  64.3822 39.0639 -170.5550
v  64.3822 17.2397 -170.5550
v  62.5368 39.0639 -170.0605
v  62.5368 17.2397 -170.0605
v  60.6914 39.0639 -170.5550
v  60.6914 17.2397 -170.5550
v  59.3404 39.0639 -171.9059
v  59.3404 17.2397 -171.9059
v  54.1356 34.7024 -209.2734
v  57.4741 34.7024 -209.2734
v  57.4741 32.3699 -217.9783
v  54.1356 32.3699 -217.9783
v  57.4741 25.9975 -224.3507
v  54.1356 25.9975 -224.3507
v  57.4741 17.2925 -226.6832
v  54.1356 17.2925 -226.6832
v  57.4741 8.5876 -224.3507
v  54.1356 8.5876 -224.3507
v  57.4741 2.2152 -217.9783
v  54.1356 2.2152 -217.9783
v  57.4741 -0.1173 -209.2734
v  54.1356 -0.1173 -209.2734
v  57.4741 2.2152 -200.5685
v  54.1356 2.2152 -200.5685
v  57.4741 8.5876 -194.1961
v  54.1356 8.5876 -194.1961
v  57.4741 17.2925 -191.8636
v  54.1356 17.2925 -191.8636
v  57.4741 25.9974 -194.1961
v  54.1356 25.9974 -194.1961
v  57.4741 28.6148 -215.8104
v  57.4741 23.8295 -220.5957
v  57.4741 32.3699 -200.5685
v  54.1356 32.3699 -200.5685
v  57.4741 10.7556 -220.5957
v  57.4741 17.2925 -222.3473
v  61.6892 17.2925 -222.3473
v  61.6892 10.7556 -220.5957
v  57.4741 17.2925 -196.1995
v  57.4741 23.8295 -197.9511
v  57.4741 10.7556 -197.9511
v  57.4741 5.9703 -202.7365
v  57.4741 4.2187 -209.2734
v  57.4741 5.9703 -215.8104
v  57.4741 28.6148 -202.7365
v  57.4741 30.3664 -209.2734
v  61.6892 28.6148 -215.8104
v  61.6892 30.3664 -209.2734
v  61.6892 28.6148 -202.7365
v  61.6892 23.8295 -197.9511
v  61.6892 17.2925 -196.1995
v  61.6892 10.7556 -197.9511
v  61.6892 5.9703 -202.7365
v  61.6892 4.2187 -209.2734
v  61.6892 5.9703 -215.8104
v  61.6892 23.8295 -220.5957
v  54.1356 34.7023 126.0976
v  57.4742 34.7023 126.0976
v  57.4742 32.3699 117.3927
v  54.1356 32.3699 117.3927
v  57.4741 25.9974 111.0203
v  54.1356 25.9974 111.0203
v  57.4741 17.2925 108.6878
v  54.1356 17.2925 108.6878
v  57.4741 8.5876 111.0203
v  54.1356 8.5876 111.0203
v  57.4742 2.2152 117.3927
v  54.1356 2.2152 117.3927
v  57.4742 -0.1173 126.0977
v  54.1356 -0.1173 126.0977
v  57.4741 2.2152 134.8026
v  54.1356 2.2152 134.8026
v  57.4741 8.5876 141.1750
v  54.1356 8.5876 141.1750
v  57.4741 17.2925 143.5074
v  54.1356 17.2925 143.5074
v  57.4741 25.9974 141.1750
v  54.1356 25.9974 141.1750
v  57.4742 28.6148 119.5608
v  57.4742 23.8294 114.7754
v  57.4741 32.3698 134.8025
v  54.1356 32.3698 134.8025
v  57.4742 10.7556 114.7754
v  57.4742 17.2925 113.0238
v  61.6892 17.2925 113.0238
v  61.6892 10.7556 114.7754
v  57.4741 17.2925 139.1715
v  57.4741 23.8294 137.4199
v  57.4741 10.7556 137.4199
v  57.4742 5.9702 132.6346
v  57.4742 4.2187 126.0977
v  57.4742 5.9702 119.5608
v  57.4742 28.6148 132.6346
v  57.4742 30.3664 126.0976
v  61.6892 28.6148 119.5608
v  61.6892 30.3664 126.0976
v  61.6892 28.6148 132.6346
v  61.6892 23.8294 137.4199
v  61.6892 17.2925 139.1715
v  61.6892 10.7556 137.4199
v  61.6892 5.9702 132.6346
v  61.6892 4.2187 126.0977
v  61.6892 5.9702 119.5608
v  61.6892 23.8294 114.7754
v  58.8460 17.2397 161.6196
v  58.8460 39.0638 161.6196
v  59.3405 39.0638 159.7743
v  59.3405 17.2397 159.7743
v  60.6914 39.0638 158.4233
v  60.6914 17.2397 158.4233
v  62.5368 39.0638 157.9289
v  62.5368 17.2397 157.9289
v  64.3822 39.0638 158.4233
v  64.3822 17.2397 158.4233
v  65.7332 39.0638 159.7743
v  65.7332 17.2397 159.7743
v  66.2276 39.0638 161.6196
v  66.2276 17.2397 161.6196
v  65.7332 39.0638 163.4651
v  65.7332 17.2397 163.4651
v  64.3822 39.0638 164.8160
v  64.3822 17.2397 164.8160
v  62.5368 39.0638 165.3105
v  62.5368 17.2397 165.3105
v  60.6914 39.0638 164.8160
v  60.6914 17.2397 164.8160
v  59.3405 39.0638 163.4651
v  59.3405 17.2397 163.4651
v  58.8460 17.2397 172.2832
v  58.8460 39.0638 172.2832
v  59.3405 39.0638 170.4378
v  59.3405 17.2397 170.4378
v  60.6914 39.0638 169.0869
v  60.6914 17.2397 169.0869
v  62.5368 39.0638 168.5924
v  62.5368 17.2397 168.5924
v  64.3822 39.0638 169.0869
v  64.3822 17.2397 169.0869
v  65.7332 39.0638 170.4378
v  65.7332 17.2397 170.4378
v  66.2276 39.0638 172.2832
v  66.2276 17.2397 172.2832
v  65.7332 39.0638 174.1287
v  65.7332 17.2397 174.1287
v  64.3822 39.0638 175.4796
v  64.3822 17.2397 175.4796
v  62.5368 39.0638 175.9740
v  62.5368 17.2397 175.9740
v  60.6914 39.0638 175.4796
v  60.6914 17.2397 175.4796
v  59.3405 39.0638 174.1287
v  59.3405 17.2397 174.1287
v  63.6290 21.9676 217.8150
v  57.4057 21.9676 217.8150
v  57.4057 11.9424 217.8150
v  63.6290 11.9424 217.8150
v  57.4057 27.5732 166.9783
v  57.4057 21.9677 116.1416
v  57.4057 11.9424 116.1416
v  57.4057 20.6212 166.9783
v  63.6290 21.9677 116.1416
v  63.6290 11.9424 116.1416
v  63.6290 27.5732 166.9783
v  63.6290 20.6212 166.9783
v  63.8448 44.8821 178.7893
v  40.2227 44.8821 178.7893
v  40.2227 13.3550 178.7893
v  63.8448 13.3550 178.7893
v  40.2227 44.8822 155.1672
v  40.2227 13.3550 155.1673
v  63.8448 44.8822 155.1673
v  63.8448 13.3550 155.1673
v  54.1356 34.7023 207.3592
v  57.4742 34.7023 207.3592
v  57.4742 32.3698 198.6543
v  54.1356 32.3698 198.6543
v  57.4742 25.9974 192.2818
v  54.1356 25.9974 192.2818
v  57.4742 17.2925 189.9493
v  54.1356 17.2925 189.9493
v  57.4742 8.5876 192.2818
v  54.1356 8.5876 192.2818
v  57.4742 2.2152 198.6543
v  54.1356 2.2152 198.6543
v  57.4742 -0.1173 207.3592
v  54.1356 -0.1173 207.3592
v  57.4742 2.2152 216.0641
v  54.1356 2.2152 216.0641
v  57.4742 8.5876 222.4364
v  54.1356 8.5876 222.4364
v  57.4742 17.2925 224.7690
v  54.1356 17.2925 224.7690
v  57.4742 25.9974 222.4364
v  54.1356 25.9974 222.4364
v  57.4742 28.6148 200.8222
v  57.4742 23.8294 196.0368
v  57.4742 32.3698 216.0641
v  54.1356 32.3698 216.0641
v  57.4742 10.7556 196.0368
v  57.4742 17.2925 194.2852
v  61.6892 17.2925 194.2852
v  61.6892 10.7556 196.0368
v  57.4742 17.2925 220.4330
v  57.4742 23.8294 218.6814
v  57.4742 10.7556 218.6814
v  57.4742 5.9702 213.8961
v  57.4742 4.2186 207.3592
v  57.4742 5.9702 200.8222
v  57.4742 28.6148 213.8961
v  57.4742 30.3663 207.3592
v  61.6892 28.6148 200.8222
v  61.6892 30.3663 207.3592
v  61.6892 28.6148 213.8961
v  61.6892 23.8294 218.6814
v  61.6892 17.2925 220.4330
v  61.6892 10.7556 218.6814
v  61.6892 5.9702 213.8961
v  61.6892 4.2186 207.3592
v  61.6892 5.9702 200.8222
v  61.6892 23.8294 196.0368
v  67.8956 100.4782 247.1339
v  -67.9312 100.4782 247.1339
v  -67.9312 49.1378 185.8013
v  67.8956 49.1378 185.8013
v  67.8956 100.4782 -248.9290
v  67.8955 49.1378 -187.5964
v  67.8956 138.6961 247.1339
v  -67.9312 138.6961 247.1339
v  -67.9312 100.4782 -248.9290
v  -67.9312 49.1378 -187.5964
v  67.8956 138.6961 -248.9290
v  -60.3998 138.6961 238.5340
v  -60.3998 138.6961 -240.3291
v  -67.9312 138.6961 -248.9290
v  60.3642 138.6961 238.5340
v  60.3641 138.6961 -240.3291
v  60.3642 105.9683 238.5340
v  60.3642 54.6279 179.3279
v  -60.3998 54.6279 179.3279
v  -60.3998 105.9683 238.5340
v  60.3641 105.9683 -240.3291
v  60.3641 54.6279 -181.1230
v  -60.3998 54.6279 -181.1230
v  -60.3998 105.9683 -240.3291
v  -67.5557 103.6649 -248.8516
v  -62.3448 103.6649 -248.8516
v  -62.3448 48.0059 -248.8516
v  -67.5557 48.0059 -248.8516
v  -62.3448 103.6649 -243.6407
v  -62.3448 48.0059 -243.6407
v  -67.5557 103.6649 -243.6407
v  -67.5557 48.0059 -243.6407
v  -67.5557 74.3919 -214.2817
v  -62.3448 74.3919 -214.2817
v  -62.3448 48.0059 -214.2817
v  -67.5557 48.0059 -214.2817
v  -62.3448 74.3919 -209.0708
v  -62.3448 48.0059 -209.0708
v  -67.5557 74.3919 -209.0708
v  -67.5557 48.0059 -209.0708
v  62.3092 74.3919 -214.2817
v  67.5201 74.3919 -214.2817
v  67.5201 48.0059 -214.2817
v  62.3092 48.0059 -214.2817
v  67.5201 74.3919 -209.0708
v  67.5201 48.0059 -209.0708
v  62.3092 74.3919 -209.0708
v  62.3092 48.0059 -209.0708
v  62.3092 103.6648 -248.8516
v  67.5201 103.6648 -248.8516
v  67.5201 48.0059 -248.8516
v  62.3092 48.0059 -248.8516
v  67.5201 103.6648 -243.6407
v  67.5201 48.0059 -243.6407
v  62.3092 103.6648 -243.6407
v  62.3092 48.0059 -243.6407
v  -2.6233 103.6648 -248.8516
v  2.5876 103.6648 -248.8516
v  2.5876 48.0059 -248.8516
v  -2.6233 48.0059 -248.8516
v  2.5876 103.6648 -243.6407
v  2.5876 48.0059 -243.6407
v  -2.6233 103.6648 -243.6407
v  -2.6233 48.0059 -243.6407
v  67.5200 103.6648 247.0134
v  62.3091 103.6648 247.0134
v  62.3091 48.0058 247.0134
v  67.5200 48.0058 247.0134
v  62.3091 103.6648 241.8025
v  62.3091 48.0058 241.8025
v  67.5200 103.6648 241.8025
v  67.5200 48.0058 241.8025
v  67.5200 74.3919 212.4434
v  62.3092 74.3919 212.4434
v  62.3092 48.0058 212.4434
v  67.5200 48.0058 212.4434
v  62.3092 74.3919 207.2325
v  62.3092 48.0058 207.2325
v  67.5200 74.3919 207.2325
v  67.5200 48.0058 207.2325
v  -62.3448 74.3919 212.4434
v  -67.5557 74.3919 212.4434
v  -67.5557 48.0058 212.4434
v  -62.3448 48.0058 212.4434
v  -67.5557 74.3919 207.2325
v  -67.5557 48.0058 207.2325
v  -62.3448 74.3919 207.2325
v  -62.3448 48.0058 207.2325
v  -62.3448 103.6648 247.0134
v  -67.5557 103.6648 247.0134
v  -67.5557 48.0058 247.0134
v  -62.3448 48.0058 247.0134
v  -67.5557 103.6648 241.8025
v  -67.5557 48.0058 241.8025
v  -62.3448 103.6648 241.8025
v  -62.3448 48.0058 241.8025
v  2.5876 103.6648 247.0134
v  -2.6232 103.6648 247.0134
v  -2.6232 48.0058 247.0134
v  2.5876 48.0058 247.0134
v  -2.6233 103.6648 241.8025
v  -2.6233 48.0058 241.8025
v  2.5876 103.6648 241.8025
v  2.5876 48.0058 241.8025
# 872 vertices

vn 0.0000 -0.0000 1.0000
vn 0.0000 1.0000 0.0000
vn 0.0000 0.0000 -1.0000
vn 0.0000 -1.0000 0.0000
vn -1.0000 0.0000 -0.0000
vn 1.0000 -0.0000 0.0000
vn 0.0000 -1.0000 -0.0000
vn 1.0000 0.0000 0.0000
vn -0.0000 1.0000 -0.0000
vn -0.0000 1.0000 0.0000
vn 0.0000 -0.0000 -1.0000
vn -1.0000 -0.0000 -0.0000
vn -0.0000 -1.0000 -0.0000
vn 1.0000 -0.0000 -0.0000
vn -1.0000 0.0000 0.0000
vn -0.0000 -1.0000 0.0000
vn 0.0000 1.0000 -0.0000
vn -0.0000 -0.4015 0.9159
vn -0.0000 -0.4015 -0.9159
vn 0.0000 -0.3128 0.9498
vn -1.0000 -0.0000 0.0000
vn 0.0000 -0.3128 -0.9498
vn 1.0000 0.0000 -0.0000
vn 0.0000 0.9659 0.2588
vn 0.0000 0.7071 0.7071
vn -0.0000 0.2588 0.9659
vn -0.0000 -0.2588 0.9659
vn 0.0000 -0.7071 0.7071
vn 0.0000 -0.9659 0.2588
vn 0.0000 -0.9659 -0.2588
vn 0.0000 -0.7071 -0.7071
vn 0.0000 -0.2588 -0.9659
vn 0.0000 0.2588 -0.9659
vn 0.0000 0.7071 -0.7071
vn 0.0000 0.9659 -0.2588
vn 0.0000 -0.2588 0.9659
vn 0.0000 0.2588 0.9659
vn -0.0000 0.0000 1.0000
vn 0.0000 0.0000 1.0000
vn 0.0000 -0.9857 -0.1683
vn 0.0000 0.9940 -0.1096
vn 0.0000 0.9940 0.1096
vn 0.0000 -0.9857 0.1683
vn 0.9659 -0.0000 0.2588
vn 0.7071 -0.0000 0.7071
vn 0.2588 -0.0000 0.9659
vn -0.2588 -0.0000 0.9659
vn -0.7071 -0.0000 0.7071
vn -0.9659 0.0000 0.2588
vn -0.9659 0.0000 -0.2588
vn -0.7071 0.0000 -0.7071
vn -0.2588 0.0000 -0.9659
vn 0.2588 0.0000 -0.9659
vn 0.7071 0.0000 -0.7071
vn 0.9659 0.0000 -0.2588
vn -0.9659 -0.0000 0.2588
vn -0.2589 0.0000 -0.9659
vn -0.0000 -0.9659 -0.2588
vn -0.0000 -0.7071 -0.7071
vn -0.0000 -0.2588 -0.9659
vn -0.0000 -0.9659 0.2588
vn -0.0000 0.9659 -0.2588
vn -0.0000 0.7071 -0.7071
vn -0.9659 -0.0000 -0.2588
vn -0.0000 0.2588 -0.9659
vn -0.0000 0.7071 0.7071
vn -0.0000 0.9659 0.2588
vn 0.0000 -0.7668 0.6419
vn 0.0000 -0.7668 -0.6419
vn 0.0000 0.7555 -0.6551
vn -0.0000 0.7555 0.6551
# 71 vertex normals

vt 0.1508 0.0343 0.0000
vt 0.1508 0.0332 0.0000
vt 0.1512 0.0343 0.0000
vt 0.1512 0.0332 0.0000
vt 0.1496 0.0340 0.0000
vt 0.1496 0.0334 0.0000
vt 0.1499 0.0337 0.0000
vt 0.1499 0.0340 0.0000
vt 0.1502 0.0337 0.0000
vt 0.1512 0.0334 0.0000
vt 0.1502 0.0340 0.0000
vt 0.1512 0.0340 0.0000
vt 0.1639 0.0350 0.0000
vt 0.1798 0.0350 0.0000
vt 0.1798 0.0509 0.0000
vt 0.1639 0.0509 0.0000
vt 0.9335 0.0448 0.0000
vt 0.9494 0.0448 0.0000
vt 0.9494 0.0607 0.0000
vt 0.9335 0.0607 0.0000
vt 0.9829 0.0338 0.0000
vt 0.9829 0.0400 0.0000
vt 0.9583 0.0400 0.0000
vt 0.9583 0.0338 0.0000
vt 0.1912 0.0341 0.0000
vt 0.1905 0.0339 0.0000
vt 0.1900 0.0334 0.0000
vt 0.1898 0.0327 0.0000
vt 0.1900 0.0320 0.0000
vt 0.1905 0.0315 0.0000
vt 0.1912 0.0313 0.0000
vt 0.1919 0.0315 0.0000
vt 0.1924 0.0320 0.0000
vt 0.1926 0.0327 0.0000
vt 0.1924 0.0334 0.0000
vt 0.1907 0.0336 0.0000
vt 0.1903 0.0332 0.0000
vt 0.1919 0.0339 0.0000
vt 0.1903 0.0322 0.0000
vt 0.1902 0.0327 0.0000
vt 0.1922 0.0327 0.0000
vt 0.1921 0.0332 0.0000
vt 0.1921 0.0322 0.0000
vt 0.1917 0.0318 0.0000
vt 0.1912 0.0317 0.0000
vt 0.1907 0.0318 0.0000
vt 0.1917 0.0336 0.0000
vt 0.1912 0.0337 0.0000
vt 0.1890 0.0349 0.0000
vt 0.1890 0.0324 0.0000
vt 0.1871 0.0349 0.0000
vt 0.1871 0.0324 0.0000
vt 0.1920 0.0331 0.0000
vt 0.1920 0.0323 0.0000
vt 0.1880 0.0335 0.0000
vt 0.1840 0.0331 0.0000
vt 0.1840 0.0323 0.0000
vt 0.1880 0.0330 0.0000
vt 0.1884 0.0327 0.0000
vt 0.1884 0.0344 0.0000
vt 0.1883 0.0344 0.0000
vt 0.1883 0.0327 0.0000
vt 0.1882 0.0344 0.0000
vt 0.1882 0.0327 0.0000
vt 0.1886 0.0344 0.0000
vt 0.1886 0.0327 0.0000
vt 0.1887 0.0344 0.0000
vt 0.1887 0.0327 0.0000
vt 0.1876 0.0327 0.0000
vt 0.1876 0.0344 0.0000
vt 0.1875 0.0344 0.0000
vt 0.1875 0.0327 0.0000
vt 0.1874 0.0344 0.0000
vt 0.1874 0.0327 0.0000
vt 0.1873 0.0344 0.0000
vt 0.1873 0.0327 0.0000
vt 0.1877 0.0344 0.0000
vt 0.1877 0.0327 0.0000
vt 0.1879 0.0344 0.0000
vt 0.1879 0.0327 0.0000
vt 0.1848 0.0341 0.0000
vt 0.1841 0.0339 0.0000
vt 0.1836 0.0334 0.0000
vt 0.1834 0.0327 0.0000
vt 0.1836 0.0320 0.0000
vt 0.1841 0.0315 0.0000
vt 0.1848 0.0313 0.0000
vt 0.1855 0.0315 0.0000
vt 0.1860 0.0320 0.0000
vt 0.1862 0.0327 0.0000
vt 0.1860 0.0334 0.0000
vt 0.1843 0.0336 0.0000
vt 0.1839 0.0332 0.0000
vt 0.1855 0.0339 0.0000
vt 0.1839 0.0322 0.0000
vt 0.1838 0.0327 0.0000
vt 0.1858 0.0327 0.0000
vt 0.1857 0.0332 0.0000
vt 0.1857 0.0322 0.0000
vt 0.1853 0.0318 0.0000
vt 0.1848 0.0317 0.0000
vt 0.1843 0.0318 0.0000
vt 0.1853 0.0336 0.0000
vt 0.1848 0.0337 0.0000
vt 0.1574 0.0341 0.0000
vt 0.1567 0.0339 0.0000
vt 0.1562 0.0334 0.0000
vt 0.1560 0.0327 0.0000
vt 0.1562 0.0320 0.0000
vt 0.1567 0.0315 0.0000
vt 0.1574 0.0313 0.0000
vt 0.1581 0.0315 0.0000
vt 0.1586 0.0320 0.0000
vt 0.1588 0.0327 0.0000
vt 0.1586 0.0334 0.0000
vt 0.1569 0.0336 0.0000
vt 0.1565 0.0332 0.0000
vt 0.1581 0.0339 0.0000
vt 0.1565 0.0322 0.0000
vt 0.1564 0.0327 0.0000
vt 0.1584 0.0327 0.0000
vt 0.1583 0.0332 0.0000
vt 0.1583 0.0322 0.0000
vt 0.1579 0.0318 0.0000
vt 0.1574 0.0317 0.0000
vt 0.1569 0.0318 0.0000
vt 0.1579 0.0336 0.0000
vt 0.1574 0.0337 0.0000
vt 0.1602 0.0327 0.0000
vt 0.1602 0.0344 0.0000
vt 0.1601 0.0344 0.0000
vt 0.1601 0.0327 0.0000
vt 0.1599 0.0344 0.0000
vt 0.1599 0.0327 0.0000
vt 0.1603 0.0344 0.0000
vt 0.1603 0.0327 0.0000
vt 0.1605 0.0344 0.0000
vt 0.1605 0.0327 0.0000
vt 0.1610 0.0327 0.0000
vt 0.1610 0.0344 0.0000
vt 0.1609 0.0344 0.0000
vt 0.1609 0.0327 0.0000
vt 0.1608 0.0344 0.0000
vt 0.1608 0.0327 0.0000
vt 0.1612 0.0344 0.0000
vt 0.1612 0.0327 0.0000
vt 0.1613 0.0344 0.0000
vt 0.1613 0.0327 0.0000
vt 0.1646 0.0331 0.0000
vt 0.1646 0.0323 0.0000
vt 0.1606 0.0335 0.0000
vt 0.1566 0.0331 0.0000
vt 0.1566 0.0323 0.0000
vt 0.1606 0.0330 0.0000
vt 0.1616 0.0349 0.0000
vt 0.1616 0.0324 0.0000
vt 0.1597 0.0349 0.0000
vt 0.1597 0.0324 0.0000
vt 0.1638 0.0341 0.0000
vt 0.1631 0.0339 0.0000
vt 0.1626 0.0334 0.0000
vt 0.1624 0.0327 0.0000
vt 0.1626 0.0320 0.0000
vt 0.1631 0.0315 0.0000
vt 0.1638 0.0313 0.0000
vt 0.1645 0.0315 0.0000
vt 0.1650 0.0320 0.0000
vt 0.1652 0.0327 0.0000
vt 0.1650 0.0334 0.0000
vt 0.1633 0.0336 0.0000
vt 0.1629 0.0332 0.0000
vt 0.1645 0.0339 0.0000
vt 0.1629 0.0322 0.0000
vt 0.1628 0.0327 0.0000
vt 0.1648 0.0327 0.0000
vt 0.1647 0.0332 0.0000
vt 0.1647 0.0322 0.0000
vt 0.1643 0.0318 0.0000
vt 0.1638 0.0317 0.0000
vt 0.1633 0.0318 0.0000
vt 0.1643 0.0336 0.0000
vt 0.1638 0.0337 0.0000
vt 0.1859 0.0327 0.0000
vt 0.1889 0.0349 0.0000
vt 0.1889 0.0324 0.0000
vt 0.1878 0.0344 0.0000
vt 0.1878 0.0327 0.0000
vt 0.1881 0.0344 0.0000
vt 0.1881 0.0327 0.0000
vt 0.1906 0.0315 0.0000
vt 0.1901 0.0320 0.0000
vt 0.1899 0.0327 0.0000
vt 0.1901 0.0334 0.0000
vt 0.1918 0.0336 0.0000
vt 0.1906 0.0339 0.0000
vt 0.1923 0.0327 0.0000
vt 0.1918 0.0318 0.0000
vt 0.1632 0.0315 0.0000
vt 0.1627 0.0320 0.0000
vt 0.1625 0.0327 0.0000
vt 0.1627 0.0334 0.0000
vt 0.1644 0.0336 0.0000
vt 0.1632 0.0339 0.0000
vt 0.1649 0.0327 0.0000
vt 0.1644 0.0318 0.0000
vt 0.1607 0.0344 0.0000
vt 0.1607 0.0327 0.0000
vt 0.1604 0.0344 0.0000
vt 0.1604 0.0327 0.0000
vt 0.1600 0.0344 0.0000
vt 0.1600 0.0327 0.0000
vt 0.1615 0.0349 0.0000
vt 0.1615 0.0324 0.0000
vt 0.1585 0.0327 0.0000
vt 0.0676 0.4466 0.0000
vt 0.1742 0.3574 0.0000
vt 0.9300 0.4466 0.0000
vt 0.8233 0.3574 0.0000
vt 0.0676 0.5131 0.0000
vt 0.9300 0.5131 0.0000
vt 0.0826 0.5131 0.0000
vt 0.9150 0.5131 0.0000
vt 0.9256 0.0423 0.0000
vt 0.9293 0.0391 0.0000
vt 0.9554 0.0423 0.0000
vt 0.9517 0.0391 0.0000
vt 0.9256 0.0443 0.0000
vt 0.9554 0.0443 0.0000
vt 0.9269 0.0312 0.0000
vt 0.9442 0.0312 0.0000
vt 0.9442 0.0484 0.0000
vt 0.9269 0.0484 0.0000
# 232 texture coords

g SPW_Vehicle_Train_Freight_Train_Trailer_04
usemtl SPW_Vehicle_Train_Freight_Train_Trailer
s off
f 1/1/1 2/1/1 3/2/1 4/2/1 
f 2/1/2 5/3/2 6/4/2 3/2/2 
f 5/3/3 7/3/3 8/4/3 6/4/3 
f 7/3/4 1/1/4 4/2/4 8/4/4 
f 4/2/5 3/2/5 6/4/5 8/4/5 
f 7/3/6 5/3/6 2/1/6 1/1/6 
f 9/5/1 10/5/1 11/6/1 12/6/1 
f 13/7/7 14/8/7 9/5/7 12/6/7 
f 15/9/7 13/7/7 12/6/7 16/10/7 
f 17/11/4 15/9/4 16/10/4 18/12/4 
f 19/8/8 10/5/8 9/5/8 14/8/8 
f 20/9/9 21/11/9 22/12/9 23/10/9 
f 24/7/10 20/9/10 23/10/10 11/6/10 
f 19/8/9 24/7/9 11/6/9 10/5/9 
f 12/6/5 11/6/5 23/10/5 16/10/5 
f 22/12/11 18/12/11 16/10/11 23/10/11 
f 18/12/6 22/12/6 21/11/6 17/11/6 
f 24/7/3 19/8/3 14/8/3 13/7/3 
f 13/7/6 15/9/6 20/9/6 24/7/6 
f 15/9/1 17/11/1 21/11/1 20/9/1 
f 25/1/1 26/1/1 27/2/1 28/2/1 
f 26/1/7 29/3/7 30/4/7 27/2/7 
f 29/3/3 31/3/3 32/4/3 30/4/3 
f 31/3/10 25/1/10 28/2/10 32/4/10 
f 28/2/8 27/2/8 30/4/8 32/4/8 
f 31/3/12 29/3/12 26/1/12 25/1/12 
f 33/5/1 34/5/1 35/6/1 36/6/1 
f 37/7/2 38/8/2 33/5/2 36/6/2 
f 39/9/10 37/7/10 36/6/10 40/10/10 
f 41/11/2 39/9/2 40/10/2 42/12/2 
f 43/8/5 34/5/5 33/5/5 38/8/5 
f 44/9/7 45/11/7 46/12/7 47/10/7 
f 48/7/13 44/9/13 47/10/13 35/6/13 
f 43/8/7 48/7/7 35/6/7 34/5/7 
f 36/6/6 35/6/6 47/10/6 40/10/6 
f 46/12/3 42/12/3 40/10/3 47/10/3 
f 42/12/5 46/12/5 45/11/5 41/11/5 
f 48/7/3 43/8/3 38/8/3 37/7/3 
f 37/7/12 39/9/12 44/9/12 48/7/12 
f 39/9/1 41/11/1 45/11/1 44/9/1 
f 49/1/3 50/1/3 51/2/3 52/2/3 
f 50/1/14 53/3/14 54/4/14 51/2/14 
f 53/3/1 55/3/1 56/4/1 54/4/1 
f 55/3/15 49/1/15 52/2/15 56/4/15 
f 52/2/7 51/2/7 54/4/7 56/4/7 
f 55/3/2 53/3/2 50/1/2 49/1/2 
f 57/5/3 58/5/3 59/6/3 60/6/3 
f 61/7/5 62/8/5 57/5/5 60/6/5 
f 63/9/5 61/7/5 60/6/5 64/10/5 
f 65/11/5 63/9/5 64/10/5 66/12/5 
f 67/8/2 58/5/2 57/5/2 62/8/2 
f 68/9/6 69/11/6 70/12/6 71/10/6 
f 72/7/6 68/9/6 71/10/6 59/6/6 
f 67/8/6 72/7/6 59/6/6 58/5/6 
f 60/6/16 59/6/16 71/10/16 64/10/16 
f 70/12/1 66/12/1 64/10/1 71/10/1 
f 66/12/17 70/12/17 69/11/17 65/11/17 
f 72/7/1 67/8/1 62/8/1 61/7/1 
f 61/7/2 63/9/2 68/9/2 72/7/2 
f 63/9/3 65/11/3 69/11/3 68/9/3 
f 73/13/3 74/14/3 75/15/3 76/16/3 
f 74/13/6 77/14/6 78/15/6 75/16/6 
f 77/13/18 79/14/18 80/15/18 78/16/18 
f 79/13/5 73/14/5 76/15/5 80/16/5 
f 76/13/13 75/14/13 78/15/13 80/16/13 
f 79/13/17 77/14/17 74/15/17 73/16/17 
f 81/13/1 82/14/1 83/15/1 84/16/1 
f 82/13/12 85/14/12 86/15/12 83/16/12 
f 85/13/19 87/14/19 88/15/19 86/16/19 
f 87/13/8 81/14/8 84/15/8 88/16/8 
f 84/13/13 83/14/13 86/15/13 88/16/13 
f 87/13/10 85/14/10 82/15/10 81/16/10 
f 89/13/20 90/14/20 91/15/20 92/16/20 
f 90/13/21 93/14/21 94/15/21 91/16/21 
f 93/13/22 95/14/22 96/15/22 94/16/22 
f 95/13/14 89/14/14 92/15/14 96/16/14 
f 92/13/13 91/14/13 94/15/13 96/16/13 
f 95/13/10 93/14/10 90/15/10 89/16/10 
s 1
f 97/13/1 98/14/1 99/15/1 100/16/1 
s 2
f 98/13/15 101/14/15 102/15/21 99/16/21 
s 1
f 101/13/3 103/14/3 104/15/3 102/16/3 
s 2
f 103/13/14 97/14/14 100/15/23 104/16/23 
s off
f 100/13/7 99/14/7 102/15/7 104/16/7 
s 4
f 105/17/10 106/18/2 107/19/2 108/20/10 
f 108/21/10 107/22/2 109/23/10 110/24/2 
f 111/17/10 112/18/2 110/19/2 109/20/10 
f 112/17/2 105/18/10 108/19/10 110/20/2 
f 106/17/2 111/18/10 109/19/10 107/20/2 
s 2
f 105/17/14 112/18/14 97/19/14 103/20/14 
s 1
f 106/17/3 105/18/3 103/19/3 101/20/3 
s 2
f 111/17/15 106/18/15 101/19/15 98/20/15 
s 1
f 112/17/1 111/18/1 98/19/1 97/20/1 
s off
f 113/25/24 114/25/24 115/26/24 116/26/24 
f 116/26/25 115/26/25 117/27/25 118/27/25 
f 118/27/26 117/27/26 119/28/26 120/28/26 
f 120/28/27 119/28/27 121/29/27 122/29/27 
f 122/29/28 121/29/28 123/30/28 124/30/28 
f 124/30/29 123/30/29 125/31/29 126/31/29 
f 126/31/30 125/31/30 127/32/30 128/32/30 
f 128/32/31 127/32/31 129/33/31 130/33/31 
f 130/33/32 129/33/32 131/34/32 132/34/32 
f 132/34/33 131/34/33 133/35/33 134/35/33 
s 1
f 117/27/5 115/26/5 135/36/5 136/37/5 
s off
f 134/35/34 133/35/34 137/38/34 138/38/34 
f 138/38/35 137/38/35 114/25/35 113/25/35 
f 113/25/6 116/26/6 118/27/6 120/28/6 
f 113/25/6 120/28/6 122/29/6 124/30/6 
f 113/25/23 124/30/23 126/31/23 128/32/23 
f 113/25/6 128/32/6 130/33/6 132/34/6 
f 113/25/23 132/34/23 134/35/23 138/38/23 
f 139/39/36 140/40/36 141/40/36 142/39/36 
s 1
f 133/35/5 131/34/5 143/41/5 144/42/5 
f 131/34/5 129/33/5 145/43/5 143/41/5 
f 129/33/5 127/32/12 146/44/12 145/43/5 
f 127/32/12 125/31/12 147/45/12 146/44/12 
f 125/31/12 123/30/12 148/46/12 147/45/12 
f 123/30/12 121/29/5 139/39/5 148/46/12 
f 121/29/5 119/28/5 140/40/5 139/39/5 
f 114/25/5 137/38/5 149/47/5 150/48/5 
f 115/26/5 114/25/5 150/48/5 135/36/5 
s off
f 119/28/5 117/27/5 136/37/5 140/40/5 
s 1
f 137/38/5 133/35/5 144/42/5 149/47/5 
s off
f 151/36/5 152/48/5 153/47/5 154/42/5 
f 151/36/5 154/42/5 155/41/5 156/43/5 
f 151/36/5 156/43/5 157/44/5 158/45/5 
f 151/36/5 158/45/5 159/46/5 142/39/5 
f 151/36/5 142/39/5 141/40/5 160/37/5 
f 149/47/34 144/42/34 154/42/34 153/47/34 
f 135/36/24 150/48/24 152/48/24 151/36/24 
f 145/43/31 146/44/31 157/44/31 156/43/31 
f 148/46/28 139/39/28 142/39/28 159/46/28 
f 150/48/35 149/47/35 153/47/35 152/48/35 
f 136/37/25 135/36/25 151/36/25 160/37/25 
f 143/41/32 145/43/32 156/43/32 155/41/32 
f 147/45/29 148/46/29 159/46/29 158/45/29 
f 140/40/37 136/37/37 160/37/37 141/40/37 
f 144/42/33 143/41/33 155/41/33 154/42/33 
f 146/44/30 147/45/30 158/45/30 157/44/30 
f 161/49/3 162/49/3 163/50/3 164/50/3 
f 162/49/14 165/51/14 166/52/14 163/50/14 
f 165/51/38 167/51/38 168/52/38 166/52/38 
f 167/51/15 161/49/15 164/50/15 168/52/15 
f 164/50/16 163/50/16 166/52/16 168/52/16 
f 167/51/2 165/51/2 162/49/2 161/49/2 
f 169/53/3 170/53/3 171/54/3 172/54/3 
s 1
f 173/55/6 174/56/8 175/57/8 176/58/6 
s off
f 174/56/39 177/56/39 178/57/39 175/57/39 
s 1
f 179/55/5 169/53/5 172/54/5 180/58/5 
s off
f 180/58/40 176/58/40 175/57/40 178/57/40 
f 179/55/41 173/55/41 170/53/41 169/53/41 
f 177/56/42 174/56/42 173/55/42 179/55/42 
f 172/54/43 171/54/43 176/58/43 180/58/43 
s 1
f 177/56/12 179/55/5 180/58/5 178/57/12 
f 170/53/6 173/55/6 176/58/6 171/54/6 
s off
f 181/59/44 182/60/44 183/61/44 184/62/44 
f 184/62/45 183/61/45 185/63/45 186/64/45 
f 186/64/46 185/63/46 187/63/46 188/64/46 
f 188/64/47 187/63/47 189/63/47 190/64/47 
f 190/64/48 189/63/48 191/61/48 192/62/48 
f 192/62/49 191/61/49 193/60/49 194/59/49 
f 194/59/50 193/60/50 195/65/50 196/66/50 
f 196/66/51 195/65/51 197/67/51 198/68/51 
f 198/68/52 197/67/52 199/67/52 200/68/52 
f 200/68/53 199/67/53 201/67/53 202/68/53 
f 183/61/10 182/60/10 203/65/10 201/67/10 
f 183/61/2 201/67/2 199/67/2 197/67/2 
f 183/61/2 197/67/2 195/65/2 193/60/2 
f 183/61/2 193/60/2 191/61/2 189/63/2 
f 183/61/2 189/63/2 187/63/2 185/63/2 
f 202/68/54 201/67/54 203/65/54 204/66/54 
f 204/66/55 203/65/55 182/60/55 181/59/55 
f 181/59/7 184/62/7 186/64/7 188/64/7 
f 181/59/7 188/64/7 190/64/7 192/62/7 
f 181/59/7 192/62/7 194/59/7 196/66/7 
f 181/59/7 196/66/7 198/68/7 200/68/7 
f 181/59/7 200/68/7 202/68/7 204/66/7 
f 205/69/44 206/70/44 207/71/44 208/72/44 
f 208/72/45 207/71/45 209/73/45 210/74/45 
f 210/74/46 209/73/46 211/75/46 212/76/46 
f 212/76/47 211/75/47 213/73/47 214/74/47 
f 214/74/48 213/73/48 215/71/48 216/72/48 
f 216/72/56 215/71/56 217/70/56 218/69/56 
f 218/69/50 217/70/50 219/77/50 220/78/50 
f 220/78/51 219/77/51 221/79/51 222/80/51 
f 222/80/57 221/79/57 223/79/57 224/80/57 
f 224/80/53 223/79/53 225/79/53 226/80/53 
f 207/71/2 206/70/2 227/77/2 225/79/2 
f 207/71/2 225/79/2 223/79/2 221/79/2 
f 207/71/10 221/79/10 219/77/10 217/70/10 
f 207/71/10 217/70/10 215/71/10 213/73/10 
f 207/71/2 213/73/2 211/75/2 209/73/2 
f 226/80/54 225/79/54 227/77/54 228/78/54 
f 228/78/55 227/77/55 206/70/55 205/69/55 
f 205/69/16 208/72/16 210/74/16 212/76/16 
f 205/69/4 212/76/4 214/74/4 216/72/4 
f 205/69/7 216/72/7 218/69/7 220/78/7 
f 205/69/7 220/78/7 222/80/7 224/80/7 
f 205/69/7 224/80/7 226/80/7 228/78/7 
f 229/81/24 230/81/24 231/82/24 232/82/24 
f 232/82/25 231/82/25 233/83/25 234/83/25 
f 234/83/37 233/83/37 235/84/37 236/84/37 
f 236/84/36 235/84/36 237/85/36 238/85/36 
f 238/85/28 237/85/28 239/86/28 240/86/28 
f 240/86/29 239/86/29 241/87/29 242/87/29 
f 242/87/58 241/87/58 243/88/58 244/88/58 
f 244/88/59 243/88/59 245/89/59 246/89/59 
f 246/89/32 245/89/32 247/90/32 248/90/32 
f 248/90/33 247/90/33 249/91/33 250/91/33 
s 1
f 233/83/21 231/82/15 251/92/15 252/93/21 
s off
f 250/91/34 249/91/34 253/94/34 254/94/34 
f 254/94/35 253/94/35 230/81/35 229/81/35 
f 229/81/14 232/82/14 234/83/14 236/84/14 
f 229/81/8 236/84/8 238/85/8 240/86/8 
f 229/81/8 240/86/8 242/87/8 244/88/8 
f 229/81/8 244/88/8 246/89/8 248/90/8 
f 229/81/6 248/90/6 250/91/6 254/94/6 
f 255/95/36 256/96/36 257/96/36 258/95/36 
s 2
f 249/91/5 247/90/5 259/97/5 260/98/5 
f 247/90/5 245/89/5 261/99/5 259/97/5 
s off
f 245/89/5 243/88/5 262/100/5 261/99/5 
s 1
f 243/88/12 241/87/12 263/101/12 262/100/12 
f 241/87/12 239/86/21 264/102/21 263/101/12 
f 239/86/21 237/85/5 255/95/5 264/102/21 
s 2
f 237/85/5 235/84/5 256/96/5 255/95/5 
f 230/81/5 253/94/5 265/103/5 266/104/5 
s 1
f 231/82/15 230/81/21 266/104/15 251/92/15 
s 2
f 235/84/5 233/83/5 252/93/5 256/96/5 
f 253/94/5 249/91/5 260/98/5 265/103/5 
s off
f 267/92/21 268/104/21 269/103/21 270/98/21 
f 267/92/12 270/98/12 271/97/12 272/99/12 
f 267/92/5 272/99/5 273/100/5 274/101/5 
f 267/92/5 274/101/5 275/102/5 258/95/5 
f 267/92/5 258/95/5 257/96/5 276/93/5 
f 265/103/34 260/98/34 270/98/34 269/103/34 
f 251/92/24 266/104/24 268/104/24 267/92/24 
f 261/99/59 262/100/59 273/100/59 272/99/59 
f 264/102/28 255/95/28 258/95/28 275/102/28 
f 266/104/35 265/103/35 269/103/35 268/104/35 
f 252/93/25 251/92/25 267/92/25 276/93/25 
f 259/97/60 261/99/60 272/99/60 271/97/60 
f 263/101/29 264/102/29 275/102/29 274/101/29 
f 256/96/37 252/93/37 276/93/37 257/96/37 
f 260/98/33 259/97/33 271/97/33 270/98/33 
f 262/100/30 263/101/30 274/101/30 273/100/30 
f 277/105/24 278/105/24 279/106/24 280/106/24 
f 280/106/25 279/106/25 281/107/25 282/107/25 
f 282/107/37 281/107/37 283/108/37 284/108/37 
f 284/108/36 283/108/36 285/109/36 286/109/36 
f 286/109/28 285/109/28 287/110/28 288/110/28 
f 288/110/29 287/110/29 289/111/29 290/111/29 
f 290/111/30 289/111/30 291/112/30 292/112/30 
f 292/112/31 291/112/31 293/113/31 294/113/31 
f 294/113/32 293/113/32 295/114/32 296/114/32 
f 296/114/33 295/114/33 297/115/33 298/115/33 
s 1
f 281/107/5 279/106/5 299/116/5 300/117/5 
s off
f 298/115/34 297/115/34 301/118/34 302/118/34 
f 302/118/35 301/118/35 278/105/35 277/105/35 
f 277/105/8 280/106/8 282/107/8 284/108/8 
f 277/105/6 284/108/6 286/109/6 288/110/6 
f 277/105/6 288/110/6 290/111/6 292/112/6 
f 277/105/6 292/112/6 294/113/6 296/114/6 
f 277/105/23 296/114/23 298/115/23 302/118/23 
f 303/119/36 304/120/36 305/120/36 306/119/36 
s 1
f 297/115/5 295/114/5 307/121/15 308/122/5 
f 295/114/5 293/113/12 309/123/12 307/121/15 
f 293/113/12 291/112/5 310/124/12 309/123/12 
s off
f 291/112/5 289/111/5 311/125/5 310/124/5 
s 1
f 289/111/5 287/110/5 312/126/5 311/125/5 
f 287/110/5 285/109/5 303/119/5 312/126/5 
f 285/109/5 283/108/5 304/120/5 303/119/5 
f 278/105/5 301/118/5 313/127/5 314/128/15 
f 279/106/5 278/105/5 314/128/15 299/116/5 
s off
f 283/108/5 281/107/5 300/117/5 304/120/5 
s 1
f 301/118/5 297/115/5 308/122/5 313/127/5 
s off
f 315/116/5 316/128/5 317/127/5 318/122/5 
f 315/116/5 318/122/5 319/121/5 320/123/5 
f 315/116/5 320/123/5 321/124/5 322/125/5 
f 315/116/5 322/125/5 323/126/5 306/119/5 
f 315/116/5 306/119/5 305/120/5 324/117/5 
f 313/127/34 308/122/34 318/122/34 317/127/34 
f 299/116/24 314/128/24 316/128/24 315/116/24 
f 309/123/31 310/124/31 321/124/31 320/123/31 
f 312/126/28 303/119/28 306/119/28 323/126/28 
f 314/128/35 313/127/35 317/127/35 316/128/35 
f 300/117/25 299/116/25 315/116/25 324/117/25 
f 307/121/32 309/123/32 320/123/32 319/121/32 
f 311/125/29 312/126/29 323/126/29 322/125/29 
f 304/120/37 300/117/37 324/117/37 305/120/37 
f 308/122/33 307/121/33 319/121/33 318/122/33 
f 310/124/30 311/125/30 322/125/30 321/124/30 
f 325/129/44 326/130/44 327/131/44 328/132/44 
f 328/132/45 327/131/45 329/133/45 330/134/45 
f 330/134/46 329/133/46 331/133/46 332/134/46 
f 332/134/47 331/133/47 333/133/47 334/134/47 
f 334/134/48 333/133/48 335/131/48 336/132/48 
f 336/132/56 335/131/56 337/130/56 338/129/56 
f 338/129/50 337/130/50 339/135/50 340/136/50 
f 340/136/51 339/135/51 341/137/51 342/138/51 
f 342/138/52 341/137/52 343/137/52 344/138/52 
f 344/138/53 343/137/53 345/137/53 346/138/53 
f 327/131/10 326/130/10 347/135/10 345/137/10 
f 327/131/10 345/137/10 343/137/10 341/137/10 
f 327/131/2 341/137/2 339/135/2 337/130/2 
f 327/131/17 337/130/17 335/131/17 333/133/17 
f 327/131/17 333/133/17 331/133/17 329/133/17 
f 346/138/54 345/137/54 347/135/54 348/136/54 
f 348/136/55 347/135/55 326/130/55 325/129/55 
f 325/129/7 328/132/7 330/134/7 332/134/7 
f 325/129/7 332/134/7 334/134/7 336/132/7 
f 325/129/7 336/132/7 338/129/7 340/136/7 
f 325/129/7 340/136/7 342/138/7 344/138/7 
f 325/129/7 344/138/7 346/138/7 348/136/7 
f 349/139/44 350/140/44 351/141/44 352/142/44 
f 352/142/45 351/141/45 353/143/45 354/144/45 
f 354/144/46 353/143/46 355/143/46 356/144/46 
f 356/144/47 355/143/47 357/143/47 358/144/47 
f 358/144/48 357/143/48 359/141/48 360/142/48 
f 360/142/56 359/141/56 361/140/56 362/139/56 
f 362/139/50 361/140/50 363/145/50 364/146/50 
f 364/146/51 363/145/51 365/147/51 366/148/51 
f 366/148/52 365/147/52 367/147/52 368/148/52 
f 368/148/53 367/147/53 369/147/53 370/148/53 
f 351/141/2 350/140/2 371/145/2 369/147/2 
f 351/141/2 369/147/2 367/147/2 365/147/2 
f 351/141/2 365/147/2 363/145/2 361/140/2 
f 351/141/17 361/140/17 359/141/17 357/143/17 
f 351/141/2 357/143/2 355/143/2 353/143/2 
f 370/148/54 369/147/54 371/145/54 372/146/54 
f 372/146/55 371/145/55 350/140/55 349/139/55 
f 349/139/7 352/142/7 354/144/7 356/144/7 
f 349/139/7 356/144/7 358/144/7 360/142/7 
f 349/139/4 360/142/4 362/139/4 364/146/4 
f 349/139/4 364/146/4 366/148/4 368/148/4 
f 349/139/16 368/148/16 370/148/16 372/146/16 
f 373/149/11 374/149/11 375/150/11 376/150/11 
s 1
f 377/151/6 378/152/6 379/153/6 380/154/6 
s off
f 378/152/1 381/152/1 382/153/1 379/153/1 
s 1
f 383/151/5 373/149/12 376/150/12 384/154/5 
s off
f 384/154/40 380/154/40 379/153/40 382/153/40 
f 383/151/41 377/151/41 374/149/41 373/149/41 
f 381/152/42 378/152/42 377/151/42 383/151/42 
f 376/150/43 375/150/43 380/154/43 384/154/43 
s 1
f 381/152/5 383/151/5 384/154/5 382/153/5 
f 374/149/8 377/151/6 380/154/6 375/150/8 
s off
f 385/155/11 386/155/11 387/156/11 388/156/11 
f 386/155/14 389/157/14 390/158/14 387/156/14 
f 389/157/1 391/157/1 392/158/1 390/158/1 
f 391/157/15 385/155/15 388/156/15 392/158/15 
f 388/156/16 387/156/16 390/158/16 392/158/16 
f 391/157/2 389/157/2 386/155/2 385/155/2 
f 393/159/24 394/159/24 395/160/24 396/160/24 
f 396/160/25 395/160/25 397/161/25 398/161/25 
f 398/161/37 397/161/37 399/162/37 400/162/37 
f 400/162/36 399/162/36 401/163/36 402/163/36 
f 402/163/28 401/163/28 403/164/28 404/164/28 
f 404/164/29 403/164/29 405/165/29 406/165/29 
f 406/165/30 405/165/30 407/166/30 408/166/30 
f 408/166/31 407/166/31 409/167/31 410/167/31 
f 410/167/32 409/167/32 411/168/32 412/168/32 
f 412/168/33 411/168/33 413/169/33 414/169/33 
s 1
f 397/161/5 395/160/12 415/170/12 416/171/5 
s off
f 414/169/34 413/169/34 417/172/34 418/172/34 
f 418/172/35 417/172/35 394/159/35 393/159/35 
f 393/159/8 396/160/8 398/161/8 400/162/8 
f 393/159/6 400/162/6 402/163/6 404/164/6 
f 393/159/8 404/164/8 406/165/8 408/166/8 
f 393/159/8 408/166/8 410/167/8 412/168/8 
f 393/159/6 412/168/6 414/169/6 418/172/6 
f 419/173/36 420/174/36 421/174/36 422/173/36 
s 1
f 413/169/15 411/168/15 423/175/15 424/176/5 
f 411/168/15 409/167/21 425/177/21 423/175/15 
s 2
f 409/167/5 407/166/5 426/178/5 425/177/5 
f 407/166/5 405/165/5 427/179/5 426/178/5 
s off
f 405/165/5 403/164/5 428/180/5 427/179/5 
f 403/164/5 401/163/5 419/173/5 428/180/5 
s 2
f 401/163/5 399/162/5 420/174/5 419/173/5 
s 1
f 394/159/12 417/172/12 429/181/12 430/182/12 
f 395/160/12 394/159/12 430/182/12 415/170/12 
s 2
f 399/162/5 397/161/5 416/171/5 420/174/5 
s off
f 417/172/5 413/169/5 424/176/5 429/181/5 
f 431/170/12 432/182/12 433/181/12 434/176/12 
f 431/170/12 434/176/12 435/175/12 436/177/12 
f 431/170/5 436/177/5 437/178/5 438/179/5 
f 431/170/5 438/179/5 439/180/5 422/173/5 
f 431/170/12 422/173/12 421/174/12 440/171/12 
f 429/181/34 424/176/34 434/176/34 433/181/34 
f 415/170/24 430/182/24 432/182/24 431/170/24 
f 425/177/31 426/178/31 437/178/31 436/177/31 
f 428/180/28 419/173/28 422/173/28 439/180/28 
f 430/182/35 429/181/35 433/181/35 432/182/35 
f 416/171/25 415/170/25 431/170/25 440/171/25 
f 423/175/32 425/177/32 436/177/32 435/175/32 
f 427/179/61 428/180/61 439/180/61 438/179/61 
f 420/174/37 416/171/37 440/171/37 421/174/37 
f 424/176/33 423/175/33 435/175/33 434/176/33 
f 426/178/30 427/179/30 438/179/30 437/178/30 
f 441/81/62 442/81/62 443/94/62 444/94/62 
f 444/94/63 443/94/63 445/91/63 446/91/63 
f 446/91/33 445/91/33 447/90/33 448/90/33 
f 448/90/32 447/90/32 449/89/32 450/89/32 
f 450/89/31 449/89/31 451/88/31 452/88/31 
f 452/88/30 451/88/30 453/87/30 454/87/30 
f 454/87/29 453/87/29 455/86/29 456/86/29 
f 456/86/28 455/86/28 457/85/28 458/85/28 
f 458/85/36 457/85/36 459/84/36 460/84/36 
f 460/84/37 459/84/37 461/83/37 462/83/37 
s 1
f 445/91/23 443/94/8 463/103/8 464/98/23 
s off
f 462/83/25 461/83/25 465/82/25 466/82/25 
f 466/82/24 465/82/24 442/81/24 441/81/24 
f 441/81/5 444/94/5 446/91/5 448/90/5 
f 441/81/21 448/90/21 450/89/21 452/88/21 
f 441/81/21 452/88/21 454/87/21 456/86/21 
f 441/81/12 456/86/12 458/85/12 460/84/12 
f 441/81/15 460/84/15 462/83/15 466/82/15 
f 467/99/32 468/183/32 469/183/32 470/99/32 
s 2
f 461/83/23 459/84/23 471/96/23 472/93/14 
f 459/84/23 457/85/23 473/95/23 471/96/23 
f 457/85/23 455/86/23 474/102/23 473/95/23 
f 455/86/23 453/87/23 475/101/23 474/102/23 
s 4
f 453/87/6 451/88/23 476/100/23 475/101/6 
f 451/88/23 449/89/23 467/99/23 476/100/23 
s 1
f 449/89/23 447/90/23 468/183/23 467/99/23 
s 2
f 442/81/14 465/82/14 477/92/14 478/104/23 
s 1
f 443/94/8 442/81/6 478/104/8 463/103/8 
f 447/90/23 445/91/23 464/98/23 468/183/23 
s 2
f 465/82/14 461/83/23 472/93/14 477/92/14 
s off
f 479/103/8 480/104/8 481/92/8 482/93/8 
f 479/103/23 482/93/23 483/96/23 484/95/23 
f 479/103/14 484/95/14 485/102/14 486/101/14 
f 479/103/8 486/101/8 487/100/8 470/99/8 
f 479/103/23 470/99/23 469/183/23 488/98/23 
f 477/92/25 472/93/25 482/93/25 481/92/25 
f 463/103/35 478/104/35 480/104/35 479/103/35 
f 473/95/28 474/102/28 485/102/28 484/95/28 
f 476/100/31 467/99/31 470/99/31 487/100/31 
f 478/104/24 477/92/24 481/92/24 480/104/24 
f 464/98/34 463/103/34 479/103/34 488/98/34 
f 471/96/36 473/95/36 484/95/36 483/96/36 
f 475/101/58 476/100/58 487/100/58 486/101/58 
f 468/183/33 464/98/33 488/98/33 469/183/33 
f 472/93/37 471/96/37 483/96/37 482/93/37 
f 474/102/61 475/101/61 486/101/61 485/102/61 
f 489/51/38 490/51/38 491/52/38 492/52/38 
f 490/51/15 493/184/15 494/185/15 491/52/15 
f 493/184/3 495/184/3 496/185/3 494/185/3 
f 495/184/14 489/51/14 492/52/14 496/185/14 
f 492/52/16 491/52/16 494/185/16 496/185/16 
f 495/184/2 493/184/2 490/51/2 489/51/2 
f 497/56/39 498/56/39 499/57/39 500/57/39 
s 1
f 501/55/21 502/53/5 503/54/5 504/58/21 
s off
f 502/53/3 505/53/3 506/54/3 503/54/3 
s 1
f 507/55/23 497/56/14 500/57/14 508/58/23 
s off
f 508/58/43 504/58/43 503/54/43 506/54/43 
f 507/55/42 501/55/42 498/56/42 497/56/42 
f 505/53/41 502/53/41 501/55/41 507/55/41 
f 500/57/40 499/57/40 504/58/40 508/58/40 
s 1
f 505/53/23 507/55/23 508/58/23 506/54/23 
f 498/56/15 501/55/21 504/58/21 499/57/15 
s off
f 509/69/64 510/70/64 511/77/64 512/78/64 
f 512/78/51 511/77/51 513/186/51 514/187/51 
f 514/187/52 513/186/52 515/79/52 516/80/52 
f 516/80/53 515/79/53 517/186/53 518/187/53 
f 518/187/54 517/186/54 519/77/54 520/78/54 
f 520/78/55 519/77/55 521/70/55 522/69/55 
f 522/69/44 521/70/44 523/73/44 524/74/44 
f 524/74/45 523/73/45 525/75/45 526/76/45 
f 526/76/46 525/75/46 527/75/46 528/76/46 
f 528/76/47 527/75/47 529/75/47 530/76/47 
f 511/77/2 510/70/2 531/73/2 529/75/2 
f 511/77/2 529/75/2 527/75/2 525/75/2 
f 511/77/17 525/75/17 523/73/17 521/70/17 
f 511/77/17 521/70/17 519/77/17 517/186/17 
f 511/77/17 517/186/17 515/79/17 513/186/17 
f 530/76/48 529/75/48 531/73/48 532/74/48 
f 532/74/56 531/73/56 510/70/56 509/69/56 
f 509/69/7 512/78/7 514/187/7 516/80/7 
f 509/69/7 516/80/7 518/187/7 520/78/7 
f 509/69/7 520/78/7 522/69/7 524/74/7 
f 509/69/16 524/74/16 526/76/16 528/76/16 
f 509/69/4 528/76/4 530/76/4 532/74/4 
f 533/59/64 534/60/64 535/65/64 536/66/64 
f 536/66/51 535/65/51 537/67/51 538/68/51 
f 538/68/57 537/67/57 539/67/57 540/68/57 
f 540/68/53 539/67/53 541/67/53 542/68/53 
f 542/68/54 541/67/54 543/65/54 544/66/54 
f 544/66/55 543/65/55 545/60/55 546/59/55 
f 546/59/44 545/60/44 547/61/44 548/62/44 
f 548/62/45 547/61/45 549/63/45 550/64/45 
f 550/64/46 549/63/46 551/188/46 552/189/46 
f 552/189/47 551/188/47 553/63/47 554/64/47 
f 535/65/2 534/60/2 555/61/2 553/63/2 
f 535/65/2 553/63/2 551/188/2 549/63/2 
f 535/65/2 549/63/2 547/61/2 545/60/2 
f 535/65/2 545/60/2 543/65/2 541/67/2 
f 535/65/2 541/67/2 539/67/2 537/67/2 
f 554/64/48 553/63/48 555/61/48 556/62/48 
f 556/62/56 555/61/56 534/60/56 533/59/56 
f 533/59/13 536/66/13 538/68/13 540/68/13 
f 533/59/7 540/68/7 542/68/7 544/66/7 
f 533/59/7 544/66/7 546/59/7 548/62/7 
f 533/59/7 548/62/7 550/64/7 552/189/7 
f 533/59/7 552/189/7 554/64/7 556/62/7 
f 557/25/35 558/25/35 559/38/35 560/38/35 
f 560/38/34 559/38/34 561/35/34 562/35/34 
f 562/35/65 561/35/65 563/34/65 564/34/65 
f 564/34/32 563/34/32 565/33/32 566/33/32 
f 566/33/31 565/33/31 567/32/31 568/32/31 
f 568/32/30 567/32/30 569/31/30 570/31/30 
f 570/31/29 569/31/29 571/190/29 572/190/29 
f 572/190/28 571/190/28 573/191/28 574/191/28 
f 574/191/36 573/191/36 575/192/36 576/192/36 
f 576/192/37 575/192/37 577/193/37 578/193/37 
s 3
f 561/35/23 559/38/23 579/194/23 580/42/23 
s off
f 578/193/25 577/193/25 581/195/25 582/195/25 
f 582/195/24 581/195/24 558/25/24 557/25/24 
f 557/25/21 560/38/21 562/35/21 564/34/21 
f 557/25/5 564/34/5 566/33/5 568/32/5 
f 557/25/21 568/32/21 570/31/21 572/190/21 
f 557/25/21 572/190/21 574/191/21 576/192/21 
f 557/25/21 576/192/21 578/193/21 582/195/21 
f 583/43/32 584/196/32 585/196/32 586/43/32 
s 1
f 577/193/23 575/192/23 587/40/23 588/37/8 
f 575/192/23 573/191/23 589/39/23 587/40/23 
f 573/191/23 571/190/23 590/46/23 589/39/23 
f 571/190/23 569/31/23 591/45/23 590/46/23 
f 569/31/23 567/32/23 592/197/23 591/45/23 
f 567/32/23 565/33/23 583/43/23 592/197/23 
f 565/33/23 563/34/23 584/196/23 583/43/23 
f 558/25/8 581/195/8 593/36/8 594/48/8 
s 2
f 559/38/23 558/25/23 594/48/23 579/194/23 
s 1
f 563/34/23 561/35/23 580/42/23 584/196/23 
f 581/195/8 577/193/23 588/37/8 593/36/8 
s off
f 595/194/14 596/48/14 597/36/14 598/37/14 
f 595/194/23 598/37/23 599/40/23 600/39/23 
f 595/194/23 600/39/23 601/46/23 602/45/23 
f 595/194/23 602/45/23 603/197/23 586/43/23 
f 595/194/8 586/43/8 585/196/8 604/42/8 
f 593/36/25 588/37/25 598/37/25 597/36/25 
f 579/194/35 594/48/35 596/48/35 595/194/35 
f 589/39/28 590/46/28 601/46/28 600/39/28 
f 592/197/31 583/43/31 586/43/31 603/197/31 
f 594/48/24 593/36/24 597/36/24 596/48/24 
f 580/42/34 579/194/34 595/194/34 604/42/34 
f 587/40/36 589/39/36 600/39/36 599/40/36 
f 591/45/30 592/197/30 603/197/30 602/45/30 
f 584/196/33 580/42/33 604/42/33 585/196/33 
f 588/37/37 587/40/37 599/40/37 598/37/37 
f 590/46/29 591/45/29 602/45/29 601/46/29 
f 605/159/35 606/159/35 607/172/35 608/172/35 
f 608/172/34 607/172/34 609/169/34 610/169/34 
f 610/169/33 609/169/33 611/168/33 612/168/33 
f 612/168/32 611/168/32 613/167/32 614/167/32 
f 614/167/31 613/167/31 615/166/31 616/166/31 
f 616/166/30 615/166/30 617/165/30 618/165/30 
f 618/165/29 617/165/29 619/198/29 620/198/29 
f 620/198/28 619/198/28 621/199/28 622/199/28 
f 622/199/36 621/199/36 623/200/36 624/200/36 
f 624/200/37 623/200/37 625/201/37 626/201/37 
s 1
f 609/169/23 607/172/14 627/202/23 628/176/23 
s off
f 626/201/66 625/201/66 629/203/66 630/203/66 
f 630/203/67 629/203/67 606/159/67 605/159/67 
f 605/159/5 608/172/5 610/169/5 612/168/5 
f 605/159/5 612/168/5 614/167/5 616/166/5 
f 605/159/12 616/166/12 618/165/12 620/198/12 
f 605/159/5 620/198/5 622/199/5 624/200/5 
f 605/159/12 624/200/12 626/201/12 630/203/12 
f 631/177/60 632/204/60 633/204/60 634/177/60 
s 1
f 625/201/23 623/200/23 635/174/23 636/171/8 
f 623/200/23 621/199/8 637/173/8 635/174/23 
f 621/199/8 619/198/6 638/180/6 637/173/8 
f 619/198/6 617/165/6 639/179/6 638/180/6 
f 617/165/6 615/166/23 640/205/23 639/179/6 
s off
f 615/166/14 613/167/14 631/177/14 640/205/14 
s 1
f 613/167/14 611/168/23 632/204/23 631/177/14 
f 606/159/8 629/203/8 641/170/8 642/182/23 
f 607/172/14 606/159/8 642/182/23 627/202/23 
f 611/168/23 609/169/23 628/176/23 632/204/23 
f 629/203/8 625/201/23 636/171/8 641/170/8 
s off
f 643/202/23 644/182/23 645/170/23 646/171/23 
f 643/202/23 646/171/23 647/174/23 648/173/23 
f 643/202/8 648/173/8 649/180/8 650/179/8 
f 643/202/8 650/179/8 651/205/8 634/177/8 
f 643/202/8 634/177/8 633/204/8 652/176/8 
f 641/170/25 636/171/25 646/171/25 645/170/25 
f 627/202/35 642/182/35 644/182/35 643/202/35 
f 637/173/28 638/180/28 649/180/28 648/173/28 
f 640/205/59 631/177/59 634/177/59 651/205/59 
f 642/182/24 641/170/24 645/170/24 644/182/24 
f 628/176/34 627/202/34 643/202/34 652/176/34 
f 635/174/36 637/173/36 648/173/36 647/174/36 
f 639/179/30 640/205/30 651/205/30 650/179/30 
f 632/204/33 628/176/33 652/176/33 633/204/33 
f 636/171/37 635/174/37 647/174/37 646/171/37 
f 638/180/29 639/179/29 650/179/29 649/180/29 
f 653/139/50 654/140/50 655/145/50 656/146/50 
f 656/146/51 655/145/51 657/147/51 658/148/51 
f 658/148/52 657/147/52 659/147/52 660/148/52 
f 660/148/53 659/147/53 661/147/53 662/148/53 
f 662/148/54 661/147/54 663/145/54 664/146/54 
f 664/146/55 663/145/55 665/140/55 666/139/55 
f 666/139/44 665/140/44 667/141/44 668/142/44 
f 668/142/45 667/141/45 669/143/45 670/144/45 
f 670/144/46 669/143/46 671/206/46 672/207/46 
f 672/207/47 671/206/47 673/143/47 674/144/47 
f 655/145/2 654/140/2 675/141/2 673/143/2 
f 655/145/2 673/143/2 671/206/2 669/143/2 
f 655/145/2 669/143/2 667/141/2 665/140/2 
f 655/145/2 665/140/2 663/145/2 661/147/2 
f 655/145/2 661/147/2 659/147/2 657/147/2 
f 674/144/48 673/143/48 675/141/48 676/142/48 
f 676/142/56 675/141/56 654/140/56 653/139/56 
f 653/139/4 656/146/4 658/148/4 660/148/4 
f 653/139/16 660/148/16 662/148/16 664/146/16 
f 653/139/4 664/146/4 666/139/4 668/142/4 
f 653/139/7 668/142/7 670/144/7 672/207/7 
f 653/139/7 672/207/7 674/144/7 676/142/7 
f 677/129/50 678/130/50 679/135/50 680/136/50 
f 680/136/51 679/135/51 681/208/51 682/209/51 
f 682/209/52 681/208/52 683/137/52 684/138/52 
f 684/138/53 683/137/53 685/208/53 686/209/53 
f 686/209/54 685/208/54 687/135/54 688/136/54 
f 688/136/55 687/135/55 689/130/55 690/129/55 
f 690/129/44 689/130/44 691/210/44 692/211/44 
f 692/211/45 691/210/45 693/133/45 694/134/45 
f 694/134/46 693/133/46 695/133/46 696/134/46 
f 696/134/47 695/133/47 697/133/47 698/134/47 
f 679/135/10 678/130/10 699/210/10 697/133/10 
f 679/135/17 697/133/17 695/133/17 693/133/17 
f 679/135/17 693/133/17 691/210/17 689/130/17 
f 679/135/2 689/130/2 687/135/2 685/208/2 
f 679/135/2 685/208/2 683/137/2 681/208/2 
f 698/134/48 697/133/48 699/210/48 700/211/48 
f 700/211/56 699/210/56 678/130/56 677/129/56 
f 677/129/7 680/136/7 682/209/7 684/138/7 
f 677/129/7 684/138/7 686/209/7 688/136/7 
f 677/129/7 688/136/7 690/129/7 692/211/7 
f 677/129/7 692/211/7 694/134/7 696/134/7 
f 677/129/7 696/134/7 698/134/7 700/211/7 
f 701/152/1 702/152/1 703/153/1 704/153/1 
s 1
f 705/151/15 706/149/15 707/150/15 708/154/21 
s off
f 706/149/11 709/149/11 710/150/11 707/150/11 
s 1
f 711/151/23 701/152/23 704/153/23 712/154/23 
s off
f 712/154/43 708/154/43 707/150/43 710/150/43 
f 711/151/42 705/151/42 702/152/42 701/152/42 
f 709/149/41 706/149/41 705/151/41 711/151/41 
f 704/153/40 703/153/40 708/154/40 712/154/40 
s 1
f 709/149/14 711/151/23 712/154/23 710/150/14 
f 702/152/5 705/151/15 708/154/21 703/153/5 
s off
f 713/157/1 714/157/1 715/158/1 716/158/1 
f 714/157/15 717/212/15 718/213/15 715/158/15 
f 717/212/11 719/212/11 720/213/11 718/213/11 
f 719/212/23 713/157/23 716/158/23 720/213/23 
f 716/158/16 715/158/16 718/213/16 720/213/16 
f 719/212/2 717/212/2 714/157/2 713/157/2 
f 721/105/62 722/105/62 723/118/62 724/118/62 
f 724/118/63 723/118/63 725/115/63 726/115/63 
f 726/115/33 725/115/33 727/114/33 728/114/33 
f 728/114/32 727/114/32 729/113/32 730/113/32 
f 730/113/31 729/113/31 731/112/31 732/112/31 
f 732/112/30 731/112/30 733/111/30 734/111/30 
f 734/111/29 733/111/29 735/110/29 736/110/29 
f 736/110/28 735/110/28 737/109/28 738/109/28 
f 738/109/36 737/109/36 739/108/36 740/108/36 
f 740/108/37 739/108/37 741/107/37 742/107/37 
s 1
f 725/115/8 723/118/14 743/127/14 744/122/8 
s off
f 742/107/25 741/107/25 745/106/25 746/106/25 
f 746/106/24 745/106/24 722/105/24 721/105/24 
f 721/105/21 724/118/21 726/115/21 728/114/21 
f 721/105/21 728/114/21 730/113/21 732/112/21 
f 721/105/21 732/112/21 734/111/21 736/110/21 
f 721/105/12 736/110/12 738/109/12 740/108/12 
f 721/105/5 740/108/5 742/107/5 746/106/5 
f 747/123/60 748/214/60 749/214/60 750/123/60 
s 2
f 741/107/23 739/108/8 751/120/23 752/117/23 
s 1
f 739/108/23 737/109/23 753/119/23 751/120/23 
f 737/109/23 735/110/23 754/126/23 753/119/23 
f 735/110/23 733/111/23 755/125/23 754/126/23 
f 733/111/23 731/112/23 756/124/23 755/125/23 
f 731/112/23 729/113/23 747/123/23 756/124/23 
f 729/113/23 727/114/8 748/214/8 747/123/23 
f 722/105/23 745/106/23 757/116/23 758/128/14 
f 723/118/14 722/105/23 758/128/14 743/127/14 
f 727/114/8 725/115/8 744/122/8 748/214/8 
s 3
f 745/106/23 741/107/23 752/117/23 757/116/23 
s off
f 759/127/23 760/128/23 761/116/23 762/117/23 
f 759/127/23 762/117/23 763/120/23 764/119/23 
f 759/127/8 764/119/8 765/126/8 766/125/8 
f 759/127/23 766/125/23 767/124/23 750/123/23 
f 759/127/23 750/123/23 749/214/23 768/122/23 
f 757/116/66 752/117/66 762/117/66 761/116/66 
f 743/127/35 758/128/35 760/128/35 759/127/35 
f 753/119/28 754/126/28 765/126/28 764/119/28 
f 756/124/59 747/123/59 750/123/59 767/124/59 
f 758/128/24 757/116/24 761/116/24 760/128/24 
f 744/122/34 743/127/34 759/127/34 768/122/34 
f 751/120/36 753/119/36 764/119/36 763/120/36 
f 755/125/30 756/124/30 767/124/30 766/125/30 
f 748/214/33 744/122/33 768/122/33 749/214/33 
f 752/117/26 751/120/26 763/120/26 762/117/26 
f 754/126/29 755/125/29 766/125/29 765/126/29 
f 769/215/68 770/215/68 771/216/68 772/216/68 
s 1
f 773/217/23 769/215/23 772/216/23 774/218/14 
s off
f 775/219/1 776/219/1 770/215/1 769/215/1 
s 1
f 770/215/21 777/217/21 778/218/21 771/216/21 
s off
f 772/216/7 771/216/7 778/218/7 774/218/7 
f 777/217/69 773/217/69 774/218/69 778/218/69 
s 1
f 779/220/23 775/219/23 769/215/23 773/217/23 
s 2
f 780/221/2 781/222/2 782/220/2 776/219/2 
f 783/221/2 780/221/2 776/219/2 775/219/2 
f 779/220/2 782/220/2 781/222/2 784/222/2 
f 775/219/2 779/220/2 784/222/2 783/221/2 
s 1
f 776/219/21 782/220/21 777/217/21 770/215/21 
s off
f 782/220/3 779/220/3 773/217/3 777/217/3 
f 785/223/70 786/224/70 787/224/70 788/223/70 
s 1
f 789/225/21 790/226/15 786/224/15 785/223/21 
s off
f 780/227/3 783/227/3 785/223/3 788/223/3 
s 1
f 788/223/23 787/224/23 791/226/23 792/225/23 
s off
f 786/224/10 790/226/10 791/226/10 787/224/10 
f 792/225/71 791/226/71 790/226/71 789/225/71 
s 1
f 783/227/21 784/228/21 789/225/21 785/223/21 
f 781/228/23 780/227/23 788/223/23 792/225/23 
s off
f 784/228/1 781/228/1 792/225/1 789/225/1 
f 793/229/3 794/230/3 795/231/3 796/232/3 
f 794/229/14 797/230/14 798/231/14 795/232/14 
f 797/229/1 799/230/1 800/231/1 798/232/1 
f 799/229/15 793/230/15 796/231/15 800/232/15 
f 796/229/7 795/230/7 798/231/7 800/232/7 
f 799/229/2 797/230/2 794/231/2 793/232/2 
f 801/229/3 802/230/3 803/231/3 804/232/3 
f 802/229/23 805/230/23 806/231/23 803/232/23 
f 805/229/1 807/230/1 808/231/1 806/232/1 
f 807/229/5 801/230/5 804/231/5 808/232/5 
f 804/229/7 803/230/7 806/231/7 808/232/7 
f 807/229/17 805/230/17 802/231/17 801/232/17 
f 809/229/3 810/230/3 811/231/3 812/232/3 
f 810/229/23 813/230/23 814/231/23 811/232/23 
f 813/229/1 815/230/1 816/231/1 814/232/1 
f 815/229/5 809/230/5 812/231/5 816/232/5 
f 812/229/7 811/230/7 814/231/7 816/232/7 
f 815/229/2 813/230/2 810/231/2 809/232/2 
f 817/229/3 818/230/3 819/231/3 820/232/3 
f 818/229/14 821/230/14 822/231/14 819/232/14 
f 821/229/1 823/230/1 824/231/1 822/232/1 
f 823/229/15 817/230/15 820/231/15 824/232/15 
f 820/229/7 819/230/7 822/231/7 824/232/7 
f 823/229/2 821/230/2 818/231/2 817/232/2 
f 825/229/3 826/230/3 827/231/3 828/232/3 
f 826/229/14 829/230/14 830/231/14 827/232/14 
f 829/229/1 831/230/1 832/231/1 830/232/1 
f 831/229/15 825/230/15 828/231/15 832/232/15 
f 828/229/7 827/230/7 830/231/7 832/232/7 
f 831/229/2 829/230/2 826/231/2 825/232/2 
f 833/229/1 834/230/1 835/231/1 836/232/1 
f 834/229/12 837/230/12 838/231/12 835/232/12 
f 837/229/3 839/230/3 840/231/3 838/232/3 
f 839/229/8 833/230/8 836/231/8 840/232/8 
f 836/229/7 835/230/7 838/231/7 840/232/7 
f 839/229/2 837/230/2 834/231/2 833/232/2 
f 841/229/1 842/230/1 843/231/1 844/232/1 
f 842/229/5 845/230/5 846/231/5 843/232/5 
f 845/229/3 847/230/3 848/231/3 846/232/3 
f 847/229/23 841/230/23 844/231/23 848/232/23 
f 844/229/16 843/230/16 846/231/16 848/232/16 
f 847/229/2 845/230/2 842/231/2 841/232/2 
f 849/229/1 850/230/1 851/231/1 852/232/1 
f 850/229/5 853/230/5 854/231/5 851/232/5 
f 853/229/3 855/230/3 856/231/3 854/232/3 
f 855/229/23 849/230/23 852/231/23 856/232/23 
f 852/229/7 851/230/7 854/231/7 856/232/7 
f 855/229/2 853/230/2 850/231/2 849/232/2 
f 857/229/1 858/230/1 859/231/1 860/232/1 
f 858/229/15 861/230/15 862/231/15 859/232/15 
f 861/229/3 863/230/3 864/231/3 862/232/3 
f 863/229/6 857/230/6 860/231/6 864/232/6 
f 860/229/7 859/230/7 862/231/7 864/232/7 
f 863/229/17 861/230/17 858/231/17 857/232/17 
f 865/229/1 866/230/1 867/231/1 868/232/1 
f 866/229/21 869/230/21 870/231/21 867/232/21 
f 869/229/3 871/230/3 872/231/3 870/232/3 
f 871/229/14 865/230/14 868/231/14 872/232/14 
f 868/229/7 867/230/7 870/231/7 872/232/7 
f 871/229/2 869/230/2 866/231/2 865/232/2 
# 782 polygons

