# 3ds Max Wavefront OBJ Exporter v0.97b - (c)2007 guruware
# File Created: 15.03.2017 11:58:05

mtllib SPW_Vehicle_Train_Freight Train_Trailer_05.mtl

#
# object SPW_Vehicle_Train_Freight_Train_Trailer_05
#

v  65.3996 132.1434 243.7622
v  -65.4276 132.1434 243.7622
v  -65.4276 115.1988 243.7622
v  65.3996 115.1988 243.7622
v  -65.4276 132.1434 -0.6194
v  -65.4276 132.1435 -245.0009
v  -65.4276 115.1988 -245.0009
v  -65.4276 115.1988 -0.6194
v  65.3996 132.1435 -245.0009
v  65.3996 115.1988 -245.0009
v  65.3996 132.1434 -0.6193
v  65.3996 115.1988 -0.6193
v  65.3996 133.4830 -245.0009
v  -65.4276 133.4830 -245.0009
v  -17.9812 151.8263 -174.7868
v  17.9531 151.8263 -174.7868
v  65.3996 133.4829 -0.6193
v  65.3996 133.4829 243.7622
v  -65.4276 133.4829 -0.6194
v  -65.4276 133.4829 243.7622
v  -17.9812 151.8262 173.5481
v  -17.9812 151.8263 -0.6194
v  17.9531 151.8263 -0.6193
v  17.9531 151.8262 173.5481
v  -67.5519 103.7314 -248.5736
v  -62.3410 103.7314 -248.5736
v  -62.3410 48.0724 -248.5736
v  -67.5519 48.0724 -248.5736
v  -62.3410 103.7314 -243.3627
v  -62.3410 48.0724 -243.3627
v  -67.5519 103.7314 -243.3627
v  -67.5519 48.0724 -243.3627
v  -67.5519 74.4585 -214.0037
v  -62.3410 74.4585 -214.0037
v  -62.3410 48.0724 -214.0037
v  -67.5519 48.0724 -214.0037
v  -62.3410 74.4585 -208.7928
v  -62.3410 48.0724 -208.7928
v  -67.5519 74.4585 -208.7928
v  -67.5519 48.0724 -208.7928
v  62.3130 74.4585 -214.0037
v  67.5238 74.4585 -214.0037
v  67.5238 48.0724 -214.0037
v  62.3130 48.0724 -214.0037
v  67.5238 74.4585 -208.7928
v  67.5238 48.0724 -208.7928
v  62.3130 74.4585 -208.7928
v  62.3130 48.0724 -208.7928
v  62.3130 103.7314 -248.5736
v  67.5239 103.7314 -248.5736
v  67.5238 48.0724 -248.5736
v  62.3130 48.0724 -248.5736
v  67.5239 103.7314 -243.3627
v  67.5238 48.0724 -243.3627
v  62.3130 103.7314 -243.3627
v  62.3130 48.0724 -243.3627
v  -2.6195 103.7314 -248.5736
v  2.5914 103.7314 -248.5736
v  2.5914 48.0724 -248.5736
v  -2.6195 48.0724 -248.5736
v  2.5914 103.7314 -243.3627
v  2.5914 48.0724 -243.3627
v  -2.6195 103.7314 -243.3627
v  -2.6195 48.0724 -243.3627
v  67.5238 103.7314 247.2914
v  62.3129 103.7314 247.2914
v  62.3129 48.0724 247.2914
v  67.5238 48.0724 247.2914
v  62.3129 103.7314 242.0805
v  62.3129 48.0724 242.0805
v  67.5238 103.7314 242.0805
v  67.5238 48.0724 242.0805
v  67.5238 74.4584 212.7215
v  62.3130 74.4584 212.7215
v  62.3129 48.0724 212.7215
v  67.5238 48.0724 212.7215
v  62.3130 74.4584 207.5106
v  62.3129 48.0724 207.5106
v  67.5238 74.4584 207.5106
v  67.5238 48.0724 207.5106
v  -62.3410 74.4584 212.7215
v  -67.5519 74.4584 212.7215
v  -67.5519 48.0724 212.7215
v  -62.3410 48.0724 212.7215
v  -67.5519 74.4584 207.5106
v  -67.5519 48.0724 207.5106
v  -62.3410 74.4584 207.5106
v  -62.3410 48.0724 207.5106
v  -62.3410 103.7314 247.2914
v  -67.5519 103.7314 247.2914
v  -67.5519 48.0724 247.2914
v  -62.3410 48.0724 247.2914
v  -67.5519 103.7314 242.0805
v  -67.5519 48.0724 242.0805
v  -62.3410 103.7314 242.0805
v  -62.3410 48.0724 242.0805
v  2.5914 103.7314 247.2914
v  -2.6195 103.7314 247.2914
v  -2.6195 48.0724 247.2914
v  2.5914 48.0724 247.2914
v  -2.6195 103.7314 242.0805
v  -2.6195 48.0724 242.0805
v  2.5914 103.7314 242.0805
v  2.5914 48.0724 242.0805
v  67.8994 100.5447 247.4120
v  -67.9274 100.5447 247.4120
v  -67.9274 49.2043 186.0795
v  67.8994 49.2043 186.0795
v  67.8994 100.5448 -248.6508
v  67.8993 49.2044 -187.3183
v  67.8994 138.7626 247.4120
v  -67.9274 138.7626 247.4120
v  -67.9274 100.5448 -248.6508
v  -67.9274 49.2044 -187.3183
v  67.8994 138.7627 -248.6508
v  -60.3960 138.7626 238.8121
v  -60.3960 138.7627 -240.0509
v  -67.9274 138.7627 -248.6508
v  60.3679 138.7626 238.8121
v  60.3679 138.7627 -240.0509
v  60.3680 106.0348 238.8121
v  60.3679 54.6944 179.6060
v  -60.3960 54.6944 179.6060
v  -60.3960 106.0348 238.8121
v  60.3679 106.0349 -240.0509
v  60.3679 54.6945 -180.8449
v  -60.3960 54.6945 -180.8449
v  -60.3960 106.0349 -240.0509
v  -54.1675 34.7689 -208.6379
v  -57.5060 34.7689 -208.6379
v  -57.5060 32.4365 -199.9330
v  -54.1675 32.4365 -199.9330
v  -57.5060 26.0640 -193.5605
v  -54.1675 26.0640 -193.5605
v  -57.5060 17.3591 -191.2280
v  -54.1675 17.3591 -191.2280
v  -57.5060 8.6542 -193.5605
v  -54.1675 8.6542 -193.5605
v  -57.5060 2.2818 -199.9330
v  -54.1675 2.2818 -199.9330
v  -57.5060 -0.0507 -208.6379
v  -54.1675 -0.0507 -208.6379
v  -57.5060 2.2818 -217.3428
v  -54.1675 2.2818 -217.3428
v  -57.5060 8.6542 -223.7151
v  -54.1675 8.6542 -223.7151
v  -57.5060 17.3591 -226.0477
v  -54.1675 17.3591 -226.0477
v  -57.5060 26.0640 -223.7151
v  -54.1675 26.0640 -223.7151
v  -57.5060 28.6814 -202.1009
v  -57.5060 23.8960 -197.3155
v  -57.5060 32.4364 -217.3428
v  -54.1675 32.4364 -217.3428
v  -57.5060 10.8222 -197.3155
v  -57.5060 17.3591 -195.5640
v  -61.7211 17.3591 -195.5640
v  -61.7211 10.8222 -197.3155
v  -57.5060 17.3591 -221.7117
v  -57.5060 23.8960 -219.9601
v  -57.5060 10.8222 -219.9601
v  -57.5060 6.0368 -215.1748
v  -57.5060 4.2853 -208.6379
v  -57.5060 6.0368 -202.1009
v  -57.5060 28.6814 -215.1748
v  -57.5060 30.4330 -208.6379
v  -61.7211 28.6814 -202.1009
v  -61.7210 30.4330 -208.6379
v  -61.7211 28.6814 -215.1748
v  -61.7211 23.8960 -219.9601
v  -61.7211 17.3591 -221.7117
v  -61.7211 10.8222 -219.9601
v  -61.7211 6.0368 -215.1748
v  -61.7211 4.2853 -208.6379
v  -61.7211 6.0368 -202.1009
v  -61.7211 23.8960 -197.3155
v  -63.8766 44.9488 -180.0681
v  -40.2546 44.9488 -180.0681
v  -40.2546 13.4216 -180.0681
v  -63.8766 13.4216 -180.0681
v  -40.2546 44.9488 -156.4460
v  -40.2546 13.4216 -156.4460
v  -63.8766 44.9488 -156.4460
v  -63.8766 13.4216 -156.4460
v  -63.6608 22.0343 -219.0937
v  -57.4375 22.0343 -219.0937
v  -57.4375 12.0090 -219.0937
v  -63.6608 12.0090 -219.0937
v  -57.4375 27.6398 -168.2570
v  -57.4375 22.0342 -117.4203
v  -57.4375 12.0090 -117.4203
v  -57.4375 20.6878 -168.2570
v  -63.6609 22.0342 -117.4203
v  -63.6609 12.0090 -117.4203
v  -63.6609 27.6398 -168.2570
v  -63.6609 20.6878 -168.2570
v  -58.8778 17.3063 -173.5620
v  -58.8778 39.1304 -173.5620
v  -59.3723 39.1304 -171.7165
v  -59.3723 17.3063 -171.7165
v  -60.7232 39.1304 -170.3655
v  -60.7232 17.3063 -170.3655
v  -62.5687 39.1304 -169.8711
v  -62.5687 17.3063 -169.8711
v  -64.4141 39.1304 -170.3655
v  -64.4141 17.3063 -170.3655
v  -65.7650 39.1304 -171.7165
v  -65.7650 17.3063 -171.7165
v  -66.2595 39.1304 -173.5620
v  -66.2595 17.3063 -173.5620
v  -65.7650 39.1304 -175.4073
v  -65.7650 17.3063 -175.4073
v  -64.4141 39.1304 -176.7583
v  -64.4141 17.3063 -176.7583
v  -62.5687 39.1304 -177.2528
v  -62.5687 17.3063 -177.2528
v  -60.7232 39.1304 -176.7583
v  -60.7232 17.3063 -176.7583
v  -59.3723 39.1304 -175.4073
v  -59.3723 17.3063 -175.4073
v  -58.8778 17.3063 -162.8984
v  -58.8778 39.1304 -162.8984
v  -59.3723 39.1304 -161.0530
v  -59.3723 17.3063 -161.0530
v  -60.7232 39.1304 -159.7021
v  -60.7232 17.3063 -159.7021
v  -62.5687 39.1304 -159.2076
v  -62.5687 17.3063 -159.2076
v  -64.4141 39.1304 -159.7021
v  -64.4141 17.3063 -159.7021
v  -65.7650 39.1304 -161.0530
v  -65.7650 17.3063 -161.0530
v  -66.2595 39.1304 -162.8984
v  -66.2595 17.3063 -162.8984
v  -65.7650 39.1304 -164.7438
v  -65.7650 17.3063 -164.7438
v  -64.4141 39.1304 -166.0947
v  -64.4141 17.3063 -166.0947
v  -62.5687 39.1304 -166.5893
v  -62.5687 17.3063 -166.5893
v  -60.7232 39.1304 -166.0947
v  -60.7232 17.3063 -166.0947
v  -59.3723 39.1304 -164.7438
v  -59.3723 17.3063 -164.7438
v  -54.1675 34.7689 -127.3764
v  -57.5060 34.7689 -127.3764
v  -57.5060 32.4364 -118.6714
v  -54.1675 32.4364 -118.6714
v  -57.5060 26.0640 -112.2990
v  -54.1675 26.0640 -112.2990
v  -57.5060 17.3591 -109.9665
v  -54.1675 17.3591 -109.9665
v  -57.5060 8.6542 -112.2990
v  -54.1675 8.6542 -112.2990
v  -57.5060 2.2818 -118.6714
v  -54.1675 2.2818 -118.6714
v  -57.5060 -0.0507 -127.3764
v  -54.1675 -0.0507 -127.3764
v  -57.5060 2.2818 -136.0813
v  -54.1675 2.2818 -136.0813
v  -57.5060 8.6542 -142.4537
v  -54.1675 8.6542 -142.4537
v  -57.5060 17.3591 -144.7862
v  -54.1675 17.3591 -144.7862
v  -57.5060 26.0640 -142.4537
v  -54.1675 26.0640 -142.4537
v  -57.5060 28.6814 -120.8394
v  -57.5060 23.8960 -116.0540
v  -57.5060 32.4364 -136.0813
v  -54.1675 32.4364 -136.0813
v  -57.5060 10.8222 -116.0540
v  -57.5060 17.3591 -114.3025
v  -61.7211 17.3591 -114.3025
v  -61.7211 10.8222 -116.0540
v  -57.5060 17.3591 -140.4502
v  -57.5060 23.8960 -138.6987
v  -57.5060 10.8222 -138.6987
v  -57.5060 6.0368 -133.9132
v  -57.5060 4.2853 -127.3764
v  -57.5060 6.0368 -120.8394
v  -57.5060 28.6814 -133.9132
v  -57.5060 30.4330 -127.3764
v  -61.7211 28.6814 -120.8394
v  -61.7211 30.4330 -127.3764
v  -61.7211 28.6814 -133.9132
v  -61.7211 23.8960 -138.6987
v  -61.7211 17.3591 -140.4502
v  -61.7211 10.8222 -138.6987
v  -61.7211 6.0368 -133.9132
v  -61.7211 4.2853 -127.3764
v  -61.7211 6.0368 -120.8394
v  -61.7211 23.8960 -116.0540
v  -54.1675 34.7689 207.9946
v  -57.5060 34.7689 207.9946
v  -57.5060 32.4364 216.6995
v  -54.1675 32.4364 216.6995
v  -57.5060 26.0640 223.0719
v  -54.1675 26.0640 223.0719
v  -57.5060 17.3591 225.4045
v  -54.1675 17.3591 225.4045
v  -57.5060 8.6542 223.0719
v  -54.1675 8.6542 223.0719
v  -57.5060 2.2817 216.6995
v  -54.1675 2.2817 216.6995
v  -57.5060 -0.0507 207.9946
v  -54.1675 -0.0507 207.9946
v  -57.5060 2.2817 199.2897
v  -54.1675 2.2817 199.2897
v  -57.5060 8.6542 192.9173
v  -54.1675 8.6542 192.9173
v  -57.5060 17.3591 190.5848
v  -54.1675 17.3591 190.5848
v  -57.5060 26.0640 192.9172
v  -54.1675 26.0640 192.9172
v  -57.5060 28.6814 214.5315
v  -57.5060 23.8960 219.3170
v  -57.5060 32.4364 199.2897
v  -54.1675 32.4364 199.2897
v  -57.5060 10.8221 219.3170
v  -57.5060 17.3591 221.0685
v  -61.7211 17.3591 221.0685
v  -61.7211 10.8221 219.3170
v  -57.5060 17.3591 194.9208
v  -57.5060 23.8960 196.6723
v  -57.5060 10.8221 196.6723
v  -57.5060 6.0368 201.4577
v  -57.5060 4.2852 207.9946
v  -57.5060 6.0368 214.5315
v  -57.5060 28.6813 201.4577
v  -57.5060 30.4329 207.9946
v  -61.7211 28.6814 214.5315
v  -61.7211 30.4329 207.9946
v  -61.7211 28.6813 201.4577
v  -61.7211 23.8960 196.6723
v  -61.7211 17.3591 194.9208
v  -61.7211 10.8221 196.6723
v  -61.7211 6.0368 201.4577
v  -61.7211 4.2852 207.9946
v  -61.7211 6.0368 214.5315
v  -61.7211 23.8960 219.3170
v  -58.8778 17.3062 172.4726
v  -58.8778 39.1304 172.4726
v  -59.3723 39.1304 174.3179
v  -59.3723 17.3062 174.3179
v  -60.7232 39.1304 175.6689
v  -60.7232 17.3062 175.6689
v  -62.5686 39.1304 176.1634
v  -62.5686 17.3062 176.1634
v  -64.4141 39.1304 175.6689
v  -64.4141 17.3062 175.6689
v  -65.7650 39.1304 174.3179
v  -65.7650 17.3062 174.3179
v  -66.2595 39.1304 172.4726
v  -66.2595 17.3062 172.4726
v  -65.7650 39.1304 170.6272
v  -65.7650 17.3062 170.6272
v  -64.4140 39.1304 169.2763
v  -64.4140 17.3062 169.2763
v  -62.5686 39.1304 168.7818
v  -62.5686 17.3062 168.7818
v  -60.7232 39.1304 169.2763
v  -60.7232 17.3062 169.2763
v  -59.3723 39.1304 170.6271
v  -59.3723 17.3062 170.6271
v  -58.8778 17.3062 161.8090
v  -58.8778 39.1304 161.8090
v  -59.3723 39.1304 163.6544
v  -59.3723 17.3062 163.6544
v  -60.7232 39.1304 165.0054
v  -60.7232 17.3062 165.0054
v  -62.5686 39.1304 165.4999
v  -62.5686 17.3062 165.4999
v  -64.4140 39.1304 165.0054
v  -64.4140 17.3062 165.0054
v  -65.7650 39.1304 163.6544
v  -65.7650 17.3062 163.6544
v  -66.2595 39.1304 161.8090
v  -66.2595 17.3062 161.8090
v  -65.7650 39.1304 159.9636
v  -65.7650 17.3062 159.9636
v  -64.4141 39.1304 158.6127
v  -64.4141 17.3062 158.6127
v  -62.5686 39.1304 158.1181
v  -62.5686 17.3062 158.1181
v  -60.7232 39.1304 158.6127
v  -60.7232 17.3062 158.6127
v  -59.3723 39.1304 159.9636
v  -59.3723 17.3062 159.9636
v  -63.6608 22.0342 116.2772
v  -57.4375 22.0342 116.2772
v  -57.4375 12.0090 116.2772
v  -63.6608 12.0090 116.2772
v  -57.4375 27.6397 167.1140
v  -57.4375 22.0342 217.9506
v  -57.4375 12.0090 217.9506
v  -57.4375 20.6878 167.1140
v  -63.6609 22.0342 217.9506
v  -63.6609 12.0090 217.9506
v  -63.6608 27.6397 167.1140
v  -63.6608 20.6878 167.1140
v  -63.8766 44.9487 155.3029
v  -40.2545 44.9487 155.3029
v  -40.2545 13.4215 155.3029
v  -63.8766 13.4215 155.3029
v  -40.2545 44.9487 178.9250
v  -40.2545 13.4215 178.9250
v  -63.8766 44.9487 178.9250
v  -63.8766 13.4215 178.9250
v  -54.1675 34.7689 126.7332
v  -57.5060 34.7689 126.7332
v  -57.5060 32.4364 135.4381
v  -54.1675 32.4364 135.4381
v  -57.5060 26.0640 141.8105
v  -54.1675 26.0640 141.8105
v  -57.5060 17.3591 144.1430
v  -54.1675 17.3591 144.1430
v  -57.5060 8.6542 141.8105
v  -54.1675 8.6542 141.8105
v  -57.5060 2.2817 135.4381
v  -54.1675 2.2817 135.4381
v  -57.5060 -0.0507 126.7332
v  -54.1675 -0.0507 126.7332
v  -57.5060 2.2817 118.0283
v  -54.1675 2.2817 118.0283
v  -57.5060 8.6542 111.6558
v  -54.1674 8.6542 111.6558
v  -57.5060 17.3591 109.3233
v  -54.1675 17.3591 109.3233
v  -57.5060 26.0640 111.6558
v  -54.1674 26.0640 111.6558
v  -57.5060 28.6814 133.2701
v  -57.5060 23.8960 138.0554
v  -57.5060 32.4364 118.0282
v  -54.1674 32.4364 118.0282
v  -57.5060 10.8222 138.0554
v  -57.5060 17.3591 139.8070
v  -61.7210 17.3591 139.8070
v  -61.7210 10.8221 138.0554
v  -57.5060 17.3591 113.6593
v  -57.5060 23.8960 115.4108
v  -57.5060 10.8221 115.4108
v  -57.5060 6.0368 120.1963
v  -57.5060 4.2852 126.7332
v  -57.5060 6.0368 133.2701
v  -57.5060 28.6814 120.1962
v  -57.5060 30.4329 126.7332
v  -61.7210 28.6814 133.2701
v  -61.7210 30.4329 126.7332
v  -61.7210 28.6814 120.1962
v  -61.7210 23.8960 115.4108
v  -61.7210 17.3591 113.6593
v  -61.7210 10.8221 115.4108
v  -61.7210 6.0368 120.1962
v  -61.7210 4.2852 126.7332
v  -61.7210 6.0368 133.2701
v  -61.7210 23.8960 138.0554
v  54.1394 34.7689 -127.7341
v  57.4779 34.7689 -127.7341
v  57.4779 32.4364 -136.4389
v  54.1394 32.4364 -136.4389
v  57.4779 26.0640 -142.8114
v  54.1394 26.0640 -142.8114
v  57.4779 17.3591 -145.1438
v  54.1394 17.3591 -145.1438
v  57.4779 8.6542 -142.8114
v  54.1394 8.6542 -142.8114
v  57.4779 2.2818 -136.4389
v  54.1394 2.2818 -136.4389
v  57.4779 -0.0507 -127.7340
v  54.1394 -0.0507 -127.7340
v  57.4779 2.2818 -119.0291
v  54.1394 2.2818 -119.0291
v  57.4779 8.6542 -112.6568
v  54.1394 8.6542 -112.6568
v  57.4779 17.3591 -110.3242
v  54.1394 17.3591 -110.3242
v  57.4779 26.0640 -112.6568
v  54.1394 26.0640 -112.6568
v  57.4779 28.6814 -134.2710
v  57.4779 23.8960 -139.0564
v  57.4779 32.4364 -119.0291
v  54.1394 32.4364 -119.0291
v  57.4779 10.8222 -139.0564
v  57.4779 17.3591 -140.8079
v  61.6930 17.3591 -140.8079
v  61.6930 10.8222 -139.0564
v  57.4779 17.3591 -114.6602
v  57.4779 23.8960 -116.4118
v  57.4779 10.8222 -116.4118
v  57.4779 6.0368 -121.1971
v  57.4779 4.2853 -127.7340
v  57.4779 6.0368 -134.2710
v  57.4779 28.6814 -121.1971
v  57.4779 30.4330 -127.7341
v  61.6930 28.6814 -134.2710
v  61.6930 30.4330 -127.7341
v  61.6930 28.6814 -121.1971
v  61.6930 23.8960 -116.4118
v  61.6930 17.3591 -114.6602
v  61.6930 10.8222 -116.4118
v  61.6930 6.0368 -121.1971
v  61.6930 4.2852 -127.7340
v  61.6930 6.0368 -134.2710
v  61.6930 23.8960 -139.0564
v  63.8486 44.9488 -156.3038
v  40.2265 44.9488 -156.3038
v  40.2265 13.4216 -156.3038
v  63.8486 13.4216 -156.3038
v  40.2265 44.9488 -179.9259
v  40.2265 13.4216 -179.9259
v  63.8485 44.9488 -179.9259
v  63.8485 13.4216 -179.9259
v  63.6328 22.0342 -117.2782
v  57.4094 22.0342 -117.2782
v  57.4094 12.0090 -117.2782
v  63.6328 12.0090 -117.2782
v  57.4094 27.6398 -168.1149
v  57.4094 22.0343 -218.9516
v  57.4094 12.0090 -218.9516
v  57.4094 20.6878 -168.1149
v  63.6328 22.0343 -218.9516
v  63.6328 12.0090 -218.9516
v  63.6328 27.6398 -168.1149
v  63.6328 20.6878 -168.1149
v  58.8498 17.3063 -162.8099
v  58.8498 39.1304 -162.8099
v  59.3442 39.1304 -164.6554
v  59.3442 17.3063 -164.6554
v  60.6952 39.1304 -166.0063
v  60.6952 17.3063 -166.0063
v  62.5406 39.1304 -166.5008
v  62.5406 17.3063 -166.5008
v  64.3860 39.1304 -166.0063
v  64.3860 17.3063 -166.0063
v  65.7369 39.1304 -164.6554
v  65.7369 17.3063 -164.6554
v  66.2314 39.1304 -162.8099
v  66.2314 17.3063 -162.8099
v  65.7369 39.1304 -160.9646
v  65.7369 17.3063 -160.9646
v  64.3860 39.1304 -159.6136
v  64.3860 17.3063 -159.6136
v  62.5406 39.1304 -159.1191
v  62.5406 17.3063 -159.1191
v  60.6952 39.1304 -159.6136
v  60.6952 17.3063 -159.6136
v  59.3442 39.1304 -160.9646
v  59.3442 17.3063 -160.9646
v  58.8498 17.3063 -173.4735
v  58.8498 39.1304 -173.4735
v  59.3442 39.1304 -175.3189
v  59.3442 17.3063 -175.3189
v  60.6952 39.1304 -176.6698
v  60.6952 17.3063 -176.6698
v  62.5406 39.1304 -177.1643
v  62.5406 17.3063 -177.1643
v  64.3860 39.1304 -176.6698
v  64.3860 17.3063 -176.6698
v  65.7369 39.1304 -175.3189
v  65.7369 17.3063 -175.3189
v  66.2314 39.1304 -173.4735
v  66.2314 17.3063 -173.4735
v  65.7369 39.1304 -171.6281
v  65.7369 17.3063 -171.6281
v  64.3860 39.1304 -170.2772
v  64.3860 17.3063 -170.2772
v  62.5406 39.1304 -169.7826
v  62.5406 17.3063 -169.7826
v  60.6952 39.1304 -170.2772
v  60.6952 17.3063 -170.2772
v  59.3442 39.1304 -171.6281
v  59.3442 17.3063 -171.6281
v  54.1394 34.7689 -208.9955
v  57.4779 34.7689 -208.9955
v  57.4779 32.4365 -217.7005
v  54.1394 32.4365 -217.7005
v  57.4779 26.0640 -224.0729
v  54.1394 26.0640 -224.0729
v  57.4779 17.3591 -226.4054
v  54.1394 17.3591 -226.4054
v  57.4779 8.6542 -224.0729
v  54.1394 8.6542 -224.0729
v  57.4779 2.2818 -217.7005
v  54.1394 2.2818 -217.7005
v  57.4779 -0.0507 -208.9955
v  54.1394 -0.0507 -208.9955
v  57.4779 2.2818 -200.2906
v  54.1394 2.2818 -200.2906
v  57.4779 8.6542 -193.9182
v  54.1394 8.6542 -193.9182
v  57.4779 17.3591 -191.5857
v  54.1394 17.3591 -191.5857
v  57.4779 26.0640 -193.9182
v  54.1394 26.0640 -193.9182
v  57.4779 28.6814 -215.5325
v  57.4779 23.8960 -220.3179
v  57.4779 32.4364 -200.2906
v  54.1394 32.4364 -200.2906
v  57.4779 10.8222 -220.3179
v  57.4779 17.3591 -222.0694
v  61.6930 17.3591 -222.0694
v  61.6930 10.8222 -220.3179
v  57.4779 17.3591 -195.9217
v  57.4779 23.8960 -197.6732
v  57.4779 10.8222 -197.6732
v  57.4779 6.0368 -202.4587
v  57.4779 4.2853 -208.9955
v  57.4779 6.0368 -215.5325
v  57.4779 28.6814 -202.4587
v  57.4779 30.4330 -208.9955
v  61.6930 28.6814 -215.5325
v  61.6930 30.4330 -208.9955
v  61.6930 28.6814 -202.4587
v  61.6930 23.8960 -197.6732
v  61.6930 17.3591 -195.9217
v  61.6930 10.8222 -197.6732
v  61.6930 6.0368 -202.4587
v  61.6930 4.2853 -208.9955
v  61.6930 6.0368 -215.5325
v  61.6930 23.8960 -220.3179
v  54.1394 34.7689 126.3755
v  57.4779 34.7689 126.3755
v  57.4779 32.4364 117.6706
v  54.1394 32.4364 117.6706
v  57.4779 26.0640 111.2981
v  54.1394 26.0640 111.2981
v  57.4779 17.3591 108.9657
v  54.1394 17.3591 108.9657
v  57.4779 8.6542 111.2981
v  54.1394 8.6542 111.2981
v  57.4779 2.2817 117.6706
v  54.1394 2.2817 117.6706
v  57.4779 -0.0507 126.3755
v  54.1394 -0.0507 126.3755
v  57.4779 2.2817 135.0804
v  54.1394 2.2817 135.0804
v  57.4779 8.6542 141.4529
v  54.1394 8.6542 141.4529
v  57.4779 17.3591 143.7853
v  54.1394 17.3591 143.7853
v  57.4779 26.0640 141.4529
v  54.1394 26.0640 141.4529
v  57.4779 28.6814 119.8386
v  57.4779 23.8960 115.0532
v  57.4779 32.4364 135.0804
v  54.1394 32.4364 135.0804
v  57.4779 10.8222 115.0533
v  57.4779 17.3591 113.3017
v  61.6930 17.3591 113.3017
v  61.6930 10.8221 115.0533
v  57.4779 17.3591 139.4494
v  57.4779 23.8960 137.6978
v  57.4779 10.8221 137.6978
v  57.4779 6.0368 132.9125
v  57.4779 4.2852 126.3755
v  57.4779 6.0368 119.8386
v  57.4779 28.6814 132.9124
v  57.4779 30.4329 126.3755
v  61.6930 28.6814 119.8386
v  61.6930 30.4329 126.3755
v  61.6930 28.6814 132.9124
v  61.6930 23.8960 137.6978
v  61.6930 17.3591 139.4494
v  61.6930 10.8221 137.6978
v  61.6930 6.0368 132.9125
v  61.6930 4.2852 126.3755
v  61.6930 6.0368 119.8386
v  61.6930 23.8960 115.0532
v  58.8498 17.3062 161.8975
v  58.8498 39.1304 161.8975
v  59.3442 39.1304 160.0522
v  59.3442 17.3062 160.0522
v  60.6952 39.1304 158.7012
v  60.6952 17.3062 158.7012
v  62.5406 39.1304 158.2068
v  62.5406 17.3062 158.2068
v  64.3860 39.1304 158.7012
v  64.3860 17.3062 158.7012
v  65.7370 39.1304 160.0522
v  65.7370 17.3062 160.0522
v  66.2314 39.1304 161.8975
v  66.2314 17.3062 161.8975
v  65.7370 39.1304 163.7430
v  65.7370 17.3062 163.7430
v  64.3860 39.1304 165.0939
v  64.3860 17.3062 165.0939
v  62.5406 39.1304 165.5883
v  62.5406 17.3062 165.5883
v  60.6952 39.1304 165.0939
v  60.6952 17.3062 165.0939
v  59.3443 39.1304 163.7430
v  59.3443 17.3062 163.7430
v  58.8498 17.3062 172.5611
v  58.8498 39.1304 172.5611
v  59.3443 39.1304 170.7157
v  59.3443 17.3062 170.7157
v  60.6952 39.1304 169.3647
v  60.6952 17.3062 169.3647
v  62.5406 39.1304 168.8703
v  62.5406 17.3062 168.8703
v  64.3860 39.1304 169.3647
v  64.3860 17.3062 169.3647
v  65.7370 39.1304 170.7157
v  65.7370 17.3062 170.7157
v  66.2314 39.1304 172.5611
v  66.2314 17.3062 172.5611
v  65.7370 39.1304 174.4066
v  65.7370 17.3062 174.4066
v  64.3860 39.1304 175.7575
v  64.3860 17.3062 175.7575
v  62.5406 39.1304 176.2520
v  62.5406 17.3062 176.2520
v  60.6952 39.1304 175.7575
v  60.6952 17.3062 175.7575
v  59.3443 39.1304 174.4066
v  59.3443 17.3062 174.4066
v  63.6328 22.0342 218.0929
v  57.4095 22.0342 218.0929
v  57.4095 12.0090 218.0929
v  63.6328 12.0090 218.0929
v  57.4095 27.6397 167.2561
v  57.4095 22.0342 116.4195
v  57.4095 12.0090 116.4195
v  57.4095 20.6878 167.2561
v  63.6328 22.0342 116.4195
v  63.6328 12.0090 116.4195
v  63.6328 27.6397 167.2561
v  63.6328 20.6878 167.2561
v  63.8486 44.9487 179.0672
v  40.2265 44.9487 179.0672
v  40.2265 13.4215 179.0672
v  63.8486 13.4215 179.0672
v  40.2265 44.9487 155.4451
v  40.2265 13.4215 155.4451
v  63.8486 44.9487 155.4451
v  63.8486 13.4215 155.4451
v  54.1394 34.7689 207.6370
v  57.4780 34.7689 207.6370
v  57.4780 32.4364 198.9321
v  54.1394 32.4364 198.9321
v  57.4780 26.0640 192.5596
v  54.1394 26.0640 192.5596
v  57.4780 17.3591 190.2271
v  54.1394 17.3591 190.2271
v  57.4780 8.6542 192.5596
v  54.1394 8.6542 192.5596
v  57.4780 2.2817 198.9321
v  54.1394 2.2817 198.9321
v  57.4780 -0.0507 207.6370
v  54.1394 -0.0507 207.6370
v  57.4780 2.2817 216.3420
v  54.1394 2.2817 216.3420
v  57.4780 8.6542 222.7143
v  54.1394 8.6542 222.7143
v  57.4780 17.3591 225.0468
v  54.1394 17.3591 225.0468
v  57.4780 26.0640 222.7143
v  54.1394 26.0640 222.7143
v  57.4780 28.6814 201.1001
v  57.4780 23.8960 196.3147
v  57.4780 32.4364 216.3420
v  54.1394 32.4364 216.3420
v  57.4780 10.8221 196.3147
v  57.4780 17.3591 194.5631
v  61.6930 17.3591 194.5631
v  61.6930 10.8221 196.3147
v  57.4780 17.3591 220.7109
v  57.4780 23.8960 218.9593
v  57.4780 10.8221 218.9593
v  57.4780 6.0368 214.1740
v  57.4780 4.2852 207.6370
v  57.4780 6.0368 201.1001
v  57.4780 28.6813 214.1740
v  57.4780 30.4329 207.6370
v  61.6930 28.6814 201.1001
v  61.6930 30.4329 207.6370
v  61.6930 28.6813 214.1740
v  61.6930 23.8960 218.9593
v  61.6930 17.3591 220.7109
v  61.6930 10.8221 218.9593
v  61.6930 6.0368 214.1740
v  61.6930 4.2852 207.6370
v  61.6930 6.0368 201.1001
v  61.6930 23.8960 196.3147
v  -63.9466 30.7163 -243.7086
v  63.9185 30.7163 -243.7086
v  63.9185 9.1751 -243.7086
v  -63.9466 9.1752 -243.7086
v  63.9185 30.7163 -224.8166
v  63.9185 9.1751 -234.2598
v  -63.9466 30.7163 -224.8166
v  -63.9466 9.1752 -234.2598
v  63.9185 30.7162 242.9463
v  -63.9466 30.7162 242.9463
v  -63.9466 9.1751 242.9463
v  63.9185 9.1751 242.9463
v  -63.9465 30.7162 224.0542
v  -63.9465 9.1751 233.4975
v  63.9185 30.7162 224.0542
v  63.9185 9.1751 233.4975
v  63.9185 31.0952 109.1287
v  -63.9465 31.0952 109.1288
v  -63.9465 8.9982 101.8519
v  63.9185 8.9982 101.8519
v  -63.9466 31.0952 -110.3673
v  -63.9465 8.9982 -103.0904
v  63.9185 31.0952 -110.3673
v  63.9185 8.9982 -103.0904
v  67.8994 39.4020 247.4122
v  -67.9274 39.4020 247.4122
v  -67.9274 30.5437 247.4122
v  67.8994 30.5437 247.4122
v  -67.9274 39.4020 -248.6508
v  -67.9274 30.5438 -248.6508
v  67.8994 39.4020 -248.6508
v  67.8994 30.5438 -248.6508
v  67.8994 48.2603 -248.6508
v  -67.9274 48.2603 -248.6508
v  -61.0700 48.2603 -240.4725
v  61.0419 48.2603 -240.4725
v  -61.0700 48.2602 239.2338
v  61.0419 48.2602 239.2338
v  -67.9274 48.2602 247.4122
v  67.8994 48.2602 247.4122
v  -8.3161 33.6262 -250.8895
v  8.2882 33.6262 -250.8895
v  8.2882 17.4417 -250.8895
v  -8.3161 17.4417 -250.8895
v  8.2882 33.6262 -242.4463
v  8.2882 17.4417 -242.4463
v  -8.3161 33.6262 -242.4463
v  -8.3161 17.4417 -242.4463
v  -4.0442 29.9771 -265.6961
v  4.0163 29.9771 -265.6961
v  4.0163 20.9792 -265.6961
v  -4.0442 20.9792 -265.6961
v  -4.0442 24.4512 -260.9698
v  -4.0442 29.9771 -260.9698
v  -4.0442 24.4512 -254.9886
v  -4.0442 20.9792 -240.6466
v  -4.0442 29.9771 -254.9886
v  -4.0442 29.9771 -240.6466
v  4.0163 29.9771 -260.9698
v  4.0163 24.4512 -254.9886
v  4.0163 29.9771 -254.9886
v  4.0163 29.9771 -240.6466
v  4.0163 20.9792 -240.6466
v  4.0163 24.4512 -260.9698
v  3.7811 17.0472 250.2961
v  3.7811 33.6514 250.2961
v  -12.4033 33.6514 250.2961
v  -12.4033 17.0472 250.2961
v  3.7811 33.6514 244.2580
v  -12.4033 33.6514 244.2580
v  3.7811 17.0472 244.2580
v  -12.4033 17.0472 244.2580
v  0.1320 21.3190 265.1028
v  0.1320 29.3795 265.1028
v  -8.8659 29.3795 265.1028
v  -8.8659 21.3190 265.1028
v  -5.3938 21.3190 260.3764
v  0.1320 21.3190 260.3764
v  -5.3938 21.3190 254.3952
v  -8.8659 21.3190 240.0533
v  4.6765 21.3190 254.3952
v  4.6765 21.3190 240.0533
v  0.1320 29.3795 260.3764
v  -5.3938 29.3795 254.3952
v  4.6765 29.3795 254.3952
v  4.6765 29.3795 240.0533
v  -8.8659 29.3795 240.0532
v  -5.3938 29.3795 260.3764
v  0.4490 33.6514 250.2961
v  0.4490 17.0472 250.2961
v  16.6335 17.0472 250.2961
v  16.6335 33.6514 250.2961
v  0.4490 17.0472 240.7027
v  16.6335 17.0472 240.7027
v  0.4490 33.6514 240.7027
v  16.6335 33.6514 240.7027
v  4.0981 29.3795 265.1028
v  4.0981 21.3190 265.1028
v  13.0960 21.3190 265.1028
v  13.0960 29.3795 265.1028
v  9.6240 29.3795 260.3764
v  4.0981 29.3795 260.3764
v  9.6240 29.3796 254.3952
v  13.0960 29.3796 240.0533
v  4.0981 29.3796 254.3952
v  4.0981 29.3796 240.0533
v  4.0981 21.3190 260.3764
v  9.6240 21.3191 254.3952
v  4.0981 21.3191 254.3952
v  4.0981 21.3191 240.0532
v  13.0960 21.3191 240.0532
v  9.6240 21.3190 260.3764
# 896 vertices

vn 0.0000 -0.0000 1.0000
vn -1.0000 -0.0000 0.0000
vn 0.0000 0.0000 -1.0000
vn 1.0000 0.0000 -0.0000
vn -0.0000 -1.0000 -0.0000
vn 0.0000 -1.0000 -0.0000
vn 0.0000 0.9675 -0.2528
vn -0.1337 0.3458 -0.9288
vn 0.1337 0.3458 -0.9288
vn 0.1337 0.3458 0.9288
vn -0.1337 0.3458 0.9288
vn -0.3606 0.9327 0.0000
vn 0.0000 1.0000 0.0000
vn -0.0000 1.0000 0.0000
vn 0.0000 0.9675 0.2528
vn 0.3606 0.9327 0.0000
vn 1.0000 -0.0000 -0.0000
vn -1.0000 0.0000 0.0000
vn 1.0000 -0.0000 0.0000
vn -0.0000 -1.0000 0.0000
vn 0.0000 1.0000 -0.0000
vn -1.0000 -0.0000 -0.0000
vn 1.0000 0.0000 0.0000
vn -1.0000 0.0000 -0.0000
vn -0.0000 -0.7668 0.6419
vn 0.0000 -0.7668 -0.6419
vn 0.0000 0.7555 -0.6551
vn -0.0000 0.7555 0.6551
vn 0.0000 0.9659 0.2588
vn 0.0000 0.7071 0.7071
vn -0.0000 0.2588 0.9659
vn -0.0000 -0.2588 0.9659
vn 0.0000 -0.7071 0.7071
vn 0.0000 -0.9659 0.2588
vn 0.0000 -0.9659 -0.2588
vn 0.0000 -0.7071 -0.7071
vn 0.0000 -0.2588 -0.9659
vn 0.0000 0.2588 -0.9659
vn 0.0000 0.7071 -0.7071
vn 0.0000 0.9659 -0.2588
vn 0.0000 0.2588 0.9659
vn -0.0000 0.0000 1.0000
vn 0.0000 -0.9857 -0.1683
vn 0.0000 0.9940 -0.1096
vn 0.0000 0.9940 0.1096
vn 0.0000 -0.9857 0.1683
vn 0.9659 -0.0000 0.2588
vn 0.7071 -0.0000 0.7071
vn 0.2588 -0.0000 0.9659
vn -0.2588 -0.0000 0.9659
vn -0.7071 -0.0000 0.7071
vn -0.9659 0.0000 0.2588
vn -0.9659 0.0000 -0.2588
vn -0.7071 0.0000 -0.7071
vn -0.2588 0.0000 -0.9659
vn 0.2588 0.0000 -0.9659
vn 0.7071 0.0000 -0.7071
vn 0.9659 0.0000 -0.2588
vn -0.9659 -0.0000 0.2588
vn -0.2589 0.0000 -0.9659
vn 0.0000 -1.0000 0.0000
vn 0.0000 -0.2588 0.9659
vn -0.0000 -0.9659 -0.2588
vn -0.0000 -0.7071 -0.7071
vn -0.0000 0.9659 0.2588
vn -0.0000 0.7071 0.7071
vn -0.0000 -0.2588 -0.9659
vn 0.0000 -0.0000 -1.0000
vn -0.0000 -0.9659 0.2588
vn -0.0000 0.2588 -0.9659
vn -0.0000 0.7071 -0.7071
vn -0.9659 -0.0000 -0.2588
vn -0.0000 0.9659 -0.2588
vn -0.0000 -0.7071 0.7071
vn -0.0000 -0.4015 0.9159
vn -0.0000 -0.4015 -0.9159
vn 0.0000 -0.3128 0.9498
vn 0.0000 -0.3128 -0.9498
vn -0.0000 1.0000 -0.0000
# 79 vertex normals

vt 0.2772 0.0730 0.0000
vt 0.2897 0.0730 0.0000
vt 0.2897 0.0854 0.0000
vt 0.2772 0.0854 0.0000
vt 0.9269 0.0312 0.0000
vt 0.9442 0.0312 0.0000
vt 0.9442 0.0484 0.0000
vt 0.9269 0.0484 0.0000
vt 0.0676 0.4466 0.0000
vt 0.1742 0.3574 0.0000
vt 0.9300 0.4466 0.0000
vt 0.8233 0.3574 0.0000
vt 0.0676 0.5131 0.0000
vt 0.9300 0.5131 0.0000
vt 0.0826 0.5131 0.0000
vt 0.9150 0.5131 0.0000
vt 0.9256 0.0423 0.0000
vt 0.9293 0.0391 0.0000
vt 0.9554 0.0423 0.0000
vt 0.9517 0.0391 0.0000
vt 0.9256 0.0443 0.0000
vt 0.9554 0.0443 0.0000
vt 0.1912 0.0341 0.0000
vt 0.1905 0.0339 0.0000
vt 0.1900 0.0334 0.0000
vt 0.1898 0.0327 0.0000
vt 0.1900 0.0320 0.0000
vt 0.1905 0.0315 0.0000
vt 0.1912 0.0313 0.0000
vt 0.1919 0.0315 0.0000
vt 0.1924 0.0320 0.0000
vt 0.1926 0.0327 0.0000
vt 0.1924 0.0334 0.0000
vt 0.1907 0.0336 0.0000
vt 0.1903 0.0332 0.0000
vt 0.1919 0.0339 0.0000
vt 0.1903 0.0322 0.0000
vt 0.1902 0.0327 0.0000
vt 0.1922 0.0327 0.0000
vt 0.1921 0.0332 0.0000
vt 0.1921 0.0322 0.0000
vt 0.1917 0.0318 0.0000
vt 0.1912 0.0317 0.0000
vt 0.1907 0.0318 0.0000
vt 0.1917 0.0336 0.0000
vt 0.1912 0.0337 0.0000
vt 0.1890 0.0349 0.0000
vt 0.1890 0.0324 0.0000
vt 0.1871 0.0349 0.0000
vt 0.1871 0.0324 0.0000
vt 0.1920 0.0331 0.0000
vt 0.1920 0.0323 0.0000
vt 0.1880 0.0335 0.0000
vt 0.1840 0.0331 0.0000
vt 0.1840 0.0323 0.0000
vt 0.1880 0.0330 0.0000
vt 0.1884 0.0327 0.0000
vt 0.1884 0.0344 0.0000
vt 0.1883 0.0344 0.0000
vt 0.1883 0.0327 0.0000
vt 0.1882 0.0344 0.0000
vt 0.1882 0.0327 0.0000
vt 0.1886 0.0344 0.0000
vt 0.1886 0.0327 0.0000
vt 0.1887 0.0344 0.0000
vt 0.1887 0.0327 0.0000
vt 0.1876 0.0327 0.0000
vt 0.1876 0.0344 0.0000
vt 0.1875 0.0344 0.0000
vt 0.1875 0.0327 0.0000
vt 0.1874 0.0344 0.0000
vt 0.1874 0.0327 0.0000
vt 0.1873 0.0344 0.0000
vt 0.1873 0.0327 0.0000
vt 0.1877 0.0344 0.0000
vt 0.1877 0.0327 0.0000
vt 0.1879 0.0344 0.0000
vt 0.1879 0.0327 0.0000
vt 0.1848 0.0341 0.0000
vt 0.1841 0.0339 0.0000
vt 0.1836 0.0334 0.0000
vt 0.1834 0.0327 0.0000
vt 0.1836 0.0320 0.0000
vt 0.1841 0.0315 0.0000
vt 0.1848 0.0313 0.0000
vt 0.1855 0.0315 0.0000
vt 0.1860 0.0320 0.0000
vt 0.1862 0.0327 0.0000
vt 0.1860 0.0334 0.0000
vt 0.1843 0.0336 0.0000
vt 0.1839 0.0332 0.0000
vt 0.1855 0.0339 0.0000
vt 0.1839 0.0322 0.0000
vt 0.1838 0.0327 0.0000
vt 0.1858 0.0327 0.0000
vt 0.1857 0.0332 0.0000
vt 0.1857 0.0322 0.0000
vt 0.1853 0.0318 0.0000
vt 0.1848 0.0317 0.0000
vt 0.1843 0.0318 0.0000
vt 0.1853 0.0336 0.0000
vt 0.1848 0.0337 0.0000
vt 0.1574 0.0341 0.0000
vt 0.1567 0.0339 0.0000
vt 0.1562 0.0334 0.0000
vt 0.1560 0.0327 0.0000
vt 0.1562 0.0320 0.0000
vt 0.1567 0.0315 0.0000
vt 0.1574 0.0313 0.0000
vt 0.1581 0.0315 0.0000
vt 0.1586 0.0320 0.0000
vt 0.1588 0.0327 0.0000
vt 0.1586 0.0334 0.0000
vt 0.1569 0.0336 0.0000
vt 0.1565 0.0332 0.0000
vt 0.1581 0.0339 0.0000
vt 0.1565 0.0322 0.0000
vt 0.1564 0.0327 0.0000
vt 0.1584 0.0327 0.0000
vt 0.1583 0.0332 0.0000
vt 0.1583 0.0322 0.0000
vt 0.1579 0.0318 0.0000
vt 0.1574 0.0317 0.0000
vt 0.1569 0.0318 0.0000
vt 0.1579 0.0336 0.0000
vt 0.1574 0.0337 0.0000
vt 0.1602 0.0327 0.0000
vt 0.1602 0.0344 0.0000
vt 0.1601 0.0344 0.0000
vt 0.1601 0.0327 0.0000
vt 0.1599 0.0344 0.0000
vt 0.1599 0.0327 0.0000
vt 0.1603 0.0344 0.0000
vt 0.1603 0.0327 0.0000
vt 0.1605 0.0344 0.0000
vt 0.1605 0.0327 0.0000
vt 0.1610 0.0327 0.0000
vt 0.1610 0.0344 0.0000
vt 0.1609 0.0344 0.0000
vt 0.1609 0.0327 0.0000
vt 0.1608 0.0344 0.0000
vt 0.1608 0.0327 0.0000
vt 0.1612 0.0344 0.0000
vt 0.1612 0.0327 0.0000
vt 0.1613 0.0344 0.0000
vt 0.1613 0.0327 0.0000
vt 0.1646 0.0331 0.0000
vt 0.1646 0.0323 0.0000
vt 0.1606 0.0335 0.0000
vt 0.1566 0.0331 0.0000
vt 0.1566 0.0323 0.0000
vt 0.1606 0.0330 0.0000
vt 0.1616 0.0349 0.0000
vt 0.1616 0.0324 0.0000
vt 0.1597 0.0349 0.0000
vt 0.1597 0.0324 0.0000
vt 0.1638 0.0341 0.0000
vt 0.1631 0.0339 0.0000
vt 0.1626 0.0334 0.0000
vt 0.1624 0.0327 0.0000
vt 0.1626 0.0320 0.0000
vt 0.1631 0.0315 0.0000
vt 0.1638 0.0313 0.0000
vt 0.1645 0.0315 0.0000
vt 0.1650 0.0320 0.0000
vt 0.1652 0.0327 0.0000
vt 0.1650 0.0334 0.0000
vt 0.1633 0.0336 0.0000
vt 0.1629 0.0332 0.0000
vt 0.1645 0.0339 0.0000
vt 0.1629 0.0322 0.0000
vt 0.1628 0.0327 0.0000
vt 0.1648 0.0327 0.0000
vt 0.1647 0.0332 0.0000
vt 0.1647 0.0322 0.0000
vt 0.1643 0.0318 0.0000
vt 0.1638 0.0317 0.0000
vt 0.1633 0.0318 0.0000
vt 0.1643 0.0336 0.0000
vt 0.1638 0.0337 0.0000
vt 0.1859 0.0327 0.0000
vt 0.1889 0.0349 0.0000
vt 0.1889 0.0324 0.0000
vt 0.1878 0.0344 0.0000
vt 0.1878 0.0327 0.0000
vt 0.1881 0.0344 0.0000
vt 0.1881 0.0327 0.0000
vt 0.1906 0.0315 0.0000
vt 0.1901 0.0320 0.0000
vt 0.1899 0.0327 0.0000
vt 0.1901 0.0334 0.0000
vt 0.1918 0.0336 0.0000
vt 0.1906 0.0339 0.0000
vt 0.1923 0.0327 0.0000
vt 0.1918 0.0318 0.0000
vt 0.1632 0.0315 0.0000
vt 0.1627 0.0320 0.0000
vt 0.1625 0.0327 0.0000
vt 0.1627 0.0334 0.0000
vt 0.1644 0.0336 0.0000
vt 0.1632 0.0339 0.0000
vt 0.1649 0.0327 0.0000
vt 0.1644 0.0318 0.0000
vt 0.1607 0.0344 0.0000
vt 0.1607 0.0327 0.0000
vt 0.1604 0.0344 0.0000
vt 0.1604 0.0327 0.0000
vt 0.1600 0.0344 0.0000
vt 0.1600 0.0327 0.0000
vt 0.1615 0.0349 0.0000
vt 0.1615 0.0324 0.0000
vt 0.1585 0.0327 0.0000
vt 0.1639 0.0350 0.0000
vt 0.1798 0.0350 0.0000
vt 0.1798 0.0509 0.0000
vt 0.1639 0.0509 0.0000
vt 0.9335 0.0448 0.0000
vt 0.9494 0.0448 0.0000
vt 0.9494 0.0607 0.0000
vt 0.9335 0.0607 0.0000
vt 0.9829 0.0338 0.0000
vt 0.9829 0.0400 0.0000
vt 0.9583 0.0400 0.0000
vt 0.9583 0.0338 0.0000
vt 0.1508 0.0343 0.0000
vt 0.1508 0.0332 0.0000
vt 0.1512 0.0343 0.0000
vt 0.1512 0.0332 0.0000
vt 0.1496 0.0340 0.0000
vt 0.1496 0.0334 0.0000
vt 0.1499 0.0337 0.0000
vt 0.1499 0.0340 0.0000
vt 0.1502 0.0337 0.0000
vt 0.1512 0.0334 0.0000
vt 0.1502 0.0340 0.0000
vt 0.1512 0.0340 0.0000
# 236 texture coords

g SPW_Vehicle_Train_Freight_Train_Trailer_05
usemtl SPW_Vehicle_Train_Freight_Train_Trailer
s 1
f 1/1/1 2/2/1 3/3/1 4/4/1 
s 2
f 5/1/2 6/2/2 7/3/2 8/4/2 
s 1
f 6/1/3 9/2/3 10/3/3 7/4/3 
s 2
f 11/1/4 1/2/4 4/3/4 12/4/4 
s 4
f 12/1/5 8/2/5 7/3/5 10/4/6 
s off
f 13/1/7 14/2/7 15/3/7 16/4/7 
s 2
f 17/1/4 18/2/4 1/3/4 11/4/4 
s 1
f 14/1/8 13/2/9 9/3/3 6/4/3 
s 2
f 19/1/2 14/2/2 6/3/2 5/4/2 
s 1
f 18/1/10 20/2/11 2/3/1 1/4/1 
s 2
f 20/1/2 19/2/2 5/3/2 2/4/2 
f 13/1/4 17/2/4 11/3/4 9/4/4 
s 1
f 19/1/12 20/2/11 21/3/12 22/4/12 
s 4
f 4/1/5 3/2/5 8/3/5 12/4/5 
s 2
f 9/1/4 11/2/4 12/3/4 10/4/4 
f 2/1/2 5/2/2 8/3/2 3/4/2 
f 23/1/13 22/2/14 21/3/13 24/4/13 
f 16/1/14 15/2/14 22/3/14 23/4/13 
s off
f 20/1/15 18/2/15 24/3/15 21/4/15 
s 1
f 18/1/10 17/2/16 23/3/16 24/4/16 
f 14/1/8 19/2/12 22/3/12 15/4/12 
f 17/1/16 13/2/9 16/3/16 23/4/16 
s off
f 25/5/3 26/6/3 27/7/3 28/8/3 
f 26/5/17 29/6/17 30/7/17 27/8/17 
f 29/5/1 31/6/1 32/7/1 30/8/1 
f 31/5/18 25/6/18 28/7/18 32/8/18 
f 28/5/6 27/6/6 30/7/6 32/8/6 
f 31/5/13 29/6/13 26/7/13 25/8/13 
f 33/5/3 34/6/3 35/7/3 36/8/3 
f 34/5/19 37/6/19 38/7/19 35/8/19 
f 37/5/1 39/6/1 40/7/1 38/8/1 
f 39/5/18 33/6/18 36/7/18 40/8/18 
f 36/5/20 35/6/20 38/7/20 40/8/20 
f 39/5/13 37/6/13 34/7/13 33/8/13 
f 41/5/3 42/6/3 43/7/3 44/8/3 
f 42/5/19 45/6/19 46/7/19 43/8/19 
f 45/5/1 47/6/1 48/7/1 46/8/1 
f 47/5/18 41/6/18 44/7/18 48/8/18 
f 44/5/6 43/6/6 46/7/6 48/8/6 
f 47/5/21 45/6/21 42/7/21 41/8/21 
f 49/5/3 50/6/3 51/7/3 52/8/3 
f 50/5/17 53/6/17 54/7/17 51/8/17 
f 53/5/1 55/6/1 56/7/1 54/8/1 
f 55/5/18 49/6/18 52/7/18 56/8/18 
f 52/5/6 51/6/6 54/7/6 56/8/6 
f 55/5/13 53/6/13 50/7/13 49/8/13 
f 57/5/3 58/6/3 59/7/3 60/8/3 
f 58/5/17 61/6/17 62/7/17 59/8/17 
f 61/5/1 63/6/1 64/7/1 62/8/1 
f 63/5/18 57/6/18 60/7/18 64/8/18 
f 60/5/6 59/6/6 62/7/6 64/8/6 
f 63/5/13 61/6/13 58/7/13 57/8/13 
f 65/5/1 66/6/1 67/7/1 68/8/1 
f 66/5/22 69/6/22 70/7/22 67/8/22 
f 69/5/3 71/6/3 72/7/3 70/8/3 
f 71/5/23 65/6/23 68/7/23 72/8/23 
f 68/5/6 67/6/6 70/7/6 72/8/6 
f 71/5/13 69/6/13 66/7/13 65/8/13 
f 73/5/1 74/6/1 75/7/1 76/8/1 
f 74/5/24 77/6/24 78/7/24 75/8/24 
f 77/5/3 79/6/3 80/7/3 78/8/3 
f 79/5/17 73/6/17 76/7/17 80/8/17 
f 76/5/20 75/6/20 78/7/20 80/8/20 
f 79/5/13 77/6/13 74/7/13 73/8/13 
f 81/5/1 82/6/1 83/7/1 84/8/1 
f 82/5/18 85/6/18 86/7/18 83/8/18 
f 85/5/3 87/6/3 88/7/3 86/8/3 
f 87/5/17 81/6/17 84/7/17 88/8/17 
f 84/5/6 83/6/6 86/7/6 88/8/6 
f 87/5/14 85/6/14 82/7/14 81/8/14 
f 89/5/1 90/6/1 91/7/1 92/8/1 
f 90/5/24 93/6/24 94/7/24 91/8/24 
f 93/5/3 95/6/3 96/7/3 94/8/3 
f 95/5/17 89/6/17 92/7/17 96/8/17 
f 92/5/6 91/6/6 94/7/6 96/8/6 
f 95/5/13 93/6/13 90/7/13 89/8/13 
f 97/5/1 98/6/1 99/7/1 100/8/1 
f 98/5/18 101/6/18 102/7/18 99/8/18 
f 101/5/3 103/6/3 104/7/3 102/8/3 
f 103/5/17 97/6/17 100/7/17 104/8/17 
f 100/5/6 99/6/6 102/7/6 104/8/6 
f 103/5/13 101/6/13 98/7/13 97/8/13 
f 105/9/25 106/9/25 107/10/25 108/10/25 
s 1
f 109/11/17 105/9/17 108/10/4 110/12/17 
s off
f 111/13/1 112/13/1 106/9/1 105/9/1 
s 1
f 106/9/18 113/11/18 114/12/2 107/10/2 
s off
f 108/10/6 107/10/6 114/12/6 110/12/6 
f 113/11/26 109/11/26 110/12/26 114/12/26 
s 1
f 115/14/17 111/13/17 105/9/17 109/11/17 
s 2
f 116/15/13 117/16/13 118/14/14 112/13/13 
f 119/15/13 116/15/13 112/13/13 111/13/13 
f 115/14/14 118/14/14 117/16/13 120/16/14 
f 111/13/13 115/14/14 120/16/14 119/15/13 
s 1
f 112/13/18 118/14/18 113/11/18 106/9/18 
s off
f 118/14/3 115/14/3 109/11/3 113/11/3 
f 121/17/27 122/18/27 123/18/27 124/17/27 
s 1
f 125/19/2 126/20/18 122/18/18 121/17/2 
s off
f 116/21/3 119/21/3 121/17/3 124/17/3 
s 1
f 124/17/4 123/18/4 127/20/17 128/19/4 
s off
f 122/18/14 126/20/14 127/20/14 123/18/14 
f 128/19/28 127/20/28 126/20/28 125/19/28 
s 1
f 119/21/2 120/22/2 125/19/2 121/17/2 
f 117/22/4 116/21/4 124/17/4 128/19/4 
s off
f 120/22/1 117/22/1 128/19/1 125/19/1 
f 129/23/29 130/23/29 131/24/29 132/24/29 
f 132/24/30 131/24/30 133/25/30 134/25/30 
f 134/25/31 133/25/31 135/26/31 136/26/31 
f 136/26/32 135/26/32 137/27/32 138/27/32 
f 138/27/33 137/27/33 139/28/33 140/28/33 
f 140/28/34 139/28/34 141/29/34 142/29/34 
f 142/29/35 141/29/35 143/30/35 144/30/35 
f 144/30/36 143/30/36 145/31/36 146/31/36 
f 146/31/37 145/31/37 147/32/37 148/32/37 
f 148/32/38 147/32/38 149/33/38 150/33/38 
s 1
f 133/25/24 131/24/24 151/34/24 152/35/24 
s off
f 150/33/39 149/33/39 153/36/39 154/36/39 
f 154/36/40 153/36/40 130/23/40 129/23/40 
f 129/23/19 132/24/19 134/25/19 136/26/19 
f 129/23/19 136/26/19 138/27/19 140/28/19 
f 129/23/4 140/28/4 142/29/4 144/30/4 
f 129/23/19 144/30/19 146/31/19 148/32/19 
f 129/23/23 148/32/23 150/33/23 154/36/23 
f 155/37/32 156/38/32 157/38/32 158/37/32 
s 1
f 149/33/24 147/32/24 159/39/24 160/40/24 
f 147/32/24 145/31/24 161/41/24 159/39/24 
f 145/31/24 143/30/22 162/42/22 161/41/24 
s off
f 143/30/2 141/29/2 163/43/2 162/42/2 
s 1
f 141/29/22 139/28/22 164/44/22 163/43/24 
f 139/28/22 137/27/24 155/37/24 164/44/22 
f 137/27/24 135/26/24 156/38/24 155/37/24 
f 130/23/24 153/36/24 165/45/24 166/46/24 
f 131/24/24 130/23/24 166/46/24 151/34/24 
f 135/26/24 133/25/24 152/35/24 156/38/24 
f 153/36/24 149/33/24 160/40/24 165/45/24 
s off
f 167/34/24 168/46/24 169/45/24 170/40/24 
f 167/34/24 170/40/24 171/39/24 172/41/24 
f 167/34/24 172/41/24 173/42/24 174/43/24 
f 167/34/24 174/43/24 175/44/24 158/37/24 
f 167/34/24 158/37/24 157/38/24 176/35/24 
f 165/45/39 160/40/39 170/40/39 169/45/39 
f 151/34/29 166/46/29 168/46/29 167/34/29 
f 161/41/36 162/42/36 173/42/36 172/41/36 
f 164/44/33 155/37/33 158/37/33 175/44/33 
f 166/46/40 165/45/40 169/45/40 168/46/40 
f 152/35/30 151/34/30 167/34/30 176/35/30 
f 159/39/37 161/41/37 172/41/37 171/39/37 
f 163/43/34 164/44/34 175/44/34 174/43/34 
f 156/38/41 152/35/41 176/35/41 157/38/41 
f 160/40/38 159/39/38 171/39/38 170/40/38 
f 162/42/35 163/43/35 174/43/35 173/42/35 
f 177/47/3 178/47/3 179/48/3 180/48/3 
f 178/47/4 181/49/4 182/50/4 179/48/4 
f 181/49/42 183/49/42 184/50/42 182/50/42 
f 183/49/24 177/47/24 180/48/24 184/50/24 
f 180/48/20 179/48/20 182/50/20 184/50/20 
f 183/49/13 181/49/13 178/47/13 177/47/13 
f 185/51/3 186/51/3 187/52/3 188/52/3 
s 1
f 189/53/19 190/54/19 191/55/19 192/56/19 
s off
f 190/54/1 193/54/1 194/55/1 191/55/1 
s 1
f 195/53/24 185/51/24 188/52/24 196/56/24 
s off
f 196/56/43 192/56/43 191/55/43 194/55/43 
f 195/53/44 189/53/44 186/51/44 185/51/44 
f 193/54/45 190/54/45 189/53/45 195/53/45 
f 188/52/46 187/52/46 192/56/46 196/56/46 
s 1
f 193/54/24 195/53/24 196/56/24 194/55/24 
f 186/51/19 189/53/19 192/56/19 187/52/19 
s off
f 197/57/47 198/58/47 199/59/47 200/60/47 
f 200/60/48 199/59/48 201/61/48 202/62/48 
f 202/62/49 201/61/49 203/61/49 204/62/49 
f 204/62/50 203/61/50 205/61/50 206/62/50 
f 206/62/51 205/61/51 207/59/51 208/60/51 
f 208/60/52 207/59/52 209/58/52 210/57/52 
f 210/57/53 209/58/53 211/63/53 212/64/53 
f 212/64/54 211/63/54 213/65/54 214/66/54 
f 214/66/55 213/65/55 215/65/55 216/66/55 
f 216/66/56 215/65/56 217/65/56 218/66/56 
f 199/59/13 198/58/13 219/63/13 217/65/13 
f 199/59/14 217/65/14 215/65/14 213/65/14 
f 199/59/13 213/65/13 211/63/13 209/58/13 
f 199/59/13 209/58/13 207/59/13 205/61/13 
f 199/59/13 205/61/13 203/61/13 201/61/13 
f 218/66/57 217/65/57 219/63/57 220/64/57 
f 220/64/58 219/63/58 198/58/58 197/57/58 
f 197/57/6 200/60/6 202/62/6 204/62/6 
f 197/57/6 204/62/6 206/62/6 208/60/6 
f 197/57/6 208/60/6 210/57/6 212/64/6 
f 197/57/6 212/64/6 214/66/6 216/66/6 
f 197/57/6 216/66/6 218/66/6 220/64/6 
f 221/67/47 222/68/47 223/69/47 224/70/47 
f 224/70/48 223/69/48 225/71/48 226/72/48 
f 226/72/49 225/71/49 227/73/49 228/74/49 
f 228/74/50 227/73/50 229/71/50 230/72/50 
f 230/72/51 229/71/51 231/69/51 232/70/51 
f 232/70/59 231/69/59 233/68/59 234/67/59 
f 234/67/53 233/68/53 235/75/53 236/76/53 
f 236/76/54 235/75/54 237/77/54 238/78/54 
f 238/78/60 237/77/60 239/77/60 240/78/60 
f 240/78/56 239/77/56 241/77/56 242/78/56 
f 223/69/13 222/68/13 243/75/13 241/77/13 
f 223/69/13 241/77/13 239/77/13 237/77/13 
f 223/69/13 237/77/13 235/75/13 233/68/13 
f 223/69/13 233/68/13 231/69/13 229/71/13 
f 223/69/13 229/71/13 227/73/13 225/71/13 
f 242/78/57 241/77/57 243/75/57 244/76/57 
f 244/76/58 243/75/58 222/68/58 221/67/58 
f 221/67/61 224/70/61 226/72/61 228/74/61 
f 221/67/20 228/74/20 230/72/20 232/70/20 
f 221/67/61 232/70/61 234/67/61 236/76/61 
f 221/67/6 236/76/6 238/78/6 240/78/6 
f 221/67/6 240/78/6 242/78/6 244/76/6 
f 245/79/29 246/79/29 247/80/29 248/80/29 
f 248/80/30 247/80/30 249/81/30 250/81/30 
f 250/81/41 249/81/41 251/82/41 252/82/41 
f 252/82/62 251/82/62 253/83/62 254/83/62 
f 254/83/33 253/83/33 255/84/33 256/84/33 
f 256/84/34 255/84/34 257/85/34 258/85/34 
f 258/85/63 257/85/63 259/86/63 260/86/63 
f 260/86/64 259/86/64 261/87/64 262/87/64 
f 262/87/37 261/87/37 263/88/37 264/88/37 
f 264/88/38 263/88/38 265/89/38 266/89/38 
s 1
f 249/81/2 247/80/18 267/90/18 268/91/2 
s off
f 266/89/39 265/89/39 269/92/39 270/92/39 
f 270/92/40 269/92/40 246/79/40 245/79/40 
f 245/79/17 248/80/17 250/81/17 252/82/17 
f 245/79/23 252/82/23 254/83/23 256/84/23 
f 245/79/23 256/84/23 258/85/23 260/86/23 
f 245/79/23 260/86/23 262/87/23 264/88/23 
f 245/79/19 264/88/19 266/89/19 270/92/19 
f 271/93/62 272/94/62 273/94/62 274/93/62 
s 2
f 265/89/24 263/88/24 275/95/24 276/96/24 
f 263/88/24 261/87/24 277/97/24 275/95/24 
s 1
f 261/87/24 259/86/22 278/98/22 277/97/24 
f 259/86/22 257/85/22 279/99/22 278/98/22 
f 257/85/22 255/84/2 280/100/2 279/99/22 
f 255/84/2 253/83/24 271/93/24 280/100/2 
s 2
f 253/83/24 251/82/24 272/94/24 271/93/24 
f 246/79/24 269/92/24 281/101/24 282/102/24 
s 1
f 247/80/18 246/79/2 282/102/18 267/90/18 
s 2
f 251/82/24 249/81/24 268/91/24 272/94/24 
f 269/92/24 265/89/24 276/96/24 281/101/24 
s off
f 283/90/2 284/102/2 285/101/2 286/96/2 
f 283/90/22 286/96/22 287/95/22 288/97/22 
f 283/90/24 288/97/24 289/98/24 290/99/24 
f 283/90/24 290/99/24 291/100/24 274/93/24 
f 283/90/24 274/93/24 273/94/24 292/91/24 
f 281/101/39 276/96/39 286/96/39 285/101/39 
f 267/90/65 282/102/65 284/102/65 283/90/65 
f 277/97/36 278/98/36 289/98/36 288/97/36 
f 280/100/33 271/93/33 274/93/33 291/100/33 
f 282/102/40 281/101/40 285/101/40 284/102/40 
f 268/91/66 267/90/66 283/90/66 292/91/66 
f 275/95/67 277/97/67 288/97/67 287/95/67 
f 279/99/34 280/100/34 291/100/34 290/99/34 
f 272/94/41 268/91/41 292/91/41 273/94/41 
f 276/96/38 275/95/38 287/95/38 286/96/38 
f 278/98/35 279/99/35 290/99/35 289/98/35 
f 293/103/29 294/103/29 295/104/29 296/104/29 
f 296/104/30 295/104/30 297/105/30 298/105/30 
f 298/105/41 297/105/41 299/106/41 300/106/41 
f 300/106/62 299/106/62 301/107/62 302/107/62 
f 302/107/33 301/107/33 303/108/33 304/108/33 
f 304/108/34 303/108/34 305/109/34 306/109/34 
f 306/109/35 305/109/35 307/110/35 308/110/35 
f 308/110/36 307/110/36 309/111/36 310/111/36 
f 310/111/37 309/111/37 311/112/37 312/112/37 
f 312/112/38 311/112/38 313/113/38 314/113/38 
s 1
f 297/105/22 295/104/24 315/114/22 316/115/22 
s off
f 314/113/39 313/113/39 317/116/39 318/116/39 
f 318/116/40 317/116/40 294/103/40 293/103/40 
f 293/103/23 296/104/23 298/105/23 300/106/23 
f 293/103/19 300/106/19 302/107/19 304/108/19 
f 293/103/17 304/108/17 306/109/17 308/110/17 
f 293/103/19 308/110/19 310/111/19 312/112/19 
f 293/103/4 312/112/4 314/113/4 318/116/4 
f 319/117/62 320/118/62 321/118/62 322/117/62 
s 1
f 313/113/24 311/112/24 323/119/24 324/120/24 
f 311/112/24 309/111/24 325/121/24 323/119/24 
f 309/111/24 307/110/24 326/122/24 325/121/24 
f 307/110/24 305/109/24 327/123/24 326/122/24 
f 305/109/24 303/108/22 328/124/22 327/123/24 
f 303/108/22 301/107/22 319/117/22 328/124/22 
f 301/107/22 299/106/24 320/118/18 319/117/22 
f 294/103/24 317/116/24 329/125/24 330/126/24 
f 295/104/24 294/103/24 330/126/24 315/114/22 
f 299/106/24 297/105/22 316/115/22 320/118/18 
f 317/116/24 313/113/24 324/120/24 329/125/24 
s off
f 331/114/24 332/126/24 333/125/24 334/120/24 
f 331/114/24 334/120/24 335/119/24 336/121/24 
f 331/114/24 336/121/24 337/122/24 338/123/24 
f 331/114/24 338/123/24 339/124/24 322/117/24 
f 331/114/24 322/117/24 321/118/24 340/115/24 
f 329/125/39 324/120/39 334/120/39 333/125/39 
f 315/114/29 330/126/29 332/126/29 331/114/29 
f 325/121/36 326/122/36 337/122/36 336/121/36 
f 328/124/33 319/117/33 322/117/33 339/124/33 
f 330/126/40 329/125/40 333/125/40 332/126/40 
f 316/115/30 315/114/30 331/114/30 340/115/30 
f 323/119/37 325/121/37 336/121/37 335/119/37 
f 327/123/34 328/124/34 339/124/34 338/123/34 
f 320/118/41 316/115/41 340/115/41 321/118/41 
f 324/120/38 323/119/38 335/119/38 334/120/38 
f 326/122/35 327/123/35 338/123/35 337/122/35 
f 341/127/47 342/128/47 343/129/47 344/130/47 
f 344/130/48 343/129/48 345/131/48 346/132/48 
f 346/132/49 345/131/49 347/131/49 348/132/49 
f 348/132/50 347/131/50 349/131/50 350/132/50 
f 350/132/51 349/131/51 351/129/51 352/130/51 
f 352/130/59 351/129/59 353/128/59 354/127/59 
f 354/127/53 353/128/53 355/133/53 356/134/53 
f 356/134/54 355/133/54 357/135/54 358/136/54 
f 358/136/55 357/135/55 359/135/55 360/136/55 
f 360/136/56 359/135/56 361/135/56 362/136/56 
f 343/129/13 342/128/13 363/133/13 361/135/13 
f 343/129/13 361/135/13 359/135/13 357/135/13 
f 343/129/13 357/135/13 355/133/13 353/128/13 
f 343/129/13 353/128/13 351/129/13 349/131/13 
f 343/129/13 349/131/13 347/131/13 345/131/13 
f 362/136/57 361/135/57 363/133/57 364/134/57 
f 364/134/58 363/133/58 342/128/58 341/127/58 
f 341/127/6 344/130/6 346/132/6 348/132/6 
f 341/127/6 348/132/6 350/132/6 352/130/6 
f 341/127/6 352/130/6 354/127/6 356/134/6 
f 341/127/6 356/134/6 358/136/6 360/136/6 
f 341/127/6 360/136/6 362/136/6 364/134/6 
f 365/137/47 366/138/47 367/139/47 368/140/47 
f 368/140/48 367/139/48 369/141/48 370/142/48 
f 370/142/49 369/141/49 371/141/49 372/142/49 
f 372/142/50 371/141/50 373/141/50 374/142/50 
f 374/142/51 373/141/51 375/139/51 376/140/51 
f 376/140/59 375/139/59 377/138/59 378/137/59 
f 378/137/53 377/138/53 379/143/53 380/144/53 
f 380/144/54 379/143/54 381/145/54 382/146/54 
f 382/146/55 381/145/55 383/145/55 384/146/55 
f 384/146/56 383/145/56 385/145/56 386/146/56 
f 367/139/13 366/138/13 387/143/13 385/145/13 
f 367/139/13 385/145/13 383/145/13 381/145/13 
f 367/139/13 381/145/13 379/143/13 377/138/13 
f 367/139/21 377/138/21 375/139/21 373/141/21 
f 367/139/13 373/141/13 371/141/13 369/141/13 
f 386/146/57 385/145/57 387/143/57 388/144/57 
f 388/144/58 387/143/58 366/138/58 365/137/58 
f 365/137/6 368/140/6 370/142/6 372/142/6 
f 365/137/6 372/142/6 374/142/6 376/140/6 
f 365/137/61 376/140/61 378/137/61 380/144/61 
f 365/137/61 380/144/61 382/146/61 384/146/61 
f 365/137/6 384/146/6 386/146/6 388/144/6 
f 389/147/3 390/147/3 391/148/3 392/148/3 
s 1
f 393/149/19 394/150/19 395/151/19 396/152/19 
s off
f 394/150/1 397/150/1 398/151/1 395/151/1 
s 1
f 399/149/24 389/147/24 392/148/24 400/152/24 
s off
f 400/152/43 396/152/43 395/151/43 398/151/43 
f 399/149/44 393/149/44 390/147/44 389/147/44 
f 397/150/45 394/150/45 393/149/45 399/149/45 
f 392/148/46 391/148/46 396/152/46 400/152/46 
s 1
f 397/150/24 399/149/24 400/152/24 398/151/24 
f 390/147/19 393/149/19 396/152/19 391/148/19 
s off
f 401/153/68 402/153/68 403/154/68 404/154/68 
f 402/153/4 405/155/4 406/156/4 403/154/4 
f 405/155/1 407/155/1 408/156/1 406/156/1 
f 407/155/24 401/153/24 404/154/24 408/156/24 
f 404/154/20 403/154/20 406/156/20 408/156/20 
f 407/155/13 405/155/13 402/153/13 401/153/13 
f 409/157/29 410/157/29 411/158/29 412/158/29 
f 412/158/30 411/158/30 413/159/30 414/159/30 
f 414/159/41 413/159/41 415/160/41 416/160/41 
f 416/160/62 415/160/62 417/161/62 418/161/62 
f 418/161/33 417/161/33 419/162/33 420/162/33 
f 420/162/34 419/162/34 421/163/34 422/163/34 
f 422/163/35 421/163/35 423/164/35 424/164/35 
f 424/164/36 423/164/36 425/165/36 426/165/36 
f 426/165/37 425/165/37 427/166/37 428/166/37 
f 428/166/38 427/166/38 429/167/38 430/167/38 
s 1
f 413/159/24 411/158/22 431/168/22 432/169/24 
s off
f 430/167/39 429/167/39 433/170/39 434/170/39 
f 434/170/40 433/170/40 410/157/40 409/157/40 
f 409/157/23 412/158/23 414/159/23 416/160/23 
f 409/157/19 416/160/19 418/161/19 420/162/19 
f 409/157/23 420/162/23 422/163/23 424/164/23 
f 409/157/23 424/164/23 426/165/23 428/166/23 
f 409/157/19 428/166/19 430/167/19 434/170/19 
f 435/171/62 436/172/62 437/172/62 438/171/62 
s 2
f 429/167/18 427/166/18 439/173/18 440/174/24 
f 427/166/18 425/165/2 441/175/2 439/173/18 
s 1
f 425/165/24 423/164/24 442/176/24 441/175/24 
f 423/164/24 421/163/24 443/177/24 442/176/24 
s off
f 421/163/24 419/162/24 444/178/24 443/177/24 
f 419/162/24 417/161/24 435/171/24 444/178/24 
f 417/161/24 415/160/24 436/172/24 435/171/24 
s 1
f 410/157/22 433/170/22 445/179/22 446/180/22 
f 411/158/22 410/157/22 446/180/22 431/168/22 
s off
f 415/160/24 413/159/24 432/169/24 436/172/24 
s 1
f 433/170/22 429/167/24 440/174/24 445/179/22 
s off
f 447/168/22 448/180/22 449/179/22 450/174/22 
f 447/168/22 450/174/22 451/173/22 452/175/22 
f 447/168/24 452/175/24 453/176/24 454/177/24 
f 447/168/22 454/177/22 455/178/22 438/171/22 
f 447/168/22 438/171/22 437/172/22 456/169/22 
f 445/179/39 440/174/39 450/174/39 449/179/39 
f 431/168/29 446/180/29 448/180/29 447/168/29 
f 441/175/36 442/176/36 453/176/36 452/175/36 
f 444/178/33 435/171/33 438/171/33 455/178/33 
f 446/180/40 445/179/40 449/179/40 448/180/40 
f 432/169/30 431/168/30 447/168/30 456/169/30 
f 439/173/37 441/175/37 452/175/37 451/173/37 
f 443/177/69 444/178/69 455/178/69 454/177/69 
f 436/172/41 432/169/41 456/169/41 437/172/41 
f 440/174/70 439/173/70 451/173/70 450/174/70 
f 442/176/35 443/177/35 454/177/35 453/176/35 
f 457/79/40 458/79/40 459/92/40 460/92/40 
f 460/92/39 459/92/39 461/89/39 462/89/39 
f 462/89/38 461/89/38 463/88/38 464/88/38 
f 464/88/37 463/88/37 465/87/37 466/87/37 
f 466/87/36 465/87/36 467/86/36 468/86/36 
f 468/86/35 467/86/35 469/85/35 470/85/35 
f 470/85/34 469/85/34 471/84/34 472/84/34 
f 472/84/33 471/84/33 473/83/33 474/83/33 
f 474/83/62 473/83/62 475/82/62 476/82/62 
f 476/82/41 475/82/41 477/81/41 478/81/41 
s 1
f 461/89/4 459/92/23 479/101/23 480/96/4 
s off
f 478/81/30 477/81/30 481/80/30 482/80/30 
f 482/80/29 481/80/29 458/79/29 457/79/29 
f 457/79/24 460/92/24 462/89/24 464/88/24 
f 457/79/2 464/88/2 466/87/2 468/86/2 
f 457/79/22 468/86/22 470/85/22 472/84/22 
f 457/79/22 472/84/22 474/83/22 476/82/22 
f 457/79/18 476/82/18 478/81/18 482/80/18 
f 483/97/37 484/181/37 485/181/37 486/97/37 
s 2
f 477/81/4 475/82/4 487/94/4 488/91/17 
s 1
f 475/82/4 473/83/4 489/93/4 487/94/4 
f 473/83/4 471/84/4 490/100/4 489/93/4 
f 471/84/4 469/85/4 491/99/4 490/100/4 
s 2
f 469/85/19 467/86/4 492/98/4 491/99/19 
f 467/86/4 465/87/4 483/97/4 492/98/4 
f 465/87/4 463/88/4 484/181/4 483/97/4 
f 458/79/17 481/80/17 493/90/17 494/102/4 
s 1
f 459/92/23 458/79/19 494/102/23 479/101/23 
s off
f 463/88/4 461/89/4 480/96/4 484/181/4 
s 2
f 481/80/17 477/81/4 488/91/17 493/90/17 
s off
f 495/101/23 496/102/23 497/90/23 498/91/23 
f 495/101/4 498/91/4 499/94/4 500/93/4 
f 495/101/17 500/93/17 501/100/17 502/99/17 
f 495/101/23 502/99/23 503/98/23 486/97/23 
f 495/101/4 486/97/4 485/181/4 504/96/4 
f 493/90/30 488/91/30 498/91/30 497/90/30 
f 479/101/40 494/102/40 496/102/40 495/101/40 
f 489/93/33 490/100/33 501/100/33 500/93/33 
f 492/98/36 483/97/36 486/97/36 503/98/36 
f 494/102/29 493/90/29 497/90/29 496/102/29 
f 480/96/71 479/101/71 495/101/71 504/96/71 
f 487/94/62 489/93/62 500/93/62 499/94/62 
f 491/99/63 492/98/63 503/98/63 502/99/63 
f 484/181/70 480/96/70 504/96/70 485/181/70 
f 488/91/41 487/94/41 499/94/41 498/91/41 
f 490/100/34 491/99/34 502/99/34 501/100/34 
f 505/49/42 506/49/42 507/50/42 508/50/42 
f 506/49/2 509/182/2 510/183/2 507/50/2 
f 509/182/3 511/182/3 512/183/3 510/183/3 
f 511/182/4 505/49/4 508/50/4 512/183/4 
f 508/50/20 507/50/20 510/183/20 512/183/20 
f 511/182/13 509/182/13 506/49/13 505/49/13 
f 513/54/1 514/54/1 515/55/1 516/55/1 
s 1
f 517/53/2 518/51/24 519/52/24 520/56/2 
s off
f 518/51/3 521/51/3 522/52/3 519/52/3 
s 1
f 523/53/4 513/54/4 516/55/4 524/56/4 
s off
f 524/56/46 520/56/46 519/52/46 522/52/46 
f 523/53/45 517/53/45 514/54/45 513/54/45 
f 521/51/44 518/51/44 517/53/44 523/53/44 
f 516/55/43 515/55/43 520/56/43 524/56/43 
s 1
f 521/51/19 523/53/4 524/56/4 522/52/19 
f 514/54/2 517/53/2 520/56/2 515/55/2 
s off
f 525/67/72 526/68/72 527/75/72 528/76/72 
f 528/76/54 527/75/54 529/184/54 530/185/54 
f 530/185/55 529/184/55 531/77/55 532/78/55 
f 532/78/56 531/77/56 533/184/56 534/185/56 
f 534/185/57 533/184/57 535/75/57 536/76/57 
f 536/76/58 535/75/58 537/68/58 538/67/58 
f 538/67/47 537/68/47 539/71/47 540/72/47 
f 540/72/48 539/71/48 541/73/48 542/74/48 
f 542/74/49 541/73/49 543/73/49 544/74/49 
f 544/74/50 543/73/50 545/73/50 546/74/50 
f 527/75/13 526/68/13 547/71/13 545/73/13 
f 527/75/13 545/73/13 543/73/13 541/73/13 
f 527/75/21 541/73/21 539/71/21 537/68/21 
f 527/75/21 537/68/21 535/75/21 533/184/21 
f 527/75/21 533/184/21 531/77/21 529/184/21 
f 546/74/51 545/73/51 547/71/51 548/72/51 
f 548/72/59 547/71/59 526/68/59 525/67/59 
f 525/67/6 528/76/6 530/185/6 532/78/6 
f 525/67/6 532/78/6 534/185/6 536/76/6 
f 525/67/61 536/76/61 538/67/61 540/72/61 
f 525/67/61 540/72/61 542/74/61 544/74/61 
f 525/67/20 544/74/20 546/74/20 548/72/20 
f 549/57/53 550/58/53 551/63/53 552/64/53 
f 552/64/54 551/63/54 553/65/54 554/66/54 
f 554/66/60 553/65/60 555/65/60 556/66/60 
f 556/66/56 555/65/56 557/65/56 558/66/56 
f 558/66/57 557/65/57 559/63/57 560/64/57 
f 560/64/58 559/63/58 561/58/58 562/57/58 
f 562/57/47 561/58/47 563/59/47 564/60/47 
f 564/60/48 563/59/48 565/61/48 566/62/48 
f 566/62/49 565/61/49 567/186/49 568/187/49 
f 568/187/50 567/186/50 569/61/50 570/62/50 
f 551/63/13 550/58/13 571/59/13 569/61/13 
f 551/63/13 569/61/13 567/186/13 565/61/13 
f 551/63/13 565/61/13 563/59/13 561/58/13 
f 551/63/13 561/58/13 559/63/13 557/65/13 
f 551/63/13 557/65/13 555/65/13 553/65/13 
f 570/62/51 569/61/51 571/59/51 572/60/51 
f 572/60/59 571/59/59 550/58/59 549/57/59 
f 549/57/6 552/64/6 554/66/6 556/66/6 
f 549/57/6 556/66/6 558/66/6 560/64/6 
f 549/57/6 560/64/6 562/57/6 564/60/6 
f 549/57/6 564/60/6 566/62/6 568/187/6 
f 549/57/6 568/187/6 570/62/6 572/60/6 
f 573/23/40 574/23/40 575/36/40 576/36/40 
f 576/36/39 575/36/39 577/33/39 578/33/39 
f 578/33/38 577/33/38 579/32/38 580/32/38 
f 580/32/37 579/32/37 581/31/37 582/31/37 
f 582/31/36 581/31/36 583/30/36 584/30/36 
f 584/30/35 583/30/35 585/29/35 586/29/35 
f 586/29/34 585/29/34 587/188/34 588/188/34 
f 588/188/33 587/188/33 589/189/33 590/189/33 
f 590/189/62 589/189/62 591/190/62 592/190/62 
f 592/190/41 591/190/41 593/191/41 594/191/41 
s 1
f 577/33/4 575/36/4 595/192/4 596/40/4 
s off
f 594/191/30 593/191/30 597/193/30 598/193/30 
f 598/193/29 597/193/29 574/23/29 573/23/29 
f 573/23/2 576/36/2 578/33/2 580/32/2 
f 573/23/24 580/32/24 582/31/24 584/30/24 
f 573/23/2 584/30/2 586/29/2 588/188/2 
f 573/23/2 588/188/2 590/189/2 592/190/2 
f 573/23/2 592/190/2 594/191/2 598/193/2 
f 599/41/37 600/194/37 601/194/37 602/41/37 
s 1
f 593/191/4 591/190/4 603/38/4 604/35/23 
f 591/190/4 589/189/4 605/37/4 603/38/4 
s 2
f 589/189/4 587/188/4 606/44/4 605/37/4 
f 587/188/4 585/29/4 607/43/4 606/44/4 
s off
f 585/29/4 583/30/4 608/195/4 607/43/4 
f 583/30/4 581/31/4 599/41/4 608/195/4 
f 581/31/4 579/32/4 600/194/4 599/41/4 
f 574/23/23 597/193/23 609/34/23 610/46/23 
s 1
f 575/36/4 574/23/4 610/46/4 595/192/4 
s off
f 579/32/4 577/33/4 596/40/4 600/194/4 
s 1
f 597/193/23 593/191/4 604/35/23 609/34/23 
s off
f 611/192/17 612/46/17 613/34/17 614/35/17 
f 611/192/4 614/35/4 615/38/4 616/37/4 
f 611/192/4 616/37/4 617/44/4 618/43/4 
f 611/192/4 618/43/4 619/195/4 602/41/4 
f 611/192/23 602/41/23 601/194/23 620/40/23 
f 609/34/30 604/35/30 614/35/30 613/34/30 
f 595/192/73 610/46/73 612/46/73 611/192/73 
f 605/37/33 606/44/33 617/44/33 616/37/33 
f 608/195/36 599/41/36 602/41/36 619/195/36 
f 610/46/65 609/34/65 613/34/65 612/46/65 
f 596/40/39 595/192/39 611/192/39 620/40/39 
f 603/38/62 605/37/62 616/37/62 615/38/62 
f 607/43/35 608/195/35 619/195/35 618/43/35 
f 600/194/38 596/40/38 620/40/38 601/194/38 
f 604/35/41 603/38/41 615/38/41 614/35/41 
f 606/44/34 607/43/34 618/43/34 617/44/34 
f 621/157/40 622/157/40 623/170/40 624/170/40 
f 624/170/39 623/170/39 625/167/39 626/167/39 
f 626/167/38 625/167/38 627/166/38 628/166/38 
f 628/166/37 627/166/37 629/165/37 630/165/37 
f 630/165/36 629/165/36 631/164/36 632/164/36 
f 632/164/35 631/164/35 633/163/35 634/163/35 
f 634/163/69 633/163/69 635/196/69 636/196/69 
f 636/196/74 635/196/74 637/197/74 638/197/74 
f 638/197/62 637/197/62 639/198/62 640/198/62 
f 640/198/41 639/198/41 641/199/41 642/199/41 
s 1
f 625/167/4 623/170/4 643/200/4 644/174/4 
s off
f 642/199/30 641/199/30 645/201/30 646/201/30 
f 646/201/29 645/201/29 622/157/29 621/157/29 
f 621/157/18 624/170/18 626/167/18 628/166/18 
f 621/157/2 628/166/2 630/165/2 632/164/2 
f 621/157/22 632/164/22 634/163/22 636/196/22 
f 621/157/24 636/196/24 638/197/24 640/198/24 
f 621/157/22 640/198/22 642/199/22 646/201/22 
f 647/175/67 648/202/67 649/202/67 650/175/67 
s 2
f 641/199/4 639/198/4 651/172/4 652/169/23 
s 4
f 639/198/4 637/197/23 653/171/23 651/172/4 
f 637/197/23 635/196/19 654/178/19 653/171/23 
s 1
f 635/196/19 633/163/19 655/177/19 654/178/19 
f 633/163/19 631/164/4 656/203/4 655/177/19 
f 631/164/4 629/165/4 647/175/4 656/203/4 
f 629/165/4 627/166/4 648/202/4 647/175/4 
f 622/157/23 645/201/23 657/168/23 658/180/4 
f 623/170/4 622/157/23 658/180/4 643/200/4 
f 627/166/4 625/167/4 644/174/4 648/202/4 
s 2
f 645/201/23 641/199/4 652/169/23 657/168/23 
s off
f 659/200/4 660/180/4 661/168/4 662/169/4 
f 659/200/4 662/169/4 663/172/4 664/171/4 
f 659/200/23 664/171/23 665/178/23 666/177/23 
f 659/200/23 666/177/23 667/203/23 650/175/23 
f 659/200/23 650/175/23 649/202/23 668/174/23 
f 657/168/30 652/169/30 662/169/30 661/168/30 
f 643/200/40 658/180/40 660/180/40 659/200/40 
f 653/171/33 654/178/33 665/178/33 664/171/33 
f 656/203/64 647/175/64 650/175/64 667/203/64 
f 658/180/29 657/168/29 661/168/29 660/180/29 
f 644/174/39 643/200/39 659/200/39 668/174/39 
f 651/172/32 653/171/32 664/171/32 663/172/32 
f 655/177/35 656/203/35 667/203/35 666/177/35 
f 648/202/38 644/174/38 668/174/38 649/202/38 
f 652/169/41 651/172/41 663/172/41 662/169/41 
f 654/178/34 655/177/34 666/177/34 665/178/34 
f 669/137/53 670/138/53 671/143/53 672/144/53 
f 672/144/54 671/143/54 673/145/54 674/146/54 
f 674/146/55 673/145/55 675/145/55 676/146/55 
f 676/146/56 675/145/56 677/145/56 678/146/56 
f 678/146/57 677/145/57 679/143/57 680/144/57 
f 680/144/58 679/143/58 681/138/58 682/137/58 
f 682/137/47 681/138/47 683/139/47 684/140/47 
f 684/140/48 683/139/48 685/141/48 686/142/48 
f 686/142/49 685/141/49 687/204/49 688/205/49 
f 688/205/50 687/204/50 689/141/50 690/142/50 
f 671/143/13 670/138/13 691/139/13 689/141/13 
f 671/143/13 689/141/13 687/204/13 685/141/13 
f 671/143/13 685/141/13 683/139/13 681/138/13 
f 671/143/13 681/138/13 679/143/13 677/145/13 
f 671/143/13 677/145/13 675/145/13 673/145/13 
f 690/142/51 689/141/51 691/139/51 692/140/51 
f 692/140/59 691/139/59 670/138/59 669/137/59 
f 669/137/61 672/144/61 674/146/61 676/146/61 
f 669/137/20 676/146/20 678/146/20 680/144/20 
f 669/137/61 680/144/61 682/137/61 684/140/61 
f 669/137/6 684/140/6 686/142/6 688/205/6 
f 669/137/6 688/205/6 690/142/6 692/140/6 
f 693/127/53 694/128/53 695/133/53 696/134/53 
f 696/134/54 695/133/54 697/206/54 698/207/54 
f 698/207/55 697/206/55 699/135/55 700/136/55 
f 700/136/56 699/135/56 701/206/56 702/207/56 
f 702/207/57 701/206/57 703/133/57 704/134/57 
f 704/134/58 703/133/58 705/128/58 706/127/58 
f 706/127/47 705/128/47 707/208/47 708/209/47 
f 708/209/48 707/208/48 709/131/48 710/132/48 
f 710/132/49 709/131/49 711/131/49 712/132/49 
f 712/132/50 711/131/50 713/131/50 714/132/50 
f 695/133/13 694/128/13 715/208/13 713/131/13 
f 695/133/13 713/131/13 711/131/13 709/131/13 
f 695/133/13 709/131/13 707/208/13 705/128/13 
f 695/133/13 705/128/13 703/133/13 701/206/13 
f 695/133/13 701/206/13 699/135/13 697/206/13 
f 714/132/51 713/131/51 715/208/51 716/209/51 
f 716/209/59 715/208/59 694/128/59 693/127/59 
f 693/127/6 696/134/6 698/207/6 700/136/6 
f 693/127/6 700/136/6 702/207/6 704/134/6 
f 693/127/6 704/134/6 706/127/6 708/209/6 
f 693/127/6 708/209/6 710/132/6 712/132/6 
f 693/127/6 712/132/6 714/132/6 716/209/6 
f 717/150/1 718/150/1 719/151/1 720/151/1 
s 1
f 721/149/2 722/147/2 723/148/2 724/152/2 
s off
f 722/147/3 725/147/3 726/148/3 723/148/3 
s 1
f 727/149/4 717/150/4 720/151/4 728/152/4 
s off
f 728/152/46 724/152/46 723/148/46 726/148/46 
f 727/149/45 721/149/45 718/150/45 717/150/45 
f 725/147/44 722/147/44 721/149/44 727/149/44 
f 720/151/43 719/151/43 724/152/43 728/152/43 
s 1
f 725/147/4 727/149/4 728/152/4 726/148/4 
f 718/150/24 721/149/2 724/152/2 719/151/24 
s off
f 729/155/1 730/155/1 731/156/1 732/156/1 
f 730/155/2 733/210/2 734/211/2 731/156/2 
f 733/210/68 735/210/68 736/211/68 734/211/68 
f 735/210/4 729/155/4 732/156/4 736/211/4 
f 732/156/20 731/156/20 734/211/20 736/211/20 
f 735/210/13 733/210/13 730/155/13 729/155/13 
f 737/103/40 738/103/40 739/116/40 740/116/40 
f 740/116/39 739/116/39 741/113/39 742/113/39 
f 742/113/38 741/113/38 743/112/38 744/112/38 
f 744/112/67 743/112/67 745/111/67 746/111/67 
f 746/111/36 745/111/36 747/110/36 748/110/36 
f 748/110/35 747/110/35 749/109/35 750/109/35 
f 750/109/34 749/109/34 751/108/34 752/108/34 
f 752/108/33 751/108/33 753/107/33 754/107/33 
f 754/107/62 753/107/62 755/106/62 756/106/62 
f 756/106/41 755/106/41 757/105/41 758/105/41 
s 1
f 741/113/23 739/116/17 759/125/17 760/120/23 
s off
f 758/105/30 757/105/30 761/104/30 762/104/30 
f 762/104/29 761/104/29 738/103/29 737/103/29 
f 737/103/2 740/116/2 742/113/2 744/112/2 
f 737/103/2 744/112/2 746/111/2 748/110/2 
f 737/103/2 748/110/2 750/109/2 752/108/2 
f 737/103/22 752/108/22 754/107/22 756/106/22 
f 737/103/24 756/106/24 758/105/24 762/104/24 
f 763/121/67 764/212/67 765/212/67 766/121/67 
s 2
f 757/105/4 755/106/23 767/118/4 768/115/4 
f 755/106/23 753/107/4 769/117/4 767/118/4 
f 753/107/4 751/108/4 770/124/4 769/117/4 
f 751/108/4 749/109/4 771/123/4 770/124/4 
s 1
f 749/109/4 747/110/4 772/122/4 771/123/4 
f 747/110/4 745/111/4 763/121/4 772/122/4 
f 745/111/4 743/112/23 764/212/4 763/121/4 
s 4
f 738/103/4 761/104/4 773/114/4 774/126/4 
s 1
f 739/116/17 738/103/4 774/126/17 759/125/17 
f 743/112/23 741/113/23 760/120/23 764/212/4 
s 4
f 761/104/4 757/105/4 768/115/4 773/114/4 
s off
f 775/125/17 776/126/17 777/114/17 778/115/17 
f 775/125/4 778/115/4 779/118/4 780/117/4 
f 775/125/4 780/117/4 781/124/4 782/123/4 
f 775/125/4 782/123/4 783/122/4 766/121/4 
f 775/125/4 766/121/4 765/212/4 784/120/4 
f 773/114/30 768/115/30 778/115/30 777/114/30 
f 759/125/73 774/126/73 776/126/73 775/125/73 
f 769/117/33 770/124/33 781/124/33 780/117/33 
f 772/122/64 763/121/64 766/121/64 783/122/64 
f 774/126/65 773/114/65 777/114/65 776/126/65 
f 760/120/39 759/125/39 775/125/39 784/120/39 
f 767/118/62 769/117/62 780/117/62 779/118/62 
f 771/123/35 772/122/35 783/122/35 782/123/35 
f 764/212/38 760/120/38 784/120/38 765/212/38 
f 768/115/41 767/118/41 779/118/41 778/115/41 
f 770/124/34 771/123/34 782/123/34 781/124/34 
f 785/213/3 786/214/3 787/215/3 788/216/3 
f 786/213/19 789/214/19 790/215/19 787/216/19 
f 789/213/75 791/214/75 792/215/75 790/216/75 
f 791/213/24 785/214/24 788/215/24 792/216/24 
f 788/213/5 787/214/5 790/215/5 792/216/5 
f 791/213/13 789/214/13 786/215/13 785/216/13 
f 793/213/1 794/214/1 795/215/1 796/216/1 
f 794/213/22 797/214/22 798/215/22 795/216/22 
f 797/213/76 799/214/76 800/215/76 798/216/76 
f 799/213/23 793/214/23 796/215/23 800/216/23 
f 796/213/5 795/214/5 798/215/5 800/216/5 
f 799/213/13 797/214/13 794/215/13 793/216/13 
f 801/213/77 802/214/77 803/215/77 804/216/77 
f 802/213/2 805/214/2 806/215/2 803/216/2 
f 805/213/78 807/214/78 808/215/78 806/216/78 
f 807/213/17 801/214/17 804/215/17 808/216/17 
f 804/213/6 803/214/6 806/215/6 808/216/6 
f 807/213/14 805/214/14 802/215/14 801/216/14 
s 1
f 809/213/1 810/214/1 811/215/1 812/216/1 
s 2
f 810/213/2 813/214/2 814/215/2 811/216/2 
s 1
f 813/213/3 815/214/3 816/215/3 814/216/3 
s 2
f 815/213/4 809/214/4 812/215/4 816/216/4 
s off
f 812/213/6 811/214/6 814/215/6 816/216/6 
s 4
f 817/217/14 818/218/13 819/219/13 820/220/14 
f 820/221/14 819/222/13 821/223/14 822/224/13 
f 823/217/14 824/218/13 822/219/13 821/220/14 
f 824/217/13 817/218/14 820/219/14 822/220/13 
f 818/217/13 823/218/14 821/219/14 819/220/13 
s 2
f 817/217/4 824/218/4 809/219/4 815/220/4 
s 1
f 818/217/3 817/218/3 815/219/3 813/220/3 
s 2
f 823/217/2 818/218/2 813/219/2 810/220/2 
s 1
f 824/217/1 823/218/1 810/219/1 809/220/1 
s off
f 825/225/3 826/225/3 827/226/3 828/226/3 
f 826/225/17 829/227/17 830/228/17 827/226/17 
f 829/227/1 831/227/1 832/228/1 830/228/1 
f 831/227/24 825/225/24 828/226/24 832/228/24 
f 828/226/20 827/226/20 830/228/20 832/228/20 
f 831/227/21 829/227/21 826/225/21 825/225/21 
f 833/229/3 834/229/3 835/230/3 836/230/3 
f 837/231/24 838/232/24 833/229/24 836/230/24 
f 839/233/24 837/231/24 836/230/24 840/234/24 
f 841/235/24 839/233/24 840/234/24 842/236/24 
f 843/232/13 834/229/13 833/229/13 838/232/13 
f 844/233/19 845/235/19 846/236/19 847/234/19 
f 848/231/19 844/233/19 847/234/19 835/230/19 
f 843/232/19 848/231/19 835/230/19 834/229/19 
f 836/230/5 835/230/5 847/234/5 840/234/5 
f 846/236/1 842/236/1 840/234/1 847/234/1 
f 842/236/21 846/236/21 845/235/21 841/235/21 
f 848/231/1 843/232/1 838/232/1 837/231/1 
f 837/231/13 839/233/13 844/233/13 848/231/13 
f 839/233/3 841/235/3 845/235/3 844/233/3 
f 849/225/1 850/225/1 851/226/1 852/226/1 
f 850/225/13 853/227/13 854/228/13 851/226/13 
f 853/227/3 855/227/3 856/228/3 854/228/3 
f 855/227/61 849/225/61 852/226/61 856/228/61 
f 852/226/24 851/226/24 854/228/24 856/228/24 
f 855/227/19 853/227/19 850/225/19 849/225/19 
f 857/229/1 858/229/1 859/230/1 860/230/1 
f 861/231/6 862/232/6 857/229/6 860/230/6 
f 863/233/6 861/231/6 860/230/6 864/234/6 
f 865/235/6 863/233/6 864/234/6 866/236/6 
f 867/232/23 858/229/23 857/229/23 862/232/23 
f 868/233/14 869/235/14 870/236/14 871/234/14 
f 872/231/13 868/233/13 871/234/13 859/230/13 
f 867/232/79 872/231/79 859/230/79 858/229/79 
f 860/230/24 859/230/24 871/234/24 864/234/24 
f 870/236/68 866/236/68 864/234/68 871/234/68 
f 866/236/19 870/236/19 869/235/19 865/235/19 
f 872/231/3 867/232/3 862/232/3 861/231/3 
f 861/231/19 863/233/19 868/233/19 872/231/19 
f 863/233/1 865/235/1 869/235/1 868/233/1 
f 873/225/1 874/225/1 875/226/1 876/226/1 
f 874/225/6 877/227/6 878/228/6 875/226/6 
f 877/227/3 879/227/3 880/228/3 878/228/3 
f 879/227/13 873/225/13 876/226/13 880/228/13 
f 876/226/19 875/226/19 878/228/19 880/228/19 
f 879/227/22 877/227/22 874/225/22 873/225/22 
f 881/229/1 882/229/1 883/230/1 884/230/1 
f 885/231/14 886/232/14 881/229/14 884/230/14 
f 887/233/14 885/231/14 884/230/14 888/234/14 
f 889/235/13 887/233/13 888/234/13 890/236/13 
f 891/232/24 882/229/24 881/229/24 886/232/24 
f 892/233/6 893/235/6 894/236/6 895/234/6 
f 896/231/5 892/233/5 895/234/5 883/230/5 
f 891/232/6 896/231/6 883/230/6 882/229/6 
f 884/230/19 883/230/19 895/234/19 888/234/19 
f 894/236/3 890/236/3 888/234/3 895/234/3 
f 890/236/24 894/236/24 893/235/24 889/235/24 
f 896/231/3 891/232/3 886/232/3 885/231/3 
f 885/231/22 887/233/22 892/233/22 896/231/22 
f 887/233/1 889/235/1 893/235/1 892/233/1 
# 804 polygons

