# 3ds Max Wavefront OBJ Exporter v0.97b - (c)2007 guruware
# File Created: 15.03.2017 11:51:45

mtllib SPW_Vehicle_Land_Pick Up Truck.mtl

#
# object RR
#

v  -49.2387 37.3848 -72.4715
v  -33.7731 37.3848 -72.4715
v  -33.7731 34.8794 -81.8219
v  -49.2387 34.8794 -81.8219
v  -33.7731 28.0344 -88.6668
v  -49.2387 28.0344 -88.6668
v  -33.7731 18.6840 -91.1723
v  -49.2387 18.6840 -91.1723
v  -33.7731 9.3336 -88.6668
v  -49.2387 9.3336 -88.6668
v  -33.7731 2.4887 -81.8219
v  -49.2387 2.4886 -81.8219
v  -33.7731 -0.0168 -72.4715
v  -49.2387 -0.0168 -72.4715
v  -33.7731 2.4886 -63.1211
v  -49.2387 2.4886 -63.1211
v  -33.7731 9.3336 -56.2761
v  -49.2387 9.3336 -56.2761
v  -33.7731 18.6840 -53.7707
v  -49.2387 18.6840 -53.7707
v  -33.7731 28.0344 -56.2761
v  -49.2387 28.0344 -56.2761
v  -33.7731 34.8794 -63.1211
v  -49.2387 34.8794 -63.1211
# 24 vertices

vn 0.0000 0.9659 -0.2588
vn 0.0000 0.7071 -0.7071
vn 0.0000 0.2588 -0.9659
vn 0.0000 -0.2588 -0.9659
vn 0.0000 -0.7071 -0.7071
vn 0.0000 -0.9659 -0.2588
vn 0.0000 -0.9659 0.2588
vn 0.0000 -0.7071 0.7071
vn 0.0000 -0.2588 0.9659
vn -0.0000 0.2588 0.9659
vn 1.0000 -0.0000 -0.0000
vn 1.0000 0.0000 -0.0000
vn 1.0000 -0.0000 0.0000
vn -0.0000 0.9659 0.2588
vn -0.0000 0.7071 0.7071
vn -1.0000 -0.0000 0.0000
vn -1.0000 -0.0000 -0.0000
vn -1.0000 0.0000 0.0000
# 18 vertex normals

vt 0.1407 0.2067 0.0000
vt 0.1834 0.1953 0.0000
vt 0.2147 0.1640 0.0000
vt 0.2261 0.1213 0.0000
vt 0.2147 0.0786 0.0000
vt 0.1834 0.0473 0.0000
vt 0.1407 0.0359 0.0000
vt 0.0980 0.0473 0.0000
vt 0.0668 0.0786 0.0000
vt 0.0553 0.1213 0.0000
vt 0.0668 0.1640 0.0000
vt 0.0980 0.1953 0.0000
# 12 texture coords

g RR
usemtl SPW_Vehicle_Land_Pick_Up_Truck
s off
f 1/1/1 2/1/1 3/2/1 4/2/1 
f 4/2/2 3/2/2 5/3/2 6/3/2 
f 6/3/3 5/3/3 7/4/3 8/4/3 
f 8/4/4 7/4/4 9/5/4 10/5/4 
f 10/5/5 9/5/5 11/6/5 12/6/5 
f 12/6/6 11/6/6 13/7/6 14/7/6 
f 14/7/7 13/7/7 15/8/7 16/8/7 
f 16/8/8 15/8/8 17/9/8 18/9/8 
f 18/9/9 17/9/9 19/10/9 20/10/9 
f 20/10/10 19/10/10 21/11/10 22/11/10 
f 3/2/11 2/1/11 23/12/11 21/11/11 
f 3/2/11 21/11/11 19/10/11 17/9/11 
f 3/2/12 17/9/12 15/8/12 13/7/12 
f 3/2/12 13/7/12 11/6/12 9/5/12 
f 3/2/13 9/5/13 7/4/13 5/3/13 
f 24/12/14 23/12/14 2/1/14 1/1/14 
f 22/11/15 21/11/15 23/12/15 24/12/15 
f 1/1/16 4/2/16 6/3/16 8/4/16 
f 1/1/17 8/4/17 10/5/17 12/6/17 
f 1/1/17 12/6/17 14/7/17 16/8/17 
f 1/1/16 16/8/16 18/9/16 20/10/16 
f 1/1/18 20/10/18 22/11/18 24/12/18 
# 22 polygons

#
# object FR
#

v  -48.7463 37.2864 75.5010
v  -33.4354 37.2864 75.5010
v  -33.4354 34.7941 66.1999
v  -48.7463 34.7941 66.1999
v  -33.4354 27.9852 59.3909
v  -48.7463 27.9852 59.3909
v  -33.4354 18.6840 56.8987
v  -48.7463 18.6840 56.8987
v  -33.4354 9.3828 59.3909
v  -48.7463 9.3828 59.3909
v  -33.4354 2.5739 66.1999
v  -48.7463 2.5739 66.1999
v  -33.4354 0.0816 75.5010
v  -48.7463 0.0816 75.5010
v  -33.4354 2.5739 84.8022
v  -48.7463 2.5739 84.8022
v  -33.4354 9.3828 91.6112
v  -48.7463 9.3828 91.6112
v  -33.4354 18.6840 94.1034
v  -48.7463 18.6840 94.1034
v  -33.4354 27.9852 91.6112
v  -48.7463 27.9852 91.6112
v  -33.4354 34.7941 84.8022
v  -48.7463 34.7941 84.8022
# 24 vertices

vn 0.0000 0.9659 -0.2588
vn 0.0000 0.7071 -0.7071
vn 0.0000 0.2588 -0.9659
vn 0.0000 -0.2588 -0.9659
vn 0.0000 -0.7071 -0.7071
vn 0.0000 -0.9659 -0.2588
vn 0.0000 -0.9659 0.2588
vn 0.0000 -0.7071 0.7071
vn 0.0000 -0.2588 0.9659
vn -0.0000 0.2588 0.9659
vn 1.0000 0.0000 0.0000
vn 1.0000 0.0000 -0.0000
vn 1.0000 -0.0000 -0.0000
vn 1.0000 -0.0000 0.0000
vn 0.0000 0.9659 0.2588
vn -0.0000 0.7071 0.7071
vn -1.0000 -0.0000 0.0000
vn -1.0000 -0.0000 -0.0000
# 18 vertex normals

vt 0.1407 0.2067 0.0000
vt 0.1834 0.1953 0.0000
vt 0.2147 0.1640 0.0000
vt 0.2261 0.1213 0.0000
vt 0.2147 0.0786 0.0000
vt 0.1834 0.0473 0.0000
vt 0.1407 0.0359 0.0000
vt 0.0980 0.0473 0.0000
vt 0.0668 0.0786 0.0000
vt 0.0553 0.1213 0.0000
vt 0.0668 0.1640 0.0000
vt 0.0980 0.1953 0.0000
# 12 texture coords

g FR
usemtl SPW_Vehicle_Land_Pick_Up_Truck
s off
f 25/13/19 26/13/19 27/14/19 28/14/19 
f 28/14/20 27/14/20 29/15/20 30/15/20 
f 30/15/21 29/15/21 31/16/21 32/16/21 
f 32/16/22 31/16/22 33/17/22 34/17/22 
f 34/17/23 33/17/23 35/18/23 36/18/23 
f 36/18/24 35/18/24 37/19/24 38/19/24 
f 38/19/25 37/19/25 39/20/25 40/20/25 
f 40/20/26 39/20/26 41/21/26 42/21/26 
f 42/21/27 41/21/27 43/22/27 44/22/27 
f 44/22/28 43/22/28 45/23/28 46/23/28 
f 27/14/29 26/13/29 47/24/29 45/23/29 
f 27/14/30 45/23/30 43/22/30 41/21/30 
f 27/14/31 41/21/31 39/20/31 37/19/31 
f 27/14/32 37/19/32 35/18/32 33/17/32 
f 27/14/31 33/17/31 31/16/31 29/15/31 
f 48/24/33 47/24/33 26/13/33 25/13/33 
f 46/23/34 45/23/34 47/24/34 48/24/34 
f 25/13/35 28/14/35 30/15/35 32/16/35 
f 25/13/36 32/16/36 34/17/36 36/18/36 
f 25/13/35 36/18/35 38/19/35 40/20/35 
f 25/13/35 40/20/35 42/21/35 44/22/35 
f 25/13/35 44/22/35 46/23/35 48/24/35 
# 22 polygons

#
# object RL
#

v  33.7720 37.3848 -72.4715
v  49.2376 37.3848 -72.4715
v  49.2376 34.8794 -81.8219
v  33.7720 34.8794 -81.8219
v  49.2376 28.0344 -88.6668
v  33.7720 28.0344 -88.6668
v  49.2376 18.6840 -91.1723
v  33.7720 18.6840 -91.1723
v  49.2376 9.3336 -88.6668
v  33.7720 9.3336 -88.6668
v  49.2376 2.4887 -81.8219
v  33.7720 2.4887 -81.8219
v  49.2376 -0.0168 -72.4715
v  33.7720 -0.0168 -72.4715
v  49.2376 2.4886 -63.1211
v  33.7720 2.4886 -63.1211
v  49.2376 9.3336 -56.2761
v  33.7720 9.3336 -56.2761
v  49.2376 18.6840 -53.7707
v  33.7720 18.6840 -53.7707
v  49.2376 28.0344 -56.2761
v  33.7720 28.0344 -56.2761
v  49.2376 34.8794 -63.1211
v  33.7720 34.8794 -63.1211
# 24 vertices

vn -0.0000 0.9659 -0.2588
vn 0.0000 0.7071 -0.7071
vn -0.0000 0.2588 -0.9659
vn 0.0000 -0.2588 -0.9659
vn 0.0000 -0.7071 -0.7071
vn 0.0000 -0.9659 -0.2588
vn 0.0000 -0.9659 0.2588
vn 0.0000 -0.7071 0.7071
vn 0.0000 -0.2588 0.9659
vn -0.0000 0.2588 0.9659
vn 1.0000 0.0000 0.0000
vn 1.0000 0.0000 -0.0000
vn 0.0000 0.9659 0.2588
vn 0.0000 0.7071 0.7071
vn -1.0000 0.0000 -0.0000
vn -1.0000 -0.0000 0.0000
vn -1.0000 -0.0000 -0.0000
vn -1.0000 0.0000 0.0000
# 18 vertex normals

vt 0.1407 0.2067 0.0000
vt 0.1834 0.1953 0.0000
vt 0.2147 0.1640 0.0000
vt 0.2261 0.1213 0.0000
vt 0.2147 0.0786 0.0000
vt 0.1834 0.0473 0.0000
vt 0.1407 0.0359 0.0000
vt 0.0980 0.0473 0.0000
vt 0.0668 0.0786 0.0000
vt 0.0553 0.1213 0.0000
vt 0.0668 0.1640 0.0000
vt 0.0980 0.1953 0.0000
# 12 texture coords

g RL
usemtl SPW_Vehicle_Land_Pick_Up_Truck
s off
f 49/25/37 50/25/37 51/26/37 52/26/37 
f 52/26/38 51/26/38 53/27/38 54/27/38 
f 54/27/39 53/27/39 55/28/39 56/28/39 
f 56/28/40 55/28/40 57/29/40 58/29/40 
f 58/29/41 57/29/41 59/30/41 60/30/41 
f 60/30/42 59/30/42 61/31/42 62/31/42 
f 62/31/43 61/31/43 63/32/43 64/32/43 
f 64/32/44 63/32/44 65/33/44 66/33/44 
f 66/33/45 65/33/45 67/34/45 68/34/45 
f 68/34/46 67/34/46 69/35/46 70/35/46 
f 51/26/47 50/25/47 71/36/47 69/35/47 
f 51/26/48 69/35/48 67/34/48 65/33/48 
f 51/26/48 65/33/48 63/32/48 61/31/48 
f 51/26/47 61/31/47 59/30/47 57/29/47 
f 51/26/48 57/29/48 55/28/48 53/27/48 
f 72/36/49 71/36/49 50/25/49 49/25/49 
f 70/35/50 69/35/50 71/36/50 72/36/50 
f 49/25/51 52/26/51 54/27/51 56/28/51 
f 49/25/51 56/28/51 58/29/51 60/30/51 
f 49/25/52 60/30/52 62/31/52 64/32/52 
f 49/25/53 64/32/53 66/33/53 68/34/53 
f 49/25/54 68/34/54 70/35/54 72/36/54 
# 22 polygons

#
# object FL
#

v  33.4343 37.2864 75.5010
v  48.7453 37.2864 75.5010
v  48.7453 34.7941 66.1999
v  33.4343 34.7941 66.1999
v  48.7453 27.9852 59.3909
v  33.4343 27.9852 59.3909
v  48.7453 18.6840 56.8987
v  33.4343 18.6840 56.8987
v  48.7453 9.3828 59.3909
v  33.4343 9.3828 59.3909
v  48.7453 2.5739 66.1999
v  33.4343 2.5739 66.1999
v  48.7453 0.0816 75.5010
v  33.4343 0.0816 75.5010
v  48.7453 2.5739 84.8022
v  33.4343 2.5739 84.8022
v  48.7453 9.3828 91.6112
v  33.4343 9.3828 91.6112
v  48.7453 18.6840 94.1034
v  33.4343 18.6840 94.1034
v  48.7453 27.9852 91.6112
v  33.4343 27.9852 91.6112
v  48.7453 34.7941 84.8022
v  33.4343 34.7941 84.8022
# 24 vertices

vn -0.0000 0.9659 -0.2588
vn 0.0000 0.7071 -0.7071
vn 0.0000 0.2588 -0.9659
vn 0.0000 -0.2588 -0.9659
vn 0.0000 -0.7071 -0.7071
vn 0.0000 -0.9659 -0.2588
vn 0.0000 -0.9659 0.2588
vn 0.0000 -0.7071 0.7071
vn 0.0000 -0.2588 0.9659
vn -0.0000 0.2588 0.9659
vn 1.0000 0.0000 0.0000
vn 1.0000 0.0000 -0.0000
vn -0.0000 0.9659 0.2588
vn 0.0000 0.7071 0.7071
vn -1.0000 0.0000 -0.0000
vn -1.0000 -0.0000 0.0000
vn -1.0000 0.0000 0.0000
# 17 vertex normals

vt 0.1407 0.2067 0.0000
vt 0.1834 0.1953 0.0000
vt 0.2147 0.1640 0.0000
vt 0.2261 0.1213 0.0000
vt 0.2147 0.0786 0.0000
vt 0.1834 0.0473 0.0000
vt 0.1407 0.0359 0.0000
vt 0.0980 0.0473 0.0000
vt 0.0668 0.0786 0.0000
vt 0.0553 0.1213 0.0000
vt 0.0668 0.1640 0.0000
vt 0.0980 0.1953 0.0000
# 12 texture coords

g FL
usemtl SPW_Vehicle_Land_Pick_Up_Truck
s off
f 73/37/55 74/37/55 75/38/55 76/38/55 
f 76/38/56 75/38/56 77/39/56 78/39/56 
f 78/39/57 77/39/57 79/40/57 80/40/57 
f 80/40/58 79/40/58 81/41/58 82/41/58 
f 82/41/59 81/41/59 83/42/59 84/42/59 
f 84/42/60 83/42/60 85/43/60 86/43/60 
f 86/43/61 85/43/61 87/44/61 88/44/61 
f 88/44/62 87/44/62 89/45/62 90/45/62 
f 90/45/63 89/45/63 91/46/63 92/46/63 
f 92/46/64 91/46/64 93/47/64 94/47/64 
f 75/38/65 74/37/65 95/48/65 93/47/65 
f 75/38/66 93/47/66 91/46/66 89/45/66 
f 75/38/66 89/45/66 87/44/66 85/43/66 
f 75/38/65 85/43/65 83/42/65 81/41/65 
f 75/38/65 81/41/65 79/40/65 77/39/65 
f 96/48/67 95/48/67 74/37/67 73/37/67 
f 94/47/68 93/47/68 95/48/68 96/48/68 
f 73/37/69 76/38/69 78/39/69 80/40/69 
f 73/37/70 80/40/70 82/41/70 84/42/70 
f 73/37/69 84/42/69 86/43/69 88/44/69 
f 73/37/70 88/44/70 90/45/70 92/46/70 
f 73/37/71 92/46/71 94/47/71 96/48/71 
# 22 polygons

#
# object Body
#

v  49.4144 28.6740 -54.9798
v  49.4144 35.9872 -62.2930
v  49.4144 37.7175 -61.2940
v  49.4144 29.6730 -53.2495
v  49.4144 38.6640 -72.2831
v  49.4144 35.9872 -82.2731
v  49.4144 37.7175 -83.2721
v  49.4144 40.6620 -72.2831
v  -49.4154 38.6641 -72.2831
v  -49.4154 35.9872 -62.2930
v  -49.4154 37.7176 -61.2940
v  -49.4154 40.6621 -72.2831
v  49.4144 28.6740 -89.5863
v  49.4144 29.6730 -91.3166
v  -49.4154 18.6840 -92.2631
v  -49.4154 28.6740 -89.5863
v  -49.4154 29.6730 -91.3166
v  -49.4154 18.6840 -94.2611
v  49.4144 18.6840 -52.3030
v  49.4144 18.6840 -50.3050
v  -49.4154 28.6740 -54.9798
v  -49.4154 29.6730 -53.2495
v  -49.4154 37.7176 -83.2721
v  49.4144 18.6840 -94.2611
v  -49.4154 18.6840 -50.3050
v  49.4144 18.6840 -92.2631
v  -49.4154 18.6840 -52.3030
v  -49.4154 35.9872 -82.2731
v  49.4144 28.6740 92.9471
v  49.4144 35.9872 85.6339
v  49.4144 37.7175 86.6329
v  49.4144 29.6730 94.6774
v  49.4144 38.6640 75.6439
v  49.4144 35.9872 65.6539
v  49.4144 37.7175 64.6549
v  49.4144 40.6620 75.6439
v  -49.4154 38.6640 75.6439
v  -49.4154 35.9872 85.6339
v  -49.4154 37.7175 86.6329
v  -49.4154 40.6620 75.6439
v  49.4144 28.6740 58.3407
v  49.4144 29.6730 56.6103
v  -49.4154 18.6840 55.6639
v  -49.4154 28.6740 58.3407
v  -49.4154 29.6730 56.6104
v  -49.4154 18.6840 53.6658
v  49.4144 18.6840 95.6239
v  49.4144 18.6840 97.6219
v  -49.4154 28.6740 92.9471
v  -49.4154 29.6730 94.6774
v  -49.4154 37.7175 64.6549
v  49.4144 18.6840 53.6658
v  -49.4154 18.6840 97.6219
v  49.4144 18.6840 55.6639
v  -49.4154 18.6840 95.6239
v  -49.4154 35.9872 65.6539
v  53.7338 61.2949 47.0765
v  48.2283 58.8117 48.5517
v  48.6955 57.7016 48.4265
v  54.2010 60.1849 46.9513
v  47.9149 58.8117 47.3821
v  48.3821 57.7016 47.2569
v  53.4204 61.2949 45.9069
v  53.8876 60.1849 45.7817
v  59.8508 63.0481 45.5265
v  51.8179 63.0481 47.6788
v  51.8179 58.3310 47.6788
v  59.8508 59.2534 45.5265
v  50.7489 63.7779 46.5599
v  50.7489 57.6012 46.5599
v  60.2171 63.7779 44.0229
v  60.2171 58.5235 44.0229
v  -51.7895 63.0481 47.7708
v  -59.8223 63.0481 45.6184
v  -59.8223 59.1224 45.6184
v  -51.7895 58.3328 47.7707
v  -60.1887 63.7779 44.1148
v  -60.1887 58.3925 44.1148
v  -50.7204 63.7779 46.6518
v  -50.7204 57.6030 46.6518
v  -53.7350 61.2949 45.9069
v  -48.2295 58.8117 47.3821
v  -48.6966 57.7016 47.2569
v  -54.2021 60.1849 45.7817
v  -48.5429 58.8117 48.5517
v  -49.0100 57.7016 48.4265
v  -54.0484 61.2949 47.0765
v  -54.5155 60.1849 46.9513
v  -41.8472 90.1109 22.0074
v  -44.7916 90.1109 22.0074
v  -44.7916 88.3262 22.0074
v  -41.8472 88.3262 22.0074
v  -44.7916 90.1109 -17.1803
v  -44.7916 88.3262 -17.1803
v  -41.8472 90.1109 -17.1803
v  -41.8472 88.3262 -17.1803
v  44.7905 90.1109 22.0074
v  41.8461 90.1109 22.0074
v  41.8461 88.3262 22.0074
v  44.7905 88.3262 22.0074
v  41.8461 90.1109 -17.1803
v  41.8461 88.3262 -17.1803
v  44.7905 90.1109 -17.1803
v  44.7905 88.3262 -17.1803
v  -45.7371 21.4766 53.2604
v  -50.0167 21.4766 53.2604
v  -50.0167 17.1971 53.2604
v  -45.7371 17.1971 53.2604
v  -50.0167 21.4766 -50.1596
v  -50.0167 17.1971 -50.1596
v  -45.7371 21.4766 -50.1596
v  -45.7371 17.1971 -50.1596
v  50.0157 21.4766 53.2604
v  45.7361 21.4766 53.2604
v  45.7361 17.1971 53.2604
v  50.0157 17.1971 53.2604
v  45.7361 21.4766 -50.1596
v  45.7361 17.1971 -50.1597
v  50.0157 21.4766 -50.1596
v  50.0157 17.1971 -50.1597
v  15.3487 38.3358 124.8219
v  -15.3497 38.3358 124.8219
v  -15.3497 36.5037 124.8219
v  15.3487 36.5037 124.8219
v  -15.3497 38.3358 122.9898
v  -15.3497 36.5037 122.9898
v  15.3487 38.3358 122.9898
v  15.3487 36.5037 122.9898
v  15.3487 21.3442 124.8219
v  -15.3497 21.3442 124.8219
v  -15.3497 19.5121 124.8219
v  15.3487 19.5121 124.8219
v  -15.3497 21.3442 122.9898
v  -15.3497 19.5121 122.9898
v  15.3487 21.3442 122.9898
v  15.3487 19.5121 122.9898
v  16.8486 41.2174 127.2997
v  14.6465 41.2174 127.2997
v  14.6465 18.5180 127.2997
v  16.8486 18.5180 127.2997
v  14.6465 41.2174 121.7119
v  14.6465 18.5180 121.7119
v  16.8486 41.2174 121.7119
v  16.8486 18.5180 121.7119
v  16.8486 44.5388 121.7119
v  16.8486 44.5388 124.4560
v  14.6465 44.5388 121.7119
v  14.6465 44.5388 124.4560
v  -14.6475 41.2174 127.2997
v  -16.8496 41.2174 127.2997
v  -16.8496 18.5180 127.2998
v  -14.6475 18.5180 127.2998
v  -16.8496 41.2174 121.7119
v  -16.8496 18.5180 121.7119
v  -14.6475 41.2174 121.7119
v  -14.6475 18.5180 121.7119
v  -14.6475 44.5388 121.7119
v  -14.6475 44.5388 124.4560
v  -16.8496 44.5388 121.7119
v  -16.8496 44.5388 124.4560
v  -46.2362 53.0377 -0.6254
v  -49.6734 53.0377 -0.6254
v  -49.6734 51.2027 -0.6254
v  -46.2362 51.2027 -0.6254
v  -49.6734 53.0377 -9.4021
v  -49.6734 51.2027 -9.4021
v  -46.2362 53.0377 -9.4021
v  -46.2362 51.2027 -9.4021
v  49.6723 53.0377 -0.6254
v  46.2351 53.0377 -0.6254
v  46.2351 51.2027 -0.6254
v  49.6723 51.2027 -0.6254
v  46.2351 53.0377 -9.4021
v  46.2351 51.2027 -9.4021
v  49.6723 53.0377 -9.4021
v  49.6723 51.2027 -9.4021
v  51.9794 32.0720 124.7676
v  -51.9804 32.0720 124.7676
v  -51.9804 29.7961 124.7676
v  51.9794 29.7961 124.7676
v  -51.9804 32.0720 112.7424
v  -51.9804 29.7961 112.7424
v  51.9794 32.0720 112.7424
v  51.9794 29.7961 112.7424
v  51.4534 29.9760 -114.4444
v  -51.4544 29.9760 -114.4444
v  -51.4544 22.1329 -114.4444
v  51.4534 22.1329 -114.4444
v  -51.4543 29.9760 -125.8983
v  -51.4543 22.1329 -125.8983
v  51.4534 29.9760 -125.8983
v  51.4534 22.1329 -125.8983
v  51.4534 29.9760 124.1863
v  -51.4543 29.9760 124.1862
v  -51.4543 22.1328 124.1862
v  51.4534 22.1328 124.1862
v  -51.4543 29.9760 112.7324
v  -51.4543 22.1328 112.7324
v  51.4534 29.9760 112.7324
v  51.4534 22.1328 112.7324
v  -49.2131 51.7549 -82.9293
v  -49.2131 51.7549 -121.4123
v  -49.2131 22.5610 -123.6766
v  -49.2131 18.6840 -99.7780
v  -49.2131 18.6908 -92.3841
v  -49.2131 28.7302 -89.6941
v  -49.2131 36.0795 -82.3447
v  -49.2131 38.7696 -72.3054
v  -49.2131 51.7549 101.3244
v  -49.2131 36.1719 65.5667
v  -49.2131 28.7302 -54.9166
v  -49.2131 18.6908 -52.2266
v  -49.2131 18.6809 55.4683
v  -49.2131 36.0795 -62.2660
v  -49.2131 28.7794 58.1741
v  -49.2131 38.8778 75.6651
v  -49.2131 36.1719 85.7635
v  -49.2131 28.7794 93.1561
v  -49.2131 18.6809 95.8619
v  -49.2131 18.6840 101.3244
v  -49.2131 60.7990 -16.6694
v  -49.2131 88.0333 -14.4939
v  -49.2131 88.0333 -20.2619
v  -49.2131 60.8329 -22.4373
v  -49.2131 60.8329 -121.4123
v  -49.2131 51.7549 121.7971
v  -49.2131 53.9157 121.7971
v  -49.2131 60.0226 50.9310
v  -49.2131 60.7990 47.7656
v  49.2121 51.7549 -121.4123
v  49.2121 22.5610 -123.6766
v  49.2121 18.6840 -99.7780
v  -49.2131 22.5609 121.7971
v  49.2121 18.6908 -92.3841
v  29.0340 18.6908 -92.3841
v  29.0340 18.6908 -52.2266
v  49.2121 18.6908 -52.2266
v  49.2121 18.6810 55.4683
v  29.0340 18.6810 55.4683
v  29.0340 18.6809 95.8620
v  49.2121 18.6810 95.8620
v  49.2121 18.6840 101.3245
v  -29.0351 18.6809 95.8619
v  -29.0351 18.6809 55.4683
v  -29.0351 18.6908 -52.2266
v  -29.0351 18.6908 -92.3841
v  -29.0351 28.7302 -89.6940
v  -29.0351 36.0795 -82.3447
v  -29.0351 38.7696 -72.3054
v  -29.0351 36.0795 -62.2660
v  -29.0351 28.7302 -54.9166
v  -29.0351 28.7794 58.1741
v  -29.0351 36.1719 65.5667
v  -29.0351 38.8778 75.6651
v  -29.0351 36.1719 85.7635
v  -29.0351 28.7794 93.1561
v  -49.2131 89.5501 24.9888
v  -49.2131 89.5501 -20.2619
v  -49.2131 88.1963 -20.2619
v  -49.2131 88.0333 23.8569
v  -48.7977 60.7990 47.7656
v  -48.7977 60.7990 -16.6694
v  -48.7977 88.0333 -14.4939
v  -46.7469 87.3518 -20.3164
v  -46.7469 62.9504 -22.2679
v  49.2121 60.8329 -22.4373
v  41.5501 62.9504 -22.2680
v  -45.6520 60.8329 -26.7353
v  -45.6520 60.8329 -117.4598
v  45.6510 60.8329 -26.7353
v  49.2121 60.8329 -121.4122
v  49.2121 51.7549 121.7971
v  49.2121 53.9157 121.7971
v  49.2121 60.0226 50.9310
v  49.2121 51.7549 -82.9293
v  49.2121 22.5609 121.7971
v  49.2121 51.7549 101.3245
v  49.2121 28.7794 93.1561
v  49.2121 36.1719 85.7635
v  49.2121 38.8778 75.6651
v  49.2121 36.0795 -62.2660
v  49.2121 28.7794 58.1741
v  49.2121 36.1719 65.5667
v  49.2121 28.7302 -54.9166
v  49.2121 38.7696 -72.3054
v  49.2121 36.0795 -82.3447
v  49.2121 28.7302 -89.6940
v  29.0340 28.7302 -89.6940
v  29.0340 36.0795 -82.3447
v  29.0340 38.7696 -72.3054
v  29.0340 36.0795 -62.2660
v  29.0340 28.7302 -54.9166
v  29.0341 28.7794 58.1741
v  29.0341 36.1719 65.5667
v  29.0340 38.8778 75.6651
v  29.0341 36.1719 85.7635
v  29.0341 28.7794 93.1561
v  46.7352 60.6829 50.3509
v  -46.7362 60.6829 50.3509
v  -46.7362 88.0664 26.2924
v  -48.7977 88.0333 23.8569
v  46.7459 62.9504 -22.2686
v  49.2121 88.0333 -20.2619
v  49.2121 88.1963 -20.2619
v  46.7459 87.8718 -20.2873
v  -46.7469 87.8718 -20.2750
v  49.2121 89.5501 -20.2619
v  45.6510 60.8329 -117.4598
v  45.6510 42.9324 -26.7353
v  -45.6520 42.9324 -26.7353
v  -45.6520 42.9325 -117.4597
v  49.2121 60.7990 -16.6694
v  49.2121 88.0333 -14.4939
v  49.2121 60.7990 47.7656
v  45.6510 42.9325 -117.4597
v  48.7855 60.7990 -16.6694
v  48.7855 60.7990 47.7656
v  48.7855 88.0333 -14.4939
v  -46.7362 60.6829 49.7020
v  -46.7362 88.1124 25.6422
v  46.7352 88.0664 26.2924
v  46.7352 88.1124 25.6422
v  49.2121 89.5501 24.9888
v  49.2121 88.0333 23.8568
v  48.7855 88.0333 23.8568
v  46.7352 60.6829 49.7020
v  46.7459 87.8718 -19.7078
v  46.7459 62.9504 -21.8449
v  -46.7469 62.9504 -21.8449
v  -46.7469 87.8718 -19.7078
# 330 vertices

vn 1.0000 -0.0000 -0.0000
vn 1.0000 -0.0000 0.0000
vn 1.0000 0.0000 -0.0000
vn -1.0000 -0.0000 0.0000
vn -1.0000 0.0000 0.0000
vn -1.0000 0.0000 -0.0000
vn 0.0000 0.9659 -0.2588
vn 0.0000 0.7071 -0.7071
vn 0.0000 0.2588 -0.9659
vn 0.0000 0.2588 0.9659
vn 0.0000 0.9659 0.2588
vn 0.0000 0.7071 0.7071
vn -1.0000 -0.0000 -0.0000
vn -0.0000 -1.0000 -0.0000
vn -0.0000 -0.2588 0.9659
vn -0.0000 -0.7071 0.7071
vn -0.0000 -0.9659 0.2588
vn -0.0000 -0.9659 -0.2588
vn -0.0000 -0.7071 -0.7071
vn -0.0000 -0.2588 -0.9659
vn 0.2588 -0.0000 0.9659
vn -0.8855 -0.3994 0.2373
vn -0.2588 0.0000 -0.9659
vn 0.8855 0.3994 -0.2373
vn 0.3858 -0.9168 -0.1034
vn -0.3858 0.9168 0.1034
vn -0.7230 -0.0000 0.6908
vn 0.9716 -0.0000 0.2367
vn 0.2083 -0.8772 0.4325
vn 0.1226 0.8808 0.4574
vn -0.2588 -0.0000 0.9659
vn -0.9716 -0.0000 0.2367
vn 0.2588 0.0000 -0.9659
vn 0.7230 -0.0000 0.6908
vn -0.1961 -0.8782 0.4363
vn -0.1226 0.8808 0.4574
vn 0.8855 -0.3994 0.2373
vn -0.8855 0.3994 -0.2373
vn -0.3858 -0.9168 -0.1034
vn 0.3858 0.9168 0.1034
vn 0.0000 -0.0000 1.0000
vn 0.0000 0.0000 -1.0000
vn 0.0000 -1.0000 -0.0000
vn 0.0000 1.0000 0.0000
vn -0.0000 -0.0000 -1.0000
vn -0.0000 1.0000 -0.0000
vn 0.0000 -1.0000 0.0000
vn 1.0000 0.0000 0.0000
vn 0.0000 0.6504 0.7596
vn 0.0000 0.0000 1.0000
vn 0.0000 1.0000 -0.0000
vn -0.0000 0.0000 -1.0000
vn -0.0000 -0.0000 1.0000
vn -0.0000 1.0000 0.0000
vn 0.0000 0.0773 -0.9970
vn 0.0000 -0.9871 -0.1601
vn 0.0000 -1.0000 0.0009
vn 0.0000 -1.0000 -0.0001
vn 0.0000 -1.0000 0.0006
vn -0.0000 -1.0000 -0.0001
vn 0.0002 -1.0000 -0.0000
vn 0.0000 -0.7071 -0.7071
vn 0.0000 -0.2588 -0.9659
vn 0.0000 -0.0796 0.9968
vn -0.0000 0.0797 -0.9968
vn -0.0000 0.9963 0.0859
vn -0.0000 -0.9825 0.1861
vn 1.0000 0.0001 -0.0001
vn 0.0000 0.6600 0.7512
vn -0.0000 0.6600 0.7512
vn 0.0000 -0.6597 -0.7515
vn 0.0002 0.0797 -0.9968
vn 0.0051 0.0787 -0.9969
vn -0.0001 0.0792 -0.9969
vn -0.0000 0.0152 -0.9999
vn 0.0000 -0.9659 -0.2588
vn 0.0000 -0.9659 0.2588
vn 0.0000 -0.7071 0.7071
vn -0.0000 -0.9975 -0.0706
vn 0.0000 0.6594 0.7518
vn -0.0000 0.0854 -0.9963
# 81 vertex normals

vt 0.7203 0.1500 0.0000
vt 0.7223 0.1538 0.0000
vt 0.7220 0.1544 0.0000
vt 0.7198 0.1502 0.0000
vt 0.7251 0.1560 0.0000
vt 0.7278 0.1560 0.0000
vt 0.7281 0.1568 0.0000
vt 0.7251 0.1568 0.0000
vt 0.6917 0.1649 0.0000
vt 0.6890 0.1627 0.0000
vt 0.6887 0.1633 0.0000
vt 0.6917 0.1657 0.0000
vt 0.7299 0.1537 0.0000
vt 0.7304 0.1543 0.0000
vt 0.6973 0.1588 0.0000
vt 0.6965 0.1626 0.0000
vt 0.6970 0.1632 0.0000
vt 0.6978 0.1590 0.0000
vt 0.7195 0.1456 0.0000
vt 0.7190 0.1453 0.0000
vt 0.6869 0.1588 0.0000
vt 0.6865 0.1591 0.0000
vt 0.6948 0.1657 0.0000
vt 0.7312 0.1501 0.0000
vt 0.6856 0.1542 0.0000
vt 0.7306 0.1499 0.0000
vt 0.6862 0.1544 0.0000
vt 0.6945 0.1648 0.0000
vt 0.6792 0.1339 0.0000
vt 0.6812 0.1377 0.0000
vt 0.6809 0.1383 0.0000
vt 0.6787 0.1341 0.0000
vt 0.6840 0.1399 0.0000
vt 0.6868 0.1399 0.0000
vt 0.6871 0.1407 0.0000
vt 0.6840 0.1407 0.0000
vt 0.6507 0.1487 0.0000
vt 0.6479 0.1465 0.0000
vt 0.6476 0.1471 0.0000
vt 0.6507 0.1496 0.0000
vt 0.6888 0.1376 0.0000
vt 0.6893 0.1382 0.0000
vt 0.6562 0.1427 0.0000
vt 0.6555 0.1465 0.0000
vt 0.6560 0.1471 0.0000
vt 0.6568 0.1429 0.0000
vt 0.6785 0.1294 0.0000
vt 0.6779 0.1292 0.0000
vt 0.6459 0.1427 0.0000
vt 0.6454 0.1429 0.0000
vt 0.6537 0.1495 0.0000
vt 0.6901 0.1340 0.0000
vt 0.6446 0.1381 0.0000
vt 0.6895 0.1338 0.0000
vt 0.6451 0.1383 0.0000
vt 0.6534 0.1487 0.0000
vt 0.7325 0.1622 0.0000
vt 0.7300 0.1581 0.0000
vt 0.7302 0.1562 0.0000
vt 0.7327 0.1604 0.0000
vt 0.7320 0.1581 0.0000
vt 0.7322 0.1562 0.0000
vt 0.7344 0.1622 0.0000
vt 0.7347 0.1604 0.0000
vt 0.7351 0.1652 0.0000
vt 0.7315 0.1652 0.0000
vt 0.7315 0.1573 0.0000
vt 0.7351 0.1588 0.0000
vt 0.7333 0.1664 0.0000
vt 0.7333 0.1560 0.0000
vt 0.7376 0.1664 0.0000
vt 0.7376 0.1576 0.0000
vt 0.7313 0.1652 0.0000
vt 0.7349 0.1652 0.0000
vt 0.7349 0.1586 0.0000
vt 0.7313 0.1573 0.0000
vt 0.7374 0.1664 0.0000
vt 0.7374 0.1574 0.0000
vt 0.7332 0.1664 0.0000
vt 0.7332 0.1560 0.0000
vt 0.7235 0.0960 0.0000
vt 0.7735 0.0960 0.0000
vt 0.7735 0.1460 0.0000
vt 0.7235 0.1460 0.0000
vt 0.6054 0.1280 0.0000
vt 0.6554 0.1280 0.0000
vt 0.6554 0.1780 0.0000
vt 0.6054 0.1780 0.0000
vt 0.7260 0.1526 0.0000
vt 0.7760 0.1526 0.0000
vt 0.7760 0.2026 0.0000
vt 0.7260 0.2026 0.0000
vt 0.7211 0.0468 0.0000
vt 0.7711 0.0468 0.0000
vt 0.7711 0.0968 0.0000
vt 0.7211 0.0968 0.0000
vt 0.1244 0.4943 0.0000
vt 0.0222 0.4943 0.0000
vt 0.0162 0.4168 0.0000
vt 0.0796 0.4065 0.0000
vt 0.0899 0.4065 0.0000
vt 0.0983 0.4378 0.0000
vt 0.1212 0.4608 0.0000
vt 0.1526 0.4692 0.0000
vt 0.6137 0.4943 0.0000
vt 0.5142 0.4608 0.0000
vt 0.2069 0.4378 0.0000
vt 0.2153 0.4065 0.0000
vt 0.4828 0.4065 0.0000
vt 0.1840 0.4608 0.0000
vt 0.4912 0.4378 0.0000
vt 0.5455 0.4692 0.0000
vt 0.5769 0.4608 0.0000
vt 0.5999 0.4378 0.0000
vt 0.6083 0.4065 0.0000
vt 0.6137 0.4065 0.0000
vt 0.3003 0.5183 0.0000
vt 0.3061 0.5906 0.0000
vt 0.2908 0.5906 0.0000
vt 0.2850 0.5184 0.0000
vt 0.0222 0.5184 0.0000
vt 0.6680 0.4943 0.0000
vt 0.6680 0.5000 0.0000
vt 0.4799 0.5162 0.0000
vt 0.4715 0.5183 0.0000
vt 0.9238 0.9483 0.0000
vt 0.4961 0.9483 0.0000
vt 0.4961 0.8215 0.0000
vt 0.9238 0.8215 0.0000
vt 0.7283 0.1213 0.0000
vt 0.7783 0.1213 0.0000
vt 0.7783 0.1713 0.0000
vt 0.7283 0.1713 0.0000
vt 0.6680 0.4168 0.0000
vt 0.7533 0.1713 0.0000
vt 0.7611 0.1701 0.0000
vt 0.7680 0.1665 0.0000
vt 0.7736 0.1610 0.0000
vt 0.7771 0.1540 0.0000
vt 0.7783 0.1463 0.0000
vt 0.7771 0.1386 0.0000
vt 0.7736 0.1316 0.0000
vt 0.7680 0.1261 0.0000
vt 0.7611 0.1225 0.0000
vt 0.7533 0.1213 0.0000
vt 0.7331 0.1316 0.0000
vt 0.7456 0.1225 0.0000
vt 0.7386 0.1261 0.0000
vt 0.7296 0.1386 0.0000
vt 0.7283 0.1463 0.0000
vt 0.7296 0.1540 0.0000
vt 0.7331 0.1610 0.0000
vt 0.7386 0.1665 0.0000
vt 0.7456 0.1701 0.0000
vt 0.4110 0.5947 0.0000
vt 0.2908 0.5947 0.0000
vt 0.2908 0.5911 0.0000
vt 0.4080 0.5906 0.0000
vt 0.3051 0.0180 0.0000
vt 0.3551 0.0180 0.0000
vt 0.3551 0.0680 0.0000
vt 0.3051 0.0680 0.0000
vt 0.3301 0.0680 0.0000
vt 0.3478 0.0606 0.0000
vt 0.3469 0.0421 0.0000
vt 0.3310 0.0664 0.0000
vt 0.3124 0.0606 0.0000
vt 0.3142 0.0590 0.0000
vt 0.3517 0.0555 0.0000
vt 0.3517 0.0305 0.0000
vt 0.3301 0.0180 0.0000
vt 0.3084 0.0305 0.0000
vt 0.3084 0.0555 0.0000
vt 0.4961 0.9878 0.0000
vt 0.9238 0.9878 0.0000
vt 0.0147 0.9861 0.0000
vt 0.0147 0.9764 0.0000
vt 0.4547 0.9764 0.0000
vt 0.4547 0.9861 0.0000
vt 0.7083 0.4367 0.0000
vt 0.7083 0.2484 0.0000
vt 0.9698 0.2484 0.0000
vt 0.9698 0.4367 0.0000
vt 0.6620 0.6974 0.0000
vt 0.5598 0.6974 0.0000
vt 0.6046 0.6096 0.0000
vt 0.6680 0.6199 0.0000
vt 0.0147 0.8459 0.0000
vt 0.4547 0.8459 0.0000
vt 0.0705 0.6974 0.0000
vt 0.0705 0.6096 0.0000
vt 0.0759 0.6096 0.0000
vt 0.0843 0.6410 0.0000
vt 0.1073 0.6639 0.0000
vt 0.1387 0.6723 0.0000
vt 0.5002 0.6639 0.0000
vt 0.1930 0.6410 0.0000
vt 0.2014 0.6096 0.0000
vt 0.4689 0.6096 0.0000
vt 0.1700 0.6639 0.0000
vt 0.4773 0.6410 0.0000
vt 0.5316 0.6723 0.0000
vt 0.5630 0.6639 0.0000
vt 0.5859 0.6410 0.0000
vt 0.5943 0.6096 0.0000
vt 0.7729 0.1619 0.0000
vt 0.7777 0.1408 0.0000
vt 0.7642 0.1238 0.0000
vt 0.7425 0.1238 0.0000
vt 0.7290 0.1408 0.0000
vt 0.7338 0.1619 0.0000
vt 0.7083 0.4508 0.0000
vt 0.9698 0.4508 0.0000
vt 0.9632 0.4523 0.0000
vt 0.7149 0.4523 0.0000
vt 0.7083 0.5197 0.0000
vt 0.7149 0.5162 0.0000
vt 0.9087 0.1416 0.0000
vt 0.9101 0.1245 0.0000
vt 0.8695 0.1245 0.0000
vt 0.8846 0.1416 0.0000
vt 0.3129 0.0589 0.0000
vt 0.3051 0.0430 0.0000
vt 0.3124 0.0253 0.0000
vt 0.3215 0.0274 0.0000
vt 0.3472 0.0380 0.0000
vt 0.3551 0.0430 0.0000
vt 0.3478 0.0253 0.0000
vt 0.2044 0.7194 0.0000
vt 0.0162 0.7032 0.0000
vt 0.0162 0.6974 0.0000
vt 0.3839 0.7214 0.0000
vt 0.6620 0.7215 0.0000
vt 0.3992 0.7215 0.0000
vt 0.3934 0.7938 0.0000
vt 0.3781 0.7938 0.0000
vt 0.2128 0.7214 0.0000
vt 0.0162 0.6199 0.0000
vt 0.9686 0.6502 0.0000
vt 0.9686 0.8061 0.0000
vt 0.8116 0.8061 0.0000
vt 0.8116 0.6502 0.0000
vt 0.9632 0.5162 0.0000
vt 0.9698 0.5197 0.0000
vt 0.7083 0.6399 0.0000
vt 0.9698 0.6399 0.0000
vt 0.8835 0.1417 0.0000
vt 0.8683 0.1244 0.0000
vt 0.2763 0.7938 0.0000
vt 0.3934 0.7942 0.0000
vt 0.3934 0.7978 0.0000
vt 0.2732 0.7978 0.0000
vt 0.9120 0.1415 0.0000
vt 0.9133 0.1259 0.0000
vt 0.0000 0.0000 0.0000
# 255 texture coords

g Body
usemtl SPW_Vehicle_Land_Pick_Up_Truck
s 1
f 97/49/72 98/50/73 99/51/73 100/52/72 
f 101/53/72 102/54/72 103/55/72 104/56/74 
f 105/57/75 106/58/76 107/59/77 108/60/76 
f 102/54/72 109/61/74 110/62/74 103/55/72 
f 111/63/77 112/64/77 113/65/77 114/66/77 
f 115/67/72 97/49/72 100/52/72 116/68/74 
f 106/58/76 117/69/76 118/70/76 107/59/77 
s off
f 108/60/78 104/56/78 103/55/78 119/71/78 
f 119/71/79 103/55/79 110/62/79 113/65/79 
f 113/65/80 110/62/80 120/72/80 114/66/80 
f 121/73/81 116/68/81 100/52/81 118/70/81 
f 107/59/82 99/51/82 104/56/82 108/60/82 
f 118/70/83 100/52/83 99/51/83 107/59/83 
s 1
f 109/61/74 122/74/74 120/72/74 110/62/74 
f 117/69/76 123/75/84 121/73/75 118/70/76 
f 112/64/77 124/76/76 119/71/76 113/65/77 
f 98/50/73 101/53/72 104/56/74 99/51/73 
f 124/76/76 105/57/75 108/60/76 119/71/76 
s off
f 115/67/85 116/68/85 121/73/85 123/75/85 
f 114/66/85 120/72/85 122/74/85 111/63/85 
f 112/64/86 111/63/86 122/74/86 109/61/86 
f 124/76/87 112/64/87 109/61/87 102/54/87 
f 105/57/88 124/76/88 102/54/88 101/53/88 
f 106/58/89 105/57/89 101/53/89 98/50/89 
f 117/69/90 106/58/90 98/50/90 97/49/90 
f 123/75/91 117/69/91 97/49/91 115/67/91 
s 1
f 125/77/73 126/78/73 127/79/73 128/80/73 
f 129/81/72 130/82/72 131/83/72 132/84/74 
f 133/85/75 134/86/77 135/87/77 136/88/76 
f 130/82/72 137/89/72 138/90/72 131/83/72 
f 139/91/75 140/92/77 141/93/75 142/94/75 
f 143/95/74 125/77/73 128/80/73 144/96/74 
f 134/86/77 145/97/77 146/98/77 135/87/77 
s off
f 136/88/78 132/84/78 131/83/78 147/99/78 
f 147/99/79 131/83/79 138/90/79 141/93/79 
f 141/93/80 138/90/80 148/100/80 142/94/80 
f 149/101/81 144/96/81 128/80/81 146/98/81 
f 135/87/82 127/79/82 132/84/82 136/88/82 
f 146/98/83 128/80/83 127/79/83 135/87/83 
s 1
f 137/89/72 150/102/74 148/100/74 138/90/72 
f 145/97/77 151/103/77 149/101/77 146/98/77 
f 140/92/77 152/104/76 147/99/76 141/93/75 
f 126/78/73 129/81/72 132/84/74 127/79/73 
f 152/104/76 133/85/75 136/88/76 147/99/76 
s off
f 143/95/85 144/96/85 149/101/85 151/103/85 
f 142/94/85 148/100/85 150/102/85 139/91/85 
f 140/92/86 139/91/86 150/102/86 137/89/86 
f 152/104/87 140/92/87 137/89/87 130/82/87 
f 133/85/88 152/104/88 130/82/88 129/81/88 
f 134/86/89 133/85/89 129/81/89 126/78/89 
f 145/97/90 134/86/90 126/78/90 125/77/90 
f 151/103/91 145/97/91 125/77/91 143/95/91 
f 153/105/92 154/106/92 155/107/92 156/108/92 
f 154/106/93 157/109/93 158/110/93 155/107/93 
f 157/109/94 159/111/94 160/112/94 158/110/94 
f 159/111/95 153/105/95 156/108/95 160/112/95 
f 156/108/96 155/107/96 158/110/96 160/112/96 
f 159/111/97 157/109/97 154/106/97 153/105/97 
f 161/113/92 162/114/92 163/115/92 164/116/92 
f 162/114/98 165/117/98 166/118/98 163/115/98 
f 165/117/94 167/119/94 168/120/94 166/118/94 
f 167/119/99 161/113/99 164/116/99 168/120/99 
f 164/116/100 163/115/100 166/118/100 168/120/100 
f 167/119/101 165/117/101 162/114/101 161/113/101 
f 169/121/102 170/122/102 171/123/102 172/124/102 
f 170/122/103 173/125/103 174/126/103 171/123/103 
f 173/125/104 175/127/104 176/128/104 174/126/104 
f 175/127/105 169/121/105 172/124/105 176/128/105 
f 172/124/106 171/123/106 174/126/106 176/128/106 
f 175/127/107 173/125/107 170/122/107 169/121/107 
f 177/111/104 178/109/104 179/110/104 180/112/104 
f 178/109/108 181/106/108 182/107/108 179/110/108 
f 181/106/102 183/105/102 184/108/102 182/107/102 
f 183/105/109 177/111/109 180/112/109 184/108/109 
f 180/112/110 179/110/110 182/107/110 184/108/110 
f 183/105/111 181/106/111 178/109/111 177/111/111 
f 185/129/112 186/130/112 187/131/112 188/132/112 
f 186/129/77 189/130/77 190/131/77 187/132/77 
f 189/129/113 191/130/113 192/131/113 190/132/113 
f 191/129/73 185/130/73 188/131/73 192/132/73 
f 188/129/114 187/130/114 190/131/114 192/132/114 
f 191/129/115 189/130/115 186/131/115 185/132/115 
f 193/129/112 194/130/112 195/131/112 196/132/112 
f 194/129/77 197/130/77 198/131/77 195/132/77 
f 197/129/113 199/130/113 200/131/113 198/132/113 
f 199/129/74 193/130/74 196/131/74 200/132/74 
f 196/129/114 195/130/114 198/131/114 200/132/114 
f 199/129/115 197/130/115 194/131/115 193/132/115 
f 201/129/112 202/130/112 203/131/112 204/132/112 
f 202/129/77 205/130/77 206/131/77 203/132/77 
f 205/129/113 207/130/113 208/131/113 206/132/113 
f 207/129/74 201/130/74 204/131/74 208/132/74 
f 204/129/114 203/130/114 206/131/114 208/132/114 
f 207/129/115 205/130/115 202/131/115 201/132/115 
f 209/129/112 210/130/112 211/131/112 212/132/112 
f 210/129/77 213/130/77 214/131/77 211/132/77 
f 213/129/113 215/130/113 216/131/113 214/132/113 
f 215/129/73 209/130/73 212/131/73 216/132/73 
f 212/129/114 211/130/114 214/131/114 216/132/114 
f 215/129/115 213/130/115 210/131/115 209/132/115 
f 217/133/112 218/134/112 219/135/112 220/136/112 
f 218/133/77 221/134/77 222/135/77 219/136/77 
f 221/133/116 223/134/116 224/135/116 222/136/116 
f 223/133/74 217/134/74 220/135/74 224/136/74 
f 220/133/114 219/134/114 222/135/114 224/136/114 
f 223/133/117 221/134/117 218/135/117 217/136/117 
f 225/133/112 226/134/112 227/135/112 228/136/112 
f 226/133/77 229/134/77 230/135/77 227/136/77 
f 229/133/113 231/134/113 232/135/113 230/136/113 
f 231/133/74 225/134/74 228/135/74 232/136/74 
f 228/133/118 227/134/118 230/135/118 232/136/118 
f 231/133/117 229/134/117 226/135/117 225/136/117 
f 233/133/112 234/134/112 235/135/112 236/136/112 
s 1
f 234/133/84 237/134/84 238/135/76 235/136/76 
s 2
f 237/133/113 239/134/113 240/135/113 238/136/113 
s 1
f 239/133/119 233/134/119 236/135/72 240/136/72 
s off
f 236/133/114 235/134/114 238/135/114 240/136/114 
s 1
f 233/133/119 239/134/119 241/135/119 242/136/119 
s off
f 241/133/115 243/134/115 244/135/115 242/136/115 
s 2
f 239/133/113 237/134/113 243/135/113 241/136/113 
s 1
f 237/133/84 234/134/84 244/135/84 243/136/84 
s off
f 234/133/120 233/134/120 242/135/120 244/136/120 
f 245/133/121 246/134/121 247/135/121 248/136/121 
s 1
f 246/133/84 249/134/75 250/135/76 247/136/76 
s 2
f 249/133/113 251/134/113 252/135/113 250/136/113 
s 1
f 251/133/119 245/134/74 248/135/72 252/136/72 
s off
f 248/133/114 247/134/114 250/135/114 252/136/114 
s 1
f 245/133/74 251/134/119 253/135/74 254/136/74 
s off
f 253/133/122 255/134/122 256/135/122 254/136/122 
s 2
f 251/133/113 249/134/113 255/135/113 253/136/113 
s 1
f 249/133/75 246/134/84 256/135/75 255/136/75 
s off
f 246/133/120 245/134/120 254/135/120 256/136/120 
f 257/137/112 258/138/112 259/139/112 260/140/112 
f 258/137/77 261/138/77 262/139/77 259/140/77 
f 261/137/123 263/138/123 264/139/123 262/140/123 
f 263/137/73 257/138/73 260/139/73 264/140/73 
f 260/137/114 259/138/114 262/139/114 264/140/114 
f 263/137/115 261/138/115 258/139/115 257/140/115 
f 265/137/121 266/138/121 267/139/121 268/140/121 
f 266/137/84 269/138/84 270/139/84 267/140/84 
f 269/137/123 271/138/123 272/139/123 270/140/123 
f 271/137/119 265/138/119 268/139/119 272/140/119 
f 268/137/85 267/138/85 270/139/85 272/140/85 
f 271/137/115 269/138/115 266/139/115 265/140/115 
f 273/141/124 274/142/124 275/143/124 276/144/124 
f 274/141/77 277/142/77 278/143/77 275/144/77 
f 277/141/113 279/142/113 280/143/113 278/144/113 
f 279/141/74 273/142/74 276/143/74 280/144/74 
f 276/141/85 275/142/85 278/143/85 280/144/85 
f 279/141/115 277/142/115 274/143/115 273/144/115 
f 281/141/112 282/142/112 283/143/112 284/144/112 
f 282/141/77 285/142/77 286/143/77 283/144/77 
f 285/141/113 287/142/113 288/143/113 286/144/113 
f 287/141/73 281/142/73 284/143/73 288/144/73 
f 284/141/114 283/142/114 286/143/114 288/144/114 
f 287/141/125 285/142/125 282/143/125 281/144/125 
f 289/141/124 290/142/124 291/143/124 292/144/124 
f 290/141/77 293/142/77 294/143/77 291/144/77 
f 293/141/113 295/142/113 296/143/113 294/144/113 
f 295/141/74 289/142/74 292/143/74 296/144/74 
f 292/141/85 291/142/85 294/143/85 296/144/85 
f 295/141/115 293/142/115 290/143/115 289/144/115 
s 1
f 297/145/84 298/146/84 299/147/84 300/148/84 
f 300/148/84 301/149/77 302/150/75 297/145/84 
f 297/145/84 302/150/75 303/151/84 304/152/77 
f 305/153/84 297/145/84 304/152/77 306/154/84 
f 307/155/84 308/156/84 309/157/84 310/158/76 
f 304/152/77 310/158/76 309/157/84 311/159/84 
f 304/152/77 311/159/84 306/154/84 
f 305/153/84 306/154/84 312/160/75 313/161/84 
f 305/153/84 313/161/84 314/162/75 315/163/84 
f 305/153/84 315/163/84 316/164/84 
s 2
f 317/165/76 318/166/84 319/167/76 320/168/77 
f 320/168/77 321/169/77 298/146/77 297/145/77 
f 305/153/77 322/170/76 323/171/77 297/145/77 
f 320/168/77 297/145/77 323/171/77 317/165/76 
f 317/165/76 323/171/77 324/172/75 325/173/75 
s off
f 298/174/126 326/175/126 327/176/126 299/177/126 
f 299/178/127 327/179/127 328/180/127 300/181/127 
s 1
f 322/170/75 305/153/84 316/164/84 329/182/75 
s off
f 300/183/128 328/184/128 330/185/128 331/186/128 
f 332/187/129 333/188/129 334/189/129 335/190/129 
f 336/191/130 337/192/130 338/193/130 339/194/130 
f 338/193/130 316/195/130 315/196/130 339/194/130 
f 335/190/131 336/191/131 339/194/131 332/187/131 
f 331/186/132 332/187/132 339/194/132 340/197/132 
f 340/197/129 309/198/129 308/199/129 341/200/129 
f 331/186/131 340/197/131 341/200/131 342/201/131 
f 300/183/128 331/186/128 342/201/128 301/202/128 
f 302/178/86 301/179/86 342/180/86 343/181/86 
f 303/178/87 302/179/87 343/180/87 344/181/87 
f 304/178/88 303/179/88 344/180/88 345/181/88 
f 310/178/89 304/179/89 345/180/89 346/181/89 
f 307/178/133 310/179/133 346/180/133 347/181/133 
f 341/178/134 308/179/134 307/180/134 347/181/134 
f 311/178/86 309/179/86 340/180/86 348/181/86 
f 306/178/87 311/179/87 348/180/87 349/181/87 
f 312/178/88 306/179/88 349/180/88 350/181/88 
f 313/178/89 312/179/89 350/180/89 351/181/89 
f 314/178/133 313/179/133 351/180/133 352/181/133 
f 339/178/91 315/179/91 314/180/91 352/181/91 
s 3
f 353/203/84 354/204/77 355/205/84 356/206/84 
f 355/205/84 318/166/84 356/206/84 
f 324/172/75 353/203/84 356/206/84 325/173/75 
s off
f 317/207/115 325/208/115 357/209/115 358/210/115 
f 318/207/135 317/208/135 358/209/135 359/210/135 
s 1
f 319/207/77 318/208/84 355/209/84 
s off
f 320/211/136 319/212/136 360/213/136 361/214/136 
f 362/215/136 320/211/136 361/214/136 363/216/136 
s 1
f 364/217/125 365/218/115 321/219/115 320/220/125 
f 366/211/115 364/217/125 320/220/125 362/221/115 
s off
f 367/222/113 326/175/113 298/174/113 321/223/113 
f 323/224/124 322/225/124 368/226/124 369/227/124 
f 324/228/137 323/229/137 369/230/137 370/231/137 
s 1
f 326/232/119 371/233/119 328/234/119 327/235/119 
s off
f 368/226/124 322/225/124 329/236/124 372/237/124 
f 316/178/138 338/179/138 372/180/138 329/181/138 
s 1
f 373/238/119 338/239/119 337/240/119 374/241/119 
f 373/238/119 374/241/119 375/242/119 376/243/119 
f 371/233/119 373/238/119 376/243/119 377/244/72 
f 378/245/74 334/246/74 333/247/74 379/248/73 
f 376/243/119 379/248/73 333/247/74 380/249/74 
f 376/243/119 380/249/74 377/244/72 
f 371/233/119 377/244/72 381/250/74 382/251/119 
f 383/252/139 330/253/74 328/234/119 382/251/119 
f 371/233/119 382/251/119 328/234/119 
s off
f 384/178/86 331/179/86 330/180/86 383/181/86 
f 332/183/119 331/254/119 384/255/119 385/256/119 
f 332/183/72 385/256/72 386/257/72 387/258/72 
f 332/183/72 387/258/72 388/259/72 
f 380/178/91 333/179/91 332/180/91 388/181/91 
f 389/178/86 335/179/86 334/180/86 378/181/86 
f 336/183/73 335/254/73 389/255/73 390/256/73 
f 336/183/74 390/256/74 391/257/74 392/258/74 
f 336/183/72 392/258/72 393/259/72 
f 374/178/134 337/179/134 336/180/134 393/181/134 
f 340/183/76 339/254/76 352/255/76 351/256/76 
f 340/183/77 351/256/77 350/257/77 349/258/77 
f 340/183/77 349/258/77 348/259/77 
f 342/183/76 341/254/76 347/255/76 346/256/76 
f 342/183/76 346/256/76 345/257/76 344/258/76 
f 342/183/77 344/258/77 343/259/77 
s 4
f 324/260/140 370/261/141 394/262/141 395/263/140 
f 353/264/141 324/260/140 395/263/140 396/265/141 
s off
f 325/207/142 356/208/142 397/209/142 357/210/142 
f 359/266/84 358/267/84 357/268/84 397/269/84 
f 356/207/114 318/208/114 359/209/114 397/210/114 
f 362/215/143 363/216/143 398/270/143 399/271/143 
f 400/272/144 399/271/144 398/270/144 401/273/144 
f 402/274/145 360/213/145 319/212/145 401/273/145 
f 400/272/146 401/273/146 319/212/146 403/219/146 
f 403/219/123 319/212/123 355/275/123 354/276/123 
s 1
f 367/218/125 321/219/115 365/220/115 404/221/125 
f 362/217/115 367/218/125 404/221/125 366/211/115 
s off
f 364/207/123 366/208/123 405/209/123 406/210/123 
f 365/207/72 364/208/72 406/209/72 407/210/72 
f 370/277/119 369/278/119 368/279/119 408/280/119 
f 371/233/73 326/232/73 367/281/73 373/238/73 
f 373/238/119 367/281/119 362/282/119 408/280/119 
f 362/282/72 399/283/72 409/284/72 408/280/72 
f 368/279/72 373/238/72 408/280/72 
f 410/285/119 370/277/119 408/280/119 
s 1
f 373/238/119 368/279/119 372/286/74 338/239/119 
s off
f 375/178/133 374/179/133 393/180/133 392/181/133 
f 376/178/147 375/179/147 392/180/147 391/181/147 
f 379/178/148 376/179/148 391/180/148 390/181/148 
f 378/178/87 379/179/87 390/180/87 389/181/87 
f 377/178/90 380/179/90 388/180/90 387/181/90 
f 381/178/89 377/179/89 387/180/89 386/181/89 
f 382/178/148 381/179/148 386/180/148 385/181/148 
f 383/178/149 382/179/149 385/180/149 384/181/149 
f 366/207/76 404/208/76 411/209/76 405/210/76 
f 404/207/121 365/208/121 407/209/121 411/210/121 
f 405/287/125 411/288/125 407/289/125 406/290/125 
f 410/207/115 408/208/115 412/209/115 413/210/115 
f 400/207/74 409/208/74 399/209/74 
f 408/207/135 409/208/135 414/209/135 412/210/135 
f 396/207/74 395/208/74 415/209/74 416/210/74 
f 417/207/150 396/208/150 416/209/150 418/210/150 
s 4
f 417/291/140 394/262/141 370/261/141 419/292/140 
f 396/265/141 417/291/140 419/292/140 353/264/141 
s off
f 354/293/115 353/264/115 419/292/115 403/294/115 
f 420/207/142 410/208/142 413/209/142 421/210/142 
f 421/269/74 413/268/74 412/267/74 414/266/74 
f 409/207/114 420/208/114 421/209/114 414/210/114 
f 395/207/115 394/208/115 422/209/115 415/210/115 
f 416/295/151 415/296/151 422/296/151 418/295/151 
f 394/207/77 417/208/77 418/209/77 422/210/77 
f 420/297/119 409/284/119 400/298/119 403/299/119 
f 420/297/119 403/299/119 419/300/119 370/277/119 
f 420/297/72 370/277/72 410/285/72 
f 423/301/152 424/302/152 425/302/152 426/301/152 
f 401/303/77 398/303/77 424/303/77 423/303/77 
f 402/303/114 401/303/114 423/303/114 426/303/114 
f 426/303/74 425/303/74 361/303/74 360/303/74 
f 426/303/74 360/303/74 402/303/74 
f 424/303/115 398/303/115 363/303/115 361/303/115 
f 424/303/115 361/303/115 425/303/115 
# 282 polygons - 16 triangles

