# 3ds Max Wavefront OBJ Exporter v0.97b - (c)2007 guruware
# File Created: 15.03.2017 11:53:16

mtllib SPW_Vehicle_Land_Truck Container.mtl

#
# object SPW_Urban_Props_Container
#

v  -76.7716 192.3909 -7.9915
v  -76.7717 192.3909 -359.1727
v  -76.7717 62.4696 -359.1727
v  -76.7716 62.4696 -7.9916
v  76.7716 192.3909 -359.1727
v  76.7716 62.4696 -359.1727
v  76.7717 192.3909 -7.9915
v  76.7717 62.4696 -7.9916
# 8 vertices

vn -1.0000 0.0000 0.0000
vn 0.0000 0.0000 -1.0000
vn 1.0000 -0.0000 -0.0000
vn 0.0000 -0.0000 1.0000
vn -0.0000 -1.0000 -0.0000
vn 0.0000 1.0000 0.0000
# 6 vertex normals

vt 0.1584 0.9717 0.0000
vt 0.8396 0.9717 0.0000
vt 0.8396 0.7122 0.0000
vt 0.1584 0.7122 0.0000
vt 0.6622 0.2890 0.0000
vt 0.3378 0.2890 0.0000
vt 0.3378 0.0295 0.0000
vt 0.6622 0.0295 0.0000
vt 0.1594 0.6654 0.0000
vt 0.8406 0.6654 0.0000
vt 0.8406 0.3410 0.0000
vt 0.1594 0.3410 0.0000
# 12 texture coords

g SPW_Urban_Props_Container
usemtl SPW_Urban_Props_Container
s off
f 1/1/1 2/2/1 3/3/1 4/4/1 
f 2/5/2 5/6/2 6/7/2 3/8/2 
f 5/2/3 7/1/3 8/4/3 6/3/3 
f 7/6/4 1/5/4 4/8/4 8/7/4 
f 4/9/5 3/10/5 6/11/5 8/12/5 
f 7/12/6 5/11/6 2/10/6 1/9/6 
# 6 polygons

#
# object RR4
#

v  -77.1699 43.4976 -309.0957
v  -58.5970 43.4976 -309.0957
v  -58.5970 41.3435 -318.5336
v  -77.1699 41.3435 -318.5336
v  -58.5970 35.3077 -326.1021
v  -77.1699 35.3077 -326.1021
v  -58.5970 26.5859 -330.3024
v  -77.1698 26.5859 -330.3024
v  -58.5970 16.9053 -330.3024
v  -77.1698 16.9053 -330.3024
v  -58.5970 8.1835 -326.1021
v  -77.1698 8.1835 -326.1021
v  -58.5970 2.1478 -318.5336
v  -77.1698 2.1478 -318.5336
v  -58.5970 -0.0064 -309.0958
v  -77.1698 -0.0064 -309.0958
v  -58.5970 2.1478 -299.6580
v  -77.1699 2.1478 -299.6580
v  -58.5970 8.1835 -292.0894
v  -77.1699 8.1835 -292.0894
v  -58.5970 16.9053 -287.8892
v  -77.1699 16.9053 -287.8892
v  -58.5970 26.5859 -287.8892
v  -77.1699 26.5859 -287.8892
v  -58.5970 35.3077 -292.0894
v  -77.1699 35.3077 -292.0894
v  -58.5970 41.3435 -299.6579
v  -77.1699 41.3435 -299.6579
# 28 vertices

vn 0.0000 0.9749 -0.2225
vn 0.0000 0.7818 -0.6235
vn 0.0000 0.4339 -0.9010
vn 0.0000 0.0000 -1.0000
vn 0.0000 -0.4339 -0.9010
vn 0.0000 -0.7818 -0.6235
vn 0.0000 -0.9749 -0.2225
vn 0.0000 -0.9749 0.2225
vn 0.0000 -0.7818 0.6235
vn 0.0000 -0.4339 0.9010
vn 0.0000 -0.0000 1.0000
vn 0.0000 0.4339 0.9010
vn 1.0000 0.0000 -0.0000
vn 0.0000 0.7818 0.6235
vn 0.0000 0.9749 0.2225
vn -1.0000 -0.0000 0.0000
vn -1.0000 -0.0000 -0.0000
vn -1.0000 0.0000 -0.0000
# 18 vertex normals

vt 0.8483 0.2017 0.0000
vt 0.8858 0.1931 0.0000
vt 0.9158 0.1692 0.0000
vt 0.9324 0.1346 0.0000
vt 0.9324 0.0962 0.0000
vt 0.9158 0.0617 0.0000
vt 0.8858 0.0377 0.0000
vt 0.8483 0.0292 0.0000
vt 0.8109 0.0377 0.0000
vt 0.7809 0.0617 0.0000
vt 0.7642 0.0962 0.0000
vt 0.7642 0.1346 0.0000
vt 0.7809 0.1692 0.0000
vt 0.8109 0.1931 0.0000
# 14 texture coords

g RR4
usemtl SPW_Vehicle_Land_Truck_Container
s off
f 9/13/7 10/13/7 11/14/7 12/14/7 
f 12/14/8 11/14/8 13/15/8 14/15/8 
f 14/15/9 13/15/9 15/16/9 16/16/9 
f 16/16/10 15/16/10 17/17/10 18/17/10 
f 18/17/11 17/17/11 19/18/11 20/18/11 
f 20/18/12 19/18/12 21/19/12 22/19/12 
f 22/19/13 21/19/13 23/20/13 24/20/13 
f 24/20/14 23/20/14 25/21/14 26/21/14 
f 26/21/15 25/21/15 27/22/15 28/22/15 
f 28/22/16 27/22/16 29/23/16 30/23/16 
f 30/23/17 29/23/17 31/24/17 32/24/17 
f 32/24/18 31/24/18 33/25/18 34/25/18 
f 11/14/19 10/13/19 35/26/19 33/25/19 
f 11/14/19 33/25/19 31/24/19 29/23/19 
f 11/14/19 29/23/19 27/22/19 25/21/19 
f 11/14/19 25/21/19 23/20/19 21/19/19 
f 11/14/19 21/19/19 19/18/19 17/17/19 
f 11/14/19 17/17/19 15/16/19 13/15/19 
f 34/25/20 33/25/20 35/26/20 36/26/20 
f 36/26/21 35/26/21 10/13/21 9/13/21 
f 9/13/22 12/14/22 14/15/22 16/16/22 
f 9/13/23 16/16/23 18/17/23 20/18/23 
f 9/13/23 20/18/23 22/19/23 24/20/23 
f 9/13/23 24/20/23 26/21/23 28/22/23 
f 9/13/24 28/22/24 30/23/24 32/24/24 
f 9/13/24 32/24/24 34/25/24 36/26/24 
# 26 polygons

#
# object RR3
#

v  -77.1698 43.4976 -261.2259
v  -58.5970 43.4976 -261.2259
v  -58.5970 41.3435 -270.6637
v  -77.1699 41.3435 -270.6637
v  -58.5970 35.3077 -278.2322
v  -77.1699 35.3077 -278.2322
v  -58.5970 26.5859 -282.4325
v  -77.1698 26.5859 -282.4325
v  -58.5970 16.9053 -282.4325
v  -77.1698 16.9053 -282.4325
v  -58.5970 8.1835 -278.2322
v  -77.1698 8.1835 -278.2322
v  -58.5970 2.1478 -270.6637
v  -77.1698 2.1478 -270.6637
v  -58.5970 -0.0064 -261.2259
v  -77.1698 -0.0064 -261.2259
v  -58.5970 2.1478 -251.7881
v  -77.1698 2.1478 -251.7881
v  -58.5970 8.1835 -244.2195
v  -77.1698 8.1835 -244.2195
v  -58.5970 16.9053 -240.0193
v  -77.1698 16.9053 -240.0193
v  -58.5970 26.5859 -240.0193
v  -77.1698 26.5859 -240.0193
v  -58.5970 35.3077 -244.2195
v  -77.1698 35.3077 -244.2195
v  -58.5970 41.3435 -251.7880
v  -77.1698 41.3435 -251.7880
# 28 vertices

vn 0.0000 0.9749 -0.2225
vn 0.0000 0.7818 -0.6235
vn 0.0000 0.4339 -0.9010
vn 0.0000 0.0000 -1.0000
vn 0.0000 -0.4339 -0.9010
vn 0.0000 -0.7818 -0.6235
vn 0.0000 -0.9749 -0.2225
vn 0.0000 -0.9749 0.2225
vn 0.0000 -0.7818 0.6235
vn 0.0000 -0.4339 0.9010
vn 0.0000 -0.0000 1.0000
vn 0.0000 0.4339 0.9010
vn 1.0000 -0.0000 -0.0000
vn 1.0000 0.0000 -0.0000
vn 0.0000 0.7818 0.6235
vn 0.0000 0.9749 0.2225
vn -1.0000 -0.0000 0.0000
vn -1.0000 -0.0000 -0.0000
vn -1.0000 0.0000 -0.0000
# 19 vertex normals

vt 0.8483 0.2017 0.0000
vt 0.8858 0.1931 0.0000
vt 0.9158 0.1692 0.0000
vt 0.9324 0.1346 0.0000
vt 0.9324 0.0962 0.0000
vt 0.9158 0.0617 0.0000
vt 0.8858 0.0377 0.0000
vt 0.8483 0.0292 0.0000
vt 0.8109 0.0377 0.0000
vt 0.7809 0.0617 0.0000
vt 0.7642 0.0962 0.0000
vt 0.7642 0.1346 0.0000
vt 0.7809 0.1692 0.0000
vt 0.8109 0.1931 0.0000
# 14 texture coords

g RR3
usemtl SPW_Vehicle_Land_Truck_Container
s off
f 37/27/25 38/27/25 39/28/25 40/28/25 
f 40/28/26 39/28/26 41/29/26 42/29/26 
f 42/29/27 41/29/27 43/30/27 44/30/27 
f 44/30/28 43/30/28 45/31/28 46/31/28 
f 46/31/29 45/31/29 47/32/29 48/32/29 
f 48/32/30 47/32/30 49/33/30 50/33/30 
f 50/33/31 49/33/31 51/34/31 52/34/31 
f 52/34/32 51/34/32 53/35/32 54/35/32 
f 54/35/33 53/35/33 55/36/33 56/36/33 
f 56/36/34 55/36/34 57/37/34 58/37/34 
f 58/37/35 57/37/35 59/38/35 60/38/35 
f 60/38/36 59/38/36 61/39/36 62/39/36 
f 39/28/37 38/27/37 63/40/37 61/39/37 
f 39/28/37 61/39/37 59/38/37 57/37/37 
f 39/28/38 57/37/38 55/36/38 53/35/38 
f 39/28/38 53/35/38 51/34/38 49/33/38 
f 39/28/38 49/33/38 47/32/38 45/31/38 
f 39/28/37 45/31/37 43/30/37 41/29/37 
f 62/39/39 61/39/39 63/40/39 64/40/39 
f 64/40/40 63/40/40 38/27/40 37/27/40 
f 37/27/41 40/28/41 42/29/41 44/30/41 
f 37/27/41 44/30/41 46/31/41 48/32/41 
f 37/27/41 48/32/41 50/33/41 52/34/41 
f 37/27/42 52/34/42 54/35/42 56/36/42 
f 37/27/43 56/36/43 58/37/43 60/38/43 
f 37/27/43 60/38/43 62/39/43 64/40/43 
# 26 polygons

#
# object RR2
#

v  -77.1698 43.4976 -86.5346
v  -58.5970 43.4976 -86.5346
v  -58.5970 41.3435 -95.9725
v  -77.1698 41.3435 -95.9725
v  -58.5970 35.3077 -103.5410
v  -77.1698 35.3077 -103.5410
v  -58.5970 26.5859 -107.7412
v  -77.1698 26.5859 -107.7412
v  -58.5970 16.9053 -107.7412
v  -77.1698 16.9053 -107.7412
v  -58.5970 8.1835 -103.5410
v  -77.1698 8.1835 -103.5410
v  -58.5970 2.1478 -95.9725
v  -77.1698 2.1478 -95.9725
v  -58.5970 -0.0064 -86.5346
v  -77.1698 -0.0064 -86.5346
v  -58.5970 2.1478 -77.0968
v  -77.1698 2.1478 -77.0968
v  -58.5970 8.1835 -69.5282
v  -77.1698 8.1835 -69.5282
v  -58.5970 16.9053 -65.3280
v  -77.1698 16.9053 -65.3280
v  -58.5970 26.5859 -65.3280
v  -77.1698 26.5859 -65.3280
v  -58.5970 35.3077 -69.5282
v  -77.1698 35.3077 -69.5282
v  -58.5970 41.3435 -77.0968
v  -77.1698 41.3435 -77.0968
# 28 vertices

vn 0.0000 0.9749 -0.2225
vn 0.0000 0.7818 -0.6235
vn 0.0000 0.4339 -0.9010
vn 0.0000 -0.0000 -1.0000
vn 0.0000 -0.4339 -0.9010
vn -0.0000 -0.7818 -0.6235
vn -0.0000 -0.9749 -0.2225
vn 0.0000 -0.9749 0.2225
vn 0.0000 -0.7818 0.6235
vn 0.0000 -0.4339 0.9010
vn 0.0000 0.0000 1.0000
vn 0.0000 0.4339 0.9010
vn 1.0000 -0.0000 -0.0000
vn 1.0000 0.0000 -0.0000
vn 0.0000 0.7818 0.6235
vn 0.0000 0.9749 0.2225
vn -1.0000 -0.0000 0.0000
vn -1.0000 0.0000 -0.0000
# 18 vertex normals

vt 0.8483 0.2017 0.0000
vt 0.8858 0.1931 0.0000
vt 0.9158 0.1692 0.0000
vt 0.9324 0.1346 0.0000
vt 0.9324 0.0962 0.0000
vt 0.9158 0.0617 0.0000
vt 0.8858 0.0377 0.0000
vt 0.8483 0.0292 0.0000
vt 0.8109 0.0377 0.0000
vt 0.7809 0.0617 0.0000
vt 0.7642 0.0962 0.0000
vt 0.7642 0.1346 0.0000
vt 0.7809 0.1692 0.0000
vt 0.8109 0.1931 0.0000
# 14 texture coords

g RR2
usemtl SPW_Vehicle_Land_Truck_Container
s off
f 65/41/44 66/41/44 67/42/44 68/42/44 
f 68/42/45 67/42/45 69/43/45 70/43/45 
f 70/43/46 69/43/46 71/44/46 72/44/46 
f 72/44/47 71/44/47 73/45/47 74/45/47 
f 74/45/48 73/45/48 75/46/48 76/46/48 
f 76/46/49 75/46/49 77/47/49 78/47/49 
f 78/47/50 77/47/50 79/48/50 80/48/50 
f 80/48/51 79/48/51 81/49/51 82/49/51 
f 82/49/52 81/49/52 83/50/52 84/50/52 
f 84/50/53 83/50/53 85/51/53 86/51/53 
f 86/51/54 85/51/54 87/52/54 88/52/54 
f 88/52/55 87/52/55 89/53/55 90/53/55 
f 67/42/56 66/41/56 91/54/56 89/53/56 
f 67/42/56 89/53/56 87/52/56 85/51/56 
f 67/42/57 85/51/57 83/50/57 81/49/57 
f 67/42/57 81/49/57 79/48/57 77/47/57 
f 67/42/57 77/47/57 75/46/57 73/45/57 
f 67/42/57 73/45/57 71/44/57 69/43/57 
f 90/53/58 89/53/58 91/54/58 92/54/58 
f 92/54/59 91/54/59 66/41/59 65/41/59 
f 65/41/60 68/42/60 70/43/60 72/44/60 
f 65/41/60 72/44/60 74/45/60 76/46/60 
f 65/41/61 76/46/61 78/47/61 80/48/61 
f 65/41/61 80/48/61 82/49/61 84/50/61 
f 65/41/61 84/50/61 86/51/61 88/52/61 
f 65/41/61 88/52/61 90/53/61 92/54/61 
# 26 polygons

#
# object RR1
#

v  -77.1698 43.4976 -36.7219
v  -58.5970 43.4976 -36.7219
v  -58.5970 41.3435 -46.1597
v  -77.1698 41.3435 -46.1597
v  -58.5970 35.3077 -53.7283
v  -77.1698 35.3077 -53.7283
v  -58.5970 26.5859 -57.9285
v  -77.1698 26.5859 -57.9285
v  -58.5970 16.9053 -57.9285
v  -77.1698 16.9053 -57.9285
v  -58.5970 8.1835 -53.7283
v  -77.1698 8.1835 -53.7283
v  -58.5970 2.1478 -46.1597
v  -77.1698 2.1478 -46.1597
v  -58.5970 -0.0064 -36.7219
v  -77.1698 -0.0064 -36.7219
v  -58.5970 2.1478 -27.2841
v  -77.1698 2.1478 -27.2841
v  -58.5970 8.1835 -19.7155
v  -77.1698 8.1835 -19.7155
v  -58.5970 16.9053 -15.5153
v  -77.1698 16.9053 -15.5153
v  -58.5970 26.5859 -15.5153
v  -77.1698 26.5859 -15.5153
v  -58.5970 35.3077 -19.7155
v  -77.1698 35.3077 -19.7155
v  -58.5970 41.3435 -27.2841
v  -77.1698 41.3435 -27.2841
# 28 vertices

vn -0.0000 0.9749 -0.2225
vn -0.0000 0.7818 -0.6235
vn 0.0000 0.4339 -0.9010
vn -0.0000 -0.0000 -1.0000
vn -0.0000 -0.4339 -0.9010
vn 0.0000 -0.7818 -0.6235
vn 0.0000 -0.9749 -0.2225
vn 0.0000 -0.9749 0.2225
vn 0.0000 -0.7818 0.6235
vn 0.0000 -0.4339 0.9010
vn 0.0000 -0.0000 1.0000
vn 0.0000 0.4339 0.9010
vn 1.0000 0.0000 -0.0000
vn 1.0000 -0.0000 -0.0000
vn 0.0000 0.7818 0.6235
vn 0.0000 0.9749 0.2225
vn -1.0000 0.0000 0.0000
vn -1.0000 -0.0000 0.0000
vn -1.0000 -0.0000 -0.0000
# 19 vertex normals

vt 0.8483 0.2017 0.0000
vt 0.8858 0.1931 0.0000
vt 0.9158 0.1692 0.0000
vt 0.9324 0.1346 0.0000
vt 0.9324 0.0962 0.0000
vt 0.9158 0.0617 0.0000
vt 0.8858 0.0377 0.0000
vt 0.8483 0.0292 0.0000
vt 0.8109 0.0377 0.0000
vt 0.7809 0.0617 0.0000
vt 0.7642 0.0962 0.0000
vt 0.7642 0.1346 0.0000
vt 0.7809 0.1692 0.0000
vt 0.8109 0.1931 0.0000
# 14 texture coords

g RR1
usemtl SPW_Vehicle_Land_Truck_Container
s off
f 93/55/62 94/55/62 95/56/62 96/56/62 
f 96/56/63 95/56/63 97/57/63 98/57/63 
f 98/57/64 97/57/64 99/58/64 100/58/64 
f 100/58/65 99/58/65 101/59/65 102/59/65 
f 102/59/66 101/59/66 103/60/66 104/60/66 
f 104/60/67 103/60/67 105/61/67 106/61/67 
f 106/61/68 105/61/68 107/62/68 108/62/68 
f 108/62/69 107/62/69 109/63/69 110/63/69 
f 110/63/70 109/63/70 111/64/70 112/64/70 
f 112/64/71 111/64/71 113/65/71 114/65/71 
f 114/65/72 113/65/72 115/66/72 116/66/72 
f 116/66/73 115/66/73 117/67/73 118/67/73 
f 95/56/74 94/55/74 119/68/74 117/67/74 
f 95/56/75 117/67/75 115/66/75 113/65/75 
f 95/56/74 113/65/74 111/64/74 109/63/74 
f 95/56/75 109/63/75 107/62/75 105/61/75 
f 95/56/75 105/61/75 103/60/75 101/59/75 
f 95/56/74 101/59/74 99/58/74 97/57/74 
f 118/67/76 117/67/76 119/68/76 120/68/76 
f 120/68/77 119/68/77 94/55/77 93/55/77 
f 93/55/78 96/56/78 98/57/78 100/58/78 
f 93/55/79 100/58/79 102/59/79 104/60/79 
f 93/55/80 104/60/80 106/61/80 108/62/80 
f 93/55/79 108/62/79 110/63/79 112/64/79 
f 93/55/79 112/64/79 114/65/79 116/66/79 
f 93/55/78 116/66/78 118/67/78 120/68/78 
# 26 polygons

#
# object FR
#

v  -77.1698 43.4976 138.3739
v  -58.5970 43.4976 138.3739
v  -58.5970 41.3435 128.9360
v  -77.1698 41.3435 128.9360
v  -58.5970 35.3077 121.3675
v  -77.1698 35.3077 121.3675
v  -58.5970 26.5859 117.1673
v  -77.1698 26.5859 117.1673
v  -58.5970 16.9054 117.1673
v  -77.1698 16.9054 117.1673
v  -58.5970 8.1835 121.3675
v  -77.1698 8.1835 121.3675
v  -58.5970 2.1478 128.9360
v  -77.1698 2.1478 128.9360
v  -58.5970 -0.0064 138.3739
v  -77.1698 -0.0064 138.3739
v  -58.5970 2.1478 147.8117
v  -77.1698 2.1478 147.8117
v  -58.5970 8.1835 155.3802
v  -77.1698 8.1835 155.3802
v  -58.5969 16.9053 159.5805
v  -77.1698 16.9053 159.5805
v  -58.5969 26.5859 159.5805
v  -77.1698 26.5859 159.5805
v  -58.5970 35.3078 155.3802
v  -77.1698 35.3078 155.3802
v  -58.5970 41.3435 147.8117
v  -77.1698 41.3435 147.8117
# 28 vertices

vn 0.0000 0.9749 -0.2225
vn 0.0000 0.7818 -0.6235
vn 0.0000 0.4339 -0.9010
vn 0.0000 0.0000 -1.0000
vn 0.0000 -0.4339 -0.9010
vn 0.0000 -0.7818 -0.6235
vn 0.0000 -0.9749 -0.2225
vn 0.0000 -0.9749 0.2225
vn 0.0000 -0.7818 0.6235
vn 0.0000 -0.4339 0.9010
vn 0.0000 -0.0000 1.0000
vn 0.0000 0.4339 0.9010
vn 1.0000 0.0000 -0.0000
vn 1.0000 -0.0000 -0.0000
vn 0.0000 0.7818 0.6235
vn 0.0000 0.9749 0.2225
vn -1.0000 0.0000 -0.0000
vn -1.0000 -0.0000 0.0000
vn -1.0000 -0.0000 -0.0000
vn -1.0000 0.0000 0.0000
# 20 vertex normals

vt 0.8483 0.2017 0.0000
vt 0.8858 0.1931 0.0000
vt 0.9158 0.1692 0.0000
vt 0.9324 0.1346 0.0000
vt 0.9324 0.0962 0.0000
vt 0.9158 0.0617 0.0000
vt 0.8858 0.0377 0.0000
vt 0.8483 0.0292 0.0000
vt 0.8109 0.0377 0.0000
vt 0.7809 0.0617 0.0000
vt 0.7642 0.0962 0.0000
vt 0.7642 0.1346 0.0000
vt 0.7809 0.1692 0.0000
vt 0.8109 0.1931 0.0000
# 14 texture coords

g FR
usemtl SPW_Vehicle_Land_Truck_Container
s off
f 121/69/81 122/69/81 123/70/81 124/70/81 
f 124/70/82 123/70/82 125/71/82 126/71/82 
f 126/71/83 125/71/83 127/72/83 128/72/83 
f 128/72/84 127/72/84 129/73/84 130/73/84 
f 130/73/85 129/73/85 131/74/85 132/74/85 
f 132/74/86 131/74/86 133/75/86 134/75/86 
f 134/75/87 133/75/87 135/76/87 136/76/87 
f 136/76/88 135/76/88 137/77/88 138/77/88 
f 138/77/89 137/77/89 139/78/89 140/78/89 
f 140/78/90 139/78/90 141/79/90 142/79/90 
f 142/79/91 141/79/91 143/80/91 144/80/91 
f 144/80/92 143/80/92 145/81/92 146/81/92 
f 123/70/93 122/69/93 147/82/93 145/81/93 
f 123/70/93 145/81/93 143/80/93 141/79/93 
f 123/70/94 141/79/94 139/78/94 137/77/94 
f 123/70/93 137/77/93 135/76/93 133/75/93 
f 123/70/93 133/75/93 131/74/93 129/73/93 
f 123/70/93 129/73/93 127/72/93 125/71/93 
f 146/81/95 145/81/95 147/82/95 148/82/95 
f 148/82/96 147/82/96 122/69/96 121/69/96 
f 121/69/97 124/70/97 126/71/97 128/72/97 
f 121/69/98 128/72/98 130/73/98 132/74/98 
f 121/69/99 132/74/99 134/75/99 136/76/99 
f 121/69/97 136/76/97 138/77/97 140/78/97 
f 121/69/100 140/78/100 142/79/100 144/80/100 
f 121/69/99 144/80/99 146/81/99 148/82/99 
# 26 polygons

#
# object RL4
#

v  58.5950 43.4976 -309.0956
v  77.1679 43.4976 -309.0956
v  77.1679 41.3435 -318.5335
v  58.5950 41.3435 -318.5335
v  77.1679 35.3077 -326.1021
v  58.5950 35.3077 -326.1021
v  77.1679 26.5859 -330.3023
v  58.5950 26.5859 -330.3023
v  77.1679 16.9053 -330.3023
v  58.5950 16.9053 -330.3023
v  77.1679 8.1835 -326.1021
v  58.5950 8.1835 -326.1021
v  77.1679 2.1478 -318.5335
v  58.5950 2.1478 -318.5335
v  77.1679 -0.0064 -309.0957
v  58.5950 -0.0064 -309.0957
v  77.1679 2.1478 -299.6579
v  58.5950 2.1478 -299.6579
v  77.1679 8.1835 -292.0893
v  58.5950 8.1835 -292.0893
v  77.1679 16.9053 -287.8891
v  58.5950 16.9053 -287.8891
v  77.1679 26.5859 -287.8891
v  58.5950 26.5859 -287.8891
v  77.1679 35.3077 -292.0893
v  58.5950 35.3077 -292.0893
v  77.1679 41.3435 -299.6578
v  58.5950 41.3435 -299.6578
# 28 vertices

vn 0.0000 0.9749 -0.2225
vn 0.0000 0.7818 -0.6235
vn 0.0000 0.4339 -0.9010
vn 0.0000 0.0000 -1.0000
vn 0.0000 -0.4339 -0.9010
vn 0.0000 -0.7818 -0.6235
vn 0.0000 -0.9749 -0.2225
vn 0.0000 -0.9749 0.2225
vn 0.0000 -0.7818 0.6235
vn 0.0000 -0.4339 0.9010
vn 0.0000 -0.0000 1.0000
vn 0.0000 0.4339 0.9010
vn 1.0000 0.0000 -0.0000
vn 0.0000 0.7818 0.6235
vn 0.0000 0.9749 0.2225
vn -1.0000 -0.0000 0.0000
vn -1.0000 -0.0000 -0.0000
vn -1.0000 0.0000 -0.0000
# 18 vertex normals

vt 0.8483 0.2017 0.0000
vt 0.8858 0.1931 0.0000
vt 0.9158 0.1692 0.0000
vt 0.9324 0.1346 0.0000
vt 0.9324 0.0962 0.0000
vt 0.9158 0.0617 0.0000
vt 0.8858 0.0377 0.0000
vt 0.8483 0.0292 0.0000
vt 0.8109 0.0377 0.0000
vt 0.7809 0.0617 0.0000
vt 0.7642 0.0962 0.0000
vt 0.7642 0.1346 0.0000
vt 0.7809 0.1692 0.0000
vt 0.8109 0.1931 0.0000
# 14 texture coords

g RL4
usemtl SPW_Vehicle_Land_Truck_Container
s off
f 149/83/101 150/83/101 151/84/101 152/84/101 
f 152/84/102 151/84/102 153/85/102 154/85/102 
f 154/85/103 153/85/103 155/86/103 156/86/103 
f 156/86/104 155/86/104 157/87/104 158/87/104 
f 158/87/105 157/87/105 159/88/105 160/88/105 
f 160/88/106 159/88/106 161/89/106 162/89/106 
f 162/89/107 161/89/107 163/90/107 164/90/107 
f 164/90/108 163/90/108 165/91/108 166/91/108 
f 166/91/109 165/91/109 167/92/109 168/92/109 
f 168/92/110 167/92/110 169/93/110 170/93/110 
f 170/93/111 169/93/111 171/94/111 172/94/111 
f 172/94/112 171/94/112 173/95/112 174/95/112 
f 151/84/113 150/83/113 175/96/113 173/95/113 
f 151/84/113 173/95/113 171/94/113 169/93/113 
f 151/84/113 169/93/113 167/92/113 165/91/113 
f 151/84/113 165/91/113 163/90/113 161/89/113 
f 151/84/113 161/89/113 159/88/113 157/87/113 
f 151/84/113 157/87/113 155/86/113 153/85/113 
f 174/95/114 173/95/114 175/96/114 176/96/114 
f 176/96/115 175/96/115 150/83/115 149/83/115 
f 149/83/116 152/84/116 154/85/116 156/86/116 
f 149/83/117 156/86/117 158/87/117 160/88/117 
f 149/83/117 160/88/117 162/89/117 164/90/117 
f 149/83/117 164/90/117 166/91/117 168/92/117 
f 149/83/118 168/92/118 170/93/118 172/94/118 
f 149/83/118 172/94/118 174/95/118 176/96/118 
# 26 polygons

#
# object RL3
#

v  58.5950 43.4976 -261.2259
v  77.1679 43.4976 -261.2259
v  77.1679 41.3435 -270.6637
v  58.5950 41.3435 -270.6637
v  77.1679 35.3077 -278.2323
v  58.5950 35.3077 -278.2322
v  77.1679 26.5859 -282.4325
v  58.5950 26.5859 -282.4325
v  77.1679 16.9053 -282.4325
v  58.5950 16.9053 -282.4325
v  77.1679 8.1835 -278.2323
v  58.5950 8.1835 -278.2323
v  77.1679 2.1478 -270.6637
v  58.5950 2.1478 -270.6637
v  77.1679 -0.0064 -261.2259
v  58.5950 -0.0064 -261.2259
v  77.1679 2.1478 -251.7881
v  58.5950 2.1478 -251.7881
v  77.1679 8.1835 -244.2195
v  58.5950 8.1835 -244.2195
v  77.1679 16.9053 -240.0193
v  58.5950 16.9053 -240.0193
v  77.1679 26.5859 -240.0193
v  58.5950 26.5859 -240.0193
v  77.1679 35.3077 -244.2195
v  58.5950 35.3077 -244.2195
v  77.1679 41.3435 -251.7880
v  58.5950 41.3435 -251.7880
# 28 vertices

vn 0.0000 0.9749 -0.2225
vn -0.0000 0.7818 -0.6235
vn -0.0000 0.4339 -0.9010
vn 0.0000 0.0000 -1.0000
vn 0.0000 -0.4339 -0.9010
vn 0.0000 -0.7818 -0.6235
vn 0.0000 -0.9749 -0.2225
vn 0.0000 -0.9749 0.2225
vn 0.0000 -0.7818 0.6235
vn 0.0000 -0.4339 0.9010
vn 0.0000 -0.0000 1.0000
vn 0.0000 0.4339 0.9010
vn 1.0000 -0.0000 -0.0000
vn 1.0000 0.0000 -0.0000
vn 0.0000 0.7818 0.6235
vn 0.0000 0.9749 0.2225
vn -1.0000 -0.0000 0.0000
vn -1.0000 -0.0000 -0.0000
vn -1.0000 0.0000 -0.0000
# 19 vertex normals

vt 0.8483 0.2017 0.0000
vt 0.8858 0.1931 0.0000
vt 0.9158 0.1692 0.0000
vt 0.9324 0.1346 0.0000
vt 0.9324 0.0962 0.0000
vt 0.9158 0.0617 0.0000
vt 0.8858 0.0377 0.0000
vt 0.8483 0.0292 0.0000
vt 0.8109 0.0377 0.0000
vt 0.7809 0.0617 0.0000
vt 0.7642 0.0962 0.0000
vt 0.7642 0.1346 0.0000
vt 0.7809 0.1692 0.0000
vt 0.8109 0.1931 0.0000
# 14 texture coords

g RL3
usemtl SPW_Vehicle_Land_Truck_Container
s off
f 177/97/119 178/97/119 179/98/119 180/98/119 
f 180/98/120 179/98/120 181/99/120 182/99/120 
f 182/99/121 181/99/121 183/100/121 184/100/121 
f 184/100/122 183/100/122 185/101/122 186/101/122 
f 186/101/123 185/101/123 187/102/123 188/102/123 
f 188/102/124 187/102/124 189/103/124 190/103/124 
f 190/103/125 189/103/125 191/104/125 192/104/125 
f 192/104/126 191/104/126 193/105/126 194/105/126 
f 194/105/127 193/105/127 195/106/127 196/106/127 
f 196/106/128 195/106/128 197/107/128 198/107/128 
f 198/107/129 197/107/129 199/108/129 200/108/129 
f 200/108/130 199/108/130 201/109/130 202/109/130 
f 179/98/131 178/97/131 203/110/131 201/109/131 
f 179/98/131 201/109/131 199/108/131 197/107/131 
f 179/98/132 197/107/132 195/106/132 193/105/132 
f 179/98/132 193/105/132 191/104/132 189/103/132 
f 179/98/132 189/103/132 187/102/132 185/101/132 
f 179/98/131 185/101/131 183/100/131 181/99/131 
f 202/109/133 201/109/133 203/110/133 204/110/133 
f 204/110/134 203/110/134 178/97/134 177/97/134 
f 177/97/135 180/98/135 182/99/135 184/100/135 
f 177/97/135 184/100/135 186/101/135 188/102/135 
f 177/97/135 188/102/135 190/103/135 192/104/135 
f 177/97/136 192/104/136 194/105/136 196/106/136 
f 177/97/137 196/106/137 198/107/137 200/108/137 
f 177/97/137 200/108/137 202/109/137 204/110/137 
# 26 polygons

#
# object RL2
#

v  58.5950 43.4976 -86.5346
v  77.1679 43.4976 -86.5346
v  77.1679 41.3435 -95.9725
v  58.5950 41.3435 -95.9725
v  77.1679 35.3077 -103.5410
v  58.5950 35.3077 -103.5410
v  77.1679 26.5859 -107.7412
v  58.5950 26.5859 -107.7412
v  77.1679 16.9053 -107.7412
v  58.5950 16.9053 -107.7412
v  77.1679 8.1835 -103.5410
v  58.5950 8.1835 -103.5410
v  77.1679 2.1478 -95.9725
v  58.5950 2.1478 -95.9725
v  77.1679 -0.0064 -86.5346
v  58.5951 -0.0064 -86.5346
v  77.1679 2.1478 -77.0968
v  58.5950 2.1478 -77.0968
v  77.1679 8.1835 -69.5283
v  58.5950 8.1835 -69.5283
v  77.1679 16.9053 -65.3280
v  58.5950 16.9053 -65.3280
v  77.1679 26.5859 -65.3280
v  58.5950 26.5859 -65.3280
v  77.1679 35.3077 -69.5283
v  58.5950 35.3077 -69.5283
v  77.1679 41.3435 -77.0968
v  58.5950 41.3435 -77.0968
# 28 vertices

vn 0.0000 0.9749 -0.2225
vn 0.0000 0.7818 -0.6235
vn 0.0000 0.4339 -0.9010
vn 0.0000 -0.0000 -1.0000
vn -0.0000 -0.4339 -0.9010
vn -0.0000 -0.7818 -0.6235
vn 0.0000 -0.9749 -0.2225
vn 0.0000 -0.9749 0.2225
vn 0.0000 -0.7818 0.6235
vn 0.0000 -0.4339 0.9010
vn 0.0000 0.0000 1.0000
vn 0.0000 0.4339 0.9010
vn 1.0000 -0.0000 -0.0000
vn 1.0000 0.0000 -0.0000
vn 0.0000 0.7818 0.6235
vn 0.0000 0.9749 0.2225
vn -1.0000 -0.0000 0.0000
vn -1.0000 0.0000 -0.0000
vn -1.0000 -0.0000 -0.0000
# 19 vertex normals

vt 0.8483 0.2017 0.0000
vt 0.8858 0.1931 0.0000
vt 0.9158 0.1692 0.0000
vt 0.9324 0.1346 0.0000
vt 0.9324 0.0962 0.0000
vt 0.9158 0.0617 0.0000
vt 0.8858 0.0377 0.0000
vt 0.8483 0.0292 0.0000
vt 0.8109 0.0377 0.0000
vt 0.7809 0.0617 0.0000
vt 0.7642 0.0962 0.0000
vt 0.7642 0.1346 0.0000
vt 0.7809 0.1692 0.0000
vt 0.8109 0.1931 0.0000
# 14 texture coords

g RL2
usemtl SPW_Vehicle_Land_Truck_Container
s off
f 205/111/138 206/111/138 207/112/138 208/112/138 
f 208/112/139 207/112/139 209/113/139 210/113/139 
f 210/113/140 209/113/140 211/114/140 212/114/140 
f 212/114/141 211/114/141 213/115/141 214/115/141 
f 214/115/142 213/115/142 215/116/142 216/116/142 
f 216/116/143 215/116/143 217/117/143 218/117/143 
f 218/117/144 217/117/144 219/118/144 220/118/144 
f 220/118/145 219/118/145 221/119/145 222/119/145 
f 222/119/146 221/119/146 223/120/146 224/120/146 
f 224/120/147 223/120/147 225/121/147 226/121/147 
f 226/121/148 225/121/148 227/122/148 228/122/148 
f 228/122/149 227/122/149 229/123/149 230/123/149 
f 207/112/150 206/111/150 231/124/150 229/123/150 
f 207/112/150 229/123/150 227/122/150 225/121/150 
f 207/112/151 225/121/151 223/120/151 221/119/151 
f 207/112/151 221/119/151 219/118/151 217/117/151 
f 207/112/151 217/117/151 215/116/151 213/115/151 
f 207/112/151 213/115/151 211/114/151 209/113/151 
f 230/123/152 229/123/152 231/124/152 232/124/152 
f 232/124/153 231/124/153 206/111/153 205/111/153 
f 205/111/154 208/112/154 210/113/154 212/114/154 
f 205/111/155 212/114/155 214/115/155 216/116/155 
f 205/111/154 216/116/154 218/117/154 220/118/154 
f 205/111/156 220/118/156 222/119/156 224/120/156 
f 205/111/155 224/120/155 226/121/155 228/122/155 
f 205/111/155 228/122/155 230/123/155 232/124/155 
# 26 polygons

#
# object RL1
#

v  58.5950 43.4976 -36.7219
v  77.1679 43.4976 -36.7219
v  77.1679 41.3435 -46.1597
v  58.5950 41.3435 -46.1597
v  77.1679 35.3077 -53.7283
v  58.5950 35.3077 -53.7283
v  77.1679 26.5859 -57.9285
v  58.5950 26.5859 -57.9285
v  77.1679 16.9053 -57.9285
v  58.5950 16.9053 -57.9285
v  77.1679 8.1835 -53.7283
v  58.5950 8.1835 -53.7283
v  77.1679 2.1478 -46.1597
v  58.5951 2.1478 -46.1597
v  77.1679 -0.0064 -36.7219
v  58.5951 -0.0064 -36.7219
v  77.1679 2.1478 -27.2841
v  58.5951 2.1478 -27.2841
v  77.1679 8.1835 -19.7155
v  58.5951 8.1835 -19.7155
v  77.1679 16.9053 -15.5153
v  58.5951 16.9053 -15.5153
v  77.1679 26.5859 -15.5153
v  58.5951 26.5859 -15.5153
v  77.1679 35.3077 -19.7155
v  58.5951 35.3077 -19.7155
v  77.1679 41.3435 -27.2841
v  58.5951 41.3435 -27.2841
# 28 vertices

vn -0.0000 0.9749 -0.2225
vn 0.0000 0.7818 -0.6235
vn 0.0000 0.4339 -0.9010
vn 0.0000 -0.0000 -1.0000
vn 0.0000 -0.4339 -0.9010
vn 0.0000 -0.7818 -0.6235
vn -0.0000 -0.9749 -0.2225
vn 0.0000 -0.9749 0.2225
vn 0.0000 -0.7818 0.6235
vn 0.0000 -0.4339 0.9010
vn 0.0000 -0.0000 1.0000
vn 0.0000 0.4339 0.9010
vn 1.0000 0.0000 -0.0000
vn 1.0000 -0.0000 -0.0000
vn 0.0000 0.7818 0.6235
vn 0.0000 0.9749 0.2225
vn -1.0000 -0.0000 0.0000
vn -1.0000 0.0000 -0.0000
vn -1.0000 0.0000 0.0000
# 19 vertex normals

vt 0.8483 0.2017 0.0000
vt 0.8858 0.1931 0.0000
vt 0.9158 0.1692 0.0000
vt 0.9324 0.1346 0.0000
vt 0.9324 0.0962 0.0000
vt 0.9158 0.0617 0.0000
vt 0.8858 0.0377 0.0000
vt 0.8483 0.0292 0.0000
vt 0.8109 0.0377 0.0000
vt 0.7809 0.0617 0.0000
vt 0.7642 0.0962 0.0000
vt 0.7642 0.1346 0.0000
vt 0.7809 0.1692 0.0000
vt 0.8109 0.1931 0.0000
# 14 texture coords

g RL1
usemtl SPW_Vehicle_Land_Truck_Container
s off
f 233/125/157 234/125/157 235/126/157 236/126/157 
f 236/126/158 235/126/158 237/127/158 238/127/158 
f 238/127/159 237/127/159 239/128/159 240/128/159 
f 240/128/160 239/128/160 241/129/160 242/129/160 
f 242/129/161 241/129/161 243/130/161 244/130/161 
f 244/130/162 243/130/162 245/131/162 246/131/162 
f 246/131/163 245/131/163 247/132/163 248/132/163 
f 248/132/164 247/132/164 249/133/164 250/133/164 
f 250/133/165 249/133/165 251/134/165 252/134/165 
f 252/134/166 251/134/166 253/135/166 254/135/166 
f 254/135/167 253/135/167 255/136/167 256/136/167 
f 256/136/168 255/136/168 257/137/168 258/137/168 
f 235/126/169 234/125/169 259/138/169 257/137/169 
f 235/126/170 257/137/170 255/136/170 253/135/170 
f 235/126/169 253/135/169 251/134/169 249/133/169 
f 235/126/170 249/133/170 247/132/170 245/131/170 
f 235/126/170 245/131/170 243/130/170 241/129/170 
f 235/126/169 241/129/169 239/128/169 237/127/169 
f 258/137/171 257/137/171 259/138/171 260/138/171 
f 260/138/172 259/138/172 234/125/172 233/125/172 
f 233/125/173 236/126/173 238/127/173 240/128/173 
f 233/125/174 240/128/174 242/129/174 244/130/174 
f 233/125/173 244/130/173 246/131/173 248/132/173 
f 233/125/173 248/132/173 250/133/173 252/134/173 
f 233/125/173 252/134/173 254/135/173 256/136/173 
f 233/125/175 256/136/175 258/137/175 260/138/175 
# 26 polygons

#
# object FL
#

v  58.5951 43.4976 138.3739
v  77.1679 43.4976 138.3739
v  77.1679 41.3435 128.9360
v  58.5951 41.3435 128.9360
v  77.1679 35.3077 121.3675
v  58.5951 35.3077 121.3675
v  77.1679 26.5859 117.1673
v  58.5951 26.5859 117.1673
v  77.1679 16.9054 117.1673
v  58.5951 16.9054 117.1673
v  77.1679 8.1835 121.3675
v  58.5951 8.1835 121.3675
v  77.1679 2.1478 128.9360
v  58.5951 2.1478 128.9360
v  77.1679 -0.0064 138.3738
v  58.5951 -0.0064 138.3738
v  77.1679 2.1478 147.8117
v  58.5951 2.1478 147.8117
v  77.1679 8.1835 155.3802
v  58.5951 8.1835 155.3802
v  77.1679 16.9053 159.5804
v  58.5951 16.9053 159.5804
v  77.1679 26.5859 159.5804
v  58.5951 26.5859 159.5804
v  77.1679 35.3078 155.3802
v  58.5951 35.3078 155.3802
v  77.1679 41.3435 147.8117
v  58.5951 41.3435 147.8117
# 28 vertices

vn 0.0000 0.9749 -0.2225
vn 0.0000 0.7818 -0.6235
vn 0.0000 0.4339 -0.9010
vn 0.0000 0.0000 -1.0000
vn -0.0000 -0.4339 -0.9010
vn 0.0000 -0.7818 -0.6235
vn 0.0000 -0.9749 -0.2225
vn -0.0000 -0.9749 0.2225
vn 0.0000 -0.7818 0.6235
vn 0.0000 -0.4339 0.9010
vn 0.0000 -0.0000 1.0000
vn 0.0000 0.4339 0.9010
vn 1.0000 0.0000 -0.0000
vn 1.0000 -0.0000 -0.0000
vn 0.0000 0.7818 0.6235
vn 0.0000 0.9749 0.2225
vn -1.0000 -0.0000 0.0000
vn -1.0000 -0.0000 -0.0000
vn -1.0000 0.0000 0.0000
# 19 vertex normals

vt 0.8483 0.2017 0.0000
vt 0.8858 0.1931 0.0000
vt 0.9158 0.1692 0.0000
vt 0.9324 0.1346 0.0000
vt 0.9324 0.0962 0.0000
vt 0.9158 0.0617 0.0000
vt 0.8858 0.0377 0.0000
vt 0.8483 0.0292 0.0000
vt 0.8109 0.0377 0.0000
vt 0.7809 0.0617 0.0000
vt 0.7642 0.0962 0.0000
vt 0.7642 0.1346 0.0000
vt 0.7809 0.1692 0.0000
vt 0.8109 0.1931 0.0000
# 14 texture coords

g FL
usemtl SPW_Vehicle_Land_Truck_Container
s off
f 261/139/176 262/139/176 263/140/176 264/140/176 
f 264/140/177 263/140/177 265/141/177 266/141/177 
f 266/141/178 265/141/178 267/142/178 268/142/178 
f 268/142/179 267/142/179 269/143/179 270/143/179 
f 270/143/180 269/143/180 271/144/180 272/144/180 
f 272/144/181 271/144/181 273/145/181 274/145/181 
f 274/145/182 273/145/182 275/146/182 276/146/182 
f 276/146/183 275/146/183 277/147/183 278/147/183 
f 278/147/184 277/147/184 279/148/184 280/148/184 
f 280/148/185 279/148/185 281/149/185 282/149/185 
f 282/149/186 281/149/186 283/150/186 284/150/186 
f 284/150/187 283/150/187 285/151/187 286/151/187 
f 263/140/188 262/139/188 287/152/188 285/151/188 
f 263/140/188 285/151/188 283/150/188 281/149/188 
f 263/140/189 281/149/189 279/148/189 277/147/189 
f 263/140/188 277/147/188 275/146/188 273/145/188 
f 263/140/188 273/145/188 271/144/188 269/143/188 
f 263/140/188 269/143/188 267/142/188 265/141/188 
f 286/151/190 285/151/190 287/152/190 288/152/190 
f 288/152/191 287/152/191 262/139/191 261/139/191 
f 261/139/192 264/140/192 266/141/192 268/142/192 
f 261/139/193 268/142/193 270/143/193 272/144/193 
f 261/139/193 272/144/193 274/145/193 276/146/193 
f 261/139/193 276/146/193 278/147/193 280/148/193 
f 261/139/194 280/148/194 282/149/194 284/150/194 
f 261/139/193 284/150/193 286/151/193 288/152/193 
# 26 polygons

#
# object Body
#

v  69.6059 42.8801 -4.3909
v  69.6059 93.0254 -4.3909
v  75.0330 93.0254 -2.1430
v  75.0330 42.8801 -2.1430
v  77.2809 42.8801 3.2841
v  75.0330 42.8801 8.7112
v  69.6059 42.8801 10.9591
v  64.1788 42.8801 8.7112
v  61.9309 42.8801 3.2841
v  64.1788 42.8801 -2.1430
v  64.1788 93.0254 -2.1430
v  77.2809 93.0254 3.2841
v  75.0330 93.0254 8.7112
v  69.6059 93.0254 10.9591
v  64.1788 93.0254 8.7112
v  61.9309 93.0254 3.2841
v  69.6059 93.0254 -1.3266
v  72.8662 93.0254 0.0238
v  66.3456 93.0254 0.0238
v  64.9952 93.0254 3.2841
v  74.2166 93.0254 3.2841
v  72.8662 93.0254 6.5444
v  69.6059 93.0254 7.8948
v  66.3456 93.0254 6.5444
v  72.8662 167.8815 0.5500
v  74.2166 164.7911 3.2841
v  69.6059 169.3496 -0.5825
v  66.3456 167.8815 0.5500
v  64.9952 164.7911 3.2841
v  69.6059 160.7763 7.1507
v  66.3456 161.9171 6.0182
v  69.6059 168.6799 0.3633
v  72.0687 167.6176 1.2188
v  67.1431 167.6176 1.2188
v  72.8662 161.9171 6.0182
v  73.0889 165.2242 3.2841
v  66.1230 165.2242 3.2841
v  67.1431 162.9761 5.3495
v  72.0687 162.9761 5.3495
v  69.6059 162.0779 6.2050
v  69.6059 151.1659 0.3633
v  72.0687 150.5602 1.2188
v  67.1431 150.5602 1.2188
v  66.1230 149.0978 3.2841
v  67.1431 147.6355 5.3495
v  69.6059 147.0298 6.2049
v  73.0889 149.0978 3.2841
v  72.0687 147.6355 5.3495
v  -69.5853 43.1575 -4.4293
v  -69.5853 93.1085 -4.4293
v  -64.1311 93.1085 -2.1701
v  -64.1311 43.1575 -2.1702
v  -61.8719 43.1575 3.2840
v  -64.1311 43.1575 8.7382
v  -69.5853 43.1575 10.9974
v  -75.0395 43.1575 8.7382
v  -77.2987 43.1575 3.2840
v  -75.0395 43.1575 -2.1702
v  -75.0395 93.1085 -2.1701
v  -61.8719 93.1085 3.2841
v  -64.1311 93.1085 8.7383
v  -69.5853 93.1085 10.9975
v  -75.0395 93.1085 8.7383
v  -77.2987 93.1085 3.2841
v  -69.5853 93.1085 -1.3497
v  -66.3087 93.1085 0.0075
v  -72.8619 93.1085 0.0075
v  -74.2191 93.1085 3.2841
v  -64.9515 93.1085 3.2841
v  -69.5853 169.1369 -0.6019
v  -66.3087 167.6746 0.5363
v  -66.3087 93.1085 6.5606
v  -69.5853 93.1085 7.9178
v  -72.8619 93.1085 6.5606
v  -74.2191 164.5961 3.2841
v  -72.8619 167.6746 0.5363
v  -64.9515 164.5961 3.2841
v  -66.3087 161.7332 6.0318
v  -69.5853 160.5968 7.1700
v  -72.8619 161.7332 6.0318
v  -72.0604 167.4116 1.2084
v  -69.5853 168.4699 0.3486
v  -73.0857 165.0275 3.2841
v  -72.0604 162.7881 5.3597
v  -67.1102 167.4116 1.2084
v  -66.0849 165.0275 3.2841
v  -67.1102 162.7881 5.3597
v  -69.5853 161.8935 6.2195
v  -69.5853 151.0237 0.3486
v  -67.1102 150.4203 1.2084
v  -72.0604 150.4203 1.2084
v  -73.0857 148.9637 3.2841
v  -72.0604 147.5070 5.3597
v  -69.5853 146.9037 6.2195
v  -66.0849 148.9637 3.2841
v  -67.1102 147.5070 5.3597
v  -66.6851 76.7511 95.8646
v  -66.6851 79.7477 95.8646
v  -60.8735 79.7477 98.2719
v  -60.8735 76.7511 98.2719
v  -58.4662 76.7511 104.0836
v  -60.8735 76.7511 109.8952
v  -66.6851 76.7511 112.3025
v  -72.4968 76.7511 109.8952
v  -74.9041 76.7511 104.0836
v  -72.4968 76.7511 98.2719
v  -72.4968 79.7477 98.2719
v  -74.9041 79.7477 104.0836
v  -72.4968 79.7477 109.8952
v  -66.6851 79.7477 112.3025
v  -60.8735 79.7477 109.8952
v  -58.4662 79.7477 104.0836
v  -66.6851 96.3275 95.8646
v  -66.6851 99.3241 95.8646
v  -60.8735 99.3241 98.2719
v  -60.8735 96.3275 98.2719
v  -58.4662 96.3275 104.0836
v  -60.8735 96.3275 109.8952
v  -66.6851 96.3275 112.3025
v  -72.4968 96.3275 109.8952
v  -74.9041 96.3275 104.0836
v  -72.4968 96.3275 98.2719
v  -72.4968 99.3241 98.2719
v  -74.9041 99.3241 104.0836
v  -72.4968 99.3241 109.8952
v  -66.6851 99.3241 112.3025
v  -60.8735 99.3241 109.8952
v  -58.4662 99.3241 104.0836
v  -66.6851 70.4477 97.2039
v  -66.6851 105.6276 97.2039
v  -61.8205 105.6276 99.2189
v  -61.8205 70.4477 99.2189
v  -59.8055 70.4477 104.0836
v  -61.8205 70.4477 108.9482
v  -66.6851 70.4477 110.9632
v  -71.5498 70.4477 108.9482
v  -73.5648 70.4477 104.0836
v  -71.5498 70.4477 99.2189
v  -71.5498 105.6276 99.2189
v  -73.5648 105.6276 104.0836
v  -71.5498 105.6276 108.9482
v  -66.6851 105.6276 110.9632
v  -61.8205 105.6276 108.9482
v  -59.8055 105.6276 104.0836
v  66.6834 76.7511 95.8646
v  66.6834 79.7477 95.8646
v  72.4950 79.7477 98.2719
v  72.4950 76.7511 98.2719
v  74.9023 76.7511 104.0836
v  72.4950 76.7511 109.8952
v  66.6834 76.7511 112.3025
v  60.8717 76.7511 109.8952
v  58.4644 76.7511 104.0836
v  60.8717 76.7511 98.2719
v  60.8717 79.7477 98.2719
v  58.4644 79.7477 104.0836
v  60.8717 79.7477 109.8952
v  66.6834 79.7477 112.3025
v  72.4950 79.7477 109.8952
v  74.9023 79.7477 104.0836
v  66.6834 96.3275 95.8646
v  66.6834 99.3241 95.8646
v  72.4950 99.3241 98.2719
v  72.4950 96.3275 98.2719
v  74.9023 96.3275 104.0836
v  72.4950 96.3275 109.8952
v  66.6834 96.3275 112.3025
v  60.8717 96.3275 109.8952
v  58.4644 96.3275 104.0836
v  60.8717 96.3275 98.2719
v  60.8717 99.3241 98.2719
v  58.4644 99.3241 104.0836
v  60.8717 99.3241 109.8952
v  66.6834 99.3241 112.3025
v  72.4950 99.3241 109.8952
v  74.9023 99.3241 104.0836
v  66.6834 70.4477 97.2039
v  66.6834 105.6276 97.2039
v  71.5480 105.6276 99.2189
v  71.5480 70.4477 99.2189
v  73.5630 70.4477 104.0836
v  71.5480 70.4477 108.9482
v  66.6834 70.4477 110.9632
v  61.8187 70.4477 108.9482
v  59.8037 70.4477 104.0836
v  61.8187 70.4477 99.2189
v  61.8187 105.6276 99.2189
v  59.8037 105.6276 104.0835
v  61.8187 105.6276 108.9482
v  66.6834 105.6276 110.9632
v  71.5480 105.6276 108.9482
v  73.5630 105.6276 104.0835
v  -65.3051 135.6467 76.4416
v  -72.8320 135.6467 75.0068
v  -72.8320 111.3392 75.0068
v  -65.3051 111.3392 76.4416
v  -73.2981 136.7480 71.9692
v  -73.2981 110.2380 71.9692
v  -63.9061 136.7480 73.7596
v  -63.9061 110.2380 73.7596
v  -69.4764 142.8479 74.0077
v  -68.1970 142.8479 74.0077
v  -68.1970 141.4647 74.0077
v  -69.4764 141.4647 74.0077
v  -68.1970 141.4647 75.3909
v  -61.1613 141.4647 74.0077
v  -61.1613 141.4647 75.3909
v  -68.1970 142.8479 75.3909
v  -69.4764 142.8479 75.3909
v  -69.4764 141.4647 75.3909
v  -69.4764 105.0831 74.0077
v  -69.4764 105.0831 75.3908
v  -61.1613 142.8479 74.0077
v  -61.1613 142.8479 75.3909
v  -69.4764 103.6124 74.0077
v  -69.4764 103.6124 75.3908
v  -68.1970 105.0831 75.3908
v  -68.1970 105.0831 74.0077
v  -68.1970 103.6124 74.0077
v  -68.1970 103.6124 75.3908
v  -61.1711 105.0831 74.0077
v  -61.1711 103.6124 74.0077
v  -61.1711 105.0831 75.3908
v  -61.1711 103.6124 75.3908
v  72.8160 135.6467 75.0721
v  65.2891 135.6467 76.5068
v  65.2891 111.3392 76.5068
v  72.8160 111.3393 75.0721
v  63.8902 136.7480 73.8248
v  63.8902 110.2380 73.8248
v  73.2821 136.7480 72.0345
v  73.2821 110.2380 72.0345
v  69.4602 142.8479 75.3909
v  68.1808 142.8479 75.3909
v  68.1808 141.4647 75.3909
v  69.4602 141.4647 75.3909
v  68.1808 141.4647 74.0077
v  61.1450 141.4647 75.3909
v  61.1450 141.4647 74.0077
v  68.1808 142.8479 74.0077
v  69.4602 142.8479 74.0077
v  69.4602 141.4647 74.0077
v  69.4602 105.0831 75.3908
v  69.4602 105.0831 74.0077
v  61.1450 142.8479 75.3909
v  61.1450 142.8479 74.0077
v  69.4602 103.6124 75.3908
v  69.4602 103.6124 74.0077
v  68.1808 105.0831 74.0077
v  68.1808 105.0831 75.3908
v  68.1808 103.6124 75.3908
v  68.1808 103.6124 74.0077
v  61.1549 105.0831 75.3909
v  61.1549 103.6124 75.3908
v  61.1549 105.0831 74.0077
v  61.1549 103.6124 74.0077
v  -62.3991 95.5776 29.6046
v  -62.3991 95.5776 18.4984
v  -62.3991 92.9793 18.4984
v  -62.3991 92.9793 29.6046
v  -59.9956 95.5776 29.6046
v  -59.9956 92.9793 29.6046
v  -59.9956 95.5776 18.4984
v  -59.9956 92.9793 18.4984
v  59.9937 95.5776 29.6046
v  59.9937 95.5776 18.4984
v  59.9937 92.9793 18.4984
v  59.9937 92.9793 29.6046
v  62.3972 95.5776 29.6046
v  62.3972 92.9793 29.6046
v  62.3972 95.5776 18.4984
v  62.3972 92.9793 18.4984
v  1.5468 89.1541 178.9092
v  1.5468 89.1541 175.1876
v  -1.5487 89.1541 175.1876
v  -1.5487 89.1541 178.9092
v  1.5468 37.2819 178.9092
v  -1.5487 37.2819 178.9092
v  1.5468 37.2819 175.1876
v  -1.5487 37.2819 175.1876
v  -41.9263 47.5093 178.9092
v  -41.9263 47.5093 175.1876
v  -41.9263 44.1629 175.1876
v  -41.9263 44.1629 178.9092
v  41.9245 47.5093 178.9092
v  41.9245 44.1629 178.9092
v  41.9245 47.5093 175.1876
v  41.9245 44.1629 175.1876
v  -41.9263 64.1757 178.9092
v  -41.9263 64.1757 175.1876
v  -41.9263 60.8293 175.1876
v  -41.9263 60.8293 178.9092
v  41.9245 64.1757 178.9092
v  41.9245 60.8293 178.9092
v  41.9245 64.1757 175.1876
v  41.9245 60.8293 175.1876
v  -41.9263 72.5137 178.9092
v  -41.9263 72.5137 175.1876
v  -41.9263 69.1672 175.1876
v  -41.9263 69.1672 178.9092
v  41.9245 72.5137 178.9092
v  41.9245 69.1672 178.9092
v  41.9245 72.5137 175.1876
v  41.9245 69.1672 175.1876
v  -41.9263 80.4582 178.9092
v  -41.9263 80.4581 175.1876
v  -41.9263 77.1117 175.1876
v  -41.9263 77.1117 178.9092
v  41.9245 80.4582 178.9092
v  41.9245 77.1117 178.9092
v  41.9245 80.4581 175.1876
v  41.9245 77.1117 175.1876
v  -41.9263 88.6553 178.9092
v  -41.9263 88.6553 175.1876
v  -41.9263 85.3089 175.1876
v  -41.9263 85.3089 178.9092
v  41.9245 88.6553 178.9092
v  41.9245 85.3089 178.9092
v  41.9245 88.6553 175.1876
v  41.9245 85.3089 175.1876
v  77.3858 45.3297 -361.3282
v  77.3858 45.3297 -346.6173
v  77.3858 21.7402 -346.6173
v  77.3858 21.7402 -361.3282
v  45.0701 45.3297 -362.9533
v  45.0701 21.7402 -362.9533
v  45.0701 45.3297 -348.2425
v  45.0701 21.7402 -348.2425
v  -45.0721 45.3297 -362.9533
v  -45.0721 21.7402 -362.9533
v  -45.0721 45.3296 -348.2425
v  -45.0721 21.7402 -348.2425
v  -77.3878 45.3297 -361.3282
v  -77.3878 21.7402 -361.3282
v  -77.3878 45.3296 -346.6173
v  -77.3878 21.7402 -346.6173
v  -77.0197 62.4722 -7.7998
v  -77.0198 62.4722 -359.1778
v  -77.0198 45.7399 -359.1778
v  -77.0197 45.7399 -7.7998
v  77.0179 62.4722 -7.7998
v  77.0179 45.7399 -7.7998
v  68.0024 62.4722 -17.6684
v  -68.0043 62.4722 -17.6684
v  77.0178 62.4722 -359.1778
v  77.0178 45.7399 -359.1778
v  -77.3878 43.4526 59.5892
v  -77.3878 43.4526 -5.1372
v  -77.3878 21.7456 -5.1373
v  -77.3878 21.7456 59.5892
v  -77.3877 67.4582 94.3675
v  -77.3877 21.7456 94.3675
v  -44.8182 43.4526 59.5892
v  -44.8182 43.4526 -5.1373
v  -44.8182 21.7456 -5.1373
v  -44.8182 21.7456 59.5891
v  -77.3877 21.7456 113.9048
v  -77.3877 27.3305 113.9048
v  -77.3877 37.3942 118.7512
v  -77.3877 44.3585 127.4841
v  -77.3877 46.8440 138.3739
v  -77.3877 44.8559 174.5923
v  -77.3877 27.3305 162.8431
v  -77.3877 21.7456 162.8431
v  -77.3877 21.7456 174.5923
v  -77.3877 37.3942 157.9967
v  -77.3877 44.3585 149.2637
v  -77.3877 67.4582 174.5923
v  -44.8182 67.4582 94.3675
v  -44.8182 21.7456 94.3675
v  -41.0765 43.4526 59.5892
v  -41.0765 43.4526 -5.1373
v  -56.6035 43.4526 -5.1373
v  -56.6035 21.7456 -5.1373
v  -41.0765 21.7456 -5.1373
v  -41.0765 21.7456 59.5891
v  -44.8182 67.4582 177.9196
v  -44.8182 44.8559 177.9196
v  -44.8182 21.7456 113.9048
v  -44.1664 21.7456 113.9048
v  -44.1664 27.3305 113.9048
v  -44.1664 37.3942 118.7512
v  -44.1664 44.3585 127.4841
v  -44.1664 46.8440 138.3739
v  -44.1664 44.3585 149.2637
v  -44.1664 37.3942 157.9967
v  -44.1664 27.3305 162.8431
v  -44.1664 21.7456 162.8431
v  -44.8182 21.7456 162.8431
v  -44.8182 21.7456 177.9196
v  -41.0765 67.4582 94.3675
v  -41.0765 21.7456 94.3675
v  41.0746 43.4526 59.5891
v  41.0746 43.4526 -5.1373
v  -41.0765 45.7014 -5.1372
v  -44.8182 45.7014 -5.1372
v  -44.8183 21.7457 -359.3132
v  -56.6035 21.7457 -359.3132
v  -56.6035 45.7014 -5.1373
v  -56.6035 43.4526 -359.3132
v  -41.0766 21.7457 -359.3132
v  41.0746 21.7456 -5.1373
v  41.0746 21.7456 59.5891
v  -41.0765 67.4582 177.9196
v  -41.0765 44.8559 177.9197
v  -41.0765 21.7456 177.9196
v  41.0747 67.4582 94.3675
v  41.0747 21.7456 94.3675
v  44.8163 43.4526 59.5891
v  44.8163 43.4526 -5.1373
v  41.0746 45.7014 -5.1373
v  -41.0766 45.7014 -359.3132
v  -44.8183 45.7014 -359.3132
v  -44.8183 43.4526 -359.3132
v  -56.6035 45.7014 -359.3132
v  41.0746 21.7457 -359.3132
v  -41.0766 43.4526 -359.3132
v  44.8163 21.7456 -5.1373
v  44.8163 21.7456 59.5891
v  41.0747 67.4582 177.9196
v  41.0747 44.8559 177.9197
v  41.0747 21.7456 177.9196
v  44.8163 67.4582 94.3675
v  44.8163 21.7456 94.3675
v  77.3859 43.4526 59.5891
v  77.3859 43.4526 -5.1373
v  44.8163 45.7014 -5.1373
v  41.0746 45.7014 -359.3132
v  44.8163 21.7457 -359.3132
v  41.0746 43.4526 -359.3132
v  77.3859 21.7456 -5.1373
v  77.3859 21.7456 59.5891
v  44.8163 67.4582 177.9196
v  44.8163 44.8559 177.9196
v  44.1645 21.7456 113.9048
v  44.8163 21.7456 113.9048
v  44.1645 21.7456 162.8431
v  44.8163 21.7456 162.8431
v  44.8163 21.7456 177.9196
v  77.3859 67.4582 94.3675
v  77.3859 21.7456 94.3675
v  56.6016 43.4526 -5.1373
v  56.6016 45.7014 -5.1373
v  44.8163 45.7014 -359.3132
v  56.6016 21.7457 -359.3132
v  56.6016 21.7456 -5.1373
v  44.8163 43.4526 -359.3132
v  77.3859 67.4582 174.5923
v  77.3859 44.8559 174.5923
v  77.3859 21.7456 113.9048
v  44.1645 27.3305 113.9048
v  77.3859 27.3305 113.9048
v  44.1645 37.3942 118.7512
v  44.1645 44.3585 127.4841
v  44.1645 46.8440 138.3739
v  44.1645 44.3585 149.2637
v  44.1645 37.3942 157.9967
v  44.1645 27.3305 162.8431
v  77.3859 27.3305 162.8431
v  77.3859 21.7456 162.8431
v  77.3859 21.7456 174.5923
v  56.6016 45.7014 -359.3132
v  56.6016 43.4526 -359.3132
v  77.3859 44.3585 149.2637
v  77.3859 37.3942 157.9967
v  77.3859 46.8440 138.3739
v  77.3859 44.3585 127.4841
v  77.3859 37.3942 118.7512
v  42.1379 41.5280 -124.0755
v  42.1379 41.5280 -224.2241
v  42.1379 8.0634 -224.2241
v  42.1379 8.0634 -124.0755
v  73.0926 41.5280 -124.0755
v  73.0926 8.0634 -124.0755
v  73.0926 41.5280 -224.2241
v  73.0926 8.0634 -224.2241
v  -73.0945 41.5280 -124.0755
v  -73.0945 41.5280 -224.2241
v  -73.0945 8.0634 -224.2241
v  -73.0945 8.0634 -124.0755
v  -42.1398 41.5280 -124.0755
v  -42.1398 8.0634 -124.0755
v  -42.1398 41.5280 -224.2241
v  -42.1398 8.0634 -224.2241
v  68.0024 62.4722 -349.3091
v  -68.0043 62.4722 -349.3091
v  -35.4705 89.1541 178.9092
v  -35.4705 89.1541 175.1876
v  -38.5660 89.1541 175.1876
v  -38.5660 89.1541 178.9092
v  -35.4705 37.2819 178.9092
v  -38.5660 37.2819 178.9092
v  -35.4705 37.2819 175.1876
v  -38.5660 37.2819 175.1876
v  38.5715 89.1541 178.9092
v  38.5715 89.1541 175.1876
v  35.4760 89.1541 175.1876
v  35.4760 89.1541 178.9092
v  38.5715 37.2819 178.9092
v  35.4760 37.2819 178.9092
v  38.5715 37.2819 175.1876
v  35.4760 37.2819 175.1876
v  -41.9263 56.0243 178.9092
v  -41.9263 56.0243 175.1876
v  -41.9263 52.6778 175.1876
v  -41.9263 52.6778 178.9092
v  41.9245 56.0243 178.9092
v  41.9245 52.6778 178.9092
v  41.9245 56.0243 175.1876
v  41.9245 52.6778 175.1876
v  -0.0009 21.7456 -5.1373
v  -0.0009 21.7456 95.2564
v  -61.9104 21.7456 95.2564
v  -61.9104 21.7456 -5.1373
v  -0.0009 48.0468 -5.1373
v  -61.9104 48.0468 -5.1372
v  61.9085 21.7456 -5.1373
v  61.9085 21.7456 95.2564
v  -0.0009 21.7456 178.9178
v  -45.0800 21.7456 178.9178
v  -61.9104 48.0468 95.2564
v  -0.0009 102.2315 -5.1373
v  -61.9104 102.2315 -5.1372
v  61.9085 48.0468 -5.1373
v  61.9085 48.0468 95.2564
v  45.0781 21.7456 178.9178
v  -45.0800 40.4627 178.9178
v  -0.0009 40.4696 178.9178
v  -61.9104 102.2315 95.2564
v  -61.9104 144.0623 -5.1372
v  -0.0009 144.0623 -5.1372
v  -0.0009 135.9363 -5.1372
v  -41.7436 135.9363 -5.1372
v  -41.7436 112.0499 -5.1372
v  -0.0009 112.0499 -5.1373
v  61.9085 102.2315 -5.1372
v  61.9085 102.2315 95.2564
v  45.0781 40.4627 178.9178
v  -45.0800 93.8654 178.9178
v  -0.0009 44.2199 178.9178
v  -38.5323 44.2139 178.9178
v  -61.9104 105.6238 89.9758
v  -61.9104 105.6238 8.7306
v  -61.9104 141.0694 8.7306
v  41.7418 112.0499 -5.1372
v  41.7418 135.9363 -5.1372
v  61.9085 144.0623 -5.1372
v  -61.9104 144.0623 76.0910
v  -0.0010 144.0623 76.0910
v  61.9085 141.0694 8.7306
v  61.9085 105.6238 8.7306
v  61.9085 105.6238 89.9758
v  45.0781 93.8654 178.9178
v  38.5304 44.2139 178.9178
v  -0.0010 99.4109 178.9178
v  -0.0010 102.2315 95.2564
v  -38.5323 88.6397 178.9178
v  -0.0009 44.2199 177.9893
v  -38.5323 44.2139 177.9893
v  -61.9104 141.0694 73.7718
v  -61.2035 105.6238 89.9758
v  -61.2035 105.6238 8.7306
v  -61.2035 141.0694 8.7306
v  61.9085 144.0623 76.0910
v  -57.7112 141.0996 77.4484
v  -1.1725 141.0996 77.4484
v  -57.7112 105.4535 93.7802
v  61.9085 141.0693 73.7717
v  61.2017 141.0694 8.7306
v  61.2017 105.6238 8.7306
v  61.2017 105.6238 89.9758
v  38.5304 88.6397 178.9178
v  38.5304 44.2139 177.9893
v  -1.1725 105.4535 93.7802
v  -0.0010 88.6244 178.9178
v  -38.5323 88.6397 177.9892
v  -0.0010 88.6244 177.9893
v  -61.2035 141.0694 73.7718
v  61.2017 141.0693 73.7717
v  57.7093 105.4535 93.7803
v  1.1706 105.4535 93.7802
v  57.7093 141.0996 77.4484
v  38.5304 88.6397 177.9893
v  -57.7112 105.0932 93.0032
v  -57.7112 140.6644 76.5098
v  -1.1725 140.6644 76.5098
v  -1.1725 105.0932 93.0032
v  1.1706 141.0996 77.4484
v  1.1706 140.6644 76.5098
v  57.7093 140.6644 76.5098
v  57.7093 105.0932 93.0032
v  1.1706 105.0932 93.0032
v  -41.7436 135.9363 -4.3260
v  -41.7436 112.0499 -4.3260
v  41.7418 112.0499 -4.3260
v  41.7418 135.9363 -4.3260
v  -77.4910 37.9983 179.7892
v  -77.4910 37.9983 164.6252
v  -77.4910 21.5923 164.6252
v  -77.4910 21.5923 179.7892
v  -45.1322 37.9982 183.4863
v  -45.1322 21.5923 183.4863
v  -45.1322 37.9983 168.3222
v  -45.1322 21.5923 168.3222
v  45.1303 37.9982 183.4863
v  45.1303 21.5923 183.4863
v  45.1303 37.9983 168.3222
v  45.1303 21.5923 168.3222
v  77.4892 37.9983 179.7892
v  77.4892 21.5923 179.7892
v  77.4892 37.9983 164.6252
v  77.4892 21.5923 164.6252
# 612 vertices

vn 0.3827 0.0000 -0.9239
vn -0.0000 -1.0000 -0.0000
vn 0.0000 -1.0000 -0.0000
vn -0.3827 0.0000 -0.9239
vn 1.0000 0.0000 -0.0000
vn 0.9239 0.0000 -0.3827
vn 0.9239 -0.0000 0.3827
vn 0.3827 -0.0000 0.9239
vn -0.3827 -0.0000 0.9239
vn -0.9239 -0.0000 0.3827
vn -0.9239 0.0000 -0.3827
vn 0.0000 1.0000 0.0000
vn -0.0000 1.0000 0.0000
vn 0.9120 0.0015 -0.4102
vn 0.3574 0.0078 -0.9339
vn -0.3574 0.0078 -0.9339
vn -0.9120 0.0015 -0.4102
vn -0.3545 0.0087 0.9350
vn -0.9114 0.0015 0.4114
vn 0.1679 0.8152 0.5543
vn -0.1679 0.8152 0.5543
vn 0.9114 0.0015 0.4114
vn 0.3545 0.0087 0.9350
vn 0.2889 0.6982 0.6551
vn -0.2889 0.6982 0.6551
vn -0.2120 0.6142 0.7602
vn 0.2120 0.6142 0.7602
vn 0.0751 0.5801 0.8111
vn -0.0751 0.5801 0.8111
vn -0.3281 -0.0000 0.9446
vn 0.3281 -0.0000 0.9446
vn 0.8966 -0.0000 0.4429
vn 0.8966 0.0000 -0.4429
vn 0.3281 0.0000 -0.9446
vn -0.8966 -0.0000 0.4429
vn 0.0000 0.8161 0.5779
vn 0.0000 0.8161 0.5778
vn -0.8966 0.0000 -0.4429
vn -0.3281 0.0000 -0.9446
vn 0.0000 1.0000 -0.0000
vn -0.0000 1.0000 -0.0000
vn 0.3574 0.0079 -0.9339
vn -0.3574 0.0079 -0.9339
vn 0.9114 0.0016 0.4114
vn 0.3545 0.0088 0.9350
vn -0.9114 0.0016 0.4114
vn -0.1669 0.8176 0.5510
vn -0.2876 0.7013 0.6522
vn -0.3545 0.0088 0.9350
vn -0.2112 0.6176 0.7576
vn 0.2876 0.7013 0.6522
vn 0.1669 0.8176 0.5510
vn 0.2112 0.6176 0.7576
vn 0.0749 0.5835 0.8087
vn -0.0749 0.5835 0.8087
vn -0.3281 0.0000 0.9446
vn 0.3281 0.0000 0.9446
vn -0.0000 0.8185 0.5744
vn 0.0000 0.8186 0.5744
vn 0.0000 0.8185 0.5744
vn -0.0000 -1.0000 0.0000
vn 0.0000 -1.0000 0.0000
vn 0.9239 -0.0000 -0.3827
vn 0.9239 0.0000 0.3827
vn 0.3827 0.0000 0.9239
vn -0.3827 0.0000 0.9239
vn -0.9239 0.0000 0.3827
vn -0.9239 -0.0000 -0.3827
vn -0.1873 -0.0000 0.9823
vn -0.9884 -0.0000 0.1517
vn 0.1873 0.0000 -0.9823
vn 0.8866 -0.0000 0.4625
vn -0.0665 -0.9347 0.3491
vn -0.0665 0.9347 0.3491
vn 0.0000 0.0000 -1.0000
vn 0.0000 -0.0000 1.0000
vn -1.0000 0.0000 -0.0000
vn -0.0000 0.0000 -1.0000
vn 0.1873 -0.0000 0.9823
vn -0.8866 -0.0000 0.4625
vn -0.1873 0.0000 -0.9823
vn 0.9884 -0.0000 0.1517
vn 0.0665 -0.9347 0.3491
vn 0.0665 0.9347 0.3491
vn -1.0000 -0.0000 0.0000
vn 0.0502 0.0000 -0.9987
vn -0.0502 -0.0000 0.9987
vn -0.0502 0.0000 -0.9987
vn 0.0502 -0.0000 0.9987
vn -1.0000 0.0000 0.0000
vn -1.0000 -0.0000 -0.0000
vn -0.0000 0.8230 -0.5681
vn -0.0000 -0.0000 1.0000
vn -0.1016 -0.0000 0.9948
vn -0.1016 0.0000 0.9948
vn 0.0000 -0.4339 0.9010
vn 0.0000 -0.7818 0.6235
vn 0.0000 -0.9749 0.2225
vn 0.0000 -0.9749 -0.2225
vn 0.0000 -0.7818 -0.6235
vn 0.0000 -0.4339 -0.9010
vn -0.0000 0.0000 1.0000
vn 0.0000 0.8230 -0.5681
vn 0.0000 0.0000 1.0000
vn 0.1016 -0.0000 0.9948
vn 1.0000 0.0000 0.0000
vn 1.0000 -0.0000 -0.0000
vn -0.0000 -0.7818 -0.6235
vn -0.0000 -0.4339 -0.9010
vn 1.0000 -0.0000 0.0000
vn -0.9804 -0.0000 0.1972
vn 0.0000 -0.0000 -1.0000
vn 0.9804 0.0000 0.1972
vn -0.6176 0.2798 0.7350
vn -0.9804 0.0000 0.1972
vn -0.0000 -0.0000 -1.0000
vn -0.0516 0.9961 0.0718
vn -0.0002 1.0000 0.0000
vn 0.0000 0.4165 0.9091
vn -0.0000 0.4165 0.9091
vn 0.0516 0.9961 0.0718
vn 0.0002 1.0000 0.0000
vn 0.0000 -0.4158 -0.9095
vn -0.0004 -1.0000 -0.0000
vn 0.0000 -0.9072 0.4207
vn 0.0004 -1.0000 -0.0000
vn 0.0000 0.9072 -0.4207
vn 0.0000 0.4207 0.9072
vn -0.0000 0.9072 -0.4206
vn -0.1135 -0.0000 0.9935
vn 0.1135 0.0000 -0.9935
vn 0.1135 -0.0000 0.9935
vn -0.1135 0.0000 -0.9935
# 133 vertex normals

vt 0.4378 0.0781 0.0000
vt 0.4878 0.0781 0.0000
vt 0.4878 0.1281 0.0000
vt 0.4378 0.1281 0.0000
vt 0.4628 0.1281 0.0000
vt 0.4805 0.1208 0.0000
vt 0.4878 0.1031 0.0000
vt 0.4805 0.0855 0.0000
vt 0.4628 0.0781 0.0000
vt 0.4451 0.0855 0.0000
vt 0.4378 0.1031 0.0000
vt 0.4451 0.1208 0.0000
vt 0.4378 0.0782 0.0000
vt 0.3374 0.1277 0.0000
vt 0.3390 0.1277 0.0000
vt 0.3390 0.0994 0.0000
vt 0.3374 0.0994 0.0000
vt 0.3426 0.1289 0.0000
vt 0.3426 0.0982 0.0000
vt 0.3405 0.1289 0.0000
vt 0.3405 0.0982 0.0000
vt 0.3402 0.1360 0.0000
vt 0.3402 0.1344 0.0000
vt 0.3386 0.1344 0.0000
vt 0.3386 0.1360 0.0000
vt 0.3402 0.0922 0.0000
vt 0.3386 0.0922 0.0000
vt 0.3402 0.0905 0.0000
vt 0.3386 0.0905 0.0000
vt 0.3389 0.1277 0.0000
vt 0.3373 0.1277 0.0000
vt 0.3373 0.0994 0.0000
vt 0.3389 0.0994 0.0000
vt 0.3404 0.1289 0.0000
vt 0.3404 0.0982 0.0000
vt 0.3425 0.1289 0.0000
vt 0.3425 0.0982 0.0000
vt 0.3208 0.1725 0.0000
vt 0.3442 0.1725 0.0000
vt 0.3442 0.1670 0.0000
vt 0.3208 0.1670 0.0000
vt 0.5302 0.1264 0.0000
vt 0.5802 0.1264 0.0000
vt 0.5802 0.1764 0.0000
vt 0.5302 0.1764 0.0000
vt 0.3705 0.3172 0.0000
vt 0.3705 0.3113 0.0000
vt 0.3665 0.3436 0.0000
vt 0.2661 0.3436 0.0000
vt 0.2661 0.2757 0.0000
vt 0.3665 0.2757 0.0000
vt 0.3792 0.3172 0.0000
vt 0.3792 0.3113 0.0000
vt 0.6467 0.3436 0.0000
vt 0.6467 0.2757 0.0000
vt 0.4034 0.3172 0.0000
vt 0.4034 0.3113 0.0000
vt 0.7472 0.3436 0.0000
vt 0.7472 0.2757 0.0000
vt 0.4121 0.3172 0.0000
vt 0.4121 0.3113 0.0000
vt 0.2634 0.9578 0.0000
vt 0.9640 0.9578 0.0000
vt 0.9640 0.9244 0.0000
vt 0.2634 0.9244 0.0000
vt 0.4409 0.5122 0.0000
vt 0.4909 0.5122 0.0000
vt 0.4909 0.5622 0.0000
vt 0.4409 0.5622 0.0000
vt 0.9650 0.9049 0.0000
vt 0.6327 0.9049 0.0000
vt 0.6327 0.8716 0.0000
vt 0.9650 0.8716 0.0000
vt 0.0978 0.7263 0.0000
vt 0.1365 0.7263 0.0000
vt 0.1365 0.7651 0.0000
vt 0.0978 0.7651 0.0000
vt 0.1262 0.7629 0.0000
vt 0.1331 0.7567 0.0000
vt 0.1364 0.7480 0.0000
vt 0.1353 0.7388 0.0000
vt 0.1300 0.7312 0.0000
vt 0.1218 0.7269 0.0000
vt 0.1125 0.7269 0.0000
vt 0.1127 0.7640 0.0000
vt 0.0979 0.7480 0.0000
vt 0.1012 0.7567 0.0000
vt 0.1082 0.7629 0.0000
vt 0.0991 0.7388 0.0000
vt 0.1043 0.7312 0.0000
vt 0.1172 0.7651 0.0000
vt 0.1747 0.9451 0.0000
vt 0.0646 0.9451 0.0000
vt 0.0646 0.8744 0.0000
vt 0.1747 0.8744 0.0000
vt 0.1356 0.7517 0.0000
vt 0.1285 0.7300 0.0000
vt 0.1058 0.7300 0.0000
vt 0.0987 0.7517 0.0000
vt 0.1748 0.8744 0.0000
vt 0.0645 0.8744 0.0000
vt 0.0645 0.8021 0.0000
vt 0.1748 0.8021 0.0000
vt 0.1365 0.7457 0.0000
vt 0.0978 0.7457 0.0000
vt 0.1309 0.7594 0.0000
vt 0.1309 0.7320 0.0000
vt 0.1172 0.7263 0.0000
vt 0.1035 0.7320 0.0000
vt 0.1035 0.7594 0.0000
vt 0.1296 0.7605 0.0000
vt 0.1362 0.7491 0.0000
vt 0.1339 0.7360 0.0000
vt 0.1238 0.7275 0.0000
vt 0.1105 0.7275 0.0000
vt 0.1004 0.7360 0.0000
vt 0.0981 0.7491 0.0000
vt 0.1047 0.7605 0.0000
vt 0.1746 0.9451 0.0000
vt 0.0645 0.9451 0.0000
vt 0.1746 0.8744 0.0000
vt 0.0646 0.8021 0.0000
vt 0.1296 0.7598 0.0000
vt 0.0384 0.4935 0.0000
vt 0.3260 0.4935 0.0000
vt 0.3260 0.3974 0.0000
vt 0.0384 0.3974 0.0000
vt 0.3006 0.0717 0.0000
vt 0.3506 0.0717 0.0000
vt 0.3506 0.1217 0.0000
vt 0.3006 0.1217 0.0000
vt 0.4409 0.5525 0.0000
vt 0.4746 0.5525 0.0000
vt 0.4746 0.5239 0.0000
vt 0.4409 0.5239 0.0000
vt 0.4429 0.5127 0.0000
vt 0.4929 0.5127 0.0000
vt 0.4929 0.5627 0.0000
vt 0.4429 0.5627 0.0000
vt 0.4659 0.5622 0.0000
vt 0.4875 0.5497 0.0000
vt 0.4875 0.5247 0.0000
vt 0.4659 0.5122 0.0000
vt 0.4442 0.5247 0.0000
vt 0.4442 0.5497 0.0000
vt 0.4909 0.5239 0.0000
vt 0.4572 0.5239 0.0000
vt 0.4572 0.5525 0.0000
vt 0.4909 0.5525 0.0000
vt 0.2921 0.0688 0.0000
vt 0.3421 0.0688 0.0000
vt 0.3421 0.1188 0.0000
vt 0.2921 0.1188 0.0000
vt 0.1278 0.0937 0.0000
vt 0.1778 0.0937 0.0000
vt 0.1778 0.1437 0.0000
vt 0.1278 0.1437 0.0000
vt 0.0000 0.0000 0.0000
vt 0.1519 0.1209 0.0000
vt 0.5270 0.3967 0.0000
vt 0.5506 0.3967 0.0000
vt 0.5506 0.4203 0.0000
vt 0.5270 0.4203 0.0000
vt 0.5620 0.4438 0.0000
vt 0.4601 0.4438 0.0000
vt 0.4601 0.3750 0.0000
vt 0.5620 0.3750 0.0000
vt 0.8463 0.4438 0.0000
vt 0.8463 0.3750 0.0000
vt 0.9482 0.4438 0.0000
vt 0.9482 0.3750 0.0000
# 171 texture coords

g Body
usemtl SPW_Vehicle_Land_Truck_Container
s off
f 289/153/195 290/154/195 291/155/195 292/156/195 
f 289/157/196 292/158/196 293/159/196 294/160/196 
f 289/157/197 294/160/197 295/161/197 296/162/197 
f 289/157/197 296/162/197 297/163/197 298/164/197 
f 298/153/198 299/154/198 290/155/198 289/156/198 
s 1
f 290/154/199 290/154/199 291/156/199 291/156/199 
s off
f 292/153/200 291/154/200 300/155/200 293/156/200 
f 293/153/201 300/154/201 301/155/201 294/156/201 
f 294/153/202 301/154/202 302/155/202 295/156/202 
f 295/153/203 302/154/203 303/155/203 296/156/203 
f 296/153/204 303/154/204 304/155/204 297/156/204 
f 297/153/205 304/154/205 299/155/205 298/156/205 
s 1
f 290/156/199 290/156/199 299/154/199 299/154/199 
f 299/156/199 299/156/199 304/154/199 304/154/199 
s 2
f 291/153/206 290/154/206 305/155/206 306/156/206 
f 290/153/206 299/154/206 307/155/206 305/156/206 
s 1
f 300/156/199 300/156/199 291/154/199 291/154/199 
f 301/156/199 301/156/199 300/154/199 300/154/199 
f 302/156/199 302/156/199 301/154/199 301/154/199 
f 303/156/199 303/156/199 302/154/199 302/154/199 
f 304/156/199 304/156/199 303/154/199 303/154/199 
s 2
f 299/153/206 304/154/207 308/155/206 307/156/206 
f 300/153/206 291/154/206 306/155/206 309/156/206 
f 301/153/206 300/154/206 309/155/206 310/156/206 
f 302/153/207 301/154/206 310/155/206 311/156/207 
f 303/153/207 302/154/207 311/155/207 312/156/207 
f 304/153/207 303/154/207 312/155/207 308/156/206 
s off
f 306/154/208 313/155/208 314/156/208 309/153/208 
f 313/156/209 306/153/209 305/154/209 315/155/209 
f 315/156/210 305/153/210 307/154/210 316/155/210 
f 316/156/211 307/153/211 308/154/211 317/155/211 
f 311/154/212 318/155/212 319/156/212 312/153/212 
f 312/154/213 319/155/213 317/156/213 308/153/213 
f 315/154/214 320/155/214 321/156/214 313/165/214 
f 316/154/215 322/155/215 320/156/215 315/165/215 
f 323/156/216 310/153/216 309/154/216 314/155/216 
f 318/156/217 311/153/217 310/154/217 323/155/217 
f 313/154/218 321/155/218 324/156/218 314/153/218 
f 322/156/219 316/165/219 317/154/219 325/155/219 
f 325/156/220 317/153/220 319/154/220 326/155/220 
f 314/154/221 324/155/221 327/156/221 323/153/221 
f 323/154/222 327/155/222 328/156/222 318/153/222 
f 326/156/223 319/153/223 318/154/223 328/155/223 
f 321/153/224 320/154/224 329/155/224 330/156/224 
f 320/153/225 322/154/225 331/155/225 329/156/225 
f 322/153/226 325/154/226 332/155/226 331/156/226 
f 325/153/227 326/154/227 333/155/227 332/156/227 
f 326/153/228 328/154/228 334/155/228 333/156/228 
f 324/153/229 321/154/229 330/155/229 335/156/229 
f 335/164/230 330/157/230 329/158/230 331/159/230 
f 335/164/231 331/159/231 332/160/231 333/161/231 
f 335/164/231 333/161/231 334/162/231 336/163/231 
f 327/153/232 324/154/232 335/155/232 336/156/232 
f 328/153/233 327/154/233 336/155/233 334/156/233 
f 337/153/195 338/154/195 339/155/195 340/156/195 
f 337/157/197 340/158/197 341/159/197 342/160/197 
f 337/157/197 342/160/197 343/161/197 344/162/197 
f 337/157/197 344/162/197 345/163/197 346/164/197 
f 346/153/198 347/154/198 338/155/198 337/156/198 
f 340/153/200 339/154/200 348/155/200 341/156/200 
f 341/153/201 348/154/201 349/155/201 342/156/201 
f 342/153/202 349/154/202 350/155/202 343/156/202 
f 343/153/203 350/154/203 351/155/203 344/156/203 
f 344/153/204 351/154/204 352/155/204 345/156/204 
f 345/153/205 352/154/205 347/155/205 346/156/205 
s 1
f 339/156/199 339/156/199 338/154/199 338/154/199 
f 338/156/199 338/156/199 347/154/199 347/154/199 
f 339/154/199 339/154/199 348/156/199 348/156/199 
f 348/154/199 348/154/199 349/156/199 349/156/199 
f 349/154/199 349/154/199 350/156/199 350/156/199 
f 350/154/199 350/154/199 351/156/199 351/156/199 
f 351/154/199 351/154/199 352/156/199 352/156/199 
f 352/154/199 352/154/199 347/156/199 347/156/199 
s 2
f 339/153/234 338/154/234 353/155/234 354/156/234 
f 338/153/234 347/154/235 355/155/235 353/156/234 
f 347/153/235 352/154/234 356/155/235 355/156/235 
f 348/153/234 339/154/234 354/155/234 357/156/235 
s off
f 353/154/236 358/155/236 359/156/236 354/153/236 
s 2
f 349/153/235 348/154/234 357/155/235 360/156/235 
f 350/153/234 349/154/235 360/155/235 361/156/234 
f 351/153/234 350/154/234 361/155/234 362/156/234 
f 352/153/234 351/154/234 362/155/234 356/156/235 
s off
f 356/154/211 363/155/211 364/156/211 355/153/211 
f 354/154/208 359/155/208 365/156/208 357/153/208 
f 358/156/237 353/153/237 355/154/237 364/155/237 
f 357/154/238 365/155/238 366/156/238 360/153/238 
f 360/154/239 366/155/239 367/156/239 361/153/239 
f 363/156/240 356/153/240 362/154/240 368/155/240 
f 364/154/241 369/155/241 370/156/241 358/165/241 
f 363/154/242 371/155/242 369/156/242 364/165/242 
f 368/156/243 362/153/243 361/154/243 367/155/243 
f 368/154/244 372/155/244 371/156/244 363/153/244 
f 359/154/245 373/155/245 374/156/245 365/153/245 
f 373/156/246 359/165/246 358/154/246 370/155/246 
f 365/154/247 374/155/247 375/156/247 366/153/247 
f 366/154/248 375/155/248 376/156/248 367/153/248 
f 367/154/249 376/155/249 372/156/249 368/153/249 
f 373/153/250 370/154/250 377/155/250 378/156/250 
f 370/153/251 369/154/251 379/155/251 377/156/251 
f 369/153/226 371/154/226 380/155/226 379/156/226 
f 371/153/227 372/154/227 381/155/227 380/156/227 
f 372/153/228 376/154/228 382/155/228 381/156/228 
f 374/153/229 373/154/229 378/155/229 383/156/229 
f 377/158/252 379/159/252 380/160/252 381/161/252 
f 377/158/253 381/161/253 382/162/253 384/163/253 
f 377/158/254 384/163/254 383/164/254 378/157/254 
f 375/153/232 374/154/232 383/155/232 384/156/232 
f 376/153/233 375/154/233 384/155/233 382/156/233 
f 385/153/195 386/154/195 387/155/195 388/156/195 
f 385/157/255 388/158/255 389/159/255 390/160/255 
f 385/157/197 390/160/197 391/161/197 392/162/197 
f 385/157/256 392/162/256 393/163/256 394/164/256 
f 394/153/198 395/154/198 386/155/198 385/156/198 
f 387/157/206 386/158/206 395/159/206 396/160/206 
f 387/157/206 396/160/206 397/161/206 398/162/206 
f 387/157/207 398/162/207 399/163/207 400/164/207 
f 388/153/200 387/154/200 400/155/200 389/156/200 
f 389/153/201 400/154/201 399/155/201 390/156/201 
f 390/153/202 399/154/202 398/155/202 391/156/202 
f 391/153/203 398/154/203 397/155/203 392/156/203 
f 392/153/204 397/154/204 396/155/204 393/156/204 
f 393/153/205 396/154/205 395/155/205 394/156/205 
f 401/153/195 402/154/195 403/155/195 404/156/195 
f 401/157/197 404/158/197 405/159/197 406/160/197 
f 401/157/197 406/160/197 407/161/197 408/162/197 
f 401/157/196 408/162/196 409/163/196 410/164/196 
f 410/153/198 411/154/198 402/155/198 401/156/198 
f 403/157/206 402/158/206 411/159/206 412/160/206 
f 403/157/206 412/160/206 413/161/206 414/162/206 
f 403/157/207 414/162/207 415/163/207 416/164/207 
f 404/153/200 403/154/200 416/155/200 405/156/200 
f 405/153/201 416/154/201 415/155/201 406/156/201 
f 406/153/202 415/154/202 414/155/202 407/156/202 
f 407/153/203 414/154/203 413/155/203 408/156/203 
f 408/153/204 413/154/204 412/155/204 409/156/204 
f 409/153/205 412/154/205 411/155/205 410/156/205 
f 417/153/195 418/154/195 419/155/195 420/156/195 
f 417/157/255 420/158/255 421/159/255 422/160/255 
f 417/157/256 422/160/256 423/161/256 424/162/256 
f 417/157/256 424/162/256 425/163/256 426/164/256 
f 426/153/198 427/154/198 418/155/198 417/156/198 
f 419/157/206 418/158/206 427/159/206 428/160/206 
f 419/157/207 428/160/207 429/161/207 430/162/207 
f 419/157/206 430/162/206 431/163/206 432/164/206 
f 420/153/257 419/154/257 432/155/257 421/156/257 
f 421/153/258 432/154/258 431/155/258 422/156/258 
f 422/153/259 431/154/259 430/155/259 423/156/259 
f 423/153/260 430/154/260 429/155/260 424/156/260 
f 424/153/261 429/154/261 428/155/261 425/156/261 
f 425/153/262 428/154/262 427/155/262 426/156/262 
f 433/153/195 434/154/195 435/155/195 436/156/195 
f 433/157/255 436/158/255 437/159/255 438/160/255 
f 433/157/197 438/160/197 439/161/197 440/162/197 
f 433/157/256 440/162/256 441/163/256 442/164/256 
f 442/153/198 443/154/198 434/155/198 433/156/198 
f 435/157/206 434/158/206 443/159/206 444/160/206 
f 435/157/206 444/160/206 445/161/206 446/162/206 
f 435/157/207 446/162/207 447/163/207 448/164/207 
f 436/153/200 435/154/200 448/155/200 437/156/200 
f 437/153/201 448/154/201 447/155/201 438/156/201 
f 438/153/202 447/154/202 446/155/202 439/156/202 
f 439/153/203 446/154/203 445/155/203 440/156/203 
f 440/153/204 445/154/204 444/155/204 441/156/204 
f 441/153/205 444/154/205 443/155/205 442/156/205 
f 449/153/195 450/154/195 451/155/195 452/156/195 
f 449/157/197 452/158/197 453/159/197 454/160/197 
f 449/157/197 454/160/197 455/161/197 456/162/197 
f 449/157/196 456/162/196 457/163/196 458/164/196 
f 458/153/198 459/154/198 450/155/198 449/156/198 
f 451/157/206 450/158/206 459/159/206 460/160/206 
f 451/157/206 460/160/206 461/161/206 462/162/206 
f 451/157/207 462/162/207 463/163/207 464/164/207 
f 452/153/200 451/154/200 464/155/200 453/156/200 
f 453/153/201 464/154/201 463/155/201 454/156/201 
f 454/153/202 463/154/202 462/155/202 455/156/202 
f 455/153/203 462/154/203 461/155/203 456/156/203 
f 456/153/204 461/154/204 460/155/204 457/156/204 
f 457/153/205 460/154/205 459/155/205 458/156/205 
f 465/153/195 466/154/195 467/155/195 468/156/195 
f 465/157/255 468/158/255 469/159/255 470/160/255 
f 465/157/256 470/160/256 471/161/256 472/162/256 
f 465/157/256 472/162/256 473/163/256 474/164/256 
f 474/153/198 475/154/198 466/155/198 465/156/198 
f 467/157/206 466/158/206 475/159/206 476/160/206 
f 467/157/207 476/160/207 477/161/207 478/162/207 
f 467/157/206 478/162/206 479/163/206 480/164/206 
f 468/153/257 467/154/257 480/155/257 469/156/257 
f 469/153/258 480/154/258 479/155/258 470/156/258 
f 470/153/259 479/154/259 478/155/259 471/156/259 
f 471/153/260 478/154/260 477/155/260 472/156/260 
f 472/153/261 477/154/261 476/155/261 473/156/261 
f 473/153/262 476/154/262 475/155/262 474/156/262 
f 481/166/263 482/167/263 483/168/263 484/169/263 
f 482/167/264 485/170/264 486/171/264 483/168/264 
f 485/170/265 487/172/265 488/173/265 486/171/265 
f 487/172/266 481/166/266 484/169/266 488/173/266 
f 484/169/267 483/168/267 486/171/267 488/173/267 
f 487/172/268 485/170/268 482/167/268 481/166/268 
s 1
f 489/174/269 490/174/269 491/175/269 492/175/269 
s off
f 493/176/197 491/175/197 494/175/197 495/176/197 
s 1
f 496/177/270 497/177/270 498/176/270 493/176/270 
s 2
f 497/177/271 489/174/271 492/175/271 498/176/271 
f 498/176/271 492/175/271 499/178/271 500/179/271 
s 4
f 497/177/206 496/177/206 490/174/206 489/174/206 
s off
f 501/174/199 502/177/199 495/176/199 494/175/199 
s 1
f 496/177/270 493/176/270 495/176/270 502/177/270 
s 4
f 490/174/206 496/177/206 502/177/206 501/174/206 
s 1
f 491/175/269 490/174/269 501/174/269 494/175/269 
s 2
f 500/179/271 499/178/271 503/180/271 504/181/271 
s 1
f 493/176/270 498/176/270 500/179/270 505/179/270 
s off
f 491/175/199 493/176/199 505/179/199 506/178/199 
s 1
f 492/175/269 491/175/269 506/178/272 499/178/269 
s 4
f 503/180/197 507/180/197 508/181/197 504/181/197 
s 1
f 505/179/270 500/179/270 504/181/270 508/181/270 
f 507/180/272 506/178/272 509/178/272 510/180/272 
f 499/178/269 506/178/272 507/180/272 503/180/269 
s off
f 509/178/199 511/179/199 512/181/199 510/180/199 
s 1
f 505/179/270 508/181/270 512/181/270 511/179/270 
s 4
f 508/181/197 507/180/197 510/180/197 512/181/197 
s off
f 506/178/207 505/179/207 511/179/207 509/178/207 
f 513/182/273 514/183/273 515/184/273 516/185/273 
f 514/183/274 517/186/274 518/187/274 515/184/274 
f 517/186/275 519/188/275 520/189/275 518/187/275 
f 519/188/276 513/182/276 516/185/276 520/189/276 
f 516/185/277 515/184/277 518/187/277 520/189/277 
f 519/188/278 517/186/278 514/183/278 513/182/278 
s 1
f 521/177/270 522/177/270 523/176/270 524/176/270 
s off
f 525/175/197 523/176/197 526/176/197 527/175/197 
s 1
f 528/174/269 529/174/269 530/175/269 525/175/269 
s 2
f 529/174/199 521/177/199 524/176/199 530/175/199 
f 530/175/199 524/176/199 531/179/199 532/178/199 
s 4
f 529/174/206 528/174/206 522/177/206 521/177/206 
s off
f 533/177/271 534/174/271 527/175/271 526/176/271 
s 1
f 528/174/269 525/175/269 527/175/269 534/174/269 
s 4
f 522/177/206 528/174/206 534/174/206 533/177/206 
s 1
f 523/176/270 522/177/270 533/177/270 526/176/270 
s 2
f 532/178/199 531/179/199 535/181/199 536/180/199 
s 1
f 525/175/269 530/175/269 532/178/269 537/178/272 
s off
f 523/176/271 525/175/271 537/178/271 538/179/271 
s 1
f 524/176/270 523/176/270 538/179/270 531/179/270 
s 4
f 535/181/197 539/181/197 540/180/197 536/180/197 
s 1
f 537/178/272 532/178/269 536/180/269 540/180/269 
f 539/181/270 538/179/270 541/179/270 542/181/270 
f 531/179/270 538/179/270 539/181/270 535/181/270 
s off
f 541/179/271 543/178/271 544/180/271 542/181/271 
s 1
f 537/178/272 540/180/269 544/180/272 543/178/272 
s 4
f 540/180/197 539/181/197 542/181/197 544/180/197 
s off
f 538/179/206 537/178/206 543/178/206 541/179/206 
f 545/190/271 546/191/271 547/192/271 548/193/271 
f 549/190/270 545/190/270 548/193/270 550/193/270 
f 549/190/206 551/191/206 546/191/206 545/190/206 
f 546/191/269 551/191/269 552/192/269 547/192/269 
f 548/193/197 547/192/197 552/192/197 550/193/197 
f 551/191/199 549/190/199 550/193/199 552/192/199 
f 553/190/271 554/191/271 555/192/271 556/193/271 
f 557/190/270 553/190/270 556/193/270 558/193/270 
f 557/190/206 559/191/206 554/191/206 553/190/206 
f 554/191/269 559/191/269 560/192/269 555/192/269 
f 556/193/197 555/192/197 560/192/197 558/193/197 
f 559/191/199 557/190/199 558/193/199 560/192/199 
f 561/194/206 562/195/206 563/196/206 564/197/206 
f 565/194/270 561/195/270 564/196/270 566/197/270 
f 565/194/199 567/195/199 562/196/199 561/197/199 
f 562/194/269 567/195/269 568/196/269 563/197/269 
f 564/194/279 563/195/279 568/196/279 566/197/279 
f 567/194/197 565/195/197 566/196/197 568/197/197 
f 569/194/271 570/195/271 571/196/271 572/197/271 
f 573/194/270 569/195/270 572/196/270 574/197/270 
f 573/194/206 575/195/206 570/196/206 569/197/206 
f 570/194/269 575/195/269 576/196/269 571/197/269 
f 572/194/197 571/195/197 576/196/197 574/197/197 
f 575/194/199 573/195/199 574/196/199 576/197/199 
f 577/194/271 578/195/271 579/196/271 580/197/271 
f 581/194/270 577/195/270 580/196/270 582/197/270 
f 581/194/206 583/195/206 578/196/206 577/197/206 
f 578/194/269 583/195/269 584/196/269 579/197/269 
f 580/194/197 579/195/197 584/196/197 582/197/197 
f 583/194/199 581/195/199 582/196/199 584/197/199 
f 585/194/271 586/195/271 587/196/271 588/197/271 
f 589/194/270 585/195/270 588/196/270 590/197/270 
f 589/194/234 591/195/234 586/196/234 585/197/234 
f 586/194/269 591/195/269 592/196/269 587/197/269 
f 588/194/197 587/195/197 592/196/197 590/197/197 
f 591/194/199 589/195/199 590/196/199 592/197/199 
f 593/194/271 594/195/271 595/196/271 596/197/271 
f 597/194/270 593/195/270 596/196/270 598/197/270 
f 597/194/234 599/195/234 594/196/234 593/197/234 
f 594/194/269 599/195/269 600/196/269 595/197/269 
f 596/194/256 595/195/256 600/196/256 598/197/256 
f 599/194/199 597/195/199 598/196/199 600/197/199 
f 601/194/271 602/195/271 603/196/271 604/197/271 
f 605/194/270 601/195/270 604/196/270 606/197/270 
f 605/194/206 607/195/206 602/196/206 601/197/206 
f 602/194/269 607/195/269 608/196/269 603/197/269 
f 604/194/197 603/195/197 608/196/197 606/197/197 
f 607/194/199 605/195/199 606/196/199 608/197/199 
f 609/198/199 610/198/199 611/199/199 612/199/199 
f 613/200/280 609/201/280 612/202/280 614/203/280 
s 1
f 613/204/207 615/204/207 610/198/207 609/198/207 
s off
f 610/198/281 615/204/281 616/205/281 611/199/281 
s 1
f 612/199/197 611/199/197 616/205/197 614/205/197 
s off
f 617/206/269 613/200/269 614/203/269 618/207/269 
s 1
f 617/208/207 619/208/207 615/204/207 613/204/207 
s off
f 615/204/270 619/208/270 620/209/270 616/205/270 
s 1
f 614/205/197 616/205/197 620/209/197 618/209/197 
s off
f 621/210/282 617/206/282 618/207/282 622/211/282 
s 1
f 621/212/206 623/212/206 619/208/207 617/208/207 
s off
f 619/208/283 623/212/283 624/213/283 620/209/283 
s 1
f 618/209/197 620/209/197 624/213/197 622/213/197 
s off
f 623/212/271 621/212/271 622/213/271 624/213/271 
f 625/214/279 626/215/279 627/216/279 628/217/279 
f 629/218/270 625/219/270 628/220/270 630/221/270 
s 1
f 625/219/207 629/218/206 631/218/206 632/219/207 
s off
f 626/222/269 633/223/269 634/224/269 627/225/269 
f 628/218/197 627/219/197 634/220/197 630/221/197 
f 633/215/199 629/214/199 630/217/199 634/216/199 
s 1
f 635/226/279 636/227/279 637/228/279 638/229/279 
f 639/226/284 635/227/279 638/228/279 640/229/279 
s 2
f 641/226/207 642/227/207 636/228/207 635/229/207 
s off
f 636/226/272 642/227/272 643/228/272 637/229/272 
s 2
f 638/226/197 637/227/196 643/228/196 644/229/196 
s 1
f 639/230/284 640/231/279 645/232/271 646/233/271 
f 639/230/284 646/233/271 647/234/271 648/235/271 
f 639/230/284 648/235/271 649/236/284 650/237/284 
f 651/238/285 652/239/271 653/240/279 654/241/279 
f 654/241/279 653/240/279 650/237/284 655/242/284 
f 649/236/284 655/242/284 650/237/284 
f 656/243/279 639/230/284 650/237/284 
s 4
f 657/226/286 641/227/286 635/228/286 639/229/286 
s 2
f 640/226/197 638/227/197 644/228/196 658/229/197 
f 659/226/207 660/227/207 642/228/207 641/229/207 
s 1
f 643/226/287 642/227/287 661/228/287 662/229/287 
s 2
f 644/226/196 643/227/196 663/228/196 664/229/197 
f 665/244/288 656/245/288 650/246/289 666/247/288 
s 8
f 665/226/206 657/227/207 639/228/206 656/229/206 
s 2
f 645/226/197 640/227/197 658/228/197 667/229/197 
s off
f 646/243/270 645/248/270 667/249/270 668/250/270 
f 646/243/270 668/250/270 669/251/270 
f 647/226/290 646/227/290 669/228/290 670/229/290 
f 648/226/291 647/227/291 670/228/291 671/229/291 
f 649/226/292 648/227/292 671/228/292 672/229/292 
f 655/226/293 649/227/293 672/228/293 673/229/293 
f 654/226/294 655/227/294 673/228/294 674/229/294 
f 651/226/295 654/227/295 674/228/295 675/229/295 
f 676/243/269 677/248/269 652/249/269 651/250/269 
f 676/243/269 651/250/269 675/251/269 
f 653/226/197 652/227/197 677/228/197 678/229/197 
s 2
f 666/252/288 650/253/289 653/254/289 678/255/288 
s 4
f 679/226/286 659/227/286 641/228/286 657/229/286 
s 2
f 658/226/197 644/227/196 664/228/197 680/229/256 
f 681/226/207 682/227/207 660/228/207 659/229/207 
s 1
f 642/226/287 660/227/270 683/228/270 684/229/287 
s 2
f 685/226/196 643/227/196 662/228/196 686/229/197 
s 1
f 642/226/287 684/227/287 687/228/287 661/229/287 
s 4
f 662/226/279 661/227/279 688/228/279 686/229/279 
s 2
f 663/226/196 643/227/196 685/228/196 689/229/197 
f 664/226/197 663/227/196 690/228/196 691/229/197 
s off
f 692/226/296 665/227/296 666/256/296 693/257/296 
s 8
f 692/226/207 679/227/207 657/228/207 665/229/206 
s off
f 678/243/197 677/258/197 676/256/197 680/257/197 
f 668/259/197 667/260/197 658/261/197 680/257/197 
f 676/256/256 668/259/256 680/257/256 
f 678/243/197 680/257/197 694/262/197 
f 668/243/279 676/263/279 675/264/279 674/265/279 
f 668/243/285 674/265/285 673/266/285 672/267/285 
f 668/243/285 672/267/285 671/268/285 670/269/285 
f 668/243/271 670/269/271 669/270/271 
f 693/257/287 666/256/287 678/228/287 694/229/287 
s 4
f 695/226/297 681/227/297 659/228/286 679/229/286 
s 2
f 680/226/256 664/227/197 691/228/197 696/229/256 
f 697/226/207 698/227/207 682/228/207 681/229/207 
s 1
f 660/226/270 682/227/270 699/228/270 683/229/270 
s 2
f 684/226/206 683/227/207 700/228/206 701/229/206 
s 1
f 702/226/269 685/227/269 686/228/269 688/229/269 
s 2
f 684/226/206 701/227/206 703/228/206 687/229/206 
s 4
f 688/226/279 661/227/279 687/228/279 703/229/279 
s 2
f 690/226/196 663/227/196 689/228/197 704/229/197 
s 1
f 702/226/269 705/227/269 689/228/269 685/229/269 
s 2
f 691/226/197 690/227/196 706/228/197 707/229/197 
s off
f 708/226/298 692/227/298 693/256/298 709/257/298 
s 8
f 708/226/206 695/227/206 679/228/207 692/229/207 
s 2
f 694/226/197 680/227/256 696/228/256 710/229/197 
s off
f 709/257/270 693/256/270 694/228/270 710/229/270 
s 4
f 711/226/297 697/227/286 681/228/297 695/229/297 
s 2
f 696/226/256 691/227/197 707/228/197 712/229/197 
f 713/226/207 714/227/207 698/228/207 697/229/207 
s 1
f 682/226/270 698/227/270 715/228/270 699/229/270 
s 2
f 683/226/207 699/227/207 716/228/207 700/229/206 
s 1
f 705/226/269 702/227/269 701/228/269 700/229/269 
f 701/226/269 702/227/269 688/228/269 703/229/269 
s 2
f 706/226/197 690/227/196 704/228/197 717/229/197 
s 1
f 705/226/269 718/227/269 704/228/269 689/229/269 
s 2
f 707/226/197 706/227/197 719/228/196 720/229/196 
s off
f 721/226/298 708/227/298 709/256/298 722/257/298 
s 8
f 721/226/207 711/227/207 695/228/206 708/229/206 
s off
f 710/243/196 696/258/196 712/256/196 723/260/196 
f 712/256/197 724/259/197 723/260/197 
f 710/243/256 723/260/256 725/261/256 726/257/256 
f 710/243/197 726/257/197 727/262/197 
f 722/257/270 709/256/270 710/228/270 727/229/270 
s 4
f 728/226/286 713/227/286 697/228/286 711/229/297 
s 2
f 712/226/197 707/227/197 720/228/196 729/229/197 
s 1
f 714/226/199 713/227/199 720/228/199 719/229/199 
s off
f 698/226/272 714/227/272 719/228/272 706/229/272 
s 4
f 715/226/270 698/227/270 730/228/270 731/229/270 
s 2
f 699/226/207 715/227/207 732/228/207 716/229/207 
s 1
f 718/226/269 705/227/269 700/228/269 716/229/269 
s 2
f 706/226/197 717/227/197 733/228/197 734/229/197 
s 1
f 718/226/269 735/227/269 717/228/269 704/229/269 
s 2
f 736/271/299 721/272/299 722/253/299 737/273/299 
s 8
f 736/226/207 728/227/207 711/228/207 721/229/207 
s 2
f 724/226/197 712/227/197 729/228/197 738/229/197 
s off
f 739/243/270 723/248/270 724/249/270 738/250/270 
f 739/243/270 738/250/270 740/251/270 
f 725/243/199 723/263/199 739/264/199 741/265/199 
f 725/243/300 741/265/300 742/266/300 743/267/300 
f 725/243/199 743/267/199 744/268/199 745/269/199 
f 725/243/199 745/269/199 746/270/199 
f 747/243/269 748/248/269 726/249/269 725/250/269 
f 747/243/272 725/250/272 746/251/272 
f 727/226/197 726/227/197 748/228/197 749/229/197 
s 2
f 737/252/299 722/246/299 727/274/299 749/255/299 
s 1
f 713/226/199 728/227/301 729/228/199 720/229/199 
s 4
f 698/226/270 706/227/270 734/228/270 730/229/270 
s 2
f 732/226/207 715/227/207 731/228/207 750/229/206 
s 8
f 730/226/199 751/227/199 750/228/199 731/229/199 
s 1
f 735/226/269 718/227/269 716/228/269 732/229/269 
f 717/226/269 735/227/269 751/228/269 733/229/269 
s 8
f 730/226/199 734/227/199 733/228/199 751/229/199 
s 1
f 728/243/301 736/230/199 737/275/301 752/235/301 
f 737/275/301 749/231/199 748/232/199 747/233/199 
f 737/275/301 747/233/199 753/234/199 752/235/301 
f 728/243/301 752/235/301 754/236/199 755/242/199 
f 728/243/301 755/242/199 756/241/199 740/238/199 
f 728/243/301 740/238/199 738/239/199 729/240/199 
s off
f 740/226/290 756/227/290 741/228/290 739/229/290 
f 756/226/291 755/227/291 742/228/291 741/229/291 
f 755/226/292 754/227/292 743/228/292 742/229/292 
f 754/226/293 752/227/293 744/228/293 743/229/293 
f 752/226/302 753/227/302 745/228/302 744/229/302 
f 753/226/303 747/227/303 746/228/303 745/229/303 
s 1
f 735/226/269 732/227/269 750/228/269 751/229/269 
s off
f 757/276/279 758/277/279 759/278/279 760/279/279 
f 761/276/270 757/276/270 760/279/270 762/279/270 
f 761/276/206 763/277/206 758/277/206 757/276/206 
f 758/277/269 763/277/269 764/278/269 759/278/269 
f 760/279/197 759/278/197 764/278/197 762/279/197 
f 763/277/199 761/276/199 762/279/199 764/278/199 
f 765/276/279 766/277/279 767/278/279 768/279/279 
f 769/276/270 765/276/270 768/279/270 770/279/270 
f 769/276/206 771/277/206 766/277/206 765/276/206 
f 766/277/269 771/277/269 772/278/269 767/278/269 
f 768/279/197 767/278/197 772/278/197 770/279/197 
f 771/277/199 769/276/199 770/279/199 772/278/199 
s 1
f 631/280/206 773/281/207 774/282/206 632/283/207 
f 626/219/206 625/218/207 632/218/207 774/219/206 
f 629/219/206 633/218/207 773/218/207 631/219/206 
f 633/219/207 626/218/206 774/218/206 773/219/207 
s off
f 775/194/206 776/195/206 777/196/206 778/197/206 
f 779/194/270 775/195/270 778/196/270 780/197/270 
f 779/194/300 781/195/300 776/196/300 775/197/300 
f 776/194/269 781/195/269 782/196/269 777/197/269 
f 778/194/285 777/195/285 782/196/285 780/197/285 
f 781/194/197 779/195/197 780/196/197 782/197/197 
f 783/194/206 784/195/206 785/196/206 786/197/206 
f 787/194/270 783/195/270 786/196/270 788/197/270 
f 787/194/300 789/195/300 784/196/300 783/197/300 
f 784/194/269 789/195/269 790/196/269 785/197/269 
f 786/194/285 785/195/285 790/196/285 788/197/285 
f 789/194/197 787/195/197 788/196/197 790/197/197 
f 791/194/271 792/195/271 793/196/271 794/197/271 
f 795/194/270 791/195/270 794/196/270 796/197/270 
f 795/194/206 797/195/206 792/196/206 791/197/206 
f 792/194/269 797/195/269 798/196/269 793/197/269 
f 794/194/197 793/195/197 798/196/197 796/197/197 
f 797/194/199 795/195/199 796/196/199 798/197/199 
s 1
f 799/218/197 800/219/197 801/220/197 802/221/197 
s 2
f 803/218/272 799/219/272 802/220/272 804/221/272 
s 1
f 805/218/197 806/219/197 800/220/197 799/221/197 
f 801/218/197 800/219/197 807/220/197 808/221/197 
s 4
f 801/218/285 809/219/285 804/220/285 802/221/285 
s 2
f 810/218/272 803/219/272 804/220/272 811/221/269 
f 812/218/272 805/219/272 799/220/272 803/221/272 
s 4
f 805/218/304 812/219/304 813/220/199 806/221/199 
s 1
f 800/218/197 806/219/197 814/220/197 807/221/197 
s 2
f 809/218/305 801/219/305 808/220/305 815/221/305 
s 4
f 807/218/296 816/219/287 815/220/296 808/221/298 
f 809/218/285 817/219/285 811/220/285 804/221/285 
s 2
f 818/220/306 819/221/306 820/284/306 821/285/306 
f 811/219/269 818/220/306 821/285/306 822/286/272 
f 810/218/272 811/219/269 822/286/272 823/287/272 
f 824/218/272 812/219/272 803/220/272 810/221/272 
s 4
f 812/218/304 824/219/304 825/220/300 813/221/199 
s 2
f 806/218/307 813/219/307 826/220/307 814/221/307 
s 8
f 814/218/270 826/219/287 816/220/287 807/221/270 
s 2
f 817/218/308 809/219/305 815/220/305 827/221/309 
s 4
f 815/288/296 816/289/287 828/290/287 829/291/296 
s off
f 811/292/285 817/293/285 830/294/285 831/295/285 
f 811/292/271 831/295/271 832/296/271 818/297/271 
s 2
f 824/218/272 810/219/272 823/298/272 833/299/272 
f 834/300/310 820/301/306 819/220/306 835/221/310 
f 833/299/272 834/300/310 835/221/310 824/218/272 
s 1
f 819/218/206 818/219/206 836/220/206 837/221/206 
s 4
f 824/292/304 835/293/300 838/294/300 839/295/304 
f 824/292/304 839/295/304 840/296/300 825/297/300 
s 2
f 813/218/307 825/219/307 841/220/307 826/221/307 
s 12
f 816/288/287 826/289/287 842/290/270 828/291/287 
s off
f 817/219/311 827/220/311 843/221/311 844/218/311 
f 827/288/298 815/289/298 829/290/298 845/291/298 
f 829/194/312 828/195/312 846/196/312 847/197/312 
f 836/293/271 818/294/271 832/295/271 848/296/271 
f 817/292/284 836/293/284 848/296/284 830/297/284 
f 831/218/206 830/219/206 849/220/206 850/221/206 
f 832/218/270 831/219/270 850/220/270 851/221/270 
s 1
f 835/218/206 819/219/206 837/220/206 852/221/206 
s 2
f 853/296/313 854/297/314 837/292/314 836/293/313 
f 855/295/314 853/296/313 836/293/313 817/294/308 
s off
f 852/297/300 825/292/300 840/293/300 856/294/300 
f 835/296/300 852/297/300 856/294/300 838/295/300 
f 839/218/270 838/219/270 857/220/270 858/221/270 
f 840/218/206 839/219/206 858/220/206 859/221/206 
f 841/221/315 825/218/315 844/219/315 843/220/315 
f 826/288/270 841/289/270 860/290/270 842/291/270 
f 828/194/316 842/195/316 861/196/316 846/197/316 
s 2
f 844/293/314 837/294/314 854/295/314 862/296/313 
f 817/292/308 844/293/314 862/296/313 855/297/314 
s 1
f 843/288/287 827/289/287 845/290/287 863/291/287 
s off
f 845/194/199 829/195/199 847/196/199 864/197/199 
s 1
f 846/302/287 865/303/287 864/304/296 847/305/296 
s off
f 848/218/197 832/219/197 851/220/197 866/221/197 
f 830/218/317 848/219/317 866/220/317 849/221/317 
f 851/306/284 850/307/284 849/308/284 866/309/284 
f 838/218/197 856/219/197 867/220/197 857/221/197 
f 867/306/301 859/307/301 858/308/301 857/309/301 
f 856/218/317 840/219/317 859/220/317 867/221/317 
f 868/295/314 869/296/314 844/297/314 825/292/314 
f 870/294/314 868/295/314 825/292/314 852/293/314 
s 1
f 841/288/296 843/289/287 863/290/287 860/291/296 
s off
f 842/194/285 860/195/285 871/196/285 861/197/285 
s 1
f 861/302/287 871/303/287 865/304/287 846/305/287 
s off
f 863/194/318 845/195/318 864/196/318 865/197/318 
f 853/218/301 855/219/301 872/220/301 873/221/301 
f 854/218/319 853/219/319 873/220/319 874/221/319 
f 860/194/320 863/195/320 865/196/320 871/197/320 
f 855/218/321 862/219/321 875/220/321 872/221/321 
f 876/296/314 870/297/314 852/292/314 837/293/314 
f 869/295/313 876/296/313 837/293/313 844/294/313 
f 870/218/319 876/219/319 877/220/319 878/221/319 
f 868/218/284 870/219/284 878/220/284 879/221/284 
f 873/306/322 872/307/322 875/308/322 874/309/322 
f 862/218/284 854/219/284 874/220/284 875/221/284 
f 876/218/301 869/219/301 880/220/301 877/221/301 
f 877/306/322 880/307/322 879/308/322 878/309/322 
f 869/218/323 868/219/323 879/220/323 880/221/323 
f 822/310/199 821/310/199 881/310/199 882/310/199 
f 882/310/206 883/310/206 833/310/206 823/310/206 
f 882/310/206 823/310/206 822/310/206 
f 884/311/272 883/311/272 882/311/272 881/311/272 
f 884/310/197 881/310/197 821/310/197 820/310/197 
f 884/310/197 820/310/197 834/310/197 
f 834/310/271 833/310/271 883/310/271 884/310/271 
f 885/312/271 886/313/271 887/314/271 888/315/271 
f 889/316/324 885/317/324 888/318/324 890/319/324 
s 1
f 889/312/206 891/313/206 886/314/234 885/315/234 
s off
f 886/312/325 891/313/325 892/314/325 887/315/325 
s 1
f 888/312/197 887/313/197 892/314/197 890/315/197 
s off
f 893/320/270 889/316/270 890/319/270 894/321/270 
s 1
f 893/312/207 895/313/207 891/314/206 889/315/206 
s off
f 891/312/272 895/313/272 896/314/272 892/315/272 
s 1
f 890/312/197 892/313/197 896/314/197 894/315/197 
s off
f 897/322/326 893/320/326 894/321/326 898/323/326 
s 1
f 897/312/235 899/313/235 895/314/207 893/315/207 
s off
f 895/312/327 899/313/327 900/314/327 896/315/327 
s 1
f 894/312/197 896/313/197 900/314/197 898/315/197 
s off
f 899/312/199 897/313/199 898/314/199 900/315/199 
# 561 polygons - 14 triangles

