# 3ds Max Wavefront OBJ Exporter v0.97b - (c)2007 guruware
# File Created: 15.03.2017 11:52:12

mtllib SPW_Vehicle_Land_School Bus.mtl

#
# object RR
#

v  -62.2872 38.8472 -137.8965
v  -48.6518 38.8472 -137.8965
v  -48.6518 36.9231 -146.3267
v  -62.2872 36.9231 -146.3267
v  -48.6518 31.5317 -153.0872
v  -62.2872 31.5317 -153.0872
v  -48.6518 23.7410 -156.8391
v  -62.2872 23.7410 -156.8391
v  -48.6518 15.0940 -156.8391
v  -62.2872 15.0940 -156.8391
v  -48.6518 7.3033 -153.0873
v  -62.2872 7.3033 -153.0873
v  -48.6518 1.9119 -146.3267
v  -62.2872 1.9119 -146.3267
v  -48.6518 -0.0122 -137.8965
v  -62.2872 -0.0122 -137.8965
v  -48.6518 1.9119 -129.4662
v  -62.2872 1.9119 -129.4662
v  -48.6518 7.3033 -122.7057
v  -62.2872 7.3033 -122.7057
v  -48.6518 15.0940 -118.9539
v  -62.2872 15.0940 -118.9539
v  -48.6518 23.7410 -118.9539
v  -62.2872 23.7410 -118.9539
v  -48.6518 31.5317 -122.7057
v  -62.2872 31.5317 -122.7057
v  -48.6518 36.9231 -129.4662
v  -62.2872 36.9231 -129.4662
# 28 vertices

vn 0.0000 0.9749 -0.2225
vn 0.0000 0.7818 -0.6235
vn -0.0000 0.4339 -0.9010
vn -0.0000 0.0000 -1.0000
vn 0.0000 -0.4339 -0.9010
vn 0.0000 -0.7818 -0.6235
vn 0.0000 -0.9749 -0.2225
vn 0.0000 -0.9749 0.2225
vn 0.0000 -0.7818 0.6235
vn 0.0000 -0.4339 0.9010
vn 0.0000 -0.0000 1.0000
vn 0.0000 0.4339 0.9010
vn 1.0000 0.0000 0.0000
vn 1.0000 0.0000 -0.0000
vn 1.0000 -0.0000 -0.0000
vn 0.0000 0.9749 0.2225
vn 0.0000 0.7818 0.6235
vn -1.0000 0.0000 -0.0000
vn -1.0000 -0.0000 0.0000
vn -1.0000 -0.0000 -0.0000
# 20 vertex normals

vt 0.8477 0.2020 0.0000
vt 0.8852 0.1935 0.0000
vt 0.9153 0.1695 0.0000
vt 0.9319 0.1349 0.0000
vt 0.9319 0.0965 0.0000
vt 0.9153 0.0618 0.0000
vt 0.8852 0.0379 0.0000
vt 0.8477 0.0293 0.0000
vt 0.8103 0.0379 0.0000
vt 0.7802 0.0618 0.0000
vt 0.7636 0.0965 0.0000
vt 0.7636 0.1349 0.0000
vt 0.7802 0.1695 0.0000
vt 0.8103 0.1935 0.0000
# 14 texture coords

g RR
usemtl SPW_Vehicle_Land_School_Bus
s off
f 1/1/1 2/1/1 3/2/1 4/2/1 
f 4/2/2 3/2/2 5/3/2 6/3/2 
f 6/3/3 5/3/3 7/4/3 8/4/3 
f 8/4/4 7/4/4 9/5/4 10/5/4 
f 10/5/5 9/5/5 11/6/5 12/6/5 
f 12/6/6 11/6/6 13/7/6 14/7/6 
f 14/7/7 13/7/7 15/8/7 16/8/7 
f 16/8/8 15/8/8 17/9/8 18/9/8 
f 18/9/9 17/9/9 19/10/9 20/10/9 
f 20/10/10 19/10/10 21/11/10 22/11/10 
f 22/11/11 21/11/11 23/12/11 24/12/11 
f 24/12/12 23/12/12 25/13/12 26/13/12 
f 3/2/13 2/1/13 27/14/13 25/13/13 
f 3/2/13 25/13/13 23/12/13 21/11/13 
f 3/2/14 21/11/14 19/10/14 17/9/14 
f 3/2/14 17/9/14 15/8/14 13/7/14 
f 3/2/14 13/7/14 11/6/14 9/5/14 
f 3/2/15 9/5/15 7/4/15 5/3/15 
f 28/14/16 27/14/16 2/1/16 1/1/16 
f 26/13/17 25/13/17 27/14/17 28/14/17 
f 1/1/18 4/2/18 6/3/18 8/4/18 
f 1/1/19 8/4/19 10/5/19 12/6/19 
f 1/1/20 12/6/20 14/7/20 16/8/20 
f 1/1/20 16/8/20 18/9/20 20/10/20 
f 1/1/18 20/10/18 22/11/18 24/12/18 
f 1/1/18 24/12/18 26/13/18 28/14/18 
# 26 polygons

#
# object FR
#

v  -62.2872 38.8472 96.1701
v  -48.6518 38.8472 96.1701
v  -48.6518 36.9231 87.7399
v  -62.2872 36.9231 87.7399
v  -48.6518 31.5317 80.9793
v  -62.2872 31.5317 80.9793
v  -48.6518 23.7410 77.2275
v  -62.2872 23.7410 77.2275
v  -48.6518 15.0940 77.2275
v  -62.2872 15.0940 77.2275
v  -48.6518 7.3033 80.9793
v  -62.2872 7.3033 80.9793
v  -48.6518 1.9119 87.7398
v  -62.2872 1.9119 87.7398
v  -48.6518 -0.0122 96.1701
v  -62.2871 -0.0122 96.1701
v  -48.6518 1.9119 104.6003
v  -62.2872 1.9119 104.6003
v  -48.6518 7.3033 111.3609
v  -62.2872 7.3033 111.3609
v  -48.6518 15.0940 115.1127
v  -62.2872 15.0940 115.1127
v  -48.6518 23.7410 115.1127
v  -62.2872 23.7410 115.1127
v  -48.6518 31.5317 111.3609
v  -62.2872 31.5317 111.3609
v  -48.6518 36.9231 104.6003
v  -62.2872 36.9231 104.6003
# 28 vertices

vn 0.0000 0.9749 -0.2225
vn 0.0000 0.7818 -0.6235
vn -0.0000 0.4339 -0.9010
vn -0.0000 -0.0000 -1.0000
vn -0.0000 -0.4339 -0.9010
vn 0.0000 -0.7818 -0.6235
vn 0.0000 -0.9749 -0.2225
vn 0.0000 -0.9749 0.2225
vn 0.0000 -0.7818 0.6235
vn 0.0000 -0.4339 0.9010
vn 0.0000 0.0000 1.0000
vn 0.0000 0.4339 0.9010
vn 1.0000 0.0000 -0.0000
vn 1.0000 0.0000 0.0000
vn -0.0000 0.9749 0.2225
vn -0.0000 0.7818 0.6235
vn -1.0000 -0.0000 0.0000
vn -1.0000 -0.0000 -0.0000
vn -1.0000 0.0000 -0.0000
# 19 vertex normals

vt 0.8477 0.2020 0.0000
vt 0.8852 0.1935 0.0000
vt 0.9153 0.1695 0.0000
vt 0.9319 0.1349 0.0000
vt 0.9319 0.0965 0.0000
vt 0.9153 0.0618 0.0000
vt 0.8852 0.0379 0.0000
vt 0.8477 0.0293 0.0000
vt 0.8103 0.0379 0.0000
vt 0.7802 0.0618 0.0000
vt 0.7636 0.0965 0.0000
vt 0.7636 0.1349 0.0000
vt 0.7802 0.1695 0.0000
vt 0.8103 0.1935 0.0000
# 14 texture coords

g FR
usemtl SPW_Vehicle_Land_School_Bus
s off
f 29/15/21 30/15/21 31/16/21 32/16/21 
f 32/16/22 31/16/22 33/17/22 34/17/22 
f 34/17/23 33/17/23 35/18/23 36/18/23 
f 36/18/24 35/18/24 37/19/24 38/19/24 
f 38/19/25 37/19/25 39/20/25 40/20/25 
f 40/20/26 39/20/26 41/21/26 42/21/26 
f 42/21/27 41/21/27 43/22/27 44/22/27 
f 44/22/28 43/22/28 45/23/28 46/23/28 
f 46/23/29 45/23/29 47/24/29 48/24/29 
f 48/24/30 47/24/30 49/25/30 50/25/30 
f 50/25/31 49/25/31 51/26/31 52/26/31 
f 52/26/32 51/26/32 53/27/32 54/27/32 
f 31/16/33 30/15/33 55/28/33 53/27/33 
f 31/16/34 53/27/34 51/26/34 49/25/34 
f 31/16/33 49/25/33 47/24/33 45/23/33 
f 31/16/33 45/23/33 43/22/33 41/21/33 
f 31/16/33 41/21/33 39/20/33 37/19/33 
f 31/16/33 37/19/33 35/18/33 33/17/33 
f 56/28/35 55/28/35 30/15/35 29/15/35 
f 54/27/36 53/27/36 55/28/36 56/28/36 
f 29/15/37 32/16/37 34/17/37 36/18/37 
f 29/15/37 36/18/37 38/19/37 40/20/37 
f 29/15/37 40/20/37 42/21/37 44/22/37 
f 29/15/38 44/22/38 46/23/38 48/24/38 
f 29/15/39 48/24/39 50/25/39 52/26/39 
f 29/15/39 52/26/39 54/27/39 56/28/39 
# 26 polygons

#
# object RL
#

v  48.6644 38.8472 -137.8965
v  62.2997 38.8472 -137.8965
v  62.2997 36.9231 -146.3267
v  48.6644 36.9231 -146.3267
v  62.2997 31.5317 -153.0872
v  48.6644 31.5317 -153.0872
v  62.2997 23.7410 -156.8391
v  48.6644 23.7410 -156.8391
v  62.2997 15.0940 -156.8391
v  48.6644 15.0940 -156.8391
v  62.2997 7.3033 -153.0873
v  48.6644 7.3033 -153.0873
v  62.2997 1.9119 -146.3267
v  48.6644 1.9119 -146.3267
v  62.2997 -0.0122 -137.8965
v  48.6644 -0.0122 -137.8965
v  62.2997 1.9119 -129.4662
v  48.6644 1.9119 -129.4662
v  62.2997 7.3033 -122.7057
v  48.6644 7.3033 -122.7057
v  62.2997 15.0940 -118.9539
v  48.6644 15.0940 -118.9539
v  62.2997 23.7410 -118.9539
v  48.6644 23.7410 -118.9539
v  62.2997 31.5317 -122.7057
v  48.6644 31.5317 -122.7057
v  62.2997 36.9231 -129.4662
v  48.6644 36.9231 -129.4662
# 28 vertices

vn 0.0000 0.9749 -0.2225
vn 0.0000 0.7818 -0.6235
vn 0.0000 0.4339 -0.9010
vn -0.0000 0.0000 -1.0000
vn -0.0000 -0.4339 -0.9010
vn 0.0000 -0.7818 -0.6235
vn 0.0000 -0.9749 -0.2225
vn 0.0000 -0.9749 0.2225
vn 0.0000 -0.7818 0.6235
vn 0.0000 -0.4339 0.9010
vn 0.0000 -0.0000 1.0000
vn 0.0000 0.4339 0.9010
vn 1.0000 0.0000 0.0000
vn 1.0000 0.0000 -0.0000
vn 1.0000 -0.0000 -0.0000
vn 0.0000 0.9749 0.2225
vn 0.0000 0.7818 0.6235
vn -1.0000 0.0000 -0.0000
vn -1.0000 -0.0000 0.0000
vn -1.0000 -0.0000 -0.0000
# 20 vertex normals

vt 0.8477 0.2020 0.0000
vt 0.8852 0.1935 0.0000
vt 0.9153 0.1695 0.0000
vt 0.9319 0.1349 0.0000
vt 0.9319 0.0965 0.0000
vt 0.9153 0.0618 0.0000
vt 0.8852 0.0379 0.0000
vt 0.8477 0.0293 0.0000
vt 0.8103 0.0379 0.0000
vt 0.7802 0.0618 0.0000
vt 0.7636 0.0965 0.0000
vt 0.7636 0.1349 0.0000
vt 0.7802 0.1695 0.0000
vt 0.8103 0.1935 0.0000
# 14 texture coords

g RL
usemtl SPW_Vehicle_Land_School_Bus
s off
f 57/29/40 58/29/40 59/30/40 60/30/40 
f 60/30/41 59/30/41 61/31/41 62/31/41 
f 62/31/42 61/31/42 63/32/42 64/32/42 
f 64/32/43 63/32/43 65/33/43 66/33/43 
f 66/33/44 65/33/44 67/34/44 68/34/44 
f 68/34/45 67/34/45 69/35/45 70/35/45 
f 70/35/46 69/35/46 71/36/46 72/36/46 
f 72/36/47 71/36/47 73/37/47 74/37/47 
f 74/37/48 73/37/48 75/38/48 76/38/48 
f 76/38/49 75/38/49 77/39/49 78/39/49 
f 78/39/50 77/39/50 79/40/50 80/40/50 
f 80/40/51 79/40/51 81/41/51 82/41/51 
f 59/30/52 58/29/52 83/42/52 81/41/52 
f 59/30/52 81/41/52 79/40/52 77/39/52 
f 59/30/53 77/39/53 75/38/53 73/37/53 
f 59/30/53 73/37/53 71/36/53 69/35/53 
f 59/30/53 69/35/53 67/34/53 65/33/53 
f 59/30/54 65/33/54 63/32/54 61/31/54 
f 84/42/55 83/42/55 58/29/55 57/29/55 
f 82/41/56 81/41/56 83/42/56 84/42/56 
f 57/29/57 60/30/57 62/31/57 64/32/57 
f 57/29/58 64/32/58 66/33/58 68/34/58 
f 57/29/59 68/34/59 70/35/59 72/36/59 
f 57/29/59 72/36/59 74/37/59 76/38/59 
f 57/29/57 76/38/57 78/39/57 80/40/57 
f 57/29/57 80/40/57 82/41/57 84/42/57 
# 26 polygons

#
# object FL
#

v  48.6644 38.8472 96.1701
v  62.2997 38.8472 96.1701
v  62.2997 36.9231 87.7398
v  48.6644 36.9231 87.7398
v  62.2997 31.5317 80.9793
v  48.6644 31.5317 80.9793
v  62.2997 23.7410 77.2275
v  48.6644 23.7410 77.2275
v  62.2997 15.0940 77.2275
v  48.6644 15.0940 77.2275
v  62.2997 7.3033 80.9793
v  48.6644 7.3033 80.9793
v  62.2997 1.9119 87.7398
v  48.6644 1.9119 87.7398
v  62.2997 -0.0122 96.1701
v  48.6644 -0.0122 96.1701
v  62.2997 1.9119 104.6003
v  48.6644 1.9119 104.6003
v  62.2997 7.3033 111.3608
v  48.6644 7.3033 111.3608
v  62.2997 15.0940 115.1127
v  48.6644 15.0940 115.1127
v  62.2997 23.7410 115.1127
v  48.6644 23.7410 115.1127
v  62.2997 31.5317 111.3608
v  48.6644 31.5317 111.3608
v  62.2997 36.9231 104.6003
v  48.6644 36.9231 104.6003
# 28 vertices

vn 0.0000 0.9749 -0.2225
vn 0.0000 0.7818 -0.6235
vn -0.0000 0.4339 -0.9010
vn -0.0000 -0.0000 -1.0000
vn -0.0000 -0.4339 -0.9010
vn 0.0000 -0.7818 -0.6235
vn 0.0000 -0.9749 -0.2225
vn 0.0000 -0.9749 0.2225
vn 0.0000 -0.7818 0.6235
vn 0.0000 -0.4339 0.9010
vn 0.0000 0.0000 1.0000
vn 0.0000 0.4339 0.9010
vn 1.0000 0.0000 -0.0000
vn 1.0000 0.0000 0.0000
vn -0.0000 0.9749 0.2225
vn -0.0000 0.7818 0.6235
vn -1.0000 -0.0000 0.0000
vn -1.0000 -0.0000 -0.0000
vn -1.0000 0.0000 -0.0000
# 19 vertex normals

vt 0.8477 0.2020 0.0000
vt 0.8852 0.1935 0.0000
vt 0.9153 0.1695 0.0000
vt 0.9319 0.1349 0.0000
vt 0.9319 0.0965 0.0000
vt 0.9153 0.0618 0.0000
vt 0.8852 0.0379 0.0000
vt 0.8477 0.0293 0.0000
vt 0.8103 0.0379 0.0000
vt 0.7802 0.0618 0.0000
vt 0.7636 0.0965 0.0000
vt 0.7636 0.1349 0.0000
vt 0.7802 0.1695 0.0000
vt 0.8103 0.1935 0.0000
# 14 texture coords

g FL
usemtl SPW_Vehicle_Land_School_Bus
s off
f 85/43/60 86/43/60 87/44/60 88/44/60 
f 88/44/61 87/44/61 89/45/61 90/45/61 
f 90/45/62 89/45/62 91/46/62 92/46/62 
f 92/46/63 91/46/63 93/47/63 94/47/63 
f 94/47/64 93/47/64 95/48/64 96/48/64 
f 96/48/65 95/48/65 97/49/65 98/49/65 
f 98/49/66 97/49/66 99/50/66 100/50/66 
f 100/50/67 99/50/67 101/51/67 102/51/67 
f 102/51/68 101/51/68 103/52/68 104/52/68 
f 104/52/69 103/52/69 105/53/69 106/53/69 
f 106/53/70 105/53/70 107/54/70 108/54/70 
f 108/54/71 107/54/71 109/55/71 110/55/71 
f 87/44/72 86/43/72 111/56/72 109/55/72 
f 87/44/73 109/55/73 107/54/73 105/53/73 
f 87/44/72 105/53/72 103/52/72 101/51/72 
f 87/44/72 101/51/72 99/50/72 97/49/72 
f 87/44/72 97/49/72 95/48/72 93/47/72 
f 87/44/72 93/47/72 91/46/72 89/45/72 
f 112/56/74 111/56/74 86/43/74 85/43/74 
f 110/55/75 109/55/75 111/56/75 112/56/75 
f 85/43/76 88/44/76 90/45/76 92/46/76 
f 85/43/76 92/46/76 94/47/76 96/48/76 
f 85/43/76 96/48/76 98/49/76 100/50/76 
f 85/43/77 100/50/77 102/51/77 104/52/77 
f 85/43/78 104/52/78 106/53/78 108/54/78 
f 85/43/78 108/54/78 110/55/78 112/56/78 
# 26 polygons

#
# object Body
#

v  -65.5575 116.3893 201.1213
v  -71.9839 116.3893 199.9881
v  -71.9839 97.1924 199.9881
v  -65.5575 97.1924 201.1213
v  -72.3818 117.2590 197.5892
v  -72.3818 96.3227 197.5892
v  -64.3631 117.2590 199.0031
v  -64.3631 96.3227 199.0031
v  -69.1189 122.0764 199.1991
v  -68.0266 122.0764 199.1991
v  -68.0266 120.9841 199.1991
v  -69.1189 120.9841 199.1991
v  -68.0266 120.9841 200.2915
v  -62.0196 120.9841 199.1991
v  -62.0196 120.9841 200.2915
v  -68.0266 122.0764 200.2915
v  -69.1189 122.0764 200.2915
v  -69.1189 120.9841 200.2915
v  -69.1189 92.2516 199.1991
v  -69.1189 92.2516 200.2914
v  -62.0196 122.0764 199.1991
v  -62.0196 122.0764 200.2915
v  -69.1189 91.0901 199.1991
v  -69.1189 91.0901 200.2914
v  -68.0266 92.2516 200.2914
v  -68.0266 92.2516 199.1991
v  -68.0266 91.0901 199.1991
v  -68.0266 91.0901 200.2914
v  -62.0280 92.2516 199.1991
v  -62.0280 91.0901 199.1991
v  -62.0280 92.2516 200.2914
v  -62.0280 91.0901 200.2914
v  72.0036 116.3893 200.0397
v  65.5772 116.3893 201.1728
v  65.5772 97.1924 201.1728
v  72.0036 97.1924 200.0397
v  64.3828 117.2590 199.0547
v  64.3828 96.3227 199.0547
v  72.4015 117.2590 197.6408
v  72.4015 96.3227 197.6408
v  69.1384 122.0764 200.2915
v  68.0461 122.0764 200.2915
v  68.0461 120.9841 200.2915
v  69.1384 120.9841 200.2915
v  68.0461 120.9841 199.1991
v  62.0390 120.9841 200.2915
v  62.0390 120.9841 199.1991
v  68.0461 122.0764 199.1991
v  69.1384 122.0764 199.1991
v  69.1384 120.9841 199.1991
v  69.1384 92.2516 200.2915
v  69.1384 92.2516 199.1991
v  62.0390 122.0764 200.2915
v  62.0390 122.0764 199.1991
v  69.1384 91.0901 200.2915
v  69.1384 91.0901 199.1991
v  68.0461 92.2516 199.1991
v  68.0461 92.2516 200.2915
v  68.0461 91.0901 200.2915
v  68.0461 91.0901 199.1991
v  62.0475 92.2516 200.2915
v  62.0475 91.0901 200.2915
v  62.0475 92.2516 199.1991
v  62.0475 91.0901 199.1991
v  -41.0683 61.2227 -201.3256
v  41.0810 61.2227 -201.3256
v  41.0810 49.3493 -201.3256
v  -41.0683 49.3493 -201.3256
v  41.0810 61.2227 -200.1079
v  41.0810 49.3493 -200.1079
v  -41.0683 61.2227 -200.1079
v  -41.0683 49.3493 -200.1079
v  58.4376 135.8323 202.9491
v  -58.4249 135.8323 202.9491
v  -58.4249 118.9417 202.9491
v  58.4376 118.9417 202.9491
v  -58.4249 135.8323 201.2168
v  -58.4249 118.9417 201.2168
v  58.4376 135.8323 201.2168
v  58.4376 118.9417 201.2168
v  62.9985 25.3943 202.9267
v  -62.9858 25.3943 202.9267
v  -62.9858 25.3943 209.5412
v  62.9985 25.3943 209.5412
v  62.9985 16.0499 202.9267
v  62.9985 16.0499 209.5412
v  62.9985 56.5059 202.9267
v  -62.9858 56.5059 202.9267
v  -62.9858 16.0499 202.9267
v  -62.9858 16.0499 209.5413
v  62.9985 16.0499 117.1756
v  62.9985 21.6563 117.2246
v  62.9985 25.3943 116.4067
v  62.9985 127.2967 202.9267
v  62.9985 67.3808 197.8511
v  62.9985 126.9770 197.8511
v  62.9985 126.9770 174.1299
v  62.9985 126.9770 170.1940
v  62.9985 82.4175 174.1299
v  62.9985 82.4092 170.1940
v  62.9985 126.9770 122.9499
v  62.9985 126.9770 119.0576
v  62.9985 82.4092 122.9499
v  62.9985 82.5211 119.0576
v  62.9985 126.9770 59.9526
v  62.9985 126.9770 56.0534
v  62.9985 82.5211 59.9526
v  62.9985 82.5211 56.0534
v  62.9985 126.9770 -3.0517
v  62.9985 126.9770 -7.0105
v  62.9985 82.5211 -3.0517
v  62.9985 82.5211 -7.0105
v  62.9985 126.9770 -66.1156
v  62.9985 126.9770 -70.0744
v  62.9985 82.5211 -66.1156
v  62.9985 82.5211 -70.0744
v  62.9985 126.9770 -129.1795
v  62.9985 82.5211 -129.1795
v  62.9985 82.5211 -133.1958
v  62.9985 126.9770 -133.1959
v  62.9985 126.9770 -192.3009
v  62.9985 127.2968 -201.2967
v  62.9985 28.9516 115.6283
v  62.9985 28.9516 76.8813
v  62.9985 25.3943 76.1029
v  62.9985 25.3944 -117.6603
v  62.9985 35.1362 81.4269
v  62.9985 39.2687 88.2300
v  62.9985 40.7198 96.2548
v  62.9985 28.9516 -118.4386
v  62.9985 28.9516 -157.1857
v  62.9985 25.3944 -157.9641
v  62.9985 25.3944 -201.2968
v  62.9985 35.1363 -152.6400
v  62.9985 39.2687 -145.8369
v  62.9985 82.5211 -192.3009
v  62.9985 56.6346 -201.2967
v  62.9985 40.7198 -137.8122
v  62.9985 39.2687 -129.7874
v  62.9985 35.1362 -122.9843
v  62.9985 39.2687 104.2796
v  62.9985 35.1362 111.0827
v  57.7697 67.4225 202.9267
v  -57.7570 67.4225 202.9267
v  -62.9858 127.2967 202.9267
v  -57.7570 126.9770 202.9267
v  57.7697 126.9770 202.9267
v  -62.9858 25.4619 122.9499
v  -62.9858 126.9770 122.9499
v  -62.9858 82.5211 119.0576
v  -62.9858 82.5211 59.9526
v  -62.9858 82.5211 56.0534
v  -62.9858 35.1362 111.0826
v  -62.9858 82.5211 -129.1795
v  -62.9858 35.1363 -152.6401
v  -62.9858 39.2687 -145.8370
v  -62.9858 82.5211 -70.0744
v  -62.9858 82.5211 -66.1156
v  -62.9858 82.5211 -7.0105
v  -62.9858 82.5211 -3.0517
v  -62.9858 40.7198 -137.8122
v  -62.9858 39.2687 88.2300
v  -62.9858 28.9516 -118.4386
v  -62.9858 25.3944 -117.6603
v  -62.9858 25.3943 76.1029
v  -62.9858 35.1362 -122.9843
v  -62.9858 39.2687 -129.7874
v  -62.9858 28.9516 76.8813
v  -62.9858 35.1362 81.4269
v  -62.9858 40.7198 96.2548
v  -62.9858 39.2687 104.2795
v  -62.9858 28.9516 115.6283
v  -62.9858 25.3943 116.4067
v  -62.9858 25.4619 170.1940
v  -62.9858 127.2968 -201.2967
v  -62.9858 126.9770 174.1299
v  -62.9858 126.9770 197.8511
v  -62.9858 67.3808 197.8511
v  -62.9858 82.4328 174.1299
v  -62.9858 56.6346 -201.2967
v  -62.9858 25.3944 -201.2968
v  -62.9858 25.3944 -157.9641
v  -62.9858 28.9516 -157.1857
v  -62.9858 82.5211 -133.1959
v  -62.9858 82.5211 -192.3009
v  -62.9858 126.9770 -192.3009
v  -62.9858 126.9770 119.0577
v  -62.9858 126.9770 170.1940
v  -62.9858 126.9770 -133.1959
v  -62.9858 126.9770 -129.1795
v  -62.9858 126.9770 59.9526
v  -62.9858 126.9770 -70.0744
v  -62.9858 126.9770 -66.1156
v  -62.9858 126.9770 -3.0517
v  -62.9858 126.9770 -7.0105
v  -62.9858 126.9770 56.0534
v  -62.9858 21.6563 117.2246
v  -62.9858 16.0499 117.1756
v  -43.2255 16.0499 117.1756
v  -43.2255 16.0499 75.3340
v  -62.9858 16.0499 75.3340
v  -62.9858 16.0500 -116.8914
v  -43.2255 16.0500 -116.8914
v  -43.2255 16.0500 -158.7330
v  -62.9858 16.0500 -158.7330
v  -62.9858 16.0500 -201.2967
v  42.9523 16.0500 -158.7330
v  62.9985 16.0500 -201.2967
v  62.9985 16.0500 -158.7330
v  42.9523 16.0500 -116.8914
v  62.9985 16.0500 -116.8914
v  62.9985 16.0499 75.3340
v  42.9523 16.0499 75.3340
v  42.9523 16.0499 117.1756
v  42.9523 21.6563 117.2246
v  57.7697 67.4225 -201.2967
v  57.7697 126.9770 -201.2967
v  -57.7570 126.9770 -201.2967
v  -57.7570 67.4225 -201.2967
v  62.9985 135.8570 -201.2967
v  62.9985 135.8570 202.9335
v  42.9523 28.9516 115.6283
v  42.9523 35.1362 111.0826
v  42.9523 39.2687 104.2795
v  42.9523 40.7198 96.2548
v  42.9523 39.2687 88.2300
v  42.9523 35.1362 81.4269
v  42.9523 28.9516 76.8813
v  42.9523 21.6563 75.2850
v  62.9985 21.6563 75.2850
v  62.9985 21.6564 -116.8424
v  42.9523 28.9516 -118.4386
v  42.9523 35.1362 -122.9843
v  42.9523 39.2687 -129.7874
v  42.9523 40.7198 -137.8122
v  42.9523 39.2687 -145.8370
v  42.9523 35.1362 -152.6400
v  42.9523 28.9516 -157.1857
v  62.9985 21.6564 -158.7820
v  -62.9858 135.8570 202.9335
v  -62.9858 135.8570 -201.2967
v  -62.9858 21.6564 -158.7820
v  -43.2255 28.9516 -157.1857
v  -43.2255 35.1363 -152.6400
v  -43.2255 39.2687 -145.8369
v  -43.2255 40.7198 -137.8122
v  -43.2255 39.2687 -129.7874
v  -43.2255 35.1362 -122.9843
v  -43.2255 28.9516 -118.4386
v  -62.9858 21.6564 -116.8424
v  -62.9858 21.6563 75.2850
v  -43.2255 21.6563 75.2850
v  -43.2255 28.9516 76.8813
v  -43.2255 35.1362 81.4269
v  -43.2255 39.2687 88.2300
v  -43.2255 40.7198 96.2548
v  -43.2255 39.2687 104.2796
v  -43.2255 35.1362 111.0827
v  -43.2255 28.9516 115.6283
v  -43.2255 21.6563 117.2246
v  -43.2255 21.6564 -116.8424
v  -43.2255 21.6564 -158.7820
v  -62.9858 16.0500 -206.5914
v  62.9985 16.0500 -206.5915
v  42.9523 21.6564 -158.7820
v  42.9523 21.6564 -116.8424
v  62.9985 139.3975 -201.2967
v  62.9985 139.3975 205.4609
v  62.9985 25.3944 -206.5915
v  -62.9858 25.3944 -206.5914
v  57.7697 126.9770 -200.7153
v  57.7697 67.4225 -200.7153
v  -57.7570 67.4225 -200.7153
v  -57.7570 126.9770 -200.7153
v  62.5272 82.5211 -133.1958
v  62.5272 126.9770 -133.1959
v  62.5272 126.9770 -192.3009
v  62.5272 82.5211 -192.3009
v  62.5272 82.5211 -70.0744
v  62.5272 126.9770 -70.0744
v  62.5272 126.9770 -129.1795
v  62.5272 82.5211 -129.1795
v  62.5272 82.5211 -7.0105
v  62.5272 126.9770 -7.0105
v  62.5272 126.9770 -66.1156
v  62.5272 82.5211 -66.1156
v  62.5272 82.5211 56.0534
v  62.5272 126.9770 56.0534
v  62.5272 126.9770 -3.0517
v  62.5272 82.5211 -3.0517
v  62.5272 82.5211 119.0576
v  62.5272 126.9770 119.0576
v  62.5272 126.9770 59.9526
v  62.5272 82.5211 59.9526
v  62.5273 67.3808 197.8511
v  62.5273 126.9770 197.8511
v  62.5273 126.9770 174.1299
v  62.5273 82.4175 174.1299
v  62.5273 82.4092 170.1940
v  62.5273 126.9770 170.1940
v  62.5272 126.9770 122.9499
v  62.5272 82.4092 122.9499
v  -62.5147 126.9770 -133.1959
v  -62.5147 82.5211 -133.1959
v  -62.5147 82.5211 -192.3009
v  -62.5147 126.9770 -192.3009
v  -62.5147 126.9770 -70.0744
v  -62.5147 82.5211 -70.0744
v  -62.5147 82.5211 -129.1795
v  -62.5147 126.9770 -129.1795
v  -62.5147 126.9770 -7.0105
v  -62.5147 82.5211 -7.0105
v  -62.5147 82.5211 -66.1156
v  -62.5147 126.9770 -66.1156
v  -62.5147 126.9770 56.0534
v  -62.5147 82.5211 56.0534
v  -62.5147 82.5211 -3.0517
v  -62.5147 126.9770 -3.0517
v  -62.5147 126.9770 119.0577
v  -62.5147 82.5211 119.0576
v  -62.5147 82.5211 59.9526
v  -62.5147 126.9770 59.9526
v  -62.5147 126.9770 197.8511
v  -62.5147 67.3808 197.8511
v  -62.5147 82.4328 174.1299
v  -62.5147 126.9770 174.1299
v  -62.5147 126.9770 170.1940
v  -62.5147 25.4619 170.1940
v  -62.5147 25.4619 122.9499
v  -62.5147 126.9770 122.9499
v  -57.7570 67.4225 202.5103
v  -57.7570 126.9770 202.5103
v  57.7697 126.9770 202.5103
v  57.7697 67.4225 202.5103
v  -62.9858 139.3975 -201.2967
v  -62.9858 139.3975 205.4609
v  21.1333 143.0348 71.6190
v  -21.1205 143.0348 71.6190
v  -21.1205 133.6685 71.6190
v  21.1333 133.6685 71.6190
v  -21.1205 143.0348 0.4532
v  -21.1205 133.6685 0.4532
v  21.1333 143.0348 0.4532
v  21.1333 133.6685 0.4532
v  21.1332 143.0348 -85.3377
v  -21.1205 143.0348 -85.3377
v  -21.1205 133.6685 -85.3377
v  21.1332 133.6685 -85.3377
v  -21.1205 143.0348 -156.5035
v  -21.1205 133.6685 -156.5035
v  21.1332 143.0348 -156.5035
v  21.1332 133.6685 -156.5035
# 352 vertices

vn -0.1736 -0.0000 0.9848
vn -0.9865 -0.0000 0.1636
vn 0.1736 0.0000 -0.9848
vn 0.8711 -0.0000 0.4912
vn -0.0616 -0.9350 0.3492
vn -0.0616 0.9350 0.3492
vn 0.0000 0.0000 -1.0000
vn 0.0000 -1.0000 -0.0000
vn 0.0000 -0.0000 1.0000
vn -1.0000 0.0000 -0.0000
vn 0.0000 1.0000 0.0000
vn 1.0000 0.0000 -0.0000
vn -0.0000 1.0000 0.0000
vn 0.1736 -0.0000 0.9848
vn -0.8711 -0.0000 0.4912
vn -0.1736 0.0000 -0.9848
vn 0.9865 -0.0000 0.1636
vn 0.0616 -0.9350 0.3492
vn 0.0616 0.9350 0.3492
vn -0.0000 -1.0000 -0.0000
vn 0.0000 1.0000 -0.0000
vn 0.0000 0.0000 1.0000
vn -0.0000 -0.0000 -1.0000
vn 1.0000 -0.0000 -0.0000
vn -1.0000 0.0000 0.0000
vn 1.0000 -0.0000 0.0000
vn 1.0000 0.0000 0.0000
vn 0.8648 -0.0000 0.5022
vn -0.8648 -0.0000 0.5022
vn 0.7073 -0.0000 0.7069
vn -1.0000 -0.0000 0.0000
vn -1.0000 0.0001 0.0000
vn -1.0000 -0.0000 -0.0000
vn -1.0000 0.0001 -0.0000
vn 0.6614 -0.7500 -0.0000
vn -0.9606 -0.2779 -0.0000
vn 0.9487 -0.3162 -0.0000
vn 0.7482 0.6635 0.0000
vn -0.9808 -0.1952 0.0000
vn 0.0000 -1.0000 0.0000
vn -0.0000 -1.0000 0.0000
vn 0.0000 0.0087 -1.0000
vn -0.0000 0.0000 -1.0000
vn 0.0000 -0.5922 -0.8058
vn 0.0000 -0.8547 -0.5192
vn 0.0000 -0.9840 -0.1779
vn 0.0000 -0.9840 0.1779
vn -0.0000 -0.8547 0.5192
vn -0.0000 -0.5922 0.8058
vn 0.0000 -0.2137 0.9769
vn -0.0000 -0.9840 0.1779
vn 0.0000 -0.5922 0.8058
vn 0.0000 -0.0008 1.0000
vn -0.0000 -0.5922 -0.8058
vn -0.0000 -0.2137 0.9769
vn -0.0000 -0.2137 -0.9769
vn 0.0000 -0.2137 -0.9769
vn -0.0000 0.0087 1.0000
vn -0.0000 0.0087 -1.0000
vn 0.0000 0.0087 1.0000
vn 0.0000 -0.0000 -1.0000
vn 0.0000 0.8446 0.5354
vn 0.0000 0.8444 0.5358
vn 0.0000 -0.5810 0.8139
vn -0.0000 -0.0000 1.0000
# 65 vertex normals

vt 0.3334 0.1654 0.0000
vt 0.3351 0.1654 0.0000
vt 0.3351 0.1364 0.0000
vt 0.3334 0.1364 0.0000
vt 0.3387 0.1667 0.0000
vt 0.3387 0.1351 0.0000
vt 0.3366 0.1667 0.0000
vt 0.3366 0.1351 0.0000
vt 0.3363 0.1739 0.0000
vt 0.3363 0.1723 0.0000
vt 0.3346 0.1723 0.0000
vt 0.3346 0.1739 0.0000
vt 0.3363 0.1290 0.0000
vt 0.3346 0.1290 0.0000
vt 0.3363 0.1272 0.0000
vt 0.3346 0.1272 0.0000
vt 0.3350 0.1654 0.0000
vt 0.3333 0.1654 0.0000
vt 0.3333 0.1364 0.0000
vt 0.3350 0.1364 0.0000
vt 0.3365 0.1667 0.0000
vt 0.3365 0.1351 0.0000
vt 0.3386 0.1667 0.0000
vt 0.3386 0.1351 0.0000
vt 0.7740 0.9439 0.0000
vt 0.3364 0.9439 0.0000
vt 0.3364 0.8807 0.0000
vt 0.7740 0.8807 0.0000
vt 0.2929 0.1157 0.0000
vt 0.3429 0.1157 0.0000
vt 0.3429 0.1657 0.0000
vt 0.2929 0.1657 0.0000
vt 0.3782 0.6947 0.0000
vt 0.0067 0.6947 0.0000
vt 0.0067 0.6030 0.0000
vt 0.3782 0.6030 0.0000
vt 0.3417 0.1485 0.0000
vt 0.3326 0.1205 0.0000
vt 0.3032 0.1205 0.0000
vt 0.2941 0.1485 0.0000
vt 0.3179 0.1657 0.0000
vt 0.4971 0.4693 0.0000
vt 0.5023 0.4688 0.0000
vt 0.5072 0.4672 0.0000
vt 0.5118 0.4646 0.0000
vt 0.5156 0.4611 0.0000
vt 0.5219 0.4469 0.0000
vt 0.5187 0.4568 0.0000
vt 0.5208 0.4521 0.0000
vt 0.5219 0.4417 0.0000
vt 0.5156 0.4276 0.0000
vt 0.5208 0.4366 0.0000
vt 0.5187 0.4318 0.0000
vt 0.5118 0.4241 0.0000
vt 0.4971 0.4193 0.0000
vt 0.5072 0.4215 0.0000
vt 0.5023 0.4199 0.0000
vt 0.4919 0.4199 0.0000
vt 0.4785 0.4276 0.0000
vt 0.4869 0.4215 0.0000
vt 0.4824 0.4241 0.0000
vt 0.4754 0.4318 0.0000
vt 0.4722 0.4469 0.0000
vt 0.4733 0.4366 0.0000
vt 0.4722 0.4417 0.0000
vt 0.4733 0.4521 0.0000
vt 0.4754 0.4568 0.0000
vt 0.4785 0.4611 0.0000
vt 0.4824 0.4646 0.0000
vt 0.4869 0.4672 0.0000
vt 0.4919 0.4688 0.0000
vt 0.0382 0.2674 0.0000
vt 0.2293 0.2674 0.0000
vt 0.2308 0.2751 0.0000
vt 0.0492 0.3582 0.0000
vt 0.3070 0.2751 0.0000
vt 0.3086 0.2674 0.0000
vt 0.7356 0.2674 0.0000
vt 0.2981 0.2885 0.0000
vt 0.2847 0.2974 0.0000
vt 0.2689 0.3006 0.0000
vt 0.7371 0.2751 0.0000
vt 0.8133 0.2751 0.0000
vt 0.8148 0.2674 0.0000
vt 0.9125 0.2674 0.0000
vt 0.8044 0.2885 0.0000
vt 0.7910 0.2974 0.0000
vt 0.8931 0.3910 0.0000
vt 0.9125 0.3350 0.0000
vt 0.9125 0.4878 0.0000
vt 0.8931 0.4871 0.0000
vt 0.7752 0.3006 0.0000
vt 0.7594 0.2974 0.0000
vt 0.7460 0.2885 0.0000
vt 0.3475 0.3910 0.0000
vt 0.2196 0.3910 0.0000
vt 0.2112 0.3907 0.0000
vt 0.3559 0.3910 0.0000
vt 0.1090 0.3907 0.0000
vt 0.1005 0.3908 0.0000
vt 0.4837 0.3910 0.0000
vt 0.4923 0.3910 0.0000
vt 0.6201 0.3910 0.0000
vt 0.6287 0.3910 0.0000
vt 0.7565 0.3910 0.0000
vt 0.7652 0.3910 0.0000
vt 0.2532 0.2974 0.0000
vt 0.2398 0.2885 0.0000
vt 0.0382 0.3347 0.0000
vt 0.2112 0.2676 0.0000
vt 0.2112 0.4871 0.0000
vt 0.1090 0.2676 0.0000
vt 0.2196 0.4871 0.0000
vt 0.1090 0.4871 0.0000
vt 0.1005 0.4871 0.0000
vt 0.5131 0.4635 0.0000
vt 0.5217 0.4487 0.0000
vt 0.5217 0.4400 0.0000
vt 0.5056 0.4678 0.0000
vt 0.4885 0.4678 0.0000
vt 0.5131 0.4252 0.0000
vt 0.5056 0.4208 0.0000
vt 0.4725 0.4400 0.0000
vt 0.4885 0.4208 0.0000
vt 0.4810 0.4252 0.0000
vt 0.4725 0.4487 0.0000
vt 0.4810 0.4635 0.0000
vt 0.3256 0.1645 0.0000
vt 0.3326 0.1610 0.0000
vt 0.3381 0.1554 0.0000
vt 0.3429 0.1407 0.0000
vt 0.3417 0.1330 0.0000
vt 0.3381 0.1260 0.0000
vt 0.3256 0.1169 0.0000
vt 0.3179 0.1157 0.0000
vt 0.2977 0.1260 0.0000
vt 0.3102 0.1169 0.0000
vt 0.2941 0.1330 0.0000
vt 0.2929 0.1407 0.0000
vt 0.2977 0.1554 0.0000
vt 0.3032 0.1610 0.0000
vt 0.3102 0.1645 0.0000
vt 0.4721 0.4193 0.0000
vt 0.5221 0.4193 0.0000
vt 0.5221 0.4693 0.0000
vt 0.4721 0.4693 0.0000
vt 0.3396 0.1282 0.0000
vt 0.2963 0.1282 0.0000
vt 0.3396 0.1532 0.0000
vt 0.2963 0.1532 0.0000
vt 0.3774 0.8156 0.0000
vt 0.0071 0.8156 0.0000
vt 0.0071 0.7238 0.0000
vt 0.3774 0.7238 0.0000
vt 0.3314 0.1618 0.0000
vt 0.3406 0.1511 0.0000
vt 0.3426 0.1372 0.0000
vt 0.3368 0.1244 0.0000
vt 0.3249 0.1167 0.0000
vt 0.3109 0.1167 0.0000
vt 0.2990 0.1244 0.0000
vt 0.2932 0.1372 0.0000
vt 0.2952 0.1511 0.0000
vt 0.3044 0.1618 0.0000
vt 0.3561 0.1615 0.0000
vt 0.3061 0.1615 0.0000
vt 0.1502 0.0837 0.0000
vt 0.2002 0.0837 0.0000
vt 0.2002 0.1337 0.0000
vt 0.1502 0.1337 0.0000
vt 0.4700 0.8129 0.0000
vt 0.4700 0.6588 0.0000
vt 0.6748 0.6588 0.0000
vt 0.6748 0.8129 0.0000
vt 0.6747 0.6588 0.0000
vt 0.6747 0.8129 0.0000
vt 0.4702 0.8129 0.0000
vt 0.4702 0.6588 0.0000
vt 0.6750 0.6588 0.0000
vt 0.6750 0.8129 0.0000
vt 0.4701 0.8129 0.0000
vt 0.4701 0.6588 0.0000
vt 0.6749 0.6588 0.0000
vt 0.6749 0.8129 0.0000
vt 0.5932 0.8129 0.0000
vt 0.5932 0.6064 0.0000
vt 0.6754 0.6585 0.0000
vt 0.6754 0.8129 0.0000
vt 0.5112 0.8129 0.0000
vt 0.5112 0.6584 0.0000
vt 0.6749 0.6584 0.0000
vt 0.3496 0.2752 0.0000
vt 0.3996 0.2752 0.0000
vt 0.3996 0.3252 0.0000
vt 0.3496 0.3252 0.0000
vt 0.7803 0.9734 0.0000
vt 0.7803 0.5132 0.0000
vt 0.9945 0.5132 0.0000
vt 0.9945 0.9734 0.0000
vt 0.3047 0.0714 0.0000
vt 0.3547 0.0714 0.0000
vt 0.3547 0.1214 0.0000
vt 0.3047 0.1214 0.0000
vt 0.1481 0.4895 0.0000
vt 0.1981 0.4895 0.0000
vt 0.1981 0.5395 0.0000
vt 0.1481 0.5395 0.0000
# 207 texture coords

g Body
usemtl SPW_Vehicle_Land_School_Bus
s off
f 113/57/79 114/58/79 115/59/79 116/60/79 
f 114/58/80 117/61/80 118/62/80 115/59/80 
f 117/61/81 119/63/81 120/64/81 118/62/81 
f 119/63/82 113/57/82 116/60/82 120/64/82 
f 116/60/83 115/59/83 118/62/83 120/64/83 
f 119/63/84 117/61/84 114/58/84 113/57/84 
s 1
f 121/65/85 122/65/85 123/66/85 124/66/85 
s off
f 125/67/86 123/66/86 126/66/86 127/67/86 
s 1
f 128/68/87 129/68/87 130/67/87 125/67/87 
s 2
f 129/68/88 121/65/88 124/66/88 130/67/88 
f 130/67/88 124/66/88 131/69/88 132/70/88 
s 4
f 129/68/89 128/68/89 122/65/89 121/65/89 
s off
f 133/65/90 134/68/90 127/67/90 126/66/90 
s 1
f 128/68/87 125/67/87 127/67/87 134/68/87 
s 4
f 122/65/89 128/68/89 134/68/89 133/65/89 
s 1
f 123/66/85 122/65/85 133/65/85 126/66/85 
s 2
f 132/70/88 131/69/88 135/71/88 136/72/88 
s 1
f 125/67/87 130/67/87 132/70/87 137/70/87 
s off
f 123/66/90 125/67/90 137/70/90 138/69/90 
s 1
f 124/66/85 123/66/85 138/69/85 131/69/85 
s 4
f 135/71/86 139/71/86 140/72/86 136/72/86 
s 1
f 137/70/87 132/70/87 136/72/87 140/72/87 
f 139/71/85 138/69/85 141/69/85 142/71/85 
f 131/69/85 138/69/85 139/71/85 135/71/85 
s off
f 141/69/90 143/70/90 144/72/90 142/71/90 
s 1
f 137/70/87 140/72/87 144/72/87 143/70/87 
s 4
f 140/72/86 139/71/86 142/71/86 144/72/86 
s off
f 138/69/91 137/70/91 143/70/91 141/69/91 
f 145/73/92 146/74/92 147/75/92 148/76/92 
f 146/74/93 149/77/93 150/78/93 147/75/93 
f 149/77/94 151/79/94 152/80/94 150/78/94 
f 151/79/95 145/73/95 148/76/95 152/80/95 
f 148/76/96 147/75/96 150/78/96 152/80/96 
f 151/79/97 149/77/97 146/74/97 145/73/97 
s 1
f 153/68/87 154/68/87 155/67/87 156/67/87 
s off
f 157/66/86 155/67/86 158/67/86 159/66/86 
s 1
f 160/65/85 161/65/85 162/66/85 157/66/85 
s 2
f 161/65/90 153/68/90 156/67/90 162/66/90 
f 162/66/90 156/67/90 163/70/90 164/69/90 
s 4
f 161/65/89 160/65/89 154/68/89 153/68/89 
s off
f 165/68/88 166/65/88 159/66/88 158/67/88 
s 1
f 160/65/85 157/66/85 159/66/85 166/65/85 
s 4
f 154/68/89 160/65/89 166/65/89 165/68/89 
s 1
f 155/67/87 154/68/87 165/68/87 158/67/87 
s 2
f 164/69/90 163/70/90 167/72/90 168/71/90 
s 1
f 157/66/85 162/66/85 164/69/85 169/69/85 
s off
f 155/67/88 157/66/88 169/69/88 170/70/88 
s 1
f 156/67/87 155/67/87 170/70/87 163/70/87 
s 4
f 167/72/86 171/72/86 172/71/86 168/71/86 
s 1
f 169/69/85 164/69/85 168/71/85 172/71/85 
f 171/72/87 170/70/87 173/70/87 174/72/87 
f 163/70/87 170/70/87 171/72/87 167/72/87 
s off
f 173/70/88 175/69/88 176/71/88 174/72/88 
s 1
f 169/69/85 172/71/85 176/71/85 175/69/85 
s 4
f 172/71/86 171/72/86 174/72/86 176/71/86 
s off
f 170/70/89 169/69/89 175/69/89 173/70/89 
f 177/81/85 178/82/85 179/83/85 180/84/85 
f 178/82/90 181/82/90 182/83/90 179/83/90 
f 181/82/87 183/81/87 184/84/87 182/83/87 
f 183/81/88 177/81/88 180/84/88 184/84/88 
f 180/84/98 179/83/98 182/83/98 184/84/98 
f 183/81/99 181/82/99 178/82/99 177/81/99 
f 185/81/100 186/82/100 187/83/100 188/84/100 
f 186/82/88 189/82/88 190/83/88 187/83/88 
f 189/82/101 191/81/101 192/84/101 190/83/101 
f 191/81/90 185/81/90 188/84/90 192/84/90 
f 188/84/86 187/83/86 190/83/86 192/84/86 
f 191/81/89 189/82/89 186/82/89 185/81/89 
f 193/85/89 194/86/89 195/87/89 196/88/89 
s 1
f 197/85/102 193/86/102 196/87/90 198/88/90 
s off
f 199/89/87 200/90/87 194/91/87 193/92/87 
s 1
f 194/85/88 201/86/103 202/87/88 195/88/88 
s off
f 196/85/100 195/86/100 202/87/100 198/88/100 
s 2
f 201/85/86 197/86/86 198/87/86 202/88/86 
s 1
f 193/93/102 197/94/102 203/95/90 204/96/102 
f 205/97/102 193/93/102 204/96/102 
s off
f 206/98/90 199/99/90 207/100/90 208/101/90 
f 206/98/104 208/101/104 209/102/104 210/103/104 
f 209/102/90 211/104/90 212/105/90 210/103/90 
f 206/98/90 210/103/90 213/106/90 214/107/90 
f 213/106/90 215/108/90 216/109/90 214/107/90 
f 206/98/104 214/107/104 217/110/104 218/111/104 
f 217/110/90 219/112/90 220/113/90 218/111/90 
f 206/98/90 218/111/90 221/114/90 222/115/90 
f 221/114/90 223/116/90 224/117/90 222/115/90 
f 206/98/104 222/115/104 225/118/104 226/119/104 
f 225/118/104 227/120/104 228/121/104 226/119/104 
f 229/122/105 230/123/105 231/124/105 232/125/105 
f 226/119/102 229/122/102 232/125/102 206/98/102 
f 206/98/90 232/125/90 233/126/90 234/127/90 
s 1
f 193/128/102 205/129/102 235/130/102 207/131/102 
f 236/132/90 237/133/90 238/134/102 239/135/90 
f 240/136/104 239/135/90 238/134/102 241/137/90 
f 241/137/90 238/134/102 242/138/102 207/131/102 
f 243/139/104 244/140/90 245/141/90 246/142/90 
f 247/143/90 246/142/90 245/141/90 248/144/105 
f 249/145/104 234/146/104 233/147/104 245/141/90 
f 245/141/90 233/147/104 248/144/105 
f 250/148/105 247/143/90 248/144/105 251/149/105 
f 252/150/90 251/149/105 248/144/105 207/131/102 
f 219/151/90 216/152/90 215/153/90 220/154/102 
f 212/155/102 211/156/104 207/131/102 215/153/90 
f 220/154/102 215/153/90 207/131/102 223/157/90 
f 224/158/102 223/157/90 207/131/102 227/159/105 
f 228/160/102 227/159/105 207/131/102 230/161/105 
f 231/162/102 230/161/105 207/131/102 248/144/105 
f 242/138/102 252/150/90 207/131/102 
f 253/163/90 241/137/90 207/131/102 254/164/90 
f 235/130/102 254/164/90 207/131/102 
f 193/128/102 207/131/102 199/165/106 
f 200/104/107 199/109/106 255/111/87 256/118/87 
f 257/98/87 200/104/107 256/118/87 258/123/100 
f 206/98/108 257/104/87 258/109/100 259/111/87 
f 206/98/108 259/111/87 255/118/87 199/123/106 
f 260/166/109 261/167/110 262/152/88 263/151/88 
f 260/166/109 263/151/88 264/154/109 265/164/111 
f 266/161/88 267/142/109 268/143/109 269/160/88 
f 270/159/88 269/160/88 268/143/109 271/158/109 
f 272/157/109 271/158/109 268/143/109 264/154/109 
f 264/154/109 268/143/109 273/148/88 274/136/103 
f 275/138/103 276/134/103 277/133/103 278/150/103 
f 279/149/103 278/150/103 277/133/103 273/148/88 
f 273/148/88 277/133/103 280/132/109 281/135/109 
f 273/148/88 281/135/109 274/136/103 
f 264/154/109 274/136/103 282/137/103 283/163/111 
f 264/154/109 283/163/111 265/164/111 
f 260/166/109 265/164/111 284/130/111 285/129/103 
f 286/168/112 260/166/109 285/129/103 194/128/88 
s off
f 257/98/109 287/104/109 288/109/109 289/111/109 
f 257/98/88 289/111/88 290/118/88 200/123/88 
s 1
f 200/165/107 290/131/111 291/156/111 286/168/112 
f 292/145/109 293/141/88 294/140/88 295/139/109 
f 295/139/109 267/142/109 266/161/88 296/162/88 
f 292/145/109 295/139/109 296/162/88 297/144/111 
f 287/146/88 292/145/109 297/144/111 298/147/111 
f 299/169/113 262/152/88 261/167/110 298/147/111 
f 287/146/88 298/147/111 261/167/110 300/170/109 
f 288/171/111 287/146/88 300/170/109 291/156/111 
f 291/156/111 300/170/109 286/168/112 
f 194/128/88 200/165/107 286/168/112 
s off
f 301/172/88 296/104/88 266/173/88 302/174/88 
f 298/175/114 301/172/114 302/174/114 303/176/114 
f 304/109/111 269/177/111 270/178/111 305/111/111 
f 302/174/88 304/109/88 305/111/88 306/179/88 
f 307/180/88 271/181/88 272/118/88 306/179/88 
f 305/111/115 307/180/115 306/179/115 
f 308/182/88 264/123/88 263/183/88 303/176/88 
f 306/179/116 308/182/116 303/176/116 302/174/116 
f 299/98/117 298/175/117 303/176/117 
s 1
f 194/97/88 285/93/103 309/94/103 310/95/109 
f 194/97/88 310/95/109 201/96/103 
s 2
f 197/97/86 201/184/86 310/185/98 311/186/98 
f 312/93/98 313/187/98 314/188/98 315/189/86 
f 316/94/86 317/190/118 318/191/86 319/192/98 
f 318/191/86 320/193/86 321/95/119 319/192/98 
f 315/189/86 316/94/86 319/192/98 312/93/98 
f 311/186/98 312/93/98 319/192/98 322/194/98 
f 322/194/98 323/195/86 324/96/98 325/196/86 
f 311/186/98 322/194/98 325/196/86 326/197/86 
f 197/97/86 311/186/98 326/197/86 203/198/86 
s off
f 204/85/120 203/86/120 326/87/120 327/88/120 
s 2
f 234/98/121 249/104/85 328/109/85 329/111/121 
f 234/98/121 329/111/121 330/118/101 287/123/121 
f 331/109/121 328/111/85 249/118/85 292/123/121 
f 330/104/101 331/109/121 292/123/121 287/98/121 
s 1
f 332/199/90 333/200/90 206/201/108 234/202/104 
s off
f 254/85/122 235/86/122 334/87/122 335/88/122 
f 253/85/123 254/86/123 335/87/123 336/88/123 
f 241/85/124 253/86/124 336/87/124 337/88/124 
f 240/85/125 241/86/125 337/87/125 338/88/125 
f 239/85/126 240/86/126 338/87/126 339/88/126 
f 236/85/127 239/86/127 339/87/127 340/88/127 
f 340/97/128 341/93/128 342/94/128 237/95/128 
f 340/97/128 237/95/128 236/96/128 
s 1
f 342/203/90 324/191/102 323/204/90 237/205/90 
f 237/205/90 323/204/90 343/206/102 238/97/102 
s off
f 252/85/122 242/86/122 344/87/122 345/88/122 
f 251/85/123 252/86/123 345/87/123 346/88/123 
f 250/85/124 251/86/124 346/87/124 347/88/124 
f 247/85/129 250/86/129 347/87/129 348/88/129 
f 246/85/126 247/86/126 348/87/126 349/88/126 
f 243/85/130 246/86/130 349/87/130 350/88/130 
s 1
f 245/97/90 244/93/90 351/94/90 321/95/90 
f 245/97/90 321/95/90 320/96/90 
s 2
f 292/207/121 249/208/85 245/209/121 293/210/121 
s off
f 333/199/131 352/200/131 257/201/131 206/202/131 
f 352/199/109 353/200/109 287/201/109 257/202/109 
s 1
f 293/93/88 318/94/88 317/95/88 354/96/88 
f 294/97/88 293/93/88 354/96/88 
s off
f 267/85/127 295/86/127 355/87/127 356/88/127 
f 268/85/126 267/86/126 356/87/126 357/88/126 
f 273/85/129 268/86/129 357/87/129 358/88/129 
f 279/85/124 273/86/124 358/87/124 359/88/124 
f 278/85/123 279/86/123 359/87/123 360/88/123 
f 275/85/132 278/86/132 360/87/132 361/88/132 
s 1
f 362/203/103 314/191/109 313/204/103 276/205/103 
f 276/205/103 313/204/103 363/206/109 277/97/103 
s off
f 280/97/133 277/93/133 363/94/133 364/95/133 
f 280/97/133 364/95/133 365/96/133 
f 281/85/127 280/86/127 365/87/127 366/88/127 
f 274/85/126 281/86/126 366/87/126 367/88/126 
f 282/85/129 274/86/129 367/87/129 368/88/129 
f 283/85/124 282/86/124 368/87/124 369/88/124 
f 265/85/123 283/86/123 369/87/123 370/88/123 
f 284/85/122 265/86/122 370/87/122 371/88/122 
f 285/97/134 284/93/134 371/94/134 372/95/134 
f 285/97/135 372/95/135 309/96/135 
f 311/85/120 310/86/120 309/87/120 372/88/120 
f 312/97/88 311/211/88 372/212/88 371/213/88 
f 312/97/109 371/213/109 370/214/109 369/215/109 
f 312/97/109 369/215/109 368/216/109 367/217/109 
f 312/97/88 367/217/88 366/218/88 365/219/88 
f 312/97/88 365/219/88 364/220/88 
f 363/85/136 313/86/136 312/87/136 364/88/136 
f 315/85/137 314/86/137 362/87/137 373/88/137 
f 316/97/88 315/211/88 373/212/88 361/213/88 
f 316/97/88 361/213/88 360/214/88 359/215/88 
f 316/97/88 359/215/88 358/216/88 357/217/88 
f 316/97/103 357/217/103 356/218/103 355/219/103 
f 316/97/88 355/219/88 374/220/88 
f 354/85/138 317/86/138 316/87/138 374/88/138 
s 2
f 320/85/86 318/86/86 375/87/86 376/88/86 
s off
f 377/85/136 319/86/136 321/87/136 351/88/136 
f 322/97/90 319/211/90 377/212/90 350/213/90 
f 322/97/102 350/213/102 349/214/102 348/215/102 
f 322/97/105 348/215/105 347/216/105 346/217/105 
f 322/97/90 346/217/90 345/218/90 344/219/90 
f 322/97/90 344/219/90 378/220/90 
f 343/85/137 323/86/137 322/87/137 378/88/137 
f 341/85/136 325/86/136 324/87/136 342/88/136 
f 326/97/90 325/211/90 341/212/90 340/213/90 
f 326/97/90 340/213/90 339/214/90 338/215/90 
f 326/97/102 338/215/102 337/216/102 336/217/102 
f 326/97/102 336/217/102 335/218/102 334/219/102 
f 326/97/104 334/219/104 327/220/104 
f 334/97/135 235/93/135 205/94/135 204/95/135 
f 334/97/135 204/95/135 327/96/135 
s 2
f 353/199/121 332/200/121 234/201/121 287/202/121 
s 1
f 333/221/90 332/222/90 379/222/90 380/221/90 
s off
f 344/97/134 242/93/134 238/94/134 343/95/134 
f 344/97/135 343/95/135 378/96/135 
f 377/97/133 351/93/133 244/94/133 243/95/133 
f 377/97/128 243/95/128 350/96/128 
s 1
f 245/85/90 320/86/90 376/87/90 381/88/90 
s off
f 293/85/89 245/86/89 381/87/89 382/88/89 
s 1
f 318/85/88 293/86/88 382/87/88 375/88/88 
s off
f 355/97/133 295/93/133 294/94/133 354/95/133 
f 355/97/128 354/95/128 374/96/128 
f 276/93/135 275/94/135 361/95/135 362/97/135 
f 362/97/134 361/95/134 373/96/134 
f 382/85/121 381/86/121 376/87/121 375/88/121 
f 383/223/121 384/224/121 385/225/121 386/226/121 
f 329/199/88 328/200/88 384/201/88 383/202/88 
f 330/199/86 329/200/86 383/201/86 386/202/86 
f 331/199/90 330/200/90 386/201/90 385/202/90 
f 328/199/89 331/200/89 385/201/89 384/202/89 
f 232/199/139 231/200/139 387/201/139 388/202/139 
f 233/199/86 232/200/86 388/201/86 389/202/86 
f 388/227/102 387/228/102 390/229/102 389/230/102 
f 231/199/89 248/200/89 390/201/89 387/202/89 
f 248/199/87 233/200/87 389/201/87 390/202/87 
f 226/199/85 228/200/85 391/201/85 392/202/85 
f 229/199/86 226/200/86 392/201/86 393/202/86 
f 392/227/90 391/228/90 394/229/90 393/230/90 
f 228/199/89 230/200/89 394/201/89 391/202/89 
f 230/199/87 229/200/87 393/201/87 394/202/87 
f 222/199/101 224/200/101 395/201/101 396/202/101 
f 225/199/118 222/200/118 396/201/118 397/202/118 
f 396/227/90 395/228/90 398/231/90 397/232/90 
f 224/199/89 227/200/89 398/201/89 395/202/89 
f 227/199/87 225/200/87 397/201/87 398/202/87 
f 218/199/85 220/200/85 399/201/85 400/202/85 
f 221/199/86 218/200/86 400/201/86 401/202/86 
f 400/233/90 399/234/90 402/235/90 401/236/90 
f 220/199/89 223/200/89 402/201/89 399/202/89 
f 223/199/100 221/200/100 401/201/100 402/202/100 
f 214/199/85 216/200/85 403/201/85 404/202/85 
f 217/199/118 214/200/118 404/201/118 405/202/118 
f 404/237/90 403/238/90 406/239/90 405/240/90 
f 216/199/89 219/200/89 406/201/89 403/202/89 
f 219/199/87 217/200/87 405/201/87 406/202/87 
f 208/199/85 207/200/85 407/201/85 408/202/85 
f 209/199/118 208/200/118 408/201/118 409/202/118 
f 408/241/104 407/242/104 410/243/104 409/244/104 
f 207/199/140 211/200/140 410/201/140 407/202/140 
f 211/199/87 209/200/87 409/201/87 410/202/87 
f 210/199/85 212/200/85 411/201/85 412/202/85 
f 213/199/86 210/200/86 412/201/86 413/202/86 
f 412/245/90 411/246/90 414/247/90 413/240/90 
f 212/199/89 215/200/89 414/201/89 411/202/89 
f 215/199/87 213/200/87 413/201/87 414/202/87 
f 296/199/85 301/200/85 415/201/85 416/202/85 
f 297/199/89 296/200/89 416/201/89 417/202/89 
f 418/230/109 417/229/109 416/228/109 415/227/109 
f 301/199/86 298/200/86 418/201/86 415/202/86 
f 298/199/87 297/200/87 417/201/87 418/202/87 
f 269/199/139 304/200/139 419/201/139 420/202/139 
f 266/199/89 269/200/89 420/201/89 421/202/89 
f 422/230/109 421/229/109 420/228/109 419/227/109 
f 304/199/86 302/200/86 422/201/86 419/202/86 
f 302/199/87 266/200/87 421/201/87 422/202/87 
f 271/199/85 307/200/85 423/201/85 424/202/85 
f 270/199/89 271/200/89 424/201/89 425/202/89 
f 426/232/109 425/231/109 424/228/109 423/227/109 
f 307/199/118 305/200/118 426/201/118 423/202/118 
f 305/199/100 270/200/100 425/201/100 426/202/100 
f 264/199/85 308/200/85 427/201/85 428/202/85 
f 272/199/89 264/200/89 428/201/89 429/202/89 
f 430/236/109 429/235/109 428/234/109 427/233/109 
f 308/199/86 306/200/86 430/201/86 427/202/86 
f 306/199/87 272/200/87 429/201/87 430/202/87 
f 262/199/85 299/200/85 431/201/85 432/202/85 
f 263/199/89 262/200/89 432/201/89 433/202/89 
f 434/240/88 433/239/88 432/238/88 431/237/88 
f 299/199/118 303/200/118 434/201/118 431/202/118 
f 303/199/87 263/200/87 433/201/87 434/202/87 
f 290/199/85 289/200/85 435/201/85 436/202/85 
f 291/199/141 290/200/141 436/201/141 437/202/141 
f 438/244/88 437/243/88 436/242/88 435/241/88 
f 289/199/118 288/200/118 438/201/118 435/202/118 
f 288/199/87 291/200/87 437/201/87 438/202/87 
f 286/248/85 300/249/85 439/250/85 440/251/85 
f 260/248/89 286/249/89 440/250/89 441/251/89 
f 442/252/109 441/253/109 440/254/109 439/255/109 
f 300/199/86 261/200/86 442/201/86 439/202/86 
f 261/248/87 260/249/87 441/250/87 442/251/87 
f 258/199/90 256/200/90 443/201/90 444/202/90 
f 259/199/86 258/200/86 444/201/86 445/202/86 
f 444/223/87 443/224/87 446/225/87 445/226/87 
f 256/199/89 255/200/89 446/201/89 443/202/89 
f 255/199/88 259/200/88 445/201/88 446/202/88 
f 379/256/91 447/257/91 448/258/91 380/259/91 
f 352/221/142 333/222/142 380/222/142 448/221/142 
f 353/221/109 352/222/109 448/222/109 447/221/109 
s 2
f 332/221/121 353/222/121 447/222/121 379/221/121 
s off
f 449/260/87 450/261/87 451/262/87 452/263/87 
f 450/260/109 453/261/109 454/262/109 451/263/109 
f 453/260/121 455/261/121 456/262/121 454/263/121 
f 455/260/90 449/261/90 452/262/90 456/263/90 
f 452/260/86 451/261/86 454/262/86 456/263/86 
f 455/260/91 453/261/91 450/262/91 449/263/91 
f 457/260/143 458/261/143 459/262/143 460/263/143 
f 458/260/109 461/261/109 462/262/109 459/263/109 
f 461/260/85 463/261/85 464/262/85 462/263/85 
f 463/260/90 457/261/90 460/262/90 464/263/90 
f 460/260/98 459/261/98 462/262/98 464/263/98 
f 463/260/89 461/261/89 458/262/89 457/263/89 
# 321 polygons - 26 triangles

