# 3ds Max Wavefront OBJ Exporter v0.97b - (c)2007 guruware
# File Created: 15.03.2017 11:10:26

mtllib SPW_Urban_Road Props_Grass Median_02.mtl

#
# object SPW_Urban_Road_Props_Grass_Median_02
#

v  -393.7008 7.8740 59.0551
v  -393.7008 7.8740 -59.0551
v  -393.7008 0.0000 -59.0551
v  -393.7008 -0.0000 59.0551
v  393.7008 7.8740 -59.0551
v  393.7008 0.0000 -59.0551
v  393.7008 7.8740 59.0551
v  393.7008 -0.0000 59.0551
v  393.7007 7.8740 47.2441
v  -393.7007 7.8740 47.2441
v  393.7007 7.8740 -47.2441
v  -393.7007 7.8740 -47.2441
# 12 vertices

vn -1.0000 0.0000 -0.0000
vn 0.0000 0.0000 -1.0000
vn 1.0000 0.0000 -0.0000
vn 0.0000 -0.0000 1.0000
vn 0.0000 -1.0000 -0.0000
vn 0.0000 1.0000 0.0000
# 6 vertex normals

vt 0.2585 0.8515 0.0000
vt 0.3085 0.8515 0.0000
vt 0.3085 0.9015 0.0000
vt 0.2585 0.9015 0.0000
vt 0.3643 0.5070 0.0000
vt 0.4143 0.5070 0.0000
vt 0.4143 0.5570 0.0000
vt 0.3643 0.5570 0.0000
# 8 texture coords

g SPW_Urban_Road_Props_Grass_Median_02
usemtl SPW_Urban_Road
s off
f 1/1/1 2/2/1 3/3/1 4/4/1 
f 2/1/2 5/2/2 6/3/2 3/4/2 
f 5/1/3 7/2/3 8/3/3 6/4/3 
f 7/1/4 1/2/4 4/3/4 8/4/4 
f 4/1/5 3/2/5 6/3/5 8/4/5 
s 1
f 1/1/6 7/2/6 9/3/6 10/4/6 
f 9/5/6 11/6/6 12/7/6 10/8/6 
s off
f 7/1/6 5/2/6 11/3/6 9/4/6 
s 1
f 5/1/6 2/2/6 12/3/6 11/4/6 
s off
f 2/1/6 1/2/6 10/3/6 12/4/6 
# 10 polygons

