# 3ds Max Wavefront OBJ Exporter v0.97b - (c)2007 guruware
# File Created: 15.03.2017 11:13:03

mtllib SPW_Urban_Road Props_Traffic Signal_01.mtl

#
# object SPW_Urban_Road_Props_Traffic_Signal_01
#

v  7.4596 178.4860 -4.7876
v  7.4596 178.4860 4.7640
v  9.4296 176.5160 4.7640
v  9.4296 176.5160 -4.7876
v  9.4296 125.1967 4.7639
v  9.4296 125.1967 -4.7876
v  7.4596 123.2267 4.7639
v  7.4596 123.2267 -4.7876
v  -7.4597 123.2267 4.7639
v  -7.4597 123.2267 -4.7876
v  -9.4296 125.1967 4.7639
v  -9.4296 125.1967 -4.7876
v  -9.4296 176.5160 4.7640
v  -9.4296 176.5160 -4.7876
v  6.5015 124.3613 4.7639
v  -6.5015 124.3613 4.7639
v  -7.4597 178.4860 4.7640
v  -7.4597 178.4860 -4.7876
v  6.5015 177.3514 4.7640
v  -6.5015 177.3514 4.7640
v  -6.5015 177.3514 4.5213
v  6.5015 177.3514 4.5213
v  -8.2185 175.4623 4.7640
v  8.2184 175.4623 4.7640
v  8.2184 126.2504 4.7639
v  -8.2185 126.2504 4.7639
v  8.2184 175.4623 4.5213
v  -8.2185 175.4623 4.5213
v  -8.2185 126.2504 4.5213
v  -6.5015 124.3613 4.5213
v  6.5015 124.3613 4.5213
v  8.2184 126.2504 4.5213
v  -5.5137 147.8291 4.2593
v  -2.2838 144.5993 4.2593
v  -1.8335 145.6865 5.4327
v  -4.4264 148.2795 5.4327
v  4.4264 148.2795 5.4327
v  4.4264 151.9464 5.4327
v  1.3997 150.6927 6.4431
v  1.3997 149.5332 6.4431
v  2.2838 155.6266 4.2593
v  -2.2838 155.6266 4.2593
v  -1.8335 154.5394 5.4327
v  1.8335 154.5394 5.4327
v  5.5136 152.3968 4.2593
v  2.2838 144.5993 4.2593
v  5.5136 147.8291 4.2593
v  1.8335 145.6865 5.4327
v  -5.5137 152.3968 4.2593
v  -4.4264 151.9465 5.4327
v  0.5798 151.5126 6.4431
v  -0.5798 151.5126 6.4431
v  -1.3997 150.6927 6.4431
v  -1.3997 149.5332 6.4431
v  -0.5798 148.7133 6.4431
v  0.5798 148.7133 6.4431
v  -5.5137 165.0975 4.2593
v  -2.2838 161.8676 4.2593
v  -1.8335 162.9549 5.4327
v  -4.4264 165.5478 5.4327
v  4.4264 165.5478 5.4327
v  4.4264 169.2148 5.4327
v  1.3997 167.9611 6.4431
v  1.3997 166.8015 6.4431
v  2.2838 172.8950 4.2593
v  -2.2838 172.8950 4.2593
v  -1.8335 171.8078 5.4327
v  1.8335 171.8078 5.4327
v  5.5137 169.6652 4.2593
v  2.2838 161.8676 4.2593
v  5.5136 165.0975 4.2593
v  1.8335 162.9549 5.4327
v  -5.5137 169.6651 4.2593
v  -4.4264 169.2148 5.4327
v  0.5798 168.7810 6.4431
v  -0.5798 168.7810 6.4431
v  -1.3997 167.9611 6.4431
v  -1.3997 166.8015 6.4431
v  -0.5798 165.9816 6.4431
v  0.5798 165.9816 6.4431
v  2.7090 156.6531 -0.7918
v  2.7090 156.6531 8.5385
v  6.5402 152.8220 6.5830
v  6.5402 152.8220 1.1637
v  -2.7090 156.6531 -0.7918
v  -2.7090 156.6531 8.5385
v  0.2308 155.6266 8.5618
v  2.2838 155.6266 8.3472
v  5.0885 152.8220 6.5943
v  6.5402 147.9477 3.1367
v  6.5402 147.9477 4.6100
v  -6.5402 152.8220 1.1637
v  -6.5402 152.8220 6.5830
v  -4.0620 153.8485 7.3015
v  -2.2839 155.6266 8.3472
v  5.5137 152.3968 6.3249
v  5.5136 147.9477 4.6100
v  -6.5402 147.9477 4.6100
v  -6.5402 147.9477 3.1367
v  -5.0885 152.8220 6.5943
v  -5.5137 147.9478 4.6100
v  -5.5137 152.3968 6.3249
v  2.2838 155.6266 -0.6004
v  5.0885 152.8220 1.1524
v  5.5137 152.3968 1.4218
v  -2.2839 155.6266 -0.6004
v  0.2308 155.6266 -0.8151
v  5.5136 147.9477 3.1367
v  -5.0885 152.8220 1.1525
v  -4.0620 153.8485 0.4452
v  -5.5137 152.3968 1.4218
v  -5.5137 147.9478 3.1367
v  2.7090 173.9214 -0.7917
v  2.7090 173.9214 8.5385
v  6.5402 170.0903 6.5830
v  6.5402 170.0903 1.1637
v  -2.7090 173.9214 -0.7917
v  -2.7090 173.9214 8.5385
v  0.2308 172.8950 8.5618
v  2.2838 172.8949 8.3472
v  5.0885 170.0903 6.5943
v  6.5402 165.2161 3.1367
v  6.5402 165.2161 4.6100
v  -6.5402 170.0903 1.1637
v  -6.5402 170.0903 6.5830
v  -4.0620 171.1168 7.3015
v  -2.2839 172.8950 8.3472
v  5.5137 169.6651 6.3249
v  5.5137 165.2161 4.6100
v  -6.5402 165.2161 4.6100
v  -6.5402 165.2161 3.1367
v  -5.0885 170.0903 6.5943
v  -5.5137 165.2161 4.6100
v  -5.5137 169.6651 6.3249
v  2.2838 172.8949 -0.6004
v  5.0885 170.0903 1.1525
v  5.5137 169.6651 1.4219
v  -2.2839 172.8950 -0.6004
v  0.2308 172.8949 -0.8150
v  5.5137 165.2161 3.1367
v  -5.0885 170.0903 1.1525
v  -4.0620 171.1168 0.4452
v  -5.5137 169.6651 1.4219
v  -5.5137 165.2161 3.1367
v  2.7090 139.3848 -0.7918
v  2.7090 139.3848 8.5385
v  6.5401 135.5536 6.5830
v  6.5401 135.5536 1.1637
v  -2.7090 139.3848 -0.7918
v  -2.7090 139.3848 8.5385
v  0.2308 138.3583 8.5618
v  2.2838 138.3583 8.3472
v  5.0885 135.5536 6.5943
v  6.5401 130.6794 3.1367
v  6.5401 130.6794 4.6100
v  -6.5402 135.5536 1.1637
v  -6.5402 135.5536 6.5830
v  -4.0620 136.5801 7.3015
v  -2.2839 138.3583 8.3472
v  5.5136 135.1284 6.3249
v  5.5136 130.6794 4.6100
v  -6.5402 130.6794 4.6100
v  -6.5402 130.6794 3.1367
v  -5.0885 135.5536 6.5943
v  -5.5137 130.6794 4.6100
v  -5.5137 135.1284 6.3249
v  2.2838 138.3583 -0.6004
v  5.0885 135.5536 1.1524
v  5.5136 135.1284 1.4218
v  -2.2839 138.3583 -0.6004
v  0.2308 138.3583 -0.8151
v  5.5136 130.6794 3.1367
v  -5.0885 135.5536 1.1525
v  -4.0620 136.5801 0.4452
v  -5.5137 135.1284 1.4218
v  -5.5137 130.6794 3.1367
v  -5.5137 130.5608 4.2593
v  -2.2838 127.3310 4.2593
v  -1.8335 128.4182 5.4327
v  -4.4264 131.0112 5.4327
v  4.4264 131.0112 5.4327
v  4.4264 134.6781 5.4327
v  1.3997 133.4244 6.4431
v  1.3997 132.2649 6.4431
v  2.2838 138.3583 4.2593
v  -2.2838 138.3583 4.2593
v  -1.8335 137.2711 5.4327
v  1.8335 137.2711 5.4327
v  5.5137 135.1285 4.2593
v  2.2838 127.3310 4.2593
v  5.5137 130.5608 4.2593
v  1.8335 128.4182 5.4327
v  -5.5137 135.1285 4.2593
v  -4.4264 134.6781 5.4327
v  0.5798 134.2443 6.4431
v  -0.5798 134.2443 6.4431
v  -1.3997 133.4244 6.4431
v  -1.3997 132.2649 6.4431
v  -0.5798 131.4450 6.4431
v  0.5798 131.4450 6.4431
v  1.4530 33.8146 -2.4844
v  -1.4530 33.8146 -2.4844
v  -1.4530 124.9788 -2.4844
v  1.4531 124.9788 -2.4844
v  -2.4844 33.8146 -1.4530
v  -2.4844 124.9788 -1.4530
v  -2.4844 33.8146 1.4531
v  -2.4844 124.9788 1.4531
v  -1.4530 33.8146 2.4845
v  -1.4530 124.9788 2.4845
v  1.4530 33.8146 2.4845
v  1.4530 124.9788 2.4845
v  2.4845 33.8146 1.4531
v  2.4845 124.9788 1.4531
v  2.4845 33.8146 -1.4530
v  2.4845 124.9788 -1.4530
v  2.0892 30.7034 -3.5721
v  -2.0891 30.7034 -3.5721
v  2.0892 0.0004 -3.5721
v  -2.0891 0.0004 -3.5721
v  -3.5721 30.7034 -2.0891
v  -3.5721 30.7034 2.0892
v  -2.0891 30.7034 3.5722
v  2.0892 30.7034 3.5722
v  3.5722 30.7034 2.0892
v  3.5722 30.7034 -2.0892
v  3.5722 0.0004 -2.0892
v  3.5722 0.0004 2.0892
v  2.0892 0.0004 3.5722
v  -2.0891 0.0004 3.5722
v  -3.5721 0.0004 2.0892
v  -3.5721 0.0004 -2.0891
# 232 vertices

vn 0.7071 0.7071 0.0000
vn 1.0000 -0.0000 0.0000
vn 0.7071 -0.7071 0.0000
vn -0.0000 -1.0000 0.0000
vn -0.7071 -0.7071 0.0000
vn -1.0000 0.0000 -0.0000
vn -0.0000 -0.0000 1.0000
vn -0.7071 0.7071 -0.0000
vn 0.0000 1.0000 0.0000
vn -0.0000 -1.0000 -0.0000
vn 1.0000 -0.0000 -0.0000
vn -0.0000 1.0000 0.0000
vn -1.0000 0.0000 0.0000
vn 0.7400 -0.6726 -0.0000
vn 0.7400 0.6726 0.0000
vn -0.7400 0.6726 0.0000
vn -0.7400 -0.6726 -0.0000
vn 0.0000 0.0000 -1.0000
vn -0.5187 -0.5187 0.6797
vn 0.3167 0.0000 0.9485
vn -0.0000 0.7335 0.6797
vn 0.5187 0.5187 0.6797
vn 0.5187 -0.5187 0.6797
vn -0.7335 0.0000 0.6797
vn 0.0000 -0.7335 0.6797
vn -0.5187 0.5187 0.6797
vn 0.7335 0.0000 0.6797
vn 0.0000 -0.0000 1.0000
vn -0.2239 0.2239 0.9485
vn -0.2239 -0.2239 0.9485
vn 0.2239 -0.2239 0.9485
vn 0.2239 0.2239 0.9485
vn -0.0000 0.3167 0.9485
vn -0.3167 0.0000 0.9485
vn -0.0000 -0.3167 0.9485
vn 0.3167 -0.0000 0.9485
vn 0.0000 0.7335 0.6797
vn -0.7335 -0.0000 0.6797
vn 0.7335 -0.0000 0.6797
vn 0.0000 0.0000 1.0000
vn 0.0000 0.3167 0.9485
vn -0.3167 -0.0000 0.9485
vn 0.0000 -0.3167 0.9485
vn 0.1850 -0.2536 0.9494
vn 0.0066 -0.5252 0.8509
vn 1.0000 0.0000 -0.0000
vn -0.7071 0.7071 0.0000
vn -0.1687 -0.3285 0.9293
vn -0.0270 -0.0547 0.9981
vn 0.0066 -0.5305 0.8477
vn -0.0407 -0.3675 0.9291
vn -0.0064 -0.5630 0.8265
vn 0.0407 -0.3675 0.9291
vn -0.0066 -0.5305 0.8477
vn -0.7071 -0.7071 -0.0000
vn 0.7071 -0.7071 -0.0000
vn 0.0000 -1.0000 -0.0000
vn 0.7071 0.7071 -0.0000
vn 0.0000 -1.0000 0.0000
vn -0.0064 -0.5630 0.8264
vn -0.7071 0.0000 -0.7071
vn -1.0000 -0.0000 -0.0000
vn -0.7071 -0.0000 0.7071
vn 0.7071 -0.0000 0.7071
vn 0.7071 0.0000 -0.7071
vn 0.0000 1.0000 -0.0000
vn 0.0000 0.3300 -0.9440
vn -0.6584 0.3648 -0.6584
vn -0.9440 0.3300 0.0000
vn -0.6584 0.3648 0.6584
vn -0.0000 0.3300 0.9440
vn 0.6584 0.3648 0.6584
vn 0.9440 0.3300 -0.0000
vn 0.6584 0.3648 -0.6584
vn -1.0000 -0.0000 0.0000
# 75 vertex normals

vt 0.0156 0.7434 0.0000
vt 0.0256 0.7434 0.0000
vt 0.0256 0.7534 0.0000
vt 0.0156 0.7534 0.0000
vt 0.0206 0.7534 0.0000
vt 0.0242 0.7519 0.0000
vt 0.0256 0.7484 0.0000
vt 0.0242 0.7448 0.0000
vt 0.0206 0.7434 0.0000
vt 0.0171 0.7448 0.0000
vt 0.0156 0.7484 0.0000
vt 0.0171 0.7519 0.0000
vt 0.0428 0.8172 0.0000
vt 0.0522 0.8078 0.0000
vt 0.0536 0.8110 0.0000
vt 0.0460 0.8185 0.0000
vt 0.0719 0.8185 0.0000
vt 0.0719 0.8293 0.0000
vt 0.0630 0.8256 0.0000
vt 0.0630 0.8222 0.0000
vt 0.0656 0.8400 0.0000
vt 0.0522 0.8400 0.0000
vt 0.0536 0.8369 0.0000
vt 0.0643 0.8369 0.0000
vt 0.0751 0.8306 0.0000
vt 0.0656 0.8078 0.0000
vt 0.0751 0.8172 0.0000
vt 0.0643 0.8110 0.0000
vt 0.0428 0.8306 0.0000
vt 0.0460 0.8293 0.0000
vt 0.0606 0.8280 0.0000
vt 0.0572 0.8280 0.0000
vt 0.0548 0.8256 0.0000
vt 0.0548 0.8222 0.0000
vt 0.0572 0.8198 0.0000
vt 0.0606 0.8198 0.0000
vt 0.0418 0.8559 0.0000
vt 0.0523 0.8454 0.0000
vt 0.0537 0.8490 0.0000
vt 0.0453 0.8574 0.0000
vt 0.0741 0.8574 0.0000
vt 0.0741 0.8693 0.0000
vt 0.0642 0.8652 0.0000
vt 0.0642 0.8615 0.0000
vt 0.0671 0.8813 0.0000
vt 0.0523 0.8813 0.0000
vt 0.0537 0.8777 0.0000
vt 0.0656 0.8777 0.0000
vt 0.0776 0.8708 0.0000
vt 0.0671 0.8454 0.0000
vt 0.0776 0.8559 0.0000
vt 0.0656 0.8490 0.0000
vt 0.0418 0.8708 0.0000
vt 0.0453 0.8693 0.0000
vt 0.0616 0.8679 0.0000
vt 0.0578 0.8679 0.0000
vt 0.0551 0.8652 0.0000
vt 0.0551 0.8615 0.0000
vt 0.0578 0.8588 0.0000
vt 0.0616 0.8588 0.0000
vt 0.0241 0.7450 0.0000
vt 0.0239 0.7434 0.0000
vt 0.0255 0.7430 0.0000
vt 0.0261 0.7439 0.0000
vt 0.0220 0.7449 0.0000
vt 0.0223 0.7435 0.0000
vt 0.0232 0.7431 0.0000
vt 0.0239 0.7431 0.0000
vt 0.0252 0.7427 0.0000
vt 0.0268 0.7424 0.0000
vt 0.0266 0.7424 0.0000
vt 0.0204 0.7439 0.0000
vt 0.0207 0.7432 0.0000
vt 0.0215 0.7430 0.0000
vt 0.0224 0.7432 0.0000
vt 0.0254 0.7426 0.0000
vt 0.0265 0.7423 0.0000
vt 0.0197 0.7427 0.0000
vt 0.0195 0.7428 0.0000
vt 0.0210 0.7429 0.0000
vt 0.0198 0.7426 0.0000
vt 0.0208 0.7429 0.0000
vt 0.0238 0.7416 0.0000
vt 0.0251 0.7418 0.0000
vt 0.0253 0.7419 0.0000
vt 0.0223 0.7417 0.0000
vt 0.0231 0.7416 0.0000
vt 0.0254 0.7419 0.0000
vt 0.0266 0.7420 0.0000
vt 0.0210 0.7420 0.0000
vt 0.0215 0.7419 0.0000
vt 0.0208 0.7421 0.0000
vt 0.0196 0.7424 0.0000
vt 0.0239 0.7516 0.0000
vt 0.0237 0.7500 0.0000
vt 0.0254 0.7496 0.0000
vt 0.0259 0.7505 0.0000
vt 0.0218 0.7515 0.0000
vt 0.0222 0.7501 0.0000
vt 0.0230 0.7497 0.0000
vt 0.0237 0.7497 0.0000
vt 0.0250 0.7493 0.0000
vt 0.0267 0.7490 0.0000
vt 0.0264 0.7491 0.0000
vt 0.0202 0.7505 0.0000
vt 0.0206 0.7498 0.0000
vt 0.0214 0.7496 0.0000
vt 0.0222 0.7498 0.0000
vt 0.0252 0.7493 0.0000
vt 0.0263 0.7489 0.0000
vt 0.0197 0.7493 0.0000
vt 0.0195 0.7493 0.0000
vt 0.0209 0.7495 0.0000
vt 0.0197 0.7492 0.0000
vt 0.0207 0.7495 0.0000
vt 0.0236 0.7483 0.0000
vt 0.0250 0.7485 0.0000
vt 0.0252 0.7485 0.0000
vt 0.0222 0.7483 0.0000
vt 0.0230 0.7483 0.0000
vt 0.0264 0.7487 0.0000
vt 0.0209 0.7487 0.0000
vt 0.0213 0.7485 0.0000
vt 0.0207 0.7487 0.0000
vt 0.0196 0.7491 0.0000
vt 0.0241 0.7483 0.0000
vt 0.0239 0.7467 0.0000
vt 0.0255 0.7463 0.0000
vt 0.0261 0.7472 0.0000
vt 0.0220 0.7482 0.0000
vt 0.0223 0.7468 0.0000
vt 0.0232 0.7464 0.0000
vt 0.0239 0.7464 0.0000
vt 0.0251 0.7460 0.0000
vt 0.0268 0.7457 0.0000
vt 0.0266 0.7457 0.0000
vt 0.0204 0.7472 0.0000
vt 0.0207 0.7465 0.0000
vt 0.0215 0.7463 0.0000
vt 0.0224 0.7465 0.0000
vt 0.0254 0.7459 0.0000
vt 0.0265 0.7455 0.0000
vt 0.0197 0.7460 0.0000
vt 0.0195 0.7461 0.0000
vt 0.0210 0.7462 0.0000
vt 0.0198 0.7459 0.0000
vt 0.0208 0.7462 0.0000
vt 0.0238 0.7450 0.0000
vt 0.0251 0.7451 0.0000
vt 0.0253 0.7452 0.0000
vt 0.0223 0.7450 0.0000
vt 0.0231 0.7450 0.0000
vt 0.0266 0.7453 0.0000
vt 0.0210 0.7453 0.0000
vt 0.0215 0.7452 0.0000
vt 0.0208 0.7454 0.0000
vt 0.0196 0.7457 0.0000
vt 0.0410 0.7779 0.0000
vt 0.0514 0.7675 0.0000
vt 0.0528 0.7710 0.0000
vt 0.0445 0.7793 0.0000
vt 0.0729 0.7793 0.0000
vt 0.0729 0.7911 0.0000
vt 0.0632 0.7870 0.0000
vt 0.0632 0.7833 0.0000
vt 0.0660 0.8029 0.0000
vt 0.0514 0.8029 0.0000
vt 0.0528 0.7994 0.0000
vt 0.0646 0.7994 0.0000
vt 0.0764 0.7925 0.0000
vt 0.0660 0.7675 0.0000
vt 0.0764 0.7779 0.0000
vt 0.0646 0.7710 0.0000
vt 0.0410 0.7925 0.0000
vt 0.0445 0.7911 0.0000
vt 0.0606 0.7897 0.0000
vt 0.0568 0.7897 0.0000
vt 0.0542 0.7870 0.0000
vt 0.0542 0.7833 0.0000
vt 0.0568 0.7807 0.0000
vt 0.0606 0.7807 0.0000
vt 0.0156 0.8962 0.0000
vt 0.0256 0.8962 0.0000
vt 0.0256 0.9062 0.0000
vt 0.0156 0.9062 0.0000
vt 0.0206 0.9062 0.0000
vt 0.0242 0.9047 0.0000
vt 0.0256 0.9012 0.0000
vt 0.0242 0.8977 0.0000
vt 0.0206 0.8962 0.0000
vt 0.0171 0.8977 0.0000
vt 0.0156 0.9012 0.0000
vt 0.0171 0.9047 0.0000
# 193 texture coords

g SPW_Urban_Road_Props_Traffic_Signal_01
usemtl SPW_Urban_Road_Props_01
s off
f 1/1/1 2/2/1 3/3/1 4/4/1 
f 4/1/2 3/2/2 5/3/2 6/4/2 
f 6/1/3 5/2/3 7/3/3 8/4/3 
f 8/1/4 7/2/4 9/3/4 10/4/4 
f 10/1/5 9/2/5 11/3/5 12/4/5 
f 12/1/6 11/2/6 13/3/6 14/4/6 
s 1
f 9/1/7 7/2/7 15/3/7 16/4/7 
s off
f 14/1/8 13/2/8 17/3/8 18/4/8 
f 18/1/9 17/2/9 2/3/9 1/4/9 
f 19/1/10 20/2/10 21/3/10 22/4/10 
s 1
f 17/1/7 13/2/7 23/3/7 20/4/7 
f 5/1/7 3/2/7 24/3/7 25/4/7 
f 11/1/7 9/2/7 16/3/7 26/4/7 
f 2/1/7 17/2/7 20/3/7 19/4/7 
f 3/1/7 2/2/7 19/3/7 24/4/7 
f 7/1/7 5/2/7 25/3/7 15/4/7 
f 13/1/7 11/2/7 26/3/7 23/4/7 
s off
f 27/5/7 22/6/7 21/7/7 28/8/7 
f 27/5/7 28/8/7 29/9/7 30/10/7 
f 27/5/7 30/10/7 31/11/7 32/12/7 
f 23/1/11 26/2/11 29/3/11 28/4/11 
f 16/1/12 15/2/12 31/3/12 30/4/12 
f 25/1/13 24/2/13 27/3/13 32/4/13 
f 20/1/14 23/2/14 28/3/14 21/4/14 
f 26/1/15 16/2/15 30/3/15 29/4/15 
f 15/1/16 25/2/16 32/3/16 31/4/16 
f 24/1/17 19/2/17 22/3/17 27/4/17 
f 1/5/18 4/6/18 6/7/18 8/8/18 
f 1/5/18 8/8/18 10/9/18 12/10/18 
f 1/5/18 12/10/18 14/11/18 18/12/18 
f 33/13/19 34/14/19 35/15/19 36/16/19 
f 37/17/20 38/18/20 39/19/20 40/20/20 
f 41/21/21 42/22/21 43/23/21 44/24/21 
f 45/25/22 41/21/22 44/24/22 38/18/22 
f 46/26/23 47/27/23 37/17/23 48/28/23 
f 49/29/24 33/13/24 36/16/24 50/30/24 
f 34/14/25 46/26/25 48/28/25 35/15/25 
f 42/22/26 49/29/26 50/30/26 43/23/26 
f 47/27/27 45/25/27 38/18/27 37/17/27 
f 39/19/28 51/31/28 52/32/28 53/33/28 
f 39/19/28 53/33/28 54/34/28 55/35/28 
f 39/19/28 55/35/28 56/36/28 40/20/28 
f 43/23/29 50/30/29 53/33/29 52/32/29 
f 36/16/30 35/15/30 55/35/30 54/34/30 
f 48/28/31 37/17/31 40/20/31 56/36/31 
f 38/18/32 44/24/32 51/31/32 39/19/32 
f 44/24/33 43/23/33 52/32/33 51/31/33 
f 50/30/34 36/16/34 54/34/34 53/33/34 
f 35/15/35 48/28/35 56/36/35 55/35/35 
f 57/37/19 58/38/19 59/39/19 60/40/19 
f 61/41/36 62/42/36 63/43/36 64/44/36 
f 65/45/37 66/46/37 67/47/37 68/48/37 
f 69/49/22 65/45/22 68/48/22 62/42/22 
f 70/50/23 71/51/23 61/41/23 72/52/23 
f 73/53/38 57/37/38 60/40/38 74/54/38 
f 58/38/25 70/50/25 72/52/25 59/39/25 
f 66/46/26 73/53/26 74/54/26 67/47/26 
f 71/51/39 69/49/39 62/42/39 61/41/39 
f 63/43/28 75/55/28 76/56/28 77/57/28 
f 63/43/40 77/57/40 78/58/40 79/59/40 
f 63/43/40 79/59/40 80/60/40 64/44/40 
f 67/47/29 74/54/29 77/57/29 76/56/29 
f 60/40/30 59/39/30 79/59/30 78/58/30 
f 72/52/31 61/41/31 64/44/31 80/60/31 
f 62/42/32 68/48/32 75/55/32 63/43/32 
f 68/48/41 67/47/41 76/56/41 75/55/41 
f 74/54/42 60/40/42 78/58/42 77/57/42 
f 59/39/43 72/52/43 80/60/43 79/59/43 
f 81/61/1 82/62/1 83/63/1 84/64/1 
f 85/65/9 86/66/9 82/62/9 81/61/9 
f 82/62/44 87/67/44 88/68/44 83/63/44 
f 83/63/45 88/68/45 89/69/45 
f 90/70/46 84/64/46 83/63/46 91/71/46 
f 92/72/47 93/73/47 86/66/47 85/65/47 
f 86/66/48 93/73/48 94/74/48 95/75/48 
f 82/62/49 86/66/49 95/75/49 87/67/49 
f 83/63/50 89/69/50 96/76/50 96/76/50 
f 91/71/51 83/63/51 96/76/51 97/77/51 
f 98/78/6 93/73/6 92/72/6 99/79/6 
f 94/74/52 93/73/52 100/80/52 
f 93/73/53 98/78/53 101/81/53 102/82/53 
f 100/80/54 93/73/54 102/82/54 
f 103/83/55 104/84/55 105/85/55 96/76/55 
f 103/83/55 96/76/55 89/69/55 88/68/55 
f 106/86/4 107/87/4 103/83/4 88/68/4 
f 106/86/10 88/68/10 87/67/10 95/75/10 
f 105/85/13 105/88/13 108/89/13 97/77/13 
f 105/85/13 97/77/13 96/76/13 96/76/13 
f 109/90/56 110/91/56 106/86/56 94/74/56 
f 106/86/56 95/75/56 94/74/56 
f 111/92/56 109/90/56 94/74/56 100/80/56 
f 111/92/56 100/80/56 102/82/56 
f 108/89/57 90/70/57 91/71/57 97/77/57 
f 102/82/11 101/81/11 112/93/11 111/92/11 
f 101/81/57 98/78/57 99/79/57 112/93/57 
f 113/94/58 114/95/58 115/96/58 116/97/58 
f 117/98/9 118/99/9 114/95/9 113/94/9 
f 114/95/44 119/100/44 120/101/44 115/96/44 
f 115/96/45 120/101/45 121/102/45 
f 122/103/46 116/97/46 115/96/46 123/104/46 
f 124/105/47 125/106/47 118/99/47 117/98/47 
f 118/99/48 125/106/48 126/107/48 127/108/48 
f 114/95/49 118/99/49 127/108/49 119/100/49 
f 115/96/50 121/102/50 128/109/50 128/109/50 
f 123/104/51 115/96/51 128/109/51 129/110/51 
f 130/111/6 125/106/6 124/105/6 131/112/6 
f 126/107/52 125/106/52 132/113/52 
f 125/106/53 130/111/53 133/114/53 134/115/53 
f 132/113/54 125/106/54 134/115/54 
f 135/116/55 136/117/55 137/118/55 128/109/55 
f 135/116/55 128/109/55 121/102/55 120/101/55 
f 138/119/4 139/120/4 135/116/4 120/101/4 
f 138/119/4 120/101/4 119/100/4 127/108/4 
f 137/118/6 137/118/6 140/121/6 129/110/6 
f 137/118/13 129/110/13 128/109/13 128/109/13 
f 141/122/3 142/123/3 138/119/3 126/107/3 
f 138/119/56 127/108/56 126/107/56 
f 143/124/56 141/122/56 126/107/56 132/113/56 
f 143/124/56 132/113/56 134/115/56 
f 140/121/59 122/103/59 123/104/59 129/110/59 
f 134/115/11 133/114/11 144/125/11 143/124/11 
f 133/114/4 130/111/4 131/112/4 144/125/4 
f 145/126/58 146/127/58 147/128/58 148/129/58 
f 149/130/9 150/131/9 146/127/9 145/126/9 
f 146/127/44 151/132/44 152/133/44 147/128/44 
f 147/128/45 152/133/45 153/134/45 
f 154/135/11 148/129/11 147/128/11 155/136/11 
f 156/137/47 157/138/47 150/131/47 149/130/47 
f 150/131/48 157/138/48 158/139/48 159/140/48 
f 146/127/49 150/131/49 159/140/49 151/132/49 
f 147/128/50 153/134/50 160/141/50 160/141/50 
f 155/136/51 147/128/51 160/141/51 161/142/51 
f 162/143/13 157/138/13 156/137/13 163/144/13 
f 158/139/60 157/138/60 164/145/60 
f 157/138/53 162/143/53 165/146/53 166/147/53 
f 164/145/54 157/138/54 166/147/54 
f 167/148/55 168/149/55 169/150/55 160/141/55 
f 167/148/55 160/141/55 153/134/55 152/133/55 
f 170/151/57 171/152/57 167/148/57 152/133/57 
f 170/151/57 152/133/57 151/132/57 159/140/57 
f 169/150/13 169/150/13 172/153/13 161/142/13 
f 169/150/13 161/142/13 160/141/13 160/141/13 
f 173/154/56 174/155/56 170/151/56 158/139/56 
f 170/151/56 159/140/56 158/139/56 
f 175/156/56 173/154/56 158/139/56 164/145/56 
f 175/156/56 164/145/56 166/147/56 
f 172/153/57 154/135/57 155/136/57 161/142/57 
f 166/147/46 165/146/46 176/157/46 175/156/46 
f 165/146/57 162/143/57 163/144/57 176/157/57 
f 177/158/19 178/159/19 179/160/19 180/161/19 
f 181/162/20 182/163/20 183/164/20 184/165/20 
f 185/166/21 186/167/21 187/168/21 188/169/21 
f 189/170/22 185/166/22 188/169/22 182/163/22 
f 190/171/23 191/172/23 181/162/23 192/173/23 
f 193/174/38 177/158/38 180/161/38 194/175/38 
f 178/159/25 190/171/25 192/173/25 179/160/25 
f 186/167/26 193/174/26 194/175/26 187/168/26 
f 191/172/27 189/170/27 182/163/27 181/162/27 
f 183/164/28 195/176/28 196/177/28 197/178/28 
f 183/164/28 197/178/28 198/179/28 199/180/28 
f 183/164/28 199/180/28 200/181/28 184/165/28 
f 187/168/29 194/175/29 197/178/29 196/177/29 
f 180/161/30 179/160/30 199/180/30 198/179/30 
f 192/173/31 181/162/31 184/165/31 200/181/31 
f 182/163/32 188/169/32 195/176/32 183/164/32 
f 188/169/33 187/168/33 196/177/33 195/176/33 
f 194/175/42 180/161/42 198/179/42 197/178/42 
f 179/160/43 192/173/43 200/181/43 199/180/43 
f 201/182/18 202/183/18 203/184/18 204/185/18 
f 202/182/61 205/183/61 206/184/61 203/185/61 
f 205/182/62 207/183/62 208/184/62 206/185/62 
f 207/182/63 209/183/63 210/184/63 208/185/63 
f 209/182/7 211/183/7 212/184/7 210/185/7 
f 211/182/64 213/183/64 214/184/64 212/185/64 
f 213/182/11 215/183/11 216/184/11 214/185/11 
f 215/182/65 201/183/65 204/184/65 216/185/65 
f 216/186/9 204/187/9 203/188/9 206/189/9 
f 216/186/66 206/189/66 208/190/66 210/191/66 
f 216/186/66 210/191/66 212/192/66 214/193/66 
f 202/183/67 201/182/67 217/182/67 218/183/67 
f 218/183/18 217/182/18 219/182/18 220/183/18 
f 205/183/68 202/182/68 218/182/68 221/183/68 
f 207/183/69 205/182/69 221/182/69 222/183/69 
f 209/183/70 207/182/70 222/182/70 223/183/70 
f 211/183/71 209/182/71 223/182/71 224/183/71 
f 213/183/72 211/182/72 224/182/72 225/183/72 
f 215/183/73 213/182/73 225/182/73 226/183/73 
f 201/183/74 215/182/74 226/182/74 217/183/74 
f 227/186/59 228/187/59 229/188/59 230/189/59 
f 227/186/59 230/189/59 231/190/59 232/191/59 
f 227/186/10 232/191/10 220/192/10 219/193/10 
f 221/183/61 218/182/61 220/182/61 232/183/61 
f 222/183/75 221/182/75 232/182/75 231/183/75 
f 223/183/63 222/182/63 231/182/63 230/183/63 
f 224/183/7 223/182/7 230/182/7 229/183/7 
f 225/183/64 224/182/64 229/182/64 228/183/64 
f 226/183/46 225/182/46 228/182/46 227/183/46 
f 217/183/65 226/182/65 227/182/65 219/183/65 
# 183 polygons - 15 triangles

