# 3ds Max Wavefront OBJ Exporter v0.97b - (c)2007 guruware
# File Created: 15.03.2017 11:08:50

mtllib SPW_Urban_Road Props_Barrier 01_Part 01.mtl

#
# object SPW_Urban_Road_Props_Barrier_01_Part_01
#

v  -196.8504 7.8740 19.6850
v  -196.8504 7.8740 -19.6850
v  -196.8504 0.0000 -19.6850
v  -196.8504 -0.0000 19.6850
v  190.8930 7.8740 19.6850
v  196.6787 -0.0000 19.6850
v  -196.8504 23.6220 11.4220
v  -196.8504 23.6220 -11.4220
v  196.6787 0.0000 -19.6850
v  190.8930 7.8740 -19.6850
v  179.3216 23.6220 11.4220
v  179.3216 23.6220 -11.4220
v  -196.8505 66.9291 6.9540
v  -196.8505 66.9291 -6.9540
v  147.5002 66.9291 6.9540
v  147.5002 66.9291 -6.9540
# 16 vertices

vn -1.0000 0.0000 -0.0000
vn 0.0000 -0.0000 1.0000
vn -1.0000 -0.0000 -0.0000
vn 0.0000 0.0000 -1.0000
vn 0.0000 -1.0000 -0.0000
vn 0.0000 0.4646 0.8855
vn 0.0000 0.4646 -0.8855
vn 0.0000 0.1026 0.9947
vn 0.0000 0.1026 -0.9947
vn 0.0000 1.0000 0.0000
vn 0.8058 0.5921 0.0000
vn 0.8058 0.5921 -0.0000
# 12 vertex normals

vt 0.3569 0.3938 0.0000
vt 0.4069 0.3938 0.0000
vt 0.4069 0.4438 0.0000
vt 0.3569 0.4438 0.0000
vt 0.3996 0.4365 0.0000
vt 0.4069 0.4188 0.0000
vt 0.3996 0.4011 0.0000
vt 0.3642 0.4365 0.0000
vt 0.3819 0.3938 0.0000
vt 0.3642 0.4011 0.0000
vt 0.3569 0.4188 0.0000
vt 0.3819 0.4438 0.0000
# 12 texture coords

g SPW_Urban_Road_Props_Barrier_01_Part_01
usemtl SPW_Urban_Road
s off
f 1/1/1 2/2/1 3/3/1 4/4/1 
f 5/1/2 1/2/2 4/3/2 6/4/2 
f 2/1/3 1/2/3 7/3/3 8/4/3 
f 9/1/4 3/2/4 2/3/4 10/4/4 
f 6/1/5 4/2/5 3/3/5 9/4/5 
f 11/1/6 7/2/6 1/3/6 5/4/6 
f 10/1/7 2/2/7 8/3/7 12/4/7 
f 8/1/3 7/2/3 13/3/3 14/4/3 
f 15/1/8 13/2/8 7/3/8 11/4/8 
f 12/1/9 8/2/9 14/3/9 16/4/9 
f 16/1/10 14/2/10 13/3/10 15/4/10 
f 6/5/11 9/6/11 10/7/11 11/8/11 
f 12/9/11 16/10/11 15/11/11 11/8/11 
f 10/7/11 12/9/11 11/8/11 
f 5/12/12 6/5/12 11/8/12 
# 13 polygons - 2 triangles

