# 3ds Max Wavefront OBJ Exporter v0.97b - (c)2007 guruware
# File Created: 15.03.2017 11:09:14

mtllib SPW_Urban_Road Props_Barrier 02.mtl

#
# object SPW_Urban_Road_Props_Barrier_02
#

v  189.3835 58.9572 4.0923
v  189.3835 58.9572 -4.0922
v  189.3835 27.5858 -8.1440
v  189.3835 27.5858 8.1440
v  195.2890 58.9572 -4.0922
v  195.2890 27.5858 -8.1440
v  195.2890 58.9572 4.0923
v  195.2890 27.5858 8.1440
v  -195.2890 58.9573 4.0923
v  -195.2890 58.9573 -4.0922
v  -195.2890 27.5858 -8.1440
v  -195.2890 27.5858 8.1440
v  -189.3835 58.9573 -4.0922
v  -189.3835 27.5858 -8.1440
v  -189.3835 58.9573 4.0923
v  -189.3835 27.5858 8.1440
v  -2.9528 58.9573 4.0923
v  -2.9528 58.9573 -4.0922
v  -2.9528 27.5858 -8.1440
v  -2.9528 27.5858 8.1440
v  2.9528 58.9573 -4.0922
v  2.9528 27.5858 -8.1440
v  2.9528 58.9573 4.0923
v  2.9528 27.5858 8.1440
v  -193.0625 41.8506 1.1811
v  -193.0625 41.8506 -1.1811
v  -193.0625 39.4884 -1.1811
v  -193.0625 39.4884 1.1811
v  193.0625 41.8506 -1.1811
v  193.0625 39.4884 -1.1811
v  193.0625 41.8506 1.1811
v  193.0625 39.4884 1.1811
v  -193.0625 53.7410 1.1811
v  -193.0625 53.7410 -1.1811
v  -193.0625 51.3787 -1.1811
v  -193.0625 51.3787 1.1811
v  193.0625 53.7410 -1.1811
v  193.0625 51.3787 -1.1811
v  193.0625 53.7410 1.1811
v  193.0625 51.3787 1.1811
v  -196.8504 11.0825 9.6844
v  -196.8504 11.0825 -9.6844
v  -196.8504 0.0000 -13.7675
v  -196.8504 -0.0000 13.7675
v  196.8504 11.0825 -9.6844
v  196.8504 0.0000 -13.7675
v  196.8504 11.0825 9.6844
v  196.8504 -0.0000 13.7675
v  196.8504 27.6621 9.6844
v  -196.8504 27.6621 9.6844
v  196.8504 27.6621 -9.6844
v  -196.8504 27.6621 -9.6844
# 52 vertices

vn -1.0000 0.0000 -0.0000
vn 0.0000 0.1281 -0.9918
vn 1.0000 0.0000 -0.0000
vn 0.0000 0.1281 0.9918
vn 0.0000 -1.0000 -0.0000
vn 0.0000 1.0000 0.0000
vn 0.0000 0.0000 -1.0000
vn 0.0000 -0.0000 1.0000
vn 0.0000 0.3457 -0.9383
vn 0.0000 0.3457 0.9383
# 10 vertex normals

vt 0.3569 0.3790 0.0000
vt 0.4069 0.3790 0.0000
vt 0.4069 0.4290 0.0000
vt 0.3569 0.4290 0.0000
vt 0.3643 0.2831 0.0000
vt 0.4143 0.2831 0.0000
vt 0.4143 0.3331 0.0000
vt 0.3643 0.3331 0.0000
vt 0.3643 0.3790 0.0000
vt 0.4143 0.3790 0.0000
vt 0.4143 0.4290 0.0000
vt 0.3643 0.4290 0.0000
# 12 texture coords

g SPW_Urban_Road_Props_Barrier_02
usemtl SPW_Urban_Road
s off
f 1/1/1 2/2/1 3/3/1 4/4/1 
f 2/1/2 5/2/2 6/3/2 3/4/2 
f 5/1/3 7/2/3 8/3/3 6/4/3 
f 7/1/4 1/2/4 4/3/4 8/4/4 
f 4/1/5 3/2/5 6/3/5 8/4/5 
f 7/1/6 5/2/6 2/3/6 1/4/6 
f 9/1/1 10/2/1 11/3/1 12/4/1 
f 10/1/2 13/2/2 14/3/2 11/4/2 
f 13/1/3 15/2/3 16/3/3 14/4/3 
f 15/1/4 9/2/4 12/3/4 16/4/4 
f 12/1/5 11/2/5 14/3/5 16/4/5 
f 15/1/6 13/2/6 10/3/6 9/4/6 
f 17/1/1 18/2/1 19/3/1 20/4/1 
f 18/1/2 21/2/2 22/3/2 19/4/2 
f 21/1/3 23/2/3 24/3/3 22/4/3 
f 23/1/4 17/2/4 20/3/4 24/4/4 
f 20/1/5 19/2/5 22/3/5 24/4/5 
f 23/1/6 21/2/6 18/3/6 17/4/6 
f 25/5/1 26/6/1 27/7/1 28/8/1 
f 26/5/7 29/6/7 30/7/7 27/8/7 
f 29/5/3 31/6/3 32/7/3 30/8/3 
f 31/5/8 25/6/8 28/7/8 32/8/8 
f 28/5/5 27/6/5 30/7/5 32/8/5 
f 31/5/6 29/6/6 26/7/6 25/8/6 
f 33/5/1 34/6/1 35/7/1 36/8/1 
f 34/5/7 37/6/7 38/7/7 35/8/7 
f 37/5/3 39/6/3 40/7/3 38/8/3 
f 39/5/8 33/6/8 36/7/8 40/8/8 
f 36/5/5 35/6/5 38/7/5 40/8/5 
f 39/5/6 37/6/6 34/7/6 33/8/6 
s 1
f 41/9/1 42/10/1 43/11/1 44/12/1 
s off
f 42/9/9 45/10/9 46/11/9 43/12/9 
f 45/9/3 47/10/3 48/11/3 46/12/3 
f 47/9/10 41/10/10 44/11/10 48/12/10 
f 44/9/5 43/10/5 46/11/5 48/12/5 
f 41/9/8 47/10/8 49/11/8 50/12/8 
f 49/9/6 51/10/6 52/11/6 50/12/6 
f 47/9/3 45/10/3 51/11/3 49/12/3 
f 45/9/7 42/10/7 52/11/7 51/12/7 
s 1
f 42/9/1 41/10/1 50/11/1 52/12/1 
# 40 polygons

