# 3ds Max Wavefront OBJ Exporter v0.97b - (c)2007 guruware
# File Created: 15.03.2017 11:31:13

mtllib SPW_Urban_Road 2way_T_Intersection_01.mtl

#
# object SPW_Urban_Road_2way_T_Intersection_01
#

v  393.7008 7.8740 393.7008
v  -393.7008 7.8740 393.7008
v  -393.7008 -0.0000 393.7008
v  393.7008 -0.0000 393.7008
v  -393.7008 7.8740 275.5906
v  -393.7008 -0.0000 275.5906
v  393.7008 7.8740 275.5905
v  393.7008 -0.0000 275.5905
v  393.7008 7.8740 -275.5906
v  275.5905 7.8740 -275.5906
v  275.5905 0.0000 -275.5906
v  393.7008 0.0000 -275.5906
v  275.5905 7.8741 -393.7008
v  275.5905 0.0000 -393.7008
v  393.7008 7.8741 -393.7008
v  393.7008 0.0000 -393.7008
v  -275.5906 7.8740 -275.5905
v  -393.7008 7.8740 -275.5905
v  -393.7008 0.0000 -275.5905
v  -275.5906 0.0000 -275.5905
v  -393.7008 7.8741 -393.7008
v  -393.7008 0.0000 -393.7008
v  -275.5906 7.8741 -393.7008
v  -275.5906 0.0000 -393.7008
v  393.7008 -0.0000 263.7795
v  -393.7008 -0.0000 263.7796
v  251.9685 0.0000 -251.9686
v  222.4408 0.0000 -263.7797
v  192.9133 0.0000 -263.7796
v  163.3857 0.0000 -263.7796
v  133.8582 0.0000 -263.7796
v  104.3306 0.0000 -263.7796
v  74.8030 0.0000 -263.7796
v  45.2755 0.0000 -263.7796
v  15.7480 0.0000 -263.7796
v  -15.7481 0.0000 -263.7796
v  -192.9134 0.0000 -263.7795
v  -222.4410 0.0000 -263.7795
v  263.7795 0.0000 -222.4409
v  -163.3859 0.0000 -263.7796
v  -133.8583 0.0000 -263.7796
v  -104.3307 0.0000 -263.7796
v  -74.8032 0.0000 -263.7796
v  -45.2756 0.0000 -263.7796
v  389.7637 0.0000 -222.4409
v  393.7008 0.0000 -251.9686
v  393.7008 -0.0000 251.9685
v  389.7637 0.0000 -192.9134
v  389.7638 0.0000 -163.3858
v  389.7638 0.0000 -133.8582
v  389.7638 0.0000 -104.3307
v  389.7638 0.0000 -74.8031
v  389.7638 0.0000 -45.2756
v  389.7638 0.0000 -15.7480
v  389.7638 -0.0000 15.7480
v  389.7638 -0.0000 45.2756
v  389.7638 -0.0000 74.8031
v  389.7638 -0.0000 104.3306
v  389.7638 -0.0000 133.8583
v  389.7638 -0.0000 163.3858
v  389.7638 -0.0000 192.9134
v  389.7638 -0.0000 222.4409
v  -263.7796 -0.0000 192.9134
v  -263.7796 -0.0000 222.4410
v  -251.9686 0.0000 -251.9685
v  -263.7796 -0.0000 163.3858
v  -263.7796 -0.0000 133.8583
v  -263.7796 -0.0000 104.3307
v  -263.7796 -0.0000 74.8031
v  -263.7796 -0.0000 45.2756
v  -263.7796 -0.0000 15.7480
v  -263.7796 0.0000 -15.7480
v  -263.7796 0.0000 -45.2755
v  -263.7796 0.0000 -74.8031
v  -263.7796 0.0000 -104.3307
v  -263.7796 0.0000 -133.8582
v  -263.7796 0.0000 -163.3858
v  -263.7796 0.0000 -192.9133
v  -263.7797 0.0000 -222.4409
v  -389.7639 0.0000 -222.4409
v  -393.7008 0.0000 -251.9685
v  -389.7639 -0.0000 192.9134
v  -389.7639 -0.0000 163.3858
v  -389.7639 -0.0000 133.8583
v  -389.7639 -0.0000 104.3307
v  -389.7639 -0.0000 74.8032
v  -389.7639 -0.0000 45.2756
v  -389.7639 -0.0000 15.7480
v  -389.7639 0.0000 -15.7480
v  -389.7639 0.0000 -45.2755
v  -389.7639 0.0000 -74.8031
v  -389.7639 0.0000 -104.3307
v  -389.7639 0.0000 -133.8582
v  -389.7639 0.0000 -163.3858
v  -389.7639 0.0000 -192.9133
v  -393.7008 -0.0000 251.9685
v  -389.7639 -0.0000 222.4410
v  263.7795 -0.0000 104.3307
v  263.7796 -0.0000 222.4409
v  263.7795 -0.0000 192.9134
v  263.7795 -0.0000 163.3858
v  263.7795 -0.0000 133.8583
v  263.7795 -0.0000 74.8031
v  263.7795 -0.0000 45.2756
v  263.7795 -0.0000 15.7480
v  263.7795 0.0000 -15.7480
v  263.7795 0.0000 -45.2756
v  263.7795 0.0000 -74.8031
v  263.7795 0.0000 -104.3307
v  263.7795 0.0000 -133.8582
v  263.7795 0.0000 -163.3858
v  263.7795 0.0000 -192.9134
v  -251.9686 0.0000 -393.7008
v  -222.4410 0.0000 -389.7638
v  -192.9135 0.0000 -389.7638
v  -163.3859 0.0000 -389.7639
v  -133.8584 0.0000 -389.7639
v  -104.3308 0.0000 -389.7639
v  -74.8032 0.0000 -389.7639
v  -45.2756 0.0000 -389.7639
v  -15.7481 0.0000 -389.7639
v  15.7480 0.0000 -389.7639
v  45.2755 0.0000 -389.7639
v  74.8030 0.0000 -389.7639
v  104.3306 0.0000 -389.7639
v  133.8582 0.0000 -389.7639
v  163.3857 0.0000 -389.7639
v  192.9133 0.0000 -389.7639
v  222.4408 0.0000 -389.7639
v  251.9685 0.0000 -393.7008
v  393.7008 0.0000 -263.7796
v  263.7795 0.0000 -393.7008
v  263.7795 0.0000 -263.7796
v  -263.7796 0.0000 -393.7008
v  -393.7008 0.0000 -263.7795
v  -263.7796 0.0000 -263.7795
# 136 vertices

vn 0.0000 -0.0000 1.0000
vn -1.0000 0.0000 -0.0000
vn -0.0000 0.0000 -1.0000
vn 1.0000 0.0000 -0.0000
vn -0.0000 -1.0000 -0.0000
vn -0.0000 1.0000 0.0000
vn 0.0000 0.0000 -1.0000
vn 0.0000 -1.0000 -0.0000
vn 0.0000 1.0000 0.0000
# 9 vertex normals

vt 0.2240 0.8417 0.0000
vt 0.2740 0.8417 0.0000
vt 0.2740 0.8917 0.0000
vt 0.2240 0.8917 0.0000
vt 0.3864 0.8651 0.0000
vt 0.3946 0.8651 0.0000
vt 0.3966 0.9135 0.0000
vt 0.3864 0.9144 0.0000
vt 0.4256 0.8897 0.0000
vt 0.4262 0.8918 0.0000
vt 0.4265 0.8937 0.0000
vt 0.4259 0.8939 0.0000
vt 0.4255 0.8942 0.0000
vt 0.4252 0.8945 0.0000
vt 0.4250 0.8948 0.0000
vt 0.4248 0.8952 0.0000
vt 0.4246 0.8955 0.0000
vt 0.4245 0.8960 0.0000
vt 0.4249 0.8979 0.0000
vt 0.4252 0.8982 0.0000
vt 0.4239 0.8882 0.0000
vt 0.4247 0.8976 0.0000
vt 0.4246 0.8973 0.0000
vt 0.4245 0.8970 0.0000
vt 0.4244 0.8967 0.0000
vt 0.4245 0.8963 0.0000
vt 0.4284 0.8813 0.0000
vt 0.4301 0.8823 0.0000
vt 0.3954 0.8654 0.0000
vt 0.4267 0.8800 0.0000
vt 0.4250 0.8788 0.0000
vt 0.4233 0.8775 0.0000
vt 0.4215 0.8763 0.0000
vt 0.4196 0.8751 0.0000
vt 0.4176 0.8740 0.0000
vt 0.4156 0.8729 0.0000
vt 0.4134 0.8718 0.0000
vt 0.4113 0.8708 0.0000
vt 0.4091 0.8698 0.0000
vt 0.4069 0.8689 0.0000
vt 0.4046 0.8681 0.0000
vt 0.4022 0.8674 0.0000
vt 0.3998 0.8668 0.0000
vt 0.3973 0.8663 0.0000
vt 0.4251 0.9000 0.0000
vt 0.4251 0.9001 0.0000
vt 0.4285 0.8990 0.0000
vt 0.4251 0.8999 0.0000
vt 0.4252 0.8999 0.0000
vt 0.4252 0.8998 0.0000
vt 0.4252 0.8997 0.0000
vt 0.4252 0.8996 0.0000
vt 0.4252 0.8995 0.0000
vt 0.4252 0.8994 0.0000
vt 0.4252 0.8993 0.0000
vt 0.4251 0.8993 0.0000
vt 0.4250 0.8994 0.0000
vt 0.4268 0.8994 0.0000
vt 0.4284 0.9055 0.0000
vt 0.4305 0.9042 0.0000
vt 0.4255 0.9001 0.0000
vt 0.4255 0.9000 0.0000
vt 0.4255 0.8999 0.0000
vt 0.4255 0.8998 0.0000
vt 0.4255 0.8997 0.0000
vt 0.4255 0.8996 0.0000
vt 0.4255 0.8995 0.0000
vt 0.4255 0.8994 0.0000
vt 0.4255 0.8993 0.0000
vt 0.4254 0.8992 0.0000
vt 0.4254 0.8991 0.0000
vt 0.4253 0.8990 0.0000
vt 0.4252 0.8989 0.0000
vt 0.4263 0.9067 0.0000
vt 0.3993 0.9125 0.0000
vt 0.4254 0.9003 0.0000
vt 0.4043 0.8774 0.0000
vt 0.3966 0.8744 0.0000
vt 0.3985 0.8751 0.0000
vt 0.4004 0.8758 0.0000
vt 0.4024 0.8766 0.0000
vt 0.4063 0.8782 0.0000
vt 0.4083 0.8790 0.0000
vt 0.4102 0.8798 0.0000
vt 0.4121 0.8808 0.0000
vt 0.4140 0.8817 0.0000
vt 0.4158 0.8826 0.0000
vt 0.4175 0.8836 0.0000
vt 0.4192 0.8847 0.0000
vt 0.4208 0.8858 0.0000
vt 0.4224 0.8870 0.0000
vt 0.4318 0.8984 0.0000
vt 0.4251 0.8968 0.0000
vt 0.4250 0.8970 0.0000
vt 0.4250 0.8969 0.0000
vt 0.4251 0.8969 0.0000
vt 0.4255 0.8964 0.0000
vt 0.4257 0.8961 0.0000
vt 0.4258 0.8958 0.0000
vt 0.4259 0.8955 0.0000
vt 0.4260 0.8952 0.0000
vt 0.4261 0.8950 0.0000
vt 0.4262 0.8947 0.0000
vt 0.4292 0.8930 0.0000
vt 0.4296 0.8927 0.0000
vt 0.4302 0.8923 0.0000
vt 0.4303 0.8832 0.0000
vt 0.4351 0.8874 0.0000
vt 0.4310 0.8922 0.0000
vt 0.4263 0.8890 0.0000
vt 0.4326 0.8992 0.0000
vt 0.4364 0.9006 0.0000
vt 0.4323 0.9030 0.0000
vt 0.4324 0.9011 0.0000
vt 0.5780 0.9077 0.0000
vt 0.5777 0.9075 0.0000
vt 0.5777 0.9074 0.0000
vt 0.5781 0.9075 0.0000
vt 0.5781 0.9074 0.0000
vt 0.5777 0.9073 0.0000
vt 0.5777 0.9072 0.0000
vt 0.5781 0.9073 0.0000
vt 0.5781 0.9072 0.0000
vt 0.5777 0.9071 0.0000
vt 0.5781 0.9071 0.0000
vt 0.5781 0.9070 0.0000
vt 0.5778 0.9070 0.0000
vt 0.5778 0.9069 0.0000
vt 0.5781 0.9069 0.0000
vt 0.5781 0.9068 0.0000
vt 0.5778 0.9068 0.0000
vt 0.5780 0.9067 0.0000
vt 0.5780 0.9066 0.0000
vt 0.5778 0.9067 0.0000
vt 0.5779 0.9065 0.0000
vt 0.5779 0.9064 0.0000
vt 0.5777 0.9067 0.0000
vt 0.5778 0.9063 0.0000
vt 0.5788 0.9141 0.0000
vt 0.5775 0.9068 0.0000
vt 0.5794 0.9068 0.0000
vt 0.5810 0.9128 0.0000
vt 0.5850 0.9084 0.0000
vt 0.5848 0.9103 0.0000
vt 0.5830 0.9116 0.0000
vt 0.5810 0.9064 0.0000
vt 0.5851 0.9065 0.0000
vt 0.5843 0.9058 0.0000
vt 0.5778 0.9056 0.0000
vt 0.5775 0.9053 0.0000
vt 0.5776 0.9043 0.0000
vt 0.5777 0.9042 0.0000
vt 0.5776 0.9044 0.0000
vt 0.5773 0.9050 0.0000
vt 0.5771 0.9047 0.0000
vt 0.5771 0.9044 0.0000
vt 0.5770 0.9040 0.0000
vt 0.5781 0.9037 0.0000
vt 0.5770 0.9037 0.0000
vt 0.5771 0.9033 0.0000
vt 0.5784 0.9032 0.0000
vt 0.5782 0.9035 0.0000
vt 0.5772 0.9029 0.0000
vt 0.5773 0.9026 0.0000
vt 0.5786 0.9026 0.0000
vt 0.5785 0.9029 0.0000
vt 0.5775 0.9022 0.0000
vt 0.5778 0.9019 0.0000
vt 0.5788 0.9021 0.0000
vt 0.5787 0.9023 0.0000
vt 0.5781 0.9016 0.0000
vt 0.5785 0.9013 0.0000
vt 0.5822 0.9000 0.0000
vt 0.5818 0.9004 0.0000
vt 0.5791 0.9011 0.0000
vt 0.5788 0.8992 0.0000
vt 0.5789 0.8964 0.0000
vt 0.5835 0.8996 0.0000
vt 0.5827 0.8996 0.0000
vt 0.5782 0.8971 0.0000
vt 0.5829 0.8906 0.0000
vt 0.5827 0.8897 0.0000
vt 0.5749 0.8943 0.0000
vt 0.5793 0.8874 0.0000
vt 0.5809 0.8886 0.0000
vt 0.5765 0.8956 0.0000
vt 0.5717 0.8921 0.0000
vt 0.5759 0.8849 0.0000
vt 0.5776 0.8861 0.0000
vt 0.5734 0.8932 0.0000
vt 0.5683 0.8900 0.0000
vt 0.5722 0.8825 0.0000
vt 0.5740 0.8837 0.0000
vt 0.5701 0.8910 0.0000
vt 0.5647 0.8881 0.0000
vt 0.5682 0.8803 0.0000
vt 0.5702 0.8814 0.0000
vt 0.5665 0.8891 0.0000
vt 0.5608 0.8864 0.0000
vt 0.5639 0.8782 0.0000
vt 0.5660 0.8792 0.0000
vt 0.5627 0.8872 0.0000
vt 0.5569 0.8847 0.0000
vt 0.5594 0.8763 0.0000
vt 0.5617 0.8772 0.0000
vt 0.5589 0.8855 0.0000
vt 0.5530 0.8832 0.0000
vt 0.5548 0.8748 0.0000
vt 0.5571 0.8755 0.0000
vt 0.5549 0.8840 0.0000
vt 0.5492 0.8818 0.0000
vt 0.5498 0.8736 0.0000
vt 0.5523 0.8741 0.0000
vt 0.5511 0.8825 0.0000
vt 0.5471 0.8725 0.0000
vt 0.5479 0.8728 0.0000
vt 0.5518 0.9199 0.0000
vt 0.5491 0.9209 0.0000
# 218 texture coords

g SPW_Urban_Road_2way_T_Intersection_01
usemtl SPW_Urban_Road
s off
f 1/1/1 2/2/1 3/3/1 4/4/1 
f 2/1/2 5/2/2 6/3/2 3/4/2 
f 5/1/3 7/2/3 8/3/3 6/4/3 
f 7/1/4 1/2/4 4/3/4 8/4/4 
f 4/1/5 3/2/5 6/3/5 8/4/5 
f 7/1/6 5/2/6 2/3/6 1/4/6 
f 9/1/1 10/2/1 11/3/1 12/4/1 
f 10/1/2 13/2/2 14/3/2 11/4/2 
f 13/1/7 15/2/7 16/3/7 14/4/7 
f 15/1/4 9/2/4 12/3/4 16/4/4 
f 12/1/8 11/2/8 14/3/8 16/4/8 
f 15/1/9 13/2/9 10/3/9 9/4/9 
f 17/1/1 18/2/1 19/3/1 20/4/1 
f 18/1/2 21/2/2 22/3/2 19/4/2 
f 21/1/7 23/2/7 24/3/7 22/4/7 
f 23/1/4 17/2/4 20/3/4 24/4/4 
f 20/1/8 19/2/8 22/3/8 24/4/8 
f 23/1/9 21/2/9 18/3/9 17/4/9 
s 1
f 4/5/9 25/6/9 26/7/9 3/8/9 
f 27/9/6 28/10/9 29/11/6 30/12/6 
f 27/9/6 30/12/6 31/13/9 32/14/9 
f 27/9/6 32/14/9 33/15/9 34/16/9 
f 27/9/6 34/16/9 35/17/9 36/18/6 
f 37/19/6 38/20/9 39/21/6 40/22/9 
f 41/23/9 40/22/9 39/21/6 42/24/9 
f 43/25/9 42/24/9 39/21/6 44/26/9 
f 36/18/6 44/26/9 39/21/6 45/27/6 
f 27/9/6 36/18/6 45/27/6 46/28/6 
f 47/29/9 46/28/6 45/27/6 48/30/9 
f 47/29/9 48/30/9 49/31/6 50/32/9 
f 47/29/9 50/32/9 51/33/9 52/34/9 
f 47/29/9 52/34/9 53/35/9 54/36/9 
f 47/29/9 54/36/9 55/37/9 56/38/9 
f 47/29/9 56/38/9 57/39/9 58/40/6 
f 47/29/9 58/40/6 59/41/9 60/42/9 
f 47/29/9 60/42/9 61/43/6 62/44/9 
f 63/45/9 64/46/6 65/47/6 66/48/9 
f 67/49/6 66/48/9 65/47/6 68/50/6 
f 69/51/6 68/50/6 65/47/6 70/52/6 
f 71/53/6 70/52/6 65/47/6 72/53/6 
f 73/54/6 72/53/6 65/47/6 74/54/9 
f 75/55/9 74/54/9 65/47/6 76/55/6 
f 77/56/9 76/55/6 65/47/6 78/57/9 
f 79/58/6 78/57/9 65/47/6 80/59/9 
f 81/60/6 80/59/9 65/47/6 
f 82/61/9 63/45/9 66/48/9 83/62/6 
f 84/63/9 67/49/6 68/50/6 85/64/6 
f 86/65/9 69/51/6 70/52/6 87/66/9 
f 88/67/9 71/53/6 72/53/6 89/68/9 
f 90/69/9 73/54/6 74/54/9 91/70/6 
f 92/71/6 75/55/9 76/55/6 93/72/9 
f 94/73/9 77/56/9 78/57/9 95/74/6 
f 95/74/6 80/59/9 81/60/6 96/75/9 
f 94/73/9 95/74/6 96/75/9 93/72/9 
f 92/71/6 93/72/9 96/75/9 91/70/6 
f 90/69/9 91/70/6 96/75/9 89/68/9 
f 88/67/9 89/68/9 96/75/9 87/66/9 
f 86/65/9 87/66/9 96/75/9 85/64/6 
f 84/63/9 85/64/6 96/75/9 83/62/6 
f 82/61/9 83/62/6 96/75/9 97/76/9 
f 64/46/6 97/76/9 96/75/9 98/77/6 
f 96/75/9 47/29/9 62/44/9 99/78/6 
f 96/75/9 99/78/6 100/79/9 101/80/9 
f 100/79/9 61/43/6 60/42/9 101/80/9 
f 96/75/9 101/80/9 102/81/6 98/77/6 
f 102/81/6 59/41/9 58/40/6 98/77/6 
f 65/47/6 64/46/6 98/77/6 38/20/9 
f 103/82/6 57/39/9 56/38/9 104/83/6 
f 105/84/6 55/37/9 54/36/9 106/85/6 
f 107/86/6 53/35/9 52/34/9 108/87/6 
f 109/88/6 51/33/9 50/32/9 110/89/9 
f 111/90/6 49/31/6 48/30/9 112/91/6 
f 112/91/6 39/21/6 38/20/9 111/90/6 
f 110/89/9 111/90/6 38/20/9 109/88/6 
f 108/87/6 109/88/6 38/20/9 107/86/6 
f 106/85/6 107/86/6 38/20/9 105/84/6 
f 104/83/6 105/84/6 38/20/9 103/82/6 
f 98/77/6 103/82/6 38/20/9 
f 113/92/6 65/47/6 38/20/9 114/93/6 
f 115/94/6 37/19/6 40/22/9 116/94/6 
f 117/94/9 41/23/9 42/24/9 118/94/9 
f 119/95/9 43/25/9 44/26/9 120/96/9 
f 121/97/9 36/18/6 35/17/9 122/98/9 
f 123/99/9 34/16/9 33/15/9 124/100/9 
f 125/101/9 32/14/9 31/13/9 126/102/9 
f 127/103/9 30/12/6 29/11/6 128/104/9 
f 129/105/6 28/10/9 27/9/6 130/106/9 
f 128/104/9 129/105/6 130/106/9 127/103/9 
f 126/102/9 127/103/9 130/106/9 125/101/9 
f 124/100/9 125/101/9 130/106/9 123/99/9 
f 122/98/9 123/99/9 130/106/9 121/97/9 
f 120/96/9 121/97/9 130/106/9 119/95/9 
f 118/94/9 119/95/9 130/106/9 117/94/9 
f 116/94/6 117/94/9 130/106/9 115/94/6 
f 114/93/6 115/94/6 130/106/9 113/92/6 
f 131/107/9 16/108/9 132/109/9 133/110/9 
f 134/111/6 22/112/9 135/113/9 136/114/6 
f 97/115/9 64/116/6 63/117/9 82/118/9 
f 83/119/6 66/120/9 67/121/6 84/122/9 
f 85/123/6 68/121/6 69/124/6 86/125/9 
f 87/126/9 70/127/6 71/128/6 88/129/9 
f 89/130/9 72/128/6 73/131/6 90/132/9 
f 91/133/6 74/131/9 75/134/9 92/135/6 
f 93/136/9 76/137/6 77/137/9 94/138/9 
f 95/139/6 78/140/9 79/141/6 80/142/9 
f 136/143/6 135/144/9 81/145/6 65/146/6 
f 134/147/6 136/143/6 65/146/6 113/148/6 
f 38/149/9 37/150/6 115/151/6 114/152/6 
f 117/153/9 116/153/6 40/154/9 41/155/9 
f 119/151/9 118/151/9 42/156/9 43/157/9 
f 121/158/9 120/152/9 44/159/9 36/160/6 
f 123/161/9 122/162/9 35/163/9 34/164/9 
f 125/165/9 124/166/9 33/167/9 32/168/9 
f 127/169/9 126/170/9 31/171/9 30/172/6 
f 129/173/6 128/174/9 29/175/6 28/176/9 
f 133/177/9 132/178/9 130/179/9 27/180/6 
f 131/181/9 133/177/9 27/180/6 46/182/6 
f 112/183/6 48/184/9 45/185/6 39/186/6 
f 110/187/9 50/188/9 49/189/6 111/190/6 
f 108/191/6 52/192/9 51/193/9 109/194/6 
f 106/195/6 54/196/9 53/197/9 107/198/6 
f 104/199/6 56/200/9 55/201/9 105/202/6 
f 98/203/6 58/204/6 57/205/9 103/206/6 
f 101/207/9 60/208/9 59/209/9 102/210/6 
f 99/211/6 62/212/9 61/213/6 100/214/9 
f 25/215/9 47/216/9 96/217/9 26/218/9 
# 124 polygons - 2 triangles

