# 3ds Max Wavefront OBJ Exporter v0.97b - (c)2007 guruware
# File Created: 15.03.2017 11:38:46

mtllib SPW_Urban_Road 4way_Side Parking_02.mtl

#
# object SPW_Urban_Road_4way_Side_Parking_02
#

v  393.7008 -0.0001 1181.1023
v  393.7008 -0.0001 1051.1813
v  -393.7007 -0.0001 1051.1813
v  -393.7007 -0.0001 1181.1023
v  -236.2205 -0.0000 370.0788
v  -354.3307 -0.0000 370.0788
v  -385.8268 -0.0001 748.0316
v  -157.4803 -0.0000 370.0788
v  -39.3701 -0.0000 370.0788
v  39.3701 -0.0000 370.0788
v  157.4803 -0.0000 370.0788
v  236.2205 -0.0000 370.0788
v  -385.8268 -0.0001 1039.3702
v  -141.7322 -0.0001 1039.3702
v  -141.7323 -0.0001 748.0316
v  -125.9842 -0.0001 748.0316
v  -125.9842 -0.0001 1039.3702
v  122.0473 -0.0001 1039.3702
v  122.0473 -0.0001 748.0316
v  137.7953 -0.0001 748.0316
v  137.7953 -0.0001 1039.3702
v  385.8268 -0.0001 1039.3702
v  385.8268 -0.0001 748.0317
v  354.3307 -0.0000 370.0788
v  393.7008 -0.0000 82.6772
v  393.7008 -0.0001 748.0317
v  -354.3307 -0.0000 358.2677
v  -393.7008 -0.0000 82.6772
v  -236.2205 -0.0000 358.2677
v  -157.4803 -0.0000 358.2677
v  -39.3701 -0.0000 358.2677
v  39.3701 -0.0000 358.2677
v  157.4803 -0.0000 358.2677
v  236.2205 -0.0000 358.2677
v  354.3307 -0.0000 358.2677
v  -393.7007 -0.0001 748.0316
v  393.7008 -0.0000 70.8661
v  393.7008 0.0000 -70.8662
v  -393.7008 0.0000 -70.8661
v  -393.7008 -0.0000 70.8662
v  -354.3307 0.0000 -370.0788
v  -236.2205 0.0000 -370.0788
v  -393.7008 0.0001 -645.6693
v  -354.3307 0.0000 -358.2677
v  -393.7008 0.0000 -82.6771
v  -236.2205 0.0000 -358.2677
v  -157.4803 0.0000 -358.2677
v  -39.3701 0.0000 -358.2677
v  39.3701 0.0000 -358.2677
v  157.4803 0.0000 -358.2677
v  236.2205 0.0000 -358.2677
v  354.3307 0.0000 -358.2677
v  393.7008 0.0000 -82.6772
v  393.7007 0.0001 -645.6693
v  -157.4803 0.0000 -370.0788
v  -39.3701 0.0000 -370.0788
v  39.3701 0.0000 -370.0788
v  157.4803 0.0000 -370.0788
v  236.2205 0.0000 -370.0788
v  354.3307 0.0000 -370.0788
v  393.7007 0.0001 -657.4803
v  393.7007 0.0001 -787.4015
v  -393.7008 0.0001 -787.4015
v  -393.7008 0.0001 -657.4803
v  393.7007 7.8741 -669.2913
v  -393.7008 7.8741 -669.2913
v  -393.7008 0.0001 -669.2913
v  393.7007 0.0001 -669.2913
v  -393.7008 7.8741 -787.4017
v  -393.7008 0.0001 -787.4017
v  393.7007 7.8741 -787.4017
v  393.7007 0.0001 -787.4017
v  393.7008 7.8739 1181.1024
v  -393.7007 7.8739 1181.1024
v  -393.7007 -0.0001 1181.1024
v  393.7008 -0.0001 1181.1024
v  -393.7007 7.8739 1062.9922
v  -393.7007 -0.0001 1062.9922
v  393.7008 7.8739 1062.9922
v  393.7008 -0.0001 1062.9922
# 80 vertices

vn 0.0000 1.0000 0.0000
vn -0.0000 1.0000 0.0000
vn 0.0000 -0.0000 1.0000
vn -1.0000 0.0000 -0.0000
vn 0.0000 0.0000 -1.0000
vn 1.0000 0.0000 -0.0000
vn 0.0000 -1.0000 -0.0000
# 7 vertex normals

vt 0.3840 0.8712 0.0000
vt 0.3873 0.8712 0.0000
vt 0.3873 0.9212 0.0000
vt 0.3840 0.9212 0.0000
vt 0.9169 0.1733 0.0000
vt 0.9617 0.1733 0.0000
vt 0.9736 0.3165 0.0000
vt 0.8871 0.1733 0.0000
vt 0.8424 0.1733 0.0000
vt 0.8125 0.1733 0.0000
vt 0.7678 0.1733 0.0000
vt 0.7380 0.1733 0.0000
vt 0.9736 0.4268 0.0000
vt 0.8811 0.4268 0.0000
vt 0.8811 0.3165 0.0000
vt 0.8752 0.3165 0.0000
vt 0.8752 0.4268 0.0000
vt 0.7812 0.4268 0.0000
vt 0.7812 0.3165 0.0000
vt 0.7753 0.3165 0.0000
vt 0.7753 0.4268 0.0000
vt 0.6813 0.4268 0.0000
vt 0.6813 0.3165 0.0000
vt 0.6933 0.1733 0.0000
vt 0.6784 0.0645 0.0000
vt 0.6784 0.3165 0.0000
vt 0.3950 0.9207 0.0000
vt 0.4046 0.9187 0.0000
vt 0.4049 0.9187 0.0000
vt 0.4119 0.9212 0.0000
vt 0.4049 0.9112 0.0000
vt 0.4046 0.9112 0.0000
vt 0.4046 0.9062 0.0000
vt 0.4049 0.9062 0.0000
vt 0.4049 0.8987 0.0000
vt 0.4046 0.8987 0.0000
vt 0.4046 0.8937 0.0000
vt 0.4049 0.8937 0.0000
vt 0.4049 0.8862 0.0000
vt 0.4046 0.8862 0.0000
vt 0.4046 0.8812 0.0000
vt 0.4049 0.8812 0.0000
vt 0.4049 0.8737 0.0000
vt 0.4046 0.8737 0.0000
vt 0.4119 0.8712 0.0000
vt 0.3950 0.9212 0.0000
vt 0.4122 0.8712 0.0000
vt 0.4158 0.8712 0.0000
vt 0.4158 0.9212 0.0000
vt 0.4122 0.9212 0.0000
vt 0.4234 0.9187 0.0000
vt 0.4234 0.9112 0.0000
vt 0.4304 0.9212 0.0000
vt 0.4231 0.9187 0.0000
vt 0.4161 0.9212 0.0000
vt 0.4231 0.9112 0.0000
vt 0.4231 0.9062 0.0000
vt 0.4231 0.8987 0.0000
vt 0.4231 0.8937 0.0000
vt 0.4231 0.8862 0.0000
vt 0.4231 0.8812 0.0000
vt 0.4231 0.8737 0.0000
vt 0.4161 0.8712 0.0000
vt 0.4304 0.8712 0.0000
vt 0.4234 0.9062 0.0000
vt 0.4234 0.8987 0.0000
vt 0.4234 0.8937 0.0000
vt 0.4234 0.8862 0.0000
vt 0.4234 0.8812 0.0000
vt 0.4234 0.8737 0.0000
vt 0.4307 0.8712 0.0000
vt 0.4340 0.8712 0.0000
vt 0.4340 0.9212 0.0000
vt 0.4307 0.9212 0.0000
vt 0.5303 0.8874 0.0000
vt 0.5377 0.8874 0.0000
vt 0.5377 0.8884 0.0000
vt 0.5303 0.8884 0.0000
vt 0.5303 0.9042 0.0000
vt 0.5377 0.9042 0.0000
vt 0.5377 0.9052 0.0000
vt 0.5303 0.9052 0.0000
vt 0.5303 0.9207 0.0000
vt 0.5377 0.9207 0.0000
vt 0.5377 0.9212 0.0000
vt 0.5300 0.9212 0.0000
vt 0.5303 0.8717 0.0000
vt 0.5300 0.8712 0.0000
vt 0.5377 0.8717 0.0000
vt 0.5377 0.8712 0.0000
vt 0.5476 0.8737 0.0000
vt 0.5476 0.8812 0.0000
vt 0.5473 0.8812 0.0000
vt 0.5473 0.8737 0.0000
vt 0.5476 0.8862 0.0000
vt 0.5476 0.8937 0.0000
vt 0.5473 0.8937 0.0000
vt 0.5473 0.8862 0.0000
vt 0.5476 0.8987 0.0000
vt 0.5476 0.9062 0.0000
vt 0.5473 0.9062 0.0000
vt 0.5473 0.8987 0.0000
vt 0.5476 0.9112 0.0000
vt 0.5476 0.9187 0.0000
vt 0.5473 0.9187 0.0000
vt 0.5473 0.9112 0.0000
vt 0.5546 0.8712 0.0000
vt 0.5549 0.8712 0.0000
vt 0.5549 0.9212 0.0000
vt 0.5546 0.9212 0.0000
vt 0.5585 0.8712 0.0000
vt 0.5588 0.8712 0.0000
vt 0.5588 0.9212 0.0000
vt 0.5585 0.9212 0.0000
vt 0.5661 0.8737 0.0000
vt 0.5661 0.8812 0.0000
vt 0.5658 0.8812 0.0000
vt 0.5658 0.8737 0.0000
vt 0.5661 0.8862 0.0000
vt 0.5661 0.8937 0.0000
vt 0.5658 0.8937 0.0000
vt 0.5658 0.8862 0.0000
vt 0.5661 0.8987 0.0000
vt 0.5661 0.9062 0.0000
vt 0.5658 0.9062 0.0000
vt 0.5658 0.8987 0.0000
vt 0.5658 0.9112 0.0000
vt 0.5661 0.9112 0.0000
vt 0.5661 0.9187 0.0000
vt 0.5658 0.9187 0.0000
vt 0.5731 0.8712 0.0000
vt 0.5734 0.8712 0.0000
vt 0.5734 0.9212 0.0000
vt 0.5731 0.9212 0.0000
vt 0.2981 0.8761 0.0000
vt 0.2981 0.9261 0.0000
vt 0.3011 0.9261 0.0000
vt 0.3011 0.8761 0.0000
vt 0.2511 0.8761 0.0000
vt 0.2511 0.9261 0.0000
vt 0.2541 0.9261 0.0000
vt 0.2541 0.8761 0.0000
# 142 texture coords

g SPW_Urban_Road_4way_Side_Parking_02
usemtl SPW_Urban_Road
s 1
f 1/1/1 2/2/2 3/3/1 4/4/1 
f 5/5/1 6/6/1 7/7/2 8/8/1 
f 9/9/1 8/8/1 7/7/2 10/10/1 
f 11/11/1 10/10/1 7/7/2 12/12/2 
f 7/7/2 13/13/1 14/14/2 15/15/1 
f 12/12/2 7/7/2 15/15/1 16/16/1 
f 16/16/1 17/17/1 18/18/1 19/19/1 
f 12/12/2 16/16/1 19/19/1 20/20/2 
f 20/20/2 21/21/1 22/22/2 23/23/2 
f 12/12/2 20/20/2 23/23/2 24/24/1 
f 25/25/1 24/24/1 23/23/2 26/26/1 
f 7/27/2 6/28/1 27/29/2 28/30/2 
f 29/31/1 5/32/1 8/33/1 30/34/1 
f 31/35/1 9/36/1 10/37/1 32/38/1 
f 33/39/1 11/40/1 12/41/2 34/42/1 
f 35/43/1 24/44/1 25/45/1 34/42/1 
f 33/39/1 34/42/1 25/45/1 32/38/1 
f 31/35/1 32/38/1 25/45/1 30/34/1 
f 29/31/1 30/34/1 25/45/1 27/29/2 
f 27/29/2 25/45/1 28/30/2 
f 36/46/1 7/27/2 28/30/2 
f 37/47/2 38/48/2 39/49/2 40/50/2 
f 41/51/2 42/52/1 43/53/2 44/54/2 
f 44/54/2 43/53/2 45/55/1 46/56/1 
f 47/57/1 46/56/1 45/55/1 48/58/1 
f 49/59/1 48/58/1 45/55/1 50/60/1 
f 51/61/1 50/60/1 45/55/1 52/62/2 
f 53/63/2 52/62/2 45/55/1 
f 54/64/1 43/53/2 42/52/1 55/65/1 
f 42/52/1 46/56/1 47/57/1 55/65/1 
f 54/64/1 55/65/1 56/66/1 57/67/1 
f 56/66/1 48/58/1 49/59/1 57/67/1 
f 54/64/1 57/67/1 58/68/1 59/69/1 
f 58/68/1 50/60/1 51/61/1 59/69/1 
f 54/64/1 59/69/1 60/70/2 53/63/2 
f 53/63/2 60/70/2 52/62/2 
f 61/71/1 62/72/1 63/73/1 64/74/1 
f 21/75/1 20/76/2 19/77/1 18/78/1 
f 17/79/1 16/80/1 15/81/1 14/82/2 
f 13/83/1 7/84/2 36/85/1 3/86/1 
f 14/82/2 13/83/1 3/86/1 17/79/1 
f 18/78/1 17/79/1 3/86/1 21/75/1 
f 22/87/2 21/75/1 3/86/1 2/88/2 
f 23/89/2 22/87/2 2/88/2 26/90/1 
f 35/91/1 34/92/1 12/93/2 24/94/1 
f 33/95/1 32/96/1 10/97/1 11/98/1 
f 31/99/1 30/100/1 8/101/1 9/102/1 
f 29/103/1 27/104/2 6/105/1 5/106/1 
f 25/107/1 37/108/2 40/109/2 28/110/2 
f 38/111/2 53/112/2 45/113/1 39/114/2 
f 60/115/2 59/116/1 51/117/1 52/118/2 
f 58/119/1 57/120/1 49/121/1 50/122/1 
f 56/123/1 55/124/1 47/125/1 48/126/1 
f 46/127/1 42/128/1 41/129/2 44/130/2 
f 54/131/1 61/132/1 64/133/1 43/134/2 
s off
f 65/135/3 66/136/3 67/136/3 68/135/3 
f 66/136/4 69/137/4 70/137/4 67/136/4 
f 69/137/5 71/138/5 72/138/5 70/137/5 
f 71/138/6 65/135/6 68/135/6 72/138/6 
f 68/135/7 67/136/7 70/137/7 72/138/7 
f 71/138/1 69/137/1 66/136/1 65/135/1 
f 73/139/3 74/140/3 75/140/3 76/139/3 
f 74/140/4 77/141/4 78/141/4 75/140/4 
f 77/141/5 79/142/5 80/142/5 78/141/5 
f 79/142/6 73/139/6 76/139/6 80/142/6 
f 76/139/7 75/140/7 78/141/7 80/142/7 
f 79/142/1 77/141/1 74/140/1 73/139/1 
# 63 polygons - 4 triangles

