# 3ds Max Wavefront OBJ Exporter v0.97b - (c)2007 guruware
# File Created: 15.03.2017 11:30:55

mtllib SPW_Urban_Road 2way_Side Parking_03.mtl

#
# object SPW_Urban_Road_2way_Side_Parking_03
#

v  0.0000 7.8740 393.7008
v  -393.7007 7.8740 393.7008
v  -393.7007 -0.0000 393.7008
v  0.0000 -0.0000 393.7008
v  -393.7007 7.8740 275.5906
v  -393.7007 -0.0000 275.5906
v  0.0000 7.8740 275.5906
v  0.0000 -0.0000 275.5906
v  393.7008 7.8740 -275.5905
v  -393.7008 7.8740 -275.5905
v  -393.7008 0.0000 -275.5905
v  393.7008 0.0000 -275.5905
v  -393.7008 7.8741 -393.7007
v  -393.7008 0.0000 -393.7007
v  393.7008 7.8741 -393.7007
v  393.7008 0.0000 -393.7007
v  0.0001 7.8739 669.2913
v  -0.0000 7.8740 275.5905
v  -0.0000 -0.0000 275.5905
v  0.0001 -0.0001 669.2913
v  118.1102 7.8740 275.5905
v  118.1102 -0.0000 275.5905
v  118.1103 7.8739 669.2913
v  118.1103 -0.0001 669.2913
v  0.0000 7.8739 669.2915
v  393.7008 7.8739 669.2915
v  393.7008 -0.0001 669.2915
v  0.0000 -0.0001 669.2915
v  393.7008 7.8739 787.4017
v  393.7008 -0.0001 787.4017
v  0.0000 7.8739 787.4017
v  0.0000 -0.0001 787.4017
v  -157.4803 0.0000 -5.9055
v  -157.4803 -0.0000 5.9055
v  -39.3701 -0.0000 5.9055
v  -39.3701 0.0000 -5.9055
v  -393.7008 0.0000 -251.9685
v  -354.3307 -0.0000 5.9055
v  -354.3307 0.0000 -5.9055
v  393.7008 0.0000 -251.9686
v  -236.2205 0.0000 -5.9055
v  -236.2205 -0.0000 5.9055
v  39.3701 0.0000 -5.9055
v  39.3701 -0.0000 5.9055
v  157.4803 0.0000 -5.9055
v  236.2205 0.0000 -5.9055
v  157.4803 -0.0000 5.9055
v  236.2205 -0.0000 5.9055
v  354.3307 0.0000 -5.9055
v  354.3307 -0.0000 5.9055
v  385.8268 -0.0000 393.7008
v  141.7323 -0.0000 393.7008
v  141.7322 -0.0001 645.6692
v  385.8268 -0.0001 645.6692
v  141.7323 -0.0000 251.9685
v  -393.7008 -0.0000 251.9685
v  -393.7008 -0.0000 263.7795
v  129.9213 -0.0000 263.7795
v  129.9212 -0.0000 393.7008
v  129.9212 -0.0001 657.4802
v  393.7008 -0.0001 657.4802
v  385.8268 -0.0000 354.3307
v  393.7008 -0.0000 354.3307
v  393.7008 0.0000 -263.7796
v  -393.7008 0.0000 -263.7795
v  0.0000 -0.0001 787.4016
v  393.7008 -0.0001 787.4016
v  393.7008 0.0000 -393.7008
v  -393.7008 0.0000 -393.7008
v  -393.7008 -0.0000 393.7008
# 70 vertices

vn 0.0000 -0.0000 1.0000
vn -1.0000 0.0000 -0.0000
vn -0.0000 0.0000 -1.0000
vn 1.0000 0.0000 -0.0000
vn -0.0000 -1.0000 -0.0000
vn -0.0000 1.0000 0.0000
vn 0.0000 0.0000 -1.0000
vn -1.0000 -0.0000 0.0000
vn 0.0000 -1.0000 -0.0000
vn 0.0000 1.0000 0.0000
# 10 vertex normals

vt 0.2467 0.8751 0.0000
vt 0.2467 0.9001 0.0000
vt 0.2517 0.9001 0.0000
vt 0.2517 0.8751 0.0000
vt 0.2751 0.8501 0.0000
vt 0.2751 0.9001 0.0000
vt 0.2801 0.9001 0.0000
vt 0.2801 0.8501 0.0000
vt 0.2351 0.8751 0.0000
vt 0.2517 0.8676 0.0000
vt 0.2351 0.8676 0.0000
vt 0.2351 0.8501 0.0000
vt 0.2301 0.8501 0.0000
vt 0.2301 0.8751 0.0000
vt 0.5582 0.9100 0.0000
vt 0.5577 0.9100 0.0000
vt 0.5577 0.9025 0.0000
vt 0.5582 0.9025 0.0000
vt 0.4322 0.9156 0.0000
vt 0.4213 0.9131 0.0000
vt 0.4218 0.9131 0.0000
vt 0.4322 0.8656 0.0000
vt 0.4218 0.9056 0.0000
vt 0.4218 0.9006 0.0000
vt 0.4213 0.9056 0.0000
vt 0.4213 0.9006 0.0000
vt 0.4218 0.8931 0.0000
vt 0.4218 0.8881 0.0000
vt 0.4213 0.8931 0.0000
vt 0.4213 0.8881 0.0000
vt 0.4218 0.8806 0.0000
vt 0.4218 0.8756 0.0000
vt 0.4213 0.8806 0.0000
vt 0.4213 0.8756 0.0000
vt 0.4218 0.8681 0.0000
vt 0.4213 0.8681 0.0000
vt 0.8824 0.3315 0.0000
vt 0.9753 0.3315 0.0000
vt 0.9753 0.4274 0.0000
vt 0.8824 0.4274 0.0000
vt 0.5473 0.8910 0.0000
vt 0.5473 0.9250 0.0000
vt 0.5468 0.9250 0.0000
vt 0.5468 0.8917 0.0000
vt 0.5413 0.8917 0.0000
vt 0.5301 0.8917 0.0000
vt 0.5306 0.8910 0.0000
vt 0.5413 0.8910 0.0000
vt 0.5306 0.8755 0.0000
vt 0.5301 0.8750 0.0000
vt 0.5413 0.8755 0.0000
vt 0.5429 0.8755 0.0000
vt 0.5429 0.8750 0.0000
vt 0.5582 0.9225 0.0000
vt 0.5577 0.9225 0.0000
vt 0.5577 0.9150 0.0000
vt 0.5582 0.9150 0.0000
vt 0.5686 0.8750 0.0000
vt 0.5691 0.8750 0.0000
vt 0.5691 0.9250 0.0000
vt 0.5686 0.9250 0.0000
vt 0.4109 0.8816 0.0000
vt 0.4049 0.8816 0.0000
vt 0.4049 0.8661 0.0000
vt 0.4065 0.8661 0.0000
vt 0.4065 0.8656 0.0000
vt 0.4109 0.9156 0.0000
vt 0.3882 0.8906 0.0000
vt 0.3882 0.8656 0.0000
vt 0.3937 0.8656 0.0000
vt 0.3937 0.8824 0.0000
vt 0.4049 0.8906 0.0000
vt 0.4049 0.8824 0.0000
vt 0.5582 0.8975 0.0000
vt 0.5577 0.8975 0.0000
vt 0.5577 0.8900 0.0000
vt 0.5582 0.8900 0.0000
vt 0.4327 0.8656 0.0000
vt 0.4382 0.8656 0.0000
vt 0.4382 0.9156 0.0000
vt 0.4327 0.9156 0.0000
vt 0.4104 0.9156 0.0000
vt 0.4049 0.9156 0.0000
vt 0.4104 0.8824 0.0000
vt 0.5582 0.8850 0.0000
vt 0.5577 0.8850 0.0000
vt 0.5577 0.8775 0.0000
vt 0.5582 0.8775 0.0000
# 88 texture coords

g SPW_Urban_Road_2way_Side_Parking_03
usemtl SPW_Urban_Road
s off
f 1/1/1 2/2/1 3/2/1 4/1/1 
f 2/2/2 5/3/2 6/3/2 3/2/2 
f 5/3/3 7/4/3 8/4/3 6/3/3 
f 7/4/4 1/1/4 4/1/4 8/4/4 
f 4/1/5 3/2/5 6/3/5 8/4/5 
f 7/4/6 5/3/6 2/2/6 1/1/6 
f 9/5/1 10/6/1 11/6/1 12/5/1 
f 10/6/2 13/7/2 14/7/2 11/6/2 
f 13/7/7 15/8/7 16/8/7 14/7/7 
f 15/8/4 9/5/4 12/5/4 16/8/4 
f 12/5/5 11/6/5 14/7/5 16/8/5 
f 15/8/6 13/7/6 10/6/6 9/5/6 
f 17/9/8 18/4/8 19/4/8 20/9/8 
f 18/4/7 21/10/7 22/10/7 19/4/7 
f 21/10/4 23/11/4 24/11/4 22/10/4 
f 23/11/1 17/9/1 20/9/1 24/11/1 
f 20/9/9 19/4/9 22/10/9 24/11/9 
f 23/11/10 21/10/10 18/4/10 17/9/10 
f 25/9/7 26/12/7 27/12/7 28/9/7 
f 26/12/4 29/13/4 30/13/4 27/12/4 
f 29/13/1 31/14/1 32/14/1 30/13/1 
f 31/14/8 25/9/8 28/9/8 32/14/8 
f 28/9/9 27/12/9 30/13/9 32/14/9 
f 31/14/10 29/13/10 26/12/10 25/9/10 
s 1
f 33/15/10 34/16/6 35/17/10 36/18/6 
f 37/19/6 38/20/6 39/21/6 40/22/6 
f 40/22/6 39/21/6 41/23/6 33/24/10 
f 41/23/6 42/25/10 34/26/6 33/24/10 
f 40/22/6 33/24/10 36/27/6 43/28/10 
f 36/27/6 35/29/10 44/30/6 43/28/10 
f 40/22/6 43/28/10 45/31/6 46/32/10 
f 45/31/6 47/33/10 48/34/6 46/32/10 
f 40/22/6 46/32/10 49/35/10 50/36/6 
f 51/37/10 52/38/6 53/39/6 54/40/10 
f 55/41/6 56/42/10 57/43/10 58/44/6 
f 59/45/10 60/46/6 53/47/6 58/44/6 
f 58/44/6 53/47/6 52/48/6 55/41/6 
f 54/49/10 53/47/6 60/46/6 61/50/10 
f 51/51/10 54/49/10 61/50/10 62/52/10 
f 62/52/10 61/50/10 63/53/10 
f 39/54/6 38/55/6 42/56/10 41/57/6 
f 40/58/6 64/59/6 65/60/6 37/61/6 
f 55/62/6 52/63/6 51/64/10 62/65/10 
f 62/65/10 63/66/10 40/22/6 50/36/6 
f 55/62/6 62/65/10 50/36/6 56/67/10 
f 56/67/10 50/36/6 48/34/6 47/33/10 
f 56/67/10 47/33/10 44/30/6 35/29/10 
f 56/67/10 35/29/10 34/26/6 42/25/10 
f 56/67/10 42/25/10 38/20/6 37/19/6 
f 66/68/10 67/69/10 61/70/10 60/71/6 
f 4/72/10 66/68/10 60/71/6 59/73/10 
f 43/74/10 44/75/6 47/76/10 45/77/6 
f 64/78/6 68/79/10 69/80/6 65/81/6 
f 57/82/10 70/83/10 4/72/10 59/73/10 
f 57/82/10 59/73/10 58/84/6 
f 46/85/10 48/86/6 50/87/6 49/88/10 
# 54 polygons - 2 triangles

