{
  "accessors": [
    {
      "name": "SPW_Terrain_Sand_Plan_B_In_Corner_1_0_positions",
      "componentType": 5126,
      "count": 4,
      "min": [
        -393.7008972167969,
        0,
        -393.7008972167969
      ],
      "max": [
        393.7008972167969,
        275.5906066894531,
        393.7008972167969
      ],
      "type": "VEC3",
      "bufferView": 0,
      "byteOffset": 0
    },
    {
      "name": "SPW_Terrain_Sand_Plan_B_In_Corner_1_0_normals",
      "componentType": 5126,
      "count": 4,
      "min": [
        0.1699008047580719,
        0.9707046151161194,
        -0.1699008047580719
      ],
      "max": [
        0.1699008047580719,
        0.9707046151161194,
        -0.1699008047580719
      ],
      "type": "VEC3",
      "bufferView": 1,
      "byteOffset": 0
    },
    {
      "name": "SPW_Terrain_Sand_Plan_B_In_Corner_1_0_texcoords",
      "componentType": 5126,
      "count": 4,
      "min": [
        0.4997999966144562,
        0.902899980545044
      ],
      "max": [
        0.5497999787330627,
        0.9527999758720398
      ],
      "type": "VEC2",
      "bufferView": 2,
      "byteOffset": 0
    },
    {
      "name": "SPW_Terrain_Sand_Plan_B_In_Corner_1_0_indices",
      "componentType": 5123,
      "count": 6,
      "min": [
        0
      ],
      "max": [
        3
      ],
      "type": "SCALAR",
      "bufferView": 3,
      "byteOffset": 0
    }
  ],
  "asset": {
    "generator": "obj2gltf",
    "version": "2.0"
  },
  "buffers": [
    {
      "name": "SPW_Terrain_Sand_Plan B_In_Corner",
      "byteLength": 2280,
      "uri": "data:application/octet-stream;base64,"
    }
  ],
  "bufferViews": [
    {
      "name": "bufferView_0",
      "buffer": 0,
      "byteLength": 48,
      "byteOffset": 0,
      "byteStride": 12,
      "target": 34962
    },
    {
      "name": "bufferView_1",
      "buffer": 0,
      "byteLength": 48,
      "byteOffset": 48,
      "byteStride": 12,
      "target": 34962
    },
    {
      "name": "bufferView_2",
      "buffer": 0,
      "byteLength": 32,
      "byteOffset": 96,
      "byteStride": 8,
      "target": 34962
    },
    {
      "name": "bufferView_3",
      "buffer": 0,
      "byteLength": 12,
      "byteOffset": 128,
      "target": 34963
    },
    {
      "buffer": 0,
      "byteOffset": 140,
      "byteLength": 2138
    }
  ],
  "images": [
    {
      "name": "SPW_Natures_01",
      "mimeType": "image/png",
      "bufferView": 4
    }
  ],
  "materials": [
    {
      "name": "SPW_Natures_02",
      "pbrMetallicRoughness": {
        "baseColorTexture": {
          "index": 0
        },
        "baseColorFactor": [
          1,
          1,
          1,
          1
        ],
        "metallicFactor": 0,
        "roughnessFactor": 0.9567807
      },
      "emissiveFactor": [
        0,
        0,
        0
      ],
      "alphaMode": "OPAQUE",
      "doubleSided": false
    }
  ],
  "meshes": [
    {
      "name": "SPW_Terrain_Sand_Plan_B_In_Corner_1",
      "primitives": [
        {
          "attributes": {
            "POSITION": 0,
            "NORMAL": 1,
            "TEXCOORD_0": 2
          },
          "indices": 3,
          "material": 0,
          "mode": 4
        }
      ]
    }
  ],
  "nodes": [
    {
      "name": "SPW_Terrain_Sand_Plan_B_In_Corner",
      "mesh": 0
    }
  ],
  "samplers": [
    {
      "magFilter": 9729,
      "minFilter": 9986,
      "wrapS": 10497,
      "wrapT": 10497
    }
  ],
  "scene": 0,
  "scenes": [
    {
      "nodes": [
        0
      ]
    }
  ],
  "textures": [
    {
      "name": "SPW_Natures_01",
      "sampler": 0,
      "source": 0
    }
  ]
}
