{
  "accessors": [
    {
      "name": "SPW_Terrain_River_Intersection_1_0_positions",
      "componentType": 5126,
      "count": 69,
      "min": [
        -787.4016723632812,
        -275.5906066894531,
        -787.401611328125
      ],
      "max": [
        787.4016723632812,
        0.00009999999747378752,
        787.4016723632812
      ],
      "type": "VEC3",
      "bufferView": 0,
      "byteOffset": 0
    },
    {
      "name": "SPW_Terrain_River_Intersection_1_0_normals",
      "componentType": 5126,
      "count": 69,
      "min": [
        -1,
        0,
        -1
      ],
      "max": [
        1,
        1,
        0.32839080691337585
      ],
      "type": "VEC3",
      "bufferView": 1,
      "byteOffset": 0
    },
    {
      "name": "SPW_Terrain_River_Intersection_1_0_texcoords",
      "componentType": 5126,
      "count": 69,
      "min": [
        0.8744000196456909,
        0.7484999895095825
      ],
      "max": [
        0.926800012588501,
        0.9373000264167786
      ],
      "type": "VEC2",
      "bufferView": 2,
      "byteOffset": 0
    },
    {
      "name": "SPW_Terrain_River_Intersection_1_0_indices",
      "componentType": 5123,
      "count": 99,
      "min": [
        0
      ],
      "max": [
        68
      ],
      "type": "SCALAR",
      "bufferView": 3,
      "byteOffset": 0
    }
  ],
  "asset": {
    "generator": "obj2gltf",
    "version": "2.0"
  },
  "buffers": [
    {
      "name": "SPW_Terrain_River_Intersection",
      "byteLength": 4548,
      "uri": "data:application/octet-stream;base64,"
    }
  ],
  "bufferViews": [
    {
      "name": "bufferView_0",
      "buffer": 0,
      "byteLength": 828,
      "byteOffset": 0,
      "byteStride": 12,
      "target": 34962
    },
    {
      "name": "bufferView_1",
      "buffer": 0,
      "byteLength": 828,
      "byteOffset": 828,
      "byteStride": 12,
      "target": 34962
    },
    {
      "name": "bufferView_2",
      "buffer": 0,
      "byteLength": 552,
      "byteOffset": 1656,
      "byteStride": 8,
      "target": 34962
    },
    {
      "name": "bufferView_3",
      "buffer": 0,
      "byteLength": 200,
      "byteOffset": 2208,
      "target": 34963
    },
    {
      "buffer": 0,
      "byteOffset": 2408,
      "byteLength": 2138
    }
  ],
  "images": [
    {
      "name": "SPW_Natures_01",
      "mimeType": "image/png",
      "bufferView": 4
    }
  ],
  "materials": [
    {
      "name": "SPW_Natures_02",
      "pbrMetallicRoughness": {
        "baseColorTexture": {
          "index": 0
        },
        "baseColorFactor": [
          1,
          1,
          1,
          1
        ],
        "metallicFactor": 0,
        "roughnessFactor": 0.9567807
      },
      "emissiveFactor": [
        0,
        0,
        0
      ],
      "alphaMode": "OPAQUE",
      "doubleSided": false
    }
  ],
  "meshes": [
    {
      "name": "SPW_Terrain_River_Intersection_1",
      "primitives": [
        {
          "attributes": {
            "POSITION": 0,
            "NORMAL": 1,
            "TEXCOORD_0": 2
          },
          "indices": 3,
          "material": 0,
          "mode": 4
        }
      ]
    }
  ],
  "nodes": [
    {
      "name": "SPW_Terrain_River_Intersection",
      "mesh": 0
    }
  ],
  "samplers": [
    {
      "magFilter": 9729,
      "minFilter": 9986,
      "wrapS": 10497,
      "wrapT": 10497
    }
  ],
  "scene": 0,
  "scenes": [
    {
      "nodes": [
        0
      ]
    }
  ],
  "textures": [
    {
      "name": "SPW_Natures_01",
      "sampler": 0,
      "source": 0
    }
  ]
}
