# 3ds Max Wavefront OBJ Exporter v0.97b - (c)2007 guruware
# File Created: 15.03.2017 11:00:42

mtllib SPW_Urban_Props_Air Balloon.mtl

#
# object SPW_Urban_Props_Air_Balloon
#

v  -16.4009 72.3839 -19.7196
v  -16.4009 72.3839 -21.2944
v  -15.2397 30.1063 -15.1988
v  -15.2397 30.1063 -13.6240
v  -14.8261 72.3839 -21.2944
v  -13.6649 30.1063 -15.1988
v  -14.8261 72.3839 -19.7196
v  -13.6649 30.1063 -13.6240
v  -16.4009 72.3839 21.8555
v  -16.4009 72.3839 20.2807
v  -15.2397 30.1063 13.6482
v  -15.2397 30.1063 15.2230
v  -14.8261 72.3839 20.2807
v  -13.6649 30.1063 13.6482
v  -14.8261 72.3839 21.8555
v  -13.6649 30.1063 15.2230
v  14.2051 69.2256 -19.7196
v  14.2051 69.2256 -21.2944
v  13.6675 30.1063 -15.1988
v  13.6675 30.1063 -13.6240
v  15.7799 69.2256 -21.2944
v  15.2423 30.1063 -15.1988
v  15.7799 69.2256 -19.7196
v  15.2423 30.1063 -13.6240
v  14.2051 69.2256 21.8555
v  14.2051 69.2256 20.2807
v  13.6675 30.1063 13.6482
v  13.6675 30.1063 15.2230
v  15.7799 69.2256 20.2807
v  15.2423 30.1063 13.6482
v  15.7799 69.2256 21.8555
v  15.2423 30.1063 15.2230
v  -15.7468 28.3627 15.7478
v  -15.7468 28.3627 -15.7483
v  -15.7468 3.5861 -15.7483
v  -15.7468 3.5861 15.7478
v  15.7492 28.3627 -15.7483
v  15.7492 3.5861 -15.7483
v  15.7492 28.3627 15.7478
v  15.7492 3.5861 15.7478
v  -15.7468 -0.0003 15.7478
v  15.7492 -0.0003 15.7478
v  -15.7468 31.4957 15.7478
v  15.7492 31.4957 15.7478
v  13.0262 31.4957 13.0248
v  -13.0238 31.4957 13.0248
v  -13.0238 28.6022 13.0248
v  13.0262 28.6022 13.0248
v  13.0262 12.2880 13.0248
v  -13.0238 12.2880 13.0248
v  15.7492 31.4957 -15.7483
v  13.0262 31.4957 -13.0253
v  -15.7468 31.4957 -15.7483
v  -13.0238 31.4957 -13.0253
v  13.0262 12.2880 -13.0253
v  -13.0238 12.2880 -13.0253
v  13.0262 28.6022 -13.0253
v  -13.0238 28.6022 -13.0253
v  -15.7468 -0.0003 -15.7483
v  15.7492 -0.0003 -15.7483
v  0.0012 101.0149 -55.9326
v  0.0012 176.9926 -119.4200
v  48.5736 176.9926 -109.0956
v  22.7509 101.0149 -51.0970
v  88.7474 176.9926 -79.9076
v  41.5670 101.0149 -37.4263
v  113.5762 176.9926 -36.9030
v  53.1960 101.0149 -17.2843
v  118.7668 176.9926 12.4825
v  55.6271 101.0149 5.8463
v  103.4218 176.9926 59.7097
v  48.4400 101.0149 27.9659
v  70.1944 176.9926 96.6124
v  32.8774 101.0149 45.2500
v  24.8300 176.9926 116.8100
v  11.6302 101.0149 54.7098
v  -24.8276 176.9926 116.8100
v  -11.6278 101.0149 54.7098
v  -70.1920 176.9926 96.6124
v  -32.8750 101.0149 45.2500
v  -103.4194 176.9926 59.7097
v  -48.4376 101.0149 27.9659
v  -118.7644 176.9926 12.4825
v  -55.6247 101.0149 5.8463
v  -113.5738 176.9926 -36.9030
v  -53.1936 101.0149 -17.2843
v  -88.7450 176.9926 -79.9077
v  -41.5646 101.0149 -37.4263
v  -48.5712 176.9926 -109.0956
v  -57.8277 209.0435 -129.8860
v  0.0012 209.0435 -142.1779
v  -22.7485 101.0149 -51.0970
v  0.0012 68.1922 -26.3139
v  10.7040 68.1922 -24.0390
v  19.5561 68.1922 -17.6075
v  25.0270 68.1922 -8.1316
v  26.1708 68.1922 2.7503
v  22.7895 68.1922 13.1566
v  15.4680 68.1922 21.2880
v  5.4721 68.1922 25.7385
v  -5.4697 68.1922 25.7385
v  -15.4656 68.1922 21.2880
v  -22.7871 68.1922 13.1566
v  -26.1684 68.1922 2.7503
v  -25.0246 68.1922 -8.1316
v  -19.5537 68.1922 -17.6076
v  -10.7015 68.1922 -24.0390
v  0.0012 247.9426 -163.6891
v  -66.5770 247.9426 -149.5375
v  -72.1086 290.1724 -161.9615
v  0.0012 290.1724 -177.2889
v  -105.6574 209.0435 -95.1357
v  -135.2178 209.0435 -43.9356
v  -141.3976 209.0435 14.8614
v  -123.1283 209.0435 71.0886
v  -83.5688 209.0435 115.0240
v  -29.5592 209.0435 139.0706
v  29.5616 209.0435 139.0706
v  83.5712 209.0435 115.0240
v  123.1307 209.0435 71.0887
v  141.4001 209.0435 14.8614
v  135.2203 209.0435 -43.9356
v  105.6599 209.0435 -95.1357
v  57.8301 209.0435 -129.8860
v  -72.1086 313.7098 -161.9615
v  0.0012 313.7098 -177.2889
v  -121.6433 247.9426 -109.5295
v  -131.7499 290.1724 -118.6295
v  -155.6762 247.9426 -50.5829
v  -168.6103 290.1724 -54.7854
v  -162.7910 247.9426 17.1099
v  -176.3163 290.1724 18.5315
v  -141.7576 247.9426 81.8442
v  -153.5353 290.1724 88.6441
v  -96.2127 247.9426 132.4269
v  -104.2065 290.1724 143.4293
v  -34.0316 247.9426 160.1117
v  -36.8592 290.1724 173.4143
v  34.0340 247.9426 160.1117
v  36.8616 290.1724 173.4143
v  96.2151 247.9426 132.4269
v  104.2089 290.1724 143.4294
v  141.7600 247.9426 81.8443
v  153.5377 290.1724 88.6441
v  162.7934 247.9426 17.1099
v  176.3187 290.1724 18.5315
v  155.6786 247.9426 -50.5829
v  168.6128 290.1724 -54.7854
v  121.6458 247.9426 -109.5295
v  131.7524 290.1724 -118.6295
v  66.5795 247.9426 -149.5375
v  72.1110 290.1724 -161.9615
v  -68.9840 344.7592 -154.9437
v  0.0012 344.7592 -169.6069
v  -131.7499 313.7098 -118.6295
v  -168.6103 313.7098 -54.7854
v  -176.3163 313.7098 18.5315
v  -153.5353 313.7098 88.6441
v  -104.2065 313.7098 143.4293
v  -36.8592 313.7098 173.4143
v  36.8616 313.7098 173.4143
v  104.2089 313.7098 143.4294
v  153.5377 313.7098 88.6441
v  176.3187 313.7098 18.5315
v  168.6128 313.7098 -54.7854
v  131.7524 313.7098 -118.6295
v  72.1110 313.7098 -161.9615
v  -63.2772 373.3045 -142.1259
v  0.0012 373.3045 -155.5761
v  -126.0411 344.7592 -113.4893
v  -161.3044 344.7592 -52.4116
v  -168.6764 344.7592 17.7285
v  -146.8825 344.7592 84.8032
v  -99.6912 344.7591 137.2145
v  -35.2620 344.7591 165.9002
v  35.2644 344.7591 165.9002
v  99.6935 344.7591 137.2146
v  146.8850 344.7592 84.8032
v  168.6788 344.7592 17.7285
v  161.3068 344.7592 -52.4116
v  126.0436 344.7592 -113.4893
v  68.9865 344.7592 -154.9437
v  -53.2067 401.8499 -119.5072
v  0.0012 401.8499 -130.8169
v  -115.6142 373.3045 -104.1008
v  -147.9603 373.3045 -48.0758
v  -154.7225 373.3045 16.2619
v  -134.7315 373.3045 77.7878
v  -91.4440 373.3044 125.8634
v  -32.3449 373.3044 152.1760
v  32.3473 373.3044 152.1760
v  91.4464 373.3044 125.8634
v  134.7339 373.3045 77.7878
v  154.7249 373.3045 16.2619
v  147.9627 373.3045 -48.0758
v  115.6167 373.3045 -104.1008
v  63.2796 373.3045 -142.1259
v  -39.3852 429.4156 -88.4636
v  0.0012 429.4156 -96.8354
v  -97.2145 401.8498 -87.5337
v  -124.4129 401.8498 -40.4248
v  -130.0988 401.8498 13.6739
v  -113.2894 401.8498 65.4081
v  -76.8909 401.8498 105.8327
v  -27.1971 401.8498 127.9578
v  27.1995 401.8498 127.9578
v  76.8933 401.8498 105.8328
v  113.2918 401.8498 65.4082
v  130.1013 401.8498 13.6739
v  124.4153 401.8498 -40.4248
v  97.2169 401.8498 -87.5337
v  53.2092 401.8499 -119.5072
v  0.0012 438.6733 -79.1541
v  -32.1936 438.6733 -72.3109
v  -24.0378 447.9310 -53.9928
v  0.0012 447.9310 -59.1024
v  -71.9614 429.4156 -64.7957
v  -92.0946 429.4156 -29.9239
v  -96.3036 429.4156 10.1218
v  -83.8606 429.4156 48.4174
v  -56.9172 429.4156 78.3412
v  -20.1320 429.4156 94.7190
v  20.1344 429.4156 94.7190
v  56.9195 429.4156 78.3412
v  83.8630 429.4156 48.4175
v  96.3060 429.4156 10.1219
v  92.0970 429.4156 -29.9239
v  71.9638 429.4156 -64.7956
v  39.3877 429.4156 -88.4636
v  -8.1093 458.3280 -18.2167
v  0.0012 458.3280 -19.9406
v  -58.8216 438.6733 -52.9645
v  -43.9203 447.9310 -39.5473
v  -75.2787 438.6733 -24.4601
v  -56.2084 447.9310 -18.2638
v  -78.7191 438.6733 8.2736
v  -58.7773 447.9310 6.1777
v  -68.5481 438.6733 39.5768
v  -51.1829 447.9310 29.5509
v  -46.5243 438.6733 64.0367
v  -34.7382 447.9310 47.8146
v  -16.4558 438.6733 77.4240
v  -12.2869 447.9310 57.8106
v  16.4582 438.6733 77.4240
v  12.2893 447.9310 57.8106
v  46.5267 438.6733 64.0367
v  34.7407 447.9310 47.8146
v  68.5505 438.6733 39.5768
v  51.1853 447.9310 29.5510
v  78.7215 438.6733 8.2737
v  58.7797 447.9310 6.1777
v  75.2811 438.6733 -24.4601
v  56.2108 447.9310 -18.2638
v  58.8240 438.6733 -52.9645
v  43.9228 447.9310 -39.5473
v  32.1960 438.6733 -72.3109
v  24.0403 447.9310 -53.9928
v  -0.3626 460.5836 -0.8173
v  0.0012 460.5836 -0.8946
v  -14.8174 458.3280 -13.3430
v  -18.9633 458.3280 -6.1621
v  -19.8300 458.3280 2.0842
v  -17.2677 458.3280 9.9700
v  -11.7195 458.3280 16.1320
v  -4.1447 458.3280 19.5045
v  4.1471 458.3280 19.5045
v  11.7219 458.3280 16.1320
v  17.2701 458.3280 9.9700
v  19.8324 458.3280 2.0842
v  18.9657 458.3280 -6.1621
v  14.8198 458.3280 -13.3430
v  8.1117 458.3280 -18.2167
v  0.3650 460.5836 -0.8173
v  -0.6635 460.5836 -0.5987
v  -0.8494 460.5836 -0.2766
v  -0.8883 460.5836 0.0933
v  -0.7734 460.5836 0.4470
v  -0.5245 460.5836 0.7234
v  -0.1848 460.5836 0.8747
v  0.1872 460.5836 0.8747
v  0.5269 460.5836 0.7234
v  0.7758 460.5836 0.4470
v  0.8907 460.5836 0.0933
v  0.8518 460.5836 -0.2766
v  0.6659 460.5836 -0.5987
# 285 vertices

vn -0.9996 -0.0275 -0.0000
vn 0.0000 -0.1427 -0.9898
vn 0.9996 0.0275 0.0000
vn 0.0000 0.1427 0.9898
vn 0.0000 -1.0000 -0.0000
vn 0.0000 1.0000 0.0000
vn 0.0000 0.1550 -0.9879
vn 0.0000 -0.1550 0.9879
vn -0.9999 0.0137 0.0000
vn 0.0000 -0.1540 -0.9881
vn 0.9999 -0.0137 -0.0000
vn 0.0000 0.1540 0.9881
vn 0.0000 0.1672 -0.9859
vn 0.0000 -0.1672 0.9859
vn -1.0000 0.0000 -0.0000
vn 0.0000 0.0000 -1.0000
vn 1.0000 0.0000 -0.0000
vn 0.0000 -0.0000 1.0000
vn 0.1610 -0.6329 -0.7574
vn 0.4551 -0.6329 -0.6264
vn 0.6705 -0.6329 -0.3871
vn 0.7700 -0.6329 -0.0809
vn 0.7364 -0.6329 0.2393
vn 0.5754 -0.6329 0.5181
vn 0.3149 -0.6329 0.7073
vn 0.0000 -0.6329 0.7743
vn -0.3149 -0.6329 0.7073
vn -0.5754 -0.6329 0.5181
vn -0.7364 -0.6329 0.2393
vn -0.7700 -0.6329 -0.0809
vn -0.6705 -0.6329 -0.3871
vn -0.1708 -0.5704 -0.8034
vn -0.1610 -0.6329 -0.7574
vn -0.4551 -0.6329 -0.6264
vn -0.1983 -0.3004 -0.9330
vn -0.4828 -0.5704 -0.6645
vn -0.7113 -0.5704 -0.4107
vn -0.8168 -0.5704 -0.0859
vn -0.7811 -0.5704 0.2538
vn -0.6104 -0.5704 0.5496
vn -0.3341 -0.5704 0.7503
vn 0.0000 -0.5704 0.8213
vn 0.3341 -0.5704 0.7503
vn 0.6104 -0.5704 0.5496
vn 0.7811 -0.5704 0.2538
vn 0.8168 -0.5704 -0.0859
vn 0.7113 -0.5704 -0.4107
vn 0.4828 -0.5704 -0.6645
vn 0.1708 -0.5704 -0.8034
vn -0.2079 0.0000 -0.9781
vn -0.5606 -0.3005 -0.7716
vn -0.8260 -0.3005 -0.4769
vn -0.9486 -0.3005 -0.0997
vn -0.9071 -0.3004 0.2947
vn -0.7088 -0.3004 0.6382
vn -0.3879 -0.3005 0.8713
vn 0.0000 -0.3005 0.9538
vn 0.3879 -0.3005 0.8713
vn 0.7088 -0.3005 0.6382
vn 0.9071 -0.3005 0.2947
vn 0.9486 -0.3004 -0.0997
vn 0.8260 -0.3005 -0.4769
vn 0.5606 -0.3005 -0.7716
vn 0.1983 -0.3004 -0.9330
vn -0.2021 0.2352 -0.9507
vn -0.5878 0.0000 -0.8090
vn -0.8660 0.0000 -0.5000
vn -0.9945 0.0000 -0.1045
vn -0.9511 -0.0000 0.3090
vn -0.7431 -0.0000 0.6691
vn -0.4067 -0.0000 0.9135
vn 0.4067 -0.0000 0.9135
vn 0.7431 -0.0000 0.6691
vn 0.9511 -0.0000 0.3090
vn 0.9945 0.0000 -0.1045
vn 0.8660 0.0000 -0.5000
vn 0.5878 0.0000 -0.8090
vn 0.2079 0.0000 -0.9781
vn -0.1874 0.4333 -0.8816
vn -0.5713 0.2352 -0.7863
vn -0.8417 0.2352 -0.4860
vn -0.9666 0.2352 -0.1016
vn -0.9244 0.2352 0.3003
vn -0.7223 0.2352 0.6504
vn -0.3953 0.2352 0.8879
vn 0.0000 0.2352 0.9719
vn 0.3953 0.2352 0.8879
vn 0.7223 0.2352 0.6504
vn 0.9244 0.2352 0.3003
vn 0.9666 0.2352 -0.1016
vn 0.8417 0.2352 -0.4860
vn 0.5713 0.2352 -0.7863
vn 0.2021 0.2352 -0.9507
vn -0.1585 0.6469 -0.7459
vn -0.5297 0.4333 -0.7291
vn -0.7805 0.4333 -0.4506
vn -0.8963 0.4333 -0.0942
vn -0.8571 0.4333 0.2785
vn -0.6698 0.4333 0.6031
vn -0.3666 0.4333 0.8233
vn 0.0000 0.4333 0.9012
vn 0.3666 0.4333 0.8233
vn 0.6698 0.4333 0.6031
vn 0.8571 0.4333 0.2785
vn 0.8963 0.4333 -0.0942
vn 0.7805 0.4333 -0.4506
vn 0.5297 0.4333 -0.7291
vn 0.1874 0.4333 -0.8816
vn -0.1327 0.7697 -0.6244
vn -0.4482 0.6469 -0.6169
vn -0.6604 0.6469 -0.3813
vn -0.7584 0.6469 -0.0797
vn -0.7252 0.6469 0.2356
vn -0.5667 0.6469 0.5102
vn -0.3102 0.6469 0.6966
vn 0.0000 0.6469 0.7625
vn 0.3102 0.6469 0.6966
vn 0.5667 0.6469 0.5102
vn 0.7252 0.6469 0.2356
vn 0.7584 0.6469 -0.0797
vn 0.6604 0.6469 -0.3813
vn 0.4482 0.6469 -0.6169
vn 0.1585 0.6469 -0.7459
vn -0.0887 0.9043 -0.4175
vn -0.3752 0.7697 -0.5164
vn -0.5528 0.7697 -0.3192
vn -0.6349 0.7697 -0.0667
vn -0.6071 0.7697 0.1973
vn -0.4744 0.7697 0.4271
vn -0.2596 0.7697 0.5832
vn 0.0000 0.7697 0.6384
vn 0.2596 0.7697 0.5832
vn 0.4744 0.7697 0.4271
vn 0.6071 0.7697 0.1973
vn 0.6349 0.7697 -0.0667
vn 0.5528 0.7697 -0.3192
vn 0.3752 0.7697 -0.5164
vn 0.1327 0.7697 -0.6244
vn -0.0545 0.9651 -0.2562
vn -0.2509 0.9043 -0.3453
vn -0.3697 0.9043 -0.2134
vn -0.4245 0.9043 -0.0446
vn -0.4060 0.9043 0.1319
vn -0.3172 0.9043 0.2856
vn -0.1736 0.9043 0.3899
vn 0.0000 0.9043 0.4268
vn 0.1736 0.9043 0.3899
vn 0.3172 0.9043 0.2856
vn 0.4060 0.9043 0.1319
vn 0.4245 0.9043 -0.0446
vn 0.3697 0.9043 -0.2134
vn 0.2509 0.9043 -0.3453
vn 0.0887 0.9043 -0.4175
vn -0.0250 0.9927 -0.1176
vn -0.1540 0.9651 -0.2119
vn -0.2268 0.9651 -0.1310
vn -0.2605 0.9651 -0.0274
vn -0.2491 0.9651 0.0809
vn -0.1947 0.9651 0.1753
vn -0.1065 0.9651 0.2393
vn 0.0000 0.9651 0.2619
vn 0.1065 0.9651 0.2393
vn 0.1947 0.9651 0.1753
vn 0.2491 0.9651 0.0809
vn 0.2605 0.9651 -0.0274
vn 0.2268 0.9651 -0.1310
vn 0.1540 0.9651 -0.2119
vn 0.0545 0.9651 -0.2562
vn -0.0707 0.9927 -0.0972
vn -0.1041 0.9927 -0.0601
vn -0.1195 0.9927 -0.0126
vn -0.1143 0.9927 0.0371
vn -0.0893 0.9927 0.0804
vn -0.0489 0.9927 0.1098
vn 0.0000 0.9927 0.1202
vn 0.0489 0.9927 0.1098
vn 0.0893 0.9927 0.0804
vn 0.1143 0.9927 0.0371
vn 0.1195 0.9927 -0.0126
vn 0.1041 0.9927 -0.0601
vn 0.0707 0.9927 -0.0972
vn 0.0250 0.9927 -0.1176
vn 0.1829 -0.4758 -0.8603
vn 0.5170 -0.4758 -0.7116
vn 0.7617 -0.4758 -0.4398
vn 0.8748 -0.4758 -0.0919
vn 0.8365 -0.4758 0.2718
vn 0.6536 -0.4758 0.5885
vn 0.3578 -0.4758 0.8035
vn 0.0000 -0.4758 0.8796
vn -0.3578 -0.4758 0.8035
vn -0.6536 -0.4758 0.5885
vn -0.8365 -0.4758 0.2718
vn -0.8748 -0.4758 -0.0919
vn -0.7617 -0.4758 -0.4398
vn -0.5170 -0.4758 -0.7116
vn -0.1829 -0.4758 -0.8603
vn -0.4407 -0.6618 -0.6065
vn -0.1559 -0.6618 -0.7333
vn -0.6493 -0.6618 -0.3749
vn -0.7456 -0.6618 -0.0784
vn -0.7130 -0.6618 0.2317
vn -0.5572 -0.6618 0.5017
vn -0.3049 -0.6618 0.6849
vn -0.0000 -0.6618 0.7497
vn 0.3049 -0.6618 0.6849
vn 0.5572 -0.6618 0.5017
vn 0.7130 -0.6618 0.2317
vn 0.7456 -0.6618 -0.0784
vn 0.6493 -0.6618 -0.3749
vn 0.4407 -0.6618 -0.6065
vn 0.1559 -0.6618 -0.7333
vn 0.0981 0.8816 -0.4616
vn 0.2774 0.8816 -0.3818
vn 0.4087 0.8816 -0.2360
vn 0.4693 0.8816 -0.0493
vn 0.4488 0.8816 0.1458
vn 0.3507 0.8816 0.3158
vn 0.1920 0.8816 0.4311
vn 0.0000 0.8816 0.4719
vn -0.1920 0.8816 0.4311
vn -0.3507 0.8816 0.3158
vn -0.4488 0.8816 0.1458
vn -0.4693 0.8816 -0.0493
vn -0.4087 0.8816 -0.2360
vn -0.2774 0.8816 -0.3818
vn -0.0981 0.8816 -0.4616
# 227 vertex normals

vt 0.3296 0.6437 0.0000
vt 0.3464 0.6437 0.0000
vt 0.3464 0.6605 0.0000
vt 0.3296 0.6605 0.0000
vt 0.2707 0.6605 0.0000
vt 0.2875 0.6605 0.0000
vt 0.2875 0.6689 0.0000
vt 0.2707 0.6689 0.0000
vt 0.3292 0.6693 0.0000
vt 0.3460 0.6693 0.0000
vt 0.3274 0.6583 0.0000
vt 0.3442 0.6583 0.0000
vt 0.3442 0.6751 0.0000
vt 0.3274 0.6751 0.0000
vt 0.2827 0.6614 0.0000
vt 0.2995 0.6614 0.0000
vt 0.2995 0.6698 0.0000
vt 0.2827 0.6698 0.0000
vt 0.3442 0.6667 0.0000
vt 0.3274 0.6667 0.0000
vt 0.9281 0.1469 0.0000
vt 0.9781 0.1469 0.0000
vt 0.9781 0.1969 0.0000
vt 0.9281 0.1969 0.0000
vt 0.3835 0.7228 0.0000
vt 0.4335 0.7228 0.0000
vt 0.4335 0.7728 0.0000
vt 0.3835 0.7728 0.0000
vt 0.4103 0.7706 0.0000
vt 0.4205 0.7684 0.0000
vt 0.4289 0.7623 0.0000
vt 0.4341 0.7533 0.0000
vt 0.4352 0.7430 0.0000
vt 0.4320 0.7331 0.0000
vt 0.4250 0.7254 0.0000
vt 0.4155 0.7211 0.0000
vt 0.4051 0.7211 0.0000
vt 0.3957 0.7254 0.0000
vt 0.3887 0.7331 0.0000
vt 0.3855 0.7430 0.0000
vt 0.3866 0.7533 0.0000
vt 0.3918 0.7623 0.0000
vt 0.4002 0.7684 0.0000
vt 0.9531 0.1969 0.0000
vt 0.9633 0.1947 0.0000
vt 0.9717 0.1886 0.0000
vt 0.9769 0.1796 0.0000
vt 0.9780 0.1693 0.0000
vt 0.9748 0.1594 0.0000
vt 0.9678 0.1516 0.0000
vt 0.9583 0.1474 0.0000
vt 0.9479 0.1474 0.0000
vt 0.9384 0.1516 0.0000
vt 0.9315 0.1594 0.0000
vt 0.9283 0.1693 0.0000
vt 0.9293 0.1796 0.0000
vt 0.9345 0.1886 0.0000
vt 0.9430 0.1947 0.0000
# 58 texture coords

g SPW_Urban_Props_Air_Balloon
usemtl SPW_Urban_Props_Air_Balloon
s off
f 1/1/1 2/2/1 3/3/1 4/4/1 
f 2/1/2 5/2/2 6/3/2 3/4/2 
f 5/1/3 7/2/3 8/3/3 6/4/3 
f 7/1/4 1/2/4 4/3/4 8/4/4 
f 4/1/5 3/2/5 6/3/5 8/4/5 
f 7/1/6 5/2/6 2/3/6 1/4/6 
f 9/1/1 10/2/1 11/3/1 12/4/1 
f 10/1/7 13/2/7 14/3/7 11/4/7 
f 13/1/3 15/2/3 16/3/3 14/4/3 
f 15/1/8 9/2/8 12/3/8 16/4/8 
f 12/1/5 11/2/5 14/3/5 16/4/5 
f 15/1/6 13/2/6 10/3/6 9/4/6 
f 17/1/9 18/2/9 19/3/9 20/4/9 
f 18/1/10 21/2/10 22/3/10 19/4/10 
f 21/1/11 23/2/11 24/3/11 22/4/11 
f 23/1/12 17/2/12 20/3/12 24/4/12 
f 20/1/5 19/2/5 22/3/5 24/4/5 
f 23/1/6 21/2/6 18/3/6 17/4/6 
f 25/1/9 26/2/9 27/3/9 28/4/9 
f 26/1/13 29/2/13 30/3/13 27/4/13 
f 29/1/11 31/2/11 32/3/11 30/4/11 
f 31/1/14 25/2/14 28/3/14 32/4/14 
f 28/1/5 27/2/5 30/3/5 32/4/5 
f 31/1/6 29/2/6 26/3/6 25/4/6 
s 1
f 33/5/15 34/6/15 35/7/15 36/8/15 
s 2
f 34/5/16 37/6/16 38/7/16 35/8/16 
s 1
f 37/5/17 39/6/17 40/7/17 38/8/17 
s 2
f 39/5/18 33/6/18 36/7/18 40/8/18 
f 40/9/18 36/10/18 41/10/18 42/9/18 
s 4
f 43/11/6 44/12/6 45/13/6 46/14/6 
s 1
f 47/15/16 48/16/16 49/17/16 50/18/16 
s 4
f 44/11/6 51/12/6 52/13/6 45/14/6 
f 51/11/6 53/12/6 54/13/6 52/14/6 
f 53/11/6 43/12/6 46/13/6 54/14/6 
s off
f 49/11/6 55/12/6 56/13/6 50/14/6 
s 2
f 48/15/15 57/16/15 55/17/15 49/18/15 
s 1
f 57/15/18 58/16/18 56/17/18 55/18/18 
s 2
f 58/15/17 47/16/17 50/17/17 56/18/17 
f 44/11/18 43/12/18 33/19/18 39/20/18 
s 1
f 51/11/17 44/12/17 39/19/17 37/20/17 
s 2
f 53/11/16 51/12/16 37/19/16 34/20/16 
s 1
f 43/11/15 53/12/15 34/19/15 33/20/15 
s 2
f 54/11/17 46/12/17 47/19/17 58/20/17 
s 1
f 52/11/18 54/12/18 58/19/18 57/20/18 
s 2
f 45/11/15 52/12/15 57/19/15 48/20/15 
s 1
f 46/11/16 45/12/16 48/19/16 47/20/16 
s off
f 41/11/5 59/12/5 60/13/5 42/14/5 
s 1
f 38/9/17 40/10/17 42/10/17 60/9/17 
s 2
f 35/9/16 38/10/16 60/10/16 59/9/16 
s 1
f 36/9/15 35/10/15 59/10/15 41/9/15 
s off
f 61/21/19 62/22/19 63/23/19 64/24/19 
f 64/21/20 63/22/20 65/23/20 66/24/20 
f 66/21/21 65/22/21 67/23/21 68/24/21 
f 68/21/22 67/22/22 69/23/22 70/24/22 
f 70/21/23 69/22/23 71/23/23 72/24/23 
f 72/21/24 71/22/24 73/23/24 74/24/24 
f 74/21/25 73/22/25 75/23/25 76/24/25 
f 76/21/26 75/22/26 77/23/26 78/24/26 
f 78/21/27 77/22/27 79/23/27 80/24/27 
f 80/21/28 79/22/28 81/23/28 82/24/28 
f 82/21/29 81/22/29 83/23/29 84/24/29 
f 84/21/30 83/22/30 85/23/30 86/24/30 
f 86/21/31 85/22/31 87/23/31 88/24/31 
f 62/25/32 89/26/32 90/27/32 91/28/32 
f 92/21/33 89/22/33 62/23/33 61/24/33 
f 88/21/34 87/22/34 89/23/34 92/24/34 
f 93/29/5 94/30/5 95/31/5 96/32/5 
f 93/29/5 96/32/5 97/33/5 98/34/5 
f 93/29/5 98/34/5 99/35/5 100/36/5 
f 93/29/5 100/36/5 101/37/5 102/38/5 
f 93/29/5 102/38/5 103/39/5 104/40/5 
f 93/29/5 104/40/5 105/41/5 106/42/5 
f 93/29/5 106/42/5 107/43/5 
f 108/25/35 109/26/35 110/27/35 111/28/35 
f 89/25/36 87/26/36 112/27/36 90/28/36 
f 87/25/37 85/26/37 113/27/37 112/28/37 
f 85/25/38 83/26/38 114/27/38 113/28/38 
f 83/25/39 81/26/39 115/27/39 114/28/39 
f 81/25/40 79/26/40 116/27/40 115/28/40 
f 79/25/41 77/26/41 117/27/41 116/28/41 
f 77/25/42 75/26/42 118/27/42 117/28/42 
f 75/25/43 73/26/43 119/27/43 118/28/43 
f 73/25/44 71/26/44 120/27/44 119/28/44 
f 71/25/45 69/26/45 121/27/45 120/28/45 
f 69/25/46 67/26/46 122/27/46 121/28/46 
f 67/25/47 65/26/47 123/27/47 122/28/47 
f 65/25/48 63/26/48 124/27/48 123/28/48 
f 63/25/49 62/26/49 91/27/49 124/28/49 
f 111/21/50 110/22/50 125/23/50 126/24/50 
f 109/25/51 127/26/51 128/27/51 110/28/51 
f 127/25/52 129/26/52 130/27/52 128/28/52 
f 129/25/53 131/26/53 132/27/53 130/28/53 
f 131/25/54 133/26/54 134/27/54 132/28/54 
f 133/25/55 135/26/55 136/27/55 134/28/55 
f 135/25/56 137/26/56 138/27/56 136/28/56 
f 137/25/57 139/26/57 140/27/57 138/28/57 
f 139/25/58 141/26/58 142/27/58 140/28/58 
f 141/25/59 143/26/59 144/27/59 142/28/59 
f 143/25/60 145/26/60 146/27/60 144/28/60 
f 145/25/61 147/26/61 148/27/61 146/28/61 
f 147/25/62 149/26/62 150/27/62 148/28/62 
f 149/25/63 151/26/63 152/27/63 150/28/63 
f 151/25/64 108/26/64 111/27/64 152/28/64 
f 126/21/65 125/22/65 153/23/65 154/24/65 
f 110/21/66 128/22/66 155/23/66 125/24/66 
f 128/21/67 130/22/67 156/23/67 155/24/67 
f 130/21/68 132/22/68 157/23/68 156/24/68 
f 132/21/69 134/22/69 158/23/69 157/24/69 
f 134/21/70 136/22/70 159/23/70 158/24/70 
f 136/21/71 138/22/71 160/23/71 159/24/71 
f 138/21/18 140/22/18 161/23/18 160/24/18 
f 140/21/72 142/22/72 162/23/72 161/24/72 
f 142/21/73 144/22/73 163/23/73 162/24/73 
f 144/21/74 146/22/74 164/23/74 163/24/74 
f 146/21/75 148/22/75 165/23/75 164/24/75 
f 148/21/76 150/22/76 166/23/76 165/24/76 
f 150/21/77 152/22/77 167/23/77 166/24/77 
f 152/21/78 111/22/78 126/23/78 167/24/78 
f 154/21/79 153/22/79 168/23/79 169/24/79 
f 125/21/80 155/22/80 170/23/80 153/24/80 
f 155/21/81 156/22/81 171/23/81 170/24/81 
f 156/21/82 157/22/82 172/23/82 171/24/82 
f 157/21/83 158/22/83 173/23/83 172/24/83 
f 158/21/84 159/22/84 174/23/84 173/24/84 
f 159/21/85 160/22/85 175/23/85 174/24/85 
f 160/21/86 161/22/86 176/23/86 175/24/86 
f 161/21/87 162/22/87 177/23/87 176/24/87 
f 162/21/88 163/22/88 178/23/88 177/24/88 
f 163/21/89 164/22/89 179/23/89 178/24/89 
f 164/21/90 165/22/90 180/23/90 179/24/90 
f 165/21/91 166/22/91 181/23/91 180/24/91 
f 166/21/92 167/22/92 182/23/92 181/24/92 
f 167/21/93 126/22/93 154/23/93 182/24/93 
f 169/25/94 168/26/94 183/27/94 184/28/94 
f 153/21/95 170/22/95 185/23/95 168/24/95 
f 170/21/96 171/22/96 186/23/96 185/24/96 
f 171/21/97 172/22/97 187/23/97 186/24/97 
f 172/21/98 173/22/98 188/23/98 187/24/98 
f 173/21/99 174/22/99 189/23/99 188/24/99 
f 174/21/100 175/22/100 190/23/100 189/24/100 
f 175/21/101 176/22/101 191/23/101 190/24/101 
f 176/21/102 177/22/102 192/23/102 191/24/102 
f 177/21/103 178/22/103 193/23/103 192/24/103 
f 178/21/104 179/22/104 194/23/104 193/24/104 
f 179/21/105 180/22/105 195/23/105 194/24/105 
f 180/21/106 181/22/106 196/23/106 195/24/106 
f 181/21/107 182/22/107 197/23/107 196/24/107 
f 182/21/108 154/22/108 169/23/108 197/24/108 
f 184/25/109 183/26/109 198/27/109 199/28/109 
f 168/25/110 185/26/110 200/27/110 183/28/110 
f 185/25/111 186/26/111 201/27/111 200/28/111 
f 186/25/112 187/26/112 202/27/112 201/28/112 
f 187/25/113 188/26/113 203/27/113 202/28/113 
f 188/25/114 189/26/114 204/27/114 203/28/114 
f 189/25/115 190/26/115 205/27/115 204/28/115 
f 190/25/116 191/26/116 206/27/116 205/28/116 
f 191/25/117 192/26/117 207/27/117 206/28/117 
f 192/25/118 193/26/118 208/27/118 207/28/118 
f 193/25/119 194/26/119 209/27/119 208/28/119 
f 194/25/120 195/26/120 210/27/120 209/28/120 
f 195/25/121 196/26/121 211/27/121 210/28/121 
f 196/25/122 197/26/122 212/27/122 211/28/122 
f 197/25/123 169/26/123 184/27/123 212/28/123 
f 213/21/124 214/22/124 215/23/124 216/24/124 
f 183/25/125 200/26/125 217/27/125 198/28/125 
f 200/25/126 201/26/126 218/27/126 217/28/126 
f 201/25/127 202/26/127 219/27/127 218/28/127 
f 202/25/128 203/26/128 220/27/128 219/28/128 
f 203/25/129 204/26/129 221/27/129 220/28/129 
f 204/25/130 205/26/130 222/27/130 221/28/130 
f 205/25/131 206/26/131 223/27/131 222/28/131 
f 206/25/132 207/26/132 224/27/132 223/28/132 
f 207/25/133 208/26/133 225/27/133 224/28/133 
f 208/25/134 209/26/134 226/27/134 225/28/134 
f 209/25/135 210/26/135 227/27/135 226/28/135 
f 210/25/136 211/26/136 228/27/136 227/28/136 
f 211/25/137 212/26/137 229/27/137 228/28/137 
f 212/25/138 184/26/138 199/27/138 229/28/138 
f 216/21/139 215/22/139 230/23/139 231/24/139 
f 214/21/140 232/22/140 233/23/140 215/24/140 
f 232/21/141 234/22/141 235/23/141 233/24/141 
f 234/21/142 236/22/142 237/23/142 235/24/142 
f 236/21/143 238/22/143 239/23/143 237/24/143 
f 238/21/144 240/22/144 241/23/144 239/24/144 
f 240/21/145 242/22/145 243/23/145 241/24/145 
f 242/21/146 244/22/146 245/23/146 243/24/146 
f 244/21/147 246/22/147 247/23/147 245/24/147 
f 246/21/148 248/22/148 249/23/148 247/24/148 
f 248/21/149 250/22/149 251/23/149 249/24/149 
f 250/21/150 252/22/150 253/23/150 251/24/150 
f 252/21/151 254/22/151 255/23/151 253/24/151 
f 254/21/152 256/22/152 257/23/152 255/24/152 
f 256/21/153 213/22/153 216/23/153 257/24/153 
f 231/21/154 230/22/154 258/23/154 259/24/154 
f 215/21/155 233/22/155 260/23/155 230/24/155 
f 233/21/156 235/22/156 261/23/156 260/24/156 
f 235/21/157 237/22/157 262/23/157 261/24/157 
f 237/21/158 239/22/158 263/23/158 262/24/158 
f 239/21/159 241/22/159 264/23/159 263/24/159 
f 241/21/160 243/22/160 265/23/160 264/24/160 
f 243/21/161 245/22/161 266/23/161 265/24/161 
f 245/21/162 247/22/162 267/23/162 266/24/162 
f 247/21/163 249/22/163 268/23/163 267/24/163 
f 249/21/164 251/22/164 269/23/164 268/24/164 
f 251/21/165 253/22/165 270/23/165 269/24/165 
f 253/21/166 255/22/166 271/23/166 270/24/166 
f 255/21/167 257/22/167 272/23/167 271/24/167 
f 257/21/168 216/22/168 231/23/168 272/24/168 
f 273/44/6 259/45/6 258/46/6 274/47/6 
f 273/44/6 274/47/6 275/48/6 276/49/6 
f 273/44/6 276/49/6 277/50/6 278/51/6 
f 273/44/6 278/51/6 279/52/6 280/53/6 
f 273/44/6 280/53/6 281/54/6 282/55/6 
f 273/44/6 282/55/6 283/56/6 284/57/6 
f 273/44/6 284/57/6 285/58/6 
f 230/21/169 260/22/169 274/23/169 258/24/169 
f 260/21/170 261/22/170 275/23/170 274/24/170 
f 261/21/171 262/22/171 276/23/171 275/24/171 
f 262/21/172 263/22/172 277/23/172 276/24/172 
f 263/21/173 264/22/173 278/23/173 277/24/173 
f 264/21/174 265/22/174 279/23/174 278/24/174 
f 265/21/175 266/22/175 280/23/175 279/24/175 
f 266/21/176 267/22/176 281/23/176 280/24/176 
f 267/21/177 268/22/177 282/23/177 281/24/177 
f 268/21/178 269/22/178 283/23/178 282/24/178 
f 269/21/179 270/22/179 284/23/179 283/24/179 
f 270/21/180 271/22/180 285/23/180 284/24/180 
f 271/21/181 272/22/181 273/23/181 285/24/181 
f 272/21/182 231/22/182 259/23/182 273/24/182 
f 124/25/183 91/26/183 108/27/183 151/28/183 
f 123/25/184 124/26/184 151/27/184 149/28/184 
f 122/25/185 123/26/185 149/27/185 147/28/185 
f 121/25/186 122/26/186 147/27/186 145/28/186 
f 120/25/187 121/26/187 145/27/187 143/28/187 
f 119/25/188 120/26/188 143/27/188 141/28/188 
f 118/25/189 119/26/189 141/27/189 139/28/189 
f 117/25/190 118/26/190 139/27/190 137/28/190 
f 116/25/191 117/26/191 137/27/191 135/28/191 
f 115/25/192 116/26/192 135/27/192 133/28/192 
f 114/25/193 115/26/193 133/27/193 131/28/193 
f 113/25/194 114/26/194 131/27/194 129/28/194 
f 112/25/195 113/26/195 129/27/195 127/28/195 
f 90/25/196 112/26/196 127/27/196 109/28/196 
f 91/25/197 90/26/197 109/27/197 108/28/197 
f 106/25/198 88/26/198 92/27/198 107/28/198 
f 107/25/199 92/26/199 61/27/199 93/28/199 
f 105/25/200 86/26/200 88/27/200 106/28/200 
f 104/25/201 84/26/201 86/27/201 105/28/201 
f 103/25/202 82/26/202 84/27/202 104/28/202 
f 102/25/203 80/26/203 82/27/203 103/28/203 
f 101/25/204 78/26/204 80/27/204 102/28/204 
f 100/25/205 76/26/205 78/27/205 101/28/205 
f 99/25/206 74/26/206 76/27/206 100/28/206 
f 98/25/207 72/26/207 74/27/207 99/28/207 
f 97/25/208 70/26/208 72/27/208 98/28/208 
f 96/25/209 68/26/209 70/27/209 97/28/209 
f 95/25/210 66/26/210 68/27/210 96/28/210 
f 94/25/211 64/26/211 66/27/211 95/28/211 
f 93/25/212 61/26/212 64/27/212 94/28/212 
f 229/25/213 199/26/213 213/27/213 256/28/213 
f 228/25/214 229/26/214 256/27/214 254/28/214 
f 227/25/215 228/26/215 254/27/215 252/28/215 
f 226/25/216 227/26/216 252/27/216 250/28/216 
f 225/25/217 226/26/217 250/27/217 248/28/217 
f 224/25/218 225/26/218 248/27/218 246/28/218 
f 223/25/219 224/26/219 246/27/219 244/28/219 
f 222/25/220 223/26/220 244/27/220 242/28/220 
f 221/25/221 222/26/221 242/27/221 240/28/221 
f 220/25/222 221/26/222 240/27/222 238/28/222 
f 219/25/223 220/26/223 238/27/223 236/28/223 
f 218/25/224 219/26/224 236/27/224 234/28/224 
f 217/25/225 218/26/225 234/27/225 232/28/225 
f 198/25/226 217/26/226 232/27/226 214/28/226 
f 199/25/227 198/26/227 214/27/227 213/28/227 
# 272 polygons - 2 triangles

