# 3ds Max Wavefront OBJ Exporter v0.97b - (c)2007 guruware
# File Created: 15.03.2017 11:46:54

mtllib SPW_Urban_Text_Mall.mtl

#
# object SPW_Urban_Text_Mall
#

v  -39.4400 19.5940 -1.9685
v  -42.2015 20.2813 -1.9685
v  -42.1524 22.0487 -1.9685
v  -34.3467 22.0487 -1.9685
v  -27.8571 7.0502 -1.9685
v  -37.2315 15.7052 -1.9685
v  -21.1301 22.0488 -1.9685
v  -13.5014 22.0488 -1.9685
v  -13.5162 20.2815 -1.9685
v  -16.3143 19.6188 -1.9685
v  -15.2001 2.4655 -1.9685
v  -20.4578 2.4495 -1.9685
v  -12.1918 1.7752 -1.9685
v  -12.1918 0.0196 -1.9685
v  -23.2190 1.7622 -1.9685
v  -23.2190 0.0196 -1.9685
v  -21.3128 15.6421 -1.9685
v  -28.3511 -0.1364 -1.9685
v  -30.4075 -0.1364 -1.9685
v  -40.4296 2.5142 -1.9685
v  -37.9605 2.4429 -1.9685
v  -35.1616 1.7742 -1.9685
v  -35.1616 0.0168 -1.9685
v  -43.4042 1.7726 -1.9685
v  -43.4042 0.0167 -1.9685
v  8.2937 2.5030 -1.9685
v  11.3143 1.7793 -1.9685
v  11.3143 0.0179 -1.9685
v  0.6461 1.7762 -1.9685
v  0.6461 0.0179 -1.9685
v  2.8702 2.3162 -1.9685
v  1.5293 6.0902 -1.9685
v  0.7505 8.2553 -1.9685
v  -1.7079 14.9651 -1.9685
v  1.2451 22.2023 -1.9685
v  -9.0159 2.5004 -1.9685
v  -1.4938 22.2023 -1.9685
v  -4.2311 8.2613 -1.9685
v  -5.0761 6.0902 -1.9685
v  -6.4980 2.4085 -1.9685
v  -3.8580 0.0244 -1.9685
v  -3.8580 1.7741 -1.9685
v  -12.0958 1.7767 -1.9685
v  -12.0958 0.0167 -1.9685
v  15.1790 19.5871 -1.9685
v  12.2873 20.2878 -1.9685
v  12.2873 22.0445 -1.9685
v  23.2087 20.2977 -1.9685
v  23.2087 22.0445 -1.9685
v  20.3131 19.5930 -1.9685
v  15.1790 2.4810 -1.9685
v  20.3131 2.4577 -1.9685
v  28.9912 0.0170 -1.9685
v  26.0419 2.4577 -1.9685
v  28.1736 6.8146 -1.9685
v  29.9358 6.8146 -1.9685
v  12.2798 1.7732 -1.9685
v  12.2798 0.0167 -1.9685
v  34.2082 19.5871 -1.9685
v  31.3165 20.2878 -1.9685
v  31.3165 22.0445 -1.9685
v  42.2379 20.2977 -1.9685
v  42.2379 22.0445 -1.9685
v  39.3423 19.5930 -1.9685
v  34.2082 2.4810 -1.9685
v  39.3423 2.4577 -1.9685
v  48.0204 0.0170 -1.9685
v  45.0711 2.4577 -1.9685
v  47.2028 6.8146 -1.9685
v  48.9650 6.8146 -1.9685
v  31.3090 1.7732 -1.9685
v  31.3090 0.0167 -1.9685
v  -43.4042 0.0167 1.9685
v  -35.1616 0.0168 1.9685
v  -35.1616 1.7742 1.9685
v  -40.4296 2.5142 1.9685
v  -37.2315 15.7052 1.9685
v  -30.4075 -0.1364 1.9685
v  -28.3511 -0.1364 1.9685
v  -27.8571 7.0502 1.9685
v  -20.4578 2.4495 1.9685
v  -23.2190 1.7622 1.9685
v  -23.2190 0.0196 1.9685
v  -12.1918 1.7752 1.9685
v  -12.1918 0.0196 1.9685
v  -15.2001 2.4655 1.9685
v  -21.3128 15.6421 1.9685
v  -16.3143 19.6188 1.9685
v  -13.5162 20.2815 1.9685
v  -13.5014 22.0488 1.9685
v  -21.1301 22.0488 1.9685
v  -34.3467 22.0487 1.9685
v  -42.1524 22.0487 1.9685
v  -42.2015 20.2813 1.9685
v  -39.4400 19.5940 1.9685
v  -37.9605 2.4429 1.9685
v  -43.4042 1.7726 1.9685
v  8.2937 2.5030 1.9685
v  1.2451 22.2023 1.9685
v  -1.7079 14.9651 1.9685
v  0.7505 8.2553 1.9685
v  1.5293 6.0902 1.9685
v  2.8702 2.3162 1.9685
v  0.6461 1.7762 1.9685
v  0.6461 0.0179 1.9685
v  11.3143 0.0179 1.9685
v  11.3143 1.7793 1.9685
v  -12.0958 0.0167 1.9685
v  -3.8580 0.0244 1.9685
v  -3.8580 1.7741 1.9685
v  -9.0159 2.5004 1.9685
v  -5.0761 6.0902 1.9685
v  -4.2311 8.2613 1.9685
v  -6.4980 2.4085 1.9685
v  -1.4938 22.2023 1.9685
v  -12.0958 1.7767 1.9685
v  28.9912 0.0170 1.9685
v  29.9358 6.8146 1.9685
v  28.1736 6.8146 1.9685
v  26.0419 2.4577 1.9685
v  20.3131 2.4577 1.9685
v  15.1790 2.4810 1.9685
v  20.3131 19.5930 1.9685
v  23.2087 20.2977 1.9685
v  23.2087 22.0445 1.9685
v  12.2873 20.2878 1.9685
v  12.2873 22.0445 1.9685
v  15.1790 19.5871 1.9685
v  12.2798 0.0167 1.9685
v  12.2798 1.7732 1.9685
v  48.0204 0.0170 1.9685
v  48.9650 6.8146 1.9685
v  47.2028 6.8146 1.9685
v  45.0711 2.4577 1.9685
v  39.3423 2.4577 1.9685
v  34.2082 2.4810 1.9685
v  39.3423 19.5930 1.9685
v  42.2379 20.2977 1.9685
v  42.2379 22.0445 1.9685
v  31.3165 20.2878 1.9685
v  31.3165 22.0445 1.9685
v  34.2082 19.5871 1.9685
v  31.3090 0.0167 1.9685
v  31.3090 1.7732 1.9685
# 144 vertices

vn -0.0000 0.0000 -1.0000
vn 0.0000 0.0000 -1.0000
vn 0.0000 -0.0000 -1.0000
vn -0.0000 -0.0000 -1.0000
vn 0.0000 -0.0000 1.0000
vn -0.0000 -0.0000 1.0000
vn 0.0000 0.0000 1.0000
vn -0.0000 0.0000 1.0000
vn 0.0000 1.0000 0.0000
vn 0.9415 0.3369 0.0000
vn -0.9124 0.4092 0.0000
vn 0.0012 1.0000 0.0000
vn 0.9905 -0.1376 -0.0000
vn 0.2324 0.9726 0.0000
vn 0.0000 -1.0000 -0.0000
vn -0.2419 0.9703 0.0000
vn 0.9328 -0.3603 -0.0000
vn -1.0000 0.0000 -0.0000
vn 1.0000 0.0000 -0.0000
vn 0.2330 0.9725 0.0000
vn -0.2415 -0.9704 -0.0000
vn 0.2337 0.9723 0.0000
vn -0.2415 0.9704 0.0000
vn 0.2365 -0.9716 -0.0000
vn 1.0000 -0.0083 -0.0000
vn -0.9983 0.0578 0.0000
vn -0.9979 -0.0647 -0.0000
vn 0.2305 -0.9731 -0.0000
vn -0.2372 0.9715 0.0000
vn 0.0009 -1.0000 -0.0000
vn 0.9133 -0.4074 -0.0000
vn 0.9979 0.0648 0.0000
vn -0.2288 0.9735 0.0000
vn -0.9996 0.0278 0.0000
vn -0.8982 0.4395 0.0000
vn -0.2360 0.9718 0.0000
vn 0.2236 0.9747 0.0000
vn -0.2355 -0.9719 -0.0000
vn -0.9342 0.3567 0.0000
vn 0.9359 -0.3523 -0.0000
vn -0.9184 -0.3956 -0.0000
vn -0.9423 -0.3348 -0.0000
vn 0.9178 0.3971 0.0000
vn -0.9390 -0.3440 -0.0000
vn 0.9985 -0.0549 0.0000
# 45 vertex normals

g SPW_Urban_Text_Mall
usemtl SPW_Urban_Text
s off
f 1//1 2//1 3//1 4//1 
f 1//2 4//2 5//2 6//2 
f 7//2 8//2 9//2 10//2 
f 7//2 10//2 11//2 12//2 
f 11//2 13//2 14//2 15//2 
f 14//3 16//3 15//3 
f 11//2 15//2 12//2 
f 7//2 12//2 17//2 5//2 
f 17//2 18//2 19//2 5//2 
f 5//1 19//1 6//1 
f 20//1 1//1 6//1 21//1 
f 21//1 22//1 23//1 20//1 
f 24//2 20//2 23//2 25//2 
s 1
f 26//2 27//4 28//1 29//2 
f 28//1 30//3 29//2 
f 26//2 29//2 31//2 32//2 
f 26//2 32//2 33//1 34//2 
f 26//2 34//2 35//1 
f 36//2 37//2 35//1 34//2 
f 34//2 38//3 39//1 40//1 
f 36//2 34//2 40//1 41//1 
f 40//1 42//4 41//1 
f 43//2 36//2 41//1 44//3 
f 32//2 39//1 38//3 33//1 
s off
f 45//2 46//2 47//2 48//2 
f 47//3 49//3 48//3 
f 45//2 48//2 50//2 51//2 
f 51//1 50//1 52//1 53//1 
f 54//1 55//1 56//1 53//1 
f 52//2 54//2 53//2 
f 57//2 51//2 53//2 58//2 
f 59//2 60//2 61//2 62//2 
f 61//3 63//3 62//3 
f 59//2 62//2 64//2 65//2 
f 65//1 64//1 66//1 67//1 
f 68//1 69//1 70//1 67//1 
f 66//2 68//2 67//2 
f 71//2 65//2 67//2 72//2 
f 73//5 74//5 75//5 76//5 
f 77//5 78//5 79//5 80//5 
f 81//6 82//6 83//6 84//6 
f 83//7 85//7 84//7 
f 81//6 84//6 86//6 87//6 
f 88//6 89//6 90//6 91//6 
f 86//6 88//6 91//6 87//6 
f 79//5 87//5 91//5 80//5 
f 92//5 93//5 94//5 95//5 
f 80//6 92//6 95//6 77//6 
f 96//5 77//5 95//5 76//5 
f 75//5 96//5 76//5 
f 97//8 73//8 76//8 
s 1
f 98//5 99//5 100//6 101//5 
f 98//5 101//5 102//6 103//6 
f 103//6 104//8 105//6 98//5 
f 98//5 105//6 106//5 107//7 
f 108//6 109//8 110//5 111//5 
f 112//5 113//8 100//6 114//5 
f 100//6 99//5 115//6 111//5 
f 114//5 100//6 111//5 110//5 
f 116//8 108//6 111//5 
f 102//6 101//5 113//8 112//5 
s off
f 117//5 118//5 119//5 120//5 
f 117//5 120//5 121//5 122//5 
f 123//6 124//6 125//6 126//6 
f 125//7 127//7 126//7 
f 123//6 126//6 128//6 121//6 
f 121//5 128//5 122//5 
f 129//6 117//6 122//6 130//6 
f 131//5 132//5 133//5 134//5 
f 131//5 134//5 135//5 136//5 
f 137//6 138//6 139//6 140//6 
f 139//7 141//7 140//7 
f 137//6 140//6 142//6 135//6 
f 135//5 142//5 136//5 
f 143//6 131//6 136//6 144//6 
f 63//9 61//9 141//9 139//9 
f 26//10 35//10 99//10 98//10 
f 7//11 5//11 80//11 91//11 
f 33//12 38//12 113//12 101//12 
f 53//13 56//13 118//13 117//13 
f 22//14 21//14 96//14 75//14 
f 72//15 67//15 131//15 143//15 
f 20//16 24//16 97//16 76//16 
f 40//17 39//17 112//17 114//17 
f 49//9 47//9 127//9 125//9 
f 15//18 16//18 83//18 82//18 
f 62//19 63//19 139//19 138//19 
f 27//20 26//20 98//20 107//20 
f 8//9 7//9 91//9 90//9 
f 58//15 53//15 117//15 129//15 
f 23//19 22//19 75//19 74//19 
f 2//21 1//21 95//21 94//21 
f 42//22 40//22 114//22 110//22 
f 12//23 15//23 82//23 81//23 
f 48//19 49//19 125//19 124//19 
f 64//24 62//24 138//24 137//24 
f 28//19 27//19 107//19 106//19 
f 9//25 8//25 90//25 89//25 
f 71//18 72//18 143//18 144//18 
f 25//15 23//15 74//15 73//15 
f 1//26 20//26 76//26 95//26 
f 41//19 42//19 110//19 109//19 
f 17//27 12//27 81//27 87//27 
f 50//24 48//24 124//24 123//24 
f 66//19 64//19 137//19 135//19 
f 30//15 28//15 106//15 105//15 
f 10//28 9//28 89//28 88//28 
f 57//18 58//18 129//18 130//18 
f 65//29 71//29 144//29 136//29 
f 43//18 44//18 108//18 116//18 
f 24//18 25//18 73//18 97//18 
f 44//30 41//30 109//30 108//30 
f 52//19 50//19 123//19 121//19 
f 18//31 17//31 87//31 79//31 
f 68//9 66//9 135//9 134//9 
f 29//18 30//18 105//18 104//18 
f 11//32 10//32 88//32 86//32 
f 51//29 57//29 130//29 122//29 
f 59//18 65//18 136//18 142//18 
f 36//33 43//33 116//33 111//33 
f 3//34 2//34 94//34 93//34 
f 54//9 52//9 121//9 120//9 
f 19//15 18//15 79//15 78//15 
f 69//35 68//35 134//35 133//35 
f 31//36 29//36 104//36 103//36 
f 13//37 11//37 86//37 84//37 
f 45//18 51//18 122//18 128//18 
f 60//38 59//38 142//38 140//38 
f 37//39 36//39 111//39 115//39 
f 4//9 3//9 93//9 92//9 
f 38//40 34//40 100//40 113//40 
f 55//35 54//35 120//35 119//35 
f 6//41 19//41 78//41 77//41 
f 70//9 69//9 133//9 132//9 
f 32//42 31//42 103//42 102//42 
f 14//19 13//19 84//19 85//19 
f 46//38 45//38 128//38 126//38 
f 61//18 60//18 140//18 141//18 
f 35//9 37//9 115//9 99//9 
f 5//43 4//43 92//43 80//43 
f 34//44 33//44 101//44 100//44 
f 56//9 55//9 119//9 118//9 
f 21//45 6//45 77//45 96//45 
f 67//13 70//13 132//13 131//13 
f 39//15 32//15 102//15 112//15 
f 16//15 14//15 85//15 83//15 
f 47//18 46//18 126//18 127//18 
# 129 polygons - 18 triangles

