# 3ds Max Wavefront OBJ Exporter v0.97b - (c)2007 guruware
# File Created: 15.03.2017 11:46:31

mtllib SPW_Urban_Text_Hotel.mtl

#
# object SPW_Urban_Text_Hotel
#

v  -49.3050 19.5760 -1.9685
v  -52.1878 20.2709 -1.9685
v  -52.1878 22.0405 -1.9685
v  -41.2765 20.2718 -1.9685
v  -41.2765 22.0405 -1.9685
v  -44.1707 19.5855 -1.9685
v  -49.3050 2.4597 -1.9685
v  -44.1707 12.3453 -1.9685
v  -44.1674 9.9239 -1.9685
v  -36.3339 19.5707 -1.9685
v  -39.2196 20.2652 -1.9685
v  -39.2196 22.0274 -1.9685
v  -28.3108 20.2812 -1.9685
v  -28.3108 22.0274 -1.9685
v  -31.1980 19.5767 -1.9685
v  -36.3339 12.3453 -1.9685
v  -31.1980 2.4674 -1.9685
v  -28.3126 1.7729 -1.9685
v  -28.3126 0.0118 -1.9685
v  -39.2244 1.7630 -1.9685
v  -39.2244 0.0118 -1.9685
v  -36.3307 2.4519 -1.9685
v  -36.3307 9.9239 -1.9685
v  -44.1674 2.4687 -1.9685
v  -41.2822 -0.0005 -1.9685
v  -41.2822 1.7578 -1.9685
v  -52.1925 1.7568 -1.9685
v  -52.1925 -0.0005 -1.9685
v  -13.7522 20.1617 -1.9685
v  -15.0076 20.3209 -1.9685
v  -14.5486 22.4749 -1.9685
v  -12.6206 19.6843 -1.9685
v  -11.7188 18.9417 -1.9685
v  -6.0791 18.0018 -1.9685
v  -12.4221 22.2549 -1.9685
v  -10.1122 21.5583 -1.9685
v  -7.8757 20.1651 -1.9685
v  -10.7110 17.4388 -1.9685
v  -10.0214 15.4584 -1.9685
v  -9.6501 13.3720 -1.9685
v  -9.5086 10.9850 -1.9685
v  -9.5970 8.7394 -1.9685
v  -10.0214 6.4231 -1.9685
v  -4.9425 15.6553 -1.9685
v  -4.3192 13.0155 -1.9685
v  -4.6859 7.0025 -1.9685
v  -4.2826 9.8623 -1.9685
v  -5.5292 4.9126 -1.9685
v  -6.9224 2.8227 -1.9685
v  -10.8089 0.1829 -1.9685
v  -8.8290 1.1728 -1.9685
v  -10.5872 4.8141 -1.9685
v  -11.4536 3.3996 -1.9685
v  -12.4791 2.4624 -1.9685
v  -13.3102 2.0381 -1.9685
v  -14.1412 1.7905 -1.9685
v  -14.9153 1.7105 -1.9685
v  -12.9354 -0.2938 -1.9685
v  -14.9153 -0.4771 -1.9685
v  -15.9467 1.7596 -1.9685
v  -17.0764 2.0911 -1.9685
v  -18.4555 3.0813 -1.9685
v  -22.6882 2.1994 -1.9685
v  -16.8037 -0.3498 -1.9685
v  -18.7284 -0.0005 -1.9685
v  -20.6716 0.7695 -1.9685
v  -19.4988 4.5842 -1.9685
v  -20.2060 6.5646 -1.9685
v  -20.5243 8.6864 -1.9685
v  -20.6657 11.1088 -1.9685
v  -20.5243 13.6195 -1.9685
v  -22.2849 20.2384 -1.9685
v  -24.3014 4.3260 -1.9685
v  -25.2914 6.5258 -1.9685
v  -25.9147 11.6589 -1.9685
v  -25.8780 9.2757 -1.9685
v  -25.6580 14.2254 -1.9685
v  -24.8880 16.6453 -1.9685
v  -23.7148 18.5885 -1.9685
v  -20.0999 15.7767 -1.9685
v  -19.4104 17.6333 -1.9685
v  -18.4379 18.9771 -1.9685
v  -17.2886 19.8081 -1.9685
v  -16.0332 20.2148 -1.9685
v  -20.4883 21.3750 -1.9685
v  -18.7651 22.0349 -1.9685
v  -16.6385 22.4383 -1.9685
v  0.9742 19.6093 -1.9685
v  -0.3139 15.3596 -1.9685
v  -2.2059 15.3596 -1.9685
v  -2.2059 22.0277 -1.9685
v  4.9054 19.6093 -1.9685
v  10.0400 19.6033 -1.9685
v  17.1464 22.0277 -1.9685
v  17.1464 15.3549 -1.9685
v  15.2317 15.3549 -1.9685
v  13.9383 19.6033 -1.9685
v  4.9054 2.4529 -1.9685
v  10.0400 2.4637 -1.9685
v  12.9357 1.7577 -1.9685
v  12.9357 0.0080 -1.9685
v  2.0106 1.7620 -1.9685
v  2.0106 -0.0005 -1.9685
v  21.7666 19.5758 -1.9685
v  18.8740 20.2675 -1.9685
v  18.8740 22.0290 -1.9685
v  35.5816 22.0290 -1.9685
v  35.5816 15.5802 -1.9685
v  33.7292 15.5802 -1.9685
v  32.4701 19.6032 -1.9685
v  26.8967 19.6032 -1.9685
v  21.7666 2.4534 -1.9685
v  26.8967 12.3048 -1.9685
v  32.7526 12.8429 -1.9685
v  32.7526 9.7239 -1.9685
v  26.8937 10.1987 -1.9685
v  26.8937 2.4259 -1.9685
v  32.5368 2.4259 -1.9685
v  34.6695 6.7966 -1.9685
v  36.5260 6.7966 -1.9685
v  35.5820 -0.0001 -1.9685
v  18.8749 1.7663 -1.9685
v  18.8749 -0.0005 -1.9685
v  41.6041 19.5699 -1.9685
v  38.7124 20.2707 -1.9685
v  38.7124 22.0273 -1.9685
v  49.6338 20.2805 -1.9685
v  49.6338 22.0273 -1.9685
v  46.7382 19.5759 -1.9685
v  41.6041 2.4638 -1.9685
v  46.7382 2.4405 -1.9685
v  55.4163 -0.0002 -1.9685
v  52.4670 2.4405 -1.9685
v  54.5987 6.7974 -1.9685
v  56.3609 6.7974 -1.9685
v  38.7049 1.7561 -1.9685
v  38.7049 -0.0005 -1.9685
v  -52.1925 -0.0005 1.9685
v  -41.2822 -0.0005 1.9685
v  -41.2822 1.7578 1.9685
v  -49.3050 2.4597 1.9685
v  -36.3307 2.4519 1.9685
v  -39.2244 1.7630 1.9685
v  -39.2244 0.0118 1.9685
v  -28.3126 1.7729 1.9685
v  -28.3126 0.0118 1.9685
v  -31.1980 2.4674 1.9685
v  -36.3307 9.9239 1.9685
v  -31.1980 19.5767 1.9685
v  -28.3108 20.2812 1.9685
v  -28.3108 22.0274 1.9685
v  -39.2196 20.2652 1.9685
v  -39.2196 22.0274 1.9685
v  -36.3339 19.5707 1.9685
v  -36.3339 12.3453 1.9685
v  -44.1674 9.9239 1.9685
v  -44.1707 12.3453 1.9685
v  -44.1707 19.5855 1.9685
v  -41.2765 20.2718 1.9685
v  -41.2765 22.0405 1.9685
v  -52.1878 20.2709 1.9685
v  -52.1878 22.0405 1.9685
v  -49.3050 19.5760 1.9685
v  -44.1674 2.4687 1.9685
v  -52.1925 1.7568 1.9685
v  -14.9153 -0.4771 1.9685
v  -12.9354 -0.2938 1.9685
v  -10.8089 0.1829 1.9685
v  -6.9224 2.8227 1.9685
v  -8.8290 1.1728 1.9685
v  -5.5292 4.9126 1.9685
v  -4.6859 7.0025 1.9685
v  -4.3192 13.0155 1.9685
v  -4.2826 9.8623 1.9685
v  -4.9425 15.6553 1.9685
v  -6.0791 18.0018 1.9685
v  -10.1122 21.5583 1.9685
v  -7.8757 20.1651 1.9685
v  -10.0214 15.4584 1.9685
v  -12.4221 22.2549 1.9685
v  -14.5486 22.4749 1.9685
v  -13.7522 20.1617 1.9685
v  -15.0076 20.3209 1.9685
v  -12.6206 19.6843 1.9685
v  -11.7188 18.9417 1.9685
v  -10.7110 17.4388 1.9685
v  -9.6501 13.3720 1.9685
v  -9.5086 10.9850 1.9685
v  -9.5970 8.7394 1.9685
v  -10.0214 6.4231 1.9685
v  -10.5872 4.8141 1.9685
v  -11.4536 3.3996 1.9685
v  -12.4791 2.4624 1.9685
v  -13.3102 2.0381 1.9685
v  -14.1412 1.7905 1.9685
v  -14.9153 1.7105 1.9685
v  -16.6385 22.4383 1.9685
v  -18.7651 22.0349 1.9685
v  -22.2849 20.2384 1.9685
v  -20.4883 21.3750 1.9685
v  -23.7148 18.5885 1.9685
v  -24.8880 16.6453 1.9685
v  -25.9147 11.6589 1.9685
v  -25.6580 14.2254 1.9685
v  -25.8780 9.2757 1.9685
v  -25.2914 6.5258 1.9685
v  -22.6882 2.1994 1.9685
v  -24.3014 4.3260 1.9685
v  -20.2060 6.5646 1.9685
v  -20.6716 0.7695 1.9685
v  -18.7284 -0.0005 1.9685
v  -16.8037 -0.3498 1.9685
v  -15.9467 1.7596 1.9685
v  -17.0764 2.0911 1.9685
v  -18.4555 3.0813 1.9685
v  -19.4988 4.5842 1.9685
v  -20.5243 8.6864 1.9685
v  -20.6657 11.1088 1.9685
v  -20.5243 13.6195 1.9685
v  -20.0999 15.7767 1.9685
v  -19.4104 17.6333 1.9685
v  -18.4379 18.9771 1.9685
v  -17.2886 19.8081 1.9685
v  -16.0332 20.2148 1.9685
v  2.0106 -0.0005 1.9685
v  12.9357 0.0080 1.9685
v  12.9357 1.7577 1.9685
v  4.9054 2.4529 1.9685
v  13.9383 19.6033 1.9685
v  15.2317 15.3549 1.9685
v  17.1464 15.3549 1.9685
v  17.1464 22.0277 1.9685
v  10.0400 19.6033 1.9685
v  4.9054 19.6093 1.9685
v  -2.2059 22.0277 1.9685
v  -2.2059 15.3596 1.9685
v  -0.3139 15.3596 1.9685
v  0.9742 19.6093 1.9685
v  10.0400 2.4637 1.9685
v  2.0106 1.7620 1.9685
v  35.5820 -0.0001 1.9685
v  36.5260 6.7966 1.9685
v  34.6695 6.7966 1.9685
v  32.5368 2.4259 1.9685
v  26.8937 2.4259 1.9685
v  21.7666 2.4534 1.9685
v  26.8937 10.1987 1.9685
v  32.7526 9.7239 1.9685
v  32.7526 12.8429 1.9685
v  26.8967 12.3048 1.9685
v  32.4701 19.6032 1.9685
v  33.7292 15.5802 1.9685
v  35.5816 15.5802 1.9685
v  35.5816 22.0290 1.9685
v  26.8967 19.6032 1.9685
v  21.7666 19.5758 1.9685
v  18.8740 22.0290 1.9685
v  18.8740 20.2675 1.9685
v  18.8749 -0.0005 1.9685
v  18.8749 1.7663 1.9685
v  55.4163 -0.0002 1.9685
v  56.3609 6.7974 1.9685
v  54.5987 6.7974 1.9685
v  52.4670 2.4405 1.9685
v  46.7382 2.4405 1.9685
v  41.6041 2.4638 1.9685
v  46.7382 19.5759 1.9685
v  49.6338 20.2805 1.9685
v  49.6338 22.0273 1.9685
v  38.7124 20.2707 1.9685
v  38.7124 22.0273 1.9685
v  41.6041 19.5699 1.9685
v  38.7049 -0.0005 1.9685
v  38.7049 1.7561 1.9685
# 274 vertices

vn 0.0000 0.0000 -1.0000
vn 0.0000 -0.0000 -1.0000
vn -0.0000 0.0000 -1.0000
vn -0.0000 -0.0000 -1.0000
vn 0.0000 -0.0000 1.0000
vn -0.0000 -0.0000 1.0000
vn 0.0000 0.0000 1.0000
vn -0.0000 0.0000 1.0000
vn -0.2355 -0.9719 -0.0000
vn 0.5832 0.8123 0.0000
vn -0.2316 0.9728 0.0000
vn 1.0000 0.0000 -0.0000
vn 0.9999 0.0116 0.0000
vn -0.6357 -0.7719 -0.0000
vn 0.2369 0.9715 0.0000
vn -0.9529 0.3032 0.0000
vn -1.0000 0.0000 -0.0000
vn 0.8215 0.5702 0.0000
vn -1.0000 -0.0000 -0.0000
vn -0.0915 0.9958 0.0000
vn 0.9902 -0.1396 0.0000
vn -0.8305 -0.5570 -0.0000
vn 0.0000 1.0000 0.0000
vn -0.8561 0.5169 0.0000
vn 0.9417 0.3363 0.0000
vn -0.2321 0.9727 0.0000
vn 0.0000 -1.0000 -0.0000
vn 0.9274 -0.3742 0.0000
vn -0.9444 -0.3288 -0.0000
vn 0.0008 -1.0000 -0.0000
vn -0.7557 0.6549 0.0000
vn 0.9889 0.1483 0.0000
vn -0.0808 -0.9967 -0.0000
vn 0.8320 -0.5547 0.0000
vn -0.9845 -0.1752 -0.0000
vn -0.2340 -0.9722 -0.0000
vn -0.5346 0.8451 0.0000
vn 0.2365 -0.9716 -0.0000
vn 0.9983 0.0583 0.0000
vn 0.2393 0.9710 0.0000
vn 0.6544 -0.7562 -0.0000
vn -0.9982 -0.0592 -0.0000
vn -0.2312 0.9729 0.0000
vn -0.3576 0.9339 0.0000
vn 0.9984 -0.0562 -0.0000
vn 0.9570 -0.2901 -0.0000
vn 0.4472 -0.8944 -0.0000
vn -0.9992 0.0393 0.0000
vn -0.1863 0.9825 0.0000
vn 0.9812 -0.1930 -0.0000
vn -0.2365 0.9716 0.0000
vn -0.8987 0.4385 0.0000
vn 0.2187 -0.9758 -0.0000
vn -0.9836 0.1802 0.0000
vn -0.2325 -0.9726 -0.0000
vn -0.0175 0.9998 0.0000
vn -0.8982 0.4395 0.0000
vn 0.9374 -0.3482 -0.0000
vn -0.2343 -0.9722 -0.0000
vn -0.3684 -0.9297 -0.0000
vn 0.0922 -0.9957 -0.0000
vn -0.9434 0.3317 0.0000
vn 0.2370 -0.9715 -0.0000
vn 0.1029 0.9947 0.0000
vn 0.8101 -0.5863 -0.0000
vn -0.5784 -0.8157 -0.0000
vn 0.9905 -0.1376 -0.0000
vn -0.0673 -0.9977 -0.0000
vn -0.8528 0.5223 0.0000
vn 0.2887 0.9574 0.0000
vn 0.5859 -0.8103 -0.0000
vn -0.7967 -0.6044 -0.0000
vn -0.1786 -0.9839 -0.0000
vn -0.6746 0.7382 0.0000
vn 0.2340 0.9722 0.0000
vn 0.5287 0.8488 0.0000
vn 0.3082 -0.9513 -0.0000
vn -0.9119 -0.4104 -0.0000
vn -0.4548 0.8906 0.0000
vn 0.7693 0.6389 0.0000
vn 0.1029 -0.9947 -0.0000
vn -0.9780 -0.2086 -0.0000
vn -0.9566 -0.2913 -0.0000
vn -0.2372 0.9715 0.0000
vn 0.0476 0.9989 0.0000
vn -0.2855 0.9584 0.0000
vn -0.9544 -0.2987 -0.0000
vn 0.9000 0.4359 0.0000
vn -0.1258 -0.9921 -0.0000
vn -0.9999 -0.0154 -0.0000
vn 0.2816 0.9595 0.0000
vn -0.1029 0.9947 0.0000
vn 0.9732 0.2298 0.0000
vn -0.3887 -0.9214 -0.0000
vn 0.2307 -0.9730 -0.0000
vn -0.9950 0.0995 0.0000
# 96 vertex normals

g SPW_Urban_Text_Hotel
usemtl SPW_Urban_Text
s off
f 1//1 2//1 3//1 4//1 
f 3//2 5//2 4//2 
f 1//1 4//1 6//1 7//1 
f 7//1 6//1 8//1 9//1 
f 10//1 11//1 12//1 13//1 
f 12//2 14//2 13//2 
f 10//1 13//1 15//1 16//1 
f 17//1 18//1 19//1 20//1 
f 19//2 21//2 20//2 
f 17//1 20//1 22//1 15//1 
f 15//3 22//3 23//3 16//3 
f 8//1 16//1 23//1 9//1 
f 7//1 9//1 24//1 25//1 
f 24//4 26//4 25//4 
f 27//1 7//1 25//1 28//1 
s 1
f 29//3 30//3 31//1 32//1 
f 33//1 32//1 31//1 34//1 
f 31//1 35//1 36//1 34//1 
f 36//1 37//4 34//1 
f 38//1 33//1 34//1 39//1 
f 40//1 39//1 34//1 41//1 
f 42//2 41//1 34//1 43//2 
f 34//1 44//3 45//3 46//3 
f 45//3 47//1 46//3 
f 46//3 48//3 49//1 50//2 
f 49//1 51//3 50//2 
f 34//1 46//3 50//2 43//2 
f 52//2 43//2 50//2 53//2 
f 54//2 53//2 50//2 55//2 
f 56//4 55//2 50//2 57//4 
f 57//4 50//2 58//1 59//1 
f 60//3 57//4 59//1 61//1 
f 62//1 61//1 59//1 63//1 
f 59//1 64//4 65//1 63//1 
f 65//1 66//4 63//1 
f 67//1 62//1 63//1 68//1 
f 69//1 68//1 63//1 70//1 
f 71//1 70//1 63//1 72//3 
f 63//1 73//4 74//3 75//3 
f 74//3 76//1 75//3 
f 75//3 77//3 78//2 72//3 
f 78//2 79//2 72//3 
f 63//1 75//3 72//3 
f 80//3 71//1 72//3 81//3 
f 82//4 81//3 72//3 83//3 
f 84//4 83//3 72//3 30//3 
f 72//3 85//3 86//3 30//3 
f 30//3 86//3 87//3 31//1 
s off
f 88//1 89//1 90//1 91//1 
f 92//1 88//1 91//1 93//1 
f 94//3 95//3 96//3 97//3 
f 91//2 94//2 97//2 93//2 
f 98//1 92//1 93//1 99//1 
f 99//1 100//1 101//1 98//1 
f 102//1 98//1 101//1 103//1 
f 104//3 105//3 106//3 107//3 
f 107//3 108//3 109//3 110//3 
f 107//1 110//1 111//1 104//1 
f 112//1 104//1 111//1 113//1 
f 113//3 114//3 115//3 116//3 
f 112//1 113//1 116//1 117//1 
f 118//1 119//1 120//1 121//1 
f 117//3 118//3 121//3 112//3 
f 122//1 112//1 121//1 123//1 
f 124//1 125//1 126//1 127//1 
f 126//2 128//2 127//2 
f 124//1 127//1 129//1 130//1 
f 130//3 129//3 131//3 132//3 
f 133//1 134//1 135//1 132//1 
f 131//1 133//1 132//1 
f 136//1 130//1 132//1 137//1 
f 138//5 139//5 140//5 141//5 
f 142//6 143//6 144//6 145//6 
f 144//7 146//7 145//7 
f 142//6 145//6 147//6 148//6 
f 149//6 150//6 151//6 152//6 
f 151//7 153//7 152//7 
f 149//6 152//6 154//6 147//6 
f 147//5 154//5 155//5 148//5 
f 156//5 148//5 155//5 157//5 
f 158//6 159//6 160//6 161//6 
f 160//7 162//7 161//7 
f 158//6 161//6 163//6 157//6 
f 156//6 157//6 163//6 164//6 
f 164//6 163//6 141//6 140//6 
f 165//8 138//8 141//8 
s 1
f 166//7 167//5 168//6 169//8 
f 168//6 170//5 169//8 
f 169//8 171//5 172//5 173//5 
f 172//5 174//6 173//5 
f 173//5 175//5 176//6 177//6 
f 176//6 178//7 177//6 
f 169//8 173//5 177//6 179//6 
f 177//6 180//6 181//5 182//6 
f 181//5 183//5 182//6 
f 177//6 182//6 184//6 185//6 
f 177//6 185//6 186//6 179//6 
f 169//8 179//6 187//6 188//6 
f 169//8 188//6 189//6 190//8 
f 169//8 190//8 191//8 192//8 
f 166//7 169//8 192//8 193//8 
f 166//7 193//8 194//8 195//7 
f 196//5 166//7 195//7 
f 181//5 197//8 198//5 199//6 
f 198//5 200//5 199//6 
f 199//6 201//8 202//8 203//5 
f 202//8 204//8 203//5 
f 203//5 205//6 206//5 207//6 
f 206//5 208//7 207//6 
f 199//6 203//5 207//6 209//6 
f 207//6 210//5 211//6 166//7 
f 211//6 212//7 166//7 
f 166//7 196//5 213//5 214//6 
f 207//6 166//7 214//6 215//6 
f 207//6 215//6 216//6 209//6 
f 199//6 209//6 217//7 218//5 
f 199//6 218//5 219//5 220//5 
f 199//6 220//5 221//5 222//5 
f 181//5 199//6 222//5 223//8 
f 181//5 223//8 224//5 183//5 
s off
f 225//6 226//6 227//6 228//6 
f 229//5 230//5 231//5 232//5 
f 233//8 229//8 232//8 234//8 
f 235//6 236//6 237//6 238//6 
f 232//5 235//5 238//5 234//5 
f 239//6 233//6 234//6 228//6 
f 227//6 239//6 228//6 
f 240//8 225//8 228//8 
f 241//6 242//6 243//6 244//6 
f 241//5 244//5 245//5 246//5 
f 247//5 248//5 249//5 250//5 
f 251//5 252//5 253//5 254//5 
f 255//6 251//6 254//6 256//6 
f 254//5 257//5 258//5 256//5 
f 250//5 255//5 256//5 247//5 
f 245//6 247//6 256//6 246//6 
f 259//6 241//6 246//6 260//6 
f 261//6 262//6 263//6 264//6 
f 261//5 264//5 265//5 266//5 
f 267//6 268//6 269//6 270//6 
f 269//7 271//7 270//7 
f 267//6 270//6 272//6 265//6 
f 265//5 272//5 266//5 
f 273//6 261//6 266//6 274//6 
f 125//9 124//9 272//9 270//9 
f 61//10 62//10 215//10 214//10 
f 22//11 20//11 143//11 142//11 
f 113//12 111//12 255//12 250//12 
f 47//13 45//13 173//13 174//13 
f 32//14 33//14 185//14 184//14 
f 8//12 6//12 158//12 157//12 
f 100//15 99//15 239//15 227//15 
f 78//16 77//16 204//16 202//16 
f 126//17 125//17 270//17 271//17 
f 62//18 67//18 216//18 215//18 
f 102//19 103//19 225//19 240//19 
f 23//17 22//17 142//17 148//17 
f 114//20 113//20 250//20 249//20 
f 46//21 47//21 174//21 172//21 
f 33//22 38//22 186//22 185//22 
f 16//23 8//23 157//23 155//23 
f 101//12 100//12 227//12 226//12 
f 79//24 78//24 202//24 201//24 
f 128//23 126//23 271//23 269//23 
f 67//25 68//25 209//25 216//25 
f 98//26 102//26 240//26 228//26 
f 9//27 23//27 148//27 156//27 
f 115//12 114//12 249//12 248//12 
f 48//28 46//28 172//28 171//28 
f 10//17 16//17 155//17 154//17 
f 38//29 39//29 179//29 186//29 
f 103//30 101//30 226//30 225//30 
f 72//31 79//31 201//31 199//31 
f 127//12 128//12 269//12 268//12 
f 68//32 69//32 217//32 209//32 
f 92//17 98//17 228//17 234//17 
f 24//12 9//12 156//12 164//12 
f 116//33 115//33 248//33 247//33 
f 49//34 48//34 171//34 169//34 
f 39//35 40//35 187//35 179//35 
f 11//36 10//36 154//36 152//36 
f 122//17 123//17 259//17 260//17 
f 85//37 72//37 199//37 200//37 
f 129//38 127//38 268//38 267//38 
f 69//39 70//39 218//39 217//39 
f 88//27 92//27 234//27 238//27 
f 26//40 24//40 164//40 140//40 
f 117//12 116//12 247//12 245//12 
f 51//41 49//41 169//41 170//41 
f 40//42 41//42 188//42 187//42 
f 12//17 11//17 152//17 153//17 
f 112//43 122//43 260//43 246//43 
f 86//44 85//44 200//44 198//44 
f 131//12 129//12 267//12 265//12 
f 70//45 71//45 219//45 218//45 
f 89//46 88//46 238//46 237//46 
f 25//12 26//12 140//12 139//12 
f 118//23 117//23 245//23 244//23 
f 50//47 51//47 170//47 168//47 
f 41//48 42//48 189//48 188//48 
f 14//23 12//23 153//23 151//23 
f 104//17 112//17 246//17 256//17 
f 87//49 86//49 198//49 197//49 
f 133//23 131//23 265//23 264//23 
f 71//50 80//50 220//50 219//50 
f 7//51 27//51 165//51 141//51 
f 90//27 89//27 237//27 236//27 
f 28//27 25//27 139//27 138//27 
f 119//52 118//52 244//52 243//52 
f 58//53 50//53 168//53 167//53 
f 42//54 43//54 190//54 189//54 
f 13//12 14//12 151//12 150//12 
f 105//55 104//55 256//55 258//55 
f 31//56 87//56 197//56 181//56 
f 134//57 133//57 264//57 263//57 
f 80//58 81//58 221//58 220//58 
f 2//59 1//59 163//59 161//59 
f 91//17 90//17 236//17 235//17 
f 66//60 65//60 211//60 210//60 
f 120//23 119//23 243//23 242//23 
f 59//61 58//61 167//61 166//61 
f 43//62 52//62 191//62 190//62 
f 15//63 13//63 150//63 149//63 
f 106//17 105//17 258//17 257//17 
f 35//64 31//64 181//64 180//64 
f 135//23 134//23 263//23 262//23 
f 81//65 82//65 222//65 221//65 
f 1//17 7//17 141//17 163//17 
f 94//23 91//23 235//23 232//23 
f 63//66 66//66 210//66 207//66 
f 121//67 120//67 242//67 241//67 
f 64//68 59//68 166//68 212//68 
f 52//69 53//69 192//69 191//69 
f 17//12 15//12 149//12 147//12 
f 107//23 106//23 257//23 254//23 
f 36//70 35//70 180//70 177//70 
f 132//67 135//67 262//67 261//67 
f 82//71 83//71 223//71 222//71 
f 27//17 28//17 138//17 165//17 
f 95//12 94//12 232//12 231//12 
f 73//72 63//72 207//72 208//72 
f 123//27 121//27 241//27 259//27 
f 65//73 64//73 212//73 211//73 
f 53//74 54//74 193//74 192//74 
f 18//75 17//75 147//75 145//75 
f 108//12 107//12 254//12 253//12 
f 37//76 36//76 177//76 178//76 
f 137//27 132//27 261//27 273//27 
f 83//77 84//77 224//77 223//77 
f 3//17 2//17 161//17 162//17 
f 96//27 95//27 231//27 230//27 
f 74//78 73//78 208//78 206//78 
f 136//17 137//17 273//17 274//17 
f 54//79 55//79 194//79 193//79 
f 19//12 18//12 145//12 146//12 
f 109//27 108//27 253//27 252//27 
f 34//80 37//80 178//80 176//80 
f 84//81 30//81 183//81 224//81 
f 5//23 3//23 162//23 160//23 
f 76//82 74//82 206//82 205//82 
f 97//83 96//83 230//83 229//83 
f 130//84 136//84 274//84 266//84 
f 57//85 60//85 213//85 196//85 
f 55//86 56//86 195//86 194//86 
f 21//27 19//27 146//27 144//27 
f 110//87 109//87 252//87 251//87 
f 44//88 34//88 176//88 175//88 
f 30//89 29//89 182//89 183//89 
f 4//12 5//12 160//12 159//12 
f 93//27 97//27 229//27 233//27 
f 75//90 76//90 205//90 203//90 
f 124//17 130//17 266//17 272//17 
f 60//91 61//91 214//91 213//91 
f 56//92 57//92 196//92 195//92 
f 20//17 21//17 144//17 143//17 
f 111//27 110//27 251//27 255//27 
f 45//93 44//93 175//93 173//93 
f 29//94 32//94 184//94 182//94 
f 6//95 4//95 159//95 158//95 
f 99//12 93//12 233//12 239//12 
f 77//96 75//96 203//96 204//96 
# 251 polygons - 30 triangles

