# 3ds Max Wavefront OBJ Exporter v0.97b - (c)2007 guruware
# File Created: 15.03.2017 11:46:04

mtllib SPW_Urban_Text_Factory.mtl

#
# object SPW_Urban_Text_Factory
#

v  81.2494 29.0198 -2.4772
v  77.4870 29.9604 -2.4772
v  77.4870 32.5562 -2.4772
v  92.7374 29.9628 -2.4772
v  92.7374 32.5562 -2.4772
v  89.7345 29.3433 -2.4772
v  90.5033 15.6663 -2.4772
v  96.3796 19.6162 -2.4772
v  90.5033 3.6479 -2.4772
v  102.3447 29.0040 -2.4772
v  98.8878 29.9363 -2.4772
v  98.8878 32.5520 -2.4772
v  110.7568 29.9666 -2.4772
v  110.7568 32.5520 -2.4772
v  106.4628 28.9233 -2.4772
v  98.0916 15.6486 -2.4772
v  98.0916 3.6568 -2.4772
v  102.3554 0.0281 -2.4772
v  102.3554 2.6408 -2.4772
v  86.2319 2.6021 -2.4772
v  86.2319 0.0065 -2.4772
v  -107.7371 28.9117 -2.4772
v  -112.0136 29.9593 -2.4772
v  -112.0136 32.5580 -2.4772
v  -87.5532 32.5580 -2.4772
v  -87.5532 23.0259 -2.4772
v  -90.1539 23.0259 -2.4772
v  -92.0131 28.9749 -2.4772
v  -100.1596 28.9749 -2.4772
v  -107.7371 3.6643 -2.4772
v  -100.1596 18.2838 -2.4772
v  -91.4960 18.9793 -2.4772
v  -91.4960 14.3678 -2.4772
v  -100.1584 15.0188 -2.4772
v  -100.1584 3.6656 -2.4772
v  -94.9572 2.6223 -2.4772
v  -94.9572 0.0066 -2.4772
v  -112.0219 2.5931 -2.4772
v  -112.0219 0.0065 -2.4772
v  -42.7211 1.1352 -2.4772
v  -45.8438 3.3549 -2.4772
v  -48.1764 6.4400 -2.4772
v  -37.6819 -0.4497 -2.4772
v  -49.6814 10.1647 -2.4772
v  -50.3209 14.1527 -2.4772
v  -49.2299 23.8217 -2.4772
v  -50.2833 19.2317 -2.4772
v  -47.4616 27.2830 -2.4772
v  -44.2637 30.3681 -2.4772
v  -36.7015 33.0393 -2.4772
v  -40.6519 32.1740 -2.4772
v  -32.5254 33.2274 -2.4772
v  -28.8760 32.7383 -2.4772
v  -24.3231 31.4215 -2.4772
v  -25.7533 31.9859 -2.4772
v  -24.3231 22.8398 -2.4772
v  -26.8935 22.8398 -2.4772
v  -28.9646 29.3808 -2.4772
v  -31.6105 29.6748 -2.4772
v  -34.6240 29.4018 -2.4772
v  -37.1440 28.6458 -2.4772
v  -39.6659 26.9222 -2.4772
v  -41.2674 24.4309 -2.4772
v  -42.2456 20.9320 -2.4772
v  -42.6594 16.0786 -2.4772
v  -42.1327 10.8491 -2.4772
v  -41.3050 7.9521 -2.4772
v  -29.8677 3.0612 -2.4772
v  -26.3311 10.1497 -2.4772
v  -23.7366 10.1497 -2.4772
v  -26.8108 0.7599 -2.4772
v  -24.9575 1.5923 -2.4772
v  -31.2973 2.9107 -2.4772
v  -34.3071 3.0235 -2.4772
v  -37.2417 3.8512 -2.4772
v  -29.3962 -0.0566 -2.4772
v  -31.9666 -0.5707 -2.4772
v  -34.6277 -0.6916 -2.4772
v  -39.4615 5.2809 -2.4772
v  -39.8242 0.0065 -2.4772
v  28.6808 29.7989 -2.4772
v  26.8258 30.0340 -2.4772
v  27.5040 33.2169 -2.4772
v  30.3530 29.0935 -2.4772
v  31.6854 27.9961 -2.4772
v  40.0189 26.6073 -2.4772
v  30.6463 32.8919 -2.4772
v  34.0594 31.8625 -2.4772
v  37.3642 29.8038 -2.4772
v  33.1747 25.7753 -2.4772
v  34.1936 22.8491 -2.4772
v  34.7423 19.7661 -2.4772
v  34.9513 16.2390 -2.4772
v  34.8207 12.9209 -2.4772
v  34.1936 9.4982 -2.4772
v  41.6984 23.1400 -2.4772
v  42.6194 19.2393 -2.4772
v  42.0776 10.3543 -2.4772
v  42.6736 14.5801 -2.4772
v  40.8315 7.2662 -2.4772
v  38.7728 4.1781 -2.4772
v  33.0301 0.2774 -2.4772
v  35.9556 1.7402 -2.4772
v  33.3576 7.1207 -2.4772
v  32.0774 5.0305 -2.4772
v  30.5620 3.6458 -2.4772
v  29.3340 3.0188 -2.4772
v  28.1061 2.6530 -2.4772
v  26.9623 2.5347 -2.4772
v  29.8878 -0.4269 -2.4772
v  26.9623 -0.6978 -2.4772
v  25.4382 2.6073 -2.4772
v  23.7690 3.0971 -2.4772
v  21.7311 4.5602 -2.4772
v  15.4768 3.2571 -2.4772
v  24.1719 -0.5097 -2.4772
v  21.3279 0.0065 -2.4772
v  18.4565 1.1442 -2.4772
v  20.1896 6.7810 -2.4772
v  19.1445 9.7073 -2.4772
v  18.6742 12.8425 -2.4772
v  18.4652 16.4219 -2.4772
v  18.6742 20.1319 -2.4772
v  16.0727 29.9121 -2.4772
v  13.0930 6.3994 -2.4772
v  11.6302 9.6500 -2.4772
v  10.7092 17.2348 -2.4772
v  10.7634 13.7133 -2.4772
v  11.0885 21.0271 -2.4772
v  12.2262 24.6028 -2.4772
v  13.9598 27.4742 -2.4772
v  19.3013 23.3194 -2.4772
v  20.3202 26.0627 -2.4772
v  21.7572 28.0484 -2.4772
v  23.4554 29.2763 -2.4772
v  25.3105 29.8773 -2.4772
v  18.7274 31.5916 -2.4772
v  21.2737 32.5668 -2.4772
v  24.4160 33.1627 -2.4772
v  -56.8087 3.6804 -2.4772
v  -52.3454 2.6110 -2.4772
v  -52.3454 0.0083 -2.4772
v  -68.1091 2.6064 -2.4772
v  -68.1091 0.0083 -2.4772
v  -64.8227 3.4044 -2.4772
v  -67.2239 32.7887 -2.4772
v  -66.8040 8.9809 -2.4772
v  -67.9548 12.1802 -2.4772
v  -71.5873 22.0948 -2.4772
v  -71.2710 32.7887 -2.4772
v  -82.3859 3.6765 -2.4772
v  -76.5643 8.9809 -2.4772
v  -75.3158 12.1890 -2.4772
v  -78.6654 3.5407 -2.4772
v  -74.7645 0.0179 -2.4772
v  -74.7645 2.6033 -2.4772
v  -86.9369 2.6071 -2.4772
v  -86.9369 0.0065 -2.4772
v  -16.2159 28.9825 -2.4772
v  -18.1192 22.7030 -2.4772
v  -20.9149 22.7030 -2.4772
v  -20.9149 32.5562 -2.4772
v  -10.4071 28.9825 -2.4772
v  -2.8199 28.9737 -2.4772
v  7.6806 32.5562 -2.4772
v  7.6806 22.6961 -2.4772
v  4.8515 22.6961 -2.4772
v  2.9403 28.9737 -2.4772
v  -10.4071 3.6316 -2.4772
v  -2.8199 3.6476 -2.4772
v  1.4589 2.6044 -2.4772
v  1.4589 0.0190 -2.4772
v  -14.6844 2.6108 -2.4772
v  -14.6844 0.0065 -2.4772
v  58.1000 3.6565 -2.4772
v  62.1445 2.5855 -2.4772
v  62.1445 0.0026 -2.4772
v  46.2414 2.6087 -2.4772
v  46.2414 0.0065 -2.4772
v  50.5122 3.6266 -2.4772
v  58.1000 14.0853 -2.4772
v  58.1000 17.3608 -2.4772
v  58.1000 29.1711 -2.4772
v  50.5122 28.9384 -2.4772
v  46.2411 32.5610 -2.4772
v  46.2411 29.9507 -2.4772
v  59.9897 29.1529 -2.4772
v  61.4541 28.9706 -2.4772
v  62.7799 32.5610 -2.4772
v  62.8030 28.5878 -2.4772
v  64.0790 27.8829 -2.4772
v  65.1814 26.7490 -2.4772
v  65.8954 25.3210 -2.4772
v  66.0457 32.0908 -2.4772
v  69.1025 31.0196 -2.4772
v  73.0215 27.0745 -2.4772
v  71.3494 29.5304 -2.4772
v  73.6485 25.0105 -2.4772
v  73.6485 22.4501 -2.4772
v  71.7674 18.1131 -2.4772
v  73.0215 20.1771 -2.4772
v  66.1159 23.9771 -2.4772
v  66.0739 22.5491 -2.4772
v  65.6434 20.8272 -2.4772
v  64.8454 19.5147 -2.4772
v  69.8340 16.4410 -2.4772
v  67.4564 15.3522 -2.4772
v  59.7275 14.0853 -2.4772
v  73.9639 3.5742 -2.4772
v  78.4241 2.4654 -2.4772
v  78.4241 0.0085 -2.4772
v  67.1411 0.0085 -2.4772
v  63.7955 18.5278 -2.4772
v  62.1680 17.7403 -2.4772
v  60.1941 17.3728 -2.4772
v  86.2319 0.0065 2.4441
v  102.3554 0.0281 2.4441
v  102.3554 2.6408 2.4441
v  90.5033 3.6479 2.4441
v  106.4628 28.9233 2.4441
v  110.7568 29.9666 2.4441
v  110.7568 32.5520 2.4441
v  98.8878 29.9363 2.4441
v  98.8878 32.5520 2.4441
v  102.3447 29.0040 2.4441
v  98.0916 15.6486 2.4441
v  96.3796 19.6162 2.4441
v  90.5033 15.6663 2.4441
v  89.7345 29.3433 2.4441
v  92.7374 29.9628 2.4441
v  92.7374 32.5562 2.4441
v  77.4870 29.9604 2.4441
v  77.4870 32.5562 2.4441
v  81.2494 29.0198 2.4441
v  98.0916 3.6568 2.4441
v  86.2319 2.6021 2.4441
v  -112.0219 0.0065 2.4441
v  -94.9572 0.0066 2.4441
v  -94.9572 2.6223 2.4441
v  -107.7371 3.6643 2.4441
v  -100.1584 15.0188 2.4441
v  -91.4960 14.3678 2.4441
v  -91.4960 18.9793 2.4441
v  -100.1596 18.2838 2.4441
v  -92.0131 28.9749 2.4441
v  -90.1539 23.0259 2.4441
v  -87.5532 23.0259 2.4441
v  -87.5532 32.5580 2.4441
v  -100.1596 28.9749 2.4441
v  -107.7371 28.9117 2.4441
v  -112.0136 32.5580 2.4441
v  -112.0136 29.9593 2.4441
v  -100.1584 3.6656 2.4441
v  -112.0219 2.5931 2.4441
v  -42.7211 1.1352 2.4441
v  -39.8242 0.0065 2.4441
v  -37.6819 -0.4497 2.4441
v  -31.9666 -0.5707 2.4441
v  -34.6277 -0.6916 2.4441
v  -29.3962 -0.0566 2.4441
v  -26.8108 0.7599 2.4441
v  -23.7366 10.1497 2.4441
v  -24.9575 1.5923 2.4441
v  -26.3311 10.1497 2.4441
v  -29.8677 3.0612 2.4441
v  -31.2973 2.9107 2.4441
v  -34.3071 3.0235 2.4441
v  -37.2417 3.8512 2.4441
v  -39.4615 5.2809 2.4441
v  -50.2833 19.2317 2.4441
v  -28.9646 29.3808 2.4441
v  -26.8935 22.8398 2.4441
v  -24.3231 22.8398 2.4441
v  -25.7533 31.9859 2.4441
v  -24.3231 31.4215 2.4441
v  -31.6105 29.6748 2.4441
v  -34.6240 29.4018 2.4441
v  -28.8760 32.7383 2.4441
v  -32.5254 33.2274 2.4441
v  -40.6519 32.1740 2.4441
v  -36.7015 33.0393 2.4441
v  -37.1440 28.6458 2.4441
v  -39.6659 26.9222 2.4441
v  -41.2674 24.4309 2.4441
v  -42.2456 20.9320 2.4441
v  -44.2637 30.3681 2.4441
v  -47.4616 27.2830 2.4441
v  -49.2299 23.8217 2.4441
v  -42.6594 16.0786 2.4441
v  -42.1327 10.8491 2.4441
v  -41.3050 7.9521 2.4441
v  -50.3209 14.1527 2.4441
v  -49.6814 10.1647 2.4441
v  -48.1764 6.4400 2.4441
v  -45.8438 3.3549 2.4441
v  26.9623 -0.6978 2.4441
v  29.8878 -0.4269 2.4441
v  33.0301 0.2774 2.4441
v  38.7728 4.1781 2.4441
v  35.9556 1.7402 2.4441
v  40.8315 7.2662 2.4441
v  42.0776 10.3543 2.4441
v  42.6194 19.2393 2.4441
v  42.6736 14.5801 2.4441
v  41.6984 23.1400 2.4441
v  40.0189 26.6073 2.4441
v  34.0594 31.8625 2.4441
v  37.3642 29.8038 2.4441
v  34.1936 22.8491 2.4441
v  30.6463 32.8919 2.4441
v  27.5040 33.2169 2.4441
v  28.6808 29.7989 2.4441
v  26.8258 30.0340 2.4441
v  30.3530 29.0935 2.4441
v  31.6854 27.9961 2.4441
v  33.1747 25.7753 2.4441
v  34.7423 19.7661 2.4441
v  34.9513 16.2390 2.4441
v  34.8207 12.9209 2.4441
v  34.1936 9.4982 2.4441
v  33.3576 7.1207 2.4441
v  32.0774 5.0305 2.4441
v  30.5620 3.6458 2.4441
v  29.3340 3.0188 2.4441
v  28.1061 2.6530 2.4441
v  26.9623 2.5347 2.4441
v  24.4160 33.1627 2.4441
v  21.2737 32.5668 2.4441
v  16.0727 29.9121 2.4441
v  18.7274 31.5916 2.4441
v  13.9598 27.4742 2.4441
v  12.2262 24.6028 2.4441
v  10.7092 17.2348 2.4441
v  11.0885 21.0271 2.4441
v  10.7634 13.7133 2.4441
v  11.6302 9.6500 2.4441
v  15.4768 3.2571 2.4441
v  13.0930 6.3994 2.4441
v  19.1445 9.7073 2.4441
v  18.4565 1.1442 2.4441
v  21.3279 0.0065 2.4441
v  24.1719 -0.5097 2.4441
v  25.4382 2.6073 2.4441
v  23.7690 3.0971 2.4441
v  21.7311 4.5602 2.4441
v  20.1896 6.7810 2.4441
v  18.6742 12.8425 2.4441
v  18.4652 16.4219 2.4441
v  18.6742 20.1319 2.4441
v  19.3012 23.3194 2.4441
v  20.3202 26.0627 2.4441
v  21.7572 28.0484 2.4441
v  23.4554 29.2763 2.4441
v  25.3105 29.8773 2.4441
v  -71.2710 32.7887 2.4441
v  -71.5873 22.0948 2.4441
v  -67.9548 12.1802 2.4441
v  -56.8087 3.6804 2.4441
v  -64.8227 3.4044 2.4441
v  -68.1091 2.6064 2.4441
v  -68.1091 0.0083 2.4441
v  -52.3454 2.6110 2.4441
v  -52.3454 0.0083 2.4441
v  -66.8040 8.9809 2.4441
v  -67.2239 32.7887 2.4441
v  -86.9369 0.0065 2.4441
v  -74.7645 0.0179 2.4441
v  -74.7645 2.6033 2.4441
v  -82.3859 3.6765 2.4441
v  -76.5643 8.9809 2.4441
v  -75.3158 12.1890 2.4441
v  -78.6654 3.5407 2.4441
v  -86.9369 2.6071 2.4441
v  -14.6844 0.0065 2.4441
v  1.4589 0.0190 2.4441
v  1.4589 2.6044 2.4441
v  -10.4071 3.6316 2.4441
v  2.9403 28.9737 2.4441
v  4.8515 22.6961 2.4441
v  7.6806 22.6961 2.4441
v  7.6806 32.5562 2.4441
v  -2.8199 28.9737 2.4441
v  -10.4071 28.9825 2.4441
v  -20.9149 32.5562 2.4441
v  -20.9149 22.7030 2.4441
v  -18.1192 22.7030 2.4441
v  -16.2159 28.9825 2.4441
v  -2.8199 3.6476 2.4441
v  -14.6844 2.6108 2.4441
v  62.7799 32.5610 2.4441
v  46.2411 32.5610 2.4441
v  46.2411 29.9507 2.4441
v  50.5122 28.9384 2.4441
v  50.5122 3.6266 2.4441
v  46.2414 2.6087 2.4441
v  46.2414 0.0065 2.4441
v  62.1445 2.5855 2.4441
v  62.1445 0.0026 2.4441
v  58.1000 3.6565 2.4441
v  58.1000 14.0853 2.4441
v  58.1000 17.3608 2.4441
v  58.1000 29.1711 2.4441
v  59.9897 29.1529 2.4441
v  61.4541 28.9706 2.4441
v  59.7275 14.0853 2.4441
v  67.1411 0.0085 2.4441
v  78.4241 0.0085 2.4441
v  73.9639 3.5742 2.4441
v  78.4241 2.4654 2.4441
v  67.4564 15.3522 2.4441
v  64.8454 19.5147 2.4441
v  69.8340 16.4410 2.4441
v  71.7674 18.1131 2.4441
v  73.6485 22.4501 2.4441
v  73.0215 20.1771 2.4441
v  73.6485 25.0105 2.4441
v  73.0215 27.0745 2.4441
v  69.1025 31.0196 2.4441
v  71.3494 29.5304 2.4441
v  66.1159 23.9771 2.4441
v  66.0457 32.0908 2.4441
v  62.8030 28.5878 2.4441
v  64.0790 27.8829 2.4441
v  65.1814 26.7490 2.4441
v  65.8954 25.3210 2.4441
v  66.0739 22.5491 2.4441
v  65.6434 20.8272 2.4441
v  63.7955 18.5278 2.4441
v  62.1680 17.7403 2.4441
v  60.1941 17.3728 2.4441
# 430 vertices

vn 0.0000 -0.0000 -1.0000
vn 0.0000 0.0000 -1.0000
vn -0.0000 0.0000 -1.0000
vn -0.0000 -0.0000 -1.0000
vn -0.0000 -0.0000 1.0000
vn 0.0000 0.0000 1.0000
vn 0.0000 -0.0000 1.0000
vn -0.0000 0.0000 1.0000
vn -0.4548 0.8906 -0.0000
vn 1.0000 0.0000 -0.0000
vn -0.2855 0.9584 -0.0000
vn -0.0749 -0.9972 -0.0000
vn -0.1029 0.9947 -0.0000
vn 0.1967 0.9805 -0.0000
vn -1.0000 0.0000 -0.0000
vn -0.2288 0.9735 0.0000
vn 0.0000 -1.0000 0.0000
vn -0.9342 0.3567 0.0000
vn -0.3630 -0.9318 0.0000
vn 0.0000 1.0000 0.0000
vn -0.5794 -0.8151 0.0000
vn 0.9415 0.3369 0.0000
vn -0.7977 -0.6031 -0.0000
vn 0.2330 0.9725 -0.0000
vn -0.9272 -0.3746 -0.0000
vn -0.9874 -0.1584 -0.0000
vn -1.0000 0.0074 0.0000
vn -0.9747 0.2237 0.0000
vn -0.2360 0.9718 0.0000
vn -0.8905 0.4549 0.0000
vn -0.9423 -0.3348 -0.0000
vn -0.6943 0.7197 0.0000
vn 0.0000 -1.0000 -0.0000
vn -0.4472 0.8944 0.0000
vn 0.9328 -0.3603 -0.0000
vn -0.2140 0.9768 0.0000
vn 0.2337 0.9723 -0.0000
vn -0.0450 0.9990 0.0000
vn 0.1328 0.9911 0.0000
vn 0.0009 -1.0000 0.0000
vn 0.2343 0.9722 0.0000
vn 0.3671 0.9302 0.0000
vn 0.9359 -0.3523 -0.0000
vn 1.0000 -0.0000 0.0000
vn -0.9390 -0.3440 -0.0000
vn 0.0012 1.0000 0.0000
vn -0.9534 -0.3019 -0.0000
vn -0.1104 -0.9939 -0.0000
vn 0.0902 -0.9959 -0.0000
vn 0.2873 -0.9578 -0.0000
vn -0.2321 0.9727 -0.0000
vn 0.5643 -0.8256 -0.0000
vn 0.8412 -0.5407 -0.0000
vn 0.9631 -0.2692 -0.0000
vn 0.9570 -0.2901 0.0000
vn 0.9964 -0.0850 -0.0000
vn 0.9950 0.1002 0.0000
vn 0.9615 0.2747 0.0000
vn 0.8230 0.5680 0.0000
vn 0.5415 0.8407 0.0000
vn 0.2715 0.9624 -0.0000
vn -0.9566 -0.2913 -0.0000
vn 0.0375 0.9993 -0.0000
vn -0.1047 0.9945 0.0000
vn -0.8948 0.4464 -0.0000
vn 0.2369 0.9715 0.0000
vn 0.9900 -0.1412 0.0000
vn 0.0008 -1.0000 0.0000
vn 0.4097 -0.9122 0.0000
vn 0.3011 -0.9536 0.0000
vn -0.2318 0.9728 0.0000
vn 0.1961 -0.9806 0.0000
vn 0.0454 -0.9990 0.0000
vn -0.2306 -0.9730 -0.0000
vn -0.0790 -0.9969 0.0000
vn -0.2083 -0.9781 0.0000
vn -0.3684 -0.9297 -0.0000
vn 0.1425 0.9898 0.0000
vn -0.5784 -0.8157 -0.0000
vn 0.3307 0.9437 0.0000
vn -0.7967 -0.6044 -0.0000
vn 0.5525 0.8335 0.0000
vn -0.9119 -0.4104 -0.0000
vn 0.8266 0.5628 0.0000
vn -0.9780 -0.2086 -0.0000
vn 0.9568 0.2907 0.0000
vn -0.9999 -0.0154 -0.0000
vn -0.9950 0.0995 0.0000
vn 0.9640 -0.2659 -0.0000
vn -0.9529 0.3032 -0.0000
vn 0.8546 -0.5193 -0.0000
vn -0.8561 0.5169 -0.0000
vn 0.6541 -0.7564 -0.0000
vn -0.7557 0.6549 -0.0000
vn 0.4164 -0.9092 -0.0000
vn -0.5346 0.8451 -0.0000
vn 0.8753 0.4836 0.0000
vn -0.3576 0.9339 0.0000
vn 0.2412 0.9705 0.0000
vn -0.1863 0.9825 0.0000
vn -0.0175 0.9998 0.0000
vn 0.1029 0.9947 0.0000
vn -0.8848 -0.4660 -0.0000
vn 0.2887 0.9574 0.0000
vn 0.5287 0.8488 0.0000
vn 0.7693 0.6389 0.0000
vn 0.2560 0.9667 -0.0000
vn 0.9000 0.4359 0.0000
vn 0.9732 0.2298 0.0000
vn -0.0002 -1.0000 0.0000
vn 0.9999 0.0116 0.0000
vn 0.9902 -0.1396 -0.0000
vn 0.9274 -0.3742 -0.0000
vn -0.0096 -1.0000 -0.0000
vn 0.8320 -0.5547 -0.0000
vn -0.1235 -0.9923 -0.0000
vn 0.6544 -0.7562 0.0000
vn -0.2730 -0.9620 -0.0000
vn 0.4472 -0.8944 0.0000
vn -0.2378 0.9713 -0.0000
vn -0.4835 -0.8753 -0.0000
vn 0.2187 -0.9758 0.0000
vn -0.7170 -0.6971 -0.0000
vn 0.0922 -0.9957 0.0000
vn -0.8219 -0.5696 -0.0000
vn -0.8944 -0.4472 -0.0000
vn -0.0673 -0.9977 -0.0000
vn -0.2425 -0.9701 -0.0000
vn -0.9868 -0.1619 -0.0000
vn -0.1786 -0.9839 -0.0000
vn -0.9996 0.0294 0.0000
vn -0.9701 0.2425 0.0000
vn 0.0476 0.9989 0.0000
vn -0.8545 0.5195 0.0000
vn 0.2816 0.9595 0.0000
vn 0.2020 -0.9794 -0.0000
vn -0.6849 0.7286 0.0000
vn 0.5832 0.8123 0.0000
vn 0.8257 0.5641 0.0000
vn -0.4356 0.9002 0.0000
vn 0.8215 0.5702 0.0000
vn -0.8440 0.5363 0.0000
vn -0.1830 0.9831 0.0000
vn 0.9417 0.3363 0.0000
vn -0.2604 -0.9655 -0.0000
vn -0.0058 1.0000 0.0000
vn 0.9889 0.1483 0.0000
vn 0.9983 0.0583 0.0000
vn 0.9984 -0.0562 0.0000
vn 0.9812 -0.1930 0.0000
vn 0.2361 -0.9717 -0.0000
vn 0.9374 -0.3482 0.0000
vn 0.8459 -0.5334 -0.0000
vn 0.8101 -0.5863 0.0000
vn 0.5859 -0.8103 0.0000
vn 0.2318 0.9728 -0.0000
vn 0.3082 -0.9513 -0.0000
vn 0.1029 -0.9947 -0.0000
vn 0.0013 -1.0000 0.0000
vn -0.1258 -0.9921 -0.0000
vn -0.3887 -0.9214 -0.0000
vn -0.2425 0.9701 -0.0000
vn -0.6357 -0.7719 -0.0000
vn -0.8305 -0.5570 -0.0000
vn -0.2379 -0.9713 -0.0000
vn -0.9444 -0.3288 -0.0000
vn -0.9845 -0.1752 -0.0000
vn -0.9982 -0.0592 -0.0000
vn -0.9992 0.0393 0.0000
vn -0.9836 0.1802 0.0000
vn -0.9545 -0.2983 -0.0000
vn -0.9434 0.3317 0.0000
vn -0.8528 0.5223 0.0000
vn -0.6746 0.7382 0.0000
vn -0.0800 0.9968 0.0000
# 175 vertex normals

g SPW_Urban_Text_Factory
usemtl SPW_Urban_Text
s off
f 1//1 2//1 3//1 4//1 
f 3//2 5//2 4//2 
f 1//3 4//3 6//3 7//3 
f 7//2 6//2 8//2 9//2 
f 10//1 11//1 12//1 13//1 
f 12//2 14//2 13//2 
f 10//3 13//3 15//3 8//3 
f 9//2 8//2 15//2 16//2 
f 9//2 16//2 17//2 18//2 
f 17//2 19//2 18//2 
f 20//1 9//1 18//1 21//1 
f 22//2 23//2 24//2 25//2 
f 25//3 26//3 27//3 28//3 
f 25//1 28//1 29//1 22//1 
f 30//3 22//3 29//3 31//3 
f 31//2 32//2 33//2 34//2 
f 30//2 31//2 34//2 35//2 
f 35//2 36//2 37//2 30//2 
f 38//3 30//3 37//3 39//3 
f 40//4 41//4 42//4 43//4 
f 42//2 44//2 45//2 46//2 
f 45//3 47//3 46//3 
f 46//3 48//3 49//3 50//3 
f 49//3 51//3 50//3 
f 50//1 52//1 53//1 54//1 
f 53//2 55//2 54//2 
f 54//3 56//3 57//3 58//3 
f 50//2 54//2 58//2 59//2 
f 50//4 59//4 60//4 61//4 
f 46//1 50//1 61//1 62//1 
f 46//2 62//2 63//2 64//2 
f 46//2 64//2 65//2 66//2 
f 46//2 66//2 67//2 43//2 
f 68//3 69//3 70//3 71//3 
f 70//1 72//1 71//1 
f 73//2 68//2 71//2 74//2 
f 75//2 74//2 71//2 43//2 
f 71//2 76//2 77//2 43//2 
f 77//2 78//2 43//2 
f 79//3 75//3 43//3 67//3 
f 42//3 46//3 43//3 
f 40//4 43//4 80//4 
s 1
f 81//2 82//3 83//2 84//4 
f 85//2 84//4 83//2 86//2 
f 83//2 87//2 88//2 86//2 
f 88//2 89//2 86//2 
f 90//2 85//2 86//2 91//2 
f 92//2 91//2 86//2 93//2 
f 94//1 93//2 86//2 95//1 
f 86//2 96//2 97//2 98//3 
f 97//2 99//2 98//3 
f 98//3 100//1 101//2 102//1 
f 101//2 103//1 102//1 
f 86//2 98//3 102//1 95//1 
f 104//1 95//1 102//1 105//1 
f 106//1 105//1 102//1 107//1 
f 108//4 107//1 102//1 109//4 
f 109//4 102//1 110//2 111//2 
f 112//3 109//4 111//2 113//2 
f 114//2 113//2 111//2 115//2 
f 111//2 116//4 117//2 115//2 
f 117//2 118//4 115//2 
f 119//3 114//2 115//2 120//2 
f 121//2 120//2 115//2 122//1 
f 123//2 122//1 115//2 124//3 
f 115//2 125//2 126//3 127//3 
f 126//3 128//2 127//3 
f 127//3 129//3 130//3 124//3 
f 130//3 131//3 124//3 
f 115//2 127//3 124//3 
f 132//2 123//2 124//3 133//3 
f 134//4 133//3 124//3 135//3 
f 136//3 135//3 124//3 82//3 
f 124//3 137//1 138//3 82//3 
f 82//3 138//3 139//3 83//2 
f 140//2 141//2 142//2 143//3 
f 142//2 144//2 143//3 
f 140//2 143//3 145//4 146//2 
f 146//2 145//4 147//3 148//2 
f 146//2 148//2 149//2 150//2 
f 151//1 150//2 149//2 152//1 
f 149//2 153//3 152//1 
f 151//1 152//1 154//2 155//2 
f 154//2 156//2 155//2 
f 157//2 151//1 155//2 158//2 
f 147//3 152//1 153//3 148//2 
s off
f 159//2 160//2 161//2 162//2 
f 163//2 159//2 162//2 164//2 
f 165//3 166//3 167//3 168//3 
f 162//1 165//1 168//1 164//1 
f 169//2 163//2 164//2 170//2 
f 170//2 171//2 172//2 169//2 
f 173//1 169//1 172//1 174//1 
s 1
f 175//2 176//2 177//2 178//2 
f 177//2 179//2 178//2 
f 175//2 178//2 180//1 181//2 
f 182//2 181//2 180//1 183//2 
f 183//2 180//1 184//3 185//3 
f 184//3 186//3 185//3 
f 187//2 183//2 185//3 188//3 
f 188//3 185//3 189//3 
f 190//3 188//3 189//3 191//4 
f 192//4 191//4 189//3 193//3 
f 189//3 194//2 195//4 196//3 
f 195//4 197//2 196//3 
f 196//3 198//2 199//2 200//1 
f 199//2 201//1 200//1 
f 189//3 196//3 200//1 193//3 
f 202//4 193//3 200//1 203//4 
f 204//3 203//4 200//1 205//3 
f 200//1 206//1 207//1 208//3 
f 209//4 210//2 211//2 208//3 
f 211//2 212//2 208//3 
f 207//1 209//4 208//3 
f 205//3 200//1 208//3 213//1 
f 214//1 213//1 208//3 215//3 
f 182//2 215//3 208//3 181//2 
s off
f 216//5 217//5 218//5 219//5 
f 220//5 221//5 222//5 223//5 
f 222//6 224//6 223//6 
f 220//7 223//7 225//7 226//7 
f 226//7 225//7 227//7 228//7 
f 229//5 230//5 231//5 232//5 
f 231//6 233//6 232//6 
f 229//5 232//5 234//5 227//5 
f 227//5 234//5 228//5 
f 235//7 226//7 228//7 219//7 
f 218//5 235//5 219//5 
f 236//7 216//7 219//7 
f 237//5 238//5 239//5 240//5 
f 241//7 242//7 243//7 244//7 
f 245//5 246//5 247//5 248//5 
f 249//5 245//5 248//5 250//5 
f 248//7 251//7 252//7 250//7 
f 244//5 249//5 250//5 241//5 
f 253//5 241//5 250//5 240//5 
f 239//5 253//5 240//5 
f 254//7 237//7 240//7 
f 255//7 256//7 257//7 258//7 
f 257//7 259//7 258//7 
f 258//5 260//5 261//5 262//5 
f 261//7 263//7 262//7 
f 262//5 264//5 265//5 258//5 
f 255//7 258//7 265//7 266//7 
f 255//6 266//6 267//6 268//6 
f 255//7 268//7 269//7 270//7 
f 271//7 272//7 273//7 274//7 
f 273//5 275//5 274//5 
f 276//7 271//7 274//7 277//7 
f 274//8 278//8 279//8 280//8 
f 279//7 281//7 280//7 
f 277//5 274//5 280//5 282//5 
f 283//5 282//5 280//5 284//5 
f 285//5 284//5 280//5 270//5 
f 280//7 286//7 287//7 270//7 
f 287//7 288//7 270//7 
f 289//5 285//5 270//5 290//5 
f 291//5 290//5 270//5 269//5 
f 270//7 292//7 293//7 255//7 
f 255//5 293//5 294//5 295//5 
s 1
f 296//7 297//7 298//5 299//5 
f 298//5 300//7 299//5 
f 299//5 301//7 302//5 303//7 
f 302//5 304//7 303//7 
f 303//7 305//5 306//7 307//5 
f 306//7 308//7 307//5 
f 299//5 303//7 307//5 309//5 
f 307//5 310//6 311//7 312//5 
f 311//7 313//7 312//5 
f 307//5 312//5 314//5 315//5 
f 307//5 315//5 316//5 309//5 
f 299//5 309//5 317//5 318//5 
f 299//5 318//5 319//5 320//5 
f 299//5 320//5 321//8 322//8 
f 296//7 299//5 322//8 323//8 
f 296//7 323//8 324//8 325//6 
f 326//7 296//7 325//6 
f 311//7 327//7 328//8 329//7 
f 328//8 330//7 329//7 
f 329//7 331//7 332//5 333//7 
f 332//5 334//7 333//7 
f 333//7 335//7 336//7 337//5 
f 336//7 338//6 337//5 
f 329//7 333//7 337//5 339//5 
f 337//5 340//5 341//5 296//7 
f 341//5 342//6 296//7 
f 296//7 326//7 343//5 344//5 
f 337//5 296//7 344//5 345//5 
f 337//5 345//5 346//5 339//5 
f 329//7 339//5 347//6 348//5 
f 329//7 348//5 349//7 350//7 
f 329//7 350//7 351//5 352//7 
f 311//7 329//7 352//7 353//7 
f 311//7 353//7 354//7 313//7 
f 355//5 356//5 357//5 358//5 
f 359//5 360//7 361//7 362//5 
f 361//7 363//7 362//5 
f 359//5 362//5 358//5 364//5 
f 357//5 364//5 358//5 
f 365//7 355//5 358//5 
f 366//5 367//5 368//5 369//8 
f 370//7 371//8 356//5 372//5 
f 356//5 355//5 369//8 372//5 
f 368//5 372//5 369//8 
f 373//7 366//5 369//8 
f 364//5 357//5 371//8 370//7 
s off
f 374//5 375//5 376//5 377//5 
f 378//7 379//7 380//7 381//7 
f 382//7 378//7 381//7 383//7 
f 384//5 385//5 386//5 387//5 
f 381//7 384//7 387//7 383//7 
f 388//5 382//5 383//5 377//5 
f 376//5 388//5 377//5 
f 389//7 374//7 377//7 
s 1
f 390//7 391//6 392//7 393//7 
f 394//5 395//7 396//5 397//5 
f 396//5 398//5 397//5 
f 394//5 397//5 399//5 393//7 
f 393//7 399//5 400//5 401//5 
f 393//7 401//5 402//8 390//7 
f 390//7 402//8 403//7 404//7 
f 405//7 406//7 407//8 408//6 
f 407//8 409//5 408//6 
f 405//7 408//6 410//7 411//7 
f 410//7 412//8 413//8 414//5 
f 413//8 415//8 414//5 
f 414//5 416//5 417//5 418//6 
f 417//5 419//7 418//6 
f 410//7 414//5 418//6 420//7 
f 418//6 421//6 390//7 422//6 
f 390//7 404//7 422//6 
f 418//6 422//6 423//6 424//7 
f 418//6 424//7 425//6 420//7 
f 410//7 420//7 426//5 427//7 
f 410//7 427//7 411//7 
f 405//7 411//7 428//8 400//5 
f 400//5 428//8 429//7 430//5 
f 401//5 400//5 430//5 
s off
f 106//9 107//9 324//9 323//9 
f 33//10 32//10 243//10 242//10 
f 107//11 108//11 325//11 324//11 
f 34//12 33//12 242//12 241//12 
f 108//13 109//13 326//13 325//13 
f 35//10 34//10 241//10 253//10 
f 36//14 35//14 253//14 239//14 
f 157//15 158//15 366//15 373//15 
f 37//10 36//10 239//10 238//10 
f 151//16 157//16 373//16 369//16 
f 39//17 37//17 238//17 237//17 
f 150//18 151//18 369//18 355//18 
f 40//19 80//19 256//19 255//19 
f 146//20 150//20 355//20 365//20 
f 41//21 40//21 255//21 295//21 
f 140//22 146//22 365//22 358//22 
f 42//23 41//23 295//23 294//23 
f 141//24 140//24 358//24 362//24 
f 44//25 42//25 294//25 293//25 
f 142//10 141//10 362//10 363//10 
f 45//26 44//26 293//26 292//26 
f 144//17 142//17 363//17 361//17 
f 47//27 45//27 292//27 270//27 
f 143//15 144//15 361//15 360//15 
f 46//28 47//28 270//28 288//28 
f 145//29 143//29 360//29 359//29 
f 48//30 46//30 288//30 287//30 
f 147//31 145//31 359//31 364//31 
f 49//32 48//32 287//32 286//32 
f 152//33 147//33 364//33 370//33 
f 51//34 49//34 286//34 280//34 
f 154//35 152//35 370//35 372//35 
f 50//36 51//36 280//36 281//36 
f 156//37 154//37 372//37 368//37 
f 52//38 50//38 281//38 279//38 
f 155//10 156//10 368//10 367//10 
f 53//39 52//39 279//39 278//39 
f 158//40 155//40 367//40 366//40 
f 55//41 53//41 278//41 274//41 
f 54//42 55//42 274//42 275//42 
f 153//43 149//43 356//43 371//43 
f 56//44 54//44 275//44 273//44 
f 149//45 148//45 357//45 356//45 
f 57//33 56//33 273//33 272//33 
f 148//46 153//46 371//46 357//46 
f 58//47 57//47 272//47 271//47 
f 59//48 58//48 271//48 276//48 
f 60//49 59//49 276//49 277//49 
f 173//15 174//15 374//15 389//15 
f 61//50 60//50 277//50 282//50 
f 169//51 173//51 389//51 377//51 
f 62//52 61//52 282//52 283//52 
f 163//15 169//15 377//15 383//15 
f 63//53 62//53 283//53 284//53 
f 159//33 163//33 383//33 387//33 
f 64//54 63//54 284//54 285//54 
f 160//55 159//55 387//55 386//55 
f 65//56 64//56 285//56 289//56 
f 161//33 160//33 386//33 385//33 
f 66//57 65//57 289//57 290//57 
f 162//15 161//15 385//15 384//15 
f 67//58 66//58 290//58 291//58 
f 165//20 162//20 384//20 381//20 
f 79//59 67//59 291//59 269//59 
f 166//44 165//44 381//44 380//44 
f 75//60 79//60 269//60 268//60 
f 167//33 166//33 380//33 379//33 
f 74//61 75//61 268//61 267//61 
f 168//62 167//62 379//62 378//62 
f 73//63 74//63 267//63 266//63 
f 164//33 168//33 378//33 382//33 
f 68//64 73//64 266//64 265//64 
f 170//44 164//44 382//44 388//44 
f 69//65 68//65 265//65 264//65 
f 171//66 170//66 388//66 376//66 
f 70//20 69//20 264//20 262//20 
f 172//44 171//44 376//44 375//44 
f 72//67 70//67 262//67 263//67 
f 174//68 172//68 375//68 374//68 
f 71//69 72//69 263//69 261//69 
f 178//15 179//15 396//15 395//15 
f 76//70 71//70 261//70 260//70 
f 180//71 178//71 395//71 394//71 
f 77//72 76//72 260//72 258//72 
f 184//15 180//15 394//15 393//15 
f 78//73 77//73 258//73 259//73 
f 186//74 184//74 393//74 392//74 
f 43//75 78//75 259//75 257//75 
f 185//15 186//15 392//15 391//15 
f 80//76 43//76 257//76 256//76 
f 189//20 185//20 391//20 390//20 
f 118//77 117//77 341//77 340//77 
f 194//78 189//78 390//78 421//78 
f 115//79 118//79 340//79 337//79 
f 195//80 194//80 421//80 418//80 
f 125//81 115//81 337//81 338//81 
f 197//82 195//82 418//82 419//82 
f 126//83 125//83 338//83 336//83 
f 196//84 197//84 419//84 417//84 
f 128//85 126//85 336//85 335//85 
f 198//86 196//86 417//86 416//86 
f 127//87 128//87 335//87 333//87 
f 199//10 198//10 416//10 414//10 
f 129//88 127//88 333//88 334//88 
f 201//89 199//89 414//89 415//89 
f 130//90 129//90 334//90 332//90 
f 200//91 201//91 415//91 413//91 
f 131//92 130//92 332//92 331//92 
f 206//93 200//93 413//93 412//93 
f 124//94 131//94 331//94 329//94 
f 207//95 206//95 412//95 410//95 
f 137//96 124//96 329//96 330//96 
f 209//97 207//97 410//97 408//97 
f 138//98 137//98 330//98 328//98 
f 210//99 209//99 408//99 409//99 
f 139//100 138//100 328//100 327//100 
f 211//10 210//10 409//10 407//10 
f 83//101 139//101 327//101 311//101 
f 212//17 211//17 407//17 406//17 
f 87//102 83//102 311//102 310//102 
f 208//103 212//103 406//103 405//103 
f 88//104 87//104 310//104 307//104 
f 181//33 208//33 405//33 400//33 
f 89//105 88//105 307//105 308//105 
f 175//10 181//10 400//10 399//10 
f 86//106 89//106 308//106 306//106 
f 176//107 175//107 399//107 397//107 
f 96//108 86//108 306//108 305//108 
f 177//10 176//10 397//10 398//10 
f 97//109 96//109 305//109 303//109 
f 179//110 177//110 398//110 396//110 
f 99//111 97//111 303//111 304//111 
f 98//112 99//112 304//112 302//112 
f 182//10 183//10 402//10 401//10 
f 100//113 98//113 302//113 301//113 
f 183//114 187//114 403//114 402//114 
f 101//115 100//115 301//115 299//115 
f 187//116 188//116 404//116 403//116 
f 103//117 101//117 299//117 300//117 
f 20//15 21//15 216//15 236//15 
f 188//118 190//118 422//118 404//118 
f 102//119 103//119 300//119 298//119 
f 9//120 20//120 236//120 219//120 
f 190//121 191//121 423//121 422//121 
f 110//122 102//122 298//122 297//122 
f 7//15 9//15 219//15 228//15 
f 191//123 192//123 424//123 423//123 
f 111//124 110//124 297//124 296//124 
f 1//125 7//125 228//125 234//125 
f 192//126 193//126 425//126 424//126 
f 116//127 111//127 296//127 342//127 
f 2//128 1//128 234//128 232//128 
f 193//129 202//129 420//129 425//129 
f 117//130 116//130 342//130 341//130 
f 3//15 2//15 232//15 233//15 
f 202//131 203//131 426//131 420//131 
f 5//20 3//20 233//20 231//20 
f 203//132 204//132 427//132 426//132 
f 109//133 112//133 343//133 326//133 
f 4//10 5//10 231//10 230//10 
f 204//134 205//134 411//134 427//134 
f 112//135 113//135 344//135 343//135 
f 6//136 4//136 230//136 229//136 
f 205//137 213//137 428//137 411//137 
f 113//138 114//138 345//138 344//138 
f 8//139 6//139 229//139 227//139 
f 213//140 214//140 429//140 428//140 
f 114//141 119//141 346//141 345//141 
f 10//142 8//142 227//142 225//142 
f 214//143 215//143 430//143 429//143 
f 119//144 120//144 339//144 346//144 
f 11//145 10//145 225//145 223//145 
f 215//146 182//146 401//146 430//146 
f 120//147 121//147 347//147 339//147 
f 12//15 11//15 223//15 224//15 
f 121//148 122//148 348//148 347//148 
f 14//20 12//20 224//20 222//20 
f 122//149 123//149 349//149 348//149 
f 13//10 14//10 222//10 221//10 
f 123//150 132//150 350//150 349//150 
f 15//151 13//151 221//151 220//151 
f 132//152 133//152 351//152 350//152 
f 16//153 15//153 220//153 226//153 
f 133//154 134//154 352//154 351//154 
f 17//10 16//10 226//10 235//10 
f 134//155 135//155 353//155 352//155 
f 19//156 17//156 235//156 218//156 
f 135//157 136//157 354//157 353//157 
f 18//10 19//10 218//10 217//10 
f 136//158 82//158 313//158 354//158 
f 21//159 18//159 217//159 216//159 
f 82//160 81//160 312//160 313//160 
f 38//15 39//15 237//15 254//15 
f 81//161 84//161 314//161 312//161 
f 30//162 38//162 254//162 240//162 
f 84//163 85//163 315//163 314//163 
f 22//15 30//15 240//15 250//15 
f 85//164 90//164 316//164 315//164 
f 23//165 22//165 250//165 252//165 
f 90//166 91//166 309//166 316//166 
f 24//15 23//15 252//15 251//15 
f 91//167 92//167 317//167 309//167 
f 25//20 24//20 251//20 248//20 
f 92//168 93//168 318//168 317//168 
f 26//10 25//10 248//10 247//10 
f 93//169 94//169 319//169 318//169 
f 27//33 26//33 247//33 246//33 
f 94//170 95//170 320//170 319//170 
f 28//171 27//171 246//171 245//171 
f 95//172 104//172 321//172 320//172 
f 29//33 28//33 245//33 249//33 
f 104//173 105//173 322//173 321//173 
f 31//10 29//10 249//10 244//10 
f 105//174 106//174 323//174 322//174 
f 32//175 31//175 244//175 243//175 
# 391 polygons - 62 triangles

