# 3ds Max Wavefront OBJ Exporter v0.97b - (c)2007 guruware
# File Created: 15.03.2017 10:58:20

mtllib SPW_Urban_Factory_Tank_03.mtl

#
# object SPW_Urban_Factory_Tank_03
#

v  0.1214 296.1179 8.6520
v  0.1214 348.0300 8.6520
v  -4.9641 348.0300 6.9996
v  -4.9641 296.1179 6.9996
v  -8.1072 348.0300 2.6736
v  -8.1072 296.1179 2.6736
v  -8.1072 348.0300 -2.6737
v  -8.1072 296.1179 -2.6737
v  -4.9641 348.0300 -6.9997
v  -4.9641 296.1179 -6.9997
v  0.1214 348.0300 -8.6521
v  0.1214 296.1179 -8.6521
v  5.2070 348.0300 -6.9997
v  5.2070 296.1179 -6.9997
v  8.3500 348.0300 -2.6737
v  8.3500 296.1179 -2.6737
v  8.3500 348.0300 2.6736
v  8.3500 296.1179 2.6736
v  5.2069 348.0300 6.9996
v  0.1214 353.1156 6.9996
v  5.2069 296.1179 6.9996
v  0.1214 356.2586 -2.6737
v  0.1214 353.1156 -6.9997
v  -83.4509 353.1156 -6.9997
v  -83.4509 356.2586 -2.6737
v  0.1214 356.2586 2.6736
v  0.1214 342.9445 -6.9997
v  0.1214 339.8015 -2.6737
v  0.1214 342.9445 6.9996
v  0.1214 339.8015 2.6736
v  -83.4509 342.9445 -6.9997
v  -83.4509 339.8015 -2.6737
v  -75.2223 348.0300 -2.6737
v  -78.3654 348.0300 -6.9997
v  -83.4509 348.0300 8.6520
v  -83.4509 342.9445 6.9996
v  -83.4509 356.2586 2.6736
v  -83.4509 348.0300 -8.6521
v  -83.4509 339.8015 2.6736
v  -83.4509 353.1156 6.9996
v  -78.3654 348.0300 6.9996
v  -83.4509 -0.0206 8.6520
v  -78.3654 -0.0206 6.9996
v  -91.6795 348.0300 -2.6737
v  -91.6795 348.0300 2.6736
v  -75.2223 348.0300 2.6736
v  -88.5364 348.0300 6.9996
v  -88.5365 348.0300 -6.9997
v  -88.5365 -0.0206 6.9996
v  -91.6795 -0.0206 2.6736
v  -91.6795 -0.0206 -2.6736
v  -88.5365 -0.0206 -6.9996
v  -83.4509 -0.0206 -8.6520
v  -78.3654 -0.0206 -6.9996
v  -75.2224 -0.0206 -2.6736
v  -75.2224 -0.0206 2.6736
v  -0.0000 39.5635 70.8661
v  -0.0000 275.9414 70.8661
v  -41.6541 275.9414 57.3319
v  -41.6541 39.5635 57.3319
v  -67.3977 275.9414 21.8988
v  -67.3977 39.5634 21.8988
v  -67.3977 275.9414 -21.8989
v  -67.3977 39.5634 -21.8989
v  -41.6541 275.9414 -57.3320
v  -41.6541 39.5634 -57.3319
v  0.0000 275.9414 -70.8662
v  0.0000 39.5634 -70.8661
v  41.6541 275.9414 -57.3319
v  41.6541 39.5634 -57.3319
v  67.3977 275.9414 -21.8989
v  67.3977 39.5634 -21.8988
v  67.3977 275.9414 21.8988
v  67.3977 39.5634 21.8989
v  41.6540 275.9414 57.3319
v  41.6540 39.5635 57.3319
v  -0.0000 0.0359 70.8661
v  -41.6541 0.0359 57.3319
v  -67.3977 0.0359 21.8988
v  -67.3977 0.0359 -21.8989
v  -41.6541 0.0359 -57.3319
v  0.0000 0.0359 -70.8661
v  41.6541 0.0359 -57.3319
v  67.3977 0.0359 -21.8988
v  67.3977 0.0359 21.8989
v  41.6540 0.0359 57.3319
v  60.6555 293.1855 -19.7082
v  60.6555 293.1855 19.7081
v  37.4872 293.1855 -51.5967
v  0.0000 293.1855 -63.7770
v  -37.4871 293.1855 -51.5967
v  -60.6555 293.1855 -19.7082
v  -0.0000 293.1855 63.7769
v  -37.4872 293.1855 51.5966
v  -60.6555 293.1855 19.7081
v  37.4871 293.1855 51.5966
v  -45.1538 310.4296 -14.6714
v  -27.9066 310.4296 -38.4102
v  -0.0000 310.4296 47.4775
v  -27.9066 310.4296 38.4101
v  45.1538 310.4296 -14.6714
v  45.1538 310.4296 14.6713
v  0.0000 310.4296 -47.4776
v  -45.1538 310.4296 14.6713
v  27.9066 310.4296 38.4101
v  27.9066 310.4296 -38.4102
v  -0.0000 327.6737 7.4319
v  -4.3684 327.6737 6.0125
v  7.0682 327.6737 -2.2966
v  7.0682 327.6737 2.2966
v  -4.3684 327.6737 -6.0126
v  -0.0000 327.6737 -7.4320
v  -7.0682 327.6737 2.2966
v  4.3684 327.6737 6.0125
v  4.3684 327.6737 -6.0126
v  -7.0682 327.6737 -2.2966
# 116 vertices

vn -0.3090 0.0000 0.9511
vn -0.8090 0.0000 0.5878
vn -1.0000 -0.0000 -0.0000
vn -0.8090 -0.0000 -0.5878
vn -0.3090 -0.0000 -0.9511
vn 0.3090 -0.0000 -0.9511
vn 0.8090 -0.0000 -0.5878
vn 1.0000 0.0000 0.0000
vn 0.2952 0.2952 0.9087
vn 0.8090 0.0000 0.5878
vn 0.3090 0.0000 0.9511
vn 0.0000 -1.0000 0.0000
vn 0.0000 0.8090 -0.5878
vn 0.6290 0.6290 0.4570
vn 0.7071 0.7071 0.0000
vn 0.6290 0.6290 -0.4570
vn 0.2952 0.2952 -0.9087
vn 0.7071 0.7071 -0.0000
vn -0.6290 0.6290 0.4570
vn 0.0000 -0.8090 -0.5878
vn -0.0000 -0.3090 0.9511
vn 0.0000 1.0000 -0.0000
vn 0.0000 -0.3090 -0.9511
vn -0.0000 -0.8090 0.5878
vn -0.0000 0.8090 0.5878
vn 0.0000 0.3090 -0.9511
vn -0.0000 0.3090 0.9511
vn -0.2952 0.2952 -0.9087
vn -0.7071 0.7071 -0.0000
vn -0.2952 0.2952 0.9087
vn -0.6290 0.6290 -0.4570
vn -0.0000 -1.0000 0.0000
vn -1.0000 0.0000 -0.0000
vn 1.0000 -0.0000 0.0000
vn 0.9313 0.3641 0.0000
vn 0.7535 0.3641 -0.5474
vn 0.2878 0.3641 -0.8858
vn -0.2878 0.3641 -0.8858
vn -0.7535 0.3641 -0.5474
vn -0.2878 0.3641 0.8858
vn -0.9313 0.3641 -0.0000
vn -0.7535 0.3641 0.5474
vn 0.2878 0.3641 0.8858
vn 0.7535 0.3641 0.5474
vn -0.6017 0.6685 -0.4371
vn -0.2298 0.6685 0.7073
vn 0.7437 0.6685 -0.0000
vn -0.2298 0.6685 -0.7073
vn -0.6017 0.6685 0.4371
vn 0.6017 0.6685 0.4371
vn 0.2298 0.6685 -0.7073
vn -0.7437 0.6685 -0.0000
vn 0.2298 0.6685 0.7073
vn 0.6017 0.6685 -0.4371
vn -0.1275 0.9110 0.3923
vn 0.4125 0.9110 -0.0000
vn -0.1275 0.9110 -0.3923
vn -0.3337 0.9110 0.2424
vn 0.3337 0.9110 0.2424
vn 0.1275 0.9110 -0.3923
vn -0.4125 0.9110 -0.0000
vn 0.1275 0.9110 0.3923
vn 0.3337 0.9110 -0.2424
vn -0.3337 0.9110 -0.2424
# 64 vertex normals

vt 0.4016 0.0109 0.0000
vt 0.4516 0.0109 0.0000
vt 0.4516 0.0609 0.0000
vt 0.4016 0.0609 0.0000
vt 0.4266 0.0609 0.0000
vt 0.4413 0.0561 0.0000
vt 0.4504 0.0436 0.0000
vt 0.4504 0.0282 0.0000
vt 0.4413 0.0157 0.0000
vt 0.4266 0.0109 0.0000
vt 0.4119 0.0157 0.0000
vt 0.4028 0.0282 0.0000
vt 0.4028 0.0436 0.0000
vt 0.4119 0.0561 0.0000
vt 0.2910 0.8276 0.0000
vt 0.3410 0.8276 0.0000
vt 0.3410 0.8776 0.0000
vt 0.2910 0.8776 0.0000
vt 0.5128 0.2158 0.0000
vt 0.5275 0.2110 0.0000
vt 0.5366 0.1985 0.0000
vt 0.5366 0.1831 0.0000
vt 0.5275 0.1706 0.0000
vt 0.5128 0.1658 0.0000
vt 0.4981 0.1706 0.0000
vt 0.4890 0.1831 0.0000
vt 0.4890 0.1985 0.0000
vt 0.4981 0.2110 0.0000
vt 0.3160 0.8776 0.0000
vt 0.3307 0.8728 0.0000
vt 0.3398 0.8603 0.0000
vt 0.3398 0.8449 0.0000
vt 0.3307 0.8324 0.0000
vt 0.3160 0.8276 0.0000
vt 0.3013 0.8324 0.0000
vt 0.2922 0.8449 0.0000
vt 0.2922 0.8603 0.0000
vt 0.3013 0.8728 0.0000
vt 0.4878 0.1658 0.0000
vt 0.5378 0.1658 0.0000
vt 0.5378 0.2158 0.0000
vt 0.4878 0.2158 0.0000
# 42 texture coords

g SPW_Urban_Factory_Tank_03
usemtl SPW_Urban_Factory
s off
f 1/1/1 2/2/1 3/3/1 4/4/1 
f 4/1/2 3/2/2 5/3/2 6/4/2 
f 6/1/3 5/2/3 7/3/3 8/4/3 
f 8/1/4 7/2/4 9/3/4 10/4/4 
f 10/1/5 9/2/5 11/3/5 12/4/5 
f 12/1/6 11/2/6 13/3/6 14/4/6 
f 14/1/7 13/2/7 15/3/7 16/4/7 
f 16/1/8 15/2/8 17/3/8 18/4/8 
f 2/1/9 19/2/9 20/3/9 2/4/9 
f 18/1/10 17/2/10 19/3/10 21/4/10 
f 21/1/11 19/2/11 2/3/11 1/4/11 
f 1/5/12 4/6/12 6/7/12 8/8/12 
f 1/5/12 8/8/12 10/9/12 12/10/12 
f 1/5/12 12/10/12 14/11/12 16/12/12 
f 1/5/12 16/12/12 18/13/12 21/14/12 
f 22/1/13 23/2/13 24/3/13 25/4/13 
f 19/1/14 17/2/14 26/3/14 20/4/14 
f 17/1/15 15/2/15 22/3/15 26/4/15 
f 15/1/16 13/2/16 23/3/16 22/4/16 
f 13/1/17 11/2/17 11/3/17 23/4/17 
f 11/1/9 9/2/9 27/3/9 11/4/9 
f 9/1/14 7/2/14 28/3/14 27/4/14 
f 3/1/17 2/2/17 2/3/17 29/4/17 
f 7/1/18 5/2/18 30/3/18 28/4/18 
f 5/1/16 3/2/16 29/3/16 30/4/16 
f 31/1/19 32/2/19 33/3/19 34/4/19 
f 27/1/20 28/2/20 32/3/20 31/4/20 
f 29/1/21 2/2/21 35/3/21 36/4/21 
f 26/1/22 22/2/22 25/3/22 37/4/22 
f 11/1/23 27/2/23 31/3/23 38/4/23 
f 30/1/24 29/2/24 36/3/24 39/4/24 
f 20/1/25 26/2/25 37/3/25 40/4/25 
f 23/1/26 11/2/26 38/3/26 24/4/26 
f 28/1/12 30/2/12 39/3/12 32/4/12 
f 2/1/27 20/2/27 40/3/27 35/4/27 
f 41/1/11 35/2/11 42/3/11 43/4/11 
f 36/1/28 35/2/28 35/3/28 41/4/28 
f 37/1/29 25/2/29 44/3/29 45/4/29 
f 38/1/30 31/2/30 34/3/30 38/4/30 
f 39/1/31 36/2/31 41/3/31 46/4/31 
f 40/1/19 37/2/19 45/3/19 47/4/19 
f 24/1/28 38/2/28 38/3/28 48/4/28 
f 32/1/29 39/2/29 46/3/29 33/4/29 
f 35/1/30 40/2/30 47/3/30 35/4/30 
f 25/1/31 24/2/31 48/3/31 44/4/31 
f 43/5/32 42/6/32 49/7/32 50/8/32 
f 43/5/12 50/8/12 51/9/12 52/10/12 
f 43/5/12 52/10/12 53/11/12 54/12/12 
f 43/5/12 54/12/12 55/13/12 56/14/12 
f 45/1/33 44/2/33 51/3/33 50/4/33 
f 38/1/6 34/2/6 54/3/6 53/4/6 
f 46/1/10 41/2/10 43/3/10 56/4/10 
f 47/1/2 45/2/2 50/3/2 49/4/2 
f 48/1/5 38/2/5 53/3/5 52/4/5 
f 33/1/34 46/2/34 56/3/34 55/4/34 
f 35/1/1 47/2/1 49/3/1 42/4/1 
f 44/1/4 48/2/4 52/3/4 51/4/4 
f 34/1/7 33/2/7 55/3/7 54/4/7 
s 1
f 57/15/1 58/16/1 59/17/1 60/18/1 
s 2
f 60/15/2 59/16/2 61/17/2 62/18/2 
s 1
f 62/15/3 61/16/3 63/17/3 64/18/3 
s 2
f 64/15/4 63/16/4 65/17/4 66/18/4 
s 1
f 66/15/5 65/16/5 67/17/5 68/18/5 
s 2
f 68/15/6 67/16/6 69/17/6 70/18/6 
s 1
f 70/15/7 69/16/7 71/17/7 72/18/7 
s 2
f 72/15/8 71/16/8 73/17/8 74/18/8 
s 1
f 74/15/10 73/16/10 75/17/10 76/18/10 
s 2
f 76/15/11 75/16/11 58/17/11 57/18/11 
s off
f 77/19/12 78/20/12 79/21/12 80/22/12 
f 77/19/32 80/22/32 81/23/32 82/24/32 
f 77/19/12 82/24/12 83/25/12 84/26/12 
f 77/19/32 84/26/32 85/27/32 86/28/32 
f 73/15/35 71/16/35 87/17/35 88/18/35 
f 71/15/36 69/16/36 89/17/36 87/18/36 
f 69/15/37 67/16/37 90/17/37 89/18/37 
f 67/15/38 65/16/38 91/17/38 90/18/38 
f 65/15/39 63/16/39 92/17/39 91/18/39 
f 59/15/40 58/16/40 93/17/40 94/18/40 
f 63/15/41 61/16/41 95/17/41 92/18/41 
f 61/15/42 59/16/42 94/17/42 95/18/42 
f 58/15/43 75/16/43 96/17/43 93/18/43 
f 75/15/44 73/16/44 88/17/44 96/18/44 
f 91/15/45 92/16/45 97/17/45 98/18/45 
f 94/15/46 93/16/46 99/17/46 100/18/46 
f 88/15/47 87/16/47 101/17/47 102/18/47 
f 90/15/48 91/16/48 98/17/48 103/18/48 
f 95/15/49 94/16/49 100/17/49 104/18/49 
f 96/15/50 88/16/50 102/17/50 105/18/50 
f 89/15/51 90/16/51 103/17/51 106/18/51 
f 92/15/52 95/16/52 104/17/52 97/18/52 
f 93/15/53 96/16/53 105/17/53 99/18/53 
f 87/15/54 89/16/54 106/17/54 101/18/54 
f 100/15/55 99/16/55 107/17/55 108/18/55 
f 102/15/56 101/16/56 109/17/56 110/18/56 
f 103/15/57 98/16/57 111/17/57 112/18/57 
f 104/15/58 100/16/58 108/17/58 113/18/58 
f 105/15/59 102/16/59 110/17/59 114/18/59 
f 106/15/60 103/16/60 112/17/60 115/18/60 
f 97/15/61 104/16/61 113/17/61 116/18/61 
f 99/15/62 105/16/62 114/17/62 107/18/62 
f 101/15/63 106/16/63 115/17/63 109/18/63 
f 98/15/64 97/16/64 116/17/64 111/18/64 
f 108/29/22 107/30/22 114/31/22 110/32/22 
f 108/29/22 110/32/22 109/33/22 115/34/22 
f 108/29/22 115/34/22 112/35/22 111/36/22 
f 108/29/22 111/36/22 116/37/22 113/38/22 
s 2
f 86/39/11 76/40/11 57/41/11 77/42/11 
s 1
f 85/39/10 74/40/10 76/41/10 86/42/10 
s 2
f 84/39/8 72/40/8 74/41/8 85/42/8 
s 1
f 83/39/7 70/40/7 72/41/7 84/42/7 
s 2
f 82/39/6 68/40/6 70/41/6 83/42/6 
s 1
f 81/39/5 66/40/5 68/41/5 82/42/5 
s 2
f 80/39/4 64/40/4 66/41/4 81/42/4 
s 1
f 79/39/3 62/40/3 64/41/3 80/42/3 
s 2
f 78/39/2 60/40/2 62/41/2 79/42/2 
s 1
f 77/39/1 57/40/1 60/41/1 78/42/1 
# 116 polygons

