# 3ds Max Wavefront OBJ Exporter v0.97b - (c)2007 guruware
# File Created: 15.03.2017 10:57:42

mtllib SPW_Urban_Factory_Tank_01.mtl

#
# object SPW_Urban_Factory_Tank_01
#

v  -0.0000 39.3701 196.8504
v  -0.0000 196.8504 196.8504
v  -75.3314 196.8504 181.8660
v  -75.3314 39.3701 181.8660
v  -139.1943 196.8504 139.1942
v  -139.1943 39.3701 139.1942
v  -181.8661 196.8504 75.3313
v  -181.8661 39.3701 75.3313
v  -196.8504 196.8504 -0.0001
v  -196.8504 39.3701 -0.0000
v  -181.8660 196.8504 -75.3315
v  -181.8660 39.3701 -75.3314
v  -139.1942 196.8504 -139.1943
v  -139.1942 39.3701 -139.1943
v  -75.3314 196.8504 -181.8661
v  -75.3314 39.3700 -181.8661
v  -0.0000 196.8504 -196.8504
v  -0.0000 39.3700 -196.8504
v  75.3314 196.8504 -181.8661
v  75.3314 39.3700 -181.8661
v  139.1942 196.8504 -139.1943
v  139.1942 39.3701 -139.1943
v  181.8661 196.8504 -75.3314
v  181.8661 39.3701 -75.3314
v  196.8504 196.8504 0.0000
v  196.8504 39.3701 0.0000
v  181.8660 196.8504 75.3314
v  181.8660 39.3701 75.3314
v  139.1942 196.8504 139.1943
v  139.1942 39.3701 139.1943
v  -130.5022 196.8504 130.5021
v  -170.5093 196.8504 70.6272
v  75.3313 196.8504 181.8661
v  75.3313 39.3701 181.8661
v  -0.0000 0.0000 196.8504
v  -75.3314 0.0000 181.8660
v  -139.1943 0.0000 139.1942
v  -181.8661 0.0000 75.3314
v  -196.8504 -0.0000 -0.0000
v  -181.8660 -0.0000 -75.3314
v  -139.1942 -0.0000 -139.1943
v  -75.3314 -0.0000 -181.8661
v  -0.0000 -0.0000 -196.8504
v  75.3314 -0.0000 -181.8660
v  139.1942 -0.0000 -139.1943
v  181.8661 -0.0000 -75.3314
v  196.8504 0.0000 0.0000
v  181.8660 0.0000 75.3315
v  139.1942 0.0000 139.1943
v  75.3313 0.0000 181.8661
v  170.5093 196.8504 70.6273
v  184.5579 196.8504 0.0000
v  184.5579 204.7244 -0.0000
v  170.5093 204.7244 70.6273
v  -70.6273 196.8504 -170.5094
v  -0.0000 196.8504 -184.5580
v  -0.0000 196.8504 184.5579
v  -70.6273 196.8504 170.5092
v  -170.5093 196.8504 -70.6273
v  -130.5022 196.8504 -130.5022
v  130.5022 196.8504 -130.5022
v  170.5093 196.8504 -70.6273
v  70.6272 196.8504 170.5093
v  -184.5580 196.8504 -0.0001
v  70.6273 196.8504 -170.5094
v  130.5021 196.8504 130.5022
v  -170.5093 204.7244 70.6272
v  -130.5022 204.7244 130.5021
v  -121.1460 204.7244 121.1459
v  -158.2848 204.7244 65.5637
v  -170.5093 204.7244 -70.6273
v  -130.5022 204.7244 -130.5022
v  130.5021 204.7244 130.5022
v  -70.6273 204.7244 -170.5094
v  70.6272 204.7244 170.5093
v  -0.0000 204.7244 -184.5580
v  -0.0000 204.7244 184.5579
v  -70.6273 204.7244 170.5092
v  70.6273 204.7244 -170.5094
v  130.5022 204.7244 -130.5022
v  170.5093 204.7244 -70.6273
v  -184.5580 204.7244 -0.0001
v  -0.0000 204.7244 -171.3263
v  -65.5637 204.7244 -158.2849
v  -65.5637 200.7874 -158.2849
v  -0.0000 200.7874 -171.3263
v  121.1459 204.7244 -121.1460
v  158.2848 204.7244 -65.5637
v  -171.3262 204.7244 -0.0001
v  171.3262 204.7244 -0.0000
v  -158.2848 204.7244 -65.5638
v  158.2848 204.7244 65.5637
v  -121.1459 204.7244 -121.1460
v  121.1459 204.7244 121.1460
v  65.5636 204.7244 158.2848
v  -0.0000 204.7244 171.3262
v  -65.5638 204.7244 158.2847
v  65.5637 204.7244 -158.2849
v  -65.5638 200.7874 158.2847
v  -0.0000 200.7874 171.3262
v  65.5636 200.7874 158.2848
v  121.1459 200.7874 121.1460
v  158.2848 200.7874 65.5637
v  171.3262 200.7874 -0.0000
v  158.2848 200.7874 -65.5637
v  121.1459 200.7874 -121.1460
v  65.5637 200.7874 -158.2849
v  -121.1459 200.7874 -121.1460
v  -158.2848 200.7874 -65.5638
v  -171.3262 200.7874 -0.0001
v  -158.2848 200.7874 65.5637
v  -121.1460 200.7874 121.1459
v  -0.0000 232.0290 182.0607
v  -0.0000 235.9660 182.0607
v  -69.6716 235.9660 168.2021
v  -69.6716 232.0290 168.2021
v  -168.2021 232.0289 69.6715
v  -182.0607 232.0289 -0.0001
v  -178.7373 232.0289 -0.0001
v  -165.1317 232.0289 68.3997
v  -128.7364 232.0290 128.7363
v  -126.3864 232.0290 126.3863
v  -68.3998 232.0290 165.1317
v  -0.0000 232.0290 178.7372
v  69.6715 232.0290 168.2022
v  68.3997 232.0290 165.1317
v  128.7363 232.0290 128.7364
v  126.3863 232.0290 126.3863
v  168.2021 232.0289 69.6716
v  165.1317 232.0289 68.3998
v  182.0607 232.0289 -0.0000
v  178.7373 232.0289 -0.0000
v  -165.1317 232.0289 -68.3999
v  -168.2021 232.0289 -69.6717
v  -126.3863 232.0289 -126.3864
v  -128.7363 232.0289 -128.7364
v  -68.3998 232.0289 -165.1317
v  -69.6716 232.0289 -168.2022
v  0.0000 232.0289 -178.7373
v  -0.0000 232.0289 -182.0607
v  168.2021 232.0289 -69.6716
v  165.1317 232.0289 -68.3998
v  128.7363 232.0289 -128.7364
v  126.3863 232.0289 -126.3864
v  69.6716 232.0289 -168.2022
v  68.3998 232.0289 -165.1317
v  69.6715 235.9660 168.2022
v  -0.0000 235.9660 178.7372
v  -68.3998 235.9660 165.1317
v  -128.7364 235.9660 128.7363
v  -126.3864 235.9660 126.3863
v  -168.2021 235.9660 69.6715
v  -165.1317 235.9660 68.3997
v  -182.0607 235.9659 -0.0001
v  -178.7373 235.9659 -0.0001
v  -168.2021 235.9659 -69.6717
v  -165.1317 235.9659 -68.3999
v  -128.7363 235.9659 -128.7364
v  -126.3863 235.9659 -126.3864
v  -69.6716 235.9659 -168.2022
v  -68.3998 235.9659 -165.1317
v  -0.0000 235.9659 -182.0607
v  0.0000 235.9659 -178.7373
v  68.3997 235.9660 165.1317
v  126.3863 235.9660 126.3863
v  128.7363 235.9660 128.7364
v  165.1317 235.9660 68.3998
v  168.2021 235.9660 69.6716
v  178.7373 235.9659 -0.0000
v  182.0607 235.9659 -0.0000
v  165.1317 235.9659 -68.3998
v  168.2021 235.9659 -69.6716
v  126.3863 235.9659 -126.3864
v  128.7363 235.9659 -128.7364
v  68.3998 235.9659 -165.1317
v  69.6716 235.9659 -168.2022
v  1.5122 233.4823 -181.7403
v  1.5122 233.4823 -178.7159
v  1.5122 181.8775 -178.7159
v  1.5122 181.8775 -181.7403
v  -1.5122 233.4823 -178.7159
v  -1.5122 181.8775 -178.7159
v  -1.5122 233.4823 -181.7403
v  -1.5122 181.8775 -181.7403
v  129.5791 233.4823 -127.4405
v  127.4405 233.4823 -125.3019
v  127.4405 181.8775 -125.3019
v  129.5791 181.8775 -127.4405
v  125.3019 233.4823 -127.4405
v  125.3019 181.8775 -127.4405
v  127.4405 233.4823 -129.5791
v  127.4405 181.8775 -129.5791
v  181.7402 233.4823 1.5122
v  178.7158 233.4823 1.5122
v  178.7158 181.8775 1.5122
v  181.7402 181.8775 1.5122
v  178.7158 233.4823 -1.5122
v  178.7158 181.8775 -1.5122
v  181.7402 233.4823 -1.5122
v  181.7402 181.8775 -1.5122
v  127.4404 233.4823 129.5791
v  125.3018 233.4823 127.4405
v  125.3018 181.8775 127.4405
v  127.4404 181.8775 129.5791
v  127.4404 233.4823 125.3019
v  127.4404 181.8775 125.3019
v  129.5790 233.4823 127.4405
v  129.5790 181.8775 127.4405
v  -1.5123 233.4823 181.7402
v  -1.5123 233.4823 178.7158
v  -1.5123 181.8775 178.7158
v  -1.5123 181.8775 181.7402
v  1.5121 233.4823 178.7158
v  1.5121 181.8775 178.7158
v  1.5121 233.4823 181.7402
v  1.5121 181.8775 181.7402
v  -129.5792 233.4823 127.4403
v  -127.4406 233.4823 125.3017
v  -127.4406 181.8775 125.3017
v  -129.5792 181.8775 127.4403
v  -125.3020 233.4823 127.4403
v  -125.3020 181.8775 127.4403
v  -127.4406 233.4823 129.5789
v  -127.4406 181.8775 129.5789
v  -181.7402 233.4823 -1.5124
v  -178.7158 233.4823 -1.5124
v  -178.7158 181.8775 -1.5124
v  -181.7402 181.8775 -1.5124
v  -178.7158 233.4823 1.5120
v  -178.7158 181.8775 1.5120
v  -181.7402 233.4823 1.5120
v  -181.7402 181.8775 1.5120
v  -127.4403 233.4823 -129.5793
v  -125.3017 233.4823 -127.4407
v  -125.3017 181.8775 -127.4407
v  -127.4403 181.8775 -129.5793
v  -127.4403 233.4823 -125.3021
v  -127.4403 181.8775 -125.3021
v  -129.5789 233.4823 -127.4407
v  -129.5789 181.8775 -127.4407
v  -68.1516 233.4823 -168.4850
v  -66.9942 233.4823 -165.6908
v  -66.9942 181.8775 -165.6908
v  -68.1516 181.8775 -168.4850
v  -69.7884 233.4823 -164.5334
v  -69.7884 181.8775 -164.5334
v  -70.9458 233.4823 -167.3276
v  -70.9458 181.8775 -167.3276
v  -167.3273 233.4823 -70.9463
v  -164.5331 233.4823 -69.7889
v  -164.5331 181.8775 -69.7889
v  -167.3273 181.8775 -70.9463
v  -165.6905 233.4823 -66.9947
v  -165.6905 181.8775 -66.9947
v  -168.4847 233.4823 -68.1521
v  -168.4847 181.8775 -68.1521
v  -168.4849 233.4823 68.1517
v  -165.6907 233.4823 66.9943
v  -165.6907 181.8775 66.9943
v  -168.4849 181.8775 68.1517
v  -164.5333 233.4823 69.7885
v  -164.5333 181.8775 69.7885
v  -167.3275 233.4823 70.9459
v  -167.3275 181.8775 70.9459
v  -70.9462 233.4823 167.3273
v  -69.7888 233.4823 164.5331
v  -69.7888 181.8775 164.5331
v  -70.9462 181.8775 167.3273
v  -66.9946 233.4823 165.6905
v  -66.9946 181.8775 165.6905
v  -68.1520 233.4823 168.4847
v  -68.1520 181.8775 168.4847
v  68.1518 233.4823 168.4848
v  66.9944 233.4823 165.6906
v  66.9944 181.8775 165.6906
v  68.1518 181.8775 168.4848
v  69.7886 233.4823 164.5332
v  69.7886 181.8775 164.5332
v  70.9460 233.4823 167.3274
v  70.9460 181.8775 167.3274
v  167.3274 233.4823 70.9461
v  164.5332 233.4823 69.7887
v  164.5332 181.8775 69.7887
v  167.3274 181.8775 70.9461
v  165.6906 233.4823 66.9945
v  165.6906 181.8775 66.9945
v  168.4848 233.4823 68.1519
v  168.4848 181.8775 68.1519
v  168.4848 233.4823 -68.1519
v  165.6906 233.4823 -66.9945
v  165.6906 181.8775 -66.9945
v  168.4848 181.8775 -68.1519
v  164.5332 233.4823 -69.7887
v  164.5332 181.8775 -69.7887
v  167.3274 233.4823 -70.9461
v  167.3274 181.8775 -70.9461
v  70.9461 233.4823 -167.3274
v  69.7887 233.4823 -164.5332
v  69.7887 181.8775 -164.5332
v  70.9461 181.8775 -167.3274
v  66.9945 233.4823 -165.6906
v  66.9945 181.8775 -165.6906
v  68.1519 233.4823 -168.4848
v  68.1519 181.8775 -168.4848
# 304 vertices

vn -0.1951 0.0000 0.9808
vn -0.5556 0.0000 0.8315
vn -0.8315 0.0000 0.5556
vn -0.9808 0.0000 0.1951
vn -0.9808 -0.0000 -0.1951
vn -0.8315 -0.0000 -0.5556
vn -0.5556 -0.0000 -0.8315
vn -0.1951 -0.0000 -0.9808
vn 0.1951 -0.0000 -0.9808
vn 0.5556 -0.0000 -0.8315
vn 0.8315 -0.0000 -0.5556
vn 0.9808 -0.0000 -0.1951
vn 0.9808 0.0000 0.1951
vn 0.8315 0.0000 0.5556
vn 0.0000 1.0000 -0.0000
vn 0.5556 0.0000 0.8315
vn 0.1951 0.0000 0.9808
vn 0.0000 -1.0000 0.0000
vn 0.9808 0.0000 -0.1951
vn 0.9808 -0.0000 0.1951
vn 1.0000 -0.0000 0.0000
vn 0.0000 -0.0000 1.0000
vn -1.0000 0.0000 -0.0000
vn 0.0000 0.0000 -1.0000
vn 0.7071 0.0000 0.7071
vn -0.7071 0.0000 0.7071
vn -0.7071 -0.0000 -0.7071
vn 0.7071 -0.0000 -0.7071
vn -0.0000 0.0000 1.0000
vn 0.0000 -0.0000 -1.0000
vn 1.0000 0.0000 -0.0000
vn 0.9239 0.0000 -0.3827
vn 0.3827 -0.0000 0.9239
vn -0.9239 -0.0000 0.3827
vn -0.3827 0.0000 -0.9239
vn 0.3827 -0.0000 -0.9239
vn 0.9239 0.0000 0.3827
vn -0.3827 0.0000 0.9239
vn -0.9239 -0.0000 -0.3827
vn -0.3827 -0.0000 -0.9239
vn 0.9239 -0.0000 -0.3827
vn 0.3827 0.0000 0.9239
vn -0.9239 0.0000 0.3827
vn -0.9239 0.0000 -0.3827
vn 0.3827 0.0000 -0.9239
vn 0.9239 -0.0000 0.3827
vn -0.3827 -0.0000 0.9239
# 47 vertex normals

vt 0.3263 0.8154 0.0000
vt 0.3513 0.8154 0.0000
vt 0.3513 0.8654 0.0000
vt 0.3263 0.8654 0.0000
vt 0.3013 0.8154 0.0000
vt 0.3013 0.8654 0.0000
vt 0.5205 0.2215 0.0000
vt 0.5301 0.2196 0.0000
vt 0.5382 0.2142 0.0000
vt 0.5436 0.2061 0.0000
vt 0.5455 0.1965 0.0000
vt 0.5436 0.1869 0.0000
vt 0.5382 0.1788 0.0000
vt 0.5301 0.1734 0.0000
vt 0.5205 0.1715 0.0000
vt 0.5109 0.1734 0.0000
vt 0.5028 0.1788 0.0000
vt 0.4974 0.1869 0.0000
vt 0.4955 0.1965 0.0000
vt 0.4974 0.2061 0.0000
vt 0.5028 0.2142 0.0000
vt 0.5109 0.2196 0.0000
vt 0.4955 0.1690 0.0000
vt 0.5455 0.1690 0.0000
vt 0.5455 0.2190 0.0000
vt 0.4955 0.2190 0.0000
vt 0.4248 0.2174 0.0000
vt 0.4344 0.2155 0.0000
vt 0.4425 0.2101 0.0000
vt 0.4479 0.2020 0.0000
vt 0.4498 0.1924 0.0000
vt 0.4479 0.1828 0.0000
vt 0.4425 0.1747 0.0000
vt 0.4344 0.1693 0.0000
vt 0.4248 0.1674 0.0000
vt 0.4153 0.1693 0.0000
vt 0.4072 0.1747 0.0000
vt 0.4018 0.1828 0.0000
vt 0.3998 0.1924 0.0000
vt 0.4018 0.2020 0.0000
vt 0.4072 0.2101 0.0000
vt 0.4153 0.2155 0.0000
vt 0.4955 0.1715 0.0000
vt 0.4955 0.2215 0.0000
vt 0.3983 0.1709 0.0000
vt 0.4483 0.1709 0.0000
vt 0.4483 0.2209 0.0000
vt 0.3983 0.2209 0.0000
vt 0.4319 0.1724 0.0000
vt 0.4233 0.1709 0.0000
vt 0.4148 0.1724 0.0000
vt 0.4073 0.1768 0.0000
vt 0.4394 0.1768 0.0000
vt 0.4017 0.1834 0.0000
vt 0.4450 0.1834 0.0000
vt 0.3987 0.1916 0.0000
vt 0.4480 0.1916 0.0000
vt 0.3987 0.2003 0.0000
vt 0.4480 0.2003 0.0000
vt 0.4017 0.2084 0.0000
vt 0.4450 0.2084 0.0000
vt 0.4073 0.2151 0.0000
vt 0.4394 0.2151 0.0000
vt 0.4148 0.2194 0.0000
vt 0.4319 0.2194 0.0000
vt 0.4233 0.2209 0.0000
# 66 texture coords

g SPW_Urban_Factory_Tank_01
usemtl SPW_Urban_Factory
s 1
f 1/1/1 2/2/1 3/3/1 4/4/1 
s 2
f 4/1/2 3/2/2 5/3/2 6/4/2 
s 1
f 6/1/3 5/2/3 7/3/3 8/4/3 
s 2
f 8/1/4 7/2/4 9/3/4 10/4/4 
s 1
f 10/1/5 9/2/5 11/3/5 12/4/5 
s 2
f 12/1/6 11/2/6 13/3/6 14/4/6 
s 1
f 14/1/7 13/2/7 15/3/7 16/4/7 
s 2
f 16/1/8 15/2/8 17/3/8 18/4/8 
s 1
f 18/1/9 17/2/9 19/3/9 20/4/9 
s 2
f 20/1/10 19/2/10 21/3/10 22/4/10 
s 1
f 22/1/11 21/2/11 23/3/11 24/4/11 
s 2
f 24/1/12 23/2/12 25/3/12 26/4/12 
s 1
f 26/1/13 25/2/13 27/3/13 28/4/13 
s 2
f 28/1/14 27/2/14 29/3/14 30/4/14 
s 4
f 7/5/15 5/2/15 31/3/15 32/6/15 
s 1
f 30/1/16 29/2/16 33/3/16 34/4/16 
s 2
f 34/1/17 33/2/17 2/3/17 1/4/17 
s off
f 35/7/18 36/8/18 37/9/18 38/10/18 
f 35/7/18 38/10/18 39/11/18 40/12/18 
f 35/7/18 40/12/18 41/13/18 42/14/18 
f 35/7/18 42/14/18 43/15/18 44/16/18 
f 35/7/18 44/16/18 45/17/18 46/18/18 
f 35/7/18 46/18/18 47/19/18 48/20/18 
f 35/7/18 48/20/18 49/21/18 50/22/18 
f 51/23/13 52/24/13 53/25/13 54/26/13 
s 4
f 17/5/15 15/2/15 55/3/15 56/6/15 
s off
f 3/5/15 2/2/15 57/3/15 58/6/15 
s 4
f 27/5/15 25/2/15 52/3/15 51/6/15 
f 13/5/15 11/2/15 59/3/15 60/6/15 
f 23/5/15 21/2/15 61/3/15 62/6/15 
s off
f 2/5/15 33/2/15 63/3/15 57/6/15 
s 4
f 9/5/15 7/2/15 32/3/15 64/6/15 
f 19/5/15 17/2/15 56/3/15 65/6/15 
f 29/5/15 27/2/15 51/3/15 66/6/15 
s off
f 5/5/15 3/2/15 58/3/15 31/6/15 
f 15/5/15 13/2/15 60/3/15 55/6/15 
s 4
f 25/5/15 23/2/15 62/3/15 52/6/15 
f 11/5/15 9/2/15 64/3/15 59/6/15 
f 21/5/15 19/2/15 65/3/15 61/6/15 
f 33/5/15 29/2/15 66/3/15 63/6/15 
s 1
f 67/23/15 68/24/15 69/25/15 70/26/15 
s off
f 60/23/6 59/24/6 71/25/6 72/26/6 
f 66/23/14 51/24/14 54/25/14 73/26/14 
f 55/23/7 60/24/7 72/25/7 74/26/7 
f 63/23/16 66/24/16 73/25/16 75/26/16 
f 56/23/8 55/24/8 74/25/8 76/26/8 
f 58/23/1 57/24/1 77/25/1 78/26/1 
f 57/23/17 63/24/17 75/25/17 77/26/17 
f 65/23/9 56/24/9 76/25/9 79/26/9 
f 31/23/2 58/24/2 78/25/2 68/26/2 
f 61/23/10 65/24/10 79/25/10 80/26/10 
f 32/23/3 31/24/3 68/25/3 67/26/3 
f 62/23/11 61/24/11 80/25/11 81/26/11 
f 64/23/4 32/24/4 67/25/4 82/26/4 
f 52/23/12 62/24/12 81/25/12 53/26/12 
f 59/23/5 64/24/5 82/25/5 71/26/5 
f 83/23/17 84/24/17 85/25/17 86/26/17 
s 1
f 81/23/15 80/24/15 87/25/15 88/26/15 
f 82/23/15 67/24/15 70/25/15 89/26/15 
f 53/23/15 81/24/15 88/25/15 90/26/15 
f 71/23/15 82/24/15 89/25/15 91/26/15 
f 54/23/15 53/24/15 90/25/15 92/26/15 
s 2
f 72/23/15 71/24/15 91/25/15 93/26/15 
s 1
f 73/23/15 54/24/15 92/25/15 94/26/15 
s 2
f 74/23/15 72/24/15 93/25/15 84/26/15 
s 1
f 75/23/15 73/24/15 94/25/15 95/26/15 
s off
f 76/23/15 74/24/15 84/25/15 83/26/15 
s 1
f 78/23/15 77/24/15 96/25/15 97/26/15 
f 77/23/15 75/24/15 95/25/15 96/26/15 
f 79/23/15 76/24/15 83/25/15 98/26/15 
f 68/23/15 78/24/15 97/25/15 69/26/15 
f 80/23/15 79/24/15 98/25/15 87/26/15 
s off
f 99/27/15 100/28/15 101/29/15 102/30/15 
f 99/27/15 102/30/15 103/31/15 104/32/15 
f 99/27/15 104/32/15 105/33/15 106/34/15 
f 99/27/15 106/34/15 107/35/15 86/36/15 
f 99/27/15 86/36/15 85/37/15 108/38/15 
f 99/27/15 108/38/15 109/39/15 110/40/15 
f 99/27/15 110/40/15 111/41/15 112/42/15 
f 97/23/9 96/24/9 100/25/9 99/26/9 
f 96/23/8 95/24/8 101/25/8 100/26/8 
f 98/23/1 83/24/1 86/25/1 107/26/1 
f 69/23/10 97/24/10 99/25/10 112/26/10 
f 87/23/2 98/24/2 107/25/2 106/26/2 
f 70/23/11 69/24/11 112/25/11 111/26/11 
f 88/23/3 87/24/3 106/25/3 105/26/3 
f 89/23/12 70/24/12 111/25/12 110/26/12 
f 90/23/4 88/24/4 105/25/4 104/26/4 
f 91/23/13 89/24/13 110/25/13 109/26/13 
f 92/23/5 90/24/5 104/25/5 103/26/5 
f 93/23/14 91/24/14 109/25/14 108/26/14 
f 94/23/6 92/24/6 103/25/6 102/26/6 
f 84/23/16 93/24/16 108/25/16 85/26/16 
f 95/23/7 94/24/7 102/25/7 101/26/7 
s 2
f 50/43/17 34/15/17 1/7/17 35/44/17 
s 1
f 49/43/16 30/15/16 34/7/16 50/44/16 
s 2
f 48/43/14 28/15/14 30/7/14 49/44/14 
s 1
f 47/43/13 26/15/13 28/7/13 48/44/13 
s 2
f 46/43/12 24/15/12 26/7/12 47/44/12 
s 1
f 45/43/11 22/15/11 24/7/11 46/44/11 
s 2
f 44/43/10 20/15/10 22/7/10 45/44/10 
s 1
f 43/43/9 18/15/9 20/7/9 44/44/9 
s 2
f 42/43/8 16/15/8 18/7/8 43/44/8 
s 1
f 41/43/7 14/15/7 16/7/7 42/44/7 
s 2
f 40/43/6 12/15/6 14/7/6 41/44/6 
s 1
f 39/43/5 10/15/5 12/7/5 40/44/5 
s 2
f 38/43/4 8/15/4 10/7/4 39/44/4 
s 1
f 37/43/3 6/15/3 8/7/3 38/44/3 
s 2
f 36/43/2 4/15/2 6/7/2 37/44/2 
s 1
f 35/43/1 1/15/1 4/7/1 36/44/1 
s off
f 113/45/1 114/46/1 115/47/1 116/48/1 
f 117/49/18 118/50/18 119/51/18 120/52/18 
f 121/53/18 117/49/18 120/52/18 122/54/18 
f 116/55/18 121/53/18 122/54/18 123/56/18 
f 113/57/18 116/55/18 123/56/18 124/58/18 
f 125/59/18 113/57/18 124/58/18 126/60/18 
f 127/61/18 125/59/18 126/60/18 128/62/18 
f 129/63/18 127/61/18 128/62/18 130/64/18 
f 131/65/18 129/63/18 130/64/18 132/66/18 
f 133/61/18 119/59/18 118/57/18 134/55/18 
f 135/63/18 133/61/18 134/55/18 136/53/18 
f 137/65/18 135/63/18 136/53/18 138/49/18 
f 139/66/18 137/65/18 138/49/18 140/50/18 
f 141/54/18 131/56/18 132/58/18 142/60/18 
f 143/52/18 141/54/18 142/60/18 144/62/18 
f 145/51/18 143/52/18 144/62/18 146/64/18 
f 140/50/18 145/51/18 146/64/18 139/66/18 
f 125/45/17 147/46/17 114/47/17 113/48/17 
f 115/49/15 114/50/15 148/51/15 149/52/15 
f 150/53/15 115/49/15 149/52/15 151/54/15 
f 152/55/15 150/53/15 151/54/15 153/56/15 
f 154/57/15 152/55/15 153/56/15 155/58/15 
f 156/59/15 154/57/15 155/58/15 157/60/15 
f 158/61/15 156/59/15 157/60/15 159/62/15 
f 160/63/15 158/61/15 159/62/15 161/64/15 
f 162/65/15 160/63/15 161/64/15 163/66/15 
f 164/53/15 148/49/15 114/50/15 147/51/15 
f 165/55/15 164/53/15 147/51/15 166/52/15 
f 167/57/15 165/55/15 166/52/15 168/54/15 
f 169/59/15 167/57/15 168/54/15 170/56/15 
f 171/61/15 169/59/15 170/56/15 172/58/15 
f 173/63/15 171/61/15 172/58/15 174/60/15 
f 175/65/15 173/63/15 174/60/15 176/62/15 
f 163/66/15 175/65/15 176/62/15 162/64/15 
f 116/45/2 115/46/2 150/47/2 121/48/2 
f 121/45/3 150/46/3 152/47/3 117/48/3 
f 117/45/4 152/46/4 154/47/4 118/48/4 
f 118/45/5 154/46/5 156/47/5 134/48/5 
f 134/45/6 156/46/6 158/47/6 136/48/6 
f 136/45/7 158/46/7 160/47/7 138/48/7 
f 138/45/8 160/46/8 162/47/8 140/48/8 
f 140/45/9 162/46/9 176/47/9 145/48/9 
f 145/45/10 176/46/10 174/47/10 143/48/10 
f 143/45/11 174/46/11 172/47/11 141/48/11 
f 141/45/12 172/46/12 170/47/12 131/48/12 
f 131/45/13 170/46/13 168/47/13 129/48/13 
f 129/45/14 168/46/14 166/47/14 127/48/14 
f 127/45/16 166/46/16 147/47/16 125/48/16 
f 124/45/9 123/46/9 149/47/9 148/48/9 
f 126/45/8 124/46/8 148/47/8 164/48/8 
f 123/45/10 122/46/10 151/47/10 149/48/10 
f 128/45/7 126/46/7 164/47/7 165/48/7 
f 122/45/11 120/46/11 153/47/11 151/48/11 
f 130/45/6 128/46/6 165/47/6 167/48/6 
f 120/45/19 119/46/19 155/47/19 153/48/19 
f 132/45/5 130/46/5 167/47/5 169/48/5 
f 119/45/20 133/46/20 157/47/20 155/48/20 
f 142/45/4 132/46/4 169/47/4 171/48/4 
f 133/45/14 135/46/14 159/47/14 157/48/14 
f 144/45/3 142/46/3 171/47/3 173/48/3 
f 135/45/16 137/46/16 161/47/16 159/48/16 
f 146/45/2 144/46/2 173/47/2 175/48/2 
f 137/45/17 139/46/17 163/47/17 161/48/17 
f 139/45/1 146/46/1 175/47/1 163/48/1 
f 177/45/21 178/46/21 179/47/21 180/48/21 
f 178/45/22 181/46/22 182/47/22 179/48/22 
f 181/45/23 183/46/23 184/47/23 182/48/23 
f 183/45/24 177/46/24 180/47/24 184/48/24 
f 180/45/18 179/46/18 182/47/18 184/48/18 
f 183/45/15 181/46/15 178/47/15 177/48/15 
f 185/45/25 186/46/25 187/47/25 188/48/25 
f 186/45/26 189/46/26 190/47/26 187/48/26 
f 189/45/27 191/46/27 192/47/27 190/48/27 
f 191/45/28 185/46/28 188/47/28 192/48/28 
f 188/45/18 187/46/18 190/47/18 192/48/18 
f 191/45/15 189/46/15 186/47/15 185/48/15 
f 193/45/29 194/46/29 195/47/29 196/48/29 
f 194/45/23 197/46/23 198/47/23 195/48/23 
f 197/45/30 199/46/30 200/47/30 198/48/30 
f 199/45/31 193/46/31 196/47/31 200/48/31 
f 196/45/18 195/46/18 198/47/18 200/48/18 
f 199/45/15 197/46/15 194/47/15 193/48/15 
f 201/45/26 202/46/26 203/47/26 204/48/26 
f 202/45/27 205/46/27 206/47/27 203/48/27 
f 205/45/28 207/46/28 208/47/28 206/48/28 
f 207/45/25 201/46/25 204/47/25 208/48/25 
f 204/45/18 203/46/18 206/47/18 208/48/18 
f 207/45/15 205/46/15 202/47/15 201/48/15 
f 209/45/23 210/46/23 211/47/23 212/48/23 
f 210/45/24 213/46/24 214/47/24 211/48/24 
f 213/45/21 215/46/21 216/47/21 214/48/21 
f 215/45/22 209/46/22 212/47/22 216/48/22 
f 212/45/18 211/46/18 214/47/18 216/48/18 
f 215/45/15 213/46/15 210/47/15 209/48/15 
f 217/45/27 218/46/27 219/47/27 220/48/27 
f 218/45/28 221/46/28 222/47/28 219/48/28 
f 221/45/25 223/46/25 224/47/25 222/48/25 
f 223/45/26 217/46/26 220/47/26 224/48/26 
f 220/45/18 219/46/18 222/47/18 224/48/18 
f 223/45/15 221/46/15 218/47/15 217/48/15 
f 225/45/30 226/46/30 227/47/30 228/48/30 
f 226/45/31 229/46/31 230/47/31 227/48/31 
f 229/45/29 231/46/29 232/47/29 230/48/29 
f 231/45/23 225/46/23 228/47/23 232/48/23 
f 228/45/18 227/46/18 230/47/18 232/48/18 
f 231/45/15 229/46/15 226/47/15 225/48/15 
f 233/45/28 234/46/28 235/47/28 236/48/28 
f 234/45/25 237/46/25 238/47/25 235/48/25 
f 237/45/26 239/46/26 240/47/26 238/48/26 
f 239/45/27 233/46/27 236/47/27 240/48/27 
f 236/45/18 235/46/18 238/47/18 240/48/18 
f 239/45/15 237/46/15 234/47/15 233/48/15 
f 241/45/32 242/46/32 243/47/32 244/48/32 
f 242/45/33 245/46/33 246/47/33 243/48/33 
f 245/45/34 247/46/34 248/47/34 246/48/34 
f 247/45/35 241/46/35 244/47/35 248/48/35 
f 244/45/18 243/46/18 246/47/18 248/48/18 
f 247/45/15 245/46/15 242/47/15 241/48/15 
f 249/45/36 250/46/36 251/47/36 252/48/36 
f 250/45/37 253/46/37 254/47/37 251/48/37 
f 253/45/38 255/46/38 256/47/38 254/48/38 
f 255/45/39 249/46/39 252/47/39 256/48/39 
f 252/45/18 251/46/18 254/47/18 256/48/18 
f 255/45/15 253/46/15 250/47/15 249/48/15 
f 257/45/40 258/46/40 259/47/40 260/48/40 
f 258/45/41 261/46/41 262/47/41 259/48/41 
f 261/45/42 263/46/42 264/47/42 262/48/42 
f 263/45/43 257/46/43 260/47/43 264/48/43 
f 260/45/18 259/46/18 262/47/18 264/48/18 
f 263/45/15 261/46/15 258/47/15 257/48/15 
f 265/45/44 266/46/44 267/47/44 268/48/44 
f 266/45/45 269/46/45 270/47/45 267/48/45 
f 269/45/46 271/46/46 272/47/46 270/48/46 
f 271/45/47 265/46/47 268/47/47 272/48/47 
f 268/45/18 267/46/18 270/47/18 272/48/18 
f 271/45/15 269/46/15 266/47/15 265/48/15 
f 273/45/34 274/46/34 275/47/34 276/48/34 
f 274/45/35 277/46/35 278/47/35 275/48/35 
f 277/45/32 279/46/32 280/47/32 278/48/32 
f 279/45/33 273/46/33 276/47/33 280/48/33 
f 276/45/18 275/46/18 278/47/18 280/48/18 
f 279/45/15 277/46/15 274/47/15 273/48/15 
f 281/45/38 282/46/38 283/47/38 284/48/38 
f 282/45/39 285/46/39 286/47/39 283/48/39 
f 285/45/36 287/46/36 288/47/36 286/48/36 
f 287/45/37 281/46/37 284/47/37 288/48/37 
f 284/45/18 283/46/18 286/47/18 288/48/18 
f 287/45/15 285/46/15 282/47/15 281/48/15 
f 289/45/42 290/46/42 291/47/42 292/48/42 
f 290/45/43 293/46/43 294/47/43 291/48/43 
f 293/45/40 295/46/40 296/47/40 294/48/40 
f 295/45/41 289/46/41 292/47/41 296/48/41 
f 292/45/18 291/46/18 294/47/18 296/48/18 
f 295/45/15 293/46/15 290/47/15 289/48/15 
f 297/45/46 298/46/46 299/47/46 300/48/46 
f 298/45/47 301/46/47 302/47/47 299/48/47 
f 301/45/44 303/46/44 304/47/44 302/48/44 
f 303/45/45 297/46/45 300/47/45 304/48/45 
f 300/45/18 299/46/18 302/47/18 304/48/18 
f 303/45/15 301/46/15 298/47/15 297/48/15 
# 270 polygons

