# 3ds Max Wavefront OBJ Exporter v0.97b - (c)2007 guruware
# File Created: 15.03.2017 10:24:29

mtllib SPW_Terrain_Concrete.mtl

#
# object SPW_Terrain_Concrete
#

v  787.4016 393.7008 59.0551
v  -787.4016 393.7008 59.0552
v  -787.4016 -0.0000 59.0552
v  787.4016 -0.0000 59.0551
v  -787.4016 393.7008 -59.0550
v  -787.4016 0.0000 -59.0551
v  787.4016 393.7008 -59.0551
v  787.4016 0.0000 -59.0552
# 8 vertices

vn 0.0000 -0.0000 1.0000
vn -1.0000 0.0000 -0.0000
vn -0.0000 0.0000 -1.0000
vn 1.0000 0.0000 -0.0000
vn 0.0000 -1.0000 -0.0000
vn 0.0000 1.0000 0.0000
# 6 vertex normals

vt 0.5141 0.4711 0.0000
vt 0.5641 0.4711 0.0000
vt 0.5641 0.5211 0.0000
vt 0.5141 0.5211 0.0000
# 4 texture coords

g SPW_Terrain_Concrete
usemtl SPW_Natures_02
s off
f 1/1/1 2/2/1 3/3/1 4/4/1 
f 2/1/2 5/2/2 6/3/2 3/4/2 
f 5/1/3 7/2/3 8/3/3 6/4/3 
f 7/1/4 1/2/4 4/3/4 8/4/4 
f 4/1/5 3/2/5 6/3/5 8/4/5 
f 7/1/6 5/2/6 2/3/6 1/4/6 
# 6 polygons

