# 3ds Max Wavefront OBJ Exporter v0.97b - (c)2007 guruware
# File Created: 15.03.2017 10:26:29

mtllib SPW_Terrain_Grass_Plan A_Out_mid.mtl

#
# object SPW_Terrain_Grass_Plan_A_Out_mid
#

v  -393.7008 0.0000 -393.7008
v  -393.7008 137.7952 393.7008
v  393.7007 137.7952 393.7008
v  393.7007 0.0000 -393.7008
# 4 vertices

vn 0.0000 0.9850 -0.1724
# 1 vertex normals

vt 0.8967 0.0400 0.0000
vt 0.9466 0.0400 0.0000
vt 0.9466 0.0893 0.0000
vt 0.8967 0.0893 0.0000
# 4 texture coords

g SPW_Terrain_Grass_Plan_A_Out_mid
usemtl SPW_Natures_02
s off
f 1/1/1 2/2/1 3/3/1 4/4/1 
# 1 polygons

