# 3ds Max Wavefront OBJ Exporter v0.97b - (c)2007 guruware
# File Created: 15.03.2017 10:30:33

mtllib SPW_Terrain_Sand_Plan A_In_Corner.mtl

#
# object SPW_Terrain_Sand_Plan_A_In_Corner
#

v  -393.7009 137.7950 393.7008
v  393.7007 137.7953 393.7010
v  393.7009 0.0003 -393.7006
v  -393.7007 137.7953 -393.7008
# 4 vertices

vn 0.0868 0.9924 -0.0868
# 1 vertex normals

vt 0.4812 0.0472 0.0000
vt 0.5312 0.0472 0.0000
vt 0.5312 0.0971 0.0000
vt 0.4812 0.0971 0.0000
# 4 texture coords

g SPW_Terrain_Sand_Plan_A_In_Corner
usemtl SPW_Natures_02
s off
f 1/1/1 2/2/1 3/3/1 4/4/1 
# 1 polygons

