# 3ds Max Wavefront OBJ Exporter v0.97b - (c)2007 guruware
# File Created: 15.03.2017 10:26:57

mtllib SPW_Terrain_Grass_Plan B_In_Corner.mtl

#
# object SPW_Terrain_Grass_Plan_B_In_Corner
#

v  393.7007 0.0000 -393.7009
v  -393.7009 275.5906 -393.7007
v  -393.7007 275.5905 393.7009
v  393.7009 275.5905 393.7007
# 4 vertices

vn 0.1699 0.9707 -0.1699
# 1 vertex normals

vt 0.8502 0.0596 0.0000
vt 0.9001 0.0623 0.0000
vt 0.9001 0.1095 0.0000
vt 0.8529 0.1095 0.0000
# 4 texture coords

g SPW_Terrain_Grass_Plan_B_In_Corner
usemtl SPW_Natures_02
s off
f 1/1/1 2/2/1 3/3/1 4/4/1 
# 1 polygons

