# 3ds Max Wavefront OBJ Exporter v0.97b - (c)2007 guruware
# File Created: 15.03.2017 10:31:51

mtllib SPW_Terrain_Sand_Plan B_Out_mid.mtl

#
# object SPW_Terrain_Sand_Plan_B_Out_mid
#

v  -393.7008 0.0000 -393.7008
v  -393.7008 275.5905 393.7008
v  393.7007 275.5905 393.7008
v  393.7007 0.0000 -393.7008
# 4 vertices

vn 0.0000 0.9439 -0.3304
# 1 vertex normals

vt 0.5184 0.0360 0.0000
vt 0.5684 0.0360 0.0000
vt 0.5684 0.0832 0.0000
vt 0.5184 0.0832 0.0000
# 4 texture coords

g SPW_Terrain_Sand_Plan_B_Out_mid
usemtl SPW_Natures_02
s off
f 1/1/1 2/2/1 3/3/1 4/4/1 
# 1 polygons

