# 3ds Max Wavefront OBJ Exporter v0.97b - (c)2007 guruware
# File Created: 15.03.2017 10:28:23

mtllib SPW_Terrain_River_Intersection.mtl

#
# object SPW_Terrain_River_Intersection
#

v  787.4015 0.0001 -787.4015
v  -0.0000 -275.5905 -787.4016
v  98.4252 -275.5905 -492.1260
v  0.0000 -275.5906 0.0000
v  275.5906 -275.5906 -275.5905
v  492.1260 -275.5905 -98.4253
v  787.4015 -275.5906 -0.0001
v  -787.4014 -275.5906 -0.0001
v  -787.4015 -0.0001 787.4014
v  -0.0001 -0.0001 787.4017
v  0.0000 -275.5906 -0.0000
v  0.0000 -275.5906 -0.0001
v  -0.0001 -0.0001 787.4014
v  787.4014 -0.0001 787.4015
v  787.4015 -275.5906 0.0001
v  -787.4017 0.0001 -787.4015
v  -787.4014 -275.5906 0.0000
v  -492.1258 -275.5905 -98.4252
v  -275.5906 -275.5906 -275.5906
v  -98.4252 -275.5905 -492.1260
v  0.0000 -275.5905 -787.4016
v  -677.0435 -103.0009 -529.8992
v  -787.4015 -103.0009 -493.1132
v  787.4015 -103.0009 -493.1132
v  -596.1141 -103.0009 -596.1140
v  -529.8992 -103.0009 -677.0433
v  -493.1132 -103.0009 -787.4015
v  677.0433 -103.0009 -529.8992
v  596.1140 -103.0009 -596.1141
v  529.8990 -103.0009 -677.0435
v  493.1130 -103.0009 -787.4015
v  -787.4015 -103.0011 493.1130
v  787.4015 -103.0011 493.1131
v  787.4017 -275.5906 -0.0001
v  -787.4015 -275.5906 -0.0001
# 35 vertices

vn -0.3284 0.9382 0.1095
vn 0.0000 1.0000 0.0000
vn -0.0000 1.0000 0.0000
vn -0.1095 0.9382 0.3284
vn -0.2263 0.9340 0.2766
vn -0.2766 0.9340 0.2263
vn 0.0000 0.9439 -0.3304
vn 0.1095 0.9382 0.3284
vn 0.3284 0.9382 0.1095
vn 0.2766 0.9340 0.2263
vn 0.2263 0.9340 0.2766
vn 1.0000 0.0000 0.0000
vn 0.0000 0.0000 -1.0000
vn -1.0000 0.0000 -0.0000
# 14 vertex normals

vt 0.9107 0.0872 0.0000
vt 0.9107 0.0655 0.0000
vt 0.9130 0.0651 0.0000
vt 0.9158 0.0627 0.0000
vt 0.9152 0.0654 0.0000
vt 0.9174 0.0660 0.0000
vt 0.9194 0.0673 0.0000
vt 0.8804 0.0903 0.0000
vt 0.8804 0.1126 0.0000
vt 0.8744 0.1126 0.0000
vt 0.8744 0.0903 0.0000
vt 0.9080 0.0872 0.0000
vt 0.9080 0.1096 0.0000
vt 0.9020 0.1096 0.0000
vt 0.9020 0.0872 0.0000
vt 0.9020 0.0655 0.0000
vt 0.9043 0.0651 0.0000
vt 0.9071 0.0627 0.0000
vt 0.9065 0.0654 0.0000
vt 0.9087 0.0660 0.0000
vt 0.9107 0.0673 0.0000
vt 0.9122 0.2442 0.0000
vt 0.9114 0.2446 0.0000
vt 0.9199 0.2361 0.0000
vt 0.9130 0.2441 0.0000
vt 0.9138 0.2442 0.0000
vt 0.9146 0.2446 0.0000
vt 0.9195 0.2369 0.0000
vt 0.9194 0.2377 0.0000
vt 0.9195 0.2385 0.0000
vt 0.9199 0.2393 0.0000
vt 0.9060 0.2393 0.0000
vt 0.9146 0.2308 0.0000
vt 0.9268 0.2239 0.0000
vt 0.9268 0.2515 0.0000
vt 0.8992 0.2515 0.0000
# 36 texture coords

g SPW_Terrain_River_Intersection
usemtl SPW_Natures_02
s off
f 1/1/1 2/2/1 3/3/1 
f 3/3/2 2/2/2 4/4/2 5/5/2 
f 6/6/3 5/5/3 4/4/3 7/7/3 
f 6/6/4 7/7/4 1/1/4 
f 5/5/5 6/6/5 1/1/5 
f 3/3/6 5/5/6 1/1/6 
f 8/8/7 9/9/7 10/10/7 11/11/7 
f 12/12/7 13/13/7 14/14/7 15/15/7 
f 16/15/8 17/16/8 18/17/8 
f 18/17/2 17/16/2 12/18/2 19/19/2 
f 20/20/3 19/19/3 12/18/3 21/21/3 
f 20/20/9 21/21/9 16/15/9 
f 19/19/10 20/20/10 16/15/10 
f 18/17/11 19/19/11 16/15/11 
s 1
f 22/22/2 23/23/3 24/24/3 25/25/2 
f 26/26/3 25/25/2 24/24/3 27/27/2 
f 27/27/2 24/24/3 28/28/3 29/29/2 
f 27/27/2 29/29/2 30/30/3 31/31/2 
f 24/24/3 23/23/3 32/32/3 33/33/2 
s off
f 34/34/12 24/24/12 33/33/12 
f 2/35/13 27/27/13 31/31/13 
f 35/36/14 32/32/14 23/23/14 
# 11 polygons - 11 triangles

