# 3ds Max Wavefront OBJ Exporter v0.97b - (c)2007 guruware
# File Created: 15.03.2017 10:46:55

mtllib SPB_Bank.mtl

#
# object SPB_Bank
#

v  -371.0433 421.4650 12.1654
v  -371.0433 421.4650 -12.1653
v  -371.0433 32.1737 -12.1653
v  -371.0433 32.1736 12.1654
v  -346.7126 421.4650 -12.1653
v  -346.7126 32.1737 -12.1653
v  -346.7126 421.4650 12.1654
v  -346.7126 32.1736 12.1654
v  346.7126 421.4650 12.1654
v  346.7126 421.4650 -12.1653
v  346.7126 32.1737 -12.1653
v  346.7126 32.1736 12.1654
v  371.0433 421.4650 -12.1653
v  371.0433 32.1737 -12.1653
v  371.0433 421.4650 12.1654
v  371.0433 32.1736 12.1654
v  -150.7520 10.1242 282.3144
v  -150.7520 10.1242 185.1983
v  -150.7520 0.0464 185.1983
v  -150.7520 0.0464 282.3144
v  150.7520 10.1242 185.1983
v  150.7520 0.0464 185.1983
v  150.7520 10.1242 282.3144
v  150.7520 0.0464 282.3144
v  -141.2417 20.1013 272.5939
v  -141.2417 20.1013 194.9187
v  -141.2417 10.0235 194.9187
v  -141.2417 10.0235 272.5939
v  141.2417 20.1013 194.9187
v  141.2417 10.0235 194.9187
v  141.2417 20.1013 272.5939
v  141.2417 10.0235 272.5939
v  -389.2913 34.6067 218.9763
v  -389.2913 34.6068 -218.9764
v  -389.2913 29.7406 -218.9764
v  -389.2913 29.7405 218.9763
v  129.7638 34.6068 -218.9764
v  389.2913 34.6068 -218.9764
v  389.2913 29.7406 -218.9764
v  129.7638 29.7406 -218.9764
v  389.2913 34.6067 218.9763
v  389.2913 29.7405 218.9763
v  -129.7638 34.6067 218.9763
v  -129.7638 29.7405 218.9763
v  -129.7638 29.7406 -218.9764
v  129.7638 0.0001 -218.9764
v  -129.7638 0.0001 -218.9764
v  -129.7638 34.6068 -218.9764
v  129.7638 34.6067 218.9763
v  -389.2913 0.0000 218.9763
v  -129.7638 0.0000 218.9763
v  129.7638 29.7405 218.9763
v  129.7638 0.0000 218.9763
v  -129.7638 29.7405 261.3626
v  -129.7638 34.6067 261.3626
v  129.7638 34.6067 261.3626
v  129.7638 29.7405 261.3626
v  129.7638 19.9538 261.3626
v  129.7638 19.9538 218.9763
v  389.2913 0.0001 -218.9764
v  389.2913 0.0000 218.9763
v  -389.2913 0.0001 -218.9764
v  -129.7638 19.9538 218.9763
v  -129.7638 19.9538 261.3626
v  -118.6398 56.5043 252.0443
v  -118.6398 56.5044 222.4044
v  -118.6398 32.1736 222.4044
v  -118.6398 32.1736 252.0443
v  -57.3106 56.5044 222.4044
v  -57.3106 32.1736 222.4044
v  -57.3106 56.5043 252.0443
v  -57.3106 32.1736 252.0443
v  57.3107 56.5043 252.0443
v  57.3107 56.5044 222.4044
v  57.3107 32.1736 222.4044
v  57.3107 32.1736 252.0443
v  118.6399 56.5044 222.4044
v  118.6399 32.1736 222.4044
v  118.6399 56.5043 252.0443
v  118.6399 32.1736 252.0443
v  -115.5709 275.4807 249.3898
v  -115.5709 275.4807 225.0591
v  -115.5709 32.1736 225.0590
v  -115.5709 32.1736 249.3897
v  -91.2402 275.4807 225.0591
v  -91.2402 32.1736 225.0590
v  -91.2402 275.4807 249.3898
v  -91.2402 32.1736 249.3897
v  91.2402 275.4807 249.3898
v  91.2402 275.4807 225.0591
v  91.2402 32.1736 225.0590
v  91.2402 32.1736 249.3897
v  115.5709 275.4807 225.0591
v  115.5709 32.1736 225.0590
v  115.5709 275.4807 249.3898
v  115.5709 32.1736 249.3897
v  -375.9095 481.9900 205.5945
v  -375.9095 481.9901 -205.5944
v  -375.9095 477.1239 -205.5944
v  -375.9095 477.1239 205.5945
v  375.9095 481.9900 205.5945
v  375.9095 477.1239 205.5945
v  -332.1289 481.9901 -170.3149
v  332.1289 481.9901 -170.3149
v  375.9095 481.9901 -205.5944
v  -332.1289 481.9900 170.3150
v  332.1289 481.9900 170.3150
v  375.9095 477.1239 -205.5944
v  332.1289 477.1239 170.3150
v  332.1289 477.1239 -170.3149
v  -332.1289 477.1239 170.3150
v  -332.1289 477.1239 -170.3149
v  -374.6929 477.4726 204.3780
v  -374.6929 477.4726 -204.3779
v  -374.6929 472.6065 -204.3779
v  -374.6929 472.6064 204.3780
v  374.6929 477.4726 204.3780
v  374.6929 472.6064 204.3780
v  -332.3889 477.4726 -170.3149
v  332.3889 477.4726 -170.3149
v  374.6929 477.4726 -204.3779
v  -332.3889 477.4726 170.3150
v  332.3889 477.4726 170.3150
v  374.6929 472.6065 -204.3779
v  332.3889 472.6064 170.3150
v  332.3889 472.6065 -170.3149
v  -332.3889 472.6064 170.3150
v  -332.3889 472.6065 -170.3149
v  -374.6929 430.4992 204.3780
v  -374.6929 430.4993 -204.3779
v  -374.6929 425.6331 -204.3779
v  -374.6929 425.6331 204.3780
v  374.6929 430.4993 -204.3779
v  374.6929 425.6331 -204.3779
v  374.6929 430.4992 204.3780
v  374.6929 425.6331 204.3780
v  -372.8682 472.9850 202.5532
v  -372.8682 472.9850 -202.5531
v  -372.8682 421.3753 -202.5531
v  -372.8682 421.3752 202.5532
v  372.8682 472.9850 -202.5531
v  372.8682 421.3753 -202.5531
v  372.8682 472.9850 202.5532
v  372.8682 421.3752 202.5532
v  -121.6535 324.4852 255.0386
v  -121.6535 324.4852 189.3011
v  -121.6535 320.8356 189.3011
v  -121.6535 320.8357 255.0386
v  121.6535 324.4852 189.3011
v  121.6535 320.8356 189.3011
v  121.6535 324.4852 255.0386
v  121.6535 320.8357 255.0386
v  -120.4370 320.9307 253.6576
v  -120.4370 320.9307 190.6822
v  -120.4370 317.2810 190.6822
v  -120.4370 317.2811 253.6576
v  120.4370 320.9307 190.6822
v  120.4370 317.2810 190.6822
v  120.4370 320.9307 253.6576
v  120.4370 317.2811 253.6576
v  -120.4370 275.3029 253.6576
v  -120.4370 275.3029 190.6822
v  -120.4370 271.6533 190.6822
v  -120.4370 271.6533 253.6576
v  120.4370 275.3029 190.6822
v  120.4370 271.6533 190.6822
v  120.4370 275.3029 253.6576
v  120.4370 271.6533 253.6576
v  -118.6365 320.6559 251.8623
v  -118.6365 320.6559 192.4775
v  -118.6365 268.3448 192.4775
v  -118.6365 268.3448 251.8623
v  118.6365 320.6559 192.4775
v  118.6365 268.3448 192.4775
v  118.6365 320.6559 251.8623
v  118.6365 268.3448 251.8623
v  -84.7937 275.4807 249.3898
v  -84.7937 275.4807 225.0591
v  -84.7937 32.1736 225.0590
v  -84.7937 32.1736 249.3897
v  -60.4630 275.4807 225.0591
v  -60.4630 32.1736 225.0590
v  -60.4630 275.4807 249.3898
v  -60.4630 32.1736 249.3897
v  -113.9231 224.3231 205.8359
v  -113.9231 224.3231 157.1745
v  -113.9231 29.6775 157.1745
v  -113.9231 29.6775 205.8359
v  -99.7559 29.6775 205.8359
v  -99.7559 210.2333 205.8359
v  113.9231 224.3231 205.8359
v  99.7559 210.2333 205.8359
v  99.7559 29.6775 205.8359
v  113.9231 29.6775 205.8359
v  113.9231 224.3231 157.1745
v  113.9231 29.6775 157.1745
v  99.7559 29.6775 198.3894
v  -99.7559 29.6775 198.3894
v  -99.7559 210.2333 198.3894
v  99.7559 210.2333 198.3894
v  54.7441 178.1579 198.3894
v  54.7441 32.1736 198.3894
v  -54.7441 32.1736 198.3894
v  -54.7441 178.1579 198.3894
v  -54.7441 32.1736 196.3931
v  -54.7441 178.1579 196.3931
v  54.7441 178.1579 196.3931
v  54.7441 32.1736 196.3931
v  -376.0437 56.5044 205.8349
v  -376.0437 56.5044 -205.8349
v  -376.0437 32.1737 -205.8349
v  -376.0437 32.1736 205.8349
v  -113.9231 56.5044 205.8349
v  -113.9231 32.1736 205.8349
v  376.0437 56.5044 205.8349
v  376.0437 56.5044 -205.8349
v  113.9231 56.5044 174.7612
v  -113.9231 56.5044 174.7612
v  113.9231 56.5044 205.8349
v  376.0437 32.1737 -205.8349
v  -113.9231 32.1736 174.7612
v  376.0437 32.1736 205.8349
v  113.9231 32.1736 205.8349
v  113.9231 32.1736 174.7612
v  60.4631 275.4807 249.3898
v  60.4631 275.4807 225.0591
v  60.4631 32.1736 225.0590
v  60.4631 32.1736 249.3897
v  84.7938 275.4807 225.0591
v  84.7938 32.1736 225.0590
v  84.7938 275.4807 249.3898
v  84.7938 32.1736 249.3897
v  -371.0433 421.4650 -176.3976
v  -371.0433 421.4650 -200.7283
v  -371.0433 32.1737 -200.7284
v  -371.0433 32.1737 -176.3976
v  -346.7126 421.4650 -200.7283
v  -346.7126 32.1737 -200.7284
v  -346.7126 421.4650 -176.3976
v  -346.7126 32.1737 -176.3976
v  346.7126 421.4650 -176.3976
v  346.7126 421.4650 -200.7283
v  346.7126 32.1737 -200.7284
v  346.7126 32.1737 -176.3976
v  371.0433 421.4650 -200.7283
v  371.0433 32.1737 -200.7284
v  371.0433 421.4650 -176.3976
v  371.0433 32.1737 -176.3976
v  346.7126 421.4650 200.7284
v  346.7126 421.4650 176.3977
v  346.7126 32.1736 176.3976
v  346.7126 32.1736 200.7283
v  371.0433 421.4650 176.3977
v  371.0433 32.1736 176.3976
v  371.0433 421.4650 200.7284
v  371.0433 32.1736 200.7283
v  -371.0433 421.4650 200.7284
v  -371.0433 421.4650 176.3977
v  -371.0433 32.1736 176.3976
v  -371.0433 32.1736 200.7283
v  -346.7126 421.4650 176.3977
v  -346.7126 32.1736 176.3976
v  -346.7126 421.4650 200.7284
v  -346.7126 32.1736 200.7283
v  -364.9606 165.9925 -79.9300
v  -364.9606 165.9925 -36.1347
v  -364.9606 214.6539 -36.1347
v  -364.9606 214.6539 -79.9299
v  -364.9606 214.6539 -106.6937
v  -364.9606 214.6539 -150.4890
v  -364.9606 165.9926 -150.4890
v  -364.9606 165.9925 -106.6937
v  -364.9606 105.1658 -79.9300
v  -364.9606 105.1658 -106.6938
v  -364.9606 165.9925 106.8749
v  -364.9606 165.9925 150.6701
v  -364.9606 214.6539 150.6701
v  -364.9606 214.6539 106.8749
v  -364.9606 275.4807 36.3158
v  -364.9606 324.1421 80.1111
v  -364.9606 324.1421 36.3159
v  -364.9606 324.1421 -36.1346
v  -364.9606 214.6539 36.3158
v  -364.9606 275.4807 -36.1347
v  -364.9606 275.4807 -79.9299
v  -364.9606 324.1421 -79.9299
v  -364.9606 105.1658 -36.1347
v  -364.9606 105.1658 36.3158
v  -364.9606 165.9925 36.3158
v  -364.9606 214.6539 80.1111
v  -364.9606 165.9925 80.1111
v  -364.9606 105.1658 106.8749
v  -364.9606 105.1658 80.1111
v  -364.9606 32.1736 194.6457
v  -364.9606 421.4650 194.6457
v  -364.9606 324.1421 150.6702
v  -364.9606 275.4807 150.6702
v  -364.9606 324.1421 106.8749
v  -364.9606 275.4807 80.1111
v  -364.9606 275.4807 106.8749
v  -364.9606 105.1657 150.6701
v  -364.9606 275.4807 -106.6937
v  -364.9606 275.4807 -150.4890
v  -364.9606 324.1422 -106.6937
v  -364.9606 324.1422 -150.4890
v  -364.9606 384.9688 80.1111
v  -364.9606 384.9688 106.8749
v  -364.9606 384.9688 150.6702
v  -364.9606 384.9688 36.3159
v  -364.9606 384.9689 -150.4890
v  -364.9606 421.4650 -194.6456
v  -364.9606 105.1658 -150.4890
v  -364.9606 32.1737 -194.6457
v  -364.9606 384.9689 -106.6937
v  -364.9606 384.9688 -79.9299
v  -364.9606 384.9688 -36.1346
v  -279.8031 165.9925 194.6457
v  -279.8031 105.1657 194.6457
v  -253.0393 105.1657 194.6457
v  -253.0393 165.9925 194.6457
v  -209.2440 165.9925 194.6457
v  -209.2440 105.1657 194.6457
v  -182.4803 105.1657 194.6457
v  -182.4803 165.9925 194.6457
v  -138.6850 165.9925 194.6457
v  -138.6850 214.6539 194.6457
v  -182.4803 214.6539 194.6457
v  -323.5984 165.9925 194.6457
v  -209.2440 214.6539 194.6457
v  -253.0393 214.6539 194.6457
v  -279.8031 214.6539 194.6457
v  -323.5984 214.6539 194.6457
v  364.9606 421.4650 194.6457
v  323.5984 275.4807 194.6457
v  323.5984 214.6540 194.6457
v  323.5984 165.9925 194.6457
v  182.4804 214.6540 194.6457
v  138.6851 214.6539 194.6457
v  138.6851 165.9925 194.6457
v  209.2441 214.6540 194.6457
v  253.0394 214.6540 194.6457
v  279.8032 214.6540 194.6457
v  182.4804 165.9925 194.6457
v  182.4804 105.1658 194.6457
v  209.2441 105.1658 194.6457
v  209.2441 165.9925 194.6457
v  253.0394 165.9925 194.6457
v  253.0394 105.1658 194.6457
v  279.8032 105.1658 194.6457
v  279.8032 165.9925 194.6457
v  364.9606 32.1736 194.6457
v  323.5984 105.1658 194.6457
v  138.6851 105.1658 194.6457
v  138.6850 324.1422 194.6457
v  -138.6850 324.1421 194.6457
v  -182.4803 324.1421 194.6457
v  -209.2440 324.1421 194.6457
v  -138.6850 275.4807 194.6457
v  -279.8031 324.1421 194.6457
v  -323.5984 324.1421 194.6457
v  -323.5984 275.4807 194.6457
v  -253.0394 324.1421 194.6457
v  -279.8031 275.4807 194.6457
v  -253.0393 275.4807 194.6457
v  -209.2440 275.4807 194.6457
v  -182.4803 275.4807 194.6457
v  -138.6850 105.1657 194.6457
v  -323.5984 105.1657 194.6457
v  138.6851 275.4807 194.6457
v  182.4804 275.4807 194.6457
v  209.2441 275.4807 194.6457
v  253.0394 275.4807 194.6457
v  279.8032 275.4807 194.6457
v  323.5984 324.1422 194.6457
v  279.8032 324.1422 194.6457
v  253.0394 324.1422 194.6457
v  209.2441 324.1422 194.6457
v  182.4803 324.1422 194.6457
v  -279.8031 384.9688 194.6457
v  -253.0394 384.9688 194.6457
v  -209.2440 384.9689 194.6457
v  -182.4803 384.9689 194.6457
v  -138.6850 384.9689 194.6457
v  138.6850 384.9689 194.6457
v  182.4803 384.9689 194.6457
v  209.2441 384.9689 194.6457
v  253.0394 384.9689 194.6457
v  279.8032 384.9689 194.6457
v  323.5984 384.9689 194.6457
v  -323.5984 384.9688 194.6457
v  364.9606 421.4650 -194.6456
v  364.9606 32.1737 -194.6457
v  364.9606 105.1658 150.6701
v  364.9606 165.9925 150.6701
v  364.9606 214.6540 150.6701
v  364.9606 275.4807 150.6702
v  364.9606 324.1422 150.6702
v  364.9606 275.4807 106.8749
v  364.9606 214.6540 106.8749
v  364.9606 214.6540 80.1111
v  364.9606 275.4807 80.1111
v  364.9606 275.4807 36.3158
v  364.9606 324.1422 -36.1346
v  364.9606 324.1422 36.3159
v  364.9606 324.1422 80.1111
v  364.9606 324.1422 106.8749
v  364.9606 165.9926 106.8749
v  364.9606 105.1658 106.8749
v  364.9606 105.1658 80.1111
v  364.9606 165.9926 80.1111
v  364.9606 165.9926 36.3158
v  364.9606 105.1658 36.3158
v  364.9606 105.1658 -36.1347
v  364.9606 165.9926 -36.1347
v  364.9606 214.6540 -36.1347
v  364.9606 275.4807 -36.1347
v  364.9606 324.1422 -150.4890
v  364.9606 324.1422 -106.6937
v  364.9606 324.1422 -79.9299
v  364.9606 214.6540 36.3158
v  364.9606 165.9926 -150.4890
v  364.9606 105.1658 -150.4890
v  364.9606 105.1658 -106.6938
v  364.9606 105.1658 -79.9300
v  364.9606 384.9689 150.6702
v  364.9606 384.9689 106.8749
v  364.9606 384.9689 80.1111
v  364.9606 384.9689 36.3159
v  364.9606 384.9689 -36.1346
v  364.9606 384.9689 -79.9299
v  364.9606 384.9690 -106.6937
v  364.9606 275.4807 -79.9299
v  364.9606 275.4808 -106.6937
v  364.9606 214.6540 -79.9299
v  364.9606 214.6540 -106.6937
v  364.9606 275.4808 -150.4890
v  364.9606 214.6540 -150.4890
v  364.9606 384.9690 -150.4890
v  364.9606 165.9926 -79.9300
v  364.9606 165.9926 -106.6937
v  -361.6979 384.9688 -36.1346
v  -361.6979 324.1421 -36.1346
v  -361.6978 324.1421 -79.9299
v  -361.6978 384.9688 -79.9299
v  -361.6979 384.9689 -106.6937
v  -361.6979 324.1422 -106.6937
v  -361.6979 324.1422 -150.4890
v  -361.6979 384.9689 -150.4890
v  -361.6979 275.4807 -36.1347
v  -361.6979 214.6539 -36.1347
v  -361.6978 214.6539 -79.9299
v  -361.6978 275.4807 -79.9299
v  -361.6979 275.4807 -106.6937
v  -361.6979 214.6539 -106.6937
v  -361.6979 214.6539 -150.4890
v  -361.6979 275.4807 -150.4890
v  -361.6979 165.9925 -36.1347
v  -361.6979 105.1658 -36.1347
v  -361.6978 105.1658 -79.9300
v  -361.6978 165.9925 -79.9300
v  -361.6979 165.9925 -106.6937
v  -361.6979 105.1658 -106.6938
v  -361.6979 105.1658 -150.4890
v  -361.6979 165.9926 -150.4890
v  -361.6979 384.9688 150.6702
v  -361.6979 324.1421 150.6702
v  -361.6979 324.1421 106.8749
v  -361.6979 384.9688 106.8749
v  -361.6979 384.9688 80.1111
v  -361.6979 324.1421 80.1111
v  -361.6979 324.1421 36.3159
v  -361.6979 384.9688 36.3159
v  -361.6979 275.4807 150.6702
v  -361.6979 214.6539 150.6701
v  -361.6979 214.6539 106.8749
v  -361.6979 275.4807 106.8749
v  -361.6979 275.4807 80.1111
v  -361.6979 214.6539 80.1111
v  -361.6979 214.6539 36.3158
v  -361.6979 275.4807 36.3158
v  -361.6979 165.9925 150.6701
v  -361.6979 105.1657 150.6701
v  -361.6979 105.1658 106.8749
v  -361.6979 165.9925 106.8749
v  -361.6979 165.9925 80.1111
v  -361.6979 105.1658 80.1111
v  -361.6979 105.1658 36.3158
v  -361.6979 165.9925 36.3158
v  361.6979 324.1422 -36.1346
v  361.6979 384.9689 -36.1346
v  361.6979 384.9689 -79.9299
v  361.6979 324.1422 -79.9299
v  361.6979 324.1422 -106.6937
v  361.6979 384.9690 -106.6937
v  361.6979 384.9690 -150.4890
v  361.6979 324.1422 -150.4890
v  361.6979 214.6540 -36.1347
v  361.6979 275.4807 -36.1347
v  361.6979 275.4807 -79.9299
v  361.6979 214.6540 -79.9299
v  361.6979 214.6540 -106.6937
v  361.6979 275.4808 -106.6937
v  361.6979 275.4808 -150.4890
v  361.6979 214.6540 -150.4890
v  361.6979 105.1658 -36.1347
v  361.6979 165.9926 -36.1347
v  361.6979 165.9926 -79.9300
v  361.6979 105.1658 -79.9300
v  361.6979 105.1658 -106.6938
v  361.6979 165.9926 -106.6937
v  361.6979 165.9926 -150.4890
v  361.6979 105.1658 -150.4890
v  361.6979 324.1422 150.6702
v  361.6979 384.9689 150.6702
v  361.6979 384.9689 106.8749
v  361.6979 324.1422 106.8749
v  361.6979 324.1422 80.1111
v  361.6979 384.9689 80.1111
v  361.6979 384.9689 36.3159
v  361.6979 324.1422 36.3159
v  361.6979 214.6540 150.6701
v  361.6979 275.4807 150.6702
v  361.6979 275.4807 106.8749
v  361.6979 214.6540 106.8749
v  361.6979 214.6540 80.1111
v  361.6979 275.4807 80.1111
v  361.6979 275.4807 36.3158
v  361.6979 214.6540 36.3158
v  361.6979 105.1658 150.6701
v  361.6979 165.9925 150.6701
v  361.6979 165.9926 106.8749
v  361.6979 105.1658 106.8749
v  361.6979 105.1658 80.1111
v  361.6979 165.9926 80.1111
v  361.6979 165.9926 36.3158
v  361.6979 105.1658 36.3158
v  -323.5984 324.1421 191.4607
v  -323.5984 384.9688 191.4607
v  -279.8031 384.9688 191.4607
v  -279.8031 324.1421 191.4607
v  -253.0394 324.1421 191.4607
v  -253.0394 384.9688 191.4607
v  -209.2440 384.9689 191.4607
v  -209.2440 324.1421 191.4607
v  -182.4803 324.1421 191.4607
v  -182.4803 384.9689 191.4607
v  -138.6850 384.9689 191.4607
v  -138.6850 324.1421 191.4607
v  -323.5984 214.6539 191.4607
v  -323.5984 275.4807 191.4607
v  -279.8031 275.4807 191.4607
v  -279.8031 214.6539 191.4607
v  -253.0393 214.6539 191.4607
v  -253.0393 275.4807 191.4607
v  -209.2440 275.4807 191.4607
v  -209.2440 214.6539 191.4607
v  -182.4803 214.6539 191.4607
v  -182.4803 275.4807 191.4607
v  -138.6850 275.4807 191.4607
v  -138.6850 214.6539 191.4607
v  -323.5984 105.1657 191.4607
v  -323.5984 165.9925 191.4607
v  -279.8031 165.9925 191.4607
v  -279.8031 105.1657 191.4607
v  -253.0393 105.1657 191.4606
v  -253.0393 165.9925 191.4607
v  -209.2440 165.9925 191.4607
v  -209.2440 105.1657 191.4606
v  -182.4803 105.1657 191.4606
v  -182.4803 165.9925 191.4607
v  -138.6850 165.9925 191.4607
v  -138.6850 105.1657 191.4606
v  138.6850 324.1422 191.4607
v  138.6850 384.9689 191.4607
v  182.4803 384.9689 191.4607
v  182.4803 324.1422 191.4607
v  209.2441 324.1422 191.4607
v  209.2441 384.9689 191.4607
v  253.0394 384.9689 191.4607
v  253.0394 324.1422 191.4607
v  279.8032 324.1422 191.4607
v  279.8032 384.9689 191.4607
v  323.5984 384.9689 191.4607
v  323.5984 324.1422 191.4607
v  138.6851 214.6539 191.4607
v  138.6851 275.4807 191.4607
v  182.4804 275.4807 191.4607
v  182.4804 214.6540 191.4607
v  209.2441 214.6540 191.4607
v  209.2441 275.4807 191.4607
v  253.0394 275.4807 191.4607
v  253.0394 214.6540 191.4607
v  279.8032 214.6540 191.4607
v  279.8032 275.4807 191.4607
v  323.5984 275.4807 191.4607
v  323.5984 214.6540 191.4607
v  138.6851 105.1658 191.4607
v  138.6851 165.9925 191.4607
v  182.4804 165.9925 191.4607
v  182.4804 105.1658 191.4607
v  209.2441 105.1658 191.4606
v  209.2441 165.9925 191.4607
v  253.0394 165.9925 191.4607
v  253.0394 105.1658 191.4606
v  279.8032 105.1658 191.4606
v  279.8032 165.9925 191.4607
v  323.5984 165.9925 191.4607
v  323.5984 105.1658 191.4606
# 608 vertices

vn -1.0000 0.0000 -0.0000
vn 0.0000 0.0000 -1.0000
vn 1.0000 0.0000 -0.0000
vn 0.0000 -0.0000 1.0000
vn 0.0000 -1.0000 -0.0000
vn 0.0000 1.0000 0.0000
vn 0.0000 -1.0000 0.0000
vn -0.0000 -0.0000 1.0000
vn 0.0000 1.0000 -0.0000
vn -0.0000 1.0000 0.0000
vn 0.0000 0.0000 1.0000
vn -0.0000 0.0000 1.0000
# 12 vertex normals

vt 0.2668 0.3859 0.0000
vt 0.2668 0.3697 0.0000
vt 0.2678 0.3859 0.0000
vt 0.2678 0.3697 0.0000
vt 0.2966 0.3859 0.0000
vt 0.2966 0.3697 0.0000
vt 0.2976 0.3859 0.0000
vt 0.2976 0.3697 0.0000
vt 0.4657 0.9153 0.0000
vt 0.5157 0.9153 0.0000
vt 0.5157 0.9653 0.0000
vt 0.4657 0.9653 0.0000
vt 0.1650 0.5649 0.0000
vt 0.2150 0.5649 0.0000
vt 0.2150 0.6149 0.0000
vt 0.1650 0.6149 0.0000
vt 0.1526 0.4254 0.0000
vt 0.2026 0.4254 0.0000
vt 0.2026 0.4754 0.0000
vt 0.1526 0.4754 0.0000
vt 0.2774 0.3798 0.0000
vt 0.2774 0.3697 0.0000
vt 0.2784 0.3798 0.0000
vt 0.2784 0.3697 0.0000
vt 0.2860 0.3798 0.0000
vt 0.2860 0.3697 0.0000
vt 0.2870 0.3798 0.0000
vt 0.2870 0.3697 0.0000
vt 0.1526 0.4409 0.0000
vt 0.2026 0.4409 0.0000
vt 0.2026 0.4909 0.0000
vt 0.1526 0.4909 0.0000
vt 0.1992 0.4534 0.0000
vt 0.1776 0.4409 0.0000
vt 0.1559 0.4534 0.0000
vt 0.1559 0.4784 0.0000
vt 0.1992 0.4784 0.0000
vt 0.1776 0.4909 0.0000
vt 0.4486 0.6097 0.0000
vt 0.4986 0.6097 0.0000
vt 0.4986 0.6597 0.0000
vt 0.4486 0.6597 0.0000
vt 0.4952 0.6222 0.0000
vt 0.4736 0.6097 0.0000
vt 0.4519 0.6222 0.0000
vt 0.4519 0.6472 0.0000
vt 0.4952 0.6472 0.0000
vt 0.4736 0.6597 0.0000
vt 0.4362 0.5818 0.0000
vt 0.4862 0.5818 0.0000
vt 0.4862 0.6318 0.0000
vt 0.4362 0.6318 0.0000
vt 0.1495 0.4378 0.0000
vt 0.1995 0.4378 0.0000
vt 0.1995 0.4878 0.0000
vt 0.1495 0.4878 0.0000
vt 0.3448 0.9246 0.0000
vt 0.3948 0.9246 0.0000
vt 0.3948 0.9746 0.0000
vt 0.3448 0.9746 0.0000
vt 0.1619 0.3944 0.0000
vt 0.2119 0.3944 0.0000
vt 0.2119 0.4444 0.0000
vt 0.1619 0.4444 0.0000
vt 0.4424 0.5322 0.0000
vt 0.4924 0.5322 0.0000
vt 0.4924 0.5822 0.0000
vt 0.4424 0.5822 0.0000
vt 0.1712 0.3913 0.0000
vt 0.2212 0.3913 0.0000
vt 0.2212 0.4413 0.0000
vt 0.1712 0.4413 0.0000
vt 0.8076 0.8276 0.0000
vt 0.3860 0.8276 0.0000
vt 0.3860 0.7347 0.0000
vt 0.8076 0.7347 0.0000
vt 0.2787 0.3798 0.0000
vt 0.2787 0.3697 0.0000
vt 0.2797 0.3798 0.0000
vt 0.2797 0.3697 0.0000
vt 0.4750 0.4750 0.0000
vt 0.5250 0.4750 0.0000
vt 0.5250 0.5250 0.0000
vt 0.4750 0.5250 0.0000
vt 0.5177 0.5177 0.0000
vt 0.5250 0.5000 0.0000
vt 0.5177 0.4823 0.0000
vt 0.5000 0.4750 0.0000
vt 0.5000 0.5250 0.0000
vt 0.4823 0.4823 0.0000
vt 0.4750 0.5000 0.0000
vt 0.4823 0.5177 0.0000
vt 0.5217 0.4875 0.0000
vt 0.4783 0.4875 0.0000
vt 0.4783 0.5125 0.0000
vt 0.5217 0.5125 0.0000
vt 0.6852 0.4128 0.0000
vt 0.6852 0.0143 0.0000
vt 0.9841 0.0143 0.0000
vt 0.9841 0.4128 0.0000
vt 0.1619 0.4378 0.0000
vt 0.2119 0.4378 0.0000
vt 0.2119 0.4878 0.0000
vt 0.1619 0.4878 0.0000
vt 0.1869 0.4878 0.0000
vt 0.2045 0.4805 0.0000
vt 0.2119 0.4628 0.0000
vt 0.1619 0.4628 0.0000
vt 0.2045 0.4451 0.0000
vt 0.1869 0.4378 0.0000
vt 0.1692 0.4451 0.0000
vt 0.1692 0.4805 0.0000
vt 0.2847 0.3798 0.0000
vt 0.2847 0.3697 0.0000
vt 0.2858 0.3798 0.0000
vt 0.2858 0.3697 0.0000
vt 0.4793 0.5002 0.0000
vt 0.4796 0.5010 0.0000
vt 0.4788 0.5033 0.0000
vt 0.4782 0.5028 0.0000
vt 0.4782 0.5017 0.0000
vt 0.4780 0.4999 0.0000
vt 0.4783 0.4975 0.0000
vt 0.4790 0.4993 0.0000
vt 0.4807 0.4972 0.0000
vt 0.4805 0.4962 0.0000
vt 0.4808 0.5009 0.0000
vt 0.4812 0.5013 0.0000
vt 0.4803 0.5008 0.0000
vt 0.4805 0.5015 0.0000
vt 0.4799 0.5059 0.0000
vt 0.4804 0.5045 0.0000
vt 0.4806 0.5085 0.0000
vt 0.4785 0.5121 0.0000
vt 0.4802 0.5030 0.0000
vt 0.4785 0.5074 0.0000
vt 0.4791 0.5058 0.0000
vt 0.4778 0.5121 0.0000
vt 0.4807 0.4986 0.0000
vt 0.4811 0.4998 0.0000
vt 0.4804 0.5014 0.0000
vt 0.4804 0.5020 0.0000
vt 0.4806 0.5011 0.0000
vt 0.4807 0.4984 0.0000
vt 0.4807 0.4994 0.0000
vt 0.4828 0.4935 0.0000
vt 0.4783 0.4963 0.0000
vt 0.4796 0.4991 0.0000
vt 0.4797 0.5003 0.0000
vt 0.4799 0.5024 0.0000
vt 0.4797 0.5036 0.0000
vt 0.4797 0.5024 0.0000
vt 0.4811 0.4968 0.0000
vt 0.4791 0.5011 0.0000
vt 0.4766 0.5141 0.0000
vt 0.4759 0.5127 0.0000
vt 0.4803 0.5057 0.0000
vt 0.4791 0.4999 0.0000
vt 0.4791 0.4982 0.0000
vt 0.4812 0.5141 0.0000
vt 0.4762 0.5153 0.0000
vt 0.4801 0.4947 0.0000
vt 0.4796 0.4936 0.0000
vt 0.4813 0.4882 0.0000
vt 0.4769 0.5250 0.0000
vt 0.4871 0.4771 0.0000
vt 0.4863 0.4752 0.0000
vt 0.4868 0.4768 0.0000
vt 0.4863 0.4756 0.0000
vt 0.4814 0.4923 0.0000
vt 0.4820 0.4927 0.0000
vt 0.4815 0.4923 0.0000
vt 0.4813 0.4922 0.0000
vt 0.4812 0.4921 0.0000
vt 0.4813 0.4916 0.0000
vt 0.4811 0.4911 0.0000
vt 0.4812 0.4920 0.0000
vt 0.4811 0.4921 0.0000
vt 0.4808 0.4916 0.0000
vt 0.4809 0.4918 0.0000
vt 0.4816 0.4924 0.0000
vt 0.4809 0.4919 0.0000
vt 0.4810 0.4920 0.0000
vt 0.4810 0.4921 0.0000
vt 0.4769 0.4900 0.0000
vt 0.4805 0.4904 0.0000
vt 0.4823 0.4897 0.0000
vt 0.4826 0.4891 0.0000
vt 0.4813 0.4902 0.0000
vt 0.4811 0.4903 0.0000
vt 0.4811 0.4901 0.0000
vt 0.4814 0.4901 0.0000
vt 0.4817 0.4900 0.0000
vt 0.4819 0.4899 0.0000
vt 0.4813 0.4899 0.0000
vt 0.4812 0.4901 0.0000
vt 0.4814 0.4897 0.0000
vt 0.4819 0.4895 0.0000
vt 0.4814 0.4898 0.0000
vt 0.4817 0.4893 0.0000
vt 0.4820 0.4894 0.0000
vt 0.4858 0.4858 0.0000
vt 0.4843 0.4878 0.0000
vt 0.4812 0.4903 0.0000
vt 0.4809 0.4905 0.0000
vt 0.4807 0.4908 0.0000
vt 0.4806 0.4914 0.0000
vt 0.4805 0.4918 0.0000
vt 0.4805 0.4916 0.0000
vt 0.4800 0.4926 0.0000
vt 0.4796 0.4929 0.0000
vt 0.4801 0.4923 0.0000
vt 0.4802 0.4923 0.0000
vt 0.4802 0.4922 0.0000
vt 0.4803 0.4921 0.0000
vt 0.4804 0.4919 0.0000
vt 0.4812 0.4902 0.0000
vt 0.4826 0.4932 0.0000
vt 0.4808 0.4904 0.0000
vt 0.4807 0.4904 0.0000
vt 0.4806 0.4904 0.0000
vt 0.4796 0.4907 0.0000
vt 0.4797 0.4906 0.0000
vt 0.4801 0.4906 0.0000
vt 0.4804 0.4905 0.0000
vt 0.4806 0.4905 0.0000
vt 0.4795 0.4937 0.0000
vt 0.4797 0.4922 0.0000
vt 0.4806 0.4916 0.0000
vt 0.4807 0.4914 0.0000
vt 0.4807 0.4910 0.0000
vt 0.4807 0.4907 0.0000
vt 0.4805 0.4905 0.0000
vt 0.4803 0.4905 0.0000
vt 0.4801 0.4905 0.0000
vt 0.4792 0.4911 0.0000
vt 0.4781 0.4905 0.0000
vt 0.4789 0.4947 0.0000
vt 0.4780 0.4874 0.0000
vt 0.4822 0.4750 0.0000
vt 0.4829 0.4854 0.0000
vt 0.4798 0.4857 0.0000
vt 0.4795 0.4862 0.0000
vt 0.4792 0.4865 0.0000
vt 0.4793 0.4868 0.0000
vt 0.4795 0.4861 0.0000
vt 0.4799 0.4858 0.0000
vt 0.4801 0.4856 0.0000
vt 0.4797 0.4859 0.0000
vt 0.4799 0.4855 0.0000
vt 0.4797 0.4862 0.0000
vt 0.4795 0.4864 0.0000
vt 0.4802 0.4855 0.0000
vt 0.4821 0.4856 0.0000
vt 0.4814 0.4855 0.0000
vt 0.4803 0.4854 0.0000
vt 0.4802 0.4848 0.0000
vt 0.4804 0.4848 0.0000
vt 0.4797 0.4835 0.0000
vt 0.4801 0.4839 0.0000
vt 0.4803 0.4845 0.0000
vt 0.4802 0.4853 0.0000
vt 0.4801 0.4851 0.0000
vt 0.4813 0.4811 0.0000
vt 0.4817 0.4782 0.0000
vt 0.4804 0.4804 0.0000
vt 0.4797 0.4817 0.0000
vt 0.4782 0.4884 0.0000
vt 0.4788 0.4872 0.0000
vt 0.4798 0.4860 0.0000
vt 0.4800 0.4858 0.0000
vt 0.4799 0.4859 0.0000
vt 0.4801 0.4854 0.0000
vt 0.4805 0.4839 0.0000
vt 0.4807 0.4837 0.0000
vt 0.4813 0.4834 0.0000
vt 0.4800 0.4856 0.0000
vt 0.4802 0.4830 0.0000
vt 0.4806 0.4823 0.0000
vt 0.4872 0.4768 0.0000
vt 0.4865 0.4754 0.0000
vt 0.4858 0.4750 0.0000
vt 0.9832 0.6826 0.0000
vt 0.9832 0.4691 0.0000
vt 0.8294 0.4691 0.0000
vt 0.8294 0.6826 0.0000
vt 0.4870 0.4776 0.0000
vt 0.4769 0.5224 0.0000
vt 0.4778 0.5147 0.0000
vt 0.4759 0.5132 0.0000
vt 0.4750 0.5168 0.0000
vt 0.4789 0.5068 0.0000
vt 0.4792 0.5035 0.0000
vt 0.4781 0.5032 0.0000
vt 0.4784 0.5058 0.0000
vt 0.4785 0.5057 0.0000
vt 0.4790 0.5018 0.0000
vt 0.4782 0.5004 0.0000
vt 0.4781 0.5021 0.0000
vt 0.4798 0.5008 0.0000
vt 0.4810 0.4987 0.0000
vt 0.4804 0.4976 0.0000
vt 0.4791 0.5000 0.0000
vt 0.4792 0.4990 0.0000
vt 0.4808 0.4961 0.0000
vt 0.4795 0.4942 0.0000
vt 0.4780 0.4974 0.0000
vt 0.4792 0.4987 0.0000
vt 0.4792 0.4996 0.0000
vt 0.4797 0.5015 0.0000
vt 0.4796 0.4998 0.0000
vt 0.4815 0.5069 0.0000
vt 0.4801 0.5053 0.0000
vt 0.4796 0.5084 0.0000
vt 0.9831 0.6826 0.0000
vt 0.9831 0.4691 0.0000
vt 0.4812 0.5122 0.0000
vt 0.4799 0.5008 0.0000
vt 0.4802 0.5009 0.0000
vt 0.4802 0.5014 0.0000
vt 0.4799 0.5019 0.0000
vt 0.4802 0.5039 0.0000
vt 0.4804 0.5024 0.0000
vt 0.4798 0.5030 0.0000
vt 0.4798 0.5052 0.0000
vt 0.4816 0.5009 0.0000
vt 0.4813 0.4975 0.0000
vt 0.4803 0.4984 0.0000
vt 0.4805 0.5008 0.0000
vt 0.4808 0.5010 0.0000
vt 0.4809 0.4997 0.0000
vt 0.4807 0.4999 0.0000
vt 0.4804 0.5012 0.0000
vt 0.4800 0.4857 0.0000
vt 0.4802 0.4844 0.0000
vt 0.4801 0.4852 0.0000
vt 0.4803 0.4853 0.0000
vt 0.4805 0.4842 0.0000
vt 0.4805 0.4837 0.0000
vt 0.4799 0.4852 0.0000
vt 0.4802 0.4856 0.0000
vt 0.4813 0.4837 0.0000
vt 0.4795 0.4833 0.0000
vt 0.4801 0.4838 0.0000
vt 0.4804 0.4830 0.0000
vt 0.4797 0.4821 0.0000
vt 0.4802 0.4801 0.0000
vt 0.4806 0.4820 0.0000
vt 0.4817 0.4811 0.0000
vt 0.4815 0.4787 0.0000
vt 0.4790 0.4868 0.0000
vt 0.4783 0.4880 0.0000
vt 0.4790 0.4875 0.0000
vt 0.4794 0.4866 0.0000
vt 0.4797 0.4861 0.0000
vt 0.4799 0.4861 0.0000
vt 0.4800 0.4859 0.0000
vt 0.4793 0.4864 0.0000
vt 0.4796 0.4862 0.0000
vt 0.4798 0.4859 0.0000
vt 0.4797 0.4858 0.0000
vt 0.4825 0.4852 0.0000
vt 0.4803 0.4858 0.0000
vt 0.4820 0.4858 0.0000
vt 0.4811 0.4854 0.0000
vt 0.4804 0.4852 0.0000
vt 0.4803 0.4850 0.0000
vt 0.4805 0.4851 0.0000
vt 0.4795 0.4928 0.0000
vt 0.4790 0.4944 0.0000
vt 0.4795 0.4939 0.0000
vt 0.8294 0.4690 0.0000
vt 0.9831 0.4690 0.0000
vt 0.4799 0.4927 0.0000
vt 0.4802 0.4921 0.0000
vt 0.4800 0.4921 0.0000
vt 0.4804 0.4918 0.0000
vt 0.4806 0.4913 0.0000
vt 0.4807 0.4913 0.0000
vt 0.4808 0.4911 0.0000
vt 0.4809 0.4920 0.0000
vt 0.4801 0.4922 0.0000
vt 0.4809 0.4921 0.0000
vt 0.4803 0.4920 0.0000
vt 0.4804 0.4920 0.0000
vt 0.4809 0.4917 0.0000
vt 0.4805 0.4917 0.0000
vt 0.4808 0.4917 0.0000
vt 0.4824 0.4930 0.0000
vt 0.4817 0.4923 0.0000
vt 0.4815 0.4924 0.0000
vt 0.4820 0.4928 0.0000
vt 0.4815 0.4921 0.0000
vt 0.4813 0.4921 0.0000
vt 0.4813 0.4918 0.0000
vt 0.4810 0.4909 0.0000
vt 0.4811 0.4920 0.0000
vt 0.4813 0.4920 0.0000
vt 0.4813 0.4905 0.0000
vt 0.4808 0.4905 0.0000
vt 0.4807 0.4906 0.0000
vt 0.4806 0.4906 0.0000
vt 0.4807 0.4905 0.0000
vt 0.4802 0.4905 0.0000
vt 0.9832 0.4690 0.0000
vt 0.4790 0.4908 0.0000
vt 0.4784 0.4907 0.0000
vt 0.4795 0.4908 0.0000
vt 0.4814 0.4900 0.0000
vt 0.4807 0.4903 0.0000
vt 0.4816 0.4901 0.0000
vt 0.4819 0.4898 0.0000
vt 0.4806 0.4903 0.0000
vt 0.4822 0.4899 0.0000
vt 0.4812 0.4900 0.0000
vt 0.4813 0.4900 0.0000
vt 0.4816 0.4897 0.0000
vt 0.4817 0.4896 0.0000
vt 0.4813 0.4898 0.0000
vt 0.4822 0.4889 0.0000
vt 0.4821 0.4893 0.0000
vt 0.4826 0.4892 0.0000
vt 0.4836 0.4882 0.0000
# 423 texture coords

g SPB_Bank
usemtl SPB_Bank
s off
f 1/1/1 2/1/1 3/2/1 4/2/1 
f 2/1/2 5/3/2 6/4/2 3/2/2 
f 5/3/3 7/3/3 8/4/3 6/4/3 
f 7/3/4 1/1/4 4/2/4 8/4/4 
f 4/2/5 3/2/5 6/4/5 8/4/5 
f 7/3/6 5/3/6 2/1/6 1/1/6 
f 9/5/1 10/5/1 11/6/1 12/6/1 
f 10/5/2 13/7/2 14/8/2 11/6/2 
f 13/7/3 15/7/3 16/8/3 14/8/3 
f 15/7/4 9/5/4 12/6/4 16/8/4 
f 12/6/5 11/6/5 14/8/5 16/8/5 
f 15/7/6 13/7/6 10/5/6 9/5/6 
f 17/9/1 18/10/1 19/11/1 20/12/1 
f 18/9/2 21/10/2 22/11/2 19/12/2 
f 21/9/3 23/10/3 24/11/3 22/12/3 
f 23/9/4 17/10/4 20/11/4 24/12/4 
f 20/9/5 19/10/5 22/11/5 24/12/5 
f 23/9/6 21/10/6 18/11/6 17/12/6 
f 25/9/1 26/10/1 27/11/1 28/12/1 
f 26/9/2 29/10/2 30/11/2 27/12/2 
f 29/9/3 31/10/3 32/11/3 30/12/3 
f 31/9/4 25/10/4 28/11/4 32/12/4 
f 28/9/5 27/10/5 30/11/5 32/12/5 
f 31/9/6 29/10/6 26/11/6 25/12/6 
s 1
f 33/13/1 34/14/1 35/15/1 36/16/1 
s 2
f 37/13/2 38/14/2 39/15/2 40/16/2 
s 1
f 38/13/3 41/14/3 42/15/3 39/16/3 
s 2
f 43/13/4 33/14/4 36/15/4 44/16/4 
f 45/13/2 40/14/2 46/15/2 47/16/2 
s 4
f 43/13/6 48/14/6 34/15/6 33/16/6 
f 41/13/6 38/14/6 37/15/6 49/16/6 
f 49/13/6 37/14/6 48/15/6 43/16/6 
s 2
f 44/13/4 36/14/4 50/15/4 51/16/4 
f 52/13/4 44/14/4 51/15/4 53/16/4 
f 41/13/4 49/14/4 52/15/4 42/16/4 
s 1
f 43/9/1 44/10/1 54/11/1 55/12/1 
s 2
f 34/13/2 48/14/2 45/15/2 35/16/2 
f 48/13/2 37/14/2 40/15/2 45/16/2 
f 56/9/4 55/10/4 54/11/4 57/12/4 
s 1
f 52/9/3 49/10/3 56/11/3 57/12/3 
f 52/9/3 57/10/3 58/11/3 59/12/3 
s 4
f 49/9/6 43/10/6 55/11/6 56/12/6 
f 53/13/5 46/14/5 60/15/5 61/16/5 
f 50/13/5 62/14/5 47/15/5 51/16/5 
f 51/13/5 47/14/5 46/15/5 53/16/5 
s 2
f 40/13/2 39/14/2 60/15/2 46/16/2 
f 42/13/4 52/14/4 53/15/4 61/16/4 
s 1
f 39/13/3 42/14/3 61/15/3 60/16/3 
s 2
f 35/13/2 45/14/2 47/15/2 62/16/2 
s 1
f 36/13/1 35/14/1 62/15/1 50/16/1 
s off
f 63/9/5 59/10/5 58/11/5 64/12/5 
s 1
f 54/9/1 44/10/1 63/11/1 64/12/1 
s 2
f 57/9/4 54/10/4 64/11/4 58/12/4 
s off
f 44/13/2 52/14/2 59/15/2 63/16/2 
f 65/17/1 66/18/1 67/19/1 68/20/1 
f 66/17/2 69/18/2 70/19/2 67/20/2 
f 69/17/3 71/18/3 72/19/3 70/20/3 
f 71/17/4 65/18/4 68/19/4 72/20/4 
f 68/17/5 67/18/5 70/19/5 72/20/5 
f 71/17/6 69/18/6 66/19/6 65/20/6 
f 73/17/1 74/18/1 75/19/1 76/20/1 
f 74/17/2 77/18/2 78/19/2 75/20/2 
f 77/17/3 79/18/3 80/19/3 78/20/3 
f 79/17/4 73/18/4 76/19/4 80/20/4 
f 76/17/5 75/18/5 78/19/5 80/20/5 
f 79/17/6 77/18/6 74/19/6 73/20/6 
f 81/21/1 82/21/1 83/22/1 84/22/1 
f 82/21/2 85/23/2 86/24/2 83/22/2 
f 85/23/3 87/23/3 88/24/3 86/24/3 
f 87/23/4 81/21/4 84/22/4 88/24/4 
f 84/22/5 83/22/5 86/24/5 88/24/5 
f 87/23/6 85/23/6 82/21/6 81/21/6 
f 89/25/1 90/25/1 91/26/1 92/26/1 
f 90/25/2 93/27/2 94/28/2 91/26/2 
f 93/27/3 95/27/3 96/28/3 94/28/3 
f 95/27/4 89/25/4 92/26/4 96/28/4 
f 92/26/5 91/26/5 94/28/5 96/28/5 
f 95/27/6 93/27/6 90/25/6 89/25/6 
f 97/29/1 98/30/1 99/31/1 100/32/1 
f 101/29/4 97/30/4 100/31/4 102/32/4 
s 1
f 103/33/6 104/34/6 105/35/6 98/36/6 
f 106/37/6 103/33/6 98/36/6 97/38/6 
f 101/37/6 105/33/6 104/34/6 107/35/6 
f 97/38/6 101/37/6 107/35/6 106/36/6 
s off
f 98/29/2 105/30/2 108/31/2 99/32/2 
s 1
f 109/33/5 110/34/5 108/35/5 102/36/5 
f 111/37/5 109/33/5 102/36/5 100/38/5 
f 99/37/5 108/33/5 110/34/5 112/35/5 
f 100/38/5 99/37/5 112/35/5 111/36/5 
s off
f 105/29/3 101/30/3 102/31/3 108/32/3 
f 103/29/3 106/30/3 111/31/3 112/32/3 
f 104/29/4 103/30/4 112/31/4 110/32/4 
f 106/29/2 107/30/2 109/31/2 111/32/2 
f 107/29/1 104/30/1 110/31/1 109/32/1 
f 113/39/1 114/40/1 115/41/1 116/42/1 
f 117/39/4 113/40/4 116/41/4 118/42/4 
f 119/43/6 120/44/6 121/45/6 114/46/6 
f 122/47/6 119/43/6 114/46/6 113/48/6 
f 117/47/6 121/43/6 120/44/6 123/45/6 
f 113/48/6 117/47/6 123/45/6 122/46/6 
f 114/39/2 121/40/2 124/41/2 115/42/2 
s 1
f 125/43/5 126/44/5 124/45/5 118/46/5 
f 127/47/5 125/43/5 118/46/5 116/48/5 
f 115/47/5 124/43/5 126/44/5 128/45/5 
f 116/48/5 115/47/5 128/45/5 127/46/5 
s off
f 121/39/3 117/40/3 118/41/3 124/42/3 
f 119/39/3 122/40/3 127/41/3 128/42/3 
f 120/39/4 119/40/4 128/41/4 126/42/4 
f 122/39/2 123/40/2 125/41/2 127/42/2 
f 123/39/1 120/40/1 126/41/1 125/42/1 
f 129/49/1 130/50/1 131/51/1 132/52/1 
f 130/49/2 133/50/2 134/51/2 131/52/2 
f 133/49/3 135/50/3 136/51/3 134/52/3 
f 135/49/4 129/50/4 132/51/4 136/52/4 
f 132/49/5 131/50/5 134/51/5 136/52/5 
f 135/49/6 133/50/6 130/51/6 129/52/6 
f 137/53/1 138/54/1 139/55/1 140/56/1 
f 138/53/2 141/54/2 142/55/2 139/56/2 
f 141/53/3 143/54/3 144/55/3 142/56/3 
f 143/53/4 137/54/4 140/55/4 144/56/4 
f 140/53/5 139/54/5 142/55/5 144/56/5 
f 143/57/6 141/58/6 138/59/6 137/60/6 
f 145/61/1 146/62/1 147/63/1 148/64/1 
f 146/61/2 149/62/2 150/63/2 147/64/2 
f 149/61/3 151/62/3 152/63/3 150/64/3 
f 151/61/4 145/62/4 148/63/4 152/64/4 
f 148/61/7 147/62/7 150/63/7 152/64/7 
f 151/61/6 149/62/6 146/63/6 145/64/6 
f 153/65/1 154/66/1 155/67/1 156/68/1 
f 154/65/2 157/66/2 158/67/2 155/68/2 
f 157/65/3 159/66/3 160/67/3 158/68/3 
f 159/65/4 153/66/4 156/67/4 160/68/4 
f 156/65/7 155/66/7 158/67/7 160/68/7 
f 159/65/6 157/66/6 154/67/6 153/68/6 
f 161/65/1 162/66/1 163/67/1 164/68/1 
f 162/65/2 165/66/2 166/67/2 163/68/2 
f 165/65/3 167/66/3 168/67/3 166/68/3 
f 167/65/4 161/66/4 164/67/4 168/68/4 
f 164/65/5 163/66/5 166/67/5 168/68/5 
f 167/65/6 165/66/6 162/67/6 161/68/6 
f 169/69/1 170/70/1 171/71/1 172/72/1 
f 170/69/2 173/70/2 174/71/2 171/72/2 
f 173/69/3 175/70/3 176/71/3 174/72/3 
f 175/73/4 169/74/4 172/75/4 176/76/4 
f 172/69/5 171/70/5 174/71/5 176/72/5 
f 175/69/6 173/70/6 170/71/6 169/72/6 
f 177/77/1 178/77/1 179/78/1 180/78/1 
f 178/77/2 181/79/2 182/80/2 179/78/2 
f 181/79/3 183/79/3 184/80/3 182/80/3 
f 183/79/4 177/77/4 180/78/4 184/80/4 
f 180/78/5 179/78/5 182/80/5 184/80/5 
f 183/79/6 181/79/6 178/77/6 177/77/6 
f 185/81/1 186/82/1 187/83/1 188/84/1 
f 185/85/4 188/86/4 189/87/4 190/88/4 
f 191/89/4 185/85/4 190/88/4 192/90/4 
f 191/89/8 192/90/8 193/91/8 194/92/8 
f 191/81/9 195/82/9 186/83/9 185/84/9 
f 186/81/2 195/82/2 196/83/2 187/84/2 
f 196/86/5 194/87/5 193/88/5 197/90/5 
f 187/85/5 196/86/5 197/90/5 198/91/5 
f 188/89/5 187/85/5 198/91/5 189/92/5 
f 195/81/3 191/82/3 194/83/3 196/84/3 
f 190/81/3 189/82/3 198/83/3 199/84/3 
f 192/81/5 190/82/5 199/83/5 200/84/5 
f 200/81/1 197/82/1 193/83/1 192/84/1 
s 1
f 197/93/8 200/88/8 201/94/8 202/95/4 
f 198/96/4 197/93/8 202/95/4 203/89/8 
f 204/89/4 201/96/8 200/93/8 199/88/4 
f 204/89/4 199/88/4 198/94/4 203/95/8 
s off
f 204/81/3 203/82/3 205/83/3 206/84/3 
f 201/81/5 204/82/5 206/83/5 207/84/5 
f 206/97/4 205/98/4 208/99/4 207/100/4 
f 203/81/6 202/82/6 208/83/6 205/84/6 
f 202/81/1 201/82/1 207/83/1 208/84/1 
f 209/101/1 210/102/1 211/103/1 212/104/1 
f 213/101/4 209/102/4 212/103/4 214/104/4 
f 215/105/6 216/106/6 210/107/6 217/108/6 
f 210/107/10 209/109/10 213/110/10 218/111/10 
f 210/107/6 218/111/6 217/108/6 
f 215/105/6 217/108/6 219/112/6 
f 210/101/2 216/102/2 220/103/2 211/104/2 
f 212/105/5 211/106/5 220/107/5 221/108/5 
f 220/107/5 222/109/5 223/110/5 224/111/5 
f 220/107/5 224/111/5 221/108/5 
f 212/105/5 221/108/5 214/112/5 
f 215/101/4 219/102/4 223/103/4 222/104/4 
f 216/101/3 215/102/3 222/103/3 220/104/3 
f 218/101/3 213/102/3 214/103/3 221/104/3 
f 217/101/4 218/102/4 221/103/4 224/104/4 
f 223/101/1 219/102/1 217/103/1 224/104/1 
f 225/113/1 226/113/1 227/114/1 228/114/1 
f 226/113/2 229/115/2 230/116/2 227/114/2 
f 229/115/3 231/115/3 232/116/3 230/116/3 
f 231/115/4 225/113/4 228/114/4 232/116/4 
f 228/114/5 227/114/5 230/116/5 232/116/5 
f 231/115/6 229/115/6 226/113/6 225/113/6 
f 233/1/1 234/1/1 235/2/1 236/2/1 
f 234/1/2 237/3/2 238/4/2 235/2/2 
f 237/3/3 239/3/3 240/4/3 238/4/3 
f 239/3/4 233/1/4 236/2/4 240/4/4 
f 236/2/5 235/2/5 238/4/5 240/4/5 
f 239/3/6 237/3/6 234/1/6 233/1/6 
f 241/5/1 242/5/1 243/6/1 244/6/1 
f 242/5/2 245/7/2 246/8/2 243/6/2 
f 245/7/3 247/7/3 248/8/3 246/8/3 
f 247/7/4 241/5/4 244/6/4 248/8/4 
f 244/6/5 243/6/5 246/8/5 248/8/5 
f 247/7/6 245/7/6 242/5/6 241/5/6 
f 249/5/1 250/5/1 251/6/1 252/6/1 
f 250/5/2 253/7/2 254/8/2 251/6/2 
f 253/7/3 255/7/3 256/8/3 254/8/3 
f 255/7/4 249/5/4 252/6/4 256/8/4 
f 252/6/5 251/6/5 254/8/5 256/8/5 
f 255/7/6 253/7/6 250/5/6 249/5/6 
f 257/1/1 258/1/1 259/2/1 260/2/1 
f 258/1/2 261/3/2 262/4/2 259/2/2 
f 261/3/3 263/3/3 264/4/3 262/4/3 
f 263/3/4 257/1/4 260/2/4 264/4/4 
f 260/2/5 259/2/5 262/4/5 264/4/5 
f 263/3/6 261/3/6 258/1/6 257/1/6 
s 1
f 265/117/1 266/118/1 267/119/1 268/120/1 
f 269/121/1 270/122/1 271/123/1 268/120/1 
f 268/120/1 271/123/1 272/124/1 265/117/1 
f 273/125/1 265/117/1 272/124/1 274/126/1 
f 275/127/1 276/128/1 277/129/1 278/130/1 
f 279/131/1 280/132/1 281/133/1 282/134/1 
f 283/135/1 279/131/1 282/134/1 284/136/1 
f 269/121/1 268/120/1 285/137/1 286/138/1 
f 282/134/1 286/138/1 285/137/1 284/136/1 
f 266/118/1 287/139/1 288/140/1 267/119/1 
f 284/136/1 267/119/1 288/140/1 289/141/1 
f 283/135/1 284/136/1 289/141/1 290/142/1 
f 278/130/1 290/142/1 289/141/1 291/143/1 
f 275/127/1 278/130/1 291/143/1 292/144/1 
f 293/145/1 292/144/1 291/143/1 
f 294/146/1 295/147/1 296/148/1 297/149/1 
f 298/150/1 280/132/1 279/131/1 296/148/1 
f 296/148/1 279/131/1 299/151/1 300/152/1 
f 299/151/1 290/142/1 278/130/1 300/152/1 
f 296/148/1 300/152/1 297/149/1 
f 294/146/1 297/149/1 277/129/1 276/128/1 
f 294/146/1 276/128/1 301/153/1 
f 302/136/1 269/121/1 286/138/1 303/154/1 
f 303/154/1 286/138/1 304/155/1 305/156/1 
f 306/157/1 280/132/1 298/150/1 307/158/1 
f 308/159/1 296/148/1 295/147/1 307/158/1 
f 306/157/1 307/158/1 295/147/1 309/160/1 
f 310/161/1 309/160/1 295/147/1 311/162/1 
f 305/156/1 310/161/1 311/162/1 303/154/1 
f 270/122/1 303/154/1 311/162/1 271/123/1 
f 312/163/1 271/123/1 311/162/1 313/164/1 
f 274/126/1 312/163/1 313/164/1 273/125/1 
f 287/139/1 273/125/1 313/164/1 288/140/1 
f 293/145/1 288/140/1 313/164/1 292/144/1 
f 301/153/1 292/144/1 313/164/1 294/146/1 
f 309/160/1 310/161/1 314/165/1 315/166/1 
f 314/165/1 304/155/1 286/167/1 315/166/1 
f 309/160/1 315/166/1 316/168/1 281/133/1 
f 281/133/1 316/168/1 282/169/1 
s 2
f 317/170/4 318/171/11 319/172/11 320/173/4 
f 321/174/4 322/175/11 323/176/11 324/177/4 
f 324/177/4 325/178/4 326/179/4 327/180/4 
f 321/174/4 324/177/4 327/180/4 320/173/4 
f 317/170/4 320/173/4 327/180/4 328/181/4 
f 328/181/4 327/180/4 329/182/4 330/183/4 
f 328/181/4 330/183/4 331/184/4 332/184/4 
f 333/185/8 334/186/4 335/187/4 336/188/8 
f 337/189/4 338/190/4 339/191/4 340/192/4 
f 341/193/4 340/192/4 339/191/4 342/194/4 
f 335/187/4 342/194/4 339/191/4 343/195/4 
f 343/195/4 344/196/11 345/196/11 346/197/4 
f 335/187/4 343/195/4 346/197/4 347/198/4 
f 347/198/4 348/199/11 349/200/11 350/201/4 
f 335/187/4 347/198/4 350/201/4 336/188/8 
f 351/202/12 333/185/8 336/188/8 352/203/8 
f 294/146/11 351/202/12 352/203/8 349/200/11 
f 294/146/11 349/200/11 348/199/11 345/196/11 
f 294/146/11 345/196/11 344/196/11 353/204/12 
f 353/204/12 354/205/4 355/206/4 356/207/4 
f 353/204/12 356/207/4 357/208/4 358/209/4 
f 359/210/4 360/211/4 361/212/4 362/213/4 
f 357/208/4 362/213/4 361/212/4 363/214/4 
f 363/214/4 331/184/4 330/183/4 364/215/4 
f 357/208/4 363/214/4 364/215/4 365/216/4 
f 365/216/4 329/182/4 327/180/4 366/208/4 
f 357/208/4 365/216/4 366/208/4 358/209/4 
f 353/204/12 358/209/4 326/179/4 325/178/4 
f 353/204/12 325/178/4 367/217/12 294/146/11 
f 294/146/11 367/217/12 323/176/11 322/175/11 
f 294/146/11 322/175/11 319/172/11 318/171/11 
f 294/146/11 318/171/11 368/218/4 
f 339/191/4 338/190/4 369/219/4 354/205/4 
f 370/219/4 337/189/4 340/192/4 371/220/4 
f 372/221/4 341/193/4 342/194/4 373/221/4 
f 373/221/4 334/186/4 374/222/4 375/223/4 
f 372/221/4 373/221/4 375/223/4 371/220/4 
f 370/219/4 371/220/4 375/223/4 369/219/4 
f 369/219/4 375/223/4 376/224/4 377/225/4 
f 369/219/4 377/225/4 378/226/4 354/205/4 
f 353/204/12 339/191/4 354/205/4 
f 379/227/4 359/210/4 362/213/4 380/228/4 
f 381/229/4 357/208/4 356/207/4 382/230/4 
f 383/231/4 355/206/4 354/205/4 384/232/4 
f 385/233/4 378/226/4 377/225/4 386/234/4 
f 387/235/4 376/224/4 375/223/4 388/236/4 
f 374/222/4 334/186/4 333/185/8 389/237/4 
f 388/236/4 389/237/4 333/185/8 387/235/4 
f 386/234/4 387/235/4 333/185/8 385/233/4 
f 384/232/4 385/233/4 333/185/8 383/231/4 
f 382/230/4 383/231/4 333/185/8 381/229/4 
f 380/228/4 381/229/4 333/185/8 379/227/4 
f 390/238/4 379/227/4 333/185/8 295/147/4 
f 360/211/4 390/238/4 295/147/4 361/212/4 
f 332/184/4 361/212/4 295/147/4 328/181/4 
f 368/218/4 328/181/4 295/147/4 294/146/11 
s off
f 333/185/6 391/239/6 311/162/6 295/147/6 
f 311/162/2 391/239/2 392/240/2 313/164/2 
f 294/146/5 313/164/5 392/240/5 351/202/5 
s 1
f 351/202/3 393/241/3 394/242/3 395/243/3 
f 351/202/3 395/243/3 396/244/3 397/245/3 
f 398/246/3 399/247/3 400/248/3 401/249/3 
f 401/249/3 402/250/3 403/248/3 404/247/3 
f 398/246/3 401/249/3 404/247/3 396/244/3 
f 396/244/3 404/247/3 405/251/3 406/252/3 
f 396/244/3 406/252/3 397/245/3 
f 351/202/3 397/245/3 333/185/3 
f 399/247/3 395/243/3 394/242/3 400/248/3 
f 407/253/3 408/254/3 409/255/3 410/256/3 
f 411/257/3 412/258/3 413/259/3 414/260/3 
f 411/257/3 414/260/3 415/261/3 410/256/3 
f 416/262/3 417/248/3 418/248/3 419/248/3 
f 419/248/3 403/248/3 402/250/3 420/263/3 
f 416/262/3 419/248/3 420/263/3 415/261/3 
f 410/256/3 415/261/3 420/263/3 407/253/3 
f 394/242/3 407/253/3 420/263/3 400/248/3 
f 392/240/3 391/239/3 421/264/3 422/265/3 
f 351/202/3 392/240/3 422/265/3 423/266/3 
f 351/202/3 423/266/3 424/267/3 413/259/3 
f 351/202/3 413/259/3 412/258/3 409/255/3 
f 351/202/3 409/255/3 408/254/3 393/241/3 
f 333/185/3 397/245/3 425/268/3 391/239/3 
f 426/269/3 406/252/3 405/251/3 427/270/3 
f 428/271/3 404/247/3 403/248/3 429/271/3 
f 430/271/3 419/248/3 418/248/3 431/272/3 
f 417/248/3 416/262/3 432/273/3 433/273/3 
f 432/273/3 434/274/3 435/275/3 433/273/3 
f 417/248/3 433/273/3 436/242/3 391/239/3 
f 436/242/3 437/276/3 391/239/3 
f 438/277/3 417/248/3 391/239/3 431/272/3 
f 430/271/3 431/272/3 391/239/3 429/271/3 
f 428/271/3 429/271/3 391/239/3 427/270/3 
f 426/269/3 427/270/3 391/239/3 425/268/3 
f 434/274/3 415/261/3 414/260/3 435/275/3 
f 435/275/3 414/260/3 439/278/3 440/279/3 
f 439/278/3 424/267/3 423/266/3 440/279/3 
f 437/276/3 435/275/3 440/279/3 421/264/3 
f 391/239/3 437/276/3 421/264/3 
s off
f 282/169/2 316/168/2 441/280/2 442/281/2 
f 286/167/6 282/169/6 442/281/6 443/282/6 
f 444/283/1 443/284/1 442/285/1 441/286/1 
f 316/168/5 315/166/5 444/287/5 441/280/5 
f 315/166/4 286/167/4 443/282/4 444/287/4 
f 304/155/2 314/165/2 445/288/2 446/289/2 
f 305/156/6 304/155/6 446/289/6 447/290/6 
f 448/283/1 447/284/1 446/285/1 445/286/1 
f 314/165/5 310/161/5 448/291/5 445/288/5 
f 310/161/11 305/156/11 447/290/11 448/291/11 
f 267/119/2 284/136/2 449/292/2 450/293/2 
f 268/120/6 267/119/6 450/293/6 451/294/6 
f 452/283/1 451/284/1 450/285/1 449/286/1 
f 284/136/5 285/137/5 452/295/5 449/292/5 
f 285/137/4 268/120/4 451/294/4 452/295/4 
f 269/121/2 302/136/2 453/296/2 454/297/2 
f 270/122/6 269/121/6 454/297/6 455/298/6 
f 456/283/1 455/284/1 454/285/1 453/286/1 
f 302/136/5 303/154/5 456/299/5 453/296/5 
f 303/154/4 270/122/4 455/298/4 456/299/4 
f 287/139/2 266/118/2 457/300/2 458/301/2 
f 273/125/6 287/139/6 458/301/6 459/302/6 
f 460/283/1 459/284/1 458/285/1 457/286/1 
f 266/118/5 265/117/5 460/303/5 457/300/5 
f 265/117/4 273/125/4 459/302/4 460/303/4 
f 274/126/2 272/124/2 461/304/2 462/305/2 
f 312/163/9 274/126/9 462/305/9 463/306/9 
f 464/283/1 463/284/1 462/285/1 461/286/1 
f 272/124/5 271/123/5 464/307/5 461/304/5 
f 271/123/4 312/163/4 463/306/4 464/307/4 
f 296/148/2 308/159/2 465/308/2 466/309/2 
f 298/150/6 296/148/6 466/309/6 467/310/6 
f 468/283/1 467/284/1 466/285/1 465/286/1 
f 308/159/5 307/158/5 468/311/5 465/308/5 
f 307/158/4 298/150/4 467/310/4 468/311/4 
f 280/132/2 306/157/2 469/312/2 470/313/2 
f 281/133/6 280/132/6 470/313/6 471/314/6 
f 472/315/1 471/316/1 470/285/1 469/286/1 
f 306/157/5 309/160/5 472/317/5 469/312/5 
f 309/160/4 281/133/4 471/314/4 472/317/4 
f 277/129/2 297/149/2 473/318/2 474/319/2 
f 278/130/6 277/129/6 474/319/6 475/320/6 
f 476/283/1 475/284/1 474/285/1 473/286/1 
f 297/149/5 300/152/5 476/321/5 473/318/5 
f 300/152/4 278/130/4 475/320/4 476/321/4 
f 290/142/2 299/151/2 477/322/2 478/323/2 
f 283/135/6 290/142/6 478/323/6 479/324/6 
f 480/315/1 479/316/1 478/285/1 477/286/1 
f 299/151/5 279/131/5 480/325/5 477/322/5 
f 279/131/4 283/135/4 479/324/4 480/325/4 
f 301/153/2 276/128/2 481/326/2 482/327/2 
f 292/144/6 301/153/6 482/327/6 483/328/6 
f 484/283/1 483/284/1 482/285/1 481/286/1 
f 276/128/5 275/127/5 484/329/5 481/326/5 
f 275/127/4 292/144/4 483/328/4 484/329/4 
f 293/145/2 291/143/2 485/330/2 486/331/2 
f 288/140/6 293/145/6 486/331/6 487/332/6 
f 488/315/1 487/316/1 486/285/1 485/286/1 
f 291/143/5 289/141/5 488/333/5 485/330/5 
f 289/141/4 288/140/4 487/332/4 488/333/4 
f 429/271/2 403/248/2 489/248/2 490/334/2 
f 430/271/5 429/271/5 490/334/5 491/271/5 
f 490/286/3 489/285/3 492/284/3 491/283/3 
f 403/248/6 419/248/6 492/248/6 489/248/6 
f 419/248/4 430/271/4 491/271/4 492/248/4 
f 431/272/2 418/248/2 493/277/2 494/247/2 
f 438/277/5 431/272/5 494/247/5 495/334/5 
f 494/286/3 493/285/3 496/284/3 495/283/3 
f 418/248/6 417/248/6 496/248/6 493/277/6 
f 417/248/11 438/277/11 495/334/11 496/248/11 
f 416/262/2 415/261/2 497/335/2 498/336/2 
f 432/273/5 416/262/5 498/336/5 499/337/5 
f 498/286/3 497/285/3 500/284/3 499/283/3 
f 415/261/6 434/274/6 500/338/6 497/335/6 
f 434/274/4 432/273/4 499/337/4 500/338/4 
f 433/273/2 435/275/2 501/339/2 502/340/2 
f 436/242/5 433/273/5 502/340/5 503/341/5 
f 502/286/3 501/285/3 504/284/3 503/283/3 
f 435/275/6 437/276/6 504/342/6 501/339/6 
f 437/276/4 436/242/4 503/341/4 504/342/4 
f 414/260/2 413/259/2 505/343/2 506/344/2 
f 439/278/5 414/260/5 506/344/5 507/345/5 
f 506/286/3 505/285/3 508/284/3 507/283/3 
f 413/259/6 424/267/6 508/346/6 505/343/6 
f 424/267/4 439/278/4 507/345/4 508/346/4 
f 440/279/2 423/266/2 509/347/2 510/348/2 
f 421/264/5 440/279/5 510/348/5 511/349/5 
f 510/286/3 509/285/3 512/284/3 511/283/3 
f 423/266/9 422/265/9 512/350/9 509/347/9 
f 422/265/4 421/264/4 511/349/4 512/350/4 
f 425/268/2 397/245/2 513/351/2 514/352/2 
f 426/269/5 425/268/5 514/352/5 515/353/5 
f 514/286/3 513/285/3 516/284/3 515/283/3 
f 397/245/6 406/252/6 516/354/6 513/351/6 
f 406/252/4 426/269/4 515/353/4 516/354/4 
f 427/270/2 405/251/2 517/355/2 518/356/2 
f 428/271/5 427/270/5 518/356/5 519/357/5 
f 518/286/3 517/285/3 520/316/3 519/315/3 
f 405/251/6 404/247/6 520/247/6 517/355/6 
f 404/247/4 428/271/4 519/357/4 520/247/4 
f 396/244/2 395/243/2 521/246/2 522/358/2 
f 398/246/7 396/244/7 522/358/7 523/359/7 
f 522/286/3 521/285/3 524/284/3 523/283/3 
f 395/243/6 399/247/6 524/360/6 521/246/6 
f 399/247/4 398/246/4 523/359/4 524/360/4 
f 401/249/2 400/248/2 525/250/2 526/361/2 
f 402/250/5 401/249/5 526/361/5 527/277/5 
f 526/286/3 525/285/3 528/316/3 527/315/3 
f 400/248/9 420/263/9 528/336/9 525/250/9 
f 420/263/4 402/250/4 527/277/4 528/336/4 
f 394/242/2 393/241/2 529/362/2 530/273/2 
f 407/253/5 394/242/5 530/273/5 531/363/5 
f 530/286/3 529/285/3 532/284/3 531/283/3 
f 393/241/6 408/254/6 532/364/6 529/362/6 
f 408/254/4 407/253/4 531/363/4 532/364/4 
f 410/256/2 409/255/2 533/365/2 534/366/2 
f 411/257/5 410/256/5 534/366/5 535/367/5 
f 534/286/3 533/285/3 536/316/3 535/315/3 
f 409/255/6 412/258/6 536/368/6 533/365/6 
f 412/258/4 411/257/4 535/367/4 536/368/4 
f 390/238/3 360/211/3 537/369/3 538/370/3 
f 379/227/5 390/238/5 538/370/5 539/371/5 
f 538/286/4 537/372/4 540/373/4 539/315/4 
f 360/211/6 359/210/6 540/374/6 537/369/6 
f 359/210/1 379/227/1 539/371/1 540/374/1 
f 380/228/3 362/213/3 541/375/3 542/376/3 
f 381/229/5 380/228/5 542/376/5 543/377/5 
f 542/286/12 541/372/12 544/373/12 543/315/12 
f 362/213/6 357/208/6 544/216/6 541/375/6 
f 357/208/1 381/229/1 543/377/1 544/216/1 
f 382/230/3 356/207/3 545/378/3 546/379/3 
f 383/231/5 382/230/5 546/379/5 547/380/5 
f 546/286/11 545/372/11 548/373/11 547/315/11 
f 356/207/6 355/206/6 548/231/6 545/378/6 
f 355/206/1 383/231/1 547/380/1 548/231/1 
f 361/212/3 332/184/3 549/381/3 550/382/3 
f 363/214/5 361/212/5 550/382/5 551/213/5 
f 550/286/4 549/285/4 552/316/4 551/315/4 
f 332/184/10 331/184/10 552/383/10 549/381/10 
f 331/184/1 363/214/1 551/213/1 552/383/1 
f 364/215/3 330/183/3 553/182/3 554/384/3 
f 365/216/5 364/215/5 554/384/5 555/385/5 
f 554/286/4 553/285/4 556/316/4 555/315/4 
f 330/183/6 329/182/6 556/381/6 553/182/6 
f 329/182/1 365/216/1 555/385/1 556/381/1 
f 366/208/3 327/180/3 557/386/3 558/387/3 
f 358/209/5 366/208/5 558/387/5 559/387/5 
f 558/286/4 557/285/4 560/316/4 559/315/4 
f 327/180/6 326/179/6 560/388/6 557/386/6 
f 326/179/1 358/209/1 559/387/1 560/388/1 
f 328/181/3 368/218/3 561/389/3 562/390/3 
f 317/170/5 328/181/5 562/390/5 563/391/5 
f 562/286/4 561/285/4 564/316/4 563/315/4 
f 368/218/6 318/171/6 564/392/6 561/389/6 
f 318/171/1 317/170/1 563/391/1 564/392/1 
f 320/173/3 319/172/3 565/393/3 566/394/3 
f 321/174/5 320/173/5 566/394/5 567/394/5 
f 566/286/4 565/285/4 568/316/4 567/315/4 
f 319/172/6 322/175/6 568/395/6 565/393/6 
f 322/175/1 321/174/1 567/394/1 568/395/1 
f 324/177/3 323/176/3 569/396/3 570/397/3 
f 325/178/5 324/177/5 570/397/5 571/398/5 
f 570/286/4 569/285/4 572/316/4 571/315/4 
f 323/176/6 367/217/6 572/399/6 569/396/6 
f 367/217/1 325/178/1 571/398/1 572/399/1 
f 384/232/3 354/205/3 573/400/3 574/401/3 
f 385/233/5 384/232/5 574/401/5 575/402/5 
f 574/286/4 573/372/4 576/373/4 575/315/4 
f 354/205/6 378/226/6 576/403/6 573/400/6 
f 378/226/1 385/233/1 575/402/1 576/403/1 
f 386/234/3 377/225/3 577/234/3 578/234/3 
f 387/235/5 386/234/5 578/234/5 579/404/5 
f 578/286/11 577/372/11 580/405/11 579/283/11 
f 377/225/6 376/224/6 580/404/6 577/234/6 
f 376/224/1 387/235/1 579/404/1 580/404/1 
f 388/236/3 375/223/3 581/222/3 582/406/3 
f 389/237/5 388/236/5 582/406/5 583/407/5 
f 582/286/11 581/372/11 584/373/11 583/315/11 
f 375/223/6 374/222/6 584/408/6 581/222/6 
f 374/222/1 389/237/1 583/407/1 584/408/1 
f 369/219/3 338/190/3 585/190/3 586/219/3 
f 370/219/5 369/219/5 586/219/5 587/219/5 
f 586/286/4 585/285/4 588/316/4 587/315/4 
f 338/190/10 337/189/10 588/204/10 585/190/10 
f 337/189/1 370/219/1 587/219/1 588/204/1 
f 371/220/3 340/192/3 589/409/3 590/410/3 
f 372/221/5 371/220/5 590/410/5 591/403/5 
f 590/286/4 589/285/4 592/284/4 591/283/4 
f 340/192/6 341/193/6 592/411/6 589/409/6 
f 341/193/1 372/221/1 591/403/1 592/411/1 
f 373/221/3 342/194/3 593/412/3 594/413/3 
f 334/186/5 373/221/5 594/413/5 595/226/5 
f 594/286/4 593/285/4 596/316/4 595/315/4 
f 342/194/6 335/187/6 596/414/6 593/412/6 
f 335/187/1 334/186/1 595/226/1 596/414/1 
f 339/191/3 353/204/3 597/217/3 598/191/3 
f 343/195/5 339/191/5 598/191/5 599/415/5 
f 598/286/4 597/285/4 600/316/4 599/315/4 
f 353/204/6 344/196/6 600/217/6 597/217/6 
f 344/196/1 343/195/1 599/415/1 600/217/1 
f 346/197/3 345/196/3 601/416/3 602/417/3 
f 347/198/5 346/197/5 602/417/5 603/418/5 
f 602/286/4 601/285/4 604/284/4 603/283/4 
f 345/196/6 348/199/6 604/419/6 601/416/6 
f 348/199/1 347/198/1 603/418/1 604/419/1 
f 350/201/3 349/200/3 605/420/3 606/421/3 
f 336/188/5 350/201/5 606/421/5 607/422/5 
f 606/286/4 605/285/4 608/316/4 607/315/4 
f 349/200/6 352/203/6 608/423/6 605/420/6 
f 352/203/1 336/188/1 607/422/1 608/423/1 
# 553 polygons - 14 triangles

