# 3ds Max Wavefront OBJ Exporter v0.97b - (c)2007 guruware
# File Created: 15.03.2017 10:49:09

mtllib SPB_Fire Station.mtl

#
# object SPB_Fire_Station
#

v  -334.0046 366.9657 186.9140
v  -334.0046 366.9657 119.9849
v  -334.0046 293.4667 119.9849
v  -334.0046 293.4667 186.9140
v  -325.6384 358.5996 186.9140
v  -209.5416 358.5996 186.9140
v  -201.1755 366.9657 186.9140
v  -325.6384 301.8329 186.9140
v  -201.1755 293.4667 186.9140
v  -209.5416 301.8329 186.9140
v  -201.1755 366.9657 119.9849
v  -201.1755 293.4667 119.9849
v  -325.6384 301.8329 184.9689
v  -325.6384 358.5996 184.9689
v  -209.5416 358.5996 184.9689
v  -209.5416 301.8329 184.9689
v  -32.8646 366.9657 186.9140
v  -32.8646 366.9657 119.9849
v  -32.8646 293.4667 119.9849
v  -32.8646 293.4667 186.9140
v  -24.4985 358.5996 186.9140
v  91.5983 358.5996 186.9140
v  99.9644 366.9657 186.9140
v  -24.4985 301.8329 186.9140
v  99.9644 293.4667 186.9140
v  91.5983 301.8329 186.9140
v  99.9644 366.9657 119.9849
v  99.9644 293.4667 119.9849
v  -24.4985 301.8329 184.9689
v  -24.4985 358.5996 184.9689
v  91.5983 358.5996 184.9689
v  91.5983 301.8329 184.9689
v  284.8928 393.9880 186.9140
v  284.8928 393.9880 119.9849
v  284.8928 293.5943 119.9849
v  284.8928 293.5943 186.9140
v  293.2590 385.6219 186.9140
v  343.4558 385.6219 186.9140
v  351.8220 393.9880 186.9140
v  293.2590 301.9604 186.9140
v  351.8220 293.5943 186.9140
v  343.4558 301.9604 186.9140
v  351.8220 393.9880 119.9849
v  351.8220 293.5943 119.9849
v  293.2590 301.9604 184.9689
v  293.2590 385.6219 184.9689
v  343.4558 385.6219 184.9689
v  343.4558 301.9604 184.9689
v  276.0826 174.0157 186.8898
v  276.0826 174.0157 119.9607
v  276.0826 40.1575 119.9607
v  276.0826 40.1574 186.8898
v  282.7756 40.1574 186.8898
v  282.7756 167.3228 186.8898
v  359.7441 174.0157 186.8898
v  353.0512 167.3228 186.8898
v  353.0512 40.1574 186.8898
v  359.7441 40.1574 186.8898
v  359.7441 174.0157 119.9607
v  359.7441 40.1575 119.9607
v  282.7756 40.1574 185.2202
v  353.0512 40.1574 185.2202
v  282.7756 167.3228 185.2202
v  353.0512 167.3228 185.2202
v  -100.3937 234.2520 193.4293
v  -100.3937 234.2520 126.5002
v  -100.3937 -0.0000 126.5001
v  -100.3937 -0.0000 193.4293
v  -66.9292 -0.0000 193.4293
v  -66.9292 200.7874 193.4293
v  167.3228 234.2520 193.4293
v  133.8582 200.7874 193.4293
v  133.8582 -0.0000 193.4293
v  167.3228 -0.0000 193.4293
v  167.3228 234.2520 126.5002
v  167.3228 -0.0000 126.5001
v  -66.9292 -0.0000 188.2624
v  133.8582 -0.0000 188.2624
v  -66.9292 200.7874 188.2624
v  133.8582 200.7874 188.2624
v  -401.5748 234.2520 193.4293
v  -401.5748 234.2520 126.5002
v  -401.5748 -0.0000 126.5001
v  -401.5748 -0.0000 193.4293
v  -368.1103 -0.0000 193.4293
v  -368.1103 200.7874 193.4293
v  -133.8583 234.2520 193.4293
v  -167.3229 200.7874 193.4293
v  -167.3229 -0.0000 193.4293
v  -133.8583 -0.0000 193.4293
v  -133.8583 234.2520 126.5002
v  -133.8583 -0.0000 126.5001
v  -368.1103 -0.0000 188.2624
v  -167.3229 -0.0000 188.2624
v  -368.1103 200.7874 188.2624
v  -167.3229 200.7874 188.2624
v  200.7876 0.0000 -250.9843
v  200.7876 -0.0000 184.0551
v  -435.0395 -0.0000 184.0551
v  -435.0392 0.0000 -250.9843
v  200.7873 401.5748 184.0552
v  200.7878 401.5748 -250.9842
v  200.7878 435.0394 -250.9841
v  200.7873 435.0393 184.0552
v  435.0395 271.3180 -250.9842
v  435.0395 401.5748 -250.9841
v  435.0391 401.5748 184.0553
v  435.0392 271.3180 184.0552
v  200.7874 271.3180 184.0552
v  -435.0396 401.5748 184.0551
v  -435.0395 271.3180 184.0551
v  -435.0393 401.5748 -250.9842
v  -435.0393 271.3180 -250.9843
v  200.7876 25.1182 -250.9843
v  -435.0392 25.1182 -250.9843
v  435.0394 25.1182 -250.9843
v  435.0393 0.0000 -250.9843
v  200.7878 435.7769 -250.9841
v  200.7873 435.7768 184.0552
v  200.7873 561.1844 184.0553
v  200.7878 561.1844 -250.9841
v  435.0393 -0.0000 184.0551
v  200.7873 594.6489 184.0553
v  200.7878 594.6490 -250.9841
v  435.0391 435.7768 184.0553
v  435.0391 561.1844 184.0553
v  435.0395 435.7769 -250.9841
v  435.0395 561.1844 -250.9841
v  180.5580 435.0394 -230.7106
v  180.5577 435.0393 163.7817
v  -435.0396 435.0393 184.0551
v  -435.0393 435.0394 -250.9842
v  180.5580 421.7418 -230.7106
v  180.5577 421.7418 163.7817
v  -414.8098 435.0393 163.7816
v  -414.8097 435.0394 -230.7107
v  -414.8097 421.7418 -230.7107
v  -414.8098 421.7418 163.7816
v  221.0479 594.6489 163.9290
v  221.0482 594.6490 -230.8579
v  435.0391 594.6489 184.0553
v  435.0395 594.6490 -250.9841
v  221.0479 582.7780 163.9290
v  221.0482 582.7781 -230.8579
v  414.7786 594.6489 163.9290
v  414.7790 594.6490 -230.8578
v  414.7790 582.7781 -230.8578
v  414.7786 582.7780 163.9290
v  435.0393 25.1182 184.0551
v  200.7876 25.1182 184.0551
v  435.0395 246.7103 -250.9842
v  200.7877 246.7103 -250.9842
v  -435.0393 246.7103 -250.9843
v  -435.0395 25.1182 184.0551
v  200.7877 271.3180 -250.9842
v  435.0392 246.7103 184.0552
v  200.7874 246.7103 184.0552
v  -435.0395 246.7103 184.0551
v  225.8858 13.3858 249.9018
v  225.8858 13.3858 182.9727
v  225.8858 -0.0000 182.9727
v  225.8858 -0.0000 249.9018
v  409.9409 13.3858 182.9727
v  409.9409 -0.0000 182.9727
v  409.9409 13.3858 249.9018
v  409.9409 -0.0000 249.9018
v  242.6181 26.7716 233.1695
v  242.6181 26.7716 166.2404
v  242.6181 13.3858 166.2404
v  242.6181 13.3858 233.1695
v  393.2086 26.7716 166.2404
v  393.2086 13.3858 166.2404
v  393.2086 26.7716 233.1695
v  393.2086 13.3858 233.1695
v  259.3504 40.1574 216.4372
v  259.3504 40.1575 149.5081
v  259.3504 26.7716 149.5081
v  259.3504 26.7716 216.4372
v  376.4763 40.1575 149.5081
v  376.4763 26.7716 149.5081
v  376.4763 40.1574 216.4372
v  376.4763 26.7716 216.4372
# 182 vertices

vn -1.0000 0.0000 -0.0000
vn 0.0000 -0.0000 1.0000
vn 0.0000 1.0000 0.0000
vn 0.0000 0.0000 -1.0000
vn 0.0000 -1.0000 -0.0000
vn 1.0000 0.0000 -0.0000
vn -0.0000 -1.0000 -0.0000
vn 1.0000 -0.0000 0.0000
vn 1.0000 0.0000 0.0000
vn -0.0000 -0.0000 1.0000
vn -1.0000 -0.0000 -0.0000
# 11 vertex normals

vt 0.5917 0.9473 0.0000
vt 0.5920 0.9478 0.0000
vt 0.5927 0.9467 0.0000
vt 0.5940 0.9468 0.0000
vt 0.5918 0.9472 0.0000
vt 0.5918 0.9413 0.0000
vt 0.5919 0.9414 0.0000
vt 0.5947 0.9399 0.0000
vt 0.5944 0.9400 0.0000
vt 0.5928 0.9425 0.0000
vt 0.5935 0.9420 0.0000
vt 0.5941 0.9468 0.0000
vt 0.5917 0.9412 0.0000
vt 0.6342 0.5350 0.0000
vt 0.6342 0.4435 0.0000
vt 0.8214 0.4435 0.0000
vt 0.8214 0.5350 0.0000
vt 0.5945 0.9399 0.0000
vt 0.5806 0.9453 0.0000
vt 0.5807 0.9465 0.0000
vt 0.5790 0.9470 0.0000
vt 0.5799 0.9475 0.0000
vt 0.5872 0.9452 0.0000
vt 0.5873 0.9451 0.0000
vt 0.5800 0.9474 0.0000
vt 0.5866 0.9474 0.0000
vt 0.5881 0.9456 0.0000
vt 0.5865 0.9462 0.0000
vt 0.5805 0.9452 0.0000
vt 0.5873 0.9452 0.0000
vt 0.5866 0.9475 0.0000
vt 0.5816 0.9476 0.0000
vt 0.5816 0.9483 0.0000
vt 0.5790 0.9489 0.0000
vt 0.5808 0.9495 0.0000
vt 0.5817 0.9476 0.0000
vt 0.5842 0.9476 0.0000
vt 0.5810 0.9495 0.0000
vt 0.5851 0.9495 0.0000
vt 0.5848 0.9495 0.0000
vt 0.5842 0.9483 0.0000
vt 0.5869 0.9489 0.0000
vt 0.5810 0.9496 0.0000
vt 0.5816 0.9475 0.0000
vt 0.5842 0.9475 0.0000
vt 0.8579 0.6211 0.0000
vt 0.8579 0.4360 0.0000
vt 0.9689 0.4360 0.0000
vt 0.9689 0.6211 0.0000
vt 0.5849 0.9496 0.0000
vt 0.5871 0.9431 0.0000
vt 0.5882 0.9434 0.0000
vt 0.5859 0.9420 0.0000
vt 0.5846 0.9422 0.0000
vt 0.5828 0.9407 0.0000
vt 0.5830 0.9424 0.0000
vt 0.5879 0.9434 0.0000
vt 0.5817 0.9425 0.0000
vt 0.5816 0.9408 0.0000
vt 0.5830 0.9414 0.0000
vt 0.5917 0.9451 0.0000
vt 0.5853 0.9429 0.0000
vt 0.5832 0.9399 0.0000
vt 0.5790 0.9399 0.0000
vt 0.5816 0.9425 0.0000
vt 0.7850 0.0316 0.0000
vt 0.9674 0.0316 0.0000
vt 0.9674 0.3616 0.0000
vt 0.7850 0.3616 0.0000
vt 0.4720 0.9585 0.0000
vt 0.4712 0.9579 0.0000
vt 0.4657 0.9589 0.0000
vt 0.4710 0.9580 0.0000
vt 0.4735 0.9589 0.0000
vt 0.4736 0.9550 0.0000
vt 0.4810 0.9602 0.0000
vt 0.4794 0.9553 0.0000
vt 0.4790 0.9593 0.0000
vt 0.4825 0.9597 0.0000
vt 0.4820 0.9596 0.0000
vt 0.4870 0.9617 0.0000
vt 0.4714 0.9600 0.0000
vt 0.4816 0.9600 0.0000
vt 0.4734 0.9548 0.0000
vt 0.4795 0.9551 0.0000
vt 0.2924 0.0194 0.0000
vt 0.6854 0.0194 0.0000
vt 0.6854 0.4124 0.0000
vt 0.2924 0.4124 0.0000
vt 0.4735 0.9650 0.0000
vt 0.4729 0.9640 0.0000
vt 0.4657 0.9657 0.0000
vt 0.4711 0.9647 0.0000
vt 0.4729 0.9653 0.0000
vt 0.4730 0.9619 0.0000
vt 0.4854 0.9666 0.0000
vt 0.4780 0.9622 0.0000
vt 0.4777 0.9656 0.0000
vt 0.4814 0.9659 0.0000
vt 0.4897 0.9658 0.0000
vt 0.4822 0.9672 0.0000
vt 0.4709 0.9663 0.0000
vt 0.4794 0.9663 0.0000
vt 0.4728 0.9617 0.0000
vt 0.4781 0.9620 0.0000
vt 0.0465 0.4516 0.0000
vt 0.1114 0.5845 0.0000
vt 0.4879 0.4516 0.0000
vt 0.0778 0.4829 0.0000
vt 0.4716 0.6913 0.0000
vt 0.8255 0.6913 0.0000
vt 0.8255 0.8808 0.0000
vt 0.4716 0.8808 0.0000
vt 0.2067 0.4516 0.0000
vt 0.1637 0.4985 0.0000
vt 0.0700 0.5336 0.0000
vt 0.1859 0.4750 0.0000
vt 0.2359 0.4750 0.0000
vt 0.2359 0.5250 0.0000
vt 0.1859 0.5250 0.0000
# 120 texture coords

g SPB_Fire_Station
usemtl SPB_Fire_Station
s off
f 1/1/1 2/2/1 3/3/1 4/4/1 
s 1
f 5/5/2 6/6/2 7/7/2 1/1/2 
f 8/4/2 5/5/2 1/1/2 4/4/2 
f 9/8/2 7/7/2 6/6/2 10/9/2 
f 4/4/2 9/8/2 10/9/2 8/4/2 
s off
f 7/7/3 11/10/3 2/2/3 1/1/3 
f 2/2/4 11/10/4 12/11/4 3/3/4 
f 4/4/5 3/3/5 12/11/5 9/8/5 
f 11/10/6 7/7/6 9/8/6 12/11/6 
f 5/5/6 8/4/6 13/12/6 14/1/6 
f 6/6/5 5/5/5 14/1/5 15/13/5 
f 14/14/2 13/15/2 16/16/2 15/17/2 
f 8/4/3 10/9/3 16/18/3 13/12/3 
f 10/9/1 6/6/1 15/13/1 16/18/1 
f 17/19/1 18/20/1 19/21/1 20/22/1 
s 1
f 21/19/2 22/23/2 23/24/2 17/19/2 
f 24/25/2 21/19/2 17/19/2 20/22/2 
f 25/26/2 23/24/2 22/23/2 26/26/2 
f 20/22/2 25/26/2 26/26/2 24/25/2 
s off
f 23/24/3 27/27/3 18/20/3 17/19/3 
f 18/20/4 27/27/4 28/28/4 19/21/4 
f 20/22/5 19/21/5 28/28/5 25/26/5 
f 27/27/6 23/24/6 25/26/6 28/28/6 
f 21/19/6 24/25/6 29/22/6 30/29/6 
f 22/23/5 21/19/5 30/29/5 31/30/5 
f 30/14/2 29/15/2 32/16/2 31/17/2 
f 24/25/3 26/26/3 32/31/3 29/22/3 
f 26/26/1 22/23/1 31/30/1 32/31/1 
f 33/32/1 34/33/1 35/34/1 36/35/1 
s 1
f 37/36/2 38/37/2 39/37/2 33/32/2 
f 40/38/2 37/36/2 33/32/2 36/35/2 
f 41/39/2 39/37/2 38/37/2 42/40/2 
f 36/35/2 41/39/2 42/40/2 40/38/2 
s off
f 39/37/3 43/41/3 34/33/3 33/32/3 
f 34/33/4 43/41/4 44/42/4 35/34/4 
f 36/35/5 35/34/5 44/42/5 41/39/5 
f 43/41/6 39/37/6 41/39/6 44/42/6 
f 37/36/6 40/38/6 45/43/6 46/44/6 
f 38/37/5 37/36/5 46/44/5 47/45/5 
f 46/46/2 45/47/2 48/48/2 47/49/2 
f 40/38/3 42/40/3 48/50/3 45/43/3 
f 42/40/1 38/37/1 47/45/1 48/50/1 
f 49/51/1 50/52/1 51/53/1 52/54/1 
f 49/51/2 52/54/2 53/55/2 54/56/2 
f 55/57/2 49/51/2 54/56/2 56/58/2 
f 55/57/2 56/58/2 57/59/2 58/60/2 
f 55/57/3 59/61/3 50/52/3 49/51/3 
f 50/52/4 59/61/4 60/62/4 51/53/4 
f 52/54/5 51/53/5 60/62/5 61/63/5 
f 60/62/5 58/60/5 57/59/5 62/64/5 
f 60/62/5 62/64/5 61/63/5 
f 52/54/5 61/63/5 53/55/5 
f 59/61/6 55/57/6 58/60/6 60/62/6 
f 54/56/6 53/55/6 61/63/6 63/56/6 
f 56/58/5 54/56/5 63/56/5 64/65/5 
f 61/66/2 62/67/2 64/68/2 63/69/2 
f 64/65/1 62/64/1 57/59/1 56/58/1 
f 65/70/1 66/71/1 67/72/1 68/73/1 
f 65/70/2 68/73/2 69/74/2 70/75/2 
f 71/76/2 65/70/2 70/75/2 72/77/2 
f 71/76/2 72/77/2 73/78/2 74/79/2 
f 71/76/3 75/80/3 66/71/3 65/70/3 
f 66/71/4 75/80/4 76/81/4 67/72/4 
f 68/73/5 67/72/5 76/81/5 77/82/5 
f 76/81/5 74/79/5 73/78/5 78/83/5 
f 76/81/5 78/83/5 77/82/5 
f 68/73/5 77/82/5 69/74/5 
f 75/80/6 71/76/6 74/79/6 76/81/6 
f 70/75/6 69/74/6 77/82/6 79/84/6 
f 72/77/5 70/75/5 79/84/5 80/85/5 
f 77/86/2 78/87/2 80/88/2 79/89/2 
f 80/85/1 78/83/1 73/78/1 72/77/1 
f 81/90/1 82/91/1 83/92/1 84/93/1 
f 81/90/2 84/93/2 85/94/2 86/95/2 
f 87/96/2 81/90/2 86/95/2 88/97/2 
f 87/96/2 88/97/2 89/98/2 90/99/2 
f 87/96/3 91/100/3 82/91/3 81/90/3 
f 82/91/4 91/100/4 92/101/4 83/92/4 
f 84/93/5 83/92/5 92/101/5 93/102/5 
f 92/101/5 90/99/5 89/98/5 94/103/5 
f 92/101/5 94/103/5 93/102/5 
f 84/93/5 93/102/5 85/94/5 
f 91/100/6 87/96/6 90/99/6 92/101/6 
f 86/95/6 85/94/6 93/102/6 95/104/6 
f 88/97/5 86/95/5 95/104/5 96/105/5 
f 93/86/2 94/87/2 96/88/2 95/89/2 
f 96/105/1 94/103/1 89/98/1 88/97/1 
s 1
f 97/106/7 98/106/7 99/106/7 100/106/7 
s off
f 101/107/8 102/107/8 103/107/8 104/107/8 
s 2
f 105/108/8 106/108/8 107/108/9 108/108/9 
s 4
f 109/108/10 101/108/10 110/108/10 111/108/10 
s 2
f 111/108/11 110/108/11 112/108/11 113/108/11 
s 4
f 114/106/4 97/106/4 100/106/4 115/106/4 
f 116/106/4 117/106/4 97/106/4 114/106/4 
f 108/108/10 107/108/10 101/108/10 109/108/10 
s 1
f 118/108/1 119/108/1 120/108/1 121/108/1 
f 117/106/7 122/106/7 98/106/7 97/106/7 
f 121/109/1 120/109/1 123/109/1 124/109/1 
s 4
f 119/110/10 125/111/10 126/112/10 120/113/10 
f 127/108/4 118/108/4 121/108/4 128/108/4 
s 2
f 125/108/8 127/108/8 128/108/8 126/108/8 
s off
f 104/107/3 103/107/3 129/107/3 130/107/3 
s 2
f 112/107/11 110/107/11 131/107/1 132/107/1 
s 4
f 110/107/10 101/107/10 104/107/10 131/107/10 
f 102/107/4 112/107/4 132/107/4 103/107/4 
s off
f 130/107/1 129/107/1 133/107/1 134/107/1 
f 132/107/3 131/107/3 135/107/3 136/107/3 
f 131/107/3 104/107/3 130/107/3 135/107/3 
f 103/107/3 132/107/3 136/107/3 129/107/3 
f 133/114/3 137/114/3 138/114/3 134/114/3 
f 136/107/8 135/107/8 138/107/8 137/107/8 
f 135/107/4 130/107/4 134/107/4 138/107/4 
f 129/107/10 136/107/10 137/107/10 133/107/10 
s 8
f 124/109/3 123/109/3 139/109/3 140/109/3 
s 4
f 120/109/10 126/109/10 141/109/10 123/109/10 
f 128/109/4 121/109/4 124/109/4 142/109/4 
s 2
f 126/109/8 128/109/8 142/109/8 141/109/8 
s off
f 140/109/8 139/109/8 143/109/8 144/109/8 
s 8
f 123/109/3 141/109/3 145/109/3 139/109/3 
f 142/109/3 124/109/3 140/109/3 146/109/3 
f 141/109/3 142/109/3 146/109/3 145/109/3 
s off
f 147/115/3 144/115/3 143/115/3 148/115/3 
f 139/109/4 145/109/4 148/109/4 143/109/4 
f 146/109/10 140/109/10 144/109/10 147/109/10 
f 145/109/1 146/109/1 147/109/1 148/109/1 
s 4
f 122/106/10 149/106/10 150/106/10 98/106/10 
f 151/108/4 116/108/4 114/108/4 152/108/4 
f 152/108/4 114/108/4 115/108/4 153/108/4 
s 2
f 99/106/1 154/106/11 115/106/11 100/106/1 
s 4
f 98/106/10 150/106/10 154/106/10 99/106/10 
s 2
f 117/106/8 116/106/8 149/106/9 122/106/9 
s 4
f 155/116/4 152/116/4 153/116/4 113/116/4 
f 105/116/4 151/116/4 152/116/4 155/116/4 
f 149/108/10 156/108/10 157/108/10 150/108/10 
s 2
f 154/108/11 158/108/11 153/108/11 115/108/11 
s 4
f 150/108/10 157/108/10 158/108/10 154/108/10 
s 2
f 116/108/8 151/108/8 156/108/9 149/108/9 
s 4
f 106/108/4 105/108/4 155/108/4 102/108/4 
f 102/108/4 155/108/4 113/108/4 112/108/4 
f 156/116/10 108/116/10 109/116/10 157/116/10 
s 2
f 158/116/11 111/116/11 113/116/11 153/116/11 
s 4
f 157/116/10 109/116/10 111/116/10 158/116/10 
s 2
f 151/116/8 105/116/8 108/116/9 156/116/9 
f 107/108/9 106/108/8 127/108/8 125/108/8 
s 4
f 106/108/4 102/108/4 118/108/4 127/108/4 
f 101/108/10 107/108/10 125/108/10 119/108/10 
s 1
f 102/108/1 101/108/1 119/108/1 118/108/1 
s off
f 159/117/1 160/118/1 161/119/1 162/120/1 
f 160/117/4 163/118/4 164/119/4 161/120/4 
f 163/117/6 165/118/6 166/119/6 164/120/6 
f 165/117/2 159/118/2 162/119/2 166/120/2 
f 162/117/5 161/118/5 164/119/5 166/120/5 
f 165/117/3 163/118/3 160/119/3 159/120/3 
f 167/117/1 168/118/1 169/119/1 170/120/1 
f 168/117/4 171/118/4 172/119/4 169/120/4 
f 171/117/6 173/118/6 174/119/6 172/120/6 
f 173/117/2 167/118/2 170/119/2 174/120/2 
f 170/117/5 169/118/5 172/119/5 174/120/5 
f 173/117/3 171/118/3 168/119/3 167/120/3 
f 175/117/1 176/118/1 177/119/1 178/120/1 
f 176/117/4 179/118/4 180/119/4 177/120/4 
f 179/117/6 181/118/6 182/119/6 180/120/6 
f 181/117/2 175/118/2 178/119/2 182/120/2 
f 178/117/5 177/118/5 180/119/5 182/120/5 
f 181/117/3 179/118/3 176/119/3 175/120/3 
# 159 polygons - 6 triangles

