# 3ds Max Wavefront OBJ Exporter v0.97b - (c)2007 guruware
# File Created: 15.03.2017 10:48:15

mtllib SPB_City Hall.mtl

#
# object SPB_City_Hall
#

v  91.8832 47.2332 307.5951
v  91.8832 293.8332 307.5952
v  100.5962 293.8332 309.9298
v  100.5962 47.2332 309.9297
v  106.9745 293.8332 316.3081
v  106.9745 47.2332 316.3080
v  109.3091 293.8332 325.0210
v  109.3091 47.2332 325.0210
v  106.9745 293.8332 333.7340
v  106.9745 47.2332 333.7339
v  100.5962 293.8332 340.1123
v  100.5962 47.2332 340.1122
v  91.8832 293.8332 342.4469
v  91.8832 47.2332 342.4469
v  83.1703 293.8332 340.1123
v  83.1703 47.2332 340.1122
v  76.7920 293.8332 333.7340
v  76.7920 47.2332 333.7339
v  74.4574 293.8332 325.0211
v  74.4574 47.2332 325.0210
v  76.7920 293.8332 316.3082
v  76.7920 47.2332 316.3081
v  83.1703 293.8332 309.9298
v  81.6080 293.8332 307.2239
v  91.8832 293.8332 304.4707
v  83.1703 47.2332 309.9297
v  91.8832 47.2332 303.8191
v  81.2823 47.2332 306.6596
v  81.6080 301.9589 307.2239
v  91.8832 301.9589 304.4707
v  74.0861 293.8332 314.7459
v  71.3329 293.8332 325.0211
v  74.0861 293.8332 335.2963
v  81.6081 293.8332 342.8182
v  91.8832 293.8332 345.5714
v  102.1584 293.8332 342.8182
v  109.6804 293.8332 335.2963
v  112.4336 293.8332 325.0210
v  109.6804 293.8332 314.7459
v  102.1584 293.8332 307.2239
v  102.1584 301.9589 307.2239
v  74.0861 301.9589 314.7459
v  71.3329 301.9589 325.0211
v  74.0861 301.9589 335.2963
v  81.6081 301.9589 342.8182
v  91.8832 301.9589 345.5714
v  102.1584 301.9589 342.8182
v  109.6804 301.9589 335.2963
v  112.4336 301.9589 325.0210
v  109.6804 301.9589 314.7459
v  91.8832 38.4880 303.8191
v  81.2823 38.4880 306.6596
v  73.5218 47.2332 314.4200
v  70.6813 47.2332 325.0210
v  73.5218 47.2332 335.6219
v  81.2823 47.2332 343.3824
v  91.8832 47.2332 346.2229
v  102.4842 47.2332 343.3824
v  110.2446 47.2332 335.6219
v  113.0852 47.2332 325.0210
v  110.2446 47.2332 314.4200
v  102.4842 47.2332 306.6596
v  102.4842 38.4880 306.6596
v  110.2446 38.4880 314.4200
v  113.0852 38.4880 325.0210
v  110.2446 38.4880 335.6219
v  102.4842 38.4880 343.3824
v  91.8832 38.4880 346.2229
v  81.2823 38.4880 343.3824
v  73.5218 38.4880 335.6219
v  70.6813 38.4880 325.0210
v  73.5218 38.4880 314.4200
v  68.4498 41.1329 348.3878
v  68.4498 41.1330 301.4565
v  68.4498 35.0268 301.4565
v  68.4498 35.0268 348.3878
v  115.3811 41.1330 301.4565
v  115.3811 35.0268 301.4565
v  115.3811 41.1329 348.3878
v  115.3811 35.0268 348.3878
v  -91.9769 47.2332 307.5951
v  -91.9769 293.8332 307.5952
v  -83.2640 293.8332 309.9298
v  -83.2640 47.2332 309.9297
v  -76.8857 293.8332 316.3081
v  -76.8857 47.2332 316.3080
v  -74.5510 293.8332 325.0210
v  -74.5510 47.2332 325.0210
v  -76.8857 293.8332 333.7340
v  -76.8857 47.2332 333.7339
v  -83.2640 293.8332 340.1123
v  -83.2640 47.2332 340.1122
v  -91.9769 293.8332 342.4469
v  -91.9769 47.2332 342.4469
v  -100.6899 293.8332 340.1123
v  -100.6899 47.2332 340.1122
v  -107.0682 293.8332 333.7340
v  -107.0682 47.2332 333.7339
v  -109.4028 293.8332 325.0211
v  -109.4028 47.2332 325.0210
v  -107.0682 293.8332 316.3082
v  -107.0682 47.2332 316.3081
v  -100.6899 293.8332 309.9298
v  -102.2521 293.8332 307.2239
v  -91.9769 293.8332 304.4707
v  -100.6899 47.2332 309.9297
v  -91.9769 47.2332 303.8191
v  -102.5779 47.2332 306.6596
v  -102.2521 301.9589 307.2239
v  -91.9769 301.9589 304.4707
v  -109.7741 293.8332 314.7459
v  -112.5273 293.8332 325.0211
v  -109.7740 293.8332 335.2963
v  -102.2521 293.8332 342.8182
v  -91.9769 293.8332 345.5714
v  -81.7017 293.8332 342.8182
v  -74.1798 293.8332 335.2963
v  -71.4266 293.8332 325.0210
v  -74.1798 293.8332 314.7459
v  -81.7017 293.8332 307.2239
v  -81.7017 301.9589 307.2239
v  -109.7741 301.9589 314.7459
v  -112.5273 301.9589 325.0211
v  -109.7740 301.9589 335.2963
v  -102.2521 301.9589 342.8182
v  -91.9769 301.9589 345.5714
v  -81.7017 301.9589 342.8182
v  -74.1798 301.9589 335.2963
v  -71.4266 301.9589 325.0210
v  -74.1798 301.9589 314.7459
v  -91.9769 38.4880 303.8191
v  -102.5779 38.4880 306.6596
v  -110.3383 47.2332 314.4200
v  -113.1788 47.2332 325.0210
v  -110.3383 47.2332 335.6219
v  -102.5779 47.2332 343.3824
v  -91.9769 47.2332 346.2229
v  -81.3760 47.2332 343.3824
v  -73.6155 47.2332 335.6219
v  -70.7750 47.2332 325.0210
v  -73.6155 47.2332 314.4200
v  -81.3760 47.2332 306.6596
v  -81.3760 38.4880 306.6596
v  -73.6155 38.4880 314.4200
v  -70.7750 38.4880 325.0210
v  -73.6155 38.4880 335.6219
v  -81.3760 38.4880 343.3824
v  -91.9769 38.4880 346.2229
v  -102.5779 38.4880 343.3824
v  -110.3383 38.4880 335.6219
v  -113.1788 38.4880 325.0210
v  -110.3383 38.4880 314.4200
v  -115.4103 41.1329 348.3878
v  -115.4103 41.1330 301.4565
v  -115.4103 35.0268 301.4565
v  -115.4103 35.0268 348.3878
v  -68.4791 41.1330 301.4565
v  -68.4791 35.0268 301.4565
v  -68.4791 41.1329 348.3878
v  -68.4791 35.0268 348.3878
v  -260.5185 47.2332 307.5951
v  -260.5185 293.8332 307.5952
v  -251.8055 293.8332 309.9298
v  -251.8055 47.2332 309.9297
v  -245.4272 293.8332 316.3081
v  -245.4272 47.2332 316.3080
v  -243.0926 293.8332 325.0210
v  -243.0926 47.2332 325.0210
v  -245.4272 293.8332 333.7340
v  -245.4272 47.2332 333.7339
v  -251.8055 293.8332 340.1123
v  -251.8055 47.2332 340.1122
v  -260.5185 293.8332 342.4469
v  -260.5185 47.2332 342.4469
v  -269.2314 293.8332 340.1123
v  -269.2314 47.2332 340.1122
v  -275.6097 293.8332 333.7340
v  -275.6097 47.2332 333.7339
v  -277.9444 293.8332 325.0211
v  -277.9444 47.2332 325.0210
v  -275.6098 293.8332 316.3082
v  -275.6098 47.2332 316.3081
v  -269.2314 293.8332 309.9298
v  -270.7937 293.8332 307.2239
v  -260.5185 293.8332 304.4707
v  -269.2314 47.2332 309.9297
v  -260.5185 47.2332 303.8191
v  -271.1194 47.2332 306.6596
v  -270.7937 301.9589 307.2239
v  -260.5185 301.9589 304.4707
v  -278.3156 293.8332 314.7459
v  -281.0688 293.8332 325.0211
v  -278.3156 293.8332 335.2963
v  -270.7936 293.8332 342.8182
v  -260.5185 293.8332 345.5714
v  -250.2433 293.8332 342.8182
v  -242.7214 293.8332 335.2963
v  -239.9681 293.8332 325.0210
v  -242.7214 293.8332 314.7459
v  -250.2433 293.8332 307.2239
v  -250.2433 301.9589 307.2239
v  -278.3156 301.9589 314.7459
v  -281.0688 301.9589 325.0211
v  -278.3156 301.9589 335.2963
v  -270.7936 301.9589 342.8182
v  -260.5185 301.9589 345.5714
v  -250.2433 301.9589 342.8182
v  -242.7214 301.9589 335.2963
v  -239.9681 301.9589 325.0210
v  -242.7214 301.9589 314.7459
v  -260.5185 38.4880 303.8191
v  -271.1194 38.4880 306.6596
v  -278.8799 47.2332 314.4200
v  -281.7204 47.2332 325.0210
v  -278.8799 47.2332 335.6219
v  -271.1194 47.2332 343.3824
v  -260.5185 47.2332 346.2229
v  -249.9175 47.2332 343.3824
v  -242.1571 47.2332 335.6219
v  -239.3166 47.2332 325.0210
v  -242.1571 47.2332 314.4200
v  -249.9175 47.2332 306.6596
v  -249.9175 38.4880 306.6596
v  -242.1571 38.4880 314.4200
v  -239.3166 38.4880 325.0210
v  -242.1571 38.4880 335.6219
v  -249.9175 38.4880 343.3824
v  -260.5185 38.4880 346.2229
v  -271.1194 38.4880 343.3824
v  -278.8799 38.4880 335.6219
v  -281.7204 38.4880 325.0210
v  -278.8799 38.4880 314.4200
v  -283.9519 41.1329 348.3878
v  -283.9519 41.1330 301.4565
v  -283.9519 35.0268 301.4565
v  -283.9519 35.0268 348.3878
v  -237.0206 41.1330 301.4565
v  -237.0206 35.0268 301.4565
v  -237.0206 41.1329 348.3878
v  -237.0206 35.0268 348.3878
v  260.4248 47.2332 307.5951
v  260.4248 293.8332 307.5952
v  269.1378 293.8332 309.9298
v  269.1378 47.2332 309.9297
v  275.5161 293.8332 316.3081
v  275.5161 47.2332 316.3080
v  277.8507 293.8332 325.0210
v  277.8507 47.2332 325.0210
v  275.5161 293.8332 333.7340
v  275.5161 47.2332 333.7339
v  269.1378 293.8332 340.1123
v  269.1378 47.2332 340.1122
v  260.4248 293.8332 342.4469
v  260.4248 47.2332 342.4469
v  251.7119 293.8332 340.1123
v  251.7119 47.2332 340.1122
v  245.3336 293.8332 333.7340
v  245.3336 47.2332 333.7339
v  242.9990 293.8332 325.0211
v  242.9990 47.2332 325.0210
v  245.3336 293.8332 316.3082
v  245.3336 47.2332 316.3081
v  251.7119 293.8332 309.9298
v  250.1497 293.8332 307.2239
v  260.4248 293.8332 304.4707
v  251.7119 47.2332 309.9297
v  260.4248 47.2332 303.8191
v  249.8239 47.2332 306.6596
v  250.1497 301.9589 307.2239
v  260.4248 301.9589 304.4707
v  242.6277 293.8332 314.7459
v  239.8745 293.8332 325.0211
v  242.6277 293.8332 335.2963
v  250.1497 293.8332 342.8182
v  260.4248 293.8332 345.5714
v  270.7000 293.8332 342.8182
v  278.2220 293.8332 335.2963
v  280.9752 293.8332 325.0210
v  278.2220 293.8332 314.7459
v  270.7000 293.8332 307.2239
v  270.7000 301.9589 307.2239
v  242.6277 301.9589 314.7459
v  239.8745 301.9589 325.0211
v  242.6277 301.9589 335.2963
v  250.1497 301.9589 342.8182
v  260.4248 301.9589 345.5714
v  270.7000 301.9589 342.8182
v  278.2220 301.9589 335.2963
v  280.9752 301.9589 325.0210
v  278.2220 301.9589 314.7459
v  260.4248 38.4880 303.8191
v  249.8239 38.4880 306.6596
v  242.0634 47.2332 314.4200
v  239.2229 47.2332 325.0210
v  242.0634 47.2332 335.6219
v  249.8239 47.2332 343.3824
v  260.4248 47.2332 346.2229
v  271.0258 47.2332 343.3824
v  278.7862 47.2332 335.6219
v  281.6267 47.2332 325.0210
v  278.7862 47.2332 314.4200
v  271.0258 47.2332 306.6596
v  271.0258 38.4880 306.6596
v  278.7862 38.4880 314.4200
v  281.6267 38.4880 325.0210
v  278.7862 38.4880 335.6219
v  271.0258 38.4880 343.3824
v  260.4248 38.4880 346.2229
v  249.8239 38.4880 343.3824
v  242.0634 38.4880 335.6219
v  239.2229 38.4880 325.0210
v  242.0634 38.4880 314.4200
v  236.9914 41.1329 348.3878
v  236.9914 41.1330 301.4565
v  236.9914 35.0268 301.4565
v  236.9914 35.0268 348.3878
v  283.9227 41.1330 301.4565
v  283.9227 35.0268 301.4565
v  283.9227 41.1329 348.3878
v  283.9227 35.0268 348.3878
v  -337.7658 17.7167 398.7189
v  -337.7658 17.7167 172.0741
v  -337.7658 0.0002 172.0741
v  -337.7658 0.0002 398.7189
v  337.7658 17.7167 172.0741
v  337.7658 0.0002 172.0741
v  337.7658 17.7167 398.7189
v  337.7658 0.0002 398.7189
v  -303.3972 35.4333 367.1524
v  -303.3972 35.4333 172.0635
v  -303.3972 0.0002 172.0636
v  -303.3972 0.0002 367.1524
v  303.3972 35.4333 172.0635
v  303.3972 0.0002 172.0636
v  303.3972 35.4333 367.1524
v  303.3972 0.0002 367.1524
v  -463.4864 177.1658 72.6279
v  -457.8183 177.1658 72.6279
v  -457.8183 70.8666 72.6279
v  -463.4864 70.8666 72.6279
v  -463.4864 170.0792 79.7145
v  -463.4864 170.0792 127.8598
v  -463.4864 177.1658 134.9464
v  -463.4864 77.9532 79.7145
v  -463.4864 70.8666 134.9464
v  -463.4864 77.9532 127.8598
v  -457.8185 177.1658 134.9464
v  -457.8185 70.8666 134.9464
v  -461.6612 77.9532 79.7145
v  -461.6612 170.0792 79.7145
v  -461.6612 170.0792 127.8598
v  -461.6612 77.9532 127.8598
v  -463.4863 177.1658 -47.8947
v  -457.8183 177.1658 -47.8947
v  -457.8183 70.8666 -47.8947
v  -463.4863 70.8666 -47.8947
v  -463.4863 170.0792 -40.8080
v  -463.4864 170.0792 7.3372
v  -463.4864 177.1658 14.4239
v  -463.4863 77.9532 -40.8081
v  -463.4864 70.8666 14.4238
v  -463.4864 77.9532 7.3372
v  -457.8183 177.1658 14.4239
v  -457.8183 70.8666 14.4238
v  -461.6611 77.9532 -40.8081
v  -461.6611 170.0792 -40.8080
v  -461.6611 170.0792 7.3372
v  -461.6611 77.9532 7.3372
v  -463.4862 177.1658 -168.4172
v  -457.8182 177.1658 -168.4172
v  -457.8182 70.8666 -168.4172
v  -463.4862 70.8666 -168.4172
v  -463.4862 170.0792 -161.3306
v  -463.4863 170.0792 -113.1853
v  -463.4863 177.1658 -106.0987
v  -463.4862 77.9532 -161.3306
v  -463.4863 70.8666 -106.0987
v  -463.4863 77.9532 -113.1853
v  -457.8182 177.1658 -106.0987
v  -457.8182 70.8666 -106.0987
v  -461.6610 77.9532 -161.3306
v  -461.6610 170.0792 -161.3306
v  -461.6610 170.0792 -113.1853
v  -461.6610 77.9532 -113.1853
v  -463.4861 177.1658 -289.6281
v  -457.8181 177.1658 -289.6281
v  -457.8181 70.8666 -289.6281
v  -463.4861 70.8666 -289.6281
v  -463.4861 170.0792 -282.5415
v  -463.4861 170.0792 -234.3963
v  -463.4862 177.1658 -227.3096
v  -463.4861 77.9532 -282.5415
v  -463.4862 70.8666 -227.3096
v  -463.4861 77.9532 -234.3963
v  -457.8181 177.1658 -227.3096
v  -457.8181 70.8666 -227.3096
v  -461.6609 77.9532 -282.5415
v  -461.6609 170.0792 -282.5415
v  -461.6609 170.0792 -234.3963
v  -461.6609 77.9532 -234.3963
v  -463.4864 336.6146 72.6279
v  -457.8183 336.6146 72.6279
v  -457.8183 230.3154 72.6279
v  -463.4864 230.3154 72.6279
v  -463.4864 329.5280 79.7146
v  -463.4864 329.5280 127.8598
v  -463.4864 336.6146 134.9465
v  -463.4864 237.4020 79.7145
v  -463.4864 230.3154 134.9464
v  -463.4864 237.4020 127.8598
v  -457.8184 336.6146 134.9465
v  -457.8184 230.3154 134.9464
v  -461.6612 237.4020 79.7145
v  -461.6612 329.5280 79.7146
v  -461.6612 329.5280 127.8598
v  -461.6612 237.4020 127.8598
v  -463.4863 336.6146 -47.8946
v  -457.8182 336.6146 -47.8946
v  -457.8182 230.3154 -47.8946
v  -463.4863 230.3154 -47.8946
v  -463.4863 329.5280 -40.8080
v  -463.4864 329.5280 7.3373
v  -463.4864 336.6146 14.4239
v  -463.4863 237.4020 -40.8080
v  -463.4864 230.3154 14.4239
v  -463.4864 237.4020 7.3373
v  -457.8183 336.6146 14.4239
v  -457.8183 230.3154 14.4239
v  -461.6610 237.4020 -40.8080
v  -461.6610 329.5280 -40.8080
v  -461.6611 329.5280 7.3373
v  -461.6611 237.4020 7.3373
v  -463.4862 336.6146 -168.4171
v  -457.8182 336.6146 -168.4171
v  -457.8182 230.3154 -168.4171
v  -463.4862 230.3154 -168.4171
v  -463.4862 329.5280 -161.3305
v  -463.4863 329.5280 -113.1853
v  -463.4863 336.6146 -106.0987
v  -463.4862 237.4021 -161.3305
v  -463.4863 230.3154 -106.0987
v  -463.4863 237.4021 -113.1853
v  -457.8182 336.6146 -106.0987
v  -457.8182 230.3154 -106.0987
v  -461.6610 237.4021 -161.3305
v  -461.6610 329.5280 -161.3305
v  -461.6610 329.5280 -113.1853
v  -461.6610 237.4021 -113.1853
v  -463.4861 336.6147 -289.6281
v  -457.8181 336.6147 -289.6281
v  -457.8181 230.3154 -289.6281
v  -463.4861 230.3154 -289.6281
v  -463.4861 329.5281 -282.5415
v  -463.4861 329.5280 -234.3962
v  -463.4862 336.6146 -227.3096
v  -463.4861 237.4021 -282.5415
v  -463.4862 230.3154 -227.3096
v  -463.4861 237.4021 -234.3962
v  -457.8181 336.6146 -227.3096
v  -457.8181 230.3154 -227.3096
v  -461.6609 237.4021 -282.5415
v  -461.6609 329.5281 -282.5415
v  -461.6609 329.5280 -234.3962
v  -461.6609 237.4021 -234.3962
v  463.4865 177.1658 -226.9654
v  457.8185 177.1658 -226.9654
v  457.8185 70.8666 -226.9654
v  463.4865 70.8666 -226.9654
v  463.4865 170.0792 -234.0520
v  463.4865 170.0792 -282.1973
v  463.4865 177.1658 -289.2839
v  463.4865 77.9532 -234.0520
v  463.4865 70.8666 -289.2839
v  463.4865 77.9532 -282.1973
v  457.8186 177.1658 -289.2839
v  457.8186 70.8666 -289.2839
v  461.6613 77.9532 -234.0520
v  461.6613 170.0792 -234.0520
v  461.6613 170.0792 -282.1973
v  461.6613 77.9532 -282.1973
v  463.4864 177.1658 -106.4428
v  457.8185 177.1658 -106.4428
v  457.8185 70.8666 -106.4428
v  463.4864 70.8666 -106.4428
v  463.4865 170.0792 -113.5295
v  463.4865 170.0792 -161.6747
v  463.4865 177.1658 -168.7613
v  463.4865 77.9532 -113.5295
v  463.4865 70.8666 -168.7614
v  463.4865 77.9532 -161.6747
v  457.8185 177.1658 -168.7613
v  457.8185 70.8666 -168.7614
v  461.6613 77.9532 -113.5295
v  461.6613 170.0792 -113.5295
v  461.6613 170.0792 -161.6747
v  461.6613 77.9532 -161.6747
v  463.4864 177.1658 14.0797
v  457.8184 177.1658 14.0797
v  457.8184 70.8666 14.0797
v  463.4864 70.8666 14.0797
v  463.4864 170.0792 6.9931
v  463.4864 170.0792 -41.1522
v  463.4864 177.1658 -48.2388
v  463.4864 77.9532 6.9931
v  463.4864 70.8666 -48.2388
v  463.4864 77.9532 -41.1522
v  457.8184 177.1658 -48.2388
v  457.8184 70.8666 -48.2388
v  461.6612 77.9532 6.9931
v  461.6612 170.0792 6.9931
v  461.6612 170.0792 -41.1522
v  461.6612 77.9532 -41.1522
v  463.4864 177.1658 135.2906
v  457.8183 177.1658 135.2906
v  457.8183 70.8666 135.2906
v  463.4864 70.8666 135.2906
v  463.4864 170.0792 128.2040
v  463.4864 170.0792 80.0588
v  463.4864 177.1658 72.9721
v  463.4864 77.9532 128.2040
v  463.4864 70.8666 72.9721
v  463.4864 77.9532 80.0587
v  457.8183 177.1658 72.9721
v  457.8183 70.8666 72.9721
v  461.6611 77.9532 128.2040
v  461.6611 170.0792 128.2040
v  461.6612 170.0792 80.0588
v  461.6612 77.9532 80.0587
v  463.4865 336.6146 -226.9654
v  457.8185 336.6146 -226.9654
v  457.8185 230.3154 -226.9654
v  463.4865 230.3154 -226.9654
v  463.4865 329.5280 -234.0520
v  463.4865 329.5281 -282.1973
v  463.4865 336.6147 -289.2838
v  463.4865 237.4021 -234.0520
v  463.4865 230.3154 -289.2839
v  463.4865 237.4021 -282.1973
v  457.8185 336.6147 -289.2838
v  457.8185 230.3154 -289.2839
v  461.6613 237.4021 -234.0520
v  461.6613 329.5280 -234.0520
v  461.6613 329.5281 -282.1973
v  461.6613 237.4021 -282.1973
v  463.4864 336.6146 -106.4428
v  457.8184 336.6146 -106.4429
v  457.8184 230.3154 -106.4429
v  463.4864 230.3154 -106.4429
v  463.4864 329.5280 -113.5295
v  463.4865 329.5280 -161.6747
v  463.4865 336.6146 -168.7614
v  463.4864 237.4021 -113.5295
v  463.4865 230.3154 -168.7614
v  463.4865 237.4021 -161.6747
v  457.8185 336.6146 -168.7614
v  457.8185 230.3154 -168.7614
v  461.6612 237.4021 -113.5295
v  461.6612 329.5280 -113.5295
v  461.6613 329.5280 -161.6747
v  461.6613 237.4021 -161.6747
v  463.4864 336.6146 14.0797
v  457.8184 336.6146 14.0797
v  457.8184 230.3154 14.0797
v  463.4864 230.3154 14.0797
v  463.4864 329.5280 6.9931
v  463.4864 329.5280 -41.1522
v  463.4864 336.6146 -48.2388
v  463.4864 237.4020 6.9931
v  463.4864 230.3154 -48.2388
v  463.4864 237.4020 -41.1522
v  457.8184 336.6146 -48.2388
v  457.8184 230.3154 -48.2388
v  461.6612 237.4020 6.9931
v  461.6612 329.5280 6.9931
v  461.6612 329.5280 -41.1522
v  461.6612 237.4020 -41.1522
v  463.4864 336.6146 135.2906
v  457.8183 336.6146 135.2906
v  457.8183 230.3154 135.2906
v  463.4864 230.3154 135.2906
v  463.4864 329.5280 128.2040
v  463.4864 329.5280 80.0588
v  463.4864 336.6146 72.9721
v  463.4864 237.4020 128.2040
v  463.4864 230.3154 72.9721
v  463.4864 237.4020 80.0588
v  457.8183 336.6146 72.9721
v  457.8183 230.3154 72.9721
v  461.6611 237.4020 128.2040
v  461.6611 329.5280 128.2040
v  461.6612 329.5280 80.0588
v  461.6612 237.4020 80.0588
v  -405.1210 177.1658 194.1203
v  -405.1210 177.1658 188.4523
v  -405.1210 70.8666 188.4523
v  -405.1210 70.8666 194.1203
v  -398.0343 170.0792 194.1203
v  -349.8891 170.0792 194.1203
v  -342.8024 177.1658 194.1203
v  -398.0343 77.9532 194.1203
v  -342.8024 70.8666 194.1203
v  -349.8891 77.9532 194.1203
v  -342.8024 177.1658 188.4523
v  -342.8024 70.8666 188.4523
v  -398.0343 77.9532 192.2951
v  -398.0343 170.0792 192.2951
v  -349.8891 170.0792 192.2951
v  -349.8891 77.9532 192.2951
v  342.8023 177.1658 194.1203
v  342.8023 177.1658 188.4523
v  342.8023 70.8666 188.4523
v  342.8023 70.8666 194.1203
v  349.8889 170.0792 194.1203
v  398.0342 170.0792 194.1203
v  405.1208 177.1658 194.1203
v  349.8889 77.9532 194.1203
v  405.1208 70.8666 194.1203
v  398.0342 77.9532 194.1203
v  405.1208 177.1658 188.4523
v  405.1208 70.8666 188.4523
v  349.8889 77.9532 192.2951
v  349.8889 170.0792 192.2951
v  398.0342 170.0792 192.2951
v  398.0342 77.9532 192.2951
v  -405.1210 336.6146 194.1203
v  -405.1210 336.6146 188.4523
v  -405.1210 230.3154 188.4523
v  -405.1210 230.3154 194.1203
v  -398.0343 329.5280 194.1203
v  -349.8891 329.5280 194.1203
v  -342.8024 336.6146 194.1203
v  -398.0343 237.4020 194.1203
v  -342.8024 230.3154 194.1203
v  -349.8891 237.4020 194.1203
v  -342.8024 336.6146 188.4523
v  -342.8024 230.3154 188.4523
v  -398.0343 237.4020 192.2951
v  -398.0343 329.5280 192.2951
v  -349.8891 329.5280 192.2951
v  -349.8891 237.4020 192.2951
v  342.8023 336.6146 194.1203
v  342.8023 336.6146 188.4523
v  342.8023 230.3154 188.4523
v  342.8023 230.3154 194.1203
v  349.8889 329.5280 194.1203
v  398.0342 329.5280 194.1203
v  405.1208 336.6146 194.1203
v  349.8889 237.4020 194.1203
v  405.1208 230.3154 194.1203
v  398.0342 237.4020 194.1203
v  405.1208 336.6146 188.4523
v  405.1208 230.3154 188.4523
v  349.8889 237.4020 192.2951
v  349.8889 329.5280 192.2951
v  398.0342 329.5280 192.2951
v  398.0342 237.4020 192.2951
v  -463.1243 375.5909 193.0314
v  -463.1243 375.5910 -382.3521
v  -463.1243 368.5044 -382.3521
v  -463.1243 368.5043 193.0314
v  463.1243 375.5910 -382.3521
v  463.1243 368.5044 -382.3521
v  463.1243 375.5909 193.0314
v  463.1243 368.5043 193.0314
v  -461.0203 442.9138 190.8810
v  -461.0203 442.9138 -380.2018
v  -461.0203 17.7170 -380.2018
v  -461.0203 17.7169 190.8810
v  461.0098 442.9138 -380.2018
v  461.0098 17.7170 -380.2018
v  461.0098 442.9138 190.8810
v  461.0098 17.7169 190.8810
v  463.8564 442.9138 193.7309
v  -463.8669 442.9138 193.7309
v  463.8564 460.6303 193.7309
v  -463.8669 460.6303 193.7309
v  463.8564 442.9138 -383.0516
v  -463.8669 442.9138 -383.0516
v  425.6562 460.6303 155.7125
v  -425.6667 460.6303 155.7125
v  463.8564 460.6304 -383.0516
v  -463.8669 460.6304 -383.0516
v  425.6562 437.8394 155.7125
v  -425.6667 437.8394 155.7125
v  425.6562 460.6304 -345.0333
v  -425.6667 460.6304 -345.0333
v  425.6562 437.8395 -345.0333
v  -425.6667 437.8395 -345.0333
v  0.0000 442.7901 348.7855
v  0.0000 442.7901 309.9266
v  -80.1756 415.3127 309.9266
v  -80.1756 415.3127 348.7855
v  80.1756 415.3127 309.9266
v  80.1756 415.3127 348.7855
v  0.0000 436.3550 348.7855
v  45.6313 420.7165 348.7855
v  0.0000 436.3550 347.7547
v  45.6313 420.7165 347.7547
v  -45.6313 420.7165 348.7855
v  -45.6313 420.7165 347.7547
v  -295.8661 308.2068 353.8732
v  -295.8661 308.2068 134.1881
v  -295.8661 301.1202 134.1881
v  -295.8661 301.1202 353.8732
v  295.8661 308.2068 353.8732
v  295.8661 301.1202 353.8732
v  295.8661 308.2068 134.1881
v  212.1804 308.2068 134.1881
v  212.1804 308.2068 288.2541
v  -212.1804 308.2068 288.2541
v  -212.1804 308.2068 134.1881
v  -212.1804 301.1202 134.1881
v  -212.1804 301.1201 288.2541
v  212.1804 301.1201 288.2541
v  212.1804 301.1202 134.1881
v  295.8661 301.1202 134.1881
v  -465.0668 35.4335 194.9640
v  -465.0668 35.4336 -384.2428
v  -465.0668 0.0002 -384.2428
v  -465.0668 0.0001 194.9640
v  -100.2999 35.4335 194.9640
v  -100.2999 0.0001 194.9640
v  465.0668 35.4335 194.9640
v  465.0668 35.4336 -384.2428
v  100.2999 35.4335 172.2454
v  -100.2999 35.4335 172.2454
v  100.2999 35.4335 194.9640
v  465.0668 0.0002 -384.2428
v  -100.2999 0.0001 172.2455
v  465.0668 0.0001 194.9640
v  100.2999 0.0001 194.9640
v  100.2999 0.0001 172.2455
v  116.6604 336.6146 194.1203
v  116.6604 336.6146 188.4523
v  116.6604 230.3154 188.4523
v  116.6604 230.3154 194.1203
v  123.7471 329.5280 194.1203
v  171.8923 329.5280 194.1203
v  178.9790 336.6146 194.1203
v  123.7471 237.4020 194.1203
v  178.9790 230.3154 194.1203
v  171.8923 237.4020 194.1203
v  178.9790 336.6146 188.4523
v  178.9790 230.3154 188.4523
v  123.7471 237.4020 192.2951
v  123.7471 329.5280 192.2951
v  171.8923 329.5280 192.2951
v  171.8923 237.4020 192.2951
v  -178.9790 336.6146 194.1203
v  -178.9790 336.6146 188.4523
v  -178.9790 230.3154 188.4523
v  -178.9790 230.3154 194.1203
v  -171.8923 329.5280 194.1203
v  -123.7471 329.5280 194.1203
v  -116.6604 336.6146 194.1203
v  -171.8923 237.4020 194.1203
v  -116.6604 230.3154 194.1203
v  -123.7471 237.4020 194.1203
v  -116.6604 336.6146 188.4523
v  -116.6604 230.3154 188.4523
v  -171.8923 237.4020 192.2951
v  -171.8923 329.5280 192.2951
v  -123.7471 329.5280 192.2951
v  -123.7471 237.4020 192.2951
v  -178.9790 177.1658 194.1203
v  -178.9790 177.1658 188.4523
v  -178.9790 70.8666 188.4523
v  -178.9790 70.8666 194.1203
v  -171.8923 170.0792 194.1203
v  -123.7471 170.0792 194.1203
v  -116.6604 177.1658 194.1203
v  -171.8923 77.9532 194.1203
v  -116.6604 70.8666 194.1203
v  -123.7471 77.9532 194.1203
v  -116.6604 177.1658 188.4523
v  -116.6604 70.8666 188.4523
v  -171.8923 77.9532 192.2951
v  -171.8923 170.0792 192.2951
v  -123.7471 170.0792 192.2951
v  -123.7471 77.9532 192.2951
v  -287.0079 273.4454 194.4243
v  -287.0079 273.4454 141.2747
v  -287.0079 17.7170 141.2747
v  -287.0079 17.7169 194.4243
v  -233.8582 273.4454 141.2747
v  -233.8582 17.7170 141.2747
v  -233.8582 273.4454 194.4243
v  -233.8582 17.7169 194.4243
v  -232.0787 273.4454 196.2039
v  -288.7874 273.4454 196.2039
v  -232.0787 287.1412 196.2039
v  -288.7874 287.1412 196.2039
v  -232.0787 273.4454 139.4952
v  -288.7874 273.4454 139.4952
v  -225.5488 299.8051 202.7338
v  -295.3173 299.8051 202.7338
v  -232.0787 287.1412 139.4952
v  -288.7874 287.1412 139.4952
v  -225.5488 304.5764 202.7338
v  -295.3173 304.5764 202.7338
v  -225.5488 299.8051 132.9653
v  -295.3173 299.8051 132.9653
v  -225.5488 304.5764 132.9653
v  -295.3173 304.5764 132.9653
v  233.8582 273.4454 194.4243
v  233.8582 273.4454 141.2747
v  233.8582 17.7170 141.2747
v  233.8582 17.7169 194.4243
v  287.0079 273.4454 141.2747
v  287.0079 17.7170 141.2747
v  287.0079 273.4454 194.4243
v  287.0079 17.7169 194.4243
v  288.7874 273.4454 196.2039
v  232.0787 273.4454 196.2039
v  288.7874 287.1412 196.2039
v  232.0787 287.1412 196.2039
v  288.7874 273.4454 139.4952
v  232.0787 273.4454 139.4952
v  295.3173 299.8051 202.7338
v  225.5488 299.8051 202.7338
v  288.7874 287.1412 139.4952
v  232.0787 287.1412 139.4952
v  295.3173 304.5764 202.7338
v  225.5488 304.5764 202.7338
v  295.3173 299.8051 132.9653
v  225.5488 299.8051 132.9653
v  295.3173 304.5764 132.9653
v  225.5488 304.5764 132.9653
v  116.6605 177.1658 194.1203
v  116.6605 177.1658 188.4523
v  116.6605 70.8666 188.4523
v  116.6605 70.8666 194.1203
v  123.7472 170.0792 194.1203
v  171.8924 170.0792 194.1203
v  178.9790 177.1658 194.1203
v  123.7472 77.9532 194.1203
v  178.9790 70.8666 194.1203
v  171.8924 77.9532 194.1203
v  178.9790 177.1658 188.4523
v  178.9790 70.8666 188.4523
v  123.7472 77.9532 192.2951
v  123.7472 170.0792 192.2951
v  171.8924 170.0792 192.2951
v  171.8924 77.9532 192.2951
v  -62.0079 196.2198 194.7142
v  -62.0079 196.2198 187.2813
v  -62.0079 36.7710 187.2812
v  -62.0079 36.7710 194.7142
v  -54.9213 188.2473 194.7142
v  54.9213 188.2473 194.7142
v  62.0079 196.2198 194.7142
v  -54.9213 44.7434 194.7142
v  62.0079 36.7710 194.7142
v  54.9213 44.7434 194.7142
v  62.0079 196.2198 187.2813
v  62.0079 36.7710 187.2812
v  -54.9213 44.7434 192.8912
v  -54.9213 188.2473 192.8912
v  54.9213 188.2473 192.8912
v  54.9213 44.7434 192.8912
v  -307.6967 390.4020 360.4499
v  -307.6967 384.6767 360.4499
v  -307.6967 384.6767 365.0706
v  -307.6967 390.4020 365.0706
v  -0.0000 478.9496 360.4499
v  302.8730 386.3766 360.4499
v  -0.0000 493.2089 360.4499
v  -302.8730 386.3769 360.4499
v  -259.9362 387.2627 360.4499
v  -302.8730 392.1022 360.4499
v  -302.8730 392.1021 190.8808
v  -307.6967 390.4020 190.8807
v  -302.8730 386.3768 190.8808
v  -0.0000 493.2089 190.8808
v  302.8730 386.3766 190.8808
v  -302.8730 372.0477 190.8808
v  -302.8730 372.0477 360.4499
v  -259.9362 387.2627 349.7534
v  -0.0000 478.9496 349.7535
v  259.9362 387.2624 360.4499
v  302.8730 372.0475 360.4499
v  302.8730 372.0475 190.8808
v  259.9362 387.2624 349.7534
v  -0.0000 464.9685 349.7534
v  -188.5721 398.4537 349.7534
v  188.5721 398.4536 349.7534
v  -188.5721 398.4537 345.8594
v  -0.0000 464.9685 345.8595
v  188.5721 398.4536 345.8594
v  -292.3228 372.0476 350.3298
v  -292.3228 372.0476 137.7314
v  -292.3228 301.1815 137.7314
v  -292.3228 301.1815 350.3298
v  292.3228 372.0476 350.3298
v  292.3228 301.1815 350.3298
v  292.3228 372.0476 137.7314
v  292.3228 301.1815 137.7314
v  212.1804 301.1815 137.7314
v  212.1804 365.4638 137.7314
v  -212.1804 365.4638 137.7314
v  -212.1804 301.1815 137.7314
v  -212.1804 301.1815 288.2540
v  212.1804 301.1815 288.2540
v  -212.1804 365.4638 288.2540
v  212.1804 365.4638 288.2540
v  -0.0000 498.9341 360.4499
v  -0.0000 498.9342 190.8808
v  302.8730 392.1019 360.4499
v  302.8730 392.1019 190.8808
v  -302.8730 392.1022 365.0706
v  -0.0000 498.9341 365.0706
v  307.6967 390.4018 190.8807
v  307.6967 384.6765 190.8807
v  307.6967 384.6765 190.8808
v  307.6967 390.4018 190.8808
v  -0.0000 498.9342 190.8809
v  -0.0000 493.2089 365.0706
v  -302.8730 386.3769 365.0706
v  -307.6967 384.6767 190.8807
v  307.6967 384.6765 360.4499
v  307.6967 390.4018 360.4499
v  302.8730 392.1019 365.0706
v  -0.0000 493.2089 190.8809
v  302.8730 386.3766 365.0706
v  -307.6967 384.6767 190.8808
v  -307.6967 390.4020 190.8808
v  307.6967 384.6765 365.0706
v  307.6967 390.4018 365.0706
v  -31.1593 336.6146 194.1203
v  -31.1593 336.6146 188.4523
v  -31.1593 230.3154 188.4523
v  -31.1593 230.3154 194.1203
v  -24.0726 329.5280 194.1203
v  24.0726 329.5280 194.1203
v  31.1593 336.6146 194.1203
v  -24.0726 237.4020 194.1203
v  31.1593 230.3154 194.1203
v  24.0726 237.4020 194.1203
v  31.1593 336.6146 188.4523
v  31.1593 230.3154 188.4523
v  -24.0726 237.4020 192.2951
v  -24.0726 329.5280 192.2951
v  24.0726 329.5280 192.2951
v  24.0726 237.4020 192.2951
# 944 vertices

vn 0.2588 0.0000 -0.9659
vn 0.7071 0.0000 -0.7071
vn 0.9659 0.0000 -0.2588
vn 0.9659 -0.0000 0.2588
vn 0.7071 -0.0000 0.7071
vn 0.2588 -0.0000 0.9659
vn -0.2588 -0.0000 0.9659
vn -0.7071 -0.0000 0.7071
vn -0.9659 -0.0000 0.2588
vn -0.9659 0.0000 -0.2588
vn 0.0000 -1.0000 -0.0000
vn -0.2588 0.0000 -0.9659
vn -0.7071 0.0000 -0.7071
vn 0.0000 1.0000 0.0000
vn -1.0000 0.0000 -0.0000
vn 0.0000 0.0000 -1.0000
vn 1.0000 0.0000 -0.0000
vn 0.0000 -0.0000 1.0000
vn 0.0000 -0.0000 -1.0000
vn -1.0000 -0.0000 -0.0000
vn 1.0000 -0.0000 0.0000
vn 0.0000 1.0000 -0.0000
vn 0.0000 -1.0000 0.0000
vn 1.0000 0.0000 0.0000
vn -0.0000 -0.0000 1.0000
vn -0.0000 -1.0000 -0.0000
vn -0.3242 0.9460 0.0000
vn 0.3242 0.9460 0.0000
vn -0.3242 -0.9460 -0.0000
vn 0.3242 -0.9460 -0.0000
vn 0.0000 0.0000 1.0000
vn -0.0000 1.0000 0.0000
vn 0.0000 -0.4583 0.8888
vn 0.8888 -0.4583 -0.0000
vn 0.0000 -0.4583 -0.8888
vn -0.8888 -0.4583 -0.0000
vn -0.0000 0.0000 1.0000
vn -0.3324 0.9431 0.0000
vn -0.3324 0.9431 -0.0000
vn 0.3326 -0.9431 -0.0000
vn -0.0000 -1.0000 0.0000
vn -0.3326 -0.9431 -0.0000
vn -0.0000 0.0000 -1.0000
vn -0.3326 0.9431 0.0000
vn 0.3326 0.9431 0.0000
vn 0.3324 0.9431 0.0000
vn 0.3324 -0.9431 0.0000
vn 0.3324 -0.9431 -0.0000
vn -0.3324 -0.9431 -0.0000
# 49 vertex normals

vt 0.0591 0.4750 0.0000
vt 0.1091 0.4750 0.0000
vt 0.1091 0.5250 0.0000
vt 0.0591 0.5250 0.0000
vt 0.0841 0.5250 0.0000
vt 0.0966 0.5217 0.0000
vt 0.1058 0.5125 0.0000
vt 0.1091 0.5000 0.0000
vt 0.1058 0.4875 0.0000
vt 0.0966 0.4783 0.0000
vt 0.0841 0.4750 0.0000
vt 0.0716 0.4783 0.0000
vt 0.0625 0.4875 0.0000
vt 0.0591 0.5000 0.0000
vt 0.0625 0.5125 0.0000
vt 0.0716 0.5217 0.0000
vt 0.0714 0.4602 0.0000
vt 0.1214 0.4602 0.0000
vt 0.1214 0.5102 0.0000
vt 0.0714 0.5102 0.0000
vt 0.1730 0.3539 0.0000
vt 0.2230 0.3539 0.0000
vt 0.2230 0.4039 0.0000
vt 0.1730 0.4039 0.0000
vt 0.0521 0.0749 0.0000
vt 0.1021 0.0749 0.0000
vt 0.1021 0.1249 0.0000
vt 0.0521 0.1249 0.0000
vt 0.0988 0.0874 0.0000
vt 0.0771 0.0749 0.0000
vt 0.0555 0.0874 0.0000
vt 0.0555 0.1124 0.0000
vt 0.0988 0.1124 0.0000
vt 0.0771 0.1249 0.0000
vt 0.8492 0.6938 0.0000
vt 0.8492 0.4372 0.0000
vt 0.9834 0.4372 0.0000
vt 0.9834 0.6938 0.0000
vt 0.8495 0.6938 0.0000
vt 0.8495 0.4372 0.0000
vt 0.9837 0.4372 0.0000
vt 0.9837 0.6938 0.0000
vt 0.8500 0.6938 0.0000
vt 0.8500 0.4372 0.0000
vt 0.9841 0.4372 0.0000
vt 0.9841 0.6938 0.0000
vt 0.8502 0.6938 0.0000
vt 0.8502 0.4372 0.0000
vt 0.9843 0.4372 0.0000
vt 0.9843 0.6938 0.0000
vt 0.8501 0.6938 0.0000
vt 0.8501 0.4372 0.0000
vt 0.9842 0.4372 0.0000
vt 0.9842 0.6938 0.0000
vt 0.1785 0.4671 0.0000
vt 0.2285 0.4671 0.0000
vt 0.2285 0.5171 0.0000
vt 0.1785 0.5171 0.0000
vt 0.3187 0.3539 0.0000
vt 0.3687 0.3539 0.0000
vt 0.3687 0.4039 0.0000
vt 0.3187 0.4039 0.0000
vt 0.2433 0.6147 0.0000
vt 0.1933 0.6147 0.0000
vt 0.4935 0.9199 0.0000
vt 0.5435 0.9199 0.0000
vt 0.5435 0.9699 0.0000
vt 0.4935 0.9699 0.0000
vt 0.0375 0.4867 0.0000
vt 0.0875 0.4867 0.0000
vt 0.0875 0.5367 0.0000
vt 0.0375 0.5367 0.0000
vt 0.7157 0.4786 0.0000
vt 0.7305 0.4786 0.0000
vt 0.7305 0.4933 0.0000
vt 0.0521 0.3601 0.0000
vt 0.1021 0.3601 0.0000
vt 0.1021 0.4101 0.0000
vt 0.0521 0.4101 0.0000
vt 0.0771 0.4101 0.0000
vt 0.0948 0.4028 0.0000
vt 0.1021 0.3851 0.0000
vt 0.0948 0.3674 0.0000
vt 0.0771 0.3601 0.0000
vt 0.0594 0.3674 0.0000
vt 0.0521 0.3851 0.0000
vt 0.0594 0.4028 0.0000
vt 0.1732 0.3664 0.0000
vt 0.2232 0.3664 0.0000
vt 0.2232 0.4164 0.0000
vt 0.1732 0.4164 0.0000
vt 0.1982 0.4164 0.0000
vt 0.2159 0.4091 0.0000
vt 0.2232 0.3914 0.0000
vt 0.1732 0.3914 0.0000
vt 0.2159 0.3737 0.0000
vt 0.1982 0.3664 0.0000
vt 0.1806 0.3737 0.0000
vt 0.1806 0.4091 0.0000
vt 0.3374 0.5275 0.0000
vt 0.3874 0.5275 0.0000
vt 0.3874 0.5775 0.0000
vt 0.3374 0.5775 0.0000
vt 0.6837 0.4075 0.0000
vt 0.6837 0.0148 0.0000
vt 0.9843 0.0148 0.0000
vt 0.9843 0.4075 0.0000
vt 0.1699 0.8624 0.0000
vt 0.0585 0.4287 0.0000
vt 0.0823 0.4114 0.0000
vt 0.0732 0.3835 0.0000
vt 0.0438 0.3835 0.0000
vt 0.0347 0.4114 0.0000
vt 0.1699 0.9124 0.0000
vt 0.2199 0.9124 0.0000
vt 0.0490 0.2268 0.0000
vt 0.0990 0.2268 0.0000
vt 0.0990 0.2768 0.0000
vt 0.0490 0.2768 0.0000
vt 0.0335 0.3787 0.0000
vt 0.0835 0.3787 0.0000
vt 0.0835 0.4287 0.0000
vt 0.0335 0.4287 0.0000
vt 0.0701 0.3835 0.0000
vt 0.0407 0.3835 0.0000
vt 0.0316 0.4114 0.0000
vt 0.0792 0.4114 0.0000
vt 0.0554 0.4287 0.0000
vt 0.0304 0.3787 0.0000
vt 0.0804 0.3787 0.0000
vt 0.0804 0.4287 0.0000
vt 0.0304 0.4287 0.0000
vt 0.3278 0.6386 0.0000
vt 0.8285 0.6386 0.0000
vt 0.5781 0.7269 0.0000
vt 0.4118 0.3824 0.0000
vt 0.4220 0.3840 0.0000
vt 0.4233 0.3812 0.0000
vt 0.4184 0.3844 0.0000
vt 0.9648 0.8573 0.0000
vt 0.3037 0.8573 0.0000
vt 0.3037 0.7771 0.0000
vt 0.9648 0.7771 0.0000
vt 0.4494 0.3787 0.0000
vt 0.4554 0.3821 0.0000
vt 0.4538 0.3872 0.0000
vt 0.4118 0.3876 0.0000
vt 0.4476 0.3851 0.0000
vt 0.4201 0.3851 0.0000
vt 0.4118 0.3869 0.0000
vt 0.4214 0.3863 0.0000
vt 0.4179 0.3844 0.0000
vt 0.4498 0.3844 0.0000
vt 0.4463 0.3863 0.0000
vt 0.4618 0.3793 0.0000
vt 0.4511 0.3811 0.0000
vt 0.4560 0.3869 0.0000
vt 0.2199 0.8624 0.0000
vt 0.1802 0.8671 0.0000
vt 0.2096 0.8671 0.0000
vt 0.2187 0.8951 0.0000
# 161 texture coords

g SPB_City_Hall
usemtl SPB_City_Hall
s off
f 1/1/1 2/2/1 3/3/1 4/4/1 
f 4/1/2 3/2/2 5/3/2 6/4/2 
f 6/1/3 5/2/3 7/3/3 8/4/3 
f 8/1/4 7/2/4 9/3/4 10/4/4 
f 10/1/5 9/2/5 11/3/5 12/4/5 
f 12/1/6 11/2/6 13/3/6 14/4/6 
f 14/1/7 13/2/7 15/3/7 16/4/7 
f 16/1/8 15/2/8 17/3/8 18/4/8 
f 18/1/9 17/2/9 19/3/9 20/4/9 
f 20/1/10 19/2/10 21/3/10 22/4/10 
s 1
f 2/1/11 23/2/11 24/3/11 25/4/11 
s off
f 26/1/12 23/2/12 2/3/12 1/4/12 
f 22/1/13 21/2/13 23/3/13 26/4/13 
s 1
f 26/1/14 1/2/14 27/3/14 28/4/14 
s off
f 25/1/12 24/2/12 29/3/12 30/4/12 
s 2
f 23/1/11 21/2/11 31/3/11 24/4/11 
f 21/1/11 19/2/11 32/3/11 31/4/11 
f 19/1/11 17/2/11 33/3/11 32/4/11 
f 17/1/11 15/2/11 34/3/11 33/4/11 
s 1
f 15/1/11 13/2/11 35/3/11 34/4/11 
f 13/1/11 11/2/11 36/3/11 35/4/11 
s 2
f 11/1/11 9/2/11 37/3/11 36/4/11 
f 9/1/11 7/2/11 38/3/11 37/4/11 
s off
f 7/1/11 5/2/11 39/3/11 38/4/11 
f 5/1/11 3/2/11 40/3/11 39/4/11 
s 1
f 3/1/11 2/2/11 25/3/11 40/4/11 
s off
f 41/5/14 30/6/14 29/7/14 42/8/14 
f 41/5/14 42/8/14 43/9/14 44/10/14 
f 41/5/14 44/10/14 45/11/14 46/12/14 
f 41/5/14 46/12/14 47/13/14 48/14/14 
f 41/5/14 48/14/14 49/15/14 50/16/14 
f 24/1/13 31/2/13 42/3/13 29/4/13 
f 31/1/10 32/2/10 43/3/10 42/4/10 
f 32/1/9 33/2/9 44/3/9 43/4/9 
f 33/1/8 34/2/8 45/3/8 44/4/8 
f 34/1/7 35/2/7 46/3/7 45/4/7 
f 35/1/6 36/2/6 47/3/6 46/4/6 
f 36/1/5 37/2/5 48/3/5 47/4/5 
f 37/1/4 38/2/4 49/3/4 48/4/4 
f 38/1/3 39/2/3 50/3/3 49/4/3 
f 39/1/2 40/2/2 41/3/2 50/4/2 
f 40/1/1 25/2/1 30/3/1 41/4/1 
f 28/1/12 27/2/12 51/3/12 52/4/12 
s 1
f 22/1/14 26/2/14 28/3/14 53/4/14 
f 20/1/14 22/2/14 53/3/14 54/4/14 
f 18/1/14 20/2/14 54/3/14 55/4/14 
f 16/1/14 18/2/14 55/3/14 56/4/14 
f 14/1/14 16/2/14 56/3/14 57/4/14 
f 12/1/14 14/2/14 57/3/14 58/4/14 
f 10/1/14 12/2/14 58/3/14 59/4/14 
f 8/1/14 10/2/14 59/3/14 60/4/14 
f 6/1/14 8/2/14 60/3/14 61/4/14 
f 4/1/14 6/2/14 61/3/14 62/4/14 
f 1/1/14 4/2/14 62/3/14 27/4/14 
s off
f 51/5/11 63/6/11 64/7/11 65/8/11 
f 51/5/11 65/8/11 66/9/11 67/10/11 
f 51/5/11 67/10/11 68/11/11 69/12/11 
f 51/5/11 69/12/11 70/13/11 71/14/11 
f 51/5/11 71/14/11 72/15/11 52/16/11 
f 53/1/13 28/2/13 52/3/13 72/4/13 
f 54/1/10 53/2/10 72/3/10 71/4/10 
f 55/1/9 54/2/9 71/3/9 70/4/9 
f 56/1/8 55/2/8 70/3/8 69/4/8 
f 57/1/7 56/2/7 69/3/7 68/4/7 
f 58/1/6 57/2/6 68/3/6 67/4/6 
f 59/1/5 58/2/5 67/3/5 66/4/5 
f 60/1/4 59/2/4 66/3/4 65/4/4 
f 61/1/3 60/2/3 65/3/3 64/4/3 
f 62/1/2 61/2/2 64/3/2 63/4/2 
f 27/1/1 62/2/1 63/3/1 51/4/1 
f 73/17/15 74/18/15 75/19/15 76/20/15 
f 74/17/16 77/18/16 78/19/16 75/20/16 
f 77/17/17 79/18/17 80/19/17 78/20/17 
f 79/17/18 73/18/18 76/19/18 80/20/18 
f 76/17/11 75/18/11 78/19/11 80/20/11 
f 79/17/14 77/18/14 74/19/14 73/20/14 
f 81/1/1 82/2/1 83/3/1 84/4/1 
f 84/1/2 83/2/2 85/3/2 86/4/2 
f 86/1/3 85/2/3 87/3/3 88/4/3 
f 88/1/4 87/2/4 89/3/4 90/4/4 
f 90/1/5 89/2/5 91/3/5 92/4/5 
f 92/1/6 91/2/6 93/3/6 94/4/6 
f 94/1/7 93/2/7 95/3/7 96/4/7 
f 96/1/8 95/2/8 97/3/8 98/4/8 
f 98/1/9 97/2/9 99/3/9 100/4/9 
f 100/1/10 99/2/10 101/3/10 102/4/10 
s 1
f 82/1/11 103/2/11 104/3/11 105/4/11 
s off
f 106/1/12 103/2/12 82/3/12 81/4/12 
f 102/1/13 101/2/13 103/3/13 106/4/13 
s 1
f 106/1/14 81/2/14 107/3/14 108/4/14 
s off
f 105/1/12 104/2/12 109/3/12 110/4/12 
s 2
f 103/1/11 101/2/11 111/3/11 104/4/11 
f 101/1/11 99/2/11 112/3/11 111/4/11 
s off
f 99/1/11 97/2/11 113/3/11 112/4/11 
f 97/1/11 95/2/11 114/3/11 113/4/11 
s 1
f 95/1/11 93/2/11 115/3/11 114/4/11 
f 93/1/11 91/2/11 116/3/11 115/4/11 
s 2
f 91/1/11 89/2/11 117/3/11 116/4/11 
f 89/1/11 87/2/11 118/3/11 117/4/11 
f 87/1/11 85/2/11 119/3/11 118/4/11 
f 85/1/11 83/2/11 120/3/11 119/4/11 
s 1
f 83/1/11 82/2/11 105/3/11 120/4/11 
s off
f 121/5/14 110/6/14 109/7/14 122/8/14 
f 121/5/14 122/8/14 123/9/14 124/10/14 
f 121/5/14 124/10/14 125/11/14 126/12/14 
f 121/5/14 126/12/14 127/13/14 128/14/14 
f 121/5/14 128/14/14 129/15/14 130/16/14 
f 104/1/13 111/2/13 122/3/13 109/4/13 
f 111/1/10 112/2/10 123/3/10 122/4/10 
f 112/1/9 113/2/9 124/3/9 123/4/9 
f 113/1/8 114/2/8 125/3/8 124/4/8 
f 114/1/7 115/2/7 126/3/7 125/4/7 
f 115/1/6 116/2/6 127/3/6 126/4/6 
f 116/1/5 117/2/5 128/3/5 127/4/5 
f 117/1/4 118/2/4 129/3/4 128/4/4 
f 118/1/3 119/2/3 130/3/3 129/4/3 
f 119/1/2 120/2/2 121/3/2 130/4/2 
f 120/1/1 105/2/1 110/3/1 121/4/1 
f 108/1/12 107/2/12 131/3/12 132/4/12 
s 1
f 102/1/14 106/2/14 108/3/14 133/4/14 
f 100/1/14 102/2/14 133/3/14 134/4/14 
f 98/1/14 100/2/14 134/3/14 135/4/14 
f 96/1/14 98/2/14 135/3/14 136/4/14 
f 94/1/14 96/2/14 136/3/14 137/4/14 
f 92/1/14 94/2/14 137/3/14 138/4/14 
f 90/1/14 92/2/14 138/3/14 139/4/14 
f 88/1/14 90/2/14 139/3/14 140/4/14 
f 86/1/14 88/2/14 140/3/14 141/4/14 
f 84/1/14 86/2/14 141/3/14 142/4/14 
f 81/1/14 84/2/14 142/3/14 107/4/14 
s off
f 131/5/11 143/6/11 144/7/11 145/8/11 
f 131/5/11 145/8/11 146/9/11 147/10/11 
f 131/5/11 147/10/11 148/11/11 149/12/11 
f 131/5/11 149/12/11 150/13/11 151/14/11 
f 131/5/11 151/14/11 152/15/11 132/16/11 
f 133/1/13 108/2/13 132/3/13 152/4/13 
f 134/1/10 133/2/10 152/3/10 151/4/10 
f 135/1/9 134/2/9 151/3/9 150/4/9 
f 136/1/8 135/2/8 150/3/8 149/4/8 
f 137/1/7 136/2/7 149/3/7 148/4/7 
f 138/1/6 137/2/6 148/3/6 147/4/6 
f 139/1/5 138/2/5 147/3/5 146/4/5 
f 140/1/4 139/2/4 146/3/4 145/4/4 
f 141/1/3 140/2/3 145/3/3 144/4/3 
f 142/1/2 141/2/2 144/3/2 143/4/2 
f 107/1/1 142/2/1 143/3/1 131/4/1 
f 153/17/15 154/18/15 155/19/15 156/20/15 
f 154/17/16 157/18/16 158/19/16 155/20/16 
f 157/17/17 159/18/17 160/19/17 158/20/17 
f 159/17/18 153/18/18 156/19/18 160/20/18 
f 156/17/11 155/18/11 158/19/11 160/20/11 
f 159/17/14 157/18/14 154/19/14 153/20/14 
f 161/1/1 162/2/1 163/3/1 164/4/1 
f 164/1/2 163/2/2 165/3/2 166/4/2 
f 166/1/3 165/2/3 167/3/3 168/4/3 
f 168/1/4 167/2/4 169/3/4 170/4/4 
f 170/1/5 169/2/5 171/3/5 172/4/5 
f 172/1/6 171/2/6 173/3/6 174/4/6 
f 174/1/7 173/2/7 175/3/7 176/4/7 
f 176/1/8 175/2/8 177/3/8 178/4/8 
f 178/1/9 177/2/9 179/3/9 180/4/9 
f 180/1/10 179/2/10 181/3/10 182/4/10 
s 1
f 162/1/11 183/2/11 184/3/11 185/4/11 
s off
f 186/1/12 183/2/12 162/3/12 161/4/12 
f 182/1/13 181/2/13 183/3/13 186/4/13 
s 1
f 186/1/14 161/2/14 187/3/14 188/4/14 
s off
f 185/1/12 184/2/12 189/3/12 190/4/12 
s 2
f 183/1/11 181/2/11 191/3/11 184/4/11 
f 181/1/11 179/2/11 192/3/11 191/4/11 
s off
f 179/1/11 177/2/11 193/3/11 192/4/11 
f 177/1/11 175/2/11 194/3/11 193/4/11 
s 1
f 175/1/11 173/2/11 195/3/11 194/4/11 
f 173/1/11 171/2/11 196/3/11 195/4/11 
s 2
f 171/1/11 169/2/11 197/3/11 196/4/11 
f 169/1/11 167/2/11 198/3/11 197/4/11 
s off
f 167/1/11 165/2/11 199/3/11 198/4/11 
f 165/1/11 163/2/11 200/3/11 199/4/11 
s 1
f 163/1/11 162/2/11 185/3/11 200/4/11 
s off
f 201/5/14 190/6/14 189/7/14 202/8/14 
f 201/5/14 202/8/14 203/9/14 204/10/14 
f 201/5/14 204/10/14 205/11/14 206/12/14 
f 201/5/14 206/12/14 207/13/14 208/14/14 
f 201/5/14 208/14/14 209/15/14 210/16/14 
f 184/1/13 191/2/13 202/3/13 189/4/13 
f 191/1/10 192/2/10 203/3/10 202/4/10 
f 192/1/9 193/2/9 204/3/9 203/4/9 
f 193/1/8 194/2/8 205/3/8 204/4/8 
f 194/1/7 195/2/7 206/3/7 205/4/7 
f 195/1/6 196/2/6 207/3/6 206/4/6 
f 196/1/5 197/2/5 208/3/5 207/4/5 
f 197/1/4 198/2/4 209/3/4 208/4/4 
f 198/1/3 199/2/3 210/3/3 209/4/3 
f 199/1/2 200/2/2 201/3/2 210/4/2 
f 200/1/1 185/2/1 190/3/1 201/4/1 
f 188/1/12 187/2/12 211/3/12 212/4/12 
s 1
f 182/1/14 186/2/14 188/3/14 213/4/14 
f 180/1/14 182/2/14 213/3/14 214/4/14 
f 178/1/14 180/2/14 214/3/14 215/4/14 
f 176/1/14 178/2/14 215/3/14 216/4/14 
f 174/1/14 176/2/14 216/3/14 217/4/14 
f 172/1/14 174/2/14 217/3/14 218/4/14 
f 170/1/14 172/2/14 218/3/14 219/4/14 
f 168/1/14 170/2/14 219/3/14 220/4/14 
f 166/1/14 168/2/14 220/3/14 221/4/14 
s 3
f 164/1/14 166/2/14 221/3/14 222/4/14 
s 2
f 161/1/14 164/2/14 222/3/14 187/4/14 
s off
f 211/5/11 223/6/11 224/7/11 225/8/11 
f 211/5/11 225/8/11 226/9/11 227/10/11 
f 211/5/11 227/10/11 228/11/11 229/12/11 
f 211/5/11 229/12/11 230/13/11 231/14/11 
f 211/5/11 231/14/11 232/15/11 212/16/11 
f 213/1/13 188/2/13 212/3/13 232/4/13 
f 214/1/10 213/2/10 232/3/10 231/4/10 
f 215/1/9 214/2/9 231/3/9 230/4/9 
f 216/1/8 215/2/8 230/3/8 229/4/8 
f 217/1/7 216/2/7 229/3/7 228/4/7 
f 218/1/6 217/2/6 228/3/6 227/4/6 
f 219/1/5 218/2/5 227/3/5 226/4/5 
f 220/1/4 219/2/4 226/3/4 225/4/4 
f 221/1/3 220/2/3 225/3/3 224/4/3 
f 222/1/2 221/2/2 224/3/2 223/4/2 
f 187/1/1 222/2/1 223/3/1 211/4/1 
f 233/17/15 234/18/15 235/19/15 236/20/15 
f 234/17/16 237/18/16 238/19/16 235/20/16 
f 237/17/17 239/18/17 240/19/17 238/20/17 
f 239/17/18 233/18/18 236/19/18 240/20/18 
f 236/17/11 235/18/11 238/19/11 240/20/11 
f 239/17/14 237/18/14 234/19/14 233/20/14 
f 241/1/1 242/2/1 243/3/1 244/4/1 
f 244/1/2 243/2/2 245/3/2 246/4/2 
f 246/1/3 245/2/3 247/3/3 248/4/3 
f 248/1/4 247/2/4 249/3/4 250/4/4 
f 250/1/5 249/2/5 251/3/5 252/4/5 
f 252/1/6 251/2/6 253/3/6 254/4/6 
f 254/1/7 253/2/7 255/3/7 256/4/7 
f 256/1/8 255/2/8 257/3/8 258/4/8 
f 258/1/9 257/2/9 259/3/9 260/4/9 
f 260/1/10 259/2/10 261/3/10 262/4/10 
f 242/1/11 263/2/11 264/3/11 265/4/11 
f 266/1/12 263/2/12 242/3/12 241/4/12 
f 262/1/13 261/2/13 263/3/13 266/4/13 
s 1
f 266/1/14 241/2/14 267/3/14 268/4/14 
s off
f 265/1/12 264/2/12 269/3/12 270/4/12 
f 263/1/11 261/2/11 271/3/11 264/4/11 
s 1
f 261/1/11 259/2/11 272/3/11 271/4/11 
f 259/1/11 257/2/11 273/3/11 272/4/11 
s off
f 257/1/11 255/2/11 274/3/11 273/4/11 
s 1
f 255/1/11 253/2/11 275/3/11 274/4/11 
f 253/1/11 251/2/11 276/3/11 275/4/11 
s 2
f 251/1/11 249/2/11 277/3/11 276/4/11 
f 249/1/11 247/2/11 278/3/11 277/4/11 
s off
f 247/1/11 245/2/11 279/3/11 278/4/11 
s 1
f 245/1/11 243/2/11 280/3/11 279/4/11 
f 243/1/11 242/2/11 265/3/11 280/4/11 
s off
f 281/5/14 270/6/14 269/7/14 282/8/14 
f 281/5/14 282/8/14 283/9/14 284/10/14 
f 281/5/14 284/10/14 285/11/14 286/12/14 
f 281/5/14 286/12/14 287/13/14 288/14/14 
f 281/5/14 288/14/14 289/15/14 290/16/14 
f 264/1/13 271/2/13 282/3/13 269/4/13 
f 271/1/10 272/2/10 283/3/10 282/4/10 
f 272/1/9 273/2/9 284/3/9 283/4/9 
f 273/1/8 274/2/8 285/3/8 284/4/8 
f 274/1/7 275/2/7 286/3/7 285/4/7 
f 275/1/6 276/2/6 287/3/6 286/4/6 
f 276/1/5 277/2/5 288/3/5 287/4/5 
f 277/1/4 278/2/4 289/3/4 288/4/4 
f 278/1/3 279/2/3 290/3/3 289/4/3 
f 279/1/2 280/2/2 281/3/2 290/4/2 
f 280/1/1 265/2/1 270/3/1 281/4/1 
f 268/1/12 267/2/12 291/3/12 292/4/12 
s 1
f 262/1/14 266/2/14 268/3/14 293/4/14 
f 260/1/14 262/2/14 293/3/14 294/4/14 
f 258/1/14 260/2/14 294/3/14 295/4/14 
f 256/1/14 258/2/14 295/3/14 296/4/14 
f 254/1/14 256/2/14 296/3/14 297/4/14 
f 252/1/14 254/2/14 297/3/14 298/4/14 
f 250/1/14 252/2/14 298/3/14 299/4/14 
f 248/1/14 250/2/14 299/3/14 300/4/14 
f 246/1/14 248/2/14 300/3/14 301/4/14 
f 244/1/14 246/2/14 301/3/14 302/4/14 
s off
f 241/1/14 244/2/14 302/3/14 267/4/14 
f 291/5/11 303/6/11 304/7/11 305/8/11 
f 291/5/11 305/8/11 306/9/11 307/10/11 
f 291/5/11 307/10/11 308/11/11 309/12/11 
f 291/5/11 309/12/11 310/13/11 311/14/11 
f 291/5/11 311/14/11 312/15/11 292/16/11 
f 293/1/13 268/2/13 292/3/13 312/4/13 
f 294/1/10 293/2/10 312/3/10 311/4/10 
f 295/1/9 294/2/9 311/3/9 310/4/9 
f 296/1/8 295/2/8 310/3/8 309/4/8 
f 297/1/7 296/2/7 309/3/7 308/4/7 
f 298/1/6 297/2/6 308/3/6 307/4/6 
f 299/1/5 298/2/5 307/3/5 306/4/5 
f 300/1/4 299/2/4 306/3/4 305/4/4 
f 301/1/3 300/2/3 305/3/3 304/4/3 
f 302/1/2 301/2/2 304/3/2 303/4/2 
f 267/1/1 302/2/1 303/3/1 291/4/1 
f 313/17/15 314/18/15 315/19/15 316/20/15 
f 314/17/16 317/18/16 318/19/16 315/20/16 
f 317/17/17 319/18/17 320/19/17 318/20/17 
f 319/17/18 313/18/18 316/19/18 320/20/18 
f 316/17/11 315/18/11 318/19/11 320/20/11 
f 319/17/14 317/18/14 314/19/14 313/20/14 
f 321/21/15 322/22/15 323/23/15 324/24/15 
f 322/21/16 325/22/16 326/23/16 323/24/16 
f 325/21/17 327/22/17 328/23/17 326/24/17 
f 327/21/18 321/22/18 324/23/18 328/24/18 
f 324/21/11 323/22/11 326/23/11 328/24/11 
f 327/21/14 325/22/14 322/23/14 321/24/14 
f 329/21/15 330/22/15 331/23/15 332/24/15 
f 330/21/19 333/22/19 334/23/19 331/24/19 
f 333/21/17 335/22/17 336/23/17 334/24/17 
f 335/21/18 329/22/18 332/23/18 336/24/18 
f 332/21/11 331/22/11 334/23/11 336/24/11 
f 335/21/14 333/22/14 330/23/14 329/24/14 
f 337/25/16 338/26/16 339/27/16 340/28/16 
f 341/29/15 342/30/15 343/31/15 337/32/15 
f 344/33/15 341/29/15 337/32/15 340/34/15 
f 345/33/15 343/29/15 342/30/15 346/31/15 
f 340/34/20 345/33/20 346/31/20 344/32/20 
f 343/25/14 347/26/14 338/27/14 337/28/14 
f 338/25/21 347/26/21 348/27/21 339/28/21 
f 340/25/11 339/26/11 348/27/11 345/28/11 
f 347/25/18 343/26/18 345/27/18 348/28/18 
f 341/25/18 344/26/18 349/27/18 350/28/18 
f 342/25/11 341/26/11 350/27/11 351/28/11 
f 350/35/15 349/36/15 352/37/15 351/38/15 
f 344/25/22 346/26/22 352/27/22 349/28/22 
f 346/25/16 342/26/16 351/27/16 352/28/16 
f 353/25/16 354/26/16 355/27/16 356/28/16 
f 357/29/15 358/30/15 359/31/15 353/32/15 
f 360/33/15 357/29/15 353/32/15 356/34/15 
f 361/33/15 359/29/15 358/30/15 362/31/15 
f 356/34/20 361/33/20 362/31/20 360/32/20 
f 359/25/14 363/26/14 354/27/14 353/28/14 
f 354/25/21 363/26/21 364/27/21 355/28/21 
f 356/25/11 355/26/11 364/27/11 361/28/11 
f 363/25/18 359/26/18 361/27/18 364/28/18 
f 357/25/18 360/26/18 365/27/18 366/28/18 
f 358/25/11 357/26/11 366/27/11 367/28/11 
f 366/39/15 365/40/15 368/41/15 367/42/15 
f 360/25/14 362/26/14 368/27/14 365/28/14 
f 362/25/16 358/26/16 367/27/16 368/28/16 
f 369/25/16 370/26/16 371/27/16 372/28/16 
f 373/29/15 374/30/15 375/31/15 369/32/15 
f 376/33/15 373/29/15 369/32/15 372/34/15 
f 377/33/15 375/29/15 374/30/15 378/31/15 
f 372/34/15 377/33/15 378/31/15 376/32/15 
f 375/25/14 379/26/14 370/27/14 369/28/14 
f 370/25/17 379/26/17 380/27/17 371/28/17 
f 372/25/11 371/26/11 380/27/11 377/28/11 
f 379/25/18 375/26/18 377/27/18 380/28/18 
f 373/25/18 376/26/18 381/27/18 382/28/18 
f 374/25/11 373/26/11 382/27/11 383/28/11 
f 382/43/15 381/44/15 384/45/15 383/46/15 
f 376/25/14 378/26/14 384/27/14 381/28/14 
f 378/25/16 374/26/16 383/27/16 384/28/16 
f 385/25/16 386/26/16 387/27/16 388/28/16 
f 389/29/20 390/30/20 391/31/20 385/32/20 
f 392/33/15 389/29/15 385/32/15 388/34/15 
f 393/33/15 391/29/15 390/30/15 394/31/15 
f 388/34/15 393/33/15 394/31/15 392/32/15 
f 391/25/22 395/26/22 386/27/22 385/28/22 
f 386/25/21 395/26/21 396/27/21 387/28/21 
f 388/25/11 387/26/11 396/27/11 393/28/11 
f 395/25/18 391/26/18 393/27/18 396/28/18 
f 389/25/18 392/26/18 397/27/18 398/28/18 
f 390/25/23 389/26/23 398/27/23 399/28/23 
f 398/47/15 397/48/15 400/49/15 399/50/15 
f 392/25/14 394/26/14 400/27/14 397/28/14 
f 394/25/16 390/26/16 399/27/16 400/28/16 
f 401/25/16 402/26/16 403/27/16 404/28/16 
f 405/29/15 406/30/15 407/31/15 401/32/15 
f 408/33/15 405/29/15 401/32/15 404/34/15 
f 409/33/15 407/29/15 406/30/15 410/31/15 
f 404/34/20 409/33/20 410/31/20 408/32/20 
f 407/25/14 411/26/14 402/27/14 401/28/14 
f 402/25/21 411/26/21 412/27/21 403/28/21 
f 404/25/11 403/26/11 412/27/11 409/28/11 
f 411/25/18 407/26/18 409/27/18 412/28/18 
f 405/25/18 408/26/18 413/27/18 414/28/18 
f 406/25/23 405/26/23 414/27/23 415/28/23 
f 414/35/15 413/36/15 416/37/15 415/38/15 
f 408/25/14 410/26/14 416/27/14 413/28/14 
f 410/25/16 406/26/16 415/27/16 416/28/16 
f 417/25/16 418/26/16 419/27/16 420/28/16 
f 421/29/15 422/30/15 423/31/15 417/32/15 
f 424/33/15 421/29/15 417/32/15 420/34/15 
f 425/33/15 423/29/15 422/30/15 426/31/15 
f 420/34/20 425/33/20 426/31/20 424/32/20 
f 423/25/14 427/26/14 418/27/14 417/28/14 
f 418/25/21 427/26/21 428/27/21 419/28/21 
f 420/25/11 419/26/11 428/27/11 425/28/11 
f 427/25/18 423/26/18 425/27/18 428/28/18 
f 421/25/18 424/26/18 429/27/18 430/28/18 
f 422/25/11 421/26/11 430/27/11 431/28/11 
f 430/39/15 429/40/15 432/41/15 431/42/15 
f 424/25/14 426/26/14 432/27/14 429/28/14 
f 426/25/16 422/26/16 431/27/16 432/28/16 
f 433/25/16 434/26/16 435/27/16 436/28/16 
f 437/29/15 438/30/15 439/31/15 433/32/15 
f 440/33/15 437/29/15 433/32/15 436/34/15 
f 441/33/15 439/29/15 438/30/15 442/31/15 
f 436/34/15 441/33/15 442/31/15 440/32/15 
f 439/25/14 443/26/14 434/27/14 433/28/14 
f 434/25/17 443/26/17 444/27/17 435/28/17 
f 436/25/11 435/26/11 444/27/11 441/28/11 
f 443/25/18 439/26/18 441/27/18 444/28/18 
f 437/25/18 440/26/18 445/27/18 446/28/18 
f 438/25/11 437/26/11 446/27/11 447/28/11 
f 446/43/15 445/44/15 448/45/15 447/46/15 
f 440/25/22 442/26/22 448/27/22 445/28/22 
f 442/25/16 438/26/16 447/27/16 448/28/16 
f 449/25/16 450/26/16 451/27/16 452/28/16 
f 453/29/20 454/30/20 455/31/20 449/32/20 
f 456/33/15 453/29/15 449/32/15 452/34/15 
f 457/33/15 455/29/15 454/30/15 458/31/15 
f 452/34/15 457/33/15 458/31/15 456/32/15 
f 455/25/14 459/26/14 450/27/14 449/28/14 
f 450/25/21 459/26/21 460/27/21 451/28/21 
f 452/25/11 451/26/11 460/27/11 457/28/11 
f 459/25/18 455/26/18 457/27/18 460/28/18 
f 453/25/18 456/26/18 461/27/18 462/28/18 
f 454/25/11 453/26/11 462/27/11 463/28/11 
f 462/47/15 461/48/15 464/49/15 463/50/15 
f 456/25/14 458/26/14 464/27/14 461/28/14 
f 458/25/16 454/26/16 463/27/16 464/28/16 
f 465/25/18 466/26/18 467/27/18 468/28/18 
f 469/29/21 470/30/21 471/31/21 465/32/21 
f 472/33/17 469/29/17 465/32/17 468/34/17 
f 473/33/17 471/29/17 470/30/17 474/31/17 
f 468/34/24 473/33/24 474/31/24 472/32/24 
f 471/25/22 475/26/22 466/27/22 465/28/22 
f 466/25/15 475/26/15 476/27/15 467/28/15 
f 468/25/11 467/26/11 476/27/11 473/28/11 
f 475/25/16 471/26/16 473/27/16 476/28/16 
f 469/25/16 472/26/16 477/27/16 478/28/16 
f 470/25/23 469/26/23 478/27/23 479/28/23 
f 478/35/21 477/36/21 480/37/21 479/38/21 
f 472/25/14 474/26/14 480/27/14 477/28/14 
f 474/25/18 470/26/18 479/27/18 480/28/18 
f 481/25/18 482/26/18 483/27/18 484/28/18 
f 485/29/24 486/30/24 487/31/24 481/32/24 
f 488/33/21 485/29/21 481/32/21 484/34/21 
f 489/33/17 487/29/17 486/30/17 490/31/17 
f 484/34/21 489/33/21 490/31/21 488/32/21 
f 487/25/14 491/26/14 482/27/14 481/28/14 
f 482/25/15 491/26/15 492/27/15 483/28/15 
f 484/25/11 483/26/11 492/27/11 489/28/11 
f 491/25/16 487/26/16 489/27/16 492/28/16 
f 485/25/16 488/26/16 493/27/16 494/28/16 
f 486/25/11 485/26/11 494/27/11 495/28/11 
f 494/39/17 493/40/17 496/41/17 495/42/17 
f 488/25/14 490/26/14 496/27/14 493/28/14 
f 490/25/18 486/26/18 495/27/18 496/28/18 
f 497/25/18 498/26/18 499/27/18 500/28/18 
f 501/29/17 502/30/17 503/31/17 497/32/17 
f 504/33/17 501/29/17 497/32/17 500/34/17 
f 505/33/17 503/29/17 502/30/17 506/31/17 
f 500/34/17 505/33/17 506/31/17 504/32/17 
f 503/25/14 507/26/14 498/27/14 497/28/14 
f 498/25/15 507/26/15 508/27/15 499/28/15 
f 500/25/11 499/26/11 508/27/11 505/28/11 
f 507/25/16 503/26/16 505/27/16 508/28/16 
f 501/25/16 504/26/16 509/27/16 510/28/16 
f 502/25/11 501/26/11 510/27/11 511/28/11 
f 510/43/21 509/44/21 512/45/21 511/46/21 
f 504/25/14 506/26/14 512/27/14 509/28/14 
f 506/25/18 502/26/18 511/27/18 512/28/18 
f 513/25/18 514/26/18 515/27/18 516/28/18 
f 517/29/24 518/30/24 519/31/24 513/32/24 
f 520/33/17 517/29/17 513/32/17 516/34/17 
f 521/33/17 519/29/17 518/30/17 522/31/17 
f 516/34/21 521/33/21 522/31/21 520/32/21 
f 519/25/14 523/26/14 514/27/14 513/28/14 
f 514/25/15 523/26/15 524/27/15 515/28/15 
f 516/25/11 515/26/11 524/27/11 521/28/11 
f 523/25/16 519/26/16 521/27/16 524/28/16 
f 517/25/16 520/26/16 525/27/16 526/28/16 
f 518/25/11 517/26/11 526/27/11 527/28/11 
f 526/47/21 525/48/21 528/49/21 527/50/21 
f 520/25/22 522/26/22 528/27/22 525/28/22 
f 522/25/18 518/26/18 527/27/18 528/28/18 
f 529/25/18 530/26/18 531/27/18 532/28/18 
f 533/29/21 534/30/21 535/31/21 529/32/21 
f 536/33/17 533/29/17 529/32/17 532/34/17 
f 537/33/17 535/29/17 534/30/17 538/31/17 
f 532/34/24 537/33/24 538/31/24 536/32/24 
f 535/25/14 539/26/14 530/27/14 529/28/14 
f 530/25/15 539/26/15 540/27/15 531/28/15 
f 532/25/11 531/26/11 540/27/11 537/28/11 
f 539/25/16 535/26/16 537/27/16 540/28/16 
f 533/25/16 536/26/16 541/27/16 542/28/16 
f 534/25/11 533/26/11 542/27/11 543/28/11 
f 542/35/21 541/36/21 544/37/21 543/38/21 
f 536/25/14 538/26/14 544/27/14 541/28/14 
f 538/25/18 534/26/18 543/27/18 544/28/18 
f 545/25/25 546/26/25 547/27/25 548/28/25 
f 549/29/21 550/30/21 551/31/21 545/32/21 
f 552/33/17 549/29/17 545/32/17 548/34/17 
f 553/33/17 551/29/17 550/30/17 554/31/17 
f 548/34/21 553/33/21 554/31/21 552/32/21 
f 551/25/14 555/26/14 546/27/14 545/28/14 
f 546/25/15 555/26/15 556/27/15 547/28/15 
f 548/25/11 547/26/11 556/27/11 553/28/11 
f 555/25/16 551/26/16 553/27/16 556/28/16 
f 549/25/16 552/26/16 557/27/16 558/28/16 
f 550/25/11 549/26/11 558/27/11 559/28/11 
f 558/39/21 557/40/21 560/41/21 559/42/21 
f 552/25/22 554/26/22 560/27/22 557/28/22 
f 554/25/18 550/26/18 559/27/18 560/28/18 
f 561/25/18 562/26/18 563/27/18 564/28/18 
f 565/29/17 566/30/17 567/31/17 561/32/17 
f 568/33/17 565/29/17 561/32/17 564/34/17 
f 569/33/17 567/29/17 566/30/17 570/31/17 
f 564/34/17 569/33/17 570/31/17 568/32/17 
f 567/25/14 571/26/14 562/27/14 561/28/14 
f 562/25/15 571/26/15 572/27/15 563/28/15 
f 564/25/11 563/26/11 572/27/11 569/28/11 
f 571/25/16 567/26/16 569/27/16 572/28/16 
f 565/25/16 568/26/16 573/27/16 574/28/16 
f 566/25/11 565/26/11 574/27/11 575/28/11 
f 574/43/21 573/44/21 576/45/21 575/46/21 
f 568/25/14 570/26/14 576/27/14 573/28/14 
f 570/25/18 566/26/18 575/27/18 576/28/18 
f 577/25/18 578/26/18 579/27/18 580/28/18 
s 1
f 581/29/21 582/30/24 583/31/24 577/32/21 
f 584/33/24 581/29/21 577/32/21 580/34/24 
f 585/33/21 583/29/24 582/30/24 586/31/21 
f 580/34/24 585/33/21 586/31/21 584/32/24 
s off
f 583/25/14 587/26/14 578/27/14 577/28/14 
f 578/25/15 587/26/15 588/27/15 579/28/15 
f 580/25/11 579/26/11 588/27/11 585/28/11 
f 587/25/16 583/26/16 585/27/16 588/28/16 
f 581/25/16 584/26/16 589/27/16 590/28/16 
f 582/25/23 581/26/23 590/27/23 591/28/23 
f 590/47/21 589/48/21 592/49/21 591/50/21 
f 584/25/14 586/26/14 592/27/14 589/28/14 
f 586/25/18 582/26/18 591/27/18 592/28/18 
f 593/25/15 594/26/15 595/27/15 596/28/15 
s 1
f 597/29/18 598/30/18 599/31/18 593/32/18 
f 600/33/18 597/29/18 593/32/18 596/34/18 
f 601/33/18 599/29/18 598/30/18 602/31/18 
f 596/34/18 601/33/18 602/31/18 600/32/18 
s off
f 599/25/14 603/26/14 594/27/14 593/28/14 
f 594/25/16 603/26/16 604/27/16 595/28/16 
f 596/25/11 595/26/11 604/27/11 601/28/11 
f 603/25/17 599/26/17 601/27/17 604/28/17 
f 597/25/17 600/26/17 605/27/17 606/28/17 
f 598/25/11 597/26/11 606/27/11 607/28/11 
f 606/51/18 605/52/18 608/53/18 607/54/18 
f 600/25/14 602/26/14 608/27/14 605/28/14 
f 602/25/15 598/26/15 607/27/15 608/28/15 
f 609/25/15 610/26/15 611/27/15 612/28/15 
s 1
f 613/29/18 614/30/18 615/31/18 609/32/18 
f 616/33/18 613/29/18 609/32/18 612/34/18 
f 617/33/18 615/29/18 614/30/18 618/31/18 
f 612/34/18 617/33/18 618/31/18 616/32/18 
s off
f 615/25/14 619/26/14 610/27/14 609/28/14 
f 610/25/16 619/26/16 620/27/16 611/28/16 
f 612/25/11 611/26/11 620/27/11 617/28/11 
f 619/25/17 615/26/17 617/27/17 620/28/17 
f 613/25/17 616/26/17 621/27/17 622/28/17 
f 614/25/11 613/26/11 622/27/11 623/28/11 
f 622/51/18 621/52/18 624/53/18 623/54/18 
f 616/25/14 618/26/14 624/27/14 621/28/14 
f 618/25/15 614/26/15 623/27/15 624/28/15 
f 625/25/15 626/26/15 627/27/15 628/28/15 
s 1
f 629/29/18 630/30/18 631/31/18 625/32/18 
f 632/33/18 629/29/18 625/32/18 628/34/18 
f 633/33/18 631/29/18 630/30/18 634/31/18 
f 628/34/18 633/33/18 634/31/18 632/32/18 
s off
f 631/25/14 635/26/14 626/27/14 625/28/14 
f 626/25/16 635/26/16 636/27/16 627/28/16 
f 628/25/11 627/26/11 636/27/11 633/28/11 
f 635/25/17 631/26/17 633/27/17 636/28/17 
f 629/25/17 632/26/17 637/27/17 638/28/17 
f 630/25/11 629/26/11 638/27/11 639/28/11 
f 638/51/18 637/52/18 640/53/18 639/54/18 
f 632/25/14 634/26/14 640/27/14 637/28/14 
f 634/25/15 630/26/15 639/27/15 640/28/15 
f 641/25/15 642/26/15 643/27/15 644/28/15 
s 1
f 645/29/18 646/30/18 647/31/18 641/32/18 
f 648/33/18 645/29/18 641/32/18 644/34/18 
f 649/33/18 647/29/18 646/30/18 650/31/18 
f 644/34/18 649/33/18 650/31/18 648/32/18 
s off
f 647/25/14 651/26/14 642/27/14 641/28/14 
f 642/25/16 651/26/16 652/27/16 643/28/16 
f 644/25/11 643/26/11 652/27/11 649/28/11 
f 651/25/17 647/26/17 649/27/17 652/28/17 
f 645/25/17 648/26/17 653/27/17 654/28/17 
f 646/25/11 645/26/11 654/27/11 655/28/11 
f 654/51/18 653/52/18 656/53/18 655/54/18 
f 648/25/14 650/26/14 656/27/14 653/28/14 
f 650/25/15 646/26/15 655/27/15 656/28/15 
f 657/55/15 658/56/15 659/57/15 660/58/15 
f 658/55/16 661/56/16 662/57/16 659/58/16 
f 661/55/17 663/56/17 664/57/17 662/58/17 
f 663/55/18 657/56/18 660/57/18 664/58/18 
f 660/55/11 659/56/11 662/57/11 664/58/11 
f 663/55/14 661/56/14 658/57/14 657/58/14 
f 665/59/15 666/60/15 667/61/15 668/62/15 
f 666/59/16 669/60/16 670/61/16 667/62/16 
f 669/59/17 671/60/17 672/61/17 670/62/17 
f 671/59/18 665/60/18 668/61/18 672/62/18 
f 668/59/11 667/60/11 670/61/11 672/62/11 
s 1
f 665/60/11 671/59/26 673/59/26 674/60/11 
s off
f 674/63/18 673/64/18 675/64/18 676/63/18 
s 1
f 671/60/26 669/59/11 677/59/11 673/60/26 
f 669/60/11 666/59/26 678/59/26 677/60/11 
f 666/60/26 665/59/11 674/59/11 678/60/26 
f 676/63/14 675/64/14 679/64/14 680/63/14 
s off
f 673/63/17 677/64/17 681/64/17 675/63/17 
f 677/63/16 678/64/16 682/64/16 681/63/16 
f 678/63/15 674/64/15 676/64/15 682/63/15 
f 680/63/16 679/64/16 683/64/16 684/63/16 
s 1
f 675/63/14 681/64/14 685/64/14 679/63/14 
f 681/63/14 682/64/14 686/64/14 685/63/14 
f 682/63/14 676/64/14 680/64/14 686/63/14 
s off
f 683/65/14 687/66/14 688/67/14 684/68/14 
f 679/63/15 685/64/15 687/64/15 683/63/15 
f 685/63/18 686/64/18 688/64/18 687/63/18 
f 686/63/17 680/64/17 684/64/17 688/63/17 
f 689/69/27 690/70/27 691/71/27 692/72/27 
f 692/69/11 691/70/11 693/71/11 694/72/11 
f 691/69/16 690/70/16 693/71/16 
s 1
f 694/69/18 689/70/18 695/71/18 696/72/18 
s off
f 694/69/28 693/70/28 690/71/28 689/72/28 
f 696/69/29 695/70/29 697/71/29 698/72/29 
s 1
f 692/69/18 694/70/18 696/71/18 699/72/18 
f 689/69/18 692/70/18 699/71/18 695/72/18 
s off
f 697/73/18 700/74/18 698/75/18 
f 699/69/14 696/70/14 698/71/14 700/72/14 
f 695/69/30 699/70/30 700/71/30 697/72/30 
f 701/76/15 702/77/15 703/78/15 704/79/15 
f 705/76/18 701/77/18 704/78/18 706/79/18 
f 705/80/14 707/81/14 708/82/14 709/83/14 
f 710/84/14 711/85/14 702/86/14 701/87/14 
f 709/83/14 710/84/14 701/87/14 705/80/14 
f 702/76/16 711/77/16 712/78/16 703/79/16 
f 704/80/26 703/81/26 712/82/26 713/83/26 
f 714/84/11 715/85/11 716/86/11 706/87/11 
f 713/83/23 714/84/23 706/87/23 704/80/23 
f 707/76/17 705/77/17 706/78/17 716/79/17 
f 708/76/16 707/77/16 716/78/16 715/79/16 
f 713/76/17 712/77/17 711/78/17 710/79/17 
f 710/76/16 709/77/16 714/78/16 713/79/16 
f 709/76/15 708/77/15 715/78/15 714/79/15 
f 717/88/15 718/89/15 719/90/15 720/91/15 
f 721/88/31 717/89/31 720/90/31 722/91/31 
f 723/92/14 724/93/14 718/94/14 725/95/14 
f 718/94/32 717/96/32 721/97/32 726/98/32 
f 718/94/14 726/98/14 725/95/14 
f 723/92/14 725/95/14 727/99/14 
f 718/88/16 724/89/16 728/90/16 719/91/16 
f 720/92/11 719/93/11 728/94/11 729/95/11 
f 728/94/26 730/96/26 731/97/26 732/98/26 
f 728/94/11 732/98/11 729/95/11 
f 720/92/11 729/95/11 722/99/11 
f 723/88/31 727/89/31 731/90/31 730/91/31 
f 724/88/17 723/89/17 730/90/17 728/91/17 
f 726/88/17 721/89/17 722/90/17 729/91/17 
f 725/88/31 726/89/31 729/90/31 732/91/31 
f 732/88/15 731/89/15 727/90/15 725/91/15 
f 733/25/15 734/26/15 735/27/15 736/28/15 
s 1
f 737/29/18 738/30/18 739/31/18 733/32/18 
f 740/33/18 737/29/18 733/32/18 736/34/18 
f 741/33/18 739/29/18 738/30/18 742/31/18 
f 736/34/18 741/33/18 742/31/18 740/32/18 
s off
f 739/25/14 743/26/14 734/27/14 733/28/14 
f 734/25/16 743/26/16 744/27/16 735/28/16 
f 736/25/11 735/26/11 744/27/11 741/28/11 
f 743/25/17 739/26/17 741/27/17 744/28/17 
f 737/25/17 740/26/17 745/27/17 746/28/17 
f 738/25/11 737/26/11 746/27/11 747/28/11 
f 746/51/18 745/52/18 748/53/18 747/54/18 
f 740/25/14 742/26/14 748/27/14 745/28/14 
f 742/25/15 738/26/15 747/27/15 748/28/15 
f 749/25/15 750/26/15 751/27/15 752/28/15 
s 1
f 753/29/18 754/30/18 755/31/18 749/32/18 
f 756/33/18 753/29/18 749/32/18 752/34/18 
f 757/33/18 755/29/18 754/30/18 758/31/18 
f 752/34/18 757/33/18 758/31/18 756/32/18 
s off
f 755/25/14 759/26/14 750/27/14 749/28/14 
f 750/25/16 759/26/16 760/27/16 751/28/16 
f 752/25/11 751/26/11 760/27/11 757/28/11 
f 759/25/17 755/26/17 757/27/17 760/28/17 
f 753/25/17 756/26/17 761/27/17 762/28/17 
f 754/25/11 753/26/11 762/27/11 763/28/11 
f 762/51/18 761/52/18 764/53/18 763/54/18 
f 756/25/14 758/26/14 764/27/14 761/28/14 
f 758/25/15 754/26/15 763/27/15 764/28/15 
f 765/25/15 766/26/15 767/27/15 768/28/15 
s 1
f 769/29/18 770/30/18 771/31/18 765/32/18 
f 772/33/18 769/29/18 765/32/18 768/34/18 
f 773/33/18 771/29/18 770/30/18 774/31/18 
f 768/34/18 773/33/18 774/31/18 772/32/18 
s off
f 771/25/14 775/26/14 766/27/14 765/28/14 
f 766/25/16 775/26/16 776/27/16 767/28/16 
f 768/25/11 767/26/11 776/27/11 773/28/11 
f 775/25/17 771/26/17 773/27/17 776/28/17 
f 769/25/17 772/26/17 777/27/17 778/28/17 
f 770/25/11 769/26/11 778/27/11 779/28/11 
f 778/51/18 777/52/18 780/53/18 779/54/18 
f 772/25/14 774/26/14 780/27/14 777/28/14 
f 774/25/15 770/26/15 779/27/15 780/28/15 
f 781/100/15 782/101/15 783/102/15 784/103/15 
f 782/100/16 785/101/16 786/102/16 783/103/16 
f 785/100/17 787/101/17 788/102/17 786/103/17 
f 787/100/18 781/101/18 784/102/18 788/103/18 
f 784/100/11 783/101/11 786/102/11 788/103/11 
s 1
f 781/100/11 787/101/11 789/102/11 790/103/11 
s off
f 790/100/18 789/101/18 791/102/18 792/103/18 
s 1
f 787/100/11 785/101/11 793/102/11 789/103/11 
f 785/100/11 782/101/11 794/102/11 793/103/11 
f 782/100/11 781/101/11 790/102/11 794/103/11 
s off
f 792/100/33 791/101/33 795/102/33 796/103/33 
f 789/100/17 793/101/17 797/102/17 791/103/17 
f 793/100/16 794/101/16 798/102/16 797/103/16 
f 794/100/15 790/101/15 792/102/15 798/103/15 
f 796/100/18 795/101/18 799/102/18 800/103/18 
f 791/100/34 797/101/34 801/102/34 795/103/34 
f 797/100/35 798/101/35 802/102/35 801/103/35 
f 798/100/36 792/101/36 796/102/36 802/103/36 
f 799/100/14 803/101/14 804/102/14 800/103/14 
f 795/100/17 801/101/17 803/102/17 799/103/17 
f 801/100/16 802/101/16 804/102/16 803/103/16 
f 802/100/15 796/101/15 800/102/15 804/103/15 
f 805/100/15 806/101/15 807/102/15 808/103/15 
f 806/100/16 809/101/16 810/102/16 807/103/16 
f 809/100/17 811/101/17 812/102/17 810/103/17 
f 811/100/18 805/101/18 808/102/18 812/103/18 
f 808/100/11 807/101/11 810/102/11 812/103/11 
s 1
f 805/100/11 811/101/11 813/102/11 814/103/11 
s off
f 814/100/18 813/101/18 815/102/18 816/103/18 
s 1
f 811/100/11 809/101/11 817/102/11 813/103/11 
f 809/100/11 806/101/11 818/102/11 817/103/11 
f 806/100/11 805/101/11 814/102/11 818/103/11 
s off
f 816/100/33 815/101/33 819/102/33 820/103/33 
f 813/100/17 817/101/17 821/102/17 815/103/17 
f 817/100/16 818/101/16 822/102/16 821/103/16 
f 818/100/15 814/101/15 816/102/15 822/103/15 
f 820/100/18 819/101/18 823/102/18 824/103/18 
f 815/100/34 821/101/34 825/102/34 819/103/34 
f 821/100/35 822/101/35 826/102/35 825/103/35 
f 822/100/36 816/101/36 820/102/36 826/103/36 
f 823/100/14 827/101/14 828/102/14 824/103/14 
f 819/100/17 825/101/17 827/102/17 823/103/17 
f 825/100/16 826/101/16 828/102/16 827/103/16 
f 826/100/15 820/101/15 824/102/15 828/103/15 
f 829/25/15 830/26/15 831/27/15 832/28/15 
s 1
f 833/29/18 834/30/18 835/31/18 829/32/18 
f 836/33/18 833/29/18 829/32/18 832/34/18 
f 837/33/18 835/29/18 834/30/18 838/31/18 
f 832/34/18 837/33/18 838/31/18 836/32/18 
s off
f 835/25/14 839/26/14 830/27/14 829/28/14 
f 830/25/16 839/26/16 840/27/16 831/28/16 
f 832/25/11 831/26/11 840/27/11 837/28/11 
f 839/25/17 835/26/17 837/27/17 840/28/17 
f 833/25/17 836/26/17 841/27/17 842/28/17 
f 834/25/11 833/26/11 842/27/11 843/28/11 
f 842/51/18 841/52/18 844/53/18 843/54/18 
f 836/25/14 838/26/14 844/27/14 841/28/14 
f 838/25/15 834/26/15 843/27/15 844/28/15 
f 845/25/15 846/26/15 847/27/15 848/28/15 
s 1
f 849/29/18 850/30/18 851/31/18 845/32/18 
f 852/33/18 849/29/18 845/32/18 848/34/18 
f 853/33/18 851/29/18 850/30/18 854/31/18 
f 848/34/18 853/33/18 854/31/18 852/32/18 
s off
f 851/25/14 855/26/14 846/27/14 845/28/14 
f 846/25/16 855/26/16 856/27/16 847/28/16 
f 848/25/11 847/26/11 856/27/11 853/28/11 
f 855/25/17 851/26/17 853/27/17 856/28/17 
f 849/25/17 852/26/17 857/27/17 858/28/17 
f 850/25/11 849/26/11 858/27/11 859/28/11 
f 858/104/18 857/105/18 860/106/18 859/107/18 
f 852/25/14 854/26/14 860/27/14 857/28/14 
f 854/25/15 850/26/15 859/27/15 860/28/15 
s 1
f 861/108/15 862/108/15 863/108/15 864/108/15 
f 865/109/18 866/110/25 867/111/25 868/112/18 
f 865/109/18 868/112/18 869/113/37 
s 2
f 870/114/38 871/115/39 872/115/39 861/114/38 
s 1
f 873/116/16 874/117/16 875/118/16 
s off
f 868/116/15 873/117/15 876/118/15 877/119/15 
f 865/120/40 869/121/40 878/122/40 879/123/40 
s 1
f 880/110/31 869/111/37 868/112/18 866/113/25 
f 865/109/18 880/110/31 866/113/25 
s off
f 875/116/17 866/117/17 881/118/17 882/119/17 
s 1
f 873/116/16 875/117/16 882/118/16 876/119/16 
f 866/120/25 868/121/18 877/122/18 881/123/18 
s off
f 877/116/41 876/117/41 882/118/41 881/119/41 
f 880/120/42 865/121/42 879/122/42 883/123/42 
f 869/120/14 880/121/14 883/122/14 878/123/14 
s 1
f 884/124/18 883/125/18 879/126/18 885/127/18 
f 878/128/18 885/127/18 879/126/18 
f 883/127/18 884/124/18 886/125/18 878/128/18 
f 878/128/18 886/125/18 885/126/18 
s off
f 884/129/40 885/130/40 887/131/40 888/132/40 
f 886/129/42 884/130/42 888/131/42 889/132/42 
f 887/133/25 889/134/25 888/135/25 
f 885/129/14 886/130/14 889/131/14 887/132/14 
f 890/136/15 891/137/15 892/138/15 893/139/15 
f 894/140/18 890/141/18 893/142/18 895/143/18 
f 894/144/14 896/145/14 891/137/14 890/136/14 
f 896/145/16 897/146/16 898/147/16 899/148/16 
f 891/137/16 896/145/16 899/148/16 900/149/16 
f 891/137/43 900/149/43 901/150/43 892/138/43 
f 893/139/26 892/138/26 901/151/26 902/152/26 
f 903/153/11 898/154/11 897/155/11 895/156/11 
f 902/152/11 903/153/11 895/156/11 893/139/11 
f 896/145/17 894/144/17 895/156/17 897/155/17 
f 904/150/17 902/152/17 901/151/17 900/149/17 
f 903/153/16 902/152/16 904/150/16 905/157/16 
f 900/149/23 899/148/23 905/157/23 904/150/23 
f 899/148/15 898/154/15 903/153/15 905/157/15 
s 1
f 906/108/44 907/158/44 871/115/44 870/114/44 
s 2
f 908/108/45 909/158/45 907/115/45 906/114/45 
s 1
f 906/108/44 870/114/44 910/114/44 911/108/44 
s off
f 912/108/15 913/108/15 914/108/15 915/108/15 
f 907/115/42 909/158/42 909/158/42 916/115/42 
f 868/159/40 867/160/40 917/160/40 918/159/40 
s 1
f 919/158/15 862/108/15 861/108/15 872/158/15 
f 920/158/17 913/108/17 912/108/17 921/158/17 
s 4
f 909/158/46 908/108/46 921/108/46 912/158/46 
s 2
f 873/158/47 868/108/48 862/108/48 919/158/47 
f 870/114/38 861/114/38 864/114/38 910/114/38 
f 866/158/49 875/108/49 913/108/49 920/158/49 
f 908/108/45 906/114/45 911/114/45 922/108/45 
s off
f 909/158/49 912/158/49 915/158/49 909/158/49 
s 1
f 923/158/16 873/108/16 871/108/16 916/158/16 
s 8
f 917/160/25 924/161/25 922/161/25 911/160/25 
s 1
f 875/115/43 923/158/16 916/158/16 909/115/43 
s off
f 918/159/18 910/159/18 864/159/18 863/159/18 
f 918/159/18 917/160/18 911/160/18 910/159/18 
f 871/108/16 873/108/16 925/108/16 926/108/16 
f 875/115/43 909/115/43 915/115/43 914/115/43 
s 8
f 922/161/25 924/161/25 927/161/18 928/161/18 
s 2
f 866/158/49 920/158/49 927/158/49 924/158/49 
s 4
f 921/108/46 908/108/46 922/108/46 928/108/46 
s off
f 867/160/42 866/161/42 924/161/42 917/160/42 
f 919/158/17 872/158/17 926/158/17 925/158/17 
f 875/115/45 874/158/45 923/158/45 875/115/45 
f 871/115/40 907/158/40 916/158/40 871/115/40 
f 872/115/48 871/115/48 871/115/48 926/115/48 
s 2
f 862/108/48 868/108/48 918/108/48 863/108/48 
s 1
f 920/158/17 921/158/17 928/158/17 927/158/17 
s off
f 913/108/46 875/108/46 875/108/46 914/108/46 
f 873/158/38 919/158/38 925/158/38 873/158/38 
f 874/158/44 873/108/44 873/108/44 923/158/44 
f 929/25/15 930/26/15 931/27/15 932/28/15 
s 1
f 933/29/18 934/30/18 935/31/18 929/32/18 
f 936/33/18 933/29/18 929/32/18 932/34/18 
f 937/33/18 935/29/18 934/30/18 938/31/18 
f 932/34/18 937/33/18 938/31/18 936/32/18 
s off
f 935/25/14 939/26/14 930/27/14 929/28/14 
f 930/25/16 939/26/16 940/27/16 931/28/16 
f 932/25/11 931/26/11 940/27/11 937/28/11 
f 939/25/17 935/26/17 937/27/17 940/28/17 
f 933/25/17 936/26/17 941/27/17 942/28/17 
f 934/25/11 933/26/11 942/27/11 943/28/11 
f 942/51/18 941/52/18 944/53/18 943/54/18 
f 936/25/14 938/26/14 944/27/14 941/28/14 
f 938/25/15 934/26/15 943/27/15 944/28/15 
# 852 polygons - 12 triangles

