# 3ds Max Wavefront OBJ Exporter v0.97b - (c)2007 guruware
# File Created: 15.03.2017 10:49:26

mtllib SPB_Hospital.mtl

#
# object SPB_Hospital
#

v  0.8888 636.6273 -172.4954
v  0.8888 653.7774 -172.4954
v  48.0075 653.7774 -164.1871
v  48.0075 636.6273 -164.1871
v  89.4430 653.7774 -140.2644
v  89.4430 636.6273 -140.2644
v  120.1975 653.7774 -103.6125
v  120.1975 636.6273 -103.6125
v  136.5616 653.7774 -58.6524
v  136.5616 636.6273 -58.6524
v  136.5616 653.7774 -10.8069
v  136.5616 636.6273 -10.8069
v  120.1975 653.7774 34.1532
v  120.1975 636.6273 34.1532
v  89.4430 653.7774 70.8051
v  89.4430 636.6273 70.8051
v  48.0075 653.7774 94.7278
v  48.0075 636.6273 94.7278
v  0.8889 653.7774 103.0361
v  0.8889 636.6273 103.0361
v  -46.2298 653.7774 94.7278
v  -46.2298 636.6273 94.7278
v  -87.6653 653.7774 70.8051
v  -87.6653 636.6273 70.8051
v  -118.4198 653.7774 34.1533
v  -118.4198 636.6273 34.1533
v  -134.7840 653.7774 -10.8068
v  -134.7840 636.6273 -10.8068
v  -134.7840 653.7774 -58.6524
v  -134.7840 636.6273 -58.6524
v  -118.4199 653.7774 -103.6125
v  -118.4199 636.6273 -103.6125
v  -87.6654 653.7774 -140.2643
v  -87.6654 636.6273 -140.2643
v  127.3626 653.7774 -57.0304
v  127.3626 653.7774 -12.4289
v  -46.2299 636.6273 -164.1871
v  -46.2299 653.7774 -164.1871
v  127.3626 660.5856 -57.0304
v  127.3626 660.5856 -12.4289
v  -110.3304 653.7774 -98.9420
v  -81.6611 653.7774 -133.1087
v  0.8888 653.7774 -163.1545
v  44.8127 653.7774 -155.4095
v  83.4387 653.7774 63.6495
v  44.8127 653.7774 85.9502
v  -43.0350 653.7774 85.9502
v  -81.6610 653.7774 63.6495
v  83.4387 653.7774 -133.1088
v  112.1080 653.7774 -98.9421
v  -125.5849 653.7774 -12.4289
v  -125.5850 653.7774 -57.0303
v  -43.0351 653.7774 -155.4095
v  112.1080 653.7774 29.4828
v  0.8888 653.7774 93.6952
v  -110.3303 653.7774 29.4828
v  44.8127 660.5856 -155.4095
v  0.8888 660.5856 -163.1545
v  -43.0351 660.5856 -155.4095
v  -81.6611 660.5856 -133.1087
v  -110.3304 660.5856 -98.9420
v  -125.5850 660.5856 -57.0303
v  -125.5849 660.5856 -12.4289
v  -110.3303 660.5856 29.4828
v  -81.6610 660.5856 63.6495
v  -43.0350 660.5856 85.9502
v  0.8888 660.5856 93.6952
v  44.8127 660.5856 85.9502
v  83.4387 660.5856 63.6495
v  112.1080 660.5856 29.4828
v  112.1080 660.5856 -98.9421
v  83.4387 660.5856 -133.1088
v  -106.2992 457.5999 390.6879
v  -106.2992 457.5999 372.9713
v  -106.2992 410.4662 372.9713
v  -106.2992 410.4662 390.6879
v  106.2992 457.5999 372.9713
v  106.2992 410.4662 372.9713
v  106.2992 457.5999 390.6879
v  106.2992 410.4662 390.6879
v  -0.0000 568.8177 319.7577
v  -0.0000 568.8177 390.6239
v  9.1708 567.6103 390.6239
v  9.1708 567.6103 319.7577
v  17.7165 564.0706 319.7577
v  25.0550 558.4396 319.7577
v  30.6859 551.1012 319.7577
v  34.2257 542.5554 319.7577
v  35.4331 533.3846 319.7577
v  34.2257 524.2139 319.7577
v  30.6859 515.6681 319.7577
v  25.0550 508.3297 319.7577
v  17.7165 502.6987 319.7577
v  9.1708 499.1589 319.7577
v  0.0000 497.9516 319.7577
v  -9.1707 499.1589 319.7577
v  -17.7165 502.6987 319.7577
v  -25.0550 508.3297 319.7577
v  -30.6859 515.6681 319.7577
v  -34.2257 524.2139 319.7577
v  -35.4331 533.3846 319.7577
v  -34.2257 542.5554 319.7577
v  -30.6859 551.1011 319.7577
v  -25.0550 558.4396 319.7577
v  -17.7166 564.0706 319.7577
v  -9.1708 567.6103 319.7577
v  -9.1708 567.6103 390.6239
v  -17.7166 564.0706 390.6239
v  17.7165 564.0706 390.6239
v  -25.0550 558.4396 390.6239
v  -30.6859 551.1012 390.6239
v  -35.4331 533.3846 390.6239
v  -34.2257 542.5554 390.6239
v  -34.2257 524.2139 390.6239
v  -23.0315 526.3483 390.6239
v  -23.0315 540.5215 390.6239
v  -7.0866 556.4664 390.6239
v  -7.0866 540.5215 390.6239
v  7.0866 556.4664 390.6239
v  7.0866 540.5215 390.6239
v  23.0315 540.5215 390.6239
v  35.4331 533.3846 390.6239
v  34.2257 524.2139 390.6239
v  34.2257 542.5554 390.6239
v  30.6859 551.1012 390.6239
v  25.0550 558.4396 390.6239
v  23.0315 526.3483 390.6239
v  7.0866 510.4034 390.6239
v  7.0866 526.3483 390.6239
v  -7.0866 510.4034 390.6239
v  -7.0866 526.3483 390.6239
v  -30.6859 515.6681 390.6239
v  -25.0550 508.3297 390.6239
v  -17.7165 502.6987 390.6239
v  0.0000 497.9516 390.6239
v  -9.1707 499.1589 390.6239
v  17.7165 502.6987 390.6239
v  9.1708 499.1589 390.6239
v  25.0550 508.3297 390.6239
v  30.6859 515.6681 390.6239
v  -7.0866 556.4664 388.9139
v  7.0866 556.4664 388.9139
v  7.0866 540.5215 388.9139
v  -7.0866 540.5215 388.9139
v  -23.0315 540.5215 388.9139
v  23.0315 540.5215 388.9139
v  23.0315 526.3483 388.9139
v  -23.0315 526.3483 388.9139
v  7.0866 526.3483 388.9139
v  -7.0866 526.3483 388.9139
v  7.0866 510.4034 388.9139
v  -7.0866 510.4034 388.9139
v  -424.9782 190.2977 251.3500
v  -424.9782 190.2977 219.4602
v  -424.9782 179.6678 219.4602
v  -424.9782 179.6678 251.3500
v  -393.0885 190.2977 219.4602
v  -393.0885 179.6678 219.4602
v  -393.0885 190.2977 251.3500
v  -393.0885 179.6678 251.3500
v  -424.9782 10.6299 251.3500
v  -424.9782 10.6299 219.4602
v  -424.9782 -0.0000 219.4602
v  -424.9782 -0.0000 251.3500
v  -393.0885 10.6299 219.4602
v  -393.0885 -0.0000 219.4602
v  -393.0885 10.6299 251.3500
v  -393.0885 -0.0000 251.3500
v  -421.4349 187.5746 247.8067
v  -421.4349 187.5747 223.0035
v  -421.4349 -0.0000 223.0035
v  -421.4349 -0.0000 247.8067
v  -396.6318 187.5747 223.0035
v  -396.6318 -0.0000 223.0035
v  -396.6318 187.5746 247.8067
v  -396.6318 -0.0000 247.8067
v  393.0886 190.2977 251.3500
v  393.0886 190.2977 219.4602
v  393.0886 179.6678 219.4602
v  393.0886 179.6678 251.3500
v  424.9784 190.2977 219.4602
v  424.9784 179.6678 219.4602
v  424.9784 190.2977 251.3500
v  424.9784 179.6678 251.3500
v  393.0886 10.6299 251.3500
v  393.0886 10.6299 219.4602
v  393.0886 -0.0000 219.4602
v  393.0886 -0.0000 251.3500
v  424.9784 10.6299 219.4602
v  424.9784 -0.0000 219.4602
v  424.9784 10.6299 251.3500
v  424.9784 -0.0000 251.3500
v  396.6319 187.5746 247.8067
v  396.6319 187.5747 223.0035
v  396.6319 -0.0000 223.0035
v  396.6319 -0.0000 247.8067
v  421.4351 187.5747 223.0035
v  421.4351 -0.0000 223.0035
v  421.4351 187.5746 247.8067
v  421.4351 -0.0000 247.8067
v  95.9191 190.2977 251.3500
v  95.9191 190.2977 219.4602
v  95.9191 179.6678 219.4602
v  95.9191 179.6678 251.3500
v  127.8089 190.2977 219.4602
v  127.8089 179.6678 219.4602
v  127.8089 190.2977 251.3500
v  127.8089 179.6678 251.3500
v  95.9191 10.6299 251.3500
v  95.9191 10.6299 219.4602
v  95.9191 -0.0000 219.4602
v  95.9191 -0.0000 251.3500
v  127.8089 10.6299 219.4602
v  127.8089 -0.0000 219.4602
v  127.8089 10.6299 251.3500
v  127.8089 -0.0000 251.3500
v  99.4624 187.5746 247.8067
v  99.4624 187.5747 223.0035
v  99.4624 -0.0000 223.0035
v  99.4624 -0.0000 247.8067
v  124.2655 187.5747 223.0035
v  124.2655 -0.0000 223.0035
v  124.2655 187.5746 247.8067
v  124.2655 -0.0000 247.8067
v  -127.8089 190.2977 251.3500
v  -127.8089 190.2977 219.4602
v  -127.8089 179.6678 219.4602
v  -127.8089 179.6678 251.3500
v  -95.9191 190.2977 219.4602
v  -95.9191 179.6678 219.4602
v  -95.9191 190.2977 251.3500
v  -95.9191 179.6678 251.3500
v  -127.8089 10.6299 251.3500
v  -127.8089 10.6299 219.4602
v  -127.8089 -0.0000 219.4602
v  -127.8089 -0.0000 251.3500
v  -95.9191 10.6299 219.4602
v  -95.9191 -0.0000 219.4602
v  -95.9191 10.6299 251.3500
v  -95.9191 -0.0000 251.3500
v  -124.2656 187.5746 247.8067
v  -124.2656 187.5747 223.0035
v  -124.2656 -0.0000 223.0035
v  -124.2656 -0.0000 247.8067
v  -99.4624 187.5747 223.0035
v  -99.4624 -0.0000 223.0035
v  -99.4624 187.5746 247.8067
v  -99.4624 -0.0000 247.8067
v  -127.8089 190.2977 391.3467
v  -127.8089 190.2977 359.4569
v  -127.8089 179.6678 359.4569
v  -127.8089 179.6678 391.3467
v  -95.9191 190.2977 359.4569
v  -95.9191 179.6678 359.4569
v  -95.9191 190.2977 391.3467
v  -95.9191 179.6678 391.3467
v  -127.8089 10.6298 391.3466
v  -127.8089 10.6298 359.4568
v  -127.8089 -0.0001 359.4568
v  -127.8089 -0.0001 391.3466
v  -95.9191 10.6298 359.4568
v  -95.9191 -0.0001 359.4568
v  -95.9191 10.6298 391.3466
v  -95.9191 -0.0001 391.3466
v  -124.2656 187.5746 387.8034
v  -124.2656 187.5746 363.0002
v  -124.2656 -0.0001 363.0002
v  -124.2656 -0.0001 387.8034
v  -99.4624 187.5746 363.0002
v  -99.4624 -0.0001 363.0002
v  -99.4624 187.5746 387.8034
v  -99.4624 -0.0001 387.8034
v  95.9191 190.2977 391.3467
v  95.9191 190.2977 359.4569
v  95.9191 179.6678 359.4569
v  95.9191 179.6678 391.3467
v  127.8089 190.2977 359.4569
v  127.8089 179.6678 359.4569
v  127.8089 190.2977 391.3467
v  127.8089 179.6678 391.3467
v  95.9191 10.6298 391.3466
v  95.9191 10.6298 359.4568
v  95.9191 -0.0001 359.4568
v  95.9191 -0.0001 391.3466
v  127.8089 10.6298 359.4568
v  127.8089 -0.0001 359.4568
v  127.8089 10.6298 391.3466
v  127.8089 -0.0001 391.3466
v  99.4624 187.5746 387.8034
v  99.4624 187.5746 363.0002
v  99.4624 -0.0001 363.0002
v  99.4624 -0.0001 387.8034
v  124.2655 187.5746 363.0002
v  124.2655 -0.0001 363.0002
v  124.2655 187.5746 387.8034
v  124.2655 -0.0001 387.8034
v  -439.0680 660.8949 115.9302
v  -439.0680 660.8948 265.2529
v  -414.6830 660.8948 241.4142
v  -414.6830 660.8949 110.5490
v  128.1351 632.6050 115.9302
v  439.0679 632.6050 115.9302
v  439.0679 632.6050 265.2529
v  137.4252 632.6050 265.2529
v  439.0679 660.8950 -329.0098
v  439.0679 660.8949 115.9302
v  439.0679 632.6051 -329.0098
v  128.1351 660.8950 -329.0098
v  128.1351 632.6051 -329.0098
v  -439.0680 660.8950 -329.0098
v  -439.0680 632.6051 -329.0098
v  -439.0680 632.6050 115.9302
v  -138.4766 660.8948 265.2529
v  -439.0680 632.6050 265.2529
v  -138.4766 632.6050 265.2529
v  439.0679 660.8948 265.2529
v  -128.1351 660.8950 -329.0098
v  -414.6830 660.8950 -306.1052
v  -112.3152 660.8950 -306.1052
v  112.2781 660.8950 -306.1052
v  137.4252 660.8948 265.2529
v  414.5780 660.8948 241.4142
v  112.6782 660.8948 241.4142
v  -138.4766 632.6050 402.4241
v  -138.4766 660.8948 402.4241
v  -128.1351 632.6051 -329.0098
v  -128.1351 632.6050 115.9302
v  137.4252 660.8948 402.4241
v  112.6782 660.8948 379.2859
v  -113.2426 660.8948 379.2859
v  -113.2426 660.8948 241.4142
v  137.4252 632.6050 402.4241
v  -414.6830 649.7137 241.4142
v  -414.6830 649.7137 110.5490
v  -414.6830 649.7138 -306.1052
v  -112.3152 649.7138 -306.1052
v  112.2781 649.7138 -306.1052
v  414.5780 649.7137 241.4142
v  112.6782 649.7137 241.4142
v  112.6782 649.7137 379.2859
v  -113.2426 649.7137 379.2859
v  -113.2426 649.7137 241.4142
v  414.5780 660.8949 110.5490
v  414.5780 660.8950 -306.1052
v  -112.3152 649.7137 110.5490
v  414.5780 649.7137 110.5490
v  112.2781 649.7137 110.5490
v  414.5780 649.7138 -306.1052
v  -128.1351 203.0804 115.9302
v  -128.1351 203.0804 -329.0098
v  -439.0680 203.0804 -329.0098
v  -439.0680 203.0804 115.9302
v  128.1351 189.2178 115.9302
v  439.0679 189.2178 115.9302
v  439.0679 189.2178 265.2529
v  137.4252 189.2178 265.2529
v  439.0679 203.0804 -329.0098
v  439.0679 203.0804 115.9302
v  439.0679 189.2179 -329.0098
v  128.1351 203.0804 -329.0098
v  128.1351 189.2179 -329.0098
v  -439.0680 189.2179 -329.0098
v  -439.0680 189.2178 115.9302
v  -138.4766 203.0803 265.2529
v  -439.0680 203.0803 265.2529
v  -439.0680 189.2178 265.2529
v  -138.4766 189.2178 265.2529
v  439.0679 203.0803 265.2529
v  128.1351 203.0804 115.9302
v  137.4252 203.0803 265.2529
v  -138.4766 189.2178 402.4240
v  -138.4766 203.0803 402.4240
v  -128.1351 189.2179 -329.0098
v  -128.1351 189.2178 115.9302
v  137.4252 203.0803 402.4240
v  137.4252 189.2178 402.4240
v  -425.1968 189.8200 109.9235
v  -425.1968 189.8201 -315.2733
v  -425.1968 123.7480 -5.2339
v  -425.1968 123.7480 47.9157
v  -425.1968 52.8818 47.9157
v  -425.1968 -0.0000 109.9235
v  -425.1968 123.7480 -253.2655
v  -425.1968 123.7480 -200.1158
v  -425.1968 124.0158 -138.1080
v  -425.1968 52.8819 -200.1158
v  -425.1968 0.0000 -138.1080
v  -425.1968 124.0158 -67.2418
v  -425.1968 0.0000 -67.2418
v  -425.1968 52.8818 -5.2339
v  -425.1968 0.0001 -315.2733
v  -425.1968 52.8819 -253.2654
v  -380.5553 53.1496 109.9235
v  -380.5553 166.5354 109.9235
v  -167.9569 166.5354 109.9235
v  -124.0870 189.8200 109.9235
v  -124.0870 -0.0000 109.9235
v  -167.9569 53.1496 109.9235
v  -425.1968 265.7480 109.9235
v  -425.1968 265.7481 -268.1118
v  -425.1968 637.7953 -315.2733
v  -425.1968 336.6142 -268.1117
v  -425.1968 336.6142 109.9235
v  -425.1968 389.7637 109.9235
v  -425.1968 389.7637 -268.1117
v  -425.1968 460.6299 -268.1117
v  -425.1968 460.6299 109.9235
v  -425.1968 513.7796 109.9235
v  -425.1968 513.7795 -268.1117
v  -425.1968 584.6457 -268.1118
v  -425.1968 637.7952 109.9235
v  -425.1968 584.6456 109.9235
v  -124.0870 189.8201 -315.2733
v  -124.0870 0.0001 -315.2733
v  -422.6496 0.0000 -67.2418
v  -422.6496 0.0000 -138.1080
v  -53.1496 -0.0000 109.9235
v  -53.1496 141.7323 109.9235
v  124.0870 189.8200 109.9235
v  53.1496 141.7323 109.9235
v  53.1496 -0.0000 109.9235
v  124.0870 -0.0000 109.9235
v  -124.0870 189.8200 251.0002
v  -425.1968 189.8200 251.0002
v  -425.1968 513.7795 204.5158
v  -425.1968 460.6299 204.5158
v  -425.1968 389.7637 204.5159
v  -425.1968 336.6142 204.5159
v  -425.1968 265.7480 204.5158
v  -425.1968 584.6456 204.5159
v  -425.1968 637.7952 251.0002
v  -124.0870 637.7952 109.9235
v  -124.0870 637.7953 -315.2733
v  -422.4993 265.7480 204.5158
v  -422.4993 265.7481 -268.1118
v  -422.4993 336.6142 -268.1117
v  -422.4993 336.6142 204.5159
v  -422.4993 389.7637 204.5159
v  -422.4993 389.7637 -268.1117
v  -422.4993 460.6299 -268.1117
v  -422.4993 460.6299 204.5158
v  -422.4993 513.7795 204.5158
v  -422.4993 513.7795 -268.1117
v  -422.4993 584.6457 -268.1118
v  -422.4993 584.6456 204.5159
v  124.0870 189.8201 -315.2733
v  124.0870 0.0001 -315.2733
v  -53.1496 -0.0000 106.6597
v  53.1496 -0.0000 106.6597
v  167.9570 53.1496 109.9235
v  167.9570 166.5355 109.9235
v  380.5555 166.5354 109.9235
v  425.1968 189.8200 109.9235
v  425.1968 -0.0000 109.9235
v  380.5555 53.1496 109.9235
v  124.0870 189.8200 251.0002
v  -167.9569 265.7480 251.0002
v  -380.5553 265.7480 251.0002
v  -380.5553 336.6142 251.0002
v  -380.5553 389.7638 251.0002
v  -167.9569 336.6142 251.0002
v  -167.9569 389.7638 251.0002
v  -380.5553 460.6300 251.0002
v  -380.5553 513.7795 251.0002
v  -167.9569 460.6299 251.0002
v  -167.9569 513.7795 251.0002
v  -380.5553 584.6457 251.0002
v  -124.0870 637.7952 251.0002
v  124.0870 637.7952 109.9235
v  124.0870 637.7953 -315.2733
v  425.1968 189.8201 -315.2733
v  425.1968 0.0001 -315.2733
v  422.7260 0.0000 -138.1080
v  425.1968 0.0000 -138.1080
v  422.7260 0.0000 -67.2419
v  425.1968 0.0000 -67.2419
v  425.1968 124.0158 -67.2419
v  425.1968 123.7480 -5.2340
v  425.1968 52.8818 -5.2340
v  425.1968 52.8818 47.9156
v  425.1968 52.8819 -253.2655
v  425.1968 52.8819 -200.1159
v  425.1968 123.7480 -253.2655
v  425.1968 123.7480 47.9156
v  425.1968 124.0158 -138.1080
v  425.1968 123.7480 -200.1159
v  425.1968 189.8200 251.0002
v  124.0870 189.8200 388.0449
v  -124.0870 189.8200 388.0449
v  -167.9569 584.6456 251.0002
v  -167.9569 265.7480 248.7560
v  -380.5553 265.7480 248.7560
v  -380.5553 336.6142 248.7560
v  -167.9569 336.6142 248.7560
v  -167.9569 389.7638 248.7560
v  -380.5553 389.7638 248.7560
v  -380.5553 460.6300 248.7560
v  -167.9569 460.6299 248.7560
v  -167.9569 513.7795 248.7560
v  -380.5553 513.7795 248.7560
v  -380.5553 584.6457 248.7560
v  124.0870 637.7952 251.0002
v  425.1968 637.7952 109.9235
v  425.1968 637.7953 -315.2733
v  425.1968 584.6456 109.9235
v  425.1968 584.6457 -268.1117
v  425.1968 513.7795 -268.1117
v  425.1968 513.7795 109.9235
v  425.1968 460.6298 109.9235
v  425.1968 460.6299 -268.1117
v  425.1968 389.7637 -268.1117
v  425.1968 389.7637 109.9235
v  425.1968 336.6141 109.9235
v  425.1968 336.6142 -268.1117
v  425.1968 265.7480 -268.1117
v  425.1968 265.7480 109.9235
v  425.1968 336.6141 204.5159
v  425.1968 389.7637 204.5159
v  425.1968 460.6298 204.5158
v  425.1968 513.7794 204.5158
v  425.1968 584.6456 204.5159
v  425.1968 637.7952 251.0002
v  425.1968 265.7480 204.5158
v  167.9570 336.6142 251.0002
v  380.5555 336.6142 251.0002
v  380.5555 389.7637 251.0002
v  167.9570 389.7638 251.0002
v  167.9570 460.6300 251.0002
v  380.5555 460.6299 251.0002
v  380.5555 513.7794 251.0002
v  167.9570 513.7795 251.0002
v  167.9570 584.6456 251.0002
v  167.9570 265.7480 251.0002
v  380.5555 265.7480 251.0002
v  -124.0870 637.7952 388.0449
v  124.0870 637.7952 388.0449
v  78.1799 265.7480 388.0449
v  -78.0557 265.7480 388.0449
v  78.1799 336.6141 388.0449
v  -167.9569 584.6456 248.7560
v  422.4995 584.6456 204.5159
v  422.4995 584.6457 -268.1117
v  422.4995 513.7795 -268.1117
v  422.4995 513.7794 204.5158
v  422.4995 460.6298 204.5158
v  422.4995 460.6299 -268.1117
v  422.4995 389.7637 -268.1117
v  422.4995 389.7637 204.5159
v  422.4995 336.6141 204.5159
v  422.4995 336.6142 -268.1117
v  422.4995 265.7480 -268.1117
v  422.4995 265.7480 204.5158
v  380.5555 584.6456 251.0002
v  380.5555 265.7480 248.7561
v  167.9570 265.7480 248.7561
v  167.9570 336.6142 248.7561
v  380.5555 336.6142 248.7561
v  380.5555 389.7637 248.7561
v  167.9570 389.7638 248.7561
v  167.9570 460.6300 248.7561
v  380.5555 460.6299 248.7561
v  380.5555 513.7794 248.7561
v  167.9570 513.7795 248.7561
v  167.9570 584.6456 248.7561
v  -78.0557 336.6141 388.0449
v  78.1799 336.6141 385.6076
v  78.1799 265.7480 385.6076
v  -78.0557 265.7480 385.6076
v  380.5555 584.6456 248.7561
v  -78.0557 336.6141 385.6076
v  -422.7401 52.8819 -253.2654
v  -422.7401 123.7480 -253.2655
v  -422.7401 123.7480 -200.1158
v  -422.7401 52.8819 -200.1158
v  -422.7401 52.8818 -5.2339
v  -422.7401 123.7480 -5.2339
v  -422.7401 123.7480 47.9157
v  -422.7401 52.8818 47.9157
v  -422.6496 124.0158 -138.1080
v  -422.6496 124.0158 -67.2418
v  422.6355 123.7480 -200.1159
v  422.6355 52.8819 -200.1159
v  422.6356 52.8819 -253.2655
v  422.6356 123.7480 -253.2655
v  422.6355 123.7480 47.9156
v  422.6355 52.8818 47.9156
v  422.6355 52.8818 -5.2340
v  422.6355 123.7480 -5.2340
v  422.7260 124.0158 -138.1080
v  422.7260 124.0158 -67.2419
v  -53.1496 141.7323 106.6597
v  53.1496 141.7323 106.6597
v  167.9570 53.1496 106.7817
v  167.9570 166.5355 106.7817
v  380.5555 166.5354 106.7817
v  380.5555 53.1496 106.7817
v  -380.5553 53.1496 106.7817
v  -380.5553 166.5354 106.7818
v  -167.9569 166.5354 106.7817
v  -167.9569 53.1496 106.7817
# 600 vertices

vn 0.1736 0.0000 -0.9848
vn 0.5000 0.0000 -0.8660
vn 0.7660 0.0000 -0.6428
vn 0.9397 0.0000 -0.3420
vn 1.0000 -0.0000 0.0000
vn 0.9397 -0.0000 0.3420
vn 0.7660 -0.0000 0.6428
vn 0.5000 -0.0000 0.8660
vn 0.1736 -0.0000 0.9848
vn -0.1736 -0.0000 0.9848
vn -0.5000 -0.0000 0.8660
vn -0.7660 -0.0000 0.6428
vn -0.9397 -0.0000 0.3420
vn -1.0000 -0.0000 0.0000
vn -0.9397 0.0000 -0.3420
vn -0.7660 0.0000 -0.6428
vn 0.0000 1.0000 0.0000
vn -0.1736 0.0000 -0.9848
vn -0.5000 0.0000 -0.8660
vn 0.0000 -1.0000 -0.0000
vn 1.0000 0.0000 -0.0000
vn -1.0000 0.0000 -0.0000
vn 0.0000 0.0000 -1.0000
vn 0.0000 -0.0000 1.0000
vn 0.1305 0.9914 0.0000
vn -0.1305 0.9914 0.0000
vn 0.3827 0.9239 -0.0000
vn 0.6088 0.7934 -0.0000
vn 0.7934 0.6088 0.0000
vn 0.9239 0.3827 -0.0000
vn 0.9914 0.1305 -0.0000
vn 0.9914 -0.1305 -0.0000
vn 0.9239 -0.3827 -0.0000
vn 0.7934 -0.6088 -0.0000
vn 0.6088 -0.7934 -0.0000
vn 0.3827 -0.9239 0.0000
vn 0.1305 -0.9914 0.0000
vn -0.1305 -0.9914 -0.0000
vn -0.3827 -0.9239 -0.0000
vn -0.6088 -0.7934 -0.0000
vn -0.7934 -0.6088 -0.0000
vn -0.9239 -0.3827 -0.0000
vn -0.9914 -0.1305 0.0000
vn -0.9914 0.1305 -0.0000
vn -0.9239 0.3827 -0.0000
vn -0.7934 0.6088 -0.0000
vn -0.6088 0.7934 0.0000
vn -0.3827 0.9239 0.0000
vn -1.0000 -0.0000 -0.0000
vn 1.0000 0.0000 0.0000
vn 0.0000 -0.0000 -1.0000
vn 0.0000 0.0000 1.0000
vn -0.0000 -0.0000 1.0000
vn 0.0000 1.0000 -0.0000
vn -0.0000 0.0000 1.0000
vn -0.0000 -1.0000 -0.0000
vn -0.0000 1.0000 0.0000
# 57 vertex normals

vt 0.3201 0.0077 0.0000
vt 0.3701 0.0077 0.0000
vt 0.3701 0.0577 0.0000
vt 0.3201 0.0577 0.0000
vt 0.3451 0.0577 0.0000
vt 0.3536 0.0562 0.0000
vt 0.3611 0.0519 0.0000
vt 0.3667 0.0452 0.0000
vt 0.3697 0.0371 0.0000
vt 0.3697 0.0284 0.0000
vt 0.3667 0.0202 0.0000
vt 0.3611 0.0136 0.0000
vt 0.3536 0.0092 0.0000
vt 0.3451 0.0077 0.0000
vt 0.3365 0.0092 0.0000
vt 0.3290 0.0136 0.0000
vt 0.3234 0.0202 0.0000
vt 0.3204 0.0284 0.0000
vt 0.3204 0.0371 0.0000
vt 0.3234 0.0452 0.0000
vt 0.3290 0.0519 0.0000
vt 0.3365 0.0562 0.0000
vt 0.2520 0.3486 0.0000
vt 0.1954 0.3586 0.0000
vt 0.1388 0.3486 0.0000
vt 0.0890 0.3199 0.0000
vt 0.0520 0.2758 0.0000
vt 0.0324 0.2218 0.0000
vt 0.0324 0.1643 0.0000
vt 0.0520 0.1103 0.0000
vt 0.0890 0.0662 0.0000
vt 0.1388 0.0375 0.0000
vt 0.1954 0.0275 0.0000
vt 0.2520 0.0375 0.0000
vt 0.3018 0.0662 0.0000
vt 0.3388 0.1103 0.0000
vt 0.3585 0.1643 0.0000
vt 0.3585 0.2218 0.0000
vt 0.3388 0.2758 0.0000
vt 0.3018 0.3199 0.0000
vt 0.4119 0.4502 0.0000
vt 0.4119 0.3728 0.0000
vt 0.7609 0.4502 0.0000
vt 0.7609 0.3728 0.0000
vt 0.9151 0.8311 0.0000
vt 0.8150 0.8396 0.0000
vt 0.2318 0.9232 0.0000
vt 0.2380 0.9356 0.0000
vt 0.2007 0.8539 0.0000
vt 0.5013 0.5589 0.0000
vt 0.5173 0.5601 0.0000
vt 0.5090 0.5571 0.0000
vt 0.5052 0.5575 0.0000
vt 0.5065 0.5577 0.0000
vt 0.5053 0.5582 0.0000
vt 0.5180 0.5588 0.0000
vt 0.5136 0.5560 0.0000
vt 0.5133 0.5562 0.0000
vt 0.5165 0.5563 0.0000
vt 0.5163 0.5571 0.0000
vt 0.5104 0.5563 0.0000
vt 0.5101 0.5569 0.0000
vt 0.5089 0.5573 0.0000
vt 0.5246 0.5553 0.0000
vt 0.5197 0.5572 0.0000
vt 0.5039 0.5586 0.0000
vt 0.5015 0.5589 0.0000
vt 0.5001 0.5603 0.0000
vt 0.4989 0.5607 0.0000
vt 0.5040 0.5603 0.0000
vt 0.5030 0.5602 0.0000
vt 0.5011 0.5596 0.0000
vt 0.5143 0.5609 0.0000
vt 0.5083 0.5630 0.0000
vt 0.5098 0.5643 0.0000
vt 0.5014 0.5651 0.0000
vt 0.5010 0.5638 0.0000
vt 0.5021 0.5640 0.0000
vt 0.5021 0.5639 0.0000
vt 0.5003 0.5622 0.0000
vt 0.5000 0.5619 0.0000
vt 0.5021 0.5642 0.0000
vt 0.5004 0.5638 0.0000
vt 0.5007 0.5642 0.0000
vt 0.5146 0.5595 0.0000
vt 0.5167 0.5576 0.0000
vt 0.5110 0.5576 0.0000
vt 0.5151 0.5573 0.0000
vt 0.5036 0.5603 0.0000
vt 0.5033 0.5601 0.0000
vt 0.4988 0.5622 0.0000
vt 0.5035 0.5604 0.0000
vt 0.5032 0.5608 0.0000
vt 0.4939 0.5612 0.0000
vt 0.4988 0.5592 0.0000
vt 0.4997 0.5620 0.0000
vt 0.4996 0.5623 0.0000
vt 0.4998 0.5628 0.0000
vt 0.4993 0.5629 0.0000
vt 0.4990 0.5608 0.0000
vt 0.4991 0.5637 0.0000
vt 0.4982 0.5647 0.0000
vt 0.4988 0.5633 0.0000
vt 0.5076 0.5619 0.0000
vt 0.5142 0.5608 0.0000
vt 0.5098 0.5644 0.0000
vt 0.4993 0.5635 0.0000
vt 0.4997 0.5628 0.0000
vt 0.5021 0.5641 0.0000
vt 0.4997 0.5623 0.0000
vt 0.4996 0.5626 0.0000
vt 0.5020 0.5640 0.0000
vt 0.4995 0.5634 0.0000
vt 0.5124 0.5594 0.0000
vt 0.5132 0.5583 0.0000
vt 0.5036 0.5595 0.0000
vt 0.5036 0.5602 0.0000
vt 0.5021 0.5613 0.0000
vt 0.4997 0.5621 0.0000
vt 0.5007 0.5628 0.0000
vt 0.5005 0.5630 0.0000
vt 0.5031 0.5621 0.0000
vt 0.5024 0.5622 0.0000
vt 0.4941 0.5635 0.0000
vt 0.4949 0.5609 0.0000
vt 0.4973 0.5600 0.0000
vt 0.4963 0.5621 0.0000
vt 0.4964 0.5625 0.0000
vt 0.4957 0.5616 0.0000
vt 0.4961 0.5621 0.0000
vt 0.4965 0.5628 0.0000
vt 0.4966 0.5629 0.0000
vt 0.4963 0.5629 0.0000
vt 0.4963 0.5634 0.0000
vt 0.4973 0.5641 0.0000
vt 0.4952 0.5647 0.0000
vt 0.4985 0.5626 0.0000
vt 0.5069 0.5613 0.0000
vt 0.9939 0.7568 0.0000
vt 0.9939 0.6581 0.0000
vt 0.3356 0.6581 0.0000
vt 0.3356 0.7568 0.0000
vt 0.9939 0.7569 0.0000
vt 0.9939 0.6582 0.0000
vt 0.3356 0.6582 0.0000
vt 0.3356 0.7569 0.0000
vt 0.5104 0.5591 0.0000
vt 0.5113 0.5592 0.0000
vt 0.5074 0.5601 0.0000
vt 0.5072 0.5600 0.0000
vt 0.5066 0.5604 0.0000
vt 0.5069 0.5604 0.0000
vt 0.5064 0.5623 0.0000
vt 0.5047 0.5626 0.0000
vt 0.5050 0.5614 0.0000
vt 0.5038 0.5621 0.0000
vt 0.5099 0.5594 0.0000
vt 0.5087 0.5600 0.0000
vt 0.5029 0.5629 0.0000
vt 0.5080 0.5615 0.0000
vt 0.5092 0.5606 0.0000
vt 0.4975 0.5641 0.0000
vt 0.4887 0.5651 0.0000
vt 0.4878 0.5619 0.0000
vt 0.4959 0.5642 0.0000
vt 0.4953 0.5612 0.0000
vt 0.4969 0.5606 0.0000
vt 0.4963 0.5615 0.0000
vt 0.4957 0.5614 0.0000
vt 0.4962 0.5623 0.0000
vt 0.4963 0.5626 0.0000
vt 0.4964 0.5628 0.0000
vt 0.4964 0.5627 0.0000
vt 0.4964 0.5636 0.0000
vt 0.4966 0.5632 0.0000
vt 0.4969 0.5638 0.0000
vt 0.4949 0.5629 0.0000
vt 0.4991 0.5615 0.0000
vt 0.5062 0.5605 0.0000
vt 0.4842 0.5778 0.0000
vt 0.4840 0.5692 0.0000
vt 0.4840 0.5688 0.0000
vt 0.4765 0.5704 0.0000
vt 0.4763 0.5698 0.0000
vt 0.4839 0.5680 0.0000
vt 0.4839 0.5722 0.0000
vt 0.4842 0.5729 0.0000
vt 0.4842 0.5680 0.0000
vt 0.5063 0.5588 0.0000
vt 0.5083 0.5593 0.0000
vt 0.5005 0.5632 0.0000
vt 0.4984 0.5615 0.0000
vt 0.4994 0.5603 0.0000
vt 0.4763 0.5719 0.0000
vt 0.4748 0.5712 0.0000
vt 0.4747 0.5706 0.0000
vt 0.4748 0.5708 0.0000
vt 0.4746 0.5703 0.0000
vt 0.4995 0.5610 0.0000
vt 0.4974 0.5613 0.0000
vt 0.4983 0.5631 0.0000
vt 0.4956 0.5632 0.0000
vt 0.4962 0.5635 0.0000
vt 0.4960 0.5632 0.0000
vt 0.4957 0.5632 0.0000
vt 0.4957 0.5631 0.0000
vt 0.4960 0.5627 0.0000
vt 0.4961 0.5624 0.0000
vt 0.4956 0.5630 0.0000
vt 0.4954 0.5628 0.0000
vt 0.4949 0.5637 0.0000
vt 0.4967 0.5640 0.0000
vt 0.4915 0.5667 0.0000
vt 0.4913 0.5634 0.0000
vt 0.4850 0.5654 0.0000
vt 0.4824 0.5636 0.0000
vt 0.4826 0.5653 0.0000
vt 0.4961 0.5640 0.0000
vt 0.4244 0.3110 0.0000
vt 0.4244 0.2127 0.0000
vt 0.7193 0.2127 0.0000
vt 0.7193 0.3110 0.0000
vt 0.4244 0.3109 0.0000
vt 0.7193 0.3109 0.0000
vt 0.4244 0.2126 0.0000
vt 0.7193 0.2126 0.0000
vt 0.4763 0.5697 0.0000
vt 0.4747 0.5705 0.0000
vt 0.4842 0.5693 0.0000
vt 0.4840 0.5687 0.0000
vt 0.4746 0.5705 0.0000
vt 0.4839 0.5723 0.0000
vt 0.4747 0.5714 0.0000
vt 0.4984 0.5619 0.0000
vt 0.5068 0.5592 0.0000
vt 0.5076 0.5590 0.0000
vt 0.4983 0.5627 0.0000
vt 0.4966 0.5618 0.0000
vt 0.4965 0.5638 0.0000
vt 0.4952 0.5635 0.0000
vt 0.4955 0.5635 0.0000
vt 0.4962 0.5637 0.0000
vt 0.4959 0.5631 0.0000
vt 0.4960 0.5628 0.0000
vt 0.4961 0.5622 0.0000
vt 0.4955 0.5629 0.0000
vt 0.4956 0.5629 0.0000
vt 0.4746 0.5679 0.0000
vt 0.4826 0.5667 0.0000
vt 0.4845 0.5652 0.0000
vt 0.4810 0.5634 0.0000
vt 0.4965 0.5620 0.0000
vt 0.4247 0.3110 0.0000
vt 0.4247 0.2127 0.0000
vt 0.7196 0.2127 0.0000
vt 0.7196 0.3110 0.0000
vt 0.4247 0.3109 0.0000
vt 0.7196 0.3109 0.0000
vt 0.4247 0.2126 0.0000
vt 0.7196 0.2126 0.0000
vt 0.4765 0.5670 0.0000
vt 0.5213 0.3109 0.0000
vt 0.5213 0.2126 0.0000
vt 0.7194 0.2126 0.0000
vt 0.7194 0.3109 0.0000
vt 0.5187 0.5575 0.0000
vt 0.5178 0.5576 0.0000
vt 0.5149 0.5563 0.0000
vt 0.8106 0.6394 0.0000
vt 0.8106 0.4787 0.0000
vt 0.6901 0.4787 0.0000
vt 0.6901 0.6394 0.0000
vt 0.5164 0.5571 0.0000
vt 0.5086 0.5576 0.0000
vt 0.5085 0.5568 0.0000
vt 0.5058 0.5572 0.0000
vt 0.5067 0.5580 0.0000
vt 0.5132 0.5556 0.0000
vt 0.5108 0.5560 0.0000
vt 0.9947 0.3494 0.0000
vt 0.8282 0.3494 0.0000
vt 0.8282 0.6408 0.0000
vt 0.9947 0.6408 0.0000
vt 0.5088 0.5599 0.0000
vt 0.5093 0.5605 0.0000
vt 0.5099 0.5597 0.0000
vt 0.5097 0.5594 0.0000
vt 0.5037 0.5618 0.0000
vt 0.5032 0.5628 0.0000
vt 0.5047 0.5628 0.0000
vt 0.5049 0.5616 0.0000
vt 0.5066 0.5622 0.0000
vt 0.5079 0.5616 0.0000
vt 0.5032 0.5601 0.0000
vt 0.5033 0.5602 0.0000
vt 0.7470 0.0058 0.0000
vt 0.9951 0.0058 0.0000
vt 0.9951 0.3367 0.0000
vt 0.7470 0.3367 0.0000
vt 0.5018 0.5612 0.0000
vt 0.5009 0.5629 0.0000
vt 0.4251 0.1649 0.0000
vt 0.4251 0.0079 0.0000
vt 0.7195 0.0079 0.0000
vt 0.7195 0.1649 0.0000
vt 0.5023 0.5624 0.0000
vt 0.5036 0.5587 0.0000
vt 0.5016 0.5586 0.0000
vt 0.5005 0.5603 0.0000
vt 0.4251 0.1650 0.0000
vt 0.4251 0.0078 0.0000
vt 0.7199 0.0078 0.0000
vt 0.7199 0.1650 0.0000
vt 0.5028 0.5605 0.0000
# 314 texture coords

g SPB_Hospital
usemtl SPB_Hospital
s off
f 1/1/1 2/2/1 3/3/1 4/4/1 
f 4/1/2 3/2/2 5/3/2 6/4/2 
f 6/1/3 5/2/3 7/3/3 8/4/3 
f 8/1/4 7/2/4 9/3/4 10/4/4 
f 10/1/5 9/2/5 11/3/5 12/4/5 
f 12/1/6 11/2/6 13/3/6 14/4/6 
f 14/1/7 13/2/7 15/3/7 16/4/7 
f 16/1/8 15/2/8 17/3/8 18/4/8 
f 18/1/9 17/2/9 19/3/9 20/4/9 
f 20/1/10 19/2/10 21/3/10 22/4/10 
f 22/1/11 21/2/11 23/3/11 24/4/11 
f 24/1/12 23/2/12 25/3/12 26/4/12 
f 26/1/13 25/2/13 27/3/13 28/4/13 
f 28/1/14 27/2/14 29/3/14 30/4/14 
f 30/1/15 29/2/15 31/3/15 32/4/15 
f 32/1/16 31/2/16 33/3/16 34/4/16 
s 1
f 11/1/17 9/2/17 35/3/17 36/4/17 
s off
f 37/1/18 38/2/18 2/3/18 1/4/18 
f 34/1/19 33/2/19 38/3/19 37/4/19 
f 1/5/20 4/6/20 6/7/20 8/8/20 
f 1/5/20 8/8/20 10/9/20 12/10/20 
f 1/5/20 12/10/20 14/11/20 16/12/20 
f 1/5/20 16/12/20 18/13/20 20/14/20 
f 1/5/20 20/14/20 22/15/20 24/16/20 
f 1/5/20 24/16/20 26/17/20 28/18/20 
f 1/5/20 28/18/20 30/19/20 32/20/20 
f 1/5/20 32/20/20 34/21/20 37/22/20 
f 36/1/21 35/2/21 39/3/21 40/4/21 
s 1
f 33/1/17 31/2/17 41/3/17 42/4/17 
f 3/1/17 2/2/17 43/3/17 44/4/17 
f 17/1/17 15/2/17 45/3/17 46/4/17 
f 23/1/17 21/2/17 47/3/17 48/4/17 
f 7/1/17 5/2/17 49/3/17 50/4/17 
f 29/1/17 27/2/17 51/3/17 52/4/17 
f 38/1/17 33/2/17 42/3/17 53/4/17 
f 13/1/17 11/2/17 36/3/17 54/4/17 
f 19/1/17 17/2/17 46/3/17 55/4/17 
f 25/1/17 23/2/17 48/3/17 56/4/17 
f 9/1/17 7/2/17 50/3/17 35/4/17 
f 31/1/17 29/2/17 52/3/17 41/4/17 
f 2/1/17 38/2/17 53/3/17 43/4/17 
f 15/1/17 13/2/17 54/3/17 45/4/17 
f 21/1/17 19/2/17 55/3/17 47/4/17 
f 5/1/17 3/2/17 44/3/17 49/4/17 
f 27/1/17 25/2/17 56/3/17 51/4/17 
s off
f 57/23/17 58/24/17 59/25/17 60/26/17 
f 57/23/17 60/26/17 61/27/17 62/28/17 
f 57/23/17 62/28/17 63/29/17 64/30/17 
f 57/23/17 64/30/17 65/31/17 66/32/17 
f 57/23/17 66/32/17 67/33/17 68/34/17 
f 57/23/17 68/34/17 69/35/17 70/36/17 
f 57/23/17 70/36/17 40/37/17 39/38/17 
f 57/23/17 39/38/17 71/39/17 72/40/17 
f 42/1/16 41/2/16 61/3/16 60/4/16 
f 50/1/3 49/2/3 72/3/3 71/4/3 
f 52/1/14 51/2/14 63/3/14 62/4/14 
f 44/1/1 43/2/1 58/3/1 57/4/1 
f 56/1/12 48/2/12 65/3/12 64/4/12 
f 47/1/10 55/2/10 67/3/10 66/4/10 
f 46/1/8 45/2/8 69/3/8 68/4/8 
f 53/1/19 42/2/19 60/3/19 59/4/19 
f 54/1/6 36/2/6 40/3/6 70/4/6 
f 35/1/4 50/2/4 71/3/4 39/4/4 
f 41/1/15 52/2/15 62/3/15 61/4/15 
f 49/1/2 44/2/2 57/3/2 72/4/2 
f 51/1/13 56/2/13 64/3/13 63/4/13 
f 48/1/11 47/2/11 66/3/11 65/4/11 
f 55/1/9 46/2/9 68/3/9 67/4/9 
f 43/1/18 53/2/18 59/3/18 58/4/18 
f 45/1/7 54/2/7 70/3/7 69/4/7 
f 73/41/22 74/41/22 75/42/22 76/42/22 
f 74/41/23 77/43/23 78/44/23 75/42/23 
f 77/43/21 79/43/21 80/44/21 78/44/21 
f 79/43/24 73/41/24 76/42/24 80/44/24 
f 76/42/20 75/42/20 78/44/20 80/44/20 
f 79/43/17 77/43/17 74/41/17 73/41/17 
f 81/45/25 82/45/25 83/45/25 84/45/25 
f 81/45/23 84/45/23 85/45/23 86/45/23 
f 81/45/23 86/45/23 87/45/23 88/45/23 
f 81/45/23 88/45/23 89/45/23 90/45/23 
f 81/45/23 90/45/23 91/45/23 92/45/23 
f 81/45/23 92/45/23 93/45/23 94/45/23 
f 81/45/23 94/45/23 95/45/23 96/45/23 
f 81/45/23 96/45/23 97/45/23 98/45/23 
f 81/45/23 98/45/23 99/45/23 100/45/23 
f 81/45/23 100/45/23 101/45/23 102/45/23 
f 81/45/23 102/45/23 103/45/23 104/45/23 
f 81/45/23 104/45/23 105/45/23 106/45/23 
f 106/45/26 107/45/26 82/45/26 81/45/26 
s 1
f 82/45/24 107/45/24 108/45/24 109/45/24 
f 108/45/24 110/45/24 111/45/24 112/45/24 
f 111/45/24 113/45/24 112/45/24 
f 112/45/24 114/45/24 115/45/24 116/45/24 
f 108/45/24 112/45/24 116/45/24 117/45/24 
f 116/45/24 118/45/24 117/45/24 
f 119/45/24 120/45/24 121/45/24 122/45/24 
f 121/45/24 123/45/24 122/45/24 
f 122/45/24 124/45/24 125/45/24 109/45/24 
f 125/45/24 126/45/24 109/45/24 
f 119/45/24 122/45/24 109/45/24 117/45/24 
f 108/45/24 117/45/24 109/45/24 
f 82/45/24 109/45/24 83/45/24 
f 123/45/24 121/45/24 127/45/24 128/45/24 
f 127/45/24 129/45/24 128/45/24 
f 130/45/24 131/45/24 115/45/24 132/45/24 
f 115/45/24 114/45/24 132/45/24 
f 132/45/24 133/45/24 134/45/24 135/45/24 
f 134/45/24 136/45/24 135/45/24 
f 130/45/24 132/45/24 135/45/24 128/45/24 
f 123/45/24 128/45/24 135/45/24 137/45/24 
f 135/45/24 138/45/24 137/45/24 
f 123/45/24 137/45/24 139/45/24 140/45/24 
s off
f 84/45/27 83/45/27 109/45/27 85/45/27 
f 85/45/28 109/45/28 126/45/28 86/45/28 
f 86/45/29 126/45/29 125/45/29 87/45/29 
f 87/45/30 125/45/30 124/45/30 88/45/30 
f 88/45/31 124/45/31 122/45/31 89/45/31 
f 89/45/32 122/45/32 123/45/32 90/45/32 
f 90/45/33 123/45/33 140/45/33 91/45/33 
f 91/45/34 140/45/34 139/45/34 92/45/34 
f 92/45/35 139/45/35 137/45/35 93/45/35 
f 93/45/36 137/45/36 138/45/36 94/45/36 
f 94/45/37 138/45/37 135/45/37 95/45/37 
f 95/45/38 135/45/38 136/45/38 96/45/38 
f 96/45/39 136/45/39 134/45/39 97/45/39 
f 97/45/40 134/45/40 133/45/40 98/45/40 
f 98/45/41 133/45/41 132/45/41 99/45/41 
f 99/45/42 132/45/42 114/45/42 100/45/42 
f 100/45/43 114/45/43 112/45/43 101/45/43 
f 101/45/44 112/45/44 113/45/44 102/45/44 
f 102/45/45 113/45/45 111/45/45 103/45/45 
f 103/45/46 111/45/46 110/45/46 104/45/46 
f 104/45/47 110/45/47 108/45/47 105/45/47 
f 105/45/48 108/45/48 107/45/48 106/45/48 
f 119/45/20 117/45/20 141/45/20 142/45/20 
f 120/45/49 119/45/49 142/45/49 143/45/49 
f 142/46/24 141/46/24 144/46/24 143/46/24 
f 117/45/50 118/45/50 144/45/50 141/45/50 
f 144/45/20 118/45/20 116/45/20 145/45/20 
f 143/45/20 144/45/20 145/45/20 146/45/20 
f 120/45/20 143/45/20 146/45/20 121/45/20 
f 127/45/22 121/45/22 146/45/22 147/45/22 
f 145/46/24 148/46/24 147/46/24 146/46/24 
f 116/45/21 115/45/21 148/45/21 145/45/21 
f 149/45/17 129/45/17 127/45/17 147/45/17 
f 150/45/17 149/45/17 147/45/17 148/45/17 
f 131/45/17 150/45/17 148/45/17 115/45/17 
f 128/45/49 129/45/49 149/45/49 151/45/49 
f 149/46/24 150/46/24 152/46/24 151/46/24 
f 131/45/50 130/45/50 152/45/50 150/45/50 
f 130/45/17 128/45/17 151/45/17 152/45/17 
f 153/47/22 154/47/22 155/47/22 156/47/22 
f 154/47/23 157/47/23 158/47/23 155/47/23 
f 157/47/21 159/47/21 160/47/21 158/47/21 
f 159/47/24 153/47/24 156/47/24 160/47/24 
f 156/47/20 155/47/20 158/47/20 160/47/20 
f 159/47/17 157/47/17 154/47/17 153/47/17 
f 161/47/22 162/47/22 163/47/22 164/47/22 
f 162/47/23 165/47/23 166/47/23 163/47/23 
f 165/47/21 167/47/21 168/47/21 166/47/21 
f 167/47/24 161/47/24 164/47/24 168/47/24 
f 164/47/20 163/47/20 166/47/20 168/47/20 
f 167/47/17 165/47/17 162/47/17 161/47/17 
f 169/47/22 170/47/22 171/47/22 172/47/22 
f 170/47/51 173/47/51 174/47/51 171/47/51 
f 173/47/21 175/47/21 176/47/21 174/47/21 
f 175/47/52 169/47/52 172/47/52 176/47/52 
f 172/47/20 171/47/20 174/47/20 176/47/20 
f 175/47/17 173/47/17 170/47/17 169/47/17 
f 177/47/22 178/47/22 179/47/22 180/47/22 
f 178/47/23 181/47/23 182/47/23 179/47/23 
f 181/47/21 183/47/21 184/47/21 182/47/21 
f 183/47/24 177/47/24 180/47/24 184/47/24 
f 180/47/20 179/47/20 182/47/20 184/47/20 
f 183/47/17 181/47/17 178/47/17 177/47/17 
f 185/47/22 186/47/22 187/47/22 188/47/22 
f 186/47/23 189/47/23 190/47/23 187/47/23 
f 189/47/21 191/47/21 192/47/21 190/47/21 
f 191/47/24 185/47/24 188/47/24 192/47/24 
f 188/47/20 187/47/20 190/47/20 192/47/20 
f 191/47/17 189/47/17 186/47/17 185/47/17 
f 193/47/22 194/47/22 195/47/22 196/47/22 
f 194/47/51 197/47/51 198/47/51 195/47/51 
f 197/47/21 199/47/21 200/47/21 198/47/21 
f 199/47/52 193/47/52 196/47/52 200/47/52 
f 196/47/20 195/47/20 198/47/20 200/47/20 
f 199/47/17 197/47/17 194/47/17 193/47/17 
f 201/47/22 202/47/22 203/47/22 204/47/22 
f 202/47/23 205/47/23 206/47/23 203/47/23 
f 205/47/21 207/47/21 208/47/21 206/47/21 
f 207/47/24 201/47/24 204/47/24 208/47/24 
f 204/47/20 203/47/20 206/47/20 208/47/20 
f 207/47/17 205/47/17 202/47/17 201/47/17 
f 209/47/22 210/47/22 211/47/22 212/47/22 
f 210/47/23 213/47/23 214/47/23 211/47/23 
f 213/47/21 215/47/21 216/47/21 214/47/21 
f 215/47/24 209/47/24 212/47/24 216/47/24 
f 212/47/20 211/47/20 214/47/20 216/47/20 
f 215/47/17 213/47/17 210/47/17 209/47/17 
f 217/47/22 218/47/22 219/47/22 220/47/22 
f 218/47/51 221/47/51 222/47/51 219/47/51 
f 221/47/21 223/47/21 224/47/21 222/47/21 
f 223/47/52 217/47/52 220/47/52 224/47/52 
f 220/47/20 219/47/20 222/47/20 224/47/20 
f 223/47/17 221/47/17 218/47/17 217/47/17 
f 225/47/22 226/47/22 227/47/22 228/47/22 
f 226/47/23 229/47/23 230/47/23 227/47/23 
f 229/47/21 231/47/21 232/47/21 230/47/21 
f 231/47/24 225/47/24 228/47/24 232/47/24 
f 228/47/20 227/47/20 230/47/20 232/47/20 
f 231/47/17 229/47/17 226/47/17 225/47/17 
f 233/47/22 234/47/22 235/47/22 236/47/22 
f 234/47/23 237/47/23 238/47/23 235/47/23 
f 237/47/21 239/47/21 240/47/21 238/47/21 
f 239/47/24 233/47/24 236/47/24 240/47/24 
f 236/47/20 235/47/20 238/47/20 240/47/20 
f 239/47/17 237/47/17 234/47/17 233/47/17 
f 241/47/22 242/47/22 243/47/22 244/47/22 
f 242/47/51 245/47/51 246/47/51 243/47/51 
f 245/47/21 247/47/21 248/47/21 246/47/21 
f 247/47/52 241/47/52 244/47/52 248/47/52 
f 244/47/20 243/47/20 246/47/20 248/47/20 
f 247/47/17 245/47/17 242/47/17 241/47/17 
f 249/47/22 250/47/22 251/47/22 252/47/22 
f 250/47/23 253/47/23 254/47/23 251/47/23 
f 253/47/21 255/47/21 256/47/21 254/47/21 
f 255/47/24 249/47/24 252/47/24 256/47/24 
f 252/47/20 251/47/20 254/47/20 256/47/20 
f 255/47/17 253/47/17 250/47/17 249/47/17 
f 257/47/22 258/47/22 259/47/22 260/47/22 
f 258/47/23 261/47/23 262/47/23 259/47/23 
f 261/47/21 263/47/21 264/47/21 262/47/21 
f 263/47/24 257/47/24 260/47/24 264/47/24 
f 260/47/20 259/47/20 262/47/20 264/47/20 
f 263/47/17 261/47/17 258/47/17 257/47/17 
f 265/47/22 266/47/22 267/47/22 268/47/22 
f 266/47/51 269/47/51 270/47/51 267/47/51 
f 269/47/21 271/47/21 272/47/21 270/47/21 
f 271/47/52 265/47/52 268/47/52 272/47/52 
f 268/47/20 267/47/20 270/47/20 272/47/20 
f 271/47/17 269/47/17 266/47/17 265/47/17 
f 273/47/22 274/47/22 275/47/22 276/47/22 
f 274/47/23 277/47/23 278/47/23 275/47/23 
f 277/47/21 279/47/21 280/47/21 278/47/21 
f 279/47/24 273/47/24 276/47/24 280/47/24 
f 276/47/20 275/47/20 278/47/20 280/47/20 
f 279/47/17 277/47/17 274/47/17 273/47/17 
f 281/47/22 282/47/22 283/47/22 284/47/22 
f 282/47/23 285/47/23 286/47/23 283/47/23 
f 285/47/21 287/47/21 288/47/21 286/47/21 
f 287/47/24 281/47/24 284/47/24 288/47/24 
f 284/47/20 283/47/20 286/47/20 288/47/20 
f 287/47/17 285/47/17 282/47/17 281/47/17 
f 289/47/22 290/47/22 291/47/22 292/47/22 
f 290/47/51 293/47/51 294/47/51 291/47/51 
f 293/47/21 295/47/21 296/47/21 294/47/21 
f 295/47/52 289/47/52 292/47/52 296/47/52 
f 292/47/20 291/47/20 294/47/20 296/47/20 
f 295/47/17 293/47/17 290/47/17 289/47/17 
s 1
f 297/48/17 298/48/17 299/48/17 300/48/17 
f 301/48/20 302/48/20 303/48/20 304/48/20 
s 2
f 305/48/21 306/48/21 302/48/21 307/48/21 
s 4
f 308/48/23 305/48/23 307/48/23 309/48/23 
s 2
f 297/48/22 310/48/22 311/48/22 312/48/22 
s off
f 313/48/24 298/48/24 314/48/24 315/48/24 
s 2
f 302/48/21 306/48/21 316/48/21 303/48/21 
s 1
f 317/48/17 310/48/17 318/48/17 319/48/17 
s 2
f 297/48/22 312/48/22 314/48/22 298/48/22 
s 1
f 308/48/17 317/48/17 319/48/17 320/48/17 
s off
f 321/48/17 316/48/17 322/48/17 323/48/17 
f 316/48/24 321/48/24 304/48/24 303/48/24 
f 313/48/22 315/48/22 324/48/22 325/48/22 
s 4
f 310/48/23 317/48/23 326/48/23 311/48/23 
f 317/48/23 308/48/23 309/48/23 326/48/23 
s 1
f 312/48/20 327/48/20 315/48/20 314/48/20 
f 327/48/20 301/48/20 304/48/20 315/48/20 
f 325/48/17 328/48/17 329/48/17 330/48/17 
f 313/48/17 325/48/17 330/48/17 331/48/17 
f 301/48/20 327/48/20 312/48/20 311/48/20 
f 301/48/20 311/48/20 326/48/20 309/48/20 
f 301/48/20 309/48/20 307/48/20 302/48/20 
s off
f 328/48/24 325/48/24 324/48/24 332/48/24 
f 304/48/21 321/48/21 328/48/21 332/48/21 
s 1
f 315/48/20 304/48/20 332/48/20 324/48/20 
f 328/48/17 321/48/17 323/48/17 329/48/17 
s 2
f 300/48/21 299/48/21 333/48/21 334/48/21 
s 4
f 319/48/24 318/48/24 335/48/24 336/48/24 
f 320/48/24 319/48/24 336/48/24 337/48/24 
s off
f 323/48/23 322/48/23 338/48/23 339/48/23 
f 330/48/23 329/48/23 340/48/23 341/48/23 
f 331/48/21 330/48/21 341/48/21 342/48/21 
f 329/48/22 323/48/22 339/48/22 340/48/22 
s 1
f 316/48/17 306/48/17 343/48/17 322/48/17 
f 298/48/17 313/48/17 331/48/17 299/48/17 
f 306/48/17 305/48/17 344/48/17 343/48/17 
f 305/48/17 308/48/17 320/48/17 344/48/17 
f 310/48/17 297/48/17 300/48/17 318/48/17 
f 345/49/17 336/49/17 335/49/17 334/49/17 
f 345/49/17 334/49/17 333/49/17 342/49/17 
f 346/49/17 347/49/17 339/49/17 338/49/17 
f 347/49/17 345/49/17 342/49/17 339/49/17 
f 346/49/17 348/49/17 337/49/17 347/49/17 
f 347/49/17 337/49/17 336/49/17 345/49/17 
f 339/49/17 342/49/17 341/49/17 340/49/17 
s 2
f 322/48/22 343/48/22 346/48/22 338/48/22 
s off
f 299/48/23 331/48/23 342/48/23 333/48/23 
s 2
f 343/48/22 344/48/22 348/48/22 346/48/22 
s 4
f 344/48/24 320/48/24 337/48/24 348/48/24 
s 2
f 318/48/21 300/48/21 334/48/21 335/48/21 
s 1
f 349/48/17 350/48/17 351/48/17 352/48/17 
f 353/48/20 354/48/20 355/48/20 356/48/20 
s off
f 357/48/21 358/48/21 354/48/21 359/48/21 
s 2
f 360/48/23 357/48/23 359/48/23 361/48/23 
s off
f 352/48/22 351/48/22 362/48/22 363/48/22 
f 364/48/24 365/48/24 366/48/24 367/48/24 
f 354/48/21 358/48/21 368/48/21 355/48/21 
s 1
f 349/48/17 352/48/17 365/48/17 364/48/17 
s off
f 352/48/22 363/48/22 366/48/22 365/48/22 
s 1
f 358/48/17 369/48/17 370/48/17 368/48/17 
f 369/48/17 349/48/17 364/48/17 370/48/17 
s off
f 368/48/24 370/48/24 356/48/24 355/48/24 
f 364/48/22 367/48/22 371/48/22 372/48/22 
s 2
f 351/48/23 350/48/23 373/48/23 362/48/23 
f 350/48/23 360/48/23 361/48/23 373/48/23 
s 1
f 363/48/20 374/48/20 367/48/20 366/48/20 
f 374/48/20 353/48/20 356/48/20 367/48/20 
f 358/48/17 357/48/17 360/48/17 369/48/17 
f 369/48/17 360/48/17 350/48/17 349/48/17 
f 353/48/20 374/48/20 363/48/20 362/48/20 
f 353/48/20 362/48/20 373/48/20 361/48/20 
f 353/48/20 361/48/20 359/48/20 354/48/20 
s off
f 375/48/24 372/48/24 371/48/24 376/48/24 
f 356/48/21 370/48/21 375/48/21 376/48/21 
s 1
f 367/48/20 356/48/20 376/48/20 371/48/20 
f 370/48/17 364/48/17 372/48/17 375/48/17 
f 377/50/22 378/51/22 379/52/22 380/53/22 
f 377/50/22 380/53/22 381/54/22 382/55/22 
f 378/51/22 383/56/22 384/57/22 385/58/22 
f 384/57/22 386/59/22 387/60/22 385/58/22 
f 378/51/22 385/58/22 388/61/22 379/52/22 
f 389/62/22 382/55/22 381/54/22 390/63/22 
f 388/61/22 389/62/22 390/63/22 379/52/22 
f 391/64/22 387/60/22 386/59/22 392/65/22 
f 378/51/22 391/64/22 392/65/22 383/56/22 
s 2
f 377/50/24 382/55/53 393/66/53 394/67/24 
f 377/50/24 394/67/24 395/68/53 396/69/53 
f 397/70/24 396/69/53 395/68/53 398/71/24 
f 382/55/53 397/70/24 398/71/24 393/66/53 
s 1
f 378/51/22 377/50/22 399/72/22 400/73/22 
f 401/74/22 378/51/22 400/73/22 402/75/22 
f 402/75/22 403/76/22 404/77/22 405/78/22 
f 401/74/22 402/75/22 405/78/22 406/79/22 
f 406/79/22 407/80/22 408/81/22 409/79/22 
f 401/74/22 406/79/22 409/79/22 410/82/22 
f 411/83/22 401/74/22 410/82/22 412/84/22 
s 2
f 378/51/51 413/85/51 414/86/51 391/64/51 
s 4
f 382/55/20 389/62/20 415/87/20 414/86/20 
f 416/88/20 387/60/20 391/64/20 414/86/20 
f 415/87/20 416/88/20 414/86/20 
f 382/55/20 414/86/20 397/70/20 
s 2
f 396/69/53 397/70/24 417/89/24 418/90/24 
f 419/91/53 396/69/53 418/90/24 420/90/53 
f 419/91/53 420/90/53 421/92/53 422/93/53 
s 4
f 377/50/20 396/69/20 423/94/20 424/95/20 
s 1
f 425/96/22 408/81/22 407/80/22 426/97/22 
f 427/98/22 404/77/22 403/76/22 428/99/22 
f 429/100/22 399/72/22 377/50/22 424/95/22 
f 428/99/22 429/100/22 424/95/22 427/98/22 
f 426/97/22 427/98/22 424/95/22 425/96/22 
f 430/101/22 425/96/22 424/95/22 431/102/22 
f 412/84/22 430/101/22 431/102/22 411/83/22 
s 4
f 432/103/17 433/104/17 401/74/17 411/83/17 
s 2
f 401/74/51 433/104/51 413/85/51 378/51/51 
s off
f 434/100/17 435/105/17 400/73/17 399/72/17 
f 434/100/17 399/72/17 429/100/17 
f 402/75/52 400/73/52 435/105/52 436/106/52 
f 436/106/20 437/107/20 428/99/20 403/76/20 
f 436/106/20 403/76/20 402/75/20 
f 438/108/54 439/109/54 405/78/54 404/77/54 
f 438/108/17 404/77/17 427/98/17 
f 406/79/24 405/78/24 439/109/24 440/79/24 
f 440/79/20 441/110/20 426/97/20 407/80/20 
f 440/79/20 407/80/20 406/79/20 
f 442/111/54 443/112/54 409/79/54 408/81/54 
f 442/111/17 408/81/17 425/96/17 
f 410/82/52 409/79/52 443/112/52 444/109/52 
f 444/109/20 445/113/20 430/101/20 412/84/20 
f 444/109/20 412/84/20 410/82/20 
s 2
f 413/85/51 446/114/51 447/115/51 414/86/51 
s 4
f 397/70/20 414/86/20 447/115/20 448/116/20 
f 447/115/20 422/93/20 421/92/20 449/117/20 
f 447/115/20 449/117/20 448/116/20 
f 397/70/20 448/116/20 417/89/20 
s 2
f 419/91/53 422/93/53 450/118/53 451/119/24 
f 419/91/53 451/119/24 452/120/53 453/121/53 
f 454/122/24 453/121/53 452/120/53 455/123/24 
f 422/93/53 454/122/24 455/123/24 450/118/53 
s 4
f 396/69/20 419/91/20 456/124/20 423/94/20 
s 2
f 424/95/53 423/94/24 457/125/52 458/126/55 
f 424/95/53 458/126/55 459/127/24 460/128/24 
f 459/127/24 461/129/53 462/130/53 460/128/24 
f 424/95/53 460/128/24 463/131/24 464/132/53 
f 463/131/24 465/133/53 466/134/52 464/132/53 
f 431/102/24 424/95/53 464/132/53 467/135/52 
s 4
f 432/103/17 411/83/17 431/102/17 468/136/17 
s off
f 425/96/23 430/101/23 445/113/23 442/111/23 
f 427/98/51 426/97/51 441/110/51 438/108/51 
f 429/100/23 428/99/23 437/107/23 434/100/23 
s 4
f 469/137/17 470/138/17 433/104/17 432/103/17 
s 2
f 433/104/51 470/138/51 446/114/51 413/85/51 
s off
f 436/139/22 435/140/22 434/141/22 437/142/22 
f 440/139/22 439/140/22 438/141/22 441/142/22 
f 444/143/22 443/144/22 442/145/22 445/146/22 
s 2
f 446/114/51 471/147/51 472/148/51 447/115/51 
s 4
f 422/93/20 447/115/20 472/148/20 473/149/20 
f 472/148/20 474/150/20 473/149/20 
f 422/93/20 473/149/20 475/151/20 476/152/20 
f 422/93/20 476/152/20 454/122/20 
s 1
f 476/152/21 477/153/21 478/154/21 479/155/21 
f 454/122/21 476/152/21 479/155/21 480/156/21 
f 481/157/21 482/158/21 474/150/21 472/148/21 
f 483/157/21 481/157/21 472/148/21 471/147/21 
f 453/121/21 454/122/21 480/156/21 484/159/21 
f 484/159/21 478/154/21 477/153/21 453/121/21 
f 453/121/21 477/153/21 485/160/21 486/161/21 
f 485/160/21 474/150/21 482/158/21 486/161/21 
f 453/121/21 486/161/21 483/157/21 471/147/21 
s 4
f 419/91/20 453/121/20 487/162/20 456/124/20 
f 423/94/20 456/124/20 488/163/20 489/164/20 
s 2
f 461/129/53 457/125/52 423/94/24 462/130/53 
f 465/133/53 462/130/53 423/94/24 466/134/52 
f 490/165/53 466/134/52 423/94/24 468/136/53 
f 467/135/52 490/165/53 468/136/53 431/102/24 
s off
f 458/126/17 457/125/17 491/166/17 492/167/17 
f 459/127/21 458/126/21 492/167/21 493/168/21 
f 461/129/20 459/127/20 493/168/20 494/169/20 
f 460/128/17 462/130/17 495/170/17 496/171/17 
f 463/131/21 460/128/21 496/171/21 497/172/21 
f 465/133/56 463/131/56 497/172/56 498/173/56 
f 464/132/17 466/134/17 499/174/17 500/175/17 
f 467/135/21 464/132/21 500/175/21 501/176/21 
s 4
f 469/137/17 432/103/17 468/136/17 502/177/17 
f 503/178/17 504/179/17 470/138/17 469/137/17 
s 2
f 470/138/51 504/179/51 471/147/51 446/114/51 
s 1
f 504/179/21 503/178/21 505/180/21 506/181/21 
f 507/182/21 508/183/21 509/184/21 510/185/21 
f 511/186/21 512/187/21 513/188/21 514/189/21 
f 515/190/21 516/191/21 453/121/21 471/147/21 
f 514/189/21 515/190/21 471/147/21 511/186/21 
f 510/185/21 511/186/21 471/147/21 507/182/21 
f 506/181/21 507/182/21 471/147/21 504/179/21 
f 517/192/21 513/193/21 512/194/21 518/195/21 
f 519/196/21 509/184/21 508/183/21 520/197/21 
f 521/198/21 505/199/21 503/178/21 522/200/21 
f 520/197/21 521/198/21 522/200/21 519/196/21 
f 518/195/21 519/196/21 522/200/21 517/192/21 
f 523/201/21 517/192/21 522/200/21 487/162/21 
f 516/191/21 523/201/21 487/162/21 453/121/21 
s 2
f 524/202/24 525/203/55 526/204/24 527/205/24 
f 528/206/24 529/207/24 530/208/24 531/209/53 
f 531/209/53 532/210/52 502/177/24 456/124/53 
f 528/206/24 531/209/53 456/124/53 527/205/24 
f 524/202/24 527/205/24 456/124/53 533/211/55 
f 534/212/24 533/211/55 456/124/53 487/162/24 
s off
f 468/136/22 423/94/22 489/164/22 535/213/22 
f 456/124/21 502/177/21 536/214/21 488/163/21 
s 1
f 537/215/52 538/216/53 489/164/53 488/163/24 
f 539/217/55 537/215/52 488/163/24 536/214/53 
s off
f 490/165/56 467/135/56 501/176/56 540/218/56 
f 466/134/22 490/165/22 540/218/22 499/174/22 
f 462/130/22 465/133/22 498/173/22 495/170/22 
f 457/125/22 461/129/22 494/169/22 491/166/22 
f 493/219/52 492/220/52 491/221/52 494/222/52 
f 497/223/24 496/220/24 495/221/24 498/224/24 
f 501/223/52 500/225/52 499/226/52 540/224/52 
s 4
f 503/178/17 469/137/17 502/177/17 522/200/17 
f 502/177/17 468/136/17 535/213/17 536/214/17 
s off
f 506/181/20 505/227/20 521/198/20 541/228/20 
f 506/181/20 541/228/20 542/229/20 
f 507/182/52 506/181/52 542/229/52 543/230/52 
f 520/197/17 508/183/17 507/182/17 543/230/17 
f 520/197/17 543/230/17 544/228/17 
f 510/185/20 509/184/20 519/196/20 545/231/20 
f 510/185/20 545/231/20 546/185/20 
f 511/186/24 510/185/24 546/185/24 547/232/24 
f 518/195/17 512/194/17 511/186/17 547/232/17 
f 518/195/17 547/232/17 548/233/17 
f 514/189/20 513/193/20 517/192/20 549/234/20 
f 514/189/20 549/234/20 550/235/20 
f 515/190/52 514/189/52 550/235/52 551/236/52 
f 523/201/57 516/191/57 515/190/57 551/236/57 
f 523/201/17 551/236/17 552/237/17 
f 517/192/23 523/201/23 552/237/23 549/234/23 
f 519/196/51 518/195/51 548/233/51 545/231/51 
f 521/198/23 520/197/23 544/228/23 541/228/23 
s 2
f 522/200/53 502/177/24 532/210/52 553/238/55 
f 522/200/53 553/238/55 530/208/24 529/207/24 
f 522/200/53 529/207/24 526/204/24 525/203/55 
f 522/200/53 525/203/55 534/212/24 487/162/24 
s off
f 533/211/17 534/212/17 554/239/17 555/240/17 
f 524/202/21 533/211/21 555/240/21 556/241/21 
f 525/203/20 524/202/20 556/241/20 557/242/20 
f 527/205/17 526/204/17 558/243/17 559/206/17 
f 528/206/21 527/205/21 559/206/21 560/206/21 
f 529/207/56 528/206/56 560/206/56 561/244/56 
f 531/209/17 530/208/17 562/245/17 563/246/17 
f 532/210/21 531/209/21 563/246/21 564/247/21 
s 1
f 535/213/24 489/164/53 538/216/53 565/248/52 
f 536/214/53 535/213/24 565/248/52 539/217/55 
s off
f 537/215/22 539/217/22 566/249/22 567/250/22 
f 538/216/17 537/215/17 567/250/17 568/251/17 
f 541/146/21 544/145/21 543/144/21 542/143/21 
f 545/142/21 548/141/21 547/140/21 546/139/21 
f 549/142/21 552/141/21 551/140/21 550/139/21 
f 553/238/20 532/210/20 564/247/20 569/252/20 
f 530/208/22 553/238/22 569/252/22 562/245/22 
f 526/204/22 529/207/22 561/244/22 558/243/22 
f 534/212/22 525/203/22 557/242/22 554/239/22 
f 556/253/52 555/254/52 554/255/52 557/256/52 
f 560/257/24 559/254/24 558/255/24 561/258/24 
f 564/257/52 563/259/52 562/260/52 569/258/52 
f 565/248/21 538/216/21 568/251/21 570/261/21 
f 539/217/20 565/248/20 570/261/20 566/249/20 
f 570/262/52 568/263/52 567/264/52 566/265/52 
f 383/56/52 392/65/52 571/266/52 572/267/52 
f 384/57/20 383/56/20 572/267/20 573/268/20 
f 572/269/22 571/270/22 574/271/22 573/272/22 
f 392/65/17 386/59/17 574/273/17 571/266/17 
f 386/59/23 384/57/23 573/268/23 574/273/23 
f 379/52/52 390/63/52 575/274/52 576/275/52 
f 380/53/20 379/52/20 576/275/20 577/276/20 
f 576/269/22 575/270/22 578/271/22 577/272/22 
f 390/63/17 381/54/17 578/277/17 575/274/17 
f 381/54/23 380/53/23 577/276/23 578/277/23 
f 385/58/24 387/60/24 416/88/24 579/278/24 
f 388/61/20 385/58/20 579/278/20 580/279/20 
f 416/280/22 415/281/22 580/282/22 579/283/22 
f 580/279/23 415/87/23 389/62/23 388/61/23 
f 581/272/50 582/271/50 583/270/50 584/269/50 
f 486/161/51 482/158/51 582/284/51 581/285/51 
f 483/157/20 486/161/20 581/285/20 584/286/20 
f 481/157/52 483/157/52 584/286/52 583/287/52 
f 482/158/17 481/157/17 583/287/17 582/284/17 
f 585/272/21 586/271/21 587/270/21 588/269/21 
f 484/159/23 480/156/23 586/288/23 585/289/23 
f 478/154/20 484/159/20 585/289/20 588/290/20 
f 479/155/52 478/154/52 588/290/52 587/291/52 
f 480/156/17 479/155/17 587/291/17 586/288/17 
f 475/281/21 473/280/21 589/283/21 590/282/21 
f 477/153/23 476/152/23 475/151/23 590/292/23 
f 485/160/20 477/153/20 590/292/20 589/293/20 
f 589/293/24 473/149/24 474/150/24 485/160/24 
f 418/90/21 417/89/21 448/116/21 591/294/21 
f 420/90/20 418/90/20 591/294/20 592/295/20 
f 448/296/52 449/297/52 592/298/52 591/299/52 
f 592/295/22 449/117/22 421/92/22 420/90/22 
f 451/119/21 450/118/21 593/300/21 594/81/21 
f 452/120/56 451/119/56 594/81/56 595/301/56 
f 594/302/52 593/303/52 596/304/52 595/305/52 
f 450/118/17 455/123/17 596/306/17 593/300/17 
f 455/123/22 452/120/22 595/301/22 596/306/22 
f 394/67/21 393/66/21 597/307/21 598/308/21 
f 395/68/56 394/67/56 598/308/56 599/309/56 
f 598/310/52 597/311/52 600/312/52 599/313/52 
f 393/66/17 398/71/17 600/314/17 597/307/17 
f 398/71/22 395/68/22 599/309/22 600/314/22 
# 538 polygons - 28 triangles

