# 3ds Max Wavefront OBJ Exporter v0.97b - (c)2007 guruware
# File Created: 15.03.2017 11:07:29

mtllib SPW_Urban_Road Sign_Stop.mtl

#
# object SPW_Urban_Road_Sign_Stop
#

v  0.8131 0.0002 -1.3903
v  -0.8131 0.0002 -1.3903
v  -0.8131 86.6484 -1.3903
v  0.8131 86.6484 -1.3903
v  -1.3903 0.0002 -0.8131
v  -1.3903 86.6484 -0.8131
v  -1.3903 0.0002 0.8131
v  -1.3903 86.6484 0.8131
v  -0.8131 0.0002 1.3903
v  -0.8131 86.6484 1.3903
v  0.8131 0.0002 1.3903
v  0.8131 86.6484 1.3903
v  1.3903 0.0002 0.8131
v  1.3903 86.6484 0.8131
v  1.3903 0.0002 -0.8131
v  1.3903 86.6484 -0.8131
v  6.5565 99.4227 1.1129
v  6.5565 99.4227 2.5597
v  12.9046 93.0746 2.5597
v  12.9046 93.0746 1.1129
v  12.9046 80.0242 2.5597
v  12.9046 80.0242 1.1129
v  6.5565 73.6761 2.5597
v  6.5565 73.6761 1.1129
v  -6.5691 73.6761 2.5597
v  -6.5691 73.6761 1.1129
v  -12.9172 80.0242 2.5597
v  -12.9172 80.0242 1.1129
v  -12.9172 93.0746 2.5597
v  -12.9172 93.0746 1.1129
v  -6.5691 99.4227 2.5597
v  -6.2571 98.8108 2.5597
v  6.2446 98.8108 2.5597
v  -6.5691 99.4227 1.1129
v  -5.8569 98.0257 2.5597
v  5.8443 98.0257 2.5597
v  -12.3035 92.7645 2.5597
v  -12.3035 80.3344 2.5597
v  -6.2571 74.2880 2.5597
v  6.2446 74.2880 2.5597
v  12.2910 80.3344 2.5597
v  12.2910 92.7645 2.5597
v  11.5035 92.3665 2.5597
v  -11.5161 92.3665 2.5597
v  -11.5161 80.7323 2.5597
v  -5.8569 75.0731 2.5597
v  5.8443 75.0731 2.5597
v  11.5035 80.7323 2.5597
# 48 vertices

vn 0.0000 0.0000 -1.0000
vn -0.7071 0.0000 -0.7071
vn -1.0000 -0.0000 -0.0000
vn -0.7071 -0.0000 0.7071
vn -0.0000 -0.0000 1.0000
vn 0.7071 -0.0000 0.7071
vn 1.0000 0.0000 -0.0000
vn 0.7071 0.0000 -0.7071
vn 0.0000 1.0000 0.0000
vn 0.0000 -1.0000 -0.0000
vn -0.0000 -1.0000 -0.0000
vn 0.7071 0.7071 0.0000
vn 1.0000 0.0000 0.0000
vn 0.7071 -0.7071 0.0000
vn -0.7071 -0.7071 -0.0000
vn -1.0000 0.0000 -0.0000
vn -0.0000 0.0000 1.0000
vn -0.7071 0.7071 -0.0000
vn 0.0000 0.0000 1.0000
vn 0.0000 -0.0000 1.0000
# 20 vertex normals

vt 0.0123 0.8955 0.0000
vt 0.0265 0.8955 0.0000
vt 0.0265 0.9098 0.0000
vt 0.0123 0.9098 0.0000
vt 0.0194 0.9098 0.0000
vt 0.0245 0.9077 0.0000
vt 0.0265 0.9026 0.0000
vt 0.0245 0.8976 0.0000
vt 0.0194 0.8955 0.0000
vt 0.0144 0.8976 0.0000
vt 0.0123 0.9026 0.0000
vt 0.0144 0.9077 0.0000
vt 0.4299 0.9732 0.0000
vt 0.4399 0.9732 0.0000
vt 0.4399 0.9832 0.0000
vt 0.4299 0.9832 0.0000
vt 0.0553 0.9022 0.0000
vt 0.0653 0.9022 0.0000
vt 0.0653 0.9122 0.0000
vt 0.0553 0.9122 0.0000
vt 0.0200 0.9466 0.0000
vt 0.0236 0.9452 0.0000
vt 0.0250 0.9416 0.0000
vt 0.0236 0.9381 0.0000
vt 0.0200 0.9366 0.0000
vt 0.0165 0.9381 0.0000
vt 0.0150 0.9416 0.0000
vt 0.0165 0.9452 0.0000
vt 0.0150 0.9868 0.0000
vt 0.0250 0.9868 0.0000
vt 0.6220 0.9682 0.0000
vt 0.6019 0.9883 0.0000
vt 0.5603 0.9883 0.0000
vt 0.5401 0.9682 0.0000
vt 0.5401 0.9268 0.0000
vt 0.5603 0.9067 0.0000
vt 0.6019 0.9067 0.0000
vt 0.6220 0.9268 0.0000
# 38 texture coords

g SPW_Urban_Road_Sign_Stop
usemtl SPW_Urban_Road_Props_01
s off
f 1/1/1 2/2/1 3/3/1 4/4/1 
f 2/1/2 5/2/2 6/3/2 3/4/2 
f 5/1/3 7/2/3 8/3/3 6/4/3 
f 7/1/4 9/2/4 10/3/4 8/4/4 
f 9/1/5 11/2/5 12/3/5 10/4/5 
f 11/1/6 13/2/6 14/3/6 12/4/6 
f 13/1/7 15/2/7 16/3/7 14/4/7 
f 15/1/8 1/2/8 4/3/8 16/4/8 
f 16/5/9 4/6/9 3/7/9 6/8/9 
f 16/5/9 6/8/9 8/9/9 10/10/9 
f 16/5/9 10/10/9 12/11/9 14/12/9 
f 1/5/10 15/6/10 13/7/10 11/8/10 
f 1/5/10 11/8/10 9/9/10 7/10/10 
f 1/5/11 7/10/11 5/11/11 2/12/11 
f 17/13/12 18/14/12 19/15/12 20/16/12 
f 20/13/13 19/14/13 21/15/13 22/16/13 
f 22/13/14 21/14/14 23/15/14 24/16/14 
f 24/13/10 23/14/10 25/15/10 26/16/10 
f 26/13/15 25/14/15 27/15/15 28/16/15 
f 28/13/16 27/14/16 29/15/16 30/16/16 
s 1
f 18/17/5 31/18/17 32/19/17 33/20/5 
s off
f 34/13/9 31/14/9 18/15/9 17/16/9 
f 30/13/18 29/14/18 31/15/18 34/16/18 
f 17/21/1 20/22/1 22/23/1 24/24/1 
f 17/21/1 24/24/1 26/25/1 28/26/1 
f 17/21/1 28/26/1 30/27/1 34/28/1 
s 3
f 33/29/5 32/30/17 35/30/17 36/29/5 
s 1
f 31/17/17 29/18/17 37/19/17 32/20/17 
f 29/17/17 27/18/5 38/19/5 37/20/17 
f 27/17/5 25/18/19 39/19/5 38/20/5 
s 3
f 25/17/19 23/18/20 40/19/20 39/20/5 
s 2
f 23/17/20 21/18/17 41/19/20 40/20/20 
s 1
f 21/17/5 19/18/5 42/19/5 41/20/20 
f 19/17/5 18/18/5 33/19/5 42/20/5 
s 3
f 43/31/20 36/32/5 35/33/17 44/34/20 
f 43/31/20 44/34/20 45/35/19 46/36/5 
f 43/31/20 46/36/5 47/37/5 48/38/20 
f 32/29/17 37/30/17 44/30/20 35/29/17 
s 2
f 37/29/17 38/30/5 45/30/19 44/29/20 
s 3
f 38/29/5 39/30/5 46/30/5 45/29/19 
s 1
f 39/29/5 40/30/20 47/30/5 46/29/5 
s 3
f 40/29/20 41/30/20 48/30/20 47/29/5 
s 2
f 41/29/20 42/30/19 43/30/20 48/29/20 
f 42/29/19 33/30/5 36/30/5 43/29/20 
# 44 polygons

