# 3ds Max Wavefront OBJ Exporter v0.97b - (c)2007 guruware
# File Created: 15.03.2017 11:03:14

mtllib SPW_Urban_Road Sign_Danger.mtl

#
# object SPW_Urban_Road_Sign_Danger
#

v  0.8131 -0.0002 -1.3903
v  -0.8131 -0.0002 -1.3903
v  -0.8131 86.6479 -1.3903
v  0.8131 86.6479 -1.3903
v  -1.3903 -0.0002 -0.8131
v  -1.3903 86.6479 -0.8131
v  -1.3903 -0.0002 0.8131
v  -1.3903 86.6479 0.8131
v  -0.8131 -0.0002 1.3903
v  -0.8131 86.6479 1.3903
v  0.8131 -0.0002 1.3903
v  0.8131 86.6479 1.3903
v  1.3903 -0.0002 0.8131
v  1.3903 86.6479 0.8131
v  1.3903 -0.0002 -0.8131
v  1.3903 86.6479 -0.8131
v  -0.0000 103.3240 2.2724
v  -0.0000 103.3240 0.8551
v  -16.7033 74.8097 0.8551
v  -16.7033 74.8097 2.2724
v  16.7033 74.8097 0.8551
v  16.7033 74.8097 2.2724
v  -0.0000 102.0949 2.2724
v  15.6233 75.4243 2.2724
v  -0.0000 98.5330 2.2724
v  12.4935 77.2052 2.2724
v  -15.6233 75.4243 2.2724
v  -12.4935 77.2052 2.2724
# 28 vertices

vn 0.0000 0.0000 -1.0000
vn -0.7071 0.0000 -0.7071
vn -1.0000 -0.0000 -0.0000
vn -0.7071 -0.0000 0.7071
vn -0.0000 -0.0000 1.0000
vn 0.7071 -0.0000 0.7071
vn 1.0000 0.0000 -0.0000
vn 0.7071 0.0000 -0.7071
vn 0.0000 1.0000 0.0000
vn 0.0000 -1.0000 -0.0000
vn -0.0000 -1.0000 -0.0000
vn -0.8629 0.5054 0.0000
vn 0.0000 -0.0000 1.0000
vn -0.0000 0.0000 -1.0000
vn 0.8629 0.5054 0.0000
vn 0.0000 0.0000 1.0000
# 16 vertex normals

vt 0.0249 0.8933 0.0000
vt 0.0127 0.8933 0.0000
vt 0.0127 0.9142 0.0000
vt 0.0249 0.9142 0.0000
vt 0.0083 0.8933 0.0000
vt 0.0083 0.9142 0.0000
vt 0.0292 0.8933 0.0000
vt 0.0292 0.9142 0.0000
vt 0.0111 0.9343 0.0000
vt 0.0304 0.9343 0.0000
vt 0.0304 0.9536 0.0000
vt 0.0111 0.9536 0.0000
vt 0.0093 0.9733 0.0000
vt 0.0286 0.9733 0.0000
vt 0.0286 0.9926 0.0000
vt 0.0093 0.9926 0.0000
vt 0.4459 0.9647 0.0000
vt 0.4652 0.9647 0.0000
vt 0.4652 0.9840 0.0000
vt 0.4459 0.9840 0.0000
vt 0.3279 0.3711 0.0000
vt 0.2400 0.2210 0.0000
vt 0.4158 0.2210 0.0000
# 23 texture coords

g SPW_Urban_Road_Sign_Danger
usemtl SPW_Urban_Road_Props_01
s off
f 1/1/1 2/2/1 3/3/1 4/4/1 
f 2/2/2 5/5/2 6/6/2 3/3/2 
f 5/5/3 7/5/3 8/6/3 6/6/3 
f 7/5/4 9/2/4 10/3/4 8/6/4 
f 9/2/5 11/1/5 12/4/5 10/3/5 
f 11/1/6 13/7/6 14/8/6 12/4/6 
f 13/7/7 15/7/7 16/8/7 14/8/7 
f 15/7/8 1/1/8 4/4/8 16/8/8 
f 16/8/9 4/4/9 3/3/9 6/6/9 
f 16/8/9 6/6/9 8/6/9 10/3/9 
f 16/8/9 10/3/9 12/4/9 14/8/9 
f 1/1/10 15/7/10 13/7/10 11/1/10 
f 1/1/10 11/1/10 9/2/10 7/5/10 
f 1/1/11 7/5/11 5/5/11 2/2/11 
f 17/9/12 18/10/12 19/11/12 20/12/12 
f 20/9/10 19/10/10 21/11/10 22/12/10 
s 3
f 22/13/13 17/14/13 23/15/13 24/16/13 
s off
f 19/9/14 18/10/14 21/11/14 
f 22/9/15 21/10/15 18/11/15 17/12/15 
s 1
f 24/17/13 23/18/13 25/19/13 26/20/13 
f 20/13/16 22/14/13 24/15/13 27/16/16 
s 2
f 17/13/13 20/14/13 27/15/16 23/16/13 
s 1
f 25/21/13 28/22/5 26/23/13 
f 27/17/16 24/18/13 26/19/13 28/20/5 
s 3
f 23/17/13 27/18/16 28/19/5 25/20/13 
# 23 polygons - 2 triangles

