# 3ds Max Wavefront OBJ Exporter v0.97b - (c)2007 guruware
# File Created: 15.03.2017 11:04:18

mtllib SPW_Urban_Road Sign_Highway_03.mtl

#
# object SPW_Urban_Road_Sign_Highway_03
#

v  113.2069 216.5753 2.0241
v  -113.2068 216.5753 2.0240
v  -113.2068 216.5753 6.1579
v  113.2069 216.5753 6.1579
v  -116.4459 214.9111 2.0240
v  -118.1101 211.6720 2.0240
v  -118.1101 211.6720 6.1579
v  -116.4459 214.9111 6.1579
v  -118.1102 103.3685 2.0240
v  -118.1102 103.3685 6.1579
v  -116.4459 100.1295 2.0240
v  -113.2068 98.4652 2.0240
v  -113.2068 98.4652 6.1579
v  -116.4459 100.1295 6.1579
v  113.2068 98.4652 2.0240
v  113.2068 98.4652 6.1579
v  116.4459 100.1295 2.0240
v  118.1102 103.3685 2.0240
v  118.1102 103.3685 6.1579
v  116.4459 100.1295 6.1579
v  118.1102 211.6721 2.0241
v  118.1102 211.6721 6.1579
v  116.4459 214.9111 2.0241
v  116.4459 214.9111 6.1579
v  -115.2581 101.2732 6.1579
v  -116.9054 104.4477 6.1579
v  116.9053 210.5929 6.1579
v  115.2581 213.7673 6.1579
v  112.0521 215.3985 6.1579
v  -112.0520 215.3985 6.1579
v  -115.2580 213.7674 6.1579
v  -116.9053 210.5929 6.1579
v  -112.0520 99.6421 6.1579
v  112.0520 99.6421 6.1579
v  115.2581 101.2732 6.1579
v  116.9054 104.4477 6.1579
v  -76.7396 -0.0025 -3.4205
v  -80.7405 -0.0025 -3.4205
v  -80.7405 177.2478 -3.4205
v  -76.7396 177.2478 -3.4205
v  -82.1605 -0.0025 -2.0005
v  -82.1605 177.2478 -2.0005
v  -82.1606 -0.0025 2.0005
v  -82.1606 177.2478 2.0005
v  -80.7405 -0.0025 3.4205
v  -80.7405 177.2478 3.4205
v  -76.7396 -0.0025 3.4205
v  -76.7396 177.2478 3.4205
v  -75.3196 -0.0025 2.0005
v  -75.3196 177.2478 2.0005
v  -75.3196 -0.0026 -2.0005
v  -75.3196 177.2478 -2.0005
v  80.7408 -0.0026 -3.4205
v  76.7398 -0.0025 -3.4205
v  76.7398 177.2478 -3.4205
v  80.7407 177.2478 -3.4205
v  75.3198 -0.0026 -2.0005
v  75.3198 177.2478 -2.0005
v  75.3198 -0.0025 2.0004
v  75.3198 177.2478 2.0005
v  76.7398 -0.0026 3.4204
v  76.7398 177.2478 3.4205
v  80.7407 -0.0025 3.4204
v  80.7407 177.2478 3.4205
v  82.1608 -0.0026 2.0004
v  82.1608 177.2478 2.0005
v  82.1608 -0.0025 -2.0005
v  82.1608 177.2478 -2.0005
# 68 vertices

vn 0.0000 1.0000 0.0000
vn -0.8895 0.4570 0.0000
vn -1.0000 0.0000 -0.0000
vn -0.4570 -0.8895 -0.0000
vn -0.0000 -1.0000 -0.0000
vn 0.8895 -0.4570 -0.0000
vn 1.0000 0.0000 0.0000
vn 0.4570 0.8895 0.0000
vn 0.0000 -0.0000 1.0000
vn 0.0000 0.0000 1.0000
vn -0.0000 0.0000 1.0000
vn -0.0000 -0.0000 1.0000
vn 0.0000 0.0000 -1.0000
vn 0.8895 0.4570 0.0000
vn 0.4570 -0.8895 -0.0000
vn -0.4570 0.8895 0.0000
vn -0.8895 -0.4570 -0.0000
vn -0.7071 0.0000 -0.7071
vn -0.7071 -0.0000 0.7071
vn 0.7071 -0.0000 0.7071
vn 1.0000 -0.0000 -0.0000
vn 0.7071 0.0000 -0.7071
vn 0.0000 1.0000 -0.0000
vn -0.0000 -1.0000 0.0000
vn 0.0000 -1.0000 0.0000
vn -1.0000 -0.0000 -0.0000
vn 1.0000 0.0000 -0.0000
vn 0.0000 -1.0000 -0.0000
# 28 vertex normals

vt 0.0120 0.9341 0.0000
vt 0.0278 0.9341 0.0000
vt 0.0278 0.9500 0.0000
vt 0.0120 0.9500 0.0000
vt 0.8468 0.8517 0.0000
vt 0.8626 0.8517 0.0000
vt 0.0199 0.9500 0.0000
vt 0.0238 0.9489 0.0000
vt 0.0268 0.9460 0.0000
vt 0.0278 0.9420 0.0000
vt 0.0268 0.9381 0.0000
vt 0.0238 0.9352 0.0000
vt 0.0199 0.9341 0.0000
vt 0.0159 0.9352 0.0000
vt 0.0130 0.9381 0.0000
vt 0.0120 0.9420 0.0000
vt 0.0130 0.9460 0.0000
vt 0.0159 0.9489 0.0000
vt 0.5779 0.7802 0.0000
vt 0.5750 0.7858 0.0000
vt 0.5694 0.7886 0.0000
vt 0.1729 0.7886 0.0000
vt 0.1673 0.7858 0.0000
vt 0.1644 0.7802 0.0000
vt 0.1644 0.5945 0.0000
vt 0.1673 0.5889 0.0000
vt 0.1729 0.5861 0.0000
vt 0.5694 0.5861 0.0000
vt 0.5750 0.5889 0.0000
vt 0.5779 0.5945 0.0000
vt 0.0157 0.9008 0.0000
vt 0.0257 0.9008 0.0000
vt 0.0257 0.9108 0.0000
vt 0.0157 0.9108 0.0000
vt 0.0207 0.9108 0.0000
vt 0.0243 0.9093 0.0000
vt 0.0257 0.9058 0.0000
vt 0.0243 0.9022 0.0000
vt 0.0207 0.9008 0.0000
vt 0.0172 0.9022 0.0000
vt 0.0157 0.9058 0.0000
vt 0.0172 0.9093 0.0000
# 42 texture coords

g SPW_Urban_Road_Sign_Highway_03
usemtl SPW_Urban_Road_Props_02
s off
f 1/1/1 2/2/1 3/3/1 4/4/1 
f 5/1/2 6/2/2 7/3/2 8/4/2 
f 6/1/3 9/2/3 10/3/3 7/4/3 
f 11/1/4 12/2/4 13/3/4 14/4/4 
f 12/1/5 15/2/5 16/3/5 13/4/5 
f 17/1/6 18/2/6 19/3/6 20/4/6 
f 18/1/7 21/2/7 22/3/7 19/4/7 
f 23/1/8 1/2/8 4/3/8 24/4/8 
s 1
f 10/5/9 14/6/10 25/6/11 26/5/12 
s off
f 1/7/13 23/8/13 21/9/13 18/10/13 
f 1/7/13 18/10/13 17/11/13 15/12/13 
f 1/7/13 15/12/13 12/13/13 11/14/13 
f 1/7/13 11/14/13 9/15/13 6/16/13 
f 1/7/13 6/16/13 5/17/13 2/18/13 
f 21/1/14 23/2/14 24/3/14 22/4/14 
f 15/1/15 17/2/15 20/3/15 16/4/15 
f 2/1/16 5/2/16 8/3/16 3/4/16 
f 9/1/17 11/2/17 14/3/17 10/4/17 
s 1
f 27/19/12 28/20/9 29/21/12 30/22/12 
f 27/19/12 30/22/12 31/23/12 32/24/12 
f 27/19/12 32/24/12 26/25/12 25/26/11 
f 27/19/12 25/26/11 33/27/11 34/28/9 
f 27/19/12 34/28/9 35/29/11 36/30/12 
f 3/5/11 8/6/9 31/6/12 30/5/12 
f 16/5/9 20/6/11 35/6/11 34/5/9 
f 22/5/12 24/6/12 28/6/9 27/5/12 
f 4/5/12 3/6/11 30/6/12 29/5/12 
f 8/5/9 7/6/9 32/6/12 31/5/12 
f 7/5/9 10/6/9 26/6/12 32/5/12 
f 14/5/10 13/6/12 33/6/11 25/5/11 
f 13/5/12 16/6/9 34/6/9 33/5/11 
f 20/5/11 19/6/9 36/6/12 35/5/11 
f 19/5/9 22/6/12 27/6/12 36/5/12 
f 24/5/12 4/6/12 29/6/12 28/5/9 
s off
f 37/31/13 38/32/13 39/33/13 40/34/13 
f 38/31/18 41/32/18 42/33/18 39/34/18 
f 41/31/3 43/32/3 44/33/3 42/34/3 
f 43/31/19 45/32/19 46/33/19 44/34/19 
f 45/31/12 47/32/12 48/33/12 46/34/12 
f 47/31/20 49/32/20 50/33/20 48/34/20 
f 49/31/21 51/32/21 52/33/21 50/34/21 
f 51/31/22 37/32/22 40/33/22 52/34/22 
f 52/35/1 40/36/1 39/37/1 42/38/1 
f 52/35/23 42/38/23 44/39/23 46/40/23 
f 52/35/1 46/40/1 48/41/1 50/42/1 
f 37/35/24 51/36/24 49/37/24 47/38/24 
f 37/35/25 47/38/25 45/39/25 43/40/25 
f 37/35/5 43/40/5 41/41/5 38/42/5 
f 53/31/13 54/32/13 55/33/13 56/34/13 
f 54/31/18 57/32/18 58/33/18 55/34/18 
f 57/31/26 59/32/26 60/33/26 58/34/26 
f 59/31/19 61/32/19 62/33/19 60/34/19 
f 61/31/12 63/32/12 64/33/12 62/34/12 
f 63/31/20 65/32/20 66/33/20 64/34/20 
f 65/31/27 67/32/27 68/33/27 66/34/27 
f 67/31/22 53/32/22 56/33/22 68/34/22 
f 68/35/23 56/36/23 55/37/23 58/38/23 
f 68/35/1 58/38/1 60/39/1 62/40/1 
f 68/35/1 62/40/1 64/41/1 66/42/1 
f 53/35/24 67/36/24 65/37/24 63/38/24 
f 53/35/28 63/38/28 61/39/28 59/40/28 
f 53/35/5 59/40/5 57/41/5 54/42/5 
# 62 polygons

