# 3ds Max Wavefront OBJ Exporter v0.97b - (c)2007 guruware
# File Created: 15.03.2017 11:02:25

mtllib SPW_Urban_Road Sign_Ahead Only.mtl

#
# object SPW_Urban_Road_Sign_Ahead_Only
#

v  -0.0001 100.3745 0.9194
v  -0.0001 100.3745 2.2974
v  5.2731 99.3256 2.2974
v  5.2731 99.3256 0.9194
v  9.7435 96.3386 2.2974
v  9.7435 96.3386 0.9194
v  12.7306 91.8682 2.2974
v  12.7306 91.8682 0.9194
v  13.7795 86.5950 2.2974
v  13.7795 86.5950 0.9194
v  12.7306 81.3218 2.2974
v  12.7306 81.3218 0.9194
v  9.7435 76.8514 2.2974
v  9.7435 76.8514 0.9194
v  5.2731 73.8644 2.2974
v  5.2731 73.8644 0.9194
v  -0.0001 72.8155 2.2974
v  -0.0001 72.8155 0.9194
v  -5.2733 73.8644 2.2974
v  -5.2733 73.8644 0.9194
v  -9.7437 76.8514 2.2974
v  -9.7437 76.8514 0.9194
v  -12.7307 81.3218 2.2974
v  -12.7307 81.3218 0.9194
v  -13.7796 86.5950 2.2974
v  -13.7796 86.5950 0.9194
v  -12.7307 91.8682 2.2974
v  -12.7307 91.8682 0.9194
v  -9.7437 96.3386 2.2974
v  -9.7437 96.3386 0.9194
v  -4.6144 75.4551 2.2974
v  -8.5262 78.0689 2.2974
v  -5.2733 99.3256 0.9194
v  -5.2733 99.3256 2.2974
v  4.6142 97.7349 2.2974
v  -0.0001 98.6527 2.2974
v  -4.6144 97.7349 2.2974
v  -8.5262 95.1211 2.2974
v  -11.1400 91.2093 2.2974
v  -12.0578 86.5950 2.2974
v  -11.1400 81.9807 2.2974
v  -0.0001 74.5372 2.2974
v  4.6142 75.4551 2.2974
v  8.5261 78.0689 2.2974
v  11.1398 81.9807 2.2974
v  12.0577 86.5950 2.2974
v  11.1398 91.2093 2.2974
v  8.5261 95.1211 2.2974
v  0.8131 -0.0000 -1.3903
v  -0.8131 -0.0000 -1.3903
v  -0.8131 86.6481 -1.3903
v  0.8131 86.6481 -1.3903
v  -1.3903 -0.0000 -0.8131
v  -1.3903 86.6481 -0.8131
v  -1.3903 -0.0000 0.8131
v  -1.3903 86.6481 0.8131
v  -0.8131 -0.0000 1.3903
v  -0.8131 86.6481 1.3903
v  0.8131 -0.0000 1.3903
v  0.8131 86.6481 1.3903
v  1.3903 -0.0000 0.8131
v  1.3903 86.6481 0.8131
v  1.3903 -0.0000 -0.8131
v  1.3903 86.6481 -0.8131
# 64 vertices

vn 0.1951 0.9808 0.0000
vn 0.5556 0.8315 0.0000
vn 0.8315 0.5556 0.0000
vn 0.9808 0.1951 0.0000
vn 0.9808 -0.1951 -0.0000
vn 0.8315 -0.5556 0.0000
vn 0.5556 -0.8315 -0.0000
vn 0.1951 -0.9808 -0.0000
vn -0.1951 -0.9808 -0.0000
vn -0.5556 -0.8315 -0.0000
vn -0.8315 -0.5556 -0.0000
vn -0.9808 -0.1951 -0.0000
vn -0.9808 0.1951 0.0000
vn -0.8315 0.5556 -0.0000
vn 0.0000 0.0000 1.0000
vn 0.0000 -0.0000 1.0000
vn -0.1951 0.9808 0.0000
vn -0.5556 0.8315 0.0000
vn -0.0000 -0.0000 -1.0000
vn -0.0000 0.0000 -1.0000
vn 0.0000 0.0000 -1.0000
vn -0.0000 -0.0000 1.0000
vn -0.7071 0.0000 -0.7071
vn -1.0000 -0.0000 -0.0000
vn -0.7071 -0.0000 0.7071
vn 0.7071 -0.0000 0.7071
vn 1.0000 0.0000 -0.0000
vn 0.7071 0.0000 -0.7071
vn 0.0000 1.0000 0.0000
vn 0.0000 -1.0000 -0.0000
vn -0.0000 -1.0000 -0.0000
# 31 vertex normals

vt 0.0163 0.9416 0.0000
vt 0.0263 0.9416 0.0000
vt 0.0263 0.9516 0.0000
vt 0.0163 0.9516 0.0000
vt 0.0179 0.9850 0.0000
vt 0.0179 0.9750 0.0000
vt 0.0213 0.9516 0.0000
vt 0.0232 0.9512 0.0000
vt 0.0248 0.9501 0.0000
vt 0.0259 0.9485 0.0000
vt 0.0263 0.9466 0.0000
vt 0.0259 0.9447 0.0000
vt 0.0248 0.9430 0.0000
vt 0.0232 0.9419 0.0000
vt 0.0213 0.9416 0.0000
vt 0.0194 0.9419 0.0000
vt 0.0177 0.9430 0.0000
vt 0.0167 0.9447 0.0000
vt 0.0163 0.9466 0.0000
vt 0.0167 0.9485 0.0000
vt 0.0177 0.9501 0.0000
vt 0.0194 0.9512 0.0000
vt 0.9378 0.3731 0.0000
vt 0.9023 0.3801 0.0000
vt 0.8667 0.3731 0.0000
vt 0.8366 0.3529 0.0000
vt 0.8165 0.3228 0.0000
vt 0.8094 0.2872 0.0000
vt 0.8165 0.2517 0.0000
vt 0.8366 0.2215 0.0000
vt 0.8667 0.2014 0.0000
vt 0.9023 0.1943 0.0000
vt 0.9378 0.2014 0.0000
vt 0.9680 0.2215 0.0000
vt 0.9881 0.2517 0.0000
vt 0.9952 0.2872 0.0000
vt 0.9881 0.3228 0.0000
vt 0.9680 0.3529 0.0000
vt 0.0126 0.8983 0.0000
vt 0.0226 0.8983 0.0000
vt 0.0226 0.9083 0.0000
vt 0.0126 0.9083 0.0000
vt 0.0176 0.9083 0.0000
vt 0.0211 0.9068 0.0000
vt 0.0226 0.9033 0.0000
vt 0.0211 0.8997 0.0000
vt 0.0176 0.8983 0.0000
vt 0.0140 0.8997 0.0000
vt 0.0126 0.9033 0.0000
vt 0.0140 0.9068 0.0000
# 50 texture coords

g SPW_Urban_Road_Sign_Ahead_Only
usemtl SPW_Urban_Road_Props_01
s off
f 1/1/1 2/2/1 3/3/1 4/4/1 
f 4/1/2 3/2/2 5/3/2 6/4/2 
f 6/1/3 5/2/3 7/3/3 8/4/3 
f 8/1/4 7/2/4 9/3/4 10/4/4 
f 10/1/5 9/2/5 11/3/5 12/4/5 
f 12/1/6 11/2/6 13/3/6 14/4/6 
f 14/1/7 13/2/7 15/3/7 16/4/7 
f 16/1/8 15/2/8 17/3/8 18/4/8 
f 18/1/9 17/2/9 19/3/9 20/4/9 
f 20/1/10 19/2/10 21/3/10 22/4/10 
f 22/1/11 21/2/11 23/3/11 24/4/11 
f 24/1/12 23/2/12 25/3/12 26/4/12 
f 26/1/13 25/2/13 27/3/13 28/4/13 
f 28/1/14 27/2/14 29/3/14 30/4/14 
s 1
f 21/5/15 19/6/15 31/6/15 32/5/16 
s off
f 33/1/17 34/2/17 2/3/17 1/4/17 
f 30/1/18 29/2/18 34/3/18 33/4/18 
f 1/7/19 4/8/19 6/9/19 8/10/19 
f 1/7/20 8/10/20 10/11/20 12/12/20 
f 1/7/20 12/12/20 14/13/20 16/14/20 
f 1/7/20 16/14/20 18/15/20 20/16/20 
f 1/7/21 20/16/21 22/17/21 24/18/21 
f 1/7/20 24/18/20 26/19/20 28/20/20 
f 1/7/20 28/20/20 30/21/20 33/22/20 
s 1
f 35/23/15 36/24/15 37/25/15 38/26/16 
f 35/23/15 38/26/16 39/27/16 40/28/15 
f 35/23/15 40/28/15 41/29/22 32/30/16 
f 35/23/15 32/30/16 31/31/15 42/32/16 
f 35/23/15 42/32/16 43/33/16 44/34/16 
f 35/23/15 44/34/16 45/35/22 46/36/16 
f 35/23/15 46/36/16 47/37/22 48/38/16 
f 5/5/22 3/6/15 35/6/15 48/5/16 
f 27/5/16 25/6/16 40/6/15 39/5/16 
f 11/5/22 9/6/16 46/6/16 45/5/22 
f 2/5/15 34/6/15 37/6/15 36/5/15 
f 3/5/15 2/6/15 36/6/15 35/5/15 
f 17/5/16 15/6/16 43/6/16 42/5/16 
f 23/5/22 21/6/15 32/6/16 41/5/22 
f 7/5/22 5/6/22 48/6/16 47/5/22 
f 29/5/16 27/6/16 39/6/16 38/5/16 
f 13/5/16 11/6/22 45/6/22 44/5/16 
f 19/5/15 17/6/16 42/6/16 31/5/15 
f 25/5/16 23/6/22 41/6/22 40/5/15 
f 9/5/16 7/6/22 47/6/22 46/5/16 
f 34/5/15 29/6/16 38/6/16 37/5/15 
f 15/5/16 13/6/16 44/6/16 43/5/16 
s off
f 49/39/21 50/40/21 51/41/21 52/42/21 
f 50/39/23 53/40/23 54/41/23 51/42/23 
f 53/39/24 55/40/24 56/41/24 54/42/24 
f 55/39/25 57/40/25 58/41/25 56/42/25 
f 57/39/22 59/40/22 60/41/22 58/42/22 
f 59/39/26 61/40/26 62/41/26 60/42/26 
f 61/39/27 63/40/27 64/41/27 62/42/27 
f 63/39/28 49/40/28 52/41/28 64/42/28 
f 64/43/29 52/44/29 51/45/29 54/46/29 
f 64/43/29 54/46/29 56/47/29 58/48/29 
f 64/43/29 58/48/29 60/49/29 62/50/29 
f 49/43/30 63/44/30 61/45/30 59/46/30 
f 49/43/30 59/46/30 57/47/30 55/48/30 
f 49/43/31 55/48/31 53/49/31 50/50/31 
# 60 polygons

