# 3ds Max Wavefront OBJ Exporter v0.97b - (c)2007 guruware
# File Created: 15.03.2017 11:06:36

mtllib SPW_Urban_Road Sign_Speed Limit 50.mtl

#
# object SPW_Urban_Road_Sign_Speed_Limit_50
#

v  0.8131 0.0005 -1.3903
v  -0.8131 0.0005 -1.3903
v  -0.8131 86.6486 -1.3903
v  0.8131 86.6486 -1.3903
v  -1.3903 0.0005 -0.8131
v  -1.3903 86.6486 -0.8131
v  -1.3903 0.0005 0.8131
v  -1.3903 86.6486 0.8131
v  -0.8131 0.0005 1.3903
v  -0.8131 86.6486 1.3903
v  0.8131 0.0005 1.3903
v  0.8131 86.6486 1.3903
v  1.3903 0.0005 0.8131
v  1.3903 86.6486 0.8131
v  1.3903 0.0005 -0.8131
v  1.3903 86.6486 -0.8131
v  0.0001 100.3750 0.9195
v  0.0001 100.3750 2.2974
v  5.2733 99.3261 2.2974
v  5.2733 99.3261 0.9195
v  9.7437 96.3391 2.2974
v  9.7437 96.3391 0.9195
v  12.7307 91.8687 2.2974
v  12.7307 91.8687 0.9195
v  13.7796 86.5955 2.2974
v  13.7796 86.5955 0.9195
v  12.7307 81.3223 2.2974
v  12.7307 81.3223 0.9195
v  9.7437 76.8519 2.2974
v  9.7437 76.8519 0.9195
v  5.2733 73.8649 2.2974
v  5.2733 73.8649 0.9195
v  0.0001 72.8160 2.2974
v  0.0001 72.8160 0.9195
v  -5.2731 73.8649 2.2974
v  -5.2731 73.8649 0.9195
v  -9.7435 76.8519 2.2974
v  -9.7435 76.8519 0.9195
v  -12.7305 81.3223 2.2974
v  -12.7305 81.3223 0.9195
v  -13.7794 86.5955 2.2974
v  -13.7794 86.5955 0.9195
v  -12.7305 91.8687 2.2974
v  -12.7305 91.8687 0.9195
v  -9.7435 96.3391 2.2974
v  -9.7435 96.3391 0.9195
v  -4.4623 75.8223 2.2974
v  -8.2454 78.3500 2.2974
v  -5.2731 99.3261 0.9195
v  -5.2731 99.3261 2.2974
v  4.4625 97.3687 2.2974
v  0.0001 98.2564 2.2974
v  -4.4623 97.3687 2.2974
v  -8.2454 94.8410 2.2974
v  -10.7731 91.0579 2.2974
v  -11.6608 86.5955 2.2974
v  -10.7731 82.1331 2.2974
v  0.0001 74.9346 2.2974
v  4.4625 75.8223 2.2974
v  8.2456 78.3500 2.2974
v  10.7733 82.1331 2.2974
v  11.6610 86.5955 2.2974
v  10.7733 91.0579 2.2974
v  8.2456 94.8410 2.2974
# 64 vertices

vn 0.0000 0.0000 -1.0000
vn -0.7071 0.0000 -0.7071
vn -1.0000 -0.0000 -0.0000
vn -0.7071 -0.0000 0.7071
vn -0.0000 -0.0000 1.0000
vn 0.7071 -0.0000 0.7071
vn 1.0000 0.0000 -0.0000
vn 0.7071 0.0000 -0.7071
vn 0.0000 1.0000 0.0000
vn 0.0000 -1.0000 -0.0000
vn -0.0000 -1.0000 -0.0000
vn 0.1951 0.9808 0.0000
vn 0.5556 0.8315 0.0000
vn 0.8315 0.5556 0.0000
vn 0.9808 0.1951 0.0000
vn 0.9808 -0.1951 -0.0000
vn 0.8315 -0.5556 0.0000
vn 0.5556 -0.8315 -0.0000
vn 0.1951 -0.9808 -0.0000
vn -0.1951 -0.9808 -0.0000
vn -0.5556 -0.8315 -0.0000
vn -0.8315 -0.5556 0.0000
vn -0.9808 -0.1951 0.0000
vn -0.9808 0.1951 0.0000
vn -0.8315 0.5556 -0.0000
vn 0.0000 0.0000 1.0000
vn -0.1951 0.9808 0.0000
vn -0.5556 0.8315 0.0000
vn -0.0000 -0.0000 -1.0000
vn -0.0000 0.0000 -1.0000
vn 0.0000 -0.0000 1.0000
# 31 vertex normals

vt 0.0126 0.8983 0.0000
vt 0.0226 0.8983 0.0000
vt 0.0226 0.9083 0.0000
vt 0.0126 0.9083 0.0000
vt 0.0176 0.9083 0.0000
vt 0.0211 0.9068 0.0000
vt 0.0226 0.9033 0.0000
vt 0.0211 0.8997 0.0000
vt 0.0176 0.8983 0.0000
vt 0.0140 0.8997 0.0000
vt 0.0126 0.9033 0.0000
vt 0.0140 0.9068 0.0000
vt 0.4381 0.9725 0.0000
vt 0.4481 0.9725 0.0000
vt 0.4481 0.9825 0.0000
vt 0.4381 0.9825 0.0000
vt 0.5557 0.9862 0.0000
vt 0.5557 0.9762 0.0000
vt 0.0213 0.9516 0.0000
vt 0.0232 0.9512 0.0000
vt 0.0248 0.9501 0.0000
vt 0.0259 0.9485 0.0000
vt 0.0263 0.9466 0.0000
vt 0.0259 0.9447 0.0000
vt 0.0248 0.9430 0.0000
vt 0.0232 0.9419 0.0000
vt 0.0213 0.9416 0.0000
vt 0.0194 0.9419 0.0000
vt 0.0177 0.9430 0.0000
vt 0.0167 0.9447 0.0000
vt 0.0163 0.9466 0.0000
vt 0.0167 0.9485 0.0000
vt 0.0177 0.9501 0.0000
vt 0.0194 0.9512 0.0000
vt 0.7467 0.1822 0.0000
vt 0.7112 0.1893 0.0000
vt 0.6756 0.1822 0.0000
vt 0.6455 0.1621 0.0000
vt 0.6253 0.1319 0.0000
vt 0.6183 0.0964 0.0000
vt 0.6253 0.0608 0.0000
vt 0.6455 0.0307 0.0000
vt 0.6756 0.0106 0.0000
vt 0.7112 0.0035 0.0000
vt 0.7467 0.0106 0.0000
vt 0.7769 0.0307 0.0000
vt 0.7970 0.0608 0.0000
vt 0.8041 0.0964 0.0000
vt 0.7970 0.1319 0.0000
vt 0.7769 0.1621 0.0000
# 50 texture coords

g SPW_Urban_Road_Sign_Speed_Limit_50
usemtl SPW_Urban_Road_Props_01
s off
f 1/1/1 2/2/1 3/3/1 4/4/1 
f 2/1/2 5/2/2 6/3/2 3/4/2 
f 5/1/3 7/2/3 8/3/3 6/4/3 
f 7/1/4 9/2/4 10/3/4 8/4/4 
f 9/1/5 11/2/5 12/3/5 10/4/5 
f 11/1/6 13/2/6 14/3/6 12/4/6 
f 13/1/7 15/2/7 16/3/7 14/4/7 
f 15/1/8 1/2/8 4/3/8 16/4/8 
f 16/5/9 4/6/9 3/7/9 6/8/9 
f 16/5/9 6/8/9 8/9/9 10/10/9 
f 16/5/9 10/10/9 12/11/9 14/12/9 
f 1/5/10 15/6/10 13/7/10 11/8/10 
f 1/5/11 11/8/11 9/9/11 7/10/11 
f 1/5/10 7/10/10 5/11/10 2/12/10 
f 17/13/12 18/14/12 19/15/12 20/16/12 
f 20/13/13 19/14/13 21/15/13 22/16/13 
f 22/13/14 21/14/14 23/15/14 24/16/14 
f 24/13/15 23/14/15 25/15/15 26/16/15 
f 26/13/16 25/14/16 27/15/16 28/16/16 
f 28/13/17 27/14/17 29/15/17 30/16/17 
f 30/13/18 29/14/18 31/15/18 32/16/18 
f 32/13/19 31/14/19 33/15/19 34/16/19 
f 34/13/20 33/14/20 35/15/20 36/16/20 
f 36/13/21 35/14/21 37/15/21 38/16/21 
f 38/13/22 37/14/22 39/15/22 40/16/22 
f 40/13/23 39/14/23 41/15/23 42/16/23 
f 42/13/24 41/14/24 43/15/24 44/16/24 
f 44/13/25 43/14/25 45/15/25 46/16/25 
s 1
f 37/17/26 35/18/26 47/18/26 48/17/26 
s off
f 49/13/27 50/14/27 18/15/27 17/16/27 
f 46/13/28 45/14/28 50/15/28 49/16/28 
f 17/19/29 20/20/29 22/21/29 24/22/29 
f 17/19/30 24/22/30 26/23/30 28/24/30 
f 17/19/30 28/24/30 30/25/30 32/26/30 
f 17/19/30 32/26/30 34/27/30 36/28/30 
f 17/19/1 36/28/1 38/29/1 40/30/1 
f 17/19/30 40/30/30 42/31/30 44/32/30 
f 17/19/30 44/32/30 46/33/30 49/34/30 
s 1
f 51/35/26 52/36/31 53/37/31 54/38/31 
f 51/35/26 54/38/31 55/39/31 56/40/5 
f 51/35/26 56/40/5 57/41/5 48/42/26 
f 51/35/26 48/42/26 47/43/26 58/44/31 
f 51/35/26 58/44/31 59/45/31 60/46/31 
f 51/35/26 60/46/31 61/47/31 62/48/31 
f 51/35/26 62/48/31 63/49/31 64/50/26 
f 21/17/26 19/18/26 51/18/26 64/17/26 
f 43/17/31 41/18/5 56/18/5 55/17/31 
f 27/17/31 25/18/31 62/18/31 61/17/31 
f 18/17/31 50/18/31 53/18/31 52/17/31 
f 19/17/26 18/18/31 52/18/31 51/17/26 
f 33/17/31 31/18/31 59/18/31 58/17/31 
f 39/17/5 37/18/26 48/18/26 57/17/5 
f 23/17/31 21/18/26 64/18/26 63/17/31 
f 45/17/31 43/18/31 55/18/31 54/17/31 
f 29/17/31 27/18/31 61/18/31 60/17/31 
f 35/17/26 33/18/31 58/18/31 47/17/26 
f 41/17/5 39/18/5 57/18/5 56/17/5 
f 25/17/31 23/18/31 63/18/31 62/17/31 
f 50/17/31 45/18/31 54/18/31 53/17/31 
f 31/17/31 29/18/31 60/18/31 59/17/31 
# 60 polygons

