# 3ds Max Wavefront OBJ Exporter v0.97b - (c)2007 guruware
# File Created: 15.03.2017 10:24:50

mtllib SPW_Terrain_Grass_Flat.mtl

#
# object SPW_Terrain_Grass_Flat
#

v  -393.7008 -0.0000 393.7008
v  393.7008 -0.0000 393.7008
v  393.7008 0.0000 -393.7008
v  -393.7008 0.0000 -393.7008
# 4 vertices

vn 0.0000 1.0000 0.0000
# 1 vertex normals

vt 0.8750 0.0503 0.0000
vt 0.9249 0.0503 0.0000
vt 0.9249 0.1002 0.0000
vt 0.8750 0.1002 0.0000
# 4 texture coords

g SPW_Terrain_Grass_Flat
usemtl SPW_Natures_02
s off
f 1/1/1 2/2/1 3/3/1 4/4/1 
# 1 polygons

