# 3ds Max Wavefront OBJ Exporter v0.97b - (c)2007 guruware
# File Created: 15.03.2017 11:41:14

mtllib SPW_Urban_Bridge_RailRoadBridge_01.mtl

#
# object SPW_Urban_Bridge_RailRoadBridge_01
#

v  -393.7008 564.0861 -52.1654
v  -393.7008 562.0782 -52.1654
v  -393.7008 562.0782 -50.1969
v  -393.7008 562.9616 -50.1969
v  -393.7008 564.0861 -58.0709
v  -393.7008 562.0782 -58.0709
v  393.7008 562.0782 -58.0708
v  -393.7008 562.0782 -60.0394
v  393.7008 562.0782 -60.0393
v  393.7008 564.0861 -58.0708
v  393.7008 564.0861 -52.1653
v  393.7008 562.0782 -52.1653
v  393.7008 573.8892 -58.0708
v  -393.7008 573.8892 -58.0709
v  -393.7008 573.8892 -52.1654
v  393.7008 573.8892 -52.1653
v  393.7008 570.2913 -52.1653
v  393.7008 570.2913 -58.0708
v  -393.7008 570.2913 -58.0709
v  -393.7008 570.2913 -52.1654
v  -393.7008 570.2913 -50.1969
v  -393.7008 573.8892 -50.1969
v  -393.7008 570.2913 -60.0394
v  393.7008 570.2913 -60.0393
v  -393.7008 573.8892 -60.0394
v  393.7008 573.8892 -60.0393
v  393.7008 573.8892 -50.1968
v  393.7008 570.2913 -50.1968
v  -393.7008 562.9616 -60.0394
v  393.7008 562.9616 -60.0393
v  393.7008 562.9616 -50.1968
v  393.7008 562.0782 -50.1968
v  342.5197 562.0802 70.8662
v  326.7717 562.0802 70.8662
v  326.7717 558.7859 70.8662
v  342.5197 558.7859 70.8662
v  326.7717 562.0802 -70.8661
v  326.7717 558.7859 -70.8661
v  342.5197 562.0802 -70.8661
v  342.5197 558.7859 -70.8661
v  303.1496 562.0802 70.8662
v  287.4016 562.0802 70.8662
v  287.4016 558.7859 70.8662
v  303.1496 558.7859 70.8662
v  287.4016 562.0802 -70.8661
v  287.4016 558.7859 -70.8661
v  303.1496 562.0802 -70.8661
v  303.1496 558.7859 -70.8661
v  263.7795 562.0802 70.8662
v  248.0315 562.0802 70.8662
v  248.0315 558.7859 70.8662
v  263.7795 558.7859 70.8662
v  248.0315 562.0802 -70.8661
v  248.0315 558.7859 -70.8661
v  263.7795 562.0802 -70.8661
v  263.7795 558.7859 -70.8661
v  224.4094 562.0802 70.8662
v  208.6614 562.0802 70.8662
v  208.6614 558.7859 70.8662
v  224.4094 558.7859 70.8662
v  208.6614 562.0802 -70.8661
v  208.6614 558.7859 -70.8661
v  224.4094 562.0802 -70.8661
v  224.4094 558.7859 -70.8661
v  185.0394 562.0802 70.8662
v  169.2914 562.0802 70.8662
v  169.2914 558.7859 70.8662
v  185.0394 558.7859 70.8662
v  169.2914 562.0802 -70.8661
v  169.2914 558.7859 -70.8661
v  185.0394 562.0802 -70.8661
v  185.0394 558.7859 -70.8661
v  145.6693 562.0802 70.8662
v  129.9212 562.0802 70.8662
v  129.9212 558.7859 70.8662
v  145.6693 558.7859 70.8662
v  129.9213 562.0802 -70.8661
v  129.9213 558.7859 -70.8661
v  145.6693 562.0802 -70.8661
v  145.6693 558.7859 -70.8661
v  106.2992 562.0802 70.8662
v  90.5512 562.0802 70.8661
v  90.5512 558.7859 70.8661
v  106.2992 558.7859 70.8662
v  90.5512 562.0802 -70.8661
v  90.5512 558.7859 -70.8661
v  106.2992 562.0802 -70.8661
v  106.2992 558.7859 -70.8661
v  66.9291 562.0802 70.8661
v  51.1811 562.0802 70.8661
v  51.1811 558.7859 70.8661
v  66.9291 558.7859 70.8661
v  51.1811 562.0802 -70.8661
v  51.1811 558.7859 -70.8661
v  66.9291 562.0802 -70.8661
v  66.9291 558.7859 -70.8661
v  27.5590 562.0802 70.8661
v  11.8110 562.0802 70.8661
v  11.8110 558.7859 70.8661
v  27.5590 558.7859 70.8661
v  11.8110 562.0802 -70.8661
v  11.8110 558.7859 -70.8661
v  27.5591 562.0802 -70.8661
v  27.5591 558.7859 -70.8661
v  -366.1418 562.0802 70.8661
v  -381.8898 562.0802 70.8661
v  -381.8898 558.7859 70.8661
v  -366.1418 558.7859 70.8661
v  -381.8898 562.0802 -70.8662
v  -381.8898 558.7859 -70.8662
v  -366.1418 562.0802 -70.8662
v  -366.1418 558.7859 -70.8662
v  -326.7717 562.0802 70.8661
v  -342.5197 562.0802 70.8661
v  -342.5197 558.7859 70.8661
v  -326.7717 558.7859 70.8661
v  -342.5197 562.0802 -70.8662
v  -342.5197 558.7859 -70.8662
v  -326.7717 562.0802 -70.8662
v  -326.7717 558.7859 -70.8662
v  -287.4016 562.0802 70.8661
v  -303.1496 562.0802 70.8661
v  -303.1496 558.7859 70.8661
v  -287.4016 558.7859 70.8661
v  -303.1496 562.0802 -70.8662
v  -303.1496 558.7859 -70.8662
v  -287.4016 562.0802 -70.8662
v  -287.4016 558.7859 -70.8662
v  -248.0315 562.0802 70.8661
v  -263.7795 562.0802 70.8661
v  -263.7795 558.7859 70.8661
v  -248.0315 558.7859 70.8661
v  -263.7795 562.0802 -70.8662
v  -263.7795 558.7859 -70.8662
v  -248.0315 562.0802 -70.8662
v  -248.0315 558.7859 -70.8662
v  -208.6614 562.0802 70.8661
v  -224.4094 562.0802 70.8661
v  -224.4094 558.7859 70.8661
v  -208.6614 558.7859 70.8661
v  -224.4094 562.0802 -70.8662
v  -224.4094 558.7859 -70.8662
v  -208.6614 562.0802 -70.8662
v  -208.6614 558.7859 -70.8662
v  -169.2914 562.0802 70.8661
v  -185.0394 562.0802 70.8661
v  -185.0394 558.7859 70.8661
v  -169.2914 558.7859 70.8661
v  -185.0394 562.0802 -70.8662
v  -185.0394 558.7859 -70.8662
v  -169.2914 562.0802 -70.8662
v  -169.2914 558.7859 -70.8662
v  -129.9213 562.0802 70.8661
v  -145.6693 562.0802 70.8661
v  -145.6693 558.7859 70.8661
v  -129.9213 558.7859 70.8661
v  -145.6693 562.0802 -70.8662
v  -145.6693 558.7859 -70.8662
v  -129.9212 562.0802 -70.8662
v  -129.9212 558.7859 -70.8662
v  -90.5512 562.0802 70.8661
v  -106.2992 562.0802 70.8661
v  -106.2992 558.7859 70.8661
v  -90.5512 558.7859 70.8661
v  -106.2992 562.0802 -70.8662
v  -106.2992 558.7859 -70.8662
v  -90.5512 562.0802 -70.8661
v  -90.5512 558.7859 -70.8661
v  -51.1811 562.0802 70.8661
v  -66.9291 562.0802 70.8661
v  -66.9291 558.7859 70.8661
v  -51.1811 558.7859 70.8661
v  -66.9291 562.0802 -70.8661
v  -66.9291 558.7859 -70.8661
v  -51.1811 562.0802 -70.8661
v  -51.1811 558.7859 -70.8661
v  -11.8110 562.0802 70.8661
v  -27.5591 562.0802 70.8661
v  -27.5591 558.7859 70.8661
v  -11.8110 558.7859 70.8661
v  -27.5590 562.0802 -70.8661
v  -27.5590 558.7859 -70.8661
v  -11.8110 562.0802 -70.8661
v  -11.8110 558.7859 -70.8661
v  -393.7008 564.0861 58.0708
v  -393.7008 562.0781 58.0708
v  -393.7008 562.0781 60.0393
v  -393.7008 562.9616 60.0393
v  -393.7008 564.0861 52.1653
v  -393.7008 562.0781 52.1653
v  393.7008 562.0781 52.1654
v  -393.7008 562.0781 50.1968
v  393.7008 562.0781 50.1969
v  393.7008 564.0861 52.1654
v  393.7008 564.0861 58.0709
v  393.7008 562.0781 58.0709
v  393.7008 573.8892 52.1654
v  -393.7008 573.8892 52.1653
v  -393.7008 573.8892 58.0708
v  393.7008 573.8892 58.0709
v  393.7008 570.2913 58.0709
v  393.7008 570.2913 52.1654
v  -393.7008 570.2913 52.1653
v  -393.7008 570.2913 58.0708
v  -393.7008 570.2913 60.0393
v  -393.7008 573.8892 60.0393
v  -393.7008 570.2913 50.1968
v  393.7008 570.2913 50.1969
v  -393.7008 573.8892 50.1968
v  393.7008 573.8892 50.1969
v  393.7008 573.8892 60.0394
v  393.7008 570.2913 60.0394
v  -393.7008 562.9616 50.1968
v  393.7008 562.9616 50.1969
v  393.7008 562.9616 60.0394
v  393.7008 562.0781 60.0394
v  381.8898 562.0802 70.8662
v  366.1418 562.0802 70.8662
v  366.1418 558.7859 70.8662
v  381.8898 558.7859 70.8662
v  366.1418 562.0802 -70.8661
v  366.1418 558.7859 -70.8661
v  381.8898 562.0802 -70.8661
v  381.8898 558.7859 -70.8661
v  -393.7007 595.1682 137.7953
v  -393.7007 595.1682 118.1103
v  -393.7007 518.3966 118.1102
v  -393.7007 518.3966 137.7953
v  393.7008 595.1682 118.1103
v  393.7008 518.3966 118.1102
v  393.7008 595.1682 137.7953
v  393.7008 518.3966 137.7953
v  -393.7007 561.0237 118.1102
v  -393.7008 561.0237 -118.1102
v  -393.7008 492.1261 -118.1102
v  -393.7007 492.1260 118.1102
v  393.7008 561.0237 -118.1102
v  393.7008 492.1261 -118.1102
v  393.7008 561.0237 118.1102
v  393.7008 492.1260 118.1102
v  393.7008 472.4410 -87.3017
v  -393.7008 472.4410 -87.3017
v  -393.7008 472.4410 87.3017
v  393.7008 472.4410 87.3017
v  -393.7008 595.1682 -118.1102
v  -393.7008 595.1682 -137.7953
v  -393.7008 518.3966 -137.7953
v  -393.7008 518.3966 -118.1102
v  393.7008 595.1682 -137.7953
v  393.7008 518.3966 -137.7953
v  393.7008 595.1682 -118.1102
v  393.7008 518.3966 -118.1102
# 252 vertices

vn -1.0000 0.0000 -0.0000
vn 0.0000 -1.0000 -0.0000
vn 1.0000 0.0000 -0.0000
vn 0.0000 1.0000 0.0000
vn 0.0000 0.0000 -1.0000
vn -0.0000 -0.0000 1.0000
vn 0.0000 0.8683 -0.4960
vn -0.0000 0.8683 0.4960
vn -0.0000 -1.0000 -0.0000
vn 0.0000 -0.0000 1.0000
vn 1.0000 -0.0000 0.0000
vn -1.0000 -0.0000 0.0000
vn 0.0000 -0.8427 -0.5384
vn 0.0000 -0.8427 0.5384
vn 1.0000 0.0000 0.0000
vn -1.0000 0.0000 0.0000
# 16 vertex normals

vt 0.4772 0.2853 0.0000
vt 0.5272 0.2853 0.0000
vt 0.5272 0.3353 0.0000
vt 0.4772 0.3353 0.0000
vt 0.4728 0.1625 0.0000
vt 0.5228 0.1625 0.0000
vt 0.5228 0.2125 0.0000
vt 0.4728 0.2125 0.0000
vt 0.3656 0.3879 0.0000
vt 0.4156 0.3879 0.0000
vt 0.4156 0.4379 0.0000
vt 0.3656 0.4379 0.0000
vt 0.4683 0.0353 0.0000
vt 0.5183 0.0353 0.0000
vt 0.5183 0.0853 0.0000
vt 0.4683 0.0853 0.0000
# 16 texture coords

g SPW_Urban_Bridge_RailRoadBridge_01
usemtl SPW_Urban_Road
s 1
f 1/1/1 2/2/1 3/3/1 4/4/1 
f 1/1/1 5/2/1 6/3/1 2/4/1 
s 2
f 7/1/2 6/2/2 8/3/2 9/4/2 
s 1
f 10/1/3 11/2/3 12/3/3 7/4/3 
s 2
f 12/1/2 2/2/2 6/3/2 7/4/2 
f 13/1/4 14/2/4 15/3/4 16/4/4 
s 1
f 13/1/3 16/2/3 17/3/3 18/4/3 
f 18/1/3 17/2/3 11/3/3 10/4/3 
s 4
f 14/1/3 13/2/3 13/3/3 14/4/3 
s off
f 19/1/5 18/2/5 10/3/5 5/4/5 
s 1
f 15/1/1 14/2/1 19/3/1 20/4/1 
f 20/1/1 19/2/1 5/3/1 1/4/1 
f 15/1/1 20/2/1 21/3/1 22/4/1 
s off
f 17/1/6 20/2/6 1/3/6 11/4/6 
f 18/1/2 19/2/2 23/3/2 24/4/2 
s 4
f 13/1/3 18/2/3 18/3/3 13/4/3 
f 19/1/3 14/2/3 14/3/3 19/4/3 
f 18/1/3 19/2/3 19/3/3 18/4/3 
s off
f 25/1/5 26/2/5 24/3/5 23/4/5 
f 19/1/1 14/2/1 25/3/1 23/4/1 
f 13/1/3 18/2/3 24/3/3 26/4/3 
f 14/1/4 13/2/4 26/3/4 25/4/4 
f 27/1/6 22/2/6 21/3/6 28/4/6 
s 2
f 16/1/4 15/2/4 22/3/4 27/4/4 
s off
f 20/1/2 17/2/2 28/3/2 21/4/2 
s 1
f 17/1/3 16/2/3 27/3/3 28/4/3 
s off
f 29/1/5 30/2/5 9/3/5 8/4/5 
s 1
f 6/1/1 5/2/1 29/3/1 8/4/1 
s off
f 5/1/7 10/2/7 30/3/7 29/4/7 
s 1
f 10/1/3 7/2/3 9/3/3 30/4/3 
s off
f 31/1/6 4/2/6 3/3/6 32/4/6 
f 11/1/8 1/2/8 4/3/8 31/4/8 
s 2
f 2/1/2 12/2/2 32/3/2 3/4/2 
s 1
f 12/1/3 11/2/3 31/3/3 32/4/3 
s off
f 33/5/6 34/6/6 35/7/6 36/8/6 
f 34/5/1 37/6/1 38/7/1 35/8/1 
f 37/5/5 39/6/5 40/7/5 38/8/5 
f 39/5/3 33/6/3 36/7/3 40/8/3 
f 36/5/9 35/6/9 38/7/9 40/8/9 
f 39/5/4 37/6/4 34/7/4 33/8/4 
f 41/5/10 42/6/10 43/7/10 44/8/10 
f 42/5/1 45/6/1 46/7/1 43/8/1 
f 45/5/5 47/6/5 48/7/5 46/8/5 
f 47/5/3 41/6/3 44/7/3 48/8/3 
f 44/5/2 43/6/2 46/7/2 48/8/2 
f 47/5/4 45/6/4 42/7/4 41/8/4 
f 49/5/10 50/6/10 51/7/10 52/8/10 
f 50/5/1 53/6/1 54/7/1 51/8/1 
f 53/5/5 55/6/5 56/7/5 54/8/5 
f 55/5/3 49/6/3 52/7/3 56/8/3 
f 52/5/2 51/6/2 54/7/2 56/8/2 
f 55/5/4 53/6/4 50/7/4 49/8/4 
f 57/5/6 58/6/6 59/7/6 60/8/6 
f 58/5/1 61/6/1 62/7/1 59/8/1 
f 61/5/5 63/6/5 64/7/5 62/8/5 
f 63/5/3 57/6/3 60/7/3 64/8/3 
f 60/5/9 59/6/9 62/7/9 64/8/9 
f 63/5/4 61/6/4 58/7/4 57/8/4 
f 65/5/10 66/6/10 67/7/10 68/8/10 
f 66/5/1 69/6/1 70/7/1 67/8/1 
f 69/5/5 71/6/5 72/7/5 70/8/5 
f 71/5/3 65/6/3 68/7/3 72/8/3 
f 68/5/2 67/6/2 70/7/2 72/8/2 
f 71/5/4 69/6/4 66/7/4 65/8/4 
f 73/5/10 74/6/10 75/7/10 76/8/10 
f 74/5/1 77/6/1 78/7/1 75/8/1 
f 77/5/5 79/6/5 80/7/5 78/8/5 
f 79/5/11 73/6/11 76/7/11 80/8/11 
f 76/5/2 75/6/2 78/7/2 80/8/2 
f 79/5/4 77/6/4 74/7/4 73/8/4 
f 81/5/6 82/6/6 83/7/6 84/8/6 
f 82/5/1 85/6/1 86/7/1 83/8/1 
f 85/5/5 87/6/5 88/7/5 86/8/5 
f 87/5/11 81/6/11 84/7/11 88/8/11 
f 84/5/9 83/6/9 86/7/9 88/8/9 
f 87/5/4 85/6/4 82/7/4 81/8/4 
f 89/5/10 90/6/10 91/7/10 92/8/10 
f 90/5/1 93/6/1 94/7/1 91/8/1 
f 93/5/5 95/6/5 96/7/5 94/8/5 
f 95/5/11 89/6/11 92/7/11 96/8/11 
f 92/5/2 91/6/2 94/7/2 96/8/2 
f 95/5/4 93/6/4 90/7/4 89/8/4 
f 97/5/10 98/6/10 99/7/10 100/8/10 
f 98/5/1 101/6/1 102/7/1 99/8/1 
f 101/5/5 103/6/5 104/7/5 102/8/5 
f 103/5/11 97/6/11 100/7/11 104/8/11 
f 100/5/2 99/6/2 102/7/2 104/8/2 
f 103/5/4 101/6/4 98/7/4 97/8/4 
f 105/5/10 106/6/10 107/7/10 108/8/10 
f 106/5/1 109/6/1 110/7/1 107/8/1 
f 109/5/5 111/6/5 112/7/5 110/8/5 
f 111/5/3 105/6/3 108/7/3 112/8/3 
f 108/5/2 107/6/2 110/7/2 112/8/2 
f 111/5/4 109/6/4 106/7/4 105/8/4 
f 113/5/6 114/6/6 115/7/6 116/8/6 
f 114/5/1 117/6/1 118/7/1 115/8/1 
f 117/5/5 119/6/5 120/7/5 118/8/5 
f 119/5/3 113/6/3 116/7/3 120/8/3 
f 116/5/9 115/6/9 118/7/9 120/8/9 
f 119/5/4 117/6/4 114/7/4 113/8/4 
f 121/5/10 122/6/10 123/7/10 124/8/10 
f 122/5/1 125/6/1 126/7/1 123/8/1 
f 125/5/5 127/6/5 128/7/5 126/8/5 
f 127/5/3 121/6/3 124/7/3 128/8/3 
f 124/5/2 123/6/2 126/7/2 128/8/2 
f 127/5/4 125/6/4 122/7/4 121/8/4 
f 129/5/10 130/6/10 131/7/10 132/8/10 
f 130/5/1 133/6/1 134/7/1 131/8/1 
f 133/5/5 135/6/5 136/7/5 134/8/5 
f 135/5/3 129/6/3 132/7/3 136/8/3 
f 132/5/2 131/6/2 134/7/2 136/8/2 
f 135/5/4 133/6/4 130/7/4 129/8/4 
f 137/5/6 138/6/6 139/7/6 140/8/6 
f 138/5/1 141/6/1 142/7/1 139/8/1 
f 141/5/5 143/6/5 144/7/5 142/8/5 
f 143/5/3 137/6/3 140/7/3 144/8/3 
f 140/5/9 139/6/9 142/7/9 144/8/9 
f 143/5/4 141/6/4 138/7/4 137/8/4 
f 145/5/10 146/6/10 147/7/10 148/8/10 
f 146/5/1 149/6/1 150/7/1 147/8/1 
f 149/5/5 151/6/5 152/7/5 150/8/5 
f 151/5/3 145/6/3 148/7/3 152/8/3 
f 148/5/2 147/6/2 150/7/2 152/8/2 
f 151/5/4 149/6/4 146/7/4 145/8/4 
f 153/5/10 154/6/10 155/7/10 156/8/10 
f 154/5/1 157/6/1 158/7/1 155/8/1 
f 157/5/5 159/6/5 160/7/5 158/8/5 
f 159/5/11 153/6/11 156/7/11 160/8/11 
f 156/5/2 155/6/2 158/7/2 160/8/2 
f 159/5/4 157/6/4 154/7/4 153/8/4 
f 161/5/6 162/6/6 163/7/6 164/8/6 
f 162/5/1 165/6/1 166/7/1 163/8/1 
f 165/5/5 167/6/5 168/7/5 166/8/5 
f 167/5/11 161/6/11 164/7/11 168/8/11 
f 164/5/9 163/6/9 166/7/9 168/8/9 
f 167/5/4 165/6/4 162/7/4 161/8/4 
f 169/5/10 170/6/10 171/7/10 172/8/10 
f 170/5/1 173/6/1 174/7/1 171/8/1 
f 173/5/5 175/6/5 176/7/5 174/8/5 
f 175/5/11 169/6/11 172/7/11 176/8/11 
f 172/5/2 171/6/2 174/7/2 176/8/2 
f 175/5/4 173/6/4 170/7/4 169/8/4 
f 177/5/10 178/6/10 179/7/10 180/8/10 
f 178/5/1 181/6/1 182/7/1 179/8/1 
f 181/5/5 183/6/5 184/7/5 182/8/5 
f 183/5/11 177/6/11 180/7/11 184/8/11 
f 180/5/2 179/6/2 182/7/2 184/8/2 
f 183/5/4 181/6/4 178/7/4 177/8/4 
s 1
f 185/1/1 186/2/1 187/3/1 188/4/1 
f 185/1/1 189/2/1 190/3/1 186/4/1 
s 2
f 191/1/2 190/2/2 192/3/2 193/4/2 
s 1
f 194/1/3 195/2/3 196/3/3 191/4/3 
s 2
f 196/1/2 186/2/2 190/3/2 191/4/2 
f 197/1/4 198/2/4 199/3/4 200/4/4 
s 1
f 197/1/3 200/2/3 201/3/3 202/4/3 
f 202/1/3 201/2/3 195/3/3 194/4/3 
s 4
f 198/1/3 197/2/3 197/3/3 198/4/3 
s off
f 203/1/5 202/2/5 194/3/5 189/4/5 
s 1
f 199/1/1 198/2/1 203/3/1 204/4/1 
f 204/1/1 203/2/1 189/3/1 185/4/1 
f 199/1/1 204/2/1 205/3/1 206/4/1 
s off
f 201/1/6 204/2/6 185/3/6 195/4/6 
f 202/1/2 203/2/2 207/3/2 208/4/2 
s 4
f 197/1/3 202/2/3 202/3/3 197/4/3 
f 203/1/3 198/2/3 198/3/3 203/4/3 
f 202/1/3 203/2/3 203/3/3 202/4/3 
s off
f 209/1/5 210/2/5 208/3/5 207/4/5 
f 203/1/1 198/2/1 209/3/1 207/4/1 
f 197/1/3 202/2/3 208/3/3 210/4/3 
f 198/1/4 197/2/4 210/3/4 209/4/4 
f 211/1/6 206/2/6 205/3/6 212/4/6 
s 2
f 200/1/4 199/2/4 206/3/4 211/4/4 
s off
f 204/1/2 201/2/2 212/3/2 205/4/2 
s 1
f 201/1/3 200/2/3 211/3/3 212/4/3 
s off
f 213/1/5 214/2/5 193/3/5 192/4/5 
s 1
f 190/1/1 189/2/1 213/3/1 192/4/1 
s off
f 189/1/7 194/2/7 214/3/7 213/4/7 
s 1
f 194/1/3 191/2/3 193/3/3 214/4/3 
s off
f 215/1/6 188/2/6 187/3/6 216/4/6 
f 195/1/8 185/2/8 188/3/8 215/4/8 
s 2
f 186/1/2 196/2/2 216/3/2 187/4/2 
s 1
f 196/1/3 195/2/3 215/3/3 216/4/3 
s off
f 217/5/10 218/6/10 219/7/10 220/8/10 
f 218/5/1 221/6/1 222/7/1 219/8/1 
f 221/5/5 223/6/5 224/7/5 222/8/5 
f 223/5/3 217/6/3 220/7/3 224/8/3 
f 220/5/2 219/6/2 222/7/2 224/8/2 
f 223/5/4 221/6/4 218/7/4 217/8/4 
f 225/9/1 226/10/1 227/11/1 228/12/1 
f 226/9/5 229/10/5 230/11/5 227/12/5 
f 229/9/3 231/10/3 232/11/3 230/12/3 
f 231/9/10 225/10/10 228/11/10 232/12/10 
f 228/9/2 227/10/2 230/11/2 232/12/2 
f 231/9/4 229/10/4 226/11/4 225/12/4 
f 233/9/12 234/10/12 235/11/12 236/12/12 
f 234/9/5 237/10/5 238/11/5 235/12/5 
f 237/9/3 239/10/3 240/11/3 238/12/3 
f 239/9/10 233/10/10 236/11/10 240/12/10 
f 235/9/13 238/10/13 241/11/13 242/12/13 
f 239/13/4 237/14/4 234/15/4 233/16/4 
f 243/9/2 242/10/2 241/11/2 244/12/2 
f 240/9/14 236/10/14 243/11/14 244/12/14 
f 238/9/15 240/10/15 244/11/15 241/12/15 
f 236/9/16 235/10/16 242/11/16 243/12/16 
f 245/9/1 246/10/1 247/11/1 248/12/1 
f 246/9/5 249/10/5 250/11/5 247/12/5 
f 249/9/3 251/10/3 252/11/3 250/12/3 
f 251/9/10 245/10/10 248/11/10 252/12/10 
f 248/9/2 247/10/2 250/11/2 252/12/2 
f 251/9/4 249/10/4 246/11/4 245/12/4 
# 210 polygons

