# 3ds Max Wavefront OBJ Exporter v0.97b - (c)2007 guruware
# File Created: 15.03.2017 11:54:28

mtllib SPW_Vehicle_Land_Static_Bus.mtl

#
# object SPW_Vehicle_Land_Static_Bus
#

v  -62.2869 38.8193 -136.4143
v  -48.6516 38.8193 -136.4143
v  -48.6516 36.8952 -144.8445
v  -62.2869 36.8952 -144.8445
v  -48.6516 31.5039 -151.6051
v  -62.2869 31.5039 -151.6051
v  -48.6516 23.7132 -155.3569
v  -62.2869 23.7132 -155.3569
v  -48.6516 15.0661 -155.3569
v  -62.2869 15.0661 -155.3569
v  -48.6516 7.2754 -151.6051
v  -62.2869 7.2754 -151.6051
v  -48.6516 1.8841 -144.8445
v  -62.2869 1.8841 -144.8445
v  -48.6516 -0.0401 -136.4143
v  -62.2869 -0.0401 -136.4143
v  -48.6516 1.8841 -127.9841
v  -62.2869 1.8841 -127.9841
v  -48.6516 7.2754 -121.2235
v  -62.2869 7.2754 -121.2235
v  -48.6516 15.0661 -117.4717
v  -62.2869 15.0661 -117.4717
v  -48.6516 23.7132 -117.4717
v  -62.2869 23.7132 -117.4717
v  -48.6516 31.5039 -121.2236
v  -62.2869 31.5039 -121.2236
v  -48.6516 36.8952 -127.9841
v  -62.2869 36.8952 -127.9841
v  -62.2869 38.8193 97.6522
v  -48.6516 38.8193 97.6522
v  -48.6515 36.8952 89.2220
v  -62.2869 36.8952 89.2220
v  -48.6515 31.5038 82.4615
v  -62.2869 31.5038 82.4615
v  -48.6515 23.7131 78.7097
v  -62.2869 23.7131 78.7097
v  -48.6515 15.0661 78.7097
v  -62.2869 15.0661 78.7097
v  -48.6515 7.2754 82.4615
v  -62.2869 7.2754 82.4615
v  -48.6515 1.8840 89.2220
v  -62.2869 1.8840 89.2220
v  -48.6515 -0.0401 97.6522
v  -62.2869 -0.0401 97.6522
v  -48.6515 1.8840 106.0825
v  -62.2869 1.8840 106.0825
v  -48.6515 7.2754 112.8430
v  -62.2869 7.2754 112.8430
v  -48.6515 15.0661 116.5948
v  -62.2869 15.0661 116.5948
v  -48.6515 23.7131 116.5948
v  -62.2869 23.7131 116.5948
v  -48.6515 31.5038 112.8430
v  -62.2869 31.5038 112.8430
v  -48.6516 36.8952 106.0825
v  -62.2869 36.8952 106.0825
v  48.6647 38.8193 -136.4143
v  62.3000 38.8193 -136.4143
v  62.3000 36.8952 -144.8445
v  48.6647 36.8952 -144.8445
v  62.3000 31.5039 -151.6051
v  48.6647 31.5039 -151.6051
v  62.3000 23.7132 -155.3569
v  48.6647 23.7132 -155.3569
v  62.3000 15.0661 -155.3570
v  48.6647 15.0661 -155.3570
v  62.3000 7.2754 -151.6052
v  48.6647 7.2754 -151.6052
v  62.3000 1.8841 -144.8446
v  48.6647 1.8841 -144.8446
v  62.3000 -0.0401 -136.4144
v  48.6647 -0.0401 -136.4144
v  62.3000 1.8841 -127.9841
v  48.6647 1.8841 -127.9841
v  62.3000 7.2754 -121.2236
v  48.6647 7.2754 -121.2236
v  62.3000 15.0661 -117.4718
v  48.6647 15.0661 -117.4718
v  62.3000 23.7132 -117.4717
v  48.6647 23.7132 -117.4717
v  62.3000 31.5039 -121.2236
v  48.6647 31.5039 -121.2236
v  62.3000 36.8952 -127.9841
v  48.6647 36.8952 -127.9841
v  48.6647 38.8193 97.6522
v  62.3000 38.8193 97.6522
v  62.3000 36.8952 89.2220
v  48.6647 36.8952 89.2220
v  62.3000 31.5038 82.4615
v  48.6647 31.5038 82.4615
v  62.3000 23.7131 78.7096
v  48.6647 23.7131 78.7096
v  62.3000 15.0661 78.7096
v  48.6647 15.0661 78.7097
v  62.3000 7.2754 82.4615
v  48.6647 7.2754 82.4615
v  62.3000 1.8840 89.2220
v  48.6647 1.8840 89.2220
v  62.3000 -0.0401 97.6522
v  48.6647 -0.0401 97.6522
v  62.3000 1.8840 106.0825
v  48.6647 1.8840 106.0825
v  62.3000 7.2754 112.8430
v  48.6647 7.2754 112.8430
v  62.3000 15.0661 116.5948
v  48.6647 15.0661 116.5948
v  62.3000 23.7131 116.5948
v  48.6647 23.7131 116.5948
v  62.3000 31.5038 112.8430
v  48.6647 31.5038 112.8430
v  62.3000 36.8952 106.0825
v  48.6647 36.8952 106.0825
v  -65.5572 118.8193 202.6034
v  -71.9836 118.8193 201.4703
v  -71.9836 99.6224 201.4703
v  -65.5572 99.6224 202.6034
v  -72.3815 119.6890 199.0714
v  -72.3815 98.7527 199.0714
v  -64.3628 119.6890 200.4853
v  -64.3628 98.7527 200.4853
v  -69.1187 124.5064 200.6813
v  -68.0263 124.5064 200.6813
v  -68.0263 123.4141 200.6813
v  -69.1187 123.4141 200.6813
v  -68.0263 123.4141 201.7736
v  -62.0193 123.4141 200.6813
v  -62.0193 123.4141 201.7736
v  -68.0263 124.5064 201.7736
v  -69.1187 124.5064 201.7736
v  -69.1187 123.4141 201.7736
v  -69.1187 94.6816 200.6812
v  -69.1187 94.6816 201.7736
v  -62.0193 124.5064 200.6813
v  -62.0193 124.5064 201.7736
v  -69.1187 93.5201 200.6812
v  -69.1187 93.5201 201.7736
v  -68.0263 94.6816 201.7736
v  -68.0263 94.6816 200.6812
v  -68.0263 93.5201 200.6812
v  -68.0263 93.5201 201.7736
v  -62.0277 94.6816 200.6812
v  -62.0277 93.5201 200.6812
v  -62.0277 94.6816 201.7736
v  -62.0277 93.5201 201.7736
v  72.0038 118.8193 201.5218
v  65.5775 118.8193 202.6550
v  65.5775 99.6224 202.6550
v  72.0038 99.6224 201.5218
v  64.3831 119.6890 200.5368
v  64.3831 98.7527 200.5368
v  72.4018 119.6890 199.1229
v  72.4018 98.7527 199.1229
v  69.1387 124.5064 201.7736
v  68.0463 124.5064 201.7736
v  68.0463 123.4141 201.7736
v  69.1387 123.4141 201.7736
v  68.0463 123.4141 200.6813
v  62.0393 123.4141 201.7736
v  62.0393 123.4141 200.6813
v  68.0463 124.5064 200.6813
v  69.1387 124.5064 200.6813
v  69.1387 123.4141 200.6813
v  69.1387 94.6816 201.7736
v  69.1387 94.6816 200.6813
v  62.0393 124.5064 201.7736
v  62.0393 124.5064 200.6813
v  69.1387 93.5201 201.7736
v  69.1387 93.5201 200.6813
v  68.0463 94.6816 200.6813
v  68.0463 94.6816 201.7736
v  68.0463 93.5201 201.7736
v  68.0463 93.5201 200.6813
v  62.0477 94.6816 201.7736
v  62.0477 93.5201 201.7736
v  62.0477 94.6816 200.6813
v  62.0477 93.5201 200.6813
v  21.1335 138.5329 73.1012
v  -21.1203 138.5329 73.1012
v  -21.1203 129.1666 73.1012
v  21.1335 129.1666 73.1012
v  -21.1203 138.5329 1.9353
v  -21.1203 129.1666 1.9353
v  21.1335 138.5329 1.9353
v  21.1335 129.1666 1.9353
v  21.1335 138.5329 -83.8555
v  -21.1203 138.5329 -83.8555
v  -21.1203 129.1667 -83.8555
v  21.1335 129.1667 -83.8555
v  -21.1203 138.5329 -155.0214
v  -21.1203 129.1667 -155.0214
v  21.1335 138.5329 -155.0214
v  21.1335 129.1667 -155.0214
v  62.9988 25.3664 204.4088
v  -62.9855 25.3664 204.4088
v  -62.9855 25.3664 211.0234
v  62.9988 25.3664 211.0234
v  62.9988 16.0220 204.4088
v  62.9988 16.0220 211.0234
v  62.9988 56.4780 204.4089
v  -62.9855 56.4780 204.4089
v  -62.9855 16.0220 204.4089
v  -62.9855 16.0220 211.0234
v  62.9988 16.0220 118.6577
v  62.9988 21.6284 118.7067
v  62.9988 25.3664 117.8888
v  62.9988 127.2688 204.4089
v  62.9988 67.3530 199.3332
v  62.9988 126.9491 199.3332
v  62.9988 126.9491 175.6120
v  62.9988 126.9491 171.6762
v  62.9988 82.3896 175.6120
v  62.9988 82.3813 171.6762
v  62.9988 126.9491 124.4320
v  62.9988 126.9491 120.5398
v  62.9988 82.3813 124.4320
v  62.9988 82.4932 120.5398
v  62.9988 126.9491 61.4347
v  62.9988 126.9491 57.5355
v  62.9988 82.4932 61.4347
v  62.9988 82.4932 57.5355
v  62.9988 126.9491 -1.5695
v  62.9988 126.9491 -5.5284
v  62.9988 82.4932 -1.5695
v  62.9988 82.4932 -5.5284
v  62.9988 126.9491 -64.6334
v  62.9988 126.9491 -68.5923
v  62.9988 82.4932 -64.6334
v  62.9988 82.4932 -68.5923
v  62.9988 126.9491 -127.6973
v  62.9988 82.4932 -127.6973
v  62.9988 82.4932 -131.7137
v  62.9988 126.9491 -131.7137
v  62.9988 126.9491 -190.8188
v  62.9988 127.2689 -199.8146
v  62.9988 28.9237 117.1105
v  62.9988 28.9237 78.3634
v  62.9988 25.3665 77.5851
v  62.9988 25.3665 -116.1781
v  62.9988 35.1083 82.9091
v  62.9988 39.2408 89.7122
v  62.9988 40.6919 97.7370
v  62.9988 28.9237 -116.9565
v  62.9988 28.9237 -155.7036
v  62.9988 25.3665 -156.4819
v  62.9988 25.3665 -199.8146
v  62.9988 35.1084 -151.1579
v  62.9988 39.2408 -144.3548
v  62.9988 82.4932 -190.8188
v  62.9988 56.6067 -199.8146
v  62.9988 40.6919 -136.3300
v  62.9988 39.2408 -128.3053
v  62.9988 35.1084 -121.5022
v  62.9988 39.2408 105.7617
v  62.9988 35.1083 112.5648
v  57.7700 67.3946 204.4089
v  -57.7567 67.3946 204.4089
v  -62.9855 127.2688 204.4089
v  -57.7567 126.9491 204.4089
v  57.7700 126.9491 204.4089
v  -62.9855 25.4340 124.4320
v  -62.9855 126.9491 124.4320
v  -62.9855 82.4932 120.5398
v  -62.9855 82.4932 61.4347
v  -62.9855 82.4932 57.5355
v  -62.9855 35.1083 112.5648
v  -62.9855 82.4932 -127.6974
v  -62.9855 35.1084 -151.1579
v  -62.9855 39.2408 -144.3548
v  -62.9855 82.4932 -68.5923
v  -62.9855 82.4932 -64.6334
v  -62.9855 82.4932 -5.5284
v  -62.9855 82.4932 -1.5695
v  -62.9855 40.6919 -136.3300
v  -62.9855 39.2408 89.7121
v  -62.9855 28.9237 -116.9565
v  -62.9855 25.3665 -116.1781
v  -62.9855 25.3665 77.5851
v  -62.9855 35.1084 -121.5022
v  -62.9855 39.2408 -128.3053
v  -62.9855 28.9237 78.3634
v  -62.9855 35.1083 82.9091
v  -62.9855 40.6919 97.7369
v  -62.9855 39.2408 105.7617
v  -62.9855 28.9237 117.1105
v  -62.9855 25.3664 117.8888
v  -62.9855 25.4340 171.6761
v  -62.9855 127.2689 -199.8146
v  -62.9855 126.9491 175.6120
v  -62.9855 126.9491 199.3332
v  -62.9855 67.3530 199.3332
v  -62.9855 82.4049 175.6120
v  -62.9855 56.6067 -199.8146
v  -62.9855 25.3665 -199.8146
v  -62.9855 25.3665 -156.4819
v  -62.9855 28.9237 -155.7036
v  -62.9855 82.4932 -131.7137
v  -62.9855 82.4932 -190.8188
v  -62.9855 126.9491 -190.8188
v  -62.9855 126.9491 120.5398
v  -62.9855 126.9491 171.6762
v  -62.9855 126.9491 -131.7137
v  -62.9855 126.9491 -127.6974
v  -62.9855 126.9491 61.4347
v  -62.9855 126.9491 -68.5923
v  -62.9855 126.9491 -64.6334
v  -62.9855 126.9491 -1.5695
v  -62.9855 126.9491 -5.5284
v  -62.9855 126.9491 57.5355
v  -62.9855 21.6284 118.7067
v  -62.9855 16.0220 118.6577
v  -43.2253 16.0220 118.6577
v  -43.2253 16.0221 76.8162
v  -62.9855 16.0221 76.8161
v  -62.9855 16.0221 -115.4092
v  -43.2253 16.0221 -115.4092
v  -43.2253 16.0221 -157.2508
v  -62.9855 16.0221 -157.2508
v  -62.9855 16.0221 -199.8146
v  42.9526 16.0221 -157.2508
v  62.9988 16.0221 -199.8146
v  62.9988 16.0221 -157.2508
v  42.9526 16.0221 -115.4092
v  62.9988 16.0221 -115.4093
v  62.9988 16.0221 76.8161
v  42.9526 16.0221 76.8161
v  42.9526 16.0220 118.6577
v  42.9526 21.6284 118.7067
v  57.7700 67.3946 -199.8146
v  57.7700 126.9491 -199.8146
v  -57.7567 126.9491 -199.8146
v  -57.7567 67.3946 -199.8146
v  62.9988 134.1323 -199.8146
v  62.9988 134.1322 208.6583
v  42.9526 28.9237 117.1105
v  42.9526 35.1083 112.5648
v  42.9526 39.2408 105.7617
v  42.9526 40.6919 97.7369
v  42.9526 39.2408 89.7121
v  42.9526 35.1083 82.9091
v  42.9526 28.9237 78.3634
v  42.9526 21.6285 76.7672
v  62.9988 21.6285 76.7672
v  62.9988 21.6285 -115.3603
v  42.9526 28.9237 -116.9565
v  42.9526 35.1084 -121.5022
v  42.9526 39.2408 -128.3053
v  42.9526 40.6919 -136.3300
v  42.9526 39.2408 -144.3548
v  42.9526 35.1084 -151.1579
v  42.9526 28.9237 -155.7036
v  62.9988 21.6285 -157.2998
v  -62.9855 134.1322 208.6583
v  -62.9855 134.1323 -199.8146
v  -62.9855 21.6285 -157.2998
v  -43.2253 28.9237 -155.7036
v  -43.2253 35.1084 -151.1579
v  -43.2253 39.2408 -144.3548
v  -43.2253 40.6919 -136.3300
v  -43.2253 39.2408 -128.3053
v  -43.2253 35.1084 -121.5022
v  -43.2253 28.9237 -116.9565
v  -62.9855 21.6285 -115.3602
v  -62.9855 21.6285 76.7672
v  -43.2253 21.6285 76.7672
v  -43.2253 28.9237 78.3634
v  -43.2253 35.1083 82.9091
v  -43.2253 39.2408 89.7122
v  -43.2253 40.6919 97.7370
v  -43.2253 39.2408 105.7617
v  -43.2252 35.1083 112.5648
v  -43.2252 28.9237 117.1105
v  -43.2253 21.6284 118.7067
v  -43.2253 21.6285 -115.3602
v  -43.2253 21.6285 -157.2998
v  -62.9855 16.0221 -205.1093
v  62.9988 16.0221 -205.1093
v  42.9526 21.6285 -157.2998
v  42.9526 21.6285 -115.3602
v  62.9988 25.3665 -205.1093
v  -62.9855 25.3665 -205.1093
v  57.7700 126.9491 -199.2332
v  57.7700 67.3946 -199.2332
v  -57.7567 67.3946 -199.2332
v  -57.7567 126.9491 -199.2332
v  62.5275 82.4932 -131.7137
v  62.5275 126.9491 -131.7137
v  62.5275 126.9491 -190.8188
v  62.5275 82.4932 -190.8188
v  62.5275 82.4932 -68.5923
v  62.5275 126.9491 -68.5923
v  62.5275 126.9491 -127.6973
v  62.5275 82.4932 -127.6973
v  62.5275 82.4932 -5.5284
v  62.5275 126.9491 -5.5284
v  62.5275 126.9491 -64.6334
v  62.5275 82.4932 -64.6334
v  62.5275 82.4932 57.5355
v  62.5275 126.9491 57.5355
v  62.5275 126.9491 -1.5695
v  62.5275 82.4932 -1.5695
v  62.5275 82.4932 120.5398
v  62.5275 126.9491 120.5398
v  62.5275 126.9491 61.4347
v  62.5275 82.4932 61.4347
v  62.5275 67.3530 199.3332
v  62.5275 126.9491 199.3332
v  62.5275 126.9491 175.6120
v  62.5275 82.3896 175.6120
v  62.5275 82.3813 171.6762
v  62.5275 126.9491 171.6762
v  62.5275 126.9491 124.4320
v  62.5275 82.3813 124.4320
v  -62.5144 126.9491 -131.7137
v  -62.5144 82.4932 -131.7137
v  -62.5144 82.4932 -190.8188
v  -62.5144 126.9491 -190.8188
v  -62.5144 126.9491 -68.5923
v  -62.5144 82.4932 -68.5923
v  -62.5144 82.4932 -127.6974
v  -62.5144 126.9491 -127.6974
v  -62.5144 126.9491 -5.5284
v  -62.5144 82.4932 -5.5284
v  -62.5144 82.4932 -64.6334
v  -62.5144 126.9491 -64.6334
v  -62.5144 126.9491 57.5355
v  -62.5144 82.4932 57.5355
v  -62.5144 82.4932 -1.5695
v  -62.5144 126.9491 -1.5695
v  -62.5144 126.9491 120.5398
v  -62.5144 82.4932 120.5398
v  -62.5144 82.4932 61.4347
v  -62.5144 126.9491 61.4347
v  -62.5144 126.9491 199.3332
v  -62.5144 67.3530 199.3332
v  -62.5144 82.4049 175.6120
v  -62.5144 126.9491 175.6120
v  -62.5144 126.9491 171.6762
v  -62.5144 25.4340 171.6761
v  -62.5144 25.4340 124.4320
v  -62.5144 126.9491 124.4320
v  -57.7567 67.3946 203.9924
v  -57.7567 126.9491 203.9924
v  57.7700 126.9491 203.9924
v  57.7700 67.3946 203.9924
# 444 vertices

vn 0.0000 0.9749 -0.2225
vn 0.0000 0.7818 -0.6235
vn 0.0000 0.4339 -0.9010
vn 0.0000 0.0000 -1.0000
vn 0.0000 -0.4339 -0.9010
vn 0.0000 -0.7818 -0.6235
vn 0.0000 -0.9749 -0.2225
vn 0.0000 -0.9749 0.2225
vn 0.0000 -0.7818 0.6235
vn 0.0000 -0.4339 0.9010
vn 0.0000 -0.0000 1.0000
vn 0.0000 0.4339 0.9010
vn 1.0000 0.0000 -0.0000
vn 1.0000 0.0000 0.0000
vn 0.0000 0.9749 0.2225
vn 0.0000 0.7818 0.6235
vn -1.0000 -0.0000 0.0000
vn -1.0000 -0.0000 -0.0000
vn -1.0000 0.0000 -0.0000
vn -0.0000 0.4339 -0.9010
vn -0.0000 -0.0000 -1.0000
vn -0.0000 -0.4339 -0.9010
vn -0.0000 -0.9749 -0.2225
vn 0.0000 0.0000 1.0000
vn 1.0000 -0.0000 -0.0000
vn -0.0000 0.9749 0.2225
vn -0.0000 0.7818 0.6235
vn -0.1736 -0.0000 0.9848
vn -0.9865 -0.0000 0.1636
vn 0.1736 0.0000 -0.9848
vn 0.8711 -0.0000 0.4912
vn -0.0616 -0.9350 0.3492
vn -0.0616 0.9350 0.3492
vn 0.0000 -1.0000 -0.0000
vn 0.0000 1.0000 0.0000
vn 0.1736 -0.0000 0.9848
vn -0.8711 -0.0000 0.4912
vn -0.1736 0.0000 -0.9848
vn 0.9865 -0.0000 0.1636
vn 0.0616 -0.9350 0.3492
vn 0.0616 0.9350 0.3492
vn -0.0000 0.0000 -1.0000
vn -0.0000 1.0000 0.0000
vn -0.0000 -0.0000 1.0000
vn -1.0000 0.0000 0.0000
vn 1.0000 -0.0000 0.0000
vn -1.0000 0.0001 0.0000
vn -1.0000 0.0001 -0.0000
vn 0.6614 -0.7500 -0.0000
vn -0.0602 -0.9982 -0.0000
vn 0.9050 0.4254 0.0000
vn -0.9932 -0.1164 0.0000
vn -0.0000 -1.0000 0.0000
vn -0.0000 -1.0000 -0.0000
vn 0.0000 0.0087 -1.0000
vn 0.0000 -0.5922 -0.8058
vn 0.0000 -0.8547 -0.5192
vn 0.0000 -0.9840 -0.1779
vn 0.0000 -0.9840 0.1779
vn -0.0000 -0.8547 0.5192
vn -0.0000 -0.5922 0.8058
vn -0.0000 -0.2137 0.9769
vn -0.0000 -0.9840 0.1779
vn 0.0000 -0.5922 0.8058
vn 0.0000 -0.5264 0.8502
vn 0.0000 -0.2137 -0.9769
vn -0.0000 0.0087 1.0000
vn 0.0000 0.0087 1.0000
vn -0.0000 0.0087 -1.0000
vn -0.0000 -0.2137 -0.9769
vn 0.0000 -0.2137 0.9769
vn 0.0000 -0.0000 -1.0000
vn 0.0000 1.0000 -0.0000
vn 0.0000 -1.0000 0.0000
vn 0.0000 0.8446 0.5354
vn 0.0000 0.8444 0.5358
# 76 vertex normals

vt 0.8477 0.2020 0.0000
vt 0.8852 0.1935 0.0000
vt 0.9153 0.1695 0.0000
vt 0.9319 0.1349 0.0000
vt 0.9319 0.0965 0.0000
vt 0.9153 0.0618 0.0000
vt 0.8852 0.0379 0.0000
vt 0.8477 0.0293 0.0000
vt 0.8103 0.0379 0.0000
vt 0.7802 0.0618 0.0000
vt 0.7636 0.0965 0.0000
vt 0.7636 0.1349 0.0000
vt 0.7802 0.1695 0.0000
vt 0.8103 0.1935 0.0000
vt 0.3334 0.1654 0.0000
vt 0.3351 0.1654 0.0000
vt 0.3351 0.1364 0.0000
vt 0.3334 0.1364 0.0000
vt 0.3387 0.1667 0.0000
vt 0.3387 0.1351 0.0000
vt 0.3366 0.1667 0.0000
vt 0.3366 0.1351 0.0000
vt 0.3363 0.1739 0.0000
vt 0.3363 0.1723 0.0000
vt 0.3346 0.1723 0.0000
vt 0.3346 0.1739 0.0000
vt 0.3363 0.1290 0.0000
vt 0.3346 0.1290 0.0000
vt 0.3363 0.1272 0.0000
vt 0.3346 0.1272 0.0000
vt 0.3350 0.1654 0.0000
vt 0.3333 0.1654 0.0000
vt 0.3333 0.1364 0.0000
vt 0.3350 0.1364 0.0000
vt 0.3365 0.1667 0.0000
vt 0.3365 0.1351 0.0000
vt 0.3386 0.1667 0.0000
vt 0.3386 0.1351 0.0000
vt 0.0690 0.4676 0.0000
vt 0.1190 0.4676 0.0000
vt 0.1190 0.5176 0.0000
vt 0.0690 0.5176 0.0000
vt 0.2929 0.1157 0.0000
vt 0.3429 0.1157 0.0000
vt 0.3429 0.1657 0.0000
vt 0.2929 0.1657 0.0000
vt 0.3782 0.6947 0.0000
vt 0.0067 0.6947 0.0000
vt 0.0067 0.6030 0.0000
vt 0.3782 0.6030 0.0000
vt 0.3417 0.1485 0.0000
vt 0.3326 0.1205 0.0000
vt 0.3032 0.1205 0.0000
vt 0.2941 0.1485 0.0000
vt 0.3179 0.1657 0.0000
vt 0.4971 0.4693 0.0000
vt 0.5023 0.4688 0.0000
vt 0.5072 0.4672 0.0000
vt 0.5118 0.4646 0.0000
vt 0.5156 0.4611 0.0000
vt 0.5219 0.4469 0.0000
vt 0.5187 0.4568 0.0000
vt 0.5208 0.4521 0.0000
vt 0.5219 0.4417 0.0000
vt 0.5156 0.4276 0.0000
vt 0.5208 0.4366 0.0000
vt 0.5187 0.4318 0.0000
vt 0.5118 0.4241 0.0000
vt 0.4971 0.4193 0.0000
vt 0.5072 0.4215 0.0000
vt 0.5023 0.4199 0.0000
vt 0.4919 0.4199 0.0000
vt 0.4785 0.4276 0.0000
vt 0.4869 0.4215 0.0000
vt 0.4824 0.4241 0.0000
vt 0.4754 0.4318 0.0000
vt 0.4722 0.4469 0.0000
vt 0.4733 0.4366 0.0000
vt 0.4722 0.4417 0.0000
vt 0.4733 0.4521 0.0000
vt 0.4754 0.4568 0.0000
vt 0.4785 0.4611 0.0000
vt 0.4824 0.4646 0.0000
vt 0.4869 0.4672 0.0000
vt 0.4919 0.4688 0.0000
vt 0.0382 0.2674 0.0000
vt 0.2293 0.2674 0.0000
vt 0.2308 0.2751 0.0000
vt 0.0492 0.3582 0.0000
vt 0.3070 0.2751 0.0000
vt 0.3086 0.2674 0.0000
vt 0.7356 0.2674 0.0000
vt 0.2981 0.2885 0.0000
vt 0.2847 0.2974 0.0000
vt 0.2689 0.3006 0.0000
vt 0.7371 0.2751 0.0000
vt 0.8133 0.2751 0.0000
vt 0.8148 0.2674 0.0000
vt 0.9125 0.2674 0.0000
vt 0.8044 0.2885 0.0000
vt 0.7910 0.2974 0.0000
vt 0.8931 0.3910 0.0000
vt 0.9125 0.3350 0.0000
vt 0.9125 0.4878 0.0000
vt 0.8931 0.4871 0.0000
vt 0.7752 0.3006 0.0000
vt 0.7594 0.2974 0.0000
vt 0.7460 0.2885 0.0000
vt 0.3475 0.3910 0.0000
vt 0.2196 0.3910 0.0000
vt 0.2112 0.3907 0.0000
vt 0.3559 0.3910 0.0000
vt 0.1090 0.3907 0.0000
vt 0.1005 0.3908 0.0000
vt 0.4837 0.3910 0.0000
vt 0.4923 0.3910 0.0000
vt 0.6201 0.3910 0.0000
vt 0.6287 0.3910 0.0000
vt 0.7565 0.3910 0.0000
vt 0.7652 0.3910 0.0000
vt 0.2532 0.2974 0.0000
vt 0.2398 0.2885 0.0000
vt 0.0382 0.3347 0.0000
vt 0.2112 0.2676 0.0000
vt 0.2112 0.4871 0.0000
vt 0.1090 0.2676 0.0000
vt 0.2196 0.4871 0.0000
vt 0.1090 0.4871 0.0000
vt 0.1005 0.4871 0.0000
vt 0.5131 0.4635 0.0000
vt 0.5217 0.4487 0.0000
vt 0.5217 0.4400 0.0000
vt 0.5056 0.4678 0.0000
vt 0.4885 0.4678 0.0000
vt 0.5131 0.4252 0.0000
vt 0.5056 0.4208 0.0000
vt 0.4725 0.4400 0.0000
vt 0.4885 0.4208 0.0000
vt 0.4810 0.4252 0.0000
vt 0.4725 0.4487 0.0000
vt 0.4810 0.4635 0.0000
vt 0.3256 0.1645 0.0000
vt 0.3326 0.1610 0.0000
vt 0.3381 0.1554 0.0000
vt 0.3429 0.1407 0.0000
vt 0.3417 0.1330 0.0000
vt 0.3381 0.1260 0.0000
vt 0.3256 0.1169 0.0000
vt 0.3179 0.1157 0.0000
vt 0.2977 0.1260 0.0000
vt 0.3102 0.1169 0.0000
vt 0.2941 0.1330 0.0000
vt 0.2929 0.1407 0.0000
vt 0.2977 0.1554 0.0000
vt 0.3032 0.1610 0.0000
vt 0.3102 0.1645 0.0000
vt 0.4721 0.4193 0.0000
vt 0.5221 0.4193 0.0000
vt 0.5221 0.4693 0.0000
vt 0.4721 0.4693 0.0000
vt 0.3396 0.1282 0.0000
vt 0.2963 0.1282 0.0000
vt 0.3396 0.1532 0.0000
vt 0.2963 0.1532 0.0000
vt 0.3774 0.8156 0.0000
vt 0.0071 0.8156 0.0000
vt 0.0071 0.7238 0.0000
vt 0.3774 0.7238 0.0000
vt 0.3314 0.1618 0.0000
vt 0.3406 0.1511 0.0000
vt 0.3426 0.1372 0.0000
vt 0.3368 0.1244 0.0000
vt 0.3249 0.1167 0.0000
vt 0.3109 0.1167 0.0000
vt 0.2990 0.1244 0.0000
vt 0.2932 0.1372 0.0000
vt 0.2952 0.1511 0.0000
vt 0.3044 0.1618 0.0000
vt 0.3023 0.2668 0.0000
vt 0.3523 0.2668 0.0000
vt 0.3523 0.3168 0.0000
vt 0.3023 0.3168 0.0000
vt 0.1502 0.0837 0.0000
vt 0.2002 0.0837 0.0000
vt 0.2002 0.1337 0.0000
vt 0.1502 0.1337 0.0000
vt 0.4700 0.8129 0.0000
vt 0.4700 0.6588 0.0000
vt 0.6748 0.6588 0.0000
vt 0.6748 0.8129 0.0000
vt 0.6747 0.6588 0.0000
vt 0.6747 0.8129 0.0000
vt 0.4702 0.8129 0.0000
vt 0.4702 0.6588 0.0000
vt 0.6750 0.6588 0.0000
vt 0.6750 0.8129 0.0000
vt 0.4701 0.8129 0.0000
vt 0.4701 0.6588 0.0000
vt 0.6749 0.6588 0.0000
vt 0.6749 0.8129 0.0000
vt 0.5932 0.8129 0.0000
vt 0.5932 0.6064 0.0000
vt 0.6754 0.6585 0.0000
vt 0.6754 0.8129 0.0000
vt 0.5112 0.8129 0.0000
vt 0.5112 0.6584 0.0000
vt 0.6749 0.6584 0.0000
vt 0.3496 0.2752 0.0000
vt 0.3996 0.2752 0.0000
vt 0.3996 0.3252 0.0000
vt 0.3496 0.3252 0.0000
vt 0.7803 0.9734 0.0000
vt 0.7803 0.5132 0.0000
vt 0.9945 0.5132 0.0000
vt 0.9945 0.9734 0.0000
# 215 texture coords

g SPW_Vehicle_Land_Static_Bus
usemtl SPW_Vehicle_Land_Bus
s off
f 1/1/1 2/1/1 3/2/1 4/2/1 
f 4/2/2 3/2/2 5/3/2 6/3/2 
f 6/3/3 5/3/3 7/4/3 8/4/3 
f 8/4/4 7/4/4 9/5/4 10/5/4 
f 10/5/5 9/5/5 11/6/5 12/6/5 
f 12/6/6 11/6/6 13/7/6 14/7/6 
f 14/7/7 13/7/7 15/8/7 16/8/7 
f 16/8/8 15/8/8 17/9/8 18/9/8 
f 18/9/9 17/9/9 19/10/9 20/10/9 
f 20/10/10 19/10/10 21/11/10 22/11/10 
f 22/11/11 21/11/11 23/12/11 24/12/11 
f 24/12/12 23/12/12 25/13/12 26/13/12 
f 3/2/13 2/1/13 27/14/13 25/13/13 
f 3/2/14 25/13/14 23/12/14 21/11/14 
f 3/2/13 21/11/13 19/10/13 17/9/13 
f 3/2/13 17/9/13 15/8/13 13/7/13 
f 3/2/13 13/7/13 11/6/13 9/5/13 
f 3/2/13 9/5/13 7/4/13 5/3/13 
f 28/14/15 27/14/15 2/1/15 1/1/15 
f 26/13/16 25/13/16 27/14/16 28/14/16 
f 1/1/17 4/2/17 6/3/17 8/4/17 
f 1/1/17 8/4/17 10/5/17 12/6/17 
f 1/1/17 12/6/17 14/7/17 16/8/17 
f 1/1/18 16/8/18 18/9/18 20/10/18 
f 1/1/19 20/10/19 22/11/19 24/12/19 
f 1/1/19 24/12/19 26/13/19 28/14/19 
f 29/1/1 30/1/1 31/2/1 32/2/1 
f 32/2/2 31/2/2 33/3/2 34/3/2 
f 34/3/20 33/3/20 35/4/20 36/4/20 
f 36/4/21 35/4/21 37/5/21 38/5/21 
f 38/5/22 37/5/22 39/6/22 40/6/22 
f 40/6/6 39/6/6 41/7/6 42/7/6 
f 42/7/23 41/7/23 43/8/23 44/8/23 
f 44/8/8 43/8/8 45/9/8 46/9/8 
f 46/9/9 45/9/9 47/10/9 48/10/9 
f 48/10/10 47/10/10 49/11/10 50/11/10 
f 50/11/24 49/11/24 51/12/24 52/12/24 
f 52/12/12 51/12/12 53/13/12 54/13/12 
f 31/2/14 30/1/14 55/14/14 53/13/14 
f 31/2/14 53/13/14 51/12/14 49/11/14 
f 31/2/25 49/11/25 47/10/25 45/9/25 
f 31/2/13 45/9/13 43/8/13 41/7/13 
f 31/2/13 41/7/13 39/6/13 37/5/13 
f 31/2/13 37/5/13 35/4/13 33/3/13 
f 56/14/26 55/14/26 30/1/26 29/1/26 
f 54/13/27 53/13/27 55/14/27 56/14/27 
f 29/1/19 32/2/19 34/3/19 36/4/19 
f 29/1/17 36/4/17 38/5/17 40/6/17 
f 29/1/18 40/6/18 42/7/18 44/8/18 
f 29/1/19 44/8/19 46/9/19 48/10/19 
f 29/1/17 48/10/17 50/11/17 52/12/17 
f 29/1/17 52/12/17 54/13/17 56/14/17 
f 57/1/1 58/1/1 59/2/1 60/2/1 
f 60/2/2 59/2/2 61/3/2 62/3/2 
f 62/3/3 61/3/3 63/4/3 64/4/3 
f 64/4/4 63/4/4 65/5/4 66/5/4 
f 66/5/5 65/5/5 67/6/5 68/6/5 
f 68/6/6 67/6/6 69/7/6 70/7/6 
f 70/7/7 69/7/7 71/8/7 72/8/7 
f 72/8/8 71/8/8 73/9/8 74/9/8 
f 74/9/9 73/9/9 75/10/9 76/10/9 
f 76/10/10 75/10/10 77/11/10 78/11/10 
f 78/11/11 77/11/11 79/12/11 80/12/11 
f 80/12/12 79/12/12 81/13/12 82/13/12 
f 59/2/13 58/1/13 83/14/13 81/13/13 
f 59/2/14 81/13/14 79/12/14 77/11/14 
f 59/2/13 77/11/13 75/10/13 73/9/13 
f 59/2/13 73/9/13 71/8/13 69/7/13 
f 59/2/13 69/7/13 67/6/13 65/5/13 
f 59/2/13 65/5/13 63/4/13 61/3/13 
f 84/14/15 83/14/15 58/1/15 57/1/15 
f 82/13/16 81/13/16 83/14/16 84/14/16 
f 57/1/17 60/2/17 62/3/17 64/4/17 
f 57/1/17 64/4/17 66/5/17 68/6/17 
f 57/1/17 68/6/17 70/7/17 72/8/17 
f 57/1/18 72/8/18 74/9/18 76/10/18 
f 57/1/19 76/10/19 78/11/19 80/12/19 
f 57/1/19 80/12/19 82/13/19 84/14/19 
f 85/1/1 86/1/1 87/2/1 88/2/1 
f 88/2/2 87/2/2 89/3/2 90/3/2 
f 90/3/20 89/3/20 91/4/20 92/4/20 
f 92/4/21 91/4/21 93/5/21 94/5/21 
f 94/5/22 93/5/22 95/6/22 96/6/22 
f 96/6/6 95/6/6 97/7/6 98/7/6 
f 98/7/7 97/7/7 99/8/7 100/8/7 
f 100/8/8 99/8/8 101/9/8 102/9/8 
f 102/9/9 101/9/9 103/10/9 104/10/9 
f 104/10/10 103/10/10 105/11/10 106/11/10 
f 106/11/24 105/11/24 107/12/24 108/12/24 
f 108/12/12 107/12/12 109/13/12 110/13/12 
f 87/2/14 86/1/14 111/14/14 109/13/14 
f 87/2/14 109/13/14 107/12/14 105/11/14 
f 87/2/25 105/11/25 103/10/25 101/9/25 
f 87/2/13 101/9/13 99/8/13 97/7/13 
f 87/2/13 97/7/13 95/6/13 93/5/13 
f 87/2/13 93/5/13 91/4/13 89/3/13 
f 112/14/26 111/14/26 86/1/26 85/1/26 
f 110/13/27 109/13/27 111/14/27 112/14/27 
f 85/1/19 88/2/19 90/3/19 92/4/19 
f 85/1/17 92/4/17 94/5/17 96/6/17 
f 85/1/18 96/6/18 98/7/18 100/8/18 
f 85/1/19 100/8/19 102/9/19 104/10/19 
f 85/1/17 104/10/17 106/11/17 108/12/17 
f 85/1/17 108/12/17 110/13/17 112/14/17 
f 113/15/28 114/16/28 115/17/28 116/18/28 
f 114/16/29 117/19/29 118/20/29 115/17/29 
f 117/19/30 119/21/30 120/22/30 118/20/30 
f 119/21/31 113/15/31 116/18/31 120/22/31 
f 116/18/32 115/17/32 118/20/32 120/22/32 
f 119/21/33 117/19/33 114/16/33 113/15/33 
s 1
f 121/23/4 122/23/4 123/24/4 124/24/4 
s off
f 125/25/34 123/24/34 126/24/34 127/25/34 
s 1
f 128/26/11 129/26/11 130/25/11 125/25/11 
s 2
f 129/26/19 121/23/19 124/24/19 130/25/19 
f 130/25/19 124/24/19 131/27/19 132/28/19 
s 4
f 129/26/35 128/26/35 122/23/35 121/23/35 
s off
f 133/23/13 134/26/13 127/25/13 126/24/13 
s 1
f 128/26/11 125/25/11 127/25/11 134/26/11 
s 4
f 122/23/35 128/26/35 134/26/35 133/23/35 
s 1
f 123/24/4 122/23/4 133/23/4 126/24/4 
s 2
f 132/28/19 131/27/19 135/29/19 136/30/19 
s 1
f 125/25/11 130/25/11 132/28/11 137/28/11 
s off
f 123/24/13 125/25/13 137/28/13 138/27/13 
s 1
f 124/24/4 123/24/4 138/27/4 131/27/4 
s 4
f 135/29/34 139/29/34 140/30/34 136/30/34 
s 1
f 137/28/11 132/28/11 136/30/11 140/30/11 
f 139/29/4 138/27/4 141/27/4 142/29/4 
f 131/27/4 138/27/4 139/29/4 135/29/4 
s off
f 141/27/13 143/28/13 144/30/13 142/29/13 
s 1
f 137/28/11 140/30/11 144/30/11 143/28/11 
s 4
f 140/30/34 139/29/34 142/29/34 144/30/34 
s off
f 138/27/35 137/28/35 143/28/35 141/27/35 
f 145/31/36 146/32/36 147/33/36 148/34/36 
f 146/32/37 149/35/37 150/36/37 147/33/37 
f 149/35/38 151/37/38 152/38/38 150/36/38 
f 151/37/39 145/31/39 148/34/39 152/38/39 
f 148/34/40 147/33/40 150/36/40 152/38/40 
f 151/37/41 149/35/41 146/32/41 145/31/41 
s 1
f 153/26/11 154/26/11 155/25/11 156/25/11 
s off
f 157/24/34 155/25/34 158/25/34 159/24/34 
s 1
f 160/23/4 161/23/4 162/24/4 157/24/4 
s 2
f 161/23/13 153/26/13 156/25/13 162/24/13 
f 162/24/13 156/25/13 163/28/13 164/27/13 
s 4
f 161/23/35 160/23/35 154/26/35 153/26/35 
s off
f 165/26/19 166/23/19 159/24/19 158/25/19 
s 1
f 160/23/4 157/24/4 159/24/4 166/23/4 
s 4
f 154/26/35 160/23/35 166/23/35 165/26/35 
s 1
f 155/25/11 154/26/11 165/26/11 158/25/11 
s 2
f 164/27/13 163/28/13 167/30/13 168/29/13 
s 1
f 157/24/4 162/24/4 164/27/4 169/27/4 
s off
f 155/25/19 157/24/19 169/27/19 170/28/19 
s 1
f 156/25/11 155/25/11 170/28/11 163/28/11 
s 4
f 167/30/34 171/30/34 172/29/34 168/29/34 
s 1
f 169/27/4 164/27/4 168/29/4 172/29/4 
f 171/30/11 170/28/11 173/28/11 174/30/11 
f 163/28/11 170/28/11 171/30/11 167/30/11 
s off
f 173/28/19 175/27/19 176/29/19 174/30/19 
s 1
f 169/27/4 172/29/4 176/29/4 175/27/4 
s 4
f 172/29/34 171/30/34 174/30/34 176/29/34 
s off
f 170/28/35 169/27/35 175/27/35 173/28/35 
f 177/39/11 178/40/11 179/41/11 180/42/11 
f 178/39/17 181/40/17 182/41/17 179/42/17 
f 181/39/42 183/40/42 184/41/42 182/42/42 
f 183/39/13 177/40/13 180/41/13 184/42/13 
f 180/39/34 179/40/34 182/41/34 184/42/34 
f 183/39/43 181/40/43 178/41/43 177/42/43 
f 185/39/44 186/40/44 187/41/44 188/42/44 
f 186/39/17 189/40/17 190/41/17 187/42/17 
f 189/39/4 191/40/4 192/41/4 190/42/4 
f 191/39/13 185/40/13 188/41/13 192/42/13 
f 188/39/34 187/40/34 190/41/34 192/42/34 
f 191/39/35 189/40/35 186/41/35 185/42/35 
f 193/43/35 194/44/35 195/45/35 196/46/35 
s 1
f 197/43/13 193/44/25 196/45/13 198/46/13 
s 2
f 199/47/11 200/48/11 194/49/11 193/50/11 
s 1
f 194/43/19 201/44/45 202/45/19 195/46/19 
s off
f 196/43/24 195/44/24 202/45/24 198/46/24 
s 2
f 201/43/34 197/44/34 198/45/34 202/46/34 
s 1
f 193/51/25 197/52/13 203/53/13 204/54/25 
f 205/55/25 193/51/25 204/54/25 
s off
f 206/56/13 199/57/13 207/58/13 208/59/13 
f 206/56/46 208/59/46 209/60/46 210/61/46 
f 209/60/13 211/62/13 212/63/13 210/61/13 
f 206/56/13 210/61/13 213/64/13 214/65/13 
f 213/64/13 215/66/13 216/67/13 214/65/13 
f 206/56/46 214/65/46 217/68/46 218/69/46 
f 217/68/13 219/70/13 220/71/13 218/69/13 
f 206/56/13 218/69/13 221/72/13 222/73/13 
f 221/72/13 223/74/13 224/75/13 222/73/13 
f 206/56/25 222/73/25 225/76/25 226/77/25 
f 225/76/46 227/78/46 228/79/46 226/77/46 
f 229/80/14 230/81/14 231/82/14 232/83/14 
f 226/77/25 229/80/25 232/83/25 206/56/25 
f 206/56/13 232/83/13 233/84/13 234/85/13 
s 1
f 193/86/25 205/87/25 235/88/25 207/89/25 
f 236/90/13 237/91/13 238/92/25 239/93/13 
f 240/94/13 239/93/13 238/92/25 241/95/25 
f 241/95/25 238/92/25 242/96/25 207/89/25 
f 243/97/13 244/98/13 245/99/13 246/100/13 
f 247/101/25 246/100/13 245/99/13 248/102/14 
f 249/103/46 234/104/46 233/105/46 245/99/13 
f 245/99/13 233/105/46 248/102/14 
f 250/106/14 247/101/25 248/102/14 251/107/14 
f 252/108/13 251/107/14 248/102/14 207/89/25 
f 219/109/13 216/110/13 215/111/13 220/112/25 
f 212/113/25 211/114/46 207/89/25 215/111/13 
f 220/112/25 215/111/13 207/89/25 223/115/13 
f 224/116/25 223/115/13 207/89/25 227/117/14 
f 228/118/25 227/117/14 207/89/25 230/119/14 
f 231/120/25 230/119/14 207/89/25 248/102/14 
f 242/96/25 252/108/13 207/89/25 
f 253/121/13 241/95/25 207/89/25 254/122/13 
f 235/88/25 254/122/13 207/89/25 
f 193/86/25 207/89/25 199/123/13 
s 2
f 200/62/11 199/67/11 255/69/11 256/76/11 
f 257/56/11 200/62/11 256/76/11 258/81/24 
f 206/56/11 257/62/11 258/67/24 259/69/11 
f 206/56/11 259/69/11 255/76/11 199/81/11 
s 1
f 260/124/17 261/125/47 262/110/19 263/109/19 
f 260/124/17 263/109/19 264/112/17 265/122/18 
f 266/119/19 267/100/19 268/101/17 269/118/19 
f 270/117/19 269/118/19 268/101/17 271/116/45 
f 272/115/17 271/116/45 268/101/17 264/112/17 
f 264/112/17 268/101/17 273/106/17 274/94/17 
f 275/96/45 276/92/45 277/91/45 278/108/45 
f 279/107/45 278/108/45 277/91/45 273/106/17 
f 273/106/17 277/91/45 280/90/17 281/93/17 
f 273/106/17 281/93/17 274/94/17 
f 264/112/17 274/94/17 282/95/19 283/121/45 
f 264/112/17 283/121/45 265/122/18 
f 260/124/17 265/122/18 284/88/18 285/87/45 
f 286/126/48 260/124/17 285/87/45 194/86/19 
s off
f 257/56/17 287/62/17 288/67/17 289/69/17 
f 257/56/19 289/69/19 290/76/19 200/81/19 
s 1
f 200/123/18 290/89/18 291/114/18 286/126/48 
f 292/103/17 293/99/45 294/98/19 295/97/19 
f 295/97/19 267/100/19 266/119/19 296/120/19 
f 292/103/17 295/97/19 296/120/19 297/102/18 
f 287/104/19 292/103/17 297/102/18 298/105/18 
f 299/127/49 262/110/19 261/125/47 298/105/18 
f 287/104/19 298/105/18 261/125/47 300/128/17 
f 288/129/18 287/104/19 300/128/17 291/114/18 
f 291/114/18 300/128/17 286/126/48 
f 194/86/19 200/123/18 286/126/48 
s off
f 301/130/19 296/62/19 266/131/19 302/132/19 
f 298/133/34 301/130/34 302/132/34 303/134/34 
f 304/67/18 269/135/18 270/136/18 305/69/18 
f 302/132/50 304/67/50 305/69/50 306/137/50 
f 307/138/19 271/139/19 272/76/19 306/137/19 
f 305/69/34 307/138/34 306/137/34 
f 308/140/19 264/81/19 263/141/19 303/134/19 
f 306/137/51 308/140/51 303/134/51 302/132/51 
f 299/56/52 298/133/52 303/134/52 
s 1
f 194/55/19 285/51/45 309/52/45 310/53/17 
f 194/55/19 310/53/17 201/54/45 
s 2
f 197/55/34 201/142/34 310/143/53 311/144/54 
f 312/51/54 313/145/54 314/146/54 315/147/34 
f 316/52/34 317/148/34 318/149/34 319/150/54 
f 318/149/34 320/151/34 321/53/34 319/150/54 
f 315/147/34 316/52/34 319/150/54 312/51/54 
f 311/144/54 312/51/54 319/150/54 322/152/54 
f 322/152/54 323/153/34 324/54/54 325/154/34 
f 311/144/54 322/152/54 325/154/34 326/155/54 
f 197/55/34 311/144/54 326/155/54 203/156/53 
s off
f 204/43/55 203/44/55 326/45/55 327/46/55 
s 2
f 234/56/4 249/62/4 328/67/4 329/69/4 
f 234/56/4 329/69/4 330/76/4 287/81/4 
f 331/67/4 328/69/4 249/76/4 292/81/4 
f 330/62/4 331/67/4 292/81/4 287/56/4 
s off
f 332/157/13 333/158/13 206/159/13 234/160/13 
f 254/43/56 235/44/56 334/45/56 335/46/56 
f 253/43/57 254/44/57 335/45/57 336/46/57 
f 241/43/58 253/44/58 336/45/58 337/46/58 
f 240/43/59 241/44/59 337/45/59 338/46/59 
f 239/43/60 240/44/60 338/45/60 339/46/60 
f 236/43/61 239/44/61 339/45/61 340/46/61 
f 340/55/62 341/51/62 342/52/62 237/53/62 
f 340/55/62 237/53/62 236/54/62 
s 1
f 342/161/13 324/149/25 323/162/13 237/163/13 
f 237/163/13 323/162/13 343/164/25 238/55/25 
s off
f 252/43/56 242/44/56 344/45/56 345/46/56 
f 251/43/57 252/44/57 345/45/57 346/46/57 
f 250/43/58 251/44/58 346/45/58 347/46/58 
f 247/43/63 250/44/63 347/45/63 348/46/63 
f 246/43/60 247/44/60 348/45/60 349/46/60 
f 243/43/64 246/44/64 349/45/64 350/46/64 
s 1
f 245/55/13 244/51/13 351/52/13 321/53/13 
f 245/55/13 321/53/13 320/54/13 
s 2
f 292/165/4 249/166/4 245/167/4 293/168/4 
s off
f 333/157/65 352/158/65 257/159/65 206/160/65 
f 352/157/17 353/158/17 287/159/17 257/160/17 
s 1
f 293/51/45 318/52/45 317/53/19 354/54/19 
f 294/55/19 293/51/45 354/54/19 
s off
f 267/43/61 295/44/61 355/45/61 356/46/61 
f 268/43/60 267/44/60 356/45/60 357/46/60 
f 273/43/63 268/44/63 357/45/63 358/46/63 
f 279/43/58 273/44/58 358/45/58 359/46/58 
f 278/43/57 279/44/57 359/45/57 360/46/57 
f 275/43/56 278/44/56 360/45/56 361/46/56 
s 1
f 362/161/45 314/149/17 313/162/45 276/163/45 
f 276/163/45 313/162/45 363/164/17 277/55/45 
s off
f 280/55/62 277/51/62 363/52/62 364/53/62 
f 280/55/62 364/53/62 365/54/62 
f 281/43/61 280/44/61 365/45/61 366/46/61 
f 274/43/60 281/44/60 366/45/60 367/46/60 
f 282/43/63 274/44/63 367/45/63 368/46/63 
f 283/43/58 282/44/58 368/45/58 369/46/58 
f 265/43/57 283/44/57 369/45/57 370/46/57 
f 284/43/56 265/44/56 370/45/56 371/46/56 
f 285/55/66 284/51/66 371/52/66 372/53/66 
f 285/55/66 372/53/66 309/54/66 
f 311/43/55 310/44/55 309/45/55 372/46/55 
f 312/55/19 311/169/19 372/170/19 371/171/19 
f 312/55/17 371/171/17 370/172/17 369/173/17 
f 312/55/17 369/173/17 368/174/17 367/175/17 
f 312/55/19 367/175/19 366/176/19 365/177/19 
f 312/55/19 365/177/19 364/178/19 
f 363/43/67 313/44/67 312/45/67 364/46/67 
f 315/43/55 314/44/55 362/45/55 373/46/55 
f 316/55/19 315/169/19 373/170/19 361/171/19 
f 316/55/19 361/171/19 360/172/19 359/173/19 
f 316/55/19 359/173/19 358/174/19 357/175/19 
f 316/55/19 357/175/19 356/176/19 355/177/19 
f 316/55/19 355/177/19 374/178/19 
f 354/43/68 317/44/68 316/45/68 374/46/68 
s 2
f 320/43/34 318/44/34 375/45/34 376/46/34 
s off
f 377/43/68 319/44/68 321/45/68 351/46/68 
f 322/55/13 319/169/13 377/170/13 350/171/13 
f 322/55/13 350/171/13 349/172/13 348/173/13 
f 322/55/25 348/173/25 347/174/25 346/175/25 
f 322/55/13 346/175/13 345/176/13 344/177/13 
f 322/55/13 344/177/13 378/178/13 
f 343/43/69 323/44/69 322/45/69 378/46/69 
f 341/43/67 325/44/67 324/45/67 342/46/67 
f 326/55/13 325/169/13 341/170/13 340/171/13 
f 326/55/13 340/171/13 339/172/13 338/173/13 
f 326/55/13 338/173/13 337/174/13 336/175/13 
f 326/55/25 336/175/25 335/176/25 334/177/25 
f 326/55/46 334/177/46 327/178/46 
f 334/55/66 235/51/66 205/52/66 204/53/66 
f 334/55/66 204/53/66 327/54/66 
s 2
f 353/157/4 332/158/4 234/159/4 287/160/4 
s off
f 332/179/35 353/180/35 352/181/35 333/182/35 
f 344/55/66 242/51/66 238/52/66 343/53/66 
f 344/55/70 343/53/70 378/54/70 
f 377/55/62 351/51/62 244/52/62 243/53/62 
f 377/55/71 243/53/71 350/54/71 
s 1
f 245/43/13 320/44/13 376/45/13 379/46/13 
s off
f 293/43/35 245/44/35 379/45/35 380/46/35 
s 1
f 318/43/45 293/44/45 380/45/45 375/46/17 
s off
f 355/55/71 295/51/71 294/52/71 354/53/71 
f 355/55/71 354/53/71 374/54/71 
f 362/55/66 276/51/66 275/52/66 361/53/66 
f 362/55/66 361/53/66 373/54/66 
f 380/43/42 379/44/42 376/45/42 375/46/42 
f 381/183/4 382/184/4 383/185/4 384/186/4 
f 329/157/19 328/158/19 382/159/19 381/160/19 
f 330/157/34 329/158/34 381/159/34 384/160/34 
f 331/157/13 330/158/13 384/159/13 383/160/13 
f 328/157/35 331/158/35 383/159/35 382/160/35 
f 232/157/72 231/158/72 385/159/72 386/160/72 
f 233/157/34 232/158/34 386/159/34 387/160/34 
f 386/187/25 385/188/25 388/189/25 387/190/25 
f 231/157/35 248/158/35 388/159/35 385/160/35 
f 248/157/11 233/158/11 387/159/11 388/160/11 
f 226/157/4 228/158/4 389/159/4 390/160/4 
f 229/157/34 226/158/34 390/159/34 391/160/34 
f 390/187/13 389/188/13 392/189/13 391/190/13 
f 228/157/73 230/158/73 392/159/73 389/160/73 
f 230/157/11 229/158/11 391/159/11 392/160/11 
f 222/157/72 224/158/72 393/159/72 394/160/72 
f 225/157/34 222/158/34 394/159/34 395/160/34 
f 394/187/25 393/188/25 396/191/25 395/192/25 
f 224/157/35 227/158/35 396/159/35 393/160/35 
f 227/157/11 225/158/11 395/159/11 396/160/11 
f 218/157/4 220/158/4 397/159/4 398/160/4 
f 221/157/34 218/158/34 398/159/34 399/160/34 
f 398/193/25 397/194/25 400/195/25 399/196/25 
f 220/157/35 223/158/35 400/159/35 397/160/35 
f 223/157/24 221/158/24 399/159/24 400/160/24 
f 214/157/4 216/158/4 401/159/4 402/160/4 
f 217/157/74 214/158/74 402/159/74 403/160/74 
f 402/197/13 401/198/13 404/199/13 403/200/13 
f 216/157/35 219/158/35 404/159/35 401/160/35 
f 219/157/11 217/158/11 403/159/11 404/160/11 
f 208/157/4 207/158/4 405/159/4 406/160/4 
f 209/157/34 208/158/34 406/159/34 407/160/34 
f 406/201/46 405/202/46 408/203/46 407/204/46 
f 207/157/75 211/158/75 408/159/75 405/160/75 
f 211/157/11 209/158/11 407/159/11 408/160/11 
f 210/157/4 212/158/4 409/159/4 410/160/4 
f 213/157/74 210/158/74 410/159/74 411/160/74 
f 410/205/13 409/206/13 412/207/13 411/200/13 
f 212/157/35 215/158/35 412/159/35 409/160/35 
f 215/157/11 213/158/11 411/159/11 412/160/11 
f 296/157/4 301/158/4 413/159/4 414/160/4 
f 297/157/35 296/158/35 414/159/35 415/160/35 
f 416/190/17 415/189/17 414/188/17 413/187/17 
f 301/157/34 298/158/34 416/159/34 413/160/34 
f 298/157/11 297/158/11 415/159/11 416/160/11 
f 269/157/72 304/158/72 417/159/72 418/160/72 
f 266/157/73 269/158/73 418/159/73 419/160/73 
f 420/190/45 419/189/45 418/188/45 417/187/45 
f 304/157/34 302/158/34 420/159/34 417/160/34 
f 302/157/11 266/158/11 419/159/11 420/160/11 
f 271/157/4 307/158/4 421/159/4 422/160/4 
f 270/157/35 271/158/35 422/159/35 423/160/35 
f 424/192/45 423/191/45 422/188/45 421/187/45 
f 307/157/34 305/158/34 424/159/34 421/160/34 
f 305/157/24 270/158/24 423/159/24 424/160/24 
f 264/157/4 308/158/4 425/159/4 426/160/4 
f 272/157/35 264/158/35 426/159/35 427/160/35 
f 428/196/17 427/195/17 426/194/17 425/193/17 
f 308/157/34 306/158/34 428/159/34 425/160/34 
f 306/157/11 272/158/11 427/159/11 428/160/11 
f 262/157/4 299/158/4 429/159/4 430/160/4 
f 263/157/35 262/158/35 430/159/35 431/160/35 
f 432/200/19 431/199/19 430/198/19 429/197/19 
f 299/157/74 303/158/74 432/159/74 429/160/74 
f 303/157/11 263/158/11 431/159/11 432/160/11 
f 290/157/4 289/158/4 433/159/4 434/160/4 
f 291/157/76 290/158/76 434/159/76 435/160/76 
f 436/204/19 435/203/19 434/202/19 433/201/19 
f 289/157/34 288/158/34 436/159/34 433/160/34 
f 288/157/11 291/158/11 435/159/11 436/160/11 
f 286/208/4 300/209/4 437/210/4 438/211/4 
f 260/208/73 286/209/73 438/210/73 439/211/73 
f 440/212/17 439/213/17 438/214/17 437/215/17 
f 300/157/74 261/158/74 440/159/74 437/160/74 
f 261/208/11 260/209/11 439/210/11 440/211/11 
f 258/157/13 256/158/13 441/159/13 442/160/13 
f 259/157/34 258/158/34 442/159/34 443/160/34 
f 442/183/11 441/184/11 444/185/11 443/186/11 
f 256/157/35 255/158/35 444/159/35 441/160/35 
f 255/157/19 259/158/19 443/159/19 444/160/19 
# 409 polygons - 26 triangles

