# 3ds Max Wavefront OBJ Exporter v0.97b - (c)2007 guruware
# File Created: 15.03.2017 11:56:19

mtllib SPW_Vehicle_Land_Static_Truck Empty.mtl

#
# object SPW_Vehicle_Land_Static_Truck_Empty
#

v  -77.1699 43.5641 -309.0957
v  -58.5970 43.5641 -309.0957
v  -58.5970 41.4100 -318.5335
v  -77.1699 41.4100 -318.5335
v  -58.5970 35.3743 -326.1021
v  -77.1699 35.3743 -326.1021
v  -58.5970 26.6524 -330.3023
v  -77.1699 26.6524 -330.3023
v  -58.5970 16.9719 -330.3023
v  -77.1699 16.9719 -330.3023
v  -58.5970 8.2500 -326.1021
v  -77.1699 8.2500 -326.1021
v  -58.5970 2.2143 -318.5335
v  -77.1699 2.2143 -318.5335
v  -58.5970 0.0602 -309.0957
v  -77.1699 0.0602 -309.0957
v  -58.5970 2.2143 -299.6579
v  -77.1699 2.2143 -299.6579
v  -58.5970 8.2500 -292.0893
v  -77.1699 8.2500 -292.0893
v  -58.5970 16.9719 -287.8891
v  -77.1699 16.9719 -287.8891
v  -58.5970 26.6524 -287.8891
v  -77.1699 26.6524 -287.8891
v  -58.5970 35.3743 -292.0893
v  -77.1699 35.3743 -292.0893
v  -58.5970 41.4100 -299.6579
v  -77.1699 41.4100 -299.6579
v  -77.1698 43.5641 -261.2259
v  -58.5970 43.5641 -261.2259
v  -58.5970 41.4100 -270.6636
v  -77.1699 41.4100 -270.6636
v  -58.5970 35.3743 -278.2322
v  -77.1699 35.3743 -278.2322
v  -58.5970 26.6524 -282.4324
v  -77.1698 26.6524 -282.4324
v  -58.5970 16.9719 -282.4324
v  -77.1698 16.9719 -282.4324
v  -58.5970 8.2500 -278.2322
v  -77.1698 8.2500 -278.2322
v  -58.5970 2.2143 -270.6636
v  -77.1698 2.2143 -270.6636
v  -58.5970 0.0602 -261.2259
v  -77.1698 0.0602 -261.2259
v  -58.5970 2.2143 -251.7880
v  -77.1698 2.2143 -251.7880
v  -58.5970 8.2500 -244.2194
v  -77.1698 8.2500 -244.2194
v  -58.5970 16.9719 -240.0192
v  -77.1698 16.9719 -240.0192
v  -58.5970 26.6524 -240.0192
v  -77.1698 26.6524 -240.0192
v  -58.5970 35.3743 -244.2194
v  -77.1698 35.3743 -244.2194
v  -58.5970 41.4100 -251.7880
v  -77.1698 41.4100 -251.7880
v  -77.1698 43.5641 -86.5346
v  -58.5970 43.5641 -86.5346
v  -58.5970 41.4100 -95.9724
v  -77.1698 41.4100 -95.9724
v  -58.5970 35.3743 -103.5410
v  -77.1698 35.3743 -103.5410
v  -58.5970 26.6524 -107.7412
v  -77.1698 26.6524 -107.7412
v  -58.5970 16.9719 -107.7412
v  -77.1698 16.9719 -107.7412
v  -58.5970 8.2500 -103.5410
v  -77.1698 8.2500 -103.5410
v  -58.5970 2.2143 -95.9725
v  -77.1698 2.2143 -95.9724
v  -58.5970 0.0602 -86.5346
v  -77.1698 0.0602 -86.5346
v  -58.5970 2.2143 -77.0968
v  -77.1698 2.2143 -77.0968
v  -58.5970 8.2500 -69.5282
v  -77.1698 8.2500 -69.5282
v  -58.5970 16.9719 -65.3280
v  -77.1698 16.9719 -65.3280
v  -58.5970 26.6524 -65.3280
v  -77.1698 26.6524 -65.3280
v  -58.5970 35.3743 -69.5282
v  -77.1698 35.3743 -69.5282
v  -58.5970 41.4100 -77.0968
v  -77.1698 41.4100 -77.0968
v  -77.1698 43.5641 -36.7219
v  -58.5970 43.5641 -36.7219
v  -58.5970 41.4100 -46.1597
v  -77.1698 41.4100 -46.1597
v  -58.5970 35.3743 -53.7283
v  -77.1698 35.3743 -53.7283
v  -58.5970 26.6524 -57.9285
v  -77.1698 26.6524 -57.9285
v  -58.5970 16.9719 -57.9285
v  -77.1698 16.9719 -57.9285
v  -58.5970 8.2500 -53.7283
v  -77.1698 8.2500 -53.7283
v  -58.5970 2.2143 -46.1597
v  -77.1698 2.2143 -46.1597
v  -58.5970 0.0602 -36.7219
v  -77.1698 0.0602 -36.7219
v  -58.5970 2.2143 -27.2841
v  -77.1698 2.2143 -27.2841
v  -58.5970 8.2500 -19.7155
v  -77.1698 8.2500 -19.7155
v  -58.5970 16.9719 -15.5153
v  -77.1698 16.9719 -15.5153
v  -58.5970 26.6524 -15.5153
v  -77.1698 26.6524 -15.5153
v  -58.5970 35.3743 -19.7155
v  -77.1698 35.3743 -19.7155
v  -58.5970 41.4100 -27.2841
v  -77.1698 41.4100 -27.2841
v  -77.1698 43.5641 138.3738
v  -58.5970 43.5641 138.3738
v  -58.5970 41.4100 128.9360
v  -77.1698 41.4100 128.9360
v  -58.5970 35.3742 121.3675
v  -77.1698 35.3742 121.3675
v  -58.5970 26.6524 117.1673
v  -77.1698 26.6524 117.1673
v  -58.5970 16.9718 117.1673
v  -77.1698 16.9718 117.1673
v  -58.5970 8.2500 121.3675
v  -77.1698 8.2500 121.3675
v  -58.5970 2.2143 128.9360
v  -77.1698 2.2143 128.9360
v  -58.5970 0.0601 138.3738
v  -77.1698 0.0601 138.3738
v  -58.5970 2.2143 147.8117
v  -77.1698 2.2143 147.8117
v  -58.5970 8.2500 155.3802
v  -77.1698 8.2500 155.3802
v  -58.5970 16.9718 159.5805
v  -77.1698 16.9718 159.5805
v  -58.5970 26.6524 159.5805
v  -77.1698 26.6524 159.5805
v  -58.5970 35.3742 155.3802
v  -77.1698 35.3742 155.3802
v  -58.5970 41.4100 147.8117
v  -77.1698 41.4100 147.8117
v  58.5950 43.5641 -309.0956
v  77.1679 43.5641 -309.0956
v  77.1679 41.4100 -318.5335
v  58.5950 41.4100 -318.5335
v  77.1679 35.3743 -326.1020
v  58.5950 35.3743 -326.1020
v  77.1679 26.6524 -330.3022
v  58.5950 26.6524 -330.3022
v  77.1679 16.9719 -330.3022
v  58.5950 16.9719 -330.3022
v  77.1679 8.2500 -326.1020
v  58.5950 8.2500 -326.1020
v  77.1679 2.2143 -318.5334
v  58.5950 2.2143 -318.5334
v  77.1679 0.0602 -309.0956
v  58.5950 0.0602 -309.0956
v  77.1679 2.2143 -299.6578
v  58.5950 2.2143 -299.6578
v  77.1679 8.2500 -292.0893
v  58.5950 8.2500 -292.0893
v  77.1679 16.9719 -287.8890
v  58.5950 16.9719 -287.8890
v  77.1679 26.6524 -287.8890
v  58.5950 26.6524 -287.8890
v  77.1679 35.3743 -292.0893
v  58.5950 35.3743 -292.0892
v  77.1679 41.4100 -299.6578
v  58.5950 41.4100 -299.6578
v  58.5950 43.5641 -261.2259
v  77.1679 43.5641 -261.2259
v  77.1679 41.4100 -270.6637
v  58.5950 41.4100 -270.6637
v  77.1679 35.3743 -278.2322
v  58.5950 35.3743 -278.2322
v  77.1679 26.6524 -282.4325
v  58.5950 26.6524 -282.4325
v  77.1679 16.9719 -282.4325
v  58.5950 16.9719 -282.4325
v  77.1679 8.2500 -278.2322
v  58.5950 8.2500 -278.2322
v  77.1679 2.2143 -270.6637
v  58.5950 2.2143 -270.6637
v  77.1679 0.0602 -261.2259
v  58.5950 0.0602 -261.2259
v  77.1679 2.2143 -251.7880
v  58.5950 2.2143 -251.7880
v  77.1679 8.2500 -244.2195
v  58.5950 8.2500 -244.2195
v  77.1679 16.9719 -240.0193
v  58.5950 16.9719 -240.0193
v  77.1679 26.6524 -240.0193
v  58.5950 26.6524 -240.0193
v  77.1679 35.3743 -244.2195
v  58.5950 35.3743 -244.2195
v  77.1679 41.4100 -251.7880
v  58.5950 41.4100 -251.7880
v  58.5950 43.5641 -86.5346
v  77.1679 43.5641 -86.5346
v  77.1679 41.4100 -95.9725
v  58.5950 41.4100 -95.9725
v  77.1679 35.3743 -103.5410
v  58.5950 35.3743 -103.5410
v  77.1679 26.6524 -107.7412
v  58.5950 26.6524 -107.7412
v  77.1679 16.9719 -107.7412
v  58.5950 16.9719 -107.7412
v  77.1679 8.2500 -103.5410
v  58.5950 8.2500 -103.5410
v  77.1679 2.2143 -95.9725
v  58.5950 2.2143 -95.9725
v  77.1679 0.0602 -86.5346
v  58.5950 0.0602 -86.5346
v  77.1679 2.2143 -77.0968
v  58.5950 2.2143 -77.0968
v  77.1679 8.2500 -69.5283
v  58.5950 8.2500 -69.5283
v  77.1679 16.9719 -65.3280
v  58.5950 16.9719 -65.3280
v  77.1679 26.6524 -65.3280
v  58.5950 26.6524 -65.3280
v  77.1679 35.3743 -69.5283
v  58.5950 35.3743 -69.5283
v  77.1679 41.4100 -77.0968
v  58.5950 41.4100 -77.0968
v  58.5951 43.5641 -36.7219
v  77.1679 43.5641 -36.7219
v  77.1679 41.4100 -46.1597
v  58.5951 41.4100 -46.1597
v  77.1679 35.3743 -53.7283
v  58.5950 35.3743 -53.7283
v  77.1679 26.6524 -57.9285
v  58.5951 26.6524 -57.9285
v  77.1679 16.9719 -57.9285
v  58.5951 16.9719 -57.9285
v  77.1679 8.2500 -53.7283
v  58.5951 8.2500 -53.7283
v  77.1679 2.2143 -46.1597
v  58.5951 2.2143 -46.1597
v  77.1679 0.0602 -36.7219
v  58.5951 0.0602 -36.7219
v  77.1679 2.2143 -27.2841
v  58.5951 2.2143 -27.2841
v  77.1679 8.2500 -19.7155
v  58.5951 8.2500 -19.7155
v  77.1679 16.9719 -15.5153
v  58.5951 16.9719 -15.5153
v  77.1679 26.6524 -15.5153
v  58.5951 26.6524 -15.5153
v  77.1679 35.3743 -19.7155
v  58.5951 35.3743 -19.7155
v  77.1679 41.4100 -27.2841
v  58.5951 41.4100 -27.2841
v  58.5951 43.5641 138.3738
v  77.1679 43.5641 138.3738
v  77.1679 41.4100 128.9360
v  58.5951 41.4100 128.9360
v  77.1679 35.3742 121.3675
v  58.5951 35.3742 121.3675
v  77.1679 26.6524 117.1673
v  58.5951 26.6524 117.1673
v  77.1679 16.9718 117.1672
v  58.5951 16.9718 117.1672
v  77.1679 8.2500 121.3675
v  58.5951 8.2500 121.3675
v  77.1679 2.2143 128.9360
v  58.5951 2.2143 128.9360
v  77.1679 0.0601 138.3738
v  58.5951 0.0601 138.3738
v  77.1679 2.2143 147.8117
v  58.5951 2.2143 147.8117
v  77.1679 8.2500 155.3802
v  58.5951 8.2500 155.3802
v  77.1679 16.9718 159.5804
v  58.5951 16.9718 159.5804
v  77.1679 26.6524 159.5804
v  58.5951 26.6524 159.5804
v  77.1679 35.3742 155.3802
v  58.5951 35.3742 155.3802
v  77.1679 41.4100 147.8117
v  58.5951 41.4100 147.8117
v  69.6059 42.9466 -4.3909
v  69.6059 93.0919 -4.3909
v  75.0330 93.0919 -2.1430
v  75.0330 42.9466 -2.1430
v  77.2809 42.9466 3.2841
v  75.0330 42.9466 8.7112
v  69.6059 42.9466 10.9591
v  64.1789 42.9466 8.7112
v  61.9309 42.9466 3.2841
v  64.1789 42.9466 -2.1430
v  64.1789 93.0919 -2.1430
v  77.2809 93.0919 3.2841
v  75.0330 93.0919 8.7112
v  69.6059 93.0919 10.9591
v  64.1789 93.0919 8.7112
v  61.9309 93.0919 3.2841
v  69.6059 93.0919 -1.3266
v  72.8662 93.0919 0.0238
v  66.3456 93.0919 0.0238
v  64.9952 93.0919 3.2841
v  74.2166 93.0919 3.2841
v  72.8662 93.0919 6.5444
v  69.6059 93.0919 7.8948
v  66.3456 93.0919 6.5444
v  72.8662 167.9481 0.5500
v  74.2166 164.8576 3.2841
v  69.6059 169.4161 -0.5825
v  66.3456 167.9481 0.5500
v  64.9952 164.8576 3.2841
v  69.6059 160.8428 7.1507
v  66.3456 161.9836 6.0182
v  69.6059 168.7465 0.3633
v  72.0687 167.6841 1.2188
v  67.1431 167.6841 1.2188
v  72.8662 161.9836 6.0182
v  73.0889 165.2907 3.2841
v  66.1230 165.2907 3.2841
v  67.1431 163.0426 5.3495
v  72.0687 163.0426 5.3495
v  69.6059 162.1445 6.2050
v  69.6059 151.2324 0.3633
v  72.0687 150.6267 1.2188
v  67.1431 150.6267 1.2188
v  66.1230 149.1644 3.2841
v  67.1431 147.7021 5.3495
v  69.6059 147.0963 6.2050
v  73.0889 149.1644 3.2841
v  72.0687 147.7021 5.3495
v  -69.5853 43.2240 -4.4293
v  -69.5853 93.1750 -4.4293
v  -64.1311 93.1750 -2.1701
v  -64.1311 43.2240 -2.1701
v  -61.8719 43.2240 3.2841
v  -64.1311 43.2240 8.7382
v  -69.5853 43.2240 10.9975
v  -75.0395 43.2240 8.7382
v  -77.2987 43.2240 3.2841
v  -75.0395 43.2240 -2.1701
v  -75.0395 93.1750 -2.1701
v  -61.8719 93.1750 3.2841
v  -64.1311 93.1750 8.7383
v  -69.5853 93.1750 10.9975
v  -75.0395 93.1750 8.7383
v  -77.2987 93.1750 3.2841
v  -69.5853 93.1750 -1.3497
v  -66.3087 93.1750 0.0075
v  -72.8619 93.1750 0.0075
v  -74.2191 93.1750 3.2841
v  -64.9515 93.1750 3.2841
v  -69.5853 169.2034 -0.6019
v  -66.3087 167.7411 0.5363
v  -66.3087 93.1750 6.5606
v  -69.5853 93.1750 7.9178
v  -72.8619 93.1750 6.5606
v  -74.2191 164.6626 3.2841
v  -72.8619 167.7411 0.5363
v  -64.9515 164.6626 3.2841
v  -66.3087 161.7997 6.0318
v  -69.5853 160.6634 7.1700
v  -72.8619 161.7997 6.0318
v  -72.0604 167.4782 1.2084
v  -69.5853 168.5364 0.3486
v  -73.0857 165.0940 3.2841
v  -72.0604 162.8547 5.3597
v  -67.1102 167.4782 1.2084
v  -66.0849 165.0940 3.2841
v  -67.1102 162.8547 5.3597
v  -69.5853 161.9600 6.2195
v  -69.5853 151.0902 0.3486
v  -67.1102 150.4868 1.2084
v  -72.0604 150.4868 1.2084
v  -73.0857 149.0302 3.2841
v  -72.0604 147.5735 5.3597
v  -69.5853 146.9702 6.2195
v  -66.0849 149.0302 3.2841
v  -67.1102 147.5735 5.3597
v  -66.6851 76.8176 95.8646
v  -66.6851 79.8142 95.8646
v  -60.8735 79.8142 98.2719
v  -60.8735 76.8176 98.2719
v  -58.4662 76.8176 104.0836
v  -60.8735 76.8176 109.8953
v  -66.6851 76.8176 112.3025
v  -72.4968 76.8176 109.8953
v  -74.9041 76.8176 104.0836
v  -72.4968 76.8176 98.2719
v  -72.4968 79.8142 98.2719
v  -74.9041 79.8142 104.0836
v  -72.4968 79.8142 109.8953
v  -66.6851 79.8142 112.3025
v  -60.8735 79.8142 109.8953
v  -58.4662 79.8142 104.0836
v  -66.6851 96.3940 95.8646
v  -66.6851 99.3907 95.8646
v  -60.8735 99.3907 98.2719
v  -60.8735 96.3940 98.2719
v  -58.4662 96.3940 104.0836
v  -60.8735 96.3940 109.8952
v  -66.6851 96.3940 112.3025
v  -72.4968 96.3940 109.8952
v  -74.9041 96.3940 104.0836
v  -72.4968 96.3940 98.2719
v  -72.4968 99.3907 98.2719
v  -74.9041 99.3907 104.0836
v  -72.4968 99.3907 109.8952
v  -66.6851 99.3907 112.3025
v  -60.8735 99.3907 109.8952
v  -58.4662 99.3907 104.0836
v  -66.6851 70.5142 97.2039
v  -66.6851 105.6941 97.2039
v  -61.8205 105.6941 99.2189
v  -61.8205 70.5142 99.2189
v  -59.8055 70.5142 104.0836
v  -61.8205 70.5142 108.9482
v  -66.6851 70.5142 110.9632
v  -71.5498 70.5142 108.9482
v  -73.5648 70.5142 104.0836
v  -71.5498 70.5142 99.2189
v  -71.5498 105.6941 99.2189
v  -73.5648 105.6941 104.0836
v  -71.5498 105.6941 108.9482
v  -66.6851 105.6941 110.9632
v  -61.8205 105.6941 108.9482
v  -59.8055 105.6941 104.0836
v  66.6834 76.8176 95.8646
v  66.6834 79.8142 95.8646
v  72.4950 79.8142 98.2719
v  72.4950 76.8176 98.2719
v  74.9023 76.8176 104.0836
v  72.4950 76.8176 109.8952
v  66.6834 76.8176 112.3025
v  60.8717 76.8176 109.8952
v  58.4644 76.8176 104.0836
v  60.8717 76.8176 98.2719
v  60.8717 79.8142 98.2719
v  58.4644 79.8142 104.0836
v  60.8717 79.8142 109.8952
v  66.6834 79.8142 112.3025
v  72.4950 79.8142 109.8952
v  74.9023 79.8142 104.0836
v  66.6834 96.3940 95.8646
v  66.6834 99.3907 95.8646
v  72.4950 99.3907 98.2719
v  72.4950 96.3940 98.2719
v  74.9023 96.3940 104.0836
v  72.4950 96.3940 109.8952
v  66.6834 96.3940 112.3025
v  60.8717 96.3940 109.8952
v  58.4644 96.3940 104.0836
v  60.8717 96.3940 98.2719
v  60.8717 99.3907 98.2719
v  58.4644 99.3907 104.0836
v  60.8717 99.3907 109.8952
v  66.6834 99.3907 112.3025
v  72.4950 99.3907 109.8952
v  74.9023 99.3907 104.0836
v  66.6834 70.5142 97.2039
v  66.6834 105.6941 97.2039
v  71.5480 105.6941 99.2189
v  71.5480 70.5142 99.2189
v  73.5630 70.5142 104.0836
v  71.5480 70.5142 108.9482
v  66.6834 70.5142 110.9632
v  61.8187 70.5142 108.9482
v  59.8037 70.5142 104.0836
v  61.8187 70.5142 99.2189
v  61.8187 105.6941 99.2189
v  59.8037 105.6941 104.0836
v  61.8187 105.6941 108.9482
v  66.6834 105.6941 110.9632
v  71.5480 105.6941 108.9482
v  73.5630 105.6941 104.0836
v  -65.3051 135.7132 76.4416
v  -72.8320 135.7132 75.0068
v  -72.8320 111.4058 75.0068
v  -65.3051 111.4058 76.4416
v  -73.2981 136.8145 71.9692
v  -73.2981 110.3045 71.9692
v  -63.9061 136.8145 73.7596
v  -63.9061 110.3045 73.7596
v  -69.4764 142.9144 74.0077
v  -68.1970 142.9144 74.0077
v  -68.1970 141.5312 74.0077
v  -69.4764 141.5312 74.0077
v  -68.1970 141.5312 75.3909
v  -61.1613 141.5312 74.0077
v  -61.1613 141.5312 75.3909
v  -68.1970 142.9144 75.3909
v  -69.4764 142.9144 75.3909
v  -69.4764 141.5312 75.3909
v  -69.4764 105.1497 74.0077
v  -69.4764 105.1497 75.3909
v  -61.1613 142.9144 74.0077
v  -61.1613 142.9144 75.3909
v  -69.4764 103.6789 74.0077
v  -69.4764 103.6789 75.3909
v  -68.1970 105.1497 75.3909
v  -68.1970 105.1497 74.0077
v  -68.1970 103.6789 74.0077
v  -68.1970 103.6789 75.3909
v  -61.1711 105.1497 74.0077
v  -61.1711 103.6789 74.0077
v  -61.1711 105.1497 75.3909
v  -61.1711 103.6789 75.3909
v  72.8160 135.7132 75.0721
v  65.2891 135.7132 76.5069
v  65.2891 111.4058 76.5069
v  72.8160 111.4058 75.0721
v  63.8902 136.8145 73.8248
v  63.8902 110.3045 73.8248
v  73.2821 136.8145 72.0345
v  73.2821 110.3045 72.0345
v  69.4602 142.9144 75.3909
v  68.1808 142.9144 75.3909
v  68.1808 141.5312 75.3909
v  69.4602 141.5312 75.3909
v  68.1808 141.5312 74.0077
v  61.1450 141.5312 75.3909
v  61.1450 141.5312 74.0077
v  68.1808 142.9144 74.0077
v  69.4602 142.9144 74.0077
v  69.4602 141.5312 74.0077
v  69.4602 105.1497 75.3909
v  69.4602 105.1497 74.0077
v  61.1450 142.9144 75.3909
v  61.1450 142.9144 74.0077
v  69.4602 103.6789 75.3909
v  69.4602 103.6789 74.0077
v  68.1808 105.1497 74.0077
v  68.1808 105.1497 75.3909
v  68.1808 103.6789 75.3909
v  68.1808 103.6789 74.0077
v  61.1549 105.1497 75.3909
v  61.1549 103.6789 75.3909
v  61.1549 105.1497 74.0077
v  61.1549 103.6789 74.0077
v  -62.3991 95.6441 29.6046
v  -62.3991 95.6442 18.4984
v  -62.3991 93.0458 18.4984
v  -62.3991 93.0458 29.6046
v  -59.9956 95.6441 29.6046
v  -59.9956 93.0458 29.6046
v  -59.9956 95.6442 18.4984
v  -59.9956 93.0458 18.4984
v  59.9937 95.6441 29.6046
v  59.9937 95.6442 18.4984
v  59.9937 93.0458 18.4984
v  59.9937 93.0458 29.6046
v  62.3972 95.6441 29.6046
v  62.3972 93.0458 29.6046
v  62.3972 95.6442 18.4984
v  62.3972 93.0458 18.4984
v  1.5468 89.2206 178.9092
v  1.5468 89.2206 175.1876
v  -1.5487 89.2206 175.1876
v  -1.5487 89.2206 178.9092
v  1.5468 37.3484 178.9091
v  -1.5487 37.3484 178.9091
v  1.5468 37.3484 175.1876
v  -1.5487 37.3484 175.1876
v  -41.9263 47.5758 178.9092
v  -41.9263 47.5759 175.1876
v  -41.9263 44.2294 175.1876
v  -41.9263 44.2294 178.9091
v  41.9245 47.5758 178.9092
v  41.9245 44.2294 178.9091
v  41.9245 47.5759 175.1876
v  41.9245 44.2294 175.1876
v  -41.9263 64.2422 178.9092
v  -41.9263 64.2422 175.1876
v  -41.9263 60.8958 175.1876
v  -41.9263 60.8958 178.9092
v  41.9245 64.2422 178.9092
v  41.9245 60.8958 178.9092
v  41.9245 64.2422 175.1876
v  41.9245 60.8958 175.1876
v  -41.9263 72.5802 178.9092
v  -41.9263 72.5802 175.1876
v  -41.9263 69.2337 175.1876
v  -41.9263 69.2337 178.9092
v  41.9245 72.5802 178.9092
v  41.9245 69.2337 178.9092
v  41.9245 72.5802 175.1876
v  41.9245 69.2337 175.1876
v  -41.9263 80.5247 178.9092
v  -41.9263 80.5247 175.1876
v  -41.9263 77.1782 175.1876
v  -41.9263 77.1782 178.9092
v  41.9245 80.5247 178.9092
v  41.9245 77.1782 178.9092
v  41.9245 80.5247 175.1876
v  41.9245 77.1782 175.1876
v  -41.9263 88.7218 178.9092
v  -41.9263 88.7218 175.1876
v  -41.9263 85.3754 175.1876
v  -41.9263 85.3754 178.9092
v  41.9245 88.7218 178.9092
v  41.9245 85.3754 178.9092
v  41.9245 88.7218 175.1876
v  41.9245 85.3754 175.1876
v  77.3858 45.3962 -361.3281
v  77.3858 45.3962 -346.6172
v  77.3858 21.8067 -346.6172
v  77.3858 21.8067 -361.3281
v  45.0701 45.3962 -362.9533
v  45.0701 21.8067 -362.9533
v  45.0701 45.3962 -348.2425
v  45.0701 21.8067 -348.2425
v  -45.0721 45.3962 -362.9533
v  -45.0721 21.8067 -362.9533
v  -45.0721 45.3962 -348.2425
v  -45.0721 21.8067 -348.2425
v  -77.3878 45.3962 -361.3281
v  -77.3878 21.8067 -361.3281
v  -77.3878 45.3962 -346.6173
v  -77.3878 21.8067 -346.6173
v  -77.0197 62.5387 -7.7998
v  -77.0198 62.5387 -359.1777
v  -77.0198 45.8064 -359.1777
v  -77.0197 45.8064 -7.7998
v  77.0179 62.5387 -7.7998
v  77.0179 45.8064 -7.7998
v  68.0024 62.5387 -17.6684
v  -68.0043 62.5387 -17.6684
v  77.0178 62.5387 -359.1777
v  77.0178 45.8064 -359.1777
v  -77.3877 43.5191 59.5892
v  -77.3878 43.5191 -5.1372
v  -77.3878 21.8121 -5.1372
v  -77.3877 21.8121 59.5892
v  -77.3877 67.5247 94.3675
v  -77.3877 21.8121 94.3675
v  -44.8182 43.5191 59.5892
v  -44.8182 43.5191 -5.1372
v  -44.8182 21.8121 -5.1373
v  -44.8182 21.8121 59.5892
v  -77.3877 21.8121 113.9048
v  -77.3877 27.3970 113.9048
v  -77.3877 37.4607 118.7512
v  -77.3877 44.4250 127.4841
v  -77.3877 46.9105 138.3739
v  -77.3877 44.9224 174.5923
v  -77.3877 27.3970 162.8431
v  -77.3877 21.8121 162.8431
v  -77.3877 21.8121 174.5923
v  -77.3877 37.4607 157.9967
v  -77.3877 44.4250 149.2637
v  -77.3877 67.5247 174.5923
v  -44.8182 67.5247 94.3675
v  -44.8182 21.8121 94.3675
v  -41.0765 43.5191 59.5892
v  -41.0765 43.5191 -5.1372
v  -56.6035 43.5191 -5.1373
v  -56.6035 21.8121 -5.1373
v  -41.0765 21.8121 -5.1373
v  -41.0765 21.8121 59.5892
v  -44.8182 67.5247 177.9197
v  -44.8182 44.9224 177.9197
v  -44.8182 21.8121 113.9048
v  -44.1664 21.8121 113.9048
v  -44.1664 27.3970 113.9048
v  -44.1664 37.4607 118.7512
v  -44.1664 44.4250 127.4841
v  -44.1664 46.9105 138.3739
v  -44.1664 44.4250 149.2637
v  -44.1664 37.4607 157.9967
v  -44.1664 27.3970 162.8431
v  -44.1664 21.8121 162.8431
v  -44.8182 21.8121 162.8431
v  -44.8182 21.8121 177.9197
v  -41.0765 67.5247 94.3675
v  -41.0765 21.8121 94.3675
v  41.0746 43.5191 59.5892
v  41.0746 43.5191 -5.1373
v  -41.0765 45.7679 -5.1372
v  -44.8182 45.7679 -5.1372
v  -44.8183 21.8122 -359.3132
v  -56.6035 21.8122 -359.3132
v  -56.6035 45.7679 -5.1373
v  -56.6035 43.5192 -359.3132
v  -41.0766 21.8122 -359.3132
v  41.0746 21.8121 -5.1373
v  41.0746 21.8121 59.5892
v  -41.0765 67.5247 177.9197
v  -41.0765 44.9224 177.9197
v  -41.0765 21.8121 177.9197
v  41.0746 67.5247 94.3675
v  41.0746 21.8121 94.3675
v  44.8163 43.5191 59.5892
v  44.8163 43.5191 -5.1373
v  41.0746 45.7679 -5.1373
v  -41.0766 45.7679 -359.3132
v  -44.8183 45.7679 -359.3132
v  -44.8183 43.5192 -359.3132
v  -56.6035 45.7679 -359.3132
v  41.0746 21.8122 -359.3132
v  -41.0766 43.5192 -359.3132
v  44.8163 21.8121 -5.1373
v  44.8163 21.8121 59.5892
v  41.0747 67.5247 177.9197
v  41.0747 44.9224 177.9197
v  41.0747 21.8121 177.9197
v  44.8163 67.5247 94.3675
v  44.8163 21.8121 94.3675
v  77.3859 43.5191 59.5891
v  77.3859 43.5191 -5.1373
v  44.8163 45.7679 -5.1373
v  41.0746 45.7679 -359.3132
v  44.8163 21.8122 -359.3132
v  41.0746 43.5192 -359.3132
v  77.3859 21.8121 -5.1373
v  77.3859 21.8121 59.5891
v  44.8163 67.5247 177.9197
v  44.8163 44.9224 177.9197
v  44.1645 21.8121 113.9048
v  44.8163 21.8121 113.9048
v  44.1645 21.8121 162.8431
v  44.8163 21.8121 162.8431
v  44.8163 21.8121 177.9196
v  77.3859 67.5247 94.3675
v  77.3859 21.8121 94.3675
v  56.6016 43.5191 -5.1373
v  56.6016 45.7679 -5.1373
v  44.8163 45.7679 -359.3132
v  56.6016 21.8122 -359.3132
v  56.6016 21.8121 -5.1373
v  44.8163 43.5192 -359.3132
v  77.3859 67.5247 174.5923
v  77.3859 44.9224 174.5923
v  77.3859 21.8121 113.9048
v  44.1645 27.3970 113.9048
v  77.3859 27.3970 113.9048
v  44.1645 37.4607 118.7512
v  44.1645 44.4250 127.4842
v  44.1645 46.9105 138.3739
v  44.1645 44.4250 149.2637
v  44.1645 37.4607 157.9967
v  44.1645 27.3970 162.8431
v  77.3859 27.3970 162.8431
v  77.3859 21.8121 162.8431
v  77.3859 21.8121 174.5923
v  56.6016 45.7679 -359.3132
v  56.6016 43.5192 -359.3132
v  77.3859 44.4250 149.2637
v  77.3859 37.4607 157.9967
v  77.3859 46.9105 138.3739
v  77.3859 44.4250 127.4842
v  77.3859 37.4607 118.7512
v  42.1379 41.5945 -124.0755
v  42.1379 41.5945 -224.2241
v  42.1379 8.1299 -224.2241
v  42.1379 8.1299 -124.0755
v  73.0926 41.5945 -124.0755
v  73.0926 8.1299 -124.0755
v  73.0926 41.5945 -224.2241
v  73.0926 8.1299 -224.2241
v  -73.0945 41.5945 -124.0755
v  -73.0945 41.5945 -224.2241
v  -73.0945 8.1299 -224.2241
v  -73.0945 8.1299 -124.0755
v  -42.1398 41.5945 -124.0755
v  -42.1398 8.1299 -124.0755
v  -42.1398 41.5945 -224.2241
v  -42.1398 8.1299 -224.2241
v  68.0024 62.5387 -349.3091
v  -68.0043 62.5387 -349.3091
v  -35.4705 89.2206 178.9092
v  -35.4705 89.2206 175.1876
v  -38.5660 89.2206 175.1876
v  -38.5660 89.2206 178.9092
v  -35.4705 37.3484 178.9091
v  -38.5660 37.3484 178.9091
v  -35.4705 37.3484 175.1876
v  -38.5660 37.3484 175.1876
v  38.5715 89.2206 178.9092
v  38.5715 89.2206 175.1876
v  35.4760 89.2206 175.1876
v  35.4760 89.2206 178.9092
v  38.5715 37.3484 178.9091
v  35.4760 37.3484 178.9091
v  38.5715 37.3484 175.1876
v  35.4760 37.3484 175.1876
v  -41.9263 56.0908 178.9092
v  -41.9263 56.0908 175.1876
v  -41.9263 52.7443 175.1876
v  -41.9263 52.7443 178.9092
v  41.9245 56.0908 178.9092
v  41.9245 52.7443 178.9092
v  41.9245 56.0908 175.1876
v  41.9245 52.7443 175.1876
v  -0.0009 21.8121 -5.1373
v  -0.0009 21.8121 95.2564
v  -61.9104 21.8121 95.2564
v  -61.9104 21.8121 -5.1373
v  -0.0009 48.1133 -5.1372
v  -61.9104 48.1133 -5.1372
v  61.9085 21.8121 -5.1373
v  61.9085 21.8121 95.2564
v  -0.0009 21.8121 178.9179
v  -45.0800 21.8121 178.9179
v  -61.9104 48.1133 95.2564
v  -0.0009 102.2980 -5.1372
v  -61.9104 102.2980 -5.1372
v  61.9085 48.1133 -5.1373
v  61.9085 48.1133 95.2564
v  45.0781 21.8121 178.9178
v  -45.0800 40.5292 178.9178
v  -0.0009 40.5361 178.9179
v  -61.9104 102.2980 95.2564
v  -61.9104 144.1288 -5.1372
v  -0.0009 144.1288 -5.1372
v  -0.0009 136.0028 -5.1372
v  -41.7436 136.0028 -5.1372
v  -41.7436 112.1164 -5.1372
v  -0.0009 112.1164 -5.1372
v  61.9085 102.2980 -5.1372
v  61.9085 102.2980 95.2565
v  45.0781 40.5292 178.9179
v  -45.0800 93.9319 178.9178
v  -0.0009 44.2864 178.9179
v  -38.5323 44.2804 178.9178
v  -61.9104 105.6903 89.9758
v  -61.9104 105.6903 8.7306
v  -61.9104 141.1359 8.7306
v  41.7418 112.1164 -5.1372
v  41.7418 136.0028 -5.1372
v  61.9085 144.1288 -5.1372
v  -61.9104 144.1288 76.0910
v  -0.0010 144.1288 76.0910
v  61.9085 141.1359 8.7306
v  61.9085 105.6903 8.7306
v  61.9085 105.6903 89.9758
v  45.0781 93.9319 178.9179
v  38.5304 44.2804 178.9179
v  -0.0010 99.4775 178.9178
v  -0.0010 102.2980 95.2564
v  -38.5323 88.7063 178.9178
v  -0.0009 44.2864 177.9892
v  -38.5323 44.2804 177.9892
v  -61.9104 141.1359 73.7718
v  -61.2035 105.6903 89.9758
v  -61.2036 105.6903 8.7306
v  -61.2036 141.1359 8.7306
v  61.9085 144.1288 76.0910
v  -57.7112 141.1661 77.4484
v  -1.1725 141.1661 77.4484
v  -57.7112 105.5200 93.7802
v  61.9085 141.1358 73.7718
v  61.2017 141.1359 8.7306
v  61.2017 105.6903 8.7306
v  61.2017 105.6903 89.9758
v  38.5304 88.7063 178.9179
v  38.5304 44.2804 177.9893
v  -1.1725 105.5200 93.7803
v  -0.0010 88.6909 178.9178
v  -38.5323 88.7063 177.9892
v  -0.0010 88.6909 177.9892
v  -61.2035 141.1359 73.7718
v  61.2017 141.1358 73.7718
v  57.7093 105.5200 93.7803
v  1.1706 105.5200 93.7803
v  57.7093 141.1661 77.4484
v  38.5304 88.7063 177.9893
v  -57.7112 105.1597 93.0032
v  -57.7112 140.7309 76.5098
v  -1.1725 140.7309 76.5098
v  -1.1725 105.1597 93.0032
v  1.1706 141.1661 77.4484
v  1.1706 140.7309 76.5098
v  57.7093 140.7309 76.5098
v  57.7093 105.1597 93.0032
v  1.1706 105.1597 93.0032
v  -41.7436 136.0028 -4.3260
v  -41.7436 112.1164 -4.3260
v  41.7418 112.1164 -4.3260
v  41.7418 136.0028 -4.3260
v  -77.4910 38.0648 179.7892
v  -77.4910 38.0648 164.6252
v  -77.4910 21.6588 164.6252
v  -77.4910 21.6588 179.7892
v  -45.1322 38.0648 183.4863
v  -45.1322 21.6588 183.4863
v  -45.1322 38.0648 168.3222
v  -45.1322 21.6588 168.3222
v  45.1303 38.0648 183.4863
v  45.1303 21.6588 183.4863
v  45.1303 38.0648 168.3222
v  45.1303 21.6588 168.3222
v  77.4892 38.0648 179.7892
v  77.4892 21.6588 179.7892
v  77.4892 38.0648 164.6252
v  77.4892 21.6588 164.6252
# 892 vertices

vn 0.0000 0.9749 -0.2225
vn 0.0000 0.7818 -0.6235
vn 0.0000 0.4339 -0.9010
vn 0.0000 0.0000 -1.0000
vn 0.0000 -0.4339 -0.9010
vn 0.0000 -0.7818 -0.6235
vn 0.0000 -0.9749 -0.2225
vn 0.0000 -0.9749 0.2225
vn 0.0000 -0.7818 0.6235
vn 0.0000 -0.4339 0.9010
vn 0.0000 -0.0000 1.0000
vn 0.0000 0.4339 0.9010
vn 1.0000 0.0000 -0.0000
vn 0.0000 0.7818 0.6235
vn 0.0000 0.9749 0.2225
vn -1.0000 -0.0000 0.0000
vn -1.0000 -0.0000 -0.0000
vn -1.0000 0.0000 -0.0000
vn 1.0000 -0.0000 -0.0000
vn 0.0000 -0.0000 -1.0000
vn -0.0000 -0.7818 -0.6235
vn -0.0000 -0.9749 -0.2225
vn 0.0000 0.0000 1.0000
vn -0.0000 -0.0000 -1.0000
vn -0.0000 -0.4339 -0.9010
vn -1.0000 0.0000 0.0000
vn -0.0000 -0.9749 0.2225
vn 0.3827 0.0000 -0.9239
vn 0.0000 -1.0000 -0.0000
vn -0.3827 0.0000 -0.9239
vn 0.9239 0.0000 -0.3827
vn 0.9239 -0.0000 0.3827
vn 0.3827 -0.0000 0.9239
vn -0.3827 -0.0000 0.9239
vn -0.9239 -0.0000 0.3827
vn -0.9239 0.0000 -0.3827
vn 0.0000 1.0000 0.0000
vn 0.9120 0.0015 -0.4102
vn 0.3574 0.0078 -0.9339
vn -0.3574 0.0078 -0.9339
vn -0.9120 0.0015 -0.4102
vn -0.3545 0.0087 0.9350
vn -0.9114 0.0015 0.4114
vn 0.1679 0.8152 0.5543
vn -0.1679 0.8152 0.5543
vn 0.9114 0.0015 0.4114
vn 0.3545 0.0087 0.9350
vn 0.2889 0.6982 0.6551
vn -0.2889 0.6982 0.6551
vn -0.2120 0.6142 0.7602
vn 0.2120 0.6142 0.7602
vn 0.0751 0.5801 0.8111
vn -0.0751 0.5801 0.8111
vn -0.3281 -0.0000 0.9446
vn 0.3281 -0.0000 0.9446
vn 0.8966 -0.0000 0.4429
vn 0.8966 0.0000 -0.4429
vn 0.3281 0.0000 -0.9446
vn -0.8966 -0.0000 0.4429
vn 0.0000 0.8161 0.5779
vn 0.0000 0.8161 0.5778
vn -0.8966 0.0000 -0.4429
vn -0.3281 0.0000 -0.9446
vn 0.3574 0.0079 -0.9339
vn -0.3574 0.0079 -0.9339
vn 0.9114 0.0016 0.4114
vn 0.3545 0.0088 0.9350
vn -0.9114 0.0016 0.4114
vn -0.1669 0.8176 0.5510
vn -0.2876 0.7013 0.6522
vn -0.3545 0.0088 0.9350
vn -0.2113 0.6176 0.7576
vn 0.2876 0.7013 0.6522
vn 0.1669 0.8176 0.5510
vn 0.2113 0.6176 0.7576
vn 0.0749 0.5835 0.8087
vn -0.0749 0.5835 0.8087
vn -0.3281 0.0000 0.9446
vn 0.3281 0.0000 0.9446
vn 0.0000 0.8185 0.5744
vn 0.0000 0.8186 0.5744
vn -0.0000 0.8185 0.5744
vn -0.0000 -1.0000 0.0000
vn 0.0000 -1.0000 0.0000
vn 0.0000 1.0000 -0.0000
vn -0.0000 1.0000 -0.0000
vn 0.3827 -0.0000 -0.9239
vn -0.3827 -0.0000 -0.9239
vn -0.0000 1.0000 0.0000
vn 0.9239 -0.0000 -0.3827
vn 0.9239 0.0000 0.3827
vn 0.3827 0.0000 0.9239
vn -0.3827 0.0000 0.9239
vn -0.9239 0.0000 0.3827
vn -0.9239 -0.0000 -0.3827
vn -0.1873 -0.0000 0.9823
vn -0.9884 -0.0000 0.1517
vn 0.1873 0.0000 -0.9823
vn 0.8866 -0.0000 0.4625
vn -0.0665 -0.9347 0.3491
vn -0.0665 0.9347 0.3491
vn -0.0000 0.0000 -1.0000
vn 0.1873 -0.0000 0.9823
vn -0.8866 -0.0000 0.4625
vn -0.1873 0.0000 -0.9823
vn 0.9884 -0.0000 0.1517
vn 0.0665 -0.9347 0.3491
vn 0.0665 0.9347 0.3491
vn 0.0502 0.0000 -0.9987
vn -0.0502 -0.0000 0.9987
vn -0.0502 0.0000 -0.9987
vn 0.0502 -0.0000 0.9987
vn -0.0000 -1.0000 -0.0000
vn -0.0000 0.8230 -0.5681
vn -0.0000 -0.0000 1.0000
vn -0.1016 -0.0000 0.9948
vn 0.0000 0.8230 -0.5681
vn 0.1016 -0.0000 0.9948
vn 1.0000 0.0000 0.0000
vn 1.0000 -0.0000 0.0000
vn -0.9804 -0.0000 0.1972
vn -0.0000 0.0000 1.0000
vn 0.9804 0.0000 0.1972
vn 0.9804 -0.0000 0.1972
vn -0.0516 0.9961 0.0718
vn -0.0002 1.0000 0.0000
vn -0.0000 0.4165 0.9091
vn 0.0516 0.9961 0.0718
vn 0.0002 1.0000 0.0000
vn 0.0000 -0.4158 -0.9095
vn -0.0004 -1.0000 -0.0000
vn 0.0000 -0.9072 0.4206
vn 0.0004 -1.0000 -0.0000
vn 0.0000 0.9072 -0.4206
vn 0.0000 0.4165 0.9091
vn 0.0000 -0.9072 0.4207
vn 0.0000 0.4207 0.9072
vn -0.0000 0.9072 -0.4206
vn -0.1135 -0.0000 0.9935
vn 0.1135 0.0000 -0.9935
vn 0.1135 -0.0000 0.9935
vn -0.1135 0.0000 -0.9935
# 142 vertex normals

vt 0.8483 0.2017 0.0000
vt 0.8858 0.1931 0.0000
vt 0.9158 0.1692 0.0000
vt 0.9324 0.1346 0.0000
vt 0.9324 0.0962 0.0000
vt 0.9158 0.0617 0.0000
vt 0.8858 0.0377 0.0000
vt 0.8483 0.0292 0.0000
vt 0.8109 0.0377 0.0000
vt 0.7809 0.0617 0.0000
vt 0.7642 0.0962 0.0000
vt 0.7642 0.1346 0.0000
vt 0.7809 0.1692 0.0000
vt 0.8109 0.1931 0.0000
vt 0.4378 0.0781 0.0000
vt 0.4878 0.0781 0.0000
vt 0.4878 0.1281 0.0000
vt 0.4378 0.1281 0.0000
vt 0.4628 0.1281 0.0000
vt 0.4805 0.1208 0.0000
vt 0.4878 0.1031 0.0000
vt 0.4805 0.0855 0.0000
vt 0.4628 0.0781 0.0000
vt 0.4451 0.0855 0.0000
vt 0.4378 0.1031 0.0000
vt 0.4451 0.1208 0.0000
vt 0.4378 0.0782 0.0000
vt 0.3374 0.1277 0.0000
vt 0.3390 0.1277 0.0000
vt 0.3390 0.0994 0.0000
vt 0.3374 0.0994 0.0000
vt 0.3426 0.1289 0.0000
vt 0.3426 0.0982 0.0000
vt 0.3405 0.1289 0.0000
vt 0.3405 0.0982 0.0000
vt 0.3402 0.1360 0.0000
vt 0.3402 0.1344 0.0000
vt 0.3386 0.1344 0.0000
vt 0.3386 0.1360 0.0000
vt 0.3402 0.0922 0.0000
vt 0.3386 0.0922 0.0000
vt 0.3402 0.0905 0.0000
vt 0.3386 0.0905 0.0000
vt 0.3389 0.1277 0.0000
vt 0.3373 0.1277 0.0000
vt 0.3373 0.0994 0.0000
vt 0.3389 0.0994 0.0000
vt 0.3404 0.1289 0.0000
vt 0.3404 0.0982 0.0000
vt 0.3425 0.1289 0.0000
vt 0.3425 0.0982 0.0000
vt 0.3208 0.1725 0.0000
vt 0.3442 0.1725 0.0000
vt 0.3442 0.1670 0.0000
vt 0.3208 0.1670 0.0000
vt 0.5302 0.1264 0.0000
vt 0.5802 0.1264 0.0000
vt 0.5802 0.1764 0.0000
vt 0.5302 0.1764 0.0000
vt 0.3705 0.3172 0.0000
vt 0.3705 0.3113 0.0000
vt 0.3665 0.3436 0.0000
vt 0.2661 0.3436 0.0000
vt 0.2661 0.2757 0.0000
vt 0.3665 0.2757 0.0000
vt 0.3792 0.3172 0.0000
vt 0.3792 0.3113 0.0000
vt 0.6467 0.3436 0.0000
vt 0.6467 0.2757 0.0000
vt 0.4034 0.3172 0.0000
vt 0.4034 0.3113 0.0000
vt 0.7472 0.3436 0.0000
vt 0.7472 0.2757 0.0000
vt 0.4121 0.3172 0.0000
vt 0.4121 0.3113 0.0000
vt 0.2634 0.9578 0.0000
vt 0.9640 0.9578 0.0000
vt 0.9640 0.9244 0.0000
vt 0.2634 0.9244 0.0000
vt 0.4409 0.5122 0.0000
vt 0.4909 0.5122 0.0000
vt 0.4909 0.5622 0.0000
vt 0.4409 0.5622 0.0000
vt 0.9650 0.9049 0.0000
vt 0.6327 0.9049 0.0000
vt 0.6327 0.8716 0.0000
vt 0.9650 0.8716 0.0000
vt 0.0978 0.7263 0.0000
vt 0.1365 0.7263 0.0000
vt 0.1365 0.7651 0.0000
vt 0.0978 0.7651 0.0000
vt 0.1262 0.7629 0.0000
vt 0.1331 0.7567 0.0000
vt 0.1364 0.7480 0.0000
vt 0.1353 0.7388 0.0000
vt 0.1300 0.7312 0.0000
vt 0.1218 0.7269 0.0000
vt 0.1125 0.7269 0.0000
vt 0.1127 0.7640 0.0000
vt 0.0979 0.7480 0.0000
vt 0.1012 0.7567 0.0000
vt 0.1082 0.7629 0.0000
vt 0.0991 0.7388 0.0000
vt 0.1043 0.7312 0.0000
vt 0.1172 0.7651 0.0000
vt 0.1747 0.9451 0.0000
vt 0.0646 0.9451 0.0000
vt 0.0646 0.8744 0.0000
vt 0.1747 0.8744 0.0000
vt 0.1356 0.7517 0.0000
vt 0.1285 0.7300 0.0000
vt 0.1058 0.7300 0.0000
vt 0.0987 0.7517 0.0000
vt 0.1748 0.8744 0.0000
vt 0.0645 0.8744 0.0000
vt 0.0645 0.8021 0.0000
vt 0.1748 0.8021 0.0000
vt 0.1365 0.7457 0.0000
vt 0.0978 0.7457 0.0000
vt 0.1309 0.7594 0.0000
vt 0.1309 0.7320 0.0000
vt 0.1172 0.7263 0.0000
vt 0.1035 0.7320 0.0000
vt 0.1035 0.7594 0.0000
vt 0.1296 0.7605 0.0000
vt 0.1362 0.7491 0.0000
vt 0.1339 0.7360 0.0000
vt 0.1238 0.7275 0.0000
vt 0.1105 0.7275 0.0000
vt 0.1004 0.7360 0.0000
vt 0.0981 0.7491 0.0000
vt 0.1047 0.7605 0.0000
vt 0.1746 0.9451 0.0000
vt 0.0645 0.9451 0.0000
vt 0.1746 0.8744 0.0000
vt 0.0646 0.8021 0.0000
vt 0.1296 0.7598 0.0000
vt 0.0384 0.4935 0.0000
vt 0.3260 0.4935 0.0000
vt 0.3260 0.3974 0.0000
vt 0.0384 0.3974 0.0000
vt 0.3006 0.0717 0.0000
vt 0.3506 0.0717 0.0000
vt 0.3506 0.1217 0.0000
vt 0.3006 0.1217 0.0000
vt 0.4409 0.5525 0.0000
vt 0.4746 0.5525 0.0000
vt 0.4746 0.5239 0.0000
vt 0.4409 0.5239 0.0000
vt 0.4429 0.5127 0.0000
vt 0.4929 0.5127 0.0000
vt 0.4929 0.5627 0.0000
vt 0.4429 0.5627 0.0000
vt 0.4659 0.5622 0.0000
vt 0.4875 0.5497 0.0000
vt 0.4875 0.5247 0.0000
vt 0.4659 0.5122 0.0000
vt 0.4442 0.5247 0.0000
vt 0.4442 0.5497 0.0000
vt 0.4909 0.5239 0.0000
vt 0.4572 0.5239 0.0000
vt 0.4572 0.5525 0.0000
vt 0.4909 0.5525 0.0000
vt 0.2921 0.0688 0.0000
vt 0.3421 0.0688 0.0000
vt 0.3421 0.1188 0.0000
vt 0.2921 0.1188 0.0000
vt 0.1278 0.0937 0.0000
vt 0.1778 0.0937 0.0000
vt 0.1778 0.1437 0.0000
vt 0.1278 0.1437 0.0000
vt 0.0000 0.0000 0.0000
vt 0.1519 0.1209 0.0000
vt 0.5270 0.3967 0.0000
vt 0.5506 0.3967 0.0000
vt 0.5506 0.4203 0.0000
vt 0.5270 0.4203 0.0000
vt 0.5620 0.4438 0.0000
vt 0.4601 0.4438 0.0000
vt 0.4601 0.3750 0.0000
vt 0.5620 0.3750 0.0000
vt 0.8463 0.4438 0.0000
vt 0.8463 0.3750 0.0000
vt 0.9482 0.4438 0.0000
vt 0.9482 0.3750 0.0000
# 185 texture coords

g SPW_Vehicle_Land_Static_Truck_Empty
usemtl SPW_Vehicle_Land_Truck_Empty
s off
f 1/1/1 2/1/1 3/2/1 4/2/1 
f 4/2/2 3/2/2 5/3/2 6/3/2 
f 6/3/3 5/3/3 7/4/3 8/4/3 
f 8/4/4 7/4/4 9/5/4 10/5/4 
f 10/5/5 9/5/5 11/6/5 12/6/5 
f 12/6/6 11/6/6 13/7/6 14/7/6 
f 14/7/7 13/7/7 15/8/7 16/8/7 
f 16/8/8 15/8/8 17/9/8 18/9/8 
f 18/9/9 17/9/9 19/10/9 20/10/9 
f 20/10/10 19/10/10 21/11/10 22/11/10 
f 22/11/11 21/11/11 23/12/11 24/12/11 
f 24/12/12 23/12/12 25/13/12 26/13/12 
f 3/2/13 2/1/13 27/14/13 25/13/13 
f 3/2/13 25/13/13 23/12/13 21/11/13 
f 3/2/13 21/11/13 19/10/13 17/9/13 
f 3/2/13 17/9/13 15/8/13 13/7/13 
f 3/2/13 13/7/13 11/6/13 9/5/13 
f 3/2/13 9/5/13 7/4/13 5/3/13 
f 26/13/14 25/13/14 27/14/14 28/14/14 
f 28/14/15 27/14/15 2/1/15 1/1/15 
f 1/1/16 4/2/16 6/3/16 8/4/16 
f 1/1/17 8/4/17 10/5/17 12/6/17 
f 1/1/17 12/6/17 14/7/17 16/8/17 
f 1/1/17 16/8/17 18/9/17 20/10/17 
f 1/1/18 20/10/18 22/11/18 24/12/18 
f 1/1/18 24/12/18 26/13/18 28/14/18 
f 29/1/1 30/1/1 31/2/1 32/2/1 
f 32/2/2 31/2/2 33/3/2 34/3/2 
f 34/3/3 33/3/3 35/4/3 36/4/3 
f 36/4/4 35/4/4 37/5/4 38/5/4 
f 38/5/5 37/5/5 39/6/5 40/6/5 
f 40/6/6 39/6/6 41/7/6 42/7/6 
f 42/7/7 41/7/7 43/8/7 44/8/7 
f 44/8/8 43/8/8 45/9/8 46/9/8 
f 46/9/9 45/9/9 47/10/9 48/10/9 
f 48/10/10 47/10/10 49/11/10 50/11/10 
f 50/11/11 49/11/11 51/12/11 52/12/11 
f 52/12/12 51/12/12 53/13/12 54/13/12 
f 31/2/19 30/1/19 55/14/19 53/13/19 
f 31/2/19 53/13/19 51/12/19 49/11/19 
f 31/2/13 49/11/13 47/10/13 45/9/13 
f 31/2/13 45/9/13 43/8/13 41/7/13 
f 31/2/13 41/7/13 39/6/13 37/5/13 
f 31/2/13 37/5/13 35/4/13 33/3/13 
f 54/13/14 53/13/14 55/14/14 56/14/14 
f 56/14/15 55/14/15 30/1/15 29/1/15 
f 29/1/16 32/2/16 34/3/16 36/4/16 
f 29/1/18 36/4/18 38/5/18 40/6/18 
f 29/1/16 40/6/16 42/7/16 44/8/16 
f 29/1/17 44/8/17 46/9/17 48/10/17 
f 29/1/18 48/10/18 50/11/18 52/12/18 
f 29/1/18 52/12/18 54/13/18 56/14/18 
f 57/1/1 58/1/1 59/2/1 60/2/1 
f 60/2/2 59/2/2 61/3/2 62/3/2 
f 62/3/3 61/3/3 63/4/3 64/4/3 
f 64/4/20 63/4/20 65/5/20 66/5/20 
f 66/5/5 65/5/5 67/6/5 68/6/5 
f 68/6/21 67/6/21 69/7/21 70/7/21 
f 70/7/22 69/7/22 71/8/22 72/8/22 
f 72/8/8 71/8/8 73/9/8 74/9/8 
f 74/9/9 73/9/9 75/10/9 76/10/9 
f 76/10/10 75/10/10 77/11/10 78/11/10 
f 78/11/23 77/11/23 79/12/23 80/12/23 
f 80/12/12 79/12/12 81/13/12 82/13/12 
f 59/2/19 58/1/19 83/14/19 81/13/19 
f 59/2/19 81/13/19 79/12/19 77/11/19 
f 59/2/13 77/11/13 75/10/13 73/9/13 
f 59/2/13 73/9/13 71/8/13 69/7/13 
f 59/2/13 69/7/13 67/6/13 65/5/13 
f 59/2/13 65/5/13 63/4/13 61/3/13 
f 82/13/14 81/13/14 83/14/14 84/14/14 
f 84/14/15 83/14/15 58/1/15 57/1/15 
f 57/1/16 60/2/16 62/3/16 64/4/16 
f 57/1/16 64/4/16 66/5/16 68/6/16 
f 57/1/18 68/6/18 70/7/18 72/8/18 
f 57/1/18 72/8/18 74/9/18 76/10/18 
f 57/1/18 76/10/18 78/11/18 80/12/18 
f 57/1/18 80/12/18 82/13/18 84/14/18 
f 85/1/1 86/1/1 87/2/1 88/2/1 
f 88/2/2 87/2/2 89/3/2 90/3/2 
f 90/3/3 89/3/3 91/4/3 92/4/3 
f 92/4/24 91/4/24 93/5/24 94/5/24 
f 94/5/25 93/5/25 95/6/25 96/6/25 
f 96/6/6 95/6/6 97/7/6 98/7/6 
f 98/7/7 97/7/7 99/8/7 100/8/7 
f 100/8/8 99/8/8 101/9/8 102/9/8 
f 102/9/9 101/9/9 103/10/9 104/10/9 
f 104/10/10 103/10/10 105/11/10 106/11/10 
f 106/11/11 105/11/11 107/12/11 108/12/11 
f 108/12/12 107/12/12 109/13/12 110/13/12 
f 87/2/13 86/1/13 111/14/13 109/13/13 
f 87/2/19 109/13/19 107/12/19 105/11/19 
f 87/2/13 105/11/13 103/10/13 101/9/13 
f 87/2/19 101/9/19 99/8/19 97/7/19 
f 87/2/13 97/7/13 95/6/13 93/5/13 
f 87/2/13 93/5/13 91/4/13 89/3/13 
f 110/13/14 109/13/14 111/14/14 112/14/14 
f 112/14/15 111/14/15 86/1/15 85/1/15 
f 85/1/18 88/2/18 90/3/18 92/4/18 
f 85/1/18 92/4/18 94/5/18 96/6/18 
f 85/1/17 96/6/17 98/7/17 100/8/17 
f 85/1/16 100/8/16 102/9/16 104/10/16 
f 85/1/16 104/10/16 106/11/16 108/12/16 
f 85/1/26 108/12/26 110/13/26 112/14/26 
f 113/1/1 114/1/1 115/2/1 116/2/1 
f 116/2/2 115/2/2 117/3/2 118/3/2 
f 118/3/3 117/3/3 119/4/3 120/4/3 
f 120/4/4 119/4/4 121/5/4 122/5/4 
f 122/5/5 121/5/5 123/6/5 124/6/5 
f 124/6/6 123/6/6 125/7/6 126/7/6 
f 126/7/7 125/7/7 127/8/7 128/8/7 
f 128/8/8 127/8/8 129/9/8 130/9/8 
f 130/9/9 129/9/9 131/10/9 132/10/9 
f 132/10/10 131/10/10 133/11/10 134/11/10 
f 134/11/11 133/11/11 135/12/11 136/12/11 
f 136/12/12 135/12/12 137/13/12 138/13/12 
f 115/2/13 114/1/13 139/14/13 137/13/13 
f 115/2/13 137/13/13 135/12/13 133/11/13 
f 115/2/19 133/11/19 131/10/19 129/9/19 
f 115/2/13 129/9/13 127/8/13 125/7/13 
f 115/2/13 125/7/13 123/6/13 121/5/13 
f 115/2/13 121/5/13 119/4/13 117/3/13 
f 138/13/14 137/13/14 139/14/14 140/14/14 
f 140/14/15 139/14/15 114/1/15 113/1/15 
f 113/1/18 116/2/18 118/3/18 120/4/18 
f 113/1/18 120/4/18 122/5/18 124/6/18 
f 113/1/18 124/6/18 126/7/18 128/8/18 
f 113/1/18 128/8/18 130/9/18 132/10/18 
f 113/1/18 132/10/18 134/11/18 136/12/18 
f 113/1/18 136/12/18 138/13/18 140/14/18 
f 141/1/1 142/1/1 143/2/1 144/2/1 
f 144/2/2 143/2/2 145/3/2 146/3/2 
f 146/3/3 145/3/3 147/4/3 148/4/3 
f 148/4/4 147/4/4 149/5/4 150/5/4 
f 150/5/5 149/5/5 151/6/5 152/6/5 
f 152/6/6 151/6/6 153/7/6 154/7/6 
f 154/7/7 153/7/7 155/8/7 156/8/7 
f 156/8/8 155/8/8 157/9/8 158/9/8 
f 158/9/9 157/9/9 159/10/9 160/10/9 
f 160/10/10 159/10/10 161/11/10 162/11/10 
f 162/11/11 161/11/11 163/12/11 164/12/11 
f 164/12/12 163/12/12 165/13/12 166/13/12 
f 143/2/13 142/1/13 167/14/13 165/13/13 
f 143/2/13 165/13/13 163/12/13 161/11/13 
f 143/2/13 161/11/13 159/10/13 157/9/13 
f 143/2/13 157/9/13 155/8/13 153/7/13 
f 143/2/13 153/7/13 151/6/13 149/5/13 
f 143/2/13 149/5/13 147/4/13 145/3/13 
f 166/13/14 165/13/14 167/14/14 168/14/14 
f 168/14/15 167/14/15 142/1/15 141/1/15 
f 141/1/18 144/2/18 146/3/18 148/4/18 
f 141/1/18 148/4/18 150/5/18 152/6/18 
f 141/1/18 152/6/18 154/7/18 156/8/18 
f 141/1/18 156/8/18 158/9/18 160/10/18 
f 141/1/18 160/10/18 162/11/18 164/12/18 
f 141/1/18 164/12/18 166/13/18 168/14/18 
f 169/1/1 170/1/1 171/2/1 172/2/1 
f 172/2/2 171/2/2 173/3/2 174/3/2 
f 174/3/3 173/3/3 175/4/3 176/4/3 
f 176/4/4 175/4/4 177/5/4 178/5/4 
f 178/5/5 177/5/5 179/6/5 180/6/5 
f 180/6/6 179/6/6 181/7/6 182/7/6 
f 182/7/7 181/7/7 183/8/7 184/8/7 
f 184/8/8 183/8/8 185/9/8 186/9/8 
f 186/9/9 185/9/9 187/10/9 188/10/9 
f 188/10/10 187/10/10 189/11/10 190/11/10 
f 190/11/11 189/11/11 191/12/11 192/12/11 
f 192/12/12 191/12/12 193/13/12 194/13/12 
f 171/2/13 170/1/13 195/14/13 193/13/13 
f 171/2/13 193/13/13 191/12/13 189/11/13 
f 171/2/13 189/11/13 187/10/13 185/9/13 
f 171/2/13 185/9/13 183/8/13 181/7/13 
f 171/2/13 181/7/13 179/6/13 177/5/13 
f 171/2/19 177/5/19 175/4/19 173/3/19 
f 194/13/14 193/13/14 195/14/14 196/14/14 
f 196/14/15 195/14/15 170/1/15 169/1/15 
f 169/1/16 172/2/16 174/3/16 176/4/16 
f 169/1/16 176/4/16 178/5/16 180/6/16 
f 169/1/18 180/6/18 182/7/18 184/8/18 
f 169/1/18 184/8/18 186/9/18 188/10/18 
f 169/1/18 188/10/18 190/11/18 192/12/18 
f 169/1/18 192/12/18 194/13/18 196/14/18 
f 197/1/1 198/1/1 199/2/1 200/2/1 
f 200/2/2 199/2/2 201/3/2 202/3/2 
f 202/3/3 201/3/3 203/4/3 204/4/3 
f 204/4/20 203/4/20 205/5/20 206/5/20 
f 206/5/25 205/5/25 207/6/25 208/6/25 
f 208/6/21 207/6/21 209/7/21 210/7/21 
f 210/7/7 209/7/7 211/8/7 212/8/7 
f 212/8/8 211/8/8 213/9/8 214/9/8 
f 214/9/9 213/9/9 215/10/9 216/10/9 
f 216/10/10 215/10/10 217/11/10 218/11/10 
f 218/11/23 217/11/23 219/12/23 220/12/23 
f 220/12/12 219/12/12 221/13/12 222/13/12 
f 199/2/13 198/1/13 223/14/13 221/13/13 
f 199/2/13 221/13/13 219/12/13 217/11/13 
f 199/2/13 217/11/13 215/10/13 213/9/13 
f 199/2/13 213/9/13 211/8/13 209/7/13 
f 199/2/13 209/7/13 207/6/13 205/5/13 
f 199/2/13 205/5/13 203/4/13 201/3/13 
f 222/13/14 221/13/14 223/14/14 224/14/14 
f 224/14/15 223/14/15 198/1/15 197/1/15 
f 197/1/16 200/2/16 202/3/16 204/4/16 
f 197/1/18 204/4/18 206/5/18 208/6/18 
f 197/1/18 208/6/18 210/7/18 212/8/18 
f 197/1/18 212/8/18 214/9/18 216/10/18 
f 197/1/18 216/10/18 218/11/18 220/12/18 
f 197/1/18 220/12/18 222/13/18 224/14/18 
f 225/1/1 226/1/1 227/2/1 228/2/1 
f 228/2/2 227/2/2 229/3/2 230/3/2 
f 230/3/3 229/3/3 231/4/3 232/4/3 
f 232/4/20 231/4/20 233/5/20 234/5/20 
f 234/5/5 233/5/5 235/6/5 236/6/5 
f 236/6/6 235/6/6 237/7/6 238/7/6 
f 238/7/7 237/7/7 239/8/7 240/8/7 
f 240/8/8 239/8/8 241/9/8 242/9/8 
f 242/9/9 241/9/9 243/10/9 244/10/9 
f 244/10/10 243/10/10 245/11/10 246/11/10 
f 246/11/11 245/11/11 247/12/11 248/12/11 
f 248/12/12 247/12/12 249/13/12 250/13/12 
f 227/2/13 226/1/13 251/14/13 249/13/13 
f 227/2/19 249/13/19 247/12/19 245/11/19 
f 227/2/13 245/11/13 243/10/13 241/9/13 
f 227/2/19 241/9/19 239/8/19 237/7/19 
f 227/2/13 237/7/13 235/6/13 233/5/13 
f 227/2/13 233/5/13 231/4/13 229/3/13 
f 250/13/14 249/13/14 251/14/14 252/14/14 
f 252/14/15 251/14/15 226/1/15 225/1/15 
f 225/1/16 228/2/16 230/3/16 232/4/16 
f 225/1/18 232/4/18 234/5/18 236/6/18 
f 225/1/18 236/6/18 238/7/18 240/8/18 
f 225/1/18 240/8/18 242/9/18 244/10/18 
f 225/1/18 244/10/18 246/11/18 248/12/18 
f 225/1/18 248/12/18 250/13/18 252/14/18 
f 253/1/1 254/1/1 255/2/1 256/2/1 
f 256/2/2 255/2/2 257/3/2 258/3/2 
f 258/3/3 257/3/3 259/4/3 260/4/3 
f 260/4/4 259/4/4 261/5/4 262/5/4 
f 262/5/25 261/5/25 263/6/25 264/6/25 
f 264/6/6 263/6/6 265/7/6 266/7/6 
f 266/7/7 265/7/7 267/8/7 268/8/7 
f 268/8/27 267/8/27 269/9/27 270/9/27 
f 270/9/9 269/9/9 271/10/9 272/10/9 
f 272/10/10 271/10/10 273/11/10 274/11/10 
f 274/11/11 273/11/11 275/12/11 276/12/11 
f 276/12/12 275/12/12 277/13/12 278/13/12 
f 255/2/13 254/1/13 279/14/13 277/13/13 
f 255/2/13 277/13/13 275/12/13 273/11/13 
f 255/2/13 273/11/13 271/10/13 269/9/13 
f 255/2/13 269/9/13 267/8/13 265/7/13 
f 255/2/13 265/7/13 263/6/13 261/5/13 
f 255/2/13 261/5/13 259/4/13 257/3/13 
f 278/13/14 277/13/14 279/14/14 280/14/14 
f 280/14/15 279/14/15 254/1/15 253/1/15 
f 253/1/16 256/2/16 258/3/16 260/4/16 
f 253/1/17 260/4/17 262/5/17 264/6/17 
f 253/1/17 264/6/17 266/7/17 268/8/17 
f 253/1/17 268/8/17 270/9/17 272/10/17 
f 253/1/26 272/10/26 274/11/26 276/12/26 
f 253/1/17 276/12/17 278/13/17 280/14/17 
f 281/15/28 282/16/28 283/17/28 284/18/28 
f 281/19/29 284/20/29 285/21/29 286/22/29 
f 281/19/29 286/22/29 287/23/29 288/24/29 
f 281/19/29 288/24/29 289/25/29 290/26/29 
f 290/15/30 291/16/30 282/17/30 281/18/30 
s 1
f 282/16/13 282/16/13 283/18/13 283/18/13 
s off
f 284/15/31 283/16/31 292/17/31 285/18/31 
f 285/15/32 292/16/32 293/17/32 286/18/32 
f 286/15/33 293/16/33 294/17/33 287/18/33 
f 287/15/34 294/16/34 295/17/34 288/18/34 
f 288/15/35 295/16/35 296/17/35 289/18/35 
f 289/15/36 296/16/36 291/17/36 290/18/36 
s 1
f 282/18/13 282/18/13 291/16/13 291/16/13 
f 291/18/13 291/18/13 296/16/13 296/16/13 
s 2
f 283/15/37 282/16/37 297/17/37 298/18/37 
f 282/15/37 291/16/37 299/17/37 297/18/37 
s 1
f 292/18/13 292/18/13 283/16/13 283/16/13 
f 293/18/13 293/18/13 292/16/13 292/16/13 
f 294/18/13 294/18/13 293/16/13 293/16/13 
f 295/18/13 295/18/13 294/16/13 294/16/13 
f 296/18/13 296/18/13 295/16/13 295/16/13 
s 2
f 291/15/37 296/16/37 300/17/37 299/18/37 
s off
f 292/15/37 283/16/37 298/17/37 301/18/37 
f 293/15/37 292/16/37 301/17/37 302/18/37 
s 4
f 294/15/37 293/16/37 302/17/37 303/18/37 
f 295/15/37 294/16/37 303/17/37 304/18/37 
f 296/15/37 295/16/37 304/17/37 300/18/37 
s off
f 298/16/38 305/17/38 306/18/38 301/15/38 
f 305/18/39 298/15/39 297/16/39 307/17/39 
f 307/18/40 297/15/40 299/16/40 308/17/40 
f 308/18/41 299/15/41 300/16/41 309/17/41 
f 303/16/42 310/17/42 311/18/42 304/15/42 
f 304/16/43 311/17/43 309/18/43 300/15/43 
f 307/16/44 312/17/44 313/18/44 305/27/44 
f 308/16/45 314/17/45 312/18/45 307/27/45 
f 315/18/46 302/15/46 301/16/46 306/17/46 
f 310/18/47 303/15/47 302/16/47 315/17/47 
f 305/16/48 313/17/48 316/18/48 306/15/48 
f 314/18/49 308/27/49 309/16/49 317/17/49 
f 317/18/50 309/15/50 311/16/50 318/17/50 
f 306/16/51 316/17/51 319/18/51 315/15/51 
f 315/16/52 319/17/52 320/18/52 310/15/52 
f 318/18/53 311/15/53 310/16/53 320/17/53 
f 313/15/54 312/16/54 321/17/54 322/18/54 
f 312/15/55 314/16/55 323/17/55 321/18/55 
f 314/15/56 317/16/56 324/17/56 323/18/56 
f 317/15/57 318/16/57 325/17/57 324/18/57 
f 318/15/58 320/16/58 326/17/58 325/18/58 
f 316/15/59 313/16/59 322/17/59 327/18/59 
f 327/26/60 322/19/60 321/20/60 323/21/60 
f 327/26/61 323/21/61 324/22/61 325/23/61 
f 327/26/61 325/23/61 326/24/61 328/25/61 
f 319/15/62 316/16/62 327/17/62 328/18/62 
f 320/15/63 319/16/63 328/17/63 326/18/63 
f 329/15/28 330/16/28 331/17/28 332/18/28 
f 329/19/29 332/20/29 333/21/29 334/22/29 
f 329/19/29 334/22/29 335/23/29 336/24/29 
f 329/19/29 336/24/29 337/25/29 338/26/29 
f 338/15/30 339/16/30 330/17/30 329/18/30 
f 332/15/31 331/16/31 340/17/31 333/18/31 
f 333/15/32 340/16/32 341/17/32 334/18/32 
f 334/15/33 341/16/33 342/17/33 335/18/33 
f 335/15/34 342/16/34 343/17/34 336/18/34 
f 336/15/35 343/16/35 344/17/35 337/18/35 
f 337/15/36 344/16/36 339/17/36 338/18/36 
s 1
f 331/18/13 331/18/13 330/16/13 330/16/13 
f 330/18/13 330/18/13 339/16/13 339/16/13 
f 331/16/13 331/16/13 340/18/13 340/18/13 
f 340/16/13 340/16/13 341/18/13 341/18/13 
f 341/16/13 341/16/13 342/18/13 342/18/13 
f 342/16/13 342/16/13 343/18/13 343/18/13 
f 343/16/13 343/16/13 344/18/13 344/18/13 
f 344/16/13 344/16/13 339/18/13 339/18/13 
s 2
f 331/15/37 330/16/37 345/17/37 346/18/37 
f 330/15/37 339/16/37 347/17/37 345/18/37 
f 339/15/37 344/16/37 348/17/37 347/18/37 
f 340/15/37 331/16/37 346/17/37 349/18/37 
s off
f 345/16/64 350/17/64 351/18/64 346/15/64 
s 2
f 341/15/37 340/16/37 349/17/37 352/18/37 
f 342/15/37 341/16/37 352/17/37 353/18/37 
f 343/15/37 342/16/37 353/17/37 354/18/37 
f 344/15/37 343/16/37 354/17/37 348/18/37 
s off
f 348/16/41 355/17/41 356/18/41 347/15/41 
f 346/16/38 351/17/38 357/18/38 349/15/38 
f 350/18/65 345/15/65 347/16/65 356/17/65 
f 349/16/66 357/17/66 358/18/66 352/15/66 
f 352/16/67 358/17/67 359/18/67 353/15/67 
f 355/18/68 348/15/68 354/16/68 360/17/68 
f 356/16/69 361/17/69 362/18/69 350/27/69 
f 355/16/70 363/17/70 361/18/70 356/27/70 
f 360/18/71 354/15/71 353/16/71 359/17/71 
f 360/16/72 364/17/72 363/18/72 355/15/72 
f 351/16/73 365/17/73 366/18/73 357/15/73 
f 365/18/74 351/27/74 350/16/74 362/17/74 
f 357/16/75 366/17/75 367/18/75 358/15/75 
f 358/16/76 367/17/76 368/18/76 359/15/76 
f 359/16/77 368/17/77 364/18/77 360/15/77 
f 365/15/78 362/16/78 369/17/78 370/18/78 
f 362/15/79 361/16/79 371/17/79 369/18/79 
f 361/15/56 363/16/56 372/17/56 371/18/56 
f 363/15/57 364/16/57 373/17/57 372/18/57 
f 364/15/58 368/16/58 374/17/58 373/18/58 
f 366/15/59 365/16/59 370/17/59 375/18/59 
f 369/20/80 371/21/80 372/22/80 373/23/80 
f 369/20/81 373/23/81 374/24/81 376/25/81 
f 369/20/82 376/25/82 375/26/82 370/19/82 
f 367/15/62 366/16/62 375/17/62 376/18/62 
f 368/15/63 367/16/63 376/17/63 374/18/63 
f 377/15/28 378/16/28 379/17/28 380/18/28 
f 377/19/83 380/20/83 381/21/83 382/22/83 
f 377/19/29 382/22/29 383/23/29 384/24/29 
f 377/19/84 384/24/84 385/25/84 386/26/84 
f 386/15/30 387/16/30 378/17/30 377/18/30 
f 379/19/37 378/20/37 387/21/37 388/22/37 
f 379/19/85 388/22/85 389/23/85 390/24/85 
f 379/19/86 390/24/86 391/25/86 392/26/86 
f 380/15/31 379/16/31 392/17/31 381/18/31 
f 381/15/32 392/16/32 391/17/32 382/18/32 
f 382/15/33 391/16/33 390/17/33 383/18/33 
f 383/15/34 390/16/34 389/17/34 384/18/34 
f 384/15/35 389/16/35 388/17/35 385/18/35 
f 385/15/36 388/16/36 387/17/36 386/18/36 
f 393/15/28 394/16/28 395/17/28 396/18/28 
f 393/19/29 396/20/29 397/21/29 398/22/29 
f 393/19/29 398/22/29 399/23/29 400/24/29 
f 393/19/29 400/24/29 401/25/29 402/26/29 
f 402/15/30 403/16/30 394/17/30 393/18/30 
f 395/19/37 394/20/37 403/21/37 404/22/37 
f 395/19/37 404/22/37 405/23/37 406/24/37 
f 395/19/37 406/24/37 407/25/37 408/26/37 
f 396/15/31 395/16/31 408/17/31 397/18/31 
f 397/15/32 408/16/32 407/17/32 398/18/32 
f 398/15/33 407/16/33 406/17/33 399/18/33 
f 399/15/34 406/16/34 405/17/34 400/18/34 
f 400/15/35 405/16/35 404/17/35 401/18/35 
f 401/15/36 404/16/36 403/17/36 402/18/36 
f 409/15/87 410/16/87 411/17/87 412/18/87 
f 409/19/83 412/20/83 413/21/83 414/22/83 
f 409/19/84 414/22/84 415/23/84 416/24/84 
f 409/19/84 416/24/84 417/25/84 418/26/84 
f 418/15/88 419/16/88 410/17/88 409/18/88 
f 411/19/37 410/20/37 419/21/37 420/22/37 
f 411/19/89 420/22/89 421/23/89 422/24/89 
f 411/19/37 422/24/37 423/25/37 424/26/37 
f 412/15/90 411/16/90 424/17/90 413/18/90 
f 413/15/91 424/16/91 423/17/91 414/18/91 
f 414/15/92 423/16/92 422/17/92 415/18/92 
f 415/15/93 422/16/93 421/17/93 416/18/93 
f 416/15/94 421/16/94 420/17/94 417/18/94 
f 417/15/95 420/16/95 419/17/95 418/18/95 
f 425/15/28 426/16/28 427/17/28 428/18/28 
f 425/19/83 428/20/83 429/21/83 430/22/83 
f 425/19/29 430/22/29 431/23/29 432/24/29 
f 425/19/84 432/24/84 433/25/84 434/26/84 
f 434/15/30 435/16/30 426/17/30 425/18/30 
f 427/19/37 426/20/37 435/21/37 436/22/37 
f 427/19/85 436/22/85 437/23/85 438/24/85 
f 427/19/86 438/24/86 439/25/86 440/26/86 
f 428/15/31 427/16/31 440/17/31 429/18/31 
f 429/15/32 440/16/32 439/17/32 430/18/32 
f 430/15/33 439/16/33 438/17/33 431/18/33 
f 431/15/34 438/16/34 437/17/34 432/18/34 
f 432/15/35 437/16/35 436/17/35 433/18/35 
f 433/15/36 436/16/36 435/17/36 434/18/36 
f 441/15/28 442/16/28 443/17/28 444/18/28 
f 441/19/29 444/20/29 445/21/29 446/22/29 
f 441/19/29 446/22/29 447/23/29 448/24/29 
f 441/19/29 448/24/29 449/25/29 450/26/29 
f 450/15/30 451/16/30 442/17/30 441/18/30 
f 443/19/37 442/20/37 451/21/37 452/22/37 
f 443/19/37 452/22/37 453/23/37 454/24/37 
f 443/19/37 454/24/37 455/25/37 456/26/37 
f 444/15/31 443/16/31 456/17/31 445/18/31 
f 445/15/32 456/16/32 455/17/32 446/18/32 
f 446/15/33 455/16/33 454/17/33 447/18/33 
f 447/15/34 454/16/34 453/17/34 448/18/34 
f 448/15/35 453/16/35 452/17/35 449/18/35 
f 449/15/36 452/16/36 451/17/36 450/18/36 
f 457/15/28 458/16/28 459/17/28 460/18/28 
f 457/19/83 460/20/83 461/21/83 462/22/83 
f 457/19/84 462/22/84 463/23/84 464/24/84 
f 457/19/84 464/24/84 465/25/84 466/26/84 
f 466/15/30 467/16/30 458/17/30 457/18/30 
f 459/19/37 458/20/37 467/21/37 468/22/37 
f 459/19/89 468/22/89 469/23/89 470/24/89 
f 459/19/37 470/24/37 471/25/37 472/26/37 
f 460/15/31 459/16/31 472/17/31 461/18/31 
f 461/15/32 472/16/32 471/17/32 462/18/32 
f 462/15/92 471/16/92 470/17/92 463/18/92 
f 463/15/93 470/16/93 469/17/93 464/18/93 
f 464/15/35 469/16/35 468/17/35 465/18/35 
f 465/15/36 468/16/36 467/17/36 466/18/36 
f 473/28/96 474/29/96 475/30/96 476/31/96 
f 474/29/97 477/32/97 478/33/97 475/30/97 
f 477/32/98 479/34/98 480/35/98 478/33/98 
f 479/34/99 473/28/99 476/31/99 480/35/99 
f 476/31/100 475/30/100 478/33/100 480/35/100 
f 479/34/101 477/32/101 474/29/101 473/28/101 
s 1
f 481/36/4 482/36/4 483/37/4 484/37/4 
s off
f 485/38/29 483/37/29 486/37/29 487/38/29 
s 1
f 488/39/11 489/39/11 490/38/11 485/38/11 
s 2
f 489/39/18 481/36/18 484/37/18 490/38/18 
f 490/38/18 484/37/18 491/40/18 492/41/18 
s 4
f 489/39/37 488/39/37 482/36/37 481/36/37 
s off
f 493/36/13 494/39/13 487/38/13 486/37/13 
s 1
f 488/39/11 485/38/11 487/38/11 494/39/11 
s 4
f 482/36/37 488/39/37 494/39/37 493/36/37 
s 1
f 483/37/4 482/36/4 493/36/4 486/37/4 
s 2
f 492/41/18 491/40/18 495/42/18 496/43/18 
s 1
f 485/38/11 490/38/11 492/41/11 497/41/11 
s off
f 483/37/13 485/38/13 497/41/13 498/40/13 
s 1
f 484/37/4 483/37/4 498/40/102 491/40/4 
s 4
f 495/42/29 499/42/29 500/43/29 496/43/29 
s 1
f 497/41/11 492/41/11 496/43/11 500/43/11 
f 499/42/102 498/40/102 501/40/102 502/42/102 
f 491/40/4 498/40/102 499/42/102 495/42/4 
s off
f 501/40/13 503/41/13 504/43/13 502/42/13 
s 1
f 497/41/11 500/43/11 504/43/11 503/41/11 
s 4
f 500/43/29 499/42/29 502/42/29 504/43/29 
s off
f 498/40/89 497/41/89 503/41/89 501/40/89 
f 505/44/103 506/45/103 507/46/103 508/47/103 
f 506/45/104 509/48/104 510/49/104 507/46/104 
f 509/48/105 511/50/105 512/51/105 510/49/105 
f 511/50/106 505/44/106 508/47/106 512/51/106 
f 508/47/107 507/46/107 510/49/107 512/51/107 
f 511/50/108 509/48/108 506/45/108 505/44/108 
s 1
f 513/39/11 514/39/11 515/38/11 516/38/11 
s off
f 517/37/29 515/38/29 518/38/29 519/37/29 
s 1
f 520/36/4 521/36/4 522/37/4 517/37/4 
s 2
f 521/36/13 513/39/13 516/38/13 522/37/13 
f 522/37/13 516/38/13 523/41/13 524/40/13 
s 4
f 521/36/37 520/36/37 514/39/37 513/39/37 
s off
f 525/39/18 526/36/18 519/37/18 518/38/18 
s 1
f 520/36/4 517/37/4 519/37/4 526/36/4 
s 4
f 514/39/37 520/36/37 526/36/37 525/39/37 
s 1
f 515/38/11 514/39/11 525/39/11 518/38/11 
s 2
f 524/40/13 523/41/13 527/43/13 528/42/13 
s 1
f 517/37/4 522/37/4 524/40/4 529/40/102 
s off
f 515/38/18 517/37/18 529/40/18 530/41/18 
s 1
f 516/38/11 515/38/11 530/41/11 523/41/11 
s 4
f 527/43/29 531/43/29 532/42/29 528/42/29 
s 1
f 529/40/102 524/40/4 528/42/4 532/42/4 
f 531/43/11 530/41/11 533/41/11 534/43/11 
f 523/41/11 530/41/11 531/43/11 527/43/11 
s off
f 533/41/18 535/40/18 536/42/18 534/43/18 
s 1
f 529/40/102 532/42/4 536/42/102 535/40/102 
s 4
f 532/42/29 531/43/29 534/43/29 536/42/29 
s off
f 530/41/37 529/40/37 535/40/37 533/41/37 
f 537/52/18 538/53/18 539/54/18 540/55/18 
f 541/52/11 537/52/11 540/55/11 542/55/11 
f 541/52/37 543/53/37 538/53/37 537/52/37 
f 538/53/4 543/53/4 544/54/4 539/54/4 
f 540/55/29 539/54/29 544/54/29 542/55/29 
f 543/53/13 541/52/13 542/55/13 544/54/13 
f 545/52/18 546/53/18 547/54/18 548/55/18 
f 549/52/11 545/52/11 548/55/11 550/55/11 
f 549/52/37 551/53/37 546/53/37 545/52/37 
f 546/53/4 551/53/4 552/54/4 547/54/4 
f 548/55/29 547/54/29 552/54/29 550/55/29 
f 551/53/13 549/52/13 550/55/13 552/54/13 
f 553/56/37 554/57/37 555/58/37 556/59/37 
f 557/56/11 553/57/11 556/58/11 558/59/11 
f 557/56/13 559/57/13 554/58/13 553/59/13 
f 554/56/4 559/57/4 560/58/4 555/59/4 
f 556/56/16 555/57/16 560/58/16 558/59/16 
f 559/56/29 557/57/29 558/58/29 560/59/29 
f 561/56/18 562/57/18 563/58/18 564/59/18 
f 565/56/11 561/57/11 564/58/11 566/59/11 
f 565/56/37 567/57/37 562/58/37 561/59/37 
f 562/56/4 567/57/4 568/58/4 563/59/4 
f 564/56/29 563/57/29 568/58/29 566/59/29 
f 567/56/13 565/57/13 566/58/13 568/59/13 
f 569/56/18 570/57/18 571/58/18 572/59/18 
f 573/56/11 569/57/11 572/58/11 574/59/11 
f 573/56/37 575/57/37 570/58/37 569/59/37 
f 570/56/4 575/57/4 576/58/4 571/59/4 
f 572/56/29 571/57/29 576/58/29 574/59/29 
f 575/56/13 573/57/13 574/58/13 576/59/13 
f 577/56/18 578/57/18 579/58/18 580/59/18 
f 581/56/11 577/57/11 580/58/11 582/59/11 
f 581/56/85 583/57/85 578/58/85 577/59/85 
f 578/56/4 583/57/4 584/58/4 579/59/4 
f 580/56/29 579/57/29 584/58/29 582/59/29 
f 583/56/13 581/57/13 582/58/13 584/59/13 
f 585/56/18 586/57/18 587/58/18 588/59/18 
f 589/56/11 585/57/11 588/58/11 590/59/11 
f 589/56/37 591/57/37 586/58/37 585/59/37 
f 586/56/4 591/57/4 592/58/4 587/59/4 
f 588/56/84 587/57/84 592/58/84 590/59/84 
f 591/56/13 589/57/13 590/58/13 592/59/13 
f 593/56/18 594/57/18 595/58/18 596/59/18 
f 597/56/11 593/57/11 596/58/11 598/59/11 
f 597/56/37 599/57/37 594/58/37 593/59/37 
f 594/56/4 599/57/4 600/58/4 595/59/4 
f 596/56/29 595/57/29 600/58/29 598/59/29 
f 599/56/13 597/57/13 598/58/13 600/59/13 
f 601/60/13 602/60/13 603/61/13 604/61/13 
f 605/62/109 601/63/109 604/64/109 606/65/109 
s 1
f 605/66/89 607/66/89 602/60/86 601/60/85 
s off
f 602/60/110 607/66/110 608/67/110 603/61/110 
s 1
f 604/61/29 603/61/29 608/67/29 606/67/29 
s off
f 609/68/4 605/62/4 606/65/4 610/69/4 
s 1
f 609/70/89 611/70/89 607/66/89 605/66/89 
s off
f 607/66/11 611/70/11 612/71/11 608/67/11 
s 1
f 606/67/29 608/67/29 612/71/29 610/71/29 
s off
f 613/72/111 609/68/111 610/69/111 614/73/111 
s 1
f 613/74/37 615/74/37 611/70/89 609/70/89 
s off
f 611/70/112 615/74/112 616/75/112 612/71/112 
s 1
f 610/71/29 612/71/29 616/75/29 614/75/29 
s off
f 615/74/18 613/74/18 614/75/18 616/75/18 
f 617/76/16 618/77/16 619/78/16 620/79/16 
f 621/80/11 617/81/11 620/82/11 622/83/11 
s 1
f 617/81/89 621/80/37 623/80/37 624/81/89 
s off
f 618/84/4 625/85/4 626/86/4 619/87/4 
f 620/80/29 619/81/29 626/82/29 622/83/29 
f 625/77/13 621/76/13 622/79/13 626/78/13 
s 1
f 627/88/16 628/89/16 629/90/16 630/91/16 
f 631/88/26 627/89/16 630/90/16 632/91/18 
s 2
f 633/88/89 634/89/89 628/90/89 627/91/89 
s off
f 628/88/102 634/89/102 635/90/102 629/91/102 
s 2
f 630/88/29 629/89/113 635/90/113 636/91/113 
s 1
f 631/92/26 632/93/18 637/94/18 638/95/18 
f 631/92/26 638/95/18 639/96/18 640/97/18 
f 631/92/26 640/97/18 641/98/26 642/99/16 
f 643/100/18 644/101/18 645/102/18 646/103/16 
f 646/103/16 645/102/18 642/99/16 647/104/26 
f 641/98/26 647/104/26 642/99/16 
f 648/105/16 631/92/26 642/99/16 
s off
f 649/88/114 633/89/114 627/90/114 631/91/114 
s 2
f 632/88/29 630/89/29 636/90/113 650/91/29 
f 651/88/89 652/89/89 634/90/89 633/91/89 
s 1
f 635/88/115 634/89/115 653/90/115 654/91/115 
s 2
f 636/88/113 635/89/113 655/90/113 656/91/29 
f 657/106/116 648/107/116 642/108/116 658/109/116 
s 4
f 657/88/37 649/89/37 631/90/37 648/91/37 
s 2
f 637/88/29 632/89/29 650/90/29 659/91/29 
s off
f 638/105/11 637/110/11 659/111/11 660/112/11 
f 638/105/11 660/112/11 661/113/11 
f 639/88/10 638/89/10 661/90/10 662/91/10 
f 640/88/9 639/89/9 662/90/9 663/91/9 
f 641/88/8 640/89/8 663/90/8 664/91/8 
f 647/88/7 641/89/7 664/90/7 665/91/7 
f 646/88/6 647/89/6 665/90/6 666/91/6 
f 643/88/5 646/89/5 666/90/5 667/91/5 
f 668/105/4 669/110/4 644/111/4 643/112/4 
f 668/105/4 643/112/4 667/113/4 
f 645/88/29 644/89/29 669/90/29 670/91/29 
s 2
f 658/114/116 642/115/116 645/116/116 670/117/116 
s off
f 671/88/114 651/89/114 633/90/114 649/91/114 
s 2
f 650/88/29 636/89/113 656/90/29 672/91/84 
f 673/88/89 674/89/89 652/90/89 651/91/89 
s 1
f 634/88/115 652/89/11 675/90/11 676/91/115 
s 2
f 677/88/113 635/89/113 654/90/113 678/91/29 
s 1
f 634/88/115 676/89/115 679/90/115 653/91/115 
s 4
f 654/88/16 653/89/16 680/90/16 678/91/16 
s 2
f 655/88/113 635/89/113 677/90/113 681/91/29 
f 656/88/29 655/89/113 682/90/113 683/91/29 
s 1
f 684/88/11 657/89/11 658/118/11 685/119/11 
s 4
f 684/88/37 671/89/37 649/90/37 657/91/37 
s off
f 670/105/29 669/120/29 668/118/29 672/119/29 
f 660/121/29 659/122/29 650/123/29 672/119/29 
f 668/118/84 660/121/84 672/119/84 
f 670/105/29 672/119/29 686/124/29 
f 660/105/16 668/125/16 667/126/16 666/127/16 
f 660/105/17 666/127/17 665/128/17 664/129/17 
f 660/105/17 664/129/17 663/130/17 662/131/17 
f 660/105/18 662/131/18 661/132/18 
s 1
f 685/119/11 658/118/11 670/90/11 686/91/11 
s off
f 687/88/114 673/89/114 651/90/114 671/91/114 
s 2
f 672/88/84 656/89/29 683/90/29 688/91/84 
f 689/88/89 690/89/89 674/90/89 673/91/89 
s 1
f 652/88/11 674/89/11 691/90/11 675/91/11 
s 2
f 676/88/37 675/89/89 692/90/37 693/91/37 
s 1
f 694/88/4 677/89/4 678/90/4 680/91/4 
s 2
f 676/88/37 693/89/37 695/90/37 679/91/37 
s 4
f 680/88/16 653/89/16 679/90/16 695/91/16 
s 2
f 682/88/113 655/89/113 681/90/29 696/91/29 
s 1
f 694/88/4 697/89/4 681/90/4 677/91/4 
s 2
f 683/88/29 682/89/113 698/90/29 699/91/29 
s 1
f 700/88/11 684/89/11 685/118/11 701/119/11 
s 4
f 700/88/37 687/89/37 671/90/37 684/91/37 
s 2
f 686/88/29 672/89/84 688/90/84 702/91/29 
s 1
f 701/119/11 685/118/11 686/90/11 702/91/11 
s off
f 703/88/117 689/89/117 673/90/117 687/91/117 
s 2
f 688/88/84 683/89/29 699/90/29 704/91/29 
f 705/88/89 706/89/89 690/90/89 689/91/89 
s 1
f 674/88/11 690/89/11 707/90/11 691/91/11 
s 2
f 675/88/89 691/89/89 708/90/89 692/91/37 
s 1
f 697/88/4 694/89/4 693/90/4 692/91/4 
f 693/88/4 694/89/4 680/90/4 695/91/4 
s 2
f 698/88/29 682/89/113 696/90/29 709/91/29 
s 1
f 697/88/4 710/89/4 696/90/4 681/91/4 
s 2
f 699/88/29 698/89/29 711/90/113 712/91/113 
s 1
f 713/88/11 700/89/11 701/118/11 714/119/11 
s 4
f 713/88/37 703/89/37 687/90/37 700/91/37 
s off
f 702/105/113 688/120/113 704/118/113 715/122/113 
f 704/118/29 716/121/29 715/122/29 
f 702/105/84 715/122/84 717/123/84 718/119/84 
f 702/105/29 718/119/29 719/124/29 
f 714/119/11 701/118/11 702/90/11 719/91/11 
f 720/88/114 705/89/114 689/90/114 703/91/114 
s 2
f 704/88/29 699/89/29 712/90/113 721/91/29 
s 1
f 706/88/13 705/89/13 712/90/13 711/91/13 
s off
f 690/88/102 706/89/102 711/90/102 698/91/102 
s 4
f 707/88/11 690/89/11 722/90/11 723/91/11 
s 2
f 691/88/89 707/89/89 724/90/89 708/91/89 
s 1
f 710/88/4 697/89/4 692/90/4 708/91/4 
s 2
f 698/88/29 709/89/29 725/90/29 726/91/29 
s 1
f 710/88/4 727/89/4 709/90/4 696/91/4 
s 2
f 728/133/118 713/134/118 714/115/118 729/135/118 
s 4
f 728/88/37 720/89/37 703/90/37 713/91/37 
s 2
f 716/88/29 704/89/29 721/90/29 730/91/29 
s off
f 731/105/11 715/110/11 716/111/11 730/112/11 
f 731/105/11 730/112/11 732/113/11 
f 717/105/13 715/125/13 731/126/13 733/127/13 
f 717/105/119 733/127/119 734/128/119 735/129/119 
f 717/105/119 735/129/119 736/130/119 737/131/119 
f 717/105/13 737/131/13 738/132/13 
f 739/105/4 740/110/4 718/111/4 717/112/4 
f 739/105/102 717/112/102 738/113/102 
f 719/88/29 718/89/29 740/90/29 741/91/29 
s 2
f 729/114/118 714/108/118 719/136/118 741/117/118 
s 1
f 705/88/13 720/89/19 721/90/13 712/91/13 
s 4
f 690/88/11 698/89/11 726/90/11 722/91/11 
s 2
f 724/88/89 707/89/89 723/90/89 742/91/37 
s 8
f 722/88/13 743/89/13 742/90/13 723/91/13 
s 1
f 727/88/4 710/89/4 708/90/4 724/91/4 
f 709/88/4 727/89/4 743/90/4 725/91/4 
s 8
f 722/88/13 726/89/13 725/90/13 743/91/13 
s 1
f 720/105/19 728/92/13 729/137/19 744/97/19 
f 729/137/19 741/93/13 740/94/13 739/95/13 
f 729/137/19 739/95/13 745/96/19 744/97/19 
f 720/105/19 744/97/19 746/98/13 747/104/13 
f 720/105/19 747/104/13 748/103/13 732/100/13 
f 720/105/19 732/100/13 730/101/13 721/102/13 
s off
f 732/88/10 748/89/10 733/90/10 731/91/10 
f 748/88/9 747/89/9 734/90/9 733/91/9 
f 747/88/8 746/89/8 735/90/8 734/91/8 
f 746/88/7 744/89/7 736/90/7 735/91/7 
f 744/88/21 745/89/21 737/90/21 736/91/21 
f 745/88/25 739/89/25 738/90/25 737/91/25 
s 1
f 727/88/4 724/89/4 742/90/4 743/91/4 
s off
f 749/138/16 750/139/16 751/140/16 752/141/16 
f 753/138/11 749/138/11 752/141/11 754/141/11 
f 753/138/37 755/139/37 750/139/37 749/138/37 
f 750/139/4 755/139/4 756/140/4 751/140/4 
f 752/141/29 751/140/29 756/140/29 754/141/29 
f 755/139/13 753/138/13 754/141/13 756/140/13 
f 757/138/16 758/139/16 759/140/16 760/141/16 
f 761/138/11 757/138/11 760/141/11 762/141/11 
f 761/138/37 763/139/37 758/139/37 757/138/37 
f 758/139/4 763/139/4 764/140/4 759/140/4 
f 760/141/29 759/140/29 764/140/29 762/141/29 
f 763/139/13 761/138/13 762/141/13 764/140/13 
s 1
f 623/142/37 765/143/89 766/144/37 624/145/89 
f 618/81/37 617/80/89 624/80/89 766/81/37 
f 621/81/37 625/80/89 765/80/89 623/81/37 
f 625/81/89 618/80/37 766/80/37 765/81/89 
s off
f 767/56/37 768/57/37 769/58/37 770/59/37 
f 771/56/11 767/57/11 770/58/11 772/59/11 
f 771/56/119 773/57/119 768/58/119 767/59/119 
f 768/56/4 773/57/4 774/58/4 769/59/4 
f 770/56/17 769/57/17 774/58/17 772/59/17 
f 773/56/29 771/57/29 772/58/29 774/59/29 
f 775/56/37 776/57/37 777/58/37 778/59/37 
f 779/56/11 775/57/11 778/58/11 780/59/11 
f 779/56/119 781/57/119 776/58/119 775/59/119 
f 776/56/4 781/57/4 782/58/4 777/59/4 
f 778/56/17 777/57/17 782/58/17 780/59/17 
f 781/56/29 779/57/29 780/58/29 782/59/29 
f 783/56/18 784/57/18 785/58/18 786/59/18 
f 787/56/11 783/57/11 786/58/11 788/59/11 
f 787/56/37 789/57/37 784/58/37 783/59/37 
f 784/56/4 789/57/4 790/58/4 785/59/4 
f 786/56/29 785/57/29 790/58/29 788/59/29 
f 789/56/13 787/57/13 788/58/13 790/59/13 
s 1
f 791/80/29 792/81/29 793/82/29 794/83/29 
s 2
f 795/80/102 791/81/102 794/82/102 796/83/102 
s 1
f 797/80/29 798/81/29 792/82/29 791/83/29 
f 793/80/29 792/81/29 799/82/29 800/83/29 
s 4
f 793/80/18 801/81/17 796/82/17 794/83/18 
s 2
f 802/80/102 795/81/102 796/82/102 803/83/4 
f 804/80/102 797/81/102 791/82/102 795/83/102 
s 4
f 797/80/119 804/81/120 805/82/119 798/83/13 
s 1
f 792/80/29 798/81/29 806/82/29 799/83/29 
s 2
f 801/80/121 793/81/121 800/82/121 807/83/121 
s 4
f 799/80/122 808/81/115 807/82/122 800/83/23 
f 801/80/17 809/81/17 803/82/17 796/83/17 
s 2
f 810/82/20 811/83/20 812/146/20 813/147/20 
f 803/81/4 810/82/20 813/147/20 814/148/102 
f 802/80/102 803/81/4 814/148/102 815/149/102 
f 816/80/102 804/81/102 795/82/102 802/83/102 
s 4
f 804/80/120 816/81/120 817/82/119 805/83/119 
s 2
f 798/80/123 805/81/123 818/82/123 806/83/124 
s off
f 806/80/11 818/81/11 808/82/11 799/83/11 
s 2
f 809/80/121 801/81/121 807/82/121 819/83/121 
s 4
f 807/150/122 808/151/115 820/152/115 821/153/122 
f 803/154/17 809/155/17 822/156/17 823/157/17 
f 803/154/17 823/157/17 824/158/18 810/159/18 
s 2
f 816/80/102 802/81/102 815/160/102 825/161/102 
f 826/162/24 812/163/20 811/82/20 827/83/24 
f 825/161/102 826/162/24 827/83/24 816/80/102 
s 1
f 811/80/37 810/81/37 828/82/37 829/83/37 
s 4
f 816/154/120 827/155/119 830/156/119 831/157/120 
f 816/154/120 831/157/120 832/158/119 817/159/119 
s 2
f 805/80/123 817/81/123 833/82/123 818/83/123 
s 4
f 808/150/115 818/151/11 834/152/11 820/153/115 
s off
f 809/81/125 819/82/125 835/83/125 836/80/125 
s 4
f 819/150/11 807/151/122 821/152/122 837/153/11 
s off
f 821/56/126 820/57/126 838/58/126 839/59/126 
s 4
f 828/155/18 810/156/18 824/157/18 840/158/18 
f 809/154/17 828/155/18 840/158/18 822/159/17 
s off
f 823/80/37 822/81/37 841/82/37 842/83/37 
f 824/80/11 823/81/11 842/82/11 843/83/11 
s 1
f 827/80/37 811/81/37 829/82/37 844/83/37 
s off
f 845/158/127 846/159/127 829/154/127 828/155/127 
f 847/157/127 845/158/127 828/155/127 809/156/127 
f 844/159/119 817/154/119 832/155/119 848/156/119 
f 827/158/119 844/159/119 848/156/119 830/157/119 
f 831/80/11 830/81/11 849/82/11 850/83/11 
f 832/80/37 831/81/37 850/82/37 851/83/37 
f 833/83/128 817/80/128 836/81/128 835/82/128 
s 4
f 818/150/11 833/151/122 852/152/122 834/153/11 
s off
f 820/56/129 834/57/129 853/58/129 838/59/129 
f 836/155/127 829/156/127 846/157/127 854/158/127 
f 809/154/127 836/155/127 854/158/127 847/159/127 
s 4
f 835/150/115 819/151/11 837/152/11 855/153/115 
s off
f 837/56/13 821/57/13 839/58/13 856/59/13 
s 1
f 838/164/115 857/165/115 856/166/11 839/167/11 
s off
f 840/80/29 824/81/29 843/82/29 858/83/29 
f 822/80/130 840/81/130 858/82/130 841/83/130 
f 843/168/26 842/169/26 841/170/26 858/171/26 
f 830/80/29 848/81/29 859/82/29 849/83/29 
f 859/168/19 851/169/19 850/170/19 849/171/19 
f 848/80/130 832/81/130 851/82/130 859/83/130 
f 860/157/127 861/158/127 836/159/127 817/154/127 
f 862/156/127 860/157/127 817/154/127 844/155/127 
s 4
f 833/150/122 835/151/115 855/152/115 852/153/122 
s off
f 834/56/17 852/57/17 863/58/17 853/59/17 
s 1
f 853/164/115 863/165/115 857/166/115 838/167/115 
s off
f 855/56/131 837/57/131 856/58/131 857/59/131 
f 845/80/13 847/81/13 864/82/13 865/83/13 
f 846/80/132 845/81/132 865/82/132 866/83/132 
f 852/56/133 855/57/133 857/58/133 863/59/133 
f 847/80/134 854/81/134 867/82/134 864/83/134 
f 868/158/127 862/159/127 844/154/127 829/155/127 
f 861/157/135 868/158/135 829/155/135 836/156/135 
f 862/80/136 868/81/136 869/82/136 870/83/136 
f 860/80/26 862/81/26 870/82/26 871/83/26 
f 865/168/137 864/169/137 867/170/137 866/171/137 
f 854/80/26 846/81/26 866/82/26 867/83/26 
f 868/80/19 861/81/19 872/82/19 869/83/19 
f 869/168/137 872/169/137 871/170/137 870/171/137 
f 861/80/138 860/81/138 871/82/138 872/83/138 
f 814/172/13 813/172/13 873/172/13 874/172/13 
f 874/172/37 875/172/37 825/172/37 815/172/37 
f 874/172/37 815/172/37 814/172/37 
f 876/173/102 875/173/102 874/173/102 873/173/102 
f 876/172/29 873/172/29 813/172/29 812/172/29 
f 876/172/29 812/172/29 826/172/29 
f 826/172/18 825/172/18 875/172/18 876/172/18 
f 877/174/18 878/175/18 879/176/18 880/177/18 
f 881/178/139 877/179/139 880/180/139 882/181/139 
s 1
f 881/174/37 883/175/37 878/176/85 877/177/85 
s off
f 878/174/140 883/175/140 884/176/140 879/177/140 
s 1
f 880/174/29 879/175/29 884/176/29 882/177/29 
s off
f 885/182/11 881/178/11 882/181/11 886/183/11 
s 1
f 885/174/89 887/175/89 883/176/37 881/177/37 
s off
f 883/174/4 887/175/4 888/176/4 884/177/4 
s 1
f 882/174/29 884/175/29 888/176/29 886/177/29 
s off
f 889/184/141 885/182/141 886/183/141 890/185/141 
s 1
f 889/174/86 891/175/86 887/176/89 885/177/89 
s off
f 887/174/142 891/175/142 892/176/142 888/177/142 
s 1
f 886/174/29 888/175/29 892/176/29 890/177/29 
s off
f 891/174/13 889/175/13 890/176/13 892/177/13 
# 821 polygons - 14 triangles

