# 3ds Max Wavefront OBJ Exporter v0.97b - (c)2007 guruware
# File Created: 15.03.2017 11:57:20

mtllib SPW_Vehicle_Train_Freight Train_Trailer_01.mtl

#
# object SPW_Vehicle_Train_Freight_Train_Trailer_01
#

v  -54.1976 34.6662 -209.9701
v  -57.5361 34.6662 -209.9701
v  -57.5361 32.3337 -201.2652
v  -54.1976 32.3337 -201.2652
v  -57.5361 25.9613 -194.8927
v  -54.1976 25.9613 -194.8927
v  -57.5361 17.2564 -192.5603
v  -54.1976 17.2564 -192.5602
v  -57.5361 8.5515 -194.8927
v  -54.1976 8.5515 -194.8927
v  -57.5361 2.1790 -201.2652
v  -54.1976 2.1790 -201.2652
v  -57.5361 -0.1534 -209.9701
v  -54.1976 -0.1534 -209.9701
v  -57.5361 2.1790 -218.6750
v  -54.1976 2.1790 -218.6750
v  -57.5361 8.5515 -225.0473
v  -54.1976 8.5515 -225.0473
v  -57.5361 17.2564 -227.3799
v  -54.1976 17.2564 -227.3799
v  -57.5361 25.9613 -225.0473
v  -54.1976 25.9613 -225.0473
v  -57.5361 28.5787 -203.4331
v  -57.5361 23.7933 -198.6477
v  -57.5361 32.3337 -218.6750
v  -54.1976 32.3337 -218.6750
v  -57.5361 10.7194 -198.6477
v  -57.5361 17.2564 -196.8962
v  -61.7512 17.2564 -196.8962
v  -61.7512 10.7194 -198.6477
v  -57.5361 17.2564 -223.0439
v  -57.5361 23.7933 -221.2923
v  -57.5361 10.7194 -221.2923
v  -57.5361 5.9341 -216.5070
v  -57.5361 4.1825 -209.9701
v  -57.5361 5.9341 -203.4331
v  -57.5361 28.5787 -216.5070
v  -57.5361 30.3302 -209.9701
v  -61.7512 28.5787 -203.4331
v  -61.7512 30.3302 -209.9701
v  -61.7512 28.5787 -216.5070
v  -61.7512 23.7933 -221.2923
v  -61.7512 17.2564 -223.0439
v  -61.7512 10.7194 -221.2923
v  -61.7512 5.9341 -216.5070
v  -61.7512 4.1825 -209.9701
v  -61.7512 5.9341 -203.4331
v  -61.7512 23.7933 -198.6477
v  -63.9067 44.8460 -181.4003
v  -40.2847 44.8460 -181.4003
v  -40.2847 13.3188 -181.4003
v  -63.9067 13.3188 -181.4003
v  -40.2847 44.8460 -157.7782
v  -40.2847 13.3188 -157.7782
v  -63.9067 44.8460 -157.7782
v  -63.9067 13.3188 -157.7782
v  -63.6910 21.9315 -220.4259
v  -57.4676 21.9315 -220.4259
v  -57.4676 11.9063 -220.4259
v  -63.6910 11.9063 -220.4259
v  -57.4676 27.5370 -169.5892
v  -57.4677 21.9315 -118.7525
v  -57.4677 11.9063 -118.7525
v  -57.4676 20.5851 -169.5892
v  -63.6910 21.9315 -118.7525
v  -63.6910 11.9063 -118.7525
v  -63.6910 27.5370 -169.5892
v  -63.6910 20.5851 -169.5892
v  -58.9080 17.2035 -174.8942
v  -58.9080 39.0277 -174.8942
v  -59.4024 39.0277 -173.0487
v  -59.4024 17.2035 -173.0487
v  -60.7534 39.0277 -171.6978
v  -60.7534 17.2035 -171.6978
v  -62.5988 39.0277 -171.2033
v  -62.5988 17.2035 -171.2033
v  -64.4442 39.0277 -171.6978
v  -64.4442 17.2035 -171.6978
v  -65.7951 39.0277 -173.0487
v  -65.7951 17.2035 -173.0487
v  -66.2896 39.0277 -174.8942
v  -66.2896 17.2035 -174.8942
v  -65.7951 39.0277 -176.7395
v  -65.7951 17.2035 -176.7395
v  -64.4442 39.0277 -178.0905
v  -64.4442 17.2035 -178.0905
v  -62.5988 39.0277 -178.5850
v  -62.5988 17.2035 -178.5850
v  -60.7534 39.0277 -178.0905
v  -60.7534 17.2035 -178.0905
v  -59.4024 39.0277 -176.7395
v  -59.4024 17.2035 -176.7395
v  -58.9080 17.2035 -164.2306
v  -58.9080 39.0277 -164.2306
v  -59.4024 39.0277 -162.3852
v  -59.4024 17.2035 -162.3852
v  -60.7534 39.0277 -161.0343
v  -60.7534 17.2035 -161.0343
v  -62.5988 39.0277 -160.5398
v  -62.5988 17.2035 -160.5398
v  -64.4442 39.0277 -161.0343
v  -64.4442 17.2035 -161.0343
v  -65.7951 39.0277 -162.3852
v  -65.7951 17.2035 -162.3852
v  -66.2896 39.0277 -164.2306
v  -66.2896 17.2035 -164.2306
v  -65.7951 39.0277 -166.0760
v  -65.7951 17.2035 -166.0760
v  -64.4442 39.0277 -167.4270
v  -64.4442 17.2035 -167.4270
v  -62.5988 39.0277 -167.9215
v  -62.5988 17.2035 -167.9215
v  -60.7534 39.0277 -167.4270
v  -60.7534 17.2035 -167.4270
v  -59.4024 39.0277 -166.0760
v  -59.4024 17.2035 -166.0760
v  -54.1976 34.6662 -128.7086
v  -57.5362 34.6662 -128.7086
v  -57.5361 32.3337 -120.0036
v  -54.1976 32.3337 -120.0036
v  -57.5361 25.9613 -113.6312
v  -54.1976 25.9613 -113.6312
v  -57.5362 17.2564 -111.2987
v  -54.1976 17.2564 -111.2987
v  -57.5362 8.5515 -113.6313
v  -54.1976 8.5515 -113.6313
v  -57.5362 2.1790 -120.0036
v  -54.1976 2.1790 -120.0036
v  -57.5362 -0.1535 -128.7086
v  -54.1976 -0.1535 -128.7086
v  -57.5362 2.1790 -137.4135
v  -54.1976 2.1790 -137.4135
v  -57.5361 8.5515 -143.7859
v  -54.1976 8.5515 -143.7859
v  -57.5361 17.2564 -146.1184
v  -54.1976 17.2564 -146.1184
v  -57.5361 25.9613 -143.7859
v  -54.1976 25.9613 -143.7859
v  -57.5362 28.5787 -122.1716
v  -57.5361 23.7933 -117.3863
v  -57.5361 32.3337 -137.4135
v  -54.1976 32.3337 -137.4135
v  -57.5361 10.7194 -117.3863
v  -57.5361 17.2564 -115.6347
v  -61.7512 17.2564 -115.6347
v  -61.7512 10.7194 -117.3863
v  -57.5361 17.2564 -141.7825
v  -57.5361 23.7933 -140.0309
v  -57.5361 10.7194 -140.0309
v  -57.5361 5.9341 -135.2455
v  -57.5362 4.1825 -128.7086
v  -57.5362 5.9341 -122.1716
v  -57.5361 28.5786 -135.2455
v  -57.5362 30.3302 -128.7086
v  -61.7512 28.5787 -122.1716
v  -61.7512 30.3302 -128.7086
v  -61.7512 28.5786 -135.2455
v  -61.7512 23.7933 -140.0309
v  -61.7512 17.2564 -141.7825
v  -61.7512 10.7194 -140.0309
v  -61.7512 5.9341 -135.2455
v  -61.7512 4.1825 -128.7086
v  -61.7512 5.9341 -122.1716
v  -61.7512 23.7933 -117.3863
v  -54.1976 34.6661 206.6624
v  -57.5361 34.6661 206.6624
v  -57.5361 32.3337 215.3673
v  -54.1976 32.3337 215.3673
v  -57.5361 25.9612 221.7398
v  -54.1976 25.9612 221.7398
v  -57.5361 17.2563 224.0723
v  -54.1976 17.2563 224.0723
v  -57.5361 8.5514 221.7398
v  -54.1976 8.5514 221.7398
v  -57.5361 2.1790 215.3673
v  -54.1976 2.1790 215.3673
v  -57.5361 -0.1535 206.6624
v  -54.1976 -0.1535 206.6624
v  -57.5361 2.1790 197.9575
v  -54.1976 2.1790 197.9575
v  -57.5361 8.5514 191.5851
v  -54.1976 8.5514 191.5851
v  -57.5361 17.2563 189.2526
v  -54.1976 17.2563 189.2526
v  -57.5361 25.9612 191.5850
v  -54.1976 25.9612 191.5850
v  -57.5361 28.5786 213.1993
v  -57.5361 23.7933 217.9848
v  -57.5361 32.3337 197.9575
v  -54.1976 32.3337 197.9575
v  -57.5361 10.7194 217.9848
v  -57.5361 17.2563 219.7362
v  -61.7512 17.2563 219.7362
v  -61.7512 10.7194 217.9848
v  -57.5361 17.2563 193.5885
v  -57.5361 23.7933 195.3401
v  -57.5361 10.7194 195.3401
v  -57.5361 5.9340 200.1255
v  -57.5361 4.1825 206.6624
v  -57.5361 5.9340 213.1993
v  -57.5361 28.5786 200.1255
v  -57.5361 30.3302 206.6624
v  -61.7512 28.5786 213.1993
v  -61.7512 30.3302 206.6624
v  -61.7512 28.5786 200.1255
v  -61.7512 23.7933 195.3401
v  -61.7512 17.2563 193.5885
v  -61.7512 10.7194 195.3401
v  -61.7512 5.9340 200.1255
v  -61.7512 4.1825 206.6624
v  -61.7512 5.9340 213.1993
v  -61.7512 23.7933 217.9848
v  -58.9079 17.2035 171.1404
v  -58.9079 39.0277 171.1404
v  -59.4024 39.0277 172.9858
v  -59.4024 17.2035 172.9858
v  -60.7534 39.0277 174.3367
v  -60.7534 17.2035 174.3367
v  -62.5988 39.0277 174.8312
v  -62.5988 17.2035 174.8312
v  -64.4442 39.0277 174.3367
v  -64.4442 17.2035 174.3367
v  -65.7951 39.0277 172.9858
v  -65.7951 17.2035 172.9858
v  -66.2896 39.0277 171.1404
v  -66.2896 17.2035 171.1404
v  -65.7951 39.0277 169.2950
v  -65.7951 17.2035 169.2950
v  -64.4442 39.0277 167.9441
v  -64.4442 17.2035 167.9441
v  -62.5988 39.0277 167.4495
v  -62.5988 17.2035 167.4495
v  -60.7534 39.0277 167.9441
v  -60.7534 17.2035 167.9441
v  -59.4024 39.0277 169.2949
v  -59.4024 17.2035 169.2949
v  -58.9079 17.2035 160.4768
v  -58.9079 39.0277 160.4768
v  -59.4024 39.0277 162.3222
v  -59.4024 17.2035 162.3222
v  -60.7533 39.0277 163.6732
v  -60.7533 17.2035 163.6732
v  -62.5988 39.0277 164.1677
v  -62.5988 17.2035 164.1677
v  -64.4442 39.0277 163.6732
v  -64.4442 17.2035 163.6732
v  -65.7951 39.0277 162.3222
v  -65.7951 17.2035 162.3222
v  -66.2896 39.0277 160.4768
v  -66.2896 17.2035 160.4768
v  -65.7951 39.0277 158.6314
v  -65.7951 17.2035 158.6314
v  -64.4442 39.0277 157.2805
v  -64.4442 17.2035 157.2805
v  -62.5988 39.0277 156.7860
v  -62.5988 17.2035 156.7860
v  -60.7534 39.0277 157.2805
v  -60.7534 17.2035 157.2805
v  -59.4024 39.0277 158.6314
v  -59.4024 17.2035 158.6314
v  -63.6910 21.9315 114.9450
v  -57.4676 21.9315 114.9450
v  -57.4676 11.9063 114.9450
v  -63.6910 11.9063 114.9450
v  -57.4676 27.5370 165.7818
v  -57.4676 21.9315 216.6184
v  -57.4676 11.9063 216.6184
v  -57.4676 20.5850 165.7818
v  -63.6910 21.9315 216.6184
v  -63.6910 11.9063 216.6184
v  -63.6910 27.5370 165.7818
v  -63.6910 20.5850 165.7818
v  -63.9067 44.8460 153.9707
v  -40.2847 44.8460 153.9707
v  -40.2847 13.3188 153.9707
v  -63.9067 13.3188 153.9707
v  -40.2847 44.8460 177.5928
v  -40.2847 13.3188 177.5928
v  -63.9067 44.8460 177.5928
v  -63.9067 13.3188 177.5928
v  -54.1976 34.6662 125.4010
v  -57.5361 34.6662 125.4010
v  -57.5361 32.3337 134.1059
v  -54.1976 32.3337 134.1059
v  -57.5361 25.9612 140.4782
v  -54.1976 25.9612 140.4782
v  -57.5361 17.2563 142.8108
v  -54.1976 17.2563 142.8108
v  -57.5361 8.5514 140.4782
v  -54.1976 8.5514 140.4782
v  -57.5361 2.1790 134.1059
v  -54.1976 2.1790 134.1059
v  -57.5361 -0.1535 125.4010
v  -54.1976 -0.1535 125.4010
v  -57.5361 2.1790 116.6961
v  -54.1976 2.1790 116.6961
v  -57.5361 8.5514 110.3236
v  -54.1976 8.5514 110.3236
v  -57.5361 17.2563 107.9911
v  -54.1976 17.2563 107.9911
v  -57.5361 25.9612 110.3236
v  -54.1976 25.9612 110.3236
v  -57.5361 28.5786 131.9379
v  -57.5361 23.7933 136.7232
v  -57.5361 32.3337 116.6960
v  -54.1976 32.3337 116.6960
v  -57.5361 10.7194 136.7232
v  -57.5361 17.2563 138.4748
v  -61.7512 17.2563 138.4748
v  -61.7512 10.7194 136.7232
v  -57.5361 17.2563 112.3271
v  -57.5361 23.7933 114.0786
v  -57.5361 10.7194 114.0786
v  -57.5361 5.9341 118.8640
v  -57.5361 4.1825 125.4010
v  -57.5361 5.9341 131.9379
v  -57.5361 28.5786 118.8640
v  -57.5361 30.3302 125.4010
v  -61.7512 28.5786 131.9379
v  -61.7512 30.3302 125.4010
v  -61.7512 28.5786 118.8640
v  -61.7512 23.7933 114.0786
v  -61.7512 17.2563 112.3271
v  -61.7512 10.7194 114.0786
v  -61.7512 5.9341 118.8640
v  -61.7512 4.1825 125.4010
v  -61.7512 5.9341 131.9379
v  -61.7512 23.7933 136.7232
v  54.1093 34.6662 -129.0663
v  57.4478 34.6662 -129.0663
v  57.4478 32.3337 -137.7712
v  54.1093 32.3337 -137.7712
v  57.4478 25.9613 -144.1436
v  54.1093 25.9613 -144.1436
v  57.4478 17.2564 -146.4761
v  54.1093 17.2564 -146.4761
v  57.4478 8.5515 -144.1436
v  54.1093 8.5515 -144.1436
v  57.4478 2.1790 -137.7712
v  54.1093 2.1790 -137.7712
v  57.4478 -0.1534 -129.0663
v  54.1093 -0.1534 -129.0663
v  57.4478 2.1790 -120.3614
v  54.1093 2.1790 -120.3614
v  57.4478 8.5515 -113.9890
v  54.1093 8.5515 -113.9890
v  57.4478 17.2564 -111.6565
v  54.1093 17.2564 -111.6565
v  57.4478 25.9613 -113.9890
v  54.1093 25.9613 -113.9890
v  57.4478 28.5787 -135.6032
v  57.4478 23.7933 -140.3886
v  57.4478 32.3337 -120.3614
v  54.1093 32.3337 -120.3614
v  57.4478 10.7194 -140.3886
v  57.4478 17.2564 -142.1401
v  61.6629 17.2564 -142.1401
v  61.6629 10.7194 -140.3886
v  57.4478 17.2564 -115.9924
v  57.4478 23.7933 -117.7440
v  57.4478 10.7194 -117.7440
v  57.4478 5.9341 -122.5293
v  57.4478 4.1825 -129.0663
v  57.4478 5.9341 -135.6032
v  57.4478 28.5786 -122.5293
v  57.4478 30.3302 -129.0663
v  61.6629 28.5787 -135.6032
v  61.6629 30.3302 -129.0663
v  61.6629 28.5786 -122.5293
v  61.6629 23.7933 -117.7440
v  61.6629 17.2564 -115.9924
v  61.6629 10.7194 -117.7440
v  61.6629 5.9341 -122.5293
v  61.6629 4.1825 -129.0663
v  61.6629 5.9341 -135.6032
v  61.6629 23.7933 -140.3886
v  63.8184 44.8460 -157.6360
v  40.1964 44.8460 -157.6360
v  40.1964 13.3188 -157.6360
v  63.8184 13.3188 -157.6360
v  40.1964 44.8460 -181.2581
v  40.1964 13.3188 -181.2581
v  63.8184 44.8460 -181.2581
v  63.8184 13.3188 -181.2581
v  63.6027 21.9315 -118.6104
v  57.3793 21.9315 -118.6104
v  57.3793 11.9063 -118.6104
v  63.6027 11.9063 -118.6104
v  57.3793 27.5370 -169.4471
v  57.3793 21.9315 -220.2838
v  57.3793 11.9063 -220.2838
v  57.3793 20.5851 -169.4471
v  63.6027 21.9315 -220.2838
v  63.6027 11.9063 -220.2838
v  63.6027 27.5370 -169.4471
v  63.6027 20.5851 -169.4471
v  58.8196 17.2035 -164.1421
v  58.8196 39.0277 -164.1421
v  59.3141 39.0277 -165.9876
v  59.3141 17.2035 -165.9876
v  60.6650 39.0277 -167.3385
v  60.6650 17.2035 -167.3385
v  62.5105 39.0277 -167.8330
v  62.5105 17.2035 -167.8330
v  64.3559 39.0277 -167.3385
v  64.3559 17.2035 -167.3385
v  65.7068 39.0277 -165.9876
v  65.7068 17.2035 -165.9876
v  66.2013 39.0277 -164.1421
v  66.2013 17.2035 -164.1421
v  65.7068 39.0277 -162.2968
v  65.7068 17.2035 -162.2968
v  64.3559 39.0277 -160.9458
v  64.3559 17.2035 -160.9458
v  62.5105 39.0277 -160.4513
v  62.5105 17.2035 -160.4513
v  60.6650 39.0277 -160.9458
v  60.6650 17.2035 -160.9458
v  59.3141 39.0277 -162.2968
v  59.3141 17.2035 -162.2968
v  58.8196 17.2035 -174.8057
v  58.8196 39.0277 -174.8057
v  59.3141 39.0277 -176.6511
v  59.3141 17.2035 -176.6511
v  60.6650 39.0277 -178.0020
v  60.6650 17.2035 -178.0020
v  62.5105 39.0277 -178.4965
v  62.5105 17.2035 -178.4965
v  64.3559 39.0277 -178.0020
v  64.3559 17.2035 -178.0020
v  65.7068 39.0277 -176.6511
v  65.7068 17.2035 -176.6511
v  66.2013 39.0277 -174.8057
v  66.2013 17.2035 -174.8057
v  65.7068 39.0277 -172.9603
v  65.7068 17.2035 -172.9603
v  64.3559 39.0277 -171.6094
v  64.3559 17.2035 -171.6094
v  62.5105 39.0277 -171.1148
v  62.5105 17.2035 -171.1148
v  60.6650 39.0277 -171.6094
v  60.6650 17.2035 -171.6094
v  59.3141 39.0277 -172.9603
v  59.3141 17.2035 -172.9603
v  54.1093 34.6662 -210.3277
v  57.4478 34.6662 -210.3277
v  57.4478 32.3337 -219.0327
v  54.1093 32.3337 -219.0327
v  57.4478 25.9613 -225.4051
v  54.1093 25.9613 -225.4051
v  57.4478 17.2564 -227.7376
v  54.1093 17.2564 -227.7376
v  57.4478 8.5515 -225.4051
v  54.1093 8.5515 -225.4051
v  57.4478 2.1790 -219.0327
v  54.1093 2.1790 -219.0327
v  57.4478 -0.1534 -210.3277
v  54.1093 -0.1534 -210.3277
v  57.4478 2.1790 -201.6228
v  54.1093 2.1790 -201.6228
v  57.4478 8.5515 -195.2504
v  54.1093 8.5515 -195.2504
v  57.4478 17.2564 -192.9179
v  54.1093 17.2564 -192.9179
v  57.4478 25.9613 -195.2504
v  54.1093 25.9613 -195.2504
v  57.4478 28.5787 -216.8647
v  57.4478 23.7933 -221.6501
v  57.4478 32.3337 -201.6228
v  54.1093 32.3337 -201.6228
v  57.4478 10.7195 -221.6501
v  57.4478 17.2564 -223.4016
v  61.6629 17.2564 -223.4016
v  61.6629 10.7195 -221.6501
v  57.4478 17.2564 -197.2539
v  57.4478 23.7933 -199.0055
v  57.4478 10.7194 -199.0055
v  57.4478 5.9341 -203.7909
v  57.4478 4.1825 -210.3277
v  57.4478 5.9341 -216.8647
v  57.4478 28.5787 -203.7909
v  57.4478 30.3302 -210.3277
v  61.6629 28.5787 -216.8647
v  61.6629 30.3302 -210.3277
v  61.6629 28.5787 -203.7909
v  61.6629 23.7933 -199.0055
v  61.6629 17.2564 -197.2539
v  61.6629 10.7194 -199.0055
v  61.6629 5.9341 -203.7909
v  61.6629 4.1825 -210.3277
v  61.6629 5.9341 -216.8647
v  61.6629 23.7933 -221.6501
v  54.1093 34.6662 125.0433
v  57.4478 34.6662 125.0433
v  57.4478 32.3337 116.3384
v  54.1093 32.3337 116.3384
v  57.4478 25.9612 109.9660
v  54.1093 25.9612 109.9660
v  57.4478 17.2563 107.6335
v  54.1093 17.2563 107.6335
v  57.4478 8.5514 109.9660
v  54.1093 8.5514 109.9660
v  57.4478 2.1790 116.3384
v  54.1093 2.1790 116.3384
v  57.4478 -0.1535 125.0433
v  54.1093 -0.1535 125.0433
v  57.4478 2.1790 133.7482
v  54.1093 2.1790 133.7482
v  57.4478 8.5514 140.1207
v  54.1093 8.5514 140.1207
v  57.4478 17.2563 142.4531
v  54.1093 17.2563 142.4531
v  57.4478 25.9612 140.1207
v  54.1093 25.9612 140.1207
v  57.4478 28.5786 118.5064
v  57.4478 23.7933 113.7211
v  57.4478 32.3337 133.7482
v  54.1093 32.3337 133.7482
v  57.4478 10.7194 113.7211
v  57.4478 17.2563 111.9695
v  61.6629 17.2563 111.9695
v  61.6629 10.7194 113.7211
v  57.4478 17.2563 138.1172
v  57.4478 23.7933 136.3656
v  57.4478 10.7194 136.3656
v  57.4478 5.9341 131.5802
v  57.4478 4.1825 125.0433
v  57.4478 5.9341 118.5064
v  57.4478 28.5786 131.5802
v  57.4478 30.3302 125.0433
v  61.6629 28.5786 118.5064
v  61.6629 30.3302 125.0433
v  61.6629 28.5786 131.5802
v  61.6629 23.7933 136.3656
v  61.6629 17.2563 138.1172
v  61.6629 10.7194 136.3656
v  61.6629 5.9341 131.5802
v  61.6629 4.1825 125.0433
v  61.6629 5.9341 118.5064
v  61.6629 23.7933 113.7211
v  58.8196 17.2035 160.5653
v  58.8196 39.0277 160.5653
v  59.3141 39.0277 158.7199
v  59.3141 17.2035 158.7199
v  60.6651 39.0277 157.3690
v  60.6651 17.2035 157.3690
v  62.5105 39.0277 156.8745
v  62.5105 17.2035 156.8745
v  64.3559 39.0277 157.3690
v  64.3559 17.2035 157.3690
v  65.7068 39.0277 158.7199
v  65.7068 17.2035 158.7199
v  66.2013 39.0277 160.5653
v  66.2013 17.2035 160.5653
v  65.7068 39.0277 162.4108
v  65.7068 17.2035 162.4108
v  64.3559 39.0277 163.7617
v  64.3559 17.2035 163.7617
v  62.5105 39.0277 164.2562
v  62.5105 17.2035 164.2562
v  60.6651 39.0277 163.7617
v  60.6651 17.2035 163.7617
v  59.3141 39.0277 162.4108
v  59.3141 17.2035 162.4108
v  58.8196 17.2035 171.2289
v  58.8196 39.0277 171.2289
v  59.3141 39.0277 169.3835
v  59.3141 17.2035 169.3835
v  60.6651 39.0277 168.0325
v  60.6651 17.2035 168.0325
v  62.5105 39.0277 167.5381
v  62.5105 17.2035 167.5381
v  64.3559 39.0277 168.0325
v  64.3559 17.2035 168.0325
v  65.7068 39.0277 169.3835
v  65.7068 17.2035 169.3835
v  66.2013 39.0277 171.2289
v  66.2013 17.2035 171.2289
v  65.7068 39.0277 173.0743
v  65.7068 17.2035 173.0743
v  64.3559 39.0277 174.4253
v  64.3559 17.2035 174.4253
v  62.5105 39.0277 174.9197
v  62.5105 17.2035 174.9197
v  60.6651 39.0277 174.4253
v  60.6651 17.2035 174.4253
v  59.3141 39.0277 173.0743
v  59.3141 17.2035 173.0743
v  63.6027 21.9315 216.7607
v  57.3793 21.9315 216.7607
v  57.3793 11.9063 216.7607
v  63.6027 11.9063 216.7607
v  57.3793 27.5370 165.9240
v  57.3793 21.9315 115.0873
v  57.3793 11.9063 115.0873
v  57.3793 20.5850 165.9240
v  63.6027 21.9315 115.0873
v  63.6027 11.9063 115.0873
v  63.6027 27.5370 165.9240
v  63.6027 20.5850 165.9240
v  63.8184 44.8460 177.7350
v  40.1964 44.8460 177.7350
v  40.1964 13.3188 177.7350
v  63.8184 13.3188 177.7350
v  40.1964 44.8460 154.1129
v  40.1964 13.3188 154.1129
v  63.8184 44.8460 154.1129
v  63.8184 13.3188 154.1129
v  54.1093 34.6661 206.3048
v  57.4478 34.6661 206.3048
v  57.4478 32.3337 197.5999
v  54.1093 32.3337 197.5999
v  57.4478 25.9612 191.2275
v  54.1093 25.9612 191.2275
v  57.4478 17.2563 188.8949
v  54.1093 17.2563 188.8949
v  57.4478 8.5514 191.2275
v  54.1093 8.5514 191.2275
v  57.4478 2.1790 197.5999
v  54.1093 2.1790 197.5999
v  57.4478 -0.1535 206.3048
v  54.1093 -0.1535 206.3048
v  57.4478 2.1790 215.0097
v  54.1093 2.1790 215.0097
v  57.4478 8.5514 221.3821
v  54.1093 8.5514 221.3821
v  57.4478 17.2563 223.7146
v  54.1093 17.2563 223.7146
v  57.4478 25.9612 221.3821
v  54.1093 25.9612 221.3821
v  57.4478 28.5786 199.7679
v  57.4478 23.7933 194.9825
v  57.4478 32.3337 215.0097
v  54.1093 32.3337 215.0097
v  57.4478 10.7194 194.9825
v  57.4478 17.2563 193.2309
v  61.6629 17.2563 193.2309
v  61.6629 10.7194 194.9825
v  57.4478 17.2563 219.3787
v  57.4478 23.7932 217.6271
v  57.4478 10.7194 217.6271
v  57.4478 5.9340 212.8417
v  57.4478 4.1825 206.3048
v  57.4478 5.9340 199.7679
v  57.4478 28.5786 212.8417
v  57.4478 30.3302 206.3048
v  61.6629 28.5786 199.7679
v  61.6629 30.3302 206.3048
v  61.6629 28.5786 212.8417
v  61.6629 23.7932 217.6271
v  61.6629 17.2563 219.3787
v  61.6629 10.7194 217.6271
v  61.6629 5.9340 212.8417
v  61.6629 4.1825 206.3048
v  61.6629 5.9340 199.7679
v  61.6629 23.7933 194.9825
v  -63.9767 30.6135 -245.0410
v  63.8884 30.6135 -245.0410
v  63.8884 9.0724 -245.0410
v  -63.9767 9.0724 -245.0410
v  63.8884 30.6135 -226.1490
v  63.8884 9.0724 -235.5922
v  -63.9767 30.6135 -226.1490
v  -63.9767 9.0724 -235.5922
v  63.8884 30.6135 241.6138
v  -63.9767 30.6135 241.6138
v  -63.9767 9.0724 241.6138
v  63.8884 9.0724 241.6138
v  -63.9767 30.6135 222.7218
v  -63.9767 9.0724 232.1650
v  63.8884 30.6135 222.7218
v  63.8884 9.0724 232.1650
v  63.8884 30.9925 107.7963
v  -63.9767 30.9925 107.7963
v  -63.9767 8.8955 100.5194
v  63.8884 8.8955 100.5194
v  -63.9767 30.9925 -111.6998
v  -63.9767 8.8955 -104.4229
v  63.8884 30.9925 -111.6998
v  63.8884 8.8955 -104.4229
v  67.8692 39.2992 246.0797
v  -67.9575 39.2992 246.0797
v  -67.9575 30.4410 246.0797
v  67.8692 30.4410 246.0797
v  -67.9576 39.2993 -249.9833
v  -67.9576 30.4410 -249.9833
v  67.8692 39.2993 -249.9833
v  67.8692 30.4410 -249.9833
v  67.8692 48.1576 -249.9833
v  -67.9576 48.1576 -249.9833
v  -61.1001 48.1576 -241.8049
v  61.0118 48.1576 -241.8049
v  -61.1001 48.1575 237.9014
v  61.0118 48.1575 237.9014
v  -67.9575 48.1575 246.0798
v  67.8692 48.1575 246.0798
v  -8.3462 33.5235 -252.2219
v  8.2580 33.5235 -252.2219
v  8.2580 17.3390 -252.2219
v  -8.3462 17.3390 -252.2219
v  8.2580 33.5235 -243.7788
v  8.2580 17.3390 -243.7788
v  -8.3462 33.5235 -243.7788
v  -8.3462 17.3390 -243.7788
v  -4.0744 29.8744 -267.0287
v  3.9861 29.8744 -267.0287
v  3.9861 20.8764 -267.0287
v  -4.0744 20.8764 -267.0287
v  -4.0744 24.3485 -262.3023
v  -4.0744 29.8743 -262.3023
v  -4.0744 24.3485 -256.3211
v  -4.0744 20.8764 -241.9791
v  -4.0744 29.8743 -256.3211
v  -4.0744 29.8743 -241.9791
v  3.9861 29.8743 -262.3023
v  3.9861 24.3485 -256.3211
v  3.9861 29.8743 -256.3211
v  3.9861 29.8743 -241.9791
v  3.9861 20.8764 -241.9791
v  3.9861 24.3485 -262.3023
v  3.7510 16.9444 248.9639
v  3.7510 33.5487 248.9639
v  -12.4335 33.5487 248.9639
v  -12.4335 16.9444 248.9639
v  3.7510 33.5487 242.9259
v  -12.4335 33.5487 242.9259
v  3.7510 16.9444 242.9259
v  -12.4335 16.9444 242.9259
v  0.1019 21.2163 263.7706
v  0.1019 29.2768 263.7706
v  -8.8960 29.2768 263.7706
v  -8.8960 21.2163 263.7706
v  -5.4240 21.2163 259.0443
v  0.1019 21.2163 259.0443
v  -5.4240 21.2163 253.0631
v  -8.8960 21.2163 238.7211
v  4.6464 21.2163 253.0631
v  4.6464 21.2163 238.7211
v  0.1019 29.2768 259.0443
v  -5.4240 29.2768 253.0631
v  4.6464 29.2768 253.0631
v  4.6464 29.2768 238.7211
v  -8.8960 29.2768 238.7211
v  -5.4240 29.2768 259.0443
v  0.4189 33.5487 248.9639
v  0.4189 16.9444 248.9639
v  16.6033 16.9444 248.9639
v  16.6033 33.5487 248.9639
v  0.4189 16.9444 239.3705
v  16.6033 16.9444 239.3705
v  0.4189 33.5487 239.3705
v  16.6033 33.5487 239.3705
v  4.0680 29.2768 263.7706
v  4.0680 21.2163 263.7706
v  13.0659 21.2163 263.7706
v  13.0659 29.2768 263.7706
v  9.5938 29.2768 259.0443
v  4.0680 29.2768 259.0443
v  9.5938 29.2768 253.0631
v  13.0659 29.2768 238.7211
v  4.0680 29.2768 253.0631
v  4.0680 29.2768 238.7211
v  4.0680 21.2163 259.0443
v  9.5938 21.2163 253.0631
v  4.0680 21.2163 253.0631
v  4.0680 21.2163 238.7211
v  13.0659 21.2163 238.7211
v  9.5938 21.2163 259.0443
# 768 vertices

vn 0.0000 0.9659 0.2588
vn 0.0000 0.7071 0.7071
vn -0.0000 0.2588 0.9659
vn -0.0000 -0.2588 0.9659
vn 0.0000 -0.7071 0.7071
vn 0.0000 -0.9659 0.2588
vn 0.0000 -0.9659 -0.2588
vn 0.0000 -0.7071 -0.7071
vn 0.0000 -0.2588 -0.9659
vn 0.0000 0.2588 -0.9659
vn -1.0000 0.0000 -0.0000
vn -0.0000 0.7071 -0.7071
vn -0.0000 0.9659 -0.2588
vn 1.0000 -0.0000 0.0000
vn 1.0000 -0.0000 -0.0000
vn 1.0000 0.0000 0.0000
vn -1.0000 0.0000 0.0000
vn 0.0000 0.7071 -0.7071
vn -0.0000 -0.7071 0.7071
vn 0.0000 0.9659 -0.2588
vn 0.0000 0.2588 0.9659
vn 0.0000 0.0000 -1.0000
vn 1.0000 0.0000 -0.0000
vn 0.0000 -0.0000 1.0000
vn -0.0000 -1.0000 -0.0000
vn 0.0000 1.0000 0.0000
vn -0.0000 -0.9857 -0.1683
vn 0.0000 0.9940 -0.1096
vn 0.0000 0.9940 0.1096
vn 0.0000 -0.9857 0.1683
vn 0.9659 -0.0000 0.2588
vn 0.7071 -0.0000 0.7071
vn 0.2588 -0.0000 0.9659
vn -0.2588 -0.0000 0.9659
vn -0.7071 -0.0000 0.7071
vn -0.9659 0.0000 0.2588
vn -0.9659 0.0000 -0.2588
vn -0.7071 0.0000 -0.7071
vn -0.2588 0.0000 -0.9659
vn 0.2588 0.0000 -0.9659
vn 0.7071 0.0000 -0.7071
vn 0.9659 0.0000 -0.2588
vn 0.0000 -1.0000 0.0000
vn -0.0000 -1.0000 0.0000
vn 0.0000 -1.0000 -0.0000
vn -0.9659 -0.0000 0.2588
vn 0.0000 1.0000 -0.0000
vn 0.0000 -0.2588 0.9659
vn -1.0000 -0.0000 0.0000
vn -1.0000 -0.0000 -0.0000
vn -0.0000 -0.9659 0.2588
vn -0.0000 -0.9659 -0.2588
vn -0.0000 -0.7071 -0.7071
vn -0.0000 0.2588 -0.9659
vn -0.0000 -0.2588 -0.9659
vn -0.9659 -0.0000 -0.2588
vn -0.0000 1.0000 0.0000
vn -0.2589 0.0000 -0.9659
vn -0.0000 0.9659 0.2588
vn -0.0000 -0.4015 0.9159
vn -0.0000 -0.4015 -0.9159
vn 0.0000 -0.3128 0.9498
vn 0.0000 -0.3128 -0.9498
# 63 vertex normals

vt 0.1912 0.0341 0.0000
vt 0.1905 0.0339 0.0000
vt 0.1900 0.0334 0.0000
vt 0.1898 0.0327 0.0000
vt 0.1900 0.0320 0.0000
vt 0.1905 0.0315 0.0000
vt 0.1912 0.0313 0.0000
vt 0.1919 0.0315 0.0000
vt 0.1924 0.0320 0.0000
vt 0.1926 0.0327 0.0000
vt 0.1924 0.0334 0.0000
vt 0.1907 0.0336 0.0000
vt 0.1903 0.0332 0.0000
vt 0.1919 0.0339 0.0000
vt 0.1903 0.0322 0.0000
vt 0.1902 0.0327 0.0000
vt 0.1922 0.0327 0.0000
vt 0.1921 0.0332 0.0000
vt 0.1921 0.0322 0.0000
vt 0.1917 0.0318 0.0000
vt 0.1912 0.0317 0.0000
vt 0.1907 0.0318 0.0000
vt 0.1917 0.0336 0.0000
vt 0.1912 0.0337 0.0000
vt 0.1890 0.0349 0.0000
vt 0.1890 0.0324 0.0000
vt 0.1871 0.0349 0.0000
vt 0.1871 0.0324 0.0000
vt 0.1920 0.0331 0.0000
vt 0.1920 0.0323 0.0000
vt 0.1880 0.0335 0.0000
vt 0.1840 0.0331 0.0000
vt 0.1840 0.0323 0.0000
vt 0.1880 0.0330 0.0000
vt 0.1884 0.0327 0.0000
vt 0.1884 0.0344 0.0000
vt 0.1883 0.0344 0.0000
vt 0.1883 0.0327 0.0000
vt 0.1882 0.0344 0.0000
vt 0.1882 0.0327 0.0000
vt 0.1886 0.0344 0.0000
vt 0.1886 0.0327 0.0000
vt 0.1887 0.0344 0.0000
vt 0.1887 0.0327 0.0000
vt 0.1876 0.0327 0.0000
vt 0.1876 0.0344 0.0000
vt 0.1875 0.0344 0.0000
vt 0.1875 0.0327 0.0000
vt 0.1874 0.0344 0.0000
vt 0.1874 0.0327 0.0000
vt 0.1873 0.0344 0.0000
vt 0.1873 0.0327 0.0000
vt 0.1877 0.0344 0.0000
vt 0.1877 0.0327 0.0000
vt 0.1879 0.0344 0.0000
vt 0.1879 0.0327 0.0000
vt 0.1848 0.0341 0.0000
vt 0.1841 0.0339 0.0000
vt 0.1836 0.0334 0.0000
vt 0.1834 0.0327 0.0000
vt 0.1836 0.0320 0.0000
vt 0.1841 0.0315 0.0000
vt 0.1848 0.0313 0.0000
vt 0.1855 0.0315 0.0000
vt 0.1860 0.0320 0.0000
vt 0.1862 0.0327 0.0000
vt 0.1860 0.0334 0.0000
vt 0.1843 0.0336 0.0000
vt 0.1839 0.0332 0.0000
vt 0.1855 0.0339 0.0000
vt 0.1839 0.0322 0.0000
vt 0.1838 0.0327 0.0000
vt 0.1858 0.0327 0.0000
vt 0.1857 0.0332 0.0000
vt 0.1857 0.0322 0.0000
vt 0.1853 0.0318 0.0000
vt 0.1848 0.0317 0.0000
vt 0.1843 0.0318 0.0000
vt 0.1853 0.0336 0.0000
vt 0.1848 0.0337 0.0000
vt 0.1574 0.0341 0.0000
vt 0.1567 0.0339 0.0000
vt 0.1562 0.0334 0.0000
vt 0.1560 0.0327 0.0000
vt 0.1562 0.0320 0.0000
vt 0.1567 0.0315 0.0000
vt 0.1574 0.0313 0.0000
vt 0.1581 0.0315 0.0000
vt 0.1586 0.0320 0.0000
vt 0.1588 0.0327 0.0000
vt 0.1586 0.0334 0.0000
vt 0.1569 0.0336 0.0000
vt 0.1565 0.0332 0.0000
vt 0.1581 0.0339 0.0000
vt 0.1565 0.0322 0.0000
vt 0.1564 0.0327 0.0000
vt 0.1584 0.0327 0.0000
vt 0.1583 0.0332 0.0000
vt 0.1583 0.0322 0.0000
vt 0.1579 0.0318 0.0000
vt 0.1574 0.0317 0.0000
vt 0.1569 0.0318 0.0000
vt 0.1579 0.0336 0.0000
vt 0.1574 0.0337 0.0000
vt 0.1602 0.0327 0.0000
vt 0.1602 0.0344 0.0000
vt 0.1601 0.0344 0.0000
vt 0.1601 0.0327 0.0000
vt 0.1599 0.0344 0.0000
vt 0.1599 0.0327 0.0000
vt 0.1603 0.0344 0.0000
vt 0.1603 0.0327 0.0000
vt 0.1605 0.0344 0.0000
vt 0.1605 0.0327 0.0000
vt 0.1610 0.0327 0.0000
vt 0.1610 0.0344 0.0000
vt 0.1609 0.0344 0.0000
vt 0.1609 0.0327 0.0000
vt 0.1608 0.0344 0.0000
vt 0.1608 0.0327 0.0000
vt 0.1612 0.0344 0.0000
vt 0.1612 0.0327 0.0000
vt 0.1613 0.0344 0.0000
vt 0.1613 0.0327 0.0000
vt 0.1646 0.0331 0.0000
vt 0.1646 0.0323 0.0000
vt 0.1606 0.0335 0.0000
vt 0.1566 0.0331 0.0000
vt 0.1566 0.0323 0.0000
vt 0.1606 0.0330 0.0000
vt 0.1616 0.0349 0.0000
vt 0.1616 0.0324 0.0000
vt 0.1597 0.0349 0.0000
vt 0.1597 0.0324 0.0000
vt 0.1638 0.0341 0.0000
vt 0.1631 0.0339 0.0000
vt 0.1626 0.0334 0.0000
vt 0.1624 0.0327 0.0000
vt 0.1626 0.0320 0.0000
vt 0.1631 0.0315 0.0000
vt 0.1638 0.0313 0.0000
vt 0.1645 0.0315 0.0000
vt 0.1650 0.0320 0.0000
vt 0.1652 0.0327 0.0000
vt 0.1650 0.0334 0.0000
vt 0.1633 0.0336 0.0000
vt 0.1629 0.0332 0.0000
vt 0.1645 0.0339 0.0000
vt 0.1629 0.0322 0.0000
vt 0.1628 0.0327 0.0000
vt 0.1648 0.0327 0.0000
vt 0.1647 0.0332 0.0000
vt 0.1647 0.0322 0.0000
vt 0.1643 0.0318 0.0000
vt 0.1638 0.0317 0.0000
vt 0.1633 0.0318 0.0000
vt 0.1643 0.0336 0.0000
vt 0.1638 0.0337 0.0000
vt 0.1859 0.0327 0.0000
vt 0.1889 0.0349 0.0000
vt 0.1889 0.0324 0.0000
vt 0.1878 0.0344 0.0000
vt 0.1878 0.0327 0.0000
vt 0.1881 0.0344 0.0000
vt 0.1881 0.0327 0.0000
vt 0.1906 0.0315 0.0000
vt 0.1901 0.0320 0.0000
vt 0.1899 0.0327 0.0000
vt 0.1901 0.0334 0.0000
vt 0.1918 0.0336 0.0000
vt 0.1906 0.0339 0.0000
vt 0.1923 0.0327 0.0000
vt 0.1918 0.0318 0.0000
vt 0.1632 0.0315 0.0000
vt 0.1627 0.0320 0.0000
vt 0.1625 0.0327 0.0000
vt 0.1627 0.0334 0.0000
vt 0.1644 0.0336 0.0000
vt 0.1632 0.0339 0.0000
vt 0.1649 0.0327 0.0000
vt 0.1644 0.0318 0.0000
vt 0.1607 0.0344 0.0000
vt 0.1607 0.0327 0.0000
vt 0.1604 0.0344 0.0000
vt 0.1604 0.0327 0.0000
vt 0.1600 0.0344 0.0000
vt 0.1600 0.0327 0.0000
vt 0.1615 0.0349 0.0000
vt 0.1615 0.0324 0.0000
vt 0.1585 0.0327 0.0000
vt 0.1639 0.0350 0.0000
vt 0.1798 0.0350 0.0000
vt 0.1798 0.0509 0.0000
vt 0.1639 0.0509 0.0000
vt 0.5624 0.0096 0.0000
vt 0.5783 0.0096 0.0000
vt 0.5783 0.0255 0.0000
vt 0.5624 0.0255 0.0000
vt 0.9385 0.7598 0.0000
vt 0.9385 0.9781 0.0000
vt 0.0809 0.9781 0.0000
vt 0.0809 0.7598 0.0000
vt 0.1508 0.0343 0.0000
vt 0.1508 0.0332 0.0000
vt 0.1512 0.0343 0.0000
vt 0.1512 0.0332 0.0000
vt 0.1496 0.0340 0.0000
vt 0.1496 0.0334 0.0000
vt 0.1499 0.0337 0.0000
vt 0.1499 0.0340 0.0000
vt 0.1502 0.0337 0.0000
vt 0.1512 0.0334 0.0000
vt 0.1502 0.0340 0.0000
vt 0.1512 0.0340 0.0000
# 214 texture coords

g SPW_Vehicle_Train_Freight_Train_Trailer_01
usemtl SPW_Vehicle_Train_Freight_Train_Trailer
s off
f 1/1/1 2/1/1 3/2/1 4/2/1 
f 4/2/2 3/2/2 5/3/2 6/3/2 
f 6/3/3 5/3/3 7/4/3 8/4/3 
f 8/4/4 7/4/4 9/5/4 10/5/4 
f 10/5/5 9/5/5 11/6/5 12/6/5 
f 12/6/6 11/6/6 13/7/6 14/7/6 
f 14/7/7 13/7/7 15/8/7 16/8/7 
f 16/8/8 15/8/8 17/9/8 18/9/8 
f 18/9/9 17/9/9 19/10/9 20/10/9 
f 20/10/10 19/10/10 21/11/10 22/11/10 
s 1
f 5/3/11 3/2/11 23/12/11 24/13/11 
s off
f 22/11/12 21/11/12 25/14/12 26/14/12 
f 26/14/13 25/14/13 2/1/13 1/1/13 
f 1/1/14 4/2/14 6/3/14 8/4/14 
f 1/1/15 8/4/15 10/5/15 12/6/15 
f 1/1/15 12/6/15 14/7/15 16/8/15 
f 1/1/14 16/8/14 18/9/14 20/10/14 
f 1/1/16 20/10/16 22/11/16 26/14/16 
f 27/15/4 28/16/4 29/16/4 30/15/4 
s 2
f 21/11/11 19/10/11 31/17/11 32/18/11 
s off
f 19/10/11 17/9/11 33/19/11 31/17/11 
s 2
f 17/9/11 15/8/17 34/20/17 33/19/11 
f 15/8/17 13/7/17 35/21/17 34/20/17 
s 1
f 13/7/11 11/6/11 36/22/11 35/21/11 
f 11/6/11 9/5/17 27/15/11 36/22/11 
f 9/5/17 7/4/11 28/16/11 27/15/11 
f 2/1/11 25/14/11 37/23/11 38/24/11 
f 3/2/11 2/1/11 38/24/11 23/12/11 
f 7/4/11 5/3/11 24/13/11 28/16/11 
s 2
f 25/14/11 21/11/11 32/18/11 37/23/11 
s off
f 39/12/11 40/24/11 41/23/11 42/18/11 
f 39/12/11 42/18/11 43/17/11 44/19/11 
f 39/12/11 44/19/11 45/20/11 46/21/11 
f 39/12/11 46/21/11 47/22/11 30/15/11 
f 39/12/11 30/15/11 29/16/11 48/13/11 
f 37/23/18 32/18/18 42/18/18 41/23/18 
f 23/12/1 38/24/1 40/24/1 39/12/1 
f 33/19/8 34/20/8 45/20/8 44/19/8 
f 36/22/19 27/15/19 30/15/19 47/22/19 
f 38/24/20 37/23/20 41/23/20 40/24/20 
f 24/13/2 23/12/2 39/12/2 48/13/2 
f 31/17/9 33/19/9 44/19/9 43/17/9 
f 35/21/6 36/22/6 47/22/6 46/21/6 
f 28/16/21 24/13/21 48/13/21 29/16/21 
f 32/18/10 31/17/10 43/17/10 42/18/10 
f 34/20/7 35/21/7 46/21/7 45/20/7 
f 49/25/22 50/25/22 51/26/22 52/26/22 
f 50/25/23 53/27/23 54/28/23 51/26/23 
f 53/27/24 55/27/24 56/28/24 54/28/24 
f 55/27/11 49/25/11 52/26/11 56/28/11 
f 52/26/25 51/26/25 54/28/25 56/28/25 
f 55/27/26 53/27/26 50/25/26 49/25/26 
f 57/29/22 58/29/22 59/30/22 60/30/22 
s 1
f 61/31/14 62/32/14 63/33/14 64/34/14 
s off
f 62/32/24 65/32/24 66/33/24 63/33/24 
s 1
f 67/31/11 57/29/11 60/30/11 68/34/11 
s off
f 68/34/27 64/34/27 63/33/27 66/33/27 
f 67/31/28 61/31/28 58/29/28 57/29/28 
f 65/32/29 62/32/29 61/31/29 67/31/29 
f 60/30/30 59/30/30 64/34/30 68/34/30 
s 1
f 65/32/11 67/31/11 68/34/11 66/33/11 
f 58/29/14 61/31/14 64/34/14 59/30/14 
s off
f 69/35/31 70/36/31 71/37/31 72/38/31 
f 72/38/32 71/37/32 73/39/32 74/40/32 
f 74/40/33 73/39/33 75/39/33 76/40/33 
f 76/40/34 75/39/34 77/39/34 78/40/34 
f 78/40/35 77/39/35 79/37/35 80/38/35 
f 80/38/36 79/37/36 81/36/36 82/35/36 
f 82/35/37 81/36/37 83/41/37 84/42/37 
f 84/42/38 83/41/38 85/43/38 86/44/38 
f 86/44/39 85/43/39 87/43/39 88/44/39 
f 88/44/40 87/43/40 89/43/40 90/44/40 
f 71/37/26 70/36/26 91/41/26 89/43/26 
f 71/37/26 89/43/26 87/43/26 85/43/26 
f 71/37/26 85/43/26 83/41/26 81/36/26 
f 71/37/26 81/36/26 79/37/26 77/39/26 
f 71/37/26 77/39/26 75/39/26 73/39/26 
f 90/44/41 89/43/41 91/41/41 92/42/41 
f 92/42/42 91/41/42 70/36/42 69/35/42 
f 69/35/43 72/38/43 74/40/43 76/40/43 
f 69/35/44 76/40/44 78/40/44 80/38/44 
f 69/35/43 80/38/43 82/35/43 84/42/43 
f 69/35/25 84/42/25 86/44/25 88/44/25 
f 69/35/45 88/44/45 90/44/45 92/42/45 
f 93/45/31 94/46/31 95/47/31 96/48/31 
f 96/48/32 95/47/32 97/49/32 98/50/32 
f 98/50/33 97/49/33 99/51/33 100/52/33 
f 100/52/34 99/51/34 101/49/34 102/50/34 
f 102/50/35 101/49/35 103/47/35 104/48/35 
f 104/48/46 103/47/46 105/46/46 106/45/46 
f 106/45/37 105/46/37 107/53/37 108/54/37 
f 108/54/38 107/53/38 109/55/38 110/56/38 
f 110/56/39 109/55/39 111/55/39 112/56/39 
f 112/56/40 111/55/40 113/55/40 114/56/40 
f 95/47/47 94/46/47 115/53/47 113/55/47 
f 95/47/47 113/55/47 111/55/47 109/55/47 
f 95/47/26 109/55/26 107/53/26 105/46/26 
f 95/47/26 105/46/26 103/47/26 101/49/26 
f 95/47/26 101/49/26 99/51/26 97/49/26 
f 114/56/41 113/55/41 115/53/41 116/54/41 
f 116/54/42 115/53/42 94/46/42 93/45/42 
f 93/45/44 96/48/44 98/50/44 100/52/44 
f 93/45/44 100/52/44 102/50/44 104/48/44 
f 93/45/25 104/48/25 106/45/25 108/54/25 
f 93/45/44 108/54/44 110/56/44 112/56/44 
f 93/45/45 112/56/45 114/56/45 116/54/45 
f 117/57/1 118/57/1 119/58/1 120/58/1 
f 120/58/2 119/58/2 121/59/2 122/59/2 
f 122/59/21 121/59/21 123/60/21 124/60/21 
f 124/60/48 123/60/48 125/61/48 126/61/48 
f 126/61/5 125/61/5 127/62/5 128/62/5 
f 128/62/6 127/62/6 129/63/6 130/63/6 
f 130/63/7 129/63/7 131/64/7 132/64/7 
f 132/64/8 131/64/8 133/65/8 134/65/8 
f 134/65/9 133/65/9 135/66/9 136/66/9 
f 136/66/10 135/66/10 137/67/10 138/67/10 
s 1
f 121/59/49 119/58/17 139/68/17 140/69/49 
s off
f 138/67/18 137/67/18 141/70/18 142/70/18 
f 142/70/20 141/70/20 118/57/20 117/57/20 
f 117/57/15 120/58/15 122/59/15 124/60/15 
f 117/57/14 124/60/14 126/61/14 128/62/14 
f 117/57/14 128/62/14 130/63/14 132/64/14 
f 117/57/14 132/64/14 134/65/14 136/66/14 
f 117/57/14 136/66/14 138/67/14 142/70/14 
f 143/71/48 144/72/48 145/72/48 146/71/48 
s 1
f 137/67/11 135/66/11 147/73/11 148/74/11 
f 135/66/11 133/65/11 149/75/11 147/73/11 
s off
f 133/65/11 131/64/11 150/76/11 149/75/11 
f 131/64/11 129/63/11 151/77/11 150/76/11 
s 1
f 129/63/11 127/62/17 152/78/17 151/77/11 
f 127/62/17 125/61/11 143/71/11 152/78/17 
s 2
f 125/61/11 123/60/11 144/72/11 143/71/11 
s off
f 118/57/50 141/70/50 153/79/50 154/80/50 
s 1
f 119/58/17 118/57/49 154/80/17 139/68/17 
s 2
f 123/60/11 121/59/11 140/69/11 144/72/11 
s 1
f 141/70/11 137/67/11 148/74/11 153/79/11 
s off
f 155/68/50 156/80/50 157/79/50 158/74/50 
f 155/68/11 158/74/11 159/73/11 160/75/11 
f 155/68/11 160/75/11 161/76/11 162/77/11 
f 155/68/11 162/77/11 163/78/11 146/71/11 
f 155/68/11 146/71/11 145/72/11 164/69/11 
f 153/79/18 148/74/18 158/74/18 157/79/18 
f 139/68/1 154/80/1 156/80/1 155/68/1 
f 149/75/8 150/76/8 161/76/8 160/75/8 
f 152/78/5 143/71/5 146/71/5 163/78/5 
f 154/80/20 153/79/20 157/79/20 156/80/20 
f 140/69/2 139/68/2 155/68/2 164/69/2 
f 147/73/9 149/75/9 160/75/9 159/73/9 
f 151/77/51 152/78/51 163/78/51 162/77/51 
f 144/72/21 140/69/21 164/69/21 145/72/21 
f 148/74/10 147/73/10 159/73/10 158/74/10 
f 150/76/52 151/77/52 162/77/52 161/76/52 
f 165/81/1 166/81/1 167/82/1 168/82/1 
f 168/82/2 167/82/2 169/83/2 170/83/2 
f 170/83/21 169/83/21 171/84/21 172/84/21 
f 172/84/48 171/84/48 173/85/48 174/85/48 
f 174/85/5 173/85/5 175/86/5 176/86/5 
f 176/86/6 175/86/6 177/87/6 178/87/6 
f 178/87/52 177/87/52 179/88/52 180/88/52 
f 180/88/53 179/88/53 181/89/53 182/89/53 
f 182/89/9 181/89/9 183/90/9 184/90/9 
f 184/90/10 183/90/10 185/91/10 186/91/10 
f 169/83/50 167/82/50 187/92/50 188/93/50 
f 186/91/18 185/91/18 189/94/18 190/94/18 
f 190/94/20 189/94/20 166/81/20 165/81/20 
f 165/81/16 168/82/16 170/83/16 172/84/16 
f 165/81/14 172/84/14 174/85/14 176/86/14 
f 165/81/14 176/86/14 178/87/14 180/88/14 
f 165/81/14 180/88/14 182/89/14 184/90/14 
f 165/81/23 184/90/23 186/91/23 190/94/23 
f 191/95/48 192/96/48 193/96/48 194/95/48 
s 1
f 185/91/11 183/90/11 195/97/11 196/98/11 
f 183/90/11 181/89/50 197/99/50 195/97/11 
f 181/89/50 179/88/11 198/100/11 197/99/50 
s 2
f 179/88/17 177/87/17 199/101/17 198/100/17 
f 177/87/17 175/86/11 200/102/11 199/101/17 
f 175/86/11 173/85/11 191/95/11 200/102/11 
s 1
f 173/85/11 171/84/11 192/96/17 191/95/11 
s 2
f 166/81/11 189/94/11 201/103/11 202/104/17 
f 167/82/11 166/81/11 202/104/17 187/92/11 
s 1
f 171/84/11 169/83/50 188/93/50 192/96/17 
f 189/94/11 185/91/11 196/98/11 201/103/11 
s off
f 203/92/11 204/104/11 205/103/11 206/98/11 
f 203/92/11 206/98/11 207/97/11 208/99/11 
f 203/92/11 208/99/11 209/100/11 210/101/11 
f 203/92/11 210/101/11 211/102/11 194/95/11 
f 203/92/11 194/95/11 193/96/11 212/93/11 
f 201/103/18 196/98/18 206/98/18 205/103/18 
f 187/92/1 202/104/1 204/104/1 203/92/1 
f 197/99/8 198/100/8 209/100/8 208/99/8 
f 200/102/5 191/95/5 194/95/5 211/102/5 
f 202/104/20 201/103/20 205/103/20 204/104/20 
f 188/93/2 187/92/2 203/92/2 212/93/2 
f 195/97/9 197/99/9 208/99/9 207/97/9 
f 199/101/6 200/102/6 211/102/6 210/101/6 
f 192/96/21 188/93/21 212/93/21 193/96/21 
f 196/98/54 195/97/54 207/97/54 206/98/54 
f 198/100/7 199/101/7 210/101/7 209/100/7 
f 213/105/31 214/106/31 215/107/31 216/108/31 
f 216/108/32 215/107/32 217/109/32 218/110/32 
f 218/110/33 217/109/33 219/109/33 220/110/33 
f 220/110/34 219/109/34 221/109/34 222/110/34 
f 222/110/35 221/109/35 223/107/35 224/108/35 
f 224/108/46 223/107/46 225/106/46 226/105/46 
f 226/105/37 225/106/37 227/111/37 228/112/37 
f 228/112/38 227/111/38 229/113/38 230/114/38 
f 230/114/39 229/113/39 231/113/39 232/114/39 
f 232/114/40 231/113/40 233/113/40 234/114/40 
f 215/107/26 214/106/26 235/111/26 233/113/26 
f 215/107/47 233/113/47 231/113/47 229/113/47 
f 215/107/26 229/113/26 227/111/26 225/106/26 
f 215/107/26 225/106/26 223/107/26 221/109/26 
f 215/107/26 221/109/26 219/109/26 217/109/26 
f 234/114/41 233/113/41 235/111/41 236/112/41 
f 236/112/42 235/111/42 214/106/42 213/105/42 
f 213/105/25 216/108/25 218/110/25 220/110/25 
f 213/105/43 220/110/43 222/110/43 224/108/43 
f 213/105/25 224/108/25 226/105/25 228/112/25 
f 213/105/44 228/112/44 230/114/44 232/114/44 
f 213/105/45 232/114/45 234/114/45 236/112/45 
f 237/115/31 238/116/31 239/117/31 240/118/31 
f 240/118/32 239/117/32 241/119/32 242/120/32 
f 242/120/33 241/119/33 243/119/33 244/120/33 
f 244/120/34 243/119/34 245/119/34 246/120/34 
f 246/120/35 245/119/35 247/117/35 248/118/35 
f 248/118/46 247/117/46 249/116/46 250/115/46 
f 250/115/37 249/116/37 251/121/37 252/122/37 
f 252/122/38 251/121/38 253/123/38 254/124/38 
f 254/124/39 253/123/39 255/123/39 256/124/39 
f 256/124/40 255/123/40 257/123/40 258/124/40 
f 239/117/26 238/116/26 259/121/26 257/123/26 
f 239/117/26 257/123/26 255/123/26 253/123/26 
f 239/117/26 253/123/26 251/121/26 249/116/26 
f 239/117/26 249/116/26 247/117/26 245/119/26 
f 239/117/26 245/119/26 243/119/26 241/119/26 
f 258/124/41 257/123/41 259/121/41 260/122/41 
f 260/122/42 259/121/42 238/116/42 237/115/42 
f 237/115/43 240/118/43 242/120/43 244/120/43 
f 237/115/44 244/120/44 246/120/44 248/118/44 
f 237/115/25 248/118/25 250/115/25 252/122/25 
f 237/115/25 252/122/25 254/124/25 256/124/25 
f 237/115/45 256/124/45 258/124/45 260/122/45 
f 261/125/22 262/125/22 263/126/22 264/126/22 
s 1
f 265/127/14 266/128/14 267/129/14 268/130/14 
s off
f 266/128/24 269/128/24 270/129/24 267/129/24 
s 1
f 271/127/11 261/125/11 264/126/11 272/130/11 
s off
f 272/130/27 268/130/27 267/129/27 270/129/27 
f 271/127/28 265/127/28 262/125/28 261/125/28 
f 269/128/29 266/128/29 265/127/29 271/127/29 
f 264/126/30 263/126/30 268/130/30 272/130/30 
s 1
f 269/128/11 271/127/11 272/130/11 270/129/11 
f 262/125/14 265/127/14 268/130/14 263/126/14 
s off
f 273/131/22 274/131/22 275/132/22 276/132/22 
f 274/131/23 277/133/23 278/134/23 275/132/23 
f 277/133/24 279/133/24 280/134/24 278/134/24 
f 279/133/17 273/131/17 276/132/17 280/134/17 
f 276/132/25 275/132/25 278/134/25 280/134/25 
f 279/133/26 277/133/26 274/131/26 273/131/26 
f 281/135/1 282/135/1 283/136/1 284/136/1 
f 284/136/2 283/136/2 285/137/2 286/137/2 
f 286/137/21 285/137/21 287/138/21 288/138/21 
f 288/138/48 287/138/48 289/139/48 290/139/48 
f 290/139/5 289/139/5 291/140/5 292/140/5 
f 292/140/6 291/140/6 293/141/6 294/141/6 
f 294/141/7 293/141/7 295/142/7 296/142/7 
f 296/142/8 295/142/8 297/143/8 298/143/8 
f 298/143/9 297/143/9 299/144/9 300/144/9 
f 300/144/10 299/144/10 301/145/10 302/145/10 
f 285/137/11 283/136/11 303/146/11 304/147/11 
f 302/145/12 301/145/12 305/148/12 306/148/12 
f 306/148/13 305/148/13 282/135/13 281/135/13 
f 281/135/16 284/136/16 286/137/16 288/138/16 
f 281/135/14 288/138/14 290/139/14 292/140/14 
f 281/135/14 292/140/14 294/141/14 296/142/14 
f 281/135/14 296/142/14 298/143/14 300/144/14 
f 281/135/23 300/144/23 302/145/23 306/148/23 
f 307/149/48 308/150/48 309/150/48 310/149/48 
s 1
f 301/145/17 299/144/17 311/151/17 312/152/11 
f 299/144/17 297/143/49 313/153/49 311/151/17 
s 2
f 297/143/11 295/142/17 314/154/17 313/153/11 
f 295/142/17 293/141/17 315/155/17 314/154/17 
s 1
f 293/141/11 291/140/11 316/156/11 315/155/11 
f 291/140/11 289/139/11 307/149/11 316/156/11 
f 289/139/11 287/138/11 308/150/11 307/149/11 
f 282/135/50 305/148/50 317/157/50 318/158/11 
s off
f 283/136/50 282/135/50 318/158/50 303/146/50 
s 1
f 287/138/11 285/137/11 304/147/11 308/150/11 
f 305/148/50 301/145/17 312/152/11 317/157/50 
s off
f 319/146/50 320/158/50 321/157/50 322/152/50 
f 319/146/11 322/152/11 323/151/11 324/153/11 
f 319/146/11 324/153/11 325/154/11 326/155/11 
f 319/146/11 326/155/11 327/156/11 310/149/11 
f 319/146/11 310/149/11 309/150/11 328/147/11 
f 317/157/18 312/152/18 322/152/18 321/157/18 
f 303/146/1 318/158/1 320/158/1 319/146/1 
f 313/153/8 314/154/8 325/154/8 324/153/8 
f 316/156/5 307/149/5 310/149/5 327/156/5 
f 318/158/20 317/157/20 321/157/20 320/158/20 
f 304/147/2 303/146/2 319/146/2 328/147/2 
f 311/151/9 313/153/9 324/153/9 323/151/9 
f 315/155/6 316/156/6 327/156/6 326/155/6 
f 308/150/21 304/147/21 328/147/21 309/150/21 
f 312/152/54 311/151/54 323/151/54 322/152/54 
f 314/154/7 315/155/7 326/155/7 325/154/7 
f 329/57/13 330/57/13 331/70/13 332/70/13 
f 332/70/18 331/70/18 333/67/18 334/67/18 
f 334/67/54 333/67/54 335/66/54 336/66/54 
f 336/66/55 335/66/55 337/65/55 338/65/55 
f 338/65/53 337/65/53 339/64/53 340/64/53 
f 340/64/7 339/64/7 341/63/7 342/63/7 
f 342/63/51 341/63/51 343/62/51 344/62/51 
f 344/62/19 343/62/19 345/61/19 346/61/19 
f 346/61/48 345/61/48 347/60/48 348/60/48 
f 348/60/21 347/60/21 349/59/21 350/59/21 
s 1
f 333/67/23 331/70/16 351/79/16 352/74/23 
s off
f 350/59/2 349/59/2 353/58/2 354/58/2 
f 354/58/1 353/58/1 330/57/1 329/57/1 
f 329/57/11 332/70/11 334/67/11 336/66/11 
f 329/57/50 336/66/50 338/65/50 340/64/50 
f 329/57/11 340/64/11 342/63/11 344/62/11 
f 329/57/49 344/62/49 346/61/49 348/60/49 
f 329/57/17 348/60/17 350/59/17 354/58/17 
f 355/75/9 356/159/9 357/159/9 358/75/9 
s 2
f 349/59/23 347/60/23 359/72/23 360/69/15 
f 347/60/23 345/61/23 361/71/23 359/72/23 
f 345/61/23 343/62/15 362/78/23 361/71/23 
f 343/62/15 341/63/15 363/77/15 362/78/23 
s off
f 341/63/14 339/64/14 364/76/14 363/77/14 
f 339/64/15 337/65/15 355/75/15 364/76/15 
s 1
f 337/65/23 335/66/23 356/159/23 355/75/23 
s 2
f 330/57/15 353/58/15 365/68/15 366/80/23 
s 1
f 331/70/16 330/57/14 366/80/16 351/79/16 
f 335/66/23 333/67/23 352/74/23 356/159/23 
s 2
f 353/58/15 349/59/23 360/69/15 365/68/15 
s off
f 367/79/16 368/80/16 369/68/16 370/69/16 
f 367/79/23 370/69/23 371/72/23 372/71/23 
f 367/79/15 372/71/15 373/78/15 374/77/15 
f 367/79/14 374/77/14 375/76/14 358/75/14 
f 367/79/23 358/75/23 357/159/23 376/74/23 
f 365/68/2 360/69/2 370/69/2 369/68/2 
f 351/79/20 366/80/20 368/80/20 367/79/20 
f 361/71/5 362/78/5 373/78/5 372/71/5 
f 364/76/8 355/75/8 358/75/8 375/76/8 
f 366/80/1 365/68/1 369/68/1 368/80/1 
f 352/74/18 351/79/18 367/79/18 376/74/18 
f 359/72/48 361/71/48 372/71/48 371/72/48 
f 363/77/7 364/76/7 375/76/7 374/77/7 
f 356/159/54 352/74/54 376/74/54 357/159/54 
f 360/69/3 359/72/3 371/72/3 370/69/3 
f 362/78/6 363/77/6 374/77/6 373/78/6 
f 377/27/24 378/27/24 379/28/24 380/28/24 
f 378/27/49 381/160/49 382/161/49 379/28/49 
f 381/160/22 383/160/22 384/161/22 382/161/22 
f 383/160/23 377/27/23 380/28/23 384/161/23 
f 380/28/45 379/28/45 382/161/45 384/161/45 
f 383/160/26 381/160/26 378/27/26 377/27/26 
f 385/32/24 386/32/24 387/33/24 388/33/24 
s 1
f 389/31/49 390/29/11 391/30/11 392/34/49 
s off
f 390/29/22 393/29/22 394/30/22 391/30/22 
s 1
f 395/31/23 385/32/23 388/33/23 396/34/23 
s off
f 396/34/30 392/34/30 391/30/30 394/30/30 
f 395/31/29 389/31/29 386/32/29 385/32/29 
f 393/29/28 390/29/28 389/31/28 395/31/28 
f 388/33/27 387/33/27 392/34/27 396/34/27 
s 1
f 393/29/23 395/31/23 396/34/23 394/30/23 
f 386/32/49 389/31/49 392/34/49 387/33/49 
s off
f 397/45/56 398/46/56 399/53/56 400/54/56 
f 400/54/38 399/53/38 401/162/38 402/163/38 
f 402/163/39 401/162/39 403/55/39 404/56/39 
f 404/56/40 403/55/40 405/162/40 406/163/40 
f 406/163/41 405/162/41 407/53/41 408/54/41 
f 408/54/42 407/53/42 409/46/42 410/45/42 
f 410/45/31 409/46/31 411/49/31 412/50/31 
f 412/50/32 411/49/32 413/51/32 414/52/32 
f 414/52/33 413/51/33 415/51/33 416/52/33 
f 416/52/34 415/51/34 417/51/34 418/52/34 
f 399/53/26 398/46/26 419/49/26 417/51/26 
f 399/53/26 417/51/26 415/51/26 413/51/26 
f 399/53/57 413/51/57 411/49/57 409/46/57 
f 399/53/57 409/46/57 407/53/57 405/162/57 
f 399/53/26 405/162/26 403/55/26 401/162/26 
f 418/52/35 417/51/35 419/49/35 420/50/35 
f 420/50/46 419/49/46 398/46/46 397/45/46 
f 397/45/45 400/54/45 402/163/45 404/56/45 
f 397/45/45 404/56/45 406/163/45 408/54/45 
f 397/45/45 408/54/45 410/45/45 412/50/45 
f 397/45/45 412/50/45 414/52/45 416/52/45 
f 397/45/45 416/52/45 418/52/45 420/50/45 
f 421/35/56 422/36/56 423/41/56 424/42/56 
f 424/42/38 423/41/38 425/43/38 426/44/38 
f 426/44/58 425/43/58 427/43/58 428/44/58 
f 428/44/40 427/43/40 429/43/40 430/44/40 
f 430/44/41 429/43/41 431/41/41 432/42/41 
f 432/42/42 431/41/42 433/36/42 434/35/42 
f 434/35/31 433/36/31 435/37/31 436/38/31 
f 436/38/32 435/37/32 437/39/32 438/40/32 
f 438/40/33 437/39/33 439/164/33 440/165/33 
f 440/165/34 439/164/34 441/39/34 442/40/34 
f 423/41/26 422/36/26 443/37/26 441/39/26 
f 423/41/26 441/39/26 439/164/26 437/39/26 
f 423/41/26 437/39/26 435/37/26 433/36/26 
f 423/41/26 433/36/26 431/41/26 429/43/26 
f 423/41/26 429/43/26 427/43/26 425/43/26 
f 442/40/35 441/39/35 443/37/35 444/38/35 
f 444/38/46 443/37/46 422/36/46 421/35/46 
f 421/35/43 424/42/43 426/44/43 428/44/43 
f 421/35/44 428/44/44 430/44/44 432/42/44 
f 421/35/44 432/42/44 434/35/44 436/38/44 
f 421/35/44 436/38/44 438/40/44 440/165/44 
f 421/35/44 440/165/44 442/40/44 444/38/44 
f 445/1/20 446/1/20 447/14/20 448/14/20 
f 448/14/18 447/14/18 449/11/18 450/11/18 
f 450/11/10 449/11/10 451/10/10 452/10/10 
f 452/10/55 451/10/55 453/9/55 454/9/55 
f 454/9/53 453/9/53 455/8/53 456/8/53 
f 456/8/7 455/8/7 457/7/7 458/7/7 
f 458/7/6 457/7/6 459/166/6 460/166/6 
f 460/166/5 459/166/5 461/167/5 462/167/5 
f 462/167/48 461/167/48 463/168/48 464/168/48 
f 464/168/21 463/168/21 465/169/21 466/169/21 
s 1
f 449/11/23 447/14/23 467/170/23 468/18/23 
s off
f 466/169/2 465/169/2 469/171/2 470/171/2 
f 470/171/1 469/171/1 446/1/1 445/1/1 
f 445/1/49 448/14/49 450/11/49 452/10/49 
f 445/1/11 452/10/11 454/9/11 456/8/11 
f 445/1/49 456/8/49 458/7/49 460/166/49 
f 445/1/17 460/166/17 462/167/17 464/168/17 
f 445/1/49 464/168/49 466/169/49 470/171/49 
f 471/19/9 472/172/9 473/172/9 474/19/9 
s 1
f 465/169/23 463/168/23 475/16/23 476/13/16 
f 463/168/23 461/167/14 477/15/23 475/16/23 
f 461/167/14 459/166/14 478/22/14 477/15/23 
s off
f 459/166/14 457/7/14 479/21/14 478/22/14 
s 1
f 457/7/15 455/8/15 480/173/15 479/21/15 
f 455/8/15 453/9/14 471/19/15 480/173/15 
s 2
f 453/9/23 451/10/23 472/172/23 471/19/23 
s off
f 446/1/16 469/171/16 481/12/16 482/24/16 
s 1
f 447/14/23 446/1/23 482/24/23 467/170/23 
s 2
f 451/10/23 449/11/23 468/18/23 472/172/23 
s 1
f 469/171/16 465/169/23 476/13/16 481/12/16 
s off
f 483/170/23 484/24/23 485/12/23 486/13/23 
f 483/170/23 486/13/23 487/16/23 488/15/23 
f 483/170/23 488/15/23 489/22/23 490/21/23 
f 483/170/23 490/21/23 491/173/23 474/19/23 
f 483/170/23 474/19/23 473/172/23 492/18/23 
f 481/12/2 476/13/2 486/13/2 485/12/2 
f 467/170/13 482/24/13 484/24/13 483/170/13 
f 477/15/5 478/22/5 489/22/5 488/15/5 
f 480/173/8 471/19/8 474/19/8 491/173/8 
f 482/24/1 481/12/1 485/12/1 484/24/1 
f 468/18/12 467/170/12 483/170/12 492/18/12 
f 475/16/48 477/15/48 488/15/48 487/16/48 
f 479/21/7 480/173/7 491/173/7 490/21/7 
f 472/172/10 468/18/10 492/18/10 473/172/10 
f 476/13/3 475/16/3 487/16/3 486/13/3 
f 478/22/6 479/21/6 490/21/6 489/22/6 
f 493/135/20 494/135/20 495/148/20 496/148/20 
f 496/148/18 495/148/18 497/145/18 498/145/18 
f 498/145/10 497/145/10 499/144/10 500/144/10 
f 500/144/9 499/144/9 501/143/9 502/143/9 
f 502/143/8 501/143/8 503/142/8 504/142/8 
f 504/142/7 503/142/7 505/141/7 506/141/7 
f 506/141/6 505/141/6 507/174/6 508/174/6 
f 508/174/5 507/174/5 509/175/5 510/175/5 
f 510/175/4 509/175/4 511/176/4 512/176/4 
f 512/176/21 511/176/21 513/177/21 514/177/21 
s 1
f 497/145/23 495/148/15 515/178/23 516/152/23 
s off
f 514/177/2 513/177/2 517/179/2 518/179/2 
f 518/179/1 517/179/1 494/135/1 493/135/1 
f 493/135/17 496/148/17 498/145/17 500/144/17 
f 493/135/17 500/144/17 502/143/17 504/142/17 
f 493/135/17 504/142/17 506/141/17 508/174/17 
f 493/135/11 508/174/11 510/175/11 512/176/11 
f 493/135/11 512/176/11 514/177/11 518/179/11 
f 519/153/55 520/180/55 521/180/55 522/153/55 
s 1
f 513/177/23 511/176/23 523/150/23 524/147/23 
f 511/176/23 509/175/23 525/149/23 523/150/23 
s off
f 509/175/14 507/174/14 526/156/14 525/149/14 
s 1
f 507/174/14 505/141/14 527/155/14 526/156/14 
f 505/141/14 503/142/15 528/181/15 527/155/14 
s off
f 503/142/15 501/143/15 519/153/15 528/181/15 
s 1
f 501/143/15 499/144/23 520/180/23 519/153/15 
f 494/135/23 517/179/23 529/146/23 530/158/23 
f 495/148/15 494/135/23 530/158/23 515/178/23 
f 499/144/23 497/145/23 516/152/23 520/180/23 
s off
f 517/179/14 513/177/14 524/147/14 529/146/14 
f 531/178/23 532/158/23 533/146/23 534/147/23 
f 531/178/23 534/147/23 535/150/23 536/149/23 
f 531/178/16 536/149/16 537/156/16 538/155/16 
f 531/178/16 538/155/16 539/181/16 522/153/16 
f 531/178/14 522/153/14 521/180/14 540/152/14 
f 529/146/2 524/147/2 534/147/2 533/146/2 
f 515/178/20 530/158/20 532/158/20 531/178/20 
f 525/149/5 526/156/5 537/156/5 536/149/5 
f 528/181/53 519/153/53 522/153/53 539/181/53 
f 530/158/1 529/146/1 533/146/1 532/158/1 
f 516/152/18 515/178/18 531/178/18 540/152/18 
f 523/150/48 525/149/48 536/149/48 535/150/48 
f 527/155/52 528/181/52 539/181/52 538/155/52 
f 520/180/54 516/152/54 540/152/54 521/180/54 
f 524/147/21 523/150/21 535/150/21 534/147/21 
f 526/156/6 527/155/6 538/155/6 537/156/6 
f 541/115/37 542/116/37 543/121/37 544/122/37 
f 544/122/38 543/121/38 545/123/38 546/124/38 
f 546/124/39 545/123/39 547/123/39 548/124/39 
f 548/124/40 547/123/40 549/123/40 550/124/40 
f 550/124/41 549/123/41 551/121/41 552/122/41 
f 552/122/42 551/121/42 553/116/42 554/115/42 
f 554/115/31 553/116/31 555/117/31 556/118/31 
f 556/118/32 555/117/32 557/119/32 558/120/32 
f 558/120/33 557/119/33 559/182/33 560/183/33 
f 560/183/34 559/182/34 561/119/34 562/120/34 
f 543/121/26 542/116/26 563/117/26 561/119/26 
f 543/121/26 561/119/26 559/182/26 557/119/26 
f 543/121/26 557/119/26 555/117/26 553/116/26 
f 543/121/26 553/116/26 551/121/26 549/123/26 
f 543/121/26 549/123/26 547/123/26 545/123/26 
f 562/120/35 561/119/35 563/117/35 564/118/35 
f 564/118/46 563/117/46 542/116/46 541/115/46 
f 541/115/43 544/122/43 546/124/43 548/124/43 
f 541/115/44 548/124/44 550/124/44 552/122/44 
f 541/115/25 552/122/25 554/115/25 556/118/25 
f 541/115/25 556/118/25 558/120/25 560/183/25 
f 541/115/45 560/183/45 562/120/45 564/118/45 
f 565/105/37 566/106/37 567/111/37 568/112/37 
f 568/112/38 567/111/38 569/184/38 570/185/38 
f 570/185/39 569/184/39 571/113/39 572/114/39 
f 572/114/40 571/113/40 573/184/40 574/185/40 
f 574/185/41 573/184/41 575/111/41 576/112/41 
f 576/112/42 575/111/42 577/106/42 578/105/42 
f 578/105/31 577/106/31 579/186/31 580/187/31 
f 580/187/32 579/186/32 581/109/32 582/110/32 
f 582/110/33 581/109/33 583/109/33 584/110/33 
f 584/110/34 583/109/34 585/109/34 586/110/34 
f 567/111/57 566/106/57 587/186/57 585/109/57 
f 567/111/57 585/109/57 583/109/57 581/109/57 
f 567/111/26 581/109/26 579/186/26 577/106/26 
f 567/111/26 577/106/26 575/111/26 573/184/26 
f 567/111/26 573/184/26 571/113/26 569/184/26 
f 586/110/35 585/109/35 587/186/35 588/187/35 
f 588/187/46 587/186/46 566/106/46 565/105/46 
f 565/105/45 568/112/45 570/185/45 572/114/45 
f 565/105/45 572/114/45 574/185/45 576/112/45 
f 565/105/45 576/112/45 578/105/45 580/187/45 
f 565/105/45 580/187/45 582/110/45 584/110/45 
f 565/105/45 584/110/45 586/110/45 588/187/45 
f 589/128/24 590/128/24 591/129/24 592/129/24 
s 1
f 593/127/11 594/125/11 595/126/11 596/130/11 
s off
f 594/125/22 597/125/22 598/126/22 595/126/22 
s 1
f 599/127/23 589/128/23 592/129/23 600/130/23 
s off
f 600/130/30 596/130/30 595/126/30 598/126/30 
f 599/127/29 593/127/29 590/128/29 589/128/29 
f 597/125/28 594/125/28 593/127/28 599/127/28 
f 592/129/27 591/129/27 596/130/27 600/130/27 
s 1
f 597/125/23 599/127/23 600/130/23 598/126/23 
f 590/128/11 593/127/11 596/130/11 591/129/11 
s off
f 601/133/24 602/133/24 603/134/24 604/134/24 
f 602/133/49 605/188/49 606/189/49 603/134/49 
f 605/188/22 607/188/22 608/189/22 606/189/22 
f 607/188/23 601/133/23 604/134/23 608/189/23 
f 604/134/45 603/134/45 606/189/45 608/189/45 
f 607/188/26 605/188/26 602/133/26 601/133/26 
f 609/81/13 610/81/13 611/94/13 612/94/13 
f 612/94/18 611/94/18 613/91/18 614/91/18 
f 614/91/10 613/91/10 615/90/10 616/90/10 
f 616/90/9 615/90/9 617/89/9 618/89/9 
f 618/89/8 617/89/8 619/88/8 620/88/8 
f 620/88/7 619/88/7 621/87/7 622/87/7 
f 622/87/6 621/87/6 623/86/6 624/86/6 
f 624/86/5 623/86/5 625/85/5 626/85/5 
f 626/85/48 625/85/48 627/84/48 628/84/48 
f 628/84/21 627/84/21 629/83/21 630/83/21 
s 1
f 613/91/16 611/94/15 631/103/15 632/98/16 
s off
f 630/83/2 629/83/2 633/82/2 634/82/2 
f 634/82/59 633/82/59 610/81/59 609/81/59 
f 609/81/49 612/94/49 614/91/49 616/90/49 
f 609/81/11 616/90/11 618/89/11 620/88/11 
f 609/81/49 620/88/49 622/87/49 624/86/49 
f 609/81/49 624/86/49 626/85/49 628/84/49 
f 609/81/11 628/84/11 630/83/11 634/82/11 
f 635/99/55 636/190/55 637/190/55 638/99/55 
f 629/83/23 627/84/23 639/96/23 640/93/23 
s 1
f 627/84/23 625/85/14 641/95/23 639/96/23 
f 625/85/14 623/86/14 642/102/14 641/95/23 
f 623/86/14 621/87/14 643/101/14 642/102/14 
s 2
f 621/87/15 619/88/15 644/100/15 643/101/15 
f 619/88/15 617/89/14 635/99/15 644/100/15 
f 617/89/14 615/90/23 636/190/23 635/99/15 
s 1
f 610/81/23 633/82/23 645/92/23 646/104/15 
f 611/94/15 610/81/23 646/104/15 631/103/15 
f 615/90/16 613/91/16 632/98/16 636/190/16 
f 633/82/23 629/83/23 640/93/23 645/92/23 
s off
f 647/103/15 648/104/15 649/92/15 650/93/15 
f 647/103/23 650/93/23 651/96/23 652/95/23 
f 647/103/16 652/95/16 653/102/16 654/101/16 
f 647/103/23 654/101/23 655/100/23 638/99/23 
f 647/103/23 638/99/23 637/190/23 656/98/23 
f 645/92/2 640/93/2 650/93/2 649/92/2 
f 631/103/20 646/104/20 648/104/20 647/103/20 
f 641/95/5 642/102/5 653/102/5 652/95/5 
f 644/100/53 635/99/53 638/99/53 655/100/53 
f 646/104/1 645/92/1 649/92/1 648/104/1 
f 632/98/18 631/103/18 647/103/18 656/98/18 
f 639/96/48 641/95/48 652/95/48 651/96/48 
f 643/101/52 644/100/52 655/100/52 654/101/52 
f 636/190/54 632/98/54 656/98/54 637/190/54 
f 640/93/21 639/96/21 651/96/21 650/93/21 
f 642/102/6 643/101/6 654/101/6 653/102/6 
f 657/191/22 658/192/22 659/193/22 660/194/22 
f 658/191/14 661/192/14 662/193/14 659/194/14 
f 661/191/60 663/192/60 664/193/60 662/194/60 
f 663/191/11 657/192/11 660/193/11 664/194/11 
f 660/191/44 659/192/44 662/193/44 664/194/44 
f 663/191/26 661/192/26 658/193/26 657/194/26 
f 665/191/24 666/192/24 667/193/24 668/194/24 
f 666/191/50 669/192/50 670/193/50 667/194/50 
f 669/191/61 671/192/61 672/193/61 670/194/61 
f 671/191/16 665/192/16 668/193/16 672/194/16 
f 668/191/43 667/192/43 670/193/43 672/194/43 
f 671/191/57 669/192/57 666/193/57 665/194/57 
f 673/191/62 674/192/62 675/193/62 676/194/62 
f 674/191/49 677/192/49 678/193/49 675/194/49 
f 677/191/63 679/192/63 680/193/63 678/194/63 
f 679/191/15 673/192/15 676/193/15 680/194/15 
f 676/191/45 675/192/45 678/193/45 680/194/45 
f 679/191/57 677/192/57 674/193/57 673/194/57 
s 1
f 681/191/24 682/192/24 683/193/24 684/194/24 
s 2
f 682/191/49 685/192/49 686/193/49 683/194/49 
s 1
f 685/191/22 687/192/22 688/193/22 686/194/22 
s 2
f 687/191/23 681/192/23 684/193/23 688/194/23 
s off
f 684/191/45 683/192/45 686/193/45 688/194/45 
s 4
f 689/195/47 690/196/26 691/197/26 692/198/47 
f 692/199/47 691/200/26 693/201/57 694/202/26 
f 695/195/57 696/196/26 694/197/26 693/198/57 
f 696/195/26 689/196/47 692/197/47 694/198/26 
f 690/195/26 695/196/57 693/197/57 691/198/26 
s 2
f 689/195/23 696/196/23 681/197/23 687/198/23 
s 1
f 690/195/22 689/196/22 687/197/22 685/198/22 
s 2
f 695/195/49 690/196/49 685/197/49 682/198/49 
s 1
f 696/195/24 695/196/24 682/197/24 681/198/24 
s off
f 697/203/22 698/203/22 699/204/22 700/204/22 
f 698/203/14 701/205/14 702/206/14 699/204/14 
f 701/205/24 703/205/24 704/206/24 702/206/24 
f 703/205/11 697/203/11 700/204/11 704/206/11 
f 700/204/25 699/204/25 702/206/25 704/206/25 
f 703/205/26 701/205/26 698/203/26 697/203/26 
f 705/207/22 706/207/22 707/208/22 708/208/22 
f 709/209/11 710/210/11 705/207/11 708/208/11 
f 711/211/11 709/209/11 708/208/11 712/212/11 
f 713/213/11 711/211/11 712/212/11 714/214/11 
f 715/210/26 706/207/26 705/207/26 710/210/26 
f 716/211/14 717/213/14 718/214/14 719/212/14 
f 720/209/14 716/211/14 719/212/14 707/208/14 
f 715/210/14 720/209/14 707/208/14 706/207/14 
f 708/208/45 707/208/45 719/212/45 712/212/45 
f 718/214/24 714/214/24 712/212/24 719/212/24 
f 714/214/47 718/214/47 717/213/47 713/213/47 
f 720/209/24 715/210/24 710/210/24 709/209/24 
f 709/209/47 711/211/47 716/211/47 720/209/47 
f 711/211/22 713/213/22 717/213/22 716/211/22 
f 721/203/24 722/203/24 723/204/24 724/204/24 
f 722/203/26 725/205/26 726/206/26 723/204/26 
f 725/205/22 727/205/22 728/206/22 726/206/22 
f 727/205/45 721/203/45 724/204/45 728/206/45 
f 724/204/11 723/204/11 726/206/11 728/206/11 
f 727/205/14 725/205/14 722/203/14 721/203/14 
f 729/207/24 730/207/24 731/208/24 732/208/24 
f 733/209/43 734/210/43 729/207/43 732/208/43 
f 735/211/25 733/209/25 732/208/25 736/212/25 
f 737/213/44 735/211/44 736/212/44 738/214/44 
f 739/210/16 730/207/16 729/207/16 734/210/16 
f 740/211/47 741/213/47 742/214/47 743/212/47 
f 744/209/57 740/211/57 743/212/57 731/208/57 
f 739/210/26 744/209/26 731/208/26 730/207/26 
f 732/208/11 731/208/11 743/212/11 736/212/11 
f 742/214/22 738/214/22 736/212/22 743/212/22 
f 738/214/14 742/214/14 741/213/14 737/213/14 
f 744/209/22 739/210/22 734/210/22 733/209/22 
f 733/209/14 735/211/14 740/211/14 744/209/14 
f 735/211/24 737/213/24 741/213/24 740/211/24 
f 745/203/24 746/203/24 747/204/24 748/204/24 
f 746/203/45 749/205/45 750/206/45 747/204/45 
f 749/205/22 751/205/22 752/206/22 750/206/22 
f 751/205/26 745/203/26 748/204/26 752/206/26 
f 748/204/16 747/204/16 750/206/16 752/206/16 
f 751/205/50 749/205/50 746/203/50 745/203/50 
f 753/207/24 754/207/24 755/208/24 756/208/24 
f 757/209/26 758/210/26 753/207/26 756/208/26 
f 759/211/57 757/209/57 756/208/57 760/212/57 
f 761/213/26 759/211/26 760/212/26 762/214/26 
f 763/210/50 754/207/50 753/207/50 758/210/50 
f 764/211/45 765/213/45 766/214/45 767/212/45 
f 768/209/25 764/211/25 767/212/25 755/208/25 
f 763/210/45 768/209/45 755/208/45 754/207/45 
f 756/208/14 755/208/14 767/212/14 760/212/14 
f 766/214/22 762/214/22 760/212/22 767/212/22 
f 762/214/50 766/214/50 765/213/50 761/213/50 
f 768/209/22 763/210/22 758/210/22 757/209/22 
f 757/209/11 759/211/11 764/211/11 768/209/11 
f 759/211/24 761/213/24 765/213/24 764/211/24 
# 700 polygons

