# 3ds Max Wavefront OBJ Exporter v0.97b - (c)2007 guruware
# File Created: 15.03.2017 11:58:41

mtllib SPW_Vehicle_Water_Boat.mtl

#
# object SPW_Vehicle_Water_Boat
#

v  -15.0825 97.2913 -65.4479
v  -17.1617 97.2913 -65.4479
v  -17.1617 94.7530 -65.4479
v  -15.0825 94.7530 -65.4479
v  -17.1617 97.2913 -67.5270
v  -17.1617 94.7530 -67.5270
v  -15.0825 97.2913 -67.5270
v  -15.0825 94.7530 -67.5270
v  -15.8100 135.6770 -66.1753
v  -16.4342 135.6770 -66.1753
v  -16.4342 94.6550 -66.1753
v  -15.8100 94.6550 -66.1753
v  -16.4342 135.6770 -66.7995
v  -16.4342 94.6550 -66.7995
v  -15.8100 135.6770 -66.7995
v  -15.8100 94.6550 -66.7995
v  17.0798 97.2913 -65.4479
v  15.0006 97.2913 -65.4479
v  15.0006 94.7530 -65.4479
v  17.0798 94.7530 -65.4479
v  15.0006 97.2913 -67.5271
v  15.0006 94.7530 -67.5271
v  17.0798 97.2913 -67.5271
v  17.0798 94.7530 -67.5271
v  16.3523 135.6771 -66.1754
v  15.7281 135.6771 -66.1754
v  15.7281 94.6550 -66.1754
v  16.3523 94.6550 -66.1754
v  15.7281 135.6771 -66.7996
v  15.7281 94.6550 -66.7996
v  16.3523 135.6771 -66.7996
v  16.3523 94.6550 -66.7996
v  2.9112 109.8812 -57.2498
v  -2.9932 109.8812 -57.2498
v  -2.9932 105.6635 -57.2498
v  2.9112 105.6635 -57.2498
v  -2.9932 109.8812 -63.1541
v  -2.9932 105.6635 -63.1541
v  2.9112 109.8812 -63.1541
v  2.9112 105.6635 -63.1541
v  8.3711 109.6750 -57.8812
v  8.3711 112.3146 -57.8812
v  -8.4531 112.3146 -57.8812
v  -8.4531 109.6750 -57.8812
v  8.3711 112.3146 -62.5227
v  -8.4531 112.3146 -62.5227
v  8.3711 109.6750 -62.5227
v  -8.4531 109.6750 -62.5227
v  1.6311 109.7071 -58.5298
v  -1.7132 109.7071 -58.5298
v  -1.7132 97.5847 -58.5298
v  1.6311 97.5847 -58.5298
v  -1.7132 109.7071 -61.8741
v  -1.7132 97.5847 -61.8741
v  1.6311 109.7071 -61.8741
v  1.6311 97.5847 -61.8741
v  2.9112 97.9256 -57.2497
v  -2.9932 97.9256 -57.2497
v  -2.9932 93.7078 -57.2497
v  2.9112 93.7078 -57.2497
v  -2.9932 97.9256 -63.1542
v  -2.9932 93.7078 -63.1541
v  2.9112 97.9256 -63.1542
v  2.9112 93.7078 -63.1541
v  -33.3129 76.5488 66.8672
v  -42.4972 41.7443 96.7216
v  -21.2691 41.7443 102.0573
v  -15.0803 76.5488 72.2029
v  -17.6224 76.5488 48.5357
v  -35.2039 76.5488 48.5357
v  -49.6737 41.7443 48.5357
v  -24.8573 41.7443 48.5357
v  -0.0410 76.5488 48.5357
v  -0.0410 76.5488 75.7600
v  -17.6224 76.5488 0.3497
v  -35.2039 76.5488 0.3497
v  -0.0410 41.7443 105.6144
v  -0.0410 41.7443 48.5357
v  -49.6737 41.7443 0.3497
v  -24.8573 41.7443 0.3497
v  17.5404 76.5488 48.5357
v  14.9983 76.5488 72.2029
v  -0.0410 76.5488 0.3497
v  -17.6224 76.5488 0.1719
v  -27.0082 76.5488 0.1719
v  -35.2039 76.5488 -78.4821
v  -27.0082 76.5488 -69.8308
v  -17.6224 76.5488 -78.4821
v  -17.6224 76.5488 -69.8308
v  21.1871 41.7443 102.0573
v  24.7753 41.7443 48.5357
v  -0.0410 41.7443 0.3497
v  -49.6737 41.7443 -78.4821
v  -24.8573 41.7443 -78.4821
v  35.1219 76.5488 48.5357
v  33.2309 76.5488 66.8672
v  17.5404 76.5488 0.3497
v  -0.0410 76.5488 0.1719
v  -0.0410 76.5488 -78.4821
v  -0.0410 76.5488 -69.8308
v  42.4152 41.7443 96.7216
v  49.5916 41.7443 48.5357
v  24.7753 41.7443 0.3497
v  -0.0410 41.7443 -78.4821
v  35.1219 76.5488 0.3497
v  17.5404 76.5488 0.1719
v  17.5404 76.5488 -78.4821
v  17.5404 76.5488 -69.8308
v  49.5916 41.7443 0.3497
v  24.7753 41.7443 -78.4821
v  35.1219 76.5488 -78.4821
v  26.9262 76.5488 -69.8308
v  26.9262 76.5488 0.1719
v  49.5916 41.7443 -78.4821
v  26.9262 74.6009 0.1719
v  -27.0082 74.6009 0.1719
v  -27.0082 74.6009 -69.8308
v  26.9262 74.6009 -69.8308
v  -26.5816 93.8540 -38.5162
v  -30.2453 93.8540 -38.5162
v  -30.2453 75.3688 -10.9907
v  -26.5816 75.3688 -10.9907
v  -30.2453 93.8540 -42.1800
v  -30.2453 75.3688 -14.6545
v  -26.5816 93.8540 -42.1800
v  -26.5816 75.3688 -14.6545
v  30.1633 93.8540 -38.5162
v  26.4995 93.8540 -38.5162
v  26.4995 75.3688 -10.9907
v  30.1633 75.3688 -10.9907
v  26.4995 93.8540 -42.1800
v  26.4995 75.3688 -14.6545
v  30.1633 93.8540 -42.1800
v  30.1633 75.3688 -14.6545
v  -30.8918 93.4168 -3.0347
v  30.8098 93.4168 -3.0347
v  27.7547 93.4168 10.3509
v  19.1942 93.4168 21.0854
v  6.8240 93.4168 27.0426
v  -6.9060 93.4168 27.0426
v  -19.2762 93.4168 21.0854
v  -27.8367 93.4168 10.3509
v  30.8098 95.6696 -3.0347
v  -30.8918 95.6696 -3.0347
v  -27.8367 95.6696 10.3509
v  -19.2762 95.6696 21.0854
v  -6.9060 95.6696 27.0426
v  6.8240 95.6696 27.0426
v  19.1942 95.6696 21.0854
v  27.7547 95.6696 10.3509
v  -30.8918 93.4169 -73.7554
v  30.8098 93.4169 -73.7554
v  -30.8918 95.6696 -73.7554
v  30.8098 95.6696 -73.7554
v  27.8185 49.1772 169.0381
v  -0.2051 49.1717 189.3361
v  -0.2051 4.2410 138.7233
v  16.8184 4.2354 118.4253
v  -28.2287 49.1772 169.0381
v  -17.2287 4.2354 118.4253
v  -49.9722 49.1773 130.7316
v  -30.4373 4.2354 80.1188
v  30.0270 4.2354 80.1188
v  49.5619 49.1773 130.7316
v  -57.0798 49.1773 81.3557
v  -34.7550 4.2354 30.7429
v  34.3447 4.2354 30.7429
v  56.6695 49.1773 81.3557
v  -57.0798 49.1773 -126.9527
v  -45.4485 4.2354 -126.9951
v  45.0381 4.2354 -126.9951
v  56.6694 49.1773 -126.9526
v  -29.9418 0.0008 32.7328
v  -26.2256 0.0008 75.2299
v  52.1837 49.1772 -121.5064
v  52.1838 49.1772 83.4253
v  -0.2051 0.0056 125.6701
v  -14.8571 0.0008 108.1998
v  -39.1455 0.0009 -77.0496
v  38.7351 0.0009 -77.0496
v  29.5314 0.0008 32.7328
v  25.8153 0.0008 75.2300
v  14.4468 0.0008 108.1998
v  -52.5942 49.1772 -121.5065
v  -52.5941 49.1772 83.4253
v  -49.7185 43.0183 83.4499
v  -49.7186 43.0183 -121.2846
v  -0.2051 49.1721 182.8893
v  -26.0185 49.1772 164.1922
v  25.6082 49.1772 164.1922
v  45.6368 49.1772 128.9069
v  -46.0471 49.1772 128.9069
v  24.1913 43.0183 159.7835
v  43.1205 43.0183 126.4351
v  49.3082 43.0183 83.4499
v  49.3081 43.0183 -121.2846
v  -43.5308 43.0183 126.4350
v  -24.6016 43.0183 159.7835
v  -0.2051 43.0134 177.4543
# 199 vertices

vn 0.0000 0.0000 1.0000
vn -1.0000 0.0000 0.0000
vn 0.0000 -0.0000 -1.0000
vn 1.0000 -0.0000 -0.0000
vn 0.0000 -1.0000 -0.0000
vn 0.0000 1.0000 0.0000
vn 0.0000 -0.0000 1.0000
vn -1.0000 0.0000 -0.0000
vn 0.0000 0.0000 -1.0000
vn 1.0000 0.0000 -0.0000
vn -1.0000 -0.0000 0.0000
vn -0.1954 0.6630 0.7226
vn -0.0000 -1.0000 -0.0000
vn -0.9217 0.3671 0.1256
vn -0.1460 0.6515 0.7444
vn -0.9234 0.3839 0.0000
vn 0.1460 0.6515 0.7444
vn 0.1954 0.6630 0.7226
vn 0.9217 0.3671 0.1256
vn 0.9234 0.3839 0.0000
vn 0.9234 0.3839 -0.0000
vn -0.0000 0.9487 -0.3162
vn -0.0000 0.0000 -1.0000
vn -0.0000 1.0000 0.0000
vn 0.0000 0.9487 0.3162
vn 0.0000 0.8302 0.5575
vn -1.0000 -0.0000 -0.0000
vn 0.0000 -0.8302 -0.5575
vn 1.0000 0.0000 0.0000
vn 0.9749 -0.0000 0.2225
vn 0.7818 -0.0000 0.6235
vn 0.4339 -0.0000 0.9010
vn -0.4339 -0.0000 0.9010
vn -0.7818 -0.0000 0.6235
vn -0.9749 -0.0000 0.2225
vn 0.4930 -0.6765 0.5471
vn -0.4930 -0.6765 0.5471
vn -0.7186 -0.6133 0.3278
vn 0.7186 -0.6133 0.3278
vn -0.8548 -0.5095 0.0989
vn 0.8548 -0.5095 0.0989
vn -0.9300 -0.3666 0.0272
vn 0.9300 -0.3666 0.0272
vn 0.0000 0.0009 -1.0000
vn -0.6730 -0.7373 0.0588
vn 0.0003 -1.0000 -0.0001
vn 0.0000 -1.0000 0.0000
vn -0.0002 -1.0000 -0.0000
vn -0.0006 -1.0000 -0.0002
vn -0.3451 -0.8927 0.2897
vn 0.7583 -0.6495 0.0564
vn 0.3451 -0.8927 0.2897
vn -0.5718 -0.7963 0.1972
vn 0.6730 -0.7373 0.0588
vn 0.5718 -0.7963 0.1972
vn 0.0000 -0.9964 -0.0845
vn -0.7583 -0.6495 0.0564
vn 0.9061 0.4231 -0.0000
vn 0.0002 1.0000 0.0001
vn -0.0002 1.0000 0.0001
vn -0.0000 1.0000 -0.0000
vn 0.0000 1.0000 -0.0000
vn -0.0000 1.0000 0.0003
vn -0.7609 0.4842 -0.4319
vn -0.4773 0.5814 -0.6589
vn -0.9061 0.4231 0.0000
vn 0.8987 0.4191 -0.1294
vn 0.4773 0.5814 -0.6589
vn -0.0000 0.0360 0.9994
vn -0.8987 0.4191 -0.1294
vn 0.7609 0.4842 -0.4319
# 71 vertex normals

vt 0.6604 0.1338 0.0000
vt 0.6694 0.1338 0.0000
vt 0.6694 0.1428 0.0000
vt 0.6604 0.1428 0.0000
vt 0.6599 0.1234 0.0000
vt 0.6748 0.1234 0.0000
vt 0.6748 0.1383 0.0000
vt 0.6599 0.1383 0.0000
vt 0.0735 0.9589 0.0000
vt 0.0328 0.8045 0.0000
vt 0.1269 0.8045 0.0000
vt 0.1544 0.9589 0.0000
vt 0.5798 0.9253 0.0000
vt 0.5798 0.9758 0.0000
vt 0.5271 0.9704 0.0000
vt 0.5118 0.9180 0.0000
vt 0.4945 0.0297 0.0000
vt 0.5445 0.0297 0.0000
vt 0.5445 0.0797 0.0000
vt 0.4945 0.0797 0.0000
vt 0.5798 0.8747 0.0000
vt 0.5016 0.8747 0.0000
vt 0.7184 0.9253 0.0000
vt 0.7184 0.9758 0.0000
vt 0.1873 0.7329 0.0000
vt 0.1873 0.6164 0.0000
vt 0.0260 0.6164 0.0000
vt 0.1260 0.7329 0.0000
vt 0.2211 0.8045 0.0000
vt 0.2211 0.9589 0.0000
vt 0.5798 0.8242 0.0000
vt 0.5118 0.8315 0.0000
vt 0.7184 0.8747 0.0000
vt 0.7189 0.9253 0.0000
vt 0.7189 0.9523 0.0000
vt 0.9450 0.9758 0.0000
vt 0.9201 0.9523 0.0000
vt 0.9450 0.9253 0.0000
vt 0.9201 0.9253 0.0000
vt 0.3486 0.7329 0.0000
vt 0.3486 0.6164 0.0000
vt 0.3153 0.8045 0.0000
vt 0.2878 0.9589 0.0000
vt 0.5798 0.7736 0.0000
vt 0.5271 0.7791 0.0000
vt 0.7184 0.8242 0.0000
vt 0.9450 0.8747 0.0000
vt 0.9201 0.8747 0.0000
vt 0.9355 0.7354 0.0000
vt 0.8724 0.7354 0.0000
vt 0.8984 0.6103 0.0000
vt 0.9875 0.6103 0.0000
vt 0.6124 0.7329 0.0000
vt 0.6124 0.6164 0.0000
vt 0.7184 0.7736 0.0000
vt 0.4095 0.8045 0.0000
vt 0.3687 0.9589 0.0000
vt 0.9450 0.8242 0.0000
vt 0.9201 0.8242 0.0000
vt 0.8092 0.7354 0.0000
vt 0.8092 0.6103 0.0000
vt 0.9450 0.7736 0.0000
vt 0.9201 0.7972 0.0000
vt 0.7189 0.7972 0.0000
vt 0.7189 0.8242 0.0000
vt 0.7460 0.7354 0.0000
vt 0.7200 0.6103 0.0000
vt 0.6828 0.7354 0.0000
vt 0.6308 0.6103 0.0000
vt 0.7157 0.9523 0.0000
vt 0.7157 0.9250 0.0000
vt 0.7157 0.8737 0.0000
vt 0.7157 0.8225 0.0000
vt 0.7157 0.7951 0.0000
vt 0.9198 0.9523 0.0000
vt 0.0118 0.1983 0.0000
vt 0.1847 0.1983 0.0000
vt 0.1847 0.3315 0.0000
vt 0.0118 0.3315 0.0000
vt 0.9198 0.7951 0.0000
vt 0.9198 0.8225 0.0000
vt 0.9198 0.8737 0.0000
vt 0.9198 0.9250 0.0000
vt 0.6757 0.1247 0.0000
vt 0.6935 0.1247 0.0000
vt 0.6935 0.1425 0.0000
vt 0.6757 0.1425 0.0000
vt 0.6684 0.0554 0.0000
vt 0.6684 0.0404 0.0000
vt 0.6651 0.0411 0.0000
vt 0.6625 0.0432 0.0000
vt 0.6610 0.0462 0.0000
vt 0.6610 0.0496 0.0000
vt 0.6625 0.0526 0.0000
vt 0.6651 0.0547 0.0000
vt 0.6856 0.0554 0.0000
vt 0.6856 0.0404 0.0000
vt 0.0812 0.5738 0.0000
vt 0.0197 0.5738 0.0000
vt 0.1730 0.4377 0.0000
vt 0.2345 0.4377 0.0000
vt 0.1972 0.5738 0.0000
vt 0.3505 0.4377 0.0000
vt 0.3468 0.5738 0.0000
vt 0.5001 0.4377 0.0000
vt 0.9778 0.5738 0.0000
vt 0.9779 0.4377 0.0000
vt 0.4941 0.4248 0.0000
vt 0.3653 0.4248 0.0000
vt 0.9613 0.5738 0.0000
vt 0.3405 0.5738 0.0000
vt 0.2125 0.4249 0.0000
vt 0.2655 0.4248 0.0000
vt 0.8266 0.4248 0.0000
vt 0.3404 0.5552 0.0000
vt 0.9606 0.5552 0.0000
vt 0.0392 0.5738 0.0000
vt 0.0959 0.5738 0.0000
vt 0.2027 0.5738 0.0000
vt 0.6731 0.0239 0.0000
vt 0.6749 0.0239 0.0000
vt 0.6771 0.0239 0.0000
vt 0.6879 0.0239 0.0000
vt 0.6722 0.0239 0.0000
vt 0.2102 0.5552 0.0000
vt 0.1092 0.5552 0.0000
vt 0.0557 0.5551 0.0000
# 127 texture coords

g SPW_Vehicle_Water_Boat
usemtl SPW_Vehicle_Water_Boat
s off
f 1/1/1 2/2/1 3/3/1 4/4/1 
f 2/1/2 5/2/2 6/3/2 3/4/2 
f 5/1/3 7/2/3 8/3/3 6/4/3 
f 7/1/4 1/2/4 4/3/4 8/4/4 
f 4/1/5 3/2/5 6/3/5 8/4/5 
f 7/1/6 5/2/6 2/3/6 1/4/6 
f 9/1/7 10/2/7 11/3/7 12/4/7 
f 10/1/8 13/2/8 14/3/8 11/4/8 
f 13/1/9 15/2/9 16/3/9 14/4/9 
f 15/1/10 9/2/10 12/3/10 16/4/10 
f 12/1/5 11/2/5 14/3/5 16/4/5 
f 15/1/6 13/2/6 10/3/6 9/4/6 
f 17/1/1 18/2/1 19/3/1 20/4/1 
f 18/1/2 21/2/2 22/3/2 19/4/2 
f 21/1/3 23/2/3 24/3/3 22/4/3 
f 23/1/4 17/2/4 20/3/4 24/4/4 
f 20/1/5 19/2/5 22/3/5 24/4/5 
f 23/1/6 21/2/6 18/3/6 17/4/6 
f 25/1/7 26/2/7 27/3/7 28/4/7 
f 26/1/8 29/2/8 30/3/8 27/4/8 
f 29/1/9 31/2/9 32/3/9 30/4/9 
f 31/1/10 25/2/10 28/3/10 32/4/10 
f 28/1/5 27/2/5 30/3/5 32/4/5 
f 31/1/6 29/2/6 26/3/6 25/4/6 
f 33/5/7 34/6/7 35/7/7 36/8/7 
f 34/5/8 37/6/8 38/7/8 35/8/8 
f 37/5/9 39/6/9 40/7/9 38/8/9 
f 39/5/10 33/6/10 36/7/10 40/8/10 
f 36/5/5 35/6/5 38/7/5 40/8/5 
f 39/5/6 37/6/6 34/7/6 33/8/6 
f 41/5/7 42/6/7 43/7/7 44/8/7 
f 42/5/6 45/6/6 46/7/6 43/8/6 
f 45/5/9 47/6/9 48/7/9 46/8/9 
f 47/5/5 41/6/5 44/7/5 48/8/5 
f 44/5/11 43/6/11 46/7/11 48/8/11 
f 47/5/10 45/6/10 42/7/10 41/8/10 
f 49/5/7 50/6/7 51/7/7 52/8/7 
f 50/5/11 53/6/11 54/7/11 51/8/11 
f 53/5/9 55/6/9 56/7/9 54/8/9 
f 55/5/10 49/6/10 52/7/10 56/8/10 
f 52/5/5 51/6/5 54/7/5 56/8/5 
f 55/5/6 53/6/6 50/7/6 49/8/6 
f 57/5/1 58/6/1 59/7/1 60/8/1 
f 58/5/8 61/6/8 62/7/8 59/8/8 
f 61/5/3 63/6/3 64/7/3 62/8/3 
f 63/5/10 57/6/10 60/7/10 64/8/10 
f 60/5/5 59/6/5 62/7/5 64/8/5 
f 63/5/6 61/6/6 58/7/6 57/8/6 
f 65/9/12 66/10/12 67/11/12 68/12/12 
s 1
f 69/13/6 70/14/6 65/15/6 68/16/6 
f 67/17/13 66/18/13 71/19/13 72/20/13 
f 73/21/6 69/13/6 68/16/6 74/22/6 
f 75/23/6 76/24/6 70/14/6 69/13/6 
s off
f 70/25/14 71/26/14 66/27/14 65/28/14 
f 77/29/15 74/30/15 68/12/15 67/11/15 
s 1
f 77/17/5 67/18/13 72/19/13 78/20/5 
f 72/17/13 71/18/13 79/19/5 80/20/5 
f 81/31/6 73/21/6 74/22/6 82/32/6 
f 83/33/6 75/23/6 69/13/6 73/21/6 
f 76/24/6 75/23/6 84/34/6 85/35/6 
f 86/36/6 76/24/6 85/35/6 87/37/6 
f 88/38/6 86/36/6 87/37/6 89/39/6 
s 2
f 70/25/16 76/40/16 79/41/16 71/26/16 
s off
f 74/30/17 77/29/17 90/42/17 82/43/17 
s 1
f 90/17/5 77/18/5 78/19/5 91/20/5 
f 78/17/5 72/18/13 80/19/5 92/20/5 
f 80/17/5 79/18/5 93/19/5 94/20/5 
f 95/44/6 81/31/6 82/32/6 96/45/6 
f 97/46/6 83/33/6 73/21/6 81/31/6 
f 84/17/6 75/18/6 83/19/6 98/20/6 
f 99/47/6 88/38/6 89/39/6 100/48/6 
s 4
f 86/49/9 88/50/9 94/51/9 93/52/9 
s 2
f 76/40/16 86/53/16 93/54/16 79/41/16 
s 1
f 101/17/5 90/18/5 91/19/5 102/20/5 
f 91/17/5 78/18/5 92/19/5 103/20/5 
f 92/17/5 80/18/5 94/19/5 104/20/5 
f 105/55/6 97/46/6 81/31/6 95/44/6 
s off
f 82/43/18 90/42/18 101/56/18 96/57/18 
s 1
f 98/17/6 83/18/6 97/19/6 106/20/6 
f 107/58/6 99/47/6 100/48/6 108/59/6 
s 4
f 88/50/9 99/60/9 104/61/9 94/51/9 
s off
f 102/26/19 95/25/19 96/28/19 101/27/19 
s 1
f 102/17/5 91/18/5 103/19/5 109/20/5 
f 103/17/5 92/18/5 104/19/5 110/20/5 
s 2
f 105/40/20 95/25/20 102/26/20 109/41/20 
s 1
f 111/62/6 107/58/6 108/59/6 112/63/6 
f 113/64/6 106/65/6 97/46/6 105/55/6 
f 112/63/6 113/64/6 105/55/6 111/62/6 
s 4
f 99/60/9 107/66/9 110/67/9 104/61/9 
s 1
f 109/17/5 103/18/5 110/19/5 114/20/5 
s 2
f 111/53/21 105/40/20 109/41/20 114/54/21 
s 4
f 107/66/9 111/68/9 114/69/9 110/67/9 
s off
f 85/70/22 84/71/22 98/72/22 106/73/22 
f 85/70/23 106/73/23 113/74/23 115/74/23 
f 85/70/23 115/74/23 116/70/23 
f 87/75/10 85/70/10 116/70/10 117/75/10 
f 115/76/24 118/77/24 117/78/24 116/79/24 
f 113/74/11 112/80/11 118/80/11 115/74/11 
f 112/80/25 108/81/25 100/82/25 89/83/25 
f 112/80/7 89/83/7 87/75/7 117/75/7 
f 112/80/7 117/75/7 118/80/7 
f 119/84/26 120/85/26 121/86/26 122/87/26 
f 120/84/27 123/85/27 124/86/27 121/87/27 
f 123/84/28 125/85/28 126/86/28 124/87/28 
f 125/84/29 119/85/29 122/86/29 126/87/29 
f 122/84/5 121/85/5 124/86/5 126/87/5 
f 125/84/6 123/85/6 120/86/6 119/87/6 
f 127/84/26 128/85/26 129/86/26 130/87/26 
f 128/84/27 131/85/27 132/86/27 129/87/27 
f 131/84/28 133/85/28 134/86/28 132/87/28 
f 133/84/29 127/85/29 130/86/29 134/87/29 
f 130/84/5 129/85/5 132/86/5 134/87/5 
f 133/84/6 131/85/6 128/86/6 127/87/6 
s 1
f 135/88/5 136/89/5 137/90/5 138/91/5 
f 135/88/5 138/91/5 139/92/5 140/93/5 
f 135/88/5 140/93/5 141/94/5 142/95/5 
f 143/89/24 144/88/24 145/95/6 146/94/6 
f 143/89/24 146/94/6 147/93/6 148/92/6 
f 143/89/24 148/92/6 149/91/6 150/90/6 
f 136/89/5 135/88/5 151/96/5 152/97/5 
s off
f 136/89/30 143/89/30 150/90/30 137/90/30 
f 137/90/31 150/90/31 149/91/31 138/91/31 
f 138/91/32 149/91/32 148/92/32 139/92/32 
f 139/92/7 148/92/7 147/93/7 140/93/7 
f 140/93/33 147/93/33 146/94/33 141/94/33 
f 141/94/34 146/94/34 145/95/34 142/95/34 
f 142/95/35 145/95/35 144/88/35 135/88/35 
f 151/96/9 153/96/9 154/97/9 152/97/9 
f 135/88/11 144/88/11 153/96/11 151/96/11 
f 143/89/10 136/89/10 152/97/10 154/97/10 
s 1
f 144/88/24 143/89/24 154/97/24 153/96/6 
s off
f 155/98/36 156/99/36 157/100/36 158/101/36 
f 156/99/37 159/98/37 160/101/37 157/100/37 
f 160/101/38 159/98/38 161/102/38 162/103/38 
f 155/98/39 158/101/39 163/103/39 164/102/39 
f 162/103/40 161/102/40 165/104/40 166/105/40 
f 164/102/41 163/103/41 167/105/41 168/104/41 
f 166/105/42 165/104/42 169/106/42 170/107/42 
f 168/104/43 167/105/43 171/107/43 172/106/43 
f 171/107/44 170/107/44 169/106/44 172/106/44 
f 162/103/45 166/105/45 173/108/45 174/109/45 
f 168/104/24 172/106/24 175/110/24 176/111/24 
f 177/112/46 178/113/46 174/109/46 173/108/46 
f 177/112/47 173/108/47 179/114/47 180/114/47 
f 177/112/48 180/114/48 181/108/48 182/109/48 
f 177/112/49 182/109/49 183/113/49 
f 157/100/50 160/101/50 178/113/50 177/112/50 
f 171/107/51 167/105/51 181/108/51 180/114/51 
f 158/101/52 157/100/52 177/112/52 183/113/52 
f 160/101/53 162/103/53 174/109/53 178/113/53 
f 167/105/54 163/103/54 182/109/54 181/108/54 
f 163/103/55 158/101/55 183/113/55 182/109/55 
f 170/107/56 171/107/56 180/114/56 179/114/56 
f 166/105/57 170/107/57 179/114/57 173/108/57 
f 184/110/58 185/111/58 186/115/58 187/116/58 
f 159/98/59 156/99/59 188/117/59 189/118/59 
f 169/106/6 165/104/6 185/111/6 184/110/6 
f 156/99/60 155/98/60 190/118/60 188/117/60 
f 164/102/61 168/104/61 176/111/61 191/119/61 
f 165/104/62 161/102/62 192/119/62 185/111/62 
f 155/98/61 164/102/61 191/119/61 190/118/61 
f 161/102/62 159/98/62 189/118/62 192/119/62 
f 172/106/24 169/106/24 184/110/24 175/110/24 
f 193/120/6 194/121/6 195/122/6 196/123/6 
f 193/120/24 196/123/24 187/123/24 186/122/24 
f 193/120/6 186/122/6 197/121/6 198/120/6 
f 193/120/63 198/120/63 199/124/63 
f 190/118/64 191/119/64 194/125/64 193/126/64 
f 188/117/65 190/118/65 193/126/65 199/127/65 
f 176/111/66 175/110/66 196/116/66 195/115/66 
f 185/111/67 192/119/67 197/125/67 186/115/67 
f 189/118/68 188/117/68 199/127/68 198/126/68 
f 175/110/69 184/110/69 187/116/69 196/116/69 
f 191/119/70 176/111/70 195/115/70 194/125/70 
f 192/119/71 189/118/71 198/126/71 197/125/71 
# 171 polygons - 4 triangles

