# 3ds Max Wavefront OBJ Exporter v0.97b - (c)2007 guruware
# File Created: 15.03.2017 11:50:13

mtllib SPW_Vehicle_Land_Bus.mtl

#
# object RR
#

v  -62.2869 38.8193 -136.4143
v  -48.6516 38.8193 -136.4143
v  -48.6516 36.8952 -144.8445
v  -62.2869 36.8952 -144.8445
v  -48.6516 31.5038 -151.6051
v  -62.2869 31.5038 -151.6051
v  -48.6516 23.7131 -155.3569
v  -62.2869 23.7131 -155.3569
v  -48.6516 15.0661 -155.3569
v  -62.2869 15.0661 -155.3569
v  -48.6516 7.2754 -151.6051
v  -62.2869 7.2754 -151.6051
v  -48.6516 1.8840 -144.8446
v  -62.2869 1.8840 -144.8446
v  -48.6516 -0.0401 -136.4143
v  -62.2869 -0.0401 -136.4143
v  -48.6516 1.8840 -127.9841
v  -62.2869 1.8840 -127.9841
v  -48.6516 7.2754 -121.2235
v  -62.2869 7.2754 -121.2235
v  -48.6516 15.0661 -117.4717
v  -62.2869 15.0661 -117.4717
v  -48.6516 23.7131 -117.4717
v  -62.2869 23.7131 -117.4717
v  -48.6516 31.5038 -121.2236
v  -62.2869 31.5038 -121.2236
v  -48.6516 36.8952 -127.9841
v  -62.2869 36.8952 -127.9841
# 28 vertices

vn 0.0000 0.9749 -0.2225
vn 0.0000 0.7818 -0.6235
vn 0.0000 0.4339 -0.9010
vn 0.0000 0.0000 -1.0000
vn 0.0000 -0.4339 -0.9010
vn 0.0000 -0.7818 -0.6235
vn 0.0000 -0.9749 -0.2225
vn 0.0000 -0.9749 0.2225
vn 0.0000 -0.7818 0.6235
vn 0.0000 -0.4339 0.9010
vn 0.0000 -0.0000 1.0000
vn 0.0000 0.4339 0.9010
vn 1.0000 0.0000 -0.0000
vn 1.0000 0.0000 0.0000
vn 0.0000 0.9749 0.2225
vn 0.0000 0.7818 0.6235
vn -1.0000 -0.0000 0.0000
vn -1.0000 -0.0000 -0.0000
vn -1.0000 0.0000 -0.0000
# 19 vertex normals

vt 0.8477 0.2020 0.0000
vt 0.8852 0.1935 0.0000
vt 0.9153 0.1695 0.0000
vt 0.9319 0.1349 0.0000
vt 0.9319 0.0965 0.0000
vt 0.9153 0.0618 0.0000
vt 0.8852 0.0379 0.0000
vt 0.8477 0.0293 0.0000
vt 0.8103 0.0379 0.0000
vt 0.7802 0.0618 0.0000
vt 0.7636 0.0965 0.0000
vt 0.7636 0.1349 0.0000
vt 0.7802 0.1695 0.0000
vt 0.8103 0.1935 0.0000
# 14 texture coords

g RR
usemtl SPW_Vehicle_Land_Bus
s off
f 1/1/1 2/1/1 3/2/1 4/2/1 
f 4/2/2 3/2/2 5/3/2 6/3/2 
f 6/3/3 5/3/3 7/4/3 8/4/3 
f 8/4/4 7/4/4 9/5/4 10/5/4 
f 10/5/5 9/5/5 11/6/5 12/6/5 
f 12/6/6 11/6/6 13/7/6 14/7/6 
f 14/7/7 13/7/7 15/8/7 16/8/7 
f 16/8/8 15/8/8 17/9/8 18/9/8 
f 18/9/9 17/9/9 19/10/9 20/10/9 
f 20/10/10 19/10/10 21/11/10 22/11/10 
f 22/11/11 21/11/11 23/12/11 24/12/11 
f 24/12/12 23/12/12 25/13/12 26/13/12 
f 3/2/13 2/1/13 27/14/13 25/13/13 
f 3/2/14 25/13/14 23/12/14 21/11/14 
f 3/2/13 21/11/13 19/10/13 17/9/13 
f 3/2/13 17/9/13 15/8/13 13/7/13 
f 3/2/13 13/7/13 11/6/13 9/5/13 
f 3/2/13 9/5/13 7/4/13 5/3/13 
f 28/14/15 27/14/15 2/1/15 1/1/15 
f 26/13/16 25/13/16 27/14/16 28/14/16 
f 1/1/17 4/2/17 6/3/17 8/4/17 
f 1/1/17 8/4/17 10/5/17 12/6/17 
f 1/1/17 12/6/17 14/7/17 16/8/17 
f 1/1/18 16/8/18 18/9/18 20/10/18 
f 1/1/19 20/10/19 22/11/19 24/12/19 
f 1/1/19 24/12/19 26/13/19 28/14/19 
# 26 polygons

#
# object FR
#

v  -62.2869 38.8193 97.6522
v  -48.6516 38.8193 97.6522
v  -48.6515 36.8952 89.2220
v  -62.2869 36.8952 89.2220
v  -48.6515 31.5038 82.4615
v  -62.2869 31.5038 82.4615
v  -48.6515 23.7131 78.7096
v  -62.2869 23.7131 78.7096
v  -48.6515 15.0661 78.7097
v  -62.2869 15.0661 78.7097
v  -48.6515 7.2754 82.4615
v  -62.2869 7.2754 82.4615
v  -48.6515 1.8840 89.2220
v  -62.2869 1.8840 89.2220
v  -48.6515 -0.0401 97.6522
v  -62.2869 -0.0401 97.6522
v  -48.6515 1.8840 106.0825
v  -62.2869 1.8840 106.0825
v  -48.6515 7.2754 112.8430
v  -62.2869 7.2754 112.8430
v  -48.6515 15.0661 116.5948
v  -62.2869 15.0661 116.5948
v  -48.6515 23.7131 116.5948
v  -62.2869 23.7131 116.5948
v  -48.6515 31.5038 112.8430
v  -62.2869 31.5038 112.8430
v  -48.6516 36.8952 106.0825
v  -62.2869 36.8952 106.0825
# 28 vertices

vn 0.0000 0.9749 -0.2225
vn 0.0000 0.7818 -0.6235
vn -0.0000 0.4339 -0.9010
vn -0.0000 -0.0000 -1.0000
vn -0.0000 -0.4339 -0.9010
vn 0.0000 -0.7818 -0.6235
vn -0.0000 -0.9749 -0.2225
vn 0.0000 -0.9749 0.2225
vn 0.0000 -0.7818 0.6235
vn 0.0000 -0.4339 0.9010
vn 0.0000 0.0000 1.0000
vn 0.0000 0.4339 0.9010
vn 1.0000 0.0000 0.0000
vn 1.0000 -0.0000 -0.0000
vn 1.0000 0.0000 -0.0000
vn -0.0000 0.9749 0.2225
vn -0.0000 0.7818 0.6235
vn -1.0000 0.0000 -0.0000
vn -1.0000 -0.0000 0.0000
vn -1.0000 -0.0000 -0.0000
# 20 vertex normals

vt 0.8477 0.2020 0.0000
vt 0.8852 0.1935 0.0000
vt 0.9153 0.1695 0.0000
vt 0.9319 0.1349 0.0000
vt 0.9319 0.0965 0.0000
vt 0.9153 0.0618 0.0000
vt 0.8852 0.0379 0.0000
vt 0.8477 0.0293 0.0000
vt 0.8103 0.0379 0.0000
vt 0.7802 0.0618 0.0000
vt 0.7636 0.0965 0.0000
vt 0.7636 0.1349 0.0000
vt 0.7802 0.1695 0.0000
vt 0.8103 0.1935 0.0000
# 14 texture coords

g FR
usemtl SPW_Vehicle_Land_Bus
s off
f 29/15/20 30/15/20 31/16/20 32/16/20 
f 32/16/21 31/16/21 33/17/21 34/17/21 
f 34/17/22 33/17/22 35/18/22 36/18/22 
f 36/18/23 35/18/23 37/19/23 38/19/23 
f 38/19/24 37/19/24 39/20/24 40/20/24 
f 40/20/25 39/20/25 41/21/25 42/21/25 
f 42/21/26 41/21/26 43/22/26 44/22/26 
f 44/22/27 43/22/27 45/23/27 46/23/27 
f 46/23/28 45/23/28 47/24/28 48/24/28 
f 48/24/29 47/24/29 49/25/29 50/25/29 
f 50/25/30 49/25/30 51/26/30 52/26/30 
f 52/26/31 51/26/31 53/27/31 54/27/31 
f 31/16/32 30/15/32 55/28/32 53/27/32 
f 31/16/32 53/27/32 51/26/32 49/25/32 
f 31/16/33 49/25/33 47/24/33 45/23/33 
f 31/16/34 45/23/34 43/22/34 41/21/34 
f 31/16/34 41/21/34 39/20/34 37/19/34 
f 31/16/34 37/19/34 35/18/34 33/17/34 
f 56/28/35 55/28/35 30/15/35 29/15/35 
f 54/27/36 53/27/36 55/28/36 56/28/36 
f 29/15/37 32/16/37 34/17/37 36/18/37 
f 29/15/38 36/18/38 38/19/38 40/20/38 
f 29/15/39 40/20/39 42/21/39 44/22/39 
f 29/15/37 44/22/37 46/23/37 48/24/37 
f 29/15/38 48/24/38 50/25/38 52/26/38 
f 29/15/38 52/26/38 54/27/38 56/28/38 
# 26 polygons

#
# object RL
#

v  48.6647 38.8193 -136.4143
v  62.3000 38.8193 -136.4143
v  62.3000 36.8952 -144.8445
v  48.6647 36.8952 -144.8445
v  62.3000 31.5038 -151.6051
v  48.6647 31.5038 -151.6051
v  62.3000 23.7131 -155.3569
v  48.6647 23.7131 -155.3569
v  62.3000 15.0661 -155.3570
v  48.6647 15.0661 -155.3570
v  62.3000 7.2754 -151.6051
v  48.6647 7.2754 -151.6051
v  62.3000 1.8840 -144.8446
v  48.6647 1.8840 -144.8446
v  62.3000 -0.0401 -136.4144
v  48.6647 -0.0401 -136.4144
v  62.3000 1.8840 -127.9841
v  48.6647 1.8840 -127.9841
v  62.3000 7.2754 -121.2236
v  48.6647 7.2754 -121.2236
v  62.3000 15.0661 -117.4718
v  48.6647 15.0661 -117.4718
v  62.3000 23.7131 -117.4717
v  48.6647 23.7131 -117.4717
v  62.3000 31.5038 -121.2236
v  48.6647 31.5038 -121.2236
v  62.3000 36.8952 -127.9841
v  48.6647 36.8952 -127.9841
# 28 vertices

vn 0.0000 0.9749 -0.2225
vn 0.0000 0.7818 -0.6235
vn 0.0000 0.4339 -0.9010
vn 0.0000 0.0000 -1.0000
vn 0.0000 -0.4339 -0.9010
vn 0.0000 -0.7818 -0.6235
vn 0.0000 -0.9749 -0.2225
vn 0.0000 -0.9749 0.2225
vn 0.0000 -0.7818 0.6235
vn 0.0000 -0.4339 0.9010
vn 0.0000 -0.0000 1.0000
vn 0.0000 0.4339 0.9010
vn 1.0000 0.0000 -0.0000
vn 1.0000 0.0000 0.0000
vn 0.0000 0.9749 0.2225
vn 0.0000 0.7818 0.6235
vn -1.0000 -0.0000 0.0000
vn -1.0000 -0.0000 -0.0000
vn -1.0000 0.0000 -0.0000
# 19 vertex normals

vt 0.8477 0.2020 0.0000
vt 0.8852 0.1935 0.0000
vt 0.9153 0.1695 0.0000
vt 0.9319 0.1349 0.0000
vt 0.9319 0.0965 0.0000
vt 0.9153 0.0618 0.0000
vt 0.8852 0.0379 0.0000
vt 0.8477 0.0293 0.0000
vt 0.8103 0.0379 0.0000
vt 0.7802 0.0618 0.0000
vt 0.7636 0.0965 0.0000
vt 0.7636 0.1349 0.0000
vt 0.7802 0.1695 0.0000
vt 0.8103 0.1935 0.0000
# 14 texture coords

g RL
usemtl SPW_Vehicle_Land_Bus
s off
f 57/29/40 58/29/40 59/30/40 60/30/40 
f 60/30/41 59/30/41 61/31/41 62/31/41 
f 62/31/42 61/31/42 63/32/42 64/32/42 
f 64/32/43 63/32/43 65/33/43 66/33/43 
f 66/33/44 65/33/44 67/34/44 68/34/44 
f 68/34/45 67/34/45 69/35/45 70/35/45 
f 70/35/46 69/35/46 71/36/46 72/36/46 
f 72/36/47 71/36/47 73/37/47 74/37/47 
f 74/37/48 73/37/48 75/38/48 76/38/48 
f 76/38/49 75/38/49 77/39/49 78/39/49 
f 78/39/50 77/39/50 79/40/50 80/40/50 
f 80/40/51 79/40/51 81/41/51 82/41/51 
f 59/30/52 58/29/52 83/42/52 81/41/52 
f 59/30/53 81/41/53 79/40/53 77/39/53 
f 59/30/52 77/39/52 75/38/52 73/37/52 
f 59/30/52 73/37/52 71/36/52 69/35/52 
f 59/30/52 69/35/52 67/34/52 65/33/52 
f 59/30/52 65/33/52 63/32/52 61/31/52 
f 84/42/54 83/42/54 58/29/54 57/29/54 
f 82/41/55 81/41/55 83/42/55 84/42/55 
f 57/29/56 60/30/56 62/31/56 64/32/56 
f 57/29/56 64/32/56 66/33/56 68/34/56 
f 57/29/56 68/34/56 70/35/56 72/36/56 
f 57/29/57 72/36/57 74/37/57 76/38/57 
f 57/29/58 76/38/58 78/39/58 80/40/58 
f 57/29/58 80/40/58 82/41/58 84/42/58 
# 26 polygons

#
# object FL
#

v  48.6647 38.8193 97.6522
v  62.3000 38.8193 97.6522
v  62.3000 36.8952 89.2220
v  48.6647 36.8952 89.2220
v  62.3000 31.5038 82.4614
v  48.6647 31.5038 82.4614
v  62.3000 23.7131 78.7096
v  48.6647 23.7131 78.7096
v  62.3000 15.0661 78.7096
v  48.6647 15.0661 78.7096
v  62.3000 7.2754 82.4615
v  48.6647 7.2754 82.4615
v  62.3000 1.8840 89.2220
v  48.6647 1.8840 89.2220
v  62.3000 -0.0401 97.6522
v  48.6647 -0.0401 97.6522
v  62.3000 1.8840 106.0825
v  48.6647 1.8840 106.0825
v  62.3000 7.2754 112.8430
v  48.6647 7.2754 112.8430
v  62.3000 15.0661 116.5948
v  48.6647 15.0661 116.5948
v  62.3000 23.7131 116.5948
v  48.6647 23.7131 116.5948
v  62.3000 31.5038 112.8430
v  48.6647 31.5038 112.8430
v  62.3000 36.8952 106.0825
v  48.6647 36.8952 106.0824
# 28 vertices

vn 0.0000 0.9749 -0.2225
vn 0.0000 0.7818 -0.6235
vn -0.0000 0.4339 -0.9010
vn -0.0000 -0.0000 -1.0000
vn -0.0000 -0.4339 -0.9010
vn 0.0000 -0.7818 -0.6235
vn 0.0000 -0.9749 -0.2225
vn 0.0000 -0.9749 0.2225
vn 0.0000 -0.7818 0.6235
vn 0.0000 -0.4339 0.9010
vn 0.0000 0.0000 1.0000
vn 0.0000 0.4339 0.9010
vn 1.0000 0.0000 0.0000
vn 1.0000 -0.0000 -0.0000
vn 1.0000 0.0000 -0.0000
vn -0.0000 0.9749 0.2225
vn -0.0000 0.7818 0.6235
vn -1.0000 0.0000 -0.0000
vn -1.0000 -0.0000 0.0000
vn -1.0000 -0.0000 -0.0000
# 20 vertex normals

vt 0.8477 0.2020 0.0000
vt 0.8852 0.1935 0.0000
vt 0.9153 0.1695 0.0000
vt 0.9319 0.1349 0.0000
vt 0.9319 0.0965 0.0000
vt 0.9153 0.0618 0.0000
vt 0.8852 0.0379 0.0000
vt 0.8477 0.0293 0.0000
vt 0.8103 0.0379 0.0000
vt 0.7802 0.0618 0.0000
vt 0.7636 0.0965 0.0000
vt 0.7636 0.1349 0.0000
vt 0.7802 0.1695 0.0000
vt 0.8103 0.1935 0.0000
# 14 texture coords

g FL
usemtl SPW_Vehicle_Land_Bus
s off
f 85/43/59 86/43/59 87/44/59 88/44/59 
f 88/44/60 87/44/60 89/45/60 90/45/60 
f 90/45/61 89/45/61 91/46/61 92/46/61 
f 92/46/62 91/46/62 93/47/62 94/47/62 
f 94/47/63 93/47/63 95/48/63 96/48/63 
f 96/48/64 95/48/64 97/49/64 98/49/64 
f 98/49/65 97/49/65 99/50/65 100/50/65 
f 100/50/66 99/50/66 101/51/66 102/51/66 
f 102/51/67 101/51/67 103/52/67 104/52/67 
f 104/52/68 103/52/68 105/53/68 106/53/68 
f 106/53/69 105/53/69 107/54/69 108/54/69 
f 108/54/70 107/54/70 109/55/70 110/55/70 
f 87/44/71 86/43/71 111/56/71 109/55/71 
f 87/44/71 109/55/71 107/54/71 105/53/71 
f 87/44/72 105/53/72 103/52/72 101/51/72 
f 87/44/73 101/51/73 99/50/73 97/49/73 
f 87/44/73 97/49/73 95/48/73 93/47/73 
f 87/44/73 93/47/73 91/46/73 89/45/73 
f 112/56/74 111/56/74 86/43/74 85/43/74 
f 110/55/75 109/55/75 111/56/75 112/56/75 
f 85/43/76 88/44/76 90/45/76 92/46/76 
f 85/43/77 92/46/77 94/47/77 96/48/77 
f 85/43/78 96/48/78 98/49/78 100/50/78 
f 85/43/76 100/50/76 102/51/76 104/52/76 
f 85/43/77 104/52/77 106/53/77 108/54/77 
f 85/43/77 108/54/77 110/55/77 112/56/77 
# 26 polygons

#
# object Body
#

v  -65.5572 118.8193 202.6034
v  -71.9836 118.8193 201.4703
v  -71.9836 99.6224 201.4703
v  -65.5572 99.6224 202.6034
v  -72.3815 119.6890 199.0714
v  -72.3815 98.7527 199.0714
v  -64.3628 119.6890 200.4853
v  -64.3628 98.7527 200.4853
v  -69.1187 124.5064 200.6813
v  -68.0263 124.5064 200.6813
v  -68.0263 123.4141 200.6813
v  -69.1187 123.4141 200.6813
v  -68.0263 123.4141 201.7736
v  -62.0193 123.4141 200.6813
v  -62.0193 123.4141 201.7736
v  -68.0263 124.5064 201.7736
v  -69.1187 124.5064 201.7736
v  -69.1187 123.4141 201.7736
v  -69.1187 94.6816 200.6812
v  -69.1187 94.6816 201.7736
v  -62.0193 124.5064 200.6813
v  -62.0193 124.5064 201.7736
v  -69.1187 93.5201 200.6812
v  -69.1187 93.5201 201.7736
v  -68.0263 94.6816 201.7736
v  -68.0263 94.6816 200.6812
v  -68.0263 93.5201 200.6812
v  -68.0263 93.5201 201.7736
v  -62.0277 94.6817 200.6812
v  -62.0277 93.5201 200.6812
v  -62.0277 94.6817 201.7736
v  -62.0277 93.5201 201.7736
v  72.0038 118.8193 201.5218
v  65.5775 118.8193 202.6550
v  65.5775 99.6224 202.6550
v  72.0038 99.6224 201.5218
v  64.3831 119.6890 200.5368
v  64.3831 98.7527 200.5368
v  72.4018 119.6890 199.1229
v  72.4018 98.7527 199.1229
v  69.1387 124.5064 201.7736
v  68.0463 124.5064 201.7736
v  68.0463 123.4141 201.7736
v  69.1387 123.4141 201.7736
v  68.0463 123.4141 200.6813
v  62.0393 123.4141 201.7736
v  62.0393 123.4141 200.6813
v  68.0463 124.5064 200.6813
v  69.1387 124.5064 200.6813
v  69.1387 123.4141 200.6813
v  69.1387 94.6816 201.7736
v  69.1387 94.6816 200.6813
v  62.0393 124.5064 201.7736
v  62.0393 124.5064 200.6813
v  69.1387 93.5201 201.7736
v  69.1387 93.5201 200.6813
v  68.0463 94.6816 200.6813
v  68.0463 94.6816 201.7736
v  68.0463 93.5201 201.7736
v  68.0463 93.5201 200.6813
v  62.0477 94.6816 201.7736
v  62.0477 93.5201 201.7736
v  62.0477 94.6816 200.6813
v  62.0477 93.5201 200.6813
v  21.1335 138.5329 73.1012
v  -21.1203 138.5329 73.1012
v  -21.1203 129.1666 73.1012
v  21.1335 129.1666 73.1012
v  -21.1203 138.5329 1.9353
v  -21.1203 129.1666 1.9353
v  21.1335 138.5329 1.9353
v  21.1335 129.1666 1.9353
v  21.1335 138.5329 -83.8555
v  -21.1203 138.5329 -83.8555
v  -21.1203 129.1667 -83.8555
v  21.1335 129.1667 -83.8555
v  -21.1203 138.5329 -155.0214
v  -21.1203 129.1667 -155.0214
v  21.1335 138.5329 -155.0214
v  21.1335 129.1667 -155.0214
v  62.9988 25.3664 204.4088
v  -62.9855 25.3664 204.4088
v  -62.9855 25.3664 211.0234
v  62.9988 25.3664 211.0234
v  62.9988 16.0220 204.4088
v  62.9988 16.0220 211.0234
v  62.9988 56.4780 204.4089
v  -62.9855 56.4780 204.4089
v  -62.9855 16.0220 204.4089
v  -62.9855 16.0220 211.0234
v  62.9988 16.0220 118.6577
v  62.9988 21.6284 118.7067
v  62.9988 25.3664 117.8888
v  62.9988 127.2688 204.4089
v  62.9988 67.3530 199.3332
v  62.9988 126.9491 199.3332
v  62.9988 126.9491 175.6120
v  62.9988 126.9491 171.6762
v  62.9988 82.3896 175.6120
v  62.9988 82.3813 171.6762
v  62.9988 126.9491 124.4320
v  62.9988 126.9491 120.5398
v  62.9988 82.3813 124.4320
v  62.9988 82.4932 120.5398
v  62.9988 126.9491 61.4347
v  62.9988 126.9491 57.5355
v  62.9988 82.4932 61.4347
v  62.9988 82.4932 57.5355
v  62.9988 126.9491 -1.5695
v  62.9988 126.9491 -5.5284
v  62.9988 82.4932 -1.5695
v  62.9988 82.4932 -5.5284
v  62.9988 126.9491 -64.6334
v  62.9988 126.9491 -68.5923
v  62.9988 82.4932 -64.6334
v  62.9988 82.4932 -68.5923
v  62.9988 126.9491 -127.6973
v  62.9988 82.4932 -127.6973
v  62.9988 82.4932 -131.7137
v  62.9988 126.9491 -131.7137
v  62.9988 126.9491 -190.8188
v  62.9988 127.2689 -199.8146
v  62.9988 28.9237 117.1105
v  62.9988 28.9237 78.3634
v  62.9988 25.3665 77.5850
v  62.9988 25.3665 -116.1781
v  62.9988 35.1083 82.9091
v  62.9988 39.2408 89.7121
v  62.9988 40.6919 97.7369
v  62.9988 28.9237 -116.9565
v  62.9988 28.9237 -155.7036
v  62.9988 25.3665 -156.4819
v  62.9988 25.3665 -199.8146
v  62.9988 35.1084 -151.1579
v  62.9988 39.2408 -144.3548
v  62.9988 82.4932 -190.8188
v  62.9988 56.6067 -199.8146
v  62.9988 40.6919 -136.3300
v  62.9988 39.2408 -128.3053
v  62.9988 35.1084 -121.5022
v  62.9988 39.2408 105.7617
v  62.9988 35.1083 112.5648
v  57.7700 67.3946 204.4089
v  -57.7567 67.3946 204.4089
v  -62.9855 127.2688 204.4089
v  -57.7567 126.9491 204.4089
v  57.7700 126.9491 204.4089
v  -62.9855 25.4340 124.4320
v  -62.9855 126.9491 124.4320
v  -62.9855 82.4932 120.5398
v  -62.9855 82.4932 61.4347
v  -62.9855 82.4932 57.5355
v  -62.9855 35.1083 112.5648
v  -62.9855 82.4932 -127.6974
v  -62.9855 35.1084 -151.1579
v  -62.9855 39.2408 -144.3548
v  -62.9855 82.4932 -68.5923
v  -62.9855 82.4932 -64.6334
v  -62.9855 82.4932 -5.5284
v  -62.9855 82.4932 -1.5695
v  -62.9855 40.6919 -136.3300
v  -62.9855 39.2408 89.7121
v  -62.9855 28.9237 -116.9565
v  -62.9855 25.3665 -116.1782
v  -62.9855 25.3665 77.5850
v  -62.9855 35.1084 -121.5022
v  -62.9855 39.2408 -128.3053
v  -62.9855 28.9237 78.3634
v  -62.9855 35.1083 82.9091
v  -62.9855 40.6919 97.7369
v  -62.9855 39.2408 105.7617
v  -62.9855 28.9237 117.1105
v  -62.9855 25.3664 117.8888
v  -62.9855 25.4340 171.6761
v  -62.9855 127.2689 -199.8146
v  -62.9855 126.9491 175.6120
v  -62.9855 126.9491 199.3332
v  -62.9855 67.3530 199.3332
v  -62.9855 82.4050 175.6120
v  -62.9855 56.6067 -199.8146
v  -62.9855 25.3665 -199.8146
v  -62.9855 25.3665 -156.4819
v  -62.9855 28.9237 -155.7036
v  -62.9855 82.4932 -131.7137
v  -62.9855 82.4932 -190.8188
v  -62.9855 126.9491 -190.8188
v  -62.9855 126.9491 120.5398
v  -62.9855 126.9491 171.6762
v  -62.9855 126.9491 -131.7137
v  -62.9855 126.9491 -127.6973
v  -62.9855 126.9491 61.4347
v  -62.9855 126.9491 -68.5923
v  -62.9855 126.9491 -64.6334
v  -62.9855 126.9491 -1.5695
v  -62.9855 126.9491 -5.5284
v  -62.9855 126.9491 57.5355
v  -62.9855 21.6284 118.7067
v  -62.9855 16.0220 118.6577
v  -43.2253 16.0220 118.6577
v  -43.2253 16.0221 76.8161
v  -62.9855 16.0221 76.8161
v  -62.9855 16.0221 -115.4092
v  -43.2253 16.0221 -115.4092
v  -43.2253 16.0221 -157.2508
v  -62.9855 16.0221 -157.2508
v  -62.9855 16.0221 -199.8146
v  42.9526 16.0221 -157.2508
v  62.9988 16.0221 -199.8146
v  62.9988 16.0221 -157.2508
v  42.9526 16.0221 -115.4092
v  62.9988 16.0221 -115.4093
v  62.9988 16.0221 76.8161
v  42.9526 16.0221 76.8161
v  42.9526 16.0220 118.6577
v  42.9526 21.6284 118.7067
v  57.7700 67.3946 -199.8146
v  57.7700 126.9491 -199.8146
v  -57.7567 126.9491 -199.8146
v  -57.7567 67.3946 -199.8146
v  62.9988 134.1323 -199.8146
v  62.9988 134.1323 208.6583
v  42.9526 28.9237 117.1105
v  42.9526 35.1083 112.5648
v  42.9526 39.2408 105.7617
v  42.9526 40.6919 97.7369
v  42.9526 39.2408 89.7121
v  42.9526 35.1083 82.9091
v  42.9526 28.9237 78.3634
v  42.9526 21.6285 76.7672
v  62.9988 21.6285 76.7672
v  62.9988 21.6285 -115.3603
v  42.9526 28.9237 -116.9565
v  42.9526 35.1084 -121.5022
v  42.9526 39.2408 -128.3053
v  42.9526 40.6919 -136.3300
v  42.9526 39.2408 -144.3548
v  42.9526 35.1084 -151.1579
v  42.9526 28.9237 -155.7036
v  62.9988 21.6285 -157.2998
v  -62.9855 134.1323 208.6584
v  -62.9855 134.1323 -199.8146
v  -62.9855 21.6285 -157.2998
v  -43.2253 28.9237 -155.7036
v  -43.2253 35.1084 -151.1579
v  -43.2253 39.2408 -144.3548
v  -43.2253 40.6919 -136.3300
v  -43.2253 39.2408 -128.3053
v  -43.2253 35.1084 -121.5022
v  -43.2253 28.9237 -116.9565
v  -62.9855 21.6285 -115.3602
v  -62.9855 21.6285 76.7672
v  -43.2253 21.6285 76.7672
v  -43.2253 28.9237 78.3634
v  -43.2253 35.1083 82.9091
v  -43.2253 39.2408 89.7121
v  -43.2253 40.6919 97.7369
v  -43.2253 39.2408 105.7617
v  -43.2252 35.1083 112.5648
v  -43.2252 28.9237 117.1105
v  -43.2253 21.6284 118.7067
v  -43.2253 21.6285 -115.3602
v  -43.2253 21.6285 -157.2998
v  -62.9855 16.0221 -205.1093
v  62.9988 16.0221 -205.1093
v  42.9526 21.6285 -157.2998
v  42.9526 21.6285 -115.3602
v  62.9988 25.3665 -205.1093
v  -62.9855 25.3665 -205.1093
v  57.7700 126.9491 -199.2332
v  57.7700 67.3946 -199.2332
v  -57.7567 67.3946 -199.2332
v  -57.7567 126.9491 -199.2332
v  62.5275 82.4932 -131.7137
v  62.5275 126.9491 -131.7137
v  62.5275 126.9491 -190.8188
v  62.5275 82.4932 -190.8188
v  62.5275 82.4932 -68.5923
v  62.5275 126.9491 -68.5923
v  62.5275 126.9491 -127.6973
v  62.5275 82.4932 -127.6973
v  62.5275 82.4932 -5.5284
v  62.5275 126.9491 -5.5284
v  62.5275 126.9491 -64.6334
v  62.5275 82.4932 -64.6334
v  62.5275 82.4932 57.5355
v  62.5275 126.9491 57.5355
v  62.5275 126.9491 -1.5695
v  62.5275 82.4932 -1.5695
v  62.5275 82.4932 120.5398
v  62.5275 126.9491 120.5398
v  62.5275 126.9491 61.4347
v  62.5275 82.4932 61.4347
v  62.5275 67.3530 199.3332
v  62.5275 126.9491 199.3332
v  62.5275 126.9491 175.6120
v  62.5275 82.3896 175.6120
v  62.5275 82.3813 171.6762
v  62.5275 126.9491 171.6762
v  62.5275 126.9491 124.4320
v  62.5275 82.3813 124.4320
v  -62.5144 126.9491 -131.7137
v  -62.5144 82.4932 -131.7137
v  -62.5144 82.4932 -190.8188
v  -62.5144 126.9491 -190.8188
v  -62.5144 126.9491 -68.5923
v  -62.5144 82.4932 -68.5923
v  -62.5144 82.4932 -127.6974
v  -62.5144 126.9491 -127.6973
v  -62.5144 126.9491 -5.5284
v  -62.5144 82.4932 -5.5284
v  -62.5144 82.4932 -64.6334
v  -62.5144 126.9491 -64.6334
v  -62.5144 126.9491 57.5355
v  -62.5144 82.4932 57.5355
v  -62.5144 82.4932 -1.5695
v  -62.5144 126.9491 -1.5695
v  -62.5144 126.9491 120.5398
v  -62.5144 82.4932 120.5398
v  -62.5144 82.4932 61.4347
v  -62.5144 126.9491 61.4347
v  -62.5144 126.9491 199.3332
v  -62.5144 67.3530 199.3332
v  -62.5144 82.4050 175.6120
v  -62.5144 126.9491 175.6120
v  -62.5144 126.9491 171.6762
v  -62.5144 25.4340 171.6761
v  -62.5144 25.4340 124.4320
v  -62.5144 126.9491 124.4320
v  -57.7567 67.3946 203.9924
v  -57.7567 126.9491 203.9924
v  57.7700 126.9491 203.9924
v  57.7700 67.3946 203.9924
# 332 vertices

vn -0.1736 -0.0000 0.9848
vn -0.9865 -0.0000 0.1636
vn 0.1736 0.0000 -0.9848
vn 0.8711 -0.0000 0.4912
vn -0.0616 -0.9350 0.3492
vn -0.0616 0.9350 0.3492
vn 0.0000 0.0000 -1.0000
vn 0.0000 -1.0000 -0.0000
vn 0.0000 -0.0000 1.0000
vn -1.0000 0.0000 -0.0000
vn 0.0000 1.0000 0.0000
vn 1.0000 0.0000 -0.0000
vn 0.0000 -1.0000 0.0000
vn -0.0000 1.0000 0.0000
vn 0.1736 -0.0000 0.9848
vn -0.8711 -0.0000 0.4912
vn -0.1736 0.0000 -0.9848
vn 0.9865 -0.0000 0.1636
vn 0.0616 -0.9350 0.3492
vn 0.0616 0.9350 0.3492
vn -1.0000 -0.0000 0.0000
vn -0.0000 0.0000 -1.0000
vn -0.0000 -0.0000 1.0000
vn 1.0000 -0.0000 -0.0000
vn -1.0000 0.0000 0.0000
vn 0.0000 0.0000 1.0000
vn 1.0000 -0.0000 0.0000
vn 1.0000 0.0000 0.0000
vn -1.0000 -0.0000 -0.0000
vn -1.0000 0.0001 0.0000
vn -0.4367 -0.8996 -0.0000
vn 0.8944 -0.4472 -0.0000
vn 0.9543 0.2990 -0.0000
vn -0.9882 -0.1533 0.0000
vn -0.0000 -1.0000 0.0000
vn -0.0000 -1.0000 -0.0000
vn 0.0000 0.0087 -1.0000
vn 0.0000 -0.5922 -0.8058
vn 0.0000 -0.8547 -0.5192
vn 0.0000 -0.9840 -0.1779
vn 0.0000 -0.9840 0.1779
vn -0.0000 -0.8547 0.5192
vn -0.0000 -0.5922 0.8058
vn -0.0000 -0.2137 0.9769
vn -0.0000 -0.9840 0.1779
vn 0.0000 -0.5922 0.8058
vn 0.0000 -0.5264 0.8502
vn 0.0000 -0.2137 -0.9769
vn -0.0000 0.0087 1.0000
vn 0.0000 0.0087 1.0000
vn -0.0000 0.0087 -1.0000
vn -0.0000 -0.2137 -0.9769
vn 0.0000 -0.2137 0.9769
vn 0.0000 -0.0000 -1.0000
vn 0.0000 1.0000 -0.0000
vn 0.0000 0.8446 0.5354
vn 0.0000 0.8444 0.5358
# 57 vertex normals

vt 0.3334 0.1654 0.0000
vt 0.3351 0.1654 0.0000
vt 0.3351 0.1364 0.0000
vt 0.3334 0.1364 0.0000
vt 0.3387 0.1667 0.0000
vt 0.3387 0.1351 0.0000
vt 0.3366 0.1667 0.0000
vt 0.3366 0.1351 0.0000
vt 0.3363 0.1739 0.0000
vt 0.3363 0.1723 0.0000
vt 0.3346 0.1723 0.0000
vt 0.3346 0.1739 0.0000
vt 0.3363 0.1290 0.0000
vt 0.3346 0.1290 0.0000
vt 0.3363 0.1272 0.0000
vt 0.3346 0.1272 0.0000
vt 0.3350 0.1654 0.0000
vt 0.3333 0.1654 0.0000
vt 0.3333 0.1364 0.0000
vt 0.3350 0.1364 0.0000
vt 0.3365 0.1667 0.0000
vt 0.3365 0.1351 0.0000
vt 0.3386 0.1667 0.0000
vt 0.3386 0.1351 0.0000
vt 0.0690 0.4676 0.0000
vt 0.1190 0.4676 0.0000
vt 0.1190 0.5176 0.0000
vt 0.0690 0.5176 0.0000
vt 0.2929 0.1157 0.0000
vt 0.3429 0.1157 0.0000
vt 0.3429 0.1657 0.0000
vt 0.2929 0.1657 0.0000
vt 0.3782 0.6947 0.0000
vt 0.0067 0.6947 0.0000
vt 0.0067 0.6030 0.0000
vt 0.3782 0.6030 0.0000
vt 0.3417 0.1485 0.0000
vt 0.3326 0.1205 0.0000
vt 0.3032 0.1205 0.0000
vt 0.2941 0.1485 0.0000
vt 0.3179 0.1657 0.0000
vt 0.4971 0.4693 0.0000
vt 0.5023 0.4688 0.0000
vt 0.5072 0.4672 0.0000
vt 0.5118 0.4646 0.0000
vt 0.5156 0.4611 0.0000
vt 0.5219 0.4469 0.0000
vt 0.5187 0.4568 0.0000
vt 0.5208 0.4521 0.0000
vt 0.5219 0.4417 0.0000
vt 0.5156 0.4276 0.0000
vt 0.5208 0.4366 0.0000
vt 0.5187 0.4318 0.0000
vt 0.5118 0.4241 0.0000
vt 0.4971 0.4193 0.0000
vt 0.5072 0.4215 0.0000
vt 0.5023 0.4199 0.0000
vt 0.4919 0.4199 0.0000
vt 0.4785 0.4276 0.0000
vt 0.4869 0.4215 0.0000
vt 0.4824 0.4241 0.0000
vt 0.4754 0.4318 0.0000
vt 0.4722 0.4469 0.0000
vt 0.4733 0.4366 0.0000
vt 0.4722 0.4417 0.0000
vt 0.4733 0.4521 0.0000
vt 0.4754 0.4568 0.0000
vt 0.4785 0.4611 0.0000
vt 0.4824 0.4646 0.0000
vt 0.4869 0.4672 0.0000
vt 0.4919 0.4688 0.0000
vt 0.0382 0.2674 0.0000
vt 0.2293 0.2674 0.0000
vt 0.2308 0.2751 0.0000
vt 0.0492 0.3582 0.0000
vt 0.3070 0.2751 0.0000
vt 0.3086 0.2674 0.0000
vt 0.7356 0.2674 0.0000
vt 0.2981 0.2885 0.0000
vt 0.2847 0.2974 0.0000
vt 0.2689 0.3006 0.0000
vt 0.7371 0.2751 0.0000
vt 0.8133 0.2751 0.0000
vt 0.8148 0.2674 0.0000
vt 0.9125 0.2674 0.0000
vt 0.8044 0.2885 0.0000
vt 0.7910 0.2974 0.0000
vt 0.8931 0.3910 0.0000
vt 0.9125 0.3350 0.0000
vt 0.9125 0.4878 0.0000
vt 0.8931 0.4871 0.0000
vt 0.7752 0.3006 0.0000
vt 0.7594 0.2974 0.0000
vt 0.7460 0.2885 0.0000
vt 0.3475 0.3910 0.0000
vt 0.2196 0.3910 0.0000
vt 0.2112 0.3907 0.0000
vt 0.3559 0.3910 0.0000
vt 0.1090 0.3907 0.0000
vt 0.1005 0.3908 0.0000
vt 0.4837 0.3910 0.0000
vt 0.4923 0.3910 0.0000
vt 0.6201 0.3910 0.0000
vt 0.6287 0.3910 0.0000
vt 0.7565 0.3910 0.0000
vt 0.7652 0.3910 0.0000
vt 0.2532 0.2974 0.0000
vt 0.2398 0.2885 0.0000
vt 0.0382 0.3347 0.0000
vt 0.2112 0.2676 0.0000
vt 0.2112 0.4871 0.0000
vt 0.1090 0.2676 0.0000
vt 0.2196 0.4871 0.0000
vt 0.1090 0.4871 0.0000
vt 0.1005 0.4871 0.0000
vt 0.5131 0.4635 0.0000
vt 0.5217 0.4487 0.0000
vt 0.5217 0.4400 0.0000
vt 0.5056 0.4678 0.0000
vt 0.4885 0.4678 0.0000
vt 0.5131 0.4252 0.0000
vt 0.5056 0.4208 0.0000
vt 0.4725 0.4400 0.0000
vt 0.4885 0.4208 0.0000
vt 0.4810 0.4252 0.0000
vt 0.4725 0.4487 0.0000
vt 0.4810 0.4635 0.0000
vt 0.3256 0.1645 0.0000
vt 0.3326 0.1610 0.0000
vt 0.3381 0.1554 0.0000
vt 0.3429 0.1407 0.0000
vt 0.3417 0.1330 0.0000
vt 0.3381 0.1260 0.0000
vt 0.3256 0.1169 0.0000
vt 0.3179 0.1157 0.0000
vt 0.2977 0.1260 0.0000
vt 0.3102 0.1169 0.0000
vt 0.2941 0.1330 0.0000
vt 0.2929 0.1407 0.0000
vt 0.2977 0.1554 0.0000
vt 0.3032 0.1610 0.0000
vt 0.3102 0.1645 0.0000
vt 0.4721 0.4193 0.0000
vt 0.5221 0.4193 0.0000
vt 0.5221 0.4693 0.0000
vt 0.4721 0.4693 0.0000
vt 0.3396 0.1282 0.0000
vt 0.2963 0.1282 0.0000
vt 0.3396 0.1532 0.0000
vt 0.2963 0.1532 0.0000
vt 0.3774 0.8156 0.0000
vt 0.0071 0.8156 0.0000
vt 0.0071 0.7238 0.0000
vt 0.3774 0.7238 0.0000
vt 0.3314 0.1618 0.0000
vt 0.3406 0.1511 0.0000
vt 0.3426 0.1372 0.0000
vt 0.3368 0.1244 0.0000
vt 0.3249 0.1167 0.0000
vt 0.3109 0.1167 0.0000
vt 0.2990 0.1244 0.0000
vt 0.2932 0.1372 0.0000
vt 0.2952 0.1511 0.0000
vt 0.3044 0.1618 0.0000
vt 0.3023 0.2668 0.0000
vt 0.3523 0.2668 0.0000
vt 0.3523 0.3168 0.0000
vt 0.3023 0.3168 0.0000
vt 0.1502 0.0837 0.0000
vt 0.2002 0.0837 0.0000
vt 0.2002 0.1337 0.0000
vt 0.1502 0.1337 0.0000
vt 0.4700 0.8129 0.0000
vt 0.4700 0.6588 0.0000
vt 0.6748 0.6588 0.0000
vt 0.6748 0.8129 0.0000
vt 0.6747 0.6588 0.0000
vt 0.6747 0.8129 0.0000
vt 0.4702 0.8129 0.0000
vt 0.4702 0.6588 0.0000
vt 0.6750 0.6588 0.0000
vt 0.6750 0.8129 0.0000
vt 0.4701 0.8129 0.0000
vt 0.4701 0.6588 0.0000
vt 0.6749 0.6588 0.0000
vt 0.6749 0.8129 0.0000
vt 0.5932 0.8129 0.0000
vt 0.5932 0.6064 0.0000
vt 0.6754 0.6585 0.0000
vt 0.6754 0.8129 0.0000
vt 0.5112 0.8129 0.0000
vt 0.5112 0.6584 0.0000
vt 0.6749 0.6584 0.0000
vt 0.3496 0.2752 0.0000
vt 0.3996 0.2752 0.0000
vt 0.3996 0.3252 0.0000
vt 0.3496 0.3252 0.0000
vt 0.7803 0.9734 0.0000
vt 0.7803 0.5132 0.0000
vt 0.9945 0.5132 0.0000
vt 0.9945 0.9734 0.0000
# 201 texture coords

g Body
usemtl SPW_Vehicle_Land_Bus
s off
f 113/57/79 114/58/79 115/59/79 116/60/79 
f 114/58/80 117/61/80 118/62/80 115/59/80 
f 117/61/81 119/63/81 120/64/81 118/62/81 
f 119/63/82 113/57/82 116/60/82 120/64/82 
f 116/60/83 115/59/83 118/62/83 120/64/83 
f 119/63/84 117/61/84 114/58/84 113/57/84 
s 1
f 121/65/85 122/65/85 123/66/85 124/66/85 
s off
f 125/67/86 123/66/86 126/66/86 127/67/86 
s 1
f 128/68/87 129/68/87 130/67/87 125/67/87 
s 2
f 129/68/88 121/65/88 124/66/88 130/67/88 
f 130/67/88 124/66/88 131/69/88 132/70/88 
s 4
f 129/68/89 128/68/89 122/65/89 121/65/89 
s off
f 133/65/90 134/68/90 127/67/90 126/66/90 
s 1
f 128/68/87 125/67/87 127/67/87 134/68/87 
s 4
f 122/65/89 128/68/89 134/68/89 133/65/89 
s 1
f 123/66/85 122/65/85 133/65/85 126/66/85 
s 2
f 132/70/88 131/69/88 135/71/88 136/72/88 
s 1
f 125/67/87 130/67/87 132/70/87 137/70/87 
s off
f 123/66/90 125/67/90 137/70/90 138/69/90 
s 1
f 124/66/85 123/66/85 138/69/85 131/69/85 
s 4
f 135/71/91 139/71/91 140/72/91 136/72/91 
s 1
f 137/70/87 132/70/87 136/72/87 140/72/87 
f 139/71/85 138/69/85 141/69/85 142/71/85 
f 131/69/85 138/69/85 139/71/85 135/71/85 
s off
f 141/69/90 143/70/90 144/72/90 142/71/90 
s 1
f 137/70/87 140/72/87 144/72/87 143/70/87 
s 4
f 140/72/91 139/71/91 142/71/91 144/72/91 
s off
f 138/69/92 137/70/92 143/70/92 141/69/92 
f 145/73/93 146/74/93 147/75/93 148/76/93 
f 146/74/94 149/77/94 150/78/94 147/75/94 
f 149/77/95 151/79/95 152/80/95 150/78/95 
f 151/79/96 145/73/96 148/76/96 152/80/96 
f 148/76/97 147/75/97 150/78/97 152/80/97 
f 151/79/98 149/77/98 146/74/98 145/73/98 
s 1
f 153/68/87 154/68/87 155/67/87 156/67/87 
s off
f 157/66/86 155/67/86 158/67/86 159/66/86 
s 1
f 160/65/85 161/65/85 162/66/85 157/66/85 
s 2
f 161/65/90 153/68/90 156/67/90 162/66/90 
f 162/66/90 156/67/90 163/70/90 164/69/90 
s 4
f 161/65/89 160/65/89 154/68/89 153/68/89 
s off
f 165/68/88 166/65/88 159/66/88 158/67/88 
s 1
f 160/65/85 157/66/85 159/66/85 166/65/85 
s 4
f 154/68/89 160/65/89 166/65/89 165/68/89 
s 1
f 155/67/87 154/68/87 165/68/87 158/67/87 
s 2
f 164/69/90 163/70/90 167/72/90 168/71/90 
s 1
f 157/66/85 162/66/85 164/69/85 169/69/85 
s off
f 155/67/88 157/66/88 169/69/88 170/70/88 
s 1
f 156/67/87 155/67/87 170/70/87 163/70/87 
s 4
f 167/72/91 171/72/91 172/71/91 168/71/91 
s 1
f 169/69/85 164/69/85 168/71/85 172/71/85 
f 171/72/87 170/70/87 173/70/87 174/72/87 
f 163/70/87 170/70/87 171/72/87 167/72/87 
s off
f 173/70/88 175/69/88 176/71/88 174/72/88 
s 1
f 169/69/85 172/71/85 176/71/85 175/69/85 
s 4
f 172/71/91 171/72/91 174/72/91 176/71/91 
s off
f 170/70/89 169/69/89 175/69/89 173/70/89 
f 177/81/87 178/82/87 179/83/87 180/84/87 
f 178/81/99 181/82/99 182/83/99 179/84/99 
f 181/81/100 183/82/100 184/83/100 182/84/100 
f 183/81/90 177/82/90 180/83/90 184/84/90 
f 180/81/86 179/82/86 182/83/86 184/84/86 
f 183/81/92 181/82/92 178/83/92 177/84/92 
f 185/81/101 186/82/101 187/83/101 188/84/101 
f 186/81/99 189/82/99 190/83/99 187/84/99 
f 189/81/85 191/82/85 192/83/85 190/84/85 
f 191/81/90 185/82/90 188/83/90 192/84/90 
f 188/81/86 187/82/86 190/83/86 192/84/86 
f 191/81/89 189/82/89 186/83/89 185/84/89 
f 193/85/89 194/86/89 195/87/89 196/88/89 
s 1
f 197/85/90 193/86/102 196/87/90 198/88/90 
s off
f 199/89/87 200/90/87 194/91/87 193/92/87 
s 1
f 194/85/103 201/86/103 202/87/88 195/88/88 
s off
f 196/85/104 195/86/104 202/87/104 198/88/104 
s 2
f 201/85/86 197/86/86 198/87/86 202/88/86 
s 1
f 193/93/102 197/94/90 203/95/90 204/96/102 
f 205/97/102 193/93/102 204/96/102 
s off
f 206/98/90 199/99/90 207/100/90 208/101/90 
f 206/98/105 208/101/105 209/102/105 210/103/105 
f 209/102/90 211/104/90 212/105/90 210/103/90 
f 206/98/90 210/103/90 213/106/90 214/107/90 
f 213/106/90 215/108/90 216/109/90 214/107/90 
f 206/98/105 214/107/105 217/110/105 218/111/105 
f 217/110/90 219/112/90 220/113/90 218/111/90 
f 206/98/90 218/111/90 221/114/90 222/115/90 
f 221/114/90 223/116/90 224/117/90 222/115/90 
f 206/98/102 222/115/102 225/118/102 226/119/102 
f 225/118/105 227/120/105 228/121/105 226/119/105 
f 229/122/106 230/123/106 231/124/106 232/125/106 
f 226/119/102 229/122/102 232/125/102 206/98/102 
f 206/98/90 232/125/90 233/126/90 234/127/90 
s 1
f 193/128/102 205/129/102 235/130/102 207/131/102 
f 236/132/90 237/133/90 238/134/102 239/135/90 
f 240/136/90 239/135/90 238/134/102 241/137/102 
f 241/137/102 238/134/102 242/138/102 207/131/102 
f 243/139/90 244/140/90 245/141/90 246/142/90 
f 247/143/102 246/142/90 245/141/90 248/144/106 
f 249/145/105 234/146/105 233/147/105 245/141/90 
f 245/141/90 233/147/105 248/144/106 
f 250/148/106 247/143/102 248/144/106 251/149/106 
f 252/150/90 251/149/106 248/144/106 207/131/102 
f 219/151/90 216/152/90 215/153/90 220/154/102 
f 212/155/102 211/156/105 207/131/102 215/153/90 
f 220/154/102 215/153/90 207/131/102 223/157/90 
f 224/158/102 223/157/90 207/131/102 227/159/106 
f 228/160/102 227/159/106 207/131/102 230/161/106 
f 231/162/102 230/161/106 207/131/102 248/144/106 
f 242/138/102 252/150/90 207/131/102 
f 253/163/90 241/137/102 207/131/102 254/164/90 
f 235/130/102 254/164/90 207/131/102 
f 193/128/102 207/131/102 199/165/90 
s off
f 200/104/87 199/109/87 255/111/87 256/118/87 
f 257/98/87 200/104/87 256/118/87 258/123/87 
f 206/98/87 257/104/87 258/109/87 259/111/87 
f 206/98/87 259/111/87 255/118/87 199/123/87 
s 1
f 260/166/99 261/167/88 262/152/88 263/151/88 
f 260/166/99 263/151/88 264/154/99 265/164/107 
f 266/161/99 267/142/88 268/143/99 269/160/88 
f 270/159/88 269/160/88 268/143/99 271/158/103 
f 272/157/99 271/158/103 268/143/99 264/154/99 
f 264/154/99 268/143/99 273/148/99 274/136/99 
f 275/138/103 276/134/103 277/133/103 278/150/103 
f 279/149/103 278/150/103 277/133/103 273/148/99 
f 273/148/99 277/133/103 280/132/99 281/135/99 
f 273/148/99 281/135/99 274/136/99 
f 264/154/99 274/136/99 282/137/88 283/163/103 
f 264/154/99 283/163/103 265/164/107 
f 260/166/99 265/164/107 284/130/107 285/129/103 
f 286/168/108 260/166/99 285/129/103 194/128/103 
s off
f 257/98/99 287/104/99 288/109/99 289/111/99 
f 257/98/88 289/111/88 290/118/88 200/123/88 
f 200/165/107 290/131/107 291/156/107 286/168/107 
f 292/145/88 293/141/88 294/140/88 295/139/88 
f 295/139/88 267/142/88 266/161/88 296/162/88 
f 292/145/99 295/139/99 296/162/99 297/144/99 
f 287/146/88 292/145/88 297/144/88 298/147/88 
f 299/169/107 262/152/107 261/167/107 298/147/107 
f 287/146/103 298/147/103 261/167/103 300/170/103 
f 288/171/107 287/146/107 300/170/107 291/156/107 
f 291/156/88 300/170/88 286/168/88 
f 194/128/88 200/165/88 286/168/88 
f 301/172/88 296/104/88 266/173/88 302/174/88 
f 298/175/109 301/172/109 302/174/109 303/176/109 
f 304/109/107 269/177/107 270/178/107 305/111/107 
f 302/174/88 304/109/88 305/111/88 306/179/88 
f 307/180/88 271/181/88 272/118/88 306/179/88 
f 305/111/110 307/180/110 306/179/110 
f 308/182/88 264/123/88 263/183/88 303/176/88 
f 306/179/111 308/182/111 303/176/111 302/174/111 
f 299/98/112 298/175/112 303/176/112 
s 1
f 194/97/103 285/93/103 309/94/103 310/95/99 
f 194/97/103 310/95/99 201/96/103 
s 2
f 197/97/86 201/184/86 310/185/113 311/186/114 
f 312/93/114 313/187/114 314/188/114 315/189/86 
f 316/94/86 317/190/86 318/191/86 319/192/114 
f 318/191/86 320/193/86 321/95/86 319/192/114 
f 315/189/86 316/94/86 319/192/114 312/93/114 
f 311/186/114 312/93/114 319/192/114 322/194/114 
f 322/194/114 323/195/86 324/96/114 325/196/86 
f 311/186/114 322/194/114 325/196/86 326/197/114 
f 197/97/86 311/186/114 326/197/114 203/198/113 
s off
f 204/85/115 203/86/115 326/87/115 327/88/115 
f 234/98/85 249/104/85 328/109/85 329/111/85 
f 234/98/85 329/111/85 330/118/85 287/123/85 
s 2
f 331/109/85 328/111/85 249/118/85 292/123/85 
f 330/104/85 331/109/85 292/123/85 287/98/85 
s off
f 332/199/90 333/200/90 206/201/90 234/202/90 
f 254/85/116 235/86/116 334/87/116 335/88/116 
f 253/85/117 254/86/117 335/87/117 336/88/117 
f 241/85/118 253/86/118 336/87/118 337/88/118 
f 240/85/119 241/86/119 337/87/119 338/88/119 
f 239/85/120 240/86/120 338/87/120 339/88/120 
f 236/85/121 239/86/121 339/87/121 340/88/121 
f 340/97/122 341/93/122 342/94/122 237/95/122 
f 340/97/122 237/95/122 236/96/122 
s 1
f 342/203/90 324/191/102 323/204/90 237/205/90 
f 237/205/90 323/204/90 343/206/102 238/97/102 
s off
f 252/85/116 242/86/116 344/87/116 345/88/116 
f 251/85/117 252/86/117 345/87/117 346/88/117 
f 250/85/118 251/86/118 346/87/118 347/88/118 
f 247/85/123 250/86/123 347/87/123 348/88/123 
f 246/85/120 247/86/120 348/87/120 349/88/120 
f 243/85/124 246/86/124 349/87/124 350/88/124 
s 1
f 245/97/90 244/93/90 351/94/90 321/95/90 
f 245/97/90 321/95/90 320/96/90 
s 2
f 292/207/85 249/208/85 245/209/85 293/210/85 
s off
f 333/199/125 352/200/125 257/201/125 206/202/125 
f 352/199/99 353/200/99 287/201/99 257/202/99 
s 1
f 293/93/103 318/94/103 317/95/88 354/96/88 
f 294/97/88 293/93/103 354/96/88 
s off
f 267/85/121 295/86/121 355/87/121 356/88/121 
f 268/85/120 267/86/120 356/87/120 357/88/120 
f 273/85/123 268/86/123 357/87/123 358/88/123 
f 279/85/118 273/86/118 358/87/118 359/88/118 
f 278/85/117 279/86/117 359/87/117 360/88/117 
f 275/85/116 278/86/116 360/87/116 361/88/116 
s 1
f 362/203/103 314/191/99 313/204/103 276/205/103 
f 276/205/103 313/204/103 363/206/99 277/97/103 
s off
f 280/97/122 277/93/122 363/94/122 364/95/122 
f 280/97/122 364/95/122 365/96/122 
f 281/85/121 280/86/121 365/87/121 366/88/121 
f 274/85/120 281/86/120 366/87/120 367/88/120 
f 282/85/123 274/86/123 367/87/123 368/88/123 
f 283/85/118 282/86/118 368/87/118 369/88/118 
f 265/85/117 283/86/117 369/87/117 370/88/117 
f 284/85/116 265/86/116 370/87/116 371/88/116 
f 285/97/126 284/93/126 371/94/126 372/95/126 
f 285/97/126 372/95/126 309/96/126 
f 311/85/115 310/86/115 309/87/115 372/88/115 
f 312/97/88 311/211/88 372/212/88 371/213/88 
f 312/97/99 371/213/99 370/214/99 369/215/99 
f 312/97/99 369/215/99 368/216/99 367/217/99 
f 312/97/88 367/217/88 366/218/88 365/219/88 
f 312/97/88 365/219/88 364/220/88 
f 363/85/127 313/86/127 312/87/127 364/88/127 
f 315/85/115 314/86/115 362/87/115 373/88/115 
f 316/97/88 315/211/88 373/212/88 361/213/88 
f 316/97/88 361/213/88 360/214/88 359/215/88 
f 316/97/88 359/215/88 358/216/88 357/217/88 
f 316/97/88 357/217/88 356/218/88 355/219/88 
f 316/97/88 355/219/88 374/220/88 
f 354/85/128 317/86/128 316/87/128 374/88/128 
s 2
f 320/85/86 318/86/86 375/87/86 376/88/86 
s off
f 377/85/128 319/86/128 321/87/128 351/88/128 
f 322/97/90 319/211/90 377/212/90 350/213/90 
f 322/97/90 350/213/90 349/214/90 348/215/90 
f 322/97/102 348/215/102 347/216/102 346/217/102 
f 322/97/90 346/217/90 345/218/90 344/219/90 
f 322/97/90 344/219/90 378/220/90 
f 343/85/129 323/86/129 322/87/129 378/88/129 
f 341/85/127 325/86/127 324/87/127 342/88/127 
f 326/97/90 325/211/90 341/212/90 340/213/90 
f 326/97/90 340/213/90 339/214/90 338/215/90 
f 326/97/90 338/215/90 337/216/90 336/217/90 
f 326/97/102 336/217/102 335/218/102 334/219/102 
f 326/97/105 334/219/105 327/220/105 
f 334/97/126 235/93/126 205/94/126 204/95/126 
f 334/97/126 204/95/126 327/96/126 
f 353/199/85 332/200/85 234/201/85 287/202/85 
f 332/221/92 353/222/92 352/223/92 333/224/92 
f 344/97/126 242/93/126 238/94/126 343/95/126 
f 344/97/130 343/95/130 378/96/130 
f 377/97/122 351/93/122 244/94/122 243/95/122 
f 377/97/131 243/95/131 350/96/131 
s 1
f 245/85/90 320/86/90 376/87/90 379/88/90 
s off
f 293/85/89 245/86/89 379/87/89 380/88/89 
s 1
f 318/85/103 293/86/103 380/87/103 375/88/99 
s off
f 355/97/131 295/93/131 294/94/131 354/95/131 
f 355/97/131 354/95/131 374/96/131 
f 362/97/126 276/93/126 275/94/126 361/95/126 
f 362/97/126 361/95/126 373/96/126 
f 380/85/100 379/86/100 376/87/100 375/88/100 
f 381/225/85 382/226/85 383/227/85 384/228/85 
f 329/199/88 328/200/88 382/201/88 381/202/88 
f 330/199/86 329/200/86 381/201/86 384/202/86 
f 331/199/90 330/200/90 384/201/90 383/202/90 
f 328/199/89 331/200/89 383/201/89 382/202/89 
f 232/199/132 231/200/132 385/201/132 386/202/132 
f 233/199/86 232/200/86 386/201/86 387/202/86 
f 386/229/102 385/230/102 388/231/102 387/232/102 
f 231/199/89 248/200/89 388/201/89 385/202/89 
f 248/199/87 233/200/87 387/201/87 388/202/87 
f 226/199/85 228/200/85 389/201/85 390/202/85 
f 229/199/86 226/200/86 390/201/86 391/202/86 
f 390/229/90 389/230/90 392/231/90 391/232/90 
f 228/199/133 230/200/133 392/201/133 389/202/133 
f 230/199/87 229/200/87 391/201/87 392/202/87 
f 222/199/132 224/200/132 393/201/132 394/202/132 
f 225/199/86 222/200/86 394/201/86 395/202/86 
f 394/229/102 393/230/102 396/233/102 395/234/102 
f 224/199/89 227/200/89 396/201/89 393/202/89 
f 227/199/87 225/200/87 395/201/87 396/202/87 
f 218/199/85 220/200/85 397/201/85 398/202/85 
f 221/199/86 218/200/86 398/201/86 399/202/86 
f 398/235/102 397/236/102 400/237/102 399/238/102 
f 220/199/89 223/200/89 400/201/89 397/202/89 
f 223/199/104 221/200/104 399/201/104 400/202/104 
f 214/199/85 216/200/85 401/201/85 402/202/85 
f 217/199/91 214/200/91 402/201/91 403/202/91 
f 402/239/90 401/240/90 404/241/90 403/242/90 
f 216/199/89 219/200/89 404/201/89 401/202/89 
f 219/199/87 217/200/87 403/201/87 404/202/87 
f 208/199/85 207/200/85 405/201/85 406/202/85 
f 209/199/86 208/200/86 406/201/86 407/202/86 
f 406/243/105 405/244/105 408/245/105 407/246/105 
f 207/199/134 211/200/134 408/201/134 405/202/134 
f 211/199/87 209/200/87 407/201/87 408/202/87 
f 210/199/85 212/200/85 409/201/85 410/202/85 
f 213/199/86 210/200/86 410/201/86 411/202/86 
f 410/247/90 409/248/90 412/249/90 411/242/90 
f 212/199/89 215/200/89 412/201/89 409/202/89 
f 215/199/87 213/200/87 411/201/87 412/202/87 
f 296/199/85 301/200/85 413/201/85 414/202/85 
f 297/199/89 296/200/89 414/201/89 415/202/89 
f 416/232/99 415/231/99 414/230/99 413/229/99 
f 301/199/86 298/200/86 416/201/86 413/202/86 
f 298/199/87 297/200/87 415/201/87 416/202/87 
f 269/199/132 304/200/132 417/201/132 418/202/132 
f 266/199/133 269/200/133 418/201/133 419/202/133 
f 420/232/103 419/231/103 418/230/103 417/229/103 
f 304/199/86 302/200/86 420/201/86 417/202/86 
f 302/199/87 266/200/87 419/201/87 420/202/87 
f 271/199/85 307/200/85 421/201/85 422/202/85 
f 270/199/89 271/200/89 422/201/89 423/202/89 
f 424/234/103 423/233/103 422/230/103 421/229/103 
f 307/199/86 305/200/86 424/201/86 421/202/86 
f 305/199/104 270/200/104 423/201/104 424/202/104 
f 264/199/85 308/200/85 425/201/85 426/202/85 
f 272/199/89 264/200/89 426/201/89 427/202/89 
f 428/238/99 427/237/99 426/236/99 425/235/99 
f 308/199/86 306/200/86 428/201/86 425/202/86 
f 306/199/87 272/200/87 427/201/87 428/202/87 
f 262/199/85 299/200/85 429/201/85 430/202/85 
f 263/199/89 262/200/89 430/201/89 431/202/89 
f 432/242/88 431/241/88 430/240/88 429/239/88 
f 299/199/91 303/200/91 432/201/91 429/202/91 
f 303/199/87 263/200/87 431/201/87 432/202/87 
f 290/199/85 289/200/85 433/201/85 434/202/85 
f 291/199/135 290/200/135 434/201/135 435/202/135 
f 436/246/88 435/245/88 434/244/88 433/243/88 
f 289/199/86 288/200/86 436/201/86 433/202/86 
f 288/199/87 291/200/87 435/201/87 436/202/87 
f 286/250/85 300/251/85 437/252/85 438/253/85 
f 260/250/133 286/251/133 438/252/133 439/253/133 
f 440/254/99 439/255/99 438/256/99 437/257/99 
f 300/199/86 261/200/86 440/201/86 437/202/86 
f 261/250/87 260/251/87 439/252/87 440/253/87 
f 258/199/90 256/200/90 441/201/90 442/202/90 
f 259/199/86 258/200/86 442/201/86 443/202/86 
f 442/225/87 441/226/87 444/227/87 443/228/87 
f 256/199/89 255/200/89 444/201/89 441/202/89 
f 255/199/88 259/200/88 443/201/88 444/202/88 
# 305 polygons - 26 triangles

