# 3ds Max Wavefront OBJ Exporter v0.97b - (c)2007 guruware
# File Created: 15.03.2017 11:52:41

mtllib SPW_Vehicle_Land_Taxi.mtl

#
# object RR
#

v  -49.2382 37.2012 -74.8468
v  -33.7727 37.2012 -74.8468
v  -33.7727 34.6958 -84.1972
v  -49.2382 34.6958 -84.1972
v  -33.7727 27.8508 -91.0422
v  -49.2382 27.8508 -91.0422
v  -33.7727 18.5004 -93.5476
v  -49.2382 18.5004 -93.5476
v  -33.7727 9.1500 -91.0422
v  -49.2382 9.1500 -91.0422
v  -33.7727 2.3051 -84.1972
v  -49.2382 2.3051 -84.1972
v  -33.7726 -0.2004 -74.8468
v  -49.2382 -0.2004 -74.8468
v  -33.7726 2.3051 -65.4964
v  -49.2382 2.3051 -65.4964
v  -33.7726 9.1500 -58.6515
v  -49.2382 9.1500 -58.6515
v  -33.7726 18.5004 -56.1460
v  -49.2382 18.5004 -56.1460
v  -33.7726 27.8508 -58.6514
v  -49.2382 27.8508 -58.6514
v  -33.7727 34.6958 -65.4964
v  -49.2382 34.6958 -65.4964
# 24 vertices

vn 0.0000 0.9659 -0.2588
vn 0.0000 0.7071 -0.7071
vn 0.0000 0.2588 -0.9659
vn -0.0000 -0.2588 -0.9659
vn -0.0000 -0.7071 -0.7071
vn -0.0000 -0.9659 -0.2588
vn -0.0000 -0.9659 0.2588
vn -0.0000 -0.7071 0.7071
vn -0.0000 -0.2588 0.9659
vn 0.0000 0.2588 0.9659
vn 1.0000 0.0000 -0.0000
vn 1.0000 0.0000 0.0000
vn 0.0000 0.9659 0.2588
vn 0.0000 0.7071 0.7071
vn -1.0000 -0.0000 0.0000
vn -1.0000 -0.0000 -0.0000
# 16 vertex normals

vt 0.1409 0.2053 0.0000
vt 0.1828 0.1940 0.0000
vt 0.2135 0.1634 0.0000
vt 0.2247 0.1215 0.0000
vt 0.2135 0.0796 0.0000
vt 0.1828 0.0489 0.0000
vt 0.1409 0.0377 0.0000
vt 0.0991 0.0489 0.0000
vt 0.0684 0.0796 0.0000
vt 0.0572 0.1215 0.0000
vt 0.0684 0.1634 0.0000
vt 0.0991 0.1940 0.0000
# 12 texture coords

g RR
usemtl SPW_Vehicle_Land_Taxi
s off
f 1/1/1 2/1/1 3/2/1 4/2/1 
f 4/2/2 3/2/2 5/3/2 6/3/2 
f 6/3/3 5/3/3 7/4/3 8/4/3 
f 8/4/4 7/4/4 9/5/4 10/5/4 
f 10/5/5 9/5/5 11/6/5 12/6/5 
f 12/6/6 11/6/6 13/7/6 14/7/6 
f 14/7/7 13/7/7 15/8/7 16/8/7 
f 16/8/8 15/8/8 17/9/8 18/9/8 
f 18/9/9 17/9/9 19/10/9 20/10/9 
f 20/10/10 19/10/10 21/11/10 22/11/10 
f 3/2/11 2/1/11 23/12/11 21/11/11 
f 3/2/11 21/11/11 19/10/11 17/9/11 
f 3/2/11 17/9/11 15/8/11 13/7/11 
f 3/2/11 13/7/11 11/6/11 9/5/11 
f 3/2/12 9/5/12 7/4/12 5/3/12 
f 24/12/13 23/12/13 2/1/13 1/1/13 
f 22/11/14 21/11/14 23/12/14 24/12/14 
f 1/1/15 4/2/15 6/3/15 8/4/15 
f 1/1/16 8/4/16 10/5/16 12/6/16 
f 1/1/15 12/6/15 14/7/15 16/8/15 
f 1/1/15 16/8/15 18/9/15 20/10/15 
f 1/1/16 20/10/16 22/11/16 24/12/16 
# 22 polygons

#
# object FR
#

v  -49.2382 37.2012 73.1515
v  -33.7727 37.2012 73.1515
v  -33.7727 34.6958 63.8011
v  -49.2382 34.6958 63.8011
v  -33.7726 27.8508 56.9562
v  -49.2382 27.8508 56.9562
v  -33.7726 18.5004 54.4507
v  -49.2382 18.5004 54.4507
v  -33.7726 9.1500 56.9561
v  -49.2382 9.1500 56.9561
v  -33.7726 2.3051 63.8011
v  -49.2382 2.3051 63.8011
v  -33.7726 -0.2004 73.1515
v  -49.2382 -0.2004 73.1515
v  -33.7726 2.3051 82.5019
v  -49.2382 2.3051 82.5019
v  -33.7726 9.1500 89.3469
v  -49.2382 9.1500 89.3469
v  -33.7726 18.5004 91.8523
v  -49.2382 18.5004 91.8523
v  -33.7726 27.8508 89.3469
v  -49.2382 27.8508 89.3469
v  -33.7727 34.6958 82.5019
v  -49.2382 34.6958 82.5019
# 24 vertices

vn 0.0000 0.9659 -0.2588
vn 0.0000 0.7071 -0.7071
vn 0.0000 0.2588 -0.9659
vn -0.0000 -0.2588 -0.9659
vn 0.0000 -0.7071 -0.7071
vn -0.0000 -0.9659 -0.2588
vn -0.0000 -0.9659 0.2588
vn -0.0000 -0.7071 0.7071
vn -0.0000 -0.2588 0.9659
vn 0.0000 0.2588 0.9659
vn 1.0000 0.0000 -0.0000
vn 1.0000 -0.0000 0.0000
vn -0.0000 0.9659 0.2588
vn 0.0000 0.7071 0.7071
vn -1.0000 -0.0000 0.0000
vn -1.0000 -0.0000 -0.0000
# 16 vertex normals

vt 0.1409 0.2053 0.0000
vt 0.1828 0.1940 0.0000
vt 0.2135 0.1634 0.0000
vt 0.2247 0.1215 0.0000
vt 0.2135 0.0796 0.0000
vt 0.1828 0.0489 0.0000
vt 0.1409 0.0377 0.0000
vt 0.0991 0.0489 0.0000
vt 0.0684 0.0796 0.0000
vt 0.0572 0.1215 0.0000
vt 0.0684 0.1634 0.0000
vt 0.0991 0.1940 0.0000
# 12 texture coords

g FR
usemtl SPW_Vehicle_Land_Taxi
s off
f 25/13/17 26/13/17 27/14/17 28/14/17 
f 28/14/18 27/14/18 29/15/18 30/15/18 
f 30/15/19 29/15/19 31/16/19 32/16/19 
f 32/16/20 31/16/20 33/17/20 34/17/20 
f 34/17/21 33/17/21 35/18/21 36/18/21 
f 36/18/22 35/18/22 37/19/22 38/19/22 
f 38/19/23 37/19/23 39/20/23 40/20/23 
f 40/20/24 39/20/24 41/21/24 42/21/24 
f 42/21/25 41/21/25 43/22/25 44/22/25 
f 44/22/26 43/22/26 45/23/26 46/23/26 
f 27/14/27 26/13/27 47/24/27 45/23/27 
f 27/14/27 45/23/27 43/22/27 41/21/27 
f 27/14/27 41/21/27 39/20/27 37/19/27 
f 27/14/27 37/19/27 35/18/27 33/17/27 
f 27/14/28 33/17/28 31/16/28 29/15/28 
f 48/24/29 47/24/29 26/13/29 25/13/29 
f 46/23/30 45/23/30 47/24/30 48/24/30 
f 25/13/31 28/14/31 30/15/31 32/16/31 
f 25/13/32 32/16/32 34/17/32 36/18/32 
f 25/13/32 36/18/32 38/19/32 40/20/32 
f 25/13/31 40/20/31 42/21/31 44/22/31 
f 25/13/31 44/22/31 46/23/31 48/24/31 
# 22 polygons

#
# object RL
#

v  33.7725 37.2012 -74.8468
v  49.2381 37.2012 -74.8468
v  49.2381 34.6958 -84.1972
v  33.7725 34.6958 -84.1972
v  49.2381 27.8508 -91.0422
v  33.7725 27.8508 -91.0422
v  49.2381 18.5004 -93.5476
v  33.7725 18.5004 -93.5476
v  49.2381 9.1500 -91.0422
v  33.7725 9.1500 -91.0422
v  49.2381 2.3051 -84.1972
v  33.7725 2.3051 -84.1972
v  49.2381 -0.2004 -74.8468
v  33.7725 -0.2004 -74.8468
v  49.2381 2.3051 -65.4964
v  33.7725 2.3051 -65.4964
v  49.2381 9.1500 -58.6514
v  33.7725 9.1500 -58.6514
v  49.2381 18.5004 -56.1460
v  33.7725 18.5004 -56.1460
v  49.2381 27.8508 -58.6514
v  33.7725 27.8508 -58.6514
v  49.2381 34.6958 -65.4964
v  33.7725 34.6958 -65.4964
# 24 vertices

vn 0.0000 0.9659 -0.2588
vn 0.0000 0.7071 -0.7071
vn 0.0000 0.2588 -0.9659
vn -0.0000 -0.2588 -0.9659
vn -0.0000 -0.7071 -0.7071
vn -0.0000 -0.9659 -0.2588
vn -0.0000 -0.9659 0.2588
vn -0.0000 -0.7071 0.7071
vn -0.0000 -0.2588 0.9659
vn -0.0000 0.2588 0.9659
vn 1.0000 0.0000 0.0000
vn 1.0000 0.0000 -0.0000
vn 1.0000 -0.0000 0.0000
vn 0.0000 0.9659 0.2588
vn -0.0000 0.7071 0.7071
vn -1.0000 -0.0000 0.0000
vn -1.0000 -0.0000 -0.0000
# 17 vertex normals

vt 0.1409 0.2053 0.0000
vt 0.1828 0.1940 0.0000
vt 0.2135 0.1634 0.0000
vt 0.2247 0.1215 0.0000
vt 0.2135 0.0796 0.0000
vt 0.1828 0.0489 0.0000
vt 0.1409 0.0377 0.0000
vt 0.0991 0.0489 0.0000
vt 0.0684 0.0796 0.0000
vt 0.0572 0.1215 0.0000
vt 0.0684 0.1634 0.0000
vt 0.0991 0.1940 0.0000
# 12 texture coords

g RL
usemtl SPW_Vehicle_Land_Taxi
s off
f 49/25/33 50/25/33 51/26/33 52/26/33 
f 52/26/34 51/26/34 53/27/34 54/27/34 
f 54/27/35 53/27/35 55/28/35 56/28/35 
f 56/28/36 55/28/36 57/29/36 58/29/36 
f 58/29/37 57/29/37 59/30/37 60/30/37 
f 60/30/38 59/30/38 61/31/38 62/31/38 
f 62/31/39 61/31/39 63/32/39 64/32/39 
f 64/32/40 63/32/40 65/33/40 66/33/40 
f 66/33/41 65/33/41 67/34/41 68/34/41 
f 68/34/42 67/34/42 69/35/42 70/35/42 
f 51/26/43 50/25/43 71/36/43 69/35/43 
f 51/26/44 69/35/44 67/34/44 65/33/44 
f 51/26/44 65/33/44 63/32/44 61/31/44 
f 51/26/43 61/31/43 59/30/43 57/29/43 
f 51/26/45 57/29/45 55/28/45 53/27/45 
f 72/36/46 71/36/46 50/25/46 49/25/46 
f 70/35/47 69/35/47 71/36/47 72/36/47 
f 49/25/48 52/26/48 54/27/48 56/28/48 
f 49/25/48 56/28/48 58/29/48 60/30/48 
f 49/25/48 60/30/48 62/31/48 64/32/48 
f 49/25/48 64/32/48 66/33/48 68/34/48 
f 49/25/49 68/34/49 70/35/49 72/36/49 
# 22 polygons

#
# object FL
#

v  33.7725 37.2012 73.1515
v  49.2381 37.2012 73.1515
v  49.2381 34.6958 63.8011
v  33.7725 34.6958 63.8011
v  49.2381 27.8508 56.9562
v  33.7725 27.8508 56.9562
v  49.2381 18.5004 54.4507
v  33.7725 18.5004 54.4507
v  49.2381 9.1500 56.9562
v  33.7725 9.1500 56.9562
v  49.2381 2.3051 63.8011
v  33.7725 2.3051 63.8011
v  49.2381 -0.2004 73.1515
v  33.7725 -0.2004 73.1515
v  49.2381 2.3051 82.5019
v  33.7725 2.3051 82.5019
v  49.2381 9.1500 89.3469
v  33.7725 9.1500 89.3469
v  49.2381 18.5004 91.8523
v  33.7725 18.5004 91.8523
v  49.2381 27.8508 89.3469
v  33.7725 27.8508 89.3469
v  49.2381 34.6958 82.5019
v  33.7725 34.6958 82.5019
# 24 vertices

vn 0.0000 0.9659 -0.2588
vn 0.0000 0.7071 -0.7071
vn 0.0000 0.2588 -0.9659
vn -0.0000 -0.2588 -0.9659
vn -0.0000 -0.7071 -0.7071
vn -0.0000 -0.9659 -0.2588
vn -0.0000 -0.9659 0.2588
vn -0.0000 -0.7071 0.7071
vn -0.0000 -0.2588 0.9659
vn 0.0000 0.2588 0.9659
vn 1.0000 0.0000 0.0000
vn 1.0000 0.0000 -0.0000
vn 1.0000 -0.0000 0.0000
vn 0.0000 0.9659 0.2588
vn 0.0000 0.7071 0.7071
vn -1.0000 -0.0000 0.0000
vn -1.0000 -0.0000 -0.0000
# 17 vertex normals

vt 0.1409 0.2053 0.0000
vt 0.1828 0.1940 0.0000
vt 0.2135 0.1634 0.0000
vt 0.2247 0.1215 0.0000
vt 0.2135 0.0796 0.0000
vt 0.1828 0.0489 0.0000
vt 0.1409 0.0377 0.0000
vt 0.0991 0.0489 0.0000
vt 0.0684 0.0796 0.0000
vt 0.0572 0.1215 0.0000
vt 0.0684 0.1634 0.0000
vt 0.0991 0.1940 0.0000
# 12 texture coords

g FL
usemtl SPW_Vehicle_Land_Taxi
s off
f 73/37/50 74/37/50 75/38/50 76/38/50 
f 76/38/51 75/38/51 77/39/51 78/39/51 
f 78/39/52 77/39/52 79/40/52 80/40/52 
f 80/40/53 79/40/53 81/41/53 82/41/53 
f 82/41/54 81/41/54 83/42/54 84/42/54 
f 84/42/55 83/42/55 85/43/55 86/43/55 
f 86/43/56 85/43/56 87/44/56 88/44/56 
f 88/44/57 87/44/57 89/45/57 90/45/57 
f 90/45/58 89/45/58 91/46/58 92/46/58 
f 92/46/59 91/46/59 93/47/59 94/47/59 
f 75/38/60 74/37/60 95/48/60 93/47/60 
f 75/38/61 93/47/61 91/46/61 89/45/61 
f 75/38/61 89/45/61 87/44/61 85/43/61 
f 75/38/60 85/43/60 83/42/60 81/41/60 
f 75/38/62 81/41/62 79/40/62 77/39/62 
f 96/48/63 95/48/63 74/37/63 73/37/63 
f 94/47/64 93/47/64 95/48/64 96/48/64 
f 73/37/65 76/38/65 78/39/65 80/40/65 
f 73/37/65 80/40/65 82/41/65 84/42/65 
f 73/37/65 84/42/65 86/43/65 88/44/65 
f 73/37/65 88/44/65 90/45/65 92/46/65 
f 73/37/66 92/46/66 94/47/66 96/48/66 
# 22 polygons

#
# object Body
#

v  49.4149 28.4904 -57.3294
v  49.4149 35.8036 -64.6426
v  49.4149 37.5340 -63.6435
v  49.4149 29.4894 -55.5990
v  49.4149 38.4805 -74.6326
v  49.4149 35.8036 -84.6226
v  49.4149 37.5340 -85.6216
v  49.4149 40.4785 -74.6326
v  -49.4149 38.4805 -74.6326
v  -49.4149 35.8036 -64.6425
v  -49.4149 37.5340 -63.6435
v  -49.4149 40.4785 -74.6326
v  49.4149 28.4904 -91.9358
v  49.4149 29.4894 -93.6661
v  -49.4149 18.5004 -94.6126
v  -49.4149 28.4905 -91.9358
v  -49.4149 29.4895 -93.6661
v  -49.4149 18.5004 -96.6106
v  49.4149 18.5004 -54.6525
v  49.4149 18.5004 -52.6545
v  -49.4149 28.4904 -57.3293
v  -49.4149 29.4894 -55.5990
v  -49.4149 37.5340 -85.6216
v  49.4149 18.5004 -96.6106
v  -49.4149 18.5004 -52.6545
v  49.4149 18.5004 -94.6126
v  -49.4149 18.5004 -54.6525
v  -49.4149 35.8037 -84.6226
v  49.4149 28.4904 90.5976
v  49.4149 35.8036 83.2844
v  49.4149 37.5339 84.2834
v  49.4149 29.4894 92.3279
v  49.4149 38.4804 73.2944
v  49.4149 35.8036 63.3043
v  49.4149 37.5339 62.3053
v  49.4149 40.4784 73.2944
v  -49.4149 38.4805 73.2944
v  -49.4149 35.8036 83.2844
v  -49.4149 37.5340 84.2834
v  -49.4149 40.4785 73.2944
v  49.4149 28.4904 55.9911
v  49.4149 29.4894 54.2608
v  -49.4149 18.5004 53.3143
v  -49.4149 28.4904 55.9911
v  -49.4149 29.4894 54.2608
v  -49.4149 18.5004 51.3163
v  49.4149 18.5004 93.2744
v  49.4149 18.5004 95.2724
v  -49.4149 28.4904 90.5976
v  -49.4149 29.4894 92.3279
v  -49.4149 37.5340 62.3053
v  49.4149 18.5004 51.3163
v  -49.4149 18.5004 95.2724
v  49.4149 18.5004 53.3143
v  -49.4149 18.5004 93.2744
v  -49.4149 35.8036 63.3043
v  53.7343 61.1114 44.7269
v  48.2288 58.6281 46.2021
v  48.6960 57.5180 46.0770
v  54.2015 60.0013 44.6017
v  47.9154 58.6281 45.0325
v  48.3826 57.5180 44.9073
v  53.4209 61.1114 43.5573
v  53.8881 60.0013 43.4321
v  59.8513 62.8645 43.1769
v  51.8184 62.8645 45.3293
v  51.8184 58.1475 45.3293
v  59.8513 59.0698 43.1769
v  50.7494 63.5943 44.2104
v  50.7494 57.4176 44.2104
v  60.2176 63.5943 41.6734
v  60.2176 58.3399 41.6734
v  -51.7890 62.8645 45.4212
v  -59.8218 62.8645 43.2688
v  -59.8218 58.9388 43.2688
v  -51.7890 58.1492 45.4212
v  -60.1882 63.5943 41.7653
v  -60.1882 58.2090 41.7653
v  -50.7199 63.5943 44.3023
v  -50.7199 57.4194 44.3023
v  -53.7345 61.1114 43.5573
v  -48.2290 58.6281 45.0325
v  -48.6961 57.5180 44.9073
v  -54.2016 60.0013 43.4322
v  -48.5424 58.6281 46.2021
v  -49.0095 57.5180 46.0770
v  -54.0479 61.1114 44.7269
v  -54.5150 60.0013 44.6018
v  16.8491 41.0338 124.9502
v  14.6470 41.0338 124.9502
v  14.6470 18.3344 124.9502
v  16.8491 18.3344 124.9502
v  14.6470 41.0338 119.3624
v  14.6470 18.3344 119.3624
v  16.8491 41.0338 119.3624
v  16.8491 18.3344 119.3624
v  16.8491 44.3552 119.3624
v  16.8491 44.3552 122.1065
v  14.6470 44.3552 119.3624
v  14.6470 44.3552 122.1065
v  -14.6470 41.0338 124.9502
v  -16.8491 41.0338 124.9502
v  -16.8491 18.3344 124.9502
v  -14.6470 18.3344 124.9502
v  -16.8491 41.0338 119.3624
v  -16.8491 18.3344 119.3624
v  -14.6470 41.0338 119.3624
v  -14.6470 18.3344 119.3624
v  -14.6470 44.3552 119.3624
v  -14.6470 44.3552 122.1065
v  -16.8491 44.3552 119.3624
v  -16.8491 44.3552 122.1065
v  15.3492 21.1606 122.4723
v  -15.3492 21.1606 122.4723
v  -15.3492 19.3285 122.4723
v  15.3492 19.3285 122.4723
v  -15.3492 21.1606 120.6402
v  -15.3492 19.3285 120.6402
v  15.3492 21.1606 120.6402
v  15.3492 19.3285 120.6402
v  15.3492 38.1522 122.4723
v  -15.3492 38.1522 122.4723
v  -15.3492 36.3201 122.4723
v  15.3492 36.3201 122.4723
v  -15.3492 38.1522 120.6402
v  -15.3492 36.3201 120.6402
v  15.3492 38.1522 120.6402
v  15.3492 36.3201 120.6402
v  -13.4729 88.6011 12.7285
v  13.4729 88.6011 12.7285
v  11.8143 88.6038 12.5584
v  -11.8144 88.6038 12.5584
v  -13.4729 98.5488 10.5975
v  -13.4729 98.5488 7.8252
v  -13.4729 88.6011 5.6930
v  13.4729 88.6011 5.6930
v  -11.8176 88.6124 5.8677
v  11.8176 88.6124 5.8677
v  13.4729 98.5488 7.8252
v  13.4729 98.5488 10.5975
v  11.8143 96.9059 10.9405
v  -11.8144 96.9059 10.9405
v  -11.8176 96.8974 7.4837
v  11.8176 96.8974 7.4837
v  -49.2126 51.5713 -85.2788
v  -49.2126 51.5713 -123.7618
v  -49.2126 22.3774 -126.0261
v  -49.2126 18.5004 -102.1275
v  -49.2126 18.4932 -94.7336
v  -49.2126 28.5325 -92.0436
v  -49.2126 35.8819 -84.6942
v  -49.2126 38.5719 -74.6549
v  -49.2126 51.5713 98.9749
v  -49.2126 35.8924 63.2762
v  -49.2126 28.5325 -57.2662
v  -49.2126 18.4932 -54.5761
v  -49.2126 18.5037 53.2368
v  -49.2126 35.8819 -64.6155
v  -49.2126 28.5430 55.9269
v  -49.2126 38.5824 73.3156
v  -49.2126 35.8924 83.3550
v  -49.2126 28.5430 90.7043
v  -49.2126 18.5037 93.3943
v  -49.2126 18.5004 98.9749
v  -49.2126 89.3666 -57.7178
v  -49.2126 60.6155 -66.2515
v  -49.2126 87.8497 -51.8546
v  -49.2126 89.3666 22.6393
v  -49.2126 87.8497 -22.2649
v  -49.2126 87.8497 -16.1908
v  -49.2126 87.8497 21.5073
v  -49.2126 59.8390 48.5814
v  -49.2126 60.6154 45.4161
v  -49.2126 60.6154 -16.1908
v  -49.2126 60.6155 -22.2649
v  -49.2126 59.8390 -84.7470
v  -49.2126 58.5069 -123.7618
v  -49.2126 53.7321 119.4475
v  -49.2126 51.5713 119.4475
v  49.2126 51.5713 -123.7618
v  49.2126 22.3774 -126.0261
v  49.2126 18.5004 -102.1275
v  -49.2126 22.3773 119.4475
v  49.2126 18.4932 -94.7336
v  29.0345 18.4932 -94.7336
v  29.0345 18.4932 -54.5761
v  49.2126 18.4932 -54.5761
v  49.2126 18.5037 53.2368
v  29.0345 18.5037 53.2368
v  29.0345 18.5037 93.3943
v  49.2126 18.5037 93.3943
v  49.2126 18.5004 98.9750
v  -29.0347 18.5037 93.3943
v  -29.0347 18.5037 53.2368
v  -29.0347 18.4932 -54.5761
v  -29.0347 18.4932 -94.7336
v  -29.0347 28.5325 -92.0436
v  -29.0347 35.8819 -84.6942
v  -29.0347 38.5719 -74.6549
v  -29.0347 35.8819 -64.6155
v  -29.0347 28.5325 -57.2662
v  -29.0347 28.5430 55.9269
v  -29.0347 35.8924 63.2762
v  -29.0347 38.5824 73.3156
v  -29.0347 35.8924 83.3550
v  -29.0347 28.5430 90.7043
v  49.2126 59.8390 -84.7470
v  49.2126 58.5069 -123.7618
v  49.2126 51.5713 119.4476
v  49.2126 53.7321 119.4476
v  49.2126 59.8390 48.5814
v  49.2126 89.3666 22.6393
v  -46.7357 87.8828 23.9428
v  46.7356 87.8828 23.9428
v  46.7356 60.4993 48.0013
v  -46.7357 60.4993 48.0013
v  49.2126 89.3666 -57.7178
v  -46.7357 87.8848 -59.0741
v  -46.7357 60.4993 -84.1425
v  46.7356 60.4993 -84.1425
v  46.7356 87.8848 -59.0741
v  49.2126 51.5713 -85.2788
v  49.2126 22.3773 119.4476
v  49.2126 51.5713 98.9749
v  49.2126 28.5430 90.7043
v  49.2126 35.8924 83.3550
v  49.2126 38.5824 73.3156
v  49.2126 35.8819 -64.6155
v  49.2126 28.5430 55.9269
v  49.2126 35.8924 63.2762
v  49.2126 28.5325 -57.2662
v  49.2126 38.5719 -74.6549
v  49.2126 35.8819 -84.6942
v  49.2126 28.5325 -92.0436
v  29.0345 28.5325 -92.0436
v  29.0345 35.8819 -84.6942
v  29.0345 38.5719 -74.6549
v  29.0345 35.8819 -64.6155
v  29.0345 28.5325 -57.2662
v  29.0345 28.5430 55.9269
v  29.0345 35.8924 63.2762
v  29.0345 38.5824 73.3156
v  29.0345 35.8923 83.3550
v  29.0345 28.5430 90.7043
v  49.2126 60.6154 -16.1908
v  49.2126 60.6154 -22.2649
v  49.2126 87.8497 -51.8546
v  49.2126 60.6154 -66.2516
v  49.2126 87.8497 -22.2649
v  49.2126 87.8497 -16.1908
v  49.2126 60.6154 45.4161
v  49.2126 87.8497 21.5073
v  46.7356 60.4993 -83.3774
v  46.7356 87.9289 -58.4407
v  -46.7357 87.9289 -58.4407
v  -46.7357 60.4993 -83.3774
v  -46.7357 60.4993 47.3525
v  -46.7357 87.9288 23.2927
v  46.7356 87.9288 23.2927
v  46.7356 60.4993 47.3525
v  -48.7972 60.6155 -66.2515
v  -48.7972 87.8497 -51.8546
v  -48.7972 87.8497 -22.2649
v  -48.7972 60.6155 -22.2649
v  -48.7972 87.8497 21.5073
v  -48.7972 60.6154 45.4161
v  -48.7972 60.6154 -16.1908
v  -48.7972 87.8497 -16.1908
v  48.7860 87.8497 -51.8546
v  48.7860 60.6154 -66.2516
v  48.7859 60.6154 -22.2649
v  48.7859 87.8497 -22.2649
v  48.7860 60.6154 45.4161
v  48.7860 87.8497 21.5073
v  48.7860 87.8497 -16.1908
v  48.7860 60.6154 -16.1908
v  49.6728 52.8541 -2.9749
v  46.2356 52.8541 -2.9749
v  46.2356 51.0191 -2.9749
v  49.6728 51.0191 -2.9749
v  46.2356 52.8541 -11.7516
v  46.2356 51.0191 -11.7516
v  49.6728 52.8541 -11.7516
v  49.6728 51.0191 -11.7516
v  -46.2357 52.8541 -2.9749
v  -49.6730 52.8541 -2.9749
v  -49.6730 51.0191 -2.9749
v  -46.2357 51.0191 -2.9749
v  -49.6730 52.8541 -11.7516
v  -49.6730 51.0191 -11.7516
v  -46.2357 52.8541 -11.7516
v  -46.2357 51.0191 -11.7516
v  -46.2357 52.8541 -53.5382
v  -49.6730 52.8541 -53.5382
v  -49.6730 51.0191 -53.5382
v  -46.2357 51.0191 -53.5382
v  -49.6730 52.8541 -62.3149
v  -49.6730 51.0191 -62.3149
v  -46.2357 52.8541 -62.3149
v  -46.2357 51.0191 -62.3149
v  49.6728 52.8541 -53.5381
v  46.2356 52.8541 -53.5381
v  46.2356 51.0191 -53.5381
v  49.6728 51.0191 -53.5381
v  46.2356 52.8541 -62.3148
v  46.2356 51.0191 -62.3148
v  49.6728 52.8541 -62.3148
v  49.6728 51.0191 -62.3148
v  51.9799 31.8885 122.4181
v  -51.9799 31.8885 122.4181
v  -51.9799 29.6125 122.4181
v  51.9799 29.6125 122.4181
v  -51.9799 31.8885 110.3928
v  -51.9799 29.6125 110.3928
v  51.9799 31.8885 110.3928
v  51.9799 29.6125 110.3928
v  51.4538 29.7924 -116.7939
v  -51.4539 29.7924 -116.7939
v  -51.4539 21.9493 -116.7939
v  51.4538 21.9493 -116.7939
v  -51.4539 29.7924 -128.2478
v  -51.4539 21.9493 -128.2478
v  51.4538 29.7924 -128.2478
v  51.4538 21.9493 -128.2478
v  51.4539 29.7924 121.8367
v  -51.4539 29.7924 121.8367
v  -51.4539 21.9492 121.8367
v  51.4539 21.9492 121.8367
v  -51.4539 29.7924 110.3828
v  -51.4539 21.9492 110.3828
v  51.4539 29.7924 110.3828
v  51.4539 21.9492 110.3828
v  50.0162 21.2931 50.9108
v  45.7366 21.2930 50.9108
v  45.7366 17.0135 50.9108
v  50.0162 17.0135 50.9108
v  45.7366 21.2931 -52.5092
v  45.7366 17.0135 -52.5092
v  50.0162 21.2931 -52.5092
v  50.0162 17.0135 -52.5092
v  -45.7366 21.2930 50.9108
v  -50.0162 21.2930 50.9108
v  -50.0162 17.0135 50.9108
v  -45.7366 17.0135 50.9108
v  -50.0162 21.2931 -52.5092
v  -50.0162 17.0135 -52.5092
v  -45.7366 21.2931 -52.5092
v  -45.7366 17.0135 -52.5092
# 348 vertices

vn 1.0000 -0.0000 0.0000
vn 1.0000 -0.0000 -0.0000
vn 1.0000 0.0000 -0.0000
vn -1.0000 -0.0000 0.0000
vn -1.0000 0.0000 -0.0000
vn -1.0000 0.0000 0.0000
vn 0.0000 0.9659 -0.2588
vn 0.0000 0.7071 -0.7071
vn -0.0000 0.2588 -0.9659
vn 0.0000 0.2588 0.9659
vn 0.0000 0.9659 0.2588
vn 0.0000 0.7071 0.7071
vn -0.0000 -1.0000 -0.0000
vn -0.0000 -0.2588 0.9659
vn -0.0000 -0.7071 0.7071
vn -0.0000 -0.9659 0.2588
vn -0.0000 -0.9659 -0.2588
vn -0.0000 -0.7071 -0.7071
vn -0.0000 -0.2588 -0.9659
vn 0.0000 0.2588 -0.9659
vn -0.0000 0.2588 0.9659
vn 0.0000 -0.2588 -0.9659
vn 0.2588 -0.0000 0.9659
vn -0.8855 -0.3994 0.2373
vn -0.2588 0.0000 -0.9659
vn 0.8855 0.3994 -0.2373
vn 0.3858 -0.9168 -0.1034
vn -0.3858 0.9168 0.1034
vn -0.7230 -0.0000 0.6908
vn 0.9716 -0.0000 0.2367
vn 0.2083 -0.8773 0.4325
vn 0.1226 0.8808 0.4574
vn -0.2588 -0.0000 0.9659
vn -0.9716 -0.0000 0.2367
vn 0.2588 0.0000 -0.9659
vn 0.7230 -0.0000 0.6908
vn -0.1961 -0.8782 0.4363
vn -0.1226 0.8808 0.4574
vn 0.2588 -0.0000 -0.9659
vn 0.8855 -0.3994 0.2373
vn -0.8855 0.3994 -0.2373
vn -0.3858 -0.9168 -0.1034
vn 0.3858 0.9168 0.1034
vn 0.0000 -0.0000 1.0000
vn -1.0000 -0.0000 -0.0000
vn -0.0000 -0.0000 -1.0000
vn 1.0000 0.0000 0.0000
vn 0.0000 -1.0000 -0.0000
vn 0.0000 1.0000 0.0000
vn 0.0000 0.6504 0.7596
vn -0.0000 0.0000 1.0000
vn 0.0000 0.0000 -1.0000
vn 0.0000 1.0000 -0.0000
vn 0.0000 -1.0000 0.0000
vn -0.0000 1.0000 -0.0000
vn 0.0000 0.9999 0.0159
vn -0.0000 0.9979 -0.0644
vn 0.0000 0.1913 0.9815
vn 0.0484 0.2010 0.9784
vn 0.0000 0.2043 0.9789
vn -0.0484 0.2010 0.9784
vn -0.0000 0.1914 -0.9815
vn -0.0503 0.2011 -0.9783
vn -0.0000 0.2025 -0.9793
vn 0.0503 0.2011 -0.9783
vn 0.0000 0.0773 -0.9970
vn 0.0000 -0.9871 -0.1601
vn 0.0000 -1.0000 -0.0010
vn 0.0000 -1.0000 0.0001
vn 0.0000 -1.0000 -0.0006
vn -0.0002 -1.0000 -0.0000
vn 0.0000 -0.2588 0.9659
vn 0.0000 -0.9659 -0.2588
vn 0.0000 0.9994 -0.0341
vn -0.0000 -0.0000 1.0000
vn -0.0000 0.9963 0.0859
vn 0.0000 0.6600 0.7512
vn -0.0000 0.6600 0.7512
vn -0.0000 1.0000 0.0000
vn -0.0000 0.6752 -0.7376
vn 0.0000 0.6752 -0.7376
vn -0.0000 -0.9825 0.1861
vn 1.0000 0.0001 -0.0001
vn 0.0000 -0.7071 -0.7071
vn 0.0000 -0.9659 0.2588
vn 0.0000 -0.7071 0.7071
vn -0.0000 -0.9976 0.0693
vn 0.0000 0.6727 -0.7399
vn 0.0000 -0.9975 -0.0706
vn 0.0000 0.6594 0.7518
vn 0.0000 -0.4673 0.8841
vn 0.0000 -0.0000 -1.0000
vn 0.0000 -0.6597 -0.7515
vn 0.0000 0.0000 1.0000
# 94 vertex normals

vt 0.7147 0.1016 0.0000
vt 0.7647 0.1016 0.0000
vt 0.7647 0.1516 0.0000
vt 0.7147 0.1516 0.0000
vt 0.7325 0.1622 0.0000
vt 0.7300 0.1581 0.0000
vt 0.7302 0.1562 0.0000
vt 0.7327 0.1604 0.0000
vt 0.7320 0.1581 0.0000
vt 0.7322 0.1562 0.0000
vt 0.7344 0.1622 0.0000
vt 0.7347 0.1604 0.0000
vt 0.7351 0.1652 0.0000
vt 0.7315 0.1652 0.0000
vt 0.7315 0.1573 0.0000
vt 0.7351 0.1588 0.0000
vt 0.7333 0.1664 0.0000
vt 0.7333 0.1560 0.0000
vt 0.7376 0.1664 0.0000
vt 0.7376 0.1576 0.0000
vt 0.7313 0.1652 0.0000
vt 0.7349 0.1652 0.0000
vt 0.7349 0.1586 0.0000
vt 0.7313 0.1573 0.0000
vt 0.7374 0.1664 0.0000
vt 0.7374 0.1574 0.0000
vt 0.7332 0.1664 0.0000
vt 0.7332 0.1560 0.0000
vt 0.7630 0.1419 0.0000
vt 0.7633 0.1419 0.0000
vt 0.7633 0.1383 0.0000
vt 0.7630 0.1383 0.0000
vt 0.7630 0.1424 0.0000
vt 0.7633 0.1424 0.0000
vt 0.7680 0.1419 0.0000
vt 0.7683 0.1419 0.0000
vt 0.7683 0.1383 0.0000
vt 0.7680 0.1383 0.0000
vt 0.7680 0.1424 0.0000
vt 0.7683 0.1424 0.0000
vt 0.7632 0.1388 0.0000
vt 0.7681 0.1388 0.0000
vt 0.7681 0.1385 0.0000
vt 0.7632 0.1385 0.0000
vt 0.7632 0.1415 0.0000
vt 0.7681 0.1415 0.0000
vt 0.7681 0.1412 0.0000
vt 0.7632 0.1412 0.0000
vt 0.3235 0.1094 0.0000
vt 0.3457 0.0982 0.0000
vt 0.3446 0.0989 0.0000
vt 0.3251 0.1088 0.0000
vt 0.3265 0.1254 0.0000
vt 0.3304 0.1261 0.0000
vt 0.3334 0.1111 0.0000
vt 0.3556 0.0999 0.0000
vt 0.3345 0.1104 0.0000
vt 0.3540 0.1006 0.0000
vt 0.3526 0.1149 0.0000
vt 0.3487 0.1142 0.0000
vt 0.4155 0.3690 0.0000
vt 0.2852 0.3690 0.0000
vt 0.2852 0.3232 0.0000
vt 0.4155 0.3232 0.0000
vt 0.3274 0.1221 0.0000
vt 0.3468 0.1122 0.0000
vt 0.4155 0.3689 0.0000
vt 0.2852 0.3689 0.0000
vt 0.3517 0.1131 0.0000
vt 0.3323 0.1229 0.0000
vt 0.1234 0.4941 0.0000
vt 0.0211 0.4941 0.0000
vt 0.0150 0.4164 0.0000
vt 0.0786 0.4061 0.0000
vt 0.0983 0.4061 0.0000
vt 0.1054 0.4328 0.0000
vt 0.1250 0.4523 0.0000
vt 0.1517 0.4595 0.0000
vt 0.6137 0.4941 0.0000
vt 0.5187 0.4524 0.0000
vt 0.1980 0.4328 0.0000
vt 0.2051 0.4061 0.0000
vt 0.4920 0.4061 0.0000
vt 0.1784 0.4523 0.0000
vt 0.4991 0.4328 0.0000
vt 0.5454 0.4595 0.0000
vt 0.5721 0.4524 0.0000
vt 0.5917 0.4328 0.0000
vt 0.5988 0.4061 0.0000
vt 0.6137 0.4061 0.0000
vt 0.1968 0.5946 0.0000
vt 0.1741 0.5181 0.0000
vt 0.2124 0.5906 0.0000
vt 0.4106 0.5946 0.0000
vt 0.2911 0.5906 0.0000
vt 0.3072 0.5906 0.0000
vt 0.4075 0.5906 0.0000
vt 0.4796 0.5161 0.0000
vt 0.4712 0.5181 0.0000
vt 0.3072 0.5181 0.0000
vt 0.2911 0.5181 0.0000
vt 0.1249 0.5161 0.0000
vt 0.0211 0.5125 0.0000
vt 0.6681 0.4998 0.0000
vt 0.6681 0.4941 0.0000
vt 0.9334 0.9523 0.0000
vt 0.4856 0.9523 0.0000
vt 0.4856 0.8195 0.0000
vt 0.9334 0.8195 0.0000
vt 0.7104 0.0454 0.0000
vt 0.7604 0.0454 0.0000
vt 0.7604 0.0954 0.0000
vt 0.7104 0.0954 0.0000
vt 0.6681 0.4164 0.0000
vt 0.7405 0.1754 0.0000
vt 0.7482 0.1741 0.0000
vt 0.7552 0.1706 0.0000
vt 0.7607 0.1651 0.0000
vt 0.7643 0.1581 0.0000
vt 0.7655 0.1504 0.0000
vt 0.7643 0.1426 0.0000
vt 0.7607 0.1357 0.0000
vt 0.7552 0.1301 0.0000
vt 0.7482 0.1266 0.0000
vt 0.7405 0.1254 0.0000
vt 0.7203 0.1357 0.0000
vt 0.7328 0.1266 0.0000
vt 0.7258 0.1301 0.0000
vt 0.7167 0.1426 0.0000
vt 0.7155 0.1504 0.0000
vt 0.7167 0.1581 0.0000
vt 0.7203 0.1651 0.0000
vt 0.7258 0.1706 0.0000
vt 0.7328 0.1741 0.0000
vt 0.9684 0.6947 0.0000
vt 0.9684 0.7982 0.0000
vt 0.7074 0.7982 0.0000
vt 0.7074 0.6947 0.0000
vt 0.4856 0.9838 0.0000
vt 0.9334 0.9838 0.0000
vt 0.0160 0.9855 0.0000
vt 0.0160 0.9759 0.0000
vt 0.4548 0.9759 0.0000
vt 0.4548 0.9855 0.0000
vt 0.7074 0.4498 0.0000
vt 0.7074 0.2619 0.0000
vt 0.9684 0.2619 0.0000
vt 0.9684 0.4498 0.0000
vt 0.5823 0.2991 0.0000
vt 0.5607 0.2866 0.0000
vt 0.5390 0.2991 0.0000
vt 0.5390 0.3241 0.0000
vt 0.5823 0.3241 0.0000
vt 0.5607 0.3366 0.0000
vt 0.7072 0.6772 0.0000
vt 0.7072 0.4641 0.0000
vt 0.9682 0.4641 0.0000
vt 0.9682 0.6772 0.0000
vt 0.6624 0.6970 0.0000
vt 0.5600 0.6970 0.0000
vt 0.6048 0.6090 0.0000
vt 0.6684 0.6193 0.0000
vt 0.0160 0.8458 0.0000
vt 0.4548 0.8458 0.0000
vt 0.0698 0.6970 0.0000
vt 0.0698 0.6090 0.0000
vt 0.0846 0.6090 0.0000
vt 0.0918 0.6357 0.0000
vt 0.1114 0.6553 0.0000
vt 0.1381 0.6624 0.0000
vt 0.5050 0.6553 0.0000
vt 0.1843 0.6357 0.0000
vt 0.1915 0.6090 0.0000
vt 0.4783 0.6090 0.0000
vt 0.1648 0.6553 0.0000
vt 0.4855 0.6357 0.0000
vt 0.5318 0.6624 0.0000
vt 0.5585 0.6553 0.0000
vt 0.5780 0.6357 0.0000
vt 0.5852 0.6090 0.0000
vt 0.7155 0.1254 0.0000
vt 0.7655 0.1254 0.0000
vt 0.7655 0.1754 0.0000
vt 0.7155 0.1754 0.0000
vt 0.7600 0.1660 0.0000
vt 0.7649 0.1448 0.0000
vt 0.7513 0.1278 0.0000
vt 0.7296 0.1278 0.0000
vt 0.7161 0.1448 0.0000
vt 0.7209 0.1660 0.0000
vt 0.7354 0.0954 0.0000
vt 0.7549 0.0860 0.0000
vt 0.7598 0.0649 0.0000
vt 0.7462 0.0479 0.0000
vt 0.7245 0.0479 0.0000
vt 0.7110 0.0649 0.0000
vt 0.7158 0.0860 0.0000
vt 0.2039 0.7190 0.0000
vt 0.0153 0.7027 0.0000
vt 0.0153 0.6970 0.0000
vt 0.3762 0.7211 0.0000
vt 0.6624 0.7154 0.0000
vt 0.5586 0.7190 0.0000
vt 0.3924 0.7211 0.0000
vt 0.4867 0.7976 0.0000
vt 0.4711 0.7935 0.0000
vt 0.5094 0.7211 0.0000
vt 0.3924 0.7935 0.0000
vt 0.3762 0.7935 0.0000
vt 0.2123 0.7211 0.0000
vt 0.2759 0.7935 0.0000
vt 0.2729 0.7976 0.0000
vt 0.0153 0.6193 0.0000
vt 0.5357 0.2866 0.0000
vt 0.5857 0.2866 0.0000
vt 0.5857 0.3366 0.0000
vt 0.5357 0.3366 0.0000
vt 0.8705 0.1130 0.0000
vt 0.9205 0.1130 0.0000
vt 0.9205 0.1630 0.0000
vt 0.8705 0.1630 0.0000
vt 0.7265 0.1382 0.0000
vt 0.7265 0.1377 0.0000
vt 0.7286 0.1382 0.0000
vt 0.7286 0.1377 0.0000
vt 0.7386 0.1382 0.0000
vt 0.7386 0.1377 0.0000
vt 0.7407 0.1382 0.0000
vt 0.7407 0.1377 0.0000
vt 0.7574 0.1405 0.0000
vt 0.7739 0.1405 0.0000
vt 0.7739 0.1401 0.0000
vt 0.7574 0.1401 0.0000
vt 0.7738 0.1401 0.0000
vt 0.7738 0.1389 0.0000
vt 0.7574 0.1389 0.0000
vt 0.7577 0.1388 0.0000
vt 0.7584 0.1388 0.0000
vt 0.7584 0.1381 0.0000
vt 0.7577 0.1381 0.0000
vt 0.7729 0.1388 0.0000
vt 0.7736 0.1388 0.0000
vt 0.7736 0.1381 0.0000
vt 0.7729 0.1381 0.0000
# 244 texture coords

g Body
usemtl SPW_Vehicle_Land_Taxi
s 1
f 97/49/67 98/50/67 99/51/67 100/52/67 
f 101/49/68 102/50/68 103/51/68 104/52/69 
f 105/49/70 106/50/71 107/51/71 108/52/72 
f 102/49/68 109/50/69 110/51/69 103/52/68 
f 111/49/71 112/50/71 113/51/71 114/52/71 
f 115/49/69 97/50/67 100/51/67 116/52/69 
f 106/49/71 117/50/71 118/51/71 107/52/71 
s off
f 108/49/73 104/50/73 103/51/73 119/52/73 
f 119/49/74 103/50/74 110/51/74 113/52/74 
f 113/49/75 110/50/75 120/51/75 114/52/75 
f 121/49/76 116/50/76 100/51/76 118/52/76 
f 107/49/77 99/50/77 104/51/77 108/52/77 
f 118/49/78 100/50/78 99/51/78 107/52/78 
s 1
f 109/49/69 122/50/69 120/51/69 110/52/69 
f 117/49/71 123/50/71 121/51/71 118/52/71 
f 112/49/71 124/50/72 119/51/72 113/52/71 
f 98/49/67 101/50/68 104/51/69 99/52/67 
f 124/49/72 105/50/70 108/51/72 119/52/72 
s off
f 115/49/79 116/50/79 121/51/79 123/52/79 
f 114/49/79 120/50/79 122/51/79 111/52/79 
f 112/49/80 111/50/80 122/51/80 109/52/80 
f 124/49/81 112/50/81 109/51/81 102/52/81 
f 105/49/82 124/50/82 102/51/82 101/52/82 
f 106/49/83 105/50/83 101/51/83 98/52/83 
f 117/49/84 106/50/84 98/51/84 97/52/84 
f 123/49/85 117/50/85 97/51/85 115/52/85 
s 1
f 125/49/67 126/50/69 127/51/69 128/52/67 
f 129/49/69 130/50/68 131/51/68 132/52/69 
f 133/49/71 134/50/71 135/51/71 136/52/71 
f 130/49/68 137/50/68 138/51/68 131/52/68 
f 139/49/71 140/50/72 141/51/72 142/52/71 
f 143/49/67 125/50/67 128/51/67 144/52/68 
f 134/49/71 145/50/71 146/51/71 135/52/71 
s off
f 136/49/73 132/50/73 131/51/73 147/52/73 
f 147/49/74 131/50/74 138/51/74 141/52/74 
f 141/49/86 138/50/86 148/51/86 142/52/86 
f 149/49/87 144/50/87 128/51/87 146/52/87 
f 135/49/77 127/50/77 132/51/77 136/52/77 
f 146/49/78 128/50/78 127/51/78 135/52/78 
s 1
f 137/49/68 150/50/69 148/51/69 138/52/68 
f 145/49/71 151/50/72 149/51/71 146/52/71 
f 140/49/72 152/50/72 147/51/72 141/52/72 
f 126/49/69 129/50/69 132/51/69 127/52/69 
f 152/49/72 133/50/71 136/51/71 147/52/72 
s off
f 143/49/79 144/50/79 149/51/79 151/52/79 
f 142/49/79 148/50/79 150/51/79 139/52/79 
f 140/49/80 139/50/80 150/51/80 137/52/80 
f 152/49/81 140/50/81 137/51/81 130/52/81 
f 133/49/82 152/50/82 130/51/82 129/52/82 
f 134/49/83 133/50/83 129/51/83 126/52/83 
f 145/49/84 134/50/84 126/51/84 125/52/84 
f 151/49/88 145/50/88 125/51/88 143/52/88 
f 153/53/89 154/54/89 155/55/89 156/56/89 
f 154/54/90 157/57/90 158/58/90 155/55/90 
f 157/57/91 159/59/91 160/60/91 158/58/91 
f 159/59/92 153/53/92 156/56/92 160/60/92 
f 156/56/93 155/55/93 158/58/93 160/60/93 
f 159/59/94 157/57/94 154/54/94 153/53/94 
f 161/61/89 162/62/89 163/63/89 164/64/89 
f 162/62/95 165/65/95 166/66/95 163/63/95 
f 165/65/91 167/67/91 168/68/91 166/66/91 
f 167/67/96 161/61/96 164/64/96 168/68/96 
f 164/64/97 163/63/97 166/66/97 168/68/97 
f 167/67/98 165/65/98 162/62/98 161/61/98 
f 169/69/99 170/70/99 171/71/99 172/72/99 
f 170/70/100 173/73/100 174/74/100 171/71/100 
f 173/73/101 175/75/101 176/76/101 174/74/101 
f 175/75/102 169/69/102 172/72/102 176/76/102 
f 172/72/103 171/71/103 174/74/103 176/76/103 
f 175/75/104 173/73/104 170/70/104 169/69/104 
f 177/59/105 178/57/105 179/58/105 180/60/105 
f 178/57/106 181/54/106 182/55/106 179/58/106 
f 181/54/99 183/53/99 184/56/99 182/55/99 
f 183/53/107 177/59/107 180/60/107 184/56/107 
f 180/60/108 179/58/108 182/55/108 184/56/108 
f 183/53/109 181/54/109 178/57/109 177/59/109 
f 185/77/110 186/78/110 187/79/110 188/80/110 
s 1
f 186/78/111 189/78/111 190/79/72 187/79/72 
s off
f 189/78/112 191/77/112 192/80/112 190/79/112 
s 1
f 191/77/113 185/77/113 188/80/68 192/80/68 
s off
f 188/80/114 187/79/114 190/79/114 192/80/114 
s 1
f 185/77/113 191/77/113 193/81/113 194/81/113 
s off
f 193/81/115 195/82/115 196/82/115 194/81/115 
f 191/77/112 189/78/112 195/82/112 193/81/112 
s 1
f 189/78/111 186/78/111 196/82/111 195/82/111 
s off
f 186/78/116 185/77/116 194/81/116 196/82/116 
f 197/83/117 198/84/117 199/85/117 200/86/117 
s 1
f 198/84/111 201/84/70 202/85/72 199/85/72 
s 2
f 201/84/118 203/83/118 204/86/118 202/85/118 
s 1
f 203/83/113 197/83/69 200/86/68 204/86/68 
s off
f 200/86/114 199/85/114 202/85/114 204/86/114 
s 1
f 197/83/69 203/83/113 205/87/69 206/87/69 
s off
f 205/87/119 207/88/119 208/88/119 206/87/119 
s 2
f 203/83/118 201/84/118 207/88/118 205/87/118 
s 1
f 201/84/70 198/84/111 208/88/70 207/88/70 
s off
f 198/84/116 197/83/116 206/87/116 208/88/116 
f 209/89/110 210/90/110 211/91/110 212/92/110 
f 210/90/71 213/90/71 214/91/71 211/91/71 
f 213/90/118 215/89/118 216/92/118 214/91/118 
f 215/89/69 209/89/69 212/92/69 216/92/69 
f 212/92/120 211/91/120 214/91/120 216/92/120 
f 215/89/121 213/90/121 210/90/121 209/89/121 
f 217/93/110 218/94/110 219/95/110 220/96/110 
f 218/94/71 221/94/71 222/95/71 219/95/71 
f 221/94/112 223/93/112 224/96/112 222/95/112 
f 223/93/69 217/93/69 220/96/69 224/96/69 
f 220/96/79 219/95/79 222/95/79 224/96/79 
f 223/93/121 221/94/121 218/94/121 217/93/121 
f 225/97/122 226/98/122 227/99/122 228/100/122 
f 229/101/72 230/102/72 231/103/72 225/97/72 
f 232/104/123 231/103/123 233/105/123 234/106/123 
f 235/107/68 236/108/68 226/98/68 232/104/68 
f 226/98/114 225/97/114 231/103/114 232/104/114 
f 235/107/115 230/102/115 229/101/115 236/108/115 
f 237/109/124 238/110/124 228/111/124 227/112/124 
f 229/101/125 225/97/125 228/100/125 238/113/125 
f 236/108/126 229/101/126 238/113/126 237/114/126 
f 226/98/127 236/108/127 237/114/127 227/99/127 
f 239/115/128 240/116/128 234/111/128 233/112/128 
f 235/107/129 232/104/129 234/106/129 240/117/129 
f 230/102/130 235/107/130 240/117/130 239/118/130 
f 231/103/131 230/102/131 239/118/131 233/105/131 
s 1
f 241/119/111 242/120/111 243/121/111 244/122/70 
f 244/122/70 245/123/71 246/124/70 241/119/111 
f 241/119/111 246/124/70 247/125/111 248/126/71 
f 249/127/70 241/119/111 248/126/71 250/128/71 
f 251/129/111 252/130/111 253/131/111 254/132/72 
f 248/126/71 254/132/72 253/131/111 255/133/111 
f 248/126/71 255/133/111 250/128/71 
f 249/127/70 250/128/71 256/134/71 257/135/71 
f 249/127/70 257/135/71 258/136/70 259/137/70 
f 249/127/70 259/137/70 260/138/70 
s off
f 261/139/71 262/140/71 263/141/71 264/142/71 
f 264/142/111 263/141/111 265/143/111 266/144/111 
f 264/142/111 266/144/111 267/145/111 268/146/111 
f 269/147/72 268/146/72 267/145/72 
f 270/148/72 266/144/72 265/143/72 271/149/72 
f 262/140/71 261/139/71 272/150/71 271/149/71 
f 272/150/71 273/151/71 242/120/71 241/119/71 
f 271/149/71 272/150/71 241/119/71 274/152/71 
f 249/127/71 275/153/71 274/152/71 241/119/71 
f 270/148/71 271/149/71 274/152/71 268/146/71 
f 269/147/111 270/148/111 268/146/111 
f 242/154/132 276/155/132 277/156/132 243/157/132 
f 243/158/133 277/159/133 278/160/133 244/161/133 
s 1
f 275/153/70 249/127/70 260/138/70 279/162/70 
s off
f 244/163/134 278/164/134 280/165/134 281/166/134 
f 282/167/135 283/168/135 284/169/135 285/170/135 
f 286/171/136 287/172/136 288/173/136 289/174/136 
f 288/173/136 260/175/136 259/176/136 289/174/136 
f 285/170/135 286/171/135 289/174/135 282/167/135 
f 281/166/137 282/167/137 289/174/137 290/177/137 
f 290/177/135 253/178/135 252/179/135 291/180/135 
f 281/166/135 290/177/135 291/180/135 292/181/135 
f 244/163/134 281/166/134 292/181/134 245/182/134 
f 246/158/138 245/159/138 292/160/138 293/161/138 
f 247/158/81 246/159/81 293/160/81 294/161/81 
f 248/158/82 247/159/82 294/160/82 295/161/82 
f 254/158/139 248/159/139 295/160/139 296/161/139 
f 251/158/84 254/159/84 296/160/84 297/161/84 
f 291/158/88 252/159/88 251/160/88 297/161/88 
f 255/158/138 253/159/138 290/160/138 298/161/138 
f 250/158/81 255/159/81 298/160/81 299/161/81 
f 256/158/82 250/159/82 299/160/82 300/161/82 
f 257/158/83 256/159/83 300/160/83 301/161/83 
f 258/158/84 257/159/84 301/160/84 302/161/84 
f 289/158/88 259/159/88 258/160/88 302/161/88 
f 303/183/140 304/184/140 273/185/140 272/186/140 
f 304/187/118 276/155/118 242/154/118 273/188/118 
f 274/189/141 275/190/141 305/191/141 306/192/141 
f 268/193/142 274/194/142 306/195/142 307/196/142 
f 308/197/143 264/198/143 309/199/143 310/200/143 
f 307/201/144 308/197/144 310/200/144 311/202/144 
f 312/202/143 309/201/143 264/197/143 268/198/143 
f 312/202/143 268/198/143 307/199/143 311/200/143 
f 261/203/145 264/204/145 308/205/145 313/206/145 
f 272/197/146 261/198/146 314/199/146 315/200/146 
f 303/201/147 272/197/147 315/200/147 316/202/147 
f 317/201/147 314/197/147 261/198/147 313/199/147 
f 316/202/146 317/201/146 313/199/146 303/200/146 
s 1
f 276/207/67 318/208/67 278/209/69 277/210/113 
s off
f 305/191/141 275/190/141 279/211/141 319/212/141 
f 260/158/148 288/159/148 319/160/148 279/161/148 
s 1
f 320/213/67 288/214/69 287/215/113 321/216/113 
f 320/213/67 321/216/113 322/217/113 323/218/113 
f 318/208/67 320/213/67 323/218/113 324/219/68 
f 325/220/69 284/221/69 283/222/68 326/223/67 
f 323/218/113 326/223/67 283/222/68 327/224/68 
f 323/218/113 327/224/68 324/219/68 
f 318/208/67 324/219/68 328/225/69 329/226/113 
f 330/227/149 280/228/69 278/209/69 329/226/113 
f 318/208/67 329/226/113 278/209/69 
s off
f 331/229/138 281/230/138 280/231/138 330/232/138 
f 282/163/69 281/233/69 331/234/69 332/235/69 
f 282/163/68 332/235/68 333/236/68 334/237/68 
f 282/163/68 334/237/68 335/238/68 
f 327/229/88 283/230/88 282/231/88 335/232/88 
f 336/158/80 285/159/80 284/160/80 325/161/80 
f 286/239/69 285/240/69 336/241/69 337/242/69 
f 286/239/69 337/242/69 338/243/69 339/244/69 
f 286/239/69 339/244/69 340/245/69 
f 321/158/88 287/159/88 286/160/88 340/161/88 
f 290/239/71 289/240/71 302/241/71 301/242/71 
f 290/239/71 301/242/71 300/243/71 299/244/71 
f 290/239/71 299/244/71 298/245/71 
f 292/239/72 291/240/72 297/241/72 296/242/72 
f 292/239/72 296/242/72 295/243/72 294/244/72 
f 292/239/71 294/244/71 293/245/71 
s 1
f 307/246/113 306/247/113 305/248/113 341/249/113 
f 318/208/67 276/207/67 304/250/67 320/213/67 
f 320/213/67 304/250/67 303/251/113 342/252/67 
f 303/251/113 313/253/67 343/254/67 344/255/68 
f 303/251/113 344/255/68 342/252/67 
f 342/252/67 345/256/68 346/257/67 341/249/113 
f 320/213/67 342/252/67 341/249/113 305/248/113 
f 347/258/113 307/246/113 341/249/113 
s off
f 345/256/68 343/254/68 313/253/68 346/257/68 
f 348/259/113 346/257/113 313/253/113 308/260/113 
f 347/258/113 348/259/113 308/260/113 307/246/113 
s 1
f 320/213/67 305/248/113 319/261/69 288/214/69 
s off
f 322/158/150 321/159/150 340/160/150 339/161/150 
f 323/158/139 322/159/139 339/160/139 338/161/139 
f 326/158/151 323/159/151 338/160/151 337/161/151 
f 325/158/81 326/159/81 337/160/81 336/161/81 
f 324/229/150 327/230/150 335/231/150 334/232/150 
f 328/229/139 324/230/139 334/231/139 333/232/139 
f 329/229/151 328/230/151 333/231/151 332/232/151 
f 330/229/152 329/230/152 332/231/152 331/232/152 
f 317/262/70 316/263/70 349/264/70 350/265/70 
f 314/262/153 317/263/153 350/264/153 351/265/153 
f 350/266/154 349/267/154 352/268/154 351/269/154 
f 316/262/115 315/263/115 352/264/115 349/265/115 
f 315/262/69 314/263/69 351/264/69 352/265/69 
f 309/262/69 312/263/69 353/264/69 354/265/69 
f 310/262/155 309/263/155 354/264/155 355/265/155 
f 354/266/156 353/267/156 356/268/156 355/269/156 
f 312/262/115 311/263/115 356/264/115 353/265/115 
f 311/262/71 310/263/71 355/264/71 356/265/71 
f 263/262/157 262/263/157 357/264/157 358/265/157 
f 265/262/114 263/263/114 358/264/114 359/265/114 
f 358/266/111 357/267/111 360/268/111 359/269/111 
f 262/262/115 271/263/115 360/264/115 357/265/115 
f 271/262/158 265/263/158 359/264/158 360/265/158 
f 269/262/159 267/263/159 361/264/159 362/265/159 
f 270/262/115 269/263/115 362/264/115 363/265/115 
f 364/266/71 363/267/71 362/268/71 361/269/71 
f 267/262/114 266/263/114 364/264/114 361/265/114 
f 266/262/160 270/263/160 363/264/160 364/265/160 
f 344/262/157 343/263/157 365/264/157 366/265/157 
f 342/262/115 344/263/115 366/264/115 367/265/115 
f 368/266/113 367/267/113 366/268/113 365/269/113 
f 343/262/114 345/263/114 368/264/114 365/265/114 
f 345/262/118 342/263/118 367/264/118 368/265/118 
f 348/262/159 347/263/159 369/264/159 370/265/159 
f 346/262/114 348/263/114 370/264/114 371/265/114 
f 370/266/68 369/267/68 372/268/68 371/269/68 
f 347/262/115 341/263/115 372/264/115 369/265/115 
f 341/262/160 346/263/160 371/264/160 372/265/160 
f 373/270/141 374/270/141 375/271/141 376/271/141 
f 374/270/71 377/272/71 378/273/71 375/271/71 
f 377/272/118 379/272/118 380/273/118 378/273/118 
f 379/272/69 373/270/69 376/271/69 380/273/69 
f 376/271/114 375/271/114 378/273/114 380/273/114 
f 379/272/145 377/272/145 374/270/145 373/270/145 
f 381/270/141 382/270/141 383/271/141 384/271/141 
f 382/270/71 385/272/71 386/273/71 383/271/71 
f 385/272/118 387/272/118 388/273/118 386/273/118 
f 387/272/69 381/270/69 384/271/69 388/273/69 
f 384/271/114 383/271/114 386/273/114 388/273/114 
f 387/272/115 385/272/115 382/270/115 381/270/115 
f 389/274/110 390/274/110 391/275/110 392/275/110 
f 390/274/71 393/276/71 394/277/71 391/275/71 
f 393/276/118 395/276/118 396/277/118 394/277/118 
f 395/276/69 389/274/69 392/275/69 396/277/69 
f 392/275/114 391/275/114 394/277/114 396/277/114 
f 395/276/115 393/276/115 390/274/115 389/274/115 
f 397/274/141 398/274/141 399/275/141 400/275/141 
f 398/274/71 401/276/71 402/277/71 399/275/71 
f 401/276/118 403/276/118 404/277/118 402/277/118 
f 403/276/69 397/274/69 400/275/69 404/277/69 
f 400/275/79 399/275/79 402/277/79 404/277/79 
f 403/276/115 401/276/115 398/274/115 397/274/115 
f 405/278/141 406/279/141 407/280/141 408/281/141 
f 406/279/71 409/279/71 410/280/71 407/280/71 
f 409/279/158 411/278/158 412/281/158 410/280/158 
f 411/278/69 405/278/69 408/281/69 412/281/69 
f 408/281/114 407/280/114 410/280/114 412/281/114 
f 411/278/115 409/279/115 406/279/115 405/278/115 
f 413/281/141 414/282/141 415/283/141 416/284/141 
f 414/282/71 417/282/71 418/283/71 415/283/71 
f 417/282/118 419/281/118 420/284/118 418/283/118 
f 419/281/69 413/281/69 416/284/69 420/284/69 
f 416/284/114 415/283/114 418/283/114 420/284/114 
f 419/281/115 417/282/115 414/282/115 413/281/115 
f 421/281/117 422/282/117 423/283/117 424/284/117 
f 422/282/71 425/282/71 426/283/71 423/283/71 
f 425/282/118 427/281/118 428/284/118 426/283/118 
f 427/281/69 421/281/69 424/284/69 428/284/69 
f 424/284/79 423/283/79 426/283/79 428/284/79 
f 427/281/115 425/282/115 422/282/115 421/281/115 
f 429/285/110 430/286/110 431/287/110 432/288/110 
f 430/286/71 433/286/71 434/287/71 431/287/71 
f 433/286/118 435/285/118 436/288/118 434/287/118 
f 435/285/69 429/285/69 432/288/69 436/288/69 
f 432/288/114 431/287/114 434/287/114 436/288/114 
f 435/285/145 433/286/145 430/286/145 429/285/145 
f 437/289/110 438/290/110 439/291/110 440/292/110 
f 438/290/71 441/290/71 442/291/71 439/291/71 
f 441/290/118 443/289/118 444/292/118 442/291/118 
f 443/289/69 437/289/69 440/292/69 444/292/69 
f 440/292/114 439/291/114 442/291/114 444/292/114 
f 443/289/115 441/290/115 438/290/115 437/289/115 
# 300 polygons - 12 triangles

