# 3ds Max Wavefront OBJ Exporter v0.97b - (c)2007 guruware
# File Created: 15.03.2017 11:31:43

mtllib SPW_Urban_Road 4way_01.mtl

#
# object SPW_Urban_Road_4way_01
#

v  196.8504 7.8739 787.4014
v  -196.8504 7.8739 787.4014
v  -196.8504 -0.0001 787.4014
v  196.8504 -0.0001 787.4014
v  -196.8504 7.8739 669.2912
v  -196.8504 -0.0001 669.2912
v  196.8504 7.8739 669.2912
v  196.8504 -0.0001 669.2912
v  196.8504 7.8741 -669.2917
v  -196.8504 7.8741 -669.2917
v  -196.8504 0.0001 -669.2917
v  196.8504 0.0001 -669.2917
v  -196.8504 7.8741 -787.4020
v  -196.8504 0.0001 -787.4020
v  196.8504 7.8741 -787.4020
v  196.8504 0.0001 -787.4020
v  196.8504 -0.0001 787.4016
v  196.8504 -0.0001 657.4803
v  -196.8504 -0.0001 657.4803
v  -196.8504 -0.0001 787.4016
v  -157.4803 -0.0000 370.0788
v  -157.4803 -0.0000 358.2677
v  -196.8504 -0.0000 82.6772
v  -196.8504 -0.0001 645.6693
v  -39.3701 -0.0000 370.0788
v  39.3701 -0.0000 370.0788
v  157.4803 -0.0000 370.0788
v  196.8504 -0.0001 645.6693
v  196.8504 -0.0000 82.6772
v  -39.3701 -0.0000 358.2677
v  39.3701 -0.0000 358.2677
v  157.4803 -0.0000 358.2677
v  196.8504 -0.0000 70.8661
v  196.8504 0.0000 -70.8661
v  -196.8504 0.0000 -70.8661
v  -196.8504 -0.0000 70.8662
v  -196.8504 0.0000 -82.6772
v  196.8504 0.0000 -82.6772
v  157.4803 0.0000 -358.2677
v  39.3701 0.0000 -358.2677
v  -39.3701 0.0000 -358.2677
v  -157.4803 0.0000 -358.2677
v  -196.8504 0.0001 -645.6694
v  -157.4803 0.0000 -370.0787
v  196.8504 0.0001 -645.6694
v  -39.3701 0.0000 -370.0787
v  39.3701 0.0000 -370.0787
v  157.4803 0.0000 -370.0787
v  -196.8504 0.0001 -657.4803
v  196.8504 0.0001 -657.4803
v  196.8504 0.0001 -787.4016
v  -196.8504 0.0001 -787.4016
# 52 vertices

vn 0.0000 -0.0000 1.0000
vn -1.0000 0.0000 -0.0000
vn 0.0000 0.0000 -1.0000
vn 1.0000 0.0000 -0.0000
vn 0.0000 -1.0000 -0.0000
vn 0.0000 1.0000 0.0000
vn -0.0000 1.0000 0.0000
# 7 vertex normals

vt 0.2289 0.8613 0.0000
vt 0.2289 0.9113 0.0000
vt 0.2327 0.9113 0.0000
vt 0.2327 0.8613 0.0000
vt 0.2752 0.8613 0.0000
vt 0.2752 0.9113 0.0000
vt 0.2789 0.9113 0.0000
vt 0.2789 0.8613 0.0000
vt 0.3741 0.8638 0.0000
vt 0.3782 0.8638 0.0000
vt 0.3782 0.9138 0.0000
vt 0.3741 0.9138 0.0000
vt 0.3874 0.9088 0.0000
vt 0.3877 0.9088 0.0000
vt 0.3965 0.9138 0.0000
vt 0.3786 0.9138 0.0000
vt 0.3874 0.8938 0.0000
vt 0.3874 0.8838 0.0000
vt 0.3874 0.8688 0.0000
vt 0.3786 0.8638 0.0000
vt 0.3965 0.8638 0.0000
vt 0.3877 0.8938 0.0000
vt 0.3877 0.8838 0.0000
vt 0.3877 0.8688 0.0000
vt 0.3969 0.8638 0.0000
vt 0.4014 0.8638 0.0000
vt 0.4014 0.9138 0.0000
vt 0.3969 0.9138 0.0000
vt 0.4017 0.9138 0.0000
vt 0.4017 0.8638 0.0000
vt 0.4105 0.8688 0.0000
vt 0.4105 0.8838 0.0000
vt 0.4105 0.8938 0.0000
vt 0.4105 0.9088 0.0000
vt 0.4196 0.9138 0.0000
vt 0.4109 0.9088 0.0000
vt 0.4196 0.8638 0.0000
vt 0.4109 0.8938 0.0000
vt 0.4109 0.8838 0.0000
vt 0.4109 0.8688 0.0000
vt 0.5652 0.9261 0.0000
vt 0.5648 0.9261 0.0000
vt 0.5648 0.8761 0.0000
vt 0.5652 0.8761 0.0000
vt 0.5557 0.9211 0.0000
vt 0.5557 0.9061 0.0000
vt 0.5560 0.9061 0.0000
vt 0.5560 0.9211 0.0000
vt 0.5560 0.8961 0.0000
vt 0.5557 0.8961 0.0000
vt 0.5557 0.8811 0.0000
vt 0.5560 0.8811 0.0000
vt 0.5234 0.8761 0.0000
vt 0.5238 0.8761 0.0000
vt 0.5238 0.9261 0.0000
vt 0.5234 0.9261 0.0000
vt 0.5417 0.8761 0.0000
vt 0.5420 0.8761 0.0000
vt 0.5420 0.9261 0.0000
vt 0.5417 0.9261 0.0000
vt 0.5465 0.8761 0.0000
vt 0.5469 0.8761 0.0000
vt 0.5469 0.9261 0.0000
vt 0.5465 0.9261 0.0000
vt 0.5325 0.9061 0.0000
vt 0.5329 0.9061 0.0000
vt 0.5329 0.9211 0.0000
vt 0.5325 0.9211 0.0000
vt 0.5329 0.8811 0.0000
vt 0.5329 0.8961 0.0000
vt 0.5325 0.8961 0.0000
vt 0.5325 0.8811 0.0000
vt 0.4200 0.8638 0.0000
vt 0.4241 0.8638 0.0000
vt 0.4241 0.9138 0.0000
vt 0.4200 0.9138 0.0000
# 76 texture coords

g SPW_Urban_Road_4way_01
usemtl SPW_Urban_Road
s off
f 1/1/1 2/2/1 3/2/1 4/1/1 
f 2/2/2 5/3/2 6/3/2 3/2/2 
f 5/3/3 7/4/3 8/4/3 6/3/3 
f 7/4/4 1/1/4 4/1/4 8/4/4 
f 4/1/5 3/2/5 6/3/5 8/4/5 
f 7/4/6 5/3/6 2/2/6 1/1/6 
f 9/5/1 10/6/1 11/6/1 12/5/1 
f 10/6/2 13/7/2 14/7/2 11/6/2 
f 13/7/3 15/8/3 16/8/3 14/7/3 
f 15/8/4 9/5/4 12/5/4 16/8/4 
f 12/5/5 11/6/5 14/7/5 16/8/5 
f 15/8/6 13/7/6 10/6/6 9/5/6 
s 1
f 17/9/6 18/10/6 19/11/6 20/12/6 
f 21/13/6 22/14/6 23/15/6 24/16/6 
f 25/17/6 21/13/6 24/16/6 26/18/6 
f 27/19/6 26/18/6 24/16/6 28/20/6 
f 29/21/7 23/15/6 22/14/6 30/22/6 
f 30/22/6 25/17/6 26/18/6 31/23/6 
f 29/21/7 30/22/6 31/23/6 32/24/6 
f 28/20/6 29/21/7 32/24/6 27/19/6 
f 33/25/7 34/26/6 35/27/7 36/28/7 
f 37/29/6 38/30/6 39/31/6 40/32/6 
f 37/29/6 40/32/6 41/33/6 42/34/7 
f 43/35/7 37/29/6 42/34/7 44/36/7 
f 45/37/6 43/35/7 44/36/7 46/38/6 
f 46/38/6 41/33/6 40/32/6 47/39/6 
f 45/37/6 46/38/6 47/39/6 48/40/6 
f 45/37/6 48/40/6 39/31/6 38/30/6 
f 49/41/6 43/42/7 45/43/6 50/44/6 
f 42/45/7 41/46/6 46/47/6 44/48/7 
f 47/49/6 40/50/6 39/51/6 48/52/6 
f 18/53/6 28/54/6 24/55/6 19/56/6 
f 29/57/7 33/58/7 36/59/7 23/60/6 
f 34/61/6 38/62/6 37/63/6 35/64/7 
f 25/65/6 30/66/6 22/67/6 21/68/6 
f 32/69/6 31/70/6 26/71/6 27/72/6 
f 50/73/6 51/74/6 52/75/6 49/76/6 
# 37 polygons

