# 3ds Max Wavefront OBJ Exporter v0.97b - (c)2007 guruware
# File Created: 15.03.2017 11:34:02

mtllib SPW_Urban_Road 4way_2way Intersection_01.mtl

#
# object SPW_Urban_Road_4way_2way_Intersection_01
#

v  787.4016 -0.0001 787.4016
v  787.4016 -0.0001 657.4803
v  -787.4016 -0.0001 657.4803
v  -787.4016 -0.0001 787.4016
v  -787.4016 -0.0001 645.6694
v  787.4016 -0.0001 645.6694
v  748.0315 -0.0000 370.0787
v  629.9213 -0.0000 370.0787
v  551.1811 -0.0000 370.0787
v  433.0709 -0.0000 370.0787
v  354.3307 -0.0000 370.0788
v  236.2205 -0.0000 370.0788
v  157.4803 -0.0000 370.0788
v  39.3701 -0.0000 370.0788
v  -39.3701 -0.0000 370.0788
v  -157.4803 -0.0000 370.0788
v  -236.2205 -0.0000 370.0788
v  -354.3307 -0.0000 370.0788
v  -433.0709 -0.0000 370.0788
v  -551.1811 -0.0000 370.0788
v  -629.9213 -0.0000 370.0788
v  -748.0315 -0.0000 370.0788
v  -787.4016 -0.0000 82.6772
v  -748.0315 -0.0000 358.2678
v  -629.9213 -0.0000 358.2678
v  787.4016 -0.0000 82.6771
v  -551.1811 -0.0000 358.2678
v  -433.0709 -0.0000 358.2678
v  -354.3307 -0.0000 358.2677
v  -236.2205 -0.0000 358.2677
v  -157.4803 -0.0000 358.2677
v  -39.3701 -0.0000 358.2677
v  39.3701 -0.0000 358.2677
v  157.4803 -0.0000 358.2677
v  236.2205 -0.0000 358.2677
v  354.3307 -0.0000 358.2677
v  433.0709 -0.0000 358.2677
v  551.1811 -0.0000 358.2677
v  629.9213 -0.0000 358.2677
v  748.0315 -0.0000 358.2677
v  787.4016 -0.0000 70.8661
v  787.4016 0.0000 -70.8662
v  -787.4016 0.0000 -70.8661
v  -787.4016 -0.0000 70.8662
v  -74.8032 0.0001 -645.6694
v  -104.3307 0.0001 -645.6694
v  39.3701 0.0000 -370.0788
v  -45.2756 0.0001 -645.6694
v  -15.7480 0.0001 -645.6694
v  15.7480 0.0001 -645.6694
v  45.2755 0.0001 -645.6694
v  74.8031 0.0001 -645.6694
v  104.3307 0.0001 -645.6694
v  133.8582 0.0001 -645.6693
v  163.3858 0.0001 -645.6693
v  192.9133 0.0001 -645.6693
v  222.4409 0.0001 -645.6693
v  251.9685 0.0001 -645.6694
v  787.4016 0.0001 -645.6694
v  157.4803 0.0000 -370.0788
v  157.4803 0.0000 -358.2678
v  236.2205 0.0000 -358.2678
v  236.2205 0.0000 -370.0788
v  354.3307 0.0000 -370.0788
v  354.3307 0.0000 -358.2678
v  433.0709 0.0000 -358.2678
v  433.0709 0.0000 -370.0788
v  551.1811 0.0000 -370.0788
v  551.1811 0.0000 -358.2678
v  629.9213 0.0000 -358.2678
v  629.9213 0.0000 -370.0788
v  748.0315 0.0000 -370.0788
v  748.0315 0.0000 -358.2678
v  787.4016 0.0000 -82.6772
v  -251.9686 0.0001 -645.6694
v  -748.0315 0.0000 -370.0788
v  -629.9213 0.0000 -370.0788
v  -551.1811 0.0000 -370.0788
v  -629.9213 0.0000 -358.2677
v  -551.1811 0.0000 -358.2677
v  -433.0709 0.0000 -370.0788
v  -354.3307 0.0000 -370.0788
v  -433.0709 0.0000 -358.2677
v  -354.3307 0.0000 -358.2678
v  -236.2205 0.0000 -370.0788
v  -251.9686 0.0001 -787.4016
v  -787.4016 0.0001 -645.6694
v  -748.0315 0.0000 -358.2677
v  -787.4016 0.0000 -82.6772
v  -236.2205 0.0000 -358.2678
v  -157.4803 0.0000 -358.2678
v  -39.3701 0.0000 -358.2678
v  39.3701 0.0000 -358.2678
v  -157.4803 0.0000 -370.0788
v  -39.3701 0.0000 -370.0788
v  -104.3307 0.0001 -783.4647
v  -133.8583 0.0001 -783.4647
v  -133.8583 0.0001 -645.6694
v  -163.3859 0.0001 -645.6694
v  -192.9134 0.0001 -645.6694
v  -222.4410 0.0001 -645.6694
v  -222.4410 0.0001 -783.4647
v  251.9685 0.0001 -787.4016
v  -192.9134 0.0001 -783.4647
v  104.3307 0.0001 -783.4647
v  133.8582 0.0001 -783.4647
v  163.3858 0.0001 -783.4647
v  192.9133 0.0001 -783.4647
v  222.4409 0.0001 -783.4647
v  74.8031 0.0001 -783.4647
v  -163.3858 0.0001 -783.4647
v  -74.8032 0.0001 -783.4647
v  -15.7481 0.0001 -783.4647
v  -45.2756 0.0001 -783.4647
v  15.7480 0.0001 -783.4647
v  45.2755 0.0001 -783.4647
v  787.4016 0.0001 -657.4803
v  787.4016 0.0001 -787.4016
v  263.7795 0.0001 -787.4016
v  263.7795 0.0001 -657.4803
v  -263.7796 0.0001 -787.4016
v  -787.4016 0.0001 -787.4016
v  -787.4016 0.0001 -657.4804
v  -263.7796 0.0001 -657.4803
v  787.4016 7.8741 -669.2915
v  275.5905 7.8741 -669.2915
v  275.5905 0.0001 -669.2915
v  787.4016 0.0001 -669.2915
v  275.5905 7.8741 -787.4017
v  275.5905 0.0001 -787.4017
v  787.4016 7.8741 -787.4017
v  787.4016 0.0001 -787.4017
v  -275.5906 7.8741 -669.2915
v  -787.4016 7.8741 -669.2915
v  -787.4016 0.0001 -669.2915
v  -275.5906 0.0001 -669.2915
v  -787.4016 7.8741 -787.4017
v  -787.4016 0.0001 -787.4017
v  -275.5906 7.8741 -787.4017
v  -275.5906 0.0001 -787.4017
v  787.4016 7.8739 787.4016
v  -787.4016 7.8739 787.4016
v  -787.4016 7.8739 669.2913
v  -787.4016 -0.0001 669.2913
v  787.4016 7.8739 669.2913
v  787.4016 -0.0001 669.2913
# 146 vertices

vn 0.0000 1.0000 0.0000
vn -0.0000 1.0000 0.0000
vn 0.0000 -0.0000 1.0000
vn -1.0000 0.0000 -0.0000
vn 0.0000 0.0000 -1.0000
vn 1.0000 0.0000 -0.0000
vn 0.0000 -1.0000 -0.0000
# 7 vertex normals

vt 0.3716 0.8712 0.0000
vt 0.3758 0.8712 0.0000
vt 0.3758 0.9212 0.0000
vt 0.3716 0.9212 0.0000
vt 0.3761 0.9212 0.0000
vt 0.3761 0.8712 0.0000
vt 0.3849 0.8724 0.0000
vt 0.3849 0.8762 0.0000
vt 0.3849 0.8787 0.0000
vt 0.3849 0.8824 0.0000
vt 0.3849 0.8849 0.0000
vt 0.3849 0.8887 0.0000
vt 0.3849 0.8912 0.0000
vt 0.3849 0.8949 0.0000
vt 0.3849 0.8974 0.0000
vt 0.3849 0.9012 0.0000
vt 0.3849 0.9037 0.0000
vt 0.3849 0.9074 0.0000
vt 0.3849 0.9099 0.0000
vt 0.3849 0.9137 0.0000
vt 0.3849 0.9162 0.0000
vt 0.3849 0.9199 0.0000
vt 0.3940 0.9212 0.0000
vt 0.3853 0.9199 0.0000
vt 0.3853 0.9162 0.0000
vt 0.3940 0.8712 0.0000
vt 0.3853 0.9137 0.0000
vt 0.3853 0.9099 0.0000
vt 0.3853 0.9074 0.0000
vt 0.3853 0.9037 0.0000
vt 0.3853 0.9012 0.0000
vt 0.3853 0.8974 0.0000
vt 0.3853 0.8949 0.0000
vt 0.3853 0.8912 0.0000
vt 0.3853 0.8887 0.0000
vt 0.3853 0.8849 0.0000
vt 0.3853 0.8824 0.0000
vt 0.3853 0.8787 0.0000
vt 0.3853 0.8762 0.0000
vt 0.3853 0.8724 0.0000
vt 0.3944 0.8712 0.0000
vt 0.3989 0.8712 0.0000
vt 0.3989 0.9212 0.0000
vt 0.3944 0.9212 0.0000
vt 0.4171 0.8986 0.0000
vt 0.4171 0.8995 0.0000
vt 0.4084 0.8949 0.0000
vt 0.4171 0.8976 0.0000
vt 0.4171 0.8967 0.0000
vt 0.4171 0.8957 0.0000
vt 0.4171 0.8947 0.0000
vt 0.4171 0.8938 0.0000
vt 0.4171 0.8929 0.0000
vt 0.4171 0.8919 0.0000
vt 0.4171 0.8910 0.0000
vt 0.4171 0.8901 0.0000
vt 0.4171 0.8891 0.0000
vt 0.4171 0.8882 0.0000
vt 0.4171 0.8712 0.0000
vt 0.4084 0.8912 0.0000
vt 0.4080 0.8912 0.0000
vt 0.4080 0.8887 0.0000
vt 0.4084 0.8887 0.0000
vt 0.4084 0.8849 0.0000
vt 0.4080 0.8849 0.0000
vt 0.4080 0.8824 0.0000
vt 0.4084 0.8824 0.0000
vt 0.4084 0.8787 0.0000
vt 0.4080 0.8787 0.0000
vt 0.4080 0.8762 0.0000
vt 0.4084 0.8762 0.0000
vt 0.4084 0.8724 0.0000
vt 0.4080 0.8724 0.0000
vt 0.3993 0.8712 0.0000
vt 0.4171 0.9042 0.0000
vt 0.4084 0.9199 0.0000
vt 0.4084 0.9162 0.0000
vt 0.4084 0.9137 0.0000
vt 0.4080 0.9162 0.0000
vt 0.4080 0.9137 0.0000
vt 0.4084 0.9099 0.0000
vt 0.4084 0.9074 0.0000
vt 0.4080 0.9099 0.0000
vt 0.4080 0.9074 0.0000
vt 0.4084 0.9037 0.0000
vt 0.4216 0.9042 0.0000
vt 0.4171 0.9212 0.0000
vt 0.4080 0.9199 0.0000
vt 0.3993 0.9212 0.0000
vt 0.4080 0.9037 0.0000
vt 0.4080 0.9012 0.0000
vt 0.4080 0.8974 0.0000
vt 0.4080 0.8949 0.0000
vt 0.4084 0.9012 0.0000
vt 0.4084 0.8974 0.0000
vt 0.4215 0.8995 0.0000
vt 0.4215 0.9004 0.0000
vt 0.4171 0.9004 0.0000
vt 0.4171 0.9014 0.0000
vt 0.4171 0.9023 0.0000
vt 0.4171 0.9032 0.0000
vt 0.4215 0.9032 0.0000
vt 0.4216 0.8882 0.0000
vt 0.4215 0.9023 0.0000
vt 0.4215 0.8929 0.0000
vt 0.4215 0.8919 0.0000
vt 0.4215 0.8910 0.0000
vt 0.4215 0.8901 0.0000
vt 0.4215 0.8891 0.0000
vt 0.4215 0.8938 0.0000
vt 0.4215 0.9014 0.0000
vt 0.4215 0.8986 0.0000
vt 0.4215 0.8967 0.0000
vt 0.4215 0.8976 0.0000
vt 0.4215 0.8957 0.0000
vt 0.4215 0.8947 0.0000
vt 0.4175 0.8712 0.0000
vt 0.4216 0.8712 0.0000
vt 0.4216 0.8878 0.0000
vt 0.4175 0.8878 0.0000
vt 0.4216 0.9046 0.0000
vt 0.4216 0.9212 0.0000
vt 0.4175 0.9212 0.0000
vt 0.4175 0.9046 0.0000
vt 0.5378 0.8749 0.0000
vt 0.5378 0.8786 0.0000
vt 0.5375 0.8786 0.0000
vt 0.5375 0.8749 0.0000
vt 0.5378 0.8811 0.0000
vt 0.5378 0.8849 0.0000
vt 0.5375 0.8849 0.0000
vt 0.5375 0.8811 0.0000
vt 0.5378 0.8874 0.0000
vt 0.5378 0.8911 0.0000
vt 0.5375 0.8911 0.0000
vt 0.5375 0.8874 0.0000
vt 0.5378 0.8936 0.0000
vt 0.5378 0.8974 0.0000
vt 0.5375 0.8974 0.0000
vt 0.5375 0.8936 0.0000
vt 0.5378 0.8999 0.0000
vt 0.5378 0.9036 0.0000
vt 0.5375 0.9036 0.0000
vt 0.5375 0.8999 0.0000
vt 0.5378 0.9061 0.0000
vt 0.5378 0.9099 0.0000
vt 0.5375 0.9099 0.0000
vt 0.5375 0.9061 0.0000
vt 0.5378 0.9124 0.0000
vt 0.5378 0.9161 0.0000
vt 0.5375 0.9161 0.0000
vt 0.5375 0.9124 0.0000
vt 0.5375 0.9186 0.0000
vt 0.5378 0.9186 0.0000
vt 0.5378 0.9224 0.0000
vt 0.5375 0.9224 0.0000
vt 0.5610 0.9186 0.0000
vt 0.5610 0.9224 0.0000
vt 0.5606 0.9224 0.0000
vt 0.5606 0.9186 0.0000
vt 0.5606 0.9099 0.0000
vt 0.5606 0.9061 0.0000
vt 0.5610 0.9061 0.0000
vt 0.5610 0.9099 0.0000
vt 0.5606 0.9161 0.0000
vt 0.5606 0.9124 0.0000
vt 0.5610 0.9124 0.0000
vt 0.5610 0.9161 0.0000
vt 0.5610 0.8999 0.0000
vt 0.5610 0.9036 0.0000
vt 0.5606 0.9036 0.0000
vt 0.5606 0.8999 0.0000
vt 0.5610 0.8974 0.0000
vt 0.5606 0.8974 0.0000
vt 0.5606 0.8936 0.0000
vt 0.5610 0.8936 0.0000
vt 0.5606 0.8911 0.0000
vt 0.5606 0.8874 0.0000
vt 0.5610 0.8874 0.0000
vt 0.5610 0.8911 0.0000
vt 0.5606 0.8849 0.0000
vt 0.5606 0.8811 0.0000
vt 0.5610 0.8811 0.0000
vt 0.5610 0.8849 0.0000
vt 0.5606 0.8786 0.0000
vt 0.5606 0.8749 0.0000
vt 0.5610 0.8749 0.0000
vt 0.5610 0.8786 0.0000
vt 0.5741 0.8916 0.0000
vt 0.5741 0.8925 0.0000
vt 0.5697 0.8925 0.0000
vt 0.5697 0.8916 0.0000
vt 0.5741 0.8935 0.0000
vt 0.5741 0.8944 0.0000
vt 0.5697 0.8944 0.0000
vt 0.5697 0.8935 0.0000
vt 0.5741 0.8963 0.0000
vt 0.5697 0.8963 0.0000
vt 0.5697 0.8953 0.0000
vt 0.5741 0.8953 0.0000
vt 0.5741 0.8972 0.0000
vt 0.5741 0.8981 0.0000
vt 0.5697 0.8981 0.0000
vt 0.5697 0.8972 0.0000
vt 0.5741 0.8991 0.0000
vt 0.5741 0.9001 0.0000
vt 0.5697 0.9001 0.0000
vt 0.5697 0.8991 0.0000
vt 0.5741 0.9010 0.0000
vt 0.5741 0.9020 0.0000
vt 0.5697 0.9020 0.0000
vt 0.5697 0.9010 0.0000
vt 0.5741 0.9029 0.0000
vt 0.5741 0.9038 0.0000
vt 0.5697 0.9038 0.0000
vt 0.5697 0.9029 0.0000
vt 0.5697 0.9048 0.0000
vt 0.5741 0.9048 0.0000
vt 0.5741 0.9057 0.0000
vt 0.5697 0.9057 0.0000
vt 0.5701 0.9070 0.0000
vt 0.5701 0.9236 0.0000
vt 0.5697 0.9236 0.0000
vt 0.5697 0.9066 0.0000
vt 0.5742 0.9070 0.0000
vt 0.5742 0.9066 0.0000
vt 0.5515 0.8736 0.0000
vt 0.5518 0.8736 0.0000
vt 0.5518 0.9236 0.0000
vt 0.5515 0.9236 0.0000
vt 0.5466 0.8736 0.0000
vt 0.5470 0.8736 0.0000
vt 0.5470 0.9236 0.0000
vt 0.5466 0.9236 0.0000
vt 0.5283 0.8736 0.0000
vt 0.5287 0.8736 0.0000
vt 0.5287 0.9236 0.0000
vt 0.5283 0.9236 0.0000
vt 0.5701 0.8903 0.0000
vt 0.5742 0.8903 0.0000
vt 0.5742 0.8906 0.0000
vt 0.5697 0.8906 0.0000
vt 0.5701 0.8736 0.0000
vt 0.5697 0.8736 0.0000
vt 0.2973 0.8564 0.0000
vt 0.2973 0.8727 0.0000
vt 0.3011 0.8727 0.0000
vt 0.3011 0.8564 0.0000
vt 0.2973 0.8902 0.0000
vt 0.2973 0.9064 0.0000
vt 0.3011 0.9064 0.0000
vt 0.3011 0.8902 0.0000
vt 0.2511 0.8564 0.0000
vt 0.2511 0.9064 0.0000
vt 0.2548 0.9064 0.0000
vt 0.2548 0.8564 0.0000
# 256 texture coords

g SPW_Urban_Road_4way_2way_Intersection_01
usemtl SPW_Urban_Road
s 1
f 1/1/1 2/2/1 3/3/1 4/4/1 
f 5/5/1 6/6/2 7/7/1 8/8/1 
f 5/5/1 8/8/1 9/9/1 10/10/2 
f 5/5/1 10/10/2 11/11/1 12/12/1 
f 5/5/1 12/12/1 13/13/1 14/14/1 
f 5/5/1 14/14/1 15/15/1 16/16/1 
f 5/5/1 16/16/1 17/17/1 18/18/1 
f 5/5/1 18/18/1 19/19/2 20/20/1 
f 5/5/1 20/20/1 21/21/1 22/22/1 
f 23/23/1 5/5/1 22/22/1 24/24/2 
f 23/23/1 24/24/2 25/25/1 
f 26/26/2 23/23/1 25/25/1 27/27/1 
f 25/25/1 21/21/1 20/20/1 27/27/1 
f 26/26/2 27/27/1 28/28/2 29/29/1 
f 28/28/2 19/19/2 18/18/1 29/29/1 
f 26/26/2 29/29/1 30/30/1 31/31/1 
f 30/30/1 17/17/1 16/16/1 31/31/1 
f 26/26/2 31/31/1 32/32/1 33/33/1 
f 32/32/1 15/15/1 14/14/1 33/33/1 
f 26/26/2 33/33/1 34/34/1 35/35/1 
f 34/34/1 13/13/1 12/12/1 35/35/1 
f 26/26/2 35/35/1 36/36/1 37/37/2 
f 36/36/1 11/11/1 10/10/2 37/37/2 
f 26/26/2 37/37/2 38/38/1 39/39/1 
f 38/38/1 9/9/1 8/8/1 39/39/1 
f 26/26/2 39/39/1 40/40/1 7/7/1 
f 26/26/2 7/7/1 6/6/2 
f 41/41/2 42/42/2 43/43/2 44/44/2 
f 45/45/1 46/46/2 47/47/2 48/48/1 
f 49/49/1 48/48/1 47/47/2 50/50/1 
f 51/51/1 50/50/1 47/47/2 52/52/1 
f 53/53/2 52/52/1 47/47/2 54/54/2 
f 55/55/1 54/54/2 47/47/2 56/56/1 
f 57/57/1 56/56/1 47/47/2 58/58/1 
f 59/59/1 58/58/1 47/47/2 60/60/1 
f 60/60/1 61/61/1 62/62/1 63/63/1 
f 59/59/1 60/60/1 63/63/1 64/64/2 
f 64/64/2 65/65/2 66/66/1 67/67/1 
f 59/59/1 64/64/2 67/67/1 68/68/1 
f 68/68/1 69/69/1 70/70/1 71/71/1 
f 59/59/1 68/68/1 71/71/1 72/72/2 
f 59/59/1 72/72/2 73/73/1 74/74/1 
f 75/75/1 76/76/1 77/77/1 78/78/1 
f 77/77/1 79/79/1 80/80/1 78/78/1 
f 75/75/1 78/78/1 81/81/1 82/82/2 
f 81/81/1 83/83/1 84/84/2 82/82/2 
f 75/75/1 82/82/2 85/85/1 86/86/2 
f 76/76/1 75/75/1 87/87/1 88/88/1 
f 88/88/1 87/87/1 89/89/1 79/79/1 
f 80/80/1 79/79/1 89/89/1 83/83/1 
f 84/84/2 83/83/1 89/89/1 90/90/1 
f 91/91/1 90/90/1 89/89/1 92/92/1 
f 93/93/2 92/92/1 89/89/1 61/61/1 
f 62/62/1 61/61/1 89/89/1 65/65/2 
f 66/66/1 65/65/2 89/89/1 69/69/1 
f 70/70/1 69/69/1 89/89/1 73/73/1 
f 74/74/1 73/73/1 89/89/1 
f 85/85/1 90/90/1 91/91/1 94/94/1 
f 95/95/1 92/92/1 93/93/2 46/46/2 
f 93/93/2 47/47/2 46/46/2 
f 94/94/1 95/95/1 46/46/2 85/85/1 
f 46/46/2 96/96/1 97/97/1 98/98/1 
f 85/85/1 46/46/2 98/98/1 99/99/1 
f 85/85/1 99/99/1 100/100/1 101/101/2 
f 86/86/2 85/85/1 101/101/2 102/102/2 
f 103/103/1 86/86/2 102/102/2 104/104/1 
f 103/103/1 104/104/1 105/105/1 106/106/1 
f 105/105/1 53/53/2 54/54/2 106/106/1 
f 103/103/1 106/106/1 107/107/1 108/108/1 
f 107/107/1 55/55/1 56/56/1 108/108/1 
f 103/103/1 108/108/1 109/109/1 57/57/1 
f 103/103/1 57/57/1 58/58/1 
f 110/110/1 105/105/1 104/104/1 97/97/1 
f 104/104/1 100/100/1 99/99/1 111/111/1 
f 104/104/1 111/111/1 97/97/1 
f 97/97/1 96/96/1 112/112/1 113/113/1 
f 112/112/1 45/45/1 48/48/1 114/114/1 
f 112/112/1 114/114/1 113/113/1 
f 110/110/1 97/97/1 113/113/1 115/115/1 
f 113/113/1 49/49/1 50/50/1 115/115/1 
f 110/110/1 115/115/1 116/116/1 52/52/1 
f 52/52/1 116/116/1 51/51/1 
f 117/117/1 118/118/1 119/119/1 120/120/2 
f 121/121/1 122/122/1 123/123/1 124/124/1 
f 40/125/1 39/126/1 8/127/1 7/128/1 
f 38/129/1 37/130/2 10/131/2 9/132/1 
f 36/133/1 35/134/1 12/135/1 11/136/1 
f 34/137/1 33/138/1 14/139/1 13/140/1 
f 32/141/1 31/142/1 16/143/1 15/144/1 
f 30/145/1 29/146/1 18/147/1 17/148/1 
f 28/149/2 27/150/1 20/151/1 19/152/2 
f 21/153/1 25/154/1 24/155/2 22/156/1 
f 77/157/1 76/158/1 88/159/1 79/160/1 
f 84/161/2 90/162/1 85/163/1 82/164/2 
f 80/165/1 83/166/1 81/167/1 78/168/1 
f 95/169/1 94/170/1 91/171/1 92/172/1 
f 47/173/2 93/174/2 61/175/1 60/176/1 
f 62/177/1 65/178/2 64/179/2 63/180/1 
f 66/181/1 69/182/1 68/183/1 67/184/1 
f 70/185/1 73/186/1 72/187/2 71/188/1 
f 109/189/1 108/190/1 56/191/1 57/192/1 
f 107/193/1 106/194/1 54/195/2 55/196/1 
f 110/197/1 52/198/1 53/199/2 105/200/1 
f 116/201/1 115/202/1 50/203/1 51/204/1 
f 113/205/1 114/206/1 48/207/1 49/208/1 
f 112/209/1 96/210/1 46/211/2 45/212/1 
f 97/213/1 111/214/1 99/215/1 98/216/1 
f 100/217/1 104/218/1 102/219/2 101/220/2 
f 124/221/1 123/222/1 87/223/1 75/224/1 
f 121/225/1 124/221/1 75/224/1 86/226/2 
f 42/227/2 74/228/1 89/229/1 43/230/2 
f 26/231/2 41/232/2 44/233/2 23/234/1 
f 2/235/1 6/236/2 5/237/1 3/238/1 
f 120/239/2 119/240/1 103/241/1 58/242/1 
f 117/243/1 120/239/2 58/242/1 59/244/1 
s off
f 125/245/3 126/246/3 127/246/3 128/245/3 
f 126/246/4 129/247/4 130/247/4 127/246/4 
f 129/247/5 131/248/5 132/248/5 130/247/5 
f 131/248/6 125/245/6 128/245/6 132/248/6 
f 128/245/7 127/246/7 130/247/7 132/248/7 
f 131/248/1 129/247/1 126/246/1 125/245/1 
f 133/249/3 134/250/3 135/250/3 136/249/3 
f 134/250/4 137/251/4 138/251/4 135/250/4 
f 137/251/5 139/252/5 140/252/5 138/251/5 
f 139/252/6 133/249/6 136/249/6 140/252/6 
f 136/249/7 135/250/7 138/251/7 140/252/7 
f 139/252/1 137/251/1 134/250/1 133/249/1 
f 141/253/3 142/254/3 4/254/3 1/253/3 
f 142/254/4 143/255/4 144/255/4 4/254/4 
f 143/255/5 145/256/5 146/256/5 144/255/5 
f 145/256/6 141/253/6 1/253/6 146/256/6 
f 1/253/7 4/254/7 144/255/7 146/256/7 
f 145/256/1 143/255/1 142/254/1 141/253/1 
# 125 polygons - 8 triangles

