# 3ds Max Wavefront OBJ Exporter v0.97b - (c)2007 guruware
# File Created: 15.03.2017 11:38:00

mtllib SPW_Urban_Road 4way_Corner_02.mtl

#
# object SPW_Urban_Road_4way_Corner_02
#

v  787.4016 -0.0001 787.4016
v  787.4016 -0.0001 657.4803
v  657.4805 -0.0001 657.4803
v  657.4805 -0.0001 787.4016
v  358.2678 -0.0001 629.9213
v  370.0788 -0.0001 629.9216
v  370.0788 -0.0001 543.3072
v  358.2677 -0.0001 543.3072
v  358.2677 -0.0001 421.2601
v  370.0787 -0.0001 421.2601
v  82.6771 -0.0000 82.6772
v  358.2678 -0.0001 748.0317
v  82.6772 -0.0001 787.4016
v  370.0788 -0.0001 748.0318
v  645.6694 -0.0001 787.4016
v  645.6694 -0.0001 645.6694
v  787.4016 -0.0001 645.6694
v  748.0315 -0.0000 370.0787
v  629.9212 -0.0000 370.0787
v  421.2599 -0.0000 370.0787
v  543.3071 -0.0000 370.0787
v  421.2599 -0.0000 358.2677
v  787.4016 -0.0000 82.6771
v  543.3071 -0.0000 358.2677
v  629.9212 -0.0000 358.2677
v  748.0315 -0.0000 358.2677
v  -370.0788 0.0000 -7.8742
v  -358.2678 0.0000 -7.8741
v  -358.2678 0.0000 -125.9844
v  -370.0788 0.0000 -125.9844
v  -70.8662 0.0000 -70.8661
v  -70.8661 -0.0001 787.4016
v  70.8662 -0.0001 787.4016
v  70.8662 -0.0000 70.8661
v  787.4016 0.0000 -70.8662
v  787.4016 -0.0000 70.8661
v  -358.2679 -0.0000 62.9919
v  -358.2679 -0.0000 181.1022
v  -358.2678 -0.0000 251.9683
v  -370.0789 -0.0000 62.9919
v  -645.6692 0.0001 -645.6693
v  -370.0788 0.0000 -309.0554
v  -309.0552 0.0000 -370.0787
v  -125.9843 0.0000 -358.2677
v  -196.8504 0.0000 -358.2677
v  -7.8741 0.0000 -358.2677
v  62.9921 0.0000 -358.2677
v  181.1023 0.0000 -358.2677
v  251.9685 0.0000 -358.2677
v  -358.2678 0.0000 -309.0554
v  -358.2678 -0.0001 633.8580
v  -358.2678 -0.0001 751.9684
v  -82.6772 -0.0001 787.4016
v  -358.2678 -0.0001 559.0549
v  -358.2678 -0.0001 440.9446
v  -358.2678 -0.0000 370.0785
v  -358.2678 0.0000 -196.8506
v  -82.6773 0.0000 -82.6772
v  370.0787 0.0000 -358.2677
v  440.9449 0.0000 -358.2678
v  559.0551 0.0000 -358.2678
v  633.8583 0.0000 -358.2678
v  751.9686 0.0000 -358.2678
v  787.4016 0.0000 -82.6772
v  -370.0788 0.0000 -196.8506
v  -370.0789 -0.0000 181.1022
v  -370.0789 -0.0000 370.0785
v  -370.0789 -0.0000 251.9683
v  -370.0788 -0.0001 440.9446
v  -370.0788 -0.0001 559.0549
v  -370.0788 -0.0001 633.8580
v  -370.0788 -0.0001 751.9683
v  -309.0552 0.0000 -358.2677
v  -196.8504 0.0000 -370.0787
v  -125.9843 0.0000 -370.0787
v  -7.8741 0.0000 -370.0787
v  181.1023 0.0000 -370.0787
v  62.9921 0.0000 -370.0787
v  370.0787 0.0000 -370.0787
v  251.9685 0.0000 -370.0787
v  559.0551 0.0000 -370.0788
v  440.9449 0.0000 -370.0788
v  751.9686 0.0000 -370.0788
v  633.8583 0.0000 -370.0788
v  -787.4016 0.0001 -787.4016
v  -787.4016 -0.0001 787.4016
v  -657.4803 -0.0001 787.4016
v  -657.4803 0.0001 -657.4803
v  787.4016 0.0001 -787.4016
v  787.4016 0.0001 -657.4803
v  -645.6694 -0.0001 787.4016
v  787.4016 0.0001 -645.6693
v  787.4017 7.8741 -669.2918
v  -669.2914 7.8741 -669.2918
v  -669.2914 0.0001 -669.2918
v  787.4017 0.0001 -669.2918
v  -669.2914 7.8741 -787.4020
v  -669.2914 0.0001 -787.4020
v  787.4017 7.8741 -787.4020
v  787.4017 0.0001 -787.4020
v  -669.2913 7.8739 787.4015
v  -787.4016 7.8739 787.4015
v  -787.4016 -0.0001 787.4015
v  -669.2913 -0.0001 787.4015
v  -787.4016 7.8741 -787.4019
v  -787.4016 0.0001 -787.4019
v  -669.2913 7.8741 -787.4019
v  -669.2913 0.0001 -787.4019
v  787.4017 7.8739 787.4014
v  669.2915 7.8739 787.4014
v  669.2915 -0.0001 787.4014
v  787.4017 -0.0001 787.4014
v  669.2915 7.8739 669.2912
v  669.2915 -0.0001 669.2912
v  787.4017 7.8739 669.2912
v  787.4017 -0.0001 669.2912
# 116 vertices

vn 0.0000 1.0000 0.0000
vn -0.0000 1.0000 0.0000
vn 0.0000 -0.0000 1.0000
vn -1.0000 0.0000 -0.0000
vn 0.0000 0.0000 -1.0000
vn 1.0000 0.0000 -0.0000
vn 0.0000 -1.0000 -0.0000
# 7 vertex normals

vt 0.3643 0.8638 0.0000
vt 0.3684 0.8638 0.0000
vt 0.3684 0.8679 0.0000
vt 0.3643 0.8679 0.0000
vt 0.3693 0.8774 0.0000
vt 0.3693 0.8771 0.0000
vt 0.3720 0.8771 0.0000
vt 0.3720 0.8774 0.0000
vt 0.3759 0.8774 0.0000
vt 0.3759 0.8771 0.0000
vt 0.3866 0.8862 0.0000
vt 0.3655 0.8774 0.0000
vt 0.3643 0.8862 0.0000
vt 0.3655 0.8771 0.0000
vt 0.3643 0.8683 0.0000
vt 0.3688 0.8683 0.0000
vt 0.3688 0.8638 0.0000
vt 0.3775 0.8651 0.0000
vt 0.3775 0.8688 0.0000
vt 0.3775 0.8754 0.0000
vt 0.3775 0.8716 0.0000
vt 0.3779 0.8754 0.0000
vt 0.3866 0.8638 0.0000
vt 0.3779 0.8716 0.0000
vt 0.3779 0.8688 0.0000
vt 0.3779 0.8651 0.0000
vt 0.5421 0.9079 0.0000
vt 0.5421 0.9076 0.0000
vt 0.5458 0.9076 0.0000
vt 0.5458 0.9079 0.0000
vt 0.3915 0.8911 0.0000
vt 0.3643 0.8911 0.0000
vt 0.3643 0.8866 0.0000
vt 0.3870 0.8866 0.0000
vt 0.3915 0.8638 0.0000
vt 0.3870 0.8638 0.0000
vt 0.3873 0.9002 0.0000
vt 0.3835 0.9002 0.0000
vt 0.3813 0.9002 0.0000
vt 0.3895 0.9002 0.0000
vt 0.3895 0.9006 0.0000
vt 0.3873 0.9006 0.0000
vt 0.4098 0.9093 0.0000
vt 0.3991 0.9006 0.0000
vt 0.4010 0.8986 0.0000
vt 0.4006 0.8928 0.0000
vt 0.4006 0.8951 0.0000
vt 0.4006 0.8891 0.0000
vt 0.4006 0.8868 0.0000
vt 0.4006 0.8831 0.0000
vt 0.4006 0.8808 0.0000
vt 0.3991 0.9002 0.0000
vt 0.3691 0.9002 0.0000
vt 0.3654 0.9002 0.0000
vt 0.3643 0.8914 0.0000
vt 0.3715 0.9002 0.0000
vt 0.3753 0.9002 0.0000
vt 0.3775 0.9002 0.0000
vt 0.3933 0.9002 0.0000
vt 0.3955 0.9002 0.0000
vt 0.3919 0.8914 0.0000
vt 0.4006 0.8771 0.0000
vt 0.4006 0.8748 0.0000
vt 0.4006 0.8711 0.0000
vt 0.4006 0.8687 0.0000
vt 0.4006 0.8649 0.0000
vt 0.3919 0.8638 0.0000
vt 0.5516 0.9079 0.0000
vt 0.5481 0.9079 0.0000
vt 0.5481 0.9076 0.0000
vt 0.5516 0.9076 0.0000
vt 0.5361 0.9076 0.0000
vt 0.5398 0.9076 0.0000
vt 0.5398 0.9079 0.0000
vt 0.5361 0.9079 0.0000
vt 0.5301 0.9079 0.0000
vt 0.5301 0.9076 0.0000
vt 0.5338 0.9076 0.0000
vt 0.5338 0.9079 0.0000
vt 0.5278 0.9079 0.0000
vt 0.5241 0.9079 0.0000
vt 0.5241 0.9076 0.0000
vt 0.5278 0.9076 0.0000
vt 0.5217 0.9079 0.0000
vt 0.5180 0.9079 0.0000
vt 0.5180 0.9076 0.0000
vt 0.5217 0.9076 0.0000
vt 0.5536 0.9060 0.0000
vt 0.5532 0.9060 0.0000
vt 0.5532 0.9024 0.0000
vt 0.5536 0.9024 0.0000
vt 0.5536 0.9002 0.0000
vt 0.5532 0.9002 0.0000
vt 0.5532 0.8964 0.0000
vt 0.5536 0.8964 0.0000
vt 0.5536 0.8904 0.0000
vt 0.5536 0.8942 0.0000
vt 0.5532 0.8942 0.0000
vt 0.5532 0.8904 0.0000
vt 0.5536 0.8844 0.0000
vt 0.5536 0.8882 0.0000
vt 0.5532 0.8882 0.0000
vt 0.5532 0.8844 0.0000
vt 0.5536 0.8784 0.0000
vt 0.5536 0.8822 0.0000
vt 0.5532 0.8822 0.0000
vt 0.5532 0.8784 0.0000
vt 0.5536 0.8723 0.0000
vt 0.5536 0.8761 0.0000
vt 0.5532 0.8761 0.0000
vt 0.5532 0.8723 0.0000
vt 0.5445 0.8988 0.0000
vt 0.5168 0.8988 0.0000
vt 0.5168 0.8984 0.0000
vt 0.5441 0.8984 0.0000
vt 0.5445 0.8712 0.0000
vt 0.5441 0.8712 0.0000
vt 0.4143 0.9138 0.0000
vt 0.3643 0.9138 0.0000
vt 0.3643 0.9097 0.0000
vt 0.4101 0.9097 0.0000
vt 0.4143 0.8638 0.0000
vt 0.4101 0.8638 0.0000
vt 0.5627 0.9171 0.0000
vt 0.5168 0.9171 0.0000
vt 0.5168 0.9167 0.0000
vt 0.5623 0.9167 0.0000
vt 0.5627 0.8712 0.0000
vt 0.5623 0.8712 0.0000
vt 0.5396 0.8939 0.0000
vt 0.5168 0.8939 0.0000
vt 0.5168 0.8936 0.0000
vt 0.5392 0.8936 0.0000
vt 0.5396 0.8712 0.0000
vt 0.5392 0.8712 0.0000
vt 0.5246 0.8844 0.0000
vt 0.5285 0.8844 0.0000
vt 0.5285 0.8848 0.0000
vt 0.5246 0.8848 0.0000
vt 0.5181 0.8844 0.0000
vt 0.5218 0.8844 0.0000
vt 0.5218 0.8848 0.0000
vt 0.5181 0.8848 0.0000
vt 0.5305 0.8789 0.0000
vt 0.5305 0.8828 0.0000
vt 0.5301 0.8828 0.0000
vt 0.5301 0.8789 0.0000
vt 0.5305 0.8724 0.0000
vt 0.5305 0.8762 0.0000
vt 0.5301 0.8762 0.0000
vt 0.5301 0.8724 0.0000
vt 0.5213 0.8757 0.0000
vt 0.5168 0.8757 0.0000
vt 0.5168 0.8753 0.0000
vt 0.5210 0.8753 0.0000
vt 0.5213 0.8712 0.0000
vt 0.5210 0.8712 0.0000
vt 0.2727 0.8909 0.0000
vt 0.2727 0.9371 0.0000
vt 0.2765 0.9371 0.0000
vt 0.2765 0.8909 0.0000
vt 0.2265 0.9371 0.0000
vt 0.2265 0.9409 0.0000
vt 0.2765 0.9409 0.0000
vt 0.2265 0.8909 0.0000
vt 0.2265 0.8946 0.0000
vt 0.2302 0.8946 0.0000
vt 0.2302 0.8909 0.0000
vt 0.4010 0.8649 0.0000
vt 0.4010 0.8687 0.0000
vt 0.4098 0.8638 0.0000
vt 0.4010 0.8711 0.0000
vt 0.3643 0.9093 0.0000
vt 0.4010 0.8868 0.0000
vt 0.3654 0.9006 0.0000
vt 0.3691 0.9006 0.0000
vt 0.3715 0.9006 0.0000
vt 0.4010 0.8748 0.0000
vt 0.4010 0.8771 0.0000
vt 0.4010 0.8808 0.0000
vt 0.4010 0.8831 0.0000
vt 0.3753 0.9006 0.0000
vt 0.3775 0.9006 0.0000
vt 0.4010 0.8891 0.0000
vt 0.3813 0.9006 0.0000
vt 0.4010 0.8928 0.0000
vt 0.3835 0.9006 0.0000
vt 0.3933 0.9006 0.0000
vt 0.3955 0.9006 0.0000
vt 0.4006 0.8986 0.0000
vt 0.4010 0.8951 0.0000
# 191 texture coords

g SPW_Urban_Road_4way_Corner_02
usemtl SPW_Urban_Road
s 1
f 1/1/1 2/2/1 3/3/1 4/4/1 
f 5/5/2 6/6/2 7/7/2 8/8/2 
f 9/9/1 10/10/2 11/11/1 8/8/2 
f 5/5/2 8/8/2 11/11/1 12/12/1 
f 12/12/1 11/11/1 13/13/1 14/14/1 
f 15/15/2 14/14/1 13/13/1 
f 16/16/1 17/17/1 18/18/1 19/19/2 
f 15/15/2 16/16/1 19/19/2 10/10/2 
f 20/20/2 11/11/1 10/10/2 21/21/2 
f 19/19/2 21/21/2 10/10/2 
f 15/15/2 10/10/2 7/7/2 6/6/2 
f 15/15/2 6/6/2 14/14/1 
f 11/11/1 20/20/2 22/22/2 23/23/2 
f 23/23/2 22/22/2 24/24/2 25/25/1 
f 24/24/2 21/21/2 19/19/2 25/25/1 
f 23/23/2 25/25/1 26/26/1 18/18/1 
f 23/23/2 18/18/1 17/17/1 
f 27/27/1 28/28/2 29/29/2 30/30/2 
f 31/31/1 32/32/1 33/33/1 34/34/1 
f 35/35/2 31/31/1 34/34/1 36/36/2 
f 37/37/1 38/38/2 39/39/2 28/40/2 
f 37/37/1 28/40/2 27/41/1 40/42/1 
f 41/43/2 42/44/2 43/45/1 
f 44/46/1 45/47/1 42/44/2 46/48/1 
f 47/49/1 46/48/1 42/44/2 48/50/1 
f 49/51/1 48/50/1 42/44/2 50/52/2 
f 51/53/2 52/54/2 53/55/2 54/56/2 
f 55/57/1 54/56/2 53/55/2 56/58/2 
f 39/39/2 56/58/2 53/55/2 28/40/2 
f 29/59/2 28/40/2 53/55/2 57/60/2 
f 50/52/2 57/60/2 53/55/2 58/61/1 
f 49/51/1 50/52/2 58/61/1 59/62/1 
f 60/63/1 59/62/1 58/61/1 61/64/1 
f 62/65/1 61/64/1 58/61/1 63/66/2 
f 64/67/2 63/66/2 58/61/1 
f 42/68/2 65/69/2 57/70/2 50/71/2 
f 38/72/2 37/73/1 40/74/1 66/75/1 
f 67/76/1 56/77/2 39/78/2 68/79/1 
f 69/80/2 70/81/2 54/82/2 55/83/1 
f 71/84/2 72/85/2 52/86/2 51/87/2 
f 43/88/1 73/89/1 45/90/1 74/91/1 
f 75/92/1 44/93/1 46/94/1 76/95/1 
f 77/96/1 78/97/1 47/98/1 48/99/1 
f 79/100/1 80/101/1 49/102/1 59/103/1 
f 81/104/1 82/105/1 60/106/1 61/107/1 
f 83/108/2 84/109/1 62/110/1 63/111/2 
f 58/112/1 53/113/2 32/114/1 31/115/1 
f 64/116/2 58/112/1 31/115/1 35/117/2 
f 85/118/2 86/119/1 87/120/2 88/121/2 
f 89/122/1 85/118/2 88/121/2 90/123/1 
f 88/124/2 87/125/2 91/126/1 41/127/2 
f 90/128/1 88/124/2 41/127/2 92/129/2 
f 34/130/1 33/131/1 13/132/1 11/133/1 
f 36/134/2 34/130/1 11/133/1 23/135/2 
f 7/136/2 10/137/2 9/138/1 8/139/2 
f 14/140/1 6/141/2 5/142/2 12/143/1 
f 24/144/2 22/145/2 20/146/2 21/147/2 
f 26/148/1 25/149/1 19/150/2 18/151/1 
f 16/152/1 15/153/2 4/154/1 3/155/1 
f 17/156/1 16/152/1 3/155/1 2/157/1 
s off
f 93/158/3 94/159/3 95/159/3 96/158/3 
f 94/159/4 97/160/4 98/160/4 95/159/4 
f 97/160/5 99/161/5 100/161/5 98/160/5 
f 99/161/6 93/158/6 96/158/6 100/161/6 
f 96/158/7 95/159/7 98/160/7 100/161/7 
f 99/161/2 97/160/2 94/159/2 93/158/2 
f 101/162/3 102/163/3 103/163/3 104/162/3 
f 102/163/4 105/164/4 106/164/4 103/163/4 
f 105/164/5 107/160/5 108/160/5 106/164/5 
f 107/160/6 101/162/6 104/162/6 108/160/6 
f 104/162/7 103/163/7 106/164/7 108/160/7 
f 107/160/1 105/164/1 102/163/1 101/162/1 
f 109/165/3 110/166/3 111/166/3 112/165/3 
f 110/166/4 113/167/4 114/167/4 111/166/4 
f 113/167/5 115/168/5 116/168/5 114/167/5 
f 115/168/6 109/165/6 112/165/6 116/168/6 
f 112/165/7 111/166/7 114/167/7 116/168/7 
f 115/168/1 113/167/1 110/166/1 109/165/1 
s 1
f 83/169/2 63/66/2 64/67/2 
f 61/64/1 62/65/1 84/170/1 
f 83/169/2 64/67/2 92/171/2 
f 81/172/1 61/64/1 84/170/1 
f 84/170/1 83/169/2 92/171/2 
f 91/173/1 53/55/2 52/54/2 
f 78/174/1 92/171/2 41/43/2 
f 91/173/1 52/54/2 72/175/2 
f 81/172/1 84/170/1 92/171/2 
f 71/176/2 91/173/1 72/175/2 
f 71/176/2 51/53/2 54/56/2 
f 70/177/2 91/173/1 71/176/2 
f 82/178/1 81/172/1 92/171/2 
f 79/179/1 60/63/1 82/178/1 
f 48/50/1 49/51/1 80/180/1 
f 79/179/1 59/62/1 60/63/1 
f 77/181/1 48/50/1 80/180/1 
f 92/171/2 79/179/1 82/178/1 
f 71/176/2 54/56/2 70/177/2 
f 80/180/1 79/179/1 92/171/2 
f 69/182/2 91/173/1 70/177/2 
f 69/182/2 55/57/1 56/58/2 
f 67/183/1 91/173/1 69/182/2 
f 77/181/1 80/180/1 92/171/2 
f 46/48/1 47/49/1 78/174/1 
f 78/174/1 77/181/1 92/171/2 
f 69/182/2 56/58/2 67/183/1 
f 76/184/1 46/48/1 78/174/1 
f 68/185/1 91/173/1 67/183/1 
f 76/184/1 78/174/1 41/43/2 
f 45/47/1 44/46/1 75/186/1 
f 75/186/1 76/184/1 41/43/2 
f 66/187/1 91/173/1 68/185/1 
f 68/185/1 39/39/2 38/38/2 
f 41/43/2 27/41/1 30/188/2 
f 68/185/1 38/38/2 66/187/1 
f 30/188/2 29/59/2 57/60/2 
f 91/173/1 66/187/1 40/42/1 
f 30/188/2 57/60/2 65/189/2 
f 41/43/2 91/173/1 40/42/1 
f 41/43/2 30/188/2 65/189/2 
f 42/44/2 45/47/1 73/190/1 
f 41/43/2 65/189/2 42/44/2 
f 74/191/1 45/47/1 75/186/1 
f 41/43/2 40/42/1 27/41/1 
f 74/191/1 75/186/1 41/43/2 
f 42/44/2 73/190/1 43/45/1 
f 43/45/1 74/191/1 41/43/2 
# 72 polygons - 54 triangles

