# 3ds Max Wavefront OBJ Exporter v0.97b - (c)2007 guruware
# File Created: 15.03.2017 11:37:16

mtllib SPW_Urban_Road 4way_Bus Lane.mtl

#
# object SPW_Urban_Road_4way_Bus_Lane
#

v  787.4015 7.8739 787.4017
v  -787.4016 7.8739 787.4017
v  -787.4016 -0.0001 787.4017
v  787.4015 -0.0001 787.4017
v  -787.4016 7.8739 669.2914
v  -787.4016 -0.0001 669.2914
v  787.4015 7.8739 669.2914
v  787.4015 -0.0001 669.2914
v  -787.4017 7.8741 -787.4018
v  -642.1439 7.8741 -787.4018
v  -642.1439 0.0001 -787.4018
v  -787.4017 0.0001 -787.4018
v  -642.1439 7.8741 -669.2916
v  -642.1439 0.0001 -669.2916
v  -787.4017 7.8741 -669.2916
v  -787.4017 0.0001 -669.2916
v  -380.7564 7.8741 -1003.9361
v  -642.1540 7.8741 -669.2923
v  -642.1540 0.0001 -669.2923
v  -380.7564 0.0001 -1003.9361
v  -744.4405 7.8741 -728.3474
v  -744.4405 0.0001 -728.3474
v  -483.0429 7.8741 -1062.9912
v  -483.0429 0.0001 -1062.9912
v  642.1541 7.8741 -669.2923
v  380.7564 7.8741 -1003.9361
v  380.7564 0.0001 -1003.9361
v  642.1541 0.0001 -669.2923
v  483.0428 7.8741 -1062.9912
v  483.0428 0.0001 -1062.9912
v  744.4405 7.8741 -728.3474
v  744.4405 0.0001 -728.3474
v  787.4016 7.8741 -669.2914
v  642.1439 7.8741 -669.2914
v  642.1439 0.0001 -669.2914
v  787.4016 0.0001 -669.2914
v  642.1439 7.8741 -787.4017
v  642.1439 0.0001 -787.4017
v  787.4016 7.8741 -787.4017
v  787.4016 0.0001 -787.4017
v  787.4015 -0.0001 787.4016
v  787.4015 -0.0001 657.4803
v  -787.4016 -0.0001 657.4805
v  -787.4015 -0.0001 787.4016
v  -787.4016 -0.0001 645.6693
v  787.4015 -0.0001 645.6693
v  748.0315 -0.0000 370.0788
v  629.9213 -0.0000 370.0788
v  551.1812 -0.0000 370.0788
v  433.0709 -0.0000 370.0788
v  354.3307 -0.0000 370.0788
v  236.2205 -0.0000 370.0789
v  157.4803 -0.0000 370.0788
v  39.3701 -0.0000 370.0789
v  -39.3701 -0.0000 370.0789
v  -157.4803 -0.0000 370.0788
v  -236.2205 -0.0000 370.0788
v  -354.3307 -0.0000 370.0788
v  -433.0708 -0.0000 370.0789
v  -551.1811 -0.0000 370.0789
v  -629.9212 -0.0000 370.0789
v  -748.0315 -0.0000 370.0789
v  -787.4015 -0.0000 82.6773
v  -748.0315 -0.0000 358.2679
v  -629.9212 -0.0000 358.2679
v  787.4016 -0.0000 82.6772
v  -551.1811 -0.0000 358.2678
v  -433.0708 -0.0000 358.2679
v  -354.3307 -0.0000 358.2677
v  -236.2205 -0.0000 358.2677
v  -157.4803 -0.0000 358.2678
v  -39.3701 -0.0000 358.2678
v  39.3701 -0.0000 358.2678
v  157.4803 -0.0000 358.2678
v  236.2205 -0.0000 358.2678
v  354.3307 -0.0000 358.2677
v  433.0709 -0.0000 358.2677
v  551.1812 -0.0000 358.2677
v  629.9213 -0.0000 358.2677
v  748.0315 -0.0000 358.2678
v  787.4016 -0.0000 70.8661
v  787.4015 0.0000 -70.8661
v  -787.4016 0.0000 -70.8661
v  -787.4015 -0.0000 70.8662
v  787.4016 0.0001 -645.6694
v  629.9212 0.0001 -645.6796
v  551.1811 0.0001 -645.6694
v  -433.0709 0.0000 -358.2677
v  -157.4803 0.0001 -645.6693
v  -236.2205 0.0001 -645.6693
v  -39.3701 0.0001 -645.6694
v  39.3701 0.0001 -645.6694
v  157.4803 0.0001 -645.6693
v  236.2204 0.0001 -645.6694
v  354.3307 0.0001 -645.6694
v  433.0709 0.0001 -645.6694
v  -354.3307 0.0000 -358.2677
v  -354.3307 0.0000 -370.0788
v  -236.2205 0.0000 -370.0788
v  -157.4803 0.0000 -370.0788
v  -236.2205 0.0000 -358.2677
v  -157.4803 0.0000 -358.2677
v  -39.3701 0.0000 -370.0788
v  39.3701 0.0000 -370.0788
v  -39.3701 0.0000 -358.2677
v  39.3701 0.0000 -358.2677
v  157.4803 0.0000 -370.0788
v  236.2205 0.0000 -370.0788
v  157.4803 0.0000 -358.2677
v  236.2205 0.0000 -358.2677
v  354.3307 0.0000 -370.0788
v  433.0709 0.0000 -370.0788
v  354.3307 0.0000 -358.2677
v  433.0709 0.0000 -358.2677
v  551.1811 0.0000 -370.0788
v  629.9213 0.0000 -370.0788
v  551.1811 0.0000 -358.2677
v  629.9213 0.0000 -358.2678
v  748.0316 0.0000 -370.0788
v  748.0316 0.0000 -358.2678
v  787.4015 0.0000 -82.6772
v  -551.0081 0.0001 -746.5999
v  -551.1811 0.0001 -657.4803
v  -433.0709 0.0001 -657.4804
v  414.4350 0.0001 -921.2599
v  -433.0709 0.0001 -645.6694
v  -354.3307 0.0001 -645.6694
v  -354.3307 0.0001 -657.4805
v  -236.2205 0.0001 -657.4804
v  -157.4803 0.0001 -657.4804
v  -39.3701 0.0001 -657.4804
v  39.3701 0.0001 -657.4804
v  157.4803 0.0001 -657.4803
v  236.2204 0.0001 -657.4804
v  354.3307 0.0001 -657.4803
v  433.0709 0.0001 -657.4803
v  551.1811 0.0001 -657.4803
v  -414.4350 0.0001 -921.2600
v  -551.1811 0.0001 -645.6693
v  -748.0314 0.0000 -370.0787
v  -629.9212 0.0000 -370.0787
v  -629.9212 0.0000 -358.2677
v  -551.1811 0.0000 -358.2677
v  -551.1811 0.0000 -370.0787
v  -433.0709 0.0000 -370.0787
v  -748.0314 0.0000 -358.2677
v  -787.4016 0.0000 -82.6771
v  787.4016 0.0001 -657.4804
v  636.7463 0.0001 -657.4803
v  421.2598 0.0001 -933.0710
v  -421.2598 0.0001 -933.0611
v  -629.9213 0.0001 -645.6796
v  -636.7463 0.0001 -657.4804
v  -787.4017 0.0001 -645.6693
v  -787.4017 0.0001 -657.4803
v  -672.1217 0.0001 -735.6614
v  -787.4017 0.0001 -735.6611
v  -437.8785 0.0001 -995.5341
v  443.1954 0.0001 -998.1961
v  664.1291 0.0000 -725.0135
v  787.4016 0.0001 -725.0136
v  483.0667 7.8741 -944.8820
v  -483.0668 7.8741 -944.8819
v  -483.0668 0.0001 -944.8819
v  483.0667 0.0001 -944.8820
v  -483.0667 7.8741 -1062.9921
v  -483.0667 0.0001 -1062.9921
v  483.0667 7.8741 -1062.9922
v  483.0667 0.0001 -1062.9922
# 169 vertices

vn 0.0000 -0.0000 1.0000
vn -1.0000 0.0000 -0.0000
vn 0.0000 0.0000 -1.0000
vn 1.0000 0.0000 -0.0000
vn 0.0000 -1.0000 -0.0000
vn 0.0000 1.0000 0.0000
vn 0.7881 -0.0000 0.6156
vn -0.5000 -0.0000 0.8660
vn -0.7881 0.0000 -0.6156
vn 0.5000 0.0000 -0.8660
vn -0.0000 -1.0000 -0.0000
vn -0.7881 -0.0000 0.6156
vn -0.5000 0.0000 -0.8660
vn 0.7881 0.0000 -0.6156
vn 0.5000 -0.0000 0.8660
vn -0.0000 1.0000 0.0000
vn 0.0000 1.0000 -0.0000
vn -0.0000 1.0000 -0.0000
vn -0.0000 0.0000 -1.0000
vn 1.0000 -0.0000 0.0000
# 20 vertex normals

vt 0.2412 0.8712 0.0000
vt 0.2412 0.9212 0.0000
vt 0.2912 0.9212 0.0000
vt 0.2912 0.8712 0.0000
vt 0.2518 0.9015 0.0000
vt 0.2518 0.8969 0.0000
vt 0.2486 0.8969 0.0000
vt 0.2486 0.9015 0.0000
vt 0.2576 0.8886 0.0000
vt 0.2502 0.9001 0.0000
vt 0.2592 0.8918 0.0000
vt 0.2486 0.8561 0.0000
vt 0.2576 0.8644 0.0000
vt 0.2592 0.8612 0.0000
vt 0.2502 0.8529 0.0000
vt 0.2486 0.8515 0.0000
vt 0.2518 0.8561 0.0000
vt 0.2518 0.8515 0.0000
vt 0.3716 0.8663 0.0000
vt 0.3752 0.8663 0.0000
vt 0.3752 0.9163 0.0000
vt 0.3716 0.9163 0.0000
vt 0.3755 0.9163 0.0000
vt 0.3755 0.8663 0.0000
vt 0.3829 0.8675 0.0000
vt 0.3829 0.8713 0.0000
vt 0.3829 0.8738 0.0000
vt 0.3829 0.8775 0.0000
vt 0.3829 0.8800 0.0000
vt 0.3829 0.8838 0.0000
vt 0.3829 0.8863 0.0000
vt 0.3829 0.8900 0.0000
vt 0.3829 0.8925 0.0000
vt 0.3829 0.8963 0.0000
vt 0.3829 0.8988 0.0000
vt 0.3829 0.9025 0.0000
vt 0.3829 0.9050 0.0000
vt 0.3829 0.9088 0.0000
vt 0.3829 0.9113 0.0000
vt 0.3829 0.9150 0.0000
vt 0.3907 0.9163 0.0000
vt 0.3832 0.9150 0.0000
vt 0.3832 0.9113 0.0000
vt 0.3907 0.8663 0.0000
vt 0.3832 0.9088 0.0000
vt 0.3832 0.9050 0.0000
vt 0.3832 0.9025 0.0000
vt 0.3832 0.8988 0.0000
vt 0.3832 0.8963 0.0000
vt 0.3832 0.8925 0.0000
vt 0.3832 0.8900 0.0000
vt 0.3832 0.8863 0.0000
vt 0.3832 0.8838 0.0000
vt 0.3832 0.8800 0.0000
vt 0.3832 0.8775 0.0000
vt 0.3832 0.8738 0.0000
vt 0.3832 0.8713 0.0000
vt 0.3832 0.8675 0.0000
vt 0.3910 0.8663 0.0000
vt 0.3948 0.8663 0.0000
vt 0.3948 0.9163 0.0000
vt 0.3910 0.9163 0.0000
vt 0.4104 0.8663 0.0000
vt 0.4104 0.8713 0.0000
vt 0.4104 0.8738 0.0000
vt 0.4026 0.9050 0.0000
vt 0.4104 0.8963 0.0000
vt 0.4104 0.8988 0.0000
vt 0.4104 0.8925 0.0000
vt 0.4104 0.8900 0.0000
vt 0.4104 0.8863 0.0000
vt 0.4104 0.8838 0.0000
vt 0.4104 0.8800 0.0000
vt 0.4104 0.8775 0.0000
vt 0.4026 0.9025 0.0000
vt 0.4029 0.9025 0.0000
vt 0.4029 0.8988 0.0000
vt 0.4029 0.8963 0.0000
vt 0.4026 0.8988 0.0000
vt 0.4026 0.8963 0.0000
vt 0.4029 0.8925 0.0000
vt 0.4029 0.8900 0.0000
vt 0.4026 0.8925 0.0000
vt 0.4026 0.8900 0.0000
vt 0.4029 0.8863 0.0000
vt 0.4029 0.8838 0.0000
vt 0.4026 0.8863 0.0000
vt 0.4026 0.8838 0.0000
vt 0.4029 0.8800 0.0000
vt 0.4029 0.8775 0.0000
vt 0.4026 0.8800 0.0000
vt 0.4026 0.8775 0.0000
vt 0.4029 0.8738 0.0000
vt 0.4029 0.8713 0.0000
vt 0.4026 0.8738 0.0000
vt 0.4026 0.8713 0.0000
vt 0.4029 0.8675 0.0000
vt 0.4026 0.8675 0.0000
vt 0.3952 0.8663 0.0000
vt 0.9098 0.9880 0.0000
vt 0.8692 0.9881 0.0000
vt 0.8692 0.9343 0.0000
vt 0.9894 0.5479 0.0000
vt 0.8638 0.9343 0.0000
vt 0.8638 0.8984 0.0000
vt 0.8692 0.8984 0.0000
vt 0.8692 0.8445 0.0000
vt 0.8638 0.8445 0.0000
vt 0.8638 0.8086 0.0000
vt 0.8692 0.8086 0.0000
vt 0.8692 0.7548 0.0000
vt 0.8638 0.7548 0.0000
vt 0.8638 0.7189 0.0000
vt 0.8692 0.7189 0.0000
vt 0.8692 0.6650 0.0000
vt 0.8638 0.6650 0.0000
vt 0.8638 0.6291 0.0000
vt 0.8692 0.6291 0.0000
vt 0.8692 0.5753 0.0000
vt 0.8638 0.5753 0.0000
vt 0.8638 0.5394 0.0000
vt 0.8692 0.5394 0.0000
vt 0.8692 0.4855 0.0000
vt 0.8638 0.4855 0.0000
vt 0.8638 0.4496 0.0000
vt 0.9894 0.9258 0.0000
vt 0.4104 0.9088 0.0000
vt 0.4107 0.9088 0.0000
vt 0.4029 0.9150 0.0000
vt 0.4104 0.9050 0.0000
vt 0.4029 0.9113 0.0000
vt 0.4026 0.9113 0.0000
vt 0.4026 0.9088 0.0000
vt 0.4029 0.9088 0.0000
vt 0.4029 0.9050 0.0000
vt 0.4104 0.9025 0.0000
vt 0.5801 0.9099 0.0000
vt 0.5801 0.9137 0.0000
vt 0.5798 0.9137 0.0000
vt 0.5798 0.9099 0.0000
vt 0.5798 0.9162 0.0000
vt 0.5801 0.9162 0.0000
vt 0.5801 0.9199 0.0000
vt 0.5798 0.9199 0.0000
vt 0.5601 0.9162 0.0000
vt 0.5604 0.9162 0.0000
vt 0.5604 0.9199 0.0000
vt 0.5601 0.9199 0.0000
vt 0.5604 0.9099 0.0000
vt 0.5604 0.9137 0.0000
vt 0.5601 0.9137 0.0000
vt 0.5601 0.9099 0.0000
vt 0.5604 0.9037 0.0000
vt 0.5604 0.9074 0.0000
vt 0.5601 0.9074 0.0000
vt 0.5601 0.9037 0.0000
vt 0.5604 0.8912 0.0000
vt 0.5604 0.8949 0.0000
vt 0.5601 0.8949 0.0000
vt 0.5601 0.8912 0.0000
vt 0.5604 0.8974 0.0000
vt 0.5604 0.9012 0.0000
vt 0.5601 0.9012 0.0000
vt 0.5601 0.8974 0.0000
vt 0.5604 0.8849 0.0000
vt 0.5604 0.8887 0.0000
vt 0.5601 0.8887 0.0000
vt 0.5601 0.8849 0.0000
vt 0.5604 0.8787 0.0000
vt 0.5604 0.8824 0.0000
vt 0.5601 0.8824 0.0000
vt 0.5601 0.8787 0.0000
vt 0.5604 0.8724 0.0000
vt 0.5604 0.8762 0.0000
vt 0.5601 0.8762 0.0000
vt 0.5601 0.8724 0.0000
vt 0.5798 0.9074 0.0000
vt 0.5798 0.9037 0.0000
vt 0.5801 0.9037 0.0000
vt 0.5801 0.9074 0.0000
vt 0.5798 0.9012 0.0000
vt 0.5798 0.8974 0.0000
vt 0.5801 0.8974 0.0000
vt 0.5801 0.9012 0.0000
vt 0.5798 0.8949 0.0000
vt 0.5798 0.8912 0.0000
vt 0.5801 0.8912 0.0000
vt 0.5801 0.8949 0.0000
vt 0.5798 0.8887 0.0000
vt 0.5798 0.8849 0.0000
vt 0.5801 0.8849 0.0000
vt 0.5801 0.8887 0.0000
vt 0.5798 0.8824 0.0000
vt 0.5798 0.8787 0.0000
vt 0.5801 0.8787 0.0000
vt 0.5801 0.8824 0.0000
vt 0.5798 0.8762 0.0000
vt 0.5798 0.8724 0.0000
vt 0.5801 0.8724 0.0000
vt 0.5801 0.8762 0.0000
vt 0.5879 0.8787 0.0000
vt 0.5879 0.8824 0.0000
vt 0.5875 0.8824 0.0000
vt 0.5875 0.8787 0.0000
vt 0.5879 0.8887 0.0000
vt 0.5875 0.8887 0.0000
vt 0.5875 0.8849 0.0000
vt 0.5879 0.8849 0.0000
vt 0.5875 0.8949 0.0000
vt 0.5875 0.8912 0.0000
vt 0.5879 0.8912 0.0000
vt 0.5879 0.8949 0.0000
vt 0.5879 0.8974 0.0000
vt 0.5879 0.9012 0.0000
vt 0.5875 0.9012 0.0000
vt 0.5875 0.8974 0.0000
vt 0.5875 0.9074 0.0000
vt 0.5875 0.9037 0.0000
vt 0.5879 0.9037 0.0000
vt 0.5879 0.9074 0.0000
vt 0.5879 0.9137 0.0000
vt 0.5875 0.9137 0.0000
vt 0.5875 0.9099 0.0000
vt 0.5879 0.9099 0.0000
vt 0.5720 0.8712 0.0000
vt 0.5723 0.8712 0.0000
vt 0.5723 0.9212 0.0000
vt 0.5720 0.9212 0.0000
vt 0.5679 0.8712 0.0000
vt 0.5682 0.8712 0.0000
vt 0.5682 0.9212 0.0000
vt 0.5679 0.9212 0.0000
vt 0.5523 0.8712 0.0000
vt 0.5527 0.8712 0.0000
vt 0.5527 0.9212 0.0000
vt 0.5523 0.9212 0.0000
vt 0.5875 0.8762 0.0000
vt 0.5875 0.8712 0.0000
vt 0.5879 0.8712 0.0000
vt 0.5879 0.8760 0.0000
vt 0.5950 0.8830 0.0000
vt 0.5953 0.8828 0.0000
vt 0.5950 0.9093 0.0000
vt 0.5953 0.9096 0.0000
vt 0.5903 0.9137 0.0000
vt 0.5875 0.9162 0.0000
vt 0.5879 0.9164 0.0000
vt 0.5875 0.9212 0.0000
vt 0.5879 0.9212 0.0000
vt 0.4128 0.9126 0.0000
vt 0.4128 0.9163 0.0000
vt 0.4107 0.9163 0.0000
vt 0.4107 0.9115 0.0000
vt 0.4198 0.9052 0.0000
vt 0.4181 0.9046 0.0000
vt 0.4199 0.8772 0.0000
vt 0.4181 0.8779 0.0000
vt 0.4125 0.8702 0.0000
vt 0.4107 0.8710 0.0000
vt 0.4125 0.8663 0.0000
vt 0.4107 0.8663 0.0000
vt 0.2560 0.8612 0.0000
vt 0.2560 0.8918 0.0000
vt 0.4167 0.9269 0.0000
vt 0.4167 0.8939 0.0000
vt 0.4225 0.8948 0.0000
vt 0.4225 0.8972 0.0000
vt 0.4225 0.8989 0.0000
vt 0.4225 0.9014 0.0000
vt 0.4225 0.9030 0.0000
vt 0.4225 0.9055 0.0000
vt 0.4225 0.9071 0.0000
vt 0.4225 0.9096 0.0000
vt 0.4225 0.9113 0.0000
vt 0.4225 0.9137 0.0000
vt 0.4225 0.9154 0.0000
vt 0.4225 0.9179 0.0000
vt 0.4225 0.9195 0.0000
vt 0.4225 0.9220 0.0000
vt 0.4225 0.9236 0.0000
vt 0.4225 0.9261 0.0000
vt 0.4285 0.9269 0.0000
vt 0.4227 0.9261 0.0000
vt 0.4287 0.9220 0.0000
vt 0.4306 0.9220 0.0000
vt 0.4285 0.9236 0.0000
# 286 texture coords

g SPW_Urban_Road_4way_Bus_Lane
usemtl SPW_Urban_Road
s off
f 1/1/1 2/2/1 3/2/1 4/1/1 
f 2/2/2 5/3/2 6/3/2 3/2/2 
f 5/3/3 7/4/3 8/4/3 6/3/3 
f 7/4/4 1/1/4 4/1/4 8/4/4 
f 4/1/5 3/2/5 6/3/5 8/4/5 
f 7/4/6 5/3/6 2/2/6 1/1/6 
f 9/5/3 10/6/3 11/6/3 12/5/3 
f 10/6/4 13/7/4 14/7/4 11/6/4 
f 13/7/1 15/8/1 16/8/1 14/7/1 
f 15/8/2 9/5/2 12/5/2 16/8/2 
f 12/5/5 11/6/5 14/7/5 16/8/5 
f 15/8/6 13/7/6 10/6/6 9/5/6 
f 17/9/7 18/7/7 19/7/7 20/9/7 
f 18/7/8 21/10/8 22/10/8 19/7/8 
f 21/10/9 23/11/9 24/11/9 22/10/9 
f 23/11/10 17/9/10 20/9/10 24/11/10 
f 20/9/11 19/7/11 22/10/11 24/11/11 
f 23/11/6 21/10/6 18/7/6 17/9/6 
f 25/12/12 26/13/12 27/13/12 28/12/12 
f 26/13/13 29/14/13 30/14/13 27/13/13 
f 29/14/14 31/15/14 32/15/14 30/14/14 
f 31/15/15 25/12/15 28/12/15 32/15/15 
f 28/12/5 27/13/5 30/14/5 32/15/5 
f 31/15/16 29/14/16 26/13/16 25/12/16 
f 33/16/1 34/12/1 35/12/1 36/16/1 
f 34/12/2 37/17/2 38/17/2 35/12/2 
f 37/17/3 39/18/3 40/18/3 38/17/3 
f 39/18/4 33/16/4 36/16/4 40/18/4 
f 36/16/5 35/12/5 38/17/5 40/18/5 
f 39/18/6 37/17/6 34/12/6 33/16/6 
s 1
f 41/19/6 42/20/6 43/21/6 44/22/6 
f 45/23/6 46/24/6 47/25/6 48/26/16 
f 45/23/6 48/26/16 49/27/6 50/28/6 
f 45/23/6 50/28/6 51/29/16 52/30/16 
f 45/23/6 52/30/16 53/31/6 54/32/16 
f 45/23/6 54/32/16 55/33/6 56/34/6 
f 45/23/6 56/34/6 57/35/16 58/36/6 
f 45/23/6 58/36/6 59/37/16 60/38/16 
f 45/23/6 60/38/16 61/39/6 62/40/6 
f 63/41/6 45/23/6 62/40/6 64/42/16 
f 63/41/6 64/42/16 65/43/6 
f 66/44/6 63/41/6 65/43/6 67/45/16 
f 65/43/6 61/39/6 60/38/16 67/45/16 
f 66/44/6 67/45/16 68/46/16 69/47/6 
f 68/46/16 59/37/16 58/36/6 69/47/6 
f 66/44/6 69/47/6 70/48/6 71/49/16 
f 70/48/6 57/35/16 56/34/6 71/49/16 
f 66/44/6 71/49/16 72/50/6 73/51/16 
f 72/50/6 55/33/6 54/32/16 73/51/16 
f 66/44/6 73/51/16 74/52/16 75/53/6 
f 74/52/16 53/31/6 52/30/16 75/53/6 
f 66/44/6 75/53/6 76/54/16 77/55/6 
f 76/54/16 51/29/16 50/28/6 77/55/6 
f 66/44/6 77/55/6 78/56/6 79/57/16 
f 78/56/6 49/27/6 48/26/16 79/57/16 
f 66/44/6 79/57/16 80/58/6 47/25/6 
f 66/44/6 47/25/6 46/24/6 
f 81/59/6 82/60/6 83/61/6 84/62/6 
f 85/63/16 86/64/16 87/65/6 88/66/6 
f 89/67/6 90/68/16 88/66/6 91/69/6 
f 92/70/16 91/69/6 88/66/6 93/71/6 
f 94/72/16 93/71/6 88/66/6 95/73/6 
f 96/74/6 95/73/6 88/66/6 87/65/6 
f 88/66/6 97/75/16 98/76/16 85/63/16 
f 85/63/16 98/76/16 99/77/6 100/78/6 
f 99/77/6 101/79/6 102/80/16 100/78/6 
f 85/63/16 100/78/6 103/81/16 104/82/16 
f 103/81/16 105/83/16 106/84/16 104/82/16 
f 85/63/16 104/82/16 107/85/6 108/86/6 
f 107/85/6 109/87/6 110/88/6 108/86/6 
f 85/63/16 108/86/6 111/89/16 112/90/16 
f 111/89/16 113/91/16 114/92/16 112/90/16 
f 85/63/16 112/90/16 115/93/16 116/94/6 
f 115/93/16 117/95/6 118/96/6 116/94/6 
f 85/63/16 116/94/6 119/97/6 120/98/6 
f 85/63/16 120/98/6 121/99/6 
f 122/100/16 123/101/16 124/102/16 125/103/6 
f 124/102/16 126/104/16 127/105/16 128/106/6 
f 129/107/16 90/108/16 89/109/6 130/110/6 
f 131/111/6 91/112/6 92/113/16 132/114/6 
f 133/115/6 93/116/6 94/117/16 134/118/16 
f 135/119/6 95/120/6 96/121/6 136/122/6 
f 137/123/6 87/124/6 86/125/16 125/103/6 
f 136/122/6 137/123/6 125/103/6 135/119/6 
f 134/118/16 135/119/6 125/103/6 133/115/6 
f 132/114/6 133/115/6 125/103/6 131/111/6 
f 130/110/6 131/111/6 125/103/6 129/107/16 
f 128/106/6 129/107/16 125/103/6 124/102/16 
f 122/100/16 125/103/6 138/126/16 
f 139/127/16 123/128/16 140/129/16 126/130/16 
f 141/131/6 142/132/6 143/133/6 144/134/6 
f 145/135/6 88/66/6 90/68/16 144/134/6 
f 141/131/6 144/134/6 90/68/16 140/129/16 
f 140/129/16 90/68/16 127/136/16 126/130/16 
f 145/137/6 144/138/6 143/139/6 88/140/6 
f 142/141/6 141/142/6 140/143/16 146/144/6 
f 61/145/6 65/146/6 64/147/16 62/148/6 
f 68/149/16 67/150/16 60/151/16 59/152/16 
f 70/153/6 69/154/6 58/155/6 57/156/16 
f 74/157/16 73/158/16 54/159/16 53/160/6 
f 72/161/6 71/162/16 56/163/6 55/164/6 
f 76/165/16 75/166/6 52/167/16 51/168/16 
f 78/169/6 77/170/6 50/171/6 49/172/6 
f 80/173/6 79/174/16 48/175/16 47/176/6 
f 97/177/16 101/178/6 99/179/6 98/180/16 
f 102/181/16 105/182/16 103/183/16 100/184/6 
f 106/185/16 109/186/6 107/187/6 104/188/16 
f 110/189/6 113/190/16 111/191/16 108/192/6 
f 114/193/16 117/194/6 115/195/16 112/196/16 
f 118/197/6 120/198/6 119/199/6 116/200/6 
f 137/201/6 136/202/6 96/203/6 87/204/6 
f 134/205/16 94/206/16 95/207/6 135/208/6 
f 92/209/16 93/210/6 133/211/6 132/212/6 
f 131/213/6 130/214/6 89/215/6 91/216/6 
f 127/217/16 90/218/16 129/219/16 128/220/6 
f 123/221/16 139/222/16 126/223/16 124/224/16 
f 82/225/6 121/226/6 147/227/6 83/228/6 
f 66/229/6 81/230/6 84/231/6 63/232/6 
f 42/233/6 46/234/6 45/235/6 43/236/6 
f 86/237/16 85/238/16 148/239/16 149/240/17 
f 125/241/6 86/237/16 149/240/17 150/242/17 
f 138/243/16 125/241/6 150/242/17 151/244/6 
f 122/245/16 138/243/16 151/244/6 152/246/6 
f 152/246/6 151/244/6 153/247/6 154/248/6 
f 155/249/16 154/248/6 153/247/6 
f 156/250/16 157/251/16 155/252/16 153/253/6 
f 158/254/6 156/250/16 153/253/6 151/255/6 
f 159/256/17 158/254/6 151/255/6 150/257/17 
f 160/258/17 159/256/17 150/257/17 149/259/17 
f 161/260/18 160/258/17 149/259/17 148/261/16 
s off
f 162/262/1 163/263/1 164/263/1 165/262/1 
f 163/263/2 166/11/2 167/11/2 164/263/2 
f 166/11/19 168/14/19 169/14/19 167/11/19 
f 168/14/20 162/262/20 165/262/20 169/14/20 
f 165/262/11 164/263/11 167/11/11 169/14/11 
f 168/14/16 166/11/16 163/263/16 162/262/16 
s 1
f 147/264/6 121/265/6 120/266/6 118/267/6 
f 147/264/6 118/267/6 117/268/6 114/269/16 
f 147/264/6 114/269/16 113/270/16 110/271/6 
f 147/264/6 110/271/6 109/272/6 106/273/16 
f 147/264/6 106/273/16 105/274/16 102/275/16 
f 147/264/6 102/275/16 101/276/6 97/277/16 
f 147/264/6 97/277/16 88/278/6 143/279/6 
f 147/264/6 143/279/6 142/280/6 146/281/6 
f 154/282/6 147/264/6 146/281/6 140/283/16 
f 140/283/16 123/284/16 122/285/16 152/286/6 
f 154/282/6 140/283/16 152/286/6 
# 141 polygons - 6 triangles

