# 3ds Max Wavefront OBJ Exporter v0.97b - (c)2007 guruware
# File Created: 15.03.2017 11:26:32

mtllib SPW_Urban_Road 2way_03.mtl

#
# object SPW_Urban_Road_2way_03
#

v  393.7008 -0.0000 393.7008
v  393.7008 -0.0000 263.7795
v  -393.7008 -0.0000 263.7796
v  -393.7008 -0.0000 393.7008
v  393.7008 0.0000 -251.9685
v  -35.4331 0.0000 -222.4409
v  -35.4331 0.0000 -192.9134
v  -35.4331 0.0000 -163.3858
v  -35.4331 0.0000 -133.8583
v  -35.4331 0.0000 -104.3307
v  -35.4331 0.0000 -74.8031
v  39.3701 0.0000 -5.9055
v  -35.4331 -0.0000 192.9134
v  -35.4331 -0.0000 222.4409
v  39.3701 -0.0000 5.9055
v  -35.4331 -0.0000 163.3858
v  -35.4331 -0.0000 133.8582
v  -35.4331 -0.0000 104.3307
v  -35.4331 -0.0000 74.8031
v  -35.4331 -0.0000 45.2756
v  -35.4331 -0.0000 15.7480
v  -35.4331 0.0000 -15.7480
v  -35.4331 0.0000 -45.2756
v  157.4803 0.0000 -5.9055
v  236.2205 0.0000 -5.9055
v  157.4803 -0.0000 5.9055
v  236.2205 -0.0000 5.9055
v  354.3307 0.0000 -5.9055
v  354.3307 -0.0000 5.9055
v  393.7008 -0.0000 251.9685
v  -393.7008 -0.0000 251.9686
v  -161.4173 -0.0000 222.4409
v  -161.4173 -0.0000 192.9134
v  -161.4174 -0.0000 163.3858
v  -161.4174 -0.0000 133.8583
v  -161.4174 -0.0000 104.3307
v  -161.4174 -0.0000 74.8031
v  -161.4174 -0.0000 45.2756
v  -161.4174 -0.0000 15.7480
v  -236.2205 -0.0000 5.9055
v  -354.3307 -0.0000 5.9055
v  -393.7008 0.0000 -251.9685
v  -354.3307 0.0000 -5.9055
v  -236.2205 0.0000 -5.9055
v  -161.4174 0.0000 -15.7480
v  -161.4174 0.0000 -45.2755
v  -161.4174 0.0000 -74.8031
v  -161.4174 0.0000 -104.3307
v  -161.4174 0.0000 -133.8582
v  -161.4174 0.0000 -163.3858
v  -161.4174 0.0000 -192.9134
v  -161.4174 0.0000 -222.4409
v  -393.7008 0.0000 -263.7795
v  393.7008 0.0000 -263.7796
v  393.7008 0.0000 -393.7008
v  -393.7008 0.0000 -393.7008
v  393.7008 7.8740 393.7007
v  -393.7008 7.8740 393.7007
v  -393.7008 -0.0000 393.7007
v  393.7008 -0.0000 393.7007
v  -393.7008 7.8740 275.5905
v  -393.7008 -0.0000 275.5905
v  393.7008 7.8740 275.5904
v  393.7008 -0.0000 275.5904
v  393.7008 7.8740 -275.5907
v  -393.7008 7.8740 -275.5907
v  -393.7008 0.0000 -275.5907
v  393.7008 0.0000 -275.5907
v  -393.7008 7.8741 -393.7009
v  -393.7008 0.0000 -393.7009
v  393.7008 7.8741 -393.7009
v  393.7008 0.0000 -393.7009
# 72 vertices

vn -0.0000 1.0000 0.0000
vn 0.0000 1.0000 0.0000
vn 0.0000 -0.0000 1.0000
vn -1.0000 0.0000 -0.0000
vn -0.0000 0.0000 -1.0000
vn 1.0000 0.0000 -0.0000
vn -0.0000 -1.0000 -0.0000
vn 0.0000 0.0000 -1.0000
# 8 vertex normals

vt 0.3766 0.8687 0.0000
vt 0.3848 0.8687 0.0000
vt 0.3848 0.9187 0.0000
vt 0.3766 0.9187 0.0000
vt 0.4176 0.8687 0.0000
vt 0.4157 0.8960 0.0000
vt 0.4138 0.8960 0.0000
vt 0.4119 0.8960 0.0000
vt 0.4101 0.8960 0.0000
vt 0.4082 0.8960 0.0000
vt 0.4063 0.8960 0.0000
vt 0.4019 0.8912 0.0000
vt 0.3893 0.8960 0.0000
vt 0.3874 0.8960 0.0000
vt 0.4012 0.8912 0.0000
vt 0.3912 0.8960 0.0000
vt 0.3931 0.8960 0.0000
vt 0.3949 0.8960 0.0000
vt 0.3968 0.8960 0.0000
vt 0.3987 0.8960 0.0000
vt 0.4006 0.8960 0.0000
vt 0.4026 0.8960 0.0000
vt 0.4044 0.8960 0.0000
vt 0.4019 0.8837 0.0000
vt 0.4019 0.8787 0.0000
vt 0.4012 0.8837 0.0000
vt 0.4012 0.8787 0.0000
vt 0.4019 0.8712 0.0000
vt 0.4012 0.8712 0.0000
vt 0.3856 0.8687 0.0000
vt 0.3856 0.9187 0.0000
vt 0.3874 0.9040 0.0000
vt 0.3893 0.9040 0.0000
vt 0.3912 0.9040 0.0000
vt 0.3931 0.9040 0.0000
vt 0.3949 0.9040 0.0000
vt 0.3968 0.9040 0.0000
vt 0.3987 0.9040 0.0000
vt 0.4006 0.9040 0.0000
vt 0.4012 0.9087 0.0000
vt 0.4012 0.9162 0.0000
vt 0.4176 0.9187 0.0000
vt 0.4019 0.9162 0.0000
vt 0.4019 0.9087 0.0000
vt 0.4026 0.9040 0.0000
vt 0.4044 0.9040 0.0000
vt 0.4063 0.9040 0.0000
vt 0.4082 0.9040 0.0000
vt 0.4101 0.9040 0.0000
vt 0.4119 0.9040 0.0000
vt 0.4138 0.9040 0.0000
vt 0.4157 0.9040 0.0000
vt 0.5980 0.9138 0.0000
vt 0.5972 0.9138 0.0000
vt 0.5972 0.8638 0.0000
vt 0.5980 0.8638 0.0000
vt 0.5645 0.8638 0.0000
vt 0.5652 0.8638 0.0000
vt 0.5652 0.9138 0.0000
vt 0.5645 0.9138 0.0000
vt 0.5808 0.8738 0.0000
vt 0.5808 0.8663 0.0000
vt 0.5816 0.8663 0.0000
vt 0.5816 0.8738 0.0000
vt 0.5808 0.9113 0.0000
vt 0.5808 0.9038 0.0000
vt 0.5816 0.9038 0.0000
vt 0.5816 0.9113 0.0000
vt 0.5816 0.8863 0.0000
vt 0.5808 0.8863 0.0000
vt 0.5808 0.8788 0.0000
vt 0.5816 0.8788 0.0000
vt 0.5935 0.8991 0.0000
vt 0.5935 0.8911 0.0000
vt 0.5953 0.8911 0.0000
vt 0.5953 0.8991 0.0000
vt 0.5897 0.8991 0.0000
vt 0.5897 0.8911 0.0000
vt 0.5916 0.8911 0.0000
vt 0.5916 0.8991 0.0000
vt 0.5860 0.8991 0.0000
vt 0.5860 0.8911 0.0000
vt 0.5878 0.8911 0.0000
vt 0.5878 0.8991 0.0000
vt 0.5783 0.8991 0.0000
vt 0.5783 0.8911 0.0000
vt 0.5802 0.8911 0.0000
vt 0.5802 0.8991 0.0000
vt 0.5822 0.8991 0.0000
vt 0.5822 0.8911 0.0000
vt 0.5841 0.8911 0.0000
vt 0.5841 0.8991 0.0000
vt 0.5746 0.8991 0.0000
vt 0.5746 0.8911 0.0000
vt 0.5765 0.8911 0.0000
vt 0.5765 0.8991 0.0000
vt 0.5708 0.8991 0.0000
vt 0.5708 0.8911 0.0000
vt 0.5727 0.8911 0.0000
vt 0.5727 0.8991 0.0000
vt 0.5671 0.8991 0.0000
vt 0.5671 0.8911 0.0000
vt 0.5690 0.8911 0.0000
vt 0.5690 0.8991 0.0000
vt 0.4183 0.8687 0.0000
vt 0.4266 0.8687 0.0000
vt 0.4266 0.9187 0.0000
vt 0.4183 0.9187 0.0000
vt 0.2289 0.8564 0.0000
vt 0.2289 0.9064 0.0000
vt 0.2364 0.9064 0.0000
vt 0.2364 0.8564 0.0000
vt 0.2714 0.8564 0.0000
vt 0.2714 0.9064 0.0000
vt 0.2789 0.9064 0.0000
vt 0.2789 0.8564 0.0000
# 116 texture coords

g SPW_Urban_Road_2way_03
usemtl SPW_Urban_Road
s 1
f 1/1/1 2/2/1 3/3/1 4/4/2 
f 5/5/1 6/6/2 7/7/2 8/8/2 
f 5/5/1 8/8/2 9/9/2 10/10/2 
f 5/5/1 10/10/2 11/11/2 12/12/1 
f 13/13/2 14/14/2 15/15/2 16/16/2 
f 17/17/2 16/16/2 15/15/2 18/18/2 
f 19/19/2 18/18/2 15/15/2 20/20/2 
f 21/21/2 20/20/2 15/15/2 22/22/2 
f 23/23/2 22/22/2 15/15/2 11/11/2 
f 11/11/2 15/15/2 12/12/1 
f 5/5/1 12/12/1 24/24/1 25/25/2 
f 24/24/1 26/26/1 27/27/2 25/25/2 
f 5/5/1 25/25/2 28/28/1 29/29/1 
f 5/5/1 29/29/1 30/30/1 
f 30/30/1 29/29/1 27/27/2 26/26/1 
f 26/26/1 15/15/2 14/14/2 30/30/1 
f 31/31/2 30/30/1 14/14/2 32/32/1 
f 33/33/1 13/13/2 16/16/2 34/34/1 
f 35/35/1 17/17/2 18/18/2 36/36/2 
f 37/37/1 19/19/2 20/20/2 38/38/1 
f 38/38/1 39/39/1 40/40/1 41/41/2 
f 37/37/1 38/38/1 41/41/2 36/36/2 
f 35/35/1 36/36/2 41/41/2 34/34/1 
f 33/33/1 34/34/1 41/41/2 32/32/1 
f 31/31/2 32/32/1 41/41/2 42/42/2 
f 42/42/2 41/41/2 43/43/2 
f 42/42/2 43/43/2 44/44/1 39/39/1 
f 44/44/1 40/40/1 39/39/1 
f 39/39/1 21/21/2 22/22/2 45/45/1 
f 42/42/2 39/39/1 45/45/1 46/46/2 
f 46/46/2 23/23/2 11/11/2 47/47/1 
f 42/42/2 46/46/2 47/47/1 48/48/2 
f 48/48/2 10/10/2 9/9/2 49/49/2 
f 42/42/2 48/48/2 49/49/2 50/50/2 
f 50/50/2 8/8/2 7/7/2 51/51/2 
f 42/42/2 50/50/2 51/51/2 52/52/1 
f 5/5/1 42/42/2 52/52/1 6/6/2 
f 53/53/2 42/54/2 5/55/1 54/56/1 
f 2/57/1 30/58/1 31/59/2 3/60/1 
f 27/61/2 29/62/1 28/63/1 25/64/2 
f 41/65/2 40/66/1 44/67/1 43/68/2 
f 12/69/1 15/70/2 26/71/1 24/72/1 
f 51/73/2 7/74/2 6/75/2 52/76/1 
f 49/77/2 9/78/2 8/79/2 50/80/2 
f 47/81/1 11/82/2 10/83/2 48/84/2 
f 38/85/1 20/86/2 21/87/2 39/88/1 
f 45/89/1 22/90/2 23/91/2 46/92/2 
f 36/93/2 18/94/2 19/95/2 37/96/1 
f 34/97/1 16/98/2 17/99/2 35/100/1 
f 32/101/1 14/102/2 13/103/2 33/104/1 
f 54/105/1 55/106/2 56/107/1 53/108/2 
s off
f 57/109/3 58/110/3 59/110/3 60/109/3 
f 58/110/4 61/111/4 62/111/4 59/110/4 
f 61/111/5 63/112/5 64/112/5 62/111/5 
f 63/112/6 57/109/6 60/109/6 64/112/6 
f 60/109/7 59/110/7 62/111/7 64/112/7 
f 63/112/1 61/111/1 58/110/1 57/109/1 
f 65/113/3 66/114/3 67/114/3 68/113/3 
f 66/114/4 69/115/4 70/115/4 67/114/4 
f 69/115/8 71/116/8 72/116/8 70/115/8 
f 71/116/6 65/113/6 68/113/6 72/116/6 
f 68/113/7 67/114/7 70/115/7 72/116/7 
f 71/116/1 69/115/1 66/114/1 65/113/1 
# 59 polygons - 4 triangles

