# 3ds Max Wavefront OBJ Exporter v0.97b - (c)2007 guruware
# File Created: 15.03.2017 11:36:33

mtllib SPW_Urban_Road 4way_06.mtl

#
# object SPW_Urban_Road_4way_06
#

v  393.7008 -0.0001 787.4016
v  393.7008 -0.0001 657.4803
v  -393.7007 -0.0001 657.4803
v  -393.7007 -0.0001 787.4016
v  -354.3307 -0.0000 370.0787
v  -354.3307 -0.0000 358.2677
v  -393.7008 -0.0000 82.6772
v  -393.7007 -0.0001 645.6694
v  -236.2205 -0.0000 370.0787
v  -157.4803 -0.0000 370.0787
v  -39.3701 -0.0000 370.0786
v  39.3701 -0.0000 370.0786
v  157.4803 -0.0000 370.0786
v  236.2205 -0.0000 370.0786
v  354.3307 -0.0000 370.0786
v  393.7008 -0.0001 645.6692
v  393.7008 -0.0000 82.6771
v  -236.2205 -0.0000 358.2677
v  -157.4803 -0.0000 358.2677
v  -39.3701 -0.0000 358.2677
v  39.3701 -0.0000 358.2677
v  157.4803 -0.0000 358.2677
v  236.2205 -0.0000 358.2677
v  354.3307 -0.0000 358.2677
v  393.7008 -0.0000 70.8661
v  393.7008 0.0000 -70.8662
v  -393.7008 0.0000 -70.8662
v  -393.7008 -0.0000 70.8661
v  -393.7008 0.0000 -82.6772
v  393.7008 0.0000 -82.6772
v  354.3307 0.0000 -358.2678
v  236.2205 0.0000 -358.2677
v  157.4803 0.0000 -358.2677
v  39.3701 0.0000 -358.2678
v  39.3701 0.0000 -370.0788
v  -39.3701 0.0000 -370.0788
v  -39.3701 0.0000 -358.2678
v  -157.4803 0.0000 -358.2677
v  -236.2205 0.0000 -358.2677
v  -354.3307 0.0000 -358.2678
v  -393.7008 0.0001 -645.6693
v  -354.3307 0.0000 -370.0788
v  -236.2205 0.0000 -370.0788
v  -157.4803 0.0000 -370.0788
v  157.4803 0.0000 -370.0788
v  236.2205 0.0000 -370.0788
v  354.3307 0.0000 -370.0788
v  393.7007 0.0001 -787.4016
v  23.6220 0.0001 -787.4016
v  23.6220 0.0001 -645.6693
v  11.8110 0.0001 -787.4016
v  11.8110 0.0001 -657.4803
v  -393.7008 0.0001 -657.4803
v  -393.7008 0.0001 -787.4016
v  -0.0000 7.8741 -669.2915
v  -393.7008 7.8741 -669.2915
v  -393.7008 0.0001 -669.2915
v  -0.0000 0.0001 -669.2915
v  -393.7008 7.8741 -787.4017
v  -393.7008 0.0001 -787.4017
v  -0.0000 7.8741 -787.4017
v  -0.0000 0.0001 -787.4017
v  393.7008 7.8739 787.4016
v  -393.7007 7.8739 787.4016
v  -393.7007 7.8739 669.2913
v  -393.7007 -0.0001 669.2913
v  393.7008 7.8739 669.2913
v  393.7008 -0.0001 669.2913
# 68 vertices

vn 0.0000 1.0000 0.0000
vn -0.0000 1.0000 0.0000
vn 0.0000 -0.0000 1.0000
vn -1.0000 0.0000 -0.0000
vn 0.0000 0.0000 -1.0000
vn 1.0000 0.0000 -0.0000
vn 0.0000 -1.0000 -0.0000
# 7 vertex normals

vt 0.3790 0.8810 0.0000
vt 0.3832 0.8810 0.0000
vt 0.3832 0.9310 0.0000
vt 0.3790 0.9310 0.0000
vt 0.3923 0.9285 0.0000
vt 0.3927 0.9285 0.0000
vt 0.4014 0.9310 0.0000
vt 0.3835 0.9310 0.0000
vt 0.3923 0.9210 0.0000
vt 0.3923 0.9160 0.0000
vt 0.3923 0.9085 0.0000
vt 0.3923 0.9035 0.0000
vt 0.3923 0.8960 0.0000
vt 0.3923 0.8910 0.0000
vt 0.3923 0.8835 0.0000
vt 0.3835 0.8810 0.0000
vt 0.4014 0.8810 0.0000
vt 0.3927 0.9210 0.0000
vt 0.3927 0.9160 0.0000
vt 0.3927 0.9085 0.0000
vt 0.3927 0.9035 0.0000
vt 0.3927 0.8960 0.0000
vt 0.3927 0.8910 0.0000
vt 0.3927 0.8835 0.0000
vt 0.4018 0.8810 0.0000
vt 0.4063 0.8810 0.0000
vt 0.4063 0.9310 0.0000
vt 0.4018 0.9310 0.0000
vt 0.4067 0.9310 0.0000
vt 0.4067 0.8810 0.0000
vt 0.4154 0.8835 0.0000
vt 0.4154 0.8910 0.0000
vt 0.4154 0.8960 0.0000
vt 0.4154 0.9035 0.0000
vt 0.4158 0.9035 0.0000
vt 0.4158 0.9085 0.0000
vt 0.4154 0.9085 0.0000
vt 0.4154 0.9160 0.0000
vt 0.4154 0.9210 0.0000
vt 0.4154 0.9285 0.0000
vt 0.4245 0.9310 0.0000
vt 0.4158 0.9285 0.0000
vt 0.4158 0.9210 0.0000
vt 0.4158 0.9160 0.0000
vt 0.4158 0.8960 0.0000
vt 0.4158 0.8910 0.0000
vt 0.4158 0.8835 0.0000
vt 0.4290 0.8810 0.0000
vt 0.4290 0.9045 0.0000
vt 0.4245 0.9045 0.0000
vt 0.5697 0.8947 0.0000
vt 0.5742 0.8947 0.0000
vt 0.5742 0.8954 0.0000
vt 0.5701 0.8954 0.0000
vt 0.5697 0.9212 0.0000
vt 0.5701 0.9212 0.0000
vt 0.5283 0.8712 0.0000
vt 0.5287 0.8712 0.0000
vt 0.5287 0.9212 0.0000
vt 0.5283 0.9212 0.0000
vt 0.5606 0.9187 0.0000
vt 0.5606 0.9112 0.0000
vt 0.5610 0.9112 0.0000
vt 0.5610 0.9187 0.0000
vt 0.5606 0.9062 0.0000
vt 0.5606 0.8987 0.0000
vt 0.5610 0.8987 0.0000
vt 0.5610 0.9062 0.0000
vt 0.5606 0.8937 0.0000
vt 0.5606 0.8862 0.0000
vt 0.5610 0.8862 0.0000
vt 0.5610 0.8937 0.0000
vt 0.5378 0.9112 0.0000
vt 0.5378 0.9187 0.0000
vt 0.5375 0.9187 0.0000
vt 0.5375 0.9112 0.0000
vt 0.5610 0.8812 0.0000
vt 0.5606 0.8812 0.0000
vt 0.5606 0.8737 0.0000
vt 0.5610 0.8737 0.0000
vt 0.5375 0.9062 0.0000
vt 0.5375 0.8987 0.0000
vt 0.5378 0.8987 0.0000
vt 0.5378 0.9062 0.0000
vt 0.5378 0.8862 0.0000
vt 0.5378 0.8937 0.0000
vt 0.5375 0.8937 0.0000
vt 0.5375 0.8862 0.0000
vt 0.5378 0.8737 0.0000
vt 0.5378 0.8812 0.0000
vt 0.5375 0.8812 0.0000
vt 0.5375 0.8737 0.0000
vt 0.4290 0.9053 0.0000
vt 0.4290 0.9310 0.0000
vt 0.4249 0.9310 0.0000
vt 0.4249 0.9053 0.0000
vt 0.5515 0.8712 0.0000
vt 0.5518 0.8712 0.0000
vt 0.5518 0.9212 0.0000
vt 0.5515 0.9212 0.0000
vt 0.5466 0.8712 0.0000
vt 0.5470 0.8712 0.0000
vt 0.5470 0.9212 0.0000
vt 0.5466 0.9212 0.0000
vt 0.2875 0.8962 0.0000
vt 0.2875 0.9212 0.0000
vt 0.2912 0.9212 0.0000
vt 0.2912 0.8962 0.0000
vt 0.2412 0.8712 0.0000
vt 0.2412 0.9212 0.0000
vt 0.2450 0.9212 0.0000
vt 0.2450 0.8712 0.0000
# 112 texture coords

g SPW_Urban_Road_4way_06
usemtl SPW_Urban_Road
s 1
f 1/1/1 2/2/1 3/3/1 4/4/1 
f 5/5/2 6/6/2 7/7/2 8/8/1 
f 9/9/1 5/5/2 8/8/1 10/10/1 
f 11/11/1 10/10/1 8/8/1 12/12/1 
f 13/13/1 12/12/1 8/8/1 14/14/1 
f 15/15/2 14/14/1 8/8/1 16/16/2 
f 17/17/2 7/7/2 6/6/2 18/18/1 
f 18/18/1 9/9/1 10/10/1 19/19/1 
f 17/17/2 18/18/1 19/19/1 20/20/1 
f 20/20/1 11/11/1 12/12/1 21/21/1 
f 17/17/2 20/20/1 21/21/1 22/22/1 
f 22/22/1 13/13/1 14/14/1 23/23/1 
f 17/17/2 22/22/1 23/23/1 24/24/2 
f 16/16/2 17/17/2 24/24/2 15/15/2 
f 25/25/1 26/26/2 27/27/1 28/28/2 
f 29/29/1 30/30/2 31/31/2 32/32/1 
f 29/29/1 32/32/1 33/33/2 34/34/2 
f 34/34/2 35/35/1 36/36/2 37/37/1 
f 29/29/1 34/34/2 37/37/1 38/38/1 
f 29/29/1 38/38/1 39/39/2 40/40/1 
f 41/41/2 29/29/1 40/40/1 42/42/2 
f 43/43/2 39/39/2 38/38/1 44/44/2 
f 45/45/2 33/33/2 32/32/1 46/46/2 
f 47/47/2 31/31/2 30/30/2 48/48/1 
f 46/46/2 47/47/2 48/48/1 45/45/2 
f 35/35/1 45/45/2 48/48/1 36/36/2 
f 44/44/2 36/36/2 48/48/1 43/43/2 
f 48/48/1 49/49/1 50/50/1 43/43/2 
f 42/42/2 43/43/2 50/50/1 41/41/2 
f 50/51/1 49/52/1 51/53/2 52/54/1 
f 41/55/2 50/51/1 52/54/1 53/56/2 
f 2/57/1 16/58/2 8/59/1 3/60/1 
f 40/61/1 39/62/2 43/63/2 42/64/2 
f 38/65/1 37/66/1 36/67/2 44/68/2 
f 34/69/2 33/70/2 45/71/2 35/72/1 
f 18/73/1 6/74/2 5/75/2 9/76/1 
f 46/77/2 32/78/1 31/79/2 47/80/2 
f 10/81/1 11/82/1 20/83/1 19/84/1 
f 22/85/1 21/86/1 12/87/1 13/88/1 
f 24/89/2 23/90/1 14/91/1 15/92/2 
f 51/93/2 54/94/1 53/95/2 52/96/1 
f 26/97/2 30/98/2 29/99/1 27/100/1 
f 17/101/2 25/102/1 28/103/2 7/104/2 
s off
f 55/105/3 56/106/3 57/106/3 58/105/3 
f 56/106/4 59/107/4 60/107/4 57/106/4 
f 59/107/5 61/108/5 62/108/5 60/107/5 
f 61/108/6 55/105/6 58/105/6 62/108/6 
f 58/105/7 57/106/7 60/107/7 62/108/7 
f 61/108/1 59/107/1 56/106/1 55/105/1 
f 63/109/3 64/110/3 4/110/3 1/109/3 
f 64/110/4 65/111/4 66/111/4 4/110/4 
f 65/111/5 67/112/5 68/112/5 66/111/5 
f 67/112/6 63/109/6 1/109/6 68/112/6 
f 1/109/7 4/110/7 66/111/7 68/112/7 
f 67/112/1 65/111/1 64/110/1 63/109/1 
# 55 polygons

