# 3ds Max Wavefront OBJ Exporter v0.97b - (c)2007 guruware
# File Created: 15.03.2017 11:34:31

mtllib SPW_Urban_Road 4way_2way Intersection_02.mtl

#
# object SPW_Urban_Road_4way_2way_Intersection_02
#

v  787.4016 -0.0001 787.4016
v  787.4016 -0.0001 657.4808
v  263.7794 -0.0001 657.4806
v  263.7793 -0.0001 787.4016
v  -787.4016 -0.0001 645.6692
v  -251.9687 -0.0001 645.6694
v  -748.0315 -0.0000 370.0788
v  -787.4016 -0.0000 82.6772
v  -629.9213 -0.0000 358.2678
v  -629.9213 -0.0000 370.0788
v  -551.1811 -0.0000 370.0788
v  -551.1811 -0.0000 358.2678
v  -433.0709 -0.0000 358.2678
v  -433.0709 -0.0000 370.0788
v  -354.3307 -0.0000 370.0788
v  -354.3307 -0.0000 358.2677
v  -236.2205 -0.0000 358.2677
v  -236.2205 -0.0000 370.0788
v  -157.4803 -0.0000 370.0788
v  -157.4803 -0.0000 358.2677
v  -39.3701 -0.0000 358.2677
v  -39.3701 -0.0000 370.0788
v  39.3701 -0.0000 370.0788
v  39.3701 -0.0000 358.2677
v  157.4803 -0.0000 358.2677
v  157.4803 -0.0000 370.0788
v  236.2205 -0.0000 370.0788
v  236.2205 -0.0000 358.2677
v  354.3307 -0.0000 358.2677
v  354.3307 -0.0000 370.0788
v  433.0709 -0.0000 370.0787
v  433.0709 -0.0000 358.2677
v  551.1811 -0.0000 358.2677
v  551.1811 -0.0000 370.0787
v  629.9213 -0.0000 370.0787
v  629.9213 -0.0000 358.2677
v  748.0315 -0.0000 358.2677
v  748.0315 -0.0000 370.0787
v  787.4016 -0.0001 645.6698
v  787.4016 -0.0000 82.6771
v  -748.0315 -0.0000 358.2678
v  -222.4411 -0.0001 645.6693
v  -192.9135 -0.0001 645.6694
v  -163.3860 -0.0001 645.6694
v  -133.8584 -0.0001 645.6694
v  -104.3309 -0.0001 645.6694
v  -74.8033 -0.0001 645.6694
v  -45.2757 -0.0001 645.6695
v  -15.7482 -0.0001 645.6695
v  15.7478 -0.0001 645.6695
v  45.2754 -0.0001 645.6695
v  74.8030 -0.0001 645.6695
v  104.3305 -0.0001 645.6695
v  133.8581 -0.0001 645.6695
v  163.3857 -0.0001 645.6695
v  192.9132 -0.0001 645.6696
v  222.4408 -0.0001 645.6696
v  251.9684 -0.0001 645.6696
v  251.9683 -0.0001 787.4016
v  222.4407 -0.0001 783.4649
v  -251.9688 -0.0001 787.4016
v  192.9132 -0.0001 783.4649
v  163.3856 -0.0001 783.4648
v  133.8580 -0.0001 783.4648
v  104.3305 -0.0001 783.4648
v  74.8029 -0.0001 783.4648
v  45.2754 -0.0001 783.4648
v  15.7478 -0.0001 783.4648
v  -15.7482 -0.0001 783.4648
v  -45.2758 -0.0001 783.4648
v  -74.8034 -0.0001 783.4648
v  -104.3309 -0.0001 783.4648
v  -133.8585 -0.0001 783.4648
v  -163.3860 -0.0001 783.4647
v  -192.9136 -0.0001 783.4647
v  -222.4411 -0.0001 783.4647
v  787.4016 -0.0000 70.8661
v  787.4016 0.0000 -70.8662
v  -787.4016 0.0000 -70.8661
v  -787.4016 -0.0000 70.8662
v  -787.4016 0.0000 -82.6772
v  787.4016 0.0000 -82.6772
v  748.0315 0.0000 -358.2678
v  629.9213 0.0000 -358.2678
v  551.1811 0.0000 -358.2678
v  433.0709 0.0000 -358.2678
v  354.3307 0.0000 -358.2678
v  236.2205 0.0000 -358.2678
v  157.4803 0.0000 -358.2678
v  39.3701 0.0000 -358.2678
v  -39.3701 0.0000 -358.2678
v  -157.4803 0.0000 -358.2678
v  -236.2205 0.0000 -358.2678
v  -354.3307 0.0000 -358.2678
v  -433.0709 0.0000 -358.2677
v  -551.1811 0.0000 -358.2677
v  -629.9213 0.0000 -358.2677
v  -748.0315 0.0000 -358.2677
v  -787.4016 0.0001 -645.6694
v  -748.0315 0.0000 -370.0788
v  -251.9686 0.0001 -645.6694
v  -629.9213 0.0000 -370.0788
v  -551.1811 0.0000 -370.0788
v  -433.0709 0.0000 -370.0788
v  -354.3307 0.0000 -370.0788
v  -236.2205 0.0000 -370.0788
v  -251.9686 0.0001 -787.4016
v  -104.3307 0.0001 -645.6694
v  -104.3307 0.0001 -783.4647
v  -133.8583 0.0001 -783.4647
v  -133.8583 0.0001 -645.6694
v  -157.4803 0.0000 -370.0788
v  -74.8032 0.0001 -645.6694
v  -45.2756 0.0001 -645.6694
v  -15.7480 0.0001 -645.6694
v  15.7480 0.0001 -645.6694
v  45.2755 0.0001 -645.6694
v  74.8031 0.0001 -645.6694
v  104.3307 0.0001 -645.6694
v  133.8582 0.0001 -645.6693
v  163.3858 0.0001 -645.6693
v  192.9133 0.0001 -645.6693
v  222.4409 0.0001 -645.6693
v  251.9685 0.0001 -645.6694
v  787.4016 0.0001 -645.6694
v  -39.3701 0.0000 -370.0788
v  39.3701 0.0000 -370.0788
v  157.4803 0.0000 -370.0788
v  236.2205 0.0000 -370.0788
v  354.3307 0.0000 -370.0788
v  433.0709 0.0000 -370.0788
v  551.1811 0.0000 -370.0788
v  629.9213 0.0000 -370.0788
v  748.0315 0.0000 -370.0788
v  -163.3859 0.0001 -645.6694
v  -192.9134 0.0001 -645.6694
v  -222.4410 0.0001 -645.6694
v  -222.4410 0.0001 -783.4647
v  251.9685 0.0001 -787.4016
v  104.3307 0.0001 -783.4647
v  133.8582 0.0001 -783.4647
v  163.3858 0.0001 -783.4647
v  192.9133 0.0001 -783.4647
v  222.4409 0.0001 -783.4647
v  -192.9134 0.0001 -783.4647
v  45.2755 0.0001 -783.4647
v  74.8031 0.0001 -783.4647
v  15.7480 0.0001 -783.4647
v  -163.3858 0.0001 -783.4647
v  -74.8032 0.0001 -783.4647
v  -45.2756 0.0001 -783.4647
v  -15.7481 0.0001 -783.4647
v  787.4016 0.0001 -657.4803
v  787.4016 0.0001 -787.4016
v  263.7795 0.0001 -787.4016
v  263.7795 0.0001 -657.4803
v  -263.7796 0.0001 -787.4016
v  -787.4016 0.0001 -787.4016
v  -787.4016 0.0001 -657.4804
v  -263.7796 0.0001 -657.4803
v  -787.4016 -0.0001 657.4802
v  -787.4016 -0.0001 787.4016
v  -263.7798 -0.0001 787.4016
v  -263.7797 -0.0001 657.4804
v  787.4017 7.8741 -669.2915
v  275.5906 7.8741 -669.2915
v  275.5906 0.0001 -669.2915
v  787.4017 0.0001 -669.2915
v  275.5906 7.8741 -787.4017
v  275.5906 0.0001 -787.4017
v  787.4017 7.8741 -787.4017
v  787.4017 0.0001 -787.4017
v  -275.5905 7.8741 -669.2915
v  -787.4015 7.8741 -669.2915
v  -787.4015 0.0001 -669.2915
v  -275.5905 0.0001 -669.2915
v  -787.4015 7.8741 -787.4017
v  -787.4015 0.0001 -787.4017
v  -275.5905 7.8741 -787.4017
v  -275.5905 0.0001 -787.4017
v  787.4016 7.8739 787.4016
v  275.5906 7.8739 787.4016
v  275.5906 -0.0001 787.4016
v  275.5906 7.8739 669.2913
v  275.5906 -0.0001 669.2913
v  787.4016 7.8739 669.2913
v  787.4016 -0.0001 669.2913
v  -275.5906 7.8739 787.4017
v  -787.4016 7.8739 787.4017
v  -787.4016 -0.0001 787.4017
v  -275.5906 -0.0001 787.4017
v  -787.4016 7.8739 669.2914
v  -787.4016 -0.0001 669.2914
v  -275.5906 7.8739 669.2914
v  -275.5906 -0.0001 669.2914
# 195 vertices

vn -0.0000 1.0000 0.0000
vn 0.0000 1.0000 0.0000
vn 0.0000 -0.0000 1.0000
vn -1.0000 0.0000 -0.0000
vn 0.0000 0.0000 -1.0000
vn 1.0000 0.0000 -0.0000
vn 0.0000 -1.0000 -0.0000
# 7 vertex normals

vt 0.3736 0.8510 0.0000
vt 0.3782 0.8510 0.0000
vt 0.3782 0.8696 0.0000
vt 0.3736 0.8696 0.0000
vt 0.3786 0.9070 0.0000
vt 0.3786 0.8879 0.0000
vt 0.3884 0.9056 0.0000
vt 0.3986 0.9070 0.0000
vt 0.3888 0.9014 0.0000
vt 0.3884 0.9014 0.0000
vt 0.3884 0.8986 0.0000
vt 0.3888 0.8986 0.0000
vt 0.3888 0.8944 0.0000
vt 0.3884 0.8944 0.0000
vt 0.3884 0.8916 0.0000
vt 0.3888 0.8916 0.0000
vt 0.3888 0.8874 0.0000
vt 0.3884 0.8874 0.0000
vt 0.3884 0.8846 0.0000
vt 0.3888 0.8846 0.0000
vt 0.3888 0.8804 0.0000
vt 0.3884 0.8804 0.0000
vt 0.3884 0.8776 0.0000
vt 0.3888 0.8776 0.0000
vt 0.3888 0.8734 0.0000
vt 0.3884 0.8734 0.0000
vt 0.3884 0.8706 0.0000
vt 0.3888 0.8706 0.0000
vt 0.3888 0.8664 0.0000
vt 0.3884 0.8664 0.0000
vt 0.3884 0.8636 0.0000
vt 0.3888 0.8636 0.0000
vt 0.3888 0.8594 0.0000
vt 0.3884 0.8594 0.0000
vt 0.3884 0.8566 0.0000
vt 0.3888 0.8566 0.0000
vt 0.3888 0.8524 0.0000
vt 0.3884 0.8524 0.0000
vt 0.3786 0.8510 0.0000
vt 0.3986 0.8510 0.0000
vt 0.3888 0.9056 0.0000
vt 0.3786 0.8869 0.0000
vt 0.3786 0.8858 0.0000
vt 0.3786 0.8848 0.0000
vt 0.3786 0.8837 0.0000
vt 0.3786 0.8827 0.0000
vt 0.3786 0.8816 0.0000
vt 0.3786 0.8806 0.0000
vt 0.3786 0.8795 0.0000
vt 0.3786 0.8784 0.0000
vt 0.3786 0.8774 0.0000
vt 0.3786 0.8763 0.0000
vt 0.3786 0.8753 0.0000
vt 0.3786 0.8742 0.0000
vt 0.3786 0.8732 0.0000
vt 0.3786 0.8721 0.0000
vt 0.3786 0.8711 0.0000
vt 0.3786 0.8700 0.0000
vt 0.3736 0.8700 0.0000
vt 0.3737 0.8711 0.0000
vt 0.3736 0.8879 0.0000
vt 0.3737 0.8721 0.0000
vt 0.3737 0.8732 0.0000
vt 0.3737 0.8742 0.0000
vt 0.3737 0.8753 0.0000
vt 0.3737 0.8763 0.0000
vt 0.3737 0.8774 0.0000
vt 0.3737 0.8784 0.0000
vt 0.3737 0.8795 0.0000
vt 0.3737 0.8806 0.0000
vt 0.3737 0.8816 0.0000
vt 0.3737 0.8827 0.0000
vt 0.3737 0.8837 0.0000
vt 0.3737 0.8848 0.0000
vt 0.3737 0.8858 0.0000
vt 0.3737 0.8869 0.0000
vt 0.3990 0.8510 0.0000
vt 0.4041 0.8510 0.0000
vt 0.4041 0.9070 0.0000
vt 0.3990 0.9070 0.0000
vt 0.4045 0.9070 0.0000
vt 0.4045 0.8510 0.0000
vt 0.4143 0.8524 0.0000
vt 0.4143 0.8566 0.0000
vt 0.4143 0.8594 0.0000
vt 0.4143 0.8636 0.0000
vt 0.4143 0.8664 0.0000
vt 0.4143 0.8706 0.0000
vt 0.4143 0.8734 0.0000
vt 0.4143 0.8776 0.0000
vt 0.4143 0.8804 0.0000
vt 0.4143 0.8846 0.0000
vt 0.4143 0.8874 0.0000
vt 0.4143 0.8916 0.0000
vt 0.4143 0.8944 0.0000
vt 0.4143 0.8986 0.0000
vt 0.4143 0.9014 0.0000
vt 0.4143 0.9056 0.0000
vt 0.4245 0.9070 0.0000
vt 0.4147 0.9056 0.0000
vt 0.4245 0.8879 0.0000
vt 0.4147 0.9014 0.0000
vt 0.4147 0.8986 0.0000
vt 0.4147 0.8944 0.0000
vt 0.4147 0.8916 0.0000
vt 0.4147 0.8874 0.0000
vt 0.4296 0.8879 0.0000
vt 0.4245 0.8827 0.0000
vt 0.4294 0.8827 0.0000
vt 0.4294 0.8837 0.0000
vt 0.4245 0.8837 0.0000
vt 0.4147 0.8846 0.0000
vt 0.4245 0.8816 0.0000
vt 0.4245 0.8806 0.0000
vt 0.4245 0.8795 0.0000
vt 0.4245 0.8784 0.0000
vt 0.4245 0.8774 0.0000
vt 0.4245 0.8763 0.0000
vt 0.4245 0.8753 0.0000
vt 0.4245 0.8742 0.0000
vt 0.4245 0.8732 0.0000
vt 0.4245 0.8721 0.0000
vt 0.4245 0.8711 0.0000
vt 0.4245 0.8700 0.0000
vt 0.4245 0.8510 0.0000
vt 0.4147 0.8804 0.0000
vt 0.4147 0.8776 0.0000
vt 0.4147 0.8734 0.0000
vt 0.4147 0.8706 0.0000
vt 0.4147 0.8664 0.0000
vt 0.4147 0.8636 0.0000
vt 0.4147 0.8594 0.0000
vt 0.4147 0.8566 0.0000
vt 0.4147 0.8524 0.0000
vt 0.4245 0.8848 0.0000
vt 0.4245 0.8858 0.0000
vt 0.4245 0.8869 0.0000
vt 0.4294 0.8869 0.0000
vt 0.4296 0.8700 0.0000
vt 0.4294 0.8753 0.0000
vt 0.4294 0.8742 0.0000
vt 0.4294 0.8732 0.0000
vt 0.4294 0.8721 0.0000
vt 0.4294 0.8711 0.0000
vt 0.4294 0.8858 0.0000
vt 0.4294 0.8774 0.0000
vt 0.4294 0.8763 0.0000
vt 0.4294 0.8784 0.0000
vt 0.4294 0.8848 0.0000
vt 0.4294 0.8816 0.0000
vt 0.4294 0.8806 0.0000
vt 0.4294 0.8795 0.0000
vt 0.4249 0.8510 0.0000
vt 0.4296 0.8510 0.0000
vt 0.4296 0.8696 0.0000
vt 0.4249 0.8696 0.0000
vt 0.4296 0.8883 0.0000
vt 0.4296 0.9070 0.0000
vt 0.4249 0.9070 0.0000
vt 0.4249 0.8883 0.0000
vt 0.3782 0.9070 0.0000
vt 0.3736 0.9070 0.0000
vt 0.3736 0.8883 0.0000
vt 0.3782 0.8883 0.0000
vt 0.5115 0.8932 0.0000
vt 0.5115 0.8942 0.0000
vt 0.5066 0.8942 0.0000
vt 0.5066 0.8932 0.0000
vt 0.5115 0.8953 0.0000
vt 0.5115 0.8963 0.0000
vt 0.5066 0.8963 0.0000
vt 0.5066 0.8953 0.0000
vt 0.5115 0.8974 0.0000
vt 0.5115 0.8984 0.0000
vt 0.5066 0.8984 0.0000
vt 0.5066 0.8974 0.0000
vt 0.5115 0.8995 0.0000
vt 0.5115 0.9005 0.0000
vt 0.5066 0.9005 0.0000
vt 0.5066 0.8995 0.0000
vt 0.5115 0.9017 0.0000
vt 0.5115 0.9027 0.0000
vt 0.5066 0.9027 0.0000
vt 0.5066 0.9017 0.0000
vt 0.5115 0.9038 0.0000
vt 0.5115 0.9048 0.0000
vt 0.5066 0.9048 0.0000
vt 0.5066 0.9038 0.0000
vt 0.5115 0.9059 0.0000
vt 0.5115 0.9069 0.0000
vt 0.5066 0.9069 0.0000
vt 0.5066 0.9059 0.0000
vt 0.5115 0.9080 0.0000
vt 0.5115 0.9090 0.0000
vt 0.5066 0.9090 0.0000
vt 0.5066 0.9080 0.0000
vt 0.5623 0.8932 0.0000
vt 0.5623 0.8942 0.0000
vt 0.5574 0.8942 0.0000
vt 0.5574 0.8932 0.0000
vt 0.5623 0.8953 0.0000
vt 0.5623 0.8963 0.0000
vt 0.5574 0.8963 0.0000
vt 0.5574 0.8953 0.0000
vt 0.5623 0.8984 0.0000
vt 0.5574 0.8984 0.0000
vt 0.5574 0.8974 0.0000
vt 0.5623 0.8974 0.0000
vt 0.5623 0.8995 0.0000
vt 0.5623 0.9005 0.0000
vt 0.5574 0.9005 0.0000
vt 0.5574 0.8995 0.0000
vt 0.5623 0.9017 0.0000
vt 0.5623 0.9027 0.0000
vt 0.5574 0.9027 0.0000
vt 0.5574 0.9017 0.0000
vt 0.5574 0.9038 0.0000
vt 0.5623 0.9038 0.0000
vt 0.5623 0.9048 0.0000
vt 0.5574 0.9048 0.0000
vt 0.5623 0.9069 0.0000
vt 0.5574 0.9069 0.0000
vt 0.5574 0.9059 0.0000
vt 0.5623 0.9059 0.0000
vt 0.5574 0.9080 0.0000
vt 0.5623 0.9080 0.0000
vt 0.5623 0.9090 0.0000
vt 0.5574 0.9090 0.0000
vt 0.5217 0.8787 0.0000
vt 0.5213 0.8787 0.0000
vt 0.5213 0.8745 0.0000
vt 0.5217 0.8745 0.0000
vt 0.5217 0.8857 0.0000
vt 0.5213 0.8857 0.0000
vt 0.5213 0.8815 0.0000
vt 0.5217 0.8815 0.0000
vt 0.5217 0.8927 0.0000
vt 0.5213 0.8927 0.0000
vt 0.5213 0.8885 0.0000
vt 0.5217 0.8885 0.0000
vt 0.5217 0.8997 0.0000
vt 0.5213 0.8997 0.0000
vt 0.5213 0.8955 0.0000
vt 0.5217 0.8955 0.0000
vt 0.5472 0.8787 0.0000
vt 0.5472 0.8745 0.0000
vt 0.5476 0.8745 0.0000
vt 0.5476 0.8787 0.0000
vt 0.5472 0.8857 0.0000
vt 0.5472 0.8815 0.0000
vt 0.5476 0.8815 0.0000
vt 0.5476 0.8857 0.0000
vt 0.5472 0.8927 0.0000
vt 0.5472 0.8885 0.0000
vt 0.5476 0.8885 0.0000
vt 0.5476 0.8927 0.0000
vt 0.5472 0.8997 0.0000
vt 0.5472 0.8955 0.0000
vt 0.5476 0.8955 0.0000
vt 0.5476 0.8997 0.0000
vt 0.5217 0.9067 0.0000
vt 0.5213 0.9067 0.0000
vt 0.5213 0.9025 0.0000
vt 0.5217 0.9025 0.0000
vt 0.5217 0.9137 0.0000
vt 0.5213 0.9137 0.0000
vt 0.5213 0.9095 0.0000
vt 0.5217 0.9095 0.0000
vt 0.5217 0.9207 0.0000
vt 0.5213 0.9207 0.0000
vt 0.5213 0.9165 0.0000
vt 0.5217 0.9165 0.0000
vt 0.5217 0.9277 0.0000
vt 0.5213 0.9277 0.0000
vt 0.5213 0.9235 0.0000
vt 0.5217 0.9235 0.0000
vt 0.5472 0.9277 0.0000
vt 0.5472 0.9235 0.0000
vt 0.5476 0.9235 0.0000
vt 0.5476 0.9277 0.0000
vt 0.5476 0.9207 0.0000
vt 0.5472 0.9207 0.0000
vt 0.5472 0.9165 0.0000
vt 0.5476 0.9165 0.0000
vt 0.5476 0.9137 0.0000
vt 0.5472 0.9137 0.0000
vt 0.5472 0.9095 0.0000
vt 0.5476 0.9095 0.0000
vt 0.5476 0.9067 0.0000
vt 0.5472 0.9067 0.0000
vt 0.5472 0.9025 0.0000
vt 0.5476 0.9025 0.0000
vt 0.5115 0.8921 0.0000
vt 0.5065 0.8921 0.0000
vt 0.5065 0.8917 0.0000
vt 0.5111 0.8917 0.0000
vt 0.5115 0.8731 0.0000
vt 0.5111 0.8731 0.0000
vt 0.5315 0.8731 0.0000
vt 0.5319 0.8731 0.0000
vt 0.5319 0.9291 0.0000
vt 0.5315 0.9291 0.0000
vt 0.5370 0.8731 0.0000
vt 0.5374 0.8731 0.0000
vt 0.5374 0.9291 0.0000
vt 0.5370 0.9291 0.0000
vt 0.5111 0.9105 0.0000
vt 0.5065 0.9105 0.0000
vt 0.5065 0.9101 0.0000
vt 0.5115 0.9101 0.0000
vt 0.5111 0.9291 0.0000
vt 0.5115 0.9291 0.0000
vt 0.5578 0.9105 0.0000
vt 0.5578 0.9291 0.0000
vt 0.5574 0.9291 0.0000
vt 0.5574 0.9101 0.0000
vt 0.5625 0.9105 0.0000
vt 0.5625 0.9101 0.0000
vt 0.5578 0.8917 0.0000
vt 0.5625 0.8917 0.0000
vt 0.5625 0.8921 0.0000
vt 0.5574 0.8921 0.0000
vt 0.5578 0.8731 0.0000
vt 0.5574 0.8731 0.0000
vt 0.2899 0.8589 0.0000
vt 0.2899 0.8751 0.0000
vt 0.2937 0.8751 0.0000
vt 0.2937 0.8589 0.0000
vt 0.2899 0.8926 0.0000
vt 0.2899 0.9089 0.0000
vt 0.2937 0.9089 0.0000
vt 0.2937 0.8926 0.0000
vt 0.2437 0.8589 0.0000
vt 0.2437 0.8751 0.0000
vt 0.2474 0.8751 0.0000
vt 0.2474 0.8589 0.0000
vt 0.2437 0.8926 0.0000
vt 0.2437 0.9089 0.0000
vt 0.2474 0.9089 0.0000
vt 0.2474 0.8926 0.0000
# 340 texture coords

g SPW_Urban_Road_4way_2way_Intersection_02
usemtl SPW_Urban_Road
s 1
f 1/1/1 2/2/1 3/3/2 4/4/2 
f 5/5/2 6/6/2 7/7/2 8/8/2 
f 9/9/2 10/10/2 11/11/2 12/12/2 
f 13/13/1 14/14/1 15/15/1 16/16/2 
f 17/17/2 18/18/2 19/19/2 20/20/2 
f 21/21/2 22/22/2 23/23/2 24/24/2 
f 25/25/2 26/26/2 27/27/2 28/28/2 
f 29/29/2 30/30/2 31/31/1 32/32/1 
f 33/33/2 34/34/2 35/35/2 36/36/2 
f 37/37/1 38/38/1 39/39/1 40/40/1 
f 36/36/2 37/37/1 40/40/1 33/33/2 
f 32/32/1 33/33/2 40/40/1 29/29/2 
f 28/28/2 29/29/2 40/40/1 25/25/2 
f 24/24/2 25/25/2 40/40/1 21/21/2 
f 20/20/2 21/21/2 40/40/1 17/17/2 
f 16/16/2 17/17/2 40/40/1 13/13/1 
f 12/12/2 13/13/1 40/40/1 9/9/2 
f 41/41/1 9/9/2 40/40/1 8/8/2 
f 7/7/2 41/41/1 8/8/2 
f 10/10/2 7/7/2 42/42/2 11/11/2 
f 14/14/1 11/11/2 42/42/2 15/15/1 
f 18/18/2 15/15/1 42/42/2 19/19/2 
f 22/22/2 19/19/2 42/42/2 23/23/2 
f 26/26/2 23/23/2 42/42/2 27/27/2 
f 30/30/2 27/27/2 42/42/2 31/31/1 
f 34/34/2 31/31/1 42/42/2 35/35/2 
f 38/38/1 35/35/2 42/42/2 43/43/1 
f 38/38/1 43/43/1 44/44/2 45/45/2 
f 38/38/1 45/45/2 46/46/2 47/47/1 
f 38/38/1 47/47/1 48/48/1 49/49/2 
f 38/38/1 49/49/2 50/50/2 51/51/2 
f 38/38/1 51/51/2 52/52/2 53/53/2 
f 38/38/1 53/53/2 54/54/2 55/55/2 
f 38/38/1 55/55/2 56/56/2 57/57/1 
f 38/38/1 57/57/1 58/58/2 39/39/1 
f 59/59/1 58/58/2 57/57/1 60/60/1 
f 61/61/2 59/59/1 60/60/1 62/62/1 
f 62/62/1 56/56/2 55/55/2 63/63/1 
f 61/61/2 62/62/1 63/63/1 64/64/2 
f 64/64/2 54/54/2 53/53/2 65/65/2 
f 61/61/2 64/64/2 65/65/2 66/66/2 
f 66/66/2 52/52/2 51/51/2 67/67/2 
f 61/61/2 66/66/2 67/67/2 68/68/2 
f 68/68/2 50/50/2 49/49/2 69/69/2 
f 61/61/2 68/68/2 69/69/2 70/70/1 
f 70/70/1 48/48/1 47/47/1 71/71/2 
f 61/61/2 70/70/1 71/71/2 72/72/2 
f 72/72/2 46/46/2 45/45/2 73/73/1 
f 61/61/2 72/72/2 73/73/1 74/74/1 
f 74/74/1 44/44/2 43/43/1 75/75/2 
f 61/61/2 74/74/1 75/75/2 76/76/2 
f 42/42/2 7/7/2 6/6/2 76/76/2 
f 61/61/2 76/76/2 6/6/2 
f 77/77/1 78/78/1 79/79/1 80/80/1 
f 81/81/2 82/82/2 83/83/2 84/84/2 
f 81/81/2 84/84/2 85/85/2 86/86/2 
f 81/81/2 86/86/2 87/87/1 88/88/2 
f 81/81/2 88/88/2 89/89/2 90/90/2 
f 81/81/2 90/90/2 91/91/2 92/92/2 
f 81/81/2 92/92/2 93/93/2 94/94/1 
f 81/81/2 94/94/1 95/95/2 96/96/2 
f 81/81/2 96/96/2 97/97/2 98/98/2 
f 99/99/2 81/81/2 98/98/2 100/100/2 
f 99/99/2 100/100/2 101/101/2 
f 101/101/2 100/100/2 102/102/2 103/103/2 
f 102/102/2 97/97/2 96/96/2 103/103/2 
f 101/101/2 103/103/2 104/104/2 105/105/1 
f 104/104/2 95/95/2 94/94/1 105/105/1 
f 101/101/2 105/105/1 106/106/2 107/107/1 
f 108/108/2 109/109/2 110/110/2 111/111/1 
f 111/111/1 106/106/2 93/93/2 112/112/1 
f 93/93/2 92/92/2 112/112/1 
f 108/108/2 111/111/1 112/112/1 113/113/2 
f 114/114/2 113/113/2 112/112/1 115/115/2 
f 116/116/2 115/115/2 112/112/1 117/117/2 
f 118/118/2 117/117/2 112/112/1 119/119/1 
f 120/120/1 119/119/1 112/112/1 121/121/2 
f 122/122/2 121/121/2 112/112/1 123/123/2 
f 124/124/2 123/123/2 112/112/1 125/125/2 
f 125/125/2 112/112/1 126/126/2 127/127/2 
f 126/126/2 91/91/2 90/90/2 127/127/2 
f 125/125/2 127/127/2 128/128/2 129/129/2 
f 128/128/2 89/89/2 88/88/2 129/129/2 
f 125/125/2 129/129/2 130/130/1 131/131/2 
f 130/130/1 87/87/1 86/86/2 131/131/2 
f 125/125/2 131/131/2 132/132/2 133/133/2 
f 132/132/2 85/85/2 84/84/2 133/133/2 
f 125/125/2 133/133/2 134/134/1 83/83/2 
f 125/125/2 83/83/2 82/82/2 
f 106/106/2 111/111/1 135/135/2 136/136/2 
f 106/106/2 136/136/2 137/137/1 107/107/1 
f 107/107/1 137/137/1 138/138/1 139/139/2 
f 140/140/2 119/119/1 120/120/1 141/141/2 
f 142/142/2 121/121/2 122/122/2 143/143/2 
f 144/144/2 123/123/2 124/124/2 139/139/2 
f 143/143/2 144/144/2 139/139/2 142/142/2 
f 141/141/2 142/142/2 139/139/2 140/140/2 
f 145/145/2 140/140/2 139/139/2 138/138/1 
f 146/146/2 117/117/2 118/118/2 147/147/2 
f 148/148/2 146/146/2 147/147/2 145/145/2 
f 147/147/2 140/140/2 145/145/2 
f 145/145/2 136/136/2 135/135/2 149/149/2 
f 145/145/2 149/149/2 110/110/2 150/150/2 
f 110/110/2 109/109/2 150/150/2 
f 148/148/2 145/145/2 150/150/2 151/151/2 
f 150/150/2 113/113/2 114/114/2 151/151/2 
f 148/148/2 151/151/2 152/152/2 116/116/2 
f 116/116/2 152/152/2 115/115/2 
f 153/153/2 154/154/2 155/155/2 156/156/1 
f 157/157/2 158/158/2 159/159/2 160/160/2 
f 161/161/2 162/162/2 163/163/2 164/164/1 
f 57/165/1 56/166/2 62/167/1 60/168/1 
f 55/169/2 54/170/2 64/171/2 63/172/1 
f 53/173/2 52/174/2 66/175/2 65/176/2 
f 51/177/2 50/178/2 68/179/2 67/180/2 
f 49/181/2 48/182/1 70/183/1 69/184/2 
f 47/185/1 46/186/2 72/187/2 71/188/2 
f 45/189/2 44/190/2 74/191/1 73/192/1 
f 43/193/1 42/194/2 76/195/2 75/196/2 
f 144/197/2 143/198/2 122/199/2 123/200/2 
f 142/201/2 141/202/2 120/203/1 121/204/2 
f 147/205/2 118/206/2 119/207/1 140/208/2 
f 146/209/2 148/210/2 116/211/2 117/212/2 
f 152/213/2 151/214/2 114/215/2 115/216/2 
f 113/217/2 150/218/2 109/219/2 108/220/2 
f 149/221/2 135/222/2 111/223/1 110/224/2 
f 136/225/2 145/226/2 138/227/1 137/228/1 
f 36/229/2 35/230/2 38/231/1 37/232/1 
f 32/233/1 31/234/1 34/235/2 33/236/2 
f 28/237/2 27/238/2 30/239/2 29/240/2 
f 24/241/2 23/242/2 26/243/2 25/244/2 
f 84/245/2 83/246/2 134/247/1 133/248/2 
f 86/249/2 85/250/2 132/251/2 131/252/2 
f 88/253/2 87/254/1 130/255/1 129/256/2 
f 90/257/2 89/258/2 128/259/2 127/260/2 
f 20/261/2 19/262/2 22/263/2 21/264/2 
f 16/265/2 15/266/1 18/267/2 17/268/2 
f 12/269/2 11/270/2 14/271/1 13/272/1 
f 41/273/1 7/274/2 10/275/2 9/276/2 
f 98/277/2 97/278/2 102/279/2 100/280/2 
f 103/281/2 96/282/2 95/283/2 104/284/2 
f 105/285/1 94/286/1 93/287/2 106/288/2 
f 112/289/1 92/290/2 91/291/2 126/292/2 
f 58/293/2 59/294/1 4/295/2 3/296/2 
f 39/297/1 58/293/2 3/296/2 2/298/1 
f 40/299/1 77/300/1 80/301/1 8/302/2 
f 78/303/1 82/304/2 81/305/2 79/306/1 
f 164/307/1 163/308/2 61/309/2 6/310/2 
f 161/311/2 164/307/1 6/310/2 5/312/2 
f 160/313/2 159/314/2 99/315/2 101/316/2 
f 157/317/2 160/313/2 101/316/2 107/318/1 
f 156/319/1 155/320/2 139/321/2 124/322/2 
f 153/323/2 156/319/1 124/322/2 125/324/2 
s off
f 165/325/3 166/326/3 167/326/3 168/325/3 
f 166/326/4 169/327/4 170/327/4 167/326/4 
f 169/327/5 171/328/5 172/328/5 170/327/5 
f 171/328/6 165/325/6 168/325/6 172/328/6 
f 168/325/7 167/326/7 170/327/7 172/328/7 
f 171/328/2 169/327/2 166/326/2 165/325/2 
f 173/329/3 174/330/3 175/330/3 176/329/3 
f 174/330/4 177/331/4 178/331/4 175/330/4 
f 177/331/5 179/332/5 180/332/5 178/331/5 
f 179/332/6 173/329/6 176/329/6 180/332/6 
f 176/329/7 175/330/7 178/331/7 180/332/7 
f 179/332/2 177/331/2 174/330/2 173/329/2 
f 181/333/3 182/334/3 183/334/3 1/333/3 
f 182/334/4 184/335/4 185/335/4 183/334/4 
f 184/335/5 186/336/5 187/336/5 185/335/5 
f 186/336/6 181/333/6 1/333/6 187/336/6 
f 1/333/7 183/334/7 185/335/7 187/336/7 
f 186/336/2 184/335/2 182/334/2 181/333/2 
f 188/337/3 189/338/3 190/338/3 191/337/3 
f 189/338/4 192/339/4 193/339/4 190/338/4 
f 192/339/5 194/340/5 195/340/5 193/339/5 
f 194/340/6 188/337/6 191/337/6 195/340/6 
f 191/337/7 190/338/7 193/339/7 195/340/7 
f 194/340/2 192/339/2 189/338/2 188/337/2 
# 169 polygons - 8 triangles

