# 3ds Max Wavefront OBJ Exporter v0.97b - (c)2007 guruware
# File Created: 15.03.2017 10:19:07

mtllib SPW_Natures_Cloud_03.mtl

#
# object SPW_Natures_Cloud_03
#

v  54.4451 44.1924 32.1431
v  46.5631 43.1130 -28.1676
v  10.5137 50.7645 6.5436
v  84.8248 23.9851 3.8448
v  4.3658 21.3347 -37.4569
v  -20.2093 10.1985 -15.1576
v  3.0121 21.3034 39.2597
v  71.3362 1.7982 -31.0843
v  23.1409 -14.7757 -47.1914
v  -9.0887 -26.8542 29.3882
v  44.2349 -24.1341 47.2612
v  77.8816 -10.3979 33.0747
v  68.7954 -41.9540 -16.5362
v  11.2865 -59.0842 1.5350
v  -63.7897 41.2545 20.7188
v  0.4249 40.2454 11.2352
v  -37.4064 47.3986 -25.2346
v  -32.9265 22.3632 51.4740
v  9.4337 19.8853 -32.5641
v  -14.9005 9.4744 -57.4562
v  -72.4936 19.8563 -32.2569
v  4.0716 1.6211 36.7627
v  20.2296 -13.8734 -13.3846
v  -62.2159 -25.1651 -44.9774
v  -80.1487 -22.6221 10.5070
v  -64.2801 -9.7805 44.9510
v  -11.5140 -39.2817 34.4613
v  -32.0430 -55.2962 -24.5477
# 28 vertices

vn 0.1705 0.9845 -0.0399
vn 0.4989 0.8629 -0.0806
vn -0.3083 0.8101 -0.4987
vn -0.6381 0.6782 -0.3645
vn -0.8316 0.4939 0.2541
vn -0.2474 0.7475 0.6164
vn 0.6941 0.4555 -0.5574
vn 0.0610 0.2893 -0.9553
vn -0.9195 0.1572 0.3603
vn -0.3104 -0.1154 0.9436
vn 0.0418 0.2099 0.9768
vn 0.7517 0.3324 0.5696
vn 0.2432 0.2126 -0.9464
vn 0.3956 -0.3104 -0.8644
vn -0.6351 -0.1247 -0.7623
vn -0.6837 -0.4494 -0.5750
vn -0.8876 -0.4379 -0.1426
vn 0.3286 0.1570 0.9313
vn 0.9735 -0.2260 -0.0346
vn 0.9505 -0.1463 -0.2741
vn 0.0097 -0.7410 -0.6714
vn 0.3813 -0.8101 0.4454
vn -0.1916 -0.7083 0.6794
vn 0.4663 -0.8322 0.3001
vn 0.0383 0.9873 0.1540
vn 0.0819 0.8838 0.4607
vn 0.4480 0.8424 -0.2995
vn 0.3245 0.7169 -0.6171
vn -0.2568 0.5327 -0.8064
vn -0.5736 0.7879 -0.2240
vn 0.5466 0.4970 0.6739
vn 0.9443 0.3262 0.0426
vn -0.3682 0.1740 -0.9133
vn -0.9451 -0.1311 -0.2994
vn -0.9692 0.2381 0.0630
vn -0.5344 0.3667 0.7615
vn 0.9431 0.2407 0.2295
vn 0.8558 -0.3476 0.3832
vn 0.7367 -0.1402 -0.6615
vn 0.5357 -0.4909 -0.6871
vn 0.1171 -0.4743 -0.8725
vn -0.9173 0.1780 0.3562
vn 0.0534 -0.2484 0.9672
vn 0.2850 -0.1617 0.9448
vn 0.6215 -0.7834 -0.0036
vn -0.3974 -0.8412 0.3666
vn -0.6358 -0.7527 -0.1710
vn -0.2619 -0.8585 0.4408
# 48 vertex normals

vt 0.0198 0.8564 0.0000
vt 0.0698 0.8564 0.0000
vt 0.0595 0.8656 0.0000
vt 0.0430 0.8797 0.0000
vt 0.0443 0.8564 0.0000
vt 0.0450 0.8817 0.0000
vt 0.0698 0.9064 0.0000
vt 0.0285 0.8652 0.0000
vt 0.0698 0.8814 0.0000
vt 0.0436 0.8564 0.0000
vt 0.0698 0.8808 0.0000
vt 0.0482 0.8848 0.0000
vt 0.0538 0.8564 0.0000
vt 0.0698 0.8813 0.0000
vt 0.0530 0.8897 0.0000
vt 0.0458 0.8825 0.0000
vt 0.0457 0.8564 0.0000
vt 0.0698 0.8685 0.0000
vt 0.0529 0.8895 0.0000
vt 0.0374 0.8564 0.0000
vt 0.0698 0.8723 0.0000
vt 0.0522 0.8889 0.0000
vt 0.0568 0.8805 0.0000
vt 0.0437 0.8804 0.0000
vt 0.0533 0.8612 0.0000
vt 0.0283 0.8564 0.0000
vt 0.0698 0.8818 0.0000
vt 0.0422 0.8564 0.0000
vt 0.0576 0.8564 0.0000
vt 0.0441 0.8808 0.0000
vt 0.0458 0.8824 0.0000
vt 0.0403 0.8770 0.0000
vt 0.0473 0.8564 0.0000
vt 0.0436 0.8803 0.0000
vt 0.0461 0.8564 0.0000
vt 0.0698 0.8735 0.0000
vt 0.0396 0.8763 0.0000
vt 0.0640 0.8948 0.0000
vt 0.0448 0.8564 0.0000
vt 0.0587 0.8953 0.0000
vt 0.0484 0.8640 0.0000
vt 0.0581 0.8747 0.0000
vt 0.0615 0.8564 0.0000
vt 0.0419 0.8663 0.0000
vt 0.0919 0.8663 0.0000
vt 0.0816 0.8754 0.0000
vt 0.0652 0.8895 0.0000
vt 0.0665 0.8663 0.0000
vt 0.0671 0.8915 0.0000
vt 0.0919 0.9163 0.0000
vt 0.0507 0.8750 0.0000
vt 0.0919 0.8913 0.0000
vt 0.0657 0.8663 0.0000
vt 0.0919 0.8906 0.0000
vt 0.0703 0.8947 0.0000
vt 0.0759 0.8663 0.0000
vt 0.0919 0.8911 0.0000
vt 0.0752 0.8995 0.0000
vt 0.0680 0.8923 0.0000
vt 0.0678 0.8663 0.0000
vt 0.0919 0.8783 0.0000
vt 0.0750 0.8994 0.0000
vt 0.0595 0.8663 0.0000
vt 0.0919 0.8821 0.0000
vt 0.0744 0.8987 0.0000
vt 0.0789 0.8903 0.0000
vt 0.0659 0.8902 0.0000
vt 0.0754 0.8711 0.0000
vt 0.0505 0.8663 0.0000
vt 0.0919 0.8916 0.0000
vt 0.0644 0.8663 0.0000
vt 0.0798 0.8663 0.0000
vt 0.0663 0.8906 0.0000
vt 0.0679 0.8923 0.0000
vt 0.0624 0.8868 0.0000
vt 0.0694 0.8663 0.0000
vt 0.0658 0.8901 0.0000
vt 0.0682 0.8663 0.0000
vt 0.0919 0.8834 0.0000
vt 0.0618 0.8861 0.0000
vt 0.0862 0.9047 0.0000
vt 0.0669 0.8663 0.0000
vt 0.0808 0.9052 0.0000
vt 0.0706 0.8738 0.0000
vt 0.0802 0.8846 0.0000
vt 0.0836 0.8663 0.0000
# 86 texture coords

g SPW_Natures_Cloud_03
usemtl SPW_Natures_01
s off
f 1/1/1 2/2/1 3/3/1 
f 1/4/2 4/5/2 2/6/2 
f 2/1/3 5/2/3 3/7/3 
f 5/1/4 6/2/4 3/7/4 
f 6/1/5 7/2/5 3/7/5 
f 3/8/6 7/2/6 1/9/6 
f 8/10/7 2/11/7 4/12/7 
f 9/1/8 5/2/8 2/7/8 
f 10/13/9 7/14/9 6/15/9 
f 10/16/10 11/2/10 7/7/10 
f 11/17/11 1/18/11 7/19/11 
f 12/20/12 4/21/12 1/22/12 
f 8/1/13 9/2/13 2/23/13 
f 8/24/14 13/25/14 9/14/14 
f 9/26/15 6/27/15 5/7/15 
f 9/1/16 14/28/16 6/7/16 
f 14/1/17 10/29/17 6/30/17 
f 11/1/18 12/2/18 1/31/18 
f 12/32/19 13/2/19 4/7/19 
f 13/33/20 8/2/20 4/34/20 
f 14/35/21 9/36/21 13/37/21 
f 12/38/22 14/39/22 13/40/22 
f 14/41/23 11/42/23 10/7/23 
f 14/43/24 12/38/24 11/7/24 
f 15/44/25 16/45/25 17/46/25 
f 15/47/26 18/48/26 16/49/26 
f 16/44/27 19/45/27 17/50/27 
f 19/44/28 20/45/28 17/50/28 
f 20/44/29 21/45/29 17/50/29 
f 17/51/30 21/45/30 15/52/30 
f 22/53/31 16/54/31 18/55/31 
f 23/44/32 19/45/32 16/50/32 
f 24/56/33 21/57/33 20/58/33 
f 24/59/34 25/45/34 21/50/34 
f 25/60/35 15/61/35 21/62/35 
f 26/63/36 18/64/36 15/65/36 
f 22/44/37 23/45/37 16/66/37 
f 22/67/38 27/68/38 23/57/38 
f 23/69/39 20/70/39 19/50/39 
f 23/44/40 28/71/40 20/50/40 
f 28/44/41 24/72/41 20/73/41 
f 25/44/42 26/45/42 15/74/42 
f 26/75/43 27/45/43 18/50/43 
f 27/76/44 22/45/44 18/77/44 
f 28/78/45 23/79/45 27/80/45 
f 26/81/46 28/82/46 27/83/46 
f 28/84/47 25/85/47 24/50/47 
f 28/86/48 26/81/48 25/50/48 
# 0 polygons - 48 triangles

