# 3ds Max Wavefront OBJ Exporter v0.97b - (c)2007 guruware
# File Created: 15.03.2017 10:56:31

mtllib SPW_Urban_Factory_Cooling_Tower.mtl

#
# object SPW_Urban_Factory_Cooling_Tower
#

v  0.0000 13.2482 271.9101
v  -0.0000 73.8781 281.4961
v  -107.7239 73.8781 260.0684
v  -104.0555 13.2482 251.2122
v  -199.0478 73.8781 199.0477
v  -192.2694 13.2482 192.2695
v  -260.0685 73.8781 107.7238
v  -251.2122 13.2482 104.0555
v  -281.4961 73.8781 -0.0001
v  -271.9101 13.2481 0.0000
v  -260.0684 73.8780 -107.7240
v  -251.2122 13.2481 -104.0555
v  -199.0477 73.8780 -199.0478
v  -192.2695 13.2481 -192.2694
v  -107.7239 73.8780 -260.0685
v  -104.0555 13.2481 -251.2122
v  -0.0000 73.8780 -281.4961
v  -0.0001 13.2481 -271.9101
v  107.7239 73.8780 -260.0685
v  104.0554 13.2481 -251.2122
v  199.0478 73.8780 -199.0478
v  192.2694 13.2481 -192.2695
v  260.0685 73.8780 -107.7239
v  251.2122 13.2481 -104.0555
v  281.4961 73.8781 0.0000
v  271.9101 13.2481 -0.0000
v  260.0684 73.8781 107.7239
v  251.2121 13.2482 104.0555
v  199.0477 73.8781 199.0479
v  192.2694 13.2482 192.2695
v  107.7237 73.8781 260.0685
v  104.0554 13.2482 251.2122
v  -0.0000 28.2620 279.5298
v  -0.0000 36.9234 279.5298
v  -106.9715 36.9234 258.2518
v  -106.9715 28.2620 258.2518
v  -197.6574 36.9234 197.6574
v  -197.6574 28.2620 197.6574
v  -258.2519 36.9234 106.9714
v  -258.2519 28.2619 106.9714
v  -279.5298 36.9233 -0.0001
v  -279.5298 28.2619 -0.0001
v  -258.2518 36.9233 -106.9715
v  -258.2518 28.2619 -106.9715
v  -197.6574 36.9233 -197.6574
v  -197.6574 28.2619 -197.6574
v  -106.9714 36.9233 -258.2519
v  -106.9714 28.2619 -258.2519
v  -0.0000 36.9233 -279.5298
v  -0.0000 28.2619 -279.5298
v  106.9714 36.9233 -258.2519
v  106.9714 28.2619 -258.2519
v  197.6574 36.9233 -197.6574
v  197.6574 28.2619 -197.6574
v  258.2519 36.9233 -106.9714
v  258.2519 28.2619 -106.9714
v  279.5298 36.9233 0.0000
v  279.5298 28.2619 0.0000
v  258.2518 36.9234 106.9715
v  258.2518 28.2619 106.9715
v  197.6573 36.9234 197.6575
v  197.6573 28.2620 197.6575
v  106.9713 36.9234 258.2519
v  106.9713 28.2620 258.2519
v  -0.0000 51.2955 283.0222
v  -0.0000 59.9166 283.0222
v  -108.3079 59.9166 261.4784
v  -108.3079 51.2955 261.4784
v  -200.1270 59.9166 200.1269
v  -200.1270 51.2955 200.1269
v  -261.4784 59.9165 108.3078
v  -261.4784 51.2955 108.3079
v  -283.0222 59.9165 -0.0001
v  -283.0222 51.2955 -0.0001
v  -261.4784 59.9165 -108.3080
v  -261.4784 51.2954 -108.3080
v  -200.1269 59.9165 -200.1270
v  -200.1269 51.2954 -200.1270
v  -108.3079 59.9165 -261.4784
v  -108.3079 51.2954 -261.4784
v  -0.0000 59.9165 -283.0222
v  -0.0000 51.2954 -283.0222
v  108.3079 59.9165 -261.4784
v  108.3079 51.2954 -261.4784
v  200.1269 59.9165 -200.1270
v  200.1269 51.2954 -200.1270
v  261.4784 59.9165 -108.3079
v  261.4784 51.2954 -108.3079
v  283.0222 59.9165 0.0000
v  283.0222 51.2955 0.0000
v  261.4784 59.9165 108.3080
v  261.4784 51.2955 108.3080
v  200.1268 59.9166 200.1270
v  200.1268 51.2955 200.1270
v  108.3077 59.9166 261.4785
v  108.3077 51.2955 261.4785
v  116.8742 86.4371 -265.1843
v  -104.8710 86.4372 270.1561
v  -99.9827 0.6891 258.3547
v  111.9859 0.6890 -253.3828
v  -116.8742 86.4372 265.1842
v  -111.9859 0.6891 253.3828
v  104.8710 86.4371 -270.1561
v  99.9827 0.6890 -258.3547
v  270.1561 86.4371 -104.8710
v  -265.1843 86.4371 116.8741
v  -253.3829 0.6891 111.9859
v  258.3547 0.6891 -99.9827
v  -270.1561 86.4371 104.8710
v  -258.3547 0.6891 99.9827
v  265.1843 86.4371 -116.8742
v  253.3829 0.6891 -111.9859
v  265.1842 86.4371 116.8742
v  -270.1561 86.4371 -104.8711
v  -258.3547 0.6891 -99.9828
v  253.3828 0.6891 111.9859
v  -265.1842 86.4371 -116.8743
v  -253.3828 0.6891 -111.9859
v  270.1561 86.4371 104.8711
v  258.3547 0.6891 99.9828
v  104.8710 86.4372 270.1561
v  -116.8741 86.4371 -265.1843
v  -111.9858 0.6890 -253.3829
v  99.9827 0.6891 258.3547
v  -104.8710 86.4371 -270.1562
v  -99.9827 0.6890 -258.3547
v  116.8741 86.4372 265.1843
v  111.9858 0.6891 253.3829
v  200.2724 86.4372 209.4594
v  -209.4592 86.4371 -200.2726
v  -200.4268 0.6891 -191.2401
v  191.2400 0.6891 200.4270
v  -200.2724 86.4371 -209.4594
v  -191.2400 0.6891 -200.4270
v  209.4592 86.4372 200.2726
v  200.4268 0.6891 191.2401
v  289.7242 86.4371 6.4961
v  -289.7242 86.4371 6.4960
v  -276.9504 0.6891 6.4960
v  276.9504 0.6891 6.4962
v  -289.7242 86.4371 -6.4962
v  -276.9504 0.6891 -6.4962
v  289.7242 86.4371 -6.4960
v  276.9504 0.6891 -6.4960
v  209.4594 86.4371 -200.2724
v  -200.2726 86.4372 209.4592
v  -191.2401 0.6891 200.4268
v  200.4269 0.6891 -191.2400
v  -209.4594 86.4372 200.2724
v  -200.4269 0.6891 191.2400
v  200.2726 86.4371 -209.4592
v  191.2401 0.6891 -200.4268
v  6.4961 86.4371 -289.7242
v  6.4960 86.4372 289.7241
v  6.4960 0.6891 276.9504
v  6.4961 0.6890 -276.9504
v  -6.4961 86.4372 289.7241
v  -6.4961 0.6891 276.9504
v  -6.4960 86.4371 -289.7242
v  -6.4960 0.6890 -276.9504
v  -0.0000 0.2561 281.4961
v  -0.0000 13.2482 281.4961
v  -107.7239 13.2482 260.0684
v  -107.7239 0.2561 260.0684
v  -199.0478 13.2482 199.0477
v  -199.0478 0.2560 199.0477
v  -260.0685 13.2482 107.7238
v  -260.0685 0.2560 107.7238
v  -281.4961 13.2481 -0.0001
v  -281.4961 0.2560 -0.0001
v  -260.0684 13.2481 -107.7239
v  -260.0684 0.2560 -107.7239
v  -199.0477 13.2481 -199.0478
v  -199.0477 0.2560 -199.0478
v  -107.7239 13.2481 -260.0685
v  -107.7239 0.2560 -260.0685
v  -0.0000 13.2481 -281.4961
v  -0.0000 0.2560 -281.4961
v  107.7239 13.2481 -260.0685
v  107.7239 0.2560 -260.0685
v  199.0478 13.2481 -199.0478
v  199.0478 0.2560 -199.0478
v  260.0685 13.2481 -107.7239
v  260.0685 0.2560 -107.7239
v  281.4961 13.2481 0.0000
v  281.4961 0.2560 0.0000
v  260.0684 13.2482 107.7240
v  260.0684 0.2560 107.7240
v  199.0477 13.2482 199.0479
v  199.0477 0.2560 199.0479
v  107.7237 13.2482 260.0685
v  107.7237 0.2561 260.0685
v  -0.0000 73.8781 292.3228
v  -0.0000 86.8702 292.3228
v  -111.8671 86.8702 270.0710
v  -111.8671 73.8781 270.0711
v  -206.7035 86.8702 206.7034
v  -206.7035 73.8781 206.7034
v  -270.0711 86.8702 111.8671
v  -270.0711 73.8781 111.8671
v  -292.3228 86.8702 -0.0001
v  -292.3228 73.8781 -0.0001
v  -270.0711 86.8702 -111.8672
v  -270.0711 73.8780 -111.8672
v  -206.7034 86.8702 -206.7035
v  -206.7034 73.8780 -206.7035
v  -111.8671 86.8701 -270.0711
v  -111.8671 73.8780 -270.0711
v  -0.0000 86.8701 -292.3229
v  -0.0000 73.8780 -292.3228
v  111.8671 86.8701 -270.0711
v  111.8671 73.8780 -270.0711
v  206.7034 86.8702 -206.7035
v  206.7034 73.8780 -206.7035
v  270.0711 86.8702 -111.8671
v  270.0711 73.8780 -111.8671
v  292.3228 86.8702 0.0000
v  292.3228 73.8781 0.0000
v  270.0710 86.8702 111.8672
v  270.0710 73.8781 111.8672
v  206.7034 86.8702 206.7036
v  206.7034 73.8781 206.7036
v  111.8669 86.8702 270.0711
v  111.8669 73.8781 270.0712
v  -0.0000 86.8702 232.4017
v  -0.0000 303.4057 193.1505
v  -73.9156 303.4057 178.4478
v  -88.9363 86.8702 214.7111
v  -136.5781 303.4057 136.5780
v  -164.3328 86.8702 164.3328
v  -178.4479 303.4057 73.9155
v  -214.7112 86.8702 88.9362
v  -193.1506 303.4057 -0.0001
v  -232.4016 86.8702 -0.0001
v  -178.4479 303.4057 -73.9156
v  -214.7111 86.8702 -88.9363
v  -136.5781 303.4056 -136.5782
v  -164.3328 86.8702 -164.3328
v  -73.9155 303.4056 -178.4479
v  -88.9363 86.8702 -214.7112
v  -0.0000 303.4056 -193.1506
v  0.0000 86.8702 -232.4017
v  73.9155 303.4056 -178.4479
v  88.9362 86.8702 -214.7112
v  136.5781 303.4056 -136.5782
v  164.3328 86.8702 -164.3329
v  178.4479 303.4057 -73.9156
v  214.7112 86.8702 -88.9363
v  193.1506 303.4057 -0.0000
v  232.4017 86.8702 0.0000
v  178.4479 303.4057 73.9156
v  214.7111 86.8702 88.9363
v  136.5780 303.4057 136.5781
v  164.3327 86.8702 164.3329
v  -126.5656 390.0198 -126.5657
v  -165.3660 390.0199 -68.4969
v  -158.0545 476.6340 -65.4684
v  -120.9697 476.6340 -120.9698
v  73.9154 303.4057 178.4479
v  88.9361 86.8702 214.7112
v  -65.4683 476.6340 -158.0546
v  -121.6352 563.2482 -121.6353
v  -65.8285 563.2482 -158.9241
v  165.3660 390.0199 -68.4969
v  126.5656 390.0198 -126.5657
v  120.9697 476.6340 -120.9698
v  158.0546 476.6340 -65.4684
v  -0.0000 390.0199 178.9908
v  68.4967 390.0199 165.3660
v  65.4682 476.6341 158.0545
v  -0.0000 476.6341 171.0769
v  -178.9909 390.0199 -0.0001
v  -165.3660 390.0199 68.4967
v  -158.0546 476.6340 65.4682
v  -171.0770 476.6340 -0.0001
v  68.4968 390.0198 -165.3660
v  -0.0000 390.0198 -178.9909
v  -0.0000 476.6340 -171.0771
v  65.4683 476.6340 -158.0546
v  126.5656 390.0199 126.5656
v  165.3660 390.0199 68.4968
v  158.0545 476.6340 65.4683
v  120.9696 476.6341 120.9697
v  -126.5657 390.0199 126.5656
v  -68.4969 390.0199 165.3659
v  -65.4684 476.6341 158.0545
v  -120.9697 476.6341 120.9696
v  -68.4968 390.0198 -165.3661
v  178.9908 390.0199 -0.0000
v  171.0770 476.6340 -0.0000
v  172.0181 563.2482 -0.0001
v  158.9240 563.2482 -65.8286
v  162.6989 649.8624 -67.3922
v  176.1040 649.8624 -0.0001
v  121.6351 563.2482 121.6351
v  65.8284 563.2483 158.9240
v  0.0000 563.2482 -172.0182
v  -0.0000 563.2483 172.0180
v  -65.8285 563.2483 158.9239
v  65.8285 563.2482 -158.9241
v  -121.6352 563.2482 121.6351
v  121.6352 563.2482 -121.6353
v  -158.9241 563.2482 65.8284
v  -172.0181 563.2482 -0.0001
v  -158.9240 563.2482 -65.8286
v  158.9240 563.2482 65.8285
v  131.4711 758.4150 -131.4713
v  71.1517 758.4149 -171.7755
v  71.8917 779.7836 -173.5622
v  132.8386 779.7836 -132.8388
v  -176.1040 649.8624 -0.0001
v  -162.6989 649.8624 -67.3922
v  162.6989 649.8624 67.3921
v  -124.5243 649.8624 -124.5245
v  124.5243 649.8624 124.5243
v  -67.3921 649.8623 -162.6991
v  67.3920 649.8624 162.6989
v  -0.0000 649.8623 -176.1041
v  -0.0000 649.8624 176.1040
v  -67.3921 649.8624 162.6988
v  67.3921 649.8623 -162.6990
v  -124.5244 649.8624 124.5242
v  124.5243 649.8624 -124.5245
v  -162.6989 649.8624 67.3920
v  -187.8622 779.7836 -0.0002
v  -173.5621 779.7836 71.8916
v  -158.1914 779.7836 65.5249
v  -171.2251 779.7836 -0.0002
v  -171.7754 758.4150 71.1515
v  -131.4712 758.4150 131.4710
v  -132.8387 779.7836 132.8385
v  171.7753 758.4150 -71.1518
v  173.5620 779.7836 -71.8919
v  -185.9283 758.4150 -0.0002
v  185.9283 758.4150 -0.0001
v  187.8622 779.7836 -0.0001
v  -171.7753 758.4150 -71.1518
v  -173.5620 779.7836 -71.8919
v  171.7753 758.4150 71.1516
v  173.5620 779.7836 71.8917
v  -131.4711 758.4150 -131.4713
v  -132.8386 779.7836 -132.8388
v  131.4711 758.4150 131.4711
v  132.8385 779.7836 132.8386
v  -71.1517 758.4149 -171.7755
v  -71.8918 779.7836 -173.5622
v  71.1516 758.4150 171.7753
v  71.8916 779.7837 173.5620
v  -0.0000 758.4149 -185.9284
v  -0.0000 779.7836 -187.8623
v  -71.1517 758.4150 171.7752
v  -0.0000 758.4150 185.9282
v  -0.0000 779.7837 187.8621
v  -71.8918 779.7837 173.5619
v  121.0743 779.7836 121.0744
v  158.1913 779.7836 65.5249
v  152.8618 438.1293 63.3174
v  116.9953 438.1294 116.9954
v  158.1913 779.7836 -65.5251
v  171.2251 779.7836 -0.0001
v  -158.1914 779.7836 -65.5252
v  -121.0744 779.7836 -121.0746
v  -65.5250 779.7836 -158.1915
v  65.5249 779.7837 158.1913
v  -0.0000 779.7836 -171.2252
v  -0.0000 779.7837 171.2250
v  -65.5250 779.7837 158.1912
v  65.5250 779.7836 -158.1915
v  -121.0745 779.7836 121.0743
v  121.0744 779.7836 -121.0746
v  -165.4565 438.1293 -0.0001
v  -152.8618 438.1293 63.3173
v  -200.0449 130.1893 82.8613
v  -216.5270 130.1893 -0.0001
v  -116.9954 438.1293 -116.9954
v  -63.3174 438.1293 -152.8619
v  63.3173 438.1294 152.8618
v  -0.0000 438.1293 -165.4565
v  -0.0000 438.1294 165.4564
v  -63.3175 438.1294 152.8617
v  63.3174 438.1293 -152.8619
v  -116.9954 438.1294 116.9953
v  116.9953 438.1293 -116.9955
v  152.8618 438.1293 -63.3175
v  165.4564 438.1293 -0.0000
v  -152.8618 438.1293 -63.3175
v  -82.8613 130.1893 200.0449
v  -0.0000 130.1893 216.5270
v  82.8612 130.1893 200.0450
v  153.1076 130.1893 153.1078
v  200.0449 130.1893 82.8614
v  216.5270 130.1893 0.0000
v  200.0449 130.1892 -82.8613
v  153.1077 130.1892 -153.1078
v  82.8613 130.1892 -200.0450
v  -0.0000 130.1892 -216.5271
v  -82.8613 130.1892 -200.0450
v  -153.1077 130.1892 -153.1078
v  -200.0449 130.1892 -82.8614
v  -153.1078 130.1893 153.1077
# 400 vertices

vn -0.1928 -0.1532 0.9692
vn -0.5490 -0.1532 0.8216
vn -0.8216 -0.1532 0.5490
vn -0.9692 -0.1532 0.1928
vn -0.9692 -0.1532 -0.1928
vn -0.8216 -0.1532 -0.5490
vn -0.5490 -0.1532 -0.8216
vn -0.1928 -0.1532 -0.9692
vn 0.1928 -0.1532 -0.9692
vn 0.5490 -0.1532 -0.8216
vn 0.8216 -0.1532 -0.5490
vn 0.9692 -0.1532 -0.1928
vn 0.9692 -0.1532 0.1928
vn 0.8216 -0.1532 0.5490
vn -0.0000 1.0000 -0.0000
vn 0.0000 1.0000 -0.0000
vn 0.5490 -0.1532 0.8216
vn 0.1928 -0.1532 0.9692
vn -0.0000 -1.0000 0.0000
vn 0.0000 -1.0000 0.0000
vn -0.0000 0.0000 1.0000
vn -0.3827 0.0000 0.9239
vn -0.7071 0.0000 0.7071
vn -0.9239 0.0000 0.3827
vn -1.0000 0.0000 -0.0000
vn -1.0000 -0.0000 -0.0000
vn -0.9239 -0.0000 -0.3827
vn -0.7071 -0.0000 -0.7071
vn -0.3827 -0.0000 -0.9239
vn 0.0000 -0.0000 -1.0000
vn -0.0000 -0.0000 -1.0000
vn 0.3827 -0.0000 -0.9239
vn 0.7071 -0.0000 -0.7071
vn 0.9239 -0.0000 -0.3827
vn 1.0000 -0.0000 0.0000
vn 1.0000 0.0000 0.0000
vn 0.9239 0.0000 0.3827
vn 0.7071 0.0000 0.7071
vn 0.3827 0.0000 0.9239
vn -0.3785 -0.1473 0.9138
vn 0.3785 -0.1473 -0.9138
vn -0.9138 -0.1473 0.3785
vn 0.9138 -0.1473 -0.3785
vn 0.0000 1.0000 0.0000
vn -0.9138 -0.1473 -0.3785
vn 0.9138 -0.1473 0.3785
vn -0.0000 1.0000 0.0000
vn -0.3785 -0.1473 -0.9138
vn 0.3785 -0.1473 0.9138
vn -0.6994 -0.1473 -0.6994
vn 0.6994 -0.1473 0.6994
vn -0.9891 -0.1473 0.0000
vn 0.9891 -0.1473 0.0000
vn -0.6994 -0.1473 0.6994
vn 0.6994 -0.1473 -0.6994
vn 0.0000 -0.1473 0.9891
vn 0.0000 -0.1473 -0.9891
vn -0.1921 0.1750 0.9656
vn -0.5470 0.1750 0.8186
vn -0.8186 0.1750 0.5470
vn -0.9656 0.1750 0.1921
vn -0.9656 0.1750 -0.1921
vn -0.8186 0.1750 -0.5470
vn -0.5470 0.1750 -0.8186
vn -0.1921 0.1750 -0.9656
vn 0.1921 0.1750 -0.9656
vn 0.5470 0.1750 -0.8186
vn 0.8186 0.1750 -0.5470
vn 0.9656 0.1750 -0.1921
vn 0.9656 0.1750 0.1921
vn 0.8186 0.1750 0.5470
vn -0.8282 0.0893 -0.5534
vn 0.5470 0.1750 0.8186
vn 0.1921 0.1750 0.9656
vn -0.5555 -0.0107 -0.8314
vn 0.8282 0.0893 -0.5534
vn 0.1943 0.0893 0.9769
vn -0.9769 0.0893 0.1943
vn 0.1943 0.0893 -0.9769
vn 0.8282 0.0893 0.5534
vn -0.5534 0.0893 0.8282
vn -0.5534 0.0893 -0.8282
vn 0.9769 0.0893 -0.1943
vn -0.9769 0.0893 -0.1943
vn 0.5534 0.0893 -0.8282
vn 0.5534 0.0893 0.8282
vn -0.8282 0.0893 0.5534
vn -0.1943 0.0893 -0.9769
vn -0.1943 0.0893 0.9769
vn 0.9769 0.0893 0.1943
vn 0.9797 -0.0462 -0.1949
vn 0.5555 -0.0107 0.8314
vn -0.1951 -0.0107 -0.9807
vn -0.1951 -0.0107 0.9807
vn 0.1951 -0.0107 0.9807
vn 0.1951 -0.0107 -0.9807
vn -0.5555 -0.0107 0.8314
vn 0.5555 -0.0107 -0.8314
vn -0.8314 -0.0107 0.5555
vn 0.8314 -0.0107 -0.5555
vn -0.9807 -0.0107 0.1951
vn 0.9807 -0.0107 -0.1951
vn -0.9807 -0.0107 -0.1951
vn 0.9807 -0.0107 0.1951
vn -0.8314 -0.0107 -0.5555
vn 0.8314 -0.0107 0.5555
vn 0.5534 -0.0884 -0.8282
vn -0.9797 -0.0462 -0.1949
vn 0.9797 -0.0462 0.1949
vn -0.8306 -0.0462 -0.5550
vn 0.8306 -0.0462 0.5550
vn -0.5550 -0.0462 -0.8306
vn 0.5550 -0.0462 0.8306
vn -0.1949 -0.0462 -0.9797
vn -0.1949 -0.0462 0.9797
vn 0.1949 -0.0462 0.9797
vn 0.1949 -0.0462 -0.9797
vn -0.5550 -0.0462 0.8306
vn 0.5550 -0.0462 -0.8306
vn -0.8306 -0.0462 0.5550
vn 0.8306 -0.0462 -0.5550
vn -0.9797 -0.0462 0.1949
vn -0.8282 -0.0884 0.5534
vn 0.8282 -0.0884 -0.5534
vn -0.9769 -0.0884 0.1943
vn 0.9769 -0.0884 -0.1943
vn -0.9769 -0.0884 -0.1943
vn 0.9769 -0.0884 0.1943
vn -0.8282 -0.0884 -0.5534
vn 0.8282 -0.0884 0.5534
vn -0.5534 -0.0884 -0.8282
vn 0.5534 -0.0884 0.8282
vn -0.1943 -0.0884 -0.9769
vn -0.1943 -0.0884 0.9769
vn 0.1943 -0.0884 0.9769
vn 0.1943 -0.0884 -0.9769
vn -0.5534 -0.0884 0.8282
vn 0.9684 0.1583 0.1926
vn -0.1926 0.1583 0.9684
vn -0.1926 0.1583 -0.9684
vn -0.8210 0.1583 0.5486
vn 0.5486 0.1583 0.8210
vn 0.5486 0.1583 -0.8210
vn -0.9684 0.1583 -0.1926
vn 0.9684 0.1583 -0.1926
vn -0.5486 0.1583 -0.8210
vn -0.5486 0.1583 0.8210
vn 0.8210 0.1583 0.5486
vn 0.1926 0.1583 -0.9684
vn -0.9684 0.1583 0.1926
vn 0.1926 0.1583 0.9684
vn 0.8210 0.1583 -0.5486
vn -0.8210 0.1583 -0.5486
vn -0.8314 0.0166 -0.5555
vn 0.9681 -0.1605 -0.1926
vn 0.5555 0.0166 0.8314
vn -0.5555 0.0166 -0.8314
vn 0.1951 0.0166 0.9807
vn 0.1951 0.0166 -0.9807
vn -0.1951 0.0166 -0.9807
vn -0.1951 0.0166 0.9807
vn 0.5555 0.0166 -0.8314
vn -0.5555 0.0166 0.8314
vn 0.8314 0.0166 -0.5555
vn -0.8314 0.0166 0.5555
vn 0.9807 0.0166 -0.1951
vn -0.9807 0.0166 0.1951
vn 0.9807 0.0166 0.1951
vn -0.9807 0.0166 -0.1951
vn 0.8314 0.0166 0.5555
vn -0.9681 -0.1605 0.1926
vn 0.9681 -0.1605 0.1926
vn -0.9681 -0.1605 -0.1926
vn 0.8207 -0.1605 0.5484
vn -0.8207 -0.1605 -0.5484
vn 0.5484 -0.1605 0.8207
vn -0.5484 -0.1605 -0.8207
vn 0.1926 -0.1605 0.9681
vn 0.1926 -0.1605 -0.9681
vn -0.1926 -0.1605 -0.9681
vn -0.1926 -0.1605 0.9681
vn 0.5484 -0.1605 -0.8207
vn -0.5484 -0.1605 0.8207
vn 0.8207 -0.1605 -0.5484
vn -0.8207 -0.1605 0.5484
# 185 vertex normals

vt 0.4142 0.3552 0.0000
vt 0.4642 0.3552 0.0000
vt 0.4642 0.4052 0.0000
vt 0.4142 0.4052 0.0000
vt 0.4392 0.4052 0.0000
vt 0.4488 0.4033 0.0000
vt 0.4569 0.3978 0.0000
vt 0.4623 0.3897 0.0000
vt 0.4642 0.3802 0.0000
vt 0.4623 0.3706 0.0000
vt 0.4569 0.3625 0.0000
vt 0.4488 0.3571 0.0000
vt 0.4392 0.3552 0.0000
vt 0.4296 0.3571 0.0000
vt 0.4215 0.3625 0.0000
vt 0.4161 0.3706 0.0000
vt 0.4142 0.3802 0.0000
vt 0.4161 0.3897 0.0000
vt 0.4215 0.3978 0.0000
vt 0.4296 0.4033 0.0000
vt 0.4177 0.3534 0.0000
vt 0.4677 0.3534 0.0000
vt 0.4677 0.4034 0.0000
vt 0.4177 0.4034 0.0000
vt 0.4427 0.4034 0.0000
vt 0.4523 0.4015 0.0000
vt 0.4604 0.3961 0.0000
vt 0.4658 0.3880 0.0000
vt 0.4677 0.3784 0.0000
vt 0.4658 0.3689 0.0000
vt 0.4604 0.3607 0.0000
vt 0.4523 0.3553 0.0000
vt 0.4427 0.3534 0.0000
vt 0.4331 0.3553 0.0000
vt 0.4250 0.3607 0.0000
vt 0.4196 0.3689 0.0000
vt 0.4177 0.3784 0.0000
vt 0.4196 0.3880 0.0000
vt 0.4250 0.3961 0.0000
vt 0.4331 0.4015 0.0000
vt 0.3986 0.1693 0.0000
vt 0.4486 0.1693 0.0000
vt 0.4486 0.2193 0.0000
vt 0.3986 0.2193 0.0000
vt 0.4236 0.2193 0.0000
vt 0.4331 0.2174 0.0000
vt 0.4413 0.2120 0.0000
vt 0.4467 0.2039 0.0000
vt 0.4486 0.1943 0.0000
vt 0.4467 0.1847 0.0000
vt 0.4413 0.1766 0.0000
vt 0.4331 0.1712 0.0000
vt 0.4236 0.1693 0.0000
vt 0.4140 0.1712 0.0000
vt 0.4059 0.1766 0.0000
vt 0.4005 0.1847 0.0000
vt 0.3986 0.1943 0.0000
vt 0.4005 0.2039 0.0000
vt 0.4059 0.2120 0.0000
vt 0.4140 0.2174 0.0000
# 60 texture coords

g SPW_Urban_Factory_Cooling_Tower
usemtl SPW_Urban_Factory
s off
f 1/1/1 2/2/1 3/3/1 4/4/1 
f 4/1/2 3/2/2 5/3/2 6/4/2 
f 6/1/3 5/2/3 7/3/3 8/4/3 
f 8/1/4 7/2/4 9/3/4 10/4/4 
f 10/1/5 9/2/5 11/3/5 12/4/5 
f 12/1/6 11/2/6 13/3/6 14/4/6 
f 14/1/7 13/2/7 15/3/7 16/4/7 
f 16/1/8 15/2/8 17/3/8 18/4/8 
f 18/1/9 17/2/9 19/3/9 20/4/9 
f 20/1/10 19/2/10 21/3/10 22/4/10 
f 22/1/11 21/2/11 23/3/11 24/4/11 
f 24/1/12 23/2/12 25/3/12 26/4/12 
f 26/1/13 25/2/13 27/3/13 28/4/13 
f 28/1/14 27/2/14 29/3/14 30/4/14 
f 3/5/15 2/6/15 31/7/15 29/8/15 
f 3/5/16 29/8/16 27/9/16 25/10/16 
f 3/5/16 25/10/16 23/11/16 21/12/16 
f 3/5/16 21/12/16 19/13/16 17/14/16 
f 3/5/15 17/14/15 15/15/15 13/16/15 
f 3/5/15 13/16/15 11/17/15 9/18/15 
f 3/5/15 9/18/15 7/19/15 5/20/15 
f 30/1/17 29/2/17 31/3/17 32/4/17 
f 32/1/18 31/2/18 2/3/18 1/4/18 
f 1/5/19 4/6/19 6/7/19 8/8/19 
f 1/5/20 8/8/20 10/9/20 12/10/20 
f 1/5/19 12/10/19 14/11/19 16/12/19 
f 1/5/19 16/12/19 18/13/19 20/14/19 
f 1/5/20 20/14/20 22/15/20 24/16/20 
f 1/5/19 24/16/19 26/17/19 28/18/19 
f 1/5/20 28/18/20 30/19/20 32/20/20 
s 1
f 33/21/21 34/22/21 35/23/22 36/24/22 
f 36/21/22 35/22/22 37/23/23 38/24/23 
f 38/21/23 37/22/23 39/23/24 40/24/24 
f 40/21/24 39/22/24 41/23/25 42/24/26 
f 42/21/26 41/22/25 43/23/27 44/24/27 
f 44/21/27 43/22/27 45/23/28 46/24/28 
f 46/21/28 45/22/28 47/23/29 48/24/29 
f 48/21/29 47/22/29 49/23/30 50/24/31 
f 50/21/31 49/22/30 51/23/32 52/24/32 
f 52/21/32 51/22/32 53/23/33 54/24/33 
f 54/21/33 53/22/33 55/23/34 56/24/34 
f 56/21/34 55/22/34 57/23/35 58/24/36 
f 58/21/36 57/22/35 59/23/37 60/24/37 
f 60/21/37 59/22/37 61/23/38 62/24/38 
s off
f 35/25/15 34/26/15 63/27/15 61/28/15 
f 35/25/16 61/28/16 59/29/16 57/30/16 
f 35/25/16 57/30/16 55/31/16 53/32/16 
f 35/25/15 53/32/15 51/33/15 49/34/15 
f 35/25/16 49/34/16 47/35/16 45/36/16 
f 35/25/15 45/36/15 43/37/15 41/38/15 
f 35/25/15 41/38/15 39/39/15 37/40/15 
s 1
f 62/21/38 61/22/38 63/23/39 64/24/39 
f 64/21/39 63/22/39 34/23/21 33/24/21 
s off
f 33/25/20 36/26/20 38/27/20 40/28/20 
f 33/25/20 40/28/20 42/29/20 44/30/20 
f 33/25/20 44/30/20 46/31/20 48/32/20 
f 33/25/20 48/32/20 50/33/20 52/34/20 
f 33/25/19 52/34/19 54/35/19 56/36/19 
f 33/25/19 56/36/19 58/37/19 60/38/19 
f 33/25/19 60/38/19 62/39/19 64/40/19 
s 1
f 65/21/21 66/22/21 67/23/22 68/24/22 
f 68/21/22 67/22/22 69/23/23 70/24/23 
f 70/21/23 69/22/23 71/23/24 72/24/24 
f 72/21/24 71/22/24 73/23/25 74/24/26 
f 74/21/26 73/22/25 75/23/27 76/24/27 
f 76/21/27 75/22/27 77/23/28 78/24/28 
f 78/21/28 77/22/28 79/23/29 80/24/29 
f 80/21/29 79/22/29 81/23/31 82/24/30 
f 82/21/30 81/22/31 83/23/32 84/24/32 
f 84/21/32 83/22/32 85/23/33 86/24/33 
f 86/21/33 85/22/33 87/23/34 88/24/34 
f 88/21/34 87/22/34 89/23/35 90/24/36 
f 90/21/36 89/22/35 91/23/37 92/24/37 
f 92/21/37 91/22/37 93/23/38 94/24/38 
s off
f 67/25/15 66/26/15 95/27/15 93/28/15 
f 67/25/16 93/28/16 91/29/16 89/30/16 
f 67/25/16 89/30/16 87/31/16 85/32/16 
f 67/25/16 85/32/16 83/33/16 81/34/16 
f 67/25/15 81/34/15 79/35/15 77/36/15 
f 67/25/15 77/36/15 75/37/15 73/38/15 
f 67/25/15 73/38/15 71/39/15 69/40/15 
s 1
f 94/21/38 93/22/38 95/23/39 96/24/39 
f 96/21/39 95/22/39 66/23/21 65/24/21 
s off
f 65/25/19 68/26/19 70/27/19 72/28/19 
f 65/25/19 72/28/19 74/29/19 76/30/19 
f 65/25/19 76/30/19 78/31/19 80/32/19 
f 65/25/20 80/32/20 82/33/20 84/34/20 
f 65/25/20 84/34/20 86/35/20 88/36/20 
f 65/25/20 88/36/20 90/37/20 92/38/20 
f 65/25/20 92/38/20 94/39/20 96/40/20 
f 97/21/37 98/22/37 99/23/37 100/24/37 
f 98/21/40 101/22/40 102/23/40 99/24/40 
f 101/21/27 103/22/27 104/23/27 102/24/27 
f 103/21/41 97/22/41 100/23/41 104/24/41 
f 100/21/19 99/22/19 102/23/19 104/24/19 
f 103/21/15 101/22/15 98/23/15 97/24/15 
f 105/21/39 106/22/39 107/23/39 108/24/39 
f 106/21/42 109/22/42 110/23/42 107/24/42 
f 109/21/29 111/22/29 112/23/29 110/24/29 
f 111/21/43 105/22/43 108/23/43 112/24/43 
f 108/21/20 107/22/20 110/23/20 112/24/20 
f 111/21/44 109/22/44 106/23/44 105/24/44 
f 113/21/22 114/22/22 115/23/22 116/24/22 
f 114/21/45 117/22/45 118/23/45 115/24/45 
f 117/21/32 119/22/32 120/23/32 118/24/32 
f 119/21/46 113/22/46 116/23/46 120/24/46 
f 116/21/19 115/22/19 118/23/19 120/24/19 
f 119/21/47 117/22/47 114/23/47 113/24/47 
f 121/21/24 122/22/24 123/23/24 124/24/24 
f 122/21/48 125/22/48 126/23/48 123/24/48 
f 125/21/34 127/22/34 128/23/34 126/24/34 
f 127/21/49 121/22/49 124/23/49 128/24/49 
f 124/21/20 123/22/20 126/23/20 128/24/20 
f 127/21/16 125/22/16 122/23/16 121/24/16 
f 129/21/23 130/22/23 131/23/23 132/24/23 
f 130/21/50 133/22/50 134/23/50 131/24/50 
f 133/21/33 135/22/33 136/23/33 134/24/33 
f 135/21/51 129/22/51 132/23/51 136/24/51 
f 132/21/19 131/22/19 134/23/19 136/24/19 
f 135/21/16 133/22/16 130/23/16 129/24/16 
f 137/21/21 138/22/21 139/23/21 140/24/21 
f 138/21/52 141/22/52 142/23/52 139/24/52 
f 141/21/30 143/22/30 144/23/30 142/24/30 
f 143/21/53 137/22/53 140/23/53 144/24/53 
f 140/21/20 139/22/20 142/23/20 144/24/20 
f 143/21/16 141/22/16 138/23/16 137/24/16 
f 145/21/38 146/22/38 147/23/38 148/24/38 
f 146/21/54 149/22/54 150/23/54 147/24/54 
f 149/21/28 151/22/28 152/23/28 150/24/28 
f 151/21/55 145/22/55 148/23/55 152/24/55 
f 148/21/20 147/22/20 150/23/20 152/24/20 
f 151/21/15 149/22/15 146/23/15 145/24/15 
f 153/21/36 154/22/36 155/23/36 156/24/36 
f 154/21/56 157/22/56 158/23/56 155/24/56 
f 157/21/26 159/22/26 160/23/26 158/24/26 
f 159/21/57 153/22/57 156/23/57 160/24/57 
f 156/21/20 155/22/20 158/23/20 160/24/20 
f 159/21/16 157/22/16 154/23/16 153/24/16 
s 1
f 161/21/21 162/22/21 163/23/22 164/24/22 
f 164/21/22 163/22/22 165/23/23 166/24/23 
f 166/21/23 165/22/23 167/23/24 168/24/24 
f 168/21/24 167/22/24 169/23/25 170/24/26 
f 170/21/26 169/22/25 171/23/27 172/24/27 
f 172/21/27 171/22/27 173/23/28 174/24/28 
f 174/21/28 173/22/28 175/23/29 176/24/29 
f 176/21/29 175/22/29 177/23/30 178/24/30 
f 178/21/30 177/22/30 179/23/32 180/24/32 
f 180/21/32 179/22/32 181/23/33 182/24/33 
f 182/21/33 181/22/33 183/23/34 184/24/34 
f 184/21/34 183/22/34 185/23/35 186/24/36 
f 186/21/36 185/22/35 187/23/37 188/24/37 
f 188/21/37 187/22/37 189/23/38 190/24/38 
s off
f 163/25/15 162/26/15 191/27/15 189/28/15 
f 163/25/15 189/28/15 187/29/15 185/30/15 
f 163/25/15 185/30/15 183/31/15 181/32/15 
f 163/25/15 181/32/15 179/33/15 177/34/15 
f 163/25/16 177/34/16 175/35/16 173/36/16 
f 163/25/16 173/36/16 171/37/16 169/38/16 
f 163/25/16 169/38/16 167/39/16 165/40/16 
s 1
f 190/21/38 189/22/38 191/23/39 192/24/39 
f 192/21/39 191/22/39 162/23/21 161/24/21 
s off
f 161/25/20 164/26/20 166/27/20 168/28/20 
f 161/25/20 168/28/20 170/29/20 172/30/20 
f 161/25/19 172/30/19 174/31/19 176/32/19 
f 161/25/20 176/32/20 178/33/20 180/34/20 
f 161/25/20 180/34/20 182/35/20 184/36/20 
f 161/25/19 184/36/19 186/37/19 188/38/19 
f 161/25/19 188/38/19 190/39/19 192/40/19 
s 1
f 193/21/21 194/22/21 195/23/22 196/24/22 
f 196/21/22 195/22/22 197/23/23 198/24/23 
f 198/21/23 197/22/23 199/23/24 200/24/24 
f 200/21/24 199/22/24 201/23/25 202/24/26 
f 202/21/26 201/22/25 203/23/27 204/24/27 
f 204/21/27 203/22/27 205/23/28 206/24/28 
f 206/21/28 205/22/28 207/23/29 208/24/29 
f 208/21/29 207/22/29 209/23/30 210/24/30 
f 210/21/30 209/22/30 211/23/32 212/24/32 
f 212/21/32 211/22/32 213/23/33 214/24/33 
f 214/21/33 213/22/33 215/23/34 216/24/34 
f 216/21/34 215/22/34 217/23/35 218/24/36 
f 218/21/36 217/22/35 219/23/37 220/24/37 
f 220/21/37 219/22/37 221/23/38 222/24/38 
s off
f 195/25/16 194/26/16 223/27/16 221/28/16 
f 195/25/16 221/28/16 219/29/16 217/30/16 
f 195/25/15 217/30/15 215/31/15 213/32/15 
f 195/25/15 213/32/15 211/33/15 209/34/15 
f 195/25/16 209/34/16 207/35/16 205/36/16 
f 195/25/16 205/36/16 203/37/16 201/38/16 
f 195/25/15 201/38/15 199/39/15 197/40/15 
s 1
f 222/21/38 221/22/38 223/23/39 224/24/39 
f 224/21/39 223/22/39 194/23/21 193/24/21 
s off
f 193/25/20 196/26/20 198/27/20 200/28/20 
f 193/25/19 200/28/19 202/29/19 204/30/19 
f 193/25/20 204/30/20 206/31/20 208/32/20 
f 193/25/20 208/32/20 210/33/20 212/34/20 
f 193/25/19 212/34/19 214/35/19 216/36/19 
f 193/25/20 216/36/20 218/37/20 220/38/20 
f 193/25/19 220/38/19 222/39/19 224/40/19 
f 225/41/58 226/42/58 227/43/58 228/44/58 
f 228/41/59 227/42/59 229/43/59 230/44/59 
f 230/41/60 229/42/60 231/43/60 232/44/60 
f 232/41/61 231/42/61 233/43/61 234/44/61 
f 234/41/62 233/42/62 235/43/62 236/44/62 
f 236/41/63 235/42/63 237/43/63 238/44/63 
f 238/41/64 237/42/64 239/43/64 240/44/64 
f 240/41/65 239/42/65 241/43/65 242/44/65 
f 242/41/66 241/42/66 243/43/66 244/44/66 
f 244/41/67 243/42/67 245/43/67 246/44/67 
f 246/41/68 245/42/68 247/43/68 248/44/68 
f 248/41/69 247/42/69 249/43/69 250/44/69 
f 250/41/70 249/42/70 251/43/70 252/44/70 
f 252/41/71 251/42/71 253/43/71 254/44/71 
f 255/41/72 256/42/72 257/43/72 258/44/72 
f 254/41/73 253/42/73 259/43/73 260/44/73 
f 260/41/74 259/42/74 226/43/74 225/44/74 
f 225/45/20 228/46/20 230/47/20 232/48/20 
f 225/45/19 232/48/19 234/49/19 236/50/19 
f 225/45/20 236/50/20 238/51/20 240/52/20 
f 225/45/20 240/52/20 242/53/20 244/54/20 
f 225/45/19 244/54/19 246/55/19 248/56/19 
f 225/45/20 248/56/20 250/57/20 252/58/20 
f 225/45/19 252/58/19 254/59/19 260/60/19 
f 261/41/75 258/42/75 262/43/75 263/44/75 
f 264/41/76 265/42/76 266/43/76 267/44/76 
f 268/41/77 269/42/77 270/43/77 271/44/77 
f 272/41/78 273/42/78 274/43/78 275/44/78 
f 276/41/79 277/42/79 278/43/79 279/44/79 
f 280/41/80 281/42/80 282/43/80 283/44/80 
f 284/41/81 285/42/81 286/43/81 287/44/81 
f 288/41/82 255/42/82 258/43/82 261/44/82 
f 289/41/83 264/42/83 267/43/83 290/44/83 
f 256/41/84 272/42/84 275/43/84 257/44/84 
f 265/41/85 276/42/85 279/43/85 266/44/85 
f 269/41/86 280/42/86 283/43/86 270/44/86 
f 273/41/87 284/42/87 287/43/87 274/44/87 
f 277/41/88 288/42/88 261/43/88 278/44/88 
f 285/41/89 268/42/89 271/43/89 286/44/89 
f 281/41/90 289/42/90 290/43/90 282/44/90 
f 291/41/91 292/42/91 293/43/91 294/44/91 
f 270/41/92 283/42/92 295/43/92 296/44/92 
f 278/41/93 261/42/93 263/43/93 297/44/93 
f 286/41/94 271/42/94 298/43/94 299/44/94 
f 271/41/95 270/42/95 296/43/95 298/44/95 
f 279/41/96 278/42/96 297/43/96 300/44/96 
f 287/41/97 286/42/97 299/43/97 301/44/97 
f 266/41/98 279/42/98 300/43/98 302/44/98 
f 274/41/99 287/42/99 301/43/99 303/44/99 
f 267/41/100 266/42/100 302/43/100 292/44/100 
f 275/41/101 274/42/101 303/43/101 304/44/101 
f 290/41/102 267/42/102 292/43/102 291/44/102 
f 257/41/103 275/42/103 304/43/103 305/44/103 
f 282/41/104 290/42/104 291/43/104 306/44/104 
f 258/41/105 257/42/105 305/43/105 262/44/105 
f 283/41/106 282/42/106 306/43/106 295/44/106 
s 1
f 307/57/107 308/49/107 309/43/107 310/44/107 
s off
f 305/41/108 304/42/108 311/43/108 312/44/108 
f 306/41/109 291/42/109 294/43/109 313/44/109 
f 262/41/110 305/42/110 312/43/110 314/44/110 
f 295/41/111 306/42/111 313/43/111 315/44/111 
f 263/41/112 262/42/112 314/43/112 316/44/112 
f 296/41/113 295/42/113 315/43/113 317/44/113 
f 297/41/114 263/42/114 316/43/114 318/44/114 
f 299/41/115 298/42/115 319/43/115 320/44/115 
f 298/41/116 296/42/116 317/43/116 319/44/116 
f 300/41/117 297/42/117 318/43/117 321/44/117 
f 301/41/118 299/42/118 320/43/118 322/44/118 
f 302/41/119 300/42/119 321/43/119 323/44/119 
f 303/41/120 301/42/120 322/43/120 324/44/120 
f 292/41/121 302/42/121 323/43/121 293/44/121 
f 304/41/122 303/42/122 324/43/122 311/44/122 
s 1
f 325/41/16 326/42/16 327/43/16 328/44/16 
f 329/57/123 330/49/123 331/43/123 326/44/123 
s 2
f 332/57/124 307/49/124 310/43/124 333/44/124 
f 334/57/125 329/49/125 326/43/125 325/44/125 
s 1
f 335/57/126 332/49/126 333/43/126 336/44/126 
f 337/57/127 334/49/127 325/43/127 338/44/127 
s 2
f 339/57/128 335/49/128 336/43/128 340/44/128 
s off
f 341/57/129 337/49/129 338/43/129 342/44/129 
s 1
f 343/57/130 339/49/130 340/43/130 344/44/130 
f 345/57/131 341/49/131 342/43/131 346/44/131 
s 2
f 347/57/132 343/49/132 344/43/132 348/44/132 
f 349/57/133 345/49/133 346/43/133 350/44/133 
s 1
f 351/57/134 352/49/134 353/43/134 354/44/134 
s 4
f 352/57/135 347/49/135 348/43/135 353/44/135 
s off
f 308/57/136 349/49/136 350/43/136 309/44/136 
s 2
f 330/57/137 351/49/137 354/43/137 331/44/137 
s off
f 251/41/138 249/42/138 289/43/138 281/44/138 
f 227/41/139 226/42/139 268/43/139 285/44/139 
f 241/41/140 239/42/140 288/43/140 277/44/140 
f 231/41/141 229/42/141 284/43/141 273/44/141 
f 259/41/142 253/42/142 280/43/142 269/44/142 
f 245/41/143 243/42/143 276/43/143 265/44/143 
f 235/41/144 233/42/144 272/43/144 256/44/144 
f 249/41/145 247/42/145 264/43/145 289/44/145 
f 239/41/146 237/42/146 255/43/146 288/44/146 
f 229/41/147 227/42/147 285/43/147 284/44/147 
f 253/41/148 251/42/148 281/43/148 280/44/148 
f 243/41/149 241/42/149 277/43/149 276/44/149 
f 233/41/150 231/42/150 273/43/150 272/44/150 
f 226/41/151 259/42/151 269/43/151 268/44/151 
f 247/41/152 245/42/152 265/43/152 264/44/152 
f 237/41/153 235/42/153 256/43/153 255/44/153 
f 355/41/154 356/42/154 357/43/154 358/44/154 
s 1
f 336/41/16 333/42/16 359/43/16 360/44/16 
f 338/41/16 325/42/16 328/43/16 361/44/16 
f 340/41/16 336/42/16 360/43/16 356/44/16 
f 342/41/16 338/42/16 361/43/16 362/44/16 
s off
f 344/41/16 340/42/16 356/43/16 355/44/16 
s 1
f 346/41/16 342/42/16 362/43/16 363/44/16 
s off
f 348/41/16 344/42/16 355/43/16 364/44/16 
s 1
f 350/41/16 346/42/16 363/43/16 365/44/16 
f 354/41/16 353/42/16 366/43/16 367/44/16 
s off
f 353/41/16 348/42/16 364/43/16 366/44/16 
f 309/41/16 350/42/16 365/43/16 368/44/16 
s 1
f 331/41/16 354/42/16 367/43/16 369/44/16 
f 310/41/16 309/42/16 368/43/16 370/44/16 
f 326/41/16 331/42/16 369/43/16 327/44/16 
f 333/41/16 310/42/16 370/43/16 359/44/16 
s off
f 371/41/155 372/42/155 373/43/155 374/44/155 
f 363/41/156 362/42/156 375/43/156 376/44/156 
f 364/41/157 355/42/157 358/43/157 377/44/157 
f 365/41/158 363/42/158 376/43/158 378/44/158 
f 367/41/159 366/42/159 379/43/159 380/44/159 
f 366/41/160 364/42/160 377/43/160 379/44/160 
f 368/41/161 365/42/161 378/43/161 381/44/161 
f 369/41/162 367/42/162 380/43/162 382/44/162 
f 370/41/163 368/42/163 381/43/163 383/44/163 
f 327/41/164 369/42/164 382/43/164 372/44/164 
f 359/41/165 370/42/165 383/43/165 384/44/165 
f 328/41/166 327/42/166 372/43/166 371/44/166 
f 360/41/167 359/42/167 384/43/167 385/44/167 
f 361/41/168 328/42/168 371/43/168 386/44/168 
f 356/41/169 360/42/169 385/43/169 357/44/169 
f 362/41/170 361/42/170 386/43/170 375/44/170 
f 387/45/16 388/46/16 389/47/16 390/48/16 
f 387/45/15 390/48/15 391/49/15 392/50/15 
f 387/45/16 392/50/16 393/51/16 394/52/16 
f 387/45/15 394/52/15 395/53/15 396/54/15 
f 387/45/16 396/54/16 397/55/16 398/56/16 
f 387/45/15 398/56/15 399/57/15 374/58/15 
f 387/45/16 374/58/16 373/59/16 400/60/16 
f 385/41/171 384/42/171 393/43/171 392/44/171 
f 386/41/172 371/42/172 374/43/172 399/44/172 
f 357/41/173 385/42/173 392/43/173 391/44/173 
f 375/41/174 386/42/174 399/43/174 398/44/174 
f 358/41/175 357/42/175 391/43/175 390/44/175 
f 376/41/176 375/42/176 398/43/176 397/44/176 
f 377/41/177 358/42/177 390/43/177 389/44/177 
f 378/41/178 376/42/178 397/43/178 396/44/178 
f 380/41/179 379/42/179 388/43/179 387/44/179 
f 379/41/180 377/42/180 389/43/180 388/44/180 
f 381/41/181 378/42/181 396/43/181 395/44/181 
f 382/41/182 380/42/182 387/43/182 400/44/182 
f 383/41/183 381/42/183 395/43/183 394/44/183 
f 372/41/184 382/42/184 400/43/184 373/44/184 
f 384/41/185 383/42/185 394/43/185 393/44/185 
s 2
f 322/41/137 320/42/137 351/49/137 330/57/137 
s off
f 321/41/136 318/42/136 349/49/136 308/57/136 
s 4
f 319/41/135 317/42/135 347/49/135 352/57/135 
s 1
f 320/41/134 319/42/134 352/49/134 351/57/134 
s 2
f 318/41/133 316/42/133 345/49/133 349/57/133 
f 317/41/132 315/42/132 343/49/132 347/57/132 
s 1
f 316/41/131 314/42/131 341/49/131 345/57/131 
f 315/41/130 313/42/130 339/49/130 343/57/130 
s off
f 314/41/129 312/42/129 337/49/129 341/57/129 
s 2
f 313/41/128 294/42/128 335/49/128 339/57/128 
s 1
f 312/41/127 311/42/127 334/49/127 337/57/127 
f 294/41/126 293/42/126 332/49/126 335/57/126 
s 2
f 311/41/125 324/42/125 329/49/125 334/57/125 
f 293/41/124 323/42/124 307/49/124 332/57/124 
s 1
f 324/41/123 322/42/123 330/49/123 329/57/123 
f 323/41/107 321/42/107 308/49/107 307/57/107 
# 372 polygons

