# 3ds Max Wavefront OBJ Exporter v0.97b - (c)2007 guruware
# File Created: 15.03.2017 10:57:25

mtllib SPW_Urban_Factory_Prop_Air Controller.mtl

#
# object SPW_Urban_Factory_Prop_Air_Controller
#

v  7.0077 76.8843 -10.3462
v  9.4785 77.0993 -6.1400
v  9.4785 75.8044 -6.1400
v  7.0077 75.5893 -10.3462
v  0.8677 76.8843 0.8677
v  -7.0077 76.8843 10.3462
v  -7.0077 75.5893 10.3462
v  0.8677 75.5893 0.8677
v  -9.4785 77.0993 6.1399
v  -9.4785 75.8044 6.1399
v  -0.8677 76.8843 -0.8677
v  -0.8677 75.5893 -0.8677
v  -2.3607 76.8843 -12.2711
v  2.3607 77.0993 -11.0440
v  2.3607 75.8044 -11.0440
v  -2.3607 75.5893 -12.2711
v  1.2271 76.8843 -0.0000
v  2.3607 76.8843 12.2710
v  2.3607 75.5893 12.2710
v  1.2271 75.5893 -0.0000
v  -2.3607 77.0993 11.0439
v  -2.3607 75.8044 11.0439
v  -1.2271 76.8843 -0.0000
v  -1.2271 75.5893 -0.0000
v  -10.3462 76.8843 -7.0077
v  -6.1400 77.0993 -9.4785
v  -6.1400 75.8044 -9.4785
v  -10.3462 75.5893 -7.0077
v  0.8677 76.8843 -0.8677
v  10.3462 76.8843 7.0076
v  10.3462 75.5893 7.0076
v  0.8677 75.5893 -0.8677
v  6.1400 77.0993 9.4785
v  6.1400 75.8044 9.4785
v  -0.8677 76.8843 0.8677
v  -0.8677 75.5893 0.8677
v  -12.2711 76.8843 2.3607
v  -11.0440 77.0993 -2.3607
v  -11.0440 75.8044 -2.3607
v  -12.2711 75.5893 2.3607
v  -0.0000 76.8843 -1.2271
v  12.2710 76.8843 -2.3607
v  12.2710 75.5893 -2.3607
v  -0.0000 75.5893 -1.2271
v  11.0439 77.0993 2.3607
v  11.0439 75.8044 2.3607
v  -0.0000 76.8843 1.2271
v  -0.0000 75.5893 1.2271
v  -4.9296 70.0039 -15.1716
v  -4.9296 77.1825 -15.1716
v  4.9295 77.1825 -15.1716
v  4.9295 70.0039 -15.1716
v  12.9057 77.1825 -9.3766
v  12.9057 70.0039 -9.3766
v  15.9524 77.1825 -0.0000
v  15.9524 70.0039 -0.0000
v  12.9057 77.1825 9.3766
v  12.9057 70.0039 9.3766
v  4.9295 77.1825 15.1716
v  4.9295 70.0039 15.1716
v  -4.9296 77.1825 15.1716
v  -4.9296 70.0039 15.1716
v  -12.9057 77.1825 9.3766
v  -12.9057 70.0039 9.3766
v  -15.9524 77.1825 -0.0000
v  -15.9524 70.0039 -0.0000
v  -12.9057 77.1825 -9.3766
v  -13.9805 77.1825 -0.0000
v  -11.3105 77.1825 -8.2176
v  -12.9057 70.0039 -9.3766
v  -11.3105 77.1825 8.2175
v  -4.3202 77.1825 13.2963
v  -4.3202 75.2241 13.2963
v  -11.3105 75.2241 8.2175
v  4.3202 77.1825 13.2963
v  11.3105 77.1825 8.2175
v  13.9805 77.1825 -0.0000
v  -4.3202 77.1825 -13.2963
v  4.3202 77.1825 -13.2963
v  11.3105 77.1825 -8.2176
v  4.3202 75.2241 -13.2963
v  -4.3202 75.2241 -13.2963
v  -11.3105 75.2241 -8.2176
v  -13.9805 75.2241 -0.0000
v  4.3202 75.2241 13.2963
v  11.3105 75.2241 8.2175
v  13.9805 75.2241 -0.0000
v  11.3105 75.2241 -8.2176
v  43.8208 76.8843 -31.2070
v  46.2917 77.0993 -27.0008
v  46.2917 75.8044 -27.0008
v  43.8208 75.5893 -31.2070
v  37.6808 76.8843 -19.9931
v  29.8055 76.8843 -10.5146
v  29.8055 75.5893 -10.5146
v  37.6808 75.5893 -19.9931
v  27.3346 77.0993 -14.7208
v  27.3346 75.8044 -14.7208
v  35.9454 76.8843 -21.7285
v  35.9454 75.5893 -21.7285
v  34.4524 76.8843 -33.1318
v  39.1739 77.0993 -31.9047
v  39.1739 75.8044 -31.9047
v  34.4524 75.5893 -33.1318
v  38.0402 76.8843 -20.8608
v  39.1739 76.8843 -8.5897
v  39.1739 75.5893 -8.5897
v  38.0402 75.5893 -20.8608
v  34.4524 77.0993 -9.8169
v  34.4524 75.8044 -9.8169
v  35.5860 76.8843 -20.8608
v  35.5860 75.5893 -20.8608
v  26.4669 76.8843 -27.8685
v  30.6732 77.0993 -30.3393
v  30.6732 75.8044 -30.3393
v  26.4669 75.5893 -27.8685
v  37.6808 76.8843 -21.7285
v  47.1594 76.8843 -13.8531
v  47.1594 75.5893 -13.8531
v  37.6808 75.5893 -21.7285
v  42.9531 77.0993 -11.3823
v  42.9531 75.8044 -11.3823
v  35.9454 76.8843 -19.9931
v  35.9454 75.5893 -19.9931
v  24.5421 76.8843 -18.5001
v  25.7692 77.0993 -23.2215
v  25.7692 75.8044 -23.2215
v  24.5421 75.5893 -18.5001
v  36.8131 76.8843 -22.0879
v  49.0842 76.8843 -23.2215
v  49.0842 75.5893 -23.2215
v  36.8131 75.5893 -22.0879
v  47.8571 77.0993 -18.5001
v  47.8571 75.8044 -18.5001
v  36.8131 76.8843 -19.6337
v  36.8131 75.5893 -19.6337
v  31.8836 70.0039 -36.0324
v  31.8836 77.1825 -36.0324
v  41.7427 77.1825 -36.0324
v  41.7427 70.0039 -36.0324
v  49.7189 77.1825 -30.2374
v  49.7189 70.0039 -30.2374
v  52.7655 77.1825 -20.8608
v  52.7655 70.0039 -20.8608
v  49.7189 77.1825 -11.4842
v  49.7189 70.0039 -11.4842
v  41.7427 77.1825 -5.6892
v  41.7427 70.0039 -5.6892
v  31.8836 77.1825 -5.6892
v  31.8836 70.0039 -5.6892
v  23.9074 77.1825 -11.4842
v  23.9074 70.0039 -11.4842
v  20.8608 77.1825 -20.8608
v  20.8608 70.0039 -20.8608
v  23.9074 77.1825 -30.2374
v  22.8326 77.1825 -20.8608
v  25.5026 77.1825 -29.0784
v  23.9074 70.0039 -30.2374
v  25.5026 77.1825 -12.6432
v  32.4929 77.1825 -7.5645
v  32.4929 75.2241 -7.5645
v  25.5026 75.2241 -12.6432
v  41.1334 77.1825 -7.5645
v  48.1236 77.1825 -12.6432
v  50.7937 77.1825 -20.8608
v  32.4929 77.1825 -34.1571
v  41.1334 77.1825 -34.1571
v  48.1236 77.1825 -29.0784
v  41.1334 75.2241 -34.1571
v  32.4929 75.2241 -34.1571
v  25.5026 75.2241 -29.0784
v  22.8326 75.2241 -20.8608
v  41.1334 75.2241 -7.5645
v  48.1236 75.2241 -12.6432
v  50.7937 75.2241 -20.8608
v  48.1236 75.2241 -29.0784
v  43.8208 76.8843 10.5145
v  46.2917 77.0993 14.7208
v  46.2917 75.8044 14.7208
v  43.8208 75.5893 10.5145
v  37.6808 76.8843 21.7285
v  29.8055 76.8843 31.2070
v  29.8055 75.5893 31.2070
v  37.6808 75.5893 21.7285
v  27.3346 77.0993 27.0007
v  27.3346 75.8044 27.0007
v  35.9454 76.8843 19.9931
v  35.9454 75.5893 19.9931
v  34.4524 76.8843 8.5897
v  39.1739 77.0993 9.8168
v  39.1739 75.8044 9.8168
v  34.4524 75.5893 8.5897
v  38.0402 76.8843 20.8608
v  39.1739 76.8843 33.1318
v  39.1739 75.5893 33.1318
v  38.0402 75.5893 20.8608
v  34.4524 77.0993 31.9047
v  34.4524 75.8044 31.9047
v  35.5860 76.8843 20.8608
v  35.5860 75.5893 20.8608
v  26.4669 76.8843 13.8531
v  30.6732 77.0993 11.3822
v  30.6732 75.8044 11.3822
v  26.4669 75.5893 13.8531
v  37.6808 76.8843 19.9931
v  47.1594 76.8843 27.8684
v  47.1594 75.5893 27.8684
v  37.6808 75.5893 19.9931
v  42.9531 77.0993 30.3393
v  42.9531 75.8044 30.3393
v  35.9454 76.8843 21.7285
v  35.9454 75.5893 21.7285
v  24.5421 76.8843 23.2215
v  25.7692 77.0993 18.5000
v  25.7692 75.8044 18.5000
v  24.5421 75.5893 23.2215
v  36.8131 76.8843 19.6337
v  49.0842 76.8843 18.5000
v  49.0842 75.5893 18.5000
v  36.8131 75.5893 19.6337
v  47.8571 77.0993 23.2215
v  47.8571 75.8044 23.2215
v  36.8131 76.8843 22.0879
v  36.8131 75.5893 22.0879
v  31.8836 70.0039 5.6892
v  31.8836 77.1825 5.6892
v  41.7427 77.1825 5.6892
v  41.7427 70.0039 5.6892
v  49.7189 77.1825 11.4842
v  49.7189 70.0039 11.4842
v  52.7655 77.1825 20.8608
v  52.7655 70.0039 20.8608
v  49.7189 77.1825 30.2373
v  49.7189 70.0039 30.2373
v  41.7427 77.1825 36.0324
v  41.7427 70.0039 36.0324
v  31.8836 77.1825 36.0324
v  31.8836 70.0039 36.0324
v  23.9074 77.1825 30.2373
v  23.9074 70.0039 30.2373
v  20.8608 77.1825 20.8608
v  20.8608 70.0039 20.8608
v  23.9074 77.1825 11.4842
v  22.8326 77.1825 20.8608
v  25.5026 77.1825 12.6432
v  23.9074 70.0039 11.4842
v  25.5026 77.1825 29.0783
v  32.4929 77.1825 34.1571
v  32.4929 75.2241 34.1571
v  25.5026 75.2241 29.0783
v  41.1334 77.1825 34.1571
v  48.1236 77.1825 29.0783
v  50.7937 77.1825 20.8608
v  32.4929 77.1825 7.5645
v  41.1334 77.1825 7.5645
v  48.1236 77.1825 12.6432
v  41.1334 75.2241 7.5645
v  32.4929 75.2241 7.5645
v  25.5026 75.2241 12.6432
v  22.8326 75.2241 20.8608
v  41.1334 75.2241 34.1571
v  48.1236 75.2241 29.0783
v  50.7937 75.2241 20.8608
v  48.1236 75.2241 12.6432
v  -29.8055 76.8843 10.5145
v  -27.3346 77.0993 14.7208
v  -27.3346 75.8044 14.7208
v  -29.8055 75.5893 10.5145
v  -35.9455 76.8843 21.7285
v  -43.8208 76.8843 31.2070
v  -43.8208 75.5893 31.2070
v  -35.9455 75.5893 21.7285
v  -46.2917 77.0993 27.0007
v  -46.2917 75.8044 27.0007
v  -37.6808 76.8843 19.9931
v  -37.6808 75.5893 19.9931
v  -39.1739 76.8843 8.5897
v  -34.4524 77.0993 9.8168
v  -34.4524 75.8044 9.8168
v  -39.1739 75.5893 8.5897
v  -35.5860 76.8843 20.8608
v  -34.4524 76.8843 33.1318
v  -34.4524 75.5893 33.1318
v  -35.5860 75.5893 20.8608
v  -39.1739 77.0993 31.9047
v  -39.1739 75.8044 31.9047
v  -38.0402 76.8843 20.8608
v  -38.0402 75.5893 20.8608
v  -47.1594 76.8843 13.8531
v  -42.9531 77.0993 11.3822
v  -42.9531 75.8044 11.3822
v  -47.1594 75.5893 13.8531
v  -35.9455 76.8843 19.9931
v  -26.4669 76.8843 27.8684
v  -26.4669 75.5893 27.8684
v  -35.9455 75.5893 19.9931
v  -30.6732 77.0993 30.3393
v  -30.6732 75.8044 30.3393
v  -37.6808 76.8843 21.7285
v  -37.6808 75.5893 21.7285
v  -49.0842 76.8843 23.2215
v  -47.8571 77.0993 18.5000
v  -47.8571 75.8044 18.5000
v  -49.0842 75.5893 23.2215
v  -36.8131 76.8843 19.6337
v  -24.5421 76.8843 18.5000
v  -24.5421 75.5893 18.5000
v  -36.8131 75.5893 19.6337
v  -25.7692 77.0993 23.2215
v  -25.7692 75.8044 23.2215
v  -36.8131 76.8843 22.0879
v  -36.8131 75.5893 22.0879
v  -41.7427 70.0039 5.6892
v  -41.7427 77.1825 5.6892
v  -31.8836 77.1825 5.6892
v  -31.8836 70.0039 5.6892
v  -23.9074 77.1825 11.4842
v  -23.9074 70.0039 11.4842
v  -20.8608 77.1825 20.8608
v  -20.8608 70.0039 20.8608
v  -23.9074 77.1825 30.2373
v  -23.9074 70.0039 30.2373
v  -31.8836 77.1825 36.0324
v  -31.8836 70.0039 36.0324
v  -41.7427 77.1825 36.0324
v  -41.7427 70.0039 36.0324
v  -49.7189 77.1825 30.2373
v  -49.7189 70.0039 30.2373
v  -52.7655 77.1825 20.8608
v  -52.7655 70.0039 20.8608
v  -49.7189 77.1825 11.4842
v  -50.7937 77.1825 20.8608
v  -48.1236 77.1825 12.6432
v  -49.7189 70.0039 11.4842
v  -48.1236 77.1825 29.0783
v  -41.1334 77.1825 34.1571
v  -41.1334 75.2241 34.1571
v  -48.1236 75.2241 29.0783
v  -32.4929 77.1825 34.1571
v  -25.5026 77.1825 29.0783
v  -22.8326 77.1825 20.8608
v  -41.1334 77.1825 7.5645
v  -32.4929 77.1825 7.5645
v  -25.5027 77.1825 12.6432
v  -32.4929 75.2241 7.5645
v  -41.1334 75.2241 7.5645
v  -48.1236 75.2241 12.6432
v  -50.7937 75.2241 20.8608
v  -32.4929 75.2241 34.1571
v  -25.5026 75.2241 29.0783
v  -22.8326 75.2241 20.8608
v  -25.5027 75.2241 12.6432
v  -29.8055 76.8843 -31.2070
v  -27.3346 77.0993 -27.0008
v  -27.3346 75.8044 -27.0008
v  -29.8055 75.5893 -31.2070
v  -35.9455 76.8843 -19.9931
v  -43.8208 76.8843 -10.5146
v  -43.8208 75.5893 -10.5146
v  -35.9455 75.5893 -19.9931
v  -46.2917 77.0993 -14.7208
v  -46.2917 75.8044 -14.7208
v  -37.6808 76.8843 -21.7285
v  -37.6808 75.5893 -21.7285
v  -39.1739 76.8843 -33.1318
v  -34.4524 77.0993 -31.9047
v  -34.4524 75.8044 -31.9047
v  -39.1739 75.5893 -33.1318
v  -35.5860 76.8843 -20.8608
v  -34.4524 76.8843 -8.5897
v  -34.4524 75.5893 -8.5897
v  -35.5860 75.5893 -20.8608
v  -39.1739 77.0993 -9.8169
v  -39.1739 75.8044 -9.8169
v  -38.0402 76.8843 -20.8608
v  -38.0402 75.5893 -20.8608
v  -47.1594 76.8843 -27.8685
v  -42.9531 77.0993 -30.3393
v  -42.9531 75.8044 -30.3393
v  -47.1594 75.5893 -27.8685
v  -35.9455 76.8843 -21.7285
v  -26.4669 76.8843 -13.8531
v  -26.4669 75.5893 -13.8531
v  -35.9455 75.5893 -21.7285
v  -30.6732 77.0993 -11.3823
v  -30.6732 75.8044 -11.3823
v  -37.6808 76.8843 -19.9931
v  -37.6808 75.5893 -19.9931
v  -49.0842 76.8843 -18.5001
v  -47.8571 77.0993 -23.2215
v  -47.8571 75.8044 -23.2215
v  -49.0842 75.5893 -18.5001
v  -36.8131 76.8843 -22.0879
v  -24.5421 76.8843 -23.2215
v  -24.5421 75.5893 -23.2215
v  -36.8131 75.5893 -22.0879
v  -25.7692 77.0993 -18.5001
v  -25.7692 75.8044 -18.5001
v  -36.8131 76.8843 -19.6337
v  -36.8131 75.5893 -19.6337
v  -41.7427 70.0039 -36.0324
v  -41.7427 77.1825 -36.0324
v  -31.8836 77.1825 -36.0324
v  -31.8836 70.0039 -36.0324
v  -23.9074 77.1825 -30.2374
v  -23.9074 70.0039 -30.2374
v  -20.8608 77.1825 -20.8608
v  -20.8608 70.0039 -20.8608
v  -23.9074 77.1825 -11.4842
v  -23.9074 70.0039 -11.4842
v  -31.8836 77.1825 -5.6892
v  -31.8836 70.0039 -5.6892
v  -41.7427 77.1825 -5.6892
v  -41.7427 70.0039 -5.6892
v  -49.7189 77.1825 -11.4842
v  -49.7189 70.0039 -11.4842
v  -52.7655 77.1825 -20.8608
v  -52.7655 70.0039 -20.8608
v  -49.7189 77.1825 -30.2374
v  -50.7937 77.1825 -20.8608
v  -48.1236 77.1825 -29.0784
v  -49.7189 70.0039 -30.2374
v  -48.1236 77.1825 -12.6432
v  -41.1334 77.1825 -7.5645
v  -41.1334 75.2241 -7.5645
v  -48.1236 75.2241 -12.6432
v  -32.4929 77.1825 -7.5645
v  -25.5026 77.1825 -12.6432
v  -22.8326 77.1825 -20.8608
v  -41.1334 77.1825 -34.1571
v  -32.4929 77.1825 -34.1571
v  -25.5027 77.1825 -29.0784
v  -32.4929 75.2241 -34.1571
v  -41.1334 75.2241 -34.1571
v  -48.1236 75.2241 -29.0784
v  -50.7937 75.2241 -20.8608
v  -32.4929 75.2241 -7.5645
v  -25.5026 75.2241 -12.6432
v  -22.8326 75.2241 -20.8608
v  -25.5027 75.2241 -29.0784
v  -44.0210 70.1030 -53.0134
v  -45.4029 70.1030 -48.1050
v  -42.9487 70.1030 -48.1050
v  -42.9467 70.1030 -53.0134
v  -45.4029 8.7348 -48.1050
v  -42.9487 8.7348 -48.1050
v  -44.0210 8.7349 -53.0134
v  -42.9467 8.7349 -53.0134
v  -19.4789 70.1030 -53.0134
v  -20.8608 70.1030 -48.1050
v  -18.4066 70.1030 -48.1050
v  -18.4046 70.1030 -53.0134
v  -20.8608 8.7349 -48.1050
v  -18.4066 8.7349 -48.1050
v  -19.4789 8.7349 -53.0134
v  -18.4046 8.7349 -53.0134
v  -14.5705 70.1030 -53.0134
v  -15.9524 70.1030 -48.1050
v  -13.4982 70.1030 -48.1050
v  -13.4961 70.1030 -53.0134
v  -15.9524 8.7349 -48.1050
v  -13.4982 8.7349 -48.1050
v  -14.5705 8.7349 -53.0134
v  -13.4961 8.7349 -53.0134
v  -39.1126 70.1030 -53.0134
v  -40.4945 70.1030 -48.1050
v  -38.0403 70.1030 -48.1050
v  -38.0382 70.1030 -53.0134
v  -40.4945 8.7348 -48.1050
v  -38.0403 8.7348 -48.1050
v  -39.1126 8.7349 -53.0134
v  -38.0382 8.7349 -53.0134
v  -63.6547 70.1029 -53.0134
v  -65.0366 70.1030 -48.1050
v  -62.5824 70.1030 -48.1050
v  -62.5803 70.1029 -53.0134
v  -65.0366 8.7348 -48.1050
v  -62.5823 8.7348 -48.1050
v  -63.6547 8.7348 -53.0134
v  -62.5803 8.7348 -53.0134
v  -58.7463 70.1029 -53.0134
v  -60.1281 70.1030 -48.1050
v  -57.6739 70.1030 -48.1050
v  -57.6719 70.1029 -53.0134
v  -60.1281 8.7348 -48.1050
v  -57.6739 8.7348 -48.1050
v  -58.7463 8.7348 -53.0134
v  -57.6719 8.7348 -53.0134
v  -34.2042 70.1030 -53.0134
v  -35.5861 70.1030 -48.1050
v  -33.1318 70.1030 -48.1050
v  -33.1298 70.1030 -53.0134
v  -35.5860 8.7348 -48.1050
v  -33.1318 8.7348 -48.1050
v  -34.2042 8.7349 -53.0134
v  -33.1298 8.7349 -53.0134
v  -9.6621 70.1030 -53.0134
v  -11.0440 70.1030 -48.1050
v  -8.5897 70.1030 -48.1050
v  -8.5877 70.1030 -53.0134
v  -11.0439 8.7349 -48.1050
v  -8.5897 8.7349 -48.1050
v  -9.6621 8.7349 -53.0134
v  -8.5877 8.7349 -53.0134
v  -4.7537 70.1030 -53.0134
v  -6.1355 70.1030 -48.1050
v  -3.6813 70.1030 -48.1050
v  -3.6793 70.1030 -53.0134
v  -6.1355 8.7349 -48.1050
v  -3.6813 8.7349 -48.1050
v  -4.7537 8.7349 -53.0134
v  -3.6793 8.7349 -53.0134
v  -29.2958 70.1030 -53.0134
v  -30.6776 70.1030 -48.1050
v  -28.2234 70.1030 -48.1050
v  -28.2214 70.1030 -53.0134
v  -30.6776 8.7348 -48.1050
v  -28.2234 8.7348 -48.1050
v  -29.2957 8.7349 -53.0134
v  -28.2214 8.7349 -53.0134
v  -53.8379 70.1029 -53.0134
v  -55.2197 70.1030 -48.1050
v  -52.7655 70.1030 -48.1050
v  -52.7635 70.1029 -53.0134
v  -55.2197 8.7348 -48.1050
v  -52.7655 8.7348 -48.1050
v  -53.8378 8.7348 -53.0134
v  -52.7635 8.7348 -53.0134
v  -48.9294 70.1030 -53.0134
v  -50.3113 70.1030 -48.1050
v  -47.8571 70.1030 -48.1050
v  -47.8551 70.1030 -53.0134
v  -50.3113 8.7348 -48.1050
v  -47.8571 8.7348 -48.1050
v  -48.9294 8.7348 -53.0134
v  -47.8551 8.7348 -53.0134
v  -24.3873 70.1030 -53.0134
v  -25.7692 70.1030 -48.1050
v  -23.3150 70.1030 -48.1050
v  -23.3130 70.1030 -53.0134
v  -25.7692 8.7349 -48.1050
v  -23.3150 8.7349 -48.1050
v  -24.3873 8.7349 -53.0134
v  -23.3130 8.7349 -53.0134
v  0.1548 70.1030 -53.0134
v  -1.2271 70.1030 -48.1050
v  1.2271 70.1030 -48.1050
v  1.2291 70.1030 -53.0134
v  -1.2271 8.7349 -48.1050
v  1.2271 8.7349 -48.1050
v  0.1548 8.7349 -53.0134
v  1.2291 8.7349 -53.0134
v  44.0210 70.1030 53.0135
v  45.4029 70.1030 48.1051
v  42.9487 70.1030 48.1051
v  42.9466 70.1030 53.0135
v  45.4029 8.7349 48.1050
v  42.9487 8.7349 48.1050
v  44.0210 8.7349 53.0135
v  42.9467 8.7349 53.0135
v  19.4789 70.1030 53.0135
v  20.8608 70.1030 48.1051
v  18.4066 70.1030 48.1051
v  18.4045 70.1030 53.0135
v  20.8608 8.7349 48.1050
v  18.4066 8.7349 48.1050
v  19.4789 8.7349 53.0135
v  18.4046 8.7349 53.0135
v  14.5705 70.1030 53.0135
v  15.9524 70.1030 48.1051
v  13.4981 70.1030 48.1051
v  13.4961 70.1030 53.0135
v  15.9524 8.7349 48.1050
v  13.4982 8.7349 48.1050
v  14.5705 8.7349 53.0135
v  13.4961 8.7349 53.0135
v  39.1126 70.1030 53.0135
v  40.4945 70.1030 48.1051
v  38.0402 70.1030 48.1051
v  38.0382 70.1030 53.0135
v  40.4945 8.7349 48.1050
v  38.0403 8.7349 48.1050
v  39.1126 8.7349 53.0135
v  38.0382 8.7349 53.0135
v  63.6547 70.1030 53.0135
v  65.0366 70.1030 48.1051
v  62.5823 70.1030 48.1051
v  62.5803 70.1030 53.0135
v  65.0366 8.7349 48.1050
v  62.5823 8.7349 48.1050
v  63.6547 8.7349 53.0135
v  62.5803 8.7349 53.0135
v  58.7463 70.1030 53.0135
v  60.1281 70.1030 48.1051
v  57.6739 70.1030 48.1051
v  57.6719 70.1030 53.0135
v  60.1281 8.7349 48.1050
v  57.6739 8.7349 48.1050
v  58.7463 8.7349 53.0135
v  57.6719 8.7349 53.0135
v  34.2042 70.1030 53.0135
v  35.5860 70.1030 48.1051
v  33.1318 70.1030 48.1051
v  33.1298 70.1030 53.0135
v  35.5860 8.7349 48.1050
v  33.1318 8.7349 48.1050
v  34.2042 8.7349 53.0135
v  33.1298 8.7349 53.0135
v  9.6621 70.1030 53.0135
v  11.0439 70.1030 48.1051
v  8.5897 70.1030 48.1051
v  8.5877 70.1030 53.0135
v  11.0439 8.7349 48.1050
v  8.5897 8.7349 48.1050
v  9.6621 8.7349 53.0135
v  8.5877 8.7349 53.0135
v  4.7536 70.1030 53.0135
v  6.1355 70.1030 48.1051
v  3.6813 70.1030 48.1051
v  3.6793 70.1030 53.0135
v  6.1355 8.7349 48.1050
v  3.6813 8.7349 48.1050
v  4.7537 8.7349 53.0135
v  3.6793 8.7349 53.0135
v  29.2957 70.1030 53.0135
v  30.6776 70.1030 48.1051
v  28.2234 70.1030 48.1051
v  28.2214 70.1030 53.0135
v  30.6776 8.7349 48.1050
v  28.2234 8.7349 48.1050
v  29.2958 8.7349 53.0135
v  28.2214 8.7349 53.0135
v  53.8378 70.1030 53.0135
v  55.2197 70.1030 48.1051
v  52.7655 70.1030 48.1051
v  52.7635 70.1030 53.0135
v  55.2197 8.7349 48.1050
v  52.7655 8.7349 48.1050
v  53.8378 8.7349 53.0135
v  52.7635 8.7349 53.0135
v  48.9294 70.1030 53.0135
v  50.3113 70.1030 48.1051
v  47.8571 70.1030 48.1051
v  47.8551 70.1030 53.0135
v  50.3113 8.7349 48.1050
v  47.8571 8.7349 48.1050
v  48.9294 8.7348 53.0135
v  47.8551 8.7348 53.0135
v  24.3873 70.1030 53.0135
v  25.7692 70.1030 48.1051
v  23.3150 70.1030 48.1051
v  23.3130 70.1030 53.0135
v  25.7692 8.7349 48.1050
v  23.3150 8.7349 48.1050
v  24.3873 8.7349 53.0135
v  23.3130 8.7349 53.0135
v  -0.1548 70.1030 53.0135
v  1.2271 70.1030 48.1051
v  -1.2271 70.1030 48.1051
v  -1.2291 70.1030 53.0135
v  1.2271 8.7349 48.1050
v  -1.2271 8.7349 48.1050
v  -0.1548 8.7348 53.0135
v  -1.2291 8.7348 53.0135
v  -73.6263 4.8994 49.0842
v  -73.6263 4.8994 -49.0842
v  -73.6263 -0.0101 -49.0842
v  -73.6263 -0.0101 49.0842
v  73.6263 4.8994 49.0842
v  73.6263 -0.0101 49.0842
v  -73.6263 7.3541 46.0164
v  -73.6263 7.3541 1.8406
v  -73.6263 7.3541 -1.8407
v  -73.6263 7.3541 -46.0165
v  -73.6263 78.5411 -49.0842
v  -73.6263 76.0864 -46.0164
v  -73.6263 78.5411 49.0842
v  -73.6263 76.0864 -1.8407
v  -73.6263 76.0864 1.8406
v  -73.6263 76.0864 46.0164
v  73.6263 4.8994 -49.0842
v  73.6263 -0.0101 -49.0842
v  73.6263 78.5411 49.0842
v  -68.7179 78.5411 -44.1758
v  68.7179 78.5411 -44.1758
v  73.6263 78.5411 -49.0842
v  -68.7179 78.5411 44.1758
v  68.7179 78.5411 44.1758
v  73.6263 7.3541 46.0164
v  73.6263 76.0864 46.0164
v  73.6263 76.0864 1.8406
v  73.6263 76.0864 -1.8407
v  73.6263 7.3541 1.8406
v  73.6263 7.3541 -1.8407
v  73.6263 76.0864 -46.0164
v  73.6263 7.3541 -46.0165
v  71.1721 76.0864 -1.8407
v  71.1721 7.3541 -1.8407
v  71.1721 7.3541 -46.0165
v  71.1721 76.0864 -46.0164
v  71.1721 76.0864 46.0164
v  71.1721 7.3541 46.0164
v  71.1721 7.3541 1.8406
v  71.1721 76.0864 1.8406
v  -71.1721 7.3541 1.8406
v  -71.1721 76.0864 1.8406
v  -71.1721 76.0864 46.0164
v  -71.1721 7.3541 46.0164
v  -68.7179 74.8590 44.1758
v  -68.7179 74.8590 -44.1758
v  68.7179 74.8590 -44.1758
v  68.7179 74.8590 44.1758
v  -71.1721 7.3541 -46.0165
v  -71.1721 76.0864 -46.0164
v  -71.1721 76.0864 -1.8407
v  -71.1721 7.3541 -1.8407
# 716 vertices

vn 0.8622 0.0000 -0.5065
vn 0.7692 -0.0000 0.6391
vn -0.8622 -0.0000 0.5065
vn -0.7692 0.0000 -0.6391
vn -0.0288 -0.9995 -0.0158
vn -0.0288 0.9995 -0.0158
vn 0.0288 0.9995 0.0158
vn 0.0288 -0.9995 0.0158
vn -0.6312 0.0000 -0.7756
vn 0.6312 -0.0000 0.7756
vn 0.2515 0.0000 -0.9678
vn 0.9958 0.0000 -0.0920
vn -0.2515 -0.0000 0.9678
vn -0.9958 -0.0000 0.0920
vn -0.0315 -0.9995 0.0092
vn -0.0315 0.9995 0.0092
vn 0.0315 0.9995 -0.0092
vn 0.0315 -0.9995 -0.0092
vn -0.9948 0.0000 -0.1021
vn 0.9948 -0.0000 0.1021
vn -0.5065 0.0000 -0.8622
vn 0.6391 0.0000 -0.7692
vn 0.5065 -0.0000 0.8622
vn -0.6391 -0.0000 0.7692
vn -0.0158 -0.9995 0.0288
vn -0.0158 0.9995 0.0288
vn 0.0158 0.9995 -0.0288
vn 0.0158 -0.9995 -0.0288
vn -0.7756 -0.0000 0.6312
vn 0.7756 0.0000 -0.6312
vn -0.9678 -0.0000 -0.2515
vn -0.0920 0.0000 -0.9958
vn 0.9678 0.0000 0.2515
vn 0.0920 -0.0000 0.9958
vn 0.0092 -0.9995 0.0315
vn 0.0092 0.9995 0.0315
vn -0.0092 0.9995 -0.0315
vn -0.0092 -0.9995 -0.0315
vn -0.1021 -0.0000 0.9948
vn 0.1021 0.0000 -0.9948
vn -0.0000 0.0000 -1.0000
vn 0.5878 0.0000 -0.8090
vn 0.9511 0.0000 -0.3090
vn 0.9511 -0.0000 0.3090
vn 0.5878 -0.0000 0.8090
vn 0.0000 -0.0000 1.0000
vn -0.5878 -0.0000 0.8090
vn -0.9511 -0.0000 0.3090
vn 0.0000 1.0000 0.0000
vn -0.9511 0.0000 -0.3090
vn -0.5878 0.0000 -0.8090
vn 0.0000 -1.0000 -0.0000
vn 0.0000 0.0000 -1.0000
vn -0.9678 0.0000 -0.2515
vn 0.9678 -0.0000 0.2515
vn -0.0000 -0.0000 -1.0000
vn 0.5878 -0.0000 -0.8090
vn 0.9511 -0.0000 -0.3090
vn 0.9511 0.0000 0.3090
vn -0.9511 0.0000 0.3090
vn 0.0000 1.0000 -0.0000
vn -0.9511 -0.0000 -0.3090
vn -0.5878 -0.0000 -0.8090
vn -0.0000 -1.0000 0.0000
vn -0.0000 -1.0000 -0.0000
vn -0.0000 1.0000 -0.0000
vn 0.5878 0.0000 0.8090
vn 0.0000 0.0000 1.0000
vn -0.5878 0.0000 0.8090
vn 0.0000 -1.0000 0.0000
vn 1.0000 0.0000 0.0004
vn -0.9626 -0.0000 -0.2710
vn -1.0000 -0.0000 -0.0004
vn 0.9626 0.0000 0.2710
vn -1.0000 0.0000 -0.0000
vn 1.0000 0.0000 -0.0000
vn -0.0000 1.0000 0.0000
# 77 vertex normals

vt 0.4028 0.0899 0.0000
vt 0.4528 0.0899 0.0000
vt 0.4528 0.1399 0.0000
vt 0.4028 0.1399 0.0000
vt 0.4072 0.1686 0.0000
vt 0.4572 0.1686 0.0000
vt 0.4572 0.2186 0.0000
vt 0.4072 0.2186 0.0000
vt 0.4322 0.2186 0.0000
vt 0.4469 0.2139 0.0000
vt 0.4559 0.2014 0.0000
vt 0.4559 0.1859 0.0000
vt 0.4469 0.1734 0.0000
vt 0.4322 0.1686 0.0000
vt 0.4175 0.1734 0.0000
vt 0.4084 0.1859 0.0000
vt 0.4084 0.2014 0.0000
vt 0.4175 0.2139 0.0000
vt 0.2846 0.8273 0.0000
vt 0.3346 0.8273 0.0000
vt 0.3346 0.8773 0.0000
vt 0.2846 0.8773 0.0000
vt 0.4006 0.0133 0.0000
vt 0.4506 0.0133 0.0000
vt 0.4506 0.0633 0.0000
vt 0.4006 0.0633 0.0000
vt 0.3273 0.8700 0.0000
vt 0.3346 0.8523 0.0000
vt 0.3273 0.8346 0.0000
vt 0.3096 0.8273 0.0000
vt 0.2919 0.8346 0.0000
vt 0.2846 0.8523 0.0000
vt 0.3096 0.8773 0.0000
vt 0.2919 0.8700 0.0000
vt 0.3243 0.8725 0.0000
vt 0.3334 0.8600 0.0000
vt 0.3334 0.8446 0.0000
vt 0.3243 0.8321 0.0000
vt 0.2949 0.8321 0.0000
vt 0.2858 0.8446 0.0000
vt 0.2858 0.8600 0.0000
vt 0.2949 0.8725 0.0000
vt 0.3313 0.8398 0.0000
vt 0.2880 0.8398 0.0000
vt 0.2880 0.8648 0.0000
vt 0.3313 0.8648 0.0000
vt 0.4006 0.0920 0.0000
vt 0.4506 0.0920 0.0000
vt 0.4506 0.1420 0.0000
vt 0.4006 0.1420 0.0000
vt 0.4006 0.0964 0.0000
vt 0.4506 0.0964 0.0000
vt 0.4506 0.1464 0.0000
vt 0.4006 0.1464 0.0000
# 54 texture coords

g SPW_Urban_Factory_Prop_Air_Controller
usemtl SPW_Urban_Factory
s off
f 1/1/1 2/2/1 3/3/1 4/4/1 
f 5/1/2 6/2/2 7/3/2 8/4/2 
f 6/1/3 9/2/3 10/3/3 7/4/3 
f 11/1/4 1/2/4 4/3/4 12/4/4 
f 12/1/5 8/2/5 7/3/5 10/4/5 
f 11/1/6 5/2/6 2/3/6 1/4/6 
f 9/1/7 6/2/7 5/3/7 11/4/7 
f 4/1/8 3/2/8 8/3/8 12/4/8 
f 9/1/9 11/2/9 12/3/9 10/4/9 
f 2/1/10 5/2/10 8/3/10 3/4/10 
f 13/1/11 14/2/11 15/3/11 16/4/11 
f 17/1/12 18/2/12 19/3/12 20/4/12 
f 18/1/13 21/2/13 22/3/13 19/4/13 
f 23/1/14 13/2/14 16/3/14 24/4/14 
f 24/1/15 20/2/15 19/3/15 22/4/15 
f 23/1/16 17/2/16 14/3/16 13/4/16 
f 21/1/17 18/2/17 17/3/17 23/4/17 
f 16/1/18 15/2/18 20/3/18 24/4/18 
f 21/1/19 23/2/19 24/3/19 22/4/19 
f 14/1/20 17/2/20 20/3/20 15/4/20 
f 25/1/21 26/2/21 27/3/21 28/4/21 
f 29/1/22 30/2/22 31/3/22 32/4/22 
f 30/1/23 33/2/23 34/3/23 31/4/23 
f 35/1/24 25/2/24 28/3/24 36/4/24 
f 36/1/25 32/2/25 31/3/25 34/4/25 
f 35/1/26 29/2/26 26/3/26 25/4/26 
f 33/1/27 30/2/27 29/3/27 35/4/27 
f 28/1/28 27/2/28 32/3/28 36/4/28 
f 33/1/29 35/2/29 36/3/29 34/4/29 
f 26/1/30 29/2/30 32/3/30 27/4/30 
f 37/1/31 38/2/31 39/3/31 40/4/31 
f 41/1/32 42/2/32 43/3/32 44/4/32 
f 42/1/33 45/2/33 46/3/33 43/4/33 
f 47/1/34 37/2/34 40/3/34 48/4/34 
f 48/1/35 44/2/35 43/3/35 46/4/35 
f 47/1/36 41/2/36 38/3/36 37/4/36 
f 45/1/37 42/2/37 41/3/37 47/4/37 
f 40/1/38 39/2/38 44/3/38 48/4/38 
f 45/1/39 47/2/39 48/3/39 46/4/39 
f 38/1/40 41/2/40 44/3/40 39/4/40 
f 49/5/41 50/6/41 51/7/41 52/8/41 
f 52/5/42 51/6/42 53/7/42 54/8/42 
f 54/5/43 53/6/43 55/7/43 56/8/43 
f 56/5/44 55/6/44 57/7/44 58/8/44 
f 58/5/45 57/6/45 59/7/45 60/8/45 
f 60/5/46 59/6/46 61/7/46 62/8/46 
f 62/5/47 61/6/47 63/7/47 64/8/47 
f 64/5/48 63/6/48 65/7/48 66/8/48 
f 67/5/49 65/6/49 68/7/49 69/8/49 
f 66/5/50 65/6/50 67/7/50 70/8/50 
f 70/5/51 67/6/51 50/7/51 49/8/51 
f 49/9/52 52/10/52 54/11/52 56/12/52 
f 49/9/52 56/12/52 58/13/52 60/14/52 
f 49/9/52 60/14/52 62/15/52 64/16/52 
f 49/9/52 64/16/52 66/17/52 70/18/52 
f 71/5/42 72/6/42 73/7/42 74/8/42 
s 1
f 65/5/49 63/6/49 71/7/49 68/8/49 
f 63/5/49 61/6/49 72/7/49 71/8/49 
s off
f 61/5/49 59/6/49 75/7/49 72/8/49 
f 59/5/49 57/6/49 76/7/49 75/8/49 
f 57/5/49 55/6/49 77/7/49 76/8/49 
s 1
f 51/5/49 50/6/49 78/7/49 79/8/49 
f 55/5/49 53/6/49 80/7/49 77/8/49 
f 53/5/49 51/6/49 79/7/49 80/8/49 
s off
f 50/5/49 67/6/49 69/7/49 78/8/49 
f 81/9/49 82/10/49 83/11/49 84/12/49 
f 81/9/49 84/12/49 74/13/49 73/14/49 
f 81/9/49 73/14/49 85/15/49 86/16/49 
f 81/9/49 86/16/49 87/17/49 88/18/49 
f 76/5/50 77/6/50 87/7/50 86/8/50 
f 79/5/46 78/6/46 82/7/46 81/8/46 
f 68/5/43 71/6/43 74/7/43 84/8/43 
f 75/5/51 76/6/51 86/7/51 85/8/51 
f 80/5/47 79/6/47 81/7/47 88/8/47 
f 69/5/44 68/6/44 84/7/44 83/8/44 
f 72/5/53 75/6/53 85/7/53 73/8/53 
f 77/5/48 80/6/48 88/7/48 87/8/48 
f 78/5/45 69/6/45 83/7/45 82/8/45 
f 89/1/1 90/2/1 91/3/1 92/4/1 
f 93/1/2 94/2/2 95/3/2 96/4/2 
f 94/1/3 97/2/3 98/3/3 95/4/3 
f 99/1/4 89/2/4 92/3/4 100/4/4 
f 100/1/5 96/2/5 95/3/5 98/4/5 
f 99/1/6 93/2/6 90/3/6 89/4/6 
f 97/1/7 94/2/7 93/3/7 99/4/7 
f 92/1/8 91/2/8 96/3/8 100/4/8 
f 97/1/9 99/2/9 100/3/9 98/4/9 
f 90/1/10 93/2/10 96/3/10 91/4/10 
f 101/1/11 102/2/11 103/3/11 104/4/11 
f 105/1/12 106/2/12 107/3/12 108/4/12 
f 106/1/13 109/2/13 110/3/13 107/4/13 
f 111/1/14 101/2/14 104/3/14 112/4/14 
f 112/1/15 108/2/15 107/3/15 110/4/15 
f 111/1/16 105/2/16 102/3/16 101/4/16 
f 109/1/17 106/2/17 105/3/17 111/4/17 
f 104/1/18 103/2/18 108/3/18 112/4/18 
f 109/1/19 111/2/19 112/3/19 110/4/19 
f 102/1/20 105/2/20 108/3/20 103/4/20 
f 113/1/21 114/2/21 115/3/21 116/4/21 
f 117/1/22 118/2/22 119/3/22 120/4/22 
f 118/1/23 121/2/23 122/3/23 119/4/23 
f 123/1/24 113/2/24 116/3/24 124/4/24 
f 124/1/25 120/2/25 119/3/25 122/4/25 
f 123/1/26 117/2/26 114/3/26 113/4/26 
f 121/1/27 118/2/27 117/3/27 123/4/27 
f 116/1/28 115/2/28 120/3/28 124/4/28 
f 121/1/29 123/2/29 124/3/29 122/4/29 
f 114/1/30 117/2/30 120/3/30 115/4/30 
f 125/1/54 126/2/54 127/3/54 128/4/54 
f 129/1/32 130/2/32 131/3/32 132/4/32 
f 130/1/55 133/2/55 134/3/55 131/4/55 
f 135/1/34 125/2/34 128/3/34 136/4/34 
f 136/1/35 132/2/35 131/3/35 134/4/35 
f 135/1/36 129/2/36 126/3/36 125/4/36 
f 133/1/37 130/2/37 129/3/37 135/4/37 
f 128/1/38 127/2/38 132/3/38 136/4/38 
f 133/1/39 135/2/39 136/3/39 134/4/39 
f 126/1/40 129/2/40 132/3/40 127/4/40 
f 137/5/56 138/6/56 139/7/56 140/8/56 
f 140/5/57 139/6/57 141/7/57 142/8/57 
f 142/5/58 141/6/58 143/7/58 144/8/58 
f 144/5/59 143/6/59 145/7/59 146/8/59 
f 146/5/45 145/6/45 147/7/45 148/8/45 
f 148/5/46 147/6/46 149/7/46 150/8/46 
f 150/5/47 149/6/47 151/7/47 152/8/47 
f 152/5/60 151/6/60 153/7/60 154/8/60 
f 155/5/61 153/6/61 156/7/61 157/8/61 
f 154/5/62 153/6/62 155/7/62 158/8/62 
f 158/5/63 155/6/63 138/7/63 137/8/63 
f 137/9/64 140/10/64 142/11/64 144/12/64 
f 137/9/52 144/12/52 146/13/52 148/14/52 
f 137/9/65 148/14/65 150/15/65 152/16/65 
f 137/9/64 152/16/64 154/17/64 158/18/64 
f 159/5/42 160/6/42 161/7/42 162/8/42 
f 153/5/49 151/6/49 159/7/49 156/8/49 
f 151/5/49 149/6/49 160/7/49 159/8/49 
f 149/5/49 147/6/49 163/7/49 160/8/49 
f 147/5/49 145/6/49 164/7/49 163/8/49 
s 1
f 145/5/49 143/6/66 165/7/61 164/8/49 
s off
f 139/5/49 138/6/49 166/7/49 167/8/49 
s 1
f 143/5/66 141/6/66 168/7/66 165/8/61 
s off
f 141/5/49 139/6/49 167/7/49 168/8/49 
f 138/5/49 155/6/49 157/7/49 166/8/49 
f 169/9/49 170/10/49 171/11/49 172/12/49 
f 169/9/49 172/12/49 162/13/49 161/14/49 
f 169/9/49 161/14/49 173/15/49 174/16/49 
f 169/9/49 174/16/49 175/17/49 176/18/49 
f 164/5/50 165/6/50 175/7/50 174/8/50 
f 167/5/46 166/6/46 170/7/46 169/8/46 
f 156/5/43 159/6/43 162/7/43 172/8/43 
f 163/5/51 164/6/51 174/7/51 173/8/51 
f 168/5/47 167/6/47 169/7/47 176/8/47 
f 157/5/44 156/6/44 172/7/44 171/8/44 
f 160/5/53 163/6/53 173/7/53 161/8/53 
f 165/5/48 168/6/48 176/7/48 175/8/48 
f 166/5/67 157/6/67 171/7/67 170/8/67 
f 177/1/1 178/2/1 179/3/1 180/4/1 
f 181/1/2 182/2/2 183/3/2 184/4/2 
f 182/1/3 185/2/3 186/3/3 183/4/3 
f 187/1/4 177/2/4 180/3/4 188/4/4 
f 188/1/5 184/2/5 183/3/5 186/4/5 
f 187/1/6 181/2/6 178/3/6 177/4/6 
f 185/1/7 182/2/7 181/3/7 187/4/7 
f 180/1/8 179/2/8 184/3/8 188/4/8 
f 185/1/9 187/2/9 188/3/9 186/4/9 
f 178/1/10 181/2/10 184/3/10 179/4/10 
f 189/1/11 190/2/11 191/3/11 192/4/11 
f 193/1/12 194/2/12 195/3/12 196/4/12 
f 194/1/13 197/2/13 198/3/13 195/4/13 
f 199/1/14 189/2/14 192/3/14 200/4/14 
f 200/1/15 196/2/15 195/3/15 198/4/15 
f 199/1/16 193/2/16 190/3/16 189/4/16 
f 197/1/17 194/2/17 193/3/17 199/4/17 
f 192/1/18 191/2/18 196/3/18 200/4/18 
f 197/1/19 199/2/19 200/3/19 198/4/19 
f 190/1/20 193/2/20 196/3/20 191/4/20 
f 201/1/21 202/2/21 203/3/21 204/4/21 
f 205/1/22 206/2/22 207/3/22 208/4/22 
f 206/1/23 209/2/23 210/3/23 207/4/23 
f 211/1/24 201/2/24 204/3/24 212/4/24 
f 212/1/25 208/2/25 207/3/25 210/4/25 
f 211/1/26 205/2/26 202/3/26 201/4/26 
f 209/1/27 206/2/27 205/3/27 211/4/27 
f 204/1/28 203/2/28 208/3/28 212/4/28 
f 209/1/29 211/2/29 212/3/29 210/4/29 
f 202/1/30 205/2/30 208/3/30 203/4/30 
f 213/1/54 214/2/54 215/3/54 216/4/54 
f 217/1/32 218/2/32 219/3/32 220/4/32 
f 218/1/55 221/2/55 222/3/55 219/4/55 
f 223/1/34 213/2/34 216/3/34 224/4/34 
f 224/1/35 220/2/35 219/3/35 222/4/35 
f 223/1/36 217/2/36 214/3/36 213/4/36 
f 221/1/37 218/2/37 217/3/37 223/4/37 
f 216/1/38 215/2/38 220/3/38 224/4/38 
f 221/1/39 223/2/39 224/3/39 222/4/39 
f 214/1/40 217/2/40 220/3/40 215/4/40 
f 225/5/41 226/6/41 227/7/41 228/8/41 
f 228/5/42 227/6/42 229/7/42 230/8/42 
f 230/5/58 229/6/58 231/7/58 232/8/58 
f 232/5/59 231/6/59 233/7/59 234/8/59 
f 234/5/67 233/6/67 235/7/67 236/8/67 
f 236/5/68 235/6/68 237/7/68 238/8/68 
f 238/5/69 237/6/69 239/7/69 240/8/69 
f 240/5/60 239/6/60 241/7/60 242/8/60 
f 243/5/49 241/6/49 244/7/49 245/8/49 
f 242/5/62 241/6/62 243/7/62 246/8/62 
f 246/5/51 243/6/51 226/7/51 225/8/51 
f 225/9/52 228/10/52 230/11/52 232/12/52 
f 225/9/64 232/12/64 234/13/64 236/14/64 
f 225/9/65 236/14/65 238/15/65 240/16/65 
f 225/9/70 240/16/70 242/17/70 246/18/70 
f 247/5/42 248/6/42 249/7/42 250/8/42 
f 241/5/49 239/6/49 247/7/49 244/8/49 
f 239/5/49 237/6/49 248/7/49 247/8/49 
f 237/5/49 235/6/49 251/7/49 248/8/49 
f 235/5/49 233/6/49 252/7/49 251/8/49 
f 233/5/49 231/6/49 253/7/49 252/8/49 
f 227/5/49 226/6/49 254/7/49 255/8/49 
f 231/5/49 229/6/49 256/7/49 253/8/49 
f 229/5/49 227/6/49 255/7/49 256/8/49 
f 226/5/49 243/6/49 245/7/49 254/8/49 
f 257/9/49 258/10/49 259/11/49 260/12/49 
f 257/9/49 260/12/49 250/13/49 249/14/49 
f 257/9/49 249/14/49 261/15/49 262/16/49 
f 257/9/49 262/16/49 263/17/49 264/18/49 
f 252/5/50 253/6/50 263/7/50 262/8/50 
f 255/5/46 254/6/46 258/7/46 257/8/46 
f 244/5/43 247/6/43 250/7/43 260/8/43 
f 251/5/51 252/6/51 262/7/51 261/8/51 
f 256/5/47 255/6/47 257/7/47 264/8/47 
f 245/5/44 244/6/44 260/7/44 259/8/44 
f 248/5/53 251/6/53 261/7/53 249/8/53 
f 253/5/48 256/6/48 264/7/48 263/8/48 
f 254/5/67 245/6/67 259/7/67 258/8/67 
f 265/1/1 266/2/1 267/3/1 268/4/1 
f 269/1/2 270/2/2 271/3/2 272/4/2 
f 270/1/3 273/2/3 274/3/3 271/4/3 
f 275/1/4 265/2/4 268/3/4 276/4/4 
f 276/1/5 272/2/5 271/3/5 274/4/5 
f 275/1/6 269/2/6 266/3/6 265/4/6 
f 273/1/7 270/2/7 269/3/7 275/4/7 
f 268/1/8 267/2/8 272/3/8 276/4/8 
f 273/1/9 275/2/9 276/3/9 274/4/9 
f 266/1/10 269/2/10 272/3/10 267/4/10 
f 277/1/11 278/2/11 279/3/11 280/4/11 
f 281/1/12 282/2/12 283/3/12 284/4/12 
f 282/1/13 285/2/13 286/3/13 283/4/13 
f 287/1/14 277/2/14 280/3/14 288/4/14 
f 288/1/15 284/2/15 283/3/15 286/4/15 
f 287/1/16 281/2/16 278/3/16 277/4/16 
f 285/1/17 282/2/17 281/3/17 287/4/17 
f 280/1/18 279/2/18 284/3/18 288/4/18 
f 285/1/19 287/2/19 288/3/19 286/4/19 
f 278/1/20 281/2/20 284/3/20 279/4/20 
f 289/1/21 290/2/21 291/3/21 292/4/21 
f 293/1/22 294/2/22 295/3/22 296/4/22 
f 294/1/23 297/2/23 298/3/23 295/4/23 
f 299/1/24 289/2/24 292/3/24 300/4/24 
f 300/1/25 296/2/25 295/3/25 298/4/25 
f 299/1/26 293/2/26 290/3/26 289/4/26 
f 297/1/27 294/2/27 293/3/27 299/4/27 
f 292/1/28 291/2/28 296/3/28 300/4/28 
f 297/1/29 299/2/29 300/3/29 298/4/29 
f 290/1/30 293/2/30 296/3/30 291/4/30 
f 301/1/54 302/2/54 303/3/54 304/4/54 
f 305/1/32 306/2/32 307/3/32 308/4/32 
f 306/1/55 309/2/55 310/3/55 307/4/55 
f 311/1/34 301/2/34 304/3/34 312/4/34 
f 312/1/35 308/2/35 307/3/35 310/4/35 
f 311/1/36 305/2/36 302/3/36 301/4/36 
f 309/1/37 306/2/37 305/3/37 311/4/37 
f 304/1/38 303/2/38 308/3/38 312/4/38 
f 309/1/39 311/2/39 312/3/39 310/4/39 
f 302/1/40 305/2/40 308/3/40 303/4/40 
f 313/5/41 314/6/41 315/7/41 316/8/41 
f 316/5/42 315/6/42 317/7/42 318/8/42 
f 318/5/58 317/6/58 319/7/58 320/8/58 
f 320/5/59 319/6/59 321/7/59 322/8/59 
f 322/5/67 321/6/67 323/7/67 324/8/67 
f 324/5/68 323/6/68 325/7/68 326/8/68 
f 326/5/69 325/6/69 327/7/69 328/8/69 
f 328/5/60 327/6/60 329/7/60 330/8/60 
f 331/5/49 329/6/49 332/7/49 333/8/49 
f 330/5/62 329/6/62 331/7/62 334/8/62 
f 334/5/51 331/6/51 314/7/51 313/8/51 
f 313/9/52 316/10/52 318/11/52 320/12/52 
f 313/9/64 320/12/64 322/13/64 324/14/64 
f 313/9/65 324/14/65 326/15/65 328/16/65 
f 313/9/70 328/16/70 330/17/70 334/18/70 
f 335/5/42 336/6/42 337/7/42 338/8/42 
f 329/5/49 327/6/49 335/7/49 332/8/49 
f 327/5/49 325/6/49 336/7/49 335/8/49 
f 325/5/49 323/6/49 339/7/49 336/8/49 
f 323/5/49 321/6/49 340/7/49 339/8/49 
f 321/5/49 319/6/49 341/7/49 340/8/49 
f 315/5/49 314/6/49 342/7/49 343/8/49 
s 1
f 319/5/49 317/6/49 344/7/49 341/8/49 
f 317/5/49 315/6/49 343/7/49 344/8/49 
s off
f 314/5/49 331/6/49 333/7/49 342/8/49 
f 345/9/49 346/10/49 347/11/49 348/12/49 
f 345/9/49 348/12/49 338/13/49 337/14/49 
f 345/9/49 337/14/49 349/15/49 350/16/49 
f 345/9/49 350/16/49 351/17/49 352/18/49 
f 340/5/50 341/6/50 351/7/50 350/8/50 
f 343/5/46 342/6/46 346/7/46 345/8/46 
f 332/5/43 335/6/43 338/7/43 348/8/43 
f 339/5/51 340/6/51 350/7/51 349/8/51 
f 344/5/47 343/6/47 345/7/47 352/8/47 
f 333/5/44 332/6/44 348/7/44 347/8/44 
f 336/5/53 339/6/53 349/7/53 337/8/53 
f 341/5/48 344/6/48 352/7/48 351/8/48 
f 342/5/45 333/6/45 347/7/45 346/8/45 
f 353/1/1 354/2/1 355/3/1 356/4/1 
f 357/1/2 358/2/2 359/3/2 360/4/2 
f 358/1/3 361/2/3 362/3/3 359/4/3 
f 363/1/4 353/2/4 356/3/4 364/4/4 
f 364/1/5 360/2/5 359/3/5 362/4/5 
f 363/1/6 357/2/6 354/3/6 353/4/6 
f 361/1/7 358/2/7 357/3/7 363/4/7 
f 356/1/8 355/2/8 360/3/8 364/4/8 
f 361/1/9 363/2/9 364/3/9 362/4/9 
f 354/1/10 357/2/10 360/3/10 355/4/10 
f 365/1/11 366/2/11 367/3/11 368/4/11 
f 369/1/12 370/2/12 371/3/12 372/4/12 
f 370/1/13 373/2/13 374/3/13 371/4/13 
f 375/1/14 365/2/14 368/3/14 376/4/14 
f 376/1/15 372/2/15 371/3/15 374/4/15 
f 375/1/16 369/2/16 366/3/16 365/4/16 
f 373/1/17 370/2/17 369/3/17 375/4/17 
f 368/1/18 367/2/18 372/3/18 376/4/18 
f 373/1/19 375/2/19 376/3/19 374/4/19 
f 366/1/20 369/2/20 372/3/20 367/4/20 
f 377/1/21 378/2/21 379/3/21 380/4/21 
f 381/1/22 382/2/22 383/3/22 384/4/22 
f 382/1/23 385/2/23 386/3/23 383/4/23 
f 387/1/24 377/2/24 380/3/24 388/4/24 
f 388/1/25 384/2/25 383/3/25 386/4/25 
f 387/1/26 381/2/26 378/3/26 377/4/26 
f 385/1/27 382/2/27 381/3/27 387/4/27 
f 380/1/28 379/2/28 384/3/28 388/4/28 
f 385/1/29 387/2/29 388/3/29 386/4/29 
f 378/1/30 381/2/30 384/3/30 379/4/30 
f 389/1/54 390/2/54 391/3/54 392/4/54 
f 393/1/32 394/2/32 395/3/32 396/4/32 
f 394/1/55 397/2/55 398/3/55 395/4/55 
f 399/1/34 389/2/34 392/3/34 400/4/34 
f 400/1/35 396/2/35 395/3/35 398/4/35 
f 399/1/36 393/2/36 390/3/36 389/4/36 
f 397/1/37 394/2/37 393/3/37 399/4/37 
f 392/1/38 391/2/38 396/3/38 400/4/38 
f 397/1/39 399/2/39 400/3/39 398/4/39 
f 390/1/40 393/2/40 396/3/40 391/4/40 
f 401/5/56 402/6/56 403/7/56 404/8/56 
f 404/5/57 403/6/57 405/7/57 406/8/57 
f 406/5/58 405/6/58 407/7/58 408/8/58 
f 408/5/59 407/6/59 409/7/59 410/8/59 
f 410/5/45 409/6/45 411/7/45 412/8/45 
f 412/5/46 411/6/46 413/7/46 414/8/46 
f 414/5/47 413/6/47 415/7/47 416/8/47 
f 416/5/60 415/6/60 417/7/60 418/8/60 
f 419/5/61 417/6/61 420/7/61 421/8/61 
f 418/5/62 417/6/62 419/7/62 422/8/62 
f 422/5/63 419/6/63 402/7/63 401/8/63 
f 401/9/64 404/10/64 406/11/64 408/12/64 
f 401/9/52 408/12/52 410/13/52 412/14/52 
f 401/9/65 412/14/65 414/15/65 416/16/65 
f 401/9/64 416/16/64 418/17/64 422/18/64 
f 423/5/42 424/6/42 425/7/42 426/8/42 
f 417/5/49 415/6/49 423/7/49 420/8/49 
f 415/5/49 413/6/49 424/7/49 423/8/49 
f 413/5/49 411/6/49 427/7/49 424/8/49 
f 411/5/49 409/6/49 428/7/49 427/8/49 
f 409/5/49 407/6/49 429/7/49 428/8/49 
f 403/5/49 402/6/49 430/7/49 431/8/49 
f 407/5/66 405/6/66 432/7/66 429/8/66 
f 405/5/49 403/6/49 431/7/49 432/8/49 
f 402/5/49 419/6/49 421/7/49 430/8/49 
f 433/9/49 434/10/49 435/11/49 436/12/49 
f 433/9/49 436/12/49 426/13/49 425/14/49 
f 433/9/49 425/14/49 437/15/49 438/16/49 
f 433/9/49 438/16/49 439/17/49 440/18/49 
f 428/5/50 429/6/50 439/7/50 438/8/50 
f 431/5/46 430/6/46 434/7/46 433/8/46 
f 420/5/43 423/6/43 426/7/43 436/8/43 
f 427/5/51 428/6/51 438/7/51 437/8/51 
f 432/5/47 431/6/47 433/7/47 440/8/47 
f 421/5/44 420/6/44 436/7/44 435/8/44 
f 424/5/53 427/6/53 437/7/53 425/8/53 
f 429/5/48 432/6/48 440/7/48 439/8/48 
f 430/5/45 421/6/45 435/7/45 434/8/45 
f 441/19/66 442/20/66 443/21/66 444/22/66 
f 442/23/46 445/24/46 446/25/46 443/26/46 
f 445/19/52 447/20/52 448/21/52 446/22/52 
f 447/23/53 441/24/53 444/25/53 448/26/53 
f 444/23/71 443/24/71 446/25/71 448/26/71 
f 447/23/72 445/24/72 442/25/72 441/26/72 
f 449/19/49 450/20/49 451/21/49 452/22/49 
f 450/23/46 453/24/46 454/25/46 451/26/46 
f 453/19/52 455/20/52 456/21/52 454/22/52 
f 455/23/53 449/24/53 452/25/53 456/26/53 
f 452/23/71 451/24/71 454/25/71 456/26/71 
f 455/23/72 453/24/72 450/25/72 449/26/72 
f 457/19/49 458/20/49 459/21/49 460/22/49 
f 458/23/46 461/24/46 462/25/46 459/26/46 
f 461/19/52 463/20/52 464/21/52 462/22/52 
f 463/23/53 457/24/53 460/25/53 464/26/53 
f 460/23/71 459/24/71 462/25/71 464/26/71 
f 463/23/72 461/24/72 458/25/72 457/26/72 
f 465/19/61 466/20/61 467/21/61 468/22/61 
f 466/23/46 469/24/46 470/25/46 467/26/46 
f 469/19/52 471/20/52 472/21/52 470/22/52 
f 471/23/53 465/24/53 468/25/53 472/26/53 
f 468/23/71 467/24/71 470/25/71 472/26/71 
f 471/23/72 469/24/72 466/25/72 465/26/72 
f 473/19/61 474/20/61 475/21/61 476/22/61 
f 474/23/46 477/24/46 478/25/46 475/26/46 
f 477/19/52 479/20/52 480/21/52 478/22/52 
f 479/23/53 473/24/53 476/25/53 480/26/53 
f 476/23/71 475/24/71 478/25/71 480/26/71 
f 479/23/72 477/24/72 474/25/72 473/26/72 
f 481/19/61 482/20/61 483/21/61 484/22/61 
f 482/23/46 485/24/46 486/25/46 483/26/46 
f 485/19/52 487/20/52 488/21/52 486/22/52 
f 487/23/53 481/24/53 484/25/53 488/26/53 
f 484/23/71 483/24/71 486/25/71 488/26/71 
f 487/23/72 485/24/72 482/25/72 481/26/72 
f 489/19/49 490/20/49 491/21/49 492/22/49 
f 490/23/46 493/24/46 494/25/46 491/26/46 
f 493/19/52 495/20/52 496/21/52 494/22/52 
f 495/23/53 489/24/53 492/25/53 496/26/53 
f 492/23/71 491/24/71 494/25/71 496/26/71 
f 495/23/72 493/24/72 490/25/72 489/26/72 
f 497/19/61 498/20/61 499/21/61 500/22/61 
f 498/23/46 501/24/46 502/25/46 499/26/46 
f 501/19/52 503/20/52 504/21/52 502/22/52 
f 503/23/53 497/24/53 500/25/53 504/26/53 
f 500/23/71 499/24/71 502/25/71 504/26/71 
f 503/23/72 501/24/72 498/25/72 497/26/72 
f 505/19/49 506/20/49 507/21/49 508/22/49 
f 506/23/46 509/24/46 510/25/46 507/26/46 
f 509/19/52 511/20/52 512/21/52 510/22/52 
f 511/23/53 505/24/53 508/25/53 512/26/53 
f 508/23/71 507/24/71 510/25/71 512/26/71 
f 511/23/72 509/24/72 506/25/72 505/26/72 
f 513/19/49 514/20/49 515/21/49 516/22/49 
f 514/23/46 517/24/46 518/25/46 515/26/46 
f 517/19/52 519/20/52 520/21/52 518/22/52 
f 519/23/53 513/24/53 516/25/53 520/26/53 
f 516/23/71 515/24/71 518/25/71 520/26/71 
f 519/23/72 517/24/72 514/25/72 513/26/72 
f 521/19/61 522/20/61 523/21/61 524/22/61 
f 522/23/46 525/24/46 526/25/46 523/26/46 
f 525/19/52 527/20/52 528/21/52 526/22/52 
f 527/23/53 521/24/53 524/25/53 528/26/53 
f 524/23/71 523/24/71 526/25/71 528/26/71 
f 527/23/72 525/24/72 522/25/72 521/26/72 
f 529/19/49 530/20/49 531/21/49 532/22/49 
f 530/23/46 533/24/46 534/25/46 531/26/46 
f 533/19/52 535/20/52 536/21/52 534/22/52 
f 535/23/53 529/24/53 532/25/53 536/26/53 
f 532/23/71 531/24/71 534/25/71 536/26/71 
f 535/23/72 533/24/72 530/25/72 529/26/72 
f 537/19/61 538/20/61 539/21/61 540/22/61 
f 538/23/46 541/24/46 542/25/46 539/26/46 
f 541/19/52 543/20/52 544/21/52 542/22/52 
f 543/23/53 537/24/53 540/25/53 544/26/53 
f 540/23/71 539/24/71 542/25/71 544/26/71 
f 543/23/72 541/24/72 538/25/72 537/26/72 
f 545/19/61 546/20/61 547/21/61 548/22/61 
f 546/23/46 549/24/46 550/25/46 547/26/46 
f 549/19/52 551/20/52 552/21/52 550/22/52 
f 551/23/53 545/24/53 548/25/53 552/26/53 
f 548/23/71 547/24/71 550/25/71 552/26/71 
f 551/23/72 549/24/72 546/25/72 545/26/72 
f 553/19/49 554/20/49 555/21/49 556/22/49 
f 554/23/53 557/24/53 558/25/53 555/26/53 
f 557/19/52 559/20/52 560/21/52 558/22/52 
f 559/23/46 553/24/46 556/25/46 560/26/46 
f 556/23/73 555/24/73 558/25/73 560/26/73 
f 559/23/74 557/24/74 554/25/74 553/26/74 
f 561/19/49 562/20/49 563/21/49 564/22/49 
f 562/23/53 565/24/53 566/25/53 563/26/53 
f 565/19/70 567/20/70 568/21/70 566/22/70 
f 567/23/46 561/24/46 564/25/46 568/26/46 
f 564/23/73 563/24/73 566/25/73 568/26/73 
f 567/23/74 565/24/74 562/25/74 561/26/74 
f 569/19/49 570/20/49 571/21/49 572/22/49 
f 570/23/53 573/24/53 574/25/53 571/26/53 
f 573/19/70 575/20/70 576/21/70 574/22/70 
f 575/23/46 569/24/46 572/25/46 576/26/46 
f 572/23/73 571/24/73 574/25/73 576/26/73 
f 575/23/74 573/24/74 570/25/74 569/26/74 
f 577/19/49 578/20/49 579/21/49 580/22/49 
f 578/23/53 581/24/53 582/25/53 579/26/53 
f 581/19/52 583/20/52 584/21/52 582/22/52 
f 583/23/46 577/24/46 580/25/46 584/26/46 
f 580/23/73 579/24/73 582/25/73 584/26/73 
f 583/23/74 581/24/74 578/25/74 577/26/74 
f 585/19/49 586/20/49 587/21/49 588/22/49 
f 586/23/41 589/24/41 590/25/41 587/26/41 
f 589/19/52 591/20/52 592/21/52 590/22/52 
f 591/23/46 585/24/46 588/25/46 592/26/46 
f 588/23/73 587/24/73 590/25/73 592/26/73 
f 591/23/74 589/24/74 586/25/74 585/26/74 
f 593/19/49 594/20/49 595/21/49 596/22/49 
f 594/23/53 597/24/53 598/25/53 595/26/53 
f 597/19/52 599/20/52 600/21/52 598/22/52 
f 599/23/46 593/24/46 596/25/46 600/26/46 
f 596/23/73 595/24/73 598/25/73 600/26/73 
f 599/23/74 597/24/74 594/25/74 593/26/74 
f 601/19/49 602/20/49 603/21/49 604/22/49 
f 602/23/53 605/24/53 606/25/53 603/26/53 
f 605/19/70 607/20/70 608/21/70 606/22/70 
f 607/23/46 601/24/46 604/25/46 608/26/46 
f 604/23/73 603/24/73 606/25/73 608/26/73 
f 607/23/74 605/24/74 602/25/74 601/26/74 
f 609/19/49 610/20/49 611/21/49 612/22/49 
f 610/23/53 613/24/53 614/25/53 611/26/53 
f 613/19/52 615/20/52 616/21/52 614/22/52 
f 615/23/46 609/24/46 612/25/46 616/26/46 
f 612/23/73 611/24/73 614/25/73 616/26/73 
f 615/23/74 613/24/74 610/25/74 609/26/74 
f 617/19/49 618/20/49 619/21/49 620/22/49 
f 618/23/53 621/24/53 622/25/53 619/26/53 
f 621/19/70 623/20/70 624/21/70 622/22/70 
f 623/23/46 617/24/46 620/25/46 624/26/46 
f 620/23/73 619/24/73 622/25/73 624/26/73 
f 623/23/74 621/24/74 618/25/74 617/26/74 
f 625/19/49 626/20/49 627/21/49 628/22/49 
f 626/23/41 629/24/41 630/25/41 627/26/41 
f 629/19/70 631/20/70 632/21/70 630/22/70 
f 631/23/46 625/24/46 628/25/46 632/26/46 
f 628/23/73 627/24/73 630/25/73 632/26/73 
f 631/23/74 629/24/74 626/25/74 625/26/74 
f 633/19/49 634/20/49 635/21/49 636/22/49 
f 634/23/53 637/24/53 638/25/53 635/26/53 
f 637/19/52 639/20/52 640/21/52 638/22/52 
f 639/23/46 633/24/46 636/25/46 640/26/46 
f 636/23/73 635/24/73 638/25/73 640/26/73 
f 639/23/74 637/24/74 634/25/74 633/26/74 
f 641/19/49 642/20/49 643/21/49 644/22/49 
f 642/23/53 645/24/53 646/25/53 643/26/53 
f 645/19/52 647/20/52 648/21/52 646/22/52 
f 647/23/46 641/24/46 644/25/46 648/26/46 
f 644/23/73 643/24/73 646/25/73 648/26/73 
f 647/23/74 645/24/74 642/25/74 641/26/74 
f 649/19/49 650/20/49 651/21/49 652/22/49 
f 650/23/53 653/24/53 654/25/53 651/26/53 
f 653/19/52 655/20/52 656/21/52 654/22/52 
f 655/23/46 649/24/46 652/25/46 656/26/46 
f 652/23/73 651/24/73 654/25/73 656/26/73 
f 655/23/74 653/24/74 650/25/74 649/26/74 
f 657/19/49 658/20/49 659/21/49 660/22/49 
f 658/23/53 661/24/53 662/25/53 659/26/53 
f 661/19/52 663/20/52 664/21/52 662/22/52 
f 663/23/46 657/24/46 660/25/46 664/26/46 
f 660/23/73 659/24/73 662/25/73 664/26/73 
f 663/23/74 661/24/74 658/25/74 657/26/74 
s 1
f 665/19/75 666/20/75 667/21/75 668/22/75 
s 2
f 669/19/46 665/20/46 668/21/46 670/22/46 
s 1
f 666/27/75 665/28/75 671/29/75 672/30/75 
f 666/27/75 672/30/75 673/31/75 674/32/75 
f 675/33/75 666/27/75 674/32/75 676/34/75 
f 677/33/75 675/35/75 676/36/75 678/37/75 
f 678/37/75 673/38/75 672/30/75 679/39/75 
f 677/33/75 678/37/75 679/39/75 680/40/75 
f 677/33/75 680/40/75 671/41/75 665/42/75 
s 2
f 666/19/53 681/20/53 682/21/53 667/22/53 
s off
f 668/19/52 667/20/52 682/21/52 670/22/52 
f 681/19/76 669/20/76 670/21/76 682/22/76 
s 2
f 683/19/46 677/20/46 665/21/46 669/22/46 
s 4
f 684/43/49 685/30/77 686/44/77 675/45/49 
f 687/46/77 684/43/49 675/45/49 677/33/77 
f 683/46/49 686/43/77 685/30/77 688/44/49 
f 677/33/77 683/46/49 688/44/49 687/45/77 
s 2
f 675/19/53 686/20/53 681/21/53 666/22/53 
s off
f 683/33/76 669/35/76 689/36/76 690/37/76 
f 683/33/76 690/37/76 691/38/76 692/40/76 
f 691/38/76 693/30/76 694/39/76 692/40/76 
f 683/33/76 692/40/76 695/41/76 686/42/76 
f 693/30/76 689/31/76 669/32/76 694/29/76 
f 696/28/76 694/29/76 669/32/76 681/34/76 
f 695/27/76 696/28/76 681/34/76 686/33/76 
f 697/47/76 698/48/76 699/49/76 700/50/76 
f 692/19/53 694/20/53 698/21/53 697/22/53 
f 695/19/52 692/20/52 697/21/52 700/22/52 
f 696/19/46 695/20/46 700/21/46 699/22/46 
f 694/19/49 696/20/49 699/21/49 698/22/49 
f 701/47/76 702/48/76 703/49/76 704/50/76 
f 690/19/53 689/20/53 702/21/53 701/22/53 
f 691/19/52 690/20/52 701/21/52 704/22/52 
f 693/19/46 691/20/46 704/21/46 703/22/46 
f 689/19/49 693/20/49 703/21/49 702/22/49 
f 679/19/46 672/20/46 705/21/46 706/22/46 
f 680/19/52 679/20/52 706/21/52 707/22/52 
f 706/51/75 705/52/75 708/53/75 707/54/75 
f 672/19/49 671/20/49 708/21/49 705/22/49 
f 671/19/53 680/20/53 707/21/53 708/22/53 
f 684/19/76 687/20/76 709/21/76 710/22/76 
f 685/19/46 684/20/46 710/21/46 711/22/46 
f 709/19/49 712/20/49 711/21/49 710/22/49 
f 687/19/53 688/20/53 712/21/53 709/22/53 
f 688/19/75 685/20/75 711/21/75 712/22/75 
f 676/19/46 674/20/46 713/21/46 714/22/46 
f 678/19/52 676/20/52 714/21/52 715/22/52 
f 714/51/75 713/52/75 716/53/75 715/54/75 
f 674/19/49 673/20/49 716/21/49 713/22/49 
f 673/19/53 678/20/53 715/21/53 716/22/53 
# 608 polygons

