{
  "accessors": [
    {
      "name": "SPW_Urban_Bldg_01_1_0_positions",
      "componentType": 5126,
      "count": 1015,
      "min": [
        -413.38580322265625,
        0,
        -407.5960998535156
      ],
      "max": [
        413.3858947753906,
        723.42529296875,
        281.3804016113281
      ],
      "type": "VEC3",
      "bufferView": 0,
      "byteOffset": 0
    },
    {
      "name": "SPW_Urban_Bldg_01_1_0_normals",
      "componentType": 5126,
      "count": 1015,
      "min": [
        -1,
        -1,
        -1
      ],
      "max": [
        1,
        1,
        1
      ],
      "type": "VEC3",
      "bufferView": 1,
      "byteOffset": 0
    },
    {
      "name": "SPW_Urban_Bldg_01_1_0_texcoords",
      "componentType": 5126,
      "count": 1015,
      "min": [
        0,
        0.011300000362098217
      ],
      "max": [
        0.9883999824523926,
        1
      ],
      "type": "VEC2",
      "bufferView": 2,
      "byteOffset": 0
    },
    {
      "name": "SPW_Urban_Bldg_01_1_0_indices",
      "componentType": 5123,
      "count": 1728,
      "min": [
        0
      ],
      "max": [
        1014
      ],
      "type": "SCALAR",
      "bufferView": 3,
      "byteOffset": 0
    }
  ],
  "asset": {
    "generator": "obj2gltf",
    "version": "2.0"
  },
  "buffers": [
    {
      "name": "SPW_Urban_Bldg_01",
      "byteLength": 38104,
      "uri": "data:application/octet-stream;base64,"
    }
  ],
  "bufferViews": [
    {
      "name": "bufferView_0",
      "buffer": 0,
      "byteLength": 12180,
      "byteOffset": 0,
      "byteStride": 12,
      "target": 34962
    },
    {
      "name": "bufferView_1",
      "buffer": 0,
      "byteLength": 12180,
      "byteOffset": 12180,
      "byteStride": 12,
      "target": 34962
    },
    {
      "name": "bufferView_2",
      "buffer": 0,
      "byteLength": 8120,
      "byteOffset": 24360,
      "byteStride": 8,
      "target": 34962
    },
    {
      "name": "bufferView_3",
      "buffer": 0,
      "byteLength": 3456,
      "byteOffset": 32480,
      "target": 34963
    },
    {
      "buffer": 0,
      "byteOffset": 35936,
      "byteLength": 2166
    }
  ],
  "images": [
    {
      "name": "SPW_Urban_Bldg_01_Color01",
      "mimeType": "image/png",
      "bufferView": 4
    }
  ],
  "materials": [
    {
      "name": "SPW_Urban_Bldg_01",
      "pbrMetallicRoughness": {
        "baseColorTexture": {
          "index": 0
        },
        "baseColorFactor": [
          1,
          1,
          1,
          1
        ],
        "metallicFactor": 0,
        "roughnessFactor": 0.9567807
      },
      "emissiveFactor": [
        0,
        0,
        0
      ],
      "alphaMode": "OPAQUE",
      "doubleSided": false
    }
  ],
  "meshes": [
    {
      "name": "SPW_Urban_Bldg_01_1",
      "primitives": [
        {
          "attributes": {
            "POSITION": 0,
            "NORMAL": 1,
            "TEXCOORD_0": 2
          },
          "indices": 3,
          "material": 0,
          "mode": 4
        }
      ]
    }
  ],
  "nodes": [
    {
      "name": "SPW_Urban_Bldg_01",
      "mesh": 0
    }
  ],
  "samplers": [
    {
      "magFilter": 9729,
      "minFilter": 9986,
      "wrapS": 10497,
      "wrapT": 10497
    }
  ],
  "scene": 0,
  "scenes": [
    {
      "nodes": [
        0
      ]
    }
  ],
  "textures": [
    {
      "name": "SPW_Urban_Bldg_01_Color01",
      "sampler": 0,
      "source": 0
    }
  ]
}
