{
  "accessors": [
    {
      "name": "SPW_Urban_Bldg_06_1_0_positions",
      "componentType": 5126,
      "count": 2255,
      "min": [
        -275.5906066894531,
        0,
        -166.66009521484375
      ],
      "max": [
        275.5906066894531,
        1411.5836181640625,
        166.65989685058594
      ],
      "type": "VEC3",
      "bufferView": 0,
      "byteOffset": 0
    },
    {
      "name": "SPW_Urban_Bldg_06_1_0_normals",
      "componentType": 5126,
      "count": 2255,
      "min": [
        -1,
        -1,
        -0.9987791180610657
      ],
      "max": [
        1,
        1,
        0.9987791180610657
      ],
      "type": "VEC3",
      "bufferView": 1,
      "byteOffset": 0
    },
    {
      "name": "SPW_Urban_Bldg_06_1_0_texcoords",
      "componentType": 5126,
      "count": 2255,
      "min": [
        0.28450000286102295,
        0.02930000051856041
      ],
      "max": [
        0.34470000863075256,
        0.1712000072002411
      ],
      "type": "VEC2",
      "bufferView": 2,
      "byteOffset": 0
    },
    {
      "name": "SPW_Urban_Bldg_06_1_0_indices",
      "componentType": 5123,
      "count": 4104,
      "min": [
        0
      ],
      "max": [
        2254
      ],
      "type": "SCALAR",
      "bufferView": 3,
      "byteOffset": 0
    }
  ],
  "asset": {
    "generator": "obj2gltf",
    "version": "2.0"
  },
  "buffers": [
    {
      "name": "SPW_Urban_Bldg_06",
      "byteLength": 82384,
      "uri": "data:application/octet-stream;base64,"
    }
  ],
  "bufferViews": [
    {
      "name": "bufferView_0",
      "buffer": 0,
      "byteLength": 27060,
      "byteOffset": 0,
      "byteStride": 12,
      "target": 34962
    },
    {
      "name": "bufferView_1",
      "buffer": 0,
      "byteLength": 27060,
      "byteOffset": 27060,
      "byteStride": 12,
      "target": 34962
    },
    {
      "name": "bufferView_2",
      "buffer": 0,
      "byteLength": 18040,
      "byteOffset": 54120,
      "byteStride": 8,
      "target": 34962
    },
    {
      "name": "bufferView_3",
      "buffer": 0,
      "byteLength": 8208,
      "byteOffset": 72160,
      "target": 34963
    },
    {
      "buffer": 0,
      "byteOffset": 80368,
      "byteLength": 2013
    }
  ],
  "images": [
    {
      "name": "SPW_Urban_Bldg_06_Color01",
      "mimeType": "image/png",
      "bufferView": 4
    }
  ],
  "materials": [
    {
      "name": "SPW_Urban_Bldg_06",
      "pbrMetallicRoughness": {
        "baseColorTexture": {
          "index": 0
        },
        "baseColorFactor": [
          1,
          1,
          1,
          1
        ],
        "metallicFactor": 0,
        "roughnessFactor": 0.9567807
      },
      "emissiveFactor": [
        0,
        0,
        0
      ],
      "alphaMode": "OPAQUE",
      "doubleSided": false
    }
  ],
  "meshes": [
    {
      "name": "SPW_Urban_Bldg_06_1",
      "primitives": [
        {
          "attributes": {
            "POSITION": 0,
            "NORMAL": 1,
            "TEXCOORD_0": 2
          },
          "indices": 3,
          "material": 0,
          "mode": 4
        }
      ]
    }
  ],
  "nodes": [
    {
      "name": "SPW_Urban_Bldg_06",
      "mesh": 0
    }
  ],
  "samplers": [
    {
      "magFilter": 9729,
      "minFilter": 9986,
      "wrapS": 10497,
      "wrapT": 10497
    }
  ],
  "scene": 0,
  "scenes": [
    {
      "nodes": [
        0
      ]
    }
  ],
  "textures": [
    {
      "name": "SPW_Urban_Bldg_06_Color01",
      "sampler": 0,
      "source": 0
    }
  ]
}
