{
  "accessors": [
    {
      "name": "SPW_Urban_Bldg_03_1_0_positions",
      "componentType": 5126,
      "count": 644,
      "min": [
        -354.92138671875,
        0,
        -294.2080078125
      ],
      "max": [
        354.9212951660156,
        841.5355224609375,
        266.8749084472656
      ],
      "type": "VEC3",
      "bufferView": 0,
      "byteOffset": 0
    },
    {
      "name": "SPW_Urban_Bldg_03_1_0_normals",
      "componentType": 5126,
      "count": 644,
      "min": [
        -1,
        -1,
        -1
      ],
      "max": [
        1,
        1,
        1
      ],
      "type": "VEC3",
      "bufferView": 1,
      "byteOffset": 0
    },
    {
      "name": "SPW_Urban_Bldg_03_1_0_texcoords",
      "componentType": 5126,
      "count": 644,
      "min": [
        0,
        0.012400000356137753
      ],
      "max": [
        0.9886000156402588,
        1
      ],
      "type": "VEC2",
      "bufferView": 2,
      "byteOffset": 0
    },
    {
      "name": "SPW_Urban_Bldg_03_1_0_indices",
      "componentType": 5123,
      "count": 1212,
      "min": [
        0
      ],
      "max": [
        643
      ],
      "type": "SCALAR",
      "bufferView": 3,
      "byteOffset": 0
    }
  ],
  "asset": {
    "generator": "obj2gltf",
    "version": "2.0"
  },
  "buffers": [
    {
      "name": "SPW_Urban_Bldg_03",
      "byteLength": 25196,
      "uri": "data:application/octet-stream;base64,"
    }
  ],
  "bufferViews": [
    {
      "name": "bufferView_0",
      "buffer": 0,
      "byteLength": 7728,
      "byteOffset": 0,
      "byteStride": 12,
      "target": 34962
    },
    {
      "name": "bufferView_1",
      "buffer": 0,
      "byteLength": 7728,
      "byteOffset": 7728,
      "byteStride": 12,
      "target": 34962
    },
    {
      "name": "bufferView_2",
      "buffer": 0,
      "byteLength": 5152,
      "byteOffset": 15456,
      "byteStride": 8,
      "target": 34962
    },
    {
      "name": "bufferView_3",
      "buffer": 0,
      "byteLength": 2424,
      "byteOffset": 20608,
      "target": 34963
    },
    {
      "buffer": 0,
      "byteOffset": 23032,
      "byteLength": 2162
    }
  ],
  "images": [
    {
      "name": "SPW_Urban_Bldg_03_Color01",
      "mimeType": "image/png",
      "bufferView": 4
    }
  ],
  "materials": [
    {
      "name": "SPW_Urban_Bldg_03",
      "pbrMetallicRoughness": {
        "baseColorTexture": {
          "index": 0
        },
        "baseColorFactor": [
          1,
          1,
          1,
          1
        ],
        "metallicFactor": 0,
        "roughnessFactor": 0.9567807
      },
      "emissiveFactor": [
        0,
        0,
        0
      ],
      "alphaMode": "OPAQUE",
      "doubleSided": false
    }
  ],
  "meshes": [
    {
      "name": "SPW_Urban_Bldg_03_1",
      "primitives": [
        {
          "attributes": {
            "POSITION": 0,
            "NORMAL": 1,
            "TEXCOORD_0": 2
          },
          "indices": 3,
          "material": 0,
          "mode": 4
        }
      ]
    }
  ],
  "nodes": [
    {
      "name": "SPW_Urban_Bldg_03",
      "mesh": 0
    }
  ],
  "samplers": [
    {
      "magFilter": 9729,
      "minFilter": 9986,
      "wrapS": 10497,
      "wrapT": 10497
    }
  ],
  "scene": 0,
  "scenes": [
    {
      "nodes": [
        0
      ]
    }
  ],
  "textures": [
    {
      "name": "SPW_Urban_Bldg_03_Color01",
      "sampler": 0,
      "source": 0
    }
  ]
}
