{
  "accessors": [
    {
      "name": "SPW_Urban_Bldg_02_1_0_positions",
      "componentType": 5126,
      "count": 677,
      "min": [
        -413.38580322265625,
        -0.00009999999747378752,
        -311.7641906738281
      ],
      "max": [
        413.3858947753906,
        1067.9134521484375,
        308.3147888183594
      ],
      "type": "VEC3",
      "bufferView": 0,
      "byteOffset": 0
    },
    {
      "name": "SPW_Urban_Bldg_02_1_0_normals",
      "componentType": 5126,
      "count": 677,
      "min": [
        -1,
        -1,
        -1
      ],
      "max": [
        1,
        1,
        1
      ],
      "type": "VEC3",
      "bufferView": 1,
      "byteOffset": 0
    },
    {
      "name": "SPW_Urban_Bldg_02_1_0_texcoords",
      "componentType": 5126,
      "count": 677,
      "min": [
        0.08839999884366989,
        0.012299999594688416
      ],
      "max": [
        0.9908000230789185,
        0.7037000060081482
      ],
      "type": "VEC2",
      "bufferView": 2,
      "byteOffset": 0
    },
    {
      "name": "SPW_Urban_Bldg_02_1_0_indices",
      "componentType": 5123,
      "count": 1308,
      "min": [
        0
      ],
      "max": [
        676
      ],
      "type": "SCALAR",
      "bufferView": 3,
      "byteOffset": 0
    }
  ],
  "asset": {
    "generator": "obj2gltf",
    "version": "2.0"
  },
  "buffers": [
    {
      "name": "SPW_Urban_Bldg_02",
      "byteLength": 26448,
      "uri": "data:application/octet-stream;base64,"
    }
  ],
  "bufferViews": [
    {
      "name": "bufferView_0",
      "buffer": 0,
      "byteLength": 8124,
      "byteOffset": 0,
      "byteStride": 12,
      "target": 34962
    },
    {
      "name": "bufferView_1",
      "buffer": 0,
      "byteLength": 8124,
      "byteOffset": 8124,
      "byteStride": 12,
      "target": 34962
    },
    {
      "name": "bufferView_2",
      "buffer": 0,
      "byteLength": 5416,
      "byteOffset": 16248,
      "byteStride": 8,
      "target": 34962
    },
    {
      "name": "bufferView_3",
      "buffer": 0,
      "byteLength": 2616,
      "byteOffset": 21664,
      "target": 34963
    },
    {
      "buffer": 0,
      "byteOffset": 24280,
      "byteLength": 2167
    }
  ],
  "images": [
    {
      "name": "SPW_Urban_Bldg_02_Color01",
      "mimeType": "image/png",
      "bufferView": 4
    }
  ],
  "materials": [
    {
      "name": "SPW_Urban_Bldg_02",
      "pbrMetallicRoughness": {
        "baseColorTexture": {
          "index": 0
        },
        "baseColorFactor": [
          1,
          1,
          1,
          1
        ],
        "metallicFactor": 0,
        "roughnessFactor": 0.9567807
      },
      "emissiveFactor": [
        0,
        0,
        0
      ],
      "alphaMode": "OPAQUE",
      "doubleSided": false
    }
  ],
  "meshes": [
    {
      "name": "SPW_Urban_Bldg_02_1",
      "primitives": [
        {
          "attributes": {
            "POSITION": 0,
            "NORMAL": 1,
            "TEXCOORD_0": 2
          },
          "indices": 3,
          "material": 0,
          "mode": 4
        }
      ]
    }
  ],
  "nodes": [
    {
      "name": "SPW_Urban_Bldg_02",
      "mesh": 0
    }
  ],
  "samplers": [
    {
      "magFilter": 9729,
      "minFilter": 9986,
      "wrapS": 10497,
      "wrapT": 10497
    }
  ],
  "scene": 0,
  "scenes": [
    {
      "nodes": [
        0
      ]
    }
  ],
  "textures": [
    {
      "name": "SPW_Urban_Bldg_02_Color01",
      "sampler": 0,
      "source": 0
    }
  ]
}
