# 3ds Max Wavefront OBJ Exporter v0.97b - (c)2007 guruware
# File Created: 15.03.2017 11:25:50

mtllib SPW_Urban_RailRoad_Plan B.mtl

#
# object SPW_Urban_RailRoad_Plan_B
#

v  -787.4017 285.4331 -74.8031
v  0.0000 9.8425 -74.8031
v  -0.0000 0.0000 -118.1102
v  -787.4017 275.5914 -118.1102
v  -787.4017 285.4331 74.8032
v  0.0000 9.8425 74.8031
v  0.0000 -0.0000 118.1102
v  0.0000 -0.0000 74.8031
v  -0.0000 0.0000 -74.8031
v  -787.4017 275.5914 -74.8031
v  -787.4017 275.5914 118.1103
v  -787.4017 275.5914 74.8032
v  -787.4017 287.3709 -50.1968
v  -0.0000 11.7805 -50.1968
v  -0.0000 12.9050 -52.1653
v  -787.4016 288.4954 -52.1653
v  -787.4015 286.4876 -50.1968
v  -0.0000 10.8970 -50.1969
v  -0.0000 19.1104 -58.0709
v  -0.0000 19.1104 -60.0394
v  -0.0000 22.7082 -60.0394
v  -0.0000 22.7082 -58.0709
v  -0.0000 22.7082 -52.1653
v  -0.0000 22.7082 -50.1968
v  -0.0000 19.1104 -50.1968
v  -0.0000 19.1104 -52.1653
v  -0.0000 10.8970 -52.1654
v  -0.0000 10.8970 -58.0709
v  -0.0000 10.8970 -60.0394
v  -0.0000 11.7805 -60.0394
v  -0.0000 12.9050 -58.0709
v  -787.4017 294.7002 -52.1653
v  -787.4015 286.4876 -52.1653
v  -787.4017 294.7002 -58.0708
v  -787.4016 288.4954 -58.0708
v  -787.4017 294.7002 -60.0393
v  -787.4016 298.2986 -60.0393
v  -787.4016 298.2986 -58.0708
v  -787.4016 298.2986 -52.1653
v  -787.4016 298.2986 -50.1968
v  -787.4017 294.7002 -50.1968
v  -787.4015 286.4876 -58.0708
v  -787.4015 286.4876 -60.0393
v  -787.4017 287.3709 -60.0393
v  -787.4017 287.3709 60.0394
v  0.0000 11.7805 60.0394
v  -0.0000 12.9050 58.0709
v  -787.4016 288.4954 58.0709
v  -787.4015 286.4876 60.0394
v  -0.0000 10.8970 60.0394
v  -0.0000 10.8970 58.0709
v  -0.0000 10.8970 52.1654
v  -0.0000 10.8970 50.1969
v  0.0000 11.7805 50.1969
v  -0.0000 12.9050 52.1654
v  0.0000 19.1104 58.0709
v  0.0000 22.7082 58.0709
v  0.0000 19.1104 52.1654
v  0.0000 19.1104 50.1969
v  0.0000 22.7082 50.1969
v  0.0000 22.7082 52.1654
v  0.0000 19.1104 60.0394
v  0.0000 22.7082 60.0394
v  -787.4017 294.7002 58.0709
v  -787.4015 286.4876 58.0709
v  -787.4017 294.7002 60.0394
v  -787.4016 298.2986 60.0394
v  -787.4015 286.4876 52.1654
v  -787.4015 286.4876 50.1969
v  -787.4017 287.3709 50.1969
v  -787.4016 288.4954 52.1654
v  -787.4017 294.7002 52.1654
v  -787.4017 294.7002 50.1969
v  -787.4016 298.2986 50.1969
v  -787.4016 298.2986 52.1654
v  -787.4016 298.2986 58.0709
v  -48.0989 27.7349 70.8661
v  -64.0078 33.3031 70.8661
v  -65.1057 30.1667 70.8661
v  -49.1966 24.5985 70.8661
v  -48.0989 27.7350 -70.8661
v  -49.1966 24.5985 -70.8661
v  -64.0079 33.3031 -70.8661
v  -65.1057 30.1667 -70.8661
v  -87.8715 41.6554 70.8661
v  -103.7805 47.2236 70.8661
v  -104.8783 44.0871 70.8661
v  -88.9692 38.5189 70.8661
v  -87.8715 41.6554 -70.8661
v  -88.9692 38.5189 -70.8661
v  -103.7805 47.2236 -70.8661
v  -104.8783 44.0871 -70.8661
v  -127.6441 55.5758 70.8661
v  -143.5531 61.1440 70.8661
v  -144.6509 58.0075 70.8661
v  -128.7418 52.4394 70.8661
v  -127.6441 55.5758 -70.8661
v  -128.7418 52.4394 -70.8661
v  -143.5531 61.1440 -70.8661
v  -144.6509 58.0076 -70.8661
v  -167.4166 69.4963 70.8661
v  -183.3257 75.0645 70.8662
v  -184.4234 71.9280 70.8662
v  -168.5145 66.3598 70.8661
v  -167.4166 69.4963 -70.8661
v  -168.5145 66.3598 -70.8661
v  -183.3257 75.0645 -70.8661
v  -184.4234 71.9280 -70.8661
v  -207.1892 83.4167 70.8662
v  -223.0982 88.9849 70.8662
v  -224.1960 85.8484 70.8662
v  -208.2870 80.2802 70.8662
v  -207.1892 83.4167 -70.8661
v  -208.2870 80.2803 -70.8661
v  -223.0982 88.9849 -70.8661
v  -224.1960 85.8485 -70.8661
v  -246.9618 97.3371 70.8662
v  -262.8708 102.9053 70.8662
v  -263.9686 99.7689 70.8662
v  -248.0596 94.2006 70.8662
v  -246.9618 97.3372 -70.8661
v  -248.0596 94.2007 -70.8661
v  -262.8708 102.9053 -70.8661
v  -263.9686 99.7689 -70.8661
v  -286.7344 111.2576 70.8662
v  -302.6434 116.8258 70.8662
v  -303.7412 113.6893 70.8662
v  -287.8322 108.1211 70.8662
v  -286.7344 111.2576 -70.8661
v  -287.8322 108.1212 -70.8661
v  -302.6434 116.8258 -70.8661
v  -303.7412 113.6893 -70.8661
v  -326.5070 125.1780 70.8662
v  -342.4160 130.7462 70.8662
v  -343.5138 127.6098 70.8662
v  -327.6047 122.0415 70.8662
v  -326.5070 125.1781 -70.8661
v  -327.6047 122.0416 -70.8661
v  -342.4160 130.7462 -70.8661
v  -343.5138 127.6098 -70.8661
v  -366.2796 139.0985 70.8662
v  -382.1885 144.6666 70.8662
v  -383.2863 141.5302 70.8662
v  -367.3773 135.9620 70.8662
v  -366.2796 139.0985 -70.8661
v  -367.3773 135.9621 -70.8661
v  -382.1885 144.6667 -70.8661
v  -383.2863 141.5302 -70.8661
v  -761.5623 277.4466 70.8662
v  -777.4713 283.0148 70.8662
v  -778.5690 279.8783 70.8662
v  -762.6600 274.3101 70.8662
v  -761.5623 277.4466 -70.8661
v  -762.6600 274.3101 -70.8661
v  -777.4713 283.0148 -70.8661
v  -778.5690 279.8783 -70.8661
v  -724.2328 264.3825 70.8662
v  -740.1418 269.9507 70.8662
v  -741.2396 266.8142 70.8662
v  -725.3306 261.2460 70.8662
v  -724.2328 264.3825 -70.8661
v  -725.3306 261.2460 -70.8661
v  -740.1418 269.9507 -70.8661
v  -741.2396 266.8142 -70.8661
v  -684.4603 250.4621 70.8662
v  -700.3693 256.0302 70.8662
v  -701.4670 252.8937 70.8662
v  -685.5580 247.3256 70.8662
v  -684.4603 250.4621 -70.8661
v  -685.5580 247.3256 -70.8661
v  -700.3693 256.0302 -70.8661
v  -701.4670 252.8937 -70.8661
v  -644.6877 236.5416 70.8662
v  -660.5967 242.1098 70.8662
v  -661.6945 238.9733 70.8662
v  -645.7853 233.4051 70.8662
v  -644.6877 236.5417 -70.8661
v  -645.7853 233.4051 -70.8661
v  -660.5967 242.1098 -70.8661
v  -661.6945 238.9733 -70.8661
v  -604.9150 222.6211 70.8662
v  -620.8240 228.1893 70.8662
v  -621.9218 225.0528 70.8662
v  -606.0128 219.4847 70.8662
v  -604.9150 222.6212 -70.8661
v  -606.0128 219.4847 -70.8661
v  -620.8240 228.1893 -70.8661
v  -621.9218 225.0529 -70.8661
v  -565.1424 208.7007 70.8662
v  -581.0514 214.2688 70.8662
v  -582.1492 211.1323 70.8662
v  -566.2402 205.5642 70.8662
v  -565.1424 208.7008 -70.8661
v  -566.2402 205.5643 -70.8661
v  -581.0514 214.2689 -70.8661
v  -582.1492 211.1324 -70.8661
v  -525.3698 194.7802 70.8662
v  -541.2789 200.3484 70.8662
v  -542.3767 197.2120 70.8662
v  -526.4676 191.6438 70.8662
v  -525.3698 194.7803 -70.8661
v  -526.4676 191.6438 -70.8661
v  -541.2789 200.3485 -70.8661
v  -542.3767 197.2120 -70.8661
v  -485.5973 180.8598 70.8662
v  -501.5063 186.4280 70.8662
v  -502.6041 183.2915 70.8662
v  -486.6951 177.7234 70.8662
v  -485.5973 180.8598 -70.8661
v  -486.6951 177.7234 -70.8661
v  -501.5063 186.4280 -70.8661
v  -502.6041 183.2915 -70.8661
v  -445.8247 166.9394 70.8662
v  -461.7337 172.5075 70.8662
v  -462.8315 169.3711 70.8662
v  -446.9225 163.8029 70.8662
v  -445.8247 166.9394 -70.8661
v  -446.9225 163.8029 -70.8661
v  -461.7337 172.5076 -70.8661
v  -462.8315 169.3711 -70.8661
v  -406.0522 153.0190 70.8662
v  -421.9612 158.5871 70.8662
v  -423.0589 155.4506 70.8662
v  -407.1499 149.8825 70.8662
v  -406.0522 153.0190 -70.8661
v  -407.1499 149.8825 -70.8661
v  -421.9612 158.5871 -70.8661
v  -423.0589 155.4507 -70.8661
v  -10.5652 14.5964 70.8661
v  -26.4742 20.1646 70.8661
v  -27.5720 17.0281 70.8661
v  -11.6629 11.4599 70.8661
v  -10.5652 14.5964 -70.8661
v  -11.6629 11.4599 -70.8661
v  -26.4742 20.1646 -70.8661
v  -27.5720 17.0281 -70.8661
# 236 vertices

vn 0.3230 0.9229 -0.2097
vn 0.3304 0.9439 0.0000
vn 1.0000 -0.0000 -0.0000
vn -0.3304 -0.9439 -0.0000
vn 0.3230 0.9229 0.2097
vn -0.5752 -0.8180 -0.0000
vn -1.0000 0.0000 -0.0000
vn 0.2908 0.8308 0.4746
vn 0.0000 -0.0000 1.0000
vn 1.0000 0.0000 -0.0000
vn 1.0000 0.0000 0.0000
vn 1.0000 -0.0000 0.0000
vn -0.0000 0.0000 -1.0000
vn -0.3303 -0.9439 -0.0000
vn 0.2908 0.8308 -0.4746
vn -1.0000 -0.0001 0.0001
vn -1.0000 -0.0003 -0.0000
vn -1.0000 0.0000 0.0000
vn 0.6605 0.7508 0.0000
vn 0.4378 -0.6171 -0.6538
vn -1.0000 -0.0000 0.0000
vn 0.9439 -0.3303 -0.0000
vn -0.9439 0.3304 0.0000
vn 0.0000 0.0000 -1.0000
vn 0.0000 0.0000 1.0000
vn -0.0000 -0.0000 -1.0000
vn 0.9439 -0.3304 -0.0000
vn -0.9439 0.3303 0.0000
vn -0.9438 0.3304 0.0000
vn 0.3303 0.9439 0.0000
vn 0.9438 -0.3304 -0.0000
# 31 vertex normals

vt 0.4732 0.0268 0.0000
vt 0.5232 0.0268 0.0000
vt 0.5232 0.0768 0.0000
vt 0.4732 0.0768 0.0000
vt 0.4982 0.0768 0.0000
vt 0.5199 0.0643 0.0000
vt 0.5199 0.0393 0.0000
vt 0.4982 0.0268 0.0000
vt 0.4766 0.0393 0.0000
vt 0.4766 0.0643 0.0000
vt 0.4679 0.2819 0.0000
vt 0.5179 0.2819 0.0000
vt 0.5179 0.3319 0.0000
vt 0.4679 0.3319 0.0000
vt 0.5006 0.3307 0.0000
vt 0.5076 0.3271 0.0000
vt 0.5131 0.3216 0.0000
vt 0.5167 0.3146 0.0000
vt 0.5179 0.3069 0.0000
vt 0.5167 0.2992 0.0000
vt 0.5131 0.2922 0.0000
vt 0.5076 0.2867 0.0000
vt 0.5006 0.2831 0.0000
vt 0.4929 0.2819 0.0000
vt 0.4852 0.2831 0.0000
vt 0.4782 0.2867 0.0000
vt 0.4727 0.2922 0.0000
vt 0.4691 0.2992 0.0000
vt 0.4679 0.3069 0.0000
vt 0.4691 0.3146 0.0000
vt 0.4727 0.3216 0.0000
vt 0.4782 0.3271 0.0000
vt 0.4852 0.3307 0.0000
vt 0.4929 0.3319 0.0000
vt 0.5000 0.3309 0.0000
vt 0.5064 0.3279 0.0000
vt 0.5118 0.3233 0.0000
vt 0.5157 0.3173 0.0000
vt 0.5177 0.3104 0.0000
vt 0.5177 0.3033 0.0000
vt 0.5157 0.2965 0.0000
vt 0.5118 0.2905 0.0000
vt 0.5064 0.2859 0.0000
vt 0.5000 0.2829 0.0000
vt 0.4859 0.2829 0.0000
vt 0.4794 0.2859 0.0000
vt 0.4702 0.2965 0.0000
vt 0.4740 0.2905 0.0000
vt 0.4682 0.3033 0.0000
vt 0.4682 0.3104 0.0000
vt 0.4702 0.3173 0.0000
vt 0.4740 0.3233 0.0000
vt 0.4859 0.3309 0.0000
vt 0.4794 0.3279 0.0000
vt 0.4679 0.1667 0.0000
vt 0.5179 0.1667 0.0000
vt 0.5179 0.2167 0.0000
vt 0.4679 0.2167 0.0000
# 58 texture coords

g SPW_Urban_RailRoad_Plan_B
usemtl SPW_Urban_Road
s off
f 1/1/1 2/2/1 3/3/1 4/4/1 
f 5/1/2 6/2/2 2/3/2 1/4/2 
f 2/5/3 6/6/3 7/7/3 8/8/3 
f 2/5/3 8/8/3 9/9/3 3/10/3 
s 1
f 4/1/4 3/2/4 9/3/4 10/4/4 
s off
f 11/1/5 7/2/5 6/3/5 5/4/5 
s 1
f 12/1/4 8/2/4 7/3/4 11/4/4 
f 10/1/4 9/2/4 8/3/4 12/4/4 
s off
f 4/5/6 10/6/6 12/7/6 11/8/6 
f 4/5/7 11/8/7 5/9/7 1/10/7 
f 13/11/8 14/12/8 15/13/8 16/14/8 
f 17/11/9 18/12/9 14/13/9 13/14/9 
f 19/15/3 19/16/3 20/17/3 21/18/3 
f 21/18/3 22/19/3 22/20/3 19/15/3 
f 22/20/3 22/21/3 23/22/3 19/15/3 
f 23/22/3 24/23/3 25/24/3 26/25/3 
f 15/26/10 14/27/10 18/28/10 27/29/10 
f 28/30/3 29/31/3 30/32/3 27/29/3 
f 15/26/11 27/29/11 30/32/11 31/33/11 
f 26/25/3 15/26/3 31/33/3 23/22/3 
f 19/15/12 23/22/12 31/33/12 19/34/12 
f 16/11/9 15/12/9 26/13/9 32/14/9 
s 1
f 33/11/4 27/12/4 18/13/4 17/14/4 
s off
f 34/11/13 19/12/13 31/13/13 35/14/13 
s 1
f 34/11/10 19/12/10 19/13/10 34/14/10 
f 34/11/10 19/12/10 19/13/10 34/14/10 
s off
f 36/11/14 20/12/14 19/13/14 34/14/14 
f 37/11/13 21/12/13 20/13/13 36/14/13 
f 38/11/2 22/12/2 21/13/2 37/14/2 
s 1
f 38/11/10 22/12/10 22/13/10 38/14/10 
f 38/11/10 22/12/10 22/13/10 38/14/10 
s 2
f 39/11/2 23/12/2 22/13/2 38/14/2 
f 40/11/2 24/12/2 23/13/2 39/14/2 
s off
f 41/11/9 25/12/9 24/13/9 40/14/9 
f 32/11/14 26/12/14 25/13/14 41/14/14 
s 1
f 42/11/4 28/12/4 27/13/4 33/14/4 
f 43/11/4 29/12/4 28/13/4 42/14/4 
s off
f 44/11/13 30/12/13 29/13/13 43/14/13 
f 35/11/15 31/12/15 30/13/15 44/14/15 
s 1
f 34/11/10 19/12/10 34/13/10 
f 38/11/10 22/12/10 38/13/10 
s off
f 35/34/16 44/35/16 43/36/16 42/37/16 
f 33/38/17 17/39/17 13/40/17 42/37/17 
f 35/34/7 42/37/7 13/40/7 16/41/7 
f 35/34/7 16/41/7 32/42/7 39/24/7 
f 32/42/18 41/43/18 40/44/18 39/24/18 
f 39/24/19 38/45/19 38/46/19 38/47/19 
f 38/46/19 38/48/19 38/47/19 
f 38/47/18 37/49/18 36/50/18 39/24/18 
f 36/50/20 34/51/20 34/52/20 34/53/20 
f 34/52/20 34/54/20 34/53/20 
f 39/24/21 36/50/21 34/53/21 35/34/21 
f 45/11/8 46/12/8 47/13/8 48/14/8 
f 49/11/9 50/12/9 46/13/9 45/14/9 
f 47/16/10 46/17/10 50/18/10 51/19/10 
f 52/20/3 53/21/3 54/22/3 51/19/3 
f 47/16/11 51/19/11 54/22/11 55/23/11 
f 56/15/3 47/16/3 55/23/3 57/32/3 
f 55/23/12 58/24/12 58/25/12 57/32/12 
f 58/25/3 58/26/3 59/27/3 60/28/3 
f 60/28/3 61/29/3 61/30/3 58/25/3 
f 61/30/3 61/31/3 57/32/3 58/25/3 
f 62/34/3 56/15/3 57/32/3 63/33/3 
f 48/11/9 47/12/9 56/13/9 64/14/9 
s 1
f 65/11/4 51/12/4 50/13/4 49/14/4 
s off
f 66/11/9 62/12/9 63/13/9 67/14/9 
f 64/11/14 56/12/14 62/13/14 66/14/14 
s 1
f 68/11/4 52/12/4 51/13/4 65/14/4 
f 69/11/4 53/12/4 52/13/4 68/14/4 
s off
f 70/11/13 54/12/13 53/13/13 69/14/13 
f 71/11/15 55/12/15 54/13/15 70/14/15 
f 72/11/13 58/12/13 55/13/13 71/14/13 
s 1
f 72/11/10 58/12/10 58/13/10 72/14/10 
f 72/11/10 58/12/10 58/13/10 72/14/10 
s off
f 73/11/14 59/12/14 58/13/14 72/14/14 
f 74/11/13 60/12/13 59/13/13 73/14/13 
f 75/11/2 61/12/2 60/13/2 74/14/2 
s 1
f 75/11/10 61/12/10 61/13/10 75/14/10 
f 75/11/10 61/12/10 61/13/10 75/14/10 
s 2
f 76/11/2 57/12/2 61/13/2 75/14/2 
f 67/11/2 63/12/2 57/13/2 76/14/2 
s 1
f 72/11/10 58/12/10 72/13/10 
f 75/11/10 61/12/10 75/13/10 
s off
f 75/35/19 75/36/19 75/37/19 76/53/19 
f 75/37/18 74/38/18 73/39/18 76/53/18 
f 73/39/20 72/40/20 72/41/20 72/43/20 
f 72/41/20 72/42/20 72/43/20 
f 71/44/16 70/24/16 69/45/16 68/46/16 
f 65/48/17 49/47/17 45/49/17 68/46/17 
f 71/44/7 68/46/7 45/49/7 48/50/7 
f 71/44/7 48/50/7 64/51/7 76/53/7 
f 64/51/18 66/52/18 67/54/18 76/53/18 
f 72/43/21 71/44/21 76/53/21 73/39/21 
f 75/34/19 75/35/19 76/53/19 
f 77/55/9 78/56/9 79/57/9 80/58/9 
f 81/55/22 77/56/22 80/57/22 82/58/22 
f 81/55/2 83/56/2 78/57/2 77/58/2 
f 78/55/23 83/56/23 84/57/23 79/58/23 
f 80/55/4 79/56/4 84/57/4 82/58/4 
f 83/55/13 81/56/13 82/57/13 84/58/13 
f 85/55/9 86/56/9 87/57/9 88/58/9 
f 89/55/22 85/56/22 88/57/22 90/58/22 
f 89/55/2 91/56/2 86/57/2 85/58/2 
f 86/55/23 91/56/23 92/57/23 87/58/23 
f 88/55/4 87/56/4 92/57/4 90/58/4 
f 91/55/24 89/56/24 90/57/24 92/58/24 
f 93/55/25 94/56/25 95/57/25 96/58/25 
f 97/55/22 93/56/22 96/57/22 98/58/22 
f 97/55/2 99/56/2 94/57/2 93/58/2 
f 94/55/23 99/56/23 100/57/23 95/58/23 
f 96/55/4 95/56/4 100/57/4 98/58/4 
f 99/55/26 97/56/26 98/57/26 100/58/26 
f 101/55/9 102/56/9 103/57/9 104/58/9 
f 105/55/27 101/56/27 104/57/27 106/58/27 
f 105/55/2 107/56/2 102/57/2 101/58/2 
f 102/55/23 107/56/23 108/57/23 103/58/23 
f 104/55/4 103/56/4 108/57/4 106/58/4 
f 107/55/24 105/56/24 106/57/24 108/58/24 
f 109/55/9 110/56/9 111/57/9 112/58/9 
f 113/55/27 109/56/27 112/57/27 114/58/27 
f 113/55/2 115/56/2 110/57/2 109/58/2 
f 110/55/23 115/56/23 116/57/23 111/58/23 
f 112/55/4 111/56/4 116/57/4 114/58/4 
f 115/55/24 113/56/24 114/57/24 116/58/24 
f 117/55/9 118/56/9 119/57/9 120/58/9 
f 121/55/27 117/56/27 120/57/27 122/58/27 
f 121/55/2 123/56/2 118/57/2 117/58/2 
f 118/55/23 123/56/23 124/57/23 119/58/23 
f 120/55/4 119/56/4 124/57/4 122/58/4 
f 123/55/24 121/56/24 122/57/24 124/58/24 
f 125/55/9 126/56/9 127/57/9 128/58/9 
f 129/55/27 125/56/27 128/57/27 130/58/27 
f 129/55/2 131/56/2 126/57/2 125/58/2 
f 126/55/28 131/56/28 132/57/28 127/58/28 
f 128/55/14 127/56/14 132/57/14 130/58/14 
f 131/55/24 129/56/24 130/57/24 132/58/24 
f 133/55/9 134/56/9 135/57/9 136/58/9 
f 137/55/27 133/56/27 136/57/27 138/58/27 
f 137/55/2 139/56/2 134/57/2 133/58/2 
f 134/55/29 139/56/29 140/57/29 135/58/29 
f 136/55/4 135/56/4 140/57/4 138/58/4 
f 139/55/24 137/56/24 138/57/24 140/58/24 
f 141/55/9 142/56/9 143/57/9 144/58/9 
f 145/55/27 141/56/27 144/57/27 146/58/27 
f 145/55/2 147/56/2 142/57/2 141/58/2 
f 142/55/23 147/56/23 148/57/23 143/58/23 
f 144/55/4 143/56/4 148/57/4 146/58/4 
f 147/55/13 145/56/13 146/57/13 148/58/13 
f 149/55/9 150/56/9 151/57/9 152/58/9 
f 153/55/27 149/56/27 152/57/27 154/58/27 
f 153/55/2 155/56/2 150/57/2 149/58/2 
f 150/55/23 155/56/23 156/57/23 151/58/23 
f 152/55/4 151/56/4 156/57/4 154/58/4 
f 155/55/24 153/56/24 154/57/24 156/58/24 
f 157/55/25 158/56/25 159/57/25 160/58/25 
f 161/55/27 157/56/27 160/57/27 162/58/27 
f 161/55/2 163/56/2 158/57/2 157/58/2 
f 158/55/23 163/56/23 164/57/23 159/58/23 
f 160/55/4 159/56/4 164/57/4 162/58/4 
f 163/55/26 161/56/26 162/57/26 164/58/26 
f 165/55/9 166/56/9 167/57/9 168/58/9 
f 169/55/27 165/56/27 168/57/27 170/58/27 
f 169/55/2 171/56/2 166/57/2 165/58/2 
f 166/55/28 171/56/28 172/57/28 167/58/28 
f 168/55/14 167/56/14 172/57/14 170/58/14 
f 171/55/13 169/56/13 170/57/13 172/58/13 
f 173/55/9 174/56/9 175/57/9 176/58/9 
f 177/55/22 173/56/22 176/57/22 178/58/22 
f 177/55/30 179/56/30 174/57/30 173/58/30 
f 174/55/23 179/56/23 180/57/23 175/58/23 
f 176/55/4 175/56/4 180/57/4 178/58/4 
f 179/55/24 177/56/24 178/57/24 180/58/24 
f 181/55/9 182/56/9 183/57/9 184/58/9 
f 185/55/31 181/56/31 184/57/31 186/58/31 
f 185/55/2 187/56/2 182/57/2 181/58/2 
f 182/55/23 187/56/23 188/57/23 183/58/23 
f 184/55/4 183/56/4 188/57/4 186/58/4 
f 187/55/24 185/56/24 186/57/24 188/58/24 
f 189/55/9 190/56/9 191/57/9 192/58/9 
f 193/55/27 189/56/27 192/57/27 194/58/27 
f 193/55/30 195/56/30 190/57/30 189/58/30 
f 190/55/23 195/56/23 196/57/23 191/58/23 
f 192/55/14 191/56/14 196/57/14 194/58/14 
f 195/55/24 193/56/24 194/57/24 196/58/24 
f 197/55/9 198/56/9 199/57/9 200/58/9 
f 201/55/27 197/56/27 200/57/27 202/58/27 
f 201/55/2 203/56/2 198/57/2 197/58/2 
f 198/55/23 203/56/23 204/57/23 199/58/23 
f 200/55/4 199/56/4 204/57/4 202/58/4 
f 203/55/24 201/56/24 202/57/24 204/58/24 
f 205/55/9 206/56/9 207/57/9 208/58/9 
f 209/55/27 205/56/27 208/57/27 210/58/27 
f 209/55/2 211/56/2 206/57/2 205/58/2 
f 206/55/23 211/56/23 212/57/23 207/58/23 
f 208/55/4 207/56/4 212/57/4 210/58/4 
f 211/55/24 209/56/24 210/57/24 212/58/24 
f 213/55/9 214/56/9 215/57/9 216/58/9 
f 217/55/27 213/56/27 216/57/27 218/58/27 
f 217/55/30 219/56/30 214/57/30 213/58/30 
f 214/55/23 219/56/23 220/57/23 215/58/23 
f 216/55/4 215/56/4 220/57/4 218/58/4 
f 219/55/24 217/56/24 218/57/24 220/58/24 
f 221/55/9 222/56/9 223/57/9 224/58/9 
f 225/55/27 221/56/27 224/57/27 226/58/27 
f 225/55/30 227/56/30 222/57/30 221/58/30 
f 222/55/23 227/56/23 228/57/23 223/58/23 
f 224/55/4 223/56/4 228/57/4 226/58/4 
f 227/55/24 225/56/24 226/57/24 228/58/24 
f 229/55/9 230/56/9 231/57/9 232/58/9 
f 233/55/27 229/56/27 232/57/27 234/58/27 
f 233/55/2 235/56/2 230/57/2 229/58/2 
f 230/55/23 235/56/23 236/57/23 231/58/23 
f 232/55/4 231/56/4 236/57/4 234/58/4 
f 235/55/24 233/56/24 234/57/24 236/58/24 
# 206 polygons - 8 triangles

