# 3ds Max Wavefront OBJ Exporter v0.97b - (c)2007 guruware
# File Created: 15.03.2017 11:20:17

mtllib SPW_Urban_RailRoad_02.mtl

#
# object SPW_Urban_RailRoad_02
#

v  453.7400 22.7161 393.7007
v  448.1538 22.7161 322.7206
v  446.2092 22.7082 323.0285
v  451.7712 22.7082 393.7007
v  453.7400 19.1026 393.7007
v  448.1538 19.1026 322.7205
v  429.6601 22.7082 254.0961
v  431.5326 22.7161 253.4877
v  440.3768 22.7082 323.9523
v  445.8661 22.7082 393.7007
v  424.0440 22.7082 255.9209
v  397.2697 22.7082 191.2820
v  402.5313 22.7082 188.6012
v  365.4907 22.7083 128.1566
v  360.7134 22.7083 131.6275
v  315.2751 22.7083 78.4259
v  319.4506 22.7083 74.2504
v  265.5446 22.7083 28.2103
v  262.0737 22.7083 32.9876
v  202.4191 22.7083 -3.5688
v  205.1000 22.7083 -8.8303
v  139.6051 22.7083 -35.9592
v  137.7803 22.7083 -30.3430
v  69.7489 22.7083 -46.6760
v  70.6727 22.7083 -52.5084
v  -0.0000 22.7083 -58.0704
v  0.0001 22.7083 -58.0705
v  0.0001 22.7083 -52.1654
v  -0.0000 22.7083 -52.1654
v  451.7712 19.1104 393.7007
v  446.2092 19.1104 323.0285
v  431.5326 19.1026 253.4877
v  404.2855 22.7161 187.7073
v  -0.0000 22.7003 -50.1968
v  0.0001 22.7003 -50.1968
v  69.4409 22.7003 -44.7317
v  137.1720 22.7003 -28.4709
v  201.5254 22.7003 -1.8149
v  260.9166 22.7003 34.5802
v  313.8831 22.7003 79.8179
v  359.1208 22.7003 132.7845
v  395.5158 22.7003 192.1757
v  422.1718 22.7003 256.5292
v  438.4326 22.7003 324.2602
v  443.8976 22.7003 393.7007
v  367.0836 22.7161 126.9993
v  320.8428 22.7161 72.8583
v  266.7019 22.7161 26.6174
v  205.9938 22.7161 -10.5845
v  140.2135 22.7161 -37.8316
v  70.9806 22.7161 -54.4530
v  0.0001 22.7161 -60.0393
v  -0.0000 22.7161 -60.0393
v  451.7712 12.9053 393.7007
v  446.2092 12.9053 323.0285
v  429.6601 19.1104 254.0961
v  404.2855 19.1026 187.7073
v  -0.0000 19.1156 -50.1968
v  0.0001 19.1156 -50.1968
v  69.4409 19.1156 -44.7317
v  137.1720 19.1156 -28.4709
v  201.5255 19.1156 -1.8149
v  260.9166 19.1156 34.5802
v  313.8832 19.1156 79.8179
v  359.1208 19.1156 132.7845
v  395.5158 19.1156 192.1757
v  422.1718 19.1156 256.5292
v  438.4326 19.1156 324.2602
v  443.8976 19.1156 393.7007
v  367.0836 19.1026 126.9993
v  320.8428 19.1026 72.8583
v  266.7019 19.1026 26.6174
v  205.9938 19.1026 -10.5845
v  140.2135 19.1026 -37.8316
v  70.9806 19.1026 -54.4530
v  0.0001 19.1026 -60.0393
v  -0.0000 19.1026 -60.0393
v  453.7400 11.7807 393.7007
v  448.1538 11.7807 322.7205
v  429.6601 12.9053 254.0961
v  402.5313 19.1104 188.6012
v  -0.0000 19.1077 -52.1654
v  0.0001 19.1077 -52.1654
v  69.7489 19.1077 -46.6760
v  137.7803 19.1077 -30.3430
v  202.4191 19.1077 -3.5688
v  262.0737 19.1077 32.9876
v  315.2751 19.1076 78.4259
v  360.7134 19.1076 131.6274
v  397.2697 19.1076 191.2820
v  424.0440 19.1076 255.9209
v  440.3768 19.1076 323.9522
v  445.8661 19.1076 393.7007
v  365.4907 19.1104 128.1565
v  319.4506 19.1105 74.2504
v  265.5446 19.1105 28.2103
v  205.1000 19.1105 -8.8303
v  139.6051 19.1105 -35.9592
v  70.6727 19.1105 -52.5084
v  0.0001 19.1105 -58.0705
v  -0.0000 19.1105 -58.0704
v  453.7400 10.8928 393.7007
v  448.1538 10.8928 322.7205
v  431.5325 11.7807 253.4877
v  402.5313 12.9053 188.6012
v  0.0000 12.9053 -52.1654
v  0.0001 12.9053 -52.1654
v  69.7489 12.9053 -46.6760
v  137.7804 12.9053 -30.3430
v  202.4191 12.9053 -3.5688
v  262.0737 12.9053 32.9876
v  315.2751 12.9053 78.4259
v  360.7134 12.9053 131.6274
v  397.2697 12.9052 191.2820
v  424.0440 12.9052 255.9209
v  440.3768 12.9052 323.9522
v  445.8661 12.9052 393.7007
v  365.4907 12.9053 128.1565
v  319.4506 12.9053 74.2504
v  265.5446 12.9053 28.2102
v  205.1000 12.9053 -8.8303
v  139.6051 12.9053 -35.9592
v  70.6727 12.9053 -52.5084
v  0.0001 12.9053 -58.0705
v  0.0000 12.9053 -58.0704
v  451.7712 10.8972 393.7007
v  446.2092 10.8972 323.0285
v  431.5325 10.8928 253.4877
v  404.2855 11.7807 187.7073
v  0.0000 11.7808 -50.1968
v  0.0001 11.7808 -50.1968
v  69.4410 11.7808 -44.7316
v  137.1720 11.7808 -28.4708
v  201.5254 11.7808 -1.8148
v  260.9166 11.7808 34.5802
v  313.8831 11.7808 79.8179
v  359.1208 11.7808 132.7845
v  395.5157 11.7807 192.1757
v  422.1717 11.7807 256.5291
v  438.4326 11.7807 324.2602
v  443.8975 11.7807 393.7007
v  367.0836 11.7807 126.9993
v  320.8429 11.7807 72.8582
v  266.7019 11.7807 26.6175
v  205.9938 11.7807 -10.5845
v  140.2135 11.7808 -37.8316
v  70.9807 11.7808 -54.4530
v  0.0001 11.7808 -60.0393
v  0.0000 11.7808 -60.0393
v  0.0001 10.8973 -58.0705
v  70.6727 10.8973 -52.5084
v  139.6051 10.8972 -35.9592
v  69.7489 10.8972 -46.6760
v  205.1000 10.8972 -8.8303
v  265.5447 10.8972 28.2102
v  202.4192 10.8972 -3.5688
v  319.4506 10.8972 74.2504
v  365.4907 10.8972 128.1565
v  315.2751 10.8972 78.4259
v  402.5313 10.8972 188.6012
v  429.6601 10.8972 254.0961
v  397.2697 10.8972 191.2820
v  440.3768 10.8972 323.9522
v  445.8661 10.8972 393.7007
v  424.0440 10.8972 255.9209
v  360.7134 10.8972 131.6274
v  262.0737 10.8972 32.9876
v  137.7804 10.8972 -30.3430
v  0.0001 10.8973 -52.1654
v  404.2855 10.8928 187.7073
v  0.0000 10.9017 -50.1968
v  0.0001 10.9017 -50.1968
v  69.4410 10.9017 -44.7316
v  137.1720 10.9017 -28.4708
v  201.5254 10.9017 -1.8148
v  260.9166 10.9017 34.5802
v  313.8831 10.9017 79.8179
v  359.1208 10.9017 132.7845
v  395.5157 10.9017 192.1757
v  422.1717 10.9016 256.5291
v  438.4326 10.9016 324.2602
v  443.8975 10.9016 393.7007
v  367.0836 10.8929 126.9993
v  320.8429 10.8929 72.8582
v  266.7019 10.8929 26.6175
v  205.9938 10.8929 -10.5845
v  140.2135 10.8929 -37.8316
v  70.9807 10.8929 -54.4530
v  0.0001 10.8929 -60.0393
v  0.0000 10.8929 -60.0393
v  0.0000 10.8973 -58.0704
v  0.0000 10.8973 -52.1654
v  0.0000 10.8972 58.0708
v  0.0000 10.8972 52.1653
v  53.4280 10.8972 56.3702
v  52.5041 10.8972 62.2030
v  103.7154 10.8972 74.4977
v  105.5404 10.8972 68.8812
v  155.0540 10.8972 89.3905
v  152.3729 10.8972 94.6524
v  197.2784 10.8972 122.1705
v  200.7496 10.8972 117.3928
v  241.5022 10.8972 152.1988
v  237.3263 10.8972 156.3747
v  271.5305 10.8972 196.4226
v  276.3081 10.8972 192.9514
v  304.3105 10.8972 238.6471
v  299.0486 10.8972 241.3281
v  319.2032 10.8972 289.9856
v  324.8196 10.8972 288.1607
v  337.3307 10.8972 340.2731
v  331.4979 10.8972 341.1969
v  341.5355 10.8972 393.7008
v  335.6300 10.8972 393.7008
v  0.0000 10.8915 50.1969
v  53.7359 10.8915 54.4260
v  333.6615 10.9031 393.7008
v  329.5536 10.9031 341.5049
v  317.3310 10.9031 290.5939
v  297.2947 10.9031 242.2218
v  269.9379 10.9031 197.5796
v  235.9344 10.9031 157.7666
v  196.1214 10.9031 123.7631
v  151.4792 10.9031 96.4063
v  103.1071 10.9031 76.3699
v  52.1962 10.9031 64.1472
v  0.0000 10.9031 60.0393
v  106.1486 10.8914 67.0091
v  155.9476 10.8914 87.6366
v  201.9066 10.8914 115.8004
v  242.8940 10.8914 150.8069
v  277.9006 10.8914 191.7943
v  306.0644 10.8914 237.7534
v  326.6917 10.8914 287.5524
v  339.2749 10.8914 339.9651
v  343.5039 10.8914 393.7008
v  0.0000 11.7807 50.1969
v  53.7359 11.7807 54.4260
v  333.6615 11.7806 393.7008
v  329.5536 11.7806 341.5049
v  317.3310 11.7806 290.5939
v  297.2947 11.7806 242.2218
v  269.9379 11.7806 197.5796
v  235.9344 11.7806 157.7666
v  196.1214 11.7806 123.7631
v  151.4792 11.7806 96.4063
v  103.1071 11.7806 76.3699
v  52.1962 11.7806 64.1472
v  0.0000 11.7806 60.0393
v  106.1486 11.7807 67.0091
v  155.9476 11.7807 87.6366
v  201.9066 11.7807 115.8004
v  242.8940 11.7807 150.8069
v  277.9006 11.7807 191.7943
v  306.0644 11.7807 237.7534
v  326.6917 11.7807 287.5524
v  339.2749 11.7807 339.9651
v  343.5039 11.7807 393.7008
v  0.0000 12.9053 52.1653
v  53.4280 12.9053 56.3702
v  335.6299 12.9054 393.7008
v  331.4979 12.9054 341.1969
v  319.2032 12.9054 289.9856
v  299.0486 12.9054 241.3281
v  271.5304 12.9054 196.4226
v  237.3263 12.9054 156.3747
v  197.2784 12.9054 122.1706
v  152.3729 12.9054 94.6524
v  103.7154 12.9054 74.4977
v  52.5041 12.9054 62.2030
v  0.0000 12.9054 58.0708
v  105.5404 12.9053 68.8812
v  155.0540 12.9053 89.3905
v  200.7496 12.9053 117.3929
v  241.5022 12.9053 152.1988
v  276.3081 12.9053 192.9514
v  304.3105 12.9053 238.6471
v  324.8196 12.9053 288.1607
v  337.3307 12.9053 340.2731
v  341.5355 12.9053 393.7008
v  0.0000 19.1104 52.1653
v  53.4280 19.1104 56.3702
v  335.6299 19.1104 393.7008
v  331.4979 19.1104 341.1969
v  319.2031 19.1104 289.9856
v  299.0486 19.1104 241.3282
v  271.5304 19.1104 196.4226
v  237.3263 19.1104 156.3747
v  197.2784 19.1104 122.1706
v  152.3729 19.1104 94.6524
v  103.7154 19.1104 74.4977
v  52.5041 19.1104 62.2030
v  0.0000 19.1104 58.0708
v  105.5404 19.1104 68.8813
v  155.0540 19.1104 89.3905
v  200.7496 19.1104 117.3929
v  241.5022 19.1104 152.1988
v  276.3081 19.1103 192.9514
v  304.3105 19.1103 238.6471
v  324.8196 19.1103 288.1607
v  337.3307 19.1103 340.2731
v  341.5355 19.1103 393.7008
v  0.0000 19.1000 50.1969
v  53.7359 19.1000 54.4260
v  333.6614 19.1209 393.7008
v  329.5535 19.1209 341.5049
v  317.3310 19.1209 290.5939
v  297.2946 19.1209 242.2218
v  269.9379 19.1210 197.5796
v  235.9344 19.1210 157.7666
v  196.1214 19.1210 123.7631
v  151.4792 19.1210 96.4063
v  103.1071 19.1210 76.3699
v  52.1962 19.1210 64.1473
v  0.0000 19.1210 60.0394
v  106.1486 19.1000 67.0092
v  155.9476 19.1000 87.6366
v  201.9066 19.1000 115.8004
v  242.8940 19.1000 150.8069
v  277.9006 19.1000 191.7944
v  306.0644 19.1000 237.7534
v  326.6917 19.1000 287.5524
v  339.2749 19.1000 339.9652
v  343.5039 19.1000 393.7008
v  0.0000 22.7186 50.1969
v  53.7359 22.7186 54.4260
v  333.6614 22.6977 393.7008
v  329.5535 22.6977 341.5049
v  317.3310 22.6977 290.5939
v  297.2946 22.6977 242.2218
v  269.9379 22.6977 197.5796
v  235.9344 22.6977 157.7666
v  196.1214 22.6977 123.7631
v  151.4792 22.6977 96.4063
v  103.1071 22.6977 76.3699
v  52.1962 22.6977 64.1473
v  0.0000 22.6977 60.0394
v  106.1486 22.7186 67.0092
v  155.9476 22.7186 87.6366
v  201.9066 22.7186 115.8004
v  242.8940 22.7186 150.8069
v  277.9005 22.7186 191.7944
v  306.0643 22.7186 237.7534
v  326.6917 22.7186 287.5524
v  339.2749 22.7186 339.9652
v  343.5038 22.7186 393.7008
v  0.0000 22.7083 52.1653
v  53.4280 22.7083 56.3702
v  335.6299 22.7082 393.7008
v  331.4979 22.7082 341.1969
v  319.2031 22.7082 289.9856
v  299.0486 22.7082 241.3282
v  271.5304 22.7082 196.4226
v  237.3263 22.7083 156.3747
v  197.2784 22.7083 122.1706
v  152.3729 22.7083 94.6524
v  103.7154 22.7083 74.4977
v  52.5041 22.7083 62.2030
v  0.0000 22.7083 58.0709
v  105.5404 22.7083 68.8813
v  155.0540 22.7083 89.3905
v  200.7496 22.7083 117.3929
v  241.5022 22.7083 152.1989
v  276.3081 22.7082 192.9514
v  304.3105 22.7082 238.6471
v  324.8196 22.7082 288.1607
v  337.3307 22.7082 340.2731
v  341.5355 22.7082 393.7008
v  0.0001 0.0000 -118.1102
v  0.0001 9.8425 -74.8030
v  73.2903 9.8425 -69.0350
v  80.0650 0.0000 -111.8089
v  144.7758 9.8425 -51.8728
v  158.1585 0.0000 -93.0604
v  212.6965 9.8425 -23.7391
v  232.3575 0.0000 -62.3261
v  275.3798 9.8425 14.6733
v  300.8351 0.0000 -20.3629
v  331.2824 9.8425 62.4187
v  361.9052 -0.0000 31.7959
v  379.0277 9.8425 118.3213
v  414.0640 -0.0000 92.8660
v  417.4402 9.8425 181.0047
v  456.0272 -0.0000 161.3437
v  445.5737 9.8425 248.9254
v  486.7614 -0.0000 235.5428
v  462.7358 9.8425 320.4109
v  505.5099 -0.0000 313.6363
v  468.5038 9.8425 393.7011
v  511.8110 -0.0000 393.7012
v  0.0000 -0.0000 118.1103
v  43.1119 -0.0000 121.5033
v  49.8866 9.8425 78.7294
v  0.0001 9.8425 74.8032
v  85.1622 -0.0000 131.5986
v  98.5449 9.8425 90.4112
v  125.1156 -0.0000 148.1479
v  144.7766 9.8425 109.5610
v  161.9881 -0.0000 170.7434
v  187.4434 9.8425 135.7073
v  194.8720 -0.0000 198.8289
v  225.4948 9.8425 168.2062
v  222.9575 -0.0000 231.7128
v  257.9937 9.8425 206.2576
v  245.5531 -0.0000 268.5854
v  284.1400 9.8425 248.9245
v  262.1023 -0.0000 308.5388
v  303.2897 9.8425 295.1562
v  272.1976 -0.0000 350.5891
v  314.9715 9.8425 343.8145
v  275.5905 -0.0000 393.7010
v  318.8976 9.8425 393.7010
v  322.7707 10.8991 383.6598
v  321.4792 10.8991 367.9648
v  321.4792 7.6048 367.9648
v  322.7707 7.6048 383.6598
v  462.7341 10.8991 356.3416
v  462.7341 7.6048 356.3416
v  464.0255 10.8991 372.0366
v  464.0255 7.6048 372.0366
v  26.9671 10.8991 72.6914
v  11.2638 10.8991 71.5059
v  11.2638 7.6048 71.5059
v  26.9671 7.6048 72.6914
v  21.9335 10.8991 -69.8243
v  21.9335 7.6048 -69.8243
v  37.6368 10.8991 -68.6387
v  37.6368 7.6048 -68.6387
v  91.5870 10.8991 85.1340
v  76.5311 10.8991 80.5166
v  76.5311 7.6048 80.5166
v  91.5870 7.6048 85.1340
v  118.0879 10.8991 -54.9864
v  118.0879 7.6048 -54.9864
v  133.1438 10.8991 -50.3690
v  133.1438 7.6048 -50.3690
v  121.7819 10.8991 96.6167
v  107.5287 10.8991 89.9200
v  107.5287 7.6048 89.9200
v  121.7819 7.6048 96.6167
v  167.7996 10.8991 -38.3589
v  167.7996 7.6048 -38.3589
v  182.0528 10.8991 -31.6621
v  182.0528 7.6048 -31.6621
v  180.2049 10.8991 127.9206
v  167.7401 10.8991 118.2962
v  167.7401 7.6048 118.2962
v  180.2049 7.6048 127.9206
v  254.3603 10.8991 6.1133
v  254.3603 7.6048 6.1133
v  266.8251 10.8991 15.7377
v  266.8251 7.6048 15.7377
v  206.9594 10.8991 147.7474
v  195.4225 10.8991 137.0281
v  195.4225 7.6048 137.0281
v  206.9594 7.6048 147.7474
v  291.8959 10.8991 33.1969
v  291.8959 7.6048 33.1969
v  303.4328 10.8991 43.9161
v  303.4328 7.6048 43.9161
v  254.6237 10.8991 197.6990
v  245.3131 10.8991 184.9980
v  245.3131 7.6048 184.9980
v  254.6237 7.6048 197.6990
v  359.6216 10.8991 101.2029
v  359.6216 7.6048 101.2029
v  368.9322 10.8991 113.9038
v  368.9322 7.6048 113.9038
v  273.1071 10.8991 223.0885
v  265.4568 10.8991 209.3235
v  265.4568 7.6048 209.3235
v  273.1071 7.6048 223.0885
v  389.3414 10.8991 140.4711
v  389.3414 7.6048 140.4711
v  396.9916 10.8991 154.2360
v  396.9916 7.6048 154.2360
v  287.5672 10.8991 251.2983
v  281.7769 10.8991 236.6534
v  281.7769 7.6048 236.6534
v  287.5672 7.6048 251.2983
v  413.5810 10.8991 184.5407
v  413.5810 7.6048 184.5407
v  419.3713 10.8991 199.1856
v  419.3713 7.6048 199.1856
v  301.9496 10.8991 281.9519
v  297.5063 10.8991 266.8437
v  297.5063 7.6048 266.8437
v  301.9496 7.6048 281.9519
v  433.4799 10.8991 226.8534
v  433.4799 7.6048 226.8534
v  437.9232 10.8991 241.9616
v  437.9232 7.6048 241.9616
v  60.2212 10.8991 77.2962
v  44.7073 10.8991 74.5908
v  44.7073 7.6048 74.5908
v  60.2212 7.6048 77.2962
v  69.0553 10.8991 -65.0345
v  69.0553 7.6048 -65.0345
v  84.5692 10.8991 -62.3291
v  84.5692 7.6048 -62.3291
v  150.9073 10.8991 109.8647
v  137.5878 10.8991 101.4629
v  137.5878 7.6048 101.4629
v  150.9073 7.6048 109.8647
v  213.2045 10.8991 -18.4127
v  213.2045 7.6048 -18.4127
v  226.5240 10.8991 -10.0109
v  226.5240 7.6048 -10.0109
v  233.0904 10.8991 172.2888
v  222.5407 10.8991 160.5967
v  222.5407 7.6048 160.5967
v  233.0904 7.6048 172.2888
v  327.7692 10.8991 65.6493
v  327.7692 7.6048 65.6493
v  338.3189 10.8991 77.3414
v  338.3189 7.6048 77.3414
v  311.5858 10.8991 314.6315
v  308.3688 10.8991 299.2155
v  308.3688 7.6048 299.2155
v  311.5858 7.6048 314.6315
v  447.1123 10.8991 270.2624
v  447.1123 7.6048 270.2624
v  450.3293 10.8991 285.6783
v  450.3293 7.6048 285.6783
v  319.5081 10.8991 349.8093
v  317.1008 10.8991 334.2463
v  317.1008 7.6048 334.2463
v  319.5081 7.6048 349.8093
v  457.1675 10.8991 312.5812
v  457.1675 7.6048 312.5812
v  459.5747 10.8991 328.1441
v  459.5747 7.6048 328.1441
# 532 vertices

vn -0.0040 1.0000 0.0003
vn 0.9969 0.0000 -0.0785
vn -0.0039 1.0000 0.0009
vn -0.0000 1.0000 0.0000
vn 0.0000 1.0000 0.0000
vn -0.0040 -1.0000 0.0003
vn 0.9724 0.0000 -0.2334
vn -0.0037 1.0000 0.0015
vn 0.0000 1.0000 0.0040
vn -0.0003 1.0000 0.0040
vn -0.0009 1.0000 0.0039
vn -0.0015 1.0000 0.0037
vn -0.0021 1.0000 0.0035
vn -0.0026 1.0000 0.0031
vn -0.0031 1.0000 0.0026
vn -0.0035 1.0000 0.0021
vn -0.0037 1.0000 0.0016
vn -0.0034 1.0000 0.0021
vn -0.0030 1.0000 0.0026
vn -0.0026 1.0000 0.0030
vn -0.0021 1.0000 0.0034
vn 0.0007 1.0000 0.0040
vn -0.0039 -1.0000 0.0009
vn 0.9239 0.0000 -0.3827
vn 0.0000 -0.0000 1.0000
vn -0.0785 -0.0000 0.9969
vn -0.2334 -0.0000 0.9724
vn -0.3827 -0.0000 0.9239
vn -0.5225 -0.0000 0.8526
vn -0.6494 -0.0000 0.7604
vn -0.7604 -0.0000 0.6494
vn -0.8526 -0.0000 0.5225
vn -0.9239 -0.0000 0.3827
vn -0.9724 -0.0000 0.2334
vn -0.9969 -0.0000 0.0785
vn 0.8526 0.0000 -0.5225
vn 0.7604 0.0000 -0.6494
vn 0.6494 0.0000 -0.7604
vn 0.5225 0.0000 -0.8526
vn 0.3827 0.0000 -0.9239
vn 0.2334 0.0000 -0.9724
vn 0.0785 0.0000 -0.9969
vn 0.0000 0.0000 -1.0000
vn 0.4956 0.8677 -0.0390
vn -0.0037 -1.0000 0.0015
vn 0.0000 -1.0000 0.0040
vn -0.0003 -1.0000 0.0040
vn -0.0009 -1.0000 0.0039
vn -0.0015 -1.0000 0.0037
vn -0.0021 -1.0000 0.0035
vn -0.0026 -1.0000 0.0031
vn -0.0031 -1.0000 0.0026
vn -0.0035 -1.0000 0.0021
vn -0.0034 -1.0000 0.0021
vn -0.0030 -1.0000 0.0026
vn -0.0026 -1.0000 0.0030
vn -0.0021 -1.0000 0.0034
vn 0.0007 -1.0000 0.0040
vn 0.4834 0.8677 -0.1161
vn -0.3292 -0.0000 -0.9443
vn -0.0022 -1.0000 0.0002
vn 0.4593 0.8677 -0.1902
vn 0.0000 0.8683 0.4960
vn -0.0390 0.8677 0.4956
vn -0.1161 0.8677 0.4834
vn -0.1903 0.8677 0.4593
vn -0.2598 0.8677 0.4239
vn -0.3229 0.8677 0.3780
vn -0.3780 0.8677 0.3229
vn -0.4239 0.8677 0.2598
vn -0.4593 0.8677 0.1903
vn -0.4834 0.8677 0.1161
vn -0.4956 0.8677 0.0390
vn 0.4239 0.8677 -0.2598
vn 0.3780 0.8677 -0.3229
vn 0.3229 0.8677 -0.3780
vn 0.2598 0.8677 -0.4239
vn 0.1902 0.8677 -0.4593
vn 0.1161 0.8677 -0.4834
vn 0.0390 0.8677 -0.4956
vn -0.0861 0.8651 -0.4941
vn 0.0000 -1.0000 -0.0000
vn -0.0000 -1.0000 -0.0000
vn -0.0022 -1.0000 0.0005
vn -0.0002 -1.0000 0.0022
vn -0.0005 -1.0000 0.0022
vn -0.0009 -1.0000 0.0021
vn -0.0012 -1.0000 0.0019
vn -0.0014 -1.0000 0.0017
vn -0.0017 -1.0000 0.0014
vn -0.0019 -1.0000 0.0012
vn -0.0021 -1.0000 0.0009
vn -0.0023 -1.0000 0.0002
vn -0.0017 -1.0000 0.0015
vn -0.0015 -1.0000 0.0017
vn -0.0002 -1.0000 0.0023
vn 0.0000 -1.0000 0.0023
vn 0.0004 -1.0000 0.0022
vn -1.0000 -0.0000 0.0000
vn -0.0000 -1.0000 0.0000
vn -0.0002 -1.0000 0.0029
vn -0.0030 -1.0000 0.0002
vn -0.0029 -1.0000 0.0007
vn -0.0028 -1.0000 0.0011
vn -0.0026 -1.0000 0.0016
vn -0.0023 -1.0000 0.0019
vn -0.0019 -1.0000 0.0023
vn -0.0016 -1.0000 0.0026
vn -0.0011 -1.0000 0.0028
vn -0.0007 -1.0000 0.0029
vn -0.0002 -1.0000 0.0030
vn -0.0011 -1.0000 0.0027
vn -0.0015 -1.0000 0.0025
vn -0.0019 -1.0000 0.0022
vn -0.0022 -1.0000 0.0019
vn -0.0025 -1.0000 0.0015
vn -0.0027 -1.0000 0.0011
vn -0.0029 -1.0000 0.0002
vn 0.0390 0.8676 -0.4957
vn -0.4957 0.8676 0.0390
vn -0.4835 0.8676 0.1161
vn -0.4594 0.8676 0.1903
vn -0.4240 0.8676 0.2598
vn -0.3781 0.8676 0.3230
vn -0.3230 0.8676 0.3781
vn -0.2598 0.8676 0.4240
vn -0.1903 0.8676 0.4594
vn -0.1161 0.8676 0.4835
vn -0.0390 0.8676 0.4957
vn 0.1161 0.8676 -0.4835
vn 0.1903 0.8676 -0.4594
vn 0.2598 0.8676 -0.4239
vn 0.3229 0.8676 -0.3781
vn 0.3781 0.8676 -0.3229
vn 0.4239 0.8676 -0.2598
vn 0.4594 0.8676 -0.1903
vn 0.4835 0.8676 -0.1161
vn 0.4957 0.8676 -0.0390
vn -0.0004 -1.0000 0.0053
vn -0.0054 -1.0000 0.0004
vn -0.0052 -1.0000 0.0013
vn -0.0050 -1.0000 0.0021
vn -0.0046 -1.0000 0.0028
vn -0.0041 -1.0000 0.0035
vn -0.0035 -1.0000 0.0041
vn -0.0028 -1.0000 0.0046
vn -0.0021 -1.0000 0.0050
vn -0.0013 -1.0000 0.0052
vn -0.0004 -1.0000 0.0054
vn -0.0012 -1.0000 0.0051
vn -0.0020 -1.0000 0.0049
vn -0.0028 -1.0000 0.0045
vn -0.0034 -1.0000 0.0040
vn -0.0040 -1.0000 0.0034
vn -0.0045 -1.0000 0.0028
vn -0.0049 -1.0000 0.0020
vn -0.0051 -1.0000 0.0012
vn -0.0053 -1.0000 0.0004
vn -0.0004 1.0000 0.0053
vn -0.0054 1.0000 0.0004
vn -0.0052 1.0000 0.0013
vn -0.0050 1.0000 0.0021
vn -0.0046 1.0000 0.0028
vn -0.0041 1.0000 0.0035
vn -0.0035 1.0000 0.0041
vn -0.0028 1.0000 0.0046
vn -0.0021 1.0000 0.0050
vn -0.0013 1.0000 0.0052
vn -0.0004 1.0000 0.0054
vn -0.0012 1.0000 0.0051
vn -0.0020 1.0000 0.0049
vn -0.0028 1.0000 0.0045
vn -0.0034 1.0000 0.0040
vn -0.0040 1.0000 0.0034
vn -0.0045 1.0000 0.0028
vn -0.0049 1.0000 0.0020
vn -0.0051 1.0000 0.0012
vn -0.0053 1.0000 0.0004
vn -1.0000 0.0000 0.0000
vn 0.0174 0.9750 -0.2216
vn 0.0519 0.9750 -0.2161
vn 0.0851 0.9750 -0.2054
vn 0.1161 0.9750 -0.1895
vn 0.1444 0.9750 -0.1690
vn 0.1690 0.9750 -0.1444
vn 0.1895 0.9750 -0.1161
vn 0.2054 0.9750 -0.0851
vn 0.2161 0.9750 -0.0519
vn 0.2216 0.9750 -0.0174
vn -0.0174 0.9750 0.2216
vn -0.0519 0.9750 0.2161
vn -0.0851 0.9750 0.2054
vn -0.1161 0.9750 0.1895
vn -0.1444 0.9750 0.1690
vn -0.1690 0.9750 0.1444
vn -0.1895 0.9750 0.1161
vn -0.2054 0.9750 0.0851
vn -0.2161 0.9750 0.0519
vn -0.2216 0.9750 0.0174
vn -1.0000 -0.0000 -0.0000
vn -0.0000 -0.0000 1.0000
vn -0.9966 -0.0000 0.0820
vn -0.0820 0.0000 -0.9966
vn 0.9966 0.0000 -0.0820
vn 0.0820 -0.0000 0.9966
vn -0.0753 -0.0000 0.9972
vn -0.9972 0.0000 -0.0753
vn 0.0753 0.0000 -0.9972
vn 0.9972 -0.0000 0.0753
vn -0.2932 -0.0000 0.9560
vn -0.9560 0.0000 -0.2932
vn 0.2932 0.0000 -0.9560
vn 0.9560 -0.0000 0.2932
vn -0.4252 -0.0000 0.9051
vn -0.9051 0.0000 -0.4252
vn 0.4252 0.0000 -0.9051
vn 0.9051 -0.0000 0.4252
vn -0.6112 -0.0000 0.7915
vn -0.7915 0.0000 -0.6112
vn 0.6112 0.0000 -0.7915
vn 0.7915 -0.0000 0.6112
vn -0.6807 -0.0000 0.7326
vn -0.7326 0.0000 -0.6807
vn 0.6807 0.0000 -0.7326
vn 0.7326 -0.0000 0.6807
vn -0.8065 -0.0000 0.5912
vn -0.5912 0.0000 -0.8065
vn 0.8065 0.0000 -0.5912
vn 0.5912 -0.0000 0.8065
vn -0.8741 -0.0000 0.4858
vn -0.4858 0.0000 -0.8741
vn 0.8741 0.0000 -0.4858
vn 0.4858 -0.0000 0.8741
vn -0.9300 -0.0000 0.3677
vn -0.3677 0.0000 -0.9300
vn 0.9300 0.0000 -0.3677
vn 0.3677 -0.0000 0.9300
vn -0.9594 -0.0000 0.2822
vn -0.2822 0.0000 -0.9594
vn 0.9594 0.0000 -0.2822
vn 0.2822 -0.0000 0.9594
vn -0.1718 -0.0000 0.9851
vn -0.9851 0.0000 -0.1718
vn 0.1718 0.0000 -0.9851
vn 0.9851 -0.0000 0.1718
vn -0.5335 -0.0000 0.8458
vn -0.8458 0.0000 -0.5335
vn 0.5335 0.0000 -0.8458
vn 0.8458 -0.0000 0.5335
vn -0.7424 -0.0000 0.6699
vn -0.6699 0.0000 -0.7424
vn 0.7424 0.0000 -0.6699
vn 0.6699 -0.0000 0.7424
vn -0.9789 -0.0000 0.2043
vn -0.2043 0.0000 -0.9789
vn 0.9789 0.0000 -0.2043
vn 0.2043 -0.0000 0.9789
vn -0.9882 -0.0000 0.1529
vn -0.1529 0.0000 -0.9882
vn 0.9882 0.0000 -0.1529
vn 0.1529 -0.0000 0.9882
# 261 vertex normals

vt 0.4679 0.2801 0.0000
vt 0.5179 0.2801 0.0000
vt 0.5179 0.3301 0.0000
vt 0.4679 0.3301 0.0000
vt 0.5054 0.2835 0.0000
vt 0.4994 0.2810 0.0000
vt 0.4929 0.2801 0.0000
vt 0.4804 0.2835 0.0000
vt 0.4864 0.2810 0.0000
vt 0.5106 0.2874 0.0000
vt 0.5146 0.2926 0.0000
vt 0.4752 0.2874 0.0000
vt 0.4713 0.2926 0.0000
vt 0.5171 0.2986 0.0000
vt 0.5179 0.3051 0.0000
vt 0.4688 0.2986 0.0000
vt 0.4679 0.3051 0.0000
vt 0.5171 0.3116 0.0000
vt 0.5146 0.3176 0.0000
vt 0.4688 0.3116 0.0000
vt 0.4713 0.3176 0.0000
vt 0.5106 0.3228 0.0000
vt 0.5054 0.3268 0.0000
vt 0.4752 0.3228 0.0000
vt 0.4864 0.3293 0.0000
vt 0.4804 0.3268 0.0000
vt 0.4994 0.3293 0.0000
vt 0.4929 0.3301 0.0000
vt 0.5000 0.3291 0.0000
vt 0.5064 0.3261 0.0000
vt 0.4794 0.3261 0.0000
vt 0.5118 0.3215 0.0000
vt 0.5157 0.3155 0.0000
vt 0.4702 0.3155 0.0000
vt 0.5177 0.3087 0.0000
vt 0.5177 0.3016 0.0000
vt 0.4682 0.3016 0.0000
vt 0.5157 0.2947 0.0000
vt 0.5118 0.2887 0.0000
vt 0.4740 0.2887 0.0000
vt 0.5064 0.2841 0.0000
vt 0.5000 0.2811 0.0000
vt 0.4859 0.2811 0.0000
vt 0.4794 0.2841 0.0000
vt 0.4702 0.2947 0.0000
vt 0.4682 0.3087 0.0000
vt 0.4740 0.3215 0.0000
vt 0.4859 0.3291 0.0000
vt 0.5025 0.3282 0.0000
vt 0.5160 0.3147 0.0000
vt 0.5160 0.2956 0.0000
vt 0.5025 0.2820 0.0000
vt 0.4833 0.2820 0.0000
vt 0.4698 0.2956 0.0000
vt 0.4698 0.3147 0.0000
vt 0.4833 0.3282 0.0000
vt 0.5099 0.2868 0.0000
vt 0.5038 0.2826 0.0000
vt 0.4966 0.2804 0.0000
vt 0.4892 0.2804 0.0000
vt 0.4821 0.2826 0.0000
vt 0.5173 0.2996 0.0000
vt 0.5178 0.3070 0.0000
vt 0.4759 0.2868 0.0000
vt 0.5162 0.3143 0.0000
vt 0.5125 0.3207 0.0000
vt 0.4685 0.2996 0.0000
vt 0.4680 0.3070 0.0000
vt 0.5070 0.3258 0.0000
vt 0.5003 0.3290 0.0000
vt 0.4696 0.3143 0.0000
vt 0.4734 0.3207 0.0000
vt 0.4788 0.3258 0.0000
vt 0.4855 0.3290 0.0000
vt 0.4785 0.0463 0.0000
vt 0.5285 0.0463 0.0000
vt 0.5285 0.0963 0.0000
vt 0.4785 0.0963 0.0000
vt 0.5035 0.0963 0.0000
vt 0.5106 0.0952 0.0000
vt 0.5171 0.0923 0.0000
vt 0.4965 0.0952 0.0000
vt 0.5224 0.0876 0.0000
vt 0.5263 0.0816 0.0000
vt 0.5283 0.0677 0.0000
vt 0.5283 0.0748 0.0000
vt 0.5263 0.0609 0.0000
vt 0.5224 0.0549 0.0000
vt 0.5106 0.0473 0.0000
vt 0.5171 0.0502 0.0000
vt 0.4808 0.0816 0.0000
vt 0.5035 0.0463 0.0000
vt 0.4965 0.0473 0.0000
vt 0.4846 0.0549 0.0000
vt 0.4900 0.0502 0.0000
vt 0.4808 0.0609 0.0000
vt 0.4788 0.0677 0.0000
vt 0.4788 0.0748 0.0000
vt 0.4846 0.0876 0.0000
vt 0.4900 0.0923 0.0000
vt 0.4661 0.1472 0.0000
vt 0.5161 0.1472 0.0000
vt 0.5161 0.1972 0.0000
vt 0.4661 0.1972 0.0000
# 104 texture coords

g SPW_Urban_RailRoad_02
usemtl SPW_Urban_Road
s off
f 1/1/1 2/2/1 3/3/1 4/4/1 
f 5/1/2 6/2/2 2/3/2 1/4/2 
f 7/1/3 3/2/3 2/3/3 8/4/3 
f 9/5/4 10/6/4 4/7/4 7/8/4 
f 4/7/4 3/9/4 7/8/4 
f 11/10/4 9/5/4 7/8/4 12/11/4 
f 7/8/4 13/12/4 14/13/4 12/11/4 
f 15/14/4 12/11/4 14/13/4 16/15/4 
f 14/13/4 17/16/4 18/17/4 16/15/4 
f 19/18/4 16/15/4 18/17/4 20/19/4 
f 18/17/4 21/20/4 22/21/4 20/19/4 
f 23/22/4 20/19/4 22/21/4 24/23/4 
f 24/23/5 22/21/5 25/24/5 26/25/5 
f 25/24/5 27/26/5 26/25/5 
f 28/27/5 24/23/5 26/25/5 29/28/5 
f 30/1/6 31/2/6 6/3/6 5/4/6 
f 32/1/7 8/2/7 2/3/7 6/4/7 
f 13/1/8 7/2/8 8/3/8 33/4/8 
f 34/1/9 35/2/9 28/3/9 29/4/9 
f 24/1/10 28/2/10 35/3/10 36/4/10 
f 23/1/11 24/2/11 36/3/11 37/4/11 
f 20/1/12 23/2/12 37/3/12 38/4/12 
f 19/1/13 20/2/13 38/3/13 39/4/13 
f 16/1/14 19/2/14 39/3/14 40/4/14 
f 15/1/15 16/2/15 40/3/15 41/4/15 
f 12/1/16 15/2/16 41/3/16 42/4/16 
f 11/1/17 12/2/17 42/3/17 43/4/17 
f 9/1/3 11/2/3 43/3/3 44/4/3 
f 10/1/1 9/2/1 44/3/1 45/4/1 
f 14/1/18 13/2/18 33/3/18 46/4/18 
f 17/1/19 14/2/19 46/3/19 47/4/19 
f 18/1/20 17/2/20 47/3/20 48/4/20 
f 21/1/21 18/2/21 48/3/21 49/4/21 
f 22/1/12 21/2/12 49/3/12 50/4/12 
f 25/1/11 22/2/11 50/3/11 51/4/11 
f 27/1/10 25/2/10 51/3/10 52/4/10 
f 26/1/22 27/2/22 52/3/22 53/4/22 
f 54/1/2 55/2/2 31/3/2 30/4/2 
f 31/1/23 56/2/23 32/3/23 6/4/23 
f 57/1/24 33/2/24 8/3/24 32/4/24 
f 58/1/25 59/2/25 35/3/25 34/4/25 
f 59/1/26 60/2/26 36/3/26 35/4/26 
f 60/1/27 61/2/27 37/3/27 36/4/27 
f 61/1/28 62/2/28 38/3/28 37/4/28 
f 62/1/29 63/2/29 39/3/29 38/4/29 
f 63/1/30 64/2/30 40/3/30 39/4/30 
f 64/1/31 65/2/31 41/3/31 40/4/31 
f 65/1/32 66/2/32 42/3/32 41/4/32 
f 66/1/33 67/2/33 43/3/33 42/4/33 
f 67/1/34 68/2/34 44/3/34 43/4/34 
f 45/1/35 44/2/35 68/3/35 69/4/35 
f 70/1/36 46/2/36 33/3/36 57/4/36 
f 71/1/37 47/2/37 46/3/37 70/4/37 
f 72/1/38 48/2/38 47/3/38 71/4/38 
f 73/1/39 49/2/39 48/3/39 72/4/39 
f 74/1/40 50/2/40 49/3/40 73/4/40 
f 75/1/41 51/2/41 50/3/41 74/4/41 
f 76/1/42 52/2/42 51/3/42 75/4/42 
f 53/1/43 52/2/43 76/3/43 77/4/43 
f 78/1/44 79/2/44 55/3/44 54/4/44 
f 80/1/7 56/2/7 31/3/7 55/4/7 
f 56/1/45 81/2/45 57/3/45 32/4/45 
f 82/1/46 83/2/46 59/3/46 58/4/46 
f 83/1/47 84/2/47 60/3/47 59/4/47 
f 84/1/48 85/2/48 61/3/48 60/4/48 
f 85/1/49 86/2/49 62/3/49 61/4/49 
f 86/1/50 87/2/50 63/3/50 62/4/50 
f 87/1/51 88/2/51 64/3/51 63/4/51 
f 88/1/52 89/2/52 65/3/52 64/4/52 
f 89/1/53 90/2/53 66/3/53 65/4/53 
f 90/1/45 91/2/45 67/3/45 66/4/45 
f 91/1/23 92/2/23 68/3/23 67/4/23 
f 69/1/6 68/2/6 92/3/6 93/4/6 
f 81/1/54 94/2/54 70/3/54 57/4/54 
f 94/1/55 95/2/55 71/3/55 70/4/55 
f 95/1/56 96/2/56 72/3/56 71/4/56 
f 96/1/57 97/2/57 73/3/57 72/4/57 
f 97/1/49 98/2/49 74/3/49 73/4/49 
f 98/1/48 99/2/48 75/3/48 74/4/48 
f 99/1/47 100/2/47 76/3/47 75/4/47 
f 77/1/58 76/2/58 100/3/58 101/4/58 
f 102/1/2 103/2/2 79/3/2 78/4/2 
f 80/1/59 55/2/59 79/3/59 104/4/59 
f 105/1/24 81/2/24 56/3/24 80/4/24 
f 106/1/25 107/2/25 83/3/25 82/4/25 
f 107/1/26 108/2/26 84/3/26 83/4/26 
f 108/1/27 109/2/27 85/3/27 84/4/27 
f 109/1/28 110/2/28 86/3/28 85/4/28 
f 110/1/29 111/2/29 87/3/29 86/4/29 
f 111/1/30 112/2/30 88/3/30 87/4/30 
f 112/1/31 113/2/31 89/3/31 88/4/31 
f 113/1/32 114/2/32 90/3/32 89/4/32 
f 114/1/33 115/2/33 91/3/33 90/4/33 
f 115/1/34 116/2/34 92/3/34 91/4/34 
f 93/1/35 92/2/35 116/3/35 117/4/35 
f 118/1/36 94/2/36 81/3/36 105/4/36 
f 119/1/37 95/2/37 94/3/37 118/4/37 
f 120/1/38 96/2/38 95/3/38 119/4/38 
f 121/1/39 97/2/39 96/3/39 120/4/39 
f 122/1/40 98/2/40 97/3/40 121/4/40 
f 123/1/41 99/2/41 98/3/41 122/4/41 
f 124/1/42 100/2/42 99/3/42 123/4/42 
f 101/1/60 100/2/60 124/3/60 125/4/60 
f 126/1/61 127/2/61 103/3/61 102/4/61 
f 128/1/7 104/2/7 79/3/7 103/4/7 
f 105/1/62 80/2/62 104/3/62 129/4/62 
f 130/1/63 131/2/63 107/3/63 106/4/63 
f 108/1/64 107/2/64 131/3/64 132/4/64 
f 109/1/65 108/2/65 132/3/65 133/4/65 
f 110/1/66 109/2/66 133/3/66 134/4/66 
f 111/1/67 110/2/67 134/3/67 135/4/67 
f 112/1/68 111/2/68 135/3/68 136/4/68 
f 113/1/69 112/2/69 136/3/69 137/4/69 
f 114/1/70 113/2/70 137/3/70 138/4/70 
f 115/1/71 114/2/71 138/3/71 139/4/71 
f 116/1/72 115/2/72 139/3/72 140/4/72 
f 117/1/73 116/2/73 140/3/73 141/4/73 
f 118/1/74 105/2/74 129/3/74 142/4/74 
f 119/1/75 118/2/75 142/3/75 143/4/75 
f 120/1/76 119/2/76 143/3/76 144/4/76 
f 121/1/77 120/2/77 144/3/77 145/4/77 
f 122/1/78 121/2/78 145/3/78 146/4/78 
f 123/1/79 122/2/79 146/3/79 147/4/79 
f 124/1/80 123/2/80 147/3/80 148/4/80 
f 125/1/81 124/2/81 148/3/81 149/4/81 
s 1
f 150/28/82 151/29/83 152/30/82 153/31/82 
f 152/30/82 154/32/82 155/33/82 156/34/82 
f 155/33/82 157/35/82 158/36/82 159/37/82 
f 158/36/82 160/38/82 161/39/83 162/40/82 
f 161/39/83 127/41/82 126/42/82 163/43/82 
f 126/42/82 164/7/82 163/43/82 
f 161/39/83 163/43/82 165/44/83 162/40/82 
f 158/36/82 162/40/82 166/45/82 159/37/82 
f 155/33/82 159/37/82 167/46/82 156/34/82 
f 152/30/82 156/34/82 168/47/82 153/31/82 
f 150/28/82 153/31/82 169/48/82 
s off
f 127/1/84 161/2/84 128/3/84 103/4/84 
f 170/1/24 129/2/24 104/3/24 128/4/24 
f 171/1/25 172/2/25 131/3/25 130/4/25 
f 172/1/26 173/2/26 132/3/26 131/4/26 
f 173/1/27 174/2/27 133/3/27 132/4/27 
f 174/1/28 175/2/28 134/3/28 133/4/28 
f 175/1/29 176/2/29 135/3/29 134/4/29 
f 176/1/30 177/2/30 136/3/30 135/4/30 
f 177/1/31 178/2/31 137/3/31 136/4/31 
f 178/1/32 179/2/32 138/3/32 137/4/32 
f 179/1/33 180/2/33 139/3/33 138/4/33 
f 180/1/34 181/2/34 140/3/34 139/4/34 
f 141/1/35 140/2/35 181/3/35 182/4/35 
f 183/1/36 142/2/36 129/3/36 170/4/36 
f 184/1/37 143/2/37 142/3/37 183/4/37 
f 185/1/38 144/2/38 143/3/38 184/4/38 
f 186/1/39 145/2/39 144/3/39 185/4/39 
f 187/1/40 146/2/40 145/3/40 186/4/40 
f 188/1/41 147/2/41 146/3/41 187/4/41 
f 189/1/42 148/2/42 147/3/42 188/4/42 
f 149/1/43 148/2/43 189/3/43 190/4/43 
s 1
f 191/1/82 150/2/82 169/3/82 192/4/82 
s off
f 151/1/85 150/2/85 189/3/85 188/4/85 
f 152/1/86 151/2/86 188/3/86 187/4/86 
f 154/1/87 152/2/87 187/3/87 186/4/87 
f 155/1/88 154/2/88 186/3/88 185/4/88 
f 157/1/89 155/2/89 185/3/89 184/4/89 
f 158/1/90 157/2/90 184/3/90 183/4/90 
f 160/1/91 158/2/91 183/3/91 170/4/91 
f 161/1/92 160/2/92 170/3/92 128/4/92 
f 182/1/93 181/2/93 163/3/93 164/4/93 
f 165/1/84 163/2/84 181/3/84 180/4/84 
f 162/1/92 165/2/92 180/3/92 179/4/92 
f 166/1/91 162/2/91 179/3/91 178/4/91 
f 159/1/94 166/2/94 178/3/94 177/4/94 
f 167/1/95 159/2/95 177/3/95 176/4/95 
f 156/1/88 167/2/88 176/3/88 175/4/88 
f 168/1/87 156/2/87 175/3/87 174/4/87 
f 153/1/86 168/2/86 174/3/86 173/4/86 
f 169/1/96 153/2/96 173/3/96 172/4/96 
f 192/1/97 169/2/97 172/3/97 171/4/97 
f 190/1/98 189/2/98 150/3/98 191/4/98 
f 126/49/25 102/22/25 78/50/25 164/28/25 
f 30/51/25 5/10/25 1/52/25 4/7/25 
f 10/53/25 45/12/25 69/54/25 4/7/25 
f 30/51/25 4/7/25 69/54/25 93/17/25 
f 54/15/25 30/51/25 93/17/25 117/55/25 
f 78/50/25 54/15/25 117/55/25 164/28/25 
f 164/28/25 117/55/25 141/24/25 182/56/25 
f 192/28/99 171/49/99 130/22/99 191/56/99 
f 82/15/99 58/51/99 34/10/99 29/52/99 
f 26/7/99 53/53/99 77/12/99 29/52/99 
f 29/52/99 77/12/99 101/54/99 82/15/99 
f 106/50/99 82/15/99 101/54/99 125/17/99 
f 125/17/99 149/55/99 190/24/99 191/56/99 
f 106/50/99 125/17/99 191/56/99 130/22/99 
s 1
f 193/1/82 194/2/82 195/3/82 
f 196/57/82 193/58/82 195/59/82 197/11/100 
f 195/59/82 198/60/82 199/61/100 197/11/100 
f 200/62/100 197/11/100 199/61/100 201/63/100 
f 199/61/100 202/64/83 203/13/82 201/63/100 
f 204/65/82 201/63/100 203/13/82 205/66/82 
f 203/13/82 206/67/83 207/68/82 205/66/82 
f 208/69/82 205/66/82 207/68/82 209/70/82 
f 207/68/82 210/71/82 211/72/82 209/70/82 
f 212/28/82 209/70/82 211/72/82 213/73/82 
f 212/28/82 213/73/82 214/74/82 
s off
f 195/1/101 194/2/101 215/3/101 216/4/101 
f 217/1/102 218/2/102 212/3/102 214/4/102 
f 209/1/103 212/2/103 218/3/103 219/4/103 
f 208/1/104 209/2/104 219/3/104 220/4/104 
f 205/1/105 208/2/105 220/3/105 221/4/105 
f 204/1/106 205/2/106 221/3/106 222/4/106 
f 201/1/107 204/2/107 222/3/107 223/4/107 
f 200/1/108 201/2/108 223/3/108 224/4/108 
f 197/1/109 200/2/109 224/3/109 225/4/109 
f 196/1/110 197/2/110 225/3/110 226/4/110 
f 193/1/111 196/2/111 226/3/111 227/4/111 
f 198/1/110 195/2/110 216/3/110 228/4/110 
f 199/1/112 198/2/112 228/3/112 229/4/112 
f 202/1/113 199/2/113 229/3/113 230/4/113 
f 203/1/114 202/2/114 230/3/114 231/4/114 
f 206/1/115 203/2/115 231/3/115 232/4/115 
f 207/1/116 206/2/116 232/3/116 233/4/116 
f 210/1/117 207/2/117 233/3/117 234/4/117 
f 211/1/103 210/2/103 234/3/103 235/4/103 
f 213/1/118 211/2/118 235/3/118 236/4/118 
f 215/1/42 237/2/42 238/3/42 216/4/42 
f 239/1/35 240/2/35 218/3/35 217/4/35 
f 219/1/34 218/2/34 240/3/34 241/4/34 
f 220/1/33 219/2/33 241/3/33 242/4/33 
f 221/1/32 220/2/32 242/3/32 243/4/32 
f 222/1/31 221/2/31 243/3/31 244/4/31 
f 223/1/30 222/2/30 244/3/30 245/4/30 
f 224/1/29 223/2/29 245/3/29 246/4/29 
f 225/1/28 224/2/28 246/3/28 247/4/28 
f 226/1/27 225/2/27 247/3/27 248/4/27 
f 227/1/26 226/2/26 248/3/26 249/4/26 
f 216/1/41 238/2/41 250/3/41 228/4/41 
f 228/1/40 250/2/40 251/3/40 229/4/40 
f 229/1/39 251/2/39 252/3/39 230/4/39 
f 230/1/38 252/2/38 253/3/38 231/4/38 
f 231/1/37 253/2/37 254/3/37 232/4/37 
f 232/1/36 254/2/36 255/3/36 233/4/36 
f 233/1/24 255/2/24 256/3/24 234/4/24 
f 234/1/7 256/2/7 257/3/7 235/4/7 
f 236/1/2 235/2/2 257/3/2 258/4/2 
f 259/1/119 260/2/119 238/3/119 237/4/119 
f 261/1/120 262/2/120 240/3/120 239/4/120 
f 262/1/121 263/2/121 241/3/121 240/4/121 
f 263/1/122 264/2/122 242/3/122 241/4/122 
f 264/1/123 265/2/123 243/3/123 242/4/123 
f 265/1/124 266/2/124 244/3/124 243/4/124 
f 266/1/125 267/2/125 245/3/125 244/4/125 
f 267/1/126 268/2/126 246/3/126 245/4/126 
f 268/1/127 269/2/127 247/3/127 246/4/127 
f 269/1/128 270/2/128 248/3/128 247/4/128 
f 270/1/129 271/2/129 249/3/129 248/4/129 
f 260/1/130 272/2/130 250/3/130 238/4/130 
f 272/1/131 273/2/131 251/3/131 250/4/131 
f 273/1/132 274/2/132 252/3/132 251/4/132 
f 274/1/133 275/2/133 253/3/133 252/4/133 
f 275/1/134 276/2/134 254/3/134 253/4/134 
f 276/1/135 277/2/135 255/3/135 254/4/135 
f 277/1/136 278/2/136 256/3/136 255/4/136 
f 278/1/137 279/2/137 257/3/137 256/4/137 
f 258/1/138 257/2/138 279/3/138 280/4/138 
f 259/1/42 281/2/42 282/3/42 260/4/42 
f 283/1/35 284/2/35 262/3/35 261/4/35 
f 263/1/34 262/2/34 284/3/34 285/4/34 
f 264/1/33 263/2/33 285/3/33 286/4/33 
f 265/1/32 264/2/32 286/3/32 287/4/32 
f 266/1/31 265/2/31 287/3/31 288/4/31 
f 267/1/30 266/2/30 288/3/30 289/4/30 
f 268/1/29 267/2/29 289/3/29 290/4/29 
f 269/1/28 268/2/28 290/3/28 291/4/28 
f 270/1/27 269/2/27 291/3/27 292/4/27 
f 271/1/26 270/2/26 292/3/26 293/4/26 
f 260/1/41 282/2/41 294/3/41 272/4/41 
f 272/1/40 294/2/40 295/3/40 273/4/40 
f 273/1/39 295/2/39 296/3/39 274/4/39 
f 274/1/38 296/2/38 297/3/38 275/4/38 
f 275/1/37 297/2/37 298/3/37 276/4/37 
f 276/1/36 298/2/36 299/3/36 277/4/36 
f 277/1/24 299/2/24 300/3/24 278/4/24 
f 278/1/7 300/2/7 301/3/7 279/4/7 
f 280/1/2 279/2/2 301/3/2 302/4/2 
f 282/1/139 281/2/139 303/3/139 304/4/139 
f 305/1/140 306/2/140 284/3/140 283/4/140 
f 285/1/141 284/2/141 306/3/141 307/4/141 
f 286/1/142 285/2/142 307/3/142 308/4/142 
f 287/1/143 286/2/143 308/3/143 309/4/143 
f 288/1/144 287/2/144 309/3/144 310/4/144 
f 289/1/145 288/2/145 310/3/145 311/4/145 
f 290/1/146 289/2/146 311/3/146 312/4/146 
f 291/1/147 290/2/147 312/3/147 313/4/147 
f 292/1/148 291/2/148 313/3/148 314/4/148 
f 293/1/149 292/2/149 314/3/149 315/4/149 
f 294/1/150 282/2/150 304/3/150 316/4/150 
f 295/1/151 294/2/151 316/3/151 317/4/151 
f 296/1/152 295/2/152 317/3/152 318/4/152 
f 297/1/153 296/2/153 318/3/153 319/4/153 
f 298/1/154 297/2/154 319/3/154 320/4/154 
f 299/1/155 298/2/155 320/3/155 321/4/155 
f 300/1/156 299/2/156 321/3/156 322/4/156 
f 301/1/157 300/2/157 322/3/157 323/4/157 
f 302/1/158 301/2/158 323/3/158 324/4/158 
f 303/1/42 325/2/42 326/3/42 304/4/42 
f 327/1/35 328/2/35 306/3/35 305/4/35 
f 307/1/34 306/2/34 328/3/34 329/4/34 
f 308/1/33 307/2/33 329/3/33 330/4/33 
f 309/1/32 308/2/32 330/3/32 331/4/32 
f 310/1/31 309/2/31 331/3/31 332/4/31 
f 311/1/30 310/2/30 332/3/30 333/4/30 
f 312/1/29 311/2/29 333/3/29 334/4/29 
f 313/1/28 312/2/28 334/3/28 335/4/28 
f 314/1/27 313/2/27 335/3/27 336/4/27 
f 315/1/26 314/2/26 336/3/26 337/4/26 
f 304/1/41 326/2/41 338/3/41 316/4/41 
f 316/1/40 338/2/40 339/3/40 317/4/40 
f 317/1/39 339/2/39 340/3/39 318/4/39 
f 318/1/38 340/2/38 341/3/38 319/4/38 
f 319/1/37 341/2/37 342/3/37 320/4/37 
f 320/1/36 342/2/36 343/3/36 321/4/36 
f 321/1/24 343/2/24 344/3/24 322/4/24 
f 322/1/7 344/2/7 345/3/7 323/4/7 
f 324/1/2 323/2/2 345/3/2 346/4/2 
f 347/1/159 348/2/159 326/3/159 325/4/159 
f 349/1/160 350/2/160 328/3/160 327/4/160 
f 350/1/161 351/2/161 329/3/161 328/4/161 
f 351/1/162 352/2/162 330/3/162 329/4/162 
f 352/1/163 353/2/163 331/3/163 330/4/163 
f 353/1/164 354/2/164 332/3/164 331/4/164 
f 354/1/165 355/2/165 333/3/165 332/4/165 
f 355/1/166 356/2/166 334/3/166 333/4/166 
f 356/1/167 357/2/167 335/3/167 334/4/167 
f 357/1/168 358/2/168 336/3/168 335/4/168 
f 358/1/169 359/2/169 337/3/169 336/4/169 
f 348/1/170 360/2/170 338/3/170 326/4/170 
f 360/1/171 361/2/171 339/3/171 338/4/171 
f 361/1/172 362/2/172 340/3/172 339/4/172 
f 362/1/173 363/2/173 341/3/173 340/4/173 
f 363/1/174 364/2/174 342/3/174 341/4/174 
f 364/1/175 365/2/175 343/3/175 342/4/175 
f 365/1/176 366/2/176 344/3/176 343/4/176 
f 366/1/177 367/2/177 345/3/177 344/4/177 
f 346/1/178 345/2/178 367/3/178 368/4/178 
f 350/28/4 349/29/4 368/30/4 366/33/4 
f 368/30/4 367/32/4 366/33/4 
f 366/33/4 365/35/4 364/36/4 352/31/4 
f 364/36/4 363/38/4 362/39/4 354/34/4 
f 362/39/4 361/41/4 360/42/4 356/37/4 
f 360/42/5 348/7/5 347/43/5 358/40/5 
f 347/43/5 359/44/5 358/40/5 
f 360/42/4 358/40/4 357/45/4 356/37/4 
f 362/39/4 356/37/4 355/46/4 354/34/4 
f 364/36/4 354/34/4 353/47/4 352/31/4 
f 366/33/4 352/31/4 351/48/4 350/28/4 
f 213/49/25 236/22/25 258/50/25 214/28/25 
f 302/51/25 324/10/25 346/52/25 368/7/25 
f 349/53/25 327/12/25 305/54/25 368/7/25 
f 302/51/25 368/7/25 305/54/25 283/17/25 
f 280/15/25 302/51/25 283/17/25 261/55/25 
f 258/50/25 280/15/25 261/55/25 214/28/25 
f 214/28/25 261/55/25 239/24/25 217/56/25 
f 259/28/99 237/49/99 215/22/99 194/50/99 
f 193/15/99 227/51/99 249/10/99 194/50/99 
f 259/28/99 194/50/99 249/10/99 271/52/99 
f 293/7/179 315/53/179 337/12/179 359/54/179 
f 347/17/99 325/55/99 303/24/99 359/54/99 
f 359/54/179 303/24/179 281/56/179 293/7/179 
f 271/52/99 293/7/99 281/56/99 259/28/99 
f 369/75/180 370/76/180 371/77/180 372/78/180 
f 372/75/181 371/76/181 373/77/181 374/78/181 
f 374/75/182 373/76/182 375/77/182 376/78/182 
f 376/75/183 375/76/183 377/77/183 378/78/183 
f 378/75/184 377/76/184 379/77/184 380/78/184 
f 380/75/185 379/76/185 381/77/185 382/78/185 
f 382/75/186 381/76/186 383/77/186 384/78/186 
f 384/75/187 383/76/187 385/77/187 386/78/187 
f 386/75/188 385/76/188 387/77/188 388/78/188 
f 388/75/189 387/76/189 389/77/189 390/78/189 
f 391/75/190 392/76/190 393/77/190 394/78/190 
f 392/75/191 395/76/191 396/77/191 393/78/191 
f 395/75/192 397/76/192 398/77/192 396/78/192 
f 397/75/193 399/76/193 400/77/193 398/78/193 
f 399/75/194 401/76/194 402/77/194 400/78/194 
f 401/75/195 403/76/195 404/77/195 402/78/195 
f 403/75/196 405/76/196 406/77/196 404/78/196 
f 405/75/197 407/76/197 408/77/197 406/78/197 
f 407/75/198 409/76/198 410/77/198 408/78/198 
f 409/75/199 411/76/199 412/77/199 410/78/199 
f 410/79/5 412/80/5 389/81/5 408/82/5 
f 389/81/5 387/83/5 385/84/5 381/85/5 
f 385/84/4 383/86/4 381/85/4 
f 381/85/4 379/87/4 377/88/4 373/89/4 
f 377/88/5 375/90/5 373/89/5 
f 389/81/5 381/85/5 373/89/5 402/91/5 
f 373/89/4 371/92/4 370/93/4 393/94/4 
f 370/93/5 394/95/5 393/94/5 
f 373/89/5 393/94/5 396/96/5 398/97/5 
f 373/89/5 398/97/5 400/98/5 402/91/5 
f 389/81/4 402/91/4 404/99/4 406/100/4 
f 389/81/5 406/100/5 408/82/5 
f 369/75/200 391/76/200 394/77/200 370/78/200 
f 372/79/83 374/80/83 376/81/83 380/84/83 
f 376/81/83 378/83/83 380/84/83 
f 380/84/82 382/86/82 384/85/82 388/88/82 
f 384/85/82 386/87/82 388/88/82 
f 372/79/82 380/84/82 388/88/82 405/95/82 
f 388/88/83 390/90/83 411/89/83 409/92/83 
f 388/88/83 409/92/83 407/93/83 405/95/83 
f 372/79/83 405/95/83 403/94/83 401/96/83 
f 372/79/82 401/96/82 399/97/82 397/98/82 
f 372/79/83 397/98/83 395/91/83 392/99/83 
f 372/79/82 392/99/82 391/100/82 369/82/82 
f 412/75/201 411/76/201 390/77/201 389/78/201 
f 413/101/202 414/102/202 415/103/202 416/104/202 
f 414/101/203 417/102/203 418/103/203 415/104/203 
f 417/101/204 419/102/204 420/103/204 418/104/204 
f 419/101/205 413/102/205 416/103/205 420/104/205 
f 416/101/82 415/102/82 418/103/82 420/104/82 
f 419/101/5 417/102/5 414/103/5 413/104/5 
f 421/101/206 422/102/206 423/103/206 424/104/206 
f 422/101/207 425/102/207 426/103/207 423/104/207 
f 425/101/208 427/102/208 428/103/208 426/104/208 
f 427/101/209 421/102/209 424/103/209 428/104/209 
f 424/101/83 423/102/83 426/103/83 428/104/83 
f 427/101/5 425/102/5 422/103/5 421/104/5 
f 429/101/210 430/102/210 431/103/210 432/104/210 
f 430/101/211 433/102/211 434/103/211 431/104/211 
f 433/101/212 435/102/212 436/103/212 434/104/212 
f 435/101/213 429/102/213 432/103/213 436/104/213 
f 432/101/83 431/102/83 434/103/83 436/104/83 
f 435/101/5 433/102/5 430/103/5 429/104/5 
f 437/101/214 438/102/214 439/103/214 440/104/214 
f 438/101/215 441/102/215 442/103/215 439/104/215 
f 441/101/216 443/102/216 444/103/216 442/104/216 
f 443/101/217 437/102/217 440/103/217 444/104/217 
f 440/101/82 439/102/82 442/103/82 444/104/82 
f 443/101/4 441/102/4 438/103/4 437/104/4 
f 445/101/218 446/102/218 447/103/218 448/104/218 
f 446/101/219 449/102/219 450/103/219 447/104/219 
f 449/101/220 451/102/220 452/103/220 450/104/220 
f 451/101/221 445/102/221 448/103/221 452/104/221 
f 448/101/82 447/102/82 450/103/82 452/104/82 
f 451/101/4 449/102/4 446/103/4 445/104/4 
f 453/101/222 454/102/222 455/103/222 456/104/222 
f 454/101/223 457/102/223 458/103/223 455/104/223 
f 457/101/224 459/102/224 460/103/224 458/104/224 
f 459/101/225 453/102/225 456/103/225 460/104/225 
f 456/101/82 455/102/82 458/103/82 460/104/82 
f 459/101/4 457/102/4 454/103/4 453/104/4 
f 461/101/226 462/102/226 463/103/226 464/104/226 
f 462/101/227 465/102/227 466/103/227 463/104/227 
f 465/101/228 467/102/228 468/103/228 466/104/228 
f 467/101/229 461/102/229 464/103/229 468/104/229 
f 464/101/83 463/102/83 466/103/83 468/104/83 
f 467/101/5 465/102/5 462/103/5 461/104/5 
f 469/101/230 470/102/230 471/103/230 472/104/230 
f 470/101/231 473/102/231 474/103/231 471/104/231 
f 473/101/232 475/102/232 476/103/232 474/104/232 
f 475/101/233 469/102/233 472/103/233 476/104/233 
f 472/101/83 471/102/83 474/103/83 476/104/83 
f 475/101/4 473/102/4 470/103/4 469/104/4 
f 477/101/234 478/102/234 479/103/234 480/104/234 
f 478/101/235 481/102/235 482/103/235 479/104/235 
f 481/101/236 483/102/236 484/103/236 482/104/236 
f 483/101/237 477/102/237 480/103/237 484/104/237 
f 480/101/83 479/102/83 482/103/83 484/104/83 
f 483/101/5 481/102/5 478/103/5 477/104/5 
f 485/101/238 486/102/238 487/103/238 488/104/238 
f 486/101/239 489/102/239 490/103/239 487/104/239 
f 489/101/240 491/102/240 492/103/240 490/104/240 
f 491/101/241 485/102/241 488/103/241 492/104/241 
f 488/101/83 487/102/83 490/103/83 492/104/83 
f 491/101/4 489/102/4 486/103/4 485/104/4 
f 493/101/242 494/102/242 495/103/242 496/104/242 
f 494/101/243 497/102/243 498/103/243 495/104/243 
f 497/101/244 499/102/244 500/103/244 498/104/244 
f 499/101/245 493/102/245 496/103/245 500/104/245 
f 496/101/83 495/102/83 498/103/83 500/104/83 
f 499/101/5 497/102/5 494/103/5 493/104/5 
f 501/101/246 502/102/246 503/103/246 504/104/246 
f 502/101/247 505/102/247 506/103/247 503/104/247 
f 505/101/248 507/102/248 508/103/248 506/104/248 
f 507/101/249 501/102/249 504/103/249 508/104/249 
f 504/101/83 503/102/83 506/103/83 508/104/83 
f 507/101/4 505/102/4 502/103/4 501/104/4 
f 509/101/250 510/102/250 511/103/250 512/104/250 
f 510/101/251 513/102/251 514/103/251 511/104/251 
f 513/101/252 515/102/252 516/103/252 514/104/252 
f 515/101/253 509/102/253 512/103/253 516/104/253 
f 512/101/82 511/102/82 514/103/82 516/104/82 
f 515/101/4 513/102/4 510/103/4 509/104/4 
f 517/101/254 518/102/254 519/103/254 520/104/254 
f 518/101/255 521/102/255 522/103/255 519/104/255 
f 521/101/256 523/102/256 524/103/256 522/104/256 
f 523/101/257 517/102/257 520/103/257 524/104/257 
f 520/101/83 519/102/83 522/103/83 524/104/83 
f 523/101/4 521/102/4 518/103/4 517/104/4 
f 525/101/258 526/102/258 527/103/258 528/104/258 
f 526/101/259 529/102/259 530/103/259 527/104/259 
f 529/101/260 531/102/260 532/103/260 530/104/260 
f 531/101/261 525/102/261 528/103/261 532/104/261 
f 528/101/83 527/102/83 530/103/83 532/104/83 
f 531/101/4 529/102/4 526/103/4 525/104/4 
# 489 polygons - 14 triangles

