# 3ds Max Wavefront OBJ Exporter v0.97b - (c)2007 guruware
# File Created: 15.03.2017 11:01:10

mtllib SPW_Urban_Props_Container.mtl

#
# object SPW_Urban_Props_Container
#

v  -175.5906 129.9213 -76.7716
v  175.5906 129.9213 -76.7717
v  175.5906 0.0000 -76.7717
v  -175.5906 0.0000 -76.7716
v  175.5906 129.9212 76.7717
v  175.5906 -0.0000 76.7716
v  -175.5906 129.9212 76.7717
v  -175.5906 -0.0000 76.7717
# 8 vertices

vn -0.0000 0.0000 -1.0000
vn 1.0000 0.0000 -0.0000
vn 0.0000 -0.0000 1.0000
vn -1.0000 0.0000 -0.0000
vn 0.0000 -1.0000 -0.0000
vn -0.0000 1.0000 0.0000
# 6 vertex normals

vt 0.1584 0.9717 0.0000
vt 0.8396 0.9717 0.0000
vt 0.8396 0.7122 0.0000
vt 0.1584 0.7122 0.0000
vt 0.6622 0.2890 0.0000
vt 0.3378 0.2890 0.0000
vt 0.3378 0.0295 0.0000
vt 0.6622 0.0295 0.0000
vt 0.1594 0.6654 0.0000
vt 0.8406 0.6654 0.0000
vt 0.8406 0.3410 0.0000
vt 0.1594 0.3410 0.0000
# 12 texture coords

g SPW_Urban_Props_Container
usemtl SPW_Urban_Props_Container
s off
f 1/1/1 2/2/1 3/3/1 4/4/1 
f 2/5/2 5/6/2 6/7/2 3/8/2 
f 5/2/3 7/1/3 8/4/3 6/3/3 
f 7/6/4 1/5/4 4/8/4 8/7/4 
f 4/9/5 3/10/5 6/11/5 8/12/5 
f 7/12/6 5/11/6 2/10/6 1/9/6 
# 6 polygons

