# 3ds Max Wavefront OBJ Exporter v0.97b - (c)2007 guruware
# File Created: 15.03.2017 10:53:12

mtllib SPB_Prop_Umbrella.mtl

#
# object SPB_Prop_Umbrella
#

v  -2.0921 91.6377 2.0922
v  -2.0921 91.6377 -2.0921
v  -2.0921 -0.0109 -2.0921
v  -2.0921 -0.0109 2.0921
v  2.0921 91.6377 -2.0921
v  2.0921 -0.0109 -2.0921
v  2.0921 91.6377 2.0922
v  2.0921 -0.0109 2.0921
v  0.0000 91.4792 -45.7975
v  0.0000 107.5270 -9.3408
v  5.4904 107.5270 -7.5569
v  26.9191 91.4792 -37.0509
v  8.8837 107.5270 -2.8865
v  43.5560 91.4792 -14.1522
v  8.8837 107.5270 2.8865
v  43.5560 91.4792 14.1522
v  5.4904 107.5270 7.5569
v  26.9191 91.4792 37.0509
v  0.0000 107.5270 9.3408
v  -0.0000 91.4792 45.7975
v  -5.4904 107.5270 7.5569
v  -26.9191 91.4792 37.0509
v  -8.8836 107.5270 2.8865
v  -43.5560 91.4792 14.1522
v  -8.8836 107.5270 -2.8865
v  -43.5560 91.4792 -14.1522
v  -5.4904 107.5270 -7.5569
v  -26.9191 91.4792 -37.0509
v  0.0000 86.2713 -51.8887
v  -30.4994 86.2713 -41.9789
v  -0.0000 73.8128 -54.9182
v  -32.2801 73.8128 -44.4298
v  -49.3491 86.2712 -16.0345
v  -49.3491 86.2712 16.0345
v  -30.4995 86.2712 41.9789
v  -0.0000 86.2712 51.8888
v  30.4994 86.2712 41.9789
v  49.3491 86.2712 16.0345
v  49.3491 86.2712 -16.0345
v  30.4994 86.2713 -41.9789
v  32.2801 73.8128 -44.4298
v  52.2303 73.8128 -16.9707
v  52.2303 73.8128 16.9707
v  32.2801 73.8128 44.4298
v  -0.0000 73.8128 54.9182
v  -32.2801 73.8128 44.4298
v  -52.2303 73.8128 16.9707
v  -52.2303 73.8128 -16.9707
# 48 vertices

vn -1.0000 0.0000 -0.0000
vn 0.0000 0.0000 -1.0000
vn 1.0000 0.0000 -0.0000
vn 0.0000 -0.0000 1.0000
vn 0.0000 -1.0000 -0.0000
vn 0.0000 1.0000 0.0000
vn 0.1298 0.9075 -0.3995
vn 0.3398 0.9075 -0.2469
vn 0.4200 0.9075 0.0000
vn 0.3398 0.9075 0.2469
vn 0.1298 0.9075 0.3995
vn -0.1298 0.9075 0.3995
vn -0.3398 0.9075 0.2469
vn -0.4200 0.9075 0.0000
vn -0.1298 0.9075 -0.3995
vn -0.3398 0.9075 -0.2469
vn -0.2066 0.7437 -0.6358
vn -0.3011 0.2253 -0.9266
vn -0.5409 0.7437 -0.3930
vn -0.6685 0.7437 0.0000
vn -0.5409 0.7437 0.3930
vn -0.2066 0.7437 0.6358
vn 0.2066 0.7437 0.6358
vn 0.5409 0.7437 0.3930
vn 0.6685 0.7437 0.0000
vn 0.5409 0.7437 -0.3930
vn 0.2066 0.7437 -0.6358
vn -0.0000 -1.0000 -0.0000
vn -0.7882 0.2253 -0.5727
vn -0.9743 0.2253 0.0000
vn -0.7882 0.2253 0.5727
vn -0.3011 0.2253 0.9266
vn 0.3011 0.2253 0.9266
vn 0.7882 0.2253 0.5727
vn 0.9743 0.2253 0.0000
vn 0.7882 0.2253 -0.5727
vn 0.3011 0.2253 -0.9266
# 37 vertex normals

vt 0.4485 0.0561 0.0000
vt 0.4610 0.0561 0.0000
vt 0.4610 0.0686 0.0000
vt 0.4485 0.0686 0.0000
vt 0.4702 0.0448 0.0000
vt 0.4847 0.0448 0.0000
vt 0.4847 0.0593 0.0000
vt 0.4702 0.0593 0.0000
vt 0.5968 0.0348 0.0000
vt 0.6132 0.0348 0.0000
vt 0.6132 0.0513 0.0000
vt 0.5968 0.0513 0.0000
vt 0.5796 0.0591 0.0000
vt 0.5845 0.0575 0.0000
vt 0.5874 0.0534 0.0000
vt 0.5874 0.0483 0.0000
vt 0.5845 0.0442 0.0000
vt 0.5796 0.0427 0.0000
vt 0.5748 0.0442 0.0000
vt 0.5718 0.0483 0.0000
vt 0.5718 0.0534 0.0000
vt 0.5748 0.0575 0.0000
vt 0.6050 0.0513 0.0000
vt 0.6099 0.0497 0.0000
vt 0.6128 0.0456 0.0000
vt 0.6128 0.0405 0.0000
vt 0.6099 0.0364 0.0000
vt 0.6050 0.0348 0.0000
vt 0.6002 0.0364 0.0000
vt 0.5972 0.0405 0.0000
vt 0.5972 0.0456 0.0000
vt 0.6002 0.0497 0.0000
# 32 texture coords

g SPB_Prop_Umbrella
usemtl SPB_Props
s off
f 1/1/1 2/2/1 3/3/1 4/4/1 
f 2/1/2 5/2/2 6/3/2 3/4/2 
f 5/1/3 7/2/3 8/3/3 6/4/3 
f 7/1/4 1/2/4 4/3/4 8/4/4 
f 4/1/5 3/2/5 6/3/5 8/4/5 
f 7/1/6 5/2/6 2/3/6 1/4/6 
f 9/5/7 10/6/7 11/7/7 12/8/7 
f 12/9/8 11/10/8 13/11/8 14/12/8 
f 14/5/9 13/6/9 15/7/9 16/8/9 
f 16/9/10 15/10/10 17/11/10 18/12/10 
f 18/5/11 17/6/11 19/7/11 20/8/11 
f 20/9/12 19/10/12 21/11/12 22/12/12 
f 22/5/13 21/6/13 23/7/13 24/8/13 
f 24/9/14 23/10/14 25/11/14 26/12/14 
f 11/13/6 10/14/6 27/15/6 25/16/6 
f 11/13/6 25/16/6 23/17/6 21/18/6 
f 11/13/6 21/18/6 19/19/6 17/20/6 
f 11/13/6 17/20/6 15/21/6 13/22/6 
f 28/9/15 27/10/15 10/11/15 9/12/15 
f 26/5/16 25/6/16 27/7/16 28/8/16 
f 28/9/17 9/10/17 29/11/17 30/12/17 
f 30/9/18 29/10/18 31/11/18 32/12/18 
f 26/5/19 28/6/19 30/7/19 33/8/19 
f 24/9/20 26/10/20 33/11/20 34/12/20 
f 22/5/21 24/6/21 34/7/21 35/8/21 
f 20/9/22 22/10/22 35/11/22 36/12/22 
f 18/5/23 20/6/23 36/7/23 37/8/23 
f 16/9/24 18/10/24 37/11/24 38/12/24 
f 14/5/25 16/6/25 38/7/25 39/8/25 
f 12/9/26 14/10/26 39/11/26 40/12/26 
f 9/5/27 12/6/27 40/7/27 29/8/27 
f 31/23/5 41/24/5 42/25/5 43/26/5 
f 31/23/28 43/26/28 44/27/28 45/28/28 
f 31/23/5 45/28/5 46/29/5 47/30/5 
f 31/23/28 47/30/28 48/31/28 32/32/28 
f 33/5/29 30/6/29 32/7/29 48/8/29 
f 34/9/30 33/10/30 48/11/30 47/12/30 
f 35/5/31 34/6/31 47/7/31 46/8/31 
f 36/9/32 35/10/32 46/11/32 45/12/32 
f 37/5/33 36/6/33 45/7/33 44/8/33 
f 38/9/34 37/10/34 44/11/34 43/12/34 
f 39/5/35 38/6/35 43/7/35 42/8/35 
f 40/9/36 39/10/36 42/11/36 41/12/36 
f 29/5/37 40/6/37 41/7/37 31/8/37 
# 44 polygons

