# 3ds Max Wavefront OBJ Exporter v0.97b - (c)2007 guruware
# File Created: 15.03.2017 10:52:29

mtllib SPB_Prop_Roof.mtl

#
# object SPB_Prop_Roof
#

v  -43.1117 15.7480 21.1254
v  -43.1117 15.7480 -21.1254
v  -43.1117 0.0000 -21.1254
v  -43.1117 -0.0000 21.1254
v  43.1117 15.7480 -21.1254
v  43.1117 0.0000 -21.1254
v  43.1117 15.7480 21.1254
v  43.1117 -0.0000 21.1254
# 8 vertices

vn -1.0000 0.0000 -0.0000
vn 0.0000 0.0000 -1.0000
vn 1.0000 0.0000 -0.0000
vn 0.0000 -0.0000 1.0000
vn 0.0000 -1.0000 -0.0000
vn 0.0000 1.0000 0.0000
# 6 vertex normals

vt 0.6677 0.4625 0.0000
vt 0.7220 0.4625 0.0000
vt 0.6937 0.4861 0.0000
vt 0.6911 0.4889 0.0000
vt 0.7238 0.5205 0.0000
vt 0.6976 0.4899 0.0000
vt 0.6661 0.5154 0.0000
vt 0.6937 0.4923 0.0000
vt 0.9085 0.6108 0.0000
vt 0.9085 0.7871 0.0000
vt 0.5487 0.7871 0.0000
vt 0.5487 0.6108 0.0000
# 12 texture coords

g SPB_Prop_Roof
usemtl SPB_Props
s off
f 1/1/1 2/2/1 3/3/1 4/4/1 
f 2/2/2 5/5/2 6/6/2 3/3/2 
f 5/5/3 7/7/3 8/8/3 6/6/3 
f 7/7/4 1/1/4 4/4/4 8/8/4 
f 4/4/5 3/3/5 6/6/5 8/8/5 
f 7/9/6 5/10/6 2/11/6 1/12/6 
# 6 polygons

