# 3ds Max Wavefront OBJ Exporter v0.97b - (c)2007 guruware
# File Created: 15.03.2017 10:47:26

mtllib SPB_Building02.mtl

#
# object SPB_Building02
#

v  -309.1893 261.1929 23.8114
v  -300.9260 261.1929 23.8114
v  -300.9260 210.6418 23.8114
v  -309.1893 210.6418 23.8114
v  -300.9260 261.1929 108.0634
v  -300.9260 210.6417 108.0634
v  -309.1893 261.1929 108.0634
v  -309.1893 210.6417 108.0634
v  -309.1893 215.8462 102.4376
v  -309.1893 215.8462 29.4371
v  -307.4546 215.8462 102.4376
v  -307.4546 215.8462 29.4371
v  -309.1893 255.9885 29.4371
v  -309.1893 255.9884 102.4376
v  -307.4546 255.9885 29.4371
v  -307.4546 255.9884 102.4376
v  -309.1893 544.2938 23.8114
v  -300.9260 544.2938 23.8114
v  -300.9260 493.7426 23.8114
v  -309.1893 493.7426 23.8114
v  -300.9261 544.2938 108.0634
v  -300.9261 493.7426 108.0634
v  -309.1893 544.2938 108.0634
v  -309.1893 493.7426 108.0634
v  -309.1893 498.9471 102.4377
v  -309.1893 498.9471 29.4371
v  -307.4546 498.9471 102.4377
v  -307.4546 498.9471 29.4371
v  -309.1893 539.0894 29.4371
v  -309.1893 539.0894 102.4377
v  -307.4546 539.0894 29.4371
v  -307.4546 539.0894 102.4377
v  -309.1893 450.7482 23.8114
v  -300.9260 450.7482 23.8114
v  -300.9260 400.1970 23.8114
v  -309.1893 400.1970 23.8114
v  -300.9261 450.7481 108.0634
v  -300.9261 400.1969 108.0634
v  -309.1893 450.7481 108.0634
v  -309.1893 400.1969 108.0634
v  -309.1893 405.4014 102.4377
v  -309.1893 405.4015 29.4371
v  -307.4546 405.4014 102.4377
v  -307.4546 405.4015 29.4371
v  -309.1893 445.5437 29.4371
v  -309.1893 445.5437 102.4377
v  -307.4546 445.5437 29.4371
v  -307.4546 445.5437 102.4377
v  -309.1893 356.1639 23.8114
v  -300.9260 356.1639 23.8114
v  -300.9260 305.6127 23.8114
v  -309.1893 305.6127 23.8114
v  -300.9261 356.1639 108.0634
v  -300.9261 305.6127 108.0634
v  -309.1893 356.1639 108.0634
v  -309.1893 305.6127 108.0634
v  -309.1893 310.8171 102.4377
v  -309.1893 310.8172 29.4371
v  -307.4546 310.8171 102.4377
v  -307.4546 310.8172 29.4371
v  -309.1893 350.9594 29.4371
v  -309.1893 350.9594 102.4376
v  -307.4546 350.9594 29.4371
v  -307.4546 350.9594 102.4376
v  296.9014 261.1929 108.0634
v  288.6382 261.1929 108.0634
v  288.6382 210.6417 108.0634
v  296.9014 210.6417 108.0634
v  288.6382 261.1929 23.8114
v  288.6382 210.6418 23.8114
v  296.9015 261.1929 23.8114
v  296.9015 210.6418 23.8114
v  296.9015 215.8462 29.4371
v  296.9014 215.8462 102.4376
v  295.1667 215.8462 29.4371
v  295.1667 215.8462 102.4376
v  296.9014 255.9884 102.4376
v  296.9015 255.9885 29.4371
v  295.1667 255.9884 102.4376
v  295.1667 255.9885 29.4371
v  296.9015 544.2938 108.0634
v  288.6382 544.2938 108.0634
v  288.6382 493.7426 108.0634
v  296.9015 493.7426 108.0634
v  288.6382 544.2938 23.8114
v  288.6382 493.7426 23.8114
v  296.9015 544.2938 23.8114
v  296.9015 493.7426 23.8114
v  296.9015 498.9471 29.4371
v  296.9015 498.9471 102.4377
v  295.1667 498.9471 29.4371
v  295.1667 498.9471 102.4377
v  296.9015 539.0894 102.4377
v  296.9015 539.0894 29.4371
v  295.1667 539.0894 102.4377
v  295.1667 539.0894 29.4371
v  296.9015 450.7481 108.0634
v  288.6382 450.7481 108.0634
v  288.6382 400.1969 108.0634
v  296.9015 400.1969 108.0634
v  288.6382 450.7482 23.8114
v  288.6382 400.1970 23.8114
v  296.9015 450.7482 23.8114
v  296.9015 400.1970 23.8114
v  296.9015 405.4015 29.4371
v  296.9015 405.4014 102.4377
v  295.1667 405.4015 29.4371
v  295.1667 405.4014 102.4377
v  296.9015 445.5437 102.4377
v  296.9015 445.5437 29.4371
v  295.1667 445.5437 102.4377
v  295.1667 445.5437 29.4371
v  296.9015 356.1639 108.0634
v  288.6382 356.1639 108.0634
v  288.6382 305.6127 108.0634
v  296.9015 305.6127 108.0634
v  288.6382 356.1639 23.8114
v  288.6382 305.6127 23.8114
v  296.9015 356.1639 23.8114
v  296.9015 305.6127 23.8114
v  296.9015 310.8172 29.4371
v  296.9015 310.8171 102.4377
v  295.1667 310.8172 29.4371
v  295.1667 310.8171 102.4377
v  296.9015 350.9594 102.4376
v  296.9015 350.9594 29.4371
v  295.1667 350.9594 102.4376
v  295.1667 350.9594 29.4371
v  -255.2724 261.1929 167.2637
v  -255.2724 261.1929 159.0005
v  -255.2724 210.6417 159.0004
v  -255.2724 210.6417 167.2637
v  -144.4926 261.1929 159.0005
v  -144.4926 210.6417 159.0004
v  -144.4926 261.1929 167.2637
v  -144.4926 210.6417 167.2637
v  -150.1183 215.8462 167.2637
v  -249.6468 215.8462 167.2637
v  -150.1183 215.8462 165.5290
v  -249.6468 215.8462 165.5290
v  -249.6468 255.9884 167.2637
v  -150.1183 255.9884 167.2637
v  -150.1183 255.9884 165.5290
v  -249.6468 255.9884 165.5290
v  -255.2725 356.1640 167.2637
v  -255.2725 356.1640 159.0004
v  -255.2725 305.6128 159.0004
v  -255.2725 305.6128 167.2637
v  -144.4926 356.1640 159.0004
v  -144.4926 305.6128 159.0004
v  -144.4926 356.1640 167.2637
v  -144.4926 305.6128 167.2637
v  -150.1184 310.8172 167.2637
v  -249.6468 310.8173 167.2637
v  -150.1184 310.8172 165.5290
v  -249.6468 310.8173 165.5290
v  -249.6468 350.9595 167.2637
v  -150.1184 350.9595 167.2637
v  -150.1184 350.9595 165.5290
v  -249.6468 350.9595 165.5290
v  -255.2725 545.6520 167.2637
v  -255.2725 545.6520 159.0005
v  -255.2725 495.1008 159.0005
v  -255.2725 495.1008 167.2637
v  -144.4926 545.6520 159.0005
v  -144.4926 495.1008 159.0005
v  -144.4926 545.6520 167.2637
v  -144.4926 495.1008 167.2637
v  -150.1184 500.3053 167.2637
v  -249.6468 500.3053 167.2637
v  -150.1184 500.3053 165.5290
v  -249.6468 500.3053 165.5290
v  -249.6468 540.4476 167.2637
v  -150.1184 540.4476 167.2637
v  -150.1184 540.4476 165.5290
v  -249.6468 540.4476 165.5290
v  -255.2725 451.1353 167.2637
v  -255.2725 451.1353 159.0005
v  -255.2725 400.5841 159.0004
v  -255.2725 400.5841 167.2637
v  -144.4926 451.1353 159.0005
v  -144.4926 400.5841 159.0004
v  -144.4926 451.1353 167.2637
v  -144.4926 400.5841 167.2637
v  -150.1184 405.7885 167.2637
v  -249.6468 405.7886 167.2637
v  -150.1184 405.7885 165.5290
v  -249.6468 405.7886 165.5290
v  -249.6468 445.9308 167.2637
v  -150.1184 445.9308 167.2637
v  -150.1184 445.9308 165.5290
v  -249.6468 445.9308 165.5290
v  -48.2698 261.1929 231.9303
v  -48.2698 261.1929 223.6671
v  -48.2698 210.6417 223.6671
v  -48.2698 210.6418 231.9303
v  35.9821 261.1929 223.6671
v  35.9821 210.6417 223.6671
v  35.9821 261.1929 231.9303
v  35.9821 210.6418 231.9303
v  30.3564 215.8462 231.9303
v  -42.6441 215.8462 231.9303
v  30.3564 215.8462 230.1956
v  -42.6441 215.8462 230.1956
v  -42.6441 255.9885 231.9303
v  30.3564 255.9885 231.9303
v  30.3564 255.9885 230.1956
v  -42.6441 255.9885 230.1956
v  -48.2698 544.2937 231.9304
v  -48.2698 544.2937 223.6671
v  -48.2698 493.7426 223.6671
v  -48.2698 493.7426 231.9304
v  35.9821 544.2937 223.6671
v  35.9821 493.7426 223.6671
v  35.9821 544.2937 231.9304
v  35.9821 493.7426 231.9304
v  30.3564 498.9471 231.9304
v  -42.6441 498.9471 231.9304
v  30.3564 498.9471 230.1957
v  -42.6441 498.9471 230.1957
v  -42.6441 539.0893 231.9304
v  30.3564 539.0893 231.9304
v  30.3564 539.0893 230.1957
v  -42.6441 539.0893 230.1957
v  -48.2698 450.7481 231.9304
v  -48.2698 450.7481 223.6671
v  -48.2698 400.1969 223.6671
v  -48.2698 400.1969 231.9304
v  35.9821 450.7481 223.6671
v  35.9821 400.1969 223.6671
v  35.9821 450.7481 231.9304
v  35.9821 400.1969 231.9304
v  30.3564 405.4014 231.9304
v  -42.6441 405.4014 231.9304
v  30.3564 405.4014 230.1956
v  -42.6441 405.4014 230.1956
v  -42.6441 445.5437 231.9304
v  30.3564 445.5437 231.9304
v  30.3564 445.5437 230.1957
v  -42.6441 445.5437 230.1957
v  -48.2698 356.1639 231.9304
v  -48.2698 356.1639 223.6671
v  -48.2698 305.6127 223.6671
v  -48.2698 305.6127 231.9303
v  35.9821 356.1639 223.6671
v  35.9821 305.6127 223.6671
v  35.9821 356.1639 231.9304
v  35.9821 305.6127 231.9303
v  30.3564 310.8172 231.9303
v  -42.6441 310.8172 231.9303
v  30.3564 310.8172 230.1956
v  -42.6441 310.8172 230.1956
v  -42.6441 350.9594 231.9304
v  30.3564 350.9594 231.9304
v  30.3564 350.9594 230.1956
v  -42.6441 350.9594 230.1956
v  132.2048 261.1929 167.2637
v  132.2048 261.1929 159.0005
v  132.2048 210.6417 159.0004
v  132.2048 210.6417 167.2637
v  242.9846 261.1929 159.0005
v  242.9846 210.6417 159.0004
v  242.9846 261.1929 167.2637
v  242.9846 210.6417 167.2637
v  237.3589 215.8462 167.2637
v  137.8305 215.8462 167.2637
v  237.3589 215.8462 165.5290
v  137.8305 215.8462 165.5290
v  137.8305 255.9884 167.2637
v  237.3589 255.9884 167.2637
v  237.3589 255.9884 165.5290
v  137.8305 255.9884 165.5290
v  132.2048 356.1640 167.2637
v  132.2048 356.1640 159.0004
v  132.2048 305.6128 159.0004
v  132.2048 305.6128 167.2637
v  242.9846 356.1640 159.0004
v  242.9846 305.6128 159.0004
v  242.9846 356.1640 167.2637
v  242.9846 305.6128 167.2637
v  237.3589 310.8172 167.2637
v  137.8305 310.8173 167.2637
v  237.3589 310.8172 165.5290
v  137.8305 310.8173 165.5290
v  137.8305 350.9595 167.2637
v  237.3589 350.9595 167.2637
v  237.3589 350.9595 165.5290
v  137.8305 350.9595 165.5290
v  132.2048 545.6520 167.2637
v  132.2048 545.6520 159.0005
v  132.2048 495.1008 159.0005
v  132.2048 495.1008 167.2637
v  242.9846 545.6520 159.0005
v  242.9846 495.1008 159.0005
v  242.9846 545.6520 167.2637
v  242.9846 495.1008 167.2637
v  237.3589 500.3053 167.2637
v  137.8305 500.3053 167.2637
v  237.3589 500.3053 165.5290
v  137.8305 500.3053 165.5290
v  137.8305 540.4476 167.2637
v  237.3589 540.4476 167.2637
v  237.3589 540.4476 165.5290
v  137.8305 540.4476 165.5290
v  132.2048 451.1353 167.2637
v  132.2048 451.1353 159.0005
v  132.2048 400.5841 159.0004
v  132.2048 400.5841 167.2637
v  242.9846 451.1353 159.0005
v  242.9846 400.5841 159.0004
v  242.9846 451.1353 167.2637
v  242.9846 400.5841 167.2637
v  237.3589 405.7885 167.2637
v  137.8305 405.7886 167.2637
v  237.3589 405.7885 165.5290
v  137.8305 405.7886 165.5290
v  137.8305 445.9308 167.2637
v  237.3589 445.9308 167.2637
v  237.3589 445.9308 165.5290
v  137.8305 445.9308 165.5290
v  138.3911 635.2559 -65.2635
v  138.3911 635.2559 -73.5268
v  138.3911 567.5188 -73.5268
v  138.3911 567.5188 -65.2635
v  192.5199 635.2559 -73.5268
v  192.5199 567.5188 -73.5268
v  192.5199 635.2559 -65.2635
v  192.5199 567.5188 -65.2635
v  186.8941 572.7233 -65.2635
v  144.0169 572.7233 -65.2635
v  186.8941 572.7233 -66.9983
v  144.0169 572.7233 -66.9983
v  144.0169 630.0514 -65.2635
v  186.8941 630.0514 -65.2635
v  186.8941 630.0514 -66.9983
v  144.0169 630.0514 -66.9983
v  86.6543 656.0158 -68.3176
v  86.6543 656.0158 -175.0687
v  86.6543 574.1196 -175.0687
v  86.6543 574.1196 -68.3176
v  242.5351 656.0158 -175.0687
v  242.5351 574.1196 -175.0687
v  242.5351 656.0158 -68.3176
v  242.5351 574.1196 -68.3176
v  244.8960 656.0158 -66.0999
v  84.2934 656.0158 -66.0999
v  244.8960 664.5953 -66.0999
v  84.2934 664.5953 -66.0999
v  244.8960 656.0158 -177.2863
v  84.2934 656.0158 -177.2863
v  237.2818 664.5953 -73.0793
v  91.9075 664.5953 -73.0793
v  244.8960 664.5953 -177.2863
v  84.2934 664.5953 -177.2863
v  237.2818 659.7529 -73.0793
v  91.9075 659.7529 -73.0793
v  237.2818 664.5953 -170.3070
v  91.9075 664.5953 -170.3070
v  237.2818 659.7529 -170.3070
v  91.9075 659.7529 -170.3070
v  -93.1998 185.9572 274.0215
v  -93.1998 185.9572 189.7695
v  -93.1998 173.3194 189.7695
v  -93.1998 173.3194 274.0215
v  80.9121 185.9572 189.7695
v  80.9121 173.3194 189.7695
v  80.9121 185.9572 274.0215
v  80.9121 173.3194 274.0215
v  -60.9076 151.6536 231.7489
v  -60.9076 151.6536 147.4970
v  -60.9076 0.0000 147.4969
v  -60.9076 -0.0000 231.7489
v  48.6199 151.6536 147.4970
v  48.6199 0.0000 147.4969
v  48.6199 151.6536 231.7489
v  48.6199 -0.0000 231.7489
v  43.8317 4.8844 231.7489
v  -56.1194 4.8844 231.7489
v  43.8317 4.8844 230.6277
v  -56.1194 4.8844 230.6277
v  -56.1194 146.7691 231.7489
v  43.8317 146.7691 231.7489
v  43.8317 146.7691 230.6277
v  -56.1194 146.7691 230.6277
v  -274.7624 520.6741 213.4715
v  -274.7624 520.6742 163.3980
v  -274.7624 470.6006 163.3979
v  -274.7624 470.6006 213.4715
v  -124.5418 520.6741 213.4715
v  -124.5418 470.6006 213.4715
v  -124.5418 520.6741 163.3979
v  -132.7432 520.6741 163.3979
v  -132.7433 520.6741 206.4359
v  -266.5609 520.6741 206.4359
v  -266.5609 520.6742 163.3980
v  -132.7432 477.3756 163.3979
v  -124.5418 470.6006 163.3979
v  -266.5609 477.3756 163.3979
v  -266.5609 477.3756 206.4359
v  -132.7433 477.3756 206.4359
v  -274.7624 425.8907 213.4715
v  -274.7624 425.8907 163.3979
v  -274.7624 375.8171 163.3979
v  -274.7624 375.8171 213.4715
v  -124.5418 425.8907 213.4715
v  -124.5418 375.8171 213.4714
v  -124.5418 425.8907 163.3979
v  -132.7433 425.8907 163.3979
v  -132.7433 425.8907 206.4359
v  -266.5609 425.8907 206.4359
v  -266.5609 425.8907 163.3979
v  -132.7433 382.5922 163.3979
v  -124.5418 375.8171 163.3979
v  -266.5609 382.5922 163.3979
v  -266.5609 382.5922 206.4359
v  -132.7433 382.5922 206.4359
v  -274.7624 331.1072 213.4715
v  -274.7624 331.1072 163.3979
v  -274.7624 281.0337 163.3979
v  -274.7624 281.0337 213.4715
v  -124.5418 331.1072 213.4714
v  -124.5418 281.0337 213.4714
v  -124.5418 331.1072 163.3979
v  -132.7433 331.1072 163.3979
v  -132.7433 331.1072 206.4359
v  -266.5609 331.1072 206.4359
v  -266.5609 331.1072 163.3979
v  -132.7433 287.8087 163.3979
v  -124.5418 281.0337 163.3979
v  -266.5609 287.8087 163.3979
v  -266.5609 287.8087 206.4358
v  -132.7433 287.8087 206.4358
v  -274.7624 236.3237 213.4715
v  -274.7624 236.3237 163.3979
v  -274.7624 186.2502 163.3979
v  -274.7624 186.2502 213.4715
v  -124.5418 236.3237 213.4715
v  -124.5418 186.2502 213.4715
v  -124.5418 236.3237 163.3979
v  -132.7433 236.3237 163.3979
v  -132.7433 236.3237 206.4358
v  -266.5610 236.3237 206.4359
v  -266.5610 236.3237 163.3979
v  -132.7433 193.0252 163.3979
v  -124.5418 186.2502 163.3979
v  -266.5610 193.0252 163.3979
v  -266.5610 193.0252 206.4359
v  -132.7433 193.0252 206.4359
v  112.2541 520.6741 213.4715
v  112.2541 520.6742 163.3980
v  112.2541 470.6006 163.3979
v  112.2541 470.6006 213.4715
v  262.4747 520.6741 213.4715
v  262.4747 470.6006 213.4715
v  262.4747 520.6741 163.3979
v  254.2733 520.6741 163.3979
v  254.2733 520.6741 206.4359
v  120.4556 520.6741 206.4359
v  120.4556 520.6742 163.3980
v  254.2733 477.3756 163.3979
v  262.4747 470.6006 163.3979
v  120.4556 477.3756 163.3979
v  120.4556 477.3756 206.4359
v  254.2733 477.3756 206.4359
v  112.2541 425.8907 213.4715
v  112.2541 425.8907 163.3979
v  112.2541 375.8171 163.3979
v  112.2541 375.8171 213.4715
v  262.4747 425.8907 213.4715
v  262.4747 375.8171 213.4714
v  262.4747 425.8907 163.3979
v  254.2733 425.8907 163.3979
v  254.2733 425.8907 206.4359
v  120.4556 425.8907 206.4359
v  120.4556 425.8907 163.3979
v  254.2733 382.5922 163.3979
v  262.4747 375.8171 163.3979
v  120.4556 382.5922 163.3979
v  120.4556 382.5922 206.4359
v  254.2733 382.5922 206.4359
v  112.2541 331.1072 213.4715
v  112.2541 331.1072 163.3979
v  112.2541 281.0337 163.3979
v  112.2541 281.0337 213.4715
v  262.4747 331.1072 213.4714
v  262.4747 281.0337 213.4714
v  262.4747 331.1072 163.3979
v  254.2733 331.1072 163.3979
v  254.2733 331.1072 206.4359
v  120.4556 331.1072 206.4359
v  120.4556 331.1072 163.3979
v  254.2733 287.8087 163.3979
v  262.4747 281.0337 163.3979
v  120.4556 287.8087 163.3979
v  120.4556 287.8087 206.4358
v  254.2733 287.8087 206.4358
v  112.2541 236.3237 213.4715
v  112.2541 236.3237 163.3979
v  112.2541 186.2502 163.3979
v  112.2541 186.2502 213.4715
v  262.4747 236.3237 213.4715
v  262.4747 186.2502 213.4715
v  262.4747 236.3237 163.3979
v  254.2733 236.3237 163.3979
v  254.2732 236.3237 206.4358
v  120.4555 236.3237 206.4359
v  120.4555 236.3237 163.3979
v  254.2733 193.0252 163.3979
v  262.4747 186.2502 163.3979
v  120.4555 193.0252 163.3979
v  120.4555 193.0252 206.4359
v  254.2732 193.0252 206.4359
v  -306.5864 0.0001 -235.1413
v  -306.5864 0.0001 65.2998
v  -306.5864 0.0000 65.2998
v  -306.5864 100.3236 -235.1413
v  81.5356 100.3236 -235.1413
v  294.2987 100.3236 -235.1413
v  294.2987 0.0001 -235.1413
v  81.5356 0.0002 -235.1413
v  294.2987 0.0001 65.2998
v  294.2987 0.0000 65.2998
v  -93.8233 0.0000 65.2998
v  -93.8233 0.0001 65.2998
v  81.5356 0.0001 65.2998
v  -306.5864 589.1141 65.2999
v  -306.5864 589.1141 164.9836
v  -290.2994 589.1141 149.1909
v  -290.2994 589.1141 63.4615
v  81.5356 0.0000 65.2998
v  294.2987 -0.0000 164.9836
v  81.5356 -0.0000 164.9836
v  294.2987 246.3426 -235.1413
v  294.2987 145.2972 65.2998
v  81.5356 246.3426 -235.1413
v  -306.5864 145.2972 65.2998
v  -306.5864 246.3426 -235.1413
v  -93.8233 145.2972 164.9836
v  -306.5864 145.2972 164.9836
v  -306.5864 -0.0000 164.9836
v  -93.8233 -0.0000 164.9836
v  294.2987 570.6311 65.2999
v  294.2987 589.1141 65.2999
v  294.2987 589.1141 164.9836
v  294.2987 570.6311 164.9837
v  -93.8233 589.1142 -235.1412
v  -306.5864 589.1142 -235.1412
v  -290.2994 589.1142 -220.6927
v  -89.0702 589.1142 -220.6927
v  81.5356 589.1142 -235.1412
v  76.7825 589.1142 -220.6927
v  81.5356 589.1141 164.9836
v  278.0117 589.1141 149.1909
v  66.6397 589.1141 149.1909
v  294.2987 145.2972 164.9836
v  81.5356 145.2972 164.9836
v  -93.8233 -0.0000 229.4262
v  -93.8233 145.2972 229.4262
v  -93.8233 246.3426 -235.1413
v  -93.8233 100.3236 -235.1413
v  -93.8233 589.1141 229.4263
v  81.5356 589.1141 229.4263
v  66.6397 589.1141 211.9754
v  -78.9274 589.1141 211.9754
v  -93.8233 589.1141 164.9836
v  -78.9274 589.1141 149.1909
v  -93.8233 0.0002 -235.1413
v  81.5356 145.2972 229.4262
v  81.5356 -0.0000 229.4262
v  81.5356 570.6311 164.9837
v  81.5356 570.6310 229.4263
v  -290.2994 574.6076 149.1909
v  -290.2994 574.6076 63.4615
v  -290.2994 574.6077 -220.6927
v  -89.0702 574.6077 -220.6927
v  76.7825 574.6077 -220.6927
v  278.0117 574.6076 149.1909
v  66.6397 574.6076 149.1909
v  66.6397 574.6075 211.9754
v  -78.9274 574.6075 211.9754
v  -78.9274 574.6076 149.1909
v  278.0117 589.1141 63.4615
v  294.2987 589.1142 -235.1412
v  278.0117 589.1142 -220.6927
v  -89.0702 574.6076 63.4615
v  278.0117 574.6076 63.4615
v  76.7825 574.6076 63.4615
v  278.0117 574.6077 -220.6927
v  -93.8233 570.6310 229.4263
v  -93.8233 576.0931 -235.1412
v  81.5356 576.0931 -235.1412
v  -306.5864 576.0931 -235.1412
v  -93.8233 570.6311 164.9837
v  -306.5864 570.6310 65.2999
v  -306.5864 570.6310 164.9837
v  294.2987 576.0931 -235.1412
v  -150.1183 77.1404 167.2637
v  -150.1183 117.2827 167.2637
v  -150.1183 117.2827 165.5290
v  -150.1183 77.1404 165.5290
v  -144.4926 122.4871 167.2637
v  -255.2724 122.4871 167.2637
v  -249.6468 117.2827 167.2637
v  -144.4926 122.4871 159.0004
v  -255.2724 122.4871 159.0004
v  -249.6468 117.2827 165.5290
v  -249.6468 77.1404 165.5290
v  -255.2724 71.9360 167.2637
v  -249.6468 77.1404 167.2637
v  -144.4926 71.9360 167.2637
v  -255.2724 71.9360 159.0004
v  -144.4926 71.9360 159.0004
v  132.2048 122.4871 167.2637
v  132.2048 122.4871 159.0004
v  132.2048 71.9360 159.0004
v  132.2048 71.9360 167.2637
v  242.9846 122.4871 159.0004
v  242.9846 71.9360 159.0004
v  242.9846 122.4871 167.2637
v  242.9846 71.9360 167.2637
v  237.3589 77.1404 167.2637
v  137.8305 77.1404 167.2637
v  237.3589 77.1404 165.5290
v  137.8305 77.1404 165.5290
v  137.8305 117.2827 167.2637
v  237.3589 117.2827 167.2637
v  237.3589 117.2827 165.5290
v  137.8305 117.2827 165.5290
# 628 vertices

vn 0.0000 0.0000 -1.0000
vn 1.0000 0.0000 -0.0000
vn 0.0000 -0.0000 1.0000
vn -1.0000 -0.0000 -0.0000
vn 0.0000 -1.0000 -0.0000
vn 0.0000 1.0000 0.0000
vn -1.0000 0.0000 -0.0000
vn 1.0000 -0.0000 0.0000
vn 0.0000 0.0000 1.0000
vn 0.0000 -0.0000 -1.0000
vn 1.0000 0.0000 0.0000
vn -0.0000 0.0000 1.0000
vn 0.0000 -1.0000 0.0000
vn 0.0000 1.0000 -0.0000
vn -0.0000 -0.0000 1.0000
vn -0.0000 0.0000 -1.0000
vn -0.0000 -1.0000 -0.0000
vn -0.0000 -0.0000 -1.0000
vn 0.0000 0.4102 0.9120
vn 0.0000 0.8254 0.5646
vn 0.0000 0.4738 -0.8806
# 21 vertex normals

vt 0.1913 0.3102 0.0000
vt 0.1911 0.3101 0.0000
vt 0.1908 0.3050 0.0000
vt 0.1909 0.3049 0.0000
vt 0.1788 0.3100 0.0000
vt 0.1784 0.3049 0.0000
vt 0.1786 0.3101 0.0000
vt 0.1782 0.3048 0.0000
vt 0.1783 0.3049 0.0000
vt 0.1783 0.3048 0.0000
vt 0.1909 0.3048 0.0000
vt 0.1912 0.3101 0.0000
vt 0.1787 0.3101 0.0000
vt 0.1786 0.3102 0.0000
vt 0.1832 0.2991 0.0000
vt 0.1825 0.2985 0.0000
vt 0.1823 0.2943 0.0000
vt 0.1829 0.2938 0.0000
vt 0.1740 0.2977 0.0000
vt 0.1738 0.2935 0.0000
vt 0.1734 0.2982 0.0000
vt 0.1731 0.2929 0.0000
vt 0.1731 0.2927 0.0000
vt 0.1834 0.2927 0.0000
vt 0.1729 0.2925 0.0000
vt 0.1835 0.2925 0.0000
vt 0.1832 0.2993 0.0000
vt 0.1729 0.2993 0.0000
vt 0.1834 0.2994 0.0000
vt 0.1727 0.2994 0.0000
vt 0.1911 0.3155 0.0000
vt 0.1909 0.3154 0.0000
vt 0.1914 0.3103 0.0000
vt 0.1915 0.3103 0.0000
vt 0.1788 0.3154 0.0000
vt 0.1784 0.3103 0.0000
vt 0.1786 0.3155 0.0000
vt 0.1782 0.3102 0.0000
vt 0.1784 0.3104 0.0000
vt 0.1914 0.3104 0.0000
vt 0.1783 0.3103 0.0000
vt 0.1787 0.3155 0.0000
vt 0.1912 0.3155 0.0000
vt 0.1855 0.3233 0.0000
vt 0.1853 0.3232 0.0000
vt 0.1857 0.3182 0.0000
vt 0.1863 0.3181 0.0000
vt 0.1733 0.3232 0.0000
vt 0.1729 0.3182 0.0000
vt 0.1731 0.3233 0.0000
vt 0.1727 0.3181 0.0000
vt 0.1861 0.3182 0.0000
vt 0.1728 0.3181 0.0000
vt 0.1862 0.3181 0.0000
vt 0.1732 0.3233 0.0000
vt 0.1856 0.3234 0.0000
vt 0.1727 0.2995 0.0000
vt 0.1733 0.2996 0.0000
vt 0.1737 0.3046 0.0000
vt 0.1735 0.3047 0.0000
vt 0.1860 0.2996 0.0000
vt 0.1856 0.3046 0.0000
vt 0.1865 0.2995 0.0000
vt 0.1858 0.3047 0.0000
vt 0.1857 0.3047 0.0000
vt 0.1736 0.3047 0.0000
vt 0.1729 0.2996 0.0000
vt 0.1863 0.2996 0.0000
vt 0.1728 0.2995 0.0000
vt 0.1864 0.2995 0.0000
vt 0.1727 0.3234 0.0000
vt 0.1729 0.3235 0.0000
vt 0.1733 0.3286 0.0000
vt 0.1731 0.3287 0.0000
vt 0.1859 0.3235 0.0000
vt 0.1855 0.3286 0.0000
vt 0.1860 0.3234 0.0000
vt 0.1856 0.3287 0.0000
vt 0.1856 0.3286 0.0000
vt 0.1732 0.3286 0.0000
vt 0.1857 0.3287 0.0000
vt 0.1728 0.3234 0.0000
vt 0.1782 0.3055 0.0000
vt 0.1781 0.3057 0.0000
vt 0.1730 0.3053 0.0000
vt 0.1727 0.3048 0.0000
vt 0.1780 0.3179 0.0000
vt 0.1729 0.3174 0.0000
vt 0.1781 0.3180 0.0000
vt 0.1728 0.3176 0.0000
vt 0.1729 0.3176 0.0000
vt 0.1729 0.3049 0.0000
vt 0.1728 0.3049 0.0000
vt 0.1781 0.3055 0.0000
vt 0.1840 0.2925 0.0000
vt 0.1842 0.2926 0.0000
vt 0.1837 0.2977 0.0000
vt 0.1836 0.2978 0.0000
vt 0.1963 0.2926 0.0000
vt 0.1967 0.2977 0.0000
vt 0.1965 0.2925 0.0000
vt 0.1969 0.2978 0.0000
vt 0.1968 0.2977 0.0000
vt 0.1840 0.2926 0.0000
vt 0.1964 0.2926 0.0000
vt 0.1734 0.3289 0.0000
vt 0.1739 0.3293 0.0000
vt 0.1732 0.3343 0.0000
vt 0.1728 0.3348 0.0000
vt 0.1817 0.3293 0.0000
vt 0.1824 0.3343 0.0000
vt 0.1821 0.3289 0.0000
vt 0.1828 0.3348 0.0000
vt 0.1826 0.3347 0.0000
vt 0.1729 0.3347 0.0000
vt 0.1828 0.3349 0.0000
vt 0.1727 0.3349 0.0000
vt 0.9905 0.5927 0.0000
vt 0.7262 0.5927 0.0000
vt 0.7262 0.4861 0.0000
vt 0.9905 0.4861 0.0000
vt 0.1733 0.3287 0.0000
vt 0.1823 0.3287 0.0000
vt 0.1868 0.3297 0.0000
vt 0.1872 0.3302 0.0000
vt 0.1865 0.3352 0.0000
vt 0.1861 0.3357 0.0000
vt 0.1950 0.3302 0.0000
vt 0.1957 0.3352 0.0000
vt 0.1955 0.3297 0.0000
vt 0.1961 0.3357 0.0000
vt 0.1960 0.3356 0.0000
vt 0.1863 0.3356 0.0000
vt 0.1961 0.3358 0.0000
vt 0.1861 0.3358 0.0000
vt 0.1868 0.3298 0.0000
vt 0.1955 0.3298 0.0000
vt 0.1866 0.3296 0.0000
vt 0.1956 0.3296 0.0000
vt 0.1970 0.3083 0.0000
vt 0.1974 0.3078 0.0000
vt 0.2026 0.3072 0.0000
vt 0.2031 0.3077 0.0000
vt 0.1976 0.2997 0.0000
vt 0.2028 0.2991 0.0000
vt 0.1971 0.2992 0.0000
vt 0.2032 0.2987 0.0000
vt 0.2031 0.2987 0.0000
vt 0.2032 0.2986 0.0000
vt 0.2032 0.3079 0.0000
vt 0.1971 0.3082 0.0000
vt 0.1969 0.3084 0.0000
vt 0.1969 0.2991 0.0000
vt 0.1916 0.3103 0.0000
vt 0.1920 0.3108 0.0000
vt 0.1927 0.3158 0.0000
vt 0.1922 0.3163 0.0000
vt 0.2012 0.3108 0.0000
vt 0.2005 0.3158 0.0000
vt 0.2016 0.3104 0.0000
vt 0.2010 0.3163 0.0000
vt 0.2010 0.3162 0.0000
vt 0.1923 0.3162 0.0000
vt 0.2011 0.3164 0.0000
vt 0.1921 0.3164 0.0000
vt 0.1917 0.3104 0.0000
vt 0.2015 0.3104 0.0000
vt 0.1916 0.3102 0.0000
vt 0.2016 0.3102 0.0000
vt 0.1979 0.3334 0.0000
vt 0.1983 0.3339 0.0000
vt 0.1976 0.3386 0.0000
vt 0.1964 0.3391 0.0000
vt 0.2036 0.3339 0.0000
vt 0.2043 0.3386 0.0000
vt 0.2041 0.3334 0.0000
vt 0.2055 0.3391 0.0000
vt 0.2052 0.3391 0.0000
vt 0.1967 0.3391 0.0000
vt 0.2054 0.3393 0.0000
vt 0.1965 0.3393 0.0000
vt 0.1978 0.3334 0.0000
vt 0.9904 0.4648 0.0000
vt 0.7964 0.4648 0.0000
vt 0.7964 0.3581 0.0000
vt 0.9904 0.3581 0.0000
vt 0.1977 0.3332 0.0000
vt 0.2043 0.3332 0.0000
vt 0.1967 0.3173 0.0000
vt 0.1980 0.3178 0.0000
vt 0.1987 0.3227 0.0000
vt 0.1982 0.3232 0.0000
vt 0.2050 0.3179 0.0000
vt 0.2042 0.3226 0.0000
vt 0.2053 0.3174 0.0000
vt 0.2046 0.3231 0.0000
vt 0.2048 0.3232 0.0000
vt 0.1980 0.3234 0.0000
vt 0.1969 0.3173 0.0000
vt 0.2051 0.3174 0.0000
vt 0.1968 0.3172 0.0000
vt 0.2053 0.3172 0.0000
vt 0.1648 0.3424 0.0000
vt 0.1656 0.3415 0.0000
vt 0.1705 0.3408 0.0000
vt 0.1711 0.3413 0.0000
vt 0.1655 0.3359 0.0000
vt 0.1705 0.3352 0.0000
vt 0.1650 0.3354 0.0000
vt 0.1712 0.3343 0.0000
vt 0.1711 0.3344 0.0000
vt 0.1712 0.3342 0.0000
vt 0.1712 0.3415 0.0000
vt 0.1650 0.3423 0.0000
vt 0.1648 0.3352 0.0000
vt 0.1584 0.3424 0.0000
vt 0.1591 0.3415 0.0000
vt 0.1641 0.3408 0.0000
vt 0.1646 0.3413 0.0000
vt 0.1591 0.3359 0.0000
vt 0.1640 0.3352 0.0000
vt 0.1585 0.3354 0.0000
vt 0.1648 0.3343 0.0000
vt 0.1647 0.3344 0.0000
vt 0.1648 0.3342 0.0000
vt 0.1648 0.3415 0.0000
vt 0.1585 0.3423 0.0000
vt 0.1586 0.3354 0.0000
vt 0.1584 0.3352 0.0000
vt 0.1867 0.3236 0.0000
vt 0.1871 0.3241 0.0000
vt 0.1865 0.3290 0.0000
vt 0.1861 0.3294 0.0000
vt 0.1947 0.3241 0.0000
vt 0.1953 0.3290 0.0000
vt 0.1952 0.3236 0.0000
vt 0.1964 0.3295 0.0000
vt 0.1962 0.3294 0.0000
vt 0.1862 0.3294 0.0000
vt 0.1964 0.3296 0.0000
vt 0.1861 0.3296 0.0000
vt 0.1867 0.3237 0.0000
vt 0.1865 0.3235 0.0000
vt 0.1954 0.3234 0.0000
vt 0.1872 0.2988 0.0000
vt 0.1876 0.2993 0.0000
vt 0.1870 0.3041 0.0000
vt 0.1866 0.3046 0.0000
vt 0.1952 0.2992 0.0000
vt 0.1958 0.3042 0.0000
vt 0.1957 0.2987 0.0000
vt 0.1969 0.3047 0.0000
vt 0.1967 0.3046 0.0000
vt 0.1867 0.3046 0.0000
vt 0.1866 0.3047 0.0000
vt 0.1872 0.2989 0.0000
vt 0.1870 0.2987 0.0000
vt 0.1959 0.2986 0.0000
vt 0.1869 0.3174 0.0000
vt 0.1874 0.3179 0.0000
vt 0.1868 0.3228 0.0000
vt 0.1864 0.3232 0.0000
vt 0.1950 0.3179 0.0000
vt 0.1955 0.3228 0.0000
vt 0.1955 0.3173 0.0000
vt 0.1967 0.3233 0.0000
vt 0.1965 0.3232 0.0000
vt 0.1865 0.3232 0.0000
vt 0.1967 0.3234 0.0000
vt 0.1863 0.3234 0.0000
vt 0.1869 0.3175 0.0000
vt 0.1955 0.3174 0.0000
vt 0.1868 0.3173 0.0000
vt 0.1956 0.3172 0.0000
vt 0.1965 0.3331 0.0000
vt 0.1969 0.3327 0.0000
vt 0.2021 0.3321 0.0000
vt 0.2026 0.3325 0.0000
vt 0.1971 0.3245 0.0000
vt 0.2023 0.3239 0.0000
vt 0.1966 0.3241 0.0000
vt 0.2027 0.3235 0.0000
vt 0.2026 0.3236 0.0000
vt 0.2027 0.3234 0.0000
vt 0.2027 0.3327 0.0000
vt 0.1966 0.3330 0.0000
vt 0.1964 0.3332 0.0000
vt 0.1964 0.3239 0.0000
vt 0.2075 0.3080 0.0000
vt 0.2071 0.3076 0.0000
vt 0.2071 0.3003 0.0000
vt 0.2077 0.2998 0.0000
vt 0.2038 0.3083 0.0000
vt 0.2037 0.2997 0.0000
vt 0.2034 0.3086 0.0000
vt 0.2033 0.2986 0.0000
vt 0.2577 0.9322 0.0000
vt 0.2533 0.9309 0.0000
vt 0.2534 0.9312 0.0000
vt 0.2576 0.9322 0.0000
vt 0.2571 0.9327 0.0000
vt 0.2537 0.9321 0.0000
vt 0.2533 0.9310 0.0000
vt 0.2578 0.9320 0.0000
vt 0.2034 0.3084 0.0000
vt 0.2034 0.2988 0.0000
vt 0.2076 0.2998 0.0000
vt 0.7181 0.2100 0.0000
vt 0.5679 0.2100 0.0000
vt 0.5679 0.0091 0.0000
vt 0.7181 0.0091 0.0000
vt 0.2077 0.3082 0.0000
vt 0.2033 0.3086 0.0000
vt 0.2078 0.2996 0.0000
vt 0.0583 0.3748 0.0000
vt 0.2083 0.9248 0.0000
vt 0.3731 0.9366 0.0000
vt 0.2995 0.8307 0.0000
vt 0.1723 0.3250 0.0000
vt 0.1667 0.3200 0.0000
vt 0.1667 0.3067 0.0000
vt 0.1723 0.3017 0.0000
vt 0.1642 0.3217 0.0000
vt 0.1642 0.3049 0.0000
vt 0.1584 0.3342 0.0000
vt 0.1584 0.2925 0.0000
vt 0.1586 0.2929 0.0000
vt 0.1725 0.3014 0.0000
vt 0.1585 0.2928 0.0000
vt 0.1727 0.3012 0.0000
vt 0.1725 0.3253 0.0000
vt 0.1586 0.3337 0.0000
vt 0.9962 0.3361 0.0000
vt 0.7466 0.3361 0.0000
vt 0.7466 0.0033 0.0000
vt 0.9962 0.0033 0.0000
vt 0.1727 0.3254 0.0000
vt 0.1585 0.3339 0.0000
vt 0.3436 0.9395 0.0000
vt 0.2936 0.9395 0.0000
vt 0.3672 0.9454 0.0000
vt 0.3378 0.9395 0.0000
vt 0.2760 0.8160 0.0000
# 343 texture coords

g SPB_Building02
usemtl SPB_Building02
s off
f 1/1/1 2/2/1 3/3/1 4/4/1 
f 2/2/2 5/5/2 6/6/2 3/3/2 
f 5/5/3 7/7/3 8/8/3 6/6/3 
f 4/4/4 8/8/4 9/9/4 10/4/4 
f 4/4/5 3/3/5 6/6/5 8/8/5 
f 7/7/6 5/5/6 2/2/6 1/1/6 
f 10/4/6 9/9/6 11/10/6 12/11/6 
s 1
f 7/7/7 1/1/4 13/12/4 14/13/7 
f 8/8/7 7/7/7 14/13/7 9/9/7 
f 1/1/4 4/4/7 10/4/7 13/12/4 
s off
f 14/13/5 13/12/5 15/1/5 16/14/5 
f 9/9/1 14/13/1 16/14/1 11/10/1 
f 13/12/3 10/4/3 12/11/3 15/1/3 
f 17/15/1 18/16/1 19/17/1 20/18/1 
f 18/16/8 21/19/8 22/20/8 19/17/8 
f 21/19/3 23/21/3 24/22/3 22/20/3 
f 20/18/7 24/22/7 25/23/7 26/24/7 
f 20/18/5 19/17/5 22/20/5 24/22/5 
f 23/21/6 21/19/6 18/16/6 17/15/6 
f 26/24/6 25/23/6 27/25/6 28/26/6 
f 23/21/7 17/15/7 29/27/7 30/28/7 
f 24/22/7 23/21/7 30/28/7 25/23/7 
f 17/15/7 20/18/7 26/24/7 29/27/7 
f 30/28/5 29/27/5 31/29/5 32/30/5 
f 25/23/1 30/28/1 32/30/1 27/25/1 
f 29/27/3 26/24/3 28/26/3 31/29/3 
f 33/31/1 34/32/1 35/33/1 36/34/1 
f 34/32/8 37/35/8 38/36/8 35/33/8 
f 37/35/3 39/37/3 40/38/3 38/36/3 
s 1
f 36/34/7 40/38/7 41/39/7 42/40/7 
s off
f 36/34/5 35/33/5 38/36/5 40/38/5 
f 39/37/6 37/35/6 34/32/6 33/31/6 
f 42/40/6 41/39/6 43/41/6 44/34/6 
f 39/37/7 33/31/7 45/31/7 46/42/7 
s 1
f 40/38/7 39/37/7 46/42/7 41/39/7 
f 33/31/7 36/34/7 42/40/7 45/31/7 
s off
f 46/42/5 45/31/5 47/43/5 48/37/5 
f 41/39/1 46/42/1 48/37/1 43/41/1 
f 45/31/3 42/40/3 44/34/3 47/43/3 
f 49/44/1 50/45/1 51/46/1 52/47/1 
f 50/45/8 53/48/8 54/49/8 51/46/8 
f 53/48/9 55/50/9 56/51/9 54/49/9 
f 52/47/7 56/51/7 57/49/7 58/52/7 
f 52/47/5 51/46/5 54/49/5 56/51/5 
f 55/50/6 53/48/6 50/45/6 49/44/6 
f 58/52/6 57/49/6 59/53/6 60/54/6 
f 55/50/7 49/44/7 61/44/7 62/55/7 
f 56/51/7 55/50/7 62/55/7 57/49/7 
f 49/44/7 52/47/7 58/52/7 61/44/7 
f 62/55/5 61/44/5 63/56/5 64/50/5 
f 57/49/10 62/55/10 64/50/10 59/53/10 
f 61/44/3 58/52/3 60/54/3 63/56/3 
f 65/57/3 66/58/3 67/59/3 68/60/3 
f 66/58/7 69/61/7 70/62/7 67/59/7 
f 69/61/1 71/63/1 72/64/1 70/62/1 
f 68/60/11 72/64/11 73/65/11 74/66/11 
f 68/60/5 67/59/5 70/62/5 72/64/5 
f 71/63/6 69/61/6 66/58/6 65/57/6 
f 74/66/6 73/65/6 75/64/6 76/60/6 
s 1
f 71/63/11 65/57/8 77/67/8 78/68/11 
f 72/64/2 71/63/11 78/68/11 73/65/2 
f 65/57/8 68/60/2 74/66/2 77/67/8 
s off
f 78/68/5 77/67/5 79/69/5 80/70/5 
f 73/65/3 78/68/3 80/70/3 75/64/3 
f 77/67/1 74/66/1 76/60/1 79/69/1 
f 81/71/3 82/72/3 83/73/3 84/74/3 
f 82/72/7 85/75/7 86/76/7 83/73/7 
f 85/75/1 87/77/1 88/78/1 86/76/1 
f 84/74/2 88/78/2 89/79/2 90/80/2 
f 84/74/5 83/73/5 86/76/5 88/78/5 
f 87/77/6 85/75/6 82/72/6 81/71/6 
f 90/80/6 89/79/6 91/81/6 92/74/6 
f 87/77/2 81/71/2 93/72/2 94/75/2 
f 88/78/2 87/77/2 94/75/2 89/79/2 
f 81/71/2 84/74/2 90/80/2 93/72/2 
f 94/75/5 93/72/5 95/82/5 96/77/5 
f 89/79/3 94/75/3 96/77/3 91/81/3 
f 93/72/1 90/80/1 92/74/1 95/82/1 
f 97/83/3 98/84/3 99/85/3 100/86/3 
f 98/84/7 101/87/7 102/88/7 99/85/7 
f 101/87/1 103/89/1 104/90/1 102/88/1 
s 1
f 100/86/2 104/90/2 105/91/2 106/92/2 
s off
f 100/86/5 99/85/5 102/88/5 104/90/5 
f 103/89/6 101/87/6 98/84/6 97/83/6 
f 106/92/6 105/91/6 107/90/6 108/93/6 
f 103/89/2 97/83/2 109/94/2 110/87/2 
s 1
f 104/90/2 103/89/2 110/87/2 105/91/2 
f 97/83/2 100/86/2 106/92/2 109/94/2 
s off
f 110/87/5 109/94/5 111/83/5 112/89/5 
f 105/91/3 110/87/3 112/89/3 107/90/3 
f 109/94/1 106/92/1 108/93/1 111/83/1 
f 113/95/9 114/96/9 115/97/9 116/98/9 
f 114/96/7 117/99/7 118/100/7 115/97/7 
f 117/99/1 119/101/1 120/102/1 118/100/1 
f 116/98/2 120/102/2 121/100/2 122/97/2 
f 116/98/5 115/97/5 118/100/5 120/102/5 
f 119/101/6 117/99/6 114/96/6 113/95/6 
f 122/97/6 121/100/6 123/103/6 124/97/6 
f 119/101/2 113/95/2 125/104/2 126/105/2 
f 120/102/2 119/101/2 126/105/2 121/100/2 
f 113/95/2 116/98/2 122/97/2 125/104/2 
f 126/105/5 125/104/5 127/95/5 128/101/5 
f 121/100/3 126/105/3 128/101/3 123/103/3 
f 125/104/10 122/97/10 124/97/10 127/95/10 
f 129/106/7 130/107/7 131/108/7 132/109/7 
f 130/107/1 133/110/1 134/111/1 131/108/1 
f 133/110/2 135/112/2 136/113/2 134/111/2 
s 1
f 132/109/3 136/113/3 137/114/3 138/115/3 
s off
f 132/109/5 131/108/5 134/111/5 136/113/5 
f 135/112/6 133/110/6 130/107/6 129/106/6 
f 138/115/6 137/114/6 139/116/6 140/117/6 
s 1
f 135/112/3 129/106/3 141/106/3 142/112/3 
f 136/113/3 135/112/3 142/112/3 137/114/3 
f 129/106/3 132/109/3 138/115/3 141/106/3 
s off
f 143/118/3 144/119/3 140/120/3 139/121/3 
f 142/112/5 141/106/5 144/122/5 143/123/5 
f 137/114/7 142/112/7 143/123/7 139/116/7 
f 141/106/2 138/115/2 140/117/2 144/122/2 
f 145/124/7 146/125/7 147/126/7 148/127/7 
f 146/125/1 149/128/1 150/129/1 147/126/1 
f 149/128/2 151/130/2 152/131/2 150/129/2 
s 1
f 148/127/12 152/131/3 153/132/3 154/133/12 
s off
f 148/127/5 147/126/5 150/129/5 152/131/5 
f 151/130/6 149/128/6 146/125/6 145/124/6 
f 154/133/6 153/132/6 155/134/6 156/135/6 
s 1
f 151/130/3 145/124/9 157/136/9 158/137/3 
s off
f 152/131/12 151/130/12 158/137/12 153/132/12 
s 1
f 145/124/9 148/127/12 154/133/12 157/136/9 
s off
f 159/118/3 160/119/3 156/120/3 155/121/3 
f 158/137/5 157/136/5 160/138/5 159/139/5 
f 153/132/7 158/137/7 159/139/7 155/134/7 
f 157/136/2 154/133/2 156/135/2 160/138/2 
f 161/140/7 162/141/7 163/142/7 164/143/7 
f 162/141/1 165/144/1 166/145/1 163/142/1 
f 165/144/2 167/146/2 168/147/2 166/145/2 
f 164/143/3 168/147/3 169/148/3 170/143/3 
f 164/143/5 163/142/5 166/145/5 168/147/5 
f 167/146/6 165/144/6 162/141/6 161/140/6 
f 170/143/6 169/148/6 171/149/6 172/150/6 
f 167/146/3 161/140/3 173/151/3 174/146/3 
f 168/147/3 167/146/3 174/146/3 169/148/3 
f 161/140/3 164/143/3 170/143/3 173/151/3 
f 175/118/3 176/119/3 172/120/3 171/121/3 
f 174/146/5 173/151/5 176/152/5 175/153/5 
f 169/148/7 174/146/7 175/153/7 171/149/7 
f 173/151/2 170/143/2 172/150/2 176/152/2 
f 177/154/7 178/155/7 179/156/7 180/157/7 
f 178/155/1 181/158/1 182/159/1 179/156/1 
f 181/158/2 183/160/2 184/161/2 182/159/2 
s 1
f 180/157/3 184/161/3 185/162/3 186/163/3 
s off
f 180/157/5 179/156/5 182/159/5 184/161/5 
f 183/160/6 181/158/6 178/155/6 177/154/6 
f 186/163/6 185/162/6 187/164/6 188/165/6 
s 1
f 183/160/3 177/154/3 189/166/3 190/167/3 
f 184/161/3 183/160/3 190/167/3 185/162/3 
f 177/154/3 180/157/3 186/163/3 189/166/3 
s off
f 191/118/3 192/119/3 188/120/3 187/121/3 
f 190/167/5 189/166/5 192/168/5 191/169/5 
f 185/162/7 190/167/7 191/169/7 187/164/7 
f 189/166/2 186/163/2 188/165/2 192/168/2 
f 193/170/7 194/171/7 195/172/7 196/173/7 
f 194/171/10 197/174/10 198/175/10 195/172/10 
f 197/174/2 199/176/2 200/177/2 198/175/2 
s 1
f 196/173/12 200/177/9 201/178/9 202/179/12 
s off
f 196/173/13 195/172/13 198/175/13 200/177/13 
f 199/176/14 197/174/14 194/171/14 193/170/14 
f 202/179/6 201/178/6 203/180/6 204/181/6 
s 1
f 199/176/12 193/170/9 205/182/9 206/176/12 
f 200/177/9 199/176/12 206/176/12 201/178/9 
f 193/170/9 196/173/12 202/179/12 205/182/9 
s off
f 207/183/9 208/184/9 204/185/9 203/186/9 
f 206/176/5 205/182/5 208/187/5 207/188/5 
f 201/178/7 206/176/7 207/188/7 203/180/7 
f 205/182/2 202/179/2 204/181/2 208/187/2 
f 209/189/7 210/190/7 211/191/7 212/192/7 
f 210/190/1 213/193/1 214/194/1 211/191/1 
f 213/193/2 215/195/2 216/196/2 214/194/2 
s 1
f 212/192/3 216/196/3 217/196/3 218/192/3 
s off
f 212/192/5 211/191/5 214/194/5 216/196/5 
f 215/195/6 213/193/6 210/190/6 209/189/6 
f 218/192/6 217/196/6 219/197/6 220/198/6 
s 1
f 215/195/3 209/189/3 221/199/3 222/200/3 
f 216/196/3 215/195/3 222/200/3 217/196/3 
f 209/189/3 212/192/3 218/192/3 221/199/3 
s off
f 223/183/3 224/184/3 220/185/3 219/186/3 
f 222/200/5 221/199/5 224/201/5 223/202/5 
f 217/196/7 222/200/7 223/202/7 219/197/7 
f 221/199/2 218/192/2 220/198/2 224/201/2 
f 225/203/7 226/204/7 227/205/7 228/206/7 
f 226/204/1 229/207/1 230/208/1 227/205/1 
f 229/207/2 231/209/2 232/210/2 230/208/2 
s 1
f 228/206/3 232/210/3 233/211/3 234/206/3 
s off
f 228/206/5 227/205/5 230/208/5 232/210/5 
f 231/209/6 229/207/6 226/204/6 225/203/6 
f 234/206/6 233/211/6 235/212/6 236/213/6 
s 1
f 231/209/3 225/203/3 237/214/3 238/209/3 
f 232/210/3 231/209/3 238/209/3 233/211/3 
f 225/203/3 228/206/3 234/206/3 237/214/3 
s off
f 239/183/3 240/184/3 236/185/3 235/186/3 
f 238/209/5 237/214/5 240/203/5 239/215/5 
f 233/211/7 238/209/7 239/215/7 235/212/7 
f 237/214/2 234/206/2 236/213/2 240/203/2 
f 241/216/7 242/217/7 243/218/7 244/219/7 
f 242/217/1 245/220/1 246/221/1 243/218/1 
f 245/220/2 247/222/2 248/223/2 246/221/2 
s 1
f 244/219/3 248/223/3 249/224/3 250/219/3 
s off
f 244/219/13 243/218/13 246/221/13 248/223/13 
f 247/222/6 245/220/6 242/217/6 241/216/6 
f 250/219/6 249/224/6 251/225/6 252/226/6 
s 1
f 247/222/3 241/216/3 253/227/3 254/228/3 
f 248/223/3 247/222/3 254/228/3 249/224/3 
f 241/216/3 244/219/3 250/219/3 253/227/3 
s off
f 255/183/3 256/184/3 252/185/3 251/186/3 
f 254/228/5 253/227/5 256/216/5 255/229/5 
f 249/224/7 254/228/7 255/229/7 251/225/7 
f 253/227/2 250/219/2 252/226/2 256/216/2 
f 257/230/7 258/231/7 259/232/7 260/233/7 
f 258/231/1 261/234/1 262/235/1 259/232/1 
f 261/234/2 263/236/2 264/237/2 262/235/2 
s 1
f 260/233/3 264/237/3 265/238/3 266/239/3 
s off
f 260/233/5 259/232/5 262/235/5 264/237/5 
f 263/236/6 261/234/6 258/231/6 257/230/6 
f 266/239/6 265/238/6 267/240/6 268/241/6 
s 1
f 263/236/3 257/230/3 269/242/3 270/236/3 
f 264/237/3 263/236/3 270/236/3 265/238/3 
f 257/230/3 260/233/3 266/239/3 269/242/3 
s off
f 271/118/3 272/119/3 268/120/3 267/121/3 
f 270/236/5 269/242/5 272/243/5 271/244/5 
f 265/238/7 270/236/7 271/244/7 267/240/7 
f 269/242/2 266/239/2 268/241/2 272/243/2 
f 273/245/7 274/246/7 275/247/7 276/248/7 
f 274/246/1 277/249/1 278/250/1 275/247/1 
f 277/249/2 279/251/2 280/252/2 278/250/2 
s 1
f 276/248/12 280/252/3 281/253/3 282/254/12 
s off
f 276/248/5 275/247/5 278/250/5 280/252/5 
f 279/251/6 277/249/6 274/246/6 273/245/6 
f 282/254/6 281/253/6 283/252/6 284/255/6 
s 1
f 279/251/3 273/245/9 285/256/9 286/251/3 
s off
f 280/252/12 279/251/12 286/251/12 281/253/12 
s 1
f 273/245/9 276/248/12 282/254/12 285/256/9 
s off
f 287/118/3 288/119/3 284/120/3 283/121/3 
f 286/251/5 285/256/5 288/257/5 287/258/5 
f 281/253/7 286/251/7 287/258/7 283/252/7 
f 285/256/2 282/254/2 284/255/2 288/257/2 
f 289/259/7 290/260/7 291/261/7 292/262/7 
f 290/260/1 293/263/1 294/264/1 291/261/1 
f 293/263/2 295/265/2 296/266/2 294/264/2 
f 292/262/3 296/266/3 297/267/3 298/268/3 
f 292/262/5 291/261/5 294/264/5 296/266/5 
f 295/265/6 293/263/6 290/260/6 289/259/6 
f 298/268/6 297/267/6 299/269/6 300/270/6 
f 295/265/3 289/259/3 301/271/3 302/272/3 
f 296/266/3 295/265/3 302/272/3 297/267/3 
f 289/259/3 292/262/3 298/268/3 301/271/3 
f 303/118/3 304/119/3 300/120/3 299/121/3 
f 302/272/5 301/271/5 304/273/5 303/274/5 
f 297/267/7 302/272/7 303/274/7 299/269/7 
f 301/271/2 298/268/2 300/270/2 304/273/2 
f 305/275/7 306/276/7 307/277/7 308/278/7 
f 306/276/1 309/279/1 310/280/1 307/277/1 
f 309/279/2 311/281/2 312/282/2 310/280/2 
s 1
f 308/278/3 312/282/3 313/283/3 314/278/3 
s off
f 308/278/5 307/277/5 310/280/5 312/282/5 
f 311/281/6 309/279/6 306/276/6 305/275/6 
f 314/278/6 313/283/6 315/284/6 316/285/6 
s 1
f 311/281/3 305/275/3 317/286/3 318/281/3 
f 312/282/3 311/281/3 318/281/3 313/283/3 
f 305/275/3 308/278/3 314/278/3 317/286/3 
s off
f 319/118/3 320/119/3 316/120/3 315/121/3 
f 318/281/5 317/286/5 320/287/5 319/288/5 
f 313/283/7 318/281/7 319/288/7 315/284/7 
f 317/286/2 314/278/2 316/285/2 320/287/2 
f 321/289/7 322/290/7 323/291/7 324/292/7 
f 322/290/1 325/293/1 326/294/1 323/291/1 
f 325/293/2 327/295/2 328/296/2 326/294/2 
s 1
f 324/297/15 328/298/3 329/299/3 330/300/15 
s off
f 324/297/5 323/301/5 326/302/5 328/298/5 
f 327/295/6 325/293/6 322/290/6 321/289/6 
f 330/300/6 329/299/6 331/303/6 332/304/6 
s 1
f 327/295/9 321/289/12 333/289/12 334/305/9 
f 328/296/3 327/295/9 334/305/9 329/306/3 
f 321/289/12 324/292/15 330/307/15 333/289/12 
s off
f 335/308/3 336/309/3 332/310/3 331/311/3 
f 334/305/5 333/289/5 336/312/5 335/313/5 
f 329/306/7 334/305/7 335/313/7 331/296/7 
f 333/289/2 330/307/2 332/314/2 336/312/2 
f 337/315/7 338/315/7 339/315/7 340/315/7 
f 338/315/1 341/315/1 342/315/1 339/315/1 
f 341/315/2 343/315/2 344/315/2 342/315/2 
f 343/315/3 337/315/3 340/315/3 344/315/3 
f 340/316/5 339/316/5 342/316/5 344/316/5 
f 337/317/5 343/317/5 345/317/5 346/317/5 
f 346/317/3 345/317/3 347/317/3 348/317/3 
f 343/317/5 341/317/5 349/317/5 345/317/5 
f 341/317/5 338/317/5 350/317/5 349/317/5 
f 338/317/5 337/317/5 346/317/5 350/317/5 
f 348/317/6 347/317/6 351/317/6 352/317/6 
f 345/317/2 349/317/2 353/317/2 347/317/2 
f 349/317/1 350/317/1 354/317/1 353/317/1 
f 350/317/7 346/317/7 348/317/7 354/317/7 
f 352/317/1 351/317/1 355/317/1 356/317/1 
f 347/317/6 353/317/6 357/317/6 351/317/6 
f 353/317/6 354/317/6 358/317/6 357/317/6 
f 354/317/6 348/317/6 352/317/6 358/317/6 
f 355/318/6 359/318/6 360/318/6 356/318/6 
f 351/317/7 357/317/7 359/317/7 355/317/7 
f 357/317/3 358/317/3 360/317/3 359/317/3 
f 358/317/2 352/317/2 356/317/2 360/317/2 
f 361/315/7 362/315/7 363/315/7 364/315/7 
f 362/315/1 365/315/1 366/315/1 363/315/1 
f 365/315/2 367/315/2 368/315/2 366/315/2 
f 367/315/3 361/315/3 364/315/3 368/315/3 
f 364/315/13 363/315/13 366/315/13 368/315/13 
f 367/315/14 365/315/14 362/315/14 361/315/14 
f 369/319/7 370/320/7 371/321/7 372/322/7 
f 370/320/1 373/323/1 374/324/1 371/321/1 
f 373/323/2 375/325/2 376/326/2 374/324/2 
f 372/322/3 376/326/3 377/327/3 378/328/3 
f 372/322/5 371/321/5 374/324/5 376/326/5 
f 375/325/6 373/323/6 370/320/6 369/319/6 
f 378/328/6 377/327/6 379/329/6 380/330/6 
f 375/325/3 369/319/3 381/331/3 382/332/3 
f 376/326/3 375/325/3 382/332/3 377/327/3 
f 369/319/3 372/322/3 378/328/3 381/331/3 
f 383/333/3 384/334/3 380/335/3 379/336/3 
f 382/332/5 381/331/5 384/337/5 383/338/5 
f 377/327/7 382/332/7 383/338/7 379/329/7 
f 381/331/2 378/328/2 380/330/2 384/337/2 
f 385/339/7 386/339/7 387/339/7 388/339/7 
f 389/339/3 385/339/3 388/339/3 390/339/3 
f 389/339/6 391/339/6 392/339/6 393/339/6 
f 394/339/6 395/339/6 386/339/6 385/339/6 
f 393/339/6 394/339/6 385/339/6 389/339/6 
f 396/339/1 392/339/1 391/339/1 397/339/1 
f 398/339/16 396/339/16 397/339/16 387/339/16 
f 395/339/1 398/339/1 387/339/1 386/339/1 
f 388/339/17 387/339/17 397/339/17 390/339/17 
f 391/339/8 389/339/8 390/339/8 397/339/8 
f 398/339/2 395/339/2 394/339/2 399/339/2 
f 396/339/6 398/339/6 399/339/6 400/339/6 
f 394/339/1 393/339/1 400/339/1 399/339/1 
f 393/339/7 392/339/7 396/339/7 400/339/7 
f 401/339/7 402/339/7 403/339/7 404/339/7 
f 405/339/3 401/339/3 404/339/3 406/339/3 
f 405/339/6 407/339/6 408/339/6 409/339/6 
f 410/339/6 411/339/6 402/339/6 401/339/6 
f 409/339/6 410/339/6 401/339/6 405/339/6 
f 412/339/1 408/339/1 407/339/1 413/339/1 
f 414/339/16 412/339/16 413/339/16 403/339/16 
f 411/339/1 414/339/1 403/339/1 402/339/1 
f 404/339/5 403/339/5 413/339/5 406/339/5 
f 407/339/8 405/339/8 406/339/8 413/339/8 
f 414/339/2 411/339/2 410/339/2 415/339/2 
f 412/339/6 414/339/6 415/339/6 416/339/6 
f 410/339/1 409/339/1 416/339/1 415/339/1 
f 409/339/7 408/339/7 412/339/7 416/339/7 
f 417/339/7 418/339/7 419/339/7 420/339/7 
f 421/339/3 417/339/3 420/339/3 422/339/3 
f 421/339/6 423/339/6 424/339/6 425/339/6 
f 426/339/6 427/339/6 418/339/6 417/339/6 
f 425/339/6 426/339/6 417/339/6 421/339/6 
f 428/339/1 424/339/1 423/339/1 429/339/1 
f 430/339/16 428/339/16 429/339/16 419/339/16 
f 427/339/1 430/339/1 419/339/1 418/339/1 
f 420/339/17 419/339/17 429/339/17 422/339/17 
f 423/339/8 421/339/8 422/339/8 429/339/8 
f 430/339/2 427/339/2 426/339/2 431/339/2 
f 428/339/6 430/339/6 431/339/6 432/339/6 
f 426/339/1 425/339/1 432/339/1 431/339/1 
f 425/339/7 424/339/7 428/339/7 432/339/7 
f 433/339/7 434/339/7 435/339/7 436/339/7 
f 437/339/9 433/339/9 436/339/9 438/339/9 
f 437/339/6 439/339/6 440/339/6 441/339/6 
f 442/339/6 443/339/6 434/339/6 433/339/6 
f 441/339/6 442/339/6 433/339/6 437/339/6 
f 444/339/1 440/339/1 439/339/1 445/339/1 
f 446/339/16 444/339/16 445/339/16 435/339/16 
f 443/339/1 446/339/1 435/339/1 434/339/1 
f 436/339/17 435/339/17 445/339/17 438/339/17 
f 439/339/11 437/339/11 438/339/11 445/339/11 
f 446/339/2 443/339/2 442/339/2 447/339/2 
f 444/339/6 446/339/6 447/339/6 448/339/6 
f 442/339/18 441/339/18 448/339/18 447/339/18 
f 441/339/4 440/339/4 444/339/4 448/339/4 
f 449/339/7 450/339/7 451/339/7 452/339/7 
f 453/339/3 449/339/3 452/339/3 454/339/3 
f 453/339/6 455/339/6 456/339/6 457/339/6 
f 458/339/6 459/339/6 450/339/6 449/339/6 
f 457/339/6 458/339/6 449/339/6 453/339/6 
f 460/339/1 456/339/1 455/339/1 461/339/1 
f 462/339/16 460/339/16 461/339/16 451/339/16 
f 459/339/1 462/339/1 451/339/1 450/339/1 
f 452/339/17 451/339/17 461/339/17 454/339/17 
f 455/339/8 453/339/8 454/339/8 461/339/8 
f 462/339/2 459/339/2 458/339/2 463/339/2 
f 460/339/6 462/339/6 463/339/6 464/339/6 
f 458/339/1 457/339/1 464/339/1 463/339/1 
f 457/339/7 456/339/7 460/339/7 464/339/7 
f 465/339/7 466/339/7 467/339/7 468/339/7 
f 469/339/3 465/339/3 468/339/3 470/339/3 
f 469/339/6 471/339/6 472/339/6 473/339/6 
f 474/339/6 475/339/6 466/339/6 465/339/6 
f 473/339/6 474/339/6 465/339/6 469/339/6 
f 476/339/1 472/339/1 471/339/1 477/339/1 
f 478/339/16 476/339/16 477/339/16 467/339/16 
f 475/339/1 478/339/1 467/339/1 466/339/1 
f 468/339/5 467/339/5 477/339/5 470/339/5 
f 471/339/8 469/339/8 470/339/8 477/339/8 
f 478/339/2 475/339/2 474/339/2 479/339/2 
f 476/339/6 478/339/6 479/339/6 480/339/6 
f 474/339/1 473/339/1 480/339/1 479/339/1 
f 473/339/7 472/339/7 476/339/7 480/339/7 
f 481/339/7 482/339/7 483/339/7 484/339/7 
f 485/339/3 481/339/3 484/339/3 486/339/3 
f 485/339/6 487/339/6 488/339/6 489/339/6 
f 490/339/6 491/339/6 482/339/6 481/339/6 
f 489/339/6 490/339/6 481/339/6 485/339/6 
f 492/339/1 488/339/1 487/339/1 493/339/1 
f 494/339/16 492/339/16 493/339/16 483/339/16 
f 491/339/1 494/339/1 483/339/1 482/339/1 
f 484/339/17 483/339/17 493/339/17 486/339/17 
f 487/339/8 485/339/8 486/339/8 493/339/8 
f 494/339/2 491/339/2 490/339/2 495/339/2 
f 492/339/6 494/339/6 495/339/6 496/339/6 
f 490/339/1 489/339/1 496/339/1 495/339/1 
f 489/339/7 488/339/7 492/339/7 496/339/7 
f 497/339/7 498/339/7 499/339/7 500/339/7 
f 501/339/9 497/339/9 500/339/9 502/339/9 
f 501/339/6 503/339/6 504/339/6 505/339/6 
f 506/339/6 507/339/6 498/339/6 497/339/6 
f 505/339/6 506/339/6 497/339/6 501/339/6 
f 508/339/1 504/339/1 503/339/1 509/339/1 
f 510/339/16 508/339/16 509/339/16 499/339/16 
f 507/339/1 510/339/1 499/339/1 498/339/1 
f 500/339/17 499/339/17 509/339/17 502/339/17 
f 503/339/11 501/339/11 502/339/11 509/339/11 
f 510/339/2 507/339/2 506/339/2 511/339/2 
f 508/339/6 510/339/6 511/339/6 512/339/6 
f 506/339/18 505/339/18 512/339/18 511/339/18 
f 505/339/4 504/339/4 508/339/4 512/339/4 
s 1
f 513/315/7 514/315/2 515/315/7 516/315/7 
s 2
f 517/315/1 518/315/1 519/315/1 520/315/1 
s 1
f 521/315/7 519/315/2 518/315/2 522/315/2 
s 2
f 523/315/1 515/315/1 514/315/1 524/315/1 
s 4
f 525/315/17 520/315/17 519/315/17 521/315/17 
s 2
f 526/316/6 527/316/6 528/316/6 529/316/6 
s 4
f 530/315/5 522/315/5 531/315/5 532/315/5 
s 1
f 533/340/2 534/340/2 522/340/2 518/340/2 
s 2
f 535/341/1 533/341/1 518/341/1 517/341/1 
s 1
f 536/341/7 537/341/7 516/341/7 515/341/7 
s 2
f 538/340/3 539/340/3 540/340/3 541/340/3 
s 1
f 542/316/2 543/316/2 544/316/2 545/316/2 
s off
f 546/316/6 547/316/6 548/316/6 549/316/6 
s 1
f 536/341/7 515/341/7 540/341/7 539/341/7 
s off
f 550/316/6 546/316/6 549/316/6 551/316/6 
s 2
f 552/316/6 544/316/6 553/316/6 554/316/6 
f 555/340/3 556/340/3 532/340/3 531/340/3 
s 1
f 538/342/7 541/342/7 557/342/7 558/342/7 
s 2
f 537/341/1 559/341/1 560/341/1 516/341/1 
f 559/341/1 535/341/1 517/341/1 560/341/1 
s 4
f 515/315/5 523/315/5 541/315/5 540/315/5 
f 523/315/5 530/315/5 532/315/5 541/315/5 
s off
f 561/316/6 562/316/6 563/316/6 564/316/6 
f 565/316/6 561/316/6 564/316/6 566/316/6 
s 4
f 514/315/5 513/315/5 567/315/5 524/315/5 
f 524/315/5 567/315/5 520/315/17 525/315/17 
s 2
f 522/315/1 530/315/1 525/315/1 521/315/1 
f 530/315/1 523/315/1 524/315/1 525/315/1 
f 516/315/1 560/315/1 567/315/1 513/315/1 
f 560/315/1 517/315/1 520/315/1 567/315/1 
f 568/342/3 558/342/3 557/342/3 569/342/3 
s 1
f 570/342/2 552/342/2 562/342/2 571/342/2 
s 4
f 541/315/5 532/315/5 569/315/5 557/315/5 
s 2
f 562/316/19 552/316/6 554/316/6 563/316/6 
s 1
f 529/316/2 528/316/2 572/316/2 573/316/2 
s 2
f 549/316/3 548/316/20 574/316/3 575/316/3 
f 551/316/3 549/316/3 575/316/3 576/316/3 
s off
f 554/316/1 553/316/1 577/316/1 578/316/1 
f 564/316/1 563/316/1 579/316/1 580/316/1 
f 566/316/2 564/316/2 580/316/2 581/316/2 
f 563/316/7 554/316/7 578/316/7 579/316/7 
s 2
f 544/316/6 543/316/6 582/316/6 553/316/6 
s off
f 527/316/6 565/316/6 566/316/6 528/316/6 
s 2
f 543/316/6 583/316/21 584/316/20 582/316/6 
s off
f 583/316/6 550/316/6 551/316/6 584/316/6 
s 2
f 547/316/21 526/316/6 529/316/6 548/316/20 
s 4
f 585/343/6 575/343/6 574/343/6 573/343/6 
f 585/343/6 573/343/6 572/343/6 581/343/6 
s 1
f 586/343/6 587/343/6 578/343/6 577/343/6 
s 4
f 587/343/6 585/343/6 581/343/6 578/343/6 
s 5
f 586/343/6 588/343/6 576/343/6 587/343/6 
s 4
f 587/343/6 576/343/6 575/343/6 585/343/6 
f 578/343/6 581/343/6 580/343/6 579/343/6 
s 8
f 553/316/7 582/316/7 586/316/7 577/316/7 
s off
f 528/316/1 566/316/1 581/316/1 572/316/1 
s 8
f 582/316/7 584/316/7 588/316/7 586/316/7 
s 2
f 584/316/20 551/316/3 576/316/3 588/316/3 
s 1
f 548/316/2 529/316/2 573/316/2 574/316/2 
s off
f 16/184/7 15/183/7 12/186/7 11/185/7 
f 32/184/7 31/183/7 28/186/7 27/185/7 
f 48/184/7 47/183/7 44/186/7 43/185/7 
f 64/184/7 63/183/7 60/186/7 59/185/7 
f 80/183/2 79/184/2 76/185/2 75/186/2 
f 96/183/2 95/184/2 92/185/2 91/186/2 
f 112/183/2 111/184/2 108/185/2 107/186/2 
f 128/183/2 127/184/2 124/185/2 123/186/2 
s 1
f 532/342/2 556/342/2 568/342/2 569/342/2 
s 2
f 571/342/3 589/342/3 558/342/3 568/342/3 
f 590/315/1 591/315/1 535/315/1 559/315/1 
f 592/315/1 590/315/1 559/315/1 537/315/1 
s 1
f 593/342/7 538/342/7 558/342/7 589/342/7 
s 2
f 545/315/3 570/315/3 556/315/3 555/315/3 
s 1
f 594/315/7 536/315/7 539/315/7 595/315/7 
f 522/340/2 534/340/2 555/340/2 531/340/2 
s 2
f 593/315/3 595/315/3 539/315/3 538/315/3 
s 1
f 594/315/7 592/315/7 537/315/7 536/315/7 
s 2
f 591/315/1 596/315/1 533/315/1 535/315/1 
s 1
f 596/315/2 542/315/2 534/315/2 533/315/2 
f 583/316/2 543/316/2 542/316/2 596/316/2 
s 2
f 550/316/1 583/316/21 596/316/1 591/316/1 
s 1
f 526/316/7 547/316/7 592/316/7 594/316/7 
s off
f 565/316/12 527/316/12 595/316/12 593/316/12 
f 526/316/7 594/316/7 595/316/7 527/316/7 
f 544/316/9 552/316/9 570/316/9 545/316/9 
s 1
f 565/342/7 593/342/7 589/342/7 561/342/7 
s 2
f 547/316/21 546/316/1 590/316/1 592/316/1 
f 546/316/1 550/316/1 591/316/1 590/316/1 
f 562/342/19 561/342/3 589/342/3 571/342/3 
s 1
f 556/342/2 570/342/2 571/342/2 568/342/2 
f 534/315/2 542/315/2 545/315/2 555/315/2 
s off
f 597/114/7 598/112/7 599/123/7 600/116/7 
s 1
f 601/112/12 602/106/9 603/106/9 598/112/12 
s off
f 601/112/6 604/110/6 605/107/6 602/106/6 
f 599/118/9 606/119/9 607/120/9 600/121/9 
f 598/112/5 603/106/5 606/122/5 599/123/5 
s 1
f 602/106/9 608/109/12 609/115/12 603/106/9 
f 608/109/12 610/113/9 597/114/9 609/115/12 
f 610/113/9 601/112/12 598/112/12 597/114/9 
s off
f 609/115/6 597/114/6 600/116/6 607/117/6 
f 603/106/2 609/115/2 607/117/2 606/122/2 
f 602/106/7 605/107/7 611/108/7 608/109/7 
f 604/110/2 601/112/2 610/113/2 612/111/2 
f 605/107/1 604/110/1 612/111/1 611/108/1 
f 608/109/5 611/108/5 612/111/5 610/113/5 
f 613/230/7 614/231/7 615/232/7 616/233/7 
f 614/231/1 617/234/1 618/235/1 615/232/1 
f 617/234/2 619/236/2 620/237/2 618/235/2 
s 1
f 616/233/12 620/237/9 621/238/9 622/239/12 
s off
f 616/233/5 615/232/5 618/235/5 620/237/5 
f 619/236/6 617/234/6 614/231/6 613/230/6 
f 622/239/6 621/238/6 623/240/6 624/241/6 
s 1
f 619/236/12 613/230/9 625/242/9 626/236/12 
f 620/237/9 619/236/12 626/236/12 621/238/9 
f 613/230/9 616/233/12 622/239/12 625/242/9 
s off
f 627/118/9 628/119/9 624/120/9 623/121/9 
f 626/236/5 625/242/5 628/243/5 627/244/5 
f 621/238/7 626/236/7 627/244/7 623/240/7 
f 625/242/2 622/239/2 624/241/2 628/243/2 
# 558 polygons

