# 3ds Max Wavefront OBJ Exporter v0.97b - (c)2007 guruware
# File Created: 15.03.2017 10:16:08

mtllib SPW_Natures_Mount_03.mtl

#
# object SPW_Natures_Mount_03
#

v  -971.9672 -0.0107 -503.9135
v  -973.9257 -0.0108 -407.8185
v  -901.1697 71.2917 -486.5576
v  -944.9122 -0.0107 -583.3983
v  -845.1987 71.0500 -651.7592
v  -971.0275 -0.0108 -329.6521
v  -879.6196 86.0106 -326.6613
v  -892.7961 -0.0107 -697.6958
v  -830.4990 452.1922 -492.4760
v  -866.7762 396.8911 -366.8178
v  -992.1153 -0.0108 -263.3841
v  -987.8621 5.6203 -257.7505
v  -791.9548 -0.0107 -804.7629
v  -786.0357 423.3290 -662.4341
v  -807.2155 450.2556 -284.3997
v  -786.1232 524.5056 -413.7404
v  -880.0315 90.5443 -105.2437
v  -1001.8477 -0.0108 -257.1875
v  -732.0139 -0.0106 -893.8307
v  -730.3708 86.3358 -806.4910
v  -761.1392 509.7010 -507.6867
v  -973.0114 18.9692 -146.5870
v  -814.4052 466.5188 -135.0975
v  -1012.4673 -0.0108 -246.3427
v  -666.4213 -0.0106 -951.6841
v  -612.6611 62.5180 -934.8037
v  -700.0837 428.4450 -761.4913
v  -664.3256 557.0244 -318.1521
v  -989.9684 70.2419 -35.4599
v  -1041.3632 -0.0108 -154.4879
v  -886.5714 425.8595 -10.0360
v  -593.4796 -0.0106 -1051.6678
v  -637.4898 149.0523 -825.6382
v  -680.9081 517.3726 -656.5860
v  -676.2393 592.8862 -506.0823
v  -748.3457 490.0914 -134.9806
v  -950.7126 135.3651 27.8351
v  -1117.2108 -0.0109 -88.1927
v  -1129.2241 -0.0109 -80.2467
v  -510.5263 -0.0106 -1081.6646
v  -500.9445 5.2690 -1075.8477
v  -554.7300 429.2407 -892.4507
v  -584.7907 810.2712 -562.3057
v  -591.8469 593.1994 -632.7317
v  -618.6940 798.9976 -367.7689
v  -582.3027 469.4590 -755.9161
v  -670.5052 591.5473 -138.5479
v  -614.1271 545.1669 -291.1427
v  -1077.1008 -0.0109 59.9247
v  -1080.5754 -0.0109 72.6227
v  -754.0753 572.2425 54.8516
v  -906.5377 494.7974 128.7170
v  -494.5624 -0.0106 -1101.8358
v  -463.1189 65.9771 -1000.9847
v  -708.7472 559.7606 0.0646
v  -622.0848 647.4822 -32.5886
v  -1075.9725 -0.0109 92.7294
v  -984.0132 69.0524 182.1805
v  -462.1788 -0.0106 -1167.0514
v  -475.5501 546.4709 -821.0783
v  -448.3263 462.2915 -934.2405
v  -518.6945 808.7631 -696.5671
v  -417.4943 866.1883 -513.9952
v  -565.8670 794.4439 -324.3411
v  -1076.7635 -0.0109 197.1564
v  -812.1239 543.7344 149.0978
v  -914.9670 415.4265 231.1702
v  -375.2496 -0.0106 -1119.3057
v  -356.7291 416.3349 -1012.1281
v  -433.5190 841.9500 -588.7708
v  -567.2915 833.9723 -38.3629
v  -666.0278 737.3288 128.6373
v  -615.0460 831.2563 59.6745
v  -1005.9070 -0.0110 228.5855
v  -820.5718 428.7032 311.6833
v  -866.3680 83.0361 331.1646
v  -362.8857 -0.0106 -1126.8728
v  -343.6233 77.1302 -1063.2111
v  -406.9837 792.8798 -852.2015
v  -270.9855 541.4081 -926.0874
v  -451.9211 830.6110 -224.5099
v  -298.4532 829.7535 -725.6748
v  -427.2412 877.6331 2.8528
v  -969.9064 -0.0110 278.9491
v  -716.0657 614.1185 203.9053
v  -281.9592 -0.0106 -1101.9873
v  -97.0357 482.7204 -991.0927
v  -53.5965 56.6105 -1058.6472
v  -333.9764 894.3907 -326.4323
v  -126.9799 910.1951 -649.0175
v  -605.4503 822.5264 237.0540
v  -312.0028 925.0337 141.0823
v  -967.7415 -0.0110 326.2806
v  -876.0562 70.3725 456.5681
v  -806.7596 451.8279 416.4913
v  -103.7970 -0.0106 -1092.2996
v  -249.7319 816.1877 -893.2341
v  -293.6968 913.2495 -170.8629
v  -262.1865 912.0975 -401.2468
v  -153.8191 828.5640 -878.3754
v  -389.4893 878.6903 294.9625
v  -244.8627 922.0067 -53.1684
v  -934.6467 -0.0110 458.0871
v  -738.9666 523.2792 358.6329
v  -618.8564 615.0733 284.7416
v  -47.4292 -0.0106 -1079.8151
v  -9.9247 756.2049 -1014.8346
v  -100.9483 925.6852 -477.6917
v  -564.7949 816.8489 372.4042
v  -151.5858 922.4994 61.5589
v  -268.5232 881.0695 274.4074
v  -772.3918 431.8289 549.1859
v  -886.9958 -0.0110 547.4306
v  -593.8589 617.1279 406.5316
v  -642.1680 573.8014 430.6331
v  -37.1336 -0.0106 -1068.9670
v  26.3544 -0.0106 -1056.2378
v  -21.6469 -0.0106 -1059.6620
v  -182.2581 956.6522 -213.1909
v  -38.6950 911.3733 -607.9200
v  -73.9607 868.5598 -840.8547
v  -88.0606 987.5201 -157.1555
v  -522.1645 813.4044 464.7604
v  -81.9661 943.1903 -45.9002
v  -114.5417 908.5024 190.8663
v  -292.7094 880.4287 434.8275
v  -153.5418 896.4572 309.8075
v  -815.9927 90.4387 563.0515
v  -605.5408 490.6162 624.5875
v  -862.2144 -0.0111 605.0440
v  -513.8174 585.5353 537.8152
v  103.1874 -0.0106 -981.4438
v  120.8586 22.6905 -961.9385
v  -98.5912 953.2537 -249.7710
v  8.7358 938.3897 -529.7772
v  87.0753 924.1252 -650.4938
v  99.3763 841.6759 -822.0049
v  13.2617 932.8464 12.4941
v  -33.2649 943.6717 115.3244
v  -64.8833 856.0815 431.6548
v  -726.3723 75.2835 648.4600
v  -668.1760 417.5933 666.7781
v  -815.4133 -0.0111 642.7158
v  121.3617 -0.0106 -972.0180
v  140.0868 761.4258 -910.8439
v  49.8989 948.5298 -294.4420
v  6.3791 908.6395 -413.0132
v  -384.1201 804.3109 610.7462
v  61.6081 971.6538 -181.4303
v  112.0009 963.7559 -131.2135
v  41.3575 903.1759 329.4457
v  -154.9203 804.9543 657.7102
v  -420.5650 514.3000 666.8984
v  -755.7074 -0.0111 683.9279
v  126.1485 -0.0106 -966.5278
v  204.9497 -0.0106 -948.9314
v  130.9896 -0.0106 -961.6630
v  177.6804 1007.7860 -430.3429
v  248.3240 882.3715 -687.7126
v  182.0217 976.1533 -1.0040
v  71.8984 942.1953 202.8593
v  -63.9086 822.4111 554.3964
v  -286.1070 790.2616 636.4136
v  62.3496 834.8558 518.2679
v  -706.6964 22.1781 833.6133
v  -588.9754 117.1438 816.4868
v  -538.3950 415.8834 805.8334
v  -502.8795 521.0350 694.9305
v  -332.4774 514.7245 681.5461
v  -728.4124 -0.0111 792.2109
v  257.2550 762.0455 -859.3502
v  243.2767 -0.0106 -910.9243
v  155.9323 1000.2697 -285.9108
v  293.6335 957.0637 -519.3372
v  187.1316 960.8871 -126.7722
v  148.3770 955.3188 78.9792
v  162.1325 923.2483 301.2913
v  24.5255 817.5019 675.8828
v  -253.0558 796.0512 735.1506
v  -173.8658 554.1322 743.2892
v  249.8349 920.3114 441.7878
v  -424.8897 439.8382 854.5884
v  -717.7761 -0.0111 839.9514
v  262.1140 -0.0106 -902.6516
v  285.4957 995.8674 -391.9827
v  323.9493 887.7526 -686.7041
v  369.5075 892.4534 -615.6703
v  -307.5363 515.7787 763.1110
v  272.5575 970.6292 1.1944
v  182.2879 960.9698 214.7022
v  288.9216 976.2122 127.1528
v  285.8150 864.2440 670.2975
v  -447.2427 117.8459 900.1565
v  -337.6507 463.6916 833.7767
v  -706.8102 -0.0111 852.0697
v  310.4122 -0.0106 -899.9886
v  363.3240 1011.1255 -384.4539
v  361.7194 752.6250 -812.2311
v  506.6680 1004.7424 -460.3213
v  281.9035 963.8201 -235.6591
v  363.3837 937.2784 391.9579
v  175.0510 852.4899 672.1970
v  -9.4940 586.1375 726.2035
v  373.4712 878.8104 509.2734
v  -687.1166 -0.0111 875.6584
v  -521.2972 -0.0112 995.1599
v  -344.8979 462.6769 972.7361
v  352.4334 -0.0106 -860.8063
v  420.8396 1027.6625 -264.8860
v  453.1655 784.5396 -710.5166
v  369.9322 -0.0106 -852.8206
v  560.5236 943.2294 -517.6844
v  374.5749 996.4164 -89.4449
v  374.8829 1001.3409 135.8830
v  379.9893 1019.4557 -4.9067
v  399.4681 961.5687 247.1016
v  101.6892 826.6752 736.9771
v  -41.2352 543.8025 783.2272
v  -270.0517 456.5467 868.5449
v  183.1084 705.6447 727.4279
v  316.7640 653.4429 750.3570
v  427.1815 829.3046 644.7845
v  -457.9285 -0.0112 1063.1309
v  -442.5676 12.7292 1060.7507
v  412.7294 -0.0106 -852.5061
v  471.0930 -0.0107 -756.9413
v  462.2533 -0.0107 -766.5148
v  814.5013 857.0713 -297.7656
v  450.1369 899.2596 492.0172
v  536.7688 924.2996 391.7236
v  -150.3258 498.3935 902.9650
v  17.4498 512.7080 885.1624
v  155.2095 483.1011 961.8880
v  152.4741 626.5718 795.2374
v  -297.5813 108.1334 1030.3811
v  -452.9582 -0.0112 1080.4774
v  -259.5929 417.3612 993.8430
v  534.8990 982.2493 -322.1951
v  540.5610 749.9647 -695.8583
v  414.8360 -0.0107 -811.3986
v  507.4133 -0.0107 -750.5258
v  452.0703 -0.0107 -811.4467
v  627.8867 982.6259 -273.4789
v  735.6320 926.9446 -235.0463
v  608.8681 929.4240 -75.7574
v  580.3427 957.3415 -182.8524
v  498.5122 978.3260 55.9810
v  489.5176 965.8547 150.6044
v  -49.2340 513.8344 946.5640
v  540.8632 580.0340 653.9045
v  557.1511 839.5524 576.7704
v  432.1734 564.0814 704.2046
v  -407.8927 -0.0112 1113.4718
v  526.5875 -0.0107 -746.8216
v  819.2587 -0.0108 -438.6211
v  772.2824 -0.0107 -503.7277
v  639.6409 937.7292 10.4143
v  645.4276 912.0674 272.0803
v  -104.5036 467.6529 1024.0404
v  229.3080 410.2116 969.7609
v  285.3018 463.1736 877.0048
v  413.3513 419.0222 864.7292
v  -321.1427 2.7119 1127.5117
v  -320.1754 -0.0112 1137.0480
v  -194.1750 146.8830 1075.2327
v  564.8944 -0.0107 -708.3557
v  676.3127 918.4884 -173.1630
v  800.1384 883.3585 -138.2738
v  837.1221 -0.0108 -435.8888
v  919.3035 748.2566 -299.7107
v  736.5101 -0.0107 -540.6093
v  747.8935 909.7587 12.4366
v  650.9063 926.8686 160.3007
v  662.2002 830.0022 518.0134
v  722.9643 843.6116 340.1487
v  118.6791 409.9991 1022.5150
v  211.4675 84.3148 1029.5881
v  692.5579 554.4305 553.4412
v  549.0630 434.7981 766.7922
v  -263.9031 -0.0112 1218.4514
v  -238.2759 22.0271 1189.6696
v  605.7562 -0.0107 -669.0329
v  967.1055 756.6353 -147.9021
v  880.4539 -0.0108 -389.6195
v  694.2396 -0.0107 -582.8783
v  831.1403 865.4955 152.5654
v  -10.4077 131.3595 1079.2659
v  307.0390 96.6968 942.1933
v  417.3387 46.5862 928.4321
v  857.8330 412.2125 486.0938
v  546.5971 54.2366 826.1519
v  -183.4681 -0.0112 1229.8859
v  650.8130 -0.0107 -625.8799
v  871.0887 847.9021 57.4349
v  963.5873 788.4457 -53.1937
v  919.3154 -0.0108 -351.9466
v  977.1122 -0.0108 -239.6374
v  970.4838 -0.0108 -260.4986
v  775.5710 797.5458 463.4485
v  105.1944 57.9022 1077.9585
v  272.8395 -0.0112 1056.6249
v  344.1221 -0.0112 999.7634
v  -113.8164 -0.0112 1252.1608
v  -76.1942 -0.0112 1249.0132
v  1009.9249 -0.0109 -65.0629
v  1010.1919 -0.0109 -80.3239
v  961.3051 -0.0108 -312.8779
v  1007.8624 -0.0108 -201.9368
v  971.4456 752.8816 317.0853
v  73.7937 -0.0112 1195.1483
v  83.8428 -0.0112 1185.4534
v  94.0342 -0.0112 1185.5225
v  362.2766 -0.0112 986.2310
v  428.1110 -0.0112 956.7466
v  257.1808 -0.0112 1069.9203
v  438.7893 -0.0112 947.9449
v  541.1028 -0.0111 871.6016
v  914.8433 752.8389 424.2344
v  849.7396 62.5032 545.9253
v  925.9460 783.7683 76.1526
v  1006.3765 -0.0109 -25.5175
v  1011.6082 -0.0109 -121.0360
v  1010.2997 -0.0108 -163.4970
v  948.1414 761.7195 210.0984
v  200.5130 -0.0112 1118.4558
v  248.9251 -0.0112 1077.1908
v  564.5828 -0.0111 849.7588
v  788.9135 -0.0111 646.8827
v  997.9612 -0.0109 3.1695
v  1004.4843 34.1610 348.5763
v  984.4984 -0.0109 202.9648
v  982.8580 -0.0109 195.2890
v  231.7807 -0.0112 1091.6884
v  923.3474 -0.0110 516.2033
v  1007.7097 -0.0110 472.9713
v  821.3309 -0.0111 618.2449
v  991.6301 -0.0109 39.5596
v  995.9069 -0.0109 67.9294
v  997.4550 -0.0110 291.3841
v  1008.4033 -0.0110 387.3477
v  888.3236 -0.0110 555.9669
v  831.7125 -0.0111 609.4957
v  1014.2552 -0.0110 330.4209
v  1027.8071 -0.0110 355.5395
v  873.9111 -0.0111 571.7490
v  842.8375 -0.0111 599.5206
v  1015.1125 -0.0110 341.4440
v  866.8016 -0.0111 578.0056
v  854.5141 -0.0111 588.9603
# 349 vertices

vn -0.7078 0.7063 -0.0144
vn -0.6922 0.7216 0.0139
vn -0.6955 0.7185 0.0080
vn -0.6633 0.7135 -0.2258
vn -0.6855 0.7276 0.0254
vn -0.6839 0.6596 -0.3118
vn -0.9335 0.1683 -0.3165
vn -0.9901 0.0575 0.1282
vn -0.6661 0.7151 -0.2120
vn -0.5328 0.6813 -0.5019
vn -0.9637 0.1757 -0.2009
vn -0.9497 0.1512 -0.2741
vn -0.8549 0.2702 0.4428
vn -0.6033 0.7973 -0.0174
vn -0.3356 0.7808 -0.5271
vn -0.7175 0.5021 -0.4829
vn -0.8470 0.5314 -0.0107
vn -0.6478 0.7048 -0.2892
vn -0.8030 0.1172 -0.5843
vn -0.6058 0.7954 -0.0146
vn -0.9852 0.1715 -0.0053
vn -0.3615 0.8625 -0.3540
vn -0.5238 0.6107 -0.5939
vn -0.6482 0.7067 -0.2837
vn -0.7505 0.1511 -0.6434
vn -0.9769 0.2022 -0.0691
vn -0.4989 0.7843 0.3689
vn -0.4215 0.7972 -0.4321
vn -0.2580 0.9627 -0.0811
vn -0.8761 0.1158 -0.4679
vn -0.6144 0.6493 -0.4482
vn -0.5296 0.6019 -0.5976
vn -0.1157 0.9760 -0.1846
vn -0.6420 0.7014 -0.3098
vn -0.6904 0.7013 0.1776
vn -0.5758 0.6726 -0.4649
vn -0.2959 0.1503 -0.9433
vn -0.3336 0.9353 -0.1179
vn -0.4491 0.7471 -0.4901
vn -0.2891 0.8517 -0.4371
vn -0.2298 0.9370 -0.2629
vn -0.3342 0.9359 0.1114
vn -0.8583 0.1246 -0.4978
vn -0.1760 0.8557 -0.4867
vn -0.9160 0.1858 -0.3556
vn -0.7589 0.4115 -0.5047
vn -0.9737 0.2043 0.1007
vn -0.2368 0.7620 -0.6027
vn -0.6459 0.2669 -0.7153
vn -0.6899 0.7219 -0.0527
vn 0.3118 0.9350 -0.1690
vn -0.7393 0.6423 -0.2023
vn -0.4889 0.8532 0.1818
vn -0.6245 0.7097 -0.3260
vn -0.9566 0.1815 -0.2278
vn -0.3362 0.9034 -0.2661
vn -0.2529 0.8100 -0.5291
vn -0.4022 0.1675 -0.9001
vn -0.9251 0.3527 -0.1408
vn -0.4102 0.2568 0.8751
vn -0.3663 0.6421 -0.6734
vn -0.7922 0.6050 -0.0798
vn -0.2437 0.8992 -0.3633
vn -0.6862 0.7102 0.1571
vn -0.5658 0.7031 -0.4307
vn -0.2290 0.8908 -0.3924
vn -0.9769 0.1599 -0.1420
vn -0.0831 0.9259 -0.3684
vn -0.6005 0.7419 -0.2982
vn -0.1783 0.9141 -0.3642
vn -0.6765 0.6581 -0.3305
vn -0.4048 0.1665 -0.8991
vn -0.8833 0.1704 -0.4368
vn -0.3169 0.9484 -0.0003
vn -0.6082 0.2193 0.7629
vn -0.7963 0.2459 -0.5527
vn -0.7180 0.6949 -0.0387
vn -0.5977 0.8017 -0.0045
vn -0.4579 0.8889 -0.0132
vn -0.9804 0.1864 0.0638
vn 0.1983 0.9113 -0.3610
vn -0.4428 0.6651 -0.6013
vn -0.5936 0.1551 -0.7896
vn -0.2237 0.9671 -0.1210
vn -0.1309 0.9568 0.2596
vn -0.2404 0.9373 -0.2523
vn -0.9719 0.2231 -0.0749
vn -0.6567 0.5395 -0.5270
vn -0.8745 0.2440 -0.4192
vn -0.3255 0.5963 0.7338
vn -0.7743 0.5516 -0.3101
vn -0.4982 0.7140 0.4920
vn -0.7861 0.0698 0.6142
vn -0.4008 0.6406 -0.6549
vn -0.7963 0.1475 -0.5866
vn -0.9058 0.2052 -0.3706
vn -0.2635 0.6628 -0.7009
vn -0.4672 0.1140 -0.8768
vn -0.1327 0.9719 -0.1944
vn -0.3583 0.9308 0.0718
vn -0.1851 0.9458 -0.2669
vn -0.1901 0.9724 -0.1354
vn -0.9033 0.2196 -0.3686
vn -0.2681 0.9577 -0.1043
vn -0.2681 0.9577 -0.1046
vn -0.2680 0.9578 -0.1040
vn -0.6825 0.5442 0.4879
vn -0.6803 0.5630 0.4693
vn -0.6540 0.1287 0.7455
vn 0.2390 0.5818 -0.7774
vn -0.0663 0.2481 -0.9665
vn -0.0909 0.6060 -0.7903
vn 0.0330 0.1555 -0.9873
vn -0.1070 0.9754 -0.1925
vn -0.4351 0.8984 0.0587
vn -0.2838 0.9055 -0.3154
vn -0.2472 0.9539 -0.1704
vn -0.8537 0.5159 0.0716
vn -0.2682 0.9576 -0.1048
vn -0.6343 0.7726 0.0290
vn -0.6792 0.6154 0.4001
vn -0.8835 0.4462 0.1430
vn -0.9856 0.1362 0.0998
vn 0.0477 0.4788 -0.8766
vn -0.2688 0.1348 -0.9537
vn -0.3061 0.1363 -0.9422
vn -0.1787 0.9752 -0.1309
vn -0.4665 0.8844 0.0136
vn -0.2655 0.9637 -0.0267
vn -0.2020 0.9723 -0.1177
vn -0.2445 0.9398 -0.2389
vn -0.4208 0.8963 -0.1397
vn -0.2667 0.9618 0.0618
vn -0.2659 0.9581 -0.1068
vn -0.3228 0.9388 0.1202
vn -0.9833 0.1725 -0.0585
vn -0.7527 0.6307 0.1890
vn -0.7899 0.5727 0.2193
vn -0.6260 0.2129 0.7502
vn -0.7441 0.6663 -0.0490
vn 0.2016 0.3622 -0.9101
vn 0.1039 0.3236 -0.9405
vn -0.5022 0.0852 -0.8606
vn -0.2816 0.9586 -0.0433
vn -0.1175 0.9905 -0.0717
vn -0.2297 0.9730 0.0229
vn -0.2808 0.9517 0.1243
vn 0.0097 0.9999 -0.0122
vn 0.0328 0.9523 0.3033
vn -0.9408 0.1997 0.2738
vn -0.7077 0.5973 0.3774
vn -0.4727 0.8380 0.2726
vn -0.9484 0.1280 0.2902
vn -0.5897 0.7662 0.2552
vn 0.5885 0.3074 -0.7478
vn 0.6875 0.3188 -0.6525
vn 0.5893 0.3075 -0.7471
vn -0.6435 0.1396 -0.7526
vn 0.0710 0.0579 -0.9958
vn -0.3810 0.9228 -0.0567
vn -0.1593 0.9737 -0.1630
vn 0.0308 0.9950 -0.0946
vn -0.3191 0.9040 -0.2844
vn -0.3429 0.9368 0.0687
vn -0.2656 0.9510 0.1581
vn -0.1328 0.9857 0.1037
vn 0.0605 0.9941 0.0903
vn -0.0195 0.9998 0.0011
vn -0.2349 0.8978 0.3726
vn -0.8739 0.1306 0.4683
vn -0.4173 0.8764 0.2402
vn -0.7692 0.5467 0.3309
vn -0.9652 0.1738 0.1952
vn -0.5246 0.6432 0.5578
vn -0.5814 0.7790 0.2350
vn 0.4925 0.2926 -0.8197
vn -0.1361 0.8087 -0.5723
vn 0.6957 0.0725 -0.7147
vn -0.0121 0.9927 -0.1199
vn -0.2079 0.9565 -0.2045
vn -0.0638 0.9920 0.1086
vn 0.1686 0.9719 -0.1643
vn -0.2565 0.9522 0.1657
vn -0.8867 0.2002 0.4168
vn -0.1360 0.9178 0.3731
vn -0.0066 0.9827 0.1849
vn -0.2498 0.9524 0.1747
vn 0.0533 0.9916 0.1179
vn 0.0126 0.9899 0.1410
vn -0.6749 0.1158 0.7287
vn -0.7107 0.2447 0.6595
vn -0.5031 0.7953 0.3382
vn -0.5180 0.5635 0.6435
vn -0.5093 0.5519 0.6603
vn -0.5056 0.5470 0.6673
vn -0.4543 0.7626 0.4605
vn 0.1853 0.8552 -0.4841
vn 0.5598 0.3466 -0.7526
vn 0.4268 0.3749 -0.8230
vn 0.5297 0.3540 -0.7708
vn 0.5682 0.0420 -0.8218
vn -0.0045 0.9928 -0.1200
vn -0.1081 0.9363 -0.3341
vn -0.1737 0.9585 -0.2260
vn 0.0051 0.9690 0.2470
vn -0.0614 0.8978 -0.4360
vn -0.2352 0.9306 0.2804
vn -0.8294 0.1428 0.5400
vn 0.1557 0.9205 0.3583
vn -0.0160 0.9797 0.1997
vn -0.1069 0.9826 -0.1518
vn -0.1847 0.9519 0.2444
vn -0.0430 0.9953 0.0867
vn 0.1062 0.9599 0.2594
vn -0.0682 0.9312 0.3582
vn -0.2344 0.7695 0.5940
vn -0.4852 0.5201 0.7029
vn 0.3454 0.7697 -0.5369
vn 0.7203 0.2948 -0.6280
vn 0.1693 0.0636 -0.9835
vn -0.0283 0.9799 -0.1976
vn 0.3826 0.8241 -0.4177
vn 0.0423 0.9355 -0.3509
vn -0.2314 0.9372 -0.2609
vn -0.4741 0.8555 0.2084
vn 0.1349 0.8968 -0.4214
vn -0.7070 0.1923 0.6805
vn -0.0251 0.9834 0.1799
vn -0.2454 0.9686 0.0397
vn 0.0735 0.9947 -0.0715
vn -0.1919 0.9500 0.2465
vn 0.1136 0.9584 0.2620
vn -0.0864 0.9084 0.4091
vn -0.0804 0.9344 0.3470
vn -0.7725 0.3093 0.5546
vn -0.5075 0.7140 0.4824
vn -0.0410 0.9375 -0.3456
vn -0.5498 0.2249 0.8045
vn -0.8697 0.4421 0.2192
vn 0.2519 0.7727 -0.5826
vn 0.6775 0.2942 -0.6742
vn 0.7009 0.0951 -0.7068
vn -0.4252 0.8944 -0.1389
vn -0.5060 0.8564 -0.1024
vn 0.1014 0.9154 -0.3896
vn 0.2723 0.7945 -0.5428
vn 0.1316 0.8925 -0.4313
vn -0.2224 0.1939 0.9555
vn -0.0597 0.9752 0.2132
vn 0.0449 0.9919 -0.1186
vn -0.2343 0.9603 0.1516
vn -0.1652 0.9862 0.0025
vn -0.0957 0.9575 0.2721
vn -0.0193 0.9642 0.2646
vn -0.0793 0.9920 0.0978
vn 0.4898 0.5419 0.6830
vn -0.2645 0.8971 0.3540
vn -0.7223 0.1464 0.6759
vn -0.5364 0.6915 0.4838
vn 0.1988 0.9094 0.3654
vn -0.8554 0.4816 0.1906
vn 0.4015 0.0545 -0.9142
vn -0.4372 0.8992 -0.0190
vn 0.2013 0.9405 -0.2737
vn -0.0504 0.8166 -0.5751
vn 0.1887 0.8779 -0.4402
vn -0.9335 0.2078 0.2923
vn 0.0232 0.9715 0.2359
vn 0.0633 0.9910 -0.1177
vn 0.0520 0.9608 0.2722
vn -0.1556 0.9878 -0.0022
vn -0.1387 0.9845 0.1071
vn -0.1936 0.9151 0.3536
vn -0.0715 0.9932 0.0922
vn -0.1179 0.3286 0.9371
vn -0.3051 0.9127 0.2720
vn -0.4014 0.6193 0.6748
vn -0.5054 0.1161 0.8551
vn -0.3949 0.7265 0.5624
vn -0.1650 0.9181 0.3604
vn -0.0028 0.9999 -0.0121
vn -0.6464 0.4899 0.5850
vn 0.3992 0.0766 -0.9137
vn 0.0550 0.0570 -0.9969
vn 0.4182 0.0774 -0.9051
vn 0.0868 0.9941 0.0648
vn -0.1560 0.9421 -0.2970
vn -0.0707 0.9973 -0.0207
vn 0.3489 0.6883 -0.6360
vn -0.0256 0.8208 -0.5707
vn 0.1985 0.9598 0.1986
vn -0.0668 0.9973 -0.0313
vn -0.1383 0.9901 -0.0259
vn -0.1090 0.9901 0.0887
vn -0.2196 0.9121 0.3462
vn -0.2248 0.9729 0.0532
vn 0.0620 0.2034 0.9771
vn 0.1254 0.0743 0.9893
vn -0.1061 0.9937 -0.0362
vn 0.2111 0.9565 0.2014
vn -0.4090 0.7145 0.5676
vn -0.4644 0.7141 0.5239
vn -0.4472 0.7146 0.5379
vn -0.4174 0.1557 0.8953
vn -0.2652 0.9642 -0.0068
vn -0.3826 0.8140 0.4370
vn -0.6763 0.4731 0.5646
vn 0.6794 0.0863 -0.7287
vn 0.1973 0.9595 0.2012
vn -0.1880 0.9811 -0.0453
vn -0.1239 0.9415 -0.3133
vn 0.5299 0.7533 -0.3897
vn 0.4146 0.0535 -0.9084
vn 0.4297 0.6761 -0.5985
vn 0.1417 0.7386 -0.6590
vn -0.2769 0.9601 -0.0385
vn -0.3573 0.9321 0.0589
vn -0.0241 0.9894 0.1430
vn 0.0598 0.8954 0.4411
vn -0.0264 0.9869 0.1589
vn -0.2212 0.9659 0.1344
vn -0.1030 0.8252 0.5553
vn -0.6189 0.2528 0.7437
vn -0.1615 0.8348 0.5264
vn -0.0223 0.3516 0.9359
vn 0.2727 0.9335 0.2329
vn -0.5148 0.7104 0.4800
vn -0.8324 0.1339 0.5377
vn 0.0988 0.9950 0.0124
vn -0.1855 0.8271 0.5306
vn -0.3799 0.9079 0.1774
vn -0.0227 0.9917 -0.1263
vn 0.1571 0.7179 -0.6782
vn 0.6925 0.0853 -0.7164
vn 0.0073 0.0539 -0.9985
vn 0.6752 0.0850 -0.7327
vn 0.7335 0.0568 -0.6773
vn 0.5424 0.7757 -0.3225
vn -0.4142 0.8845 -0.2145
vn -0.4073 0.9116 0.0549
vn -0.2949 0.8772 0.3789
vn -0.1338 0.8823 0.4512
vn 0.0736 0.9804 0.1827
vn 0.5622 0.3180 0.7634
vn -0.0269 0.9426 0.3330
vn -0.1174 0.8938 0.4328
vn -0.4197 0.1539 0.8945
vn -0.3977 0.8465 0.3541
vn -0.1536 0.9069 0.3922
vn 0.2537 0.3758 0.8913
vn -0.6202 0.2781 0.7335
vn -0.6123 0.7710 0.1754
vn 0.4080 0.8805 0.2413
vn 0.3982 0.9148 0.0676
vn 0.3602 0.6119 -0.7041
vn 0.9962 0.0703 -0.0511
vn 0.1818 0.0626 -0.9813
vn 0.1736 0.0621 -0.9829
vn 0.1887 0.0630 -0.9800
vn 0.9687 0.1161 -0.2195
vn 0.6492 0.0771 -0.7567
vn 0.6829 0.0812 -0.7260
vn 0.5191 0.8189 -0.2448
vn 0.6637 0.4688 -0.5829
vn 0.2793 0.9217 -0.2691
vn 0.2750 0.9374 0.2136
vn 0.2635 0.9555 0.1325
vn 0.2517 0.9276 0.2761
vn 0.0716 0.9514 0.2994
vn 0.1113 0.9828 0.1476
vn 0.6176 0.3603 0.6991
vn -0.2184 0.9617 0.1658
vn 0.1877 0.9644 0.1861
vn -0.4240 0.6829 0.5949
vn -0.3911 0.8686 0.3043
vn 0.1100 0.6221 0.7752
vn 0.3697 0.5017 0.7821
vn 0.4929 0.1990 0.8470
vn -0.2955 0.8659 0.4036
vn -0.1692 0.1361 0.9761
vn -0.0980 0.9789 0.1794
vn 0.3864 0.9215 0.0387
vn 0.1893 0.0631 -0.9799
vn 0.4859 0.0847 -0.8699
vn -0.0013 -0.0012 -1.0000
vn 0.5339 0.1400 -0.8339
vn 0.8069 0.1002 -0.5822
vn 0.5957 0.1335 -0.7920
vn 0.3049 0.9314 -0.1987
vn 0.2745 0.9496 0.1513
vn 0.2959 0.9528 0.0676
vn 0.1925 0.9000 0.3910
vn 0.2396 0.9635 0.1191
vn -0.2818 0.8991 0.3349
vn 0.1377 0.9817 0.1316
vn 0.4837 0.6471 0.5893
vn -0.3501 0.8677 0.3528
vn 0.1410 0.5323 0.8347
vn 0.3854 0.2086 0.8989
vn 0.6361 0.5339 0.5570
vn -0.3089 0.6809 0.6641
vn -0.0755 0.9568 0.2809
vn -0.4775 0.3330 0.8131
vn -0.1144 0.9708 0.2108
vn 0.7081 0.0347 -0.7052
vn 0.3009 0.8627 0.4063
vn 0.6293 0.7739 -0.0709
vn 0.1492 0.1612 -0.9756
vn 0.7171 0.0434 -0.6956
vn 0.2492 0.9514 -0.1807
vn 0.3587 0.9221 0.1448
vn 0.2238 0.9633 0.1482
vn 0.2903 0.9558 0.0474
vn 0.2884 0.8822 0.3723
vn 0.4503 0.8321 0.3239
vn 0.2247 0.9645 0.1387
vn 0.2032 0.7705 0.6042
vn 0.0360 0.6272 0.7780
vn 0.0693 0.1765 0.9819
vn -0.2551 0.2215 0.9412
vn 0.2537 0.5066 0.8240
vn 0.5643 0.2025 0.8004
vn 0.3365 0.6391 0.6916
vn -0.4172 0.8618 0.2884
vn 0.3084 0.8620 0.4023
vn 0.6930 0.0345 -0.7201
vn 0.1808 0.9363 0.3012
vn 0.5999 0.7963 -0.0772
vn 0.7292 0.0442 -0.6829
vn 0.6940 0.6730 -0.2557
vn 0.7066 0.0383 -0.7066
vn 0.1462 0.9892 -0.0098
vn 0.2489 0.9672 0.0514
vn 0.4380 0.8725 0.2164
vn 0.4929 0.1641 0.8545
vn 0.4316 0.8330 0.3461
vn 0.3245 0.9355 0.1398
vn 0.0522 0.1760 0.9830
vn 0.7006 0.2144 0.6806
vn 0.8064 0.1496 0.5722
vn 0.6644 0.0996 0.7407
vn -0.0082 0.1598 0.9871
vn 0.1751 0.1751 0.9689
vn 0.5622 0.2858 0.7760
vn 0.5977 0.5128 0.6163
vn 0.5713 0.1229 0.8115
vn -0.5416 0.6639 0.5157
vn -0.0797 0.8244 0.5603
vn 0.6913 0.0343 -0.7218
vn 0.3744 0.9267 -0.0326
vn 0.5780 0.7798 -0.2405
vn 0.6952 0.0501 -0.7171
vn 0.9519 0.0493 -0.3025
vn 0.7031 0.0371 -0.7101
vn 0.3246 0.9401 0.1041
vn 0.3540 0.9155 0.1910
vn 0.4654 0.1631 0.8699
vn 0.2403 0.9385 0.2481
vn 0.1069 0.1507 0.9828
vn 0.3840 0.1293 0.9142
vn 0.5098 0.5759 0.6391
vn 0.4993 0.5765 0.6468
vn 0.5072 0.5761 0.6410
vn 0.5147 0.5778 0.6334
vn 0.0522 0.7799 0.6238
vn 0.6093 0.1400 0.7805
vn 0.4835 0.1539 0.8617
vn 0.6730 0.1097 0.7314
vn 0.6731 0.1096 0.7314
vn 0.6730 0.1097 0.7315
vn -0.2175 0.7001 0.6801
vn 0.5139 0.8573 -0.0310
vn 0.9981 0.0584 0.0175
vn 0.9979 0.0591 0.0256
vn 0.9982 0.0598 -0.0051
vn 0.9845 0.0608 0.1644
vn 0.6803 0.0511 -0.7312
vn 0.9250 0.0764 -0.3723
vn 0.7720 0.0866 -0.6297
vn 0.9833 0.0582 -0.1723
vn 0.4427 0.8964 0.0201
vn 0.3971 0.8792 0.2632
vn 0.4718 0.7337 0.4890
vn -0.0032 0.8806 0.4738
vn 0.3429 0.5444 0.7655
vn 0.4382 0.5386 0.7197
vn 0.3654 0.5436 0.7556
vn 0.5315 0.5823 0.6152
vn 0.5264 0.5819 0.6200
vn 0.5302 0.5822 0.6164
vn 0.4881 0.5770 0.6548
vn 0.2335 0.7231 0.6501
vn 0.5103 0.5213 0.6839
vn 0.3047 0.1206 0.9448
vn 0.5633 0.1433 0.8137
vn 0.7055 0.6705 0.2296
vn 0.9944 0.0571 0.0892
vn 0.9976 0.0599 0.0347
vn 0.9963 0.0582 -0.0632
vn 0.6819 0.7284 0.0670
vn 0.3469 0.9197 0.1836
vn 0.6852 0.7229 -0.0895
vn 0.4116 0.6352 0.6535
vn 0.5416 0.5244 0.6570
vn 0.5371 0.5828 0.6098
vn 0.5982 0.4782 0.6430
vn 0.0717 0.1666 0.9834
vn 0.5889 0.4786 0.6512
vn 0.9708 0.0678 0.2302
vn 0.9577 0.0618 0.2809
vn 0.9587 0.0622 0.2777
vn 0.9979 0.0576 -0.0308
vn 0.8826 0.0610 0.4662
vn 0.9827 0.0443 -0.1799
vn 0.9768 0.0486 -0.2087
vn 0.9783 0.0475 -0.2014
vn 0.5287 0.5822 0.6176
vn 0.5270 0.5826 0.6188
vn 0.5245 0.5832 0.6203
vn 0.4531 0.1131 0.8842
vn 0.8446 0.1377 0.5175
vn 0.7822 0.1358 0.6080
vn 0.5761 0.4927 0.6522
vn 0.9825 0.0744 0.1709
vn 0.9968 0.0696 -0.0381
vn 0.9849 0.0895 -0.1485
vn 0.9885 0.0853 -0.1248
vn 0.9887 0.0391 -0.1449
vn 0.9944 0.0827 -0.0662
vn 0.9924 0.1229 0.0080
vn 0.9939 0.0433 0.1018
vn 0.6521 0.4948 0.5744
vn 0.5546 0.5093 0.6581
vn 0.8853 0.3888 -0.2553
vn 0.8305 0.4273 -0.3574
vn 0.8757 0.3967 -0.2754
vn 0.7031 0.5672 0.4289
vn 0.6432 0.4913 0.5873
vn 0.5813 0.4917 0.6483
vn 0.5825 0.4910 0.6478
vn 0.9478 0.3102 -0.0737
vn 0.6967 0.3477 -0.6275
vn 0.5750 0.4923 0.6534
vn 0.5848 0.4898 0.6466
vn 0.5795 0.4917 0.6500
vn -0.0000 -1.0000 -0.0000
vn 0.0000 -1.0000 -0.0000
vn -0.0000 -1.0000 0.0000
vn 0.0000 -1.0000 0.0000
# 549 vertex normals

vt 0.6781 0.2250 0.0000
vt 0.7281 0.2750 0.0000
vt 0.7281 0.2250 0.0000
vt 0.6781 0.2750 0.0000
vt 0.6820 0.0570 0.0000
vt 0.7320 0.1070 0.0000
vt 0.7320 0.0570 0.0000
vt 0.6820 0.1070 0.0000
vt 0.6781 0.2211 0.0000
vt 0.7281 0.2711 0.0000
vt 0.7281 0.2211 0.0000
vt 0.7018 0.2750 0.0000
vt 0.7005 0.2749 0.0000
vt 0.6992 0.2747 0.0000
vt 0.7031 0.2750 0.0000
vt 0.6980 0.2745 0.0000
vt 0.6967 0.2742 0.0000
vt 0.6955 0.2738 0.0000
vt 0.6942 0.2734 0.0000
vt 0.6885 0.2703 0.0000
vt 0.6930 0.2729 0.0000
vt 0.6919 0.2723 0.0000
vt 0.6896 0.2710 0.0000
vt 0.6907 0.2717 0.0000
vt 0.6875 0.2695 0.0000
vt 0.6865 0.2687 0.0000
vt 0.6856 0.2678 0.0000
vt 0.6847 0.2669 0.0000
vt 0.6838 0.2659 0.0000
vt 0.6830 0.2649 0.0000
vt 0.6799 0.2592 0.0000
vt 0.6823 0.2638 0.0000
vt 0.6816 0.2627 0.0000
vt 0.6810 0.2616 0.0000
vt 0.6804 0.2604 0.0000
vt 0.6794 0.2580 0.0000
vt 0.6790 0.2567 0.0000
vt 0.6787 0.2555 0.0000
vt 0.6785 0.2542 0.0000
vt 0.6783 0.2529 0.0000
vt 0.6782 0.2516 0.0000
vt 0.6781 0.2503 0.0000
vt 0.7083 0.2745 0.0000
vt 0.6781 0.2490 0.0000
vt 0.6782 0.2477 0.0000
vt 0.6786 0.2452 0.0000
vt 0.6784 0.2464 0.0000
vt 0.6789 0.2439 0.0000
vt 0.6826 0.2357 0.0000
vt 0.6792 0.2426 0.0000
vt 0.6796 0.2414 0.0000
vt 0.6807 0.2390 0.0000
vt 0.6801 0.2402 0.0000
vt 0.6813 0.2379 0.0000
vt 0.6819 0.2368 0.0000
vt 0.6834 0.2346 0.0000
vt 0.6842 0.2336 0.0000
vt 0.6902 0.2286 0.0000
vt 0.6851 0.2327 0.0000
vt 0.6860 0.2318 0.0000
vt 0.6870 0.2309 0.0000
vt 0.6880 0.2301 0.0000
vt 0.6891 0.2293 0.0000
vt 0.6936 0.2269 0.0000
vt 0.6913 0.2280 0.0000
vt 0.6924 0.2274 0.0000
vt 0.6948 0.2264 0.0000
vt 0.6961 0.2260 0.0000
vt 0.6999 0.2252 0.0000
vt 0.6973 0.2257 0.0000
vt 0.6986 0.2254 0.0000
vt 0.7012 0.2251 0.0000
vt 0.7025 0.2250 0.0000
vt 0.7038 0.2250 0.0000
vt 0.7051 0.2251 0.0000
vt 0.7064 0.2252 0.0000
vt 0.7076 0.2254 0.0000
vt 0.7089 0.2257 0.0000
vt 0.7102 0.2260 0.0000
vt 0.7114 0.2264 0.0000
vt 0.7126 0.2269 0.0000
vt 0.7138 0.2274 0.0000
vt 0.7150 0.2280 0.0000
vt 0.7182 0.2301 0.0000
vt 0.7161 0.2286 0.0000
vt 0.7172 0.2293 0.0000
vt 0.7277 0.2452 0.0000
vt 0.7192 0.2309 0.0000
vt 0.7202 0.2318 0.0000
vt 0.7211 0.2327 0.0000
vt 0.7220 0.2336 0.0000
vt 0.7228 0.2346 0.0000
vt 0.7236 0.2357 0.0000
vt 0.7274 0.2439 0.0000
vt 0.7243 0.2368 0.0000
vt 0.7250 0.2379 0.0000
vt 0.7261 0.2402 0.0000
vt 0.7256 0.2390 0.0000
vt 0.7266 0.2414 0.0000
vt 0.7270 0.2426 0.0000
vt 0.7166 0.2710 0.0000
vt 0.7279 0.2464 0.0000
vt 0.7280 0.2477 0.0000
vt 0.7253 0.2616 0.0000
vt 0.7281 0.2490 0.0000
vt 0.7281 0.2503 0.0000
vt 0.7275 0.2555 0.0000
vt 0.7281 0.2516 0.0000
vt 0.7280 0.2529 0.0000
vt 0.7278 0.2542 0.0000
vt 0.7272 0.2567 0.0000
vt 0.7268 0.2580 0.0000
vt 0.7259 0.2604 0.0000
vt 0.7264 0.2592 0.0000
vt 0.7247 0.2627 0.0000
vt 0.7240 0.2638 0.0000
vt 0.7232 0.2649 0.0000
vt 0.7224 0.2659 0.0000
vt 0.7187 0.2695 0.0000
vt 0.7207 0.2678 0.0000
vt 0.7197 0.2687 0.0000
vt 0.7216 0.2669 0.0000
vt 0.7177 0.2703 0.0000
vt 0.7132 0.2729 0.0000
vt 0.7120 0.2734 0.0000
vt 0.7108 0.2738 0.0000
vt 0.7095 0.2742 0.0000
vt 0.7144 0.2723 0.0000
vt 0.7155 0.2717 0.0000
vt 0.7070 0.2747 0.0000
vt 0.7057 0.2749 0.0000
vt 0.7044 0.2750 0.0000
# 132 texture coords

g SPW_Natures_Mount_03
usemtl SPW_Natures_02
s 1
f 1/1/1 2/2/2 3/3/3 
s off
f 4/1/4 1/4/4 3/2/4 5/3/4 
s 1
f 2/1/2 6/4/5 7/2/5 3/3/3 
s off
f 8/1/6 4/2/6 5/3/6 
f 3/1/7 9/2/7 5/3/7 
f 7/1/8 10/2/8 3/3/8 
f 6/1/9 11/4/9 12/2/9 7/3/9 
f 13/1/10 8/2/10 5/3/10 
f 3/1/11 10/2/11 9/3/11 
f 9/1/12 14/2/12 5/3/12 
f 10/1/13 7/4/13 15/2/13 16/3/13 
f 12/1/14 17/2/14 7/3/14 
f 11/1/15 18/2/15 12/3/15 
f 19/1/16 13/4/16 5/2/16 20/3/16 
f 10/5/17 16/6/17 9/7/17 
f 21/5/18 14/6/18 9/7/18 
f 14/1/19 20/2/19 5/3/19 
f 22/1/20 17/2/20 12/3/20 
f 17/1/21 23/2/21 7/3/21 
f 18/1/22 24/2/22 12/3/22 
f 25/1/23 19/4/23 20/2/23 26/3/23 
f 16/5/24 21/6/24 9/7/24 
f 14/1/25 27/2/25 20/3/25 
f 23/1/26 15/2/26 7/3/26 
f 15/5/27 28/6/27 16/7/27 
f 29/1/28 17/2/28 22/3/28 
f 24/1/29 30/4/29 22/2/29 12/3/29 
f 31/1/30 23/2/30 17/3/30 
f 32/1/31 25/2/31 26/3/31 
f 33/1/32 26/2/32 20/3/32 
f 28/5/33 21/6/33 16/7/33 
f 34/5/34 14/8/34 21/6/34 35/7/34 
f 21/5/35 28/6/35 35/7/35 
f 34/5/36 27/6/36 14/7/36 
f 27/1/37 33/2/37 20/3/37 
f 36/5/38 15/6/38 23/7/38 
f 37/1/39 17/2/39 29/3/39 
f 38/1/40 39/4/40 29/2/40 22/3/40 
f 30/1/41 38/2/41 22/3/41 
f 31/5/42 36/6/42 23/7/42 
f 37/1/43 31/2/43 17/3/43 
f 40/1/44 32/4/44 26/2/44 41/3/44 
f 33/1/45 42/2/45 26/3/45 
f 35/1/46 43/4/46 44/2/46 34/3/46 
f 28/1/47 45/2/47 35/3/47 
f 34/5/48 46/6/48 27/7/48 
f 27/1/49 46/4/49 42/2/49 33/3/49 
f 36/5/50 47/8/50 28/6/50 15/7/50 
f 47/5/51 48/6/51 28/7/51 
f 49/1/52 50/4/52 37/2/52 29/3/52 
f 39/1/53 49/2/53 29/3/53 
f 31/5/54 51/6/54 36/7/54 
f 52/1/55 31/2/55 37/3/55 
f 53/1/56 40/2/56 41/3/56 
f 54/1/57 41/2/57 26/3/57 
f 42/1/58 54/2/58 26/3/58 
f 35/1/59 45/2/59 43/3/59 
f 28/1/60 48/2/60 45/3/60 
f 34/5/61 44/6/61 46/7/61 
f 55/5/62 47/6/62 36/7/62 
f 56/5/63 48/6/63 47/7/63 
f 50/1/64 57/4/64 58/2/64 37/3/64 
f 52/5/65 51/6/65 31/7/65 
f 55/5/66 36/6/66 51/7/66 
f 58/1/67 52/2/67 37/3/67 
s 1
f 59/1/68 53/4/69 41/2/69 54/3/70 
s off
f 46/9/71 60/10/71 42/11/71 
f 42/1/72 61/2/72 54/3/72 
f 43/1/73 62/2/73 44/3/73 
f 45/5/74 63/6/74 43/7/74 
f 48/1/75 64/2/75 45/3/75 
f 44/1/76 62/4/76 60/2/76 46/3/76 
f 55/5/77 56/6/77 47/7/77 
f 57/1/78 65/2/78 58/3/78 
f 66/5/79 51/6/79 52/7/79 
f 58/1/80 67/2/80 52/3/80 
s 1
f 68/1/81 59/2/68 54/3/70 
s off
f 60/9/82 61/10/82 42/11/82 
f 61/1/83 69/2/83 54/3/83 
f 43/5/84 70/6/84 62/7/84 
f 45/5/85 64/6/85 63/7/85 
f 63/5/86 70/6/86 43/7/86 
f 64/1/87 48/4/87 56/2/87 71/3/87 
f 56/5/88 55/8/88 51/6/88 72/7/88 
f 73/1/89 71/2/89 56/3/89 
f 65/1/90 74/2/90 58/3/90 
f 72/5/91 51/6/91 66/7/91 
f 52/5/92 67/8/92 75/6/92 66/7/92 
f 58/1/93 76/2/93 67/3/93 
f 77/1/94 68/4/94 54/2/94 78/3/94 
f 62/1/95 79/2/95 60/3/95 
f 79/1/96 61/2/96 60/3/96 
f 61/9/97 80/10/97 69/11/97 
f 69/1/98 78/2/98 54/3/98 
f 70/5/99 79/6/99 62/7/99 
f 64/5/100 81/6/100 63/7/100 
f 63/5/101 82/6/101 70/7/101 
f 71/5/102 81/6/102 64/7/102 
f 72/1/103 73/2/103 56/3/103 
s 1
f 73/5/104 83/6/105 71/7/106 
s off
f 74/1/107 84/4/107 76/2/107 58/3/107 
f 66/5/108 85/6/108 72/7/108 
f 76/1/109 75/2/109 67/3/109 
f 86/1/110 77/2/110 78/3/110 
f 79/1/111 80/2/111 61/3/111 
f 80/9/112 87/10/112 69/11/112 
f 69/1/113 87/4/113 88/2/113 78/3/113 
f 70/5/114 82/6/114 79/7/114 
f 81/5/115 89/6/115 63/7/115 
f 63/5/116 90/6/116 82/7/116 
f 71/5/117 83/6/117 81/7/117 
f 91/1/118 73/2/118 72/3/118 
s 1
f 92/5/119 83/6/105 73/7/104 
s off
f 84/1/120 93/4/120 94/2/120 76/3/120 
f 75/5/121 85/6/121 66/7/121 
f 85/1/122 91/2/122 72/3/122 
f 76/1/123 95/2/123 75/3/123 
f 96/1/124 86/4/124 78/2/124 88/3/124 
f 97/1/125 80/2/125 79/3/125 
f 97/1/126 87/2/126 80/3/126 
f 82/5/127 97/6/127 79/7/127 
f 98/5/128 89/6/128 81/7/128 
f 89/5/129 99/6/129 63/7/129 
f 99/5/130 90/6/130 63/7/130 
f 82/5/131 90/8/131 100/6/131 97/7/131 
f 83/5/132 98/6/132 81/7/132 
f 91/5/133 101/6/133 73/7/133 
f 92/5/134 102/6/134 83/7/134 
f 73/5/135 101/6/135 92/7/135 
f 94/1/136 95/2/136 76/3/136 
f 93/1/137 103/2/137 94/3/137 
f 75/5/138 104/6/138 85/7/138 
f 85/1/139 105/2/139 91/3/139 
f 95/5/140 104/6/140 75/7/140 
f 106/1/141 96/2/141 88/3/141 
f 100/1/142 87/2/142 97/3/142 
f 107/1/143 88/2/143 87/3/143 
f 89/5/144 98/6/144 99/7/144 
f 99/5/145 108/6/145 90/7/145 
f 83/5/146 102/6/146 98/7/146 
f 91/5/147 109/6/147 101/7/147 
f 110/5/148 102/6/148 92/7/148 
f 101/5/149 111/6/149 92/7/149 
f 94/1/150 112/2/150 95/3/150 
f 103/1/151 113/2/151 94/3/151 
f 85/5/152 104/8/152 114/6/152 105/7/152 
f 105/1/153 109/2/153 91/3/153 
f 95/5/154 115/6/154 104/7/154 
s 1
f 116/1/155 106/2/156 88/3/157 
s off
f 100/1/158 107/2/158 87/3/158 
f 117/1/159 118/4/159 88/2/159 107/3/159 
f 99/5/160 98/6/160 119/7/160 
f 119/5/161 108/6/161 99/7/161 
f 108/5/162 120/6/162 90/7/162 
f 90/5/163 121/6/163 100/7/163 
f 98/5/164 102/8/164 122/6/164 119/7/164 
f 123/5/165 101/6/165 109/7/165 
f 102/5/166 110/6/166 124/7/166 
f 125/5/167 110/6/167 92/7/167 
f 126/5/168 111/6/168 101/7/168 
f 111/5/169 127/6/169 92/7/169 
f 94/1/170 128/2/170 112/3/170 
f 112/5/171 129/6/171 95/7/171 
f 113/1/172 130/4/172 128/2/172 94/3/172 
f 114/1/173 109/2/173 105/3/173 
f 95/5/174 131/6/174 115/7/174 
f 104/5/175 115/6/175 114/7/175 
s 1
f 118/1/176 116/2/155 88/3/157 
s off
f 121/5/177 107/6/177 100/7/177 
f 132/1/178 117/4/178 107/2/178 133/3/178 
f 134/5/179 108/6/179 119/7/179 
f 135/5/180 120/6/180 108/7/180 
f 120/5/181 136/6/181 90/7/181 
f 121/5/182 90/6/182 137/7/182 
f 123/5/183 126/6/183 101/7/183 
f 114/1/184 123/2/184 109/3/184 
f 102/5/185 124/6/185 122/7/185 
f 138/5/186 124/6/186 110/7/186 
f 125/5/187 139/6/187 110/7/187 
f 127/5/188 125/6/188 92/7/188 
f 126/5/189 140/8/189 127/6/189 111/7/189 
f 128/1/190 141/2/190 112/3/190 
f 112/1/191 141/4/191 142/2/191 129/3/191 
f 95/5/192 129/6/192 131/7/192 
s 1
f 130/1/193 143/4/194 141/2/195 128/3/193 
s off
f 115/5/196 131/6/196 114/7/196 
f 121/5/197 137/6/197 107/7/197 
s 1
f 144/1/198 132/2/199 133/3/200 
s off
f 107/1/201 145/2/201 133/3/201 
f 134/5/202 146/6/202 108/7/202 
f 122/5/203 134/6/203 119/7/203 
f 135/5/204 136/6/204 120/7/204 
f 108/5/205 147/6/205 135/7/205 
f 90/5/206 136/6/206 137/7/206 
f 123/5/207 148/6/207 126/7/207 
f 114/1/208 131/2/208 123/3/208 
f 124/5/209 149/6/209 122/7/209 
f 124/5/210 138/6/210 150/7/210 
f 139/5/211 138/6/211 110/7/211 
f 125/5/212 151/6/212 139/7/212 
f 127/5/213 151/6/213 125/7/213 
f 152/5/214 140/6/214 126/7/214 
f 127/5/215 140/6/215 151/7/215 
f 129/5/216 153/6/216 131/7/216 
s 1
f 143/1/194 154/2/217 141/3/195 
s off
f 137/5/218 145/6/218 107/7/218 
s 1
f 155/1/219 144/2/198 133/3/200 
s off
f 156/1/220 157/4/220 133/2/220 145/3/220 
f 134/5/221 149/6/221 146/7/221 
f 108/5/222 146/6/222 147/7/222 
f 122/5/223 149/6/223 134/7/223 
f 158/5/224 136/6/224 135/7/224 
f 147/5/225 158/6/225 135/7/225 
f 137/5/226 136/6/226 159/7/226 
f 131/1/227 148/2/227 123/3/227 
f 150/5/228 149/6/228 124/7/228 
f 160/5/229 150/6/229 138/7/229 
f 161/5/230 138/6/230 139/7/230 
f 151/5/231 161/6/231 139/7/231 
f 162/5/232 140/6/232 152/7/232 
f 152/5/233 126/8/233 148/6/233 163/7/233 
f 140/5/234 164/6/234 151/7/234 
f 141/1/235 165/4/235 166/2/235 142/3/235 
f 142/5/236 167/6/236 129/7/236 
f 129/5/237 168/6/237 153/7/237 
f 131/1/238 153/4/238 169/2/238 148/3/238 
f 154/1/239 170/4/239 165/2/239 141/3/239 
f 145/5/240 137/6/240 171/7/240 
f 157/1/241 155/2/241 133/3/241 
f 172/1/242 156/2/242 145/3/242 
f 149/5/243 173/6/243 146/7/243 
f 146/5/244 158/6/244 147/7/244 
f 158/5/245 174/6/245 136/7/245 
f 159/5/246 171/6/246 137/7/246 
f 136/5/247 174/6/247 159/7/247 
f 169/1/248 163/2/248 148/3/248 
f 149/5/249 150/6/249 173/7/249 
f 150/5/250 160/6/250 175/7/250 
f 138/5/251 176/6/251 160/7/251 
f 161/5/252 176/6/252 138/7/252 
f 151/5/253 177/6/253 161/7/253 
f 162/5/254 164/6/254 140/7/254 
f 178/5/255 162/6/255 152/7/255 
f 152/1/256 163/4/256 179/2/256 180/3/256 
f 164/5/257 181/6/257 151/7/257 
f 166/1/258 167/2/258 142/3/258 
f 167/5/259 168/6/259 129/7/259 
f 182/5/260 153/6/260 168/7/260 
f 170/1/261 183/2/261 165/3/261 
f 184/1/262 172/4/262 145/2/262 171/3/262 
f 146/5/263 173/6/263 158/7/263 
f 158/5/264 185/6/264 174/7/264 
f 159/5/265 186/6/265 171/7/265 
f 174/5/266 187/6/266 159/7/266 
f 163/1/267 169/4/267 188/2/267 179/3/267 
f 175/5/268 173/6/268 150/7/268 
f 160/5/269 189/6/269 175/7/269 
f 176/5/270 189/6/270 160/7/270 
f 176/5/271 161/8/271 190/6/271 191/7/271 
f 181/5/272 177/6/272 151/7/272 
f 161/5/273 177/6/273 190/7/273 
f 162/5/274 178/6/274 164/7/274 
f 152/1/275 180/2/275 178/3/275 
f 164/5/276 192/6/276 181/7/276 
f 165/1/277 193/2/277 166/3/277 
f 166/1/278 193/2/278 167/3/278 
f 167/5/279 182/6/279 168/7/279 
f 182/5/280 194/6/280 153/7/280 
f 153/5/281 188/6/281 169/7/281 
f 183/1/282 195/2/282 165/3/282 
s 1
f 196/1/283 184/2/284 171/3/285 
s off
f 173/5/286 185/6/286 158/7/286 
f 185/5/287 197/6/287 174/7/287 
f 159/5/288 187/6/288 186/7/288 
f 171/5/289 186/6/289 198/7/289 
f 199/5/290 187/6/290 174/7/290 
f 175/5/291 200/6/291 173/7/291 
f 189/5/292 200/6/292 175/7/292 
f 191/5/293 189/6/293 176/7/293 
f 201/5/294 177/6/294 181/7/294 
f 177/5/295 201/6/295 190/7/295 
f 202/5/296 164/6/296 178/7/296 
f 180/1/297 203/2/297 178/3/297 
f 188/1/298 180/2/298 179/3/298 
f 202/5/299 192/6/299 164/7/299 
f 192/5/300 204/6/300 181/7/300 
s 1
f 205/1/301 206/4/302 193/2/303 165/3/301 
s off
f 167/1/304 193/2/304 182/3/304 
f 182/5/305 207/6/305 194/7/305 
f 153/5/306 194/6/306 188/7/306 
f 195/1/307 205/2/307 165/3/307 
s 1
f 208/1/308 196/2/283 171/3/285 
s off
f 200/5/309 185/6/309 173/7/309 
f 185/5/310 209/6/310 197/7/310 
f 197/5/311 199/6/311 174/7/311 
f 187/5/312 210/6/312 186/7/312 
f 211/1/313 208/4/313 171/2/313 198/3/313 
f 186/5/314 210/6/314 198/7/314 
f 187/5/315 199/6/315 212/7/315 
f 189/5/316 213/6/316 200/7/316 
f 189/5/317 191/8/317 214/6/317 215/7/317 
f 190/5/318 216/6/318 191/7/318 
f 204/5/319 201/6/319 181/7/319 
f 190/5/320 201/6/320 216/7/320 
f 178/5/321 217/6/321 202/7/321 
f 180/5/322 218/6/322 203/7/322 
f 203/1/323 217/2/323 178/3/323 
f 188/5/324 219/6/324 180/7/324 
f 202/1/325 220/4/325 221/2/325 192/3/325 
f 222/5/326 204/6/326 192/7/326 
s 1
f 206/1/302 223/4/327 224/2/327 193/3/303 
s off
f 193/1/328 207/2/328 182/3/328 
f 207/5/329 219/6/329 194/7/329 
f 194/5/330 219/6/330 188/7/330 
f 200/5/331 209/6/331 185/7/331 
f 209/5/332 199/6/332 197/7/332 
f 187/5/333 212/6/333 210/7/333 
s 1
f 225/1/334 211/2/335 198/3/336 
s off
f 226/1/337 227/4/337 198/2/337 210/3/337 
f 199/5/338 228/6/338 212/7/338 
f 215/5/339 213/6/339 189/7/339 
f 200/5/340 213/6/340 209/7/340 
f 216/5/341 214/6/341 191/7/341 
f 204/5/342 229/6/342 201/7/342 
f 201/5/343 230/6/343 216/7/343 
f 220/1/344 202/2/344 217/3/344 
f 231/5/345 218/6/345 180/7/345 
f 218/5/346 232/8/346 233/6/346 203/7/346 
f 203/1/347 234/2/347 217/3/347 
f 219/5/348 231/6/348 180/7/348 
f 222/5/349 229/6/349 204/7/349 
f 221/1/350 222/2/350 192/3/350 
f 193/1/351 224/4/351 235/2/351 207/3/351 
f 223/1/352 236/2/352 224/3/352 
f 237/5/353 219/6/353 207/7/353 
f 238/5/354 199/6/354 209/7/354 
f 210/5/355 212/6/355 239/7/355 
s 1
f 240/1/356 225/2/334 198/3/336 
f 241/1/357 226/2/358 210/3/359 
s 2
f 227/1/360 242/2/361 198/3/362 
s off
f 199/5/363 243/8/363 244/6/363 228/7/363 
f 212/5/364 228/6/364 239/7/364 
f 213/5/365 215/6/365 245/7/365 
f 213/5/366 245/8/366 246/6/366 209/7/366 
f 214/5/367 247/6/367 215/7/367 
f 216/5/368 248/6/368 214/7/368 
f 229/5/369 230/6/369 201/7/369 
f 230/5/370 248/6/370 216/7/370 
f 234/1/371 220/2/371 217/3/371 
f 231/5/372 249/6/372 218/7/372 
f 249/5/373 232/6/373 218/7/373 
f 233/5/374 234/6/374 203/7/374 
f 237/5/375 231/6/375 219/7/375 
f 234/1/376 221/2/376 220/3/376 
f 222/1/377 250/4/377 251/2/377 229/3/377 
f 221/1/378 252/2/378 222/3/378 
f 236/1/379 253/2/379 224/3/379 
f 235/1/380 237/2/380 207/3/380 
f 238/5/381 243/6/381 199/7/381 
f 209/5/382 246/6/382 238/7/382 
s 1
f 254/1/383 241/4/357 210/2/359 239/3/384 
s 2
f 242/1/361 240/2/385 198/3/362 
s 1
f 255/1/386 256/4/387 239/2/384 228/3/388 
s off
f 215/5/389 257/6/389 245/7/389 
f 214/5/390 248/6/390 247/7/390 
f 247/5/391 257/6/391 215/7/391 
f 251/5/392 230/6/392 229/7/392 
f 230/5/393 258/6/393 248/7/393 
f 231/5/394 259/6/394 249/7/394 
f 249/5/395 233/6/395 232/7/395 
f 233/5/396 260/8/396 261/6/396 234/7/396 
f 237/5/397 259/6/397 231/7/397 
f 261/5/398 221/6/398 234/7/398 
f 252/1/399 250/2/399 222/3/399 
f 262/5/400 252/6/400 221/7/400 
f 224/1/401 263/2/401 235/3/401 
f 253/1/402 264/4/402 263/2/402 224/3/402 
f 235/1/403 263/4/403 265/2/403 237/3/403 
f 238/5/404 246/6/404 243/7/404 
f 266/1/405 254/2/405 239/3/405 
f 267/5/406 244/6/406 243/7/406 
f 244/5/407 268/6/407 228/7/407 
s 1
f 269/1/408 255/4/386 228/2/388 270/3/408 
s off
f 256/1/409 271/2/409 239/3/409 
f 245/5/410 257/6/410 272/7/410 
f 245/5/411 267/6/411 246/7/411 
f 273/5/412 247/6/412 248/7/412 
f 247/5/413 273/6/413 257/7/413 
f 274/5/414 230/6/414 251/7/414 
f 275/5/415 258/6/415 230/7/415 
f 258/5/416 273/6/416 248/7/416 
f 276/5/417 249/6/417 259/7/417 
f 276/5/418 233/6/418 249/7/418 
f 277/1/419 260/2/419 233/3/419 
f 237/1/420 265/2/420 259/3/420 
f 262/5/421 221/6/421 261/7/421 
f 250/1/422 278/2/422 251/3/422 
f 262/5/423 279/8/423 250/6/423 252/7/423 
f 264/1/424 280/4/424 281/2/424 263/3/424 
f 267/5/425 243/6/425 246/7/425 
f 282/1/426 266/2/426 239/3/426 
f 268/5/427 244/6/427 267/7/427 
f 283/5/428 228/6/428 268/7/428 
f 284/1/429 269/2/429 270/3/429 
f 228/5/430 283/6/430 270/7/430 
f 271/1/431 285/2/431 239/3/431 
f 245/5/432 272/6/432 267/7/432 
f 273/5/433 272/6/433 257/7/433 
f 274/5/434 275/6/434 230/7/434 
f 278/1/435 274/2/435 251/3/435 
f 275/5/436 286/6/436 258/7/436 
f 258/5/437 286/6/437 273/7/437 
f 287/1/438 276/2/438 259/3/438 
f 277/1/439 233/2/439 276/3/439 
f 288/1/440 261/2/440 260/3/440 
f 277/1/441 288/2/441 260/3/441 
f 287/1/442 259/2/442 265/3/442 
f 262/1/443 261/4/443 288/2/443 289/3/443 
f 290/5/444 278/6/444 250/7/444 
f 290/5/445 250/6/445 279/7/445 
f 291/1/446 279/2/446 262/3/446 
f 263/1/447 281/2/447 265/3/447 
f 280/1/448 292/2/448 281/3/448 
f 293/1/449 282/2/449 239/3/449 
f 268/5/450 267/8/450 272/6/450 294/7/450 
f 268/5/451 295/6/451 283/7/451 
f 296/1/452 284/2/452 270/3/452 
f 297/1/453 298/4/453 270/2/453 283/3/453 
f 285/1/454 293/2/454 239/3/454 
f 273/5/455 286/6/455 272/7/455 
f 299/5/456 275/6/456 274/7/456 
f 278/1/457 299/2/457 274/3/457 
f 299/5/458 286/6/458 275/7/458 
f 300/1/459 276/2/459 287/3/459 
f 300/1/460 277/2/460 276/3/460 
s 1
f 301/1/461 302/4/462 288/2/463 277/3/464 
s off
f 303/1/465 304/4/465 287/2/465 265/3/465 
f 289/1/466 291/2/466 262/3/466 
f 278/1/467 290/2/467 299/3/467 
s 1
f 291/1/468 290/2/469 279/3/470 
s off
f 292/1/471 303/4/471 265/2/471 281/3/471 
f 294/5/472 295/6/472 268/7/472 
s 1
f 305/1/473 306/4/474 283/2/475 295/3/476 
s off
f 307/1/477 296/2/477 270/3/477 
s 1
f 308/1/478 297/2/479 283/3/475 
s off
f 298/1/480 307/2/480 270/3/480 
f 286/5/481 294/6/481 272/7/481 
f 299/5/482 309/6/482 286/7/482 
f 310/1/483 311/4/483 300/2/483 287/3/483 
f 311/1/484 312/4/484 277/2/484 300/3/484 
s 2
f 313/1/485 314/4/486 289/2/487 288/3/485 
f 315/1/488 301/2/489 277/3/490 
s 1
f 302/1/462 313/2/491 288/3/463 
s off
f 304/1/492 310/2/492 287/3/492 
f 316/1/493 317/4/493 291/2/493 289/3/493 
f 290/1/494 318/2/494 299/3/494 
s 1
f 291/1/468 319/2/495 290/3/469 
s off
f 320/5/496 295/6/496 294/7/496 
f 321/1/497 305/2/497 295/3/497 
s 1
f 306/1/474 322/2/498 283/3/475 
f 323/1/499 308/2/478 283/3/475 
s off
f 294/5/500 286/8/500 324/6/500 320/7/500 
f 318/5/501 309/6/501 299/7/501 
f 309/5/502 324/6/502 286/7/502 
f 312/1/503 325/2/503 277/3/503 
s 2
f 314/1/486 316/2/504 289/3/487 
f 326/1/505 315/2/488 277/3/490 
s off
f 317/1/506 327/2/506 291/3/506 
f 319/1/507 318/2/507 290/3/507 
f 327/1/508 328/4/508 319/2/508 291/3/508 
s 1
f 329/1/509 321/4/510 295/2/476 320/3/511 
s off
f 322/1/512 323/2/512 283/3/512 
f 330/1/513 309/2/513 318/3/513 
s 1
f 331/1/514 332/4/515 324/2/515 309/3/516 
f 325/1/517 333/2/518 277/3/464 
f 333/1/518 326/2/519 277/3/464 
f 334/1/520 335/4/521 318/2/522 319/3/495 
s off
f 328/1/523 336/2/523 319/3/523 
s 1
f 337/1/524 329/2/509 320/3/511 
s 2
f 338/1/525 337/4/526 320/2/526 324/3/527 
s 1
f 339/1/528 331/4/514 309/2/516 330/3/529 
f 335/1/521 340/4/530 330/2/529 318/3/522 
s 2
f 332/1/531 338/2/525 324/3/527 
s off
f 341/1/532 334/2/532 319/3/532 
f 336/1/533 342/2/533 319/3/533 
s 2
f 343/1/534 339/2/535 330/3/536 
s off
f 340/1/537 344/2/537 330/3/537 
f 345/1/538 341/2/538 319/3/538 
s 1
f 342/1/539 346/2/540 319/3/495 
s 2
f 347/1/541 343/2/534 330/3/536 
s off
f 344/1/542 347/2/542 330/3/542 
f 348/1/543 345/2/543 319/3/543 
s 1
f 346/1/540 349/2/544 319/3/495 
s off
f 349/1/545 348/2/545 319/3/545 
f 292/12/546 280/13/546 264/14/546 303/15/546 
f 264/14/547 253/16/547 236/17/547 223/18/547 
f 264/14/546 223/18/546 206/19/546 154/20/546 
f 206/19/547 205/21/547 195/22/547 170/23/547 
f 195/22/547 183/24/547 170/23/547 
f 206/19/546 170/23/546 154/20/546 
f 154/20/548 143/25/548 130/26/548 113/27/548 
f 113/27/546 103/28/546 93/29/546 84/30/546 
f 154/20/547 113/27/547 84/30/547 49/31/547 
f 74/32/546 65/33/546 57/34/546 84/30/546 
f 57/34/547 50/35/547 49/31/547 84/30/547 
f 49/31/546 39/36/546 38/37/546 30/38/546 
f 30/38/546 24/39/546 18/40/546 11/41/546 
f 49/31/546 30/38/546 11/41/546 6/42/546 
f 154/20/546 49/31/546 6/42/546 312/43/546 
f 6/42/546 2/44/546 1/45/546 8/46/546 
f 1/45/549 4/47/549 8/46/549 
f 6/42/546 8/46/546 13/48/546 68/49/546 
f 13/48/547 19/50/547 25/51/547 40/52/547 
f 25/51/549 32/53/549 40/52/549 
f 53/54/546 59/55/546 68/49/546 40/52/546 
f 13/48/546 40/52/546 68/49/546 
f 68/49/547 77/56/547 86/57/547 132/58/547 
f 86/57/547 96/59/547 106/60/547 116/61/547 
f 118/62/547 117/63/547 132/58/547 116/61/547 
f 86/57/548 116/61/548 132/58/548 
f 6/42/547 68/49/547 132/58/547 157/64/547 
f 132/58/547 144/65/547 155/66/547 157/64/547 
f 157/64/548 156/67/548 172/68/548 208/69/548 
f 184/70/546 196/71/546 208/69/546 172/68/546 
f 211/72/547 225/73/547 240/74/547 208/69/547 
f 240/74/546 242/75/546 227/76/546 226/77/546 
f 208/69/547 240/74/547 226/77/547 157/64/547 
f 226/77/547 241/78/547 254/79/547 266/80/547 
f 282/81/548 293/82/548 285/83/548 266/80/548 
f 226/77/547 266/80/547 285/83/547 255/84/547 
f 285/83/547 271/85/547 256/86/547 255/84/547 
f 157/64/546 226/77/546 255/84/546 337/87/546 
f 255/84/547 269/88/547 284/89/547 296/90/547 
f 296/90/546 307/91/546 298/92/546 297/93/546 
f 255/84/547 296/90/547 297/93/547 329/94/547 
f 297/93/546 308/95/546 323/96/546 306/97/546 
f 323/96/547 322/98/547 306/97/547 
f 306/97/546 305/99/546 321/100/546 329/94/546 
f 297/93/547 306/97/547 329/94/547 
f 255/84/546 329/94/546 337/87/546 
f 6/42/547 157/64/547 337/87/547 313/101/547 
f 337/87/547 338/102/547 332/103/547 348/104/547 
f 332/103/547 331/105/547 339/106/547 340/107/547 
f 339/106/547 343/108/547 347/109/547 340/107/547 
f 347/109/547 344/110/547 340/107/547 
f 340/107/547 335/111/547 334/112/547 345/113/547 
f 334/112/547 341/114/547 345/113/547 
f 340/107/546 345/113/546 348/104/546 332/103/546 
f 349/115/546 346/116/546 342/117/546 336/118/546 
f 348/104/549 349/115/549 336/118/549 316/119/549 
f 327/120/547 317/121/547 316/119/547 328/122/547 
f 336/118/549 328/122/549 316/119/549 
f 316/119/546 314/123/546 313/101/546 348/104/546 
f 337/87/546 348/104/546 313/101/546 
f 315/124/546 326/125/546 333/126/546 312/43/546 
f 333/126/546 325/127/546 312/43/546 
f 301/128/549 315/124/549 312/43/549 302/129/549 
f 313/101/546 302/129/546 312/43/546 6/42/546 
f 264/14/547 154/20/547 312/43/547 311/130/547 
f 303/15/547 264/14/547 311/130/547 310/131/547 
f 303/15/546 310/131/546 304/132/546 
# 133 polygons - 428 triangles

