# 3ds Max Wavefront OBJ Exporter v0.97b - (c)2007 guruware
# File Created: 15.03.2017 10:16:24

mtllib SPW_Natures_Mount_04.mtl

#
# object SPW_Natures_Mount_04
#

v  -1586.6611 -0.0130 931.4265
v  -1542.1908 198.8284 768.9494
v  -1739.3982 -0.0130 776.4194
v  -1464.5574 -0.0131 1037.0576
v  -1311.6183 174.8342 992.6635
v  -1828.9496 -0.0130 628.3493
v  -1306.6317 -0.0131 1192.8906
v  -1312.9196 374.9343 783.4189
v  -1720.4282 136.5902 579.6642
v  -1861.0374 -0.0129 575.6645
v  -1516.6740 406.2518 579.6642
v  -1873.1941 -0.0129 440.2892
v  -1109.1649 -0.0131 1196.2419
v  -1109.1649 3.8613 1190.9280
v  -1114.0095 -0.0131 1195.3026
v  -1109.1649 288.2149 987.1733
v  -1109.1649 536.1490 783.4189
v  -1312.9196 557.3613 579.6642
v  -1720.4282 182.3938 375.9101
v  -1893.5237 -0.0129 340.8741
v  -1064.4458 -0.0131 1235.6471
v  -905.4105 124.1727 1190.9280
v  -905.4105 300.8159 987.1733
v  -1109.1649 545.4447 579.6642
v  -905.4105 424.4272 783.4189
v  -1312.9196 677.2773 375.9099
v  -1516.6740 444.8719 375.9099
v  -1562.9286 500.5903 169.3382
v  -1924.1832 76.5656 172.1555
v  -1956.6072 -0.0128 228.8892
v  -905.4105 -0.0132 1374.3335
v  -905.4105 587.0850 579.6643
v  -1991.1361 -0.0128 105.2023
v  -827.7886 -0.0132 1394.6821
v  -701.6559 22.3762 1394.6821
v  -701.6559 123.4395 1190.9280
v  -701.6559 253.1700 987.1733
v  -1109.1649 632.1813 540.9378
v  -701.6559 363.6483 783.4189
v  -716.5621 661.3879 396.8810
v  -1924.1832 66.9948 -31.5990
v  -1985.2772 -0.0127 -31.5989
v  -701.6559 -0.0132 1432.8770
v  -716.5621 690.3130 396.8809
v  -905.4105 616.0099 579.6643
v  -1312.9196 706.2021 375.9099
v  -1562.9286 529.5154 169.3383
v  -1720.4282 348.9644 -31.5989
v  -2000.7507 -0.0127 -154.8293
v  -639.9598 -0.0132 1393.6283
v  -500.8572 -0.0131 1190.9280
v  -513.1976 -0.0131 1206.2239
v  -497.9015 -0.0131 1186.1995
v  -497.9015 76.4781 987.1733
v  -497.9015 284.3313 783.4189
v  -1109.1649 661.1063 540.9378
v  -711.4825 820.9553 -24.6765
v  -711.4825 849.8802 -24.6765
v  -905.4105 886.8080 375.9101
v  -1516.6740 715.6984 -31.5989
v  -1516.6740 744.6234 -31.5988
v  -1312.9196 891.8016 172.1556
v  -2015.9202 -0.0127 -221.2432
v  -497.9015 426.0219 579.6642
v  -1109.1649 1030.7233 375.9100
v  -497.9015 546.4047 375.9099
v  -497.9015 709.6790 172.1555
v  -497.9015 812.7355 -31.5988
v  -497.9015 841.6604 -31.5988
v  -1312.9196 793.3984 -31.5988
v  -1312.9196 822.3234 -31.5988
v  -1109.1649 1100.9821 172.1556
v  -1720.4282 397.4931 -235.3534
v  -2020.6139 -0.0127 -247.5294
v  -1516.6740 563.5686 -235.3534
v  -496.2817 -0.0131 1190.9280
v  -294.1471 226.7604 1190.9277
v  -294.1471 302.0103 987.1733
v  -294.1471 250.1363 783.4189
v  -291.4726 380.6834 584.3589
v  -294.1471 441.4080 375.9099
v  -497.9015 735.0560 -235.3534
v  -497.9015 763.9811 -235.3533
v  -701.6559 1065.6208 -235.3533
v  -905.4105 949.2659 172.1556
v  -1312.9196 757.8824 -235.3534
v  -1312.9196 786.8074 -235.3533
v  -1720.4282 268.8811 -439.1078
v  -2005.0630 -0.0127 -279.5220
v  -491.6098 -0.0131 1197.2196
v  -294.1471 57.0196 1394.6821
v  -294.1471 498.1234 172.1556
v  -294.1471 644.7193 -31.5989
v  -294.1471 574.4178 -235.3534
v  -497.9015 737.4542 -439.1078
v  -497.9015 766.3793 -439.1078
v  -905.4105 962.6151 -31.5988
v  -1312.9196 887.6161 -439.1077
v  -1312.9196 916.5410 -439.1078
v  -1109.1649 861.0578 -31.5988
v  -1516.6740 488.1652 -439.1078
v  -1924.1832 51.0597 -439.1079
v  -1991.6296 -0.0127 -344.2782
v  -401.2277 -0.0132 1392.8544
v  -90.3927 615.8032 783.4189
v  -90.3927 886.9688 375.9101
v  -497.9015 796.3064 -642.8624
v  -497.9015 825.2315 -642.8624
v  -701.6559 1020.2115 -439.1078
v  -1435.2941 773.3831 -642.8624
v  -1435.2941 802.3081 -642.8624
v  -1109.1649 1266.4508 -235.3533
v  -1109.1649 1363.4491 -439.1078
v  -1516.6740 562.4211 -642.8624
v  -1720.4282 179.4211 -642.8625
v  -1861.4003 -0.0126 -642.8625
v  -1924.1832 -0.0126 -518.5543
v  -1974.9364 -0.0126 -439.1079
v  -294.1471 -0.0132 1472.4609
v  -90.3927 394.5331 1190.9279
v  -90.3927 77.4968 1394.6821
v  -90.3927 -0.0132 1486.4891
v  -217.4667 -0.0132 1471.3625
v  -90.3927 442.1110 987.1733
v  113.3617 1024.9971 783.4189
v  113.3617 1281.7200 579.6644
v  8.8987 1134.8179 375.9100
v  -90.3927 790.5331 172.1555
v  -90.3927 815.9633 -31.5988
v  -90.3927 775.5360 -235.3533
v  -294.1471 513.9669 -439.1078
v  -294.1471 511.8326 -642.8624
v  -497.9015 776.9283 -846.6168
v  -497.9015 805.8533 -846.6168
v  -701.6559 972.6246 -642.8624
v  -905.4105 1125.8180 -235.3533
v  -905.4105 1253.6718 -439.1077
v  -1396.2981 860.3908 -846.6169
v  -1396.2981 889.3158 -846.6169
v  -1312.9196 1119.5417 -642.8624
v  113.3617 105.4573 1394.6821
v  113.3617 527.3757 1190.9279
v  5.9031 -0.0132 1502.1409
v  113.3617 749.4343 987.1736
v  113.3617 1179.4348 172.1556
v  -90.3927 406.3055 -439.1078
v  -294.1471 535.0971 -846.6169
v  -497.9015 682.6685 -1050.3712
v  -497.9015 711.5934 -1050.3711
v  -701.6559 1073.5813 -846.6169
v  -1312.9196 925.1349 -1050.3712
v  -1312.9196 954.0596 -1050.3712
v  -1516.6740 700.8501 -846.6168
v  -1312.9196 999.8221 -846.6168
v  -1109.1649 1441.8632 -642.8623
v  -1720.4282 231.7456 -846.6169
v  -1866.3065 -0.0125 -788.7404
v  113.3617 -0.0132 1485.3024
v  113.3617 1053.9220 783.4189
v  113.3617 1310.6447 579.6643
v  317.1161 937.2544 987.1734
v  317.1161 1454.3187 783.4193
v  8.8987 1163.7429 375.9100
v  113.3617 1208.3599 172.1556
v  113.3617 1147.4502 -31.5988
v  113.3617 928.9377 -235.3533
v  113.3617 721.1763 -439.1078
v  -90.3927 331.1158 -642.8624
v  -90.3927 343.1051 -846.6169
v  -294.1471 571.5819 -1050.3712
v  -497.9015 624.5262 -1254.1256
v  -497.9015 653.4512 -1254.1256
v  -701.6559 1034.1622 -1050.3713
v  -905.4105 1297.5853 -642.8624
v  -1312.9196 751.8092 -1254.1256
v  -1312.9196 780.7340 -1254.1256
v  -1516.6740 604.1453 -1050.3712
v  -1109.1649 1238.6157 -846.6168
v  -1876.3029 -0.0125 -846.6169
v  317.1161 240.2831 1394.6820
v  317.1161 529.5417 1190.9279
v  288.3683 -0.0132 1569.6890
v  317.1161 1483.2435 783.4193
v  317.1161 1718.3683 579.6647
v  113.3617 1424.5016 375.9101
v  113.3617 1176.3749 -31.5988
v  113.3617 403.7473 -642.8624
v  -90.3927 331.4302 -1050.3713
v  -294.1471 637.1329 -1254.1256
v  -701.6559 713.8139 -1254.1256
v  -701.6559 742.7390 -1254.1256
v  -905.4105 1118.6034 -846.6168
v  -1109.1649 756.0419 -1254.1256
v  -1109.1649 784.9670 -1254.1256
v  -1516.6740 469.1987 -1254.1256
v  -1109.1649 1063.1510 -1050.3713
v  -1720.4282 236.0177 -1050.3712
v  -1874.3196 -0.0125 -1000.5080
v  317.1161 -0.0132 1584.7340
v  317.1161 966.1794 987.1734
v  520.8705 750.8835 1190.9281
v  520.8705 1276.2847 987.1734
v  317.1161 1713.8130 375.9102
v  113.3617 957.8627 -235.3533
v  317.1161 1537.6279 172.1556
v  317.1161 1463.2623 -31.5988
v  317.1161 1126.4421 -235.3533
v  317.1161 959.3286 -439.1078
v  317.1161 547.4114 -642.8624
v  113.3617 406.3994 -846.6169
v  113.3617 321.5862 -1050.3713
v  -294.1471 359.4679 -1457.8801
v  -497.9015 488.6161 -1457.8800
v  -701.6559 440.2174 -1457.8800
v  -905.4105 864.6600 -1254.1259
v  -905.4105 893.5851 -1254.1259
v  -905.4105 1148.0315 -1050.3712
v  -924.1876 396.8530 -1471.9181
v  -1312.0737 39.2895 -1649.3346
v  -1875.0045 -0.0125 -1050.3712
v  520.8705 338.5715 1394.6820
v  389.5754 -0.0132 1598.4368
v  520.8705 31.3800 1598.4368
v  520.8705 1305.2095 987.1734
v  520.8705 1665.1719 783.4190
v  520.8705 1848.4419 579.6644
v  317.1161 1155.3669 -235.3533
v  317.1161 540.9946 -846.6169
v  113.3617 228.4272 -1254.1259
v  -90.3927 299.1081 -1254.1259
v  -1516.6740 132.3401 -1457.8802
v  -1720.4282 88.6402 -1254.1257
v  -1830.7418 -0.0124 -1143.8126
v  483.7020 -0.0132 1635.6051
v  724.6250 1280.2571 987.1734
v  724.6250 1309.1819 987.1734
v  724.6250 820.9495 1190.9281
v  724.6250 383.2052 1394.6821
v  520.8705 1739.7731 375.9102
v  520.8705 1190.1113 -235.3533
v  520.8705 1219.0363 -235.3533
v  520.8705 1891.4834 172.1558
v  520.8705 1847.1362 -31.5988
v  520.8705 932.0281 -439.1078
v  520.8705 650.6851 -642.8624
v  520.8705 506.0721 -846.6169
v  317.1161 442.4200 -1050.3712
v  -90.3927 182.4876 -1457.8802
v  -285.4254 -0.0122 -1828.4041
v  -318.9258 -0.0122 -1825.4174
v  -516.6781 142.3323 -1661.3778
v  -1031.3009 76.6486 -1664.0200
v  -1790.2616 -0.0124 -1256.8353
v  724.6250 167.7789 1598.4364
v  520.8705 -0.0132 1647.7737
v  928.3796 983.5925 987.1734
v  928.3796 1012.5173 987.1734
v  724.6250 1594.7443 783.4190
v  724.6250 1697.8361 579.6647
v  724.6250 1020.9807 -235.3533
v  724.6250 1049.9055 -235.3533
v  520.8705 466.6612 -1050.3712
v  113.3617 51.8198 -1457.8800
v  317.1161 307.4669 -1254.1259
v  -1107.3888 7.7758 -1866.3573
v  -1136.6548 -0.0122 -1864.1779
v  -1361.1555 -0.0123 -1707.2590
v  -1680.9779 -0.0124 -1457.8802
v  -1720.4282 -0.0124 -1404.1146
v  -1516.6740 -0.0123 -1622.5355
v  -1425.7616 -0.0123 -1656.1689
v  724.6250 -0.0132 1729.5126
v  572.2769 -0.0132 1649.8433
v  928.3796 812.1750 1190.9281
v  928.3796 1174.1288 783.4189
v  928.3796 1203.0536 783.4189
v  724.6250 1852.5388 375.9101
v  928.3796 604.3876 1394.6823
v  928.3796 361.3810 1598.4364
v  718.6104 1821.3099 154.4891
v  948.4785 758.1841 -263.0215
v  948.4785 787.1087 -263.0215
v  724.6250 766.4434 -439.1078
v  724.6250 1677.4856 -31.5987
v  724.6250 653.3512 -642.8624
v  724.6250 386.4888 -846.6169
v  520.8705 163.4567 -1254.1259
v  317.1161 84.1368 -1457.8800
v  -261.7815 -0.0122 -1806.7805
v  -502.0888 -0.0122 -1819.8927
v  -710.2089 31.4333 -1884.8608
v  855.1979 -0.0133 1802.1914
v  928.3796 52.1306 1802.1914
v  1132.1340 853.9529 987.1734
v  1132.1340 1048.2271 783.4189
v  1006.0620 1234.8416 579.6644
v  1006.0620 1263.7665 579.6644
v  928.3796 1383.6119 579.6645
v  928.3796 1348.9569 375.9101
v  928.3796 1155.0963 -31.5988
v  928.3796 1184.0214 -31.5988
v  928.3796 556.7575 -439.1078
v  724.6250 285.6923 -1050.3712
v  113.3617 -0.0124 -1539.8055
v  -36.6412 -0.0123 -1661.6345
v  -90.3927 27.6075 -1661.6345
v  520.8705 47.7100 -1457.8800
v  -193.3464 -0.0122 -1763.3329
v  -617.8707 -0.0122 -1876.3921
v  -1108.0002 -0.0122 -1881.7926
v  -1080.6564 -0.0122 -1893.1968
v  -784.6108 -0.0122 -1955.1007
v  928.3796 -0.0133 1994.7228
v  1132.1340 1040.3429 579.6644
v  1042.1184 1078.5515 375.9100
v  1042.1184 1107.4764 375.9100
v  938.1677 1138.0897 -31.5988
v  938.1677 1167.0145 -31.5988
v  1132.1340 801.0768 -31.5988
v  -88.4041 -0.0123 -1720.8353
v  -706.7437 -0.0122 -1959.5212
v  -1091.8271 -0.0122 -1887.0673
v  1080.0853 -0.0133 1953.8971
v  1132.1340 722.5742 1190.9281
v  1335.8882 1010.1542 987.1734
v  1335.8882 1193.7048 783.4189
v  1335.8882 1063.6650 579.6644
v  1132.1340 887.4379 375.9101
v  1000.8481 1112.1746 166.5468
v  1000.8481 1141.0996 166.5468
v  1132.1340 435.8735 1394.6821
v  1132.1340 418.1187 1598.4365
v  1132.1340 -0.0133 1991.5653
v  1132.1340 235.5761 1802.1914
v  1335.8882 458.5470 -31.5989
v  1335.8882 245.9811 -235.3534
v  1132.1340 795.7673 172.1555
v  1132.1340 286.8880 -439.1078
v  928.3796 446.2120 -642.8624
v  928.3796 316.8920 -846.6169
v  928.3796 68.0835 -1050.3712
v  724.6250 3.1789 -1254.1257
v  317.1161 34.9163 -1661.6345
v  253.5764 -0.0123 -1661.6345
v  520.8705 31.3438 -1661.6345
v  724.6250 -0.0124 -1265.2880
v  615.4731 -0.0124 -1457.8800
v  1335.8882 569.9203 1190.9281
v  1335.8882 851.1507 375.9101
v  1335.8882 296.4987 1394.6820
v  1335.8882 308.1659 1598.4364
v  1149.3403 -0.0133 1988.7396
v  1335.8882 193.9479 1802.1914
v  1335.8882 576.6917 172.1554
v  1351.6047 103.4581 -490.4602
v  1118.7063 74.6071 -847.9166
v  928.3796 -0.0124 -1129.9203
v  730.5624 -0.0124 -1254.1257
v  317.1161 -0.0123 -1740.5725
v  1539.6428 962.0629 987.1734
v  1539.6428 1020.6569 783.4189
v  1539.6428 497.5631 1190.9279
v  1539.6428 986.7201 579.6646
v  1335.8882 -0.0133 1993.3861
v  1550.7278 140.9120 -124.2600
v  1538.4202 381.2200 168.3023
v  1124.1926 -0.0125 -930.6351
v  1007.1649 -0.0125 -1050.3712
v  447.0825 -0.0123 -1735.4225
v  594.8014 -0.0123 -1587.7037
v  1539.6428 609.1136 375.9099
v  1539.6428 156.0335 1394.6820
v  1539.6428 22.0837 1598.4368
v  1525.4685 -0.0133 1802.1914
v  1539.6428 -0.0132 1721.4554
v  1324.8578 25.8325 -700.2461
v  520.8705 -0.0123 -1701.1627
v  561.2684 -0.0123 -1667.1968
v  1743.3972 500.6965 987.1733
v  1743.3972 589.8646 783.4189
v  1743.3972 304.8848 1190.9277
v  1743.3972 473.5200 579.6642
v  1484.2124 -0.0127 -400.9132
v  1635.0161 -0.0127 -157.6649
v  1677.9863 -0.0127 -63.0572
v  1710.6693 -0.0127 0.3185
v  1287.6470 -0.0126 -767.8475
v  1743.3972 125.8562 1394.6820
v  1618.1624 -0.0132 1598.4368
v  1435.0001 -0.0126 -518.0306
v  1818.4115 -0.0128 170.9419
v  1947.1512 126.8764 579.6642
v  2003.9906 -0.0129 520.7347
v  1863.3431 -0.0129 268.1218
v  1350.5997 -0.0126 -696.7335
v  1329.1420 -0.0126 -728.4090
v  1947.1512 334.8454 987.1733
v  1947.1512 321.4554 783.4189
v  1947.1512 5.6969 1190.9280
v  1743.3972 -0.0132 1553.8652
v  1343.5730 -0.0126 -709.4615
v  1884.0966 -0.0131 1328.4691
v  2027.8693 -0.0129 579.6642
v  2045.5601 -0.0130 630.8572
v  2126.9404 -0.0130 783.0735
v  2120.4712 -0.0130 956.7385
v  2121.5127 -0.0131 987.1733
v  1965.8680 -0.0131 1172.2109
v  1951.6958 -0.0131 1191.6447
# 409 vertices

vn -0.5745 0.5911 0.5661
vn -0.5198 0.6072 0.6009
vn -0.6462 0.6555 0.3908
vn -0.6462 0.6546 0.3922
vn -0.6463 0.6542 0.3929
vn -0.5498 0.6224 0.5572
vn -0.5129 0.6188 0.5950
vn -0.6463 0.6537 0.3936
vn -0.6982 0.5275 0.4840
vn -0.6964 0.7150 0.0625
vn -0.7204 0.6830 0.1202
vn -0.7223 0.6801 0.1252
vn -0.1135 0.8028 0.5853
vn -0.1809 0.6505 0.7377
vn 0.2591 0.5626 0.7851
vn -0.4087 0.6180 0.6717
vn -0.4973 0.6319 0.5945
vn -0.7314 0.6653 0.1496
vn -0.4398 0.7432 0.5042
vn -0.4499 0.7309 0.5132
vn -0.4607 0.7172 0.5229
vn -0.2111 0.6474 0.7323
vn -0.3147 0.8589 0.4041
vn 0.1769 0.7273 0.6631
vn -0.6594 0.7006 0.2726
vn -0.7877 0.6032 0.1250
vn -0.7008 0.5967 0.3909
vn -0.7029 0.5909 0.3959
vn -0.4392 0.7439 0.5037
vn 0.1565 0.9100 0.3840
vn -0.7474 0.5802 0.3238
vn -0.8234 0.5189 0.2299
vn -0.7959 0.5941 0.1165
vn -0.7701 0.6365 0.0420
vn -0.0571 0.8691 0.4913
vn -0.1454 0.8192 0.5547
vn 0.0945 0.7957 0.5982
vn -0.1585 0.7588 0.6318
vn 0.0238 0.4076 0.9129
vn -0.3384 0.4187 0.8427
vn -0.5510 0.3242 0.7689
vn 0.2248 0.8449 0.4854
vn 0.2491 0.7667 0.5917
vn -0.7106 0.6230 0.3271
vn -0.6919 0.1544 0.7053
vn -0.7281 0.3238 0.6042
vn -0.7782 0.6211 0.0935
vn -0.7386 0.6734 -0.0316
vn -0.1514 0.8528 0.4999
vn -0.1635 0.1039 0.9811
vn -0.1463 0.1750 0.9736
vn -0.0830 0.4063 0.9100
vn 0.6955 0.0000 0.7186
vn -0.7254 0.3051 0.6170
vn -0.6838 0.1277 0.7184
vn -0.7795 0.6240 0.0548
vn -0.7358 0.6709 0.0924
vn 0.3063 0.8213 0.4814
vn 0.4824 0.7847 0.3892
vn 0.4185 0.8510 0.3174
vn 0.4739 0.7946 0.3795
vn 0.4647 0.7488 0.4726
vn 0.6292 0.7255 0.2788
vn 0.4437 0.7062 0.5517
vn -0.6047 0.1381 0.7844
vn -0.5979 0.1675 0.7839
vn -0.0774 0.2058 0.9755
vn -0.1299 0.2393 0.9622
vn 0.9999 0.0000 0.0120
vn 0.4730 0.5297 0.7040
vn -0.7996 0.0000 -0.6005
vn -0.9745 0.0000 -0.2243
vn -0.3333 0.0000 -0.9428
vn -0.7334 0.5026 0.4578
vn -0.7970 0.5759 0.1820
vn -0.7933 0.5899 0.1507
vn -0.7939 0.5880 0.1550
vn -0.8329 0.4627 0.3036
vn 0.3356 0.9142 0.2270
vn 0.3259 0.7623 0.5592
vn -0.5446 0.3419 0.7658
vn 0.3909 0.5534 0.7355
vn 0.2107 0.5125 0.8324
vn 0.4483 0.7696 0.4547
vn 0.2672 0.8554 0.4438
vn 0.0324 -0.0000 0.9995
vn 0.7917 -0.0000 0.6109
vn 0.6163 -0.0000 0.7875
vn -0.0000 0.0000 -1.0000
vn -0.6859 0.7062 0.1757
vn -0.7427 0.5671 0.3561
vn -0.7921 0.5938 0.1414
vn -0.7850 0.6004 -0.1526
vn -0.7218 0.6477 0.2440
vn -0.7232 0.6446 0.2477
vn -0.4016 0.8553 0.3274
vn 0.1523 0.8184 0.5541
vn 0.3145 0.8698 0.3801
vn 0.0489 0.8913 0.4508
vn 1.0000 0.0000 -0.0000
vn 0.5768 0.7708 0.2705
vn 0.6620 0.7046 0.2555
vn -1.0000 0.0000 -0.0000
vn -0.5185 0.7767 -0.3577
vn -0.7394 0.5694 -0.3594
vn -0.7392 0.5929 -0.3194
vn -0.7383 0.6065 -0.2951
vn -0.6360 0.6224 0.4562
vn -0.3516 0.7791 0.5191
vn -0.6529 0.5820 0.4848
vn 0.5678 0.7827 0.2549
vn 0.5643 0.7265 0.3922
vn 0.6219 0.6677 0.4091
vn 0.6041 0.7490 -0.2720
vn 0.5003 0.8640 0.0566
vn -0.4360 0.7167 -0.5442
vn -0.6457 0.6828 -0.3418
vn -0.7221 0.6754 -0.1498
vn -0.4621 0.8608 0.2135
vn -0.8350 0.4653 0.2939
vn -0.9015 0.4123 0.1317
vn 0.8047 0.5904 -0.0623
vn -0.8977 0.2832 0.3377
vn -0.8817 0.1420 0.4499
vn -0.8849 0.1869 0.4267
vn -0.8782 0.1112 0.4651
vn -0.8222 0.5643 0.0752
vn -0.8932 0.3929 0.2186
vn -0.6857 0.5390 0.4892
vn 0.1070 0.8690 -0.4832
vn -0.8281 0.5603 -0.0209
vn -0.7275 0.6137 -0.3066
vn -0.6687 0.6255 -0.4021
vn -0.7039 0.6995 -0.1239
vn -0.4024 0.7382 0.5413
vn -0.2843 0.6154 0.7351
vn -0.0766 0.7619 0.6432
vn -0.0529 0.7752 0.6295
vn -0.5861 0.7758 0.2338
vn -0.7653 0.6167 0.1843
vn -0.8186 0.3818 0.4291
vn -0.9068 0.4009 0.1300
vn -0.9058 0.4076 0.1162
vn -0.9179 0.1143 0.3801
vn -0.9225 0.2582 0.2868
vn -0.8744 0.4829 -0.0471
vn -0.7235 0.6359 0.2685
vn -0.6614 0.7238 -0.1967
vn 0.6823 0.7238 -0.1031
vn 0.7771 0.6234 0.0868
vn 0.7015 0.7124 0.0197
vn 0.2939 0.7019 0.6488
vn 0.5769 0.8006 0.1620
vn 0.0558 0.5816 0.8115
vn -0.9815 0.1844 -0.0506
vn -0.9690 0.2314 -0.0867
vn -0.9823 0.1340 -0.1308
vn -0.9440 0.2878 -0.1613
vn -0.8782 0.3388 0.3375
vn -0.8951 0.3984 0.2002
vn -0.9251 0.3568 0.1300
vn -0.6461 0.6420 -0.4127
vn 0.0085 0.8064 0.5913
vn -0.1872 0.4744 0.8602
vn -0.0402 0.7329 0.6791
vn -0.0108 0.7190 0.6949
vn -0.1043 0.7599 0.6416
vn -0.6693 0.6196 0.4100
vn -0.7633 0.4341 0.4786
vn -0.8950 0.2509 -0.3688
vn -0.8907 0.1804 -0.4172
vn -0.8817 0.4012 -0.2484
vn -0.9142 0.3663 -0.1733
vn -0.1559 0.6797 -0.7167
vn 0.7907 0.6122 0.0058
vn 0.7067 0.6937 0.1389
vn -0.9267 0.2071 -0.3134
vn -0.8931 0.3485 -0.2845
vn -0.9234 0.2357 -0.3030
vn -0.9267 0.2079 -0.3132
vn -0.7388 0.5574 0.3787
vn -0.8691 0.4655 0.1673
vn -0.8837 0.4459 -0.1421
vn -0.7525 0.5678 -0.3336
vn -0.8408 0.4454 0.3076
vn 0.4738 0.7710 0.4254
vn -0.8843 0.4229 0.1980
vn -0.7861 0.6176 0.0264
vn -0.8118 0.5743 0.1054
vn -0.8122 0.5735 0.1067
vn 0.1180 0.6471 0.7532
vn -0.8344 -0.0000 0.5511
vn -0.6753 -0.0000 0.7375
vn -0.5693 0.3759 0.7312
vn -0.9230 0.2012 0.3281
vn -0.9140 0.1075 0.3911
vn -0.8931 0.1437 -0.4264
vn -0.8925 0.1555 -0.4235
vn -0.8704 0.4923 -0.0079
vn -0.7086 0.5955 -0.3784
vn -0.5525 0.4808 -0.6808
vn 0.5708 0.8067 -0.1531
vn 0.6735 0.7364 0.0637
vn 0.6509 0.7516 -0.1066
vn 0.7449 0.0000 -0.6671
vn 0.6818 0.0000 -0.7316
vn 0.8090 0.5585 -0.1832
vn 0.8078 0.5895 -0.0053
vn -0.4877 0.0000 -0.8730
vn -0.8195 0.0000 -0.5731
vn -0.8031 0.5533 -0.2214
vn -0.7675 0.5791 -0.2749
vn -0.7911 0.5969 -0.1341
vn -0.7335 0.5327 -0.4222
vn 0.5127 0.8223 0.2469
vn -0.8214 0.5524 0.1419
vn -0.1648 0.4904 0.8558
vn -0.3739 0.5803 0.7236
vn -0.3660 0.5887 0.7208
vn -0.3435 0.6120 0.7123
vn -0.2455 0.5266 0.8139
vn -0.0000 -0.0000 1.0000
vn -0.7950 0.3870 0.4671
vn -0.9089 0.3641 0.2035
vn -0.8635 0.3459 -0.3670
vn -0.5650 0.5942 -0.5725
vn 0.7269 0.6855 0.0417
vn 0.2349 0.9719 0.0177
vn 0.0000 0.0000 -1.0000
vn 0.6087 0.6022 -0.5166
vn 0.6655 0.7330 -0.1404
vn -0.7632 0.5153 -0.3898
vn -0.1832 0.6587 -0.7298
vn -0.6001 0.7030 -0.3816
vn -0.8948 0.4355 -0.0988
vn -0.8297 0.5581 -0.0107
vn -0.8344 0.5511 0.0044
vn -0.8343 0.5513 0.0040
vn -0.3797 0.5739 0.7256
vn -0.5700 -0.0000 0.8217
vn -0.7286 -0.0000 0.6849
vn -0.4822 0.3506 0.8029
vn -0.8555 0.5001 0.1341
vn -0.6837 0.0000 -0.7297
vn -0.7146 0.0000 -0.6995
vn -0.8256 0.5460 -0.1425
vn -0.7380 0.4862 -0.4680
vn -0.6183 0.5784 -0.5321
vn -0.4157 0.4436 -0.7940
vn -0.3162 0.9481 0.0341
vn -0.1266 0.9653 -0.2286
vn 0.1968 0.6881 -0.6984
vn 0.0706 0.7036 -0.7071
vn 0.3622 0.5576 -0.7469
vn 0.3632 0.9314 -0.0228
vn 0.4276 0.6593 -0.6184
vn -0.0393 0.4910 -0.8703
vn 0.0809 0.9383 -0.3362
vn -0.8365 0.5478 0.0115
vn -0.3665 0.4673 0.8045
vn -0.2183 0.5639 0.7965
vn -0.1467 0.6136 0.7758
vn 0.0000 -0.0000 1.0000
vn -0.4743 0.3710 0.7984
vn -0.4712 0.6154 0.6319
vn -0.5884 0.4950 -0.6394
vn -0.5639 0.8258 -0.0076
vn 0.1856 0.9391 -0.2892
vn 0.8165 0.5755 0.0469
vn 0.1508 0.4857 -0.8610
vn -0.2232 0.4188 -0.8802
vn -0.2772 0.5838 -0.7631
vn -0.5374 0.4177 -0.7326
vn -0.8338 0.4538 -0.3144
vn -0.7777 0.5093 -0.3684
vn -0.7706 0.5421 -0.3350
vn -0.7737 0.5293 -0.3483
vn -0.1901 0.8355 0.5156
vn -0.1879 0.8349 0.5173
vn -0.2004 0.8381 0.5075
vn -0.0693 0.3815 0.9218
vn -0.1208 0.4291 0.8951
vn -0.3461 0.9039 -0.2512
vn -0.8668 0.4788 -0.1395
vn -0.4015 0.3656 -0.8397
vn -0.6812 0.7308 -0.0439
vn -0.0616 0.6906 -0.7206
vn -0.0941 0.5045 -0.8583
vn -0.1554 0.9263 -0.3433
vn -0.4962 0.7917 -0.3563
vn 0.6723 0.5320 -0.5147
vn 0.3497 0.6579 -0.6670
vn -0.3169 0.4932 -0.8101
vn -0.1206 0.5078 -0.8530
vn -0.0597 0.5328 -0.8442
vn -0.1154 0.5391 -0.8343
vn -0.7525 0.6010 -0.2695
vn -0.2635 0.5932 0.7607
vn -0.1731 0.8309 0.5287
vn 0.8058 -0.0000 0.5922
vn 0.6749 -0.0000 0.7379
vn 0.0867 0.5318 0.8424
vn 0.4056 0.7479 0.5255
vn 0.0248 0.9469 -0.3206
vn 0.3722 0.7534 -0.5421
vn -0.3935 0.8022 -0.4491
vn -0.1926 0.9460 -0.2609
vn -0.1405 0.8705 -0.4716
vn -0.5042 0.4864 -0.7135
vn -0.8492 0.4546 -0.2687
vn -0.2258 0.7593 -0.6103
vn -0.7316 0.5869 -0.3469
vn -0.3810 0.5692 0.7286
vn -0.2583 0.6879 0.6783
vn -0.3017 0.6492 0.6982
vn -0.0216 0.8435 0.5367
vn 0.3768 0.5027 0.7780
vn 0.7395 0.4378 0.5114
vn 0.0919 0.9895 0.1118
vn -0.2681 0.5143 0.8147
vn -0.5602 0.5504 0.6191
vn -0.0896 0.9579 0.2727
vn 0.5562 0.0000 -0.8310
vn -0.1227 0.0000 -0.9924
vn 0.7251 0.0000 -0.6886
vn 0.4551 0.5541 -0.6970
vn 0.2486 0.2990 -0.9213
vn 0.4620 0.8015 -0.3797
vn 0.2761 0.6906 -0.6685
vn 0.1979 0.6898 -0.6965
vn 0.1963 0.6678 -0.7180
vn -0.1914 0.7005 -0.6875
vn 0.5329 0.6135 -0.5827
vn 0.4963 0.6450 -0.5811
vn 0.4981 0.6434 -0.5813
vn -0.0202 0.7430 -0.6690
vn -0.1164 0.9261 -0.3588
vn -0.0706 0.9521 -0.2975
vn -0.5317 0.6601 -0.5306
vn -0.2853 0.8880 -0.3608
vn -0.4491 0.5061 0.7363
vn -0.4017 0.5638 0.7217
vn 0.4148 0.6616 0.6247
vn 0.7798 0.4528 0.4322
vn 0.8807 0.3478 0.3216
vn 0.8659 0.2809 0.4138
vn 0.9161 0.1158 0.3838
vn 0.8179 0.4722 0.3287
vn 0.8874 0.4422 0.1303
vn 0.9962 -0.0000 0.0865
vn 0.5379 0.5254 -0.6592
vn 0.5458 0.3367 -0.7673
vn 0.5720 0.7756 -0.2669
vn 0.4474 0.7309 -0.5153
vn 0.3786 0.7368 -0.5601
vn 0.3222 0.7277 -0.6055
vn 0.3586 0.7432 -0.5649
vn 0.3031 0.7227 -0.6211
vn -0.2621 0.8657 -0.4264
vn -0.0718 0.9365 -0.3432
vn -0.5667 0.7953 0.2154
vn 0.6961 0.6893 0.2006
vn 0.8390 0.5438 -0.0210
vn 0.9881 0.1490 0.0371
vn 0.9495 0.3065 -0.0671
vn 0.9888 0.1274 0.0772
vn 0.9356 0.3506 -0.0413
vn 0.7559 0.4900 0.4342
vn 0.9242 0.3739 -0.0778
vn 0.8830 0.2072 -0.4212
vn 0.6374 0.1943 -0.7456
vn 0.6833 0.3933 -0.6152
vn 0.8934 0.3689 -0.2562
vn 0.1669 0.8956 -0.4122
vn 0.3305 0.8752 -0.3533
vn -0.1439 0.8858 -0.4412
vn -0.1719 0.8725 -0.4573
vn -0.2559 0.8257 -0.5028
vn -0.2836 0.8077 -0.5169
vn -0.0221 0.9210 -0.3889
vn -0.3636 0.7070 0.6066
vn -0.2993 0.7697 0.5639
vn 0.0702 0.9628 0.2608
vn 0.3965 0.7369 0.5475
vn -0.4771 0.6445 0.5975
vn -0.3653 0.8818 -0.2984
vn 0.7769 0.5036 -0.3779
vn 0.8426 0.4651 -0.2716
vn 0.9598 0.2241 -0.1689
vn 0.9719 0.1683 -0.1645
vn 0.9639 0.2164 -0.1552
vn 0.9734 0.1742 -0.1491
vn 0.8734 0.4671 -0.1377
vn 0.8356 0.5416 -0.0921
vn 0.9162 0.3956 -0.0632
vn 0.9035 0.4255 0.0519
vn 0.3736 0.5899 0.7158
vn 0.2251 0.8207 0.5252
vn -0.4913 0.5457 0.6789
vn -0.3520 0.5972 0.7207
vn 0.9392 0.2645 -0.2190
vn 0.9446 0.1679 -0.2822
vn 0.8776 0.4206 -0.2299
vn 0.8963 0.3675 -0.2482
vn 0.6896 0.4588 -0.5603
vn 0.9045 0.4218 -0.0630
vn 0.9235 0.3834 0.0100
vn 0.6292 0.4750 -0.6152
vn 0.6676 0.6527 -0.3582
vn 0.4378 0.6446 -0.6267
vn 0.4717 0.6692 -0.5741
vn 0.4314 0.5152 -0.7405
vn -0.2473 0.9135 -0.3231
vn -0.4213 0.7664 -0.4849
vn 0.0965 0.9827 -0.1582
vn 0.4244 0.8259 -0.3711
vn 0.5814 0.7467 -0.3231
vn 0.4017 0.7963 -0.4523
vn -0.0051 0.5805 0.8143
vn 0.0237 0.7443 -0.6674
vn 0.8885 0.4185 -0.1883
vn 0.9045 0.3981 -0.1530
vn 0.3885 0.5421 0.7451
vn 0.5219 0.8529 0.0127
vn 0.0837 0.6478 0.7572
vn 0.0763 0.6521 0.7543
vn 0.1270 0.6214 0.7731
vn 0.2880 0.7741 0.5637
vn 0.7989 0.5797 -0.1605
vn 0.6348 0.5715 -0.5200
vn 0.7600 0.5679 -0.3160
vn 0.7310 0.5762 -0.3657
vn 0.5029 0.5454 -0.6705
vn 0.2999 0.5580 -0.7737
vn -0.4491 0.8170 -0.3615
vn 0.4228 0.7791 0.4629
vn 0.1205 0.4077 0.9051
vn 0.4946 0.8063 -0.3244
vn -0.0177 0.7019 0.7121
vn 0.5799 0.5638 -0.5882
vn 0.6594 0.6171 -0.4294
vn 0.6374 0.5396 -0.5500
vn 0.4803 0.5557 -0.6786
vn 0.0160 0.9144 -0.4046
vn 0.3499 0.8744 -0.3362
vn 0.0587 0.8963 -0.4396
vn 0.4714 0.8763 -0.0997
vn 0.4492 0.8905 -0.0715
vn 0.4591 0.8542 -0.2442
vn 0.4225 0.6742 -0.6058
vn 0.4064 0.5192 -0.7518
vn 0.2772 0.5307 0.8009
vn 0.7080 0.6764 0.2030
vn 0.5834 0.5702 0.5784
vn 0.7176 0.6332 0.2900
vn 0.8101 0.5770 0.1036
vn 0.5572 0.7391 -0.3786
vn 0.5588 0.5246 -0.6423
vn 0.5074 0.7672 -0.3925
vn 0.5489 0.6350 -0.5436
vn 0.2772 0.7527 -0.5971
vn 0.5739 0.7823 -0.2421
vn 0.8995 0.4108 0.1490
vn 0.6445 0.4016 0.6507
vn 0.9085 0.3922 -0.1446
vn 0.7181 0.5350 -0.4452
vn 0.7609 0.5167 -0.3924
vn 0.7651 0.4314 -0.4780
vn 0.5410 0.6420 -0.5433
vn 0.5260 0.6566 -0.5406
vn 0.5369 0.6461 -0.5425
vn 0.4631 0.6944 -0.5508
vn 0.7672 0.3046 -0.5645
vn 0.3194 0.5841 0.7462
vn 0.2669 0.9485 0.1704
vn 0.7037 0.6460 -0.2957
vn 0.7660 0.5406 -0.3479
vn 0.7195 0.5253 -0.4543
vn 0.7790 0.4790 -0.4047
vn 0.7276 0.4961 -0.4739
vn 0.6915 0.6443 -0.3266
vn 0.5110 0.6706 -0.5377
vn 0.7234 0.6788 0.1262
vn 0.5733 0.5024 0.6472
vn 0.7682 0.5090 -0.3883
vn 0.1657 0.8019 0.5741
vn 0.2156 0.7660 0.6057
vn 0.7563 0.5530 -0.3497
vn 0.6815 0.6277 -0.3762
vn 0.6236 0.6209 -0.4750
vn 0.7048 0.5564 0.4400
vn 0.7984 0.5079 -0.3235
vn 0.7995 0.4683 -0.3762
vn 0.7949 0.4541 -0.4025
vn 0.7908 0.4427 -0.4228
vn 0.8819 0.4713 -0.0077
vn 0.8831 0.4690 -0.0132
vn 0.8866 0.4616 -0.0303
vn 0.7109 0.3702 0.5980
vn 0.6932 0.4637 0.5517
vn 0.7081 0.3886 0.5895
vn 0.7404 0.5069 0.4415
vn 0.7106 0.6097 0.3511
vn 0.8100 0.5153 -0.2799
vn 0.8723 0.4878 0.0325
vn 0.6566 0.5827 0.4789
vn -0.0000 -1.0000 -0.0000
vn 0.0000 -1.0000 -0.0000
vn -0.0000 -1.0000 0.0000
vn 0.0000 -1.0000 0.0000
# 510 vertex normals

vt 0.7333 0.2264 0.0000
vt 0.9202 0.3668 0.0000
vt 0.9212 0.3662 0.0000
vt 0.9213 0.3663 0.0000
vt 0.9203 0.3669 0.0000
vt 0.9203 0.3703 0.0000
vt 0.9204 0.3688 0.0000
vt 0.9205 0.3688 0.0000
vt 0.9204 0.3703 0.0000
vt 0.9201 0.3677 0.0000
vt 0.9202 0.3677 0.0000
vt 0.9234 0.3662 0.0000
vt 0.9235 0.3663 0.0000
vt 0.9215 0.3673 0.0000
vt 0.9215 0.3702 0.0000
vt 0.9215 0.3701 0.0000
vt 0.9216 0.3690 0.0000
vt 0.9215 0.3681 0.0000
vt 0.9240 0.3654 0.0000
vt 0.9241 0.3656 0.0000
vt 0.9222 0.3700 0.0000
vt 0.9223 0.3698 0.0000
vt 0.9219 0.3682 0.0000
vt 0.9251 0.3654 0.0000
vt 0.9251 0.3656 0.0000
vt 0.9247 0.3672 0.0000
vt 0.9224 0.3675 0.0000
vt 0.9232 0.3706 0.0000
vt 0.9233 0.3704 0.0000
vt 0.9260 0.3657 0.0000
vt 0.9260 0.3659 0.0000
vt 0.9234 0.3677 0.0000
vt 0.9245 0.3705 0.0000
vt 0.9246 0.3704 0.0000
vt 0.9229 0.3688 0.0000
vt 0.9269 0.3663 0.0000
vt 0.9268 0.3664 0.0000
vt 0.9256 0.3672 0.0000
vt 0.9254 0.3714 0.0000
vt 0.9254 0.3713 0.0000
vt 0.9248 0.3688 0.0000
vt 0.9253 0.3689 0.0000
vt 0.9277 0.3666 0.0000
vt 0.9277 0.3667 0.0000
vt 0.9264 0.3674 0.0000
vt 0.9246 0.3680 0.0000
vt 0.9254 0.3683 0.0000
vt 0.9264 0.3711 0.0000
vt 0.9263 0.3710 0.0000
vt 0.9256 0.3699 0.0000
vt 0.9288 0.3668 0.0000
vt 0.9287 0.3669 0.0000
vt 0.9271 0.3679 0.0000
vt 0.9273 0.3706 0.0000
vt 0.9272 0.3705 0.0000
vt 0.9264 0.3704 0.0000
vt 0.9257 0.3690 0.0000
vt 0.9210 0.3744 0.0000
vt 0.9204 0.3730 0.0000
vt 0.9205 0.3731 0.0000
vt 0.9211 0.3744 0.0000
vt 0.9201 0.3755 0.0000
vt 0.9203 0.3755 0.0000
vt 0.9207 0.3767 0.0000
vt 0.9209 0.3766 0.0000
vt 0.9296 0.3673 0.0000
vt 0.9295 0.3673 0.0000
vt 0.9278 0.3681 0.0000
vt 0.9259 0.3685 0.0000
vt 0.9283 0.3709 0.0000
vt 0.9282 0.3708 0.0000
vt 0.9264 0.3693 0.0000
vt 0.9223 0.3736 0.0000
vt 0.9224 0.3737 0.0000
vt 0.9228 0.3747 0.0000
vt 0.9216 0.3753 0.0000
vt 0.9212 0.3778 0.0000
vt 0.9213 0.3777 0.0000
vt 0.9293 0.3682 0.0000
vt 0.9292 0.3682 0.0000
vt 0.9268 0.3686 0.0000
vt 0.9288 0.3702 0.0000
vt 0.9286 0.3701 0.0000
vt 0.9273 0.3696 0.0000
vt 0.9217 0.3714 0.0000
vt 0.9218 0.3715 0.0000
vt 0.9228 0.3753 0.0000
vt 0.9213 0.3794 0.0000
vt 0.9214 0.3792 0.0000
vt 0.9225 0.3760 0.0000
vt 0.9227 0.3768 0.0000
vt 0.9286 0.3691 0.0000
vt 0.9285 0.3691 0.0000
vt 0.9274 0.3688 0.0000
vt 0.9232 0.3724 0.0000
vt 0.9232 0.3725 0.0000
vt 0.9233 0.3740 0.0000
vt 0.9234 0.3747 0.0000
vt 0.9227 0.3787 0.0000
vt 0.9227 0.3785 0.0000
vt 0.9241 0.3724 0.0000
vt 0.9241 0.3725 0.0000
vt 0.9233 0.3752 0.0000
vt 0.9238 0.3783 0.0000
vt 0.9237 0.3782 0.0000
vt 0.9235 0.3756 0.0000
vt 0.9235 0.3760 0.0000
vt 0.9256 0.3714 0.0000
vt 0.9255 0.3716 0.0000
vt 0.9240 0.3738 0.0000
vt 0.9240 0.3745 0.0000
vt 0.9251 0.3788 0.0000
vt 0.9251 0.3787 0.0000
vt 0.9257 0.3728 0.0000
vt 0.9256 0.3729 0.0000
vt 0.9238 0.3751 0.0000
vt 0.9239 0.3756 0.0000
vt 0.9267 0.3795 0.0000
vt 0.9266 0.3793 0.0000
vt 0.9240 0.3762 0.0000
vt 0.9260 0.3740 0.0000
vt 0.9259 0.3740 0.0000
vt 0.9253 0.3742 0.0000
vt 0.9256 0.3750 0.0000
vt 0.9262 0.3772 0.0000
vt 0.9261 0.3770 0.0000
vt 0.9270 0.3750 0.0000
vt 0.9268 0.3750 0.0000
vt 0.9267 0.3761 0.0000
vt 0.9266 0.3761 0.0000
vt 0.9263 0.3771 0.0000
vt 0.9262 0.3771 0.0000
# 132 texture coords

g SPW_Natures_Mount_04
usemtl SPW_Natures_02
s off
f 1/1/1 2/1/1 3/1/1 
f 4/1/2 5/1/2 2/1/2 1/1/2 
s 1
f 3/1/3 2/1/4 6/1/5 
s off
f 7/1/6 5/1/6 4/1/6 
f 8/1/7 2/1/7 5/1/7 
s 1
f 6/1/5 2/1/4 9/1/8 10/1/8 
s off
f 11/1/9 9/1/9 2/1/9 
s 2
f 10/1/10 9/1/11 12/1/12 
s off
f 13/1/13 14/1/13 15/1/13 
f 16/1/14 5/1/14 7/1/14 15/1/14 
f 16/1/15 15/1/15 14/1/15 
f 17/1/16 8/1/16 5/1/16 16/1/16 
f 18/1/17 11/1/17 2/1/17 8/1/17 
s 2
f 12/1/12 9/1/11 19/1/18 20/1/18 
s 1
f 21/1/19 14/1/20 13/1/21 
s off
f 14/1/22 22/1/22 23/1/22 16/1/22 
f 8/1/23 17/1/23 24/1/23 18/1/23 
f 17/1/24 16/1/24 23/1/24 25/1/24 
f 11/1/25 18/1/25 26/1/25 27/1/25 
f 27/1/26 19/1/26 9/1/26 11/1/26 
f 20/1/27 19/1/27 28/1/27 29/1/27 
f 20/1/28 29/1/28 30/1/28 
s 1
f 31/1/29 22/1/29 14/1/20 21/1/19 
s off
f 25/1/30 32/1/30 24/1/30 17/1/30 
f 28/1/31 19/1/31 27/1/31 
s 1
f 30/1/32 29/1/33 33/1/34 
s off
f 34/1/35 35/1/35 36/1/35 22/1/35 
f 34/1/36 22/1/36 31/1/36 
f 23/1/37 22/1/37 36/1/37 37/1/37 
s 1
f 18/1/38 24/1/39 38/1/40 26/1/41 
s off
f 25/1/42 23/1/42 37/1/42 39/1/42 
f 32/1/43 25/1/43 39/1/43 40/1/43 
s 2
f 27/1/44 26/1/45 28/1/46 
s 1
f 33/1/34 29/1/33 41/1/47 42/1/48 
s off
f 43/1/49 35/1/49 34/1/49 
s 2
f 32/1/50 38/1/51 24/1/52 
s off
f 32/2/53 40/3/53 44/4/53 45/5/53 
s 2
f 28/6/46 26/7/45 46/8/54 47/9/55 
s off
f 48/1/56 41/1/56 29/1/56 28/1/56 
f 42/1/57 41/1/57 49/1/57 
f 50/1/58 35/1/58 43/1/58 
s 1
f 51/1/59 36/1/59 35/1/60 52/1/61 
s off
f 37/1/62 36/1/62 51/1/62 53/1/62 
f 37/1/63 53/1/63 54/1/63 
f 39/1/64 37/1/64 54/1/64 55/1/64 
s 1
f 26/7/41 38/10/40 56/11/65 46/8/66 
s 2
f 38/10/51 32/2/50 45/5/67 56/11/68 
s off
f 40/3/69 57/12/69 58/13/69 44/4/69 
f 59/14/70 45/5/70 44/4/70 
s 1
f 60/15/71 28/6/72 47/9/72 61/16/73 
s 2
f 47/9/55 46/8/54 62/17/74 
s 1
f 49/1/75 41/1/47 48/1/76 63/1/77 
s off
f 28/1/78 60/1/78 48/1/78 
s 1
f 52/1/61 35/1/60 50/1/79 
s off
f 55/1/80 64/1/80 40/1/80 39/1/80 
s 1
f 65/18/81 46/8/66 56/11/65 
s 2
f 45/5/67 59/14/82 65/18/83 56/11/68 
s off
f 40/1/84 64/1/84 66/1/84 
f 57/1/85 40/1/85 66/1/85 67/1/85 
s 1
f 57/12/86 68/19/87 69/20/88 58/13/86 
f 70/21/89 60/15/71 61/16/73 71/22/89 
s off
f 47/9/90 62/17/90 71/22/90 61/16/90 
f 46/8/91 65/18/91 72/23/91 62/17/91 
s 1
f 63/1/77 48/1/76 73/1/92 74/1/92 
s off
f 60/1/93 75/1/93 73/1/93 48/1/93 
f 76/1/94 77/1/94 78/1/94 54/1/94 
f 76/1/95 54/1/95 53/1/95 
f 54/1/96 78/1/96 79/1/96 55/1/96 
f 64/1/97 55/1/97 79/1/97 80/1/97 
f 66/1/98 64/1/98 80/1/98 81/1/98 
f 57/1/99 67/1/99 68/1/99 
s 1
f 68/19/87 82/24/100 83/25/100 69/20/88 
s off
f 69/20/101 83/25/101 84/26/101 58/13/101 
f 85/27/102 59/14/102 44/4/102 58/13/102 
s 2
f 86/28/103 70/21/103 71/22/103 87/29/103 
s off
f 70/1/104 86/1/104 75/1/104 60/1/104 
s 2
f 74/1/105 73/1/105 88/1/106 89/1/107 
s 1
f 90/1/108 91/1/109 77/1/110 76/1/110 
s off
f 59/14/111 85/27/111 72/23/111 65/18/111 
f 67/1/112 66/1/112 81/1/112 92/1/112 
f 68/1/113 67/1/113 92/1/113 93/1/113 
f 68/1/114 93/1/114 94/1/114 82/1/114 
s 1
f 82/24/100 95/30/100 96/31/100 83/25/100 
s off
f 97/32/115 85/27/115 58/13/115 
s 2
f 98/33/103 86/28/103 87/29/103 99/34/103 
s off
f 71/22/116 62/17/116 72/23/116 100/35/116 
f 75/1/117 101/1/117 88/1/117 73/1/117 
s 2
f 89/1/107 88/1/106 102/1/118 103/1/118 
s 1
f 104/1/119 91/1/109 90/1/108 
s off
f 80/1/120 79/1/120 105/1/120 
f 106/1/121 81/1/121 80/1/121 
s 1
f 95/30/100 107/36/100 108/37/100 96/31/100 
s off
f 96/31/122 109/38/122 84/26/122 83/25/122 
s 1
f 110/39/123 98/33/124 99/34/125 111/40/126 
s off
f 98/1/127 101/1/127 75/1/127 86/1/127 
f 87/29/128 112/41/128 113/42/128 99/34/128 
f 112/41/129 87/29/129 71/22/129 100/35/129 
f 72/23/130 85/27/130 97/32/130 100/35/130 
f 101/1/131 114/1/131 115/1/131 88/1/131 
f 88/1/132 115/1/132 116/1/132 117/1/132 
f 88/1/133 117/1/133 102/1/133 
f 103/1/134 102/1/134 118/1/134 
f 119/1/135 91/1/135 104/1/135 
f 120/1/136 77/1/136 91/1/136 121/1/136 
s 1
f 122/1/137 121/1/137 91/1/109 123/1/138 
s off
f 124/1/139 78/1/139 77/1/139 120/1/139 
f 105/1/140 79/1/140 78/1/140 124/1/140 
f 105/1/141 125/1/141 126/1/141 80/1/141 
s 1
f 106/1/142 80/1/143 126/1/144 127/1/145 
s off
f 106/1/146 128/1/146 92/1/146 81/1/146 
f 92/1/147 128/1/147 129/1/147 93/1/147 
f 94/1/148 93/1/148 129/1/148 130/1/148 
f 131/1/149 95/1/149 82/1/149 94/1/149 
f 107/1/150 95/1/150 131/1/150 132/1/150 
s 1
f 107/36/100 133/43/100 134/44/100 108/37/100 
s off
f 96/31/151 108/37/151 135/45/151 109/38/151 
f 136/46/152 97/32/152 58/13/152 84/26/152 
f 84/26/153 109/38/153 137/47/153 136/46/153 
f 97/32/154 136/46/154 112/41/154 100/35/154 
s 2
f 138/48/155 110/39/156 111/40/157 139/49/158 
s 1
f 111/40/126 99/34/125 140/50/159 
f 101/1/160 98/1/124 110/1/123 114/1/161 
s off
f 118/1/162 102/1/162 117/1/162 
s 1
f 123/1/138 91/1/109 119/1/163 
s off
f 121/1/164 141/1/164 142/1/164 120/1/164 
s 2
f 143/1/165 141/1/166 121/1/167 122/1/167 
s off
f 120/1/168 142/1/168 144/1/168 124/1/168 
f 124/1/169 144/1/169 125/1/169 105/1/169 
s 2
f 127/1/170 145/1/171 128/1/172 106/1/173 
s off
f 131/1/174 94/1/174 130/1/174 146/1/174 
f 133/1/175 107/1/175 132/1/175 147/1/175 
s 1
f 133/43/100 148/51/100 149/52/100 134/44/100 
s off
f 108/37/176 134/44/176 150/53/176 135/45/176 
s 4
f 151/54/177 138/48/178 139/49/179 152/55/180 
s 2
f 138/1/155 153/1/181 114/1/182 110/1/156 
f 139/49/158 111/40/157 140/50/183 154/56/184 
s off
f 99/34/185 113/42/185 155/57/185 140/50/185 
f 113/42/186 112/41/186 136/46/186 137/47/186 
f 115/1/187 114/1/187 153/1/187 156/1/187 
s 1
f 116/1/188 115/1/189 157/1/190 
s 2
f 158/1/191 141/1/166 143/1/165 
f 126/58/103 125/59/192 159/60/193 160/61/103 
s off
f 144/1/194 161/1/194 162/1/194 125/1/194 
s 1
f 127/62/145 126/58/144 160/61/195 163/63/196 
s 2
f 145/64/171 127/62/170 163/63/197 164/65/198 
s off
f 145/1/199 165/1/199 129/1/199 128/1/199 
f 130/1/200 129/1/200 165/1/200 166/1/200 
f 146/1/201 130/1/201 166/1/201 167/1/201 
f 131/1/202 146/1/202 168/1/202 132/1/202 
f 147/1/203 132/1/203 168/1/203 169/1/203 
f 133/1/204 147/1/204 170/1/204 148/1/204 
s 1
f 148/51/100 171/66/205 172/67/206 149/52/100 
s off
f 149/52/207 173/68/207 150/53/207 134/44/207 
f 137/47/208 109/38/208 135/45/208 174/69/208 
s 1
f 175/70/209 151/54/103 152/55/103 176/71/210 
s 4
f 138/1/178 151/1/177 177/1/211 153/1/212 
f 154/56/213 152/55/180 139/49/179 
s off
f 154/56/214 140/50/214 155/57/214 178/72/214 
f 137/47/215 174/69/215 155/57/215 113/42/215 
s 1
f 157/1/190 115/1/189 156/1/216 179/1/216 
s off
f 141/1/217 180/1/217 181/1/217 142/1/217 
s 1
f 182/1/218 141/1/219 158/1/220 
s off
f 142/1/221 181/1/221 161/1/221 144/1/221 
s 2
f 125/59/192 162/73/222 183/74/222 159/60/193 
s off
f 159/60/223 183/74/223 184/75/223 160/61/223 
s 1
f 185/76/224 163/63/196 160/61/195 
f 165/77/103 145/64/103 164/65/103 186/78/103 
s 2
f 164/65/198 163/63/197 185/76/225 
s off
f 167/1/226 187/1/226 168/1/226 146/1/226 
f 169/1/227 188/1/227 170/1/227 147/1/227 
f 171/1/228 148/1/228 170/1/228 189/1/228 
s 1
f 171/66/205 190/79/229 191/80/229 172/67/206 
s off
f 173/68/230 149/52/230 172/67/230 191/80/230 
f 150/53/231 192/81/231 174/69/231 135/45/231 
s 1
f 193/82/89 175/70/209 176/71/210 194/83/89 
s off
f 151/1/232 175/1/232 195/1/232 177/1/232 
f 176/71/233 152/55/233 196/84/233 194/83/233 
f 152/55/234 154/56/234 178/72/234 196/84/234 
f 153/1/235 177/1/235 197/1/235 156/1/235 
s 2
f 179/1/236 156/1/237 198/1/238 
s 1
f 199/1/239 180/1/239 141/1/219 182/1/218 
f 162/73/103 161/85/240 200/86/241 183/74/103 
s off
f 181/1/242 201/1/242 202/1/242 161/1/242 
f 160/61/243 184/75/243 203/87/243 185/76/243 
s 1
f 166/88/244 165/77/103 186/78/103 204/89/245 
s off
f 186/78/246 164/65/246 205/90/246 206/91/246 
f 164/65/247 185/76/247 203/87/247 205/90/247 
f 167/1/248 166/1/248 207/1/248 208/1/248 
f 187/1/249 167/1/249 208/1/249 209/1/249 
f 168/1/250 187/1/250 210/1/250 169/1/250 
f 188/1/251 169/1/251 210/1/251 211/1/251 
f 171/1/252 189/1/252 212/1/252 213/1/252 
f 190/1/253 171/1/253 213/1/253 214/1/253 
s 1
f 190/79/229 215/92/229 216/93/89 191/80/229 
s off
f 191/80/254 216/93/254 217/94/254 173/68/254 
f 192/81/255 150/53/255 173/68/255 217/94/255 
f 192/81/256 178/72/256 155/57/256 174/69/256 
s 1
f 215/92/229 193/82/89 194/83/89 216/93/89 
s off
f 193/1/257 218/1/257 219/1/257 175/1/257 
f 178/72/258 192/81/258 217/94/258 196/84/258 
s 2
f 198/1/238 156/1/237 197/1/259 220/1/259 
s off
f 180/1/260 221/1/260 201/1/260 181/1/260 
f 222/1/261 223/1/261 221/1/261 180/1/261 
f 222/1/262 180/1/262 199/1/262 
s 1
f 161/85/240 202/95/263 224/96/263 200/86/241 
s off
f 200/86/264 224/96/264 225/97/264 183/74/264 
f 183/74/265 225/97/265 226/98/265 184/75/265 
s 1
f 207/99/89 166/88/244 204/89/245 227/100/89 
s off
f 204/89/266 186/78/266 206/91/266 227/100/266 
f 209/1/267 228/1/267 210/1/267 187/1/267 
f 188/1/268 211/1/268 229/1/268 230/1/268 
f 189/1/269 170/1/269 188/1/269 230/1/269 
f 214/1/270 218/1/270 215/1/270 190/1/270 
f 215/1/271 218/1/271 193/1/271 
f 194/83/272 196/84/272 217/94/272 216/93/272 
f 175/1/273 219/1/273 231/1/273 195/1/273 
f 177/1/274 195/1/274 232/1/274 197/1/274 
s 1
f 220/1/275 197/1/275 232/1/276 233/1/277 
f 234/1/278 223/1/279 222/1/280 
f 202/95/263 235/101/263 236/102/263 224/96/263 
s off
f 201/1/281 237/1/281 235/1/281 202/1/281 
f 221/1/282 238/1/282 237/1/282 201/1/282 
f 203/87/283 184/75/283 226/98/283 239/103/283 
s 1
f 240/104/229 207/99/89 227/100/89 241/105/229 
s off
f 206/91/284 205/90/284 242/106/284 243/107/284 
f 227/100/285 206/91/285 243/107/285 241/105/285 
f 205/90/286 203/87/286 239/103/286 242/106/286 
f 208/1/287 207/1/287 240/1/287 244/1/287 
f 209/1/288 208/1/288 244/1/288 245/1/288 
f 228/1/289 209/1/289 245/1/289 246/1/289 
f 211/1/290 210/1/290 228/1/290 247/1/290 
f 189/1/291 230/1/291 248/1/291 212/1/291 
f 213/1/292 212/1/292 249/1/292 250/1/292 
f 213/1/293 250/1/293 251/1/293 
f 213/1/294 251/1/294 214/1/294 
f 214/1/295 251/1/295 252/1/295 218/1/295 
f 218/1/296 252/1/296 219/1/296 
s 1
f 233/1/277 232/1/276 253/1/297 
s off
f 223/1/298 254/1/298 238/1/298 221/1/298 
s 1
f 255/1/299 223/1/279 234/1/278 
f 235/101/263 256/108/300 257/109/301 236/102/263 
s off
f 236/102/302 258/110/302 225/97/302 224/96/302 
f 226/98/303 225/97/303 258/110/303 259/111/303 
s 1
f 260/112/229 240/104/229 241/105/229 261/113/89 
s off
f 228/1/304 246/1/304 262/1/304 247/1/304 
f 230/1/305 229/1/305 263/1/305 248/1/305 
f 229/1/306 211/1/306 247/1/306 264/1/306 
f 252/1/307 265/1/307 266/1/307 267/1/307 
f 252/1/308 267/1/308 219/1/308 
f 195/1/309 231/1/309 268/1/309 269/1/309 
f 195/1/310 269/1/310 232/1/310 
f 270/1/311 231/1/311 219/1/311 271/1/311 
f 253/1/312 232/1/312 269/1/312 
s 2
f 272/1/313 254/1/313 223/1/314 273/1/315 
f 273/1/315 223/1/314 255/1/316 
s off
f 235/1/317 237/1/317 274/1/317 256/1/317 
s 1
f 256/108/300 275/114/100 276/115/100 257/109/301 
s off
f 257/109/318 276/115/318 258/110/318 236/102/318 
f 239/103/319 226/98/319 259/111/319 277/116/319 
f 238/1/320 278/1/320 274/1/320 237/1/320 
f 254/1/321 279/1/321 278/1/321 238/1/321 
f 239/103/322 277/116/322 280/117/322 242/106/322 
s 2
f 281/118/323 260/112/324 261/113/324 282/119/325 
s off
f 240/1/326 260/1/326 283/1/326 244/1/326 
f 243/107/327 284/120/327 261/113/327 241/105/327 
f 242/106/328 280/117/328 284/120/328 243/107/328 
f 244/1/329 283/1/329 285/1/329 245/1/329 
f 245/1/330 285/1/330 286/1/330 246/1/330 
f 247/1/331 262/1/331 287/1/331 264/1/331 
f 264/1/332 288/1/332 263/1/332 229/1/332 
s 1
f 249/1/333 212/1/333 248/1/334 289/1/335 
s off
f 290/1/336 251/1/336 250/1/336 
f 251/1/337 291/1/337 252/1/337 
f 291/1/338 265/1/338 252/1/338 
f 268/1/339 231/1/339 270/1/339 
f 271/1/340 219/1/340 267/1/340 
f 292/1/341 293/1/341 279/1/341 254/1/341 
f 292/1/342 254/1/342 272/1/342 
f 275/1/343 256/1/343 294/1/343 295/1/343 
s 2
f 275/114/344 296/121/345 297/122/346 276/115/347 
s off
f 276/115/348 298/123/348 259/111/348 258/110/348 
f 277/116/349 259/111/349 298/123/349 299/124/349 
s 2
f 300/125/350 281/118/323 282/119/325 301/126/350 
s off
f 260/1/351 281/1/351 302/1/351 283/1/351 
f 284/120/352 301/126/352 282/119/352 261/113/352 
f 246/1/353 286/1/353 303/1/353 262/1/353 
f 248/1/354 263/1/354 304/1/354 305/1/354 
f 248/1/355 305/1/355 306/1/355 
f 264/1/356 287/1/356 307/1/356 288/1/356 
s 1
f 289/1/335 248/1/334 306/1/357 308/1/357 
s off
f 309/1/358 291/1/358 251/1/358 290/1/358 
f 266/1/359 265/1/359 310/1/359 
f 311/1/360 265/1/360 291/1/360 312/1/360 
f 313/1/361 293/1/361 292/1/361 
s 2
f 296/1/345 275/1/344 295/1/362 314/1/363 
s 1
f 296/121/364 315/127/365 316/128/366 297/122/367 
s 2
f 298/123/368 276/115/347 297/122/346 
s off
f 277/116/369 299/124/369 280/117/369 
s 1
f 317/1/370 300/1/229 301/1/229 318/1/371 
s off
f 317/1/372 319/1/372 281/1/372 300/1/372 
f 280/117/373 301/126/373 284/120/373 
f 308/1/374 306/1/374 320/1/374 
f 321/1/375 291/1/375 309/1/375 
s 1
f 310/1/376 265/1/377 322/1/378 
f 322/1/378 265/1/377 311/1/379 
s off
f 312/1/380 291/1/380 321/1/380 
s 1
f 323/1/381 293/1/382 313/1/383 
s off
f 324/1/384 294/1/384 256/1/384 274/1/384 
f 294/1/385 325/1/385 326/1/385 295/1/385 
f 314/1/386 295/1/386 326/1/386 327/1/386 
s 1
f 296/1/364 314/1/387 328/1/388 315/1/365 
s 2
f 315/127/389 329/129/390 330/130/391 316/128/392 
s 1
f 299/124/393 298/123/394 297/122/367 316/128/366 
s 2
f 280/117/395 299/124/396 316/128/392 330/130/391 
s off
f 331/1/397 324/1/397 274/1/397 278/1/397 
f 332/1/398 331/1/398 278/1/398 279/1/398 
s 1
f 333/1/399 334/1/399 293/1/382 323/1/381 
s off
f 332/1/400 279/1/400 293/1/400 334/1/400 
s 5
f 329/129/401 317/131/370 318/132/371 330/130/402 
s 4
f 301/126/403 280/117/404 330/130/402 318/132/371 
s off
f 319/1/405 335/1/405 336/1/405 281/1/405 
s 1
f 319/1/406 317/1/370 329/1/401 337/1/407 
s off
f 338/1/408 302/1/408 281/1/408 
f 339/1/409 285/1/409 283/1/409 302/1/409 
f 340/1/410 286/1/410 285/1/410 339/1/410 
f 286/1/411 340/1/411 341/1/411 303/1/411 
f 342/1/412 287/1/412 262/1/412 303/1/412 
f 304/1/413 263/1/413 288/1/413 343/1/413 
f 304/1/414 343/1/414 344/1/414 
f 288/1/415 307/1/415 345/1/415 343/1/415 
f 320/1/416 306/1/416 305/1/416 
f 287/1/417 342/1/417 346/1/417 347/1/417 
f 287/1/418 347/1/418 307/1/418 
f 324/1/419 348/1/419 325/1/419 294/1/419 
f 314/1/420 327/1/420 349/1/420 328/1/420 
s 2
f 315/1/389 328/1/421 337/1/422 329/1/390 
s off
f 324/1/423 331/1/423 350/1/423 348/1/423 
f 331/1/424 332/1/424 351/1/424 350/1/424 
s 2
f 352/1/425 353/1/426 334/1/427 333/1/427 
s off
f 332/1/428 334/1/428 353/1/428 351/1/428 
f 335/1/429 319/1/429 337/1/429 354/1/429 
f 281/1/430 336/1/430 355/1/430 338/1/430 
f 302/1/431 338/1/431 356/1/431 339/1/431 
f 340/1/432 339/1/432 356/1/432 
f 303/1/433 341/1/433 357/1/433 358/1/433 
f 303/1/434 358/1/434 342/1/434 
f 344/1/435 343/1/435 359/1/435 
f 326/1/436 325/1/436 360/1/436 361/1/436 
f 325/1/437 348/1/437 362/1/437 360/1/437 
f 326/1/438 361/1/438 363/1/438 327/1/438 
s 2
f 364/1/439 353/1/426 352/1/425 
s off
f 336/1/440 335/1/440 365/1/440 
f 354/1/441 366/1/441 365/1/441 335/1/441 
f 340/1/442 356/1/442 367/1/442 368/1/442 
f 340/1/443 368/1/443 341/1/443 
s 1
f 359/1/444 343/1/444 345/1/445 369/1/446 
f 370/1/447 345/1/445 307/1/448 347/1/448 
s off
f 346/1/449 342/1/449 358/1/449 
f 328/1/450 349/1/450 354/1/450 337/1/450 
f 327/1/451 363/1/451 371/1/451 349/1/451 
f 348/1/452 350/1/452 372/1/452 362/1/452 
f 350/1/453 351/1/453 373/1/453 372/1/453 
f 374/1/454 353/1/454 364/1/454 
f 351/1/455 353/1/455 374/1/455 375/1/455 
f 351/1/456 375/1/456 373/1/456 
f 355/1/457 336/1/457 365/1/457 
f 366/1/458 354/1/458 349/1/458 371/1/458 
f 338/1/459 355/1/459 376/1/459 356/1/459 
f 357/1/460 341/1/460 368/1/460 
s 1
f 369/1/446 345/1/445 377/1/461 
f 378/1/462 345/1/445 370/1/447 
s off
f 361/1/463 360/1/463 379/1/463 380/1/463 
f 360/1/464 362/1/464 381/1/464 379/1/464 
f 361/1/465 380/1/465 382/1/465 363/1/465 
f 383/1/466 355/1/466 365/1/466 384/1/466 
f 385/1/467 365/1/467 366/1/467 386/1/467 
f 366/1/468 371/1/468 382/1/468 
s 1
f 367/1/469 356/1/469 376/1/470 387/1/471 
s off
f 377/1/472 345/1/472 378/1/472 
f 371/1/473 363/1/473 382/1/473 
f 362/1/474 372/1/474 388/1/474 381/1/474 
f 389/1/475 373/1/475 375/1/475 
f 390/1/476 355/1/476 383/1/476 
f 384/1/477 365/1/477 385/1/477 
f 386/1/478 366/1/478 391/1/478 
f 382/1/479 392/1/479 393/1/479 394/1/479 
f 382/1/480 394/1/480 366/1/480 
f 395/1/481 376/1/481 355/1/481 390/1/481 
s 1
f 387/1/471 376/1/470 396/1/482 
s off
f 380/1/483 379/1/483 397/1/483 398/1/483 
f 379/1/484 381/1/484 399/1/484 397/1/484 
f 380/1/485 398/1/485 392/1/485 382/1/485 
f 400/1/486 388/1/486 372/1/486 373/1/486 
f 400/1/487 373/1/487 389/1/487 
f 391/1/488 366/1/488 394/1/488 
f 401/1/489 376/1/489 395/1/489 
f 396/1/490 376/1/490 401/1/490 
f 402/1/491 388/1/491 400/1/491 
f 393/1/492 392/1/492 403/1/492 
s 1
f 404/1/493 392/1/494 398/1/495 405/1/495 
s 2
f 406/1/496 398/1/497 397/1/498 407/1/498 
s 1
f 407/1/499 397/1/499 399/1/500 408/1/501 
s off
f 409/1/502 399/1/502 381/1/502 388/1/502 
f 409/1/503 388/1/503 402/1/503 
s 1
f 403/1/504 392/1/494 404/1/493 
s 2
f 405/1/505 398/1/497 406/1/496 
s 1
f 408/1/501 399/1/500 409/1/506 
s off
f 273/1/507 255/1/507 234/1/507 222/1/507 
f 222/1/508 199/1/508 182/1/508 158/1/508 
f 273/1/508 222/1/508 158/1/508 90/1/508 
f 158/1/508 143/1/508 122/1/508 123/1/508 
f 123/1/508 119/1/508 104/1/508 90/1/508 
f 158/1/508 123/1/508 90/1/508 
f 90/1/508 76/1/508 53/1/508 273/1/508 
f 53/1/507 51/1/507 52/1/507 43/1/507 
f 52/1/507 50/1/507 43/1/507 
f 34/1/508 31/1/508 21/1/508 43/1/508 
f 53/1/508 43/1/508 21/1/508 13/1/508 
f 15/1/508 7/1/508 4/1/508 13/1/508 
f 4/1/508 1/1/508 3/1/508 6/1/508 
f 13/1/508 4/1/508 6/1/508 20/1/508 
f 6/1/509 10/1/509 12/1/509 20/1/509 
f 53/1/508 13/1/508 20/1/508 273/1/508 
f 20/1/508 30/1/508 33/1/508 42/1/508 
f 20/1/507 42/1/507 49/1/507 117/1/507 
f 49/1/508 63/1/508 74/1/508 89/1/508 
f 103/1/507 118/1/507 117/1/507 89/1/507 
f 49/1/508 89/1/508 117/1/508 
f 20/1/508 117/1/508 116/1/508 290/1/508 
f 157/1/507 179/1/507 198/1/507 233/1/507 
f 198/1/507 220/1/507 233/1/507 
f 116/1/508 157/1/508 233/1/508 271/1/508 
f 233/1/508 253/1/508 269/1/508 270/1/508 
f 269/1/510 268/1/510 270/1/510 
f 233/1/507 270/1/507 271/1/507 
f 271/1/510 267/1/510 266/1/510 322/1/510 
f 266/1/508 310/1/508 322/1/508 
f 322/1/508 311/1/508 312/1/508 309/1/508 
f 312/1/507 321/1/507 309/1/507 
f 271/1/508 322/1/508 309/1/508 290/1/508 
f 116/1/508 271/1/508 290/1/508 
f 250/1/507 249/1/507 289/1/507 290/1/507 
f 308/1/507 320/1/507 305/1/507 289/1/507 
f 290/1/508 289/1/508 305/1/508 304/1/508 
f 344/1/507 359/1/507 369/1/507 304/1/507 
f 369/1/508 377/1/508 378/1/508 347/1/508 
f 378/1/508 370/1/508 347/1/508 
f 304/1/508 369/1/508 347/1/508 358/1/508 
f 347/1/507 346/1/507 358/1/507 
f 290/1/507 304/1/507 358/1/507 409/1/507 
f 358/1/508 357/1/508 368/1/508 367/1/508 
f 387/1/508 396/1/508 401/1/508 367/1/508 
f 358/1/508 367/1/508 401/1/508 383/1/508 
f 401/1/508 395/1/508 390/1/508 383/1/508 
f 383/1/507 384/1/507 385/1/507 386/1/507 
f 386/1/509 391/1/509 394/1/509 403/1/509 
f 394/1/508 393/1/508 403/1/508 
f 383/1/508 386/1/508 403/1/508 409/1/508 
f 404/1/509 405/1/509 406/1/509 403/1/509 
f 406/1/510 407/1/510 408/1/510 409/1/510 
f 403/1/507 406/1/507 409/1/507 
f 358/1/507 383/1/507 409/1/507 
f 20/1/507 290/1/507 409/1/507 272/1/507 
f 409/1/508 402/1/508 400/1/508 389/1/508 
f 375/1/510 374/1/510 364/1/510 389/1/510 
f 352/1/508 333/1/508 323/1/508 364/1/508 
f 389/1/508 364/1/508 323/1/508 409/1/508 
f 323/1/507 313/1/507 292/1/507 409/1/507 
f 409/1/507 292/1/507 272/1/507 
f 273/1/508 20/1/508 272/1/508 
# 344 polygons - 126 triangles

