# 3ds Max Wavefront OBJ Exporter v0.97b - (c)2007 guruware
# File Created: 15.03.2017 11:40:10

mtllib SPW_Urban_Bridge_FootBridge Part_02.mtl

#
# object SPW_Urban_Bridge_FootBridge_Part_02
#

v  98.4252 265.7481 59.0551
v  -98.4252 265.7481 59.0552
v  -98.4252 250.9843 59.0552
v  98.4252 250.9843 59.0551
v  -98.4252 265.7481 -59.0551
v  -98.4252 250.9843 -59.0551
v  98.4252 265.7481 -59.0551
v  98.4252 250.9843 -59.0551
v  98.4252 310.0394 59.0551
v  -98.4252 310.0394 59.0551
v  -98.4252 250.9843 59.0551
v  -98.4252 310.0394 51.1811
v  -98.4252 250.9843 51.1811
v  98.4252 310.0394 51.1811
v  98.4252 250.9843 51.1811
v  98.4252 310.0394 -51.1811
v  -98.4252 310.0394 -51.1811
v  -98.4252 250.9843 -51.1811
v  98.4252 250.9843 -51.1811
v  -98.4252 310.0394 -59.0551
v  98.4252 310.0394 -59.0551
# 21 vertices

vn 0.0000 -0.0000 1.0000
vn -1.0000 0.0000 -0.0000
vn -0.0000 0.0000 -1.0000
vn 1.0000 0.0000 -0.0000
vn 0.0000 -1.0000 -0.0000
vn 0.0000 1.0000 0.0000
# 6 vertex normals

vt 0.3597 0.3925 0.0000
vt 0.4097 0.3925 0.0000
vt 0.4097 0.4425 0.0000
vt 0.3597 0.4425 0.0000
# 4 texture coords

g SPW_Urban_Bridge_FootBridge_Part_02
usemtl SPW_Urban_Road
s off
f 1/1/1 2/2/1 3/3/1 4/4/1 
f 2/1/2 5/2/2 6/3/2 3/4/2 
f 5/1/3 7/2/3 8/3/3 6/4/3 
f 7/1/4 1/2/4 4/3/4 8/4/4 
f 4/1/5 3/2/5 6/3/5 8/4/5 
f 7/1/6 5/2/6 2/3/6 1/4/6 
f 9/1/1 10/2/1 11/3/1 4/4/1 
f 10/1/2 12/2/2 13/3/2 11/4/2 
f 12/1/3 14/2/3 15/3/3 13/4/3 
f 14/1/4 9/2/4 4/3/4 15/4/4 
f 4/1/5 11/2/5 13/3/5 15/4/5 
f 14/1/6 12/2/6 10/3/6 9/4/6 
f 16/1/1 17/2/1 18/3/1 19/4/1 
f 17/1/2 20/2/2 6/3/2 18/4/2 
f 20/1/3 21/2/3 8/3/3 6/4/3 
f 21/1/4 16/2/4 19/3/4 8/4/4 
f 19/1/5 18/2/5 6/3/5 8/4/5 
f 21/1/6 20/2/6 17/3/6 16/4/6 
# 18 polygons

