# 3ds Max Wavefront OBJ Exporter v0.97b - (c)2007 guruware
# File Created: 15.03.2017 11:39:58

mtllib SPW_Urban_Bridge_FootBridge Part_01.mtl

#
# object SPW_Urban_Bridge_FootBridge_Part_01
#

v  59.0551 265.7481 59.0551
v  -137.7953 265.7481 59.0552
v  -137.7953 250.9843 59.0552
v  59.0551 250.9843 59.0551
v  -137.7953 265.7481 -59.0551
v  -137.7953 250.9843 -59.0551
v  59.0551 265.7481 -59.0551
v  59.0551 250.9843 -59.0551
v  59.0551 310.0394 59.0551
v  -137.7953 310.0394 59.0551
v  -137.7953 250.9843 59.0551
v  -137.7953 310.0394 51.1811
v  -137.7953 250.9843 51.1811
v  59.0551 310.0394 51.1811
v  59.0551 250.9843 51.1811
v  -51.1811 310.0394 -51.1811
v  -137.7953 310.0394 -51.1810
v  -137.7953 250.9843 -51.1810
v  -51.1811 250.9843 -51.1811
v  -137.7953 310.0394 -59.0551
v  -51.1811 310.0394 -59.0551
v  -51.1811 250.9843 -59.0551
v  51.1811 310.0394 59.0552
v  51.1811 310.0394 -59.0551
v  51.1811 250.9843 -59.0551
v  51.1811 250.9843 59.0552
v  59.0551 310.0394 -59.0551
v  15.7480 250.9843 29.5276
v  -15.7480 250.9843 29.5276
v  -15.7480 0.0001 29.5276
v  15.7480 0.0001 29.5276
v  -15.7480 250.9843 -29.5275
v  -15.7480 0.0001 -29.5276
v  15.7480 250.9843 -29.5275
v  15.7480 0.0001 -29.5276
v  25.5906 29.5276 39.3701
v  -25.5905 29.5276 39.3701
v  -25.5905 0.0001 39.3701
v  25.5906 0.0001 39.3701
v  -25.5906 29.5276 -39.3701
v  -25.5906 0.0001 -39.3701
v  25.5905 29.5276 -39.3701
v  25.5905 0.0001 -39.3701
# 43 vertices

vn 0.0000 -0.0000 1.0000
vn -1.0000 0.0000 -0.0000
vn -0.0000 0.0000 -1.0000
vn 1.0000 0.0000 -0.0000
vn 0.0000 -1.0000 -0.0000
vn 0.0000 1.0000 0.0000
vn -1.0000 -0.0000 0.0000
vn 0.0000 0.0000 -1.0000
# 8 vertex normals

vt 0.3616 0.3847 0.0000
vt 0.4116 0.3847 0.0000
vt 0.4116 0.4347 0.0000
vt 0.3616 0.4347 0.0000
# 4 texture coords

g SPW_Urban_Bridge_FootBridge_Part_01
usemtl SPW_Urban_Road
s off
f 1/1/1 2/2/1 3/3/1 4/4/1 
f 2/1/2 5/2/2 6/3/2 3/4/2 
f 5/1/3 7/2/3 8/3/3 6/4/3 
f 7/1/4 1/2/4 4/3/4 8/4/4 
f 4/1/5 3/2/5 6/3/5 8/4/5 
f 7/1/6 5/2/6 2/3/6 1/4/6 
f 9/1/1 10/2/1 11/3/1 4/4/1 
f 10/1/2 12/2/2 13/3/2 11/4/2 
f 12/1/3 14/2/3 15/3/3 13/4/3 
f 14/1/4 9/2/4 4/3/4 15/4/4 
f 4/1/5 11/2/5 13/3/5 15/4/5 
f 14/1/6 12/2/6 10/3/6 9/4/6 
f 16/1/1 17/2/1 18/3/1 19/4/1 
f 17/1/2 20/2/2 6/3/2 18/4/2 
f 20/1/3 21/2/3 22/3/3 6/4/3 
f 21/1/4 16/2/4 19/3/4 22/4/4 
f 19/1/5 18/2/5 6/3/5 22/4/5 
f 21/1/6 20/2/6 17/3/6 16/4/6 
f 23/1/7 24/2/7 25/3/7 26/4/7 
f 24/1/3 27/2/3 8/3/3 25/4/3 
f 27/1/4 9/2/4 4/3/4 8/4/4 
f 9/1/1 23/2/1 26/3/1 4/4/1 
f 26/1/5 25/2/5 8/3/5 4/4/5 
f 9/1/6 27/2/6 24/3/6 23/4/6 
f 28/1/1 29/2/1 30/3/1 31/4/1 
f 29/1/7 32/2/7 33/3/7 30/4/7 
f 32/1/8 34/2/8 35/3/8 33/4/8 
f 34/1/4 28/2/4 31/3/4 35/4/4 
f 31/1/5 30/2/5 33/3/5 35/4/5 
f 34/1/6 32/2/6 29/3/6 28/4/6 
f 36/1/1 37/2/1 38/3/1 39/4/1 
f 37/1/7 40/2/7 41/3/7 38/4/7 
f 40/1/8 42/2/8 43/3/8 41/4/8 
f 42/1/4 36/2/4 39/3/4 43/4/4 
f 39/1/5 38/2/5 41/3/5 43/4/5 
f 42/1/6 40/2/6 37/3/6 36/4/6 
# 36 polygons

