# 3ds Max Wavefront OBJ Exporter v0.97b - (c)2007 guruware
# File Created: 15.03.2017 11:25:04

mtllib SPW_Urban_RailRoad_4way Road Cross_02.mtl

#
# object SPW_Urban_RailRoad_4way_Road_Cross_02
#

v  -787.4016 12.9050 176.1811
v  -787.4016 10.8970 176.1811
v  -787.4016 10.8970 178.1496
v  -787.4016 11.7805 178.1496
v  -787.4016 12.9050 170.2756
v  -787.4016 10.8970 170.2756
v  787.4016 10.8970 170.2755
v  -787.4016 10.8970 168.3071
v  787.4016 10.8970 168.3070
v  787.4016 12.9050 170.2755
v  787.4016 12.9050 176.1810
v  787.4016 10.8970 176.1810
v  787.4016 22.7081 170.2755
v  -787.4016 22.7081 170.2756
v  -787.4016 22.7081 176.1811
v  787.4016 22.7081 176.1810
v  787.4016 19.1102 176.1810
v  787.4016 19.1102 170.2755
v  -787.4016 19.1102 170.2756
v  -787.4016 19.1102 176.1811
v  -787.4016 19.1102 178.1496
v  -787.4016 22.7081 178.1496
v  -787.4016 19.1102 168.3071
v  787.4016 19.1102 168.3070
v  -787.4016 22.7081 168.3071
v  787.4016 22.7081 168.3070
v  787.4016 22.7081 178.1496
v  787.4016 19.1102 178.1496
v  -787.4016 11.7805 168.3071
v  787.4016 11.7805 168.3070
v  787.4016 11.7805 178.1496
v  787.4016 10.8970 178.1496
v  -787.4016 12.9050 65.9449
v  -787.4016 10.8971 65.9449
v  -787.4016 10.8971 67.9134
v  -787.4016 11.7805 67.9134
v  -787.4016 12.9050 60.0394
v  -787.4016 10.8971 60.0394
v  787.4016 10.8971 60.0394
v  -787.4016 10.8971 58.0709
v  787.4016 10.8971 58.0708
v  787.4016 12.9050 60.0394
v  787.4016 12.9050 65.9449
v  787.4016 10.8971 65.9449
v  787.4016 22.7081 60.0394
v  -787.4016 22.7081 60.0394
v  -787.4016 22.7081 65.9449
v  787.4016 22.7081 65.9449
v  787.4016 19.1102 65.9449
v  787.4016 19.1102 60.0394
v  -787.4016 19.1102 60.0394
v  -787.4016 19.1102 65.9449
v  -787.4016 19.1102 67.9134
v  -787.4016 22.7081 67.9134
v  -787.4016 19.1102 58.0709
v  787.4016 19.1102 58.0708
v  -787.4016 22.7081 58.0709
v  787.4016 22.7081 58.0708
v  787.4016 22.7081 67.9134
v  787.4016 19.1102 67.9134
v  -787.4016 11.7805 58.0709
v  787.4016 11.7805 58.0708
v  787.4016 11.7805 67.9134
v  787.4016 10.8971 67.9134
v  -787.4016 12.9050 -60.0394
v  -787.4016 10.8971 -60.0394
v  -787.4016 10.8971 -58.0709
v  -787.4016 11.7805 -58.0709
v  -787.4016 12.9050 -65.9449
v  -787.4016 10.8971 -65.9449
v  787.4016 10.8971 -65.9449
v  -787.4016 10.8971 -67.9134
v  787.4016 10.8971 -67.9134
v  787.4016 12.9050 -65.9449
v  787.4016 12.9050 -60.0394
v  787.4016 10.8971 -60.0394
v  787.4016 22.7081 -65.9449
v  -787.4016 22.7081 -65.9449
v  -787.4016 22.7081 -60.0394
v  787.4016 22.7081 -60.0394
v  787.4016 19.1103 -60.0394
v  787.4016 19.1103 -65.9449
v  -787.4016 19.1103 -65.9449
v  -787.4016 19.1103 -60.0394
v  -787.4016 19.1103 -58.0709
v  -787.4016 22.7081 -58.0709
v  -787.4016 19.1103 -67.9134
v  787.4016 19.1103 -67.9134
v  -787.4016 22.7081 -67.9134
v  787.4016 22.7081 -67.9134
v  787.4016 22.7081 -58.0709
v  787.4016 19.1103 -58.0709
v  -787.4016 11.7805 -67.9134
v  787.4016 11.7805 -67.9134
v  787.4016 11.7805 -58.0709
v  787.4016 10.8971 -58.0709
v  -787.4016 12.9051 -170.2755
v  -787.4016 10.8971 -170.2755
v  -787.4016 10.8971 -168.3070
v  -787.4016 11.7805 -168.3070
v  -787.4016 12.9051 -176.1810
v  -787.4016 10.8971 -176.1810
v  787.4016 10.8971 -176.1811
v  -787.4016 10.8971 -178.1496
v  787.4016 10.8971 -178.1496
v  787.4016 12.9051 -176.1811
v  787.4016 12.9051 -170.2756
v  787.4016 10.8971 -170.2756
v  787.4016 22.7081 -176.1811
v  -787.4016 22.7081 -176.1810
v  -787.4016 22.7081 -170.2755
v  787.4016 22.7081 -170.2756
v  787.4016 19.1103 -170.2756
v  787.4016 19.1103 -176.1811
v  -787.4016 19.1103 -176.1810
v  -787.4016 19.1103 -170.2755
v  -787.4016 19.1103 -168.3070
v  -787.4016 22.7081 -168.3070
v  -787.4016 19.1103 -178.1496
v  787.4016 19.1103 -178.1496
v  -787.4016 22.7081 -178.1496
v  787.4016 22.7081 -178.1496
v  787.4016 22.7081 -168.3071
v  787.4016 19.1103 -168.3071
v  -787.4016 11.7805 -178.1496
v  787.4016 11.7805 -178.1496
v  787.4016 11.7805 -168.3071
v  787.4016 10.8971 -168.3071
v  -787.4016 21.8102 -192.5081
v  -787.4016 0.0000 -275.5905
v  -787.4016 0.0000 -192.5081
v  787.4016 21.8102 192.5081
v  787.4016 -0.0000 275.5905
v  787.4016 -0.0000 192.5081
v  -669.2870 0.0000 -192.5081
v  -669.2870 0.0000 -275.5905
v  669.2870 21.8102 192.5081
v  669.2870 -0.0000 275.5905
v  669.2870 7.8740 275.5905
v  -787.4016 21.8102 192.5081
v  -787.4016 -0.0000 275.5906
v  -787.4016 7.8740 275.5906
v  -669.2870 21.8102 -192.5081
v  -669.2870 21.8102 192.5081
v  -669.2870 -0.0000 275.5906
v  -787.4016 -0.0000 192.5081
v  -669.2870 -0.0000 192.5081
v  787.4016 0.0000 -275.5906
v  787.4016 21.8102 -192.5081
v  787.4016 0.0000 -192.5081
v  669.2870 -0.0000 192.5081
v  669.2870 0.0000 -192.5081
v  669.2870 21.8102 -192.5081
v  -669.2870 7.8740 -275.5905
v  669.2870 0.0000 -275.5906
v  -669.2870 7.8740 275.5906
v  -787.4016 7.8740 -275.5905
v  787.4016 7.8740 -275.5906
v  669.2870 7.8740 -275.5906
v  787.4016 7.8740 275.5905
# 160 vertices

vn -1.0000 0.0000 -0.0000
vn 0.0000 -1.0000 -0.0000
vn 1.0000 0.0000 -0.0000
vn 0.0000 1.0000 0.0000
vn -0.0000 0.0000 -1.0000
vn 0.0000 -0.0000 1.0000
vn -0.0000 0.8683 -0.4960
vn 0.0000 0.8683 0.4960
vn -0.0000 -1.0000 -0.0000
vn -0.0000 1.0000 0.0000
vn -0.0000 0.9672 -0.2539
vn 0.0000 0.9672 0.2539
vn 0.0000 0.9862 0.1654
vn 0.0000 0.9862 -0.1654
vn 0.0000 0.0000 -1.0000
# 15 vertex normals

vt 0.4638 0.2853 0.0000
vt 0.5138 0.2853 0.0000
vt 0.5138 0.3353 0.0000
vt 0.4638 0.3353 0.0000
vt 0.2518 0.8723 0.0000
vt 0.3018 0.8723 0.0000
vt 0.3018 0.9223 0.0000
vt 0.2518 0.9223 0.0000
vt 0.3612 0.8634 0.0000
vt 0.4112 0.8634 0.0000
vt 0.4112 0.9134 0.0000
vt 0.3612 0.9134 0.0000
# 12 texture coords

g SPW_Urban_RailRoad_4way_Road_Cross_02
usemtl SPW_Urban_Road
s 1
f 1/1/1 2/2/1 3/3/1 4/4/1 
f 1/1/1 5/2/1 6/3/1 2/4/1 
s 2
f 7/1/2 6/2/2 8/3/2 9/4/2 
s 1
f 10/1/3 11/2/3 12/3/3 7/4/3 
s 2
f 12/1/2 2/2/2 6/3/2 7/4/2 
f 13/1/4 14/2/4 15/3/4 16/4/4 
s 1
f 13/1/3 16/2/3 17/3/3 18/4/3 
f 18/1/3 17/2/3 11/3/3 10/4/3 
s 4
f 14/1/3 13/2/3 13/3/3 14/4/3 
s off
f 19/1/5 18/2/5 10/3/5 5/4/5 
s 1
f 15/1/1 14/2/1 19/3/1 20/4/1 
f 20/1/1 19/2/1 5/3/1 1/4/1 
f 15/1/1 20/2/1 21/3/1 22/4/1 
s off
f 17/1/6 20/2/6 1/3/6 11/4/6 
f 18/1/2 19/2/2 23/3/2 24/4/2 
s 4
f 13/1/3 18/2/3 18/3/3 13/4/3 
f 19/1/3 14/2/3 14/3/3 19/4/3 
f 18/1/3 19/2/3 19/3/3 18/4/3 
s off
f 25/1/5 26/2/5 24/3/5 23/4/5 
f 19/1/1 14/2/1 25/3/1 23/4/1 
f 13/1/3 18/2/3 24/3/3 26/4/3 
f 14/1/4 13/2/4 26/3/4 25/4/4 
f 27/1/6 22/2/6 21/3/6 28/4/6 
s 2
f 16/1/4 15/2/4 22/3/4 27/4/4 
s off
f 20/1/2 17/2/2 28/3/2 21/4/2 
s 1
f 17/1/3 16/2/3 27/3/3 28/4/3 
s off
f 29/1/5 30/2/5 9/3/5 8/4/5 
s 1
f 6/1/1 5/2/1 29/3/1 8/4/1 
s off
f 5/1/7 10/2/7 30/3/7 29/4/7 
s 1
f 10/1/3 7/2/3 9/3/3 30/4/3 
s off
f 31/1/6 4/2/6 3/3/6 32/4/6 
f 11/1/8 1/2/8 4/3/8 31/4/8 
s 2
f 2/1/2 12/2/2 32/3/2 3/4/2 
s 1
f 12/1/3 11/2/3 31/3/3 32/4/3 
f 33/1/1 34/2/1 35/3/1 36/4/1 
f 33/1/1 37/2/1 38/3/1 34/4/1 
s 2
f 39/1/2 38/2/2 40/3/2 41/4/2 
s 1
f 42/1/3 43/2/3 44/3/3 39/4/3 
s 2
f 44/1/2 34/2/2 38/3/2 39/4/2 
f 45/1/4 46/2/4 47/3/4 48/4/4 
s 1
f 45/1/3 48/2/3 49/3/3 50/4/3 
f 50/1/3 49/2/3 43/3/3 42/4/3 
s 4
f 46/1/3 45/2/3 45/3/3 46/4/3 
s off
f 51/1/5 50/2/5 42/3/5 37/4/5 
s 1
f 47/1/1 46/2/1 51/3/1 52/4/1 
f 52/1/1 51/2/1 37/3/1 33/4/1 
f 47/1/1 52/2/1 53/3/1 54/4/1 
s off
f 49/1/6 52/2/6 33/3/6 43/4/6 
f 50/1/2 51/2/2 55/3/2 56/4/2 
s 4
f 45/1/3 50/2/3 50/3/3 45/4/3 
f 51/1/3 46/2/3 46/3/3 51/4/3 
f 50/1/3 51/2/3 51/3/3 50/4/3 
s off
f 57/1/5 58/2/5 56/3/5 55/4/5 
f 51/1/1 46/2/1 57/3/1 55/4/1 
f 45/1/3 50/2/3 56/3/3 58/4/3 
f 46/1/4 45/2/4 58/3/4 57/4/4 
f 59/1/6 54/2/6 53/3/6 60/4/6 
s 2
f 48/1/4 47/2/4 54/3/4 59/4/4 
s off
f 52/1/2 49/2/2 60/3/2 53/4/2 
s 1
f 49/1/3 48/2/3 59/3/3 60/4/3 
s off
f 61/1/5 62/2/5 41/3/5 40/4/5 
s 1
f 38/1/1 37/2/1 61/3/1 40/4/1 
s off
f 37/1/7 42/2/7 62/3/7 61/4/7 
s 1
f 42/1/3 39/2/3 41/3/3 62/4/3 
s off
f 63/1/6 36/2/6 35/3/6 64/4/6 
f 43/1/8 33/2/8 36/3/8 63/4/8 
s 2
f 34/1/2 44/2/2 64/3/2 35/4/2 
s 1
f 44/1/3 43/2/3 63/3/3 64/4/3 
f 65/1/1 66/2/1 67/3/1 68/4/1 
f 65/1/1 69/2/1 70/3/1 66/4/1 
s 2
f 71/1/2 70/2/2 72/3/2 73/4/2 
s 1
f 74/1/3 75/2/3 76/3/3 71/4/3 
s 2
f 76/1/2 66/2/2 70/3/2 71/4/2 
f 77/1/4 78/2/4 79/3/4 80/4/4 
s 1
f 77/1/3 80/2/3 81/3/3 82/4/3 
f 82/1/3 81/2/3 75/3/3 74/4/3 
s 4
f 78/1/3 77/2/3 77/3/3 78/4/3 
s off
f 83/1/5 82/2/5 74/3/5 69/4/5 
s 1
f 79/1/1 78/2/1 83/3/1 84/4/1 
f 84/1/1 83/2/1 69/3/1 65/4/1 
f 79/1/1 84/2/1 85/3/1 86/4/1 
s off
f 81/1/6 84/2/6 65/3/6 75/4/6 
f 82/1/2 83/2/2 87/3/2 88/4/2 
s 4
f 77/1/3 82/2/3 82/3/3 77/4/3 
f 83/1/3 78/2/3 78/3/3 83/4/3 
f 82/1/3 83/2/3 83/3/3 82/4/3 
s off
f 89/1/5 90/2/5 88/3/5 87/4/5 
f 83/1/1 78/2/1 89/3/1 87/4/1 
f 77/1/3 82/2/3 88/3/3 90/4/3 
f 78/1/4 77/2/4 90/3/4 89/4/4 
f 91/1/6 86/2/6 85/3/6 92/4/6 
s 2
f 80/1/4 79/2/4 86/3/4 91/4/4 
s off
f 84/1/2 81/2/2 92/3/2 85/4/2 
s 1
f 81/1/3 80/2/3 91/3/3 92/4/3 
s off
f 93/1/5 94/2/5 73/3/5 72/4/5 
s 1
f 70/1/1 69/2/1 93/3/1 72/4/1 
s off
f 69/1/7 74/2/7 94/3/7 93/4/7 
s 1
f 74/1/3 71/2/3 73/3/3 94/4/3 
s off
f 95/1/6 68/2/6 67/3/6 96/4/6 
f 75/1/8 65/2/8 68/3/8 95/4/8 
s 2
f 66/1/2 76/2/2 96/3/2 67/4/2 
s 1
f 76/1/3 75/2/3 95/3/3 96/4/3 
f 97/1/1 98/2/1 99/3/1 100/4/1 
f 97/1/1 101/2/1 102/3/1 98/4/1 
s 2
f 103/1/2 102/2/2 104/3/2 105/4/2 
s 1
f 106/1/3 107/2/3 108/3/3 103/4/3 
s 2
f 108/1/2 98/2/2 102/3/2 103/4/2 
f 109/1/4 110/2/4 111/3/4 112/4/4 
s 1
f 109/1/3 112/2/3 113/3/3 114/4/3 
f 114/1/3 113/2/3 107/3/3 106/4/3 
s 4
f 110/1/3 109/2/3 109/3/3 110/4/3 
s off
f 115/1/5 114/2/5 106/3/5 101/4/5 
s 1
f 111/1/1 110/2/1 115/3/1 116/4/1 
f 116/1/1 115/2/1 101/3/1 97/4/1 
f 111/1/1 116/2/1 117/3/1 118/4/1 
s off
f 113/1/6 116/2/6 97/3/6 107/4/6 
f 114/1/2 115/2/2 119/3/2 120/4/2 
s 4
f 109/1/3 114/2/3 114/3/3 109/4/3 
f 115/1/3 110/2/3 110/3/3 115/4/3 
f 114/1/3 115/2/3 115/3/3 114/4/3 
s off
f 121/1/5 122/2/5 120/3/5 119/4/5 
f 115/1/1 110/2/1 121/3/1 119/4/1 
f 109/1/3 114/2/3 120/3/3 122/4/3 
f 110/1/4 109/2/4 122/3/4 121/4/4 
f 123/1/6 118/2/6 117/3/6 124/4/6 
s 2
f 112/1/4 111/2/4 118/3/4 123/4/4 
s off
f 116/1/2 113/2/2 124/3/2 117/4/2 
s 1
f 113/1/3 112/2/3 123/3/3 124/4/3 
s off
f 125/1/5 126/2/5 105/3/5 104/4/5 
s 1
f 102/1/1 101/2/1 125/3/1 104/4/1 
s off
f 101/1/7 106/2/7 126/3/7 125/4/7 
s 1
f 106/1/3 103/2/3 105/3/3 126/4/3 
s off
f 127/1/6 100/2/6 99/3/6 128/4/6 
f 107/1/8 97/2/8 100/3/8 127/4/8 
s 2
f 98/1/2 108/2/2 128/3/2 99/4/2 
s 1
f 108/1/3 107/2/3 127/3/3 128/4/3 
f 129/5/1 130/6/1 131/7/1 
f 132/5/3 133/6/3 134/7/3 
s 2
f 135/5/9 131/6/2 130/7/2 136/8/9 
s off
f 137/5/1 138/6/1 139/7/1 
s 1
f 140/5/1 141/6/1 142/7/1 
s 2
f 143/5/10 129/6/4 140/7/4 144/8/10 
f 145/5/2 141/6/2 146/7/2 147/8/2 
f 147/5/2 146/6/2 131/7/2 135/8/9 
s 1
f 148/5/3 149/6/3 150/7/3 
f 149/5/3 132/6/3 134/7/3 150/8/3 
f 141/5/1 140/6/1 146/7/1 
f 140/5/1 129/6/1 131/7/1 146/8/1 
s 2
f 134/5/2 151/6/9 152/7/2 150/8/2 
f 151/5/9 147/6/2 135/7/9 152/8/2 
f 133/5/2 138/6/9 151/7/9 134/8/2 
f 138/5/9 145/6/2 147/7/2 151/8/9 
f 149/5/4 153/6/10 137/7/10 132/8/4 
f 153/9/10 143/10/10 144/11/10 137/12/10 
s off
f 143/5/3 136/6/3 154/7/3 
f 155/9/11 136/10/11 143/11/11 153/12/11 
f 137/9/12 144/10/12 145/11/12 138/12/12 
s 2
f 150/5/2 152/6/2 155/7/2 148/8/2 
f 152/5/2 135/6/9 136/7/9 155/8/2 
s off
f 144/5/13 140/6/13 142/7/13 156/8/13 
f 154/5/14 157/6/14 129/7/14 143/8/14 
f 158/5/14 159/6/14 153/7/14 149/8/14 
f 132/5/13 137/6/13 139/7/13 160/8/13 
f 145/5/3 144/6/3 156/7/3 
s 1
f 149/5/3 148/6/3 158/7/3 
s off
f 141/5/6 145/6/6 156/7/6 142/8/6 
f 138/5/6 133/6/6 160/7/6 139/8/6 
s 1
f 133/5/3 132/6/3 160/7/3 
f 130/5/1 129/6/1 157/7/1 
s off
f 148/5/15 155/6/15 159/7/15 158/8/15 
f 136/5/15 130/6/15 157/7/15 154/8/15 
f 155/5/1 153/6/1 159/7/1 
# 160 polygons - 12 triangles

