# 3ds Max Wavefront OBJ Exporter v0.97b - (c)2007 guruware
# File Created: 15.03.2017 11:19:52

mtllib SPW_Urban_RailRoad_01.mtl

#
# object SPW_Urban_RailRoad_01
#

v  -393.7008 12.9050 58.0709
v  -393.7008 10.8971 58.0709
v  -393.7008 10.8971 60.0394
v  -393.7008 11.7805 60.0394
v  -393.7008 12.9050 52.1654
v  -393.7008 10.8971 52.1654
v  393.7008 10.8971 52.1653
v  -393.7008 10.8971 50.1969
v  393.7008 10.8971 50.1968
v  393.7008 12.9050 52.1653
v  393.7008 12.9050 58.0709
v  393.7008 10.8971 58.0709
v  393.7008 22.7081 52.1653
v  -393.7008 22.7081 52.1654
v  -393.7008 22.7081 58.0709
v  393.7008 22.7081 58.0709
v  393.7008 19.1102 58.0709
v  393.7008 19.1102 52.1653
v  -393.7008 19.1102 52.1654
v  -393.7008 19.1102 58.0709
v  -393.7008 19.1102 60.0394
v  -393.7008 22.7081 60.0394
v  -393.7008 19.1102 50.1969
v  393.7008 19.1102 50.1968
v  -393.7008 22.7081 50.1969
v  393.7008 22.7081 50.1968
v  393.7008 22.7081 60.0394
v  393.7008 19.1102 60.0394
v  -393.7008 11.7805 50.1969
v  393.7008 11.7805 50.1968
v  393.7008 11.7805 60.0394
v  393.7008 10.8971 60.0394
v  -393.7008 12.9050 -52.1653
v  -393.7008 10.8971 -52.1653
v  -393.7008 10.8971 -50.1968
v  -393.7008 11.7805 -50.1968
v  -393.7008 12.9050 -58.0709
v  -393.7008 10.8971 -58.0709
v  393.7008 10.8971 -58.0709
v  -393.7008 10.8971 -60.0394
v  393.7008 10.8971 -60.0394
v  393.7008 12.9050 -58.0709
v  393.7008 12.9050 -52.1654
v  393.7008 10.8971 -52.1654
v  393.7008 22.7081 -58.0709
v  -393.7008 22.7081 -58.0709
v  -393.7008 22.7081 -52.1653
v  393.7008 22.7081 -52.1654
v  393.7008 19.1103 -52.1654
v  393.7008 19.1103 -58.0709
v  -393.7008 19.1103 -58.0709
v  -393.7008 19.1103 -52.1653
v  -393.7008 19.1103 -50.1968
v  -393.7008 22.7081 -50.1968
v  -393.7008 19.1103 -60.0394
v  393.7008 19.1103 -60.0394
v  -393.7008 22.7081 -60.0394
v  393.7008 22.7081 -60.0394
v  393.7008 22.7081 -50.1969
v  393.7008 19.1103 -50.1969
v  -393.7008 11.7805 -60.0394
v  393.7008 11.7805 -60.0394
v  393.7008 11.7805 -50.1969
v  393.7008 10.8971 -50.1969
v  381.8898 10.8991 70.8661
v  366.1418 10.8991 70.8661
v  366.1418 7.6048 70.8661
v  381.8898 7.6048 70.8661
v  366.1418 10.8991 -70.8662
v  366.1418 7.6048 -70.8662
v  381.8898 10.8991 -70.8662
v  381.8898 7.6048 -70.8662
v  -11.8110 10.8991 70.8661
v  -27.5590 10.8991 70.8661
v  -27.5590 7.6048 70.8661
v  -11.8110 7.6048 70.8661
v  -27.5591 10.8991 -70.8661
v  -27.5591 7.6048 -70.8661
v  -11.8110 10.8991 -70.8661
v  -11.8110 7.6048 -70.8661
v  -51.1811 10.8991 70.8661
v  -66.9291 10.8991 70.8661
v  -66.9291 7.6048 70.8661
v  -51.1811 7.6048 70.8661
v  -66.9291 10.8991 -70.8661
v  -66.9291 7.6048 -70.8661
v  -51.1811 10.8991 -70.8661
v  -51.1811 7.6048 -70.8661
v  -90.5512 10.8991 70.8661
v  -106.2992 10.8991 70.8661
v  -106.2992 7.6048 70.8661
v  -90.5512 7.6048 70.8661
v  -106.2992 10.8991 -70.8661
v  -106.2992 7.6048 -70.8661
v  -90.5512 10.8991 -70.8661
v  -90.5512 7.6048 -70.8661
v  -129.9212 10.8991 70.8661
v  -145.6693 10.8991 70.8661
v  -145.6693 7.6048 70.8661
v  -129.9212 7.6048 70.8661
v  -145.6693 10.8991 -70.8661
v  -145.6693 7.6048 -70.8661
v  -129.9212 10.8991 -70.8661
v  -129.9212 7.6048 -70.8661
v  -169.2913 10.8991 70.8662
v  -185.0394 10.8991 70.8662
v  -185.0394 7.6048 70.8662
v  -169.2913 7.6048 70.8662
v  -185.0394 10.8991 -70.8661
v  -185.0394 7.6048 -70.8661
v  -169.2913 10.8991 -70.8661
v  -169.2913 7.6048 -70.8661
v  -208.6614 10.8991 70.8662
v  -224.4094 10.8991 70.8662
v  -224.4094 7.6048 70.8662
v  -208.6614 7.6048 70.8662
v  -224.4094 10.8991 -70.8661
v  -224.4094 7.6048 -70.8661
v  -208.6614 10.8991 -70.8661
v  -208.6614 7.6048 -70.8661
v  -248.0315 10.8991 70.8662
v  -263.7795 10.8991 70.8662
v  -263.7795 7.6048 70.8662
v  -248.0315 7.6048 70.8662
v  -263.7795 10.8991 -70.8661
v  -263.7795 7.6048 -70.8661
v  -248.0315 10.8991 -70.8661
v  -248.0315 7.6048 -70.8661
v  -287.4016 10.8991 70.8662
v  -303.1496 10.8991 70.8662
v  -303.1496 7.6048 70.8662
v  -287.4016 7.6048 70.8662
v  -303.1496 10.8991 -70.8661
v  -303.1496 7.6048 -70.8661
v  -287.4016 10.8991 -70.8661
v  -287.4016 7.6048 -70.8661
v  -326.7717 10.8991 70.8662
v  -342.5197 10.8991 70.8662
v  -342.5197 7.6048 70.8662
v  -326.7717 7.6048 70.8662
v  -342.5197 10.8991 -70.8661
v  -342.5197 7.6048 -70.8661
v  -326.7717 10.8991 -70.8661
v  -326.7717 7.6048 -70.8661
v  -366.1418 10.8991 70.8662
v  -381.8898 10.8991 70.8662
v  -381.8898 7.6048 70.8662
v  -366.1418 7.6048 70.8662
v  -381.8898 10.8991 -70.8661
v  -381.8898 7.6048 -70.8661
v  -366.1418 10.8991 -70.8661
v  -366.1418 7.6048 -70.8661
v  27.5591 10.8991 70.8661
v  11.8110 10.8991 70.8661
v  11.8110 7.6048 70.8661
v  27.5591 7.6048 70.8661
v  11.8110 10.8991 -70.8661
v  11.8110 7.6048 -70.8661
v  27.5591 10.8991 -70.8661
v  27.5591 7.6048 -70.8661
v  66.9291 10.8991 70.8661
v  51.1811 10.8991 70.8661
v  51.1811 7.6048 70.8661
v  66.9291 7.6048 70.8661
v  51.1811 10.8991 -70.8661
v  51.1811 7.6048 -70.8661
v  66.9291 10.8991 -70.8661
v  66.9291 7.6048 -70.8661
v  106.2992 10.8991 70.8661
v  90.5512 10.8991 70.8661
v  90.5512 7.6048 70.8661
v  106.2992 7.6048 70.8661
v  90.5512 10.8991 -70.8661
v  90.5512 7.6048 -70.8661
v  106.2992 10.8991 -70.8661
v  106.2992 7.6048 -70.8661
v  145.6693 10.8991 70.8661
v  129.9212 10.8991 70.8661
v  129.9212 7.6048 70.8661
v  145.6693 7.6048 70.8661
v  129.9212 10.8991 -70.8661
v  129.9212 7.6048 -70.8661
v  145.6693 10.8991 -70.8661
v  145.6693 7.6048 -70.8661
v  185.0394 10.8991 70.8661
v  169.2914 10.8991 70.8661
v  169.2914 7.6048 70.8661
v  185.0394 7.6048 70.8661
v  169.2914 10.8991 -70.8662
v  169.2914 7.6048 -70.8662
v  185.0394 10.8991 -70.8662
v  185.0394 7.6048 -70.8662
v  224.4094 10.8991 70.8661
v  208.6614 10.8991 70.8661
v  208.6614 7.6048 70.8661
v  224.4094 7.6048 70.8661
v  208.6614 10.8991 -70.8662
v  208.6614 7.6048 -70.8662
v  224.4094 10.8991 -70.8662
v  224.4094 7.6048 -70.8662
v  263.7795 10.8991 70.8661
v  248.0315 10.8991 70.8661
v  248.0315 7.6048 70.8661
v  263.7795 7.6048 70.8661
v  248.0315 10.8991 -70.8662
v  248.0315 7.6048 -70.8662
v  263.7795 10.8991 -70.8662
v  263.7795 7.6048 -70.8662
v  303.1496 10.8991 70.8661
v  287.4016 10.8991 70.8661
v  287.4016 7.6048 70.8661
v  303.1496 7.6048 70.8661
v  287.4016 10.8991 -70.8662
v  287.4016 7.6048 -70.8662
v  303.1496 10.8991 -70.8662
v  303.1496 7.6048 -70.8662
v  342.5197 10.8991 70.8661
v  326.7717 10.8991 70.8661
v  326.7717 7.6048 70.8661
v  342.5197 7.6048 70.8661
v  326.7717 10.8991 -70.8662
v  326.7717 7.6048 -70.8662
v  342.5197 10.8991 -70.8662
v  342.5197 7.6048 -70.8662
v  -393.7008 9.8425 -74.8031
v  -393.7008 0.0000 -118.1102
v  -393.7008 0.0000 -74.8031
v  393.7008 9.8425 74.8031
v  393.7008 -0.0000 118.1102
v  393.7008 -0.0000 74.8031
v  393.7008 0.0000 -74.8032
v  393.7008 0.0000 -118.1103
v  -393.7008 9.8425 74.8032
v  -393.7008 -0.0000 118.1103
v  393.7008 9.8425 -74.8032
v  -393.7008 -0.0000 74.8032
# 236 vertices

vn -1.0000 0.0000 -0.0000
vn 0.0000 -1.0000 -0.0000
vn 1.0000 0.0000 -0.0000
vn 0.0000 1.0000 0.0000
vn -0.0000 0.0000 -1.0000
vn 0.0000 -0.0000 1.0000
vn -0.0000 0.8683 -0.4960
vn 0.0000 0.8683 0.4960
vn -0.0000 1.0000 0.0000
vn -1.0000 -0.0000 0.0000
vn 0.0000 0.0000 -1.0000
vn -0.0000 -1.0000 -0.0000
vn 0.0000 0.9751 0.2216
vn -0.0000 0.9751 -0.2216
# 14 vertex normals

vt 0.4679 0.2854 0.0000
vt 0.5179 0.2854 0.0000
vt 0.5179 0.3354 0.0000
vt 0.4679 0.3354 0.0000
vt 0.4697 0.1596 0.0000
vt 0.5197 0.1596 0.0000
vt 0.5197 0.2096 0.0000
vt 0.4697 0.2096 0.0000
vt 0.4591 0.0356 0.0000
vt 0.5091 0.0356 0.0000
vt 0.5091 0.0856 0.0000
vt 0.4591 0.0856 0.0000
# 12 texture coords

g SPW_Urban_RailRoad_01
usemtl SPW_Urban_Road
s 1
f 1/1/1 2/2/1 3/3/1 4/4/1 
f 1/1/1 5/2/1 6/3/1 2/4/1 
s 2
f 7/1/2 6/2/2 8/3/2 9/4/2 
s 1
f 10/1/3 11/2/3 12/3/3 7/4/3 
s 2
f 12/1/2 2/2/2 6/3/2 7/4/2 
f 13/1/4 14/2/4 15/3/4 16/4/4 
s 1
f 13/1/3 16/2/3 17/3/3 18/4/3 
f 18/1/3 17/2/3 11/3/3 10/4/3 
s 4
f 14/1/3 13/2/3 13/3/3 14/4/3 
s off
f 19/1/5 18/2/5 10/3/5 5/4/5 
s 1
f 15/1/1 14/2/1 19/3/1 20/4/1 
f 20/1/1 19/2/1 5/3/1 1/4/1 
f 15/1/1 20/2/1 21/3/1 22/4/1 
s off
f 17/1/6 20/2/6 1/3/6 11/4/6 
f 18/1/2 19/2/2 23/3/2 24/4/2 
s 4
f 13/1/3 18/2/3 18/3/3 13/4/3 
f 19/1/3 14/2/3 14/3/3 19/4/3 
f 18/1/3 19/2/3 19/3/3 18/4/3 
s off
f 25/1/5 26/2/5 24/3/5 23/4/5 
f 19/1/1 14/2/1 25/3/1 23/4/1 
f 13/1/3 18/2/3 24/3/3 26/4/3 
f 14/1/4 13/2/4 26/3/4 25/4/4 
f 27/1/6 22/2/6 21/3/6 28/4/6 
s 2
f 16/1/4 15/2/4 22/3/4 27/4/4 
s off
f 20/1/2 17/2/2 28/3/2 21/4/2 
s 1
f 17/1/3 16/2/3 27/3/3 28/4/3 
s off
f 29/1/5 30/2/5 9/3/5 8/4/5 
s 1
f 6/1/1 5/2/1 29/3/1 8/4/1 
s off
f 5/1/7 10/2/7 30/3/7 29/4/7 
s 1
f 10/1/3 7/2/3 9/3/3 30/4/3 
s off
f 31/1/6 4/2/6 3/3/6 32/4/6 
f 11/1/8 1/2/8 4/3/8 31/4/8 
s 2
f 2/1/2 12/2/2 32/3/2 3/4/2 
s 1
f 12/1/3 11/2/3 31/3/3 32/4/3 
f 33/1/1 34/2/1 35/3/1 36/4/1 
f 33/1/1 37/2/1 38/3/1 34/4/1 
s 2
f 39/1/2 38/2/2 40/3/2 41/4/2 
s 1
f 42/1/3 43/2/3 44/3/3 39/4/3 
s 2
f 44/1/2 34/2/2 38/3/2 39/4/2 
f 45/1/4 46/2/4 47/3/4 48/4/4 
s 1
f 45/1/3 48/2/3 49/3/3 50/4/3 
f 50/1/3 49/2/3 43/3/3 42/4/3 
s 4
f 46/1/3 45/2/3 45/3/3 46/4/3 
s off
f 51/1/5 50/2/5 42/3/5 37/4/5 
s 1
f 47/1/1 46/2/1 51/3/1 52/4/1 
f 52/1/1 51/2/1 37/3/1 33/4/1 
f 47/1/1 52/2/1 53/3/1 54/4/1 
s off
f 49/1/6 52/2/6 33/3/6 43/4/6 
f 50/1/2 51/2/2 55/3/2 56/4/2 
s 4
f 45/1/3 50/2/3 50/3/3 45/4/3 
f 51/1/3 46/2/3 46/3/3 51/4/3 
f 50/1/3 51/2/3 51/3/3 50/4/3 
s off
f 57/1/5 58/2/5 56/3/5 55/4/5 
f 51/1/1 46/2/1 57/3/1 55/4/1 
f 45/1/3 50/2/3 56/3/3 58/4/3 
f 46/1/4 45/2/4 58/3/4 57/4/4 
f 59/1/6 54/2/6 53/3/6 60/4/6 
s 2
f 48/1/4 47/2/4 54/3/4 59/4/4 
s off
f 52/1/2 49/2/2 60/3/2 53/4/2 
s 1
f 49/1/3 48/2/3 59/3/3 60/4/3 
s off
f 61/1/5 62/2/5 41/3/5 40/4/5 
s 1
f 38/1/1 37/2/1 61/3/1 40/4/1 
s off
f 37/1/7 42/2/7 62/3/7 61/4/7 
s 1
f 42/1/3 39/2/3 41/3/3 62/4/3 
s off
f 63/1/6 36/2/6 35/3/6 64/4/6 
f 43/1/8 33/2/8 36/3/8 63/4/8 
s 2
f 34/1/2 44/2/2 64/3/2 35/4/2 
s 1
f 44/1/3 43/2/3 63/3/3 64/4/3 
s off
f 65/5/6 66/6/6 67/7/6 68/8/6 
f 66/5/1 69/6/1 70/7/1 67/8/1 
f 69/5/5 71/6/5 72/7/5 70/8/5 
f 71/5/3 65/6/3 68/7/3 72/8/3 
f 68/5/2 67/6/2 70/7/2 72/8/2 
f 71/5/9 69/6/9 66/7/9 65/8/9 
f 73/5/6 74/6/6 75/7/6 76/8/6 
f 74/5/10 77/6/10 78/7/10 75/8/10 
f 77/5/11 79/6/11 80/7/11 78/8/11 
f 79/5/3 73/6/3 76/7/3 80/8/3 
f 76/5/2 75/6/2 78/7/2 80/8/2 
f 79/5/4 77/6/4 74/7/4 73/8/4 
f 81/5/6 82/6/6 83/7/6 84/8/6 
f 82/5/10 85/6/10 86/7/10 83/8/10 
f 85/5/5 87/6/5 88/7/5 86/8/5 
f 87/5/3 81/6/3 84/7/3 88/8/3 
f 84/5/2 83/6/2 86/7/2 88/8/2 
f 87/5/9 85/6/9 82/7/9 81/8/9 
f 89/5/6 90/6/6 91/7/6 92/8/6 
f 90/5/1 93/6/1 94/7/1 91/8/1 
f 93/5/11 95/6/11 96/7/11 94/8/11 
f 95/5/3 89/6/3 92/7/3 96/8/3 
f 92/5/2 91/6/2 94/7/2 96/8/2 
f 95/5/4 93/6/4 90/7/4 89/8/4 
f 97/5/6 98/6/6 99/7/6 100/8/6 
f 98/5/1 101/6/1 102/7/1 99/8/1 
f 101/5/11 103/6/11 104/7/11 102/8/11 
f 103/5/3 97/6/3 100/7/3 104/8/3 
f 100/5/2 99/6/2 102/7/2 104/8/2 
f 103/5/4 101/6/4 98/7/4 97/8/4 
f 105/5/6 106/6/6 107/7/6 108/8/6 
f 106/5/1 109/6/1 110/7/1 107/8/1 
f 109/5/11 111/6/11 112/7/11 110/8/11 
f 111/5/3 105/6/3 108/7/3 112/8/3 
f 108/5/2 107/6/2 110/7/2 112/8/2 
f 111/5/4 109/6/4 106/7/4 105/8/4 
f 113/5/6 114/6/6 115/7/6 116/8/6 
f 114/5/1 117/6/1 118/7/1 115/8/1 
f 117/5/11 119/6/11 120/7/11 118/8/11 
f 119/5/3 113/6/3 116/7/3 120/8/3 
f 116/5/2 115/6/2 118/7/2 120/8/2 
f 119/5/4 117/6/4 114/7/4 113/8/4 
f 121/5/6 122/6/6 123/7/6 124/8/6 
f 122/5/1 125/6/1 126/7/1 123/8/1 
f 125/5/11 127/6/11 128/7/11 126/8/11 
f 127/5/3 121/6/3 124/7/3 128/8/3 
f 124/5/2 123/6/2 126/7/2 128/8/2 
f 127/5/4 125/6/4 122/7/4 121/8/4 
f 129/5/6 130/6/6 131/7/6 132/8/6 
f 130/5/1 133/6/1 134/7/1 131/8/1 
f 133/5/11 135/6/11 136/7/11 134/8/11 
f 135/5/3 129/6/3 132/7/3 136/8/3 
f 132/5/2 131/6/2 134/7/2 136/8/2 
f 135/5/4 133/6/4 130/7/4 129/8/4 
f 137/5/6 138/6/6 139/7/6 140/8/6 
f 138/5/1 141/6/1 142/7/1 139/8/1 
f 141/5/11 143/6/11 144/7/11 142/8/11 
f 143/5/3 137/6/3 140/7/3 144/8/3 
f 140/5/2 139/6/2 142/7/2 144/8/2 
f 143/5/4 141/6/4 138/7/4 137/8/4 
f 145/5/6 146/6/6 147/7/6 148/8/6 
f 146/5/1 149/6/1 150/7/1 147/8/1 
f 149/5/5 151/6/5 152/7/5 150/8/5 
f 151/5/3 145/6/3 148/7/3 152/8/3 
f 148/5/2 147/6/2 150/7/2 152/8/2 
f 151/5/9 149/6/9 146/7/9 145/8/9 
f 153/5/6 154/6/6 155/7/6 156/8/6 
f 154/5/10 157/6/10 158/7/10 155/8/10 
f 157/5/11 159/6/11 160/7/11 158/8/11 
f 159/5/3 153/6/3 156/7/3 160/8/3 
f 156/5/2 155/6/2 158/7/2 160/8/2 
f 159/5/4 157/6/4 154/7/4 153/8/4 
f 161/5/6 162/6/6 163/7/6 164/8/6 
f 162/5/10 165/6/10 166/7/10 163/8/10 
f 165/5/5 167/6/5 168/7/5 166/8/5 
f 167/5/3 161/6/3 164/7/3 168/8/3 
f 164/5/2 163/6/2 166/7/2 168/8/2 
f 167/5/9 165/6/9 162/7/9 161/8/9 
f 169/5/6 170/6/6 171/7/6 172/8/6 
f 170/5/1 173/6/1 174/7/1 171/8/1 
f 173/5/11 175/6/11 176/7/11 174/8/11 
f 175/5/3 169/6/3 172/7/3 176/8/3 
f 172/5/2 171/6/2 174/7/2 176/8/2 
f 175/5/4 173/6/4 170/7/4 169/8/4 
f 177/5/6 178/6/6 179/7/6 180/8/6 
f 178/5/1 181/6/1 182/7/1 179/8/1 
f 181/5/11 183/6/11 184/7/11 182/8/11 
f 183/5/3 177/6/3 180/7/3 184/8/3 
f 180/5/2 179/6/2 182/7/2 184/8/2 
f 183/5/4 181/6/4 178/7/4 177/8/4 
f 185/5/6 186/6/6 187/7/6 188/8/6 
f 186/5/1 189/6/1 190/7/1 187/8/1 
f 189/5/11 191/6/11 192/7/11 190/8/11 
f 191/5/3 185/6/3 188/7/3 192/8/3 
f 188/5/2 187/6/2 190/7/2 192/8/2 
f 191/5/4 189/6/4 186/7/4 185/8/4 
f 193/5/6 194/6/6 195/7/6 196/8/6 
f 194/5/1 197/6/1 198/7/1 195/8/1 
f 197/5/11 199/6/11 200/7/11 198/8/11 
f 199/5/3 193/6/3 196/7/3 200/8/3 
f 196/5/2 195/6/2 198/7/2 200/8/2 
f 199/5/4 197/6/4 194/7/4 193/8/4 
f 201/5/6 202/6/6 203/7/6 204/8/6 
f 202/5/1 205/6/1 206/7/1 203/8/1 
f 205/5/11 207/6/11 208/7/11 206/8/11 
f 207/5/3 201/6/3 204/7/3 208/8/3 
f 204/5/2 203/6/2 206/7/2 208/8/2 
f 207/5/4 205/6/4 202/7/4 201/8/4 
f 209/5/6 210/6/6 211/7/6 212/8/6 
f 210/5/1 213/6/1 214/7/1 211/8/1 
f 213/5/11 215/6/11 216/7/11 214/8/11 
f 215/5/3 209/6/3 212/7/3 216/8/3 
f 212/5/2 211/6/2 214/7/2 216/8/2 
f 215/5/4 213/6/4 210/7/4 209/8/4 
f 217/5/6 218/6/6 219/7/6 220/8/6 
f 218/5/1 221/6/1 222/7/1 219/8/1 
f 221/5/11 223/6/11 224/7/11 222/8/11 
f 223/5/3 217/6/3 220/7/3 224/8/3 
f 220/5/2 219/6/2 222/7/2 224/8/2 
f 223/5/4 221/6/4 218/7/4 217/8/4 
s 1
f 225/9/1 226/10/1 227/11/1 
f 228/9/3 229/10/3 230/11/3 
s 2
f 231/9/12 227/10/12 226/11/12 232/12/12 
s off
f 228/9/13 233/10/13 234/11/13 229/12/13 
f 232/9/14 226/10/14 225/11/14 235/12/14 
f 235/9/9 225/10/9 233/11/9 228/12/9 
s 2
f 229/9/12 234/10/12 236/11/12 230/12/12 
f 230/9/12 236/10/12 227/11/12 231/12/12 
s 1
f 232/9/3 235/10/3 231/11/3 
f 235/9/3 228/10/3 230/11/3 231/12/3 
f 234/9/1 233/10/1 236/11/1 
f 233/9/1 225/10/1 227/11/1 236/12/1 
# 196 polygons - 4 triangles

