# 3ds Max Wavefront OBJ Exporter v0.97b - (c)2007 guruware
# File Created: 15.03.2017 11:20:03

mtllib SPW_Urban_RailRoad_01_Small.mtl

#
# object SPW_Urban_RailRoad_01_Small
#

v  -196.8504 12.9050 58.0709
v  -196.8504 10.8971 58.0709
v  -196.8504 10.8971 60.0394
v  -196.8504 11.7805 60.0394
v  -196.8504 12.9050 52.1654
v  -196.8504 10.8971 52.1654
v  196.8504 10.8971 52.1653
v  -196.8504 10.8971 50.1969
v  196.8504 10.8971 50.1968
v  196.8504 12.9050 52.1653
v  196.8504 12.9050 58.0709
v  196.8504 10.8971 58.0709
v  196.8504 22.7081 52.1653
v  -196.8504 22.7081 52.1654
v  -196.8504 22.7081 58.0709
v  196.8504 22.7081 58.0709
v  196.8504 19.1102 58.0709
v  196.8504 19.1102 52.1653
v  -196.8504 19.1102 52.1654
v  -196.8504 19.1102 58.0709
v  -196.8504 19.1102 60.0394
v  -196.8504 22.7081 60.0394
v  -196.8504 19.1102 50.1969
v  196.8504 19.1102 50.1968
v  -196.8504 22.7081 50.1969
v  196.8504 22.7081 50.1968
v  196.8504 22.7081 60.0394
v  196.8504 19.1102 60.0394
v  -196.8504 11.7805 50.1969
v  196.8504 11.7805 50.1968
v  196.8504 11.7805 60.0394
v  196.8504 10.8971 60.0394
v  -196.8504 12.9050 -52.1653
v  -196.8504 10.8971 -52.1653
v  -196.8504 10.8971 -50.1968
v  -196.8504 11.7805 -50.1968
v  -196.8504 12.9050 -58.0709
v  -196.8504 10.8971 -58.0709
v  196.8504 10.8971 -58.0709
v  -196.8504 10.8971 -60.0394
v  196.8504 10.8971 -60.0394
v  196.8504 12.9050 -58.0709
v  196.8504 12.9050 -52.1654
v  196.8504 10.8971 -52.1654
v  196.8504 22.7081 -58.0709
v  -196.8504 22.7081 -58.0709
v  -196.8504 22.7081 -52.1653
v  196.8504 22.7081 -52.1654
v  196.8504 19.1103 -52.1654
v  196.8504 19.1103 -58.0709
v  -196.8504 19.1103 -58.0709
v  -196.8504 19.1103 -52.1653
v  -196.8504 19.1103 -50.1968
v  -196.8504 22.7081 -50.1968
v  -196.8504 19.1103 -60.0394
v  196.8504 19.1103 -60.0394
v  -196.8504 22.7081 -60.0394
v  196.8504 22.7081 -60.0394
v  196.8504 22.7081 -50.1969
v  196.8504 19.1103 -50.1969
v  -196.8504 11.7805 -60.0394
v  196.8504 11.7805 -60.0394
v  196.8504 11.7805 -50.1969
v  196.8504 10.8971 -50.1969
v  185.0394 10.8991 70.8661
v  169.2914 10.8991 70.8661
v  169.2914 7.6048 70.8661
v  185.0394 7.6048 70.8661
v  169.2914 10.8991 -70.8661
v  169.2914 7.6048 -70.8661
v  185.0394 10.8991 -70.8661
v  185.0394 7.6048 -70.8661
v  145.6693 10.8991 70.8661
v  129.9213 10.8991 70.8661
v  129.9213 7.6048 70.8661
v  145.6693 7.6048 70.8661
v  129.9212 10.8991 -70.8661
v  129.9212 7.6048 -70.8661
v  145.6693 10.8991 -70.8661
v  145.6693 7.6048 -70.8661
v  106.2992 10.8991 70.8661
v  90.5512 10.8991 70.8661
v  90.5512 7.6048 70.8661
v  106.2992 7.6048 70.8661
v  90.5512 10.8991 -70.8661
v  90.5512 7.6048 -70.8661
v  106.2992 10.8991 -70.8661
v  106.2992 7.6048 -70.8661
v  66.9291 10.8991 70.8661
v  51.1811 10.8991 70.8661
v  51.1811 7.6048 70.8661
v  66.9291 7.6048 70.8661
v  51.1811 10.8991 -70.8661
v  51.1811 7.6048 -70.8661
v  66.9291 10.8991 -70.8661
v  66.9291 7.6048 -70.8661
v  27.5591 10.8991 70.8662
v  11.8110 10.8991 70.8662
v  11.8110 7.6048 70.8662
v  27.5591 7.6048 70.8662
v  11.8110 10.8991 -70.8661
v  11.8110 7.6048 -70.8661
v  27.5591 10.8991 -70.8661
v  27.5591 7.6048 -70.8661
v  -11.8110 10.8991 70.8662
v  -27.5590 10.8991 70.8662
v  -27.5590 7.6048 70.8662
v  -11.8110 7.6048 70.8662
v  -27.5590 10.8991 -70.8661
v  -27.5590 7.6048 -70.8661
v  -11.8110 10.8991 -70.8661
v  -11.8110 7.6048 -70.8661
v  -51.1811 10.8991 70.8662
v  -66.9291 10.8991 70.8662
v  -66.9291 7.6048 70.8662
v  -51.1811 7.6048 70.8662
v  -66.9291 10.8991 -70.8661
v  -66.9291 7.6048 -70.8661
v  -51.1811 10.8991 -70.8661
v  -51.1811 7.6048 -70.8661
v  -90.5512 10.8991 70.8662
v  -106.2992 10.8991 70.8662
v  -106.2992 7.6048 70.8662
v  -90.5512 7.6048 70.8662
v  -106.2992 10.8991 -70.8661
v  -106.2992 7.6048 -70.8661
v  -90.5512 10.8991 -70.8661
v  -90.5512 7.6048 -70.8661
v  -129.9213 10.8991 70.8662
v  -145.6693 10.8991 70.8662
v  -145.6693 7.6048 70.8662
v  -129.9213 7.6048 70.8662
v  -145.6693 10.8991 -70.8661
v  -145.6693 7.6048 -70.8661
v  -129.9213 10.8991 -70.8661
v  -129.9213 7.6048 -70.8661
v  -169.2914 10.8991 70.8662
v  -185.0394 10.8991 70.8662
v  -185.0394 7.6048 70.8662
v  -169.2914 7.6048 70.8662
v  -185.0394 10.8991 -70.8661
v  -185.0394 7.6048 -70.8661
v  -169.2914 10.8991 -70.8661
v  -169.2914 7.6048 -70.8661
v  -196.8504 9.8425 -74.8031
v  -196.8504 0.0000 -118.1102
v  -196.8504 0.0000 -74.8031
v  196.8504 9.8425 74.8031
v  196.8504 -0.0000 118.1102
v  196.8504 -0.0000 74.8031
v  196.8504 0.0000 -74.8032
v  196.8504 0.0000 -118.1103
v  -196.8504 9.8425 74.8032
v  -196.8504 -0.0000 118.1103
v  196.8504 9.8425 -74.8032
v  -196.8504 -0.0000 74.8032
# 156 vertices

vn -1.0000 0.0000 -0.0000
vn 0.0000 -1.0000 -0.0000
vn 1.0000 0.0000 -0.0000
vn 0.0000 1.0000 0.0000
vn -0.0000 0.0000 -1.0000
vn 0.0000 -0.0000 1.0000
vn -0.0000 0.8683 -0.4960
vn 0.0000 0.8683 0.4960
vn 0.0000 0.0000 -1.0000
vn -1.0000 -0.0000 0.0000
vn -0.0000 1.0000 0.0000
vn -0.0000 -1.0000 -0.0000
vn 0.0000 0.9751 0.2216
vn -0.0000 0.9751 -0.2216
# 14 vertex normals

vt 0.4679 0.2854 0.0000
vt 0.5179 0.2854 0.0000
vt 0.5179 0.3354 0.0000
vt 0.4679 0.3354 0.0000
vt 0.4697 0.1596 0.0000
vt 0.5197 0.1596 0.0000
vt 0.5197 0.2096 0.0000
vt 0.4697 0.2096 0.0000
vt 0.4591 0.0356 0.0000
vt 0.5091 0.0356 0.0000
vt 0.5091 0.0856 0.0000
vt 0.4591 0.0856 0.0000
# 12 texture coords

g SPW_Urban_RailRoad_01_Small
usemtl SPW_Urban_Road
s 1
f 1/1/1 2/2/1 3/3/1 4/4/1 
f 1/1/1 5/2/1 6/3/1 2/4/1 
s 2
f 7/1/2 6/2/2 8/3/2 9/4/2 
s 1
f 10/1/3 11/2/3 12/3/3 7/4/3 
s 2
f 12/1/2 2/2/2 6/3/2 7/4/2 
f 13/1/4 14/2/4 15/3/4 16/4/4 
s 1
f 13/1/3 16/2/3 17/3/3 18/4/3 
f 18/1/3 17/2/3 11/3/3 10/4/3 
s 4
f 14/1/3 13/2/3 13/3/3 14/4/3 
s off
f 19/1/5 18/2/5 10/3/5 5/4/5 
s 1
f 15/1/1 14/2/1 19/3/1 20/4/1 
f 20/1/1 19/2/1 5/3/1 1/4/1 
f 15/1/1 20/2/1 21/3/1 22/4/1 
s off
f 17/1/6 20/2/6 1/3/6 11/4/6 
f 18/1/2 19/2/2 23/3/2 24/4/2 
s 4
f 13/1/3 18/2/3 18/3/3 13/4/3 
f 19/1/3 14/2/3 14/3/3 19/4/3 
f 18/1/3 19/2/3 19/3/3 18/4/3 
s off
f 25/1/5 26/2/5 24/3/5 23/4/5 
f 19/1/1 14/2/1 25/3/1 23/4/1 
f 13/1/3 18/2/3 24/3/3 26/4/3 
f 14/1/4 13/2/4 26/3/4 25/4/4 
f 27/1/6 22/2/6 21/3/6 28/4/6 
s 2
f 16/1/4 15/2/4 22/3/4 27/4/4 
s off
f 20/1/2 17/2/2 28/3/2 21/4/2 
s 1
f 17/1/3 16/2/3 27/3/3 28/4/3 
s off
f 29/1/5 30/2/5 9/3/5 8/4/5 
s 1
f 6/1/1 5/2/1 29/3/1 8/4/1 
s off
f 5/1/7 10/2/7 30/3/7 29/4/7 
s 1
f 10/1/3 7/2/3 9/3/3 30/4/3 
s off
f 31/1/6 4/2/6 3/3/6 32/4/6 
f 11/1/8 1/2/8 4/3/8 31/4/8 
s 2
f 2/1/2 12/2/2 32/3/2 3/4/2 
s 1
f 12/1/3 11/2/3 31/3/3 32/4/3 
f 33/1/1 34/2/1 35/3/1 36/4/1 
f 33/1/1 37/2/1 38/3/1 34/4/1 
s 2
f 39/1/2 38/2/2 40/3/2 41/4/2 
s 1
f 42/1/3 43/2/3 44/3/3 39/4/3 
s 2
f 44/1/2 34/2/2 38/3/2 39/4/2 
f 45/1/4 46/2/4 47/3/4 48/4/4 
s 1
f 45/1/3 48/2/3 49/3/3 50/4/3 
f 50/1/3 49/2/3 43/3/3 42/4/3 
s 4
f 46/1/3 45/2/3 45/3/3 46/4/3 
s off
f 51/1/5 50/2/5 42/3/5 37/4/5 
s 1
f 47/1/1 46/2/1 51/3/1 52/4/1 
f 52/1/1 51/2/1 37/3/1 33/4/1 
f 47/1/1 52/2/1 53/3/1 54/4/1 
s off
f 49/1/6 52/2/6 33/3/6 43/4/6 
f 50/1/2 51/2/2 55/3/2 56/4/2 
s 4
f 45/1/3 50/2/3 50/3/3 45/4/3 
f 51/1/3 46/2/3 46/3/3 51/4/3 
f 50/1/3 51/2/3 51/3/3 50/4/3 
s off
f 57/1/5 58/2/5 56/3/5 55/4/5 
f 51/1/1 46/2/1 57/3/1 55/4/1 
f 45/1/3 50/2/3 56/3/3 58/4/3 
f 46/1/4 45/2/4 58/3/4 57/4/4 
f 59/1/6 54/2/6 53/3/6 60/4/6 
s 2
f 48/1/4 47/2/4 54/3/4 59/4/4 
s off
f 52/1/2 49/2/2 60/3/2 53/4/2 
s 1
f 49/1/3 48/2/3 59/3/3 60/4/3 
s off
f 61/1/5 62/2/5 41/3/5 40/4/5 
s 1
f 38/1/1 37/2/1 61/3/1 40/4/1 
s off
f 37/1/7 42/2/7 62/3/7 61/4/7 
s 1
f 42/1/3 39/2/3 41/3/3 62/4/3 
s off
f 63/1/6 36/2/6 35/3/6 64/4/6 
f 43/1/8 33/2/8 36/3/8 63/4/8 
s 2
f 34/1/2 44/2/2 64/3/2 35/4/2 
s 1
f 44/1/3 43/2/3 63/3/3 64/4/3 
s off
f 65/5/6 66/6/6 67/7/6 68/8/6 
f 66/5/1 69/6/1 70/7/1 67/8/1 
f 69/5/9 71/6/9 72/7/9 70/8/9 
f 71/5/3 65/6/3 68/7/3 72/8/3 
f 68/5/2 67/6/2 70/7/2 72/8/2 
f 71/5/4 69/6/4 66/7/4 65/8/4 
f 73/5/6 74/6/6 75/7/6 76/8/6 
f 74/5/10 77/6/10 78/7/10 75/8/10 
f 77/5/5 79/6/5 80/7/5 78/8/5 
f 79/5/3 73/6/3 76/7/3 80/8/3 
f 76/5/2 75/6/2 78/7/2 80/8/2 
f 79/5/11 77/6/11 74/7/11 73/8/11 
f 81/5/6 82/6/6 83/7/6 84/8/6 
f 82/5/1 85/6/1 86/7/1 83/8/1 
f 85/5/9 87/6/9 88/7/9 86/8/9 
f 87/5/3 81/6/3 84/7/3 88/8/3 
f 84/5/2 83/6/2 86/7/2 88/8/2 
f 87/5/4 85/6/4 82/7/4 81/8/4 
f 89/5/6 90/6/6 91/7/6 92/8/6 
f 90/5/1 93/6/1 94/7/1 91/8/1 
f 93/5/9 95/6/9 96/7/9 94/8/9 
f 95/5/3 89/6/3 92/7/3 96/8/3 
f 92/5/2 91/6/2 94/7/2 96/8/2 
f 95/5/4 93/6/4 90/7/4 89/8/4 
f 97/5/6 98/6/6 99/7/6 100/8/6 
f 98/5/1 101/6/1 102/7/1 99/8/1 
f 101/5/9 103/6/9 104/7/9 102/8/9 
f 103/5/3 97/6/3 100/7/3 104/8/3 
f 100/5/2 99/6/2 102/7/2 104/8/2 
f 103/5/4 101/6/4 98/7/4 97/8/4 
f 105/5/6 106/6/6 107/7/6 108/8/6 
f 106/5/1 109/6/1 110/7/1 107/8/1 
f 109/5/9 111/6/9 112/7/9 110/8/9 
f 111/5/3 105/6/3 108/7/3 112/8/3 
f 108/5/2 107/6/2 110/7/2 112/8/2 
f 111/5/4 109/6/4 106/7/4 105/8/4 
f 113/5/6 114/6/6 115/7/6 116/8/6 
f 114/5/1 117/6/1 118/7/1 115/8/1 
f 117/5/9 119/6/9 120/7/9 118/8/9 
f 119/5/3 113/6/3 116/7/3 120/8/3 
f 116/5/2 115/6/2 118/7/2 120/8/2 
f 119/5/4 117/6/4 114/7/4 113/8/4 
f 121/5/6 122/6/6 123/7/6 124/8/6 
f 122/5/1 125/6/1 126/7/1 123/8/1 
f 125/5/9 127/6/9 128/7/9 126/8/9 
f 127/5/3 121/6/3 124/7/3 128/8/3 
f 124/5/2 123/6/2 126/7/2 128/8/2 
f 127/5/4 125/6/4 122/7/4 121/8/4 
f 129/5/6 130/6/6 131/7/6 132/8/6 
f 130/5/1 133/6/1 134/7/1 131/8/1 
f 133/5/9 135/6/9 136/7/9 134/8/9 
f 135/5/3 129/6/3 132/7/3 136/8/3 
f 132/5/2 131/6/2 134/7/2 136/8/2 
f 135/5/4 133/6/4 130/7/4 129/8/4 
f 137/5/6 138/6/6 139/7/6 140/8/6 
f 138/5/1 141/6/1 142/7/1 139/8/1 
f 141/5/5 143/6/5 144/7/5 142/8/5 
f 143/5/3 137/6/3 140/7/3 144/8/3 
f 140/5/2 139/6/2 142/7/2 144/8/2 
f 143/5/11 141/6/11 138/7/11 137/8/11 
s 1
f 145/9/1 146/10/1 147/11/1 
f 148/9/3 149/10/3 150/11/3 
s 2
f 151/9/12 147/10/12 146/11/12 152/12/12 
s off
f 148/9/13 153/10/13 154/11/13 149/12/13 
f 152/9/14 146/10/14 145/11/14 155/12/14 
f 155/9/11 145/10/11 153/11/11 148/12/11 
s 2
f 149/9/12 154/10/12 156/11/12 150/12/12 
f 150/9/12 156/10/12 147/11/12 151/12/12 
s 1
f 152/9/3 155/10/3 151/11/3 
f 155/9/3 148/10/3 150/11/3 151/12/3 
f 154/9/1 153/10/1 156/11/1 
f 153/9/1 145/10/1 147/11/1 156/12/1 
# 136 polygons - 4 triangles

