# 3ds Max Wavefront OBJ Exporter v0.97b - (c)2007 guruware
# File Created: 15.03.2017 11:23:18

mtllib SPW_Urban_RailRoad_04.mtl

#
# object SPW_Urban_RailRoad_04
#

v  -393.7008 12.9050 176.1811
v  -393.7008 10.8970 176.1811
v  -393.7008 10.8970 178.1496
v  -393.7008 11.7805 178.1496
v  -393.7008 12.9050 170.2756
v  -393.7008 10.8970 170.2756
v  393.7008 10.8970 170.2756
v  -393.7008 10.8970 168.3071
v  393.7008 10.8970 168.3071
v  393.7008 12.9050 170.2756
v  393.7008 12.9050 176.1811
v  393.7008 10.8970 176.1811
v  393.7008 22.7081 170.2756
v  -393.7008 22.7081 170.2756
v  -393.7008 22.7081 176.1811
v  393.7008 22.7081 176.1811
v  393.7008 19.1102 176.1811
v  393.7008 19.1102 170.2756
v  -393.7008 19.1102 170.2756
v  -393.7008 19.1102 176.1811
v  -393.7008 19.1102 178.1496
v  -393.7008 22.7081 178.1496
v  -393.7008 19.1102 168.3071
v  393.7008 19.1102 168.3071
v  -393.7008 22.7081 168.3071
v  393.7008 22.7081 168.3071
v  393.7008 22.7081 178.1496
v  393.7008 19.1102 178.1496
v  -393.7008 11.7805 168.3071
v  393.7008 11.7805 168.3071
v  393.7008 11.7805 178.1496
v  393.7008 10.8970 178.1496
v  -393.7008 12.9050 65.9449
v  -393.7008 10.8971 65.9449
v  -393.7008 10.8971 67.9134
v  -393.7008 11.7805 67.9134
v  -393.7008 12.9050 60.0394
v  -393.7008 10.8971 60.0394
v  393.7008 10.8971 60.0394
v  -393.7008 10.8971 58.0709
v  393.7008 10.8971 58.0708
v  393.7008 12.9050 60.0394
v  393.7008 12.9050 65.9449
v  393.7008 10.8971 65.9449
v  393.7008 22.7081 60.0394
v  -393.7008 22.7081 60.0394
v  -393.7008 22.7081 65.9449
v  393.7008 22.7081 65.9449
v  393.7008 19.1102 65.9449
v  393.7008 19.1102 60.0394
v  -393.7008 19.1102 60.0394
v  -393.7008 19.1102 65.9449
v  -393.7008 19.1102 67.9134
v  -393.7008 22.7081 67.9134
v  -393.7008 19.1102 58.0709
v  393.7008 19.1102 58.0708
v  -393.7008 22.7081 58.0709
v  393.7008 22.7081 58.0708
v  393.7008 22.7081 67.9134
v  393.7008 19.1102 67.9134
v  -393.7008 11.7805 58.0709
v  393.7008 11.7805 58.0708
v  393.7008 11.7805 67.9134
v  393.7008 10.8971 67.9134
v  -393.7008 12.9051 -170.2756
v  -393.7008 10.8971 -170.2756
v  -393.7008 10.8971 -168.3071
v  -393.7008 11.7805 -168.3071
v  -393.7008 12.9051 -176.1811
v  -393.7008 10.8971 -176.1811
v  393.7008 10.8971 -176.1811
v  -393.7008 10.8971 -178.1496
v  393.7008 10.8971 -178.1496
v  393.7008 12.9051 -176.1811
v  393.7008 12.9051 -170.2756
v  393.7008 10.8971 -170.2756
v  393.7008 22.7081 -176.1811
v  -393.7008 22.7081 -176.1811
v  -393.7008 22.7081 -170.2756
v  393.7008 22.7081 -170.2756
v  393.7008 19.1103 -170.2756
v  393.7008 19.1103 -176.1811
v  -393.7008 19.1103 -176.1811
v  -393.7008 19.1103 -170.2756
v  -393.7008 19.1103 -168.3071
v  -393.7008 22.7081 -168.3071
v  -393.7008 19.1103 -178.1496
v  393.7008 19.1103 -178.1496
v  -393.7008 22.7081 -178.1496
v  393.7008 22.7081 -178.1496
v  393.7008 22.7081 -168.3071
v  393.7008 19.1103 -168.3071
v  -393.7008 11.7805 -178.1496
v  393.7008 11.7805 -178.1496
v  393.7008 11.7805 -168.3071
v  393.7008 10.8971 -168.3071
v  -393.7008 12.9050 -60.0394
v  -393.7008 10.8971 -60.0394
v  -393.7008 10.8971 -58.0709
v  -393.7008 11.7805 -58.0709
v  -393.7008 12.9050 -65.9449
v  -393.7008 10.8971 -65.9449
v  393.7008 10.8971 -65.9449
v  -393.7008 10.8971 -67.9134
v  393.7008 10.8971 -67.9134
v  393.7008 12.9050 -65.9449
v  393.7008 12.9050 -60.0394
v  393.7008 10.8971 -60.0394
v  393.7008 22.7081 -65.9449
v  -393.7008 22.7081 -65.9449
v  -393.7008 22.7081 -60.0394
v  393.7008 22.7081 -60.0394
v  393.7008 19.1103 -60.0394
v  393.7008 19.1103 -65.9449
v  -393.7008 19.1103 -65.9449
v  -393.7008 19.1103 -60.0394
v  -393.7008 19.1103 -58.0709
v  -393.7008 22.7081 -58.0709
v  -393.7008 19.1103 -67.9134
v  393.7008 19.1103 -67.9134
v  -393.7008 22.7081 -67.9134
v  393.7008 22.7081 -67.9134
v  393.7008 22.7081 -58.0709
v  393.7008 19.1103 -58.0709
v  -393.7008 11.7805 -67.9134
v  393.7008 11.7805 -67.9134
v  393.7008 11.7805 -58.0709
v  393.7008 10.8971 -58.0709
v  -322.1188 10.8971 -170.2240
v  -322.1188 10.8971 -172.1925
v  -322.1188 10.8971 -164.3184
v  -322.1188 22.7081 -170.2240
v  -322.1188 22.7081 -164.3184
v  322.1188 22.7081 58.1392
v  322.1188 19.1102 58.1392
v  322.1188 12.9050 58.1392
v  -322.1188 19.1103 -164.3184
v  -322.1188 12.9051 -164.3184
v  -322.1188 19.1103 -170.2240
v  -322.1188 19.1103 -172.1925
v  322.1188 22.7081 56.1707
v  322.1188 19.1102 56.1707
v  -322.1188 22.7081 -162.3499
v  -322.1188 19.1103 -162.3499
v  322.1188 19.1102 64.0447
v  322.1188 19.1102 66.0132
v  322.1188 11.7805 56.1707
v  322.1188 10.8971 56.1707
v  -322.1188 11.7805 -162.3499
v  -322.1188 10.8971 -162.3499
v  322.1188 10.8971 64.0447
v  322.1188 10.8971 66.0132
v  -250.5368 10.8971 -148.0527
v  -250.5368 10.8971 -146.0841
v  -178.9549 10.8971 -123.8870
v  -178.9549 10.8971 -121.9183
v  -107.3729 10.8971 -94.2304
v  -107.3729 10.8971 -92.2616
v  -35.7910 10.8971 -61.4928
v  -35.7910 10.8971 -59.5239
v  35.7910 10.8971 -28.0846
v  35.7910 10.8971 -26.1158
v  107.3729 10.8971 3.5833
v  107.3729 10.8971 5.5521
v  178.9549 10.8971 31.1005
v  178.9549 10.8971 33.0692
v  250.5368 10.8971 52.0571
v  250.5368 10.8971 54.0258
v  322.1188 12.9050 64.0447
v  322.1188 11.7805 66.0132
v  250.5368 12.9050 52.0571
v  250.5368 11.7805 54.0258
v  178.9549 12.9050 31.1005
v  178.9549 11.7805 33.0692
v  107.3729 12.9050 3.5833
v  107.3729 11.7805 5.5521
v  35.7910 12.9050 -28.0846
v  35.7910 11.7805 -26.1158
v  -35.7910 12.9050 -61.4928
v  -35.7910 11.7805 -59.5239
v  -107.3729 12.9051 -94.2304
v  -107.3729 11.7805 -92.2616
v  -178.9549 12.9051 -123.8870
v  -178.9549 11.7805 -121.9183
v  -250.5368 12.9051 -148.0527
v  -250.5368 11.7805 -146.0841
v  -322.1188 12.9051 -170.2240
v  -322.1188 11.7805 -172.1925
v  -250.5368 12.9051 -153.9586
v  -250.5368 11.7805 -155.9271
v  -178.9549 12.9051 -129.7931
v  -178.9549 11.7805 -131.7618
v  -107.3729 12.9051 -100.1368
v  -107.3729 11.7805 -102.1056
v  -35.7910 12.9050 -67.3993
v  -35.7910 11.7805 -69.3682
v  35.7910 12.9050 -33.9912
v  35.7910 11.7805 -35.9601
v  107.3729 12.9050 -2.3232
v  107.3729 11.7805 -4.2920
v  178.9549 12.9050 25.1942
v  178.9549 11.7805 23.2254
v  250.5368 12.9050 46.1512
v  250.5368 11.7805 44.1826
v  -250.5368 10.8971 -155.9271
v  -178.9549 10.8971 -131.7618
v  -107.3729 10.8971 -102.1056
v  -35.7910 10.8971 -69.3682
v  35.7910 10.8971 -35.9601
v  107.3729 10.8971 -4.2920
v  178.9549 10.8971 23.2254
v  250.5368 10.8971 44.1825
v  -250.5368 19.1103 -148.0527
v  -250.5368 19.1103 -146.0841
v  -178.9549 19.1103 -123.8870
v  -178.9549 19.1103 -121.9183
v  -107.3729 19.1103 -94.2304
v  -107.3729 19.1103 -92.2616
v  -35.7910 19.1103 -61.4928
v  -35.7910 19.1103 -59.5239
v  35.7910 19.1103 -28.0846
v  35.7910 19.1103 -26.1158
v  107.3729 19.1102 3.5833
v  107.3729 19.1102 5.5521
v  178.9549 19.1102 31.1005
v  178.9549 19.1102 33.0692
v  250.5368 19.1102 52.0571
v  250.5368 19.1102 54.0258
v  322.1188 22.7081 64.0447
v  322.1188 22.7081 66.0132
v  250.5368 22.7081 52.0571
v  250.5368 22.7081 54.0258
v  178.9549 22.7081 31.1005
v  178.9549 22.7081 33.0692
v  107.3729 22.7081 3.5833
v  107.3729 22.7081 5.5521
v  35.7910 22.7081 -28.0846
v  35.7910 22.7081 -26.1158
v  -35.7910 22.7081 -61.4928
v  -35.7910 22.7081 -59.5239
v  -107.3729 22.7081 -94.2304
v  -107.3729 22.7081 -92.2616
v  -178.9549 22.7081 -123.8870
v  -178.9549 22.7081 -121.9183
v  -250.5368 22.7081 -148.0527
v  -250.5368 22.7081 -146.0841
v  -322.1188 22.7081 -172.1925
v  -250.5368 22.7081 -153.9586
v  -250.5368 22.7081 -155.9271
v  -178.9549 22.7081 -129.7931
v  -178.9549 22.7081 -131.7618
v  -107.3729 22.7081 -100.1368
v  -107.3729 22.7081 -102.1056
v  -35.7910 22.7081 -67.3993
v  -35.7910 22.7081 -69.3682
v  35.7910 22.7081 -33.9912
v  35.7910 22.7081 -35.9601
v  107.3729 22.7081 -2.3232
v  107.3729 22.7081 -4.2920
v  178.9549 22.7081 25.1942
v  178.9549 22.7081 23.2254
v  250.5368 22.7081 46.1512
v  250.5368 22.7081 44.1826
v  -250.5368 19.1103 -155.9271
v  -178.9549 19.1103 -131.7618
v  -107.3729 19.1103 -102.1056
v  -35.7910 19.1103 -69.3682
v  35.7910 19.1103 -35.9601
v  107.3729 19.1102 -4.2920
v  178.9549 19.1102 23.2254
v  250.5368 19.1102 44.1826
v  250.5368 19.1102 46.1512
v  178.9549 19.1102 25.1942
v  107.3729 19.1102 -2.3232
v  35.7910 19.1103 -33.9912
v  -35.7910 19.1103 -67.3993
v  -107.3729 19.1103 -100.1368
v  -178.9549 19.1103 -129.7931
v  -250.5368 19.1103 -153.9586
v  322.1188 10.8971 58.1392
v  250.5368 10.8971 46.1512
v  178.9549 10.8971 25.1942
v  107.3729 10.8971 -2.3232
v  35.7910 10.8971 -33.9912
v  -35.7910 10.8971 -67.3993
v  -107.3729 10.8971 -100.1368
v  -178.9549 10.8971 -129.7931
v  -250.5368 10.8971 -153.9586
v  -393.7008 12.9050 -60.0395
v  -393.7008 10.8971 -60.0395
v  -393.7008 10.8971 -58.0710
v  -393.7008 11.7805 -58.0710
v  -393.7008 12.9050 -65.9450
v  -393.7008 10.8971 -65.9450
v  -322.1188 10.8971 -59.9879
v  -393.7008 10.8971 -67.9135
v  -322.1188 10.8971 -61.9564
v  393.7008 12.9050 170.2755
v  393.7008 12.9050 176.1810
v  393.7008 10.8970 176.1810
v  393.7008 10.8970 170.2755
v  -322.1188 10.8971 -54.0823
v  -322.1188 22.7081 -59.9879
v  -393.7008 22.7081 -65.9450
v  -393.7008 22.7081 -60.0395
v  -322.1188 22.7081 -54.0823
v  393.7008 22.7081 170.2755
v  393.7008 22.7081 176.1810
v  393.7008 19.1102 176.1810
v  393.7008 19.1102 170.2755
v  322.1188 22.7081 168.3753
v  322.1188 19.1102 168.3753
v  322.1188 12.9050 168.3753
v  -393.7008 19.1103 -65.9450
v  -393.7008 19.1103 -60.0395
v  -393.7008 19.1103 -58.0710
v  -393.7008 22.7081 -58.0710
v  -322.1188 19.1103 -54.0823
v  -322.1188 12.9050 -54.0823
v  -322.1188 19.1103 -59.9879
v  -393.7008 19.1103 -67.9135
v  -322.1188 19.1103 -61.9564
v  322.1188 22.7081 166.4068
v  393.7008 22.7081 168.3070
v  393.7008 19.1102 168.3070
v  322.1188 19.1102 166.4068
v  -393.7008 22.7081 -67.9135
v  -322.1188 22.7081 -52.1138
v  -322.1188 19.1103 -52.1138
v  322.1188 19.1102 174.2808
v  393.7008 19.1102 178.1495
v  322.1188 19.1102 176.2493
v  393.7008 22.7081 178.1495
v  322.1188 11.7805 166.4068
v  393.7008 11.7805 168.3070
v  393.7008 10.8970 168.3070
v  322.1188 10.8970 166.4068
v  -393.7008 11.7805 -67.9135
v  -322.1188 11.7805 -52.1138
v  -322.1188 10.8971 -52.1138
v  322.1188 10.8970 174.2808
v  393.7008 10.8970 178.1495
v  322.1188 10.8970 176.2493
v  393.7008 11.7805 178.1495
v  -250.5368 10.8971 -37.8166
v  -250.5368 10.8971 -35.8480
v  -178.9549 10.8971 -13.6509
v  -178.9549 10.8971 -11.6822
v  -107.3729 10.8971 16.0057
v  -107.3729 10.8971 17.9745
v  -35.7910 10.8971 48.7433
v  -35.7910 10.8971 50.7122
v  35.7910 10.8971 82.1515
v  35.7910 10.8971 84.1204
v  107.3730 10.8970 113.8194
v  107.3730 10.8970 115.7882
v  178.9549 10.8970 141.3366
v  178.9549 10.8970 143.3053
v  250.5368 10.8970 162.2932
v  250.5368 10.8970 164.2619
v  322.1188 12.9050 174.2808
v  322.1188 11.7805 176.2493
v  250.5368 12.9050 162.2932
v  250.5368 11.7805 164.2619
v  178.9549 12.9050 141.3366
v  178.9549 11.7805 143.3053
v  107.3730 12.9050 113.8194
v  107.3730 11.7805 115.7882
v  35.7910 12.9050 82.1515
v  35.7910 11.7805 84.1204
v  -35.7910 12.9050 48.7433
v  -35.7910 11.7805 50.7122
v  -107.3729 12.9050 16.0057
v  -107.3729 11.7805 17.9745
v  -178.9549 12.9050 -13.6509
v  -178.9549 11.7805 -11.6822
v  -250.5368 12.9050 -37.8166
v  -250.5368 11.7805 -35.8480
v  -322.1188 12.9050 -59.9879
v  -322.1188 11.7805 -61.9564
v  -250.5368 12.9050 -43.7224
v  -250.5368 11.7805 -45.6910
v  -178.9549 12.9050 -19.5570
v  -178.9549 11.7805 -21.5257
v  -107.3729 12.9050 10.0993
v  -107.3729 11.7805 8.1306
v  -35.7910 12.9050 42.8368
v  -35.7910 11.7805 40.8679
v  35.7910 12.9050 76.2449
v  35.7910 11.7805 74.2760
v  107.3729 12.9050 107.9129
v  107.3729 11.7805 105.9441
v  178.9549 12.9050 135.4303
v  178.9549 11.7805 133.4615
v  250.5368 12.9050 156.3873
v  250.5368 11.7805 154.4187
v  -250.5368 10.8971 -45.6910
v  -178.9549 10.8971 -21.5257
v  -107.3729 10.8971 8.1306
v  -35.7910 10.8971 40.8679
v  35.7910 10.8971 74.2760
v  107.3729 10.8971 105.9441
v  178.9549 10.8970 133.4615
v  250.5368 10.8970 154.4187
v  -250.5368 19.1103 -37.8166
v  -250.5368 19.1103 -35.8480
v  -178.9549 19.1103 -13.6509
v  -178.9549 19.1103 -11.6822
v  -107.3729 19.1102 16.0057
v  -107.3729 19.1102 17.9745
v  -35.7910 19.1102 48.7433
v  -35.7910 19.1102 50.7122
v  35.7910 19.1102 82.1515
v  35.7910 19.1102 84.1204
v  107.3730 19.1102 113.8194
v  107.3730 19.1102 115.7882
v  178.9549 19.1102 141.3366
v  178.9549 19.1102 143.3053
v  250.5368 19.1102 162.2932
v  250.5368 19.1102 164.2619
v  322.1188 22.7081 174.2808
v  322.1188 22.7081 176.2493
v  250.5368 22.7081 162.2932
v  250.5368 22.7081 164.2619
v  178.9549 22.7081 141.3366
v  178.9549 22.7081 143.3053
v  107.3729 22.7081 113.8194
v  107.3729 22.7081 115.7882
v  35.7910 22.7081 82.1515
v  35.7910 22.7081 84.1203
v  -35.7910 22.7081 48.7433
v  -35.7910 22.7081 50.7122
v  -107.3729 22.7081 16.0057
v  -107.3729 22.7081 17.9745
v  -178.9549 22.7081 -13.6509
v  -178.9549 22.7081 -11.6822
v  -250.5368 22.7081 -37.8166
v  -250.5368 22.7081 -35.8480
v  -322.1188 22.7081 -61.9564
v  -250.5368 22.7081 -43.7224
v  -250.5368 22.7081 -45.6910
v  -178.9549 22.7081 -19.5570
v  -178.9549 22.7081 -21.5257
v  -107.3729 22.7081 10.0993
v  -107.3729 22.7081 8.1306
v  -35.7910 22.7081 42.8368
v  -35.7910 22.7081 40.8679
v  35.7910 22.7081 76.2449
v  35.7910 22.7081 74.2761
v  107.3730 22.7081 107.9129
v  107.3729 22.7081 105.9441
v  178.9549 22.7081 135.4303
v  178.9549 22.7081 133.4615
v  250.5368 22.7081 156.3873
v  250.5368 22.7081 154.4187
v  -250.5368 19.1103 -45.6910
v  -178.9549 19.1103 -21.5257
v  -107.3729 19.1102 8.1306
v  -35.7910 19.1102 40.8679
v  35.7910 19.1102 74.2760
v  107.3729 19.1102 105.9441
v  178.9549 19.1102 133.4615
v  250.5368 19.1102 154.4187
v  250.5368 19.1102 156.3873
v  178.9549 19.1102 135.4303
v  107.3729 19.1102 107.9129
v  35.7910 19.1102 76.2449
v  -35.7910 19.1102 42.8368
v  -107.3729 19.1102 10.0993
v  -178.9549 19.1103 -19.5570
v  -250.5368 19.1103 -43.7224
v  322.1188 10.8970 168.3753
v  250.5368 10.8970 156.3873
v  178.9549 10.8970 135.4303
v  107.3729 10.8971 107.9129
v  35.7910 10.8971 76.2449
v  -35.7910 10.8971 42.8368
v  -107.3729 10.8971 10.0993
v  -178.9549 10.8971 -19.5570
v  -250.5368 10.8971 -43.7224
v  381.8898 10.8991 188.9764
v  366.1418 10.8991 188.9764
v  366.1418 7.6048 188.9764
v  381.8898 7.6048 188.9764
v  366.1418 10.8991 47.2441
v  366.1418 7.6048 47.2441
v  381.8898 10.8991 47.2441
v  381.8898 7.6048 47.2441
v  -11.8110 10.8991 188.9764
v  -27.5590 10.8991 188.9764
v  -27.5590 7.6048 188.9764
v  -11.8110 7.6048 188.9764
v  -27.5591 10.8991 -188.9710
v  -27.5591 7.6048 -188.9710
v  -11.8110 10.8991 -188.9710
v  -11.8110 7.6048 -188.9710
v  -51.1811 10.8991 188.9764
v  -66.9291 10.8991 188.9764
v  -66.9291 7.6048 188.9764
v  -51.1811 7.6048 188.9764
v  -66.9291 10.8991 -188.9841
v  -66.9291 7.6048 -188.9841
v  -51.1811 10.8991 -188.9841
v  -51.1811 7.6048 -188.9841
v  -90.5512 10.8991 188.9764
v  -106.2992 10.8991 188.9764
v  -106.2992 7.6048 188.9764
v  -90.5512 7.6048 188.9764
v  -106.2992 10.8991 47.2441
v  -106.2992 7.6048 47.2441
v  -90.5512 10.8991 47.2441
v  -90.5512 7.6048 47.2441
v  -129.9212 10.8991 188.9764
v  -145.6693 10.8991 188.9764
v  -145.6693 7.6048 188.9764
v  -129.9212 7.6048 188.9764
v  -145.6693 10.8991 47.2441
v  -145.6693 7.6048 47.2441
v  -129.9212 10.8991 47.2441
v  -129.9212 7.6048 47.2441
v  -169.2913 10.8991 188.9764
v  -185.0394 10.8991 188.9764
v  -185.0394 7.6048 188.9764
v  -169.2913 7.6048 188.9764
v  -185.0394 10.8991 47.2441
v  -185.0394 7.6048 47.2441
v  -169.2913 10.8991 47.2441
v  -169.2913 7.6048 47.2441
v  -208.6614 10.8991 188.9764
v  -224.4094 10.8991 188.9764
v  -224.4094 7.6048 188.9764
v  -208.6614 7.6048 188.9764
v  -224.4094 10.8991 47.2441
v  -224.4094 7.6048 47.2441
v  -208.6614 10.8991 47.2441
v  -208.6614 7.6048 47.2441
v  -248.0315 10.8991 188.9764
v  -263.7795 10.8991 188.9764
v  -263.7795 7.6048 188.9764
v  -248.0315 7.6048 188.9764
v  -263.7795 10.8991 47.2441
v  -263.7795 7.6048 47.2441
v  -248.0315 10.8991 47.2441
v  -248.0315 7.6048 47.2441
v  -287.4016 10.8991 188.9764
v  -303.1496 10.8991 188.9764
v  -303.1496 7.6048 188.9764
v  -287.4016 7.6048 188.9764
v  -303.1496 10.8991 47.2441
v  -303.1496 7.6048 47.2441
v  -287.4016 10.8991 47.2441
v  -287.4016 7.6048 47.2441
v  -326.7717 10.8991 188.9764
v  -342.5197 10.8991 188.9764
v  -342.5197 7.6048 188.9764
v  -326.7717 7.6048 188.9764
v  -342.5197 10.8991 47.2441
v  -342.5197 7.6048 47.2441
v  -326.7717 10.8991 47.2441
v  -326.7717 7.6048 47.2441
v  -366.1418 10.8991 188.9764
v  -381.8898 10.8991 188.9764
v  -381.8898 7.6048 188.9764
v  -366.1418 7.6048 188.9764
v  -381.8898 10.8991 47.2441
v  -381.8898 7.6048 47.2441
v  -366.1418 10.8991 47.2441
v  -366.1418 7.6048 47.2441
v  27.5591 10.8991 188.9764
v  11.8110 10.8991 188.9764
v  11.8110 7.6048 188.9764
v  27.5591 7.6048 188.9764
v  11.8110 10.8991 -189.0355
v  11.8110 7.6048 -189.0355
v  27.5590 10.8991 -189.0355
v  27.5590 7.6048 -189.0355
v  66.9291 10.8991 188.9764
v  51.1811 10.8991 188.9764
v  51.1811 7.6048 188.9764
v  66.9291 7.6048 188.9764
v  51.1811 10.8991 -36.4287
v  51.1811 7.6048 -36.4287
v  66.9291 10.8991 -36.4287
v  66.9291 7.6048 -36.4287
v  106.2992 10.8991 188.9764
v  90.5512 10.8991 188.9764
v  90.5512 7.6048 188.9764
v  106.2992 7.6048 188.9764
v  90.5512 10.8991 -18.7795
v  90.5512 7.6048 -18.7795
v  106.2992 10.8991 -18.7795
v  106.2992 7.6048 -18.7795
v  145.6693 10.8991 188.9764
v  129.9213 10.8991 188.9764
v  129.9213 7.6048 188.9764
v  145.6693 7.6048 188.9764
v  129.9212 10.8991 -3.6417
v  129.9212 7.6048 -3.6417
v  145.6693 10.8991 -3.6417
v  145.6693 7.6048 -3.6417
v  185.0394 10.8991 188.9764
v  169.2914 10.8991 188.9764
v  169.2914 7.6048 188.9764
v  185.0394 7.6048 188.9764
v  169.2914 10.8991 12.2170
v  169.2914 7.6048 12.2170
v  185.0394 10.8991 12.2170
v  185.0394 7.6048 12.2170
v  224.4094 10.8991 188.9764
v  208.6614 10.8991 188.9764
v  208.6614 7.6048 188.9764
v  224.4094 7.6048 188.9764
v  208.6614 10.8991 24.7752
v  208.6614 7.6048 24.7752
v  224.4094 10.8991 24.7752
v  224.4094 7.6048 24.7752
v  263.7795 10.8991 188.9764
v  248.0315 10.8991 188.9764
v  248.0315 7.6048 188.9764
v  263.7795 7.6048 188.9764
v  248.0315 10.8991 34.9179
v  248.0315 7.6048 34.9179
v  263.7795 10.8991 34.9179
v  263.7795 7.6048 34.9179
v  303.1496 10.8991 188.9764
v  287.4016 10.8991 188.9764
v  287.4016 7.6048 188.9764
v  303.1496 7.6048 188.9764
v  287.4016 10.8991 42.3987
v  287.4016 7.6048 42.3987
v  303.1496 10.8991 42.3987
v  303.1496 7.6048 42.3987
v  342.5197 10.8991 188.9764
v  326.7717 10.8991 188.9764
v  326.7717 7.6048 188.9764
v  342.5197 7.6048 188.9764
v  326.7717 10.8991 47.2441
v  326.7717 7.6048 47.2441
v  342.5197 10.8991 47.2441
v  342.5197 7.6048 47.2441
v  -366.1418 10.8991 -45.2756
v  -381.8898 10.8991 -45.2756
v  -381.8898 7.6048 -45.2756
v  -366.1418 7.6048 -45.2756
v  -381.8898 10.8991 -188.9733
v  -381.8898 7.6048 -188.9733
v  -366.1418 10.8991 -188.9733
v  -366.1418 7.6048 -188.9733
v  -326.7717 10.8991 -43.3071
v  -342.5197 10.8991 -43.3071
v  -342.5197 7.6048 -43.3071
v  -326.7717 7.6048 -43.3071
v  -342.5197 10.8991 -189.0016
v  -342.5197 7.6048 -189.0016
v  -326.7717 10.8991 -189.0016
v  -326.7717 7.6048 -189.0016
v  -287.4016 10.8991 -35.4331
v  -303.1496 10.8991 -35.4331
v  -303.1496 7.6048 -35.4331
v  -287.4016 7.6048 -35.4331
v  -303.1496 10.8991 -189.0520
v  -303.1496 7.6048 -189.0520
v  -287.4016 10.8991 -189.0520
v  -287.4016 7.6048 -189.0520
v  -248.0315 10.8991 -25.5906
v  -263.7795 10.8991 -25.5906
v  -263.7795 7.6048 -25.5906
v  -248.0315 7.6048 -25.5906
v  -263.7795 10.8991 -189.0201
v  -263.7795 7.6048 -189.0201
v  -248.0315 10.8991 -189.0201
v  -248.0315 7.6048 -189.0201
v  -208.6614 10.8991 -13.7795
v  -224.4094 10.8991 -13.7795
v  -224.4094 7.6048 -13.7795
v  -208.6614 7.6048 -13.7795
v  -224.4094 10.8991 -188.9814
v  -224.4094 7.6048 -188.9814
v  -208.6614 10.8991 -188.9815
v  -208.6614 7.6048 -188.9815
v  -169.2913 10.8991 -0.0000
v  -185.0394 10.8991 -0.0000
v  -185.0394 7.6048 -0.0000
v  -169.2913 7.6048 -0.0000
v  -185.0394 10.8991 -188.9592
v  -185.0394 7.6048 -188.9592
v  -169.2913 10.8991 -188.9592
v  -169.2913 7.6048 -188.9592
v  -129.9212 10.8991 15.7480
v  -145.6693 10.8991 15.7480
v  -145.6693 7.6048 15.7480
v  -129.9212 7.6048 15.7480
v  -145.6693 10.8991 -188.9821
v  -145.6693 7.6048 -188.9821
v  -129.9213 10.8991 -188.9821
v  -129.9213 7.6048 -188.9821
v  -90.5512 10.8991 33.0709
v  -106.2992 10.8991 33.0709
v  -106.2992 7.6048 33.0709
v  -90.5512 7.6048 33.0709
v  -106.2992 10.8991 -188.9855
v  -106.2992 7.6048 -188.9855
v  -90.5512 10.8991 -188.9855
v  -90.5512 7.6048 -188.9855
v  -11.8110 10.8991 -47.2441
v  -27.5591 10.8991 -47.2441
v  -27.5591 7.6048 -47.2441
v  -11.8110 7.6048 -47.2441
v  -27.5591 10.8991 -188.9764
v  -27.5591 7.6048 -188.9764
v  -11.8110 10.8991 -188.9764
v  -11.8110 7.6048 -188.9764
v  381.8898 10.8991 -47.2441
v  366.1418 10.8991 -47.2441
v  366.1418 7.6048 -47.2441
v  381.8898 7.6048 -47.2441
v  366.1418 10.8991 -188.9764
v  366.1418 7.6048 -188.9764
v  381.8898 10.8991 -188.9764
v  381.8898 7.6048 -188.9764
v  66.9291 10.8991 -47.2441
v  51.1811 10.8991 -47.2441
v  51.1811 7.6048 -47.2441
v  66.9291 7.6048 -47.2441
v  51.1811 10.8991 -188.9764
v  51.1811 7.6048 -188.9764
v  66.9291 10.8991 -188.9764
v  66.9291 7.6048 -188.9764
v  106.2992 10.8991 -47.2441
v  90.5512 10.8991 -47.2441
v  90.5512 7.6048 -47.2441
v  106.2992 7.6048 -47.2441
v  90.5512 10.8991 -188.9764
v  90.5512 7.6048 -188.9764
v  106.2992 10.8991 -188.9764
v  106.2992 7.6048 -188.9764
v  145.6693 10.8991 -47.2441
v  129.9212 10.8991 -47.2441
v  129.9212 7.6048 -47.2441
v  145.6693 7.6048 -47.2441
v  129.9212 10.8991 -188.9764
v  129.9212 7.6048 -188.9764
v  145.6693 10.8991 -188.9764
v  145.6693 7.6048 -188.9764
v  185.0394 10.8991 -47.2441
v  169.2914 10.8991 -47.2441
v  169.2914 7.6048 -47.2441
v  185.0394 7.6048 -47.2441
v  169.2914 10.8991 -188.9764
v  169.2914 7.6048 -188.9764
v  185.0394 10.8991 -188.9764
v  185.0394 7.6048 -188.9764
v  224.4094 10.8991 -47.2441
v  208.6614 10.8991 -47.2441
v  208.6614 7.6048 -47.2441
v  224.4094 7.6048 -47.2441
v  208.6614 10.8991 -188.9764
v  208.6614 7.6048 -188.9764
v  224.4094 10.8991 -188.9764
v  224.4094 7.6048 -188.9764
v  263.7795 10.8991 -47.2441
v  248.0315 10.8991 -47.2441
v  248.0315 7.6048 -47.2441
v  263.7795 7.6048 -47.2441
v  248.0315 10.8991 -188.9764
v  248.0315 7.6048 -188.9764
v  263.7795 10.8991 -188.9764
v  263.7795 7.6048 -188.9764
v  303.1496 10.8991 -47.2441
v  287.4016 10.8991 -47.2441
v  287.4016 7.6048 -47.2441
v  303.1496 7.6048 -47.2441
v  287.4016 10.8991 -188.9764
v  287.4016 7.6048 -188.9764
v  303.1496 10.8991 -188.9764
v  303.1496 7.6048 -188.9764
v  342.5197 10.8991 -47.2441
v  326.7717 10.8991 -47.2441
v  326.7717 7.6048 -47.2441
v  342.5197 7.6048 -47.2441
v  326.7717 10.8991 -188.9764
v  326.7717 7.6048 -188.9764
v  342.5197 10.8991 -188.9764
v  342.5197 7.6048 -188.9764
v  -393.7008 9.8425 43.3071
v  -393.7008 -0.0000 0.0000
v  -393.7008 -0.0000 43.3071
v  393.7008 9.8425 192.9134
v  393.7008 -0.0000 236.2205
v  393.7008 -0.0000 192.9134
v  393.7008 -0.0000 43.3071
v  393.7008 0.0000 -0.0000
v  -393.7008 9.8425 192.9134
v  -393.7008 -0.0000 236.2205
v  393.7008 9.8425 43.3071
v  -393.7008 -0.0000 192.9134
v  -393.7008 9.8425 -192.9134
v  -393.7008 0.0000 -236.2205
v  -393.7008 0.0000 -192.9134
v  393.7008 9.8425 -43.3071
v  393.7008 0.0000 -43.3071
v  393.7008 0.0000 -192.9134
v  393.7008 0.0000 -236.2205
v  -393.7008 9.8425 -43.3071
v  393.7008 9.8425 -192.9134
v  -393.7008 0.0000 -43.3071
v  -322.1188 0.0000 -186.9565
v  -322.1188 0.0000 -230.2636
v  -322.1188 9.8425 -37.3502
v  -322.1188 -0.0000 5.9569
v  -322.1188 9.8425 -186.9565
v  -322.1188 0.0000 -37.3502
v  322.1188 -0.0000 191.0016
v  322.1188 -0.0000 41.4038
v  250.5368 -0.0000 178.9867
v  250.5368 -0.0000 29.4086
v  178.9549 -0.0000 158.0151
v  178.9549 -0.0000 8.4482
v  107.3730 -0.0000 130.4979
v  107.3729 0.0000 -19.0706
v  35.7910 -0.0000 98.8416
v  35.7910 0.0000 -50.7360
v  -35.7910 -0.0000 65.4504
v  -35.7910 0.0000 -84.1461
v  -107.3729 -0.0000 32.7279
v  -107.3729 0.0000 -116.8963
v  -178.9549 -0.0000 3.0791
v  -178.9549 0.0000 -146.5378
v  -250.5368 0.0000 -21.0872
v  -250.5368 0.0000 -170.6939
v  322.1188 -0.0000 234.3073
v  250.5369 -0.0000 222.2810
v  178.9549 -0.0000 201.3003
v  107.3730 -0.0000 173.7771
v  35.7910 -0.0000 142.1193
v  -35.7910 -0.0000 108.7309
v  -107.3729 -0.0000 76.0150
v  -178.9549 -0.0000 46.3756
v  -250.5368 -0.0000 22.2195
v  322.1188 9.8425 41.4037
v  322.1188 9.8425 191.0016
v  250.5368 9.8425 29.4085
v  250.5368 9.8425 178.9866
v  178.9549 9.8425 8.4480
v  178.9549 9.8425 158.0150
v  107.3729 9.8425 -19.0709
v  107.3730 9.8425 130.4976
v  35.7910 9.8425 -50.7360
v  35.7910 9.8425 98.8413
v  -35.7910 9.8425 -84.1461
v  -35.7910 9.8425 65.4501
v  -107.3729 9.8425 -116.8963
v  -107.3729 9.8425 32.7275
v  -178.9549 9.8425 -146.5378
v  -178.9549 9.8425 3.0786
v  -250.5368 9.8425 -170.6939
v  -250.5368 9.8425 -21.0876
v  322.1188 0.0000 -1.9027
v  250.5368 0.0000 -13.8977
v  178.9549 0.0000 -34.8589
v  107.3729 0.0000 -62.3777
v  35.7910 0.0000 -94.0503
v  -35.7910 0.0000 -127.4630
v  -107.3730 0.0000 -160.1856
v  -178.9549 0.0000 -189.8343
v  -250.5368 0.0000 -214.0006
# 866 vertices

vn -1.0000 0.0000 -0.0000
vn 0.0000 -1.0000 -0.0000
vn 1.0000 0.0000 -0.0000
vn 0.0000 1.0000 0.0000
vn -0.0000 0.0000 -1.0000
vn 0.0000 -0.0000 1.0000
vn -0.0000 0.8683 -0.4960
vn 0.0000 0.8683 0.4960
vn 0.0000 -1.0000 0.0000
vn -0.0000 -1.0000 -0.0000
vn 0.0265 0.0000 -0.9996
vn -0.0829 -0.0000 0.9966
vn -0.0000 -1.0000 0.0000
vn 0.0132 0.8682 -0.4960
vn -0.0412 0.8676 0.4956
vn -0.0132 0.8682 0.4960
vn -0.0828 0.8653 0.4943
vn -0.1437 0.8593 0.4908
vn -0.1873 0.8530 0.4872
vn -0.2143 0.8482 0.4844
vn -0.2255 0.8460 0.4832
vn -0.2212 0.8468 0.4837
vn -0.2013 0.8506 0.4858
vn -0.1651 0.8564 0.4892
vn -0.1120 0.8629 0.4929
vn -0.0265 -0.0000 0.9996
vn -0.1652 -0.0000 0.9863
vn -0.2810 -0.0000 0.9597
vn -0.3588 -0.0000 0.9334
vn -0.4046 -0.0000 0.9145
vn -0.4229 -0.0000 0.9062
vn -0.4159 -0.0000 0.9094
vn -0.3828 -0.0000 0.9238
vn -0.3199 -0.0000 0.9475
vn -0.2216 -0.0000 0.9751
vn 0.0412 0.8676 -0.4956
vn 0.1120 0.8628 -0.4929
vn 0.1651 0.8564 -0.4892
vn 0.2013 0.8506 -0.4858
vn 0.2212 0.8468 -0.4837
vn 0.2255 0.8460 -0.4832
vn 0.2143 0.8482 -0.4844
vn 0.1873 0.8530 -0.4872
vn 0.1437 0.8593 -0.4908
vn 0.0828 0.8653 -0.4943
vn 0.0829 0.0000 -0.9966
vn 0.2216 0.0000 -0.9751
vn 0.3199 0.0000 -0.9475
vn 0.3827 0.0000 -0.9239
vn 0.4159 0.0000 -0.9094
vn 0.4229 0.0000 -0.9062
vn 0.4046 0.0000 -0.9145
vn 0.3588 0.0000 -0.9334
vn 0.2810 0.0000 -0.9597
vn 0.1652 0.0000 -0.9863
vn 0.0000 1.0000 -0.0000
vn -0.0000 1.0000 0.0000
vn 0.3827 -0.0000 -0.9239
vn 0.4159 -0.0000 -0.9094
vn 0.4229 -0.0000 -0.9062
vn 0.4046 -0.0000 -0.9145
vn 0.3588 -0.0000 -0.9334
vn -0.4229 0.0000 0.9062
vn -0.4159 0.0000 0.9094
vn -0.3828 -0.0000 0.9239
vn 0.3828 0.0000 -0.9239
vn -0.4046 0.0000 0.9145
vn -0.3828 0.0000 0.9239
vn 0.3828 -0.0000 -0.9239
vn -1.0000 -0.0000 0.0000
vn 0.0000 0.0000 -1.0000
vn 0.0000 0.9751 0.2216
vn -0.0000 0.9751 -0.2216
vn -0.0184 0.9750 0.2216
vn 0.0184 0.9750 -0.2216
vn 0.0059 0.9751 -0.2216
vn 0.0371 0.9745 -0.2215
vn 0.0648 0.9731 -0.2212
vn 0.0849 0.9716 -0.2208
vn 0.0976 0.9705 -0.2205
vn 0.1029 0.9700 -0.2204
vn 0.1008 0.9702 -0.2205
vn 0.0914 0.9710 -0.2208
vn 0.0746 0.9724 -0.2210
vn 0.0503 0.9739 -0.2213
vn -0.0059 0.9751 0.2216
vn -0.0372 0.9745 0.2215
vn -0.0648 0.9731 0.2212
vn -0.0849 0.9716 0.2209
vn -0.0976 0.9704 0.2207
vn -0.1029 0.9699 0.2206
vn -0.1008 0.9701 0.2206
vn -0.0914 0.9710 0.2208
vn -0.0746 0.9724 0.2210
vn -0.0503 0.9739 0.2213
# 95 vertex normals

vt 0.4715 0.2713 0.0000
vt 0.5215 0.2713 0.0000
vt 0.5215 0.3213 0.0000
vt 0.4715 0.3213 0.0000
vt 0.4661 0.1490 0.0000
vt 0.5161 0.1490 0.0000
vt 0.5161 0.1990 0.0000
vt 0.4661 0.1990 0.0000
vt 0.4715 0.0533 0.0000
vt 0.5215 0.0533 0.0000
vt 0.5215 0.1033 0.0000
vt 0.4715 0.1033 0.0000
# 12 texture coords

g SPW_Urban_RailRoad_04
usemtl SPW_Urban_Road
s 1
f 1/1/1 2/2/1 3/3/1 4/4/1 
f 1/1/1 5/2/1 6/3/1 2/4/1 
s 2
f 7/1/2 6/2/2 8/3/2 9/4/2 
s 1
f 10/1/3 11/2/3 12/3/3 7/4/3 
s 2
f 12/1/2 2/2/2 6/3/2 7/4/2 
f 13/1/4 14/2/4 15/3/4 16/4/4 
s 1
f 13/1/3 16/2/3 17/3/3 18/4/3 
f 18/1/3 17/2/3 11/3/3 10/4/3 
s 4
f 14/1/3 13/2/3 13/3/3 14/4/3 
s off
f 19/1/5 18/2/5 10/3/5 5/4/5 
s 1
f 15/1/1 14/2/1 19/3/1 20/4/1 
f 20/1/1 19/2/1 5/3/1 1/4/1 
f 15/1/1 20/2/1 21/3/1 22/4/1 
s off
f 17/1/6 20/2/6 1/3/6 11/4/6 
f 18/1/2 19/2/2 23/3/2 24/4/2 
s 4
f 13/1/3 18/2/3 18/3/3 13/4/3 
f 19/1/3 14/2/3 14/3/3 19/4/3 
f 18/1/3 19/2/3 19/3/3 18/4/3 
s off
f 25/1/5 26/2/5 24/3/5 23/4/5 
f 19/1/1 14/2/1 25/3/1 23/4/1 
f 13/1/3 18/2/3 24/3/3 26/4/3 
f 14/1/4 13/2/4 26/3/4 25/4/4 
f 27/1/6 22/2/6 21/3/6 28/4/6 
s 2
f 16/1/4 15/2/4 22/3/4 27/4/4 
s off
f 20/1/2 17/2/2 28/3/2 21/4/2 
s 1
f 17/1/3 16/2/3 27/3/3 28/4/3 
s off
f 29/1/5 30/2/5 9/3/5 8/4/5 
s 1
f 6/1/1 5/2/1 29/3/1 8/4/1 
s off
f 5/1/7 10/2/7 30/3/7 29/4/7 
s 1
f 10/1/3 7/2/3 9/3/3 30/4/3 
s off
f 31/1/6 4/2/6 3/3/6 32/4/6 
f 11/1/8 1/2/8 4/3/8 31/4/8 
s 2
f 2/1/2 12/2/2 32/3/2 3/4/2 
s 1
f 12/1/3 11/2/3 31/3/3 32/4/3 
f 33/1/1 34/2/1 35/3/1 36/4/1 
f 33/1/1 37/2/1 38/3/1 34/4/1 
s 2
f 39/1/2 38/2/2 40/3/2 41/4/2 
s 1
f 42/1/3 43/2/3 44/3/3 39/4/3 
s 2
f 44/1/9 34/2/9 38/3/2 39/4/2 
f 45/1/4 46/2/4 47/3/4 48/4/4 
s 1
f 45/1/3 48/2/3 49/3/3 50/4/3 
f 50/1/3 49/2/3 43/3/3 42/4/3 
s 4
f 46/1/3 45/2/3 45/3/3 46/4/3 
s off
f 51/1/5 50/2/5 42/3/5 37/4/5 
s 1
f 47/1/1 46/2/1 51/3/1 52/4/1 
f 52/1/1 51/2/1 37/3/1 33/4/1 
f 47/1/1 52/2/1 53/3/1 54/4/1 
s off
f 49/1/6 52/2/6 33/3/6 43/4/6 
f 50/1/2 51/2/2 55/3/2 56/4/2 
s 4
f 45/1/3 50/2/3 50/3/3 45/4/3 
f 51/1/3 46/2/3 46/3/3 51/4/3 
f 50/1/3 51/2/3 51/3/3 50/4/3 
s off
f 57/1/5 58/2/5 56/3/5 55/4/5 
f 51/1/1 46/2/1 57/3/1 55/4/1 
f 45/1/3 50/2/3 56/3/3 58/4/3 
f 46/1/4 45/2/4 58/3/4 57/4/4 
f 59/1/6 54/2/6 53/3/6 60/4/6 
s 2
f 48/1/4 47/2/4 54/3/4 59/4/4 
s off
f 52/1/9 49/2/9 60/3/9 53/4/9 
s 1
f 49/1/3 48/2/3 59/3/3 60/4/3 
s off
f 61/1/5 62/2/5 41/3/5 40/4/5 
s 1
f 38/1/1 37/2/1 61/3/1 40/4/1 
s off
f 37/1/7 42/2/7 62/3/7 61/4/7 
s 1
f 42/1/3 39/2/3 41/3/3 62/4/3 
s off
f 63/1/6 36/2/6 35/3/6 64/4/6 
f 43/1/8 33/2/8 36/3/8 63/4/8 
s 2
f 34/1/9 44/2/9 64/3/9 35/4/9 
s 1
f 44/1/3 43/2/3 63/3/3 64/4/3 
f 65/1/1 66/2/1 67/3/1 68/4/1 
f 65/1/1 69/2/1 70/3/1 66/4/1 
s 2
f 71/1/2 70/2/2 72/3/2 73/4/2 
s 1
f 74/1/3 75/2/3 76/3/3 71/4/3 
s 2
f 76/1/2 66/2/2 70/3/2 71/4/2 
f 77/1/4 78/2/4 79/3/4 80/4/4 
s 1
f 77/1/3 80/2/3 81/3/3 82/4/3 
f 82/1/3 81/2/3 75/3/3 74/4/3 
s 4
f 78/1/3 77/2/3 77/3/3 78/4/3 
s off
f 83/1/5 82/2/5 74/3/5 69/4/5 
s 1
f 79/1/1 78/2/1 83/3/1 84/4/1 
f 84/1/1 83/2/1 69/3/1 65/4/1 
f 79/1/1 84/2/1 85/3/1 86/4/1 
s off
f 81/1/6 84/2/6 65/3/6 75/4/6 
f 82/1/2 83/2/2 87/3/2 88/4/2 
s 4
f 77/1/3 82/2/3 82/3/3 77/4/3 
f 83/1/3 78/2/3 78/3/3 83/4/3 
f 82/1/3 83/2/3 83/3/3 82/4/3 
s off
f 89/1/5 90/2/5 88/3/5 87/4/5 
f 83/1/1 78/2/1 89/3/1 87/4/1 
f 77/1/3 82/2/3 88/3/3 90/4/3 
f 78/1/4 77/2/4 90/3/4 89/4/4 
f 91/1/6 86/2/6 85/3/6 92/4/6 
s 2
f 80/1/4 79/2/4 86/3/4 91/4/4 
s off
f 84/1/2 81/2/2 92/3/2 85/4/2 
s 1
f 81/1/3 80/2/3 91/3/3 92/4/3 
s off
f 93/1/5 94/2/5 73/3/5 72/4/5 
s 1
f 70/1/1 69/2/1 93/3/1 72/4/1 
s off
f 69/1/7 74/2/7 94/3/7 93/4/7 
s 1
f 74/1/3 71/2/3 73/3/3 94/4/3 
s off
f 95/1/6 68/2/6 67/3/6 96/4/6 
f 75/1/8 65/2/8 68/3/8 95/4/8 
s 2
f 66/1/2 76/2/2 96/3/2 67/4/2 
s 1
f 76/1/3 75/2/3 95/3/3 96/4/3 
f 97/1/1 98/2/1 99/3/1 100/4/1 
f 97/1/1 101/2/1 102/3/1 98/4/1 
s 2
f 103/1/9 102/2/9 104/3/9 105/4/9 
s 1
f 106/1/3 107/2/3 108/3/3 103/4/3 
s 2
f 108/1/2 98/2/2 102/3/9 103/4/9 
f 109/1/4 110/2/4 111/3/4 112/4/4 
s 1
f 109/1/3 112/2/3 113/3/3 114/4/3 
f 114/1/3 113/2/3 107/3/3 106/4/3 
s 4
f 110/1/3 109/2/3 109/3/3 110/4/3 
s off
f 115/1/5 114/2/5 106/3/5 101/4/5 
s 1
f 111/1/1 110/2/1 115/3/1 116/4/1 
f 116/1/1 115/2/1 101/3/1 97/4/1 
f 111/1/1 116/2/1 117/3/1 118/4/1 
s off
f 113/1/6 116/2/6 97/3/6 107/4/6 
f 114/1/9 115/2/9 119/3/9 120/4/9 
s 4
f 109/1/3 114/2/3 114/3/3 109/4/3 
f 115/1/3 110/2/3 110/3/3 115/4/3 
f 114/1/3 115/2/3 115/3/3 114/4/3 
s off
f 121/1/5 122/2/5 120/3/5 119/4/5 
f 115/1/1 110/2/1 121/3/1 119/4/1 
f 109/1/3 114/2/3 120/3/3 122/4/3 
f 110/1/4 109/2/4 122/3/4 121/4/4 
f 123/1/6 118/2/6 117/3/6 124/4/6 
s 2
f 112/1/4 111/2/4 118/3/4 123/4/4 
s off
f 116/1/2 113/2/2 124/3/2 117/4/2 
s 1
f 113/1/3 112/2/3 123/3/3 124/4/3 
s off
f 125/1/5 126/2/5 105/3/5 104/4/5 
s 1
f 102/1/1 101/2/1 125/3/1 104/4/1 
s off
f 101/1/7 106/2/7 126/3/7 125/4/7 
s 1
f 106/1/3 103/2/3 105/3/3 126/4/3 
s off
f 127/1/6 100/2/6 99/3/6 128/4/6 
f 107/1/8 97/2/8 100/3/8 127/4/8 
s 2
f 98/1/2 108/2/2 128/3/2 99/4/2 
s 1
f 108/1/3 107/2/3 127/3/3 128/4/3 
f 65/1/1 66/2/1 67/3/1 68/4/1 
f 65/1/1 69/2/1 70/3/1 66/4/1 
s 2
f 129/1/2 70/2/2 72/3/2 130/4/2 
s 1
f 42/1/3 43/2/3 44/3/3 39/4/3 
s 2
f 131/1/2 66/2/10 70/3/2 129/4/2 
f 132/1/4 78/2/4 79/3/4 133/4/4 
s 1
f 45/1/3 48/2/3 49/3/3 50/4/3 
f 50/1/3 49/2/3 43/3/3 42/4/3 
s 4
f 134/1/3 45/2/3 45/3/3 134/4/3 
s off
f 135/1/11 50/2/11 42/3/11 136/4/11 
s 1
f 79/1/1 78/2/1 83/3/1 84/4/1 
f 84/1/1 83/2/1 69/3/1 65/4/1 
f 79/1/1 84/2/1 85/3/1 86/4/1 
s off
f 137/1/12 84/2/12 65/3/12 138/4/12 
s 1
f 139/1/2 83/2/2 87/3/2 140/4/2 
s 4
f 45/1/3 50/2/3 50/3/3 45/4/3 
f 83/1/3 78/2/3 78/3/3 83/4/3 
f 139/1/3 83/2/3 83/3/3 139/4/3 
s off
f 141/1/11 58/2/11 56/3/11 142/4/11 
f 83/1/1 78/2/1 89/3/1 87/4/1 
f 45/1/3 50/2/3 56/3/3 58/4/3 
s 1
f 134/1/4 45/2/4 58/3/4 141/4/4 
s off
f 143/1/12 86/2/12 85/3/12 144/4/12 
s 2
f 133/1/4 79/2/4 86/3/4 143/4/4 
f 145/1/2 49/2/13 60/3/13 146/4/2 
s 1
f 49/1/3 48/2/3 59/3/3 60/4/3 
s off
f 147/1/11 62/2/11 41/3/11 148/4/11 
s 1
f 70/1/1 69/2/1 93/3/1 72/4/1 
s off
f 136/1/14 42/2/14 62/3/14 147/4/14 
s 1
f 42/1/3 39/2/3 41/3/3 62/4/3 
s off
f 149/1/12 68/2/12 67/3/12 150/4/12 
f 138/1/15 65/2/15 68/3/15 149/4/15 
s 2
f 151/1/2 44/2/13 64/3/13 152/4/2 
s 1
f 44/1/3 43/2/3 63/3/3 64/4/3 
s 2
f 66/1/10 131/2/2 150/3/2 67/4/2 
f 131/1/2 153/2/13 154/3/13 150/4/2 
f 153/1/13 155/2/2 156/3/2 154/4/13 
f 155/1/2 157/2/13 158/3/13 156/4/2 
f 157/1/13 159/2/10 160/3/2 158/4/13 
f 159/1/10 161/2/2 162/3/2 160/4/2 
f 161/1/2 163/2/2 164/3/2 162/4/2 
f 163/1/2 165/2/2 166/3/2 164/4/2 
f 165/1/2 167/2/2 168/3/2 166/4/2 
f 167/1/2 151/2/2 152/3/2 168/4/2 
s off
f 43/1/16 169/2/16 170/3/16 63/4/16 
f 169/1/17 171/2/17 172/3/17 170/4/17 
f 171/1/18 173/2/18 174/3/18 172/4/18 
f 173/1/19 175/2/19 176/3/19 174/4/19 
f 175/1/20 177/2/20 178/3/20 176/4/20 
f 177/1/21 179/2/21 180/3/21 178/4/21 
f 179/1/22 181/2/22 182/3/22 180/4/22 
f 181/1/23 183/2/23 184/3/23 182/4/23 
f 183/1/24 185/2/24 186/3/24 184/4/24 
f 185/1/25 138/2/25 149/3/25 186/4/25 
f 63/1/26 170/2/26 152/3/26 64/4/26 
f 170/1/27 172/2/27 168/3/27 152/4/27 
f 172/1/28 174/2/28 166/3/28 168/4/28 
f 174/1/29 176/2/29 164/3/29 166/4/29 
f 176/1/30 178/2/30 162/3/30 164/4/30 
f 178/1/31 180/2/31 160/3/31 162/4/31 
f 180/1/32 182/2/32 158/3/32 160/4/32 
f 182/1/33 184/2/33 156/3/33 158/4/33 
f 184/1/34 186/2/34 154/3/34 156/4/34 
f 186/1/35 149/2/35 150/3/35 154/4/35 
f 69/1/36 187/2/36 188/3/36 93/4/36 
f 187/1/37 189/2/37 190/3/37 188/4/37 
f 189/1/38 191/2/38 192/3/38 190/4/38 
f 191/1/39 193/2/39 194/3/39 192/4/39 
f 193/1/40 195/2/40 196/3/40 194/4/40 
f 195/1/41 197/2/41 198/3/41 196/4/41 
f 197/1/42 199/2/42 200/3/42 198/4/42 
f 199/1/43 201/2/43 202/3/43 200/4/43 
f 201/1/44 203/2/44 204/3/44 202/4/44 
f 203/1/45 136/2/45 147/3/45 204/4/45 
f 93/1/46 188/2/46 130/3/46 72/4/46 
f 188/1/47 190/2/47 205/3/47 130/4/47 
f 190/1/48 192/2/48 206/3/48 205/4/48 
f 192/1/49 194/2/49 207/3/49 206/4/49 
f 194/1/50 196/2/50 208/3/50 207/4/50 
f 196/1/51 198/2/51 209/3/51 208/4/51 
f 198/1/52 200/2/52 210/3/52 209/4/52 
f 200/1/53 202/2/53 211/3/53 210/4/53 
f 202/1/54 204/2/54 212/3/54 211/4/54 
f 204/1/55 147/2/55 148/3/55 212/4/55 
s 2
f 84/1/2 137/2/2 144/3/2 85/4/2 
f 137/1/2 213/2/13 214/3/13 144/4/2 
f 213/1/13 215/2/2 216/3/2 214/4/13 
f 215/1/2 217/2/13 218/3/13 216/4/2 
f 217/1/13 219/2/2 220/3/2 218/4/13 
f 219/1/2 221/2/2 222/3/2 220/4/2 
f 221/1/2 223/2/2 224/3/2 222/4/2 
f 223/1/2 225/2/2 226/3/2 224/4/2 
f 225/1/2 227/2/2 228/3/2 226/4/2 
f 227/1/2 145/2/2 146/3/2 228/4/2 
f 48/1/4 229/2/4 230/3/4 59/4/4 
f 229/1/4 231/2/4 232/3/4 230/4/4 
f 231/1/4 233/2/56 234/3/57 232/4/4 
f 233/1/56 235/2/57 236/3/57 234/4/57 
s off
f 235/1/56 237/2/56 238/3/56 236/4/56 
f 237/1/56 239/2/56 240/3/56 238/4/56 
s 2
f 239/1/57 241/2/57 242/3/57 240/4/57 
f 241/1/57 243/2/57 244/3/57 242/4/57 
f 243/1/57 245/2/57 246/3/57 244/4/57 
f 245/1/57 133/2/4 143/3/4 246/4/57 
s off
f 59/1/26 230/2/26 146/3/26 60/4/26 
f 230/1/27 232/2/27 228/3/27 146/4/27 
f 232/1/28 234/2/28 226/3/28 228/4/28 
f 234/1/29 236/2/29 224/3/29 226/4/29 
f 236/1/30 238/2/30 222/3/30 224/4/30 
f 238/1/31 240/2/31 220/3/31 222/4/31 
f 240/1/32 242/2/32 218/3/32 220/4/32 
f 242/1/33 244/2/33 216/3/33 218/4/33 
f 244/1/34 246/2/34 214/3/34 216/4/34 
f 246/1/35 143/2/35 144/3/35 214/4/35 
s 1
f 78/1/4 132/2/4 247/3/4 89/4/4 
f 132/1/4 248/2/57 249/3/57 247/4/4 
f 248/1/57 250/2/57 251/3/57 249/4/57 
f 250/1/57 252/2/57 253/3/57 251/4/57 
f 252/1/57 254/2/57 255/3/57 253/4/57 
f 254/1/57 256/2/57 257/3/57 255/4/57 
f 256/1/57 258/2/57 259/3/57 257/4/57 
f 258/1/57 260/2/57 261/3/57 259/4/57 
f 260/1/57 262/2/57 263/3/57 261/4/57 
f 262/1/57 134/2/4 141/3/4 263/4/57 
s off
f 89/1/46 247/2/46 140/3/46 87/4/46 
f 247/1/47 249/2/47 264/3/47 140/4/47 
f 249/1/48 251/2/48 265/3/48 264/4/48 
f 251/1/58 253/2/58 266/3/58 265/4/58 
f 253/1/59 255/2/59 267/3/59 266/4/59 
f 255/1/60 257/2/60 268/3/60 267/4/60 
f 257/1/61 259/2/61 269/3/61 268/4/61 
f 259/1/62 261/2/62 270/3/62 269/4/62 
f 261/1/54 263/2/54 271/3/54 270/4/54 
f 263/1/55 141/2/55 142/3/55 271/4/55 
s 4
f 50/1/3 135/2/3 135/3/3 50/4/3 
f 135/1/3 272/2/3 272/3/3 135/4/3 
f 272/1/3 273/2/3 273/3/3 272/4/3 
f 273/1/3 274/2/3 274/3/3 273/4/3 
f 274/1/3 275/2/3 275/3/3 274/4/3 
f 275/1/3 276/2/3 276/3/3 275/4/3 
f 276/1/3 277/2/3 277/3/3 276/4/3 
f 277/1/3 278/2/3 278/3/3 277/4/3 
f 278/1/3 279/2/3 279/3/3 278/4/3 
f 279/1/3 139/2/3 139/3/3 279/4/3 
s 1
f 50/1/2 135/2/2 142/3/2 56/4/2 
f 135/1/2 272/2/2 271/3/2 142/4/2 
f 272/1/2 273/2/2 270/3/2 271/4/2 
f 273/1/2 274/2/2 269/3/2 270/4/2 
f 274/1/2 275/2/2 268/3/2 269/4/2 
f 275/1/2 276/2/2 267/3/2 268/4/2 
f 276/1/2 277/2/2 266/3/2 267/4/2 
f 277/1/2 278/2/2 265/3/2 266/4/2 
f 278/1/2 279/2/2 264/3/2 265/4/2 
f 279/1/2 139/2/2 140/3/2 264/4/2 
s off
f 49/1/26 145/2/26 169/3/26 43/4/26 
f 145/1/27 227/2/27 171/3/27 169/4/27 
f 227/1/28 225/2/28 173/3/28 171/4/28 
f 225/1/29 223/2/29 175/3/29 173/4/29 
f 223/1/30 221/2/30 177/3/30 175/4/30 
f 221/1/63 219/2/63 179/3/63 177/4/63 
f 219/1/64 217/2/64 181/3/64 179/4/64 
f 217/1/65 215/2/65 183/3/65 181/4/65 
f 215/1/34 213/2/34 185/3/34 183/4/34 
f 213/1/35 137/2/35 138/3/35 185/4/35 
f 83/1/46 139/2/46 187/3/46 69/4/46 
f 139/1/47 279/2/47 189/3/47 187/4/47 
f 279/1/48 278/2/48 191/3/48 189/4/48 
f 278/1/66 277/2/66 193/3/66 191/4/66 
f 277/1/50 276/2/50 195/3/50 193/4/50 
f 276/1/51 275/2/51 197/3/51 195/4/51 
f 275/1/52 274/2/52 199/3/52 197/4/52 
f 274/1/53 273/2/53 201/3/53 199/4/53 
f 273/1/54 272/2/54 203/3/54 201/4/54 
f 272/1/55 135/2/55 136/3/55 203/4/55 
s 4
f 78/1/3 132/2/3 132/3/3 78/4/3 
f 132/1/3 248/2/3 248/3/3 132/4/3 
f 248/1/3 250/2/3 250/3/3 248/4/3 
f 250/1/3 252/2/3 252/3/3 250/4/3 
f 252/1/3 254/2/3 254/3/3 252/4/3 
f 254/1/3 256/2/3 256/3/3 254/4/3 
f 256/1/3 258/2/3 258/3/3 256/4/3 
f 258/1/3 260/2/3 260/3/3 258/4/3 
f 260/1/3 262/2/3 262/3/3 260/4/3 
f 262/1/3 134/2/3 134/3/3 262/4/3 
s 2
f 45/1/4 134/2/4 229/3/4 48/4/4 
f 134/1/4 262/2/4 231/3/4 229/4/4 
f 262/1/4 260/2/56 233/3/56 231/4/4 
f 260/1/56 258/2/57 235/3/57 233/4/56 
f 258/1/57 256/2/57 237/3/57 235/4/57 
f 256/1/57 254/2/57 239/3/57 237/4/57 
f 254/1/57 252/2/57 241/3/57 239/4/57 
f 252/1/57 250/2/57 243/3/57 241/4/57 
f 250/1/57 248/2/57 245/3/57 243/4/57 
f 248/1/57 132/2/4 133/3/4 245/4/57 
f 44/1/13 151/2/2 280/3/2 39/4/2 
f 151/1/2 167/2/2 281/3/2 280/4/2 
f 167/1/2 165/2/2 282/3/2 281/4/2 
f 165/1/2 163/2/2 283/3/2 282/4/2 
f 163/1/2 161/2/2 284/3/2 283/4/2 
f 161/1/2 159/2/10 285/3/10 284/4/2 
f 159/1/10 157/2/13 286/3/2 285/4/10 
f 157/1/13 155/2/2 287/3/2 286/4/2 
f 155/1/2 153/2/13 288/3/2 287/4/2 
f 153/1/13 131/2/2 129/3/2 288/4/2 
f 39/1/2 280/2/2 148/3/2 41/4/2 
f 280/1/2 281/2/2 212/3/2 148/4/2 
f 281/1/2 282/2/2 211/3/2 212/4/2 
f 282/1/2 283/2/2 210/3/2 211/4/2 
f 283/1/2 284/2/2 209/3/2 210/4/2 
f 284/1/2 285/2/10 208/3/2 209/4/2 
f 285/1/10 286/2/2 207/3/2 208/4/2 
f 286/1/2 287/2/2 206/3/2 207/4/2 
f 287/1/2 288/2/2 205/3/2 206/4/2 
f 288/1/2 129/2/2 130/3/2 205/4/2 
s 1
f 289/1/1 290/2/1 291/3/1 292/4/1 
f 289/1/1 293/2/1 294/3/1 290/4/1 
s 2
f 295/1/2 294/2/13 296/3/13 297/4/2 
s 1
f 298/1/3 299/2/3 300/3/3 301/4/3 
s 2
f 302/1/2 290/2/2 294/3/13 295/4/2 
f 303/1/4 304/2/4 305/3/4 306/4/4 
s 1
f 307/1/3 308/2/3 309/3/3 310/4/3 
f 310/1/3 309/2/3 299/3/3 298/4/3 
s 4
f 311/1/3 307/2/3 307/3/3 311/4/3 
s off
f 312/1/11 310/2/11 298/3/11 313/4/11 
s 1
f 305/1/1 304/2/1 314/3/1 315/4/1 
f 315/1/1 314/2/1 293/3/1 289/4/1 
f 305/1/1 315/2/1 316/3/1 317/4/1 
s off
f 318/1/12 315/2/12 289/3/12 319/4/12 
s 1
f 320/1/2 314/2/13 321/3/13 322/4/2 
s 4
f 307/1/3 310/2/3 310/3/3 307/4/3 
f 314/1/3 304/2/3 304/3/3 314/4/3 
f 320/1/3 314/2/3 314/3/3 320/4/3 
s off
f 323/1/11 324/2/11 325/3/11 326/4/11 
f 314/1/1 304/2/1 327/3/1 321/4/1 
f 307/1/3 310/2/3 325/3/3 324/4/3 
s 1
f 311/1/4 307/2/4 324/3/4 323/4/4 
s off
f 328/1/12 317/2/12 316/3/12 329/4/12 
s 2
f 306/1/4 305/2/4 317/3/4 328/4/4 
f 330/1/13 309/2/2 331/3/2 332/4/13 
s 1
f 309/1/3 308/2/3 333/3/3 331/4/3 
s off
f 334/1/11 335/2/11 336/3/11 337/4/11 
s 1
f 294/1/1 293/2/1 338/3/1 296/4/1 
s off
f 313/1/14 298/2/14 335/3/14 334/4/14 
s 1
f 298/1/3 301/2/3 336/3/3 335/4/3 
s off
f 339/1/12 292/2/12 291/3/12 340/4/12 
f 319/1/15 289/2/15 292/3/15 339/4/15 
s 2
f 341/1/13 300/2/2 342/3/2 343/4/13 
s 1
f 300/1/3 299/2/3 344/3/3 342/4/3 
s 2
f 290/1/2 302/2/2 340/3/2 291/4/2 
f 302/1/2 345/2/10 346/3/2 340/4/2 
f 345/1/10 347/2/13 348/3/13 346/4/2 
f 347/1/13 349/2/10 350/3/2 348/4/13 
f 349/1/10 351/2/2 352/3/2 350/4/2 
f 351/1/2 353/2/2 354/3/2 352/4/2 
f 353/1/2 355/2/2 356/3/2 354/4/2 
f 355/1/2 357/2/2 358/3/2 356/4/2 
f 357/1/2 359/2/2 360/3/2 358/4/2 
f 359/1/2 341/2/13 343/3/13 360/4/2 
s off
f 299/1/16 361/2/16 362/3/16 344/4/16 
f 361/1/17 363/2/17 364/3/17 362/4/17 
f 363/1/18 365/2/18 366/3/18 364/4/18 
f 365/1/19 367/2/19 368/3/19 366/4/19 
f 367/1/20 369/2/20 370/3/20 368/4/20 
f 369/1/21 371/2/21 372/3/21 370/4/21 
f 371/1/22 373/2/22 374/3/22 372/4/22 
f 373/1/23 375/2/23 376/3/23 374/4/23 
f 375/1/24 377/2/24 378/3/24 376/4/24 
f 377/1/25 319/2/25 339/3/25 378/4/25 
f 344/1/26 362/2/26 343/3/26 342/4/26 
f 362/1/27 364/2/27 360/3/27 343/4/27 
f 364/1/28 366/2/28 358/3/28 360/4/28 
f 366/1/29 368/2/29 356/3/29 358/4/29 
f 368/1/30 370/2/30 354/3/30 356/4/30 
f 370/1/31 372/2/31 352/3/31 354/4/31 
f 372/1/32 374/2/32 350/3/32 352/4/32 
f 374/1/33 376/2/33 348/3/33 350/4/33 
f 376/1/34 378/2/34 346/3/34 348/4/34 
f 378/1/35 339/2/35 340/3/35 346/4/35 
f 293/1/36 379/2/36 380/3/36 338/4/36 
f 379/1/37 381/2/37 382/3/37 380/4/37 
f 381/1/38 383/2/38 384/3/38 382/4/38 
f 383/1/39 385/2/39 386/3/39 384/4/39 
f 385/1/40 387/2/40 388/3/40 386/4/40 
f 387/1/41 389/2/41 390/3/41 388/4/41 
f 389/1/42 391/2/42 392/3/42 390/4/42 
f 391/1/43 393/2/43 394/3/43 392/4/43 
f 393/1/44 395/2/44 396/3/44 394/4/44 
f 395/1/45 313/2/45 334/3/45 396/4/45 
f 338/1/46 380/2/46 297/3/46 296/4/46 
f 380/1/47 382/2/47 397/3/47 297/4/47 
f 382/1/48 384/2/48 398/3/48 397/4/48 
f 384/1/49 386/2/49 399/3/49 398/4/49 
f 386/1/50 388/2/50 400/3/50 399/4/50 
f 388/1/51 390/2/51 401/3/51 400/4/51 
f 390/1/52 392/2/52 402/3/52 401/4/52 
f 392/1/53 394/2/53 403/3/53 402/4/53 
f 394/1/54 396/2/54 404/3/54 403/4/54 
f 396/1/55 334/2/55 337/3/55 404/4/55 
s 2
f 315/1/2 318/2/2 329/3/2 316/4/2 
f 318/1/2 405/2/2 406/3/2 329/4/2 
f 405/1/2 407/2/13 408/3/13 406/4/2 
f 407/1/13 409/2/2 410/3/2 408/4/13 
f 409/1/2 411/2/2 412/3/2 410/4/2 
f 411/1/2 413/2/2 414/3/2 412/4/2 
f 413/1/2 415/2/2 416/3/2 414/4/2 
f 415/1/2 417/2/2 418/3/2 416/4/2 
f 417/1/2 419/2/2 420/3/2 418/4/2 
f 419/1/2 330/2/13 332/3/13 420/4/2 
f 308/1/4 421/2/4 422/3/4 333/4/4 
f 421/1/4 423/2/4 424/3/4 422/4/4 
f 423/1/4 425/2/57 426/3/57 424/4/4 
f 425/1/57 427/2/57 428/3/57 426/4/57 
f 427/1/57 429/2/56 430/3/57 428/4/57 
f 429/1/56 431/2/57 432/3/57 430/4/57 
f 431/1/57 433/2/57 434/3/57 432/4/57 
f 433/1/57 435/2/57 436/3/57 434/4/57 
f 435/1/57 437/2/57 438/3/57 436/4/57 
f 437/1/57 306/2/4 328/3/4 438/4/57 
s off
f 333/1/26 422/2/26 332/3/26 331/4/26 
f 422/1/27 424/2/27 420/3/27 332/4/27 
f 424/1/28 426/2/28 418/3/28 420/4/28 
f 426/1/29 428/2/29 416/3/29 418/4/29 
f 428/1/67 430/2/67 414/3/67 416/4/67 
f 430/1/31 432/2/31 412/3/31 414/4/31 
f 432/1/32 434/2/32 410/3/32 412/4/32 
f 434/1/33 436/2/33 408/3/33 410/4/33 
f 436/1/34 438/2/34 406/3/34 408/4/34 
f 438/1/35 328/2/35 329/3/35 406/4/35 
s 1
f 304/1/4 303/2/4 439/3/4 327/4/4 
f 303/1/4 440/2/57 441/3/57 439/4/4 
f 440/1/57 442/2/57 443/3/57 441/4/57 
f 442/1/57 444/2/57 445/3/57 443/4/57 
f 444/1/57 446/2/57 447/3/57 445/4/57 
f 446/1/57 448/2/4 449/3/4 447/4/57 
s off
f 448/1/57 450/2/57 451/3/57 449/4/57 
f 450/1/56 452/2/56 453/3/56 451/4/56 
f 452/1/56 454/2/56 455/3/56 453/4/56 
s 1
f 454/1/4 311/2/4 323/3/4 455/4/4 
s off
f 327/1/46 439/2/46 322/3/46 321/4/46 
f 439/1/47 441/2/47 456/3/47 322/4/47 
f 441/1/48 443/2/48 457/3/48 456/4/48 
f 443/1/58 445/2/58 458/3/58 457/4/58 
f 445/1/59 447/2/59 459/3/59 458/4/59 
f 447/1/51 449/2/51 460/3/51 459/4/51 
f 449/1/52 451/2/52 461/3/52 460/4/52 
f 451/1/62 453/2/62 462/3/62 461/4/62 
f 453/1/54 455/2/54 463/3/54 462/4/54 
f 455/1/55 323/2/55 326/3/55 463/4/55 
s 4
f 310/1/3 312/2/3 312/3/3 310/4/3 
f 312/1/3 464/2/3 464/3/3 312/4/3 
f 464/1/3 465/2/3 465/3/3 464/4/3 
f 465/1/3 466/2/3 466/3/3 465/4/3 
f 466/1/3 467/2/3 467/3/3 466/4/3 
f 467/1/3 468/2/3 468/3/3 467/4/3 
f 468/1/3 469/2/3 469/3/3 468/4/3 
f 469/1/3 470/2/3 470/3/3 469/4/3 
f 470/1/3 471/2/3 471/3/3 470/4/3 
f 471/1/3 320/2/3 320/3/3 471/4/3 
s 1
f 310/1/2 312/2/2 326/3/2 325/4/2 
f 312/1/2 464/2/2 463/3/2 326/4/2 
f 464/1/2 465/2/2 462/3/2 463/4/2 
f 465/1/2 466/2/2 461/3/2 462/4/2 
f 466/1/2 467/2/2 460/3/2 461/4/2 
f 467/1/2 468/2/2 459/3/2 460/4/2 
f 468/1/2 469/2/2 458/3/2 459/4/2 
f 469/1/2 470/2/2 457/3/2 458/4/2 
f 470/1/2 471/2/2 456/3/2 457/4/2 
f 471/1/2 320/2/2 322/3/2 456/4/2 
s off
f 309/1/26 330/2/26 361/3/26 299/4/26 
f 330/1/27 419/2/27 363/3/27 361/4/27 
f 419/1/28 417/2/28 365/3/28 363/4/28 
f 417/1/29 415/2/29 367/3/29 365/4/29 
f 415/1/30 413/2/30 369/3/30 367/4/30 
f 413/1/31 411/2/31 371/3/31 369/4/31 
f 411/1/32 409/2/32 373/3/32 371/4/32 
f 409/1/68 407/2/68 375/3/68 373/4/68 
f 407/1/34 405/2/34 377/3/34 375/4/34 
f 405/1/35 318/2/35 319/3/35 377/4/35 
f 314/1/46 320/2/46 379/3/46 293/4/46 
f 320/1/47 471/2/47 381/3/47 379/4/47 
f 471/1/48 470/2/48 383/3/48 381/4/48 
f 470/1/69 469/2/69 385/3/69 383/4/69 
f 469/1/59 468/2/59 387/3/59 385/4/59 
f 468/1/51 467/2/51 389/3/51 387/4/51 
f 467/1/52 466/2/52 391/3/52 389/4/52 
f 466/1/53 465/2/53 393/3/53 391/4/53 
f 465/1/54 464/2/54 395/3/54 393/4/54 
f 464/1/55 312/2/55 313/3/55 395/4/55 
s 4
f 304/1/3 303/2/3 303/3/3 304/4/3 
f 303/1/3 440/2/3 440/3/3 303/4/3 
f 440/1/3 442/2/3 442/3/3 440/4/3 
f 442/1/3 444/2/3 444/3/3 442/4/3 
f 444/1/3 446/2/3 446/3/3 444/4/3 
f 446/1/3 448/2/3 448/3/3 446/4/3 
f 448/1/3 450/2/3 450/3/3 448/4/3 
f 450/1/3 452/2/3 452/3/3 450/4/3 
f 452/1/3 454/2/3 454/3/3 452/4/3 
f 454/1/3 311/2/3 311/3/3 454/4/3 
s 2
f 307/1/4 311/2/4 421/3/4 308/4/4 
f 311/1/4 454/2/4 423/3/4 421/4/4 
f 454/1/4 452/2/57 425/3/57 423/4/4 
f 452/1/57 450/2/57 427/3/57 425/4/57 
f 450/1/57 448/2/56 429/3/56 427/4/57 
f 448/1/56 446/2/57 431/3/57 429/4/56 
f 446/1/57 444/2/57 433/3/57 431/4/57 
f 444/1/57 442/2/57 435/3/57 433/4/57 
f 442/1/57 440/2/57 437/3/57 435/4/57 
f 440/1/57 303/2/4 306/3/4 437/4/57 
f 300/1/2 341/2/13 472/3/2 301/4/10 
f 341/1/13 359/2/2 473/3/2 472/4/2 
f 359/1/2 357/2/2 474/3/2 473/4/2 
f 357/1/2 355/2/2 475/3/2 474/4/2 
f 355/1/2 353/2/2 476/3/2 475/4/2 
f 353/1/2 351/2/2 477/3/2 476/4/2 
f 351/1/2 349/2/10 478/3/10 477/4/2 
f 349/1/10 347/2/13 479/3/2 478/4/10 
f 347/1/13 345/2/10 480/3/10 479/4/2 
f 345/1/10 302/2/2 295/3/2 480/4/10 
f 301/1/10 472/2/2 337/3/2 336/4/2 
f 472/1/2 473/2/2 404/3/2 337/4/2 
f 473/1/2 474/2/2 403/3/2 404/4/2 
f 474/1/2 475/2/2 402/3/2 403/4/2 
f 475/1/2 476/2/2 401/3/2 402/4/2 
f 476/1/2 477/2/2 400/3/2 401/4/2 
f 477/1/2 478/2/10 399/3/2 400/4/2 
f 478/1/10 479/2/2 398/3/2 399/4/2 
f 479/1/2 480/2/10 397/3/2 398/4/2 
f 480/1/10 295/2/2 297/3/2 397/4/2 
s off
f 481/5/6 482/6/6 483/7/6 484/8/6 
f 482/5/1 485/6/1 486/7/1 483/8/1 
f 485/5/5 487/6/5 488/7/5 486/8/5 
f 487/5/3 481/6/3 484/7/3 488/8/3 
f 484/5/2 483/6/2 486/7/2 488/8/2 
f 487/5/57 485/6/57 482/7/57 481/8/57 
f 489/5/6 490/6/6 491/7/6 492/8/6 
f 490/5/70 493/6/70 494/7/70 491/8/70 
f 493/5/71 495/6/71 496/7/71 494/8/71 
f 495/5/3 489/6/3 492/7/3 496/8/3 
f 492/5/2 491/6/2 494/7/2 496/8/2 
f 495/5/4 493/6/4 490/7/4 489/8/4 
f 497/5/6 498/6/6 499/7/6 500/8/6 
f 498/5/70 501/6/70 502/7/70 499/8/70 
f 501/5/71 503/6/71 504/7/71 502/8/71 
f 503/5/3 497/6/3 500/7/3 504/8/3 
f 500/5/2 499/6/2 502/7/2 504/8/2 
f 503/5/4 501/6/4 498/7/4 497/8/4 
f 505/5/6 506/6/6 507/7/6 508/8/6 
f 506/5/70 509/6/70 510/7/70 507/8/70 
f 509/5/71 511/6/71 512/7/71 510/8/71 
f 511/5/3 505/6/3 508/7/3 512/8/3 
f 508/5/2 507/6/2 510/7/2 512/8/2 
f 511/5/4 509/6/4 506/7/4 505/8/4 
f 513/5/6 514/6/6 515/7/6 516/8/6 
f 514/5/70 517/6/70 518/7/70 515/8/70 
f 517/5/71 519/6/71 520/7/71 518/8/71 
f 519/5/3 513/6/3 516/7/3 520/8/3 
f 516/5/2 515/6/2 518/7/2 520/8/2 
f 519/5/4 517/6/4 514/7/4 513/8/4 
f 521/5/6 522/6/6 523/7/6 524/8/6 
f 522/5/1 525/6/1 526/7/1 523/8/1 
f 525/5/71 527/6/71 528/7/71 526/8/71 
f 527/5/3 521/6/3 524/7/3 528/8/3 
f 524/5/2 523/6/2 526/7/2 528/8/2 
f 527/5/4 525/6/4 522/7/4 521/8/4 
f 529/5/6 530/6/6 531/7/6 532/8/6 
f 530/5/1 533/6/1 534/7/1 531/8/1 
f 533/5/71 535/6/71 536/7/71 534/8/71 
f 535/5/3 529/6/3 532/7/3 536/8/3 
f 532/5/2 531/6/2 534/7/2 536/8/2 
f 535/5/57 533/6/57 530/7/57 529/8/57 
f 537/5/6 538/6/6 539/7/6 540/8/6 
f 538/5/1 541/6/1 542/7/1 539/8/1 
f 541/5/71 543/6/71 544/7/71 542/8/71 
f 543/5/3 537/6/3 540/7/3 544/8/3 
f 540/5/2 539/6/2 542/7/2 544/8/2 
f 543/5/4 541/6/4 538/7/4 537/8/4 
f 545/5/6 546/6/6 547/7/6 548/8/6 
f 546/5/1 549/6/1 550/7/1 547/8/1 
f 549/5/71 551/6/71 552/7/71 550/8/71 
f 551/5/3 545/6/3 548/7/3 552/8/3 
f 548/5/2 547/6/2 550/7/2 552/8/2 
f 551/5/4 549/6/4 546/7/4 545/8/4 
f 553/5/6 554/6/6 555/7/6 556/8/6 
f 554/5/1 557/6/1 558/7/1 555/8/1 
f 557/5/71 559/6/71 560/7/71 558/8/71 
f 559/5/3 553/6/3 556/7/3 560/8/3 
f 556/5/2 555/6/2 558/7/2 560/8/2 
f 559/5/4 557/6/4 554/7/4 553/8/4 
f 561/5/6 562/6/6 563/7/6 564/8/6 
f 562/5/1 565/6/1 566/7/1 563/8/1 
f 565/5/5 567/6/5 568/7/5 566/8/5 
f 567/5/3 561/6/3 564/7/3 568/8/3 
f 564/5/2 563/6/2 566/7/2 568/8/2 
f 567/5/57 565/6/57 562/7/57 561/8/57 
f 569/5/6 570/6/6 571/7/6 572/8/6 
f 570/5/70 573/6/70 574/7/70 571/8/70 
f 573/5/71 575/6/71 576/7/71 574/8/71 
f 575/5/3 569/6/3 572/7/3 576/8/3 
f 572/5/2 571/6/2 574/7/2 576/8/2 
f 575/5/4 573/6/4 570/7/4 569/8/4 
f 577/5/6 578/6/6 579/7/6 580/8/6 
f 578/5/70 581/6/70 582/7/70 579/8/70 
f 581/5/71 583/6/71 584/7/71 582/8/71 
f 583/5/3 577/6/3 580/7/3 584/8/3 
f 580/5/2 579/6/2 582/7/2 584/8/2 
f 583/5/4 581/6/4 578/7/4 577/8/4 
f 585/5/6 586/6/6 587/7/6 588/8/6 
f 586/5/70 589/6/70 590/7/70 587/8/70 
f 589/5/5 591/6/5 592/7/5 590/8/5 
f 591/5/3 585/6/3 588/7/3 592/8/3 
f 588/5/2 587/6/2 590/7/2 592/8/2 
f 591/5/4 589/6/4 586/7/4 585/8/4 
f 593/5/6 594/6/6 595/7/6 596/8/6 
f 594/5/70 597/6/70 598/7/70 595/8/70 
f 597/5/5 599/6/5 600/7/5 598/8/5 
f 599/5/3 593/6/3 596/7/3 600/8/3 
f 596/5/2 595/6/2 598/7/2 600/8/2 
f 599/5/4 597/6/4 594/7/4 593/8/4 
f 601/5/6 602/6/6 603/7/6 604/8/6 
f 602/5/1 605/6/1 606/7/1 603/8/1 
f 605/5/5 607/6/5 608/7/5 606/8/5 
f 607/5/3 601/6/3 604/7/3 608/8/3 
f 604/5/2 603/6/2 606/7/2 608/8/2 
f 607/5/57 605/6/57 602/7/57 601/8/57 
f 609/5/6 610/6/6 611/7/6 612/8/6 
f 610/5/1 613/6/1 614/7/1 611/8/1 
f 613/5/71 615/6/71 616/7/71 614/8/71 
f 615/5/3 609/6/3 612/7/3 616/8/3 
f 612/5/2 611/6/2 614/7/2 616/8/2 
f 615/5/57 613/6/57 610/7/57 609/8/57 
f 617/5/6 618/6/6 619/7/6 620/8/6 
f 618/5/1 621/6/1 622/7/1 619/8/1 
f 621/5/71 623/6/71 624/7/71 622/8/71 
f 623/5/3 617/6/3 620/7/3 624/8/3 
f 620/5/2 619/6/2 622/7/2 624/8/2 
f 623/5/4 621/6/4 618/7/4 617/8/4 
f 625/5/6 626/6/6 627/7/6 628/8/6 
f 626/5/1 629/6/1 630/7/1 627/8/1 
f 629/5/71 631/6/71 632/7/71 630/8/71 
f 631/5/3 625/6/3 628/7/3 632/8/3 
f 628/5/2 627/6/2 630/7/2 632/8/2 
f 631/5/4 629/6/4 626/7/4 625/8/4 
f 633/5/6 634/6/6 635/7/6 636/8/6 
f 634/5/1 637/6/1 638/7/1 635/8/1 
f 637/5/71 639/6/71 640/7/71 638/8/71 
f 639/5/3 633/6/3 636/7/3 640/8/3 
f 636/5/2 635/6/2 638/7/2 640/8/2 
f 639/5/4 637/6/4 634/7/4 633/8/4 
f 641/5/6 642/6/6 643/7/6 644/8/6 
f 642/5/1 645/6/1 646/7/1 643/8/1 
f 645/5/71 647/6/71 648/7/71 646/8/71 
f 647/5/3 641/6/3 644/7/3 648/8/3 
f 644/5/2 643/6/2 646/7/2 648/8/2 
f 647/5/57 645/6/57 642/7/57 641/8/57 
f 649/5/6 650/6/6 651/7/6 652/8/6 
f 650/5/1 653/6/1 654/7/1 651/8/1 
f 653/5/71 655/6/71 656/7/71 654/8/71 
f 655/5/3 649/6/3 652/7/3 656/8/3 
f 652/5/2 651/6/2 654/7/2 656/8/2 
f 655/5/4 653/6/4 650/7/4 649/8/4 
f 657/5/6 658/6/6 659/7/6 660/8/6 
f 658/5/1 661/6/1 662/7/1 659/8/1 
f 661/5/71 663/6/71 664/7/71 662/8/71 
f 663/5/3 657/6/3 660/7/3 664/8/3 
f 660/5/2 659/6/2 662/7/2 664/8/2 
f 663/5/4 661/6/4 658/7/4 657/8/4 
f 665/5/6 666/6/6 667/7/6 668/8/6 
f 666/5/1 669/6/1 670/7/1 667/8/1 
f 669/5/71 671/6/71 672/7/71 670/8/71 
f 671/5/3 665/6/3 668/7/3 672/8/3 
f 668/5/2 667/6/2 670/7/2 672/8/2 
f 671/5/4 669/6/4 666/7/4 665/8/4 
f 673/5/6 674/6/6 675/7/6 676/8/6 
f 674/5/1 677/6/1 678/7/1 675/8/1 
f 677/5/5 679/6/5 680/7/5 678/8/5 
f 679/5/3 673/6/3 676/7/3 680/8/3 
f 676/5/2 675/6/2 678/7/2 680/8/2 
f 679/5/57 677/6/57 674/7/57 673/8/57 
f 681/5/6 682/6/6 683/7/6 684/8/6 
f 682/5/1 685/6/1 686/7/1 683/8/1 
f 685/5/71 687/6/71 688/7/71 686/8/71 
f 687/5/3 681/6/3 684/7/3 688/8/3 
f 684/5/2 683/6/2 686/7/2 688/8/2 
f 687/5/4 685/6/4 682/7/4 681/8/4 
f 689/5/6 690/6/6 691/7/6 692/8/6 
f 690/5/70 693/6/70 694/7/70 691/8/70 
f 693/5/71 695/6/71 696/7/71 694/8/71 
f 695/5/3 689/6/3 692/7/3 696/8/3 
f 692/5/2 691/6/2 694/7/2 696/8/2 
f 695/5/4 693/6/4 690/7/4 689/8/4 
f 697/5/6 698/6/6 699/7/6 700/8/6 
f 698/5/70 701/6/70 702/7/70 699/8/70 
f 701/5/71 703/6/71 704/7/71 702/8/71 
f 703/5/3 697/6/3 700/7/3 704/8/3 
f 700/5/2 699/6/2 702/7/2 704/8/2 
f 703/5/4 701/6/4 698/7/4 697/8/4 
f 705/5/6 706/6/6 707/7/6 708/8/6 
f 706/5/70 709/6/70 710/7/70 707/8/70 
f 709/5/71 711/6/71 712/7/71 710/8/71 
f 711/5/3 705/6/3 708/7/3 712/8/3 
f 708/5/2 707/6/2 710/7/2 712/8/2 
f 711/5/4 709/6/4 706/7/4 705/8/4 
f 713/5/6 714/6/6 715/7/6 716/8/6 
f 714/5/1 717/6/1 718/7/1 715/8/1 
f 717/5/71 719/6/71 720/7/71 718/8/71 
f 719/5/3 713/6/3 716/7/3 720/8/3 
f 716/5/2 715/6/2 718/7/2 720/8/2 
f 719/5/57 717/6/57 714/7/57 713/8/57 
f 721/5/6 722/6/6 723/7/6 724/8/6 
f 722/5/70 725/6/70 726/7/70 723/8/70 
f 725/5/71 727/6/71 728/7/71 726/8/71 
f 727/5/3 721/6/3 724/7/3 728/8/3 
f 724/5/2 723/6/2 726/7/2 728/8/2 
f 727/5/57 725/6/57 722/7/57 721/8/57 
f 729/5/6 730/6/6 731/7/6 732/8/6 
f 730/5/70 733/6/70 734/7/70 731/8/70 
f 733/5/71 735/6/71 736/7/71 734/8/71 
f 735/5/3 729/6/3 732/7/3 736/8/3 
f 732/5/2 731/6/2 734/7/2 736/8/2 
f 735/5/4 733/6/4 730/7/4 729/8/4 
f 737/5/6 738/6/6 739/7/6 740/8/6 
f 738/5/70 741/6/70 742/7/70 739/8/70 
f 741/5/71 743/6/71 744/7/71 742/8/71 
f 743/5/3 737/6/3 740/7/3 744/8/3 
f 740/5/2 739/6/2 742/7/2 744/8/2 
f 743/5/4 741/6/4 738/7/4 737/8/4 
f 745/5/6 746/6/6 747/7/6 748/8/6 
f 746/5/1 749/6/1 750/7/1 747/8/1 
f 749/5/71 751/6/71 752/7/71 750/8/71 
f 751/5/3 745/6/3 748/7/3 752/8/3 
f 748/5/2 747/6/2 750/7/2 752/8/2 
f 751/5/4 749/6/4 746/7/4 745/8/4 
f 753/5/6 754/6/6 755/7/6 756/8/6 
f 754/5/1 757/6/1 758/7/1 755/8/1 
f 757/5/5 759/6/5 760/7/5 758/8/5 
f 759/5/3 753/6/3 756/7/3 760/8/3 
f 756/5/2 755/6/2 758/7/2 760/8/2 
f 759/5/57 757/6/57 754/7/57 753/8/57 
f 761/5/6 762/6/6 763/7/6 764/8/6 
f 762/5/1 765/6/1 766/7/1 763/8/1 
f 765/5/71 767/6/71 768/7/71 766/8/71 
f 767/5/3 761/6/3 764/7/3 768/8/3 
f 764/5/2 763/6/2 766/7/2 768/8/2 
f 767/5/4 765/6/4 762/7/4 761/8/4 
f 769/5/6 770/6/6 771/7/6 772/8/6 
f 770/5/1 773/6/1 774/7/1 771/8/1 
f 773/5/71 775/6/71 776/7/71 774/8/71 
f 775/5/3 769/6/3 772/7/3 776/8/3 
f 772/5/2 771/6/2 774/7/2 776/8/2 
f 775/5/4 773/6/4 770/7/4 769/8/4 
f 777/5/6 778/6/6 779/7/6 780/8/6 
f 778/5/1 781/6/1 782/7/1 779/8/1 
f 781/5/71 783/6/71 784/7/71 782/8/71 
f 783/5/3 777/6/3 780/7/3 784/8/3 
f 780/5/2 779/6/2 782/7/2 784/8/2 
f 783/5/4 781/6/4 778/7/4 777/8/4 
s 1
f 785/9/1 786/10/1 787/11/1 
f 788/9/3 789/10/3 790/11/3 
s 2
f 791/9/2 787/10/2 786/11/2 792/12/10 
s off
f 788/9/72 793/10/72 794/11/72 789/12/72 
f 792/9/73 786/10/73 785/11/73 795/12/73 
f 795/9/57 785/10/57 793/11/57 788/12/57 
s 2
f 789/9/10 794/10/2 796/11/2 790/12/2 
f 790/9/2 796/10/2 787/11/2 791/12/2 
s 1
f 792/9/3 795/10/3 791/11/3 
f 795/9/3 788/10/3 790/11/3 791/12/3 
f 794/9/1 793/10/1 796/11/1 
f 793/9/1 785/10/1 787/11/1 796/12/1 
f 797/9/1 798/10/1 799/11/1 
f 800/9/3 792/10/3 801/11/3 
s 2
f 802/9/2 799/10/2 798/11/10 803/12/2 
s off
f 800/9/72 804/10/72 786/11/72 792/12/72 
f 803/9/73 798/10/73 797/11/73 805/12/73 
f 805/9/57 797/10/57 804/11/57 800/12/57 
s 2
f 792/9/2 786/10/10 806/11/2 801/12/2 
f 801/9/2 806/10/2 799/11/2 802/12/2 
s 1
f 803/9/3 805/10/3 802/11/3 
f 805/9/3 800/10/3 801/11/3 802/12/3 
f 786/9/1 804/10/1 806/11/1 
f 804/9/1 797/10/1 799/11/1 806/12/1 
f 797/9/1 798/10/1 799/11/1 
f 788/9/3 789/10/3 790/11/3 
s 2
f 807/9/10 799/10/10 798/11/10 808/12/10 
s off
f 809/9/74 804/10/74 786/11/74 810/12/74 
f 808/9/75 798/10/75 797/11/75 811/12/75 
s 2
f 811/9/4 797/10/4 804/11/4 809/12/4 
f 810/9/2 786/10/2 806/11/2 812/12/10 
f 812/9/10 806/10/2 799/11/10 807/12/10 
s 1
f 792/9/3 795/10/3 791/11/3 
f 795/9/3 788/10/3 790/11/3 791/12/3 
f 786/9/1 804/10/1 806/11/1 
f 804/9/1 797/10/1 799/11/1 806/12/1 
s 2
f 790/9/2 813/10/10 814/11/2 791/12/2 
f 813/9/10 815/10/10 816/11/2 814/12/2 
f 815/9/10 817/10/10 818/11/2 816/12/2 
f 817/9/10 819/10/2 820/11/10 818/12/2 
f 819/9/2 821/10/10 822/11/10 820/12/10 
f 821/9/10 823/10/2 824/11/10 822/12/10 
f 823/9/2 825/10/2 826/11/2 824/12/10 
f 825/9/2 827/10/10 828/11/10 826/12/2 
f 827/9/10 829/10/10 830/11/2 828/12/10 
f 829/9/10 812/10/10 807/11/10 830/12/2 
f 789/9/2 831/10/10 813/11/10 790/12/2 
f 831/9/10 832/10/10 815/11/10 813/12/10 
f 832/9/10 833/10/10 817/11/10 815/12/10 
f 833/9/10 834/10/2 819/11/2 817/12/10 
f 834/9/2 835/10/10 821/11/10 819/12/2 
f 835/9/10 836/10/2 823/11/2 821/12/10 
f 836/9/2 837/10/2 825/11/2 823/12/2 
f 837/9/2 838/10/10 827/11/10 825/12/2 
f 838/9/10 839/10/10 829/11/10 827/12/10 
f 839/9/10 810/10/2 812/11/10 829/12/10 
f 795/9/4 840/10/57 841/11/4 788/12/4 
f 840/9/57 842/10/57 843/11/4 841/12/4 
f 842/9/57 844/10/4 845/11/57 843/12/4 
f 844/9/4 846/10/4 847/11/4 845/12/57 
f 846/9/4 848/10/57 849/11/57 847/12/4 
f 848/9/57 850/10/57 851/11/57 849/12/57 
f 850/9/57 852/10/57 853/11/4 851/12/57 
f 852/9/57 854/10/57 855/11/4 853/12/4 
f 854/9/57 856/10/4 857/11/57 855/12/4 
f 856/9/4 811/10/4 809/11/4 857/12/57 
s off
f 792/9/76 858/10/76 840/11/76 795/12/76 
f 858/9/77 859/10/77 842/11/77 840/12/77 
f 859/9/78 860/10/78 844/11/78 842/12/78 
f 860/9/79 861/10/79 846/11/79 844/12/79 
f 861/9/80 862/10/80 848/11/80 846/12/80 
f 862/9/81 863/10/81 850/11/81 848/12/81 
f 863/9/82 864/10/82 852/11/82 850/12/82 
f 864/9/83 865/10/83 854/11/83 852/12/83 
f 865/9/84 866/10/84 856/11/84 854/12/84 
f 866/9/85 808/10/85 811/11/85 856/12/85 
f 788/9/86 841/10/86 831/11/86 789/12/86 
f 841/9/87 843/10/87 832/11/87 831/12/87 
f 843/9/88 845/10/88 833/11/88 832/12/88 
f 845/9/89 847/10/89 834/11/89 833/12/89 
f 847/9/90 849/10/90 835/11/90 834/12/90 
f 849/9/91 851/10/91 836/11/91 835/12/91 
f 851/9/92 853/10/92 837/11/92 836/12/92 
f 853/9/93 855/10/93 838/11/93 837/12/93 
f 855/9/94 857/10/94 839/11/94 838/12/94 
f 857/9/95 809/10/95 810/11/95 839/12/95 
s 2
f 791/9/2 814/10/2 858/11/10 792/12/2 
f 814/9/2 816/10/2 859/11/2 858/12/10 
f 816/9/2 818/10/2 860/11/2 859/12/2 
f 818/9/2 820/10/10 861/11/10 860/12/2 
f 820/9/10 822/10/10 862/11/2 861/12/10 
f 822/9/10 824/10/10 863/11/10 862/12/2 
f 824/9/10 826/10/2 864/11/2 863/12/10 
f 826/9/2 828/10/10 865/11/10 864/12/2 
f 828/9/10 830/10/2 866/11/2 865/12/10 
f 830/9/2 807/10/10 808/11/10 866/12/2 
# 876 polygons - 12 triangles

