# 3ds Max Wavefront OBJ Exporter v0.97b - (c)2007 guruware
# File Created: 15.03.2017 11:38:16

mtllib SPW_Urban_Road 4way_Intersection.mtl

#
# object SPW_Urban_Road_4way_Intersection
#

v  787.4016 7.8739 787.4016
v  669.2913 7.8739 787.4016
v  669.2913 -0.0001 787.4016
v  787.4016 -0.0001 787.4016
v  669.2913 7.8739 669.2913
v  669.2913 -0.0001 669.2913
v  787.4016 7.8739 669.2913
v  787.4016 -0.0001 669.2913
v  -669.2915 7.8739 787.4017
v  -787.4017 7.8739 787.4017
v  -787.4017 -0.0001 787.4017
v  -669.2915 -0.0001 787.4017
v  -787.4017 7.8739 669.2914
v  -787.4017 -0.0001 669.2914
v  -669.2915 7.8739 669.2914
v  -669.2915 -0.0001 669.2914
v  -669.2915 7.8741 -669.2915
v  -787.4017 7.8741 -669.2915
v  -787.4017 0.0001 -669.2915
v  -669.2915 0.0001 -669.2915
v  -787.4017 7.8741 -787.4017
v  -787.4017 0.0001 -787.4017
v  -669.2915 7.8741 -787.4017
v  -669.2915 0.0001 -787.4017
v  787.4017 7.8741 -669.2915
v  669.2914 7.8741 -669.2915
v  669.2914 0.0001 -669.2915
v  787.4017 0.0001 -669.2915
v  669.2914 7.8741 -787.4017
v  669.2914 0.0001 -787.4017
v  787.4017 7.8741 -787.4017
v  787.4017 0.0001 -787.4017
v  787.4016 -0.0001 657.4803
v  657.4803 -0.0001 657.4803
v  657.4803 -0.0001 787.4016
v  645.6694 -0.0001 616.1417
v  645.6694 -0.0001 586.6142
v  375.5907 -0.0001 645.6693
v  783.4647 -0.0001 616.1418
v  406.2009 -0.0001 645.6693
v  435.7285 -0.0001 645.6693
v  466.3387 -0.0001 645.6693
v  495.8663 -0.0001 645.6693
v  526.4766 -0.0001 645.6693
v  556.0042 -0.0001 645.6693
v  586.6143 -0.0001 645.6693
v  616.1418 -0.0001 645.6693
v  645.6694 -0.0001 645.6693
v  787.4016 -0.0001 645.6694
v  526.4766 0.0001 -645.6692
v  526.4766 0.0001 -783.4645
v  495.8663 0.0001 -783.4645
v  495.8663 0.0001 -645.6692
v  466.3387 0.0001 -645.6692
v  466.3388 0.0001 -783.4645
v  435.7285 0.0001 -783.4647
v  435.7285 0.0001 -645.6694
v  406.2009 0.0001 -645.6694
v  406.2010 0.0001 -783.4647
v  375.5907 0.0001 -783.4647
v  375.5906 0.0001 -645.6694
v  346.0631 0.0001 -645.6694
v  346.0631 0.0001 -783.4647
v  315.4529 0.0001 -783.4647
v  315.4528 0.0001 -645.6694
v  285.9253 0.0001 -645.6694
v  285.9253 0.0001 -783.4647
v  255.3151 0.0001 -783.4647
v  255.3151 0.0001 -645.6694
v  225.7875 0.0001 -645.6694
v  225.7875 0.0001 -783.4647
v  195.1773 0.0001 -783.4647
v  195.1773 0.0001 -645.6694
v  165.6497 0.0001 -645.6694
v  135.0395 0.0001 -645.6694
v  645.6694 -0.0001 466.3386
v  556.0041 0.0001 -645.6692
v  586.6143 0.0001 -645.6694
v  616.1418 0.0001 -645.6694
v  783.4647 -0.0001 466.3386
v  783.4647 -0.0001 435.7284
v  645.6694 -0.0001 435.7284
v  645.6694 -0.0000 406.2008
v  783.4647 -0.0000 406.2008
v  783.4647 -0.0000 375.5905
v  645.6694 -0.0000 375.5905
v  645.6694 -0.0000 346.0630
v  783.4647 -0.0000 346.0630
v  783.4647 -0.0000 315.4528
v  645.6694 -0.0000 315.4528
v  645.6694 -0.0000 285.9252
v  783.4647 -0.0000 285.9252
v  783.4647 -0.0000 255.3150
v  645.6694 -0.0000 255.3150
v  645.6694 -0.0000 225.7874
v  783.4647 -0.0000 225.7874
v  783.4647 -0.0000 195.1772
v  645.6694 -0.0000 195.1772
v  645.6694 -0.0000 165.6496
v  783.4647 -0.0000 165.6496
v  783.4647 -0.0000 135.0394
v  645.6694 -0.0000 135.0394
v  645.6694 -0.0000 105.5118
v  783.4647 -0.0000 105.5118
v  783.4647 -0.0000 74.9016
v  645.6694 -0.0000 74.9016
v  645.6694 -0.0000 45.3741
v  783.4647 -0.0000 45.3740
v  783.4647 -0.0000 14.7638
v  645.6694 -0.0000 14.7638
v  645.6694 0.0000 -14.7638
v  645.6695 0.0001 -586.6141
v  645.6695 0.0001 -616.1418
v  645.6694 0.0001 -645.6692
v  787.4016 0.0001 -645.6692
v  783.4648 0.0001 -616.1418
v  783.4648 0.0001 -586.6141
v  783.4648 0.0001 -556.0040
v  783.4648 0.0001 -526.4764
v  783.4648 0.0001 -495.8661
v  783.4647 0.0001 -466.3386
v  645.6695 0.0001 -466.3386
v  645.6695 0.0001 -435.7284
v  783.4647 0.0001 -435.7284
v  783.4647 0.0000 -406.2009
v  783.4647 0.0000 -375.5905
v  783.4647 0.0000 -346.0630
v  783.4647 0.0000 -315.4528
v  783.4647 0.0000 -285.9252
v  783.4647 0.0000 -255.3150
v  783.4647 0.0000 -225.7875
v  783.4647 0.0000 -195.1772
v  783.4647 0.0000 -165.6496
v  783.4647 0.0000 -135.0394
v  783.4647 0.0000 -105.5118
v  783.4647 0.0000 -74.9015
v  783.4647 0.0000 -45.3741
v  645.6695 0.0000 -315.4528
v  645.6695 0.0000 -346.0630
v  645.6695 0.0000 -285.9251
v  645.6695 0.0000 -225.7874
v  645.6695 0.0000 -375.5905
v  645.6695 0.0000 -406.2009
v  645.6695 0.0001 -495.8661
v  645.6695 0.0001 -526.4764
v  645.6695 0.0001 -556.0040
v  645.6695 0.0000 -45.3740
v  783.4647 0.0000 -14.7638
v  645.6695 0.0000 -74.9015
v  645.6695 0.0000 -105.5118
v  645.6695 0.0000 -165.6496
v  645.6695 0.0000 -135.0393
v  645.6695 0.0000 -195.1772
v  645.6695 0.0000 -255.3150
v  105.5119 0.0001 -645.6694
v  105.5119 0.0001 -783.4647
v  74.9017 0.0001 -783.4647
v  74.9016 0.0001 -645.6694
v  45.3741 0.0001 -645.6694
v  45.3741 0.0001 -783.4647
v  14.7640 0.0001 -783.4647
v  14.7639 0.0001 -645.6692
v  -74.9015 0.0001 -645.6695
v  -74.9014 0.0001 -783.4648
v  -105.5117 0.0001 -783.4648
v  -105.5118 0.0001 -645.6695
v  -135.0393 0.0001 -645.6695
v  -135.0392 0.0001 -783.4648
v  -165.6494 0.0001 -783.4648
v  -165.6495 0.0001 -645.6695
v  -195.1772 0.0001 -645.6695
v  -195.1771 0.0001 -783.4648
v  -225.7872 0.0001 -783.4648
v  -225.7873 0.0001 -645.6695
v  -255.3150 0.0001 -645.6695
v  -255.3149 0.0001 -783.4648
v  -285.9251 0.0001 -783.4648
v  -285.9252 0.0001 -645.6695
v  -315.4527 0.0001 -645.6694
v  -315.4526 0.0001 -783.4648
v  -346.0628 0.0001 -783.4648
v  -346.0629 0.0001 -645.6694
v  -375.5905 0.0001 -645.6694
v  -375.5904 0.0001 -783.4648
v  -406.2007 0.0001 -783.4645
v  -406.2008 0.0001 -645.6694
v  -435.7284 0.0001 -645.6694
v  -435.7283 0.0001 -783.4645
v  -466.3385 0.0001 -783.4645
v  -466.3386 0.0001 -645.6694
v  -495.8661 0.0001 -645.6694
v  -495.8660 0.0001 -783.4645
v  -526.4763 0.0001 -783.4645
v  -526.4763 0.0001 -645.6694
v  -45.3739 0.0001 -645.6694
v  -14.7637 0.0001 -645.6692
v  645.6694 -0.0001 556.0040
v  645.6694 -0.0001 526.4764
v  315.4529 -0.0001 645.6693
v  346.0631 -0.0001 645.6693
v  783.4647 -0.0001 586.6142
v  783.4647 -0.0001 556.0041
v  783.4647 -0.0001 495.8663
v  783.4647 -0.0001 526.4765
v  645.6694 -0.0001 495.8661
v  -346.0629 -0.0001 645.6692
v  -346.0629 -0.0001 783.4645
v  -315.4527 -0.0001 783.4645
v  -315.4527 -0.0001 645.6692
v  -285.9251 -0.0001 645.6692
v  -285.9251 -0.0001 783.4645
v  -255.3149 -0.0001 783.4645
v  -255.3149 -0.0001 645.6692
v  -225.7873 -0.0001 645.6692
v  -225.7873 -0.0001 783.4645
v  -195.1772 -0.0001 783.4645
v  -195.1772 -0.0001 645.6692
v  -165.6495 -0.0001 645.6692
v  -165.6495 -0.0001 783.4645
v  -135.0393 -0.0001 783.4645
v  -135.0393 -0.0001 645.6692
v  -105.5117 -0.0001 645.6692
v  -105.5117 -0.0001 783.4645
v  -74.9015 -0.0001 783.4645
v  -74.9015 -0.0001 645.6693
v  -45.3740 -0.0001 645.6693
v  -45.3739 -0.0001 783.4645
v  -14.7637 -0.0001 783.4645
v  -14.7638 -0.0001 645.6693
v  14.7639 -0.0001 645.6693
v  14.7639 -0.0001 783.4645
v  45.3741 -0.0001 783.4645
v  45.3741 -0.0001 645.6693
v  74.9017 -0.0001 645.6693
v  74.9017 -0.0001 783.4645
v  105.5119 -0.0001 783.4645
v  105.5120 -0.0001 645.6693
v  135.0395 -0.0001 645.6693
v  135.0395 -0.0001 783.4645
v  165.6497 -0.0001 783.4645
v  165.6497 -0.0001 645.6693
v  285.9254 -0.0001 645.6693
v  255.3151 -0.0001 645.6693
v  225.7875 -0.0001 645.6693
v  195.1773 -0.0001 645.6693
v  -787.4016 -0.0001 645.6692
v  -645.6692 -0.0001 645.6692
v  -645.6692 -0.0001 616.1418
v  -783.4645 -0.0001 616.1417
v  -783.4645 -0.0001 586.6141
v  -783.4645 -0.0001 556.0040
v  -645.6692 -0.0001 586.6141
v  -645.6692 -0.0001 556.0040
v  -783.4645 -0.0001 526.4764
v  -783.4645 -0.0001 495.8661
v  -645.6692 -0.0001 526.4765
v  -645.6692 -0.0001 495.8661
v  -783.4647 -0.0001 466.3386
v  -783.4645 -0.0001 435.7284
v  -645.6692 -0.0001 466.3386
v  -645.6692 -0.0001 435.7284
v  -783.4645 -0.0000 406.2008
v  -783.4645 -0.0000 375.5905
v  -645.6692 -0.0000 406.2009
v  -645.6692 -0.0000 375.5905
v  -783.4645 -0.0000 346.0630
v  -783.4645 -0.0000 315.4528
v  -645.6692 -0.0000 346.0630
v  -645.6692 -0.0000 315.4528
v  -783.4645 -0.0000 285.9252
v  -783.4645 -0.0000 255.3150
v  -645.6692 -0.0000 285.9252
v  -645.6692 -0.0000 255.3150
v  -783.4645 -0.0000 225.7875
v  -783.4645 -0.0000 195.1772
v  -645.6692 -0.0000 225.7874
v  -645.6692 -0.0000 195.1772
v  -783.4645 -0.0000 165.6496
v  -783.4645 -0.0000 135.0394
v  -645.6692 -0.0000 165.6496
v  -645.6692 -0.0000 135.0394
v  -783.4645 -0.0000 105.5118
v  -783.4645 -0.0000 74.9015
v  -645.6692 -0.0000 105.5118
v  -645.6692 -0.0000 74.9016
v  -783.4645 -0.0000 45.3740
v  -783.4647 -0.0000 14.7637
v  -645.6692 -0.0000 45.3740
v  -645.6692 -0.0000 14.7638
v  -783.4647 0.0000 -14.7638
v  -783.4645 0.0000 -45.3740
v  -783.4644 0.0000 -74.9016
v  -783.4644 0.0000 -105.5119
v  -645.6691 0.0000 -74.9016
v  -645.6691 0.0000 -105.5118
v  -783.4644 0.0000 -135.0394
v  -783.4644 0.0000 -165.6497
v  -645.6691 0.0000 -135.0394
v  -645.6691 0.0000 -165.6496
v  -783.4644 0.0000 -195.1772
v  -783.4644 0.0000 -225.7875
v  -645.6691 0.0000 -195.1772
v  -645.6691 0.0000 -225.7875
v  -783.4645 0.0000 -255.3150
v  -783.4645 0.0000 -285.9252
v  -645.6691 0.0000 -255.3150
v  -645.6691 0.0000 -285.9252
v  -783.4645 0.0000 -315.4528
v  -783.4645 0.0000 -346.0631
v  -645.6691 0.0000 -315.4528
v  -645.6692 0.0000 -346.0630
v  -783.4645 0.0000 -375.5905
v  -783.4645 0.0000 -406.2010
v  -645.6692 0.0000 -375.5905
v  -645.6692 0.0000 -406.2009
v  -783.4645 0.0001 -435.7285
v  -783.4645 0.0001 -466.3387
v  -645.6692 0.0001 -435.7284
v  -645.6692 0.0001 -466.3386
v  -783.4645 0.0001 -495.8663
v  -783.4645 0.0001 -526.4765
v  -645.6692 0.0001 -495.8661
v  -645.6692 0.0001 -526.4764
v  -787.4016 0.0001 -645.6694
v  -586.6141 0.0001 -783.4645
v  -586.6141 0.0001 -645.6694
v  -556.0039 0.0001 -645.6694
v  -556.0039 0.0001 -783.4645
v  -45.3739 0.0001 -783.4647
v  -14.7637 0.0001 -783.4647
v  135.0395 0.0001 -783.4647
v  165.6497 0.0001 -783.4647
v  556.0041 0.0001 -783.4647
v  586.6143 0.0001 -783.4647
v  616.1418 0.0001 -783.4647
v  645.6694 0.0001 -787.4016
v  -616.1417 0.0001 -783.4647
v  -645.6691 0.0001 -787.4016
v  -783.4645 0.0001 -556.0041
v  -783.4645 0.0001 -586.6142
v  -783.4644 0.0001 -616.1419
v  -645.6691 0.0001 -616.1419
v  -645.6691 0.0001 -645.6694
v  -645.6692 0.0001 -556.0041
v  -645.6692 0.0001 -586.6142
v  645.6693 -0.0001 787.4016
v  616.1418 -0.0001 783.4645
v  -645.6692 -0.0001 787.4016
v  586.6143 -0.0001 783.4645
v  556.0040 -0.0001 783.4645
v  526.4765 -0.0001 783.4645
v  495.8662 -0.0001 783.4645
v  466.3387 -0.0001 783.4645
v  435.7284 -0.0001 783.4645
v  406.2009 -0.0001 783.4645
v  375.5906 -0.0001 783.4645
v  346.0631 -0.0001 783.4645
v  315.4529 -0.0001 783.4645
v  285.9253 -0.0001 783.4645
v  255.3151 -0.0001 783.4645
v  225.7875 -0.0001 783.4645
v  195.1773 -0.0001 783.4645
v  -375.5905 -0.0001 783.4645
v  -406.2008 -0.0001 783.4645
v  -435.7283 -0.0001 783.4645
v  -466.3385 -0.0001 783.4645
v  -495.8661 -0.0001 783.4644
v  -526.4763 -0.0001 783.4644
v  -556.0040 -0.0001 783.4644
v  -586.6141 -0.0001 783.4644
v  -616.1418 -0.0001 783.4644
v  -616.1418 -0.0001 645.6692
v  -586.6141 -0.0001 645.6692
v  -616.1417 0.0001 -645.6695
v  -645.6692 0.0000 -45.3741
v  -645.6692 0.0000 -14.7638
v  -556.0040 -0.0001 645.6692
v  -526.4763 -0.0001 645.6692
v  -495.8661 -0.0001 645.6692
v  -466.3385 -0.0001 645.6692
v  -435.7283 -0.0001 645.6692
v  -406.2008 -0.0001 645.6692
v  -375.5905 -0.0001 645.6692
v  787.4016 0.0001 -657.4802
v  787.4016 0.0001 -787.4016
v  657.4804 0.0001 -787.4016
v  657.4804 0.0001 -657.4802
v  -657.4800 0.0001 -787.4016
v  -787.4016 0.0001 -787.4016
v  -787.4016 0.0001 -657.4803
v  -657.4800 0.0001 -657.4803
v  -787.4016 -0.0001 657.4802
v  -787.4016 -0.0001 787.4016
v  -657.4802 -0.0001 787.4016
v  -657.4802 -0.0001 657.4803
# 395 vertices

vn 0.0000 -0.0000 1.0000
vn -1.0000 0.0000 -0.0000
vn 0.0000 0.0000 -1.0000
vn 1.0000 0.0000 -0.0000
vn 0.0000 -1.0000 -0.0000
vn 0.0000 1.0000 0.0000
vn -0.0000 1.0000 0.0000
vn -0.0001 1.0000 0.0000
vn 0.7071 0.7071 0.0000
vn -0.7071 0.7071 0.0000
vn 0.0001 1.0000 0.0000
vn -0.7070 0.7072 0.0000
vn 0.7070 0.7072 0.0000
vn -0.2832 0.9591 0.0000
# 14 vertex normals

vt 0.2314 0.8712 0.0000
vt 0.2314 0.8749 0.0000
vt 0.2351 0.8749 0.0000
vt 0.2351 0.8712 0.0000
vt 0.2314 0.9174 0.0000
vt 0.2314 0.9212 0.0000
vt 0.2351 0.9212 0.0000
vt 0.2351 0.9174 0.0000
vt 0.2776 0.9174 0.0000
vt 0.2776 0.9212 0.0000
vt 0.2814 0.9212 0.0000
vt 0.2814 0.9174 0.0000
vt 0.2776 0.8712 0.0000
vt 0.2776 0.8749 0.0000
vt 0.2814 0.8749 0.0000
vt 0.2814 0.8712 0.0000
vt 0.3741 0.8786 0.0000
vt 0.3782 0.8786 0.0000
vt 0.3782 0.8827 0.0000
vt 0.3741 0.8827 0.0000
vt 0.3795 0.8831 0.0000
vt 0.3805 0.8831 0.0000
vt 0.3786 0.8916 0.0000
vt 0.3795 0.8787 0.0000
vt 0.3786 0.8907 0.0000
vt 0.3786 0.8897 0.0000
vt 0.3786 0.8888 0.0000
vt 0.3786 0.8878 0.0000
vt 0.3786 0.8869 0.0000
vt 0.3786 0.8859 0.0000
vt 0.3786 0.8849 0.0000
vt 0.3786 0.8840 0.0000
vt 0.3786 0.8831 0.0000
vt 0.3786 0.8786 0.0000
vt 0.4196 0.8869 0.0000
vt 0.4240 0.8869 0.0000
vt 0.4240 0.8878 0.0000
vt 0.4196 0.8878 0.0000
vt 0.4196 0.8888 0.0000
vt 0.4240 0.8888 0.0000
vt 0.4240 0.8897 0.0000
vt 0.4196 0.8897 0.0000
vt 0.4196 0.8907 0.0000
vt 0.4240 0.8907 0.0000
vt 0.4240 0.8916 0.0000
vt 0.4196 0.8916 0.0000
vt 0.4196 0.8926 0.0000
vt 0.4240 0.8926 0.0000
vt 0.4240 0.8936 0.0000
vt 0.4196 0.8936 0.0000
vt 0.4196 0.8945 0.0000
vt 0.4240 0.8945 0.0000
vt 0.4240 0.8955 0.0000
vt 0.4196 0.8955 0.0000
vt 0.4196 0.8964 0.0000
vt 0.4240 0.8964 0.0000
vt 0.4240 0.8974 0.0000
vt 0.4196 0.8974 0.0000
vt 0.4196 0.8983 0.0000
vt 0.4196 0.8993 0.0000
vt 0.3843 0.8831 0.0000
vt 0.4196 0.8859 0.0000
vt 0.4196 0.8849 0.0000
vt 0.4196 0.8840 0.0000
vt 0.3843 0.8787 0.0000
vt 0.3853 0.8787 0.0000
vt 0.3853 0.8831 0.0000
vt 0.3862 0.8831 0.0000
vt 0.3862 0.8787 0.0000
vt 0.3872 0.8787 0.0000
vt 0.3872 0.8831 0.0000
vt 0.3881 0.8831 0.0000
vt 0.3881 0.8787 0.0000
vt 0.3891 0.8787 0.0000
vt 0.3891 0.8831 0.0000
vt 0.3900 0.8831 0.0000
vt 0.3900 0.8787 0.0000
vt 0.3910 0.8787 0.0000
vt 0.3910 0.8831 0.0000
vt 0.3919 0.8831 0.0000
vt 0.3919 0.8787 0.0000
vt 0.3929 0.8787 0.0000
vt 0.3929 0.8831 0.0000
vt 0.3938 0.8831 0.0000
vt 0.3938 0.8787 0.0000
vt 0.3948 0.8787 0.0000
vt 0.3948 0.8831 0.0000
vt 0.3958 0.8831 0.0000
vt 0.3958 0.8787 0.0000
vt 0.3967 0.8787 0.0000
vt 0.3967 0.8831 0.0000
vt 0.3977 0.8831 0.0000
vt 0.3977 0.8787 0.0000
vt 0.3986 0.8787 0.0000
vt 0.3986 0.8831 0.0000
vt 0.3996 0.8831 0.0000
vt 0.4177 0.8831 0.0000
vt 0.4187 0.8831 0.0000
vt 0.4196 0.8831 0.0000
vt 0.4196 0.8786 0.0000
vt 0.4187 0.8787 0.0000
vt 0.4177 0.8787 0.0000
vt 0.4168 0.8787 0.0000
vt 0.4158 0.8787 0.0000
vt 0.4149 0.8787 0.0000
vt 0.4139 0.8787 0.0000
vt 0.4139 0.8831 0.0000
vt 0.4129 0.8831 0.0000
vt 0.4129 0.8787 0.0000
vt 0.4120 0.8787 0.0000
vt 0.4110 0.8787 0.0000
vt 0.4101 0.8787 0.0000
vt 0.4091 0.8787 0.0000
vt 0.4082 0.8787 0.0000
vt 0.4072 0.8787 0.0000
vt 0.4063 0.8787 0.0000
vt 0.4053 0.8787 0.0000
vt 0.4044 0.8787 0.0000
vt 0.4034 0.8787 0.0000
vt 0.4025 0.8787 0.0000
vt 0.4015 0.8787 0.0000
vt 0.4005 0.8787 0.0000
vt 0.4091 0.8831 0.0000
vt 0.4101 0.8831 0.0000
vt 0.4082 0.8831 0.0000
vt 0.4063 0.8831 0.0000
vt 0.4110 0.8831 0.0000
vt 0.4120 0.8831 0.0000
vt 0.4149 0.8831 0.0000
vt 0.4158 0.8831 0.0000
vt 0.4168 0.8831 0.0000
vt 0.4005 0.8831 0.0000
vt 0.3996 0.8787 0.0000
vt 0.4015 0.8831 0.0000
vt 0.4025 0.8831 0.0000
vt 0.4044 0.8831 0.0000
vt 0.4034 0.8831 0.0000
vt 0.4053 0.8831 0.0000
vt 0.4072 0.8831 0.0000
vt 0.4196 0.9002 0.0000
vt 0.4240 0.9002 0.0000
vt 0.4240 0.9012 0.0000
vt 0.4196 0.9012 0.0000
vt 0.4196 0.9021 0.0000
vt 0.4240 0.9021 0.0000
vt 0.4240 0.9031 0.0000
vt 0.4196 0.9031 0.0000
vt 0.4196 0.9059 0.0000
vt 0.4240 0.9059 0.0000
vt 0.4240 0.9069 0.0000
vt 0.4196 0.9069 0.0000
vt 0.4196 0.9079 0.0000
vt 0.4240 0.9079 0.0000
vt 0.4240 0.9088 0.0000
vt 0.4196 0.9088 0.0000
vt 0.4196 0.9098 0.0000
vt 0.4240 0.9098 0.0000
vt 0.4240 0.9107 0.0000
vt 0.4196 0.9107 0.0000
vt 0.4196 0.9117 0.0000
vt 0.4240 0.9117 0.0000
vt 0.4240 0.9126 0.0000
vt 0.4196 0.9126 0.0000
vt 0.4196 0.9136 0.0000
vt 0.4240 0.9136 0.0000
vt 0.4240 0.9146 0.0000
vt 0.4196 0.9146 0.0000
vt 0.4196 0.9155 0.0000
vt 0.4240 0.9155 0.0000
vt 0.4240 0.9165 0.0000
vt 0.4196 0.9165 0.0000
vt 0.4196 0.9174 0.0000
vt 0.4240 0.9174 0.0000
vt 0.4240 0.9184 0.0000
vt 0.4196 0.9184 0.0000
vt 0.4196 0.9193 0.0000
vt 0.4240 0.9193 0.0000
vt 0.4240 0.9203 0.0000
vt 0.4196 0.9203 0.0000
vt 0.4196 0.9050 0.0000
vt 0.4196 0.9040 0.0000
vt 0.3815 0.8831 0.0000
vt 0.3824 0.8831 0.0000
vt 0.3786 0.8936 0.0000
vt 0.3786 0.8926 0.0000
vt 0.3805 0.8787 0.0000
vt 0.3815 0.8787 0.0000
vt 0.3834 0.8787 0.0000
vt 0.3824 0.8787 0.0000
vt 0.3834 0.8831 0.0000
vt 0.3786 0.9146 0.0000
vt 0.3742 0.9146 0.0000
vt 0.3742 0.9136 0.0000
vt 0.3786 0.9136 0.0000
vt 0.3786 0.9126 0.0000
vt 0.3742 0.9126 0.0000
vt 0.3742 0.9117 0.0000
vt 0.3786 0.9117 0.0000
vt 0.3786 0.9107 0.0000
vt 0.3742 0.9107 0.0000
vt 0.3742 0.9098 0.0000
vt 0.3786 0.9098 0.0000
vt 0.3786 0.9088 0.0000
vt 0.3742 0.9088 0.0000
vt 0.3742 0.9079 0.0000
vt 0.3786 0.9079 0.0000
vt 0.3786 0.9069 0.0000
vt 0.3742 0.9069 0.0000
vt 0.3742 0.9059 0.0000
vt 0.3786 0.9059 0.0000
vt 0.3786 0.9050 0.0000
vt 0.3742 0.9050 0.0000
vt 0.3742 0.9040 0.0000
vt 0.3786 0.9040 0.0000
vt 0.3786 0.9031 0.0000
vt 0.3742 0.9031 0.0000
vt 0.3742 0.9021 0.0000
vt 0.3786 0.9021 0.0000
vt 0.3786 0.9012 0.0000
vt 0.3742 0.9012 0.0000
vt 0.3742 0.9002 0.0000
vt 0.3786 0.9002 0.0000
vt 0.3786 0.8993 0.0000
vt 0.3742 0.8993 0.0000
vt 0.3742 0.8983 0.0000
vt 0.3786 0.8983 0.0000
vt 0.3786 0.8945 0.0000
vt 0.3786 0.8955 0.0000
vt 0.3786 0.8964 0.0000
vt 0.3786 0.8974 0.0000
vt 0.3786 0.9286 0.0000
vt 0.3786 0.9241 0.0000
vt 0.3795 0.9241 0.0000
vt 0.3795 0.9284 0.0000
vt 0.3805 0.9284 0.0000
vt 0.3815 0.9284 0.0000
vt 0.3805 0.9241 0.0000
vt 0.3815 0.9241 0.0000
vt 0.3824 0.9284 0.0000
vt 0.3834 0.9284 0.0000
vt 0.3824 0.9241 0.0000
vt 0.3834 0.9241 0.0000
vt 0.3843 0.9284 0.0000
vt 0.3853 0.9284 0.0000
vt 0.3843 0.9241 0.0000
vt 0.3853 0.9241 0.0000
vt 0.3862 0.9284 0.0000
vt 0.3872 0.9284 0.0000
vt 0.3862 0.9241 0.0000
vt 0.3872 0.9241 0.0000
vt 0.3881 0.9284 0.0000
vt 0.3891 0.9284 0.0000
vt 0.3881 0.9241 0.0000
vt 0.3891 0.9241 0.0000
vt 0.3900 0.9284 0.0000
vt 0.3910 0.9284 0.0000
vt 0.3900 0.9241 0.0000
vt 0.3910 0.9241 0.0000
vt 0.3919 0.9284 0.0000
vt 0.3929 0.9284 0.0000
vt 0.3919 0.9241 0.0000
vt 0.3929 0.9241 0.0000
vt 0.3938 0.9284 0.0000
vt 0.3948 0.9284 0.0000
vt 0.3938 0.9241 0.0000
vt 0.3948 0.9241 0.0000
vt 0.3958 0.9284 0.0000
vt 0.3967 0.9284 0.0000
vt 0.3958 0.9241 0.0000
vt 0.3967 0.9241 0.0000
vt 0.3977 0.9284 0.0000
vt 0.3986 0.9284 0.0000
vt 0.3977 0.9241 0.0000
vt 0.3986 0.9241 0.0000
vt 0.3996 0.9284 0.0000
vt 0.4005 0.9284 0.0000
vt 0.4015 0.9284 0.0000
vt 0.4025 0.9284 0.0000
vt 0.4015 0.9241 0.0000
vt 0.4025 0.9241 0.0000
vt 0.4034 0.9284 0.0000
vt 0.4044 0.9284 0.0000
vt 0.4034 0.9241 0.0000
vt 0.4044 0.9241 0.0000
vt 0.4053 0.9284 0.0000
vt 0.4063 0.9284 0.0000
vt 0.4053 0.9241 0.0000
vt 0.4063 0.9241 0.0000
vt 0.4072 0.9284 0.0000
vt 0.4082 0.9284 0.0000
vt 0.4072 0.9241 0.0000
vt 0.4082 0.9241 0.0000
vt 0.4091 0.9284 0.0000
vt 0.4101 0.9284 0.0000
vt 0.4091 0.9241 0.0000
vt 0.4101 0.9241 0.0000
vt 0.4110 0.9284 0.0000
vt 0.4120 0.9284 0.0000
vt 0.4110 0.9241 0.0000
vt 0.4120 0.9241 0.0000
vt 0.4129 0.9284 0.0000
vt 0.4139 0.9284 0.0000
vt 0.4129 0.9241 0.0000
vt 0.4139 0.9241 0.0000
vt 0.4149 0.9284 0.0000
vt 0.4158 0.9284 0.0000
vt 0.4149 0.9241 0.0000
vt 0.4158 0.9241 0.0000
vt 0.4196 0.9286 0.0000
vt 0.4240 0.9222 0.0000
vt 0.4196 0.9222 0.0000
vt 0.4196 0.9212 0.0000
vt 0.4240 0.9212 0.0000
vt 0.4240 0.9050 0.0000
vt 0.4240 0.9040 0.0000
vt 0.4240 0.8993 0.0000
vt 0.4240 0.8983 0.0000
vt 0.4240 0.8859 0.0000
vt 0.4240 0.8849 0.0000
vt 0.4240 0.8840 0.0000
vt 0.4241 0.8831 0.0000
vt 0.4240 0.9231 0.0000
vt 0.4241 0.9241 0.0000
vt 0.4168 0.9284 0.0000
vt 0.4177 0.9284 0.0000
vt 0.4187 0.9284 0.0000
vt 0.4187 0.9241 0.0000
vt 0.4196 0.9241 0.0000
vt 0.4168 0.9241 0.0000
vt 0.4177 0.9241 0.0000
vt 0.3741 0.8831 0.0000
vt 0.3742 0.8840 0.0000
vt 0.3741 0.9241 0.0000
vt 0.3742 0.8849 0.0000
vt 0.3742 0.8859 0.0000
vt 0.3742 0.8869 0.0000
vt 0.3742 0.8878 0.0000
vt 0.3742 0.8888 0.0000
vt 0.3742 0.8897 0.0000
vt 0.3742 0.8907 0.0000
vt 0.3742 0.8916 0.0000
vt 0.3742 0.8926 0.0000
vt 0.3742 0.8936 0.0000
vt 0.3742 0.8945 0.0000
vt 0.3742 0.8955 0.0000
vt 0.3742 0.8964 0.0000
vt 0.3742 0.8974 0.0000
vt 0.3742 0.9155 0.0000
vt 0.3742 0.9165 0.0000
vt 0.3742 0.9174 0.0000
vt 0.3742 0.9184 0.0000
vt 0.3742 0.9193 0.0000
vt 0.3742 0.9203 0.0000
vt 0.3742 0.9212 0.0000
vt 0.3742 0.9222 0.0000
vt 0.3742 0.9231 0.0000
vt 0.3786 0.9231 0.0000
vt 0.3786 0.9222 0.0000
vt 0.4196 0.9231 0.0000
vt 0.4005 0.9241 0.0000
vt 0.3996 0.9241 0.0000
vt 0.3786 0.9212 0.0000
vt 0.3786 0.9203 0.0000
vt 0.3786 0.9193 0.0000
vt 0.3786 0.9184 0.0000
vt 0.3786 0.9174 0.0000
vt 0.3786 0.9165 0.0000
vt 0.3786 0.9155 0.0000
vt 0.4200 0.8786 0.0000
vt 0.4241 0.8786 0.0000
vt 0.4241 0.8827 0.0000
vt 0.4200 0.8827 0.0000
vt 0.4241 0.9244 0.0000
vt 0.4241 0.9286 0.0000
vt 0.4200 0.9286 0.0000
vt 0.4200 0.9244 0.0000
vt 0.3782 0.9286 0.0000
vt 0.3741 0.9286 0.0000
vt 0.3741 0.9244 0.0000
vt 0.3782 0.9244 0.0000
vt 0.5428 0.8781 0.0000
vt 0.5428 0.8738 0.0000
vt 0.5437 0.8738 0.0000
vt 0.5437 0.8781 0.0000
vt 0.5409 0.8781 0.0000
vt 0.5409 0.8738 0.0000
vt 0.5418 0.8738 0.0000
vt 0.5418 0.8781 0.0000
vt 0.5389 0.8781 0.0000
vt 0.5389 0.8738 0.0000
vt 0.5399 0.8738 0.0000
vt 0.5399 0.8781 0.0000
vt 0.5370 0.8781 0.0000
vt 0.5370 0.8738 0.0000
vt 0.5380 0.8738 0.0000
vt 0.5380 0.8781 0.0000
vt 0.5542 0.8781 0.0000
vt 0.5542 0.8738 0.0000
vt 0.5552 0.8738 0.0000
vt 0.5552 0.8781 0.0000
vt 0.5523 0.8781 0.0000
vt 0.5523 0.8738 0.0000
vt 0.5532 0.8738 0.0000
vt 0.5532 0.8781 0.0000
vt 0.5504 0.8781 0.0000
vt 0.5504 0.8738 0.0000
vt 0.5513 0.8738 0.0000
vt 0.5513 0.8781 0.0000
vt 0.5485 0.8781 0.0000
vt 0.5485 0.8738 0.0000
vt 0.5494 0.8738 0.0000
vt 0.5494 0.8781 0.0000
vt 0.5466 0.8781 0.0000
vt 0.5466 0.8738 0.0000
vt 0.5475 0.8738 0.0000
vt 0.5475 0.8781 0.0000
vt 0.5447 0.8781 0.0000
vt 0.5447 0.8738 0.0000
vt 0.5456 0.8738 0.0000
vt 0.5456 0.8781 0.0000
vt 0.5561 0.8738 0.0000
vt 0.5571 0.8738 0.0000
vt 0.5571 0.8781 0.0000
vt 0.5561 0.8781 0.0000
vt 0.5666 0.8781 0.0000
vt 0.5657 0.8781 0.0000
vt 0.5657 0.8738 0.0000
vt 0.5666 0.8738 0.0000
vt 0.5647 0.8781 0.0000
vt 0.5638 0.8781 0.0000
vt 0.5638 0.8738 0.0000
vt 0.5647 0.8738 0.0000
vt 0.5628 0.8781 0.0000
vt 0.5619 0.8781 0.0000
vt 0.5619 0.8738 0.0000
vt 0.5628 0.8738 0.0000
vt 0.5609 0.8781 0.0000
vt 0.5599 0.8781 0.0000
vt 0.5599 0.8738 0.0000
vt 0.5609 0.8738 0.0000
vt 0.5590 0.8781 0.0000
vt 0.5580 0.8781 0.0000
vt 0.5580 0.8738 0.0000
vt 0.5590 0.8738 0.0000
vt 0.5685 0.8781 0.0000
vt 0.5676 0.8781 0.0000
vt 0.5676 0.8738 0.0000
vt 0.5685 0.8738 0.0000
vt 0.5695 0.8781 0.0000
vt 0.5695 0.8738 0.0000
vt 0.5704 0.8738 0.0000
vt 0.5704 0.8781 0.0000
vt 0.5762 0.8781 0.0000
vt 0.5752 0.8781 0.0000
vt 0.5752 0.8738 0.0000
vt 0.5762 0.8738 0.0000
vt 0.5733 0.8781 0.0000
vt 0.5733 0.8738 0.0000
vt 0.5743 0.8738 0.0000
vt 0.5743 0.8781 0.0000
vt 0.5714 0.8781 0.0000
vt 0.5714 0.8738 0.0000
vt 0.5723 0.8738 0.0000
vt 0.5723 0.8781 0.0000
vt 0.5815 0.8791 0.0000
vt 0.5815 0.8800 0.0000
vt 0.5771 0.8800 0.0000
vt 0.5771 0.8791 0.0000
vt 0.5771 0.8810 0.0000
vt 0.5815 0.8810 0.0000
vt 0.5815 0.8819 0.0000
vt 0.5771 0.8819 0.0000
vt 0.5815 0.8829 0.0000
vt 0.5815 0.8838 0.0000
vt 0.5771 0.8838 0.0000
vt 0.5771 0.8829 0.0000
vt 0.5815 0.8848 0.0000
vt 0.5815 0.8857 0.0000
vt 0.5771 0.8857 0.0000
vt 0.5771 0.8848 0.0000
vt 0.5815 0.8867 0.0000
vt 0.5815 0.8877 0.0000
vt 0.5771 0.8877 0.0000
vt 0.5771 0.8867 0.0000
vt 0.5815 0.8886 0.0000
vt 0.5815 0.8896 0.0000
vt 0.5771 0.8896 0.0000
vt 0.5771 0.8886 0.0000
vt 0.5815 0.8905 0.0000
vt 0.5815 0.8915 0.0000
vt 0.5771 0.8915 0.0000
vt 0.5771 0.8905 0.0000
vt 0.5815 0.8924 0.0000
vt 0.5815 0.8934 0.0000
vt 0.5771 0.8934 0.0000
vt 0.5771 0.8924 0.0000
vt 0.5771 0.8953 0.0000
vt 0.5771 0.8944 0.0000
vt 0.5815 0.8944 0.0000
vt 0.5815 0.8953 0.0000
vt 0.5815 0.8963 0.0000
vt 0.5815 0.8972 0.0000
vt 0.5771 0.8972 0.0000
vt 0.5771 0.8963 0.0000
vt 0.5815 0.8982 0.0000
vt 0.5815 0.8991 0.0000
vt 0.5771 0.8991 0.0000
vt 0.5771 0.8982 0.0000
vt 0.5771 0.9001 0.0000
vt 0.5815 0.9001 0.0000
vt 0.5815 0.9010 0.0000
vt 0.5771 0.9010 0.0000
vt 0.5815 0.9020 0.0000
vt 0.5815 0.9029 0.0000
vt 0.5771 0.9029 0.0000
vt 0.5771 0.9020 0.0000
vt 0.5815 0.9039 0.0000
vt 0.5815 0.9048 0.0000
vt 0.5771 0.9048 0.0000
vt 0.5771 0.9039 0.0000
vt 0.5815 0.9058 0.0000
vt 0.5815 0.9068 0.0000
vt 0.5771 0.9068 0.0000
vt 0.5771 0.9058 0.0000
vt 0.5815 0.9077 0.0000
vt 0.5815 0.9087 0.0000
vt 0.5771 0.9087 0.0000
vt 0.5771 0.9077 0.0000
vt 0.5815 0.9096 0.0000
vt 0.5815 0.9106 0.0000
vt 0.5771 0.9106 0.0000
vt 0.5771 0.9096 0.0000
vt 0.5815 0.9115 0.0000
vt 0.5815 0.9125 0.0000
vt 0.5771 0.9125 0.0000
vt 0.5771 0.9115 0.0000
vt 0.5815 0.9135 0.0000
vt 0.5815 0.9144 0.0000
vt 0.5771 0.9144 0.0000
vt 0.5771 0.9135 0.0000
vt 0.5815 0.9163 0.0000
vt 0.5771 0.9163 0.0000
vt 0.5771 0.9154 0.0000
vt 0.5815 0.9154 0.0000
vt 0.5815 0.9182 0.0000
vt 0.5771 0.9182 0.0000
vt 0.5771 0.9173 0.0000
vt 0.5815 0.9173 0.0000
vt 0.5752 0.9235 0.0000
vt 0.5752 0.9191 0.0000
vt 0.5762 0.9191 0.0000
vt 0.5762 0.9235 0.0000
vt 0.5743 0.9191 0.0000
vt 0.5743 0.9235 0.0000
vt 0.5733 0.9235 0.0000
vt 0.5733 0.9191 0.0000
vt 0.5714 0.9235 0.0000
vt 0.5714 0.9191 0.0000
vt 0.5723 0.9191 0.0000
vt 0.5723 0.9235 0.0000
vt 0.5695 0.9235 0.0000
vt 0.5695 0.9191 0.0000
vt 0.5704 0.9191 0.0000
vt 0.5704 0.9235 0.0000
vt 0.5676 0.9235 0.0000
vt 0.5676 0.9191 0.0000
vt 0.5685 0.9191 0.0000
vt 0.5685 0.9235 0.0000
vt 0.5657 0.9235 0.0000
vt 0.5657 0.9191 0.0000
vt 0.5666 0.9191 0.0000
vt 0.5666 0.9235 0.0000
vt 0.5638 0.9235 0.0000
vt 0.5638 0.9191 0.0000
vt 0.5647 0.9191 0.0000
vt 0.5647 0.9235 0.0000
vt 0.5619 0.9235 0.0000
vt 0.5619 0.9191 0.0000
vt 0.5628 0.9191 0.0000
vt 0.5628 0.9235 0.0000
vt 0.5599 0.9235 0.0000
vt 0.5599 0.9191 0.0000
vt 0.5609 0.9191 0.0000
vt 0.5609 0.9235 0.0000
vt 0.5580 0.9235 0.0000
vt 0.5580 0.9191 0.0000
vt 0.5590 0.9191 0.0000
vt 0.5590 0.9235 0.0000
vt 0.5561 0.9235 0.0000
vt 0.5561 0.9191 0.0000
vt 0.5571 0.9191 0.0000
vt 0.5571 0.9235 0.0000
vt 0.5542 0.9191 0.0000
vt 0.5552 0.9191 0.0000
vt 0.5552 0.9235 0.0000
vt 0.5542 0.9235 0.0000
vt 0.5523 0.9191 0.0000
vt 0.5532 0.9191 0.0000
vt 0.5532 0.9235 0.0000
vt 0.5523 0.9235 0.0000
vt 0.5504 0.9191 0.0000
vt 0.5513 0.9191 0.0000
vt 0.5513 0.9235 0.0000
vt 0.5504 0.9235 0.0000
vt 0.5485 0.9191 0.0000
vt 0.5494 0.9191 0.0000
vt 0.5494 0.9235 0.0000
vt 0.5485 0.9235 0.0000
vt 0.5466 0.9235 0.0000
vt 0.5466 0.9191 0.0000
vt 0.5475 0.9191 0.0000
vt 0.5475 0.9235 0.0000
vt 0.5447 0.9235 0.0000
vt 0.5447 0.9191 0.0000
vt 0.5456 0.9191 0.0000
vt 0.5456 0.9235 0.0000
vt 0.5428 0.9235 0.0000
vt 0.5428 0.9191 0.0000
vt 0.5437 0.9191 0.0000
vt 0.5437 0.9235 0.0000
vt 0.5409 0.9235 0.0000
vt 0.5409 0.9191 0.0000
vt 0.5418 0.9191 0.0000
vt 0.5418 0.9235 0.0000
vt 0.5389 0.9235 0.0000
vt 0.5389 0.9191 0.0000
vt 0.5399 0.9191 0.0000
vt 0.5399 0.9235 0.0000
vt 0.5370 0.9235 0.0000
vt 0.5370 0.9191 0.0000
vt 0.5380 0.9191 0.0000
vt 0.5380 0.9235 0.0000
vt 0.5361 0.9154 0.0000
vt 0.5361 0.9163 0.0000
vt 0.5317 0.9163 0.0000
vt 0.5317 0.9154 0.0000
vt 0.5317 0.9173 0.0000
vt 0.5361 0.9173 0.0000
vt 0.5361 0.9182 0.0000
vt 0.5317 0.9182 0.0000
vt 0.5361 0.9135 0.0000
vt 0.5361 0.9144 0.0000
vt 0.5317 0.9144 0.0000
vt 0.5317 0.9135 0.0000
vt 0.5361 0.9115 0.0000
vt 0.5361 0.9125 0.0000
vt 0.5317 0.9125 0.0000
vt 0.5317 0.9115 0.0000
vt 0.5361 0.9106 0.0000
vt 0.5317 0.9106 0.0000
vt 0.5317 0.9096 0.0000
vt 0.5361 0.9096 0.0000
vt 0.5317 0.9087 0.0000
vt 0.5317 0.9077 0.0000
vt 0.5361 0.9077 0.0000
vt 0.5361 0.9087 0.0000
vt 0.5317 0.9068 0.0000
vt 0.5317 0.9058 0.0000
vt 0.5361 0.9058 0.0000
vt 0.5361 0.9068 0.0000
vt 0.5317 0.9048 0.0000
vt 0.5317 0.9039 0.0000
vt 0.5361 0.9039 0.0000
vt 0.5361 0.9048 0.0000
vt 0.5317 0.9029 0.0000
vt 0.5317 0.9020 0.0000
vt 0.5361 0.9020 0.0000
vt 0.5361 0.9029 0.0000
vt 0.5317 0.9010 0.0000
vt 0.5317 0.9001 0.0000
vt 0.5361 0.9001 0.0000
vt 0.5361 0.9010 0.0000
vt 0.5317 0.8991 0.0000
vt 0.5317 0.8982 0.0000
vt 0.5361 0.8982 0.0000
vt 0.5361 0.8991 0.0000
vt 0.5317 0.8972 0.0000
vt 0.5317 0.8963 0.0000
vt 0.5361 0.8963 0.0000
vt 0.5361 0.8972 0.0000
vt 0.5317 0.8953 0.0000
vt 0.5317 0.8944 0.0000
vt 0.5361 0.8944 0.0000
vt 0.5361 0.8953 0.0000
vt 0.5317 0.8934 0.0000
vt 0.5317 0.8924 0.0000
vt 0.5361 0.8924 0.0000
vt 0.5361 0.8934 0.0000
vt 0.5317 0.8915 0.0000
vt 0.5317 0.8905 0.0000
vt 0.5361 0.8905 0.0000
vt 0.5361 0.8915 0.0000
vt 0.5317 0.8896 0.0000
vt 0.5317 0.8886 0.0000
vt 0.5361 0.8886 0.0000
vt 0.5361 0.8896 0.0000
vt 0.5317 0.8877 0.0000
vt 0.5317 0.8867 0.0000
vt 0.5361 0.8867 0.0000
vt 0.5361 0.8877 0.0000
vt 0.5317 0.8857 0.0000
vt 0.5317 0.8848 0.0000
vt 0.5361 0.8848 0.0000
vt 0.5361 0.8857 0.0000
vt 0.5317 0.8838 0.0000
vt 0.5317 0.8829 0.0000
vt 0.5361 0.8829 0.0000
vt 0.5361 0.8838 0.0000
vt 0.5317 0.8819 0.0000
vt 0.5317 0.8810 0.0000
vt 0.5361 0.8810 0.0000
vt 0.5361 0.8819 0.0000
vt 0.5317 0.8800 0.0000
vt 0.5317 0.8791 0.0000
vt 0.5361 0.8791 0.0000
vt 0.5361 0.8800 0.0000
vt 0.5361 0.8781 0.0000
vt 0.5316 0.8781 0.0000
vt 0.5316 0.8778 0.0000
vt 0.5357 0.8778 0.0000
vt 0.5361 0.8736 0.0000
vt 0.5357 0.8736 0.0000
vt 0.5775 0.8778 0.0000
vt 0.5816 0.8778 0.0000
vt 0.5816 0.8781 0.0000
vt 0.5771 0.8781 0.0000
vt 0.5775 0.8736 0.0000
vt 0.5771 0.8736 0.0000
vt 0.5775 0.9195 0.0000
vt 0.5775 0.9236 0.0000
vt 0.5771 0.9236 0.0000
vt 0.5771 0.9191 0.0000
vt 0.5816 0.9195 0.0000
vt 0.5816 0.9191 0.0000
vt 0.5357 0.9195 0.0000
vt 0.5316 0.9195 0.0000
vt 0.5316 0.9191 0.0000
vt 0.5361 0.9191 0.0000
vt 0.5357 0.9236 0.0000
vt 0.5361 0.9236 0.0000
# 740 texture coords

g SPW_Urban_Road_4way_Intersection
usemtl SPW_Urban_Road
s off
f 1/1/1 2/2/1 3/2/1 4/1/1 
f 2/2/2 5/3/2 6/3/2 3/2/2 
f 5/3/3 7/4/3 8/4/3 6/3/3 
f 7/4/4 1/1/4 4/1/4 8/4/4 
f 4/1/5 3/2/5 6/3/5 8/4/5 
f 7/4/6 5/3/6 2/2/6 1/1/6 
f 9/5/1 10/6/1 11/6/1 12/5/1 
f 10/6/2 13/7/2 14/7/2 11/6/2 
f 13/7/3 15/8/3 16/8/3 14/7/3 
f 15/8/4 9/5/4 12/5/4 16/8/4 
f 12/5/5 11/6/5 14/7/5 16/8/5 
f 15/8/6 13/7/6 10/6/6 9/5/6 
f 17/9/1 18/10/1 19/10/1 20/9/1 
f 18/10/2 21/11/2 22/11/2 19/10/2 
f 21/11/3 23/12/3 24/12/3 22/11/3 
f 23/12/4 17/9/4 20/9/4 24/12/4 
f 20/9/5 19/10/5 22/11/5 24/12/5 
f 23/12/6 21/11/6 18/10/6 17/9/6 
f 25/13/1 26/14/1 27/14/1 28/13/1 
f 26/14/2 29/15/2 30/15/2 27/14/2 
f 29/15/3 31/16/3 32/16/3 30/15/3 
f 31/16/4 25/13/4 28/13/4 32/16/4 
f 28/13/5 27/14/5 30/15/5 32/16/5 
f 31/16/6 29/15/6 26/14/6 25/13/6 
s 1
f 4/17/7 33/18/7 34/19/6 35/20/6 
f 36/21/7 37/22/7 38/23/6 39/24/7 
f 39/24/7 38/23/6 40/25/6 41/26/6 
f 39/24/7 41/26/6 42/27/6 43/28/6 
f 39/24/7 43/28/6 44/29/6 45/30/6 
f 39/24/7 45/30/6 46/31/6 47/32/7 
f 39/24/7 47/32/7 48/33/6 49/34/7 
f 50/35/6 51/36/6 52/37/6 53/38/6 
f 54/39/7 55/40/7 56/41/7 57/42/7 
f 58/43/6 59/44/6 60/45/6 61/46/6 
f 62/47/6 63/48/6 64/49/6 65/50/6 
f 66/51/6 67/52/6 68/53/6 69/54/6 
f 70/55/6 71/56/6 72/57/6 73/58/6 
f 74/59/6 75/60/6 76/61/7 73/58/6 
f 70/55/6 73/58/6 76/61/7 69/54/6 
f 66/51/6 69/54/6 76/61/7 65/50/6 
f 62/47/6 65/50/6 76/61/7 61/46/6 
f 58/43/6 61/46/6 76/61/7 57/42/7 
f 54/39/7 57/42/7 76/61/7 53/38/6 
f 50/35/6 53/38/6 76/61/7 77/62/6 
f 78/63/6 77/62/6 76/61/7 79/64/7 
f 76/61/7 80/65/6 81/66/7 82/67/7 
f 79/64/7 76/61/7 82/67/7 83/68/6 
f 83/68/6 84/69/7 85/70/7 86/71/6 
f 79/64/7 83/68/6 86/71/6 87/72/7 
f 87/72/7 88/73/7 89/74/7 90/75/6 
f 79/64/7 87/72/7 90/75/6 91/76/6 
f 91/76/6 92/77/6 93/78/7 94/79/6 
f 79/64/7 91/76/6 94/79/6 95/80/7 
f 95/80/7 96/81/7 97/82/6 98/83/6 
f 79/64/7 95/80/7 98/83/6 99/84/7 
f 99/84/7 100/85/6 101/86/6 102/87/7 
f 79/64/7 99/84/7 102/87/7 103/88/6 
f 103/88/6 104/89/6 105/90/7 106/91/7 
f 79/64/7 103/88/6 106/91/7 107/92/6 
f 107/92/6 108/93/7 109/94/6 110/95/6 
f 79/64/7 107/92/6 110/95/6 111/96/6 
f 79/64/7 111/96/6 112/97/7 113/98/7 
f 114/99/7 79/64/7 113/98/7 115/100/6 
f 115/100/6 113/98/7 116/101/6 117/102/6 
f 115/100/6 117/102/6 118/103/7 119/104/6 
f 115/100/6 119/104/6 120/105/6 
f 49/34/7 115/100/6 120/105/6 121/106/7 
f 121/106/7 122/107/8 123/108/9 124/109/7 
f 49/34/7 121/106/7 124/109/7 125/110/6 
f 49/34/7 125/110/6 126/111/7 127/112/7 
f 49/34/7 127/112/7 128/113/6 129/114/7 
f 49/34/7 129/114/7 130/115/6 131/116/7 
f 49/34/7 131/116/7 132/117/6 133/118/7 
f 49/34/7 133/118/7 134/119/6 135/120/7 
f 49/34/7 135/120/7 136/121/6 137/122/7 
f 49/34/7 137/122/7 108/93/7 105/90/7 
f 49/34/7 105/90/7 104/89/6 101/86/6 
f 49/34/7 101/86/6 100/85/6 97/82/6 
f 49/34/7 97/82/6 96/81/7 93/78/7 
f 49/34/7 93/78/7 92/77/6 89/74/7 
f 49/34/7 89/74/7 88/73/7 85/70/7 
f 49/34/7 85/70/7 84/69/7 81/66/7 
f 49/34/7 81/66/7 80/65/6 
f 138/123/10 128/113/6 127/112/7 139/124/11 
f 140/125/8 138/123/10 139/124/11 141/126/12 
f 142/127/6 126/111/7 125/110/6 143/128/10 
f 139/124/11 142/127/6 143/128/10 122/107/8 
f 143/128/10 123/108/9 122/107/8 
f 144/129/9 120/105/6 119/104/6 145/130/10 
f 122/107/8 144/129/9 145/130/10 112/97/7 
f 146/131/9 118/103/7 117/102/6 112/97/7 
f 145/130/10 146/131/9 112/97/7 
f 139/124/11 122/107/8 112/97/7 147/132/9 
f 112/97/7 111/96/6 148/133/6 108/93/7 
f 148/133/6 109/94/6 108/93/7 
f 108/93/7 137/122/7 147/132/9 112/97/7 
f 149/134/10 136/121/6 135/120/7 150/135/13 
f 147/132/9 149/134/10 150/135/13 151/136/7 
f 152/137/10 134/119/6 133/118/7 151/136/7 
f 150/135/13 152/137/10 151/136/7 
f 139/124/11 147/132/9 151/136/7 141/126/12 
f 153/138/10 132/117/6 131/116/7 141/126/12 
f 151/136/7 153/138/10 141/126/12 
f 140/125/8 141/126/12 154/139/10 129/114/7 
f 129/114/7 154/139/10 130/115/6 
f 155/140/6 156/141/6 157/142/6 158/143/6 
f 159/144/6 160/145/6 161/146/6 162/147/6 
f 163/148/7 164/149/7 165/150/6 166/151/6 
f 167/152/6 168/153/6 169/154/6 170/155/6 
f 171/156/6 172/157/6 173/158/6 174/159/6 
f 175/160/6 176/161/6 177/162/6 178/163/6 
f 179/164/6 180/165/6 181/166/6 182/167/6 
f 183/168/6 184/169/6 185/170/6 186/171/6 
f 187/172/6 188/173/6 189/174/6 190/175/6 
f 191/176/6 192/177/6 193/178/6 194/179/6 
f 191/176/6 194/179/6 76/61/7 190/175/6 
f 187/172/6 190/175/6 76/61/7 186/171/6 
f 183/168/6 186/171/6 76/61/7 182/167/6 
f 179/164/6 182/167/6 76/61/7 178/163/6 
f 175/160/6 178/163/6 76/61/7 174/159/6 
f 171/156/6 174/159/6 76/61/7 170/155/6 
f 167/152/6 170/155/6 76/61/7 166/151/6 
f 163/148/7 166/151/6 76/61/7 195/180/7 
f 196/181/7 195/180/7 76/61/7 162/147/6 
f 159/144/6 162/147/6 76/61/7 158/143/6 
f 155/140/6 158/143/6 76/61/7 75/60/6 
f 197/182/7 198/183/6 199/184/6 200/185/7 
f 200/185/7 38/23/6 37/22/7 197/182/7 
f 197/182/7 37/22/7 201/186/6 202/187/6 
f 49/34/7 80/65/6 203/188/7 204/189/6 
f 205/190/6 76/61/7 206/191/6 203/188/7 
f 206/191/6 207/192/6 208/193/6 209/194/6 
f 203/188/7 206/191/6 209/194/6 210/195/6 
f 210/195/6 211/196/6 212/197/6 213/198/6 
f 203/188/7 210/195/6 213/198/6 198/183/6 
f 214/199/6 215/200/6 216/201/6 217/202/6 
f 218/203/6 219/204/6 220/205/6 221/206/6 
f 222/207/6 223/208/6 224/209/6 225/210/6 
f 226/211/6 227/212/6 228/213/6 229/214/6 
f 230/215/7 231/216/7 232/217/7 233/218/6 
f 234/219/6 235/220/6 236/221/6 237/222/6 
f 238/223/6 239/224/6 240/225/6 241/226/6 
f 242/227/6 199/184/6 198/183/6 243/228/6 
f 244/229/6 243/228/6 198/183/6 245/230/6 
f 241/226/6 245/230/6 198/183/6 238/223/6 
f 237/222/6 238/223/6 198/183/6 234/219/6 
f 233/218/6 234/219/6 198/183/6 230/215/7 
f 229/214/6 230/215/7 198/183/6 226/211/6 
f 225/210/6 226/211/6 198/183/6 222/207/6 
f 221/206/6 222/207/6 198/183/6 218/203/6 
f 217/202/6 218/203/6 198/183/6 214/199/6 
f 213/198/6 214/199/6 198/183/6 
f 203/188/7 198/183/6 204/189/6 
f 49/34/7 204/189/6 202/187/6 201/186/6 
f 49/34/7 201/186/6 39/24/7 
f 246/231/6 247/232/6 248/233/6 249/234/6 
f 246/231/6 249/234/6 250/235/7 251/236/6 
f 250/235/7 252/237/6 253/238/7 251/236/6 
f 246/231/6 251/236/6 254/239/6 255/240/6 
f 254/239/6 256/241/6 257/242/7 255/240/6 
f 246/231/6 255/240/6 258/243/6 259/244/7 
f 258/243/6 260/245/7 261/246/6 259/244/7 
f 246/231/6 259/244/7 262/247/7 263/248/6 
f 262/247/7 264/249/7 265/250/7 263/248/6 
f 246/231/6 263/248/6 266/251/6 267/252/7 
f 266/251/6 268/253/6 269/254/6 267/252/7 
f 246/231/6 267/252/7 270/255/6 271/256/6 
f 270/255/6 272/257/6 273/258/7 271/256/6 
f 246/231/6 271/256/6 274/259/7 275/260/6 
f 274/259/7 276/261/6 277/262/6 275/260/6 
f 246/231/6 275/260/6 278/263/7 279/264/6 
f 278/263/7 280/265/6 281/266/6 279/264/6 
f 246/231/6 279/264/6 282/267/6 283/268/7 
f 282/267/6 284/269/7 285/270/6 283/268/7 
f 246/231/6 283/268/7 286/271/7 287/272/7 
f 286/271/7 288/273/6 289/274/6 287/272/7 
f 246/231/6 287/272/7 290/275/7 291/276/6 
f 246/231/6 291/276/6 292/277/6 293/278/6 
f 292/277/6 294/279/6 295/280/10 293/278/6 
f 246/231/6 293/278/6 296/281/6 297/282/6 
f 296/281/6 298/283/9 299/284/9 297/282/6 
f 246/231/6 297/282/6 300/285/6 301/286/6 
f 300/285/6 302/287/10 303/288/10 301/286/6 
f 246/231/6 301/286/6 304/289/7 305/290/6 
f 304/289/7 306/291/9 307/292/10 305/290/6 
f 246/231/6 305/290/6 308/293/6 309/294/7 
f 308/293/6 310/295/14 311/296/7 309/294/7 
f 246/231/6 309/294/7 312/297/7 313/298/6 
f 312/297/7 314/299/11 315/300/9 313/298/6 
f 246/231/6 313/298/6 316/301/6 317/302/7 
f 316/301/6 318/303/8 319/304/9 317/302/7 
f 246/231/6 317/302/7 320/305/7 321/306/7 
f 320/305/7 322/307/11 323/308/9 321/306/7 
f 246/231/6 321/306/7 324/309/7 
f 325/310/7 326/311/7 327/312/6 328/313/6 
f 329/314/7 195/180/7 196/181/7 330/315/6 
f 331/316/6 75/60/6 74/59/6 332/317/6 
f 333/318/6 77/62/6 78/63/6 334/319/6 
f 335/320/6 79/64/7 114/99/7 336/321/6 
f 334/319/6 335/320/6 336/321/6 333/318/6 
f 51/36/6 333/318/6 336/321/6 52/37/6 
f 55/40/7 52/37/6 336/321/6 56/41/7 
f 59/44/6 56/41/7 336/321/6 60/45/6 
f 63/48/6 60/45/6 336/321/6 64/49/6 
f 67/52/6 64/49/6 336/321/6 68/53/6 
f 71/56/6 68/53/6 336/321/6 72/57/6 
f 332/317/6 72/57/6 336/321/6 331/316/6 
f 156/141/6 331/316/6 336/321/6 157/142/6 
f 160/145/6 157/142/6 336/321/6 161/146/6 
f 330/315/6 161/146/6 336/321/6 329/314/7 
f 164/149/7 329/314/7 336/321/6 165/150/6 
f 168/153/6 165/150/6 336/321/6 169/154/6 
f 172/157/6 169/154/6 336/321/6 173/158/6 
f 176/161/6 173/158/6 336/321/6 177/162/6 
f 180/165/6 177/162/6 336/321/6 181/166/6 
f 184/169/6 181/166/6 336/321/6 185/170/6 
f 188/173/6 185/170/6 336/321/6 189/174/6 
f 192/177/6 189/174/6 336/321/6 193/178/6 
f 328/313/6 193/178/6 336/321/6 325/310/7 
f 337/322/7 325/310/7 336/321/6 338/323/7 
f 324/309/7 321/306/7 339/324/7 340/325/6 
f 324/309/7 340/325/6 341/326/7 342/327/13 
f 324/309/7 342/327/13 343/328/11 
f 302/287/10 299/284/9 298/283/9 294/279/6 
f 298/283/9 295/280/10 294/279/6 
f 294/279/6 343/328/11 342/327/13 344/329/6 
f 345/330/7 340/325/6 339/324/7 344/329/6 
f 342/327/13 345/330/7 344/329/6 
f 344/329/6 323/308/9 322/307/11 318/303/8 
f 322/307/11 319/304/9 318/303/8 
f 318/303/8 315/300/9 314/299/11 310/295/14 
f 314/299/11 311/296/7 310/295/14 
f 344/329/6 318/303/8 310/295/14 294/279/6 
f 302/287/10 294/279/6 310/295/14 306/291/9 
f 310/295/14 307/292/10 306/291/9 
f 303/288/10 302/287/10 306/291/9 
f 346/331/7 48/33/6 47/32/7 347/332/7 
f 348/333/6 346/331/7 347/332/7 349/334/6 
f 349/334/6 46/31/6 45/30/6 350/335/6 
f 348/333/6 349/334/6 350/335/6 351/336/6 
f 351/336/6 44/29/6 43/28/6 352/337/6 
f 348/333/6 351/336/6 352/337/6 353/338/6 
f 353/338/6 42/27/6 41/26/6 354/339/6 
f 348/333/6 353/338/6 354/339/6 355/340/6 
f 355/340/6 40/25/6 38/23/6 356/341/6 
f 348/333/6 355/340/6 356/341/6 357/342/6 
f 357/342/6 200/185/7 199/184/6 358/343/6 
f 348/333/6 357/342/6 358/343/6 359/344/6 
f 359/344/6 242/227/6 243/228/6 360/345/6 
f 348/333/6 359/344/6 360/345/6 361/346/6 
f 361/346/6 244/229/6 245/230/6 362/347/6 
f 348/333/6 361/346/6 362/347/6 240/225/6 
f 348/333/6 240/225/6 239/224/6 236/221/6 
f 348/333/6 236/221/6 235/220/6 232/217/7 
f 348/333/6 232/217/7 231/216/7 228/213/6 
f 348/333/6 228/213/6 227/212/6 224/209/6 
f 348/333/6 224/209/6 223/208/6 220/205/6 
f 348/333/6 220/205/6 219/204/6 216/201/6 
f 348/333/6 216/201/6 215/200/6 212/197/6 
f 348/333/6 212/197/6 211/196/6 208/193/6 
f 348/333/6 208/193/6 207/192/6 363/348/6 
f 348/333/6 363/348/6 364/349/6 365/350/6 
f 348/333/6 365/350/6 366/351/7 367/352/7 
f 348/333/6 367/352/7 368/353/6 369/354/6 
f 348/333/6 369/354/6 370/355/6 371/356/6 
f 372/357/7 373/358/6 76/61/7 327/312/6 
f 76/61/7 194/179/6 327/312/6 
f 372/357/7 327/312/6 326/311/7 374/359/7 
f 374/359/7 337/322/7 338/323/7 343/328/11 
f 374/359/7 343/328/11 294/279/6 375/360/7 
f 372/357/7 374/359/7 375/360/7 371/356/6 
f 375/360/7 291/276/6 290/275/7 376/361/6 
f 371/356/6 375/360/7 376/361/6 289/274/6 
f 371/356/6 289/274/6 288/273/6 285/270/6 
f 371/356/6 285/270/6 284/269/7 281/266/6 
f 371/356/6 281/266/6 280/265/6 277/262/6 
f 371/356/6 277/262/6 276/261/6 273/258/7 
f 371/356/6 273/258/7 272/257/6 269/254/6 
f 371/356/6 269/254/6 268/253/6 265/250/7 
f 371/356/6 265/250/7 264/249/7 261/246/6 
f 371/356/6 261/246/6 260/245/7 257/242/7 
f 371/356/6 257/242/7 256/241/6 253/238/7 
f 371/356/6 253/238/7 252/237/6 248/233/6 
f 371/356/6 248/233/6 247/232/6 348/333/6 
f 373/358/6 370/355/6 369/354/6 377/362/6 
f 76/61/7 373/358/6 377/362/6 378/363/6 
f 378/363/6 368/353/6 367/352/7 379/364/6 
f 76/61/7 378/363/6 379/364/6 380/365/7 
f 380/365/7 366/351/7 365/350/6 381/366/6 
f 76/61/7 380/365/7 381/366/6 382/367/6 
f 382/367/6 364/349/6 363/348/6 383/368/6 
f 76/61/7 382/367/6 383/368/6 206/191/6 
f 384/369/6 385/370/6 386/371/6 387/372/7 
f 388/373/6 389/374/6 390/375/6 391/376/6 
f 392/377/6 393/378/6 394/379/6 395/380/7 
f 82/381/7 81/382/7 84/383/7 83/384/6 
f 205/385/6 203/386/7 80/387/6 76/388/7 
f 197/389/7 202/390/6 204/391/6 198/392/6 
f 36/393/7 39/394/7 201/395/6 37/396/7 
f 106/397/7 105/398/7 108/399/7 107/400/6 
f 102/401/7 101/402/6 104/403/6 103/404/6 
f 98/405/6 97/406/6 100/407/6 99/408/7 
f 94/409/6 93/410/7 96/411/7 95/412/7 
f 90/413/6 89/414/7 92/415/6 91/416/6 
f 86/417/6 85/418/7 88/419/7 87/420/7 
f 109/421/6 148/422/6 111/423/6 110/424/6 
f 138/425/10 140/426/8 129/427/7 128/428/6 
f 154/429/10 141/430/12 131/431/7 130/432/6 
f 153/433/10 151/434/7 133/435/7 132/436/6 
f 152/437/10 150/438/13 135/439/7 134/440/6 
f 149/441/10 147/442/9 137/443/7 136/444/6 
f 142/445/6 139/446/11 127/447/7 126/448/7 
f 143/449/10 125/450/6 124/451/7 123/452/9 
f 113/453/7 112/454/7 117/455/6 116/456/6 
f 145/457/10 119/458/6 118/459/7 146/460/9 
f 122/461/8 121/462/7 120/463/6 144/464/9 
f 335/465/6 334/466/6 78/467/6 79/468/7 
f 77/469/6 333/470/6 51/471/6 50/472/6 
f 52/473/6 55/474/7 54/475/7 53/476/6 
f 56/477/7 59/478/6 58/479/6 57/480/7 
f 60/481/6 63/482/6 62/483/6 61/484/6 
f 64/485/6 67/486/6 66/487/6 65/488/6 
f 68/489/6 71/490/6 70/491/6 69/492/6 
f 72/493/6 332/494/6 74/495/6 73/496/6 
f 155/497/6 75/498/6 331/499/6 156/500/6 
f 157/501/6 160/502/6 159/503/6 158/504/6 
f 161/505/6 330/506/6 196/507/7 162/508/6 
f 195/509/7 329/510/7 164/511/7 163/512/7 
f 165/513/6 168/514/6 167/515/6 166/516/6 
f 169/517/6 172/518/6 171/519/6 170/520/6 
f 173/521/6 176/522/6 175/523/6 174/524/6 
f 177/525/6 180/526/6 179/527/6 178/528/6 
f 181/529/6 184/530/6 183/531/6 182/532/6 
f 185/533/6 188/534/6 187/535/6 186/536/6 
f 189/537/6 192/538/6 191/539/6 190/540/6 
f 328/541/6 327/542/6 194/543/6 193/544/6 
f 337/545/7 374/546/7 326/547/7 325/548/7 
f 340/549/6 345/550/7 342/551/13 341/552/7 
f 344/553/6 339/554/7 321/555/7 323/556/9 
f 317/557/7 319/558/9 322/559/11 320/560/7 
f 313/561/6 315/562/9 318/563/8 316/564/6 
f 309/565/7 311/566/7 314/567/11 312/568/7 
f 305/569/6 307/570/10 310/571/14 308/572/6 
f 301/573/6 303/574/10 306/575/9 304/576/7 
f 297/577/6 299/578/9 302/579/10 300/580/6 
f 293/581/6 295/582/10 298/583/9 296/584/6 
f 291/585/6 375/586/7 294/587/6 292/588/6 
f 287/589/7 289/590/6 376/591/6 290/592/7 
f 285/593/6 288/594/6 286/595/7 283/596/7 
f 281/597/6 284/598/7 282/599/6 279/600/6 
f 277/601/6 280/602/6 278/603/7 275/604/6 
f 273/605/7 276/606/6 274/607/7 271/608/6 
f 267/609/7 269/610/6 272/611/6 270/612/6 
f 263/613/6 265/614/7 268/615/6 266/616/6 
f 259/617/7 261/618/6 264/619/7 262/620/7 
f 255/621/6 257/622/7 260/623/7 258/624/6 
f 251/625/6 253/626/7 256/627/6 254/628/6 
f 249/629/6 248/630/6 252/631/6 250/632/7 
f 378/633/6 377/634/6 369/635/6 368/636/6 
f 370/637/6 373/638/6 372/639/7 371/640/6 
f 380/641/7 379/642/6 367/643/7 366/644/7 
f 382/645/6 381/646/6 365/647/6 364/648/6 
f 383/649/6 363/650/6 207/651/6 206/652/6 
f 208/653/6 211/654/6 210/655/6 209/656/6 
f 212/657/6 215/658/6 214/659/6 213/660/6 
f 216/661/6 219/662/6 218/663/6 217/664/6 
f 220/665/6 223/666/6 222/667/6 221/668/6 
f 224/669/6 227/670/6 226/671/6 225/672/6 
f 228/673/6 231/674/7 230/675/7 229/676/6 
f 232/677/7 235/678/6 234/679/6 233/680/6 
f 236/681/6 239/682/6 238/683/6 237/684/6 
f 240/685/6 362/686/6 245/687/6 241/688/6 
f 361/689/6 360/690/6 243/691/6 244/692/6 
f 359/693/6 358/694/6 199/695/6 242/696/6 
f 357/697/6 356/698/6 38/699/6 200/700/7 
f 355/701/6 354/702/6 41/703/6 40/704/6 
f 353/705/6 352/706/6 43/707/6 42/708/6 
f 351/709/6 350/710/6 45/711/6 44/712/6 
f 349/713/6 347/714/7 47/715/7 46/716/6 
f 48/717/6 346/718/7 35/719/6 34/720/6 
f 49/721/7 48/717/6 34/720/6 33/722/7 
f 387/723/7 386/724/6 336/725/6 114/726/7 
f 384/727/6 387/723/7 114/726/7 115/728/6 
f 391/729/6 390/730/6 324/731/7 343/732/11 
f 388/733/6 391/729/6 343/732/11 338/734/7 
f 395/735/7 394/736/6 348/737/6 247/738/6 
f 392/739/6 395/735/7 247/738/6 246/740/6 
# 367 polygons - 20 triangles

