# 3ds Max Wavefront OBJ Exporter v0.97b - (c)2007 guruware
# File Created: 15.03.2017 11:39:24

mtllib SPW_Urban_Road Parking Lot Big.mtl

#
# object SPW_Urban_Road_Parking_Lot_Big
#

v  -826.7717 0.0001 -793.3071
v  -826.7717 0.0001 -781.4960
v  -748.0316 0.0001 -781.4960
v  -748.0316 0.0001 -793.3071
v  -629.9213 0.0001 -793.3071
v  -629.9213 0.0001 -781.4960
v  -551.1812 0.0001 -781.4960
v  -551.1812 0.0001 -793.3071
v  -433.0710 0.0001 -793.3071
v  -433.0710 0.0001 -781.4960
v  -354.3307 0.0001 -781.4960
v  -354.3307 0.0001 -793.3071
v  -236.2205 0.0001 -793.3071
v  -236.2205 0.0001 -781.4960
v  -157.4803 0.0001 -781.4960
v  -157.4803 0.0001 -793.3071
v  -39.3701 0.0001 -793.3071
v  -39.3701 0.0001 -781.4960
v  39.3700 0.0001 -781.4960
v  39.3700 0.0001 -793.3071
v  157.4803 0.0001 -793.3071
v  157.4803 0.0001 -781.4960
v  236.2205 0.0001 -781.4960
v  236.2205 0.0001 -793.3071
v  354.3307 0.0001 -793.3071
v  354.3307 0.0001 -781.4960
v  433.0708 0.0001 -781.4960
v  433.0708 0.0001 -793.3071
v  551.1811 0.0001 -793.3071
v  551.1811 0.0001 -781.4960
v  629.9212 0.0001 -781.4960
v  629.9212 0.0001 -793.3071
v  748.0316 0.0001 -793.3071
v  748.0316 0.0001 -781.4960
v  785.4330 0.0001 -748.0315
v  797.2441 0.0001 -748.0315
v  797.2443 -0.0001 629.9212
v  797.2443 -0.0001 748.0315
v  877.9528 -0.0001 1141.7324
v  797.2443 -0.0001 551.1811
v  797.2443 -0.0001 433.0708
v  797.2443 -0.0000 354.3307
v  797.2443 -0.0000 236.2204
v  797.2443 -0.0000 157.4803
v  797.2443 -0.0000 39.3700
v  797.2443 0.0000 -39.3701
v  797.2443 0.0000 -157.4803
v  797.2443 0.0000 -236.2205
v  797.2443 0.0000 -354.3307
v  797.2443 0.0001 -433.0709
v  797.2443 0.0001 -551.1812
v  797.2441 0.0001 -629.9213
v  877.9526 0.0001 -1141.7323
v  893.7009 -0.0001 1141.7324
v  893.7009 -0.0002 1433.0709
v  1039.3705 -0.0002 1433.0709
v  893.7007 0.0001 -1141.7323
v  1039.3701 0.0002 -1433.0708
v  893.7007 0.0002 -1433.0708
v  877.9526 0.0002 -1433.0708
v  716.5355 0.0002 -1433.0708
v  716.5355 0.0001 -1141.7322
v  700.7875 0.0001 -1141.7322
v  700.7875 0.0002 -1433.0708
v  539.3701 0.0002 -1433.0708
v  539.3701 0.0001 -1141.7322
v  523.6221 0.0001 -1141.7322
v  523.6221 0.0002 -1433.0708
v  362.2047 0.0002 -1433.0708
v  362.2047 0.0001 -1141.7322
v  346.4567 0.0001 -1141.7322
v  346.4567 0.0002 -1433.0708
v  185.0393 0.0002 -1433.0708
v  185.0393 0.0001 -1141.7322
v  169.2913 0.0001 -1141.7322
v  169.2913 0.0002 -1433.0708
v  7.8739 0.0002 -1433.0708
v  7.8740 0.0001 -1141.7322
v  -7.8741 0.0001 -1141.7322
v  -7.8741 0.0002 -1433.0708
v  -169.2914 0.0002 -1433.0708
v  -169.2914 0.0001 -1141.7322
v  -185.0394 0.0001 -1141.7322
v  -185.0394 0.0002 -1433.0708
v  -346.4568 0.0002 -1433.0708
v  -346.4567 0.0001 -1141.7322
v  -362.2047 0.0001 -1141.7322
v  -362.2048 0.0002 -1433.0708
v  -523.6222 0.0002 -1433.0708
v  -523.6221 0.0001 -1141.7322
v  -539.3702 0.0001 -1141.7322
v  -539.3702 0.0002 -1433.0708
v  -700.7876 0.0002 -1433.0708
v  -700.7876 0.0001 -1141.7322
v  -716.5356 0.0001 -1141.7322
v  -716.5356 0.0002 -1433.0708
v  -877.9529 0.0002 -1433.0708
v  -877.9529 0.0001 -1141.7322
v  -893.7010 0.0001 -1141.7322
v  -893.7010 0.0002 -1433.0708
v  -1039.3704 0.0002 -1433.0708
v  -1039.3704 0.0001 -1039.3701
v  -944.8820 0.0001 -793.3071
v  -944.8820 0.0001 -781.4959
v  -1181.1024 0.0001 -1039.3701
v  -1181.1024 0.0001 -535.4330
v  -1039.3702 0.0001 -535.4330
v  -1039.3702 -0.0001 535.4332
v  -893.7009 -0.0001 433.2077
v  -893.7009 0.0001 -433.2099
v  -877.9529 0.0001 -433.2099
v  -716.5355 0.0001 -433.2099
v  -716.5355 -0.0001 433.2077
v  -877.9529 -0.0001 433.2077
v  539.3702 -0.0001 1141.7324
v  539.3702 -0.0002 1433.0709
v  700.7877 -0.0002 1433.0709
v  551.1812 -0.0001 793.3071
v  716.5357 -0.0001 1141.7324
v  716.5357 -0.0002 1433.0709
v  877.9528 -0.0002 1433.0709
v  700.7877 -0.0001 1141.7324
v  748.0316 -0.0001 793.3071
v  785.4332 -0.0001 748.0315
v  629.9213 -0.0001 793.3071
v  551.1812 -0.0001 781.4961
v  629.9213 -0.0001 781.4961
v  539.3701 0.0001 -433.2100
v  539.3702 -0.0001 433.2076
v  539.3702 -0.0001 781.4961
v  539.3702 -0.0001 793.3071
v  748.0316 -0.0001 781.4961
v  785.4332 -0.0001 629.9212
v  785.4332 -0.0001 551.1811
v  785.4332 -0.0001 433.0708
v  785.4332 -0.0000 354.3307
v  785.4332 -0.0000 236.2204
v  785.4332 -0.0000 157.4803
v  785.4332 -0.0000 39.3700
v  785.4332 0.0000 -39.3701
v  785.4332 0.0000 -157.4803
v  785.4332 0.0000 -236.2205
v  785.4332 0.0000 -354.3307
v  785.4332 0.0001 -433.0709
v  785.4332 0.0001 -551.1812
v  785.4330 0.0001 -629.9213
v  523.6221 0.0001 -433.2100
v  362.2047 0.0001 -433.2099
v  -700.7875 0.0001 -433.2099
v  -539.3702 0.0001 -433.2099
v  -700.7875 -0.0001 433.2077
v  -539.3701 -0.0001 433.2077
v  -523.6221 0.0001 -433.2099
v  -362.2047 0.0001 -433.2099
v  -523.6221 -0.0001 433.2077
v  -362.2047 -0.0001 433.2077
v  -346.4567 0.0001 -433.2099
v  -185.0394 0.0001 -433.2099
v  -346.4567 -0.0001 433.2077
v  -185.0394 -0.0001 433.2077
v  -169.2914 0.0001 -433.2099
v  -7.8740 0.0001 -433.2099
v  -169.2914 -0.0001 433.2077
v  -7.8740 -0.0001 433.2077
v  7.8740 0.0001 -433.2099
v  169.2913 0.0001 -433.2099
v  7.8740 -0.0001 433.2077
v  169.2914 -0.0001 433.2077
v  185.0394 0.0001 -433.2099
v  346.4567 0.0001 -433.2099
v  185.0394 -0.0001 433.2077
v  346.4568 -0.0001 433.2077
v  523.6222 -0.0001 433.2076
v  362.2048 -0.0001 433.2077
v  -1181.1024 0.0001 -523.6221
v  -1051.1812 0.0001 -523.6221
v  -1051.1812 -0.0001 523.6222
v  -629.9212 -0.0001 793.3071
v  -551.1812 -0.0001 781.4961
v  -551.1812 -0.0001 793.3071
v  -433.0709 -0.0001 781.4961
v  -354.3307 -0.0001 781.4961
v  -433.0709 -0.0001 793.3071
v  -354.3307 -0.0001 793.3071
v  -236.2205 -0.0001 781.4961
v  -157.4803 -0.0001 781.4961
v  -236.2205 -0.0001 793.3071
v  -157.4803 -0.0001 793.3071
v  -39.3700 -0.0001 781.4961
v  39.3701 -0.0001 781.4961
v  -39.3700 -0.0001 793.3071
v  39.3701 -0.0001 793.3071
v  157.4803 -0.0001 781.4961
v  236.2205 -0.0001 781.4961
v  157.4803 -0.0001 793.3071
v  236.2205 -0.0001 793.3071
v  354.3307 -0.0001 781.4961
v  433.0709 -0.0001 781.4961
v  354.3307 -0.0001 793.3071
v  433.0709 -0.0001 793.3071
v  -1039.3702 -0.0001 1039.3701
v  -1039.3702 -0.0002 1433.0709
v  -893.7008 -0.0002 1433.0709
v  -893.7008 -0.0001 1141.7325
v  -877.9528 -0.0001 1141.7325
v  -877.9528 -0.0002 1433.0709
v  -716.5355 -0.0002 1433.0709
v  -716.5355 -0.0001 1141.7324
v  -700.7875 -0.0001 1141.7324
v  -700.7875 -0.0002 1433.0709
v  -539.3701 -0.0002 1433.0709
v  -539.3701 -0.0001 1141.7324
v  -523.6221 -0.0001 1141.7324
v  -523.6220 -0.0002 1433.0709
v  -362.2047 -0.0002 1433.0709
v  -362.2047 -0.0001 1141.7324
v  -346.4567 -0.0001 1141.7324
v  -346.4566 -0.0002 1433.0709
v  -185.0393 -0.0002 1433.0709
v  -185.0393 -0.0001 1141.7324
v  -169.2913 -0.0001 1141.7324
v  -169.2913 -0.0002 1433.0709
v  -7.8739 -0.0002 1433.0709
v  -7.8740 -0.0001 1141.7324
v  7.8741 -0.0001 1141.7324
v  7.8741 -0.0002 1433.0709
v  169.2914 -0.0002 1433.0709
v  169.2914 -0.0001 1141.7324
v  185.0394 -0.0001 1141.7324
v  185.0394 -0.0002 1433.0709
v  346.4568 -0.0002 1433.0709
v  346.4568 -0.0001 1141.7324
v  362.2048 -0.0001 1141.7324
v  362.2048 -0.0002 1433.0709
v  523.6222 -0.0002 1433.0709
v  523.6222 -0.0001 1141.7324
v  -748.0316 -0.0001 793.3071
v  -826.7717 -0.0001 793.3071
v  -944.8820 -0.0001 793.3073
v  -944.8820 -0.0001 781.4962
v  -1181.1023 -0.0001 1039.3701
v  -1181.1024 -0.0001 535.4332
v  -826.7717 -0.0001 781.4961
v  -748.0316 -0.0001 781.4961
v  -629.9212 -0.0001 781.4961
v  -1181.1023 -0.0001 1051.1813
v  -1051.1810 -0.0001 1051.1813
v  -1051.1810 -0.0002 1444.8821
v  1051.1813 -0.0002 1444.8821
v  1051.1810 0.0002 -1444.8820
v  -1051.1813 0.0002 -1444.8820
v  -1051.1813 0.0001 -1051.1810
v  -1181.1024 0.0001 -1051.1810
v  -1181.1024 -0.0001 523.6222
v  -1181.1024 0.0002 -1574.8032
v  1181.1023 0.0002 -1574.8032
v  1181.1024 -0.0002 1574.8032
v  -1181.1023 -0.0002 1574.8032
v  1181.1028 7.8738 1574.8033
v  -1181.1023 7.8738 1574.8033
v  -1181.1023 -0.0002 1574.8033
v  1181.1028 -0.0002 1574.8033
v  -1181.1023 7.8738 1456.6931
v  -1181.1023 -0.0002 1456.6931
v  1181.1028 7.8738 1456.6931
v  1181.1028 -0.0002 1456.6931
v  1181.1023 7.8742 -1456.6931
v  -1181.1024 7.8742 -1456.6931
v  -1181.1024 0.0002 -1456.6931
v  1181.1023 0.0002 -1456.6931
v  -1181.1024 7.8742 -1574.8033
v  -1181.1024 0.0002 -1574.8033
v  1181.1023 7.8742 -1574.8032
v  1062.9924 7.8738 1456.6931
v  1062.9921 7.8742 -1456.6931
v  1062.9921 0.0002 -1456.6931
v  1062.9924 -0.0002 1456.6931
v  -1181.1024 7.8740 511.8111
v  -1181.1025 7.8741 -511.8110
v  -1181.1025 0.0001 -511.8110
v  -1181.1024 -0.0001 511.8111
v  -1062.9923 7.8741 -511.8110
v  -1062.9923 0.0001 -511.8110
v  -1062.9922 7.8740 511.8111
v  -1062.9922 -0.0001 511.8111
v  -1181.1024 7.8739 1062.9923
v  -1181.1024 -0.0001 1062.9923
v  -1062.9922 7.8739 1062.9923
v  -1062.9922 -0.0001 1062.9923
v  -1062.9922 7.8738 1456.6931
v  -1062.9922 -0.0002 1456.6931
v  -1181.1024 7.8741 -1062.9922
v  -1181.1024 0.0001 -1062.9922
v  -1062.9923 7.8742 -1456.6931
v  -1062.9923 0.0002 -1456.6931
v  -1062.9923 7.8741 -1062.9922
v  -1062.9923 0.0001 -1062.9922
v  539.3701 7.8740 118.1102
v  -1062.9922 7.8740 118.1103
v  -1062.9922 -0.0000 118.1103
v  539.3701 -0.0000 118.1102
v  -1062.9922 7.8740 -118.1102
v  -1062.9922 0.0000 -118.1102
v  539.3701 7.8740 -118.1103
v  539.3701 0.0000 -118.1103
# 305 vertices

vn -0.0000 1.0000 0.0000
vn 0.0000 1.0000 0.0000
vn 0.0000 -0.0000 1.0000
vn -1.0000 0.0000 -0.0000
vn 0.0000 0.0000 -1.0000
vn 1.0000 0.0000 -0.0000
vn 0.0000 -1.0000 -0.0000
vn -0.0000 -1.0000 -0.0000
vn -1.0000 -0.0000 0.0000
vn -0.0000 0.0000 -1.0000
# 10 vertex normals

vt 0.4043 0.9137 0.0000
vt 0.4041 0.9137 0.0000
vt 0.4041 0.9120 0.0000
vt 0.4043 0.9120 0.0000
vt 0.4043 0.9095 0.0000
vt 0.4041 0.9095 0.0000
vt 0.4041 0.9079 0.0000
vt 0.4043 0.9079 0.0000
vt 0.4043 0.9054 0.0000
vt 0.4041 0.9054 0.0000
vt 0.4041 0.9037 0.0000
vt 0.4043 0.9037 0.0000
vt 0.4043 0.9012 0.0000
vt 0.4041 0.9012 0.0000
vt 0.4041 0.8995 0.0000
vt 0.4043 0.8995 0.0000
vt 0.4043 0.8970 0.0000
vt 0.4041 0.8970 0.0000
vt 0.4041 0.8954 0.0000
vt 0.4043 0.8954 0.0000
vt 0.4043 0.8929 0.0000
vt 0.4041 0.8929 0.0000
vt 0.4041 0.8912 0.0000
vt 0.4043 0.8912 0.0000
vt 0.4043 0.8887 0.0000
vt 0.4041 0.8887 0.0000
vt 0.4041 0.8870 0.0000
vt 0.4043 0.8870 0.0000
vt 0.4043 0.8845 0.0000
vt 0.4041 0.8845 0.0000
vt 0.4041 0.8829 0.0000
vt 0.4043 0.8829 0.0000
vt 0.4043 0.8804 0.0000
vt 0.4041 0.8804 0.0000
vt 0.4036 0.8796 0.0000
vt 0.4036 0.8793 0.0000
vt 0.3817 0.8793 0.0000
vt 0.3799 0.8793 0.0000
vt 0.3736 0.8776 0.0000
vt 0.3830 0.8793 0.0000
vt 0.3849 0.8793 0.0000
vt 0.3861 0.8793 0.0000
vt 0.3880 0.8793 0.0000
vt 0.3892 0.8793 0.0000
vt 0.3911 0.8793 0.0000
vt 0.3924 0.8793 0.0000
vt 0.3942 0.8793 0.0000
vt 0.3955 0.8793 0.0000
vt 0.3974 0.8793 0.0000
vt 0.3986 0.8793 0.0000
vt 0.4005 0.8793 0.0000
vt 0.4017 0.8793 0.0000
vt 0.4099 0.8776 0.0000
vt 0.3736 0.8773 0.0000
vt 0.3690 0.8773 0.0000
vt 0.3690 0.8742 0.0000
vt 0.4099 0.8773 0.0000
vt 0.4145 0.8742 0.0000
vt 0.4145 0.8773 0.0000
vt 0.4145 0.8776 0.0000
vt 0.4145 0.8810 0.0000
vt 0.4099 0.8810 0.0000
vt 0.4099 0.8814 0.0000
vt 0.4145 0.8814 0.0000
vt 0.4145 0.8848 0.0000
vt 0.4099 0.8848 0.0000
vt 0.4099 0.8851 0.0000
vt 0.4145 0.8851 0.0000
vt 0.4145 0.8885 0.0000
vt 0.4099 0.8885 0.0000
vt 0.4099 0.8889 0.0000
vt 0.4145 0.8889 0.0000
vt 0.4145 0.8923 0.0000
vt 0.4099 0.8923 0.0000
vt 0.4099 0.8926 0.0000
vt 0.4145 0.8926 0.0000
vt 0.4145 0.8960 0.0000
vt 0.4099 0.8960 0.0000
vt 0.4099 0.8964 0.0000
vt 0.4145 0.8964 0.0000
vt 0.4145 0.8998 0.0000
vt 0.4099 0.8998 0.0000
vt 0.4099 0.9001 0.0000
vt 0.4145 0.9001 0.0000
vt 0.4145 0.9035 0.0000
vt 0.4099 0.9035 0.0000
vt 0.4099 0.9039 0.0000
vt 0.4145 0.9039 0.0000
vt 0.4145 0.9073 0.0000
vt 0.4099 0.9073 0.0000
vt 0.4099 0.9076 0.0000
vt 0.4145 0.9076 0.0000
vt 0.4145 0.9110 0.0000
vt 0.4099 0.9110 0.0000
vt 0.4099 0.9114 0.0000
vt 0.4145 0.9114 0.0000
vt 0.4145 0.9148 0.0000
vt 0.4099 0.9148 0.0000
vt 0.4099 0.9151 0.0000
vt 0.4145 0.9151 0.0000
vt 0.4145 0.9182 0.0000
vt 0.4082 0.9182 0.0000
vt 0.4043 0.9162 0.0000
vt 0.4041 0.9162 0.0000
vt 0.4082 0.9212 0.0000
vt 0.4002 0.9212 0.0000
vt 0.4002 0.9182 0.0000
vt 0.3832 0.9182 0.0000
vt 0.3848 0.9151 0.0000
vt 0.3986 0.9151 0.0000
vt 0.3986 0.9148 0.0000
vt 0.3986 0.9114 0.0000
vt 0.3848 0.9114 0.0000
vt 0.3848 0.9148 0.0000
vt 0.3736 0.8848 0.0000
vt 0.3690 0.8848 0.0000
vt 0.3690 0.8814 0.0000
vt 0.3791 0.8845 0.0000
vt 0.3736 0.8810 0.0000
vt 0.3690 0.8810 0.0000
vt 0.3690 0.8776 0.0000
vt 0.3736 0.8814 0.0000
vt 0.3791 0.8804 0.0000
vt 0.3799 0.8796 0.0000
vt 0.3791 0.8829 0.0000
vt 0.3793 0.8845 0.0000
vt 0.3793 0.8829 0.0000
vt 0.3986 0.8848 0.0000
vt 0.3848 0.8848 0.0000
vt 0.3793 0.8848 0.0000
vt 0.3791 0.8848 0.0000
vt 0.3793 0.8804 0.0000
vt 0.3817 0.8796 0.0000
vt 0.3830 0.8796 0.0000
vt 0.3849 0.8796 0.0000
vt 0.3861 0.8796 0.0000
vt 0.3880 0.8796 0.0000
vt 0.3892 0.8796 0.0000
vt 0.3911 0.8796 0.0000
vt 0.3924 0.8796 0.0000
vt 0.3942 0.8796 0.0000
vt 0.3955 0.8796 0.0000
vt 0.3974 0.8796 0.0000
vt 0.3986 0.8796 0.0000
vt 0.4005 0.8796 0.0000
vt 0.4017 0.8796 0.0000
vt 0.3986 0.8851 0.0000
vt 0.3986 0.8885 0.0000
vt 0.3986 0.9110 0.0000
vt 0.3986 0.9076 0.0000
vt 0.3848 0.9110 0.0000
vt 0.3848 0.9076 0.0000
vt 0.3986 0.9073 0.0000
vt 0.3986 0.9039 0.0000
vt 0.3848 0.9073 0.0000
vt 0.3848 0.9039 0.0000
vt 0.3986 0.9035 0.0000
vt 0.3986 0.9001 0.0000
vt 0.3848 0.9035 0.0000
vt 0.3848 0.9001 0.0000
vt 0.3986 0.8998 0.0000
vt 0.3986 0.8964 0.0000
vt 0.3848 0.8998 0.0000
vt 0.3848 0.8964 0.0000
vt 0.3986 0.8960 0.0000
vt 0.3986 0.8926 0.0000
vt 0.3848 0.8960 0.0000
vt 0.3848 0.8926 0.0000
vt 0.3986 0.8923 0.0000
vt 0.3986 0.8889 0.0000
vt 0.3848 0.8923 0.0000
vt 0.3848 0.8889 0.0000
vt 0.3848 0.8851 0.0000
vt 0.3848 0.8885 0.0000
vt 0.5676 0.9231 0.0000
vt 0.5676 0.9261 0.0000
vt 0.5674 0.9261 0.0000
vt 0.5674 0.9234 0.0000
vt 0.5507 0.9234 0.0000
vt 0.5506 0.9231 0.0000
vt 0.3791 0.9095 0.0000
vt 0.3793 0.9079 0.0000
vt 0.3791 0.9079 0.0000
vt 0.3793 0.9054 0.0000
vt 0.3793 0.9037 0.0000
vt 0.3791 0.9054 0.0000
vt 0.3791 0.9037 0.0000
vt 0.3793 0.9012 0.0000
vt 0.3793 0.8995 0.0000
vt 0.3791 0.9012 0.0000
vt 0.3791 0.8995 0.0000
vt 0.3793 0.8970 0.0000
vt 0.3793 0.8954 0.0000
vt 0.3791 0.8970 0.0000
vt 0.3791 0.8954 0.0000
vt 0.3793 0.8929 0.0000
vt 0.3793 0.8912 0.0000
vt 0.3791 0.8929 0.0000
vt 0.3791 0.8912 0.0000
vt 0.3793 0.8887 0.0000
vt 0.3793 0.8870 0.0000
vt 0.3791 0.8887 0.0000
vt 0.3791 0.8870 0.0000
vt 0.3752 0.9182 0.0000
vt 0.3690 0.9182 0.0000
vt 0.3690 0.9151 0.0000
vt 0.3736 0.9151 0.0000
vt 0.3736 0.9148 0.0000
vt 0.3690 0.9148 0.0000
vt 0.3690 0.9114 0.0000
vt 0.3736 0.9114 0.0000
vt 0.3736 0.9110 0.0000
vt 0.3690 0.9110 0.0000
vt 0.3690 0.9076 0.0000
vt 0.3736 0.9076 0.0000
vt 0.3736 0.9073 0.0000
vt 0.3690 0.9073 0.0000
vt 0.3690 0.9039 0.0000
vt 0.3736 0.9039 0.0000
vt 0.3736 0.9035 0.0000
vt 0.3690 0.9035 0.0000
vt 0.3690 0.9001 0.0000
vt 0.3736 0.9001 0.0000
vt 0.3736 0.8998 0.0000
vt 0.3690 0.8998 0.0000
vt 0.3690 0.8964 0.0000
vt 0.3736 0.8964 0.0000
vt 0.3736 0.8960 0.0000
vt 0.3690 0.8960 0.0000
vt 0.3690 0.8926 0.0000
vt 0.3736 0.8926 0.0000
vt 0.3736 0.8923 0.0000
vt 0.3690 0.8923 0.0000
vt 0.3690 0.8889 0.0000
vt 0.3736 0.8889 0.0000
vt 0.3736 0.8885 0.0000
vt 0.3690 0.8885 0.0000
vt 0.3690 0.8851 0.0000
vt 0.3736 0.8851 0.0000
vt 0.3791 0.9120 0.0000
vt 0.3791 0.9137 0.0000
vt 0.3791 0.9162 0.0000
vt 0.3793 0.9162 0.0000
vt 0.3752 0.9212 0.0000
vt 0.3832 0.9212 0.0000
vt 0.3793 0.9137 0.0000
vt 0.3793 0.9120 0.0000
vt 0.3793 0.9095 0.0000
vt 0.5659 0.9197 0.0000
vt 0.5659 0.9200 0.0000
vt 0.5522 0.9200 0.0000
vt 0.5522 0.9197 0.0000
vt 0.5659 0.9159 0.0000
vt 0.5659 0.9163 0.0000
vt 0.5522 0.9163 0.0000
vt 0.5522 0.9159 0.0000
vt 0.5659 0.9122 0.0000
vt 0.5659 0.9125 0.0000
vt 0.5522 0.9125 0.0000
vt 0.5522 0.9122 0.0000
vt 0.5659 0.9084 0.0000
vt 0.5659 0.9088 0.0000
vt 0.5522 0.9088 0.0000
vt 0.5522 0.9084 0.0000
vt 0.5659 0.9047 0.0000
vt 0.5659 0.9050 0.0000
vt 0.5522 0.9050 0.0000
vt 0.5522 0.9047 0.0000
vt 0.5659 0.9009 0.0000
vt 0.5659 0.9013 0.0000
vt 0.5522 0.9013 0.0000
vt 0.5522 0.9009 0.0000
vt 0.5659 0.8972 0.0000
vt 0.5659 0.8975 0.0000
vt 0.5522 0.8975 0.0000
vt 0.5522 0.8972 0.0000
vt 0.5659 0.8934 0.0000
vt 0.5659 0.8938 0.0000
vt 0.5522 0.8938 0.0000
vt 0.5522 0.8934 0.0000
vt 0.5659 0.8897 0.0000
vt 0.5659 0.8900 0.0000
vt 0.5522 0.8900 0.0000
vt 0.5522 0.8897 0.0000
vt 0.5818 0.9200 0.0000
vt 0.5772 0.9200 0.0000
vt 0.5772 0.9197 0.0000
vt 0.5818 0.9197 0.0000
vt 0.5818 0.9163 0.0000
vt 0.5772 0.9163 0.0000
vt 0.5772 0.9159 0.0000
vt 0.5818 0.9159 0.0000
vt 0.5818 0.9125 0.0000
vt 0.5772 0.9125 0.0000
vt 0.5772 0.9122 0.0000
vt 0.5818 0.9122 0.0000
vt 0.5818 0.9088 0.0000
vt 0.5772 0.9088 0.0000
vt 0.5772 0.9084 0.0000
vt 0.5818 0.9084 0.0000
vt 0.5818 0.9050 0.0000
vt 0.5772 0.9050 0.0000
vt 0.5772 0.9047 0.0000
vt 0.5818 0.9047 0.0000
vt 0.5818 0.9013 0.0000
vt 0.5772 0.9013 0.0000
vt 0.5772 0.9009 0.0000
vt 0.5818 0.9009 0.0000
vt 0.5818 0.8975 0.0000
vt 0.5772 0.8975 0.0000
vt 0.5772 0.8972 0.0000
vt 0.5818 0.8972 0.0000
vt 0.5818 0.8938 0.0000
vt 0.5772 0.8938 0.0000
vt 0.5772 0.8934 0.0000
vt 0.5818 0.8934 0.0000
vt 0.5818 0.8900 0.0000
vt 0.5772 0.8900 0.0000
vt 0.5772 0.8897 0.0000
vt 0.5818 0.8897 0.0000
vt 0.5818 0.8863 0.0000
vt 0.5772 0.8863 0.0000
vt 0.5772 0.8859 0.0000
vt 0.5818 0.8859 0.0000
vt 0.5818 0.8825 0.0000
vt 0.5772 0.8825 0.0000
vt 0.5772 0.8822 0.0000
vt 0.5818 0.8822 0.0000
vt 0.5363 0.8822 0.0000
vt 0.5409 0.8822 0.0000
vt 0.5409 0.8825 0.0000
vt 0.5363 0.8825 0.0000
vt 0.5363 0.8859 0.0000
vt 0.5409 0.8859 0.0000
vt 0.5409 0.8863 0.0000
vt 0.5363 0.8863 0.0000
vt 0.5363 0.8897 0.0000
vt 0.5409 0.8897 0.0000
vt 0.5409 0.8900 0.0000
vt 0.5363 0.8900 0.0000
vt 0.5363 0.8934 0.0000
vt 0.5409 0.8934 0.0000
vt 0.5409 0.8938 0.0000
vt 0.5363 0.8938 0.0000
vt 0.5363 0.8972 0.0000
vt 0.5409 0.8972 0.0000
vt 0.5409 0.8975 0.0000
vt 0.5363 0.8975 0.0000
vt 0.5363 0.9009 0.0000
vt 0.5409 0.9009 0.0000
vt 0.5409 0.9013 0.0000
vt 0.5363 0.9013 0.0000
vt 0.5363 0.9047 0.0000
vt 0.5409 0.9047 0.0000
vt 0.5409 0.9050 0.0000
vt 0.5363 0.9050 0.0000
vt 0.5363 0.9084 0.0000
vt 0.5409 0.9084 0.0000
vt 0.5409 0.9088 0.0000
vt 0.5363 0.9088 0.0000
vt 0.5363 0.9122 0.0000
vt 0.5409 0.9122 0.0000
vt 0.5409 0.9125 0.0000
vt 0.5363 0.9125 0.0000
vt 0.5363 0.9159 0.0000
vt 0.5409 0.9159 0.0000
vt 0.5409 0.9163 0.0000
vt 0.5363 0.9163 0.0000
vt 0.5363 0.9197 0.0000
vt 0.5409 0.9197 0.0000
vt 0.5409 0.9200 0.0000
vt 0.5363 0.9200 0.0000
vt 0.5426 0.9231 0.0000
vt 0.5426 0.9261 0.0000
vt 0.5424 0.9261 0.0000
vt 0.5424 0.9234 0.0000
vt 0.5363 0.9231 0.0000
vt 0.5361 0.9234 0.0000
vt 0.5363 0.8791 0.0000
vt 0.5361 0.8789 0.0000
vt 0.5818 0.8791 0.0000
vt 0.5820 0.8789 0.0000
vt 0.5818 0.9231 0.0000
vt 0.5820 0.9234 0.0000
vt 0.5756 0.9231 0.0000
vt 0.5757 0.9234 0.0000
vt 0.5756 0.9261 0.0000
vt 0.5757 0.9261 0.0000
vt 0.4000 0.9212 0.0000
vt 0.3834 0.9212 0.0000
vt 0.3834 0.9184 0.0000
vt 0.4000 0.9184 0.0000
vt 0.5507 0.9261 0.0000
vt 0.5506 0.9261 0.0000
vt 0.4167 0.9212 0.0000
vt 0.4084 0.9212 0.0000
vt 0.4084 0.9184 0.0000
vt 0.4147 0.9184 0.0000
vt 0.4167 0.8712 0.0000
vt 0.4147 0.8739 0.0000
vt 0.3667 0.8712 0.0000
vt 0.3688 0.8739 0.0000
vt 0.3688 0.9184 0.0000
vt 0.3750 0.9184 0.0000
vt 0.3750 0.9212 0.0000
vt 0.3667 0.9212 0.0000
vt 0.5715 0.9211 0.0000
vt 0.5715 0.9186 0.0000
vt 0.5717 0.9186 0.0000
vt 0.5717 0.9211 0.0000
vt 0.5715 0.9128 0.0000
vt 0.5715 0.9103 0.0000
vt 0.5717 0.9103 0.0000
vt 0.5717 0.9128 0.0000
vt 0.5715 0.9169 0.0000
vt 0.5715 0.9144 0.0000
vt 0.5717 0.9144 0.0000
vt 0.5717 0.9169 0.0000
vt 0.5717 0.9086 0.0000
vt 0.5715 0.9086 0.0000
vt 0.5715 0.9061 0.0000
vt 0.5717 0.9061 0.0000
vt 0.5717 0.9044 0.0000
vt 0.5715 0.9044 0.0000
vt 0.5715 0.9019 0.0000
vt 0.5717 0.9019 0.0000
vt 0.5717 0.9003 0.0000
vt 0.5715 0.9003 0.0000
vt 0.5715 0.8978 0.0000
vt 0.5717 0.8978 0.0000
vt 0.5717 0.8919 0.0000
vt 0.5715 0.8919 0.0000
vt 0.5715 0.8894 0.0000
vt 0.5717 0.8894 0.0000
vt 0.5717 0.8878 0.0000
vt 0.5715 0.8878 0.0000
vt 0.5715 0.8853 0.0000
vt 0.5717 0.8853 0.0000
vt 0.5717 0.8961 0.0000
vt 0.5715 0.8961 0.0000
vt 0.5715 0.8936 0.0000
vt 0.5717 0.8936 0.0000
vt 0.5709 0.8842 0.0000
vt 0.5709 0.8845 0.0000
vt 0.5691 0.8845 0.0000
vt 0.5691 0.8842 0.0000
vt 0.5678 0.8845 0.0000
vt 0.5659 0.8845 0.0000
vt 0.5659 0.8842 0.0000
vt 0.5678 0.8842 0.0000
vt 0.5616 0.8845 0.0000
vt 0.5597 0.8845 0.0000
vt 0.5597 0.8842 0.0000
vt 0.5616 0.8842 0.0000
vt 0.5647 0.8845 0.0000
vt 0.5628 0.8845 0.0000
vt 0.5628 0.8842 0.0000
vt 0.5647 0.8842 0.0000
vt 0.5584 0.8845 0.0000
vt 0.5566 0.8845 0.0000
vt 0.5566 0.8842 0.0000
vt 0.5584 0.8842 0.0000
vt 0.5553 0.8845 0.0000
vt 0.5534 0.8845 0.0000
vt 0.5534 0.8842 0.0000
vt 0.5553 0.8842 0.0000
vt 0.5522 0.8845 0.0000
vt 0.5503 0.8845 0.0000
vt 0.5503 0.8842 0.0000
vt 0.5522 0.8842 0.0000
vt 0.5465 0.8878 0.0000
vt 0.5465 0.8853 0.0000
vt 0.5467 0.8853 0.0000
vt 0.5467 0.8878 0.0000
vt 0.5491 0.8845 0.0000
vt 0.5472 0.8845 0.0000
vt 0.5472 0.8842 0.0000
vt 0.5491 0.8842 0.0000
vt 0.5465 0.8919 0.0000
vt 0.5465 0.8897 0.0000
vt 0.5465 0.8894 0.0000
vt 0.5467 0.8894 0.0000
vt 0.5467 0.8897 0.0000
vt 0.5467 0.8919 0.0000
vt 0.5467 0.8961 0.0000
vt 0.5465 0.8961 0.0000
vt 0.5465 0.8936 0.0000
vt 0.5467 0.8936 0.0000
vt 0.5467 0.9003 0.0000
vt 0.5465 0.9003 0.0000
vt 0.5465 0.8978 0.0000
vt 0.5467 0.8978 0.0000
vt 0.5467 0.9086 0.0000
vt 0.5465 0.9086 0.0000
vt 0.5465 0.9061 0.0000
vt 0.5467 0.9061 0.0000
vt 0.5467 0.9044 0.0000
vt 0.5465 0.9044 0.0000
vt 0.5465 0.9019 0.0000
vt 0.5467 0.9019 0.0000
vt 0.5467 0.9128 0.0000
vt 0.5465 0.9128 0.0000
vt 0.5465 0.9103 0.0000
vt 0.5467 0.9103 0.0000
vt 0.5467 0.9169 0.0000
vt 0.5465 0.9169 0.0000
vt 0.5465 0.9144 0.0000
vt 0.5467 0.9144 0.0000
vt 0.5465 0.9211 0.0000
vt 0.5465 0.9186 0.0000
vt 0.5467 0.9186 0.0000
vt 0.5467 0.9211 0.0000
vt 0.2092 0.8490 0.0000
vt 0.2092 0.8990 0.0000
vt 0.2111 0.8990 0.0000
vt 0.2111 0.8490 0.0000
vt 0.2574 0.8490 0.0000
vt 0.2574 0.8990 0.0000
vt 0.2592 0.8990 0.0000
vt 0.2592 0.8490 0.0000
vt 0.2111 0.8515 0.0000
vt 0.2574 0.8515 0.0000
vt 0.2261 0.8990 0.0000
vt 0.2424 0.8990 0.0000
vt 0.2424 0.8965 0.0000
vt 0.2261 0.8965 0.0000
vt 0.2174 0.8990 0.0000
vt 0.2174 0.8965 0.0000
vt 0.2111 0.8965 0.0000
vt 0.2511 0.8990 0.0000
vt 0.2574 0.8965 0.0000
vt 0.2511 0.8965 0.0000
vt 0.2324 0.8626 0.0000
vt 0.2324 0.8965 0.0000
vt 0.2361 0.8965 0.0000
vt 0.2361 0.8626 0.0000
# 536 texture coords

g SPW_Urban_Road_Parking_Lot_Big
usemtl SPW_Urban_Road
s 1
f 1/1/1 2/2/1 3/3/2 4/4/2 
f 5/5/2 6/6/2 7/7/2 8/8/2 
f 9/9/2 10/10/2 11/11/2 12/12/2 
f 13/13/2 14/14/2 15/15/2 16/16/2 
f 17/17/2 18/18/2 19/19/2 20/20/2 
f 21/21/2 22/22/2 23/23/2 24/24/2 
f 25/25/2 26/26/2 27/27/2 28/28/2 
f 29/29/2 30/30/2 31/31/2 32/32/2 
f 33/33/2 34/34/2 35/35/2 36/36/2 
f 37/37/1 38/38/2 39/39/2 40/40/2 
f 41/41/2 40/40/2 39/39/2 42/42/2 
f 43/43/2 42/42/2 39/39/2 44/44/1 
f 45/45/1 44/44/1 39/39/2 46/46/2 
f 47/47/2 46/46/2 39/39/2 48/48/2 
f 49/49/1 48/48/2 39/39/2 50/50/2 
f 51/51/2 50/50/2 39/39/2 52/52/2 
f 36/36/2 52/52/2 39/39/2 53/53/2 
f 54/54/2 55/55/2 56/56/2 57/57/2 
f 56/56/2 58/58/1 59/59/2 57/57/2 
f 39/39/2 54/54/2 57/57/2 53/53/2 
f 33/33/2 36/36/2 53/53/2 32/32/2 
f 29/29/2 32/32/2 53/53/2 28/28/2 
f 53/53/2 60/60/2 61/61/2 62/62/2 
f 63/63/2 64/64/2 65/65/2 66/66/2 
f 67/67/2 68/68/2 69/69/2 70/70/2 
f 71/71/2 72/72/2 73/73/2 74/74/2 
f 75/75/2 76/76/2 77/77/2 78/78/2 
f 79/79/2 80/80/2 81/81/2 82/82/2 
f 83/83/2 84/84/2 85/85/2 86/86/2 
f 87/87/2 88/88/2 89/89/2 90/90/2 
f 91/91/2 92/92/2 93/93/2 94/94/2 
f 95/95/2 96/96/2 97/97/2 98/98/2 
f 99/99/1 100/100/2 101/101/2 102/102/1 
f 98/98/2 99/99/1 102/102/1 95/95/2 
f 94/94/2 95/95/2 102/102/1 91/91/2 
f 90/90/2 91/91/2 102/102/1 87/87/2 
f 86/86/2 87/87/2 102/102/1 83/83/2 
f 82/82/2 83/83/2 102/102/1 79/79/2 
f 78/78/2 79/79/2 102/102/1 75/75/2 
f 74/74/2 75/75/2 102/102/1 71/71/2 
f 70/70/2 71/71/2 102/102/1 67/67/2 
f 66/66/2 67/67/2 102/102/1 63/63/2 
f 62/62/2 63/63/2 102/102/1 53/53/2 
f 28/28/2 53/53/2 102/102/1 25/25/2 
f 24/24/2 25/25/2 102/102/1 21/21/2 
f 20/20/2 21/21/2 102/102/1 17/17/2 
f 16/16/2 17/17/2 102/102/1 13/13/2 
f 12/12/2 13/13/2 102/102/1 9/9/2 
f 8/8/2 9/9/2 102/102/1 5/5/2 
f 4/4/2 5/5/2 102/102/1 1/1/1 
f 103/103/2 1/1/1 102/102/1 104/104/2 
f 102/102/1 105/105/2 106/106/2 107/107/1 
f 107/107/1 108/108/2 109/109/1 110/110/2 
f 102/102/1 107/107/1 110/110/2 104/104/2 
f 104/104/2 110/110/2 111/111/2 112/112/1 
f 113/113/2 112/112/1 111/111/2 114/114/1 
f 115/115/1 116/116/2 117/117/2 118/118/2 
f 119/119/1 120/120/2 121/121/2 38/38/2 
f 121/121/2 39/39/2 38/38/2 
f 122/122/2 119/119/1 38/38/2 123/123/1 
f 38/38/2 124/124/1 123/123/1 
f 122/122/2 123/123/1 125/125/2 126/126/2 
f 125/125/2 127/127/2 128/128/1 129/129/1 
f 129/129/1 130/130/2 126/126/2 125/125/2 
f 117/117/2 122/122/2 126/126/2 118/118/2 
f 115/115/1 118/118/2 131/131/2 
f 128/128/1 127/127/2 132/132/1 124/124/1 
f 132/132/1 123/123/1 124/124/1 
f 128/128/1 124/124/1 133/133/2 134/134/1 
f 133/133/2 37/37/1 40/40/2 134/134/1 
f 128/128/1 134/134/1 135/135/2 136/136/2 
f 135/135/2 41/41/2 42/42/2 136/136/2 
f 128/128/1 136/136/2 137/137/1 138/138/1 
f 137/137/1 43/43/2 44/44/1 138/138/1 
f 128/128/1 138/138/1 139/139/1 31/31/2 
f 139/139/1 45/45/1 46/46/2 140/140/2 
f 141/141/2 47/47/2 48/48/2 142/142/2 
f 143/143/1 49/49/1 50/50/2 144/144/1 
f 145/145/2 51/51/2 52/52/2 146/146/2 
f 146/146/2 35/35/2 34/34/2 31/31/2 
f 145/145/2 146/146/2 31/31/2 144/144/1 
f 143/143/1 144/144/1 31/31/2 142/142/2 
f 141/141/2 142/142/2 31/31/2 140/140/2 
f 139/139/1 140/140/2 31/31/2 
f 147/147/2 128/128/1 31/31/2 148/148/2 
f 2/2/1 104/104/2 112/112/1 3/3/2 
f 6/6/2 3/3/2 112/112/1 7/7/2 
f 10/10/2 7/7/2 112/112/1 11/11/2 
f 14/14/2 11/11/2 112/112/1 15/15/2 
f 18/18/2 15/15/2 112/112/1 19/19/2 
f 22/22/2 19/19/2 112/112/1 23/23/2 
f 26/26/2 23/23/2 112/112/1 27/27/2 
f 30/30/2 27/27/2 112/112/1 31/31/2 
f 31/31/2 112/112/1 149/149/2 150/150/2 
f 149/149/2 151/151/2 152/152/1 150/150/2 
f 31/31/2 150/150/2 153/153/2 154/154/2 
f 153/153/2 155/155/2 156/156/2 154/154/2 
f 31/31/2 154/154/2 157/157/2 158/158/2 
f 157/157/2 159/159/2 160/160/2 158/158/2 
f 31/31/2 158/158/2 161/161/2 162/162/2 
f 161/161/2 163/163/2 164/164/2 162/162/2 
f 31/31/2 162/162/2 165/165/2 166/166/2 
f 165/165/2 167/167/2 168/168/2 166/166/2 
f 31/31/2 166/166/2 169/169/2 170/170/2 
f 169/169/2 171/171/2 172/172/2 170/170/2 
f 31/31/2 170/170/2 148/148/2 
f 173/173/2 147/147/2 148/148/2 174/174/2 
f 107/175/1 106/176/2 175/177/2 176/178/1 
f 107/175/1 176/178/1 177/179/2 108/180/2 
f 155/155/2 152/152/1 178/181/1 156/156/2 
f 159/159/2 156/156/2 178/181/1 160/160/2 
f 163/163/2 160/160/2 178/181/1 164/164/2 
f 167/167/2 164/164/2 178/181/1 168/168/2 
f 171/171/2 168/168/2 178/181/1 172/172/2 
f 174/174/2 172/172/2 178/181/1 179/182/2 
f 178/181/1 180/183/2 179/182/2 
f 174/174/2 179/182/2 181/184/2 182/185/2 
f 181/184/2 183/186/2 184/187/2 182/185/2 
f 174/174/2 182/185/2 185/188/2 186/189/2 
f 185/188/2 187/190/2 188/191/2 186/189/2 
f 174/174/2 186/189/2 189/192/2 190/193/2 
f 189/192/2 191/194/2 192/195/2 190/193/2 
f 174/174/2 190/193/2 193/196/2 194/197/2 
f 193/196/2 195/198/2 196/199/2 194/197/2 
f 174/174/2 194/197/2 197/200/2 198/201/2 
f 197/200/2 199/202/2 200/203/2 198/201/2 
f 173/173/2 174/174/2 198/201/2 129/129/1 
f 129/129/1 198/201/2 130/130/2 
f 201/204/1 202/205/2 203/206/1 204/207/1 
f 205/208/2 206/209/2 207/210/2 208/211/2 
f 209/212/2 210/213/2 211/214/2 212/215/2 
f 213/216/2 214/217/2 215/218/2 216/219/2 
f 217/220/2 218/221/2 219/222/2 220/223/2 
f 221/224/2 222/225/2 223/226/2 224/227/2 
f 225/228/2 226/229/2 227/230/2 228/231/2 
f 229/232/2 230/233/2 231/234/2 232/235/2 
f 233/236/2 234/237/2 235/238/2 236/239/2 
f 236/239/2 115/115/1 131/131/2 200/203/2 
f 233/236/2 236/239/2 200/203/2 232/235/2 
f 229/232/2 232/235/2 200/203/2 228/231/2 
f 225/228/2 228/231/2 200/203/2 224/227/2 
f 221/224/2 224/227/2 200/203/2 220/223/2 
f 217/220/2 220/223/2 200/203/2 216/219/2 
f 213/216/2 216/219/2 200/203/2 212/215/2 
f 209/212/2 212/215/2 200/203/2 208/211/2 
f 205/208/2 208/211/2 200/203/2 199/202/2 
f 205/208/2 199/202/2 196/199/2 195/198/2 
f 205/208/2 195/198/2 192/195/2 191/194/2 
f 205/208/2 191/194/2 188/191/2 187/190/2 
f 205/208/2 187/190/2 184/187/2 183/186/2 
f 205/208/2 183/186/2 180/183/2 178/181/1 
f 205/208/2 178/181/1 237/240/2 238/241/1 
f 205/208/2 238/241/1 239/242/2 108/108/2 
f 240/243/2 113/113/2 114/114/1 108/108/2 
f 114/114/1 109/109/1 108/108/2 
f 239/242/2 240/243/2 108/108/2 
f 204/207/1 205/208/2 108/108/2 201/204/1 
f 241/244/2 201/204/1 108/108/2 242/245/2 
f 151/151/2 113/113/2 240/243/2 152/152/1 
f 152/152/1 240/243/2 243/246/1 244/247/2 
f 243/246/1 238/241/1 237/240/2 244/247/2 
f 152/152/1 244/247/2 245/248/1 178/181/1 
f 111/249/2 110/250/2 109/251/1 114/252/1 
f 149/253/2 112/254/1 113/255/2 151/256/2 
f 153/257/2 150/258/2 152/259/1 155/260/2 
f 157/261/2 154/262/2 156/263/2 159/264/2 
f 161/265/2 158/266/2 160/267/2 163/268/2 
f 165/269/2 162/270/2 164/271/2 167/272/2 
f 169/273/2 166/274/2 168/275/2 171/276/2 
f 148/277/2 170/278/2 172/279/2 174/280/2 
f 128/281/1 147/282/2 173/283/2 129/284/1 
f 100/285/2 99/286/1 98/287/2 97/288/2 
f 96/289/2 95/290/2 94/291/2 93/292/2 
f 92/293/2 91/294/2 90/295/2 89/296/2 
f 88/297/2 87/298/2 86/299/2 85/300/2 
f 84/301/2 83/302/2 82/303/2 81/304/2 
f 80/305/2 79/306/2 78/307/2 77/308/2 
f 76/309/2 75/310/2 74/311/2 73/312/2 
f 72/313/2 71/314/2 70/315/2 69/316/2 
f 68/317/2 67/318/2 66/319/2 65/320/2 
f 64/321/2 63/322/2 62/323/2 61/324/2 
f 60/325/2 53/326/2 57/327/2 59/328/2 
f 55/329/2 54/330/2 39/331/2 121/332/2 
f 120/333/2 119/334/1 122/335/2 117/336/2 
f 116/337/2 115/338/1 236/339/2 235/340/2 
f 234/341/2 233/342/2 232/343/2 231/344/2 
f 230/345/2 229/346/2 228/347/2 227/348/2 
f 226/349/2 225/350/2 224/351/2 223/352/2 
f 222/353/2 221/354/2 220/355/2 219/356/2 
f 218/357/2 217/358/2 216/359/2 215/360/2 
f 214/361/2 213/362/2 212/363/2 211/364/2 
f 210/365/2 209/366/2 208/367/2 207/368/2 
f 206/369/2 205/370/2 204/371/1 203/372/1 
f 201/373/1 241/374/2 246/375/2 247/376/2 
f 202/377/2 201/373/1 247/376/2 248/378/2 
f 203/372/1 202/377/2 248/378/2 206/369/2 
f 207/368/2 206/369/2 248/378/2 210/365/2 
f 211/364/2 210/365/2 248/378/2 214/361/2 
f 215/360/2 214/361/2 248/378/2 218/357/2 
f 219/356/2 218/357/2 248/378/2 222/353/2 
f 223/352/2 222/353/2 248/378/2 226/349/2 
f 227/348/2 226/349/2 248/378/2 230/345/2 
f 231/344/2 230/345/2 248/378/2 234/341/2 
f 235/340/2 234/341/2 248/378/2 116/337/2 
f 117/336/2 116/337/2 248/378/2 120/333/2 
f 121/332/2 120/333/2 248/378/2 55/329/2 
f 56/379/2 55/329/2 248/378/2 249/380/1 
f 58/381/1 56/379/2 249/380/1 250/382/2 
f 59/328/2 58/381/1 250/382/2 60/325/2 
f 61/324/2 60/325/2 250/382/2 64/321/2 
f 65/320/2 64/321/2 250/382/2 68/317/2 
f 69/316/2 68/317/2 250/382/2 72/313/2 
f 73/312/2 72/313/2 250/382/2 76/309/2 
f 77/308/2 76/309/2 250/382/2 80/305/2 
f 81/304/2 80/305/2 250/382/2 84/301/2 
f 85/300/2 84/301/2 250/382/2 88/297/2 
f 89/296/2 88/297/2 250/382/2 92/293/2 
f 93/292/2 92/293/2 250/382/2 96/289/2 
f 97/288/2 96/289/2 250/382/2 100/285/2 
f 101/383/2 100/285/2 250/382/2 251/384/1 
f 102/385/1 101/383/2 251/384/1 252/386/1 
f 105/387/2 102/385/1 252/386/1 253/388/2 
f 175/389/2 254/390/2 177/391/2 176/392/1 
f 108/180/2 177/179/2 254/393/2 242/394/2 
f 255/395/1 253/396/2 252/397/1 251/398/1 
f 256/399/2 255/395/1 251/398/1 250/400/2 
f 257/401/1 256/399/2 250/400/2 249/402/1 
f 248/403/2 247/404/2 246/405/2 258/406/2 
f 249/402/1 248/403/2 258/406/2 257/401/1 
f 104/407/2 2/408/1 1/409/1 103/410/2 
f 7/411/2 10/412/2 9/413/2 8/414/2 
f 3/415/2 6/416/2 5/417/2 4/418/2 
f 12/419/2 11/420/2 14/421/2 13/422/2 
f 16/423/2 15/424/2 18/425/2 17/426/2 
f 20/427/2 19/428/2 22/429/2 21/430/2 
f 28/431/2 27/432/2 30/433/2 29/434/2 
f 32/435/2 31/436/2 34/437/2 33/438/2 
f 24/439/2 23/440/2 26/441/2 25/442/2 
f 36/443/2 35/444/2 146/445/2 52/446/2 
f 145/447/2 144/448/1 50/449/2 51/450/2 
f 141/451/2 140/452/2 46/453/2 47/454/2 
f 143/455/1 142/456/2 48/457/2 49/458/1 
f 139/459/1 138/460/1 44/461/1 45/462/1 
f 137/463/1 136/464/2 42/465/2 43/466/2 
f 135/467/2 134/468/1 40/469/2 41/470/2 
f 125/471/2 123/472/1 132/473/1 127/474/2 
f 133/475/2 124/476/1 38/477/2 37/478/1 
f 200/479/2 131/480/2 118/481/2 126/482/2 
f 200/479/2 126/482/2 130/483/2 198/484/2 
f 194/485/2 196/486/2 199/487/2 197/488/2 
f 190/489/2 192/490/2 195/491/2 193/492/2 
f 182/493/2 184/494/2 187/495/2 185/496/2 
f 186/497/2 188/498/2 191/499/2 189/500/2 
f 179/501/2 180/502/2 183/503/2 181/504/2 
f 244/505/2 237/506/2 178/507/1 245/508/1 
f 239/509/2 238/510/1 243/511/1 240/512/2 
s off
f 259/513/3 260/514/3 261/514/3 262/513/3 
f 260/514/4 263/515/4 264/515/4 261/514/4 
f 263/515/5 265/516/5 266/516/5 264/515/5 
f 265/516/6 259/513/6 262/513/6 266/516/6 
f 262/513/7 261/514/7 264/515/7 266/516/7 
f 265/516/2 263/515/2 260/514/2 259/513/2 
f 267/517/3 268/518/3 269/518/3 270/517/3 
f 268/518/4 271/519/4 272/519/4 269/518/4 
f 271/519/5 273/520/5 256/520/5 272/519/5 
f 273/520/6 267/517/6 270/517/6 256/520/6 
f 270/517/8 269/518/8 272/519/8 256/520/8 
f 273/520/2 271/519/2 268/518/2 267/517/2 
f 274/521/9 275/522/9 276/522/9 277/521/9 
f 275/522/5 267/517/5 270/517/5 276/522/5 
f 267/517/6 265/516/6 266/516/6 270/517/6 
f 265/516/3 274/521/3 277/521/3 266/516/3 
f 277/521/7 276/522/7 270/517/7 266/516/7 
f 265/516/2 267/517/2 275/522/2 274/521/2 
f 278/523/9 279/524/9 280/524/9 281/523/9 
f 279/524/5 282/525/5 283/525/5 280/524/5 
f 282/525/6 284/526/6 285/526/6 283/525/6 
f 284/526/3 278/523/3 281/523/3 285/526/3 
f 281/523/7 280/524/7 283/525/7 285/526/7 
f 284/526/2 282/525/2 279/524/2 278/523/2 
f 263/515/9 286/527/9 287/527/9 264/515/9 
f 286/527/5 288/528/5 289/528/5 287/527/5 
f 288/528/6 290/529/6 291/529/6 289/528/6 
f 290/529/3 263/515/3 264/515/3 291/529/3 
f 264/515/7 287/527/7 289/528/7 291/529/7 
f 290/529/2 288/528/2 286/527/2 263/515/2 
f 292/530/4 268/518/4 269/518/4 293/530/4 
f 268/518/5 294/531/5 295/531/5 269/518/5 
f 294/531/6 296/532/6 297/532/6 295/531/6 
f 296/532/3 292/530/3 293/530/3 297/532/3 
f 293/530/7 269/518/7 295/531/7 297/532/7 
f 296/532/2 294/531/2 268/518/2 292/530/2 
f 298/533/3 299/534/3 300/534/3 301/533/3 
f 299/534/4 302/535/4 303/535/4 300/534/4 
f 302/535/10 304/536/10 305/536/10 303/535/10 
f 304/536/6 298/533/6 301/533/6 305/536/6 
f 301/533/8 300/534/8 303/535/8 305/536/8 
f 304/536/1 302/535/1 299/534/1 298/533/1 
# 288 polygons - 10 triangles

