# 3ds Max Wavefront OBJ Exporter v0.97b - (c)2007 guruware
# File Created: 15.03.2017 11:26:46

mtllib SPW_Urban_Road 2way_04.mtl

#
# object SPW_Urban_Road_2way_04
#

v  -263.7795 0.0000 -263.7795
v  393.7008 0.0000 -263.7796
v  393.7008 0.0000 -393.7008
v  -393.7008 0.0000 -393.7008
v  -263.7795 -0.0000 263.7796
v  -393.7008 -0.0000 393.7008
v  393.7008 -0.0000 263.7795
v  393.7008 -0.0000 393.7008
v  -157.4803 0.0000 -5.9055
v  -39.3700 0.0000 -5.9055
v  -251.9685 0.0000 -251.9685
v  -157.4803 -0.0000 5.9055
v  -251.9685 -0.0000 251.9686
v  -39.3700 -0.0000 5.9055
v  39.3701 -0.0000 5.9055
v  157.4803 -0.0000 5.9055
v  236.2205 -0.0000 5.9055
v  354.3307 -0.0000 5.9055
v  393.7008 -0.0000 251.9685
v  393.7008 0.0000 -251.9686
v  39.3701 0.0000 -5.9055
v  157.4803 0.0000 -5.9055
v  236.2205 0.0000 -5.9055
v  354.3307 0.0000 -5.9055
v  393.7007 7.8740 393.7004
v  -393.7007 7.8740 393.7004
v  -393.7007 -0.0000 393.7004
v  393.7007 -0.0000 393.7004
v  -393.7007 7.8740 275.5902
v  -393.7007 -0.0000 275.5902
v  393.7008 7.8740 275.5901
v  393.7008 -0.0000 275.5901
v  393.7007 7.8740 -275.5910
v  -393.7008 7.8740 -275.5909
v  -393.7008 0.0000 -275.5909
v  393.7007 0.0000 -275.5910
v  -393.7007 7.8741 -393.7012
v  -393.7007 0.0000 -393.7012
v  393.7008 7.8741 -393.7012
v  393.7008 0.0000 -393.7012
v  -275.5905 7.8740 -275.5909
v  -275.5905 7.8740 275.5902
v  -275.5905 -0.0000 275.5902
v  -275.5905 0.0000 -275.5909
v  -393.7008 7.8740 275.5902
v  -393.7008 -0.0000 275.5902
# 46 vertices

vn -0.0000 1.0000 0.0000
vn 0.0000 1.0000 0.0000
vn 0.0000 -0.0000 1.0000
vn -1.0000 0.0000 -0.0000
vn -0.0000 0.0000 -1.0000
vn 1.0000 -0.0000 0.0000
vn 0.0000 -1.0000 -0.0000
vn 0.0000 0.0000 -1.0000
# 8 vertex normals

vt 0.4183 0.9179 0.0000
vt 0.4183 0.8761 0.0000
vt 0.4266 0.8761 0.0000
vt 0.4266 0.9261 0.0000
vt 0.3848 0.9179 0.0000
vt 0.3766 0.9261 0.0000
vt 0.3848 0.8761 0.0000
vt 0.3766 0.8761 0.0000
vt 0.4019 0.9111 0.0000
vt 0.4019 0.9036 0.0000
vt 0.4176 0.9171 0.0000
vt 0.4012 0.9111 0.0000
vt 0.3856 0.9171 0.0000
vt 0.4012 0.9036 0.0000
vt 0.4012 0.8986 0.0000
vt 0.4012 0.8911 0.0000
vt 0.4012 0.8861 0.0000
vt 0.4012 0.8786 0.0000
vt 0.3856 0.8761 0.0000
vt 0.4176 0.8761 0.0000
vt 0.4019 0.8986 0.0000
vt 0.4019 0.8911 0.0000
vt 0.4019 0.8861 0.0000
vt 0.4019 0.8786 0.0000
vt 0.5488 0.9160 0.0000
vt 0.5488 0.9085 0.0000
vt 0.5496 0.9085 0.0000
vt 0.5496 0.9160 0.0000
vt 0.5496 0.9035 0.0000
vt 0.5488 0.9035 0.0000
vt 0.5488 0.8960 0.0000
vt 0.5496 0.8960 0.0000
vt 0.5488 0.8910 0.0000
vt 0.5488 0.8835 0.0000
vt 0.5496 0.8835 0.0000
vt 0.5496 0.8910 0.0000
vt 0.5660 0.9228 0.0000
vt 0.5652 0.9220 0.0000
vt 0.5652 0.8810 0.0000
vt 0.5660 0.8810 0.0000
vt 0.5325 0.9228 0.0000
vt 0.5332 0.9220 0.0000
vt 0.5325 0.8810 0.0000
vt 0.5332 0.8810 0.0000
vt 0.2265 0.8687 0.0000
vt 0.2265 0.9187 0.0000
vt 0.2340 0.9187 0.0000
vt 0.2340 0.8687 0.0000
vt 0.2690 0.8687 0.0000
vt 0.2690 0.9187 0.0000
vt 0.2765 0.9187 0.0000
vt 0.2765 0.8687 0.0000
vt 0.2690 0.9112 0.0000
vt 0.2340 0.9112 0.0000
# 54 texture coords

g SPW_Urban_Road_2way_04
usemtl SPW_Urban_Road
s 1
f 1/1/1 2/2/1 3/3/1 4/4/2 
f 5/5/2 1/1/1 4/4/2 6/6/2 
f 7/7/1 5/5/2 6/6/2 8/8/2 
f 9/9/2 10/10/1 11/11/1 12/12/1 
f 12/12/1 11/11/1 13/13/2 14/14/1 
f 15/15/2 14/14/1 13/13/2 16/16/1 
f 17/17/1 16/16/1 13/13/2 18/18/1 
f 19/19/1 18/18/1 13/13/2 
f 20/20/1 11/11/1 10/10/1 21/21/1 
f 10/10/1 14/14/1 15/15/2 21/21/1 
f 20/20/1 21/21/1 22/22/2 23/23/1 
f 22/22/2 16/16/1 17/17/1 23/23/1 
f 20/20/1 23/23/1 24/24/1 18/18/1 
f 20/20/1 18/18/1 19/19/1 
f 12/25/1 14/26/1 10/27/1 9/28/2 
f 21/29/1 15/30/2 16/31/1 22/32/2 
f 17/33/1 18/34/1 24/35/1 23/36/1 
f 1/37/1 11/38/1 20/39/1 2/40/1 
f 5/41/2 13/42/2 11/38/1 1/37/1 
f 7/43/1 19/44/1 13/42/2 5/41/2 
s off
f 25/45/3 26/46/3 27/46/3 28/45/3 
f 26/46/4 29/47/4 30/47/4 27/46/4 
f 29/47/5 31/48/5 32/48/5 30/47/5 
f 31/48/6 25/45/6 28/45/6 32/48/6 
f 28/45/7 27/46/7 30/47/7 32/48/7 
f 31/48/1 29/47/1 26/46/1 25/45/1 
f 33/49/3 34/50/3 35/50/3 36/49/3 
f 34/50/4 37/51/4 38/51/4 35/50/4 
f 37/51/8 39/52/8 40/52/8 38/51/8 
f 39/52/6 33/49/6 36/49/6 40/52/6 
f 36/49/7 35/50/7 38/51/7 40/52/7 
f 39/52/1 37/51/1 34/50/1 33/49/1 
f 41/53/6 42/54/6 43/54/6 44/53/6 
f 42/54/3 45/47/3 46/47/3 43/54/3 
f 45/47/4 34/50/4 35/50/4 46/47/4 
f 34/50/8 41/53/8 44/53/8 35/50/8 
f 44/53/7 43/54/7 46/47/7 35/50/7 
f 34/50/2 45/47/2 42/54/2 41/53/2 
# 36 polygons - 2 triangles

