# 3ds Max Wavefront OBJ Exporter v0.97b - (c)2007 guruware
# File Created: 15.03.2017 11:28:01

mtllib SPW_Urban_Road 2way_08.mtl

#
# object SPW_Urban_Road_2way_08
#

v  393.7008 -0.0000 393.7008
v  393.7008 0.0000 -251.9686
v  354.3307 -0.0000 5.9055
v  -393.7008 -0.0000 393.7008
v  -354.3307 -0.0000 5.9055
v  -354.3307 0.0000 -5.9055
v  -393.7008 0.0000 -251.9685
v  -236.2205 -0.0000 5.9055
v  -157.4803 -0.0000 5.9055
v  -39.3701 -0.0000 5.9055
v  39.3701 -0.0000 5.9055
v  157.4803 -0.0000 5.9055
v  236.2205 -0.0000 5.9055
v  -236.2205 0.0000 -5.9055
v  -157.4803 0.0000 -5.9055
v  -39.3701 0.0000 -5.9055
v  39.3701 0.0000 -5.9055
v  157.4803 0.0000 -5.9055
v  236.2205 0.0000 -5.9055
v  354.3307 0.0000 -5.9055
v  -393.7008 0.0000 -263.7795
v  393.7008 0.0000 -263.7796
v  393.7008 0.0000 -393.7008
v  -393.7008 0.0000 -393.7008
v  393.7008 7.8740 -275.5907
v  -393.7008 7.8740 -275.5907
v  -393.7008 0.0000 -275.5907
v  393.7008 0.0000 -275.5907
v  -393.7008 7.8741 -393.7009
v  -393.7008 0.0000 -393.7009
v  393.7008 7.8741 -393.7009
v  393.7008 0.0000 -393.7009
# 32 vertices

vn 0.0000 1.0000 0.0000
vn -0.0000 1.0000 0.0000
vn 0.0000 -0.0000 1.0000
vn -1.0000 0.0000 -0.0000
vn 0.0000 0.0000 -1.0000
vn 1.0000 0.0000 -0.0000
vn -0.0000 -1.0000 -0.0000
# 7 vertex normals

vt 0.3815 0.8736 0.0000
vt 0.4225 0.8736 0.0000
vt 0.4061 0.8761 0.0000
vt 0.3815 0.9236 0.0000
vt 0.4061 0.9211 0.0000
vt 0.4069 0.9211 0.0000
vt 0.4225 0.9236 0.0000
vt 0.4061 0.9136 0.0000
vt 0.4061 0.9086 0.0000
vt 0.4061 0.9011 0.0000
vt 0.4061 0.8961 0.0000
vt 0.4061 0.8886 0.0000
vt 0.4061 0.8836 0.0000
vt 0.4069 0.9136 0.0000
vt 0.4069 0.9086 0.0000
vt 0.4069 0.9011 0.0000
vt 0.4069 0.8961 0.0000
vt 0.4069 0.8886 0.0000
vt 0.4069 0.8836 0.0000
vt 0.4069 0.8761 0.0000
vt 0.5144 0.9211 0.0000
vt 0.5144 0.9136 0.0000
vt 0.5151 0.9136 0.0000
vt 0.5151 0.9211 0.0000
vt 0.5315 0.9236 0.0000
vt 0.5308 0.9236 0.0000
vt 0.5308 0.8736 0.0000
vt 0.5315 0.8736 0.0000
vt 0.5151 0.9086 0.0000
vt 0.5144 0.9086 0.0000
vt 0.5144 0.9011 0.0000
vt 0.5151 0.9011 0.0000
vt 0.5151 0.8961 0.0000
vt 0.5144 0.8961 0.0000
vt 0.5144 0.8886 0.0000
vt 0.5151 0.8886 0.0000
vt 0.5144 0.8761 0.0000
vt 0.5151 0.8761 0.0000
vt 0.5151 0.8836 0.0000
vt 0.5144 0.8836 0.0000
vt 0.4232 0.8736 0.0000
vt 0.4315 0.8736 0.0000
vt 0.4315 0.9236 0.0000
vt 0.4232 0.9236 0.0000
vt 0.2117 0.8613 0.0000
vt 0.2117 0.9113 0.0000
vt 0.2617 0.9113 0.0000
vt 0.2617 0.8613 0.0000
# 48 texture coords

g SPW_Urban_Road_2way_08
usemtl SPW_Urban_Road
s 1
f 1/1/1 2/2/2 3/3/2 4/4/2 
f 5/5/2 6/6/2 7/7/2 4/4/2 
f 8/8/1 5/5/2 4/4/2 9/9/1 
f 10/10/1 9/9/1 4/4/2 11/11/2 
f 12/12/1 11/11/2 4/4/2 13/13/2 
f 3/3/2 13/13/2 4/4/2 
f 2/2/2 7/7/2 6/6/2 14/14/2 
f 14/14/2 8/8/1 9/9/1 15/15/1 
f 2/2/2 14/14/2 15/15/1 16/16/2 
f 16/16/2 10/10/1 11/11/2 17/17/1 
f 2/2/2 16/16/2 17/17/1 18/18/2 
f 18/18/2 12/12/1 13/13/2 19/19/1 
f 2/2/2 18/18/2 19/19/1 20/20/1 
f 2/2/2 20/20/1 3/3/2 
f 5/21/2 8/22/1 14/23/2 6/24/2 
f 21/25/2 7/26/2 2/27/2 22/28/2 
f 15/29/1 9/30/1 10/31/1 16/32/2 
f 17/33/1 11/34/2 12/35/1 18/36/2 
f 3/37/2 20/38/1 19/39/1 13/40/2 
f 22/41/2 23/42/1 24/43/2 21/44/2 
s off
f 25/45/3 26/46/3 27/46/3 28/45/3 
f 26/46/4 29/47/4 30/47/4 27/46/4 
f 29/47/5 31/48/5 32/48/5 30/47/5 
f 31/48/6 25/45/6 28/45/6 32/48/6 
f 28/45/7 27/46/7 30/47/7 32/48/7 
f 31/48/2 29/47/2 26/46/2 25/45/2 
# 24 polygons - 2 triangles

