# 3ds Max Wavefront OBJ Exporter v0.97b - (c)2007 guruware
# File Created: 15.03.2017 10:44:10

mtllib SPW_Urban_Bldg_Apartment_02.mtl

#
# object SPW_Urban_Bldg_Apartment_02
#

v  -190.6807 0.0002 198.7544
v  -190.6807 168.3074 198.7544
v  -198.3725 168.3073 191.0626
v  -198.3725 0.0002 191.0626
v  -198.3725 168.3073 165.9720
v  -198.3725 0.0002 165.9720
v  -190.6807 168.3073 158.2802
v  -190.6807 0.0002 158.2802
v  -165.5901 168.3073 158.2802
v  -165.5901 0.0002 158.2802
v  -157.8983 168.3073 165.9720
v  -157.8983 0.0002 165.9720
v  -157.8983 168.3073 191.0626
v  -157.8983 0.0002 191.0626
v  -165.5901 168.3074 198.7544
v  -165.5901 0.0002 198.7544
v  164.6357 0.0002 198.7545
v  164.6357 168.3074 198.7544
v  156.9438 168.3074 191.0626
v  156.9438 0.0002 191.0626
v  156.9438 168.3074 165.9720
v  156.9438 0.0002 165.9721
v  164.6357 168.3074 158.2802
v  164.6357 0.0002 158.2802
v  189.7262 168.3074 158.2802
v  189.7262 0.0002 158.2802
v  197.4180 168.3074 165.9720
v  197.4180 0.0002 165.9721
v  197.4180 168.3074 191.0626
v  197.4180 0.0002 191.0626
v  189.7262 168.3074 198.7544
v  189.7262 0.0002 198.7544
v  -190.6806 0.0002 -156.5619
v  -190.6806 168.3073 -156.5619
v  -198.3725 168.3073 -164.2538
v  -198.3725 0.0002 -164.2537
v  -198.3725 168.3073 -189.3443
v  -198.3725 0.0002 -189.3443
v  -190.6806 168.3073 -197.0361
v  -190.6806 0.0002 -197.0361
v  -165.5901 168.3073 -197.0361
v  -165.5901 0.0002 -197.0361
v  -157.8982 168.3073 -189.3443
v  -157.8982 0.0002 -189.3443
v  -157.8983 168.3073 -164.2537
v  -157.8983 0.0002 -164.2537
v  -165.5901 168.3073 -156.5619
v  -165.5901 0.0002 -156.5619
v  164.6357 0.0002 -156.5619
v  164.6357 168.3073 -156.5619
v  156.9439 168.3073 -164.2537
v  156.9439 0.0002 -164.2537
v  156.9439 168.3073 -189.3443
v  156.9439 0.0002 -189.3443
v  164.6357 168.3073 -197.0361
v  164.6357 0.0002 -197.0361
v  189.7263 168.3073 -197.0361
v  189.7263 0.0002 -197.0361
v  197.4181 168.3073 -189.3443
v  197.4181 0.0002 -189.3442
v  197.4181 168.3073 -164.2537
v  197.4181 0.0002 -164.2537
v  189.7262 168.3073 -156.5619
v  189.7262 0.0002 -156.5619
v  -403.8704 0.0002 21.0963
v  -403.8704 168.3073 21.0963
v  -411.5623 168.3073 13.4045
v  -411.5623 0.0002 13.4045
v  -411.5623 168.3073 -11.6861
v  -411.5623 0.0002 -11.6861
v  -403.8705 168.3073 -19.3779
v  -403.8705 0.0002 -19.3779
v  -378.7799 168.3073 -19.3780
v  -378.7799 0.0002 -19.3779
v  -371.0880 168.3073 -11.6861
v  -371.0880 0.0002 -11.6861
v  -371.0880 168.3073 13.4045
v  -371.0880 0.0002 13.4045
v  -378.7799 168.3073 21.0963
v  -378.7799 0.0002 21.0963
v  377.8255 0.0002 21.0963
v  377.8255 168.3073 21.0963
v  370.1336 168.3073 13.4044
v  370.1336 0.0002 13.4045
v  370.1336 168.3073 -11.6861
v  370.1336 0.0002 -11.6861
v  377.8254 168.3073 -19.3779
v  377.8254 0.0002 -19.3779
v  402.9160 168.3073 -19.3779
v  402.9160 0.0002 -19.3779
v  410.6078 168.3073 -11.6861
v  410.6078 0.0002 -11.6861
v  410.6078 168.3073 13.4044
v  410.6078 0.0002 13.4045
v  402.9160 168.3073 21.0963
v  402.9160 0.0002 21.0963
v  377.8254 0.0003 340.8810
v  377.8254 168.3074 340.8810
v  370.1335 168.3074 333.1892
v  370.1335 0.0003 333.1892
v  370.1336 168.3074 308.0986
v  370.1336 0.0002 308.0986
v  377.8254 168.3074 300.4068
v  377.8254 0.0002 300.4068
v  402.9160 168.3074 300.4068
v  402.9160 0.0002 300.4068
v  410.6078 168.3074 308.0986
v  410.6078 0.0002 308.0986
v  410.6078 168.3074 333.1892
v  410.6078 0.0003 333.1892
v  402.9160 168.3074 340.8810
v  402.9160 0.0003 340.8810
v  164.6356 0.0003 340.8810
v  164.6356 168.3074 340.8810
v  156.9438 168.3074 333.1892
v  156.9438 0.0003 333.1892
v  156.9438 168.3074 308.0986
v  156.9438 0.0002 308.0986
v  164.6356 168.3074 300.4068
v  164.6356 0.0002 300.4068
v  189.7262 168.3074 300.4067
v  189.7262 0.0002 300.4068
v  197.4180 168.3074 308.0986
v  197.4180 0.0002 308.0986
v  197.4180 168.3074 333.1892
v  197.4180 0.0003 333.1892
v  189.7262 168.3074 340.8810
v  189.7262 0.0003 340.8810
v  -190.6807 0.0003 340.8810
v  -190.6807 168.3074 340.8810
v  -198.3726 168.3074 333.1891
v  -198.3726 0.0003 333.1892
v  -198.3725 168.3074 308.0986
v  -198.3725 0.0002 308.0986
v  -190.6807 168.3074 300.4068
v  -190.6807 0.0002 300.4068
v  -165.5901 168.3074 300.4068
v  -165.5901 0.0002 300.4068
v  -157.8983 168.3074 308.0986
v  -157.8983 0.0002 308.0986
v  -157.8984 168.3074 333.1891
v  -157.8984 0.0003 333.1892
v  -165.5902 168.3074 340.8810
v  -165.5902 0.0003 340.8810
v  -403.8705 0.0003 340.8810
v  -403.8705 168.3074 340.8810
v  -411.5623 168.3074 333.1891
v  -411.5623 0.0003 333.1892
v  -411.5623 168.3074 308.0986
v  -411.5623 0.0002 308.0986
v  -403.8705 168.3074 300.4068
v  -403.8705 0.0002 300.4069
v  -378.7800 168.3074 300.4068
v  -378.7800 0.0002 300.4068
v  -371.0881 168.3074 308.0986
v  -371.0881 0.0002 308.0986
v  -371.0882 168.3074 333.1892
v  -371.0882 0.0003 333.1892
v  -378.7800 168.3074 340.8810
v  -378.7800 0.0003 340.8810
v  -403.8704 0.0002 -298.6884
v  -403.8704 168.3073 -298.6884
v  -411.5622 168.3073 -306.3802
v  -411.5622 0.0002 -306.3802
v  -411.5622 168.3073 -331.4709
v  -411.5622 0.0002 -331.4708
v  -403.8704 168.3073 -339.1627
v  -403.8704 0.0002 -339.1626
v  -378.7798 168.3073 -339.1627
v  -378.7798 0.0002 -339.1626
v  -371.0880 168.3073 -331.4708
v  -371.0880 0.0002 -331.4708
v  -371.0880 168.3073 -306.3803
v  -371.0880 0.0002 -306.3802
v  -378.7798 168.3073 -298.6884
v  -378.7798 0.0002 -298.6884
v  -190.6806 0.0002 -298.6884
v  -190.6806 168.3073 -298.6885
v  -198.3725 168.3073 -306.3803
v  -198.3725 0.0002 -306.3803
v  -198.3724 168.3073 -331.4708
v  -198.3724 0.0002 -331.4708
v  -190.6806 168.3073 -339.1627
v  -190.6806 0.0002 -339.1626
v  -165.5901 168.3073 -339.1627
v  -165.5901 0.0002 -339.1626
v  -157.8982 168.3073 -331.4708
v  -157.8982 0.0002 -331.4708
v  -157.8982 168.3073 -306.3803
v  -157.8982 0.0002 -306.3802
v  -165.5901 168.3073 -298.6884
v  -165.5901 0.0002 -298.6884
v  164.6357 0.0002 -298.6884
v  164.6357 168.3073 -298.6884
v  156.9439 168.3073 -306.3803
v  156.9439 0.0002 -306.3802
v  156.9439 168.3073 -331.4708
v  156.9439 0.0002 -331.4708
v  164.6357 168.3073 -339.1627
v  164.6357 0.0002 -339.1626
v  189.7263 168.3073 -339.1627
v  189.7263 0.0002 -339.1626
v  197.4181 168.3073 -331.4708
v  197.4181 0.0002 -331.4708
v  197.4181 168.3073 -306.3803
v  197.4181 0.0002 -306.3802
v  189.7263 168.3073 -298.6884
v  189.7263 0.0002 -298.6884
v  377.8255 0.0002 -298.6884
v  377.8255 168.3073 -298.6884
v  370.1337 168.3073 -306.3803
v  370.1337 0.0002 -306.3802
v  370.1337 168.3073 -331.4708
v  370.1337 0.0002 -331.4708
v  377.8255 168.3073 -339.1627
v  377.8255 0.0002 -339.1626
v  402.9161 168.3073 -339.1627
v  402.9161 0.0002 -339.1626
v  410.6079 168.3073 -331.4709
v  410.6079 0.0002 -331.4708
v  410.6079 168.3073 -306.3803
v  410.6079 0.0002 -306.3803
v  402.9160 168.3073 -298.6884
v  402.9160 0.0002 -298.6884
v  442.9288 196.3585 301.1532
v  442.9288 289.8624 301.1532
v  442.9289 317.9135 372.0193
v  442.9289 168.3072 372.0193
v  442.9289 196.3585 194.8540
v  442.9289 168.3072 159.4209
v  442.9289 317.9135 159.4209
v  442.9289 289.8624 194.8540
v  230.3304 317.9135 159.4208
v  230.3304 168.3072 159.4208
v  230.3304 317.9135 372.0193
v  230.3304 168.3072 372.0193
v  372.0626 196.3585 372.0193
v  265.7634 196.3585 372.0193
v  265.7634 289.8624 372.0193
v  372.0626 289.8624 372.0193
v  432.0154 196.3585 301.1532
v  432.0154 289.8624 301.1532
v  432.0154 289.8624 194.8540
v  432.0154 196.3585 194.8540
v  372.0626 289.8624 361.5644
v  372.0626 196.3585 361.5645
v  265.7633 196.3585 361.5644
v  265.7633 289.8624 361.5644
v  442.9289 645.1773 301.1531
v  442.9289 738.6814 301.1531
v  442.9289 766.7325 372.0192
v  442.9289 617.1262 372.0193
v  442.9289 645.1773 194.8539
v  442.9289 617.1262 159.4209
v  442.9289 766.7325 159.4208
v  442.9289 738.6814 194.8539
v  230.3304 766.7325 159.4208
v  230.3304 617.1262 159.4208
v  230.3304 766.7325 372.0192
v  230.3304 617.1262 372.0192
v  372.0626 645.1773 372.0192
v  265.7634 645.1774 372.0192
v  265.7634 738.6814 372.0192
v  372.0626 738.6814 372.0192
v  432.0154 645.1773 301.1531
v  432.0154 738.6814 301.1530
v  432.0154 738.6814 194.8539
v  432.0154 645.1773 194.8539
v  372.0626 738.6814 361.5644
v  372.0626 645.1773 361.5644
v  265.7633 645.1774 361.5644
v  265.7633 738.6814 361.5643
v  442.9289 420.7679 301.1531
v  442.9289 514.2719 301.1531
v  442.9289 542.3229 372.0193
v  442.9289 392.7166 372.0193
v  442.9289 420.7679 194.8540
v  442.9289 392.7166 159.4209
v  442.9289 542.3229 159.4209
v  442.9289 514.2719 194.8539
v  230.3304 542.3229 159.4208
v  230.3304 392.7166 159.4208
v  230.3304 542.3229 372.0193
v  230.3304 392.7167 372.0192
v  372.0626 420.7679 372.0192
v  265.7634 420.7679 372.0192
v  265.7634 514.2719 372.0193
v  372.0626 514.2719 372.0193
v  432.0154 420.7679 301.1531
v  432.0154 514.2719 301.1531
v  432.0154 514.2719 194.8539
v  432.0154 420.7679 194.8539
v  372.0626 514.2719 361.5644
v  372.0626 420.7679 361.5644
v  265.7633 420.7679 361.5644
v  265.7633 514.2719 361.5644
v  -230.2996 317.9136 159.4208
v  -230.2997 317.9136 372.0192
v  -230.2997 168.3073 372.0192
v  -230.2996 168.3073 159.4208
v  -442.8981 317.9136 159.4207
v  -442.8981 168.3073 159.4207
v  -442.8981 317.9137 372.0190
v  -442.8981 168.3074 372.0191
v  -265.7329 196.3585 372.0192
v  -372.0321 196.3585 372.0192
v  -372.0321 289.8624 372.0191
v  -265.7329 289.8624 372.0192
v  -442.8981 196.3585 194.8537
v  -442.8981 289.8625 194.8537
v  -442.8981 289.8625 301.1530
v  -442.8981 196.3585 301.1530
v  -431.9848 289.8625 301.1530
v  -431.9848 196.3585 301.1530
v  -431.9848 196.3585 194.8538
v  -431.9848 289.8625 194.8538
v  -265.7329 289.8624 361.5642
v  -265.7329 196.3585 361.5643
v  -372.0321 196.3585 361.5643
v  -372.0321 289.8624 361.5642
v  -230.2996 766.7326 159.4207
v  -230.2996 766.7326 372.0191
v  -230.2996 617.1262 372.0191
v  -230.2996 617.1262 159.4207
v  -442.8981 766.7326 159.4207
v  -442.8981 617.1262 159.4207
v  -442.8981 766.7326 372.0190
v  -442.8981 617.1262 372.0190
v  -265.7329 645.1774 372.0191
v  -372.0321 645.1774 372.0191
v  -372.0321 738.6814 372.0191
v  -265.7329 738.6814 372.0191
v  -442.8981 738.6814 194.8537
v  -442.8981 738.6814 301.1528
v  -442.8981 645.1774 194.8537
v  -442.8981 645.1774 301.1529
v  -431.9848 738.6814 301.1529
v  -431.9848 645.1774 301.1529
v  -431.9848 645.1774 194.8537
v  -431.9848 738.6814 194.8537
v  -265.7329 738.6814 361.5642
v  -265.7329 645.1774 361.5642
v  -372.0321 645.1774 361.5642
v  -372.0321 738.6814 361.5642
v  -230.2996 542.3231 159.4207
v  -230.2996 542.3231 372.0192
v  -230.2996 392.7168 372.0191
v  -230.2996 392.7168 159.4208
v  -442.8981 542.3231 159.4207
v  -442.8981 392.7168 159.4207
v  -442.8981 542.3231 372.0191
v  -442.8981 392.7168 372.0190
v  -265.7329 420.7680 372.0191
v  -372.0321 420.7680 372.0191
v  -372.0321 514.2719 372.0191
v  -265.7329 514.2719 372.0192
v  -442.8981 420.7680 194.8537
v  -442.8981 514.2719 194.8537
v  -442.8981 514.2719 301.1529
v  -442.8981 420.7680 301.1529
v  -431.9848 514.2719 301.1529
v  -431.9848 420.7680 301.1529
v  -431.9848 420.7680 194.8537
v  -431.9848 514.2719 194.8537
v  -265.7329 514.2719 361.5642
v  -265.7329 420.7680 361.5642
v  -372.0321 420.7680 361.5642
v  -372.0321 514.2719 361.5642
v  -230.2996 317.9135 -372.0752
v  -230.2996 317.9135 -159.4769
v  -230.2996 168.3072 -159.4769
v  -230.2996 168.3072 -372.0752
v  -265.7328 289.8623 -372.0752
v  -372.0320 289.8623 -372.0752
v  -442.8979 317.9135 -372.0753
v  -265.7328 196.3584 -372.0752
v  -442.8979 168.3072 -372.0753
v  -372.0320 196.3584 -372.0752
v  -442.8980 317.9136 -159.4769
v  -442.8980 168.3073 -159.4769
v  -442.8980 289.8624 -301.2091
v  -442.8979 289.8624 -194.9100
v  -442.8980 196.3584 -301.2091
v  -442.8979 196.3584 -194.9100
v  -431.9847 289.8624 -194.9099
v  -431.9847 196.3584 -194.9099
v  -431.9846 196.3584 -301.2092
v  -431.9846 289.8624 -301.2092
v  -265.7328 196.3584 -361.6205
v  -265.7328 289.8623 -361.6205
v  -372.0320 289.8623 -361.6206
v  -372.0320 196.3584 -361.6205
v  -230.2996 766.7325 -372.0754
v  -230.2996 766.7325 -159.4769
v  -230.2996 617.1261 -159.4769
v  -230.2996 617.1261 -372.0754
v  -265.7328 645.1773 -372.0753
v  -265.7328 738.6813 -372.0754
v  -442.8980 766.7325 -372.0753
v  -372.0320 738.6813 -372.0754
v  -442.8980 617.1261 -372.0753
v  -372.0320 645.1773 -372.0753
v  -442.8980 766.7325 -159.4770
v  -442.8980 617.1261 -159.4770
v  -442.8980 738.6813 -301.2092
v  -442.8980 738.6813 -194.9100
v  -442.8980 645.1773 -301.2092
v  -442.8980 645.1773 -194.9100
v  -431.9847 738.6813 -194.9100
v  -431.9847 645.1773 -194.9100
v  -431.9846 645.1773 -301.2092
v  -431.9846 738.6813 -301.2093
v  -265.7328 645.1773 -361.6205
v  -265.7328 738.6813 -361.6206
v  -372.0320 738.6813 -361.6206
v  -372.0320 645.1773 -361.6206
v  -230.2996 542.3229 -372.0753
v  -230.2996 542.3229 -159.4769
v  -230.2996 392.7167 -159.4769
v  -230.2996 392.7167 -372.0754
v  -265.7328 420.7679 -372.0753
v  -265.7328 514.2718 -372.0753
v  -442.8980 542.3229 -372.0753
v  -372.0320 514.2718 -372.0753
v  -372.0320 420.7679 -372.0753
v  -442.8980 392.7167 -372.0753
v  -442.8980 542.3229 -159.4769
v  -442.8980 392.7167 -159.4769
v  -442.8980 420.7679 -301.2092
v  -442.8980 514.2718 -301.2092
v  -442.8980 514.2718 -194.9100
v  -442.8980 420.7679 -194.9100
v  -431.9847 514.2718 -194.9100
v  -431.9847 420.7679 -194.9100
v  -431.9846 420.7679 -301.2092
v  -431.9846 514.2718 -301.2092
v  -265.7328 420.7679 -361.6205
v  -265.7328 514.2718 -361.6205
v  -372.0320 514.2718 -361.6205
v  -372.0320 420.7679 -361.6206
v  442.9289 196.3584 -194.9098
v  442.9289 289.8623 -194.9098
v  442.9289 317.9134 -159.4767
v  442.9289 168.3071 -159.4767
v  442.9289 196.3584 -301.2090
v  442.9289 168.3071 -372.0750
v  442.9289 317.9134 -372.0751
v  442.9289 289.8623 -301.2090
v  372.0627 196.3584 -372.0751
v  372.0627 289.8623 -372.0751
v  230.3305 317.9134 -372.0751
v  265.7635 289.8623 -372.0751
v  265.7635 196.3584 -372.0751
v  230.3305 168.3071 -372.0751
v  230.3304 317.9135 -159.4768
v  230.3304 168.3072 -159.4768
v  432.0153 196.3584 -194.9099
v  432.0153 289.8623 -194.9098
v  432.0153 289.8623 -301.2090
v  432.0153 196.3584 -301.2090
v  372.0627 196.3584 -361.6204
v  372.0627 289.8623 -361.6205
v  265.7635 289.8623 -361.6204
v  265.7635 196.3584 -361.6204
v  442.9289 617.1260 -159.4768
v  442.9289 617.1260 -372.0753
v  442.9289 645.1772 -301.2090
v  442.9289 645.1772 -194.9098
v  442.9289 766.7324 -159.4768
v  442.9289 738.6813 -194.9098
v  442.9289 738.6813 -301.2091
v  442.9289 766.7324 -372.0753
v  372.0627 645.1772 -372.0753
v  372.0627 738.6813 -372.0753
v  230.3305 766.7324 -372.0752
v  265.7635 738.6813 -372.0752
v  230.3305 617.1260 -372.0751
v  265.7635 645.1773 -372.0751
v  230.3304 766.7324 -159.4768
v  230.3304 617.1260 -159.4768
v  432.0153 645.1772 -194.9099
v  432.0153 738.6813 -194.9099
v  432.0153 738.6813 -301.2091
v  432.0153 645.1772 -301.2091
v  372.0627 645.1772 -361.6205
v  372.0627 738.6813 -361.6205
v  265.7635 738.6813 -361.6205
v  265.7635 645.1773 -361.6204
v  442.9289 420.7678 -194.9098
v  442.9289 514.2717 -194.9098
v  442.9289 542.3228 -159.4768
v  442.9289 392.7166 -159.4767
v  442.9289 420.7678 -301.2090
v  442.9289 392.7165 -372.0753
v  442.9289 542.3228 -372.0752
v  442.9289 514.2717 -301.2090
v  372.0627 420.7679 -372.0753
v  372.0627 514.2717 -372.0752
v  230.3305 542.3228 -372.0751
v  265.7635 514.2718 -372.0751
v  265.7635 420.7679 -372.0752
v  230.3305 392.7166 -372.0752
v  230.3304 542.3228 -159.4768
v  230.3304 392.7166 -159.4768
v  432.0153 420.7678 -194.9099
v  432.0153 514.2717 -194.9099
v  432.0153 514.2717 -301.2091
v  432.0153 420.7678 -301.2091
v  372.0627 420.7679 -361.6205
v  372.0627 514.2717 -361.6205
v  265.7635 514.2718 -361.6204
v  265.7635 420.7679 -361.6205
v  425.2124 841.5356 -354.3587
v  425.2124 841.5357 354.3027
v  425.2124 729.3309 44.2633
v  425.2124 729.3309 -44.3193
v  425.2124 654.5278 44.2634
v  425.2124 654.5278 -44.3193
v  425.2124 729.3309 -97.4689
v  425.2124 130.9056 -354.3586
v  425.2124 205.7088 -97.4688
v  425.2124 205.7088 -44.3192
v  425.2124 280.5120 -97.4688
v  425.2124 430.1182 -97.4689
v  425.2124 504.9214 -97.4689
v  425.2124 654.5278 -97.4689
v  425.2124 130.9058 354.3028
v  425.2124 504.9215 97.4130
v  425.2124 430.1182 -44.3193
v  425.2124 430.1183 44.2634
v  425.2124 280.5120 44.2634
v  425.2124 205.7089 44.2634
v  425.2124 205.7089 97.4130
v  425.2124 280.5120 -44.3193
v  141.7478 841.5356 -354.3587
v  141.7478 130.9056 -354.3586
v  -425.1814 841.5357 354.3025
v  -141.7169 841.5357 354.3026
v  -123.7166 841.5357 372.0626
v  -442.8860 841.5357 372.0625
v  141.7477 841.5357 354.3027
v  141.7477 130.9058 354.3027
v  141.7478 130.9057 212.5704
v  -141.7169 130.9057 212.5705
v  -141.7169 130.9058 354.3027
v  -425.1814 130.9058 354.3026
v  -141.7168 130.9057 -212.6264
v  -425.1813 130.9056 -354.3588
v  -141.7168 130.9056 -354.3587
v  141.7478 130.9057 -212.6264
v  141.7478 841.5356 -212.6265
v  -425.1813 841.5356 -354.3588
v  -141.7168 841.5356 -354.3588
v  -425.1814 654.5278 97.4128
v  -425.1814 504.9214 97.4129
v  -425.1814 205.7088 97.4129
v  -425.1814 205.7088 44.2633
v  -425.1814 205.7088 -97.4689
v  -425.1814 280.5120 -97.4690
v  -425.1814 430.1183 -97.4690
v  -425.1814 504.9214 -97.4690
v  -425.1814 504.9214 -44.3194
v  -425.1814 280.5120 44.2633
v  -425.1814 430.1182 44.2633
v  -425.1814 504.9214 44.2633
v  -425.1814 654.5278 -97.4690
v  -425.1814 654.5278 44.2633
v  -425.1814 729.3309 -97.4690
v  -425.1814 205.7088 -44.3194
v  -425.1814 280.5120 -44.3194
v  -425.1814 430.1183 -44.3194
v  -141.7169 841.5357 212.5704
v  -35.4176 729.3311 212.5704
v  -35.4176 654.5278 212.5704
v  35.4485 654.5278 212.5704
v  35.4485 729.3311 212.5703
v  106.3147 280.5121 212.5704
v  106.3147 205.7089 212.5704
v  106.3147 430.1184 212.5704
v  106.3147 504.9215 212.5704
v  106.3147 654.5278 212.5704
v  106.3147 729.3311 212.5704
v  141.7478 841.5357 212.5703
v  -106.2838 430.1184 212.5704
v  -106.2838 504.9215 212.5704
v  -106.2838 654.5278 212.5704
v  -35.4176 504.9215 212.5704
v  -35.4176 430.1184 212.5704
v  35.4485 430.1184 212.5704
v  35.4485 504.9215 212.5704
v  -106.2838 729.3311 212.5704
v  35.4485 205.7089 212.5704
v  -35.4176 205.7089 212.5704
v  -106.2838 205.7089 212.5704
v  -106.2838 280.5121 212.5704
v  -35.4176 280.5121 212.5704
v  35.4485 280.5121 212.5704
v  106.3147 205.7088 -212.6264
v  106.3147 280.5120 -212.6264
v  106.3147 430.1183 -212.6264
v  106.3147 504.9214 -212.6264
v  106.3147 654.5277 -212.6264
v  106.3147 729.3309 -212.6265
v  35.4486 729.3309 -212.6265
v  -35.4176 729.3309 -212.6265
v  35.4486 654.5277 -212.6265
v  -35.4176 654.5277 -212.6265
v  -106.2837 729.3309 -212.6265
v  -141.7168 841.5356 -212.6265
v  -106.2837 654.5277 -212.6265
v  -106.2837 504.9214 -212.6265
v  35.4486 504.9214 -212.6265
v  35.4486 430.1183 -212.6265
v  -35.4176 430.1183 -212.6264
v  -35.4176 504.9214 -212.6264
v  35.4486 280.5120 -212.6264
v  35.4486 205.7088 -212.6264
v  -35.4176 205.7088 -212.6264
v  -35.4176 280.5120 -212.6264
v  -106.2837 280.5120 -212.6265
v  -106.2837 430.1183 -212.6265
v  -106.2837 205.7088 -212.6265
v  -425.1814 729.3309 44.2633
v  -421.8591 654.5278 44.2633
v  -421.8591 729.3309 44.2633
v  -425.1814 729.3309 97.4128
v  -421.8591 729.3309 97.4128
v  -421.8591 654.5278 97.4128
v  -421.8590 430.1182 44.2633
v  -421.8590 504.9214 44.2633
v  -421.8590 504.9214 97.4129
v  -421.8590 430.1183 97.4129
v  -425.1814 430.1183 97.4129
v  -421.8590 205.7088 44.2633
v  -421.8590 280.5120 44.2633
v  -425.1814 280.5120 97.4129
v  -421.8590 280.5120 97.4129
v  -421.8590 205.7088 97.4129
v  -421.8592 654.5278 -97.4690
v  -421.8592 729.3309 -97.4690
v  -425.1814 729.3309 -44.3194
v  -421.8591 729.3309 -44.3194
v  -421.8591 654.5278 -44.3194
v  -425.1814 654.5278 -44.3194
v  -421.8591 430.1183 -97.4690
v  -421.8591 504.9214 -97.4690
v  -421.8590 504.9214 -44.3194
v  -421.8590 430.1183 -44.3194
v  -421.8591 205.7088 -97.4689
v  -421.8591 280.5120 -97.4689
v  -421.8590 280.5120 -44.3194
v  -421.8590 205.7088 -44.3194
v  421.8900 654.5278 -44.3193
v  421.8900 729.3309 -44.3193
v  421.8900 729.3309 -97.4689
v  421.8900 654.5278 -97.4689
v  425.2124 504.9214 -44.3193
v  421.8900 430.1182 -44.3193
v  421.8900 504.9214 -44.3193
v  421.8900 504.9214 -97.4689
v  421.8900 430.1182 -97.4689
v  421.8900 205.7088 -44.3192
v  421.8900 280.5120 -44.3192
v  421.8900 280.5120 -97.4688
v  421.8900 205.7088 -97.4688
v  425.2124 729.3309 97.4129
v  425.2124 654.5278 97.4129
v  421.8900 654.5278 97.4129
v  421.8900 729.3309 97.4129
v  421.8900 729.3309 44.2633
v  421.8900 654.5278 44.2634
v  425.2124 430.1183 97.4130
v  421.8900 430.1183 97.4130
v  421.8900 504.9215 97.4130
v  425.2124 504.9214 44.2634
v  421.8900 504.9214 44.2634
v  421.8900 430.1183 44.2634
v  425.2124 280.5120 97.4130
v  421.8900 205.7089 97.4130
v  421.8900 280.5120 97.4130
v  421.8900 280.5120 44.2634
v  421.8900 205.7089 44.2634
v  -35.4176 729.3311 208.9817
v  -35.4176 654.5278 208.9817
v  -106.2838 654.5278 208.9817
v  -106.2838 729.3311 208.9817
v  106.3146 729.3311 208.9818
v  106.3146 654.5278 208.9818
v  35.4485 654.5278 208.9817
v  35.4485 729.3311 208.9817
v  106.3146 504.9215 208.9818
v  106.3146 430.1184 208.9818
v  35.4485 430.1184 208.9818
v  35.4485 504.9215 208.9817
v  -35.4176 504.9215 208.9817
v  -35.4176 430.1184 208.9817
v  -106.2838 430.1184 208.9817
v  -106.2838 504.9215 208.9817
v  -35.4176 280.5121 208.9818
v  -35.4176 205.7089 208.9818
v  -106.2838 205.7089 208.9818
v  -106.2838 280.5121 208.9818
v  106.3146 280.5121 208.9818
v  106.3146 205.7089 208.9818
v  35.4485 205.7089 208.9818
v  35.4485 280.5121 208.9818
v  -35.4176 654.5277 -209.0379
v  -35.4176 729.3309 -209.0380
v  -106.2837 729.3309 -209.0380
v  -106.2837 654.5277 -209.0380
v  106.3147 654.5277 -209.0379
v  106.3147 729.3309 -209.0379
v  35.4486 729.3309 -209.0379
v  35.4486 654.5277 -209.0379
v  106.3147 430.1183 -209.0379
v  106.3147 504.9214 -209.0379
v  35.4486 504.9214 -209.0379
v  35.4486 430.1183 -209.0379
v  -35.4176 430.1183 -209.0379
v  -35.4176 504.9214 -209.0379
v  -106.2837 504.9214 -209.0380
v  -106.2837 430.1183 -209.0380
v  -35.4176 205.7088 -209.0379
v  -35.4176 280.5120 -209.0379
v  -106.2837 280.5120 -209.0380
v  -106.2837 205.7088 -209.0380
v  106.3147 205.7088 -209.0379
v  106.3147 280.5120 -209.0379
v  35.4486 280.5120 -209.0379
v  35.4486 205.7088 -209.0379
v  123.7475 841.5357 230.1963
v  -123.7166 841.5357 230.1963
v  -442.8858 841.5356 -372.1187
v  -123.7165 841.5356 -372.1187
v  -123.7165 841.5356 -230.2525
v  123.7475 841.5356 -230.2524
v  123.7475 841.5357 372.0626
v  123.7476 841.5356 -372.1187
v  442.9168 841.5357 372.0626
v  442.9169 841.5356 -372.1186
v  -123.7165 878.9372 -230.2525
v  123.7475 878.9372 -230.2524
v  -123.7166 878.9373 372.0625
v  -442.8860 878.9373 372.0624
v  123.7476 878.9372 -372.1187
v  442.9169 878.9372 -372.1187
v  442.9168 878.9373 372.0626
v  123.7475 878.9373 372.0625
v  123.7475 878.9373 230.1963
v  -123.7166 878.9373 230.1963
v  -442.8858 878.9372 -372.1188
v  -123.7165 878.9372 -372.1187
v  -141.7882 878.9372 -212.6796
v  141.8192 878.9372 -212.6795
v  -141.7882 878.9373 354.4695
v  -425.0577 878.9373 354.4694
v  141.8192 878.9372 -354.5258
v  425.0887 878.9372 -354.5257
v  425.0887 878.9373 354.4697
v  141.8191 878.9373 354.4696
v  141.8191 878.9373 212.6234
v  -141.7882 878.9373 212.6233
v  -425.0576 878.9372 -354.5259
v  -141.7881 878.9372 -354.5258
v  -141.7882 860.2364 -212.6796
v  141.8192 860.2364 -212.6795
v  -141.7882 860.2365 354.4695
v  -425.0577 860.2365 354.4695
v  141.8192 860.2364 -354.5257
v  425.0887 860.2364 -354.5257
v  425.0887 860.2365 354.4698
v  141.8191 860.2365 354.4697
v  141.8191 860.2365 212.6234
v  -141.7882 860.2365 212.6233
v  -425.0576 860.2364 -354.5258
v  -141.7881 860.2364 -354.5258
# 776 vertices

vn -0.7071 0.0000 0.7071
vn -1.0000 -0.0000 -0.0000
vn -0.7071 -0.0000 -0.7071
vn -0.0000 -0.0000 -1.0000
vn 0.7071 -0.0000 -0.7071
vn 1.0000 0.0000 0.0000
vn 0.0000 1.0000 -0.0000
vn 0.0000 0.0000 1.0000
vn 0.7071 0.0000 0.7071
vn -0.0000 -1.0000 0.0000
vn 0.0000 -1.0000 0.0000
vn 0.0000 -0.0000 -1.0000
vn -1.0000 0.0000 -0.0000
vn -1.0000 0.0000 0.0000
vn 1.0000 0.0000 -0.0000
vn 1.0000 -0.0000 -0.0000
vn -0.0000 0.0000 1.0000
vn 1.0000 -0.0000 0.0000
vn -0.0000 -0.0000 1.0000
vn 0.0000 0.0000 -1.0000
vn -0.0000 1.0000 -0.0000
vn -1.0000 -0.0000 0.0000
vn 0.0000 -0.0000 1.0000
vn -0.0000 0.0000 -1.0000
vn -0.0440 -0.9990 0.0000
vn -0.8944 0.4472 -0.0000
# 26 vertex normals

vt 0.2871 0.8180 0.0000
vt 0.3371 0.8180 0.0000
vt 0.3371 0.8680 0.0000
vt 0.2871 0.8680 0.0000
vt 0.3121 0.8680 0.0000
vt 0.3298 0.8607 0.0000
vt 0.3371 0.8430 0.0000
vt 0.3298 0.8254 0.0000
vt 0.3121 0.8180 0.0000
vt 0.2944 0.8254 0.0000
vt 0.2871 0.8430 0.0000
vt 0.2944 0.8607 0.0000
vt 0.0646 0.8292 0.0000
vt 0.0429 0.8167 0.0000
vt 0.0213 0.8292 0.0000
vt 0.0213 0.8542 0.0000
vt 0.0646 0.8542 0.0000
vt 0.0429 0.8667 0.0000
vt 0.0179 0.8167 0.0000
vt 0.0679 0.8167 0.0000
vt 0.0679 0.8667 0.0000
vt 0.0179 0.8667 0.0000
vt 0.9440 0.5491 0.0000
vt 0.9440 0.3964 0.0000
vt 0.7607 0.3964 0.0000
vt 0.7607 0.5491 0.0000
vt 0.9438 0.5491 0.0000
vt 0.9438 0.3964 0.0000
vt 0.7606 0.3964 0.0000
vt 0.7606 0.5491 0.0000
vt 0.7608 0.3964 0.0000
vt 0.7608 0.5491 0.0000
vt 0.7610 0.5491 0.0000
vt 0.7610 0.3964 0.0000
vt 0.9442 0.3964 0.0000
vt 0.9442 0.5491 0.0000
vt 0.3030 0.8425 0.0000
vt 0.3030 0.8346 0.0000
vt 0.3030 0.8293 0.0000
vt 0.3030 0.7925 0.0000
vt 0.3030 0.7978 0.0000
vt 0.3030 0.8030 0.0000
vt 0.3030 0.8136 0.0000
vt 0.3030 0.8188 0.0000
vt 0.3197 0.8425 0.0000
vt 0.3197 0.7925 0.0000
vt 0.1058 0.8814 0.0000
vt 0.0891 0.8814 0.0000
vt 0.3364 0.7925 0.0000
vt 0.3530 0.7925 0.0000
vt 0.3530 0.8425 0.0000
vt 0.3364 0.8425 0.0000
vt 0.3530 0.8293 0.0000
vt 0.3530 0.8188 0.0000
vt 0.3530 0.7978 0.0000
vt 0.3530 0.8030 0.0000
vt 0.3530 0.8136 0.0000
vt 0.3530 0.8346 0.0000
vt 0.3301 0.8346 0.0000
vt 0.3301 0.8293 0.0000
vt 0.3259 0.8293 0.0000
vt 0.3259 0.8346 0.0000
vt 0.3218 0.8030 0.0000
vt 0.3218 0.7978 0.0000
vt 0.3218 0.8136 0.0000
vt 0.3218 0.8188 0.0000
vt 0.3218 0.8293 0.0000
vt 0.3218 0.8346 0.0000
vt 0.3343 0.8136 0.0000
vt 0.3343 0.8188 0.0000
vt 0.3343 0.8293 0.0000
vt 0.3301 0.8188 0.0000
vt 0.3301 0.8136 0.0000
vt 0.3259 0.8136 0.0000
vt 0.3259 0.8188 0.0000
vt 0.3343 0.8346 0.0000
vt 0.3259 0.7978 0.0000
vt 0.3301 0.7978 0.0000
vt 0.3343 0.7978 0.0000
vt 0.3343 0.8030 0.0000
vt 0.3301 0.8030 0.0000
vt 0.3259 0.8030 0.0000
vt 0.3528 0.8293 0.0000
vt 0.3528 0.8346 0.0000
vt 0.3556 0.9680 0.0000
vt 0.3556 0.9627 0.0000
vt 0.3528 0.8136 0.0000
vt 0.3528 0.8188 0.0000
vt 0.3556 0.9522 0.0000
vt 0.3556 0.9469 0.0000
vt 0.3528 0.7978 0.0000
vt 0.3528 0.8030 0.0000
vt 0.3556 0.9364 0.0000
vt 0.3556 0.9311 0.0000
vt 0.3032 0.8293 0.0000
vt 0.3032 0.8346 0.0000
vt 0.3060 0.9680 0.0000
vt 0.3060 0.9627 0.0000
vt 0.3032 0.8136 0.0000
vt 0.3032 0.8188 0.0000
vt 0.3060 0.9522 0.0000
vt 0.3060 0.9469 0.0000
vt 0.3032 0.7978 0.0000
vt 0.3032 0.8030 0.0000
vt 0.3060 0.9364 0.0000
vt 0.3060 0.9311 0.0000
vt 0.9341 0.4960 0.0000
vt 0.9341 0.4143 0.0000
vt 0.8524 0.4143 0.0000
vt 0.8524 0.4960 0.0000
vt 0.0724 0.8814 0.0000
vt 0.0558 0.8814 0.0000
vt 0.4502 0.1936 0.0000
vt 0.4336 0.1936 0.0000
vt 0.4169 0.1936 0.0000
vt 0.4002 0.1936 0.0000
# 116 texture coords

g SPW_Urban_Bldg_Apartment_02
usemtl SPW_Urban_Bldg_Apartment
s off
f 1/1/1 2/2/1 3/3/1 4/4/1 
f 4/1/2 3/2/2 5/3/2 6/4/2 
f 6/1/3 5/2/3 7/3/3 8/4/3 
f 8/1/4 7/2/4 9/3/4 10/4/4 
f 10/1/5 9/2/5 11/3/5 12/4/5 
f 12/1/6 11/2/6 13/3/6 14/4/6 
f 3/5/7 2/6/7 15/7/7 13/8/7 
f 3/5/7 13/8/7 11/9/7 9/10/7 
f 3/5/7 9/10/7 7/11/7 5/12/7 
f 16/1/8 15/2/8 2/3/8 1/4/8 
f 14/1/9 13/2/9 15/3/9 16/4/9 
f 1/5/10 4/6/10 6/7/10 8/8/10 
f 1/5/11 8/8/11 10/9/11 12/10/11 
f 1/5/11 12/10/11 14/11/11 16/12/11 
f 17/1/1 18/2/1 19/3/1 20/4/1 
f 20/1/2 19/2/2 21/3/2 22/4/2 
f 22/1/3 21/2/3 23/3/3 24/4/3 
f 24/1/12 23/2/12 25/3/12 26/4/12 
f 26/1/5 25/2/5 27/3/5 28/4/5 
f 28/1/6 27/2/6 29/3/6 30/4/6 
f 19/5/7 18/6/7 31/7/7 29/8/7 
f 19/5/7 29/8/7 27/9/7 25/10/7 
f 19/5/7 25/10/7 23/11/7 21/12/7 
f 32/1/8 31/2/8 18/3/8 17/4/8 
f 30/1/9 29/2/9 31/3/9 32/4/9 
f 17/5/10 20/6/10 22/7/10 24/8/10 
f 17/5/10 24/8/10 26/9/10 28/10/10 
f 17/5/11 28/10/11 30/11/11 32/12/11 
f 33/1/1 34/2/1 35/3/1 36/4/1 
f 36/1/13 35/2/13 37/3/13 38/4/13 
f 38/1/3 37/2/3 39/3/3 40/4/3 
f 40/1/12 39/2/12 41/3/12 42/4/12 
f 42/1/5 41/2/5 43/3/5 44/4/5 
f 44/1/6 43/2/6 45/3/6 46/4/6 
f 35/5/7 34/6/7 47/7/7 45/8/7 
f 35/5/7 45/8/7 43/9/7 41/10/7 
f 35/5/7 41/10/7 39/11/7 37/12/7 
f 48/1/8 47/2/8 34/3/8 33/4/8 
f 46/1/9 45/2/9 47/3/9 48/4/9 
f 33/5/11 36/6/11 38/7/11 40/8/11 
f 33/5/10 40/8/10 42/9/10 44/10/10 
f 33/5/11 44/10/11 46/11/11 48/12/11 
f 49/1/1 50/2/1 51/3/1 52/4/1 
f 52/1/14 51/2/14 53/3/14 54/4/14 
f 54/1/3 53/2/3 55/3/3 56/4/3 
f 56/1/12 55/2/12 57/3/12 58/4/12 
f 58/1/5 57/2/5 59/3/5 60/4/5 
f 60/1/6 59/2/6 61/3/6 62/4/6 
f 51/5/7 50/6/7 63/7/7 61/8/7 
f 51/5/7 61/8/7 59/9/7 57/10/7 
f 51/5/7 57/10/7 55/11/7 53/12/7 
f 64/1/8 63/2/8 50/3/8 49/4/8 
f 62/1/9 61/2/9 63/3/9 64/4/9 
f 49/5/10 52/6/10 54/7/10 56/8/10 
f 49/5/11 56/8/11 58/9/11 60/10/11 
f 49/5/11 60/10/11 62/11/11 64/12/11 
f 65/1/1 66/2/1 67/3/1 68/4/1 
f 68/1/13 67/2/13 69/3/13 70/4/13 
f 70/1/3 69/2/3 71/3/3 72/4/3 
f 72/1/4 71/2/4 73/3/4 74/4/4 
f 74/1/5 73/2/5 75/3/5 76/4/5 
f 76/1/15 75/2/15 77/3/15 78/4/15 
f 67/5/7 66/6/7 79/7/7 77/8/7 
f 67/5/7 77/8/7 75/9/7 73/10/7 
f 67/5/7 73/10/7 71/11/7 69/12/7 
f 80/1/8 79/2/8 66/3/8 65/4/8 
f 78/1/9 77/2/9 79/3/9 80/4/9 
f 65/5/10 68/6/10 70/7/10 72/8/10 
f 65/5/11 72/8/11 74/9/11 76/10/11 
f 65/5/11 76/10/11 78/11/11 80/12/11 
f 81/1/1 82/2/1 83/3/1 84/4/1 
f 84/1/13 83/2/13 85/3/13 86/4/13 
f 86/1/3 85/2/3 87/3/3 88/4/3 
f 88/1/12 87/2/12 89/3/12 90/4/12 
f 90/1/5 89/2/5 91/3/5 92/4/5 
f 92/1/15 91/2/15 93/3/15 94/4/15 
f 83/5/7 82/6/7 95/7/7 93/8/7 
f 83/5/7 93/8/7 91/9/7 89/10/7 
f 83/5/7 89/10/7 87/11/7 85/12/7 
f 96/1/8 95/2/8 82/3/8 81/4/8 
f 94/1/9 93/2/9 95/3/9 96/4/9 
f 81/5/10 84/6/10 86/7/10 88/8/10 
f 81/5/11 88/8/11 90/9/11 92/10/11 
f 81/5/11 92/10/11 94/11/11 96/12/11 
f 97/1/1 98/2/1 99/3/1 100/4/1 
f 100/1/2 99/2/2 101/3/2 102/4/2 
f 102/1/3 101/2/3 103/3/3 104/4/3 
f 104/1/4 103/2/4 105/3/4 106/4/4 
f 106/1/5 105/2/5 107/3/5 108/4/5 
f 108/1/15 107/2/15 109/3/15 110/4/15 
f 99/5/7 98/6/7 111/7/7 109/8/7 
f 99/5/7 109/8/7 107/9/7 105/10/7 
f 99/5/7 105/10/7 103/11/7 101/12/7 
f 112/1/8 111/2/8 98/3/8 97/4/8 
f 110/1/9 109/2/9 111/3/9 112/4/9 
f 97/5/11 100/6/11 102/7/11 104/8/11 
f 97/5/10 104/8/10 106/9/10 108/10/10 
f 97/5/11 108/10/11 110/11/11 112/12/11 
f 113/1/1 114/2/1 115/3/1 116/4/1 
f 116/1/2 115/2/2 117/3/2 118/4/2 
f 118/1/3 117/2/3 119/3/3 120/4/3 
f 120/1/4 119/2/4 121/3/4 122/4/4 
f 122/1/5 121/2/5 123/3/5 124/4/5 
f 124/1/6 123/2/6 125/3/6 126/4/6 
f 115/5/7 114/6/7 127/7/7 125/8/7 
f 115/5/7 125/8/7 123/9/7 121/10/7 
f 115/5/7 121/10/7 119/11/7 117/12/7 
f 128/1/8 127/2/8 114/3/8 113/4/8 
f 126/1/9 125/2/9 127/3/9 128/4/9 
f 113/5/11 116/6/11 118/7/11 120/8/11 
f 113/5/10 120/8/10 122/9/10 124/10/10 
f 113/5/11 124/10/11 126/11/11 128/12/11 
f 129/1/1 130/2/1 131/3/1 132/4/1 
f 132/1/2 131/2/2 133/3/2 134/4/2 
f 134/1/3 133/2/3 135/3/3 136/4/3 
f 136/1/4 135/2/4 137/3/4 138/4/4 
f 138/1/5 137/2/5 139/3/5 140/4/5 
f 140/1/6 139/2/6 141/3/6 142/4/6 
f 131/5/7 130/6/7 143/7/7 141/8/7 
f 131/5/7 141/8/7 139/9/7 137/10/7 
f 131/5/7 137/10/7 135/11/7 133/12/7 
f 144/1/8 143/2/8 130/3/8 129/4/8 
f 142/1/9 141/2/9 143/3/9 144/4/9 
f 129/5/10 132/6/10 134/7/10 136/8/10 
f 129/5/11 136/8/11 138/9/11 140/10/11 
f 129/5/11 140/10/11 142/11/11 144/12/11 
f 145/1/1 146/2/1 147/3/1 148/4/1 
f 148/1/13 147/2/13 149/3/13 150/4/13 
f 150/1/3 149/2/3 151/3/3 152/4/3 
f 152/1/4 151/2/4 153/3/4 154/4/4 
f 154/1/5 153/2/5 155/3/5 156/4/5 
f 156/1/6 155/2/6 157/3/6 158/4/6 
f 147/5/7 146/6/7 159/7/7 157/8/7 
f 147/5/7 157/8/7 155/9/7 153/10/7 
f 147/5/7 153/10/7 151/11/7 149/12/7 
f 160/1/8 159/2/8 146/3/8 145/4/8 
f 158/1/9 157/2/9 159/3/9 160/4/9 
f 145/5/10 148/6/10 150/7/10 152/8/10 
f 145/5/11 152/8/11 154/9/11 156/10/11 
f 145/5/11 156/10/11 158/11/11 160/12/11 
f 161/1/1 162/2/1 163/3/1 164/4/1 
f 164/1/14 163/2/14 165/3/14 166/4/14 
f 166/1/3 165/2/3 167/3/3 168/4/3 
f 168/1/12 167/2/12 169/3/12 170/4/12 
f 170/1/5 169/2/5 171/3/5 172/4/5 
f 172/1/16 171/2/16 173/3/16 174/4/16 
f 163/5/7 162/6/7 175/7/7 173/8/7 
f 163/5/7 173/8/7 171/9/7 169/10/7 
f 163/5/7 169/10/7 167/11/7 165/12/7 
f 176/1/8 175/2/8 162/3/8 161/4/8 
f 174/1/9 173/2/9 175/3/9 176/4/9 
f 161/5/10 164/6/10 166/7/10 168/8/10 
f 161/5/11 168/8/11 170/9/11 172/10/11 
f 161/5/11 172/10/11 174/11/11 176/12/11 
f 177/1/1 178/2/1 179/3/1 180/4/1 
f 180/1/2 179/2/2 181/3/2 182/4/2 
f 182/1/3 181/2/3 183/3/3 184/4/3 
f 184/1/12 183/2/12 185/3/12 186/4/12 
f 186/1/5 185/2/5 187/3/5 188/4/5 
f 188/1/16 187/2/16 189/3/16 190/4/16 
f 179/5/7 178/6/7 191/7/7 189/8/7 
f 179/5/7 189/8/7 187/9/7 185/10/7 
f 179/5/7 185/10/7 183/11/7 181/12/7 
f 192/1/17 191/2/17 178/3/17 177/4/17 
f 190/1/9 189/2/9 191/3/9 192/4/9 
f 177/5/10 180/6/10 182/7/10 184/8/10 
f 177/5/11 184/8/11 186/9/11 188/10/11 
f 177/5/11 188/10/11 190/11/11 192/12/11 
f 193/1/1 194/2/1 195/3/1 196/4/1 
f 196/1/14 195/2/14 197/3/14 198/4/14 
f 198/1/3 197/2/3 199/3/3 200/4/3 
f 200/1/12 199/2/12 201/3/12 202/4/12 
f 202/1/5 201/2/5 203/3/5 204/4/5 
f 204/1/6 203/2/6 205/3/6 206/4/6 
f 195/5/7 194/6/7 207/7/7 205/8/7 
f 195/5/7 205/8/7 203/9/7 201/10/7 
f 195/5/7 201/10/7 199/11/7 197/12/7 
f 208/1/8 207/2/8 194/3/8 193/4/8 
f 206/1/9 205/2/9 207/3/9 208/4/9 
f 193/5/10 196/6/10 198/7/10 200/8/10 
f 193/5/11 200/8/11 202/9/11 204/10/11 
f 193/5/11 204/10/11 206/11/11 208/12/11 
f 209/1/1 210/2/1 211/3/1 212/4/1 
f 212/1/13 211/2/13 213/3/13 214/4/13 
f 214/1/3 213/2/3 215/3/3 216/4/3 
f 216/1/12 215/2/12 217/3/12 218/4/12 
f 218/1/5 217/2/5 219/3/5 220/4/5 
f 220/1/15 219/2/15 221/3/15 222/4/15 
f 211/5/7 210/6/7 223/7/7 221/8/7 
f 211/5/7 221/8/7 219/9/7 217/10/7 
f 211/5/7 217/10/7 215/11/7 213/12/7 
f 224/1/8 223/2/8 210/3/8 209/4/8 
f 222/1/9 221/2/9 223/3/9 224/4/9 
f 209/5/10 212/6/10 214/7/10 216/8/10 
f 209/5/11 216/8/11 218/9/11 220/10/11 
f 209/5/11 220/10/11 222/11/11 224/12/11 
s 1
f 225/13/15 226/14/16 227/15/16 228/16/15 
f 229/17/15 225/13/15 228/16/15 230/18/15 
f 231/17/18 227/13/16 226/14/16 232/15/6 
f 230/18/15 231/17/18 232/15/6 229/16/15 
s off
f 233/19/12 231/20/12 230/21/12 234/22/12 
f 233/19/7 235/20/7 227/21/7 231/22/7 
s 2
f 236/18/17 228/17/17 237/13/17 238/14/8 
f 236/18/17 238/14/8 239/15/17 235/16/17 
f 240/13/19 237/14/17 228/15/17 227/16/19 
f 239/17/17 240/13/19 227/16/19 235/18/17 
s off
f 230/19/10 228/20/10 236/21/10 234/22/10 
f 235/19/2 233/20/2 234/21/2 236/22/2 
f 226/19/20 225/20/20 241/21/20 242/22/20 
f 232/19/11 226/20/11 242/21/11 243/22/11 
f 242/23/18 241/24/18 244/25/18 243/26/18 
f 225/19/21 229/20/21 244/21/21 241/22/21 
f 229/19/19 232/20/19 243/21/19 244/22/19 
f 237/19/14 240/20/14 245/21/14 246/22/14 
f 238/19/7 237/20/7 246/21/7 247/22/7 
f 248/27/17 247/28/17 246/29/17 245/30/17 
f 240/19/11 239/20/11 248/21/11 245/22/11 
f 239/19/16 238/20/16 247/21/16 248/22/16 
s 1
f 249/13/15 250/14/16 251/15/16 252/16/15 
f 253/17/15 249/13/15 252/16/15 254/18/15 
f 255/17/16 251/13/16 250/14/16 256/15/15 
f 254/18/15 255/17/16 256/15/15 253/16/15 
s off
f 257/19/12 255/20/12 254/21/12 258/22/12 
f 257/19/7 259/20/7 251/21/7 255/22/7 
s 2
f 260/17/17 252/13/17 261/14/17 262/15/8 
f 259/18/17 260/17/17 262/15/8 263/16/17 
f 264/13/19 261/14/17 252/15/17 251/16/19 
f 263/17/17 264/13/19 251/16/19 259/18/17 
s off
f 254/19/10 252/20/10 260/21/10 258/22/10 
f 259/19/2 257/20/2 258/21/2 260/22/2 
f 250/19/12 249/20/12 265/21/12 266/22/12 
f 256/19/11 250/20/11 266/21/11 267/22/11 
f 266/23/15 265/24/15 268/25/15 267/26/15 
f 249/19/7 253/20/7 268/21/7 265/22/7 
f 253/19/17 256/20/17 267/21/17 268/22/17 
f 261/19/14 264/20/14 269/21/14 270/22/14 
f 262/19/7 261/20/7 270/21/7 271/22/7 
f 272/27/17 271/28/17 270/29/17 269/30/17 
f 264/19/11 263/20/11 272/21/11 269/22/11 
f 263/19/16 262/20/16 271/21/16 272/22/16 
s 1
f 273/13/15 274/14/16 275/15/16 276/16/15 
f 277/17/15 273/13/15 276/16/15 278/18/15 
f 279/17/16 275/13/16 274/14/16 280/15/15 
f 278/18/15 279/17/16 280/15/15 277/16/15 
s off
f 281/19/12 279/20/12 278/21/12 282/22/12 
f 281/19/7 283/20/7 275/21/7 279/22/7 
s 2
f 284/17/8 276/13/17 285/14/17 286/15/8 
f 283/18/19 284/17/8 286/15/8 287/16/19 
f 288/13/19 285/14/17 276/15/17 275/16/19 
f 287/17/19 288/13/19 275/16/19 283/18/19 
s off
f 278/19/10 276/20/10 284/21/10 282/22/10 
f 283/19/2 281/20/2 282/21/2 284/22/2 
f 274/19/12 273/20/12 289/21/12 290/22/12 
f 280/19/11 274/20/11 290/21/11 291/22/11 
f 290/23/15 289/24/15 292/25/15 291/26/15 
f 273/19/7 277/20/7 292/21/7 289/22/7 
f 277/19/17 280/20/17 291/21/17 292/22/17 
f 285/19/22 288/20/22 293/21/22 294/22/22 
f 286/19/7 285/20/7 294/21/7 295/22/7 
f 296/27/19 295/28/19 294/29/19 293/30/19 
f 288/19/10 287/20/10 296/21/10 293/22/10 
f 287/19/15 286/20/15 295/21/15 296/22/15 
f 297/19/6 298/20/6 299/21/6 300/22/6 
f 301/19/12 297/20/12 300/21/12 302/22/12 
f 301/19/7 303/20/7 298/21/7 297/22/7 
s 1
f 304/17/19 299/13/19 305/14/19 306/15/19 
f 303/18/17 304/17/19 306/15/19 307/16/17 
f 308/13/17 305/14/19 299/15/19 298/16/17 
f 307/17/17 308/13/17 298/16/17 303/18/17 
s off
f 300/19/10 299/20/10 304/21/10 302/22/10 
s 2
f 301/18/13 302/17/2 309/13/2 310/14/13 
f 301/18/13 310/14/13 311/15/14 303/16/13 
f 304/17/13 303/13/13 311/14/14 312/15/22 
f 302/18/2 304/17/13 312/15/22 309/16/2 
s off
f 312/19/20 311/20/20 313/21/20 314/22/20 
f 309/19/21 312/20/21 314/21/21 315/22/21 
f 316/26/22 315/25/22 314/24/22 313/23/22 
f 311/19/11 310/20/11 316/21/11 313/22/11 
f 310/19/19 309/20/19 315/21/19 316/22/19 
f 305/19/13 308/20/13 317/21/13 318/22/13 
f 306/19/7 305/20/7 318/21/7 319/22/7 
f 320/23/8 319/24/8 318/31/8 317/32/8 
f 308/19/11 307/20/11 320/21/11 317/22/11 
f 307/19/16 306/20/16 319/21/16 320/22/16 
f 321/19/6 322/20/6 323/21/6 324/22/6 
f 325/19/12 321/20/12 324/21/12 326/22/12 
f 325/19/7 327/20/7 322/21/7 321/22/7 
f 328/18/19 323/17/19 329/13/19 330/14/19 
f 328/18/17 330/14/17 331/15/17 327/16/17 
f 332/13/8 329/14/8 323/15/8 322/16/8 
f 331/17/17 332/13/17 322/16/17 327/18/17 
f 324/19/10 323/20/10 328/21/10 326/22/10 
f 333/13/14 334/14/14 327/15/14 325/16/14 
f 335/17/2 333/13/2 325/16/2 326/18/2 
f 328/17/13 327/13/13 334/14/13 336/15/13 
f 326/18/22 328/17/22 336/15/22 335/16/22 
f 336/19/12 334/20/12 337/21/12 338/22/12 
f 335/19/7 336/20/7 338/21/7 339/22/7 
f 340/26/13 339/25/13 338/24/13 337/23/13 
f 334/19/11 333/20/11 340/21/11 337/22/11 
f 333/19/8 335/20/8 339/21/8 340/22/8 
f 329/19/13 332/20/13 341/21/13 342/22/13 
f 330/19/7 329/20/7 342/21/7 343/22/7 
f 344/23/8 343/24/8 342/31/8 341/32/8 
f 332/19/11 331/20/11 344/21/11 341/22/11 
f 331/19/16 330/20/16 343/21/16 344/22/16 
f 345/19/6 346/20/6 347/21/6 348/22/6 
f 349/19/12 345/20/12 348/21/12 350/22/12 
f 349/19/7 351/20/7 346/21/7 345/22/7 
s 1
f 352/17/19 347/13/19 353/14/19 354/15/19 
f 351/18/17 352/17/19 354/15/19 355/16/17 
f 356/13/17 353/14/19 347/15/19 346/16/17 
f 355/17/17 356/13/17 346/16/17 351/18/17 
s off
f 348/19/11 347/20/11 352/21/11 350/22/11 
s 2
f 349/17/13 350/13/2 357/14/2 358/15/13 
f 351/18/14 349/17/13 358/15/13 359/16/22 
f 360/13/22 357/14/2 350/15/2 352/16/13 
f 359/17/22 360/13/22 352/16/13 351/18/14 
s off
f 360/19/12 359/20/12 361/21/12 362/22/12 
f 357/19/7 360/20/7 362/21/7 363/22/7 
f 364/26/13 363/25/13 362/24/13 361/23/13 
f 359/19/11 358/20/11 364/21/11 361/22/11 
f 358/19/8 357/20/8 363/21/8 364/22/8 
f 353/19/13 356/20/13 365/21/13 366/22/13 
f 354/19/7 353/20/7 366/21/7 367/22/7 
f 368/23/23 367/24/23 366/31/23 365/32/23 
f 356/19/11 355/20/11 368/21/11 365/22/11 
f 355/19/15 354/20/15 367/21/15 368/22/15 
f 369/19/6 370/20/6 371/21/6 372/22/6 
s 1
f 373/13/12 374/14/12 375/15/12 369/16/12 
f 376/17/20 373/13/12 369/16/12 372/18/12 
f 377/18/12 375/17/12 374/13/12 378/14/20 
f 377/18/12 378/14/20 376/15/20 372/16/12 
s off
f 375/19/7 379/20/7 370/21/7 369/22/7 
f 370/19/17 379/20/17 380/21/17 371/22/17 
f 372/19/10 371/20/10 380/21/10 377/22/10 
s 2
f 381/13/13 382/14/2 379/15/2 375/16/13 
f 383/17/2 381/13/13 375/16/13 377/18/2 
f 380/17/13 379/13/2 382/14/2 384/15/13 
f 377/18/2 380/17/13 384/15/13 383/16/2 
s off
f 384/19/20 382/20/20 385/21/20 386/22/20 
f 383/19/7 384/20/7 386/21/7 387/22/7 
f 388/33/13 387/34/13 386/35/13 385/36/13 
f 382/19/10 381/20/10 388/21/10 385/22/10 
f 381/19/23 383/20/23 387/21/23 388/22/23 
f 373/19/2 376/20/2 389/21/2 390/22/2 
f 374/19/11 373/20/11 390/21/11 391/22/11 
f 390/32/12 389/31/12 392/24/12 391/23/12 
f 376/19/7 378/20/7 392/21/7 389/22/7 
f 378/19/15 374/20/15 391/21/15 392/22/15 
f 393/19/6 394/20/6 395/21/6 396/22/6 
s 1
f 393/17/4 396/13/24 397/14/24 398/15/4 
f 399/18/4 393/17/4 398/15/4 400/16/24 
f 401/18/4 399/17/4 400/13/24 402/14/4 
f 401/18/4 402/14/4 397/15/24 396/16/24 
s off
f 399/19/7 403/20/7 394/21/7 393/22/7 
f 394/19/17 403/20/17 404/21/17 395/22/17 
f 396/19/10 395/20/10 404/21/10 401/22/10 
f 405/13/2 406/14/2 403/15/2 399/16/2 
f 407/17/13 405/13/13 399/16/13 401/18/13 
f 404/17/13 403/13/13 406/14/13 408/15/13 
f 401/18/13 404/17/13 408/15/13 407/16/13 
f 408/19/12 406/20/12 409/21/12 410/22/12 
f 407/19/7 408/20/7 410/21/7 411/22/7 
f 412/33/2 411/34/2 410/35/2 409/36/2 
f 406/19/11 405/20/11 412/21/11 409/22/11 
f 405/19/8 407/20/8 411/21/8 412/22/8 
f 398/19/2 397/20/2 413/21/2 414/22/2 
f 400/19/11 398/20/11 414/21/11 415/22/11 
f 414/32/12 413/31/12 416/24/12 415/23/12 
f 397/19/7 402/20/7 416/21/7 413/22/7 
f 402/19/6 400/20/6 415/21/6 416/22/6 
f 417/19/6 418/20/6 419/21/6 420/22/6 
f 417/17/24 420/13/24 421/14/24 422/15/24 
f 423/18/4 417/17/4 422/15/4 424/16/4 
f 425/13/4 421/14/4 420/15/4 426/16/4 
f 424/17/24 425/13/24 426/16/24 423/18/24 
f 423/19/7 427/20/7 418/21/7 417/22/7 
f 418/19/17 427/20/17 428/21/17 419/22/17 
f 420/19/11 419/20/11 428/21/11 426/22/11 
s 1
f 423/18/2 426/17/13 429/13/13 430/14/2 
f 423/18/2 430/14/2 431/15/13 427/16/13 
f 428/18/2 427/17/13 431/13/13 432/14/2 
f 428/18/2 432/14/2 429/15/13 426/16/13 
s off
f 432/19/12 431/20/12 433/21/12 434/22/12 
f 429/19/7 432/20/7 434/21/7 435/22/7 
f 436/33/2 435/34/2 434/35/2 433/36/2 
f 431/19/11 430/20/11 436/21/11 433/22/11 
f 430/19/8 429/20/8 435/21/8 436/22/8 
f 422/19/13 421/20/13 437/21/13 438/22/13 
f 424/19/11 422/20/11 438/21/11 439/22/11 
f 438/32/20 437/31/20 440/24/20 439/23/20 
f 421/19/7 425/20/7 440/21/7 437/22/7 
f 425/19/18 424/20/18 439/21/18 440/22/18 
s 1
f 441/13/18 442/14/6 443/15/6 444/16/18 
f 445/17/6 441/13/18 444/16/18 446/18/6 
f 447/17/18 443/13/6 442/14/6 448/15/18 
f 446/18/6 447/17/18 448/15/18 445/16/6 
s 2
f 447/17/20 446/13/12 449/14/12 450/15/20 
f 451/18/12 447/17/20 450/15/20 452/16/12 
f 453/13/12 449/14/12 446/15/12 454/16/12 
f 452/17/12 453/13/12 454/16/12 451/18/12 
s off
f 451/19/7 455/20/7 443/21/7 447/22/7 
f 443/19/17 455/20/17 456/21/17 444/22/17 
f 446/19/10 444/20/10 456/21/10 454/22/10 
f 455/19/2 451/20/2 454/21/2 456/22/2 
f 442/19/20 441/20/20 457/21/20 458/22/20 
f 448/19/11 442/20/11 458/21/11 459/22/11 
f 458/36/15 457/35/15 460/34/15 459/33/15 
f 441/19/21 445/20/21 460/21/21 457/22/21 
f 445/19/19 448/20/19 459/21/19 460/22/19 
f 450/19/13 449/20/13 461/21/13 462/22/13 
f 452/19/11 450/20/11 462/21/11 463/22/11 
f 462/30/4 461/29/4 464/28/4 463/27/4 
f 449/19/7 453/20/7 464/21/7 461/22/7 
f 453/19/6 452/20/6 463/21/6 464/22/6 
f 465/17/16 466/13/16 467/14/16 468/15/16 
f 469/18/6 465/17/6 468/15/6 470/16/6 
f 471/13/15 467/14/15 466/15/15 472/16/15 
f 470/17/15 471/13/15 472/16/15 469/18/15 
s 1
f 472/17/24 466/13/4 473/14/4 474/15/24 
f 475/18/4 472/17/24 474/15/24 476/16/4 
f 477/18/24 475/17/4 476/13/4 478/14/24 
f 477/18/24 478/14/24 473/15/4 466/16/4 
s off
f 475/19/7 479/20/7 469/21/7 472/22/7 
f 469/19/17 479/20/17 480/21/17 465/22/17 
f 466/19/10 465/20/10 480/21/10 477/22/10 
f 479/19/2 475/20/2 477/21/2 480/22/2 
f 470/19/12 468/20/12 481/21/12 482/22/12 
f 471/19/11 470/20/11 482/21/11 483/22/11 
f 482/36/15 481/35/15 484/34/15 483/33/15 
f 468/19/7 467/20/7 484/21/7 481/22/7 
f 467/19/17 471/20/17 483/21/17 484/22/17 
f 474/19/2 473/20/2 485/21/2 486/22/2 
f 476/19/11 474/20/11 486/21/11 487/22/11 
f 486/30/4 485/29/4 488/28/4 487/27/4 
f 473/19/7 478/20/7 488/21/7 485/22/7 
f 478/19/6 476/20/6 487/21/6 488/22/6 
f 489/13/6 490/14/6 491/15/6 492/16/6 
f 493/17/16 489/13/16 492/16/16 494/18/16 
f 495/17/15 491/13/15 490/14/15 496/15/15 
f 494/18/15 495/17/15 496/15/15 493/16/15 
s 1
f 495/17/24 494/13/4 497/14/4 498/15/24 
f 499/18/4 495/17/24 498/15/24 500/16/4 
f 501/13/24 497/14/4 494/15/4 502/16/24 
f 500/17/4 501/13/24 502/16/24 499/18/4 
s off
f 499/19/7 503/20/7 491/21/7 495/22/7 
f 491/19/17 503/20/17 504/21/17 492/22/17 
f 494/19/10 492/20/10 504/21/10 502/22/10 
f 503/19/2 499/20/2 502/21/2 504/22/2 
f 490/19/12 489/20/12 505/21/12 506/22/12 
f 496/19/11 490/20/11 506/21/11 507/22/11 
f 506/36/15 505/35/15 508/34/15 507/33/15 
f 489/19/7 493/20/7 508/21/7 505/22/7 
f 493/19/17 496/20/17 507/21/17 508/22/17 
f 498/19/13 497/20/13 509/21/13 510/22/13 
f 500/19/10 498/20/10 510/21/10 511/22/10 
f 510/30/24 509/29/24 512/28/24 511/27/24 
f 497/19/7 501/20/7 512/21/7 509/22/7 
f 501/19/18 500/20/18 511/21/18 512/22/18 
s 1
f 513/37/18 514/37/18 515/38/18 516/38/18 
f 515/38/18 517/39/15 518/39/15 516/38/18 
f 513/37/18 516/38/18 519/38/18 520/40/6 
f 521/41/6 522/41/15 520/40/6 523/42/6 
f 524/43/6 523/42/6 520/40/6 525/44/6 
f 526/39/6 525/44/6 520/40/6 519/38/18 
f 514/37/18 527/40/15 528/44/15 
f 529/43/15 530/43/15 531/42/15 532/41/15 
f 532/41/15 533/41/15 522/41/15 534/42/15 
f 529/43/15 532/41/15 534/42/15 524/43/6 
f 523/42/6 524/43/6 534/42/15 
s off
f 535/45/4 513/37/4 520/40/4 536/46/4 
f 537/47/11 538/48/11 539/48/11 540/47/11 
f 514/37/17 541/45/17 542/46/17 527/40/17 
f 520/40/10 527/40/10 542/46/10 543/46/10 
f 544/49/11 545/49/11 546/50/11 547/49/11 
f 546/50/10 548/50/10 549/49/10 547/49/10 
f 543/46/11 544/49/11 547/49/11 550/46/11 
f 520/40/11 543/46/11 550/46/11 536/46/11 
f 551/45/2 535/45/2 536/46/2 550/46/2 
f 552/51/12 553/52/12 549/49/12 548/50/12 
s 1
f 537/51/13 554/53/13 555/54/13 
f 548/50/2 546/50/2 556/55/2 557/55/22 
f 548/50/2 557/55/22 558/55/2 552/51/13 
f 552/51/13 558/55/2 559/56/2 560/57/2 
f 552/51/13 560/57/2 561/54/13 562/54/14 
f 562/54/14 563/56/13 564/57/13 565/54/13 
f 552/51/13 562/54/14 565/54/13 566/53/2 
f 565/54/13 567/53/13 566/53/2 
f 552/51/13 566/53/2 568/58/13 537/51/13 
f 569/55/13 558/55/2 557/55/22 570/56/13 
f 557/55/22 563/56/13 562/54/14 571/57/13 
f 570/56/13 557/55/22 571/57/13 559/56/2 
f 559/56/2 571/57/13 560/57/2 
s off
f 538/52/17 537/51/17 546/50/17 545/49/17 
f 572/52/6 538/52/6 545/49/6 544/49/6 
s 1
f 573/59/23 574/60/8 575/61/17 576/62/23 
f 577/63/8 578/64/17 543/46/8 579/65/8 
f 580/66/17 579/65/8 543/46/8 581/67/8 
f 582/68/17 581/67/8 543/46/8 583/45/17 
f 576/62/23 582/68/17 583/45/17 573/59/23 
f 572/52/23 573/59/23 583/45/17 
f 572/52/23 584/69/8 585/70/8 586/71/8 
f 587/72/8 588/73/8 589/74/17 590/75/8 
f 590/75/8 580/66/17 581/67/8 575/61/17 
f 587/72/8 590/75/8 575/61/17 585/70/8 
f 585/70/8 575/61/17 574/60/8 586/71/8 
f 572/52/23 586/71/8 591/76/8 573/59/23 
f 544/49/8 543/46/8 578/64/17 592/77/17 
f 544/49/8 592/77/17 593/78/8 594/79/8 
f 544/49/8 594/79/8 595/80/8 584/69/8 
f 595/80/8 588/73/8 584/69/8 
f 572/52/23 544/49/8 584/69/8 
f 589/74/17 588/73/8 595/80/8 596/81/8 
f 596/81/8 593/78/8 592/77/17 597/82/8 
f 589/74/17 596/81/8 597/82/8 577/63/8 
f 589/74/17 577/63/8 579/65/8 
s off
f 543/46/2 542/46/2 541/45/2 583/45/2 
s 1
f 551/45/12 550/46/12 598/64/12 599/63/24 
f 551/45/12 599/63/24 600/65/12 601/66/12 
f 551/45/12 601/66/12 602/67/4 603/68/12 
f 551/45/12 603/68/12 604/62/24 605/59/12 
f 604/62/24 606/61/4 607/60/20 605/59/12 
f 551/45/12 605/59/12 608/76/4 609/52/12 
f 609/52/12 608/76/4 610/71/12 611/70/4 
f 606/61/4 602/67/4 601/66/12 607/60/20 
f 610/71/12 607/60/20 601/66/12 612/75/20 
f 612/75/20 613/74/4 614/73/12 615/72/4 
f 610/71/12 612/75/20 615/72/4 611/70/4 
f 616/82/20 617/77/4 618/78/20 619/81/12 
f 619/81/12 620/80/12 614/73/12 616/82/20 
f 599/63/24 616/82/20 614/73/12 613/74/4 
f 600/65/12 599/63/24 613/74/4 
f 621/69/12 614/73/12 620/80/12 547/49/4 
f 617/77/4 598/64/12 550/46/12 618/78/20 
f 622/79/4 618/78/20 550/46/12 547/49/4 
f 620/80/12 622/79/4 547/49/4 
f 611/70/4 621/69/12 547/49/4 609/52/12 
s off
f 547/49/15 549/49/15 553/52/15 609/52/15 
f 623/58/8 567/53/8 624/83/8 625/84/8 
f 626/58/11 623/58/11 625/84/11 627/84/11 
f 625/85/13 624/86/13 628/86/13 627/85/13 
f 567/53/7 554/53/7 628/83/7 624/83/7 
f 554/53/12 626/58/12 627/84/12 628/83/12 
f 565/54/8 564/57/8 629/87/8 630/88/8 
f 555/54/11 565/54/11 630/88/11 631/88/11 
f 630/89/2 629/90/2 632/90/2 631/89/2 
f 564/57/7 633/57/7 632/87/7 629/87/7 
f 633/57/12 555/54/12 631/88/12 632/87/12 
f 563/56/8 557/55/8 634/91/8 635/92/8 
f 636/56/11 563/56/11 635/92/11 637/92/11 
f 635/93/2 634/94/2 638/94/2 637/93/2 
f 557/55/7 556/55/7 638/91/7 634/91/7 
f 556/55/12 636/56/12 637/92/12 638/91/12 
f 568/58/8 566/53/8 639/83/8 640/84/8 
f 641/58/11 568/58/11 640/84/11 642/84/11 
f 640/85/14 639/86/14 643/86/14 642/85/14 
f 566/53/7 644/53/7 643/83/7 639/83/7 
f 644/53/12 641/58/12 642/84/12 643/83/12 
f 561/54/17 560/57/17 645/87/17 646/88/17 
f 562/54/11 561/54/11 646/88/11 647/88/11 
f 646/89/14 645/90/14 648/90/14 647/89/14 
f 560/57/7 571/57/7 648/87/7 645/87/7 
f 571/57/12 562/54/12 647/88/12 648/87/12 
f 559/56/17 558/55/17 649/91/17 650/92/17 
f 570/56/11 559/56/11 650/92/11 651/92/11 
f 650/93/14 649/94/14 652/94/14 651/93/14 
f 558/55/7 569/55/7 652/91/7 649/91/7 
f 569/55/12 570/56/12 651/92/12 652/91/12 
f 516/38/12 518/39/12 653/95/12 654/96/12 
f 519/38/11 516/38/11 654/96/11 655/96/11 
f 654/97/15 653/98/15 656/98/15 655/97/15 
f 518/39/7 526/39/7 656/95/7 653/95/7 
f 526/39/17 519/38/17 655/96/17 656/95/17 
f 657/44/4 529/43/4 658/99/4 659/100/4 
f 525/44/11 657/44/11 659/100/11 660/100/11 
f 659/101/15 658/102/15 661/102/15 660/101/15 
f 529/43/7 524/43/7 661/99/7 658/99/7 
f 524/43/8 525/44/8 660/100/8 661/99/8 
f 534/42/4 522/41/4 662/103/4 663/104/4 
f 523/42/11 534/42/11 663/104/11 664/104/11 
f 663/105/15 662/106/15 665/106/15 664/105/15 
f 522/41/7 521/41/7 665/103/7 662/103/7 
f 521/41/8 523/42/8 664/104/8 665/103/8 
f 666/38/12 667/39/12 668/95/12 669/96/12 
f 515/38/11 666/38/11 669/96/11 670/96/11 
f 669/97/15 668/98/15 671/98/15 670/97/15 
f 667/39/7 517/39/7 671/95/7 668/95/7 
f 517/39/8 515/38/8 670/96/8 671/95/8 
f 528/44/12 672/43/12 673/99/12 674/100/12 
f 675/44/11 528/44/11 674/100/11 676/100/11 
f 674/101/15 673/102/15 677/102/15 676/101/15 
f 672/43/7 530/43/7 677/99/7 673/99/7 
f 530/43/17 675/44/17 676/100/17 677/99/17 
f 678/42/12 533/41/12 679/103/12 680/104/12 
f 531/42/11 678/42/11 680/104/11 681/104/11 
f 680/105/15 679/106/15 682/106/15 681/105/15 
f 533/41/7 532/41/7 682/103/7 679/103/7 
f 532/41/17 531/42/17 681/104/17 682/103/17 
f 574/60/2 573/59/2 683/59/2 684/60/2 
f 586/71/7 574/60/7 684/60/7 685/71/7 
f 686/107/8 685/108/8 684/109/8 683/110/8 
f 573/59/11 591/76/11 686/76/11 683/59/11 
f 591/76/6 586/71/6 685/71/6 686/76/6 
f 581/67/14 582/68/14 687/68/14 688/67/14 
f 575/61/7 581/67/7 688/67/7 689/61/7 
f 690/107/17 689/108/17 688/109/17 687/110/17 
f 582/68/11 576/62/11 690/62/11 687/68/11 
f 576/62/6 575/61/6 689/61/6 690/62/6 
f 579/65/14 580/66/14 691/66/14 692/65/14 
f 589/74/7 579/65/7 692/65/7 693/74/7 
f 694/107/17 693/108/17 692/109/17 691/110/17 
f 580/66/11 590/75/11 694/75/11 691/66/11 
f 590/75/6 589/74/6 693/74/6 694/75/6 
f 588/73/2 587/72/2 695/72/2 696/73/2 
f 584/69/7 588/73/7 696/73/7 697/69/7 
f 698/107/8 697/108/8 696/109/8 695/110/8 
f 587/72/11 585/70/11 698/70/11 695/72/11 
f 585/70/6 584/69/6 697/69/6 698/70/6 
f 593/78/13 596/81/13 699/81/13 700/78/13 
f 594/79/7 593/78/7 700/78/7 701/79/7 
f 702/107/23 701/108/23 700/109/23 699/110/23 
f 596/81/11 595/80/11 702/80/11 699/81/11 
f 595/80/18 594/79/18 701/79/18 702/80/18 
f 578/64/22 577/63/22 703/63/22 704/64/22 
f 592/77/7 578/64/7 704/64/7 705/77/7 
f 706/107/19 705/108/19 704/109/19 703/110/19 
f 577/63/11 597/82/11 706/82/11 703/63/11 
f 597/82/18 592/77/18 705/77/18 706/82/18 
f 605/59/14 607/60/14 707/60/14 708/59/14 
f 608/76/11 605/59/11 708/59/11 709/76/11 
f 708/110/12 707/109/12 710/108/12 709/107/12 
f 607/60/7 610/71/7 710/71/7 707/60/7 
f 610/71/15 608/76/15 709/76/15 710/71/15 
f 603/68/14 602/67/14 711/67/14 712/68/14 
f 604/62/11 603/68/11 712/68/11 713/62/11 
f 712/110/12 711/109/12 714/108/12 713/107/12 
f 602/67/7 606/61/7 714/61/7 711/67/7 
f 606/61/6 604/62/6 713/62/6 714/61/6 
f 601/66/14 600/65/14 715/65/14 716/66/14 
f 612/75/11 601/66/11 716/66/11 717/75/11 
f 716/110/12 715/109/12 718/108/12 717/107/12 
f 600/65/7 613/74/7 718/74/7 715/65/7 
f 613/74/6 612/75/6 717/75/6 718/74/6 
f 615/72/14 614/73/14 719/73/14 720/72/14 
f 611/70/11 615/72/11 720/72/11 721/70/11 
f 720/110/12 719/109/12 722/108/12 721/107/12 
f 614/73/7 621/69/7 722/69/7 719/73/7 
f 621/69/15 611/70/15 721/70/15 722/69/15 
f 619/81/22 618/78/22 723/78/22 724/81/22 
f 620/80/11 619/81/11 724/81/11 725/80/11 
f 724/110/20 723/109/20 726/108/20 725/107/20 
f 618/78/7 622/79/7 726/79/7 723/78/7 
f 622/79/15 620/80/15 725/80/15 726/79/15 
f 599/63/22 598/64/22 727/64/22 728/63/22 
f 616/82/11 599/63/11 728/63/11 729/82/11 
f 728/110/20 727/109/20 730/108/20 729/107/20 
f 598/64/7 617/77/7 730/77/7 727/64/7 
f 617/77/18 616/82/18 729/82/18 730/77/18 
f 572/48/11 583/111/11 731/111/11 732/48/11 
s 2
f 553/48/11 552/47/11 733/47/11 734/48/11 
f 609/48/11 553/48/11 734/48/11 735/48/11 
s off
f 551/111/11 609/48/11 735/48/11 736/111/11 
f 583/111/11 541/111/11 737/111/11 731/111/11 
f 538/48/11 572/48/11 732/48/11 539/48/11 
f 535/111/11 551/111/11 736/111/11 738/111/11 
s 2
f 552/47/11 537/47/25 540/47/11 733/47/11 
s off
f 541/111/11 514/112/11 739/112/11 737/111/11 
f 513/112/11 535/111/11 738/111/11 740/112/11 
f 514/112/11 513/112/11 740/112/11 739/112/11 
f 736/111/12 735/48/12 741/48/12 742/111/12 
f 540/47/17 539/48/17 743/48/17 744/47/17 
f 738/111/2 736/111/2 742/111/2 745/111/2 
f 740/112/12 738/111/12 745/111/12 746/112/12 
f 737/111/17 739/112/17 747/112/17 748/111/17 
f 732/48/17 731/111/17 749/111/17 750/48/17 
f 739/112/6 740/112/6 746/112/6 747/112/6 
f 731/111/2 737/111/2 748/111/2 749/111/2 
f 734/48/12 733/47/12 751/47/12 752/48/12 
f 733/47/2 540/47/2 744/47/2 751/47/2 
f 539/48/6 732/48/6 750/48/6 743/48/6 
f 735/48/6 734/48/6 752/48/6 741/48/6 
f 742/111/7 741/48/7 753/48/7 754/111/7 
s 1
f 744/47/7 743/48/7 755/48/7 756/47/7 
s off
f 745/111/7 742/111/7 754/111/7 757/111/7 
f 746/112/7 745/111/7 757/111/7 758/112/7 
f 748/111/7 747/112/7 759/112/7 760/111/7 
s 1
f 750/48/7 749/111/7 761/111/7 762/48/7 
s off
f 747/112/7 746/112/7 758/112/7 759/112/7 
s 1
f 749/111/7 748/111/7 760/111/7 761/111/7 
s off
f 752/48/7 751/47/7 763/47/7 764/48/7 
s 1
f 751/47/7 744/47/7 756/47/7 763/47/7 
f 743/48/7 750/48/7 762/48/7 755/48/7 
s off
f 741/48/7 752/48/7 764/48/7 753/48/7 
f 754/111/17 753/48/17 765/48/17 766/111/17 
f 756/47/12 755/48/12 767/48/12 768/47/12 
f 757/111/6 754/111/6 766/111/6 769/111/6 
f 758/112/17 757/111/17 769/111/17 770/112/17 
f 760/111/12 759/112/12 771/112/12 772/111/12 
f 762/48/12 761/111/12 773/111/12 774/48/12 
f 759/112/2 758/112/2 770/112/2 771/112/2 
f 761/111/6 760/111/6 772/111/6 773/111/6 
f 764/48/17 763/47/17 775/47/17 776/48/17 
f 763/47/6 756/47/6 768/47/6 775/47/6 
f 755/48/2 762/48/2 774/48/2 767/48/2 
f 753/48/2 764/48/2 776/48/2 765/48/2 
f 775/113/7 768/114/7 767/114/7 774/115/7 
f 773/115/7 772/116/7 771/116/7 766/114/7 
f 771/116/7 770/115/7 769/115/7 766/114/7 
f 774/115/7 773/115/7 766/114/7 765/114/7 
f 775/113/7 774/115/7 765/114/7 776/113/7 
s 1
f 555/54/13 546/50/2 537/51/13 
f 564/57/13 563/56/13 636/56/13 
f 636/56/13 556/55/2 546/50/2 
s 2
f 537/51/25 568/58/13 641/58/13 
s off
f 644/53/26 566/53/26 567/53/26 
s 1
f 633/57/13 564/57/13 636/56/13 
s off
f 623/58/13 644/53/13 567/53/13 
s 1
f 633/57/13 636/56/13 546/50/2 
s off
f 641/58/13 644/53/13 623/58/13 
s 1
f 555/54/13 633/57/13 546/50/2 
s 2
f 537/51/25 641/58/13 623/58/13 
s 1
f 554/53/13 567/53/13 565/54/13 
s off
f 537/51/13 623/58/13 626/58/13 
s 1
f 554/53/13 565/54/13 555/54/13 
f 537/51/13 626/58/13 554/53/13 
f 666/38/15 515/38/18 514/37/18 
f 528/44/15 517/39/15 667/39/15 
f 667/39/15 666/38/15 514/37/18 
s 2
f 527/40/6 520/40/6 522/41/6 
s 1
f 672/43/15 528/44/15 527/40/15 
f 528/44/15 675/44/15 517/39/15 
f 657/44/15 525/44/6 526/39/6 
f 530/43/15 529/43/15 657/44/15 
f 531/42/15 530/43/15 672/43/15 
f 675/44/15 530/43/15 657/44/15 
f 678/42/15 531/42/15 672/43/15 
f 518/39/15 657/44/15 526/39/6 
f 527/40/15 678/42/15 672/43/15 
f 518/39/15 675/44/15 657/44/15 
s 2
f 527/40/6 522/41/6 533/41/15 
s 1
f 517/39/15 675/44/15 518/39/15 
f 527/40/15 533/41/15 678/42/15 
f 514/37/18 528/44/15 667/39/15 
# 700 polygons - 44 triangles

