# 3ds Max Wavefront OBJ Exporter v0.97b - (c)2007 guruware
# File Created: 15.03.2017 10:41:47

mtllib SPW_Urban_Bldg_11.mtl

#
# object SPW_Urban_Bldg_11
#

v  623.1559 35.4330 -282.2064
v  557.7969 35.4330 -347.5653
v  557.7969 114.1732 -347.5653
v  623.1559 114.1732 -282.2064
v  557.7969 35.4331 347.5655
v  623.1558 35.4331 282.2065
v  623.1558 114.1733 282.2065
v  557.7969 114.1733 347.5655
v  -623.1560 35.4331 282.2065
v  -557.7970 35.4331 347.5653
v  -557.7970 114.1733 347.5653
v  -623.1560 114.1733 282.2064
v  -557.7970 35.4330 -347.5654
v  -623.1559 35.4330 -282.2065
v  -623.1559 114.1732 -282.2066
v  -557.7970 114.1732 -347.5655
v  623.1559 118.1102 -282.2064
v  557.7969 118.1102 -347.5653
v  557.7969 196.8504 -347.5653
v  623.1559 196.8504 -282.2064
v  557.7969 118.1103 347.5655
v  623.1558 118.1103 282.2065
v  623.1558 196.8504 282.2065
v  557.7969 196.8504 347.5655
v  -623.1560 118.1103 282.2064
v  -557.7970 118.1103 347.5653
v  -557.7970 196.8504 347.5653
v  -623.1560 196.8504 282.2064
v  -557.7970 118.1102 -347.5655
v  -623.1559 118.1102 -282.2066
v  -623.1559 196.8504 -282.2066
v  -557.7970 196.8504 -347.5655
v  623.1559 200.7874 -282.2064
v  557.7969 200.7874 -347.5653
v  557.7969 279.5275 -347.5654
v  623.1559 279.5275 -282.2064
v  557.7969 200.7874 347.5655
v  623.1558 200.7874 282.2065
v  623.1558 279.5276 282.2065
v  557.7969 279.5276 347.5654
v  -623.1560 200.7874 282.2064
v  -557.7970 200.7874 347.5653
v  -557.7970 279.5276 347.5653
v  -623.1560 279.5276 282.2064
v  -557.7970 200.7874 -347.5655
v  -623.1559 200.7874 -282.2066
v  -623.1559 279.5275 -282.2066
v  -557.7970 279.5275 -347.5655
v  623.1559 283.4645 -282.2064
v  557.7970 283.4645 -347.5653
v  557.7970 362.2047 -347.5653
v  623.1559 362.2047 -282.2064
v  557.7969 283.4646 347.5654
v  623.1558 283.4646 282.2065
v  623.1558 362.2048 282.2065
v  557.7969 362.2048 347.5654
v  -623.1560 283.4646 282.2064
v  -557.7971 283.4646 347.5652
v  -557.7971 362.2048 347.5652
v  -623.1560 362.2048 282.2064
v  -557.7970 283.4645 -347.5656
v  -623.1559 283.4645 -282.2066
v  -623.1559 362.2047 -282.2066
v  -557.7970 362.2047 -347.5656
v  314.0398 444.8818 -511.8110
v  314.0398 444.8819 0.0001
v  314.0398 334.4713 0.0001
v  314.0398 334.4712 -511.8111
v  -314.4497 444.8818 -511.8111
v  -314.4497 334.4712 -511.8111
v  329.6405 444.8818 -527.4116
v  329.6404 444.8819 15.6006
v  -314.4498 444.8819 -0.0001
v  -314.4498 334.4713 -0.0000
v  314.0397 -0.0040 109.9209
v  314.0398 -0.0041 -401.8903
v  -330.0504 444.8818 -527.4117
v  -330.0504 444.8819 15.6005
v  329.6405 484.2520 -527.4117
v  329.6404 484.2520 15.6006
v  -314.4498 -0.0040 109.9208
v  78.7402 -0.0041 -401.1747
v  -314.4498 -0.0041 -401.8903
v  -78.7401 -0.0041 -401.8903
v  -78.7401 -0.0041 -401.1747
v  78.7402 -0.0041 -401.8903
v  -330.0504 484.2520 -527.4118
v  -330.0504 484.2520 15.6005
v  288.8882 484.2520 -486.6594
v  288.8881 484.2520 -25.1517
v  -289.2982 484.2520 -486.6595
v  -289.2982 484.2520 -25.1517
v  288.8882 474.4094 -486.6594
v  288.8881 474.4095 -25.1517
v  -289.2982 474.4094 -486.6595
v  -289.2982 474.4095 -25.1517
v  78.7402 118.1102 -440.7069
v  78.7402 118.1102 -401.1748
v  -78.7401 118.1102 -440.7070
v  -78.7401 118.1102 -401.1747
v  313.8463 188.9649 -534.0690
v  313.8463 188.9649 -455.3289
v  313.8463 145.2909 -455.3289
v  313.8463 145.2909 -534.0690
v  -313.8461 188.9649 -455.3289
v  -313.8461 145.2909 -455.3289
v  -313.8461 188.9649 -534.0692
v  -313.8461 145.2909 -534.0691
v  557.7971 385.8267 -347.5654
v  623.1559 385.8267 -282.2064
v  633.8843 385.8267 -292.9346
v  633.8841 385.8267 -323.0671
v  598.6578 385.8267 -358.2935
v  568.5253 385.8267 -358.2935
v  623.1559 31.4960 -282.2064
v  557.7971 31.4960 -347.5653
v  568.5253 31.4960 -358.2935
v  598.6578 31.4960 -358.2935
v  633.8841 31.4960 -323.0671
v  633.8843 31.4960 -292.9346
v  623.1559 385.8268 282.2065
v  557.7970 385.8268 347.5654
v  568.5251 385.8268 358.2936
v  598.6578 385.8268 358.2936
v  633.8840 385.8268 323.0672
v  633.8840 385.8268 292.9347
v  557.7970 31.4961 347.5655
v  623.1559 31.4961 282.2065
v  633.8840 31.4961 292.9347
v  633.8840 31.4961 323.0673
v  598.6578 31.4961 358.2936
v  568.5251 31.4961 358.2937
v  -557.7971 385.8268 347.5652
v  -623.1559 385.8268 282.2064
v  -633.8843 385.8268 292.9345
v  -633.8841 385.8268 323.0670
v  -598.6578 385.8268 358.2934
v  -568.5253 385.8268 358.2934
v  -623.1559 31.4961 282.2064
v  -557.7971 31.4961 347.5653
v  -568.5253 31.4961 358.2935
v  -598.6578 31.4961 358.2935
v  -633.8841 31.4961 323.0671
v  -633.8843 31.4961 292.9346
v  -623.1559 385.8267 -282.2066
v  -557.7970 385.8267 -347.5656
v  -568.5251 385.8267 -358.2937
v  -598.6577 385.8267 -358.2937
v  -633.8840 385.8267 -323.0674
v  -633.8840 385.8267 -292.9348
v  -557.7970 31.4960 -347.5655
v  -623.1559 31.4960 -282.2065
v  -633.8840 31.4960 -292.9347
v  -633.8840 31.4960 -323.0673
v  -598.6577 31.4960 -358.2936
v  -568.5251 31.4960 -358.2936
v  557.7970 31.4960 -347.5652
v  557.7970 35.4330 -347.5652
v  557.7969 31.4961 347.5655
v  623.1558 31.4961 282.2065
v  -623.1560 31.4961 282.2064
v  -557.7971 35.4331 347.5653
v  -623.1560 35.4331 282.2064
v  -557.7970 35.4330 -347.5655
v  557.7970 114.1732 -347.5653
v  557.7970 118.1102 -347.5653
v  -557.7971 114.1733 347.5653
v  -557.7971 118.1103 347.5653
v  557.7970 196.8504 -347.5653
v  557.7970 200.7874 -347.5653
v  -557.7971 196.8504 347.5653
v  -557.7971 200.7874 347.5653
v  557.7970 279.5275 -347.5653
v  -557.7971 279.5276 347.5652
v  -557.7970 279.5275 -347.5656
v  557.7970 366.1417 -347.5653
v  623.1559 366.1417 -282.2064
v  623.1558 366.1418 282.2065
v  557.7969 366.1418 347.5654
v  -557.7971 366.1418 347.5652
v  -623.1560 366.1418 282.2064
v  -623.1559 366.1417 -282.2066
v  -557.7970 366.1417 -347.5656
v  623.6219 370.2840 -234.2520
v  -623.6219 370.2840 -234.2521
v  -623.6219 31.4960 -234.2520
v  623.6219 31.4960 -234.2519
v  -623.6219 370.2840 -238.1891
v  -623.6219 31.4960 -238.1891
v  623.6220 370.2840 -238.1890
v  623.6220 31.4960 -238.1889
v  623.6219 370.2840 -155.5118
v  -623.6219 370.2840 -155.5119
v  -623.6219 31.4960 -155.5119
v  623.6219 31.4960 -155.5118
v  -623.6219 370.2840 -159.4490
v  -623.6219 31.4960 -159.4489
v  623.6219 370.2840 -159.4488
v  623.6219 31.4960 -159.4488
v  623.6219 370.2840 -76.7717
v  -623.6219 370.2840 -76.7718
v  -623.6219 31.4960 -76.7717
v  623.6219 31.4960 -76.7716
v  -623.6219 370.2840 -80.7088
v  -623.6219 31.4961 -80.7087
v  623.6219 370.2840 -80.7086
v  623.6219 31.4961 -80.7086
v  623.6219 370.2841 238.1890
v  -623.6220 370.2841 238.1889
v  -623.6220 31.4961 238.1889
v  623.6219 31.4961 238.1891
v  -623.6219 370.2841 234.2519
v  -623.6219 31.4961 234.2519
v  623.6219 370.2841 234.2520
v  623.6219 31.4961 234.2520
v  623.6219 370.2841 159.4489
v  -623.6219 370.2841 159.4487
v  -623.6219 31.4961 159.4488
v  623.6219 31.4961 159.4489
v  -623.6219 370.2841 155.5117
v  -623.6219 31.4961 155.5118
v  623.6219 370.2841 155.5118
v  623.6219 31.4961 155.5119
v  623.6219 370.2841 80.7087
v  -623.6219 370.2841 80.7085
v  -623.6219 31.4961 80.7086
v  623.6219 31.4961 80.7087
v  -623.6219 370.2840 76.7715
v  -623.6219 31.4961 76.7716
v  623.6219 370.2840 76.7717
v  623.6219 31.4961 76.7717
v  623.6219 370.2840 1.9685
v  -623.6219 370.2840 1.9684
v  -623.6219 31.4961 1.9685
v  623.6219 31.4961 1.9685
v  -623.6219 370.2840 -1.9686
v  -623.6219 31.4961 -1.9686
v  623.6219 370.2840 -1.9685
v  623.6219 31.4961 -1.9685
v  474.4095 370.2840 -348.0313
v  474.4095 370.2841 348.0314
v  474.4095 31.4961 348.0315
v  474.4095 31.4960 -348.0313
v  470.4724 370.2841 348.0314
v  470.4724 31.4961 348.0315
v  470.4725 370.2840 -348.0313
v  470.4725 31.4960 -348.0313
v  395.6693 370.2840 -348.0313
v  395.6693 370.2841 348.0314
v  395.6693 31.4961 348.0315
v  395.6693 31.4960 -348.0313
v  391.7323 370.2841 348.0314
v  391.7323 31.4961 348.0315
v  391.7324 370.2840 -348.0313
v  391.7324 31.4960 -348.0313
v  316.9292 370.2840 -348.0314
v  316.9291 370.2841 348.0313
v  316.9291 31.4961 348.0314
v  316.9292 31.4960 -348.0313
v  312.9921 370.2841 348.0314
v  312.9921 31.4961 348.0314
v  312.9922 370.2840 -348.0314
v  312.9922 31.4960 -348.0313
v  238.1890 370.2840 -348.0314
v  238.1889 370.2841 348.0314
v  238.1889 31.4961 348.0314
v  238.1890 31.4960 -348.0313
v  234.2519 370.2841 348.0314
v  234.2519 31.4961 348.0314
v  234.2520 370.2840 -348.0314
v  234.2520 31.4960 -348.0313
v  159.4489 370.2840 -348.0314
v  159.4488 370.2841 348.0313
v  159.4488 31.4961 348.0314
v  159.4489 31.4960 -348.0313
v  155.5118 370.2841 348.0313
v  155.5118 31.4961 348.0314
v  155.5119 370.2840 -348.0314
v  155.5119 31.4960 -348.0313
v  80.7087 370.2840 -348.0314
v  80.7086 370.2841 348.0313
v  80.7086 31.4961 348.0314
v  80.7087 31.4960 -348.0313
v  76.7716 370.2841 348.0313
v  76.7716 31.4961 348.0314
v  76.7717 370.2840 -348.0315
v  76.7717 31.4960 -348.0314
v  -470.4724 370.2840 -348.0315
v  -470.4725 370.2841 348.0312
v  -470.4725 31.4961 348.0313
v  -470.4724 31.4960 -348.0315
v  -474.4095 370.2841 348.0312
v  -474.4095 31.4961 348.0313
v  -474.4095 370.2840 -348.0315
v  -474.4095 31.4960 -348.0315
v  -391.7323 370.2840 -348.0316
v  -391.7324 370.2841 348.0312
v  -391.7324 31.4961 348.0313
v  -391.7323 31.4960 -348.0315
v  -395.6693 370.2841 348.0312
v  -395.6693 31.4961 348.0313
v  -395.6693 370.2840 -348.0315
v  -395.6693 31.4960 -348.0315
v  -312.9921 370.2840 -348.0315
v  -312.9922 370.2841 348.0313
v  -312.9922 31.4961 348.0313
v  -312.9921 31.4960 -348.0314
v  -316.9292 370.2841 348.0313
v  -316.9292 31.4961 348.0313
v  -316.9291 370.2840 -348.0315
v  -316.9291 31.4960 -348.0314
v  -234.2519 370.2840 -348.0315
v  -234.2520 370.2841 348.0313
v  -234.2520 31.4961 348.0313
v  -234.2519 31.4960 -348.0314
v  -238.1890 370.2841 348.0313
v  -238.1890 31.4961 348.0313
v  -238.1889 370.2840 -348.0315
v  -238.1889 31.4960 -348.0314
v  -155.5118 370.2840 -348.0315
v  -155.5119 370.2841 348.0313
v  -155.5119 31.4961 348.0313
v  -155.5118 31.4960 -348.0314
v  -159.4489 370.2841 348.0313
v  -159.4489 31.4961 348.0313
v  -159.4488 370.2840 -348.0315
v  -159.4488 31.4960 -348.0314
v  -76.7716 370.2840 -348.0315
v  -76.7717 370.2841 348.0313
v  -76.7717 31.4961 348.0314
v  -76.7716 31.4960 -348.0314
v  -80.7087 370.2841 348.0313
v  -80.7087 31.4961 348.0313
v  -80.7086 370.2840 -348.0315
v  -80.7086 31.4960 -348.0314
v  1.9686 370.2840 -348.0314
v  1.9685 370.2841 348.0313
v  1.9685 31.4961 348.0314
v  1.9686 31.4960 -348.0313
v  -1.9686 370.2841 348.0313
v  -1.9686 31.4961 348.0313
v  -1.9685 370.2840 -348.0315
v  -1.9685 31.4960 -348.0314
v  598.6577 365.7597 -358.2935
v  598.6577 405.1298 -358.2935
v  633.8840 405.1298 -323.0671
v  633.8840 365.7597 -323.0671
v  633.8840 365.7598 323.0673
v  633.8840 405.1299 323.0672
v  598.6577 405.1299 358.2935
v  598.6577 365.7598 358.2936
v  -598.6577 365.7598 358.2934
v  -598.6577 405.1299 358.2934
v  -633.8841 405.1299 323.0671
v  -633.8841 365.7598 323.0671
v  -633.8840 365.7597 -323.0674
v  -633.8840 405.1298 -323.0674
v  -598.6577 405.1298 -358.2937
v  -598.6577 365.7597 -358.2937
v  -602.4539 405.1299 297.0404
v  -602.4539 405.1298 -297.0407
v  -602.4539 393.3189 297.0404
v  -602.4539 393.3188 -297.0407
v  568.9741 405.1299 329.4290
v  -568.9742 405.1299 329.4289
v  602.4538 405.1298 -297.0405
v  602.4539 405.1299 297.0405
v  -568.9742 405.1298 -329.4292
v  568.9742 405.1298 -329.4290
v  602.4538 393.3188 -297.0405
v  568.9742 393.3188 -329.4290
v  -568.9742 393.3188 -329.4292
v  -568.9742 393.3189 329.4289
v  568.9741 393.3189 329.4290
v  602.4539 393.3189 297.0405
v  598.6577 -0.0001 -358.2935
v  598.6577 31.4960 -358.2935
v  633.8840 31.4960 -323.0670
v  633.8840 -0.0001 -323.0670
v  633.8840 0.0001 323.0673
v  598.6577 31.4961 358.2936
v  598.6577 0.0001 358.2936
v  -598.6577 0.0001 358.2935
v  -598.6577 31.4961 358.2935
v  -633.8841 31.4961 323.0672
v  -633.8841 0.0000 323.0672
v  -633.8840 -0.0001 -323.0674
v  -633.8840 31.4960 -323.0674
v  -598.6577 -0.0001 -358.2936
# 389 vertices

vn 0.7071 -0.0000 -0.7071
vn 0.7071 0.0000 0.7071
vn -0.7071 0.0000 0.7071
vn -0.7071 -0.0000 -0.7071
vn 0.0000 -0.0000 -1.0000
vn 1.0000 0.0000 0.0000
vn -0.0000 0.0000 1.0000
vn -1.0000 -0.0000 -0.0000
vn -0.0000 1.0000 -0.0000
vn 0.0000 1.0000 -0.0000
vn -0.0000 -1.0000 0.0000
vn 0.0000 -1.0000 0.0000
vn 1.0000 -0.0000 0.0000
vn -1.0000 0.0000 -0.0000
vn 0.0000 0.0000 -1.0000
vn -0.0000 0.3122 0.9500
vn -1.0000 -0.0000 0.0000
vn -0.0000 -0.0000 -1.0000
vn 0.0000 -0.3122 -0.9500
vn 1.0000 -0.0000 -0.0000
vn 1.0000 0.0000 -0.0000
vn 0.0000 0.0000 1.0000
vn -1.0000 0.0000 0.0000
vn 0.0000 -1.0000 -0.0000
vn 0.6953 0.0000 0.7187
vn 0.6953 -0.0000 -0.7187
vn -0.6953 -0.0000 -0.7187
vn -0.6953 0.0000 0.7187
# 28 vertex normals

vt 0.3138 0.9277 0.0000
vt 0.3638 0.9277 0.0000
vt 0.3638 0.9777 0.0000
vt 0.3138 0.9777 0.0000
vt 0.3388 0.9777 0.0000
vt 0.3565 0.9703 0.0000
vt 0.3638 0.9527 0.0000
vt 0.3565 0.9350 0.0000
vt 0.3388 0.9277 0.0000
vt 0.3211 0.9350 0.0000
vt 0.3138 0.9527 0.0000
vt 0.3211 0.9703 0.0000
vt 0.3045 0.8160 0.0000
vt 0.3545 0.8160 0.0000
vt 0.3545 0.8660 0.0000
vt 0.3045 0.8660 0.0000
vt 0.3295 0.8660 0.0000
vt 0.3472 0.8587 0.0000
vt 0.3545 0.8410 0.0000
vt 0.3045 0.8410 0.0000
vt 0.3472 0.8234 0.0000
vt 0.3295 0.8160 0.0000
vt 0.3118 0.8234 0.0000
vt 0.3118 0.8587 0.0000
vt 0.3634 0.0130 0.0000
vt 0.4134 0.0130 0.0000
vt 0.4134 0.0630 0.0000
vt 0.3634 0.0630 0.0000
vt 0.6865 0.0305 0.0000
vt 0.9776 0.0305 0.0000
vt 0.9776 0.2489 0.0000
vt 0.6865 0.2489 0.0000
vt 0.3603 0.0099 0.0000
vt 0.4103 0.0099 0.0000
vt 0.4103 0.0599 0.0000
vt 0.3603 0.0599 0.0000
vt 0.3233 0.8722 0.0000
vt 0.3449 0.8597 0.0000
vt 0.3449 0.8347 0.0000
vt 0.3233 0.8222 0.0000
vt 0.3016 0.8347 0.0000
vt 0.3016 0.8597 0.0000
vt 0.2983 0.8222 0.0000
vt 0.3483 0.8222 0.0000
vt 0.3483 0.8722 0.0000
vt 0.2983 0.8722 0.0000
vt 0.3410 0.8649 0.0000
vt 0.3483 0.8472 0.0000
vt 0.3410 0.8296 0.0000
vt 0.3056 0.8296 0.0000
vt 0.2983 0.8472 0.0000
vt 0.3056 0.8649 0.0000
vt 0.3822 0.0568 0.0000
vt 0.3999 0.0495 0.0000
vt 0.4072 0.0318 0.0000
vt 0.3999 0.0142 0.0000
vt 0.3822 0.0068 0.0000
vt 0.3645 0.0142 0.0000
vt 0.3572 0.0318 0.0000
vt 0.3645 0.0495 0.0000
# 60 texture coords

g SPW_Urban_Bldg_11
usemtl SPW_Urban_Bldg_11
s off
f 1/1/1 2/2/1 3/3/1 4/4/1 
f 5/1/2 6/2/2 7/3/2 8/4/2 
f 9/1/3 10/2/3 11/3/3 12/4/3 
f 13/1/4 14/2/4 15/3/4 16/4/4 
f 13/1/5 16/2/5 3/3/5 2/4/5 
f 4/1/6 7/2/6 6/3/6 1/4/6 
f 5/1/7 8/2/7 11/3/7 10/4/7 
f 9/1/8 12/2/8 15/3/8 14/4/8 
f 4/5/9 3/6/9 16/7/9 15/8/9 
f 4/5/10 15/8/10 12/9/10 11/10/10 
f 4/5/9 11/10/9 8/11/9 7/12/9 
f 1/5/11 6/6/11 5/7/11 10/8/11 
f 1/5/12 10/8/12 9/9/12 14/10/12 
f 1/5/12 14/10/12 13/11/12 2/12/12 
f 17/1/1 18/2/1 19/3/1 20/4/1 
f 21/1/2 22/2/2 23/3/2 24/4/2 
f 25/1/3 26/2/3 27/3/3 28/4/3 
f 29/1/4 30/2/4 31/3/4 32/4/4 
f 29/1/5 32/2/5 19/3/5 18/4/5 
f 20/1/6 23/2/6 22/3/6 17/4/6 
f 21/1/7 24/2/7 27/3/7 26/4/7 
f 25/1/8 28/2/8 31/3/8 30/4/8 
f 20/5/10 19/6/10 32/7/10 31/8/10 
f 20/5/9 31/8/9 28/9/9 27/10/9 
f 20/5/10 27/10/10 24/11/10 23/12/10 
f 17/5/12 22/6/12 21/7/12 26/8/12 
f 17/5/11 26/8/11 25/9/11 30/10/11 
f 17/5/12 30/10/12 29/11/12 18/12/12 
f 33/1/1 34/2/1 35/3/1 36/4/1 
f 37/1/2 38/2/2 39/3/2 40/4/2 
f 41/1/3 42/2/3 43/3/3 44/4/3 
f 45/1/4 46/2/4 47/3/4 48/4/4 
f 45/1/5 48/2/5 35/3/5 34/4/5 
f 36/1/13 39/2/13 38/3/13 33/4/13 
f 37/1/7 40/2/7 43/3/7 42/4/7 
f 41/1/14 44/2/14 47/3/14 46/4/14 
f 36/5/10 35/6/10 48/7/10 47/8/10 
f 36/5/9 47/8/9 44/9/9 43/10/9 
f 36/5/10 43/10/10 40/11/10 39/12/10 
f 33/5/11 38/6/11 37/7/11 42/8/11 
f 33/5/12 42/8/12 41/9/12 46/10/12 
f 33/5/12 46/10/12 45/11/12 34/12/12 
f 49/1/1 50/2/1 51/3/1 52/4/1 
f 53/1/2 54/2/2 55/3/2 56/4/2 
f 57/1/3 58/2/3 59/3/3 60/4/3 
f 61/1/4 62/2/4 63/3/4 64/4/4 
f 61/1/5 64/2/5 51/3/5 50/4/5 
f 52/1/6 55/2/6 54/3/6 49/4/6 
f 53/1/7 56/2/7 59/3/7 58/4/7 
f 57/1/8 60/2/8 63/3/8 62/4/8 
f 52/5/10 51/6/10 64/7/10 63/8/10 
f 52/5/10 63/8/10 60/9/10 59/10/10 
f 52/5/10 59/10/10 56/11/10 55/12/10 
f 49/5/11 54/6/11 53/7/11 58/8/11 
f 49/5/12 58/8/12 57/9/12 62/10/12 
f 49/5/12 62/10/12 61/11/12 50/12/12 
s 1
f 65/13/13 66/14/6 67/15/13 68/16/6 
s off
f 69/13/15 65/14/15 68/15/15 70/16/15 
s 2
f 66/13/12 65/14/11 71/15/11 72/16/12 
s off
f 66/13/7 73/14/7 74/15/7 67/16/7 
s 1
f 68/13/6 67/14/13 75/15/6 76/16/6 
f 73/13/8 69/14/14 70/15/14 74/16/14 
s 2
f 65/13/11 69/14/12 77/15/12 71/16/11 
s off
f 73/13/12 66/14/12 72/15/12 78/16/12 
f 72/13/6 71/14/6 79/15/6 80/16/6 
f 67/13/16 74/14/16 81/15/16 75/16/16 
f 76/17/11 75/18/11 81/19/11 82/20/11 
f 81/19/12 83/21/12 84/22/12 85/23/12 
f 81/19/11 85/23/11 82/20/11 
f 76/17/12 82/20/12 86/24/12 
s 2
f 69/13/12 73/14/11 78/15/11 77/16/12 
s 1
f 74/13/14 70/14/14 83/15/14 81/16/14 
s off
f 71/13/5 77/14/5 87/15/5 79/16/5 
f 78/13/7 72/14/7 80/15/7 88/16/7 
s 1
f 80/13/9 79/14/10 89/15/10 90/16/9 
s off
f 77/13/8 78/14/8 88/15/8 87/16/8 
s 1
f 79/13/10 87/14/9 91/15/9 89/16/10 
f 88/13/10 80/14/9 90/15/9 92/16/10 
s off
f 90/13/8 89/14/8 93/15/8 94/16/8 
s 1
f 87/13/9 88/14/10 92/15/10 91/16/9 
s off
f 89/13/7 91/14/7 95/15/7 93/16/7 
f 92/13/5 90/14/5 94/15/5 96/16/5 
f 95/25/9 96/26/9 94/27/9 93/28/9 
f 91/13/6 92/14/6 96/15/6 95/16/6 
f 97/13/17 86/14/17 82/15/17 98/16/17 
f 99/13/12 97/14/12 98/15/12 100/16/12 
f 82/29/18 85/30/18 100/31/18 98/32/18 
f 100/13/6 85/14/6 84/15/6 99/16/6 
f 70/14/19 68/15/19 76/16/19 97/13/19 
f 76/16/19 86/24/19 97/13/19 
f 70/14/19 97/13/19 99/13/19 84/15/19 
f 70/14/19 84/15/19 83/21/19 
f 101/33/6 102/34/6 103/35/6 104/36/6 
f 102/33/7 105/34/7 106/35/7 103/36/7 
f 105/33/8 107/34/8 108/35/8 106/36/8 
f 107/33/5 101/34/5 104/35/5 108/36/5 
f 104/33/12 103/34/12 106/35/12 108/36/12 
f 107/33/10 105/34/10 102/35/10 101/36/10 
f 109/37/10 110/38/10 111/39/10 112/40/10 
f 109/37/10 112/40/10 113/41/10 114/42/10 
f 115/43/3 110/44/3 109/45/3 116/46/3 
f 116/43/4 109/44/4 114/45/4 117/46/4 
f 117/43/5 114/44/5 113/45/5 118/46/5 
f 118/43/1 113/44/1 112/45/1 119/46/1 
f 115/37/12 116/38/12 117/39/12 118/40/12 
f 115/37/11 118/40/11 119/41/11 120/42/11 
f 120/43/2 111/44/2 110/45/2 115/46/2 
f 119/43/20 112/44/20 111/45/20 120/46/20 
f 121/37/10 122/38/10 123/39/10 124/40/10 
f 121/37/10 124/40/10 125/41/10 126/42/10 
f 127/43/4 122/44/4 121/45/4 128/46/4 
f 128/43/1 121/44/1 126/45/1 129/46/1 
f 129/43/21 126/44/21 125/45/21 130/46/21 
f 130/43/2 125/44/2 124/45/2 131/46/2 
f 127/37/11 128/38/11 129/39/11 130/40/11 
f 127/37/11 130/40/11 131/41/11 132/42/11 
f 132/43/3 123/44/3 122/45/3 127/46/3 
f 131/43/22 124/44/22 123/45/22 132/46/22 
f 133/37/10 134/38/10 135/39/10 136/40/10 
f 133/37/10 136/40/10 137/41/10 138/42/10 
f 139/43/1 134/44/1 133/45/1 140/46/1 
f 140/43/2 133/44/2 138/45/2 141/46/2 
f 141/43/22 138/44/22 137/45/22 142/46/22 
f 142/43/3 137/44/3 136/45/3 143/46/3 
f 139/37/12 140/38/12 141/39/12 142/40/12 
f 139/37/11 142/40/11 143/41/11 144/42/11 
f 144/43/4 135/44/4 134/45/4 139/46/4 
f 143/43/23 136/44/23 135/45/23 144/46/23 
f 145/37/10 146/38/10 147/39/10 148/40/10 
f 145/37/10 148/40/10 149/41/10 150/42/10 
f 151/43/2 146/44/2 145/45/2 152/46/2 
f 152/43/3 145/44/3 150/45/3 153/46/3 
f 153/43/14 150/44/14 149/45/14 154/46/14 
f 154/43/4 149/44/4 148/45/4 155/46/4 
f 151/37/11 152/38/11 153/39/11 154/40/11 
f 151/37/11 154/40/11 155/41/11 156/42/11 
f 156/43/1 147/44/1 146/45/1 151/46/1 
f 155/43/5 148/44/5 147/45/5 156/46/5 
f 115/43/1 157/44/1 158/45/1 1/46/1 
f 159/43/2 160/44/2 6/45/2 5/46/2 
f 161/43/3 140/44/3 162/45/3 163/46/3 
f 151/43/4 152/44/4 14/45/4 164/46/4 
f 151/43/5 164/44/5 158/45/5 157/46/5 
f 1/43/6 6/44/6 160/45/6 115/46/6 
f 159/43/7 5/44/7 162/45/7 140/46/7 
f 161/43/8 163/44/8 14/45/8 152/46/8 
f 1/37/9 158/47/9 164/48/9 14/49/9 
f 1/37/9 14/49/9 163/40/9 162/50/9 
f 1/37/10 162/50/10 5/51/10 6/52/10 
f 115/37/11 160/47/11 159/48/11 140/49/11 
f 115/37/12 140/49/12 161/40/12 152/50/12 
f 115/37/12 152/50/12 151/51/12 157/52/12 
f 4/43/1 165/44/1 166/45/1 17/46/1 
f 8/43/2 7/44/2 22/45/2 21/46/2 
f 12/43/3 167/44/3 168/45/3 25/46/3 
f 16/43/4 15/44/4 30/45/4 29/46/4 
f 16/43/5 29/44/5 166/45/5 165/46/5 
f 17/43/6 22/44/6 7/45/6 4/46/6 
f 8/43/7 21/44/7 168/45/7 167/46/7 
f 12/43/8 25/44/8 30/45/8 15/46/8 
f 17/37/9 166/47/9 29/48/9 30/49/9 
f 17/37/10 30/49/10 25/40/10 168/50/10 
f 17/37/9 168/50/9 21/51/9 22/52/9 
f 4/37/12 7/47/12 8/48/12 167/49/12 
f 4/37/11 167/49/11 12/40/11 15/50/11 
f 4/37/12 15/50/12 16/51/12 165/52/12 
f 20/43/1 169/44/1 170/45/1 33/46/1 
f 24/43/2 23/44/2 38/45/2 37/46/2 
f 28/43/3 171/44/3 172/45/3 41/46/3 
f 32/43/4 31/44/4 46/45/4 45/46/4 
f 32/43/5 45/44/5 170/45/5 169/46/5 
f 33/43/6 38/44/6 23/45/6 20/46/6 
f 24/43/7 37/44/7 172/45/7 171/46/7 
f 28/43/8 41/44/8 46/45/8 31/46/8 
f 33/37/10 170/47/10 45/48/10 46/49/10 
f 33/37/9 46/49/9 41/40/9 172/50/9 
f 33/37/10 172/50/10 37/51/10 38/52/10 
f 20/37/11 23/47/11 24/48/11 171/49/11 
f 20/37/12 171/49/12 28/40/12 31/50/12 
f 20/37/12 31/50/12 32/51/12 169/52/12 
f 36/43/1 173/44/1 50/45/1 49/46/1 
f 40/43/2 39/44/2 54/45/2 53/46/2 
f 44/43/3 174/44/3 58/45/3 57/46/3 
f 175/43/4 47/44/4 62/45/4 61/46/4 
f 175/43/5 61/44/5 50/45/5 173/46/5 
f 49/43/6 54/44/6 39/45/6 36/46/6 
f 40/43/7 53/44/7 58/45/7 174/46/7 
f 44/43/8 57/44/8 62/45/8 47/46/8 
f 49/37/10 50/47/10 61/48/10 62/49/10 
f 49/37/9 62/49/9 57/40/9 58/50/9 
f 49/37/10 58/50/10 53/51/10 54/52/10 
f 36/37/11 39/47/11 40/48/11 174/49/11 
f 36/37/12 174/49/12 44/40/12 47/50/12 
f 36/37/12 47/50/12 175/51/12 173/52/12 
f 52/43/1 51/44/1 176/45/1 177/46/1 
f 56/43/2 55/44/2 178/45/2 179/46/2 
f 60/43/3 59/44/3 180/45/3 181/46/3 
f 64/43/4 63/44/4 182/45/4 183/46/4 
f 64/43/5 183/44/5 176/45/5 51/46/5 
f 177/43/6 178/44/6 55/45/6 52/46/6 
f 56/43/7 179/44/7 180/45/7 59/46/7 
f 60/43/8 181/44/8 182/45/8 63/46/8 
f 177/37/10 176/47/10 183/48/10 182/49/10 
f 177/37/10 182/49/10 181/40/10 180/50/10 
f 177/37/10 180/50/10 179/51/10 178/52/10 
f 52/37/12 55/47/12 56/48/12 59/49/12 
f 52/37/12 59/49/12 60/40/12 63/50/12 
f 52/37/12 63/50/12 64/51/12 51/52/12 
f 184/43/7 185/44/7 186/45/7 187/46/7 
f 185/43/23 188/44/23 189/45/23 186/46/23 
f 188/43/5 190/44/5 191/45/5 189/46/5 
f 190/43/6 184/44/6 187/45/6 191/46/6 
f 187/43/12 186/44/12 189/45/12 191/46/12 
f 190/43/10 188/44/10 185/45/10 184/46/10 
f 192/43/7 193/44/7 194/45/7 195/46/7 
f 193/43/14 196/44/14 197/45/14 194/46/14 
f 196/43/5 198/44/5 199/45/5 197/46/5 
f 198/43/21 192/44/21 195/45/21 199/46/21 
f 195/43/12 194/44/12 197/45/12 199/46/12 
f 198/43/10 196/44/10 193/45/10 192/46/10 
f 200/43/7 201/44/7 202/45/7 203/46/7 
f 201/43/14 204/44/14 205/45/14 202/46/14 
f 204/43/5 206/44/5 207/45/5 205/46/5 
f 206/43/21 200/44/21 203/45/21 207/46/21 
f 203/43/24 202/44/24 205/45/24 207/46/24 
f 206/43/10 204/44/10 201/45/10 200/46/10 
f 208/43/7 209/44/7 210/45/7 211/46/7 
f 209/43/8 212/44/8 213/45/8 210/46/8 
f 212/43/5 214/44/5 215/45/5 213/46/5 
f 214/43/20 208/44/20 211/45/20 215/46/20 
f 211/43/12 210/44/12 213/45/12 215/46/12 
f 214/43/10 212/44/10 209/45/10 208/46/10 
f 216/43/7 217/44/7 218/45/7 219/46/7 
f 217/43/14 220/44/14 221/45/14 218/46/14 
f 220/43/5 222/44/5 223/45/5 221/46/5 
f 222/43/21 216/44/21 219/45/21 223/46/21 
f 219/43/12 218/44/12 221/45/12 223/46/12 
f 222/43/10 220/44/10 217/45/10 216/46/10 
f 224/43/7 225/44/7 226/45/7 227/46/7 
f 225/43/14 228/44/14 229/45/14 226/46/14 
f 228/43/5 230/44/5 231/45/5 229/46/5 
f 230/43/21 224/44/21 227/45/21 231/46/21 
f 227/43/24 226/44/24 229/45/24 231/46/24 
f 230/43/10 228/44/10 225/45/10 224/46/10 
f 232/43/7 233/44/7 234/45/7 235/46/7 
f 233/43/14 236/44/14 237/45/14 234/46/14 
f 236/43/5 238/44/5 239/45/5 237/46/5 
f 238/43/21 232/44/21 235/45/21 239/46/21 
f 235/43/12 234/44/12 237/45/12 239/46/12 
f 238/43/10 236/44/10 233/45/10 232/46/10 
f 240/43/6 241/44/6 242/45/6 243/46/6 
f 241/43/22 244/44/22 245/45/22 242/46/22 
f 244/43/8 246/44/8 247/45/8 245/46/8 
f 246/43/5 240/44/5 243/45/5 247/46/5 
f 243/43/12 242/44/12 245/45/12 247/46/12 
f 246/43/10 244/44/10 241/45/10 240/46/10 
f 248/43/21 249/44/21 250/45/21 251/46/21 
f 249/43/22 252/44/22 253/45/22 250/46/22 
f 252/43/8 254/44/8 255/45/8 253/46/8 
f 254/43/5 248/44/5 251/45/5 255/46/5 
f 251/43/11 250/44/11 253/45/11 255/46/11 
f 254/43/10 252/44/10 249/45/10 248/46/10 
f 256/43/6 257/44/6 258/45/6 259/46/6 
f 257/43/22 260/44/22 261/45/22 258/46/22 
f 260/43/8 262/44/8 263/45/8 261/46/8 
f 262/43/18 256/44/18 259/45/18 263/46/18 
f 259/43/11 258/44/11 261/45/11 263/46/11 
f 262/43/10 260/44/10 257/45/10 256/46/10 
f 264/43/6 265/44/6 266/45/6 267/46/6 
f 265/43/22 268/44/22 269/45/22 266/46/22 
f 268/43/8 270/44/8 271/45/8 269/46/8 
f 270/43/18 264/44/18 267/45/18 271/46/18 
f 267/43/11 266/44/11 269/45/11 271/46/11 
f 270/43/10 268/44/10 265/45/10 264/46/10 
f 272/43/6 273/44/6 274/45/6 275/46/6 
f 273/43/22 276/44/22 277/45/22 274/46/22 
f 276/43/8 278/44/8 279/45/8 277/46/8 
f 278/43/5 272/44/5 275/45/5 279/46/5 
f 275/43/12 274/44/12 277/45/12 279/46/12 
f 278/43/10 276/44/10 273/45/10 272/46/10 
f 280/43/6 281/44/6 282/45/6 283/46/6 
f 281/43/22 284/44/22 285/45/22 282/46/22 
f 284/43/8 286/44/8 287/45/8 285/46/8 
f 286/43/5 280/44/5 283/45/5 287/46/5 
f 283/43/12 282/44/12 285/45/12 287/46/12 
f 286/43/10 284/44/10 281/45/10 280/46/10 
f 288/43/6 289/44/6 290/45/6 291/46/6 
f 289/43/22 292/44/22 293/45/22 290/46/22 
f 292/43/8 294/44/8 295/45/8 293/46/8 
f 294/43/5 288/44/5 291/45/5 295/46/5 
f 291/43/12 290/44/12 293/45/12 295/46/12 
f 294/43/10 292/44/10 289/45/10 288/46/10 
f 296/43/6 297/44/6 298/45/6 299/46/6 
f 297/43/22 300/44/22 301/45/22 298/46/22 
f 300/43/14 302/44/14 303/45/14 301/46/14 
f 302/43/18 296/44/18 299/45/18 303/46/18 
f 299/43/11 298/44/11 301/45/11 303/46/11 
f 302/43/10 300/44/10 297/45/10 296/46/10 
f 304/43/6 305/44/6 306/45/6 307/46/6 
f 305/43/22 308/44/22 309/45/22 306/46/22 
f 308/43/8 310/44/8 311/45/8 309/46/8 
f 310/43/18 304/44/18 307/45/18 311/46/18 
f 307/43/11 306/44/11 309/45/11 311/46/11 
f 310/43/10 308/44/10 305/45/10 304/46/10 
f 312/43/6 313/44/6 314/45/6 315/46/6 
f 313/43/22 316/44/22 317/45/22 314/46/22 
f 316/43/8 318/44/8 319/45/8 317/46/8 
f 318/43/5 312/44/5 315/45/5 319/46/5 
f 315/43/11 314/44/11 317/45/11 319/46/11 
f 318/43/10 316/44/10 313/45/10 312/46/10 
f 320/43/6 321/44/6 322/45/6 323/46/6 
f 321/43/7 324/44/7 325/45/7 322/46/7 
f 324/43/8 326/44/8 327/45/8 325/46/8 
f 326/43/5 320/44/5 323/45/5 327/46/5 
f 323/43/12 322/44/12 325/45/12 327/46/12 
f 326/43/10 324/44/10 321/45/10 320/46/10 
f 328/43/6 329/44/6 330/45/6 331/46/6 
f 329/43/7 332/44/7 333/45/7 330/46/7 
f 332/43/8 334/44/8 335/45/8 333/46/8 
f 334/43/5 328/44/5 331/45/5 335/46/5 
f 331/43/12 330/44/12 333/45/12 335/46/12 
f 334/43/10 332/44/10 329/45/10 328/46/10 
f 336/43/6 337/44/6 338/45/6 339/46/6 
f 337/43/7 340/44/7 341/45/7 338/46/7 
f 340/43/8 342/44/8 343/45/8 341/46/8 
f 342/43/5 336/44/5 339/45/5 343/46/5 
f 339/43/12 338/44/12 341/45/12 343/46/12 
f 342/43/10 340/44/10 337/45/10 336/46/10 
f 344/43/1 345/44/1 346/45/1 347/46/1 
f 348/43/2 349/44/2 350/45/2 351/46/2 
f 352/43/3 353/44/3 354/45/3 355/46/3 
f 356/43/4 357/44/4 358/45/4 359/46/4 
f 358/43/5 345/44/5 344/45/5 359/46/5 
f 349/43/6 348/44/6 347/45/6 346/46/6 
f 350/43/7 353/44/7 352/45/7 351/46/7 
f 354/43/8 357/44/8 356/45/8 355/46/8 
s 1
f 357/43/10 354/44/10 360/45/10 361/46/10 
s off
f 344/37/12 347/47/12 348/48/12 351/49/12 
f 344/37/12 351/49/12 352/40/12 355/50/12 
f 344/37/12 355/50/12 356/51/12 359/52/12 
f 361/43/21 360/44/21 362/45/21 363/46/21 
s 1
f 353/43/10 350/44/10 364/45/10 365/46/10 
f 349/43/10 346/44/10 366/45/10 367/46/10 
f 345/43/10 358/44/10 368/45/10 369/46/10 
f 358/43/10 357/44/10 361/45/10 368/46/10 
f 354/43/10 353/44/10 365/45/10 360/46/10 
f 350/43/10 349/44/10 367/45/10 364/46/10 
f 346/43/10 345/44/10 369/45/10 366/46/10 
s off
f 370/53/10 371/54/10 372/55/10 363/56/10 
f 370/53/10 363/56/10 362/57/10 373/58/10 
f 370/53/10 373/58/10 374/59/10 375/60/10 
f 365/43/5 364/44/5 374/45/5 373/46/5 
f 367/43/23 366/44/23 370/45/23 375/46/23 
f 369/43/7 368/44/7 372/45/7 371/46/7 
f 368/43/25 361/44/25 363/45/25 372/46/25 
f 360/43/26 365/44/26 373/45/26 362/46/26 
f 364/43/27 367/44/27 375/45/27 374/46/27 
f 366/43/28 369/44/28 371/45/28 370/46/28 
f 376/43/1 377/44/1 378/45/1 379/46/1 
f 380/43/2 130/44/2 381/45/2 382/46/2 
f 383/43/3 384/44/3 385/45/3 386/46/3 
f 387/43/4 388/44/4 155/45/4 389/46/4 
f 155/43/5 377/44/5 376/45/5 389/46/5 
f 130/43/6 380/44/6 379/45/6 378/46/6 
f 381/43/7 384/44/7 383/45/7 382/46/7 
f 385/43/8 388/44/8 387/45/8 386/46/8 
f 378/37/9 377/47/9 155/48/9 388/49/9 
f 378/37/9 388/49/9 385/40/9 384/50/9 
f 378/37/9 384/50/9 381/51/9 130/52/9 
f 376/37/12 379/47/12 380/48/12 382/49/12 
f 376/37/12 382/49/12 383/40/12 386/50/12 
f 376/37/12 386/50/12 387/51/12 389/52/12 
# 368 polygons - 4 triangles

