# 3ds Max Wavefront OBJ Exporter v0.97b - (c)2007 guruware
# File Created: 15.03.2017 10:40:20

mtllib SPW_Urban_Bldg_06.mtl

#
# object SPW_Urban_Bldg_06
#

v  -0.0000 113.0948 156.8174
v  -0.0000 1294.1974 156.8172
v  -79.4799 1294.1974 152.4799
v  -79.4799 113.0948 152.4801
v  -153.5433 1294.1974 139.7635
v  -153.5433 113.0948 139.7637
v  -217.1431 1294.1974 119.5348
v  -217.1431 113.0948 119.5350
v  -265.9449 1294.1974 95.7992
v  -265.9449 113.0948 95.7994
v  -265.9448 1294.1974 -95.7996
v  -265.9448 113.0948 -95.7995
v  -217.1431 1294.1974 -119.5353
v  -217.1431 113.0948 -119.5351
v  -153.5434 1294.1974 -139.7640
v  -153.5434 113.0948 -139.7638
v  -79.4799 1294.1974 -152.4803
v  -79.4799 113.0948 -152.4801
v  -0.0001 1294.1974 -156.8176
v  -0.0001 113.0948 -156.8174
v  79.4798 1294.1974 -152.4803
v  79.4798 113.0948 -152.4801
v  153.5432 1294.1974 -139.7640
v  153.5432 113.0948 -139.7638
v  217.1429 1294.1974 -119.5353
v  217.1429 113.0948 -119.5351
v  265.9448 1294.1974 -94.6505
v  265.9448 113.0948 -94.6503
v  265.9449 1294.1974 94.6500
v  265.9449 113.0948 94.6502
v  217.1432 1294.1974 119.5348
v  217.1432 113.0948 119.5350
v  153.5435 1294.1974 139.7635
v  153.5435 113.0948 139.7637
v  79.4801 1294.1974 152.4799
v  79.4801 113.0948 152.4801
v  -0.0000 1181.1024 166.6597
v  -0.0000 1220.4725 166.6597
v  -82.3626 1220.4725 162.3224
v  -82.3626 1181.1024 162.3224
v  -159.1123 1220.4725 149.6061
v  -159.1123 1181.1024 149.6061
v  -225.0188 1220.4725 129.3773
v  -225.0188 1181.1024 129.3774
v  -275.5906 1220.4725 103.0148
v  -275.5906 1181.1024 103.0148
v  -275.5906 1220.4725 -103.0152
v  -275.5906 1181.1024 -103.0152
v  -225.0188 1220.4725 -129.3778
v  -225.0188 1181.1024 -129.3778
v  -159.1123 1220.4725 -149.6065
v  -159.1123 1181.1024 -149.6065
v  -82.3627 1220.4725 -162.3228
v  -82.3627 1181.1024 -162.3228
v  -0.0001 1220.4725 -166.6601
v  -0.0001 1181.1024 -166.6601
v  82.3625 1220.4725 -162.3228
v  82.3625 1181.1024 -162.3228
v  159.1122 1220.4725 -149.6065
v  159.1122 1181.1024 -149.6065
v  225.0186 1220.4725 -129.3778
v  225.0186 1181.1024 -129.3778
v  275.5905 1220.4725 -103.0152
v  275.5905 1181.1024 -103.0152
v  275.5906 1220.4725 103.0148
v  275.5906 1181.1024 103.0148
v  225.0189 1220.4725 129.3774
v  225.0189 1181.1024 129.3774
v  159.1125 1220.4725 149.6061
v  159.1125 1181.1024 149.6061
v  82.3628 1220.4725 162.3224
v  82.3628 1181.1024 162.3224
v  -0.0000 1102.3622 166.6597
v  -0.0000 1141.7323 166.6597
v  -82.3626 1141.7323 162.3224
v  -82.3626 1102.3622 162.3224
v  -159.1123 1141.7323 149.6061
v  -159.1123 1102.3622 149.6061
v  -225.0188 1141.7323 129.3773
v  -225.0188 1102.3622 129.3774
v  -275.5906 1141.7323 103.0148
v  -275.5906 1102.3622 103.0148
v  -275.5906 1141.7323 -103.0152
v  -275.5906 1102.3622 -103.0152
v  -225.0188 1141.7323 -129.3778
v  -225.0188 1102.3622 -129.3778
v  -159.1123 1141.7323 -149.6065
v  -159.1123 1102.3622 -149.6065
v  -82.3627 1141.7323 -162.3228
v  -82.3627 1102.3622 -162.3228
v  -0.0001 1141.7323 -166.6601
v  -0.0001 1102.3622 -166.6601
v  82.3625 1141.7323 -162.3228
v  82.3625 1102.3622 -162.3228
v  159.1122 1141.7323 -149.6065
v  159.1122 1102.3622 -149.6065
v  225.0186 1141.7323 -129.3778
v  225.0186 1102.3622 -129.3778
v  275.5905 1141.7323 -103.0152
v  275.5905 1102.3622 -103.0152
v  275.5906 1141.7323 103.0148
v  275.5906 1102.3622 103.0148
v  225.0189 1141.7323 129.3774
v  225.0189 1102.3622 129.3774
v  159.1125 1141.7323 149.6061
v  159.1125 1102.3622 149.6061
v  82.3628 1141.7323 162.3224
v  82.3628 1102.3622 162.3224
v  -0.0000 1023.6221 166.6597
v  -0.0000 1062.9923 166.6597
v  -82.3626 1062.9923 162.3224
v  -82.3626 1023.6221 162.3224
v  -159.1123 1062.9923 149.6061
v  -159.1123 1023.6221 149.6061
v  -225.0188 1062.9923 129.3774
v  -225.0188 1023.6221 129.3774
v  -275.5906 1062.9923 103.0148
v  -275.5906 1023.6221 103.0148
v  -275.5906 1062.9923 -103.0152
v  -275.5906 1023.6221 -103.0152
v  -225.0188 1062.9923 -129.3778
v  -225.0188 1023.6221 -129.3777
v  -159.1123 1062.9923 -149.6065
v  -159.1123 1023.6221 -149.6065
v  -82.3627 1062.9923 -162.3228
v  -82.3627 1023.6220 -162.3228
v  -0.0001 1062.9923 -166.6601
v  -0.0001 1023.6220 -166.6601
v  82.3625 1062.9923 -162.3228
v  82.3625 1023.6220 -162.3228
v  159.1122 1062.9923 -149.6065
v  159.1122 1023.6221 -149.6064
v  225.0186 1062.9923 -129.3778
v  225.0186 1023.6221 -129.3777
v  275.5905 1062.9923 -103.0152
v  275.5905 1023.6221 -103.0151
v  275.5906 1062.9923 103.0148
v  275.5906 1023.6221 103.0148
v  225.0189 1062.9923 129.3774
v  225.0189 1023.6221 129.3774
v  159.1125 1062.9923 149.6061
v  159.1125 1023.6221 149.6061
v  82.3628 1062.9923 162.3224
v  82.3628 1023.6221 162.3224
v  -0.0000 944.8820 166.6598
v  -0.0000 984.2521 166.6597
v  -82.3626 984.2521 162.3224
v  -82.3626 944.8820 162.3224
v  -159.1123 984.2521 149.6061
v  -159.1123 944.8819 149.6061
v  -225.0188 984.2521 129.3774
v  -225.0188 944.8819 129.3774
v  -275.5906 984.2521 103.0148
v  -275.5906 944.8819 103.0148
v  -275.5906 984.2521 -103.0152
v  -275.5906 944.8819 -103.0152
v  -225.0188 984.2521 -129.3777
v  -225.0188 944.8819 -129.3777
v  -159.1123 984.2521 -149.6065
v  -159.1123 944.8819 -149.6065
v  -82.3627 984.2520 -162.3228
v  -82.3627 944.8818 -162.3228
v  -0.0001 984.2520 -166.6601
v  -0.0001 944.8818 -166.6600
v  82.3625 984.2520 -162.3228
v  82.3625 944.8818 -162.3227
v  159.1122 984.2521 -149.6064
v  159.1122 944.8819 -149.6064
v  225.0186 984.2521 -129.3777
v  225.0186 944.8819 -129.3777
v  275.5905 984.2521 -103.0151
v  275.5905 944.8819 -103.0151
v  275.5906 984.2521 103.0148
v  275.5906 944.8819 103.0148
v  225.0189 984.2521 129.3774
v  225.0189 944.8819 129.3774
v  159.1125 984.2521 149.6061
v  159.1125 944.8819 149.6061
v  82.3628 984.2521 162.3224
v  82.3628 944.8820 162.3224
v  -0.0000 866.1418 166.6598
v  -0.0000 905.5119 166.6598
v  -82.3626 905.5119 162.3224
v  -82.3626 866.1418 162.3225
v  -159.1123 905.5118 149.6061
v  -159.1123 866.1417 149.6061
v  -225.0188 905.5118 129.3774
v  -225.0188 866.1417 129.3774
v  -275.5906 905.5118 103.0148
v  -275.5906 866.1417 103.0148
v  -275.5906 905.5118 -103.0151
v  -275.5906 866.1417 -103.0151
v  -225.0188 905.5118 -129.3777
v  -225.0188 866.1417 -129.3777
v  -159.1123 905.5118 -149.6065
v  -159.1123 866.1417 -149.6064
v  -82.3627 905.5118 -162.3228
v  -82.3627 866.1417 -162.3228
v  -0.0001 905.5118 -166.6600
v  -0.0001 866.1417 -166.6600
v  82.3625 905.5118 -162.3227
v  82.3625 866.1417 -162.3227
v  159.1122 905.5118 -149.6064
v  159.1122 866.1417 -149.6064
v  225.0186 905.5118 -129.3777
v  225.0186 866.1417 -129.3777
v  275.5905 905.5118 -103.0151
v  275.5905 866.1417 -103.0151
v  275.5906 905.5118 103.0148
v  275.5906 866.1417 103.0148
v  225.0189 905.5118 129.3774
v  225.0189 866.1417 129.3774
v  159.1125 905.5118 149.6061
v  159.1125 866.1417 149.6062
v  82.3628 905.5119 162.3224
v  82.3628 866.1418 162.3225
v  -0.0000 787.4017 166.6598
v  -0.0000 826.7717 166.6598
v  -82.3626 826.7717 162.3225
v  -82.3626 787.4017 162.3225
v  -159.1123 826.7717 149.6061
v  -159.1123 787.4016 149.6061
v  -225.0188 826.7717 129.3774
v  -225.0188 787.4016 129.3774
v  -275.5906 826.7717 103.0148
v  -275.5906 787.4016 103.0148
v  -275.5906 826.7717 -103.0151
v  -275.5906 787.4016 -103.0151
v  -225.0188 826.7717 -129.3777
v  -225.0188 787.4016 -129.3777
v  -159.1123 826.7717 -149.6064
v  -159.1123 787.4016 -149.6064
v  -82.3627 826.7716 -162.3228
v  -82.3627 787.4016 -162.3227
v  -0.0001 826.7716 -166.6600
v  -0.0001 787.4016 -166.6600
v  82.3625 826.7716 -162.3227
v  82.3625 787.4016 -162.3227
v  159.1122 826.7717 -149.6064
v  159.1122 787.4016 -149.6064
v  225.0186 826.7717 -129.3777
v  225.0186 787.4016 -129.3777
v  275.5905 826.7717 -103.0151
v  275.5905 787.4016 -103.0151
v  275.5906 826.7717 103.0148
v  275.5906 787.4016 103.0148
v  225.0189 826.7717 129.3774
v  225.0189 787.4016 129.3774
v  159.1125 826.7717 149.6062
v  159.1125 787.4016 149.6062
v  82.3628 826.7717 162.3225
v  82.3628 787.4017 162.3225
v  -0.0000 708.6616 166.6598
v  -0.0000 748.0316 166.6598
v  -82.3626 748.0316 162.3225
v  -82.3626 708.6616 162.3225
v  -159.1123 748.0315 149.6061
v  -159.1123 708.6615 149.6062
v  -225.0188 748.0315 129.3774
v  -225.0188 708.6615 129.3774
v  -275.5906 748.0315 103.0148
v  -275.5906 708.6615 103.0148
v  -275.5906 748.0315 -103.0151
v  -275.5906 708.6615 -103.0151
v  -225.0188 748.0315 -129.3777
v  -225.0188 708.6615 -129.3777
v  -159.1123 748.0315 -149.6064
v  -159.1123 708.6615 -149.6064
v  -82.3627 748.0314 -162.3227
v  -82.3627 708.6614 -162.3227
v  -0.0001 748.0314 -166.6600
v  -0.0001 708.6614 -166.6600
v  82.3625 748.0314 -162.3227
v  82.3625 708.6614 -162.3227
v  159.1122 748.0315 -149.6064
v  159.1122 708.6615 -149.6064
v  225.0186 748.0315 -129.3777
v  225.0186 708.6615 -129.3777
v  275.5905 748.0315 -103.0151
v  275.5905 708.6615 -103.0151
v  275.5906 748.0315 103.0148
v  275.5906 708.6615 103.0149
v  225.0189 748.0315 129.3774
v  225.0189 708.6615 129.3775
v  159.1125 748.0315 149.6062
v  159.1125 708.6615 149.6062
v  82.3628 748.0316 162.3225
v  82.3628 708.6616 162.3225
v  -0.0000 629.9213 166.6598
v  -0.0000 669.2914 166.6598
v  -82.3626 669.2914 162.3225
v  -82.3626 629.9213 162.3225
v  -159.1123 669.2913 149.6062
v  -159.1123 629.9213 149.6062
v  -225.0188 669.2913 129.3774
v  -225.0188 629.9213 129.3774
v  -275.5906 669.2913 103.0149
v  -275.5906 629.9213 103.0149
v  -275.5906 669.2913 -103.0151
v  -275.5906 629.9213 -103.0151
v  -225.0188 669.2913 -129.3777
v  -225.0188 629.9213 -129.3777
v  -159.1123 669.2913 -149.6064
v  -159.1123 629.9213 -149.6064
v  -82.3627 669.2913 -162.3227
v  -82.3627 629.9212 -162.3227
v  -0.0001 669.2913 -166.6600
v  -0.0001 629.9212 -166.6600
v  82.3625 669.2913 -162.3227
v  82.3625 629.9212 -162.3227
v  159.1122 669.2913 -149.6064
v  159.1122 629.9213 -149.6064
v  225.0186 669.2913 -129.3777
v  225.0186 629.9213 -129.3777
v  275.5905 669.2913 -103.0151
v  275.5905 629.9213 -103.0151
v  275.5906 669.2913 103.0149
v  275.5906 629.9213 103.0149
v  225.0189 669.2913 129.3775
v  225.0189 629.9213 129.3775
v  159.1125 669.2913 149.6062
v  159.1125 629.9213 149.6062
v  82.3628 669.2914 162.3225
v  82.3628 629.9213 162.3225
v  -0.0000 551.1812 166.6598
v  -0.0000 590.5513 166.6598
v  -82.3626 590.5513 162.3225
v  -82.3626 551.1812 162.3225
v  -159.1123 590.5512 149.6062
v  -159.1123 551.1812 149.6062
v  -225.0188 590.5512 129.3774
v  -225.0188 551.1812 129.3775
v  -275.5906 590.5512 103.0149
v  -275.5906 551.1812 103.0149
v  -275.5906 590.5512 -103.0151
v  -275.5906 551.1812 -103.0151
v  -225.0188 590.5512 -129.3777
v  -225.0188 551.1812 -129.3777
v  -159.1123 590.5512 -149.6064
v  -159.1123 551.1812 -149.6064
v  -82.3627 590.5511 -162.3227
v  -82.3627 551.1811 -162.3227
v  -0.0001 590.5511 -166.6600
v  -0.0001 551.1811 -166.6600
v  82.3625 590.5511 -162.3227
v  82.3625 551.1811 -162.3227
v  159.1122 590.5512 -149.6064
v  159.1122 551.1812 -149.6064
v  225.0186 590.5512 -129.3777
v  225.0186 551.1812 -129.3777
v  275.5905 590.5512 -103.0151
v  275.5905 551.1812 -103.0151
v  275.5906 590.5512 103.0149
v  275.5906 551.1812 103.0149
v  225.0189 590.5512 129.3775
v  225.0189 551.1812 129.3775
v  159.1125 590.5512 149.6062
v  159.1125 551.1812 149.6062
v  82.3628 590.5513 162.3225
v  82.3628 551.1812 162.3225
v  -0.0000 472.4410 166.6598
v  -0.0000 511.8111 166.6598
v  -82.3626 511.8111 162.3225
v  -82.3626 472.4410 162.3225
v  -159.1123 511.8111 149.6062
v  -159.1123 472.4410 149.6062
v  -225.0188 511.8111 129.3774
v  -225.0188 472.4410 129.3775
v  -275.5906 511.8111 103.0149
v  -275.5906 472.4410 103.0149
v  -275.5906 511.8111 -103.0151
v  -275.5906 472.4409 -103.0151
v  -225.0188 511.8111 -129.3777
v  -225.0188 472.4409 -129.3777
v  -159.1123 511.8111 -149.6064
v  -159.1123 472.4409 -149.6064
v  -82.3627 511.8111 -162.3227
v  -82.3627 472.4409 -162.3227
v  -0.0001 511.8111 -166.6600
v  -0.0001 472.4409 -166.6600
v  82.3625 511.8111 -162.3227
v  82.3625 472.4409 -162.3227
v  159.1122 511.8111 -149.6064
v  159.1122 472.4409 -149.6064
v  225.0186 511.8111 -129.3777
v  225.0186 472.4409 -129.3777
v  275.5905 511.8111 -103.0151
v  275.5905 472.4409 -103.0151
v  275.5906 511.8111 103.0149
v  275.5906 472.4410 103.0149
v  225.0189 511.8111 129.3775
v  225.0189 472.4410 129.3775
v  159.1125 511.8111 149.6062
v  159.1125 472.4410 149.6062
v  82.3628 511.8111 162.3225
v  82.3628 472.4410 162.3225
v  -0.0000 393.7008 166.6598
v  -0.0000 433.0709 166.6598
v  -82.3626 433.0709 162.3225
v  -82.3626 393.7008 162.3225
v  -159.1123 433.0709 149.6062
v  -159.1123 393.7008 149.6062
v  -225.0188 433.0709 129.3775
v  -225.0188 393.7008 129.3775
v  -275.5906 433.0709 103.0149
v  -275.5906 393.7008 103.0149
v  -275.5906 433.0708 -103.0151
v  -275.5906 393.7008 -103.0151
v  -225.0188 433.0708 -129.3777
v  -225.0188 393.7008 -129.3776
v  -159.1123 433.0708 -149.6064
v  -159.1123 393.7008 -149.6064
v  -82.3627 433.0708 -162.3227
v  -82.3627 393.7008 -162.3227
v  -0.0001 433.0708 -166.6600
v  -0.0001 393.7008 -166.6600
v  82.3625 433.0708 -162.3227
v  82.3625 393.7008 -162.3227
v  159.1122 433.0708 -149.6064
v  159.1122 393.7008 -149.6064
v  225.0186 433.0708 -129.3777
v  225.0186 393.7008 -129.3776
v  275.5905 433.0708 -103.0151
v  275.5905 393.7008 -103.0150
v  275.5906 433.0709 103.0149
v  275.5906 393.7008 103.0149
v  225.0189 433.0709 129.3775
v  225.0189 393.7008 129.3775
v  159.1125 433.0709 149.6062
v  159.1125 393.7008 149.6062
v  82.3628 433.0709 162.3225
v  82.3628 393.7008 162.3225
v  -0.0000 314.9607 166.6599
v  -0.0000 354.3308 166.6598
v  -82.3626 354.3308 162.3225
v  -82.3626 314.9607 162.3226
v  -159.1123 354.3308 149.6062
v  -159.1123 314.9607 149.6062
v  -225.0188 354.3308 129.3775
v  -225.0188 314.9607 129.3775
v  -275.5906 354.3308 103.0149
v  -275.5906 314.9607 103.0149
v  -275.5906 354.3307 -103.0151
v  -275.5906 314.9606 -103.0151
v  -225.0188 354.3307 -129.3776
v  -225.0188 314.9606 -129.3776
v  -159.1123 354.3307 -149.6064
v  -159.1123 314.9606 -149.6064
v  -82.3627 354.3307 -162.3227
v  -82.3627 314.9606 -162.3227
v  -0.0001 354.3307 -166.6600
v  -0.0001 314.9606 -166.6599
v  82.3625 354.3307 -162.3227
v  82.3625 314.9606 -162.3226
v  159.1122 354.3307 -149.6064
v  159.1122 314.9606 -149.6064
v  225.0186 354.3307 -129.3776
v  225.0186 314.9606 -129.3776
v  275.5905 354.3307 -103.0150
v  275.5905 314.9606 -103.0150
v  275.5906 354.3308 103.0149
v  275.5906 314.9607 103.0149
v  225.0189 354.3308 129.3775
v  225.0189 314.9607 129.3775
v  159.1125 354.3308 149.6062
v  159.1125 314.9607 149.6062
v  82.3628 354.3308 162.3225
v  82.3628 314.9607 162.3226
v  -0.0000 236.2205 166.6599
v  -0.0000 275.5906 166.6599
v  -82.3626 275.5906 162.3226
v  -82.3626 236.2205 162.3226
v  -159.1123 275.5906 149.6062
v  -159.1123 236.2205 149.6062
v  -225.0188 275.5906 129.3775
v  -225.0188 236.2205 129.3775
v  -275.5906 275.5906 103.0149
v  -275.5906 236.2205 103.0149
v  -275.5906 275.5905 -103.0151
v  -275.5906 236.2205 -103.0150
v  -225.0188 275.5905 -129.3776
v  -225.0188 236.2204 -129.3776
v  -159.1123 275.5905 -149.6064
v  -159.1123 236.2204 -149.6063
v  -82.3627 275.5905 -162.3227
v  -82.3627 236.2204 -162.3226
v  -0.0001 275.5905 -166.6599
v  -0.0001 236.2204 -166.6599
v  82.3625 275.5905 -162.3226
v  82.3625 236.2204 -162.3226
v  159.1122 275.5905 -149.6064
v  159.1122 236.2204 -149.6063
v  225.0186 275.5905 -129.3776
v  225.0186 236.2204 -129.3776
v  275.5905 275.5905 -103.0150
v  275.5905 236.2205 -103.0150
v  275.5906 275.5906 103.0149
v  275.5906 236.2205 103.0149
v  225.0189 275.5906 129.3775
v  225.0189 236.2205 129.3775
v  159.1125 275.5906 149.6062
v  159.1125 236.2205 149.6062
v  82.3628 275.5906 162.3226
v  82.3628 236.2205 162.3226
v  -0.0000 157.4803 166.6599
v  -0.0000 196.8504 166.6599
v  -82.3626 196.8504 162.3226
v  -82.3626 157.4803 162.3226
v  -159.1123 196.8504 149.6062
v  -159.1123 157.4803 149.6062
v  -225.0188 196.8504 129.3775
v  -225.0188 157.4803 129.3775
v  -275.5906 196.8504 103.0149
v  -275.5906 157.4803 103.0149
v  -275.5906 196.8504 -103.0150
v  -275.5906 157.4803 -103.0150
v  -225.0188 196.8504 -129.3776
v  -225.0188 157.4803 -129.3776
v  -159.1123 196.8504 -149.6063
v  -159.1123 157.4803 -149.6063
v  -82.3627 196.8504 -162.3227
v  -82.3627 157.4803 -162.3226
v  -0.0001 196.8504 -166.6599
v  -0.0001 157.4803 -166.6599
v  82.3625 196.8504 -162.3226
v  82.3625 157.4803 -162.3226
v  159.1122 196.8504 -149.6063
v  159.1122 157.4803 -149.6063
v  225.0186 196.8504 -129.3776
v  225.0186 157.4803 -129.3776
v  275.5905 196.8504 -103.0150
v  275.5905 157.4803 -103.0150
v  275.5906 196.8504 103.0149
v  275.5906 157.4803 103.0149
v  225.0189 196.8504 129.3775
v  225.0189 157.4803 129.3775
v  159.1125 196.8504 149.6062
v  159.1125 157.4803 149.6063
v  82.3628 196.8504 162.3226
v  82.3628 157.4803 162.3226
v  -0.0000 1357.3043 114.8866
v  -0.0000 1411.5836 114.8866
v  -56.7765 1411.5836 111.8967
v  -56.7765 1357.3043 111.8967
v  -109.6839 1411.5836 103.1307
v  -109.6839 1357.3043 103.1307
v  -155.1164 1411.5836 89.1860
v  -155.1164 1357.3043 89.1860
v  -189.9780 1411.5836 71.0130
v  -189.9780 1357.3043 71.0130
v  -189.9780 1411.5836 -71.0135
v  -189.9780 1357.3043 -71.0135
v  -155.1164 1411.5836 -89.1865
v  -155.1164 1357.3043 -89.1865
v  -109.6839 1411.5836 -103.1311
v  -109.6839 1357.3043 -103.1311
v  -56.7766 1411.5836 -111.8971
v  -56.7766 1357.3043 -111.8971
v  -0.0001 1411.5836 -114.8870
v  -0.0001 1357.3043 -114.8870
v  56.7765 1411.5836 -111.8971
v  56.7765 1357.3043 -111.8971
v  109.6838 1411.5836 -103.1311
v  109.6838 1357.3043 -103.1311
v  155.1163 1411.5836 -89.1865
v  155.1163 1357.3043 -89.1865
v  189.9780 1411.5836 -71.0135
v  189.9780 1357.3043 -71.0134
v  189.9780 1411.5836 71.0130
v  189.9780 1357.3043 71.0130
v  155.1165 1411.5836 89.1860
v  155.1165 1357.3043 89.1860
v  109.6840 1411.5836 103.1307
v  109.6840 1357.3043 103.1307
v  56.7767 1411.5836 111.8966
v  56.7767 1357.3043 111.8966
v  -169.6054 1411.5836 59.5025
v  -169.6054 1411.5836 -59.5029
v  -169.6054 1401.9508 59.5025
v  -169.6054 1401.9508 -59.5029
v  -0.0001 1411.5836 -96.2650
v  50.6880 1411.5836 -93.7597
v  169.6055 1411.5836 59.5025
v  138.4824 1411.5836 74.7298
v  -97.9218 1411.5836 86.4142
v  -138.4823 1411.5836 74.7298
v  -97.9218 1411.5836 -86.4146
v  -50.6881 1411.5836 -93.7597
v  138.4822 1411.5836 -74.7303
v  169.6054 1411.5836 -59.5029
v  -0.0000 1411.5836 96.2645
v  -50.6880 1411.5836 93.7593
v  50.6882 1411.5836 93.7593
v  -138.4823 1411.5836 -74.7303
v  97.9217 1411.5836 -86.4146
v  97.9219 1411.5836 86.4142
v  -50.6880 1401.9508 93.7593
v  -0.0000 1401.9508 96.2645
v  50.6882 1401.9508 93.7593
v  97.9219 1401.9508 86.4142
v  138.4824 1401.9508 74.7298
v  169.6055 1401.9508 59.5025
v  169.6054 1401.9508 -59.5029
v  138.4822 1401.9508 -74.7303
v  97.9217 1401.9508 -86.4146
v  50.6880 1401.9508 -93.7597
v  -0.0001 1401.9508 -96.2650
v  -50.6881 1401.9508 -93.7597
v  -97.9218 1401.9508 -86.4146
v  -138.4823 1401.9508 -74.7303
v  -138.4823 1401.9508 74.7298
v  -97.9218 1401.9508 86.4142
v  -0.0000 1259.8427 166.6597
v  -0.0000 1377.9528 166.6597
v  -82.3626 1377.9528 162.3224
v  -82.3626 1259.8427 162.3224
v  -159.1123 1377.9528 149.6060
v  -159.1123 1259.8427 149.6061
v  -225.0188 1377.9528 129.3773
v  -225.0188 1259.8427 129.3773
v  -275.5906 1377.9528 103.0147
v  -275.5906 1259.8427 103.0148
v  -275.5906 1377.9528 -103.0152
v  -275.5906 1259.8427 -103.0152
v  -225.0188 1377.9528 -129.3778
v  -225.0188 1259.8427 -129.3778
v  -159.1123 1377.9528 -149.6065
v  -159.1123 1259.8427 -149.6065
v  -82.3627 1377.9528 -162.3228
v  -82.3627 1259.8427 -162.3228
v  -0.0001 1377.9528 -166.6601
v  -0.0001 1259.8427 -166.6601
v  82.3625 1377.9528 -162.3228
v  82.3625 1259.8427 -162.3228
v  159.1122 1377.9528 -149.6065
v  159.1122 1259.8427 -149.6065
v  225.0186 1377.9528 -129.3778
v  225.0186 1259.8427 -129.3778
v  275.5905 1377.9528 -103.0152
v  275.5905 1259.8427 -103.0152
v  275.5906 1377.9528 103.0147
v  275.5906 1259.8427 103.0148
v  225.0189 1377.9528 129.3773
v  225.0189 1259.8427 129.3774
v  159.1125 1377.9528 149.6061
v  159.1125 1259.8427 149.6061
v  82.3628 1377.9528 162.3224
v  82.3628 1259.8427 162.3224
v  -246.0373 1377.9528 86.3170
v  -246.0372 1377.9528 -86.3175
v  -246.0373 1358.2678 86.3170
v  -246.0372 1358.2678 -86.3175
v  -0.0001 1377.9528 -139.6462
v  73.5302 1377.9528 -136.0119
v  246.0373 1377.9528 86.3170
v  200.8887 1377.9528 108.4065
v  -142.0497 1377.9528 125.3563
v  -200.8886 1377.9528 108.4065
v  -142.0497 1377.9528 -125.3568
v  -73.5304 1377.9528 -136.0119
v  200.8885 1377.9528 -108.4070
v  246.0372 1377.9528 -86.3175
v  -0.0000 1377.9528 139.6458
v  -73.5303 1377.9528 136.0115
v  73.5305 1377.9528 136.0115
v  -200.8886 1377.9528 -108.4070
v  142.0496 1377.9528 -125.3568
v  142.0498 1377.9528 125.3564
v  -73.5303 1358.2678 136.0115
v  -0.0000 1358.2678 139.6458
v  73.5305 1358.2678 136.0115
v  142.0498 1358.2678 125.3564
v  200.8887 1358.2678 108.4065
v  246.0373 1358.2678 86.3170
v  246.0372 1358.2678 -86.3175
v  200.8885 1358.2678 -108.4070
v  142.0496 1358.2678 -125.3568
v  73.5302 1358.2678 -136.0119
v  -0.0001 1358.2678 -139.6462
v  -73.5304 1358.2678 -136.0119
v  -142.0497 1358.2678 -125.3568
v  -200.8886 1358.2678 -108.4070
v  -200.8886 1358.2678 108.4065
v  -142.0497 1358.2678 125.3563
v  -0.0000 0.0000 166.6599
v  -0.0000 118.1103 166.6599
v  -82.3626 118.1103 162.3226
v  -82.3626 0.0000 162.3226
v  -159.1123 118.1103 149.6062
v  -159.1123 0.0000 149.6063
v  -225.0188 118.1103 129.3775
v  -225.0188 0.0000 129.3775
v  -275.5906 118.1103 103.0149
v  -275.5906 0.0000 103.0150
v  -275.5906 118.1102 -103.0150
v  -275.5906 -0.0000 -103.0150
v  -225.0188 118.1102 -129.3776
v  -225.0188 -0.0000 -129.3776
v  -159.1123 118.1102 -149.6063
v  -159.1123 -0.0000 -149.6063
v  -82.3627 118.1102 -162.3226
v  -82.3627 -0.0000 -162.3226
v  -0.0001 118.1102 -166.6599
v  -0.0001 -0.0000 -166.6599
v  82.3625 118.1102 -162.3226
v  82.3625 -0.0000 -162.3226
v  159.1122 118.1102 -149.6063
v  159.1122 -0.0000 -149.6063
v  225.0186 118.1102 -129.3776
v  225.0186 -0.0000 -129.3776
v  275.5905 118.1102 -103.0150
v  275.5905 -0.0000 -103.0150
v  275.5906 118.1103 103.0149
v  275.5906 0.0000 103.0150
v  225.0189 118.1103 129.3775
v  225.0189 0.0000 129.3776
v  159.1125 118.1103 149.6063
v  159.1125 0.0000 149.6063
v  82.3628 118.1103 162.3226
v  82.3628 0.0000 162.3226
# 720 vertices

vn -0.0545 0.0000 0.9985
vn -0.1692 0.0000 0.9856
vn -0.3031 0.0000 0.9530
vn -0.4374 0.0000 0.8993
vn -1.0000 -0.0000 -0.0000
vn -0.4374 -0.0000 -0.8993
vn -0.3031 -0.0000 -0.9530
vn -0.1692 -0.0000 -0.9856
vn -0.0545 -0.0000 -0.9985
vn 0.0545 -0.0000 -0.9985
vn 0.1692 -0.0000 -0.9856
vn 0.3031 -0.0000 -0.9530
vn 0.4543 -0.0000 -0.8909
vn 1.0000 -0.0000 -0.0000
vn 0.4543 0.0000 0.8909
vn 0.3031 0.0000 0.9530
vn 0.1692 0.0000 0.9856
vn 0.0545 0.0000 0.9985
vn 0.0000 1.0000 -0.0000
vn 0.0000 -1.0000 0.0000
vn -0.0000 -1.0000 0.0000
vn -0.0526 0.0000 0.9986
vn -0.1635 0.0000 0.9866
vn -0.2934 0.0000 0.9560
vn -0.4623 0.0000 0.8867
vn -0.4623 -0.0000 -0.8867
vn -0.2934 -0.0000 -0.9560
vn -0.1635 -0.0000 -0.9866
vn -0.0526 -0.0000 -0.9986
vn 0.0526 -0.0000 -0.9986
vn 0.1635 -0.0000 -0.9866
vn 0.2934 -0.0000 -0.9560
vn 0.4623 -0.0000 -0.8867
vn 0.4623 0.0000 0.8867
vn 0.2934 0.0000 0.9560
vn 0.1635 0.0000 0.9866
vn 0.0526 0.0000 0.9986
vn -0.2934 -0.0000 0.9560
vn -0.4623 -0.0000 0.8867
vn -1.0000 0.0000 -0.0000
vn -0.4623 0.0000 -0.8867
vn -0.2934 0.0000 -0.9560
vn 0.2934 0.0000 -0.9560
vn 0.4623 0.0000 -0.8867
vn 0.4623 -0.0000 0.8867
vn 0.2934 -0.0000 0.9560
vn -0.0526 -0.0000 0.9986
vn -0.1635 -0.0000 0.9866
vn -0.1635 0.0000 -0.9866
vn -0.0526 0.0000 -0.9986
vn 0.0526 0.0000 -0.9986
vn 0.1635 0.0000 -0.9866
vn 0.1635 -0.0000 0.9866
vn 0.0526 -0.0000 0.9986
vn 1.0000 0.0000 -0.0000
vn -0.4395 0.0000 0.8983
vn 0.4395 0.0000 0.8983
vn -1.0000 0.0000 0.0000
vn 0.2768 0.0000 0.9609
vn -0.4395 -0.0000 -0.8983
vn 0.1537 0.0000 0.9881
vn 0.0494 -0.0000 -0.9988
vn -0.2768 -0.0000 -0.9609
vn 0.0494 0.0000 0.9988
vn 0.1537 -0.0000 -0.9881
vn -0.1537 -0.0000 -0.9881
vn -0.0494 0.0000 0.9988
vn 0.2768 -0.0000 -0.9609
vn -0.0494 -0.0000 -0.9988
vn -0.1537 0.0000 0.9881
vn 0.4395 -0.0000 -0.8983
vn -0.2768 0.0000 0.9609
vn 1.0000 0.0000 0.0000
vn 0.0000 1.0000 0.0000
vn -0.0000 1.0000 -0.0000
vn -0.0000 1.0000 0.0000
# 76 vertex normals

vt 0.2947 0.9207 0.0000
vt 0.3447 0.9207 0.0000
vt 0.3447 0.9707 0.0000
vt 0.2947 0.9707 0.0000
vt 0.3197 0.9707 0.0000
vt 0.3282 0.9692 0.0000
vt 0.3358 0.9648 0.0000
vt 0.3413 0.9582 0.0000
vt 0.3443 0.9500 0.0000
vt 0.3443 0.9413 0.0000
vt 0.3413 0.9332 0.0000
vt 0.3358 0.9265 0.0000
vt 0.3282 0.9222 0.0000
vt 0.3197 0.9207 0.0000
vt 0.3111 0.9222 0.0000
vt 0.3036 0.9265 0.0000
vt 0.2980 0.9332 0.0000
vt 0.2951 0.9413 0.0000
vt 0.2951 0.9500 0.0000
vt 0.2980 0.9582 0.0000
vt 0.3036 0.9648 0.0000
vt 0.3111 0.9692 0.0000
vt 0.2845 0.8288 0.0000
vt 0.3345 0.8288 0.0000
vt 0.3345 0.8788 0.0000
vt 0.2845 0.8788 0.0000
vt 0.3095 0.8788 0.0000
vt 0.3180 0.8773 0.0000
vt 0.3256 0.8730 0.0000
vt 0.3311 0.8663 0.0000
vt 0.3341 0.8581 0.0000
vt 0.3341 0.8495 0.0000
vt 0.3311 0.8413 0.0000
vt 0.3256 0.8347 0.0000
vt 0.3180 0.8303 0.0000
vt 0.3095 0.8288 0.0000
vt 0.3009 0.8303 0.0000
vt 0.2934 0.8347 0.0000
vt 0.2878 0.8413 0.0000
vt 0.2849 0.8495 0.0000
vt 0.2849 0.8581 0.0000
vt 0.2878 0.8663 0.0000
vt 0.2934 0.8730 0.0000
vt 0.3009 0.8773 0.0000
# 44 texture coords

g SPW_Urban_Bldg_06
usemtl SPW_Urban_Bldg_06
s off
f 1/1/1 2/2/1 3/3/1 4/4/1 
f 4/1/2 3/2/2 5/3/2 6/4/2 
f 6/1/3 5/2/3 7/3/3 8/4/3 
f 8/1/4 7/2/4 9/3/4 10/4/4 
f 10/1/5 9/2/5 11/3/5 12/4/5 
f 12/1/6 11/2/6 13/3/6 14/4/6 
f 14/1/7 13/2/7 15/3/7 16/4/7 
f 16/1/8 15/2/8 17/3/8 18/4/8 
f 18/1/9 17/2/9 19/3/9 20/4/9 
f 20/1/10 19/2/10 21/3/10 22/4/10 
f 22/1/11 21/2/11 23/3/11 24/4/11 
f 24/1/12 23/2/12 25/3/12 26/4/12 
f 26/1/13 25/2/13 27/3/13 28/4/13 
f 28/1/14 27/2/14 29/3/14 30/4/14 
f 30/1/15 29/2/15 31/3/15 32/4/15 
f 32/1/16 31/2/16 33/3/16 34/4/16 
f 34/1/17 33/2/17 35/3/17 36/4/17 
f 36/1/18 35/2/18 2/3/18 1/4/18 
f 3/5/19 2/6/19 35/7/19 33/8/19 
f 3/5/19 33/8/19 31/9/19 29/10/19 
f 3/5/19 29/10/19 27/11/19 25/12/19 
f 3/5/19 25/12/19 23/13/19 21/14/19 
f 3/5/19 21/14/19 19/15/19 17/16/19 
f 3/5/19 17/16/19 15/17/19 13/18/19 
f 3/5/19 13/18/19 11/19/19 9/20/19 
f 3/5/19 9/20/19 7/21/19 5/22/19 
f 1/5/20 4/6/20 6/7/20 8/8/20 
f 1/5/21 8/8/21 10/9/21 12/10/21 
f 1/5/20 12/10/20 14/11/20 16/12/20 
f 1/5/21 16/12/21 18/13/21 20/14/21 
f 1/5/20 20/14/20 22/15/20 24/16/20 
f 1/5/21 24/16/21 26/17/21 28/18/21 
f 1/5/20 28/18/20 30/19/20 32/20/20 
f 1/5/20 32/20/20 34/21/20 36/22/20 
f 37/23/22 38/24/22 39/25/22 40/26/22 
f 40/23/23 39/24/23 41/25/23 42/26/23 
f 42/23/24 41/24/24 43/25/24 44/26/24 
f 44/23/25 43/24/25 45/25/25 46/26/25 
f 46/23/5 45/24/5 47/25/5 48/26/5 
f 48/23/26 47/24/26 49/25/26 50/26/26 
f 50/23/27 49/24/27 51/25/27 52/26/27 
f 52/23/28 51/24/28 53/25/28 54/26/28 
f 54/23/29 53/24/29 55/25/29 56/26/29 
f 56/23/30 55/24/30 57/25/30 58/26/30 
f 58/23/31 57/24/31 59/25/31 60/26/31 
f 60/23/32 59/24/32 61/25/32 62/26/32 
f 62/23/33 61/24/33 63/25/33 64/26/33 
f 64/23/14 63/24/14 65/25/14 66/26/14 
f 66/23/34 65/24/34 67/25/34 68/26/34 
f 68/23/35 67/24/35 69/25/35 70/26/35 
f 70/23/36 69/24/36 71/25/36 72/26/36 
f 72/23/37 71/24/37 38/25/37 37/26/37 
f 39/27/19 38/28/19 71/29/19 69/30/19 
f 39/27/19 69/30/19 67/31/19 65/32/19 
f 39/27/19 65/32/19 63/33/19 61/34/19 
f 39/27/19 61/34/19 59/35/19 57/36/19 
f 39/27/19 57/36/19 55/37/19 53/38/19 
f 39/27/19 53/38/19 51/39/19 49/40/19 
f 39/27/19 49/40/19 47/41/19 45/42/19 
f 39/27/19 45/42/19 43/43/19 41/44/19 
f 37/27/20 40/28/20 42/29/20 44/30/20 
f 37/27/20 44/30/20 46/31/20 48/32/20 
f 37/27/20 48/32/20 50/33/20 52/34/20 
f 37/27/20 52/34/20 54/35/20 56/36/20 
f 37/27/20 56/36/20 58/37/20 60/38/20 
f 37/27/20 60/38/20 62/39/20 64/40/20 
f 37/27/20 64/40/20 66/41/20 68/42/20 
f 37/27/20 68/42/20 70/43/20 72/44/20 
f 73/23/22 74/24/22 75/25/22 76/26/22 
f 76/23/23 75/24/23 77/25/23 78/26/23 
f 78/23/24 77/24/24 79/25/24 80/26/24 
f 80/23/25 79/24/25 81/25/25 82/26/25 
f 82/23/5 81/24/5 83/25/5 84/26/5 
f 84/23/26 83/24/26 85/25/26 86/26/26 
f 86/23/27 85/24/27 87/25/27 88/26/27 
f 88/23/28 87/24/28 89/25/28 90/26/28 
f 90/23/29 89/24/29 91/25/29 92/26/29 
f 92/23/30 91/24/30 93/25/30 94/26/30 
f 94/23/31 93/24/31 95/25/31 96/26/31 
f 96/23/32 95/24/32 97/25/32 98/26/32 
f 98/23/33 97/24/33 99/25/33 100/26/33 
f 100/23/14 99/24/14 101/25/14 102/26/14 
f 102/23/34 101/24/34 103/25/34 104/26/34 
f 104/23/35 103/24/35 105/25/35 106/26/35 
f 106/23/36 105/24/36 107/25/36 108/26/36 
f 108/23/37 107/24/37 74/25/37 73/26/37 
f 75/27/19 74/28/19 107/29/19 105/30/19 
f 75/27/19 105/30/19 103/31/19 101/32/19 
f 75/27/19 101/32/19 99/33/19 97/34/19 
f 75/27/19 97/34/19 95/35/19 93/36/19 
f 75/27/19 93/36/19 91/37/19 89/38/19 
f 75/27/19 89/38/19 87/39/19 85/40/19 
f 75/27/19 85/40/19 83/41/19 81/42/19 
f 75/27/19 81/42/19 79/43/19 77/44/19 
f 73/27/20 76/28/20 78/29/20 80/30/20 
f 73/27/20 80/30/20 82/31/20 84/32/20 
f 73/27/20 84/32/20 86/33/20 88/34/20 
f 73/27/20 88/34/20 90/35/20 92/36/20 
f 73/27/20 92/36/20 94/37/20 96/38/20 
f 73/27/20 96/38/20 98/39/20 100/40/20 
f 73/27/20 100/40/20 102/41/20 104/42/20 
f 73/27/20 104/42/20 106/43/20 108/44/20 
f 109/23/22 110/24/22 111/25/22 112/26/22 
f 112/23/23 111/24/23 113/25/23 114/26/23 
f 114/23/24 113/24/24 115/25/24 116/26/24 
f 116/23/25 115/24/25 117/25/25 118/26/25 
f 118/23/5 117/24/5 119/25/5 120/26/5 
f 120/23/26 119/24/26 121/25/26 122/26/26 
f 122/23/27 121/24/27 123/25/27 124/26/27 
f 124/23/28 123/24/28 125/25/28 126/26/28 
f 126/23/29 125/24/29 127/25/29 128/26/29 
f 128/23/30 127/24/30 129/25/30 130/26/30 
f 130/23/31 129/24/31 131/25/31 132/26/31 
f 132/23/32 131/24/32 133/25/32 134/26/32 
f 134/23/33 133/24/33 135/25/33 136/26/33 
f 136/23/14 135/24/14 137/25/14 138/26/14 
f 138/23/34 137/24/34 139/25/34 140/26/34 
f 140/23/35 139/24/35 141/25/35 142/26/35 
f 142/23/36 141/24/36 143/25/36 144/26/36 
f 144/23/37 143/24/37 110/25/37 109/26/37 
f 111/27/19 110/28/19 143/29/19 141/30/19 
f 111/27/19 141/30/19 139/31/19 137/32/19 
f 111/27/19 137/32/19 135/33/19 133/34/19 
f 111/27/19 133/34/19 131/35/19 129/36/19 
f 111/27/19 129/36/19 127/37/19 125/38/19 
f 111/27/19 125/38/19 123/39/19 121/40/19 
f 111/27/19 121/40/19 119/41/19 117/42/19 
f 111/27/19 117/42/19 115/43/19 113/44/19 
f 109/27/20 112/28/20 114/29/20 116/30/20 
f 109/27/20 116/30/20 118/31/20 120/32/20 
f 109/27/20 120/32/20 122/33/20 124/34/20 
f 109/27/20 124/34/20 126/35/20 128/36/20 
f 109/27/20 128/36/20 130/37/20 132/38/20 
f 109/27/20 132/38/20 134/39/20 136/40/20 
f 109/27/20 136/40/20 138/41/20 140/42/20 
f 109/27/20 140/42/20 142/43/20 144/44/20 
f 145/23/22 146/24/22 147/25/22 148/26/22 
f 148/23/23 147/24/23 149/25/23 150/26/23 
f 150/23/38 149/24/38 151/25/38 152/26/38 
f 152/23/39 151/24/39 153/25/39 154/26/39 
f 154/23/40 153/24/40 155/25/40 156/26/40 
f 156/23/41 155/24/41 157/25/41 158/26/41 
f 158/23/42 157/24/42 159/25/42 160/26/42 
f 160/23/28 159/24/28 161/25/28 162/26/28 
f 162/23/29 161/24/29 163/25/29 164/26/29 
f 164/23/30 163/24/30 165/25/30 166/26/30 
f 166/23/31 165/24/31 167/25/31 168/26/31 
f 168/23/43 167/24/43 169/25/43 170/26/43 
f 170/23/44 169/24/44 171/25/44 172/26/44 
f 172/23/14 171/24/14 173/25/14 174/26/14 
f 174/23/45 173/24/45 175/25/45 176/26/45 
f 176/23/46 175/24/46 177/25/46 178/26/46 
f 178/23/36 177/24/36 179/25/36 180/26/36 
f 180/23/37 179/24/37 146/25/37 145/26/37 
f 147/27/19 146/28/19 179/29/19 177/30/19 
f 147/27/19 177/30/19 175/31/19 173/32/19 
f 147/27/19 173/32/19 171/33/19 169/34/19 
f 147/27/19 169/34/19 167/35/19 165/36/19 
f 147/27/19 165/36/19 163/37/19 161/38/19 
f 147/27/19 161/38/19 159/39/19 157/40/19 
f 147/27/19 157/40/19 155/41/19 153/42/19 
f 147/27/19 153/42/19 151/43/19 149/44/19 
f 145/27/20 148/28/20 150/29/20 152/30/20 
f 145/27/20 152/30/20 154/31/20 156/32/20 
f 145/27/20 156/32/20 158/33/20 160/34/20 
f 145/27/20 160/34/20 162/35/20 164/36/20 
f 145/27/20 164/36/20 166/37/20 168/38/20 
f 145/27/20 168/38/20 170/39/20 172/40/20 
f 145/27/20 172/40/20 174/41/20 176/42/20 
f 145/27/20 176/42/20 178/43/20 180/44/20 
f 181/23/22 182/24/22 183/25/22 184/26/22 
f 184/23/23 183/24/23 185/25/23 186/26/23 
f 186/23/24 185/24/24 187/25/24 188/26/24 
f 188/23/25 187/24/25 189/25/25 190/26/25 
f 190/23/5 189/24/5 191/25/5 192/26/5 
f 192/23/26 191/24/26 193/25/26 194/26/26 
f 194/23/27 193/24/27 195/25/27 196/26/27 
f 196/23/28 195/24/28 197/25/28 198/26/28 
f 198/23/29 197/24/29 199/25/29 200/26/29 
f 200/23/30 199/24/30 201/25/30 202/26/30 
f 202/23/31 201/24/31 203/25/31 204/26/31 
f 204/23/32 203/24/32 205/25/32 206/26/32 
f 206/23/33 205/24/33 207/25/33 208/26/33 
f 208/23/14 207/24/14 209/25/14 210/26/14 
f 210/23/34 209/24/34 211/25/34 212/26/34 
f 212/23/35 211/24/35 213/25/35 214/26/35 
f 214/23/36 213/24/36 215/25/36 216/26/36 
f 216/23/37 215/24/37 182/25/37 181/26/37 
f 183/27/19 182/28/19 215/29/19 213/30/19 
f 183/27/19 213/30/19 211/31/19 209/32/19 
f 183/27/19 209/32/19 207/33/19 205/34/19 
f 183/27/19 205/34/19 203/35/19 201/36/19 
f 183/27/19 201/36/19 199/37/19 197/38/19 
f 183/27/19 197/38/19 195/39/19 193/40/19 
f 183/27/19 193/40/19 191/41/19 189/42/19 
f 183/27/19 189/42/19 187/43/19 185/44/19 
f 181/27/20 184/28/20 186/29/20 188/30/20 
f 181/27/20 188/30/20 190/31/20 192/32/20 
f 181/27/20 192/32/20 194/33/20 196/34/20 
f 181/27/20 196/34/20 198/35/20 200/36/20 
f 181/27/20 200/36/20 202/37/20 204/38/20 
f 181/27/20 204/38/20 206/39/20 208/40/20 
f 181/27/20 208/40/20 210/41/20 212/42/20 
f 181/27/20 212/42/20 214/43/20 216/44/20 
f 217/23/22 218/24/22 219/25/22 220/26/22 
f 220/23/23 219/24/23 221/25/23 222/26/23 
f 222/23/24 221/24/24 223/25/24 224/26/24 
f 224/23/25 223/24/25 225/25/25 226/26/25 
f 226/23/5 225/24/5 227/25/5 228/26/5 
f 228/23/26 227/24/26 229/25/26 230/26/26 
f 230/23/27 229/24/27 231/25/27 232/26/27 
f 232/23/28 231/24/28 233/25/28 234/26/28 
f 234/23/29 233/24/29 235/25/29 236/26/29 
f 236/23/30 235/24/30 237/25/30 238/26/30 
f 238/23/31 237/24/31 239/25/31 240/26/31 
f 240/23/32 239/24/32 241/25/32 242/26/32 
f 242/23/33 241/24/33 243/25/33 244/26/33 
f 244/23/14 243/24/14 245/25/14 246/26/14 
f 246/23/34 245/24/34 247/25/34 248/26/34 
f 248/23/35 247/24/35 249/25/35 250/26/35 
f 250/23/36 249/24/36 251/25/36 252/26/36 
f 252/23/37 251/24/37 218/25/37 217/26/37 
f 219/27/19 218/28/19 251/29/19 249/30/19 
f 219/27/19 249/30/19 247/31/19 245/32/19 
f 219/27/19 245/32/19 243/33/19 241/34/19 
f 219/27/19 241/34/19 239/35/19 237/36/19 
f 219/27/19 237/36/19 235/37/19 233/38/19 
f 219/27/19 233/38/19 231/39/19 229/40/19 
f 219/27/19 229/40/19 227/41/19 225/42/19 
f 219/27/19 225/42/19 223/43/19 221/44/19 
f 217/27/20 220/28/20 222/29/20 224/30/20 
f 217/27/20 224/30/20 226/31/20 228/32/20 
f 217/27/20 228/32/20 230/33/20 232/34/20 
f 217/27/20 232/34/20 234/35/20 236/36/20 
f 217/27/20 236/36/20 238/37/20 240/38/20 
f 217/27/20 240/38/20 242/39/20 244/40/20 
f 217/27/20 244/40/20 246/41/20 248/42/20 
f 217/27/20 248/42/20 250/43/20 252/44/20 
f 253/23/22 254/24/22 255/25/22 256/26/22 
f 256/23/23 255/24/23 257/25/23 258/26/23 
f 258/23/24 257/24/24 259/25/24 260/26/24 
f 260/23/25 259/24/25 261/25/25 262/26/25 
f 262/23/5 261/24/5 263/25/5 264/26/5 
f 264/23/26 263/24/26 265/25/26 266/26/26 
f 266/23/27 265/24/27 267/25/27 268/26/27 
f 268/23/28 267/24/28 269/25/28 270/26/28 
f 270/23/29 269/24/29 271/25/29 272/26/29 
f 272/23/30 271/24/30 273/25/30 274/26/30 
f 274/23/31 273/24/31 275/25/31 276/26/31 
f 276/23/32 275/24/32 277/25/32 278/26/32 
f 278/23/33 277/24/33 279/25/33 280/26/33 
f 280/23/14 279/24/14 281/25/14 282/26/14 
f 282/23/34 281/24/34 283/25/34 284/26/34 
f 284/23/35 283/24/35 285/25/35 286/26/35 
f 286/23/36 285/24/36 287/25/36 288/26/36 
f 288/23/37 287/24/37 254/25/37 253/26/37 
f 255/27/19 254/28/19 287/29/19 285/30/19 
f 255/27/19 285/30/19 283/31/19 281/32/19 
f 255/27/19 281/32/19 279/33/19 277/34/19 
f 255/27/19 277/34/19 275/35/19 273/36/19 
f 255/27/19 273/36/19 271/37/19 269/38/19 
f 255/27/19 269/38/19 267/39/19 265/40/19 
f 255/27/19 265/40/19 263/41/19 261/42/19 
f 255/27/19 261/42/19 259/43/19 257/44/19 
f 253/27/20 256/28/20 258/29/20 260/30/20 
f 253/27/20 260/30/20 262/31/20 264/32/20 
f 253/27/20 264/32/20 266/33/20 268/34/20 
f 253/27/20 268/34/20 270/35/20 272/36/20 
f 253/27/20 272/36/20 274/37/20 276/38/20 
f 253/27/20 276/38/20 278/39/20 280/40/20 
f 253/27/20 280/40/20 282/41/20 284/42/20 
f 253/27/20 284/42/20 286/43/20 288/44/20 
f 289/23/47 290/24/47 291/25/47 292/26/47 
f 292/23/48 291/24/48 293/25/48 294/26/48 
f 294/23/24 293/24/24 295/25/24 296/26/24 
f 296/23/25 295/24/25 297/25/25 298/26/25 
f 298/23/5 297/24/5 299/25/5 300/26/5 
f 300/23/26 299/24/26 301/25/26 302/26/26 
f 302/23/27 301/24/27 303/25/27 304/26/27 
f 304/23/49 303/24/49 305/25/49 306/26/49 
f 306/23/50 305/24/50 307/25/50 308/26/50 
f 308/23/51 307/24/51 309/25/51 310/26/51 
f 310/23/52 309/24/52 311/25/52 312/26/52 
f 312/23/32 311/24/32 313/25/32 314/26/32 
f 314/23/33 313/24/33 315/25/33 316/26/33 
f 316/23/14 315/24/14 317/25/14 318/26/14 
f 318/23/34 317/24/34 319/25/34 320/26/34 
f 320/23/35 319/24/35 321/25/35 322/26/35 
f 322/23/53 321/24/53 323/25/53 324/26/53 
f 324/23/54 323/24/54 290/25/54 289/26/54 
f 291/27/19 290/28/19 323/29/19 321/30/19 
f 291/27/19 321/30/19 319/31/19 317/32/19 
f 291/27/19 317/32/19 315/33/19 313/34/19 
f 291/27/19 313/34/19 311/35/19 309/36/19 
f 291/27/19 309/36/19 307/37/19 305/38/19 
f 291/27/19 305/38/19 303/39/19 301/40/19 
f 291/27/19 301/40/19 299/41/19 297/42/19 
f 291/27/19 297/42/19 295/43/19 293/44/19 
f 289/27/20 292/28/20 294/29/20 296/30/20 
f 289/27/20 296/30/20 298/31/20 300/32/20 
f 289/27/20 300/32/20 302/33/20 304/34/20 
f 289/27/20 304/34/20 306/35/20 308/36/20 
f 289/27/20 308/36/20 310/37/20 312/38/20 
f 289/27/20 312/38/20 314/39/20 316/40/20 
f 289/27/20 316/40/20 318/41/20 320/42/20 
f 289/27/20 320/42/20 322/43/20 324/44/20 
f 325/23/22 326/24/22 327/25/22 328/26/22 
f 328/23/23 327/24/23 329/25/23 330/26/23 
f 330/23/24 329/24/24 331/25/24 332/26/24 
f 332/23/25 331/24/25 333/25/25 334/26/25 
f 334/23/5 333/24/5 335/25/5 336/26/5 
f 336/23/26 335/24/26 337/25/26 338/26/26 
f 338/23/27 337/24/27 339/25/27 340/26/27 
f 340/23/28 339/24/28 341/25/28 342/26/28 
f 342/23/29 341/24/29 343/25/29 344/26/29 
f 344/23/30 343/24/30 345/25/30 346/26/30 
f 346/23/31 345/24/31 347/25/31 348/26/31 
f 348/23/32 347/24/32 349/25/32 350/26/32 
f 350/23/33 349/24/33 351/25/33 352/26/33 
f 352/23/14 351/24/14 353/25/14 354/26/14 
f 354/23/34 353/24/34 355/25/34 356/26/34 
f 356/23/35 355/24/35 357/25/35 358/26/35 
f 358/23/36 357/24/36 359/25/36 360/26/36 
f 360/23/37 359/24/37 326/25/37 325/26/37 
f 327/27/19 326/28/19 359/29/19 357/30/19 
f 327/27/19 357/30/19 355/31/19 353/32/19 
f 327/27/19 353/32/19 351/33/19 349/34/19 
f 327/27/19 349/34/19 347/35/19 345/36/19 
f 327/27/19 345/36/19 343/37/19 341/38/19 
f 327/27/19 341/38/19 339/39/19 337/40/19 
f 327/27/19 337/40/19 335/41/19 333/42/19 
f 327/27/19 333/42/19 331/43/19 329/44/19 
f 325/27/20 328/28/20 330/29/20 332/30/20 
f 325/27/20 332/30/20 334/31/20 336/32/20 
f 325/27/20 336/32/20 338/33/20 340/34/20 
f 325/27/20 340/34/20 342/35/20 344/36/20 
f 325/27/20 344/36/20 346/37/20 348/38/20 
f 325/27/20 348/38/20 350/39/20 352/40/20 
f 325/27/20 352/40/20 354/41/20 356/42/20 
f 325/27/20 356/42/20 358/43/20 360/44/20 
f 361/23/22 362/24/22 363/25/22 364/26/22 
f 364/23/23 363/24/23 365/25/23 366/26/23 
f 366/23/24 365/24/24 367/25/24 368/26/24 
f 368/23/25 367/24/25 369/25/25 370/26/25 
f 370/23/5 369/24/5 371/25/5 372/26/5 
f 372/23/26 371/24/26 373/25/26 374/26/26 
f 374/23/27 373/24/27 375/25/27 376/26/27 
f 376/23/28 375/24/28 377/25/28 378/26/28 
f 378/23/29 377/24/29 379/25/29 380/26/29 
f 380/23/30 379/24/30 381/25/30 382/26/30 
f 382/23/31 381/24/31 383/25/31 384/26/31 
f 384/23/32 383/24/32 385/25/32 386/26/32 
f 386/23/33 385/24/33 387/25/33 388/26/33 
f 388/23/14 387/24/14 389/25/14 390/26/14 
f 390/23/34 389/24/34 391/25/34 392/26/34 
f 392/23/35 391/24/35 393/25/35 394/26/35 
f 394/23/36 393/24/36 395/25/36 396/26/36 
f 396/23/37 395/24/37 362/25/37 361/26/37 
f 363/27/19 362/28/19 395/29/19 393/30/19 
f 363/27/19 393/30/19 391/31/19 389/32/19 
f 363/27/19 389/32/19 387/33/19 385/34/19 
f 363/27/19 385/34/19 383/35/19 381/36/19 
f 363/27/19 381/36/19 379/37/19 377/38/19 
f 363/27/19 377/38/19 375/39/19 373/40/19 
f 363/27/19 373/40/19 371/41/19 369/42/19 
f 363/27/19 369/42/19 367/43/19 365/44/19 
f 361/27/20 364/28/20 366/29/20 368/30/20 
f 361/27/20 368/30/20 370/31/20 372/32/20 
f 361/27/20 372/32/20 374/33/20 376/34/20 
f 361/27/20 376/34/20 378/35/20 380/36/20 
f 361/27/20 380/36/20 382/37/20 384/38/20 
f 361/27/20 384/38/20 386/39/20 388/40/20 
f 361/27/20 388/40/20 390/41/20 392/42/20 
f 361/27/20 392/42/20 394/43/20 396/44/20 
f 397/23/22 398/24/22 399/25/22 400/26/22 
f 400/23/23 399/24/23 401/25/23 402/26/23 
f 402/23/24 401/24/24 403/25/24 404/26/24 
f 404/23/25 403/24/25 405/25/25 406/26/25 
f 406/23/5 405/24/5 407/25/5 408/26/5 
f 408/23/26 407/24/26 409/25/26 410/26/26 
f 410/23/27 409/24/27 411/25/27 412/26/27 
f 412/23/28 411/24/28 413/25/28 414/26/28 
f 414/23/29 413/24/29 415/25/29 416/26/29 
f 416/23/30 415/24/30 417/25/30 418/26/30 
f 418/23/31 417/24/31 419/25/31 420/26/31 
f 420/23/32 419/24/32 421/25/32 422/26/32 
f 422/23/33 421/24/33 423/25/33 424/26/33 
f 424/23/14 423/24/14 425/25/14 426/26/14 
f 426/23/34 425/24/34 427/25/34 428/26/34 
f 428/23/35 427/24/35 429/25/35 430/26/35 
f 430/23/36 429/24/36 431/25/36 432/26/36 
f 432/23/37 431/24/37 398/25/37 397/26/37 
f 399/27/19 398/28/19 431/29/19 429/30/19 
f 399/27/19 429/30/19 427/31/19 425/32/19 
f 399/27/19 425/32/19 423/33/19 421/34/19 
f 399/27/19 421/34/19 419/35/19 417/36/19 
f 399/27/19 417/36/19 415/37/19 413/38/19 
f 399/27/19 413/38/19 411/39/19 409/40/19 
f 399/27/19 409/40/19 407/41/19 405/42/19 
f 399/27/19 405/42/19 403/43/19 401/44/19 
f 397/27/20 400/28/20 402/29/20 404/30/20 
f 397/27/20 404/30/20 406/31/20 408/32/20 
f 397/27/20 408/32/20 410/33/20 412/34/20 
f 397/27/20 412/34/20 414/35/20 416/36/20 
f 397/27/20 416/36/20 418/37/20 420/38/20 
f 397/27/20 420/38/20 422/39/20 424/40/20 
f 397/27/20 424/40/20 426/41/20 428/42/20 
f 397/27/20 428/42/20 430/43/20 432/44/20 
f 433/23/22 434/24/22 435/25/22 436/26/22 
f 436/23/23 435/24/23 437/25/23 438/26/23 
f 438/23/38 437/24/38 439/25/38 440/26/38 
f 440/23/39 439/24/39 441/25/39 442/26/39 
f 442/23/40 441/24/40 443/25/40 444/26/40 
f 444/23/41 443/24/41 445/25/41 446/26/41 
f 446/23/42 445/24/42 447/25/42 448/26/42 
f 448/23/28 447/24/28 449/25/28 450/26/28 
f 450/23/29 449/24/29 451/25/29 452/26/29 
f 452/23/30 451/24/30 453/25/30 454/26/30 
f 454/23/31 453/24/31 455/25/31 456/26/31 
f 456/23/43 455/24/43 457/25/43 458/26/43 
f 458/23/44 457/24/44 459/25/44 460/26/44 
f 460/23/14 459/24/14 461/25/14 462/26/14 
f 462/23/45 461/24/45 463/25/45 464/26/45 
f 464/23/46 463/24/46 465/25/46 466/26/46 
f 466/23/36 465/24/36 467/25/36 468/26/36 
f 468/23/37 467/24/37 434/25/37 433/26/37 
f 435/27/19 434/28/19 467/29/19 465/30/19 
f 435/27/19 465/30/19 463/31/19 461/32/19 
f 435/27/19 461/32/19 459/33/19 457/34/19 
f 435/27/19 457/34/19 455/35/19 453/36/19 
f 435/27/19 453/36/19 451/37/19 449/38/19 
f 435/27/19 449/38/19 447/39/19 445/40/19 
f 435/27/19 445/40/19 443/41/19 441/42/19 
f 435/27/19 441/42/19 439/43/19 437/44/19 
f 433/27/20 436/28/20 438/29/20 440/30/20 
f 433/27/20 440/30/20 442/31/20 444/32/20 
f 433/27/20 444/32/20 446/33/20 448/34/20 
f 433/27/20 448/34/20 450/35/20 452/36/20 
f 433/27/20 452/36/20 454/37/20 456/38/20 
f 433/27/20 456/38/20 458/39/20 460/40/20 
f 433/27/20 460/40/20 462/41/20 464/42/20 
f 433/27/20 464/42/20 466/43/20 468/44/20 
f 469/23/22 470/24/22 471/25/22 472/26/22 
f 472/23/23 471/24/23 473/25/23 474/26/23 
f 474/23/24 473/24/24 475/25/24 476/26/24 
f 476/23/25 475/24/25 477/25/25 478/26/25 
f 478/23/5 477/24/5 479/25/5 480/26/5 
f 480/23/26 479/24/26 481/25/26 482/26/26 
f 482/23/27 481/24/27 483/25/27 484/26/27 
f 484/23/28 483/24/28 485/25/28 486/26/28 
f 486/23/29 485/24/29 487/25/29 488/26/29 
f 488/23/30 487/24/30 489/25/30 490/26/30 
f 490/23/31 489/24/31 491/25/31 492/26/31 
f 492/23/32 491/24/32 493/25/32 494/26/32 
f 494/23/33 493/24/33 495/25/33 496/26/33 
f 496/23/14 495/24/14 497/25/14 498/26/14 
f 498/23/34 497/24/34 499/25/34 500/26/34 
f 500/23/35 499/24/35 501/25/35 502/26/35 
f 502/23/36 501/24/36 503/25/36 504/26/36 
f 504/23/37 503/24/37 470/25/37 469/26/37 
f 471/27/19 470/28/19 503/29/19 501/30/19 
f 471/27/19 501/30/19 499/31/19 497/32/19 
f 471/27/19 497/32/19 495/33/19 493/34/19 
f 471/27/19 493/34/19 491/35/19 489/36/19 
f 471/27/19 489/36/19 487/37/19 485/38/19 
f 471/27/19 485/38/19 483/39/19 481/40/19 
f 471/27/19 481/40/19 479/41/19 477/42/19 
f 471/27/19 477/42/19 475/43/19 473/44/19 
f 469/27/20 472/28/20 474/29/20 476/30/20 
f 469/27/20 476/30/20 478/31/20 480/32/20 
f 469/27/20 480/32/20 482/33/20 484/34/20 
f 469/27/20 484/34/20 486/35/20 488/36/20 
f 469/27/20 488/36/20 490/37/20 492/38/20 
f 469/27/20 492/38/20 494/39/20 496/40/20 
f 469/27/20 496/40/20 498/41/20 500/42/20 
f 469/27/20 500/42/20 502/43/20 504/44/20 
f 505/23/22 506/24/22 507/25/22 508/26/22 
f 508/23/23 507/24/23 509/25/23 510/26/23 
f 510/23/24 509/24/24 511/25/24 512/26/24 
f 512/23/25 511/24/25 513/25/25 514/26/25 
f 514/23/5 513/24/5 515/25/5 516/26/5 
f 516/23/26 515/24/26 517/25/26 518/26/26 
f 518/23/27 517/24/27 519/25/27 520/26/27 
f 520/23/28 519/24/28 521/25/28 522/26/28 
f 522/23/29 521/24/29 523/25/29 524/26/29 
f 524/23/30 523/24/30 525/25/30 526/26/30 
f 526/23/31 525/24/31 527/25/31 528/26/31 
f 528/23/32 527/24/32 529/25/32 530/26/32 
f 530/23/33 529/24/33 531/25/33 532/26/33 
f 532/23/14 531/24/14 533/25/14 534/26/14 
f 534/23/34 533/24/34 535/25/34 536/26/34 
f 536/23/35 535/24/35 537/25/35 538/26/35 
f 538/23/36 537/24/36 539/25/36 540/26/36 
f 540/23/37 539/24/37 506/25/37 505/26/37 
f 507/27/19 506/28/19 539/29/19 537/30/19 
f 507/27/19 537/30/19 535/31/19 533/32/19 
f 507/27/19 533/32/19 531/33/19 529/34/19 
f 507/27/19 529/34/19 527/35/19 525/36/19 
f 507/27/19 525/36/19 523/37/19 521/38/19 
f 507/27/19 521/38/19 519/39/19 517/40/19 
f 507/27/19 517/40/19 515/41/19 513/42/19 
f 507/27/19 513/42/19 511/43/19 509/44/19 
f 505/27/20 508/28/20 510/29/20 512/30/20 
f 505/27/21 512/30/21 514/31/21 516/32/21 
f 505/27/20 516/32/20 518/33/20 520/34/20 
f 505/27/21 520/34/21 522/35/21 524/36/21 
f 505/27/20 524/36/20 526/37/20 528/38/20 
f 505/27/21 528/38/21 530/39/21 532/40/21 
f 505/27/20 532/40/20 534/41/20 536/42/20 
f 505/27/20 536/42/20 538/43/20 540/44/20 
f 541/23/22 542/24/22 543/25/22 544/26/22 
f 544/23/23 543/24/23 545/25/23 546/26/23 
f 546/23/24 545/24/24 547/25/24 548/26/24 
f 548/23/25 547/24/25 549/25/25 550/26/25 
f 550/23/5 549/24/5 551/25/5 552/26/5 
f 552/23/26 551/24/26 553/25/26 554/26/26 
f 554/23/27 553/24/27 555/25/27 556/26/27 
f 556/23/28 555/24/28 557/25/28 558/26/28 
f 558/23/29 557/24/29 559/25/29 560/26/29 
f 560/23/30 559/24/30 561/25/30 562/26/30 
f 562/23/31 561/24/31 563/25/31 564/26/31 
f 564/23/32 563/24/32 565/25/32 566/26/32 
f 566/23/33 565/24/33 567/25/33 568/26/33 
f 568/23/14 567/24/14 569/25/14 570/26/14 
f 570/23/34 569/24/34 571/25/34 572/26/34 
f 572/23/35 571/24/35 573/25/35 574/26/35 
f 574/23/36 573/24/36 575/25/36 576/26/36 
f 576/23/37 575/24/37 542/25/37 541/26/37 
s 1
f 551/23/19 549/24/19 577/25/19 578/26/19 
s off
f 541/27/20 544/28/20 546/29/20 548/30/20 
f 541/27/20 548/30/20 550/31/20 552/32/20 
f 541/27/20 552/32/20 554/33/20 556/34/20 
f 541/27/20 556/34/20 558/35/20 560/36/20 
f 541/27/20 560/36/20 562/37/20 564/38/20 
f 541/27/20 564/38/20 566/39/20 568/40/20 
f 541/27/20 568/40/20 570/41/20 572/42/20 
f 541/27/20 572/42/20 574/43/20 576/44/20 
f 578/23/55 577/24/55 579/25/55 580/26/55 
s 1
f 561/23/19 559/24/19 581/25/19 582/26/19 
s off
f 571/23/19 569/24/19 583/25/19 584/26/19 
s 2
f 547/23/19 545/24/19 585/25/19 586/26/19 
s 1
f 557/23/19 555/24/19 587/25/19 588/26/19 
s off
f 567/23/19 565/24/19 589/25/19 590/26/19 
s 1
f 543/23/19 542/24/19 591/25/19 592/26/19 
f 542/23/19 575/24/19 593/25/19 591/26/19 
s off
f 553/23/19 551/24/19 578/25/19 594/26/19 
s 1
f 563/23/19 561/24/19 582/25/19 595/26/19 
f 573/23/19 571/24/19 584/25/19 596/26/19 
f 549/23/19 547/24/19 586/25/19 577/26/19 
f 559/23/19 557/24/19 588/25/19 581/26/19 
s off
f 569/23/19 567/24/19 590/25/19 583/26/19 
s 2
f 545/23/19 543/24/19 592/25/19 585/26/19 
s off
f 555/23/19 553/24/19 594/25/19 587/26/19 
s 1
f 565/23/19 563/24/19 595/25/19 589/26/19 
f 575/23/19 573/24/19 596/25/19 593/26/19 
s off
f 597/27/19 598/28/19 599/29/19 600/30/19 
f 597/27/19 600/30/19 601/31/19 602/32/19 
f 597/27/19 602/32/19 603/33/19 604/34/19 
f 597/27/19 604/34/19 605/35/19 606/36/19 
f 597/27/19 606/36/19 607/37/19 608/38/19 
f 597/27/19 608/38/19 609/39/19 610/40/19 
f 597/27/19 610/40/19 580/41/19 579/42/19 
f 597/27/19 579/42/19 611/43/19 612/44/19 
f 590/23/56 589/24/56 604/25/56 603/26/56 
f 594/23/57 578/24/57 580/25/57 610/26/57 
f 583/23/58 590/24/58 603/25/58 602/26/58 
f 587/23/59 594/24/59 610/25/59 609/26/59 
f 584/23/60 583/24/60 602/25/60 601/26/60 
f 588/23/61 587/24/61 609/25/61 608/26/61 
f 592/23/62 591/24/62 598/25/62 597/26/62 
f 596/23/63 584/24/63 601/25/63 600/26/63 
f 581/23/64 588/24/64 608/25/64 607/26/64 
f 585/23/65 592/24/65 597/25/65 612/26/65 
f 593/23/66 596/24/66 600/25/66 599/26/66 
f 582/23/67 581/24/67 607/25/67 606/26/67 
f 586/23/68 585/24/68 612/25/68 611/26/68 
f 591/23/69 593/24/69 599/25/69 598/26/69 
f 595/23/70 582/24/70 606/25/70 605/26/70 
f 577/23/71 586/24/71 611/25/71 579/26/71 
f 589/23/72 595/24/72 605/25/72 604/26/72 
f 613/23/22 614/24/22 615/25/22 616/26/22 
f 616/23/23 615/24/23 617/25/23 618/26/23 
f 618/23/24 617/24/24 619/25/24 620/26/24 
f 620/23/25 619/24/25 621/25/25 622/26/25 
f 622/23/5 621/24/5 623/25/5 624/26/5 
f 624/23/26 623/24/26 625/25/26 626/26/26 
f 626/23/27 625/24/27 627/25/27 628/26/27 
f 628/23/28 627/24/28 629/25/28 630/26/28 
f 630/23/29 629/24/29 631/25/29 632/26/29 
f 632/23/30 631/24/30 633/25/30 634/26/30 
f 634/23/31 633/24/31 635/25/31 636/26/31 
f 636/23/32 635/24/32 637/25/32 638/26/32 
f 638/23/33 637/24/33 639/25/33 640/26/33 
f 640/23/14 639/24/14 641/25/14 642/26/14 
f 642/23/34 641/24/34 643/25/34 644/26/34 
f 644/23/35 643/24/35 645/25/35 646/26/35 
f 646/23/36 645/24/36 647/25/36 648/26/36 
f 648/23/37 647/24/37 614/25/37 613/26/37 
f 623/23/19 621/24/19 649/25/19 650/26/19 
f 613/27/20 616/28/20 618/29/20 620/30/20 
f 613/27/20 620/30/20 622/31/20 624/32/20 
f 613/27/20 624/32/20 626/33/20 628/34/20 
f 613/27/20 628/34/20 630/35/20 632/36/20 
f 613/27/20 632/36/20 634/37/20 636/38/20 
f 613/27/20 636/38/20 638/39/20 640/40/20 
f 613/27/20 640/40/20 642/41/20 644/42/20 
f 613/27/20 644/42/20 646/43/20 648/44/20 
f 650/23/73 649/24/73 651/25/73 652/26/73 
f 633/23/19 631/24/19 653/25/19 654/26/19 
f 643/23/19 641/24/19 655/25/19 656/26/19 
s 1
f 619/23/19 617/24/19 657/25/19 658/26/19 
f 629/23/19 627/24/19 659/25/19 660/26/19 
f 639/23/19 637/24/19 661/25/19 662/26/19 
f 615/23/19 614/24/19 663/25/19 664/26/19 
s off
f 614/23/19 647/24/19 665/25/19 663/26/19 
f 625/23/19 623/24/19 650/25/19 666/26/19 
f 635/23/19 633/24/19 654/25/19 667/26/19 
s 1
f 645/23/19 643/24/19 656/25/19 668/26/19 
s off
f 621/23/19 619/24/19 658/25/19 649/26/19 
f 631/23/19 629/24/19 660/25/19 653/26/19 
s 1
f 641/23/19 639/24/19 662/25/19 655/26/19 
f 617/23/19 615/24/19 664/25/19 657/26/19 
f 627/23/19 625/24/19 666/25/19 659/26/19 
f 637/23/19 635/24/19 667/25/19 661/26/19 
f 647/23/19 645/24/19 668/25/19 665/26/19 
s off
f 669/27/19 670/28/19 671/29/19 672/30/19 
f 669/27/19 672/30/19 673/31/19 674/32/19 
f 669/27/19 674/32/19 675/33/19 676/34/19 
f 669/27/19 676/34/19 677/35/19 678/36/19 
f 669/27/19 678/36/19 679/37/19 680/38/19 
f 669/27/19 680/38/19 681/39/19 682/40/19 
f 669/27/19 682/40/19 652/41/19 651/42/19 
f 669/27/19 651/42/19 683/43/19 684/44/19 
f 662/23/56 661/24/56 676/25/56 675/26/56 
f 666/23/57 650/24/57 652/25/57 682/26/57 
f 655/23/58 662/24/58 675/25/58 674/26/58 
f 659/23/59 666/24/59 682/25/59 681/26/59 
f 656/23/60 655/24/60 674/25/60 673/26/60 
f 660/23/61 659/24/61 681/25/61 680/26/61 
f 664/23/62 663/24/62 670/25/62 669/26/62 
f 668/23/63 656/24/63 673/25/63 672/26/63 
f 653/23/64 660/24/64 680/25/64 679/26/64 
f 657/23/65 664/24/65 669/25/65 684/26/65 
f 665/23/66 668/24/66 672/25/66 671/26/66 
f 654/23/67 653/24/67 679/25/67 678/26/67 
f 658/23/68 657/24/68 684/25/68 683/26/68 
f 663/23/69 665/24/69 671/25/69 670/26/69 
f 667/23/70 654/24/70 678/25/70 677/26/70 
f 649/23/71 658/24/71 683/25/71 651/26/71 
f 661/23/72 667/24/72 677/25/72 676/26/72 
f 685/23/22 686/24/22 687/25/22 688/26/22 
f 688/23/23 687/24/23 689/25/23 690/26/23 
f 690/23/24 689/24/24 691/25/24 692/26/24 
f 692/23/25 691/24/25 693/25/25 694/26/25 
f 694/23/5 693/24/5 695/25/5 696/26/5 
f 696/23/26 695/24/26 697/25/26 698/26/26 
f 698/23/27 697/24/27 699/25/27 700/26/27 
f 700/23/28 699/24/28 701/25/28 702/26/28 
f 702/23/29 701/24/29 703/25/29 704/26/29 
f 704/23/30 703/24/30 705/25/30 706/26/30 
f 706/23/31 705/24/31 707/25/31 708/26/31 
f 708/23/32 707/24/32 709/25/32 710/26/32 
f 710/23/33 709/24/33 711/25/33 712/26/33 
f 712/23/14 711/24/14 713/25/14 714/26/14 
f 714/23/34 713/24/34 715/25/34 716/26/34 
f 716/23/35 715/24/35 717/25/35 718/26/35 
f 718/23/36 717/24/36 719/25/36 720/26/36 
f 720/23/37 719/24/37 686/25/37 685/26/37 
f 687/27/19 686/28/19 719/29/19 717/30/19 
f 687/27/74 717/30/74 715/31/74 713/32/74 
f 687/27/19 713/32/19 711/33/19 709/34/19 
f 687/27/75 709/34/75 707/35/75 705/36/75 
f 687/27/75 705/36/75 703/37/75 701/38/75 
f 687/27/19 701/38/19 699/39/19 697/40/19 
f 687/27/75 697/40/75 695/41/75 693/42/75 
f 687/27/76 693/42/76 691/43/76 689/44/76 
f 685/27/20 688/28/20 690/29/20 692/30/20 
f 685/27/20 692/30/20 694/31/20 696/32/20 
f 685/27/20 696/32/20 698/33/20 700/34/20 
f 685/27/20 700/34/20 702/35/20 704/36/20 
f 685/27/20 704/36/20 706/37/20 708/38/20 
f 685/27/20 708/38/20 710/39/20 712/40/20 
f 685/27/20 712/40/20 714/41/20 716/42/20 
f 685/27/20 716/42/20 718/43/20 720/44/20 
# 684 polygons

