# 3ds Max Wavefront OBJ Exporter v0.97b - (c)2007 guruware
# File Created: 15.03.2017 10:44:26

mtllib SPW_Urban_Bldg_Gas Station Prop Big.mtl

#
# object SPW_Urban_Bldg_Gas_Station_Prop_Big
#

v  39.3701 275.5906 11.8110
v  -39.3701 275.5906 11.8110
v  -39.3701 200.7874 11.8110
v  39.3701 200.7874 11.8110
v  -39.3701 275.5906 -11.8111
v  -39.3701 200.7874 -11.8111
v  39.3701 275.5906 -11.8111
v  39.3701 200.7874 -11.8111
v  37.4016 200.7874 9.8526
v  37.4016 200.7874 -9.8527
v  -37.4016 200.7874 9.8526
v  -37.4016 200.7874 -9.8527
v  -37.4016 196.8504 -9.8527
v  -37.4016 196.8504 9.8526
v  37.4016 196.8504 9.8526
v  37.4016 196.8504 -9.8527
v  2.4840 208.1714 -13.6599
v  0.3225 208.2205 -13.6599
v  -1.2676 208.4757 -13.6599
v  9.1653 209.4978 -13.6599
v  -4.2152 209.5401 -13.6599
v  -6.7125 212.0783 -13.6599
v  -7.8178 213.8387 -13.6599
v  -8.5547 208.9670 -13.6599
v  -17.1928 208.9670 -13.6599
v  -17.1928 239.6692 -13.6599
v  -0.0804 239.6692 -13.6599
v  -0.1213 231.8499 -13.6599
v  -5.0340 231.8089 -13.6599
v  -4.9521 222.1883 -13.6599
v  -3.8058 219.0360 -13.6599
v  -4.1972 255.6596 -13.6599
v  -4.3740 247.8779 -13.6599
v  -16.9898 247.9369 -13.6599
v  -3.1360 258.3714 -13.6599
v  -17.0487 252.4172 -13.6599
v  -16.2824 258.4304 -13.6599
v  -8.7954 267.2142 -13.6599
v  -13.4527 263.8539 -13.6599
v  -1.1317 259.3736 -13.6599
v  0.5779 259.4326 -13.6599
v  2.4644 258.9020 -13.6599
v  -1.3675 268.9239 -13.6599
v  5.5889 268.2754 -13.6599
v  14.7264 262.4391 -13.6599
v  11.3072 266.0941 -13.6599
v  3.9971 257.0155 -13.6599
v  4.3509 255.0701 -13.6599
v  4.5867 252.4762 -13.6599
v  4.5867 224.6037 -13.6599
v  4.1363 221.0829 -13.6599
v  17.1435 256.6618 -13.6599
v  17.9098 250.9434 -13.6599
v  17.7133 223.4498 -13.6599
v  17.9098 228.3624 -13.6599
v  16.5343 218.0458 -13.6599
v  14.3727 213.5262 -13.6599
v  11.9655 211.1190 -13.6599
v  3.0310 218.7903 -13.6599
v  0.6565 217.4803 -13.6599
v  -1.8407 217.6441 -13.6599
v  5.0878 208.3188 -13.6599
v  2.4840 208.1714 2.0757
v  5.0878 208.3188 2.0757
v  9.1653 209.4978 2.0757
v  14.3727 213.5262 2.0757
v  11.9655 211.1190 2.0757
v  16.5343 218.0458 2.0757
v  17.7133 223.4498 2.0757
v  17.9098 250.9434 2.0757
v  17.9098 228.3624 2.0757
v  4.1363 221.0829 2.0757
v  17.1435 256.6618 2.0757
v  14.7264 262.4391 2.0757
v  5.5889 268.2754 2.0757
v  11.3072 266.0941 2.0757
v  -1.3675 268.9239 2.0757
v  -8.7954 267.2142 2.0757
v  -16.2824 258.4304 2.0757
v  -13.4527 263.8539 2.0757
v  -17.0487 252.4172 2.0757
v  -16.9898 247.9369 2.0757
v  -4.1972 255.6596 2.0757
v  -4.3740 247.8779 2.0757
v  -3.1361 258.3714 2.0757
v  -1.1317 259.3736 2.0757
v  0.5779 259.4326 2.0757
v  2.4644 258.9020 2.0757
v  3.9971 257.0155 2.0757
v  4.3509 255.0701 2.0757
v  4.5867 252.4762 2.0757
v  4.5867 224.6037 2.0757
v  3.0310 218.7903 2.0757
v  0.6565 217.4803 2.0757
v  -1.8407 217.6441 2.0757
v  -3.8058 219.0360 2.0757
v  -5.0340 231.8089 2.0757
v  -0.1213 231.8499 2.0757
v  -0.0804 239.6692 2.0757
v  -17.1928 239.6692 2.0757
v  -4.9521 222.1883 2.0757
v  -7.8178 213.8387 2.0757
v  -17.1928 208.9670 2.0757
v  -8.5547 208.9670 2.0757
v  -6.7125 212.0783 2.0757
v  -4.2152 209.5401 2.0757
v  -1.2676 208.4757 2.0757
v  0.3225 208.2205 2.0757
v  -2.4841 208.1714 13.6601
v  -0.3225 208.2205 13.6601
v  1.2676 208.4757 13.6601
v  -9.1653 209.4978 13.6601
v  4.2152 209.5401 13.6601
v  6.7125 212.0783 13.6601
v  7.8178 213.8387 13.6601
v  8.5547 208.9670 13.6601
v  17.1928 208.9670 13.6601
v  17.1928 239.6692 13.6601
v  0.0804 239.6692 13.6601
v  0.1213 231.8499 13.6601
v  5.0340 231.8089 13.6601
v  4.9521 222.1883 13.6601
v  3.8058 219.0360 13.6601
v  4.1972 255.6596 13.6601
v  4.3740 247.8779 13.6601
v  16.9898 247.9369 13.6601
v  3.1360 258.3714 13.6601
v  17.0487 252.4172 13.6601
v  16.2824 258.4304 13.6601
v  8.7954 267.2142 13.6601
v  13.4527 263.8539 13.6601
v  1.1317 259.3736 13.6601
v  -0.5779 259.4325 13.6601
v  -2.4644 258.9020 13.6601
v  1.3675 268.9238 13.6601
v  -5.5889 268.2754 13.6601
v  -14.7264 262.4391 13.6601
v  -11.3072 266.0941 13.6601
v  -3.9971 257.0155 13.6601
v  -4.3509 255.0701 13.6601
v  -4.5867 252.4762 13.6601
v  -4.5867 224.6037 13.6601
v  -4.1363 221.0829 13.6601
v  -17.1435 256.6618 13.6601
v  -17.9098 250.9434 13.6601
v  -17.7133 223.4498 13.6601
v  -17.9098 228.3624 13.6601
v  -16.5343 218.0458 13.6601
v  -14.3727 213.5262 13.6601
v  -11.9655 211.1190 13.6601
v  -3.0310 218.7903 13.6601
v  -0.6565 217.4803 13.6601
v  1.8407 217.6441 13.6601
v  -5.0878 208.3187 13.6601
v  -2.4840 208.1714 -2.0755
v  -5.0878 208.3188 -2.0755
v  -9.1653 209.4978 -2.0755
v  -14.3727 213.5262 -2.0755
v  -11.9655 211.1190 -2.0755
v  -16.5343 218.0458 -2.0755
v  -17.7133 223.4498 -2.0755
v  -17.9098 250.9434 -2.0755
v  -17.9098 228.3624 -2.0755
v  -4.1363 221.0829 -2.0755
v  -17.1435 256.6618 -2.0755
v  -14.7264 262.4391 -2.0755
v  -5.5889 268.2754 -2.0755
v  -11.3072 266.0941 -2.0755
v  1.3675 268.9239 -2.0755
v  8.7954 267.2142 -2.0755
v  16.2824 258.4304 -2.0755
v  13.4527 263.8539 -2.0755
v  17.0487 252.4172 -2.0755
v  16.9898 247.9369 -2.0755
v  4.1972 255.6596 -2.0755
v  4.3740 247.8779 -2.0755
v  3.1361 258.3714 -2.0755
v  1.1317 259.3736 -2.0755
v  -0.5779 259.4326 -2.0755
v  -2.4644 258.9020 -2.0755
v  -3.9971 257.0155 -2.0755
v  -4.3509 255.0701 -2.0755
v  -4.5867 252.4762 -2.0755
v  -4.5867 224.6037 -2.0755
v  -3.0310 218.7903 -2.0755
v  -0.6565 217.4803 -2.0755
v  1.8407 217.6441 -2.0755
v  3.8058 219.0360 -2.0755
v  5.0340 231.8089 -2.0755
v  0.1213 231.8499 -2.0755
v  0.0804 239.6692 -2.0755
v  17.1928 239.6692 -2.0755
v  4.9521 222.1883 -2.0755
v  7.8178 213.8387 -2.0755
v  17.1928 208.9670 -2.0755
v  8.5547 208.9670 -2.0755
v  6.7125 212.0783 -2.0755
v  4.2152 209.5401 -2.0755
v  1.2676 208.4757 -2.0755
v  -0.3225 208.2205 -2.0755
v  39.3701 38.3858 11.8110
v  -39.3701 38.3858 11.8110
v  -39.3701 0.0000 11.8110
v  39.3701 0.0000 11.8110
v  -39.3701 38.3858 -11.8111
v  -39.3701 -0.0000 -11.8111
v  39.3701 38.3858 -11.8111
v  39.3701 -0.0000 -11.8111
v  39.3701 196.8504 -11.8111
v  -39.3701 196.8504 -11.8111
v  -39.3701 196.8504 11.8110
v  39.3701 196.8504 11.8110
v  39.3701 159.4488 11.8110
v  39.3701 159.4488 -11.8111
v  -39.3701 155.5118 -11.8111
v  -39.3701 155.5118 11.8110
v  -37.4016 155.5118 9.8556
v  -37.4016 155.5118 -9.8557
v  -39.3701 159.4488 -11.8111
v  39.3701 155.5118 11.8110
v  37.4016 155.5118 9.8556
v  -39.3701 159.4488 11.8110
v  37.4016 159.4488 9.8556
v  37.4016 159.4488 -9.8557
v  -37.4016 159.4488 -9.8557
v  37.4016 155.5118 -9.8557
v  -37.4016 159.4488 9.8556
v  39.3701 155.5118 -11.8111
# 228 vertices

vn -0.0000 -0.0000 1.0000
vn -1.0000 0.0000 -0.0000
vn 0.0000 0.0000 -1.0000
vn 1.0000 -0.0000 0.0000
vn 0.0000 -1.0000 0.0000
vn 0.0000 1.0000 -0.0000
vn -1.0000 -0.0000 -0.0000
vn 0.0000 -1.0000 -0.0000
vn 0.0000 -0.0000 -1.0000
vn -0.0000 -0.0000 -1.0000
vn -0.0000 0.0000 -1.0000
vn -0.0000 0.0000 1.0000
vn -0.9919 0.1269 -0.0000
vn -0.9008 0.4343 -0.0000
vn -0.4831 0.8756 -0.0000
vn 0.0654 0.9979 -0.0000
vn 0.5780 0.8160 -0.0000
vn 0.9398 0.3417 0.0000
vn 1.0000 0.0085 0.0000
vn 0.0083 -1.0000 0.0000
vn 1.0000 -0.0052 0.0000
vn 0.9888 -0.1496 0.0000
vn -0.8469 -0.5318 -0.0000
vn -0.7128 -0.7013 0.0000
vn -0.3396 -0.9406 0.0000
vn -0.1585 -0.9874 0.0000
vn 0.0565 -0.9984 0.0000
vn 0.5010 -0.8654 0.0000
vn 0.2778 -0.9606 0.0000
vn -0.0227 -0.9997 0.0000
vn 0.7071 -0.7071 0.0000
vn 0.9021 -0.4315 0.0000
vn 0.9770 -0.2132 0.0000
vn 0.9992 -0.0400 0.0000
vn 1.0000 0.0000 0.0000
vn 0.9911 0.1328 0.0000
vn 0.9225 0.3860 0.0000
vn 0.7303 0.6832 -0.0000
vn 0.3564 0.9343 -0.0000
vn 0.0928 0.9957 -0.0000
vn -0.2243 0.9745 -0.0000
vn -0.5851 0.8109 -0.0000
vn -0.8866 0.4626 -0.0000
vn -0.9920 0.1264 -0.0000
vn -0.9999 -0.0132 -0.0000
vn -0.0047 -1.0000 0.0000
vn 0.9997 -0.0227 0.0000
vn 0.9312 -0.3644 0.0000
vn 0.4472 -0.8944 0.0000
vn 0.0345 -0.9994 0.0000
vn -0.2708 -0.9626 0.0000
vn -0.7761 -0.6306 0.0000
vn -0.9839 -0.1789 -0.0000
vn -0.9959 -0.0905 -0.0000
vn 0.0000 -0.0000 1.0000
vn 0.9919 0.1269 0.0000
vn 0.9008 0.4343 0.0000
vn 0.4831 0.8756 -0.0000
vn -0.0654 0.9979 -0.0000
vn -0.5780 0.8160 -0.0000
vn -0.9398 0.3417 -0.0000
vn -1.0000 0.0085 -0.0000
vn -0.0083 -1.0000 0.0000
vn -1.0000 -0.0052 -0.0000
vn -0.9888 -0.1496 -0.0000
vn 0.8469 -0.5318 -0.0000
vn 0.7128 -0.7013 -0.0000
vn 0.3396 -0.9406 -0.0000
vn 0.1585 -0.9874 -0.0000
vn -0.0565 -0.9984 -0.0000
vn -0.5010 -0.8654 -0.0000
vn -0.2778 -0.9606 -0.0000
vn 0.0227 -0.9997 -0.0000
vn -0.7071 -0.7071 -0.0000
vn -0.9021 -0.4315 -0.0000
vn -0.9770 -0.2132 -0.0000
vn -0.9992 -0.0400 -0.0000
vn -0.9911 0.1328 -0.0000
vn -0.9225 0.3860 0.0000
vn -0.7303 0.6832 -0.0000
vn -0.3564 0.9343 -0.0000
vn -0.0928 0.9957 0.0000
vn 0.2243 0.9745 0.0000
vn 0.5851 0.8110 0.0000
vn 0.8866 0.4626 0.0000
vn 0.9920 0.1264 0.0000
vn 0.9999 -0.0132 0.0000
vn 0.0047 -1.0000 -0.0000
vn -0.9997 -0.0227 -0.0000
vn -0.9312 -0.3644 -0.0000
vn -0.4472 -0.8944 0.0000
vn -0.0345 -0.9994 -0.0000
vn 0.2707 -0.9627 -0.0000
vn 0.7761 -0.6306 -0.0000
vn 0.9839 -0.1789 0.0000
vn 0.9959 -0.0905 0.0000
# 96 vertex normals

vt 0.2797 0.0130 0.0000
vt 0.3297 0.0130 0.0000
vt 0.3297 0.0630 0.0000
vt 0.2797 0.0630 0.0000
vt 0.3105 0.8794 0.0000
vt 0.3139 0.8791 0.0000
vt 0.3173 0.8784 0.0000
vt 0.3038 0.8784 0.0000
vt 0.3205 0.8773 0.0000
vt 0.3235 0.8757 0.0000
vt 0.3263 0.8737 0.0000
vt 0.3288 0.8714 0.0000
vt 0.3309 0.8688 0.0000
vt 0.3327 0.8659 0.0000
vt 0.3341 0.8627 0.0000
vt 0.3350 0.8594 0.0000
vt 0.3355 0.8561 0.0000
vt 0.3355 0.8526 0.0000
vt 0.3350 0.8493 0.0000
vt 0.3006 0.8314 0.0000
vt 0.2975 0.8330 0.0000
vt 0.2947 0.8350 0.0000
vt 0.3038 0.8303 0.0000
vt 0.2922 0.8373 0.0000
vt 0.2901 0.8399 0.0000
vt 0.2870 0.8460 0.0000
vt 0.2883 0.8429 0.0000
vt 0.3071 0.8296 0.0000
vt 0.3105 0.8294 0.0000
vt 0.3139 0.8296 0.0000
vt 0.2860 0.8493 0.0000
vt 0.2856 0.8526 0.0000
vt 0.2860 0.8594 0.0000
vt 0.2856 0.8561 0.0000
vt 0.3173 0.8303 0.0000
vt 0.3205 0.8314 0.0000
vt 0.3235 0.8330 0.0000
vt 0.3263 0.8350 0.0000
vt 0.3288 0.8373 0.0000
vt 0.2870 0.8627 0.0000
vt 0.2883 0.8659 0.0000
vt 0.2922 0.8714 0.0000
vt 0.2901 0.8688 0.0000
vt 0.2947 0.8737 0.0000
vt 0.2975 0.8757 0.0000
vt 0.3006 0.8773 0.0000
vt 0.3309 0.8399 0.0000
vt 0.3327 0.8429 0.0000
vt 0.3341 0.8460 0.0000
vt 0.3071 0.8791 0.0000
vt 0.2855 0.8294 0.0000
vt 0.3355 0.8294 0.0000
vt 0.3355 0.8794 0.0000
vt 0.2855 0.8794 0.0000
vt 0.2781 0.0349 0.0000
vt 0.3281 0.0349 0.0000
vt 0.3281 0.0599 0.0000
vt 0.2781 0.0599 0.0000
vt 0.2781 0.0099 0.0000
vt 0.3281 0.0099 0.0000
vt 0.4750 0.4750 0.0000
vt 0.5250 0.4750 0.0000
vt 0.5250 0.5250 0.0000
vt 0.4750 0.5250 0.0000
vt 0.2797 0.0192 0.0000
vt 0.3297 0.0192 0.0000
vt 0.3297 0.0692 0.0000
vt 0.2797 0.0692 0.0000
vt 0.5250 0.5000 0.0000
vt 0.4750 0.5000 0.0000
# 70 texture coords

g SPW_Urban_Bldg_Gas_Station_Prop_Big
usemtl SPW_Urban_Bldg_Gas_Station_
s off
f 1/1/1 2/2/1 3/3/1 4/4/1 
f 2/1/2 5/2/2 6/3/2 3/4/2 
f 5/1/3 7/2/3 8/3/3 6/4/3 
f 7/1/4 1/2/4 4/3/4 8/4/4 
s 1
f 8/1/5 4/2/5 9/3/5 10/4/5 
s off
f 7/1/6 5/2/6 2/3/6 1/4/6 
f 11/1/7 12/2/7 13/3/7 14/4/7 
s 1
f 6/1/5 8/2/5 10/3/5 12/4/5 
f 4/1/5 3/2/5 11/3/5 9/4/5 
f 3/1/5 6/2/5 12/3/5 11/4/5 
s off
f 15/1/8 14/2/8 13/3/8 16/4/8 
f 12/1/3 10/2/3 16/3/3 13/4/3 
f 9/1/1 11/2/1 14/3/1 15/4/1 
f 10/1/4 9/2/4 15/3/4 16/4/4 
f 17/5/3 18/6/3 19/7/3 20/8/3 
f 19/7/3 21/9/3 22/10/3 23/11/3 
f 23/11/9 24/12/9 25/13/9 26/14/9 
f 26/14/9 27/15/9 28/16/9 29/17/9 
f 23/11/9 26/14/9 29/17/9 30/18/9 
f 23/11/9 30/18/9 31/19/9 20/8/9 
f 32/20/3 33/21/3 34/22/3 35/23/3 
f 34/22/9 36/24/9 37/25/9 38/26/9 
f 37/25/9 39/27/9 38/26/9 
f 35/23/9 34/22/9 38/26/9 40/28/9 
f 41/29/10 40/28/10 38/26/10 42/30/10 
f 38/26/9 43/31/9 44/32/9 45/33/9 
f 44/32/10 46/34/10 45/33/10 
f 42/30/9 38/26/9 45/33/9 47/35/9 
f 48/36/11 47/35/11 45/33/11 49/37/11 
f 50/38/9 49/37/9 45/33/9 51/39/9 
f 45/33/9 52/40/9 53/41/9 54/42/9 
f 53/41/9 55/43/9 54/42/9 
f 54/42/9 56/44/9 57/45/9 20/8/9 
f 57/45/9 58/46/9 20/8/9 
f 45/33/9 54/42/9 20/8/9 51/39/9 
f 59/47/9 51/39/9 20/8/9 60/48/9 
f 61/49/10 60/48/10 20/8/10 31/19/10 
f 19/7/9 23/11/9 20/8/9 
f 17/5/9 20/8/9 62/50/9 
f 63/5/12 64/6/12 65/7/12 66/10/12 
f 65/7/12 67/9/12 66/10/12 
f 66/10/12 68/11/12 69/12/12 70/14/12 
f 69/12/12 71/13/12 70/14/12 
f 63/5/12 66/10/12 70/14/12 72/24/12 
f 70/14/12 73/15/12 74/16/12 75/18/12 
f 74/16/12 76/17/12 75/18/12 
f 75/18/12 77/19/12 78/49/12 79/47/12 
f 78/49/12 80/48/12 79/47/12 
f 79/47/12 81/39/12 82/38/12 83/36/12 
f 82/38/12 84/37/12 83/36/12 
f 79/47/12 83/36/12 85/35/12 75/18/12 
f 75/18/12 85/35/12 86/30/12 87/29/12 
f 75/18/12 87/29/12 88/28/12 70/14/12 
f 70/14/12 88/28/12 89/23/12 90/20/12 
f 70/14/12 90/20/12 91/21/12 92/22/12 
f 70/14/12 92/22/12 72/24/12 
f 63/5/12 72/24/12 93/25/12 94/27/12 
f 63/5/12 94/27/12 95/26/12 96/31/12 
f 97/34/12 98/33/12 99/40/12 100/41/12 
f 101/32/12 97/34/12 100/41/12 96/31/12 
f 63/5/12 96/31/12 100/41/12 102/44/12 
f 100/41/12 103/43/12 104/42/12 102/44/12 
f 102/44/12 105/45/12 106/46/12 63/5/12 
f 63/5/12 106/46/12 107/8/12 108/50/12 
f 49/51/7 50/52/7 92/53/7 91/54/7 
f 50/51/13 51/52/13 72/53/13 92/54/13 
f 51/51/14 59/52/14 93/53/14 72/54/14 
f 59/51/15 60/52/15 94/53/15 93/54/15 
f 60/51/16 61/52/16 95/53/16 94/54/16 
f 61/51/17 31/52/17 96/53/17 95/54/17 
f 31/51/18 30/52/18 101/53/18 96/54/18 
f 30/51/19 29/52/19 97/53/19 101/54/19 
f 29/51/20 28/52/20 98/53/20 97/54/20 
f 28/51/21 27/52/21 99/53/21 98/54/21 
f 27/51/6 26/52/6 100/53/6 99/54/6 
f 26/51/7 25/52/7 103/53/7 100/54/7 
f 25/51/5 24/52/5 104/53/5 103/54/5 
f 24/51/22 23/52/22 102/53/22 104/54/22 
f 23/51/23 22/52/23 105/53/23 102/54/23 
f 22/51/24 21/52/24 106/53/24 105/54/24 
f 21/51/25 19/52/25 107/53/25 106/54/25 
f 19/51/26 18/52/26 108/53/26 107/54/26 
f 17/51/27 62/52/27 64/53/27 63/54/27 
f 20/51/28 58/52/28 67/53/28 65/54/28 
f 62/51/29 20/52/29 65/53/29 64/54/29 
f 18/51/30 17/52/30 63/53/30 108/54/30 
f 58/51/31 57/52/31 66/53/31 67/54/31 
f 57/51/32 56/52/32 68/53/32 66/54/32 
f 56/51/33 54/52/33 69/53/33 68/54/33 
f 54/51/34 55/52/34 71/53/34 69/54/34 
f 55/51/35 53/52/35 70/53/35 71/54/35 
f 53/51/36 52/52/36 73/53/36 70/54/36 
f 52/51/37 45/52/37 74/53/37 73/54/37 
f 45/51/38 46/52/38 76/53/38 74/54/38 
f 46/51/39 44/52/39 75/53/39 76/54/39 
f 44/51/40 43/52/40 77/53/40 75/54/40 
f 43/51/41 38/52/41 78/53/41 77/54/41 
f 38/51/42 39/52/42 80/53/42 78/54/42 
f 39/51/43 37/52/43 79/53/43 80/54/43 
f 37/51/44 36/52/44 81/53/44 79/54/44 
f 36/51/45 34/52/45 82/53/45 81/54/45 
f 34/51/46 33/52/46 84/53/46 82/54/46 
f 33/51/47 32/52/47 83/53/47 84/54/47 
f 32/51/48 35/52/48 85/53/48 83/54/48 
f 35/51/49 40/52/49 86/53/49 85/54/49 
f 40/51/50 41/52/50 87/53/50 86/54/50 
f 41/51/51 42/52/51 88/53/51 87/54/51 
f 42/51/52 47/52/52 89/53/52 88/54/52 
f 47/51/53 48/52/53 90/53/53 89/54/53 
f 48/51/54 49/52/54 91/53/54 90/54/54 
f 109/5/12 110/6/12 111/7/12 112/8/12 
f 111/7/12 113/9/12 114/10/12 115/11/12 
f 115/11/1 116/12/1 117/13/1 118/14/1 
f 118/14/1 119/15/1 120/16/1 121/17/1 
f 115/11/1 118/14/1 121/17/1 122/18/1 
f 115/11/12 122/18/12 123/19/12 112/8/12 
f 124/20/1 125/21/1 126/22/1 127/23/1 
f 126/22/1 128/24/1 129/25/1 130/26/1 
f 129/25/1 131/27/1 130/26/1 
f 127/23/1 126/22/1 130/26/1 132/28/1 
f 133/29/55 132/28/55 130/26/55 134/30/55 
f 130/26/1 135/31/1 136/32/1 137/33/1 
f 136/32/1 138/34/1 137/33/1 
f 134/30/12 130/26/12 137/33/12 139/35/12 
f 140/36/1 139/35/1 137/33/1 141/37/1 
f 142/38/1 141/37/1 137/33/1 143/39/1 
f 137/33/55 144/40/55 145/41/55 146/42/55 
f 145/41/1 147/43/1 146/42/1 
f 146/42/1 148/44/1 149/45/1 112/8/1 
f 149/45/1 150/46/1 112/8/1 
f 137/33/1 146/42/1 112/8/1 143/39/1 
f 151/47/1 143/39/1 112/8/1 152/48/1 
f 153/49/55 152/48/55 112/8/55 123/19/55 
f 111/7/1 115/11/1 112/8/1 
f 109/5/1 112/8/1 154/50/1 
f 155/5/9 156/6/9 157/7/9 158/10/9 
f 157/7/3 159/9/3 158/10/3 
f 158/10/3 160/11/3 161/12/3 162/14/3 
f 161/12/11 163/13/11 162/14/11 
f 155/5/3 158/10/3 162/14/3 164/24/3 
f 162/14/3 165/15/3 166/16/3 167/18/3 
f 166/16/3 168/17/3 167/18/3 
f 167/18/3 169/19/3 170/49/3 171/47/3 
f 170/49/3 172/48/3 171/47/3 
f 171/47/3 173/39/3 174/38/3 175/36/3 
f 174/38/3 176/37/3 175/36/3 
f 171/47/3 175/36/3 177/35/3 167/18/3 
f 167/18/3 177/35/3 178/30/3 179/29/3 
f 167/18/3 179/29/3 180/28/3 162/14/3 
f 162/14/3 180/28/3 181/23/3 182/20/3 
f 162/14/3 182/20/3 183/21/3 184/22/3 
f 162/14/10 184/22/10 164/24/10 
f 155/5/3 164/24/3 185/25/3 186/27/3 
f 155/5/3 186/27/3 187/26/3 188/31/3 
f 189/34/3 190/33/3 191/40/3 192/41/3 
f 193/32/3 189/34/3 192/41/3 188/31/3 
f 155/5/3 188/31/3 192/41/3 194/44/3 
f 192/41/3 195/43/3 196/42/3 194/44/3 
f 194/44/3 197/45/3 198/46/3 155/5/3 
f 155/5/3 198/46/3 199/8/3 200/50/3 
f 141/51/4 142/52/4 184/53/4 183/54/4 
f 142/51/56 143/52/56 164/53/56 184/54/56 
f 143/51/57 151/52/57 185/53/57 164/54/57 
f 151/51/58 152/52/58 186/53/58 185/54/58 
f 152/51/59 153/52/59 187/53/59 186/54/59 
f 153/51/60 123/52/60 188/53/60 187/54/60 
f 123/51/61 122/52/61 193/53/61 188/54/61 
f 122/51/62 121/52/62 189/53/62 193/54/62 
f 121/51/63 120/52/63 190/53/63 189/54/63 
f 120/51/64 119/52/64 191/53/64 190/54/64 
f 119/51/6 118/52/6 192/53/6 191/54/6 
f 118/51/4 117/52/4 195/53/4 192/54/4 
f 117/51/8 116/52/8 196/53/8 195/54/8 
f 116/51/65 115/52/65 194/53/65 196/54/65 
f 115/51/66 114/52/66 197/53/66 194/54/66 
f 114/51/67 113/52/67 198/53/67 197/54/67 
f 113/51/68 111/52/68 199/53/68 198/54/68 
f 111/51/69 110/52/69 200/53/69 199/54/69 
f 109/51/70 154/52/70 156/53/70 155/54/70 
f 112/51/71 150/52/71 159/53/71 157/54/71 
f 154/51/72 112/52/72 157/53/72 156/54/72 
f 110/51/73 109/52/73 155/53/73 200/54/73 
f 150/51/74 149/52/74 158/53/74 159/54/74 
f 149/51/75 148/52/75 160/53/75 158/54/75 
f 148/51/76 146/52/76 161/53/76 160/54/76 
f 146/51/77 147/52/77 163/53/77 161/54/77 
f 147/51/2 145/52/2 162/53/2 163/54/2 
f 145/51/78 144/52/78 165/53/78 162/54/78 
f 144/51/79 137/52/79 166/53/79 165/54/79 
f 137/51/80 138/52/80 168/53/80 166/54/80 
f 138/51/81 136/52/81 167/53/81 168/54/81 
f 136/51/82 135/52/82 169/53/82 167/54/82 
f 135/51/83 130/52/83 170/53/83 169/54/83 
f 130/51/84 131/52/84 172/53/84 170/54/84 
f 131/51/85 129/52/85 171/53/85 172/54/85 
f 129/51/86 128/52/86 173/53/86 171/54/86 
f 128/51/87 126/52/87 174/53/87 173/54/87 
f 126/51/88 125/52/88 176/53/88 174/54/88 
f 125/51/89 124/52/89 175/53/89 176/54/89 
f 124/51/90 127/52/90 177/53/90 175/54/90 
f 127/51/91 132/52/91 178/53/91 177/54/91 
f 132/51/92 133/52/92 179/53/92 178/54/92 
f 133/51/93 134/52/93 180/53/93 179/54/93 
f 134/51/94 139/52/94 181/53/94 180/54/94 
f 139/51/95 140/52/95 182/53/95 181/54/95 
f 140/51/96 141/52/96 183/53/96 182/54/96 
s 1
f 201/55/1 202/56/1 203/57/12 204/58/12 
s 2
f 202/55/2 205/56/2 206/57/7 203/58/7 
s 1
f 205/55/3 207/56/3 208/57/9 206/58/9 
s 2
f 207/55/4 201/56/4 204/57/35 208/58/35 
s off
f 204/59/5 203/60/5 206/57/5 208/58/5 
f 209/61/6 210/62/6 211/63/6 212/64/6 
f 209/61/35 212/62/35 213/63/35 214/64/35 
f 215/65/6 216/66/6 217/67/6 218/68/6 
f 210/61/9 209/62/9 214/63/9 219/64/9 
f 216/65/6 220/66/6 221/67/6 217/68/6 
f 211/61/7 210/62/7 219/63/7 222/64/7 
f 214/65/5 213/66/5 223/67/5 224/68/5 
f 212/61/1 211/62/1 222/63/1 213/64/1 
f 219/65/5 214/66/5 224/67/5 225/68/5 
f 224/65/35 223/66/35 221/67/35 226/68/35 
f 225/65/3 224/66/3 226/67/3 218/68/3 
f 227/65/2 225/66/2 218/67/2 217/68/2 
f 223/65/12 227/66/12 217/67/12 221/68/12 
f 228/65/6 215/66/6 218/67/6 226/68/6 
f 220/65/6 228/66/6 226/67/6 221/68/6 
f 213/65/5 222/66/5 227/67/5 223/68/5 
f 222/65/5 219/66/5 225/67/5 227/68/5 
s 2
f 228/61/4 220/62/4 201/69/4 207/70/4 
s 1
f 215/61/3 228/62/3 207/69/3 205/70/3 
s 2
f 216/61/2 215/62/2 205/69/2 202/70/2 
s 1
f 220/61/1 216/62/1 202/69/1 201/70/1 
# 208 polygons - 24 triangles

