# 3ds Max Wavefront OBJ Exporter v0.97b - (c)2007 guruware
# File Created: 15.03.2017 10:16:40

mtllib SPW_Natures_Mount_05.mtl

#
# object SPW_Natures_Mount_05
#

v  -2615.3899 -0.0114 420.3502
v  -2361.0977 156.8566 457.3293
v  -2434.0183 -0.0114 326.7269
v  -2449.5537 -0.0115 726.7369
v  -2159.9868 47.3428 325.4887
v  -2258.4614 -0.0114 298.4006
v  -2377.3105 -0.0115 779.0710
v  -2068.3943 225.7477 522.9136
v  -2229.4592 297.5182 78.5553
v  -2416.2874 -0.0113 194.0138
v  -2415.0544 -0.0115 868.7846
v  -2232.5762 192.4661 842.6762
v  -1864.8241 185.0493 405.3891
v  -1823.9148 591.7427 201.7418
v  -2366.0696 -0.0112 -117.1801
v  -2292.8179 -0.0116 1100.1409
v  -1772.2997 630.4178 598.9707
v  -2104.2729 288.1438 -297.4908
v  -2336.6311 -0.0112 -201.2682
v  -2265.6038 -0.0116 1138.9633
v  -1847.3850 326.9956 1152.1470
v  -1854.3047 464.4125 786.4750
v  -1438.3365 430.5643 516.5125
v  -1900.3358 329.8985 -108.3291
v  -2257.2749 -0.0111 -506.8193
v  -2259.0593 -0.0116 1161.9983
v  -2050.6902 137.8704 1280.2893
v  -1343.8824 781.2919 767.2423
v  -1315.0336 1055.0669 375.1244
v  -1725.4016 532.1035 67.4773
v  -2044.8440 407.1804 -545.3898
v  -2257.7668 -0.0111 -550.3632
v  -2115.9558 -0.0116 1388.1395
v  -1655.4930 287.2192 1381.7308
v  -1705.6091 569.7134 931.8442
v  -1108.4979 531.4272 645.1896
v  -1450.5703 549.2489 243.9308
v  -1765.7905 703.9174 -361.1442
v  -2165.2478 -0.0109 -1034.0302
v  -1909.9106 -0.0116 1469.5439
v  -1669.3280 -0.0117 1604.1525
v  -1477.8467 583.3807 1232.0052
v  -1091.4740 1061.5061 873.3442
v  -834.8452 1402.4321 522.8052
v  -1228.4791 951.7830 180.9898
v  -1443.9919 1034.3527 -39.9234
v  -1850.3081 510.4098 -849.7585
v  -1972.8599 274.6524 -1095.2548
v  -2162.8535 -0.0109 -1042.4469
v  -1358.3419 -0.0117 1716.4229
v  -1203.3151 478.2037 1381.2153
v  -1229.7086 732.8911 1067.5292
v  -761.8497 651.5694 763.6768
v  -1040.0901 1328.1719 254.8070
v  -1545.5988 921.8050 -305.8276
v  -1567.7864 632.7434 -1066.5730
v  -2054.6589 -0.0109 -1398.2028
v  -1192.5358 -0.0117 1798.1167
v  -1255.0581 248.9821 1604.0927
v  -746.4525 1077.5593 980.3304
v  -622.0806 1243.8192 566.3103
v  -805.6265 1526.2025 275.4810
v  -1176.7456 1255.6333 -106.4124
v  -1277.9178 1061.5315 -630.2408
v  -1611.1858 276.5656 -1333.7842
v  -1452.3810 779.3952 -790.8436
v  -1713.0437 43.8530 -1892.7391
v  -1815.9834 -0.0107 -1792.6036
v  -1120.5002 -0.0118 1843.4868
v  -1068.9053 577.9577 1517.0167
v  -889.2953 931.3785 1146.0706
v  -441.9501 726.1620 852.5610
v  -366.6779 1547.0044 584.5869
v  -521.1753 1671.3896 423.8228
v  -977.6116 1058.3489 138.9603
v  -1240.1444 1127.8898 -410.0629
v  -1212.5236 622.0720 -1228.1881
v  -1081.1506 1028.1145 -1078.5403
v  -1738.9659 309.4146 -1463.2380
v  -1755.7527 -0.0107 -1912.9449
v  -793.3594 -0.0118 1883.1510
v  -613.4911 587.9518 1451.4160
v  -659.6150 971.4833 1304.3298
v  -559.3695 1270.6224 1022.5154
v  -632.2858 1416.0160 171.0897
v  -1058.6823 1154.4589 -357.4233
v  -1019.8343 1161.7689 -871.4686
v  -1164.5408 690.7838 -1457.2495
v  -1415.2991 496.9991 -1473.9128
v  -1515.9844 195.7131 -1748.8944
v  -1736.4546 -0.0106 -1965.4496
v  -731.7435 -0.0118 1908.4512
v  -797.5761 719.6601 1566.4017
v  -265.3507 -0.0115 858.0992
v  -262.4121 -0.0115 892.2335
v  -219.4785 -0.0115 814.4266
v  -343.6180 1548.2061 339.7073
v  -847.4660 1372.1621 -38.3055
v  -821.1854 722.4403 -1117.7552
v  -1121.0106 344.6501 -1793.9395
v  -1408.0051 45.9956 -2160.3057
v  -1479.6407 -0.0106 -2194.5647
v  -694.9552 -0.0118 1870.4772
v  -328.6621 -0.0116 1140.1365
v  -74.6761 -0.0114 395.1878
v  -70.2456 -0.0114 348.5690
v  -343.6180 1583.1666 339.7073
v  -632.2858 1450.9766 171.0896
v  -847.4660 1407.1226 -38.3055
v  -1058.6823 1189.4193 -357.4233
v  -940.4839 1028.8799 -699.0172
v  -848.5493 907.6712 -1336.8131
v  -990.3475 306.5183 -1953.5924
v  -1324.5566 -0.0106 -2253.8840
v  -524.7153 -0.0116 1454.3489
v  -388.0241 -0.0116 1262.0475
v  -32.7503 -0.0114 304.2725
v  -127.8419 1293.7529 139.3275
v  -127.8419 1328.7136 139.3275
v  -360.7292 1743.2278 77.1160
v  -636.9919 1761.9061 -126.4413
v  -940.4839 1063.8408 -699.0172
v  -597.8300 694.7211 -1323.4402
v  -910.3867 456.6985 -1695.3662
v  -821.1854 757.4009 -1117.7552
v  -1315.4015 -0.0106 -2229.1721
v  -1044.4742 -0.0106 -2281.8772
v  -14.0194 -0.0113 260.0356
v  -39.7157 1167.4724 -30.7810
v  -39.7157 1202.4329 -30.7810
v  -172.2844 1933.3727 62.2381
v  -812.6192 1466.2725 -614.2538
v  -682.2452 470.4099 -1537.2258
v  -402.3591 934.9681 -1080.7556
v  -402.3591 969.9286 -1080.7556
v  -570.1354 1365.2744 -923.2814
v  -853.0074 -0.0106 -2066.8469
v  180.3331 -0.0112 -198.0130
v  35.1014 1070.1702 -177.8242
v  35.1014 1105.1307 -177.8243
v  -51.6428 1744.3300 -165.7659
v  -392.5241 1526.7228 -398.1226
v  -294.4885 1864.6658 -273.9055
v  -557.0134 1606.1305 -597.6300
v  -462.6886 326.0048 -1512.5165
v  -324.3170 1017.0591 -877.6826
v  -324.3170 1052.0197 -877.6826
v  -545.1460 173.1956 -1849.3562
v  -740.9188 -0.0106 -2022.2128
v  207.1552 -0.0111 -304.4955
v  151.4788 802.4220 -500.6378
v  151.4788 837.3826 -500.6378
v  -175.9656 677.2408 -1058.5562
v  -39.2173 763.3081 -728.4521
v  -39.2173 798.2686 -728.4520
v  -700.5834 21.9453 -2229.2290
v  -729.0647 -0.0106 -2197.0781
v  345.4145 -0.0111 -580.3748
v  -196.7148 1494.5946 -541.8716
v  -406.7997 -0.0107 -1808.9181
v  -320.7220 -0.0107 -1652.1288
v  -214.4695 618.8300 -1354.7979
v  -675.4356 -0.0106 -2224.0281
v  -491.2892 -0.0106 -1991.1252
v  -755.6982 -0.0106 -2257.1333
v  202.1075 -0.0110 -808.5847
v  8.4633 786.8600 -902.7557
v  -216.6908 -0.0107 -1643.1801
v  -32.5990 -0.0109 -1309.4395
v  -13.3187 -0.0109 -1205.3594
v  -689.3768 -0.0106 -2243.2375
v  -753.4242 -0.0106 -2258.1167
v  154.5453 -0.0110 -939.4315
v  79.9469 -0.0109 -994.3261
v  -721.1612 -0.0106 -2272.0676
v  -2463.7820 -0.0111 -400.6840
v  -2486.4526 32.6866 -488.5096
v  -2541.1294 -0.0111 -356.8439
v  -2417.7483 -0.0111 -510.3624
v  -2522.0498 -0.0111 -582.5399
v  -2354.2920 -0.0110 -751.1349
v  -2386.7598 30.6086 -851.5961
v  -2439.8198 -0.0110 -870.5601
v  -2203.2637 -0.0109 -1010.0089
v  -2439.5200 -0.0110 -871.6104
v  -2330.4817 -0.0109 -1149.5831
v  -1741.0126 -0.0119 2370.9482
v  -1653.4423 196.2298 2136.9290
v  -1928.3951 -0.0118 2026.4696
v  -1599.1760 -0.0119 2408.2515
v  -1326.6487 204.8864 2211.5361
v  -1665.8915 -0.0118 1969.9076
v  -1149.1350 -0.0120 2642.7280
v  -1050.4154 23.8656 2654.6914
v  -1495.1364 -0.0118 2005.1006
v  -1016.1682 -0.0120 2688.7695
v  -991.8836 232.9127 2456.7715
v  -1234.5360 -0.0118 2089.2949
v  -697.1916 -0.0120 2728.9602
v  -756.2822 204.8501 2466.1570
v  -1069.1697 -0.0118 2198.0823
v  -589.9297 -0.0119 2520.3892
v  -944.7208 -0.0119 2218.6880
v  -679.1063 -0.0119 2331.3579
v  -115.0038 -0.0119 2401.2869
v  -231.2669 208.3378 2085.0493
v  -294.2865 -0.0119 2307.4514
v  -100.3139 -0.0119 2282.2651
v  -106.1366 13.8484 2245.7402
v  -364.1803 -0.0118 2101.9514
v  300.9083 -0.0118 1989.5314
v  370.2196 20.6985 1878.0367
v  -347.6730 -0.0118 1978.2971
v  383.3505 -0.0118 1952.0403
v  132.2737 56.5102 1784.2813
v  -53.2931 604.4217 1756.6323
v  -335.6072 -0.0117 1822.0457
v  -184.8654 73.5128 1473.0276
v  -342.2180 -0.0117 1553.3674
v  937.0814 -0.0119 2308.6621
v  799.3678 68.5872 2203.9087
v  666.6255 -0.0119 2258.4211
v  962.4457 374.2312 1842.2070
v  214.8593 579.7143 1534.0177
v  765.6172 238.9594 1695.0369
v  -244.7183 -0.0116 1469.5438
v  1181.5563 -0.0119 2258.5989
v  1261.1461 122.3662 2005.1155
v  556.4635 962.2995 1407.9512
v  1356.1322 126.1945 1635.6217
v  -202.9522 -0.0116 1411.8787
v  68.9625 678.6205 1206.1023
v  1287.5170 -0.0119 2219.8506
v  1586.4102 143.9289 1763.8801
v  959.2860 766.0278 1422.9377
v  1399.2653 567.6196 1341.3802
v  -185.8492 -0.0116 1355.5518
v  -108.8202 -0.0115 968.8095
v  1288.9487 -0.0119 2218.9680
v  771.9673 1003.4005 1150.8826
v  468.3862 1264.9099 1052.7664
v  1618.3539 -0.0116 1518.6805
v  1530.9539 -0.0117 1582.6871
v  3.2356 -0.0115 823.3509
v  1444.1251 -0.0118 2123.2971
v  1627.2793 -0.0117 1628.3542
v  1121.2959 881.4358 1010.1890
v  301.6305 1084.1931 874.3888
v  1688.4647 -0.0116 1358.4467
v  1704.9243 39.5926 1273.5239
v  37.1019 -0.0115 725.2029
v  1805.5547 -0.0118 1852.2823
v  951.4501 1166.2233 845.5265
v  1325.6377 478.8141 1015.4699
v  529.9449 1437.7683 795.4963
v  1718.1278 -0.0116 1489.8560
v  1882.4181 217.6690 1350.1272
v  247.5214 1196.5837 626.8185
v  23.9488 -0.0114 682.7684
v  1320.6554 903.2505 868.6071
v  2067.1741 -0.0117 1587.7670
v  1914.3665 9.6701 845.6050
v  1482.4268 662.9620 914.5710
v  53.0947 -0.0114 415.0352
v  849.8232 1260.4110 673.0944
v  1309.4819 1097.2599 434.9847
v  665.1837 915.0399 663.2657
v  2165.5769 -0.0116 1378.3829
v  2185.4919 97.4587 1053.5693
v  1730.1915 578.0721 757.8998
v  183.2056 -0.0113 240.1654
v  1089.5670 1186.7974 521.2122
v  665.1837 950.0004 663.2657
v  247.5214 1231.5442 626.8185
v  2346.5637 -0.0116 1069.6145
v  2114.5461 230.6810 817.5167
v  2101.0137 27.3354 467.8963
v  1590.6510 826.1685 409.3319
v  486.1220 1194.1761 19.8114
v  234.4374 -0.0113 110.0678
v  849.8232 1295.3715 673.0944
v  1089.5670 1221.7579 521.2122
v  1309.4819 1132.2205 434.9848
v  486.1220 1229.1367 19.8115
v  649.6485 1548.3011 513.0488
v  472.7943 1723.9491 402.7735
v  2444.1907 -0.0115 741.0134
v  2310.6680 131.5231 437.1630
v  1930.7449 459.3719 328.1711
v  649.5001 1547.5161 -240.8156
v  249.9195 -0.0112 69.3339
v  904.0865 1382.9907 357.8690
v  1405.0548 1007.4905 89.0481
v  1405.0548 1042.4510 89.0481
v  649.5001 1582.4767 -240.8156
v  584.6110 1696.4442 -15.5075
v  2531.2610 -0.0114 361.4079
v  2152.0046 55.3150 218.5267
v  1767.1898 709.3377 94.1834
v  321.0495 -0.0112 -212.9296
v  1591.9280 885.5258 -74.2025
v  1591.9280 920.4864 -74.2025
v  1107.9283 1345.7321 170.8869
v  970.5271 1280.8271 -392.3237
v  970.5271 1315.7876 -392.3237
v  828.9393 1574.7095 -20.7960
v  2466.6541 -0.0113 209.8435
v  2419.3127 22.5826 200.6876
v  715.4549 5.5261 -533.3323
v  708.9683 -0.0111 -528.9062
v  1472.1758 714.9916 -269.8943
v  1472.1758 749.9522 -269.8942
v  1169.5787 1300.1110 -106.8872
v  1318.9698 1053.7134 -509.3021
v  1318.9698 1088.6738 -509.3021
v  2477.0959 -0.0113 92.8645
v  2115.2644 267.9227 -34.5134
v  2252.9924 -0.0112 58.3011
v  2402.3394 -0.0113 113.6721
v  711.4080 -0.0111 -534.5566
v  1957.7979 526.5747 -232.8622
v  1079.3973 1000.8846 -206.0598
v  1228.2887 128.2457 -705.0500
v  2315.4810 -0.0112 -96.2149
v  717.1847 -0.0111 -537.9650
v  1629.9255 811.7643 -363.3652
v  1514.9749 778.4012 -558.6283
v  728.7536 -0.0111 -542.6236
v  1265.0963 -0.0110 -793.4299
v  2319.0320 -0.0112 -121.7895
v  1836.4429 558.5767 -685.3997
v  1501.5231 20.5174 -797.4497
v  1489.2699 -0.0110 -810.2354
v  2416.3628 -0.0111 -420.8439
v  2392.7693 -0.0111 -537.9366
v  1852.9851 15.8809 -914.1963
v  1822.6127 -0.0110 -917.3807
v  2292.1001 -0.0110 -690.5038
v  2276.6982 10.0569 -701.3077
v  1848.6801 -0.0110 -924.9190
v  2301.5806 -0.0110 -697.8130
v  2221.2212 256.8000 -931.4745
v  2009.3424 -0.0109 -1020.2826
v  2584.1572 -0.0110 -845.5378
v  2525.3833 59.9929 -913.1671
v  2243.9500 -0.0109 -1123.6563
v  2594.9192 -0.0110 -970.5871
v  2475.9351 -0.0109 -989.6919
v  -316.1382 -0.0105 -2614.0405
v  -291.6604 17.3015 -2602.1162
v  -303.0502 -0.0105 -2635.2817
v  -309.4780 -0.0105 -2588.9094
v  -245.7457 -0.0105 -2629.5146
v  -301.1902 -0.0105 -2570.8113
v  -21.8524 -0.0105 -2619.4893
v  -293.2324 -0.0106 -2276.5625
v  -179.4283 194.0189 -2368.7126
v  132.8725 -0.0105 -2616.4634
v  -196.5871 -0.0106 -2091.7825
v  136.8918 210.3345 -2370.2769
v  150.0022 -0.0105 -2617.5830
v  -145.0776 -0.0107 -1886.9227
v  -39.5445 345.0693 -2081.0911
v  478.5169 138.8220 -2383.8804
v  174.9038 -0.0105 -2612.3784
v  -94.1298 -0.0107 -1825.4851
v  135.0291 439.9692 -1958.9689
v  647.5820 432.6657 -2048.0920
v  360.2739 -0.0105 -2615.1409
v  -104.3567 -0.0107 -1699.9288
v  253.7949 749.7648 -1530.1017
v  910.6992 177.0224 -2215.7698
v  629.5383 -0.0105 -2588.5396
v  131.4209 -0.0109 -1363.0742
v  297.1856 761.7543 -1773.5302
v  665.8564 606.0908 -1798.0941
v  1035.8141 464.8385 -1791.3654
v  1027.0054 -0.0106 -2418.5420
v  1081.1823 -0.0106 -2403.8086
v  186.1586 -0.0109 -1281.8843
v  472.8321 907.8688 -1278.7094
v  450.0815 479.4975 -1614.9528
v  1096.2855 -0.0106 -2399.3523
v  300.3317 -0.0109 -1053.7029
v  907.3832 463.4395 -1617.7993
v  1317.8024 299.4612 -1800.1860
v  1111.1572 -0.0106 -2387.5063
v  344.7711 -0.0110 -939.7127
v  549.1205 671.0600 -908.9205
v  679.4923 891.1636 -1485.2460
v  1285.9941 294.6967 -1621.8871
v  1433.7913 -0.0106 -1976.5967
v  476.8793 -0.0110 -722.3801
v  549.1205 706.0206 -908.9205
v  472.8321 942.8290 -1278.7094
v  679.4923 926.1243 -1485.2460
v  1303.8357 660.0781 -1334.9214
v  1655.0359 81.2967 -1383.4719
v  1613.8196 -0.0108 -1575.8260
v  1517.0258 -0.0107 -1777.4518
v  728.7233 -0.0110 -796.7139
v  1132.8181 646.5412 -1184.8632
v  1132.8181 681.5017 -1184.8632
v  734.4855 1151.8660 -1184.5009
v  936.3406 763.7388 -1402.5239
v  936.3406 798.6995 -1402.5244
v  893.2247 -0.0110 -876.5347
v  1578.0443 -0.0109 -1282.6611
v  1328.4316 -0.0109 -1069.9924
v  1833.4792 111.0830 -1519.1964
v  1683.4661 -0.0107 -1663.7416
v  1280.1055 -0.0109 -1029.2443
v  1680.2435 -0.0109 -1325.8878
v  1815.9308 -0.0109 -1408.7623
v  1660.1948 6.5882 -2005.1331
v  1653.6654 -0.0106 -1987.8212
v  2046.5946 -0.0108 -1551.0161
v  1684.7550 -0.0106 -1996.0681
v  1977.2587 -0.0107 -1668.5598
v  1648.8156 -0.0106 -2007.0471
v  1658.2719 -0.0106 -2021.0697
# 421 vertices

vn -0.3320 0.6899 -0.6433
vn -0.5327 0.7956 0.2884
vn -0.1186 0.6673 -0.7353
vn -0.2947 0.8647 0.4068
vn -0.0274 0.7480 -0.6632
vn -0.4583 0.5567 0.6929
vn -0.7123 0.6347 -0.2997
vn -0.1957 0.7710 -0.6060
vn -0.5020 0.4743 0.7232
vn -0.8621 0.4873 -0.1391
vn -0.6567 0.6696 0.3470
vn -0.3838 0.4340 -0.8151
vn -0.7911 0.5454 -0.2769
vn -0.5721 0.7155 0.4010
vn -0.7058 0.7054 -0.0654
vn 0.0108 0.3967 -0.9179
vn -0.4532 0.4352 0.7780
vn -0.3805 0.7506 -0.5401
vn -0.1371 0.9881 -0.0703
vn -0.7942 0.5716 -0.2063
vn -0.6100 0.7732 0.1733
vn -0.5247 0.7936 0.3081
vn -0.4520 0.7567 0.4723
vn 0.1282 0.5537 -0.8228
vn -0.5316 0.2855 0.7974
vn -0.3114 0.7625 -0.5672
vn -0.4483 0.8430 0.2973
vn -0.8862 0.4633 0.0100
vn -0.6540 0.6333 0.4138
vn -0.4153 0.7722 0.4809
vn -0.7136 0.6512 0.2582
vn -0.5280 0.8461 -0.0728
vn 0.1538 0.5469 -0.8230
vn -0.4218 0.2786 0.8628
vn 0.1485 0.4123 -0.8989
vn -0.8321 0.4833 0.2721
vn -0.7810 0.5174 0.3497
vn -0.8729 0.4585 -0.1670
vn -0.2729 0.6695 0.6908
vn -0.4001 0.5731 0.7152
vn -0.5491 0.6153 0.5656
vn -0.5785 0.7071 0.4067
vn -0.3963 0.8803 0.2606
vn -0.0546 0.3962 -0.9165
vn -0.4517 0.2617 0.8529
vn -0.7752 0.3450 -0.5292
vn -0.8099 0.5142 0.2824
vn -0.5042 0.4412 0.7424
vn -0.6608 0.7299 -0.1748
vn -0.8201 0.5225 -0.2333
vn -0.2723 0.5973 0.7544
vn -0.2294 0.5452 0.8063
vn -0.3536 0.8930 0.2784
vn -0.7551 0.5386 0.3739
vn 0.1765 0.3844 -0.9062
vn -0.3889 0.2469 0.8876
vn -0.6174 0.7396 0.2679
vn -0.5648 0.4225 0.7089
vn -0.6962 0.4570 -0.5536
vn -0.6984 0.7148 -0.0357
vn -0.5306 0.8155 -0.2312
vn -0.7285 0.6381 -0.2492
vn -0.8183 0.5182 -0.2489
vn -0.3810 0.5069 0.7733
vn -0.2947 0.6995 0.6510
vn -0.0472 0.7735 0.6320
vn 0.2487 0.4319 -0.8669
vn 0.0355 0.3084 0.9506
vn -0.6330 0.7197 0.2854
vn -0.3940 0.6661 0.6333
vn -0.8837 0.3922 0.2556
vn -0.6547 0.7200 -0.2301
vn -0.6469 0.7590 -0.0741
vn -0.6525 0.5040 -0.5659
vn -0.5110 0.8291 -0.2271
vn -0.3632 0.7559 -0.5446
vn -0.6597 0.6368 -0.3992
vn -0.2822 0.4908 0.8243
vn -0.2984 0.4895 0.8194
vn -0.4718 0.4652 0.7490
vn -0.7644 0.5298 0.3674
vn -0.7286 0.5239 0.4412
vn -0.2946 0.7591 0.5806
vn -0.2058 0.8151 0.5415
vn 0.1420 0.4446 -0.8844
vn -0.5040 0.3778 0.7767
vn -0.5573 0.7670 0.3180
vn -0.2101 0.3442 -0.9151
vn 0.8445 0.3641 -0.3926
vn -0.6740 0.6333 -0.3804
vn -0.5862 0.7980 -0.1399
vn -0.5943 0.7781 -0.2033
vn -0.3185 0.5934 -0.7392
vn -0.6260 0.7661 -0.1455
vn 0.0965 0.9833 0.1542
vn -0.7135 0.5759 -0.3991
vn -0.6085 0.7328 -0.3046
vn -0.1045 0.4962 0.8619
vn 0.0868 0.7000 0.7089
vn -0.4074 0.8300 0.3809
vn -0.0756 0.2822 -0.9564
vn -0.3222 0.3204 0.8908
vn 0.0150 0.7000 -0.7140
vn -0.2978 0.3667 -0.8814
vn 0.6853 0.7277 0.0290
vn -0.6432 0.6384 -0.4228
vn -0.4926 0.8530 -0.1726
vn -0.0240 0.9233 -0.3834
vn -0.3645 0.4236 -0.8293
vn -0.6483 0.7454 0.1556
vn -0.6667 0.7005 -0.2547
vn 0.3441 0.9333 -0.1029
vn -0.2498 0.8168 -0.5201
vn -0.6400 0.7315 -0.2352
vn -0.3521 0.3753 0.8574
vn -0.1315 0.5413 -0.8305
vn -0.5791 0.2303 0.7821
vn -0.7035 0.5978 0.3843
vn 0.9684 0.2349 -0.0834
vn 0.6794 0.1707 0.7136
vn 0.5878 0.8068 0.0593
vn 0.1196 0.6716 -0.7312
vn -0.6325 0.5629 0.5321
vn -0.8455 0.4813 0.2313
vn -0.1457 0.9893 0.0031
vn 0.1922 0.2840 -0.9394
vn -0.7993 0.5284 -0.2862
vn 0.5990 0.5802 -0.5519
vn -0.3633 0.8444 -0.3937
vn -0.3541 0.8468 -0.3969
vn 0.6677 0.3685 0.6468
vn 0.7348 0.3181 0.5990
vn 0.9475 0.1955 0.2532
vn 0.9363 0.1371 0.3234
vn 0.9804 0.1736 0.0932
vn -0.5044 0.0000 0.8635
vn -0.6974 -0.0000 0.7167
vn -0.8339 -0.0000 0.5519
vn 0.8141 0.5766 0.0697
vn -0.3549 0.6916 0.6291
vn -0.3758 0.6537 -0.6568
vn -0.5916 0.7979 0.1154
vn 0.8937 0.4432 -0.0697
vn -0.3362 0.8161 -0.4701
vn -0.3437 0.8565 -0.3850
vn -0.2230 0.7813 -0.5830
vn 0.9164 0.1402 0.3749
vn 0.8810 0.1997 0.4290
vn 0.7561 0.1372 0.6400
vn 0.7376 0.0995 0.6679
vn 0.7012 0.0337 0.7122
vn 0.7042 0.0389 0.7089
vn 0.7319 0.0887 0.6756
vn -0.5760 0.6808 0.4525
vn -0.6471 0.5220 0.5557
vn -0.9450 0.0000 -0.3270
vn -0.8253 0.5347 0.1815
vn 0.5447 0.6727 0.5008
vn -0.0333 0.6947 -0.7185
vn -0.1391 0.6279 -0.7658
vn -0.9617 0.0000 -0.2740
vn -0.2635 0.8671 -0.4227
vn -0.1294 0.7353 -0.6653
vn 0.3597 0.9235 -0.1333
vn 0.8087 0.1250 0.5748
vn 0.9146 0.1166 0.3873
vn 0.9076 0.0774 0.4127
vn 0.8987 0.0388 0.4368
vn 0.8995 0.0418 0.4350
vn 0.9079 0.0791 0.4116
vn -0.4390 0.6177 0.6525
vn -0.6216 0.6502 0.4368
vn -0.8200 0.5312 -0.2130
vn 0.4710 0.5093 -0.7203
vn -0.3579 0.7916 -0.4953
vn 0.4694 0.5092 -0.7214
vn 0.0880 0.0000 -0.9961
vn -0.7034 0.4630 -0.5393
vn 0.3345 0.7659 -0.5490
vn 0.6460 0.5019 -0.5752
vn 0.9143 0.1168 0.3879
vn 0.9087 0.0792 0.4099
vn 0.9018 0.0436 0.4300
vn 0.9003 0.0368 0.4337
vn 0.9080 0.0756 0.4120
vn 0.9228 0.1181 0.3668
vn 0.3567 0.8409 -0.4070
vn -0.7015 0.7039 0.1112
vn -0.6774 0.3514 -0.6463
vn -0.4324 0.8317 -0.3483
vn 0.4318 0.5318 -0.7285
vn 0.3308 0.5238 -0.7850
vn 0.9334 0.0000 -0.3587
vn -0.0878 0.3362 -0.9377
vn 0.3552 0.7499 -0.5581
vn 0.3297 0.4536 -0.8280
vn 0.9620 0.1260 0.2423
vn 0.9580 0.0872 0.2731
vn 0.9490 0.0348 0.3132
vn 0.9466 0.0236 0.3217
vn 0.9585 0.0904 0.2705
vn 0.5367 0.7669 -0.3519
vn 0.5831 0.7957 -0.1641
vn -0.9501 0.3030 -0.0745
vn -0.3763 0.7521 -0.5411
vn 0.5245 0.7197 -0.4549
vn 0.5672 0.4382 -0.6973
vn 0.4637 0.0000 -0.8860
vn 0.6776 0.5535 -0.4842
vn 0.7231 0.4977 -0.4791
vn -0.6402 0.7670 -0.0434
vn 0.8811 0.1691 0.4416
vn 0.7668 0.0000 -0.6419
vn 0.5535 0.5794 -0.5982
vn 0.2701 0.9502 0.1555
vn -0.4903 0.4224 -0.7623
vn 0.7557 0.5067 -0.4149
vn -0.7540 0.6561 -0.0314
vn 0.7146 0.5452 -0.4382
vn 0.6515 0.3304 -0.6829
vn 0.4969 0.5485 -0.6725
vn 0.6271 0.6008 -0.4958
vn -0.4478 0.8718 0.1986
vn 0.8201 0.2494 -0.5150
vn -0.2658 0.9623 0.0573
vn 0.6957 0.3285 -0.6388
vn 0.7588 0.3683 -0.5372
vn 0.7688 0.5309 -0.3565
vn 0.0777 0.4209 -0.9038
vn 0.9479 0.2657 -0.1756
vn 0.9364 0.2727 -0.2208
vn 0.9199 0.2804 -0.2742
vn -0.4987 0.8665 -0.0193
vn 0.6357 0.6189 -0.4614
vn -0.1666 0.9077 -0.3852
vn 0.9232 0.1870 -0.3356
vn 0.8548 0.2167 -0.4715
vn 0.8743 0.2937 -0.3864
vn 0.5863 0.1460 -0.7968
vn 0.5207 0.6320 -0.5740
vn -0.0000 -1.0000 -0.0000
vn 0.0000 -1.0000 -0.0000
vn 0.0000 -1.0000 0.0000
vn 0.1725 0.9368 0.3043
vn 0.4719 0.8591 0.1981
vn -0.5997 0.7986 -0.0507
vn 0.4576 0.8809 0.1206
vn -0.4599 0.8782 -0.1313
vn 0.3133 0.9319 0.1828
vn 0.0926 0.9921 -0.0844
vn -0.4440 0.8789 -0.1742
vn -0.6331 0.6932 0.3444
vn -0.1576 0.7849 0.5992
vn -0.1609 0.6456 -0.7465
vn -0.2604 0.8261 0.4998
vn 0.1560 0.6344 -0.7571
vn -0.2457 0.6603 0.7096
vn -0.4735 0.6718 0.5696
vn 0.2512 0.5767 -0.7774
vn -0.0786 0.7776 0.6238
vn 0.0517 0.6789 0.7324
vn 0.4406 0.5977 -0.6698
vn 0.6799 0.6446 0.3496
vn 0.1131 0.7213 -0.6833
vn 0.7682 0.5278 -0.3624
vn 0.3120 0.6015 -0.7355
vn -0.3141 0.7356 0.6001
vn -0.6323 0.6467 0.4267
vn -0.5053 0.6966 0.5094
vn 0.7979 0.5947 0.0985
vn -0.8010 0.5331 0.2724
vn 0.2286 0.9217 0.3133
vn -0.8418 0.5279 -0.1124
vn 0.1133 0.9618 0.2491
vn 0.0934 0.9858 0.1394
vn 0.6750 0.4339 0.5968
vn -0.8563 0.5123 -0.0661
vn 0.6918 0.1993 -0.6940
vn -0.9049 0.4251 0.0223
vn -0.1208 0.7502 0.6501
vn -0.4460 0.8050 0.3913
vn -0.1643 0.7887 0.5924
vn -0.0288 0.5181 0.8549
vn -0.5145 0.8522 -0.0952
vn -0.5672 0.4930 -0.6597
vn -0.6260 0.4147 0.6604
vn 0.0499 0.7777 0.6267
vn 0.3852 0.7779 0.4965
vn -0.0532 0.3550 0.9333
vn 0.0602 0.6935 -0.7179
vn -0.6675 0.5663 -0.4835
vn -0.7182 0.5101 0.4734
vn 0.1725 0.8648 0.4716
vn 0.3556 0.9291 0.1010
vn 0.1636 0.4044 0.8998
vn -0.5811 0.6707 0.4609
vn 0.1848 0.5325 0.8260
vn -0.8636 0.4305 -0.2622
vn -0.9327 0.3093 -0.1858
vn 0.2773 0.8490 0.4498
vn 0.3784 0.8107 0.4468
vn 0.3175 0.3403 0.8851
vn -0.5719 0.5490 0.6096
vn 0.5326 0.4328 0.7273
vn -0.7301 0.3880 -0.5625
vn 0.3071 0.6971 -0.6478
vn 0.4637 0.7279 0.5051
vn 0.4411 0.8043 0.3981
vn 0.4374 0.8067 0.3973
vn -0.7973 0.5835 0.1542
vn 0.8263 0.4319 0.3616
vn -0.9113 0.2656 -0.3145
vn 0.3479 0.8147 0.4640
vn 0.6084 0.6287 -0.4843
vn 0.3997 0.6903 0.6031
vn 0.4690 0.6348 0.6141
vn 0.8499 0.4273 -0.3084
vn -0.8064 0.5619 0.1846
vn -0.7332 0.6596 0.1655
vn 0.8019 0.5052 -0.3188
vn -0.9380 0.1888 0.2907
vn 0.3934 0.7168 0.5757
vn 0.4046 0.6265 0.6662
vn 0.5348 0.2819 0.7965
vn -0.7214 0.5575 0.4108
vn -0.2087 0.6349 0.7438
vn -0.5891 0.7332 -0.3396
vn -0.0201 0.4935 0.8695
vn -0.9783 0.1778 -0.1065
vn 0.5228 0.8391 0.1503
vn 0.5329 0.7774 0.3341
vn 0.2157 0.3216 0.9220
vn 0.2840 0.3035 -0.9095
vn 0.5702 0.7765 0.2680
vn -0.0067 0.9243 -0.3815
vn 0.8545 0.3378 0.3946
vn 0.5723 0.5530 0.6055
vn -0.7808 0.2297 -0.5810
vn -0.2683 0.1704 -0.9481
vn 0.4176 0.8781 0.2335
vn 0.4464 0.8607 0.2447
vn 0.7845 0.5734 0.2363
vn -0.0869 -0.0000 0.9962
vn 0.4766 0.8336 0.2794
vn -0.5978 0.6078 0.5227
vn 0.8375 0.3377 0.4296
vn 0.4985 0.7880 0.3613
vn -0.9175 0.1661 -0.3613
vn -0.9279 0.0753 -0.3651
vn -0.9191 0.1071 -0.3791
vn -0.9194 0.1668 -0.3563
vn -0.0532 -0.0000 0.9986
vn 0.5352 -0.0000 0.8447
vn 0.3650 -0.0000 0.9310
vn 0.6655 0.6567 0.3547
vn -0.9297 0.0451 -0.3656
vn -0.9006 0.0607 -0.4303
vn 0.0141 0.3221 0.9466
vn 0.5011 0.8525 0.1489
vn 0.6993 0.6917 0.1802
vn -0.7206 0.6111 -0.3275
vn 0.8580 0.4293 0.2819
vn 0.7412 0.6504 0.1662
vn -0.8622 0.0254 -0.5060
vn -0.9215 0.1677 -0.3502
vn -0.8815 0.4718 -0.0206
vn 0.4532 0.8357 0.3103
vn 0.9639 -0.0000 0.2663
vn 0.4589 0.8351 0.3032
vn 0.6943 0.7196 0.0051
vn -0.9024 0.1099 -0.4167
vn -0.9199 0.1671 -0.3547
vn 0.6045 0.2087 0.7688
vn 0.5392 0.8330 0.1237
vn -0.4510 0.7790 -0.4356
vn 0.8789 0.4197 0.2268
vn 0.7410 0.6484 0.1747
vn -0.9506 0.1974 -0.2395
vn 0.6579 -0.0000 0.7531
vn 0.9929 0.0000 -0.1193
vn 0.8984 -0.0000 0.4392
vn 0.7165 0.6974 0.0170
vn 0.4515 0.8303 0.3267
vn 0.6335 0.7706 0.0692
vn -0.4268 0.0000 -0.9043
vn -0.9168 0.2990 -0.2647
vn 0.6169 0.7482 0.2442
vn 0.4528 0.8705 -0.1930
vn -0.1661 0.9624 -0.2149
vn 0.8656 0.4948 -0.0765
vn -0.6270 0.1192 -0.7698
vn 0.6275 0.7646 0.1470
vn 0.8530 0.0000 -0.5220
vn 0.6245 0.6586 -0.4199
vn 0.7197 0.6927 0.0460
vn 0.4535 0.8282 0.3293
vn 0.6052 0.0000 -0.7961
vn -0.3183 0.0000 -0.9480
vn -0.0368 0.0000 -0.9993
vn -0.3057 0.1648 -0.9378
vn 0.4853 0.7932 -0.3678
vn 0.4184 0.8533 -0.3111
vn 0.4462 0.8929 0.0606
vn 0.4244 0.9047 0.0379
vn 0.7861 0.5247 0.3267
vn 0.6026 0.7909 0.1067
vn 0.5621 0.8241 0.0697
vn 0.0994 0.9582 -0.2682
vn -0.7314 0.6044 -0.3158
vn 0.7608 0.6366 -0.1258
vn 0.2968 0.6226 -0.7241
vn 0.8423 0.0000 -0.5390
vn -0.8982 0.3561 -0.2578
vn 0.7289 0.4768 -0.4913
vn -0.1783 0.2203 -0.9590
vn 0.5826 0.6281 0.5158
vn -0.3495 0.1717 -0.9211
vn 0.9232 0.3734 0.0916
vn -0.0664 0.9688 -0.2386
vn 0.7927 0.5185 0.3206
vn -0.4430 0.4898 -0.7509
vn 0.7311 0.6355 0.2483
vn 0.1503 0.5491 0.8222
vn 0.8109 0.5347 0.2376
vn 0.0393 0.3037 -0.9520
vn 0.0391 0.2031 -0.9784
vn 0.4706 0.5640 0.6785
vn -0.3785 0.4491 -0.8094
vn 0.8082 0.5781 0.1122
vn -0.3118 0.5505 -0.7744
vn -0.4646 0.8768 0.1237
vn 0.6798 0.7215 -0.1313
vn -0.1984 0.2978 -0.9338
vn -0.0622 0.5541 -0.8301
vn 0.7726 0.5830 0.2514
vn 0.4131 0.8257 -0.3842
vn 0.7199 0.6787 -0.1451
vn -0.1661 0.2991 -0.9397
vn -0.2418 0.6129 -0.7523
vn 0.6883 0.5656 -0.4542
vn -0.2892 0.3644 -0.8852
vn -0.2251 0.5861 -0.7783
vn 0.2986 0.8723 0.3873
vn 0.4223 0.3630 -0.8306
vn -0.4145 0.5835 -0.6984
vn 0.2627 0.8237 0.5025
vn -0.3547 0.5939 0.7221
vn -0.3382 0.5445 -0.7676
vn 0.6794 0.7314 0.0585
vn 0.3973 0.6721 0.6248
vn 0.4112 0.5692 -0.7120
vn 0.1051 0.7484 -0.6548
vn -0.4584 0.8427 -0.2824
vn -0.6218 0.7657 0.1648
vn 0.0478 0.8787 -0.4751
vn -0.5670 0.7817 0.2597
vn 0.0227 0.8619 -0.5066
vn -0.8575 0.5140 0.0232
vn 0.0119 0.7944 -0.6072
vn -0.8538 0.4497 0.2622
vn -0.8344 0.4743 0.2806
vn -0.7123 0.5948 0.3726
vn -0.0424 0.7599 -0.6486
vn -0.8897 0.3980 0.2237
vn -0.0483 0.8938 -0.4459
vn 0.1334 0.7584 -0.6380
vn -0.6616 0.5111 0.5487
vn -0.1320 0.8652 -0.4837
vn 0.0064 0.8183 -0.5748
vn -0.0076 0.8591 -0.5118
vn -0.8934 0.4433 -0.0728
vn 0.2130 0.6796 -0.7020
vn 0.0527 0.8441 -0.5337
vn -0.7926 0.2530 0.5548
vn -0.8543 0.5039 -0.1275
vn 0.0238 0.6552 -0.7550
vn 0.3216 0.7483 -0.5802
vn 0.1617 0.7875 -0.5947
vn 0.1924 0.8722 -0.4497
vn -0.8025 0.2515 0.5410
vn 0.8220 0.5426 0.1732
vn 0.1733 0.7906 -0.5873
vn -0.8832 0.2639 0.3876
vn -0.8913 0.2612 0.3707
vn -0.8610 0.2704 0.4308
vn 0.4348 0.5416 -0.7195
vn 0.2973 0.5850 0.7546
vn 0.3404 0.9039 0.2592
vn 0.4183 0.7412 -0.5251
vn -0.9002 0.2580 0.3509
vn -0.5819 0.5210 -0.6244
vn 0.0319 0.8042 0.5935
vn 0.3914 0.8711 0.2967
vn 0.5053 0.8555 0.1130
vn 0.6539 0.5557 -0.5134
vn -0.8316 0.2300 0.5055
vn -0.9794 -0.0000 0.2020
vn -0.7069 0.0000 -0.7073
vn 0.0045 0.2982 -0.9545
vn 0.2545 0.5896 -0.7665
vn 0.6502 0.6662 -0.3653
vn 0.8161 0.5551 0.1604
vn 0.7966 0.5046 -0.3329
vn 0.2755 0.2298 0.9334
vn 0.4274 -0.0000 0.9041
vn -0.6428 0.5780 0.5027
vn 0.3066 -0.0000 -0.9519
vn -0.4291 0.7583 -0.4907
vn 0.4759 0.4816 -0.7359
vn 0.2968 0.5373 -0.7894
vn 0.6533 0.4476 -0.6106
vn 0.4217 0.2582 0.8692
vn 0.7423 -0.0000 -0.6701
vn 0.4125 0.3487 0.8416
vn 0.5046 0.6436 -0.5754
vn 0.2034 0.9269 0.3154
vn 0.6159 0.3131 0.7229
vn -0.3702 0.8814 -0.2933
vn 0.3509 0.2939 0.8891
vn 0.7222 0.6119 -0.3225
vn 0.6120 0.3141 0.7258
vn 0.3082 0.6116 0.7287
vn 0.4138 0.6081 0.6775
vn -0.6296 0.7748 0.0579
vn 0.4173 0.6067 0.6766
vn 0.3531 0.8809 -0.3153
vn -0.5136 0.8482 0.1296
vn 0.4187 0.8739 -0.2470
vn 0.3711 0.8413 -0.3931
vn -0.4410 0.8468 -0.2974
# 530 vertex normals

vt 0.7087 0.2387 0.0000
vt 0.8968 0.3789 0.0000
vt 0.9005 0.3806 0.0000
vt 0.9005 0.3810 0.0000
vt 0.8968 0.3793 0.0000
vt 0.8941 0.3784 0.0000
vt 0.8941 0.3788 0.0000
vt 0.8915 0.3756 0.0000
vt 0.8915 0.3761 0.0000
vt 0.9032 0.3774 0.0000
vt 0.9032 0.3778 0.0000
vt 0.9002 0.3830 0.0000
vt 0.8968 0.3833 0.0000
vt 0.8929 0.3740 0.0000
vt 0.8929 0.3745 0.0000
vt 0.8944 0.3702 0.0000
vt 0.8944 0.3706 0.0000
vt 0.9043 0.3758 0.0000
vt 0.9043 0.3762 0.0000
vt 0.9026 0.3854 0.0000
vt 0.8946 0.3795 0.0000
vt 0.8997 0.3729 0.0000
vt 0.8997 0.3733 0.0000
vt 0.8976 0.3783 0.0000
vt 0.9052 0.3746 0.0000
vt 0.9052 0.3750 0.0000
vt 0.9041 0.3830 0.0000
vt 0.8998 0.3803 0.0000
vt 0.9011 0.3846 0.0000
vt 0.8978 0.3813 0.0000
vt 0.9007 0.3739 0.0000
vt 0.9007 0.3743 0.0000
vt 0.9067 0.3712 0.0000
vt 0.9067 0.3716 0.0000
vt 0.9043 0.3707 0.0000
vt 0.9043 0.3711 0.0000
vt 0.9023 0.3799 0.0000
vt 0.9079 0.3761 0.0000
vt 0.9132 0.3726 0.0000
vt 0.9132 0.3730 0.0000
vt 0.9079 0.3766 0.0000
vt 0.9155 0.3769 0.0000
vt 0.9155 0.3774 0.0000
vt 0.9185 0.3760 0.0000
vt 0.9185 0.3765 0.0000
vt 0.9213 0.3749 0.0000
vt 0.9213 0.3753 0.0000
vt 0.9109 0.3761 0.0000
vt 0.9109 0.3766 0.0000
vt 0.9130 0.3806 0.0000
vt 0.9107 0.3828 0.0000
vt 0.9162 0.3785 0.0000
vt 0.9225 0.3738 0.0000
vt 0.9225 0.3742 0.0000
vt 0.9130 0.3810 0.0000
vt 0.9121 0.3824 0.0000
vt 0.9248 0.3722 0.0000
vt 0.9248 0.3727 0.0000
vt 0.9187 0.3780 0.0000
vt 0.9170 0.3772 0.0000
vt 0.9170 0.3776 0.0000
vt 0.9152 0.3809 0.0000
vt 0.9233 0.3701 0.0000
vt 0.9233 0.3705 0.0000
vt 0.9195 0.3774 0.0000
vt 0.9214 0.3743 0.0000
vt 0.9214 0.3748 0.0000
vt 0.9184 0.3737 0.0000
vt 0.9107 0.3725 0.0000
vt 0.9117 0.3695 0.0000
vt 0.9117 0.3700 0.0000
vt 0.9107 0.3729 0.0000
vt 0.9133 0.3723 0.0000
vt 0.9133 0.3727 0.0000
vt 0.9190 0.3692 0.0000
vt 0.9190 0.3697 0.0000
vt 0.9140 0.3756 0.0000
vt 0.9166 0.3707 0.0000
vt 0.9166 0.3711 0.0000
# 79 texture coords

g SPW_Natures_Mount_05
usemtl SPW_Natures_02
s off
f 1/1/1 2/1/1 3/1/1 
f 4/1/2 2/1/2 1/1/2 
f 3/1/3 2/1/3 5/1/3 6/1/3 
f 7/1/4 8/1/4 2/1/4 4/1/4 
f 2/1/5 8/1/5 5/1/5 
f 6/1/6 5/1/6 9/1/6 10/1/6 
f 11/1/7 12/1/7 8/1/7 7/1/7 
f 5/1/8 8/1/8 13/1/8 
f 5/1/9 13/1/9 14/1/9 9/1/9 
f 10/1/10 9/1/10 15/1/10 
f 16/1/11 12/1/11 11/1/11 
f 8/1/12 17/1/12 13/1/12 
f 15/1/13 9/1/13 18/1/13 19/1/13 
f 20/1/14 21/1/14 12/1/14 16/1/14 
f 22/1/15 17/1/15 8/1/15 12/1/15 
f 13/1/16 17/1/16 23/1/16 
f 13/1/17 23/1/17 14/1/17 
f 9/1/18 14/1/18 24/1/18 
f 9/1/19 24/1/19 18/1/19 
f 19/1/20 18/1/20 25/1/20 
f 26/1/21 27/1/21 21/1/21 20/1/21 
f 21/1/22 22/1/22 12/1/22 
f 22/1/23 28/1/23 17/1/23 
f 17/1/24 28/1/24 23/1/24 
f 23/1/25 29/1/25 14/1/25 
f 24/1/26 14/1/26 30/1/26 
f 18/1/27 24/1/27 31/1/27 
f 25/1/28 18/1/28 31/1/28 32/1/28 
f 33/1/29 27/1/29 26/1/29 
f 34/1/30 21/1/30 27/1/30 
f 21/1/31 35/1/31 22/1/31 
f 35/1/32 28/1/32 22/1/32 
f 28/1/33 36/1/33 23/1/33 
f 23/1/34 36/1/34 29/1/34 
f 29/1/35 37/1/35 30/1/35 14/1/35 
f 30/1/36 38/1/36 24/1/36 
f 24/1/37 38/1/37 31/1/37 
f 32/1/38 31/1/38 39/1/38 
f 40/1/39 27/1/39 33/1/39 
f 41/1/40 34/1/40 27/1/40 40/1/40 
f 34/1/41 42/1/41 21/1/41 
f 21/1/42 42/1/42 35/1/42 
f 42/1/43 28/1/43 35/1/43 
f 28/1/44 43/1/44 36/1/44 
f 36/1/45 44/1/45 29/1/45 
f 37/1/46 29/1/46 45/1/46 
f 30/1/47 46/1/47 38/1/47 
f 37/1/48 46/1/48 30/1/48 
f 47/1/49 31/1/49 38/1/49 
f 39/1/50 31/1/50 48/1/50 49/1/50 
f 50/1/51 34/1/51 41/1/51 
f 34/1/52 51/1/52 42/1/52 
f 28/1/53 42/1/53 52/1/53 
f 52/1/54 43/1/54 28/1/54 
f 43/1/55 53/1/55 36/1/55 
f 36/1/56 53/1/56 44/1/56 
f 29/1/57 44/1/57 54/1/57 
f 37/1/58 45/1/58 46/1/58 
f 29/1/59 54/1/59 45/1/59 
f 38/1/60 46/1/60 55/1/60 
f 47/1/61 38/1/61 56/1/61 
f 48/1/62 31/1/62 47/1/62 
f 49/1/63 48/1/63 57/1/63 
f 58/1/64 59/1/64 34/1/64 50/1/64 
f 59/1/65 51/1/65 34/1/65 
f 51/1/66 52/1/66 42/1/66 
f 43/1/67 60/1/67 53/1/67 
s 1
f 53/1/68 61/1/68 44/1/68 
s off
f 44/1/69 62/1/69 54/1/69 
f 45/1/70 63/1/70 46/1/70 
f 45/1/71 54/1/71 63/1/71 
f 38/1/72 55/1/72 64/1/72 
f 46/1/73 63/1/73 55/1/73 
f 65/1/74 47/1/74 56/1/74 
f 38/1/75 66/1/75 56/1/75 
f 48/1/76 47/1/76 65/1/76 
f 57/1/77 48/1/77 67/1/77 68/1/77 
s 1
f 69/1/78 70/1/79 59/1/80 58/1/80 
s off
f 59/1/81 70/1/81 51/1/81 
f 51/1/82 70/1/82 43/1/82 52/1/82 
f 70/1/83 71/1/83 43/1/83 
f 71/1/84 60/1/84 43/1/84 
f 60/1/85 72/1/85 53/1/85 
s 2
f 73/1/86 61/1/86 53/1/86 
s 1
f 44/1/68 61/1/68 74/1/68 
s off
f 44/1/87 74/1/87 62/1/87 
f 54/1/88 62/1/88 75/1/88 
f 54/1/89 75/1/89 63/1/89 
f 38/1/90 64/1/90 66/1/90 
f 55/1/91 76/1/91 64/1/91 
f 55/1/92 63/1/92 76/1/92 
f 56/1/93 77/1/93 65/1/93 
f 66/1/94 78/1/94 56/1/94 
f 79/1/95 48/1/95 65/1/95 
f 48/1/96 79/1/96 67/1/96 
f 68/1/97 67/1/97 80/1/97 
s 1
f 81/1/98 70/1/79 69/1/78 
s off
f 70/1/99 82/1/99 71/1/99 
f 71/1/100 83/1/100 60/1/100 
f 60/1/101 84/1/101 72/1/101 
f 53/1/102 72/1/102 73/1/102 
s 2
f 61/1/86 73/1/86 74/1/86 
s off
f 62/1/103 74/1/103 85/1/103 
f 75/1/104 62/1/104 85/1/104 
f 63/1/105 75/1/105 86/1/105 
f 66/1/106 64/1/106 87/1/106 
f 64/1/107 76/1/107 87/1/107 
f 63/1/108 86/1/108 76/1/108 
f 56/1/109 78/1/109 77/1/109 
f 65/1/110 77/1/110 88/1/110 89/1/110 
f 66/1/111 87/1/111 78/1/111 
f 65/1/112 90/1/112 79/1/112 
f 67/1/113 79/1/113 90/1/113 
f 80/1/114 67/1/114 91/1/114 
f 92/1/115 93/1/115 70/1/115 81/1/115 
f 93/1/116 82/1/116 70/1/116 
f 82/1/117 83/1/117 71/1/117 
f 83/1/118 84/1/118 60/1/118 
f 94/1/119 72/1/119 84/1/119 95/1/119 
f 96/1/120 73/1/120 72/1/120 94/1/120 
f 74/1/121 73/1/121 97/1/121 
f 85/1/122 74/1/122 97/1/122 
f 75/1/123 85/1/123 98/1/123 
f 75/1/124 98/1/124 86/1/124 
f 86/1/125 87/1/125 76/1/125 
f 77/1/126 78/1/126 99/1/126 
f 65/1/127 89/1/127 90/1/127 
f 87/1/128 99/1/128 78/1/128 
f 90/1/129 100/1/129 67/1/129 
f 91/1/130 67/1/130 101/1/130 102/1/130 
f 103/1/131 82/1/131 93/1/131 92/1/131 
f 83/1/132 82/1/132 84/1/132 
f 95/1/133 84/1/133 104/1/133 
f 105/1/134 73/1/134 96/1/134 
f 106/1/135 97/1/135 73/1/135 105/1/135 
f 85/2/136 97/3/136 107/4/136 108/5/136 
f 98/6/137 85/2/137 108/5/137 109/7/137 
f 86/8/138 98/6/138 109/7/138 110/9/138 
f 86/1/139 111/1/139 87/1/139 
f 99/1/140 112/1/140 77/1/140 
f 88/1/141 100/1/141 90/1/141 89/1/141 
f 77/1/142 112/1/142 88/1/142 
f 111/1/143 99/1/143 87/1/143 
f 67/1/144 100/1/144 113/1/144 
f 67/1/145 113/1/145 101/1/145 
f 102/1/146 101/1/146 114/1/146 
f 115/1/147 82/1/147 103/1/147 
f 104/1/148 84/1/148 82/1/148 116/1/148 
s 1
f 117/1/149 118/1/150 97/1/151 106/1/149 
f 97/3/151 118/10/150 119/11/152 107/4/153 
s off
f 108/5/154 107/4/154 120/12/154 
f 108/5/155 121/13/155 109/7/155 
f 111/14/156 86/8/156 110/9/156 122/15/156 
f 109/7/157 121/13/157 110/9/157 
f 112/1/158 99/1/158 123/1/158 
f 100/1/159 88/1/159 124/1/159 
f 112/1/160 124/1/160 88/1/160 
f 99/16/161 111/14/161 122/15/161 125/17/161 
f 100/1/162 124/1/162 113/1/162 
f 126/1/163 101/1/163 113/1/163 127/1/163 
f 114/1/164 101/1/164 126/1/164 
f 116/1/165 82/1/165 115/1/165 
s 2
f 128/1/166 129/1/167 118/1/168 117/1/166 
f 118/10/168 129/18/167 130/19/169 119/11/170 
s 1
f 131/20/149 107/4/153 119/11/152 
s off
f 108/5/171 120/12/171 121/13/171 
f 107/4/172 131/20/172 120/12/172 
f 122/15/173 110/9/173 121/13/173 132/21/173 
f 123/1/174 133/1/174 112/1/174 
f 99/1/175 134/1/175 123/1/175 
f 112/1/176 133/1/176 124/1/176 
f 134/22/177 99/16/177 125/17/177 135/23/177 
f 125/17/178 122/15/178 136/24/178 
f 133/1/179 113/1/179 124/1/179 
f 127/1/180 113/1/180 137/1/180 
s 1
f 138/1/181 139/1/182 129/1/183 128/1/181 
f 129/18/183 139/25/182 140/26/184 130/19/185 
s 2
f 131/20/166 119/11/170 130/19/169 141/27/186 
s off
f 121/13/187 120/12/187 142/28/187 
f 120/12/188 131/20/188 143/29/188 
f 122/15/189 132/21/189 136/24/189 
f 132/21/190 121/13/190 144/30/190 
f 123/1/191 145/1/191 133/1/191 
f 134/1/192 145/1/192 123/1/192 
f 146/31/193 134/22/193 135/23/193 147/32/193 
f 125/17/194 136/24/194 135/23/194 
f 133/1/195 148/1/195 113/1/195 
f 137/1/196 113/1/196 148/1/196 149/1/196 
s 2
f 150/1/197 151/1/198 139/1/199 138/1/197 
f 139/25/199 151/33/198 152/34/200 140/26/201 
s 1
f 141/27/181 130/19/185 140/26/184 
s off
f 131/20/202 141/27/202 143/29/202 
f 121/13/203 142/28/203 144/30/203 
f 120/12/204 143/29/204 142/28/204 
f 132/21/205 144/30/205 136/24/205 
f 133/1/206 145/1/206 148/1/206 
f 134/1/207 153/1/207 145/1/207 
f 154/35/208 146/31/208 147/32/208 155/36/208 
f 146/1/209 153/1/209 134/1/209 
f 147/32/210 135/23/210 136/24/210 
f 149/1/211 148/1/211 156/1/211 157/1/211 
f 158/1/212 151/1/212 150/1/212 
f 151/33/213 154/35/213 155/36/213 152/34/213 
s 2
f 141/27/186 140/26/201 152/34/200 
s off
f 143/29/214 141/27/214 159/37/214 
f 144/30/215 142/28/215 159/37/215 
f 142/28/216 143/29/216 159/37/216 
f 160/1/217 148/1/217 145/1/217 161/1/217 
f 153/1/218 162/1/218 145/1/218 
f 154/1/219 153/1/219 146/1/219 
f 159/37/220 155/36/220 147/32/220 
f 147/32/221 136/24/221 144/30/221 159/37/221 
f 163/1/222 156/1/222 148/1/222 164/1/222 
f 157/1/223 156/1/223 165/1/223 
f 166/1/224 151/1/224 158/1/224 
f 151/1/225 167/1/225 154/1/225 
f 152/34/226 155/36/226 159/37/226 
f 141/27/227 152/34/227 159/37/227 
f 164/1/228 148/1/228 160/1/228 
f 161/1/229 145/1/229 162/1/229 168/1/229 
s 1
f 169/1/230 162/1/230 153/1/231 170/1/232 
s off
f 153/1/233 154/1/233 167/1/233 
f 171/1/234 156/1/234 163/1/234 
s 1
f 165/1/235 156/1/235 172/1/235 
s off
f 173/1/236 167/1/236 151/1/236 166/1/236 
f 168/1/237 162/1/237 169/1/237 
s 1
f 170/1/232 153/1/231 174/1/238 
s off
f 174/1/239 153/1/239 167/1/239 173/1/239 
f 175/1/240 156/1/240 171/1/240 
s 1
f 172/1/235 156/1/235 175/1/235 
s off
f 40/1/241 33/1/241 26/1/241 50/1/241 
f 20/1/241 16/1/241 11/1/241 7/1/241 
f 7/1/241 4/1/241 1/1/241 6/1/241 
f 1/1/242 3/1/242 6/1/242 
f 20/1/242 7/1/242 6/1/242 50/1/242 
f 6/1/242 10/1/242 15/1/242 19/1/242 
f 6/1/241 19/1/241 25/1/241 68/1/241 
f 25/1/241 32/1/241 39/1/241 57/1/241 
f 39/1/241 49/1/241 57/1/241 
f 25/1/242 57/1/242 68/1/242 
f 80/1/241 91/1/241 102/1/241 68/1/241 
f 102/1/242 114/1/242 126/1/242 137/1/242 
f 126/1/242 127/1/242 137/1/242 
f 68/1/242 102/1/242 137/1/242 149/1/242 
f 157/1/241 165/1/241 172/1/241 171/1/241 
f 172/1/241 175/1/241 171/1/241 
f 149/1/241 157/1/241 171/1/241 161/1/241 
f 163/1/242 164/1/242 160/1/242 171/1/242 
f 171/1/242 160/1/242 161/1/242 
f 68/1/242 149/1/242 161/1/242 50/1/242 
f 161/1/241 168/1/241 169/1/241 170/1/241 
f 161/1/242 170/1/242 174/1/242 106/1/242 
f 174/1/241 173/1/241 166/1/241 150/1/241 
f 166/1/241 158/1/241 150/1/241 
f 150/1/243 138/1/243 128/1/243 106/1/243 
f 128/1/241 117/1/241 106/1/241 
f 174/1/242 150/1/242 106/1/242 
f 106/1/242 105/1/242 96/1/242 94/1/242 
f 94/1/241 95/1/241 104/1/241 115/1/241 
f 104/1/242 116/1/242 115/1/242 
f 106/1/242 94/1/242 115/1/242 50/1/242 
f 115/1/241 103/1/241 92/1/241 81/1/241 
f 81/1/242 69/1/242 58/1/242 50/1/242 
f 115/1/241 81/1/241 50/1/241 
f 161/1/241 106/1/241 50/1/241 
f 6/1/242 68/1/242 50/1/242 
f 26/1/241 20/1/241 50/1/241 
f 40/1/242 50/1/242 41/1/242 
f 176/1/244 177/1/244 178/1/244 
f 179/1/245 177/1/245 176/1/245 
f 178/1/246 177/1/246 180/1/246 
f 181/1/247 182/1/247 177/1/247 179/1/247 
s 1
f 180/1/248 177/1/248 182/1/248 183/1/248 
s off
f 184/1/249 182/1/249 181/1/249 
s 1
f 183/1/248 182/1/248 185/1/248 
s off
f 186/1/250 182/1/250 184/1/250 
f 185/1/251 182/1/251 186/1/251 
f 183/1/241 185/1/241 186/1/241 181/1/241 
f 186/1/242 184/1/242 181/1/242 
f 181/1/241 179/1/241 176/1/241 183/1/241 
f 180/1/242 183/1/242 176/1/242 178/1/242 
f 187/1/252 188/1/252 189/1/252 
f 190/1/253 191/1/253 188/1/253 187/1/253 
f 189/1/254 188/1/254 192/1/254 
f 193/1/255 194/1/255 191/1/255 190/1/255 
f 192/1/256 188/1/256 191/1/256 195/1/256 
f 196/1/257 194/1/257 193/1/257 
f 194/1/258 197/1/258 191/1/258 
f 195/1/259 191/1/259 198/1/259 
f 199/1/260 200/1/260 194/1/260 196/1/260 
f 194/1/261 200/1/261 197/1/261 
f 198/1/262 191/1/262 197/1/262 201/1/262 
f 202/1/263 200/1/263 199/1/263 
f 201/1/264 197/1/264 200/1/264 203/1/264 
f 204/1/265 200/1/265 202/1/265 
f 203/1/266 200/1/266 204/1/266 
f 199/1/242 196/1/242 193/1/242 204/1/242 
f 190/1/241 187/1/241 189/1/241 193/1/241 
f 189/1/241 192/1/241 195/1/241 201/1/241 
f 195/1/242 198/1/242 201/1/242 
f 193/1/242 189/1/242 201/1/242 204/1/242 
f 201/1/242 203/1/242 204/1/242 
f 199/1/241 204/1/241 202/1/241 
s 1
f 205/1/267 206/1/268 207/1/269 
s off
f 208/1/270 209/1/270 206/1/270 205/1/270 
s 1
f 207/1/269 206/1/268 210/1/271 
s off
f 211/1/272 212/1/272 209/1/272 208/1/272 
f 210/1/273 206/1/273 213/1/273 
f 214/1/274 212/1/274 211/1/274 
f 209/1/275 212/1/275 215/1/275 
f 216/1/276 206/1/276 209/1/276 215/1/276 
f 213/1/277 206/1/277 217/1/277 
f 216/1/278 215/1/278 218/1/278 
f 217/1/279 206/1/279 216/1/279 219/1/279 
f 220/1/280 221/1/280 222/1/280 
f 223/1/281 212/1/281 214/1/281 222/1/281 
f 223/1/282 222/1/282 221/1/282 
f 224/1/283 215/1/283 212/1/283 225/1/283 
f 212/1/284 223/1/284 225/1/284 
f 219/1/285 216/1/285 218/1/285 226/1/285 
f 215/1/286 224/1/286 218/1/286 
f 223/1/287 221/1/287 220/1/287 227/1/287 
f 223/1/288 227/1/288 228/1/288 
f 225/1/289 229/1/289 224/1/289 
f 225/1/290 223/1/290 230/1/290 
f 226/1/291 218/1/291 231/1/291 
f 224/1/292 232/1/292 218/1/292 
f 233/1/293 228/1/293 227/1/293 
f 223/1/294 228/1/294 234/1/294 230/1/294 
f 229/1/295 225/1/295 235/1/295 
f 224/1/296 229/1/296 232/1/296 
f 236/1/297 225/1/297 230/1/297 
f 231/1/298 218/1/298 237/1/298 
f 237/1/299 218/1/299 232/1/299 238/1/299 
s 1
f 239/1/300 228/1/300 233/1/300 
s off
f 229/1/301 235/1/301 240/1/301 
f 235/1/302 225/1/302 236/1/302 
f 229/1/303 241/1/303 232/1/303 
f 242/1/304 236/1/304 230/1/304 243/1/304 
f 238/1/305 232/1/305 244/1/305 
s 1
f 245/1/300 234/1/300 228/1/300 239/1/300 
s off
f 243/1/306 230/1/306 234/1/306 246/1/306 
f 241/1/307 229/1/307 240/1/307 
f 240/1/308 235/1/308 247/1/308 
f 247/1/309 235/1/309 236/1/309 
f 232/1/310 241/1/310 248/1/310 
f 249/1/311 250/1/311 236/1/311 242/1/311 
f 244/1/312 232/1/312 248/1/312 251/1/312 
f 252/1/313 234/1/313 245/1/313 
f 246/1/314 234/1/314 252/1/314 
f 241/1/315 240/1/315 253/1/315 
f 253/1/316 240/1/316 247/1/316 
f 236/1/317 254/1/317 247/1/317 
f 248/1/318 241/1/318 255/1/318 
f 256/1/319 257/1/319 250/1/319 249/1/319 
f 236/1/320 250/1/320 254/1/320 
f 251/1/321 248/1/321 258/1/321 259/1/321 
f 255/1/322 241/1/322 253/1/322 
f 247/1/323 260/1/323 253/1/323 
f 247/1/324 254/1/324 260/1/324 
f 248/1/325 255/1/325 258/1/325 
f 261/1/326 257/1/326 256/1/326 
f 262/1/327 250/1/327 257/1/327 
f 250/1/328 263/1/328 254/1/328 
f 259/1/329 258/1/329 264/1/329 
f 255/1/330 253/1/330 265/1/330 
f 253/1/331 260/1/331 266/1/331 
f 260/1/332 254/1/332 263/1/332 
f 255/1/333 267/1/333 258/1/333 
f 268/1/334 269/1/334 257/1/334 261/1/334 
f 262/1/335 257/1/335 269/1/335 
f 250/1/336 262/1/336 270/1/336 
f 263/1/337 250/1/337 270/1/337 
f 264/1/338 258/1/338 271/1/338 
f 267/1/339 255/1/339 265/1/339 
f 265/1/340 253/1/340 272/1/340 
f 272/1/341 253/1/341 266/1/341 
f 266/1/342 260/1/342 263/1/342 
f 258/38/343 267/39/343 273/40/343 274/41/343 
f 275/1/344 269/1/344 268/1/344 
f 269/1/345 276/1/345 262/1/345 
f 270/1/346 262/1/346 277/1/346 
f 263/1/347 270/1/347 278/1/347 
s 1
f 271/1/348 258/1/349 279/1/350 280/1/351 
s off
f 267/39/352 265/42/352 281/43/352 273/40/352 
f 265/42/353 272/44/353 282/45/353 281/43/353 
f 272/44/354 266/46/354 283/47/354 282/45/354 
f 266/1/355 263/1/355 278/1/355 
s 1
f 279/48/350 258/38/349 274/41/356 284/49/357 
s off
f 273/40/358 285/50/358 286/51/358 274/41/358 
f 287/1/359 288/1/359 269/1/359 275/1/359 
f 276/1/360 269/1/360 288/1/360 
f 262/1/361 276/1/361 277/1/361 
f 270/1/362 277/1/362 289/1/362 
f 278/1/363 270/1/363 289/1/363 
s 1
f 280/1/351 279/1/350 290/1/364 291/1/365 
s off
f 273/40/366 281/43/366 292/52/366 
f 281/43/367 282/45/367 292/52/367 
f 266/46/368 293/53/368 294/54/368 283/47/368 
f 292/52/369 282/45/369 283/47/369 
f 266/1/370 278/1/370 293/1/370 
s 1
f 290/50/364 279/48/350 284/49/357 295/55/371 
f 284/49/357 274/41/356 296/56/372 
s off
f 285/50/373 273/40/373 292/52/373 
f 297/1/374 288/1/374 287/1/374 
f 277/1/375 276/1/375 288/1/375 
f 289/1/376 277/1/376 298/1/376 
f 278/1/377 289/1/377 299/1/377 
f 291/1/378 290/1/378 300/1/378 
s 1
f 293/53/379 301/57/380 302/58/381 294/54/379 
s off
f 283/47/382 294/54/382 303/59/382 
f 292/52/383 283/47/383 303/59/383 
f 293/1/384 278/1/384 299/1/384 
f 304/60/385 290/50/385 295/55/385 305/61/385 
s 1
f 295/55/371 284/49/357 296/56/372 
s off
f 296/56/386 274/41/386 286/51/386 
f 292/52/387 306/62/387 286/51/387 285/50/387 
f 307/1/388 308/1/388 288/1/388 297/1/388 
f 288/1/389 308/1/389 298/1/389 277/1/389 
f 299/1/390 289/1/390 298/1/390 
f 300/1/391 290/1/391 309/1/391 310/1/391 
f 293/1/392 299/1/392 301/1/392 
s 1
f 301/57/380 311/63/393 312/64/393 302/58/381 
s off
f 302/58/394 312/64/394 313/65/394 294/54/394 
f 303/59/395 294/54/395 313/65/395 
f 292/52/396 303/59/396 306/62/396 
s 2
f 314/66/397 304/60/398 305/61/398 315/67/399 
s off
f 309/1/400 290/1/400 304/1/400 
f 306/62/401 305/61/401 295/55/401 
f 296/56/402 306/62/402 295/55/402 
f 296/56/403 286/51/403 306/62/403 
f 316/1/404 308/1/404 307/1/404 
f 299/1/405 298/1/405 317/1/405 
s 1
f 318/1/406 298/1/407 308/1/408 319/1/408 
s off
f 310/1/409 309/1/409 320/1/409 
f 299/1/410 317/1/410 301/1/410 
f 311/1/411 301/1/411 321/1/411 
s 2
f 311/63/412 314/66/397 315/67/399 312/64/412 
s off
f 322/68/413 303/59/413 313/65/413 
f 303/59/414 322/68/414 306/62/414 
f 304/1/415 314/1/415 323/1/415 
f 305/61/416 312/64/416 315/67/416 
f 309/1/417 304/1/417 323/1/417 
f 306/62/418 322/68/418 305/61/418 
f 319/1/419 308/1/419 316/1/419 
s 1
f 324/1/420 317/1/420 298/1/407 318/1/406 
s off
f 320/1/421 309/1/421 325/1/421 
f 301/1/422 317/1/422 321/1/422 
f 311/1/423 321/1/423 326/1/423 
f 314/1/424 311/1/424 327/1/424 
f 322/68/425 313/65/425 312/64/425 
f 323/1/426 314/1/426 327/1/426 
f 322/68/427 312/64/427 305/61/427 
f 328/1/428 309/1/428 323/1/428 329/1/428 
f 330/1/429 321/1/429 317/1/429 324/1/429 
f 325/1/430 309/1/430 328/1/430 
f 311/1/431 326/1/431 327/1/431 
f 326/1/432 321/1/432 331/1/432 
f 323/1/433 327/1/433 332/1/433 
f 329/1/434 323/1/434 332/1/434 333/1/434 
f 334/1/435 321/1/435 330/1/435 
f 326/1/436 331/1/436 327/1/436 
f 335/1/437 331/1/437 321/1/437 334/1/437 
f 327/1/438 331/1/438 332/1/438 
f 333/1/439 332/1/439 336/1/439 337/1/439 
f 338/1/440 339/1/440 331/1/440 335/1/440 
f 332/1/441 331/1/441 336/1/441 
f 337/1/442 336/1/442 340/1/442 
f 341/1/443 339/1/443 338/1/443 
f 331/1/444 339/1/444 336/1/444 
f 340/1/445 336/1/445 342/1/445 343/1/445 
f 344/1/446 345/1/446 339/1/446 341/1/446 
f 339/1/447 342/1/447 336/1/447 
f 343/1/448 342/1/448 346/1/448 
f 347/1/449 345/1/449 344/1/449 
f 342/1/450 339/1/450 345/1/450 
f 346/1/451 342/1/451 345/1/451 348/1/451 
f 348/1/452 345/1/452 347/1/452 
f 207/1/242 210/1/242 213/1/242 217/1/242 
f 217/1/242 219/1/242 226/1/242 231/1/242 
f 237/1/242 238/1/242 244/1/242 231/1/242 
f 217/1/241 231/1/241 244/1/241 251/1/241 
f 251/1/241 259/1/241 264/1/241 271/1/241 
f 251/1/241 271/1/241 280/1/241 328/1/241 
f 291/1/241 300/1/241 310/1/241 280/1/241 
f 310/1/242 320/1/242 325/1/242 328/1/242 
f 280/1/241 310/1/241 328/1/241 
f 328/1/241 329/1/241 333/1/241 340/1/241 
f 333/1/242 337/1/242 340/1/242 
f 340/1/242 343/1/242 346/1/242 348/1/242 
f 328/1/242 340/1/242 348/1/242 338/1/242 
f 348/1/241 347/1/241 344/1/241 341/1/241 
f 348/1/241 341/1/241 338/1/241 
f 251/1/242 328/1/242 338/1/242 214/1/242 
f 338/1/242 335/1/242 334/1/242 330/1/242 
f 330/1/241 324/1/241 318/1/241 338/1/241 
f 319/1/241 316/1/241 307/1/241 318/1/241 
f 307/1/241 297/1/241 287/1/241 268/1/241 
f 287/1/241 275/1/241 268/1/241 
f 318/1/241 307/1/241 268/1/241 338/1/241 
f 268/1/241 261/1/241 256/1/241 249/1/241 
f 338/1/242 268/1/242 249/1/242 214/1/242 
f 249/1/241 242/1/241 243/1/241 222/1/241 
f 243/1/241 246/1/241 252/1/241 239/1/241 
f 252/1/241 245/1/241 239/1/241 
f 239/1/242 233/1/242 227/1/242 222/1/242 
f 227/1/242 220/1/242 222/1/242 
f 243/1/241 239/1/241 222/1/241 
f 249/1/242 222/1/242 214/1/242 
f 217/1/242 251/1/242 214/1/242 211/1/242 
f 207/1/241 217/1/241 211/1/241 208/1/241 
f 205/1/241 207/1/241 208/1/241 
f 349/1/453 350/1/453 351/1/453 
f 352/1/454 350/1/454 349/1/454 
f 351/1/455 350/1/455 353/1/455 
f 354/1/456 350/1/456 352/1/456 
f 353/1/457 350/1/457 355/1/457 
f 356/1/458 357/1/458 350/1/458 354/1/458 
f 355/1/459 350/1/459 357/1/459 358/1/459 
s 1
f 359/1/460 357/1/461 356/1/462 
s off
f 358/1/463 357/1/463 360/1/463 361/1/463 
s 1
f 362/1/464 363/1/464 357/1/461 359/1/460 
s off
f 363/1/465 360/1/465 357/1/465 
f 361/1/466 360/1/466 364/1/466 365/1/466 
f 366/1/467 367/1/467 363/1/467 362/1/467 
f 363/1/468 367/1/468 360/1/468 
f 364/1/469 360/1/469 367/1/469 368/1/469 
f 365/1/470 364/1/470 369/1/470 
f 370/1/471 371/1/471 367/1/471 366/1/471 
f 368/1/472 372/1/472 364/1/472 
f 369/1/473 364/1/473 373/1/473 
f 374/1/474 371/1/474 370/1/474 
f 367/1/475 371/1/475 375/1/475 
f 368/1/476 367/1/476 375/1/476 376/1/476 
f 372/1/477 368/1/477 376/1/477 377/1/477 
f 378/1/478 364/1/478 372/1/478 379/1/478 
f 373/1/479 364/1/479 378/1/479 
f 380/1/480 381/1/480 371/1/480 374/1/480 
f 371/1/481 382/1/481 375/1/481 
f 379/1/482 372/1/482 377/1/482 383/1/482 
s 1
f 384/1/483 381/1/484 380/1/485 
s off
f 371/1/486 381/1/486 382/1/486 
f 375/1/487 382/1/487 376/1/487 
f 376/1/488 385/1/488 377/1/488 
f 383/1/489 377/1/489 386/1/489 387/1/489 
s 1
f 388/1/490 389/1/490 381/1/484 384/1/483 
s off
f 381/1/491 390/1/491 382/1/491 
f 382/1/492 385/1/492 376/1/492 
f 377/1/493 385/1/493 391/1/493 
f 391/1/494 386/1/494 377/1/494 
f 387/1/495 386/1/495 392/1/495 
f 393/1/496 389/1/496 388/1/496 
f 381/69/497 389/70/497 394/71/497 395/72/497 
f 390/73/498 381/69/498 395/72/498 396/74/498 
f 382/1/499 390/1/499 385/1/499 
f 397/1/500 391/1/500 385/1/500 
f 391/1/501 398/1/501 399/1/501 400/1/501 
f 391/1/502 400/1/502 386/1/502 
f 392/1/503 386/1/503 400/1/503 
f 401/1/504 389/1/504 393/1/504 
f 389/70/505 402/75/505 403/76/505 394/71/505 
f 394/71/506 404/77/506 395/72/506 
f 405/78/507 390/73/507 396/74/507 406/79/507 
f 395/72/508 404/77/508 396/74/508 
f 390/1/509 405/1/509 385/1/509 
f 405/1/510 397/1/510 385/1/510 
f 397/1/511 398/1/511 391/1/511 
f 407/1/512 402/1/512 389/1/512 401/1/512 
f 402/75/513 405/78/513 406/79/513 403/76/513 
f 404/77/514 394/71/514 403/76/514 
f 404/77/515 406/79/515 396/74/515 
f 405/1/516 402/1/516 397/1/516 
f 408/1/517 398/1/517 397/1/517 409/1/517 
f 399/1/518 398/1/518 410/1/518 411/1/518 
f 412/1/519 402/1/519 407/1/519 
f 404/77/520 403/76/520 406/79/520 
f 409/1/521 397/1/521 402/1/521 412/1/521 
f 413/1/522 398/1/522 408/1/522 
f 414/1/523 410/1/523 398/1/523 413/1/523 
f 411/1/524 410/1/524 415/1/524 416/1/524 
f 417/1/525 410/1/525 414/1/525 
f 418/1/526 415/1/526 410/1/526 419/1/526 
f 416/1/527 415/1/527 420/1/527 
f 419/1/528 410/1/528 417/1/528 
f 421/1/529 415/1/529 418/1/529 
f 420/1/530 415/1/530 421/1/530 
f 414/1/241 413/1/241 408/1/241 419/1/241 
f 408/1/243 409/1/243 412/1/243 407/1/243 
f 407/1/242 401/1/242 393/1/242 384/1/242 
f 393/1/242 388/1/242 384/1/242 
f 407/1/242 384/1/242 380/1/242 354/1/242 
f 374/1/242 370/1/242 366/1/242 380/1/242 
f 366/1/241 362/1/241 359/1/241 354/1/241 
f 359/1/242 356/1/242 354/1/242 
f 380/1/241 366/1/241 354/1/241 
f 354/1/242 352/1/242 349/1/242 353/1/242 
f 349/1/242 351/1/242 353/1/242 
f 354/1/241 353/1/241 355/1/241 378/1/241 
f 358/1/242 361/1/242 365/1/242 355/1/242 
f 365/1/242 369/1/242 373/1/242 378/1/242 
f 355/1/242 365/1/242 378/1/242 
f 407/1/241 354/1/241 378/1/241 399/1/241 
f 378/1/242 379/1/242 383/1/242 392/1/242 
f 383/1/242 387/1/242 392/1/242 
f 378/1/242 392/1/242 400/1/242 399/1/242 
f 416/1/241 420/1/241 421/1/241 411/1/241 
f 421/1/242 418/1/242 419/1/242 411/1/242 
f 399/1/242 411/1/242 419/1/242 407/1/242 
f 408/1/241 407/1/241 419/1/241 
f 414/1/241 419/1/241 417/1/241 
# 212 polygons - 398 triangles

