# 3ds Max Wavefront OBJ Exporter v0.97b - (c)2007 guruware
# File Created: 15.03.2017 10:17:55

mtllib SPW_Natures_Mount_Green_01.mtl

#
# object SPW_Natures_Mount_Green_01
#

v  -682.3530 -0.0133 834.4705
v  -707.4695 40.8384 760.2769
v  -767.9917 -0.0132 769.8991
v  -596.8727 -0.0132 895.6514
v  -520.8741 161.0349 728.4226
v  -819.7635 135.2636 565.8231
v  -888.9279 -0.0132 687.3145
v  -502.0661 -0.0133 881.1132
v  -325.7289 105.1254 752.5074
v  -658.5469 475.3628 429.3497
v  -1147.9528 38.0176 340.8122
v  -1102.2964 -0.0132 447.9881
v  -380.9955 -0.0132 917.8253
v  -481.2392 589.3047 485.5085
v  -906.1998 346.9524 250.5481
v  -1181.5280 -0.0132 378.7788
v  -184.8091 -0.0133 803.4224
v  -156.5229 9.0019 775.5159
v  -321.9032 530.6189 478.3413
v  -607.0518 797.1979 229.0628
v  -731.4558 664.1355 145.5322
v  -991.1412 240.1338 12.2522
v  -1201.0756 -0.0132 310.6147
v  -156.5336 -0.0133 792.6397
v  -145.3207 151.1889 587.1127
v  -428.6357 847.8474 307.4265
v  -1131.4332 193.2173 -100.8753
v  -1221.6925 -0.0132 212.0596
v  -24.5211 -0.0133 832.0164
v  -3.5112 38.7115 764.7139
v  -93.6828 468.8462 259.3351
v  -313.4446 844.6039 259.2698
v  -496.1472 884.9269 172.9789
v  -786.1707 475.9147 -65.2275
v  -1257.1469 -0.0132 91.4984
v  -921.0406 245.9289 -166.4589
v  21.9371 -0.0132 831.9660
v  66.8512 160.0420 546.5119
v  -616.6850 688.1603 42.2191
v  -1307.9688 31.9444 -191.1474
v  -1290.2813 -0.0132 -24.5568
v  -1204.5510 35.9755 -377.1635
v  105.8814 -0.0132 827.7767
v  39.7313 627.0720 215.2946
v  -192.5613 876.1843 175.5568
v  -413.7861 820.4448 24.7082
v  -517.3857 711.3192 -237.5772
v  -775.8931 289.9670 -285.1777
v  -1341.3918 -0.0132 -168.0061
v  -907.9363 261.3748 -332.4497
v  250.2206 -0.0133 859.5148
v  178.0203 372.1678 350.5833
v  -44.4116 690.6396 125.7849
v  -297.0338 998.2159 -92.4504
v  -496.5073 738.6829 -88.3149
v  -546.4913 444.4982 -487.8963
v  -1342.5406 -0.0131 -208.1261
v  -1255.9236 -0.0131 -372.6544
v  -1089.3754 56.6601 -518.3343
v  313.1351 -0.0133 894.3665
v  297.0786 172.6335 657.4147
v  269.7944 490.7411 155.4149
v  199.4855 771.5725 31.4279
v  -230.4426 967.1147 17.0933
v  -278.6863 933.8922 -247.2825
v  -741.2486 249.9992 -471.7474
v  -1238.0028 -0.0131 -467.2791
v  -956.4667 -0.0131 -725.4751
v  -937.8995 -0.0131 -741.2587
v  -1202.7338 -0.0131 -538.2085
v  375.5460 -0.0132 915.4522
v  444.3408 72.3083 841.7081
v  341.4261 390.8855 426.0469
v  287.8928 415.6544 291.2824
v  62.8978 685.7840 -180.2565
v  -28.4932 694.2231 -94.7887
v  -179.4418 1014.2589 -152.0251
v  -255.0106 507.5641 -495.2803
v  -344.3821 243.5210 -631.7805
v  -748.7896 -0.0130 -726.7725
v  -739.8211 -0.0130 -733.6289
v  -978.1561 -0.0131 -736.0637
v  -1069.9957 17.5855 -696.4282
v  -1139.1614 -0.0131 -645.3549
v  550.2499 -0.0133 871.3715
v  452.4791 201.0953 631.2809
v  469.8301 407.3692 130.0707
v  407.1136 513.7413 31.9746
v  -126.3069 800.9309 -308.7296
v  -564.8907 48.7567 -787.9688
v  -733.4811 -0.0130 -740.7463
v  -1073.9772 -0.0130 -716.5416
v  -1098.8652 -0.0130 -696.4369
v  732.6386 -0.0132 754.6932
v  728.2080 219.6382 461.6611
v  574.9017 132.7428 634.3125
v  544.7929 334.0687 382.7435
v  546.2666 356.0348 261.3437
v  408.4773 544.2939 -164.8955
v  154.4082 771.7303 -97.7213
v  -44.1813 720.8385 -218.3797
v  -52.5793 284.6989 -626.2119
v  -352.4715 -0.0130 -775.2216
v  -320.6188 -0.0130 -782.7383
v  -698.8828 -0.0130 -758.2620
v  -539.0716 -0.0131 -811.3774
v  -1086.9834 -0.0130 -712.5485
v  896.1777 -0.0132 618.8456
v  507.2205 566.6815 -75.0962
v  277.6569 704.3192 -179.0838
v  142.5290 634.3557 -286.1192
v  -37.6219 637.6641 -339.9456
v  -77.9302 52.3917 -751.6262
v  -181.7536 -0.0131 -830.8019
v  -628.2687 -0.0130 -820.9065
v  -567.6906 -0.0131 -816.8076
v  994.9754 -0.0132 538.7725
v  691.3509 293.7505 288.4838
v  506.0484 498.8615 -385.0023
v  414.0277 537.6526 -333.0786
v  312.6604 629.3888 -351.3676
v  143.6668 523.3345 -490.2110
v  -69.9987 -0.0131 -790.7682
v  -37.4953 -0.0131 -816.6057
v  -85.4869 -0.0131 -792.3123
v  1037.4442 -0.0132 447.8845
v  1027.8130 55.4155 304.9683
v  755.0988 398.1082 51.6548
v  623.5975 446.5345 -173.2299
v  221.6954 -0.0131 -821.6240
v  243.2941 -0.0131 -823.0323
v  1172.6427 -0.0132 279.3251
v  931.7754 192.5621 176.8290
v  786.5074 292.4379 -315.8156
v  482.5585 257.9422 -620.5842
v  271.4781 -0.0131 -819.2790
v  1192.7426 -0.0132 260.8621
v  1110.8579 197.9830 -47.5349
v  936.0992 212.7317 9.5825
v  840.2920 321.6576 -97.0700
v  693.3949 330.7969 -437.4027
v  439.4467 -0.0130 -797.3859
v  1309.7734 -0.0132 24.9198
v  895.1913 191.4899 -441.9265
v  600.2277 228.4968 -666.0415
v  755.9139 99.1541 -675.3090
v  642.0114 39.7152 -855.9123
v  594.3750 -0.0131 -865.1977
v  1306.8070 -0.0132 -143.9325
v  618.3701 -0.0130 -872.9564
v  1261.2483 -0.0131 -313.4495
v  1123.4685 -0.0131 -449.7031
v  1144.1051 -0.0131 -413.2963
v  920.9399 -0.0131 -638.7254
v  963.3110 -0.0131 -600.0410
v  639.3918 -0.0130 -887.9341
v  819.4766 -0.0130 -732.0727
v  666.6375 -0.0130 -909.5023
v  720.4257 -0.0130 -873.6693
# 159 vertices

vn -0.4090 0.7338 0.5425
vn -0.3878 0.7457 0.5418
vn -0.3928 0.7175 0.5753
vn 0.1096 0.6906 0.7149
vn -0.2600 0.6034 0.7539
vn -0.6003 0.5262 0.6022
vn -0.5333 0.6997 0.4755
vn -0.1499 0.8562 0.4944
vn 0.0331 0.4908 0.8707
vn -0.5218 0.4569 0.7204
vn -0.6599 0.5275 0.5351
vn -0.5642 0.6055 0.5613
vn -0.3948 0.7999 0.4520
vn 0.3400 0.7380 0.5830
vn 0.2304 0.5256 0.8189
vn -0.5384 0.5057 0.6741
vn -0.6588 0.5373 0.5266
vn -0.7870 0.6170 0.0039
vn -0.6390 0.7471 0.1832
vn 0.1749 0.8712 0.4588
vn 0.3418 0.7402 0.5790
vn 0.5365 0.4537 0.7116
vn 0.2286 0.5202 0.8228
vn -0.7710 0.4208 0.4780
vn -0.4610 0.5651 0.6842
vn -0.8612 0.5016 0.0821
vn -0.4950 0.8254 0.2715
vn -0.6252 0.7694 0.1308
vn -0.1376 0.8765 0.4614
vn -0.1127 0.7963 0.5943
vn 0.6727 0.4756 0.5669
vn 0.3393 0.5321 0.7757
vn -0.6632 0.7283 -0.1723
vn -0.4163 0.8011 0.4300
vn -0.7660 0.5653 -0.3060
vn -0.7113 0.6710 0.2092
vn -0.2635 0.9620 -0.0722
vn 0.0005 0.8667 0.4988
vn 0.0596 0.8641 0.4997
vn 0.1046 0.7059 0.7006
vn 0.6882 0.4026 0.6036
vn 0.1151 0.9709 0.2100
vn -0.5705 0.6675 -0.4785
vn -0.5619 0.6841 -0.4651
vn -0.7680 0.5748 -0.2826
vn -0.7151 0.6685 0.2042
vn -0.3375 0.8537 -0.3966
vn 0.0245 0.8703 0.4919
vn -0.3674 0.5237 0.7686
vn 0.4930 0.2885 0.8208
vn 0.3114 0.9225 -0.2282
vn -0.4855 0.6703 -0.5612
vn -0.7146 0.6709 -0.1981
vn -0.6107 0.5904 -0.5277
vn -0.5585 0.7758 -0.2937
vn -0.5948 0.7755 0.2119
vn -0.6073 0.7940 0.0259
vn -0.1106 0.8571 0.5031
vn 0.2851 0.5654 0.7739
vn -0.3900 0.5370 0.7480
vn 0.6191 0.2996 0.7259
vn 0.0390 0.9150 0.4015
vn -0.7281 0.6400 0.2455
vn -0.5477 0.8151 -0.1888
vn -0.4715 0.8767 -0.0948
vn -0.7355 0.5026 -0.4544
vn -0.2355 0.9692 0.0716
vn -0.5652 0.7695 -0.2975
vn -0.6838 0.7294 0.0196
vn -0.5400 0.7755 -0.3270
vn -0.3171 0.7562 0.5724
vn -0.3294 0.7280 0.6012
vn 0.5157 0.6029 0.6088
vn -0.0335 0.7997 0.5994
vn 0.7918 0.5919 0.1504
vn -0.5302 0.6745 0.5138
vn -0.7844 0.6051 0.1364
vn -0.6823 0.7301 -0.0384
vn -0.1265 0.9649 -0.2302
vn -0.5767 0.8096 -0.1092
vn -0.4015 0.7847 -0.4723
vn -0.4091 0.8895 -0.2034
vn -0.1980 0.7858 0.5860
vn -0.3599 0.7121 0.6028
vn -0.0790 0.8680 0.4902
vn 0.4660 0.4524 0.7604
vn -0.2652 0.9581 -0.1082
vn 0.8151 0.5753 0.0682
vn 0.0055 0.9628 0.2700
vn -0.7518 0.5726 -0.3270
vn -0.4368 0.4341 -0.7879
vn 0.1454 0.6684 -0.7294
vn -0.6912 0.6696 -0.2718
vn -0.4676 0.6381 -0.6117
vn 0.0991 0.9742 -0.2030
vn 0.0414 0.8404 -0.5404
vn -0.4007 0.8848 -0.2377
vn 0.1952 0.6030 0.7735
vn -0.0688 0.8521 0.5188
vn -0.0185 0.7291 0.6842
vn -0.2289 0.9372 0.2632
vn 0.3951 0.8253 0.4035
vn 0.5549 0.4483 0.7008
vn 0.8128 0.4496 0.3704
vn -0.3180 0.8616 -0.3956
vn 0.0941 0.5045 -0.8583
vn -0.3565 0.5214 -0.7752
vn 0.0321 0.6029 -0.7971
vn -0.6139 0.5693 -0.5468
vn -0.1300 0.7588 -0.6382
vn -0.4814 0.7899 -0.3798
vn 0.3563 0.7502 0.5570
vn 0.4168 0.7681 0.4862
vn 0.3311 0.7753 0.5378
vn 0.2812 0.9575 0.0643
vn 0.2439 0.9429 0.2267
vn 0.3784 0.7382 0.5585
vn 0.7747 0.6240 0.1022
vn -0.7777 0.5667 0.2721
vn 0.2501 0.9526 0.1734
vn 0.9058 0.4230 -0.0239
vn 0.2297 0.6127 -0.7562
vn 0.0305 0.5268 -0.8495
vn -0.1986 0.5023 -0.8416
vn -0.3705 0.5721 -0.7318
vn 0.1651 0.4965 -0.8522
vn -0.1917 0.7571 -0.6245
vn -0.4859 0.7972 -0.3583
vn 0.4431 0.7205 0.5334
vn -0.6247 0.7619 -0.1713
vn 0.3989 0.7386 0.5434
vn 0.2406 0.9546 0.1756
vn -0.8739 -0.0719 0.4807
vn -0.3399 0.9297 0.1419
vn 0.7680 0.6351 0.0823
vn 0.4027 0.9046 -0.1395
vn -0.2365 0.7921 -0.5627
vn 0.3615 0.9161 -0.1731
vn 0.8192 0.4715 -0.3266
vn 0.6433 0.4656 -0.6077
vn -0.0411 0.4781 -0.8773
vn -0.2832 0.5001 -0.8184
vn -0.0025 0.5512 -0.8344
vn 0.0364 0.5547 -0.8312
vn -0.3917 0.8072 -0.4415
vn 0.1619 0.4954 -0.8535
vn 0.4370 0.7200 0.5392
vn 0.2279 0.7733 0.5916
vn 0.3617 0.9166 0.1702
vn 0.1063 0.8483 0.5188
vn -0.0272 0.9765 -0.2136
vn 0.7378 0.6711 -0.0729
vn 0.0507 0.8054 -0.5905
vn 0.1790 0.8165 -0.5490
vn -0.2320 0.6186 -0.7506
vn -0.5587 0.4404 -0.7028
vn -0.1566 0.5515 -0.8193
vn -0.1347 0.5459 -0.8270
vn -0.2547 0.5282 -0.8100
vn 0.3088 0.5551 -0.7723
vn 0.0582 0.5057 -0.8608
vn 0.5663 0.7806 0.2646
vn 0.4182 0.8639 0.2807
vn 0.2802 0.8484 0.4492
vn 0.3140 0.8207 0.4774
vn 0.6364 0.7530 -0.1672
vn 0.3767 0.9260 -0.0241
vn -0.1341 0.8985 -0.4180
vn 0.1567 0.8679 -0.4713
vn -0.0552 0.5283 -0.8473
vn 0.0790 0.6042 -0.7929
vn -0.0161 0.5552 -0.8315
vn 0.3872 0.8681 0.3106
vn 0.5839 0.7336 0.3476
vn 0.4744 0.8413 0.2591
vn 0.5170 0.7232 0.4579
vn 0.6184 0.7606 -0.1978
vn 0.6095 0.7793 -0.1458
vn 0.5513 0.6998 0.4543
vn -0.1560 0.8673 -0.4727
vn 0.1104 0.5482 -0.8290
vn 0.3882 0.8189 0.4227
vn 0.5074 0.7507 0.4231
vn 0.7232 0.6832 0.1011
vn 0.5287 0.8390 -0.1285
vn 0.5469 0.8016 -0.2415
vn 0.6131 0.7555 -0.2311
vn 0.2622 0.5860 -0.7667
vn 0.2494 0.6645 -0.7044
vn 0.1080 0.5497 -0.8284
vn 0.6139 0.7282 0.3045
vn 0.1230 0.9849 0.1220
vn 0.7208 0.6907 0.0579
vn 0.5014 0.8328 -0.2345
vn 0.4884 0.7049 -0.5144
vn 0.7253 0.5787 -0.3729
vn -0.0977 0.7007 -0.7068
vn -0.3293 0.5706 -0.7523
vn 0.7077 0.7064 -0.0124
vn 0.2525 0.7812 0.5710
vn 0.4402 0.8610 -0.2549
vn 0.2352 0.8476 -0.4757
vn 0.5287 0.6734 -0.5167
vn -0.1016 0.6942 -0.7126
vn -0.2648 0.5090 -0.8190
vn 0.6554 0.7344 -0.1762
vn 0.5979 0.7264 -0.3389
vn 0.5138 0.6475 -0.5628
vn 0.5170 0.6612 -0.5436
vn -0.4766 0.5705 -0.6689
vn -0.4950 0.5648 -0.6602
vn -0.5000 0.5632 -0.6579
vn 0.3574 0.8346 -0.4193
vn 0.5226 0.6456 -0.5568
vn 0.5146 0.6499 -0.5593
vn 0.3124 0.8262 -0.4689
vn -0.5149 0.5583 -0.6505
vn 0.6233 0.6491 -0.4360
vn -0.0000 -1.0000 -0.0000
vn 0.0000 -1.0000 -0.0000
vn -0.0000 -1.0000 0.0000
vn 0.0000 -1.0000 0.0000
# 222 vertex normals

vt 0.6916 0.0638 0.0000
vt 0.7416 0.0638 0.0000
vt 0.7416 0.1138 0.0000
vt 0.6916 0.1138 0.0000
vt 0.7188 0.1137 0.0000
vt 0.7211 0.1134 0.0000
vt 0.7233 0.1129 0.0000
vt 0.7143 0.1137 0.0000
vt 0.7276 0.1112 0.0000
vt 0.7295 0.1101 0.0000
vt 0.7314 0.1089 0.0000
vt 0.7255 0.1121 0.0000
vt 0.7332 0.1074 0.0000
vt 0.7348 0.1058 0.0000
vt 0.7376 0.1023 0.0000
vt 0.7363 0.1041 0.0000
vt 0.7397 0.0982 0.0000
vt 0.7405 0.0961 0.0000
vt 0.7410 0.0939 0.0000
vt 0.7414 0.0916 0.0000
vt 0.7416 0.0894 0.0000
vt 0.7415 0.0871 0.0000
vt 0.7412 0.0848 0.0000
vt 0.7408 0.0826 0.0000
vt 0.7401 0.0804 0.0000
vt 0.7393 0.0783 0.0000
vt 0.7323 0.0694 0.0000
vt 0.7382 0.0763 0.0000
vt 0.7370 0.0744 0.0000
vt 0.7340 0.0709 0.0000
vt 0.7356 0.0726 0.0000
vt 0.7388 0.1003 0.0000
vt 0.7305 0.0680 0.0000
vt 0.7286 0.0669 0.0000
vt 0.7244 0.0650 0.0000
vt 0.7265 0.0659 0.0000
vt 0.7222 0.0644 0.0000
vt 0.7046 0.0669 0.0000
vt 0.7200 0.0640 0.0000
vt 0.7177 0.0638 0.0000
vt 0.7132 0.0640 0.0000
vt 0.7154 0.0638 0.0000
vt 0.7109 0.0644 0.0000
vt 0.7087 0.0650 0.0000
vt 0.7066 0.0659 0.0000
vt 0.7026 0.0680 0.0000
vt 0.7008 0.0694 0.0000
vt 0.6991 0.0709 0.0000
vt 0.6975 0.0726 0.0000
vt 0.6961 0.0744 0.0000
vt 0.6949 0.0763 0.0000
vt 0.6939 0.0783 0.0000
vt 0.6923 0.0826 0.0000
vt 0.6930 0.0804 0.0000
vt 0.6917 0.0916 0.0000
vt 0.6919 0.0848 0.0000
vt 0.6916 0.0871 0.0000
vt 0.6916 0.0893 0.0000
vt 0.6921 0.0939 0.0000
vt 0.6926 0.0961 0.0000
vt 0.6944 0.1003 0.0000
vt 0.6934 0.0982 0.0000
vt 0.6955 0.1023 0.0000
vt 0.7056 0.1112 0.0000
vt 0.6968 0.1041 0.0000
vt 0.6983 0.1058 0.0000
vt 0.7036 0.1101 0.0000
vt 0.6999 0.1074 0.0000
vt 0.7017 0.1089 0.0000
vt 0.7120 0.1134 0.0000
vt 0.7077 0.1121 0.0000
vt 0.7098 0.1129 0.0000
vt 0.7166 0.1138 0.0000
# 73 texture coords

g SPW_Natures_Mount_Green_01
usemtl SPW_Natures_02
s off
f 1/1/1 2/2/1 3/3/1 
f 4/1/2 5/2/2 2/3/2 1/4/2 
f 3/1/3 2/2/3 6/3/3 7/4/3 
f 8/1/4 9/2/4 5/3/4 4/4/4 
f 5/1/5 10/2/5 2/3/5 
f 2/1/6 10/2/6 6/3/6 
f 7/1/7 6/2/7 11/3/7 12/4/7 
f 13/1/8 9/2/8 8/3/8 
f 9/1/9 14/2/9 5/3/9 
f 5/1/10 14/2/10 10/3/10 
f 6/1/11 10/2/11 15/3/11 
f 6/1/12 15/2/12 11/3/12 
f 12/1/13 11/2/13 16/3/13 
f 17/1/14 18/2/14 9/3/14 13/4/14 
f 19/1/15 14/2/15 9/3/15 
f 10/1/16 14/2/16 20/3/16 
f 10/1/17 21/2/17 15/3/17 
f 15/1/18 22/2/18 11/3/18 
f 16/1/19 11/2/19 23/3/19 
f 24/1/20 18/2/20 17/3/20 
f 25/1/21 9/2/21 18/3/21 
f 25/1/22 19/2/22 9/3/22 
f 19/1/23 26/2/23 14/3/23 
f 10/1/24 20/2/24 21/3/24 
f 14/1/25 26/2/25 20/3/25 
f 15/1/26 21/2/26 22/3/26 
f 11/1/27 22/2/27 27/3/27 
f 23/1/28 11/2/28 28/3/28 
f 29/1/29 30/2/29 18/3/29 24/4/29 
f 18/1/30 30/2/30 25/3/30 
f 25/1/31 31/2/31 19/3/31 
f 19/1/32 32/2/32 26/3/32 
f 33/1/33 21/2/33 20/3/33 
f 26/1/34 33/2/34 20/3/34 
f 21/1/35 34/2/35 22/3/35 
f 28/1/36 11/2/36 27/3/36 35/4/36 
f 22/1/37 36/2/37 27/3/37 
f 37/1/38 30/2/38 29/3/38 
f 30/1/39 38/2/39 25/3/39 
f 25/1/40 38/2/40 31/3/40 
f 31/1/41 32/2/41 19/3/41 
f 26/1/42 32/2/42 33/3/42 
f 33/1/43 39/2/43 21/3/43 
f 39/1/44 34/2/44 21/3/44 
f 34/1/45 36/2/45 22/3/45 
f 35/1/46 27/2/46 40/3/46 41/4/46 
f 27/1/47 36/2/47 42/3/47 
f 43/1/48 38/2/48 30/3/48 37/4/48 
f 38/1/49 44/2/49 31/3/49 
f 31/1/50 45/2/50 32/3/50 
f 33/1/51 32/2/51 46/3/51 
f 46/1/52 39/2/52 33/3/52 
f 39/1/53 47/2/53 34/3/53 
f 34/1/54 48/2/54 36/3/54 
f 27/1/55 42/2/55 40/3/55 
f 41/1/56 40/2/56 49/3/56 
f 36/1/57 50/2/57 42/3/57 
f 51/1/58 38/2/58 43/3/58 
f 52/1/59 44/2/59 38/3/59 
f 31/1/60 44/2/60 53/3/60 
f 53/1/61 45/2/61 31/3/61 
f 45/1/62 54/2/62 32/3/62 
f 32/1/63 54/2/63 46/3/63 
f 46/1/64 55/2/64 39/3/64 
f 55/1/65 47/2/65 39/3/65 
f 34/1/66 47/2/66 56/3/66 48/4/66 
f 36/1/67 48/2/67 50/3/67 
f 57/1/68 40/2/68 42/3/68 58/4/68 
f 49/1/69 40/2/69 57/3/69 
f 50/1/70 59/2/70 42/3/70 
f 60/1/71 61/2/71 38/3/71 51/4/71 
f 38/1/72 61/2/72 52/3/72 
f 52/1/73 62/2/73 44/3/73 
f 44/1/74 63/2/74 53/3/74 
f 53/1/75 64/2/75 45/3/75 
f 54/1/76 45/2/76 64/3/76 
f 46/1/77 54/2/77 55/3/77 
f 65/1/78 47/2/78 55/3/78 
f 48/1/79 66/2/79 50/3/79 
f 58/1/80 42/2/80 67/3/80 
f 68/1/81 59/2/81 50/3/81 69/4/81 
f 67/1/82 42/2/82 59/3/82 70/4/82 
f 71/1/83 72/2/83 61/3/83 60/4/83 
f 61/1/84 73/2/84 52/3/84 
f 74/1/85 62/2/85 52/3/85 
f 62/1/86 63/2/86 44/3/86 
f 53/1/87 63/2/87 75/3/87 76/4/87 
f 76/1/88 64/2/88 53/3/88 
f 64/1/89 77/2/89 54/3/89 
f 54/1/90 65/2/90 55/3/90 
f 65/1/91 78/2/91 47/3/91 
f 47/1/92 79/2/92 56/3/92 
f 56/1/93 66/2/93 48/3/93 
f 80/1/94 50/2/94 66/3/94 81/4/94 
f 82/1/95 83/2/95 59/3/95 68/4/95 
f 69/1/96 50/2/96 80/3/96 
f 70/1/97 59/2/97 83/3/97 84/4/97 
f 85/1/98 72/2/98 71/3/98 
f 72/1/99 86/2/99 61/3/99 
f 86/1/100 73/2/100 61/3/100 
f 73/1/101 74/2/101 52/3/101 
f 74/1/102 87/2/102 62/3/102 
f 88/1/103 63/2/103 62/3/103 
f 76/1/104 77/2/104 64/3/104 
f 54/1/105 77/2/105 65/3/105 
f 65/1/106 89/2/106 78/3/106 
f 78/1/107 79/2/107 47/3/107 
f 56/1/108 79/2/108 90/3/108 
f 81/1/109 66/2/109 56/3/109 91/4/109 
f 92/1/110 83/2/110 82/3/110 
f 84/1/111 83/2/111 93/3/111 
f 94/1/112 95/2/112 72/3/112 85/4/112 
f 96/1/113 86/2/113 72/3/113 
f 86/1/114 97/2/114 73/3/114 
f 97/1/115 74/2/115 73/3/115 
f 98/1/116 87/2/116 74/3/116 
f 87/1/117 88/2/117 62/3/117 
f 99/1/118 63/2/118 88/3/118 
f 100/1/119 75/2/119 63/3/119 
f 75/1/120 101/2/120 76/3/120 
f 76/1/121 101/2/121 77/3/121 
f 77/1/122 89/2/122 65/3/122 
f 89/1/123 102/2/123 78/3/123 
f 103/1/124 79/2/124 78/3/124 104/4/124 
f 91/1/125 56/2/125 90/3/125 105/4/125 
f 106/1/126 90/2/126 79/3/126 103/4/126 
f 107/1/127 83/2/127 92/3/127 
f 93/1/128 83/2/128 107/3/128 
f 108/1/129 95/2/129 94/3/129 
f 72/1/130 95/2/130 96/3/130 
f 96/1/131 97/2/131 86/3/131 
f 97/1/132 98/2/132 74/3/132 
f 98/1/133 88/2/133 87/3/133 
f 109/1/134 99/2/134 88/3/134 
f 63/1/135 99/2/135 110/3/135 
f 63/1/136 110/2/136 100/3/136 
f 100/1/137 111/2/137 75/3/137 
f 111/1/138 101/2/138 75/3/138 
f 89/1/139 77/2/139 101/3/139 112/4/139 
f 112/1/140 102/2/140 89/3/140 
f 102/1/141 113/2/141 78/3/141 
s 1
f 104/1/142 78/2/143 114/3/144 
s off
f 105/1/145 90/2/145 115/3/145 
f 116/1/146 90/2/146 106/3/146 
f 117/1/147 95/2/147 108/3/147 
f 95/1/148 97/2/148 96/3/148 
f 118/1/149 98/2/149 97/3/149 
f 98/1/150 109/2/150 88/3/150 
f 109/1/151 119/2/151 99/3/151 
f 99/1/152 120/2/152 121/3/152 110/4/152 
f 110/1/153 111/2/153 100/3/153 
f 101/1/154 111/2/154 112/3/154 
f 122/1/155 102/2/155 112/3/155 
s 1
f 123/1/156 113/2/157 102/3/158 124/4/159 
f 114/1/144 78/2/143 113/3/157 125/4/160 
s off
f 115/1/161 90/2/161 116/3/161 
f 126/1/162 127/2/162 95/3/162 117/4/162 
f 95/1/163 118/2/163 97/3/163 
f 128/1/164 98/2/164 118/3/164 
f 128/1/165 109/2/165 98/3/165 
f 109/1/166 129/2/166 119/3/166 
f 119/1/167 120/2/167 99/3/167 
f 110/1/168 121/2/168 111/3/168 
f 111/1/169 122/2/169 112/3/169 
f 130/1/170 102/2/170 122/3/170 131/4/170 
f 125/1/171 113/2/171 123/3/171 
s 1
f 124/1/159 102/2/158 130/3/172 
s off
f 132/1/173 127/2/173 126/3/173 
f 127/1/174 133/2/174 95/3/174 
f 133/1/175 118/2/175 95/3/175 
f 133/1/176 128/2/176 118/3/176 
f 128/1/177 129/2/177 109/3/177 
f 129/1/178 134/2/178 119/3/178 
f 121/1/179 120/2/179 119/3/179 
f 121/1/180 122/2/180 111/3/180 
f 131/1/181 122/2/181 135/3/181 136/4/181 
f 137/1/182 138/2/182 127/3/182 132/4/182 
f 127/1/183 138/2/183 133/3/183 
f 133/1/184 139/2/184 128/3/184 
f 128/1/185 140/2/185 129/3/185 
f 140/1/186 134/2/186 129/3/186 
f 119/1/187 134/2/187 141/3/187 
f 121/1/188 119/2/188 122/3/188 
f 119/1/189 135/2/189 122/3/189 
f 136/1/190 135/2/190 142/3/190 
f 143/1/191 138/2/191 137/3/191 
f 138/1/192 139/2/192 133/3/192 
f 139/1/193 140/2/193 128/3/193 
f 140/1/194 144/2/194 134/3/194 
f 141/1/195 145/2/195 119/3/195 
f 141/1/196 134/2/196 146/3/196 
f 145/1/197 135/2/197 119/3/197 
f 142/1/198 135/2/198 147/3/198 148/4/198 
f 149/1/199 138/2/199 143/3/199 
f 138/1/200 140/2/200 139/3/200 
f 140/1/201 138/2/201 144/3/201 
f 144/1/202 146/2/202 134/3/202 
f 141/1/203 146/2/203 145/3/203 
f 145/1/204 147/2/204 135/3/204 
f 148/1/205 147/2/205 150/3/205 
f 151/1/206 138/2/206 149/3/206 
f 152/1/207 144/2/207 138/3/207 153/4/207 
f 154/1/208 146/2/208 144/3/208 155/4/208 
f 145/1/209 146/2/209 147/3/209 
s 1
f 150/1/210 147/2/211 156/3/212 
s off
f 153/1/213 138/2/213 151/3/213 
f 155/1/214 144/2/214 152/3/214 
f 157/1/215 146/2/215 154/3/215 
f 158/1/216 147/2/216 146/3/216 159/4/216 
s 1
f 156/1/212 147/2/211 158/3/217 
s off
f 159/1/218 146/2/218 157/3/218 
f 149/5/219 143/6/219 137/7/219 153/8/219 
f 126/9/219 117/10/219 108/11/219 132/12/219 
f 108/11/220 94/13/220 85/14/220 60/15/220 
f 85/14/221 71/16/221 60/15/221 
f 132/12/219 108/11/219 60/15/219 137/7/219 
f 43/17/222 37/18/222 29/19/222 24/20/222 
f 17/21/222 13/22/222 8/23/222 24/20/222 
f 8/23/219 4/24/219 1/25/219 3/26/219 
f 24/20/219 8/23/219 3/26/219 28/27/219 
f 3/26/220 7/28/220 12/29/220 23/30/220 
f 12/29/220 16/31/220 23/30/220 
f 3/26/220 23/30/220 28/27/220 
f 43/17/220 24/20/220 28/27/220 51/32/220 
f 28/27/220 35/33/220 41/34/220 57/35/220 
f 41/34/220 49/36/220 57/35/220 
f 28/27/220 57/35/220 58/37/220 68/38/220 
f 58/37/220 67/39/220 70/40/220 93/41/220 
f 70/40/220 84/42/220 93/41/220 
f 93/41/219 107/43/219 92/44/219 68/38/219 
f 92/44/219 82/45/219 68/38/219 
f 58/37/219 93/41/219 68/38/219 
f 68/38/220 69/46/220 80/47/220 28/27/220 
f 81/48/220 91/49/220 105/50/220 80/47/220 
f 105/50/221 115/51/221 116/52/221 103/53/221 
f 116/52/220 106/54/220 103/53/220 
f 80/47/219 105/50/219 103/53/219 123/55/219 
f 104/56/221 114/57/221 125/58/221 103/53/221 
f 103/53/222 125/58/222 123/55/222 
f 123/55/219 124/59/219 130/60/219 136/61/219 
f 130/60/220 131/62/220 136/61/220 
f 123/55/222 136/61/222 142/63/222 80/47/222 
f 28/27/220 80/47/220 142/63/220 51/32/220 
f 60/15/220 51/32/220 142/63/220 157/64/220 
f 142/63/222 148/65/222 150/66/222 159/67/222 
f 156/68/220 158/69/220 159/67/220 150/66/220 
f 142/63/220 159/67/220 157/64/220 
f 137/7/219 60/15/219 157/64/219 152/70/219 
f 154/71/221 155/72/221 152/70/221 157/64/221 
f 137/7/220 152/70/220 153/8/220 
f 151/73/220 149/5/220 153/8/220 
# 63 polygons - 188 triangles

