# 3ds Max Wavefront OBJ Exporter v0.97b - (c)2007 guruware
# File Created: 15.03.2017 10:48:45

mtllib SPB_Court House.mtl

#
# object SPB_Court_House
#

v  104.6032 109.6211 385.7611
v  104.6032 109.6211 353.4290
v  104.6032 114.5756 353.4290
v  104.6032 114.5757 385.7611
v  72.2710 109.6211 353.4290
v  72.2710 114.5756 353.4290
v  72.2710 109.6211 385.7611
v  72.2710 114.5756 385.7611
v  104.6032 313.5332 385.7612
v  104.6032 313.5332 353.4291
v  104.6032 318.4878 353.4290
v  104.6032 318.4878 385.7612
v  72.2710 313.5332 353.4291
v  72.2710 318.4878 353.4290
v  72.2710 313.5332 385.7612
v  72.2710 318.4878 385.7612
v  103.5566 91.8538 384.7145
v  103.5566 91.8538 354.4756
v  103.5565 197.2524 354.4756
v  103.5565 197.2524 384.7145
v  73.3176 91.8538 354.4756
v  73.3176 197.2524 354.4756
v  73.3176 91.8538 384.7145
v  73.3176 197.2524 384.7146
v  72.3051 91.8538 385.7270
v  104.5690 91.8538 385.7270
v  72.3051 84.0617 385.7270
v  104.5690 84.0617 385.7270
v  72.3051 91.8538 353.4632
v  104.5690 91.8538 353.4632
v  68.5900 76.8567 389.4422
v  108.2842 76.8567 389.4422
v  72.3051 84.0617 353.4632
v  104.5690 84.0617 353.4632
v  68.5900 70.6526 389.4422
v  108.2842 70.6526 389.4422
v  68.5900 76.8567 349.7480
v  108.2841 76.8567 349.7480
v  68.5900 70.6527 349.7480
v  108.2841 70.6527 349.7480
v  73.3176 336.5832 384.7146
v  73.3176 336.5832 354.4757
v  73.3176 197.2037 354.4756
v  73.3176 197.2037 384.7146
v  103.5565 336.5832 354.4757
v  103.5565 197.2037 354.4756
v  103.5565 336.5832 384.7146
v  103.5565 197.2037 384.7146
v  104.5690 336.5832 385.7271
v  72.3051 336.5832 385.7271
v  104.5690 344.3753 385.7271
v  72.3051 344.3753 385.7271
v  104.5690 336.5832 353.4632
v  72.3051 336.5832 353.4632
v  108.2841 351.5803 389.4422
v  68.5900 351.5803 389.4422
v  104.5690 344.3753 353.4632
v  72.3051 344.3753 353.4632
v  108.2841 354.2949 389.4422
v  68.5900 354.2949 389.4422
v  108.2841 351.5803 349.7481
v  68.5900 351.5803 349.7481
v  108.2841 354.2949 349.7481
v  68.5900 354.2949 349.7481
v  -72.2710 109.6211 385.7611
v  -72.2710 109.6211 353.4290
v  -72.2710 114.5756 353.4290
v  -72.2710 114.5757 385.7611
v  -104.6031 109.6211 353.4290
v  -104.6032 114.5756 353.4290
v  -104.6031 109.6211 385.7611
v  -104.6032 114.5756 385.7611
v  -72.2710 313.5332 385.7612
v  -72.2710 313.5332 353.4291
v  -72.2710 318.4878 353.4290
v  -72.2710 318.4878 385.7612
v  -104.6031 313.5332 353.4291
v  -104.6032 318.4878 353.4290
v  -104.6031 313.5332 385.7612
v  -104.6032 318.4878 385.7612
v  -73.3176 91.8538 384.7145
v  -73.3176 91.8538 354.4756
v  -73.3176 197.2524 354.4756
v  -73.3176 197.2524 384.7145
v  -103.5566 91.8538 354.4756
v  -103.5566 197.2524 354.4756
v  -103.5566 91.8538 384.7145
v  -103.5566 197.2524 384.7146
v  -104.5690 91.8538 385.7270
v  -72.3051 91.8538 385.7270
v  -104.5690 84.0617 385.7270
v  -72.3051 84.0617 385.7270
v  -104.5690 91.8538 353.4632
v  -72.3051 91.8538 353.4632
v  -108.2841 76.8567 389.4422
v  -68.5900 76.8567 389.4422
v  -104.5690 84.0617 353.4632
v  -72.3051 84.0617 353.4632
v  -108.2841 70.6526 389.4422
v  -68.5900 70.6526 389.4422
v  -108.2841 76.8567 349.7480
v  -68.5900 76.8567 349.7480
v  -108.2841 70.6527 349.7480
v  -68.5900 70.6527 349.7480
v  -103.5566 336.5832 384.7146
v  -103.5566 336.5832 354.4757
v  -103.5566 197.2037 354.4756
v  -103.5566 197.2037 384.7146
v  -73.3176 336.5832 354.4757
v  -73.3176 197.2037 354.4756
v  -73.3176 336.5832 384.7146
v  -73.3176 197.2037 384.7146
v  -72.3052 336.5832 385.7271
v  -104.5691 336.5832 385.7271
v  -72.3052 344.3753 385.7271
v  -104.5691 344.3753 385.7271
v  -72.3052 336.5832 353.4632
v  -104.5691 336.5832 353.4632
v  -68.5901 351.5803 389.4422
v  -108.2842 351.5803 389.4422
v  -72.3052 344.3753 353.4632
v  -104.5691 344.3753 353.4632
v  -68.5901 354.2949 389.4422
v  -108.2842 354.2949 389.4422
v  -68.5901 351.5803 349.7481
v  -108.2842 351.5803 349.7481
v  -68.5901 354.2949 349.7481
v  -108.2842 354.2949 349.7481
v  -250.1098 109.6211 385.7611
v  -250.1098 109.6211 353.4290
v  -250.1099 114.5756 353.4290
v  -250.1099 114.5757 385.7611
v  -282.4420 109.6211 353.4290
v  -282.4420 114.5756 353.4290
v  -282.4420 109.6211 385.7611
v  -282.4420 114.5756 385.7611
v  -250.1098 313.5332 385.7612
v  -250.1098 313.5332 353.4291
v  -250.1099 318.4878 353.4290
v  -250.1098 318.4878 385.7612
v  -282.4420 313.5332 353.4291
v  -282.4420 318.4878 353.4290
v  -282.4420 313.5332 385.7612
v  -282.4420 318.4878 385.7612
v  -251.1565 91.8538 384.7145
v  -251.1565 91.8538 354.4756
v  -251.1565 197.2524 354.4756
v  -251.1565 197.2524 384.7145
v  -281.3954 91.8538 354.4756
v  -281.3954 197.2524 354.4756
v  -281.3954 91.8538 384.7145
v  -281.3954 197.2524 384.7146
v  -282.4079 91.8538 385.7270
v  -250.1440 91.8538 385.7270
v  -282.4079 84.0617 385.7270
v  -250.1440 84.0617 385.7270
v  -282.4079 91.8538 353.4632
v  -250.1440 91.8538 353.4632
v  -286.1230 76.8567 389.4422
v  -246.4289 76.8567 389.4422
v  -282.4079 84.0617 353.4632
v  -250.1440 84.0617 353.4632
v  -286.1230 70.6526 389.4422
v  -246.4289 70.6526 389.4422
v  -286.1230 76.8567 349.7480
v  -246.4289 76.8567 349.7480
v  -286.1230 70.6527 349.7480
v  -246.4289 70.6527 349.7480
v  -281.3955 336.5832 384.7146
v  -281.3955 336.5832 354.4757
v  -281.3955 197.2037 354.4756
v  -281.3955 197.2037 384.7146
v  -251.1565 336.5832 354.4757
v  -251.1565 197.2037 354.4756
v  -251.1565 336.5832 384.7146
v  -251.1565 197.2037 384.7146
v  -250.1441 336.5832 385.7271
v  -282.4079 336.5832 385.7271
v  -250.1441 344.3753 385.7271
v  -282.4079 344.3753 385.7271
v  -250.1441 336.5832 353.4632
v  -282.4079 336.5832 353.4632
v  -246.4289 351.5803 389.4422
v  -286.1230 351.5803 389.4422
v  -250.1441 344.3753 353.4632
v  -282.4079 344.3753 353.4632
v  -246.4289 354.2949 389.4422
v  -286.1230 354.2949 389.4422
v  -246.4289 351.5803 349.7481
v  -286.1231 351.5803 349.7481
v  -246.4289 354.2949 349.7481
v  -286.1231 354.2949 349.7481
v  282.4420 109.6211 385.7611
v  282.4420 109.6211 353.4290
v  282.4420 114.5756 353.4290
v  282.4420 114.5757 385.7611
v  250.1098 109.6211 353.4290
v  250.1098 114.5756 353.4290
v  250.1098 109.6211 385.7611
v  250.1098 114.5756 385.7611
v  282.4420 313.5332 385.7612
v  282.4420 313.5332 353.4291
v  282.4420 318.4878 353.4290
v  282.4420 318.4878 385.7612
v  250.1098 313.5332 353.4291
v  250.1098 318.4878 353.4290
v  250.1098 313.5332 385.7612
v  250.1098 318.4878 385.7612
v  281.3954 91.8538 384.7145
v  281.3954 91.8538 354.4756
v  281.3954 197.2524 354.4756
v  281.3954 197.2524 384.7145
v  251.1564 91.8538 354.4756
v  251.1564 197.2524 354.4756
v  251.1564 91.8538 384.7145
v  251.1564 197.2524 384.7146
v  250.1440 91.8538 385.7270
v  282.4078 91.8538 385.7270
v  250.1440 84.0617 385.7270
v  282.4078 84.0617 385.7270
v  250.1440 91.8538 353.4632
v  282.4078 91.8538 353.4632
v  246.4289 76.8567 389.4422
v  286.1230 76.8567 389.4422
v  250.1440 84.0617 353.4632
v  282.4078 84.0617 353.4632
v  246.4289 70.6526 389.4422
v  286.1230 70.6526 389.4422
v  246.4289 76.8567 349.7480
v  286.1230 76.8567 349.7480
v  246.4289 70.6527 349.7480
v  286.1230 70.6527 349.7480
v  251.1564 336.5832 384.7146
v  251.1564 336.5832 354.4757
v  251.1564 197.2037 354.4756
v  251.1564 197.2037 384.7146
v  281.3954 336.5832 354.4757
v  281.3954 197.2037 354.4756
v  281.3954 336.5832 384.7146
v  281.3954 197.2037 384.7146
v  282.4078 336.5832 385.7271
v  250.1439 336.5832 385.7271
v  282.4078 344.3753 385.7271
v  250.1439 344.3753 385.7271
v  282.4078 336.5832 353.4632
v  250.1439 336.5832 353.4632
v  286.1229 351.5803 389.4422
v  246.4288 351.5803 389.4422
v  282.4078 344.3753 353.4632
v  250.1439 344.3753 353.4632
v  286.1229 354.2949 389.4422
v  246.4288 354.2949 389.4422
v  286.1229 351.5803 349.7481
v  246.4288 351.5803 349.7481
v  286.1229 354.2949 349.7481
v  246.4288 354.2949 349.7481
v  233.8582 326.5945 238.9534
v  233.8582 326.5945 185.8038
v  233.8582 70.8661 185.8037
v  233.8582 70.8661 238.9533
v  287.0079 326.5945 185.8038
v  287.0079 70.8661 185.8037
v  287.0079 326.5945 238.9534
v  287.0079 70.8661 238.9533
v  288.7874 326.5945 240.7329
v  232.0787 326.5945 240.7329
v  288.7874 340.2903 240.7329
v  232.0787 340.2903 240.7329
v  288.7874 326.5945 184.0242
v  232.0787 326.5945 184.0242
v  295.3173 352.9543 247.2628
v  225.5488 352.9543 247.2628
v  288.7874 340.2903 184.0242
v  232.0787 340.2903 184.0242
v  295.3173 357.7255 247.2628
v  225.5488 357.7255 247.2628
v  295.3173 352.9543 177.4943
v  225.5488 352.9543 177.4943
v  295.3173 357.7255 177.4943
v  225.5488 357.7255 177.4943
v  -303.3972 17.7164 500.5204
v  -303.3972 17.7164 434.8120
v  -303.3972 -0.0001 434.8120
v  -303.3972 -0.0001 500.5204
v  303.3972 17.7164 434.8120
v  303.3972 -0.0001 434.8120
v  303.3972 17.7164 500.5204
v  303.3972 -0.0001 500.5204
v  -303.3972 35.4330 468.9538
v  -303.3972 35.4330 403.2456
v  -303.3972 -0.0001 403.2456
v  -303.3972 -0.0001 468.9538
v  303.3972 35.4330 403.2456
v  303.3972 -0.0001 403.2456
v  303.3972 35.4330 468.9538
v  303.3972 -0.0001 468.9538
v  -303.3972 53.1495 437.5271
v  -303.3972 53.1495 371.8188
v  -303.3972 -0.0001 371.8188
v  -303.3972 -0.0001 437.5271
v  303.3972 53.1495 371.8188
v  303.3972 -0.0001 371.8188
v  303.3972 53.1495 437.5271
v  303.3972 -0.0001 437.5271
v  -303.3972 70.8661 405.7278
v  -303.3972 70.8662 -494.9558
v  -303.3972 0.0000 -494.9558
v  -303.3972 -0.0001 405.7278
v  303.3972 70.8662 -494.9558
v  303.3972 0.0000 -494.9558
v  303.3972 70.8661 405.7278
v  303.3972 -0.0001 405.7278
v  -295.8661 361.3559 398.4023
v  -295.8661 361.3560 178.7172
v  -295.8661 354.2693 178.7172
v  -295.8661 354.2693 398.4023
v  295.8661 361.3559 398.4023
v  295.8661 354.2693 398.4023
v  295.8661 361.3560 178.7172
v  212.1804 361.3560 178.7172
v  212.1804 361.3559 332.7831
v  -212.1804 361.3559 332.7831
v  -212.1804 361.3560 178.7172
v  -212.1804 354.2693 178.7172
v  -212.1804 354.2693 332.7831
v  212.1804 354.2693 332.7831
v  212.1804 354.2693 178.7172
v  295.8661 354.2693 178.7172
v  286.5513 230.3150 -357.9402
v  280.8833 230.3150 -357.9402
v  280.8833 124.0158 -357.9402
v  286.5513 124.0158 -357.9402
v  286.5513 223.2284 -365.0268
v  286.5513 223.2284 -413.1721
v  286.5513 230.3150 -420.2586
v  286.5513 131.1024 -365.0268
v  286.5513 124.0158 -420.2586
v  286.5513 131.1024 -413.1721
v  280.8833 230.3150 -420.2586
v  280.8833 124.0158 -420.2586
v  284.7261 131.1024 -365.0268
v  284.7261 223.2284 -365.0268
v  284.7261 223.2284 -413.1721
v  284.7261 131.1024 -413.1721
v  286.5513 230.3150 -237.4190
v  280.8832 230.3150 -237.4190
v  280.8832 124.0158 -237.4190
v  286.5513 124.0158 -237.4190
v  286.5513 223.2284 -244.5056
v  286.5513 223.2284 -292.6509
v  286.5513 230.3150 -299.7375
v  286.5513 131.1024 -244.5057
v  286.5513 124.0158 -299.7375
v  286.5513 131.1024 -292.6509
v  280.8833 230.3150 -299.7375
v  280.8833 124.0158 -299.7375
v  284.7260 131.1024 -244.5057
v  284.7260 223.2284 -244.5056
v  284.7261 223.2284 -292.6509
v  284.7261 131.1024 -292.6509
v  286.5512 230.3149 -116.8965
v  280.8832 230.3149 -116.8965
v  280.8832 124.0157 -116.8965
v  286.5512 124.0157 -116.8965
v  286.5512 223.2283 -123.9831
v  286.5512 223.2283 -172.1284
v  286.5512 230.3150 -179.2150
v  286.5512 131.1023 -123.9831
v  286.5512 124.0157 -179.2150
v  286.5512 131.1024 -172.1284
v  280.8832 230.3150 -179.2150
v  280.8832 124.0157 -179.2150
v  284.7260 131.1023 -123.9831
v  284.7260 223.2283 -123.9831
v  284.7260 223.2283 -172.1284
v  284.7260 131.1024 -172.1284
v  286.5511 230.3149 3.6261
v  280.8831 230.3149 3.6261
v  280.8831 124.0157 3.6261
v  286.5511 124.0157 3.6261
v  286.5511 223.2283 -3.4605
v  286.5512 223.2283 -51.6058
v  286.5512 230.3149 -58.6924
v  286.5511 131.1023 -3.4606
v  286.5512 124.0157 -58.6924
v  286.5512 131.1023 -51.6058
v  280.8832 230.3149 -58.6924
v  280.8832 124.0157 -58.6924
v  284.7259 131.1023 -3.4606
v  284.7259 223.2283 -3.4605
v  284.7260 223.2283 -51.6058
v  284.7260 131.1023 -51.6058
v  286.5511 230.3149 124.8370
v  280.8831 230.3149 124.8370
v  280.8831 124.0157 124.8370
v  286.5511 124.0157 124.8370
v  286.5511 223.2283 117.7504
v  286.5511 223.2283 69.6051
v  286.5511 230.3149 62.5185
v  286.5511 131.1023 117.7504
v  286.5511 124.0157 62.5185
v  286.5511 131.1023 69.6051
v  280.8831 230.3149 62.5185
v  280.8831 124.0157 62.5185
v  284.7259 131.1023 117.7504
v  284.7259 223.2283 117.7504
v  284.7259 223.2283 69.6051
v  284.7259 131.1023 69.6051
v  286.5513 389.7638 -357.9402
v  280.8833 389.7638 -357.9402
v  280.8833 283.4646 -357.9402
v  286.5513 283.4646 -357.9402
v  286.5513 382.6772 -365.0268
v  286.5513 382.6772 -413.1721
v  286.5513 389.7638 -420.2587
v  286.5513 290.5512 -365.0268
v  286.5513 283.4646 -420.2587
v  286.5513 290.5512 -413.1721
v  280.8833 389.7638 -420.2587
v  280.8833 283.4646 -420.2587
v  284.7261 290.5512 -365.0268
v  284.7261 382.6772 -365.0268
v  284.7261 382.6772 -413.1721
v  284.7261 290.5512 -413.1721
v  286.5513 389.7638 -237.4190
v  280.8832 389.7638 -237.4190
v  280.8832 283.4646 -237.4190
v  286.5513 283.4646 -237.4190
v  286.5513 382.6772 -244.5056
v  286.5513 382.6772 -292.6509
v  286.5513 389.7638 -299.7375
v  286.5513 290.5512 -244.5057
v  286.5513 283.4646 -299.7375
v  286.5513 290.5512 -292.6509
v  280.8833 389.7638 -299.7375
v  280.8833 283.4646 -299.7375
v  284.7260 290.5512 -244.5057
v  284.7260 382.6772 -244.5056
v  284.7261 382.6772 -292.6509
v  284.7261 290.5512 -292.6509
v  286.5512 389.7638 -116.8965
v  280.8832 389.7638 -116.8965
v  280.8832 283.4646 -116.8965
v  286.5512 283.4646 -116.8965
v  286.5512 382.6772 -123.9831
v  286.5512 382.6772 -172.1284
v  286.5512 389.7638 -179.2150
v  286.5512 290.5512 -123.9831
v  286.5512 283.4646 -179.2150
v  286.5512 290.5512 -172.1284
v  280.8832 389.7638 -179.2150
v  280.8832 283.4646 -179.2150
v  284.7260 290.5512 -123.9831
v  284.7260 382.6772 -123.9831
v  284.7260 382.6772 -172.1284
v  284.7260 290.5512 -172.1284
v  286.5511 389.7638 3.6260
v  280.8831 389.7638 3.6260
v  280.8831 283.4646 3.6260
v  286.5511 283.4646 3.6260
v  286.5511 382.6772 -3.4606
v  286.5512 382.6772 -51.6058
v  286.5512 389.7638 -58.6924
v  286.5511 290.5512 -3.4606
v  286.5512 283.4645 -58.6925
v  286.5512 290.5512 -51.6059
v  280.8832 389.7638 -58.6924
v  280.8832 283.4645 -58.6925
v  284.7259 290.5512 -3.4606
v  284.7259 382.6772 -3.4606
v  284.7260 382.6772 -51.6058
v  284.7260 290.5512 -51.6059
v  286.5511 389.7637 124.8370
v  280.8831 389.7637 124.8370
v  280.8831 283.4645 124.8370
v  286.5511 283.4645 124.8370
v  286.5511 382.6771 117.7504
v  286.5511 382.6772 69.6051
v  286.5511 389.7638 62.5185
v  286.5511 290.5511 117.7504
v  286.5511 283.4646 62.5185
v  286.5511 290.5512 69.6051
v  280.8831 389.7638 62.5185
v  280.8831 283.4646 62.5185
v  284.7259 290.5511 117.7504
v  284.7259 382.6771 117.7504
v  284.7259 382.6772 69.6051
v  284.7259 290.5512 69.6051
v  -287.5159 88.5826 239.4930
v  -287.5159 88.5827 -481.4642
v  -287.5159 70.8662 -481.4642
v  -287.5159 70.8661 239.4930
v  -62.0079 88.5826 239.4930
v  -62.0079 70.8661 239.4930
v  287.5159 88.5826 239.4930
v  287.5159 88.5827 -481.4642
v  62.0079 88.5826 216.7744
v  -62.0079 88.5826 216.7744
v  62.0079 88.5826 239.4930
v  287.5159 70.8662 -481.4642
v  -62.0079 70.8661 216.7744
v  287.5159 70.8661 239.4930
v  62.0079 70.8661 239.4930
v  62.0079 70.8661 216.7744
v  -286.5513 230.3149 62.1046
v  -280.8832 230.3149 62.1046
v  -280.8832 124.0157 62.1046
v  -286.5513 124.0157 62.1046
v  -286.5513 223.2283 69.1913
v  -286.5513 223.2283 117.3365
v  -286.5513 230.3149 124.4231
v  -286.5513 131.1023 69.1912
v  -286.5513 124.0157 124.4231
v  -286.5513 131.1023 117.3365
v  -280.8832 230.3149 124.4231
v  -280.8832 124.0157 124.4231
v  -284.7260 131.1023 69.1912
v  -284.7260 223.2283 69.1913
v  -284.7260 223.2283 117.3365
v  -284.7260 131.1023 117.3365
v  -286.5512 230.3149 -58.4165
v  -280.8832 230.3149 -58.4165
v  -280.8832 124.0157 -58.4165
v  -286.5512 124.0157 -58.4165
v  -286.5512 223.2283 -51.3299
v  -286.5513 223.2283 -3.1846
v  -286.5513 230.3149 3.9020
v  -286.5512 131.1023 -51.3299
v  -286.5513 124.0157 3.9020
v  -286.5513 131.1023 -3.1846
v  -280.8832 230.3149 3.9020
v  -280.8832 124.0157 3.9020
v  -284.7260 131.1023 -51.3299
v  -284.7260 223.2283 -51.3299
v  -284.7260 223.2283 -3.1846
v  -284.7260 131.1023 -3.1846
v  -286.5512 230.3150 -178.9391
v  -280.8832 230.3150 -178.9391
v  -280.8832 124.0157 -178.9391
v  -286.5512 124.0157 -178.9391
v  -286.5512 223.2283 -171.8525
v  -286.5512 223.2283 -123.7072
v  -286.5512 230.3149 -116.6206
v  -286.5512 131.1024 -171.8525
v  -286.5512 124.0157 -116.6206
v  -286.5512 131.1023 -123.7072
v  -280.8832 230.3149 -116.6206
v  -280.8832 124.0157 -116.6206
v  -284.7260 131.1024 -171.8525
v  -284.7260 223.2283 -171.8525
v  -284.7260 223.2283 -123.7072
v  -284.7260 131.1023 -123.7072
v  -286.5512 230.3150 -299.4616
v  -280.8832 230.3150 -299.4616
v  -280.8832 124.0158 -299.4616
v  -286.5512 124.0158 -299.4616
v  -286.5512 223.2284 -292.3750
v  -286.5512 223.2284 -244.2297
v  -286.5512 230.3150 -237.1431
v  -286.5512 131.1024 -292.3750
v  -286.5512 124.0158 -237.1431
v  -286.5512 131.1024 -244.2298
v  -280.8832 230.3150 -237.1431
v  -280.8832 124.0158 -237.1431
v  -284.7260 131.1024 -292.3750
v  -284.7260 223.2284 -292.3750
v  -284.7260 223.2284 -244.2297
v  -284.7260 131.1024 -244.2298
v  -286.5512 230.3150 -420.6725
v  -280.8831 230.3150 -420.6725
v  -280.8831 124.0158 -420.6725
v  -286.5512 124.0158 -420.6725
v  -286.5512 223.2284 -413.5859
v  -286.5512 223.2284 -365.4407
v  -286.5512 230.3150 -358.3540
v  -286.5512 131.1024 -413.5859
v  -286.5512 124.0158 -358.3540
v  -286.5512 131.1024 -365.4407
v  -280.8832 230.3150 -358.3540
v  -280.8832 124.0158 -358.3540
v  -284.7260 131.1024 -413.5859
v  -284.7260 223.2284 -413.5859
v  -284.7260 223.2284 -365.4407
v  -284.7260 131.1024 -365.4407
v  -286.5512 389.7638 62.1047
v  -280.8832 389.7638 62.1047
v  -280.8832 283.4646 62.1047
v  -286.5512 283.4646 62.1047
v  -286.5512 382.6772 69.1913
v  -286.5512 382.6771 117.3366
v  -286.5512 389.7637 124.4232
v  -286.5512 290.5512 69.1913
v  -286.5512 283.4645 124.4232
v  -286.5512 290.5511 117.3366
v  -280.8832 389.7637 124.4232
v  -280.8832 283.4645 124.4232
v  -284.7260 290.5512 69.1913
v  -284.7260 382.6772 69.1913
v  -284.7260 382.6771 117.3366
v  -284.7260 290.5511 117.3366
v  -286.5512 389.7638 -58.4165
v  -280.8832 389.7638 -58.4165
v  -280.8832 283.4645 -58.4165
v  -286.5512 283.4645 -58.4165
v  -286.5512 382.6772 -51.3299
v  -286.5512 382.6772 -3.1846
v  -286.5512 389.7638 3.9020
v  -286.5512 290.5512 -51.3299
v  -286.5512 283.4646 3.9020
v  -286.5512 290.5512 -3.1846
v  -280.8832 389.7638 3.9020
v  -280.8832 283.4646 3.9020
v  -284.7260 290.5512 -51.3299
v  -284.7260 382.6772 -51.3299
v  -284.7260 382.6772 -3.1846
v  -284.7260 290.5512 -3.1846
v  -286.5512 389.7638 -178.9390
v  -280.8832 389.7638 -178.9390
v  -280.8832 283.4646 -178.9390
v  -286.5512 283.4646 -178.9390
v  -286.5512 382.6772 -171.8524
v  -286.5512 382.6772 -123.7071
v  -286.5512 389.7638 -116.6205
v  -286.5512 290.5512 -171.8524
v  -286.5512 283.4646 -116.6205
v  -286.5512 290.5512 -123.7071
v  -280.8832 389.7638 -116.6205
v  -280.8832 283.4646 -116.6205
v  -284.7260 290.5512 -171.8524
v  -284.7260 382.6772 -171.8524
v  -284.7260 382.6772 -123.7071
v  -284.7260 290.5512 -123.7071
v  -286.5512 389.7638 -299.4615
v  -280.8832 389.7638 -299.4615
v  -280.8832 283.4646 -299.4615
v  -286.5512 283.4646 -299.4615
v  -286.5512 382.6772 -292.3749
v  -286.5512 382.6772 -244.2297
v  -286.5512 389.7638 -237.1431
v  -286.5512 290.5512 -292.3749
v  -286.5512 283.4646 -237.1431
v  -286.5512 290.5512 -244.2297
v  -280.8832 389.7638 -237.1431
v  -280.8832 283.4646 -237.1431
v  -284.7260 290.5512 -292.3749
v  -284.7260 382.6772 -292.3749
v  -284.7260 382.6772 -244.2297
v  -284.7260 290.5512 -244.2297
v  -286.5512 389.7638 -420.6725
v  -280.8831 389.7638 -420.6725
v  -280.8831 283.4646 -420.6725
v  -286.5512 283.4646 -420.6725
v  -286.5512 382.6772 -413.5859
v  -286.5512 382.6772 -365.4406
v  -286.5512 389.7638 -358.3540
v  -286.5512 290.5512 -413.5859
v  -286.5512 283.4646 -358.3540
v  -286.5512 290.5512 -365.4406
v  -280.8832 389.7638 -358.3540
v  -280.8832 283.4646 -358.3540
v  -284.7260 290.5512 -413.5859
v  -284.7260 382.6772 -413.5859
v  -284.7260 382.6772 -365.4406
v  -284.7260 290.5512 -365.4406
v  116.6604 389.7637 238.6493
v  116.6604 389.7637 232.9814
v  116.6604 283.4645 232.9813
v  116.6604 283.4645 238.6493
v  123.7471 382.6772 238.6493
v  171.8923 382.6772 238.6493
v  178.9790 389.7637 238.6493
v  123.7471 290.5511 238.6493
v  178.9790 283.4645 238.6493
v  171.8923 290.5511 238.6493
v  178.9790 389.7637 232.9814
v  178.9790 283.4645 232.9813
v  123.7471 290.5511 236.8241
v  123.7471 382.6772 236.8241
v  171.8923 382.6772 236.8241
v  171.8923 290.5511 236.8241
v  -178.9790 389.7637 238.6493
v  -178.9790 389.7637 232.9814
v  -178.9790 283.4645 232.9813
v  -178.9790 283.4645 238.6493
v  -171.8923 382.6772 238.6493
v  -123.7471 382.6772 238.6493
v  -116.6604 389.7637 238.6493
v  -171.8923 290.5511 238.6493
v  -116.6604 283.4645 238.6493
v  -123.7471 290.5511 238.6493
v  -116.6604 389.7637 232.9814
v  -116.6604 283.4645 232.9813
v  -171.8923 290.5511 236.8241
v  -171.8923 382.6772 236.8241
v  -123.7471 382.6772 236.8241
v  -123.7471 290.5511 236.8241
v  -178.9790 230.3149 238.6493
v  -178.9790 230.3149 232.9813
v  -178.9790 124.0157 232.9813
v  -178.9790 124.0157 238.6493
v  -171.8923 223.2283 238.6493
v  -123.7471 223.2283 238.6493
v  -116.6604 230.3149 238.6493
v  -171.8923 131.1023 238.6493
v  -116.6604 124.0157 238.6493
v  -123.7471 131.1023 238.6493
v  -116.6604 230.3149 232.9813
v  -116.6604 124.0157 232.9813
v  -171.8923 131.1023 236.8241
v  -171.8923 223.2283 236.8241
v  -123.7471 223.2283 236.8241
v  -123.7471 131.1023 236.8241
v  -287.0079 326.5945 238.9534
v  -287.0079 326.5945 185.8038
v  -287.0079 70.8661 185.8037
v  -287.0079 70.8661 238.9533
v  -233.8582 326.5945 185.8038
v  -233.8582 70.8661 185.8037
v  -233.8582 326.5945 238.9534
v  -233.8582 70.8661 238.9533
v  -232.0787 326.5945 240.7329
v  -288.7874 326.5945 240.7329
v  -232.0787 340.2903 240.7329
v  -288.7874 340.2903 240.7329
v  -232.0787 326.5945 184.0242
v  -288.7874 326.5945 184.0242
v  -225.5488 352.9543 247.2628
v  -295.3173 352.9543 247.2628
v  -232.0787 340.2903 184.0242
v  -288.7874 340.2903 184.0242
v  -225.5488 357.7255 247.2628
v  -295.3173 357.7255 247.2628
v  -225.5488 352.9543 177.4943
v  -295.3173 352.9543 177.4943
v  -225.5488 357.7255 177.4943
v  -295.3173 357.7255 177.4943
v  116.6605 230.3149 238.6493
v  116.6605 230.3149 232.9813
v  116.6605 124.0157 232.9813
v  116.6605 124.0157 238.6493
v  123.7472 223.2283 238.6493
v  171.8924 223.2283 238.6493
v  178.9790 230.3149 238.6493
v  123.7472 131.1023 238.6493
v  178.9790 124.0157 238.6493
v  171.8924 131.1023 238.6493
v  178.9790 230.3149 232.9813
v  178.9790 124.0157 232.9813
v  123.7472 131.1023 236.8241
v  123.7472 223.2283 236.8241
v  171.8924 223.2283 236.8241
v  171.8924 131.1023 236.8241
v  -62.0079 230.3149 239.2433
v  -62.0079 230.3149 231.8103
v  -62.0079 70.8661 231.8103
v  -62.0079 70.8661 239.2433
v  -54.9213 222.3425 239.2433
v  54.9213 222.3425 239.2433
v  62.0079 230.3149 239.2433
v  -54.9213 78.8386 239.2433
v  62.0079 70.8661 239.2433
v  54.9213 78.8386 239.2433
v  62.0079 230.3149 231.8103
v  62.0079 70.8661 231.8103
v  -54.9213 78.8386 237.4202
v  -54.9213 222.3425 237.4202
v  54.9213 222.3425 237.4202
v  54.9213 78.8386 237.4202
v  -307.6967 443.5512 404.9790
v  -307.6967 437.8258 404.9790
v  -307.6967 437.8258 409.5996
v  -307.6967 443.5512 409.5996
v  -0.0000 532.0989 404.9790
v  302.8730 439.5258 404.9789
v  -0.0000 546.3581 404.9789
v  -302.8730 439.5260 404.9789
v  -259.9362 440.4118 404.9789
v  -302.8730 445.2513 404.9789
v  -302.8730 445.2514 -494.4469
v  -307.6967 443.5513 -494.4469
v  -302.8730 439.5261 -494.4469
v  -0.0000 546.3582 -494.4467
v  302.8730 439.5259 -494.4469
v  -302.8730 425.1970 -494.4469
v  -302.8730 425.1969 404.9789
v  -259.9362 440.4118 394.2825
v  -0.0000 532.0989 394.2825
v  259.9362 440.4116 404.9789
v  302.8730 425.1967 404.9789
v  302.8730 425.1968 -494.4469
v  259.9362 440.4116 394.2825
v  -0.0000 518.1177 394.2825
v  -188.5721 451.6028 394.2825
v  188.5721 451.6027 394.2825
v  -188.5721 451.6028 390.3885
v  -0.0000 518.1177 390.3885
v  188.5721 451.6027 390.3885
v  -292.3228 425.1968 394.8589
v  -292.3228 425.1968 182.2604
v  -292.3228 354.3307 182.2604
v  -292.3228 354.3307 394.8589
v  292.3228 425.1968 394.8589
v  292.3228 354.3307 394.8589
v  292.3228 425.1968 182.2604
v  292.3228 354.3307 182.2604
v  212.1804 354.3307 182.2604
v  212.1804 418.6130 182.2604
v  -212.1804 418.6130 182.2604
v  -212.1804 354.3307 182.2604
v  -212.1804 354.3307 332.7830
v  212.1804 354.3307 332.7830
v  -212.1804 418.6129 332.7830
v  212.1804 418.6129 332.7830
v  -283.4646 425.1968 235.4100
v  -283.4646 425.1969 -477.4051
v  -283.4646 70.8662 -477.4051
v  -283.4646 70.8661 235.4100
v  283.4646 425.1969 -477.4051
v  283.4646 70.8662 -477.4051
v  283.4646 425.1968 235.4100
v  283.4646 70.8661 235.4100
v  -0.0000 552.0834 404.9789
v  -0.0000 552.0834 -494.4467
v  302.8730 445.2511 404.9789
v  302.8730 445.2512 -494.4469
v  -302.8730 445.2513 409.5996
v  -0.0000 552.0834 409.5996
v  307.6967 443.5511 -494.4469
v  307.6967 437.8257 -494.4469
v  307.6967 437.8257 -499.0675
v  307.6967 443.5511 -499.0675
v  302.8730 445.2512 -499.0675
v  -0.0000 552.0834 -499.0674
v  -0.0000 546.3581 409.5996
v  -302.8730 439.5260 409.5996
v  -307.6967 437.8260 -494.4469
v  307.6967 437.8256 404.9790
v  307.6967 443.5509 404.9790
v  302.8730 445.2511 409.5996
v  -0.0000 546.3582 -499.0674
v  -302.8730 439.5261 -499.0675
v  -302.8730 445.2514 -499.0675
v  302.8730 439.5258 409.5996
v  302.8730 439.5259 -499.0675
v  -307.6967 437.8260 -499.0675
v  -307.6967 443.5513 -499.0675
v  307.6967 437.8256 409.5996
v  307.6967 443.5509 409.5996
v  -31.1593 389.7637 238.6493
v  -31.1593 389.7637 232.9814
v  -31.1593 283.4645 232.9813
v  -31.1593 283.4645 238.6493
v  -24.0726 382.6772 238.6493
v  24.0726 382.6772 238.6493
v  31.1593 389.7637 238.6493
v  -24.0726 290.5511 238.6493
v  31.1593 283.4645 238.6493
v  24.0726 290.5511 238.6493
v  31.1593 389.7637 232.9814
v  31.1593 283.4645 232.9813
v  -24.0726 290.5511 236.8241
v  -24.0726 382.6772 236.8241
v  24.0726 382.6772 236.8241
v  24.0726 290.5511 236.8241
# 864 vertices

vn 1.0000 0.0000 -0.0000
vn 0.0000 0.0000 -1.0000
vn -1.0000 -0.0000 0.0000
vn 0.0000 -0.0000 1.0000
vn -0.0000 1.0000 0.0000
vn 0.0000 -1.0000 -0.0000
vn 1.0000 0.0000 0.0000
vn 0.0000 -0.0000 -1.0000
vn 0.0000 0.0000 1.0000
vn 0.0000 1.0000 0.0000
vn -0.0000 1.0000 -0.0000
vn 0.0000 1.0000 -0.0000
vn 0.0000 0.4583 0.8888
vn -1.0000 0.0000 -0.0000
vn -0.8888 0.4583 0.0000
vn 0.0000 0.4583 -0.8888
vn 0.8888 0.4583 -0.0000
vn 0.0000 -0.4583 0.8888
vn 0.8888 -0.4583 -0.0000
vn 0.0000 -0.4583 -0.8888
vn -0.8888 -0.4583 -0.0000
vn 1.0000 -0.0000 -0.0000
vn -1.0000 -0.0000 -0.0000
vn 0.8888 0.4583 0.0000
vn -0.8888 -0.4583 0.0000
vn 0.0000 -1.0000 0.0000
vn 1.0000 -0.0000 0.0000
vn -0.0000 -0.0000 1.0000
vn -0.0000 -1.0000 -0.0000
vn -0.3324 0.9431 0.0000
vn -1.0000 0.0000 0.0000
vn 0.3326 -0.9431 -0.0000
vn -0.3326 -0.9431 -0.0000
vn -0.0000 0.0000 -1.0000
vn -0.3326 0.9431 0.0000
vn 0.3326 0.9431 0.0000
vn 0.3324 0.9431 0.0000
vn 0.3324 -0.9431 -0.0000
vn -0.3324 -0.9431 -0.0000
# 39 vertex normals

vt 0.0335 0.4841 0.0000
vt 0.0835 0.4841 0.0000
vt 0.0835 0.5341 0.0000
vt 0.0335 0.5341 0.0000
vt 0.3374 0.5275 0.0000
vt 0.3874 0.5275 0.0000
vt 0.3874 0.5775 0.0000
vt 0.3374 0.5775 0.0000
vt 0.1730 0.3539 0.0000
vt 0.2230 0.3539 0.0000
vt 0.2230 0.4039 0.0000
vt 0.1730 0.4039 0.0000
vt 0.1761 0.3508 0.0000
vt 0.2261 0.3508 0.0000
vt 0.2261 0.4008 0.0000
vt 0.1761 0.4008 0.0000
vt 0.0521 0.3601 0.0000
vt 0.1021 0.3601 0.0000
vt 0.1021 0.4101 0.0000
vt 0.0521 0.4101 0.0000
vt 0.0771 0.4101 0.0000
vt 0.0948 0.4028 0.0000
vt 0.1021 0.3851 0.0000
vt 0.0948 0.3674 0.0000
vt 0.0771 0.3601 0.0000
vt 0.0594 0.3674 0.0000
vt 0.0521 0.3851 0.0000
vt 0.0594 0.4028 0.0000
vt 0.0521 0.0749 0.0000
vt 0.1021 0.0749 0.0000
vt 0.1021 0.1249 0.0000
vt 0.0521 0.1249 0.0000
vt 0.0988 0.0874 0.0000
vt 0.0771 0.0749 0.0000
vt 0.0555 0.0874 0.0000
vt 0.0555 0.1124 0.0000
vt 0.0988 0.1124 0.0000
vt 0.0771 0.1249 0.0000
vt 0.8499 0.6938 0.0000
vt 0.8499 0.4372 0.0000
vt 0.9841 0.4372 0.0000
vt 0.9841 0.6938 0.0000
vt 0.8492 0.6938 0.0000
vt 0.8492 0.4372 0.0000
vt 0.9834 0.4372 0.0000
vt 0.9834 0.6938 0.0000
vt 0.8495 0.6938 0.0000
vt 0.8495 0.4372 0.0000
vt 0.9837 0.4372 0.0000
vt 0.9837 0.6938 0.0000
vt 0.8500 0.6938 0.0000
vt 0.8500 0.4372 0.0000
vt 0.8502 0.6938 0.0000
vt 0.8502 0.4372 0.0000
vt 0.9843 0.4372 0.0000
vt 0.9843 0.6938 0.0000
vt 0.0428 0.3787 0.0000
vt 0.0928 0.3787 0.0000
vt 0.0928 0.4287 0.0000
vt 0.0428 0.4287 0.0000
vt 0.0678 0.4287 0.0000
vt 0.0855 0.4214 0.0000
vt 0.0928 0.4037 0.0000
vt 0.0428 0.4037 0.0000
vt 0.0855 0.3860 0.0000
vt 0.0678 0.3787 0.0000
vt 0.0501 0.3860 0.0000
vt 0.0501 0.4214 0.0000
vt 0.9845 0.6938 0.0000
vt 0.9845 0.4372 0.0000
vt 0.8504 0.4372 0.0000
vt 0.8504 0.6938 0.0000
vt 0.9838 0.6938 0.0000
vt 0.9838 0.4372 0.0000
vt 0.8496 0.4372 0.0000
vt 0.8496 0.6938 0.0000
vt 0.8501 0.6938 0.0000
vt 0.8501 0.4372 0.0000
vt 0.9842 0.4372 0.0000
vt 0.9842 0.6938 0.0000
vt 0.6837 0.4075 0.0000
vt 0.6837 0.0148 0.0000
vt 0.9843 0.0148 0.0000
vt 0.9843 0.4075 0.0000
vt 0.1699 0.8624 0.0000
vt 0.0585 0.4287 0.0000
vt 0.0823 0.4114 0.0000
vt 0.0732 0.3835 0.0000
vt 0.0438 0.3835 0.0000
vt 0.0347 0.4114 0.0000
vt 0.1699 0.9124 0.0000
vt 0.2199 0.9124 0.0000
vt 0.0490 0.2268 0.0000
vt 0.0990 0.2268 0.0000
vt 0.0990 0.2768 0.0000
vt 0.0490 0.2768 0.0000
vt 0.0335 0.3787 0.0000
vt 0.0835 0.3787 0.0000
vt 0.0835 0.4287 0.0000
vt 0.0335 0.4287 0.0000
vt 0.0701 0.3835 0.0000
vt 0.0407 0.3835 0.0000
vt 0.0316 0.4114 0.0000
vt 0.0792 0.4114 0.0000
vt 0.0554 0.4287 0.0000
vt 0.0304 0.3787 0.0000
vt 0.0804 0.3787 0.0000
vt 0.0804 0.4287 0.0000
vt 0.0304 0.4287 0.0000
vt 0.3278 0.6386 0.0000
vt 0.8285 0.6386 0.0000
vt 0.5781 0.7269 0.0000
vt 0.4118 0.3824 0.0000
vt 0.4220 0.3840 0.0000
vt 0.4233 0.3812 0.0000
vt 0.4184 0.3844 0.0000
vt 0.9648 0.8573 0.0000
vt 0.3037 0.8573 0.0000
vt 0.3037 0.7771 0.0000
vt 0.9648 0.7771 0.0000
vt 0.4494 0.3787 0.0000
vt 0.4554 0.3821 0.0000
vt 0.4538 0.3872 0.0000
vt 0.4118 0.3876 0.0000
vt 0.4476 0.3851 0.0000
vt 0.4201 0.3851 0.0000
vt 0.4118 0.3869 0.0000
vt 0.4214 0.3863 0.0000
vt 0.4179 0.3844 0.0000
vt 0.4498 0.3844 0.0000
vt 0.4463 0.3863 0.0000
vt 0.4618 0.3793 0.0000
vt 0.4511 0.3811 0.0000
vt 0.4560 0.3869 0.0000
vt 0.3187 0.3539 0.0000
vt 0.3687 0.3539 0.0000
vt 0.3687 0.4039 0.0000
vt 0.3187 0.4039 0.0000
vt 0.2199 0.8624 0.0000
vt 0.1802 0.8671 0.0000
vt 0.2096 0.8671 0.0000
vt 0.2187 0.8951 0.0000
# 142 texture coords

g SPB_Court_House
usemtl SPB_Court_House
s off
f 1/1/1 2/2/1 3/3/1 4/4/1 
f 2/1/2 5/2/2 6/3/2 3/4/2 
f 5/1/3 7/2/3 8/3/3 6/4/3 
f 7/1/4 1/2/4 4/3/4 8/4/4 
f 4/1/5 3/2/5 6/3/5 8/4/5 
f 1/1/6 7/1/6 5/1/6 2/1/6 
f 9/1/7 10/2/7 11/3/7 12/4/7 
f 10/1/8 13/2/8 14/3/8 11/4/8 
f 13/1/3 15/2/3 16/3/3 14/4/3 
f 15/1/9 9/2/9 12/3/9 16/4/9 
f 12/1/10 11/2/10 14/3/10 16/4/10 
f 9/1/6 15/1/6 13/1/6 10/1/6 
f 17/1/1 18/2/1 19/3/1 20/4/1 
f 18/1/8 21/2/8 22/3/8 19/4/8 
f 21/1/3 23/2/3 24/3/3 22/4/3 
f 23/1/9 17/2/9 20/3/9 24/4/9 
f 20/1/11 19/2/11 22/3/11 24/4/11 
f 17/1/5 23/2/5 25/3/5 26/4/5 
f 26/1/4 25/2/4 27/3/4 28/4/4 
s 1
f 23/1/11 21/2/10 29/3/5 25/4/11 
f 21/1/10 18/2/11 30/3/11 29/4/5 
f 18/1/11 17/2/12 26/3/12 30/4/11 
s off
f 28/1/13 27/2/13 31/3/13 32/4/13 
f 25/1/14 29/2/14 33/3/14 27/4/14 
f 29/1/2 30/2/2 34/3/2 33/4/2 
f 30/1/1 26/2/1 28/3/1 34/4/1 
f 32/1/4 31/2/4 35/3/4 36/4/4 
f 27/1/15 33/2/15 37/3/15 31/4/15 
f 33/1/16 34/2/16 38/3/16 37/4/16 
f 34/1/17 28/2/17 32/3/17 38/4/17 
f 35/1/6 39/2/6 40/3/6 36/4/6 
f 31/1/14 37/2/14 39/3/14 35/4/14 
f 37/1/2 38/2/2 40/3/2 39/4/2 
f 38/1/1 32/2/1 36/3/1 40/4/1 
f 41/1/14 42/2/14 43/3/14 44/4/14 
f 42/1/2 45/2/2 46/3/2 43/4/2 
f 45/1/1 47/2/1 48/3/1 46/4/1 
f 47/1/4 41/2/4 44/3/4 48/4/4 
f 44/1/6 43/2/6 46/3/6 48/4/6 
f 41/1/6 47/2/6 49/3/6 50/4/6 
f 50/1/4 49/2/4 51/3/4 52/4/4 
f 47/1/6 45/2/6 53/3/6 49/4/6 
f 45/1/6 42/2/6 54/3/6 53/4/6 
f 42/1/6 41/2/6 50/3/6 54/4/6 
f 52/1/18 51/2/18 55/3/18 56/4/18 
f 49/1/1 53/2/1 57/3/1 51/4/1 
f 53/1/2 54/2/2 58/3/2 57/4/2 
f 54/1/14 50/2/14 52/3/14 58/4/14 
f 56/1/4 55/2/4 59/3/4 60/4/4 
f 51/1/19 57/2/19 61/3/19 55/4/19 
f 57/1/20 58/2/20 62/3/20 61/4/20 
f 58/1/21 52/2/21 56/3/21 62/4/21 
f 59/1/10 63/2/10 64/3/10 60/4/10 
f 55/1/22 61/2/22 63/3/22 59/4/22 
f 61/1/2 62/2/2 64/3/2 63/4/2 
f 62/1/14 56/2/14 60/3/14 64/4/14 
f 65/1/1 66/2/1 67/3/1 68/4/1 
f 66/1/2 69/2/2 70/3/2 67/4/2 
f 69/1/3 71/2/3 72/3/3 70/4/3 
f 71/1/4 65/2/4 68/3/4 72/4/4 
f 68/1/5 67/2/5 70/3/5 72/4/5 
f 65/1/6 71/1/6 69/1/6 66/1/6 
f 73/1/7 74/2/7 75/3/7 76/4/7 
f 74/1/8 77/2/8 78/3/8 75/4/8 
f 77/1/23 79/2/23 80/3/23 78/4/23 
f 79/1/9 73/2/9 76/3/9 80/4/9 
f 76/1/10 75/2/10 78/3/10 80/4/10 
f 73/1/6 79/1/6 77/1/6 74/1/6 
f 81/1/1 82/2/1 83/3/1 84/4/1 
f 82/1/8 85/2/8 86/3/8 83/4/8 
f 85/1/23 87/2/23 88/3/23 86/4/23 
f 87/1/9 81/2/9 84/3/9 88/4/9 
f 84/1/11 83/2/11 86/3/11 88/4/11 
s 1
f 81/1/10 87/2/11 89/3/11 90/4/5 
s off
f 90/1/4 89/2/4 91/3/4 92/4/4 
s 1
f 87/1/11 85/2/10 93/3/5 89/4/11 
f 85/1/10 82/2/11 94/3/11 93/4/5 
f 82/1/11 81/2/10 90/3/5 94/4/11 
s off
f 92/1/13 91/2/13 95/3/13 96/4/13 
f 89/1/14 93/2/14 97/3/14 91/4/14 
f 93/1/2 94/2/2 98/3/2 97/4/2 
f 94/1/1 90/2/1 92/3/1 98/4/1 
f 96/1/4 95/2/4 99/3/4 100/4/4 
f 91/1/15 97/2/15 101/3/15 95/4/15 
f 97/1/16 98/2/16 102/3/16 101/4/16 
f 98/1/24 92/2/24 96/3/24 102/4/24 
f 99/1/6 103/2/6 104/3/6 100/4/6 
f 95/1/14 101/2/14 103/3/14 99/4/14 
f 101/1/2 102/2/2 104/3/2 103/4/2 
f 102/1/1 96/2/1 100/3/1 104/4/1 
f 105/1/14 106/2/14 107/3/14 108/4/14 
f 106/1/2 109/2/2 110/3/2 107/4/2 
f 109/1/1 111/2/1 112/3/1 110/4/1 
f 111/1/4 105/2/4 108/3/4 112/4/4 
f 108/1/6 107/2/6 110/3/6 112/4/6 
f 105/1/6 111/2/6 113/3/6 114/4/6 
f 114/1/4 113/2/4 115/3/4 116/4/4 
f 111/1/6 109/2/6 117/3/6 113/4/6 
f 109/1/6 106/2/6 118/3/6 117/4/6 
f 106/1/6 105/2/6 114/3/6 118/4/6 
f 116/1/18 115/2/18 119/3/18 120/4/18 
f 113/1/1 117/2/1 121/3/1 115/4/1 
f 117/1/2 118/2/2 122/3/2 121/4/2 
f 118/1/14 114/2/14 116/3/14 122/4/14 
f 120/1/4 119/2/4 123/3/4 124/4/4 
f 115/1/19 121/2/19 125/3/19 119/4/19 
f 121/1/20 122/2/20 126/3/20 125/4/20 
f 122/1/21 116/2/21 120/3/21 126/4/21 
f 123/1/10 127/2/10 128/3/10 124/4/10 
f 119/1/22 125/2/22 127/3/22 123/4/22 
f 125/1/2 126/2/2 128/3/2 127/4/2 
f 126/1/14 120/2/14 124/3/14 128/4/14 
f 129/1/7 130/2/7 131/3/7 132/4/7 
f 130/1/2 133/2/2 134/3/2 131/4/2 
f 133/1/23 135/2/23 136/3/23 134/4/23 
f 135/1/4 129/2/4 132/3/4 136/4/4 
f 132/1/5 131/2/5 134/3/5 136/4/5 
f 129/1/6 135/1/6 133/1/6 130/1/6 
f 137/1/1 138/2/1 139/3/1 140/4/1 
f 138/1/8 141/2/8 142/3/8 139/4/8 
f 141/1/23 143/2/23 144/3/23 142/4/23 
f 143/1/9 137/2/9 140/3/9 144/4/9 
f 140/1/10 139/2/10 142/3/10 144/4/10 
f 137/1/6 143/1/6 141/1/6 138/1/6 
f 145/1/1 146/2/1 147/3/1 148/4/1 
f 146/1/8 149/2/8 150/3/8 147/4/8 
f 149/1/23 151/2/23 152/3/23 150/4/23 
f 151/1/9 145/2/9 148/3/9 152/4/9 
f 148/1/11 147/2/11 150/3/11 152/4/11 
s 1
f 145/1/10 151/2/11 153/3/11 154/4/5 
s off
f 154/1/4 153/2/4 155/3/4 156/4/4 
s 1
f 151/1/11 149/2/12 157/3/12 153/4/11 
s off
f 149/1/5 146/2/5 158/3/5 157/4/5 
s 1
f 146/1/11 145/2/10 154/3/5 158/4/11 
s off
f 156/1/13 155/2/13 159/3/13 160/4/13 
f 153/1/14 157/2/14 161/3/14 155/4/14 
f 157/1/2 158/2/2 162/3/2 161/4/2 
f 158/1/1 154/2/1 156/3/1 162/4/1 
f 160/1/4 159/2/4 163/3/4 164/4/4 
f 155/1/15 161/2/15 165/3/15 159/4/15 
f 161/1/16 162/2/16 166/3/16 165/4/16 
f 162/1/24 156/2/24 160/3/24 166/4/24 
f 163/1/6 167/2/6 168/3/6 164/4/6 
f 159/1/3 165/2/3 167/3/3 163/4/3 
f 165/1/2 166/2/2 168/3/2 167/4/2 
f 166/1/1 160/2/1 164/3/1 168/4/1 
f 169/1/14 170/2/14 171/3/14 172/4/14 
f 170/1/2 173/2/2 174/3/2 171/4/2 
f 173/1/1 175/2/1 176/3/1 174/4/1 
f 175/1/4 169/2/4 172/3/4 176/4/4 
f 172/1/6 171/2/6 174/3/6 176/4/6 
f 169/1/6 175/2/6 177/3/6 178/4/6 
f 178/1/4 177/2/4 179/3/4 180/4/4 
f 175/1/6 173/2/6 181/3/6 177/4/6 
f 173/1/6 170/2/6 182/3/6 181/4/6 
f 170/1/6 169/2/6 178/3/6 182/4/6 
f 180/1/18 179/2/18 183/3/18 184/4/18 
f 177/1/1 181/2/1 185/3/1 179/4/1 
f 181/1/2 182/2/2 186/3/2 185/4/2 
f 182/1/14 178/2/14 180/3/14 186/4/14 
f 184/1/4 183/2/4 187/3/4 188/4/4 
f 179/1/19 185/2/19 189/3/19 183/4/19 
f 185/1/20 186/2/20 190/3/20 189/4/20 
f 186/1/25 180/2/25 184/3/25 190/4/25 
f 187/1/10 191/2/10 192/3/10 188/4/10 
f 183/1/1 189/2/1 191/3/1 187/4/1 
f 189/1/2 190/2/2 192/3/2 191/4/2 
f 190/1/3 184/2/3 188/3/3 192/4/3 
f 193/1/7 194/2/7 195/3/7 196/4/7 
f 194/1/2 197/2/2 198/3/2 195/4/2 
f 197/1/23 199/2/23 200/3/23 198/4/23 
f 199/1/4 193/2/4 196/3/4 200/4/4 
f 196/1/5 195/2/5 198/3/5 200/4/5 
f 193/1/6 199/1/6 197/1/6 194/1/6 
f 201/1/7 202/2/7 203/3/7 204/4/7 
f 202/1/8 205/2/8 206/3/8 203/4/8 
f 205/1/23 207/2/23 208/3/23 206/4/23 
f 207/1/9 201/2/9 204/3/9 208/4/9 
f 204/1/10 203/2/10 206/3/10 208/4/10 
f 201/1/6 207/1/6 205/1/6 202/1/6 
f 209/1/1 210/2/1 211/3/1 212/4/1 
f 210/1/8 213/2/8 214/3/8 211/4/8 
f 213/1/23 215/2/23 216/3/23 214/4/23 
f 215/1/9 209/2/9 212/3/9 216/4/9 
f 212/1/11 211/2/11 214/3/11 216/4/11 
s 1
f 209/1/10 215/2/11 217/3/11 218/4/5 
s off
f 218/1/4 217/2/4 219/3/4 220/4/4 
s 1
f 215/1/11 213/2/10 221/3/5 217/4/11 
f 213/1/10 210/2/11 222/3/11 221/4/5 
f 210/1/11 209/2/10 218/3/5 222/4/11 
s off
f 220/1/13 219/2/13 223/3/13 224/4/13 
f 217/1/14 221/2/14 225/3/14 219/4/14 
f 221/1/2 222/2/2 226/3/2 225/4/2 
f 222/1/1 218/2/1 220/3/1 226/4/1 
f 224/1/4 223/2/4 227/3/4 228/4/4 
f 219/1/15 225/2/15 229/3/15 223/4/15 
f 225/1/16 226/2/16 230/3/16 229/4/16 
f 226/1/24 220/2/24 224/3/24 230/4/24 
f 227/1/6 231/2/6 232/3/6 228/4/6 
f 223/1/14 229/2/14 231/3/14 227/4/14 
f 229/1/2 230/2/2 232/3/2 231/4/2 
f 230/1/1 224/2/1 228/3/1 232/4/1 
f 233/1/14 234/2/14 235/3/14 236/4/14 
f 234/1/2 237/2/2 238/3/2 235/4/2 
f 237/1/1 239/2/1 240/3/1 238/4/1 
f 239/1/4 233/2/4 236/3/4 240/4/4 
f 236/1/6 235/2/6 238/3/6 240/4/6 
f 233/1/6 239/2/6 241/3/6 242/4/6 
f 242/1/4 241/2/4 243/3/4 244/4/4 
f 239/1/6 237/2/6 245/3/6 241/4/6 
f 237/1/6 234/2/6 246/3/6 245/4/6 
f 234/1/6 233/2/6 242/3/6 246/4/6 
f 244/1/18 243/2/18 247/3/18 248/4/18 
f 241/1/1 245/2/1 249/3/1 243/4/1 
f 245/1/2 246/2/2 250/3/2 249/4/2 
f 246/1/14 242/2/14 244/3/14 250/4/14 
f 248/1/4 247/2/4 251/3/4 252/4/4 
f 243/1/19 249/2/19 253/3/19 247/4/19 
f 249/1/20 250/2/20 254/3/20 253/4/20 
f 250/1/21 244/2/21 248/3/21 254/4/21 
f 251/1/10 255/2/10 256/3/10 252/4/10 
f 247/1/1 253/2/1 255/3/1 251/4/1 
f 253/1/2 254/2/2 256/3/2 255/4/2 
f 254/1/14 248/2/14 252/3/14 256/4/14 
f 257/5/14 258/6/14 259/7/14 260/8/14 
f 258/5/2 261/6/2 262/7/2 259/8/2 
f 261/5/1 263/6/1 264/7/1 262/8/1 
f 263/5/4 257/6/4 260/7/4 264/8/4 
f 260/5/26 259/6/26 262/7/26 264/8/26 
s 1
f 257/5/6 263/6/6 265/7/6 266/8/6 
s off
f 266/5/4 265/6/4 267/7/4 268/8/4 
s 1
f 263/5/6 261/6/6 269/7/6 265/8/6 
f 261/5/6 258/6/6 270/7/6 269/8/6 
f 258/5/6 257/6/6 266/7/6 270/8/6 
s off
f 268/5/18 267/6/18 271/7/18 272/8/18 
f 265/5/1 269/6/1 273/7/1 267/8/1 
f 269/5/2 270/6/2 274/7/2 273/8/2 
f 270/5/14 266/6/14 268/7/14 274/8/14 
f 272/5/4 271/6/4 275/7/4 276/8/4 
f 267/5/19 273/6/19 277/7/19 271/8/19 
f 273/5/20 274/6/20 278/7/20 277/8/20 
f 274/5/21 268/6/21 272/7/21 278/8/21 
f 275/5/10 279/6/10 280/7/10 276/8/10 
f 271/5/1 277/6/1 279/7/1 275/8/1 
f 277/5/2 278/6/2 280/7/2 279/8/2 
f 278/5/14 272/6/14 276/7/14 280/8/14 
f 281/9/14 282/10/14 283/11/14 284/12/14 
f 282/9/2 285/10/2 286/11/2 283/12/2 
f 285/9/1 287/10/1 288/11/1 286/12/1 
f 287/9/4 281/10/4 284/11/4 288/12/4 
f 284/9/6 283/10/6 286/11/6 288/12/6 
f 287/9/10 285/10/10 282/11/10 281/12/10 
f 289/9/14 290/10/14 291/11/14 292/12/14 
f 290/9/2 293/10/2 294/11/2 291/12/2 
f 293/9/1 295/10/1 296/11/1 294/12/1 
f 295/9/4 289/10/4 292/11/4 296/12/4 
f 292/9/6 291/10/6 294/11/6 296/12/6 
f 295/9/10 293/10/10 290/11/10 289/12/10 
f 297/9/14 298/10/14 299/11/14 300/12/14 
f 298/9/2 301/10/2 302/11/2 299/12/2 
f 301/9/1 303/10/1 304/11/1 302/12/1 
f 303/9/4 297/10/4 300/11/4 304/12/4 
f 300/9/6 299/10/6 302/11/6 304/12/6 
f 303/9/10 301/10/10 298/11/10 297/12/10 
f 305/13/14 306/14/14 307/15/14 308/16/14 
f 306/13/2 309/14/2 310/15/2 307/16/2 
f 309/13/1 311/14/1 312/15/1 310/16/1 
f 311/13/4 305/14/4 308/15/4 312/16/4 
f 308/13/6 307/14/6 310/15/6 312/16/6 
f 311/13/10 309/14/10 306/15/10 305/16/10 
f 313/17/14 314/18/14 315/19/14 316/20/14 
f 317/17/4 313/18/4 316/19/4 318/20/4 
f 317/21/10 319/22/10 320/23/10 321/24/10 
f 322/25/10 323/26/10 314/27/10 313/28/10 
f 321/24/10 322/25/10 313/28/10 317/21/10 
f 314/17/2 323/18/2 324/19/2 315/20/2 
f 316/21/6 315/22/6 324/23/6 325/24/6 
f 326/25/6 327/26/6 328/27/6 318/28/6 
f 325/24/6 326/25/6 318/28/6 316/21/6 
f 319/17/1 317/18/1 318/19/1 328/20/1 
f 320/17/2 319/18/2 328/19/2 327/20/2 
f 325/17/1 324/18/1 323/19/1 322/20/1 
f 322/17/2 321/18/2 326/19/2 325/20/2 
f 321/17/14 320/18/14 327/19/14 326/20/14 
f 329/29/4 330/30/4 331/31/4 332/32/4 
s 1
f 333/33/1 334/34/1 335/35/1 329/36/1 
f 336/37/1 333/33/1 329/36/1 332/38/1 
f 337/37/1 335/33/1 334/34/1 338/35/1 
f 332/38/1 337/37/1 338/35/1 336/36/1 
s off
f 335/29/12 339/30/12 330/31/12 329/32/12 
f 330/29/14 339/30/14 340/31/14 331/32/14 
f 332/29/6 331/30/6 340/31/6 337/32/6 
f 339/29/2 335/30/2 337/31/2 340/32/2 
f 333/29/2 336/30/2 341/31/2 342/32/2 
f 334/29/26 333/30/26 342/31/26 343/32/26 
f 342/39/1 341/40/1 344/41/1 343/42/1 
f 336/29/10 338/30/10 344/31/10 341/32/10 
f 338/29/4 334/30/4 343/31/4 344/32/4 
f 345/29/4 346/30/4 347/31/4 348/32/4 
f 349/33/7 350/34/7 351/35/7 345/36/7 
f 352/37/1 349/33/1 345/36/1 348/38/1 
f 353/37/1 351/33/1 350/34/1 354/35/1 
f 348/38/27 353/37/27 354/35/27 352/36/27 
f 351/29/10 355/30/10 346/31/10 345/32/10 
f 346/29/14 355/30/14 356/31/14 347/32/14 
f 348/29/6 347/30/6 356/31/6 353/32/6 
f 355/29/2 351/30/2 353/31/2 356/32/2 
f 349/29/2 352/30/2 357/31/2 358/32/2 
f 350/29/6 349/30/6 358/31/6 359/32/6 
f 358/43/27 357/44/27 360/45/27 359/46/27 
f 352/29/10 354/30/10 360/31/10 357/32/10 
f 354/29/4 350/30/4 359/31/4 360/32/4 
f 361/29/4 362/30/4 363/31/4 364/32/4 
f 365/33/7 366/34/7 367/35/7 361/36/7 
f 368/37/27 365/33/27 361/36/27 364/38/27 
f 369/37/1 367/33/1 366/34/1 370/35/1 
f 364/38/27 369/37/27 370/35/27 368/36/27 
f 367/29/10 371/30/10 362/31/10 361/32/10 
f 362/29/14 371/30/14 372/31/14 363/32/14 
f 364/29/6 363/30/6 372/31/6 369/32/6 
f 371/29/2 367/30/2 369/31/2 372/32/2 
f 365/29/2 368/30/2 373/31/2 374/32/2 
f 366/29/6 365/30/6 374/31/6 375/32/6 
f 374/47/1 373/48/1 376/49/1 375/50/1 
f 368/29/10 370/30/10 376/31/10 373/32/10 
f 370/29/4 366/30/4 375/31/4 376/32/4 
f 377/29/4 378/30/4 379/31/4 380/32/4 
f 381/33/27 382/34/27 383/35/27 377/36/27 
f 384/37/1 381/33/1 377/36/1 380/38/1 
f 385/37/1 383/33/1 382/34/1 386/35/1 
f 380/38/27 385/37/27 386/35/27 384/36/27 
f 383/29/12 387/30/12 378/31/12 377/32/12 
f 378/29/14 387/30/14 388/31/14 379/32/14 
f 380/29/6 379/30/6 388/31/6 385/32/6 
f 387/29/2 383/30/2 385/31/2 388/32/2 
f 381/29/2 384/30/2 389/31/2 390/32/2 
f 382/29/26 381/30/26 390/31/26 391/32/26 
f 390/51/27 389/52/27 392/41/27 391/42/27 
f 384/29/10 386/30/10 392/31/10 389/32/10 
f 386/29/4 382/30/4 391/31/4 392/32/4 
f 393/29/4 394/30/4 395/31/4 396/32/4 
s 1
f 397/33/27 398/34/7 399/35/7 393/36/27 
f 400/37/7 397/33/27 393/36/27 396/38/7 
f 401/37/27 399/33/7 398/34/7 402/35/27 
f 396/38/7 401/37/27 402/35/27 400/36/7 
s off
f 399/29/10 403/30/10 394/31/10 393/32/10 
f 394/29/14 403/30/14 404/31/14 395/32/14 
f 396/29/6 395/30/6 404/31/6 401/32/6 
f 403/29/2 399/30/2 401/31/2 404/32/2 
f 397/29/2 400/30/2 405/31/2 406/32/2 
f 398/29/6 397/30/6 406/31/6 407/32/6 
f 406/53/27 405/54/27 408/55/27 407/56/27 
f 400/29/10 402/30/10 408/31/10 405/32/10 
f 402/29/4 398/30/4 407/31/4 408/32/4 
f 409/29/4 410/30/4 411/31/4 412/32/4 
f 413/33/27 414/34/27 415/35/27 409/36/27 
f 416/37/1 413/33/1 409/36/1 412/38/1 
f 417/37/1 415/33/1 414/34/1 418/35/1 
f 412/38/27 417/37/27 418/35/27 416/36/27 
f 415/29/10 419/30/10 410/31/10 409/32/10 
f 410/29/14 419/30/14 420/31/14 411/32/14 
f 412/29/6 411/30/6 420/31/6 417/32/6 
f 419/29/2 415/30/2 417/31/2 420/32/2 
f 413/29/2 416/30/2 421/31/2 422/32/2 
f 414/29/6 413/30/6 422/31/6 423/32/6 
f 422/39/27 421/40/27 424/41/27 423/42/27 
f 416/29/10 418/30/10 424/31/10 421/32/10 
f 418/29/4 414/30/4 423/31/4 424/32/4 
f 425/29/4 426/30/4 427/31/4 428/32/4 
f 429/33/27 430/34/27 431/35/27 425/36/27 
f 432/37/1 429/33/1 425/36/1 428/38/1 
f 433/37/1 431/33/1 430/34/1 434/35/1 
f 428/38/7 433/37/7 434/35/7 432/36/7 
f 431/29/10 435/30/10 426/31/10 425/32/10 
f 426/29/14 435/30/14 436/31/14 427/32/14 
f 428/29/6 427/30/6 436/31/6 433/32/6 
f 435/29/2 431/30/2 433/31/2 436/32/2 
f 429/29/2 432/30/2 437/31/2 438/32/2 
f 430/29/6 429/30/6 438/31/6 439/32/6 
f 438/43/27 437/44/27 440/45/27 439/46/27 
f 432/29/10 434/30/10 440/31/10 437/32/10 
f 434/29/4 430/30/4 439/31/4 440/32/4 
f 441/29/28 442/30/28 443/31/28 444/32/28 
f 445/33/27 446/34/27 447/35/27 441/36/27 
f 448/37/1 445/33/1 441/36/1 444/38/1 
f 449/37/1 447/33/1 446/34/1 450/35/1 
f 444/38/7 449/37/7 450/35/7 448/36/7 
f 447/29/10 451/30/10 442/31/10 441/32/10 
f 442/29/14 451/30/14 452/31/14 443/32/14 
f 444/29/6 443/30/6 452/31/6 449/32/6 
f 451/29/2 447/30/2 449/31/2 452/32/2 
f 445/29/2 448/30/2 453/31/2 454/32/2 
f 446/29/6 445/30/6 454/31/6 455/32/6 
f 454/47/27 453/48/27 456/49/27 455/50/27 
f 448/29/10 450/30/10 456/31/10 453/32/10 
f 450/29/4 446/30/4 455/31/4 456/32/4 
f 457/29/4 458/30/4 459/31/4 460/32/4 
s 1
f 461/33/27 462/34/7 463/35/7 457/36/27 
f 464/37/7 461/33/27 457/36/27 460/38/7 
f 465/37/27 463/33/7 462/34/7 466/35/27 
f 460/38/7 465/37/27 466/35/27 464/36/7 
s off
f 463/29/10 467/30/10 458/31/10 457/32/10 
f 458/29/14 467/30/14 468/31/14 459/32/14 
f 460/29/26 459/30/26 468/31/26 465/32/26 
f 467/29/2 463/30/2 465/31/2 468/32/2 
f 461/29/2 464/30/2 469/31/2 470/32/2 
f 462/29/6 461/30/6 470/31/6 471/32/6 
f 470/51/27 469/52/27 472/41/27 471/42/27 
f 464/29/10 466/30/10 472/31/10 469/32/10 
f 466/29/4 462/30/4 471/31/4 472/32/4 
f 473/29/4 474/30/4 475/31/4 476/32/4 
s 1
f 477/33/27 478/34/7 479/35/7 473/36/27 
f 480/37/7 477/33/27 473/36/27 476/38/7 
f 481/37/27 479/33/7 478/34/7 482/35/27 
f 476/38/7 481/37/27 482/35/27 480/36/7 
s off
f 479/29/10 483/30/10 474/31/10 473/32/10 
f 474/29/14 483/30/14 484/31/14 475/32/14 
f 476/29/6 475/30/6 484/31/6 481/32/6 
f 483/29/2 479/30/2 481/31/2 484/32/2 
f 477/29/2 480/30/2 485/31/2 486/32/2 
f 478/29/6 477/30/6 486/31/6 487/32/6 
f 486/53/27 485/54/27 488/55/27 487/56/27 
f 480/29/10 482/30/10 488/31/10 485/32/10 
f 482/29/4 478/30/4 487/31/4 488/32/4 
f 489/57/14 490/58/14 491/59/14 492/60/14 
f 493/57/4 489/58/4 492/59/4 494/60/4 
f 495/61/10 496/62/10 490/63/10 497/64/10 
f 490/63/5 489/65/5 493/66/5 498/67/5 
f 490/63/10 498/67/10 497/64/10 
f 495/61/10 497/64/10 499/68/10 
f 490/57/2 496/58/2 500/59/2 491/60/2 
f 492/61/6 491/62/6 500/63/6 501/64/6 
f 500/63/29 502/65/29 503/66/29 504/67/29 
f 500/63/6 504/67/6 501/64/6 
f 492/61/6 501/64/6 494/68/6 
f 495/57/4 499/58/4 503/59/4 502/60/4 
f 496/57/1 495/58/1 502/59/1 500/60/1 
f 498/57/1 493/58/1 494/59/1 501/60/1 
f 497/57/4 498/58/4 501/59/4 504/60/4 
f 504/57/14 503/58/14 499/59/14 497/60/14 
f 505/29/2 506/30/2 507/31/2 508/32/2 
s 1
f 509/33/14 510/34/14 511/35/14 505/36/14 
f 512/37/14 509/33/14 505/36/14 508/38/14 
f 513/37/14 511/33/14 510/34/14 514/35/14 
f 508/38/14 513/37/14 514/35/14 512/36/14 
s off
f 511/29/10 515/30/10 506/31/10 505/32/10 
f 506/29/27 515/30/27 516/31/27 507/32/27 
f 508/29/6 507/30/6 516/31/6 513/32/6 
f 515/29/4 511/30/4 513/31/4 516/32/4 
f 509/29/4 512/30/4 517/31/4 518/32/4 
f 510/29/6 509/30/6 518/31/6 519/32/6 
f 518/56/14 517/55/14 520/54/14 519/53/14 
f 512/29/10 514/30/10 520/31/10 517/32/10 
f 514/29/2 510/30/2 519/31/2 520/32/2 
f 521/29/2 522/30/2 523/31/2 524/32/2 
s 1
f 525/33/23 526/34/14 527/35/14 521/36/23 
f 528/37/14 525/33/23 521/36/23 524/38/14 
f 529/37/23 527/33/14 526/34/14 530/35/23 
f 524/38/14 529/37/23 530/35/23 528/36/14 
s off
f 527/29/12 531/30/12 522/31/12 521/32/12 
f 522/29/1 531/30/1 532/31/1 523/32/1 
f 524/29/6 523/30/6 532/31/6 529/32/6 
f 531/29/4 527/30/4 529/31/4 532/32/4 
f 525/29/4 528/30/4 533/31/4 534/32/4 
f 526/29/26 525/30/26 534/31/26 535/32/26 
f 534/69/14 533/70/14 536/71/14 535/72/14 
f 528/29/10 530/30/10 536/31/10 533/32/10 
f 530/29/2 526/30/2 535/31/2 536/32/2 
f 537/29/2 538/30/2 539/31/2 540/32/2 
s 1
f 541/33/14 542/34/14 543/35/14 537/36/14 
f 544/37/14 541/33/14 537/36/14 540/38/14 
f 545/37/14 543/33/14 542/34/14 546/35/14 
f 540/38/14 545/37/14 546/35/14 544/36/14 
s off
f 543/29/10 547/30/10 538/31/10 537/32/10 
f 538/29/27 547/30/27 548/31/27 539/32/27 
f 540/29/6 539/30/6 548/31/6 545/32/6 
f 547/29/4 543/30/4 545/31/4 548/32/4 
f 541/29/4 544/30/4 549/31/4 550/32/4 
f 542/29/6 541/30/6 550/31/6 551/32/6 
f 550/42/14 549/41/14 552/40/14 551/39/14 
f 544/29/10 546/30/10 552/31/10 549/32/10 
f 546/29/2 542/30/2 551/31/2 552/32/2 
f 553/29/2 554/30/2 555/31/2 556/32/2 
s 1
f 557/33/14 558/34/14 559/35/14 553/36/14 
f 560/37/14 557/33/14 553/36/14 556/38/14 
f 561/37/14 559/33/14 558/34/14 562/35/14 
f 556/38/14 561/37/14 562/35/14 560/36/14 
s off
f 559/29/10 563/30/10 554/31/10 553/32/10 
f 554/29/27 563/30/27 564/31/27 555/32/27 
f 556/29/6 555/30/6 564/31/6 561/32/6 
f 563/29/4 559/30/4 561/31/4 564/32/4 
f 557/29/4 560/30/4 565/31/4 566/32/4 
f 558/29/6 557/30/6 566/31/6 567/32/6 
f 566/73/14 565/74/14 568/75/14 567/76/14 
f 560/29/10 562/30/10 568/31/10 565/32/10 
f 562/29/2 558/30/2 567/31/2 568/32/2 
f 569/29/2 570/30/2 571/31/2 572/32/2 
s 1
f 573/33/14 574/34/14 575/35/14 569/36/14 
f 576/37/14 573/33/14 569/36/14 572/38/14 
f 577/37/14 575/33/14 574/34/14 578/35/14 
f 572/38/14 577/37/14 578/35/14 576/36/14 
s off
f 575/29/12 579/30/12 570/31/12 569/32/12 
f 570/29/27 579/30/27 580/31/27 571/32/27 
f 572/29/6 571/30/6 580/31/6 577/32/6 
f 579/29/4 575/30/4 577/31/4 580/32/4 
f 573/29/4 576/30/4 581/31/4 582/32/4 
f 574/29/26 573/30/26 582/31/26 583/32/26 
f 582/42/14 581/41/14 584/40/14 583/39/14 
f 576/29/10 578/30/10 584/31/10 581/32/10 
f 578/29/2 574/30/2 583/31/2 584/32/2 
f 585/29/2 586/30/2 587/31/2 588/32/2 
s 1
f 589/33/14 590/34/14 591/35/14 585/36/14 
f 592/37/14 589/33/14 585/36/14 588/38/14 
f 593/37/14 591/33/14 590/34/14 594/35/14 
f 588/38/14 593/37/14 594/35/14 592/36/14 
s off
f 591/29/10 595/30/10 586/31/10 585/32/10 
f 586/29/27 595/30/27 596/31/27 587/32/27 
f 588/29/6 587/30/6 596/31/6 593/32/6 
f 595/29/4 591/30/4 593/31/4 596/32/4 
f 589/29/4 592/30/4 597/31/4 598/32/4 
f 590/29/6 589/30/6 598/31/6 599/32/6 
f 598/56/14 597/55/14 600/54/14 599/53/14 
f 592/29/10 594/30/10 600/31/10 597/32/10 
f 594/29/2 590/30/2 599/31/2 600/32/2 
f 601/29/2 602/30/2 603/31/2 604/32/2 
f 605/33/14 606/34/14 607/35/14 601/36/14 
f 608/37/14 605/33/14 601/36/14 604/38/14 
f 609/37/14 607/33/14 606/34/14 610/35/14 
f 604/38/14 609/37/14 610/35/14 608/36/14 
f 607/29/10 611/30/10 602/31/10 601/32/10 
f 602/29/27 611/30/27 612/31/27 603/32/27 
f 604/29/26 603/30/26 612/31/26 609/32/26 
f 611/29/4 607/30/4 609/31/4 612/32/4 
f 605/29/4 608/30/4 613/31/4 614/32/4 
f 606/29/6 605/30/6 614/31/6 615/32/6 
f 614/69/14 613/70/14 616/71/14 615/72/14 
f 608/29/10 610/30/10 616/31/10 613/32/10 
f 610/29/2 606/30/2 615/31/2 616/32/2 
f 617/29/2 618/30/2 619/31/2 620/32/2 
f 621/33/14 622/34/14 623/35/14 617/36/14 
f 624/37/14 621/33/14 617/36/14 620/38/14 
f 625/37/14 623/33/14 622/34/14 626/35/14 
f 620/38/23 625/37/23 626/35/23 624/36/23 
f 623/29/10 627/30/10 618/31/10 617/32/10 
f 618/29/1 627/30/1 628/31/1 619/32/1 
f 620/29/6 619/30/6 628/31/6 625/32/6 
f 627/29/4 623/30/4 625/31/4 628/32/4 
f 621/29/4 624/30/4 629/31/4 630/32/4 
f 622/29/6 621/30/6 630/31/6 631/32/6 
f 630/42/14 629/41/14 632/40/14 631/39/14 
f 624/29/10 626/30/10 632/31/10 629/32/10 
f 626/29/2 622/30/2 631/31/2 632/32/2 
f 633/29/2 634/30/2 635/31/2 636/32/2 
s 1
f 637/33/23 638/34/14 639/35/14 633/36/23 
f 640/37/14 637/33/23 633/36/23 636/38/14 
f 641/37/23 639/33/14 638/34/14 642/35/23 
f 636/38/14 641/37/23 642/35/23 640/36/14 
s off
f 639/29/10 643/30/10 634/31/10 633/32/10 
f 634/29/1 643/30/1 644/31/1 635/32/1 
f 636/29/6 635/30/6 644/31/6 641/32/6 
f 643/29/4 639/30/4 641/31/4 644/32/4 
f 637/29/4 640/30/4 645/31/4 646/32/4 
f 638/29/6 637/30/6 646/31/6 647/32/6 
f 646/73/14 645/74/14 648/75/14 647/76/14 
f 640/29/10 642/30/10 648/31/10 645/32/10 
f 642/29/2 638/30/2 647/31/2 648/32/2 
f 649/29/2 650/30/2 651/31/2 652/32/2 
s 1
f 653/33/14 654/34/14 655/35/14 649/36/14 
f 656/37/14 653/33/14 649/36/14 652/38/14 
f 657/37/14 655/33/14 654/34/14 658/35/14 
f 652/38/14 657/37/14 658/35/14 656/36/14 
s off
f 655/29/10 659/30/10 650/31/10 649/32/10 
f 650/29/27 659/30/27 660/31/27 651/32/27 
f 652/29/6 651/30/6 660/31/6 657/32/6 
f 659/29/4 655/30/4 657/31/4 660/32/4 
f 653/29/4 656/30/4 661/31/4 662/32/4 
f 654/29/6 653/30/6 662/31/6 663/32/6 
f 662/42/14 661/41/14 664/40/14 663/39/14 
f 656/29/10 658/30/10 664/31/10 661/32/10 
f 658/29/2 654/30/2 663/31/2 664/32/2 
f 665/29/14 666/30/14 667/31/14 668/32/14 
f 669/33/4 670/34/4 671/35/4 665/36/4 
f 672/37/4 669/33/4 665/36/4 668/38/4 
f 673/37/4 671/33/4 670/34/4 674/35/4 
f 668/38/4 673/37/4 674/35/4 672/36/4 
f 671/29/10 675/30/10 666/31/10 665/32/10 
f 666/29/2 675/30/2 676/31/2 667/32/2 
f 668/29/6 667/30/6 676/31/6 673/32/6 
f 675/29/1 671/30/1 673/31/1 676/32/1 
f 669/29/1 672/30/1 677/31/1 678/32/1 
f 670/29/6 669/30/6 678/31/6 679/32/6 
f 678/77/4 677/78/4 680/79/4 679/80/4 
f 672/29/10 674/30/10 680/31/10 677/32/10 
f 674/29/14 670/30/14 679/31/14 680/32/14 
f 681/29/14 682/30/14 683/31/14 684/32/14 
f 685/33/4 686/34/4 687/35/4 681/36/4 
f 688/37/4 685/33/4 681/36/4 684/38/4 
f 689/37/4 687/33/4 686/34/4 690/35/4 
f 684/38/4 689/37/4 690/35/4 688/36/4 
f 687/29/10 691/30/10 682/31/10 681/32/10 
f 682/29/2 691/30/2 692/31/2 683/32/2 
f 684/29/6 683/30/6 692/31/6 689/32/6 
f 691/29/1 687/30/1 689/31/1 692/32/1 
f 685/29/1 688/30/1 693/31/1 694/32/1 
f 686/29/6 685/30/6 694/31/6 695/32/6 
f 694/77/4 693/78/4 696/79/4 695/80/4 
f 688/29/10 690/30/10 696/31/10 693/32/10 
f 690/29/14 686/30/14 695/31/14 696/32/14 
f 697/29/14 698/30/14 699/31/14 700/32/14 
s 1
f 701/33/4 702/34/4 703/35/4 697/36/4 
f 704/37/4 701/33/4 697/36/4 700/38/4 
f 705/37/4 703/33/4 702/34/4 706/35/4 
f 700/38/4 705/37/4 706/35/4 704/36/4 
s off
f 703/29/10 707/30/10 698/31/10 697/32/10 
f 698/29/2 707/30/2 708/31/2 699/32/2 
f 700/29/6 699/30/6 708/31/6 705/32/6 
f 707/29/1 703/30/1 705/31/1 708/32/1 
f 701/29/1 704/30/1 709/31/1 710/32/1 
f 702/29/6 701/30/6 710/31/6 711/32/6 
f 710/77/4 709/78/4 712/79/4 711/80/4 
f 704/29/10 706/30/10 712/31/10 709/32/10 
f 706/29/14 702/30/14 711/31/14 712/32/14 
f 713/5/14 714/6/14 715/7/14 716/8/14 
f 714/5/2 717/6/2 718/7/2 715/8/2 
f 717/5/1 719/6/1 720/7/1 718/8/1 
f 719/5/4 713/6/4 716/7/4 720/8/4 
f 716/5/26 715/6/26 718/7/26 720/8/26 
s 1
f 713/5/6 719/6/6 721/7/6 722/8/6 
s off
f 722/5/4 721/6/4 723/7/4 724/8/4 
s 1
f 719/5/6 717/6/6 725/7/6 721/8/6 
f 717/5/6 714/6/6 726/7/6 725/8/6 
f 714/5/6 713/6/6 722/7/6 726/8/6 
s off
f 724/5/18 723/6/18 727/7/18 728/8/18 
f 721/5/1 725/6/1 729/7/1 723/8/1 
f 725/5/2 726/6/2 730/7/2 729/8/2 
f 726/5/14 722/6/14 724/7/14 730/8/14 
f 728/5/4 727/6/4 731/7/4 732/8/4 
f 723/5/19 729/6/19 733/7/19 727/8/19 
f 729/5/20 730/6/20 734/7/20 733/8/20 
f 730/5/21 724/6/21 728/7/21 734/8/21 
f 731/5/10 735/6/10 736/7/10 732/8/10 
f 727/5/1 733/6/1 735/7/1 731/8/1 
f 733/5/2 734/6/2 736/7/2 735/8/2 
f 734/5/14 728/6/14 732/7/14 736/8/14 
f 737/29/14 738/30/14 739/31/14 740/32/14 
s 1
f 741/33/4 742/34/4 743/35/4 737/36/4 
f 744/37/4 741/33/4 737/36/4 740/38/4 
f 745/37/4 743/33/4 742/34/4 746/35/4 
f 740/38/4 745/37/4 746/35/4 744/36/4 
s off
f 743/29/10 747/30/10 738/31/10 737/32/10 
f 738/29/2 747/30/2 748/31/2 739/32/2 
f 740/29/6 739/30/6 748/31/6 745/32/6 
f 747/29/1 743/30/1 745/31/1 748/32/1 
f 741/29/1 744/30/1 749/31/1 750/32/1 
f 742/29/6 741/30/6 750/31/6 751/32/6 
f 750/77/4 749/78/4 752/79/4 751/80/4 
f 744/29/10 746/30/10 752/31/10 749/32/10 
f 746/29/14 742/30/14 751/31/14 752/32/14 
f 753/29/14 754/30/14 755/31/14 756/32/14 
s 1
f 757/33/4 758/34/4 759/35/4 753/36/4 
f 760/37/4 757/33/4 753/36/4 756/38/4 
f 761/37/4 759/33/4 758/34/4 762/35/4 
f 756/38/4 761/37/4 762/35/4 760/36/4 
s off
f 759/29/10 763/30/10 754/31/10 753/32/10 
f 754/29/2 763/30/2 764/31/2 755/32/2 
f 756/29/6 755/30/6 764/31/6 761/32/6 
f 763/29/1 759/30/1 761/31/1 764/32/1 
f 757/29/1 760/30/1 765/31/1 766/32/1 
f 758/29/6 757/30/6 766/31/6 767/32/6 
f 766/81/4 765/82/4 768/83/4 767/84/4 
f 760/29/10 762/30/10 768/31/10 765/32/10 
f 762/29/14 758/30/14 767/31/14 768/32/14 
s 1
f 769/85/14 770/85/14 771/85/14 772/85/14 
s off
f 773/86/9 774/87/9 775/88/9 776/89/9 
f 773/86/4 776/89/4 777/90/4 
f 778/91/30 779/92/30 780/92/30 769/91/30 
f 781/93/2 782/94/2 783/95/2 
f 776/93/31 781/94/31 784/95/31 785/96/31 
f 773/97/32 777/98/32 786/99/32 787/100/32 
s 1
f 788/87/4 777/88/4 776/89/4 774/90/4 
f 773/86/4 788/87/4 774/90/4 
s off
f 783/93/1 774/94/1 789/95/1 790/96/1 
f 781/93/2 783/94/2 790/95/2 784/96/2 
s 1
f 774/97/4 776/98/4 785/99/4 789/100/4 
s off
f 785/93/29 784/94/29 790/95/29 789/96/29 
f 788/97/33 773/98/33 787/99/33 791/100/33 
f 777/97/10 788/98/10 791/99/10 786/100/10 
s 1
f 792/101/4 791/102/4 787/103/4 793/104/4 
f 786/105/4 793/104/4 787/103/4 
f 791/104/4 792/101/4 794/102/4 786/105/4 
f 786/105/4 794/102/4 793/103/4 
s off
f 792/106/32 793/107/32 795/108/32 796/109/32 
f 794/106/33 792/107/33 796/108/33 797/109/33 
f 795/110/4 797/111/4 796/112/4 
f 793/106/10 794/107/10 797/108/10 795/109/10 
f 798/113/14 799/114/14 800/115/14 801/116/14 
f 802/117/4 798/118/4 801/119/4 803/120/4 
f 802/121/10 804/122/10 799/114/10 798/113/10 
f 804/122/34 805/123/34 806/124/34 807/125/34 
f 799/114/8 804/122/8 807/125/8 808/126/8 
f 799/114/2 808/126/2 809/127/2 800/115/2 
f 801/116/6 800/115/6 809/128/6 810/129/6 
f 811/130/6 806/131/6 805/132/6 803/133/6 
f 810/129/6 811/130/6 803/133/6 801/116/6 
f 804/122/1 802/121/1 803/133/1 805/132/1 
f 812/127/1 810/129/1 809/128/1 808/126/1 
f 811/130/2 810/129/2 812/127/2 813/134/2 
f 808/126/6 807/125/6 813/134/6 812/127/6 
f 807/125/14 806/131/14 811/130/14 813/134/14 
f 814/135/14 815/136/14 816/137/14 817/138/14 
f 815/135/2 818/136/2 819/137/2 816/138/2 
f 818/135/1 820/136/1 821/137/1 819/138/1 
f 820/135/4 814/136/4 817/137/4 821/138/4 
f 817/135/6 816/136/6 819/137/6 821/138/6 
f 820/135/10 818/136/10 815/137/10 814/138/10 
s 1
f 822/85/35 823/139/35 779/92/35 778/91/35 
s 2
f 824/85/36 825/139/36 823/92/36 822/91/36 
s off
f 822/85/35 778/91/35 826/91/35 827/85/35 
s 1
f 828/85/1 829/85/1 830/85/1 831/85/1 
s 2
f 823/92/36 825/139/36 832/139/36 833/92/36 
s off
f 776/140/32 775/141/32 834/141/32 835/140/32 
s 1
f 836/139/14 770/85/14 769/85/14 780/139/14 
f 837/139/1 829/85/1 828/85/1 838/139/1 
s off
f 825/139/37 824/85/37 838/85/37 828/139/37 
f 781/139/38 776/85/38 770/85/38 836/139/38 
f 778/91/30 769/91/30 772/91/30 826/91/30 
f 774/139/39 783/85/39 829/85/39 837/139/39 
f 824/85/36 822/91/36 827/91/36 839/85/36 
f 825/139/37 828/139/37 831/139/37 832/139/37 
s 4
f 840/139/34 841/85/2 842/85/2 833/139/2 
s 2
f 834/141/28 843/142/28 839/142/28 827/141/4 
s 4
f 844/92/34 840/139/34 833/139/2 832/92/34 
s 2
f 835/140/4 826/140/4 772/140/4 771/140/4 
f 835/140/4 834/141/28 827/141/4 826/140/4 
s 4
f 842/85/2 841/85/2 845/85/2 846/85/2 
s off
f 844/92/2 832/92/2 831/92/2 830/92/2 
s 2
f 839/142/28 843/142/28 847/142/4 848/142/4 
s off
f 774/139/39 837/139/39 847/139/39 843/139/39 
f 838/85/37 824/85/37 839/85/37 848/85/37 
f 775/141/33 774/142/33 843/142/33 834/141/33 
s 1
f 836/139/14 780/139/14 846/139/14 845/139/14 
s off
f 783/92/33 782/139/33 840/139/33 844/92/33 
s 1
f 779/92/35 823/139/35 833/139/35 842/92/35 
s off
f 780/92/30 779/92/30 842/92/30 846/92/30 
f 770/85/38 776/85/38 835/85/38 771/85/38 
s 1
f 837/139/1 838/139/1 848/139/1 847/139/1 
s off
f 829/85/39 783/85/39 844/85/39 830/85/39 
f 781/139/38 836/139/38 845/139/38 841/139/38 
f 782/139/32 781/85/32 841/85/32 840/139/32 
f 849/29/14 850/30/14 851/31/14 852/32/14 
f 853/33/4 854/34/4 855/35/4 849/36/4 
f 856/37/4 853/33/4 849/36/4 852/38/4 
f 857/37/4 855/33/4 854/34/4 858/35/4 
f 852/38/4 857/37/4 858/35/4 856/36/4 
f 855/29/10 859/30/10 850/31/10 849/32/10 
f 850/29/2 859/30/2 860/31/2 851/32/2 
f 852/29/6 851/30/6 860/31/6 857/32/6 
f 859/29/1 855/30/1 857/31/1 860/32/1 
f 853/29/1 856/30/1 861/31/1 862/32/1 
f 854/29/6 853/30/6 862/31/6 863/32/6 
f 862/77/4 861/78/4 864/79/4 863/80/4 
f 856/29/10 858/30/10 864/31/10 861/32/10 
f 858/29/14 854/30/14 863/31/14 864/32/14 
# 753 polygons - 10 triangles

