# 3ds Max Wavefront OBJ Exporter v0.97b - (c)2007 guruware
# File Created: 15.03.2017 10:52:47

mtllib SPB_Prop_Table.mtl

#
# object SPB_Prop_Table
#

v  -32.0457 43.5649 21.8230
v  32.0588 43.5649 21.8230
v  32.0588 43.5649 -21.8237
v  -32.0457 43.5649 -21.8237
v  32.0588 41.2637 21.8230
v  32.0588 41.2637 -21.8237
v  -32.0457 41.2636 21.8230
v  -32.0457 41.2637 -21.8237
v  -28.4235 42.3122 18.0321
v  -25.9324 42.3122 18.0321
v  -25.9324 42.3122 15.5409
v  -28.4235 42.3122 15.5409
v  -25.9324 0.0001 18.0321
v  -25.9324 0.0001 15.5409
v  -28.4235 0.0001 18.0321
v  -28.4235 0.0001 15.5409
v  25.7961 42.3122 18.0321
v  28.2872 42.3122 18.0321
v  28.2872 42.3122 15.5409
v  25.7961 42.3122 15.5409
v  28.2873 0.0000 18.0321
v  28.2873 0.0000 15.5409
v  25.7961 0.0000 18.0321
v  25.7961 0.0000 15.5409
v  25.7961 42.3122 -15.5339
v  28.2872 42.3122 -15.5339
v  28.2872 42.3122 -18.0250
v  25.7961 42.3122 -18.0250
v  28.2872 0.0001 -15.5339
v  28.2872 0.0001 -18.0250
v  25.7961 0.0001 -15.5339
v  25.7961 0.0001 -18.0250
v  -28.4235 42.3122 -15.5339
v  -25.9324 42.3122 -15.5339
v  -25.9324 42.3122 -18.0250
v  -28.4235 42.3122 -18.0250
v  -25.9324 0.0001 -15.5339
v  -25.9324 0.0001 -18.0250
v  -28.4235 0.0001 -15.5339
v  -28.4235 0.0001 -18.0250
# 40 vertices

vn -0.0000 1.0000 0.0000
vn 1.0000 -0.0000 0.0000
vn 0.0000 -1.0000 -0.0000
vn -1.0000 0.0000 -0.0000
vn 0.0000 0.0000 -1.0000
vn -0.0000 -0.0000 1.0000
vn 0.0000 1.0000 0.0000
vn 1.0000 0.0000 0.0000
vn -1.0000 -0.0000 -0.0000
vn 0.0000 -0.0000 1.0000
# 10 vertex normals

vt 0.1340 0.4642 0.0000
vt 0.1236 0.4691 0.0000
vt 0.1181 0.4648 0.0000
vt 0.1285 0.4599 0.0000
vt 0.3061 0.5164 0.0000
vt 0.3061 0.5161 0.0000
vt 0.3006 0.5118 0.0000
vt 0.3006 0.5121 0.0000
vt 0.1236 0.4688 0.0000
vt 0.1340 0.4639 0.0000
vt 0.1285 0.4596 0.0000
vt 0.1181 0.4645 0.0000
vt 0.3165 0.5112 0.0000
vt 0.3165 0.5115 0.0000
vt 0.3110 0.5072 0.0000
vt 0.3110 0.5069 0.0000
vt 0.1330 0.4639 0.0000
vt 0.1325 0.4641 0.0000
vt 0.1322 0.4639 0.0000
vt 0.1326 0.4637 0.0000
vt 0.1325 0.4572 0.0000
vt 0.1322 0.4570 0.0000
vt 0.1330 0.4571 0.0000
vt 0.1326 0.4568 0.0000
vt 0.1242 0.4681 0.0000
vt 0.1238 0.4683 0.0000
vt 0.1235 0.4680 0.0000
vt 0.1239 0.4678 0.0000
vt 0.1238 0.4614 0.0000
vt 0.1235 0.4611 0.0000
vt 0.1242 0.4612 0.0000
vt 0.1239 0.4610 0.0000
vt 0.1200 0.4648 0.0000
vt 0.1195 0.4650 0.0000
vt 0.1192 0.4647 0.0000
vt 0.1196 0.4645 0.0000
vt 0.1195 0.4581 0.0000
vt 0.1192 0.4578 0.0000
vt 0.1200 0.4579 0.0000
vt 0.1196 0.4577 0.0000
vt 0.1287 0.4606 0.0000
vt 0.1283 0.4608 0.0000
vt 0.1280 0.4606 0.0000
vt 0.1284 0.4604 0.0000
vt 0.1283 0.4539 0.0000
vt 0.1280 0.4537 0.0000
vt 0.1287 0.4537 0.0000
vt 0.1284 0.4535 0.0000
# 48 texture coords

g SPB_Prop_Table
usemtl SPB_Props
s off
f 1/1/1 2/2/1 3/3/1 4/4/1 
f 2/5/2 5/6/2 6/7/2 3/8/2 
f 5/9/3 7/10/3 8/11/3 6/12/3 
f 7/13/4 1/14/4 4/15/4 8/16/4 
f 4/15/5 3/8/5 6/7/5 8/16/5 
f 7/13/6 5/6/6 2/5/6 1/14/6 
f 9/17/7 10/18/7 11/19/7 12/20/7 
f 10/18/8 13/21/8 14/22/8 11/19/8 
f 13/21/3 15/23/3 16/24/3 14/22/3 
f 15/23/9 9/17/9 12/20/9 16/24/9 
f 12/20/5 11/19/5 14/22/5 16/24/5 
f 15/23/10 13/21/10 10/18/10 9/17/10 
f 17/25/7 18/26/7 19/27/7 20/28/7 
f 18/26/8 21/29/8 22/30/8 19/27/8 
f 21/29/3 23/31/3 24/32/3 22/30/3 
f 23/31/9 17/25/9 20/28/9 24/32/9 
f 20/28/5 19/27/5 22/30/5 24/32/5 
f 23/31/10 21/29/10 18/26/10 17/25/10 
f 25/33/7 26/34/7 27/35/7 28/36/7 
f 26/34/8 29/37/8 30/38/8 27/35/8 
f 29/37/3 31/39/3 32/40/3 30/38/3 
f 31/39/9 25/33/9 28/36/9 32/40/9 
f 28/36/5 27/35/5 30/38/5 32/40/5 
f 31/39/10 29/37/10 26/34/10 25/33/10 
f 33/41/7 34/42/7 35/43/7 36/44/7 
f 34/42/8 37/45/8 38/46/8 35/43/8 
f 37/45/3 39/47/3 40/48/3 38/46/3 
f 39/47/9 33/41/9 36/44/9 40/48/9 
f 36/44/5 35/43/5 38/46/5 40/48/5 
f 39/47/10 37/45/10 34/42/10 33/41/10 
# 30 polygons

