# 3ds Max Wavefront OBJ Exporter v0.97b - (c)2007 guruware
# File Created: 15.03.2017 10:51:57

mtllib SPB_Police Station.mtl

#
# object SPB_Police_Station
#

v  318.0580 519.4941 200.0439
v  318.0580 519.4941 205.6311
v  324.5866 518.8511 205.6311
v  324.5866 518.8511 200.0439
v  350.8796 492.5582 200.0439
v  351.5226 486.0296 200.0439
v  350.8796 479.5010 200.0439
v  345.8828 467.4377 200.0439
v  348.9752 473.2233 200.0439
v  341.7210 462.3666 200.0439
v  336.6499 458.2049 200.0439
v  324.5866 453.2081 200.0439
v  330.8643 455.1124 200.0439
v  318.0580 452.5651 200.0439
v  311.5294 453.2081 200.0439
v  299.4661 458.2049 200.0439
v  305.2516 455.1124 200.0439
v  294.3950 462.3666 200.0439
v  290.2332 467.4377 200.0439
v  285.2365 479.5010 200.0439
v  287.1408 473.2233 200.0439
v  284.5934 486.0297 200.0439
v  289.5999 486.0297 200.0439
v  290.1467 480.4778 200.0439
v  291.7661 475.1392 200.0439
v  294.3960 470.2192 200.0439
v  297.9351 465.9067 200.0439
v  302.2475 462.3676 200.0439
v  307.1676 459.7378 200.0439
v  312.5061 458.1184 200.0439
v  318.0580 457.5716 200.0439
v  323.6099 458.1183 200.0439
v  328.9485 459.7378 200.0439
v  333.8685 462.3676 200.0439
v  338.1809 465.9067 200.0439
v  341.7200 470.2191 200.0439
v  344.3498 475.1392 200.0439
v  345.9692 480.4777 200.0439
v  348.9752 498.8360 200.0439
v  330.8643 516.9468 200.0439
v  305.2517 516.9468 200.0439
v  336.6499 513.8544 200.0439
v  341.7210 509.6926 200.0439
v  345.8828 504.6216 200.0439
v  346.5161 486.0296 200.0439
v  345.9692 491.5815 200.0439
v  344.3498 496.9200 200.0439
v  341.7200 501.8401 200.0439
v  338.1809 506.1525 200.0439
v  333.8685 509.6917 200.0439
v  328.9485 512.3215 200.0439
v  323.6099 513.9409 200.0439
v  290.1467 491.5816 200.0439
v  291.7662 496.9201 200.0439
v  294.3960 501.8401 200.0439
v  294.3950 509.6927 200.0439
v  285.2365 492.5583 200.0439
v  287.1408 498.8360 200.0439
v  290.2333 504.6216 200.0439
v  297.9351 506.1526 200.0439
v  302.2476 509.6917 200.0439
v  307.1676 512.3215 200.0439
v  312.5062 513.9409 200.0439
v  299.4661 513.8544 200.0439
v  318.0580 514.4877 200.0439
v  311.5294 518.8511 200.0439
v  311.5294 518.8511 205.6311
v  318.0580 452.5651 205.6311
v  318.0580 457.5716 205.6311
v  312.5061 458.1184 205.6311
v  307.1676 459.7378 205.6311
v  318.0580 514.4877 205.6311
v  323.6099 513.9409 205.6311
v  312.5062 513.9409 205.6311
v  307.1676 512.3215 205.6311
v  302.2476 509.6917 205.6311
v  297.9351 506.1526 205.6311
v  290.2333 504.6216 205.6311
v  305.2517 516.9468 205.6311
v  299.4661 513.8544 205.6311
v  294.3950 509.6927 205.6311
v  294.3960 501.8401 205.6311
v  291.7662 496.9201 205.6311
v  290.1467 491.5816 205.6311
v  289.5999 486.0297 205.6311
v  287.1408 498.8360 205.6311
v  285.2365 492.5583 205.6311
v  285.2365 479.5010 205.6311
v  284.5934 486.0297 205.6311
v  290.1467 480.4778 205.6311
v  291.7661 475.1392 205.6311
v  294.3960 470.2192 205.6311
v  297.9351 465.9067 205.6311
v  299.4661 458.2049 205.6311
v  287.1408 473.2233 205.6311
v  290.2332 467.4377 205.6311
v  294.3950 462.3666 205.6311
v  302.2475 462.3676 205.6311
v  305.2516 455.1124 205.6311
v  311.5294 453.2081 205.6311
v  330.8643 516.9468 205.6311
v  323.6099 458.1183 205.6311
v  328.9485 459.7378 205.6311
v  333.8685 462.3676 205.6311
v  341.7210 462.3666 205.6311
v  324.5866 453.2081 205.6311
v  330.8643 455.1124 205.6311
v  336.6499 458.2049 205.6311
v  338.1809 465.9067 205.6311
v  341.7200 470.2191 205.6311
v  344.3498 475.1392 205.6311
v  345.9692 480.4778 205.6311
v  345.8828 467.4377 205.6311
v  348.9752 473.2233 205.6311
v  351.5226 486.0296 205.6311
v  350.8796 479.5010 205.6311
v  346.5161 486.0296 205.6311
v  345.9692 491.5815 205.6311
v  344.3498 496.9200 205.6311
v  341.7200 501.8401 205.6311
v  341.7210 509.6926 205.6311
v  350.8796 492.5582 205.6311
v  348.9752 498.8360 205.6311
v  345.8828 504.6216 205.6311
v  338.1809 506.1526 205.6311
v  333.8685 509.6917 205.6311
v  328.9485 512.3215 205.6311
v  336.6499 513.8544 205.6311
v  -95.7817 409.9430 -148.4139
v  -95.7817 426.1403 -148.4139
v  -51.2807 426.1403 -140.5672
v  -51.2807 409.9430 -140.5672
v  -12.1472 426.1403 -117.9734
v  -12.1472 409.9430 -117.9735
v  16.8987 426.1403 -83.3578
v  16.8987 409.9430 -83.3579
v  32.3538 426.1403 -40.8955
v  32.3538 409.9430 -40.8955
v  32.3538 426.1403 4.2920
v  32.3538 409.9430 4.2920
v  16.8987 426.1403 46.7543
v  16.8987 409.9430 46.7543
v  -12.1472 426.1403 81.3699
v  -12.1472 409.9430 81.3699
v  -51.2807 426.1402 103.9636
v  -51.2807 409.9429 103.9636
v  -95.7817 426.1402 111.8103
v  -95.7817 409.9429 111.8103
v  -140.2826 426.1402 103.9636
v  -140.2826 409.9429 103.9636
v  -179.4161 426.1403 81.3699
v  -179.4161 409.9430 81.3699
v  -208.4621 426.1403 46.7543
v  -208.4621 409.9430 46.7543
v  -223.9171 426.1403 4.2920
v  -223.9171 409.9430 4.2920
v  -223.9171 426.1403 -40.8955
v  -223.9171 409.9430 -40.8955
v  -208.4621 426.1403 -83.3578
v  -208.4621 409.9430 -83.3578
v  -179.4162 426.1403 -117.9734
v  -179.4162 409.9430 -117.9734
v  23.6658 426.1403 -39.3636
v  23.6658 426.1403 2.7600
v  -140.2827 409.9430 -140.5672
v  -140.2827 426.1403 -140.5672
v  23.6658 432.5702 -39.3636
v  23.6658 432.5702 2.7600
v  -200.8220 426.1403 -78.9468
v  -173.7455 426.1403 -111.2154
v  -95.7817 426.1403 -139.5919
v  -54.2980 426.1403 -132.2772
v  -17.8179 426.1403 74.6118
v  -54.2980 426.1403 95.6737
v  -137.2653 426.1403 95.6737
v  -173.7454 426.1403 74.6119
v  -17.8179 426.1403 -111.2154
v  9.2587 426.1403 -78.9468
v  -215.2291 426.1403 2.7601
v  -215.2291 426.1403 -39.3635
v  -137.2654 426.1403 -132.2772
v  9.2587 426.1403 42.3433
v  -95.7817 426.1402 102.9883
v  -200.8220 426.1403 42.3433
v  -54.2980 432.5703 -132.2772
v  -95.7817 432.5703 -139.5919
v  -137.2654 432.5703 -132.2772
v  -173.7455 432.5703 -111.2154
v  -200.8220 432.5702 -78.9468
v  -215.2291 432.5702 -39.3635
v  -215.2291 432.5702 2.7601
v  -200.8220 432.5702 42.3433
v  -173.7454 432.5702 74.6119
v  -137.2653 432.5702 95.6737
v  -95.7817 432.5702 102.9883
v  -54.2980 432.5702 95.6737
v  -17.8179 432.5702 74.6118
v  9.2587 432.5702 42.3433
v  9.2587 432.5702 -78.9468
v  -17.8179 432.5703 -111.2154
v  -320.2864 268.4636 205.9732
v  -270.0895 268.4636 205.9732
v  -270.0895 268.4636 204.0281
v  -320.2864 268.4636 204.0281
v  -270.0895 352.1251 205.9732
v  -270.0895 352.1251 204.0281
v  -320.2864 352.1251 205.9732
v  -320.2864 352.1251 204.0281
v  -261.7234 360.4912 139.0441
v  -261.7234 360.4912 205.9732
v  -261.7234 260.0975 205.9732
v  -261.7234 260.0975 139.0441
v  -328.6525 260.0975 205.9732
v  -328.6525 260.0975 139.0441
v  -328.6525 360.4912 139.0441
v  -328.6525 360.4912 205.9732
v  -150.4594 268.4636 205.9732
v  -100.2625 268.4636 205.9732
v  -100.2625 268.4636 204.0281
v  -150.4594 268.4636 204.0281
v  -100.2625 352.1251 205.9732
v  -100.2625 352.1251 204.0281
v  -150.4594 352.1251 205.9732
v  -150.4594 352.1251 204.0281
v  -91.8964 360.4912 139.0441
v  -91.8964 360.4912 205.9732
v  -91.8964 260.0975 205.9732
v  -91.8964 260.0975 139.0441
v  -158.8255 260.0975 205.9732
v  -158.8255 260.0975 139.0441
v  -158.8255 360.4912 139.0441
v  -158.8255 360.4912 205.9732
v  18.7048 268.4636 205.9732
v  68.9017 268.4636 205.9732
v  68.9017 268.4636 204.0281
v  18.7048 268.4636 204.0281
v  68.9017 352.1251 205.9732
v  68.9017 352.1251 204.0281
v  18.7048 352.1251 205.9732
v  18.7048 352.1251 204.0281
v  77.2678 360.4912 139.0441
v  77.2678 360.4912 205.9732
v  77.2678 260.0975 205.9732
v  77.2678 260.0975 139.0441
v  10.3387 260.0975 205.9732
v  10.3387 260.0975 139.0441
v  10.3387 360.4912 139.0441
v  10.3387 360.4912 205.9732
v  318.1972 514.4382 202.5555
v  318.1972 514.4383 205.6487
v  324.0948 494.0046 205.6485
v  324.0948 494.0046 202.5556
v  345.3510 494.7099 205.6487
v  345.3510 494.7099 202.5555
v  327.7398 482.7866 205.6485
v  327.7398 482.7866 202.5556
v  334.9792 462.7888 205.6487
v  334.9792 462.7888 202.5555
v  318.1972 475.8535 205.6485
v  318.1972 475.8535 202.5556
v  301.4153 462.7888 205.6487
v  301.4153 462.7888 202.5555
v  308.6547 482.7866 205.6485
v  308.6547 482.7866 202.5556
v  291.0435 494.7099 205.6487
v  291.0435 494.7099 202.5555
v  312.2996 494.0046 205.6485
v  313.3393 492.5736 205.6486
v  318.1972 509.4052 205.6487
v  312.2996 494.0046 202.5556
v  313.3393 492.5736 205.6312
v  318.1972 509.4052 205.6313
v  295.8303 493.1546 205.6487
v  310.3369 483.3332 205.6486
v  304.3737 466.8607 205.6487
v  318.1972 477.6223 205.6486
v  332.0208 466.8607 205.6487
v  326.0576 483.3332 205.6486
v  340.5641 493.1546 205.6487
v  323.0552 492.5736 205.6486
v  323.0552 492.5736 205.6312
v  326.0576 483.3332 205.6312
v  295.8303 493.1546 205.6313
v  310.3369 483.3332 205.6312
v  318.1972 477.6223 205.6312
v  304.3737 466.8607 205.6313
v  332.0208 466.8607 205.6313
v  340.5641 493.1546 205.6313
v  370.5570 172.6545 272.0574
v  370.5570 172.6545 255.3251
v  370.5570 44.8738 255.3251
v  370.5570 44.8738 272.0574
v  387.2893 172.6545 255.3251
v  387.2893 44.8738 255.3251
v  387.2893 172.6545 272.0574
v  387.2893 44.8738 272.0574
v  368.4655 44.8738 274.1489
v  389.3808 44.8738 274.1489
v  389.3808 172.6545 274.1490
v  368.4655 172.6545 274.1490
v  389.3808 180.5593 274.1490
v  368.4655 180.5593 274.1490
v  389.3808 172.6545 253.2336
v  368.4655 172.6545 253.2336
v  389.3808 180.5593 253.2336
v  368.4655 180.5593 253.2336
v  368.4655 26.6251 274.1489
v  389.3808 26.6251 274.1489
v  389.3808 44.8738 253.2335
v  368.4655 44.8738 253.2335
v  368.4655 26.6251 253.2336
v  389.3808 26.6251 253.2336
v  247.8783 172.6545 272.0574
v  247.8783 172.6545 255.3251
v  247.8783 44.8738 255.3251
v  247.8783 44.8738 272.0574
v  264.6106 172.6545 255.3251
v  264.6106 44.8738 255.3251
v  264.6106 172.6545 272.0574
v  264.6106 44.8738 272.0574
v  245.7867 44.8738 274.1489
v  266.7021 44.8738 274.1489
v  266.7021 172.6545 274.1490
v  245.7867 172.6545 274.1490
v  266.7021 180.5593 274.1490
v  245.7867 180.5593 274.1490
v  266.7021 172.6545 253.2336
v  245.7867 172.6545 253.2336
v  266.7021 180.5593 253.2336
v  245.7867 180.5593 253.2336
v  245.7867 26.6251 274.1489
v  266.7021 26.6251 274.1489
v  266.7021 44.8738 253.2336
v  245.7867 44.8738 253.2336
v  245.7867 26.6251 253.2336
v  266.7021 26.6251 253.2336
v  317.5096 262.4692 283.0688
v  317.5096 262.4693 167.4708
v  235.7695 180.7291 167.4708
v  235.7695 180.7292 283.0688
v  244.9297 183.7826 283.0688
v  317.5096 256.3624 283.0688
v  399.2498 180.7291 283.0688
v  399.2498 180.7291 167.4708
v  362.7318 180.7291 167.4708
v  362.5200 182.4701 167.4708
v  359.9085 189.4415 167.4708
v  355.6676 195.8664 167.4708
v  349.9603 201.4979 167.4708
v  343.0060 206.1196 167.4708
v  335.0718 209.5538 167.4708
v  326.4628 211.6685 167.4708
v  317.5096 212.3826 167.4708
v  308.5566 211.6685 167.4708
v  299.9475 209.5538 167.4708
v  292.0133 206.1196 167.4708
v  285.0590 201.4980 167.4708
v  279.3517 195.8665 167.4708
v  275.1108 189.4416 167.4708
v  272.4992 182.4701 167.4708
v  272.2875 180.7291 167.4708
v  272.2875 180.7291 283.0688
v  390.0895 183.7825 283.0688
v  272.4992 182.4701 283.0688
v  272.9909 183.7826 283.0688
v  244.9297 183.7826 280.3228
v  317.5096 256.3624 280.3228
v  362.7318 180.7291 283.0688
v  362.0284 183.7825 283.0688
v  362.5200 182.4701 283.0688
v  390.0895 183.7825 280.3228
v  272.9909 183.7826 280.3228
v  275.1108 189.4416 280.3228
v  279.3517 195.8665 280.3228
v  285.0590 201.4980 280.3228
v  292.0133 206.1196 280.3228
v  299.9475 209.5538 280.3228
v  308.5566 211.6685 280.3228
v  317.5096 212.3826 280.3228
v  326.4628 211.6685 280.3228
v  335.0718 209.5538 280.3228
v  343.0060 206.1196 280.3228
v  359.9085 189.4415 280.3228
v  362.0284 183.7825 280.3228
v  355.6676 195.8665 280.3228
v  349.9603 201.4980 280.3228
v  -320.2864 68.3786 205.9732
v  -270.0895 68.3786 205.9732
v  -270.0895 68.3786 204.0281
v  -320.2864 68.3786 204.0281
v  -270.0895 152.0401 205.9732
v  -270.0895 152.0401 204.0281
v  -320.2864 152.0401 205.9732
v  -320.2864 152.0401 204.0281
v  -261.7234 160.4062 139.0441
v  -261.7234 160.4062 205.9732
v  -261.7234 60.0125 205.9732
v  -261.7234 60.0125 139.0441
v  -328.6525 60.0125 205.9732
v  -328.6525 60.0125 139.0441
v  -328.6525 160.4062 139.0441
v  -328.6525 160.4062 205.9732
v  -150.4594 68.3786 205.9732
v  -100.2625 68.3786 205.9732
v  -100.2625 68.3786 204.0281
v  -150.4594 68.3786 204.0281
v  -100.2625 152.0401 205.9732
v  -100.2625 152.0401 204.0281
v  -150.4594 152.0401 205.9732
v  -150.4594 152.0401 204.0281
v  -91.8964 160.4062 139.0441
v  -91.8964 160.4062 205.9732
v  -91.8964 60.0125 205.9732
v  -91.8964 60.0125 139.0441
v  -158.8255 60.0125 205.9732
v  -158.8255 60.0125 139.0441
v  -158.8255 160.4062 139.0441
v  -158.8255 160.4062 205.9732
v  18.7048 68.3786 205.9732
v  68.9017 68.3786 205.9732
v  68.9017 68.3786 204.0281
v  18.7048 68.3786 204.0281
v  68.9017 152.0401 205.9732
v  68.9017 152.0401 204.0281
v  18.7048 152.0401 205.9732
v  18.7048 152.0401 204.0281
v  77.2678 160.4062 139.0441
v  77.2678 160.4062 205.9732
v  77.2678 60.0125 205.9732
v  77.2678 60.0125 139.0441
v  10.3387 60.0125 205.9732
v  10.3387 60.0125 139.0441
v  10.3387 160.4062 139.0441
v  10.3387 160.4062 205.9732
v  276.0826 159.0347 205.9490
v  276.0826 159.0347 139.0199
v  276.0826 25.1764 139.0199
v  276.0826 25.1764 205.9490
v  282.7756 25.1764 205.9490
v  282.7756 152.3418 205.9490
v  359.7441 159.0347 205.9490
v  353.0512 152.3418 205.9490
v  353.0512 25.1764 205.9490
v  359.7441 25.1764 205.9490
v  359.7441 159.0347 139.0199
v  359.7441 25.1764 139.0199
v  282.7756 25.1764 204.2794
v  353.0512 25.1764 204.2794
v  282.7756 152.3418 204.2794
v  353.0512 152.3418 204.2794
v  173.5136 0.0000 -231.9251
v  173.5135 -0.0000 203.1143
v  -435.0395 -0.0000 203.1142
v  -435.0392 0.0000 -231.9251
v  200.7873 401.5748 203.1144
v  200.7878 401.5748 -231.9250
v  200.7878 435.0394 -231.9250
v  200.7873 435.0393 203.1144
v  435.0395 221.6951 -231.9250
v  435.0395 401.5748 -231.9250
v  435.0391 401.5748 203.1144
v  435.0392 221.6951 203.1144
v  173.5134 221.6951 203.1143
v  173.5133 401.5748 203.1144
v  -435.0396 401.5748 203.1142
v  -435.0395 221.6951 203.1142
v  -435.0393 401.5748 -231.9251
v  -435.0393 221.6951 -231.9251
v  173.5136 25.1182 -231.9251
v  -435.0392 25.1182 -231.9252
v  435.0393 25.1182 -231.9251
v  435.0393 0.0000 -231.9251
v  200.7876 0.0000 -231.9251
v  200.7876 25.1182 -231.9251
v  200.7874 221.6951 203.1143
v  200.7878 435.7769 -231.9250
v  200.7873 435.7768 203.1144
v  200.7873 561.1842 203.1144
v  200.7878 561.1844 -231.9250
v  435.0393 -0.0000 203.1143
v  200.7876 -0.0000 203.1143
v  200.7873 594.6488 203.1144
v  200.7878 594.6490 -231.9250
v  435.0391 435.7768 203.1144
v  435.0391 561.1842 203.1144
v  435.0395 435.7769 -231.9250
v  435.0395 561.1844 -231.9249
v  180.5581 435.0394 -211.6515
v  180.5577 435.0393 182.8409
v  -435.0396 435.0393 203.1143
v  -435.0393 435.0394 -231.9250
v  173.5133 435.0393 203.1144
v  173.5137 401.5748 -231.9250
v  173.5137 435.0394 -231.9250
v  180.5581 421.7419 -211.6515
v  180.5577 421.7418 182.8409
v  -414.8098 435.0393 182.8407
v  -414.8097 435.0394 -211.6516
v  155.0191 435.0393 182.8409
v  155.0195 435.0394 -211.6515
v  155.0195 421.7419 -211.6515
v  -414.8097 421.7419 -211.6516
v  -414.8098 421.7418 182.8407
v  155.0191 421.7418 182.8409
v  221.0479 594.6489 182.9881
v  221.0482 594.6490 -211.7988
v  435.0391 594.6488 203.1144
v  435.0395 594.6490 -231.9250
v  221.0479 582.7780 182.9881
v  221.0482 582.7781 -211.7988
v  414.7786 594.6489 182.9882
v  414.7790 594.6490 -211.7987
v  414.7790 582.7781 -211.7987
v  414.7786 582.7780 182.9882
v  435.0393 25.1182 203.1143
v  200.7876 25.1182 203.1143
v  435.0395 197.0874 -231.9250
v  200.7877 197.0874 -231.9250
v  173.5136 197.0874 -231.9250
v  -435.0393 197.0874 -231.9251
v  -435.0395 25.1182 203.1142
v  173.5135 25.1182 203.1143
v  173.5136 221.6951 -231.9251
v  200.7877 221.6951 -231.9251
v  435.0392 197.0874 203.1143
v  200.7874 197.0874 203.1143
v  -435.0395 197.0874 203.1142
v  173.5134 197.0874 203.1143
v  219.1512 13.3858 299.7884
v  219.1512 13.3858 198.9189
v  219.1512 -0.0001 198.9189
v  219.1512 -0.0001 299.7884
v  416.0956 13.3858 198.9189
v  416.0956 -0.0001 198.9189
v  416.0956 13.3858 299.7884
v  416.0956 -0.0001 299.7884
v  235.8834 26.7716 283.0561
v  235.8834 26.7716 182.1867
v  235.8834 13.3858 182.1867
v  235.8834 13.3858 283.0561
v  399.3634 26.7716 182.1867
v  399.3634 13.3858 182.1867
v  399.3634 26.7716 283.0561
v  399.3634 13.3858 283.0561
# 544 vertices

vn 0.0980 0.9952 0.0000
vn 0.0000 0.0000 -1.0000
vn 0.0000 -0.0000 -1.0000
vn -0.0000 -0.0000 -1.0000
vn -0.0000 0.0000 -1.0000
vn -0.0980 0.9952 0.0000
vn 0.0000 -0.0000 1.0000
vn 0.0000 0.0000 1.0000
vn -0.0000 -0.0000 1.0000
vn -0.0000 0.0000 1.0000
vn 0.2903 0.9569 0.0000
vn 0.4714 0.8819 0.0000
vn 0.6344 0.7730 0.0000
vn 0.7730 0.6344 0.0000
vn 0.8819 0.4714 0.0000
vn 0.9569 0.2903 0.0000
vn 0.9952 0.0980 0.0000
vn 0.9952 -0.0980 -0.0000
vn 0.9569 -0.2903 -0.0000
vn 0.8819 -0.4714 -0.0000
vn 0.7730 -0.6344 -0.0000
vn 0.6344 -0.7730 -0.0000
vn 0.4714 -0.8819 -0.0000
vn 0.2903 -0.9569 -0.0000
vn 0.0980 -0.9952 -0.0000
vn -0.0980 -0.9952 -0.0000
vn -0.2903 -0.9569 -0.0000
vn -0.4714 -0.8819 -0.0000
vn -0.6344 -0.7730 -0.0000
vn -0.7730 -0.6344 -0.0000
vn -0.8819 -0.4714 -0.0000
vn -0.9569 -0.2903 -0.0000
vn -0.9952 -0.0980 -0.0000
vn -0.9952 0.0980 0.0000
vn -0.9569 0.2903 0.0000
vn -0.8819 0.4714 0.0000
vn -0.7730 0.6344 0.0000
vn -0.6344 0.7730 0.0000
vn -0.4714 0.8819 0.0000
vn -0.2903 0.9569 0.0000
vn -0.0980 -0.9952 0.0000
vn -0.2903 -0.9569 0.0000
vn -0.6344 -0.7730 0.0000
vn -0.7730 -0.6344 0.0000
vn -0.9952 0.0980 -0.0000
vn -0.9569 0.2903 -0.0000
vn -0.7730 0.6344 -0.0000
vn -0.6344 0.7730 -0.0000
vn 0.1736 0.0000 -0.9848
vn 0.5000 0.0000 -0.8660
vn 0.7660 0.0000 -0.6428
vn 0.9397 0.0000 -0.3420
vn 1.0000 -0.0000 0.0000
vn 0.9397 -0.0000 0.3420
vn 0.7660 -0.0000 0.6428
vn 0.5000 -0.0000 0.8660
vn 0.1736 -0.0000 0.9848
vn -0.1736 -0.0000 0.9848
vn -0.5000 -0.0000 0.8660
vn -0.7660 -0.0000 0.6428
vn -0.9397 -0.0000 0.3420
vn -1.0000 -0.0000 0.0000
vn -0.9397 0.0000 -0.3420
vn -0.7660 0.0000 -0.6428
vn 0.0000 1.0000 -0.0000
vn -0.0000 1.0000 -0.0000
vn -0.1736 0.0000 -0.9848
vn -0.5000 0.0000 -0.8660
vn 0.0000 -1.0000 -0.0000
vn -0.0000 -1.0000 0.0000
vn -0.0000 -1.0000 -0.0000
vn 0.0000 -1.0000 0.0000
vn -0.0000 1.0000 0.0000
vn 0.0000 1.0000 0.0000
vn -1.0000 0.0000 -0.0000
vn 1.0000 0.0000 -0.0000
vn 0.9608 0.2773 -0.0000
vn -0.0332 0.9994 0.0000
vn 0.5606 -0.8281 -0.0000
vn 0.9403 0.3404 0.0000
vn -0.6143 -0.7891 -0.0000
vn 0.6143 -0.7891 -0.0000
vn -0.9403 0.3404 0.0000
vn -0.5606 -0.8281 -0.0000
vn -0.9608 0.2773 -0.0000
vn 0.0332 0.9994 0.0000
vn 0.9608 -0.2773 -0.0000
vn -0.0332 -0.9994 -0.0000
vn 0.5606 0.8281 0.0000
vn 0.9403 -0.3404 -0.0000
vn -0.6143 0.7891 0.0000
vn 0.6143 0.7891 0.0000
vn -0.9403 -0.3404 -0.0000
vn -0.5606 0.8281 0.0000
vn 0.0332 -0.9994 -0.0000
vn -0.9608 -0.2773 -0.0000
vn -0.7071 0.7071 -0.0000
vn 0.7071 0.7071 -0.0000
vn 0.7071 -0.7071 -0.0000
vn -0.7071 -0.7071 -0.0000
vn -0.0795 -0.9968 0.0000
vn 0.0795 -0.9968 0.0000
vn -0.2386 -0.9711 0.0000
vn 0.2386 -0.9711 0.0000
vn -0.3972 -0.9177 0.0000
vn 0.3972 -0.9177 0.0000
vn -0.5535 -0.8329 0.0000
vn 0.5535 -0.8329 0.0000
vn -0.7024 -0.7118 0.0000
vn 0.7024 -0.7118 0.0000
vn -0.8346 -0.5509 0.0000
vn 0.8346 -0.5509 -0.0000
vn -0.9365 -0.3508 0.0000
vn -0.9365 -0.3508 -0.0000
vn 0.9364 -0.3508 -0.0000
vn 0.9365 -0.3508 -0.0000
vn -0.9927 -0.1207 0.0000
vn 0.9927 -0.1207 -0.0000
vn 1.0000 0.0000 0.0000
vn -1.0000 -0.0000 -0.0000
vn -0.0000 0.4487 0.8937
vn 0.0000 0.4487 0.8937
vn -0.7071 -0.0000 -0.7071
# 123 vertex normals

vt 0.9493 0.9576 0.0000
vt 0.9490 0.9570 0.0000
vt 0.9503 0.9567 0.0000
vt 0.9506 0.9572 0.0000
vt 0.9559 0.9516 0.0000
vt 0.9560 0.9503 0.0000
vt 0.9559 0.9491 0.0000
vt 0.9549 0.9470 0.0000
vt 0.9555 0.9480 0.0000
vt 0.9541 0.9462 0.0000
vt 0.9530 0.9456 0.0000
vt 0.9506 0.9450 0.0000
vt 0.9519 0.9451 0.0000
vt 0.9493 0.9450 0.0000
vt 0.9480 0.9454 0.0000
vt 0.9456 0.9466 0.0000
vt 0.9467 0.9459 0.0000
vt 0.9446 0.9476 0.0000
vt 0.9437 0.9486 0.0000
vt 0.9427 0.9510 0.0000
vt 0.9431 0.9498 0.0000
vt 0.9426 0.9523 0.0000
vt 0.9436 0.9521 0.0000
vt 0.9437 0.9511 0.0000
vt 0.9440 0.9500 0.0000
vt 0.9446 0.9490 0.0000
vt 0.9453 0.9481 0.0000
vt 0.9461 0.9473 0.0000
vt 0.9471 0.9467 0.0000
vt 0.9482 0.9462 0.0000
vt 0.9493 0.9460 0.0000
vt 0.9504 0.9459 0.0000
vt 0.9515 0.9461 0.0000
vt 0.9525 0.9464 0.0000
vt 0.9533 0.9469 0.0000
vt 0.9541 0.9477 0.0000
vt 0.9546 0.9485 0.0000
vt 0.9549 0.9494 0.0000
vt 0.9555 0.9528 0.0000
vt 0.9519 0.9567 0.0000
vt 0.9467 0.9575 0.0000
vt 0.9530 0.9560 0.0000
vt 0.9541 0.9550 0.0000
vt 0.9549 0.9540 0.0000
vt 0.9550 0.9505 0.0000
vt 0.9549 0.9515 0.0000
vt 0.9546 0.9526 0.0000
vt 0.9541 0.9536 0.0000
vt 0.9533 0.9545 0.0000
vt 0.9525 0.9553 0.0000
vt 0.9515 0.9559 0.0000
vt 0.9504 0.9564 0.0000
vt 0.9437 0.9532 0.0000
vt 0.9440 0.9541 0.0000
vt 0.9446 0.9549 0.0000
vt 0.9446 0.9564 0.0000
vt 0.9427 0.9535 0.0000
vt 0.9431 0.9546 0.0000
vt 0.9437 0.9556 0.0000
vt 0.9453 0.9556 0.0000
vt 0.9461 0.9562 0.0000
vt 0.9471 0.9565 0.0000
vt 0.9482 0.9567 0.0000
vt 0.9456 0.9570 0.0000
vt 0.9493 0.9566 0.0000
vt 0.9480 0.9576 0.0000
vt 0.9476 0.9571 0.0000
vt 0.9490 0.9445 0.0000
vt 0.9490 0.9455 0.0000
vt 0.9478 0.9457 0.0000
vt 0.9468 0.9462 0.0000
vt 0.9490 0.9561 0.0000
vt 0.9501 0.9558 0.0000
vt 0.9478 0.9562 0.0000
vt 0.9468 0.9560 0.0000
vt 0.9458 0.9557 0.0000
vt 0.9449 0.9551 0.0000
vt 0.9434 0.9551 0.0000
vt 0.9464 0.9569 0.0000
vt 0.9452 0.9565 0.0000
vt 0.9442 0.9559 0.0000
vt 0.9442 0.9544 0.0000
vt 0.9437 0.9536 0.0000
vt 0.9434 0.9526 0.0000
vt 0.9432 0.9516 0.0000
vt 0.9428 0.9541 0.0000
vt 0.9424 0.9530 0.0000
vt 0.9424 0.9505 0.0000
vt 0.9422 0.9518 0.0000
vt 0.9434 0.9506 0.0000
vt 0.9437 0.9495 0.0000
vt 0.9442 0.9485 0.0000
vt 0.9449 0.9476 0.0000
vt 0.9452 0.9461 0.0000
vt 0.9428 0.9493 0.0000
vt 0.9434 0.9481 0.0000
vt 0.9442 0.9471 0.0000
vt 0.9458 0.9468 0.0000
vt 0.9464 0.9454 0.0000
vt 0.9476 0.9448 0.0000
vt 0.9515 0.9562 0.0000
vt 0.9501 0.9454 0.0000
vt 0.9511 0.9456 0.0000
vt 0.9521 0.9459 0.0000
vt 0.9537 0.9457 0.0000
vt 0.9503 0.9445 0.0000
vt 0.9515 0.9446 0.0000
vt 0.9527 0.9450 0.0000
vt 0.9530 0.9464 0.0000
vt 0.9537 0.9471 0.0000
vt 0.9542 0.9480 0.0000
vt 0.9545 0.9489 0.0000
vt 0.9545 0.9465 0.0000
vt 0.9552 0.9475 0.0000
vt 0.9557 0.9498 0.0000
vt 0.9555 0.9486 0.0000
vt 0.9547 0.9500 0.0000
vt 0.9545 0.9510 0.0000
vt 0.9542 0.9521 0.0000
vt 0.9537 0.9531 0.0000
vt 0.9537 0.9545 0.0000
vt 0.9555 0.9510 0.0000
vt 0.9552 0.9523 0.0000
vt 0.9545 0.9534 0.0000
vt 0.9530 0.9540 0.0000
vt 0.9521 0.9547 0.0000
vt 0.9511 0.9554 0.0000
vt 0.9527 0.9554 0.0000
vt 0.6107 0.0289 0.0000
vt 0.6607 0.0289 0.0000
vt 0.6607 0.0789 0.0000
vt 0.6107 0.0789 0.0000
vt 0.6357 0.0789 0.0000
vt 0.6443 0.0773 0.0000
vt 0.6518 0.0730 0.0000
vt 0.6574 0.0664 0.0000
vt 0.6603 0.0582 0.0000
vt 0.6603 0.0495 0.0000
vt 0.6574 0.0414 0.0000
vt 0.6518 0.0347 0.0000
vt 0.6443 0.0304 0.0000
vt 0.6357 0.0289 0.0000
vt 0.6272 0.0304 0.0000
vt 0.6196 0.0347 0.0000
vt 0.6141 0.0414 0.0000
vt 0.6111 0.0495 0.0000
vt 0.6111 0.0582 0.0000
vt 0.6141 0.0664 0.0000
vt 0.6196 0.0730 0.0000
vt 0.6272 0.0773 0.0000
vt 0.5427 0.3698 0.0000
vt 0.4861 0.3798 0.0000
vt 0.4294 0.3698 0.0000
vt 0.3796 0.3410 0.0000
vt 0.3427 0.2970 0.0000
vt 0.3230 0.2429 0.0000
vt 0.3230 0.1854 0.0000
vt 0.3427 0.1314 0.0000
vt 0.3796 0.0874 0.0000
vt 0.4294 0.0586 0.0000
vt 0.4861 0.0486 0.0000
vt 0.5427 0.0586 0.0000
vt 0.5925 0.0874 0.0000
vt 0.6294 0.1314 0.0000
vt 0.6491 0.1854 0.0000
vt 0.6491 0.2429 0.0000
vt 0.6294 0.2970 0.0000
vt 0.5925 0.3410 0.0000
vt 0.5810 0.9495 0.0000
vt 0.5848 0.9495 0.0000
vt 0.5849 0.9496 0.0000
vt 0.5810 0.9496 0.0000
vt 0.5842 0.9476 0.0000
vt 0.5842 0.9475 0.0000
vt 0.5817 0.9476 0.0000
vt 0.5816 0.9475 0.0000
vt 0.8579 0.6211 0.0000
vt 0.8579 0.4360 0.0000
vt 0.9689 0.4360 0.0000
vt 0.9689 0.6211 0.0000
vt 0.5842 0.9483 0.0000
vt 0.5851 0.9495 0.0000
vt 0.5869 0.9489 0.0000
vt 0.5808 0.9495 0.0000
vt 0.5790 0.9489 0.0000
vt 0.5816 0.9483 0.0000
vt 0.5816 0.9476 0.0000
vt 0.9492 0.9564 0.0000
vt 0.9502 0.9521 0.0000
vt 0.9504 0.9524 0.0000
vt 0.9544 0.9516 0.0000
vt 0.9546 0.9519 0.0000
vt 0.9509 0.9499 0.0000
vt 0.9511 0.9502 0.0000
vt 0.9523 0.9459 0.0000
vt 0.9525 0.9462 0.0000
vt 0.9490 0.9489 0.0000
vt 0.9492 0.9492 0.0000
vt 0.9456 0.9469 0.0000
vt 0.9458 0.9472 0.0000
vt 0.9471 0.9505 0.0000
vt 0.9473 0.9507 0.0000
vt 0.9435 0.9532 0.0000
vt 0.9437 0.9535 0.0000
vt 0.9478 0.9524 0.0000
vt 0.9480 0.9521 0.0000
vt 0.9490 0.9552 0.0000
vt 0.9480 0.9527 0.0000
vt 0.9445 0.9528 0.0000
vt 0.9474 0.9505 0.0000
vt 0.9462 0.9476 0.0000
vt 0.9490 0.9492 0.0000
vt 0.9518 0.9468 0.0000
vt 0.9506 0.9500 0.0000
vt 0.9535 0.9515 0.0000
vt 0.9500 0.9519 0.0000
vt 0.4271 0.9232 0.0000
vt 0.4791 0.9232 0.0000
vt 0.4791 0.9752 0.0000
vt 0.4271 0.9752 0.0000
vt 0.0326 0.5404 0.0000
vt 0.0846 0.5404 0.0000
vt 0.0846 0.5924 0.0000
vt 0.0326 0.5924 0.0000
vt 0.4098 0.9624 0.0000
vt 0.4156 0.9567 0.0000
vt 0.4193 0.9494 0.0000
vt 0.4205 0.9414 0.0000
vt 0.4026 0.9661 0.0000
vt 0.4193 0.9334 0.0000
vt 0.4156 0.9261 0.0000
vt 0.4098 0.9204 0.0000
vt 0.4026 0.9167 0.0000
vt 0.3945 0.9154 0.0000
vt 0.3865 0.9167 0.0000
vt 0.3792 0.9204 0.0000
vt 0.3735 0.9261 0.0000
vt 0.3698 0.9334 0.0000
vt 0.3945 0.9674 0.0000
vt 0.3685 0.9414 0.0000
vt 0.3698 0.9494 0.0000
vt 0.3735 0.9567 0.0000
vt 0.3792 0.9624 0.0000
vt 0.3865 0.9661 0.0000
vt 0.0586 0.5924 0.0000
vt 0.0833 0.5744 0.0000
vt 0.0739 0.5454 0.0000
vt 0.0433 0.5454 0.0000
vt 0.0339 0.5744 0.0000
vt 0.4034 0.9658 0.0000
vt 0.4112 0.9613 0.0000
vt 0.4170 0.9544 0.0000
vt 0.4201 0.9459 0.0000
vt 0.4201 0.9369 0.0000
vt 0.4170 0.9284 0.0000
vt 0.4112 0.9215 0.0000
vt 0.4034 0.9170 0.0000
vt 0.3856 0.9170 0.0000
vt 0.3778 0.9215 0.0000
vt 0.3720 0.9284 0.0000
vt 0.3856 0.9658 0.0000
vt 0.3720 0.9544 0.0000
vt 0.3778 0.9613 0.0000
vt 0.3689 0.9459 0.0000
vt 0.3689 0.9369 0.0000
vt 0.3685 0.9154 0.0000
vt 0.4205 0.9154 0.0000
vt 0.4205 0.9674 0.0000
vt 0.3685 0.9674 0.0000
vt 0.5871 0.9431 0.0000
vt 0.5882 0.9434 0.0000
vt 0.5859 0.9420 0.0000
vt 0.5846 0.9422 0.0000
vt 0.5828 0.9407 0.0000
vt 0.5830 0.9424 0.0000
vt 0.5879 0.9434 0.0000
vt 0.5817 0.9425 0.0000
vt 0.5816 0.9408 0.0000
vt 0.5830 0.9414 0.0000
vt 0.5917 0.9451 0.0000
vt 0.5853 0.9429 0.0000
vt 0.5832 0.9399 0.0000
vt 0.5790 0.9399 0.0000
vt 0.5816 0.9425 0.0000
vt 0.7850 0.0316 0.0000
vt 0.9674 0.0316 0.0000
vt 0.9674 0.3616 0.0000
vt 0.7850 0.3616 0.0000
vt 0.0465 0.4516 0.0000
vt 0.1114 0.5845 0.0000
vt 0.4879 0.4516 0.0000
vt 0.7972 0.6097 0.0000
vt 0.7972 0.8378 0.0000
vt 0.5002 0.8378 0.0000
vt 0.5002 0.6097 0.0000
vt 0.0778 0.4829 0.0000
vt 0.4201 0.7709 0.0000
vt 0.4473 0.7709 0.0000
vt 0.4473 0.7855 0.0000
vt 0.4201 0.7855 0.0000
vt 0.2067 0.4516 0.0000
vt 0.1637 0.4985 0.0000
vt 0.0700 0.5336 0.0000
vt 0.3645 0.6081 0.0000
vt 0.7972 0.8812 0.0000
vt 0.5002 0.8812 0.0000
vt 0.0725 0.5260 0.0000
vt 0.1859 0.4750 0.0000
vt 0.2359 0.4750 0.0000
vt 0.2359 0.5250 0.0000
vt 0.1859 0.5250 0.0000
# 311 texture coords

g SPB_Police_Station
usemtl SPB_Police_Station
s off
f 1/1/1 2/2/1 3/3/1 4/4/1 
s 1
f 5/5/2 6/6/2 7/7/2 8/8/2 
f 7/7/2 9/9/2 8/8/2 
f 8/8/2 10/10/2 11/11/2 12/12/2 
f 11/11/2 13/13/2 12/12/2 
f 12/12/2 14/14/2 15/15/2 16/16/2 
f 15/15/2 17/17/2 16/16/2 
f 16/16/2 18/18/2 19/19/2 20/20/2 
f 19/19/2 21/21/2 20/20/2 
f 20/20/2 22/22/2 23/23/2 24/24/2 
f 20/20/2 24/24/2 25/25/2 16/16/2 
f 16/16/2 25/25/2 26/26/2 27/27/2 
f 16/16/2 27/27/2 28/28/2 29/29/2 
f 12/12/2 16/16/2 29/29/2 30/30/2 
f 12/12/2 30/30/2 31/31/2 32/32/2 
f 12/12/2 32/32/2 33/33/2 8/8/2 
f 8/8/2 33/33/2 34/34/2 35/35/2 
f 8/8/2 35/35/2 36/36/2 37/37/2 
f 5/5/2 8/8/2 37/37/2 38/38/2 
f 39/39/2 5/5/2 38/38/2 
f 1/1/2 4/4/2 40/40/3 41/41/4 
f 40/40/3 42/42/4 43/43/2 39/39/2 
f 43/43/2 44/44/2 39/39/2 
f 39/39/2 38/38/2 45/45/2 46/46/2 
f 39/39/2 46/46/2 47/47/2 48/48/4 
f 40/40/3 39/39/2 48/48/4 49/49/4 
f 40/40/3 49/49/4 50/50/4 51/51/3 
f 40/40/3 51/51/3 52/52/2 41/41/4 
f 53/53/2 23/23/2 22/22/2 54/54/2 
f 55/55/2 54/54/2 22/22/2 56/56/3 
f 22/22/2 57/57/2 58/58/2 56/56/3 
f 58/58/2 59/59/2 56/56/3 
f 60/60/2 55/55/2 56/56/3 61/61/4 
f 62/62/5 61/61/4 56/56/3 63/63/5 
f 56/56/3 64/64/3 41/41/4 63/63/5 
f 65/65/2 63/63/5 41/41/4 52/52/2 
f 1/1/2 41/41/4 66/66/2 
s off
f 66/66/6 67/67/6 2/2/6 1/1/6 
f 68/68/7 69/69/7 70/70/7 71/71/7 
f 72/72/7 73/73/7 67/67/7 74/74/7 
f 75/75/7 74/74/7 67/67/7 76/76/7 
f 77/77/7 76/76/7 67/67/7 78/78/7 
f 67/67/7 79/79/7 80/80/7 78/78/7 
f 80/80/7 81/81/7 78/78/7 
f 82/82/7 77/77/7 78/78/7 83/83/7 
f 84/84/7 83/83/7 78/78/7 85/85/7 
f 78/78/7 86/86/7 87/87/7 88/88/7 
f 87/87/7 89/89/7 88/88/7 
f 85/85/7 78/78/7 88/88/7 90/90/7 
f 91/91/7 90/90/7 88/88/7 92/92/7 
f 93/93/8 92/92/8 88/88/8 94/94/8 
f 88/88/9 95/95/9 96/96/9 94/94/9 
f 96/96/9 97/97/9 94/94/9 
f 98/98/8 93/93/8 94/94/8 71/71/8 
f 68/68/7 71/71/7 94/94/7 99/99/7 
f 68/68/7 99/99/7 100/100/7 
f 2/2/7 67/67/7 73/73/7 101/101/7 
f 102/102/7 69/69/7 68/68/7 103/103/7 
f 104/104/7 103/103/7 68/68/7 105/105/7 
f 68/68/10 106/106/10 107/107/10 105/105/10 
f 107/107/10 108/108/10 105/105/10 
f 109/109/7 104/104/7 105/105/7 110/110/7 
f 111/111/7 110/110/7 105/105/7 112/112/7 
f 105/105/7 113/113/7 114/114/7 115/115/7 
f 114/114/7 116/116/7 115/115/7 
f 112/112/7 105/105/7 115/115/7 117/117/7 
f 118/118/7 117/117/7 115/115/7 119/119/7 
f 120/120/7 119/119/7 115/115/7 121/121/7 
f 115/115/7 122/122/7 123/123/7 121/121/7 
f 123/123/7 124/124/7 121/121/7 
f 125/125/7 120/120/7 121/121/7 126/126/7 
f 127/127/7 126/126/7 121/121/7 73/73/7 
f 121/121/7 128/128/7 101/101/7 73/73/7 
f 2/2/7 101/101/7 3/3/7 
f 4/4/11 3/3/11 101/101/11 40/40/11 
f 40/40/12 101/101/12 128/128/12 42/42/12 
f 42/42/13 128/128/13 121/121/13 43/43/13 
f 43/43/14 121/121/14 124/124/14 44/44/14 
f 44/44/15 124/124/15 123/123/15 39/39/15 
f 39/39/16 123/123/16 122/122/16 5/5/16 
f 5/5/17 122/122/17 115/115/17 6/6/17 
f 6/6/18 115/115/18 116/116/18 7/7/18 
f 7/7/19 116/116/19 114/114/19 9/9/19 
f 9/9/20 114/114/20 113/113/20 8/8/20 
f 8/8/21 113/113/21 105/105/21 10/10/21 
f 10/10/22 105/105/22 108/108/22 11/11/22 
f 11/11/23 108/108/23 107/107/23 13/13/23 
f 13/13/24 107/107/24 106/106/24 12/12/24 
f 12/12/25 106/106/25 68/68/25 14/14/25 
f 14/14/26 68/68/26 100/100/26 15/15/26 
f 15/15/27 100/100/27 99/99/27 17/17/27 
f 17/17/28 99/99/28 94/94/28 16/16/28 
f 16/16/29 94/94/29 97/97/29 18/18/29 
f 18/18/30 97/97/30 96/96/30 19/19/30 
f 19/19/31 96/96/31 95/95/31 21/21/31 
f 21/21/32 95/95/32 88/88/32 20/20/32 
f 20/20/33 88/88/33 89/89/33 22/22/33 
f 22/22/34 89/89/34 87/87/34 57/57/34 
f 57/57/35 87/87/35 86/86/35 58/58/35 
f 58/58/36 86/86/36 78/78/36 59/59/36 
f 59/59/37 78/78/37 81/81/37 56/56/37 
f 56/56/38 81/81/38 80/80/38 64/64/38 
f 64/64/39 80/80/39 79/79/39 41/41/39 
f 41/41/40 79/79/40 67/67/40 66/66/40 
f 65/65/41 52/52/41 73/73/41 72/72/41 
f 63/63/25 65/65/25 72/72/25 74/74/25 
f 52/52/42 51/51/42 127/127/42 73/73/42 
f 62/62/24 63/63/24 74/74/24 75/75/24 
f 51/51/28 50/50/28 126/126/28 127/127/28 
f 61/61/23 62/62/23 75/75/23 76/76/23 
f 50/50/43 49/49/43 125/125/43 126/126/43 
f 60/60/22 61/61/22 76/76/22 77/77/22 
f 49/49/44 48/48/44 120/120/44 125/125/44 
f 55/55/21 60/60/21 77/77/21 82/82/21 
f 48/48/31 47/47/31 119/119/31 120/120/31 
f 54/54/20 55/55/20 82/82/20 83/83/20 
f 47/47/32 46/46/32 118/118/32 119/119/32 
f 53/53/19 54/54/19 83/83/19 84/84/19 
f 46/46/33 45/45/33 117/117/33 118/118/33 
f 23/23/18 53/53/18 84/84/18 85/85/18 
f 45/45/45 38/38/45 112/112/45 117/117/45 
f 24/24/17 23/23/17 85/85/17 90/90/17 
f 38/38/46 37/37/46 111/111/46 112/112/46 
f 25/25/16 24/24/16 90/90/16 91/91/16 
f 37/37/36 36/36/36 110/110/36 111/111/36 
f 26/26/15 25/25/15 91/91/15 92/92/15 
f 36/36/47 35/35/47 109/109/47 110/110/47 
f 27/27/14 26/26/14 92/92/14 93/93/14 
f 35/35/48 34/34/48 104/104/48 109/109/48 
f 28/28/13 27/27/13 93/93/13 98/98/13 
f 34/34/39 33/33/39 103/103/39 104/104/39 
f 29/29/12 28/28/12 98/98/12 71/71/12 
f 33/33/40 32/32/40 102/102/40 103/103/40 
f 30/30/11 29/29/11 71/71/11 70/70/11 
f 32/32/6 31/31/6 69/69/6 102/102/6 
f 31/31/1 30/30/1 70/70/1 69/69/1 
f 129/129/49 130/130/49 131/131/49 132/132/49 
f 132/129/50 131/130/50 133/131/50 134/132/50 
f 134/129/51 133/130/51 135/131/51 136/132/51 
f 136/129/52 135/130/52 137/131/52 138/132/52 
f 138/129/53 137/130/53 139/131/53 140/132/53 
f 140/129/54 139/130/54 141/131/54 142/132/54 
f 142/129/55 141/130/55 143/131/55 144/132/55 
f 144/129/56 143/130/56 145/131/56 146/132/56 
f 146/129/57 145/130/57 147/131/57 148/132/57 
f 148/129/58 147/130/58 149/131/58 150/132/58 
f 150/129/59 149/130/59 151/131/59 152/132/59 
f 152/129/60 151/130/60 153/131/60 154/132/60 
f 154/129/61 153/130/61 155/131/61 156/132/61 
f 156/129/62 155/130/62 157/131/62 158/132/62 
f 158/129/63 157/130/63 159/131/63 160/132/63 
f 160/129/64 159/130/64 161/131/64 162/132/64 
s 1
f 139/129/65 137/130/66 163/131/66 164/132/65 
s off
f 165/129/67 166/130/67 130/131/67 129/132/67 
f 162/129/68 161/130/68 166/131/68 165/132/68 
f 129/133/69 132/134/69 134/135/69 136/136/69 
f 129/133/70 136/136/70 138/137/70 140/138/70 
f 129/133/69 140/138/69 142/139/69 144/140/69 
f 129/133/69 144/140/69 146/141/69 148/142/69 
f 129/133/71 148/142/71 150/143/71 152/144/71 
f 129/133/69 152/144/69 154/145/69 156/146/69 
f 129/133/72 156/146/72 158/147/72 160/148/72 
f 129/133/71 160/148/71 162/149/71 165/150/71 
f 164/129/53 163/130/53 167/131/53 168/132/53 
s 1
f 161/129/73 159/130/73 169/131/73 170/132/73 
f 131/129/74 130/130/74 171/131/74 172/132/74 
f 145/129/74 143/130/73 173/131/73 174/132/74 
f 151/129/73 149/130/73 175/131/73 176/132/74 
f 135/129/74 133/130/74 177/131/74 178/132/74 
f 157/129/65 155/130/66 179/131/66 180/132/65 
f 166/129/74 161/130/73 170/131/73 181/132/74 
f 141/129/74 139/130/65 164/131/65 182/132/74 
f 147/129/73 145/130/74 174/131/74 183/132/73 
f 153/129/74 151/130/73 176/131/74 184/132/74 
f 137/129/66 135/130/74 178/131/74 163/132/66 
f 159/129/73 157/130/65 180/131/65 169/132/73 
f 130/129/74 166/130/74 181/131/74 171/132/74 
f 143/129/73 141/130/74 182/131/74 173/132/73 
f 149/129/73 147/130/73 183/131/73 175/132/73 
f 133/129/74 131/130/74 172/131/74 177/132/74 
f 155/129/66 153/130/74 184/131/74 179/132/66 
s off
f 185/151/74 186/152/74 187/153/74 188/154/74 
f 185/151/66 188/154/66 189/155/66 190/156/66 
f 185/151/74 190/156/74 191/157/74 192/158/74 
f 185/151/74 192/158/74 193/159/74 194/160/74 
f 185/151/74 194/160/74 195/161/74 196/162/74 
f 185/151/74 196/162/74 197/163/74 198/164/74 
f 185/151/74 198/164/74 168/165/74 167/166/74 
f 185/151/65 167/166/65 199/167/65 200/168/65 
f 170/129/64 169/130/64 189/131/64 188/132/64 
f 178/129/51 177/130/51 200/131/51 199/132/51 
f 180/129/62 179/130/62 191/131/62 190/132/62 
f 172/129/49 171/130/49 186/131/49 185/132/49 
f 184/129/60 176/130/60 193/131/60 192/132/60 
f 175/129/58 183/130/58 195/131/58 194/132/58 
f 174/129/56 173/130/56 197/131/56 196/132/56 
f 181/129/68 170/130/68 188/131/68 187/132/68 
f 182/129/54 164/130/54 168/131/54 198/132/54 
f 163/129/52 178/130/52 199/131/52 167/132/52 
f 169/129/63 180/130/63 190/131/63 189/132/63 
f 177/129/50 172/130/50 185/131/50 200/132/50 
f 179/129/61 184/130/61 192/131/61 191/132/61 
f 176/129/59 175/130/59 194/131/59 193/132/59 
f 183/129/57 174/130/57 196/131/57 195/132/57 
f 171/129/67 181/130/67 187/131/67 186/132/67 
f 173/129/55 182/130/55 198/131/55 197/132/55 
f 201/169/74 202/170/74 203/171/74 204/172/74 
f 202/170/75 205/173/75 206/174/75 203/171/75 
f 205/173/69 207/175/69 208/176/69 206/174/69 
f 208/177/7 204/178/7 203/179/7 206/180/7 
f 207/175/76 201/169/76 204/172/76 208/176/76 
f 209/181/76 210/173/76 211/182/76 212/183/76 
f 213/184/72 214/185/72 212/183/72 211/182/72 
f 215/186/2 209/181/2 212/183/2 214/185/2 
f 210/173/74 209/181/74 215/186/74 216/187/74 
s 1
f 211/182/7 210/173/7 205/173/7 202/170/7 
f 213/184/7 211/182/7 202/170/7 201/169/7 
s off
f 216/187/75 215/186/75 214/185/75 213/184/75 
s 1
f 207/175/7 205/173/7 210/173/7 216/187/7 
f 201/169/7 207/175/7 216/187/7 213/184/7 
s off
f 217/169/74 218/170/74 219/171/74 220/172/74 
f 218/170/75 221/173/75 222/174/75 219/171/75 
f 221/173/69 223/175/69 224/176/69 222/174/69 
f 224/177/7 220/178/7 219/179/7 222/180/7 
f 223/175/76 217/169/76 220/172/76 224/176/76 
f 225/181/76 226/173/76 227/182/76 228/183/76 
f 229/184/72 230/185/72 228/183/72 227/182/72 
f 231/186/2 225/181/2 228/183/2 230/185/2 
f 226/173/74 225/181/74 231/186/74 232/187/74 
s 1
f 227/182/7 226/173/7 221/173/7 218/170/7 
f 229/184/7 227/182/7 218/170/7 217/169/7 
s off
f 232/187/75 231/186/75 230/185/75 229/184/75 
s 1
f 223/175/7 221/173/7 226/173/7 232/187/7 
f 217/169/7 223/175/7 232/187/7 229/184/7 
s off
f 233/169/74 234/170/74 235/171/74 236/172/74 
f 234/170/75 237/173/75 238/174/75 235/171/75 
f 237/173/69 239/175/69 240/176/69 238/174/69 
f 240/177/7 236/178/7 235/179/7 238/180/7 
f 239/175/76 233/169/76 236/172/76 240/176/76 
f 241/181/76 242/173/76 243/182/76 244/183/76 
f 245/184/72 246/185/72 244/183/72 243/182/72 
f 247/186/2 241/181/2 244/183/2 246/185/2 
f 242/173/74 241/181/74 247/186/74 248/187/74 
s 1
f 243/182/7 242/173/7 237/173/7 234/170/7 
f 245/184/7 243/182/7 234/170/7 233/169/7 
s off
f 248/187/75 247/186/75 246/185/75 245/184/75 
s 1
f 239/175/7 237/173/7 242/173/7 248/187/7 
f 233/169/7 239/175/7 248/187/7 245/184/7 
s off
f 249/188/77 250/72/77 251/189/77 252/190/77 
f 252/190/78 251/189/78 253/191/78 254/192/78 
f 254/192/79 253/191/79 255/193/79 256/194/79 
f 256/194/80 255/193/80 257/195/80 258/196/80 
f 258/196/81 257/195/81 259/197/81 260/198/81 
f 260/198/82 259/197/82 261/199/82 262/200/82 
f 262/200/83 261/199/83 263/201/83 264/202/83 
f 264/202/84 263/201/84 265/203/84 266/204/84 
f 250/72/9 267/205/9 268/206/9 269/207/9 
f 270/208/85 267/205/85 250/72/85 249/188/85 
f 266/204/86 265/203/86 267/205/86 270/208/86 
f 252/190/4 254/192/4 256/194/4 270/208/4 
f 256/194/5 258/196/5 260/198/5 264/202/5 
f 260/198/2 262/200/2 264/202/2 
f 264/202/3 266/204/3 270/208/3 256/194/3 
f 249/188/3 252/190/3 270/208/3 
f 269/207/87 268/206/87 271/206/87 272/207/87 
f 267/205/8 265/203/8 273/209/8 268/206/8 
f 265/203/9 263/201/9 274/210/9 273/209/9 
f 263/201/10 261/199/10 275/211/10 274/210/10 
f 261/199/7 259/197/7 276/212/7 275/211/7 
f 259/197/9 257/195/9 277/213/9 276/212/9 
f 257/195/8 255/193/8 278/214/8 277/213/8 
f 255/193/7 253/191/7 279/215/7 278/214/7 
f 253/191/10 251/189/10 280/216/10 279/215/10 
f 251/189/7 250/72/7 269/207/7 280/216/7 
f 281/216/7 272/207/7 271/206/7 282/214/7 
f 271/206/7 283/209/7 284/210/7 285/212/7 
f 284/210/8 286/211/8 285/212/8 
f 285/212/10 287/213/10 282/214/10 271/206/10 
f 281/216/9 282/214/9 288/215/9 
f 268/206/88 273/209/88 283/209/88 271/206/88 
f 273/209/89 274/210/89 284/210/89 283/209/89 
f 274/210/90 275/211/90 286/211/90 284/210/90 
f 275/211/91 276/212/91 285/212/91 286/211/91 
f 276/212/92 277/213/92 287/213/92 285/212/92 
f 277/213/93 278/214/93 282/214/93 287/213/93 
f 278/214/94 279/215/94 288/215/94 282/214/94 
f 279/215/95 280/216/95 281/216/95 288/215/95 
f 280/216/96 269/207/96 272/207/96 281/216/96 
f 289/217/75 290/218/75 291/219/75 292/220/75 
f 290/217/2 293/218/2 294/219/2 291/220/2 
f 293/217/76 295/218/76 296/219/76 294/220/76 
f 295/217/7 289/218/7 292/219/7 296/220/7 
s 1
f 296/217/73 292/218/74 297/219/74 298/220/73 
f 289/217/69 295/218/69 299/219/69 300/220/69 
s off
f 300/217/7 299/218/7 301/219/7 302/220/7 
s 1
f 295/217/69 293/218/69 303/219/69 299/220/69 
s off
f 293/217/69 290/218/69 304/219/69 303/220/69 
s 1
f 290/217/69 289/218/69 300/219/69 304/220/69 
s off
f 301/217/74 305/218/74 306/219/74 302/220/74 
f 299/217/76 303/218/76 305/219/76 301/220/76 
f 303/217/2 304/218/2 306/219/2 305/220/2 
f 304/217/75 300/218/75 302/219/75 306/220/75 
f 298/217/8 297/218/8 307/219/8 308/220/8 
s 1
f 294/217/74 296/218/73 298/219/73 309/220/74 
f 291/217/73 294/218/74 309/219/74 310/220/73 
f 292/217/74 291/218/73 310/219/73 297/220/74 
s off
f 307/217/69 311/218/69 312/219/69 308/220/69 
f 309/217/76 298/218/76 308/219/76 312/220/76 
f 310/217/3 309/218/3 312/219/3 311/220/3 
f 297/217/75 310/218/75 311/219/75 307/220/75 
f 313/217/75 314/218/75 315/219/75 316/220/75 
f 314/217/2 317/218/2 318/219/2 315/220/2 
f 317/217/76 319/218/76 320/219/76 318/220/76 
f 319/217/7 313/218/7 316/219/7 320/220/7 
f 320/217/74 316/218/74 321/219/74 322/220/74 
f 313/217/69 319/218/69 323/219/69 324/220/69 
f 324/217/7 323/218/7 325/219/7 326/220/7 
f 319/217/69 317/218/69 327/219/69 323/220/69 
f 317/217/69 314/218/69 328/219/69 327/220/69 
f 314/217/69 313/218/69 324/219/69 328/220/69 
f 325/217/74 329/218/74 330/219/74 326/220/74 
f 323/217/76 327/218/76 329/219/76 325/220/76 
f 327/217/2 328/218/2 330/219/2 329/220/2 
f 328/217/75 324/218/75 326/219/75 330/220/75 
f 322/217/7 321/218/7 331/219/7 332/220/7 
s 1
f 318/217/74 320/218/73 322/219/73 333/220/74 
f 315/217/73 318/218/74 333/219/74 334/220/73 
f 316/217/74 315/218/73 334/219/73 321/220/74 
s off
f 331/217/69 335/218/69 336/219/69 332/220/69 
f 333/217/76 322/218/76 332/219/76 336/220/76 
f 334/217/2 333/218/2 336/219/2 335/220/2 
f 321/217/75 334/218/75 335/219/75 331/220/75 
f 337/221/97 338/222/97 339/223/97 340/224/97 
s 1
f 337/221/9 340/222/7 341/223/7 342/224/9 
s off
f 343/221/98 344/222/98 338/223/98 337/224/98 
f 344/225/4 345/226/4 346/227/4 347/228/4 
f 338/229/2 344/225/2 347/228/2 348/230/2 
f 338/229/2 348/230/2 349/231/2 350/232/2 
f 338/229/2 350/232/2 351/233/2 352/234/2 
f 338/229/2 352/234/2 353/235/2 354/236/2 
f 338/229/2 354/236/2 355/237/2 356/238/2 
f 339/239/5 338/229/5 356/238/5 357/240/5 
f 339/239/5 357/240/5 358/241/5 359/242/5 
f 339/239/3 359/242/3 360/243/3 361/244/3 
f 340/221/71 339/222/71 361/223/71 362/224/71 
s 1
f 343/221/8 337/222/9 342/223/9 363/224/8 
f 340/245/7 362/246/7 364/247/7 365/248/7 
f 340/245/7 365/248/7 341/249/7 
s off
f 342/221/99 341/222/99 366/223/99 367/224/99 
f 345/221/69 344/222/69 343/223/69 368/224/69 
s 1
f 343/246/8 363/247/8 369/248/7 370/249/7 
f 368/245/7 343/246/8 370/249/7 
s off
f 363/221/100 342/222/100 367/223/100 371/224/100 
f 341/221/74 365/222/74 372/223/74 366/224/74 
f 366/250/7 372/251/7 373/252/7 367/239/7 
f 367/239/7 373/252/7 374/253/7 375/254/7 
f 367/239/7 375/254/7 376/255/7 377/256/7 
f 367/239/10 377/256/10 378/257/10 379/234/10 
f 367/239/7 379/234/7 380/258/7 381/259/7 
f 367/239/7 381/259/7 382/260/7 371/261/7 
f 383/262/7 384/263/7 371/261/7 385/264/7 
f 386/265/7 385/264/7 371/261/7 382/260/7 
f 369/221/74 363/222/74 371/223/74 384/224/74 
f 353/266/101 352/267/101 380/268/101 379/269/101 
f 354/266/102 353/267/102 379/268/102 378/269/102 
f 352/266/103 351/267/103 381/268/103 380/269/103 
f 355/266/104 354/267/104 378/268/104 377/269/104 
f 351/266/105 350/267/105 382/268/105 381/269/105 
f 356/266/106 355/267/106 377/268/106 376/269/106 
f 350/266/107 349/267/107 386/268/107 382/269/107 
f 357/266/108 356/267/108 376/268/108 375/269/108 
f 349/266/109 348/267/109 385/268/109 386/269/109 
f 358/266/110 357/267/110 375/268/110 374/269/110 
f 348/266/111 347/267/111 383/268/111 385/269/111 
f 359/266/112 358/267/112 374/268/112 373/269/112 
f 347/239/113 346/252/113 370/255/113 384/260/113 
f 370/255/114 369/234/114 384/260/114 
f 347/239/113 384/260/113 383/262/113 
f 360/239/115 359/252/115 373/255/115 372/234/115 
f 360/239/116 372/234/116 365/260/116 364/262/116 
f 346/221/117 345/222/117 368/223/117 370/224/117 
f 364/221/118 362/222/118 361/223/118 360/224/118 
f 387/169/74 388/170/74 389/171/74 390/172/74 
f 388/170/75 391/173/75 392/174/75 389/171/75 
f 391/173/69 393/175/69 394/176/69 392/174/69 
f 394/177/7 390/178/7 389/179/7 392/180/7 
f 393/175/76 387/169/76 390/172/76 394/176/76 
f 395/181/76 396/173/76 397/182/76 398/183/76 
f 399/184/69 400/185/69 398/183/69 397/182/69 
f 401/186/2 395/181/2 398/183/2 400/185/2 
f 396/173/74 395/181/74 401/186/74 402/187/74 
f 397/182/7 396/173/7 391/173/7 388/170/7 
f 399/184/7 397/182/7 388/170/7 387/169/7 
f 402/187/75 401/186/75 400/185/75 399/184/75 
f 393/175/7 391/173/7 396/173/7 402/187/7 
f 387/169/7 393/175/7 402/187/7 399/184/7 
f 403/169/74 404/170/74 405/171/74 406/172/74 
f 404/170/75 407/173/75 408/174/75 405/171/75 
f 407/173/69 409/175/69 410/176/69 408/174/69 
f 410/177/7 406/178/7 405/179/7 408/180/7 
f 409/175/76 403/169/76 406/172/76 410/176/76 
f 411/181/76 412/173/76 413/182/76 414/183/76 
f 415/184/69 416/185/69 414/183/69 413/182/69 
f 417/186/2 411/181/2 414/183/2 416/185/2 
f 412/173/74 411/181/74 417/186/74 418/187/74 
f 413/182/7 412/173/7 407/173/7 404/170/7 
f 415/184/7 413/182/7 404/170/7 403/169/7 
f 418/187/75 417/186/75 416/185/75 415/184/75 
f 409/175/7 407/173/7 412/173/7 418/187/7 
f 403/169/7 409/175/7 418/187/7 415/184/7 
f 419/169/74 420/170/74 421/171/74 422/172/74 
f 420/170/75 423/173/75 424/174/75 421/171/75 
f 423/173/69 425/175/69 426/176/69 424/174/69 
f 426/177/7 422/178/7 421/179/7 424/180/7 
f 425/175/76 419/169/76 422/172/76 426/176/76 
f 427/181/76 428/173/76 429/182/76 430/183/76 
f 431/184/69 432/185/69 430/183/69 429/182/69 
f 433/186/2 427/181/2 430/183/2 432/185/2 
f 428/173/74 427/181/74 433/186/74 434/187/74 
f 429/182/7 428/173/7 423/173/7 420/170/7 
f 431/184/7 429/182/7 420/170/7 419/169/7 
f 434/187/75 433/186/75 432/185/75 431/184/75 
f 425/175/7 423/173/7 428/173/7 434/187/7 
f 419/169/7 425/175/7 434/187/7 431/184/7 
f 435/270/75 436/271/75 437/272/75 438/273/75 
f 435/270/9 438/273/9 439/274/9 440/275/9 
f 441/276/7 435/270/7 440/275/7 442/277/7 
f 441/276/7 442/277/7 443/278/7 444/279/7 
f 441/276/74 445/280/74 436/271/74 435/270/74 
f 436/271/2 445/280/2 446/281/2 437/272/2 
f 438/273/71 437/272/71 446/281/71 447/282/71 
f 446/281/69 444/279/69 443/278/69 448/283/69 
f 446/281/69 448/283/69 447/282/69 
f 438/273/72 447/282/72 439/274/72 
f 445/280/76 441/276/76 444/279/76 446/281/76 
f 440/275/76 439/274/76 447/282/76 449/275/76 
f 442/277/69 440/275/69 449/275/69 450/284/69 
f 447/285/7 448/286/7 450/287/7 449/288/7 
f 450/284/75 448/283/75 443/278/75 442/277/75 
s 1
f 451/289/71 452/289/71 453/289/71 454/289/71 
s off
f 455/290/53 456/290/53 457/290/53 458/290/53 
s 1
f 459/291/53 460/291/53 461/291/119 462/291/119 
s 2
f 463/291/9 464/291/9 465/291/9 466/291/9 
s 1
f 466/291/120 465/291/120 467/291/120 468/291/120 
s 2
f 469/289/3 451/289/3 454/289/3 470/289/3 
f 471/289/3 472/289/3 473/289/3 474/289/3 
f 462/292/9 461/293/10 455/294/9 475/295/9 
s 1
f 476/291/75 477/291/75 478/291/75 479/291/120 
f 472/289/71 480/289/71 481/289/71 473/289/69 
f 479/296/120 478/296/75 482/296/75 483/296/120 
s 2
f 477/297/9 484/298/10 485/299/9 478/300/9 
f 486/291/2 476/291/2 479/291/2 487/291/2 
s 1
f 484/291/119 486/291/53 487/291/53 485/291/53 
s 4
f 458/290/74 457/290/74 488/290/74 489/290/74 
s 1
f 467/290/120 465/290/120 490/290/75 491/290/75 
s 2
f 464/290/9 455/290/9 458/290/10 492/290/10 
f 493/290/2 467/290/2 491/290/2 494/290/2 
s off
f 489/290/75 488/290/75 495/290/75 496/290/75 
s 4
f 491/290/74 490/290/74 497/290/74 498/290/74 
f 492/290/74 458/290/74 489/290/74 499/290/74 
f 494/290/74 491/290/74 498/290/74 500/290/74 
s 1
f 501/301/74 502/301/74 503/301/74 504/301/74 
s off
f 498/290/53 497/290/53 503/290/53 502/290/53 
s 2
f 499/290/2 489/290/2 496/290/2 504/290/2 
f 500/290/9 498/290/9 502/290/9 501/290/9 
f 483/296/73 482/296/121 505/296/73 506/296/74 
f 478/296/9 485/296/9 507/296/122 482/296/121 
s off
f 487/296/3 479/296/3 483/296/3 508/296/3 
f 485/296/119 487/296/119 508/296/119 507/296/119 
f 506/296/53 505/296/53 509/296/53 510/296/53 
f 482/296/73 507/296/73 511/296/73 505/296/73 
s 2
f 508/296/74 483/296/73 506/296/74 512/296/74 
f 507/296/122 508/296/74 512/296/74 511/296/74 
s off
f 513/302/74 510/302/74 509/302/74 514/302/74 
f 505/296/2 511/296/2 514/296/2 509/296/2 
f 512/296/9 506/296/9 510/296/9 513/296/9 
f 511/296/75 512/296/75 513/296/75 514/296/75 
s 2
f 480/289/9 515/289/9 516/289/9 481/289/9 
s 4
f 517/291/2 471/291/2 474/291/2 518/291/2 
f 519/291/2 469/291/2 470/291/2 520/291/2 
s 8
f 453/289/75 521/289/120 470/289/120 454/289/120 
s 2
f 452/289/9 522/289/9 521/289/9 453/289/9 
s off
f 472/289/76 471/289/76 515/289/76 480/289/76 
s 8
f 523/303/3 519/303/3 520/303/123 468/303/3 
f 459/304/3 517/304/3 518/304/3 524/304/3 
s 2
f 515/291/9 525/291/9 526/291/9 516/291/9 
s 8
f 521/291/120 527/291/120 520/291/123 470/291/120 
s 2
f 522/291/9 528/291/9 527/291/9 521/291/9 
s 1
f 471/291/53 517/291/53 525/291/119 515/291/119 
s 2
f 460/291/2 459/291/2 524/291/2 456/291/2 
f 493/291/2 523/291/2 468/291/2 467/291/2 
f 525/304/9 462/304/9 475/304/9 526/304/9 
s off
f 527/303/120 466/303/120 468/303/120 520/303/120 
s 2
f 528/303/9 463/303/9 466/303/9 527/303/9 
s 1
f 517/304/53 459/304/53 462/304/119 525/304/119 
f 461/291/119 460/291/53 486/291/53 484/291/119 
s 2
f 460/291/2 456/291/2 476/291/2 486/291/2 
f 455/294/9 461/293/10 484/305/10 477/306/9 
s 1
f 456/291/75 455/291/75 477/291/75 476/291/75 
s 2
f 526/303/9 475/303/9 463/303/9 528/303/9 
f 456/307/2 524/307/2 523/307/2 493/307/2 
f 516/307/9 526/307/9 528/307/9 522/307/9 
s 8
f 524/303/3 518/303/3 519/303/3 523/303/3 
s 2
f 481/289/9 516/289/9 522/289/9 452/289/9 
s 4
f 518/307/2 474/307/2 469/307/2 519/307/2 
s 2
f 488/290/7 500/290/9 501/290/9 495/290/7 
f 497/290/2 499/290/2 504/290/2 503/290/2 
s 1
f 495/301/74 501/301/74 504/301/74 496/301/74 
s off
f 457/290/74 494/290/74 500/290/74 488/290/74 
s 4
f 490/290/74 492/290/74 499/290/74 497/290/74 
s 2
f 456/290/2 493/290/2 494/290/2 457/290/2 
f 465/290/9 464/290/9 492/290/10 490/290/9 
f 474/289/3 473/289/3 451/289/3 469/289/3 
f 475/307/9 455/307/9 464/307/9 463/307/9 
s 1
f 473/289/69 481/289/71 452/289/71 451/289/71 
s off
f 529/308/75 530/309/75 531/310/75 532/311/75 
f 530/308/2 533/309/2 534/310/2 531/311/2 
f 533/308/76 535/309/76 536/310/76 534/311/76 
f 535/308/7 529/309/7 532/310/7 536/311/7 
f 532/308/72 531/309/72 534/310/72 536/311/72 
f 535/308/74 533/309/74 530/310/74 529/311/74 
f 537/308/75 538/309/75 539/310/75 540/311/75 
f 538/308/2 541/309/2 542/310/2 539/311/2 
f 541/308/76 543/309/76 544/310/76 542/311/76 
f 543/308/7 537/309/7 540/310/7 544/311/7 
f 540/308/69 539/309/69 542/310/69 544/311/69 
f 543/308/65 541/309/65 538/310/65 537/311/65 
# 501 polygons - 26 triangles

