{
  "accessors": [
    {
      "name": "SPW_Urban_Road_Parking_Lot_Big_1_0_positions",
      "componentType": 5126,
      "count": 668,
      "min": [
        -1181.1025390625,
        -0.00019999999494757503,
        -1574.8033447265625
      ],
      "max": [
        1181.102783203125,
        7.874199867248535,
        1574.8033447265625
      ],
      "type": "VEC3",
      "bufferView": 0,
      "byteOffset": 0
    },
    {
      "name": "SPW_Urban_Road_Parking_Lot_Big_1_0_normals",
      "componentType": 5126,
      "count": 668,
      "min": [
        -1,
        -1,
        -1
      ],
      "max": [
        1,
        1,
        1
      ],
      "type": "VEC3",
      "bufferView": 1,
      "byteOffset": 0
    },
    {
      "name": "SPW_Urban_Road_Parking_Lot_Big_1_0_texcoords",
      "componentType": 5126,
      "count": 668,
      "min": [
        0.20919999480247498,
        0.0738999992609024
      ],
      "max": [
        0.5820000171661377,
        0.1509999930858612
      ],
      "type": "VEC2",
      "bufferView": 2,
      "byteOffset": 0
    },
    {
      "name": "SPW_Urban_Road_Parking_Lot_Big_1_0_indices",
      "componentType": 5123,
      "count": 1758,
      "min": [
        0
      ],
      "max": [
        667
      ],
      "type": "SCALAR",
      "bufferView": 3,
      "byteOffset": 0
    }
  ],
  "asset": {
    "generator": "obj2gltf",
    "version": "2.0"
  },
  "buffers": [
    {
      "name": "SPW_Urban_Road Parking Lot Big",
      "byteLength": 28976,
      "uri": "data:application/octet-stream;base64,"
    }
  ],
  "bufferViews": [
    {
      "name": "bufferView_0",
      "buffer": 0,
      "byteLength": 8016,
      "byteOffset": 0,
      "byteStride": 12,
      "target": 34962
    },
    {
      "name": "bufferView_1",
      "buffer": 0,
      "byteLength": 8016,
      "byteOffset": 8016,
      "byteStride": 12,
      "target": 34962
    },
    {
      "name": "bufferView_2",
      "buffer": 0,
      "byteLength": 5344,
      "byteOffset": 16032,
      "byteStride": 8,
      "target": 34962
    },
    {
      "name": "bufferView_3",
      "buffer": 0,
      "byteLength": 3516,
      "byteOffset": 21376,
      "target": 34963
    },
    {
      "buffer": 0,
      "byteOffset": 24892,
      "byteLength": 4083
    }
  ],
  "images": [
    {
      "name": "SPW_Urban_Road",
      "mimeType": "image/png",
      "bufferView": 4
    }
  ],
  "materials": [
    {
      "name": "SPW_Urban_Road",
      "pbrMetallicRoughness": {
        "baseColorTexture": {
          "index": 0
        },
        "baseColorFactor": [
          1,
          1,
          1,
          1
        ],
        "metallicFactor": 0,
        "roughnessFactor": 0.9567807
      },
      "emissiveFactor": [
        0,
        0,
        0
      ],
      "alphaMode": "OPAQUE",
      "doubleSided": false
    }
  ],
  "meshes": [
    {
      "name": "SPW_Urban_Road_Parking_Lot_Big_1",
      "primitives": [
        {
          "attributes": {
            "POSITION": 0,
            "NORMAL": 1,
            "TEXCOORD_0": 2
          },
          "indices": 3,
          "material": 0,
          "mode": 4
        }
      ]
    }
  ],
  "nodes": [
    {
      "name": "SPW_Urban_Road_Parking_Lot_Big",
      "mesh": 0
    }
  ],
  "samplers": [
    {
      "magFilter": 9729,
      "minFilter": 9986,
      "wrapS": 10497,
      "wrapT": 10497
    }
  ],
  "scene": 0,
  "scenes": [
    {
      "nodes": [
        0
      ]
    }
  ],
  "textures": [
    {
      "name": "SPW_Urban_Road",
      "sampler": 0,
      "source": 0
    }
  ]
}
