# 3ds Max Wavefront OBJ Exporter v0.97b - (c)2007 guruware
# File Created: 15.03.2017 11:48:35

mtllib SPW_Urban_Train Station_Props_01.mtl

#
# object SPW_Urban_Train_Station_Props_01
#

v  391.8519 148.6395 289.6020
v  -391.8519 148.6396 289.6020
v  -391.8519 110.2363 295.2755
v  391.8519 110.2362 295.2756
v  -391.8519 185.5674 272.7993
v  -391.8519 219.6003 245.5129
v  -391.8519 183.3075 267.3432
v  -391.8519 249.4304 208.7916
v  -391.8519 273.9113 164.0466
v  -391.8519 245.2546 204.6158
v  -391.8519 292.1023 112.9973
v  -391.8518 303.3042 57.6057
v  -391.8519 286.6463 110.7374
v  -391.8518 307.0867 0.0002
v  -391.8519 303.3043 -57.6052
v  -391.8518 301.1812 0.0002
v  -391.8519 292.1024 -112.9969
v  -391.8518 273.9115 -164.0462
v  -391.8519 286.6464 -110.7370
v  -391.8518 249.4306 -208.7912
v  -391.8519 219.6006 -245.5126
v  -391.8518 245.2548 -204.6154
v  -391.8519 185.5677 -272.7990
v  -391.8519 148.6399 -289.6019
v  -391.8519 183.3078 -267.3431
v  -391.8519 110.2363 -295.2756
v  -391.8519 110.2363 -289.3701
v  -391.8519 147.4878 -283.8099
v  -391.8519 216.3196 -240.6023
v  -391.8518 269.0012 -160.7653
v  -391.8519 297.5122 -56.4531
v  -391.8518 297.5122 56.4535
v  -391.8519 269.0010 160.7656
v  -391.8519 216.3194 240.6026
v  -391.8519 147.4875 283.8100
v  -391.8519 110.2363 289.3701
v  391.8519 110.2362 -295.2756
v  391.8519 148.6398 -289.6020
v  391.8519 185.5676 -272.7990
v  391.8519 219.6004 -245.5126
v  391.8519 249.4305 -208.7913
v  391.8519 273.9113 -164.0462
v  391.8519 292.1022 -112.9969
v  391.8519 303.3042 -57.6052
v  391.8519 307.0865 0.0002
v  391.8519 303.3041 57.6057
v  391.8519 292.1021 112.9973
v  391.8519 273.9112 164.0466
v  391.8519 249.4303 208.7916
v  391.8519 219.6002 245.5129
v  391.8519 185.5673 272.7992
v  391.8519 147.4874 283.8100
v  391.8519 110.2362 289.3701
v  391.8519 183.3073 267.3432
v  391.8519 110.2362 -289.3701
v  391.8519 216.3193 240.6026
v  391.8519 245.2544 204.6158
v  391.8519 147.4877 -283.8099
v  391.8519 183.3076 -267.3431
v  391.8519 216.3195 -240.6023
v  391.8519 245.2546 -204.6154
v  391.8519 269.0011 -160.7653
v  391.8519 286.6462 -110.7370
v  391.8519 297.5121 -56.4531
v  391.8519 301.1810 0.0002
v  391.8519 297.5121 56.4536
v  391.8519 286.6462 110.7374
v  391.8519 269.0009 160.7657
v  393.7008 149.0236 291.5328
v  389.7638 149.0236 291.5328
v  389.7638 110.2363 297.2441
v  393.7008 110.2363 297.2442
v  389.7638 186.3207 274.6180
v  389.7638 220.6939 247.1497
v  389.7638 184.0381 269.1256
v  389.7638 250.8223 210.1837
v  389.7638 275.5480 165.1403
v  389.7638 246.6047 205.9800
v  389.7639 293.9209 113.7507
v  389.7639 305.2349 57.9898
v  389.7639 288.4104 111.4757
v  389.7639 309.0551 0.0003
v  389.7638 305.2349 -57.9892
v  389.7639 303.0906 0.0003
v  389.7638 293.9210 -113.7502
v  389.7639 275.5482 -165.1398
v  389.7638 288.4105 -111.4752
v  389.7639 250.8225 -210.1832
v  389.7638 220.6942 -247.1494
v  389.7639 246.6049 -205.9795
v  389.7638 186.3210 -274.6177
v  389.7638 149.0239 -291.5326
v  389.7638 184.0385 -269.1254
v  389.7638 110.2362 -297.2441
v  389.7638 110.2362 -291.2993
v  389.7638 147.8603 -285.7020
v  389.7638 217.3804 -242.2064
v  389.7639 270.5888 -161.8370
v  389.7638 299.3850 -56.8294
v  389.7639 299.3849 56.8300
v  389.7638 270.5887 161.8375
v  389.7638 217.3802 242.2067
v  389.7638 147.8600 285.7021
v  389.7638 110.2363 291.2993
v  393.7008 110.2362 -297.2441
v  393.7008 149.0239 -291.5327
v  393.7008 186.3210 -274.6177
v  393.7008 220.6942 -247.1494
v  393.7008 250.8225 -210.1832
v  393.7008 275.5482 -165.1398
v  393.7008 293.9210 -113.7502
v  393.7008 305.2349 -57.9892
v  393.7008 309.0552 0.0003
v  393.7008 305.2349 57.9898
v  393.7008 293.9209 113.7507
v  393.7008 275.5480 165.1403
v  393.7008 250.8223 210.1837
v  393.7008 220.6939 247.1497
v  393.7008 186.3207 274.6180
v  393.7008 147.8600 285.7021
v  393.7008 110.2363 291.2993
v  393.7008 184.0381 269.1256
v  389.7638 0.0000 -297.2442
v  389.7638 0.0000 -291.2993
v  393.7008 217.3802 242.2067
v  389.7638 0.0000 297.2442
v  393.7007 0.0000 297.2442
v  393.7008 246.6047 205.9800
v  393.7008 147.8603 -285.7020
v  393.7008 110.2362 -291.2993
v  393.7008 184.0385 -269.1254
v  393.7008 217.3804 -242.2063
v  393.7008 246.6049 -205.9795
v  393.7008 270.5888 -161.8370
v  393.7008 288.4105 -111.4752
v  393.7008 299.3850 -56.8294
v  393.7008 303.0906 0.0003
v  393.7008 299.3849 56.8300
v  393.7008 288.4104 111.4757
v  393.7008 270.5887 161.8375
v  393.7007 -0.0000 -297.2441
v  393.7007 0.0000 -291.2993
v  389.7638 0.0000 291.2993
v  393.7007 0.0000 291.2993
v  297.2441 149.0236 291.5328
v  293.3071 149.0236 291.5328
v  293.3071 110.2363 297.2441
v  297.2441 110.2363 297.2442
v  293.3071 186.3207 274.6180
v  293.3071 220.6939 247.1497
v  293.3071 184.0382 269.1256
v  293.3071 250.8223 210.1836
v  293.3071 275.5480 165.1403
v  293.3071 246.6047 205.9799
v  293.3071 293.9209 113.7507
v  293.3071 305.2349 57.9898
v  293.3071 288.4104 111.4757
v  293.3071 309.0551 0.0003
v  293.3071 305.2350 -57.9892
v  293.3071 303.0906 0.0003
v  293.3071 293.9210 -113.7502
v  293.3071 275.5482 -165.1398
v  293.3071 288.4105 -111.4752
v  293.3071 250.8225 -210.1832
v  293.3071 220.6942 -247.1494
v  293.3071 246.6049 -205.9796
v  293.3071 186.3210 -274.6177
v  293.3071 149.0239 -291.5327
v  293.3071 184.0385 -269.1254
v  293.3071 110.2362 -297.2442
v  293.3071 110.2362 -291.2993
v  293.3071 147.8603 -285.7020
v  293.3071 217.3804 -242.2064
v  293.3071 270.5888 -161.8370
v  293.3071 299.3850 -56.8294
v  293.3071 299.3849 56.8300
v  293.3071 270.5887 161.8375
v  293.3071 217.3802 242.2067
v  293.3071 147.8600 285.7021
v  293.3071 110.2363 291.2993
v  297.2441 110.2362 -297.2441
v  297.2441 149.0239 -291.5327
v  297.2441 186.3210 -274.6177
v  297.2441 220.6942 -247.1494
v  297.2441 250.8225 -210.1832
v  297.2441 275.5482 -165.1398
v  297.2441 293.9210 -113.7502
v  297.2441 305.2350 -57.9892
v  297.2441 309.0551 0.0003
v  297.2441 305.2349 57.9898
v  297.2441 293.9209 113.7507
v  297.2441 275.5480 165.1403
v  297.2441 250.8223 210.1836
v  297.2441 220.6939 247.1497
v  297.2441 186.3207 274.6180
v  297.2441 110.2362 -291.2993
v  297.2441 110.2363 291.2993
v  297.2441 147.8603 -285.7020
v  297.2441 184.0384 -269.1254
v  297.2441 217.3804 -242.2064
v  297.2441 246.6049 -205.9795
v  297.2441 270.5888 -161.8370
v  297.2441 288.4105 -111.4752
v  297.2441 299.3850 -56.8294
v  297.2441 303.0906 0.0003
v  297.2441 299.3849 56.8300
v  297.2441 288.4104 111.4757
v  297.2441 270.5887 161.8375
v  297.2441 246.6047 205.9799
v  297.2441 217.3802 242.2067
v  297.2441 184.0382 269.1256
v  297.2441 147.8600 285.7021
v  393.7008 112.2047 -297.2441
v  393.7008 112.2047 -293.2635
v  393.7008 110.2362 -293.2635
v  -393.7007 112.2047 -293.2636
v  -393.7007 110.2362 -293.2636
v  -393.7007 112.2047 -297.2442
v  -393.7007 110.2362 -297.2442
v  393.7008 216.3883 -251.3259
v  393.7008 214.9922 -247.9552
v  393.7008 213.1735 -248.7085
v  393.7008 214.5697 -252.0792
v  -393.7008 214.9922 -247.9553
v  -393.7008 213.1735 -248.7086
v  -393.7008 216.3884 -251.3260
v  -393.7008 214.5697 -252.0793
v  393.7008 276.7223 -164.1100
v  393.7008 274.5153 -161.9030
v  393.7008 273.1234 -163.2949
v  393.7008 275.3304 -165.5019
v  -393.7007 274.5153 -161.9031
v  -393.7007 273.1234 -163.2950
v  -393.7007 276.7223 -164.1101
v  -393.7007 275.3304 -165.5020
v  393.7008 301.8292 -77.8874
v  393.7008 299.2817 -76.8322
v  393.7008 298.5284 -78.6509
v  393.7008 301.0759 -79.7061
v  -393.7008 299.2817 -76.8323
v  -393.7008 298.5284 -78.6510
v  -393.7008 301.8292 -77.8875
v  -393.7008 301.0759 -79.7062
v  393.7008 309.2520 0.9842
v  393.7008 306.6000 0.9842
v  393.7008 306.6000 -0.9843
v  393.7008 309.2520 -0.9843
v  -393.7008 306.6000 0.9841
v  -393.7008 306.6000 -0.9844
v  -393.7008 309.2520 0.9841
v  -393.7008 309.2520 -0.9844
v  393.7008 301.0759 79.7060
v  393.7008 298.5284 78.6508
v  393.7008 299.2817 76.8322
v  393.7008 301.8292 77.8874
v  -393.7008 298.5284 78.6507
v  -393.7008 299.2817 76.8320
v  -393.7008 301.0759 79.7059
v  -393.7008 301.8292 77.8872
v  393.7007 275.3305 165.5019
v  393.7007 273.1235 163.2949
v  393.7007 274.5154 161.9029
v  393.7007 276.7224 164.1099
v  -393.7009 273.1235 163.2948
v  -393.7009 274.5155 161.9028
v  -393.7009 275.3305 165.5018
v  -393.7009 276.7224 164.1098
v  393.7007 214.5697 252.0792
v  393.7007 213.1735 248.7086
v  393.7007 214.9922 247.9553
v  393.7007 216.3884 251.3260
v  -393.7009 213.1736 248.7084
v  -393.7009 214.9922 247.9552
v  -393.7009 214.5697 252.0791
v  -393.7009 216.3884 251.3258
v  393.7008 110.2363 297.2441
v  393.7008 110.2363 293.2636
v  393.7008 112.2048 293.2636
v  393.7008 112.2048 297.2441
v  -393.7008 110.2363 293.2635
v  -393.7008 112.2048 293.2635
v  -393.7008 110.2363 297.2440
v  -393.7008 112.2048 297.2440
v  198.8189 149.0236 291.5328
v  194.8819 149.0236 291.5328
v  194.8819 110.2363 297.2442
v  198.8189 110.2363 297.2442
v  194.8819 186.3207 274.6180
v  194.8819 220.6939 247.1497
v  194.8819 184.0382 269.1256
v  194.8819 250.8223 210.1836
v  194.8819 275.5480 165.1403
v  194.8819 246.6047 205.9799
v  194.8819 293.9209 113.7507
v  194.8820 305.2349 57.9897
v  194.8819 288.4104 111.4757
v  194.8819 309.0552 0.0003
v  194.8819 305.2349 -57.9892
v  194.8819 303.0906 0.0003
v  194.8819 293.9210 -113.7502
v  194.8819 275.5482 -165.1398
v  194.8819 288.4105 -111.4752
v  194.8819 250.8225 -210.1832
v  194.8819 220.6942 -247.1494
v  194.8819 246.6049 -205.9796
v  194.8819 186.3210 -274.6177
v  194.8819 149.0239 -291.5327
v  194.8819 184.0385 -269.1254
v  194.8819 110.2362 -297.2441
v  194.8819 110.2362 -291.2993
v  194.8819 147.8603 -285.7020
v  194.8819 217.3804 -242.2064
v  194.8819 270.5888 -161.8370
v  194.8819 299.3850 -56.8294
v  194.8820 299.3849 56.8300
v  194.8819 270.5887 161.8375
v  194.8819 217.3802 242.2067
v  194.8819 147.8600 285.7021
v  194.8819 110.2363 291.2993
v  198.8189 110.2362 -297.2441
v  198.8189 149.0239 -291.5327
v  198.8189 186.3210 -274.6177
v  198.8189 220.6942 -247.1494
v  198.8189 250.8225 -210.1832
v  198.8189 275.5482 -165.1398
v  198.8189 293.9210 -113.7502
v  198.8189 305.2350 -57.9892
v  198.8189 309.0552 0.0003
v  198.8190 305.2349 57.9897
v  198.8189 293.9209 113.7507
v  198.8189 275.5481 165.1403
v  198.8189 250.8223 210.1836
v  198.8189 220.6939 247.1497
v  198.8189 186.3207 274.6180
v  194.8819 0.0000 -297.2442
v  194.8819 0.0000 -291.2993
v  194.8819 0.0000 297.2442
v  198.8189 0.0000 297.2442
v  198.8189 147.8603 -285.7020
v  198.8189 110.2362 -291.2993
v  198.8189 184.0384 -269.1254
v  198.8189 217.3804 -242.2064
v  198.8189 246.6049 -205.9795
v  198.8189 270.5888 -161.8370
v  198.8189 288.4105 -111.4752
v  198.8189 299.3850 -56.8294
v  198.8189 303.0906 0.0003
v  198.8190 299.3849 56.8299
v  198.8189 288.4104 111.4757
v  198.8189 270.5887 161.8375
v  198.8189 246.6047 205.9799
v  198.8189 217.3802 242.2067
v  198.8189 184.0382 269.1256
v  198.8189 147.8600 285.7021
v  198.8189 110.2363 291.2993
v  198.8189 0.0000 -297.2441
v  198.8189 0.0000 -291.2993
v  194.8819 0.0000 291.2993
v  198.8189 0.0000 291.2993
v  100.3937 149.0236 291.5328
v  96.4567 149.0236 291.5328
v  96.4567 110.2363 297.2441
v  100.3937 110.2363 297.2441
v  96.4567 186.3207 274.6180
v  96.4567 220.6939 247.1497
v  96.4567 184.0382 269.1256
v  96.4567 250.8223 210.1836
v  96.4567 275.5480 165.1403
v  96.4567 246.6047 205.9799
v  96.4567 293.9209 113.7507
v  96.4567 305.2349 57.9897
v  96.4567 288.4104 111.4757
v  96.4567 309.0551 0.0003
v  96.4567 305.2350 -57.9892
v  96.4567 303.0906 0.0003
v  96.4567 293.9210 -113.7502
v  96.4567 275.5482 -165.1398
v  96.4567 288.4105 -111.4752
v  96.4567 250.8225 -210.1832
v  96.4567 220.6942 -247.1494
v  96.4567 246.6049 -205.9796
v  96.4567 186.3210 -274.6177
v  96.4567 149.0239 -291.5327
v  96.4567 184.0385 -269.1254
v  96.4567 110.2362 -297.2442
v  96.4567 110.2362 -291.2993
v  96.4567 147.8603 -285.7021
v  96.4567 217.3804 -242.2064
v  96.4567 270.5888 -161.8371
v  96.4567 299.3850 -56.8294
v  96.4567 299.3849 56.8299
v  96.4567 270.5887 161.8375
v  96.4567 217.3802 242.2067
v  96.4567 147.8600 285.7021
v  96.4567 110.2363 291.2993
v  100.3937 110.2362 -297.2441
v  100.3937 149.0239 -291.5327
v  100.3937 186.3210 -274.6177
v  100.3937 220.6942 -247.1494
v  100.3937 250.8225 -210.1832
v  100.3937 275.5482 -165.1399
v  100.3937 293.9210 -113.7502
v  100.3937 305.2350 -57.9892
v  100.3937 309.0552 0.0003
v  100.3937 305.2349 57.9897
v  100.3937 293.9209 113.7507
v  100.3937 275.5480 165.1403
v  100.3937 250.8223 210.1836
v  100.3937 220.6940 247.1497
v  100.3937 186.3207 274.6180
v  100.3937 110.2362 -291.2993
v  100.3937 110.2363 291.2993
v  100.3937 147.8603 -285.7020
v  100.3937 184.0385 -269.1254
v  100.3937 217.3804 -242.2064
v  100.3937 246.6049 -205.9796
v  100.3937 270.5889 -161.8371
v  100.3937 288.4105 -111.4752
v  100.3937 299.3850 -56.8295
v  100.3937 303.0906 0.0003
v  100.3937 299.3849 56.8299
v  100.3937 288.4104 111.4757
v  100.3937 270.5887 161.8375
v  100.3937 246.6047 205.9799
v  100.3937 217.3802 242.2067
v  100.3937 184.0381 269.1256
v  100.3937 147.8600 285.7021
v  1.9685 149.0236 291.5327
v  -1.9685 149.0236 291.5327
v  -1.9685 110.2363 297.2441
v  1.9685 110.2363 297.2441
v  -1.9685 186.3207 274.6180
v  -1.9685 220.6939 247.1497
v  -1.9685 184.0382 269.1255
v  -1.9685 250.8223 210.1836
v  -1.9685 275.5480 165.1403
v  -1.9685 246.6047 205.9799
v  -1.9685 293.9209 113.7507
v  -1.9685 305.2349 57.9897
v  -1.9685 288.4104 111.4757
v  -1.9685 309.0551 0.0002
v  -1.9685 305.2350 -57.9893
v  -1.9685 303.0906 0.0002
v  -1.9685 293.9210 -113.7502
v  -1.9685 275.5482 -165.1399
v  -1.9685 288.4105 -111.4752
v  -1.9685 250.8225 -210.1832
v  -1.9685 220.6942 -247.1494
v  -1.9685 246.6049 -205.9796
v  -1.9685 186.3210 -274.6177
v  -1.9685 149.0239 -291.5327
v  -1.9685 184.0385 -269.1254
v  -1.9685 110.2362 -297.2442
v  -1.9685 110.2362 -291.2993
v  -1.9685 147.8603 -285.7021
v  -1.9685 217.3804 -242.2064
v  -1.9685 270.5888 -161.8371
v  -1.9685 299.3850 -56.8295
v  -1.9685 299.3849 56.8299
v  -1.9685 270.5887 161.8375
v  -1.9685 217.3802 242.2067
v  -1.9685 147.8600 285.7021
v  -1.9685 110.2363 291.2993
v  1.9685 110.2362 -297.2442
v  1.9685 149.0239 -291.5327
v  1.9685 186.3210 -274.6178
v  1.9685 220.6942 -247.1494
v  1.9685 250.8225 -210.1833
v  1.9685 275.5482 -165.1399
v  1.9685 293.9210 -113.7502
v  1.9685 305.2350 -57.9893
v  1.9685 309.0551 0.0002
v  1.9685 305.2349 57.9897
v  1.9685 293.9209 113.7507
v  1.9685 275.5480 165.1403
v  1.9685 250.8223 210.1836
v  1.9685 220.6939 247.1497
v  1.9685 186.3207 274.6180
v  1.9685 110.2362 -291.2993
v  -1.9685 0.0000 -291.2993
v  1.9685 0.0000 -291.2993
v  -1.9685 0.0000 297.2441
v  1.9685 0.0000 297.2442
v  1.9685 147.8603 -285.7021
v  1.9685 184.0385 -269.1254
v  1.9685 217.3805 -242.2064
v  1.9685 246.6049 -205.9796
v  1.9685 270.5888 -161.8371
v  1.9685 288.4105 -111.4752
v  1.9685 299.3850 -56.8295
v  1.9685 303.0906 0.0002
v  1.9685 299.3849 56.8299
v  1.9685 288.4104 111.4757
v  1.9685 270.5887 161.8375
v  1.9685 246.6047 205.9799
v  1.9685 217.3802 242.2067
v  1.9685 184.0381 269.1256
v  1.9685 147.8600 285.7021
v  1.9685 110.2363 291.2993
v  1.9685 0.0000 -297.2442
v  -1.9685 0.0000 -297.2442
v  -1.9685 0.0000 291.2993
v  1.9685 0.0000 291.2993
v  -96.4567 149.0236 291.5327
v  -100.3937 149.0236 291.5327
v  -100.3937 110.2363 297.2441
v  -96.4567 110.2363 297.2441
v  -100.3937 186.3207 274.6180
v  -100.3937 220.6939 247.1497
v  -100.3937 184.0381 269.1255
v  -100.3937 250.8223 210.1836
v  -100.3937 275.5480 165.1402
v  -100.3937 246.6047 205.9799
v  -100.3937 293.9209 113.7507
v  -100.3937 305.2349 57.9897
v  -100.3937 288.4104 111.4757
v  -100.3937 309.0551 0.0002
v  -100.3937 305.2349 -57.9893
v  -100.3937 303.0906 0.0002
v  -100.3937 293.9210 -113.7503
v  -100.3937 275.5482 -165.1399
v  -100.3937 288.4105 -111.4752
v  -100.3937 250.8225 -210.1833
v  -100.3937 220.6942 -247.1494
v  -100.3937 246.6049 -205.9796
v  -100.3937 186.3210 -274.6178
v  -100.3937 149.0239 -291.5327
v  -100.3937 184.0385 -269.1254
v  -100.3937 110.2362 -297.2442
v  -100.3937 110.2362 -291.2993
v  -100.3937 147.8603 -285.7021
v  -100.3937 217.3804 -242.2064
v  -100.3937 270.5888 -161.8371
v  -100.3937 299.3850 -56.8295
v  -100.3937 299.3849 56.8299
v  -100.3937 270.5887 161.8374
v  -100.3937 217.3802 242.2067
v  -100.3937 147.8600 285.7021
v  -100.3937 110.2363 291.2992
v  -96.4567 110.2362 -297.2442
v  -96.4567 149.0239 -291.5327
v  -96.4567 186.3210 -274.6178
v  -96.4567 220.6942 -247.1494
v  -96.4567 250.8225 -210.1833
v  -96.4567 275.5482 -165.1399
v  -96.4567 293.9210 -113.7503
v  -96.4566 305.2349 -57.9893
v  -96.4567 309.0552 0.0002
v  -96.4567 305.2349 57.9897
v  -96.4567 293.9209 113.7506
v  -96.4567 275.5480 165.1402
v  -96.4567 250.8223 210.1836
v  -96.4567 220.6939 247.1496
v  -96.4567 186.3207 274.6179
v  -96.4567 110.2362 -291.2993
v  -96.4567 110.2363 291.2992
v  -96.4567 147.8603 -285.7021
v  -96.4567 184.0385 -269.1254
v  -96.4567 217.3804 -242.2064
v  -96.4567 246.6049 -205.9796
v  -96.4567 270.5888 -161.8371
v  -96.4567 288.4105 -111.4753
v  -96.4567 299.3850 -56.8295
v  -96.4567 303.0906 0.0002
v  -96.4567 299.3849 56.8299
v  -96.4567 288.4104 111.4756
v  -96.4567 270.5887 161.8375
v  -96.4567 246.6047 205.9799
v  -96.4567 217.3802 242.2067
v  -96.4567 184.0381 269.1255
v  -96.4567 147.8600 285.7021
v  -194.8819 149.0236 291.5327
v  -198.8189 149.0236 291.5327
v  -198.8189 110.2363 297.2441
v  -194.8819 110.2363 297.2441
v  -198.8189 186.3207 274.6179
v  -198.8189 220.6939 247.1496
v  -198.8189 184.0382 269.1255
v  -198.8189 250.8223 210.1836
v  -198.8189 275.5480 165.1402
v  -198.8189 246.6047 205.9799
v  -198.8189 293.9209 113.7506
v  -198.8188 305.2349 57.9897
v  -198.8189 288.4104 111.4756
v  -198.8189 309.0551 0.0002
v  -198.8189 305.2350 -57.9893
v  -198.8189 303.0906 0.0002
v  -198.8189 293.9210 -113.7503
v  -198.8189 275.5482 -165.1399
v  -198.8189 288.4105 -111.4753
v  -198.8189 250.8225 -210.1833
v  -198.8189 220.6942 -247.1494
v  -198.8189 246.6049 -205.9796
v  -198.8189 186.3210 -274.6178
v  -198.8189 149.0239 -291.5327
v  -198.8189 184.0385 -269.1255
v  -198.8189 110.2362 -297.2443
v  -198.8189 110.2362 -291.2993
v  -198.8189 147.8603 -285.7021
v  -198.8189 217.3804 -242.2064
v  -198.8189 270.5888 -161.8371
v  -198.8189 299.3850 -56.8295
v  -198.8188 299.3849 56.8299
v  -198.8189 270.5887 161.8374
v  -198.8189 217.3802 242.2066
v  -198.8189 147.8600 285.7021
v  -198.8189 110.2363 291.2992
v  -194.8819 110.2362 -297.2442
v  -194.8819 149.0239 -291.5327
v  -194.8819 186.3210 -274.6178
v  -194.8819 220.6942 -247.1495
v  -194.8819 250.8225 -210.1833
v  -194.8819 275.5482 -165.1399
v  -194.8819 293.9210 -113.7503
v  -194.8819 305.2350 -57.9893
v  -194.8819 309.0552 0.0002
v  -194.8818 305.2349 57.9897
v  -194.8819 293.9209 113.7506
v  -194.8819 275.5480 165.1402
v  -194.8819 250.8223 210.1836
v  -194.8819 220.6939 247.1496
v  -194.8819 186.3207 274.6179
v  -194.8819 110.2362 -291.2993
v  -198.8189 0.0000 -291.2993
v  -194.8819 0.0000 -291.2993
v  -194.8819 110.2363 291.2992
v  -194.8819 0.0000 297.2441
v  -194.8819 0.0000 291.2993
v  -194.8819 147.8603 -285.7021
v  -194.8819 184.0384 -269.1255
v  -194.8819 217.3804 -242.2064
v  -194.8819 246.6049 -205.9796
v  -194.8819 270.5888 -161.8371
v  -194.8819 288.4105 -111.4753
v  -194.8819 299.3850 -56.8295
v  -194.8819 303.0906 0.0002
v  -194.8818 299.3849 56.8299
v  -194.8819 288.4104 111.4756
v  -194.8819 270.5887 161.8374
v  -194.8819 246.6047 205.9799
v  -194.8819 217.3802 242.2066
v  -194.8819 184.0382 269.1255
v  -194.8819 147.8600 285.7021
v  -194.8819 0.0000 -297.2442
v  -198.8189 0.0000 -297.2443
v  -198.8189 0.0000 297.2441
v  -198.8189 0.0000 291.2993
v  -293.3071 149.0236 291.5327
v  -297.2441 149.0236 291.5327
v  -297.2441 110.2363 297.2441
v  -293.3071 110.2363 297.2441
v  -297.2441 186.3207 274.6179
v  -297.2441 220.6939 247.1496
v  -297.2441 184.0381 269.1255
v  -297.2441 250.8223 210.1836
v  -297.2441 275.5480 165.1402
v  -297.2441 246.6047 205.9799
v  -297.2441 293.9209 113.7506
v  -297.2440 305.2349 57.9897
v  -297.2441 288.4104 111.4756
v  -297.2441 309.0552 0.0002
v  -297.2441 305.2349 -57.9893
v  -297.2441 303.0906 0.0002
v  -297.2441 293.9210 -113.7503
v  -297.2441 275.5482 -165.1399
v  -297.2441 288.4105 -111.4753
v  -297.2441 250.8225 -210.1833
v  -297.2441 220.6942 -247.1494
v  -297.2441 246.6049 -205.9796
v  -297.2441 186.3210 -274.6178
v  -297.2441 149.0239 -291.5327
v  -297.2441 184.0385 -269.1255
v  -297.2441 110.2362 -297.2442
v  -297.2441 110.2362 -291.2993
v  -297.2441 147.8603 -285.7021
v  -297.2441 217.3804 -242.2064
v  -297.2441 270.5888 -161.8371
v  -297.2441 299.3850 -56.8295
v  -297.2440 299.3849 56.8299
v  -297.2441 270.5887 161.8374
v  -297.2441 217.3802 242.2066
v  -297.2441 147.8600 285.7021
v  -297.2441 110.2363 291.2992
v  -293.3071 110.2362 -297.2442
v  -293.3071 149.0239 -291.5327
v  -293.3071 186.3210 -274.6178
v  -293.3071 220.6942 -247.1495
v  -293.3071 250.8225 -210.1833
v  -293.3071 275.5482 -165.1399
v  -293.3071 293.9210 -113.7503
v  -293.3071 305.2350 -57.9893
v  -293.3071 309.0552 0.0002
v  -293.3070 305.2349 57.9897
v  -293.3071 293.9209 113.7506
v  -293.3071 275.5481 165.1402
v  -293.3071 250.8223 210.1836
v  -293.3071 220.6939 247.1496
v  -293.3071 186.3207 274.6179
v  -293.3071 110.2362 -291.2993
v  -293.3071 110.2363 291.2992
v  -293.3071 147.8603 -285.7021
v  -293.3071 184.0384 -269.1255
v  -293.3071 217.3804 -242.2064
v  -293.3071 246.6049 -205.9796
v  -293.3071 270.5888 -161.8371
v  -293.3071 288.4105 -111.4753
v  -293.3071 299.3850 -56.8295
v  -293.3071 303.0906 0.0002
v  -293.3070 299.3849 56.8299
v  -293.3071 288.4104 111.4756
v  -293.3071 270.5887 161.8374
v  -293.3071 246.6047 205.9799
v  -293.3071 217.3802 242.2066
v  -293.3071 184.0381 269.1255
v  -293.3071 147.8600 285.7021
v  -389.7638 149.0236 291.5327
v  -393.7008 149.0236 291.5327
v  -389.7638 110.2363 297.2441
v  -393.7008 186.3207 274.6179
v  -393.7008 220.6939 247.1496
v  -393.7008 184.0382 269.1255
v  -393.7008 250.8223 210.1835
v  -393.7008 275.5480 165.1402
v  -393.7008 246.6047 205.9799
v  -393.7007 293.9209 113.7506
v  -393.7007 305.2349 57.9897
v  -393.7007 288.4104 111.4756
v  -393.7007 309.0551 0.0002
v  -393.7008 305.2350 -57.9893
v  -393.7007 303.0906 0.0002
v  -393.7008 293.9210 -113.7503
v  -393.7007 275.5482 -165.1399
v  -393.7008 288.4105 -111.4753
v  -393.7007 250.8225 -210.1833
v  -393.7008 220.6942 -247.1495
v  -393.7007 246.6049 -205.9796
v  -393.7008 186.3210 -274.6178
v  -393.7008 149.0239 -291.5327
v  -393.7008 184.0385 -269.1255
v  -393.7008 110.2362 -297.2442
v  -393.7008 110.2362 -291.2994
v  -393.7008 147.8603 -285.7021
v  -393.7008 217.3804 -242.2065
v  -393.7007 270.5888 -161.8371
v  -393.7008 299.3850 -56.8295
v  -393.7007 299.3849 56.8299
v  -393.7008 270.5887 161.8374
v  -393.7008 217.3802 242.2066
v  -393.7008 147.8600 285.7021
v  -393.7008 110.2363 291.2992
v  -389.7638 110.2362 -297.2442
v  -389.7638 149.0239 -291.5327
v  -389.7638 186.3210 -274.6178
v  -389.7638 220.6942 -247.1495
v  -389.7637 250.8225 -210.1833
v  -389.7637 275.5482 -165.1399
v  -389.7638 293.9210 -113.7503
v  -389.7638 305.2350 -57.9893
v  -389.7637 309.0552 0.0002
v  -389.7637 305.2349 57.9897
v  -389.7637 293.9209 113.7506
v  -389.7638 275.5480 165.1402
v  -389.7638 250.8223 210.1835
v  -389.7638 220.6940 247.1496
v  -389.7638 186.3207 274.6179
v  -389.7638 110.2362 -291.2994
v  -389.7638 0.0000 -291.2994
v  -389.7638 0.0000 -297.2442
v  -389.7638 110.2363 291.2992
v  -389.7638 0.0000 297.2441
v  -389.7638 0.0000 291.2992
v  -389.7638 147.8603 -285.7021
v  -389.7638 184.0385 -269.1255
v  -389.7638 217.3804 -242.2064
v  -389.7637 246.6049 -205.9796
v  -389.7637 270.5888 -161.8371
v  -389.7638 288.4105 -111.4753
v  -389.7638 299.3850 -56.8295
v  -389.7637 303.0906 0.0002
v  -389.7637 299.3849 56.8299
v  -389.7637 288.4104 111.4756
v  -389.7638 270.5887 161.8374
v  -389.7638 246.6047 205.9799
v  -389.7638 217.3802 242.2066
v  -389.7638 184.0381 269.1255
v  -389.7638 147.8600 285.7021
v  -393.7008 0.0000 -291.2994
v  -393.7008 0.0000 -297.2443
v  -393.7008 0.0000 297.2441
v  -393.7008 0.0000 291.2992
# 790 vertices

vn 0.0000 0.1461 0.9893
vn -1.0000 0.0000 -0.0000
vn -1.0000 -0.0000 0.0000
vn -1.0000 -0.0000 -0.0000
vn -1.0000 0.0000 0.0000
vn 0.0000 0.1462 -0.9893
vn 0.0000 0.4142 -0.9102
vn 0.0000 0.6255 -0.7802
vn 0.0000 0.7762 -0.6305
vn 0.0000 0.8773 -0.4800
vn 0.0000 0.9420 -0.3357
vn 0.0000 0.9802 -0.1982
vn 0.0000 0.9979 -0.0655
vn 0.0000 0.9979 0.0655
vn 0.0000 0.9802 0.1982
vn 0.0000 0.9420 0.3357
vn 0.0000 0.8773 0.4800
vn 0.0000 0.7762 0.6305
vn 0.0000 0.6255 0.7802
vn 0.0000 0.4142 0.9102
vn -0.0000 -0.1476 -0.9890
vn -0.0000 -0.4177 -0.9086
vn -0.0000 -1.0000 0.0000
vn -0.0000 -0.6294 -0.7771
vn -0.0000 -0.7793 -0.6266
vn 1.0000 0.0000 -0.0000
vn 1.0000 -0.0000 -0.0000
vn 1.0000 0.0000 0.0000
vn 1.0000 -0.0000 0.0000
vn -0.0000 -0.8793 -0.4762
vn -0.0000 -0.9431 -0.3326
vn -0.0000 -0.9805 -0.1963
vn -0.0000 -0.9979 -0.0649
vn -0.0000 -0.9979 0.0649
vn -0.0000 -0.9805 0.1963
vn -0.0000 -0.9431 0.3326
vn -0.0000 -0.8793 0.4762
vn -0.0000 -0.7793 0.6266
vn -0.0000 -0.6294 0.7771
vn -0.0000 -0.4177 0.9086
vn -0.0000 -0.1476 0.9890
vn -0.0000 0.1457 0.9893
vn 0.0000 0.1457 -0.9893
vn -0.0000 0.4130 -0.9107
vn -0.0000 0.6243 -0.7812
vn -0.0000 0.7752 -0.6318
vn -0.0000 0.8766 -0.4812
vn -0.0000 0.9416 -0.3367
vn -0.0000 0.9800 -0.1988
vn -0.0000 0.9978 -0.0657
vn -0.0000 0.9978 0.0657
vn -0.0000 0.9800 0.1988
vn -0.0000 0.9416 0.3367
vn -0.0000 0.8766 0.4812
vn -0.0000 0.7752 0.6318
vn 0.0000 0.6243 0.7812
vn 0.0000 0.4130 0.9107
vn 0.0000 -0.1471 -0.9891
vn 0.0000 -0.4165 -0.9091
vn 0.0000 -0.6282 -0.7781
vn -0.0000 0.0000 1.0000
vn 0.0000 -0.7783 -0.6279
vn 0.0000 -0.8787 -0.4774
vn 0.0000 -0.9427 -0.3336
vn 0.0000 -0.9804 -0.1969
vn 0.0000 -0.9979 -0.0651
vn 0.0000 -0.9979 0.0651
vn 0.0000 -0.9804 0.1969
vn 0.0000 -0.9427 0.3336
vn 0.0000 -0.8787 0.4774
vn -0.0000 -0.7783 0.6279
vn -0.0000 -0.6282 0.7781
vn -0.0000 -0.4166 0.9091
vn -0.0000 -0.1471 0.9891
vn 0.0000 -0.0000 1.0000
vn 0.0000 0.0000 -1.0000
vn 0.0000 -0.0000 -1.0000
vn 0.0000 0.9978 -0.0657
vn 0.0000 0.9416 0.3367
vn 0.0000 -1.0000 0.0000
vn 0.0000 1.0000 -0.0000
vn -0.0000 -0.3827 0.9239
vn 0.0000 0.3827 -0.9239
vn 0.0000 -0.9239 -0.3827
vn -0.0000 0.9239 0.3827
vn -0.0000 -0.7071 0.7071
vn 0.0000 0.7071 -0.7071
vn 0.0000 -0.7071 -0.7071
vn -0.0000 0.7071 0.7071
vn -0.0000 -0.9239 0.3827
vn 0.0000 0.9239 -0.3827
vn 0.0000 -0.3827 -0.9239
vn -0.0000 0.3827 0.9239
vn 0.0000 0.9978 0.0657
vn 0.0000 0.7752 0.6318
vn 0.0000 0.9800 0.1988
vn -0.0000 -0.0000 1.0000
# 97 vertex normals

vt 0.6915 0.0394 0.0000
vt 0.7415 0.0394 0.0000
vt 0.7415 0.0894 0.0000
vt 0.6915 0.0894 0.0000
vt 0.7213 0.0890 0.0000
vt 0.7258 0.0877 0.0000
vt 0.7301 0.0855 0.0000
vt 0.7073 0.0877 0.0000
vt 0.7338 0.0825 0.0000
vt 0.7369 0.0789 0.0000
vt 0.6993 0.0825 0.0000
vt 0.7393 0.0748 0.0000
vt 0.7408 0.0703 0.0000
vt 0.6938 0.0748 0.0000
vt 0.7415 0.0656 0.0000
vt 0.7413 0.0609 0.0000
vt 0.6916 0.0656 0.0000
vt 0.7402 0.0563 0.0000
vt 0.7382 0.0519 0.0000
vt 0.6929 0.0563 0.0000
vt 0.7354 0.0481 0.0000
vt 0.7320 0.0448 0.0000
vt 0.6977 0.0481 0.0000
vt 0.7280 0.0422 0.0000
vt 0.7236 0.0405 0.0000
vt 0.7051 0.0422 0.0000
vt 0.7189 0.0396 0.0000
vt 0.7142 0.0396 0.0000
vt 0.7095 0.0405 0.0000
vt 0.7011 0.0448 0.0000
vt 0.6949 0.0519 0.0000
vt 0.6918 0.0609 0.0000
vt 0.6923 0.0703 0.0000
vt 0.6962 0.0789 0.0000
vt 0.7030 0.0855 0.0000
vt 0.7118 0.0890 0.0000
vt 0.7165 0.0894 0.0000
vt 0.7256 0.0411 0.0000
vt 0.7211 0.0399 0.0000
vt 0.7165 0.0394 0.0000
vt 0.7075 0.0411 0.0000
vt 0.7120 0.0399 0.0000
vt 0.7297 0.0432 0.0000
vt 0.7334 0.0460 0.0000
vt 0.7034 0.0432 0.0000
vt 0.6997 0.0460 0.0000
vt 0.7365 0.0494 0.0000
vt 0.7389 0.0533 0.0000
vt 0.6966 0.0494 0.0000
vt 0.6942 0.0533 0.0000
vt 0.7406 0.0576 0.0000
vt 0.7414 0.0621 0.0000
vt 0.6925 0.0576 0.0000
vt 0.6917 0.0621 0.0000
vt 0.7414 0.0667 0.0000
vt 0.7406 0.0713 0.0000
vt 0.6917 0.0667 0.0000
vt 0.6925 0.0713 0.0000
vt 0.7389 0.0756 0.0000
vt 0.7365 0.0795 0.0000
vt 0.6942 0.0756 0.0000
vt 0.6966 0.0795 0.0000
vt 0.7334 0.0829 0.0000
vt 0.7297 0.0857 0.0000
vt 0.6997 0.0829 0.0000
vt 0.7034 0.0857 0.0000
vt 0.7256 0.0878 0.0000
vt 0.7211 0.0890 0.0000
vt 0.7075 0.0878 0.0000
vt 0.7120 0.0890 0.0000
vt 0.8353 0.9229 0.0000
vt 0.8853 0.9229 0.0000
vt 0.8853 0.9729 0.0000
vt 0.8353 0.9729 0.0000
vt 0.8651 0.9725 0.0000
vt 0.8696 0.9711 0.0000
vt 0.8738 0.9689 0.0000
vt 0.8510 0.9711 0.0000
vt 0.8776 0.9660 0.0000
vt 0.8807 0.9624 0.0000
vt 0.8431 0.9660 0.0000
vt 0.8831 0.9583 0.0000
vt 0.8846 0.9538 0.0000
vt 0.8376 0.9583 0.0000
vt 0.8853 0.9491 0.0000
vt 0.8851 0.9444 0.0000
vt 0.8354 0.9491 0.0000
vt 0.8839 0.9397 0.0000
vt 0.8820 0.9354 0.0000
vt 0.8367 0.9397 0.0000
vt 0.8792 0.9315 0.0000
vt 0.8758 0.9283 0.0000
vt 0.8414 0.9315 0.0000
vt 0.8718 0.9257 0.0000
vt 0.8674 0.9239 0.0000
vt 0.8489 0.9257 0.0000
vt 0.8627 0.9230 0.0000
vt 0.8579 0.9230 0.0000
vt 0.8533 0.9239 0.0000
vt 0.8449 0.9283 0.0000
vt 0.8387 0.9354 0.0000
vt 0.8356 0.9444 0.0000
vt 0.8360 0.9538 0.0000
vt 0.8400 0.9624 0.0000
vt 0.8468 0.9689 0.0000
vt 0.8556 0.9725 0.0000
vt 0.8603 0.9729 0.0000
vt 0.8694 0.9246 0.0000
vt 0.8649 0.9233 0.0000
vt 0.8603 0.9229 0.0000
vt 0.8513 0.9246 0.0000
vt 0.8557 0.9233 0.0000
vt 0.8735 0.9267 0.0000
vt 0.8772 0.9294 0.0000
vt 0.8472 0.9267 0.0000
vt 0.8435 0.9294 0.0000
vt 0.8803 0.9329 0.0000
vt 0.8827 0.9368 0.0000
vt 0.8404 0.9329 0.0000
vt 0.8379 0.9368 0.0000
vt 0.8844 0.9411 0.0000
vt 0.8852 0.9456 0.0000
vt 0.8363 0.9411 0.0000
vt 0.8354 0.9456 0.0000
vt 0.8852 0.9502 0.0000
vt 0.8844 0.9548 0.0000
vt 0.8354 0.9502 0.0000
vt 0.8363 0.9548 0.0000
vt 0.8827 0.9591 0.0000
vt 0.8803 0.9630 0.0000
vt 0.8379 0.9591 0.0000
vt 0.8404 0.9630 0.0000
vt 0.8772 0.9664 0.0000
vt 0.8735 0.9692 0.0000
vt 0.8435 0.9664 0.0000
vt 0.8472 0.9692 0.0000
vt 0.8694 0.9712 0.0000
vt 0.8649 0.9725 0.0000
vt 0.8513 0.9712 0.0000
vt 0.8557 0.9725 0.0000
vt 0.8688 0.9400 0.0000
vt 0.8604 0.9400 0.0000
vt 0.8609 0.9389 0.0000
vt 0.8683 0.9391 0.0000
vt 0.8603 0.9409 0.0000
vt 0.8603 0.9417 0.0000
vt 0.8602 0.9408 0.0000
vt 0.8603 0.9426 0.0000
vt 0.8603 0.9435 0.0000
vt 0.8602 0.9426 0.0000
vt 0.8603 0.9443 0.0000
vt 0.8603 0.9452 0.0000
vt 0.8601 0.9443 0.0000
vt 0.8603 0.9461 0.0000
vt 0.8603 0.9470 0.0000
vt 0.8601 0.9461 0.0000
vt 0.8603 0.9478 0.0000
vt 0.8603 0.9487 0.0000
vt 0.8601 0.9478 0.0000
vt 0.8603 0.9495 0.0000
vt 0.8603 0.9504 0.0000
vt 0.8602 0.9496 0.0000
vt 0.8603 0.9513 0.0000
vt 0.8604 0.9521 0.0000
vt 0.8602 0.9513 0.0000
vt 0.8607 0.9530 0.0000
vt 0.8607 0.9531 0.0000
vt 0.8603 0.9522 0.0000
vt 0.8602 0.9504 0.0000
vt 0.8601 0.9487 0.0000
vt 0.8601 0.9470 0.0000
vt 0.8601 0.9452 0.0000
vt 0.8602 0.9435 0.0000
vt 0.8602 0.9417 0.0000
vt 0.8603 0.9399 0.0000
vt 0.8608 0.9388 0.0000
vt 0.8682 0.9533 0.0000
vt 0.8687 0.9523 0.0000
vt 0.8688 0.9514 0.0000
vt 0.8688 0.9505 0.0000
vt 0.8688 0.9496 0.0000
vt 0.8689 0.9487 0.0000
vt 0.8689 0.9479 0.0000
vt 0.8689 0.9470 0.0000
vt 0.8689 0.9461 0.0000
vt 0.8689 0.9453 0.0000
vt 0.8689 0.9444 0.0000
vt 0.8689 0.9435 0.0000
vt 0.8689 0.9427 0.0000
vt 0.8689 0.9418 0.0000
vt 0.8688 0.9409 0.0000
vt 0.8683 0.9535 0.0000
vt 0.8684 0.9390 0.0000
vt 0.8688 0.9523 0.0000
vt 0.8689 0.9514 0.0000
vt 0.8689 0.9505 0.0000
vt 0.8690 0.9496 0.0000
vt 0.8690 0.9488 0.0000
vt 0.8690 0.9479 0.0000
vt 0.8690 0.9470 0.0000
vt 0.8690 0.9461 0.0000
vt 0.8690 0.9453 0.0000
vt 0.8690 0.9444 0.0000
vt 0.8690 0.9435 0.0000
vt 0.8690 0.9426 0.0000
vt 0.8690 0.9418 0.0000
vt 0.8689 0.9409 0.0000
vt 0.8689 0.9400 0.0000
vt 0.8583 0.9490 0.0000
vt 0.8559 0.9431 0.0000
vt 0.8569 0.9436 0.0000
vt 0.8592 0.9480 0.0000
vt 0.8548 0.9427 0.0000
vt 0.8536 0.9425 0.0000
vt 0.8549 0.9426 0.0000
vt 0.8523 0.9423 0.0000
vt 0.8509 0.9422 0.0000
vt 0.8523 0.9421 0.0000
vt 0.8494 0.9423 0.0000
vt 0.8480 0.9424 0.0000
vt 0.8495 0.9420 0.0000
vt 0.8465 0.9426 0.0000
vt 0.8450 0.9429 0.0000
vt 0.8465 0.9423 0.0000
vt 0.8435 0.9433 0.0000
vt 0.8421 0.9437 0.0000
vt 0.8434 0.9431 0.0000
vt 0.8407 0.9443 0.0000
vt 0.8394 0.9450 0.0000
vt 0.8406 0.9441 0.0000
vt 0.8382 0.9457 0.0000
vt 0.8371 0.9466 0.0000
vt 0.8381 0.9456 0.0000
vt 0.8362 0.9475 0.0000
vt 0.8357 0.9479 0.0000
vt 0.8370 0.9465 0.0000
vt 0.8393 0.9448 0.0000
vt 0.8420 0.9436 0.0000
vt 0.8449 0.9426 0.0000
vt 0.8480 0.9421 0.0000
vt 0.8509 0.9420 0.0000
vt 0.8536 0.9423 0.0000
vt 0.8560 0.9430 0.0000
vt 0.8574 0.9435 0.0000
vt 0.8385 0.9519 0.0000
vt 0.8395 0.9524 0.0000
vt 0.8406 0.9528 0.0000
vt 0.8419 0.9530 0.0000
vt 0.8432 0.9532 0.0000
vt 0.8446 0.9533 0.0000
vt 0.8460 0.9533 0.0000
vt 0.8475 0.9532 0.0000
vt 0.8490 0.9530 0.0000
vt 0.8504 0.9527 0.0000
vt 0.8519 0.9523 0.0000
vt 0.8533 0.9518 0.0000
vt 0.8547 0.9512 0.0000
vt 0.8560 0.9506 0.0000
vt 0.8572 0.9498 0.0000
vt 0.8353 0.9480 0.0000
vt 0.8358 0.9478 0.0000
vt 0.8575 0.9436 0.0000
vt 0.8601 0.9475 0.0000
vt 0.8395 0.9526 0.0000
vt 0.8381 0.9520 0.0000
vt 0.8406 0.9529 0.0000
vt 0.8418 0.9532 0.0000
vt 0.8431 0.9534 0.0000
vt 0.8445 0.9535 0.0000
vt 0.8460 0.9535 0.0000
vt 0.8475 0.9534 0.0000
vt 0.8490 0.9532 0.0000
vt 0.8505 0.9529 0.0000
vt 0.8520 0.9525 0.0000
vt 0.8534 0.9520 0.0000
vt 0.8548 0.9514 0.0000
vt 0.8561 0.9507 0.0000
vt 0.8573 0.9499 0.0000
vt 0.8585 0.9491 0.0000
vt 0.8597 0.9477 0.0000
vt 0.8380 0.9519 0.0000
vt 0.8383 0.9517 0.0000
vt 0.8572 0.9438 0.0000
vt 0.8596 0.9477 0.0000
vt 0.8776 0.9400 0.0000
vt 0.8693 0.9400 0.0000
vt 0.8698 0.9389 0.0000
vt 0.8772 0.9391 0.0000
vt 0.8692 0.9409 0.0000
vt 0.8692 0.9417 0.0000
vt 0.8691 0.9408 0.0000
vt 0.8692 0.9426 0.0000
vt 0.8692 0.9435 0.0000
vt 0.8691 0.9426 0.0000
vt 0.8692 0.9443 0.0000
vt 0.8692 0.9452 0.0000
vt 0.8690 0.9443 0.0000
vt 0.8692 0.9461 0.0000
vt 0.8692 0.9470 0.0000
vt 0.8692 0.9478 0.0000
vt 0.8692 0.9487 0.0000
vt 0.8690 0.9478 0.0000
vt 0.8692 0.9495 0.0000
vt 0.8692 0.9504 0.0000
vt 0.8691 0.9496 0.0000
vt 0.8692 0.9513 0.0000
vt 0.8693 0.9521 0.0000
vt 0.8691 0.9513 0.0000
vt 0.8696 0.9530 0.0000
vt 0.8696 0.9531 0.0000
vt 0.8692 0.9522 0.0000
vt 0.8691 0.9504 0.0000
vt 0.8690 0.9487 0.0000
vt 0.8690 0.9452 0.0000
vt 0.8691 0.9435 0.0000
vt 0.8691 0.9417 0.0000
vt 0.8692 0.9399 0.0000
vt 0.8697 0.9388 0.0000
vt 0.8771 0.9533 0.0000
vt 0.8776 0.9523 0.0000
vt 0.8777 0.9514 0.0000
vt 0.8777 0.9505 0.0000
vt 0.8777 0.9496 0.0000
vt 0.8777 0.9487 0.0000
vt 0.8777 0.9479 0.0000
vt 0.8778 0.9470 0.0000
vt 0.8778 0.9461 0.0000
vt 0.8778 0.9453 0.0000
vt 0.8778 0.9444 0.0000
vt 0.8778 0.9435 0.0000
vt 0.8778 0.9427 0.0000
vt 0.8778 0.9418 0.0000
vt 0.8777 0.9409 0.0000
vt 0.8771 0.9535 0.0000
vt 0.8773 0.9390 0.0000
vt 0.8777 0.9523 0.0000
vt 0.8778 0.9514 0.0000
vt 0.8778 0.9505 0.0000
vt 0.8779 0.9496 0.0000
vt 0.8779 0.9488 0.0000
vt 0.8779 0.9479 0.0000
vt 0.8779 0.9470 0.0000
vt 0.8779 0.9461 0.0000
vt 0.8779 0.9453 0.0000
vt 0.8779 0.9444 0.0000
vt 0.8779 0.9435 0.0000
vt 0.8779 0.9426 0.0000
vt 0.8779 0.9418 0.0000
vt 0.8778 0.9409 0.0000
vt 0.8777 0.9400 0.0000
vt 0.8746 0.9299 0.0000
vt 0.8722 0.9240 0.0000
vt 0.8732 0.9245 0.0000
vt 0.8755 0.9289 0.0000
vt 0.8711 0.9236 0.0000
vt 0.8699 0.9234 0.0000
vt 0.8712 0.9235 0.0000
vt 0.8686 0.9232 0.0000
vt 0.8672 0.9231 0.0000
vt 0.8686 0.9230 0.0000
vt 0.8658 0.9231 0.0000
vt 0.8643 0.9233 0.0000
vt 0.8658 0.9229 0.0000
vt 0.8628 0.9235 0.0000
vt 0.8613 0.9238 0.0000
vt 0.8628 0.9232 0.0000
vt 0.8598 0.9241 0.0000
vt 0.8584 0.9246 0.0000
vt 0.8598 0.9239 0.0000
vt 0.8570 0.9252 0.0000
vt 0.8557 0.9259 0.0000
vt 0.8569 0.9250 0.0000
vt 0.8545 0.9266 0.0000
vt 0.8534 0.9274 0.0000
vt 0.8544 0.9265 0.0000
vt 0.8525 0.9284 0.0000
vt 0.8521 0.9288 0.0000
vt 0.8533 0.9273 0.0000
vt 0.8556 0.9257 0.0000
vt 0.8583 0.9244 0.0000
vt 0.8612 0.9235 0.0000
vt 0.8643 0.9230 0.0000
vt 0.8672 0.9229 0.0000
vt 0.8699 0.9232 0.0000
vt 0.8723 0.9238 0.0000
vt 0.8737 0.9244 0.0000
vt 0.8548 0.9328 0.0000
vt 0.8558 0.9333 0.0000
vt 0.8569 0.9337 0.0000
vt 0.8582 0.9339 0.0000
vt 0.8595 0.9341 0.0000
vt 0.8609 0.9342 0.0000
vt 0.8623 0.9342 0.0000
vt 0.8638 0.9340 0.0000
vt 0.8653 0.9338 0.0000
vt 0.8668 0.9335 0.0000
vt 0.8682 0.9332 0.0000
vt 0.8696 0.9327 0.0000
vt 0.8710 0.9321 0.0000
vt 0.8723 0.9314 0.0000
vt 0.8735 0.9307 0.0000
vt 0.8544 0.9329 0.0000
vt 0.8522 0.9287 0.0000
vt 0.8546 0.9326 0.0000
vt 0.8738 0.9245 0.0000
vt 0.8764 0.9284 0.0000
vt 0.8558 0.9334 0.0000
vt 0.8569 0.9338 0.0000
vt 0.8581 0.9341 0.0000
vt 0.8594 0.9343 0.0000
vt 0.8608 0.9344 0.0000
vt 0.8623 0.9344 0.0000
vt 0.8638 0.9343 0.0000
vt 0.8653 0.9341 0.0000
vt 0.8668 0.9338 0.0000
vt 0.8683 0.9334 0.0000
vt 0.8698 0.9329 0.0000
vt 0.8711 0.9323 0.0000
vt 0.8724 0.9316 0.0000
vt 0.8736 0.9308 0.0000
vt 0.8748 0.9300 0.0000
vt 0.8760 0.9285 0.0000
vt 0.8543 0.9328 0.0000
vt 0.8516 0.9289 0.0000
vt 0.8735 0.9247 0.0000
vt 0.8759 0.9286 0.0000
vt 0.8776 0.9547 0.0000
vt 0.8693 0.9547 0.0000
vt 0.8698 0.9536 0.0000
vt 0.8772 0.9538 0.0000
vt 0.8692 0.9556 0.0000
vt 0.8692 0.9564 0.0000
vt 0.8691 0.9555 0.0000
vt 0.8692 0.9573 0.0000
vt 0.8692 0.9582 0.0000
vt 0.8691 0.9573 0.0000
vt 0.8692 0.9590 0.0000
vt 0.8692 0.9599 0.0000
vt 0.8690 0.9590 0.0000
vt 0.8692 0.9608 0.0000
vt 0.8692 0.9616 0.0000
vt 0.8690 0.9608 0.0000
vt 0.8692 0.9625 0.0000
vt 0.8692 0.9634 0.0000
vt 0.8690 0.9625 0.0000
vt 0.8692 0.9642 0.0000
vt 0.8692 0.9651 0.0000
vt 0.8691 0.9643 0.0000
vt 0.8692 0.9660 0.0000
vt 0.8693 0.9668 0.0000
vt 0.8691 0.9660 0.0000
vt 0.8696 0.9677 0.0000
vt 0.8696 0.9678 0.0000
vt 0.8692 0.9669 0.0000
vt 0.8691 0.9651 0.0000
vt 0.8690 0.9634 0.0000
vt 0.8690 0.9617 0.0000
vt 0.8690 0.9599 0.0000
vt 0.8691 0.9581 0.0000
vt 0.8691 0.9564 0.0000
vt 0.8692 0.9546 0.0000
vt 0.8697 0.9535 0.0000
vt 0.8771 0.9680 0.0000
vt 0.8776 0.9670 0.0000
vt 0.8777 0.9660 0.0000
vt 0.8777 0.9652 0.0000
vt 0.8777 0.9643 0.0000
vt 0.8777 0.9634 0.0000
vt 0.8777 0.9626 0.0000
vt 0.8778 0.9617 0.0000
vt 0.8778 0.9608 0.0000
vt 0.8778 0.9600 0.0000
vt 0.8778 0.9591 0.0000
vt 0.8778 0.9582 0.0000
vt 0.8778 0.9574 0.0000
vt 0.8778 0.9565 0.0000
vt 0.8777 0.9556 0.0000
vt 0.8771 0.9682 0.0000
vt 0.8773 0.9537 0.0000
vt 0.8777 0.9670 0.0000
vt 0.8778 0.9661 0.0000
vt 0.8778 0.9652 0.0000
vt 0.8779 0.9643 0.0000
vt 0.8779 0.9634 0.0000
vt 0.8779 0.9626 0.0000
vt 0.8779 0.9617 0.0000
vt 0.8779 0.9608 0.0000
vt 0.8779 0.9600 0.0000
vt 0.8779 0.9591 0.0000
vt 0.8779 0.9582 0.0000
vt 0.8779 0.9573 0.0000
vt 0.8779 0.9565 0.0000
vt 0.8778 0.9556 0.0000
vt 0.8777 0.9547 0.0000
vt 0.8583 0.9604 0.0000
vt 0.8559 0.9546 0.0000
vt 0.8569 0.9550 0.0000
vt 0.8592 0.9595 0.0000
vt 0.8548 0.9542 0.0000
vt 0.8536 0.9539 0.0000
vt 0.8549 0.9541 0.0000
vt 0.8523 0.9538 0.0000
vt 0.8509 0.9537 0.0000
vt 0.8523 0.9536 0.0000
vt 0.8494 0.9537 0.0000
vt 0.8480 0.9538 0.0000
vt 0.8495 0.9535 0.0000
vt 0.8465 0.9540 0.0000
vt 0.8450 0.9543 0.0000
vt 0.8465 0.9538 0.0000
vt 0.8435 0.9547 0.0000
vt 0.8421 0.9552 0.0000
vt 0.8434 0.9545 0.0000
vt 0.8407 0.9558 0.0000
vt 0.8394 0.9564 0.0000
vt 0.8406 0.9556 0.0000
vt 0.8382 0.9572 0.0000
vt 0.8371 0.9580 0.0000
vt 0.8381 0.9571 0.0000
vt 0.8362 0.9590 0.0000
vt 0.8357 0.9593 0.0000
vt 0.8370 0.9579 0.0000
vt 0.8393 0.9563 0.0000
vt 0.8420 0.9550 0.0000
vt 0.8449 0.9541 0.0000
vt 0.8480 0.9536 0.0000
vt 0.8509 0.9535 0.0000
vt 0.8536 0.9538 0.0000
vt 0.8560 0.9544 0.0000
vt 0.8574 0.9550 0.0000
vt 0.8385 0.9634 0.0000
vt 0.8395 0.9639 0.0000
vt 0.8406 0.9643 0.0000
vt 0.8419 0.9645 0.0000
vt 0.8432 0.9647 0.0000
vt 0.8446 0.9648 0.0000
vt 0.8460 0.9647 0.0000
vt 0.8475 0.9646 0.0000
vt 0.8490 0.9644 0.0000
vt 0.8504 0.9641 0.0000
vt 0.8519 0.9637 0.0000
vt 0.8533 0.9633 0.0000
vt 0.8547 0.9627 0.0000
vt 0.8560 0.9620 0.0000
vt 0.8572 0.9613 0.0000
vt 0.8381 0.9635 0.0000
vt 0.8358 0.9593 0.0000
vt 0.8383 0.9631 0.0000
vt 0.8597 0.9591 0.0000
vt 0.8601 0.9590 0.0000
vt 0.8596 0.9592 0.0000
vt 0.8395 0.9640 0.0000
vt 0.8406 0.9644 0.0000
vt 0.8418 0.9647 0.0000
vt 0.8431 0.9648 0.0000
vt 0.8445 0.9649 0.0000
vt 0.8460 0.9649 0.0000
vt 0.8475 0.9648 0.0000
vt 0.8490 0.9646 0.0000
vt 0.8505 0.9643 0.0000
vt 0.8520 0.9639 0.0000
vt 0.8534 0.9634 0.0000
vt 0.8548 0.9628 0.0000
vt 0.8561 0.9622 0.0000
vt 0.8573 0.9614 0.0000
vt 0.8585 0.9605 0.0000
vt 0.8380 0.9634 0.0000
vt 0.8353 0.9594 0.0000
vt 0.8575 0.9550 0.0000
vt 0.8572 0.9553 0.0000
vt 0.8851 0.9242 0.0000
vt 0.8767 0.9241 0.0000
vt 0.8772 0.9231 0.0000
vt 0.8847 0.9233 0.0000
vt 0.8766 0.9250 0.0000
vt 0.8766 0.9259 0.0000
vt 0.8765 0.9250 0.0000
vt 0.8766 0.9267 0.0000
vt 0.8766 0.9276 0.0000
vt 0.8765 0.9267 0.0000
vt 0.8766 0.9285 0.0000
vt 0.8766 0.9293 0.0000
vt 0.8765 0.9284 0.0000
vt 0.8766 0.9302 0.0000
vt 0.8766 0.9311 0.0000
vt 0.8764 0.9302 0.0000
vt 0.8766 0.9319 0.0000
vt 0.8766 0.9328 0.0000
vt 0.8764 0.9320 0.0000
vt 0.8766 0.9337 0.0000
vt 0.8766 0.9345 0.0000
vt 0.8765 0.9337 0.0000
vt 0.8766 0.9354 0.0000
vt 0.8767 0.9363 0.0000
vt 0.8765 0.9354 0.0000
vt 0.8771 0.9371 0.0000
vt 0.8770 0.9372 0.0000
vt 0.8766 0.9363 0.0000
vt 0.8765 0.9345 0.0000
vt 0.8765 0.9328 0.0000
vt 0.8764 0.9311 0.0000
vt 0.8764 0.9293 0.0000
vt 0.8765 0.9276 0.0000
vt 0.8765 0.9258 0.0000
vt 0.8766 0.9240 0.0000
vt 0.8771 0.9229 0.0000
vt 0.8845 0.9374 0.0000
vt 0.8850 0.9364 0.0000
vt 0.8851 0.9355 0.0000
vt 0.8851 0.9346 0.0000
vt 0.8852 0.9337 0.0000
vt 0.8852 0.9329 0.0000
vt 0.8852 0.9320 0.0000
vt 0.8852 0.9311 0.0000
vt 0.8852 0.9303 0.0000
vt 0.8852 0.9294 0.0000
vt 0.8852 0.9285 0.0000
vt 0.8852 0.9276 0.0000
vt 0.8852 0.9268 0.0000
vt 0.8852 0.9259 0.0000
vt 0.8852 0.9250 0.0000
vt 0.8846 0.9376 0.0000
vt 0.8847 0.9231 0.0000
vt 0.8851 0.9364 0.0000
vt 0.8852 0.9355 0.0000
vt 0.8852 0.9346 0.0000
vt 0.8853 0.9337 0.0000
vt 0.8853 0.9329 0.0000
vt 0.8853 0.9320 0.0000
vt 0.8853 0.9311 0.0000
vt 0.8853 0.9303 0.0000
vt 0.8853 0.9294 0.0000
vt 0.8853 0.9285 0.0000
vt 0.8853 0.9276 0.0000
vt 0.8853 0.9267 0.0000
vt 0.8853 0.9259 0.0000
vt 0.8853 0.9250 0.0000
vt 0.8852 0.9241 0.0000
vt 0.8509 0.9248 0.0000
vt 0.8379 0.9286 0.0000
vt 0.8400 0.9262 0.0000
vt 0.8501 0.9234 0.0000
vt 0.8366 0.9313 0.0000
vt 0.8375 0.9327 0.0000
vt 0.8353 0.9319 0.0000
vt 0.8384 0.9339 0.0000
vt 0.8392 0.9351 0.0000
vt 0.8382 0.9340 0.0000
vt 0.8401 0.9361 0.0000
vt 0.8409 0.9371 0.0000
vt 0.8399 0.9362 0.0000
vt 0.8416 0.9380 0.0000
vt 0.8423 0.9388 0.0000
vt 0.8415 0.9381 0.0000
vt 0.8431 0.9395 0.0000
vt 0.8437 0.9401 0.0000
vt 0.8430 0.9396 0.0000
vt 0.8444 0.9407 0.0000
vt 0.8450 0.9412 0.0000
vt 0.8443 0.9408 0.0000
vt 0.8456 0.9416 0.0000
vt 0.8462 0.9419 0.0000
vt 0.8470 0.9420 0.0000
vt 0.8474 0.9420 0.0000
vt 0.8462 0.9420 0.0000
vt 0.8450 0.9413 0.0000
vt 0.8437 0.9402 0.0000
vt 0.8422 0.9389 0.0000
vt 0.8407 0.9372 0.0000
vt 0.8391 0.9351 0.0000
vt 0.8374 0.9329 0.0000
vt 0.8376 0.9284 0.0000
vt 0.8398 0.9259 0.0000
vt 0.8498 0.9410 0.0000
vt 0.8502 0.9405 0.0000
vt 0.8505 0.9399 0.0000
vt 0.8507 0.9392 0.0000
vt 0.8509 0.9384 0.0000
vt 0.8511 0.9376 0.0000
vt 0.8512 0.9366 0.0000
vt 0.8513 0.9356 0.0000
vt 0.8514 0.9346 0.0000
vt 0.8514 0.9334 0.0000
vt 0.8514 0.9321 0.0000
vt 0.8514 0.9308 0.0000
vt 0.8514 0.9294 0.0000
vt 0.8513 0.9279 0.0000
vt 0.8511 0.9264 0.0000
vt 0.8498 0.9411 0.0000
vt 0.8480 0.9418 0.0000
vt 0.8481 0.9417 0.0000
vt 0.8496 0.9231 0.0000
vt 0.8488 0.9231 0.0000
vt 0.8490 0.9229 0.0000
vt 0.8503 0.9405 0.0000
vt 0.8506 0.9399 0.0000
vt 0.8508 0.9392 0.0000
vt 0.8510 0.9385 0.0000
vt 0.8512 0.9376 0.0000
vt 0.8514 0.9367 0.0000
vt 0.8515 0.9357 0.0000
vt 0.8516 0.9346 0.0000
vt 0.8516 0.9334 0.0000
vt 0.8516 0.9321 0.0000
vt 0.8516 0.9308 0.0000
vt 0.8515 0.9294 0.0000
vt 0.8515 0.9279 0.0000
vt 0.8513 0.9263 0.0000
vt 0.8510 0.9247 0.0000
vt 0.8483 0.9417 0.0000
vt 0.8484 0.9416 0.0000
vt 0.8460 0.9237 0.0000
vt 0.8475 0.9232 0.0000
# 713 texture coords

g SPW_Urban_Train_Station_Props_01
usemtl SPW_Urban_Train_Station
s off
f 1/1/1 2/2/1 3/3/1 4/4/1 
f 2/5/2 5/6/2 6/7/2 7/8/2 
f 6/7/3 8/9/3 9/10/3 10/11/3 
f 9/10/2 11/12/2 12/13/2 13/14/2 
f 12/13/3 14/15/3 15/16/3 16/17/3 
f 15/16/4 17/18/4 18/19/4 19/20/4 
f 18/19/5 20/21/5 21/22/5 22/23/5 
f 21/22/2 23/24/2 24/25/2 25/26/2 
f 24/25/2 26/27/2 27/28/2 28/29/2 
f 24/25/2 28/29/2 25/26/2 
f 21/22/5 25/26/5 29/30/5 22/23/5 
f 18/19/4 22/23/4 30/31/4 19/20/4 
f 15/16/5 19/20/5 31/32/5 16/17/5 
f 12/13/2 16/17/2 32/33/2 13/14/2 
f 9/10/2 13/14/2 33/34/2 10/11/2 
f 6/7/3 10/11/3 34/35/3 7/8/3 
f 2/5/2 7/8/2 35/36/2 36/37/2 
f 37/1/6 26/2/6 24/3/6 38/4/6 
f 38/1/7 24/2/7 23/3/7 39/4/7 
f 39/1/8 23/2/8 21/3/8 40/4/8 
f 40/1/9 21/2/9 20/3/9 41/4/9 
f 41/1/10 20/2/10 18/3/10 42/4/10 
f 42/1/11 18/2/11 17/3/11 43/4/11 
f 43/1/12 17/2/12 15/3/12 44/4/12 
f 44/1/13 15/2/13 14/3/13 45/4/13 
f 45/1/14 14/2/14 12/3/14 46/4/14 
f 46/1/15 12/2/15 11/3/15 47/4/15 
f 47/1/16 11/2/16 9/3/16 48/4/16 
f 48/1/17 9/2/17 8/3/17 49/4/17 
f 49/1/18 8/2/18 6/3/18 50/4/18 
f 50/1/19 6/2/19 5/3/19 51/4/19 
f 51/1/20 5/2/20 2/3/20 1/4/20 
f 52/1/21 53/2/21 36/3/21 35/4/21 
f 54/1/22 52/2/22 35/3/22 7/4/22 
f 37/1/23 55/2/23 27/3/23 26/4/23 
f 56/1/24 54/2/24 7/3/24 34/4/24 
f 4/1/23 3/2/23 36/3/23 53/4/23 
f 57/1/25 56/2/25 34/3/25 10/4/25 
f 58/38/26 55/39/26 37/40/26 39/41/26 
f 37/40/26 38/42/26 39/41/26 
f 59/43/26 58/38/26 39/41/26 60/44/26 
f 39/41/27 40/45/27 41/46/27 60/44/27 
f 61/47/28 60/44/28 41/46/28 62/48/28 
f 41/46/28 42/49/28 43/50/28 62/48/28 
f 63/51/28 62/48/28 43/50/28 64/52/28 
f 43/50/27 44/53/27 45/54/27 64/52/27 
f 65/55/26 64/52/26 45/54/26 66/56/26 
f 45/54/26 46/57/26 47/58/26 66/56/26 
f 67/59/29 66/56/29 47/58/29 68/60/29 
f 47/58/29 48/61/29 49/62/29 68/60/29 
f 57/63/26 68/60/26 49/62/26 56/64/26 
f 49/62/26 50/65/26 51/66/26 56/64/26 
f 54/67/26 56/64/26 51/66/26 52/68/26 
f 52/68/26 51/66/26 1/69/26 53/37/26 
f 53/37/26 1/69/26 4/70/26 
f 68/1/30 57/2/30 10/3/30 33/4/30 
f 3/1/2 2/2/2 36/3/2 
f 67/1/31 68/2/31 33/3/31 13/4/31 
f 66/1/32 67/2/32 13/3/32 32/4/32 
f 65/1/33 66/2/33 32/3/33 16/4/33 
f 64/1/34 65/2/34 16/3/34 31/4/34 
f 63/1/35 64/2/35 31/3/35 19/4/35 
f 62/1/36 63/2/36 19/3/36 30/4/36 
f 61/1/37 62/2/37 30/3/37 22/4/37 
f 60/1/38 61/2/38 22/3/38 29/4/38 
f 59/1/39 60/2/39 29/3/39 25/4/39 
f 58/1/40 59/2/40 25/3/40 28/4/40 
f 55/1/41 58/2/41 28/3/41 27/4/41 
f 69/71/42 70/72/42 71/73/42 72/74/42 
s 1
f 70/75/2 73/76/2 74/77/2 75/78/2 
f 74/77/2 76/79/2 77/80/2 78/81/2 
f 77/80/2 79/82/5 80/83/2 81/84/4 
f 80/83/2 82/85/5 83/86/5 84/87/3 
f 83/86/5 85/88/3 86/89/4 87/90/2 
f 86/89/4 88/91/2 89/92/5 90/93/3 
f 89/92/5 91/94/2 92/95/2 93/96/2 
f 92/95/2 94/97/2 95/98/2 96/99/2 
f 92/95/2 96/99/2 93/96/2 
f 89/92/5 93/96/2 97/100/5 90/93/3 
f 86/89/4 90/93/3 98/101/4 87/90/2 
f 83/86/5 87/90/2 99/102/5 84/87/3 
f 80/83/2 84/87/3 100/103/2 81/84/4 
f 77/80/2 81/84/4 101/104/2 78/81/2 
f 74/77/2 78/81/2 102/105/2 75/78/2 
f 70/75/2 75/78/2 103/106/2 104/107/2 
s off
f 105/71/43 94/72/43 92/73/43 106/74/43 
f 106/71/44 92/72/44 91/73/44 107/74/44 
f 107/71/45 91/72/45 89/73/45 108/74/45 
f 108/71/46 89/72/46 88/73/46 109/74/46 
f 109/71/47 88/72/47 86/73/47 110/74/47 
f 110/71/48 86/72/48 85/73/48 111/74/48 
f 111/71/49 85/72/49 83/73/49 112/74/49 
f 112/71/50 83/72/50 82/73/50 113/74/50 
f 113/71/51 82/72/51 80/73/51 114/74/51 
f 114/71/52 80/72/52 79/73/52 115/74/52 
f 115/71/53 79/72/53 77/73/53 116/74/53 
f 116/71/54 77/72/54 76/73/54 117/74/54 
f 117/71/55 76/72/55 74/73/55 118/74/55 
f 118/71/56 74/72/56 73/73/56 119/74/56 
f 119/71/57 73/72/57 70/73/57 69/74/57 
f 120/71/58 121/72/58 104/73/58 103/74/58 
f 122/71/59 120/72/59 103/73/59 75/74/59 
f 95/71/2 94/72/2 123/73/2 124/74/2 
f 125/71/60 122/72/60 75/73/60 102/74/60 
f 72/71/61 71/72/61 126/73/61 127/74/61 
f 128/71/62 125/72/62 102/73/62 78/74/62 
f 129/108/26 130/109/26 105/110/26 107/111/26 
f 105/110/26 106/112/26 107/111/26 
f 131/113/26 129/108/26 107/111/26 132/114/26 
f 107/111/27 108/115/27 109/116/27 132/114/27 
f 133/117/27 132/114/27 109/116/27 134/118/27 
f 109/116/28 110/119/28 111/120/28 134/118/28 
f 135/121/28 134/118/28 111/120/28 136/122/28 
f 111/120/27 112/123/27 113/124/27 136/122/27 
f 137/125/26 136/122/26 113/124/26 138/126/26 
f 113/124/26 114/127/26 115/128/26 138/126/26 
f 139/129/29 138/126/29 115/128/29 140/130/29 
f 115/128/29 116/131/29 117/132/29 140/130/29 
f 128/133/26 140/130/26 117/132/26 125/134/26 
f 117/132/26 118/135/26 119/136/26 125/134/26 
f 122/137/26 125/134/26 119/136/26 120/138/26 
f 120/138/26 119/136/26 69/139/26 121/107/26 
f 121/107/26 69/139/26 72/140/26 
f 140/71/63 128/72/63 78/73/63 101/74/63 
s 1
f 71/71/2 70/72/2 104/73/2 
s off
f 139/71/64 140/72/64 101/73/64 81/74/64 
f 138/71/65 139/72/65 81/73/65 100/74/65 
f 137/71/66 138/72/66 100/73/66 84/74/66 
f 136/71/67 137/72/67 84/73/67 99/74/67 
f 135/71/68 136/72/68 99/73/68 87/74/68 
f 134/71/69 135/72/69 87/73/69 98/74/69 
f 133/71/70 134/72/70 98/73/70 90/74/70 
f 132/71/71 133/72/71 90/73/71 97/74/71 
f 131/71/72 132/72/72 97/73/72 93/74/72 
f 129/71/73 131/72/73 93/73/73 96/74/73 
f 130/71/74 129/72/74 96/73/74 95/74/74 
f 141/71/23 142/72/23 124/73/23 123/74/23 
f 130/71/75 95/72/75 124/73/75 142/74/75 
f 105/71/29 130/72/29 142/73/29 141/74/29 
f 94/71/76 105/72/76 141/73/76 123/74/76 
f 127/71/23 126/72/23 143/73/23 144/74/23 
f 121/71/29 72/72/29 127/73/29 144/74/29 
f 104/71/77 121/72/77 144/73/77 143/74/77 
s 1
f 71/71/2 104/72/2 143/73/2 126/74/2 
s off
f 145/141/42 146/142/42 147/143/42 148/144/42 
f 146/142/2 149/145/2 150/146/2 151/147/2 
f 150/146/2 152/148/2 153/149/2 154/150/2 
f 153/149/2 155/151/2 156/152/2 157/153/2 
f 156/152/3 158/154/3 159/155/3 160/156/3 
f 159/155/2 161/157/2 162/158/2 163/159/2 
f 162/158/2 164/160/2 165/161/2 166/162/2 
f 165/161/5 167/163/5 168/164/5 169/165/5 
f 168/164/2 170/166/2 171/167/2 172/168/2 
f 168/164/5 172/168/5 169/165/5 
f 165/161/5 169/165/5 173/169/5 166/162/5 
f 162/158/2 166/162/2 174/170/2 163/159/2 
f 159/155/2 163/159/2 175/171/2 160/156/2 
f 156/152/2 160/156/2 176/172/2 157/153/2 
f 153/149/2 157/153/2 177/173/2 154/150/2 
f 150/146/2 154/150/2 178/174/2 151/147/2 
f 146/142/2 151/147/2 179/175/2 180/176/2 
f 181/177/43 170/166/43 168/164/43 182/178/43 
f 182/178/44 168/164/44 167/163/44 183/179/44 
f 183/179/45 167/163/45 165/161/45 184/180/45 
f 184/180/46 165/161/46 164/160/46 185/181/46 
f 185/181/47 164/160/47 162/158/47 186/182/47 
f 186/182/48 162/158/48 161/157/48 187/183/48 
f 187/183/49 161/157/49 159/155/49 188/184/49 
f 188/184/78 159/155/78 158/154/78 189/185/78 
f 189/185/51 158/154/51 156/152/51 190/186/51 
f 190/186/52 156/152/52 155/151/52 191/187/52 
f 191/187/79 155/151/79 153/149/79 192/188/79 
f 192/188/54 153/149/54 152/148/54 193/189/54 
f 193/189/55 152/148/55 150/146/55 194/190/55 
f 194/190/56 150/146/56 149/145/56 195/191/56 
f 195/191/57 149/145/57 146/142/57 145/141/57 
f 181/177/80 196/192/80 171/167/80 170/166/80 
f 148/144/80 147/143/80 180/176/80 197/193/80 
f 198/194/29 196/192/29 181/177/29 183/179/29 
f 181/177/26 182/178/26 183/179/26 
f 199/195/27 198/194/27 183/179/27 200/196/27 
f 183/179/27 184/180/27 185/181/27 200/196/27 
f 201/197/26 200/196/26 185/181/26 202/198/26 
f 185/181/26 186/182/26 187/183/26 202/198/26 
f 203/199/26 202/198/26 187/183/26 204/200/26 
f 187/183/26 188/184/26 189/185/26 204/200/26 
f 205/201/26 204/200/26 189/185/26 206/202/26 
f 189/185/26 190/186/26 191/187/26 206/202/26 
f 207/203/29 206/202/29 191/187/29 208/204/29 
f 191/187/29 192/188/29 193/189/29 208/204/29 
f 209/205/29 208/204/29 193/189/29 210/206/29 
f 193/189/26 194/190/26 195/191/26 210/206/26 
f 211/207/26 210/206/26 195/191/26 212/208/26 
f 212/208/29 195/191/29 145/141/29 197/193/29 
f 197/193/29 145/141/29 148/144/29 
f 147/143/2 146/142/2 180/176/2 
f 213/71/26 214/72/26 215/73/26 105/74/26 
f 214/71/61 216/72/61 217/73/61 215/74/61 
f 216/71/2 218/72/2 219/73/2 217/74/2 
f 218/71/77 213/72/77 105/73/77 219/74/77 
f 105/71/80 215/72/80 217/73/80 219/74/80 
f 218/71/81 216/72/81 214/73/81 213/74/81 
f 220/71/26 221/72/26 222/73/26 223/74/26 
f 221/71/82 224/72/82 225/73/82 222/74/82 
f 224/71/2 226/72/2 227/73/2 225/74/2 
f 226/71/83 220/72/83 223/73/83 227/74/83 
f 223/71/84 222/72/84 225/73/84 227/74/84 
f 226/71/85 224/72/85 221/73/85 220/74/85 
f 228/71/26 229/72/26 230/73/26 231/74/26 
f 229/71/86 232/72/86 233/73/86 230/74/86 
f 232/71/2 234/72/2 235/73/2 233/74/2 
f 234/71/87 228/72/87 231/73/87 235/74/87 
f 231/71/88 230/72/88 233/73/88 235/74/88 
f 234/71/89 232/72/89 229/73/89 228/74/89 
f 236/71/26 237/72/26 238/73/26 239/74/26 
f 237/71/90 240/72/90 241/73/90 238/74/90 
f 240/71/2 242/72/2 243/73/2 241/74/2 
f 242/71/91 236/72/91 239/73/91 243/74/91 
f 239/71/92 238/72/92 241/73/92 243/74/92 
f 242/71/93 240/72/93 237/73/93 236/74/93 
f 244/71/26 245/72/26 246/73/26 247/74/26 
f 245/71/23 248/72/23 249/73/23 246/74/23 
f 248/71/2 250/72/2 251/73/2 249/74/2 
f 250/71/81 244/72/81 247/73/81 251/74/81 
f 247/71/77 246/72/77 249/73/77 251/74/77 
f 250/71/61 248/72/61 245/73/61 244/74/61 
f 252/71/26 253/72/26 254/73/26 255/74/26 
f 253/71/84 256/72/84 257/73/84 254/74/84 
f 256/71/2 258/72/2 259/73/2 257/74/2 
f 258/71/85 252/72/85 255/73/85 259/74/85 
f 255/71/83 254/72/83 257/73/83 259/74/83 
f 258/71/82 256/72/82 253/73/82 252/74/82 
f 260/71/26 261/72/26 262/73/26 263/74/26 
f 261/71/88 264/72/88 265/73/88 262/74/88 
f 264/71/2 266/72/2 267/73/2 265/74/2 
f 266/71/89 260/72/89 263/73/89 267/74/89 
f 263/71/87 262/72/87 265/73/87 267/74/87 
f 266/71/86 264/72/86 261/73/86 260/74/86 
f 268/71/26 269/72/26 270/73/26 271/74/26 
f 269/71/92 272/72/92 273/73/92 270/74/92 
f 272/71/2 274/72/2 275/73/2 273/74/2 
f 274/71/93 268/72/93 271/73/93 275/74/93 
f 271/71/91 270/72/91 273/73/91 275/74/91 
f 274/71/90 272/72/90 269/73/90 268/74/90 
f 276/71/26 277/72/26 278/73/26 279/74/26 
f 277/71/77 280/72/77 281/73/77 278/74/77 
f 280/71/2 282/72/2 283/73/2 281/74/2 
f 282/71/61 276/72/61 279/73/61 283/74/61 
f 279/71/81 278/72/81 281/73/81 283/74/81 
f 282/71/80 280/72/80 277/73/80 276/74/80 
f 284/209/42 285/210/42 286/211/42 287/212/42 
f 285/210/2 288/213/2 289/214/2 290/215/2 
f 289/214/2 291/216/2 292/217/2 293/218/2 
f 292/217/2 294/219/2 295/220/2 296/221/2 
f 295/220/3 297/222/3 298/223/3 299/224/3 
f 298/223/2 300/225/2 301/226/2 302/227/2 
f 301/226/2 303/228/2 304/229/2 305/230/2 
f 304/229/5 306/231/5 307/232/5 308/233/5 
f 307/232/2 309/234/2 310/235/2 311/236/2 
f 307/232/5 311/236/5 308/233/5 
f 304/229/5 308/233/5 312/237/5 305/230/5 
f 301/226/2 305/230/2 313/238/2 302/227/2 
f 298/223/2 302/227/2 314/239/2 299/224/2 
f 295/220/2 299/224/2 315/240/2 296/221/2 
f 292/217/2 296/221/2 316/241/2 293/218/2 
f 289/214/2 293/218/2 317/242/2 290/215/2 
f 285/210/2 290/215/2 318/243/2 319/244/2 
f 320/245/43 309/234/43 307/232/43 321/246/43 
f 321/246/44 307/232/44 306/231/44 322/247/44 
f 322/247/45 306/231/45 304/229/45 323/248/45 
f 323/248/46 304/229/46 303/228/46 324/249/46 
f 324/249/47 303/228/47 301/226/47 325/250/47 
f 325/250/48 301/226/48 300/225/48 326/251/48 
f 326/251/49 300/225/49 298/223/49 327/252/49 
f 327/252/50 298/223/50 297/222/50 328/253/50 
f 328/253/94 297/222/94 295/220/94 329/254/94 
f 329/254/52 295/220/52 294/219/52 330/255/52 
f 330/255/53 294/219/53 292/217/53 331/256/53 
f 331/256/54 292/217/54 291/216/54 332/257/54 
f 332/257/95 291/216/95 289/214/95 333/258/95 
f 333/258/56 289/214/56 288/213/56 334/259/56 
f 334/259/57 288/213/57 285/210/57 284/209/57 
f 310/235/2 309/234/2 335/260/2 336/261/2 
f 287/212/61 286/211/61 337/262/61 338/263/61 
f 339/264/29 340/265/29 320/245/29 322/247/29 
f 320/245/26 321/246/26 322/247/26 
f 341/266/27 339/264/27 322/247/27 342/267/27 
f 322/247/27 323/248/27 324/249/27 342/267/27 
f 343/268/26 342/267/26 324/249/26 344/269/26 
f 324/249/26 325/250/26 326/251/26 344/269/26 
f 345/270/26 344/269/26 326/251/26 346/271/26 
f 326/251/26 327/252/26 328/253/26 346/271/26 
f 347/272/26 346/271/26 328/253/26 348/273/26 
f 328/253/26 329/254/26 330/255/26 348/273/26 
f 349/274/29 348/273/29 330/255/29 350/275/29 
f 330/255/29 331/256/29 332/257/29 350/275/29 
f 351/276/29 350/275/29 332/257/29 352/277/29 
f 332/257/26 333/258/26 334/259/26 352/277/26 
f 353/278/26 352/277/26 334/259/26 354/279/26 
f 354/279/29 334/259/29 284/209/29 355/280/29 
f 355/280/29 284/209/29 287/212/29 
s 1
f 286/211/2 285/210/2 319/244/2 
s off
f 356/281/23 357/282/23 336/261/23 335/260/23 
f 340/265/75 310/235/75 336/261/75 357/282/75 
f 320/245/29 340/265/29 357/282/29 356/281/29 
f 309/234/76 320/245/76 356/281/76 335/260/76 
f 338/263/23 337/262/23 358/283/23 359/284/23 
f 355/280/29 287/212/29 338/263/29 359/284/29 
f 319/244/77 355/280/77 359/284/77 358/283/77 
s 1
f 286/211/2 319/244/2 358/283/2 337/262/2 
s off
f 360/285/42 361/286/42 362/287/42 363/288/42 
f 361/286/2 364/289/2 365/290/2 366/291/2 
f 365/290/2 367/292/2 368/293/2 369/294/2 
f 368/293/2 370/295/2 371/296/2 372/297/2 
f 371/296/2 373/298/2 374/299/2 375/201/2 
f 374/299/5 376/300/5 377/301/5 378/302/5 
f 377/301/5 379/303/5 380/304/5 381/305/5 
f 380/304/5 382/306/5 383/307/5 384/308/5 
f 383/307/5 385/309/5 386/310/5 387/311/5 
f 383/307/2 387/311/2 384/308/2 
f 380/304/5 384/308/5 388/312/5 381/305/5 
f 377/301/5 381/305/5 389/313/5 378/302/5 
f 374/299/2 378/302/2 390/200/2 375/201/2 
f 371/296/2 375/201/2 391/314/2 372/297/2 
f 368/293/2 372/297/2 392/315/2 369/294/2 
f 365/290/2 369/294/2 393/316/2 366/291/2 
f 361/286/2 366/291/2 394/317/2 395/318/2 
f 396/319/43 385/309/43 383/307/43 397/320/43 
f 397/320/44 383/307/44 382/306/44 398/321/44 
f 398/321/45 382/306/45 380/304/45 399/322/45 
f 399/322/46 380/304/46 379/303/46 400/323/46 
f 400/323/47 379/303/47 377/301/47 401/324/47 
f 401/324/48 377/301/48 376/300/48 402/325/48 
f 402/325/49 376/300/49 374/299/49 403/326/49 
f 403/326/50 374/299/50 373/298/50 404/327/50 
f 404/327/51 373/298/51 371/296/51 405/328/51 
f 405/328/52 371/296/52 370/295/52 406/329/52 
f 406/329/53 370/295/53 368/293/53 407/330/53 
f 407/330/54 368/293/54 367/292/54 408/331/54 
f 408/331/55 367/292/55 365/290/55 409/332/55 
f 409/332/56 365/290/56 364/289/56 410/333/56 
f 410/333/57 364/289/57 361/286/57 360/285/57 
f 396/319/80 411/334/80 386/310/80 385/309/80 
f 363/288/80 362/287/80 395/318/80 412/335/80 
f 413/336/26 411/334/26 396/319/26 398/321/26 
f 396/319/29 397/320/29 398/321/29 
f 414/337/27 413/336/27 398/321/27 415/338/27 
f 398/321/27 399/322/27 400/323/27 415/338/27 
f 416/339/27 415/338/27 400/323/27 417/340/27 
f 400/323/27 401/324/27 402/325/27 417/340/27 
f 418/341/26 417/340/26 402/325/26 419/342/26 
f 402/325/29 403/326/29 404/327/29 419/342/29 
f 420/343/26 419/342/26 404/327/26 421/344/26 
f 404/327/26 405/328/26 406/329/26 421/344/26 
f 422/345/29 421/344/29 406/329/29 423/346/29 
f 406/329/29 407/330/29 408/331/29 423/346/29 
f 424/347/29 423/346/29 408/331/29 425/348/29 
f 408/331/29 409/332/29 410/333/29 425/348/29 
f 426/349/29 425/348/29 410/333/29 427/350/29 
f 427/350/29 410/333/29 360/285/29 412/335/29 
f 412/335/27 360/285/27 363/288/27 
f 362/287/5 361/286/5 395/318/5 
f 428/351/42 429/352/42 430/353/42 431/354/42 
s 1
f 429/352/2 432/355/2 433/356/2 434/357/2 
f 433/356/2 435/358/2 436/359/2 437/360/5 
f 436/359/2 438/361/2 439/362/2 440/363/2 
f 439/362/2 441/364/2 442/365/2 443/366/2 
f 442/365/2 444/367/2 445/368/2 446/369/2 
f 445/368/2 447/370/5 448/371/2 449/372/2 
f 448/371/2 450/373/2 451/374/2 452/375/5 
f 451/374/2 453/376/2 454/377/2 455/378/2 
f 451/374/2 455/378/2 452/375/5 
f 448/371/2 452/375/5 456/379/2 449/372/2 
f 445/368/2 449/372/2 457/380/2 446/369/2 
f 442/365/2 446/369/2 458/381/2 443/366/2 
f 439/362/2 443/366/2 459/382/2 440/363/2 
f 436/359/2 440/363/2 460/383/2 437/360/5 
f 433/356/2 437/360/5 461/384/2 434/357/2 
f 429/352/2 434/357/2 462/385/2 463/386/2 
s off
f 464/387/43 453/376/43 451/374/43 465/388/43 
f 465/388/44 451/374/44 450/373/44 466/389/44 
f 466/389/45 450/373/45 448/371/45 467/390/45 
f 467/390/46 448/371/46 447/370/46 468/391/46 
f 468/391/47 447/370/47 445/368/47 469/392/47 
f 469/392/48 445/368/48 444/367/48 470/393/48 
f 470/393/49 444/367/49 442/365/49 471/394/49 
f 471/394/50 442/365/50 441/364/50 472/395/50 
f 472/395/94 441/364/94 439/362/94 473/396/94 
f 473/396/96 439/362/96 438/361/96 474/397/96 
f 474/397/79 438/361/79 436/359/79 475/398/79 
f 475/398/54 436/359/54 435/358/54 476/399/54 
f 476/399/55 435/358/55 433/356/55 477/400/55 
f 477/400/56 433/356/56 432/355/56 478/401/56 
f 478/401/57 432/355/57 429/352/57 428/351/57 
f 479/402/75 454/377/75 480/403/75 481/404/75 
f 431/354/61 430/353/61 482/405/61 483/406/61 
s 1
f 484/407/27 479/402/29 464/387/29 466/389/27 
f 464/387/29 465/388/29 466/389/27 
f 485/408/27 484/407/27 466/389/27 486/409/27 
f 466/389/27 467/390/29 468/391/29 486/409/27 
f 487/410/29 486/409/27 468/391/29 488/411/29 
f 468/391/29 469/392/29 470/393/29 488/411/29 
f 489/412/29 488/411/29 470/393/29 490/413/29 
f 470/393/29 471/394/29 472/395/29 490/413/29 
f 491/414/29 490/413/29 472/395/29 492/415/29 
f 472/395/29 473/396/29 474/397/29 492/415/29 
f 493/416/29 492/415/29 474/397/29 494/417/27 
f 474/397/29 475/398/29 476/399/29 494/417/27 
f 495/418/29 494/417/27 476/399/29 496/419/27 
f 476/399/29 477/400/29 478/401/29 496/419/27 
f 497/420/29 496/419/27 478/401/29 498/421/29 
f 498/421/29 478/401/29 428/351/29 499/422/29 
f 499/422/29 428/351/29 431/354/29 
f 430/353/2 429/352/2 463/386/2 
s off
f 500/423/23 481/404/23 480/403/23 501/424/23 
s 1
f 464/387/29 479/402/29 481/404/29 500/423/29 
s off
f 453/376/76 464/387/76 500/423/76 501/424/76 
s 1
f 454/377/2 453/376/2 501/424/2 480/403/2 
s off
f 483/406/23 482/405/23 502/425/23 503/426/23 
s 1
f 499/422/29 431/354/29 483/406/29 503/426/29 
s off
f 463/386/77 499/422/77 503/426/77 502/425/77 
s 1
f 430/353/2 463/386/2 502/425/2 482/405/2 
s off
f 504/427/42 505/428/42 506/429/42 507/430/42 
f 505/428/2 508/431/2 509/432/2 510/433/2 
f 509/432/2 511/434/2 512/435/2 513/436/2 
f 512/435/2 514/437/2 515/438/2 516/439/2 
f 515/438/2 517/440/2 518/441/2 519/442/2 
f 518/441/5 520/443/5 521/444/5 522/445/5 
f 521/444/5 523/446/5 524/447/5 525/448/5 
f 524/447/5 526/449/5 527/450/5 528/451/5 
f 527/450/5 529/452/5 530/453/5 531/454/5 
f 527/450/2 531/454/2 528/451/2 
f 524/447/5 528/451/5 532/455/5 525/448/5 
f 521/444/5 525/448/5 533/456/5 522/445/5 
f 518/441/2 522/445/2 534/457/2 519/442/2 
f 515/438/2 519/442/2 535/458/2 516/439/2 
f 512/435/2 516/439/2 536/459/2 513/436/2 
f 509/432/2 513/436/2 537/460/2 510/433/2 
f 505/428/2 510/433/2 538/461/2 539/462/2 
f 540/463/43 529/452/43 527/450/43 541/464/43 
f 541/464/44 527/450/44 526/449/44 542/465/44 
f 542/465/45 526/449/45 524/447/45 543/466/45 
f 543/466/46 524/447/46 523/446/46 544/467/46 
f 544/467/47 523/446/47 521/444/47 545/468/47 
f 545/468/48 521/444/48 520/443/48 546/469/48 
f 546/469/49 520/443/49 518/441/49 547/470/49 
f 547/470/50 518/441/50 517/440/50 548/471/50 
f 548/471/51 517/440/51 515/438/51 549/472/51 
f 549/472/52 515/438/52 514/437/52 550/473/52 
f 550/473/53 514/437/53 512/435/53 551/474/53 
f 551/474/54 512/435/54 511/434/54 552/475/54 
f 552/475/55 511/434/55 509/432/55 553/476/55 
f 553/476/56 509/432/56 508/431/56 554/477/56 
f 554/477/57 508/431/57 505/428/57 504/427/57 
f 540/463/80 555/478/80 530/453/80 529/452/80 
f 507/430/80 506/429/80 539/462/80 556/479/80 
f 557/480/26 555/478/26 540/463/26 542/465/26 
f 540/463/29 541/464/29 542/465/29 
f 558/481/27 557/480/27 542/465/27 559/482/27 
f 542/465/27 543/466/27 544/467/27 559/482/27 
f 560/483/27 559/482/27 544/467/27 561/484/27 
f 544/467/27 545/468/27 546/469/27 561/484/27 
f 562/485/26 561/484/26 546/469/26 563/486/26 
f 546/469/29 547/470/29 548/471/29 563/486/29 
f 564/487/26 563/486/26 548/471/26 565/488/26 
f 548/471/26 549/472/26 550/473/26 565/488/26 
f 566/489/29 565/488/29 550/473/29 567/490/29 
f 550/473/29 551/474/29 552/475/29 567/490/29 
f 568/491/29 567/490/29 552/475/29 569/492/29 
f 552/475/29 553/476/29 554/477/29 569/492/29 
f 570/493/29 569/492/29 554/477/29 571/494/29 
f 571/494/29 554/477/29 504/427/29 556/479/29 
f 556/479/27 504/427/27 507/430/27 
f 506/429/5 505/428/5 539/462/5 
f 572/495/42 573/496/42 574/497/42 575/498/42 
s 1
f 573/496/2 576/499/2 577/500/2 578/501/2 
f 577/500/2 579/502/4 580/503/2 581/504/5 
f 580/503/2 582/505/4 583/506/2 584/507/5 
f 583/506/2 585/508/3 586/509/5 587/510/5 
f 586/509/5 588/511/2 589/512/2 590/513/2 
f 589/512/2 591/514/2 592/515/5 593/516/2 
f 592/515/5 594/517/5 595/518/5 596/519/5 
f 595/518/5 597/520/2 598/521/2 599/522/5 
f 595/518/5 599/522/5 596/519/5 
f 592/515/5 596/519/5 600/523/5 593/516/2 
f 589/512/2 593/516/2 601/524/2 590/513/2 
f 586/509/5 590/513/2 602/525/2 587/510/5 
f 583/506/2 587/510/5 603/526/3 584/507/5 
f 580/503/2 584/507/5 604/527/2 581/504/5 
f 577/500/2 581/504/5 605/528/2 578/501/2 
f 573/496/2 578/501/2 606/529/2 607/530/2 
s off
f 608/531/43 597/520/43 595/518/43 609/532/43 
f 609/532/44 595/518/44 594/517/44 610/533/44 
f 610/533/45 594/517/45 592/515/45 611/534/45 
f 611/534/46 592/515/46 591/514/46 612/535/46 
f 612/535/47 591/514/47 589/512/47 613/536/47 
f 613/536/48 589/512/48 588/511/48 614/537/48 
f 614/537/49 588/511/49 586/509/49 615/538/49 
f 615/538/50 586/509/50 585/508/50 616/539/50 
f 616/539/51 585/508/51 583/506/51 617/540/51 
f 617/540/52 583/506/52 582/505/52 618/541/52 
f 618/541/79 582/505/79 580/503/79 619/542/79 
f 619/542/54 580/503/54 579/502/54 620/543/54 
f 620/543/55 579/502/55 577/500/55 621/544/55 
f 621/544/56 577/500/56 576/499/56 622/545/56 
f 622/545/57 576/499/57 573/496/57 572/495/57 
f 623/546/75 598/521/75 624/547/75 625/548/75 
f 626/549/29 575/498/29 627/550/29 628/551/29 
f 629/552/29 623/546/29 608/531/29 610/533/29 
f 608/531/26 609/532/26 610/533/26 
f 630/553/27 629/552/27 610/533/27 631/554/27 
f 610/533/27 611/534/27 612/535/27 631/554/27 
f 632/555/26 631/554/26 612/535/26 633/556/26 
f 612/535/26 613/536/26 614/537/26 633/556/26 
f 634/557/26 633/556/26 614/537/26 635/558/26 
f 614/537/26 615/538/26 616/539/26 635/558/26 
f 636/559/26 635/558/26 616/539/26 637/560/26 
f 616/539/26 617/540/26 618/541/26 637/560/26 
f 638/561/29 637/560/29 618/541/29 639/562/29 
f 618/541/29 619/542/29 620/543/29 639/562/29 
f 640/563/29 639/562/29 620/543/29 641/564/29 
f 620/543/26 621/544/26 622/545/26 641/564/26 
f 642/565/26 641/564/26 622/545/26 643/566/26 
f 643/566/29 622/545/29 572/495/29 626/549/29 
f 626/549/29 572/495/29 575/498/29 
s 2
f 574/497/2 573/496/2 607/530/2 
s off
f 644/567/23 625/548/23 624/547/23 645/568/23 
f 608/531/29 623/546/29 625/548/29 644/567/29 
f 597/520/76 608/531/76 644/567/76 645/568/76 
s 1
f 598/521/2 597/520/2 645/568/2 624/547/2 
s off
f 627/550/23 646/569/23 647/570/23 628/551/23 
f 607/530/77 626/549/77 628/551/77 647/570/77 
s 2
f 574/497/2 607/530/2 647/570/2 646/569/2 
s off
f 575/498/61 574/497/61 646/569/61 627/550/61 
f 648/571/42 649/572/42 650/573/42 651/574/42 
f 649/572/2 652/575/2 653/576/2 654/577/2 
f 653/576/2 655/578/2 656/579/2 657/580/2 
f 656/579/2 658/581/2 659/582/2 660/583/2 
f 659/582/3 661/584/3 662/585/3 663/586/3 
f 662/585/2 664/587/2 665/588/2 666/589/2 
f 665/588/2 667/590/2 668/591/2 669/592/2 
f 668/591/5 670/593/5 671/594/5 672/595/5 
f 671/594/2 673/596/2 674/597/2 675/598/2 
f 671/594/5 675/598/5 672/595/5 
f 668/591/5 672/595/5 676/599/5 669/592/5 
f 665/588/2 669/592/2 677/600/2 666/589/2 
f 662/585/2 666/589/2 678/601/2 663/586/2 
f 659/582/2 663/586/2 679/602/2 660/583/2 
f 656/579/2 660/583/2 680/603/2 657/580/2 
f 653/576/2 657/580/2 681/604/2 654/577/2 
f 649/572/2 654/577/2 682/605/2 683/606/2 
f 684/607/43 673/596/43 671/594/43 685/608/43 
f 685/608/44 671/594/44 670/593/44 686/609/44 
f 686/609/45 670/593/45 668/591/45 687/610/45 
f 687/610/46 668/591/46 667/590/46 688/611/46 
f 688/611/47 667/590/47 665/588/47 689/612/47 
f 689/612/48 665/588/48 664/587/48 690/613/48 
f 690/613/49 664/587/49 662/585/49 691/614/49 
f 691/614/50 662/585/50 661/584/50 692/615/50 
f 692/615/94 661/584/94 659/582/94 693/616/94 
f 693/616/52 659/582/52 658/581/52 694/617/52 
f 694/617/53 658/581/53 656/579/53 695/618/53 
f 695/618/54 656/579/54 655/578/54 696/619/54 
f 696/619/95 655/578/95 653/576/95 697/620/95 
f 697/620/56 653/576/56 652/575/56 698/621/56 
f 698/621/57 652/575/57 649/572/57 648/571/57 
f 684/607/80 699/622/80 674/597/80 673/596/80 
f 651/574/80 650/573/80 683/606/80 700/623/80 
f 701/624/29 699/622/29 684/607/29 686/609/29 
f 684/607/26 685/608/26 686/609/26 
f 702/625/27 701/624/27 686/609/27 703/626/27 
f 686/609/27 687/610/27 688/611/27 703/626/27 
f 704/627/26 703/626/26 688/611/26 705/628/26 
f 688/611/26 689/612/26 690/613/26 705/628/26 
f 706/629/26 705/628/26 690/613/26 707/630/26 
f 690/613/26 691/614/26 692/615/26 707/630/26 
f 708/631/26 707/630/26 692/615/26 709/632/26 
f 692/615/26 693/616/26 694/617/26 709/632/26 
f 710/633/29 709/632/29 694/617/29 711/634/29 
f 694/617/29 695/618/29 696/619/29 711/634/29 
f 712/635/29 711/634/29 696/619/29 713/636/29 
f 696/619/26 697/620/26 698/621/26 713/636/26 
f 714/637/26 713/636/26 698/621/26 715/638/26 
f 715/638/29 698/621/29 648/571/29 700/623/29 
f 700/623/29 648/571/29 651/574/29 
f 650/573/2 649/572/2 683/606/2 
f 716/639/42 717/640/42 282/641/42 718/642/42 
f 717/640/2 719/643/2 720/644/2 721/645/2 
f 720/644/2 722/646/2 723/647/2 724/648/2 
f 723/647/2 725/649/2 726/650/2 727/651/2 
f 726/650/3 728/652/3 729/653/3 730/654/3 
f 729/653/4 731/655/4 732/656/4 733/657/4 
f 732/656/5 734/658/5 735/659/5 736/660/5 
f 735/659/2 737/661/2 738/662/2 739/661/2 
f 738/662/2 740/663/2 741/664/2 742/665/2 
f 738/662/2 742/665/2 739/661/2 
f 735/659/5 739/661/5 743/666/5 736/660/5 
f 732/656/4 736/660/4 744/667/4 733/657/4 
f 729/653/5 733/657/5 745/668/5 730/654/5 
f 726/650/2 730/654/2 746/669/2 727/651/2 
f 723/647/2 727/651/2 747/670/2 724/648/2 
f 720/644/2 724/648/2 748/671/2 721/645/2 
f 717/640/2 721/645/2 749/672/2 750/673/2 
f 751/674/43 740/663/43 738/662/43 752/675/43 
f 752/675/44 738/662/44 737/661/44 753/676/44 
f 753/676/45 737/661/45 735/659/45 754/677/45 
f 754/677/46 735/659/46 734/658/46 755/678/46 
f 755/678/47 734/658/47 732/656/47 756/679/47 
f 756/679/48 732/656/48 731/655/48 757/680/48 
f 757/680/49 731/655/49 729/653/49 758/681/49 
f 758/681/50 729/653/50 728/652/50 759/682/50 
f 759/682/51 728/652/51 726/650/51 760/683/51 
f 760/683/52 726/650/52 725/649/52 761/684/52 
f 761/684/53 725/649/53 723/647/53 762/685/53 
f 762/685/54 723/647/54 722/646/54 763/686/54 
f 763/686/55 722/646/55 720/644/55 764/687/55 
f 764/687/56 720/644/56 719/643/56 765/688/56 
f 765/688/57 719/643/57 717/640/57 716/639/57 
f 751/674/29 766/689/29 767/690/29 768/691/29 
f 769/692/29 718/642/29 770/693/29 771/694/29 
f 772/695/26 766/689/26 751/674/26 753/676/26 
f 751/674/26 752/675/26 753/676/26 
f 773/696/26 772/695/26 753/676/26 774/697/26 
f 753/676/27 754/677/27 755/678/27 774/697/27 
f 775/698/27 774/697/27 755/678/27 776/699/27 
f 755/678/28 756/679/28 757/680/28 776/699/28 
f 777/700/28 776/699/28 757/680/28 778/701/28 
f 757/680/27 758/681/27 759/682/27 778/701/27 
f 779/702/26 778/701/26 759/682/26 780/703/26 
f 759/682/26 760/683/26 761/684/26 780/703/26 
f 781/704/29 780/703/29 761/684/29 782/705/29 
f 761/684/29 762/685/29 763/686/29 782/705/29 
f 783/706/26 782/705/26 763/686/26 784/707/26 
f 763/686/26 764/687/26 765/688/26 784/707/26 
f 785/708/26 784/707/26 765/688/26 786/709/26 
f 786/709/26 765/688/26 716/639/26 769/692/26 
f 769/692/26 716/639/26 718/642/26 
s 1
f 282/641/2 717/640/2 750/673/2 
s off
f 768/691/23 767/690/23 787/710/23 788/711/23 
f 740/663/76 751/674/76 768/691/76 788/711/76 
f 741/664/2 740/663/2 788/711/2 787/710/2 
f 766/689/97 741/664/97 787/710/97 767/690/97 
f 770/693/23 789/712/23 790/713/23 771/694/23 
f 750/673/77 769/692/77 771/694/77 790/713/77 
s 1
f 282/641/2 750/673/2 790/713/2 789/712/2 
s off
f 718/642/61 282/641/61 789/712/61 770/693/61 
# 606 polygons - 40 triangles

