# 3ds Max Wavefront OBJ Exporter v0.97b - (c)2007 guruware
# File Created: 15.03.2017 11:48:07

mtllib SPW_Urban_Train Station_Platform Sign_01.mtl

#
# object SPW_Urban_Train_Station_Platform_Sign_01
#

v  2.3009 112.5592 0.2128
v  2.3009 117.2836 0.2128
v  2.3009 117.2836 7.5298
v  2.3009 112.5592 7.5298
v  -2.3009 117.2836 0.2128
v  -2.3009 117.2836 7.5298
v  -2.3009 112.5592 0.2128
v  -2.3009 112.5592 7.5298
v  3.1496 125.9860 -3.1496
v  3.1496 125.9860 3.1496
v  3.1496 0.0017 3.1496
v  3.1496 0.0017 -3.1496
v  -3.1496 125.9860 3.1496
v  -3.1496 0.0017 3.1496
v  -3.1496 125.9860 -3.1496
v  -3.1496 0.0017 -3.1496
v  1.2598 70.8678 -0.0000
v  1.2598 70.8678 15.7480
v  1.2598 55.1198 15.7480
v  1.2598 55.1198 -0.0000
v  -1.2598 70.8678 15.7480
v  -1.2598 55.1198 15.7480
v  -1.2598 55.1198 -0.0000
v  -1.2598 70.8678 -0.0000
v  -2.3180 125.9860 53.5433
v  -2.3180 125.9860 6.2992
v  -2.3180 124.4232 7.9077
v  -2.3180 124.4232 51.9348
v  2.3180 125.9860 53.5433
v  2.3180 125.9860 6.2992
v  2.3180 103.9387 6.2992
v  2.3180 124.4240 7.9081
v  2.3180 105.5006 7.9081
v  2.3180 103.9387 51.9685
v  -2.3180 103.9387 51.9685
v  -2.3180 103.9387 6.2992
v  -2.3180 105.5014 7.9077
v  -2.0862 105.5014 7.9077
v  -2.0862 124.4232 7.9077
v  -2.3180 105.5014 50.3600
v  -2.0862 105.5014 50.3600
v  -2.0862 124.4232 51.9348
v  2.3180 124.4240 51.9343
v  2.0862 124.4240 51.9343
v  2.0862 124.4240 7.9081
v  2.3180 105.5006 50.3595
v  2.0862 105.5006 50.3595
v  2.0862 105.5006 7.9081
# 48 vertices

vn 1.0000 0.0000 0.0000
vn -0.0000 1.0000 0.0000
vn -1.0000 -0.0000 -0.0000
vn 0.0000 -1.0000 -0.0000
vn -0.0000 0.0000 1.0000
vn 0.0000 -0.0000 -1.0000
vn 0.0000 -1.0000 0.0000
vn 0.0000 1.0000 -0.0000
vn 0.0000 0.0000 1.0000
vn -0.0000 -1.0000 0.0000
vn 1.0000 -0.0000 0.0000
vn 0.0000 -0.0712 0.9975
vn -1.0000 0.0000 -0.0000
vn -1.0000 -0.0000 0.0000
vn -0.0000 0.0829 -0.9966
vn -0.0000 1.0000 -0.0000
vn 1.0000 0.0000 -0.0000
vn 0.0000 0.0829 -0.9966
# 18 vertex normals

vt 0.6866 0.2019 0.0000
vt 0.7366 0.2019 0.0000
vt 0.7366 0.2519 0.0000
vt 0.6866 0.2519 0.0000
vt 0.9455 0.4204 0.0000
vt 0.9003 0.4204 0.0000
vt 0.9003 0.3751 0.0000
vt 0.9455 0.3751 0.0000
vt 0.9913 0.5772 0.0000
vt 0.9913 0.5317 0.0000
vt 0.9458 0.5317 0.0000
vt 0.9458 0.5772 0.0000
vt 0.6842 0.2068 0.0000
vt 0.7342 0.2068 0.0000
vt 0.7342 0.2568 0.0000
vt 0.6842 0.2568 0.0000
vt 0.9855 0.6214 0.0000
vt 0.9901 0.6761 0.0000
vt 0.8628 0.6761 0.0000
vt 0.8628 0.6214 0.0000
vt 0.9913 0.4711 0.0000
vt 0.9458 0.4711 0.0000
vt 0.9458 0.4256 0.0000
vt 0.9913 0.4256 0.0000
# 24 texture coords

g SPW_Urban_Train_Station_Platform_Sign_01
usemtl SPW_Urban_Train_Station
s off
f 1/1/1 2/2/1 3/3/1 4/4/1 
f 2/1/2 5/2/2 6/3/2 3/4/2 
f 5/1/3 7/2/3 8/3/3 6/4/3 
f 7/1/4 1/2/4 4/3/4 8/4/4 
f 4/1/5 3/2/5 6/3/5 8/4/5 
f 7/1/6 5/2/6 2/3/6 1/4/6 
f 9/1/1 10/2/1 11/3/1 12/4/1 
f 10/1/5 13/2/5 14/3/5 11/4/5 
f 13/1/3 15/2/3 16/3/3 14/4/3 
f 15/1/6 9/2/6 12/3/6 16/4/6 
f 12/1/7 11/2/7 14/3/7 16/4/7 
f 15/1/8 13/2/8 10/3/8 9/4/8 
f 17/5/1 18/6/1 19/7/1 20/8/1 
f 18/9/9 21/9/9 22/10/9 19/10/9 
f 20/11/10 19/10/10 22/10/10 23/11/10 
f 24/12/8 21/9/8 18/9/8 17/12/8 
s 1
f 25/13/3 26/14/3 27/15/3 28/16/3 
s off
f 25/13/8 29/14/8 30/15/8 26/16/8 
s 1
f 31/13/1 30/14/11 32/15/11 33/16/1 
s off
f 34/13/7 35/14/7 36/15/7 31/16/7 
f 36/13/6 26/14/6 30/15/6 31/16/6 
f 34/13/12 29/14/12 25/15/12 35/16/12 
f 27/13/9 37/14/9 38/15/9 39/16/9 
s 1
f 36/13/13 35/14/14 40/15/14 37/16/13 
f 26/13/3 36/14/13 37/15/13 27/16/3 
f 35/13/14 25/14/3 28/15/3 40/16/14 
s off
f 41/17/13 42/18/13 39/19/13 38/20/13 
f 40/13/15 28/14/15 42/15/15 41/16/15 
f 28/13/7 27/14/7 39/15/7 42/16/7 
f 37/13/16 40/14/16 41/15/16 38/16/16 
f 32/13/7 43/14/7 44/15/7 45/16/7 
s 1
f 29/13/1 34/14/17 46/15/1 43/16/1 
f 30/13/11 29/14/1 43/15/1 32/16/11 
f 34/13/17 31/14/1 33/15/1 46/16/1 
s off
f 44/18/11 47/17/11 48/20/11 45/19/11 
f 33/13/9 32/14/9 45/15/9 48/16/9 
f 43/13/18 46/14/18 47/15/18 44/16/18 
f 46/13/8 33/14/8 48/15/8 47/16/8 
f 21/21/3 24/22/3 23/23/3 22/24/3 
# 39 polygons

