# 3ds Max Wavefront OBJ Exporter v0.97b - (c)2007 guruware
# File Created: 15.03.2017 11:49:00

mtllib SPW_Urban_Train Station_Single Track Platform_01.mtl

#
# object SPW_Urban_Train_Station_Single_Track_Platform_01
#

v  393.7008 12.9051 52.1655
v  393.7008 10.8971 52.1655
v  393.7008 10.8971 50.1970
v  393.7008 11.7806 50.1970
v  393.7008 12.9051 58.0710
v  393.7008 10.8971 58.0710
v  -393.7008 10.8970 58.0707
v  393.7008 10.8971 60.0395
v  -393.7008 10.8970 60.0392
v  -393.7008 12.9050 58.0707
v  -393.7008 12.9050 52.1652
v  -393.7008 10.8970 52.1652
v  -393.7008 22.7081 58.0707
v  393.7008 22.7081 58.0710
v  393.7008 22.7081 52.1655
v  -393.7008 22.7081 52.1652
v  -393.7008 19.1102 52.1652
v  -393.7008 19.1102 58.0707
v  393.7008 19.1103 58.0710
v  393.7008 19.1103 52.1655
v  393.7008 19.1103 50.1970
v  393.7008 22.7081 50.1970
v  393.7008 19.1103 60.0395
v  -393.7008 19.1102 60.0392
v  393.7008 22.7081 60.0395
v  -393.7008 22.7081 60.0392
v  -393.7008 22.7081 50.1967
v  -393.7008 19.1102 50.1967
v  393.7008 11.7806 60.0395
v  -393.7008 11.7805 60.0392
v  -393.7008 11.7805 50.1967
v  -393.7008 10.8970 50.1967
v  -342.5197 10.8991 -70.8663
v  -326.7717 10.8991 -70.8663
v  -326.7717 7.6048 -70.8663
v  -342.5197 7.6048 -70.8663
v  -326.7717 10.8991 70.8660
v  -326.7717 7.6048 70.8660
v  -342.5197 10.8991 70.8660
v  -342.5197 7.6048 70.8660
v  -303.1496 10.8991 -70.8663
v  -287.4016 10.8991 -70.8662
v  -287.4016 7.6048 -70.8662
v  -303.1496 7.6048 -70.8663
v  -287.4016 10.8991 70.8660
v  -287.4016 7.6048 70.8660
v  -303.1496 10.8991 70.8660
v  -303.1496 7.6048 70.8660
v  -263.7795 10.8991 -70.8662
v  -248.0315 10.8991 -70.8662
v  -248.0315 7.6048 -70.8662
v  -263.7795 7.6048 -70.8662
v  -248.0316 10.8991 70.8661
v  -248.0316 7.6048 70.8661
v  -263.7796 10.8991 70.8661
v  -263.7796 7.6048 70.8661
v  -224.4094 10.8991 -70.8662
v  -208.6614 10.8991 -70.8662
v  -208.6614 7.6048 -70.8662
v  -224.4094 7.6048 -70.8662
v  -208.6615 10.8991 70.8661
v  -208.6615 7.6048 70.8661
v  -224.4095 10.8991 70.8661
v  -224.4095 7.6048 70.8661
v  -185.0394 10.8991 -70.8662
v  -169.2913 10.8991 -70.8662
v  -169.2913 7.6048 -70.8662
v  -185.0394 7.6048 -70.8662
v  -169.2914 10.8991 70.8661
v  -169.2914 7.6048 70.8661
v  -185.0394 10.8991 70.8661
v  -185.0394 7.6048 70.8661
v  -145.6693 10.8991 -70.8662
v  -129.9212 10.8991 -70.8662
v  -129.9212 7.6048 -70.8662
v  -145.6693 7.6048 -70.8662
v  -129.9213 10.8991 70.8661
v  -129.9213 7.6048 70.8661
v  -145.6693 10.8991 70.8661
v  -145.6693 7.6048 70.8661
v  -106.2992 10.8991 -70.8662
v  -90.5512 10.8991 -70.8662
v  -90.5512 7.6048 -70.8662
v  -106.2992 7.6048 -70.8662
v  -90.5512 10.8991 70.8661
v  -90.5512 7.6048 70.8661
v  -106.2992 10.8991 70.8661
v  -106.2992 7.6048 70.8661
v  -66.9291 10.8991 -70.8662
v  -51.1811 10.8991 -70.8662
v  -51.1811 7.6048 -70.8662
v  -66.9291 7.6048 -70.8662
v  -51.1811 10.8991 70.8661
v  -51.1811 7.6048 70.8661
v  -66.9292 10.8991 70.8661
v  -66.9292 7.6048 70.8661
v  -27.5590 10.8991 -70.8662
v  -11.8110 10.8991 -70.8661
v  -11.8110 7.6048 -70.8661
v  -27.5590 7.6048 -70.8662
v  -11.8110 10.8991 70.8661
v  -11.8110 7.6048 70.8661
v  -27.5591 10.8991 70.8661
v  -27.5591 7.6048 70.8661
v  366.1418 10.8991 -70.8660
v  381.8898 10.8991 -70.8660
v  381.8898 7.6048 -70.8660
v  366.1418 7.6048 -70.8660
v  381.8898 10.8992 70.8663
v  381.8898 7.6049 70.8663
v  366.1418 10.8992 70.8663
v  366.1418 7.6049 70.8663
v  326.7717 10.8991 -70.8660
v  342.5197 10.8991 -70.8660
v  342.5197 7.6048 -70.8660
v  326.7717 7.6048 -70.8660
v  342.5197 10.8991 70.8663
v  342.5197 7.6049 70.8663
v  326.7717 10.8991 70.8663
v  326.7717 7.6049 70.8663
v  287.4016 10.8991 -70.8660
v  303.1496 10.8991 -70.8660
v  303.1496 7.6048 -70.8660
v  287.4016 7.6048 -70.8660
v  303.1496 10.8991 70.8663
v  303.1496 7.6049 70.8663
v  287.4016 10.8991 70.8662
v  287.4016 7.6049 70.8662
v  248.0316 10.8991 -70.8661
v  263.7796 10.8991 -70.8661
v  263.7796 7.6048 -70.8661
v  248.0316 7.6048 -70.8661
v  263.7795 10.8991 70.8662
v  263.7795 7.6049 70.8662
v  248.0315 10.8991 70.8662
v  248.0315 7.6049 70.8662
v  208.6615 10.8991 -70.8661
v  224.4095 10.8991 -70.8661
v  224.4095 7.6048 -70.8661
v  208.6615 7.6048 -70.8661
v  224.4094 10.8991 70.8662
v  224.4094 7.6049 70.8662
v  208.6614 10.8991 70.8662
v  208.6614 7.6049 70.8662
v  169.2914 10.8991 -70.8661
v  185.0394 10.8991 -70.8661
v  185.0394 7.6048 -70.8661
v  169.2914 7.6048 -70.8661
v  185.0394 10.8991 70.8662
v  185.0394 7.6048 70.8662
v  169.2913 10.8991 70.8662
v  169.2913 7.6048 70.8662
v  129.9213 10.8991 -70.8661
v  145.6693 10.8991 -70.8661
v  145.6693 7.6048 -70.8661
v  129.9213 7.6048 -70.8661
v  145.6693 10.8991 70.8662
v  145.6693 7.6048 70.8662
v  129.9212 10.8991 70.8662
v  129.9212 7.6048 70.8662
v  90.5512 10.8991 -70.8661
v  106.2992 10.8991 -70.8661
v  106.2992 7.6048 -70.8661
v  90.5512 7.6048 -70.8661
v  106.2992 10.8991 70.8662
v  106.2992 7.6048 70.8662
v  90.5512 10.8991 70.8662
v  90.5512 7.6048 70.8662
v  51.1811 10.8991 -70.8661
v  66.9292 10.8991 -70.8661
v  66.9292 7.6048 -70.8661
v  51.1811 7.6048 -70.8661
v  66.9291 10.8991 70.8662
v  66.9291 7.6048 70.8662
v  51.1811 10.8991 70.8662
v  51.1811 7.6048 70.8662
v  11.8110 10.8991 -70.8661
v  27.5591 10.8991 -70.8661
v  27.5591 7.6048 -70.8661
v  11.8110 7.6048 -70.8661
v  27.5590 10.8991 70.8662
v  27.5590 7.6048 70.8662
v  11.8110 10.8991 70.8661
v  11.8110 7.6048 70.8661
v  393.7008 12.9051 -58.0707
v  393.7008 10.8971 -58.0707
v  393.7008 10.8971 -60.0392
v  393.7008 11.7805 -60.0392
v  393.7008 12.9051 -52.1652
v  393.7008 10.8971 -52.1652
v  -393.7008 10.8970 -52.1655
v  393.7008 10.8971 -50.1967
v  -393.7008 10.8970 -50.1970
v  -393.7008 12.9050 -52.1655
v  -393.7008 12.9050 -58.0710
v  -393.7008 10.8970 -58.0710
v  -393.7008 22.7081 -52.1655
v  393.7008 22.7081 -52.1652
v  393.7008 22.7081 -58.0707
v  -393.7008 22.7080 -58.0710
v  -393.7008 19.1102 -58.0710
v  -393.7008 19.1102 -52.1655
v  393.7008 19.1103 -52.1652
v  393.7008 19.1103 -58.0707
v  393.7008 19.1103 -60.0392
v  393.7008 22.7081 -60.0392
v  393.7008 19.1103 -50.1967
v  -393.7008 19.1102 -50.1970
v  393.7008 22.7081 -50.1967
v  -393.7008 22.7081 -50.1970
v  -393.7008 22.7080 -60.0395
v  -393.7008 19.1102 -60.0395
v  393.7008 11.7805 -50.1967
v  -393.7008 11.7805 -50.1970
v  -393.7008 11.7805 -60.0395
v  -393.7008 10.8970 -60.0395
v  -381.8898 10.8991 -70.8663
v  -366.1418 10.8991 -70.8663
v  -366.1418 7.6048 -70.8663
v  -381.8898 7.6048 -70.8663
v  -366.1418 10.8991 70.8660
v  -366.1418 7.6048 70.8660
v  -381.8898 10.8991 70.8660
v  -381.8898 7.6048 70.8660
v  393.7008 9.8425 -118.1102
v  393.7007 9.8425 118.1103
v  393.7007 0.0000 118.1103
v  393.7008 -0.0000 -118.1102
v  -393.7008 9.8425 118.1102
v  -393.7008 0.0000 118.1102
v  -393.7007 9.8425 -118.1103
v  -393.7007 -0.0000 -118.1103
v  393.7008 47.2441 -275.5905
v  393.7008 47.2441 -118.1102
v  393.7008 -0.0000 -275.5905
v  -393.7007 47.2441 -118.1103
v  -393.7007 47.2441 -275.5906
v  -393.7007 -0.0000 -275.5906
v  393.7007 47.2441 118.1103
v  393.7007 47.2441 275.5906
v  393.7007 0.0000 275.5906
v  -393.7008 47.2441 275.5905
v  -393.7008 0.0000 275.5905
v  -393.7008 47.2441 118.1102
# 244 vertices

vn 1.0000 0.0000 -0.0000
vn 0.0000 -1.0000 0.0000
vn -1.0000 0.0000 -0.0000
vn -0.0000 1.0000 -0.0000
vn -0.0000 0.7071 0.7071
vn -0.0000 0.0000 1.0000
vn 0.0000 -0.0000 -1.0000
vn -0.0000 0.8683 0.4960
vn 0.0000 0.8683 -0.4960
vn 0.0000 0.0000 1.0000
vn 1.0000 0.0000 0.0000
vn -1.0000 -0.0000 -0.0000
vn -0.0000 -1.0000 0.0000
# 13 vertex normals

vt 0.5980 0.3324 0.0000
vt 0.6480 0.3324 0.0000
vt 0.6480 0.3824 0.0000
vt 0.5980 0.3824 0.0000
vt 0.5902 0.2289 0.0000
vt 0.6402 0.2289 0.0000
vt 0.6402 0.2789 0.0000
vt 0.5902 0.2789 0.0000
vt 0.5902 0.0844 0.0000
vt 0.6402 0.0844 0.0000
vt 0.6402 0.1344 0.0000
vt 0.5902 0.1344 0.0000
vt 0.4027 0.1703 0.0000
vt 0.4527 0.1703 0.0000
vt 0.4527 0.2203 0.0000
vt 0.4027 0.2203 0.0000
# 16 texture coords

g SPW_Urban_Train_Station_Single_Track_Platform_01
usemtl SPW_Urban_Train_Station
s 1
f 1/1/1 2/2/1 3/3/1 4/4/1 
f 1/1/1 5/2/1 6/3/1 2/4/1 
s 2
f 7/1/2 6/2/2 8/3/2 9/4/2 
s 1
f 10/1/3 11/2/3 12/3/3 7/4/3 
s 2
f 12/1/2 2/2/2 6/3/2 7/4/2 
f 13/1/4 14/2/4 15/3/4 16/4/4 
s 1
f 13/1/3 16/2/3 17/3/3 18/4/3 
f 18/1/3 17/2/3 11/3/3 10/4/3 
s off
f 14/1/5 13/2/5 13/3/5 14/4/5 
f 19/1/6 18/2/6 10/3/6 5/4/6 
s 1
f 15/1/1 14/2/1 19/3/1 20/4/1 
f 20/1/1 19/2/1 5/3/1 1/4/1 
f 15/1/1 20/2/1 21/3/1 22/4/1 
s off
f 17/1/7 20/2/7 1/3/7 11/4/7 
f 18/1/2 19/2/2 23/3/2 24/4/2 
f 13/1/5 18/2/5 18/3/5 13/4/5 
f 19/1/5 14/2/5 14/3/5 19/4/5 
f 18/1/5 19/2/5 19/3/5 18/4/5 
f 25/1/6 26/2/6 24/3/6 23/4/6 
f 19/1/1 14/2/1 25/3/1 23/4/1 
f 13/1/3 18/2/3 24/3/3 26/4/3 
f 14/1/4 13/2/4 26/3/4 25/4/4 
f 27/1/7 22/2/7 21/3/7 28/4/7 
s 2
f 16/1/4 15/2/4 22/3/4 27/4/4 
s off
f 20/1/2 17/2/2 28/3/2 21/4/2 
s 1
f 17/1/3 16/2/3 27/3/3 28/4/3 
s off
f 29/1/6 30/2/6 9/3/6 8/4/6 
s 1
f 6/1/1 5/2/1 29/3/1 8/4/1 
s off
f 5/1/8 10/2/8 30/3/8 29/4/8 
s 1
f 10/1/3 7/2/3 9/3/3 30/4/3 
s off
f 31/1/7 4/2/7 3/3/7 32/4/7 
f 11/1/9 1/2/9 4/3/9 31/4/9 
s 2
f 2/1/2 12/2/2 32/3/2 3/4/2 
s 1
f 12/1/3 11/2/3 31/3/3 32/4/3 
s off
f 33/5/7 34/6/7 35/7/7 36/8/7 
f 34/5/1 37/6/1 38/7/1 35/8/1 
f 37/5/10 39/6/10 40/7/10 38/8/10 
f 39/5/3 33/6/3 36/7/3 40/8/3 
f 36/5/2 35/6/2 38/7/2 40/8/2 
f 39/5/4 37/6/4 34/7/4 33/8/4 
f 41/5/7 42/6/7 43/7/7 44/8/7 
f 42/5/11 45/6/11 46/7/11 43/8/11 
f 45/5/6 47/6/6 48/7/6 46/8/6 
f 47/5/12 41/6/12 44/7/12 48/8/12 
f 44/5/2 43/6/2 46/7/2 48/8/2 
f 47/5/4 45/6/4 42/7/4 41/8/4 
f 49/5/7 50/6/7 51/7/7 52/8/7 
f 50/5/11 53/6/11 54/7/11 51/8/11 
f 53/5/6 55/6/6 56/7/6 54/8/6 
f 55/5/12 49/6/12 52/7/12 56/8/12 
f 52/5/2 51/6/2 54/7/2 56/8/2 
f 55/5/4 53/6/4 50/7/4 49/8/4 
f 57/5/7 58/6/7 59/7/7 60/8/7 
f 58/5/11 61/6/11 62/7/11 59/8/11 
f 61/5/10 63/6/10 64/7/10 62/8/10 
f 63/5/12 57/6/12 60/7/12 64/8/12 
f 60/5/2 59/6/2 62/7/2 64/8/2 
f 63/5/4 61/6/4 58/7/4 57/8/4 
f 65/5/7 66/6/7 67/7/7 68/8/7 
f 66/5/11 69/6/11 70/7/11 67/8/11 
f 69/5/6 71/6/6 72/7/6 70/8/6 
f 71/5/12 65/6/12 68/7/12 72/8/12 
f 68/5/2 67/6/2 70/7/2 72/8/2 
f 71/5/4 69/6/4 66/7/4 65/8/4 
f 73/5/7 74/6/7 75/7/7 76/8/7 
f 74/5/11 77/6/11 78/7/11 75/8/11 
f 77/5/6 79/6/6 80/7/6 78/8/6 
f 79/5/12 73/6/12 76/7/12 80/8/12 
f 76/5/2 75/6/2 78/7/2 80/8/2 
f 79/5/4 77/6/4 74/7/4 73/8/4 
f 81/5/7 82/6/7 83/7/7 84/8/7 
f 82/5/11 85/6/11 86/7/11 83/8/11 
f 85/5/10 87/6/10 88/7/10 86/8/10 
f 87/5/12 81/6/12 84/7/12 88/8/12 
f 84/5/2 83/6/2 86/7/2 88/8/2 
f 87/5/4 85/6/4 82/7/4 81/8/4 
f 89/5/7 90/6/7 91/7/7 92/8/7 
f 90/5/11 93/6/11 94/7/11 91/8/11 
f 93/5/6 95/6/6 96/7/6 94/8/6 
f 95/5/12 89/6/12 92/7/12 96/8/12 
f 92/5/2 91/6/2 94/7/2 96/8/2 
f 95/5/4 93/6/4 90/7/4 89/8/4 
f 97/5/7 98/6/7 99/7/7 100/8/7 
f 98/5/11 101/6/11 102/7/11 99/8/11 
f 101/5/6 103/6/6 104/7/6 102/8/6 
f 103/5/12 97/6/12 100/7/12 104/8/12 
f 100/5/2 99/6/2 102/7/2 104/8/2 
f 103/5/4 101/6/4 98/7/4 97/8/4 
f 105/5/7 106/6/7 107/7/7 108/8/7 
f 106/5/1 109/6/1 110/7/1 107/8/1 
f 109/5/6 111/6/6 112/7/6 110/8/6 
f 111/5/3 105/6/3 108/7/3 112/8/3 
f 108/5/2 107/6/2 110/7/2 112/8/2 
f 111/5/4 109/6/4 106/7/4 105/8/4 
f 113/5/7 114/6/7 115/7/7 116/8/7 
f 114/5/1 117/6/1 118/7/1 115/8/1 
f 117/5/10 119/6/10 120/7/10 118/8/10 
f 119/5/3 113/6/3 116/7/3 120/8/3 
f 116/5/2 115/6/2 118/7/2 120/8/2 
f 119/5/4 117/6/4 114/7/4 113/8/4 
f 121/5/7 122/6/7 123/7/7 124/8/7 
f 122/5/11 125/6/11 126/7/11 123/8/11 
f 125/5/6 127/6/6 128/7/6 126/8/6 
f 127/5/12 121/6/12 124/7/12 128/8/12 
f 124/5/2 123/6/2 126/7/2 128/8/2 
f 127/5/4 125/6/4 122/7/4 121/8/4 
f 129/5/7 130/6/7 131/7/7 132/8/7 
f 130/5/11 133/6/11 134/7/11 131/8/11 
f 133/5/6 135/6/6 136/7/6 134/8/6 
f 135/5/12 129/6/12 132/7/12 136/8/12 
f 132/5/2 131/6/2 134/7/2 136/8/2 
f 135/5/4 133/6/4 130/7/4 129/8/4 
f 137/5/7 138/6/7 139/7/7 140/8/7 
f 138/5/11 141/6/11 142/7/11 139/8/11 
f 141/5/10 143/6/10 144/7/10 142/8/10 
f 143/5/12 137/6/12 140/7/12 144/8/12 
f 140/5/2 139/6/2 142/7/2 144/8/2 
f 143/5/4 141/6/4 138/7/4 137/8/4 
f 145/5/7 146/6/7 147/7/7 148/8/7 
f 146/5/11 149/6/11 150/7/11 147/8/11 
f 149/5/6 151/6/6 152/7/6 150/8/6 
f 151/5/12 145/6/12 148/7/12 152/8/12 
f 148/5/2 147/6/2 150/7/2 152/8/2 
f 151/5/4 149/6/4 146/7/4 145/8/4 
f 153/5/7 154/6/7 155/7/7 156/8/7 
f 154/5/11 157/6/11 158/7/11 155/8/11 
f 157/5/6 159/6/6 160/7/6 158/8/6 
f 159/5/12 153/6/12 156/7/12 160/8/12 
f 156/5/2 155/6/2 158/7/2 160/8/2 
f 159/5/4 157/6/4 154/7/4 153/8/4 
f 161/5/7 162/6/7 163/7/7 164/8/7 
f 162/5/11 165/6/11 166/7/11 163/8/11 
f 165/5/10 167/6/10 168/7/10 166/8/10 
f 167/5/12 161/6/12 164/7/12 168/8/12 
f 164/5/2 163/6/2 166/7/2 168/8/2 
f 167/5/4 165/6/4 162/7/4 161/8/4 
f 169/5/7 170/6/7 171/7/7 172/8/7 
f 170/5/11 173/6/11 174/7/11 171/8/11 
f 173/5/6 175/6/6 176/7/6 174/8/6 
f 175/5/12 169/6/12 172/7/12 176/8/12 
f 172/5/2 171/6/2 174/7/2 176/8/2 
f 175/5/4 173/6/4 170/7/4 169/8/4 
f 177/5/7 178/6/7 179/7/7 180/8/7 
f 178/5/11 181/6/11 182/7/11 179/8/11 
f 181/5/6 183/6/6 184/7/6 182/8/6 
f 183/5/12 177/6/12 180/7/12 184/8/12 
f 180/5/2 179/6/2 182/7/2 184/8/2 
f 183/5/4 181/6/4 178/7/4 177/8/4 
s 1
f 185/1/1 186/2/1 187/3/1 188/4/1 
f 185/1/1 189/2/1 190/3/1 186/4/1 
s 2
f 191/1/2 190/2/2 192/3/2 193/4/2 
s 1
f 194/1/3 195/2/3 196/3/3 191/4/3 
s 2
f 196/1/2 186/2/2 190/3/2 191/4/2 
f 197/1/4 198/2/4 199/3/4 200/4/4 
s 1
f 197/1/3 200/2/3 201/3/3 202/4/3 
f 202/1/3 201/2/3 195/3/3 194/4/3 
s off
f 198/1/5 197/2/5 197/3/5 198/4/5 
f 203/1/6 202/2/6 194/3/6 189/4/6 
s 1
f 199/1/1 198/2/1 203/3/1 204/4/1 
f 204/1/1 203/2/1 189/3/1 185/4/1 
f 199/1/1 204/2/1 205/3/1 206/4/1 
s off
f 201/1/7 204/2/7 185/3/7 195/4/7 
f 202/1/2 203/2/2 207/3/2 208/4/2 
f 197/1/5 202/2/5 202/3/5 197/4/5 
f 203/1/5 198/2/5 198/3/5 203/4/5 
f 202/1/5 203/2/5 203/3/5 202/4/5 
f 209/1/6 210/2/6 208/3/6 207/4/6 
f 203/1/1 198/2/1 209/3/1 207/4/1 
f 197/1/3 202/2/3 208/3/3 210/4/3 
f 198/1/4 197/2/4 210/3/4 209/4/4 
f 211/1/7 206/2/7 205/3/7 212/4/7 
s 2
f 200/1/4 199/2/4 206/3/4 211/4/4 
s off
f 204/1/2 201/2/2 212/3/2 205/4/2 
s 1
f 201/1/3 200/2/3 211/3/3 212/4/3 
s off
f 213/1/6 214/2/6 193/3/6 192/4/6 
s 1
f 190/1/1 189/2/1 213/3/1 192/4/1 
s off
f 189/1/8 194/2/8 214/3/8 213/4/8 
s 1
f 194/1/3 191/2/3 193/3/3 214/4/3 
s off
f 215/1/7 188/2/7 187/3/7 216/4/7 
f 195/1/9 185/2/9 188/3/9 215/4/9 
s 2
f 186/1/2 196/2/2 216/3/2 187/4/2 
s 1
f 196/1/3 195/2/3 215/3/3 216/4/3 
s off
f 217/5/7 218/6/7 219/7/7 220/8/7 
f 218/5/1 221/6/1 222/7/1 219/8/1 
f 221/5/6 223/6/6 224/7/6 222/8/6 
f 223/5/3 217/6/3 220/7/3 224/8/3 
f 220/5/2 219/6/2 222/7/2 224/8/2 
f 223/5/4 221/6/4 218/7/4 217/8/4 
f 225/9/11 226/10/11 227/11/11 228/12/11 
f 226/9/6 229/10/6 230/11/6 227/12/6 
f 229/9/12 231/10/12 232/11/12 230/12/12 
f 231/9/7 225/10/7 228/11/7 232/12/7 
f 228/9/13 227/10/13 230/11/13 232/12/13 
f 231/9/4 229/10/4 226/11/4 225/12/4 
f 233/13/11 234/14/11 228/15/11 235/16/11 
f 234/13/6 236/14/6 232/15/6 228/16/6 
f 236/13/3 237/14/3 238/15/3 232/16/3 
f 237/13/7 233/14/7 235/15/7 238/16/7 
f 235/13/13 228/14/13 232/15/13 238/16/13 
f 237/13/4 236/14/4 234/15/4 233/16/4 
f 239/13/1 240/14/1 241/15/1 227/16/1 
f 240/13/6 242/14/6 243/15/6 241/16/6 
f 242/13/3 244/14/3 230/15/3 243/16/3 
f 244/13/7 239/14/7 227/15/7 230/16/7 
f 227/13/13 241/14/13 243/15/13 230/16/13 
f 244/13/4 242/14/4 240/15/4 239/16/4 
# 206 polygons

