# 3ds Max Wavefront OBJ Exporter v0.97b - (c)2007 guruware
# File Created: 15.03.2017 11:00:08

mtllib SPW_Urban_Props_Dumpster_03.mtl

#
# object SPW_Urban_Props_Dumpster_03
#

v  -52.4487 65.9613 38.7495
v  -52.4487 79.7023 -38.7494
v  -52.4487 75.5800 -38.7494
v  -52.4487 61.8390 38.7495
v  -46.9524 79.7023 -38.7494
v  -46.9524 75.5800 -38.7494
v  -46.9524 65.9613 38.7495
v  -46.9524 61.8390 38.7495
v  -41.4560 65.9613 38.7495
v  -41.4560 79.7023 -38.7494
v  -41.4560 75.5800 -38.7494
v  -41.4560 61.8390 38.7495
v  -35.9596 79.7023 -38.7494
v  -35.9596 75.5800 -38.7494
v  -35.9596 65.9613 38.7495
v  -35.9596 61.8390 38.7495
v  -30.4632 65.9613 38.7495
v  -30.4632 79.7023 -38.7494
v  -30.4632 75.5800 -38.7494
v  -30.4632 61.8390 38.7495
v  -24.9669 79.7023 -38.7494
v  -24.9669 75.5800 -38.7494
v  -24.9669 65.9613 38.7495
v  -24.9669 61.8390 38.7495
v  -19.4705 65.9613 38.7495
v  -19.4705 79.7023 -38.7494
v  -19.4705 75.5800 -38.7494
v  -19.4705 61.8390 38.7495
v  -13.9741 79.7023 -38.7494
v  -13.9741 75.5800 -38.7494
v  -13.9741 65.9613 38.7495
v  -13.9741 61.8390 38.7495
v  -8.4777 65.9613 38.7495
v  -8.4777 79.7023 -38.7494
v  -8.4777 75.5800 -38.7494
v  -8.4777 61.8390 38.7495
v  -2.9814 79.7023 -38.7494
v  -2.9814 75.5800 -38.7494
v  -2.9814 65.9613 38.7495
v  -2.9814 61.8390 38.7495
v  2.5150 65.9613 38.7495
v  2.5150 79.7023 -38.7494
v  2.5150 75.5800 -38.7494
v  2.5150 61.8390 38.7495
v  8.0114 79.7023 -38.7494
v  8.0114 75.5800 -38.7494
v  8.0114 65.9613 38.7495
v  8.0114 61.8390 38.7495
v  13.5078 65.9613 38.7495
v  13.5078 79.7023 -38.7494
v  13.5078 75.5800 -38.7494
v  13.5078 61.8390 38.7495
v  19.0041 79.7023 -38.7494
v  19.0041 75.5800 -38.7494
v  19.0041 65.9613 38.7495
v  19.0041 61.8390 38.7495
v  24.5005 65.9613 38.7495
v  24.5005 79.7023 -38.7494
v  24.5005 75.5800 -38.7494
v  24.5005 61.8390 38.7495
v  29.9969 79.7023 -38.7494
v  29.9969 75.5800 -38.7494
v  29.9969 65.9613 38.7495
v  29.9969 61.8390 38.7495
v  35.4933 65.9613 38.7495
v  35.4933 79.7023 -38.7494
v  35.4933 75.5800 -38.7494
v  35.4933 61.8390 38.7495
v  40.9897 79.7023 -38.7494
v  40.9897 75.5800 -38.7494
v  40.9897 65.9613 38.7495
v  40.9897 61.8390 38.7495
v  46.4860 65.9613 38.7495
v  46.4860 79.7023 -38.7494
v  46.4860 75.5800 -38.7494
v  46.4860 61.8390 38.7495
v  51.9824 79.7023 -38.7494
v  51.9824 75.5800 -38.7494
v  51.9824 65.9613 38.7495
v  51.9824 61.8390 38.7495
v  -55.2387 64.5872 38.7870
v  -55.2387 78.3282 -38.7870
v  -55.2387 74.2059 -38.7870
v  -55.2387 60.4650 38.7870
v  55.2385 78.3282 -38.7870
v  55.2385 74.2059 -38.7870
v  55.2385 64.5872 38.7870
v  55.2385 60.4650 38.7870
v  46.7395 5.5012 37.1005
v  46.7395 5.5012 -37.1005
v  46.7395 0.0048 -37.1005
v  46.7395 0.0048 37.1005
v  51.6863 5.5012 -37.1005
v  51.6863 0.0048 -37.1005
v  51.6863 5.5012 37.1005
v  51.6863 0.0048 37.1005
v  -51.6864 5.5012 37.1005
v  -51.6864 5.5012 -37.1005
v  -51.6864 0.0048 -37.1005
v  -51.6864 0.0048 37.1005
v  -46.7397 5.5012 -37.1005
v  -46.7397 0.0048 -37.1005
v  -46.7397 5.5012 37.1005
v  -46.7397 0.0048 37.1005
v  -57.7119 37.3346 27.4819
v  -57.7119 51.0756 -27.4819
v  -57.7119 42.8310 -27.4819
v  -57.7119 29.0900 27.4819
v  57.7119 51.0756 -27.4819
v  57.7119 42.8310 -27.4819
v  57.7119 37.3346 27.4819
v  57.7119 29.0900 27.4819
v  -54.9638 57.7168 38.4746
v  -54.9638 71.4577 -38.4746
v  -54.9638 2.7530 -38.4746
v  -54.9638 2.7530 38.4746
v  54.9638 71.4577 -38.4746
v  54.9638 2.7530 -38.4746
v  54.9638 57.7168 38.4746
v  54.9638 2.7530 38.4746
v  -56.0701 71.5960 -39.5611
v  56.0701 71.5960 -39.5611
v  56.0701 57.5785 39.5611
v  -56.0701 57.5785 39.5611
v  56.0701 60.3267 39.5611
v  -56.0701 60.3267 39.5611
v  -56.0701 74.3442 -39.5611
v  56.0701 74.3442 -39.5611
# 128 vertices

vn -1.0000 0.0000 -0.0000
vn 0.0000 0.0000 -1.0000
vn 1.0000 0.0000 -0.0000
vn 0.0000 -0.0000 1.0000
vn 0.0000 -0.9846 -0.1746
vn 0.0000 0.9846 0.1746
vn 0.0000 -0.9847 -0.1744
vn 0.0000 0.9847 0.1744
vn 0.0000 -1.0000 -0.0000
vn 0.0000 1.0000 0.0000
vn 0.0000 -0.9701 -0.2425
vn 0.0000 0.9701 0.2425
vn 0.0000 -0.9920 -0.1263
vn -0.0000 -0.9845 -0.1751
vn 0.0000 -0.9845 -0.1751
# 15 vertex normals

vt 0.4359 0.0336 0.0000
vt 0.4859 0.0336 0.0000
vt 0.4859 0.0836 0.0000
vt 0.4359 0.0836 0.0000
vt 0.4203 0.1430 0.0000
vt 0.4703 0.1430 0.0000
vt 0.4703 0.1930 0.0000
vt 0.4203 0.1930 0.0000
vt 0.4398 0.1508 0.0000
vt 0.4898 0.1508 0.0000
vt 0.4898 0.2008 0.0000
vt 0.4398 0.2008 0.0000
vt 0.6391 0.8188 0.0000
vt 0.6891 0.8188 0.0000
vt 0.6891 0.8687 0.0000
vt 0.6391 0.8687 0.0000
# 16 texture coords

g SPW_Urban_Props_Dumpster_03
usemtl SPW_Urban_Props
s off
f 1/1/1 2/2/1 3/3/1 4/4/1 
f 2/1/2 5/2/2 6/3/2 3/4/2 
f 5/1/3 7/2/3 8/3/3 6/4/3 
f 7/1/4 1/2/4 4/3/4 8/4/4 
f 4/1/5 3/2/5 6/3/5 8/4/5 
f 7/1/6 5/2/6 2/3/6 1/4/6 
f 9/1/1 10/2/1 11/3/1 12/4/1 
f 10/1/2 13/2/2 14/3/2 11/4/2 
f 13/1/3 15/2/3 16/3/3 14/4/3 
f 15/1/4 9/2/4 12/3/4 16/4/4 
f 12/1/5 11/2/5 14/3/5 16/4/5 
f 15/1/6 13/2/6 10/3/6 9/4/6 
f 17/1/1 18/2/1 19/3/1 20/4/1 
f 18/1/2 21/2/2 22/3/2 19/4/2 
f 21/1/3 23/2/3 24/3/3 22/4/3 
f 23/1/4 17/2/4 20/3/4 24/4/4 
f 20/1/5 19/2/5 22/3/5 24/4/5 
f 23/1/6 21/2/6 18/3/6 17/4/6 
f 25/1/1 26/2/1 27/3/1 28/4/1 
f 26/1/2 29/2/2 30/3/2 27/4/2 
f 29/1/3 31/2/3 32/3/3 30/4/3 
f 31/1/4 25/2/4 28/3/4 32/4/4 
f 28/1/5 27/2/5 30/3/5 32/4/5 
f 31/1/6 29/2/6 26/3/6 25/4/6 
f 33/1/1 34/2/1 35/3/1 36/4/1 
f 34/1/2 37/2/2 38/3/2 35/4/2 
f 37/1/3 39/2/3 40/3/3 38/4/3 
f 39/1/4 33/2/4 36/3/4 40/4/4 
f 36/1/5 35/2/5 38/3/5 40/4/5 
f 39/1/6 37/2/6 34/3/6 33/4/6 
f 41/1/1 42/2/1 43/3/1 44/4/1 
f 42/1/2 45/2/2 46/3/2 43/4/2 
f 45/1/3 47/2/3 48/3/3 46/4/3 
f 47/1/4 41/2/4 44/3/4 48/4/4 
f 44/1/5 43/2/5 46/3/5 48/4/5 
f 47/1/6 45/2/6 42/3/6 41/4/6 
f 49/1/1 50/2/1 51/3/1 52/4/1 
f 50/1/2 53/2/2 54/3/2 51/4/2 
f 53/1/3 55/2/3 56/3/3 54/4/3 
f 55/1/4 49/2/4 52/3/4 56/4/4 
f 52/1/5 51/2/5 54/3/5 56/4/5 
f 55/1/6 53/2/6 50/3/6 49/4/6 
f 57/1/1 58/2/1 59/3/1 60/4/1 
f 58/1/2 61/2/2 62/3/2 59/4/2 
f 61/1/3 63/2/3 64/3/3 62/4/3 
f 63/1/4 57/2/4 60/3/4 64/4/4 
f 60/1/5 59/2/5 62/3/5 64/4/5 
f 63/1/6 61/2/6 58/3/6 57/4/6 
f 65/1/1 66/2/1 67/3/1 68/4/1 
f 66/1/2 69/2/2 70/3/2 67/4/2 
f 69/1/3 71/2/3 72/3/3 70/4/3 
f 71/1/4 65/2/4 68/3/4 72/4/4 
f 68/1/5 67/2/5 70/3/5 72/4/5 
f 71/1/6 69/2/6 66/3/6 65/4/6 
f 73/1/1 74/2/1 75/3/1 76/4/1 
f 74/1/2 77/2/2 78/3/2 75/4/2 
f 77/1/3 79/2/3 80/3/3 78/4/3 
f 79/1/4 73/2/4 76/3/4 80/4/4 
f 76/1/5 75/2/5 78/3/5 80/4/5 
f 79/1/6 77/2/6 74/3/6 73/4/6 
f 81/5/1 82/6/1 83/7/1 84/8/1 
f 82/5/2 85/6/2 86/7/2 83/8/2 
f 85/5/3 87/6/3 88/7/3 86/8/3 
f 87/5/4 81/6/4 84/7/4 88/8/4 
f 84/5/7 83/6/7 86/7/7 88/8/7 
f 87/5/8 85/6/8 82/7/8 81/8/8 
f 89/9/1 90/10/1 91/11/1 92/12/1 
f 90/9/2 93/10/2 94/11/2 91/12/2 
f 93/9/3 95/10/3 96/11/3 94/12/3 
f 95/9/4 89/10/4 92/11/4 96/12/4 
f 92/9/9 91/10/9 94/11/9 96/12/9 
f 95/9/10 93/10/10 90/11/10 89/12/10 
f 97/9/1 98/10/1 99/11/1 100/12/1 
f 98/9/2 101/10/2 102/11/2 99/12/2 
f 101/9/3 103/10/3 104/11/3 102/12/3 
f 103/9/4 97/10/4 100/11/4 104/12/4 
f 100/9/9 99/10/9 102/11/9 104/12/9 
f 103/9/10 101/10/10 98/11/10 97/12/10 
f 105/13/1 106/14/1 107/15/1 108/16/1 
f 106/13/2 109/14/2 110/15/2 107/16/2 
f 109/13/3 111/14/3 112/15/3 110/16/3 
f 111/13/4 105/14/4 108/15/4 112/16/4 
f 108/13/11 107/14/11 110/15/11 112/16/11 
f 111/13/12 109/14/12 106/15/12 105/16/12 
f 113/13/1 114/14/1 115/15/1 116/16/1 
f 114/13/2 117/14/2 118/15/2 115/16/2 
f 117/13/3 119/14/3 120/15/3 118/16/3 
f 119/13/4 113/14/4 116/15/4 120/16/4 
f 116/13/9 115/14/9 118/15/9 120/16/9 
f 117/13/13 114/14/13 121/15/13 122/16/13 
f 119/13/14 117/14/14 122/15/14 123/16/14 
f 114/13/15 113/14/15 124/15/15 121/16/15 
f 113/13/13 119/14/13 123/15/13 124/16/13 
f 124/13/4 123/14/4 125/15/4 126/16/4 
f 122/13/2 121/14/2 127/15/2 128/16/2 
f 123/13/3 122/14/3 128/15/3 125/16/3 
f 121/13/1 124/14/1 126/15/1 127/16/1 
f 126/13/8 125/14/8 128/15/8 127/16/8 
# 98 polygons

