# 3ds Max Wavefront OBJ Exporter v0.97b - (c)2007 guruware
# File Created: 15.03.2017 11:46:18

mtllib SPW_Urban_Text_Hospital.mtl

#
# object SPW_Urban_Text_Hospital
#

v  -75.2641 19.5816 -1.9685
v  -78.1469 20.2765 -1.9685
v  -78.1469 22.0461 -1.9685
v  -67.2357 20.2775 -1.9685
v  -67.2357 22.0461 -1.9685
v  -70.1298 19.5911 -1.9685
v  -75.2641 2.4654 -1.9685
v  -70.1298 12.3509 -1.9685
v  -70.1266 9.9295 -1.9685
v  -62.2931 19.5764 -1.9685
v  -65.1787 20.2709 -1.9685
v  -65.1787 22.0330 -1.9685
v  -54.2700 20.2868 -1.9685
v  -54.2700 22.0330 -1.9685
v  -57.1572 19.5824 -1.9685
v  -62.2931 12.3509 -1.9685
v  -57.1572 2.4730 -1.9685
v  -54.2717 1.7785 -1.9685
v  -54.2717 0.0175 -1.9685
v  -65.1835 1.7686 -1.9685
v  -65.1835 0.0175 -1.9685
v  -62.2898 2.4576 -1.9685
v  -62.2898 9.9295 -1.9685
v  -70.1266 2.4744 -1.9685
v  -67.2413 0.0052 -1.9685
v  -67.2413 1.7634 -1.9685
v  -78.1516 1.7625 -1.9685
v  -78.1516 0.0052 -1.9685
v  -39.7034 20.1674 -1.9685
v  -40.9588 20.3265 -1.9685
v  -40.4998 22.4806 -1.9685
v  -38.5717 19.6900 -1.9685
v  -37.6700 18.9473 -1.9685
v  -32.0303 18.0075 -1.9685
v  -38.3732 22.2606 -1.9685
v  -36.0634 21.5639 -1.9685
v  -33.8268 20.1707 -1.9685
v  -36.6621 17.4444 -1.9685
v  -35.9725 15.4641 -1.9685
v  -35.6012 13.3776 -1.9685
v  -35.4598 10.9906 -1.9685
v  -35.5482 8.7451 -1.9685
v  -35.9725 6.4288 -1.9685
v  -30.8937 15.6609 -1.9685
v  -30.2704 13.0211 -1.9685
v  -30.6370 7.0081 -1.9685
v  -30.2337 9.8679 -1.9685
v  -31.4803 4.9182 -1.9685
v  -32.8735 2.8283 -1.9685
v  -36.7600 0.1885 -1.9685
v  -34.7801 1.1784 -1.9685
v  -36.5384 4.8197 -1.9685
v  -37.4048 3.4052 -1.9685
v  -38.4303 2.4681 -1.9685
v  -39.2613 2.0437 -1.9685
v  -40.0924 1.7962 -1.9685
v  -40.8664 1.7161 -1.9685
v  -38.8865 -0.2881 -1.9685
v  -40.8664 -0.4715 -1.9685
v  -41.8979 1.7652 -1.9685
v  -43.0275 2.0968 -1.9685
v  -44.4067 3.0869 -1.9685
v  -48.6393 2.2050 -1.9685
v  -42.7548 -0.3442 -1.9685
v  -44.6795 0.0052 -1.9685
v  -46.6228 0.7751 -1.9685
v  -45.4499 4.5899 -1.9685
v  -46.1572 6.5702 -1.9685
v  -46.4754 8.6920 -1.9685
v  -46.6169 11.1144 -1.9685
v  -46.4754 13.6252 -1.9685
v  -48.2360 20.2440 -1.9685
v  -50.2526 4.3316 -1.9685
v  -51.2425 6.5315 -1.9685
v  -51.8658 11.6645 -1.9685
v  -51.8291 9.2813 -1.9685
v  -51.6091 14.2310 -1.9685
v  -50.8392 16.6509 -1.9685
v  -49.6659 18.5941 -1.9685
v  -46.0511 15.7823 -1.9685
v  -45.3615 17.6389 -1.9685
v  -44.3890 18.9827 -1.9685
v  -43.2397 19.8137 -1.9685
v  -41.9843 20.2204 -1.9685
v  -46.4394 21.3806 -1.9685
v  -44.7162 22.0406 -1.9685
v  -42.5897 22.4439 -1.9685
v  -26.0960 0.5509 -1.9685
v  -27.3239 1.0199 -1.9685
v  -27.3239 6.8016 -1.9685
v  -22.1372 -0.3205 -1.9685
v  -25.5558 6.8016 -1.9685
v  -23.9714 2.4105 -1.9685
v  -19.4078 8.6624 -1.9685
v  -22.8561 10.3916 -1.9685
v  -24.7797 11.7423 -1.9685
v  -17.1363 7.4857 -1.9685
v  -26.2839 13.5227 -1.9685
v  -26.8773 15.0677 -1.9685
v  -26.9899 17.8509 -1.9685
v  -27.0717 16.5309 -1.9685
v  -16.1233 6.6569 -1.9685
v  -26.5908 19.0378 -1.9685
v  -25.8541 20.1224 -1.9685
v  -23.4700 21.7800 -1.9685
v  -24.7899 21.0535 -1.9685
v  -21.9045 22.2712 -1.9685
v  -20.4208 22.4656 -1.9685
v  -17.4739 22.4349 -1.9685
v  -19.0190 22.5065 -1.9685
v  -20.4816 19.9733 -1.9685
v  -15.1615 22.1689 -1.9685
v  -13.3606 21.7698 -1.9685
v  -12.5522 15.7443 -1.9685
v  -12.5522 21.5345 -1.9685
v  -14.2835 15.7443 -1.9685
v  -15.8487 19.9591 -1.9685
v  -16.9146 20.1439 -1.9685
v  -17.9591 20.2433 -1.9685
v  -19.2239 20.1936 -1.9685
v  -21.5120 19.5896 -1.9685
v  -22.3291 19.0212 -1.9685
v  -22.7199 18.3532 -1.9685
v  -22.8265 17.6498 -1.9685
v  -22.6702 16.9534 -1.9685
v  -22.1870 16.2286 -1.9685
v  -11.1590 6.0604 -1.9685
v  -19.6218 14.6867 -1.9685
v  -15.5787 12.7468 -1.9685
v  -13.5678 11.3470 -1.9685
v  -21.1709 15.4896 -1.9685
v  -12.3527 10.0609 -1.9685
v  -11.6066 8.6895 -1.9685
v  -11.2158 7.1618 -1.9685
v  -15.5298 5.7155 -1.9685
v  -15.4070 4.8355 -1.9685
v  -15.6219 3.9146 -1.9685
v  -16.2052 3.1677 -1.9685
v  -17.1260 2.6151 -1.9685
v  -17.5683 -0.3063 -1.9685
v  -11.2869 4.7387 -1.9685
v  -11.5995 3.6231 -1.9685
v  -12.7364 1.8609 -1.9685
v  -12.0472 2.7278 -1.9685
v  -13.5394 1.1574 -1.9685
v  -14.5484 0.5464 -1.9685
v  -15.8274 0.0632 -1.9685
v  -18.9576 2.0524 -1.9685
v  -21.0245 1.9296 -1.9685
v  -22.5491 2.0626 -1.9685
v  -19.5721 -0.4626 -1.9685
v  -24.1178 0.0052 -1.9685
v  -5.9764 19.5810 -1.9685
v  -8.8629 20.2714 -1.9685
v  -8.8629 22.0348 -1.9685
v  -0.8358 19.7333 -1.9685
v  1.1805 22.0348 -1.9685
v  0.5367 19.7333 -1.9685
v  -5.9764 2.4553 -1.9685
v  -0.8358 10.3584 -1.9685
v  -0.8358 8.0598 -1.9685
v  -0.8358 2.4805 -1.9685
v  2.9952 1.7561 -1.9685
v  2.9952 0.0084 -1.9685
v  -8.8602 1.7685 -1.9685
v  -8.8602 0.0052 -1.9685
v  1.6618 19.4846 -1.9685
v  2.8105 18.8806 -1.9685
v  3.5981 18.0931 -1.9685
v  9.1960 12.6520 -1.9685
v  2.4882 21.9156 -1.9685
v  4.1371 21.6401 -1.9685
v  8.1154 19.6632 -1.9685
v  6.6911 20.7314 -1.9685
v  9.1960 17.9196 -1.9685
v  9.6380 15.7831 -1.9685
v  9.5889 13.9904 -1.9685
v  4.1843 16.8910 -1.9685
v  4.4201 15.5502 -1.9685
v  4.3169 13.9736 -1.9685
v  3.9633 12.7948 -1.9685
v  3.3150 11.8076 -1.9685
v  2.4456 11.1004 -1.9685
v  1.3258 10.5847 -1.9685
v  3.2039 8.3668 -1.9685
v  8.1891 10.9576 -1.9685
v  6.8998 9.8156 -1.9685
v  5.0949 8.9070 -1.9685
v  -0.0555 10.3493 -1.9685
v  0.6009 8.0721 -1.9685
v  14.2568 19.5779 -1.9685
v  11.3621 20.2727 -1.9685
v  11.3621 22.0362 -1.9685
v  22.2823 20.2725 -1.9685
v  22.2823 22.0362 -1.9685
v  19.3873 19.5799 -1.9685
v  14.2568 2.4589 -1.9685
v  19.3873 2.4617 -1.9685
v  22.2810 0.0055 -1.9685
v  22.2810 1.7678 -1.9685
v  11.3717 1.7685 -1.9685
v  11.3717 0.0052 -1.9685
v  27.1928 19.6149 -1.9685
v  25.9047 15.3652 -1.9685
v  24.0127 15.3652 -1.9685
v  24.0127 22.0334 -1.9685
v  31.1240 19.6149 -1.9685
v  36.2586 19.6089 -1.9685
v  43.3650 22.0334 -1.9685
v  43.3650 15.3605 -1.9685
v  41.4503 15.3605 -1.9685
v  40.1569 19.6089 -1.9685
v  31.1240 2.4585 -1.9685
v  36.2586 2.4693 -1.9685
v  39.1543 1.7633 -1.9685
v  39.1543 0.0136 -1.9685
v  28.2292 1.7676 -1.9685
v  28.2292 0.0052 -1.9685
v  64.1433 2.4915 -1.9685
v  67.1639 1.7678 -1.9685
v  67.1639 0.0064 -1.9685
v  56.4957 1.7647 -1.9685
v  56.4957 0.0064 -1.9685
v  58.7198 2.3047 -1.9685
v  57.3790 6.0787 -1.9685
v  56.6002 8.2438 -1.9685
v  54.1418 14.9536 -1.9685
v  57.0948 22.1908 -1.9685
v  46.8338 2.4889 -1.9685
v  54.3559 22.1908 -1.9685
v  51.6186 8.2497 -1.9685
v  50.7736 6.0787 -1.9685
v  49.3517 2.3970 -1.9685
v  51.9916 0.0129 -1.9685
v  51.9916 1.7626 -1.9685
v  43.7539 1.7652 -1.9685
v  43.7539 0.0052 -1.9685
v  71.0297 19.5756 -1.9685
v  68.1380 20.2763 -1.9685
v  68.1380 22.0330 -1.9685
v  79.0594 20.2862 -1.9685
v  79.0594 22.0330 -1.9685
v  76.1639 19.5815 -1.9685
v  71.0297 2.4694 -1.9685
v  76.1639 2.4462 -1.9685
v  84.8419 0.0055 -1.9685
v  81.8926 2.4462 -1.9685
v  84.0243 6.8030 -1.9685
v  85.7865 6.8030 -1.9685
v  68.1305 1.7617 -1.9685
v  68.1305 0.0052 -1.9685
v  -78.1516 0.0052 1.9685
v  -67.2413 0.0052 1.9685
v  -67.2413 1.7634 1.9685
v  -75.2641 2.4654 1.9685
v  -62.2898 2.4576 1.9685
v  -65.1835 1.7686 1.9685
v  -65.1835 0.0175 1.9685
v  -54.2717 1.7785 1.9685
v  -54.2717 0.0175 1.9685
v  -57.1572 2.4730 1.9685
v  -62.2898 9.9295 1.9685
v  -57.1572 19.5824 1.9685
v  -54.2700 20.2868 1.9685
v  -54.2700 22.0330 1.9685
v  -65.1787 20.2709 1.9685
v  -65.1787 22.0330 1.9685
v  -62.2931 19.5764 1.9685
v  -62.2931 12.3509 1.9685
v  -70.1266 9.9295 1.9685
v  -70.1298 12.3509 1.9685
v  -70.1298 19.5911 1.9685
v  -67.2357 20.2775 1.9685
v  -67.2357 22.0461 1.9685
v  -78.1469 20.2765 1.9685
v  -78.1469 22.0461 1.9685
v  -75.2641 19.5816 1.9685
v  -70.1266 2.4744 1.9685
v  -78.1516 1.7625 1.9685
v  -40.8664 -0.4715 1.9685
v  -38.8865 -0.2881 1.9685
v  -36.7600 0.1885 1.9685
v  -32.8735 2.8283 1.9685
v  -34.7801 1.1784 1.9685
v  -31.4803 4.9182 1.9685
v  -30.6370 7.0081 1.9685
v  -30.2704 13.0211 1.9685
v  -30.2337 9.8679 1.9685
v  -30.8937 15.6609 1.9685
v  -32.0303 18.0075 1.9685
v  -36.0634 21.5639 1.9685
v  -33.8268 20.1707 1.9685
v  -35.9725 15.4641 1.9685
v  -38.3732 22.2606 1.9685
v  -40.4998 22.4806 1.9685
v  -39.7034 20.1674 1.9685
v  -40.9588 20.3265 1.9685
v  -38.5717 19.6900 1.9685
v  -37.6700 18.9473 1.9685
v  -36.6621 17.4444 1.9685
v  -35.6012 13.3776 1.9685
v  -35.4598 10.9906 1.9685
v  -35.5482 8.7451 1.9685
v  -35.9725 6.4288 1.9685
v  -36.5384 4.8197 1.9685
v  -37.4048 3.4052 1.9685
v  -38.4303 2.4681 1.9685
v  -39.2613 2.0437 1.9685
v  -40.0924 1.7962 1.9685
v  -40.8664 1.7161 1.9685
v  -42.5897 22.4439 1.9685
v  -44.7162 22.0406 1.9685
v  -48.2360 20.2440 1.9685
v  -46.4394 21.3806 1.9685
v  -49.6659 18.5941 1.9685
v  -50.8392 16.6509 1.9685
v  -51.8658 11.6645 1.9685
v  -51.6091 14.2310 1.9685
v  -51.8291 9.2813 1.9685
v  -51.2425 6.5315 1.9685
v  -48.6393 2.2050 1.9685
v  -50.2526 4.3316 1.9685
v  -46.1572 6.5702 1.9685
v  -46.6228 0.7751 1.9685
v  -44.6795 0.0052 1.9685
v  -42.7548 -0.3442 1.9685
v  -41.8979 1.7652 1.9685
v  -43.0275 2.0968 1.9685
v  -44.4067 3.0869 1.9685
v  -45.4499 4.5899 1.9685
v  -46.4754 8.6920 1.9685
v  -46.6169 11.1144 1.9685
v  -46.4754 13.6252 1.9685
v  -46.0511 15.7823 1.9685
v  -45.3615 17.6389 1.9685
v  -44.3890 18.9827 1.9685
v  -43.2397 19.8137 1.9685
v  -41.9843 20.2204 1.9685
v  -26.0960 0.5509 1.9685
v  -24.1178 0.0052 1.9685
v  -22.1372 -0.3205 1.9685
v  -27.3239 6.8016 1.9685
v  -19.5721 -0.4626 1.9685
v  -17.5683 -0.3063 1.9685
v  -14.5484 0.5464 1.9685
v  -15.8274 0.0632 1.9685
v  -13.5394 1.1574 1.9685
v  -12.7364 1.8609 1.9685
v  -11.5995 3.6231 1.9685
v  -12.0472 2.7278 1.9685
v  -17.1260 2.6151 1.9685
v  -11.2869 4.7387 1.9685
v  -11.1590 6.0604 1.9685
v  -11.6066 8.6895 1.9685
v  -11.2158 7.1618 1.9685
v  -12.3527 10.0609 1.9685
v  -13.5678 11.3470 1.9685
v  -19.6218 14.6867 1.9685
v  -15.5787 12.7468 1.9685
v  -21.1709 15.4896 1.9685
v  -22.1870 16.2286 1.9685
v  -25.8541 20.1224 1.9685
v  -15.8487 19.9591 1.9685
v  -14.2835 15.7443 1.9685
v  -12.5522 15.7443 1.9685
v  -13.3606 21.7698 1.9685
v  -12.5522 21.5345 1.9685
v  -16.9146 20.1439 1.9685
v  -17.9591 20.2433 1.9685
v  -19.2239 20.1936 1.9685
v  -20.4816 19.9733 1.9685
v  -15.1615 22.1689 1.9685
v  -17.4739 22.4349 1.9685
v  -20.4208 22.4656 1.9685
v  -19.0190 22.5065 1.9685
v  -21.9045 22.2712 1.9685
v  -23.4700 21.7800 1.9685
v  -24.7899 21.0535 1.9685
v  -21.5120 19.5896 1.9685
v  -22.3291 19.0212 1.9685
v  -22.7199 18.3532 1.9685
v  -22.8265 17.6498 1.9685
v  -22.6702 16.9534 1.9685
v  -26.5908 19.0378 1.9685
v  -26.9899 17.8509 1.9685
v  -26.8773 15.0677 1.9685
v  -27.0717 16.5309 1.9685
v  -26.2839 13.5227 1.9685
v  -24.7797 11.7423 1.9685
v  -19.4078 8.6624 1.9685
v  -22.8561 10.3916 1.9685
v  -17.1363 7.4857 1.9685
v  -16.1233 6.6569 1.9685
v  -15.5298 5.7155 1.9685
v  -15.4070 4.8355 1.9685
v  -15.6219 3.9146 1.9685
v  -16.2052 3.1677 1.9685
v  -18.9576 2.0524 1.9685
v  -21.0245 1.9296 1.9685
v  -22.5491 2.0626 1.9685
v  -23.9714 2.4105 1.9685
v  -25.5558 6.8016 1.9685
v  -27.3239 1.0199 1.9685
v  -8.8602 0.0052 1.9685
v  2.9952 0.0084 1.9685
v  2.9952 1.7561 1.9685
v  -5.9764 2.4553 1.9685
v  -0.8358 19.7333 1.9685
v  0.5367 19.7333 1.9685
v  1.1805 22.0348 1.9685
v  -8.8629 20.2714 1.9685
v  -8.8629 22.0348 1.9685
v  -5.9764 19.5810 1.9685
v  -0.8358 10.3584 1.9685
v  -0.8358 8.0598 1.9685
v  -0.8358 2.4805 1.9685
v  -8.8602 1.7685 1.9685
v  0.6009 8.0721 1.9685
v  3.2039 8.3668 1.9685
v  6.8998 9.8156 1.9685
v  5.0949 8.9070 1.9685
v  8.1891 10.9576 1.9685
v  9.1960 12.6520 1.9685
v  9.6380 15.7831 1.9685
v  9.5889 13.9904 1.9685
v  3.3150 11.8076 1.9685
v  9.1960 17.9196 1.9685
v  8.1154 19.6632 1.9685
v  4.1371 21.6401 1.9685
v  6.6911 20.7314 1.9685
v  2.4882 21.9156 1.9685
v  1.6618 19.4846 1.9685
v  2.8105 18.8806 1.9685
v  3.5981 18.0931 1.9685
v  4.1843 16.8910 1.9685
v  4.4201 15.5502 1.9685
v  4.3169 13.9736 1.9685
v  3.9633 12.7948 1.9685
v  2.4456 11.1004 1.9685
v  1.3258 10.5847 1.9685
v  -0.0555 10.3493 1.9685
v  11.3717 0.0052 1.9685
v  22.2810 0.0055 1.9685
v  22.2810 1.7678 1.9685
v  14.2568 2.4589 1.9685
v  19.3873 19.5799 1.9685
v  22.2823 20.2725 1.9685
v  22.2823 22.0362 1.9685
v  11.3621 20.2727 1.9685
v  11.3621 22.0362 1.9685
v  14.2568 19.5779 1.9685
v  19.3873 2.4617 1.9685
v  11.3717 1.7685 1.9685
v  28.2292 0.0052 1.9685
v  39.1543 0.0136 1.9685
v  39.1543 1.7633 1.9685
v  31.1240 2.4585 1.9685
v  40.1569 19.6089 1.9685
v  41.4503 15.3605 1.9685
v  43.3650 15.3605 1.9685
v  43.3650 22.0334 1.9685
v  36.2586 19.6089 1.9685
v  31.1240 19.6149 1.9685
v  24.0127 22.0334 1.9685
v  24.0127 15.3652 1.9685
v  25.9047 15.3652 1.9685
v  27.1928 19.6149 1.9685
v  36.2586 2.4693 1.9685
v  28.2292 1.7676 1.9685
v  64.1433 2.4915 1.9685
v  57.0948 22.1908 1.9685
v  54.1418 14.9536 1.9685
v  56.6002 8.2438 1.9685
v  57.3790 6.0787 1.9685
v  58.7198 2.3047 1.9685
v  56.4957 1.7647 1.9685
v  56.4957 0.0064 1.9685
v  67.1639 0.0064 1.9685
v  67.1639 1.7678 1.9685
v  43.7539 0.0052 1.9685
v  51.9916 0.0129 1.9685
v  51.9916 1.7626 1.9685
v  46.8338 2.4889 1.9685
v  50.7736 6.0787 1.9685
v  51.6186 8.2497 1.9685
v  49.3517 2.3970 1.9685
v  54.3559 22.1908 1.9685
v  43.7539 1.7652 1.9685
v  84.8419 0.0055 1.9685
v  85.7865 6.8030 1.9685
v  84.0243 6.8030 1.9685
v  81.8926 2.4462 1.9685
v  76.1639 2.4462 1.9685
v  71.0297 2.4694 1.9685
v  76.1639 19.5815 1.9685
v  79.0594 20.2862 1.9685
v  79.0594 22.0330 1.9685
v  68.1380 20.2763 1.9685
v  68.1380 22.0330 1.9685
v  71.0297 19.5756 1.9685
v  68.1305 0.0052 1.9685
v  68.1305 1.7617 1.9685
# 502 vertices

vn 0.0000 0.0000 -1.0000
vn 0.0000 -0.0000 -1.0000
vn -0.0000 0.0000 -1.0000
vn -0.0000 -0.0000 -1.0000
vn 0.0000 -0.0000 1.0000
vn -0.0000 -0.0000 1.0000
vn 0.0000 0.0000 1.0000
vn -0.0000 0.0000 1.0000
vn 0.5859 -0.8103 -0.0000
vn 0.2327 -0.9726 -0.0000
vn 0.5287 0.8488 0.0000
vn 0.1858 0.9826 0.0000
vn 0.3534 -0.9355 -0.0000
vn 1.0000 0.0000 -0.0000
vn -0.8982 0.4395 0.0000
vn 0.0000 -1.0000 -0.0000
vn -0.2937 0.9559 0.0000
vn 0.3082 -0.9513 -0.0000
vn 1.0000 0.0000 0.0000
vn 0.7693 0.6389 0.0000
vn 0.2076 -0.9782 -0.0000
vn 0.0000 1.0000 0.0000
vn -0.9374 -0.3481 -0.0000
vn -0.5145 0.8575 0.0000
vn 0.2332 0.9724 0.0000
vn 0.1029 -0.9947 -0.0000
vn 0.0003 -1.0000 -0.0000
vn 0.9000 0.4359 0.0000
vn 0.0778 -0.9970 -0.0000
vn -1.0000 0.0000 -0.0000
vn 0.9905 -0.1376 -0.0000
vn -0.1708 -0.9853 -0.0000
vn -0.7882 0.6154 0.0000
vn -0.1258 -0.9921 -0.0000
vn 0.9732 0.2298 0.0000
vn -0.2316 0.9728 0.0000
vn -0.0553 -0.9985 -0.0000
vn -0.0948 -0.9955 -0.0000
vn -0.2360 0.9718 0.0000
vn -0.9738 0.2272 0.0000
vn -0.3887 -0.9214 -0.0000
vn 0.9999 0.0116 0.0000
vn 1.0000 -0.0000 0.0000
vn -0.1623 -0.9867 -0.0000
vn 0.0393 -0.9992 -0.0000
vn -0.9423 -0.3348 -0.0000
vn -0.9904 -0.1382 -0.0000
vn -0.6357 -0.7719 -0.0000
vn 0.9902 -0.1396 -0.0000
vn 0.1725 -0.9850 -0.0000
vn -0.8459 -0.5333 -0.0000
vn -0.2321 0.9727 0.0000
vn -0.8305 -0.5570 -0.0000
vn 0.9273 -0.3742 -0.0000
vn -0.2158 -0.9764 -0.0000
vn -0.2317 0.9728 0.0000
vn 0.3490 -0.9371 -0.0000
vn 0.9328 -0.3603 -0.0000
vn -0.6332 -0.7740 -0.0000
vn -0.9444 -0.3288 -0.0000
vn 0.8320 -0.5547 0.0000
vn -0.4654 -0.8851 -0.0000
vn 0.2393 0.9710 0.0000
vn 0.5711 -0.8209 -0.0000
vn 0.2337 0.9723 0.0000
vn -0.4600 -0.8879 -0.0000
vn -0.9845 -0.1752 -0.0000
vn 0.6544 -0.7562 -0.0000
vn -0.7071 -0.7071 -0.0000
vn -0.2326 -0.9726 -0.0000
vn -0.2365 0.9716 0.0000
vn 0.8631 -0.5050 -0.0000
vn -0.4483 -0.8939 -0.0000
vn 0.9570 -0.2901 -0.0000
vn -0.9982 -0.0592 -0.0000
vn 0.4472 -0.8944 -0.0000
vn -0.8988 -0.4383 -0.0000
vn -0.2343 -0.9722 -0.0000
vn 0.9887 -0.1498 -0.0000
vn 0.0009 -1.0000 -0.0000
vn -0.5746 -0.8184 -0.0000
vn -0.9992 0.0393 0.0000
vn 0.2187 -0.9758 -0.0000
vn -0.9849 -0.1732 -0.0000
vn -0.3684 -0.9297 -0.0000
vn 0.9757 0.2190 0.0000
vn -0.7639 -0.6454 -0.0000
vn -0.9836 0.1802 0.0000
vn 0.0922 -0.9957 -0.0000
vn -0.9979 0.0653 0.0000
vn -0.5784 -0.8157 -0.0000
vn 0.0908 0.9959 0.0000
vn 0.8320 0.5547 0.0000
vn 0.9359 -0.3523 -0.0000
vn -0.9335 -0.3586 -0.0000
vn -0.9434 0.3317 0.0000
vn -0.0673 -0.9977 -0.0000
vn -0.9578 0.2873 0.0000
vn -0.7967 -0.6044 -0.0000
vn 0.1648 0.9863 0.0000
vn 0.5882 0.8087 0.0000
vn -0.9390 -0.3440 -0.0000
vn -0.9913 -0.1317 -0.0000
vn -0.8528 0.5223 0.0000
vn -0.1786 -0.9839 -0.0000
vn -0.8359 0.5489 0.0000
vn 0.3352 0.9422 0.0000
vn -0.9119 -0.4104 -0.0000
vn 0.4602 0.8878 0.0000
vn 0.0012 1.0000 0.0000
vn -0.9981 0.0619 0.0000
vn -0.6746 0.7382 0.0000
vn -0.6311 0.7757 0.0000
vn 0.6000 0.8000 0.0000
vn -0.9780 -0.2086 -0.0000
vn 0.4326 0.9016 0.0000
vn -0.9479 0.3187 0.0000
vn -0.9566 -0.2913 -0.0000
vn -0.4548 0.8906 0.0000
vn -0.4183 0.9083 0.0000
vn 0.0476 0.9989 0.0000
vn 0.8500 0.5268 0.0000
vn -0.9999 -0.0154 -0.0000
vn 0.5713 0.8207 0.0000
vn 0.2307 -0.9730 -0.0000
vn -0.8272 0.5619 0.0000
vn -0.2855 0.9584 0.0000
vn -0.1680 0.9858 0.0000
vn 0.2816 0.9595 0.0000
vn -0.9950 0.0995 0.0000
vn 0.9793 0.2026 0.0000
vn 0.7269 0.6867 0.0000
vn -0.6585 0.7526 0.0000
vn -0.1029 0.9947 0.0000
vn 0.5832 0.8123 0.0000
vn 0.0116 0.9999 0.0000
vn -0.9529 0.3032 0.0000
vn 0.9996 -0.0274 -0.0000
vn 0.8784 0.4779 0.0000
vn -0.2372 0.9715 0.0000
vn -0.4822 0.8761 0.0000
vn 0.2369 0.9715 0.0000
vn 0.8215 0.5702 0.0000
vn -0.8561 0.5169 0.0000
vn 0.9595 -0.2817 -0.0000
vn 0.9688 0.2478 0.0000
vn -0.2993 0.9541 0.0000
vn -0.2659 -0.9640 -0.0000
vn 0.9417 0.3363 0.0000
vn -0.7557 0.6549 0.0000
vn 0.8597 -0.5108 -0.0000
vn -0.2340 -0.9722 -0.0000
vn 0.9987 0.0515 0.0000
vn -0.2355 -0.9719 -0.0000
vn -0.1299 0.9915 0.0000
vn 0.0008 -1.0000 -0.0000
vn -0.3568 -0.9342 -0.0000
vn 0.9889 0.1483 0.0000
vn -0.2327 0.9725 0.0000
vn -0.5346 0.8451 0.0000
vn 0.6630 -0.7486 -0.0000
vn 0.9954 -0.0963 -0.0000
vn -0.0292 0.9996 0.0000
vn 0.9983 0.0583 0.0000
vn -0.3576 0.9339 0.0000
vn 0.4496 -0.8932 -0.0000
vn 0.9629 -0.2699 -0.0000
vn 0.0463 0.9989 0.0000
vn -0.2288 0.9735 0.0000
vn 0.9984 -0.0562 -0.0000
vn -0.2334 -0.9724 -0.0000
vn -0.1863 0.9825 0.0000
vn 0.2747 -0.9615 -0.0000
vn 0.8944 -0.4472 -0.0000
vn 0.1143 0.9934 0.0000
vn -0.9342 0.3567 -0.0000
vn 0.9406 0.3394 0.0000
vn 0.9812 -0.1930 -0.0000
vn -0.0175 0.9998 0.0000
vn 0.1125 -0.9937 -0.0000
vn 0.2370 -0.9715 -0.0000
vn 0.7827 -0.6223 -0.0000
vn 0.2365 -0.9716 -0.0000
vn 0.2163 0.9763 0.0000
vn 0.2376 0.9714 0.0000
vn 0.9374 -0.3482 -0.0000
vn 0.1029 0.9947 0.0000
vn 0.0085 -1.0000 -0.0000
vn 0.6590 -0.7522 -0.0000
vn 0.2795 0.9601 0.0000
vn 0.9415 0.3369 0.0000
vn 0.0869 0.9962 0.0000
vn 0.8101 -0.5863 -0.0000
vn 0.2887 0.9574 0.0000
vn 0.2340 0.9722 0.0000
vn 0.5180 -0.8554 -0.0000
vn 0.2330 0.9725 0.0000
vn -0.0593 0.9982 0.0000
# 198 vertex normals

g SPW_Urban_Text_Hospital
usemtl SPW_Urban_Text
s off
f 1//1 2//1 3//1 4//1 
f 3//2 5//2 4//2 
f 1//1 4//1 6//1 7//1 
f 7//1 6//1 8//1 9//1 
f 10//1 11//1 12//1 13//1 
f 12//2 14//2 13//2 
f 10//1 13//1 15//1 16//1 
f 17//2 18//2 19//2 20//2 
f 19//2 21//2 20//2 
f 17//3 20//3 22//3 15//3 
f 15//3 22//3 23//3 16//3 
f 8//2 16//2 23//2 9//2 
f 7//1 9//1 24//1 25//1 
f 24//4 26//4 25//4 
f 27//1 7//1 25//1 28//1 
s 1
f 29//3 30//3 31//1 32//1 
f 33//1 32//1 31//1 34//1 
f 31//1 35//1 36//1 34//1 
f 36//1 37//4 34//1 
f 38//1 33//1 34//1 39//1 
f 40//1 39//1 34//1 41//1 
f 42//2 41//1 34//1 43//2 
f 34//1 44//3 45//3 46//3 
f 45//3 47//1 46//3 
f 46//3 48//3 49//1 50//2 
f 49//1 51//3 50//2 
f 34//1 46//3 50//2 43//2 
f 52//2 43//2 50//2 53//2 
f 54//2 53//2 50//2 55//2 
f 56//4 55//2 50//2 57//4 
f 57//4 50//2 58//1 59//1 
f 60//3 57//4 59//1 61//1 
f 62//1 61//1 59//1 63//1 
f 59//1 64//4 65//1 63//1 
f 65//1 66//4 63//1 
f 67//1 62//1 63//1 68//1 
f 69//1 68//1 63//1 70//1 
f 71//1 70//1 63//1 72//3 
f 63//1 73//4 74//3 75//3 
f 74//3 76//1 75//3 
f 75//3 77//3 78//2 72//3 
f 78//2 79//2 72//3 
f 63//1 75//3 72//3 
f 80//3 71//1 72//3 81//3 
f 82//4 81//3 72//3 83//3 
f 84//4 83//3 72//3 30//3 
f 72//3 85//3 86//3 30//3 
f 30//3 86//3 87//3 31//1 
s off
f 88//1 89//1 90//1 91//1 
f 90//4 92//4 93//4 91//4 
f 94//1 95//1 96//1 97//1 
f 96//1 98//1 99//1 100//1 
f 99//1 101//1 100//1 
f 97//1 96//1 100//1 102//1 
f 100//1 103//1 104//1 105//1 
f 104//2 106//2 105//2 
f 105//2 107//2 108//2 109//2 
f 108//2 110//2 109//2 
f 100//2 105//2 109//2 111//2 
f 109//1 112//1 113//1 114//1 
f 113//3 115//3 114//3 
f 114//4 116//4 117//4 109//4 
f 109//4 117//4 118//4 119//4 
f 109//2 119//2 120//2 111//2 
f 100//1 111//1 121//1 122//1 
f 100//2 122//2 123//2 124//2 
f 100//1 124//1 125//1 102//1 
f 102//1 125//1 126//1 127//1 
f 128//4 129//4 130//4 131//4 
f 130//1 132//1 133//1 127//1 
f 133//3 134//3 127//3 
f 131//4 130//4 127//4 126//4 
f 135//1 102//1 127//1 136//1 
f 137//1 136//1 127//1 138//1 
f 139//2 138//2 127//2 140//2 
f 127//2 141//2 142//2 143//2 
f 142//2 144//2 143//2 
f 143//2 145//2 146//2 140//2 
f 146//1 147//1 140//1 
f 127//1 143//1 140//1 
f 148//2 139//2 140//2 149//2 
f 150//4 149//4 140//4 93//4 
f 140//4 151//4 91//4 93//4 
f 88//1 91//1 152//1 
s 1
f 153//3 154//4 155//3 156//3 
f 155//3 157//3 158//3 156//3 
f 159//3 153//3 156//3 160//1 
f 159//3 160//1 161//3 162//3 
f 162//3 163//4 164//3 159//3 
f 165//3 159//3 164//3 166//4 
f 167//3 158//3 157//3 168//1 
f 169//3 168//1 157//3 170//1 
f 157//3 171//1 172//4 173//3 
f 172//4 174//4 173//3 
f 173//3 175//1 176//1 170//1 
f 176//1 177//2 170//1 
f 157//3 173//3 170//1 
f 178//1 169//3 170//1 179//3 
f 180//3 179//3 170//1 181//4 
f 182//2 181//4 170//1 183//2 
f 184//3 183//2 170//1 185//3 
f 170//1 186//2 187//2 185//3 
f 187//2 188//3 185//3 
f 189//1 184//3 185//3 160//1 
f 160//1 185//3 190//4 161//3 
s off
f 191//3 192//3 193//3 194//3 
f 193//2 195//2 194//2 
f 191//1 194//1 196//1 197//1 
f 197//1 196//1 198//1 199//1 
f 198//4 200//4 199//4 
f 201//1 197//1 199//1 202//1 
f 203//1 204//1 205//1 206//1 
f 207//1 203//1 206//1 208//1 
f 209//3 210//3 211//3 212//3 
f 206//2 209//2 212//2 208//2 
f 213//1 207//1 208//1 214//1 
f 214//1 215//1 216//1 213//1 
f 217//2 213//2 216//2 218//2 
s 1
f 219//1 220//4 221//3 222//1 
f 221//3 223//2 222//1 
f 219//1 222//1 224//1 225//3 
f 219//1 225//3 226//3 227//2 
f 219//1 227//2 228//1 
f 229//2 230//1 228//1 227//2 
f 227//2 231//3 232//2 233//1 
f 229//2 227//2 233//1 234//1 
f 233//1 235//4 234//1 
f 236//2 229//2 234//1 237//2 
f 225//3 232//2 231//3 226//3 
s off
f 238//1 239//1 240//1 241//1 
f 240//2 242//2 241//2 
f 238//1 241//1 243//1 244//1 
f 244//3 243//3 245//3 246//3 
f 247//3 248//3 249//3 246//3 
f 245//1 247//1 246//1 
f 250//1 244//1 246//1 251//1 
f 252//5 253//5 254//5 255//5 
f 256//6 257//6 258//6 259//6 
f 258//7 260//7 259//7 
f 256//6 259//6 261//6 262//6 
f 263//6 264//6 265//6 266//6 
f 265//7 267//7 266//7 
f 263//6 266//6 268//6 261//6 
f 261//5 268//5 269//5 262//5 
f 270//5 262//5 269//5 271//5 
f 272//6 273//6 274//6 275//6 
f 274//7 276//7 275//7 
f 272//6 275//6 277//6 271//6 
f 270//6 271//6 277//6 278//6 
f 278//6 277//6 255//6 254//6 
f 279//8 252//8 255//8 
s 1
f 280//7 281//5 282//6 283//8 
f 282//6 284//5 283//8 
f 283//8 285//5 286//5 287//5 
f 286//5 288//6 287//5 
f 287//5 289//5 290//6 291//6 
f 290//6 292//7 291//6 
f 283//8 287//5 291//6 293//6 
f 291//6 294//6 295//5 296//5 
f 295//5 297//5 296//5 
f 291//6 296//5 298//6 299//6 
f 291//6 299//6 300//6 293//6 
f 283//8 293//6 301//6 302//6 
f 283//8 302//6 303//6 304//8 
f 283//8 304//8 305//8 306//8 
f 280//7 283//8 306//8 307//8 
f 280//7 307//8 308//8 309//7 
f 310//5 280//7 309//7 
f 295//5 311//8 312//5 313//6 
f 312//5 314//5 313//6 
f 313//6 315//8 316//8 317//5 
f 316//8 318//5 317//5 
f 317//5 319//6 320//5 321//6 
f 320//5 322//5 321//6 
f 313//6 317//5 321//6 323//6 
f 321//6 324//7 325//6 280//7 
f 325//6 326//7 280//7 
f 280//7 310//5 327//5 328//6 
f 321//6 280//7 328//6 329//6 
f 321//6 329//6 330//6 323//6 
f 313//6 323//6 331//7 332//5 
f 313//6 332//5 333//5 334//5 
f 313//6 334//5 335//5 336//5 
f 295//5 313//6 336//5 337//5 
f 295//5 337//5 338//5 297//5 
s off
f 339//6 340//6 341//6 342//6 
f 341//5 343//5 344//5 345//5 
f 344//5 346//5 345//5 
f 345//5 347//5 348//5 349//5 
f 348//8 350//8 349//8 
f 341//7 345//7 349//7 351//7 
f 349//7 352//7 353//7 354//7 
f 353//5 355//5 354//5 
f 354//6 356//6 357//6 358//6 
f 357//7 359//7 358//7 
f 349//7 354//7 358//7 360//7 
f 349//6 360//6 361//6 362//6 
f 363//6 364//6 365//6 366//6 
f 365//5 367//5 366//5 
f 368//5 363//5 366//5 369//5 
f 370//6 369//6 366//6 371//6 
f 366//6 372//6 373//6 374//6 
f 373//6 375//6 374//6 
f 374//8 376//8 377//8 362//8 
f 377//8 378//8 362//8 
f 366//8 374//8 362//8 371//8 
f 379//6 371//6 362//6 380//6 
f 381//8 380//8 362//8 382//8 
f 383//6 382//6 362//6 361//6 
f 362//8 384//8 385//8 386//8 
f 385//6 387//6 386//6 
f 386//6 388//6 389//6 390//6 
f 389//6 391//6 390//6 
f 362//6 386//6 390//6 392//6 
f 362//6 392//6 393//6 349//6 
f 349//6 393//6 394//6 395//6 
f 349//6 395//6 396//6 397//6 
f 349//8 397//8 351//8 
f 341//8 351//8 398//8 399//8 
f 341//7 399//7 400//7 401//7 
f 401//7 402//7 342//7 341//7 
f 339//6 342//6 403//6 
s 1
f 404//6 405//7 406//7 407//5 
f 408//5 409//5 410//5 411//5 
f 410//5 412//7 411//5 
f 408//5 411//5 413//7 414//6 
f 415//6 414//6 413//7 416//7 
f 416//7 413//7 407//5 406//7 
f 417//8 404//6 407//5 
f 415//6 418//8 419//5 420//5 
f 419//5 421//5 420//5 
f 420//5 422//8 423//5 424//6 
f 423//5 425//8 424//6 
f 415//6 420//5 424//6 426//5 
f 424//6 427//6 428//5 429//5 
f 428//5 430//7 429//5 
f 429//5 431//6 410//5 432//5 
f 410//5 409//5 432//5 
f 424//6 429//5 432//5 433//6 
f 424//6 433//6 434//7 435//6 
f 424//6 435//6 436//6 437//5 
f 424//6 437//5 438//8 426//5 
f 415//6 426//5 439//5 440//5 
f 415//6 440//5 441//6 414//6 
s off
f 442//5 443//5 444//5 445//5 
f 446//5 447//5 448//5 449//5 
f 448//7 450//7 449//7 
f 446//6 449//6 451//6 452//6 
f 452//6 451//6 445//6 444//6 
f 453//8 442//8 445//8 
f 454//6 455//6 456//6 457//6 
f 458//5 459//5 460//5 461//5 
f 462//8 458//8 461//8 463//8 
f 464//6 465//6 466//6 467//6 
f 461//5 464//5 467//5 463//5 
f 468//6 462//6 463//6 457//6 
f 456//6 468//6 457//6 
f 469//8 454//8 457//8 
s 1
f 470//5 471//5 472//6 473//5 
f 470//5 473//5 474//6 475//6 
f 475//6 476//8 477//6 470//5 
f 470//5 477//6 478//5 479//7 
f 480//8 481//8 482//6 483//8 
f 484//8 485//8 472//6 486//6 
f 472//6 471//5 487//6 483//8 
f 486//6 472//6 483//8 482//6 
f 488//8 480//8 483//8 
f 474//6 473//5 485//8 484//8 
s off
f 489//5 490//5 491//5 492//5 
f 489//5 492//5 493//5 494//5 
f 495//6 496//6 497//6 498//6 
f 497//7 499//7 498//7 
f 495//6 498//6 500//6 493//6 
f 493//5 500//5 494//5 
f 501//6 489//6 494//6 502//6 
f 82//9 83//9 337//9 336//9 
f 196//10 194//10 447//10 446//10 
f 37//11 36//11 291//11 292//11 
f 163//12 162//12 416//12 406//12 
f 147//13 146//13 345//13 346//13 
f 19//14 18//14 259//14 260//14 
f 248//15 247//15 492//15 491//15 
f 116//16 114//16 365//16 364//16 
f 221//14 220//14 479//14 478//14 
f 139//17 148//17 398//17 351//17 
f 83//18 84//18 338//18 337//18 
f 198//14 196//14 446//14 452//14 
f 164//19 163//19 406//19 405//19 
f 34//20 37//20 292//20 290//20 
f 140//21 147//21 346//21 344//21 
f 21//16 19//16 260//16 258//16 
f 249//22 248//22 491//22 490//22 
f 117//23 116//23 364//23 363//23 
f 223//16 221//16 478//16 477//16 
f 138//24 139//24 351//24 397//24 
f 200//25 198//25 452//25 444//25 
f 84//26 30//26 297//26 338//26 
f 166//27 164//27 405//27 404//27 
f 44//28 34//28 290//28 289//28 
f 151//29 140//29 344//29 343//29 
f 20//30 21//30 258//30 257//30 
f 246//31 249//31 490//31 489//31 
f 118//32 117//32 363//32 368//32 
f 222//30 223//30 477//30 476//30 
f 137//33 138//33 397//33 396//33 
f 199//14 200//14 444//14 443//14 
f 30//34 29//34 296//34 297//34 
f 45//35 44//35 289//35 287//35 
f 22//36 20//36 257//36 256//36 
f 91//37 151//37 343//37 341//37 
f 251//16 246//16 489//16 501//16 
f 119//38 118//38 368//38 369//38 
f 224//39 222//39 476//39 475//39 
f 136//40 137//40 396//40 395//40 
f 202//16 199//16 443//16 442//16 
f 29//41 32//41 298//41 296//41 
f 47//42 45//42 287//42 288//42 
f 160//43 156//43 408//43 414//43 
f 23//30 22//30 256//30 262//30 
f 152//44 91//44 341//44 340//44 
f 120//45 119//45 369//45 370//45 
f 225//46 224//46 475//46 474//46 
f 135//47 136//47 395//47 394//47 
f 217//30 218//30 454//30 469//30 
f 32//48 33//48 299//48 298//48 
f 46//49 47//49 288//49 286//49 
f 156//16 158//16 409//16 408//16 
f 9//16 23//16 262//16 270//16 
f 165//30 166//30 404//30 417//30 
f 111//50 120//50 370//50 371//50 
f 232//16 225//16 474//16 484//16 
f 102//51 135//51 394//51 393//51 
f 213//52 217//52 469//52 457//52 
f 33//53 38//53 300//53 299//53 
f 48//54 46//54 286//54 285//54 
f 158//55 167//55 432//55 409//55 
f 24//14 9//14 270//14 278//14 
f 159//56 165//56 417//56 407//56 
f 121//57 111//57 371//57 379//57 
f 233//58 232//58 484//58 486//58 
f 97//59 102//59 393//59 392//59 
f 207//30 213//30 457//30 463//30 
f 38//60 39//60 293//60 300//60 
f 49//61 48//61 285//61 283//61 
f 167//62 168//62 433//62 432//62 
f 26//63 24//63 278//63 254//63 
f 153//30 159//30 407//30 413//30 
f 122//64 121//64 379//64 380//64 
f 235//65 233//65 486//65 482//65 
f 94//66 97//66 392//66 390//66 
f 203//16 207//16 463//16 467//16 
f 39//67 40//67 301//67 293//67 
f 51//68 49//68 283//68 284//68 
f 168//69 169//69 434//69 433//69 
f 25//14 26//14 254//14 253//14 
f 154//70 153//70 413//70 411//70 
f 7//71 27//71 279//71 255//71 
f 123//72 122//72 380//72 381//72 
f 234//14 235//14 482//14 481//14 
f 95//73 94//73 390//73 391//73 
f 204//74 203//74 467//74 466//74 
f 40//75 41//75 302//75 301//75 
f 50//76 51//76 284//76 282//76 
f 169//77 178//77 435//77 434//77 
f 28//16 25//16 253//16 252//16 
f 155//30 154//30 411//30 412//30 
f 2//78 1//78 277//78 275//78 
f 124//79 123//79 381//79 382//79 
f 237//80 234//80 481//80 480//80 
f 96//81 95//81 391//81 389//81 
f 205//16 204//16 466//16 465//16 
f 41//82 42//82 303//82 302//82 
f 58//83 50//83 282//83 281//83 
f 178//84 179//84 436//84 435//84 
f 66//85 65//85 325//85 324//85 
f 157//22 155//22 412//22 410//22 
f 1//30 7//30 255//30 277//30 
f 125//86 124//86 382//86 383//86 
f 98//87 96//87 389//87 388//87 
f 206//30 205//30 465//30 464//30 
f 42//88 43//88 304//88 303//88 
f 59//89 58//89 281//89 280//89 
f 179//90 180//90 437//90 436//90 
f 63//91 66//91 324//91 321//91 
f 171//92 157//92 410//92 431//92 
f 27//30 28//30 252//30 279//30 
f 126//93 125//93 383//93 361//93 
f 231//94 227//94 472//94 485//94 
f 99//95 98//95 388//95 386//95 
f 209//22 206//22 464//22 461//22 
f 43//96 52//96 305//96 304//96 
f 64//97 59//97 280//97 326//97 
f 180//98 181//98 438//98 437//98 
f 73//99 63//99 321//99 322//99 
f 172//100 171//100 431//100 429//100 
f 3//30 2//30 275//30 276//30 
f 131//101 126//101 361//101 360//101 
f 227//102 226//102 473//102 472//102 
f 101//103 99//103 386//103 387//103 
f 210//14 209//14 461//14 460//14 
f 52//104 53//104 306//104 305//104 
f 65//105 64//105 326//105 325//105 
f 181//106 182//106 426//106 438//106 
f 174//107 172//107 429//107 430//107 
f 74//108 73//108 322//108 320//108 
f 128//109 131//109 360//109 358//109 
f 5//22 3//22 276//22 274//22 
f 226//110 231//110 485//110 473//110 
f 100//111 101//111 387//111 385//111 
f 211//16 210//16 460//16 459//16 
f 53//112 54//112 307//112 306//112 
f 182//113 183//113 439//113 426//113 
f 173//114 174//114 430//114 428//114 
f 76//115 74//115 320//115 319//115 
f 129//116 128//116 358//116 359//116 
f 4//14 5//14 274//14 273//14 
f 103//117 100//117 385//117 384//117 
f 212//118 211//118 459//118 458//118 
f 54//119 55//119 308//119 307//119 
f 183//120 184//120 440//120 439//120 
f 57//121 60//121 327//121 310//121 
f 175//122 173//122 428//122 427//122 
f 75//123 76//123 319//123 317//123 
f 130//124 129//124 359//124 357//124 
f 6//125 4//125 273//125 272//125 
f 104//126 103//126 384//126 362//126 
f 208//16 212//16 458//16 462//16 
f 55//127 56//127 309//127 308//127 
f 184//128 189//128 441//128 440//128 
f 60//129 61//129 328//129 327//129 
f 77//130 75//130 317//130 318//130 
f 176//131 175//131 427//131 424//131 
f 8//14 6//14 272//14 271//14 
f 132//132 130//132 357//132 356//132 
f 250//30 251//30 501//30 502//30 
f 106//133 104//133 362//133 378//133 
f 214//14 208//14 462//14 468//14 
f 56//134 57//134 310//134 309//134 
f 61//135 62//135 329//135 328//135 
f 189//136 160//136 414//136 441//136 
f 78//137 77//137 318//137 316//137 
f 177//138 176//138 424//138 425//138 
f 16//22 8//22 271//22 269//22 
f 133//139 132//139 356//139 354//139 
f 244//140 250//140 502//140 494//140 
f 105//141 106//141 378//141 377//141 
f 215//142 214//142 468//142 456//142 
f 62//143 67//143 330//143 329//143 
f 79//144 78//144 316//144 315//144 
f 170//145 177//145 425//145 423//145 
f 10//30 16//30 269//30 268//30 
f 134//146 133//146 354//146 355//146 
f 238//30 244//30 494//30 500//30 
f 107//147 105//147 377//147 376//147 
f 216//14 215//14 456//14 455//14 
f 88//148 152//148 340//148 339//148 
f 67//149 68//149 323//149 330//149 
f 201//30 202//30 442//30 453//30 
f 72//150 79//150 315//150 313//150 
f 186//151 170//151 423//151 422//151 
f 11//152 10//152 268//152 266//152 
f 127//153 134//153 355//153 353//153 
f 239//154 238//154 500//154 498//154 
f 108//155 107//155 376//155 374//155 
f 218//156 216//156 455//156 454//156 
f 89//157 88//157 339//157 403//157 
f 68//158 69//158 331//158 323//158 
f 197//159 201//159 453//159 445//159 
f 85//160 72//160 313//160 314//160 
f 187//161 186//161 422//161 420//161 
f 12//30 11//30 266//30 267//30 
f 141//162 127//162 353//162 352//162 
f 240//30 239//30 498//30 499//30 
f 110//163 108//163 374//163 375//163 
f 236//30 237//30 480//30 488//30 
f 90//30 89//30 403//30 342//30 
f 69//164 70//164 332//164 331//164 
f 191//30 197//30 445//30 451//30 
f 86//165 85//165 314//165 312//165 
f 188//166 187//166 420//166 421//166 
f 14//22 12//22 267//22 265//22 
f 142//167 141//167 352//167 349//167 
f 242//22 240//22 499//22 497//22 
f 109//168 110//168 375//168 373//168 
f 229//169 236//169 488//169 483//169 
f 92//22 90//22 342//22 402//22 
f 70//170 71//170 333//170 332//170 
f 192//171 191//171 451//171 449//171 
f 87//172 86//172 312//172 311//172 
f 185//173 188//173 421//173 419//173 
f 13//14 14//14 265//14 264//14 
f 144//174 142//174 349//174 350//174 
f 241//14 242//14 497//14 496//14 
f 112//175 109//175 373//175 372//175 
f 230//176 229//176 483//176 487//176 
f 93//177 92//177 402//177 401//177 
f 71//178 80//178 334//178 333//178 
f 193//30 192//30 449//30 450//30 
f 31//179 87//179 311//179 295//179 
f 190//180 185//180 419//180 418//180 
f 15//181 13//181 264//181 263//181 
f 143//182 144//182 350//182 348//182 
f 243//183 241//183 496//183 495//183 
f 113//184 112//184 372//184 366//184 
f 228//22 230//22 487//22 471//22 
f 150//185 93//185 401//185 400//185 
f 80//186 81//186 335//186 334//186 
f 195//22 193//22 450//22 448//22 
f 35//187 31//187 295//187 294//187 
f 161//188 190//188 418//188 415//188 
f 17//14 15//14 263//14 261//14 
f 145//189 143//189 348//189 347//189 
f 245//14 243//14 495//14 493//14 
f 115//190 113//190 366//190 367//190 
f 219//191 228//191 471//191 470//191 
f 149//192 150//192 400//192 399//192 
f 81//193 82//193 336//193 335//193 
f 194//14 195//14 448//14 447//14 
f 36//194 35//194 294//194 291//194 
f 162//43 161//43 415//43 416//43 
f 18//195 17//195 261//195 259//195 
f 146//196 145//196 347//196 345//196 
f 247//22 245//22 493//22 492//22 
f 114//14 115//14 367//14 365//14 
f 220//197 219//197 470//197 479//197 
f 148//198 149//198 399//198 398//198 
# 458 polygons - 68 triangles

